<?xml version="1.0" encoding="UTF-8"?> <svg xmlns="http://www.w3.org/2000/svg" version="1.1" style="font-family:Lato, 'Helvetica Neue', Helvetica, Arial, sans-serif;font-size:18px;background-color:white;text-rendering:optimizeLegibility;-webkit-font-smoothing:antialiased" width="850" height="600" viewBox="0 0 850 600"><g class="HeaderView"><g transform="translate(774, 15) scale(0.29)"><svg xmlns="http://www.w3.org/2000/svg" width="210" height="120" viewBox="0 0 210 120" fill="none"><g clip-path="url(#clip0)"><path d="M0 0h210v107.89H0V0z" fill="#002147"></path><path d="M40.98 32.25c0 2.36-.38 4.53-1.12 6.51a14.26 14.26 0 0 1-8.1 8.4c-1.9.78-4.02 1.17-6.34 1.17-2.31 0-4.42-.39-6.33-1.17a14.31 14.31 0 0 1-8.08-8.4 18.29 18.29 0 0 1-1.12-6.51c0-2.36.38-4.53 1.12-6.5.75-1.97 1.8-3.67 3.17-5.1a14.32 14.32 0 0 1 4.9-3.34c1.92-.8 4.03-1.19 6.34-1.19 2.32 0 4.43.4 6.34 1.19 1.92.8 3.56 1.9 4.93 3.34a14.87 14.87 0 0 1 3.17 5.1 18.1 18.1 0 0 1 1.12 6.5zm-4.38 0c0-1.94-.26-3.68-.8-5.22a10.91 10.91 0 0 0-2.24-3.89 9.68 9.68 0 0 0-3.52-2.46 11.95 11.95 0 0 0-4.62-.86c-1.68 0-3.21.28-4.6.86a9.88 9.88 0 0 0-3.54 2.46 10.91 10.91 0 0 0-2.24 3.9c-.53 1.53-.8 3.27-.8 5.2 0 1.94.27 3.68.8 5.22a11.17 11.17 0 0 0 2.24 3.9 10.01 10.01 0 0 0 3.55 2.44c1.38.56 2.9.83 4.6.83s3.24-.27 4.61-.83a9.8 9.8 0 0 0 3.52-2.44 11.17 11.17 0 0 0 2.25-3.9c.53-1.54.8-3.28.8-5.21zm26.22-6.54V48H60.5c-.56 0-.9-.27-1.05-.81l-.31-2.4a12.45 12.45 0 0 1-3.26 2.6c-1.2.64-2.58.96-4.13.96-1.22 0-2.3-.2-3.24-.6a6.52 6.52 0 0 1-2.33-1.7 7.37 7.37 0 0 1-1.43-2.67c-.3-1.04-.46-2.2-.46-3.45V25.7h3.91v14.22c0 1.68.38 2.99 1.15 3.91.77.93 1.96 1.39 3.54 1.39 1.16 0 2.24-.27 3.23-.82a10.42 10.42 0 0 0 2.8-2.28V25.7h3.91zm8.61 4.47a9.94 9.94 0 0 1 2.6-3.56 5.64 5.64 0 0 1 3.76-1.3c.47 0 .92.05 1.34.15.44.1.83.27 1.17.49l-.3 2.92c-.09.37-.3.55-.66.55-.2 0-.5-.04-.9-.13a6.21 6.21 0 0 0-3.24.18 4.23 4.23 0 0 0-1.47.92c-.42.4-.81.9-1.17 1.5-.33.58-.64 1.26-.92 2.02V48H67.7V25.71h2.25c.42 0 .72.08.88.25.16.16.27.44.33.83l.26 3.39zm61.16-13.7L122.75 48h-3.82l-7.99-24.05a21.95 21.95 0 0 1-.42-1.58 38.36 38.36 0 0 1-.44 1.58L102.05 48h-3.83L88.4 16.47h3.54c.38 0 .7.1.95.29.26.2.43.43.5.73l6.52 21.9.28 1.28.29 1.46.3-1.46.38-1.27 7.41-21.91c.1-.25.26-.48.51-.69.27-.22.58-.33.95-.33h1.23c.38 0 .69.1.92.29a1.77 1.77 0 0 1 .53.73l7.4 21.9a28.4 28.4 0 0 1 .68 2.62 29.52 29.52 0 0 1 .52-2.61l6.54-21.91a1.31 1.31 0 0 1 .48-.7c.27-.21.58-.32.95-.32h3.32zm9.35 8.88c1.63 0 3.1.27 4.4.82a9.43 9.43 0 0 1 5.46 5.94c.5 1.4.74 2.98.74 4.73 0 1.76-.25 3.34-.74 4.75a9.43 9.43 0 0 1-5.46 5.92c-1.3.52-2.77.79-4.4.79-1.64 0-3.12-.27-4.44-.8a9.42 9.42 0 0 1-3.35-2.3c-.92-1-1.63-2.2-2.13-3.61-.49-1.41-.73-3-.73-4.75s.24-3.33.73-4.73c.5-1.43 1.2-2.64 2.13-3.63.93-1 2.04-1.77 3.35-2.31 1.32-.55 2.8-.82 4.44-.82zm0 19.89c2.2 0 3.84-.73 4.93-2.2 1.08-1.48 1.63-3.54 1.63-6.18 0-2.66-.55-4.72-1.63-6.2-1.09-1.49-2.73-2.23-4.93-2.23-1.12 0-2.09.2-2.93.57a5.71 5.71 0 0 0-2.06 1.65c-.55.72-.96 1.61-1.24 2.67-.26 1.04-.4 2.22-.4 3.54 0 2.64.55 4.7 1.64 6.18 1.1 1.47 2.76 2.2 4.99 2.2zm17.97-15.07a9.94 9.94 0 0 1 2.6-3.56 5.64 5.64 0 0 1 3.76-1.3c.47 0 .91.05 1.34.15.44.1.83.27 1.16.49l-.28 2.92c-.09.37-.31.55-.66.55-.2 0-.5-.04-.9-.13a6.2 6.2 0 0 0-3.24.18 4.23 4.23 0 0 0-1.47.92c-.43.4-.82.9-1.17 1.5a13.1 13.1 0 0 0-.92 2.02V48h-3.94V25.71h2.24c.43 0 .72.08.88.25.17.16.28.44.33.83l.27 3.39zm15.04-14.59V48h-3.92V15.6h3.92zm19.55 15.43a6.22 6.22 0 0 0-2.38-2.05 6.7 6.7 0 0 0-2.86-.6c-2.07 0-3.66.75-4.77 2.23-1.12 1.48-1.68 3.6-1.68 6.33 0 1.46.13 2.7.38 3.74a7.29 7.29 0 0 0 1.1 2.56 4.35 4.35 0 0 0 1.78 1.45c.7.3 1.5.46 2.4.46 1.29 0 2.41-.3 3.36-.88a9.6 9.6 0 0 0 2.67-2.49V31.02zm3.91-15.43V48h-2.33c-.56 0-.9-.27-1.06-.81l-.35-2.71a12.13 12.13 0 0 1-3.25 2.77 8.28 8.28 0 0 1-4.23 1.06 7.31 7.31 0 0 1-6.14-2.9c-.73-.96-1.3-2.15-1.69-3.57a18.35 18.35 0 0 1 .07-9.48 11.29 11.29 0 0 1 1.89-3.7 8.7 8.7 0 0 1 7.06-3.34 7.96 7.96 0 0 1 6.12 2.62V15.59h3.91zM46.61 70.71V93H42.7V70.71h3.91zm.84-7c0 .39-.08.75-.24 1.09-.15.32-.35.61-.62.88-.25.25-.55.44-.9.59a2.67 2.67 0 0 1-2.16 0 2.9 2.9 0 0 1-1.45-1.47 2.67 2.67 0 0 1 0-2.16c.15-.35.35-.65.6-.9.25-.27.53-.47.85-.62a2.67 2.67 0 0 1 2.16 0c.35.15.65.35.9.62.27.25.47.55.62.9.16.34.24.7.24 1.08zm7.97 10.24c.49-.54 1-1.04 1.54-1.48a9.85 9.85 0 0 1 3.66-1.84 8.96 8.96 0 0 1 5.43.35c.94.4 1.72.97 2.33 1.71.63.74 1.11 1.62 1.43 2.67.32 1.04.49 2.19.49 3.45V93h-3.94V78.81c0-1.69-.4-3-1.17-3.92-.76-.93-1.93-1.4-3.5-1.4-1.15 0-2.24.27-3.25.83-1 .56-1.92 1.31-2.77 2.27V93h-3.94V70.71h2.35c.56 0 .9.28 1.04.82l.3 2.42zm57.7 3.3c0 2.36-.37 4.5-1.11 6.44a14.3 14.3 0 0 1-3.17 4.98c-1.37 1.37-3 2.45-4.93 3.2-1.9.76-4.02 1.13-6.33 1.13H85.8V61.47h11.77c2.31 0 4.42.39 6.33 1.15a13.8 13.8 0 0 1 8.1 8.18 17.75 17.75 0 0 1 1.12 6.45zm-4.37 0c0-1.94-.26-3.67-.8-5.2a10.94 10.94 0 0 0-2.23-3.87 9.57 9.57 0 0 0-3.53-2.42 12.23 12.23 0 0 0-4.61-.83h-7.5v24.62h7.5c1.7 0 3.24-.28 4.61-.84a9.7 9.7 0 0 0 3.53-2.4 10.94 10.94 0 0 0 2.24-3.87c.53-1.53.8-3.26.8-5.2zm19.8 5.72c-1.8.06-3.34.2-4.62.44-1.26.22-2.3.51-3.1.88-.8.36-1.37.8-1.74 1.3-.35.5-.53 1.05-.53 1.67 0 .58.1 1.1.3 1.52a3 3 0 0 0 .76 1.05c.34.27.73.46 1.17.6a6.13 6.13 0 0 0 1.45.17 7.28 7.28 0 0 0 3.5-.81 11.95 11.95 0 0 0 2.82-2.2v-4.62zm-12.65-9.11a12.73 12.73 0 0 1 3.98-2.66c1.43-.59 3-.88 4.73-.88 1.25 0 2.36.2 3.33.61a6.81 6.81 0 0 1 3.94 4.38c.33 1.04.5 2.19.5 3.43V93h-1.74a1.8 1.8 0 0 1-.88-.18c-.2-.13-.36-.38-.48-.74l-.44-2.12-1.72 1.46a9.48 9.48 0 0 1-3.74 1.7c-.69.15-1.46.23-2.3.23-.87 0-1.69-.12-2.45-.35a5.34 5.34 0 0 1-3.34-2.93 6.64 6.64 0 0 1-.49-2.64c0-.88.25-1.72.73-2.53a6.33 6.33 0 0 1 2.35-2.17c1.09-.63 2.5-1.15 4.25-1.54 1.75-.41 3.89-.65 6.42-.7v-1.75c0-1.73-.37-3.03-1.12-3.91-.75-.9-1.84-1.34-3.28-1.34-.97 0-1.78.12-2.44.37-.64.23-1.2.5-1.7.81l-1.23.82c-.33.23-.67.35-1 .35-.27 0-.5-.07-.69-.2a2.1 2.1 0 0 1-.48-.53l-.7-1.25zm27.67 19.5c-1.76 0-3.12-.5-4.07-1.48-.94-.98-1.41-2.4-1.41-4.25V74h-2.68a.9.9 0 0 1-.6-.2c-.16-.14-.24-.36-.24-.66v-1.56l3.65-.46.9-6.89c.05-.22.14-.4.29-.52a.88.88 0 0 1 .62-.22H142v7.67h6.44V74H142v13.38c0 .94.22 1.63.68 2.09.45.45 1.04.68 1.76.68a3.21 3.21 0 0 0 1.85-.53l.55-.35c.16-.12.3-.18.41-.18.2 0 .4.13.55.38l1.15 1.87a7.45 7.45 0 0 1-2.44 1.5 8.53 8.53 0 0 1-2.95.52zm19.68-10.4c-1.8.07-3.34.21-4.62.45-1.26.22-2.3.51-3.1.88-.8.36-1.37.8-1.74 1.3-.35.5-.53 1.05-.53 1.67 0 .58.1 1.1.3 1.52a2.9 2.9 0 0 0 .76 1.05c.34.27.73.46 1.17.6a6.13 6.13 0 0 0 1.45.17 7.3 7.3 0 0 0 3.5-.81 12.04 12.04 0 0 0 2.82-2.2v-4.62zm-12.65-9.1a12.72 12.72 0 0 1 3.99-2.66c1.42-.59 3-.88 4.72-.88 1.25 0 2.36.2 3.33.61a6.81 6.81 0 0 1 3.94 4.38c.33 1.04.5 2.19.5 3.43V93h-1.74a1.8 1.8 0 0 1-.88-.18c-.2-.13-.36-.38-.48-.74l-.44-2.12-1.72 1.46a9.48 9.48 0 0 1-3.74 1.7c-.69.15-1.46.23-2.3.23-.87 0-1.69-.12-2.45-.35a5.33 5.33 0 0 1-3.34-2.93 6.62 6.62 0 0 1-.49-2.64c0-.88.25-1.72.73-2.53a6.33 6.33 0 0 1 2.35-2.17c1.09-.63 2.5-1.15 4.25-1.54 1.74-.41 3.89-.65 6.42-.7v-1.75c0-1.73-.37-3.03-1.12-3.91-.75-.9-1.84-1.34-3.28-1.34-.97 0-1.78.12-2.44.37-.64.23-1.2.5-1.7.81l-1.22.82c-.34.23-.68.35-1.02.35-.26 0-.49-.07-.68-.2a1.88 1.88 0 0 1-.48-.53l-.7-1.25zM40.98 32.25c0 2.36-.38 4.53-1.12 6.51a14.26 14.26 0 0 1-8.1 8.4c-1.9.78-4.02 1.17-6.34 1.17-2.31 0-4.42-.39-6.33-1.17a14.31 14.31 0 0 1-8.08-8.4 18.29 18.29 0 0 1-1.12-6.51c0-2.36.38-4.53 1.12-6.5.75-1.97 1.8-3.67 3.17-5.1a14.32 14.32 0 0 1 4.9-3.34c1.92-.8 4.03-1.19 6.34-1.19 2.32 0 4.43.4 6.34 1.19 1.92.8 3.56 1.9 4.93 3.34a14.87 14.87 0 0 1 3.17 5.1 18.1 18.1 0 0 1 1.12 6.5zm-4.38 0c0-1.94-.26-3.68-.8-5.22a10.91 10.91 0 0 0-2.24-3.89 9.68 9.68 0 0 0-3.52-2.46 11.95 11.95 0 0 0-4.62-.86c-1.68 0-3.21.28-4.6.86a9.88 9.88 0 0 0-3.54 2.46 10.91 10.91 0 0 0-2.24 3.9c-.53 1.53-.8 3.27-.8 5.2 0 1.94.27 3.68.8 5.22a11.17 11.17 0 0 0 2.24 3.9 10.01 10.01 0 0 0 3.55 2.44c1.38.56 2.9.83 4.6.83s3.24-.27 4.61-.83a9.8 9.8 0 0 0 3.52-2.44 11.17 11.17 0 0 0 2.25-3.9c.53-1.54.8-3.28.8-5.21zm26.22-6.54V48H60.5c-.56 0-.9-.27-1.05-.81l-.31-2.4a12.45 12.45 0 0 1-3.26 2.6c-1.2.64-2.58.96-4.13.96-1.22 0-2.3-.2-3.24-.6a6.52 6.52 0 0 1-2.33-1.7 7.37 7.37 0 0 1-1.43-2.67c-.3-1.04-.46-2.2-.46-3.45V25.7h3.91v14.22c0 1.68.38 2.99 1.15 3.91.77.93 1.96 1.39 3.54 1.39 1.16 0 2.24-.27 3.23-.82a10.42 10.42 0 0 0 2.8-2.28V25.7h3.91zm8.61 4.47a9.94 9.94 0 0 1 2.6-3.56 5.64 5.64 0 0 1 3.76-1.3c.47 0 .92.05 1.34.15.44.1.83.27 1.17.49l-.3 2.92c-.09.37-.3.55-.66.55-.2 0-.5-.04-.9-.13a6.21 6.21 0 0 0-3.24.18 4.23 4.23 0 0 0-1.47.92c-.42.4-.81.9-1.17 1.5-.33.58-.64 1.26-.92 2.02V48H67.7V25.71h2.25c.42 0 .72.08.88.25.16.16.27.44.33.83l.26 3.39zm61.16-13.7L122.75 48h-3.82l-7.99-24.05a21.95 21.95 0 0 1-.42-1.58 38.36 38.36 0 0 1-.44 1.58L102.05 48h-3.83L88.4 16.47h3.54c.38 0 .7.1.95.29.26.2.43.43.5.73l6.52 21.9.28 1.28.29 1.46.3-1.46.38-1.27 7.41-21.91c.1-.25.26-.48.51-.69.27-.22.58-.33.95-.33h1.23c.38 0 .69.1.92.29a1.77 1.77 0 0 1 .53.73l7.4 21.9a28.4 28.4 0 0 1 .68 2.62 29.52 29.52 0 0 1 .52-2.61l6.54-21.91a1.31 1.31 0 0 1 .48-.7c.27-.21.58-.32.95-.32h3.32zm9.35 8.88c1.63 0 3.1.27 4.4.82a9.43 9.43 0 0 1 5.46 5.94c.5 1.4.74 2.98.74 4.73 0 1.76-.25 3.34-.74 4.75a9.43 9.43 0 0 1-5.46 5.92c-1.3.52-2.77.79-4.4.79-1.64 0-3.12-.27-4.44-.8a9.42 9.42 0 0 1-3.35-2.3c-.92-1-1.63-2.2-2.13-3.61-.49-1.41-.73-3-.73-4.75s.24-3.33.73-4.73c.5-1.43 1.2-2.64 2.13-3.63.93-1 2.04-1.77 3.35-2.31 1.32-.55 2.8-.82 4.44-.82zm0 19.89c2.2 0 3.84-.73 4.93-2.2 1.08-1.48 1.63-3.54 1.63-6.18 0-2.66-.55-4.72-1.63-6.2-1.09-1.49-2.73-2.23-4.93-2.23-1.12 0-2.09.2-2.93.57a5.71 5.71 0 0 0-2.06 1.65c-.55.72-.96 1.61-1.24 2.67-.26 1.04-.4 2.22-.4 3.54 0 2.64.55 4.7 1.64 6.18 1.1 1.47 2.76 2.2 4.99 2.2zm17.97-15.07a9.94 9.94 0 0 1 2.6-3.56 5.64 5.64 0 0 1 3.76-1.3c.47 0 .91.05 1.34.15.44.1.83.27 1.16.49l-.28 2.92c-.09.37-.31.55-.66.55-.2 0-.5-.04-.9-.13a6.2 6.2 0 0 0-3.24.18 4.23 4.23 0 0 0-1.47.92c-.43.4-.82.9-1.17 1.5a13.1 13.1 0 0 0-.92 2.02V48h-3.94V25.71h2.24c.43 0 .72.08.88.25.17.16.28.44.33.83l.27 3.39zm15.04-14.59V48h-3.92V15.6h3.92zm19.55 15.43a6.22 6.22 0 0 0-2.38-2.05 6.7 6.7 0 0 0-2.86-.6c-2.07 0-3.66.75-4.77 2.23-1.12 1.48-1.68 3.6-1.68 6.33 0 1.46.13 2.7.38 3.74a7.29 7.29 0 0 0 1.1 2.56 4.35 4.35 0 0 0 1.78 1.45c.7.3 1.5.46 2.4.46 1.29 0 2.41-.3 3.36-.88a9.6 9.6 0 0 0 2.67-2.49V31.02zm3.91-15.43V48h-2.33c-.56 0-.9-.27-1.06-.81l-.35-2.71a12.13 12.13 0 0 1-3.25 2.77 8.28 8.28 0 0 1-4.23 1.06 7.31 7.31 0 0 1-6.14-2.9c-.73-.96-1.3-2.15-1.69-3.57a18.35 18.35 0 0 1 .07-9.48 11.29 11.29 0 0 1 1.89-3.7 8.7 8.7 0 0 1 7.06-3.34 7.96 7.96 0 0 1 6.12 2.62V15.59h3.91zM46.61 70.71V93H42.7V70.71h3.91zm.84-7c0 .39-.08.75-.24 1.09-.15.32-.35.61-.62.88-.25.25-.55.44-.9.59a2.67 2.67 0 0 1-2.16 0 2.9 2.9 0 0 1-1.45-1.47 2.67 2.67 0 0 1 0-2.16c.15-.35.35-.65.6-.9.25-.27.53-.47.85-.62a2.67 2.67 0 0 1 2.16 0c.35.15.65.35.9.62.27.25.47.55.62.9.16.34.24.7.24 1.08zm7.97 10.24c.49-.54 1-1.04 1.54-1.48a9.85 9.85 0 0 1 3.66-1.84 8.96 8.96 0 0 1 5.43.35c.94.4 1.72.97 2.33 1.71.63.74 1.11 1.62 1.43 2.67.32 1.04.49 2.19.49 3.45V93h-3.94V78.81c0-1.69-.4-3-1.17-3.92-.76-.93-1.93-1.4-3.5-1.4-1.15 0-2.24.27-3.25.83-1 .56-1.92 1.31-2.77 2.27V93h-3.94V70.71h2.35c.56 0 .9.28 1.04.82l.3 2.42zm57.7 3.3c0 2.36-.37 4.5-1.11 6.44a14.3 14.3 0 0 1-3.17 4.98c-1.37 1.37-3 2.45-4.93 3.2-1.9.76-4.02 1.13-6.33 1.13H85.8V61.47h11.77c2.31 0 4.42.39 6.33 1.15a13.8 13.8 0 0 1 8.1 8.18 17.75 17.75 0 0 1 1.12 6.45zm-4.37 0c0-1.94-.26-3.67-.8-5.2a10.94 10.94 0 0 0-2.23-3.87 9.57 9.57 0 0 0-3.53-2.42 12.23 12.23 0 0 0-4.61-.83h-7.5v24.62h7.5c1.7 0 3.24-.28 4.61-.84a9.7 9.7 0 0 0 3.53-2.4 10.94 10.94 0 0 0 2.24-3.87c.53-1.53.8-3.26.8-5.2zm19.8 5.72c-1.8.06-3.34.2-4.62.44-1.26.22-2.3.51-3.1.88-.8.36-1.37.8-1.74 1.3-.35.5-.53 1.05-.53 1.67 0 .58.1 1.1.3 1.52a3 3 0 0 0 .76 1.05c.34.27.73.46 1.17.6a6.13 6.13 0 0 0 1.45.17 7.28 7.28 0 0 0 3.5-.81 11.95 11.95 0 0 0 2.82-2.2v-4.62zm-12.65-9.11a12.73 12.73 0 0 1 3.98-2.66c1.43-.59 3-.88 4.73-.88 1.25 0 2.36.2 3.33.61a6.81 6.81 0 0 1 3.94 4.38c.33 1.04.5 2.19.5 3.43V93h-1.74a1.8 1.8 0 0 1-.88-.18c-.2-.13-.36-.38-.48-.74l-.44-2.12-1.72 1.46a9.48 9.48 0 0 1-3.74 1.7c-.69.15-1.46.23-2.3.23-.87 0-1.69-.12-2.45-.35a5.34 5.34 0 0 1-3.34-2.93 6.64 6.64 0 0 1-.49-2.64c0-.88.25-1.72.73-2.53a6.33 6.33 0 0 1 2.35-2.17c1.09-.63 2.5-1.15 4.25-1.54 1.75-.41 3.89-.65 6.42-.7v-1.75c0-1.73-.37-3.03-1.12-3.91-.75-.9-1.84-1.34-3.28-1.34-.97 0-1.78.12-2.44.37-.64.23-1.2.5-1.7.81l-1.23.82c-.33.23-.67.35-1 .35-.27 0-.5-.07-.69-.2a2.1 2.1 0 0 1-.48-.53l-.7-1.25zm27.67 19.5c-1.76 0-3.12-.5-4.07-1.48-.94-.98-1.41-2.4-1.41-4.25V74h-2.68a.9.9 0 0 1-.6-.2c-.16-.14-.24-.36-.24-.66v-1.56l3.65-.46.9-6.89c.05-.22.14-.4.29-.52a.88.88 0 0 1 .62-.22H142v7.67h6.44V74H142v13.38c0 .94.22 1.63.68 2.09.45.45 1.04.68 1.76.68a3.21 3.21 0 0 0 1.85-.53l.55-.35c.16-.12.3-.18.41-.18.2 0 .4.13.55.38l1.15 1.87a7.45 7.45 0 0 1-2.44 1.5 8.53 8.53 0 0 1-2.95.52zm19.68-10.4c-1.8.07-3.34.21-4.62.45-1.26.22-2.3.51-3.1.88-.8.36-1.37.8-1.74 1.3-.35.5-.53 1.05-.53 1.67 0 .58.1 1.1.3 1.52a2.9 2.9 0 0 0 .76 1.05c.34.27.73.46 1.17.6a6.13 6.13 0 0 0 1.45.17 7.3 7.3 0 0 0 3.5-.81 12.04 12.04 0 0 0 2.82-2.2v-4.62zm-12.65-9.1a12.72 12.72 0 0 1 3.99-2.66c1.42-.59 3-.88 4.72-.88 1.25 0 2.36.2 3.33.61a6.81 6.81 0 0 1 3.94 4.38c.33 1.04.5 2.19.5 3.43V93h-1.74a1.8 1.8 0 0 1-.88-.18c-.2-.13-.36-.38-.48-.74l-.44-2.12-1.72 1.46a9.48 9.48 0 0 1-3.74 1.7c-.69.15-1.46.23-2.3.23-.87 0-1.69-.12-2.45-.35a5.33 5.33 0 0 1-3.34-2.93 6.62 6.62 0 0 1-.49-2.64c0-.88.25-1.72.73-2.53a6.33 6.33 0 0 1 2.35-2.17c1.09-.63 2.5-1.15 4.25-1.54 1.74-.41 3.89-.65 6.42-.7v-1.75c0-1.73-.37-3.03-1.12-3.91-.75-.9-1.84-1.34-3.28-1.34-.97 0-1.78.12-2.44.37-.64.23-1.2.5-1.7.81l-1.22.82c-.34.23-.68.35-1.02.35-.26 0-.49-.07-.68-.2a1.88 1.88 0 0 1-.48-.53l-.7-1.25zM40.98 32.25c0 2.36-.38 4.53-1.12 6.51a14.26 14.26 0 0 1-8.1 8.4c-1.9.78-4.02 1.17-6.34 1.17-2.31 0-4.42-.39-6.33-1.17a14.31 14.31 0 0 1-8.08-8.4 18.29 18.29 0 0 1-1.12-6.51c0-2.36.38-4.53 1.12-6.5.75-1.97 1.8-3.67 3.17-5.1a14.32 14.32 0 0 1 4.9-3.34c1.92-.8 4.03-1.19 6.34-1.19 2.32 0 4.43.4 6.34 1.19 1.92.8 3.56 1.9 4.93 3.34a14.87 14.87 0 0 1 3.17 5.1 18.1 18.1 0 0 1 1.12 6.5zm-4.38 0c0-1.94-.26-3.68-.8-5.22a10.91 10.91 0 0 0-2.24-3.89 9.68 9.68 0 0 0-3.52-2.46 11.95 11.95 0 0 0-4.62-.86c-1.68 0-3.21.28-4.6.86a9.88 9.88 0 0 0-3.54 2.46 10.91 10.91 0 0 0-2.24 3.9c-.53 1.53-.8 3.27-.8 5.2 0 1.94.27 3.68.8 5.22a11.17 11.17 0 0 0 2.24 3.9 10.01 10.01 0 0 0 3.55 2.44c1.38.56 2.9.83 4.6.83s3.24-.27 4.61-.83a9.8 9.8 0 0 0 3.52-2.44 11.17 11.17 0 0 0 2.25-3.9c.53-1.54.8-3.28.8-5.21zm26.22-6.54V48H60.5c-.56 0-.9-.27-1.05-.81l-.31-2.4a12.45 12.45 0 0 1-3.26 2.6c-1.2.64-2.58.96-4.13.96-1.22 0-2.3-.2-3.24-.6a6.52 6.52 0 0 1-2.33-1.7 7.37 7.37 0 0 1-1.43-2.67c-.3-1.04-.46-2.2-.46-3.45V25.7h3.91v14.22c0 1.68.38 2.99 1.15 3.91.77.93 1.96 1.39 3.54 1.39 1.16 0 2.24-.27 3.23-.82a10.42 10.42 0 0 0 2.8-2.28V25.7h3.91zm8.61 4.47a9.94 9.94 0 0 1 2.6-3.56 5.64 5.64 0 0 1 3.76-1.3c.47 0 .92.05 1.34.15.44.1.83.27 1.17.49l-.3 2.92c-.09.37-.3.55-.66.55-.2 0-.5-.04-.9-.13a6.21 6.21 0 0 0-3.24.18 4.23 4.23 0 0 0-1.47.92c-.42.4-.81.9-1.17 1.5-.33.58-.64 1.26-.92 2.02V48H67.7V25.71h2.25c.42 0 .72.08.88.25.16.16.27.44.33.83l.26 3.39zm61.16-13.7L122.75 48h-3.82l-7.99-24.05a21.95 21.95 0 0 1-.42-1.58 38.36 38.36 0 0 1-.44 1.58L102.05 48h-3.83L88.4 16.47h3.54c.38 0 .7.1.95.29.26.2.43.43.5.73l6.52 21.9.28 1.28.29 1.46.3-1.46.38-1.27 7.41-21.91c.1-.25.26-.48.51-.69.27-.22.58-.33.95-.33h1.23c.38 0 .69.1.92.29a1.77 1.77 0 0 1 .53.73l7.4 21.9a28.4 28.4 0 0 1 .68 2.62 29.52 29.52 0 0 1 .52-2.61l6.54-21.91a1.31 1.31 0 0 1 .48-.7c.27-.21.58-.32.95-.32h3.32zm9.35 8.88c1.63 0 3.1.27 4.4.82a9.43 9.43 0 0 1 5.46 5.94c.5 1.4.74 2.98.74 4.73 0 1.76-.25 3.34-.74 4.75a9.43 9.43 0 0 1-5.46 5.92c-1.3.52-2.77.79-4.4.79-1.64 0-3.12-.27-4.44-.8a9.42 9.42 0 0 1-3.35-2.3c-.92-1-1.63-2.2-2.13-3.61-.49-1.41-.73-3-.73-4.75s.24-3.33.73-4.73c.5-1.43 1.2-2.64 2.13-3.63.93-1 2.04-1.77 3.35-2.31 1.32-.55 2.8-.82 4.44-.82zm0 19.89c2.2 0 3.84-.73 4.93-2.2 1.08-1.48 1.63-3.54 1.63-6.18 0-2.66-.55-4.72-1.63-6.2-1.09-1.49-2.73-2.23-4.93-2.23-1.12 0-2.09.2-2.93.57a5.71 5.71 0 0 0-2.06 1.65c-.55.72-.96 1.61-1.24 2.67-.26 1.04-.4 2.22-.4 3.54 0 2.64.55 4.7 1.64 6.18 1.1 1.47 2.76 2.2 4.99 2.2zm17.97-15.07a9.94 9.94 0 0 1 2.6-3.56 5.64 5.64 0 0 1 3.76-1.3c.47 0 .91.05 1.34.15.44.1.83.27 1.16.49l-.28 2.92c-.09.37-.31.55-.66.55-.2 0-.5-.04-.9-.13a6.2 6.2 0 0 0-3.24.18 4.23 4.23 0 0 0-1.47.92c-.43.4-.82.9-1.17 1.5a13.1 13.1 0 0 0-.92 2.02V48h-3.94V25.71h2.24c.43 0 .72.08.88.25.17.16.28.44.33.83l.27 3.39zm15.04-14.59V48h-3.92V15.6h3.92zm19.55 15.43a6.22 6.22 0 0 0-2.38-2.05 6.7 6.7 0 0 0-2.86-.6c-2.07 0-3.66.75-4.77 2.23-1.12 1.48-1.68 3.6-1.68 6.33 0 1.46.13 2.7.38 3.74a7.29 7.29 0 0 0 1.1 2.56 4.35 4.35 0 0 0 1.78 1.45c.7.3 1.5.46 2.4.46 1.29 0 2.41-.3 3.36-.88a9.6 9.6 0 0 0 2.67-2.49V31.02zm3.91-15.43V48h-2.33c-.56 0-.9-.27-1.06-.81l-.35-2.71a12.13 12.13 0 0 1-3.25 2.77 8.28 8.28 0 0 1-4.23 1.06 7.31 7.31 0 0 1-6.14-2.9c-.73-.96-1.3-2.15-1.69-3.57a18.35 18.35 0 0 1 .07-9.48 11.29 11.29 0 0 1 1.89-3.7 8.7 8.7 0 0 1 7.06-3.34 7.96 7.96 0 0 1 6.12 2.62V15.59h3.91zM46.61 70.71V93H42.7V70.71h3.91zm.84-7c0 .39-.08.75-.24 1.09-.15.32-.35.61-.62.88-.25.25-.55.44-.9.59a2.67 2.67 0 0 1-2.16 0 2.9 2.9 0 0 1-1.45-1.47 2.67 2.67 0 0 1 0-2.16c.15-.35.35-.65.6-.9.25-.27.53-.47.85-.62a2.67 2.67 0 0 1 2.16 0c.35.15.65.35.9.62.27.25.47.55.62.9.16.34.24.7.24 1.08zm7.97 10.24c.49-.54 1-1.04 1.54-1.48a9.85 9.85 0 0 1 3.66-1.84 8.96 8.96 0 0 1 5.43.35c.94.4 1.72.97 2.33 1.71.63.74 1.11 1.62 1.43 2.67.32 1.04.49 2.19.49 3.45V93h-3.94V78.81c0-1.69-.4-3-1.17-3.92-.76-.93-1.93-1.4-3.5-1.4-1.15 0-2.24.27-3.25.83-1 .56-1.92 1.31-2.77 2.27V93h-3.94V70.71h2.35c.56 0 .9.28 1.04.82l.3 2.42zm57.7 3.3c0 2.36-.37 4.5-1.11 6.44a14.3 14.3 0 0 1-3.17 4.98c-1.37 1.37-3 2.45-4.93 3.2-1.9.76-4.02 1.13-6.33 1.13H85.8V61.47h11.77c2.31 0 4.42.39 6.33 1.15a13.8 13.8 0 0 1 8.1 8.18 17.75 17.75 0 0 1 1.12 6.45zm-4.37 0c0-1.94-.26-3.67-.8-5.2a10.94 10.94 0 0 0-2.23-3.87 9.57 9.57 0 0 0-3.53-2.42 12.23 12.23 0 0 0-4.61-.83h-7.5v24.62h7.5c1.7 0 3.24-.28 4.61-.84a9.7 9.7 0 0 0 3.53-2.4 10.94 10.94 0 0 0 2.24-3.87c.53-1.53.8-3.26.8-5.2zm19.8 5.72c-1.8.06-3.34.2-4.62.44-1.26.22-2.3.51-3.1.88-.8.36-1.37.8-1.74 1.3-.35.5-.53 1.05-.53 1.67 0 .58.1 1.1.3 1.52a3 3 0 0 0 .76 1.05c.34.27.73.46 1.17.6a6.13 6.13 0 0 0 1.45.17 7.28 7.28 0 0 0 3.5-.81 11.95 11.95 0 0 0 2.82-2.2v-4.62zm-12.65-9.11a12.73 12.73 0 0 1 3.98-2.66c1.43-.59 3-.88 4.73-.88 1.25 0 2.36.2 3.33.61a6.81 6.81 0 0 1 3.94 4.38c.33 1.04.5 2.19.5 3.43V93h-1.74a1.8 1.8 0 0 1-.88-.18c-.2-.13-.36-.38-.48-.74l-.44-2.12-1.72 1.46a9.48 9.48 0 0 1-3.74 1.7c-.69.15-1.46.23-2.3.23-.87 0-1.69-.12-2.45-.35a5.34 5.34 0 0 1-3.34-2.93 6.64 6.64 0 0 1-.49-2.64c0-.88.25-1.72.73-2.53a6.33 6.33 0 0 1 2.35-2.17c1.09-.63 2.5-1.15 4.25-1.54 1.75-.41 3.89-.65 6.42-.7v-1.75c0-1.73-.37-3.03-1.12-3.91-.75-.9-1.84-1.34-3.28-1.34-.97 0-1.78.12-2.44.37-.64.23-1.2.5-1.7.81l-1.23.82c-.33.23-.67.35-1 .35-.27 0-.5-.07-.69-.2a2.1 2.1 0 0 1-.48-.53l-.7-1.25zm27.67 19.5c-1.76 0-3.12-.5-4.07-1.48-.94-.98-1.41-2.4-1.41-4.25V74h-2.68a.9.9 0 0 1-.6-.2c-.16-.14-.24-.36-.24-.66v-1.56l3.65-.46.9-6.89c.05-.22.14-.4.29-.52a.88.88 0 0 1 .62-.22H142v7.67h6.44V74H142v13.38c0 .94.22 1.63.68 2.09.45.45 1.04.68 1.76.68a3.21 3.21 0 0 0 1.85-.53l.55-.35c.16-.12.3-.18.41-.18.2 0 .4.13.55.38l1.15 1.87a7.45 7.45 0 0 1-2.44 1.5 8.53 8.53 0 0 1-2.95.52zm19.68-10.4c-1.8.07-3.34.21-4.62.45-1.26.22-2.3.51-3.1.88-.8.36-1.37.8-1.74 1.3-.35.5-.53 1.05-.53 1.67 0 .58.1 1.1.3 1.52a2.9 2.9 0 0 0 .76 1.05c.34.27.73.46 1.17.6a6.13 6.13 0 0 0 1.45.17 7.3 7.3 0 0 0 3.5-.81 12.04 12.04 0 0 0 2.82-2.2v-4.62zm-12.65-9.1a12.72 12.72 0 0 1 3.99-2.66c1.42-.59 3-.88 4.72-.88 1.25 0 2.36.2 3.33.61a6.81 6.81 0 0 1 3.94 4.38c.33 1.04.5 2.19.5 3.43V93h-1.74a1.8 1.8 0 0 1-.88-.18c-.2-.13-.36-.38-.48-.74l-.44-2.12-1.72 1.46a9.48 9.48 0 0 1-3.74 1.7c-.69.15-1.46.23-2.3.23-.87 0-1.69-.12-2.45-.35a5.33 5.33 0 0 1-3.34-2.93 6.62 6.62 0 0 1-.49-2.64c0-.88.25-1.72.73-2.53a6.33 6.33 0 0 1 2.35-2.17c1.09-.63 2.5-1.15 4.25-1.54 1.74-.41 3.89-.65 6.42-.7v-1.75c0-1.73-.37-3.03-1.12-3.91-.75-.9-1.84-1.34-3.28-1.34-.97 0-1.78.12-2.44.37-.64.23-1.2.5-1.7.81l-1.22.82c-.34.23-.68.35-1.02.35-.26 0-.49-.07-.68-.2a1.88 1.88 0 0 1-.48-.53l-.7-1.25z" fill="#fff"></path><path fill="#D42B21" d="M0 106.79h210V120H0z"></path></g><defs><clipPath id="clip0"><path fill="#fff" d="M0 0h210v120H0z"></path></clipPath></defs></svg></g><a href="https://ourworldindata.org/grapher/agricultural-area-per-capita?tab=chart&amp;region=World" style="font-family:&quot;Playfair Display&quot;, Georgia, &quot;Times New Roman&quot;, serif" rel="noopener"><text font-size="25.20" x="15.0" y="35.2" fill="#555"><tspan x="15" y="35.160000000000004">Agricultural land per capita</tspan></text></a><text font-size="14.40" x="15.0" y="55.7" fill="#666"><tspan x="15" y="55.72">Agricultural land is the sum of cropland and land used as pasture for grazing livestock.</tspan></text></g><g class="LineChart"><defs><clipPath id="boundsClip-4"><rect x="55.36" y="0" width="830" height="959.8"></rect></clipPath></defs><g class="DualAxisView"><g class="HorizontalAxis"><line x1="65.4" y1="535.3" x2="65.4" y2="539.3" stroke="#ccc"></line><line x1="164.6" y1="535.3" x2="164.6" y2="539.3" stroke="#ccc"></line><line x1="274.9" y1="535.3" x2="274.9" y2="539.3" stroke="#ccc"></line><line x1="385.2" y1="535.3" x2="385.2" y2="539.3" stroke="#ccc"></line><line x1="495.5" y1="535.3" x2="495.5" y2="539.3" stroke="#ccc"></line><line x1="605.8" y1="535.3" x2="605.8" y2="539.3" stroke="#ccc"></line><line x1="694" y1="535.3" x2="694" y2="539.3" stroke="#ccc"></line><text x="65.4" y="556.5" fill="#666" text-anchor="middle" font-size="16.2">1961</text><text x="164.6" y="556.5" fill="#666" text-anchor="middle" font-size="16.2">1970</text><text x="274.9" y="556.5" fill="#666" text-anchor="middle" font-size="16.2">1980</text><text x="385.2" y="556.5" fill="#666" text-anchor="middle" font-size="16.2">1990</text><text x="495.5" y="556.5" fill="#666" text-anchor="middle" font-size="16.2">2000</text><text x="605.8" y="556.5" fill="#666" text-anchor="middle" font-size="16.2">2010</text><text x="694" y="556.5" fill="#666" text-anchor="middle" font-size="16.2">2018</text></g><g class="VerticalAxis"><text x="60.36" y="535.3" fill="#666" text-anchor="end" font-size="16.2">0 ha</text><text x="60.36" y="471.4" fill="#666" text-anchor="end" font-size="16.2">0.5 ha</text><text x="60.36" y="407.5" fill="#666" text-anchor="end" font-size="16.2">1 ha</text><text x="60.36" y="343.6" fill="#666" text-anchor="end" font-size="16.2">1.5 ha</text><text x="60.36" y="279.7" fill="#666" text-anchor="end" font-size="16.2">2 ha</text><text x="60.36" y="215.8" fill="#666" text-anchor="end" font-size="16.2">2.5 ha</text><text x="60.36" y="151.9" fill="#666" text-anchor="end" font-size="16.2">3 ha</text><text x="60.36" y="88" fill="#666" text-anchor="end" font-size="16.2">3.5 ha</text></g><g class="AxisGridLines horizontalLines"><line x1="65.36" y1="535.3" x2="694.02" y2="535.3" stroke="#ccc"></line><line x1="65.36" y1="471.4" x2="694.02" y2="471.4" stroke="#d3d3d3" stroke-dasharray="3,2"></line><line x1="65.36" y1="407.5" x2="694.02" y2="407.5" stroke="#d3d3d3" stroke-dasharray="3,2"></line><line x1="65.36" y1="343.6" x2="694.02" y2="343.6" stroke="#d3d3d3" stroke-dasharray="3,2"></line><line x1="65.36" y1="279.7" x2="694.02" y2="279.7" stroke="#d3d3d3" stroke-dasharray="3,2"></line><line x1="65.36" y1="215.8" x2="694.02" y2="215.8" stroke="#d3d3d3" stroke-dasharray="3,2"></line><line x1="65.36" y1="151.9" x2="694.02" y2="151.9" stroke="#d3d3d3" stroke-dasharray="3,2"></line><line x1="65.36" y1="88" x2="694.02" y2="88" stroke="#d3d3d3" stroke-dasharray="3,2"></line></g></g><g clip-path="url(#boundsClip-4)"><g class="LineLabels" style="cursor:pointer"><g class="legendMark"><g class="indicator"><path d="M698.025,361.1 H711.525 V359 H725.025" stroke="#999" stroke-width="0.5" fill="none"></path></g><rect x="694.025" y="352.25" width="123.83000000000001" height="13.5" fill="#fff" opacity="0"></rect><text font-size="13.50" x="729.0" y="363.1" fill="#00823F"><tspan x="729.025" y="363.05">South America</tspan></text></g><g class="legendMark"><g class="indicator"><path d="M698.025,372.4 H711.525 V374.5 H725.025" stroke="#999" stroke-width="0.5" fill="none"></path></g><rect x="694.025" y="367.75" width="140.97500000000002" height="13.5" fill="#fff" opacity="0"></rect><text font-size="13.50" x="729.0" y="378.6" fill="#883039"><tspan x="729.025" y="378.55">Northern America</tspan></text></g><g class="legendMark"><g class="indicator"><path d="M698.025,422.9 H711.525 V422.9 H725.025" stroke="#999" stroke-width="0.5" fill="none"></path></g><rect x="694.025" y="416.15" width="69.56" height="13.5" fill="#fff" opacity="0"></rect><text font-size="13.50" x="729.0" y="426.9" fill="#CF0A66"><tspan x="729.025" y="426.95">Africa</tspan></text></g><g class="legendMark"><g class="indicator"><path d="M698.025,454.9 H711.525 V454.9 H725.025" stroke="#999" stroke-width="0.5" fill="none"></path></g><rect x="694.025" y="448.15" width="70.235" height="13.5" fill="#fff" opacity="0"></rect><text font-size="13.50" x="729.0" y="458.9" fill="#ca2628"><tspan x="729.025" y="458.95">World</tspan></text></g><g class="legendMark"><g class="indicator"><path d="M698.025,485.4 H707.025 V482.59999999999997 H725.025" stroke="#999" stroke-width="0.5" fill="none"></path></g><rect x="694.025" y="475.84999999999997" width="111.81500000000001" height="13.5" fill="#fff" opacity="0"></rect><text font-size="13.50" x="729.0" y="486.6" fill="#00847E"><tspan x="729.025" y="486.65">Eastern Asia</tspan></text></g><g class="legendMark"><g class="indicator"><path d="M698.025,500.7 H716.025 V498.09999999999997 H725.025" stroke="#999" stroke-width="0.5" fill="none"></path></g><rect x="694.025" y="491.34999999999997" width="132.875" height="13.5" fill="#fff" opacity="0"></rect><text font-size="13.50" x="729.0" y="502.1" fill="#B13507"><tspan x="729.025" y="502.15">Western Europe</tspan></text></g><g class="legendMark"><g class="indicator"><path d="M698.025,508.2 H716.025 V513.5999999999999 H725.025" stroke="#999" stroke-width="0.5" fill="none"></path></g><rect x="694.025" y="506.84999999999997" width="126.26" height="13.5" fill="#fff" opacity="0"></rect><text font-size="13.50" x="729.0" y="517.6" fill="#3C4E66"><tspan x="729.025" y="517.6499999999999">Southeast Asia</tspan></text></g></g><g class="Lines"><rect x="65" y="77" width="629" height="459" fill="rgba(255,255,255,0)" opacity="0"></rect><g class="key-World_0"><path stroke="#ca2628" stroke-linecap="round" d="M65 351L76 354L87 357L98 360L110 363L121 366L132 369L143 371L154 374L165 378L176 380L187 383L198 385L209 388L220 390L231 393L242 395L253 397L264 400L275 402L286 404L297 406L308 408L319 409L330 411L341 413L352 415L363 416L374 418L385 420L396 422L407 423L418 425L429 426L440 428L451 429L462 430L473 431L485 433L496 434L507 435L518 437L529 438L540 440L551 441L562 442L573 443L584 445L595 446L606 447L617 448L628 449L639 450L650 451L661 453L672 454L683 454L694 455" fill="none" stroke-width="1.5"></path><g fill="#ca2628"><circle cx="65" cy="351" r="2"></circle><circle cx="76" cy="354" r="2"></circle><circle cx="87" cy="357" r="2"></circle><circle cx="98" cy="360" r="2"></circle><circle cx="110" cy="363" r="2"></circle><circle cx="121" cy="366" r="2"></circle><circle cx="132" cy="369" r="2"></circle><circle cx="143" cy="371" r="2"></circle><circle cx="154" cy="374" r="2"></circle><circle cx="165" cy="378" r="2"></circle><circle cx="176" cy="380" r="2"></circle><circle cx="187" cy="383" r="2"></circle><circle cx="198" cy="385" r="2"></circle><circle cx="209" cy="388" r="2"></circle><circle cx="220" cy="390" r="2"></circle><circle cx="231" cy="393" r="2"></circle><circle cx="242" cy="395" r="2"></circle><circle cx="253" cy="397" r="2"></circle><circle cx="264" cy="400" r="2"></circle><circle cx="275" cy="402" r="2"></circle><circle cx="286" cy="404" r="2"></circle><circle cx="297" cy="406" r="2"></circle><circle cx="308" cy="408" r="2"></circle><circle cx="319" cy="409" r="2"></circle><circle cx="330" cy="411" r="2"></circle><circle cx="341" cy="413" r="2"></circle><circle cx="352" cy="415" r="2"></circle><circle cx="363" cy="416" r="2"></circle><circle cx="374" cy="418" r="2"></circle><circle cx="385" cy="420" r="2"></circle><circle cx="396" cy="422" r="2"></circle><circle cx="407" cy="423" r="2"></circle><circle cx="418" cy="425" r="2"></circle><circle cx="429" cy="426" r="2"></circle><circle cx="440" cy="428" r="2"></circle><circle cx="451" cy="429" r="2"></circle><circle cx="462" cy="430" r="2"></circle><circle cx="473" cy="431" r="2"></circle><circle cx="485" cy="433" r="2"></circle><circle cx="496" cy="434" r="2"></circle><circle cx="507" cy="435" r="2"></circle><circle cx="518" cy="437" r="2"></circle><circle cx="529" cy="438" r="2"></circle><circle cx="540" cy="440" r="2"></circle><circle cx="551" cy="441" r="2"></circle><circle cx="562" cy="442" r="2"></circle><circle cx="573" cy="443" r="2"></circle><circle cx="584" cy="445" r="2"></circle><circle cx="595" cy="446" r="2"></circle><circle cx="606" cy="447" r="2"></circle><circle cx="617" cy="448" r="2"></circle><circle cx="628" cy="449" r="2"></circle><circle cx="639" cy="450" r="2"></circle><circle cx="650" cy="451" r="2"></circle><circle cx="661" cy="453" r="2"></circle><circle cx="672" cy="454" r="2"></circle><circle cx="683" cy="454" r="2"></circle><circle cx="694" cy="455" r="2"></circle></g></g><g class="key-South-America_0"><path stroke="#00823F" stroke-linecap="round" d="M65 160L76 167L87 174L98 181L110 188L121 194L132 200L143 206L154 211L165 216L176 219L187 223L198 228L209 232L220 235L231 239L242 242L253 245L264 249L275 252L286 257L297 261L308 265L319 270L330 274L341 279L352 285L363 290L374 296L385 301L396 306L407 310L418 314L429 318L440 322L451 324L462 327L473 330L485 333L496 337L507 341L518 343L529 344L540 346L551 346L562 347L573 348L584 349L595 351L606 351L617 353L628 354L639 354L650 357L661 358L672 360L683 360L694 361" fill="none" stroke-width="1.5"></path><g fill="#00823F"><circle cx="65" cy="160" r="2"></circle><circle cx="76" cy="167" r="2"></circle><circle cx="87" cy="174" r="2"></circle><circle cx="98" cy="181" r="2"></circle><circle cx="110" cy="188" r="2"></circle><circle cx="121" cy="194" r="2"></circle><circle cx="132" cy="200" r="2"></circle><circle cx="143" cy="206" r="2"></circle><circle cx="154" cy="211" r="2"></circle><circle cx="165" cy="216" r="2"></circle><circle cx="176" cy="219" r="2"></circle><circle cx="187" cy="223" r="2"></circle><circle cx="198" cy="228" r="2"></circle><circle cx="209" cy="232" r="2"></circle><circle cx="220" cy="235" r="2"></circle><circle cx="231" cy="239" r="2"></circle><circle cx="242" cy="242" r="2"></circle><circle cx="253" cy="245" r="2"></circle><circle cx="264" cy="249" r="2"></circle><circle cx="275" cy="252" r="2"></circle><circle cx="286" cy="257" r="2"></circle><circle cx="297" cy="261" r="2"></circle><circle cx="308" cy="265" r="2"></circle><circle cx="319" cy="270" r="2"></circle><circle cx="330" cy="274" r="2"></circle><circle cx="341" cy="279" r="2"></circle><circle cx="352" cy="285" r="2"></circle><circle cx="363" cy="290" r="2"></circle><circle cx="374" cy="296" r="2"></circle><circle cx="385" cy="301" r="2"></circle><circle cx="396" cy="306" r="2"></circle><circle cx="407" cy="310" r="2"></circle><circle cx="418" cy="314" r="2"></circle><circle cx="429" cy="318" r="2"></circle><circle cx="440" cy="322" r="2"></circle><circle cx="451" cy="324" r="2"></circle><circle cx="462" cy="327" r="2"></circle><circle cx="473" cy="330" r="2"></circle><circle cx="485" cy="333" r="2"></circle><circle cx="496" cy="337" r="2"></circle><circle cx="507" cy="341" r="2"></circle><circle cx="518" cy="343" r="2"></circle><circle cx="529" cy="344" r="2"></circle><circle cx="540" cy="346" r="2"></circle><circle cx="551" cy="346" r="2"></circle><circle cx="562" cy="347" r="2"></circle><circle cx="573" cy="348" r="2"></circle><circle cx="584" cy="349" r="2"></circle><circle cx="595" cy="351" r="2"></circle><circle cx="606" cy="351" r="2"></circle><circle cx="617" cy="353" r="2"></circle><circle cx="628" cy="354" r="2"></circle><circle cx="639" cy="354" r="2"></circle><circle cx="650" cy="357" r="2"></circle><circle cx="661" cy="358" r="2"></circle><circle cx="672" cy="360" r="2"></circle><circle cx="683" cy="360" r="2"></circle><circle cx="694" cy="361" r="2"></circle></g></g><g class="key-Northern-America_0"><path stroke="#883039" stroke-linecap="round" d="M65 222L76 229L87 234L98 239L110 244L121 248L132 251L143 254L154 257L165 260L176 263L187 266L198 269L209 273L220 275L231 277L242 280L253 284L264 286L275 289L286 291L297 292L308 294L319 297L330 299L341 301L352 306L363 308L374 310L385 312L396 314L407 317L418 320L429 324L440 326L451 330L462 333L473 336L485 339L496 341L507 342L518 345L529 346L540 348L551 350L562 352L573 354L584 357L595 360L606 362L617 364L628 367L639 368L650 369L661 370L672 371L683 371L694 372" fill="none" stroke-width="1.5"></path><g fill="#883039"><circle cx="65" cy="222" r="2"></circle><circle cx="76" cy="229" r="2"></circle><circle cx="87" cy="234" r="2"></circle><circle cx="98" cy="239" r="2"></circle><circle cx="110" cy="244" r="2"></circle><circle cx="121" cy="248" r="2"></circle><circle cx="132" cy="251" r="2"></circle><circle cx="143" cy="254" r="2"></circle><circle cx="154" cy="257" r="2"></circle><circle cx="165" cy="260" r="2"></circle><circle cx="176" cy="263" r="2"></circle><circle cx="187" cy="266" r="2"></circle><circle cx="198" cy="269" r="2"></circle><circle cx="209" cy="273" r="2"></circle><circle cx="220" cy="275" r="2"></circle><circle cx="231" cy="277" r="2"></circle><circle cx="242" cy="280" r="2"></circle><circle cx="253" cy="284" r="2"></circle><circle cx="264" cy="286" r="2"></circle><circle cx="275" cy="289" r="2"></circle><circle cx="286" cy="291" r="2"></circle><circle cx="297" cy="292" r="2"></circle><circle cx="308" cy="294" r="2"></circle><circle cx="319" cy="297" r="2"></circle><circle cx="330" cy="299" r="2"></circle><circle cx="341" cy="301" r="2"></circle><circle cx="352" cy="306" r="2"></circle><circle cx="363" cy="308" r="2"></circle><circle cx="374" cy="310" r="2"></circle><circle cx="385" cy="312" r="2"></circle><circle cx="396" cy="314" r="2"></circle><circle cx="407" cy="317" r="2"></circle><circle cx="418" cy="320" r="2"></circle><circle cx="429" cy="324" r="2"></circle><circle cx="440" cy="326" r="2"></circle><circle cx="451" cy="330" r="2"></circle><circle cx="462" cy="333" r="2"></circle><circle cx="473" cy="336" r="2"></circle><circle cx="485" cy="339" r="2"></circle><circle cx="496" cy="341" r="2"></circle><circle cx="507" cy="342" r="2"></circle><circle cx="518" cy="345" r="2"></circle><circle cx="529" cy="346" r="2"></circle><circle cx="540" cy="348" r="2"></circle><circle cx="551" cy="350" r="2"></circle><circle cx="562" cy="352" r="2"></circle><circle cx="573" cy="354" r="2"></circle><circle cx="584" cy="357" r="2"></circle><circle cx="595" cy="360" r="2"></circle><circle cx="606" cy="362" r="2"></circle><circle cx="617" cy="364" r="2"></circle><circle cx="628" cy="367" r="2"></circle><circle cx="639" cy="368" r="2"></circle><circle cx="650" cy="369" r="2"></circle><circle cx="661" cy="370" r="2"></circle><circle cx="672" cy="371" r="2"></circle><circle cx="683" cy="371" r="2"></circle><circle cx="694" cy="372" r="2"></circle></g></g><g class="key-Africa_0"><path stroke="#CF0A66" stroke-linecap="round" d="M65 77L76 87L87 97L98 107L110 117L121 127L132 137L143 146L154 153L165 164L176 172L187 183L198 191L209 201L220 210L231 218L242 228L253 236L264 244L275 251L286 261L297 268L308 275L319 281L330 287L341 292L352 298L363 303L374 309L385 317L396 325L407 329L418 336L429 340L440 344L451 348L462 352L473 356L485 360L496 363L507 367L518 370L529 373L540 376L551 379L562 383L573 386L584 389L595 392L606 395L617 403L628 406L639 408L650 412L661 415L672 417L683 420L694 423" fill="none" stroke-width="1.5"></path><g fill="#CF0A66"><circle cx="65" cy="77" r="2"></circle><circle cx="76" cy="87" r="2"></circle><circle cx="87" cy="97" r="2"></circle><circle cx="98" cy="107" r="2"></circle><circle cx="110" cy="117" r="2"></circle><circle cx="121" cy="127" r="2"></circle><circle cx="132" cy="137" r="2"></circle><circle cx="143" cy="146" r="2"></circle><circle cx="154" cy="153" r="2"></circle><circle cx="165" cy="164" r="2"></circle><circle cx="176" cy="172" r="2"></circle><circle cx="187" cy="183" r="2"></circle><circle cx="198" cy="191" r="2"></circle><circle cx="209" cy="201" r="2"></circle><circle cx="220" cy="210" r="2"></circle><circle cx="231" cy="218" r="2"></circle><circle cx="242" cy="228" r="2"></circle><circle cx="253" cy="236" r="2"></circle><circle cx="264" cy="244" r="2"></circle><circle cx="275" cy="251" r="2"></circle><circle cx="286" cy="261" r="2"></circle><circle cx="297" cy="268" r="2"></circle><circle cx="308" cy="275" r="2"></circle><circle cx="319" cy="281" r="2"></circle><circle cx="330" cy="287" r="2"></circle><circle cx="341" cy="292" r="2"></circle><circle cx="352" cy="298" r="2"></circle><circle cx="363" cy="303" r="2"></circle><circle cx="374" cy="309" r="2"></circle><circle cx="385" cy="317" r="2"></circle><circle cx="396" cy="325" r="2"></circle><circle cx="407" cy="329" r="2"></circle><circle cx="418" cy="336" r="2"></circle><circle cx="429" cy="340" r="2"></circle><circle cx="440" cy="344" r="2"></circle><circle cx="451" cy="348" r="2"></circle><circle cx="462" cy="352" r="2"></circle><circle cx="473" cy="356" r="2"></circle><circle cx="485" cy="360" r="2"></circle><circle cx="496" cy="363" r="2"></circle><circle cx="507" cy="367" r="2"></circle><circle cx="518" cy="370" r="2"></circle><circle cx="529" cy="373" r="2"></circle><circle cx="540" cy="376" r="2"></circle><circle cx="551" cy="379" r="2"></circle><circle cx="562" cy="383" r="2"></circle><circle cx="573" cy="386" r="2"></circle><circle cx="584" cy="389" r="2"></circle><circle cx="595" cy="392" r="2"></circle><circle cx="606" cy="395" r="2"></circle><circle cx="617" cy="403" r="2"></circle><circle cx="628" cy="406" r="2"></circle><circle cx="639" cy="408" r="2"></circle><circle cx="650" cy="412" r="2"></circle><circle cx="661" cy="415" r="2"></circle><circle cx="672" cy="417" r="2"></circle><circle cx="683" cy="420" r="2"></circle><circle cx="694" cy="423" r="2"></circle></g></g><g class="key-Western-Europe_0"><path stroke="#B13507" stroke-linecap="round" d="M65 483L76 483L87 484L98 485L110 485L121 486L132 487L143 487L154 488L165 489L176 489L187 489L198 490L209 490L220 490L231 491L242 491L253 491L264 491L275 491L286 492L297 492L308 492L319 492L330 492L341 493L352 493L363 493L374 494L385 494L396 495L407 495L418 496L429 496L440 496L451 496L462 496L473 496L485 497L496 497L507 497L518 497L529 498L540 498L551 498L562 498L573 498L584 499L595 499L606 499L617 499L628 500L639 500L650 500L661 500L672 500L683 501L694 501" fill="none" stroke-width="1.5"></path><g fill="#B13507"><circle cx="65" cy="483" r="2"></circle><circle cx="76" cy="483" r="2"></circle><circle cx="87" cy="484" r="2"></circle><circle cx="98" cy="485" r="2"></circle><circle cx="110" cy="485" r="2"></circle><circle cx="121" cy="486" r="2"></circle><circle cx="132" cy="487" r="2"></circle><circle cx="143" cy="487" r="2"></circle><circle cx="154" cy="488" r="2"></circle><circle cx="165" cy="489" r="2"></circle><circle cx="176" cy="489" r="2"></circle><circle cx="187" cy="489" r="2"></circle><circle cx="198" cy="490" r="2"></circle><circle cx="209" cy="490" r="2"></circle><circle cx="220" cy="490" r="2"></circle><circle cx="231" cy="491" r="2"></circle><circle cx="242" cy="491" r="2"></circle><circle cx="253" cy="491" r="2"></circle><circle cx="264" cy="491" r="2"></circle><circle cx="275" cy="491" r="2"></circle><circle cx="286" cy="492" r="2"></circle><circle cx="297" cy="492" r="2"></circle><circle cx="308" cy="492" r="2"></circle><circle cx="319" cy="492" r="2"></circle><circle cx="330" cy="492" r="2"></circle><circle cx="341" cy="493" r="2"></circle><circle cx="352" cy="493" r="2"></circle><circle cx="363" cy="493" r="2"></circle><circle cx="374" cy="494" r="2"></circle><circle cx="385" cy="494" r="2"></circle><circle cx="396" cy="495" r="2"></circle><circle cx="407" cy="495" r="2"></circle><circle cx="418" cy="496" r="2"></circle><circle cx="429" cy="496" r="2"></circle><circle cx="440" cy="496" r="2"></circle><circle cx="451" cy="496" r="2"></circle><circle cx="462" cy="496" r="2"></circle><circle cx="473" cy="496" r="2"></circle><circle cx="485" cy="497" r="2"></circle><circle cx="496" cy="497" r="2"></circle><circle cx="507" cy="497" r="2"></circle><circle cx="518" cy="497" r="2"></circle><circle cx="529" cy="498" r="2"></circle><circle cx="540" cy="498" r="2"></circle><circle cx="551" cy="498" r="2"></circle><circle cx="562" cy="498" r="2"></circle><circle cx="573" cy="498" r="2"></circle><circle cx="584" cy="499" r="2"></circle><circle cx="595" cy="499" r="2"></circle><circle cx="606" cy="499" r="2"></circle><circle cx="617" cy="499" r="2"></circle><circle cx="628" cy="500" r="2"></circle><circle cx="639" cy="500" r="2"></circle><circle cx="650" cy="500" r="2"></circle><circle cx="661" cy="500" r="2"></circle><circle cx="672" cy="500" r="2"></circle><circle cx="683" cy="501" r="2"></circle><circle cx="694" cy="501" r="2"></circle></g></g><g class="key-Southeast-Asia_0"><path stroke="#3C4E66" stroke-linecap="round" d="M65 487L76 488L87 489L98 490L110 491L121 492L132 493L143 494L154 495L165 496L176 497L187 498L198 498L209 499L220 499L231 500L242 500L253 501L264 501L275 502L286 502L297 503L308 503L319 504L330 504L341 504L352 503L363 504L374 504L385 504L396 506L407 506L418 507L429 507L440 507L451 508L462 508L473 508L485 508L496 508L507 508L518 508L529 508L540 508L551 508L562 509L573 508L584 508L595 508L606 508L617 508L628 508L639 508L650 509L661 508L672 508L683 508L694 508" fill="none" stroke-width="1.5"></path><g fill="#3C4E66"><circle cx="65" cy="487" r="2"></circle><circle cx="76" cy="488" r="2"></circle><circle cx="87" cy="489" r="2"></circle><circle cx="98" cy="490" r="2"></circle><circle cx="110" cy="491" r="2"></circle><circle cx="121" cy="492" r="2"></circle><circle cx="132" cy="493" r="2"></circle><circle cx="143" cy="494" r="2"></circle><circle cx="154" cy="495" r="2"></circle><circle cx="165" cy="496" r="2"></circle><circle cx="176" cy="497" r="2"></circle><circle cx="187" cy="498" r="2"></circle><circle cx="198" cy="498" r="2"></circle><circle cx="209" cy="499" r="2"></circle><circle cx="220" cy="499" r="2"></circle><circle cx="231" cy="500" r="2"></circle><circle cx="242" cy="500" r="2"></circle><circle cx="253" cy="501" r="2"></circle><circle cx="264" cy="501" r="2"></circle><circle cx="275" cy="502" r="2"></circle><circle cx="286" cy="502" r="2"></circle><circle cx="297" cy="503" r="2"></circle><circle cx="308" cy="503" r="2"></circle><circle cx="319" cy="504" r="2"></circle><circle cx="330" cy="504" r="2"></circle><circle cx="341" cy="504" r="2"></circle><circle cx="352" cy="503" r="2"></circle><circle cx="363" cy="504" r="2"></circle><circle cx="374" cy="504" r="2"></circle><circle cx="385" cy="504" r="2"></circle><circle cx="396" cy="506" r="2"></circle><circle cx="407" cy="506" r="2"></circle><circle cx="418" cy="507" r="2"></circle><circle cx="429" cy="507" r="2"></circle><circle cx="440" cy="507" r="2"></circle><circle cx="451" cy="508" r="2"></circle><circle cx="462" cy="508" r="2"></circle><circle cx="473" cy="508" r="2"></circle><circle cx="485" cy="508" r="2"></circle><circle cx="496" cy="508" r="2"></circle><circle cx="507" cy="508" r="2"></circle><circle cx="518" cy="508" r="2"></circle><circle cx="529" cy="508" r="2"></circle><circle cx="540" cy="508" r="2"></circle><circle cx="551" cy="508" r="2"></circle><circle cx="562" cy="509" r="2"></circle><circle cx="573" cy="508" r="2"></circle><circle cx="584" cy="508" r="2"></circle><circle cx="595" cy="508" r="2"></circle><circle cx="606" cy="508" r="2"></circle><circle cx="617" cy="508" r="2"></circle><circle cx="628" cy="508" r="2"></circle><circle cx="639" cy="508" r="2"></circle><circle cx="650" cy="509" r="2"></circle><circle cx="661" cy="508" r="2"></circle><circle cx="672" cy="508" r="2"></circle><circle cx="683" cy="508" r="2"></circle><circle cx="694" cy="508" r="2"></circle></g></g><g class="key-Eastern-Asia_0"><path stroke="#00847E" stroke-linecap="round" d="M65 458L76 459L87 460L98 461L110 462L121 463L132 464L143 466L154 467L165 468L176 469L187 470L198 471L209 471L220 472L231 474L242 474L253 474L264 475L275 475L286 475L297 475L308 475L319 475L330 474L341 475L352 475L363 476L374 476L385 476L396 477L407 477L418 478L429 478L440 478L451 479L462 478L473 479L485 479L496 480L507 480L518 480L529 482L540 482L551 482L562 482L573 483L584 483L595 483L606 483L617 484L628 484L639 484L650 485L661 485L672 485L683 485L694 485" fill="none" stroke-width="1.5"></path><g fill="#00847E"><circle cx="65" cy="458" r="2"></circle><circle cx="76" cy="459" r="2"></circle><circle cx="87" cy="460" r="2"></circle><circle cx="98" cy="461" r="2"></circle><circle cx="110" cy="462" r="2"></circle><circle cx="121" cy="463" r="2"></circle><circle cx="132" cy="464" r="2"></circle><circle cx="143" cy="466" r="2"></circle><circle cx="154" cy="467" r="2"></circle><circle cx="165" cy="468" r="2"></circle><circle cx="176" cy="469" r="2"></circle><circle cx="187" cy="470" r="2"></circle><circle cx="198" cy="471" r="2"></circle><circle cx="209" cy="471" r="2"></circle><circle cx="220" cy="472" r="2"></circle><circle cx="231" cy="474" r="2"></circle><circle cx="242" cy="474" r="2"></circle><circle cx="253" cy="474" r="2"></circle><circle cx="264" cy="475" r="2"></circle><circle cx="275" cy="475" r="2"></circle><circle cx="286" cy="475" r="2"></circle><circle cx="297" cy="475" r="2"></circle><circle cx="308" cy="475" r="2"></circle><circle cx="319" cy="475" r="2"></circle><circle cx="330" cy="474" r="2"></circle><circle cx="341" cy="475" r="2"></circle><circle cx="352" cy="475" r="2"></circle><circle cx="363" cy="476" r="2"></circle><circle cx="374" cy="476" r="2"></circle><circle cx="385" cy="476" r="2"></circle><circle cx="396" cy="477" r="2"></circle><circle cx="407" cy="477" r="2"></circle><circle cx="418" cy="478" r="2"></circle><circle cx="429" cy="478" r="2"></circle><circle cx="440" cy="478" r="2"></circle><circle cx="451" cy="479" r="2"></circle><circle cx="462" cy="478" r="2"></circle><circle cx="473" cy="479" r="2"></circle><circle cx="485" cy="479" r="2"></circle><circle cx="496" cy="480" r="2"></circle><circle cx="507" cy="480" r="2"></circle><circle cx="518" cy="480" r="2"></circle><circle cx="529" cy="482" r="2"></circle><circle cx="540" cy="482" r="2"></circle><circle cx="551" cy="482" r="2"></circle><circle cx="562" cy="482" r="2"></circle><circle cx="573" cy="483" r="2"></circle><circle cx="584" cy="483" r="2"></circle><circle cx="595" cy="483" r="2"></circle><circle cx="606" cy="483" r="2"></circle><circle cx="617" cy="484" r="2"></circle><circle cx="628" cy="484" r="2"></circle><circle cx="639" cy="484" r="2"></circle><circle cx="650" cy="485" r="2"></circle><circle cx="661" cy="485" r="2"></circle><circle cx="672" cy="485" r="2"></circle><circle cx="683" cy="485" r="2"></circle><circle cx="694" cy="485" r="2"></circle></g></g></g></g></g><g class="SourcesFooter" style="fill:#777"><g class="clickable" style="fill:#777"><text font-size="12.60" x="15.0" y="581.6"><tspan x="15" y="581.58">Source: Food and Agriculture Organization of the United Nations</tspan></text></g><text font-size="12.60" x="618.0" y="581.6"><tspan x="618.028" y="581.58"><a style="fill: #777;" href="https://ourworldindata.org/land-use">OurWorldInData.org/land-use</a> • <a style="fill: #777;" class="cclogo" href="http://creativecommons.org/licenses/by/4.0/deed.en_US">CC BY</a></tspan></text></g></svg> 