<svg xmlns="http://www.w3.org/2000/svg" version="1.1" style="background-color:#fff;-webkit-font-smoothing:antialiased" width="850" height="600" viewBox="0 0 850 600" font-family="Lato,'Helvetica Neue',Helvetica,Arial,sans-serif" font-size="18" text-rendering="optimizeLegibility"><g class="HeaderView"><g transform="matrix(.29 0 0 .29 774 15)"><svg className="owidLog" width="210" height="120" viewBox="0 0 210 120" fill="none" xmlns="http://www.w3.org/2000/svg"><g clip-path="url(#clip0)"><path d="M0 0h210v107.89H0V0z" fill="#002147"/><path d="M40.98 32.25c0 2.36-.38 4.53-1.12 6.51a14.26 14.26 0 01-8.1 8.4c-1.9.78-4.02 1.17-6.34 1.17a16.6 16.6 0 01-6.33-1.17 14.31 14.31 0 01-8.08-8.4 18.29 18.29 0 01-1.12-6.51c0-2.36.38-4.53 1.12-6.5.75-1.97 1.8-3.67 3.17-5.1a14.32 14.32 0 014.9-3.34c1.92-.8 4.03-1.19 6.34-1.19 2.32 0 4.43.4 6.34 1.19 1.92.8 3.56 1.9 4.93 3.34a14.87 14.87 0 013.17 5.1 18.1 18.1 0 011.12 6.5zm-4.38 0c0-1.94-.26-3.68-.8-5.22a10.91 10.91 0 00-2.24-3.89 9.68 9.68 0 00-3.52-2.46 11.95 11.95 0 00-4.62-.86c-1.68 0-3.21.28-4.6.86a9.88 9.88 0 00-3.54 2.46 10.91 10.91 0 00-2.24 3.9c-.53 1.53-.8 3.27-.8 5.2 0 1.94.27 3.68.8 5.22a11.17 11.17 0 002.24 3.9 10.01 10.01 0 003.55 2.44c1.38.56 2.9.83 4.6.83s3.24-.27 4.61-.83a9.8 9.8 0 003.52-2.44 11.17 11.17 0 002.25-3.9c.53-1.54.8-3.28.8-5.21zm26.22-6.54V48H60.5c-.56 0-.9-.27-1.05-.81l-.31-2.4a12.45 12.45 0 01-3.26 2.6c-1.2.64-2.58.96-4.13.96-1.22 0-2.3-.2-3.24-.6a6.52 6.52 0 01-2.33-1.7 7.37 7.37 0 01-1.43-2.67c-.3-1.04-.46-2.2-.46-3.45V25.7h3.91v14.22c0 1.68.38 2.99 1.15 3.91.77.93 1.96 1.39 3.54 1.39 1.16 0 2.24-.27 3.23-.82a10.42 10.42 0 002.8-2.28V25.7h3.91zm8.61 4.47a9.94 9.94 0 012.6-3.56 5.64 5.64 0 013.76-1.3c.47 0 .92.05 1.34.15.44.1.83.27 1.17.49l-.3 2.92c-.09.37-.3.55-.66.55-.2 0-.5-.04-.9-.13a6.21 6.21 0 00-3.24.18 4.23 4.23 0 00-1.47.92c-.42.4-.81.9-1.17 1.5-.33.58-.64 1.26-.92 2.02V48H67.7V25.71h2.25c.42 0 .72.08.88.25.16.16.27.44.33.83l.26 3.39zm61.16-13.7L122.75 48h-3.82l-7.99-24.05a21.95 21.95 0 01-.42-1.58 38.36 38.36 0 01-.44 1.58L102.05 48h-3.83L88.4 16.47h3.54c.38 0 .7.1.95.29.26.2.43.43.5.73l6.52 21.9.28 1.28.29 1.46.3-1.46.38-1.27 7.41-21.91c.1-.25.26-.48.51-.69.27-.22.58-.33.95-.33h1.23c.38 0 .69.1.92.29a1.77 1.77 0 01.53.73l7.4 21.9a28.4 28.4 0 01.68 2.62 29.52 29.52 0 01.52-2.61l6.54-21.91a1.31 1.31 0 01.48-.7c.27-.21.58-.32.95-.32h3.32zm9.35 8.88c1.63 0 3.1.27 4.4.82a9.43 9.43 0 015.46 5.94c.5 1.4.74 2.98.74 4.73 0 1.76-.25 3.34-.74 4.75a9.43 9.43 0 01-5.46 5.92c-1.3.52-2.77.79-4.4.79-1.64 0-3.12-.27-4.44-.8a9.42 9.42 0 01-3.35-2.3c-.92-1-1.63-2.2-2.13-3.61-.49-1.41-.73-3-.73-4.75s.24-3.33.73-4.73c.5-1.43 1.2-2.64 2.13-3.63a9.4 9.4 0 013.35-2.31c1.32-.55 2.8-.82 4.44-.82zm0 19.89c2.2 0 3.84-.73 4.93-2.2 1.08-1.48 1.63-3.54 1.63-6.18 0-2.66-.55-4.72-1.63-6.2-1.09-1.49-2.73-2.23-4.93-2.23-1.12 0-2.09.2-2.93.57a5.71 5.71 0 00-2.06 1.65 7.5 7.5 0 00-1.24 2.67c-.26 1.04-.4 2.22-.4 3.54 0 2.64.55 4.7 1.64 6.18 1.1 1.47 2.76 2.2 4.99 2.2zm17.97-15.07a9.94 9.94 0 012.6-3.56 5.64 5.64 0 013.76-1.3c.47 0 .91.05 1.34.15.44.1.83.27 1.16.49l-.28 2.92c-.09.37-.31.55-.66.55-.2 0-.5-.04-.9-.13a6.2 6.2 0 00-3.24.18 4.23 4.23 0 00-1.47.92c-.43.4-.82.9-1.17 1.5a13.1 13.1 0 00-.92 2.02V48h-3.94V25.71h2.24c.43 0 .72.08.88.25.17.16.28.44.33.83l.27 3.39zm15.04-14.59V48h-3.92V15.6h3.92zm19.55 15.43a6.22 6.22 0 00-2.38-2.05 6.7 6.7 0 00-2.86-.6c-2.07 0-3.66.75-4.77 2.23-1.12 1.48-1.68 3.6-1.68 6.33 0 1.46.13 2.7.38 3.74a7.29 7.29 0 001.1 2.56 4.35 4.35 0 001.78 1.45c.7.3 1.5.46 2.4.46 1.29 0 2.41-.3 3.36-.88a9.6 9.6 0 002.67-2.49V31.02zm3.91-15.43V48h-2.33c-.56 0-.9-.27-1.06-.81l-.35-2.71a12.13 12.13 0 01-3.25 2.77 8.28 8.28 0 01-4.23 1.06 7.31 7.31 0 01-6.14-2.9c-.73-.96-1.3-2.15-1.69-3.57a18.35 18.35 0 01.07-9.48 11.29 11.29 0 011.89-3.7 8.7 8.7 0 017.06-3.34 7.96 7.96 0 016.12 2.62V15.59h3.91zM46.61 70.71V93H42.7V70.71h3.91zm.84-7c0 .39-.08.75-.24 1.09a2.81 2.81 0 01-1.52 1.47 2.67 2.67 0 01-2.16 0 2.9 2.9 0 01-1.45-1.47 2.67 2.67 0 010-2.16c.15-.35.35-.65.6-.9.25-.27.53-.47.85-.62a2.67 2.67 0 012.16 0c.35.15.65.35.9.62.27.25.47.55.62.9.16.34.24.7.24 1.08zm7.97 10.24c.49-.54 1-1.04 1.54-1.48a9.85 9.85 0 013.66-1.84 8.96 8.96 0 015.43.35c.94.4 1.72.97 2.33 1.71a7.36 7.36 0 011.43 2.67c.32 1.04.49 2.19.49 3.45V93h-3.94V78.81c0-1.69-.4-3-1.17-3.92-.76-.93-1.93-1.4-3.5-1.4a6.6 6.6 0 00-3.25.83c-1 .56-1.92 1.31-2.77 2.27V93h-3.94V70.71h2.35c.56 0 .9.28 1.04.82l.3 2.42zm57.7 3.3c0 2.36-.37 4.5-1.11 6.44a14.3 14.3 0 01-3.17 4.98 14.1 14.1 0 01-4.93 3.2c-1.9.76-4.02 1.13-6.33 1.13H85.8V61.47h11.77c2.31 0 4.42.39 6.33 1.15a13.8 13.8 0 018.1 8.18 17.75 17.75 0 011.12 6.45zm-4.37 0c0-1.94-.26-3.67-.8-5.2a10.94 10.94 0 00-2.23-3.87 9.57 9.57 0 00-3.53-2.42 12.23 12.23 0 00-4.61-.83h-7.5v24.62h7.5c1.7 0 3.24-.28 4.61-.84a9.7 9.7 0 003.53-2.4 10.94 10.94 0 002.24-3.87c.53-1.53.8-3.26.8-5.2zm19.8 5.72c-1.8.06-3.34.2-4.62.44-1.26.22-2.3.51-3.1.88-.8.36-1.37.8-1.74 1.3-.35.5-.53 1.05-.53 1.67 0 .58.1 1.1.3 1.52a3 3 0 00.76 1.05c.34.27.73.46 1.17.6a6.13 6.13 0 001.45.17 7.28 7.28 0 003.5-.81 11.95 11.95 0 002.82-2.2v-4.62zm-12.65-9.11a12.73 12.73 0 013.98-2.66c1.43-.59 3-.88 4.73-.88 1.25 0 2.36.2 3.33.61a6.81 6.81 0 013.94 4.38c.33 1.04.5 2.19.5 3.43V93h-1.74a1.8 1.8 0 01-.88-.18c-.2-.13-.36-.38-.48-.74l-.44-2.12-1.72 1.46a9.48 9.48 0 01-3.74 1.7c-.69.15-1.46.23-2.3.23-.87 0-1.69-.12-2.45-.35a5.34 5.34 0 01-3.34-2.93 6.64 6.64 0 01-.49-2.64c0-.88.25-1.72.73-2.53a6.33 6.33 0 012.35-2.17c1.09-.63 2.5-1.15 4.25-1.54 1.75-.41 3.89-.65 6.42-.7v-1.75c0-1.73-.37-3.03-1.12-3.91-.75-.9-1.84-1.34-3.28-1.34-.97 0-1.78.12-2.44.37-.64.23-1.2.5-1.7.81l-1.23.82c-.33.23-.67.35-1 .35-.27 0-.5-.07-.69-.2a2.1 2.1 0 01-.48-.53l-.7-1.25zm27.67 19.5c-1.76 0-3.12-.5-4.07-1.48-.94-.98-1.41-2.4-1.41-4.25V74h-2.68a.9.9 0 01-.6-.2c-.16-.14-.24-.36-.24-.66v-1.56l3.65-.46.9-6.89a.9.9 0 01.29-.52.88.88 0 01.62-.22H142v7.67h6.44V74H142v13.38c0 .94.22 1.63.68 2.09.45.45 1.04.68 1.76.68a3.21 3.21 0 001.85-.53l.55-.35c.16-.12.3-.18.41-.18.2 0 .4.13.55.38l1.15 1.87a7.45 7.45 0 01-2.44 1.5 8.53 8.53 0 01-2.95.52zm19.68-10.4c-1.8.07-3.34.21-4.62.45-1.26.22-2.3.51-3.1.88-.8.36-1.37.8-1.74 1.3-.35.5-.53 1.05-.53 1.67 0 .58.1 1.1.3 1.52a2.9 2.9 0 00.76 1.05c.34.27.73.46 1.17.6a6.13 6.13 0 001.45.17 7.3 7.3 0 003.5-.81 12.04 12.04 0 002.82-2.2v-4.62zm-12.65-9.1a12.72 12.72 0 013.99-2.66c1.42-.59 3-.88 4.72-.88 1.25 0 2.36.2 3.33.61a6.81 6.81 0 013.94 4.38c.33 1.04.5 2.19.5 3.43V93h-1.74a1.8 1.8 0 01-.88-.18c-.2-.13-.36-.38-.48-.74l-.44-2.12-1.72 1.46a9.48 9.48 0 01-3.74 1.7c-.69.15-1.46.23-2.3.23-.87 0-1.69-.12-2.45-.35a5.33 5.33 0 01-3.34-2.93 6.62 6.62 0 01-.49-2.64c0-.88.25-1.72.73-2.53a6.33 6.33 0 012.35-2.17c1.09-.63 2.5-1.15 4.25-1.54a31.2 31.2 0 016.42-.7v-1.75c0-1.73-.37-3.03-1.12-3.91-.75-.9-1.84-1.34-3.28-1.34-.97 0-1.78.12-2.44.37-.64.23-1.2.5-1.7.81l-1.22.82c-.34.23-.68.35-1.02.35-.26 0-.49-.07-.68-.2a1.88 1.88 0 01-.48-.53l-.7-1.25zM40.98 32.25c0 2.36-.38 4.53-1.12 6.51a14.26 14.26 0 01-8.1 8.4c-1.9.78-4.02 1.17-6.34 1.17a16.6 16.6 0 01-6.33-1.17 14.31 14.31 0 01-8.08-8.4 18.29 18.29 0 01-1.12-6.51c0-2.36.38-4.53 1.12-6.5.75-1.97 1.8-3.67 3.17-5.1a14.32 14.32 0 014.9-3.34c1.92-.8 4.03-1.19 6.34-1.19 2.32 0 4.43.4 6.34 1.19 1.92.8 3.56 1.9 4.93 3.34a14.87 14.87 0 013.17 5.1 18.1 18.1 0 011.12 6.5zm-4.38 0c0-1.94-.26-3.68-.8-5.22a10.91 10.91 0 00-2.24-3.89 9.68 9.68 0 00-3.52-2.46 11.95 11.95 0 00-4.62-.86c-1.68 0-3.21.28-4.6.86a9.88 9.88 0 00-3.54 2.46 10.91 10.91 0 00-2.24 3.9c-.53 1.53-.8 3.27-.8 5.2 0 1.94.27 3.68.8 5.22a11.17 11.17 0 002.24 3.9 10.01 10.01 0 003.55 2.44c1.38.56 2.9.83 4.6.83s3.24-.27 4.61-.83a9.8 9.8 0 003.52-2.44 11.17 11.17 0 002.25-3.9c.53-1.54.8-3.28.8-5.21zm26.22-6.54V48H60.5c-.56 0-.9-.27-1.05-.81l-.31-2.4a12.45 12.45 0 01-3.26 2.6c-1.2.64-2.58.96-4.13.96-1.22 0-2.3-.2-3.24-.6a6.52 6.52 0 01-2.33-1.7 7.37 7.37 0 01-1.43-2.67c-.3-1.04-.46-2.2-.46-3.45V25.7h3.91v14.22c0 1.68.38 2.99 1.15 3.91.77.93 1.96 1.39 3.54 1.39 1.16 0 2.24-.27 3.23-.82a10.42 10.42 0 002.8-2.28V25.7h3.91zm8.61 4.47a9.94 9.94 0 012.6-3.56 5.64 5.64 0 013.76-1.3c.47 0 .92.05 1.34.15.44.1.83.27 1.17.49l-.3 2.92c-.09.37-.3.55-.66.55-.2 0-.5-.04-.9-.13a6.21 6.21 0 00-3.24.18 4.23 4.23 0 00-1.47.92c-.42.4-.81.9-1.17 1.5-.33.58-.64 1.26-.92 2.02V48H67.7V25.71h2.25c.42 0 .72.08.88.25.16.16.27.44.33.83l.26 3.39zm61.16-13.7L122.75 48h-3.82l-7.99-24.05a21.95 21.95 0 01-.42-1.58 38.36 38.36 0 01-.44 1.58L102.05 48h-3.83L88.4 16.47h3.54c.38 0 .7.1.95.29.26.2.43.43.5.73l6.52 21.9.28 1.28.29 1.46.3-1.46.38-1.27 7.41-21.91c.1-.25.26-.48.51-.69.27-.22.58-.33.95-.33h1.23c.38 0 .69.1.92.29a1.77 1.77 0 01.53.73l7.4 21.9a28.4 28.4 0 01.68 2.62 29.52 29.52 0 01.52-2.61l6.54-21.91a1.31 1.31 0 01.48-.7c.27-.21.58-.32.95-.32h3.32zm9.35 8.88c1.63 0 3.1.27 4.4.82a9.43 9.43 0 015.46 5.94c.5 1.4.74 2.98.74 4.73 0 1.76-.25 3.34-.74 4.75a9.43 9.43 0 01-5.46 5.92c-1.3.52-2.77.79-4.4.79-1.64 0-3.12-.27-4.44-.8a9.42 9.42 0 01-3.35-2.3c-.92-1-1.63-2.2-2.13-3.61-.49-1.41-.73-3-.73-4.75s.24-3.33.73-4.73c.5-1.43 1.2-2.64 2.13-3.63a9.4 9.4 0 013.35-2.31c1.32-.55 2.8-.82 4.44-.82zm0 19.89c2.2 0 3.84-.73 4.93-2.2 1.08-1.48 1.63-3.54 1.63-6.18 0-2.66-.55-4.72-1.63-6.2-1.09-1.49-2.73-2.23-4.93-2.23-1.12 0-2.09.2-2.93.57a5.71 5.71 0 00-2.06 1.65 7.5 7.5 0 00-1.24 2.67c-.26 1.04-.4 2.22-.4 3.54 0 2.64.55 4.7 1.64 6.18 1.1 1.47 2.76 2.2 4.99 2.2zm17.97-15.07a9.94 9.94 0 012.6-3.56 5.64 5.64 0 013.76-1.3c.47 0 .91.05 1.34.15.44.1.83.27 1.16.49l-.28 2.92c-.09.37-.31.55-.66.55-.2 0-.5-.04-.9-.13a6.2 6.2 0 00-3.24.18 4.23 4.23 0 00-1.47.92c-.43.4-.82.9-1.17 1.5a13.1 13.1 0 00-.92 2.02V48h-3.94V25.71h2.24c.43 0 .72.08.88.25.17.16.28.44.33.83l.27 3.39zm15.04-14.59V48h-3.92V15.6h3.92zm19.55 15.43a6.22 6.22 0 00-2.38-2.05 6.7 6.7 0 00-2.86-.6c-2.07 0-3.66.75-4.77 2.23-1.12 1.48-1.68 3.6-1.68 6.33 0 1.46.13 2.7.38 3.74a7.29 7.29 0 001.1 2.56 4.35 4.35 0 001.78 1.45c.7.3 1.5.46 2.4.46 1.29 0 2.41-.3 3.36-.88a9.6 9.6 0 002.67-2.49V31.02zm3.91-15.43V48h-2.33c-.56 0-.9-.27-1.06-.81l-.35-2.71a12.13 12.13 0 01-3.25 2.77 8.28 8.28 0 01-4.23 1.06 7.31 7.31 0 01-6.14-2.9c-.73-.96-1.3-2.15-1.69-3.57a18.35 18.35 0 01.07-9.48 11.29 11.29 0 011.89-3.7 8.7 8.7 0 017.06-3.34 7.96 7.96 0 016.12 2.62V15.59h3.91zM46.61 70.71V93H42.7V70.71h3.91zm.84-7c0 .39-.08.75-.24 1.09a2.81 2.81 0 01-1.52 1.47 2.67 2.67 0 01-2.16 0 2.9 2.9 0 01-1.45-1.47 2.67 2.67 0 010-2.16c.15-.35.35-.65.6-.9.25-.27.53-.47.85-.62a2.67 2.67 0 012.16 0c.35.15.65.35.9.62.27.25.47.55.62.9.16.34.24.7.24 1.08zm7.97 10.24c.49-.54 1-1.04 1.54-1.48a9.85 9.85 0 013.66-1.84 8.96 8.96 0 015.43.35c.94.4 1.72.97 2.33 1.71a7.36 7.36 0 011.43 2.67c.32 1.04.49 2.19.49 3.45V93h-3.94V78.81c0-1.69-.4-3-1.17-3.92-.76-.93-1.93-1.4-3.5-1.4a6.6 6.6 0 00-3.25.83c-1 .56-1.92 1.31-2.77 2.27V93h-3.94V70.71h2.35c.56 0 .9.28 1.04.82l.3 2.42zm57.7 3.3c0 2.36-.37 4.5-1.11 6.44a14.3 14.3 0 01-3.17 4.98 14.1 14.1 0 01-4.93 3.2c-1.9.76-4.02 1.13-6.33 1.13H85.8V61.47h11.77c2.31 0 4.42.39 6.33 1.15a13.8 13.8 0 018.1 8.18 17.75 17.75 0 011.12 6.45zm-4.37 0c0-1.94-.26-3.67-.8-5.2a10.94 10.94 0 00-2.23-3.87 9.57 9.57 0 00-3.53-2.42 12.23 12.23 0 00-4.61-.83h-7.5v24.62h7.5c1.7 0 3.24-.28 4.61-.84a9.7 9.7 0 003.53-2.4 10.94 10.94 0 002.24-3.87c.53-1.53.8-3.26.8-5.2zm19.8 5.72c-1.8.06-3.34.2-4.62.44-1.26.22-2.3.51-3.1.88-.8.36-1.37.8-1.74 1.3-.35.5-.53 1.05-.53 1.67 0 .58.1 1.1.3 1.52a3 3 0 00.76 1.05c.34.27.73.46 1.17.6a6.13 6.13 0 001.45.17 7.28 7.28 0 003.5-.81 11.95 11.95 0 002.82-2.2v-4.62zm-12.65-9.11a12.73 12.73 0 013.98-2.66c1.43-.59 3-.88 4.73-.88 1.25 0 2.36.2 3.33.61a6.81 6.81 0 013.94 4.38c.33 1.04.5 2.19.5 3.43V93h-1.74a1.8 1.8 0 01-.88-.18c-.2-.13-.36-.38-.48-.74l-.44-2.12-1.72 1.46a9.48 9.48 0 01-3.74 1.7c-.69.15-1.46.23-2.3.23-.87 0-1.69-.12-2.45-.35a5.34 5.34 0 01-3.34-2.93 6.64 6.64 0 01-.49-2.64c0-.88.25-1.72.73-2.53a6.33 6.33 0 012.35-2.17c1.09-.63 2.5-1.15 4.25-1.54 1.75-.41 3.89-.65 6.42-.7v-1.75c0-1.73-.37-3.03-1.12-3.91-.75-.9-1.84-1.34-3.28-1.34-.97 0-1.78.12-2.44.37-.64.23-1.2.5-1.7.81l-1.23.82c-.33.23-.67.35-1 .35-.27 0-.5-.07-.69-.2a2.1 2.1 0 01-.48-.53l-.7-1.25zm27.67 19.5c-1.76 0-3.12-.5-4.07-1.48-.94-.98-1.41-2.4-1.41-4.25V74h-2.68a.9.9 0 01-.6-.2c-.16-.14-.24-.36-.24-.66v-1.56l3.65-.46.9-6.89a.9.9 0 01.29-.52.88.88 0 01.62-.22H142v7.67h6.44V74H142v13.38c0 .94.22 1.63.68 2.09.45.45 1.04.68 1.76.68a3.21 3.21 0 001.85-.53l.55-.35c.16-.12.3-.18.41-.18.2 0 .4.13.55.38l1.15 1.87a7.45 7.45 0 01-2.44 1.5 8.53 8.53 0 01-2.95.52zm19.68-10.4c-1.8.07-3.34.21-4.62.45-1.26.22-2.3.51-3.1.88-.8.36-1.37.8-1.74 1.3-.35.5-.53 1.05-.53 1.67 0 .58.1 1.1.3 1.52a2.9 2.9 0 00.76 1.05c.34.27.73.46 1.17.6a6.13 6.13 0 001.45.17 7.3 7.3 0 003.5-.81 12.04 12.04 0 002.82-2.2v-4.62zm-12.65-9.1a12.72 12.72 0 013.99-2.66c1.42-.59 3-.88 4.72-.88 1.25 0 2.36.2 3.33.61a6.81 6.81 0 013.94 4.38c.33 1.04.5 2.19.5 3.43V93h-1.74a1.8 1.8 0 01-.88-.18c-.2-.13-.36-.38-.48-.74l-.44-2.12-1.72 1.46a9.48 9.48 0 01-3.74 1.7c-.69.15-1.46.23-2.3.23-.87 0-1.69-.12-2.45-.35a5.33 5.33 0 01-3.34-2.93 6.62 6.62 0 01-.49-2.64c0-.88.25-1.72.73-2.53a6.33 6.33 0 012.35-2.17c1.09-.63 2.5-1.15 4.25-1.54a31.2 31.2 0 016.42-.7v-1.75c0-1.73-.37-3.03-1.12-3.91-.75-.9-1.84-1.34-3.28-1.34-.97 0-1.78.12-2.44.37-.64.23-1.2.5-1.7.81l-1.22.82c-.34.23-.68.35-1.02.35-.26 0-.49-.07-.68-.2a1.88 1.88 0 01-.48-.53l-.7-1.25zM40.98 32.25c0 2.36-.38 4.53-1.12 6.51a14.26 14.26 0 01-8.1 8.4c-1.9.78-4.02 1.17-6.34 1.17a16.6 16.6 0 01-6.33-1.17 14.31 14.31 0 01-8.08-8.4 18.29 18.29 0 01-1.12-6.51c0-2.36.38-4.53 1.12-6.5.75-1.97 1.8-3.67 3.17-5.1a14.32 14.32 0 014.9-3.34c1.92-.8 4.03-1.19 6.34-1.19 2.32 0 4.43.4 6.34 1.19 1.92.8 3.56 1.9 4.93 3.34a14.87 14.87 0 013.17 5.1 18.1 18.1 0 011.12 6.5zm-4.38 0c0-1.94-.26-3.68-.8-5.22a10.91 10.91 0 00-2.24-3.89 9.68 9.68 0 00-3.52-2.46 11.95 11.95 0 00-4.62-.86c-1.68 0-3.21.28-4.6.86a9.88 9.88 0 00-3.54 2.46 10.91 10.91 0 00-2.24 3.9c-.53 1.53-.8 3.27-.8 5.2 0 1.94.27 3.68.8 5.22a11.17 11.17 0 002.24 3.9 10.01 10.01 0 003.55 2.44c1.38.56 2.9.83 4.6.83s3.24-.27 4.61-.83a9.8 9.8 0 003.52-2.44 11.17 11.17 0 002.25-3.9c.53-1.54.8-3.28.8-5.21zm26.22-6.54V48H60.5c-.56 0-.9-.27-1.05-.81l-.31-2.4a12.45 12.45 0 01-3.26 2.6c-1.2.64-2.58.96-4.13.96-1.22 0-2.3-.2-3.24-.6a6.52 6.52 0 01-2.33-1.7 7.37 7.37 0 01-1.43-2.67c-.3-1.04-.46-2.2-.46-3.45V25.7h3.91v14.22c0 1.68.38 2.99 1.15 3.91.77.93 1.96 1.39 3.54 1.39 1.16 0 2.24-.27 3.23-.82a10.42 10.42 0 002.8-2.28V25.7h3.91zm8.61 4.47a9.94 9.94 0 012.6-3.56 5.64 5.64 0 013.76-1.3c.47 0 .92.05 1.34.15.44.1.83.27 1.17.49l-.3 2.92c-.09.37-.3.55-.66.55-.2 0-.5-.04-.9-.13a6.21 6.21 0 00-3.24.18 4.23 4.23 0 00-1.47.92c-.42.4-.81.9-1.17 1.5-.33.58-.64 1.26-.92 2.02V48H67.7V25.71h2.25c.42 0 .72.08.88.25.16.16.27.44.33.83l.26 3.39zm61.16-13.7L122.75 48h-3.82l-7.99-24.05a21.95 21.95 0 01-.42-1.58 38.36 38.36 0 01-.44 1.58L102.05 48h-3.83L88.4 16.47h3.54c.38 0 .7.1.95.29.26.2.43.43.5.73l6.52 21.9.28 1.28.29 1.46.3-1.46.38-1.27 7.41-21.91c.1-.25.26-.48.51-.69.27-.22.58-.33.95-.33h1.23c.38 0 .69.1.92.29a1.77 1.77 0 01.53.73l7.4 21.9a28.4 28.4 0 01.68 2.62 29.52 29.52 0 01.52-2.61l6.54-21.91a1.31 1.31 0 01.48-.7c.27-.21.58-.32.95-.32h3.32zm9.35 8.88c1.63 0 3.1.27 4.4.82a9.43 9.43 0 015.46 5.94c.5 1.4.74 2.98.74 4.73 0 1.76-.25 3.34-.74 4.75a9.43 9.43 0 01-5.46 5.92c-1.3.52-2.77.79-4.4.79-1.64 0-3.12-.27-4.44-.8a9.42 9.42 0 01-3.35-2.3c-.92-1-1.63-2.2-2.13-3.61-.49-1.41-.73-3-.73-4.75s.24-3.33.73-4.73c.5-1.43 1.2-2.64 2.13-3.63a9.4 9.4 0 013.35-2.31c1.32-.55 2.8-.82 4.44-.82zm0 19.89c2.2 0 3.84-.73 4.93-2.2 1.08-1.48 1.63-3.54 1.63-6.18 0-2.66-.55-4.72-1.63-6.2-1.09-1.49-2.73-2.23-4.93-2.23-1.12 0-2.09.2-2.93.57a5.71 5.71 0 00-2.06 1.65 7.5 7.5 0 00-1.24 2.67c-.26 1.04-.4 2.22-.4 3.54 0 2.64.55 4.7 1.64 6.18 1.1 1.47 2.76 2.2 4.99 2.2zm17.97-15.07a9.94 9.94 0 012.6-3.56 5.64 5.64 0 013.76-1.3c.47 0 .91.05 1.34.15.44.1.83.27 1.16.49l-.28 2.92c-.09.37-.31.55-.66.55-.2 0-.5-.04-.9-.13a6.2 6.2 0 00-3.24.18 4.23 4.23 0 00-1.47.92c-.43.4-.82.9-1.17 1.5a13.1 13.1 0 00-.92 2.02V48h-3.94V25.71h2.24c.43 0 .72.08.88.25.17.16.28.44.33.83l.27 3.39zm15.04-14.59V48h-3.92V15.6h3.92zm19.55 15.43a6.22 6.22 0 00-2.38-2.05 6.7 6.7 0 00-2.86-.6c-2.07 0-3.66.75-4.77 2.23-1.12 1.48-1.68 3.6-1.68 6.33 0 1.46.13 2.7.38 3.74a7.29 7.29 0 001.1 2.56 4.35 4.35 0 001.78 1.45c.7.3 1.5.46 2.4.46 1.29 0 2.41-.3 3.36-.88a9.6 9.6 0 002.67-2.49V31.02zm3.91-15.43V48h-2.33c-.56 0-.9-.27-1.06-.81l-.35-2.71a12.13 12.13 0 01-3.25 2.77 8.28 8.28 0 01-4.23 1.06 7.31 7.31 0 01-6.14-2.9c-.73-.96-1.3-2.15-1.69-3.57a18.35 18.35 0 01.07-9.48 11.29 11.29 0 011.89-3.7 8.7 8.7 0 017.06-3.34 7.96 7.96 0 016.12 2.62V15.59h3.91zM46.61 70.71V93H42.7V70.71h3.91zm.84-7c0 .39-.08.75-.24 1.09a2.81 2.81 0 01-1.52 1.47 2.67 2.67 0 01-2.16 0 2.9 2.9 0 01-1.45-1.47 2.67 2.67 0 010-2.16c.15-.35.35-.65.6-.9.25-.27.53-.47.85-.62a2.67 2.67 0 012.16 0c.35.15.65.35.9.62.27.25.47.55.62.9.16.34.24.7.24 1.08zm7.97 10.24c.49-.54 1-1.04 1.54-1.48a9.85 9.85 0 013.66-1.84 8.96 8.96 0 015.43.35c.94.4 1.72.97 2.33 1.71a7.36 7.36 0 011.43 2.67c.32 1.04.49 2.19.49 3.45V93h-3.94V78.81c0-1.69-.4-3-1.17-3.92-.76-.93-1.93-1.4-3.5-1.4a6.6 6.6 0 00-3.25.83c-1 .56-1.92 1.31-2.77 2.27V93h-3.94V70.71h2.35c.56 0 .9.28 1.04.82l.3 2.42zm57.7 3.3c0 2.36-.37 4.5-1.11 6.44a14.3 14.3 0 01-3.17 4.98 14.1 14.1 0 01-4.93 3.2c-1.9.76-4.02 1.13-6.33 1.13H85.8V61.47h11.77c2.31 0 4.42.39 6.33 1.15a13.8 13.8 0 018.1 8.18 17.75 17.75 0 011.12 6.45zm-4.37 0c0-1.94-.26-3.67-.8-5.2a10.94 10.94 0 00-2.23-3.87 9.57 9.57 0 00-3.53-2.42 12.23 12.23 0 00-4.61-.83h-7.5v24.62h7.5c1.7 0 3.24-.28 4.61-.84a9.7 9.7 0 003.53-2.4 10.94 10.94 0 002.24-3.87c.53-1.53.8-3.26.8-5.2zm19.8 5.72c-1.8.06-3.34.2-4.62.44-1.26.22-2.3.51-3.1.88-.8.36-1.37.8-1.74 1.3-.35.5-.53 1.05-.53 1.67 0 .58.1 1.1.3 1.52a3 3 0 00.76 1.05c.34.27.73.46 1.17.6a6.13 6.13 0 001.45.17 7.28 7.28 0 003.5-.81 11.95 11.95 0 002.82-2.2v-4.62zm-12.65-9.11a12.73 12.73 0 013.98-2.66c1.43-.59 3-.88 4.73-.88 1.25 0 2.36.2 3.33.61a6.81 6.81 0 013.94 4.38c.33 1.04.5 2.19.5 3.43V93h-1.74a1.8 1.8 0 01-.88-.18c-.2-.13-.36-.38-.48-.74l-.44-2.12-1.72 1.46a9.48 9.48 0 01-3.74 1.7c-.69.15-1.46.23-2.3.23-.87 0-1.69-.12-2.45-.35a5.34 5.34 0 01-3.34-2.93 6.64 6.64 0 01-.49-2.64c0-.88.25-1.72.73-2.53a6.33 6.33 0 012.35-2.17c1.09-.63 2.5-1.15 4.25-1.54 1.75-.41 3.89-.65 6.42-.7v-1.75c0-1.73-.37-3.03-1.12-3.91-.75-.9-1.84-1.34-3.28-1.34-.97 0-1.78.12-2.44.37-.64.23-1.2.5-1.7.81l-1.23.82c-.33.23-.67.35-1 .35-.27 0-.5-.07-.69-.2a2.1 2.1 0 01-.48-.53l-.7-1.25zm27.67 19.5c-1.76 0-3.12-.5-4.07-1.48-.94-.98-1.41-2.4-1.41-4.25V74h-2.68a.9.9 0 01-.6-.2c-.16-.14-.24-.36-.24-.66v-1.56l3.65-.46.9-6.89a.9.9 0 01.29-.52.88.88 0 01.62-.22H142v7.67h6.44V74H142v13.38c0 .94.22 1.63.68 2.09.45.45 1.04.68 1.76.68a3.21 3.21 0 001.85-.53l.55-.35c.16-.12.3-.18.41-.18.2 0 .4.13.55.38l1.15 1.87a7.45 7.45 0 01-2.44 1.5 8.53 8.53 0 01-2.95.52zm19.68-10.4c-1.8.07-3.34.21-4.62.45-1.26.22-2.3.51-3.1.88-.8.36-1.37.8-1.74 1.3-.35.5-.53 1.05-.53 1.67 0 .58.1 1.1.3 1.52a2.9 2.9 0 00.76 1.05c.34.27.73.46 1.17.6a6.13 6.13 0 001.45.17 7.3 7.3 0 003.5-.81 12.04 12.04 0 002.82-2.2v-4.62zm-12.65-9.1a12.72 12.72 0 013.99-2.66c1.42-.59 3-.88 4.72-.88 1.25 0 2.36.2 3.33.61a6.81 6.81 0 013.94 4.38c.33 1.04.5 2.19.5 3.43V93h-1.74a1.8 1.8 0 01-.88-.18c-.2-.13-.36-.38-.48-.74l-.44-2.12-1.72 1.46a9.48 9.48 0 01-3.74 1.7c-.69.15-1.46.23-2.3.23-.87 0-1.69-.12-2.45-.35a5.33 5.33 0 01-3.34-2.93 6.62 6.62 0 01-.49-2.64c0-.88.25-1.72.73-2.53a6.33 6.33 0 012.35-2.17c1.09-.63 2.5-1.15 4.25-1.54a31.2 31.2 0 016.42-.7v-1.75c0-1.73-.37-3.03-1.12-3.91-.75-.9-1.84-1.34-3.28-1.34-.97 0-1.78.12-2.44.37-.64.23-1.2.5-1.7.81l-1.22.82c-.34.23-.68.35-1.02.35-.26 0-.49-.07-.68-.2a1.88 1.88 0 01-.48-.53l-.7-1.25z" fill="#fff"/><path fill="#D42B21" d="M0 106.79h210V120H0z"/></g><defs><clipPath id="clip0"><path fill="#fff" d="M0 0h210v120H0z"/></clipPath></defs></svg></g><a href="https://ourworldindata.org/grapher/access-to-a-financial-account-or-services" target="_blank" rel="noopener" font-family="&quot;Playfair Display&quot;,Georgia,&quot;Times New Roman&quot;,serif"><text font-size="25.2" x="15" y="35.2" fill="#555"><tspan x="15" y="35.16">Access to a financial account or services, 2005 to 2014</tspan></text></a><text font-size="14.4" x="15" y="55.7" fill="#666"><tspan x="15" y="55.72">Access to financial account or services, as the percentage of the adult population (15+ years). Figures in 2011 and</tspan><tspan x="15" y="73">2014 are measured based on the percentage with access to an account from a financial institution or</tspan><tspan x="15" y="90.28">mobile-money-service provider. Data for 2005 is based on estimates from composite measures of financial access,</tspan><tspan x="15" y="107.56">including household surveys, number and average size of bank accounts</tspan></text></g><g class="slopeChart"><g class="LabelledSlopes"><g class="gridlines" stroke="#eee" stroke-dasharray="3,2"><path d="M234.19 497.4h261.62M234.19 422.6h261.62M234.19 347.8h261.62M234.19 273h261.62M234.19 198.2h261.62M234.19 123.4h261.62"/></g><g class="axis" font-size=".8em" fill="#666" dominant-baseline="middle" text-anchor="start"><text x="15" y="497.4">0%</text><text x="15" y="422.6">20%</text><text x="15" y="347.8">40%</text><text x="15" y="273">60%</text><text x="15" y="198.2">80%</text><text x="15" y="123.4">100%</text></g><g class="axis" font-size=".8em" fill="#666" dominant-baseline="middle" text-anchor="end"><text x="715" y="497.4">0%</text><text x="715" y="422.6">20%</text><text x="715" y="347.8">40%</text><text x="715" y="273">60%</text><text x="715" y="198.2">80%</text><text x="715" y="123.4">100%</text></g><path stroke="#333" d="M234.19 497.4v-374M495.81 497.4v-374"/><text x="234.19" y="521.8" text-anchor="middle" fill="#666" font-size="18">2005</text><text x="495.81" y="521.8" text-anchor="middle" fill="#666" font-size="18">2014</text><g class="slopes"><g class="slope"><circle cx="234.19" cy="186.98" r="2" fill="#ff7f0e" opacity=".5"/><path stroke="#ff7f0e" stroke-width="1" opacity=".5" d="M234.19 186.98l261.62 21.54"/><circle cx="495.81" cy="208.52" r="2" fill="#ff7f0e" opacity=".5"/></g><g class="slope"><circle cx="234.19" cy="325.36" r="2" fill="#E04E4B" opacity=".5"/><path stroke="#E04E4B" stroke-width="1" opacity=".5" d="M234.19 325.36l261.62-8.26"/><circle cx="495.81" cy="317.1" r="2" fill="#E04E4B" opacity=".5"/></g><g class="slope"><circle cx="234.19" cy="160.8" r="2" fill="#4C5C78" opacity=".5"/><path stroke="#4C5C78" stroke-width="1" opacity=".5" d="M234.19 160.8l261.62-23.67"/><circle cx="495.81" cy="137.13" r="2" fill="#4C5C78" opacity=".5"/></g><g class="slope"><circle cx="234.19" cy="127.14" r="2" fill="#4C5C78" opacity=".5"/><path stroke="#4C5C78" stroke-width="1" opacity=".5" d="M234.19 127.14l261.62 10.59"/><circle cx="495.81" cy="137.73" r="2" fill="#4C5C78" opacity=".5"/></g><g class="slope"><circle cx="234.19" cy="437.56" r="2" fill="#2D8587" opacity=".5"/><path stroke="#2D8587" stroke-width="1" opacity=".5" d="M234.19 437.56l261.62-66.07"/><circle cx="495.81" cy="371.49" r="2" fill="#2D8587" opacity=".5"/></g><g class="slope"><circle cx="234.19" cy="179.5" r="2" fill="#4C5C78" opacity=".5"/><path stroke="#4C5C78" stroke-width="1" opacity=".5" d="M234.19 179.5l261.62-19.26"/><circle cx="495.81" cy="160.24" r="2" fill="#4C5C78" opacity=".5"/></g><g class="slope"><circle cx="234.19" cy="295.44" r="2" fill="#923E8B" opacity=".5"/><path stroke="#923E8B" stroke-width="1" opacity=".5" d="M234.19 295.44l261.62-105.5"/><circle cx="495.81" cy="189.94" r="2" fill="#923E8B" opacity=".5"/></g><g class="slope"><circle cx="234.19" cy="175.76" r="2" fill="#4C5C78" opacity=".5"/><path stroke="#4C5C78" stroke-width="1" opacity=".5" d="M234.19 175.76l261.62-43.65"/><circle cx="495.81" cy="132.11" r="2" fill="#4C5C78" opacity=".5"/></g><g class="slope"><circle cx="234.19" cy="351.54" r="2" fill="#923E8B" opacity=".5"/><path stroke="#923E8B" stroke-width="1" opacity=".5" d="M234.19 351.54l261.62 33.08"/><circle cx="495.81" cy="384.62" r="2" fill="#923E8B" opacity=".5"/></g><g class="slope"><circle cx="234.19" cy="321.62" r="2" fill="#923E8B" opacity=".5"/><path stroke="#923E8B" stroke-width="1" opacity=".5" d="M234.19 321.62l261.62-8.39"/><circle cx="495.81" cy="313.23" r="2" fill="#923E8B" opacity=".5"/></g><g class="slope"><circle cx="234.19" cy="392.68" r="2" fill="#923E8B" opacity=".5"/><path stroke="#923E8B" stroke-width="1" opacity=".5" d="M234.19 392.68l261.62-112.44"/><circle cx="495.81" cy="280.24" r="2" fill="#923E8B" opacity=".5"/></g><g class="slope"><circle cx="234.19" cy="134.62" r="2" fill="#4C5C78" opacity=".5"/><path stroke="#4C5C78" stroke-width="1" opacity=".5" d="M234.19 134.62l261.62-.91"/><circle cx="495.81" cy="133.71" r="2" fill="#4C5C78" opacity=".5"/></g><g class="slope"><circle cx="234.19" cy="422.6" r="2" fill="#4C5C78" opacity=".5"/><path stroke="#4C5C78" stroke-width="1" opacity=".5" d="M234.19 422.6l261.62-193.73"/><circle cx="495.81" cy="228.87" r="2" fill="#4C5C78" opacity=".5"/></g><g class="slope"><circle cx="234.19" cy="258.04" r="2" fill="#4C5C78" opacity=".5"/><path stroke="#4C5C78" stroke-width="1.01" opacity=".5" d="M234.19 258.04l261.62-98.06"/><circle cx="495.81" cy="159.98" r="2" fill="#4C5C78" opacity=".5"/></g><g class="slope"><circle cx="234.19" cy="403.9" r="2" fill="#2D8587" opacity=".5"/><path stroke="#2D8587" stroke-width="1.01" opacity=".5" d="M234.19 403.9l261.62-249.91"/><circle cx="495.81" cy="153.99" r="2" fill="#2D8587" opacity=".5"/></g><g class="slope"><circle cx="234.19" cy="276.74" r="2" fill="#E04E4B" opacity=".5"/><path stroke="#E04E4B" stroke-width="1.01" opacity=".5" d="M234.19 276.74l261.62-72.35"/><circle cx="495.81" cy="204.39" r="2" fill="#E04E4B" opacity=".5"/></g><g class="slope"><circle cx="234.19" cy="463.74" r="2" fill="#2D8587" opacity=".5"/><path stroke="#2D8587" stroke-width="1.01" opacity=".5" d="M234.19 463.74l261.62-30.82"/><circle cx="495.81" cy="432.92" r="2" fill="#2D8587" opacity=".5"/></g><g class="slope"><circle cx="234.19" cy="370.24" r="2" fill="#4C5C78" opacity=".5"/><path stroke="#4C5C78" stroke-width="1.01" opacity=".5" d="M234.19 370.24l261.62-14.91"/><circle cx="495.81" cy="355.33" r="2" fill="#4C5C78" opacity=".5"/></g><g class="slope"><circle cx="234.19" cy="340.32" r="2" fill="#932834" opacity=".5"/><path stroke="#932834" stroke-width="1.01" opacity=".5" d="M234.19 340.32l261.62-12.55"/><circle cx="495.81" cy="327.77" r="2" fill="#932834" opacity=".5"/></g><g class="slope"><circle cx="234.19" cy="325.36" r="2" fill="#E04E4B" opacity=".5"/><path stroke="#E04E4B" stroke-width="1.01" opacity=".5" d="M234.19 325.36l261.62 9.71"/><circle cx="495.81" cy="335.07" r="2" fill="#E04E4B" opacity=".5"/></g><g class="slope"><circle cx="234.19" cy="235.6" r="2" fill="#4C5C78" opacity=".5"/><path stroke="#4C5C78" stroke-width="1.01" opacity=".5" d="M234.19 235.6l261.62-29.57"/><circle cx="495.81" cy="206.03" r="2" fill="#4C5C78" opacity=".5"/></g><g class="slope"><circle cx="234.19" cy="445.04" r="2" fill="#2D8587" opacity=".5"/><path stroke="#2D8587" stroke-width="1.01" opacity=".5" d="M234.19 445.04l261.62-38.31"/><circle cx="495.81" cy="406.73" r="2" fill="#2D8587" opacity=".5"/></g><g class="slope"><circle cx="234.19" cy="433.82" r="2" fill="#4C5C78" opacity=".5"/><path stroke="#4C5C78" stroke-width="1.01" opacity=".5" d="M234.19 433.82l261.62-133.46"/><circle cx="495.81" cy="300.36" r="2" fill="#4C5C78" opacity=".5"/></g><g class="slope"><circle cx="234.19" cy="168.28" r="2" fill="#4C5C78" opacity=".5"/><path stroke="#4C5C78" stroke-width="1.01" opacity=".5" d="M234.19 168.28l261.62-25.1"/><circle cx="495.81" cy="143.18" r="2" fill="#4C5C78" opacity=".5"/></g><g class="slope"><circle cx="234.19" cy="448.78" r="2" fill="#4C5C78" opacity=".5"/><path stroke="#4C5C78" stroke-width="1.01" opacity=".5" d="M234.19 448.78l261.62-17.79"/><circle cx="495.81" cy="430.99" r="2" fill="#4C5C78" opacity=".5"/></g><g class="slope"><circle cx="234.19" cy="441.3" r="2" fill="#2D8587" opacity=".5"/><path stroke="#2D8587" stroke-width="1.01" opacity=".5" d="M234.19 441.3l261.62-92.25"/><circle cx="495.81" cy="349.05" r="2" fill="#2D8587" opacity=".5"/></g><g class="slope"><circle cx="234.19" cy="130.88" r="2" fill="#2D8587" opacity=".5"/><path stroke="#2D8587" stroke-width="1.01" opacity=".5" d="M234.19 130.88l261.62 6.16"/><circle cx="495.81" cy="137.04" r="2" fill="#2D8587" opacity=".5"/></g><g class="slope"><circle cx="234.19" cy="388.94" r="2" fill="#E04E4B" opacity=".5"/><path stroke="#E04E4B" stroke-width="1.01" opacity=".5" d="M234.19 388.94l261.62-132.97"/><circle cx="495.81" cy="255.97" r="2" fill="#E04E4B" opacity=".5"/></g><g class="slope"><circle cx="234.19" cy="340.32" r="2" fill="#4C5C78" opacity=".5"/><path stroke="#4C5C78" stroke-width="1.01" opacity=".5" d="M234.19 340.32l261.62-164.65"/><circle cx="495.81" cy="175.67" r="2" fill="#4C5C78" opacity=".5"/></g><g class="slope"><circle cx="234.19" cy="183.24" r="2" fill="#4C5C78" opacity=".5"/><path stroke="#4C5C78" stroke-width="1.01" opacity=".5" d="M234.19 183.24l261.62-59.84"/><circle cx="495.81" cy="123.4" r="2" fill="#4C5C78" opacity=".5"/></g><g class="slope"><circle cx="234.19" cy="445.04" r="2" fill="#2D8587" opacity=".5"/><path stroke="#2D8587" stroke-width="1.01" opacity=".5" d="M234.19 445.04l261.62-16.72"/><circle cx="495.81" cy="428.32" r="2" fill="#2D8587" opacity=".5"/></g><g class="slope"><circle cx="234.19" cy="127.14" r="2" fill="#4C5C78" opacity=".5"/><path stroke="#4C5C78" stroke-width="1.01" opacity=".5" d="M234.19 127.14l261.62-3.74"/><circle cx="495.81" cy="123.4" r="2" fill="#4C5C78" opacity=".5"/></g><g class="slope"><circle cx="234.19" cy="127.14" r="2" fill="#4C5C78" opacity=".5"/><path stroke="#4C5C78" stroke-width="1.01" opacity=".5" d="M234.19 127.14l261.62-3.74"/><circle cx="495.81" cy="123.4" r="2" fill="#4C5C78" opacity=".5"/></g><g class="slope"><circle cx="234.19" cy="478.7" r="2" fill="#E04E4B" opacity=".5"/><path stroke="#E04E4B" stroke-width="1.01" opacity=".5" d="M234.19 478.7l261.62-51.82"/><circle cx="495.81" cy="426.88" r="2" fill="#E04E4B" opacity=".5"/></g><g class="slope"><circle cx="234.19" cy="392.68" r="2" fill="#923E8B" opacity=".5"/><path stroke="#923E8B" stroke-width="1.01" opacity=".5" d="M234.19 392.68l261.62 38.84"/><circle cx="495.81" cy="431.52" r="2" fill="#923E8B" opacity=".5"/></g><g class="slope"><circle cx="234.19" cy="448.78" r="2" fill="#923E8B" opacity=".5"/><path stroke="#923E8B" stroke-width="1.01" opacity=".5" d="M234.19 448.78l261.62-4.3"/><circle cx="495.81" cy="444.48" r="2" fill="#923E8B" opacity=".5"/></g><g class="slope"><text font-size="11.7" x="198.7" y="362.5" text-anchor="end" fill="#333"><tspan x="198.67" y="362.53">Jordan</tspan></text><text x="226.19" y="362.53" text-anchor="end" font-size="11.7" fill="#333">37%</text><circle cx="234.19" cy="359.02" r="2" fill="#2D8587" opacity=".5"/><path stroke="#2D8587" stroke-width="1.01" opacity=".5" d="M234.19 359.02l261.62 46.32"/><circle cx="495.81" cy="405.34" r="2" fill="#2D8587" opacity=".5"/></g><g class="slope"><circle cx="234.19" cy="400.16" r="2" fill="#E04E4B" opacity=".5"/><path stroke="#E04E4B" stroke-width="1.01" opacity=".5" d="M234.19 400.16l261.62-32.29"/><circle cx="495.81" cy="367.87" r="2" fill="#E04E4B" opacity=".5"/></g><g class="slope"><circle cx="234.19" cy="437.56" r="2" fill="#2D8587" opacity=".5"/><path stroke="#2D8587" stroke-width="1.02" opacity=".5" d="M234.19 437.56l261.62 16.98"/><circle cx="495.81" cy="454.54" r="2" fill="#2D8587" opacity=".5"/></g><g class="slope"><circle cx="234.19" cy="433.82" r="2" fill="#923E8B" opacity=".5"/><path stroke="#923E8B" stroke-width="1.02" opacity=".5" d="M234.19 433.82l261.62 37.61"/><circle cx="495.81" cy="471.43" r="2" fill="#923E8B" opacity=".5"/></g><g class="slope"><circle cx="234.19" cy="168.28" r="2" fill="#4C5C78" opacity=".5"/><path stroke="#4C5C78" stroke-width="1.02" opacity=".5" d="M234.19 168.28l261.62-37.35"/><circle cx="495.81" cy="130.93" r="2" fill="#4C5C78" opacity=".5"/></g><g class="slope"><circle cx="234.19" cy="403.9" r="2" fill="#E04E4B" opacity=".5"/><path stroke="#E04E4B" stroke-width="1.02" opacity=".5" d="M234.19 403.9l261.62-18.86"/><circle cx="495.81" cy="385.04" r="2" fill="#E04E4B" opacity=".5"/></g><g class="slope"><circle cx="234.19" cy="287.96" r="2" fill="#4C5C78" opacity=".5"/><path stroke="#4C5C78" stroke-width="1.02" opacity=".5" d="M234.19 287.96l261.62-26.13"/><circle cx="495.81" cy="261.83" r="2" fill="#4C5C78" opacity=".5"/></g><g class="slope"><circle cx="234.19" cy="377.72" r="2" fill="#923E8B" opacity=".5"/><path stroke="#923E8B" stroke-width="1.02" opacity=".5" d="M234.19 377.72l261.62 59.92"/><circle cx="495.81" cy="437.64" r="2" fill="#923E8B" opacity=".5"/></g><g class="slope"><circle cx="234.19" cy="138.36" r="2" fill="#4C5C78" opacity=".5"/><path stroke="#4C5C78" stroke-width="1.02" opacity=".5" d="M234.19 138.36l261.62-2.75"/><circle cx="495.81" cy="135.61" r="2" fill="#4C5C78" opacity=".5"/></g><g class="slope"><circle cx="234.19" cy="433.82" r="2" fill="#2D8587" opacity=".5"/><path stroke="#2D8587" stroke-width="1.02" opacity=".5" d="M234.19 433.82l261.62-45.45"/><circle cx="495.81" cy="388.37" r="2" fill="#2D8587" opacity=".5"/></g><g class="slope"><circle cx="234.19" cy="411.38" r="2" fill="#923E8B" opacity=".5"/><path stroke="#923E8B" stroke-width="1.02" opacity=".5" d="M234.19 411.38l261.62-56.64"/><circle cx="495.81" cy="354.74" r="2" fill="#923E8B" opacity=".5"/></g><g class="slope"><circle cx="234.19" cy="127.14" r="2" fill="#4C5C78" opacity=".5"/><path stroke="#4C5C78" stroke-width="1.02" opacity=".5" d="M234.19 127.14l261.62-2.69"/><circle cx="495.81" cy="124.45" r="2" fill="#4C5C78" opacity=".5"/></g><g class="slope"><circle cx="234.19" cy="388.94" r="2" fill="#E04E4B" opacity=".5"/><path stroke="#E04E4B" stroke-width="1.02" opacity=".5" d="M234.19 388.94l261.62-93.45"/><circle cx="495.81" cy="295.49" r="2" fill="#E04E4B" opacity=".5"/></g><g class="slope"><circle cx="234.19" cy="422.6" r="2" fill="#923E8B" opacity=".5"/><path stroke="#923E8B" stroke-width="1.02" opacity=".5" d="M234.19 422.6l261.62 51.72"/><circle cx="495.81" cy="474.32" r="2" fill="#923E8B" opacity=".5"/></g><g class="slope"><circle cx="234.19" cy="441.3" r="2" fill="#E04E4B" opacity=".5"/><path stroke="#E04E4B" stroke-width="1.02" opacity=".5" d="M234.19 441.3l261.62-9.34"/><circle cx="495.81" cy="431.96" r="2" fill="#E04E4B" opacity=".5"/></g><g class="slope"><circle cx="234.19" cy="385.2" r="2" fill="#932834" opacity=".5"/><path stroke="#932834" stroke-width="1.02" opacity=".5" d="M234.19 385.2l261.62-40.06"/><circle cx="495.81" cy="345.14" r="2" fill="#932834" opacity=".5"/></g><g class="slope"><circle cx="234.19" cy="437.56" r="2" fill="#4C5C78" opacity=".5"/><path stroke="#4C5C78" stroke-width="1.02" opacity=".5" d="M234.19 437.56l261.62-209.38"/><circle cx="495.81" cy="228.18" r="2" fill="#4C5C78" opacity=".5"/></g><g class="slope"><circle cx="234.19" cy="250.56" r="2" fill="#4C5C78" opacity=".5"/><path stroke="#4C5C78" stroke-width="1.02" opacity=".5" d="M234.19 250.56l261.62-23.4"/><circle cx="495.81" cy="227.16" r="2" fill="#4C5C78" opacity=".5"/></g><g class="slope"><circle cx="234.19" cy="340.32" r="2" fill="#923E8B" opacity=".5"/><path stroke="#923E8B" stroke-width="1.02" opacity=".5" d="M234.19 340.32l261.62 55.12"/><circle cx="495.81" cy="395.44" r="2" fill="#923E8B" opacity=".5"/></g><g class="slope"><circle cx="234.19" cy="179.5" r="2" fill="#4C5C78" opacity=".5"/><path stroke="#4C5C78" stroke-width="1.02" opacity=".5" d="M234.19 179.5l261.62 10.55"/><circle cx="495.81" cy="190.05" r="2" fill="#4C5C78" opacity=".5"/></g><g class="slope"><circle cx="234.19" cy="183.24" r="2" fill="#4C5C78" opacity=".5"/><path stroke="#4C5C78" stroke-width="1.02" opacity=".5" d="M234.19 183.24l261.62-12.66"/><circle cx="495.81" cy="170.58" r="2" fill="#4C5C78" opacity=".5"/></g><g class="slope"><circle cx="234.19" cy="134.62" r="2" fill="#4C5C78" opacity=".5"/><path stroke="#4C5C78" stroke-width="1.02" opacity=".5" d="M234.19 134.62l261.62-4.21"/><circle cx="495.81" cy="130.41" r="2" fill="#4C5C78" opacity=".5"/></g><g class="slope"><circle cx="234.19" cy="396.42" r="2" fill="#923E8B" opacity=".5"/><path stroke="#923E8B" stroke-width="1.03" opacity=".5" d="M234.19 396.42l261.62 56.39"/><circle cx="495.81" cy="452.81" r="2" fill="#923E8B" opacity=".5"/></g><g class="slope"><text font-size="11.7" x="198.7" y="190.5" text-anchor="end" fill="#333"><tspan x="198.67" y="190.49">Greece</tspan></text><text x="226.19" y="190.49" text-anchor="end" font-size="11.7" fill="#333">83%</text><circle cx="234.19" cy="186.98" r="2" fill="#4C5C78" opacity=".5"/><path stroke="#4C5C78" stroke-width="1.03" opacity=".5" d="M234.19 186.98l261.62-16.9"/><circle cx="495.81" cy="170.08" r="2" fill="#4C5C78" opacity=".5"/></g><g class="slope"><circle cx="234.19" cy="441.3" r="2" fill="#923E8B" opacity=".5"/><path stroke="#923E8B" stroke-width="1.03" opacity=".5" d="M234.19 441.3l261.62-60.93"/><circle cx="495.81" cy="380.37" r="2" fill="#923E8B" opacity=".5"/></g><g class="slope"><circle cx="234.19" cy="370.24" r="2" fill="#923E8B" opacity=".5"/><path stroke="#923E8B" stroke-width="1.03" opacity=".5" d="M234.19 370.24l261.62 62.87"/><circle cx="495.81" cy="433.11" r="2" fill="#923E8B" opacity=".5"/></g><g class="slope"><circle cx="234.19" cy="418.86" r="2" fill="#923E8B" opacity=".5"/><path stroke="#923E8B" stroke-width="1.03" opacity=".5" d="M234.19 418.86l261.62 18.19"/><circle cx="495.81" cy="437.05" r="2" fill="#923E8B" opacity=".5"/></g><g class="slope"><circle cx="234.19" cy="415.12" r="2" fill="#923E8B" opacity=".5"/><path stroke="#923E8B" stroke-width="1.03" opacity=".5" d="M234.19 415.12l261.62 32.71"/><circle cx="495.81" cy="447.83" r="2" fill="#923E8B" opacity=".5"/></g><g class="slope"><circle cx="234.19" cy="377.72" r="2" fill="#E04E4B" opacity=".5"/><path stroke="#E04E4B" stroke-width="1.03" opacity=".5" d="M234.19 377.72l261.62-32.86"/><circle cx="495.81" cy="344.86" r="2" fill="#E04E4B" opacity=".5"/></g><g class="slope"><circle cx="234.19" cy="422.6" r="2" fill="#2D8587" opacity=".5"/><path stroke="#2D8587" stroke-width="1.03" opacity=".5" d="M234.19 422.6l261.62 27.84"/><circle cx="495.81" cy="450.44" r="2" fill="#2D8587" opacity=".5"/></g><g class="slope"><circle cx="234.19" cy="400.16" r="2" fill="#923E8B" opacity=".5"/><path stroke="#923E8B" stroke-width="1.03" opacity=".5" d="M234.19 400.16l261.62 47.03"/><circle cx="495.81" cy="447.19" r="2" fill="#923E8B" opacity=".5"/></g><g class="slope"><circle cx="234.19" cy="381.46" r="2" fill="#923E8B" opacity=".5"/><path stroke="#923E8B" stroke-width="1.03" opacity=".5" d="M234.19 381.46l261.62 102.89"/><circle cx="495.81" cy="484.35" r="2" fill="#923E8B" opacity=".5"/></g><g class="slope"><circle cx="234.19" cy="366.5" r="2" fill="#932834" opacity=".5"/><path stroke="#932834" stroke-width="1.03" opacity=".5" d="M234.19 366.5l261.62-41.93"/><circle cx="495.81" cy="324.57" r="2" fill="#932834" opacity=".5"/></g><g class="slope"><circle cx="234.19" cy="317.88" r="2" fill="#2D8587" opacity=".5"/><path stroke="#2D8587" stroke-width="1.03" opacity=".5" d="M234.19 317.88l261.62-22.09"/><circle cx="495.81" cy="295.79" r="2" fill="#2D8587" opacity=".5"/></g><g class="slope"><circle cx="234.19" cy="273" r="2" fill="#932834" opacity=".5"/><path stroke="#932834" stroke-width="1.04" opacity=".5" d="M234.19 273l261.62-12.01"/><circle cx="495.81" cy="260.99" r="2" fill="#932834" opacity=".5"/></g><g class="slope"><circle cx="234.19" cy="123.4" r="2" fill="#4C5C78" opacity=".5"/><path stroke="#4C5C78" stroke-width="1.04" opacity=".5" d="M234.19 123.4l261.62 2.63"/><circle cx="495.81" cy="126.03" r="2" fill="#4C5C78" opacity=".5"/></g><g class="slope"><circle cx="234.19" cy="407.64" r="2" fill="#923E8B" opacity=".5"/><path stroke="#923E8B" stroke-width="1.04" opacity=".5" d="M234.19 407.64l261.62 47.31"/><circle cx="495.81" cy="454.95" r="2" fill="#923E8B" opacity=".5"/></g><g class="slope"><circle cx="234.19" cy="418.86" r="2" fill="#923E8B" opacity=".5"/><path stroke="#923E8B" stroke-width="1.04" opacity=".5" d="M234.19 418.86l261.62 57.12"/><circle cx="495.81" cy="475.98" r="2" fill="#923E8B" opacity=".5"/></g><g class="slope"><circle cx="234.19" cy="403.9" r="2" fill="#923E8B" opacity=".5"/><path stroke="#923E8B" stroke-width="1.04" opacity=".5" d="M234.19 403.9l261.62 36.89"/><circle cx="495.81" cy="440.79" r="2" fill="#923E8B" opacity=".5"/></g><g class="slope"><circle cx="234.19" cy="403.9" r="2" fill="#923E8B" opacity=".5"/><path stroke="#923E8B" stroke-width="1.04" opacity=".5" d="M234.19 403.9l261.62-16.15"/><circle cx="495.81" cy="387.75" r="2" fill="#923E8B" opacity=".5"/></g><g class="slope"><circle cx="234.19" cy="276.74" r="2" fill="#2D8587" opacity=".5"/><path stroke="#2D8587" stroke-width="1.04" opacity=".5" d="M234.19 276.74l261.62-88.61"/><circle cx="495.81" cy="188.13" r="2" fill="#2D8587" opacity=".5"/><text x="503.81" y="191.64" font-size="11.7" fill="#333">82.69%</text><text font-size="11.7" x="547.7" y="191.6" fill="#333"><tspan x="547.71" y="191.64">Sri Lanka</tspan></text></g><g class="slope"><circle cx="234.19" cy="445.04" r="2" fill="#2D8587" opacity=".5"/><path stroke="#2D8587" stroke-width="1.05" opacity=".5" d="M234.19 445.04l261.62 28.24"/><circle cx="495.81" cy="473.28" r="2" fill="#2D8587" opacity=".5"/></g><g class="slope"><circle cx="234.19" cy="411.38" r="2" fill="#4C5C78" opacity=".5"/><path stroke="#4C5C78" stroke-width="1.05" opacity=".5" d="M234.19 411.38l261.62-141.35"/><circle cx="495.81" cy="270.03" r="2" fill="#4C5C78" opacity=".5"/><text x="503.81" y="273.54" font-size="11.7" fill="#333">60.79%</text><text font-size="11.7" x="547.7" y="273.5" fill="#333"><tspan x="547.71" y="273.54">Romania</tspan></text></g><g class="slope"><circle cx="234.19" cy="437.56" r="2" fill="#923E8B" opacity=".5"/><path stroke="#923E8B" stroke-width="1.05" opacity=".5" d="M234.19 437.56l261.62-69.63"/><circle cx="495.81" cy="367.93" r="2" fill="#923E8B" opacity=".5"/></g><g class="slope"><circle cx="234.19" cy="265.52" r="2" fill="#2D8587" opacity=".5"/><path stroke="#2D8587" stroke-width="1.05" opacity=".5" d="M234.19 265.52l261.62-27.71"/><circle cx="495.81" cy="237.81" r="2" fill="#2D8587" opacity=".5"/></g><g class="slope"><circle cx="234.19" cy="273" r="2" fill="#2D8587" opacity=".5"/><path stroke="#2D8587" stroke-width="1.06" opacity=".5" d="M234.19 273l261.62-77.32"/><circle cx="495.81" cy="195.68" r="2" fill="#2D8587" opacity=".5"/></g><g class="slope"><circle cx="234.19" cy="422.6" r="2" fill="#2D8587" opacity=".5"/><path stroke="#2D8587" stroke-width="1.06" opacity=".5" d="M234.19 422.6l261.62-51.62"/><circle cx="495.81" cy="370.98" r="2" fill="#2D8587" opacity=".5"/><text x="503.81" y="374.49" font-size="11.7" fill="#333">33.8%</text><text font-size="11.7" x="541.2" y="374.5" fill="#333"><tspan x="541.16" y="374.49">Nepal</tspan></text></g><g class="slope"><circle cx="234.19" cy="437.56" r="2" fill="#2D8587" opacity=".5"/><path stroke="#2D8587" stroke-width="1.06" opacity=".5" d="M234.19 437.56l261.62-92.42"/><circle cx="495.81" cy="345.14" r="2" fill="#2D8587" opacity=".5"/></g><g class="slope"><circle cx="234.19" cy="392.68" r="2" fill="#932834" opacity=".5"/><path stroke="#932834" stroke-width="1.06" opacity=".5" d="M234.19 392.68l261.62-107.93"/><circle cx="495.81" cy="284.75" r="2" fill="#932834" opacity=".5"/></g><g class="slope"><circle cx="234.19" cy="433.82" r="2" fill="#2D8587" opacity=".5"/><path stroke="#2D8587" stroke-width="1.06" opacity=".5" d="M234.19 433.82l261.62 22.54"/><circle cx="495.81" cy="456.36" r="2" fill="#2D8587" opacity=".5"/></g><g class="slope"><circle cx="234.19" cy="422.6" r="2" fill="#923E8B" opacity=".5"/><path stroke="#923E8B" stroke-width="1.06" opacity=".5" d="M234.19 422.6l261.62-29.11"/><circle cx="495.81" cy="393.49" r="2" fill="#923E8B" opacity=".5"/></g><g class="slope"><circle cx="234.19" cy="400.16" r="2" fill="#932834" opacity=".5"/><path stroke="#932834" stroke-width="1.06" opacity=".5" d="M234.19 400.16l261.62-11.13"/><circle cx="495.81" cy="389.03" r="2" fill="#932834" opacity=".5"/></g><g class="slope"><circle cx="234.19" cy="441.3" r="2" fill="#923E8B" opacity=".5"/><path stroke="#923E8B" stroke-width="1.07" opacity=".5" d="M234.19 441.3l261.62-1"/><circle cx="495.81" cy="440.3" r="2" fill="#923E8B" opacity=".5"/></g><g class="slope"><circle cx="234.19" cy="138.36" r="2" fill="#E04E4B" opacity=".5"/><path stroke="#E04E4B" stroke-width="1.07" opacity=".5" d="M234.19 138.36l261.62-11.61"/><circle cx="495.81" cy="126.75" r="2" fill="#E04E4B" opacity=".5"/></g><g class="slope"><circle cx="234.19" cy="381.46" r="2" fill="#923E8B" opacity=".5"/><path stroke="#923E8B" stroke-width="1.07" opacity=".5" d="M234.19 381.46l261.62-72.84"/><circle cx="495.81" cy="308.62" r="2" fill="#923E8B" opacity=".5"/></g><g class="slope"><circle cx="234.19" cy="460" r="2" fill="#923E8B" opacity=".5"/><path stroke="#923E8B" stroke-width="1.08" opacity=".5" d="M234.19 460l261.62-169.07"/><circle cx="495.81" cy="290.93" r="2" fill="#923E8B" opacity=".5"/></g><g class="slope"><circle cx="234.19" cy="250.56" r="2" fill="#4C5C78" opacity=".5"/><path stroke="#4C5C78" stroke-width="1.09" opacity=".5" d="M234.19 250.56l261.62-44.36"/><circle cx="495.81" cy="206.2" r="2" fill="#4C5C78" opacity=".5"/></g><g class="slope"><text font-size="11.7" x="205.2" y="482.2" text-anchor="end" fill="#333"><tspan x="205.22" y="482.21">Tanzania</tspan></text><text x="226.19" y="482.21" text-anchor="end" font-size="11.7" fill="#333">5%</text><circle cx="234.19" cy="478.7" r="2" fill="#923E8B" opacity=".5"/><path stroke="#923E8B" stroke-width="1.09" opacity=".5" d="M234.19 478.7l261.62-52.51"/><circle cx="495.81" cy="426.19" r="2" fill="#923E8B" opacity=".5"/><text x="503.81" y="429.7" font-size="11.7" fill="#333">19.04%</text><text font-size="11.7" x="547.7" y="429.7" fill="#333"><tspan x="547.71" y="429.7">Tanzania</tspan></text></g><g class="slope"><circle cx="234.19" cy="392.68" r="2" fill="#932834" opacity=".5"/><path stroke="#932834" stroke-width="1.09" opacity=".5" d="M234.19 392.68l261.62-83.02"/><circle cx="495.81" cy="309.66" r="2" fill="#932834" opacity=".5"/></g><g class="slope"><circle cx="234.19" cy="344.06" r="2" fill="#932834" opacity=".5"/><path stroke="#932834" stroke-width="1.1" opacity=".5" d="M234.19 344.06l261.62 9.9"/><circle cx="495.81" cy="353.96" r="2" fill="#932834" opacity=".5"/></g><g class="slope"><circle cx="234.19" cy="142.1" r="2" fill="#4C5C78" opacity=".5"/><path stroke="#4C5C78" stroke-width="1.1" opacity=".5" d="M234.19 142.1l261.62-9.63"/><circle cx="495.81" cy="132.47" r="2" fill="#4C5C78" opacity=".5"/></g><g class="slope"><circle cx="234.19" cy="407.64" r="2" fill="#4C5C78" opacity=".5"/><path stroke="#4C5C78" stroke-width="1.11" opacity=".5" d="M234.19 407.64l261.62-107.39"/><circle cx="495.81" cy="300.25" r="2" fill="#4C5C78" opacity=".5"/></g><g class="slope"><circle cx="234.19" cy="325.36" r="2" fill="#923E8B" opacity=".5"/><path stroke="#923E8B" stroke-width="1.11" opacity=".5" d="M234.19 325.36l261.62-85.15"/><circle cx="495.81" cy="240.21" r="2" fill="#923E8B" opacity=".5"/></g><g class="slope"><text font-size="11.7" x="198.7" y="265.3" text-anchor="end" fill="#333"><tspan x="198.67" y="265.29">South Korea</tspan></text><text x="226.19" y="265.29" text-anchor="end" font-size="11.7" fill="#333">63%</text><circle cx="234.19" cy="261.78" r="2" fill="#2D8587" opacity=".5"/><path stroke="#2D8587" stroke-width="1.11" opacity=".5" d="M234.19 261.78l261.62-117.29"/><circle cx="495.81" cy="144.49" r="2" fill="#2D8587" opacity=".5"/></g><g class="slope"><text font-size="11.7" x="198.7" y="429.9" text-anchor="end" fill="#333"><tspan x="198.67" y="429.85">Myanmar</tspan></text><text x="226.19" y="429.85" text-anchor="end" font-size="11.7" fill="#333">19%</text><circle cx="234.19" cy="426.34" r="2" fill="#2D8587" opacity=".5"/><path stroke="#2D8587" stroke-width="1.11" opacity=".5" d="M234.19 426.34l261.62-13.54"/><circle cx="495.81" cy="412.8" r="2" fill="#2D8587" opacity=".5"/><text x="503.81" y="416.31" font-size="11.7" fill="#333">22.62%</text><text font-size="11.7" x="547.7" y="416.3" fill="#333"><tspan x="547.71" y="416.31">Myanmar</tspan></text></g><g class="slope"><circle cx="234.19" cy="396.42" r="2" fill="#923E8B" opacity=".5"/><path stroke="#923E8B" stroke-width="1.12" opacity=".5" d="M234.19 396.42l261.62 60.19"/><circle cx="495.81" cy="456.61" r="2" fill="#923E8B" opacity=".5"/></g><g class="slope"><text font-size="11.7" x="198.7" y="220.4" text-anchor="end" fill="#333"><tspan x="198.67" y="220.41">Italy</tspan></text><text x="226.19" y="220.41" text-anchor="end" font-size="11.7" fill="#333">75%</text><circle cx="234.19" cy="216.9" r="2" fill="#4C5C78" opacity=".5"/><path stroke="#4C5C78" stroke-width="1.13" opacity=".5" d="M234.19 216.9l261.62-46.13"/><circle cx="495.81" cy="170.77" r="2" fill="#4C5C78" opacity=".5"/><text x="503.81" y="174.28" font-size="11.7" fill="#333">87.33%</text><text font-size="11.7" x="547.7" y="174.3" fill="#333"><tspan x="547.71" y="174.28">Italy</tspan></text></g><g class="slope"><circle cx="234.19" cy="157.06" r="2" fill="#4C5C78" opacity=".5"/><path stroke="#4C5C78" stroke-width="1.14" opacity=".5" d="M234.19 157.06l261.62-29.66"/><circle cx="495.81" cy="127.4" r="2" fill="#4C5C78" opacity=".5"/></g><g class="slope"><circle cx="234.19" cy="138.36" r="2" fill="#4C5C78" opacity=".5"/><path stroke="#4C5C78" stroke-width="1.14" opacity=".5" d="M234.19 138.36l261.62-2.18"/><circle cx="495.81" cy="136.18" r="2" fill="#4C5C78" opacity=".5"/></g><g class="slope"><text font-size="11.7" x="198.7" y="280.3" text-anchor="end" fill="#333"><tspan x="198.67" y="280.25">Thailand</tspan></text><text x="226.19" y="280.25" text-anchor="end" font-size="11.7" fill="#333">59%</text><circle cx="234.19" cy="276.74" r="2" fill="#2D8587" opacity=".5"/><path stroke="#2D8587" stroke-width="1.15" opacity=".5" d="M234.19 276.74l261.62-71.57"/><circle cx="495.81" cy="205.17" r="2" fill="#2D8587" opacity=".5"/></g><g class="slope"><circle cx="234.19" cy="314.14" r="2" fill="#2D8587" opacity=".5"/><path stroke="#2D8587" stroke-width="1.15" opacity=".5" d="M234.19 314.14l261.62-28.1"/><circle cx="495.81" cy="286.04" r="2" fill="#2D8587" opacity=".5"/><text x="503.81" y="289.55" font-size="11.7" fill="#333">56.51%</text><text font-size="11.7" x="547.7" y="289.6" fill="#333"><tspan x="547.71" y="289.55">Turkey</tspan></text></g><g class="slope"><circle cx="234.19" cy="381.46" r="2" fill="#2D8587" opacity=".5"/><path stroke="#2D8587" stroke-width="1.16" opacity=".5" d="M234.19 381.46l261.62-228.8"/><circle cx="495.81" cy="152.66" r="2" fill="#2D8587" opacity=".5"/></g><g class="slope"><circle cx="234.19" cy="344.06" r="2" fill="#923E8B" opacity=".5"/><path stroke="#923E8B" stroke-width="1.17" opacity=".5" d="M234.19 344.06l261.62 102.28"/><circle cx="495.81" cy="446.34" r="2" fill="#923E8B" opacity=".5"/><text x="503.81" y="449.85" font-size="11.7" fill="#333">13.65%</text><text font-size="11.7" x="547.7" y="449.9" fill="#333"><tspan x="547.71" y="449.85">Egypt</tspan></text></g><g class="slope"><circle cx="234.19" cy="445.04" r="2" fill="#923E8B" opacity=".5"/><path stroke="#923E8B" stroke-width="1.17" opacity=".5" d="M234.19 445.04l261.62-29.14"/><circle cx="495.81" cy="415.9" r="2" fill="#923E8B" opacity=".5"/></g><g class="slope"><text font-size="11.7" x="198.7" y="138.1" text-anchor="end" fill="#333"><tspan x="198.67" y="138.13">Germany</tspan></text><text x="226.19" y="138.13" text-anchor="end" font-size="11.7" fill="#333">97%</text><circle cx="234.19" cy="134.62" r="2" fill="#4C5C78" opacity=".5"/><path stroke="#4C5C78" stroke-width="1.18" opacity=".5" d="M234.19 134.62l261.62-6.58"/><circle cx="495.81" cy="128.04" r="2" fill="#4C5C78" opacity=".5"/><text x="503.81" y="131.55" font-size="11.7" fill="#333">98.76%</text><text font-size="11.7" x="547.7" y="131.5" fill="#333"><tspan x="547.71" y="131.55">Germany</tspan></text></g><g class="slope"><circle cx="234.19" cy="388.94" r="2" fill="#2D8587" opacity=".5"/><path stroke="#2D8587" stroke-width="1.19" opacity=".5" d="M234.19 388.94l261.62-6.97"/><circle cx="495.81" cy="381.97" r="2" fill="#2D8587" opacity=".5"/></g><g class="slope"><circle cx="234.19" cy="400.16" r="2" fill="#2D8587" opacity=".5"/><path stroke="#2D8587" stroke-width="1.19" opacity=".5" d="M234.19 400.16l261.62-7.73"/><circle cx="495.81" cy="392.43" r="2" fill="#2D8587" opacity=".5"/></g><g class="slope"><text font-size="11.7" x="198.7" y="407.4" text-anchor="end" fill="#333"><tspan x="198.67" y="407.41">Mexico</tspan></text><text x="226.19" y="407.41" text-anchor="end" font-size="11.7" fill="#333">25%</text><circle cx="234.19" cy="403.9" r="2" fill="#E04E4B" opacity=".5"/><path stroke="#E04E4B" stroke-width="1.24" opacity=".5" d="M234.19 403.9l261.62-51.22"/><circle cx="495.81" cy="352.68" r="2" fill="#E04E4B" opacity=".5"/><text x="503.81" y="356.19" font-size="11.7" fill="#333">38.7%</text><text font-size="11.7" x="541.2" y="356.2" fill="#333"><tspan x="541.16" y="356.19">Mexico</tspan></text></g><g class="slope"><circle cx="234.19" cy="441.3" r="2" fill="#923E8B" opacity=".5"/><path stroke="#923E8B" stroke-width="1.31" opacity=".5" d="M234.19 441.3l261.62-109.11"/><circle cx="495.81" cy="332.19" r="2" fill="#923E8B" opacity=".5"/><text x="503.81" y="335.7" font-size="11.7" fill="#333">44.17%</text><text font-size="11.7" x="547.7" y="335.7" fill="#333"><tspan x="547.71" y="335.7">Nigeria</tspan></text></g><g class="slope"><text font-size="11.7" x="198.7" y="381.2" text-anchor="end" fill="#333"><tspan x="198.67" y="381.23">Bangladesh</tspan></text><text x="226.19" y="381.23" text-anchor="end" font-size="11.7" fill="#333">32%</text><circle cx="234.19" cy="377.72" r="2" fill="#2D8587" opacity=".5"/><path stroke="#2D8587" stroke-width="1.31" opacity=".5" d="M234.19 377.72l261.62 10.69"/><circle cx="495.81" cy="388.41" r="2" fill="#2D8587" opacity=".5"/><text x="503.81" y="391.92" font-size="11.7" fill="#333">29.14%</text><text font-size="11.7" x="547.7" y="391.9" fill="#333"><tspan x="547.71" y="391.92">Bangladesh</tspan></text></g><g class="slope"><text font-size="11.7" x="198.7" y="242.9" text-anchor="end" fill="#333"><tspan x="198.67" y="242.85">Russia</tspan></text><text x="226.19" y="242.85" text-anchor="end" font-size="11.7" fill="#333">69%</text><circle cx="234.19" cy="239.34" r="2" fill="#4C5C78" opacity=".5"/><path stroke="#4C5C78" stroke-width="1.32" opacity=".5" d="M234.19 239.34l261.62 6.05"/><circle cx="495.81" cy="245.39" r="2" fill="#4C5C78" opacity=".5"/><text x="503.81" y="248.9" font-size="11.7" fill="#333">67.38%</text><text font-size="11.7" x="547.7" y="248.9" fill="#333"><tspan x="547.71" y="248.9">Russia</tspan></text></g><g class="slope"><text font-size="11.7" x="198.7" y="456" text-anchor="end" fill="#333"><tspan x="198.67" y="456.03">Pakistan</tspan></text><text x="226.19" y="456.03" text-anchor="end" font-size="11.7" fill="#333">12%</text><circle cx="234.19" cy="452.52" r="2" fill="#2D8587" opacity=".5"/><path stroke="#2D8587" stroke-width="1.36" opacity=".5" d="M234.19 452.52l261.62 12.32"/><circle cx="495.81" cy="464.84" r="2" fill="#2D8587" opacity=".5"/><text x="503.81" y="468.35" font-size="11.7" fill="#333">8.71%</text><text font-size="11.7" x="541.2" y="468.3" fill="#333"><tspan x="541.16" y="468.35">Pakistan</tspan></text></g><g class="slope"><circle cx="234.19" cy="336.58" r="2" fill="#932834" opacity=".5"/><path stroke="#932834" stroke-width="1.42" opacity=".5" d="M234.19 336.58l261.62-93.96"/><circle cx="495.81" cy="242.62" r="2" fill="#932834" opacity=".5"/></g><g class="slope"><circle cx="234.19" cy="347.8" r="2" fill="#2D8587" opacity=".5"/><path stroke="#2D8587" stroke-width="1.51" opacity=".5" d="M234.19 347.8l261.62 15.16"/><circle cx="495.81" cy="362.96" r="2" fill="#2D8587" opacity=".5"/></g><g class="slope"><text font-size="11.7" x="198.7" y="160.6" text-anchor="end" fill="#333"><tspan x="198.67" y="160.57">United States</tspan></text><text x="226.19" y="160.57" text-anchor="end" font-size="11.7" fill="#333">91%</text><circle cx="234.19" cy="157.06" r="2" fill="#E04E4B" opacity=".5"/><path stroke="#E04E4B" stroke-width="1.67" opacity=".5" d="M234.19 157.06l261.62-9.66"/><circle cx="495.81" cy="147.4" r="2" fill="#E04E4B" opacity=".5"/><text x="503.81" y="150.91" font-size="11.7" fill="#333">93.58%</text><text font-size="11.7" x="547.7" y="150.9" fill="#333"><tspan x="547.71" y="150.91">United States</tspan></text></g><g class="slope"><text font-size="11.7" x="198.7" y="321.4" text-anchor="end" fill="#333"><tspan x="198.67" y="321.39">India</tspan></text><text x="226.19" y="321.39" text-anchor="end" font-size="11.7" fill="#333">48%</text><circle cx="234.19" cy="317.88" r="2" fill="#2D8587" opacity=".5"/><path stroke="#2D8587" stroke-width="3.59" opacity=".5" d="M234.19 317.88l261.62-17.78"/><circle cx="495.81" cy="300.1" r="2" fill="#2D8587" opacity=".5"/><text x="503.81" y="303.61" font-size="11.7" fill="#333">52.75%</text><text font-size="11.7" x="547.7" y="303.6" fill="#333"><tspan x="547.71" y="303.61">India</tspan></text></g><g class="slope"><text font-size="11.7" x="198.7" y="343.8" text-anchor="end" fill="#333"><tspan x="198.67" y="343.83">China</tspan></text><text x="226.19" y="343.83" text-anchor="end" font-size="11.7" fill="#333">42%</text><circle cx="234.19" cy="340.32" r="2" fill="#2D8587" opacity=".5"/><path stroke="#2D8587" stroke-width="4" opacity=".5" d="M234.19 340.32l261.62-138.11"/><circle cx="495.81" cy="202.21" r="2" fill="#2D8587" opacity=".5"/><text x="503.81" y="205.72" font-size="11.7" fill="#333">78.93%</text><text font-size="11.7" x="547.7" y="205.7" fill="#333"><tspan x="547.71" y="205.72">China</tspan></text></g></g></g><g class="ScatterColorLegend clickable" cursor="pointer"><g class="legendMark"><path fill="#923E8B" d="M735 125.2h9v9h-9z"/><text font-size="12.6" x="749" y="133.5"><tspan x="749" y="133.48">Africa</tspan></text></g><g class="legendMark"><path fill="#2D8587" d="M735 142.8h9v9h-9z"/><text font-size="12.6" x="749" y="151.1"><tspan x="749" y="151.08">Asia</tspan></text></g><g class="legendMark"><path fill="#4C5C78" d="M735 160.4h9v9h-9z"/><text font-size="12.6" x="749" y="168.7"><tspan x="749" y="168.68">Europe</tspan></text></g><g class="legendMark"><path fill="#E04E4B" d="M735 178h9v9h-9z"/><text font-size="12.6" x="749" y="186.3"><tspan x="749" y="186.28">North America</tspan></text></g><g class="legendMark"><path fill="#932834" d="M735 195.6h9v9h-9z"/><text font-size="12.6" x="749" y="203.9"><tspan x="749" y="203.88">South America</tspan></text></g></g></g><g class="SourcesFooter" fill="#777"><g fill="#777"><text font-size="12.6" x="15" y="582.5"><tspan x="15" y="582.48">Source: The World Bank</tspan></text></g><text font-size="12.6" x="570.4" y="582.5"><tspan x="570.4" y="582.48"><a target="_blank" href="https://ourworldindata.org/economic-growth" fill="#777">OurWorldInData.org/economic-growth</a> • <a class="cclogo" href="http://creativecommons.org/licenses/by/4.0/deed.en_US" target="_blank" fill="#777">CC BY</a></tspan></text></g></svg>