<svg xmlns="http://www.w3.org/2000/svg" version="1.1" style="background-color:#fff;-webkit-font-smoothing:antialiased" width="850" height="600" viewBox="0 0 850 600" font-family="Lato,'Helvetica Neue',Helvetica,Arial,sans-serif" font-size="18" text-rendering="optimizeLegibility"><g class="HeaderView"><g transform="matrix(.29 0 0 .29 774 15)"><svg width="210" height="120" viewBox="0 0 210 120" fill="none" xmlns="http://www.w3.org/2000/svg"><g clip-path="url(#clip0)"><path d="M0 0h210v107.89H0V0z" fill="#002147"/><path d="M40.98 32.25c0 2.36-.38 4.53-1.12 6.51a14.26 14.26 0 01-8.1 8.4c-1.9.78-4.02 1.17-6.34 1.17a16.6 16.6 0 01-6.33-1.17 14.31 14.31 0 01-8.08-8.4 18.29 18.29 0 01-1.12-6.51c0-2.36.38-4.53 1.12-6.5a14.32 14.32 0 018.07-8.44c1.92-.8 4.03-1.19 6.34-1.19 2.32 0 4.43.4 6.34 1.19 1.92.8 3.56 1.9 4.93 3.34a14.87 14.87 0 013.17 5.1 18.1 18.1 0 011.12 6.5zm-4.38 0c0-1.94-.26-3.68-.8-5.22a10.91 10.91 0 00-2.24-3.89 9.68 9.68 0 00-3.52-2.46 11.95 11.95 0 00-4.62-.86c-1.68 0-3.21.28-4.6.86a9.88 9.88 0 00-3.54 2.46 10.91 10.91 0 00-2.24 3.9c-.53 1.53-.8 3.27-.8 5.2 0 1.94.27 3.68.8 5.22a11.17 11.17 0 002.24 3.9 10.01 10.01 0 003.55 2.44c1.38.56 2.9.83 4.6.83 1.7 0 3.24-.27 4.61-.83a9.8 9.8 0 003.52-2.44 11.17 11.17 0 002.25-3.9c.53-1.54.8-3.28.8-5.21zm26.22-6.54V48H60.5c-.56 0-.9-.27-1.05-.81l-.31-2.4a12.45 12.45 0 01-3.26 2.6c-1.2.64-2.58.96-4.13.96-1.22 0-2.3-.2-3.24-.6a6.52 6.52 0 01-2.33-1.7 7.37 7.37 0 01-1.43-2.67c-.3-1.04-.46-2.2-.46-3.45V25.7h3.91v14.22c0 1.68.38 2.99 1.15 3.91.77.93 1.96 1.39 3.54 1.39 1.16 0 2.24-.27 3.23-.82a10.42 10.42 0 002.8-2.28V25.7h3.91zm8.61 4.47a9.94 9.94 0 012.6-3.56 5.64 5.64 0 013.76-1.3c.47 0 .92.05 1.34.15.44.1.83.27 1.17.49l-.3 2.92c-.09.37-.3.55-.66.55-.2 0-.5-.04-.9-.13a6.21 6.21 0 00-3.24.18c-.54.2-1.03.5-1.47.92-.42.4-.81.9-1.17 1.5-.33.58-.64 1.26-.92 2.02V48H67.7V25.71h2.25c.42 0 .72.08.88.25.16.16.27.44.33.83l.26 3.39zm61.16-13.7L122.75 48h-3.82l-7.99-24.05a21.95 21.95 0 01-.42-1.58 38.36 38.36 0 01-.44 1.58L102.05 48h-3.83L88.4 16.47h3.54c.38 0 .7.1.95.29.26.2.43.43.5.73l6.52 21.9c.1.4.2.83.28 1.28.1.46.2.94.29 1.46l.3-1.46c.12-.47.25-.9.38-1.27l7.41-21.91c.1-.25.26-.48.51-.69.27-.22.58-.33.95-.33h1.23c.38 0 .69.1.92.29.24.2.41.43.53.73l7.4 21.9a28.4 28.4 0 01.68 2.62 29.52 29.52 0 01.52-2.61l6.54-21.91c.07-.27.23-.5.48-.7.27-.21.58-.32.95-.32h3.32zm9.35 8.88c1.63 0 3.1.27 4.4.82a9.43 9.43 0 015.46 5.94c.5 1.4.74 2.98.74 4.73 0 1.76-.25 3.34-.74 4.75a9.43 9.43 0 01-5.46 5.92c-1.3.52-2.77.79-4.4.79-1.64 0-3.12-.27-4.44-.8a9.42 9.42 0 01-3.35-2.3c-.92-1-1.63-2.2-2.13-3.61-.49-1.41-.73-3-.73-4.75s.24-3.33.73-4.73c.5-1.43 1.2-2.64 2.13-3.63a9.4 9.4 0 013.35-2.31c1.32-.55 2.8-.82 4.44-.82zm0 19.89c2.2 0 3.84-.73 4.93-2.2 1.08-1.48 1.63-3.54 1.63-6.18 0-2.66-.55-4.72-1.63-6.2-1.09-1.49-2.73-2.23-4.93-2.23-1.12 0-2.09.2-2.93.57a5.7 5.7 0 00-2.06 1.65 7.5 7.5 0 00-1.24 2.67c-.26 1.04-.4 2.22-.4 3.54 0 2.64.55 4.7 1.64 6.18 1.1 1.47 2.76 2.2 4.99 2.2zm17.97-15.07a9.94 9.94 0 012.6-3.56 5.64 5.64 0 013.76-1.3c.47 0 .91.05 1.34.15.44.1.83.27 1.16.49l-.28 2.92c-.09.37-.31.55-.66.55-.2 0-.5-.04-.9-.13a6.2 6.2 0 00-3.24.18c-.54.2-1.03.5-1.47.92-.43.4-.82.9-1.17 1.5a13.1 13.1 0 00-.92 2.02V48h-3.94V25.71h2.24c.43 0 .72.08.88.25.17.16.28.44.33.83l.27 3.39zm15.04-14.59V48h-3.92V15.6h3.92zm19.55 15.43a6.22 6.22 0 00-2.38-2.05 6.7 6.7 0 00-2.86-.6c-2.07 0-3.66.75-4.77 2.23-1.12 1.48-1.68 3.6-1.68 6.33 0 1.46.13 2.7.38 3.74a7.29 7.29 0 001.1 2.56 4.35 4.35 0 001.78 1.45c.7.3 1.5.46 2.4.46 1.29 0 2.41-.3 3.36-.88a9.6 9.6 0 002.67-2.49V31.02zm3.91-15.43V48h-2.33c-.56 0-.9-.27-1.06-.81l-.35-2.71a12.13 12.13 0 01-3.25 2.77 8.28 8.28 0 01-4.23 1.06 7.31 7.31 0 01-6.14-2.9c-.73-.96-1.3-2.15-1.69-3.57a18.35 18.35 0 01.07-9.48 11.29 11.29 0 011.89-3.7 8.7 8.7 0 017.06-3.34 7.96 7.96 0 016.12 2.62V15.59h3.91zM46.61 70.71V93H42.7V70.71h3.91zm.84-7c0 .39-.08.75-.24 1.09a2.81 2.81 0 01-1.52 1.47 2.67 2.67 0 01-2.16 0 2.9 2.9 0 01-1.45-1.47 2.67 2.67 0 010-2.16c.15-.35.35-.65.6-.9.25-.27.53-.47.85-.62a2.67 2.67 0 012.16 0c.35.15.65.35.9.62.27.25.47.55.62.9.16.34.24.7.24 1.08zm7.97 10.24c.49-.54 1-1.04 1.54-1.48a9.85 9.85 0 013.66-1.84 8.96 8.96 0 015.43.35c.94.4 1.72.97 2.33 1.71a7.36 7.36 0 011.43 2.67c.32 1.04.49 2.19.49 3.45V93h-3.94V78.81c0-1.69-.4-3-1.17-3.92-.76-.93-1.93-1.4-3.5-1.4a6.6 6.6 0 00-3.25.83c-1 .56-1.92 1.31-2.77 2.27V93h-3.94V70.71h2.35c.56 0 .9.28 1.04.82l.3 2.42zm57.7 3.3c0 2.36-.37 4.5-1.11 6.44a14.3 14.3 0 01-3.17 4.98 14.1 14.1 0 01-4.93 3.2c-1.9.76-4.02 1.13-6.33 1.13H85.8V61.47h11.77c2.31 0 4.42.39 6.33 1.15a13.8 13.8 0 018.1 8.18 17.75 17.75 0 011.12 6.45zm-4.37 0c0-1.94-.26-3.67-.8-5.2a10.94 10.94 0 00-2.23-3.87 9.57 9.57 0 00-3.53-2.42 12.23 12.23 0 00-4.61-.83h-7.5v24.62h7.5c1.7 0 3.24-.28 4.61-.84a9.7 9.7 0 003.53-2.4 10.94 10.94 0 002.24-3.87c.53-1.53.8-3.26.8-5.2zm19.8 5.72c-1.8.06-3.34.2-4.62.44-1.26.22-2.3.51-3.1.88-.8.36-1.37.8-1.74 1.3-.35.5-.53 1.05-.53 1.67 0 .58.1 1.1.3 1.52a3 3 0 00.76 1.05c.34.27.73.46 1.17.6.45.11.94.17 1.45.17a7.28 7.28 0 003.5-.81 11.95 11.95 0 002.82-2.2v-4.62zm-12.65-9.11a12.73 12.73 0 013.98-2.66c1.43-.59 3-.88 4.73-.88 1.25 0 2.36.2 3.33.61a6.81 6.81 0 013.94 4.38c.33 1.04.5 2.19.5 3.43V93h-1.74a1.8 1.8 0 01-.88-.18c-.2-.13-.36-.38-.48-.74l-.44-2.12c-.59.55-1.16 1.03-1.72 1.46a9.48 9.48 0 01-3.74 1.7c-.69.15-1.46.23-2.3.23-.87 0-1.69-.12-2.45-.35a5.34 5.34 0 01-3.34-2.93 6.64 6.64 0 01-.49-2.64c0-.88.25-1.72.73-2.53a6.33 6.33 0 012.35-2.17c1.09-.63 2.5-1.15 4.25-1.54 1.75-.41 3.89-.65 6.42-.7v-1.75c0-1.73-.37-3.03-1.12-3.91-.75-.9-1.84-1.34-3.28-1.34-.97 0-1.78.12-2.44.37-.64.23-1.2.5-1.7.81l-1.23.82c-.33.23-.67.35-1 .35-.27 0-.5-.07-.69-.2a2.1 2.1 0 01-.48-.53l-.7-1.25zm27.67 19.5c-1.76 0-3.12-.5-4.07-1.48-.94-.98-1.41-2.4-1.41-4.25V74h-2.68a.9.9 0 01-.6-.2c-.16-.14-.24-.36-.24-.66v-1.56l3.65-.46.9-6.89a.9.9 0 01.29-.52.88.88 0 01.62-.22H142v7.67h6.44V74H142v13.38c0 .94.22 1.63.68 2.09.45.45 1.04.68 1.76.68a3.21 3.21 0 001.85-.53l.55-.35c.16-.12.3-.18.41-.18.2 0 .4.13.55.38l1.15 1.87a7.45 7.45 0 01-2.44 1.5c-.96.35-1.94.52-2.95.52zm19.68-10.4c-1.8.07-3.34.21-4.62.45-1.26.22-2.3.51-3.1.88-.8.36-1.37.8-1.74 1.3-.35.5-.53 1.05-.53 1.67 0 .58.1 1.1.3 1.52.18.42.44.77.76 1.05.34.27.73.46 1.17.6.45.11.94.17 1.45.17a7.3 7.3 0 003.5-.81 12.04 12.04 0 002.82-2.2v-4.62zm-12.65-9.1a12.72 12.72 0 013.99-2.66c1.42-.59 3-.88 4.72-.88 1.25 0 2.36.2 3.33.61a6.81 6.81 0 013.94 4.38c.33 1.04.5 2.19.5 3.43V93h-1.74a1.8 1.8 0 01-.88-.18c-.2-.13-.36-.38-.48-.74l-.44-2.12c-.59.55-1.16 1.03-1.72 1.46a9.48 9.48 0 01-3.74 1.7c-.69.15-1.46.23-2.3.23-.87 0-1.69-.12-2.45-.35a5.33 5.33 0 01-3.34-2.93 6.62 6.62 0 01-.49-2.64c0-.88.25-1.72.73-2.53a6.33 6.33 0 012.35-2.17c1.09-.63 2.5-1.15 4.25-1.54a31.2 31.2 0 016.42-.7v-1.75c0-1.73-.37-3.03-1.12-3.91-.75-.9-1.84-1.34-3.28-1.34-.97 0-1.78.12-2.44.37-.64.23-1.2.5-1.7.81-.46.3-.87.57-1.22.82-.34.23-.68.35-1.02.35-.26 0-.49-.07-.68-.2a1.88 1.88 0 01-.48-.53l-.7-1.25z" fill="#fff"/><path fill="#D42B21" d="M0 106.79h210V120H0z"/></g><defs><clipPath id="clip0"><path fill="#fff" d="M0 0h210v120H0z"/></clipPath></defs></svg></g><a href="https://ourworldindata.org/grapher/actual-and-imputed-rents-as-share-of-gdp-vs-gdp-per-capita?tab=chart&amp;stackMode=absolute&amp;country=&amp;region=World" target="_blank" font-family="&quot;Playfair Display&quot;,Georgia,&quot;Times New Roman&quot;,serif"><text font-size="25.2" x="15" y="35.2" fill="#555"><tspan x="15" y="35.16">Housing rent as share of GDP vs. GDP per capita, 1959 to 2014</tspan></text></a><text font-size="14.4" x="15" y="55.7" fill="#666"><tspan x="15" y="55.72">This includes both actual rents and imputed rent, which is an estimate of the value of housing services received by</tspan><tspan x="15" y="73">home owners in living in their own property. GDP per capita is adjusted to account for inflation and price differences</tspan><tspan x="15" y="90.28">across countries.</tspan></text></g><g class="ScatterPlot"><g class="DualAxisView"><g class="HorizontalAxis"><text font-size="12.6" x="324.5" y="526.6"><tspan x="324.46" y="526.58">GDP per capita</tspan></text><text x="106.9" y="506.5" fill="#666" text-anchor="middle" font-size="16.2">10,000</text><text x="229.6" y="506.5" fill="#666" text-anchor="middle" font-size="16.2">20,000</text><text x="352.3" y="506.5" fill="#666" text-anchor="middle" font-size="16.2">30,000</text><text x="475" y="506.5" fill="#666" text-anchor="middle" font-size="16.2">40,000</text><text x="597.7" y="506.5" fill="#666" text-anchor="middle" font-size="16.2">50,000</text><text x="720.4" y="506.5" fill="#666" text-anchor="middle" font-size="16.2">60,000</text></g><g class="VerticalAxis"><text font-size="12.6" x="-438" y="25.1" transform="rotate(-90)"><tspan x="-437.95" y="25.08">Actual and imputed rents as share of GDP</tspan></text><text x="69.35" y="455.5" fill="#666" dominant-baseline="middle" text-anchor="end" font-size="16.2">0.04</text><text x="69.35" y="391.6" fill="#666" dominant-baseline="middle" text-anchor="end" font-size="16.2">0.06</text><text x="69.35" y="327.6" fill="#666" dominant-baseline="middle" text-anchor="end" font-size="16.2">0.08</text><text x="69.35" y="263.6" fill="#666" dominant-baseline="middle" text-anchor="end" font-size="16.2">0.1</text><text x="69.35" y="199.7" fill="#666" dominant-baseline="middle" text-anchor="end" font-size="16.2">0.12</text><text x="69.35" y="135.7" fill="#666" dominant-baseline="middle" text-anchor="end" font-size="16.2">0.14</text></g><g class="AxisGridLines horizontalLines" stroke="#d3d3d3" stroke-dasharray="3,2"><path d="M74.35 455.5h646.01M74.35 391.6h646.01M74.35 327.6h646.01M74.35 263.6h646.01M74.35 199.7h646.01M74.35 135.7h646.01"/></g><g class="AxisGridLines verticalLines" stroke="#d3d3d3" stroke-dasharray="3,2"><path d="M106.9 485.3V109.8M229.6 485.3V109.8M352.3 485.3V109.8M475 485.3V109.8M597.7 485.3V109.8M720.4 485.3V109.8"/></g></g><g class="PointsWithLabels clickable" clip-path="url(#a)" font-family="Arial, sans-serif"><path fill="rgba(255,255,255,0)" d="M74.35 109.8h646.01v375.5H74.35z"/><defs><clipPath id="a"><path d="M64.35 99.8h666.01v395.5H64.35z"/></clipPath></defs><g class="key-Australia_0"><circle cx="158" cy="438" r="1.1" fill="#A8633C" opacity=".7"/><path stroke-width=".52" opacity=".7" stroke="#A8633C" fill="none" stroke-linecap="butt" d="M158 438l-2-13 1-16 7-4 11 1 5 1-1-7h9l5-6 12 1 12-2 2-11 2-8 8-5 9 8-10-9-2-13 7-12-1-18 10-7 6-4 5-6h10l-11-16 12 9 6-1 5-4 1-6 18-2 18-4 8-6-8-18-3-9 9 4 10 4 15 6 15 5 13-1 14-1 13-1h17l2 1 12 1 9-2h16l10-1h9l14 1 12-2 3-10-8-12 19 7 7-3-7-10 1-2-2-9"/><path cx="512" cy="226" r="1.72" fill="#A8633C" opacity=".7" d="M510.7 228.05l.93-3.73 2.42 2.99z"/></g><g class="key-France_0"><circle cx="103" cy="485" r="1.1" fill="#4C5C78" opacity=".7"/><path stroke-width=".52" opacity=".7" stroke="#4C5C78" fill="none" stroke-linecap="butt" d="M103 485l9-9 5-10 6-9 7-9 8-3 6-12 7-11 7-15 6-12 12-7 9-4 11 1 10 1 14 6 4 10-1-5h10l9-3 13 1 10-1 2-6-10-8-1 5-4-6-5-8-3-3 11-3 6-8 14-5 11-4 8-4 2-9 3-10-3-14 7-4 6-4 4-2 18-1 22 1h13l18 6 13 2 4-5-22-6 9-2 5-8 13-2 23-1 4-2-7-18h9l11 3 3-5 17-5 1-1"/><path cx="467" cy="257" r="1.72" fill="#4C5C78" opacity=".7" d="M464.57 257l3.65-1.22-1.22 3.65z"/></g><g class="key-Denmark_0"><circle cx="183" cy="441" r="1.1" fill="#4C5C78" opacity=".7"/><path stroke-width=".52" opacity=".7" stroke="#4C5C78" fill="none" stroke-linecap="butt" d="M183 441l9-13 11-11 16-6 2-8 4-15 10 1 13-4-12-6-3-14 17-10 5-12 9-3 8-1-5-5-13-1 3 6h3l7 3 7 1 23 2 3-7-1-7 5-4 6-7 3-4 10-4-4-13 19 8 14 3 12 6 25 6 19 1 9 6 20 6-3-3 7-6-20-7 18 1-3 4 29 4 18-2h16l-20-24 20-4 9-8 13-3 10-3h4"/><path cx="535" cy="284" r="1.72" fill="#4C5C78" opacity=".7" d="M533.28 282.28l3.44 1.72-3.44 1.72z"/></g><g class="key-Norway_0"><circle cx="192" cy="323" r="1.1" fill="#4C5C78" opacity=".7"/><path stroke-width=".52" opacity=".7" stroke="#4C5C78" fill="none" stroke-linecap="butt" d="M192 323l10 4 6 1 12 3 6 2 3 1 9 3 6-3 7 2 15 3 22 18 3 4-5-11 3-3 16 6 8 8-8-8h-2l-5-14 5-9 6-9 7 5 2-3 10 4 13 10 17 9 32 14 34 10 1-2 27 8 68 19-1-8-13-12 4-7 49 9 44 11 56 9 33 2-18-16 23 3"/><path cx="697" cy="386" r="1.72" fill="#4C5C78" opacity=".7" d="M695.52 384.07l3.19 2.15-3.64 1.26z"/></g><g class="key-United-States_0"><circle cx="273" cy="312" r="1.1" fill="#E04E4B" opacity=".7"/><path stroke-width=".52" opacity=".7" stroke="#E04E4B" fill="none" stroke-linecap="butt" d="M273 312l7-3 14 2 15 5-9-2-4-1 15 4h12l16 1h7l-10-11 7-1-11-13 15 2 26 5 13-8 9-10 9-3h13l11 3 2-5-5-6 12 1h25l8-5 14 1 19 2 19-3 20 1h15v-13l5-3 10 2 18 4 14-2 10-1h4l-15-7-20-16 9 9 4 1 10 5 7 3h12"/><path cx="625" cy="250" r="1.72" fill="#E04E4B" opacity=".7" d="M623.28 248.28l3.44 1.72-3.44 1.72z"/></g><g class="key-Finland_0"><circle cx="199" cy="348" r="1.1" fill="#4C5C78" opacity=".7"/><path stroke-width=".52" opacity=".7" stroke="#4C5C78" fill="none" stroke-linecap="butt" d="M199 348l-1-1-3-6 4-1 18 12 9 7-2-10 2-5 2 2 5 4 2-1 10 3 12 10 22 8 18 3-2-8-29-44-12-32-4-27 17 2 25 12 4-5 31 2 31 11 17-2 19 6 4 1-1-7-6-6 21 4 4 2 15 3 36 12 20-3-27-38h3l19-3 4-11-3-14-4-13"/><path cx="479" cy="215" r="1.72" fill="#4C5C78" opacity=".7" d="M477.86 217.15l.63-3.8 2.66 2.79z"/></g><g class="key-Canada_0"><circle cx="298" cy="307" r="1.1" fill="#E04E4B" opacity=".7"/><path stroke-width=".52" opacity=".7" stroke="#E04E4B" fill="none" stroke-linecap="butt" d="M298 307l-15-21 8-9 17 4 14 3 2-9 15 1 17-2 9-10-6-15-14-21-1-12 6-2 17 2 14 3 5 1 15 8h6l20 13 23 18-5-1-1-2 10 1 14 6 15 6 6-1 7-3 4-4-40-33 17 5 13 7 3-6 6-2h4"/><path cx="503" cy="232" r="1.72" fill="#E04E4B" opacity=".7" d="M501.28 230.28l3.44 1.72-3.44 1.72z"/></g><g class="key-Costa-Rica_0"><circle cx="74" cy="386" r="1.1" fill="#E04E4B" opacity=".7"/><path stroke-width=".52" opacity=".7" stroke="#E04E4B" fill="none" stroke-linecap="butt" d="M74 386l6 6 6-6 4-8 2-5-3-27 5-20 8-12 7-19-5 6-2 3 1 5 4 5 2 2 2-3 7 4 8 11 1 6 5-3 7-3 4-6 6-7h4l5 11"/><path cx="158" cy="326" r="1.72" fill="#E04E4B" opacity=".7" d="M158.85 323.72l-.14 3.85-2.99-2.42z"/></g><g class="key-Mexico_0"><circle cx="114" cy="180" r="1.1" fill="#E04E4B" opacity=".7"/><path stroke-width=".52" opacity=".7" stroke="#E04E4B" fill="none" stroke-linecap="butt" d="M114 180l3-6-13 15 4-16 7-2 4-14h5l8 8-1-10v-13l3-1 8 50 5 8 11 11 5 5 2-14-12 22 10 11 10 11 3 10-1-4 3 8"/><path cx="178" cy="259" r="1.72" fill="#E04E4B" opacity=".7" d="M179 256.79l-.4 3.82-2.81-2.62z"/></g><g class="key-Sweden_0"><circle cx="307" cy="185" r="1.1" fill="#4C5C78" opacity=".7"/><path stroke-width=".52" opacity=".7" stroke="#4C5C78" fill="none" stroke-linecap="butt" d="M307 185l19 12 22 17 6-5 17 4 22 19 26 15 24 15-5 10-2-2 3 3 15 7-18-2 28 14 39 6 3-1-28-19 20 15 18-2 8 3 2-1h5"/><path cx="531" cy="293" r="1.72" fill="#4C5C78" opacity=".7" d="M529.28 291.28l3.44 1.72-3.44 1.72z"/></g><g class="key-Lithuania_0"><circle cx="84" cy="338" r="1.1" fill="#4C5C78" opacity=".7"/><path stroke-width=".52" opacity=".7" stroke="#4C5C78" fill="none" stroke-linecap="butt" d="M84 338l8 15 12 22 10 12 4-10 9 9 11 20 12 6 14 12 8 3 10 2 17-4 30 2 14 2-28-10 19 15 26 8h28l24-3 18-4"/><path cx="330" cy="435" r="1.72" fill="#4C5C78" opacity=".7" d="M327.95 433.7l3.73.93-2.99 2.42z"/></g><g class="key-Luxembourg_0"><circle cx="638" cy="336" r="1.1" fill="#4C5C78" opacity=".7"/><path stroke-width=".52" opacity=".7" stroke="#4C5C78" fill="none" stroke-linecap="butt" d="M638 336l14 7 18 3 46-6"/><path cx="716" cy="340" r="1.72" fill="#4C5C78" opacity=".7" d="M714.07 338.52l3.64 1.26-3.2 2.15z"/></g><g class="key-Latvia_0"><circle cx="84" cy="412" r="1.1" fill="#4C5C78" opacity=".7"/><path stroke-width=".52" opacity=".7" stroke="#4C5C78" fill="none" stroke-linecap="butt" d="M84 412h1l8 1 10-5 8-9 4 9 8 6 14-43 7-26 11 6 14-3 25-48 34-5 7-10-33 10 3 22 22-9 17-12 17-7 13-8"/><path cx="274" cy="281" r="1.72" fill="#4C5C78" opacity=".7" d="M271.63 280.44l3.83-.34-2.02 3.27z"/></g><g class="key-Netherlands_0"><circle cx="348" cy="358" r="1.1" fill="#4C5C78" opacity=".7"/><path stroke-width=".52" opacity=".7" stroke="#4C5C78" fill="none" stroke-linecap="butt" d="M348 358l15-5 29 2 32 2 26 1 29 5 6 5 2-1-23-7 9-7 7-3 27 7 35 5 19 2-24-17-1-7 13-3 2-8 11-10 1-9"/><path cx="563" cy="310" r="1.72" fill="#4C5C78" opacity=".7" d="M561.1 311.52l2.09-3.23 1.33 3.6z"/></g><g class="key-Poland_0"><circle cx="117" cy="438" r="1.1" fill="#4C5C78" opacity=".7"/><path stroke-width=".52" opacity=".7" stroke="#4C5C78" fill="none" stroke-linecap="butt" d="M117 438l6-7 8-5 8-4 8-6 4 3 3-9 6-5-1 3 8 3 3 5 11 6 21 10 8 12 15-4 17 4 17 10 15 9 10-5h8"/><path cx="292" cy="458" r="1.72" fill="#4C5C78" opacity=".7" d="M290.28 456.28l3.44 1.72-3.44 1.72z"/></g><g class="key-Portugal_0"><circle cx="200" cy="386" r="1.1" fill="#4C5C78" opacity=".7"/><path stroke-width=".52" opacity=".7" stroke="#4C5C78" fill="none" stroke-linecap="butt" d="M200 386l6-1 16 6 14 6 15 3 8 2 5-4 3-9-2-12 4-4 11-6 13-2 16-4 3-11 3-20 7-7-8-9 2-24 7-7 10-10"/><path cx="333" cy="273" r="1.72" fill="#4C5C78" opacity=".7" d="M330.57 273l3.65-1.22-1.22 3.65z"/></g><g class="key-Slovakia_0"><circle cx="153" cy="126" r="1.1" fill="#4C5C78" opacity=".7"/><path stroke-width=".52" opacity=".7" stroke="#4C5C78" fill="none" stroke-linecap="butt" d="M153 126l4 37 6 35-1 22-5 14 7 11 8 10 8-13 7 6 8-23 12 46 21 7 35-3 22-14-7-12 13 12 4 9 15 14 14 2 11 1"/><path cx="335" cy="287" r="1.72" fill="#4C5C78" opacity=".7" d="M333.44 285.13l3.27 2.03-3.58 1.4z"/></g><g class="key-Slovenia_0"><circle cx="224" cy="349" r="1.1" fill="#4C5C78" opacity=".7"/><path stroke-width=".52" opacity=".7" stroke="#4C5C78" fill="none" stroke-linecap="butt" d="M224 349l11-5 7 8 4 3 9 7 7-5h7l11 5 2 10 18 2 6-1 15 8 22 12 15 1-27-33-3 12 7 8h1l5-12 17 10"/><path cx="358" cy="379" r="1.72" fill="#4C5C78" opacity=".7" d="M357.39 376.65l2.1 3.22-3.84-.26z"/></g><g class="key-Austria_0"><circle cx="362" cy="378" r="1.1" fill="#4C5C78" opacity=".7"/><path stroke-width=".52" opacity=".7" stroke="#4C5C78" fill="none" stroke-linecap="butt" d="M362 378l8-5 16 3 22 1 14-1 15 3h-8l7-4v-1l12-4v-9l23 4 20 4h13l-7-15 8-1 23 1 25-3 13-8 4-4"/><path cx="570" cy="339" r="1.72" fill="#4C5C78" opacity=".7" d="M567.57 339l3.65-1.22-1.22 3.65z"/></g><g class="key-Belgium_0"><circle cx="344" cy="319" r="1.1" fill="#4C5C78" opacity=".7"/><path stroke-width=".52" opacity=".7" stroke="#4C5C78" fill="none" stroke-linecap="butt" d="M344 319l1-5 21 5 12 4 15 4 26 9h10-12l6 7 1-4 11-1 20 5h10l-4-14h22l14-7 15-8 5-7h3"/><path cx="520" cy="307" r="1.72" fill="#4C5C78" opacity=".7" d="M518.28 305.28l3.44 1.72-3.44 1.72z"/></g><g class="key-Czech-Republic_0"><circle cx="227" cy="410" r="1.1" fill="#4C5C78" opacity=".7"/><path stroke-width=".52" opacity=".7" stroke="#4C5C78" fill="none" stroke-linecap="butt" d="M227 410l13-2-5-19v-15l-1-11 5-7 14 2 3-9 7-4 15 5 5 3 17 2 29 4-2-12-1-27-3-6 16 2 5 1 14 5 17 6"/><path cx="375" cy="328" r="1.72" fill="#4C5C78" opacity=".7" d="M373.95 325.8l2.67 2.77-3.81.48z"/></g><g class="key-Germany_0"><circle cx="351" cy="312" r="1.1" fill="#4C5C78" opacity=".7"/><path stroke-width=".52" opacity=".7" stroke="#4C5C78" fill="none" stroke-linecap="butt" d="M351 312l4-9 13-7 15 1 15-2 5-1 6 2-1-4 1-3 9 1 5-2 20 7 25 8 11 1-20-16 25 9 25 9 9-1h12l18 4"/><path cx="548" cy="309" r="1.72" fill="#4C5C78" opacity=".7" d="M546.7 306.95l2.98 2.42-3.73.94z"/></g><g class="key-Spain_0"><circle cx="241" cy="388" r="1.1" fill="#4C5C78" opacity=".7"/><path stroke-width=".52" opacity=".7" stroke="#4C5C78" fill="none" stroke-linecap="butt" d="M241 388l9-7 18-6 21-1 12-1 14-1 11-1 11-11-2-9 11-7 9-5 28-7 29-10 3-14-12-24-11-9-5-12-2-16 4-8 10 6"/><path cx="399" cy="245" r="1.72" fill="#4C5C78" opacity=".7" d="M398.41 242.64l2.06 3.24-3.83-.29z"/></g><g class="key-Estonia_0"><circle cx="107" cy="282" r="1.1" fill="#4C5C78" opacity=".7"/><path stroke-width=".52" opacity=".7" stroke="#4C5C78" fill="none" stroke-linecap="butt" d="M107 282l-10-3 9-30 12 18 7 3 12 18 8 8 12 21 12 14 16 6 18 22 27 5 33 6 4-3-26-22 10-9 34 19 26 2 11 6 12 3"/><path cx="334" cy="366" r="1.72" fill="#4C5C78" opacity=".7" d="M332.75 363.91l2.92 2.5-3.76.84z"/></g><g class="key-United-Kingdom_0"><circle cx="321" cy="109" r="1.1" fill="#4C5C78" opacity=".7"/><path stroke-width=".52" opacity=".7" stroke="#4C5C78" fill="none" stroke-linecap="butt" d="M321 109l17 8 25-3 17 3 14-3 25 9h10l5 5 2 10 17 7 3 4 14 4 7 3-12-8-23-20-11 4v5l14-6 18-2 14 1"/><path cx="477" cy="130" r="1.72" fill="#4C5C78" opacity=".7" d="M475.4 128.16l3.32 1.96-3.56 1.47z"/></g><g class="key-Greece_0"><circle cx="227" cy="248" r="1.1" fill="#4C5C78" opacity=".7"/><path stroke-width=".52" opacity=".7" stroke="#4C5C78" fill="none" stroke-linecap="butt" d="M227 248l7-6 18 6 13 5 5 36 6 2 16 3 19 2 5 7 19 4-14-10 28 6 15 1 13-8-8-25-27-38-35-38-9-25 5 4v26"/><path cx="303" cy="200" r="1.72" fill="#4C5C78" opacity=".7" d="M304.72 198.28l-1.72 3.44-1.72-3.44z"/></g><g class="key-Hungary_0"><circle cx="154" cy="384" r="1.1" fill="#4C5C78" opacity=".7"/><path stroke-width=".52" opacity=".7" stroke="#4C5C78" fill="none" stroke-linecap="butt" d="M154 384l-1-14 6 4 6 12 5-10 8-3 21 5 12 6v-3l5 4 2-1 10-6 9 1 11 3 2-22 8-4 10 7 3-2 15 8 14 10"/><path cx="300" cy="379" r="1.72" fill="#4C5C78" opacity=".7" d="M299.6 376.6l1.8 3.4-3.8-.6z"/></g><g class="key-Ireland_0"><circle cx="273" cy="401" r="1.1" fill="#4C5C78" opacity=".7"/><path stroke-width=".52" opacity=".7" stroke="#4C5C78" fill="none" stroke-linecap="butt" d="M273 401l22-7 36-9 39-9 26-1 32-3 17-7 25-4 2-7 13 8 21 8h39l49-17-49-34-35 14 8 5 18-3 11 5 8-2 27 6"/><path cx="582" cy="344" r="1.72" fill="#4C5C78" opacity=".7" d="M580.7 341.95l2.98 2.42-3.73.94z"/></g><g class="key-Iceland_0"><circle cx="361" cy="348" r="1.1" fill="#4C5C78" opacity=".7"/><path stroke-width=".52" opacity=".7" stroke="#4C5C78" fill="none" stroke-linecap="butt" d="M361 348l12 12 33 9 36 4 17-7v-22l6 11-9-14-14-27 42-8 23-3 8-1 14-12-5-19-29-23-38-1 4 2h32l17-1"/><path cx="510" cy="248" r="1.72" fill="#4C5C78" opacity=".7" d="M508.18 246.38l3.54 1.52-3.34 1.92z"/></g><g class="key-Israel_0"><circle cx="317" cy="275" r="1.1" fill="#2D8587" opacity=".7"/><path stroke-width=".52" opacity=".7" stroke="#2D8587" fill="none" stroke-linecap="butt" d="M317 275l15 23 11 3 9-11 12-6 27 14-1-14-3-23-24 25-8 5-8 4 7 1h7l-5-15 2-20 6-10 5-2 9-5 9 1 5-7"/><path cx="392" cy="238" r="1.72" fill="#2D8587" opacity=".7" d="M389.6 238.4l3.4-1.8-.6 3.8z"/></g><g class="key-Italy_0"><circle cx="335" cy="366" r="1.1" fill="#4C5C78" opacity=".7"/><path stroke-width=".52" opacity=".7" stroke="#4C5C78" fill="none" stroke-linecap="butt" d="M335 366l5 1 16-2 22-4 9-9 11-2 9 1-16-11-6-7-1-10-1-4 16-2 22-5 10-8-12-23 1-2 7-2v-13l-2-9h-2"/><path cx="423" cy="255" r="1.72" fill="#4C5C78" opacity=".7" d="M424.72 256.72l-3.44-1.72 3.44-1.72z"/></g><g class="key-Croatia_0"><circle cx="193" cy="344" r="1.1" fill="#4C5C78" opacity=".7"/><path stroke-width=".52" opacity=".7" stroke="#4C5C78" fill="none" stroke-linecap="butt" d="M193 344l14 14 25 6 14 7-10-23-9-1 10-4 7 1 3-2 3 2"/><path cx="250" cy="344" r="1.72" fill="#4C5C78" opacity=".7" d="M249.52 341.61l1.91 3.34-3.82-.47z"/></g><g class="backgroundLabels" fill="#333" font-size="11" font-weight="400"><text x="468.02" y="221.12" fill="#fff" stroke="#fff" stroke-linecap="round" stroke-linejoin="round" stroke-width=".25em">Australia</text><text x="468.02" y="221.12" fill="#A8633C">Australia</text><text x="470.54" y="253.46" fill="#fff" stroke="#fff" stroke-linecap="round" stroke-linejoin="round" stroke-width=".25em">France</text><text x="470.54" y="253.46" fill="#4C5C78">France</text><text x="540" y="284" fill="#fff" stroke="#fff" stroke-linecap="round" stroke-linejoin="round" stroke-width=".25em">Denmark</text><text x="540" y="284" fill="#4C5C78">Denmark</text><text x="664.67" y="392.15" fill="#fff" stroke="#fff" stroke-linecap="round" stroke-linejoin="round" stroke-width=".25em">Norway</text><text x="664.67" y="392.15" fill="#4C5C78">Norway</text><text x="630" y="250" fill="#fff" stroke="#fff" stroke-linecap="round" stroke-linejoin="round" stroke-width=".25em">United States</text><text x="630" y="250" fill="#E04E4B">United States</text><text x="160.07" y="336.05" fill="#fff" stroke="#fff" stroke-linecap="round" stroke-linejoin="round" stroke-width=".25em">Costa Rica</text><text x="160.07" y="336.05" fill="#E04E4B">Costa Rica</text><text x="179.76" y="269.18" fill="#fff" stroke="#fff" stroke-linecap="round" stroke-linejoin="round" stroke-width=".25em">Mexico</text><text x="179.76" y="269.18" fill="#E04E4B">Mexico</text><text x="334.88" y="433.92" fill="#fff" stroke="#fff" stroke-linecap="round" stroke-linejoin="round" stroke-width=".25em">Lithuania</text><text x="334.88" y="433.92" fill="#4C5C78">Lithuania</text><text x="659.58" y="339.35" fill="#fff" stroke="#fff" stroke-linecap="round" stroke-linejoin="round" stroke-width=".25em">Luxembourg</text><text x="659.58" y="339.35" fill="#4C5C78">Luxembourg</text><text x="278.26" y="278.38" fill="#fff" stroke="#fff" stroke-linecap="round" stroke-linejoin="round" stroke-width=".25em">Latvia</text><text x="278.26" y="278.38" fill="#4C5C78">Latvia</text><text x="563.55" y="305.03" fill="#fff" stroke="#fff" stroke-linecap="round" stroke-linejoin="round" stroke-width=".25em">Netherlands</text><text x="563.55" y="305.03" fill="#4C5C78">Netherlands</text><text x="297" y="458" fill="#fff" stroke="#fff" stroke-linecap="round" stroke-linejoin="round" stroke-width=".25em">Poland</text><text x="297" y="458" fill="#4C5C78">Poland</text><text x="336.54" y="269.46" fill="#fff" stroke="#fff" stroke-linecap="round" stroke-linejoin="round" stroke-width=".25em">Portugal</text><text x="336.54" y="269.46" fill="#4C5C78">Portugal</text><text x="339.98" y="292.95" fill="#fff" stroke="#fff" stroke-linecap="round" stroke-linejoin="round" stroke-width=".25em">Slovakia</text><text x="339.98" y="292.95" fill="#4C5C78">Slovakia</text><text x="362.31" y="387.04" fill="#fff" stroke="#fff" stroke-linecap="round" stroke-linejoin="round" stroke-width=".25em">Slovenia</text><text x="362.31" y="387.04" fill="#4C5C78">Slovenia</text><text x="573.54" y="335.46" fill="#fff" stroke="#fff" stroke-linecap="round" stroke-linejoin="round" stroke-width=".25em">Austria</text><text x="573.54" y="335.46" fill="#4C5C78">Austria</text><text x="379.71" y="335.16" fill="#fff" stroke="#fff" stroke-linecap="round" stroke-linejoin="round" stroke-width=".25em">Czech Republic</text><text x="379.71" y="335.16" fill="#4C5C78">Czech Republic</text><text x="403.29" y="253.07" fill="#fff" stroke="#fff" stroke-linecap="round" stroke-linejoin="round" stroke-width=".25em">Spain</text><text x="403.29" y="253.07" fill="#4C5C78">Spain</text><text x="481.99" y="135.86" fill="#fff" stroke="#fff" stroke-linecap="round" stroke-linejoin="round" stroke-width=".25em">United Kingdom</text><text x="481.99" y="135.86" fill="#4C5C78">United Kingdom</text><text x="303" y="210.5" fill="#fff" stroke="#fff" stroke-linecap="round" stroke-linejoin="round" stroke-width=".25em">Greece</text><text x="303" y="210.5" fill="#4C5C78">Greece</text><text x="304.07" y="387.41" fill="#fff" stroke="#fff" stroke-linecap="round" stroke-linejoin="round" stroke-width=".25em">Hungary</text><text x="304.07" y="387.41" fill="#4C5C78">Hungary</text><text x="514.99" y="247.71" fill="#fff" stroke="#fff" stroke-linecap="round" stroke-linejoin="round" stroke-width=".25em">Iceland</text><text x="514.99" y="247.71" fill="#4C5C78">Iceland</text><text x="394.91" y="233.93" fill="#fff" stroke="#fff" stroke-linecap="round" stroke-linejoin="round" stroke-width=".25em">Israel</text><text x="394.91" y="233.93" fill="#2D8587">Israel</text><text x="254.16" y="352.27" fill="#fff" stroke="#fff" stroke-linecap="round" stroke-linejoin="round" stroke-width=".25em">Croatia</text><text x="254.16" y="352.27" fill="#4C5C78">Croatia</text></g></g><g class="ScatterColorLegend clickable" cursor="pointer"><g class="legendMark"><path fill="#2D8587" d="M740.36 111.6h9v9h-9z"/><text font-size="12.6" x="754.4" y="119.9"><tspan x="754.36" y="119.88">Asia</tspan></text></g><g class="legendMark"><path fill="#4C5C78" d="M740.36 129.2h9v9h-9z"/><text font-size="12.6" x="754.4" y="137.5"><tspan x="754.36" y="137.48">Europe</tspan></text></g><g class="legendMark"><path fill="#E04E4B" d="M740.36 146.8h9v9h-9z"/><text font-size="12.6" x="754.4" y="155.1"><tspan x="754.36" y="155.08">North America</tspan></text></g><g class="legendMark"><path fill="#A8633C" d="M740.36 164.4h9v9h-9z"/><text font-size="12.6" x="754.4" y="172.7"><tspan x="754.36" y="172.68">Oceania</tspan></text></g></g><path stroke="#ccc" d="M740.36 182.2H830"/><g class="clickable"><g class="ConnectedScatterLegend"><text font-size="12.6" x="740.4" y="201.3" fill="#333"><tspan x="740.36" y="201.28">1959</tspan></text><text font-size="12.6" x="806.8" y="201.3" fill="#333"><tspan x="806.78" y="201.28">2014</tspan></text><path stroke="#666" stroke-width="1" d="M773.58 197h28.2"/><circle cx="773.58" cy="197" r="2" fill="#666" stroke="#ccc" stroke-width=".2"/><circle cx="782.98" cy="197" r="2" fill="#666" stroke="#ccc" stroke-width=".2"/><circle cx="792.38" cy="197" r="2" fill="#666" stroke="#ccc" stroke-width=".2"/><path cx="801.78" cy="197" r="3" fill="#666" stroke="#ccc" stroke-width=".2" d="M798.78 194l6 3-6 3z"/></g></g></g><g class="SourcesFooter" fill="#777"><g class="clickable" fill="#777"><text font-size="12.6" x="15" y="554.2"><tspan x="15" y="554.18">Source: OECD, Penn World Tables</tspan></text></g><text font-size="12.6" x="15" y="568.8"><tspan x="15" y="568.78">Note: Rent share of GDP uses GDP calculated from the expenditure approach, using OECD data. GDP per capita is taken from Penn World</tspan><tspan x="15" y="582.64">Tables</tspan></text><text font-size="12.6" x="796.4" y="554.2"><tspan x="796.44" y="554.18"><a class="cclogo" href="http://creativecommons.org/licenses/by/4.0/deed.en_US" target="_blank" fill="#777">CC BY</a></tspan></text></g></svg>