<svg xmlns="http://www.w3.org/2000/svg" version="1.1" style="background-color:#fff;-webkit-font-smoothing:antialiased" width="850" height="600" viewBox="0 0 850 600" font-family="Lato,'Helvetica Neue',Helvetica,Arial,sans-serif" font-size="18" text-rendering="geometricPrecision"><g class="HeaderView"><g transform="matrix(.29 0 0 .29 774 15)"><svg className="owidLog" width="210" height="120" viewBox="0 0 210 120" fill="none" xmlns="http://www.w3.org/2000/svg"><g clip-path="url(#clip0)"><path d="M0 0h210v107.89H0V0z" fill="#002147"/><path d="M40.98 32.25c0 2.36-.38 4.53-1.12 6.51a14.26 14.26 0 01-8.1 8.4c-1.9.78-4.02 1.17-6.34 1.17a16.6 16.6 0 01-6.33-1.17 14.31 14.31 0 01-8.08-8.4 18.29 18.29 0 01-1.12-6.51c0-2.36.38-4.53 1.12-6.5.75-1.97 1.8-3.67 3.17-5.1a14.32 14.32 0 014.9-3.34c1.92-.8 4.03-1.19 6.34-1.19 2.32 0 4.43.4 6.34 1.19 1.92.8 3.56 1.9 4.93 3.34a14.87 14.87 0 013.17 5.1 18.1 18.1 0 011.12 6.5zm-4.38 0c0-1.94-.26-3.68-.8-5.22a10.91 10.91 0 00-2.24-3.89 9.68 9.68 0 00-3.52-2.46 11.95 11.95 0 00-4.62-.86c-1.68 0-3.21.28-4.6.86a9.88 9.88 0 00-3.54 2.46 10.91 10.91 0 00-2.24 3.9c-.53 1.53-.8 3.27-.8 5.2 0 1.94.27 3.68.8 5.22a11.17 11.17 0 002.24 3.9 10.01 10.01 0 003.55 2.44c1.38.56 2.9.83 4.6.83s3.24-.27 4.61-.83a9.8 9.8 0 003.52-2.44 11.17 11.17 0 002.25-3.9c.53-1.54.8-3.28.8-5.21zm26.22-6.54V48H60.5c-.56 0-.9-.27-1.05-.81l-.31-2.4a12.45 12.45 0 01-3.26 2.6c-1.2.64-2.58.96-4.13.96-1.22 0-2.3-.2-3.24-.6a6.52 6.52 0 01-2.33-1.7 7.37 7.37 0 01-1.43-2.67c-.3-1.04-.46-2.2-.46-3.45V25.7h3.91v14.22c0 1.68.38 2.99 1.15 3.91.77.93 1.96 1.39 3.54 1.39 1.16 0 2.24-.27 3.23-.82a10.42 10.42 0 002.8-2.28V25.7h3.91zm8.61 4.47a9.94 9.94 0 012.6-3.56 5.64 5.64 0 013.76-1.3c.47 0 .92.05 1.34.15.44.1.83.27 1.17.49l-.3 2.92c-.09.37-.3.55-.66.55-.2 0-.5-.04-.9-.13a6.21 6.21 0 00-3.24.18 4.23 4.23 0 00-1.47.92c-.42.4-.81.9-1.17 1.5-.33.58-.64 1.26-.92 2.02V48H67.7V25.71h2.25c.42 0 .72.08.88.25.16.16.27.44.33.83l.26 3.39zm61.16-13.7L122.75 48h-3.82l-7.99-24.05a21.95 21.95 0 01-.42-1.58 38.36 38.36 0 01-.44 1.58L102.05 48h-3.83L88.4 16.47h3.54c.38 0 .7.1.95.29.26.2.43.43.5.73l6.52 21.9.28 1.28.29 1.46.3-1.46.38-1.27 7.41-21.91c.1-.25.26-.48.51-.69.27-.22.58-.33.95-.33h1.23c.38 0 .69.1.92.29a1.77 1.77 0 01.53.73l7.4 21.9a28.4 28.4 0 01.68 2.62 29.52 29.52 0 01.52-2.61l6.54-21.91a1.31 1.31 0 01.48-.7c.27-.21.58-.32.95-.32h3.32zm9.35 8.88c1.63 0 3.1.27 4.4.82a9.43 9.43 0 015.46 5.94c.5 1.4.74 2.98.74 4.73 0 1.76-.25 3.34-.74 4.75a9.43 9.43 0 01-5.46 5.92c-1.3.52-2.77.79-4.4.79-1.64 0-3.12-.27-4.44-.8a9.42 9.42 0 01-3.35-2.3c-.92-1-1.63-2.2-2.13-3.61-.49-1.41-.73-3-.73-4.75s.24-3.33.73-4.73c.5-1.43 1.2-2.64 2.13-3.63a9.4 9.4 0 013.35-2.31c1.32-.55 2.8-.82 4.44-.82zm0 19.89c2.2 0 3.84-.73 4.93-2.2 1.08-1.48 1.63-3.54 1.63-6.18 0-2.66-.55-4.72-1.63-6.2-1.09-1.49-2.73-2.23-4.93-2.23-1.12 0-2.09.2-2.93.57a5.71 5.71 0 00-2.06 1.65 7.5 7.5 0 00-1.24 2.67c-.26 1.04-.4 2.22-.4 3.54 0 2.64.55 4.7 1.64 6.18 1.1 1.47 2.76 2.2 4.99 2.2zm17.97-15.07a9.94 9.94 0 012.6-3.56 5.64 5.64 0 013.76-1.3c.47 0 .91.05 1.34.15.44.1.83.27 1.16.49l-.28 2.92c-.09.37-.31.55-.66.55-.2 0-.5-.04-.9-.13a6.2 6.2 0 00-3.24.18 4.23 4.23 0 00-1.47.92c-.43.4-.82.9-1.17 1.5a13.1 13.1 0 00-.92 2.02V48h-3.94V25.71h2.24c.43 0 .72.08.88.25.17.16.28.44.33.83l.27 3.39zm15.04-14.59V48h-3.92V15.6h3.92zm19.55 15.43a6.22 6.22 0 00-2.38-2.05 6.7 6.7 0 00-2.86-.6c-2.07 0-3.66.75-4.77 2.23-1.12 1.48-1.68 3.6-1.68 6.33 0 1.46.13 2.7.38 3.74a7.29 7.29 0 001.1 2.56 4.35 4.35 0 001.78 1.45c.7.3 1.5.46 2.4.46 1.29 0 2.41-.3 3.36-.88a9.6 9.6 0 002.67-2.49V31.02zm3.91-15.43V48h-2.33c-.56 0-.9-.27-1.06-.81l-.35-2.71a12.13 12.13 0 01-3.25 2.77 8.28 8.28 0 01-4.23 1.06 7.31 7.31 0 01-6.14-2.9c-.73-.96-1.3-2.15-1.69-3.57a18.35 18.35 0 01.07-9.48 11.29 11.29 0 011.89-3.7 8.7 8.7 0 017.06-3.34 7.96 7.96 0 016.12 2.62V15.59h3.91zM46.61 70.71V93H42.7V70.71h3.91zm.84-7c0 .39-.08.75-.24 1.09a2.81 2.81 0 01-1.52 1.47 2.67 2.67 0 01-2.16 0 2.9 2.9 0 01-1.45-1.47 2.67 2.67 0 010-2.16c.15-.35.35-.65.6-.9.25-.27.53-.47.85-.62a2.67 2.67 0 012.16 0c.35.15.65.35.9.62.27.25.47.55.62.9.16.34.24.7.24 1.08zm7.97 10.24c.49-.54 1-1.04 1.54-1.48a9.85 9.85 0 013.66-1.84 8.96 8.96 0 015.43.35c.94.4 1.72.97 2.33 1.71a7.36 7.36 0 011.43 2.67c.32 1.04.49 2.19.49 3.45V93h-3.94V78.81c0-1.69-.4-3-1.17-3.92-.76-.93-1.93-1.4-3.5-1.4a6.6 6.6 0 00-3.25.83c-1 .56-1.92 1.31-2.77 2.27V93h-3.94V70.71h2.35c.56 0 .9.28 1.04.82l.3 2.42zm57.7 3.3c0 2.36-.37 4.5-1.11 6.44a14.3 14.3 0 01-3.17 4.98 14.1 14.1 0 01-4.93 3.2c-1.9.76-4.02 1.13-6.33 1.13H85.8V61.47h11.77c2.31 0 4.42.39 6.33 1.15a13.8 13.8 0 018.1 8.18 17.75 17.75 0 011.12 6.45zm-4.37 0c0-1.94-.26-3.67-.8-5.2a10.94 10.94 0 00-2.23-3.87 9.57 9.57 0 00-3.53-2.42 12.23 12.23 0 00-4.61-.83h-7.5v24.62h7.5c1.7 0 3.24-.28 4.61-.84a9.7 9.7 0 003.53-2.4 10.94 10.94 0 002.24-3.87c.53-1.53.8-3.26.8-5.2zm19.8 5.72c-1.8.06-3.34.2-4.62.44-1.26.22-2.3.51-3.1.88-.8.36-1.37.8-1.74 1.3-.35.5-.53 1.05-.53 1.67 0 .58.1 1.1.3 1.52a3 3 0 00.76 1.05c.34.27.73.46 1.17.6a6.13 6.13 0 001.45.17 7.28 7.28 0 003.5-.81 11.95 11.95 0 002.82-2.2v-4.62zm-12.65-9.11a12.73 12.73 0 013.98-2.66c1.43-.59 3-.88 4.73-.88 1.25 0 2.36.2 3.33.61a6.81 6.81 0 013.94 4.38c.33 1.04.5 2.19.5 3.43V93h-1.74a1.8 1.8 0 01-.88-.18c-.2-.13-.36-.38-.48-.74l-.44-2.12-1.72 1.46a9.48 9.48 0 01-3.74 1.7c-.69.15-1.46.23-2.3.23-.87 0-1.69-.12-2.45-.35a5.34 5.34 0 01-3.34-2.93 6.64 6.64 0 01-.49-2.64c0-.88.25-1.72.73-2.53a6.33 6.33 0 012.35-2.17c1.09-.63 2.5-1.15 4.25-1.54 1.75-.41 3.89-.65 6.42-.7v-1.75c0-1.73-.37-3.03-1.12-3.91-.75-.9-1.84-1.34-3.28-1.34-.97 0-1.78.12-2.44.37-.64.23-1.2.5-1.7.81l-1.23.82c-.33.23-.67.35-1 .35-.27 0-.5-.07-.69-.2a2.1 2.1 0 01-.48-.53l-.7-1.25zm27.67 19.5c-1.76 0-3.12-.5-4.07-1.48-.94-.98-1.41-2.4-1.41-4.25V74h-2.68a.9.9 0 01-.6-.2c-.16-.14-.24-.36-.24-.66v-1.56l3.65-.46.9-6.89a.9.9 0 01.29-.52.88.88 0 01.62-.22H142v7.67h6.44V74H142v13.38c0 .94.22 1.63.68 2.09.45.45 1.04.68 1.76.68a3.21 3.21 0 001.85-.53l.55-.35c.16-.12.3-.18.41-.18.2 0 .4.13.55.38l1.15 1.87a7.45 7.45 0 01-2.44 1.5 8.53 8.53 0 01-2.95.52zm19.68-10.4c-1.8.07-3.34.21-4.62.45-1.26.22-2.3.51-3.1.88-.8.36-1.37.8-1.74 1.3-.35.5-.53 1.05-.53 1.67 0 .58.1 1.1.3 1.52a2.9 2.9 0 00.76 1.05c.34.27.73.46 1.17.6a6.13 6.13 0 001.45.17 7.3 7.3 0 003.5-.81 12.04 12.04 0 002.82-2.2v-4.62zm-12.65-9.1a12.72 12.72 0 013.99-2.66c1.42-.59 3-.88 4.72-.88 1.25 0 2.36.2 3.33.61a6.81 6.81 0 013.94 4.38c.33 1.04.5 2.19.5 3.43V93h-1.74a1.8 1.8 0 01-.88-.18c-.2-.13-.36-.38-.48-.74l-.44-2.12-1.72 1.46a9.48 9.48 0 01-3.74 1.7c-.69.15-1.46.23-2.3.23-.87 0-1.69-.12-2.45-.35a5.33 5.33 0 01-3.34-2.93 6.62 6.62 0 01-.49-2.64c0-.88.25-1.72.73-2.53a6.33 6.33 0 012.35-2.17c1.09-.63 2.5-1.15 4.25-1.54a31.2 31.2 0 016.42-.7v-1.75c0-1.73-.37-3.03-1.12-3.91-.75-.9-1.84-1.34-3.28-1.34-.97 0-1.78.12-2.44.37-.64.23-1.2.5-1.7.81l-1.22.82c-.34.23-.68.35-1.02.35-.26 0-.49-.07-.68-.2a1.88 1.88 0 01-.48-.53l-.7-1.25zM40.98 32.25c0 2.36-.38 4.53-1.12 6.51a14.26 14.26 0 01-8.1 8.4c-1.9.78-4.02 1.17-6.34 1.17a16.6 16.6 0 01-6.33-1.17 14.31 14.31 0 01-8.08-8.4 18.29 18.29 0 01-1.12-6.51c0-2.36.38-4.53 1.12-6.5.75-1.97 1.8-3.67 3.17-5.1a14.32 14.32 0 014.9-3.34c1.92-.8 4.03-1.19 6.34-1.19 2.32 0 4.43.4 6.34 1.19 1.92.8 3.56 1.9 4.93 3.34a14.87 14.87 0 013.17 5.1 18.1 18.1 0 011.12 6.5zm-4.38 0c0-1.94-.26-3.68-.8-5.22a10.91 10.91 0 00-2.24-3.89 9.68 9.68 0 00-3.52-2.46 11.95 11.95 0 00-4.62-.86c-1.68 0-3.21.28-4.6.86a9.88 9.88 0 00-3.54 2.46 10.91 10.91 0 00-2.24 3.9c-.53 1.53-.8 3.27-.8 5.2 0 1.94.27 3.68.8 5.22a11.17 11.17 0 002.24 3.9 10.01 10.01 0 003.55 2.44c1.38.56 2.9.83 4.6.83s3.24-.27 4.61-.83a9.8 9.8 0 003.52-2.44 11.17 11.17 0 002.25-3.9c.53-1.54.8-3.28.8-5.21zm26.22-6.54V48H60.5c-.56 0-.9-.27-1.05-.81l-.31-2.4a12.45 12.45 0 01-3.26 2.6c-1.2.64-2.58.96-4.13.96-1.22 0-2.3-.2-3.24-.6a6.52 6.52 0 01-2.33-1.7 7.37 7.37 0 01-1.43-2.67c-.3-1.04-.46-2.2-.46-3.45V25.7h3.91v14.22c0 1.68.38 2.99 1.15 3.91.77.93 1.96 1.39 3.54 1.39 1.16 0 2.24-.27 3.23-.82a10.42 10.42 0 002.8-2.28V25.7h3.91zm8.61 4.47a9.94 9.94 0 012.6-3.56 5.64 5.64 0 013.76-1.3c.47 0 .92.05 1.34.15.44.1.83.27 1.17.49l-.3 2.92c-.09.37-.3.55-.66.55-.2 0-.5-.04-.9-.13a6.21 6.21 0 00-3.24.18 4.23 4.23 0 00-1.47.92c-.42.4-.81.9-1.17 1.5-.33.58-.64 1.26-.92 2.02V48H67.7V25.71h2.25c.42 0 .72.08.88.25.16.16.27.44.33.83l.26 3.39zm61.16-13.7L122.75 48h-3.82l-7.99-24.05a21.95 21.95 0 01-.42-1.58 38.36 38.36 0 01-.44 1.58L102.05 48h-3.83L88.4 16.47h3.54c.38 0 .7.1.95.29.26.2.43.43.5.73l6.52 21.9.28 1.28.29 1.46.3-1.46.38-1.27 7.41-21.91c.1-.25.26-.48.51-.69.27-.22.58-.33.95-.33h1.23c.38 0 .69.1.92.29a1.77 1.77 0 01.53.73l7.4 21.9a28.4 28.4 0 01.68 2.62 29.52 29.52 0 01.52-2.61l6.54-21.91a1.31 1.31 0 01.48-.7c.27-.21.58-.32.95-.32h3.32zm9.35 8.88c1.63 0 3.1.27 4.4.82a9.43 9.43 0 015.46 5.94c.5 1.4.74 2.98.74 4.73 0 1.76-.25 3.34-.74 4.75a9.43 9.43 0 01-5.46 5.92c-1.3.52-2.77.79-4.4.79-1.64 0-3.12-.27-4.44-.8a9.42 9.42 0 01-3.35-2.3c-.92-1-1.63-2.2-2.13-3.61-.49-1.41-.73-3-.73-4.75s.24-3.33.73-4.73c.5-1.43 1.2-2.64 2.13-3.63a9.4 9.4 0 013.35-2.31c1.32-.55 2.8-.82 4.44-.82zm0 19.89c2.2 0 3.84-.73 4.93-2.2 1.08-1.48 1.63-3.54 1.63-6.18 0-2.66-.55-4.72-1.63-6.2-1.09-1.49-2.73-2.23-4.93-2.23-1.12 0-2.09.2-2.93.57a5.71 5.71 0 00-2.06 1.65 7.5 7.5 0 00-1.24 2.67c-.26 1.04-.4 2.22-.4 3.54 0 2.64.55 4.7 1.64 6.18 1.1 1.47 2.76 2.2 4.99 2.2zm17.97-15.07a9.94 9.94 0 012.6-3.56 5.64 5.64 0 013.76-1.3c.47 0 .91.05 1.34.15.44.1.83.27 1.16.49l-.28 2.92c-.09.37-.31.55-.66.55-.2 0-.5-.04-.9-.13a6.2 6.2 0 00-3.24.18 4.23 4.23 0 00-1.47.92c-.43.4-.82.9-1.17 1.5a13.1 13.1 0 00-.92 2.02V48h-3.94V25.71h2.24c.43 0 .72.08.88.25.17.16.28.44.33.83l.27 3.39zm15.04-14.59V48h-3.92V15.6h3.92zm19.55 15.43a6.22 6.22 0 00-2.38-2.05 6.7 6.7 0 00-2.86-.6c-2.07 0-3.66.75-4.77 2.23-1.12 1.48-1.68 3.6-1.68 6.33 0 1.46.13 2.7.38 3.74a7.29 7.29 0 001.1 2.56 4.35 4.35 0 001.78 1.45c.7.3 1.5.46 2.4.46 1.29 0 2.41-.3 3.36-.88a9.6 9.6 0 002.67-2.49V31.02zm3.91-15.43V48h-2.33c-.56 0-.9-.27-1.06-.81l-.35-2.71a12.13 12.13 0 01-3.25 2.77 8.28 8.28 0 01-4.23 1.06 7.31 7.31 0 01-6.14-2.9c-.73-.96-1.3-2.15-1.69-3.57a18.35 18.35 0 01.07-9.48 11.29 11.29 0 011.89-3.7 8.7 8.7 0 017.06-3.34 7.96 7.96 0 016.12 2.62V15.59h3.91zM46.61 70.71V93H42.7V70.71h3.91zm.84-7c0 .39-.08.75-.24 1.09a2.81 2.81 0 01-1.52 1.47 2.67 2.67 0 01-2.16 0 2.9 2.9 0 01-1.45-1.47 2.67 2.67 0 010-2.16c.15-.35.35-.65.6-.9.25-.27.53-.47.85-.62a2.67 2.67 0 012.16 0c.35.15.65.35.9.62.27.25.47.55.62.9.16.34.24.7.24 1.08zm7.97 10.24c.49-.54 1-1.04 1.54-1.48a9.85 9.85 0 013.66-1.84 8.96 8.96 0 015.43.35c.94.4 1.72.97 2.33 1.71a7.36 7.36 0 011.43 2.67c.32 1.04.49 2.19.49 3.45V93h-3.94V78.81c0-1.69-.4-3-1.17-3.92-.76-.93-1.93-1.4-3.5-1.4a6.6 6.6 0 00-3.25.83c-1 .56-1.92 1.31-2.77 2.27V93h-3.94V70.71h2.35c.56 0 .9.28 1.04.82l.3 2.42zm57.7 3.3c0 2.36-.37 4.5-1.11 6.44a14.3 14.3 0 01-3.17 4.98 14.1 14.1 0 01-4.93 3.2c-1.9.76-4.02 1.13-6.33 1.13H85.8V61.47h11.77c2.31 0 4.42.39 6.33 1.15a13.8 13.8 0 018.1 8.18 17.75 17.75 0 011.12 6.45zm-4.37 0c0-1.94-.26-3.67-.8-5.2a10.94 10.94 0 00-2.23-3.87 9.57 9.57 0 00-3.53-2.42 12.23 12.23 0 00-4.61-.83h-7.5v24.62h7.5c1.7 0 3.24-.28 4.61-.84a9.7 9.7 0 003.53-2.4 10.94 10.94 0 002.24-3.87c.53-1.53.8-3.26.8-5.2zm19.8 5.72c-1.8.06-3.34.2-4.62.44-1.26.22-2.3.51-3.1.88-.8.36-1.37.8-1.74 1.3-.35.5-.53 1.05-.53 1.67 0 .58.1 1.1.3 1.52a3 3 0 00.76 1.05c.34.27.73.46 1.17.6a6.13 6.13 0 001.45.17 7.28 7.28 0 003.5-.81 11.95 11.95 0 002.82-2.2v-4.62zm-12.65-9.11a12.73 12.73 0 013.98-2.66c1.43-.59 3-.88 4.73-.88 1.25 0 2.36.2 3.33.61a6.81 6.81 0 013.94 4.38c.33 1.04.5 2.19.5 3.43V93h-1.74a1.8 1.8 0 01-.88-.18c-.2-.13-.36-.38-.48-.74l-.44-2.12-1.72 1.46a9.48 9.48 0 01-3.74 1.7c-.69.15-1.46.23-2.3.23-.87 0-1.69-.12-2.45-.35a5.34 5.34 0 01-3.34-2.93 6.64 6.64 0 01-.49-2.64c0-.88.25-1.72.73-2.53a6.33 6.33 0 012.35-2.17c1.09-.63 2.5-1.15 4.25-1.54 1.75-.41 3.89-.65 6.42-.7v-1.75c0-1.73-.37-3.03-1.12-3.91-.75-.9-1.84-1.34-3.28-1.34-.97 0-1.78.12-2.44.37-.64.23-1.2.5-1.7.81l-1.23.82c-.33.23-.67.35-1 .35-.27 0-.5-.07-.69-.2a2.1 2.1 0 01-.48-.53l-.7-1.25zm27.67 19.5c-1.76 0-3.12-.5-4.07-1.48-.94-.98-1.41-2.4-1.41-4.25V74h-2.68a.9.9 0 01-.6-.2c-.16-.14-.24-.36-.24-.66v-1.56l3.65-.46.9-6.89a.9.9 0 01.29-.52.88.88 0 01.62-.22H142v7.67h6.44V74H142v13.38c0 .94.22 1.63.68 2.09.45.45 1.04.68 1.76.68a3.21 3.21 0 001.85-.53l.55-.35c.16-.12.3-.18.41-.18.2 0 .4.13.55.38l1.15 1.87a7.45 7.45 0 01-2.44 1.5 8.53 8.53 0 01-2.95.52zm19.68-10.4c-1.8.07-3.34.21-4.62.45-1.26.22-2.3.51-3.1.88-.8.36-1.37.8-1.74 1.3-.35.5-.53 1.05-.53 1.67 0 .58.1 1.1.3 1.52a2.9 2.9 0 00.76 1.05c.34.27.73.46 1.17.6a6.13 6.13 0 001.45.17 7.3 7.3 0 003.5-.81 12.04 12.04 0 002.82-2.2v-4.62zm-12.65-9.1a12.72 12.72 0 013.99-2.66c1.42-.59 3-.88 4.72-.88 1.25 0 2.36.2 3.33.61a6.81 6.81 0 013.94 4.38c.33 1.04.5 2.19.5 3.43V93h-1.74a1.8 1.8 0 01-.88-.18c-.2-.13-.36-.38-.48-.74l-.44-2.12-1.72 1.46a9.48 9.48 0 01-3.74 1.7c-.69.15-1.46.23-2.3.23-.87 0-1.69-.12-2.45-.35a5.33 5.33 0 01-3.34-2.93 6.62 6.62 0 01-.49-2.64c0-.88.25-1.72.73-2.53a6.33 6.33 0 012.35-2.17c1.09-.63 2.5-1.15 4.25-1.54a31.2 31.2 0 016.42-.7v-1.75c0-1.73-.37-3.03-1.12-3.91-.75-.9-1.84-1.34-3.28-1.34-.97 0-1.78.12-2.44.37-.64.23-1.2.5-1.7.81l-1.22.82c-.34.23-.68.35-1.02.35-.26 0-.49-.07-.68-.2a1.88 1.88 0 01-.48-.53l-.7-1.25zM40.98 32.25c0 2.36-.38 4.53-1.12 6.51a14.26 14.26 0 01-8.1 8.4c-1.9.78-4.02 1.17-6.34 1.17a16.6 16.6 0 01-6.33-1.17 14.31 14.31 0 01-8.08-8.4 18.29 18.29 0 01-1.12-6.51c0-2.36.38-4.53 1.12-6.5.75-1.97 1.8-3.67 3.17-5.1a14.32 14.32 0 014.9-3.34c1.92-.8 4.03-1.19 6.34-1.19 2.32 0 4.43.4 6.34 1.19 1.92.8 3.56 1.9 4.93 3.34a14.87 14.87 0 013.17 5.1 18.1 18.1 0 011.12 6.5zm-4.38 0c0-1.94-.26-3.68-.8-5.22a10.91 10.91 0 00-2.24-3.89 9.68 9.68 0 00-3.52-2.46 11.95 11.95 0 00-4.62-.86c-1.68 0-3.21.28-4.6.86a9.88 9.88 0 00-3.54 2.46 10.91 10.91 0 00-2.24 3.9c-.53 1.53-.8 3.27-.8 5.2 0 1.94.27 3.68.8 5.22a11.17 11.17 0 002.24 3.9 10.01 10.01 0 003.55 2.44c1.38.56 2.9.83 4.6.83s3.24-.27 4.61-.83a9.8 9.8 0 003.52-2.44 11.17 11.17 0 002.25-3.9c.53-1.54.8-3.28.8-5.21zm26.22-6.54V48H60.5c-.56 0-.9-.27-1.05-.81l-.31-2.4a12.45 12.45 0 01-3.26 2.6c-1.2.64-2.58.96-4.13.96-1.22 0-2.3-.2-3.24-.6a6.52 6.52 0 01-2.33-1.7 7.37 7.37 0 01-1.43-2.67c-.3-1.04-.46-2.2-.46-3.45V25.7h3.91v14.22c0 1.68.38 2.99 1.15 3.91.77.93 1.96 1.39 3.54 1.39 1.16 0 2.24-.27 3.23-.82a10.42 10.42 0 002.8-2.28V25.7h3.91zm8.61 4.47a9.94 9.94 0 012.6-3.56 5.64 5.64 0 013.76-1.3c.47 0 .92.05 1.34.15.44.1.83.27 1.17.49l-.3 2.92c-.09.37-.3.55-.66.55-.2 0-.5-.04-.9-.13a6.21 6.21 0 00-3.24.18 4.23 4.23 0 00-1.47.92c-.42.4-.81.9-1.17 1.5-.33.58-.64 1.26-.92 2.02V48H67.7V25.71h2.25c.42 0 .72.08.88.25.16.16.27.44.33.83l.26 3.39zm61.16-13.7L122.75 48h-3.82l-7.99-24.05a21.95 21.95 0 01-.42-1.58 38.36 38.36 0 01-.44 1.58L102.05 48h-3.83L88.4 16.47h3.54c.38 0 .7.1.95.29.26.2.43.43.5.73l6.52 21.9.28 1.28.29 1.46.3-1.46.38-1.27 7.41-21.91c.1-.25.26-.48.51-.69.27-.22.58-.33.95-.33h1.23c.38 0 .69.1.92.29a1.77 1.77 0 01.53.73l7.4 21.9a28.4 28.4 0 01.68 2.62 29.52 29.52 0 01.52-2.61l6.54-21.91a1.31 1.31 0 01.48-.7c.27-.21.58-.32.95-.32h3.32zm9.35 8.88c1.63 0 3.1.27 4.4.82a9.43 9.43 0 015.46 5.94c.5 1.4.74 2.98.74 4.73 0 1.76-.25 3.34-.74 4.75a9.43 9.43 0 01-5.46 5.92c-1.3.52-2.77.79-4.4.79-1.64 0-3.12-.27-4.44-.8a9.42 9.42 0 01-3.35-2.3c-.92-1-1.63-2.2-2.13-3.61-.49-1.41-.73-3-.73-4.75s.24-3.33.73-4.73c.5-1.43 1.2-2.64 2.13-3.63a9.4 9.4 0 013.35-2.31c1.32-.55 2.8-.82 4.44-.82zm0 19.89c2.2 0 3.84-.73 4.93-2.2 1.08-1.48 1.63-3.54 1.63-6.18 0-2.66-.55-4.72-1.63-6.2-1.09-1.49-2.73-2.23-4.93-2.23-1.12 0-2.09.2-2.93.57a5.71 5.71 0 00-2.06 1.65 7.5 7.5 0 00-1.24 2.67c-.26 1.04-.4 2.22-.4 3.54 0 2.64.55 4.7 1.64 6.18 1.1 1.47 2.76 2.2 4.99 2.2zm17.97-15.07a9.94 9.94 0 012.6-3.56 5.64 5.64 0 013.76-1.3c.47 0 .91.05 1.34.15.44.1.83.27 1.16.49l-.28 2.92c-.09.37-.31.55-.66.55-.2 0-.5-.04-.9-.13a6.2 6.2 0 00-3.24.18 4.23 4.23 0 00-1.47.92c-.43.4-.82.9-1.17 1.5a13.1 13.1 0 00-.92 2.02V48h-3.94V25.71h2.24c.43 0 .72.08.88.25.17.16.28.44.33.83l.27 3.39zm15.04-14.59V48h-3.92V15.6h3.92zm19.55 15.43a6.22 6.22 0 00-2.38-2.05 6.7 6.7 0 00-2.86-.6c-2.07 0-3.66.75-4.77 2.23-1.12 1.48-1.68 3.6-1.68 6.33 0 1.46.13 2.7.38 3.74a7.29 7.29 0 001.1 2.56 4.35 4.35 0 001.78 1.45c.7.3 1.5.46 2.4.46 1.29 0 2.41-.3 3.36-.88a9.6 9.6 0 002.67-2.49V31.02zm3.91-15.43V48h-2.33c-.56 0-.9-.27-1.06-.81l-.35-2.71a12.13 12.13 0 01-3.25 2.77 8.28 8.28 0 01-4.23 1.06 7.31 7.31 0 01-6.14-2.9c-.73-.96-1.3-2.15-1.69-3.57a18.35 18.35 0 01.07-9.48 11.29 11.29 0 011.89-3.7 8.7 8.7 0 017.06-3.34 7.96 7.96 0 016.12 2.62V15.59h3.91zM46.61 70.71V93H42.7V70.71h3.91zm.84-7c0 .39-.08.75-.24 1.09a2.81 2.81 0 01-1.52 1.47 2.67 2.67 0 01-2.16 0 2.9 2.9 0 01-1.45-1.47 2.67 2.67 0 010-2.16c.15-.35.35-.65.6-.9.25-.27.53-.47.85-.62a2.67 2.67 0 012.16 0c.35.15.65.35.9.62.27.25.47.55.62.9.16.34.24.7.24 1.08zm7.97 10.24c.49-.54 1-1.04 1.54-1.48a9.85 9.85 0 013.66-1.84 8.96 8.96 0 015.43.35c.94.4 1.72.97 2.33 1.71a7.36 7.36 0 011.43 2.67c.32 1.04.49 2.19.49 3.45V93h-3.94V78.81c0-1.69-.4-3-1.17-3.92-.76-.93-1.93-1.4-3.5-1.4a6.6 6.6 0 00-3.25.83c-1 .56-1.92 1.31-2.77 2.27V93h-3.94V70.71h2.35c.56 0 .9.28 1.04.82l.3 2.42zm57.7 3.3c0 2.36-.37 4.5-1.11 6.44a14.3 14.3 0 01-3.17 4.98 14.1 14.1 0 01-4.93 3.2c-1.9.76-4.02 1.13-6.33 1.13H85.8V61.47h11.77c2.31 0 4.42.39 6.33 1.15a13.8 13.8 0 018.1 8.18 17.75 17.75 0 011.12 6.45zm-4.37 0c0-1.94-.26-3.67-.8-5.2a10.94 10.94 0 00-2.23-3.87 9.57 9.57 0 00-3.53-2.42 12.23 12.23 0 00-4.61-.83h-7.5v24.62h7.5c1.7 0 3.24-.28 4.61-.84a9.7 9.7 0 003.53-2.4 10.94 10.94 0 002.24-3.87c.53-1.53.8-3.26.8-5.2zm19.8 5.72c-1.8.06-3.34.2-4.62.44-1.26.22-2.3.51-3.1.88-.8.36-1.37.8-1.74 1.3-.35.5-.53 1.05-.53 1.67 0 .58.1 1.1.3 1.52a3 3 0 00.76 1.05c.34.27.73.46 1.17.6a6.13 6.13 0 001.45.17 7.28 7.28 0 003.5-.81 11.95 11.95 0 002.82-2.2v-4.62zm-12.65-9.11a12.73 12.73 0 013.98-2.66c1.43-.59 3-.88 4.73-.88 1.25 0 2.36.2 3.33.61a6.81 6.81 0 013.94 4.38c.33 1.04.5 2.19.5 3.43V93h-1.74a1.8 1.8 0 01-.88-.18c-.2-.13-.36-.38-.48-.74l-.44-2.12-1.72 1.46a9.48 9.48 0 01-3.74 1.7c-.69.15-1.46.23-2.3.23-.87 0-1.69-.12-2.45-.35a5.34 5.34 0 01-3.34-2.93 6.64 6.64 0 01-.49-2.64c0-.88.25-1.72.73-2.53a6.33 6.33 0 012.35-2.17c1.09-.63 2.5-1.15 4.25-1.54 1.75-.41 3.89-.65 6.42-.7v-1.75c0-1.73-.37-3.03-1.12-3.91-.75-.9-1.84-1.34-3.28-1.34-.97 0-1.78.12-2.44.37-.64.23-1.2.5-1.7.81l-1.23.82c-.33.23-.67.35-1 .35-.27 0-.5-.07-.69-.2a2.1 2.1 0 01-.48-.53l-.7-1.25zm27.67 19.5c-1.76 0-3.12-.5-4.07-1.48-.94-.98-1.41-2.4-1.41-4.25V74h-2.68a.9.9 0 01-.6-.2c-.16-.14-.24-.36-.24-.66v-1.56l3.65-.46.9-6.89a.9.9 0 01.29-.52.88.88 0 01.62-.22H142v7.67h6.44V74H142v13.38c0 .94.22 1.63.68 2.09.45.45 1.04.68 1.76.68a3.21 3.21 0 001.85-.53l.55-.35c.16-.12.3-.18.41-.18.2 0 .4.13.55.38l1.15 1.87a7.45 7.45 0 01-2.44 1.5 8.53 8.53 0 01-2.95.52zm19.68-10.4c-1.8.07-3.34.21-4.62.45-1.26.22-2.3.51-3.1.88-.8.36-1.37.8-1.74 1.3-.35.5-.53 1.05-.53 1.67 0 .58.1 1.1.3 1.52a2.9 2.9 0 00.76 1.05c.34.27.73.46 1.17.6a6.13 6.13 0 001.45.17 7.3 7.3 0 003.5-.81 12.04 12.04 0 002.82-2.2v-4.62zm-12.65-9.1a12.72 12.72 0 013.99-2.66c1.42-.59 3-.88 4.72-.88 1.25 0 2.36.2 3.33.61a6.81 6.81 0 013.94 4.38c.33 1.04.5 2.19.5 3.43V93h-1.74a1.8 1.8 0 01-.88-.18c-.2-.13-.36-.38-.48-.74l-.44-2.12-1.72 1.46a9.48 9.48 0 01-3.74 1.7c-.69.15-1.46.23-2.3.23-.87 0-1.69-.12-2.45-.35a5.33 5.33 0 01-3.34-2.93 6.62 6.62 0 01-.49-2.64c0-.88.25-1.72.73-2.53a6.33 6.33 0 012.35-2.17c1.09-.63 2.5-1.15 4.25-1.54a31.2 31.2 0 016.42-.7v-1.75c0-1.73-.37-3.03-1.12-3.91-.75-.9-1.84-1.34-3.28-1.34-.97 0-1.78.12-2.44.37-.64.23-1.2.5-1.7.81l-1.22.82c-.34.23-.68.35-1.02.35-.26 0-.49-.07-.68-.2a1.88 1.88 0 01-.48-.53l-.7-1.25z" fill="#fff"/><path fill="#D42B21" d="M0 106.79h210V120H0z"/></g><defs><clipPath id="clip0"><path fill="#fff" d="M0 0h210v120H0z"/></clipPath></defs></svg></g><a href="https://ourworldindata.org/grapher/actual-and-imputed-rents-as-share-of-gdp-vs-gdp-per-capita" target="_blank" rel="noopener" font-family="&quot;Playfair Display&quot;,Georgia,&quot;Times New Roman&quot;,serif"><text font-size="25.2" x="15" y="35.2" fill="#555"><tspan x="15" y="35.16">Housing rent as share of GDP vs. GDP per capita, 1959 to 2014</tspan></text></a><text font-size="14.4" x="15" y="55.7" fill="#666"><tspan x="15" y="55.72">This includes both actual rents and imputed rent, which is an estimate of the value of housing services received by</tspan><tspan x="15" y="73">home owners in living in their own property. GDP per capita is adjusted to account for inflation and price differences</tspan><tspan x="15" y="90.28">across countries.</tspan></text></g><g class="ScatterPlot"><g class="DualAxisView"><g class="HorizontalAxis"><text font-size="12.6" x="324.5" y="516.6"><tspan x="324.46" y="516.58">GDP per capita</tspan></text><text x="106.9" y="496.5" fill="#666" text-anchor="middle" font-size="16.2">10,000</text><text x="229.6" y="496.5" fill="#666" text-anchor="middle" font-size="16.2">20,000</text><text x="352.3" y="496.5" fill="#666" text-anchor="middle" font-size="16.2">30,000</text><text x="475" y="496.5" fill="#666" text-anchor="middle" font-size="16.2">40,000</text><text x="597.7" y="496.5" fill="#666" text-anchor="middle" font-size="16.2">50,000</text><text x="720.36" y="496.5" fill="#666" text-anchor="end" font-size="16.2">60,000</text></g><g class="VerticalAxis"><text font-size="12.6" x="-432" y="25.1" transform="rotate(-90)"><tspan x="-431.95" y="25.08">Actual and imputed rents as share of GDP</tspan></text><text x="69.35" y="446.2" dy=".32em" text-anchor="end" fill="#666" font-size="16.2">0.04</text><text x="69.35" y="383.6" dy=".32em" text-anchor="end" fill="#666" font-size="16.2">0.06</text><text x="69.35" y="321" dy=".32em" text-anchor="end" fill="#666" font-size="16.2">0.08</text><text x="69.35" y="258.4" dy=".32em" text-anchor="end" fill="#666" font-size="16.2">0.1</text><text x="69.35" y="195.8" dy=".32em" text-anchor="end" fill="#666" font-size="16.2">0.12</text><text x="69.35" y="133.2" dy=".32em" text-anchor="end" fill="#666" font-size="16.2">0.14</text></g><g class="AxisGridLines horizontalLines" stroke="#ddd" stroke-dasharray="3,2"><path d="M74.35 446.2h646.01M74.35 383.6h646.01M74.35 321h646.01M74.35 258.4h646.01M74.35 195.8h646.01M74.35 133.2h646.01"/></g><g class="AxisGridLines verticalLines" stroke="#ddd" stroke-dasharray="3,2"><path d="M106.9 475.3V107.8M229.6 475.3V107.8M352.3 475.3V107.8M475 475.3V107.8M597.7 475.3V107.8M720.4 475.3V107.8"/></g></g><g class="PointsWithLabels clickable" clip-path="url(#a)" font-family="Arial, sans-serif"><path fill="rgba(255,255,255,0)" d="M74.35 107.8h646.01v367.5H74.35z"/><defs><clipPath id="a"><path d="M64.35 97.8h666.01v387.5H64.35z"/></clipPath></defs><g class="key-Australia"><circle cx="158" cy="429" r="1.1" fill="#A8633C" stroke="none" opacity=".7"/><path stroke-width=".52" opacity=".7" stroke="#A8633C" fill="none" stroke-linecap="butt" d="M158 429l-2-13 1-15 7-4h11l5 1-1-6h9l5-6 12 1 12-2 2-11 2-7 8-5 9 7-10-9-2-12 7-12-1-18 10-7 6-3 5-6h10l-11-16 12 8h6l5-4 1-6 18-2 18-3 8-7-8-17-3-9 9 4 10 4 15 6 15 4h13l14-1 13-2 17 1h2l12 2 9-3 16 1 10-2 9 1 14 1 12-2 3-10-8-12 19 7 7-3-7-10 1-1-2-9"/><path cx="512" cy="222" r="1.72" fill="#A8633C" opacity=".7" d="M510.7 224.05l.93-3.73 2.42 2.99z"/></g><g class="key-France"><circle cx="103" cy="475" r="1.1" fill="#4C5C78" stroke="none" opacity=".7"/><path stroke-width=".52" opacity=".7" stroke="#4C5C78" fill="none" stroke-linecap="butt" d="M103 475l9-9 5-10 6-9 7-8 8-3 6-12 7-10 7-15 6-12 12-7 9-3h11l10 1 14 6 4 10-1-5h10l9-3 13 1 10-2 2-5-10-8-1 5-4-6-5-7-3-4 11-2 6-8 14-6 11-3 8-4 2-9 3-10-3-13 7-4 6-4 4-2 18-1 22 1h13l18 6 13 1 4-4-22-6 9-2 5-7 13-3h23l4-2-7-19 9 1 11 2 3-5 17-4 1-2"/><path cx="467" cy="251" r="1.72" fill="#4C5C78" opacity=".7" d="M464.7 251.77l3.07-2.3v3.84z"/></g><g class="key-Denmark"><circle cx="183" cy="432" r="1.1" fill="#4C5C78" stroke="none" opacity=".7"/><path stroke-width=".52" opacity=".7" stroke="#4C5C78" fill="none" stroke-linecap="butt" d="M183 432l9-13 11-11 16-5 2-8 4-14h10l13-4-12-6-3-14 17-9 5-12 9-3 8-1-5-4-13-2 3 6h3l7 3 7 1 23 2 3-7-1-7 5-4 6-6 3-5 10-4-4-12 19 8 14 3 12 6 25 5 19 1 9 6 20 6-3-3 7-5-20-8 18 1-3 5 29 3 18-1h16l-20-24 20-4 9-8 13-2 10-3 4-1"/><path cx="535" cy="278" r="1.72" fill="#4C5C78" opacity=".7" d="M532.91 276.75l3.76.83-2.92 2.5z"/></g><g class="key-Norway"><circle cx="192" cy="316" r="1.1" fill="#4C5C78" stroke="none" opacity=".7"/><path stroke-width=".52" opacity=".7" stroke="#4C5C78" fill="none" stroke-linecap="butt" d="M192 316l10 4 6 2 12 2 6 2 3 2 9 3 6-4 7 2 15 3 22 18 3 4-5-11 3-3 16 6 8 8-8-8h-2l-5-14 5-9 6-9 7 6 2-4 10 4 13 10 17 9 32 14 34 10 1-3 27 8 68 19-1-8-13-12 4-7 49 9 44 11 56 9 33 2-18-16 23 3"/><path cx="697" cy="378" r="1.72" fill="#4C5C78" opacity=".7" d="M695.52 376.07l3.19 2.15-3.64 1.26z"/></g><g class="key-United-States"><circle cx="273" cy="305" r="1.1" fill="#E04E4B" stroke="none" opacity=".7"/><path stroke-width=".52" opacity=".7" stroke="#E04E4B" fill="none" stroke-linecap="butt" d="M273 305l7-2 14 2 15 5-9-3-4-1 15 4h12l16 2 7-1-10-10 7-1-11-13 15 2 26 5 13-8 9-9 9-4 13 1 11 2 2-5-5-6 12 1 10 1 15-1 8-5 14 2 19 2 19-3 20 1 15-1v-12l5-3 10 2 18 4 14-2 10-1h4l-15-7-20-16 9 9 4 1 10 5 7 3h12"/><path cx="625" cy="245" r="1.72" fill="#E04E4B" opacity=".7" d="M623.28 243.28l3.44 1.72-3.44 1.72z"/></g><g class="key-Finland"><circle cx="199" cy="341" r="1.1" fill="#4C5C78" stroke="none" opacity=".7"/><path stroke-width=".52" opacity=".7" stroke="#4C5C78" fill="none" stroke-linecap="butt" d="M199 341l-1-1-3-5 4-2 18 12 9 7-2-10 2-5 2 2 5 4 2-1 10 2 12 11 22 8 18 3-2-9-29-43-12-31-4-27 17 2 25 12 4-5 31 2 31 12 17-2 19 5 4 2-1-8-6-5 21 3 4 2 15 3 36 12 20-3-27-37h3l19-3 4-11-3-13-4-13"/><path cx="479" cy="211" r="1.72" fill="#4C5C78" opacity=".7" d="M477.86 213.15l.63-3.8 2.66 2.79z"/></g><g class="key-Canada"><circle cx="298" cy="301" r="1.1" fill="#E04E4B" stroke="none" opacity=".7"/><path stroke-width=".52" opacity=".7" stroke="#E04E4B" fill="none" stroke-linecap="butt" d="M298 301l-15-21 8-8 17 4 14 2 2-9 15 1 17-1 9-11-6-14-14-20-1-12 6-2 17 2 14 3h5l15 8 6 1 20 12 23 18-5-2-1-2 10 2 14 5 15 6 6-1 7-3 4-3-40-33 17 5 13 7 3-5 6-3h4"/><path cx="503" cy="227" r="1.72" fill="#E04E4B" opacity=".7" d="M501.28 225.28l3.44 1.72-3.44 1.72z"/></g><g class="key-Costa-Rica"><circle cx="74" cy="378" r="1.1" fill="#E04E4B" stroke="none" opacity=".7"/><path stroke-width=".52" opacity=".7" stroke="#E04E4B" fill="none" stroke-linecap="butt" d="M74 378l6 6 6-6 4-7 2-6-3-26 5-19 8-13 7-18-5 6-2 3 1 4 4 6 2 2 2-4 7 5 8 10 1 7 5-4 7-3 4-5 6-8 4 1 5 11"/><path cx="158" cy="320" r="1.72" fill="#E04E4B" opacity=".7" d="M158.85 317.72l-.14 3.85-2.99-2.42z"/></g><g class="key-Mexico"><circle cx="114" cy="177" r="1.1" fill="#E04E4B" stroke="none" opacity=".7"/><path stroke-width=".52" opacity=".7" stroke="#E04E4B" fill="none" stroke-linecap="butt" d="M114 177l3-6-13 15 4-16 7-2 4-14h5l8 8-1-10v-13h3l8 48 5 8 11 11 5 5 2-14-12 22 10 10 10 11 3 10-1-4 3 7"/><path cx="178" cy="253" r="1.72" fill="#E04E4B" opacity=".7" d="M178.9 250.74l-.22 3.84-2.94-2.48z"/></g><g class="key-Sweden"><circle cx="307" cy="182" r="1.1" fill="#4C5C78" stroke="none" opacity=".7"/><path stroke-width=".52" opacity=".7" stroke="#4C5C78" fill="none" stroke-linecap="butt" d="M307 182l19 11 22 16 6-4 17 4 22 18 26 15 24 15-5 9-2-1 3 3 15 6-18-2 28 14 39 6 3-1-28-19 20 16 18-3 8 3 2-1h5"/><path cx="531" cy="287" r="1.72" fill="#4C5C78" opacity=".7" d="M529.28 285.28l3.44 1.72-3.44 1.72z"/></g><g class="key-Austria"><circle cx="362" cy="370" r="1.1" fill="#4C5C78" stroke="none" opacity=".7"/><path stroke-width=".52" opacity=".7" stroke="#4C5C78" fill="none" stroke-linecap="butt" d="M362 370l8-5 16 3 22 1 14-1 15 3-8 1 7-5v-1l12-3v-9l23 3 20 4h13l-7-14 8-1h23l25-2 13-8 4-3"/><path cx="570" cy="333" r="1.72" fill="#4C5C78" opacity=".7" d="M567.6 332.66l3.78-.7-1.72 3.45z"/></g><g class="key-Belgium"><circle cx="344" cy="312" r="1.1" fill="#4C5C78" stroke="none" opacity=".7"/><path stroke-width=".52" opacity=".7" stroke="#4C5C78" fill="none" stroke-linecap="butt" d="M344 312l1-4 21 4 12 4 15 5 26 8h10l-12 1 6 6 1-4 11-1 20 5h10l-4-13h22l14-7 15-9 5-7 3 1"/><path cx="520" cy="301" r="1.72" fill="#4C5C78" opacity=".7" d="M518.91 298.82l2.72 2.72-3.8.55z"/></g><g class="key-Czechia"><circle cx="227" cy="401" r="1.1" fill="#4C5C78" stroke="none" opacity=".7"/><path stroke-width=".52" opacity=".7" stroke="#4C5C78" fill="none" stroke-linecap="butt" d="M227 401l13-1-5-19v-15l-1-10 5-8 14 2 3-8 7-4 15 5 5 3 17 2 29 3-2-11-1-27-3-5 16 1 5 2 14 4 17 7"/><path cx="375" cy="322" r="1.72" fill="#4C5C78" opacity=".7" d="M374.06 319.75l2.53 2.9-3.84.29z"/></g><g class="key-Estonia"><circle cx="107" cy="277" r="1.1" fill="#4C5C78" stroke="none" opacity=".7"/><path stroke-width=".52" opacity=".7" stroke="#4C5C78" fill="none" stroke-linecap="butt" d="M107 277l-10-3 9-30 12 17 7 4 12 18 8 7 12 20 12 14 16 6 18 22 27 5 33 5 4-2-26-22 10-9 34 19 26 2 11 5 12 3"/><path cx="334" cy="358" r="1.72" fill="#4C5C78" opacity=".7" d="M332.75 355.91l2.92 2.5-3.76.84z"/></g><g class="key-Germany"><circle cx="351" cy="306" r="1.1" fill="#4C5C78" stroke="none" opacity=".7"/><path stroke-width=".52" opacity=".7" stroke="#4C5C78" fill="none" stroke-linecap="butt" d="M351 306l4-9 13-7 15 1 15-2 5-1 6 2-1-3 1-4 9 1 5-2 20 7 25 8 11 1-20-16 25 9 25 9 9-1h12l18 4"/><path cx="548" cy="303" r="1.72" fill="#4C5C78" opacity=".7" d="M546.7 300.95l2.98 2.42-3.73.94z"/></g><g class="key-Greece"><circle cx="227" cy="243" r="1.1" fill="#4C5C78" stroke="none" opacity=".7"/><path stroke-width=".52" opacity=".7" stroke="#4C5C78" fill="none" stroke-linecap="butt" d="M227 243l7-6 18 6 13 4 5 36 6 2 16 3 19 2 5 7 19 4-14-10 28 6h15l13-7-8-24-27-37-35-38-9-25 5 5v25"/><path cx="303" cy="196" r="1.72" fill="#4C5C78" opacity=".7" d="M304.72 194.28l-1.72 3.44-1.72-3.44z"/></g><g class="key-Hungary"><circle cx="154" cy="377" r="1.1" fill="#4C5C78" stroke="none" opacity=".7"/><path stroke-width=".52" opacity=".7" stroke="#4C5C78" fill="none" stroke-linecap="butt" d="M154 377l-1-14 6 4 6 11 5-10 8-2 21 5 12 5v-3l5 5 2-2 10-6 9 1 11 3 2-21 8-4 10 7 3-2 15 7 14 10"/><path cx="300" cy="371" r="1.72" fill="#4C5C78" opacity=".7" d="M299.6 368.6l1.8 3.4-3.8-.6z"/></g><g class="key-Iceland"><circle cx="361" cy="341" r="1.1" fill="#4C5C78" stroke="none" opacity=".7"/><path stroke-width=".52" opacity=".7" stroke="#4C5C78" fill="none" stroke-linecap="butt" d="M361 341l12 12 33 8 36 4 17-7v-21l6 11-9-13-14-28 42-7 23-3 8-1 14-11-5-19-29-23h-38l4 1h32l17-1"/><path cx="510" cy="243" r="1.72" fill="#4C5C78" opacity=".7" d="M508.18 241.38l3.54 1.52-3.34 1.92z"/></g><g class="key-Ireland"><circle cx="273" cy="393" r="1.1" fill="#4C5C78" stroke="none" opacity=".7"/><path stroke-width=".52" opacity=".7" stroke="#4C5C78" fill="none" stroke-linecap="butt" d="M273 393l22-7 36-9 39-8 26-1 32-3 17-7 25-5 2-6 13 7 21 8h39l49-16-49-33-35 14 8 5 18-4 11 5 8-2 27 6"/><path cx="582" cy="337" r="1.72" fill="#4C5C78" opacity=".7" d="M580.7 334.95l2.98 2.42-3.73.94z"/></g><g class="key-Israel"><circle cx="317" cy="269" r="1.1" fill="#2D8587" stroke="none" opacity=".7"/><path stroke-width=".52" opacity=".7" stroke="#2D8587" fill="none" stroke-linecap="butt" d="M317 269l15 23 11 3 9-11 12-5 27 13-1-13-3-23-24 24-8 5-8 4 7 1h7l-5-15 2-20 6-9 5-2 9-5 9 1 5-6"/><path cx="392" cy="234" r="1.72" fill="#2D8587" opacity=".7" d="M389.58 234.22l3.52-1.54-.88 3.74z"/></g><g class="key-Italy"><circle cx="335" cy="358" r="1.1" fill="#4C5C78" stroke="none" opacity=".7"/><path stroke-width=".52" opacity=".7" stroke="#4C5C78" fill="none" stroke-linecap="butt" d="M335 358l5 1 16-1 22-4 9-9 11-2 9 1-16-11-6-7-1-9-1-5 16-1 22-5 10-8-12-22 1-2 7-3v-13l-2-8h-2"/><path cx="423" cy="250" r="1.72" fill="#4C5C78" opacity=".7" d="M424.72 251.72l-3.44-1.72 3.44-1.72z"/></g><g class="key-Latvia"><circle cx="84" cy="403" r="1.1" fill="#4C5C78" stroke="none" opacity=".7"/><path stroke-width=".52" opacity=".7" stroke="#4C5C78" fill="none" stroke-linecap="butt" d="M84 403l1 1h8l10-5 8-8 4 9 8 5 14-41 7-26 11 6 14-3 25-47 34-5 7-10-33 11 3 21 22-9 17-12 17-7 13-7"/><path cx="274" cy="276" r="1.72" fill="#4C5C78" opacity=".7" d="M271.67 275.3l3.84-.12-2.2 3.15z"/></g><g class="key-Lithuania"><circle cx="84" cy="331" r="1.1" fill="#4C5C78" stroke="none" opacity=".7"/><path stroke-width=".52" opacity=".7" stroke="#4C5C78" fill="none" stroke-linecap="butt" d="M84 331l8 14 12 23 10 11 4-9 9 8 11 19 12 7 14 11 8 3 10 2 17-4 30 2 14 2-28-9 19 14 26 8h28l24-3 18-4"/><path cx="330" cy="426" r="1.72" fill="#4C5C78" opacity=".7" d="M327.95 424.7l3.73.93-2.99 2.42z"/></g><g class="key-Luxembourg"><circle cx="638" cy="329" r="1.1" fill="#4C5C78" stroke="none" opacity=".7"/><path stroke-width=".52" opacity=".7" stroke="#4C5C78" fill="none" stroke-linecap="butt" d="M638 329l14 7 18 3 46-6"/><path cx="716" cy="333" r="1.72" fill="#4C5C78" opacity=".7" d="M714.07 331.52l3.64 1.26-3.2 2.15z"/></g><g class="key-Netherlands"><circle cx="348" cy="351" r="1.1" fill="#4C5C78" stroke="none" opacity=".7"/><path stroke-width=".52" opacity=".7" stroke="#4C5C78" fill="none" stroke-linecap="butt" d="M348 351l15-5 29 2 32 2h26l29 6 6 4h2l-23-8 9-6 7-3 27 6 35 5 19 3-24-18-1-6 13-3 2-8 11-9 1-9"/><path cx="563" cy="304" r="1.72" fill="#4C5C78" opacity=".7" d="M561.1 305.52l2.09-3.23 1.33 3.6z"/></g><g class="key-Poland"><circle cx="117" cy="429" r="1.1" fill="#4C5C78" stroke="none" opacity=".7"/><path stroke-width=".52" opacity=".7" stroke="#4C5C78" fill="none" stroke-linecap="butt" d="M117 429l6-7 8-5 8-4 8-6 4 4 3-10 6-4-1 2 8 3 3 5 11 7 21 9 8 12 15-4 17 4 17 9 15 9 10-4 8-1"/><path cx="292" cy="448" r="1.72" fill="#4C5C78" opacity=".7" d="M290.08 446.5l3.63 1.29-3.2 2.13z"/></g><g class="key-Portugal"><circle cx="200" cy="378" r="1.1" fill="#4C5C78" stroke="none" opacity=".7"/><path stroke-width=".52" opacity=".7" stroke="#4C5C78" fill="none" stroke-linecap="butt" d="M200 378l6-1 16 6 14 6 15 3 8 1 5-3 3-9-2-12 4-3 11-6 13-3 16-3 3-11 3-19 7-8-8-9 2-22 7-8 10-9"/><path cx="333" cy="268" r="1.72" fill="#4C5C78" opacity=".7" d="M330.57 267.87l3.7-1.02-1.4 3.58z"/></g><g class="key-Slovakia"><circle cx="153" cy="123" r="1.1" fill="#4C5C78" stroke="none" opacity=".7"/><path stroke-width=".52" opacity=".7" stroke="#4C5C78" fill="none" stroke-linecap="butt" d="M153 123l4 37 6 34-1 22-5 13 7 11 8 10 8-13 7 6 8-22 12 44 21 8 35-4 22-13-7-12 13 12 4 8 15 14 14 2 11 1"/><path cx="335" cy="281" r="1.72" fill="#4C5C78" opacity=".7" d="M333.44 279.13l3.27 2.03-3.58 1.4z"/></g><g class="key-Slovenia"><circle cx="224" cy="341" r="1.1" fill="#4C5C78" stroke="none" opacity=".7"/><path stroke-width=".52" opacity=".7" stroke="#4C5C78" fill="none" stroke-linecap="butt" d="M224 341l11-4 7 8 4 3 9 6 7-5 7 1 11 5 2 9 18 2 6-1 15 8 22 12 15 1-27-32-3 11 7 8h1l5-12 17 11"/><path cx="358" cy="372" r="1.72" fill="#4C5C78" opacity=".7" d="M357.49 369.62l1.95 3.31-3.82-.42z"/></g><g class="key-Spain"><circle cx="241" cy="380" r="1.1" fill="#4C5C78" stroke="none" opacity=".7"/><path stroke-width=".52" opacity=".7" stroke="#4C5C78" fill="none" stroke-linecap="butt" d="M241 380l9-7 18-5 21-2h12l14-1 11-2 11-11-2-8 11-7 9-5 28-7 29-9 3-14-12-24-11-8-5-12-2-16 4-7 10 5"/><path cx="399" cy="240" r="1.72" fill="#4C5C78" opacity=".7" d="M398.23 237.7l2.3 3.07h-3.84z"/></g><g class="key-United-Kingdom"><circle cx="321" cy="107" r="1.1" fill="#4C5C78" stroke="none" opacity=".7"/><path stroke-width=".52" opacity=".7" stroke="#4C5C78" fill="none" stroke-linecap="butt" d="M321 107l17 8 25-3 17 2 14-2 25 9h10l5 5 2 9 17 7 3 4 14 4 7 3-12-8-23-20-11 5v5l14-7 18-1 14 1"/><path cx="477" cy="128" r="1.72" fill="#4C5C78" opacity=".7" d="M475.4 126.16l3.32 1.96-3.56 1.47z"/></g><g class="key-Croatia"><circle cx="193" cy="337" r="1.1" fill="#4C5C78" stroke="none" opacity=".7"/><path stroke-width=".52" opacity=".7" stroke="#4C5C78" fill="none" stroke-linecap="butt" d="M193 337l14 14 25 6 14 6-10-22-9-1 10-4 7 1 3-2 3 2"/><path cx="250" cy="337" r="1.72" fill="#4C5C78" opacity=".7" d="M249.52 334.61l1.91 3.34-3.82-.47z"/></g><g class="backgroundLabels" fill="#333" font-size="11" font-weight="400"><text x="468.02" y="217.12" fill="#fff" stroke="#fff" stroke-linecap="round" stroke-linejoin="round" stroke-width=".25em">Australia</text><text x="468.02" y="217.12" fill="#A8633C">Australia</text><text x="469.24" y="246.53" fill="#fff" stroke="#fff" stroke-linecap="round" stroke-linejoin="round" stroke-width=".25em">France</text><text x="469.24" y="246.53" fill="#4C5C78">France</text><text x="539.85" y="276.79" fill="#fff" stroke="#fff" stroke-linecap="round" stroke-linejoin="round" stroke-width=".25em">Denmark</text><text x="539.85" y="276.79" fill="#4C5C78">Denmark</text><text x="664.67" y="384.15" fill="#fff" stroke="#fff" stroke-linecap="round" stroke-linejoin="round" stroke-width=".25em">Norway</text><text x="664.67" y="384.15" fill="#4C5C78">Norway</text><text x="630" y="245" fill="#fff" stroke="#fff" stroke-linecap="round" stroke-linejoin="round" stroke-width=".25em">United States</text><text x="630" y="245" fill="#E04E4B">United States</text><text x="160.07" y="330.05" fill="#fff" stroke="#fff" stroke-linecap="round" stroke-linejoin="round" stroke-width=".25em">Costa Rica</text><text x="160.07" y="330.05" fill="#E04E4B">Costa Rica</text><text x="179.97" y="263.1" fill="#fff" stroke="#fff" stroke-linecap="round" stroke-linejoin="round" stroke-width=".25em">Mexico</text><text x="179.97" y="263.1" fill="#E04E4B">Mexico</text><text x="574" y="330" fill="#fff" stroke="#fff" stroke-linecap="round" stroke-linejoin="round" stroke-width=".25em">Austria</text><text x="574" y="330" fill="#4C5C78">Austria</text><text x="524.74" y="308.08" fill="#fff" stroke="#fff" stroke-linecap="round" stroke-linejoin="round" stroke-width=".25em">Belgium</text><text x="524.74" y="308.08" fill="#4C5C78">Belgium</text><text x="379.62" y="329.4" fill="#fff" stroke="#fff" stroke-linecap="round" stroke-linejoin="round" stroke-width=".25em">Czechia</text><text x="379.62" y="329.4" fill="#4C5C78">Czechia</text><text x="338.85" y="364.71" fill="#fff" stroke="#fff" stroke-linecap="round" stroke-linejoin="round" stroke-width=".25em">Estonia</text><text x="338.85" y="364.71" fill="#4C5C78">Estonia</text><text x="303" y="206.5" fill="#fff" stroke="#fff" stroke-linecap="round" stroke-linejoin="round" stroke-width=".25em">Greece</text><text x="303" y="206.5" fill="#4C5C78">Greece</text><text x="514.99" y="242.71" fill="#fff" stroke="#fff" stroke-linecap="round" stroke-linejoin="round" stroke-width=".25em">Iceland</text><text x="514.99" y="242.71" fill="#4C5C78">Iceland</text><text x="395.2" y="230.16" fill="#fff" stroke="#fff" stroke-linecap="round" stroke-linejoin="round" stroke-width=".25em">Israel</text><text x="395.2" y="230.16" fill="#2D8587">Israel</text><text x="397.76" y="250" fill="#fff" stroke="#fff" stroke-linecap="round" stroke-linejoin="round" stroke-width=".25em">Italy</text><text x="397.76" y="250" fill="#4C5C78">Italy</text><text x="278.4" y="273.63" fill="#fff" stroke="#fff" stroke-linecap="round" stroke-linejoin="round" stroke-width=".25em">Latvia</text><text x="278.4" y="273.63" fill="#4C5C78">Latvia</text><text x="334.88" y="424.92" fill="#fff" stroke="#fff" stroke-linecap="round" stroke-linejoin="round" stroke-width=".25em">Lithuania</text><text x="334.88" y="424.92" fill="#4C5C78">Lithuania</text><text x="659.58" y="332.35" fill="#fff" stroke="#fff" stroke-linecap="round" stroke-linejoin="round" stroke-width=".25em">Luxembourg</text><text x="659.58" y="332.35" fill="#4C5C78">Luxembourg</text><text x="296.96" y="447.38" fill="#fff" stroke="#fff" stroke-linecap="round" stroke-linejoin="round" stroke-width=".25em">Poland</text><text x="296.96" y="447.38" fill="#4C5C78">Poland</text><text x="336.72" y="264.66" fill="#fff" stroke="#fff" stroke-linecap="round" stroke-linejoin="round" stroke-width=".25em">Portugal</text><text x="336.72" y="264.66" fill="#4C5C78">Portugal</text><text x="339.98" y="286.95" fill="#fff" stroke="#fff" stroke-linecap="round" stroke-linejoin="round" stroke-width=".25em">Slovakia</text><text x="339.98" y="286.95" fill="#4C5C78">Slovakia</text><text x="481.99" y="133.86" fill="#fff" stroke="#fff" stroke-linecap="round" stroke-linejoin="round" stroke-width=".25em">United Kingdom</text><text x="481.99" y="133.86" fill="#4C5C78">United Kingdom</text><text x="254.16" y="345.27" fill="#fff" stroke="#fff" stroke-linecap="round" stroke-linejoin="round" stroke-width=".25em">Croatia</text><text x="254.16" y="345.27" fill="#4C5C78">Croatia</text></g></g><g class="ScatterColorLegend clickable" cursor="pointer"><g class="legendMark"><path fill="#2D8587" d="M740.36 109.6h9v9h-9z"/><text font-size="12.6" x="754.4" y="117.9"><tspan x="754.36" y="117.88">Asia</tspan></text></g><g class="legendMark"><path fill="#4C5C78" d="M740.36 127.2h9v9h-9z"/><text font-size="12.6" x="754.4" y="135.5"><tspan x="754.36" y="135.48">Europe</tspan></text></g><g class="legendMark"><path fill="#E04E4B" d="M740.36 144.8h9v9h-9z"/><text font-size="12.6" x="754.4" y="153.1"><tspan x="754.36" y="153.08">North America</tspan></text></g><g class="legendMark"><path fill="#A8633C" d="M740.36 162.4h9v9h-9z"/><text font-size="12.6" x="754.4" y="170.7"><tspan x="754.36" y="170.68">Oceania</tspan></text></g></g><path stroke="#ccc" d="M740.36 180.2H830"/><g class="clickable"><g class="ConnectedScatterLegend"><text font-size="12.6" x="740.4" y="199.3" fill="#333"><tspan x="740.36" y="199.28">1959</tspan></text><text font-size="12.6" x="806.8" y="199.3" fill="#333"><tspan x="806.78" y="199.28">2014</tspan></text><path stroke="#666" stroke-width="1" d="M773.58 195h28.2"/><circle cx="773.58" cy="195" r="2" fill="#666" stroke="#ccc" stroke-width=".2"/><circle cx="782.98" cy="195" r="2" fill="#666" stroke="#ccc" stroke-width=".2"/><circle cx="792.38" cy="195" r="2" fill="#666" stroke="#ccc" stroke-width=".2"/><path cx="801.78" cy="195" r="3" fill="#666" stroke="#ccc" stroke-width=".2" d="M798.78 192l6 3-6 3z"/></g></g></g><g class="SourcesFooter" fill="#777"><g fill="#777"><text font-size="12.6" x="15" y="554.2"><tspan x="15" y="554.18">Source: OECD, Penn World Tables</tspan></text></g><text font-size="12.6" x="15" y="568.8"><tspan x="15" y="568.78">Note: Rent share of GDP uses GDP calculated from the expenditure approach, using OECD data. GDP per capita is taken from Penn World</tspan><tspan x="15" y="582.64">Tables</tspan></text><text font-size="12.6" x="796.4" y="554.2"><tspan x="796.44" y="554.18"><a class="cclogo" href="http://creativecommons.org/licenses/by/4.0/deed.en_US" target="_blank" fill="#777">CC BY</a></tspan></text></g></svg>