<svg xmlns="http://www.w3.org/2000/svg" version="1.1" style="font-family:Lato,'Helvetica Neue',Helvetica,Arial,sans-serif;font-size:18px;background-color:#fff;text-rendering:geometricPrecision;-webkit-font-smoothing:antialiased" width="850" height="600" viewBox="0 0 850 600"><g class="HeaderView"><g transform="matrix(.29 0 0 .29 774 15)"><svg className="owidLog" width="210" height="120" viewBox="0 0 210 120" fill="none" xmlns="http://www.w3.org/2000/svg"><g clip-path="url(#a)"><path d="M0 0h210v107.89H0V0z" fill="#002147"/><path d="M40.98 32.25c0 2.36-.38 4.53-1.12 6.51a14.26 14.26 0 0 1-8.1 8.4c-1.9.78-4.02 1.17-6.34 1.17a16.6 16.6 0 0 1-6.33-1.17 14.31 14.31 0 0 1-8.08-8.4 18.29 18.29 0 0 1-1.12-6.51c0-2.36.38-4.53 1.12-6.5.75-1.97 1.8-3.67 3.17-5.1a14.32 14.32 0 0 1 4.9-3.34c1.92-.8 4.03-1.19 6.34-1.19 2.32 0 4.43.4 6.34 1.19 1.92.8 3.56 1.9 4.93 3.34a14.87 14.87 0 0 1 3.17 5.1 18.1 18.1 0 0 1 1.12 6.5zm-4.38 0c0-1.94-.26-3.68-.8-5.22a10.91 10.91 0 0 0-2.24-3.89 9.68 9.68 0 0 0-3.52-2.46 11.95 11.95 0 0 0-4.62-.86c-1.68 0-3.21.28-4.6.86a9.88 9.88 0 0 0-3.54 2.46 10.91 10.91 0 0 0-2.24 3.9c-.53 1.53-.8 3.27-.8 5.2 0 1.94.27 3.68.8 5.22a11.17 11.17 0 0 0 2.24 3.9 10.01 10.01 0 0 0 3.55 2.44c1.38.56 2.9.83 4.6.83s3.24-.27 4.61-.83a9.8 9.8 0 0 0 3.52-2.44 11.17 11.17 0 0 0 2.25-3.9c.53-1.54.8-3.28.8-5.21zm26.22-6.54V48H60.5c-.56 0-.9-.27-1.05-.81l-.31-2.4a12.45 12.45 0 0 1-3.26 2.6c-1.2.64-2.58.96-4.13.96-1.22 0-2.3-.2-3.24-.6a6.52 6.52 0 0 1-2.33-1.7 7.37 7.37 0 0 1-1.43-2.67c-.3-1.04-.46-2.2-.46-3.45V25.7h3.91v14.22c0 1.68.38 2.99 1.15 3.91.77.93 1.96 1.39 3.54 1.39 1.16 0 2.24-.27 3.23-.82a10.42 10.42 0 0 0 2.8-2.28V25.7h3.91zm8.61 4.47a9.94 9.94 0 0 1 2.6-3.56 5.64 5.64 0 0 1 3.76-1.3c.47 0 .92.05 1.34.15.44.1.83.27 1.17.49l-.3 2.92c-.09.37-.3.55-.66.55-.2 0-.5-.04-.9-.13a6.21 6.21 0 0 0-3.24.18 4.23 4.23 0 0 0-1.47.92c-.42.4-.81.9-1.17 1.5-.33.58-.64 1.26-.92 2.02V48H67.7V25.71h2.25c.42 0 .72.08.88.25.16.16.27.44.33.83l.26 3.39zm61.16-13.7L122.75 48h-3.82l-7.99-24.05a21.95 21.95 0 0 1-.42-1.58 38.36 38.36 0 0 1-.44 1.58L102.05 48h-3.83L88.4 16.47h3.54c.38 0 .7.1.95.29.26.2.43.43.5.73l6.52 21.9.28 1.28.29 1.46.3-1.46.38-1.27 7.41-21.91c.1-.25.26-.48.51-.69.27-.22.58-.33.95-.33h1.23c.38 0 .69.1.92.29a1.77 1.77 0 0 1 .53.73l7.4 21.9a28.4 28.4 0 0 1 .68 2.62 29.52 29.52 0 0 1 .52-2.61l6.54-21.91a1.31 1.31 0 0 1 .48-.7c.27-.21.58-.32.95-.32h3.32zm9.35 8.88c1.63 0 3.1.27 4.4.82a9.43 9.43 0 0 1 5.46 5.94c.5 1.4.74 2.98.74 4.73 0 1.76-.25 3.34-.74 4.75a9.43 9.43 0 0 1-5.46 5.92c-1.3.52-2.77.79-4.4.79-1.64 0-3.12-.27-4.44-.8a9.42 9.42 0 0 1-3.35-2.3c-.92-1-1.63-2.2-2.13-3.61-.49-1.41-.73-3-.73-4.75s.24-3.33.73-4.73c.5-1.43 1.2-2.64 2.13-3.63a9.4 9.4 0 0 1 3.35-2.31c1.32-.55 2.8-.82 4.44-.82zm0 19.89c2.2 0 3.84-.73 4.93-2.2 1.08-1.48 1.63-3.54 1.63-6.18 0-2.66-.55-4.72-1.63-6.2-1.09-1.49-2.73-2.23-4.93-2.23-1.12 0-2.09.2-2.93.57a5.71 5.71 0 0 0-2.06 1.65 7.5 7.5 0 0 0-1.24 2.67c-.26 1.04-.4 2.22-.4 3.54 0 2.64.55 4.7 1.64 6.18 1.1 1.47 2.76 2.2 4.99 2.2zm17.97-15.07a9.94 9.94 0 0 1 2.6-3.56 5.64 5.64 0 0 1 3.76-1.3c.47 0 .91.05 1.34.15.44.1.83.27 1.16.49l-.28 2.92c-.09.37-.31.55-.66.55-.2 0-.5-.04-.9-.13a6.2 6.2 0 0 0-3.24.18 4.23 4.23 0 0 0-1.47.92c-.43.4-.82.9-1.17 1.5a13.1 13.1 0 0 0-.92 2.02V48h-3.94V25.71h2.24c.43 0 .72.08.88.25.17.16.28.44.33.83l.27 3.39zm15.04-14.59V48h-3.92V15.6h3.92zm19.55 15.43a6.22 6.22 0 0 0-2.38-2.05 6.7 6.7 0 0 0-2.86-.6c-2.07 0-3.66.75-4.77 2.23-1.12 1.48-1.68 3.6-1.68 6.33 0 1.46.13 2.7.38 3.74a7.29 7.29 0 0 0 1.1 2.56 4.35 4.35 0 0 0 1.78 1.45c.7.3 1.5.46 2.4.46 1.29 0 2.41-.3 3.36-.88a9.6 9.6 0 0 0 2.67-2.49V31.02zm3.91-15.43V48h-2.33c-.56 0-.9-.27-1.06-.81l-.35-2.71a12.13 12.13 0 0 1-3.25 2.77 8.28 8.28 0 0 1-4.23 1.06 7.31 7.31 0 0 1-6.14-2.9c-.73-.96-1.3-2.15-1.69-3.57a18.35 18.35 0 0 1 .07-9.48 11.29 11.29 0 0 1 1.89-3.7 8.7 8.7 0 0 1 7.06-3.34 7.96 7.96 0 0 1 6.12 2.62V15.59h3.91zM46.61 70.71V93H42.7V70.71h3.91zm.84-7c0 .39-.08.75-.24 1.09a2.81 2.81 0 0 1-1.52 1.47 2.67 2.67 0 0 1-2.16 0 2.9 2.9 0 0 1-1.45-1.47 2.67 2.67 0 0 1 0-2.16c.15-.35.35-.65.6-.9.25-.27.53-.47.85-.62a2.67 2.67 0 0 1 2.16 0c.35.15.65.35.9.62.27.25.47.55.62.9.16.34.24.7.24 1.08zm7.97 10.24c.49-.54 1-1.04 1.54-1.48a9.85 9.85 0 0 1 3.66-1.84 8.96 8.96 0 0 1 5.43.35c.94.4 1.72.97 2.33 1.71a7.36 7.36 0 0 1 1.43 2.67c.32 1.04.49 2.19.49 3.45V93h-3.94V78.81c0-1.69-.4-3-1.17-3.92-.76-.93-1.93-1.4-3.5-1.4a6.6 6.6 0 0 0-3.25.83c-1 .56-1.92 1.31-2.77 2.27V93h-3.94V70.71h2.35c.56 0 .9.28 1.04.82l.3 2.42zm57.7 3.3c0 2.36-.37 4.5-1.11 6.44a14.3 14.3 0 0 1-3.17 4.98 14.1 14.1 0 0 1-4.93 3.2c-1.9.76-4.02 1.13-6.33 1.13H85.8V61.47h11.77c2.31 0 4.42.39 6.33 1.15a13.8 13.8 0 0 1 8.1 8.18 17.75 17.75 0 0 1 1.12 6.45zm-4.37 0c0-1.94-.26-3.67-.8-5.2a10.94 10.94 0 0 0-2.23-3.87 9.57 9.57 0 0 0-3.53-2.42 12.23 12.23 0 0 0-4.61-.83h-7.5v24.62h7.5c1.7 0 3.24-.28 4.61-.84a9.7 9.7 0 0 0 3.53-2.4 10.94 10.94 0 0 0 2.24-3.87c.53-1.53.8-3.26.8-5.2zm19.8 5.72c-1.8.06-3.34.2-4.62.44-1.26.22-2.3.51-3.1.88-.8.36-1.37.8-1.74 1.3-.35.5-.53 1.05-.53 1.67 0 .58.1 1.1.3 1.52a3 3 0 0 0 .76 1.05c.34.27.73.46 1.17.6a6.13 6.13 0 0 0 1.45.17 7.28 7.28 0 0 0 3.5-.81 11.95 11.95 0 0 0 2.82-2.2v-4.62zm-12.65-9.11a12.73 12.73 0 0 1 3.98-2.66c1.43-.59 3-.88 4.73-.88 1.25 0 2.36.2 3.33.61a6.81 6.81 0 0 1 3.94 4.38c.33 1.04.5 2.19.5 3.43V93h-1.74a1.8 1.8 0 0 1-.88-.18c-.2-.13-.36-.38-.48-.74l-.44-2.12-1.72 1.46a9.48 9.48 0 0 1-3.74 1.7c-.69.15-1.46.23-2.3.23-.87 0-1.69-.12-2.45-.35a5.34 5.34 0 0 1-3.34-2.93 6.64 6.64 0 0 1-.49-2.64c0-.88.25-1.72.73-2.53a6.33 6.33 0 0 1 2.35-2.17c1.09-.63 2.5-1.15 4.25-1.54 1.75-.41 3.89-.65 6.42-.7v-1.75c0-1.73-.37-3.03-1.12-3.91-.75-.9-1.84-1.34-3.28-1.34-.97 0-1.78.12-2.44.37-.64.23-1.2.5-1.7.81l-1.23.82c-.33.23-.67.35-1 .35-.27 0-.5-.07-.69-.2a2.1 2.1 0 0 1-.48-.53l-.7-1.25zm27.67 19.5c-1.76 0-3.12-.5-4.07-1.48-.94-.98-1.41-2.4-1.41-4.25V74h-2.68a.9.9 0 0 1-.6-.2c-.16-.14-.24-.36-.24-.66v-1.56l3.65-.46.9-6.89a.9.9 0 0 1 .29-.52.88.88 0 0 1 .62-.22H142v7.67h6.44V74H142v13.38c0 .94.22 1.63.68 2.09.45.45 1.04.68 1.76.68a3.21 3.21 0 0 0 1.85-.53l.55-.35c.16-.12.3-.18.41-.18.2 0 .4.13.55.38l1.15 1.87a7.45 7.45 0 0 1-2.44 1.5 8.53 8.53 0 0 1-2.95.52zm19.68-10.4c-1.8.07-3.34.21-4.62.45-1.26.22-2.3.51-3.1.88-.8.36-1.37.8-1.74 1.3-.35.5-.53 1.05-.53 1.67 0 .58.1 1.1.3 1.52a2.9 2.9 0 0 0 .76 1.05c.34.27.73.46 1.17.6a6.13 6.13 0 0 0 1.45.17 7.3 7.3 0 0 0 3.5-.81 12.04 12.04 0 0 0 2.82-2.2v-4.62zm-12.65-9.1a12.72 12.72 0 0 1 3.99-2.66c1.42-.59 3-.88 4.72-.88 1.25 0 2.36.2 3.33.61a6.81 6.81 0 0 1 3.94 4.38c.33 1.04.5 2.19.5 3.43V93h-1.74a1.8 1.8 0 0 1-.88-.18c-.2-.13-.36-.38-.48-.74l-.44-2.12-1.72 1.46a9.48 9.48 0 0 1-3.74 1.7c-.69.15-1.46.23-2.3.23-.87 0-1.69-.12-2.45-.35a5.33 5.33 0 0 1-3.34-2.93 6.62 6.62 0 0 1-.49-2.64c0-.88.25-1.72.73-2.53a6.33 6.33 0 0 1 2.35-2.17c1.09-.63 2.5-1.15 4.25-1.54a31.2 31.2 0 0 1 6.42-.7v-1.75c0-1.73-.37-3.03-1.12-3.91-.75-.9-1.84-1.34-3.28-1.34-.97 0-1.78.12-2.44.37-.64.23-1.2.5-1.7.81l-1.22.82c-.34.23-.68.35-1.02.35-.26 0-.49-.07-.68-.2a1.88 1.88 0 0 1-.48-.53l-.7-1.25zM40.98 32.25c0 2.36-.38 4.53-1.12 6.51a14.26 14.26 0 0 1-8.1 8.4c-1.9.78-4.02 1.17-6.34 1.17a16.6 16.6 0 0 1-6.33-1.17 14.31 14.31 0 0 1-8.08-8.4 18.29 18.29 0 0 1-1.12-6.51c0-2.36.38-4.53 1.12-6.5.75-1.97 1.8-3.67 3.17-5.1a14.32 14.32 0 0 1 4.9-3.34c1.92-.8 4.03-1.19 6.34-1.19 2.32 0 4.43.4 6.34 1.19 1.92.8 3.56 1.9 4.93 3.34a14.87 14.87 0 0 1 3.17 5.1 18.1 18.1 0 0 1 1.12 6.5zm-4.38 0c0-1.94-.26-3.68-.8-5.22a10.91 10.91 0 0 0-2.24-3.89 9.68 9.68 0 0 0-3.52-2.46 11.95 11.95 0 0 0-4.62-.86c-1.68 0-3.21.28-4.6.86a9.88 9.88 0 0 0-3.54 2.46 10.91 10.91 0 0 0-2.24 3.9c-.53 1.53-.8 3.27-.8 5.2 0 1.94.27 3.68.8 5.22a11.17 11.17 0 0 0 2.24 3.9 10.01 10.01 0 0 0 3.55 2.44c1.38.56 2.9.83 4.6.83s3.24-.27 4.61-.83a9.8 9.8 0 0 0 3.52-2.44 11.17 11.17 0 0 0 2.25-3.9c.53-1.54.8-3.28.8-5.21zm26.22-6.54V48H60.5c-.56 0-.9-.27-1.05-.81l-.31-2.4a12.45 12.45 0 0 1-3.26 2.6c-1.2.64-2.58.96-4.13.96-1.22 0-2.3-.2-3.24-.6a6.52 6.52 0 0 1-2.33-1.7 7.37 7.37 0 0 1-1.43-2.67c-.3-1.04-.46-2.2-.46-3.45V25.7h3.91v14.22c0 1.68.38 2.99 1.15 3.91.77.93 1.96 1.39 3.54 1.39 1.16 0 2.24-.27 3.23-.82a10.42 10.42 0 0 0 2.8-2.28V25.7h3.91zm8.61 4.47a9.94 9.94 0 0 1 2.6-3.56 5.64 5.64 0 0 1 3.76-1.3c.47 0 .92.05 1.34.15.44.1.83.27 1.17.49l-.3 2.92c-.09.37-.3.55-.66.55-.2 0-.5-.04-.9-.13a6.21 6.21 0 0 0-3.24.18 4.23 4.23 0 0 0-1.47.92c-.42.4-.81.9-1.17 1.5-.33.58-.64 1.26-.92 2.02V48H67.7V25.71h2.25c.42 0 .72.08.88.25.16.16.27.44.33.83l.26 3.39zm61.16-13.7L122.75 48h-3.82l-7.99-24.05a21.95 21.95 0 0 1-.42-1.58 38.36 38.36 0 0 1-.44 1.58L102.05 48h-3.83L88.4 16.47h3.54c.38 0 .7.1.95.29.26.2.43.43.5.73l6.52 21.9.28 1.28.29 1.46.3-1.46.38-1.27 7.41-21.91c.1-.25.26-.48.51-.69.27-.22.58-.33.95-.33h1.23c.38 0 .69.1.92.29a1.77 1.77 0 0 1 .53.73l7.4 21.9a28.4 28.4 0 0 1 .68 2.62 29.52 29.52 0 0 1 .52-2.61l6.54-21.91a1.31 1.31 0 0 1 .48-.7c.27-.21.58-.32.95-.32h3.32zm9.35 8.88c1.63 0 3.1.27 4.4.82a9.43 9.43 0 0 1 5.46 5.94c.5 1.4.74 2.98.74 4.73 0 1.76-.25 3.34-.74 4.75a9.43 9.43 0 0 1-5.46 5.92c-1.3.52-2.77.79-4.4.79-1.64 0-3.12-.27-4.44-.8a9.42 9.42 0 0 1-3.35-2.3c-.92-1-1.63-2.2-2.13-3.61-.49-1.41-.73-3-.73-4.75s.24-3.33.73-4.73c.5-1.43 1.2-2.64 2.13-3.63a9.4 9.4 0 0 1 3.35-2.31c1.32-.55 2.8-.82 4.44-.82zm0 19.89c2.2 0 3.84-.73 4.93-2.2 1.08-1.48 1.63-3.54 1.63-6.18 0-2.66-.55-4.72-1.63-6.2-1.09-1.49-2.73-2.23-4.93-2.23-1.12 0-2.09.2-2.93.57a5.71 5.71 0 0 0-2.06 1.65 7.5 7.5 0 0 0-1.24 2.67c-.26 1.04-.4 2.22-.4 3.54 0 2.64.55 4.7 1.64 6.18 1.1 1.47 2.76 2.2 4.99 2.2zm17.97-15.07a9.94 9.94 0 0 1 2.6-3.56 5.64 5.64 0 0 1 3.76-1.3c.47 0 .91.05 1.34.15.44.1.83.27 1.16.49l-.28 2.92c-.09.37-.31.55-.66.55-.2 0-.5-.04-.9-.13a6.2 6.2 0 0 0-3.24.18 4.23 4.23 0 0 0-1.47.92c-.43.4-.82.9-1.17 1.5a13.1 13.1 0 0 0-.92 2.02V48h-3.94V25.71h2.24c.43 0 .72.08.88.25.17.16.28.44.33.83l.27 3.39zm15.04-14.59V48h-3.92V15.6h3.92zm19.55 15.43a6.22 6.22 0 0 0-2.38-2.05 6.7 6.7 0 0 0-2.86-.6c-2.07 0-3.66.75-4.77 2.23-1.12 1.48-1.68 3.6-1.68 6.33 0 1.46.13 2.7.38 3.74a7.29 7.29 0 0 0 1.1 2.56 4.35 4.35 0 0 0 1.78 1.45c.7.3 1.5.46 2.4.46 1.29 0 2.41-.3 3.36-.88a9.6 9.6 0 0 0 2.67-2.49V31.02zm3.91-15.43V48h-2.33c-.56 0-.9-.27-1.06-.81l-.35-2.71a12.13 12.13 0 0 1-3.25 2.77 8.28 8.28 0 0 1-4.23 1.06 7.31 7.31 0 0 1-6.14-2.9c-.73-.96-1.3-2.15-1.69-3.57a18.35 18.35 0 0 1 .07-9.48 11.29 11.29 0 0 1 1.89-3.7 8.7 8.7 0 0 1 7.06-3.34 7.96 7.96 0 0 1 6.12 2.62V15.59h3.91zM46.61 70.71V93H42.7V70.71h3.91zm.84-7c0 .39-.08.75-.24 1.09a2.81 2.81 0 0 1-1.52 1.47 2.67 2.67 0 0 1-2.16 0 2.9 2.9 0 0 1-1.45-1.47 2.67 2.67 0 0 1 0-2.16c.15-.35.35-.65.6-.9.25-.27.53-.47.85-.62a2.67 2.67 0 0 1 2.16 0c.35.15.65.35.9.62.27.25.47.55.62.9.16.34.24.7.24 1.08zm7.97 10.24c.49-.54 1-1.04 1.54-1.48a9.85 9.85 0 0 1 3.66-1.84 8.96 8.96 0 0 1 5.43.35c.94.4 1.72.97 2.33 1.71a7.36 7.36 0 0 1 1.43 2.67c.32 1.04.49 2.19.49 3.45V93h-3.94V78.81c0-1.69-.4-3-1.17-3.92-.76-.93-1.93-1.4-3.5-1.4a6.6 6.6 0 0 0-3.25.83c-1 .56-1.92 1.31-2.77 2.27V93h-3.94V70.71h2.35c.56 0 .9.28 1.04.82l.3 2.42zm57.7 3.3c0 2.36-.37 4.5-1.11 6.44a14.3 14.3 0 0 1-3.17 4.98 14.1 14.1 0 0 1-4.93 3.2c-1.9.76-4.02 1.13-6.33 1.13H85.8V61.47h11.77c2.31 0 4.42.39 6.33 1.15a13.8 13.8 0 0 1 8.1 8.18 17.75 17.75 0 0 1 1.12 6.45zm-4.37 0c0-1.94-.26-3.67-.8-5.2a10.94 10.94 0 0 0-2.23-3.87 9.57 9.57 0 0 0-3.53-2.42 12.23 12.23 0 0 0-4.61-.83h-7.5v24.62h7.5c1.7 0 3.24-.28 4.61-.84a9.7 9.7 0 0 0 3.53-2.4 10.94 10.94 0 0 0 2.24-3.87c.53-1.53.8-3.26.8-5.2zm19.8 5.72c-1.8.06-3.34.2-4.62.44-1.26.22-2.3.51-3.1.88-.8.36-1.37.8-1.74 1.3-.35.5-.53 1.05-.53 1.67 0 .58.1 1.1.3 1.52a3 3 0 0 0 .76 1.05c.34.27.73.46 1.17.6a6.13 6.13 0 0 0 1.45.17 7.28 7.28 0 0 0 3.5-.81 11.95 11.95 0 0 0 2.82-2.2v-4.62zm-12.65-9.11a12.73 12.73 0 0 1 3.98-2.66c1.43-.59 3-.88 4.73-.88 1.25 0 2.36.2 3.33.61a6.81 6.81 0 0 1 3.94 4.38c.33 1.04.5 2.19.5 3.43V93h-1.74a1.8 1.8 0 0 1-.88-.18c-.2-.13-.36-.38-.48-.74l-.44-2.12-1.72 1.46a9.48 9.48 0 0 1-3.74 1.7c-.69.15-1.46.23-2.3.23-.87 0-1.69-.12-2.45-.35a5.34 5.34 0 0 1-3.34-2.93 6.64 6.64 0 0 1-.49-2.64c0-.88.25-1.72.73-2.53a6.33 6.33 0 0 1 2.35-2.17c1.09-.63 2.5-1.15 4.25-1.54 1.75-.41 3.89-.65 6.42-.7v-1.75c0-1.73-.37-3.03-1.12-3.91-.75-.9-1.84-1.34-3.28-1.34-.97 0-1.78.12-2.44.37-.64.23-1.2.5-1.7.81l-1.23.82c-.33.23-.67.35-1 .35-.27 0-.5-.07-.69-.2a2.1 2.1 0 0 1-.48-.53l-.7-1.25zm27.67 19.5c-1.76 0-3.12-.5-4.07-1.48-.94-.98-1.41-2.4-1.41-4.25V74h-2.68a.9.9 0 0 1-.6-.2c-.16-.14-.24-.36-.24-.66v-1.56l3.65-.46.9-6.89a.9.9 0 0 1 .29-.52.88.88 0 0 1 .62-.22H142v7.67h6.44V74H142v13.38c0 .94.22 1.63.68 2.09.45.45 1.04.68 1.76.68a3.21 3.21 0 0 0 1.85-.53l.55-.35c.16-.12.3-.18.41-.18.2 0 .4.13.55.38l1.15 1.87a7.45 7.45 0 0 1-2.44 1.5 8.53 8.53 0 0 1-2.95.52zm19.68-10.4c-1.8.07-3.34.21-4.62.45-1.26.22-2.3.51-3.1.88-.8.36-1.37.8-1.74 1.3-.35.5-.53 1.05-.53 1.67 0 .58.1 1.1.3 1.52a2.9 2.9 0 0 0 .76 1.05c.34.27.73.46 1.17.6a6.13 6.13 0 0 0 1.45.17 7.3 7.3 0 0 0 3.5-.81 12.04 12.04 0 0 0 2.82-2.2v-4.62zm-12.65-9.1a12.72 12.72 0 0 1 3.99-2.66c1.42-.59 3-.88 4.72-.88 1.25 0 2.36.2 3.33.61a6.81 6.81 0 0 1 3.94 4.38c.33 1.04.5 2.19.5 3.43V93h-1.74a1.8 1.8 0 0 1-.88-.18c-.2-.13-.36-.38-.48-.74l-.44-2.12-1.72 1.46a9.48 9.48 0 0 1-3.74 1.7c-.69.15-1.46.23-2.3.23-.87 0-1.69-.12-2.45-.35a5.33 5.33 0 0 1-3.34-2.93 6.62 6.62 0 0 1-.49-2.64c0-.88.25-1.72.73-2.53a6.33 6.33 0 0 1 2.35-2.17c1.09-.63 2.5-1.15 4.25-1.54a31.2 31.2 0 0 1 6.42-.7v-1.75c0-1.73-.37-3.03-1.12-3.91-.75-.9-1.84-1.34-3.28-1.34-.97 0-1.78.12-2.44.37-.64.23-1.2.5-1.7.81l-1.22.82c-.34.23-.68.35-1.02.35-.26 0-.49-.07-.68-.2a1.88 1.88 0 0 1-.48-.53l-.7-1.25zM40.98 32.25c0 2.36-.38 4.53-1.12 6.51a14.26 14.26 0 0 1-8.1 8.4c-1.9.78-4.02 1.17-6.34 1.17a16.6 16.6 0 0 1-6.33-1.17 14.31 14.31 0 0 1-8.08-8.4 18.29 18.29 0 0 1-1.12-6.51c0-2.36.38-4.53 1.12-6.5.75-1.97 1.8-3.67 3.17-5.1a14.32 14.32 0 0 1 4.9-3.34c1.92-.8 4.03-1.19 6.34-1.19 2.32 0 4.43.4 6.34 1.19 1.92.8 3.56 1.9 4.93 3.34a14.87 14.87 0 0 1 3.17 5.1 18.1 18.1 0 0 1 1.12 6.5zm-4.38 0c0-1.94-.26-3.68-.8-5.22a10.91 10.91 0 0 0-2.24-3.89 9.68 9.68 0 0 0-3.52-2.46 11.95 11.95 0 0 0-4.62-.86c-1.68 0-3.21.28-4.6.86a9.88 9.88 0 0 0-3.54 2.46 10.91 10.91 0 0 0-2.24 3.9c-.53 1.53-.8 3.27-.8 5.2 0 1.94.27 3.68.8 5.22a11.17 11.17 0 0 0 2.24 3.9 10.01 10.01 0 0 0 3.55 2.44c1.38.56 2.9.83 4.6.83s3.24-.27 4.61-.83a9.8 9.8 0 0 0 3.52-2.44 11.17 11.17 0 0 0 2.25-3.9c.53-1.54.8-3.28.8-5.21zm26.22-6.54V48H60.5c-.56 0-.9-.27-1.05-.81l-.31-2.4a12.45 12.45 0 0 1-3.26 2.6c-1.2.64-2.58.96-4.13.96-1.22 0-2.3-.2-3.24-.6a6.52 6.52 0 0 1-2.33-1.7 7.37 7.37 0 0 1-1.43-2.67c-.3-1.04-.46-2.2-.46-3.45V25.7h3.91v14.22c0 1.68.38 2.99 1.15 3.91.77.93 1.96 1.39 3.54 1.39 1.16 0 2.24-.27 3.23-.82a10.42 10.42 0 0 0 2.8-2.28V25.7h3.91zm8.61 4.47a9.94 9.94 0 0 1 2.6-3.56 5.64 5.64 0 0 1 3.76-1.3c.47 0 .92.05 1.34.15.44.1.83.27 1.17.49l-.3 2.92c-.09.37-.3.55-.66.55-.2 0-.5-.04-.9-.13a6.21 6.21 0 0 0-3.24.18 4.23 4.23 0 0 0-1.47.92c-.42.4-.81.9-1.17 1.5-.33.58-.64 1.26-.92 2.02V48H67.7V25.71h2.25c.42 0 .72.08.88.25.16.16.27.44.33.83l.26 3.39zm61.16-13.7L122.75 48h-3.82l-7.99-24.05a21.95 21.95 0 0 1-.42-1.58 38.36 38.36 0 0 1-.44 1.58L102.05 48h-3.83L88.4 16.47h3.54c.38 0 .7.1.95.29.26.2.43.43.5.73l6.52 21.9.28 1.28.29 1.46.3-1.46.38-1.27 7.41-21.91c.1-.25.26-.48.51-.69.27-.22.58-.33.95-.33h1.23c.38 0 .69.1.92.29a1.77 1.77 0 0 1 .53.73l7.4 21.9a28.4 28.4 0 0 1 .68 2.62 29.52 29.52 0 0 1 .52-2.61l6.54-21.91a1.31 1.31 0 0 1 .48-.7c.27-.21.58-.32.95-.32h3.32zm9.35 8.88c1.63 0 3.1.27 4.4.82a9.43 9.43 0 0 1 5.46 5.94c.5 1.4.74 2.98.74 4.73 0 1.76-.25 3.34-.74 4.75a9.43 9.43 0 0 1-5.46 5.92c-1.3.52-2.77.79-4.4.79-1.64 0-3.12-.27-4.44-.8a9.42 9.42 0 0 1-3.35-2.3c-.92-1-1.63-2.2-2.13-3.61-.49-1.41-.73-3-.73-4.75s.24-3.33.73-4.73c.5-1.43 1.2-2.64 2.13-3.63a9.4 9.4 0 0 1 3.35-2.31c1.32-.55 2.8-.82 4.44-.82zm0 19.89c2.2 0 3.84-.73 4.93-2.2 1.08-1.48 1.63-3.54 1.63-6.18 0-2.66-.55-4.72-1.63-6.2-1.09-1.49-2.73-2.23-4.93-2.23-1.12 0-2.09.2-2.93.57a5.71 5.71 0 0 0-2.06 1.65 7.5 7.5 0 0 0-1.24 2.67c-.26 1.04-.4 2.22-.4 3.54 0 2.64.55 4.7 1.64 6.18 1.1 1.47 2.76 2.2 4.99 2.2zm17.97-15.07a9.94 9.94 0 0 1 2.6-3.56 5.64 5.64 0 0 1 3.76-1.3c.47 0 .91.05 1.34.15.44.1.83.27 1.16.49l-.28 2.92c-.09.37-.31.55-.66.55-.2 0-.5-.04-.9-.13a6.2 6.2 0 0 0-3.24.18 4.23 4.23 0 0 0-1.47.92c-.43.4-.82.9-1.17 1.5a13.1 13.1 0 0 0-.92 2.02V48h-3.94V25.71h2.24c.43 0 .72.08.88.25.17.16.28.44.33.83l.27 3.39zm15.04-14.59V48h-3.92V15.6h3.92zm19.55 15.43a6.22 6.22 0 0 0-2.38-2.05 6.7 6.7 0 0 0-2.86-.6c-2.07 0-3.66.75-4.77 2.23-1.12 1.48-1.68 3.6-1.68 6.33 0 1.46.13 2.7.38 3.74a7.29 7.29 0 0 0 1.1 2.56 4.35 4.35 0 0 0 1.78 1.45c.7.3 1.5.46 2.4.46 1.29 0 2.41-.3 3.36-.88a9.6 9.6 0 0 0 2.67-2.49V31.02zm3.91-15.43V48h-2.33c-.56 0-.9-.27-1.06-.81l-.35-2.71a12.13 12.13 0 0 1-3.25 2.77 8.28 8.28 0 0 1-4.23 1.06 7.31 7.31 0 0 1-6.14-2.9c-.73-.96-1.3-2.15-1.69-3.57a18.35 18.35 0 0 1 .07-9.48 11.29 11.29 0 0 1 1.89-3.7 8.7 8.7 0 0 1 7.06-3.34 7.96 7.96 0 0 1 6.12 2.62V15.59h3.91zM46.61 70.71V93H42.7V70.71h3.91zm.84-7c0 .39-.08.75-.24 1.09a2.81 2.81 0 0 1-1.52 1.47 2.67 2.67 0 0 1-2.16 0 2.9 2.9 0 0 1-1.45-1.47 2.67 2.67 0 0 1 0-2.16c.15-.35.35-.65.6-.9.25-.27.53-.47.85-.62a2.67 2.67 0 0 1 2.16 0c.35.15.65.35.9.62.27.25.47.55.62.9.16.34.24.7.24 1.08zm7.97 10.24c.49-.54 1-1.04 1.54-1.48a9.85 9.85 0 0 1 3.66-1.84 8.96 8.96 0 0 1 5.43.35c.94.4 1.72.97 2.33 1.71a7.36 7.36 0 0 1 1.43 2.67c.32 1.04.49 2.19.49 3.45V93h-3.94V78.81c0-1.69-.4-3-1.17-3.92-.76-.93-1.93-1.4-3.5-1.4a6.6 6.6 0 0 0-3.25.83c-1 .56-1.92 1.31-2.77 2.27V93h-3.94V70.71h2.35c.56 0 .9.28 1.04.82l.3 2.42zm57.7 3.3c0 2.36-.37 4.5-1.11 6.44a14.3 14.3 0 0 1-3.17 4.98 14.1 14.1 0 0 1-4.93 3.2c-1.9.76-4.02 1.13-6.33 1.13H85.8V61.47h11.77c2.31 0 4.42.39 6.33 1.15a13.8 13.8 0 0 1 8.1 8.18 17.75 17.75 0 0 1 1.12 6.45zm-4.37 0c0-1.94-.26-3.67-.8-5.2a10.94 10.94 0 0 0-2.23-3.87 9.57 9.57 0 0 0-3.53-2.42 12.23 12.23 0 0 0-4.61-.83h-7.5v24.62h7.5c1.7 0 3.24-.28 4.61-.84a9.7 9.7 0 0 0 3.53-2.4 10.94 10.94 0 0 0 2.24-3.87c.53-1.53.8-3.26.8-5.2zm19.8 5.72c-1.8.06-3.34.2-4.62.44-1.26.22-2.3.51-3.1.88-.8.36-1.37.8-1.74 1.3-.35.5-.53 1.05-.53 1.67 0 .58.1 1.1.3 1.52a3 3 0 0 0 .76 1.05c.34.27.73.46 1.17.6a6.13 6.13 0 0 0 1.45.17 7.28 7.28 0 0 0 3.5-.81 11.95 11.95 0 0 0 2.82-2.2v-4.62zm-12.65-9.11a12.73 12.73 0 0 1 3.98-2.66c1.43-.59 3-.88 4.73-.88 1.25 0 2.36.2 3.33.61a6.81 6.81 0 0 1 3.94 4.38c.33 1.04.5 2.19.5 3.43V93h-1.74a1.8 1.8 0 0 1-.88-.18c-.2-.13-.36-.38-.48-.74l-.44-2.12-1.72 1.46a9.48 9.48 0 0 1-3.74 1.7c-.69.15-1.46.23-2.3.23-.87 0-1.69-.12-2.45-.35a5.34 5.34 0 0 1-3.34-2.93 6.64 6.64 0 0 1-.49-2.64c0-.88.25-1.72.73-2.53a6.33 6.33 0 0 1 2.35-2.17c1.09-.63 2.5-1.15 4.25-1.54 1.75-.41 3.89-.65 6.42-.7v-1.75c0-1.73-.37-3.03-1.12-3.91-.75-.9-1.84-1.34-3.28-1.34-.97 0-1.78.12-2.44.37-.64.23-1.2.5-1.7.81l-1.23.82c-.33.23-.67.35-1 .35-.27 0-.5-.07-.69-.2a2.1 2.1 0 0 1-.48-.53l-.7-1.25zm27.67 19.5c-1.76 0-3.12-.5-4.07-1.48-.94-.98-1.41-2.4-1.41-4.25V74h-2.68a.9.9 0 0 1-.6-.2c-.16-.14-.24-.36-.24-.66v-1.56l3.65-.46.9-6.89a.9.9 0 0 1 .29-.52.88.88 0 0 1 .62-.22H142v7.67h6.44V74H142v13.38c0 .94.22 1.63.68 2.09.45.45 1.04.68 1.76.68a3.21 3.21 0 0 0 1.85-.53l.55-.35c.16-.12.3-.18.41-.18.2 0 .4.13.55.38l1.15 1.87a7.45 7.45 0 0 1-2.44 1.5 8.53 8.53 0 0 1-2.95.52zm19.68-10.4c-1.8.07-3.34.21-4.62.45-1.26.22-2.3.51-3.1.88-.8.36-1.37.8-1.74 1.3-.35.5-.53 1.05-.53 1.67 0 .58.1 1.1.3 1.52a2.9 2.9 0 0 0 .76 1.05c.34.27.73.46 1.17.6a6.13 6.13 0 0 0 1.45.17 7.3 7.3 0 0 0 3.5-.81 12.04 12.04 0 0 0 2.82-2.2v-4.62zm-12.65-9.1a12.72 12.72 0 0 1 3.99-2.66c1.42-.59 3-.88 4.72-.88 1.25 0 2.36.2 3.33.61a6.81 6.81 0 0 1 3.94 4.38c.33 1.04.5 2.19.5 3.43V93h-1.74a1.8 1.8 0 0 1-.88-.18c-.2-.13-.36-.38-.48-.74l-.44-2.12-1.72 1.46a9.48 9.48 0 0 1-3.74 1.7c-.69.15-1.46.23-2.3.23-.87 0-1.69-.12-2.45-.35a5.33 5.33 0 0 1-3.34-2.93 6.62 6.62 0 0 1-.49-2.64c0-.88.25-1.72.73-2.53a6.33 6.33 0 0 1 2.35-2.17c1.09-.63 2.5-1.15 4.25-1.54a31.2 31.2 0 0 1 6.42-.7v-1.75c0-1.73-.37-3.03-1.12-3.91-.75-.9-1.84-1.34-3.28-1.34-.97 0-1.78.12-2.44.37-.64.23-1.2.5-1.7.81l-1.22.82c-.34.23-.68.35-1.02.35-.26 0-.49-.07-.68-.2a1.88 1.88 0 0 1-.48-.53l-.7-1.25z" fill="#fff"/><path fill="#D42B21" d="M0 106.79h210V120H0z"/></g><defs><clipPath id="a"><path fill="#fff" d="M0 0h210v120H0z"/></clipPath></defs></svg></g><a href="https://ourworldindata.org/grapher/annual-working-hours-vs-gdp-per-capita-pwt" style="font-family:&quot;Playfair Display&quot;,Georgia,&quot;Times New Roman&quot;,serif" target="_blank" rel="noopener"><text font-size="25.2" x="15" y="35.2" fill="#555"><tspan x="15" y="35.16">Annual working hours vs. GDP per capita</tspan></text></a><text font-size="14.4" x="15" y="55.7" fill="#666"><tspan x="15" y="55.72">Working hours are the annual average per worker. GDP per capita adjusted for price changes over time (inflation)</tspan><tspan x="15" y="73">and price differences between countries—it is measured in international-$ in 2011 prices.</tspan></text></g><g class="ScatterPlot"><g class="DualAxisView"><g class="HorizontalAxis"><text font-size="12.6" x="303.4" y="544.9"><tspan x="303.36" y="544.88">GDP per capita (int.-$)</tspan></text><text x="166.1" y="524.8" fill="#666" text-anchor="middle" font-size="16.2">$10,000</text><text x="240.9" y="524.8" fill="#666" text-anchor="middle" font-size="16.2">$20,000</text><text x="315.6" y="524.8" fill="#666" text-anchor="middle" font-size="16.2">$30,000</text><text x="390.3" y="524.8" fill="#666" text-anchor="middle" font-size="16.2">$40,000</text><text x="465.1" y="524.8" fill="#666" text-anchor="middle" font-size="16.2">$50,000</text><text x="539.8" y="524.8" fill="#666" text-anchor="middle" font-size="16.2">$60,000</text><text x="614.6" y="524.8" fill="#666" text-anchor="middle" font-size="16.2">$70,000</text><text x="718.09" y="524.8" fill="#666" text-anchor="end" font-size="16.2">$80,000</text></g><g class="VerticalAxis"><text font-size="12.6" x="-412.2" y="25.1" transform="rotate(-90)"><tspan x="-412.16" y="25.08">Annual working hours per worker</tspan></text><text x="92.03" y="498.8" dy=".32em" text-anchor="end" fill="#666" font-size="16.2">1,400 h</text><text x="92.03" y="449.2" dy=".32em" text-anchor="end" fill="#666" font-size="16.2">1,600 h</text><text x="92.03" y="399.6" dy=".32em" text-anchor="end" fill="#666" font-size="16.2">1,800 h</text><text x="92.03" y="350" dy=".32em" text-anchor="end" fill="#666" font-size="16.2">2,000 h</text><text x="92.03" y="300.5" dy=".32em" text-anchor="end" fill="#666" font-size="16.2">2,200 h</text><text x="92.03" y="250.9" dy=".32em" text-anchor="end" fill="#666" font-size="16.2">2,400 h</text><text x="92.03" y="201.3" dy=".32em" text-anchor="end" fill="#666" font-size="16.2">2,600 h</text><text x="92.03" y="151.7" dy=".32em" text-anchor="end" fill="#666" font-size="16.2">2,800 h</text><text x="92.03" y="102.1" dy=".32em" text-anchor="end" fill="#666" font-size="16.2">3,000 h</text></g><g class="AxisGridLines horizontalLines" stroke="#ddd" stroke-dasharray="3,2"><path d="M97.03 498.8h621.06M97.03 449.2h621.06M97.03 399.6h621.06M97.03 350h621.06M97.03 300.5h621.06M97.03 250.9h621.06M97.03 201.3h621.06M97.03 151.7h621.06M97.03 102.1h621.06"/></g><g class="AxisGridLines verticalLines" stroke="#ddd" stroke-dasharray="3,2"><path d="M166.1 503.6V92.2M240.9 503.6V92.2M315.6 503.6V92.2M390.3 503.6V92.2M465.1 503.6V92.2M539.8 503.6V92.2M614.6 503.6V92.2M689.3 503.6V92.2"/></g></g><g class="PointsWithLabels clickable" clip-path="url(#b)"><path fill="rgba(255,255,255,0)" d="M97.03 92.2h621.06v411.4H97.03z"/><defs><clipPath id="b"><path d="M87.03 82.2h641.06v431.4H87.03z"/></clipPath></defs><g class="key-China"><circle cx="101" cy="355" r="1.8" fill="#2D8587" opacity=".7"/><path stroke-width="2" opacity=".7" stroke="#2D8587" fill="none" stroke-linecap="butt" d="m101 355 1 1h1-1 2v1h1-1 6l1-1h-2l1-1h2l2-1 1-2 1-3 1-4 1-5v-6l2-5 2-2 2-3 3-4 2-5 3-7 4-6 4 2 4 8 3 5 4-2 10-8 7-2 2-1 4 1h5l2 2 2 1h5"/><path cx="188" cy="308" r="3.5" fill="#2D8587" opacity=".7" d="m184.5 304.5 7 3.5-7 3.5z"/></g><g class="key-India"><circle cx="100" cy="330" r="1.6" fill="#2D8587" opacity=".7"/><path stroke-width="1.94" opacity=".7" stroke="#2D8587" fill="none" stroke-linecap="butt" d="M100 330h1v3l-1 1h-1v-2l1-1v-1h1v1h1l1-1h2v-1l1-1h1l1-1 1-1h5l2-1h2l1-1 4-2 3-1h3l3-1h4l3-1"/><path cx="139" cy="319" r="3.44" fill="#2D8587" opacity=".7" d="m134.65 316.82 7.61 1.1-5.44 5.43z"/></g><g class="key-United-States"><circle cx="200" cy="352" r="1.3" fill="#E04E4B" opacity=".7"/><path stroke-width=".96" opacity=".7" stroke="#E04E4B" fill="none" stroke-linecap="butt" d="m200 352 6-10 2 1 3 1-2 6 6-2 1 4v7l-3 8 7-6 1 5 2 3 5-5 5 3 6-1 8-5 8-2 2 5 6 1h4l-2 11 4 4 8 1h10l-4 7-2 8 9 1h7l10-2h5l-3 4 3 3-7 4 8-2 15-4 6-1 5 5 7-2 7-2 7-3 2 3-4 2 7 3 5-3 9-5 5-2 8-2 10-1 11-3h11l10-1-1 5 1 5 7 3 10 1h17l4 1-4 5-14 9 7-2 3-2 7-1 5-1 7-1 8-3h3l6 1"/><path cx="500" cy="408" r="2.46" fill="#E04E4B" opacity=".7" d="m497.98 405.17 4.45 3.23-5.26 1.62z"/></g><g class="key-Indonesia"><circle cx="100" cy="376" r="1.3" fill="#2D8587" opacity=".7"/><path stroke-width=".86" opacity=".7" stroke="#2D8587" fill="none" stroke-linecap="butt" d="m100 376 1-6 1-2 1 1v5l1 10 1-4 1-26v-2l1-4 1-7v5l1-9 1-1v42l2-1 2-5 2-5 1 8h2l1-8h3l2 3v-1l-7-9v-3l-1-2v-11 7-7l2-6 2 6 3-4 4-10 6 6 4-5 8 2 11 8 2-1 3 1 2 4v-1l3 2 3-1"/><path cx="170" cy="345" r="2.36" fill="#2D8587" opacity=".7" d="m167.01 343.5 5.23.75-3.73 3.74z"/></g><g class="key-Pakistan"><circle cx="104" cy="290" r="1.3" fill="#2D8587" opacity=".7"/><path stroke-width=".77" opacity=".7" stroke="#2D8587" fill="none" stroke-linecap="butt" d="M104 290h1v4l1 1v1l1-1v11-1l1-2 1-5-1 1 1 4 1-4h-1l1 3v-1 1l1-4v8-3 4l1-3 1 2 2 3 2 8 1-1 2 2 1 5 1-5 2 3 1 3v4l1 7 1 8 2 7 2 8"/><path cx="131" cy="358" r="2.27" fill="#2D8587" opacity=".7" d="m132.65 355.25-1.1 4.95-3.3-3.85z"/></g><g class="key-Brazil"><circle cx="102" cy="339" r="1.3" fill="#932834" opacity=".7"/><path stroke-width=".76" opacity=".7" stroke="#932834" fill="none" stroke-linecap="butt" d="M102 339v-2l1-2v-3l1-2v-4l1-3 1-2v-2l1-3h3v-1h1l1-1h4l3 4 2 4 3 4 3 4v4l2 4v4l1 4 2 3-1 4v6l-1 2v3l1 3 5 2 1 3-1 3v2l-2 3 4 2v3h3l5-1 8 1 12 2-4 1-4 1-3 7v-6l-1 2-1 3-1 1 3 2 1 5 6 1 7 2h8l2 2 13 1 11-2v1l1 3-1 3-5 4-4 2v2"/><path cx="194" cy="422" r="2.26" fill="#932834" opacity=".7" d="m196.26 419.74-2.26 4.52-2.26-4.52z"/></g><g class="key-Bangladesh"><circle cx="102" cy="220" r="1.3" fill="#2D8587" opacity=".7"/><path stroke-width=".67" opacity=".7" stroke="#2D8587" fill="none" stroke-linecap="butt" d="M102 220h-3 1v1-3 42l1 10v-49l1-1v-6l-1-2v-2h1v-6l1-3 1 2 2 1 1 1 2 1 3 22-1 21 1 21 1-11 1-13 1-14 2 14"/><path cx="117" cy="246" r="2.17" fill="#2D8587" opacity=".7" d="m118.84 243.54-1.53 4.6-2.77-3.98z"/></g><g class="key-Russia"><circle cx="193" cy="366" r="1.3" fill="#4C5C78" opacity=".7"/><path stroke-width=".64" opacity=".7" stroke="#4C5C78" fill="none" stroke-linecap="butt" d="m193 366-14-1-14 11-4 1-2-1-2-14-6 1-2-4 8-5 2 1 2-1 7-3h11l13 1 18-2h42l-18 6h20l23-1 9-1 2 1-4-2-22 2-6 1 4-1"/><path cx="260" cy="355" r="2.14" fill="#4C5C78" opacity=".7" d="m257.4 353.44 4.68 1.04-3.64 3.12z"/></g><g class="key-Japan"><circle cx="110" cy="342" r="1.3" fill="#2D8587" opacity=".7"/><path stroke-width=".6" opacity=".7" stroke="#2D8587" fill="none" stroke-linecap="butt" d="m110 342 2 4 1 5 1 4 1-8 1-6 2-12 2-6 1-6 3-6 4-4 4-1 3 6 3 1 5-1 3 4 5-2 6-3 7-1 8 3 8 3 4 2 7-1 6 3-2 15 3 7 6-7 7-1 8-1 7-1 7-1-1 2h-3l-4-2v-4l4 4 11-1 10-1 15 1 12 4 14 9 12 4 7 12 6 9 6 4h12l13-1 1 7-5 5v4l6-2-3 4-1 3 4-1 7-2 6 3 3-2 5 3-5 4-13 13 12-6-3 1 3-3 5 5 4 2 8 1 6 2 6 1"/><path cx="393" cy="413" r="2.1" fill="#2D8587" opacity=".7" d="m391.27 410.58 3.8 2.77-4.49 1.38z"/></g><g class="key-Mexico"><circle cx="124" cy="281" r="1.3" fill="#E04E4B" opacity=".7"/><path stroke-width=".59" opacity=".7" stroke="#E04E4B" fill="none" stroke-linecap="butt" d="m124 281 2 1h1-2 9-1 2v5l3 2 5 2 1 3 1 2 1 2 3 2 1 2 2 2v1h3l3 1h3l1 1h3l5 1h18-11l2-1h-9l1-1h4l2 2 2 2 9 2 3 1-21-3 1-8 5-12 5 18 1-18 6 16-2 7-2-12-1 13 5 5 5 5 3 9 1 5 1-14-5 32 6-44 8 8h3l4-4h6l-3-1 2-2h2"/><path cx="221" cy="313" r="2.09" fill="#E04E4B" opacity=".7" d="m218.91 310.91 4.18 2.09-4.18 2.09z"/></g><g class="key-Philippines"><circle cx="108" cy="322" r="1.3" fill="#2D8587" opacity=".7"/><path stroke-width=".54" opacity=".7" stroke="#2D8587" fill="none" stroke-linecap="butt" d="M108 322v-1l1-1 1 3v-3l2-1 1-9v6h2l1 1-1-2-2-8h-2 1l2-2 2-2 1-2 2 1v4h1l1 10 2-4 3 5 2 9-1-13-4 11-1-3v-11 23l-1 1 1-4v-6l1 6 2-3 2-5 1-2 3-1 3-1 1-1 3-2 2-1 2-2 4-2 2-2"/><path cx="148" cy="308" r="2.04" fill="#2D8587" opacity=".7" d="m145.12 308 4.32-1.44-1.44 4.32z"/></g><g class="key-Vietnam"><circle cx="97" cy="105" r="1.3" fill="#2D8587" opacity=".7"/><path stroke-width=".52" opacity=".7" stroke="#2D8587" fill="none" stroke-linecap="butt" d="M97 105v20l1 14-1 11 1 9-1 10v11l1 12v18l1 7v12l-1 10 1 7v14l1 1-1 1v1l1 1h1l1 1 1 1 2 1v4l1-11 1-8 1 36 1 4 1-6 2 12 2 4 1-12h3l2-24v-17l4 26 3-8 1 6 1 10 3 29v-10 6l3 9"/><path cx="135" cy="317" r="2.02" fill="#2D8587" opacity=".7" d="m136.28 314.44-.64 4.48-3.2-3.2z"/></g><g class="key-Argentina"><circle cx="110" cy="341" r="1.3" fill="#932834" opacity=".7"/><path stroke-width=".5" opacity=".7" stroke="#932834" fill="none" stroke-linecap="butt" d="M110 341v-1l-2-1 1-1 1-1 1-1v-2l2-1-2-1 1-1 1 2v2l-1 2v1l3 2v3l1 2 2 1v4l1 1h1l-1 1v1l1 1 1 1v1l-1 3 1 3 2 3 2 4-1 3 3 3 2 3 1 3-2 3 4 3 7 3 8 3 7-6 10-6 8-2 22-2 2-2-1-1-7 4-2 6-7 12-13 26 5-1 7-8 6-7 7-1 9-3h7l-9 9 11-2h9v6l-1 3-5 5h2l-3 14h3"/><path cx="214" cy="437" r="2" fill="#932834" opacity=".7" d="m212 435 4 2-4 2z"/></g><g class="key-Australia"><circle cx="183" cy="307" r="1.3" fill="#A8633C" opacity=".7"/><path stroke-width=".5" opacity=".7" stroke="#A8633C" fill="none" stroke-linecap="butt" d="m183 307-6 5-3 5 9 5 5 5 2 5-1 4-1 5 6 5 4 4-1 5 1 1 4 1 5 1 4 1h-1l6 1 3 1 7 1 7 1 3 1 2 5 3 5 4 3-8-4 1 3 5-3h7l3-2 4 1 5 4-7 6 8 3 4-5 2 2 2-1h11l8 1 4-2-2 3-4 4 6 1 5-5 7-1h8l11 1 9 1 5 4 10-1h5l6 9 3 1 9 2h7l16 1 2 2 2 1h11l-7 7 23-2h13l-3 2h4l2 2h-16l14 3h5"/><path cx="445" cy="415" r="2" fill="#A8633C" opacity=".7" d="m443 413 4 2-4 2z"/></g><g class="key-Austria"><circle cx="130" cy="328" r="1.3" fill="#4C5C78" opacity=".7"/><path stroke-width=".5" opacity=".7" stroke="#4C5C78" fill="none" stroke-linecap="butt" d="m130 328 2 1 1 1h2l4 1 4 1h4l3 1 2 1h2l4 1 3 3 2 3 2 3 3 3 2 3 4 3 2 3 3 3 4 3 6 15 4 1 6-5 5 1 4-19v18l3 2 5-2v15l5-8 2-1v15-4l3 2-1 1 3 1h7l5 3 10-1 8-3h9l7-3 6 8 3 1h8l7 7 4-9 11-2 8 6 8-1h13l-6 3h4l4 3 9-1 24 6 4 4 9 3 10 2-15 11 9 1 10-1 10 6-5 4 11 2 4 4 2-3 10 3"/><path cx="436" cy="447" r="2" fill="#4C5C78" opacity=".7" d="m434.66 444.51 3.26 3.06-4.41.77z"/></g><g class="key-Belgium"><circle cx="144" cy="326" r="1.3" fill="#4C5C78" opacity=".7"/><path stroke-width=".5" opacity=".7" stroke="#4C5C78" fill="none" stroke-linecap="butt" d="m144 326 2 2 1 3 2 2 2 3 2 2 2 3v2l-1 3 2 2 3 3 3 3 4 2 2 3 5 3 2 3 2 3 2 3 4 3 5 2 6 3 3 2 7 7 7 6 6 8-2 2h8l1 7 5 4 4 4 10 5-7 6-5 3-4-1-1-6-6-1 9 4 7 4 11 3 4 2 7-3 2 9 5 6 1 11h4l6-7v7l8-4 1-2h9l13-4v2l5-3 8-1 5 3 25 2-9-3 6-1 21 3-11 5 19-3 3-4 4 1h-4l-3 1-9 2h2l8-1"/><path cx="377" cy="454" r="2" fill="#4C5C78" opacity=".7" d="m374.77 452.26 4.21 1.5-3.72 2.47z"/></g><g class="key-Canada"><circle cx="175" cy="298" r="1.3" fill="#E04E4B" opacity=".7"/><path stroke-width=".5" opacity=".7" stroke="#E04E4B" fill="none" stroke-linecap="butt" d="M175 298v3l5 3 2 1-4 2 6 4 5 3-1 5v4l2 1 1 3 2 6h4l4 4 6 3 5 4 5 7 2 2 4 6 5 5 2 4 6 3 5 2 9 2 2 2v4l7 3 4 7 5-1 5-1 2 3 4 4-6 6 4 2 11-3 3-1h1l12-3h8l5 1-2 2-9 6h2l8-3h9l4-4 7 1 1 1h15l15 2-5 3-1 5 11 2 9-2 19 2h-1 3l10 1-36 7 16-1 14 1 2-2 7 1 13 2-21-1-2 2 7 3"/><path cx="412" cy="426" r="2" fill="#E04E4B" opacity=".7" d="m410.95 423.37 2.89 3.42-4.47.26z"/></g><g class="key-Colombia"><circle cx="114" cy="269" r="1.3" fill="#932834" opacity=".7"/><path stroke-width=".5" opacity=".7" stroke="#932834" fill="none" stroke-linecap="butt" d="M114 269v3l1 3 1 2 1 3 1 3-1 2-1 3v5l1 3 1 1v2l1 1v4l2 1 1 1 1 1 3 3 2 2 4 3 2 2 1 2 2 3 2 2 2 3 1 2 1 2-1 3-1 3-1 2v3l-1 2 1 3v3l1 2v8l1 2 3-3 2-3 1 1-1 1 1 1-2 2h-4 1-1v-19l1 4 2 3 3-3 5-6 5-6 6-6v9l6 1 9 4 3 3 2 2 2 1-1 2v2l2 4"/><path cx="187" cy="356" r="2" fill="#932834" opacity=".7" d="M187.9 353.32v4.47l-3.58-2.68z"/></g><g class="key-Denmark"><circle cx="160" cy="337" r="1.3" fill="#4C5C78" opacity=".7"/><path stroke-width=".5" opacity=".7" stroke="#4C5C78" fill="none" stroke-linecap="butt" d="m160 337-1 4 1 3 4 4 1 4-1 3 2 3 3 4 1 3 6 4 5 3 5-3 4-3v-3l8-3 4-3 2-3 5 7 6 11 7 10 1 6 2 9 5 14 5 11-3 4-3 19 7-2 3 6 4 6 6 3v-4l-6 8 3-2 2 2 3 1 3 4 12-1 4 9v6l1 4 4 3v1l7-4-2 1 8 11 6-3 6 1 10-4 6-3 10-4 13-2-1-1-1 2 4 1h12l23 2 11-1 6 5 18 1-14 3 18-1 9-4-7 4-3-1-1 3-2 2 6-2 17 2"/><path cx="434" cy="497" r="2" fill="#4C5C78" opacity=".7" d="m432.25 494.78 3.74 2.45-4.21 1.52z"/></g><g class="key-Finland"><circle cx="135" cy="344" r="1.3" fill="#4C5C78" opacity=".7"/><path stroke-width=".5" opacity=".7" stroke="#4C5C78" fill="none" stroke-linecap="butt" d="m135 344 5-1h-1 9v-1h15l1 2v1l2-6h5l2 6 2 4 4 4 9 4 8-2 2 8 6 4 7 4 5 2-4 2h4l2 2 5-1 3 6 7 20 5 1-1 2 1 3 1 1 1 1 9 4 7-1 11-1h6l1 5-12 5h-8l-2 1 5-6 21-1h-1l16 1 16 3h11l10 3 1 3-2 2 4 2h10l17 2 4 1 23 1 10 1-27 6 8-2 5 2-3 3-12 2h-1l6 1h5l11 2"/><path cx="389" cy="449" r="2" fill="#4C5C78" opacity=".7" d="m387.39 446.67 3.58 2.69-4.3 1.25z"/></g><g class="key-France"><circle cx="142" cy="263" r="1.3" fill="#4C5C78" opacity=".7"/><path stroke-width=".5" opacity=".7" stroke="#4C5C78" fill="none" stroke-linecap="butt" d="m142 263 2-3 2 6 1 6 3-1 3 6 2 14 3 9 2 5h1l5-2 3 6 3-3 4 4 5-2 3 4 4 2 4 8 4 6 7 19 5 4 6 1 6 13 8 4 5 8-2 7 6-7 6 10 6 7 7 1 2 3-4 5-1 17-3 5-3 2-3 8 8 2 3-3 8-2 5 4 5 2-1 1 3 1-2 2 3 1 4 5 3 1 10 1 10 2 9 2 12 5 5 5v9l-7-1 3-6h18l5 4 10-6 1-1-10 3 9-2 8-2-2 1 4 4v2h6l3-1 9 4"/><path cx="386" cy="472" r="2" fill="#4C5C78" opacity=".7" d="m384.98 469.36 2.85 3.45-4.47.2z"/></g><g class="key-Germany"><circle cx="126" cy="243" r="1.3" fill="#4C5C78" opacity=".7"/><path stroke-width=".5" opacity=".7" stroke="#4C5C78" fill="none" stroke-linecap="butt" d="m126 243 3 7 3 6 4 6 3 7 7 6 4 6 3 6 1 6 5 6 6 5 3 7 2 9 1 8 5-3 4 4 1 6-1 9 5 4 6 4 5 4 3 8 5 6 6 8 2 8v10l6-3 5 4 5 5 7 3 2 5-3 5-3 3v3l2 3v6l11 5 6 5 8 2 7 5 12 6 10 7 6-3 1 7 7 1 7 1 3 3 7 3h7l10 4 5 6 3 2v2l5 2h7l14 2 6-5h17l8 2-20 10 15-5h16l-2 4 6 3 10-1h-2l11 2 12 1"/><path cx="446" cy="501" r="2" fill="#4C5C78" opacity=".7" d="m444.17 498.84 3.82 2.33-4.15 1.66z"/></g><g class="key-Ireland"><circle cx="127" cy="246" r="1.3" fill="#4C5C78" opacity=".7"/><path stroke-width=".5" opacity=".7" stroke="#4C5C78" fill="none" stroke-linecap="butt" d="m127 246 1 3 1 2 1 3 1 3 1 3v6l-1 3 2 2 3 3h2l1-1 2-1 1-1h1v-1l3-1 4-1h3v-1l1 4 4 5 3 3 1 9 2 3 2 1 6 7 7 5 3 6 3 9v10l-2 2 1 5v-2l6-8 6 5 5-2 7-2 9 3 2 8 9 12 7 7h7l21 2 12 2h38l19 3 25 2 16 3 29 4 23 5 14 3 27-2 3 1 27 3-26 5-22 8v23l4-4h4l1-2 27-3 111-4 34 2 29-3"/><path cx="658" cy="405" r="2" fill="#4C5C78" opacity=".7" d="m655.8 403.22 4.19 1.57-3.77 2.4z"/></g><g class="key-Italy"><circle cx="121" cy="325" r="1.3" fill="#4C5C78" opacity=".7"/><path stroke-width=".5" opacity=".7" stroke="#4C5C78" fill="none" stroke-linecap="butt" d="m121 325 3-2 1-1 2-2 1-1 3-2 1-2 1-1 2-2 3-2 4-1 4 4 3 12 2 4 1 1 1 15 3-5 5-6 4 1 4 1 10 5 1 13 4 5 8 4 6 7-2 4 10 1 6 8 6 3 12 1h9l-3-1-3-2-2-2 2 3 1 2 10-3 7-4 8-2 6 3 8 4 6 2h9l9-2 5-2 9 1 10-3 6 1 6 5-2 3-4 3v3h16l11-1 5 3-11 7h2l8 1-3 10-5 3v1h4l13-1h8"/><path cx="375" cy="419" r="2" fill="#4C5C78" opacity=".7" d="m373 417 4 2-4 2z"/></g><g class="key-Netherlands"><circle cx="149" cy="350" r="1.3" fill="#4C5C78" opacity=".7"/><path stroke-width=".5" opacity=".7" stroke="#4C5C78" fill="none" stroke-linecap="butt" d="m149 350 2 4 1 4 4 3 4 4 4 3 2 4 2 3-1 4 3 3 7 4h3l-1 1h9l3 1h5l6 1 14 1 5 8h4l8 7 11 13-3 13 6 4 1 5 4 7 4 6 5 1h-5l-6 3v4l2 2-4 4 6 4 1 5 5 1 6 1 10 1 5 3 1-2 6 3 4-2 9-3 7-4 14 4 7 1h17l24 3 2 3-2 4-1 2 4-4 37 3 7 1h34l-32 2 1 1 5-1 6 3 19-1-17-3h-5l-4-3h15"/><path cx="439" cy="489" r="2" fill="#4C5C78" opacity=".7" d="m437 487 4 2-4 2z"/></g><g class="key-Norway"><circle cx="155" cy="318" r="1.3" fill="#4C5C78" opacity=".7"/><path stroke-width=".5" opacity=".7" stroke="#4C5C78" fill="none" stroke-linecap="butt" d="m155 318 2 2 3 3 3 3 1 2 2 3 2 2 3 3-2 3 2 2 1 3 4 3 1 4 2 2 5-2 4 11 3-1 5 4 3 10 4 12-21 3 6 6 10 8 2 3 9 6 13 4 15 13 4 9 11 9 10 6h10l1 2-2 3 8 1 11 2 1 1-7 1 4 7-9-1 6 1 20 2h-1l6-2 1 1h7l17 5 28 1 14 1-15 1h29l70 4 2 8-15 5 25 4 23-4h95l41 1 3-1h68l-101 5 37-2 53-2 26 1-16 3-46-1-95-1h-24l7 3"/><path cx="544" cy="503" r="2" fill="#4C5C78" opacity=".7" d="m542.95 500.37 2.89 3.42-4.47.26z"/></g><g class="key-Peru"><circle cx="106" cy="223" r="1.3" fill="#932834" opacity=".7"/><path stroke-width=".5" opacity=".7" stroke="#932834" fill="none" stroke-linecap="butt" d="m106 223 1 3 1 3v3l1 3v6l1 3v3l-1 3 2 3 1 3 1 3v2l1 3 1 3 1 3 1 3-1 2v3l1 3 1 3v2l2 3 1 2 1 2-1 1-1 2-1 2-1 2 2 1 2 2-1 2-3 2 1 1-1 2 4 2 3 2-3 1-5 2-1 2 1 1v-2l1 2h7l2 2h2l-2 2v1h16l5-4 5-2h-1l8-2h6l4-1h3l2-1h1"/><path cx="176" cy="315" r="2" fill="#932834" opacity=".7" d="m174 313 4 2-4 2z"/></g><g class="key-Portugal"><circle cx="111" cy="249" r="1.3" fill="#4C5C78" opacity=".7"/><path stroke-width=".5" opacity=".7" stroke="#4C5C78" fill="none" stroke-linecap="butt" d="m111 249 2 4 1 4 1 3 1 4v4l1 4 1 3v4l2 3 1 4 2 3 2 3 2 3 1 3 3 3 1 3 3 3 6 3 2 3 4 11h8l6 1v-3h-5l3 1h3l1 4 3 4 2 4-1 4v5l-2 5-3 4 1 4 7 3 7-4 7 5 6-7 7 2 4 20 4 4 2 3 7 1 5-9h3l10 1 7-4h9l9-3-2 4v2l-2 2v-2h16l7 3 4-4-1 3h-3l8-1-7 6-1 4 2-2 3-2 8-2-14-2-2 3"/><path cx="273" cy="381" r="2" fill="#4C5C78" opacity=".7" d="m275.77 380.45-3.88 2.21.56-4.43z"/></g><g class="key-Spain"><circle cx="117" cy="298" r="1.3" fill="#4C5C78" opacity=".7"/><path stroke-width=".5" opacity=".7" stroke="#4C5C78" fill="none" stroke-linecap="butt" d="m117 298 4 1 1 1-1 1 3-4 2 4 2 4 1 4 2 3-2 3 4 2 5 5 4 4 5 4 2 12 3 2 3-1 3-2 4 9 5 2 3-2h3l5 1 6 3 3-1v-3l3-2 3 1 2 7v11l3 3-6 8-4 6-2 8-2 10-2 3 6 2 7 2 7 1 7 3 6-1 5-2 3 2 2 2h17l11-1 10-2 7-1 10 1 3-2 4-1v2l4 4 19 4 16 3 12 3 2-3-10-1-3 3-3-2-1 4-3 2 4-1 13-1 8-1 13 3"/><path cx="358" cy="427" r="2" fill="#4C5C78" opacity=".7" d="m356.5 424.6 3.45 2.85-4.35 1.05z"/></g><g class="key-Sweden"><circle cx="159" cy="348" r="1.3" fill="#4C5C78" opacity=".7"/><path stroke-width=".5" opacity=".7" stroke="#4C5C78" fill="none" stroke-linecap="butt" d="m159 348 2 3 2 5 3-3 2 3 2 6h1l1 8 5 6 2 1h5l3 3 5 1 6 8 3 2 1 4 3 8 3 10 5 6 7 4 1 8 3 10 5 3 3 5 2 6 1-3-4 7 3 9 4 3 1-1 2 2 1-3 4-3h8l4-1h11l7-2 7-5h4l2 1-2 3-3-4-8-8 11-10 13-1 6-3 7-1h9l13-2 17 5-8 6v6l7 3 11-6h10l11 1 17-3 5-3-25 4 13-7h14l1 3-7 2h-3 8l-2-4 11 3"/><path cx="415" cy="443" r="2" fill="#4C5C78" opacity=".7" d="m413.6 440.54 3.33 2.99-4.39.87z"/></g><g class="key-Switzerland"><circle cx="197" cy="340" r="1.3" fill="#4C5C78" opacity=".7"/><path stroke-width=".5" opacity=".7" stroke="#4C5C78" fill="none" stroke-linecap="butt" d="m197 340 8 2-2 1 3 2 7 2 7 2 8 2 3 2-7 2 8 1 9 2h8l3-1 4-1h7l3-1 2-1 4-1h5l8-1 11-1 6 3 5 6 5 7 2 7-20 2-2 1 5 6 4 4 7 3 10 4 1 5-3 2 1 4 2 5 4 1 12 2 3 1h4l9 4 12 2-6 1v-3l1 1 5-5 2 5 1 6 11 2 8-2 9-5 3 1-2 10v5l4-3 9-8 25 1 19 3 34 3 26 2-13 2 8 7 34 1 11 4 2 5 8 2-1-4h-2l12 5"/><path cx="571" cy="456" r="2" fill="#4C5C78" opacity=".7" d="m569.92 453.38 2.93 3.39-4.47.3z"/></g><g class="key-United-Kingdom"><circle cx="161" cy="304" r="1.3" fill="#4C5C78" opacity=".7"/><path stroke-width=".5" opacity=".7" stroke="#4C5C78" fill="none" stroke-linecap="butt" d="m161 304 2-2-1 8 4-1 2-1h3l2 3 1 6v7l2-2 4 2 1 9 1 9 3 2h5l2 6 1 14 2 3 4 2 2 2 2 11 2 10 3-6 8-2-5 4-2 8 6 1 6-2h16l2 8-3 9v1l4 1 2-1 2-1 1 1 6-1 6-2 2-1 1 4-6 6-1 1 4 1 4-2 18-1 11 1h12l4 1 7 2 14 4 4-1v4l4 3h5l15-1 2 2-2-1 5 2-22 5 13-1 2 1 3-4 11-3 2-1 7 1h-1 8"/><path cx="383" cy="432" r="2" fill="#4C5C78" opacity=".7" d="m381 430 4 2-4 2z"/></g><g class="key-Venezuela"><circle cx="132" cy="305" r="1.3" fill="#932834" opacity=".7"/><path stroke-width=".5" opacity=".7" stroke="#932834" fill="none" stroke-linecap="butt" d="m132 305 2 4 4 4v4l2 4 1 4 2 4 3 3v4l1 4-6 4v1l2 2 2 2 4 2v2l-2 2v1l5 2 1 2 6 2-4-1 1-2 5-1 14-1-4-1 2-1 1-1-3-1 2-2-3-1-2 3-6 3-2 2v3l-6 3-5 3v5l-5 2 3 3 3 3 1 2-4-5-4-5 2-1-1-2v-1l-5-1v11l9-3-2 7-4 10-2 7 13-24 16-6 13 4"/><path cx="182" cy="373" r="2" fill="#932834" opacity=".7" d="m180.68 370.5 3.23 3.09-4.41.73z"/></g><g class="key-Chile"><circle cx="122" cy="219" r="1.3" fill="#932834" opacity=".7"/><path stroke-width=".5" opacity=".7" stroke="#932834" fill="none" stroke-linecap="butt" d="m122 219 2 3v3l2 4-2 3-1 3 3 4v3l-1 3 1 3-2 5 8 5v10l1 2-3-4 4-5 2 44v-20l2-7v32l5-24-1-3-2 6-3 4-8-10 1-4 3 7 2-6 3-6 3-3 1-11-7 13-2 11 1-8h-1l1-9 3-4 4-3 3-2 1-10 3 10 6 1 3-1 5 5 9 9h3l1 14-2-11-5 6 2 3-1 6-1-2 3 3 8 1 10 19 16-2 8 9-5 8 1 5 17 1 13 6 11 6 3 2 7 6-2 1 3 3v5"/><path cx="261" cy="361" r="2" fill="#932834" opacity=".7" d="m263 359-2 4-2-4z"/></g><g class="key-Greece"><circle cx="116" cy="272" r="1.3" fill="#4C5C78" opacity=".7"/><path stroke-width=".5" opacity=".7" stroke="#4C5C78" fill="none" stroke-linecap="butt" d="m116 272-1 2 4 3v2l1 3 3 2 2 2 1 2 1 3 1 2 5 3-1 2 5 2 3 3 5 2 4 3 2 2 4 2 7 3 7 10h13l6-1h-7l4-1h6l5-1h1-5l-2 1h9l-1-1 7 1 5-1h21l12 1h8l3 1 7-1 6 2 6 1 1 1 8 2 4-13 14 3-1 3 6 1-7 6-14 16-18-5-8-4 3-1v9l3-2h-1l6-4"/><path cx="269" cy="338" r="2" fill="#4C5C78" opacity=".7" d="m266.23 337.45 4.43-.56-2.21 3.88z"/></g><g class="key-Taiwan"><circle cx="103" cy="261" r="1.3" fill="#2D8587" opacity=".7"/><path stroke-width=".5" opacity=".7" stroke="#2D8587" fill="none" stroke-linecap="butt" d="m103 261 1 1 1 1 1 1v1l1 1 1 1 1 1 1 1 1 1 2 1h2l1 1 2 1h2l2 1 2 1 4-1 4-1 4 1 1-1h7l4 1h7l4-8 4 6 3 1 2 10 6 3 7 1v2h14l15-8 6 6 10 5h13l8 4 10-1 8-5 6 14 9-10 11 6 10 15 8-13h8l12 3-9 13 7 4 4-1 11-5 16 2 2-2 7 1-11 14-10 5 23-2 10 3-1-4 6 1 18-22 5 7 7 8"/><path cx="414" cy="327" r="2" fill="#2D8587" opacity=".7" d="m414.19 324.18 1.13 4.33-4.14-1.7z"/></g><g class="key-South-Korea"><circle cx="98" cy="229" r="1.3" fill="#2D8587" opacity=".7"/><path stroke-width=".5" opacity=".7" stroke="#2D8587" fill="none" stroke-linecap="butt" d="M98 229v-9l1-9v-18l1-10-1-9v-10l1-10-1-10 1-10 1 22v-30l1 5v-9l1-14 2-16 1 30 2 1 2 2 4 1 4 1 3 2 2 1 3 2 2 1 2 2-3 1 2-4 2-3 4-5 4 1 1 7 9-8 9 8 8 12 7 25 10 13 11 4 7 6 10-4 14 4 16-2 15 2-5 14-22 23 14-1 11-5 3 4 12 8 6 10 10 8 13 10 6 1 12 10-1 22-6 12 18 4 3 6-1 4 2 3 8 7 9-2 7 4 7 13"/><path cx="362" cy="347" r="2" fill="#2D8587" opacity=".7" d="m362.81 344.3.14 4.46-3.66-2.57z"/></g><g class="key-Hong-Kong"><circle cx="125" cy="170" r="1.3" fill="#2D8587" opacity=".7"/><path stroke-width=".5" opacity=".7" stroke="#2D8587" fill="none" stroke-linecap="butt" d="m125 170 1 5 2 5 3 5 3 5 5 5 1 5v4l2 5 5 5 4 5h9l6 1 8 1 7 3 6 2 8 2 7 3 6 3v6l4 8 9 7-6 6 15-1 21 9 4-12 9 15 14 9 9-8 15 21 13-16 6-1 3 9 10-12 4 12-19-1 2-10 24-7 16 1 13-5 7 4 41-6 19 2-30 7 15-3-10 13-37 6 24-12 23 11 5 6 48 2-49 12-42-2-1 2 7 7"/><path cx="394" cy="313" r="2" fill="#2D8587" opacity=".7" d="m394 310.17 1.41 4.24-4.24-1.41z"/></g><g class="key-Singapore"><circle cx="111" cy="250" r="1.3" fill="#2D8587" opacity=".7"/><path stroke-width=".5" opacity=".7" stroke="#2D8587" fill="none" stroke-linecap="butt" d="m111 250 2 2 2 1 4 1-1 2 2 1 3 1 5 2 3 1 7 1 7 1h30l2 6 7-7 4 14h10l16 6 14-2 3-7 3-1 9-2 10-2-22 10 2-8 15-8 7-4 1-14 24-1-14-5-7-1-8-7-13-4 3-3 27-6 7-3 16 3 5-5 64-5-20 5 15 2-25-1 36 9h97l30 2 26 5-51 2-25 9 86-8 24 10-2-2-5 3 41 10-8 7-2 3 16 4"/><path cx="593" cy="267" r="2" fill="#2D8587" opacity=".7" d="m591.54 264.57 3.4 2.92-4.37.97z"/></g><g class="key-Iceland"><circle cx="194" cy="321" r="1.3" fill="#4C5C78" opacity=".7"/><path stroke-width=".5" opacity=".7" stroke="#4C5C78" fill="none" stroke-linecap="butt" d="m194 321 8 6 5 3-5 8-10 12 4 7 7 4 20 10-3 8 13 4 8 6-1 6-1 7 17 10 7 10 7 3 9 2 7 2 4-1h-21l15 1h-4l15 2h23l3-2-12 1-3 3 1-1h-11l1-4 5 7-2 4 4-5 24-6 9 5 15 5-5-13 11-3-3 9-2 8 12-2 21 3-12 2 10 5h74l-56 24-29 2v-2l6 3h-2l1 2 8 1 7 3 7 2"/><path cx="400" cy="482" r="2" fill="#4C5C78" opacity=".7" d="m398.63 479.53 3.3 3.02-4.4.82z"/></g><g class="key-Luxembourg"><circle cx="241" cy="388" r="1.3" fill="#4C5C78" opacity=".7"/><path stroke-width=".5" opacity=".7" stroke="#4C5C78" fill="none" stroke-linecap="butt" d="m241 388-6 1 9 5 16 7 10 6-26 7 9-4 1 6 8 4 6 4 2 4-7 6v5l-1 1-2 4-2-4 25 2 5 1 20-5 24 2h9l24 5 1 5 16-2 12 5-1-2 1-2h25l23 1 36 1 39-3-30 4-13 2h-44l83 7h-8l21-4h-12l-36 13 46-1-28 1 29 2-19 1 68-1 38-2 21 1 16 1"/><path cx="649" cy="472" r="2" fill="#4C5C78" opacity=".7" d="m647.13 469.88 3.87 2.24-4.12 1.75z"/></g><g class="key-Malaysia"><circle cx="117" cy="293" r="1.3" fill="#2D8587" opacity=".7"/><path stroke-width=".5" opacity=".7" stroke="#2D8587" fill="none" stroke-linecap="butt" d="m117 293 5-1h7-2l3-1h16l3-1h-6l-5 1h5l4-1h6l5-1 2-1h21l2-1-15 1h12-3l3-6 4 2 7 1 12-12 1 5 9 6 13 6-10-1 9 4 15 1 7 5 7 8 2-2-4 3 2-6 7-1"/><path cx="261" cy="301" r="2" fill="#2D8587" opacity=".7" d="m258.74 299.3 4.24 1.42-3.68 2.54z"/></g><g class="key-Myanmar"><circle cx="97" cy="239" r="1.3" fill="#2D8587" opacity=".7"/><path stroke-width=".5" opacity=".7" stroke="#2D8587" fill="none" stroke-linecap="butt" d="M97 239v2h1v1h1l-1-1h-1v-1h2-1 1v-1h8l3 1h21l1-1h2"/><path cx="134" cy="239" r="2" fill="#2D8587" opacity=".7" d="m132 237 4 2-4 2z"/></g><g class="key-New-Zealand"><circle cx="204" cy="383" r="1.3" fill="#A8633C" opacity=".7"/><path stroke-width=".5" opacity=".7" stroke="#A8633C" fill="none" stroke-linecap="butt" d="M204 383h3l5 4 7 1 2-2-4 3 2 1-5-1-2 2v5l4 5v-2l6-14 5 2-3 2 9 1 6-1 6 2v6l-6 3 2-2 9-13 7 1 7 2 7 2 5 3h1l11-4 1 1 3 4h3l4 1-1-4 6 5v4l13 5v4l-1 5 6-5 7 4v1l11-4h11v1l9-3 4 3"/><path cx="364" cy="411" r="2" fill="#A8633C" opacity=".7" d="m363.6 408.2 2 4-4.4-.8z"/></g><g class="key-Sri-Lanka"><circle cx="113" cy="376" r="1.3" fill="#2D8587" opacity=".7"/><path stroke-width=".5" opacity=".7" stroke="#2D8587" fill="none" stroke-linecap="butt" d="M113 376h2-3l-1-14v-1l-2-1-1-1 2-2-1-1v-3 5l1 18 2-16v-1l1-2v-1l1-2v-4l2-1 1-4 2 14 1 5 1 1 1 11 2-4v-23 7l2 40 3 20 1-31 1-8 4 13 4-6 3 9 6 4 6-16 8-30 5-15 3 39 4-7h6l3 1h3"/><path cx="186" cy="369" r="2" fill="#2D8587" opacity=".7" d="m184 367 4 2-4 2z"/></g><g class="key-Thailand"><circle cx="108" cy="237" r="1.3" fill="#2D8587" opacity=".7"/><path stroke-width=".5" opacity=".7" stroke="#2D8587" fill="none" stroke-linecap="butt" d="M108 237v25l1-29v-5l1 7 1 1 2 1 1-19 1-22 1-22 1 19v70l1-83 1-4v7l2 11 3-5 3-17 3 34 3-12 4-4 3 20 4-13 7 2 6 13-7 17-9-12 1 9 1-1 1 24 4 3 4 2 4-1 6 13 4 3 4-1 5-3-1-3 10 1 6-2 7 11 3 10-2 6 3 15 2-5 6 29"/><path cx="209" cy="327" r="2" fill="#2D8587" opacity=".7" d="m210.55 324.64-1.14 4.32-2.77-3.51z"/></g><g class="key-Turkey"><circle cx="140" cy="328" r="1.3" fill="#2D8587" opacity=".7"/><path stroke-width=".5" opacity=".7" stroke="#2D8587" fill="none" stroke-linecap="butt" d="m140 328 1 3 3 1 1 3 6 4 3 4 5 4-3 4-4 4-1 4-3 1 6 2-2 2 1 2 3 16 2-7 2 4 7 9-1 2-2-7h5l-4-1 2-7 6-5-7 8 4 2 9-4 3 4-2-2-5-10 5-3-4-1h-5l8 6 9-5 12-2 8 9 7 2-6 5 16 1 15 3 7 3 8 5h40"/><path cx="295" cy="391" r="2" fill="#2D8587" opacity=".7" d="m293 389 4 2-4 2z"/></g><g class="key-Hungary"><circle cx="167" cy="317" r="1.3" fill="#4C5C78" opacity=".7"/><path stroke-width=".5" opacity=".7" stroke="#4C5C78" fill="none" stroke-linecap="butt" d="M167 317h1l1 23-1 5 1 17v7l4 2 6-11 1 2 3 6v9l-8 8v10h5l4-31 2-2 3 1-1-2 1 2 2-2 7 5 7 9 6 3 4 7h-1l14 6v5l1 6 12-1-5 9 8-2 7 3-2 4 1 1 2-4 1 1-2-4 9 3"/><path cx="260" cy="412" r="2" fill="#4C5C78" opacity=".7" d="m258.74 409.47 3.16 3.16-4.43.63z"/></g><g class="key-Israel"><circle cx="219" cy="358" r="1.3" fill="#2D8587" opacity=".7"/><path stroke-width=".5" opacity=".7" stroke="#2D8587" fill="none" stroke-linecap="butt" d="m219 358 2 6 3 3 6 1 9 1 3 11-5-8 10 1 9 2 8-13 3-1 6-10 8-6 8-4 7-1 5 6 8-2 16-3-1 9-4-4-12 4-5 6-1 2-2 4-2-4-4 1h6l5 1 5 3 8 7 10 2 14 4 9-1 6-6h4"/><path cx="361" cy="369" r="2" fill="#2D8587" opacity=".7" d="m359 367 4 2-4 2z"/></g><g class="key-Jamaica"><circle cx="119" cy="383" r="1.3" fill="#E04E4B" opacity=".7"/><path stroke-width=".5" opacity=".7" stroke="#E04E4B" fill="none" stroke-linecap="butt" d="m119 383 3-7 2-5v-15l2 9-1-3 2-3 2 3v-2 2-5 2-9l1 4v5-2 1"/><path cx="130" cy="358" r="2" fill="#E04E4B" opacity=".7" d="m132 356-2 4-2-4z"/></g><g class="key-Costa-Rica"><circle cx="145" cy="257" r="1.3" fill="#E04E4B" opacity=".7"/><path stroke-width=".5" opacity=".7" stroke="#E04E4B" fill="none" stroke-linecap="butt" d="M145 257v5l2 10 1-13-1 22 5-22 2 3 2-6 1 7-3-11 1 6 5 2-1-4 2 2 2 9-1-7 1 1 2-4 5 4v-2l3-7 4-1 4 11v26l5-10 1 11v22l5 5 3-5 4-14 4 7"/><path cx="203" cy="304" r="2" fill="#E04E4B" opacity=".7" d="m203.74 301.27.25 4.47-3.72-2.48z"/></g><g class="key-Dominican-Republic"><circle cx="125" cy="307" r="1.3" fill="#E04E4B" opacity=".7"/><path stroke-width=".5" opacity=".7" stroke="#E04E4B" fill="none" stroke-linecap="butt" d="M125 307v1l5 7 3-23 1 4v-5l1 7 4-4 5-15 3-5v24l4 5v12l-5 2 1-5h6l7 7 6-2h5l6 4 1 2 1-2 2-2 5-14 7 6 5 3h3"/><path cx="201" cy="314" r="2" fill="#E04E4B" opacity=".7" d="m199 312 4 2-4 2z"/></g><g class="key-Slovakia"><circle cx="215" cy="392" r="1.3" fill="#4C5C78" opacity=".7"/><path stroke-width=".5" opacity=".7" stroke="#4C5C78" fill="none" stroke-linecap="butt" d="M215 392h-33 3l4-6 7 8 3-2-2 2-5 1h4l6 4 2 12 1 14 1-11 17-7 8-1 11-5h16l-9 3 14-6 2 3v1l-2 4 5 3-1 2 5 3 5 7"/><path cx="277" cy="421" r="2" fill="#4C5C78" opacity=".7" d="m277.46 418.21.7 4.42-3.95-2.1z"/></g><g class="key-Uruguay"><circle cx="156" cy="402" r="1.3" fill="#932834" opacity=".7"/><path stroke-width=".5" opacity=".7" stroke="#932834" fill="none" stroke-linecap="butt" d="m156 402 3 2 8 1 3 2 6 2-2 1 5 2v1l1 2-5 4-4 4-4 8-6 9-1 6 3-7 4 3 4 1 8 4 10-4 5 5 15 1 10 2 5 3 6 2 6 1-2 3 2 6h2"/><path cx="238" cy="466" r="2" fill="#932834" opacity=".7" d="m236 464 4 2-4 2z"/></g><g class="key-Trinidad-and-Tobago"><circle cx="167" cy="452" r="1.3" fill="#E04E4B" opacity=".7"/><path stroke-width=".5" opacity=".7" stroke="#E04E4B" fill="none" stroke-linecap="butt" d="m167 452-4 6-5-4-1-3v-3l-1-4 1-2-1-1 12-1 17-7-5-1 2 8"/><path cx="182" cy="440" r="2" fill="#E04E4B" opacity=".7" d="m183.46 437.57-.97 4.37-2.92-3.4z"/></g><g class="key-Cambodia"><circle cx="100" cy="302" r="1.3" fill="#2D8587" opacity=".7"/><path stroke-width=".5" opacity=".7" stroke="#2D8587" fill="none" stroke-linecap="butt" d="M100 302v8l1-7-1-1v-18l1-8v-6l1-11 1-2h2l2-2h2l-1-2 2-5 1-1 2-3v-4l2-4-1-2 1-2"/><path cx="115" cy="232" r="2" fill="#2D8587" opacity=".7" d="m112.32 232.9 3.57-2.69v4.47z"/></g><g class="key-Czechia"><circle cx="223" cy="385" r="1.3" fill="#4C5C78" opacity=".7"/><path stroke-width=".5" opacity=".7" stroke="#4C5C78" fill="none" stroke-linecap="butt" d="m223 385 8 5 6-5 7 1-6-1-5-5v-4l4-1 7 20h-2l7 3 4-3h14l3 4 15 4 9-1-9 2 1-5 6-1-1 7v3l9-3 5 5 4-5 15-2"/><path cx="324" cy="403" r="2" fill="#4C5C78" opacity=".7" d="m321.75 401.28 4.23 1.46-3.7 2.5z"/></g><g class="key-Malta"><circle cx="200" cy="285" r="1.3" fill="#4C5C78" opacity=".7"/><path stroke-width=".5" opacity=".7" stroke="#4C5C78" fill="none" stroke-linecap="butt" d="M200 285v1l-1 2 16-1 4-6 6 6h29l-19 23 3-14 7 6-9 25 18-17-3-1 7 3v-3l-2-1 7 14 2 16 2 8-3 7v11l32 2 3-13 22 22"/><path cx="321" cy="375" r="2" fill="#4C5C78" opacity=".7" d="m321 372.17 1.41 4.24-4.24-1.41z"/></g><g class="key-Bulgaria"><circle cx="150" cy="421" r="1.3" fill="#4C5C78" opacity=".7"/><path stroke-width=".5" opacity=".7" stroke="#4C5C78" fill="none" stroke-linecap="butt" d="m150 421-6 1h-6l3 14 10-4 6 7 2-3h3l2 3 4-6 9 1 6 1h9l8-9-3 11 5 1h6-2 24"/><path cx="230" cy="438" r="2" fill="#4C5C78" opacity=".7" d="m228 436 4 2-4 2z"/></g><g class="key-Croatia"><circle cx="159" cy="369" r="1.3" fill="#4C5C78" opacity=".7"/><path stroke-width=".5" opacity=".7" stroke="#4C5C78" fill="none" stroke-linecap="butt" d="M159 369h33l6-1h13l12-1h11l10-1-8 1-1-3h6l3 4-5 4v4l8 16 8-1 8 2"/><path cx="263" cy="393" r="2" fill="#4C5C78" opacity=".7" d="m261.54 390.57 3.4 2.92-4.37.97z"/></g><g class="key-Cyprus"><circle cx="250" cy="375" r="1.3" fill="#4C5C78" opacity=".7"/><path stroke-width=".5" opacity=".7" stroke="#4C5C78" fill="none" stroke-linecap="butt" d="M250 375h-4l2-2-3-2 10-1 23-2 3-6-8 7-14 1 2 10 26 7 4 4 7-7 8-2-3 6h-2l-5-1-1 1-13 9-7-2 19-2 7-4 8 5"/><path cx="309" cy="394" r="2" fill="#4C5C78" opacity=".7" d="m308.36 391.24 2.34 3.82-4.46-.42z"/></g><g class="key-Ecuador"><circle cx="129" cy="364" r="1.3" fill="#932834" opacity=".7"/><path stroke-width=".5" opacity=".7" stroke="#932834" fill="none" stroke-linecap="butt" d="M129 364v1l1 2v2l-3 33 1-3 2-3 3-3 2-3 4 13 6-6 4 9 2 11 6-7-3 5 5 4 6 5 3 9 4 1v3l-6 7-2 12 1 1"/><path cx="165" cy="457" r="2" fill="#932834" opacity=".7" d="m165 454.17 1.41 4.24-4.24-1.41z"/></g><g class="key-Estonia"><circle cx="159" cy="354" r="1.3" fill="#4C5C78" opacity=".7"/><path stroke-width=".5" opacity=".7" stroke="#4C5C78" fill="none" stroke-linecap="butt" d="M159 354h7v1h-1 9l5 2 6-1 7-1 5-2 23-5 12 1 16 1 3 8-16 33 7-10 18-11 9 8 4 5 1 1-4 2h4l11-1"/><path cx="285" cy="385" r="2" fill="#4C5C78" opacity=".7" d="m282.83 383.19 4.16 1.63-3.8 2.35z"/></g><g class="key-Latvia"><circle cx="154" cy="356" r="1.3" fill="#4C5C78" opacity=".7"/><path stroke-width=".5" opacity=".7" stroke="#4C5C78" fill="none" stroke-linecap="butt" d="M154 356h15l7-3 3 12 3 3 5 12 14-7h7l12 7 9-31-17 12 6 5 12-4 6 4 4 2 8-3 7 9h4l12 4"/><path cx="271" cy="378" r="2" fill="#4C5C78" opacity=".7" d="m269.74 375.47 3.16 3.16-4.43.63z"/></g><g class="key-Lithuania"><circle cx="154" cy="417" r="1.3" fill="#4C5C78" opacity=".7"/><path stroke-width=".5" opacity=".7" stroke="#4C5C78" fill="none" stroke-linecap="butt" d="M154 417h3l3-1 3-12 2 14 6-30 7 3 2 8 10 4 2-23h14l9 1 12-8 9-7-18 18 11-15 16 6 10 1 4 4 9 2 3-6 4-6 10 10"/><path cx="285" cy="380" r="2" fill="#4C5C78" opacity=".7" d="m285 377.17 1.41 4.24-4.24-1.41z"/></g><g class="key-Poland"><circle cx="169" cy="329" r="1.3" fill="#4C5C78" opacity=".7"/><path stroke-width=".5" opacity=".7" stroke="#4C5C78" fill="none" stroke-linecap="butt" d="M169 329h16l5-8 2 8h1l2 1 1-1h4l6 1h15l8 2 5 4 14 1 11 2 5 1 1 1 2-2 9-2h4l10 5"/><path cx="290" cy="342" r="2" fill="#4C5C78" opacity=".7" d="m289.1 339.32 2.69 3.57h-4.47z"/></g><g class="key-Romania"><circle cx="148" cy="394" r="1.3" fill="#4C5C78" opacity=".7"/><path stroke-width=".5" opacity=".7" stroke="#4C5C78" fill="none" stroke-linecap="butt" d="m148 394 3-10h-3l-1 1v2l2-1h5l2-3 4 7 8-12 5 2 12 10 12-1 17 1-1 5 3-6 5-2 8 9 1 2 3 3 10 2 12-6 18 6"/><path cx="273" cy="403" r="2" fill="#4C5C78" opacity=".7" d="m271.74 400.47 3.16 3.16-4.43.63z"/></g><g class="key-Slovenia"><circle cx="228" cy="410" r="1.3" fill="#4C5C78" opacity=".7"/><path stroke-width=".5" opacity=".7" stroke="#4C5C78" fill="none" stroke-linecap="butt" d="m228 410 5 7 3 3-1-3h4l7 4 1 4 3-6 4-1 6-3 15 10-1 7 6 3 19-4-18-2h3l5 4-1 5-3-5 3-4-3-2 3 9 14 7"/><path cx="302" cy="443" r="2" fill="#4C5C78" opacity=".7" d="m301.1 440.32 2.69 3.57h-4.47z"/></g><g class="key-South-Africa"><circle cx="157" cy="256" r="1.3" fill="#923E8B" opacity=".7"/><path stroke-width=".5" opacity=".7" stroke="#923E8B" fill="none" stroke-linecap="butt" d="m157 256 3-1v16l3-6 5-14 5 20 4-1v9l-3 9 2 3 3-5v11l1 1-1-3v6"/><path cx="179" cy="301" r="2" fill="#923E8B" opacity=".7" d="m181 299-2 4-2-4z"/></g><g class="backgroundLabels" fill="#333" font-weight="400"><text x="193" y="308" font-size="14.3" fill="#2D8587" style="fill:#fff;stroke:#fff;stroke-linecap:round;stroke-linejoin:round;stroke-width:.25em">China</text><text x="193" y="308" font-size="14.3" fill="#2D8587">China</text><text x="143.74" y="317.42" font-size="14.2" fill="#2D8587" style="fill:#fff;stroke:#fff;stroke-linecap:round;stroke-linejoin:round;stroke-width:.25em">India</text><text x="143.74" y="317.42" font-size="14.2" fill="#2D8587">India</text><text x="504.93" y="415.11" font-size="12.58" fill="#E04E4B" style="fill:#fff;stroke:#fff;stroke-linecap:round;stroke-linejoin:round;stroke-width:.25em">United States</text><text x="504.93" y="415.11" font-size="12.58" fill="#E04E4B">United States</text><text x="174.74" y="343.42" font-size="12.42" fill="#2D8587" style="fill:#fff;stroke:#fff;stroke-linecap:round;stroke-linejoin:round;stroke-width:.25em">Indonesia</text><text x="174.74" y="343.42" font-size="12.42" fill="#2D8587">Indonesia</text><text x="132.21" y="368.98" font-size="12.26" fill="#2D8587" style="fill:#fff;stroke:#fff;stroke-linecap:round;stroke-linejoin:round;stroke-width:.25em">Pakistan</text><text x="132.21" y="368.98" font-size="12.26" fill="#2D8587">Pakistan</text><text x="194" y="433.13" font-size="12.26" fill="#932834" style="fill:#fff;stroke:#fff;stroke-linecap:round;stroke-linejoin:round;stroke-width:.25em">Brazil</text><text x="194" y="433.13" font-size="12.26" fill="#932834">Brazil</text><text x="117.71" y="257" font-size="12.11" fill="#2D8587" style="fill:#fff;stroke:#fff;stroke-linecap:round;stroke-linejoin:round;stroke-width:.25em">Bangladesh</text><text x="117.71" y="257" font-size="12.11" fill="#2D8587">Bangladesh</text><text x="264.85" y="353.79" font-size="12.06" fill="#4C5C78" style="fill:#fff;stroke:#fff;stroke-linecap:round;stroke-linejoin:round;stroke-width:.25em">Russia</text><text x="264.85" y="353.79" font-size="12.06" fill="#4C5C78">Russia</text><text x="397.93" y="419.82" font-size="11.99" fill="#2D8587" style="fill:#fff;stroke:#fff;stroke-linecap:round;stroke-linejoin:round;stroke-width:.25em">Japan</text><text x="397.93" y="419.82" font-size="11.99" fill="#2D8587">Japan</text><text x="450" y="415" font-size="11.43" fill="#A8633C" style="fill:#fff;stroke:#fff;stroke-linecap:round;stroke-linejoin:round;stroke-width:.25em">Australia</text><text x="450" y="415" font-size="11.43" fill="#A8633C">Australia</text><text x="440.79" y="454.07" font-size="11.26" fill="#4C5C78" style="fill:#fff;stroke:#fff;stroke-linecap:round;stroke-linejoin:round;stroke-width:.25em">Austria</text><text x="440.79" y="454.07" font-size="11.26" fill="#4C5C78">Austria</text><text x="381.96" y="453.38" font-size="11.3" fill="#4C5C78" style="fill:#fff;stroke:#fff;stroke-linecap:round;stroke-linejoin:round;stroke-width:.25em">Belgium</text><text x="381.96" y="453.38" font-size="11.3" fill="#4C5C78">Belgium</text><text x="189.24" y="366.28" font-size="11.61" fill="#932834" style="fill:#fff;stroke:#fff;stroke-linecap:round;stroke-linejoin:round;stroke-width:.25em">Colombia</text><text x="189.24" y="366.28" font-size="11.61" fill="#932834">Colombia</text><text x="390.57" y="479.88" font-size="11.7" fill="#4C5C78" style="fill:#fff;stroke:#fff;stroke-linecap:round;stroke-linejoin:round;stroke-width:.25em">France</text><text x="390.57" y="479.88" font-size="11.7" fill="#4C5C78">France</text><text x="450.98" y="503.6" font-size="11.8" fill="#4C5C78" style="fill:#fff;stroke:#fff;stroke-linecap:round;stroke-linejoin:round;stroke-width:.25em">Germany</text><text x="450.98" y="503.6" font-size="11.8" fill="#4C5C78">Germany</text><text x="662.97" y="404.49" font-size="11.19" fill="#4C5C78" style="fill:#fff;stroke:#fff;stroke-linecap:round;stroke-linejoin:round;stroke-width:.25em">Ireland</text><text x="662.97" y="404.49" font-size="11.19" fill="#4C5C78">Ireland</text><text x="548.6" y="503.6" font-size="11.2" fill="#4C5C78" style="fill:#fff;stroke:#fff;stroke-linecap:round;stroke-linejoin:round;stroke-width:.25em">Norway</text><text x="548.6" y="503.6" font-size="11.2" fill="#4C5C78">Norway</text><text x="228.04" y="390.8" font-size="11.28" fill="#4C5C78" style="fill:#fff;stroke:#fff;stroke-linecap:round;stroke-linejoin:round;stroke-width:.25em">Portugal</text><text x="228.04" y="390.8" font-size="11.28" fill="#4C5C78">Portugal</text><text x="575.62" y="463.55" font-size="11.25" fill="#4C5C78" style="fill:#fff;stroke:#fff;stroke-linecap:round;stroke-linejoin:round;stroke-width:.25em">Switzerland</text><text x="575.62" y="463.55" font-size="11.25" fill="#4C5C78">Switzerland</text><text x="261" y="371.69" font-size="11.38" fill="#932834" style="fill:#fff;stroke:#fff;stroke-linecap:round;stroke-linejoin:round;stroke-width:.25em">Chile</text><text x="261" y="371.69" font-size="11.38" fill="#932834">Chile</text><text x="273.16" y="335.23" font-size="11.28" fill="#4C5C78" style="fill:#fff;stroke:#fff;stroke-linecap:round;stroke-linejoin:round;stroke-width:.25em">Greece</text><text x="273.16" y="335.23" font-size="11.28" fill="#4C5C78">Greece</text><text x="417.29" y="336.48" font-size="11.43" fill="#2D8587" style="fill:#fff;stroke:#fff;stroke-linecap:round;stroke-linejoin:round;stroke-width:.25em">Taiwan</text><text x="417.29" y="336.48" font-size="11.43" fill="#2D8587">Taiwan</text><text x="364.37" y="357.22" font-size="11.63" fill="#2D8587" style="fill:#fff;stroke:#fff;stroke-linecap:round;stroke-linejoin:round;stroke-width:.25em">South Korea</text><text x="364.37" y="357.22" font-size="11.63" fill="#2D8587">South Korea</text><text x="597.85" y="273.82" font-size="11.21" fill="#2D8587" style="fill:#fff;stroke:#fff;stroke-linecap:round;stroke-linejoin:round;stroke-width:.25em">Singapore</text><text x="597.85" y="273.82" font-size="11.21" fill="#2D8587">Singapore</text><text x="653.99" y="477.85" font-size="11.07" fill="#4C5C78" style="fill:#fff;stroke:#fff;stroke-linecap:round;stroke-linejoin:round;stroke-width:.25em">Luxembourg</text><text x="653.99" y="477.85" font-size="11.07" fill="#4C5C78">Luxembourg</text><text x="265.95" y="300.29" font-size="11.49" fill="#2D8587" style="fill:#fff;stroke:#fff;stroke-linecap:round;stroke-linejoin:round;stroke-width:.25em">Malaysia</text><text x="265.95" y="300.29" font-size="11.49" fill="#2D8587">Malaysia</text><text x="300" y="391" font-size="11.79" fill="#2D8587" style="fill:#fff;stroke:#fff;stroke-linecap:round;stroke-linejoin:round;stroke-width:.25em">Turkey</text><text x="300" y="391" font-size="11.79" fill="#2D8587">Turkey</text><text x="243" y="466" font-size="11.16" fill="#932834" style="fill:#fff;stroke:#fff;stroke-linecap:round;stroke-linejoin:round;stroke-width:.25em">Uruguay</text><text x="243" y="466" font-size="11.16" fill="#932834">Uruguay</text><text x="117.24" y="227.53" font-size="11.35" fill="#2D8587" style="fill:#fff;stroke:#fff;stroke-linecap:round;stroke-linejoin:round;stroke-width:.25em">Cambodia</text><text x="117.24" y="227.53" font-size="11.35" fill="#2D8587">Cambodia</text><text x="235" y="438" font-size="11.23" fill="#4C5C78" style="fill:#fff;stroke:#fff;stroke-linecap:round;stroke-linejoin:round;stroke-width:.25em">Bulgaria</text><text x="235" y="438" font-size="11.23" fill="#4C5C78">Bulgaria</text><text x="168.54" y="466.21" font-size="11.36" fill="#932834" style="fill:#fff;stroke:#fff;stroke-linecap:round;stroke-linejoin:round;stroke-width:.25em">Ecuador</text><text x="168.54" y="466.21" font-size="11.36" fill="#932834">Ecuador</text><text x="277.74" y="410.28" font-size="11.39" fill="#4C5C78" style="fill:#fff;stroke:#fff;stroke-linecap:round;stroke-linejoin:round;stroke-width:.25em">Romania</text><text x="277.74" y="410.28" font-size="11.39" fill="#4C5C78">Romania</text><text x="306.47" y="450.8" font-size="11.13" fill="#4C5C78" style="fill:#fff;stroke:#fff;stroke-linecap:round;stroke-linejoin:round;stroke-width:.25em">Slovenia</text><text x="306.47" y="450.8" font-size="11.13" fill="#4C5C78">Slovenia</text></g></g><g class="ScatterColorLegend clickable" style="cursor:pointer"><g class="legendMark"><path fill="#923E8B" d="M738.09 94h9v9h-9z"/><text font-size="12.6" x="752.1" y="102.3"><tspan x="752.09" y="102.28">Africa</tspan></text></g><g class="legendMark"><path fill="#2D8587" d="M738.09 111.6h9v9h-9z"/><text font-size="12.6" x="752.1" y="119.9"><tspan x="752.09" y="119.88">Asia</tspan></text></g><g class="legendMark"><path fill="#4C5C78" d="M738.09 129.2h9v9h-9z"/><text font-size="12.6" x="752.1" y="137.5"><tspan x="752.09" y="137.48">Europe</tspan></text></g><g class="legendMark"><path fill="#E04E4B" d="M738.09 146.8h9v9h-9z"/><text font-size="12.6" x="752.1" y="155.1"><tspan x="752.09" y="155.08">North America</tspan></text></g><g class="legendMark"><path fill="#A8633C" d="M738.09 164.4h9v9h-9z"/><text font-size="12.6" x="752.1" y="172.7"><tspan x="752.09" y="172.68">Oceania</tspan></text></g><g class="legendMark"><path fill="#932834" d="M738.09 182h9v9h-9z"/><text font-size="12.6" x="752.1" y="190.3"><tspan x="752.09" y="190.28">South America</tspan></text></g></g><path stroke="#ccc" d="M738.09 198.8H830"/><g class="clickable"><g class="ConnectedScatterLegend"><text font-size="12.6" x="738.1" y="215.9" fill="#333"><tspan x="738.09" y="215.88">1950</tspan></text><text font-size="12.6" x="806.8" y="215.9" fill="#333"><tspan x="806.78" y="215.88">2017</tspan></text><path stroke="#666" stroke-width="1" d="M771.32 211.6h30.46"/><circle cx="771.32" cy="211.6" r="2" fill="#666" stroke="#ccc" stroke-width=".2"/><circle cx="781.47" cy="211.6" r="2" fill="#666" stroke="#ccc" stroke-width=".2"/><circle cx="791.62" cy="211.6" r="2" fill="#666" stroke="#ccc" stroke-width=".2"/><path cx="801.78" cy="211.6" r="3" fill="#666" stroke="#ccc" stroke-width=".2" d="m798.78 208.6 6 3-6 3z"/></g></g></g><g class="SourcesFooter" style="fill:#777"><g style="fill:#777"><text font-size="12.6" x="15" y="582.5"><tspan x="15" y="582.48">Source: Feenstra et al. (2015) Penn World Table 9.1</tspan></text></g><text font-size="12.6" x="587.3" y="582.5"><tspan x="587.28" y="582.48"><a target="_blank" style="fill:#777" href="https://ourworldindata.org/working-hours">OurWorldInData.org/working-hours</a> • <a style="fill:#777" class="cclogo" href="http://creativecommons.org/licenses/by/4.0/deed.en_US" target="_blank">CC BY</a></tspan></text></g></svg>