<svg xmlns="http://www.w3.org/2000/svg" version="1.1" style="background-color:#fff;-webkit-font-smoothing:antialiased" width="850" height="600" viewBox="0 0 850 600" font-family="Lato,'Helvetica Neue',Helvetica,Arial,sans-serif" font-size="18" text-rendering="geometricPrecision"><g class="HeaderView"><g transform="matrix(.29 0 0 .29 774 15)"><svg className="owidLog" width="210" height="120" viewBox="0 0 210 120" fill="none" xmlns="http://www.w3.org/2000/svg"><g clip-path="url(#clip0)"><path d="M0 0h210v107.89H0V0z" fill="#002147"/><path d="M40.98 32.25c0 2.36-.38 4.53-1.12 6.51a14.26 14.26 0 01-8.1 8.4c-1.9.78-4.02 1.17-6.34 1.17a16.6 16.6 0 01-6.33-1.17 14.31 14.31 0 01-8.08-8.4 18.29 18.29 0 01-1.12-6.51c0-2.36.38-4.53 1.12-6.5.75-1.97 1.8-3.67 3.17-5.1a14.32 14.32 0 014.9-3.34c1.92-.8 4.03-1.19 6.34-1.19 2.32 0 4.43.4 6.34 1.19 1.92.8 3.56 1.9 4.93 3.34a14.87 14.87 0 013.17 5.1 18.1 18.1 0 011.12 6.5zm-4.38 0c0-1.94-.26-3.68-.8-5.22a10.91 10.91 0 00-2.24-3.89 9.68 9.68 0 00-3.52-2.46 11.95 11.95 0 00-4.62-.86c-1.68 0-3.21.28-4.6.86a9.88 9.88 0 00-3.54 2.46 10.91 10.91 0 00-2.24 3.9c-.53 1.53-.8 3.27-.8 5.2 0 1.94.27 3.68.8 5.22a11.17 11.17 0 002.24 3.9 10.01 10.01 0 003.55 2.44c1.38.56 2.9.83 4.6.83s3.24-.27 4.61-.83a9.8 9.8 0 003.52-2.44 11.17 11.17 0 002.25-3.9c.53-1.54.8-3.28.8-5.21zm26.22-6.54V48H60.5c-.56 0-.9-.27-1.05-.81l-.31-2.4a12.45 12.45 0 01-3.26 2.6c-1.2.64-2.58.96-4.13.96-1.22 0-2.3-.2-3.24-.6a6.52 6.52 0 01-2.33-1.7 7.37 7.37 0 01-1.43-2.67c-.3-1.04-.46-2.2-.46-3.45V25.7h3.91v14.22c0 1.68.38 2.99 1.15 3.91.77.93 1.96 1.39 3.54 1.39 1.16 0 2.24-.27 3.23-.82a10.42 10.42 0 002.8-2.28V25.7h3.91zm8.61 4.47a9.94 9.94 0 012.6-3.56 5.64 5.64 0 013.76-1.3c.47 0 .92.05 1.34.15.44.1.83.27 1.17.49l-.3 2.92c-.09.37-.3.55-.66.55-.2 0-.5-.04-.9-.13a6.21 6.21 0 00-3.24.18 4.23 4.23 0 00-1.47.92c-.42.4-.81.9-1.17 1.5-.33.58-.64 1.26-.92 2.02V48H67.7V25.71h2.25c.42 0 .72.08.88.25.16.16.27.44.33.83l.26 3.39zm61.16-13.7L122.75 48h-3.82l-7.99-24.05a21.95 21.95 0 01-.42-1.58 38.36 38.36 0 01-.44 1.58L102.05 48h-3.83L88.4 16.47h3.54c.38 0 .7.1.95.29.26.2.43.43.5.73l6.52 21.9.28 1.28.29 1.46.3-1.46.38-1.27 7.41-21.91c.1-.25.26-.48.51-.69.27-.22.58-.33.95-.33h1.23c.38 0 .69.1.92.29a1.77 1.77 0 01.53.73l7.4 21.9a28.4 28.4 0 01.68 2.62 29.52 29.52 0 01.52-2.61l6.54-21.91a1.31 1.31 0 01.48-.7c.27-.21.58-.32.95-.32h3.32zm9.35 8.88c1.63 0 3.1.27 4.4.82a9.43 9.43 0 015.46 5.94c.5 1.4.74 2.98.74 4.73 0 1.76-.25 3.34-.74 4.75a9.43 9.43 0 01-5.46 5.92c-1.3.52-2.77.79-4.4.79-1.64 0-3.12-.27-4.44-.8a9.42 9.42 0 01-3.35-2.3c-.92-1-1.63-2.2-2.13-3.61-.49-1.41-.73-3-.73-4.75s.24-3.33.73-4.73c.5-1.43 1.2-2.64 2.13-3.63a9.4 9.4 0 013.35-2.31c1.32-.55 2.8-.82 4.44-.82zm0 19.89c2.2 0 3.84-.73 4.93-2.2 1.08-1.48 1.63-3.54 1.63-6.18 0-2.66-.55-4.72-1.63-6.2-1.09-1.49-2.73-2.23-4.93-2.23-1.12 0-2.09.2-2.93.57a5.71 5.71 0 00-2.06 1.65 7.5 7.5 0 00-1.24 2.67c-.26 1.04-.4 2.22-.4 3.54 0 2.64.55 4.7 1.64 6.18 1.1 1.47 2.76 2.2 4.99 2.2zm17.97-15.07a9.94 9.94 0 012.6-3.56 5.64 5.64 0 013.76-1.3c.47 0 .91.05 1.34.15.44.1.83.27 1.16.49l-.28 2.92c-.09.37-.31.55-.66.55-.2 0-.5-.04-.9-.13a6.2 6.2 0 00-3.24.18 4.23 4.23 0 00-1.47.92c-.43.4-.82.9-1.17 1.5a13.1 13.1 0 00-.92 2.02V48h-3.94V25.71h2.24c.43 0 .72.08.88.25.17.16.28.44.33.83l.27 3.39zm15.04-14.59V48h-3.92V15.6h3.92zm19.55 15.43a6.22 6.22 0 00-2.38-2.05 6.7 6.7 0 00-2.86-.6c-2.07 0-3.66.75-4.77 2.23-1.12 1.48-1.68 3.6-1.68 6.33 0 1.46.13 2.7.38 3.74a7.29 7.29 0 001.1 2.56 4.35 4.35 0 001.78 1.45c.7.3 1.5.46 2.4.46 1.29 0 2.41-.3 3.36-.88a9.6 9.6 0 002.67-2.49V31.02zm3.91-15.43V48h-2.33c-.56 0-.9-.27-1.06-.81l-.35-2.71a12.13 12.13 0 01-3.25 2.77 8.28 8.28 0 01-4.23 1.06 7.31 7.31 0 01-6.14-2.9c-.73-.96-1.3-2.15-1.69-3.57a18.35 18.35 0 01.07-9.48 11.29 11.29 0 011.89-3.7 8.7 8.7 0 017.06-3.34 7.96 7.96 0 016.12 2.62V15.59h3.91zM46.61 70.71V93H42.7V70.71h3.91zm.84-7c0 .39-.08.75-.24 1.09a2.81 2.81 0 01-1.52 1.47 2.67 2.67 0 01-2.16 0 2.9 2.9 0 01-1.45-1.47 2.67 2.67 0 010-2.16c.15-.35.35-.65.6-.9.25-.27.53-.47.85-.62a2.67 2.67 0 012.16 0c.35.15.65.35.9.62.27.25.47.55.62.9.16.34.24.7.24 1.08zm7.97 10.24c.49-.54 1-1.04 1.54-1.48a9.85 9.85 0 013.66-1.84 8.96 8.96 0 015.43.35c.94.4 1.72.97 2.33 1.71a7.36 7.36 0 011.43 2.67c.32 1.04.49 2.19.49 3.45V93h-3.94V78.81c0-1.69-.4-3-1.17-3.92-.76-.93-1.93-1.4-3.5-1.4a6.6 6.6 0 00-3.25.83c-1 .56-1.92 1.31-2.77 2.27V93h-3.94V70.71h2.35c.56 0 .9.28 1.04.82l.3 2.42zm57.7 3.3c0 2.36-.37 4.5-1.11 6.44a14.3 14.3 0 01-3.17 4.98 14.1 14.1 0 01-4.93 3.2c-1.9.76-4.02 1.13-6.33 1.13H85.8V61.47h11.77c2.31 0 4.42.39 6.33 1.15a13.8 13.8 0 018.1 8.18 17.75 17.75 0 011.12 6.45zm-4.37 0c0-1.94-.26-3.67-.8-5.2a10.94 10.94 0 00-2.23-3.87 9.57 9.57 0 00-3.53-2.42 12.23 12.23 0 00-4.61-.83h-7.5v24.62h7.5c1.7 0 3.24-.28 4.61-.84a9.7 9.7 0 003.53-2.4 10.94 10.94 0 002.24-3.87c.53-1.53.8-3.26.8-5.2zm19.8 5.72c-1.8.06-3.34.2-4.62.44-1.26.22-2.3.51-3.1.88-.8.36-1.37.8-1.74 1.3-.35.5-.53 1.05-.53 1.67 0 .58.1 1.1.3 1.52a3 3 0 00.76 1.05c.34.27.73.46 1.17.6a6.13 6.13 0 001.45.17 7.28 7.28 0 003.5-.81 11.95 11.95 0 002.82-2.2v-4.62zm-12.65-9.11a12.73 12.73 0 013.98-2.66c1.43-.59 3-.88 4.73-.88 1.25 0 2.36.2 3.33.61a6.81 6.81 0 013.94 4.38c.33 1.04.5 2.19.5 3.43V93h-1.74a1.8 1.8 0 01-.88-.18c-.2-.13-.36-.38-.48-.74l-.44-2.12-1.72 1.46a9.48 9.48 0 01-3.74 1.7c-.69.15-1.46.23-2.3.23-.87 0-1.69-.12-2.45-.35a5.34 5.34 0 01-3.34-2.93 6.64 6.64 0 01-.49-2.64c0-.88.25-1.72.73-2.53a6.33 6.33 0 012.35-2.17c1.09-.63 2.5-1.15 4.25-1.54 1.75-.41 3.89-.65 6.42-.7v-1.75c0-1.73-.37-3.03-1.12-3.91-.75-.9-1.84-1.34-3.28-1.34-.97 0-1.78.12-2.44.37-.64.23-1.2.5-1.7.81l-1.23.82c-.33.23-.67.35-1 .35-.27 0-.5-.07-.69-.2a2.1 2.1 0 01-.48-.53l-.7-1.25zm27.67 19.5c-1.76 0-3.12-.5-4.07-1.48-.94-.98-1.41-2.4-1.41-4.25V74h-2.68a.9.9 0 01-.6-.2c-.16-.14-.24-.36-.24-.66v-1.56l3.65-.46.9-6.89a.9.9 0 01.29-.52.88.88 0 01.62-.22H142v7.67h6.44V74H142v13.38c0 .94.22 1.63.68 2.09.45.45 1.04.68 1.76.68a3.21 3.21 0 001.85-.53l.55-.35c.16-.12.3-.18.41-.18.2 0 .4.13.55.38l1.15 1.87a7.45 7.45 0 01-2.44 1.5 8.53 8.53 0 01-2.95.52zm19.68-10.4c-1.8.07-3.34.21-4.62.45-1.26.22-2.3.51-3.1.88-.8.36-1.37.8-1.74 1.3-.35.5-.53 1.05-.53 1.67 0 .58.1 1.1.3 1.52a2.9 2.9 0 00.76 1.05c.34.27.73.46 1.17.6a6.13 6.13 0 001.45.17 7.3 7.3 0 003.5-.81 12.04 12.04 0 002.82-2.2v-4.62zm-12.65-9.1a12.72 12.72 0 013.99-2.66c1.42-.59 3-.88 4.72-.88 1.25 0 2.36.2 3.33.61a6.81 6.81 0 013.94 4.38c.33 1.04.5 2.19.5 3.43V93h-1.74a1.8 1.8 0 01-.88-.18c-.2-.13-.36-.38-.48-.74l-.44-2.12-1.72 1.46a9.48 9.48 0 01-3.74 1.7c-.69.15-1.46.23-2.3.23-.87 0-1.69-.12-2.45-.35a5.33 5.33 0 01-3.34-2.93 6.62 6.62 0 01-.49-2.64c0-.88.25-1.72.73-2.53a6.33 6.33 0 012.35-2.17c1.09-.63 2.5-1.15 4.25-1.54a31.2 31.2 0 016.42-.7v-1.75c0-1.73-.37-3.03-1.12-3.91-.75-.9-1.84-1.34-3.28-1.34-.97 0-1.78.12-2.44.37-.64.23-1.2.5-1.7.81l-1.22.82c-.34.23-.68.35-1.02.35-.26 0-.49-.07-.68-.2a1.88 1.88 0 01-.48-.53l-.7-1.25zM40.98 32.25c0 2.36-.38 4.53-1.12 6.51a14.26 14.26 0 01-8.1 8.4c-1.9.78-4.02 1.17-6.34 1.17a16.6 16.6 0 01-6.33-1.17 14.31 14.31 0 01-8.08-8.4 18.29 18.29 0 01-1.12-6.51c0-2.36.38-4.53 1.12-6.5.75-1.97 1.8-3.67 3.17-5.1a14.32 14.32 0 014.9-3.34c1.92-.8 4.03-1.19 6.34-1.19 2.32 0 4.43.4 6.34 1.19 1.92.8 3.56 1.9 4.93 3.34a14.87 14.87 0 013.17 5.1 18.1 18.1 0 011.12 6.5zm-4.38 0c0-1.94-.26-3.68-.8-5.22a10.91 10.91 0 00-2.24-3.89 9.68 9.68 0 00-3.52-2.46 11.95 11.95 0 00-4.62-.86c-1.68 0-3.21.28-4.6.86a9.88 9.88 0 00-3.54 2.46 10.91 10.91 0 00-2.24 3.9c-.53 1.53-.8 3.27-.8 5.2 0 1.94.27 3.68.8 5.22a11.17 11.17 0 002.24 3.9 10.01 10.01 0 003.55 2.44c1.38.56 2.9.83 4.6.83s3.24-.27 4.61-.83a9.8 9.8 0 003.52-2.44 11.17 11.17 0 002.25-3.9c.53-1.54.8-3.28.8-5.21zm26.22-6.54V48H60.5c-.56 0-.9-.27-1.05-.81l-.31-2.4a12.45 12.45 0 01-3.26 2.6c-1.2.64-2.58.96-4.13.96-1.22 0-2.3-.2-3.24-.6a6.52 6.52 0 01-2.33-1.7 7.37 7.37 0 01-1.43-2.67c-.3-1.04-.46-2.2-.46-3.45V25.7h3.91v14.22c0 1.68.38 2.99 1.15 3.91.77.93 1.96 1.39 3.54 1.39 1.16 0 2.24-.27 3.23-.82a10.42 10.42 0 002.8-2.28V25.7h3.91zm8.61 4.47a9.94 9.94 0 012.6-3.56 5.64 5.64 0 013.76-1.3c.47 0 .92.05 1.34.15.44.1.83.27 1.17.49l-.3 2.92c-.09.37-.3.55-.66.55-.2 0-.5-.04-.9-.13a6.21 6.21 0 00-3.24.18 4.23 4.23 0 00-1.47.92c-.42.4-.81.9-1.17 1.5-.33.58-.64 1.26-.92 2.02V48H67.7V25.71h2.25c.42 0 .72.08.88.25.16.16.27.44.33.83l.26 3.39zm61.16-13.7L122.75 48h-3.82l-7.99-24.05a21.95 21.95 0 01-.42-1.58 38.36 38.36 0 01-.44 1.58L102.05 48h-3.83L88.4 16.47h3.54c.38 0 .7.1.95.29.26.2.43.43.5.73l6.52 21.9.28 1.28.29 1.46.3-1.46.38-1.27 7.41-21.91c.1-.25.26-.48.51-.69.27-.22.58-.33.95-.33h1.23c.38 0 .69.1.92.29a1.77 1.77 0 01.53.73l7.4 21.9a28.4 28.4 0 01.68 2.62 29.52 29.52 0 01.52-2.61l6.54-21.91a1.31 1.31 0 01.48-.7c.27-.21.58-.32.95-.32h3.32zm9.35 8.88c1.63 0 3.1.27 4.4.82a9.43 9.43 0 015.46 5.94c.5 1.4.74 2.98.74 4.73 0 1.76-.25 3.34-.74 4.75a9.43 9.43 0 01-5.46 5.92c-1.3.52-2.77.79-4.4.79-1.64 0-3.12-.27-4.44-.8a9.42 9.42 0 01-3.35-2.3c-.92-1-1.63-2.2-2.13-3.61-.49-1.41-.73-3-.73-4.75s.24-3.33.73-4.73c.5-1.43 1.2-2.64 2.13-3.63a9.4 9.4 0 013.35-2.31c1.32-.55 2.8-.82 4.44-.82zm0 19.89c2.2 0 3.84-.73 4.93-2.2 1.08-1.48 1.63-3.54 1.63-6.18 0-2.66-.55-4.72-1.63-6.2-1.09-1.49-2.73-2.23-4.93-2.23-1.12 0-2.09.2-2.93.57a5.71 5.71 0 00-2.06 1.65 7.5 7.5 0 00-1.24 2.67c-.26 1.04-.4 2.22-.4 3.54 0 2.64.55 4.7 1.64 6.18 1.1 1.47 2.76 2.2 4.99 2.2zm17.97-15.07a9.94 9.94 0 012.6-3.56 5.64 5.64 0 013.76-1.3c.47 0 .91.05 1.34.15.44.1.83.27 1.16.49l-.28 2.92c-.09.37-.31.55-.66.55-.2 0-.5-.04-.9-.13a6.2 6.2 0 00-3.24.18 4.23 4.23 0 00-1.47.92c-.43.4-.82.9-1.17 1.5a13.1 13.1 0 00-.92 2.02V48h-3.94V25.71h2.24c.43 0 .72.08.88.25.17.16.28.44.33.83l.27 3.39zm15.04-14.59V48h-3.92V15.6h3.92zm19.55 15.43a6.22 6.22 0 00-2.38-2.05 6.7 6.7 0 00-2.86-.6c-2.07 0-3.66.75-4.77 2.23-1.12 1.48-1.68 3.6-1.68 6.33 0 1.46.13 2.7.38 3.74a7.29 7.29 0 001.1 2.56 4.35 4.35 0 001.78 1.45c.7.3 1.5.46 2.4.46 1.29 0 2.41-.3 3.36-.88a9.6 9.6 0 002.67-2.49V31.02zm3.91-15.43V48h-2.33c-.56 0-.9-.27-1.06-.81l-.35-2.71a12.13 12.13 0 01-3.25 2.77 8.28 8.28 0 01-4.23 1.06 7.31 7.31 0 01-6.14-2.9c-.73-.96-1.3-2.15-1.69-3.57a18.35 18.35 0 01.07-9.48 11.29 11.29 0 011.89-3.7 8.7 8.7 0 017.06-3.34 7.96 7.96 0 016.12 2.62V15.59h3.91zM46.61 70.71V93H42.7V70.71h3.91zm.84-7c0 .39-.08.75-.24 1.09a2.81 2.81 0 01-1.52 1.47 2.67 2.67 0 01-2.16 0 2.9 2.9 0 01-1.45-1.47 2.67 2.67 0 010-2.16c.15-.35.35-.65.6-.9.25-.27.53-.47.85-.62a2.67 2.67 0 012.16 0c.35.15.65.35.9.62.27.25.47.55.62.9.16.34.24.7.24 1.08zm7.97 10.24c.49-.54 1-1.04 1.54-1.48a9.85 9.85 0 013.66-1.84 8.96 8.96 0 015.43.35c.94.4 1.72.97 2.33 1.71a7.36 7.36 0 011.43 2.67c.32 1.04.49 2.19.49 3.45V93h-3.94V78.81c0-1.69-.4-3-1.17-3.92-.76-.93-1.93-1.4-3.5-1.4a6.6 6.6 0 00-3.25.83c-1 .56-1.92 1.31-2.77 2.27V93h-3.94V70.71h2.35c.56 0 .9.28 1.04.82l.3 2.42zm57.7 3.3c0 2.36-.37 4.5-1.11 6.44a14.3 14.3 0 01-3.17 4.98 14.1 14.1 0 01-4.93 3.2c-1.9.76-4.02 1.13-6.33 1.13H85.8V61.47h11.77c2.31 0 4.42.39 6.33 1.15a13.8 13.8 0 018.1 8.18 17.75 17.75 0 011.12 6.45zm-4.37 0c0-1.94-.26-3.67-.8-5.2a10.94 10.94 0 00-2.23-3.87 9.57 9.57 0 00-3.53-2.42 12.23 12.23 0 00-4.61-.83h-7.5v24.62h7.5c1.7 0 3.24-.28 4.61-.84a9.7 9.7 0 003.53-2.4 10.94 10.94 0 002.24-3.87c.53-1.53.8-3.26.8-5.2zm19.8 5.72c-1.8.06-3.34.2-4.62.44-1.26.22-2.3.51-3.1.88-.8.36-1.37.8-1.74 1.3-.35.5-.53 1.05-.53 1.67 0 .58.1 1.1.3 1.52a3 3 0 00.76 1.05c.34.27.73.46 1.17.6a6.13 6.13 0 001.45.17 7.28 7.28 0 003.5-.81 11.95 11.95 0 002.82-2.2v-4.62zm-12.65-9.11a12.73 12.73 0 013.98-2.66c1.43-.59 3-.88 4.73-.88 1.25 0 2.36.2 3.33.61a6.81 6.81 0 013.94 4.38c.33 1.04.5 2.19.5 3.43V93h-1.74a1.8 1.8 0 01-.88-.18c-.2-.13-.36-.38-.48-.74l-.44-2.12-1.72 1.46a9.48 9.48 0 01-3.74 1.7c-.69.15-1.46.23-2.3.23-.87 0-1.69-.12-2.45-.35a5.34 5.34 0 01-3.34-2.93 6.64 6.64 0 01-.49-2.64c0-.88.25-1.72.73-2.53a6.33 6.33 0 012.35-2.17c1.09-.63 2.5-1.15 4.25-1.54 1.75-.41 3.89-.65 6.42-.7v-1.75c0-1.73-.37-3.03-1.12-3.91-.75-.9-1.84-1.34-3.28-1.34-.97 0-1.78.12-2.44.37-.64.23-1.2.5-1.7.81l-1.23.82c-.33.23-.67.35-1 .35-.27 0-.5-.07-.69-.2a2.1 2.1 0 01-.48-.53l-.7-1.25zm27.67 19.5c-1.76 0-3.12-.5-4.07-1.48-.94-.98-1.41-2.4-1.41-4.25V74h-2.68a.9.9 0 01-.6-.2c-.16-.14-.24-.36-.24-.66v-1.56l3.65-.46.9-6.89a.9.9 0 01.29-.52.88.88 0 01.62-.22H142v7.67h6.44V74H142v13.38c0 .94.22 1.63.68 2.09.45.45 1.04.68 1.76.68a3.21 3.21 0 001.85-.53l.55-.35c.16-.12.3-.18.41-.18.2 0 .4.13.55.38l1.15 1.87a7.45 7.45 0 01-2.44 1.5 8.53 8.53 0 01-2.95.52zm19.68-10.4c-1.8.07-3.34.21-4.62.45-1.26.22-2.3.51-3.1.88-.8.36-1.37.8-1.74 1.3-.35.5-.53 1.05-.53 1.67 0 .58.1 1.1.3 1.52a2.9 2.9 0 00.76 1.05c.34.27.73.46 1.17.6a6.13 6.13 0 001.45.17 7.3 7.3 0 003.5-.81 12.04 12.04 0 002.82-2.2v-4.62zm-12.65-9.1a12.72 12.72 0 013.99-2.66c1.42-.59 3-.88 4.72-.88 1.25 0 2.36.2 3.33.61a6.81 6.81 0 013.94 4.38c.33 1.04.5 2.19.5 3.43V93h-1.74a1.8 1.8 0 01-.88-.18c-.2-.13-.36-.38-.48-.74l-.44-2.12-1.72 1.46a9.48 9.48 0 01-3.74 1.7c-.69.15-1.46.23-2.3.23-.87 0-1.69-.12-2.45-.35a5.33 5.33 0 01-3.34-2.93 6.62 6.62 0 01-.49-2.64c0-.88.25-1.72.73-2.53a6.33 6.33 0 012.35-2.17c1.09-.63 2.5-1.15 4.25-1.54a31.2 31.2 0 016.42-.7v-1.75c0-1.73-.37-3.03-1.12-3.91-.75-.9-1.84-1.34-3.28-1.34-.97 0-1.78.12-2.44.37-.64.23-1.2.5-1.7.81l-1.22.82c-.34.23-.68.35-1.02.35-.26 0-.49-.07-.68-.2a1.88 1.88 0 01-.48-.53l-.7-1.25zM40.98 32.25c0 2.36-.38 4.53-1.12 6.51a14.26 14.26 0 01-8.1 8.4c-1.9.78-4.02 1.17-6.34 1.17a16.6 16.6 0 01-6.33-1.17 14.31 14.31 0 01-8.08-8.4 18.29 18.29 0 01-1.12-6.51c0-2.36.38-4.53 1.12-6.5.75-1.97 1.8-3.67 3.17-5.1a14.32 14.32 0 014.9-3.34c1.92-.8 4.03-1.19 6.34-1.19 2.32 0 4.43.4 6.34 1.19 1.92.8 3.56 1.9 4.93 3.34a14.87 14.87 0 013.17 5.1 18.1 18.1 0 011.12 6.5zm-4.38 0c0-1.94-.26-3.68-.8-5.22a10.91 10.91 0 00-2.24-3.89 9.68 9.68 0 00-3.52-2.46 11.95 11.95 0 00-4.62-.86c-1.68 0-3.21.28-4.6.86a9.88 9.88 0 00-3.54 2.46 10.91 10.91 0 00-2.24 3.9c-.53 1.53-.8 3.27-.8 5.2 0 1.94.27 3.68.8 5.22a11.17 11.17 0 002.24 3.9 10.01 10.01 0 003.55 2.44c1.38.56 2.9.83 4.6.83s3.24-.27 4.61-.83a9.8 9.8 0 003.52-2.44 11.17 11.17 0 002.25-3.9c.53-1.54.8-3.28.8-5.21zm26.22-6.54V48H60.5c-.56 0-.9-.27-1.05-.81l-.31-2.4a12.45 12.45 0 01-3.26 2.6c-1.2.64-2.58.96-4.13.96-1.22 0-2.3-.2-3.24-.6a6.52 6.52 0 01-2.33-1.7 7.37 7.37 0 01-1.43-2.67c-.3-1.04-.46-2.2-.46-3.45V25.7h3.91v14.22c0 1.68.38 2.99 1.15 3.91.77.93 1.96 1.39 3.54 1.39 1.16 0 2.24-.27 3.23-.82a10.42 10.42 0 002.8-2.28V25.7h3.91zm8.61 4.47a9.94 9.94 0 012.6-3.56 5.64 5.64 0 013.76-1.3c.47 0 .92.05 1.34.15.44.1.83.27 1.17.49l-.3 2.92c-.09.37-.3.55-.66.55-.2 0-.5-.04-.9-.13a6.21 6.21 0 00-3.24.18 4.23 4.23 0 00-1.47.92c-.42.4-.81.9-1.17 1.5-.33.58-.64 1.26-.92 2.02V48H67.7V25.71h2.25c.42 0 .72.08.88.25.16.16.27.44.33.83l.26 3.39zm61.16-13.7L122.75 48h-3.82l-7.99-24.05a21.95 21.95 0 01-.42-1.58 38.36 38.36 0 01-.44 1.58L102.05 48h-3.83L88.4 16.47h3.54c.38 0 .7.1.95.29.26.2.43.43.5.73l6.52 21.9.28 1.28.29 1.46.3-1.46.38-1.27 7.41-21.91c.1-.25.26-.48.51-.69.27-.22.58-.33.95-.33h1.23c.38 0 .69.1.92.29a1.77 1.77 0 01.53.73l7.4 21.9a28.4 28.4 0 01.68 2.62 29.52 29.52 0 01.52-2.61l6.54-21.91a1.31 1.31 0 01.48-.7c.27-.21.58-.32.95-.32h3.32zm9.35 8.88c1.63 0 3.1.27 4.4.82a9.43 9.43 0 015.46 5.94c.5 1.4.74 2.98.74 4.73 0 1.76-.25 3.34-.74 4.75a9.43 9.43 0 01-5.46 5.92c-1.3.52-2.77.79-4.4.79-1.64 0-3.12-.27-4.44-.8a9.42 9.42 0 01-3.35-2.3c-.92-1-1.63-2.2-2.13-3.61-.49-1.41-.73-3-.73-4.75s.24-3.33.73-4.73c.5-1.43 1.2-2.64 2.13-3.63a9.4 9.4 0 013.35-2.31c1.32-.55 2.8-.82 4.44-.82zm0 19.89c2.2 0 3.84-.73 4.93-2.2 1.08-1.48 1.63-3.54 1.63-6.18 0-2.66-.55-4.72-1.63-6.2-1.09-1.49-2.73-2.23-4.93-2.23-1.12 0-2.09.2-2.93.57a5.71 5.71 0 00-2.06 1.65 7.5 7.5 0 00-1.24 2.67c-.26 1.04-.4 2.22-.4 3.54 0 2.64.55 4.7 1.64 6.18 1.1 1.47 2.76 2.2 4.99 2.2zm17.97-15.07a9.94 9.94 0 012.6-3.56 5.64 5.64 0 013.76-1.3c.47 0 .91.05 1.34.15.44.1.83.27 1.16.49l-.28 2.92c-.09.37-.31.55-.66.55-.2 0-.5-.04-.9-.13a6.2 6.2 0 00-3.24.18 4.23 4.23 0 00-1.47.92c-.43.4-.82.9-1.17 1.5a13.1 13.1 0 00-.92 2.02V48h-3.94V25.71h2.24c.43 0 .72.08.88.25.17.16.28.44.33.83l.27 3.39zm15.04-14.59V48h-3.92V15.6h3.92zm19.55 15.43a6.22 6.22 0 00-2.38-2.05 6.7 6.7 0 00-2.86-.6c-2.07 0-3.66.75-4.77 2.23-1.12 1.48-1.68 3.6-1.68 6.33 0 1.46.13 2.7.38 3.74a7.29 7.29 0 001.1 2.56 4.35 4.35 0 001.78 1.45c.7.3 1.5.46 2.4.46 1.29 0 2.41-.3 3.36-.88a9.6 9.6 0 002.67-2.49V31.02zm3.91-15.43V48h-2.33c-.56 0-.9-.27-1.06-.81l-.35-2.71a12.13 12.13 0 01-3.25 2.77 8.28 8.28 0 01-4.23 1.06 7.31 7.31 0 01-6.14-2.9c-.73-.96-1.3-2.15-1.69-3.57a18.35 18.35 0 01.07-9.48 11.29 11.29 0 011.89-3.7 8.7 8.7 0 017.06-3.34 7.96 7.96 0 016.12 2.62V15.59h3.91zM46.61 70.71V93H42.7V70.71h3.91zm.84-7c0 .39-.08.75-.24 1.09a2.81 2.81 0 01-1.52 1.47 2.67 2.67 0 01-2.16 0 2.9 2.9 0 01-1.45-1.47 2.67 2.67 0 010-2.16c.15-.35.35-.65.6-.9.25-.27.53-.47.85-.62a2.67 2.67 0 012.16 0c.35.15.65.35.9.62.27.25.47.55.62.9.16.34.24.7.24 1.08zm7.97 10.24c.49-.54 1-1.04 1.54-1.48a9.85 9.85 0 013.66-1.84 8.96 8.96 0 015.43.35c.94.4 1.72.97 2.33 1.71a7.36 7.36 0 011.43 2.67c.32 1.04.49 2.19.49 3.45V93h-3.94V78.81c0-1.69-.4-3-1.17-3.92-.76-.93-1.93-1.4-3.5-1.4a6.6 6.6 0 00-3.25.83c-1 .56-1.92 1.31-2.77 2.27V93h-3.94V70.71h2.35c.56 0 .9.28 1.04.82l.3 2.42zm57.7 3.3c0 2.36-.37 4.5-1.11 6.44a14.3 14.3 0 01-3.17 4.98 14.1 14.1 0 01-4.93 3.2c-1.9.76-4.02 1.13-6.33 1.13H85.8V61.47h11.77c2.31 0 4.42.39 6.33 1.15a13.8 13.8 0 018.1 8.18 17.75 17.75 0 011.12 6.45zm-4.37 0c0-1.94-.26-3.67-.8-5.2a10.94 10.94 0 00-2.23-3.87 9.57 9.57 0 00-3.53-2.42 12.23 12.23 0 00-4.61-.83h-7.5v24.62h7.5c1.7 0 3.24-.28 4.61-.84a9.7 9.7 0 003.53-2.4 10.94 10.94 0 002.24-3.87c.53-1.53.8-3.26.8-5.2zm19.8 5.72c-1.8.06-3.34.2-4.62.44-1.26.22-2.3.51-3.1.88-.8.36-1.37.8-1.74 1.3-.35.5-.53 1.05-.53 1.67 0 .58.1 1.1.3 1.52a3 3 0 00.76 1.05c.34.27.73.46 1.17.6a6.13 6.13 0 001.45.17 7.28 7.28 0 003.5-.81 11.95 11.95 0 002.82-2.2v-4.62zm-12.65-9.11a12.73 12.73 0 013.98-2.66c1.43-.59 3-.88 4.73-.88 1.25 0 2.36.2 3.33.61a6.81 6.81 0 013.94 4.38c.33 1.04.5 2.19.5 3.43V93h-1.74a1.8 1.8 0 01-.88-.18c-.2-.13-.36-.38-.48-.74l-.44-2.12-1.72 1.46a9.48 9.48 0 01-3.74 1.7c-.69.15-1.46.23-2.3.23-.87 0-1.69-.12-2.45-.35a5.34 5.34 0 01-3.34-2.93 6.64 6.64 0 01-.49-2.64c0-.88.25-1.72.73-2.53a6.33 6.33 0 012.35-2.17c1.09-.63 2.5-1.15 4.25-1.54 1.75-.41 3.89-.65 6.42-.7v-1.75c0-1.73-.37-3.03-1.12-3.91-.75-.9-1.84-1.34-3.28-1.34-.97 0-1.78.12-2.44.37-.64.23-1.2.5-1.7.81l-1.23.82c-.33.23-.67.35-1 .35-.27 0-.5-.07-.69-.2a2.1 2.1 0 01-.48-.53l-.7-1.25zm27.67 19.5c-1.76 0-3.12-.5-4.07-1.48-.94-.98-1.41-2.4-1.41-4.25V74h-2.68a.9.9 0 01-.6-.2c-.16-.14-.24-.36-.24-.66v-1.56l3.65-.46.9-6.89a.9.9 0 01.29-.52.88.88 0 01.62-.22H142v7.67h6.44V74H142v13.38c0 .94.22 1.63.68 2.09.45.45 1.04.68 1.76.68a3.21 3.21 0 001.85-.53l.55-.35c.16-.12.3-.18.41-.18.2 0 .4.13.55.38l1.15 1.87a7.45 7.45 0 01-2.44 1.5 8.53 8.53 0 01-2.95.52zm19.68-10.4c-1.8.07-3.34.21-4.62.45-1.26.22-2.3.51-3.1.88-.8.36-1.37.8-1.74 1.3-.35.5-.53 1.05-.53 1.67 0 .58.1 1.1.3 1.52a2.9 2.9 0 00.76 1.05c.34.27.73.46 1.17.6a6.13 6.13 0 001.45.17 7.3 7.3 0 003.5-.81 12.04 12.04 0 002.82-2.2v-4.62zm-12.65-9.1a12.72 12.72 0 013.99-2.66c1.42-.59 3-.88 4.72-.88 1.25 0 2.36.2 3.33.61a6.81 6.81 0 013.94 4.38c.33 1.04.5 2.19.5 3.43V93h-1.74a1.8 1.8 0 01-.88-.18c-.2-.13-.36-.38-.48-.74l-.44-2.12-1.72 1.46a9.48 9.48 0 01-3.74 1.7c-.69.15-1.46.23-2.3.23-.87 0-1.69-.12-2.45-.35a5.33 5.33 0 01-3.34-2.93 6.62 6.62 0 01-.49-2.64c0-.88.25-1.72.73-2.53a6.33 6.33 0 012.35-2.17c1.09-.63 2.5-1.15 4.25-1.54a31.2 31.2 0 016.42-.7v-1.75c0-1.73-.37-3.03-1.12-3.91-.75-.9-1.84-1.34-3.28-1.34-.97 0-1.78.12-2.44.37-.64.23-1.2.5-1.7.81l-1.22.82c-.34.23-.68.35-1.02.35-.26 0-.49-.07-.68-.2a1.88 1.88 0 01-.48-.53l-.7-1.25z" fill="#fff"/><path fill="#D42B21" d="M0 106.79h210V120H0z"/></g><defs><clipPath id="clip0"><path fill="#fff" d="M0 0h210v120H0z"/></clipPath></defs></svg></g><a href="https://ourworldindata.org/grapher/average-income-or-consumption-in-lowest-quintile-vs-gdp-per-capita" target="_blank" rel="noopener" font-family="&quot;Playfair Display&quot;,Georgia,&quot;Times New Roman&quot;,serif"><text font-size="21.6" x="15" y="32.3" fill="#555"><tspan x="15" y="32.28">Average income or consumption in lowest quintile vs. GDP per capita ,</tspan><tspan x="15" y="53.88">1990 to 2017</tspan></text></a><text font-size="14.4" x="15" y="74.7" fill="#666"><tspan x="15" y="74.72">The average level of annual per capita household income or consumption of the bottom quintile – as reported in survey data –</tspan><tspan x="15" y="92">compared to GDP per capita. The diagonal lines indicate where the incomes or consumption of the lowest fifth is a given</tspan><tspan x="15" y="109.28">fraction of GDP per capita.</tspan></text></g><g class="ScatterPlot"><g class="DualAxisView"><g class="HorizontalAxis"><text font-size="12.6" x="303.4" y="544.9"><tspan x="303.36" y="544.88">GDP per capita (int.-$)</tspan></text><text x="191" y="524.8" fill="#666" text-anchor="middle" font-size="16.2">$1,000</text><text x="455.8" y="524.8" fill="#666" text-anchor="middle" font-size="16.2">$10,000</text><text x="101.57" y="524.8" fill="#666" text-anchor="start" font-size="16.2">$500</text><text x="270.7" y="524.8" fill="#666" text-anchor="middle" font-size="16.2">$2,000</text><text x="376.1" y="524.8" fill="#666" text-anchor="middle" font-size="16.2">$5,000</text><text x="535.5" y="524.8" fill="#666" text-anchor="middle" font-size="16.2">$20,000</text><text x="640.9" y="524.8" fill="#666" text-anchor="middle" font-size="16.2">$50,000</text></g><g class="VerticalAxis"><text font-size="12.6" x="-429.9" y="25.1" transform="rotate(-90)"><tspan x="-429.9" y="25.08">Q1 average income/consumption</tspan></text><text x="96.57" y="446.3" dy=".32em" text-anchor="end" fill="#666" font-size="16.2">$100</text><text x="96.57" y="291.9" dy=".32em" text-anchor="end" fill="#666" font-size="16.2">$1,000</text><text x="96.57" y="137.6" dy=".32em" text-anchor="end" fill="#666" font-size="16.2">$10,000</text><text x="96.57" y="492.7" dy=".32em" text-anchor="end" fill="#666" font-size="16.2">$50</text><text x="96.57" y="399.8" dy=".32em" text-anchor="end" fill="#666" font-size="16.2">$200</text><text x="96.57" y="338.4" dy=".32em" text-anchor="end" fill="#666" font-size="16.2">$500</text><text x="96.57" y="245.5" dy=".32em" text-anchor="end" fill="#666" font-size="16.2">$2,000</text><text x="96.57" y="184.1" dy=".32em" text-anchor="end" fill="#666" font-size="16.2">$5,000</text></g><g class="AxisGridLines horizontalLines" stroke="#ddd" stroke-dasharray="3,2"><path d="M101.57 492.7h616.52M101.57 446.3h616.52M101.57 399.8h616.52M101.57 338.4h616.52M101.57 291.9h616.52M101.57 245.5h616.52M101.57 184.1h616.52M101.57 137.6h616.52"/></g><g class="AxisGridLines verticalLines" stroke="#ddd" stroke-dasharray="3,2"><path d="M111.3 503.6V126.8M191 503.6V126.8M270.7 503.6V126.8M376.1 503.6V126.8M455.8 503.6V126.8M535.5 503.6V126.8M640.9 503.6V126.8"/></g></g><g class="comparisonLine"><defs><clipPath id="a"><path d="M101.57 126.8h616.52v376.8H101.57z"/></clipPath></defs><path id="b" d="M101.6 544.8l1.2-.7 1.2-.7 1.3-.7 1.2-.7 1.2-.7 1.3-.8 1.2-.7 1.2-.7 1.3-.7 1.2-.7 1.2-.8 1.3-.7 1.2-.7 1.2-.7 1.3-.7 1.2-.8 1.2-.7 1.3-.7 1.2-.7 1.2-.7 1.3-.7 1.2-.8 1.2-.7 1.3-.7 1.2-.7 1.2-.7 1.3-.8 1.2-.7 1.2-.7 1.3-.7 1.2-.7 1.2-.8 1.3-.7 1.2-.7 1.2-.7 1.3-.7 1.2-.7 1.2-.8 1.3-.7 1.2-.7 1.2-.7 1.3-.7 1.2-.8 1.2-.7 1.3-.7 1.2-.7 1.2-.7 1.3-.7 1.2-.8 1.2-.7 1.3-.7 1.2-.7 1.2-.7 1.3-.8 1.2-.7 1.2-.7 1.3-.7 1.2-.7 1.2-.8 1.3-.7 1.2-.7 1.2-.7 1.3-.7 1.2-.7 1.2-.8 1.2-.7 1.3-.7 1.2-.7 1.2-.7 1.3-.8 1.2-.7 1.2-.7 1.3-.7 1.2-.7 1.2-.8 1.3-.7 1.2-.7 1.2-.7 1.3-.7 1.2-.7 1.2-.8 1.3-.7 1.2-.7 1.2-.7 1.3-.7 1.2-.8 1.2-.7 1.3-.7 1.2-.7 1.2-.7 1.3-.8 1.2-.7 1.2-.7 1.3-.7 1.2-.7 1.2-.7 1.3-.8 1.2-.7 1.2-.7 1.3-.7 1.2-.7 1.2-.8 1.3-.7 1.2-.7 1.2-.7 1.3-.7 1.2-.8 1.2-.7 1.3-.7 1.2-.7 1.2-.7 1.3-.7 1.2-.8 1.2-.7 1.3-.7 1.2-.7 1.2-.7 1.3-.8 1.2-.7 1.2-.7 1.3-.7 1.2-.7 1.2-.7 1.3-.8 1.2-.7 1.2-.7 1.3-.7 1.2-.7 1.2-.8 1.3-.7 1.2-.7 1.2-.7 1.3-.7 1.2-.8 1.2-.7 1.3-.7 1.2-.7 1.2-.7 1.3-.7 1.2-.8 1.2-.7 1.3-.7 1.2-.7 1.2-.7 1.3-.8 1.2-.7 1.2-.7 1.3-.7 1.2-.7 1.2-.8 1.3-.7 1.2-.7 1.2-.7 1.3-.7 1.2-.7 1.2-.8 1.3-.7 1.2-.7 1.2-.7 1.3-.7 1.2-.8 1.2-.7 1.3-.7 1.2-.7 1.2-.7 1.3-.8 1.2-.7 1.2-.7 1.3-.7 1.2-.7 1.2-.7 1.3-.8 1.2-.7 1.2-.7 1.3-.7 1.2-.7 1.2-.8 1.3-.7 1.2-.7 1.2-.7 1.2-.7 1.3-.7 1.2-.8 1.2-.7 1.3-.7 1.2-.7 1.2-.7 1.3-.8 1.2-.7 1.2-.7 1.3-.7 1.2-.7 1.2-.8 1.3-.7 1.2-.7 1.2-.7 1.3-.7 1.2-.7 1.2-.8 1.3-.7 1.2-.7 1.2-.7 1.3-.7 1.2-.8 1.2-.7 1.3-.7 1.2-.7 1.2-.7 1.3-.8 1.2-.7 1.2-.7 1.3-.7 1.2-.7 1.2-.7 1.3-.8 1.2-.7 1.2-.7 1.3-.7 1.2-.7 1.2-.8 1.3-.7 1.2-.7 1.2-.7 1.3-.7 1.2-.8 1.2-.7 1.3-.7 1.2-.7 1.2-.7 1.3-.7 1.2-.8 1.2-.7 1.3-.7 1.2-.7 1.2-.7 1.3-.8 1.2-.7 1.2-.7 1.3-.7 1.2-.7 1.2-.7 1.3-.8 1.2-.7 1.2-.7 1.3-.7 1.2-.7 1.2-.8 1.3-.7 1.2-.7 1.2-.7 1.3-.7 1.2-.8 1.2-.7 1.3-.7 1.2-.7 1.2-.7 1.3-.7 1.2-.8 1.2-.7 1.3-.7 1.2-.7 1.2-.7 1.3-.8 1.2-.7 1.2-.7 1.3-.7 1.2-.7 1.2-.8 1.3-.7 1.2-.7 1.2-.7 1.3-.7 1.2-.7 1.2-.8 1.3-.7 1.2-.7 1.2-.7 1.3-.7 1.2-.8 1.2-.7 1.3-.7 1.2-.7 1.2-.7 1.3-.8 1.2-.7 1.2-.7 1.3-.7 1.2-.7 1.2-.7 1.3-.8 1.2-.7 1.2-.7 1.3-.7 1.2-.7 1.2-.8 1.3-.7 1.2-.7 1.2-.7 1.2-.7 1.3-.7 1.2-.8 1.2-.7 1.3-.7 1.2-.7 1.2-.7 1.3-.8 1.2-.7 1.2-.7 1.3-.7 1.2-.7 1.2-.8 1.3-.7 1.2-.7 1.2-.7 1.3-.7 1.2-.7 1.2-.8 1.3-.7 1.2-.7 1.2-.7 1.3-.7 1.2-.8 1.2-.7 1.3-.7 1.2-.7 1.2-.7 1.3-.8 1.2-.7 1.2-.7 1.3-.7 1.2-.7 1.2-.7 1.3-.8 1.2-.7 1.2-.7 1.3-.7 1.2-.7 1.2-.8 1.3-.7 1.2-.7 1.2-.7 1.3-.7 1.2-.8 1.2-.7 1.3-.7 1.2-.7 1.2-.7 1.3-.7 1.2-.8 1.2-.7 1.3-.7 1.2-.7 1.2-.7 1.3-.8 1.2-.7 1.2-.7 1.3-.7 1.2-.7 1.2-.7 1.3-.8 1.2-.7 1.2-.7 1.3-.7 1.2-.7 1.2-.8 1.3-.7 1.2-.7 1.2-.7 1.3-.7 1.2-.8 1.2-.7 1.3-.7 1.2-.7 1.2-.7 1.3-.7 1.2-.8 1.2-.7 1.3-.7 1.2-.7 1.2-.7 1.3-.8 1.2-.7 1.2-.7 1.3-.7 1.2-.7 1.2-.8 1.3-.7 1.2-.7 1.2-.7 1.3-.7 1.2-.7 1.2-.8 1.3-.7 1.2-.7 1.2-.7 1.3-.7 1.2-.8 1.2-.7 1.3-.7 1.2-.7 1.2-.7 1.3-.8 1.2-.7 1.2-.7 1.3-.7 1.2-.7 1.2-.7 1.3-.8 1.2-.7 1.2-.7 1.3-.7 1.2-.7 1.2-.8 1.2-.7 1.3-.7 1.2-.7 1.2-.7 1.3-.7 1.2-.8 1.2-.7 1.3-.7 1.2-.7 1.2-.7 1.3-.8 1.2-.7 1.2-.7 1.3-.7 1.2-.7 1.2-.8 1.3-.7 1.2-.7 1.2-.7 1.3-.7 1.2-.7 1.2-.8 1.3-.7 1.2-.7 1.2-.7 1.3-.7 1.2-.8 1.2-.7 1.3-.7 1.2-.7 1.2-.7 1.3-.8 1.2-.7 1.2-.7 1.3-.7 1.2-.7 1.2-.7 1.3-.8 1.2-.7 1.2-.7 1.3-.7 1.2-.7 1.2-.8 1.3-.7 1.2-.7 1.2-.7 1.3-.7 1.2-.8 1.2-.7 1.3-.7 1.2-.7 1.2-.7 1.3-.7 1.2-.8 1.2-.7 1.3-.7 1.2-.7 1.2-.7 1.3-.8 1.2-.7 1.2-.7 1.3-.7 1.2-.7 1.2-.8 1.3-.7 1.2-.7 1.2-.7 1.3-.7 1.2-.7 1.2-.8 1.3-.7 1.2-.7 1.2-.7 1.3-.7 1.2-.8 1.2-.7 1.3-.7 1.2-.7 1.2-.7 1.3-.7 1.2-.8 1.2-.7 1.3-.7 1.2-.7 1.2-.7 1.3-.8" clip-path="url(#a)" opacity=".9" fill="none" stroke="#ccc" stroke-dasharray="2 2"/><text clip-path="url(#a)" font-size="80%" opacity=".9" text-anchor="end" fill="#999"><textPath baseline-shift="-0.2rem" href="#b" startOffset="90%" fill="#fff" stroke="#fff" stroke-linecap="round" stroke-linejoin="round" stroke-width=".25em">1/20th</textPath><textPath baseline-shift="-0.2rem" href="#b" startOffset="90%">1/20th</textPath></text></g><g class="comparisonLine"><defs><clipPath id="c"><path d="M101.57 126.8h616.52v376.8H101.57z"/></clipPath></defs><path id="d" d="M101.6 498.4l1.2-.7 1.2-.7 1.3-.8 1.2-.7 1.2-.7 1.3-.7 1.2-.7 1.2-.8 1.3-.7 1.2-.7 1.2-.7 1.3-.7 1.2-.8 1.2-.7 1.3-.7 1.2-.7 1.2-.7 1.3-.7 1.2-.8 1.2-.7 1.3-.7 1.2-.7 1.2-.7 1.3-.8 1.2-.7 1.2-.7 1.3-.7 1.2-.7 1.2-.8 1.3-.7 1.2-.7 1.2-.7 1.3-.7 1.2-.7 1.2-.8 1.3-.7 1.2-.7 1.2-.7 1.3-.7 1.2-.8 1.2-.7 1.3-.7 1.2-.7 1.2-.7 1.3-.7 1.2-.8 1.2-.7 1.3-.7 1.2-.7 1.2-.7 1.3-.8 1.2-.7 1.2-.7 1.3-.7 1.2-.7 1.2-.8 1.3-.7 1.2-.7 1.2-.7 1.3-.7 1.2-.7 1.2-.8 1.3-.7 1.2-.7 1.2-.7 1.2-.7 1.3-.8 1.2-.7 1.2-.7 1.3-.7 1.2-.7 1.2-.8 1.3-.7 1.2-.7 1.2-.7 1.3-.7 1.2-.7 1.2-.8 1.3-.7 1.2-.7 1.2-.7 1.3-.7 1.2-.8 1.2-.7 1.3-.7 1.2-.7 1.2-.7 1.3-.8 1.2-.7 1.2-.7 1.3-.7 1.2-.7 1.2-.7 1.3-.8 1.2-.7 1.2-.7 1.3-.7 1.2-.7 1.2-.8 1.3-.7 1.2-.7 1.2-.7 1.3-.7 1.2-.7 1.2-.8 1.3-.7 1.2-.7 1.2-.7 1.3-.7 1.2-.8 1.2-.7 1.3-.7 1.2-.7 1.2-.7 1.3-.8 1.2-.7 1.2-.7 1.3-.7 1.2-.7 1.2-.7 1.3-.8 1.2-.7 1.2-.7 1.3-.7 1.2-.7 1.2-.8 1.3-.7 1.2-.7 1.2-.7 1.3-.7 1.2-.8 1.2-.7 1.3-.7 1.2-.7 1.2-.7 1.3-.7 1.2-.8 1.2-.7 1.3-.7 1.2-.7 1.2-.7 1.3-.8 1.2-.7 1.2-.7 1.3-.7 1.2-.7 1.2-.8 1.3-.7 1.2-.7 1.2-.7 1.3-.7 1.2-.7 1.2-.8 1.3-.7 1.2-.7 1.2-.7 1.3-.7 1.2-.8 1.2-.7 1.3-.7 1.2-.7 1.2-.7 1.3-.7 1.2-.8 1.2-.7 1.3-.7 1.2-.7 1.2-.7 1.3-.8 1.2-.7 1.2-.7 1.3-.7 1.2-.7 1.2-.8 1.3-.7 1.2-.7 1.2-.7 1.3-.7 1.2-.7 1.2-.8 1.2-.7 1.3-.7 1.2-.7 1.2-.7 1.3-.8 1.2-.7 1.2-.7 1.3-.7 1.2-.7 1.2-.8 1.3-.7 1.2-.7 1.2-.7 1.3-.7 1.2-.7 1.2-.8 1.3-.7 1.2-.7 1.2-.7 1.3-.7 1.2-.8 1.2-.7 1.3-.7 1.2-.7 1.2-.7 1.3-.8 1.2-.7 1.2-.7 1.3-.7 1.2-.7 1.2-.7 1.3-.8 1.2-.7 1.2-.7 1.3-.7 1.2-.7 1.2-.8 1.3-.7 1.2-.7 1.2-.7 1.3-.7 1.2-.8 1.2-.7 1.3-.7 1.2-.7 1.2-.7 1.3-.7 1.2-.8 1.2-.7 1.3-.7 1.2-.7 1.2-.7 1.3-.8 1.2-.7 1.2-.7 1.3-.7 1.2-.7 1.2-.7 1.3-.8 1.2-.7 1.2-.7 1.3-.7 1.2-.7 1.2-.8 1.3-.7 1.2-.7 1.2-.7 1.3-.7 1.2-.8 1.2-.7 1.3-.7 1.2-.7 1.2-.7 1.3-.7 1.2-.8 1.2-.7 1.3-.7 1.2-.7 1.2-.7 1.3-.8 1.2-.7 1.2-.7 1.3-.7 1.2-.7 1.2-.8 1.3-.7 1.2-.7 1.2-.7 1.3-.7 1.2-.7 1.2-.8 1.3-.7 1.2-.7 1.2-.7 1.3-.7 1.2-.8 1.2-.7 1.3-.7 1.2-.7 1.2-.7 1.3-.8 1.2-.7 1.2-.7 1.3-.7 1.2-.7 1.2-.7 1.3-.8 1.2-.7 1.2-.7 1.3-.7 1.2-.7 1.2-.8 1.3-.7 1.2-.7 1.2-.7 1.3-.7 1.2-.7 1.2-.8 1.2-.7 1.3-.7 1.2-.7 1.2-.7 1.3-.8 1.2-.7 1.2-.7 1.3-.7 1.2-.7 1.2-.8 1.3-.7 1.2-.7 1.2-.7 1.3-.7 1.2-.7 1.2-.8 1.3-.7 1.2-.7 1.2-.7 1.3-.7 1.2-.8 1.2-.7 1.3-.7 1.2-.7 1.2-.7 1.3-.8 1.2-.7 1.2-.7 1.3-.7 1.2-.7 1.2-.7 1.3-.8 1.2-.7 1.2-.7 1.3-.7 1.2-.7 1.2-.8 1.3-.7 1.2-.7 1.2-.7 1.3-.7 1.2-.8 1.2-.7 1.3-.7 1.2-.7 1.2-.7 1.3-.7 1.2-.8 1.2-.7 1.3-.7 1.2-.7 1.2-.7 1.3-.8 1.2-.7 1.2-.7 1.3-.7 1.2-.7 1.2-.7 1.3-.8 1.2-.7 1.2-.7 1.3-.7 1.2-.7 1.2-.8 1.3-.7 1.2-.7 1.2-.7 1.3-.7 1.2-.8 1.2-.7 1.3-.7 1.2-.7 1.2-.7 1.3-.7 1.2-.8 1.2-.7 1.3-.7 1.2-.7 1.2-.7 1.3-.8 1.2-.7 1.2-.7 1.3-.7 1.2-.7 1.2-.8 1.3-.7 1.2-.7 1.2-.7 1.3-.7 1.2-.7 1.2-.8 1.3-.7 1.2-.7 1.2-.7 1.3-.7 1.2-.8 1.2-.7 1.3-.7 1.2-.7 1.2-.7 1.3-.8 1.2-.7 1.2-.7 1.3-.7 1.2-.7 1.2-.7 1.3-.8 1.2-.7 1.2-.7 1.3-.7 1.2-.7 1.2-.8 1.3-.7 1.2-.7 1.2-.7 1.2-.7 1.3-.7 1.2-.8 1.2-.7 1.3-.7 1.2-.7 1.2-.7 1.3-.8 1.2-.7 1.2-.7 1.3-.7 1.2-.7 1.2-.8 1.3-.7 1.2-.7 1.2-.7 1.3-.7 1.2-.7 1.2-.8 1.3-.7 1.2-.7 1.2-.7 1.3-.7 1.2-.8 1.2-.7 1.3-.7 1.2-.7 1.2-.7 1.3-.8 1.2-.7 1.2-.7 1.3-.7 1.2-.7 1.2-.7 1.3-.8 1.2-.7 1.2-.7 1.3-.7 1.2-.7 1.2-.8 1.3-.7 1.2-.7 1.2-.7 1.3-.7 1.2-.8 1.2-.7 1.3-.7 1.2-.7 1.2-.7 1.3-.7 1.2-.8 1.2-.7 1.3-.7 1.2-.7 1.2-.7 1.3-.8 1.2-.7 1.2-.7 1.3-.7 1.2-.7 1.2-.7 1.3-.8 1.2-.7 1.2-.7 1.3-.7 1.2-.7 1.2-.8 1.3-.7 1.2-.7 1.2-.7 1.3-.7 1.2-.8 1.2-.7 1.3-.7 1.2-.7 1.2-.7 1.3-.7 1.2-.8 1.2-.7 1.3-.7 1.2-.7 1.2-.7 1.3-.8 1.2-.7 1.2-.7 1.3-.7" clip-path="url(#c)" opacity=".9" fill="none" stroke="#ccc" stroke-dasharray="2 2"/><text clip-path="url(#c)" font-size="80%" opacity=".9" text-anchor="end" fill="#999"><textPath baseline-shift="-0.2rem" href="#d" startOffset="90%" fill="#fff" stroke="#fff" stroke-linecap="round" stroke-linejoin="round" stroke-width=".25em">1/10th</textPath><textPath baseline-shift="-0.2rem" href="#d" startOffset="90%">1/10th</textPath></text></g><g class="comparisonLine"><defs><clipPath id="e"><path d="M101.57 126.8h616.52v376.8H101.57z"/></clipPath></defs><path id="f" d="M101.6 451.9l1.2-.7 1.2-.7 1.3-.7 1.2-.7 1.2-.8 1.3-.7 1.2-.7 1.2-.7 1.3-.7 1.2-.8 1.2-.7 1.3-.7 1.2-.7 1.2-.7 1.3-.7 1.2-.8 1.2-.7 1.3-.7 1.2-.7 1.2-.7 1.3-.8 1.2-.7 1.2-.7 1.3-.7 1.2-.7 1.2-.8 1.3-.7 1.2-.7 1.2-.7 1.3-.7 1.2-.7 1.2-.8 1.3-.7 1.2-.7 1.2-.7 1.3-.7 1.2-.8 1.2-.7 1.3-.7 1.2-.7 1.2-.7 1.3-.7 1.2-.8 1.2-.7 1.3-.7 1.2-.7 1.2-.7 1.3-.8 1.2-.7 1.2-.7 1.3-.7 1.2-.7 1.2-.8 1.3-.7 1.2-.7 1.2-.7 1.3-.7 1.2-.7 1.2-.8 1.3-.7 1.2-.7 1.2-.7 1.3-.7 1.2-.8 1.2-.7 1.2-.7 1.3-.7 1.2-.7 1.2-.8 1.3-.7 1.2-.7 1.2-.7 1.3-.7 1.2-.7 1.2-.8 1.3-.7 1.2-.7 1.2-.7 1.3-.7 1.2-.8 1.2-.7 1.3-.7 1.2-.7 1.2-.7 1.3-.8 1.2-.7 1.2-.7 1.3-.7 1.2-.7 1.2-.7 1.3-.8 1.2-.7 1.2-.7 1.3-.7 1.2-.7 1.2-.8 1.3-.7 1.2-.7 1.2-.7 1.3-.7 1.2-.7 1.2-.8 1.3-.7 1.2-.7 1.2-.7 1.3-.7 1.2-.8 1.2-.7 1.3-.7 1.2-.7 1.2-.7 1.3-.8 1.2-.7 1.2-.7 1.3-.7 1.2-.7 1.2-.7 1.3-.8 1.2-.7 1.2-.7 1.3-.7 1.2-.7 1.2-.8 1.3-.7 1.2-.7 1.2-.7 1.3-.7 1.2-.8 1.2-.7 1.3-.7 1.2-.7 1.2-.7 1.3-.7 1.2-.8 1.2-.7 1.3-.7 1.2-.7 1.2-.7 1.3-.8 1.2-.7 1.2-.7 1.3-.7 1.2-.7 1.2-.8 1.3-.7 1.2-.7 1.2-.7 1.3-.7 1.2-.7 1.2-.8 1.3-.7 1.2-.7 1.2-.7 1.3-.7 1.2-.8 1.2-.7 1.3-.7 1.2-.7 1.2-.7 1.3-.7 1.2-.8 1.2-.7 1.3-.7 1.2-.7 1.2-.7 1.3-.8 1.2-.7 1.2-.7 1.3-.7 1.2-.7 1.2-.8 1.3-.7 1.2-.7 1.2-.7 1.3-.7 1.2-.7 1.2-.8 1.3-.7 1.2-.7 1.2-.7 1.2-.7 1.3-.8 1.2-.7 1.2-.7 1.3-.7 1.2-.7 1.2-.8 1.3-.7 1.2-.7 1.2-.7 1.3-.7 1.2-.7 1.2-.8 1.3-.7 1.2-.7 1.2-.7 1.3-.7 1.2-.8 1.2-.7 1.3-.7 1.2-.7 1.2-.7 1.3-.8 1.2-.7 1.2-.7 1.3-.7 1.2-.7 1.2-.7 1.3-.8 1.2-.7 1.2-.7 1.3-.7 1.2-.7 1.2-.8 1.3-.7 1.2-.7 1.2-.7 1.3-.7 1.2-.7 1.2-.8 1.3-.7 1.2-.7 1.2-.7 1.3-.7 1.2-.8 1.2-.7 1.3-.7 1.2-.7 1.2-.7 1.3-.8 1.2-.7 1.2-.7 1.3-.7 1.2-.7 1.2-.7 1.3-.8 1.2-.7 1.2-.7 1.3-.7 1.2-.7 1.2-.8 1.3-.7 1.2-.7 1.2-.7 1.3-.7 1.2-.8 1.2-.7 1.3-.7 1.2-.7 1.2-.7 1.3-.7 1.2-.8 1.2-.7 1.3-.7 1.2-.7 1.2-.7 1.3-.8 1.2-.7 1.2-.7 1.3-.7 1.2-.7 1.2-.8 1.3-.7 1.2-.7 1.2-.7 1.3-.7 1.2-.7 1.2-.8 1.3-.7 1.2-.7 1.2-.7 1.3-.7 1.2-.8 1.2-.7 1.3-.7 1.2-.7 1.2-.7 1.3-.8 1.2-.7 1.2-.7 1.3-.7 1.2-.7 1.2-.7 1.3-.8 1.2-.7 1.2-.7 1.3-.7 1.2-.7 1.2-.8 1.3-.7 1.2-.7 1.2-.7 1.3-.7 1.2-.7 1.2-.8 1.3-.7 1.2-.7 1.2-.7 1.2-.7 1.3-.8 1.2-.7 1.2-.7 1.3-.7 1.2-.7 1.2-.8 1.3-.7 1.2-.7 1.2-.7 1.3-.7 1.2-.7 1.2-.8 1.3-.7 1.2-.7 1.2-.7 1.3-.7 1.2-.8 1.2-.7 1.3-.7 1.2-.7 1.2-.7 1.3-.8 1.2-.7 1.2-.7 1.3-.7 1.2-.7 1.2-.7 1.3-.8 1.2-.7 1.2-.7 1.3-.7 1.2-.7 1.2-.8 1.3-.7 1.2-.7 1.2-.7 1.3-.7 1.2-.8 1.2-.7 1.3-.7 1.2-.7 1.2-.7 1.3-.7 1.2-.8 1.2-.7 1.3-.7 1.2-.7 1.2-.7 1.3-.8 1.2-.7 1.2-.7 1.3-.7 1.2-.7 1.2-.7 1.3-.8 1.2-.7 1.2-.7 1.3-.7 1.2-.7 1.2-.8 1.3-.7 1.2-.7 1.2-.7 1.3-.7 1.2-.8 1.2-.7 1.3-.7 1.2-.7 1.2-.7 1.3-.7 1.2-.8 1.2-.7 1.3-.7 1.2-.7 1.2-.7 1.3-.8 1.2-.7 1.2-.7 1.3-.7 1.2-.7 1.2-.8 1.3-.7 1.2-.7 1.2-.7 1.3-.7 1.2-.7 1.2-.8 1.3-.7 1.2-.7 1.2-.7 1.3-.7 1.2-.8 1.2-.7 1.3-.7 1.2-.7 1.2-.7 1.3-.8 1.2-.7 1.2-.7 1.3-.7 1.2-.7 1.2-.7 1.3-.8 1.2-.7 1.2-.7 1.3-.7 1.2-.7 1.2-.8 1.3-.7 1.2-.7 1.2-.7 1.3-.7 1.2-.7 1.2-.8 1.2-.7 1.3-.7 1.2-.7 1.2-.7 1.3-.8 1.2-.7 1.2-.7 1.3-.7 1.2-.7 1.2-.8 1.3-.7 1.2-.7 1.2-.7 1.3-.7 1.2-.7 1.2-.8 1.3-.7 1.2-.7 1.2-.7 1.3-.7 1.2-.8 1.2-.7 1.3-.7 1.2-.7 1.2-.7 1.3-.8 1.2-.7 1.2-.7 1.3-.7 1.2-.7 1.2-.7 1.3-.8 1.2-.7 1.2-.7 1.3-.7 1.2-.7 1.2-.8 1.3-.7 1.2-.7" clip-path="url(#e)" opacity=".9" fill="none" stroke="#ccc" stroke-dasharray="2 2"/><text clip-path="url(#e)" font-size="80%" opacity=".9" text-anchor="end" fill="#999"><textPath baseline-shift="-0.2rem" href="#f" startOffset="90%" fill="#fff" stroke="#fff" stroke-linecap="round" stroke-linejoin="round" stroke-width=".25em">1/5th</textPath><textPath baseline-shift="-0.2rem" href="#f" startOffset="90%">1/5th</textPath></text></g><g class="comparisonLine"><defs><clipPath id="g"><path d="M101.57 126.8h616.52v376.8H101.57z"/></clipPath></defs><path id="h" d="M101.6 417.7l1.2-.7 1.2-.7 1.3-.8 1.2-.7 1.2-.7 1.3-.7 1.2-.7 1.2-.8 1.3-.7 1.2-.7 1.2-.7 1.3-.7 1.2-.7 1.2-.8 1.3-.7 1.2-.7 1.2-.7 1.3-.7 1.2-.8 1.2-.7 1.3-.7 1.2-.7 1.2-.7 1.3-.7 1.2-.8 1.2-.7 1.3-.7 1.2-.7 1.2-.7 1.3-.8 1.2-.7 1.2-.7 1.3-.7 1.2-.7 1.2-.8 1.3-.7 1.2-.7 1.2-.7 1.3-.7 1.2-.7 1.2-.8 1.3-.7 1.2-.7 1.2-.7 1.3-.7 1.2-.8 1.2-.7 1.3-.7 1.2-.7 1.2-.7 1.3-.8 1.2-.7 1.2-.7 1.3-.7 1.2-.7 1.2-.7 1.3-.8 1.2-.7 1.2-.7 1.3-.7 1.2-.7 1.2-.8 1.3-.7 1.2-.7 1.2-.7 1.2-.7 1.3-.8 1.2-.7 1.2-.7 1.3-.7 1.2-.7 1.2-.7 1.3-.8 1.2-.7 1.2-.7 1.3-.7 1.2-.7 1.2-.8 1.3-.7 1.2-.7 1.2-.7 1.3-.7 1.2-.7 1.2-.8 1.3-.7 1.2-.7 1.2-.7 1.3-.7 1.2-.8 1.2-.7 1.3-.7 1.2-.7 1.2-.7 1.3-.8 1.2-.7 1.2-.7 1.3-.7 1.2-.7 1.2-.7 1.3-.8 1.2-.7 1.2-.7 1.3-.7 1.2-.7 1.2-.8 1.3-.7 1.2-.7 1.2-.7 1.3-.7 1.2-.8 1.2-.7 1.3-.7 1.2-.7 1.2-.7 1.3-.7 1.2-.8 1.2-.7 1.3-.7 1.2-.7 1.2-.7 1.3-.8 1.2-.7 1.2-.7 1.3-.7 1.2-.7 1.2-.8 1.3-.7 1.2-.7 1.2-.7 1.3-.7 1.2-.7 1.2-.8 1.3-.7 1.2-.7 1.2-.7 1.3-.7 1.2-.8 1.2-.7 1.3-.7 1.2-.7 1.2-.7 1.3-.7 1.2-.8 1.2-.7 1.3-.7 1.2-.7 1.2-.7 1.3-.8 1.2-.7 1.2-.7 1.3-.7 1.2-.7 1.2-.8 1.3-.7 1.2-.7 1.2-.7 1.3-.7 1.2-.7 1.2-.8 1.3-.7 1.2-.7 1.2-.7 1.3-.7 1.2-.8 1.2-.7 1.3-.7 1.2-.7 1.2-.7 1.3-.8 1.2-.7 1.2-.7 1.3-.7 1.2-.7 1.2-.7 1.3-.8 1.2-.7 1.2-.7 1.3-.7 1.2-.7 1.2-.8 1.2-.7 1.3-.7 1.2-.7 1.2-.7 1.3-.8 1.2-.7 1.2-.7 1.3-.7 1.2-.7 1.2-.7 1.3-.8 1.2-.7 1.2-.7 1.3-.7 1.2-.7 1.2-.8 1.3-.7 1.2-.7 1.2-.7 1.3-.7 1.2-.7 1.2-.8 1.3-.7 1.2-.7 1.2-.7 1.3-.7 1.2-.8 1.2-.7 1.3-.7 1.2-.7 1.2-.7 1.3-.8 1.2-.7 1.2-.7 1.3-.7 1.2-.7 1.2-.7 1.3-.8 1.2-.7 1.2-.7 1.3-.7 1.2-.7 1.2-.8 1.3-.7 1.2-.7 1.2-.7 1.3-.7 1.2-.8 1.2-.7 1.3-.7 1.2-.7 1.2-.7 1.3-.7 1.2-.8 1.2-.7 1.3-.7 1.2-.7 1.2-.7 1.3-.8 1.2-.7 1.2-.7 1.3-.7 1.2-.7 1.2-.8 1.3-.7 1.2-.7 1.2-.7 1.3-.7 1.2-.7 1.2-.8 1.3-.7 1.2-.7 1.2-.7 1.3-.7 1.2-.8 1.2-.7 1.3-.7 1.2-.7 1.2-.7 1.3-.7 1.2-.8 1.2-.7 1.3-.7 1.2-.7 1.2-.7 1.3-.8 1.2-.7 1.2-.7 1.3-.7 1.2-.7 1.2-.8 1.3-.7 1.2-.7 1.2-.7 1.3-.7 1.2-.7 1.2-.8 1.3-.7 1.2-.7 1.2-.7 1.3-.7 1.2-.8 1.2-.7 1.3-.7 1.2-.7 1.2-.7 1.3-.8 1.2-.7 1.2-.7 1.3-.7 1.2-.7 1.2-.7 1.3-.8 1.2-.7 1.2-.7 1.3-.7 1.2-.7 1.2-.8 1.2-.7 1.3-.7 1.2-.7 1.2-.7 1.3-.8 1.2-.7 1.2-.7 1.3-.7 1.2-.7 1.2-.7 1.3-.8 1.2-.7 1.2-.7 1.3-.7 1.2-.7 1.2-.8 1.3-.7 1.2-.7 1.2-.7 1.3-.7 1.2-.8 1.2-.7 1.3-.7 1.2-.7 1.2-.7 1.3-.7 1.2-.8 1.2-.7 1.3-.7 1.2-.7 1.2-.7 1.3-.8 1.2-.7 1.2-.7 1.3-.7 1.2-.7 1.2-.7 1.3-.8 1.2-.7 1.2-.7 1.3-.7 1.2-.7 1.2-.8 1.3-.7 1.2-.7 1.2-.7 1.3-.7 1.2-.8 1.2-.7 1.3-.7 1.2-.7 1.2-.7 1.3-.7 1.2-.8 1.2-.7 1.3-.7 1.2-.7 1.2-.7 1.3-.8 1.2-.7 1.2-.7 1.3-.7 1.2-.7 1.2-.8 1.3-.7 1.2-.7 1.2-.7 1.3-.7 1.2-.7 1.2-.8 1.3-.7 1.2-.7 1.2-.7 1.3-.7 1.2-.8 1.2-.7 1.3-.7 1.2-.7 1.2-.7 1.3-.8 1.2-.7 1.2-.7 1.3-.7 1.2-.7 1.2-.7 1.3-.8 1.2-.7 1.2-.7 1.3-.7 1.2-.7 1.2-.8 1.3-.7 1.2-.7 1.2-.7 1.3-.7 1.2-.7 1.2-.8 1.3-.7 1.2-.7 1.2-.7 1.3-.7 1.2-.8 1.2-.7 1.3-.7 1.2-.7 1.2-.7" clip-path="url(#g)" opacity=".9" fill="none" stroke="#ccc" stroke-dasharray="2 2"/><text clip-path="url(#g)" font-size="80%" opacity=".9" text-anchor="end" fill="#999"><textPath baseline-shift="-0.2rem" href="#h" startOffset="90%" fill="#fff" stroke="#fff" stroke-linecap="round" stroke-linejoin="round" stroke-width=".25em">1/3rd</textPath><textPath baseline-shift="-0.2rem" href="#h" startOffset="90%">1/3rd</textPath></text></g><g class="PointsWithLabels clickable" clip-path="url(#i)" font-family="Arial, sans-serif"><path fill="rgba(255,255,255,0)" d="M101.57 126.8h616.52v376.8H101.57z"/><defs><clipPath id="i"><path d="M91.57 116.8h636.52v396.8H91.57z"/></clipPath></defs><g class="key-Brazil"><circle cx="459" cy="354" r="1.1" fill="#932834" stroke="none" opacity=".7"/><path stroke-width=".52" opacity=".7" stroke="#932834" fill="none" stroke-linecap="butt" d="M459 354l-3 3 4-4 7-22 1 5h2l-2-6-1 2 3-7 2-5v3l5-5 2-5 3-7 6-2 4-7-1-3 11-7 1-8 2-2v-6l-5 4-5 6v2"/><path cx="495" cy="283" r="1.72" fill="#932834" opacity=".7" d="M496.72 281.28l-1.72 3.44-1.72-3.44z"/></g><g class="key-Chile"><circle cx="443" cy="313" r="1.1" fill="#932834" stroke="none" opacity=".7"/><path stroke-width=".52" opacity=".7" stroke="#932834" fill="none" stroke-linecap="butt" d="M443 313l17-13h10l14-9 10-2 3 4 7-2 18-14 4-4 12-9 8-15h3l1-12"/><path cx="550" cy="237" r="1.72" fill="#932834" opacity=".7" d="M548.14 238.57l2-3.28 1.43 3.57z"/></g><g class="key-China"><circle cx="239" cy="377" r="1.1" fill="#2D8587" stroke="none" opacity=".7"/><path stroke-width=".52" opacity=".7" stroke="#2D8587" fill="none" stroke-linecap="butt" d="M239 377l70-19 24 2 26-6 32-20 38-7 21-8 10-9 8-5 8-18 7-6 7-6"/><path cx="490" cy="275" r="1.72" fill="#2D8587" opacity=".7" d="M487.57 274.81l3.74-.93-1.5 3.55z"/></g><g class="key-Costa-Rica"><circle cx="427" cy="321" r="1.1" fill="#E04E4B" stroke="none" opacity=".7"/><path stroke-width=".52" opacity=".7" stroke="#E04E4B" fill="none" stroke-linecap="butt" d="M427 321v9l7-11 5-8 2-10 2 3-2 7 4-11 5-10 2 9 2 1 2-13 2-3 3-1 3-1 3-7h6l7-11h4-3l5-7 3 1 4-2h1l3-2 3-1 3-1 3-5"/><path cx="506" cy="247" r="1.72" fill="#E04E4B" opacity=".7" d="M503.64 247.59l3.24-2.06-.29 3.83z"/></g><g class="key-Honduras"><circle cx="323" cy="396" r="1.1" fill="#E04E4B" stroke="none" opacity=".7"/><path stroke-width=".52" opacity=".7" stroke="#E04E4B" fill="none" stroke-linecap="butt" d="M323 396l1-25 3-10 3-7-4 9 1 1 1 11 2-26 1 32-6-2 4-24 1 6 3 12 4-2 4 8 5-13 4-24 2-1-5-11 2 4 2 10 3 6 1-8 1-6 3 1 2 3 4 3"/><path cx="365" cy="343" r="1.72" fill="#E04E4B" opacity=".7" d="M364.66 340.6l1.72 3.43-3.79-.69z"/></g><g class="key-Indonesia"><circle cx="367" cy="363" r="1.1" fill="#2D8587" stroke="none" opacity=".7"/><path stroke-width=".52" opacity=".7" stroke="#2D8587" fill="none" stroke-linecap="butt" d="M367 363l16-1 21-7-14 15-1-22 4-3 2-3 4-11 4 1 4 4 4-4 5 8 5-6 6-1 3-4 6-3 5-3 5-3 5-3 4-3 4-2 5-1 4-3"/><path cx="468" cy="308" r="1.72" fill="#2D8587" opacity=".7" d="M465.6 307.66l3.78-.7-1.72 3.45z"/></g><g class="key-Iran"><circle cx="470" cy="303" r="1.1" fill="#2D8587" stroke="none" opacity=".7"/><path stroke-width=".52" opacity=".7" stroke="#2D8587" fill="none" stroke-linecap="butt" d="M470 303l9-10 4-3 24-34 4 1 6-1-5-13 4 6-3 1 13 2"/><path cx="526" cy="252" r="1.72" fill="#2D8587" opacity=".7" d="M524.56 250.04l3.14 2.22-3.66 1.18z"/></g><g class="key-Jamaica"><circle cx="419" cy="302" r="1.1" fill="#E04E4B" stroke="none" opacity=".7"/><path stroke-width=".52" opacity=".7" stroke="#E04E4B" fill="none" stroke-linecap="butt" d="M419 302l15 16 1-24-6-9 2 3 4-6"/><path cx="435" cy="282" r="1.72" fill="#E04E4B" opacity=".7" d="M432.61 282.48l3.34-1.91-.47 3.82z"/></g><g class="key-Paraguay"><circle cx="397" cy="265" r="1.1" fill="#932834" stroke="none" opacity=".7"/><path stroke-width=".52" opacity=".7" stroke="#932834" fill="none" stroke-linecap="butt" d="M397 265l11 64 2-9-7-2-8-6-2 18 3-18 2-10 1-2 4 10 4-4 6-12-7 3 13-2 3-2-3-10 14-11 4 1 2-1h3l-1-4"/><path cx="441" cy="268" r="1.72" fill="#932834" opacity=".7" d="M439.75 270.09l.83-3.76 2.5 2.92z"/></g><g class="key-Thailand"><circle cx="408" cy="317" r="1.1" fill="#2D8587" stroke="none" opacity=".7"/><path stroke-width=".52" opacity=".7" stroke="#2D8587" fill="none" stroke-linecap="butt" d="M408 317l16-7 16-12 13-6-15-2 4 6h4l8-9 14-6 9-7 5-5 1-3-1-3 8-3v-7h8l2-3 1-2 3-6 3 2 4-2"/><path cx="511" cy="242" r="1.72" fill="#2D8587" opacity=".7" d="M508.7 241.23h3.84l-2.3 3.08z"/></g><g class="key-Tunisia"><circle cx="389" cy="320" r="1.1" fill="#923E8B" stroke="none" opacity=".7"/><path stroke-width=".52" opacity=".7" stroke="#923E8B" fill="none" stroke-linecap="butt" d="M389 320l10 1 24-15 18-11 19-14 4-20"/><path cx="464" cy="261" r="1.72" fill="#923E8B" opacity=".7" d="M461.98 262.35l2.36-3.04 1 3.71z"/></g><g class="key-Bolivia"><circle cx="345" cy="308" r="1.1" fill="#932834" stroke="none" opacity=".7"/><path stroke-width=".52" opacity=".7" stroke="#932834" fill="none" stroke-linecap="butt" d="M345 308l14 54 2 40v16-40l1 8 3-50 3 26 4-13 3-17 5-9 2-4 7-18 4 5 5-9 5-4h3l3 3 3-4"/><path cx="412" cy="292" r="1.72" fill="#932834" opacity=".7" d="M409.6 292.34l3.43-1.72-.69 3.79z"/></g><g class="key-Canada"><circle cx="583" cy="170" r="1.1" fill="#E04E4B" stroke="none" opacity=".7"/><path stroke-width=".52" opacity=".7" stroke="#E04E4B" fill="none" stroke-linecap="butt" d="M583 170h5l6 2h3l10-1 7-4 5-8-2-1 4 4"/><path cx="621" cy="162" r="1.72" fill="#E04E4B" opacity=".7" d="M621 159.57l1.22 3.65-3.65-1.22z"/></g><g class="key-Egypt"><circle cx="393" cy="312" r="1.1" fill="#923E8B" stroke="none" opacity=".7"/><path stroke-width=".52" opacity=".7" stroke="#923E8B" fill="none" stroke-linecap="butt" d="M393 312l12-3 16-11 6 9 20-2 7-3-1-4 3-7"/><path cx="456" cy="291" r="1.72" fill="#923E8B" opacity=".7" d="M453.74 291.9l2.94-2.48.22 3.84z"/></g><g class="key-El-Salvador"><circle cx="365" cy="365" r="1.1" fill="#E04E4B" stroke="none" opacity=".7"/><path stroke-width=".52" opacity=".7" stroke="#E04E4B" fill="none" stroke-linecap="butt" d="M365 365l19-35-1 6 5 35 1-18 1-25v6l1 1 1 9 1-20 2-3 5-15 1-10 2 10-3-2 2-2 4-4 3-4 2-4 2-1 2-6 2 2 2-6"/><path cx="419" cy="279" r="1.72" fill="#E04E4B" opacity=".7" d="M416.82 280.09l2.72-2.72.55 3.8z"/></g><g class="key-Germany"><circle cx="591" cy="158" r="1.1" fill="#4C5C78" stroke="none" opacity=".7"/><path stroke-width=".52" opacity=".7" stroke="#4C5C78" fill="none" stroke-linecap="butt" d="M591 158l2 2 2-2 5-3 5-3 2 1v44l-1-44h1l1 3 4-2 4-1h2-7l5-1 6-1 1 2 3 2"/><path cx="626" cy="155" r="1.72" fill="#4C5C78" opacity=".7" d="M625.52 152.61l1.91 3.34-3.82-.47z"/></g><g class="key-Guinea"><circle cx="227" cy="502" r="1.1" fill="#923E8B" stroke="none" opacity=".7"/><path stroke-width=".52" opacity=".7" stroke="#923E8B" fill="none" stroke-linecap="butt" d="M227 502l-6-124 16 13 5-6 8-31"/><path cx="250" cy="354" r="1.72" fill="#923E8B" opacity=".7" d="M247.9 355.24l2.53-2.9.8 3.76z"/></g><g class="key-Morocco"><circle cx="353" cy="298" r="1.1" fill="#923E8B" stroke="none" opacity=".7"/><path stroke-width=".52" opacity=".7" stroke="#923E8B" fill="none" stroke-linecap="butt" d="M353 298l9 13 8-2 23-13 23-18"/><path cx="416" cy="278" r="1.72" fill="#923E8B" opacity=".7" d="M413.59 277.7l3.76-.76-1.64 3.47z"/></g><g class="key-Pakistan"><circle cx="321" cy="371" r="1.1" fill="#2D8587" stroke="none" opacity=".7"/><path stroke-width=".52" opacity=".7" stroke="#2D8587" fill="none" stroke-linecap="butt" d="M321 371l10-46 1 9 3 3 15-8 5-4 3-3 1-7h1l5-4 7-4"/><path cx="372" cy="307" r="1.72" fill="#2D8587" opacity=".7" d="M369.65 306.36l3.84-.21-2.13 3.2z"/></g><g class="key-Panama"><circle cx="436" cy="395" r="1.1" fill="#E04E4B" stroke="none" opacity=".7"/><path stroke-width=".52" opacity=".7" stroke="#E04E4B" fill="none" stroke-linecap="butt" d="M436 395l10-29 8-14 5 4 2-14 1-11-1 15v-23h3l6-5 6-3 7 5 11-14 9-17-1-8 5 4 10-10 9 4 5-6h4l4-8 4-1 4-2"/><path cx="547" cy="262" r="1.72" fill="#E04E4B" opacity=".7" d="M544.7 261.23h3.84l-2.3 3.08z"/></g><g class="key-Philippines"><circle cx="347" cy="342" r="1.1" fill="#2D8587" stroke="none" opacity=".7"/><path stroke-width=".52" opacity=".7" stroke="#2D8587" fill="none" stroke-linecap="butt" d="M347 342l-1-2 10-9v-5l6-1 12 2 8-7 14-1 16-10"/><path cx="412" cy="309" r="1.72" fill="#2D8587" opacity=".7" d="M409.63 308.45l3.83-.36-2 3.28z"/></g><g class="key-Senegal"><circle cx="260" cy="425" r="1.1" fill="#923E8B" stroke="none" opacity=".7"/><path stroke-width=".52" opacity=".7" stroke="#923E8B" fill="none" stroke-linecap="butt" d="M260 425l-7-48 14-12 9-4 3 1"/><path cx="279" cy="362" r="1.72" fill="#923E8B" opacity=".7" d="M277.91 359.82l2.72 2.72-3.8.55z"/></g><g class="key-Sri-Lanka"><circle cx="342" cy="316" r="1.1" fill="#2D8587" stroke="none" opacity=".7"/><path stroke-width=".52" opacity=".7" stroke="#2D8587" fill="none" stroke-linecap="butt" d="M342 316h24l22-1 32-13 17-7 21-2 13-10"/><path cx="471" cy="283" r="1.72" fill="#2D8587" opacity=".7" d="M468.59 282.69l3.77-.74-1.67 3.46z"/></g><g class="key-United-States"><circle cx="604" cy="179" r="1.1" fill="#E04E4B" stroke="none" opacity=".7"/><path stroke-width=".52" opacity=".7" stroke="#E04E4B" fill="none" stroke-linecap="butt" d="M604 179h8l8-4 11-6 6 2h6l-4 2h4l5-5"/><path cx="648" cy="168" r="1.72" fill="#E04E4B" opacity=".7" d="M645.57 168l3.65-1.22-1.22 3.65z"/></g><g class="key-Zambia"><circle cx="285" cy="489" r="1.1" fill="#923E8B" stroke="none" opacity=".7"/><path stroke-width=".52" opacity=".7" stroke="#923E8B" fill="none" stroke-linecap="butt" d="M285 489v-72l-9-43-3 3 12-6 10 33 12 6 20-3 12 8"/><path cx="339" cy="415" r="1.72" fill="#923E8B" opacity=".7" d="M338.52 412.61l1.91 3.34-3.82-.47z"/></g><g class="key-Bangladesh"><circle cx="224" cy="351" r="1.1" fill="#2D8587" stroke="none" opacity=".7"/><path stroke-width=".52" opacity=".7" stroke="#2D8587" fill="none" stroke-linecap="butt" d="M224 351l11-7 13-1 18-8 27-6 36-4"/><path cx="329" cy="325" r="1.72" fill="#2D8587" opacity=".7" d="M327.1 323.48l3.6 1.33-3.22 2.09z"/></g><g class="key-Bulgaria"><circle cx="431" cy="217" r="1.1" fill="#4C5C78" stroke="none" opacity=".7"/><path stroke-width=".52" opacity=".7" stroke="#4C5C78" fill="none" stroke-linecap="butt" d="M431 217l1 12 4 24 1 21 11 1 15-10 26 22 9-33 7-11-3-1 2 8 3 4 1-1 1-2 3-8"/><path cx="512" cy="243" r="1.72" fill="#4C5C78" opacity=".7" d="M509.79 244l2.81-2.61.4 3.82z"/></g><g class="key-Burundi"><circle cx="202" cy="398" r="1.1" fill="#923E8B" stroke="none" opacity=".7"/><path stroke-width=".52" opacity=".7" stroke="#923E8B" fill="none" stroke-linecap="butt" d="M202 398l-41 35-5-50 9 9"/><path cx="165" cy="392" r="1.72" fill="#923E8B" opacity=".7" d="M165 389.57l1.22 3.65-3.65-1.22z"/></g><g class="key-Central-African-Republic"><circle cx="167" cy="503" r="1.1" fill="#923E8B" stroke="none" opacity=".7"/><path stroke-width=".52" opacity=".7" stroke="#923E8B" fill="none" stroke-linecap="butt" d="M167 503l-4-99 10 16"/><path cx="173" cy="420" r="1.72" fill="#923E8B" opacity=".7" d="M173.55 417.63l.36 3.83-3.28-2z"/></g><g class="key-Colombia"><circle cx="427" cy="321" r="1.1" fill="#932834" stroke="none" opacity=".7"/><path stroke-width=".52" opacity=".7" stroke="#932834" fill="none" stroke-linecap="butt" d="M427 321l9 34-5 15 3-3v-3l2-30 2-7 5-5 4-4 14 3 1-6 3-6 6-6 4-1 4-4 4-3 2-4h2l1-3"/><path cx="488" cy="288" r="1.72" fill="#932834" opacity=".7" d="M485.82 289.09l2.72-2.72.55 3.8z"/></g><g class="key-Dominican-Republic"><circle cx="395" cy="302" r="1.1" fill="#E04E4B" stroke="none" opacity=".7"/><path stroke-width=".52" opacity=".7" stroke="#E04E4B" fill="none" stroke-linecap="butt" d="M395 302l16-7h8l14-1 1-4 3 7-3 8 1 9 8-13 9-6 6-1 2-1v-4l8-1 2-2h1l4-2 7-6 7-5 6-3"/><path cx="495" cy="270" r="1.72" fill="#E04E4B" opacity=".7" d="M492.7 269.23h3.84l-2.3 3.08z"/></g><g class="key-Ghana"><circle cx="269" cy="372" r="1.1" fill="#923E8B" stroke="none" opacity=".7"/><path stroke-width=".52" opacity=".7" stroke="#923E8B" fill="none" stroke-linecap="butt" d="M269 372l12-10 21-12 42-25 12 5"/><path cx="356" cy="330" r="1.72" fill="#923E8B" opacity=".7" d="M355.07 327.75l2.52 2.91-3.84.27z"/></g><g class="key-Israel"><circle cx="544" cy="220" r="1.1" fill="#2D8587" stroke="none" opacity=".7"/><path stroke-width=".52" opacity=".7" stroke="#2D8587" fill="none" stroke-linecap="butt" d="M544 220l16 5 6-6 3 13 8-6h4l3-5 4-6 4-5"/><path cx="592" cy="210" r="1.72" fill="#2D8587" opacity=".7" d="M589.58 210.27l3.5-1.61-.81 3.76z"/></g><g class="key-Jordan"><circle cx="411" cy="295" r="1.1" fill="#2D8587" stroke="none" opacity=".7"/><path stroke-width=".52" opacity=".7" stroke="#2D8587" fill="none" stroke-linecap="butt" d="M411 295l1-6 17-8 16-13 7-3-3-6"/><path cx="449" cy="259" r="1.72" fill="#2D8587" opacity=".7" d="M448.23 261.3v-3.84l3.08 2.3z"/></g><g class="key-Kenya"><circle cx="284" cy="364" r="1.1" fill="#923E8B" stroke="none" opacity=".7"/><path stroke-width=".52" opacity=".7" stroke="#923E8B" fill="none" stroke-linecap="butt" d="M284 364l-4-2v-9l2 21 32-16"/><path cx="314" cy="358" r="1.72" fill="#923E8B" opacity=".7" d="M311.7 357.23h3.84l-2.3 3.08z"/></g><g class="key-Laos"><circle cx="257" cy="342" r="1.1" fill="#2D8587" stroke="none" opacity=".7"/><path stroke-width=".52" opacity=".7" stroke="#2D8587" fill="none" stroke-linecap="butt" d="M257 342l25 20 23-18 30-4 36-4"/><path cx="371" cy="336" r="1.72" fill="#2D8587" opacity=".7" d="M369.1 334.48l3.6 1.33-3.22 2.09z"/></g><g class="key-Malaysia"><circle cx="476" cy="285" r="1.1" fill="#2D8587" stroke="none" opacity=".7"/><path stroke-width=".52" opacity=".7" stroke="#2D8587" fill="none" stroke-linecap="butt" d="M476 285l23-1 13-13 11-19 13 6 3 4 6-19 7-17 9-7"/><path cx="561" cy="219" r="1.72" fill="#2D8587" opacity=".7" d="M558.59 218.7l3.77-.76-1.66 3.47z"/></g><g class="key-Mexico"><circle cx="490" cy="317" r="1.1" fill="#E04E4B" stroke="none" opacity=".7"/><path stroke-width=".52" opacity=".7" stroke="#E04E4B" fill="none" stroke-linecap="butt" d="M490 317l6 3-4 36 10-17 5-25-3-7 3-6 1 2 3-10v5l-4-4 5-4h2l4-12"/><path cx="518" cy="278" r="1.72" fill="#E04E4B" opacity=".7" d="M515.82 279.09l2.72-2.72.55 3.8z"/></g><g class="key-Nigeria"><circle cx="312" cy="412" r="1.1" fill="#923E8B" stroke="none" opacity=".7"/><path stroke-width=".52" opacity=".7" stroke="#923E8B" fill="none" stroke-linecap="butt" d="M312 412l-2 4 43-29 26-1"/><path cx="379" cy="386" r="1.72" fill="#923E8B" opacity=".7" d="M377.22 384.35l3.5 1.58-3.37 1.85z"/></g><g class="key-Romania"><circle cx="446" cy="261" r="1.1" fill="#4C5C78" stroke="none" opacity=".7"/><path stroke-width=".52" opacity=".7" stroke="#4C5C78" fill="none" stroke-linecap="butt" d="M446 261l7 60 5-32v21l3 2 7-6h8l7-6 10-6 6-4 9 21 10-12 11-11-6-3-3 5 3 7 2 2 4 4 4-1 5-8 6-32"/><path cx="544" cy="262" r="1.72" fill="#4C5C78" opacity=".7" d="M542 263.37l2.32-3.06 1.05 3.7z"/></g><g class="key-Tanzania"><circle cx="230" cy="395" r="1.1" fill="#923E8B" stroke="none" opacity=".7"/><path stroke-width=".52" opacity=".7" stroke="#923E8B" fill="none" stroke-linecap="butt" d="M230 395l6 25 31-37 16-21"/><path cx="283" cy="362" r="1.72" fill="#923E8B" opacity=".7" d="M280.59 362.33l3.45-1.7-.71 3.78z"/></g><g class="key-Trinidad-and-Tobago"><circle cx="478" cy="292" r="1.22" fill="#E04E4B" opacity=".8" stroke="#666" stroke-width=".5"/></g><g class="key-Uganda"><circle cx="163" cy="389" r="1.1" fill="#923E8B" stroke="none" opacity=".7"/><path stroke-width=".52" opacity=".7" stroke="#923E8B" fill="none" stroke-linecap="butt" d="M163 389l24-7 9 11 8-6 10-9 22-13 9-10 6 5"/><path cx="251" cy="360" r="1.72" fill="#923E8B" opacity=".7" d="M250.78 357.58l1.54 3.52-3.74-.88z"/></g><g class="key-Ukraine"><circle cx="438" cy="290" r="1.1" fill="#4C5C78" stroke="none" opacity=".7"/><path stroke-width=".52" opacity=".7" stroke="#4C5C78" fill="none" stroke-linecap="butt" d="M438 290l-18-7-43 21-11 3-3 8 26-27 11-10 14-6 4-11 9-5 10-2 3-10-18 2 5-5 7-3v-7l-1 2-11 10 3-2"/><path cx="425" cy="241" r="1.72" fill="#4C5C78" opacity=".7" d="M422.61 240.52l3.82-.47-1.9 3.34z"/></g><g class="key-Venezuela"><circle cx="510" cy="293" r="1.1" fill="#932834" stroke="none" opacity=".7"/><path stroke-width=".52" opacity=".7" stroke="#932834" fill="none" stroke-linecap="butt" d="M510 293l-6 31 1 17-10-9 4-2-13 34-11 22 17-9 10 12 8-63"/><path cx="510" cy="326" r="1.72" fill="#932834" opacity=".7" d="M508.08 327.49l2.14-3.2 1.27 3.63z"/></g><g class="key-Belarus"><circle cx="412" cy="269" r="1.1" fill="#4C5C78" stroke="none" opacity=".7"/><path stroke-width=".52" opacity=".7" stroke="#4C5C78" fill="none" stroke-linecap="butt" d="M412 269l-26-9 26 62 4-2 7-9 6-17 7-7 8-5 13-13 12-11 11-9 10-8 12-5v-1l9-7 6-4 3-10 1-7 2-2-5 5-3 1 2-2"/><path cx="517" cy="209" r="1.72" fill="#4C5C78" opacity=".7" d="M514.57 209l3.65-1.22-1.22 3.65z"/></g><g class="key-Belize"><circle cx="405" cy="325" r="1.1" fill="#E04E4B" stroke="none" opacity=".7"/><path stroke-width=".52" opacity=".7" stroke="#E04E4B" fill="none" stroke-linecap="butt" d="M405 325l-2-1-2 2-3 8v13-11h6"/><path cx="404" cy="336" r="1.72" fill="#E04E4B" opacity=".7" d="M402.28 334.28l3.44 1.72-3.44 1.72z"/></g><g class="key-Botswana"><circle cx="436" cy="369" r="1.1" fill="#923E8B" stroke="none" opacity=".7"/><path stroke-width=".52" opacity=".7" stroke="#923E8B" fill="none" stroke-linecap="butt" d="M436 369l31-6 14-24 26-8"/><path cx="507" cy="331" r="1.72" fill="#923E8B" opacity=".7" d="M504.85 329.86l3.8.63-2.79 2.66z"/></g><g class="key-Cote-d__0027Ivoire"><circle cx="312" cy="343" r="1.1" fill="#923E8B" stroke="none" opacity=".7"/><path stroke-width=".52" opacity=".7" stroke="#923E8B" fill="none" stroke-linecap="butt" d="M312 343l1-9 8 12-13-1-4 14 22-6"/><path cx="326" cy="353" r="1.72" fill="#923E8B" opacity=".7" d="M323.89 351.8l3.77.75-2.87 2.56z"/></g><g class="key-Czechia"><circle cx="521" cy="214" r="1.1" fill="#4C5C78" stroke="none" opacity=".7"/><path stroke-width=".52" opacity=".7" stroke="#4C5C78" fill="none" stroke-linecap="butt" d="M521 214l15-9 21-2 7-3 8-4 5-7 2-2-6 1 2 1 2 1-1-1-1 1 3-3 6-3"/><path cx="584" cy="184" r="1.72" fill="#4C5C78" opacity=".7" d="M581.7 183.23h3.84l-2.3 3.08z"/></g><g class="key-Guinea__002dBissau"><circle cx="244" cy="396" r="1.1" fill="#923E8B" stroke="none" opacity=".7"/><path stroke-width=".52" opacity=".7" stroke="#923E8B" fill="none" stroke-linecap="butt" d="M244 396l-21-24 6 32"/><path cx="229" cy="404" r="1.72" fill="#923E8B" opacity=".7" d="M230.37 402l-1.05 3.7-2.33-3.07z"/></g><g class="key-Hungary"><circle cx="499" cy="224" r="1.1" fill="#4C5C78" stroke="none" opacity=".7"/><path stroke-width=".52" opacity=".7" stroke="#4C5C78" fill="none" stroke-linecap="butt" d="M499 224l15 16h4l5-1 4-8 6-2 4 2 6-9 5 5 5-12 1 1 1-2-8 3 1 3 2-1-1 8 3-1 5-4 4-5"/><path cx="561" cy="217" r="1.72" fill="#4C5C78" opacity=".7" d="M558.58 217.27l3.5-1.61-.81 3.76z"/></g><g class="key-Kazakhstan"><circle cx="455" cy="307" r="1.1" fill="#2D8587" stroke="none" opacity=".7"/><path stroke-width=".52" opacity=".7" stroke="#2D8587" fill="none" stroke-linecap="butt" d="M455 307l-19 2 34 10 10-9 10-7 10-9 9 15 11-34 8-10 3-4-2 2 7-6 6-11h4l5-6 3 1v3l-1 6 3-5"/><path cx="556" cy="245" r="1.72" fill="#2D8587" opacity=".7" d="M553.64 245.59l3.24-2.06-.29 3.83z"/></g><g class="key-Lithuania"><circle cx="448" cy="310" r="1.1" fill="#4C5C78" stroke="none" opacity=".7"/><path stroke-width=".52" opacity=".7" stroke="#4C5C78" fill="none" stroke-linecap="butt" d="M448 310l6-42 19-5h0l5 5 8 1 9-1 12-16 9 21 10-16 10-20 14-10 4-3-17 23 4-2 9-12 6 1 5-5 5 1 4-7"/><path cx="570" cy="223" r="1.72" fill="#4C5C78" opacity=".7" d="M567.65 223.64l3.2-2.13-.21 3.84z"/></g><g class="key-Madagascar"><circle cx="234" cy="401" r="1.1" fill="#923E8B" stroke="none" opacity=".7"/><path stroke-width=".52" opacity=".7" stroke="#923E8B" fill="none" stroke-linecap="butt" d="M234 401l-5-4 2-4 5 16-8-17v16l-1 6"/><path cx="227" cy="414" r="1.72" fill="#923E8B" opacity=".7" d="M228.98 412.59l-2.26 3.1-1.13-3.67z"/></g><g class="key-Mauritania"><circle cx="311" cy="363" r="1.1" fill="#923E8B" stroke="none" opacity=".7"/><path stroke-width=".52" opacity=".7" stroke="#923E8B" fill="none" stroke-linecap="butt" d="M311 363l4-23-8-4 3-8 21-7 9-14"/><path cx="340" cy="307" r="1.72" fill="#923E8B" opacity=".7" d="M337.62 307.52l3.31-1.97-.41 3.83z"/></g><g class="key-Nicaragua"><circle cx="309" cy="403" r="1.1" fill="#E04E4B" stroke="none" opacity=".7"/><path stroke-width=".52" opacity=".7" stroke="#E04E4B" fill="none" stroke-linecap="butt" d="M309 403l15-39 11-27 8-23 4-4 24-20"/><path cx="371" cy="290" r="1.72" fill="#E04E4B" opacity=".7" d="M368.58 289.78l3.74-.88-1.54 3.52z"/></g><g class="key-Niger"><circle cx="163" cy="396" r="1.1" fill="#923E8B" stroke="none" opacity=".7"/><path stroke-width=".52" opacity=".7" stroke="#923E8B" fill="none" stroke-linecap="butt" d="M163 396l1 24-5-15 2-22 4-27 14 3"/><path cx="179" cy="359" r="1.72" fill="#923E8B" opacity=".7" d="M177.68 356.96l3 2.4-3.72.96z"/></g><g class="key-Poland"><circle cx="456" cy="267" r="1.1" fill="#4C5C78" stroke="none" opacity=".7"/><path stroke-width=".52" opacity=".7" stroke="#4C5C78" fill="none" stroke-linecap="butt" d="M456 267l20 31 12-52 6 2 6 1 1 2 3 1 4-4 6 11 4-12 7-9 8-11 4-6 3-1 5-2h5l2 1 2-2 4-2 4-4 3 12"/><path cx="565" cy="223" r="1.72" fill="#4C5C78" opacity=".7" d="M566.25 220.91l-.83 3.76-2.5-2.92z"/></g><g class="key-Russia"><circle cx="504" cy="284" r="1.1" fill="#4C5C78" stroke="none" opacity=".7"/><path stroke-width=".52" opacity=".7" stroke="#4C5C78" fill="none" stroke-linecap="butt" d="M504 284l-24 2 2-17-6 8 7 15 11-8 7-10 6-7h8l9-4 7-5 9-7 10-8 6-10-9-1 5-5 5-3 4-2 2-2-1-1-4 3"/><path cx="558" cy="222" r="1.72" fill="#4C5C78" opacity=".7" d="M560.4 222.34l-3.78.7 1.72-3.45z"/></g><g class="key-Slovenia"><circle cx="526" cy="207" r="1.1" fill="#4C5C78" stroke="none" opacity=".7"/><path stroke-width=".52" opacity=".7" stroke="#4C5C78" fill="none" stroke-linecap="butt" d="M526 207l14-6h17l3 5 5-26 4-3 6-3 7-4 4-3-10 2v1h1l-3 5-2 2 3-3 3-1"/><path cx="578" cy="173" r="1.72" fill="#4C5C78" opacity=".7" d="M575.82 171.91l3.81.55-2.72 2.72z"/></g><g class="key-South-Africa"><circle cx="441" cy="357" r="1.1" fill="#923E8B" stroke="none" opacity=".7"/><path stroke-width=".52" opacity=".7" stroke="#923E8B" fill="none" stroke-linecap="butt" d="M441 357l5 14 5-6 13-15 9-16h2l5 7"/><path cx="480" cy="341" r="1.72" fill="#923E8B" opacity=".7" d="M480.4 338.6l.6 3.8-3.4-1.8z"/></g><g class="key-Vietnam"><circle cx="252" cy="363" r="1.1" fill="#2D8587" stroke="none" opacity=".7"/><path stroke-width=".52" opacity=".7" stroke="#2D8587" fill="none" stroke-linecap="butt" d="M252 363l40-16 18 3 14-8 14-7 12-7 11-29 10-8 11-4 11-7"/><path cx="393" cy="280" r="1.72" fill="#2D8587" opacity=".7" d="M390.63 279.47l3.82-.4-1.98 3.3z"/></g><g class="key-Burkina-Faso"><circle cx="174" cy="425" r="1.1" fill="#923E8B" stroke="none" opacity=".7"/><path stroke-width=".52" opacity=".7" stroke="#923E8B" fill="none" stroke-linecap="butt" d="M174 425l21-7 15-33 19-11 14-24"/><path cx="243" cy="350" r="1.72" fill="#923E8B" opacity=".7" d="M240.65 350.62l3.22-2.1-.25 3.83z"/></g><g class="key-Ecuador"><circle cx="426" cy="348" r="1.1" fill="#932834" stroke="none" opacity=".7"/><path stroke-width=".52" opacity=".7" stroke="#932834" fill="none" stroke-linecap="butt" d="M426 348l3-9-8 22v6l6-32 7 3 4-11 3-16 1 1 5-4-1-2 2-8 6-6 5-3 4-5 2-5-1 3h-4l2-3"/><path cx="462" cy="279" r="1.72" fill="#932834" opacity=".7" d="M459.61 279.48l3.34-1.91-.47 3.82z"/></g><g class="key-India"><circle cx="266" cy="352" r="1.1" fill="#2D8587" stroke="none" opacity=".7"/><path stroke-width=".52" opacity=".7" stroke="#2D8587" fill="none" stroke-linecap="butt" d="M266 352l58-6 37-5 11-9"/><path cx="372" cy="332" r="1.72" fill="#2D8587" opacity=".7" d="M369.58 331.76l3.75-.85-1.57 3.51z"/></g><g class="key-Lesotho"><circle cx="245" cy="434" r="1.1" fill="#923E8B" stroke="none" opacity=".7"/><path stroke-width=".52" opacity=".7" stroke="#923E8B" fill="none" stroke-linecap="butt" d="M245 434l19-4 26-1"/><path cx="290" cy="429" r="1.72" fill="#923E8B" opacity=".7" d="M288.22 427.35l3.5 1.58-3.37 1.85z"/></g><g class="key-Mali"><circle cx="224" cy="444" r="1.1" fill="#923E8B" stroke="none" opacity=".7"/><path stroke-width=".52" opacity=".7" stroke="#923E8B" fill="none" stroke-linecap="butt" d="M224 444l23-61 10-10 6-11"/><path cx="263" cy="362" r="1.72" fill="#923E8B" opacity=".7" d="M260.67 362.69l3.15-2.2-.13 3.84z"/></g><g class="key-Peru"><circle cx="395" cy="329" r="1.1" fill="#932834" stroke="none" opacity=".7"/><path stroke-width=".52" opacity=".7" stroke="#932834" fill="none" stroke-linecap="butt" d="M395 329l13 16-3-2v3l2-7-1 2 5-6 3-11 4 5 6 6 7-6 8-8 8-9v-7l8-7 5-4 6-3 5-3 1-3 2-1 3-1h2"/><path cx="479" cy="283" r="1.72" fill="#932834" opacity=".7" d="M477.28 281.28l3.44 1.72-3.44 1.72z"/></g><g class="key-Turkey"><circle cx="472" cy="295" r="1.1" fill="#2D8587" stroke="none" opacity=".7"/><path stroke-width=".52" opacity=".7" stroke="#2D8587" fill="none" stroke-linecap="butt" d="M472 295l18-6 4 7 9-12 9-2 6-6 4-5v-6l-7-1 8-2 10-5 4-2 7-3 4-3 5 2 2-4"/><path cx="555" cy="247" r="1.72" fill="#2D8587" opacity=".7" d="M552.7 247.77l3.07-2.3v3.84z"/></g><g class="key-Algeria"><circle cx="447" cy="307" r="1.1" fill="#923E8B" stroke="none" opacity=".7"/><path stroke-width=".52" opacity=".7" stroke="#923E8B" fill="none" stroke-linecap="butt" d="M447 307l38-38"/><path cx="485" cy="269" r="1.72" fill="#923E8B" opacity=".7" d="M482.57 269l3.65-1.22-1.22 3.65z"/></g><g class="key-Australia"><circle cx="583" cy="189" r="1.1" fill="#A8633C" stroke="none" opacity=".7"/><path stroke-width=".52" opacity=".7" stroke="#A8633C" fill="none" stroke-linecap="butt" d="M583 189l18-8 5-2 4-9 9-11h6"/><path cx="625" cy="159" r="1.72" fill="#A8633C" opacity=".7" d="M623.28 157.28l3.44 1.72-3.44 1.72z"/></g><g class="key-Azerbaijan"><circle cx="329" cy="313" r="1.1" fill="#2D8587" stroke="none" opacity=".7"/><path stroke-width=".52" opacity=".7" stroke="#2D8587" fill="none" stroke-linecap="butt" d="M329 313l43-17 11-41 11 2 11-6 25-7"/><path cx="430" cy="244" r="1.72" fill="#2D8587" opacity=".7" d="M427.88 242.8l3.78.74-2.85 2.58z"/></g><g class="key-Estonia"><circle cx="470" cy="272" r="1.1" fill="#4C5C78" stroke="none" opacity=".7"/><path stroke-width=".52" opacity=".7" stroke="#4C5C78" fill="none" stroke-linecap="butt" d="M470 272l28-7 9 6 8 1h8l8-11 8-15 11-12 12-12 9-12h-6l-18 5 3 8 9-3 5-4 2-1 4-7 2-9"/><path cx="572" cy="199" r="1.72" fill="#4C5C78" opacity=".7" d="M569.95 200.3l2.42-2.98.94 3.73z"/></g><g class="key-Eswatini"><circle cx="389" cy="469" r="1.1" fill="#923E8B" stroke="none" opacity=".7"/><path stroke-width=".52" opacity=".7" stroke="#923E8B" fill="none" stroke-linecap="butt" d="M389 469l4-97 24 4"/><path cx="417" cy="376" r="1.72" fill="#923E8B" opacity=".7" d="M415.59 374.02l3.1 2.26-3.67 1.13z"/></g><g class="key-Ethiopia"><circle cx="127" cy="389" r="1.1" fill="#923E8B" stroke="none" opacity=".7"/><path stroke-width=".52" opacity=".7" stroke="#923E8B" fill="none" stroke-linecap="butt" d="M127 389l8-23 20-22 53 5 37-2"/><path cx="245" cy="347" r="1.72" fill="#923E8B" opacity=".7" d="M243.19 345.38l3.53 1.53-3.34 1.9z"/></g><g class="key-Latvia"><circle cx="434" cy="269" r="1.1" fill="#4C5C78" stroke="none" opacity=".7"/><path stroke-width=".52" opacity=".7" stroke="#4C5C78" fill="none" stroke-linecap="butt" d="M434 269l4 5 11 5 8-3 29-17 10-7 11 13 13-4 14-21 12-13-3 5-16 15-2 1 9-4 6-3 4-7 3-7 4-9"/><path cx="551" cy="218" r="1.72" fill="#4C5C78" opacity=".7" d="M548.73 218.87l2.97-2.44.17 3.84z"/></g><g class="key-Mongolia"><circle cx="357" cy="322" r="1.1" fill="#2D8587" stroke="none" opacity=".7"/><path stroke-width=".52" opacity=".7" stroke="#2D8587" fill="none" stroke-linecap="butt" d="M357 322l8 24 9-29 49-30 2-4 17-6 11-9 17-6v14"/><path cx="470" cy="276" r="1.72" fill="#2D8587" opacity=".7" d="M471.72 274.28l-1.72 3.44-1.72-3.44z"/></g><g class="key-Saint-Lucia"><circle cx="460" cy="367" r="1.1" fill="#E04E4B" stroke="none" opacity=".7"/><path stroke-width=".52" opacity=".7" stroke="#E04E4B" fill="none" stroke-linecap="butt" d="M460 367l23-79"/><path cx="483" cy="288" r="1.72" fill="#E04E4B" opacity=".7" d="M480.87 289.17l2.61-2.82.7 3.78z"/></g><g class="key-Albania"><circle cx="368" cy="289" r="1.1" fill="#4C5C78" stroke="none" opacity=".7"/><path stroke-width=".52" opacity=".7" stroke="#4C5C78" fill="none" stroke-linecap="butt" d="M368 289l37 5 21-9 19-9 15 3"/><path cx="460" cy="279" r="1.72" fill="#4C5C78" opacity=".7" d="M458.65 276.98l3.04 2.36-3.71 1z"/></g><g class="key-Armenia"><circle cx="288" cy="333" r="1.1" fill="#2D8587" stroke="none" opacity=".7"/><path stroke-width=".52" opacity=".7" stroke="#2D8587" fill="none" stroke-linecap="butt" d="M288 333l19-2 18 2 15-6 16-7 12-5 16-11 15-4 16-4 8-7-17 7h3l6-1 7-2 4 1 3-1 3-3h0l8-3"/><path cx="440" cy="287" r="1.72" fill="#2D8587" opacity=".7" d="M437.79 286l3.82.4-2.62 2.81z"/></g><g class="key-Cameroon"><circle cx="292" cy="364" r="1.1" fill="#923E8B" stroke="none" opacity=".7"/><path stroke-width=".52" opacity=".7" stroke="#923E8B" fill="none" stroke-linecap="butt" d="M292 364l11-24 10 7h11"/><path cx="324" cy="347" r="1.72" fill="#923E8B" opacity=".7" d="M322.28 345.28l3.44 1.72-3.44 1.72z"/></g><g class="key-Georgia"><circle cx="301" cy="300" r="1.1" fill="#2D8587" stroke="none" opacity=".7"/><path stroke-width=".52" opacity=".7" stroke="#2D8587" fill="none" stroke-linecap="butt" d="M301 300l14 38 4-3 5 7 3 3 6-2 7-22 13 1 8-2 12 2 12-1 15 3 4-4h-3l9 5 9-2 9-8 5-8 7-6 4-4h3l5 2"/><path cx="452" cy="299" r="1.72" fill="#2D8587" opacity=".7" d="M451.04 296.76l2.56 2.88-3.84.32z"/></g><g class="key-Mozambique"><circle cx="101" cy="444" r="1.1" fill="#923E8B" stroke="none" opacity=".7"/><path stroke-width=".52" opacity=".7" stroke="#923E8B" fill="none" stroke-linecap="butt" d="M101 444l44-27 32-13 22-7"/><path cx="199" cy="397" r="1.72" fill="#923E8B" opacity=".7" d="M196.84 395.88l3.8.6-2.76 2.68z"/></g><g class="key-Nepal"><circle cx="228" cy="373" r="1.1" fill="#2D8587" stroke="none" opacity=".7"/><path stroke-width=".52" opacity=".7" stroke="#2D8587" fill="none" stroke-linecap="butt" d="M228 373l16-13 25-34"/><path cx="269" cy="326" r="1.72" fill="#2D8587" opacity=".7" d="M266.6 326.37l3.42-1.76-.65 3.8z"/></g><g class="key-Papua-New-Guinea"><circle cx="328" cy="433" r="1.1" fill="#A8633C" stroke="none" opacity=".7"/><path stroke-width=".52" opacity=".7" stroke="#A8633C" fill="none" stroke-linecap="butt" d="M328 433l-4-60"/><path cx="324" cy="373" r="1.72" fill="#A8633C" opacity=".7" d="M322.4 374.83l1.49-3.55 1.94 3.32z"/></g><g class="key-Slovakia"><circle cx="494" cy="233" r="1.1" fill="#4C5C78" stroke="none" opacity=".7"/><path stroke-width=".52" opacity=".7" stroke="#4C5C78" fill="none" stroke-linecap="butt" d="M494 233l34-3 7-10 9-9 12-4h6-6l5-1 3-3 2 6 2 1 3 1 4-3"/><path cx="575" cy="208" r="1.72" fill="#4C5C78" opacity=".7" d="M572.6 207.66l3.78-.7-1.72 3.45z"/></g><g class="key-Moldova"><circle cx="296" cy="333" r="1.1" fill="#4C5C78" stroke="none" opacity=".7"/><path stroke-width=".52" opacity=".7" stroke="#4C5C78" fill="none" stroke-linecap="butt" d="M296 333l-7 19-4 9 2-5 7-9 9-17 8-18 9 4 8 10 6-37 3-10 9 2-7-3 8-6 8-4-1-2 11-6 5-3v-2h10"/><path cx="380" cy="255" r="1.72" fill="#4C5C78" opacity=".7" d="M378.28 253.28l3.44 1.72-3.44 1.72z"/></g><g class="key-Croatia"><circle cx="502" cy="181" r="1.1" fill="#4C5C78" stroke="none" opacity=".7"/><path stroke-width=".52" opacity=".7" stroke="#4C5C78" fill="none" stroke-linecap="butt" d="M502 181l-2 42h8l3 4 17-33 18 6-9 28-1 6 3 2-2 3h0v-4l4-4"/><path cx="541" cy="231" r="1.72" fill="#4C5C78" opacity=".7" d="M538.57 231l3.65-1.22-1.22 3.65z"/></g><g class="key-Gambia"><circle cx="234" cy="420" r="1.1" fill="#923E8B" stroke="none" opacity=".7"/><path stroke-width=".52" opacity=".7" stroke="#923E8B" fill="none" stroke-linecap="butt" d="M234 420l6-43 8-31-6-27"/><path cx="242" cy="319" r="1.72" fill="#923E8B" opacity=".7" d="M240.7 321.05l.93-3.73 2.42 2.99z"/></g><g class="key-Guyana"><circle cx="362" cy="332" r="1.22" fill="#932834" opacity=".8" stroke="#666" stroke-width=".5"/></g><g class="key-Kyrgyzstan"><circle cx="267" cy="365" r="1.1" fill="#2D8587" stroke="none" opacity=".7"/><path stroke-width=".52" opacity=".7" stroke="#2D8587" fill="none" stroke-linecap="butt" d="M267 365l7-13 5-5h-1l7-8 6-14-1 1 2-9 8 1 9-15 1-7-1 7 5-7-2 3 9 3 3-8 2 5 2-5h3"/><path cx="331" cy="294" r="1.72" fill="#2D8587" opacity=".7" d="M329.28 292.28l3.44 1.72-3.44 1.72z"/></g><g class="key-Malawi"><circle cx="176" cy="381" r="1.1" fill="#923E8B" stroke="none" opacity=".7"/><path stroke-width=".52" opacity=".7" stroke="#923E8B" fill="none" stroke-linecap="butt" d="M176 381l-6 11 24 12 6-16"/><path cx="200" cy="388" r="1.72" fill="#923E8B" opacity=".7" d="M197.79 389l2.81-2.61.4 3.82z"/></g><g class="key-North-Macedonia"><circle cx="430" cy="279" r="1.1" fill="#4C5C78" stroke="none" opacity=".7"/><path stroke-width=".52" opacity=".7" stroke="#4C5C78" fill="none" stroke-linecap="butt" d="M430 279l8 25-2-29 2 2 5-15 5 13 6 5 13-17-1 52 4 6 3-13-1-8 3-9 4-6 4-1"/><path cx="483" cy="284" r="1.72" fill="#4C5C78" opacity=".7" d="M480.91 282.75l3.76.83-2.92 2.5z"/></g><g class="key-Turkmenistan"><circle cx="362" cy="376" r="1.22" fill="#2D8587" opacity=".8" stroke="#666" stroke-width=".5"/></g><g class="key-Uzbekistan"><circle cx="290" cy="391" r="1.1" fill="#2D8587" stroke="none" opacity=".7"/><path stroke-width=".52" opacity=".7" stroke="#2D8587" fill="none" stroke-linecap="butt" d="M290 391l6-10 6-14 4 11"/><path cx="306" cy="378" r="1.72" fill="#2D8587" opacity=".7" d="M307.03 375.8l-.44 3.82-2.8-2.65z"/></g><g class="key-Yemen"><circle cx="342" cy="312" r="1.1" fill="#2D8587" stroke="none" opacity=".7"/><path stroke-width=".52" opacity=".7" stroke="#2D8587" fill="none" stroke-linecap="butt" d="M342 312l12 6-11 15"/><path cx="343" cy="333" r="1.72" fill="#2D8587" opacity=".7" d="M345.4 332.63l-3.42 1.76.65-3.8z"/></g><g class="key-Tajikistan"><circle cx="202" cy="369" r="1.1" fill="#2D8587" stroke="none" opacity=".7"/><path stroke-width=".52" opacity=".7" stroke="#2D8587" fill="none" stroke-linecap="butt" d="M202 369l36-23 9-17 17-6 8-19 30-2"/><path cx="302" cy="302" r="1.72" fill="#2D8587" opacity=".7" d="M300.17 300.4l3.55 1.49-3.32 1.94z"/></g><g class="key-Angola"><circle cx="312" cy="382" r="1.1" fill="#923E8B" stroke="none" opacity=".7"/><path stroke-width=".52" opacity=".7" stroke="#923E8B" fill="none" stroke-linecap="butt" d="M312 382l83-28"/><path cx="395" cy="354" r="1.72" fill="#923E8B" opacity=".7" d="M392.82 352.92l3.81.53-2.71 2.73z"/></g><g class="key-Guatemala"><circle cx="398" cy="317" r="1.1" fill="#E04E4B" stroke="none" opacity=".7"/><path stroke-width=".52" opacity=".7" stroke="#E04E4B" fill="none" stroke-linecap="butt" d="M398 317l7 5 12-7"/><path cx="417" cy="315" r="1.72" fill="#E04E4B" opacity=".7" d="M414.65 314.38l3.84-.25-2.1 3.22z"/></g><g class="key-Micronesia-__0028country__0029"><circle cx="321" cy="427" r="1.1" fill="#A8633C" stroke="none" opacity=".7"/><path stroke-width=".52" opacity=".7" stroke="#A8633C" fill="none" stroke-linecap="butt" d="M321 427l5-116-1 25"/><path cx="325" cy="336" r="1.72" fill="#A8633C" opacity=".7" d="M326.79 334.35l-1.86 3.37-1.58-3.5z"/></g><g class="key-Rwanda"><circle cx="164" cy="411" r="1.1" fill="#923E8B" stroke="none" opacity=".7"/><path stroke-width=".52" opacity=".7" stroke="#923E8B" fill="none" stroke-linecap="butt" d="M164 411l39-8 29-19 15-8h15"/><path cx="262" cy="376" r="1.72" fill="#923E8B" opacity=".7" d="M260.28 374.28l3.44 1.72-3.44 1.72z"/></g><g class="key-Seychelles"><circle cx="526" cy="245" r="1.1" fill="#923E8B" stroke="none" opacity=".7"/><path stroke-width=".52" opacity=".7" stroke="#923E8B" fill="none" stroke-linecap="butt" d="M526 245l4 5 24-14"/><path cx="554" cy="236" r="1.72" fill="#923E8B" opacity=".7" d="M551.65 235.38l3.84-.25-2.1 3.22z"/></g><g class="key-Bosnia-and-Herzegovina"><circle cx="407" cy="246" r="1.1" fill="#4C5C78" stroke="none" opacity=".7"/><path stroke-width=".52" opacity=".7" stroke="#4C5C78" fill="none" stroke-linecap="butt" d="M407 246l17-16 23-7 7 4"/><path cx="454" cy="227" r="1.72" fill="#4C5C78" opacity=".7" d="M453.36 224.65l2.13 3.2-3.84-.21z"/></g><g class="key-Haiti"><circle cx="251" cy="424" r="1.1" fill="#E04E4B" stroke="none" opacity=".7"/><path stroke-width=".52" opacity=".7" stroke="#E04E4B" fill="none" stroke-linecap="butt" d="M251 424l-7 7"/><path cx="244" cy="431" r="1.72" fill="#E04E4B" opacity=".7" d="M246.43 431l-3.65 1.22 1.22-3.65z"/></g><g class="key-Sao-Tome-and-Principe"><circle cx="271" cy="345" r="1.1" fill="#923E8B" stroke="none" opacity=".7"/><path stroke-width=".52" opacity=".7" stroke="#923E8B" fill="none" stroke-linecap="butt" d="M271 345l31 2"/><path cx="302" cy="347" r="1.72" fill="#923E8B" opacity=".7" d="M300.4 345.17l3.32 1.94-3.55 1.5z"/></g><g class="key-Timor"><circle cx="336" cy="362" r="1.1" fill="#2D8587" stroke="none" opacity=".7"/><path stroke-width=".52" opacity=".7" stroke="#2D8587" fill="none" stroke-linecap="butt" d="M336 362l108-9-42-13"/><path cx="402" cy="340" r="1.72" fill="#2D8587" opacity=".7" d="M403.13 342.15l-2.77-2.66 3.8-.62z"/></g><g class="key-Tonga"><circle cx="370" cy="281" r="1.1" fill="#A8633C" stroke="none" opacity=".7"/><path stroke-width=".52" opacity=".7" stroke="#A8633C" fill="none" stroke-linecap="butt" d="M370 281l2-1 8-4"/><path cx="380" cy="276" r="1.72" fill="#A8633C" opacity=".7" d="M377.7 275.23h3.84l-2.3 3.08z"/></g><g class="key-Cape-Verde"><circle cx="349" cy="332" r="1.1" fill="#923E8B" stroke="none" opacity=".7"/><path stroke-width=".52" opacity=".7" stroke="#923E8B" fill="none" stroke-linecap="butt" d="M349 332l40-19"/><path cx="389" cy="313" r="1.72" fill="#923E8B" opacity=".7" d="M386.7 312.18l3.85.08-2.37 3.03z"/></g><g class="key-Samoa"><circle cx="370" cy="287" r="1.1" fill="#A8633C" stroke="none" opacity=".7"/><path stroke-width=".52" opacity=".7" stroke="#A8633C" fill="none" stroke-linecap="butt" d="M370 287l21-5-5-1"/><path cx="386" cy="281" r="1.72" fill="#A8633C" opacity=".7" d="M387.35 283.02l-3.04-2.36 3.71-1z"/></g><g class="key-Serbia"><circle cx="443" cy="248" r="1.1" fill="#4C5C78" stroke="none" opacity=".7"/><path stroke-width=".52" opacity=".7" stroke="#4C5C78" fill="none" stroke-linecap="butt" d="M443 248l5 5 11 9h6l6-10 7-3 7-5-3 3 1 5 2 36 3 11-1-9h1"/><path cx="488" cy="290" r="1.72" fill="#4C5C78" opacity=".7" d="M486.28 288.28l3.44 1.72-3.44 1.72z"/></g><g class="key-Austria"><circle cx="614" cy="156" r="1.1" fill="#4C5C78" stroke="none" opacity=".7"/><path stroke-width=".52" opacity=".7" stroke="#4C5C78" fill="none" stroke-linecap="butt" d="M614 156l3-5 1 2h4l4 2 1-1h-5l2-4 3 3v2-6 4"/><path cx="627" cy="153" r="1.72" fill="#4C5C78" opacity=".7" d="M628.72 151.28l-1.72 3.44-1.72-3.44z"/></g><g class="key-Belgium"><circle cx="609" cy="164" r="1.1" fill="#4C5C78" stroke="none" opacity=".7"/><path stroke-width=".52" opacity=".7" stroke="#4C5C78" fill="none" stroke-linecap="butt" d="M609 164l3-5 2-1 2 1 3-1v-2l-3 1h2v1-3l-1 2 2-2h1"/><path cx="620" cy="155" r="1.72" fill="#4C5C78" opacity=".7" d="M618.28 153.28l3.44 1.72-3.44 1.72z"/></g><g class="key-Benin"><circle cx="254" cy="366" r="1.1" fill="#923E8B" stroke="none" opacity=".7"/><path stroke-width=".52" opacity=".7" stroke="#923E8B" fill="none" stroke-linecap="butt" d="M254 366l5 6 11 42"/><path cx="270" cy="414" r="1.72" fill="#923E8B" opacity=".7" d="M271.23 411.9l-.8 3.76-2.53-2.89z"/></g><g class="key-Bhutan"><circle cx="356" cy="328" r="1.1" fill="#2D8587" stroke="none" opacity=".7"/><path stroke-width=".52" opacity=".7" stroke="#2D8587" fill="none" stroke-linecap="butt" d="M356 328l29-14 30-22 24-5"/><path cx="439" cy="287" r="1.72" fill="#2D8587" opacity=".7" d="M436.97 285.67l3.71.98-3.01 2.38z"/></g><g class="key-Chad"><circle cx="214" cy="390" r="1.1" fill="#923E8B" stroke="none" opacity=".7"/><path stroke-width=".52" opacity=".7" stroke="#923E8B" fill="none" stroke-linecap="butt" d="M214 390l48-15"/><path cx="262" cy="375" r="1.72" fill="#923E8B" opacity=".7" d="M259.85 373.87l3.8.62-2.78 2.66z"/></g><g class="key-Denmark"><circle cx="622" cy="152" r="1.1" fill="#4C5C78" stroke="none" opacity=".7"/><path stroke-width=".52" opacity=".7" stroke="#4C5C78" fill="none" stroke-linecap="butt" d="M622 152l3-2 2-1 4-2h1-2l-6 3 2-4 1 1v1h0l1-1 1-2"/><path cx="629" cy="145" r="1.72" fill="#4C5C78" opacity=".7" d="M626.7 145.77l3.07-2.3v3.84z"/></g><g class="key-Fiji"><circle cx="415" cy="304" r="1.1" fill="#A8633C" stroke="none" opacity=".7"/><path stroke-width=".52" opacity=".7" stroke="#A8633C" fill="none" stroke-linecap="butt" d="M415 304l3-8 9-6"/><path cx="427" cy="290" r="1.72" fill="#A8633C" opacity=".7" d="M424.61 289.52l3.82-.47-1.9 3.34z"/></g><g class="key-Finland"><circle cx="605" cy="161" r="1.1" fill="#4C5C78" stroke="none" opacity=".7"/><path stroke-width=".52" opacity=".7" stroke="#4C5C78" fill="none" stroke-linecap="butt" d="M605 161l4-4 3-2h4l6-2v-1l-11-2h3l3-1-2-1-2 1h-1v-1"/><path cx="612" cy="148" r="1.72" fill="#4C5C78" opacity=".7" d="M610.28 149.72l1.72-3.44 1.72 3.44z"/></g><g class="key-France"><circle cx="601" cy="166" r="1.1" fill="#4C5C78" stroke="none" opacity=".7"/><path stroke-width=".52" opacity=".7" stroke="#4C5C78" fill="none" stroke-linecap="butt" d="M601 166l2-2h1l2 1 2-10v1l-4 1h1l2-1h0v-1h1"/><path cx="608" cy="155" r="1.72" fill="#4C5C78" opacity=".7" d="M606.28 153.28l3.44 1.72-3.44 1.72z"/></g><g class="key-Greece"><circle cx="574" cy="196" r="1.1" fill="#4C5C78" stroke="none" opacity=".7"/><path stroke-width=".52" opacity=".7" stroke="#4C5C78" fill="none" stroke-linecap="butt" d="M574 196l6-2v1l6 1 3-4v-3h-6l-6 12-11 19-8 13-3 2h2"/><path cx="557" cy="235" r="1.72" fill="#4C5C78" opacity=".7" d="M555.28 233.28l3.44 1.72-3.44 1.72z"/></g><g class="key-Iceland"><circle cx="601" cy="153" r="1.1" fill="#4C5C78" stroke="none" opacity=".7"/><path stroke-width=".52" opacity=".7" stroke="#4C5C78" fill="none" stroke-linecap="butt" d="M601 153l8-1 5-1 3-7 7-5h0l-8 9-4 5 2 2 1-2 3-5 2-1"/><path cx="620" cy="147" r="1.72" fill="#4C5C78" opacity=".7" d="M617.7 146.23h3.84l-2.3 3.08z"/></g><g class="key-Ireland"><circle cx="623" cy="170" r="1.1" fill="#4C5C78" stroke="none" opacity=".7"/><path stroke-width=".52" opacity=".7" stroke="#4C5C78" fill="none" stroke-linecap="butt" d="M623 170l5-1 4-4 3-6 3-2-7 5-7 6 2 3 3 3-1-1 1 1 9-8 25-3"/><path cx="663" cy="163" r="1.72" fill="#4C5C78" opacity=".7" d="M661.09 161.5l3.62 1.3-3.21 2.11z"/></g><g class="key-Italy"><circle cx="606" cy="182" r="1.1" fill="#4C5C78" stroke="none" opacity=".7"/><path stroke-width=".52" opacity=".7" stroke="#4C5C78" fill="none" stroke-linecap="butt" d="M606 182l1-3 1 2 2-3 1-2-2 3h-7l1 5 1 1-4 4-3 2h-1l1 2"/><path cx="597" cy="193" r="1.72" fill="#4C5C78" opacity=".7" d="M597.77 190.7v3.84l-3.08-2.3z"/></g><g class="key-Kosovo"><circle cx="400" cy="291" r="1.1" fill="#4C5C78" stroke="none" opacity=".7"/><path stroke-width=".52" opacity=".7" stroke="#4C5C78" fill="none" stroke-linecap="butt" d="M400 291l9 5 4-1 12-5 3-1 5-7 2-11 3-7 1 5 6-6h4l4-1"/><path cx="453" cy="262" r="1.72" fill="#4C5C78" opacity=".7" d="M450.91 260.75l3.76.83-2.92 2.5z"/></g><g class="key-Luxembourg"><circle cx="702" cy="135" r="1.1" fill="#4C5C78" stroke="none" opacity=".7"/><path stroke-width=".52" opacity=".7" stroke="#4C5C78" fill="none" stroke-linecap="butt" d="M702 135l2-2 2-1h4l8-1-4 4-7-2h3l1 5-4 2 2-2 4-3v8"/><path cx="713" cy="143" r="1.72" fill="#4C5C78" opacity=".7" d="M714.72 141.28l-1.72 3.44-1.72-3.44z"/></g><g class="key-Maldives"><circle cx="462" cy="320" r="1.1" fill="#2D8587" stroke="none" opacity=".7"/><path stroke-width=".52" opacity=".7" stroke="#2D8587" fill="none" stroke-linecap="butt" d="M462 320l14-10"/><path cx="476" cy="310" r="1.72" fill="#2D8587" opacity=".7" d="M473.6 309.6l3.8-.6-1.8 3.4z"/></g><g class="key-Norway"><circle cx="661" cy="145" r="1.1" fill="#4C5C78" stroke="none" opacity=".7"/><path stroke-width=".52" opacity=".7" stroke="#4C5C78" fill="none" stroke-linecap="butt" d="M661 145l4 1 2-2 2 1 2-9h-1l-4-2v-1l-1-3 2-1v-3l1 1h1"/><path cx="669" cy="127" r="1.72" fill="#4C5C78" opacity=".7" d="M667.28 125.28l3.44 1.72-3.44 1.72z"/></g><g class="key-Portugal"><circle cx="565" cy="217" r="1.1" fill="#4C5C78" stroke="none" opacity=".7"/><path stroke-width=".52" opacity=".7" stroke="#4C5C78" fill="none" stroke-linecap="butt" d="M565 217l2-3 1-3 1-1 3-3v1l-4-4 3 2-2 5-5 8v2l1-4 3-5"/><path cx="568" cy="212" r="1.72" fill="#4C5C78" opacity=".7" d="M565.64 212.59l3.24-2.06-.29 3.83z"/></g><g class="key-Sierra-Leone"><circle cx="195" cy="380" r="1.1" fill="#923E8B" stroke="none" opacity=".7"/><path stroke-width=".52" opacity=".7" stroke="#923E8B" fill="none" stroke-linecap="butt" d="M195 380l21-16"/><path cx="216" cy="364" r="1.72" fill="#923E8B" opacity=".7" d="M213.59 363.67l3.78-.71-1.7 3.45z"/></g><g class="key-Spain"><circle cx="588" cy="193" r="1.1" fill="#4C5C78" stroke="none" opacity=".7"/><path stroke-width=".52" opacity=".7" stroke="#4C5C78" fill="none" stroke-linecap="butt" d="M588 193l2 2 2-3 3 3 2-12h0l-6 3v3l-2 6-3 3-2 6h2l4-3"/><path cx="590" cy="201" r="1.72" fill="#4C5C78" opacity=".7" d="M587.6 200.66l3.78-.7-1.72 3.45z"/></g><g class="key-Sweden"><circle cx="611" cy="164" r="1.1" fill="#4C5C78" stroke="none" opacity=".7"/><path stroke-width=".52" opacity=".7" stroke="#4C5C78" fill="none" stroke-linecap="butt" d="M611 164l4-1 3 4 5-8 3-2-2 1-7-1 6-1h2l-1-1v1l2-4h4"/><path cx="630" cy="152" r="1.72" fill="#4C5C78" opacity=".7" d="M628.28 150.28l3.44 1.72-3.44 1.72z"/></g><g class="key-Comoros"><circle cx="235" cy="326" r="1.1" fill="#923E8B" stroke="none" opacity=".7"/><path stroke-width=".52" opacity=".7" stroke="#923E8B" fill="none" stroke-linecap="butt" d="M235 326l-3 14"/><path cx="232" cy="340" r="1.72" fill="#923E8B" opacity=".7" d="M234.04 338.68l-2.4 3-.96-3.72z"/></g><g class="key-Cyprus"><circle cx="592" cy="162" r="1.1" fill="#4C5C78" stroke="none" opacity=".7"/><path stroke-width=".52" opacity=".7" stroke="#4C5C78" fill="none" stroke-linecap="butt" d="M592 162l3-6 3-5h3l2 1-6 3-1-3-3 3-5 7-7 5v6l3-4"/><path cx="584" cy="169" r="1.72" fill="#4C5C78" opacity=".7" d="M581.6 169.34l3.43-1.72-.69 3.79z"/></g><g class="key-Namibia"><circle cx="417" cy="356" r="1.1" fill="#923E8B" stroke="none" opacity=".7"/><path stroke-width=".52" opacity=".7" stroke="#923E8B" fill="none" stroke-linecap="butt" d="M417 356l19-13 19-13"/><path cx="455" cy="330" r="1.72" fill="#923E8B" opacity=".7" d="M452.6 329.55l3.82-.52-1.87 3.36z"/></g><g class="key-Netherlands"><circle cx="622" cy="160" r="1.1" fill="#4C5C78" stroke="none" opacity=".7"/><path stroke-width=".52" opacity=".7" stroke="#4C5C78" fill="none" stroke-linecap="butt" d="M622 160l2-3 4-4 4-4 2 1-5-1 1 1h1-2v3h1l2-5"/><path cx="632" cy="148" r="1.72" fill="#4C5C78" opacity=".7" d="M629.76 148.96l2.88-2.56.32 3.84z"/></g><g class="key-Palestine"><circle cx="355" cy="272" r="1.1" fill="#2D8587" stroke="none" opacity=".7"/><path stroke-width=".52" opacity=".7" stroke="#2D8587" fill="none" stroke-linecap="butt" d="M355 272l9-1-9-5-5 12 5-14v1l5-2 2 6"/><path cx="362" cy="269" r="1.72" fill="#2D8587" opacity=".7" d="M363.09 266.82l-.55 3.81-2.72-2.72z"/></g><g class="key-United-Kingdom"><circle cx="604" cy="177" r="1.1" fill="#4C5C78" stroke="none" opacity=".7"/><path stroke-width=".52" opacity=".7" stroke="#4C5C78" fill="none" stroke-linecap="butt" d="M604 177l2-2 2-6 2-2-1 3h-6l1-1 1 1v-1h2l3-1 1-1"/><path cx="611" cy="167" r="1.72" fill="#4C5C78" opacity=".7" d="M608.57 167l3.65-1.22-1.22 3.65z"/></g><g class="key-Congo"><circle cx="370" cy="385" r="1.1" fill="#923E8B" stroke="none" opacity=".7"/><path stroke-width=".52" opacity=".7" stroke="#923E8B" fill="none" stroke-linecap="butt" d="M370 385l10-12"/><path cx="380" cy="373" r="1.72" fill="#923E8B" opacity=".7" d="M377.58 373.22l3.52-1.54-.88 3.74z"/></g><g class="key-Democratic-Republic-of-Congo"><circle cx="131" cy="462" r="1.1" fill="#923E8B" stroke="none" opacity=".7"/><path stroke-width=".52" opacity=".7" stroke="#923E8B" fill="none" stroke-linecap="butt" d="M131 462l20-45"/><path cx="151" cy="417" r="1.72" fill="#923E8B" opacity=".7" d="M148.73 417.87l2.97-2.44.17 3.84z"/></g><g class="key-Gabon"><circle cx="515" cy="312" r="1.1" fill="#923E8B" stroke="none" opacity=".7"/><path stroke-width=".52" opacity=".7" stroke="#923E8B" fill="none" stroke-linecap="butt" d="M515 312l-2-25"/><path cx="513" cy="287" r="1.72" fill="#923E8B" opacity=".7" d="M511.42 288.85l1.44-3.56 2 3.29z"/></g><g class="key-Montenegro"><circle cx="474" cy="247" r="1.1" fill="#4C5C78" stroke="none" opacity=".7"/><path stroke-width=".52" opacity=".7" stroke="#4C5C78" fill="none" stroke-linecap="butt" d="M474 247l9-1 8-11 8-6-8 2 3 4 4 5-3 8 3-1 2-10"/><path cx="500" cy="237" r="1.72" fill="#4C5C78" opacity=".7" d="M497.98 238.35l2.36-3.04 1 3.71z"/></g><g class="key-Solomon-Islands"><circle cx="250" cy="376" r="1.1" fill="#A8633C" stroke="none" opacity=".7"/><path stroke-width=".52" opacity=".7" stroke="#A8633C" fill="none" stroke-linecap="butt" d="M250 376l28-33"/><path cx="278" cy="343" r="1.72" fill="#A8633C" opacity=".7" d="M275.58 343.2l3.53-1.51-.91 3.73z"/></g><g class="key-Kiribati"><circle cx="265" cy="324" r="1.22" fill="#A8633C" opacity=".8" stroke="#666" stroke-width=".5"/></g><g class="key-Malta"><circle cx="568" cy="183" r="1.1" fill="#4C5C78" stroke="none" opacity=".7"/><path stroke-width=".52" opacity=".7" stroke="#4C5C78" fill="none" stroke-linecap="butt" d="M568 183l4-3 4-4-4 4 3-3 1-2 2-1 4-6 7-3h7"/><path cx="596" cy="165" r="1.72" fill="#4C5C78" opacity=".7" d="M594.28 163.28l3.44 1.72-3.44 1.72z"/></g><g class="key-South-Korea"><circle cx="568" cy="188" r="1.1" fill="#2D8587" stroke="none" opacity=".7"/><path stroke-width=".52" opacity=".7" stroke="#2D8587" fill="none" stroke-linecap="butt" d="M568 188l8-1 7-2 5-4"/><path cx="588" cy="181" r="1.72" fill="#2D8587" opacity=".7" d="M585.58 180.73l3.76-.8-1.6 3.49z"/></g><g class="key-Switzerland"><circle cx="650" cy="149" r="1.1" fill="#4C5C78" stroke="none" opacity=".7"/><path stroke-width=".52" opacity=".7" stroke="#4C5C78" fill="none" stroke-linecap="butt" d="M650 149l4-1 1-2-4-2h2l1-2v-4l1 2h1v1"/><path cx="656" cy="141" r="1.72" fill="#4C5C78" opacity=".7" d="M657.72 139.28l-1.72 3.44-1.72-3.44z"/></g><g class="key-Togo"><circle cx="211" cy="378" r="1.1" fill="#923E8B" stroke="none" opacity=".7"/><path stroke-width=".52" opacity=".7" stroke="#923E8B" fill="none" stroke-linecap="butt" d="M211 378l4 12 10-5"/><path cx="225" cy="385" r="1.72" fill="#923E8B" opacity=".7" d="M222.7 384.23h3.84l-2.3 3.08z"/></g><g class="key-Uruguay"><circle cx="490" cy="262" r="1.1" fill="#932834" stroke="none" opacity=".7"/><path stroke-width=".52" opacity=".7" stroke="#932834" fill="none" stroke-linecap="butt" d="M490 262l7-4 7-10 5-2 8-3 5-9 4-3 5-2 3-4v-1h2l2-5"/><path cx="538" cy="219" r="1.72" fill="#932834" opacity=".7" d="M535.76 219.96l2.88-2.56.32 3.84z"/></g><g class="key-Iraq"><circle cx="472" cy="296" r="1.1" fill="#2D8587" stroke="none" opacity=".7"/><path stroke-width=".52" opacity=".7" stroke="#2D8587" fill="none" stroke-linecap="butt" d="M472 296l27-1"/><path cx="499" cy="295" r="1.72" fill="#2D8587" opacity=".7" d="M497.22 293.34l3.5 1.6-3.38 1.84z"/></g><g class="key-Liberia"><circle cx="142" cy="395" r="1.1" fill="#923E8B" stroke="none" opacity=".7"/><path stroke-width=".52" opacity=".7" stroke="#923E8B" fill="none" stroke-linecap="butt" d="M142 395l24-39-8 4"/><path cx="158" cy="360" r="1.72" fill="#923E8B" opacity=".7" d="M160.3 360.77h-3.84l2.3-3.08z"/></g><g class="key-Mauritius"><circle cx="495" cy="263" r="1.1" fill="#923E8B" stroke="none" opacity=".7"/><path stroke-width=".52" opacity=".7" stroke="#923E8B" fill="none" stroke-linecap="butt" d="M495 263l22-2"/><path cx="517" cy="261" r="1.72" fill="#923E8B" opacity=".7" d="M515.13 259.44l3.58 1.4-3.27 2.03z"/></g><g class="key-Japan"><circle cx="604" cy="179" r="1.22" fill="#2D8587" opacity=".8" stroke="#666" stroke-width=".5"/></g><g class="key-South-Sudan"><circle cx="330" cy="391" r="1.22" fill="#923E8B" opacity=".8" stroke="#666" stroke-width=".5"/></g><g class="key-Sudan"><circle cx="329" cy="329" r="1.22" fill="#923E8B" opacity=".8" stroke="#666" stroke-width=".5"/></g><g class="key-Tuvalu"><circle cx="316" cy="297" r="1.22" fill="#A8633C" opacity=".8" stroke="#666" stroke-width=".5"/></g><g class="key-Vanuatu"><circle cx="315" cy="326" r="1.22" fill="#A8633C" opacity=".8" stroke="#666" stroke-width=".5"/></g><g class="key-Zimbabwe"><circle cx="249" cy="336" r="1.22" fill="#923E8B" opacity=".8" stroke="#666" stroke-width=".5"/></g><g class="key-Djibouti"><circle cx="305" cy="349" r="1.22" fill="#923E8B" opacity=".8" stroke="#666" stroke-width=".5"/></g><g class="key-Lebanon"><circle cx="502" cy="211" r="1.22" fill="#2D8587" opacity=".8" stroke="#666" stroke-width=".5"/></g><g class="key-Myanmar"><circle cx="377" cy="310" r="1.22" fill="#2D8587" opacity=".8" stroke="#666" stroke-width=".5"/></g><g class="backgroundLabels" fill="#333" font-size="11" font-weight="400"><text x="495" y="293.5" fill="#fff" stroke="#fff" stroke-linecap="round" stroke-linejoin="round" stroke-width=".25em">Brazil</text><text x="495" y="293.5" fill="#932834">Brazil</text><text x="550.42" y="232.02" fill="#fff" stroke="#fff" stroke-linecap="round" stroke-linejoin="round" stroke-width=".25em">Chile</text><text x="550.42" y="232.02" fill="#932834">Chile</text><text x="493.8" y="271.75" fill="#fff" stroke="#fff" stroke-linecap="round" stroke-linejoin="round" stroke-width=".25em">China</text><text x="493.8" y="271.75" fill="#2D8587">China</text><text x="369" y="351.5" fill="#fff" stroke="#fff" stroke-linecap="round" stroke-linejoin="round" stroke-width=".25em">Honduras</text><text x="369" y="351.5" fill="#E04E4B">Honduras</text><text x="530.94" y="258.26" fill="#fff" stroke="#fff" stroke-linecap="round" stroke-linejoin="round" stroke-width=".25em">Iran</text><text x="530.94" y="258.26" fill="#2D8587">Iran</text><text x="437.77" y="277.84" fill="#fff" stroke="#fff" stroke-linecap="round" stroke-linejoin="round" stroke-width=".25em">Jamaica</text><text x="437.77" y="277.84" fill="#E04E4B">Jamaica</text><text x="624.54" y="171.04" fill="#fff" stroke="#fff" stroke-linecap="round" stroke-linejoin="round" stroke-width=".25em">Canada</text><text x="624.54" y="171.04" fill="#E04E4B">Canada</text><text x="251.25" y="349.16" fill="#fff" stroke="#fff" stroke-linecap="round" stroke-linejoin="round" stroke-width=".25em">Guinea</text><text x="251.25" y="349.16" fill="#923E8B">Guinea</text><text x="376.34" y="304.52" fill="#fff" stroke="#fff" stroke-linecap="round" stroke-linejoin="round" stroke-width=".25em">Pakistan</text><text x="376.34" y="304.52" fill="#2D8587">Pakistan</text><text x="283.74" y="369.08" fill="#fff" stroke="#fff" stroke-linecap="round" stroke-linejoin="round" stroke-width=".25em">Senegal</text><text x="283.74" y="369.08" fill="#923E8B">Senegal</text><text x="343.16" y="423.27" fill="#fff" stroke="#fff" stroke-linecap="round" stroke-linejoin="round" stroke-width=".25em">Zambia</text><text x="343.16" y="423.27" fill="#923E8B">Zambia</text><text x="333.97" y="324.45" fill="#fff" stroke="#fff" stroke-linecap="round" stroke-linejoin="round" stroke-width=".25em">Bangladesh</text><text x="333.97" y="324.45" fill="#2D8587">Bangladesh</text><text x="168.54" y="401.04" fill="#fff" stroke="#fff" stroke-linecap="round" stroke-linejoin="round" stroke-width=".25em">Burundi</text><text x="168.54" y="401.04" fill="#923E8B">Burundi</text><text x="175.65" y="429.74" fill="#fff" stroke="#fff" stroke-linecap="round" stroke-linejoin="round" stroke-width=".25em">Central African Republic</text><text x="175.65" y="429.74" fill="#923E8B">Central African Republic</text><text x="595.12" y="206.1" fill="#fff" stroke="#fff" stroke-linecap="round" stroke-linejoin="round" stroke-width=".25em">Israel</text><text x="595.12" y="206.1" fill="#2D8587">Israel</text><text x="412.99" y="254.53" fill="#fff" stroke="#fff" stroke-linecap="round" stroke-linejoin="round" stroke-width=".25em">Jordan</text><text x="412.99" y="254.53" fill="#2D8587">Jordan</text><text x="384" y="385.81" fill="#fff" stroke="#fff" stroke-linecap="round" stroke-linejoin="round" stroke-width=".25em">Nigeria</text><text x="384" y="385.81" fill="#923E8B">Nigeria</text><text x="510.63" y="321.04" fill="#fff" stroke="#fff" stroke-linecap="round" stroke-linejoin="round" stroke-width=".25em">Venezuela</text><text x="510.63" y="321.04" fill="#932834">Venezuela</text><text x="520.54" y="205.46" fill="#fff" stroke="#fff" stroke-linecap="round" stroke-linejoin="round" stroke-width=".25em">Belarus</text><text x="520.54" y="205.46" fill="#4C5C78">Belarus</text><text x="374.84" y="286.8" fill="#fff" stroke="#fff" stroke-linecap="round" stroke-linejoin="round" stroke-width=".25em">Nicaragua</text><text x="374.84" y="286.8" fill="#E04E4B">Nicaragua</text><text x="183.89" y="365.55" fill="#fff" stroke="#fff" stroke-linecap="round" stroke-linejoin="round" stroke-width=".25em">Niger</text><text x="183.89" y="365.55" fill="#923E8B">Niger</text><text x="482.91" y="350.57" fill="#fff" stroke="#fff" stroke-linecap="round" stroke-linejoin="round" stroke-width=".25em">South Africa</text><text x="482.91" y="350.57" fill="#923E8B">South Africa</text><text x="271.96" y="321.97" fill="#fff" stroke="#fff" stroke-linecap="round" stroke-linejoin="round" stroke-width=".25em">Nepal</text><text x="271.96" y="321.97" fill="#2D8587">Nepal</text><text x="202.31" y="314.12" fill="#fff" stroke="#fff" stroke-linecap="round" stroke-linejoin="round" stroke-width=".25em">Gambia</text><text x="202.31" y="314.12" fill="#923E8B">Gambia</text><text x="201.76" y="383.32" fill="#fff" stroke="#fff" stroke-linecap="round" stroke-linejoin="round" stroke-width=".25em">Malawi</text><text x="201.76" y="383.32" fill="#923E8B">Malawi</text><text x="307.71" y="388.2" fill="#fff" stroke="#fff" stroke-linecap="round" stroke-linejoin="round" stroke-width=".25em">Uzbekistan</text><text x="307.71" y="388.2" fill="#2D8587">Uzbekistan</text><text x="305.06" y="342.53" fill="#fff" stroke="#fff" stroke-linecap="round" stroke-linejoin="round" stroke-width=".25em">Yemen</text><text x="305.06" y="342.53" fill="#2D8587">Yemen</text><text x="306.99" y="301.67" fill="#fff" stroke="#fff" stroke-linecap="round" stroke-linejoin="round" stroke-width=".25em">Tajikistan</text><text x="306.99" y="301.67" fill="#2D8587">Tajikistan</text><text x="631.24" y="140.53" fill="#fff" stroke="#fff" stroke-linecap="round" stroke-linejoin="round" stroke-width=".25em">Denmark</text><text x="631.24" y="140.53" fill="#4C5C78">Denmark</text><text x="459.13" y="327.18" fill="#fff" stroke="#fff" stroke-linecap="round" stroke-linejoin="round" stroke-width=".25em">Namibia</text><text x="459.13" y="327.18" fill="#923E8B">Namibia</text><text x="120.42" y="367.74" fill="#fff" stroke="#fff" stroke-linecap="round" stroke-linejoin="round" stroke-width=".25em">Liberia</text><text x="120.42" y="367.74" fill="#923E8B">Liberia</text></g></g><g class="ScatterColorLegend clickable" cursor="pointer"><g class="legendMark"><path fill="#923E8B" d="M738.09 128.6h9v9h-9z"/><text font-size="12.6" x="752.1" y="136.9"><tspan x="752.09" y="136.88">Africa</tspan></text></g><g class="legendMark"><path fill="#2D8587" d="M738.09 146.2h9v9h-9z"/><text font-size="12.6" x="752.1" y="154.5"><tspan x="752.09" y="154.48">Asia</tspan></text></g><g class="legendMark"><path fill="#4C5C78" d="M738.09 163.8h9v9h-9z"/><text font-size="12.6" x="752.1" y="172.1"><tspan x="752.09" y="172.08">Europe</tspan></text></g><g class="legendMark"><path fill="#E04E4B" d="M738.09 181.4h9v9h-9z"/><text font-size="12.6" x="752.1" y="189.7"><tspan x="752.09" y="189.68">North America</tspan></text></g><g class="legendMark"><path fill="#A8633C" d="M738.09 199h9v9h-9z"/><text font-size="12.6" x="752.1" y="207.3"><tspan x="752.09" y="207.28">Oceania</tspan></text></g><g class="legendMark"><path fill="#932834" d="M738.09 216.6h9v9h-9z"/><text font-size="12.6" x="752.1" y="224.9"><tspan x="752.09" y="224.88">South America</tspan></text></g></g><path stroke="#ccc" d="M738.09 234.4H830"/><g class="clickable"><g class="ConnectedScatterLegend"><text font-size="12.6" x="738.1" y="253.5" fill="#333"><tspan x="738.09" y="253.48">1990</tspan></text><text font-size="12.6" x="806.8" y="253.5" fill="#333"><tspan x="806.78" y="253.48">2017</tspan></text><path stroke="#666" stroke-width="1" d="M771.32 249.2h30.46"/><circle cx="771.32" cy="249.2" r="2" fill="#666" stroke="#ccc" stroke-width=".2"/><circle cx="781.47" cy="249.2" r="2" fill="#666" stroke="#ccc" stroke-width=".2"/><circle cx="791.62" cy="249.2" r="2" fill="#666" stroke="#ccc" stroke-width=".2"/><path cx="801.78" cy="249.2" r="3" fill="#666" stroke="#ccc" stroke-width=".2" d="M798.78 246.2l6 3-6 3z"/></g></g></g><g class="SourcesFooter" fill="#777"><g fill="#777"><text font-size="12.6" x="15" y="582.5"><tspan x="15" y="582.48">Source: PovcalNet (2019), World Bank</tspan></text></g><text font-size="12.6" x="796.4" y="582.5"><tspan x="796.44" y="582.48"><a class="cclogo" href="http://creativecommons.org/licenses/by/4.0/deed.en_US" target="_blank" fill="#777">CC BY</a></tspan></text></g></svg>