<svg xmlns="http://www.w3.org/2000/svg" version="1.1" style="background-color:#fff;-webkit-font-smoothing:antialiased" width="850" height="600" viewBox="0 0 850 600" font-family="Lato,'Helvetica Neue',Helvetica,Arial,sans-serif" font-size="18" text-rendering="optimizeLegibility"><g class="HeaderView"><g transform="matrix(.95 0 0 .95 739 15)"><svg width="102" height="37" viewBox="0 0 102 37" fill="none" xmlns="http://www.w3.org/2000/svg"><path d="M47 0H0v37h47V0z" fill="#EA4148"/><path d="M3.78 11.85c0-3.55 2.67-5.6 5.68-5.6a4.63 4.63 0 013.09 1.1l-1.7 2.36c-.31-.32-.74-.5-1.18-.52-1.36 0-2.16 1.03-2.16 2.66 0 1.62.89 2.65 2.03 2.65a2.93 2.93 0 001.7-.69l1.4 2.4a5.29 5.29 0 01-3.52 1.24c-3 0-5.34-2.05-5.34-5.6z" fill="#fff"/><path d="M18.85 11.85c0-1.63-.42-2.66-1.52-2.66s-1.52 1.03-1.52 2.66c0 1.62.42 2.65 1.52 2.65s1.52-1.03 1.52-2.65zm-6.77 0c0-3.55 2.54-5.6 5.25-5.6 2.7 0 5.25 2.05 5.25 5.6s-2.54 5.6-5.25 5.6-5.25-2.05-5.25-5.6M23.34 6.5h2.97l.25 1.84h.09c.78-1.46 1.97-2.1 3-2.1.45-.02.9.05 1.32.22l-.6 3.16c-.38-.1-.78-.16-1.18-.17-.76 0-1.7.47-2.2 1.8v5.94h-3.65V6.5zm13.64 4.06c0-.81-.34-1.54-1.44-1.54-.8 0-1.49.47-1.7 1.54h3.14zm-6.6 1.29c0-3.47 2.49-5.6 5.07-5.6 3.13 0 4.62 2.3 4.62 5.17 0 .52-.05 1.03-.15 1.54h-6.04c.34 1.28 1.27 1.71 2.46 1.71a4.3 4.3 0 002.16-.64l1.18 2.18a7.08 7.08 0 01-3.85 1.24c-3.09 0-5.46-2.05-5.46-5.6" fill="#fff"/><path d="M10.43 23.87c0-.81-.34-1.54-1.44-1.54-.8 0-1.48.47-1.69 1.54h3.13zm-6.6 1.28c0-3.46 2.5-5.6 5.08-5.6 3.13 0 4.61 2.3 4.61 5.18 0 .51-.05 1.03-.15 1.54H7.34c.34 1.28 1.27 1.7 2.46 1.7.76-.01 1.5-.23 2.16-.63l1.18 2.18a7.08 7.08 0 01-3.85 1.24c-3.1 0-5.46-2.06-5.46-5.6m10.07-.01c0-3.55 2.67-5.6 5.68-5.6a4.63 4.63 0 013.09 1.11l-1.7 2.35c-.32-.31-.74-.5-1.18-.51-1.36 0-2.16 1.03-2.16 2.65 0 1.63.89 2.66 2.03 2.66a2.93 2.93 0 001.7-.69l1.39 2.4a5.29 5.29 0 01-3.51 1.24c-3 0-5.34-2.06-5.34-5.6" fill="#1A1818"/><path d="M28.97 25.15c0-1.62-.42-2.65-1.52-2.65s-1.52 1.03-1.52 2.65c0 1.63.42 2.66 1.52 2.66s1.52-1.03 1.52-2.66zm-6.77 0c0-3.55 2.54-5.6 5.25-5.6 2.7 0 5.25 2.05 5.25 5.6s-2.54 5.6-5.25 5.6-5.25-2.04-5.25-5.6m11.34-5.35h2.97l.25 1.29h.09a4.76 4.76 0 013.34-1.54c2.33 0 3.3 1.71 3.3 4.36v6.6h-3.64v-6.13c0-1.37-.34-1.7-1.06-1.7-.67 0-1.05.3-1.6.8v7.02h-3.65V19.8z" fill="#1A1818"/><path fill="#fff" d="M48 0h54v37H48z"/><path d="M48 0h53.93v33H48V0z" fill="#002147"/><path d="M58.42 10.86c0 .61-.1 1.18-.3 1.7a3.83 3.83 0 01-2.15 2.21c-.5.21-1.07.32-1.7.32-.6 0-1.17-.1-1.68-.32a3.9 3.9 0 01-2.15-2.21c-.2-.52-.3-1.09-.3-1.7 0-.61.1-1.18.3-1.7a3.93 3.93 0 012.15-2.22 4.38 4.38 0 011.69-.31c.62 0 1.18.1 1.69.31a3.79 3.79 0 012.15 2.22c.2.52.3 1.09.3 1.7zm-1.38 0c0-.48-.06-.9-.2-1.28A2.38 2.38 0 0055.43 8a2.97 2.97 0 00-1.14-.21c-.42 0-.8.07-1.15.21-.34.14-.63.35-.87.61a2.8 2.8 0 00-.56.97c-.13.38-.2.8-.2 1.28s.07.9.2 1.29a2.46 2.46 0 001.43 1.57c.35.14.73.2 1.15.2.42 0 .8-.06 1.15-.2a2.4 2.4 0 001.42-1.57c.13-.38.2-.81.2-1.29zm7.14-1.72V15h-.74c-.17 0-.27-.08-.32-.24l-.1-.54a3.42 3.42 0 01-.81.63 2.3 2.3 0 01-1.06.24c-.32 0-.6-.05-.85-.16a1.72 1.72 0 01-1-1.15 3.1 3.1 0 01-.12-.91V9.14h1.24v3.73c0 .4.09.7.27.92.18.22.46.32.83.32.27 0 .53-.06.76-.18.24-.13.46-.3.67-.52V9.13h1.23zm2.33 1.08c.18-.37.4-.66.66-.87.27-.22.58-.32.94-.32a1.34 1.34 0 01.66.17l-.09.93a.26.26 0 01-.07.14.2.2 0 01-.13.03c-.06 0-.14 0-.25-.03a1.62 1.62 0 00-.8.04c-.13.05-.25.13-.35.22-.1.1-.2.21-.28.35-.08.14-.15.3-.22.47V15h-1.24V9.13h.72c.13 0 .22.03.27.08.05.05.08.13.1.25l.08.76zm16-3.5L79.94 15h-1.21l-1.95-5.95a4.7 4.7 0 01-.12-.46 3.32 3.32 0 01-.13.46L74.57 15h-1.22l-2.57-8.28h1.13c.11 0 .2.03.28.09.08.05.14.12.16.22l1.56 5.3a6.11 6.11 0 01.16.8 10 10 0 01.2-.8l1.78-5.3a.48.48 0 01.16-.21.4.4 0 01.28-.1h.4c.11 0 .21.03.28.1.08.05.13.12.17.21l1.77 5.3.1.37.1.4a59.35 59.35 0 00.16-.76L81 7.03a.4.4 0 01.16-.22.49.49 0 01.3-.09h1.04zm2.41 2.32c.44 0 .83.07 1.18.22a2.49 2.49 0 011.47 1.55c.13.37.2.79.2 1.25 0 .47-.07.88-.2 1.26-.14.37-.33.69-.58.95a2.87 2.87 0 01-2.07.82c-.43 0-.83-.07-1.18-.22a2.55 2.55 0 01-1.47-1.55c-.14-.38-.2-.8-.2-1.26 0-.46.06-.88.2-1.25a2.55 2.55 0 011.47-1.55c.35-.15.75-.22 1.18-.22zm0 5.08c.53 0 .92-.18 1.18-.53.26-.36.4-.86.4-1.52s-.14-1.17-.4-1.53c-.26-.36-.65-.54-1.18-.54-.53 0-.93.18-1.2.54-.25.36-.38.87-.38 1.53s.13 1.16.39 1.52c.26.35.66.53 1.2.53zm4.86-3.9c.18-.37.4-.66.67-.87.26-.22.57-.32.93-.32a1.34 1.34 0 01.66.17l-.09.93a.26.26 0 01-.07.14.2.2 0 01-.13.03c-.06 0-.14 0-.25-.03a1.62 1.62 0 00-.8.04 1.29 1.29 0 00-.63.57c-.08.14-.15.3-.22.47V15H88.6V9.13h.72c.13 0 .22.03.27.08.05.05.08.13.1.25l.08.76zm4-3.73V15h-1.25V6.49h1.24zm4.91 4.09a1.45 1.45 0 00-1.24-.6c-.48 0-.86.18-1.13.54-.27.35-.4.87-.4 1.56 0 .37.02.67.08.93.07.25.15.46.27.62.11.16.25.28.42.35.16.08.35.11.56.11.31 0 .58-.07.8-.2.24-.14.45-.33.64-.58v-2.73zm1.24-4.09V15h-.75c-.16 0-.27-.08-.31-.24l-.11-.63c-.25.28-.53.52-.84.7-.31.17-.67.26-1.09.26a1.96 1.96 0 01-1.59-.78 2.73 2.73 0 01-.44-.94 4.86 4.86 0 01.01-2.5c.12-.37.3-.7.51-.96a2.3 2.3 0 011.85-.88c.34 0 .63.05.88.16.24.11.45.26.64.46V6.49h1.24zm-39.9 14.65V27h-1.24v-5.86h1.24zm.2-1.78c0 .12-.02.22-.06.32a.83.83 0 01-1.34.26.8.8 0 01-.24-.58c0-.11.02-.22.06-.32a.89.89 0 01.43-.43.76.76 0 01.64 0 .81.81 0 01.45.43c.04.1.06.2.06.32zm2.16 2.55a3.67 3.67 0 01.83-.63 2.32 2.32 0 011.9-.08c.24.11.45.26.61.46.17.2.3.43.38.7.09.28.13.58.13.9V27H65v-3.73c0-.4-.1-.7-.28-.92-.18-.22-.45-.33-.83-.33-.27 0-.53.06-.77.19-.23.13-.45.3-.66.52V27h-1.23v-5.86h.74c.17 0 .28.07.33.23l.08.54zm14.96.95c0 .61-.1 1.17-.3 1.68a3.78 3.78 0 01-2.15 2.16c-.5.2-1.07.3-1.69.3H70.1v-8.28h3.12c.62 0 1.19.1 1.7.3a3.71 3.71 0 012.14 2.16c.2.5.3 1.07.3 1.68zm-1.37 0c0-.48-.07-.9-.2-1.28a2.6 2.6 0 00-.55-.96 2.35 2.35 0 00-.87-.6 2.97 2.97 0 00-1.15-.21h-1.77v6.1h1.77c.43 0 .81-.07 1.15-.2a2.42 2.42 0 001.42-1.56c.13-.38.2-.81.2-1.29zm5.27 1.58a7.5 7.5 0 00-1.12.1c-.3.06-.55.13-.73.22a.97.97 0 00-.41.3.68.68 0 00-.12.4c0 .13.02.25.06.35.05.1.1.18.18.24.08.06.18.1.28.14a1.78 1.78 0 001.18-.14c.23-.12.46-.3.68-.53v-1.08zm-3.28-2.49a3.36 3.36 0 012.37-.92c.34 0 .63.05.9.16a1.83 1.83 0 011.06 1.18c.1.27.15.57.15.9V27h-.55a.56.56 0 01-.27-.05.42.42 0 01-.16-.23l-.12-.47-.44.36c-.15.1-.3.2-.46.26a2.77 2.77 0 01-1.75.12c-.2-.06-.38-.16-.53-.29a1.46 1.46 0 01-.48-1.18c0-.23.06-.45.18-.66.12-.22.32-.41.6-.58a4 4 0 011.1-.43 8.03 8.03 0 011.68-.19v-.39c0-.42-.1-.73-.27-.94-.18-.2-.45-.3-.8-.3-.23-.01-.43.02-.6.08a6.05 6.05 0 00-.74.39.54.54 0 01-.28.08.38.38 0 01-.22-.06.6.6 0 01-.15-.17l-.22-.4zm7.38 5.14c-.48 0-.86-.13-1.12-.4-.26-.28-.4-.67-.4-1.17v-3.41h-.64a.27.27 0 01-.18-.07c-.05-.04-.07-.11-.07-.2v-.5l.95-.14.27-1.7a.31.31 0 01.1-.15c.04-.04.1-.06.18-.06h.63v1.93h1.63v.89h-1.63v3.33c0 .2.05.37.16.48.1.11.24.17.41.17a.79.79 0 00.43-.12 4 4 0 00.12-.08.2.2 0 01.11-.04c.07 0 .13.04.17.11l.37.6c-.2.18-.42.3-.68.4a2.5 2.5 0 01-.8.13zm5.11-2.65a7.5 7.5 0 00-1.11.1 3 3 0 00-.74.22.97.97 0 00-.4.3.68.68 0 00-.13.4c0 .13.02.25.06.35.05.1.11.18.19.24s.17.1.28.14a1.78 1.78 0 001.18-.14c.23-.12.45-.3.67-.53v-1.08zm-3.28-2.49a3.36 3.36 0 012.37-.92c.34 0 .64.05.9.16.27.11.49.26.66.46.18.2.32.44.41.72.1.27.14.57.14.9V27h-.55a.56.56 0 01-.27-.05c-.06-.04-.11-.11-.15-.23l-.12-.47-.45.36c-.14.1-.3.2-.45.26a2.77 2.77 0 01-1.75.12c-.2-.06-.38-.16-.53-.29a1.46 1.46 0 01-.49-1.18c0-.23.06-.45.18-.66.12-.22.32-.41.6-.58.28-.17.65-.31 1.1-.43a8.03 8.03 0 011.68-.19v-.39c0-.42-.09-.73-.27-.94-.18-.2-.44-.3-.8-.3a1.5 1.5 0 00-.59.08 6.09 6.09 0 00-.74.39.54.54 0 01-.29.08.38.38 0 01-.22-.06.6.6 0 01-.14-.17l-.23-.4z" fill="#fff"/><path fill="#D42B21" d="M48 32.65h54V37H48z"/></svg></g><a href="https://ourworldindata.org/grapher/but-so-is-the-quality-of-their-local-environment-finn?tab=chart&amp;stackMode=absolute&amp;time=earliest..latest&amp;region=World" target="_blank" rel="noopener" font-family="&quot;Playfair Display&quot;,Georgia,&quot;Times New Roman&quot;,serif"><text font-size="25.2" x="15" y="35.2" fill="#555"><tspan x="15" y="35.16">… but so is the quality of their local environment</tspan></text></a><text font-size="14.4" x="15" y="55.7" fill="#666"><tspan x="15" y="55.72">Unit 20 &apos;Capstone: Economics of the environment’ Section 20.10 &apos;Policy choices matter&apos; in The CORE Team,</tspan><tspan x="15" y="73">The Economy. Available at https://tinyco.re/20102551 [Figure 20.25b]</tspan></text></g><g class="ScatterPlot"><g class="DualAxisView"><g class="HorizontalAxis"><text font-size="12.6" x="182.3" y="526.6"><tspan x="182.27" y="526.58">GDP per capita in 2014 (PPP, constant 2011 international dollars)</tspan></text><text x="69.8" y="506.5" fill="#666" text-anchor="middle" font-size="16.2">589</text><text x="150.9" y="506.5" fill="#666" text-anchor="middle" font-size="16.2">10,000</text><text x="237" y="506.5" fill="#666" text-anchor="middle" font-size="16.2">20,000</text><text x="323.2" y="506.5" fill="#666" text-anchor="middle" font-size="16.2">30,000</text><text x="409.3" y="506.5" fill="#666" text-anchor="middle" font-size="16.2">40,000</text><text x="495.5" y="506.5" fill="#666" text-anchor="middle" font-size="16.2">50,000</text><text x="581.6" y="506.5" fill="#666" text-anchor="middle" font-size="16.2">60,000</text><text x="667.7" y="506.5" fill="#666" text-anchor="middle" font-size="16.2">70,000</text></g><g class="VerticalAxis"><text font-size="12.6" x="-426.3" y="25.1" transform="rotate(-90)"><tspan x="-426.26" y="25.08">Environmental Performance Index (2014)</tspan></text><text x="64.82" y="485.3" fill="#666" dominant-baseline="middle" text-anchor="end" font-size="16.2">0</text><text x="64.82" y="406.7" fill="#666" dominant-baseline="middle" text-anchor="end" font-size="16.2">20</text><text x="64.82" y="328.1" fill="#666" dominant-baseline="middle" text-anchor="end" font-size="16.2">40</text><text x="64.82" y="249.4" fill="#666" dominant-baseline="middle" text-anchor="end" font-size="16.2">60</text><text x="64.82" y="170.8" fill="#666" dominant-baseline="middle" text-anchor="end" font-size="16.2">80</text><text x="64.82" y="92.2" fill="#666" dominant-baseline="middle" text-anchor="end" font-size="16.2">100</text></g><g class="AxisGridLines horizontalLines"><path stroke="#ccc" d="M69.82 485.3h648.27"/><path stroke="#d3d3d3" stroke-dasharray="3,2" d="M69.82 406.7h648.27M69.82 328.1h648.27M69.82 249.4h648.27M69.82 170.8h648.27M69.82 92.2h648.27"/></g><g class="AxisGridLines verticalLines" stroke="#d3d3d3" stroke-dasharray="3,2"><path d="M150.9 485.3V92.2M237 485.3V92.2M323.2 485.3V92.2M409.3 485.3V92.2M495.5 485.3V92.2M581.6 485.3V92.2M667.7 485.3V92.2"/></g></g><g><defs><clipPath id="a"><path d="M69.82 92.2H718.1v393.1H69.82z"/></clipPath></defs><path d="M69.8 368l1.3-1.3 1.3-1.3 1.3-1.4 1.3-1.3 1.3-1.3 1.3-1.3 1.3-1.3 1.3-1.3 1.3-1.3 1.3-1.3 1.3-1.2 1.3-1.3 1.3-1.3 1.3-1.2 1.3-1.3 1.3-1.2 1.3-1.2 1.3-1.3 1.3-1.2 1.2-1.2 1.3-1.2 1.3-1.2 1.3-1.2 1.3-1.2 1.3-1.1 1.3-1.2 1.3-1.2 1.3-1.1 1.3-1.2 1.3-1.1 1.3-1.1 1.3-1.2 1.3-1.1 1.3-1.1 1.3-1.1 1.3-1.1 1.3-1.1 1.3-1.1 1.3-1.1 1.3-1.1 1.3-1 1.3-1.1 1.3-1 1.3-1.1 1.3-1 1.3-1.1 1.3-1 1.3-1 1.2-1 1.3-1.1 1.3-1 1.3-1 1.3-1 1.3-.9 1.3-1 1.3-1 1.3-1 1.3-.9 1.3-1 1.3-.9 1.3-1 1.3-.9 1.3-.9 1.3-1 1.3-.9 1.3-.9 1.3-.9 1.3-.9 1.3-.9 1.3-.9 1.3-.9 1.3-.9 1.3-.8 1.3-.9 1.3-.9 1.3-.8 1.3-.9 1.2-.8 1.3-.8 1.3-.9 1.3-.8 1.3-.8 1.3-.8 1.3-.9 1.3-.8 1.3-.8 1.3-.8 1.3-.7 1.3-.8 1.3-.8 1.3-.8 1.3-.7 1.3-.8 1.3-.8 1.3-.7 1.3-.7 1.3-.8 1.3-.7 1.3-.8 1.3-.7 1.3-.7 1.3-.7 1.3-.7 1.3-.7 1.3-.7 1.3-.7 1.2-.7 1.3-.7 1.3-.7 1.3-.6 1.3-.7 1.3-.7 1.3-.6 1.3-.7 1.3-.6 1.3-.7 1.3-.6 1.3-.6 1.3-.7 1.3-.6 1.3-.6 1.3-.6 1.3-.6 1.3-.6 1.3-.6 1.3-.6 1.3-.6 1.3-.6 1.3-.6 1.3-.6 1.3-.5 1.3-.6 1.3-.6 1.3-.5 1.3-.6 1.2-.5 1.3-.6 1.3-.5 1.3-.5 1.3-.6 1.3-.5 1.3-.5 1.3-.5 1.3-.6 1.3-.5 1.3-.5 1.3-.5 1.3-.5 1.3-.5 1.3-.4 1.3-.5 1.3-.5 1.3-.5 1.3-.5 1.3-.4 1.3-.5 1.3-.5 1.3-.4 1.3-.5 1.3-.4 1.3-.5 1.3-.4 1.3-.4 1.3-.5 1.2-.4 1.3-.4 1.3-.4 1.3-.4 1.3-.5 1.3-.4 1.3-.4 1.3-.4 1.3-.4 1.3-.4 1.3-.4 1.3-.3 1.3-.4 1.3-.4 1.3-.4 1.3-.4 1.3-.3 1.3-.4 1.3-.4 1.3-.3 1.3-.4 1.3-.3 1.3-.4 1.3-.3 1.3-.4 1.3-.3 1.3-.3 1.3-.4 1.3-.3 1.2-.3 1.3-.3 1.3-.4 1.3-.3 1.3-.3 1.3-.3 1.3-.3 1.3-.3 1.3-.3 1.3-.3 1.3-.3 1.3-.3 1.3-.3 1.3-.3 1.3-.2 1.3-.3 1.3-.3 1.3-.3 1.3-.2 1.3-.3 1.3-.3 1.3-.2 1.3-.3 1.3-.2 1.3-.3 1.3-.2 1.3-.3 1.3-.2 1.3-.3 1.2-.2 1.3-.3 1.3-.2 1.3-.2 1.3-.3 1.3-.2 1.3-.2 1.3-.2 1.3-.2 1.3-.3 1.3-.2 1.3-.2 1.3-.2 1.3-.2 1.3-.2 1.3-.2 1.3-.2 1.3-.2 1.3-.2 1.3-.2 1.3-.2 1.3-.2 1.3-.2 1.3-.2 1.3-.1 1.3-.2 1.3-.2 1.3-.2 1.3-.1 1.2-.2 1.3-.2 1.3-.2 1.3-.1 1.3-.2 1.3-.2 1.3-.1 1.3-.2 1.3-.1 1.3-.2 1.3-.1 1.3-.2 1.3-.1 1.3-.2 1.3-.1 1.3-.2 1.3-.1 1.3-.2 1.3-.1 1.3-.1 1.3-.2 1.3-.1 1.3-.1 1.3-.2 1.3-.1 1.3-.1 1.3-.1 1.3-.2 1.3-.1 1.2-.1 1.3-.1 1.3-.2 1.3-.1 1.3-.1 1.3-.1 1.3-.1 1.3-.1 1.3-.1 1.3-.2 1.3-.1 1.3-.1 1.3-.1 1.3-.1 1.3-.1 1.3-.1 1.3-.1 1.3-.1 1.3-.1 1.3-.1 1.3-.1 1.3-.1 1.3-.1 1.3-.1 1.3-.1 1.3-.1 1.3-.1 1.3-.1h1.3l1.2-.1 1.3-.1 1.3-.1 1.3-.1 1.3-.1 1.3-.1 1.3-.1h1.3l1.3-.1 1.3-.1 1.3-.1 1.3-.1 1.3-.1h1.3l1.3-.1 1.3-.1 1.3-.1 1.3-.1h1.3l1.3-.1 1.3-.1 1.3-.1 1.3-.1h1.3l1.3-.1 1.3-.1 1.3-.1h1.3l1.3-.1 1.2-.1 1.3-.1h1.3l1.3-.1 1.3-.1 1.3-.1h1.3l1.3-.1 1.3-.1 1.3-.1h1.3l1.3-.1 1.3-.1 1.3-.1h1.3l1.3-.1 1.3-.1 1.3-.1h1.3l1.3-.1 1.3-.1 1.3-.1h1.3l1.3-.1 1.3-.1 1.3-.1h1.3l1.3-.1 1.3-.1 1.2-.1 1.3-.1h1.3l1.3-.1 1.3-.1 1.3-.1 1.3-.1h1.3l1.3-.1 1.3-.1 1.3-.1 1.3-.1 1.3-.1 1.3-.1h1.3l1.3-.1 1.3-.1 1.3-.1 1.3-.1 1.3-.1 1.3-.1 1.3-.1 1.3-.1 1.3-.1h1.3l1.3-.1 1.3-.1 1.3-.1 1.3-.1 1.2-.1 1.3-.1 1.3-.1 1.3-.1 1.3-.1 1.3-.2 1.3-.1 1.3-.1 1.3-.1 1.3-.1 1.3-.1 1.3-.1 1.3-.1 1.3-.1 1.3-.2 1.3-.1 1.3-.1 1.3-.1 1.3-.1 1.3-.2 1.3-.1 1.3-.1 1.3-.1 1.3-.2 1.3-.1 1.3-.1 1.3-.2 1.3-.1 1.3-.1 1.2-.2 1.3-.1 1.3-.1 1.3-.2 1.3-.1 1.3-.2 1.3-.1 1.3-.2 1.3-.1 1.3-.2 1.3-.1 1.3-.2 1.3-.2 1.3-.1 1.3-.2 1.3-.1 1.3-.2 1.3-.2 1.3-.2 1.3-.1 1.3-.2 1.3-.2 1.3-.2 1.3-.1 1.3-.2 1.3-.2 1.3-.2 1.3-.2 1.3-.2 1.2-.2 1.3-.2 1.3-.2 1.3-.2 1.3-.2 1.3-.2 1.3-.2 1.3-.2 1.3-.2 1.3-.2 1.3-.3 1.3-.2 1.3-.2 1.3-.2 1.3-.3 1.3-.2 1.3-.2 1.3-.3 1.3-.2 1.3-.2 1.3-.3 1.3-.2 1.3-.3 1.3-.2 1.3-.3 1.3-.2 1.3-.3 1.3-.3 1.3-.2 1.2-.3 1.3-.3 1.3-.2 1.3-.3 1.3-.3 1.3-.3 1.3-.3 1.3-.3 1.3-.2 1.3-.3 1.3-.3 1.3-.3 1.3-.3 1.3-.4 1.3-.3 1.3-.3" clip-path="url(#a)" opacity=".9" fill="none" stroke="#ccc" stroke-dasharray="2 2"/></g><g class="PointsWithLabels clickable" clip-path="url(#b)" font-family="Arial, sans-serif"><path fill="rgba(255,255,255,0)" d="M69.82 92.2H718.1v393.1H69.82z"/><defs><clipPath id="b"><path d="M59.82 82.2H728.1v413.1H59.82z"/></clipPath></defs><g class="key-Ireland_0"><circle cx="510" cy="191" r="3.57" fill="#e2e2e2" opacity=".8" stroke="#bbb" stroke-width=".5"/></g><g class="key-Belgium_0"><circle cx="402" cy="223" r="3.57" fill="#e2e2e2" opacity=".8" stroke="#bbb" stroke-width=".5"/></g><g class="key-Netherlands_0"><circle cx="476" cy="179" r="3.57" fill="#e2e2e2" opacity=".8" stroke="#bbb" stroke-width=".5"/></g><g class="key-Italy_0"><circle cx="360" cy="193" r="3.57" fill="#e2e2e2" opacity=".8" stroke="#bbb" stroke-width=".5"/></g><g class="key-Poland_0"><circle cx="274" cy="212" r="3.57" fill="#e2e2e2" opacity=".8" stroke="#bbb" stroke-width=".5"/></g><g class="key-Afghanistan_0"><circle cx="82" cy="400" r="3.57" fill="#e2e2e2" opacity=".8" stroke="#bbb" stroke-width=".5"/></g><g class="key-Albania_0"><circle cx="156" cy="270" r="3.57" fill="#e2e2e2" opacity=".8" stroke="#bbb" stroke-width=".5"/></g><g class="key-Algeria_0"><circle cx="174" cy="288" r="3.57" fill="#e2e2e2" opacity=".8" stroke="#bbb" stroke-width=".5"/></g><g class="key-Armenia_0"><circle cx="144" cy="242" r="3.57" fill="#e2e2e2" opacity=".8" stroke="#bbb" stroke-width=".5"/></g><g class="key-Austria_0"><circle cx="451" cy="177" r="3.57" fill="#e2e2e2" opacity=".8" stroke="#bbb" stroke-width=".5"/></g><g class="key-Azerbaijan_0"><circle cx="202" cy="267" r="3.57" fill="#e2e2e2" opacity=".8" stroke="#bbb" stroke-width=".5"/></g><g class="key-Bahrain_0"><circle cx="396" cy="281" r="3.57" fill="#e2e2e2" opacity=".8" stroke="#bbb" stroke-width=".5"/></g><g class="key-Bangladesh_0"><circle cx="89" cy="384" r="3.57" fill="#e2e2e2" opacity=".8" stroke="#bbb" stroke-width=".5"/></g><g class="key-Barbados_0"><circle cx="150" cy="306" r="3.57" fill="#e2e2e2" opacity=".8" stroke="#bbb" stroke-width=".5"/></g><g class="key-Belarus_0"><circle cx="237" cy="219" r="3.57" fill="#e2e2e2" opacity=".8" stroke="#bbb" stroke-width=".5"/></g><g class="key-Benin_0"><circle cx="82" cy="357" r="3.57" fill="#e2e2e2" opacity=".8" stroke="#bbb" stroke-width=".5"/></g><g class="key-Bolivia_0"><circle cx="114" cy="286" r="3.57" fill="#e2e2e2" opacity=".8" stroke="#bbb" stroke-width=".5"/></g><g class="key-Bosnia-and-Herzegovina_0"><circle cx="150" cy="305" r="3.57" fill="#e2e2e2" opacity=".8" stroke="#bbb" stroke-width=".5"/></g><g class="key-Botswana_0"><circle cx="193" cy="298" r="3.57" fill="#e2e2e2" opacity=".8" stroke="#bbb" stroke-width=".5"/></g><g class="key-Bulgaria_0"><circle cx="207" cy="233" r="3.57" fill="#e2e2e2" opacity=".8" stroke="#bbb" stroke-width=".5"/></g><g class="key-Burkina-Faso_0"><circle cx="77" cy="326" r="3.57" fill="#e2e2e2" opacity=".8" stroke="#bbb" stroke-width=".5"/></g><g class="key-Burundi_0"><circle cx="71" cy="384" r="3.57" fill="#e2e2e2" opacity=".8" stroke="#bbb" stroke-width=".5"/></g><g class="key-Cambodia_0"><circle cx="90" cy="346" r="3.57" fill="#e2e2e2" opacity=".8" stroke="#bbb" stroke-width=".5"/></g><g class="key-Cameroon_0"><circle cx="87" cy="341" r="3.57" fill="#e2e2e2" opacity=".8" stroke="#bbb" stroke-width=".5"/></g><g class="key-Canada_0"><circle cx="433" cy="197" r="3.57" fill="#e2e2e2" opacity=".8" stroke="#bbb" stroke-width=".5"/></g><g class="key-Cape-Verde_0"><circle cx="119" cy="312" r="3.57" fill="#e2e2e2" opacity=".8" stroke="#bbb" stroke-width=".5"/></g><g class="key-Zambia_0"><circle cx="95" cy="321" r="3.57" fill="#e2e2e2" opacity=".8" stroke="#bbb" stroke-width=".5"/></g><g class="key-Yemen_0"><circle cx="95" cy="366" r="3.57" fill="#e2e2e2" opacity=".8" stroke="#bbb" stroke-width=".5"/></g><g class="key-Uzbekistan_0"><circle cx="138" cy="315" r="3.57" fill="#e2e2e2" opacity=".8" stroke="#bbb" stroke-width=".5"/></g><g class="key-Uruguay_0"><circle cx="233" cy="274" r="3.57" fill="#e2e2e2" opacity=".8" stroke="#bbb" stroke-width=".5"/></g><g class="key-Tanzania_0"><circle cx="84" cy="343" r="3.57" fill="#e2e2e2" opacity=".8" stroke="#bbb" stroke-width=".5"/></g><g class="key-Egypt_0"><circle cx="160" cy="245" r="3.57" fill="#e2e2e2" opacity=".8" stroke="#bbb" stroke-width=".5"/></g><g class="key-North-Macedonia_0"><circle cx="177" cy="287" r="3.57" fill="#e2e2e2" opacity=".8" stroke="#bbb" stroke-width=".5"/></g><g class="key-Ukraine_0"><circle cx="153" cy="292" r="3.57" fill="#e2e2e2" opacity=".8" stroke="#bbb" stroke-width=".5"/></g><g class="key-Uganda_0"><circle cx="80" cy="331" r="3.57" fill="#e2e2e2" opacity=".8" stroke="#bbb" stroke-width=".5"/></g><g class="key-Turkmenistan_0"><circle cx="238" cy="308" r="3.57" fill="#e2e2e2" opacity=".8" stroke="#bbb" stroke-width=".5"/></g><g class="key-Turkey_0"><circle cx="238" cy="269" r="3.57" fill="#e2e2e2" opacity=".8" stroke="#bbb" stroke-width=".5"/></g><g class="key-Tunisia_0"><circle cx="155" cy="253" r="3.57" fill="#e2e2e2" opacity=".8" stroke="#bbb" stroke-width=".5"/></g><g class="key-Trinidad-and-Tobago_0"><circle cx="332" cy="279" r="3.57" fill="#e2e2e2" opacity=".8" stroke="#bbb" stroke-width=".5"/></g><g class="key-Togo_0"><circle cx="77" cy="375" r="3.57" fill="#e2e2e2" opacity=".8" stroke="#bbb" stroke-width=".5"/></g><g class="key-Thailand_0"><circle cx="181" cy="277" r="3.57" fill="#e2e2e2" opacity=".8" stroke="#bbb" stroke-width=".5"/></g><g class="key-Tajikistan_0"><circle cx="92" cy="362" r="3.57" fill="#e2e2e2" opacity=".8" stroke="#bbb" stroke-width=".5"/></g><g class="key-Eswatini_0"><circle cx="130" cy="338" r="3.57" fill="#e2e2e2" opacity=".8" stroke="#bbb" stroke-width=".5"/></g><g class="key-Sudan_0"><circle cx="96" cy="388" r="3.57" fill="#e2e2e2" opacity=".8" stroke="#bbb" stroke-width=".5"/></g><g class="key-South-Africa_0"><circle cx="168" cy="275" r="3.57" fill="#e2e2e2" opacity=".8" stroke="#bbb" stroke-width=".5"/></g><g class="key-Slovenia_0"><circle cx="301" cy="184" r="3.57" fill="#e2e2e2" opacity=".8" stroke="#bbb" stroke-width=".5"/></g><g class="key-Vietnam_0"><circle cx="111" cy="335" r="3.57" fill="#e2e2e2" opacity=".8" stroke="#bbb" stroke-width=".5"/></g><g class="key-Slovakia_0"><circle cx="279" cy="192" r="3.57" fill="#e2e2e2" opacity=".8" stroke="#bbb" stroke-width=".5"/></g><g class="key-Sierra-Leone_0"><circle cx="76" cy="399" r="3.57" fill="#e2e2e2" opacity=".8" stroke="#bbb" stroke-width=".5"/></g><g class="key-Senegal_0"><circle cx="85" cy="324" r="3.57" fill="#e2e2e2" opacity=".8" stroke="#bbb" stroke-width=".5"/></g><g class="key-Saudi-Arabia_0"><circle cx="468" cy="223" r="3.57" fill="#e2e2e2" opacity=".8" stroke="#bbb" stroke-width=".5"/></g><g class="key-Rwanda_0"><circle cx="78" cy="346" r="3.57" fill="#e2e2e2" opacity=".8" stroke="#bbb" stroke-width=".5"/></g><g class="key-Romania_0"><circle cx="234" cy="286" r="3.57" fill="#e2e2e2" opacity=".8" stroke="#bbb" stroke-width=".5"/></g><g class="key-Guinea__002dBissau_0"><circle cx="75" cy="343" r="3.57" fill="#e2e2e2" opacity=".8" stroke="#bbb" stroke-width=".5"/></g><g class="key-Portugal_0"><circle cx="294" cy="187" r="3.57" fill="#e2e2e2" opacity=".8" stroke="#bbb" stroke-width=".5"/></g><g class="key-Philippines_0"><circle cx="121" cy="312" r="3.57" fill="#e2e2e2" opacity=".8" stroke="#bbb" stroke-width=".5"/></g><g class="key-Peru_0"><circle cx="159" cy="308" r="3.57" fill="#e2e2e2" opacity=".8" stroke="#bbb" stroke-width=".5"/></g><g class="key-Paraguay_0"><circle cx="135" cy="331" r="3.57" fill="#e2e2e2" opacity=".8" stroke="#bbb" stroke-width=".5"/></g><g class="key-Panama_0"><circle cx="236" cy="261" r="3.57" fill="#e2e2e2" opacity=".8" stroke="#bbb" stroke-width=".5"/></g><g class="key-Pakistan_0"><circle cx="106" cy="349" r="3.57" fill="#e2e2e2" opacity=".8" stroke="#bbb" stroke-width=".5"/></g><g class="key-Nigeria_0"><circle cx="112" cy="331" r="3.57" fill="#e2e2e2" opacity=".8" stroke="#bbb" stroke-width=".5"/></g><g class="key-Niger_0"><circle cx="72" cy="342" r="3.57" fill="#e2e2e2" opacity=".8" stroke="#bbb" stroke-width=".5"/></g><g class="key-Nicaragua_0"><circle cx="103" cy="287" r="3.57" fill="#e2e2e2" opacity=".8" stroke="#bbb" stroke-width=".5"/></g><g class="key-New-Zealand_0"><circle cx="349" cy="184" r="3.57" fill="#e2e2e2" opacity=".8" stroke="#bbb" stroke-width=".5"/></g><g class="key-Nepal_0"><circle cx="86" cy="339" r="3.57" fill="#e2e2e2" opacity=".8" stroke="#bbb" stroke-width=".5"/></g><g class="key-Namibia_0"><circle cx="163" cy="313" r="3.57" fill="#e2e2e2" opacity=".8" stroke="#bbb" stroke-width=".5"/></g><g class="key-Mozambique_0"><circle cx="75" cy="367" r="3.57" fill="#e2e2e2" opacity=".8" stroke="#bbb" stroke-width=".5"/></g><g class="key-Morocco_0"><circle cx="127" cy="281" r="3.57" fill="#e2e2e2" opacity=".8" stroke="#bbb" stroke-width=".5"/></g><g class="key-Moldova_0"><circle cx="112" cy="275" r="3.57" fill="#e2e2e2" opacity=".8" stroke="#bbb" stroke-width=".5"/></g><g class="key-Mongolia_0"><circle cx="159" cy="309" r="3.57" fill="#e2e2e2" opacity=".8" stroke="#bbb" stroke-width=".5"/></g><g class="key-Mexico_0"><circle cx="198" cy="269" r="3.57" fill="#e2e2e2" opacity=".8" stroke="#bbb" stroke-width=".5"/></g><g class="key-Mauritania_0"><circle cx="93" cy="378" r="3.57" fill="#e2e2e2" opacity=".8" stroke="#bbb" stroke-width=".5"/></g><g class="key-Malaysia_0"><circle cx="248" cy="252" r="3.57" fill="#e2e2e2" opacity=".8" stroke="#bbb" stroke-width=".5"/></g><g class="key-Malawi_0"><circle cx="73" cy="327" r="3.57" fill="#e2e2e2" opacity=".8" stroke="#bbb" stroke-width=".5"/></g><g class="key-Madagascar_0"><circle cx="75" cy="380" r="3.57" fill="#e2e2e2" opacity=".8" stroke="#bbb" stroke-width=".5"/></g><g class="key-Lithuania_0"><circle cx="276" cy="244" r="3.57" fill="#e2e2e2" opacity=".8" stroke="#bbb" stroke-width=".5"/></g><g class="key-Libya_0"><circle cx="148" cy="317" r="3.57" fill="#e2e2e2" opacity=".8" stroke="#bbb" stroke-width=".5"/></g><g class="key-Liberia_0"><circle cx="71" cy="391" r="3.57" fill="#e2e2e2" opacity=".8" stroke="#bbb" stroke-width=".5"/></g><g class="key-Latvia_0"><circle cx="253" cy="233" r="3.57" fill="#e2e2e2" opacity=".8" stroke="#bbb" stroke-width=".5"/></g><g class="key-Lesotho_0"><circle cx="89" cy="403" r="3.57" fill="#e2e2e2" opacity=".8" stroke="#bbb" stroke-width=".5"/></g><g class="key-Lebanon_0"><circle cx="177" cy="288" r="3.57" fill="#e2e2e2" opacity=".8" stroke="#bbb" stroke-width=".5"/></g><g class="key-Laos_0"><circle cx="113" cy="326" r="3.57" fill="#e2e2e2" opacity=".8" stroke="#bbb" stroke-width=".5"/></g><g class="key-Kyrgyzstan_0"><circle cx="114" cy="325" r="3.57" fill="#e2e2e2" opacity=".8" stroke="#bbb" stroke-width=".5"/></g><g class="key-South-Korea_0"><circle cx="362" cy="234" r="3.57" fill="#e2e2e2" opacity=".8" stroke="#bbb" stroke-width=".5"/></g><g class="key-Kenya_0"><circle cx="90" cy="339" r="3.57" fill="#e2e2e2" opacity=".8" stroke="#bbb" stroke-width=".5"/></g><g class="key-Jordan_0"><circle cx="165" cy="266" r="3.57" fill="#e2e2e2" opacity=".8" stroke="#bbb" stroke-width=".5"/></g><g class="key-Kazakhstan_0"><circle cx="266" cy="284" r="3.57" fill="#e2e2e2" opacity=".8" stroke="#bbb" stroke-width=".5"/></g><g class="key-Jamaica_0"><circle cx="125" cy="256" r="3.57" fill="#e2e2e2" opacity=".8" stroke="#bbb" stroke-width=".5"/></g><g class="key-Israel_0"><circle cx="335" cy="226" r="3.57" fill="#e2e2e2" opacity=".8" stroke="#bbb" stroke-width=".5"/></g><g class="key-Iran_0"><circle cx="196" cy="284" r="3.57" fill="#e2e2e2" opacity=".8" stroke="#bbb" stroke-width=".5"/></g><g class="key-Indonesia_0"><circle cx="148" cy="310" r="3.57" fill="#e2e2e2" opacity=".8" stroke="#bbb" stroke-width=".5"/></g><g class="key-Hungary_0"><circle cx="260" cy="209" r="3.57" fill="#e2e2e2" opacity=".8" stroke="#bbb" stroke-width=".5"/></g><g class="key-Honduras_0"><circle cx="101" cy="293" r="3.57" fill="#e2e2e2" opacity=".8" stroke="#bbb" stroke-width=".5"/></g><g class="key-Sri-Lanka_0"><circle cx="153" cy="273" r="3.57" fill="#e2e2e2" opacity=".8" stroke="#bbb" stroke-width=".5"/></g><g class="key-Cote-d__0027Ivoire_0"><circle cx="92" cy="329" r="3.57" fill="#e2e2e2" opacity=".8" stroke="#bbb" stroke-width=".5"/></g><g class="key-Haiti_0"><circle cx="79" cy="410" r="3.57" fill="#e2e2e2" opacity=".8" stroke="#bbb" stroke-width=".5"/></g><g class="key-Guinea_0"><circle cx="78" cy="375" r="3.57" fill="#e2e2e2" opacity=".8" stroke="#bbb" stroke-width=".5"/></g><g class="key-Guatemala_0"><circle cx="124" cy="296" r="3.57" fill="#e2e2e2" opacity=".8" stroke="#bbb" stroke-width=".5"/></g><g class="key-Greece_0"><circle cx="275" cy="197" r="3.57" fill="#e2e2e2" opacity=".8" stroke="#bbb" stroke-width=".5"/></g><g class="key-Ghana_0"><circle cx="96" cy="359" r="3.57" fill="#e2e2e2" opacity=".8" stroke="#bbb" stroke-width=".5"/></g><g class="key-Gambia_0"><circle cx="81" cy="370" r="3.57" fill="#e2e2e2" opacity=".8" stroke="#bbb" stroke-width=".5"/></g><g class="key-Georgia_0"><circle cx="150" cy="299" r="3.57" fill="#e2e2e2" opacity=".8" stroke="#bbb" stroke-width=".5"/></g><g class="key-Gabon_0"><circle cx="185" cy="302" r="3.57" fill="#e2e2e2" opacity=".8" stroke="#bbb" stroke-width=".5"/></g><g class="key-Djibouti_0"><circle cx="91" cy="373" r="3.57" fill="#e2e2e2" opacity=".8" stroke="#bbb" stroke-width=".5"/></g><g class="key-Ethiopia_0"><circle cx="77" cy="330" r="3.57" fill="#e2e2e2" opacity=".8" stroke="#bbb" stroke-width=".5"/></g><g class="key-Dominican-Republic_0"><circle cx="173" cy="276" r="3.57" fill="#e2e2e2" opacity=".8" stroke="#bbb" stroke-width=".5"/></g><g class="key-Denmark_0"><circle cx="448" cy="182" r="3.57" fill="#e2e2e2" opacity=".8" stroke="#bbb" stroke-width=".5"/></g><g class="key-Czechia_0"><circle cx="315" cy="165" r="3.57" fill="#e2e2e2" opacity=".8" stroke="#bbb" stroke-width=".5"/></g><g class="key-Cyprus_0"><circle cx="282" cy="224" r="3.57" fill="#e2e2e2" opacity=".8" stroke="#bbb" stroke-width=".5"/></g><g class="key-Cuba_0"><circle cx="130" cy="268" r="3.57" fill="#e2e2e2" opacity=".8" stroke="#bbb" stroke-width=".5"/></g><g class="key-Croatia_0"><circle cx="241" cy="240" r="3.57" fill="#e2e2e2" opacity=".8" stroke="#bbb" stroke-width=".5"/></g><g class="key-Costa-Rica_0"><circle cx="177" cy="255" r="3.57" fill="#e2e2e2" opacity=".8" stroke="#bbb" stroke-width=".5"/></g><g class="key-Democratic-Republic-of-Congo_0"><circle cx="71" cy="387" r="3.57" fill="#e2e2e2" opacity=".8" stroke="#bbb" stroke-width=".5"/></g><g class="key-Congo_0"><circle cx="104" cy="330" r="3.57" fill="#e2e2e2" opacity=".8" stroke="#bbb" stroke-width=".5"/></g><g class="key-Comoros_0"><circle cx="79" cy="361" r="3.57" fill="#e2e2e2" opacity=".8" stroke="#bbb" stroke-width=".5"/></g><g class="key-Colombia_0"><circle cx="173" cy="285" r="3.57" fill="#e2e2e2" opacity=".8" stroke="#bbb" stroke-width=".5"/></g><g class="key-Chile_0"><circle cx="246" cy="210" r="3.57" fill="#e2e2e2" opacity=".8" stroke="#bbb" stroke-width=".5"/></g><g class="key-Chad_0"><circle cx="84" cy="363" r="3.57" fill="#e2e2e2" opacity=".8" stroke="#bbb" stroke-width=".5"/></g><g class="key-Central-African-Republic_0"><circle cx="69" cy="316" r="3.57" fill="#e2e2e2" opacity=".8" stroke="#bbb" stroke-width=".5"/></g><g class="key-Dominica_0"><circle cx="148" cy="300" r="3.57" fill="#e2e2e2" opacity=".8" stroke="#bbb" stroke-width=".5"/></g><g class="key-Ecuador_0"><circle cx="159" cy="255" r="3.57" fill="#e2e2e2" opacity=".8" stroke="#bbb" stroke-width=".5"/></g><g class="key-Iceland_0"><circle cx="404" cy="184" r="3.57" fill="#e2e2e2" opacity=".8" stroke="#bbb" stroke-width=".5"/></g><g class="key-Kuwait_0"><circle cx="661" cy="234" r="3.57" fill="#e2e2e2" opacity=".8" stroke="#bbb" stroke-width=".5"/></g><g class="key-Luxembourg_0"><circle cx="639" cy="157" r="3.57" fill="#e2e2e2" opacity=".8" stroke="#bbb" stroke-width=".5"/></g><g class="key-Malta_0"><circle cx="280" cy="220" r="3.57" fill="#e2e2e2" opacity=".8" stroke="#bbb" stroke-width=".5"/></g><g class="key-Mauritius_0"><circle cx="217" cy="256" r="3.57" fill="#e2e2e2" opacity=".8" stroke="#bbb" stroke-width=".5"/></g><g class="key-Montenegro_0"><circle cx="210" cy="267" r="3.57" fill="#e2e2e2" opacity=".8" stroke="#bbb" stroke-width=".5"/></g><g class="key-Seychelles_0"><circle cx="259" cy="266" r="3.57" fill="#e2e2e2" opacity=".8" stroke="#bbb" stroke-width=".5"/></g><g class="key-Venezuela_0"><circle cx="216" cy="258" r="3.57" fill="#e2e2e2" opacity=".8" stroke="#bbb" stroke-width=".5"/></g><g class="key-El-Salvador_0"><circle cx="133" cy="313" r="3.57" fill="#e2e2e2" opacity=".8" stroke="#bbb" stroke-width=".5"/></g><g class="key-United-Kingdom_0"><circle cx="394" cy="181" fill="none" stroke="#4C5C78" r="6.57"/><circle cx="394" cy="181" r="3.57" fill="#4C5C78" opacity=".8" stroke="#333" stroke-width=".5"/></g><g class="key-France_0"><circle cx="393" cy="206" fill="none" stroke="#4C5C78" r="6.57"/><circle cx="393" cy="206" r="3.57" fill="#4C5C78" opacity=".8" stroke="#333" stroke-width=".5"/></g><g class="key-Germany_0"><circle cx="461" cy="169" fill="none" stroke="#4C5C78" r="6.57"/><circle cx="461" cy="169" r="3.57" fill="#4C5C78" opacity=".8" stroke="#333" stroke-width=".5"/></g><g class="key-Switzerland_0"><circle cx="595" cy="140" fill="none" stroke="#4C5C78" r="6.57"/><circle cx="595" cy="140" r="3.57" fill="#4C5C78" opacity=".8" stroke="#333" stroke-width=".5"/></g><g class="key-Spain_0"><circle cx="343" cy="171" fill="none" stroke="#4C5C78" r="6.57"/><circle cx="343" cy="171" r="3.57" fill="#4C5C78" opacity=".8" stroke="#333" stroke-width=".5"/></g><g class="key-Sweden_0"><circle cx="428" cy="178" fill="none" stroke="#4C5C78" r="6.57"/><circle cx="428" cy="178" r="3.57" fill="#4C5C78" opacity=".8" stroke="#666" stroke-width=".5"/></g><g class="key-Russia_0"><circle cx="269" cy="275" fill="none" stroke="#4C5C78" r="6.57"/><circle cx="269" cy="275" r="3.57" fill="#4C5C78" opacity=".8" stroke="#333" stroke-width=".5"/></g><g class="key-United-States_0"><circle cx="509" cy="219" fill="none" stroke="#000" r="6.57"/><circle cx="509" cy="219" r="3.57" fill="#000" opacity=".8" stroke="#333" stroke-width=".5"/></g><g class="key-Japan_0"><circle cx="371" cy="200" fill="none" stroke="#2D8587" r="6.57"/><circle cx="371" cy="200" r="3.57" fill="#2D8587" opacity=".8" stroke="#666" stroke-width=".5"/></g><g class="key-Angola_0"><circle cx="139" cy="372" fill="none" stroke="#923E8B" r="6.57"/><circle cx="139" cy="372" r="3.57" fill="#923E8B" opacity=".8" stroke="#333" stroke-width=".5"/></g><g class="key-Australia_0"><circle cx="442" cy="161" fill="none" stroke="#A8633C" r="6.57"/><circle cx="442" cy="161" r="3.57" fill="#A8633C" opacity=".8" stroke="#333" stroke-width=".5"/></g><g class="key-Brazil_0"><circle cx="192" cy="277" fill="none" stroke="#c8c8c8" r="6.57"/><circle cx="192" cy="277" r="3.57" fill="#c8c8c8" opacity=".8" stroke="#333" stroke-width=".5"/></g><g class="key-United-Arab-Emirates_0"><circle cx="644" cy="198" fill="none" stroke="#2D8587" r="6.57"/><circle cx="644" cy="198" r="3.57" fill="#2D8587" opacity=".8" stroke="#333" stroke-width=".5"/></g><g class="key-Zimbabwe_0"><circle cx="80" cy="290" fill="none" stroke="#923E8B" r="6.57"/><circle cx="80" cy="290" r="3.57" fill="#923E8B" opacity=".8" stroke="#333" stroke-width=".5"/></g><g class="key-Singapore_0"><circle cx="642" cy="163" fill="none" stroke="#2D8587" r="6.57"/><circle cx="642" cy="163" r="3.57" fill="#2D8587" opacity=".8" stroke="#333" stroke-width=".5"/></g><g class="key-Serbia_0"><circle cx="180" cy="213" fill="none" stroke="#4C5C78" r="6.57"/><circle cx="180" cy="213" r="3.57" fill="#4C5C78" opacity=".8" stroke="#333" stroke-width=".5"/></g><g class="key-Norway_0"><circle cx="718" cy="178" fill="none" stroke="#4C5C78" r="6.57"/><circle cx="718" cy="178" r="3.57" fill="#4C5C78" opacity=".8" stroke="#333" stroke-width=".5"/></g><g class="key-Mali_0"><circle cx="77" cy="412" fill="none" stroke="#923E8B" r="6.57"/><circle cx="77" cy="412" r="3.57" fill="#923E8B" opacity=".8" stroke="#333" stroke-width=".5"/></g><g class="key-Iraq_0"><circle cx="175" cy="354" fill="none" stroke="#2D8587" r="6.57"/><circle cx="175" cy="354" r="3.57" fill="#2D8587" opacity=".8" stroke="#333" stroke-width=".5"/></g><g class="key-India_0"><circle cx="110" cy="362" fill="none" stroke="#2D8587" r="6.57"/><circle cx="110" cy="362" r="3.57" fill="#2D8587" opacity=".8" stroke="#333" stroke-width=".5"/></g><g class="key-Finland_0"><circle cx="391" cy="187" fill="none" stroke="#4C5C78" r="6.57"/><circle cx="391" cy="187" r="3.57" fill="#4C5C78" opacity=".8" stroke="#666" stroke-width=".5"/></g><g class="key-Estonia_0"><circle cx="283" cy="191" fill="none" stroke="#4C5C78" r="6.57"/><circle cx="283" cy="191" r="3.57" fill="#4C5C78" opacity=".8" stroke="#333" stroke-width=".5"/></g><g class="key-Equatorial-Guinea_0"><circle cx="405" cy="323" fill="none" stroke="#923E8B" r="6.57"/><circle cx="405" cy="323" r="3.57" fill="#923E8B" opacity=".8" stroke="#333" stroke-width=".5"/></g><g class="key-China_0"><circle cx="165" cy="316" fill="none" stroke="#2D8587" r="6.57"/><circle cx="165" cy="316" r="3.57" fill="#2D8587" opacity=".8" stroke="#333" stroke-width=".5"/></g><g class="key-Oman_0"><circle cx="389" cy="297" fill="none" stroke="#2D8587" r="6.57"/><circle cx="389" cy="297" r="3.57" fill="#2D8587" opacity=".8" stroke="#333" stroke-width=".5"/></g><text x="394" y="176.43" font-size="13" font-family="Arial, sans-serif" font-weight="700" fill="#fff" stroke="#fff" stroke-linecap="round" stroke-linejoin="round" stroke-width=".25em">United Kingdom</text><text x="394" y="176.43" font-size="13" font-family="Arial, sans-serif" font-weight="700" fill="#4C5C78">United Kingdom</text><text x="393" y="201.43" font-size="13" font-family="Arial, sans-serif" font-weight="700" fill="#fff" stroke="#fff" stroke-linecap="round" stroke-linejoin="round" stroke-width=".25em">France</text><text x="393" y="201.43" font-size="13" font-family="Arial, sans-serif" font-weight="700" fill="#4C5C78">France</text><text x="461" y="164.43" font-size="13" font-family="Arial, sans-serif" font-weight="700" fill="#fff" stroke="#fff" stroke-linecap="round" stroke-linejoin="round" stroke-width=".25em">Germany</text><text x="461" y="164.43" font-size="13" font-family="Arial, sans-serif" font-weight="700" fill="#4C5C78">Germany</text><text x="595" y="135.43" font-size="13" font-family="Arial, sans-serif" font-weight="700" fill="#fff" stroke="#fff" stroke-linecap="round" stroke-linejoin="round" stroke-width=".25em">Switzerland</text><text x="595" y="135.43" font-size="13" font-family="Arial, sans-serif" font-weight="700" fill="#4C5C78">Switzerland</text><text x="343" y="166.43" font-size="13" font-family="Arial, sans-serif" font-weight="700" fill="#fff" stroke="#fff" stroke-linecap="round" stroke-linejoin="round" stroke-width=".25em">Spain</text><text x="343" y="166.43" font-size="13" font-family="Arial, sans-serif" font-weight="700" fill="#4C5C78">Spain</text><text x="269" y="270.43" font-size="13" font-family="Arial, sans-serif" font-weight="700" fill="#fff" stroke="#fff" stroke-linecap="round" stroke-linejoin="round" stroke-width=".25em">Russia</text><text x="269" y="270.43" font-size="13" font-family="Arial, sans-serif" font-weight="700" fill="#4C5C78">Russia</text><text x="509" y="214.43" font-size="13" font-family="Arial, sans-serif" font-weight="700" fill="#fff" stroke="#fff" stroke-linecap="round" stroke-linejoin="round" stroke-width=".25em">United States</text><text x="509" y="214.43" font-size="13" font-family="Arial, sans-serif" font-weight="700" fill="#000">United States</text><text x="139" y="367.43" font-size="13" font-family="Arial, sans-serif" font-weight="700" fill="#fff" stroke="#fff" stroke-linecap="round" stroke-linejoin="round" stroke-width=".25em">Angola</text><text x="139" y="367.43" font-size="13" font-family="Arial, sans-serif" font-weight="700" fill="#923E8B">Angola</text><text x="442" y="156.43" font-size="13" font-family="Arial, sans-serif" font-weight="700" fill="#fff" stroke="#fff" stroke-linecap="round" stroke-linejoin="round" stroke-width=".25em">Australia</text><text x="442" y="156.43" font-size="13" font-family="Arial, sans-serif" font-weight="700" fill="#A8633C">Australia</text><text x="192" y="272.43" font-size="13" font-family="Arial, sans-serif" font-weight="700" fill="#fff" stroke="#fff" stroke-linecap="round" stroke-linejoin="round" stroke-width=".25em">Brazil</text><text x="192" y="272.43" font-size="13" font-family="Arial, sans-serif" font-weight="700" fill="#c8c8c8">Brazil</text><text x="520.11" y="193.43" font-size="13" font-family="Arial, sans-serif" font-weight="700" fill="#fff" stroke="#fff" stroke-linecap="round" stroke-linejoin="round" stroke-width=".25em">United Arab Emirates</text><text x="520.11" y="193.43" font-size="13" font-family="Arial, sans-serif" font-weight="700" fill="#2D8587">United Arab Emirates</text><text x="80" y="285.43" font-size="13" font-family="Arial, sans-serif" font-weight="700" fill="#fff" stroke="#fff" stroke-linecap="round" stroke-linejoin="round" stroke-width=".25em">Zimbabwe</text><text x="80" y="285.43" font-size="13" font-family="Arial, sans-serif" font-weight="700" fill="#923E8B">Zimbabwe</text><text x="642" y="158.43" font-size="13" font-family="Arial, sans-serif" font-weight="700" fill="#fff" stroke="#fff" stroke-linecap="round" stroke-linejoin="round" stroke-width=".25em">Singapore</text><text x="642" y="158.43" font-size="13" font-family="Arial, sans-serif" font-weight="700" fill="#2D8587">Singapore</text><text x="180" y="208.43" font-size="13" font-family="Arial, sans-serif" font-weight="700" fill="#fff" stroke="#fff" stroke-linecap="round" stroke-linejoin="round" stroke-width=".25em">Serbia</text><text x="180" y="208.43" font-size="13" font-family="Arial, sans-serif" font-weight="700" fill="#4C5C78">Serbia</text><text x="673.93" y="173.43" font-size="13" font-family="Arial, sans-serif" font-weight="700" fill="#fff" stroke="#fff" stroke-linecap="round" stroke-linejoin="round" stroke-width=".25em">Norway</text><text x="673.93" y="173.43" font-size="13" font-family="Arial, sans-serif" font-weight="700" fill="#4C5C78">Norway</text><text x="77" y="407.43" font-size="13" font-family="Arial, sans-serif" font-weight="700" fill="#fff" stroke="#fff" stroke-linecap="round" stroke-linejoin="round" stroke-width=".25em">Mali</text><text x="77" y="407.43" font-size="13" font-family="Arial, sans-serif" font-weight="700" fill="#923E8B">Mali</text><text x="175" y="349.43" font-size="13" font-family="Arial, sans-serif" font-weight="700" fill="#fff" stroke="#fff" stroke-linecap="round" stroke-linejoin="round" stroke-width=".25em">Iraq</text><text x="175" y="349.43" font-size="13" font-family="Arial, sans-serif" font-weight="700" fill="#2D8587">Iraq</text><text x="110" y="357.43" font-size="13" font-family="Arial, sans-serif" font-weight="700" fill="#fff" stroke="#fff" stroke-linecap="round" stroke-linejoin="round" stroke-width=".25em">India</text><text x="110" y="357.43" font-size="13" font-family="Arial, sans-serif" font-weight="700" fill="#2D8587">India</text><text x="283" y="186.43" font-size="13" font-family="Arial, sans-serif" font-weight="700" fill="#fff" stroke="#fff" stroke-linecap="round" stroke-linejoin="round" stroke-width=".25em">Estonia</text><text x="283" y="186.43" font-size="13" font-family="Arial, sans-serif" font-weight="700" fill="#4C5C78">Estonia</text><text x="405" y="318.43" font-size="13" font-family="Arial, sans-serif" font-weight="700" fill="#fff" stroke="#fff" stroke-linecap="round" stroke-linejoin="round" stroke-width=".25em">Equatorial Guinea</text><text x="405" y="318.43" font-size="13" font-family="Arial, sans-serif" font-weight="700" fill="#923E8B">Equatorial Guinea</text><text x="165" y="311.43" font-size="13" font-family="Arial, sans-serif" font-weight="700" fill="#fff" stroke="#fff" stroke-linecap="round" stroke-linejoin="round" stroke-width=".25em">China</text><text x="165" y="311.43" font-size="13" font-family="Arial, sans-serif" font-weight="700" fill="#2D8587">China</text><text x="389" y="292.43" font-size="13" font-family="Arial, sans-serif" font-weight="700" fill="#fff" stroke="#fff" stroke-linecap="round" stroke-linejoin="round" stroke-width=".25em">Oman</text><text x="389" y="292.43" font-size="13" font-family="Arial, sans-serif" font-weight="700" fill="#2D8587">Oman</text></g><g class="ScatterColorLegend clickable" cursor="pointer"><g class="legendMark"><path fill="#923E8B" d="M738.09 94h9v9h-9z"/><text font-size="12.6" x="752.1" y="102.3"><tspan x="752.09" y="102.28">Africa</tspan></text></g><g class="legendMark"><path fill="#2D8587" d="M738.09 111.6h9v9h-9z"/><text font-size="12.6" x="752.1" y="119.9"><tspan x="752.09" y="119.88">Asia</tspan></text></g><g class="legendMark"><path fill="#4C5C78" d="M738.09 129.2h9v9h-9z"/><text font-size="12.6" x="752.1" y="137.5"><tspan x="752.09" y="137.48">Europe</tspan></text></g><g class="legendMark"><path fill="#000" d="M738.09 146.8h9v9h-9z"/><text font-size="12.6" x="752.1" y="155.1"><tspan x="752.09" y="155.08">North America</tspan></text></g><g class="legendMark"><path fill="#A8633C" d="M738.09 164.4h9v9h-9z"/><text font-size="12.6" x="752.1" y="172.7"><tspan x="752.09" y="172.68">Oceania</tspan></text></g><g class="legendMark"><path fill="#c8c8c8" d="M738.09 182h9v9h-9z"/><text font-size="12.6" x="752.1" y="190.3"><tspan x="752.09" y="190.28">South America</tspan></text></g></g></g><g class="SourcesFooter" fill="#777"><g class="clickable" fill="#777"><text font-size="12.6" x="15" y="554.2"><tspan x="15" y="554.18">Source: Jaiteh et al. (2014), Maddison Project Database (2018)</tspan></text></g><text font-size="12.6" x="15" y="568.8"><tspan x="15" y="568.78">Note: See the first part of the graph on: https://tinyco.re/3002963. Environmental Performance Indices are displayed on the &apos;MAP&apos; tab.</tspan><tspan x="15" y="582.64">CC-BY-ND-NC</tspan></text><text font-size="12.6" x="538.9" y="554.2"><tspan x="538.9" y="554.18"><a target="_blank" href="https://tinyco.re/20102551" fill="#777">tinyco.re/20102551</a> • <a href="https://ourworldindata.org" target="_blank">Powered by ourworldindata.org</a></tspan></text></g></svg>