<svg xmlns="http://www.w3.org/2000/svg" version="1.1" style="background-color:#fff;-webkit-font-smoothing:antialiased" width="850" height="600" viewBox="0 0 850 600" font-family="Lato,'Helvetica Neue',Helvetica,Arial,sans-serif" font-size="18" text-rendering="optimizeLegibility"><g class="HeaderView"><g transform="matrix(.95 0 0 .95 739 15)"><svg width="102" height="37" viewBox="0 0 102 37" fill="none" xmlns="http://www.w3.org/2000/svg"><path d="M47 0H0v37h47V0z" fill="#EA4148"/><path d="M3.78 11.85c0-3.55 2.67-5.6 5.68-5.6a4.63 4.63 0 013.09 1.1l-1.7 2.36c-.31-.32-.74-.5-1.18-.52-1.36 0-2.16 1.03-2.16 2.66 0 1.62.89 2.65 2.03 2.65a2.93 2.93 0 001.7-.69l1.4 2.4a5.29 5.29 0 01-3.52 1.24c-3 0-5.34-2.05-5.34-5.6z" fill="#fff"/><path d="M18.85 11.85c0-1.63-.42-2.66-1.52-2.66s-1.52 1.03-1.52 2.66c0 1.62.42 2.65 1.52 2.65s1.52-1.03 1.52-2.65zm-6.77 0c0-3.55 2.54-5.6 5.25-5.6 2.7 0 5.25 2.05 5.25 5.6s-2.54 5.6-5.25 5.6-5.25-2.05-5.25-5.6M23.34 6.5h2.97l.25 1.84h.09c.78-1.46 1.97-2.1 3-2.1.45-.02.9.05 1.32.22l-.6 3.16c-.38-.1-.78-.16-1.18-.17-.76 0-1.7.47-2.2 1.8v5.94h-3.65V6.5zm13.64 4.06c0-.81-.34-1.54-1.44-1.54-.8 0-1.49.47-1.7 1.54h3.14zm-6.6 1.29c0-3.47 2.49-5.6 5.07-5.6 3.13 0 4.62 2.3 4.62 5.17 0 .52-.05 1.03-.15 1.54h-6.04c.34 1.28 1.27 1.71 2.46 1.71a4.3 4.3 0 002.16-.64l1.18 2.18a7.08 7.08 0 01-3.85 1.24c-3.09 0-5.46-2.05-5.46-5.6" fill="#fff"/><path d="M10.43 23.87c0-.81-.34-1.54-1.44-1.54-.8 0-1.48.47-1.69 1.54h3.13zm-6.6 1.28c0-3.46 2.5-5.6 5.08-5.6 3.13 0 4.61 2.3 4.61 5.18 0 .51-.05 1.03-.15 1.54H7.34c.34 1.28 1.27 1.7 2.46 1.7.76-.01 1.5-.23 2.16-.63l1.18 2.18a7.08 7.08 0 01-3.85 1.24c-3.1 0-5.46-2.06-5.46-5.6m10.07-.01c0-3.55 2.67-5.6 5.68-5.6a4.63 4.63 0 013.09 1.11l-1.7 2.35c-.32-.31-.74-.5-1.18-.51-1.36 0-2.16 1.03-2.16 2.65 0 1.63.89 2.66 2.03 2.66a2.93 2.93 0 001.7-.69l1.39 2.4a5.29 5.29 0 01-3.51 1.24c-3 0-5.34-2.06-5.34-5.6" fill="#1A1818"/><path d="M28.97 25.15c0-1.62-.42-2.65-1.52-2.65s-1.52 1.03-1.52 2.65c0 1.63.42 2.66 1.52 2.66s1.52-1.03 1.52-2.66zm-6.77 0c0-3.55 2.54-5.6 5.25-5.6 2.7 0 5.25 2.05 5.25 5.6s-2.54 5.6-5.25 5.6-5.25-2.04-5.25-5.6m11.34-5.35h2.97l.25 1.29h.09a4.76 4.76 0 013.34-1.54c2.33 0 3.3 1.71 3.3 4.36v6.6h-3.64v-6.13c0-1.37-.34-1.7-1.06-1.7-.67 0-1.05.3-1.6.8v7.02h-3.65V19.8z" fill="#1A1818"/><path fill="#fff" d="M48 0h54v37H48z"/><path d="M48 0h53.93v33H48V0z" fill="#002147"/><path d="M58.42 10.86c0 .61-.1 1.18-.3 1.7a3.83 3.83 0 01-2.15 2.21c-.5.21-1.07.32-1.7.32-.6 0-1.17-.1-1.68-.32a3.9 3.9 0 01-2.15-2.21c-.2-.52-.3-1.09-.3-1.7 0-.61.1-1.18.3-1.7a3.93 3.93 0 012.15-2.22 4.38 4.38 0 011.69-.31c.62 0 1.18.1 1.69.31a3.79 3.79 0 012.15 2.22c.2.52.3 1.09.3 1.7zm-1.38 0c0-.48-.06-.9-.2-1.28A2.38 2.38 0 0055.43 8a2.97 2.97 0 00-1.14-.21c-.42 0-.8.07-1.15.21-.34.14-.63.35-.87.61a2.8 2.8 0 00-.56.97c-.13.38-.2.8-.2 1.28s.07.9.2 1.29a2.46 2.46 0 001.43 1.57c.35.14.73.2 1.15.2.42 0 .8-.06 1.15-.2a2.4 2.4 0 001.42-1.57c.13-.38.2-.81.2-1.29zm7.14-1.72V15h-.74c-.17 0-.27-.08-.32-.24l-.1-.54a3.42 3.42 0 01-.81.63 2.3 2.3 0 01-1.06.24c-.32 0-.6-.05-.85-.16a1.72 1.72 0 01-1-1.15 3.1 3.1 0 01-.12-.91V9.14h1.24v3.73c0 .4.09.7.27.92.18.22.46.32.83.32.27 0 .53-.06.76-.18.24-.13.46-.3.67-.52V9.13h1.23zm2.33 1.08c.18-.37.4-.66.66-.87.27-.22.58-.32.94-.32a1.34 1.34 0 01.66.17l-.09.93a.26.26 0 01-.07.14.2.2 0 01-.13.03c-.06 0-.14 0-.25-.03a1.62 1.62 0 00-.8.04c-.13.05-.25.13-.35.22-.1.1-.2.21-.28.35-.08.14-.15.3-.22.47V15h-1.24V9.13h.72c.13 0 .22.03.27.08.05.05.08.13.1.25l.08.76zm16-3.5L79.94 15h-1.21l-1.95-5.95a4.7 4.7 0 01-.12-.46 3.32 3.32 0 01-.13.46L74.57 15h-1.22l-2.57-8.28h1.13c.11 0 .2.03.28.09.08.05.14.12.16.22l1.56 5.3a6.11 6.11 0 01.16.8 10 10 0 01.2-.8l1.78-5.3a.48.48 0 01.16-.21.4.4 0 01.28-.1h.4c.11 0 .21.03.28.1.08.05.13.12.17.21l1.77 5.3.1.37.1.4a59.35 59.35 0 00.16-.76L81 7.03a.4.4 0 01.16-.22.49.49 0 01.3-.09h1.04zm2.41 2.32c.44 0 .83.07 1.18.22a2.49 2.49 0 011.47 1.55c.13.37.2.79.2 1.25 0 .47-.07.88-.2 1.26-.14.37-.33.69-.58.95a2.87 2.87 0 01-2.07.82c-.43 0-.83-.07-1.18-.22a2.55 2.55 0 01-1.47-1.55c-.14-.38-.2-.8-.2-1.26 0-.46.06-.88.2-1.25a2.55 2.55 0 011.47-1.55c.35-.15.75-.22 1.18-.22zm0 5.08c.53 0 .92-.18 1.18-.53.26-.36.4-.86.4-1.52s-.14-1.17-.4-1.53c-.26-.36-.65-.54-1.18-.54-.53 0-.93.18-1.2.54-.25.36-.38.87-.38 1.53s.13 1.16.39 1.52c.26.35.66.53 1.2.53zm4.86-3.9c.18-.37.4-.66.67-.87.26-.22.57-.32.93-.32a1.34 1.34 0 01.66.17l-.09.93a.26.26 0 01-.07.14.2.2 0 01-.13.03c-.06 0-.14 0-.25-.03a1.62 1.62 0 00-.8.04 1.29 1.29 0 00-.63.57c-.08.14-.15.3-.22.47V15H88.6V9.13h.72c.13 0 .22.03.27.08.05.05.08.13.1.25l.08.76zm4-3.73V15h-1.25V6.49h1.24zm4.91 4.09a1.45 1.45 0 00-1.24-.6c-.48 0-.86.18-1.13.54-.27.35-.4.87-.4 1.56 0 .37.02.67.08.93.07.25.15.46.27.62.11.16.25.28.42.35.16.08.35.11.56.11.31 0 .58-.07.8-.2.24-.14.45-.33.64-.58v-2.73zm1.24-4.09V15h-.75c-.16 0-.27-.08-.31-.24l-.11-.63c-.25.28-.53.52-.84.7-.31.17-.67.26-1.09.26a1.96 1.96 0 01-1.59-.78 2.73 2.73 0 01-.44-.94 4.86 4.86 0 01.01-2.5c.12-.37.3-.7.51-.96a2.3 2.3 0 011.85-.88c.34 0 .63.05.88.16.24.11.45.26.64.46V6.49h1.24zm-39.9 14.65V27h-1.24v-5.86h1.24zm.2-1.78c0 .12-.02.22-.06.32a.83.83 0 01-1.34.26.8.8 0 01-.24-.58c0-.11.02-.22.06-.32a.89.89 0 01.43-.43.76.76 0 01.64 0 .81.81 0 01.45.43c.04.1.06.2.06.32zm2.16 2.55a3.67 3.67 0 01.83-.63 2.32 2.32 0 011.9-.08c.24.11.45.26.61.46.17.2.3.43.38.7.09.28.13.58.13.9V27H65v-3.73c0-.4-.1-.7-.28-.92-.18-.22-.45-.33-.83-.33-.27 0-.53.06-.77.19-.23.13-.45.3-.66.52V27h-1.23v-5.86h.74c.17 0 .28.07.33.23l.08.54zm14.96.95c0 .61-.1 1.17-.3 1.68a3.78 3.78 0 01-2.15 2.16c-.5.2-1.07.3-1.69.3H70.1v-8.28h3.12c.62 0 1.19.1 1.7.3a3.71 3.71 0 012.14 2.16c.2.5.3 1.07.3 1.68zm-1.37 0c0-.48-.07-.9-.2-1.28a2.6 2.6 0 00-.55-.96 2.35 2.35 0 00-.87-.6 2.97 2.97 0 00-1.15-.21h-1.77v6.1h1.77c.43 0 .81-.07 1.15-.2a2.42 2.42 0 001.42-1.56c.13-.38.2-.81.2-1.29zm5.27 1.58a7.5 7.5 0 00-1.12.1c-.3.06-.55.13-.73.22a.97.97 0 00-.41.3.68.68 0 00-.12.4c0 .13.02.25.06.35.05.1.1.18.18.24.08.06.18.1.28.14a1.78 1.78 0 001.18-.14c.23-.12.46-.3.68-.53v-1.08zm-3.28-2.49a3.36 3.36 0 012.37-.92c.34 0 .63.05.9.16a1.83 1.83 0 011.06 1.18c.1.27.15.57.15.9V27h-.55a.56.56 0 01-.27-.05.42.42 0 01-.16-.23l-.12-.47-.44.36c-.15.1-.3.2-.46.26a2.77 2.77 0 01-1.75.12c-.2-.06-.38-.16-.53-.29a1.46 1.46 0 01-.48-1.18c0-.23.06-.45.18-.66.12-.22.32-.41.6-.58a4 4 0 011.1-.43 8.03 8.03 0 011.68-.19v-.39c0-.42-.1-.73-.27-.94-.18-.2-.45-.3-.8-.3-.23-.01-.43.02-.6.08a6.05 6.05 0 00-.74.39.54.54 0 01-.28.08.38.38 0 01-.22-.06.6.6 0 01-.15-.17l-.22-.4zm7.38 5.14c-.48 0-.86-.13-1.12-.4-.26-.28-.4-.67-.4-1.17v-3.41h-.64a.27.27 0 01-.18-.07c-.05-.04-.07-.11-.07-.2v-.5l.95-.14.27-1.7a.31.31 0 01.1-.15c.04-.04.1-.06.18-.06h.63v1.93h1.63v.89h-1.63v3.33c0 .2.05.37.16.48.1.11.24.17.41.17a.79.79 0 00.43-.12 4 4 0 00.12-.08.2.2 0 01.11-.04c.07 0 .13.04.17.11l.37.6c-.2.18-.42.3-.68.4a2.5 2.5 0 01-.8.13zm5.11-2.65a7.5 7.5 0 00-1.11.1 3 3 0 00-.74.22.97.97 0 00-.4.3.68.68 0 00-.13.4c0 .13.02.25.06.35.05.1.11.18.19.24s.17.1.28.14a1.78 1.78 0 001.18-.14c.23-.12.45-.3.67-.53v-1.08zm-3.28-2.49a3.36 3.36 0 012.37-.92c.34 0 .64.05.9.16.27.11.49.26.66.46.18.2.32.44.41.72.1.27.14.57.14.9V27h-.55a.56.56 0 01-.27-.05c-.06-.04-.11-.11-.15-.23l-.12-.47-.45.36c-.14.1-.3.2-.45.26a2.77 2.77 0 01-1.75.12c-.2-.06-.38-.16-.53-.29a1.46 1.46 0 01-.49-1.18c0-.23.06-.45.18-.66.12-.22.32-.41.6-.58.28-.17.65-.31 1.1-.43a8.03 8.03 0 011.68-.19v-.39c0-.42-.09-.73-.27-.94-.18-.2-.44-.3-.8-.3a1.5 1.5 0 00-.59.08 6.09 6.09 0 00-.74.39.54.54 0 01-.29.08.38.38 0 01-.22-.06.6.6 0 01-.14-.17l-.23-.4z" fill="#fff"/><path fill="#D42B21" d="M48 32.65h54V37H48z"/></svg></g><a href="https://ourworldindata.org/grapher/catching-up-and-stagnating-manufacturing-wages-relative-to-the-us-19502016?tab=chart&amp;stackMode=absolute&amp;region=World" target="_blank" rel="noopener" font-family="&quot;Playfair Display&quot;,Georgia,&quot;Times New Roman&quot;,serif"><text font-size="21.6" x="15" y="32.3" fill="#555"><tspan x="15" y="32.28">Catching up and stagnating: Manufacturing wages relative to the US</tspan><tspan x="15" y="53.88">(1950–2016)</tspan></text></a><text font-size="14.4" x="15" y="74.7" fill="#666"><tspan x="15" y="74.72">Unit 18 &apos;The nation and the world economy’ Section 18.10 &apos;Trade and growth&apos; in The CORE Team, The Economy. Available at</tspan><tspan x="15" y="92">https://tinyco.re/18102330 [Figure 18.23]</tspan></text></g><g class="LineChart"><defs><clipPath id="a"><path d="M37.22 0h830v863.2h-830z"/></clipPath></defs><g class="DualAxisView"><g class="HorizontalAxis"><path stroke="#ccc" d="M47.2 521.6v4M148.9 521.6v4M250.7 521.6v4M352.4 521.6v4M454.1 521.6v4M555.8 521.6v4M657.6 521.6v4M718.6 521.6v4"/><text x="47.2" y="542.8" fill="#666" text-anchor="middle" font-size="16.2">1950</text><text x="148.9" y="542.8" fill="#666" text-anchor="middle" font-size="16.2">1960</text><text x="250.7" y="542.8" fill="#666" text-anchor="middle" font-size="16.2">1970</text><text x="352.4" y="542.8" fill="#666" text-anchor="middle" font-size="16.2">1980</text><text x="454.1" y="542.8" fill="#666" text-anchor="middle" font-size="16.2">1990</text><text x="555.8" y="542.8" fill="#666" text-anchor="middle" font-size="16.2">2000</text><text x="657.6" y="542.8" fill="#666" text-anchor="middle" font-size="16.2">2010</text><text x="718.6" y="542.8" fill="#666" text-anchor="middle" font-size="16.2">2016</text></g><g class="VerticalAxis" fill="#666" dominant-baseline="middle" text-anchor="end" font-size="16.2"><text x="42.22" y="491.5">2</text><text x="42.22" y="411">5</text><text x="42.22" y="350.1">10</text><text x="42.22" y="289.2">20</text><text x="42.22" y="208.7">50</text><text x="42.22" y="147.8">100</text></g><g class="AxisGridLines horizontalLines" stroke-dasharray="3,2"><path stroke="#d3d3d3" d="M47.22 491.5H718.6"/><path stroke="#eee" d="M47.22 455.9H718.6M47.22 430.6H718.6"/><path stroke="#d3d3d3" d="M47.22 411H718.6"/><path stroke="#eee" d="M47.22 395H718.6M47.22 381.5H718.6M47.22 369.7H718.6M47.22 359.4H718.6"/><path stroke="#d3d3d3" d="M47.22 350.1H718.6M47.22 289.2H718.6"/><path stroke="#eee" d="M47.22 253.6H718.6M47.22 228.3H718.6"/><path stroke="#d3d3d3" d="M47.22 208.7H718.6"/><path stroke="#eee" d="M47.22 192.7H718.6M47.22 179.2H718.6M47.22 167.5H718.6M47.22 157.1H718.6"/><path stroke="#d3d3d3" d="M47.22 147.8H718.6"/></g></g><g clip-path="url(#a)"><g class="LineLabels" cursor="pointer"><g class="legendMark"><text font-size="13.5" x="722.6" y="139.6" fill="#f6a324"><tspan x="722.6" y="139.55">Germany</tspan></text></g><g class="legendMark"><text font-size="13.5" x="722.6" y="155.1" fill="#c8c8c8"><tspan x="722.6" y="155.05">United States</tspan></text></g><g class="legendMark"><text font-size="13.5" x="722.6" y="176.1" fill="#ca2628"><tspan x="722.6" y="176.05">Japan</tspan></text></g><g class="legendMark"><text font-size="13.5" x="722.6" y="191.6" fill="#3360a9"><tspan x="722.6" y="191.55">South Korea</tspan></text></g><g class="legendMark"><text font-size="13.5" x="722.6" y="324.4" fill="#34983f"><tspan x="722.6" y="324.45">Mexico</tspan></text></g><g class="legendMark"><text font-size="13.5" x="722.6" y="358.7" fill="#a652ba"><tspan x="722.6" y="358.65">China</tspan></text></g><g class="legendMark"><text font-size="13.5" x="722.6" y="412.2" fill="#7ec7ce"><tspan x="722.6" y="412.15">Philippines</tspan></text></g><g class="legendMark"><text font-size="13.5" x="722.6" y="479.6" fill="#000"><tspan x="722.6" y="479.55">Sri Lanka</tspan></text></g></g><g class="Lines"><g class="key-China_0"><path stroke="#a652ba" stroke-linecap="round" d="M352 474l11 8 10 8 10 9 10 11 10 12 10-5 11-3 10-3 10-4 10-3 10-3 11-3 10-3 10-3 10-2 10-4 10-4 11-4 10-4 10-3 10-2 10-3 10-2 11-16 10-14 10-12 10-11 10-10 10-9 11-21 10-16" fill="none" stroke-width="1.5"/><g fill="#a652ba"><circle cx="352" cy="474" r="2"/><circle cx="363" cy="482" r="2"/><circle cx="373" cy="490" r="2"/><circle cx="383" cy="499" r="2"/><circle cx="393" cy="510" r="2"/><circle cx="403" cy="522" r="2"/><circle cx="413" cy="517" r="2"/><circle cx="424" cy="514" r="2"/><circle cx="434" cy="511" r="2"/><circle cx="444" cy="507" r="2"/><circle cx="454" cy="504" r="2"/><circle cx="464" cy="501" r="2"/><circle cx="475" cy="498" r="2"/><circle cx="485" cy="495" r="2"/><circle cx="495" cy="492" r="2"/><circle cx="505" cy="490" r="2"/><circle cx="515" cy="486" r="2"/><circle cx="525" cy="482" r="2"/><circle cx="536" cy="478" r="2"/><circle cx="546" cy="474" r="2"/><circle cx="556" cy="471" r="2"/><circle cx="566" cy="469" r="2"/><circle cx="576" cy="466" r="2"/><circle cx="586" cy="464" r="2"/><circle cx="597" cy="448" r="2"/><circle cx="607" cy="434" r="2"/><circle cx="617" cy="422" r="2"/><circle cx="627" cy="411" r="2"/><circle cx="637" cy="401" r="2"/><circle cx="647" cy="392" r="2"/><circle cx="658" cy="371" r="2"/><circle cx="668" cy="355" r="2"/></g></g><g class="key-Germany_0"><path stroke="#f6a324" stroke-linecap="round" d="M47 275l10-1 11-2 10-1 10-1 10-2 10-4 10-4 11-4 10-3 10-4 10-7 10-7 11-7 10-6 10-6 10-5 10-4 10-4 11-5 10-4 10-7 10-6 10-6 10-6 11-5 10 2 10-5 10-10 10-7h10l11 23 10 8 10 4 10 10 10 2 10-28 11-19 10-4 10 5 10-14 10 1 11-8 10 2 10-2 10-13 10 5 10 13 11 3 10 6 10 10 10 5 10-3 10-15 11-6 10 2 10-2 10-5 10-6 10 5 11 4 10-4 10 3 10-3 10-1 10 15 11 2" fill="none" stroke-width="1.5"/><g fill="#f6a324"><circle cx="47" cy="275" r="2"/><circle cx="57" cy="274" r="2"/><circle cx="68" cy="272" r="2"/><circle cx="78" cy="271" r="2"/><circle cx="88" cy="270" r="2"/><circle cx="98" cy="268" r="2"/><circle cx="108" cy="264" r="2"/><circle cx="118" cy="260" r="2"/><circle cx="129" cy="256" r="2"/><circle cx="139" cy="253" r="2"/><circle cx="149" cy="249" r="2"/><circle cx="159" cy="242" r="2"/><circle cx="169" cy="235" r="2"/><circle cx="180" cy="228" r="2"/><circle cx="190" cy="222" r="2"/><circle cx="200" cy="216" r="2"/><circle cx="210" cy="211" r="2"/><circle cx="220" cy="207" r="2"/><circle cx="230" cy="203" r="2"/><circle cx="241" cy="198" r="2"/><circle cx="251" cy="194" r="2"/><circle cx="261" cy="187" r="2"/><circle cx="271" cy="181" r="2"/><circle cx="281" cy="175" r="2"/><circle cx="291" cy="169" r="2"/><circle cx="302" cy="164" r="2"/><circle cx="312" cy="166" r="2"/><circle cx="322" cy="161" r="2"/><circle cx="332" cy="151" r="2"/><circle cx="342" cy="144" r="2"/><circle cx="352" cy="144" r="2"/><circle cx="363" cy="167" r="2"/><circle cx="373" cy="175" r="2"/><circle cx="383" cy="179" r="2"/><circle cx="393" cy="189" r="2"/><circle cx="403" cy="191" r="2"/><circle cx="413" cy="163" r="2"/><circle cx="424" cy="144" r="2"/><circle cx="434" cy="140" r="2"/><circle cx="444" cy="145" r="2"/><circle cx="454" cy="131" r="2"/><circle cx="464" cy="132" r="2"/><circle cx="475" cy="124" r="2"/><circle cx="485" cy="126" r="2"/><circle cx="495" cy="124" r="2"/><circle cx="505" cy="111" r="2"/><circle cx="515" cy="116" r="2"/><circle cx="525" cy="129" r="2"/><circle cx="536" cy="132" r="2"/><circle cx="546" cy="138" r="2"/><circle cx="556" cy="148" r="2"/><circle cx="566" cy="153" r="2"/><circle cx="576" cy="150" r="2"/><circle cx="586" cy="135" r="2"/><circle cx="597" cy="129" r="2"/><circle cx="607" cy="131" r="2"/><circle cx="617" cy="129" r="2"/><circle cx="627" cy="124" r="2"/><circle cx="637" cy="118" r="2"/><circle cx="647" cy="123" r="2"/><circle cx="658" cy="127" r="2"/><circle cx="668" cy="123" r="2"/><circle cx="678" cy="126" r="2"/><circle cx="688" cy="123" r="2"/><circle cx="698" cy="122" r="2"/><circle cx="708" cy="137" r="2"/><circle cx="719" cy="139" r="2"/></g></g><g class="key-Japan_0"><path stroke="#ca2628" stroke-linecap="round" d="M98 358l10-1 10-1 11-2 10-1 10-1 10-10 10-9 11-8 10-7 10-7 10-9 10-8 10-7 11-7 10-6 10-16 10-14 10-12 10-10 11-10 10 1 10-9 10-20 10 9 10 6h11l10 13 10-3h10l10 2 10-31 11-12 10-12 10 4 10 3 10-9 11-7 10-11 10-7 10-8 10 15 10 9 11 8 10-11 10-2 10 14 10 7 10-4 11-4 10 4 10 7 10 5 10-12 10-6 11-4 10-8 10 2 10 19 10 7 10 14 11-7" fill="none" stroke-width="1.5"/><g fill="#ca2628"><circle cx="98" cy="358" r="2"/><circle cx="108" cy="357" r="2"/><circle cx="118" cy="356" r="2"/><circle cx="129" cy="354" r="2"/><circle cx="139" cy="353" r="2"/><circle cx="149" cy="352" r="2"/><circle cx="159" cy="342" r="2"/><circle cx="169" cy="333" r="2"/><circle cx="180" cy="325" r="2"/><circle cx="190" cy="318" r="2"/><circle cx="200" cy="311" r="2"/><circle cx="210" cy="302" r="2"/><circle cx="220" cy="294" r="2"/><circle cx="230" cy="287" r="2"/><circle cx="241" cy="280" r="2"/><circle cx="251" cy="274" r="2"/><circle cx="261" cy="258" r="2"/><circle cx="271" cy="244" r="2"/><circle cx="281" cy="232" r="2"/><circle cx="291" cy="222" r="2"/><circle cx="302" cy="212" r="2"/><circle cx="312" cy="213" r="2"/><circle cx="322" cy="204" r="2"/><circle cx="332" cy="184" r="2"/><circle cx="342" cy="193" r="2"/><circle cx="352" cy="199" r="2"/><circle cx="363" cy="199" r="2"/><circle cx="373" cy="212" r="2"/><circle cx="383" cy="209" r="2"/><circle cx="393" cy="209" r="2"/><circle cx="403" cy="211" r="2"/><circle cx="413" cy="180" r="2"/><circle cx="424" cy="168" r="2"/><circle cx="434" cy="156" r="2"/><circle cx="444" cy="160" r="2"/><circle cx="454" cy="163" r="2"/><circle cx="464" cy="154" r="2"/><circle cx="475" cy="147" r="2"/><circle cx="485" cy="136" r="2"/><circle cx="495" cy="129" r="2"/><circle cx="505" cy="121" r="2"/><circle cx="515" cy="136" r="2"/><circle cx="525" cy="145" r="2"/><circle cx="536" cy="153" r="2"/><circle cx="546" cy="142" r="2"/><circle cx="556" cy="140" r="2"/><circle cx="566" cy="154" r="2"/><circle cx="576" cy="161" r="2"/><circle cx="586" cy="157" r="2"/><circle cx="597" cy="153" r="2"/><circle cx="607" cy="157" r="2"/><circle cx="617" cy="164" r="2"/><circle cx="627" cy="169" r="2"/><circle cx="637" cy="157" r="2"/><circle cx="647" cy="151" r="2"/><circle cx="658" cy="147" r="2"/><circle cx="668" cy="139" r="2"/><circle cx="678" cy="141" r="2"/><circle cx="688" cy="160" r="2"/><circle cx="698" cy="167" r="2"/><circle cx="708" cy="181" r="2"/><circle cx="719" cy="174" r="2"/></g></g><g class="key-Mexico_0"><path stroke="#34983f" stroke-linecap="round" d="M342 265h10l11-1h10l10 7 10 9 10 10 10 22 11 15 10 4 10 5 10 4 10-7 11-9 10-9 10-6 10 2 10 5 10 5 11 8 10 6 10-6 10-8 10-6 10-4 11-1h20l10 1 10-2h21l10 1 10 1h10l10-1 10 2 11 8" fill="none" stroke-width="1.5"/><g fill="#34983f"><circle cx="342" cy="265" r="2"/><circle cx="352" cy="265" r="2"/><circle cx="363" cy="264" r="2"/><circle cx="373" cy="264" r="2"/><circle cx="383" cy="271" r="2"/><circle cx="393" cy="280" r="2"/><circle cx="403" cy="290" r="2"/><circle cx="413" cy="312" r="2"/><circle cx="424" cy="327" r="2"/><circle cx="434" cy="331" r="2"/><circle cx="444" cy="336" r="2"/><circle cx="454" cy="340" r="2"/><circle cx="464" cy="333" r="2"/><circle cx="475" cy="324" r="2"/><circle cx="485" cy="315" r="2"/><circle cx="495" cy="309" r="2"/><circle cx="505" cy="311" r="2"/><circle cx="515" cy="316" r="2"/><circle cx="525" cy="321" r="2"/><circle cx="536" cy="329" r="2"/><circle cx="546" cy="335" r="2"/><circle cx="556" cy="329" r="2"/><circle cx="566" cy="321" r="2"/><circle cx="576" cy="315" r="2"/><circle cx="586" cy="311" r="2"/><circle cx="597" cy="310" r="2"/><circle cx="607" cy="310" r="2"/><circle cx="617" cy="310" r="2"/><circle cx="627" cy="311" r="2"/><circle cx="637" cy="309" r="2"/><circle cx="647" cy="309" r="2"/><circle cx="658" cy="309" r="2"/><circle cx="668" cy="310" r="2"/><circle cx="678" cy="311" r="2"/><circle cx="688" cy="311" r="2"/><circle cx="698" cy="310" r="2"/><circle cx="708" cy="312" r="2"/><circle cx="719" cy="320" r="2"/></g></g><g class="key-Philippines_0"><path stroke="#7ec7ce" stroke-linecap="round" d="M505 417l10-4 10-1 11 2 10 4 10 7 10 9 10 9 10 2 11 4h10l10-4 10-6 10-7 10-6 11-5 10-4 10-4 10-2 10-3 10-1 11 1" fill="none" stroke-width="1.5"/><g fill="#7ec7ce"><circle cx="505" cy="417" r="2"/><circle cx="515" cy="413" r="2"/><circle cx="525" cy="412" r="2"/><circle cx="536" cy="414" r="2"/><circle cx="546" cy="418" r="2"/><circle cx="556" cy="425" r="2"/><circle cx="566" cy="434" r="2"/><circle cx="576" cy="443" r="2"/><circle cx="586" cy="445" r="2"/><circle cx="597" cy="449" r="2"/><circle cx="607" cy="449" r="2"/><circle cx="617" cy="445" r="2"/><circle cx="627" cy="439" r="2"/><circle cx="637" cy="432" r="2"/><circle cx="647" cy="426" r="2"/><circle cx="658" cy="421" r="2"/><circle cx="668" cy="417" r="2"/><circle cx="678" cy="413" r="2"/><circle cx="688" cy="411" r="2"/><circle cx="698" cy="408" r="2"/><circle cx="708" cy="407" r="2"/><circle cx="719" cy="408" r="2"/></g></g><g class="key-South-Korea_0"><path stroke="#3360a9" stroke-linecap="round" d="M342 368l10-10 11-6 10-3 10-1 10 3h20l11-5 10-10 10-18 10-17 10-18 11-16 10-12 10-9 10-9 10-8 10-5 11 2 10-1h10l10 4 10 1 10-6 11-3 10-5 10-9 10-8 10-4 10 1h11l10 2 10 1 10-3 10-6 10-3 11-1" fill="none" stroke-width="1.5"/><g fill="#3360a9"><circle cx="342" cy="368" r="2"/><circle cx="352" cy="358" r="2"/><circle cx="363" cy="352" r="2"/><circle cx="373" cy="349" r="2"/><circle cx="383" cy="348" r="2"/><circle cx="393" cy="351" r="2"/><circle cx="403" cy="351" r="2"/><circle cx="413" cy="351" r="2"/><circle cx="424" cy="346" r="2"/><circle cx="434" cy="336" r="2"/><circle cx="444" cy="318" r="2"/><circle cx="454" cy="301" r="2"/><circle cx="464" cy="283" r="2"/><circle cx="475" cy="267" r="2"/><circle cx="485" cy="255" r="2"/><circle cx="495" cy="246" r="2"/><circle cx="505" cy="237" r="2"/><circle cx="515" cy="229" r="2"/><circle cx="525" cy="224" r="2"/><circle cx="536" cy="226" r="2"/><circle cx="546" cy="225" r="2"/><circle cx="556" cy="225" r="2"/><circle cx="566" cy="229" r="2"/><circle cx="576" cy="230" r="2"/><circle cx="586" cy="224" r="2"/><circle cx="597" cy="221" r="2"/><circle cx="607" cy="216" r="2"/><circle cx="617" cy="207" r="2"/><circle cx="627" cy="199" r="2"/><circle cx="637" cy="195" r="2"/><circle cx="647" cy="196" r="2"/><circle cx="658" cy="196" r="2"/><circle cx="668" cy="198" r="2"/><circle cx="678" cy="199" r="2"/><circle cx="688" cy="196" r="2"/><circle cx="698" cy="190" r="2"/><circle cx="708" cy="187" r="2"/><circle cx="719" cy="186" r="2"/></g></g><g class="key-Sri-Lanka_0"><path stroke="#000" stroke-linecap="round" d="M342 439l10 12 11 9 10 15 10 9 10 4 10 1 10-3 11-1 10-2 10-1 10-1 10-2 11-2 10-3 10-3 10-3h31l10 1 10 3 10 3 10 2 10 2 11 1h10l10-1 10-1 10-2" fill="none" stroke-width="1.5"/><g fill="#000"><circle cx="342" cy="439" r="2"/><circle cx="352" cy="451" r="2"/><circle cx="363" cy="460" r="2"/><circle cx="373" cy="475" r="2"/><circle cx="383" cy="484" r="2"/><circle cx="393" cy="488" r="2"/><circle cx="403" cy="489" r="2"/><circle cx="413" cy="486" r="2"/><circle cx="424" cy="485" r="2"/><circle cx="434" cy="483" r="2"/><circle cx="444" cy="482" r="2"/><circle cx="454" cy="481" r="2"/><circle cx="464" cy="479" r="2"/><circle cx="475" cy="477" r="2"/><circle cx="485" cy="474" r="2"/><circle cx="495" cy="471" r="2"/><circle cx="505" cy="468" r="2"/><circle cx="515" cy="468" r="2"/><circle cx="525" cy="468" r="2"/><circle cx="536" cy="468" r="2"/><circle cx="546" cy="469" r="2"/><circle cx="556" cy="472" r="2"/><circle cx="566" cy="475" r="2"/><circle cx="576" cy="477" r="2"/><circle cx="586" cy="479" r="2"/><circle cx="597" cy="480" r="2"/><circle cx="607" cy="480" r="2"/><circle cx="617" cy="479" r="2"/><circle cx="627" cy="478" r="2"/><circle cx="637" cy="476" r="2"/></g></g><g class="key-United-States_0"><path stroke="#c8c8c8" stroke-linecap="round" d="M47 148h672" fill="none" stroke-width="1.5"/><g fill="#c8c8c8"><circle cx="47" cy="148" r="2"/><circle cx="57" cy="148" r="2"/><circle cx="68" cy="148" r="2"/><circle cx="78" cy="148" r="2"/><circle cx="88" cy="148" r="2"/><circle cx="98" cy="148" r="2"/><circle cx="108" cy="148" r="2"/><circle cx="118" cy="148" r="2"/><circle cx="129" cy="148" r="2"/><circle cx="139" cy="148" r="2"/><circle cx="149" cy="148" r="2"/><circle cx="159" cy="148" r="2"/><circle cx="169" cy="148" r="2"/><circle cx="180" cy="148" r="2"/><circle cx="190" cy="148" r="2"/><circle cx="200" cy="148" r="2"/><circle cx="210" cy="148" r="2"/><circle cx="220" cy="148" r="2"/><circle cx="230" cy="148" r="2"/><circle cx="241" cy="148" r="2"/><circle cx="251" cy="148" r="2"/><circle cx="261" cy="148" r="2"/><circle cx="271" cy="148" r="2"/><circle cx="281" cy="148" r="2"/><circle cx="291" cy="148" r="2"/><circle cx="302" cy="148" r="2"/><circle cx="312" cy="148" r="2"/><circle cx="322" cy="148" r="2"/><circle cx="332" cy="148" r="2"/><circle cx="342" cy="148" r="2"/><circle cx="352" cy="148" r="2"/><circle cx="363" cy="148" r="2"/><circle cx="373" cy="148" r="2"/><circle cx="383" cy="148" r="2"/><circle cx="393" cy="148" r="2"/><circle cx="403" cy="148" r="2"/><circle cx="413" cy="148" r="2"/><circle cx="424" cy="148" r="2"/><circle cx="434" cy="148" r="2"/><circle cx="444" cy="148" r="2"/><circle cx="454" cy="148" r="2"/><circle cx="464" cy="148" r="2"/><circle cx="475" cy="148" r="2"/><circle cx="485" cy="148" r="2"/><circle cx="495" cy="148" r="2"/><circle cx="505" cy="148" r="2"/><circle cx="515" cy="148" r="2"/><circle cx="525" cy="148" r="2"/><circle cx="536" cy="148" r="2"/><circle cx="546" cy="148" r="2"/><circle cx="556" cy="148" r="2"/><circle cx="566" cy="148" r="2"/><circle cx="576" cy="148" r="2"/><circle cx="586" cy="148" r="2"/><circle cx="597" cy="148" r="2"/><circle cx="607" cy="148" r="2"/><circle cx="617" cy="148" r="2"/><circle cx="627" cy="148" r="2"/><circle cx="637" cy="148" r="2"/><circle cx="647" cy="148" r="2"/><circle cx="658" cy="148" r="2"/><circle cx="668" cy="148" r="2"/><circle cx="678" cy="148" r="2"/><circle cx="688" cy="148" r="2"/><circle cx="698" cy="148" r="2"/><circle cx="708" cy="148" r="2"/><circle cx="719" cy="148" r="2"/></g></g></g></g></g><g class="SourcesFooter" fill="#777"><g class="clickable" fill="#777"><text font-size="12.6" x="15" y="567.9"><tspan x="15" y="567.88">Source: Glyn (2006); N.B.S of China; Bank of England and US B.L.S</tspan></text></g><text font-size="12.6" x="15" y="582.5"><tspan x="15" y="582.48">Note: Ratio scale, US=100</tspan></text><text font-size="12.6" x="538.9" y="567.9"><tspan x="538.9" y="567.88"><a target="_blank" href="https://tinyco.re/18102330" fill="#777">tinyco.re/18102330</a> • <a href="https://ourworldindata.org" target="_blank">Powered by ourworldindata.org</a></tspan></text></g></svg>