<svg xmlns="http://www.w3.org/2000/svg" version="1.1" style="font-family:Lato,'Helvetica Neue',Helvetica,Arial,sans-serif;font-size:18px;background-color:#fff;text-rendering:geometricPrecision;-webkit-font-smoothing:antialiased" width="850" height="600" viewBox="0 0 850 600"><g class="HeaderView"><g transform="matrix(.29 0 0 .29 774 15)"><svg className="owidLog" width="210" height="120" viewBox="0 0 210 120" fill="none" xmlns="http://www.w3.org/2000/svg"><g clip-path="url(#a)"><path d="M0 0h210v107.89H0V0z" fill="#002147"/><path d="M40.98 32.25c0 2.36-.38 4.53-1.12 6.51a14.26 14.26 0 0 1-8.1 8.4c-1.9.78-4.02 1.17-6.34 1.17a16.6 16.6 0 0 1-6.33-1.17 14.31 14.31 0 0 1-8.08-8.4 18.29 18.29 0 0 1-1.12-6.51c0-2.36.38-4.53 1.12-6.5.75-1.97 1.8-3.67 3.17-5.1a14.32 14.32 0 0 1 4.9-3.34c1.92-.8 4.03-1.19 6.34-1.19 2.32 0 4.43.4 6.34 1.19 1.92.8 3.56 1.9 4.93 3.34a14.87 14.87 0 0 1 3.17 5.1 18.1 18.1 0 0 1 1.12 6.5zm-4.38 0c0-1.94-.26-3.68-.8-5.22a10.91 10.91 0 0 0-2.24-3.89 9.68 9.68 0 0 0-3.52-2.46 11.95 11.95 0 0 0-4.62-.86c-1.68 0-3.21.28-4.6.86a9.88 9.88 0 0 0-3.54 2.46 10.91 10.91 0 0 0-2.24 3.9c-.53 1.53-.8 3.27-.8 5.2 0 1.94.27 3.68.8 5.22a11.17 11.17 0 0 0 2.24 3.9 10.01 10.01 0 0 0 3.55 2.44c1.38.56 2.9.83 4.6.83s3.24-.27 4.61-.83a9.8 9.8 0 0 0 3.52-2.44 11.17 11.17 0 0 0 2.25-3.9c.53-1.54.8-3.28.8-5.21zm26.22-6.54V48H60.5c-.56 0-.9-.27-1.05-.81l-.31-2.4a12.45 12.45 0 0 1-3.26 2.6c-1.2.64-2.58.96-4.13.96-1.22 0-2.3-.2-3.24-.6a6.52 6.52 0 0 1-2.33-1.7 7.37 7.37 0 0 1-1.43-2.67c-.3-1.04-.46-2.2-.46-3.45V25.7h3.91v14.22c0 1.68.38 2.99 1.15 3.91.77.93 1.96 1.39 3.54 1.39 1.16 0 2.24-.27 3.23-.82a10.42 10.42 0 0 0 2.8-2.28V25.7h3.91zm8.61 4.47a9.94 9.94 0 0 1 2.6-3.56 5.64 5.64 0 0 1 3.76-1.3c.47 0 .92.05 1.34.15.44.1.83.27 1.17.49l-.3 2.92c-.09.37-.3.55-.66.55-.2 0-.5-.04-.9-.13a6.21 6.21 0 0 0-3.24.18 4.23 4.23 0 0 0-1.47.92c-.42.4-.81.9-1.17 1.5-.33.58-.64 1.26-.92 2.02V48H67.7V25.71h2.25c.42 0 .72.08.88.25.16.16.27.44.33.83l.26 3.39zm61.16-13.7L122.75 48h-3.82l-7.99-24.05a21.95 21.95 0 0 1-.42-1.58 38.36 38.36 0 0 1-.44 1.58L102.05 48h-3.83L88.4 16.47h3.54c.38 0 .7.1.95.29.26.2.43.43.5.73l6.52 21.9.28 1.28.29 1.46.3-1.46.38-1.27 7.41-21.91c.1-.25.26-.48.51-.69.27-.22.58-.33.95-.33h1.23c.38 0 .69.1.92.29a1.77 1.77 0 0 1 .53.73l7.4 21.9a28.4 28.4 0 0 1 .68 2.62 29.52 29.52 0 0 1 .52-2.61l6.54-21.91a1.31 1.31 0 0 1 .48-.7c.27-.21.58-.32.95-.32h3.32zm9.35 8.88c1.63 0 3.1.27 4.4.82a9.43 9.43 0 0 1 5.46 5.94c.5 1.4.74 2.98.74 4.73 0 1.76-.25 3.34-.74 4.75a9.43 9.43 0 0 1-5.46 5.92c-1.3.52-2.77.79-4.4.79-1.64 0-3.12-.27-4.44-.8a9.42 9.42 0 0 1-3.35-2.3c-.92-1-1.63-2.2-2.13-3.61-.49-1.41-.73-3-.73-4.75s.24-3.33.73-4.73c.5-1.43 1.2-2.64 2.13-3.63a9.4 9.4 0 0 1 3.35-2.31c1.32-.55 2.8-.82 4.44-.82zm0 19.89c2.2 0 3.84-.73 4.93-2.2 1.08-1.48 1.63-3.54 1.63-6.18 0-2.66-.55-4.72-1.63-6.2-1.09-1.49-2.73-2.23-4.93-2.23-1.12 0-2.09.2-2.93.57a5.71 5.71 0 0 0-2.06 1.65 7.5 7.5 0 0 0-1.24 2.67c-.26 1.04-.4 2.22-.4 3.54 0 2.64.55 4.7 1.64 6.18 1.1 1.47 2.76 2.2 4.99 2.2zm17.97-15.07a9.94 9.94 0 0 1 2.6-3.56 5.64 5.64 0 0 1 3.76-1.3c.47 0 .91.05 1.34.15.44.1.83.27 1.16.49l-.28 2.92c-.09.37-.31.55-.66.55-.2 0-.5-.04-.9-.13a6.2 6.2 0 0 0-3.24.18 4.23 4.23 0 0 0-1.47.92c-.43.4-.82.9-1.17 1.5a13.1 13.1 0 0 0-.92 2.02V48h-3.94V25.71h2.24c.43 0 .72.08.88.25.17.16.28.44.33.83l.27 3.39zm15.04-14.59V48h-3.92V15.6h3.92zm19.55 15.43a6.22 6.22 0 0 0-2.38-2.05 6.7 6.7 0 0 0-2.86-.6c-2.07 0-3.66.75-4.77 2.23-1.12 1.48-1.68 3.6-1.68 6.33 0 1.46.13 2.7.38 3.74a7.29 7.29 0 0 0 1.1 2.56 4.35 4.35 0 0 0 1.78 1.45c.7.3 1.5.46 2.4.46 1.29 0 2.41-.3 3.36-.88a9.6 9.6 0 0 0 2.67-2.49V31.02zm3.91-15.43V48h-2.33c-.56 0-.9-.27-1.06-.81l-.35-2.71a12.13 12.13 0 0 1-3.25 2.77 8.28 8.28 0 0 1-4.23 1.06 7.31 7.31 0 0 1-6.14-2.9c-.73-.96-1.3-2.15-1.69-3.57a18.35 18.35 0 0 1 .07-9.48 11.29 11.29 0 0 1 1.89-3.7 8.7 8.7 0 0 1 7.06-3.34 7.96 7.96 0 0 1 6.12 2.62V15.59h3.91zM46.61 70.71V93H42.7V70.71h3.91zm.84-7c0 .39-.08.75-.24 1.09a2.81 2.81 0 0 1-1.52 1.47 2.67 2.67 0 0 1-2.16 0 2.9 2.9 0 0 1-1.45-1.47 2.67 2.67 0 0 1 0-2.16c.15-.35.35-.65.6-.9.25-.27.53-.47.85-.62a2.67 2.67 0 0 1 2.16 0c.35.15.65.35.9.62.27.25.47.55.62.9.16.34.24.7.24 1.08zm7.97 10.24c.49-.54 1-1.04 1.54-1.48a9.85 9.85 0 0 1 3.66-1.84 8.96 8.96 0 0 1 5.43.35c.94.4 1.72.97 2.33 1.71a7.36 7.36 0 0 1 1.43 2.67c.32 1.04.49 2.19.49 3.45V93h-3.94V78.81c0-1.69-.4-3-1.17-3.92-.76-.93-1.93-1.4-3.5-1.4a6.6 6.6 0 0 0-3.25.83c-1 .56-1.92 1.31-2.77 2.27V93h-3.94V70.71h2.35c.56 0 .9.28 1.04.82l.3 2.42zm57.7 3.3c0 2.36-.37 4.5-1.11 6.44a14.3 14.3 0 0 1-3.17 4.98 14.1 14.1 0 0 1-4.93 3.2c-1.9.76-4.02 1.13-6.33 1.13H85.8V61.47h11.77c2.31 0 4.42.39 6.33 1.15a13.8 13.8 0 0 1 8.1 8.18 17.75 17.75 0 0 1 1.12 6.45zm-4.37 0c0-1.94-.26-3.67-.8-5.2a10.94 10.94 0 0 0-2.23-3.87 9.57 9.57 0 0 0-3.53-2.42 12.23 12.23 0 0 0-4.61-.83h-7.5v24.62h7.5c1.7 0 3.24-.28 4.61-.84a9.7 9.7 0 0 0 3.53-2.4 10.94 10.94 0 0 0 2.24-3.87c.53-1.53.8-3.26.8-5.2zm19.8 5.72c-1.8.06-3.34.2-4.62.44-1.26.22-2.3.51-3.1.88-.8.36-1.37.8-1.74 1.3-.35.5-.53 1.05-.53 1.67 0 .58.1 1.1.3 1.52a3 3 0 0 0 .76 1.05c.34.27.73.46 1.17.6a6.13 6.13 0 0 0 1.45.17 7.28 7.28 0 0 0 3.5-.81 11.95 11.95 0 0 0 2.82-2.2v-4.62zm-12.65-9.11a12.73 12.73 0 0 1 3.98-2.66c1.43-.59 3-.88 4.73-.88 1.25 0 2.36.2 3.33.61a6.81 6.81 0 0 1 3.94 4.38c.33 1.04.5 2.19.5 3.43V93h-1.74a1.8 1.8 0 0 1-.88-.18c-.2-.13-.36-.38-.48-.74l-.44-2.12-1.72 1.46a9.48 9.48 0 0 1-3.74 1.7c-.69.15-1.46.23-2.3.23-.87 0-1.69-.12-2.45-.35a5.34 5.34 0 0 1-3.34-2.93 6.64 6.64 0 0 1-.49-2.64c0-.88.25-1.72.73-2.53a6.33 6.33 0 0 1 2.35-2.17c1.09-.63 2.5-1.15 4.25-1.54 1.75-.41 3.89-.65 6.42-.7v-1.75c0-1.73-.37-3.03-1.12-3.91-.75-.9-1.84-1.34-3.28-1.34-.97 0-1.78.12-2.44.37-.64.23-1.2.5-1.7.81l-1.23.82c-.33.23-.67.35-1 .35-.27 0-.5-.07-.69-.2a2.1 2.1 0 0 1-.48-.53l-.7-1.25zm27.67 19.5c-1.76 0-3.12-.5-4.07-1.48-.94-.98-1.41-2.4-1.41-4.25V74h-2.68a.9.9 0 0 1-.6-.2c-.16-.14-.24-.36-.24-.66v-1.56l3.65-.46.9-6.89a.9.9 0 0 1 .29-.52.88.88 0 0 1 .62-.22H142v7.67h6.44V74H142v13.38c0 .94.22 1.63.68 2.09.45.45 1.04.68 1.76.68a3.21 3.21 0 0 0 1.85-.53l.55-.35c.16-.12.3-.18.41-.18.2 0 .4.13.55.38l1.15 1.87a7.45 7.45 0 0 1-2.44 1.5 8.53 8.53 0 0 1-2.95.52zm19.68-10.4c-1.8.07-3.34.21-4.62.45-1.26.22-2.3.51-3.1.88-.8.36-1.37.8-1.74 1.3-.35.5-.53 1.05-.53 1.67 0 .58.1 1.1.3 1.52a2.9 2.9 0 0 0 .76 1.05c.34.27.73.46 1.17.6a6.13 6.13 0 0 0 1.45.17 7.3 7.3 0 0 0 3.5-.81 12.04 12.04 0 0 0 2.82-2.2v-4.62zm-12.65-9.1a12.72 12.72 0 0 1 3.99-2.66c1.42-.59 3-.88 4.72-.88 1.25 0 2.36.2 3.33.61a6.81 6.81 0 0 1 3.94 4.38c.33 1.04.5 2.19.5 3.43V93h-1.74a1.8 1.8 0 0 1-.88-.18c-.2-.13-.36-.38-.48-.74l-.44-2.12-1.72 1.46a9.48 9.48 0 0 1-3.74 1.7c-.69.15-1.46.23-2.3.23-.87 0-1.69-.12-2.45-.35a5.33 5.33 0 0 1-3.34-2.93 6.62 6.62 0 0 1-.49-2.64c0-.88.25-1.72.73-2.53a6.33 6.33 0 0 1 2.35-2.17c1.09-.63 2.5-1.15 4.25-1.54a31.2 31.2 0 0 1 6.42-.7v-1.75c0-1.73-.37-3.03-1.12-3.91-.75-.9-1.84-1.34-3.28-1.34-.97 0-1.78.12-2.44.37-.64.23-1.2.5-1.7.81l-1.22.82c-.34.23-.68.35-1.02.35-.26 0-.49-.07-.68-.2a1.88 1.88 0 0 1-.48-.53l-.7-1.25zM40.98 32.25c0 2.36-.38 4.53-1.12 6.51a14.26 14.26 0 0 1-8.1 8.4c-1.9.78-4.02 1.17-6.34 1.17a16.6 16.6 0 0 1-6.33-1.17 14.31 14.31 0 0 1-8.08-8.4 18.29 18.29 0 0 1-1.12-6.51c0-2.36.38-4.53 1.12-6.5.75-1.97 1.8-3.67 3.17-5.1a14.32 14.32 0 0 1 4.9-3.34c1.92-.8 4.03-1.19 6.34-1.19 2.32 0 4.43.4 6.34 1.19 1.92.8 3.56 1.9 4.93 3.34a14.87 14.87 0 0 1 3.17 5.1 18.1 18.1 0 0 1 1.12 6.5zm-4.38 0c0-1.94-.26-3.68-.8-5.22a10.91 10.91 0 0 0-2.24-3.89 9.68 9.68 0 0 0-3.52-2.46 11.95 11.95 0 0 0-4.62-.86c-1.68 0-3.21.28-4.6.86a9.88 9.88 0 0 0-3.54 2.46 10.91 10.91 0 0 0-2.24 3.9c-.53 1.53-.8 3.27-.8 5.2 0 1.94.27 3.68.8 5.22a11.17 11.17 0 0 0 2.24 3.9 10.01 10.01 0 0 0 3.55 2.44c1.38.56 2.9.83 4.6.83s3.24-.27 4.61-.83a9.8 9.8 0 0 0 3.52-2.44 11.17 11.17 0 0 0 2.25-3.9c.53-1.54.8-3.28.8-5.21zm26.22-6.54V48H60.5c-.56 0-.9-.27-1.05-.81l-.31-2.4a12.45 12.45 0 0 1-3.26 2.6c-1.2.64-2.58.96-4.13.96-1.22 0-2.3-.2-3.24-.6a6.52 6.52 0 0 1-2.33-1.7 7.37 7.37 0 0 1-1.43-2.67c-.3-1.04-.46-2.2-.46-3.45V25.7h3.91v14.22c0 1.68.38 2.99 1.15 3.91.77.93 1.96 1.39 3.54 1.39 1.16 0 2.24-.27 3.23-.82a10.42 10.42 0 0 0 2.8-2.28V25.7h3.91zm8.61 4.47a9.94 9.94 0 0 1 2.6-3.56 5.64 5.64 0 0 1 3.76-1.3c.47 0 .92.05 1.34.15.44.1.83.27 1.17.49l-.3 2.92c-.09.37-.3.55-.66.55-.2 0-.5-.04-.9-.13a6.21 6.21 0 0 0-3.24.18 4.23 4.23 0 0 0-1.47.92c-.42.4-.81.9-1.17 1.5-.33.58-.64 1.26-.92 2.02V48H67.7V25.71h2.25c.42 0 .72.08.88.25.16.16.27.44.33.83l.26 3.39zm61.16-13.7L122.75 48h-3.82l-7.99-24.05a21.95 21.95 0 0 1-.42-1.58 38.36 38.36 0 0 1-.44 1.58L102.05 48h-3.83L88.4 16.47h3.54c.38 0 .7.1.95.29.26.2.43.43.5.73l6.52 21.9.28 1.28.29 1.46.3-1.46.38-1.27 7.41-21.91c.1-.25.26-.48.51-.69.27-.22.58-.33.95-.33h1.23c.38 0 .69.1.92.29a1.77 1.77 0 0 1 .53.73l7.4 21.9a28.4 28.4 0 0 1 .68 2.62 29.52 29.52 0 0 1 .52-2.61l6.54-21.91a1.31 1.31 0 0 1 .48-.7c.27-.21.58-.32.95-.32h3.32zm9.35 8.88c1.63 0 3.1.27 4.4.82a9.43 9.43 0 0 1 5.46 5.94c.5 1.4.74 2.98.74 4.73 0 1.76-.25 3.34-.74 4.75a9.43 9.43 0 0 1-5.46 5.92c-1.3.52-2.77.79-4.4.79-1.64 0-3.12-.27-4.44-.8a9.42 9.42 0 0 1-3.35-2.3c-.92-1-1.63-2.2-2.13-3.61-.49-1.41-.73-3-.73-4.75s.24-3.33.73-4.73c.5-1.43 1.2-2.64 2.13-3.63a9.4 9.4 0 0 1 3.35-2.31c1.32-.55 2.8-.82 4.44-.82zm0 19.89c2.2 0 3.84-.73 4.93-2.2 1.08-1.48 1.63-3.54 1.63-6.18 0-2.66-.55-4.72-1.63-6.2-1.09-1.49-2.73-2.23-4.93-2.23-1.12 0-2.09.2-2.93.57a5.71 5.71 0 0 0-2.06 1.65 7.5 7.5 0 0 0-1.24 2.67c-.26 1.04-.4 2.22-.4 3.54 0 2.64.55 4.7 1.64 6.18 1.1 1.47 2.76 2.2 4.99 2.2zm17.97-15.07a9.94 9.94 0 0 1 2.6-3.56 5.64 5.64 0 0 1 3.76-1.3c.47 0 .91.05 1.34.15.44.1.83.27 1.16.49l-.28 2.92c-.09.37-.31.55-.66.55-.2 0-.5-.04-.9-.13a6.2 6.2 0 0 0-3.24.18 4.23 4.23 0 0 0-1.47.92c-.43.4-.82.9-1.17 1.5a13.1 13.1 0 0 0-.92 2.02V48h-3.94V25.71h2.24c.43 0 .72.08.88.25.17.16.28.44.33.83l.27 3.39zm15.04-14.59V48h-3.92V15.6h3.92zm19.55 15.43a6.22 6.22 0 0 0-2.38-2.05 6.7 6.7 0 0 0-2.86-.6c-2.07 0-3.66.75-4.77 2.23-1.12 1.48-1.68 3.6-1.68 6.33 0 1.46.13 2.7.38 3.74a7.29 7.29 0 0 0 1.1 2.56 4.35 4.35 0 0 0 1.78 1.45c.7.3 1.5.46 2.4.46 1.29 0 2.41-.3 3.36-.88a9.6 9.6 0 0 0 2.67-2.49V31.02zm3.91-15.43V48h-2.33c-.56 0-.9-.27-1.06-.81l-.35-2.71a12.13 12.13 0 0 1-3.25 2.77 8.28 8.28 0 0 1-4.23 1.06 7.31 7.31 0 0 1-6.14-2.9c-.73-.96-1.3-2.15-1.69-3.57a18.35 18.35 0 0 1 .07-9.48 11.29 11.29 0 0 1 1.89-3.7 8.7 8.7 0 0 1 7.06-3.34 7.96 7.96 0 0 1 6.12 2.62V15.59h3.91zM46.61 70.71V93H42.7V70.71h3.91zm.84-7c0 .39-.08.75-.24 1.09a2.81 2.81 0 0 1-1.52 1.47 2.67 2.67 0 0 1-2.16 0 2.9 2.9 0 0 1-1.45-1.47 2.67 2.67 0 0 1 0-2.16c.15-.35.35-.65.6-.9.25-.27.53-.47.85-.62a2.67 2.67 0 0 1 2.16 0c.35.15.65.35.9.62.27.25.47.55.62.9.16.34.24.7.24 1.08zm7.97 10.24c.49-.54 1-1.04 1.54-1.48a9.85 9.85 0 0 1 3.66-1.84 8.96 8.96 0 0 1 5.43.35c.94.4 1.72.97 2.33 1.71a7.36 7.36 0 0 1 1.43 2.67c.32 1.04.49 2.19.49 3.45V93h-3.94V78.81c0-1.69-.4-3-1.17-3.92-.76-.93-1.93-1.4-3.5-1.4a6.6 6.6 0 0 0-3.25.83c-1 .56-1.92 1.31-2.77 2.27V93h-3.94V70.71h2.35c.56 0 .9.28 1.04.82l.3 2.42zm57.7 3.3c0 2.36-.37 4.5-1.11 6.44a14.3 14.3 0 0 1-3.17 4.98 14.1 14.1 0 0 1-4.93 3.2c-1.9.76-4.02 1.13-6.33 1.13H85.8V61.47h11.77c2.31 0 4.42.39 6.33 1.15a13.8 13.8 0 0 1 8.1 8.18 17.75 17.75 0 0 1 1.12 6.45zm-4.37 0c0-1.94-.26-3.67-.8-5.2a10.94 10.94 0 0 0-2.23-3.87 9.57 9.57 0 0 0-3.53-2.42 12.23 12.23 0 0 0-4.61-.83h-7.5v24.62h7.5c1.7 0 3.24-.28 4.61-.84a9.7 9.7 0 0 0 3.53-2.4 10.94 10.94 0 0 0 2.24-3.87c.53-1.53.8-3.26.8-5.2zm19.8 5.72c-1.8.06-3.34.2-4.62.44-1.26.22-2.3.51-3.1.88-.8.36-1.37.8-1.74 1.3-.35.5-.53 1.05-.53 1.67 0 .58.1 1.1.3 1.52a3 3 0 0 0 .76 1.05c.34.27.73.46 1.17.6a6.13 6.13 0 0 0 1.45.17 7.28 7.28 0 0 0 3.5-.81 11.95 11.95 0 0 0 2.82-2.2v-4.62zm-12.65-9.11a12.73 12.73 0 0 1 3.98-2.66c1.43-.59 3-.88 4.73-.88 1.25 0 2.36.2 3.33.61a6.81 6.81 0 0 1 3.94 4.38c.33 1.04.5 2.19.5 3.43V93h-1.74a1.8 1.8 0 0 1-.88-.18c-.2-.13-.36-.38-.48-.74l-.44-2.12-1.72 1.46a9.48 9.48 0 0 1-3.74 1.7c-.69.15-1.46.23-2.3.23-.87 0-1.69-.12-2.45-.35a5.34 5.34 0 0 1-3.34-2.93 6.64 6.64 0 0 1-.49-2.64c0-.88.25-1.72.73-2.53a6.33 6.33 0 0 1 2.35-2.17c1.09-.63 2.5-1.15 4.25-1.54 1.75-.41 3.89-.65 6.42-.7v-1.75c0-1.73-.37-3.03-1.12-3.91-.75-.9-1.84-1.34-3.28-1.34-.97 0-1.78.12-2.44.37-.64.23-1.2.5-1.7.81l-1.23.82c-.33.23-.67.35-1 .35-.27 0-.5-.07-.69-.2a2.1 2.1 0 0 1-.48-.53l-.7-1.25zm27.67 19.5c-1.76 0-3.12-.5-4.07-1.48-.94-.98-1.41-2.4-1.41-4.25V74h-2.68a.9.9 0 0 1-.6-.2c-.16-.14-.24-.36-.24-.66v-1.56l3.65-.46.9-6.89a.9.9 0 0 1 .29-.52.88.88 0 0 1 .62-.22H142v7.67h6.44V74H142v13.38c0 .94.22 1.63.68 2.09.45.45 1.04.68 1.76.68a3.21 3.21 0 0 0 1.85-.53l.55-.35c.16-.12.3-.18.41-.18.2 0 .4.13.55.38l1.15 1.87a7.45 7.45 0 0 1-2.44 1.5 8.53 8.53 0 0 1-2.95.52zm19.68-10.4c-1.8.07-3.34.21-4.62.45-1.26.22-2.3.51-3.1.88-.8.36-1.37.8-1.74 1.3-.35.5-.53 1.05-.53 1.67 0 .58.1 1.1.3 1.52a2.9 2.9 0 0 0 .76 1.05c.34.27.73.46 1.17.6a6.13 6.13 0 0 0 1.45.17 7.3 7.3 0 0 0 3.5-.81 12.04 12.04 0 0 0 2.82-2.2v-4.62zm-12.65-9.1a12.72 12.72 0 0 1 3.99-2.66c1.42-.59 3-.88 4.72-.88 1.25 0 2.36.2 3.33.61a6.81 6.81 0 0 1 3.94 4.38c.33 1.04.5 2.19.5 3.43V93h-1.74a1.8 1.8 0 0 1-.88-.18c-.2-.13-.36-.38-.48-.74l-.44-2.12-1.72 1.46a9.48 9.48 0 0 1-3.74 1.7c-.69.15-1.46.23-2.3.23-.87 0-1.69-.12-2.45-.35a5.33 5.33 0 0 1-3.34-2.93 6.62 6.62 0 0 1-.49-2.64c0-.88.25-1.72.73-2.53a6.33 6.33 0 0 1 2.35-2.17c1.09-.63 2.5-1.15 4.25-1.54a31.2 31.2 0 0 1 6.42-.7v-1.75c0-1.73-.37-3.03-1.12-3.91-.75-.9-1.84-1.34-3.28-1.34-.97 0-1.78.12-2.44.37-.64.23-1.2.5-1.7.81l-1.22.82c-.34.23-.68.35-1.02.35-.26 0-.49-.07-.68-.2a1.88 1.88 0 0 1-.48-.53l-.7-1.25zM40.98 32.25c0 2.36-.38 4.53-1.12 6.51a14.26 14.26 0 0 1-8.1 8.4c-1.9.78-4.02 1.17-6.34 1.17a16.6 16.6 0 0 1-6.33-1.17 14.31 14.31 0 0 1-8.08-8.4 18.29 18.29 0 0 1-1.12-6.51c0-2.36.38-4.53 1.12-6.5.75-1.97 1.8-3.67 3.17-5.1a14.32 14.32 0 0 1 4.9-3.34c1.92-.8 4.03-1.19 6.34-1.19 2.32 0 4.43.4 6.34 1.19 1.92.8 3.56 1.9 4.93 3.34a14.87 14.87 0 0 1 3.17 5.1 18.1 18.1 0 0 1 1.12 6.5zm-4.38 0c0-1.94-.26-3.68-.8-5.22a10.91 10.91 0 0 0-2.24-3.89 9.68 9.68 0 0 0-3.52-2.46 11.95 11.95 0 0 0-4.62-.86c-1.68 0-3.21.28-4.6.86a9.88 9.88 0 0 0-3.54 2.46 10.91 10.91 0 0 0-2.24 3.9c-.53 1.53-.8 3.27-.8 5.2 0 1.94.27 3.68.8 5.22a11.17 11.17 0 0 0 2.24 3.9 10.01 10.01 0 0 0 3.55 2.44c1.38.56 2.9.83 4.6.83s3.24-.27 4.61-.83a9.8 9.8 0 0 0 3.52-2.44 11.17 11.17 0 0 0 2.25-3.9c.53-1.54.8-3.28.8-5.21zm26.22-6.54V48H60.5c-.56 0-.9-.27-1.05-.81l-.31-2.4a12.45 12.45 0 0 1-3.26 2.6c-1.2.64-2.58.96-4.13.96-1.22 0-2.3-.2-3.24-.6a6.52 6.52 0 0 1-2.33-1.7 7.37 7.37 0 0 1-1.43-2.67c-.3-1.04-.46-2.2-.46-3.45V25.7h3.91v14.22c0 1.68.38 2.99 1.15 3.91.77.93 1.96 1.39 3.54 1.39 1.16 0 2.24-.27 3.23-.82a10.42 10.42 0 0 0 2.8-2.28V25.7h3.91zm8.61 4.47a9.94 9.94 0 0 1 2.6-3.56 5.64 5.64 0 0 1 3.76-1.3c.47 0 .92.05 1.34.15.44.1.83.27 1.17.49l-.3 2.92c-.09.37-.3.55-.66.55-.2 0-.5-.04-.9-.13a6.21 6.21 0 0 0-3.24.18 4.23 4.23 0 0 0-1.47.92c-.42.4-.81.9-1.17 1.5-.33.58-.64 1.26-.92 2.02V48H67.7V25.71h2.25c.42 0 .72.08.88.25.16.16.27.44.33.83l.26 3.39zm61.16-13.7L122.75 48h-3.82l-7.99-24.05a21.95 21.95 0 0 1-.42-1.58 38.36 38.36 0 0 1-.44 1.58L102.05 48h-3.83L88.4 16.47h3.54c.38 0 .7.1.95.29.26.2.43.43.5.73l6.52 21.9.28 1.28.29 1.46.3-1.46.38-1.27 7.41-21.91c.1-.25.26-.48.51-.69.27-.22.58-.33.95-.33h1.23c.38 0 .69.1.92.29a1.77 1.77 0 0 1 .53.73l7.4 21.9a28.4 28.4 0 0 1 .68 2.62 29.52 29.52 0 0 1 .52-2.61l6.54-21.91a1.31 1.31 0 0 1 .48-.7c.27-.21.58-.32.95-.32h3.32zm9.35 8.88c1.63 0 3.1.27 4.4.82a9.43 9.43 0 0 1 5.46 5.94c.5 1.4.74 2.98.74 4.73 0 1.76-.25 3.34-.74 4.75a9.43 9.43 0 0 1-5.46 5.92c-1.3.52-2.77.79-4.4.79-1.64 0-3.12-.27-4.44-.8a9.42 9.42 0 0 1-3.35-2.3c-.92-1-1.63-2.2-2.13-3.61-.49-1.41-.73-3-.73-4.75s.24-3.33.73-4.73c.5-1.43 1.2-2.64 2.13-3.63a9.4 9.4 0 0 1 3.35-2.31c1.32-.55 2.8-.82 4.44-.82zm0 19.89c2.2 0 3.84-.73 4.93-2.2 1.08-1.48 1.63-3.54 1.63-6.18 0-2.66-.55-4.72-1.63-6.2-1.09-1.49-2.73-2.23-4.93-2.23-1.12 0-2.09.2-2.93.57a5.71 5.71 0 0 0-2.06 1.65 7.5 7.5 0 0 0-1.24 2.67c-.26 1.04-.4 2.22-.4 3.54 0 2.64.55 4.7 1.64 6.18 1.1 1.47 2.76 2.2 4.99 2.2zm17.97-15.07a9.94 9.94 0 0 1 2.6-3.56 5.64 5.64 0 0 1 3.76-1.3c.47 0 .91.05 1.34.15.44.1.83.27 1.16.49l-.28 2.92c-.09.37-.31.55-.66.55-.2 0-.5-.04-.9-.13a6.2 6.2 0 0 0-3.24.18 4.23 4.23 0 0 0-1.47.92c-.43.4-.82.9-1.17 1.5a13.1 13.1 0 0 0-.92 2.02V48h-3.94V25.71h2.24c.43 0 .72.08.88.25.17.16.28.44.33.83l.27 3.39zm15.04-14.59V48h-3.92V15.6h3.92zm19.55 15.43a6.22 6.22 0 0 0-2.38-2.05 6.7 6.7 0 0 0-2.86-.6c-2.07 0-3.66.75-4.77 2.23-1.12 1.48-1.68 3.6-1.68 6.33 0 1.46.13 2.7.38 3.74a7.29 7.29 0 0 0 1.1 2.56 4.35 4.35 0 0 0 1.78 1.45c.7.3 1.5.46 2.4.46 1.29 0 2.41-.3 3.36-.88a9.6 9.6 0 0 0 2.67-2.49V31.02zm3.91-15.43V48h-2.33c-.56 0-.9-.27-1.06-.81l-.35-2.71a12.13 12.13 0 0 1-3.25 2.77 8.28 8.28 0 0 1-4.23 1.06 7.31 7.31 0 0 1-6.14-2.9c-.73-.96-1.3-2.15-1.69-3.57a18.35 18.35 0 0 1 .07-9.48 11.29 11.29 0 0 1 1.89-3.7 8.7 8.7 0 0 1 7.06-3.34 7.96 7.96 0 0 1 6.12 2.62V15.59h3.91zM46.61 70.71V93H42.7V70.71h3.91zm.84-7c0 .39-.08.75-.24 1.09a2.81 2.81 0 0 1-1.52 1.47 2.67 2.67 0 0 1-2.16 0 2.9 2.9 0 0 1-1.45-1.47 2.67 2.67 0 0 1 0-2.16c.15-.35.35-.65.6-.9.25-.27.53-.47.85-.62a2.67 2.67 0 0 1 2.16 0c.35.15.65.35.9.62.27.25.47.55.62.9.16.34.24.7.24 1.08zm7.97 10.24c.49-.54 1-1.04 1.54-1.48a9.85 9.85 0 0 1 3.66-1.84 8.96 8.96 0 0 1 5.43.35c.94.4 1.72.97 2.33 1.71a7.36 7.36 0 0 1 1.43 2.67c.32 1.04.49 2.19.49 3.45V93h-3.94V78.81c0-1.69-.4-3-1.17-3.92-.76-.93-1.93-1.4-3.5-1.4a6.6 6.6 0 0 0-3.25.83c-1 .56-1.92 1.31-2.77 2.27V93h-3.94V70.71h2.35c.56 0 .9.28 1.04.82l.3 2.42zm57.7 3.3c0 2.36-.37 4.5-1.11 6.44a14.3 14.3 0 0 1-3.17 4.98 14.1 14.1 0 0 1-4.93 3.2c-1.9.76-4.02 1.13-6.33 1.13H85.8V61.47h11.77c2.31 0 4.42.39 6.33 1.15a13.8 13.8 0 0 1 8.1 8.18 17.75 17.75 0 0 1 1.12 6.45zm-4.37 0c0-1.94-.26-3.67-.8-5.2a10.94 10.94 0 0 0-2.23-3.87 9.57 9.57 0 0 0-3.53-2.42 12.23 12.23 0 0 0-4.61-.83h-7.5v24.62h7.5c1.7 0 3.24-.28 4.61-.84a9.7 9.7 0 0 0 3.53-2.4 10.94 10.94 0 0 0 2.24-3.87c.53-1.53.8-3.26.8-5.2zm19.8 5.72c-1.8.06-3.34.2-4.62.44-1.26.22-2.3.51-3.1.88-.8.36-1.37.8-1.74 1.3-.35.5-.53 1.05-.53 1.67 0 .58.1 1.1.3 1.52a3 3 0 0 0 .76 1.05c.34.27.73.46 1.17.6a6.13 6.13 0 0 0 1.45.17 7.28 7.28 0 0 0 3.5-.81 11.95 11.95 0 0 0 2.82-2.2v-4.62zm-12.65-9.11a12.73 12.73 0 0 1 3.98-2.66c1.43-.59 3-.88 4.73-.88 1.25 0 2.36.2 3.33.61a6.81 6.81 0 0 1 3.94 4.38c.33 1.04.5 2.19.5 3.43V93h-1.74a1.8 1.8 0 0 1-.88-.18c-.2-.13-.36-.38-.48-.74l-.44-2.12-1.72 1.46a9.48 9.48 0 0 1-3.74 1.7c-.69.15-1.46.23-2.3.23-.87 0-1.69-.12-2.45-.35a5.34 5.34 0 0 1-3.34-2.93 6.64 6.64 0 0 1-.49-2.64c0-.88.25-1.72.73-2.53a6.33 6.33 0 0 1 2.35-2.17c1.09-.63 2.5-1.15 4.25-1.54 1.75-.41 3.89-.65 6.42-.7v-1.75c0-1.73-.37-3.03-1.12-3.91-.75-.9-1.84-1.34-3.28-1.34-.97 0-1.78.12-2.44.37-.64.23-1.2.5-1.7.81l-1.23.82c-.33.23-.67.35-1 .35-.27 0-.5-.07-.69-.2a2.1 2.1 0 0 1-.48-.53l-.7-1.25zm27.67 19.5c-1.76 0-3.12-.5-4.07-1.48-.94-.98-1.41-2.4-1.41-4.25V74h-2.68a.9.9 0 0 1-.6-.2c-.16-.14-.24-.36-.24-.66v-1.56l3.65-.46.9-6.89a.9.9 0 0 1 .29-.52.88.88 0 0 1 .62-.22H142v7.67h6.44V74H142v13.38c0 .94.22 1.63.68 2.09.45.45 1.04.68 1.76.68a3.21 3.21 0 0 0 1.85-.53l.55-.35c.16-.12.3-.18.41-.18.2 0 .4.13.55.38l1.15 1.87a7.45 7.45 0 0 1-2.44 1.5 8.53 8.53 0 0 1-2.95.52zm19.68-10.4c-1.8.07-3.34.21-4.62.45-1.26.22-2.3.51-3.1.88-.8.36-1.37.8-1.74 1.3-.35.5-.53 1.05-.53 1.67 0 .58.1 1.1.3 1.52a2.9 2.9 0 0 0 .76 1.05c.34.27.73.46 1.17.6a6.13 6.13 0 0 0 1.45.17 7.3 7.3 0 0 0 3.5-.81 12.04 12.04 0 0 0 2.82-2.2v-4.62zm-12.65-9.1a12.72 12.72 0 0 1 3.99-2.66c1.42-.59 3-.88 4.72-.88 1.25 0 2.36.2 3.33.61a6.81 6.81 0 0 1 3.94 4.38c.33 1.04.5 2.19.5 3.43V93h-1.74a1.8 1.8 0 0 1-.88-.18c-.2-.13-.36-.38-.48-.74l-.44-2.12-1.72 1.46a9.48 9.48 0 0 1-3.74 1.7c-.69.15-1.46.23-2.3.23-.87 0-1.69-.12-2.45-.35a5.33 5.33 0 0 1-3.34-2.93 6.62 6.62 0 0 1-.49-2.64c0-.88.25-1.72.73-2.53a6.33 6.33 0 0 1 2.35-2.17c1.09-.63 2.5-1.15 4.25-1.54a31.2 31.2 0 0 1 6.42-.7v-1.75c0-1.73-.37-3.03-1.12-3.91-.75-.9-1.84-1.34-3.28-1.34-.97 0-1.78.12-2.44.37-.64.23-1.2.5-1.7.81l-1.22.82c-.34.23-.68.35-1.02.35-.26 0-.49-.07-.68-.2a1.88 1.88 0 0 1-.48-.53l-.7-1.25z" fill="#fff"/><path fill="#D42B21" d="M0 106.79h210V120H0z"/></g><defs><clipPath id="a"><path fill="#fff" d="M0 0h210v120H0z"/></clipPath></defs></svg></g><a href="https://ourworldindata.org/grapher/cereal-yield-vs-extreme-poverty-scatter" style="font-family:&quot;Playfair Display&quot;,Georgia,&quot;Times New Roman&quot;,serif" target="_blank" rel="noopener"><text font-size="25.2" x="15" y="35.2" fill="#555"><tspan x="15" y="35.16">Cereal yield vs extreme poverty rate</tspan></text></a><text font-size="14.4" x="15" y="55.7" fill="#666"><tspan x="15" y="55.72">Extreme poverty rates are measured as the share of the population living on less than $1.90 a day at 2011</tspan><tspan x="15" y="73">international prices. </tspan></text></g><g class="ScatterPlot"><g class="DualAxisView"><g class="HorizontalAxis"><text font-size="12.6" x="286.9" y="544.9"><tspan x="286.85" y="544.88">Cereal yield (kg per hectare)</tspan></text><text x="160.2" y="524.8" fill="#666" text-anchor="middle" font-size="16.2">5,000 kg</text><text x="248" y="524.8" fill="#666" text-anchor="middle" font-size="16.2">10,000 kg</text><text x="335.8" y="524.8" fill="#666" text-anchor="middle" font-size="16.2">15,000 kg</text><text x="423.7" y="524.8" fill="#666" text-anchor="middle" font-size="16.2">20,000 kg</text><text x="511.5" y="524.8" fill="#666" text-anchor="middle" font-size="16.2">25,000 kg</text><text x="599.3" y="524.8" fill="#666" text-anchor="middle" font-size="16.2">30,000 kg</text><text x="718.09" y="524.8" fill="#666" text-anchor="end" font-size="16.2">35,000 kg</text></g><g class="VerticalAxis"><text font-size="12.6" x="-455.2" y="25.1" transform="rotate(-90)"><tspan x="-455.19" y="25.08">Share of the population living in extreme poverty</tspan></text><text x="70.16" y="503.6" dy=".32em" text-anchor="end" fill="#666" font-size="16.2">0%</text><text x="70.16" y="416.3" dy=".32em" text-anchor="end" fill="#666" font-size="16.2">20%</text><text x="70.16" y="329.1" dy=".32em" text-anchor="end" fill="#666" font-size="16.2">40%</text><text x="70.16" y="241.8" dy=".32em" text-anchor="end" fill="#666" font-size="16.2">60%</text><text x="70.16" y="154.6" dy=".32em" text-anchor="end" fill="#666" font-size="16.2">80%</text></g><g class="AxisGridLines horizontalLines"><path stroke="#999" d="M75.16 503.6h642.93"/><path stroke="#ddd" stroke-dasharray="3,2" d="M75.16 416.3h642.93M75.16 329.1h642.93M75.16 241.8h642.93M75.16 154.6h642.93"/></g><g class="AxisGridLines verticalLines" stroke="#ddd" stroke-dasharray="3,2"><path d="M160.2 503.6V92.2M248 503.6V92.2M335.8 503.6V92.2M423.7 503.6V92.2M511.5 503.6V92.2M599.3 503.6V92.2M687.1 503.6V92.2"/></g></g><g class="PointsWithLabels clickable" clip-path="url(#b)"><path fill="rgba(255,255,255,0)" d="M75.16 92.2h642.93v411.4H75.16z"/><defs><clipPath id="b"><path d="M65.16 82.2h662.93v431.4H65.16z"/></clipPath></defs><g class="key-Brazil"><circle cx="103" cy="409" r="1.5" fill="#932834" opacity=".7"/><path stroke-width="1" opacity=".7" stroke="#932834" fill="none" stroke-linecap="butt" d="m103 409 7 4 3 4 3 30-2-5h2l1 6 3-3 7 8-5 6 9-4-4 6-4 5 5 6 6 2 5 5-5 1 9 3 9 4 5 3-4 1 7-2-15-3 18-2h-7"/><path cx="156" cy="484" r="2.5" fill="#932834" opacity=".7" d="m158.5 486.5-5-2.5 5-2.5z"/></g><g class="key-Chile"><circle cx="136" cy="469" r="1.5" fill="#932834" opacity=".7"/><path stroke-width="1" opacity=".7" stroke="#932834" fill="none" stroke-linecap="butt" d="m136 469 9 14 6-1-4 6h14l-12-4 18 2 10 11h-9l26 4h-1l3 1h-5"/><path cx="191" cy="502" r="2.5" fill="#932834" opacity=".7" d="m193.5 504.5-5-2.5 5-2.5z"/></g><g class="key-China"><circle cx="148" cy="214" r="1.5" fill="#2D8587" opacity=".7"/><path stroke-width="1" opacity=".7" stroke="#2D8587" fill="none" stroke-linecap="butt" d="m148 214 4 42 6 65 1 6-1 38 6 57 5 16v16l3 15 2 6 1 20v5l2 1"/><path cx="177" cy="501" r="2.5" fill="#2D8587" opacity=".7" d="m175.88 497.65 3.36 4.47h-5.6z"/></g><g class="key-Costa-Rica"><circle cx="126" cy="459" r="1.5" fill="#E04E4B" opacity=".7"/><path stroke-width="1" opacity=".7" stroke="#E04E4B" fill="none" stroke-linecap="butt" d="m126 459 4-7-2 9 4 7 7 5h-1l-5-5 6 6-1 7-1-7h-1l-2 8 3 1h-9l-2 1 2 5h10l-4 6 5-2-11 3h8-6l21 1h-12 4l-6 1 10-1"/><path cx="147" cy="497" r="2.5" fill="#E04E4B" opacity=".7" d="m144.26 494.76 5.23 2-4.73 2.98z"/></g><g class="key-East-Asia-__0026-Pacific"><circle cx="137" cy="237" r="1.5" fill="#959595" opacity=".7"/><path stroke-width="1" opacity=".7" stroke="#959595" fill="none" stroke-linecap="butt" d="m137 237-1 9 2 12 2 13-1 15 2 23 2 19 1-6v16l-2 13 1 9 1 16-2 14 5 15v18l2 2-1 10 3 4v8l1 9 3 11 2 6 1 16 1 2 1 3 1 2 1 1v1"/><path cx="162" cy="498" r="2.5" fill="#959595" opacity=".7" d="m164.5 495.5-2.5 5-2.5-5z"/></g><g class="key-Egypt"><circle cx="172" cy="465" r="1.5" fill="#923E8B" opacity=".7"/><path stroke-width="1" opacity=".7" stroke="#923E8B" fill="none" stroke-linecap="butt" d="m172 465 4 14 22 14 7-13-2 3-17 11 14 3-3-1 5-9"/><path cx="202" cy="487" r="2.5" fill="#923E8B" opacity=".7" d="m198.6 487.97 4.61-3.16-.24 5.59z"/></g><g class="key-Europe-__0026-Central-Asia"><circle cx="141" cy="492" r="1.5" fill="#959595" opacity=".7"/><path stroke-width="1" opacity=".7" stroke="#959595" fill="none" stroke-linecap="butt" d="m141 492 3-2-27-6 1-5-2-8 1 2h3l4 4-1 1 1-9-1 2 3 3 1 4h-4l9 4-4 1-1 3-1 3 8 2-2 1-2 1 5 1-5 1 6 1 4-1-2 2h4l-3 1"/><path cx="139" cy="498" r="2.5" fill="#959595" opacity=".7" d="m142.16 499.58-5.53-.79 3.95-3.95z"/></g><g class="key-High-income"><circle cx="145" cy="501" r="1.5" fill="#959595" opacity=".7"/><path stroke-width="1" opacity=".7" stroke="#959595" fill="none" stroke-linecap="butt" d="M145 501h-1 3-6 9-6 11-4 14-7 8-1 1-7 17l-3-1 9 1h1-4"/><path cx="179" cy="501" r="2.5" fill="#959595" opacity=".7" d="m181.5 503.5-5-2.5 5-2.5z"/></g><g class="key-Honduras"><circle cx="98" cy="307" r="1.5" fill="#E04E4B" opacity=".7"/><path stroke-width="1" opacity=".7" stroke="#E04E4B" fill="none" stroke-linecap="butt" d="m98 307-3 47v43-12l4-5 1-14-1 42-8-21 1-1 5 22-2-9 4-20-3 3 2 3 1 18 2 23v3l1 12-1-6 1-2-1-13v12l4 5-1 1 1-5-1 3v-2"/><path cx="104" cy="434" r="2.5" fill="#E04E4B" opacity=".7" d="m101.5 436.5 2.5-5 2.5 5z"/></g><g class="key-IDA-total"><circle cx="97" cy="262" r="1.5" fill="#959595" opacity=".7"/><path stroke-width="1" opacity=".7" stroke="#959595" fill="none" stroke-linecap="butt" d="M97 262v-5 7l1-2-1 1 1 8 1 8v3l1-3 1 1 1 2v10l1 14 1 12 1 6 1 7v5l2 4v14l-1 7-1 2 1 5h1l-1 1 1 2 1 4"/><path cx="109" cy="375" r="2.5" fill="#959595" opacity=".7" d="m110.82 371.97-1.21 5.46-3.64-4.25z"/></g><g class="key-Indonesia"><circle cx="139" cy="264" r="1.5" fill="#2D8587" opacity=".7"/><path stroke-width="1" opacity=".7" stroke="#2D8587" fill="none" stroke-linecap="butt" d="M139 264h2v49l-2-86 1 113 3 11v16l2 53 2-1v-7l1 13 1-26 1 20 4 1 2 16 2 9v11l3 6v14l4 2-1 2-1 4 1 3"/><path cx="164" cy="487" r="2.5" fill="#2D8587" opacity=".7" d="m165.58 483.84-.79 5.53-3.95-3.95z"/></g><g class="key-Iran"><circle cx="97" cy="476" r="1.5" fill="#2D8587" opacity=".7"/><path stroke-width="1" opacity=".7" stroke="#2D8587" fill="none" stroke-linecap="butt" d="m97 476 7 14h6l2 11h2l-7-3-3 4 4-1h11-8 1"/><path cx="112" cy="501" r="2.5" fill="#2D8587" opacity=".7" d="m109.5 498.5 5 2.5-5 2.5z"/></g><g class="key-Jamaica"><circle cx="92" cy="483" r="1.5" fill="#E04E4B" opacity=".7"/><path stroke-width="1" opacity=".7" stroke="#E04E4B" fill="none" stroke-linecap="butt" d="m92 483 8-22-4 27-3 4v-1 5"/><path cx="93" cy="496" r="2.5" fill="#E04E4B" opacity=".7" d="m95.5 493.5-2.5 5-2.5-5z"/></g><g class="key-Latin-America-__0026-Caribbean"><circle cx="109" cy="436" r="1.5" fill="#959595" opacity=".7"/><path stroke-width="1" opacity=".7" stroke="#959595" fill="none" stroke-linecap="butt" d="m109 436 1 3h4l2 1-1 4h2l-1-8 3 4 3 3h-1l1 5 3 1-1 2 4 2v7l1 8 5 2 2 3-5 1 9 3-1 2 3 4 3 2v1l3 1h-3 9-5"/><path cx="149" cy="487" r="2.5" fill="#959595" opacity=".7" d="m151.5 489.5-5-2.5 5-2.5z"/></g><g class="key-Low-__0026-middle-income"><circle cx="115" cy="309" r="1.5" fill="#959595" opacity=".7"/><path stroke-width="1" opacity=".7" stroke="#959595" fill="none" stroke-linecap="butt" d="M115 309v1l-2 6 2 4-1 6v11l2 9 1 1 1-2 1 6-1 6 2 4-1 7 1 6 2 9v11l1 3 1 6 3 4-1 4 1 9 3 11-1 5 2 8v4l2 2v3l2 2"/><path cx="135" cy="455" r="2.5" fill="#959595" opacity=".7" d="m135 451.46 1.77 5.3-5.3-1.76z"/></g><g class="key-Lower-middle-income"><circle cx="107" cy="309" r="1.5" fill="#959595" opacity=".7"/><path stroke-width="1" opacity=".7" stroke="#959595" fill="none" stroke-linecap="butt" d="m107 309 2 4 1 1v10l1 7h1v-5l1 11 3 6-1 7 1 4 1 5 1 8v3l1 8 3 5v17l3 15v7l2 7v6l1 11 1 4 2-3"/><path cx="131" cy="447" r="2.5" fill="#959595" opacity=".7" d="m127.53 447.7 4.86-2.78-.7 5.55z"/></g><g class="key-Middle-East-__0026-North-Africa"><circle cx="99" cy="475" r="1.5" fill="#959595" opacity=".7"/><path stroke-width="1" opacity=".7" stroke="#959595" fill="none" stroke-linecap="butt" d="m99 475 4-16-2 9 1 6 4 2-2-1 3 2-2 3 2 5-1 2-2 1 3 1 6-1 1-4-1 4-3 2h6-5l-1 1 5 2-3 1v-1 1h3l-1-2 3-8v-4l-2-4 4-3"/><path cx="119" cy="473" r="2.5" fill="#959595" opacity=".7" d="m115.5 472.5 5.5-1-2.5 5z"/></g><g class="key-Morocco"><circle cx="92" cy="490" r="1.5" fill="#923E8B" opacity=".7"/><path stroke-width="1" opacity=".7" stroke="#923E8B" fill="none" stroke-linecap="butt" d="M92 490v-15l-14 3 23 12 3 9"/><path cx="104" cy="499" r="2.5" fill="#923E8B" opacity=".7" d="m105.58 495.84-.79 5.53-3.95-3.95z"/></g><g class="key-Netherlands"><circle cx="195" cy="499" r="1.5" fill="#4C5C78" opacity=".7"/><path stroke-width="1" opacity=".7" stroke="#4C5C78" fill="none" stroke-linecap="butt" d="M195 499h17l-9 3h11l-4 1h-10 31-22 22-22l17-1-8 1"/><path cx="218" cy="503" r="2.5" fill="#4C5C78" opacity=".7" d="m220.8 505.17-5.28-1.86 4.65-3.1z"/></g><g class="key-Pakistan"><circle cx="103" cy="239" r="1.5" fill="#2D8587" opacity=".7"/><path stroke-width="1" opacity=".7" stroke="#2D8587" fill="none" stroke-linecap="butt" d="m103 239 5 184 3-31v-24l4 48 3 6 2 16-2 29 6 1 1 8-1 10 3-2"/><path cx="127" cy="484" r="2.5" fill="#2D8587" opacity=".7" d="m123.53 483.3 5.55-.69-2.77 4.86z"/></g><g class="key-Paraguay"><circle cx="107" cy="499" r="1.5" fill="#932834" opacity=".7"/><path stroke-width="1" opacity=".7" stroke="#932834" fill="none" stroke-linecap="butt" d="m107 499 2-48 5 7-8 2 4 6-1-19 4 22 2 11-5-2 3-8 6 1v15l-6-6h20v3l-8 6 12 7-8-2 16 2 5 1v2l-4-2"/><path cx="146" cy="497" r="2.5" fill="#932834" opacity=".7" d="m147.12 500.35-3.36-4.47h5.6z"/></g><g class="key-South-Asia"><circle cx="106" cy="289" r="1.5" fill="#959595" opacity=".7"/><path stroke-width="1" opacity=".7" stroke="#959595" fill="none" stroke-linecap="butt" d="m106 289 2 9 1 3v12l1 8 2 8 3 4v6l1 11 1 5 2 9 1 5v5l1 16 3 22 2 7v18"/><path cx="126" cy="437" r="2.5" fill="#959595" opacity=".7" d="m128.5 434.5-2.5 5-2.5-5z"/></g><g class="key-Spain"><circle cx="116" cy="501" r="1.5" fill="#4C5C78" opacity=".7"/><path stroke-width="1" opacity=".7" stroke="#4C5C78" fill="none" stroke-linecap="butt" d="m116 501-14-3 33 3-6-1h9-28 15l16 1h-6l-11-1h6l7-2-15 1 21-1-14 2v-1l11-1-19 2 22-1"/><path cx="143" cy="499" r="2.5" fill="#4C5C78" opacity=".7" d="m140.39 496.62 5.1 2.27-4.87 2.72z"/></g><g class="key-Sri-Lanka"><circle cx="124" cy="463" r="1.5" fill="#2D8587" opacity=".7"/><path stroke-width="1" opacity=".7" stroke="#2D8587" fill="none" stroke-linecap="butt" d="m124 463 2-1 6 3 3 19 4 7-4 4 4 4"/><path cx="139" cy="499" r="2.5" fill="#2D8587" opacity=".7" d="m139 495.46 1.77 5.3-5.3-1.76z"/></g><g class="key-Sub__002dSaharan-Africa"><circle cx="91" cy="263" r="1.5" fill="#959595" opacity=".7"/><path stroke-width="1" opacity=".7" stroke="#959595" fill="none" stroke-linecap="butt" d="M91 263v-8l-3-9 4-5-1-3-1 1 3 6-1 2v-1l1 1v24l1 6 1 5-1 3 2 5 2 6-2 9 1 7-2 1 2 6v1h-1l2 3-1 4"/><path cx="97" cy="327" r="2.5" fill="#959595" opacity=".7" d="m100.03 325.18-3.64 4.25-1.2-5.46z"/></g><g class="key-Thailand"><circle cx="107" cy="463" r="1.5" fill="#2D8587" opacity=".7"/><path stroke-width="1" opacity=".7" stroke="#2D8587" fill="none" stroke-linecap="butt" d="m107 463 5 11 2 16 2 4v3-5l4 1 5 5-1 2h1l1 2v1l-1-1 1 1h3-5 4"/><path cx="128" cy="503" r="2.5" fill="#2D8587" opacity=".7" d="m125.5 500.5 5 2.5-5 2.5z"/></g><g class="key-Tunisia"><circle cx="92" cy="456" r="1.5" fill="#923E8B" opacity=".7"/><path stroke-width="1" opacity=".7" stroke="#923E8B" fill="none" stroke-linecap="butt" d="m92 456-1-4-2 25 8 11 5 6-11 8"/><path cx="91" cy="502" r="2.5" fill="#923E8B" opacity=".7" d="m94.5 502.55-5.52.92 2.57-4.96z"/></g><g class="key-Upper-middle-income"><circle cx="130" cy="318" r="1.5" fill="#959595" opacity=".7"/><path stroke-width="1" opacity=".7" stroke="#959595" fill="none" stroke-linecap="butt" d="m130 318-1 5-8 8 1 9-1 11 1 16 3 11 2 2 2 2v1l-2 11 2 6v18l3 14 1 13 2 5v5l4 3-1 5 2 5 3 9-1 4 3 12 1 1 2 2v1h5-2"/><path cx="151" cy="497" r="2.5" fill="#959595" opacity=".7" d="m153.5 499.5-5-2.5 5-2.5z"/></g><g class="key-World"><circle cx="123" cy="345" r="1.5" fill="#959595" opacity=".7"/><path stroke-width="1" opacity=".7" stroke="#959595" fill="none" stroke-linecap="butt" d="M123 345v1l-2 4-1 4 2 4-1 9 3 7h1l1-1 1 5-1 4 1 4v9l5 8-2 9 1 3 1 5 3 3v10l2 10-1 4 3 6 1 3 1 3 1 2 2 2"/><path cx="144" cy="463" r="2.5" fill="#959595" opacity=".7" d="m144 459.46 1.77 5.3-5.3-1.76z"/></g><g class="key-Argentina"><circle cx="115" cy="497" r="1.5" fill="#932834" opacity=".7"/><path stroke-width="1" opacity=".7" stroke="#932834" fill="none" stroke-linecap="butt" d="m115 497 9-5 2-1h-5l2-9-3-2 5 2 14-3h-9l3-6-1-17-2-27v40l6 9 8 7-7 4 10 3h-3l-15 1 28 4-4 1h-8l11 1h1l6-1 4 1-13-2"/><path cx="154" cy="497" r="2.5" fill="#932834" opacity=".7" d="m156.1 499.85-4.57-3.23 5.32-1.71z"/></g><g class="key-Bangladesh"><circle cx="117" cy="313" r="1.5" fill="#2D8587" opacity=".7"/><path stroke-width="1" opacity=".7" stroke="#2D8587" fill="none" stroke-linecap="butt" d="M117 313v37l14 4 6 40 10 25 6 22"/><path cx="153" cy="441" r="2.5" fill="#2D8587" opacity=".7" d="m154.75 437.93-1.1 5.48-3.72-4.16z"/></g><g class="key-Canada"><circle cx="117" cy="502" r="1.5" fill="#E04E4B" opacity=".7"/><path stroke-width="1" opacity=".7" stroke="#E04E4B" fill="none" stroke-linecap="butt" d="M117 502v-1h4v1h6-3 10-1l12-1-9 1h11-3"/><path cx="144" cy="502" r="2.5" fill="#E04E4B" opacity=".7" d="m146.5 504.5-5-2.5 5-2.5z"/></g><g class="key-El-Salvador"><circle cx="101" cy="412" r="1.5" fill="#E04E4B" opacity=".7"/><path stroke-width="1" opacity=".7" stroke="#E04E4B" fill="none" stroke-linecap="butt" d="m101 412 7 36 1-8-4-25 6 16-1 18-5-5 10-2v-5l1 18 2 2 3 15-3 11 5-10h-3v5l-4 5 5 2-1 3-4 2-4 4 8-1 3 2-9 2"/><path cx="114" cy="497" r="2.5" fill="#E04E4B" opacity=".7" d="m116.98 498.9-5.42-1.36 4.34-3.52z"/></g><g class="key-Finland"><circle cx="131" cy="503" r="1.5" fill="#4C5C78" opacity=".7"/><path stroke-width="1" opacity=".7" stroke="#4C5C78" fill="none" stroke-linecap="butt" d="M131 503h2-5 4-2 6-2 4-11 10-2 6-16"/><path cx="125" cy="503" r="2.5" fill="#4C5C78" opacity=".7" d="m127.5 505.5-5-2.5 5-2.5z"/></g><g class="key-Germany"><circle cx="177" cy="503" r="1.5" fill="#4C5C78" opacity=".7"/><path stroke-width="1" opacity=".7" stroke="#4C5C78" fill="none" stroke-linecap="butt" d="m177 503-3-1h5l4 1h13-23 28-20l16-1 1 1h-13 28-15"/><path cx="198" cy="503" r="2.5" fill="#4C5C78" opacity=".7" d="m200.5 505.5-5-2.5 5-2.5z"/></g><g class="key-Ghana"><circle cx="93" cy="294" r="1.5" fill="#923E8B" opacity=".7"/><path stroke-width="1" opacity=".7" stroke="#923E8B" fill="none" stroke-linecap="butt" d="m93 294 2 60 2 47 6 53 1-6"/><path cx="104" cy="448" r="2.5" fill="#923E8B" opacity=".7" d="m101.12 450.05 3.3-4.52 1.63 5.35z"/></g><g class="key-Guinea"><circle cx="97" cy="103" r="1.5" fill="#923E8B" opacity=".7"/><path stroke-width="1" opacity=".7" stroke="#923E8B" fill="none" stroke-linecap="butt" d="M97 103v183l1-58 1 20-7 98"/><path cx="92" cy="346" r="2.5" fill="#923E8B" opacity=".7" d="m94.67 343.68-2.85 4.81-2.14-5.16z"/></g><g class="key-Guinea__002dBissau"><circle cx="100" cy="310" r="1.5" fill="#923E8B" opacity=".7"/><path stroke-width="1" opacity=".7" stroke="#923E8B" fill="none" stroke-linecap="butt" d="m100 310-3 1-6-55 11-51"/><path cx="102" cy="205" r="2.5" fill="#923E8B" opacity=".7" d="m99.03 206.92 3.5-4.36 1.39 5.41z"/></g><g class="key-Italy"><circle cx="149" cy="502" r="1.5" fill="#4C5C78" opacity=".7"/><path stroke-width="1" opacity=".7" stroke="#4C5C78" fill="none" stroke-linecap="butt" d="m149 502 8-4-3 2 7-4-1 2-12 2 20 1h-2l-1-1h-2 3l-5-1 4-2 7 1h-7l-1-1 8 1-5-3 3 1-7 1"/><path cx="163" cy="497" r="2.5" fill="#4C5C78" opacity=".7" d="m165.83 499.12-5.3-1.77 4.6-3.18z"/></g><g class="key-Norway"><circle cx="142" cy="502" r="1.5" fill="#4C5C78" opacity=".7"/><path stroke-width="1" opacity=".7" stroke="#4C5C78" fill="none" stroke-linecap="butt" d="M142 502h-6 13-7l-6 1h4l11-1-19 1 10-1-10 1h5-6 25l-2-1h-39"/><path cx="115" cy="502" r="2.5" fill="#4C5C78" opacity=".7" d="m117.5 504.5-5-2.5 5-2.5z"/></g><g class="key-Panama"><circle cx="104" cy="408" r="1.5" fill="#E04E4B" opacity=".7"/><path stroke-width="1" opacity=".7" stroke="#E04E4B" fill="none" stroke-linecap="butt" d="m104 408 2 24-2 6 7-1 2 8-2 4 6-13v19h2l-9 4 6 1-2-3 4 12 1 11-1 9-7-5 6 6v-5l5 6 2-3-9 6h9v-2l-1 4"/><path cx="123" cy="496" r="2.5" fill="#E04E4B" opacity=".7" d="m126.03 494.18-3.64 4.25-1.2-5.46z"/></g><g class="key-Senegal"><circle cx="86" cy="205" r="1.5" fill="#923E8B" opacity=".7"/><path stroke-width="1" opacity=".7" stroke="#923E8B" fill="none" stroke-linecap="butt" d="m86 205-1 48 3 34 5 49-4-1"/><path cx="89" cy="335" r="2.5" fill="#923E8B" opacity=".7" d="m90.82 338.03-4.25-3.64 5.46-1.2z"/></g><g class="key-Tanzania"><circle cx="94" cy="188" r="1.5" fill="#923E8B" opacity=".7"/><path stroke-width="1" opacity=".7" stroke="#923E8B" fill="none" stroke-linecap="butt" d="m94 188 3-61v113l-1 47 3 1"/><path cx="99" cy="288" r="2.5" fill="#923E8B" opacity=".7" d="m97.42 284.84 3.95 3.95-5.53.8z"/></g><g class="key-United-Kingdom"><circle cx="185" cy="502" r="1.5" fill="#4C5C78" opacity=".7"/><path stroke-width="1" opacity=".7" stroke="#4C5C78" fill="none" stroke-linecap="butt" d="M185 502h2l6-3 3 3h2-16 14l-1-1h3l2 1h-12 14-7l-1 1 1-2-14 1h26l5 1-17-1h4"/><path cx="199" cy="502" r="2.5" fill="#4C5C78" opacity=".7" d="m196.5 499.5 5 2.5-5 2.5z"/></g><g class="key-United-States"><circle cx="151" cy="501" r="1.5" fill="#E04E4B" opacity=".7"/><path stroke-width="1" opacity=".7" stroke="#E04E4B" fill="none" stroke-linecap="butt" d="M151 501h15-19 23-16 9l2-1h10-6l9-1h14-8 6-2 11-23 24l6-1h-4l21 1 3-1-1 1"/><path cx="225" cy="499" r="2.5" fill="#E04E4B" opacity=".7" d="m228.54 499-5.3 1.77 1.76-5.3z"/></g><g class="key-Zambia"><circle cx="101" cy="262" r="1.5" fill="#923E8B" opacity=".7"/><path stroke-width="1" opacity=".7" stroke="#923E8B" fill="none" stroke-linecap="butt" d="m101 262 11-4-6 55-13-1 4-36 7-28v-16l12-16 9 31"/><path cx="125" cy="247" r="2.5" fill="#923E8B" opacity=".7" d="m126.7 243.9-1 5.5-3.8-4.1z"/></g><g class="key-Belgium"><circle cx="182" cy="499" r="1.5" fill="#4C5C78" opacity=".7"/><path stroke-width="1" opacity=".7" stroke="#4C5C78" fill="none" stroke-linecap="butt" d="m182 499 8 2h15l8 1h9l11 1-9-1h-5 5l4 1h14-6l-6-1h-6l10 1h11-50 36-16"/><path cx="215" cy="503" r="2.5" fill="#4C5C78" opacity=".7" d="m217.5 505.5-5-2.5 5-2.5z"/></g><g class="key-Bolivia"><circle cx="97" cy="438" r="1.5" fill="#932834" opacity=".7"/><path stroke-width="1" opacity=".7" stroke="#932834" fill="none" stroke-linecap="butt" d="m97 438-1-19v-26l5-15 2 26-1-8-2 48 6-25 3 14-6 16 4 6 6 3-5 14 1-5-7 6 4 5 6-2-3-6-5 5 9 7"/><path cx="113" cy="482" r="2.5" fill="#932834" opacity=".7" d="m112.56 478.5 2.41 5.03-5.48-1.1z"/></g><g class="key-Burundi"><circle cx="96" cy="146" r="1.5" fill="#923E8B" opacity=".7"/><path stroke-width="1" opacity=".7" stroke="#923E8B" fill="none" stroke-linecap="butt" d="m96 146-2-12v26l-1 26"/><path cx="93" cy="186" r="2.5" fill="#923E8B" opacity=".7" d="m95.6 183.6-2.7 4.9-2.3-5.1z"/></g><g class="key-Central-African-Republic"><circle cx="90" cy="136" r="1.5" fill="#923E8B" opacity=".7"/><path stroke-width="1" opacity=".7" stroke="#923E8B" fill="none" stroke-linecap="butt" d="m90 136-1 80"/><path cx="89" cy="216" r="2.5" fill="#923E8B" opacity=".7" d="m91.53 213.53-2.56 4.97-2.44-5.03z"/></g><g class="key-Colombia"><circle cx="117" cy="464" r="1.5" fill="#932834" opacity=".7"/><path stroke-width="1" opacity=".7" stroke="#932834" fill="none" stroke-linecap="butt" d="m117 464 2-34 8-16 2 16-2-15 3 31 5 4v4l1 6v-2l-1 6-3 5-1 7h6l-8 3 15 2 3 2 1 1 6 2-2-1"/><path cx="152" cy="485" r="2.5" fill="#932834" opacity=".7" d="m153.12 488.35-3.36-4.47h5.6z"/></g><g class="key-Cote-d__0027Ivoire"><circle cx="90" cy="400" r="1.5" fill="#923E8B" opacity=".7"/><path stroke-width="1" opacity=".7" stroke="#923E8B" fill="none" stroke-linecap="butt" d="m90 400 2 9 6-24 5 12-1-26 9 2"/><path cx="111" cy="373" r="2.5" fill="#923E8B" opacity=".7" d="m109.1 370.02 4.34 3.52-5.42 1.36z"/></g><g class="key-Denmark"><circle cx="148" cy="501" r="1.5" fill="#4C5C78" opacity=".7"/><path stroke-width="1" opacity=".7" stroke="#4C5C78" fill="none" stroke-linecap="butt" d="m148 501 34 2h-1l-2-1h-1 2l-7 1h-1 6l13-2-16 2h8v-1h10-12l12 1-34-1"/><path cx="159" cy="502" r="2.5" fill="#4C5C78" opacity=".7" d="m161.43 504.57-4.93-2.64 5.07-2.36z"/></g><g class="key-Dominican-Republic"><circle cx="179" cy="480" r="1.5" fill="#E04E4B" opacity=".7"/><path stroke-width="1" opacity=".7" stroke="#E04E4B" fill="none" stroke-linecap="butt" d="m179 480-40 2 2-2 4-1 3 7v-7l-6-5-3-8v12l8 6h2l1 3-9 2 9 3 3-2-15 2 5 2h-18l1 1 1 1v4l-1 1"/><path cx="126" cy="501" r="2.5" fill="#E04E4B" opacity=".7" d="m129.54 501-5.3 1.77 1.76-5.3z"/></g><g class="key-Guyana"><circle cx="132" cy="377" r="1.5" fill="#932834" opacity=".7"/><path stroke-width="1" opacity=".7" stroke="#932834" fill="none" stroke-linecap="butt" d="m132 377 10 75"/><path cx="142" cy="452" r="2.5" fill="#932834" opacity=".7" d="m144.15 449.2-1.82 5.28-3.14-4.63z"/></g><g class="key-Israel"><circle cx="129" cy="502" r="1.5" fill="#2D8587" opacity=".7"/><path stroke-width="1" opacity=".7" stroke="#2D8587" fill="none" stroke-linecap="butt" d="M129 502h-22 8l9-1h-4l5 1 22-1h5l7 1"/><path cx="159" cy="502" r="2.5" fill="#2D8587" opacity=".7" d="m156.88 499.17 4.6 3.18-5.3 1.77z"/></g><g class="key-Jordan"><circle cx="95" cy="491" r="1.5" fill="#2D8587" opacity=".7"/><path stroke-width="1" opacity=".7" stroke="#2D8587" fill="none" stroke-linecap="butt" d="m95 491-5 6 5 2-6 3 3 1h14"/><path cx="106" cy="503" r="2.5" fill="#2D8587" opacity=".7" d="m103.5 500.5 5 2.5-5 2.5z"/></g><g class="key-Kenya"><circle cx="101" cy="365" r="1.5" fill="#923E8B" opacity=".7"/><path stroke-width="1" opacity=".7" stroke="#923E8B" fill="none" stroke-linecap="butt" d="M101 365h5l-10-2 5-51 2 29"/><path cx="103" cy="341" r="2.5" fill="#923E8B" opacity=".7" d="m105.32 338.33-2.15 5.16-2.84-4.81z"/></g><g class="key-Laos"><circle cx="118" cy="367" r="1.5" fill="#2D8587" opacity=".7"/><path stroke-width="1" opacity=".7" stroke="#2D8587" fill="none" stroke-linecap="butt" d="m118 367 2-85 9 81 10 28 5 49 7 20"/><path cx="151" cy="460" r="2.5" fill="#2D8587" opacity=".7" d="m152.53 456.81-.7 5.55-4.02-3.9z"/></g><g class="key-Malaysia"><circle cx="124" cy="497" r="1.5" fill="#2D8587" opacity=".7"/><path stroke-width="1" opacity=".7" stroke="#2D8587" fill="none" stroke-linecap="butt" d="m124 497 3-2-2 6 6-3v3h4l3 2h5"/><path cx="143" cy="503" r="2.5" fill="#2D8587" opacity=".7" d="m140.5 500.5 5 2.5-5 2.5z"/></g><g class="key-Mexico"><circle cx="119" cy="471" r="1.5" fill="#E04E4B" opacity=".7"/><path stroke-width="1" opacity=".7" stroke="#E04E4B" fill="none" stroke-linecap="butt" d="m119 471-3-1 1-46 1 23 2 17 3 10 3 3 1-3 1 11 5-5v7h2l3 7 1 2"/><path cx="139" cy="496" r="2.5" fill="#E04E4B" opacity=".7" d="M140.12 492.65v5.59l-4.47-3.36z"/></g><g class="key-Niger"><circle cx="77" cy="161" r="1.5" fill="#923E8B" opacity=".7"/><path stroke-width="1" opacity=".7" stroke="#923E8B" fill="none" stroke-linecap="butt" d="M77 161v-14l3 28-1 12-1 95 2 23"/><path cx="80" cy="305" r="2.5" fill="#923E8B" opacity=".7" d="m82.27 302.3-2.05 5.2-2.93-4.77z"/></g><g class="key-Nigeria"><circle cx="92" cy="247" r="1.5" fill="#923E8B" opacity=".7"/><path stroke-width="1" opacity=".7" stroke="#923E8B" fill="none" stroke-linecap="butt" d="m92 247 1-27 2 39 4-2-1 76"/><path cx="98" cy="333" r="2.5" fill="#923E8B" opacity=".7" d="m100.53 330.53-2.56 4.97-2.44-5.03z"/></g><g class="key-Sweden"><circle cx="131" cy="502" r="1.5" fill="#4C5C78" opacity=".7"/><path stroke-width="1" opacity=".7" stroke="#4C5C78" fill="none" stroke-linecap="butt" d="M131 502h17l4 1v-1l6-1 1-2-12 3 15-1h-5 4-10 27l-11 1h10l-43-2"/><path cx="134" cy="500" r="2.5" fill="#4C5C78" opacity=".7" d="m136.38 502.61-4.88-2.73 5.11-2.26z"/></g><g class="key-Switzerland"><circle cx="175" cy="501" r="1.5" fill="#4C5C78" opacity=".7"/><path stroke-width="1" opacity=".7" stroke="#4C5C78" fill="none" stroke-linecap="butt" d="m175 501 9 2h-4 7-8 14-17 20-34 29-10"/><path cx="181" cy="503" r="2.5" fill="#4C5C78" opacity=".7" d="m183.5 505.5-5-2.5 5-2.5z"/></g><g class="key-Trinidad-and-Tobago"><circle cx="135" cy="489" r="1" fill="#E04E4B" opacity=".8" stroke="#666" stroke-width=".5"/></g><g class="key-Uganda"><circle cx="99" cy="222" r="1.5" fill="#923E8B" opacity=".7"/><path stroke-width="1" opacity=".7" stroke="#923E8B" fill="none" stroke-linecap="butt" d="m99 222-6 5 8-18v8l-1 37 8 52v41l-2-24"/><path cx="106" cy="323" r="2.5" fill="#923E8B" opacity=".7" d="m103.72 325.7 2.07-5.2 2.9 4.78z"/></g><g class="key-Ukraine"><circle cx="122" cy="491" r="1.5" fill="#4C5C78" opacity=".7"/><path stroke-width="1" opacity=".7" stroke="#4C5C78" fill="none" stroke-linecap="butt" d="m122 491 8 7-14-16-9-1 13 16-8 4h10l-4 1-3 1h-4 22-13 18-11 22-4 9-6 9"/><path cx="157" cy="503" r="2.5" fill="#4C5C78" opacity=".7" d="m154.5 500.5 5 2.5-5 2.5z"/></g><g class="key-Uruguay"><circle cx="120" cy="501" r="1.5" fill="#932834" opacity=".7"/><path stroke-width="1" opacity=".7" stroke="#932834" fill="none" stroke-linecap="butt" d="M120 501h10-4 14-9 2v-1h16-1l3 1-3 1h-8 5l4 1-6-1h-5l8 1h8-1 7"/><path cx="160" cy="503" r="2.5" fill="#932834" opacity=".7" d="m157.5 500.5 5 2.5-5 2.5z"/></g><g class="key-Venezuela"><circle cx="117" cy="484" r="1.5" fill="#932834" opacity=".7"/><path stroke-width="1" opacity=".7" stroke="#932834" fill="none" stroke-linecap="butt" d="m117 484 7-22 2-2 4-5v8l-2-27v-15l3 13v9l1 31"/><path cx="132" cy="474" r="2.5" fill="#932834" opacity=".7" d="m134.42 471.42-2.34 5.08-2.66-4.92z"/></g><g class="key-Vietnam"><circle cx="128" cy="275" r="1.5" fill="#2D8587" opacity=".7"/><path stroke-width="1" opacity=".7" stroke="#2D8587" fill="none" stroke-linecap="butt" d="m128 275 10 91 12-24 4 49 1 30 3 21 5 44 5 5 2 1-3 3h5"/><path cx="172" cy="495" r="2.5" fill="#2D8587" opacity=".7" d="m169.5 492.5 5 2.5-5 2.5z"/></g><g class="key-Belize"><circle cx="110" cy="459" r="1.5" fill="#E04E4B" opacity=".7"/><path stroke-width="1" opacity=".7" stroke="#E04E4B" fill="none" stroke-linecap="butt" d="m110 459-5 2 11-16-2-12 1 8 6 2"/><path cx="121" cy="443" r="2.5" fill="#E04E4B" opacity=".7" d="m119.42 439.84 3.95 3.95-5.53.8z"/></g><g class="key-Botswana"><circle cx="79" cy="358" r="1.5" fill="#923E8B" opacity=".7"/><path stroke-width="1" opacity=".7" stroke="#923E8B" fill="none" stroke-linecap="butt" d="m79 358-1 22v48l10 12"/><path cx="88" cy="440" r="2.5" fill="#923E8B" opacity=".7" d="m88.32 436.48 1.28 5.44-5.12-2.24z"/></g><g class="key-Czechia"><circle cx="143" cy="503" r="1.5" fill="#4C5C78" opacity=".7"/><path stroke-width="1" opacity=".7" stroke="#4C5C78" fill="none" stroke-linecap="butt" d="M143 503h25-23 21-12 16-19 30-6 8-20"/><path cx="163" cy="503" r="2.5" fill="#4C5C78" opacity=".7" d="m165.5 505.5-5-2.5 5-2.5z"/></g><g class="key-India"><circle cx="109" cy="295" r="1.5" fill="#2D8587" opacity=".7"/><path stroke-width="1" opacity=".7" stroke="#2D8587" fill="none" stroke-linecap="butt" d="m109 295 4 34 4 31 5 45"/><path cx="122" cy="405" r="2.5" fill="#2D8587" opacity=".7" d="m124.2 402.24-1.92 5.24-3.04-4.69z"/></g><g class="key-Madagascar"><circle cx="106" cy="198" r="1.5" fill="#923E8B" opacity=".7"/><path stroke-width="1" opacity=".7" stroke="#923E8B" fill="none" stroke-linecap="butt" d="m106 198 1 15-1 11 1-19 9-15 13-28 2-3"/><path cx="131" cy="159" r="2.5" fill="#923E8B" opacity=".7" d="m127.53 159.7 4.86-2.78-.7 5.55z"/></g><g class="key-Mauritania"><circle cx="87" cy="324" r="1.5" fill="#923E8B" opacity=".7"/><path stroke-width="1" opacity=".7" stroke="#923E8B" fill="none" stroke-linecap="butt" d="m87 324-2 89 2 1-4 15 2 27 16 21"/><path cx="101" cy="477" r="2.5" fill="#923E8B" opacity=".7" d="m101.47 473.5 1.05 5.49-5.02-2.46z"/></g><g class="key-Nicaragua"><circle cx="103" cy="343" r="1.5" fill="#E04E4B" opacity=".7"/><path stroke-width="1" opacity=".7" stroke="#E04E4B" fill="none" stroke-linecap="butt" d="m103 343-1 53v33l1 37 5 5-2 17"/><path cx="106" cy="488" r="2.5" fill="#E04E4B" opacity=".7" d="m108.77 485.8-3.06 4.68-1.9-5.25z"/></g><g class="key-Russia"><circle cx="101" cy="487" r="1.5" fill="#4C5C78" opacity=".7"/><path stroke-width="1" opacity=".7" stroke="#4C5C78" fill="none" stroke-linecap="butt" d="m101 487-4-5 6 14-8-3 2-9 2 6 7 5 1 3h-4l2 1-1 1 1 1 2 1 7 1h-10 8-7 10-1 10-6"/><path cx="118" cy="503" r="2.5" fill="#4C5C78" opacity=".7" d="m120.5 505.5-5-2.5 5-2.5z"/></g><g class="key-South-Africa"><circle cx="110" cy="366" r="1.5" fill="#923E8B" opacity=".7"/><path stroke-width="1" opacity=".7" stroke="#923E8B" fill="none" stroke-linecap="butt" d="m110 366 6-21 5 6 9 40 13 39 2 2 13-10"/><path cx="158" cy="422" r="2.5" fill="#923E8B" opacity=".7" d="m154.5 421.54 5.48-1.06-2.44 5.03z"/></g><g class="key-Austria"><circle cx="167" cy="502" r="1.5" fill="#4C5C78" opacity=".7"/><path stroke-width="1" opacity=".7" stroke="#4C5C78" fill="none" stroke-linecap="butt" d="m167 502 2-3 7 3h-12l22 1-6-1-8 1 3-2h16l-11-1-4 1h20-19l-2 1h21l-15-2h18l-17 2-2-1"/><path cx="180" cy="501" r="2.5" fill="#4C5C78" opacity=".7" d="m181.12 504.35-3.36-4.47h5.6z"/></g><g class="key-Burkina-Faso"><circle cx="86" cy="140" r="1.5" fill="#923E8B" opacity=".7"/><path stroke-width="1" opacity=".7" stroke="#923E8B" fill="none" stroke-linecap="butt" d="m86 140 2 7 1 106 1 8 3 51"/><path cx="93" cy="312" r="2.5" fill="#923E8B" opacity=".7" d="m95.35 309.36-2.2 5.14-2.8-4.85z"/></g><g class="key-Ecuador"><circle cx="108" cy="428" r="1.5" fill="#932834" opacity=".7"/><path stroke-width="1" opacity=".7" stroke="#932834" fill="none" stroke-linecap="butt" d="m108 428 1-20 3-29 6 59 5-1-1 15v15l5-1-3 4v1l2 7-8 5 11 1-6 5 11 3 14-4-10-1-6 2h9"/><path cx="141" cy="489" r="2.5" fill="#932834" opacity=".7" d="m138.5 486.5 5 2.5-5 2.5z"/></g><g class="key-Eswatini"><circle cx="94" cy="145" r="1.5" fill="#923E8B" opacity=".7"/><path stroke-width="1" opacity=".7" stroke="#923E8B" fill="none" stroke-linecap="butt" d="m94 145 7 145-7 26-2 60"/><path cx="92" cy="376" r="2.5" fill="#923E8B" opacity=".7" d="m94.58 373.58-2.66 4.92-2.34-5.08z"/></g><g class="key-France"><circle cx="187" cy="503" r="1.5" fill="#4C5C78" opacity=".7"/><path stroke-width="1" opacity=".7" stroke="#4C5C78" fill="none" stroke-linecap="butt" d="M187 503h12l-19-1 24 1h-18 16-9 6-3 9-34 29-7"/><path cx="193" cy="503" r="2.5" fill="#4C5C78" opacity=".7" d="m195.5 505.5-5-2.5 5-2.5z"/></g><g class="key-Ireland"><circle cx="177" cy="502" r="1.5" fill="#4C5C78" opacity=".7"/><path stroke-width="1" opacity=".7" stroke="#4C5C78" fill="none" stroke-linecap="butt" d="M177 502h32-22l10 1h17-21l10-2-5 2 8-1-13-1h27l-30 1 19-2 12 1 9 1-14 1 10-1"/><path cx="226" cy="502" r="2.5" fill="#4C5C78" opacity=".7" d="m223.26 499.76 5.23 2-4.73 2.98z"/></g><g class="key-Lesotho"><circle cx="86" cy="283" r="1.5" fill="#923E8B" opacity=".7"/><path stroke-width="1" opacity=".7" stroke="#923E8B" fill="none" stroke-linecap="butt" d="m86 283-1-50 4 151"/><path cx="89" cy="384" r="2.5" fill="#923E8B" opacity=".7" d="m91.43 381.43-2.36 5.07-2.64-4.93z"/></g><g class="key-Mali"><circle cx="86" cy="131" r="1.5" fill="#923E8B" opacity=".7"/><path stroke-width="1" opacity=".7" stroke="#923E8B" fill="none" stroke-linecap="butt" d="m86 131 3 116 3 29 12 8"/><path cx="104" cy="284" r="2.5" fill="#923E8B" opacity=".7" d="m103.3 280.53 2.78 4.86-5.55-.7z"/></g><g class="key-Turkey"><circle cx="106" cy="490" r="1.5" fill="#2D8587" opacity=".7"/><path stroke-width="1" opacity=".7" stroke="#2D8587" fill="none" stroke-linecap="butt" d="m106 490 5 4 1-8 3 8 3-1 1 2-5 2 4 4 3-1h-1l4 3 5-1h-7 8-4l3 1h-2"/><path cx="127" cy="503" r="2.5" fill="#2D8587" opacity=".7" d="m129.5 505.5-5-2.5 5-2.5z"/></g><g class="key-Algeria"><circle cx="86" cy="479" r="1.5" fill="#923E8B" opacity=".7"/><path stroke-width="1" opacity=".7" stroke="#923E8B" fill="none" stroke-linecap="butt" d="m86 479 15 22"/><path cx="101" cy="501" r="2.5" fill="#923E8B" opacity=".7" d="m101.66 497.53.75 5.54-4.88-2.73z"/></g><g class="key-Australia"><circle cx="105" cy="499" r="1.5" fill="#A8633C" opacity=".7"/><path stroke-width="1" opacity=".7" stroke="#A8633C" fill="none" stroke-linecap="butt" d="m105 499 1 1-16-1 19 2H95l6 1 8-1"/><path cx="109" cy="501" r="2.5" fill="#A8633C" opacity=".7" d="m106.2 498.83 5.28 1.86-4.65 3.1z"/></g><g class="key-Azerbaijan"><circle cx="98" cy="472" r="1.5" fill="#2D8587" opacity=".7"/><path stroke-width="1" opacity=".7" stroke="#2D8587" fill="none" stroke-linecap="butt" d="m98 472 20 20v11h-1"/><path cx="117" cy="503" r="2.5" fill="#2D8587" opacity=".7" d="m114.5 500.5 5 2.5-5 2.5z"/></g><g class="key-Ethiopia"><circle cx="90" cy="202" r="1.5" fill="#923E8B" opacity=".7"/><path stroke-width="1" opacity=".7" stroke="#923E8B" fill="none" stroke-linecap="butt" d="m90 202 2 49v84l12 13 13 21"/><path cx="117" cy="369" r="2.5" fill="#923E8B" opacity=".7" d="m117.81 365.56.5 5.57-4.75-2.94z"/></g><g class="key-Fragile-and-conflict-affected-situations"><circle cx="93" cy="247" r="1.5" fill="#959595" opacity=".7"/><path stroke-width="1" opacity=".7" stroke="#959595" fill="none" stroke-linecap="butt" d="m93 247 1 3-1 4 1 5 1 12v8l1 4v10l1 6 2 7-1 5v4l2 2v8l-2 7 1 8-2 2 1 5 1-7-1-3v-1"/><path cx="98" cy="336" r="2.5" fill="#959595" opacity=".7" d="m95.5 338.5 2.5-5 2.5 5z"/></g><g class="key-Greece"><circle cx="138" cy="496" r="1.5" fill="#4C5C78" opacity=".7"/><path stroke-width="1" opacity=".7" stroke="#4C5C78" fill="none" stroke-linecap="butt" d="m138 496 2 5h-3l5-1 1 2-2-1 10 1-4-1-4-2 5-1-2-1 3 2-2-2h-1v1l2 1-9 4"/><path cx="139" cy="503" r="2.5" fill="#4C5C78" opacity=".7" d="m142.3 504.27-5.58-.25 3.55-4.32z"/></g><g class="key-Low-income"><circle cx="90" cy="217" r="1.5" fill="#959595" opacity=".7"/><path stroke-width="1" opacity=".7" stroke="#959595" fill="none" stroke-linecap="butt" d="M90 217v13h1v3l-2 3 2 8h1v-3l-1 16 1 8 2 5-1 6-1 8 4-1-1 6v4l1 5-2 3 1 2 1-4-2-1 1 1"/><path cx="95" cy="299" r="2.5" fill="#959595" opacity=".7" d="m95 295.46 1.77 5.3-5.3-1.76z"/></g><g class="key-Mongolia"><circle cx="85" cy="450" r="1.5" fill="#2D8587" opacity=".7"/><path stroke-width="1" opacity=".7" stroke="#2D8587" fill="none" stroke-linecap="butt" d="m85 450-2-53-1 65 6 36 8 2 2 1h1l2 1-7-1"/><path cx="94" cy="501" r="2.5" fill="#2D8587" opacity=".7" d="m91.5 498.5 5 2.5-5 2.5z"/></g><g class="key-Nepal"><circle cx="105" cy="215" r="1.5" fill="#2D8587" opacity=".7"/><path stroke-width="1" opacity=".7" stroke="#2D8587" fill="none" stroke-linecap="butt" d="m105 215 6 70 1 153"/><path cx="112" cy="438" r="2.5" fill="#2D8587" opacity=".7" d="m114.48 435.48-2.46 5.02-2.54-4.98z"/></g><g class="key-Albania"><circle cx="115" cy="499" r="1.5" fill="#4C5C78" opacity=".7"/><path stroke-width="1" opacity=".7" stroke="#4C5C78" fill="none" stroke-linecap="butt" d="m115 499 15-3 3 3 11 3 14-2v-4 2l-3 1 1-2"/><path cx="156" cy="497" r="2.5" fill="#4C5C78" opacity=".7" d="m152.65 498.12 4.47-3.36v5.6z"/></g><g class="key-Cameroon"><circle cx="96" cy="280" r="1.5" fill="#923E8B" opacity=".7"/><path stroke-width="1" opacity=".7" stroke="#923E8B" fill="none" stroke-linecap="butt" d="m96 280 6 110-1-26v26"/><path cx="101" cy="390" r="2.5" fill="#923E8B" opacity=".7" d="m103.5 387.5-2.5 5-2.5-5z"/></g><g class="key-Georgia"><circle cx="116" cy="480" r="1.5" fill="#2D8587" opacity=".7"/><path stroke-width="1" opacity=".7" stroke="#2D8587" fill="none" stroke-linecap="butt" d="m116 480-5-46-11 6 9-18-13-3 11 1-2 38h4l-2 2v-4l-7 2 9-5v6h-4l-11-8 17 4-1 11 1 9-3 7-2 5h10l-9-6 9 3"/><path cx="116" cy="484" r="2.5" fill="#2D8587" opacity=".7" d="m114.42 480.84 3.95 3.95-5.53.8z"/></g><g class="key-Kazakhstan"><circle cx="85" cy="477" r="1.5" fill="#2D8587" opacity=".7"/><path stroke-width="1" opacity=".7" stroke="#2D8587" fill="none" stroke-linecap="butt" d="m85 477 8-13-1 14-1 9-4 8 2-18 3 24 3 1-5 1h4-8 16-15 9"/><path cx="96" cy="503" r="2.5" fill="#2D8587" opacity=".7" d="m93.5 500.5 5 2.5-5 2.5z"/></g><g class="key-Mozambique"><circle cx="86" cy="145" r="1.5" fill="#923E8B" opacity=".7"/><path stroke-width="1" opacity=".7" stroke="#923E8B" fill="none" stroke-linecap="butt" d="m86 145-4 10-1 44 3 26"/><path cx="84" cy="225" r="2.5" fill="#923E8B" opacity=".7" d="m86.2 222.23-1.91 5.25-3.06-4.68z"/></g><g class="key-Papua-New-Guinea"><circle cx="132" cy="281" r="1.5" fill="#A8633C" opacity=".7"/><path stroke-width="1" opacity=".7" stroke="#A8633C" fill="none" stroke-linecap="butt" d="m132 281 13 56"/><path cx="145" cy="337" r="2.5" fill="#A8633C" opacity=".7" d="m146.87 334-1.3 5.44-3.57-4.31z"/></g><g class="key-Syria"><circle cx="104" cy="494" r="1.5" fill="#2D8587" opacity=".7"/><path stroke-width="1" opacity=".7" stroke="#2D8587" fill="none" stroke-linecap="butt" d="m104 494 3 5"/><path cx="107" cy="499" r="2.5" fill="#2D8587" opacity=".7" d="m107.86 495.57.43 5.57-4.72-3z"/></g><g class="key-Malawi"><circle cx="90" cy="231" r="1.5" fill="#923E8B" opacity=".7"/><path stroke-width="1" opacity=".7" stroke="#923E8B" fill="none" stroke-linecap="butt" d="M90 231v-44l15 6-9 8"/><path cx="96" cy="201" r="2.5" fill="#923E8B" opacity=".7" d="m99.53 201.2-5.4 1.46 2.08-5.19z"/></g><g class="key-Moldova"><circle cx="132" cy="436" r="1.5" fill="#4C5C78" opacity=".7"/><path stroke-width="1" opacity=".7" stroke="#4C5C78" fill="none" stroke-linecap="butt" d="m132 436-12-50-5-49-7 13 8 36v47l-3 38 9-4-1-21-4 47-8 5h20l-15 1 6 2 2 1h-9l9 1h5-13l14-1 8 1h1"/><path cx="137" cy="503" r="2.5" fill="#4C5C78" opacity=".7" d="m134.5 500.5 5 2.5-5 2.5z"/></g><g class="key-Peru"><circle cx="120" cy="428" r="1.5" fill="#932834" opacity=".7"/><path stroke-width="1" opacity=".7" stroke="#932834" fill="none" stroke-linecap="butt" d="M120 428v4l7-3-1 3 3-5 2 10 1 14-2-7 4-8v8l-1 11 6 8 2 9-1 7v1l5 2-1 2-2 3h4l-1 1h1l6 3"/><path cx="152" cy="491" r="2.5" fill="#932834" opacity=".7" d="m150.88 487.65 3.36 4.47h-5.6z"/></g><g class="key-Belarus"><circle cx="105" cy="452" r="1.5" fill="#4C5C78" opacity=".7"/><path stroke-width="1" opacity=".7" stroke="#4C5C78" fill="none" stroke-linecap="butt" d="m105 452-7 5 8 14 1 18 8 5v3l9 5-2-1-5 2h17-13 12-8 12-9 3-11"/><path cx="120" cy="503" r="2.5" fill="#4C5C78" opacity=".7" d="m122.5 505.5-5-2.5 5-2.5z"/></g><g class="key-Gambia"><circle cx="90" cy="194" r="1.5" fill="#923E8B" opacity=".7"/><path stroke-width="1" opacity=".7" stroke="#923E8B" fill="none" stroke-linecap="butt" d="m90 194 3 108-1 90-5 66"/><path cx="87" cy="458" r="2.5" fill="#923E8B" opacity=".7" d="m89.68 455.7-2.87 4.8-2.11-5.18z"/></g><g class="key-Guatemala"><circle cx="101" cy="444" r="1.5" fill="#E04E4B" opacity=".7"/><path stroke-width="1" opacity=".7" stroke="#E04E4B" fill="none" stroke-linecap="butt" d="m101 444 2 19 13-9-7 11"/><path cx="109" cy="465" r="2.5" fill="#E04E4B" opacity=".7" d="m112.45 464.23-4.8 2.88.58-5.56z"/></g><g class="key-Turkmenistan"><circle cx="110" cy="286" r="1" fill="#2D8587" opacity=".8" stroke="#666" stroke-width=".5"/></g><g class="key-Uzbekistan"><circle cx="118" cy="329" r="1.5" fill="#2D8587" opacity=".7"/><path stroke-width="1" opacity=".7" stroke="#2D8587" fill="none" stroke-linecap="butt" d="m118 329 1-94 20 17-2-18"/><path cx="137" cy="234" r="2.5" fill="#2D8587" opacity=".7" d="m134.8 236.76 1.92-5.24 3.04 4.69z"/></g><g class="key-Yemen"><circle cx="91" cy="473" r="1.5" fill="#2D8587" opacity=".7"/><path stroke-width="1" opacity=".7" stroke="#2D8587" fill="none" stroke-linecap="butt" d="m91 473-7-11 5-39"/><path cx="89" cy="423" r="2.5" fill="#2D8587" opacity=".7" d="m86.2 425.16 3.12-4.64 1.84 5.28z"/></g><g class="key-Armenia"><circle cx="103" cy="450" r="1.5" fill="#2D8587" opacity=".7"/><path stroke-width="1" opacity=".7" stroke="#2D8587" fill="none" stroke-linecap="butt" d="m103 450 2-10 6 17-12 12 13 10-6 12-11 3 22 2-3 3-3-2-3 2 13-1-3 1 8-4 2 2h-1l-1 1-19 1 11-2"/><path cx="118" cy="497" r="2.5" fill="#2D8587" opacity=".7" d="m115.1 494.99 5.36 1.56-4.47 3.36z"/></g><g class="key-Suriname"><circle cx="137" cy="411" r="1" fill="#932834" opacity=".8" stroke="#666" stroke-width=".5"/></g><g class="key-Tajikistan"><circle cx="94" cy="282" r="1.5" fill="#2D8587" opacity=".7"/><path stroke-width="1" opacity=".7" stroke="#2D8587" fill="none" stroke-linecap="butt" d="m94 282 15 103 1 60 5 18 12 23 2-1"/><path cx="129" cy="485" r="2.5" fill="#2D8587" opacity=".7" d="M125.65 483.88h5.59l-3.36 4.47z"/></g><g class="key-Angola"><circle cx="82" cy="344" r="1.5" fill="#923E8B" opacity=".7"/><path stroke-width="1" opacity=".7" stroke="#923E8B" fill="none" stroke-linecap="butt" d="m82 344 1 9 2-68"/><path cx="85" cy="285" r="2.5" fill="#923E8B" opacity=".7" d="m82.43 287.43 2.64-4.93 2.36 5.07z"/></g><g class="key-Kyrgyzstan"><circle cx="119" cy="350" r="1.5" fill="#2D8587" opacity=".7"/><path stroke-width="1" opacity=".7" stroke="#2D8587" fill="none" stroke-linecap="butt" d="m119 350 3 16-3 14 2 26 1 54-3-10-2 21-1-2-2 21 11 7-7-6v8l-4-7 9 2-11 5 13-4 1 4v-1l1 3"/><path cx="127" cy="501" r="2.5" fill="#2D8587" opacity=".7" d="m128.58 497.84-.79 5.53-3.95-3.95z"/></g><g class="key-Luxembourg"><circle cx="166" cy="503" r="1.5" fill="#4C5C78" opacity=".7"/><path stroke-width="1" opacity=".7" stroke="#4C5C78" fill="none" stroke-linecap="butt" d="M166 503h18-21 18-18 14-1l2-1-18 1 6-1h9"/><path cx="175" cy="502" r="2.5" fill="#4C5C78" opacity=".7" d="m172.5 499.5 5 2.5-5 2.5z"/></g><g class="key-Philippines"><circle cx="117" cy="443" r="1.5" fill="#2D8587" opacity=".7"/><path stroke-width="1" opacity=".7" stroke="#2D8587" fill="none" stroke-linecap="butt" d="m117 443 5 3 6-6 1 16 4 2 1 19 2 14"/><path cx="136" cy="491" r="2.5" fill="#2D8587" opacity=".7" d="m138.12 488.17-1.77 5.3-3.18-4.6z"/></g><g class="key-Rwanda"><circle cx="87" cy="163" r="1.5" fill="#923E8B" opacity=".7"/><path stroke-width="1" opacity=".7" stroke="#923E8B" fill="none" stroke-linecap="butt" d="m87 163 6 39 13 25 4 24-12 6"/><path cx="98" cy="257" r="2.5" fill="#923E8B" opacity=".7" d="M101.35 258.12h-5.59l3.36-4.47z"/></g><g class="key-Sao-Tome-and-Principe"><circle cx="111" cy="366" r="1.5" fill="#923E8B" opacity=".7"/><path stroke-width="1" opacity=".7" stroke="#923E8B" fill="none" stroke-linecap="butt" d="m111 366-11-14 8-4"/><path cx="108" cy="348" r="2.5" fill="#923E8B" opacity=".7" d="M104.65 346.88h5.59l-3.36 4.47z"/></g><g class="key-Bosnia-and-Herzegovina"><circle cx="128" cy="502" r="1.5" fill="#4C5C78" opacity=".7"/><path stroke-width="1" opacity=".7" stroke="#4C5C78" fill="none" stroke-linecap="butt" d="M128 502h22l-21 1h8"/><path cx="137" cy="503" r="2.5" fill="#4C5C78" opacity=".7" d="m134.5 500.5 5 2.5-5 2.5z"/></g><g class="key-Cape-Verde"><circle cx="83" cy="431" r="1.5" fill="#923E8B" opacity=".7"/><path stroke-width="1" opacity=".7" stroke="#923E8B" fill="none" stroke-linecap="butt" d="m83 431-8 36 2 21"/><path cx="77" cy="488" r="2.5" fill="#923E8B" opacity=".7" d="m79.25 485.27-2.01 5.22-2.97-4.74z"/></g><g class="key-Timor"><circle cx="95" cy="335" r="1.5" fill="#2D8587" opacity=".7"/><path stroke-width="1" opacity=".7" stroke="#2D8587" fill="none" stroke-linecap="butt" d="m95 335-1 5 29 67"/><path cx="123" cy="407" r="2.5" fill="#2D8587" opacity=".7" d="m124.3 403.71-.3 5.58-4.29-3.6z"/></g><g class="key-Djibouti"><circle cx="101" cy="415" r="1.5" fill="#923E8B" opacity=".7"/><path stroke-width="1" opacity=".7" stroke="#923E8B" fill="none" stroke-linecap="butt" d="m101 415 6 9v-18l1 23"/><path cx="108" cy="429" r="2.5" fill="#923E8B" opacity=".7" d="m110.39 426.4-2.28 5.1-2.72-4.89z"/></g><g class="key-Fiji"><circle cx="114" cy="493" r="1.5" fill="#A8633C" opacity=".7"/><path stroke-width="1" opacity=".7" stroke="#A8633C" fill="none" stroke-linecap="butt" d="m114 493-2 3 13 5"/><path cx="125" cy="501" r="2.5" fill="#A8633C" opacity=".7" d="m123.56 497.77 3.77 4.13-5.56.54z"/></g><g class="key-Maldives"><circle cx="101" cy="483" r="1.5" fill="#2D8587" opacity=".7"/><path stroke-width="1" opacity=".7" stroke="#2D8587" fill="none" stroke-linecap="butt" d="m101 483 9 5 8 15"/><path cx="118" cy="503" r="2.5" fill="#2D8587" opacity=".7" d="m119.03 499.62.15 5.59-4.56-3.24z"/></g><g class="key-Benin"><circle cx="92" cy="279" r="1.5" fill="#923E8B" opacity=".7"/><path stroke-width="1" opacity=".7" stroke="#923E8B" fill="none" stroke-linecap="butt" d="m92 279 7-8-4 16"/><path cx="95" cy="287" r="2.5" fill="#923E8B" opacity=".7" d="m98.03 285.18-3.64 4.25-1.2-5.46z"/></g><g class="key-Bhutan"><circle cx="103" cy="425" r="1.5" fill="#2D8587" opacity=".7"/><path stroke-width="1" opacity=".7" stroke="#2D8587" fill="none" stroke-linecap="butt" d="m103 425 4 42 17 27 7 3"/><path cx="131" cy="497" r="2.5" fill="#2D8587" opacity=".7" d="m129.69 493.72 3.6 4.26-5.57.33z"/></g><g class="key-Chad"><circle cx="86" cy="241" r="1.5" fill="#923E8B" opacity=".7"/><path stroke-width="1" opacity=".7" stroke="#923E8B" fill="none" stroke-linecap="butt" d="m86 241-3 96"/><path cx="83" cy="337" r="2.5" fill="#923E8B" opacity=".7" d="m85.58 334.58-2.66 4.92-2.34-5.08z"/></g><g class="key-Estonia"><circle cx="106" cy="493" r="1.5" fill="#4C5C78" opacity=".7"/><path stroke-width="1" opacity=".7" stroke="#4C5C78" fill="none" stroke-linecap="butt" d="m106 493 7 6 6 1h-8l14 1h-5l-5-1 3-1 14 1h-5 9l13 1h-30l23 1h-24"/><path cx="118" cy="502" r="2.5" fill="#4C5C78" opacity=".7" d="m120.5 504.5-5-2.5 5-2.5z"/></g><g class="key-Namibia"><circle cx="77" cy="361" r="1.5" fill="#923E8B" opacity=".7"/><path stroke-width="1" opacity=".7" stroke="#923E8B" fill="none" stroke-linecap="butt" d="m77 361 1 40v42"/><path cx="78" cy="443" r="2.5" fill="#923E8B" opacity=".7" d="m80.5 440.5-2.5 5-2.5-5z"/></g><g class="key-Portugal"><circle cx="118" cy="499" r="1.5" fill="#4C5C78" opacity=".7"/><path stroke-width="1" opacity=".7" stroke="#4C5C78" fill="none" stroke-linecap="butt" d="m118 499 6 2h-15l19 2 4-1 3 1-5-1 1 1 13-2v-1h4l1 1h4-3 6l-1 1"/><path cx="155" cy="502" r="2.5" fill="#4C5C78" opacity=".7" d="m158.54 502-5.3 1.77 1.76-5.3z"/></g><g class="key-Sierra-Leone"><circle cx="90" cy="185" r="1.5" fill="#923E8B" opacity=".7"/><path stroke-width="1" opacity=".7" stroke="#923E8B" fill="none" stroke-linecap="butt" d="m90 185 13 80-11 51"/><path cx="92" cy="316" r="2.5" fill="#923E8B" opacity=".7" d="m94.97 314.08-3.5 4.36-1.39-5.41z"/></g><g class="key-Comoros"><circle cx="95" cy="438" r="1.5" fill="#923E8B" opacity=".7"/><path stroke-width="1" opacity=".7" stroke="#923E8B" fill="none" stroke-linecap="butt" d="m95 438 1-18"/><path cx="96" cy="420" r="2.5" fill="#923E8B" opacity=".7" d="m93.37 422.36 2.77-4.86 2.22 5.13z"/></g><g class="key-Cyprus"><circle cx="101" cy="503" r="1.5" fill="#4C5C78" opacity=".7"/><path stroke-width="1" opacity=".7" stroke="#4C5C78" fill="none" stroke-linecap="butt" d="M101 503h-8 7-25 32-1 8-37 42-39 26"/><path cx="106" cy="503" r="2.5" fill="#4C5C78" opacity=".7" d="m103.5 500.5 5 2.5-5 2.5z"/></g><g class="key-Democratic-Republic-of-Congo"><circle cx="85" cy="92" r="1.5" fill="#923E8B" opacity=".7"/><path stroke-width="1" opacity=".7" stroke="#923E8B" fill="none" stroke-linecap="butt" d="M85 92v74"/><path cx="85" cy="166" r="2.5" fill="#923E8B" opacity=".7" d="m87.5 163.5-2.5 5-2.5-5z"/></g><g class="key-Hungary"><circle cx="170" cy="503" r="1.5" fill="#4C5C78" opacity=".7"/><path stroke-width="1" opacity=".7" stroke="#4C5C78" fill="none" stroke-linecap="butt" d="m170 503-1-3-8 3h-28 41-19 7l-24-1 19 1 19-2h-12l22-4-12 4 8 1"/><path cx="182" cy="502" r="2.5" fill="#4C5C78" opacity=".7" d="m179.83 499.2 4.65 3.11-5.27 1.86z"/></g><g class="key-Latvia"><circle cx="115" cy="493" r="1.5" fill="#4C5C78" opacity=".7"/><path stroke-width="1" opacity=".7" stroke="#4C5C78" fill="none" stroke-linecap="butt" d="M115 493h6l-9 4 12 4 2-3v-2h-5l-1 3h18l-7-1 2 2 18 1h-12l8-1-22 2"/><path cx="125" cy="502" r="2.5" fill="#4C5C78" opacity=".7" d="m127.72 504.26-5.21-2.03 4.75-2.95z"/></g><g class="key-Lithuania"><circle cx="129" cy="491" r="1.5" fill="#4C5C78" opacity=".7"/><path stroke-width="1" opacity=".7" stroke="#4C5C78" fill="none" stroke-linecap="butt" d="m129 491-5 4-18 2h25l2-3-13 3 5 3 17-1-5 1 5-3 10 3-12-3 6 2h-18"/><path cx="128" cy="499" r="2.5" fill="#4C5C78" opacity=".7" d="m130.5 501.5-5-2.5 5-2.5z"/></g><g class="key-Palestine"><circle cx="106" cy="500" r="1.5" fill="#2D8587" opacity=".7"/><path stroke-width="1" opacity=".7" stroke="#2D8587" fill="none" stroke-linecap="butt" d="M106 500h3l-7 2 1-5-10 5h12-5l4-2"/><path cx="104" cy="500" r="2.5" fill="#2D8587" opacity=".7" d="M100.65 498.88h5.59l-3.36 4.47z"/></g><g class="key-Poland"><circle cx="134" cy="494" r="1.5" fill="#4C5C78" opacity=".7"/><path stroke-width="1" opacity=".7" stroke="#4C5C78" fill="none" stroke-linecap="butt" d="m134 494-5 5-11 2h11l-1 1h7-3 5l2-1 8 1-10-1 6 1h3-14"/><path cx="132" cy="502" r="2.5" fill="#4C5C78" opacity=".7" d="m134.5 504.5-5-2.5 5-2.5z"/></g><g class="key-Slovakia"><circle cx="153" cy="503" r="1.5" fill="#4C5C78" opacity=".7"/><path stroke-width="1" opacity=".7" stroke="#4C5C78" fill="none" stroke-linecap="butt" d="m153 503-2-1h-17l29-1h-25 22l-21 1h12l27-1-17-1 24-3-18 5"/><path cx="167" cy="502" r="2.5" fill="#4C5C78" opacity=".7" d="m170.08 503.74-5.49-1.07 4.15-3.75z"/></g><g class="key-Slovenia"><circle cx="174" cy="503" r="1.5" fill="#4C5C78" opacity=".7"/><path stroke-width="1" opacity=".7" stroke="#4C5C78" fill="none" stroke-linecap="butt" d="M174 503h3-15 6-4 20-31 33-4 3-16 9"/><path cx="178" cy="503" r="2.5" fill="#4C5C78" opacity=".7" d="m175.5 500.5 5 2.5-5 2.5z"/></g><g class="key-Congo"><circle cx="85" cy="263" r="1.5" fill="#923E8B" opacity=".7"/><path stroke-width="1" opacity=".7" stroke="#923E8B" fill="none" stroke-linecap="butt" d="m85 263 1 67"/><path cx="86" cy="330" r="2.5" fill="#923E8B" opacity=".7" d="m88.46 327.46-2.42 5.04-2.58-4.96z"/></g><g class="key-Gabon"><circle cx="99" cy="468" r="1.5" fill="#923E8B" opacity=".7"/><path stroke-width="1" opacity=".7" stroke="#923E8B" fill="none" stroke-linecap="butt" d="m99 468 1 20"/><path cx="100" cy="488" r="2.5" fill="#923E8B" opacity=".7" d="m102.37 485.38-2.25 5.12-2.74-4.87z"/></g><g class="key-Micronesia-__0028country__0029"><circle cx="94" cy="468" r="1.5" fill="#A8633C" opacity=".7"/><path stroke-width="1" opacity=".7" stroke="#A8633C" fill="none" stroke-linecap="butt" d="m94 468 7-32"/><path cx="101" cy="436" r="2.5" fill="#A8633C" opacity=".7" d="m98.02 437.9 3.51-4.34 1.38 5.42z"/></g><g class="key-Solomon-Islands"><circle cx="125" cy="291" r="1.5" fill="#A8633C" opacity=".7"/><path stroke-width="1" opacity=".7" stroke="#A8633C" fill="none" stroke-linecap="butt" d="m125 291-15 104"/><path cx="110" cy="395" r="2.5" fill="#A8633C" opacity=".7" d="m112.83 392.88-3.19 4.6-1.76-5.31z"/></g><g class="key-Bulgaria"><circle cx="135" cy="479" r="1.5" fill="#4C5C78" opacity=".7"/><path stroke-width="1" opacity=".7" stroke="#4C5C78" fill="none" stroke-linecap="butt" d="m135 479-19 16 28 3-12-1 11-3 4-1-11 1 16 1 5 1-3-8 3 7 11 2v2"/><path cx="168" cy="499" r="2.5" fill="#4C5C78" opacity=".7" d="m170.5 496.5-2.5 5-2.5-5z"/></g><g class="key-Iraq"><circle cx="95" cy="497" r="1.5" fill="#2D8587" opacity=".7"/><path stroke-width="1" opacity=".7" stroke="#2D8587" fill="none" stroke-linecap="butt" d="m95 497 18-1"/><path cx="113" cy="496" r="2.5" fill="#2D8587" opacity=".7" d="m110.37 493.64 5.13 2.22-4.86 2.77z"/></g><g class="key-Malta"><circle cx="143" cy="501" r="1.5" fill="#4C5C78" opacity=".7"/><path stroke-width="1" opacity=".7" stroke="#4C5C78" fill="none" stroke-linecap="butt" d="M143 501h3l9 2 1-2-2 1-1 1h4l1-1v1"/><path cx="158" cy="503" r="2.5" fill="#4C5C78" opacity=".7" d="m160.5 500.5-2.5 5-2.5-5z"/></g><g class="key-Mauritius"><circle cx="209" cy="501" r="1.5" fill="#923E8B" opacity=".7"/><path stroke-width="1" opacity=".7" stroke="#923E8B" fill="none" stroke-linecap="butt" d="M209 501h-78l33 1"/><path cx="164" cy="502" r="2.5" fill="#923E8B" opacity=".7" d="m161.58 499.43 4.92 2.65-5.07 2.34z"/></g><g class="key-Romania"><circle cx="126" cy="474" r="1.5" fill="#4C5C78" opacity=".7"/><path stroke-width="1" opacity=".7" stroke="#4C5C78" fill="none" stroke-linecap="butt" d="m126 474-25 8 28 5-7 4 8-4 12-5-29-3 27-2 3-2-9 8 8 8 22-1 13 3"/><path cx="177" cy="493" r="2.5" fill="#4C5C78" opacity=".7" d="m175.13 490 4.3 3.56-5.43 1.31z"/></g><g class="key-South-Korea"><circle cx="183" cy="502" r="1.5" fill="#2D8587" opacity=".7"/><path stroke-width="1" opacity=".7" stroke="#2D8587" fill="none" stroke-linecap="butt" d="M183 502h5l-7-1-1 1h11"/><path cx="191" cy="502" r="2.5" fill="#2D8587" opacity=".7" d="m188.5 499.5 5 2.5-5 2.5z"/></g><g class="key-Togo"><circle cx="92" cy="257" r="1.5" fill="#923E8B" opacity=".7"/><path stroke-width="1" opacity=".7" stroke="#923E8B" fill="none" stroke-linecap="butt" d="m92 257 1 6 1 17"/><path cx="94" cy="280" r="2.5" fill="#923E8B" opacity=".7" d="m96.35 277.36-2.2 5.14-2.8-4.85z"/></g><g class="key-Liberia"><circle cx="97" cy="192" r="1.5" fill="#923E8B" opacity=".7"/><path stroke-width="1" opacity=".7" stroke="#923E8B" fill="none" stroke-linecap="butt" d="m97 192-4 129-2-12"/><path cx="91" cy="309" r="2.5" fill="#923E8B" opacity=".7" d="m88.95 311.88 1.64-5.35 3.29 4.52z"/></g><g class="key-Japan"><circle cx="182" cy="501" r="1.5" fill="#2D8587" opacity=".7"/><path stroke-width="1" opacity=".7" stroke="#2D8587" fill="none" stroke-linecap="butt" d="m182 501-7 2 4-3"/><path cx="179" cy="500" r="2.5" fill="#2D8587" opacity=".7" d="m175.5 499.5 5.5-1-2.5 5z"/></g><g class="key-Croatia"><circle cx="179" cy="499" r="1.5" fill="#4C5C78" opacity=".7"/><path stroke-width="1" opacity=".7" stroke="#4C5C78" fill="none" stroke-linecap="butt" d="m179 499-11-1-4 2h-12 16l10-1-6 2h17-17 22"/><path cx="194" cy="501" r="2.5" fill="#4C5C78" opacity=".7" d="m191.5 498.5 5 2.5-5 2.5z"/></g><g class="key-North-Macedonia"><circle cx="131" cy="460" r="1.5" fill="#4C5C78" opacity=".7"/><path stroke-width="1" opacity=".7" stroke="#4C5C78" fill="none" stroke-linecap="butt" d="m131 460-1-2 3 5-11 10 9 7 9 4-14-5 14 5-19-1 16 5"/><path cx="137" cy="488" r="2.5" fill="#4C5C78" opacity=".7" d="m135.36 484.87 4.03 3.88-5.52.9z"/></g><g class="key-Vanuatu"><circle cx="82" cy="446" r="1" fill="#A8633C" opacity=".8" stroke="#666" stroke-width=".5"/></g><g class="key-Lebanon"><circle cx="120" cy="503" r="1" fill="#2D8587" opacity=".8" stroke="#666" stroke-width=".5"/></g><g class="key-Zimbabwe"><circle cx="82" cy="410" r="1.5" fill="#923E8B" opacity=".7"/><path stroke-width="1" opacity=".7" stroke="#923E8B" fill="none" stroke-linecap="butt" d="m82 410 1-55"/><path cx="83" cy="355" r="2.5" fill="#923E8B" opacity=".7" d="m80.45 357.45 2.6-4.95 2.4 5.05z"/></g><g class="key-Haiti"><circle cx="91" cy="396" r="1" fill="#E04E4B" opacity=".8" stroke="#666" stroke-width=".5"/></g><g class="key-Montenegro"><circle cx="118" cy="488" r="1.5" fill="#4C5C78" opacity=".7"/><path stroke-width="1" opacity=".7" stroke="#4C5C78" fill="none" stroke-linecap="butt" d="m118 488 20 1-5 7-6 1 2-5"/><path cx="129" cy="492" r="2.5" fill="#4C5C78" opacity=".7" d="m125.75 493.4 4.18-3.72.46 5.57z"/></g><g class="key-Serbia"><circle cx="137" cy="480" r="1.5" fill="#4C5C78" opacity=".7"/><path stroke-width="1" opacity=".7" stroke="#4C5C78" fill="none" stroke-linecap="butt" d="m137 480 26-2 14-5-21 1 24 1-38 5"/><path cx="142" cy="480" r="2.5" fill="#4C5C78" opacity=".7" d="m144.8 482.15-5.28-1.82 4.63-3.13z"/></g><g class="key-South-Sudan"><circle cx="84" cy="308" r="1.5" fill="#923E8B" opacity=".7"/><path stroke-width="1" opacity=".7" stroke="#923E8B" fill="none" stroke-linecap="butt" d="m84 308 1-138"/><path cx="85" cy="170" r="2.5" fill="#923E8B" opacity=".7" d="m82.48 172.48 2.54-4.98 2.46 5.02z"/></g><g class="key-Sudan"><circle cx="81" cy="435" r="1.5" fill="#923E8B" opacity=".7"/><path stroke-width="1" opacity=".7" stroke="#923E8B" fill="none" stroke-linecap="butt" d="m81 435 3 15"/><path cx="84" cy="450" r="2.5" fill="#923E8B" opacity=".7" d="m85.96 447.06-1.47 5.4-3.43-4.42z"/></g><g class="key-United-Arab-Emirates"><circle cx="718" cy="503" r="1.5" fill="#2D8587" opacity=".7"/><path stroke-width="1" opacity=".7" stroke="#2D8587" fill="none" stroke-linecap="butt" d="M718 503H556"/><path cx="556" cy="503" r="2.5" fill="#2D8587" opacity=".7" d="m558.5 505.5-5-2.5 5-2.5z"/></g><g class="key-Iceland"><circle cx="127" cy="503" r="1.5" fill="#4C5C78" opacity=".7"/><path stroke-width="1" opacity=".7" stroke="#4C5C78" fill="none" stroke-linecap="butt" d="M127 503h7"/><path cx="134" cy="503" r="2.5" fill="#4C5C78" opacity=".7" d="m131.5 500.5 5 2.5-5 2.5z"/></g><g class="key-Myanmar"><circle cx="136" cy="482" r="1.5" fill="#2D8587" opacity=".7"/><path stroke-width="1" opacity=".7" stroke="#2D8587" fill="none" stroke-linecap="butt" d="m136 482-1 15"/><path cx="135" cy="497" r="2.5" fill="#2D8587" opacity=".7" d="m137.66 494.67-2.83 4.82-2.16-5.15z"/></g><g class="key-Somalia"><circle cx="82" cy="204" r="1" fill="#923E8B" opacity=".8" stroke="#666" stroke-width=".5"/></g><g class="backgroundLabels" fill="#333" font-size="11.55" font-weight="400"><text x="122.13" y="484" fill="#932834" style="fill:#fff;stroke:#fff;stroke-linecap:round;stroke-linejoin:round;stroke-width:.25em">Brazil</text><text x="122.13" y="484" fill="#932834">Brazil</text><text x="159.67" y="502" fill="#932834" style="fill:#fff;stroke:#fff;stroke-linecap:round;stroke-linejoin:round;stroke-width:.25em">Chile</text><text x="159.67" y="502" fill="#932834">Chile</text><text x="204.43" y="482.63" fill="#923E8B" style="fill:#fff;stroke:#fff;stroke-linecap:round;stroke-linejoin:round;stroke-width:.25em">Egypt</text><text x="204.43" y="482.63" fill="#923E8B">Egypt</text><text x="104" y="429" fill="#E04E4B" style="fill:#fff;stroke:#fff;stroke-linecap:round;stroke-linejoin:round;stroke-width:.25em">Honduras</text><text x="104" y="429" fill="#E04E4B">Honduras</text><text x="110.21" y="385.63" fill="#959595" style="fill:#fff;stroke:#fff;stroke-linecap:round;stroke-linejoin:round;stroke-width:.25em">IDA total</text><text x="110.21" y="385.63" fill="#959595">IDA total</text><text x="93" y="503.6" fill="#E04E4B" style="fill:#fff;stroke:#fff;stroke-linecap:round;stroke-linejoin:round;stroke-width:.25em">Jamaica</text><text x="93" y="503.6" fill="#E04E4B">Jamaica</text><text x="138.54" y="464.31" fill="#959595" style="fill:#fff;stroke:#fff;stroke-linecap:round;stroke-linejoin:round;stroke-width:.25em">Low &amp; middle income</text><text x="138.54" y="464.31" fill="#959595">Low &amp; middle income</text><text x="95.79" y="337.63" fill="#959595" style="fill:#fff;stroke:#fff;stroke-linecap:round;stroke-linejoin:round;stroke-width:.25em">Sub-Saharan Africa</text><text x="95.79" y="337.63" fill="#959595">Sub-Saharan Africa</text><text x="91.64" y="356.76" fill="#923E8B" style="fill:#fff;stroke:#fff;stroke-linecap:round;stroke-linejoin:round;stroke-width:.25em">Guinea</text><text x="91.64" y="356.76" fill="#923E8B">Guinea</text><text x="103.05" y="200.11" fill="#923E8B" style="fill:#fff;stroke:#fff;stroke-linecap:round;stroke-linejoin:round;stroke-width:.25em">Guinea-Bissau</text><text x="103.05" y="200.11" fill="#923E8B">Guinea-Bissau</text><text x="103.74" y="295.36" fill="#923E8B" style="fill:#fff;stroke:#fff;stroke-linecap:round;stroke-linejoin:round;stroke-width:.25em">Tanzania</text><text x="103.74" y="295.36" fill="#923E8B">Tanzania</text><text x="204" y="502" fill="#4C5C78" style="fill:#fff;stroke:#fff;stroke-linecap:round;stroke-linejoin:round;stroke-width:.25em">United Kingdom</text><text x="204" y="502" fill="#4C5C78">United Kingdom</text><text x="126.39" y="257.58" fill="#923E8B" style="fill:#fff;stroke:#fff;stroke-linecap:round;stroke-linejoin:round;stroke-width:.25em">Zambia</text><text x="126.39" y="257.58" fill="#923E8B">Zambia</text><text x="88.94" y="226.77" fill="#923E8B" style="fill:#fff;stroke:#fff;stroke-linecap:round;stroke-linejoin:round;stroke-width:.25em">Central African Republic</text><text x="88.94" y="226.77" fill="#923E8B">Central African Republic</text><text x="80.43" y="315.76" fill="#923E8B" style="fill:#fff;stroke:#fff;stroke-linecap:round;stroke-linejoin:round;stroke-width:.25em">Niger</text><text x="80.43" y="315.76" fill="#923E8B">Niger</text><text x="133.77" y="154.84" fill="#923E8B" style="fill:#fff;stroke:#fff;stroke-linecap:round;stroke-linejoin:round;stroke-width:.25em">Madagascar</text><text x="133.77" y="154.84" fill="#923E8B">Madagascar</text><text x="161.96" y="418.95" fill="#923E8B" style="fill:#fff;stroke:#fff;stroke-linecap:round;stroke-linejoin:round;stroke-width:.25em">South Africa</text><text x="161.96" y="418.95" fill="#923E8B">South Africa</text><text x="78" y="453.77" fill="#923E8B" style="fill:#fff;stroke:#fff;stroke-linecap:round;stroke-linejoin:round;stroke-width:.25em">Namibia</text><text x="78" y="453.77" fill="#923E8B">Namibia</text><text x="85" y="176.78" fill="#923E8B" style="fill:#fff;stroke:#fff;stroke-linecap:round;stroke-linejoin:round;stroke-width:.25em">Democratic Republic of Congo</text><text x="85" y="176.78" fill="#923E8B">Democratic Republic of Congo</text><text x="440.93" y="503" fill="#2D8587" style="fill:#fff;stroke:#fff;stroke-linecap:round;stroke-linejoin:round;stroke-width:.25em">United Arab Emirates</text><text x="440.93" y="503" fill="#2D8587">United Arab Emirates</text></g></g><g class="ScatterColorLegend clickable" style="cursor:pointer"><g class="legendMark"><path fill="#923E8B" d="M738.09 94h9v9h-9z"/><text font-size="12.6" x="752.1" y="102.3"><tspan x="752.09" y="102.28">Africa</tspan></text></g><g class="legendMark"><path fill="#2D8587" d="M738.09 111.6h9v9h-9z"/><text font-size="12.6" x="752.1" y="119.9"><tspan x="752.09" y="119.88">Asia</tspan></text></g><g class="legendMark"><path fill="#4C5C78" d="M738.09 129.2h9v9h-9z"/><text font-size="12.6" x="752.1" y="137.5"><tspan x="752.09" y="137.48">Europe</tspan></text></g><g class="legendMark"><path fill="#E04E4B" d="M738.09 146.8h9v9h-9z"/><text font-size="12.6" x="752.1" y="155.1"><tspan x="752.09" y="155.08">North America</tspan></text></g><g class="legendMark"><path fill="#A8633C" d="M738.09 164.4h9v9h-9z"/><text font-size="12.6" x="752.1" y="172.7"><tspan x="752.09" y="172.68">Oceania</tspan></text></g><g class="legendMark"><path fill="#932834" d="M738.09 182h9v9h-9z"/><text font-size="12.6" x="752.1" y="190.3"><tspan x="752.09" y="190.28">South America</tspan></text></g><g class="legendMark"><path fill="#959595" d="M738.09 199.6h9v9h-9z"/><text font-size="12.6" x="752.1" y="207.9"><tspan x="752.09" y="207.88">No data</tspan></text></g></g><path stroke="#ccc" d="M738.09 216.4H830"/><g class="clickable"><g class="ConnectedScatterLegend"><text font-size="12.6" x="738.1" y="233.5" fill="#333"><tspan x="738.09" y="233.48">1990</tspan></text><text font-size="12.6" x="806.8" y="233.5" fill="#333"><tspan x="806.78" y="233.48">2018</tspan></text><path stroke="#666" stroke-width="1" d="M771.32 229.2h30.46"/><circle cx="771.32" cy="229.2" r="2" fill="#666" stroke="#ccc" stroke-width=".2"/><circle cx="781.47" cy="229.2" r="2" fill="#666" stroke="#ccc" stroke-width=".2"/><circle cx="791.62" cy="229.2" r="2" fill="#666" stroke="#ccc" stroke-width=".2"/><path cx="801.78" cy="229.2" r="3" fill="#666" stroke="#ccc" stroke-width=".2" d="m798.78 226.2 6 3-6 3z"/></g></g></g><g class="SourcesFooter" style="fill:#777"><g style="fill:#777"><text font-size="12.6" x="15" y="582.5"><tspan x="15" y="582.48">Source: World Bank based on data from multiple sources</tspan></text></g><text font-size="12.6" x="796.4" y="582.5"><tspan x="796.44" y="582.48"><a style="fill:#777" class="cclogo" href="http://creativecommons.org/licenses/by/4.0/deed.en_US" target="_blank">CC BY</a></tspan></text></g></svg>