<svg xmlns="http://www.w3.org/2000/svg" version="1.1" style="background-color:#fff;-webkit-font-smoothing:antialiased" width="850" height="600" viewBox="0 0 850 600" font-family="Lato,'Helvetica Neue',Helvetica,Arial,sans-serif" font-size="18" text-rendering="optimizeLegibility"><g class="HeaderView"><g transform="matrix(.95 0 0 .95 739 15)"><svg width="102" height="37" viewBox="0 0 102 37" fill="none" xmlns="http://www.w3.org/2000/svg"><path d="M47 0H0v37h47V0z" fill="#EA4148"/><path d="M3.78 11.85c0-3.55 2.67-5.6 5.68-5.6a4.63 4.63 0 013.09 1.1l-1.7 2.36c-.31-.32-.74-.5-1.18-.52-1.36 0-2.16 1.03-2.16 2.66 0 1.62.89 2.65 2.03 2.65a2.93 2.93 0 001.7-.69l1.4 2.4a5.29 5.29 0 01-3.52 1.24c-3 0-5.34-2.05-5.34-5.6z" fill="#fff"/><path d="M18.85 11.85c0-1.63-.42-2.66-1.52-2.66s-1.52 1.03-1.52 2.66c0 1.62.42 2.65 1.52 2.65s1.52-1.03 1.52-2.65zm-6.77 0c0-3.55 2.54-5.6 5.25-5.6 2.7 0 5.25 2.05 5.25 5.6s-2.54 5.6-5.25 5.6-5.25-2.05-5.25-5.6M23.34 6.5h2.97l.25 1.84h.09c.78-1.46 1.97-2.1 3-2.1.45-.02.9.05 1.32.22l-.6 3.16c-.38-.1-.78-.16-1.18-.17-.76 0-1.7.47-2.2 1.8v5.94h-3.65V6.5zm13.64 4.06c0-.81-.34-1.54-1.44-1.54-.8 0-1.49.47-1.7 1.54h3.14zm-6.6 1.29c0-3.47 2.49-5.6 5.07-5.6 3.13 0 4.62 2.3 4.62 5.17 0 .52-.05 1.03-.15 1.54h-6.04c.34 1.28 1.27 1.71 2.46 1.71a4.3 4.3 0 002.16-.64l1.18 2.18a7.08 7.08 0 01-3.85 1.24c-3.09 0-5.46-2.05-5.46-5.6" fill="#fff"/><path d="M10.43 23.87c0-.81-.34-1.54-1.44-1.54-.8 0-1.48.47-1.69 1.54h3.13zm-6.6 1.28c0-3.46 2.5-5.6 5.08-5.6 3.13 0 4.61 2.3 4.61 5.18 0 .51-.05 1.03-.15 1.54H7.34c.34 1.28 1.27 1.7 2.46 1.7.76-.01 1.5-.23 2.16-.63l1.18 2.18a7.08 7.08 0 01-3.85 1.24c-3.1 0-5.46-2.06-5.46-5.6m10.07-.01c0-3.55 2.67-5.6 5.68-5.6a4.63 4.63 0 013.09 1.11l-1.7 2.35c-.32-.31-.74-.5-1.18-.51-1.36 0-2.16 1.03-2.16 2.65 0 1.63.89 2.66 2.03 2.66a2.93 2.93 0 001.7-.69l1.39 2.4a5.29 5.29 0 01-3.51 1.24c-3 0-5.34-2.06-5.34-5.6" fill="#1A1818"/><path d="M28.97 25.15c0-1.62-.42-2.65-1.52-2.65s-1.52 1.03-1.52 2.65c0 1.63.42 2.66 1.52 2.66s1.52-1.03 1.52-2.66zm-6.77 0c0-3.55 2.54-5.6 5.25-5.6 2.7 0 5.25 2.05 5.25 5.6s-2.54 5.6-5.25 5.6-5.25-2.04-5.25-5.6m11.34-5.35h2.97l.25 1.29h.09a4.76 4.76 0 013.34-1.54c2.33 0 3.3 1.71 3.3 4.36v6.6h-3.64v-6.13c0-1.37-.34-1.7-1.06-1.7-.67 0-1.05.3-1.6.8v7.02h-3.65V19.8z" fill="#1A1818"/><path fill="#fff" d="M48 0h54v37H48z"/><path d="M48 0h53.93v33H48V0z" fill="#002147"/><path d="M58.42 10.86c0 .61-.1 1.18-.3 1.7a3.83 3.83 0 01-2.15 2.21c-.5.21-1.07.32-1.7.32-.6 0-1.17-.1-1.68-.32a3.9 3.9 0 01-2.15-2.21c-.2-.52-.3-1.09-.3-1.7 0-.61.1-1.18.3-1.7a3.93 3.93 0 012.15-2.22 4.38 4.38 0 011.69-.31c.62 0 1.18.1 1.69.31a3.79 3.79 0 012.15 2.22c.2.52.3 1.09.3 1.7zm-1.38 0c0-.48-.06-.9-.2-1.28A2.38 2.38 0 0055.43 8a2.97 2.97 0 00-1.14-.21c-.42 0-.8.07-1.15.21-.34.14-.63.35-.87.61a2.8 2.8 0 00-.56.97c-.13.38-.2.8-.2 1.28s.07.9.2 1.29a2.46 2.46 0 001.43 1.57c.35.14.73.2 1.15.2.42 0 .8-.06 1.15-.2a2.4 2.4 0 001.42-1.57c.13-.38.2-.81.2-1.29zm7.14-1.72V15h-.74c-.17 0-.27-.08-.32-.24l-.1-.54a3.42 3.42 0 01-.81.63 2.3 2.3 0 01-1.06.24c-.32 0-.6-.05-.85-.16a1.72 1.72 0 01-1-1.15 3.1 3.1 0 01-.12-.91V9.14h1.24v3.73c0 .4.09.7.27.92.18.22.46.32.83.32.27 0 .53-.06.76-.18.24-.13.46-.3.67-.52V9.13h1.23zm2.33 1.08c.18-.37.4-.66.66-.87.27-.22.58-.32.94-.32a1.34 1.34 0 01.66.17l-.09.93a.26.26 0 01-.07.14.2.2 0 01-.13.03c-.06 0-.14 0-.25-.03a1.62 1.62 0 00-.8.04c-.13.05-.25.13-.35.22-.1.1-.2.21-.28.35-.08.14-.15.3-.22.47V15h-1.24V9.13h.72c.13 0 .22.03.27.08.05.05.08.13.1.25l.08.76zm16-3.5L79.94 15h-1.21l-1.95-5.95a4.7 4.7 0 01-.12-.46 3.32 3.32 0 01-.13.46L74.57 15h-1.22l-2.57-8.28h1.13c.11 0 .2.03.28.09.08.05.14.12.16.22l1.56 5.3a6.11 6.11 0 01.16.8 10 10 0 01.2-.8l1.78-5.3a.48.48 0 01.16-.21.4.4 0 01.28-.1h.4c.11 0 .21.03.28.1.08.05.13.12.17.21l1.77 5.3.1.37.1.4a59.35 59.35 0 00.16-.76L81 7.03a.4.4 0 01.16-.22.49.49 0 01.3-.09h1.04zm2.41 2.32c.44 0 .83.07 1.18.22a2.49 2.49 0 011.47 1.55c.13.37.2.79.2 1.25 0 .47-.07.88-.2 1.26-.14.37-.33.69-.58.95a2.87 2.87 0 01-2.07.82c-.43 0-.83-.07-1.18-.22a2.55 2.55 0 01-1.47-1.55c-.14-.38-.2-.8-.2-1.26 0-.46.06-.88.2-1.25a2.55 2.55 0 011.47-1.55c.35-.15.75-.22 1.18-.22zm0 5.08c.53 0 .92-.18 1.18-.53.26-.36.4-.86.4-1.52s-.14-1.17-.4-1.53c-.26-.36-.65-.54-1.18-.54-.53 0-.93.18-1.2.54-.25.36-.38.87-.38 1.53s.13 1.16.39 1.52c.26.35.66.53 1.2.53zm4.86-3.9c.18-.37.4-.66.67-.87.26-.22.57-.32.93-.32a1.34 1.34 0 01.66.17l-.09.93a.26.26 0 01-.07.14.2.2 0 01-.13.03c-.06 0-.14 0-.25-.03a1.62 1.62 0 00-.8.04 1.29 1.29 0 00-.63.57c-.08.14-.15.3-.22.47V15H88.6V9.13h.72c.13 0 .22.03.27.08.05.05.08.13.1.25l.08.76zm4-3.73V15h-1.25V6.49h1.24zm4.91 4.09a1.45 1.45 0 00-1.24-.6c-.48 0-.86.18-1.13.54-.27.35-.4.87-.4 1.56 0 .37.02.67.08.93.07.25.15.46.27.62.11.16.25.28.42.35.16.08.35.11.56.11.31 0 .58-.07.8-.2.24-.14.45-.33.64-.58v-2.73zm1.24-4.09V15h-.75c-.16 0-.27-.08-.31-.24l-.11-.63c-.25.28-.53.52-.84.7-.31.17-.67.26-1.09.26a1.96 1.96 0 01-1.59-.78 2.73 2.73 0 01-.44-.94 4.86 4.86 0 01.01-2.5c.12-.37.3-.7.51-.96a2.3 2.3 0 011.85-.88c.34 0 .63.05.88.16.24.11.45.26.64.46V6.49h1.24zm-39.9 14.65V27h-1.24v-5.86h1.24zm.2-1.78c0 .12-.02.22-.06.32a.83.83 0 01-1.34.26.8.8 0 01-.24-.58c0-.11.02-.22.06-.32a.89.89 0 01.43-.43.76.76 0 01.64 0 .81.81 0 01.45.43c.04.1.06.2.06.32zm2.16 2.55a3.67 3.67 0 01.83-.63 2.32 2.32 0 011.9-.08c.24.11.45.26.61.46.17.2.3.43.38.7.09.28.13.58.13.9V27H65v-3.73c0-.4-.1-.7-.28-.92-.18-.22-.45-.33-.83-.33-.27 0-.53.06-.77.19-.23.13-.45.3-.66.52V27h-1.23v-5.86h.74c.17 0 .28.07.33.23l.08.54zm14.96.95c0 .61-.1 1.17-.3 1.68a3.78 3.78 0 01-2.15 2.16c-.5.2-1.07.3-1.69.3H70.1v-8.28h3.12c.62 0 1.19.1 1.7.3a3.71 3.71 0 012.14 2.16c.2.5.3 1.07.3 1.68zm-1.37 0c0-.48-.07-.9-.2-1.28a2.6 2.6 0 00-.55-.96 2.35 2.35 0 00-.87-.6 2.97 2.97 0 00-1.15-.21h-1.77v6.1h1.77c.43 0 .81-.07 1.15-.2a2.42 2.42 0 001.42-1.56c.13-.38.2-.81.2-1.29zm5.27 1.58a7.5 7.5 0 00-1.12.1c-.3.06-.55.13-.73.22a.97.97 0 00-.41.3.68.68 0 00-.12.4c0 .13.02.25.06.35.05.1.1.18.18.24.08.06.18.1.28.14a1.78 1.78 0 001.18-.14c.23-.12.46-.3.68-.53v-1.08zm-3.28-2.49a3.36 3.36 0 012.37-.92c.34 0 .63.05.9.16a1.83 1.83 0 011.06 1.18c.1.27.15.57.15.9V27h-.55a.56.56 0 01-.27-.05.42.42 0 01-.16-.23l-.12-.47-.44.36c-.15.1-.3.2-.46.26a2.77 2.77 0 01-1.75.12c-.2-.06-.38-.16-.53-.29a1.46 1.46 0 01-.48-1.18c0-.23.06-.45.18-.66.12-.22.32-.41.6-.58a4 4 0 011.1-.43 8.03 8.03 0 011.68-.19v-.39c0-.42-.1-.73-.27-.94-.18-.2-.45-.3-.8-.3-.23-.01-.43.02-.6.08a6.05 6.05 0 00-.74.39.54.54 0 01-.28.08.38.38 0 01-.22-.06.6.6 0 01-.15-.17l-.22-.4zm7.38 5.14c-.48 0-.86-.13-1.12-.4-.26-.28-.4-.67-.4-1.17v-3.41h-.64a.27.27 0 01-.18-.07c-.05-.04-.07-.11-.07-.2v-.5l.95-.14.27-1.7a.31.31 0 01.1-.15c.04-.04.1-.06.18-.06h.63v1.93h1.63v.89h-1.63v3.33c0 .2.05.37.16.48.1.11.24.17.41.17a.79.79 0 00.43-.12 4 4 0 00.12-.08.2.2 0 01.11-.04c.07 0 .13.04.17.11l.37.6c-.2.18-.42.3-.68.4a2.5 2.5 0 01-.8.13zm5.11-2.65a7.5 7.5 0 00-1.11.1 3 3 0 00-.74.22.97.97 0 00-.4.3.68.68 0 00-.13.4c0 .13.02.25.06.35.05.1.11.18.19.24s.17.1.28.14a1.78 1.78 0 001.18-.14c.23-.12.45-.3.67-.53v-1.08zm-3.28-2.49a3.36 3.36 0 012.37-.92c.34 0 .64.05.9.16.27.11.49.26.66.46.18.2.32.44.41.72.1.27.14.57.14.9V27h-.55a.56.56 0 01-.27-.05c-.06-.04-.11-.11-.15-.23l-.12-.47-.45.36c-.14.1-.3.2-.45.26a2.77 2.77 0 01-1.75.12c-.2-.06-.38-.16-.53-.29a1.46 1.46 0 01-.49-1.18c0-.23.06-.45.18-.66.12-.22.32-.41.6-.58.28-.17.65-.31 1.1-.43a8.03 8.03 0 011.68-.19v-.39c0-.42-.09-.73-.27-.94-.18-.2-.44-.3-.8-.3a1.5 1.5 0 00-.59.08 6.09 6.09 0 00-.74.39.54.54 0 01-.29.08.38.38 0 01-.22-.06.6.6 0 01-.14-.17l-.23-.4z" fill="#fff"/><path fill="#D42B21" d="M48 32.65h54V37H48z"/></svg></g><a href="https://ourworldindata.org/grapher/changes-in-unemployment-and-wellbeing-during-the-financial-crisis-evidence-from-the-us-states?tab=chart&amp;stackMode=absolute&amp;time=latest&amp;country=&amp;region=World" target="_blank" rel="noopener" font-family="&quot;Playfair Display&quot;,Georgia,&quot;Times New Roman&quot;,serif"><text font-size="21.6" x="15" y="32.3" fill="#555"><tspan x="15" y="32.28">Changes in unemployment and wellbeing during the financial crisis:</tspan><tspan x="15" y="53.88">Evidence from the US states</tspan></text></a><text font-size="14.4" x="15" y="74.7" fill="#666"><tspan x="15" y="74.72">Unit 13 &apos;Economic fluctuations and unemployment’ in The CORE Team, The Economy. Available at:</tspan><tspan x="15" y="92">https://tinyco.re/13000110 [Figure 13.1]</tspan></text></g><g class="ScatterPlot"><g class="DualAxisView"><g class="HorizontalAxis"><text font-size="12.6" x="286.1" y="540.3"><tspan x="286.05" y="540.28">Change in Google Stress Index</tspan></text><text x="79.9" y="520.2" fill="#666" text-anchor="middle" font-size="16.2">-4</text><text x="167.1" y="520.2" fill="#666" text-anchor="middle" font-size="16.2">-3</text><text x="254.4" y="520.2" fill="#666" text-anchor="middle" font-size="16.2">-2</text><text x="341.6" y="520.2" fill="#666" text-anchor="middle" font-size="16.2">-1</text><text x="428.8" y="520.2" fill="#666" text-anchor="middle" font-size="16.2">0</text><text x="516.1" y="520.2" fill="#666" text-anchor="middle" font-size="16.2">1</text><text x="603.3" y="520.2" fill="#666" text-anchor="middle" font-size="16.2">2</text><text x="690.5" y="520.2" fill="#666" text-anchor="middle" font-size="16.2">3</text></g><g class="VerticalAxis"><text font-size="12.6" x="-415.2" y="25.1" transform="rotate(-90)"><tspan x="-415.2" y="25.08">Change in Unemployment Rate</tspan></text><text x="61.09" y="499" fill="#666" dominant-baseline="middle" text-anchor="end" font-size="16.2">0%</text><text x="61.09" y="413.8" fill="#666" dominant-baseline="middle" text-anchor="end" font-size="16.2">2%</text><text x="61.09" y="328.5" fill="#666" dominant-baseline="middle" text-anchor="end" font-size="16.2">4%</text><text x="61.09" y="243.3" fill="#666" dominant-baseline="middle" text-anchor="end" font-size="16.2">6%</text><text x="61.09" y="158.1" fill="#666" dominant-baseline="middle" text-anchor="end" font-size="16.2">8%</text></g><g class="AxisGridLines horizontalLines"><path stroke="#ccc" d="M66.09 499H733"/><path stroke="#d3d3d3" stroke-dasharray="3,2" d="M66.09 413.8H733M66.09 328.5H733M66.09 243.3H733M66.09 158.1H733"/></g><g class="AxisGridLines verticalLines"><path stroke="#d3d3d3" stroke-dasharray="3,2" d="M79.9 499V111.2M167.1 499V111.2M254.4 499V111.2M341.6 499V111.2"/><path stroke="#ccc" d="M428.8 499V111.2"/><path stroke="#d3d3d3" stroke-dasharray="3,2" d="M516.1 499V111.2M603.3 499V111.2M690.5 499V111.2"/></g></g><g><defs><clipPath id="a"><path d="M66.09 111.2H733V499H66.09z"/></clipPath></defs><path id="b" d="M66.1 371.1l1.3-.2 1.4-.2 1.3-.2 1.3-.2 1.4-.2 1.3-.2 1.3-.2 1.4-.2 1.3-.2 1.3-.2 1.4-.2 1.3-.2 1.3-.2 1.4-.2 1.3-.2 1.3-.2 1.4-.1 1.3-.2 1.3-.2 1.4-.2 1.3-.2 1.3-.2 1.4-.2 1.3-.2 1.3-.2 1.4-.2 1.3-.2 1.3-.2 1.4-.2 1.3-.2 1.3-.2 1.4-.2 1.3-.2 1.3-.2 1.4-.2 1.3-.2 1.3-.2 1.4-.2 1.3-.2 1.3-.2 1.4-.2 1.3-.2 1.3-.2 1.4-.2 1.3-.2 1.3-.2 1.4-.1 1.3-.2 1.3-.2 1.4-.2 1.3-.2 1.3-.2 1.4-.2 1.3-.2 1.4-.2 1.3-.2 1.3-.2 1.4-.2 1.3-.2 1.3-.2 1.4-.2 1.3-.2 1.3-.2 1.4-.2 1.3-.2 1.3-.2 1.4-.2 1.3-.2 1.3-.2 1.4-.2 1.3-.2 1.3-.2 1.4-.2 1.3-.2 1.3-.2 1.4-.2 1.3-.1 1.3-.2 1.4-.2 1.3-.2 1.3-.2 1.4-.2 1.3-.2 1.3-.2 1.4-.2 1.3-.2 1.3-.2 1.4-.2 1.3-.2 1.3-.2 1.4-.2 1.3-.2 1.3-.2 1.4-.2 1.3-.2 1.3-.2 1.4-.2 1.3-.2 1.3-.2 1.4-.2 1.3-.2 1.3-.2 1.4-.2 1.3-.2 1.3-.2 1.4-.2 1.3-.1 1.3-.2 1.4-.2 1.3-.2 1.3-.2 1.4-.2 1.3-.2 1.3-.2 1.4-.2 1.3-.2 1.3-.2 1.4-.2 1.3-.2 1.3-.2 1.4-.2 1.3-.2 1.3-.2 1.4-.2 1.3-.2 1.4-.2 1.3-.2 1.3-.2 1.4-.2 1.3-.2 1.3-.2 1.4-.2 1.3-.2 1.3-.2 1.4-.2 1.3-.1 1.3-.2 1.4-.2 1.3-.2 1.3-.2 1.4-.2 1.3-.2 1.3-.2 1.4-.2 1.3-.2 1.3-.2 1.4-.2 1.3-.2 1.3-.2 1.4-.2 1.3-.2 1.3-.2 1.4-.2 1.3-.2 1.3-.2 1.4-.2 1.3-.2 1.3-.2 1.4-.2 1.3-.2 1.3-.2 1.4-.2 1.3-.2 1.3-.2 1.4-.2 1.3-.1 1.3-.2 1.4-.2 1.3-.2 1.3-.2 1.4-.2 1.3-.2 1.3-.2 1.4-.2 1.3-.2 1.3-.2 1.4-.2 1.3-.2 1.3-.2 1.4-.2 1.3-.2 1.3-.2 1.4-.2 1.3-.2 1.3-.2 1.4-.2 1.3-.2 1.3-.2 1.4-.2 1.3-.2 1.3-.2 1.4-.2 1.3-.2 1.4-.2 1.3-.2 1.3-.1 1.4-.2 1.3-.2 1.3-.2 1.4-.2 1.3-.2 1.3-.2 1.4-.2 1.3-.2 1.3-.2 1.4-.2 1.3-.2 1.3-.2 1.4-.2 1.3-.2 1.3-.2 1.4-.2 1.3-.2 1.3-.2 1.4-.2 1.3-.2 1.3-.2 1.4-.2 1.3-.2 1.3-.2 1.4-.2 1.3-.2 1.3-.2 1.4-.2 1.3-.2 1.3-.1 1.4-.2 1.3-.2 1.3-.2 1.4-.2 1.3-.2 1.3-.2 1.4-.2 1.3-.2 1.3-.2 1.4-.2 1.3-.2 1.3-.2 1.4-.2 1.3-.2 1.3-.2 1.4-.2 1.3-.2 1.3-.2 1.4-.2 1.3-.2 1.3-.2 1.4-.2 1.3-.2 1.3-.2 1.4-.2 1.3-.2 1.3-.2 1.4-.2 1.3-.2 1.3-.1 1.4-.2 1.3-.2 1.3-.2 1.4-.2 1.3-.2 1.4-.2 1.3-.2 1.3-.2 1.4-.2 1.3-.2 1.3-.2 1.4-.2 1.3-.2 1.3-.2 1.4-.2 1.3-.2 1.3-.2 1.4-.2 1.3-.2 1.3-.2 1.4-.2 1.3-.2 1.3-.2 1.4-.2 1.3-.2 1.3-.2 1.4-.2 1.3-.2 1.3-.1 1.4-.2 1.3-.2 1.3-.2 1.4-.2 1.3-.2 1.3-.2 1.4-.2 1.3-.2 1.3-.2 1.4-.2 1.3-.2 1.3-.2 1.4-.2 1.3-.2 1.3-.2 1.4-.2 1.3-.2 1.3-.2 1.4-.2 1.3-.2 1.3-.2 1.4-.2 1.3-.2 1.3-.2 1.4-.2 1.3-.2 1.3-.2 1.4-.2 1.3-.2 1.3-.1 1.4-.2 1.3-.2 1.3-.2 1.4-.2 1.3-.2 1.3-.2 1.4-.2 1.3-.2 1.3-.2 1.4-.2 1.3-.2 1.3-.2 1.4-.2 1.3-.2 1.4-.2 1.3-.2 1.3-.2 1.4-.2 1.3-.2 1.3-.2 1.4-.2 1.3-.2 1.3-.2 1.4-.2 1.3-.2 1.3-.2 1.4-.2 1.3-.2 1.3-.2 1.4-.1 1.3-.2 1.3-.2 1.4-.2 1.3-.2 1.3-.2 1.4-.2 1.3-.2 1.3-.2 1.4-.2 1.3-.2 1.3-.2 1.4-.2 1.3-.2 1.3-.2 1.4-.2 1.3-.2 1.3-.2 1.4-.2 1.3-.2 1.3-.2 1.4-.2 1.3-.2 1.3-.2 1.4-.2 1.3-.2 1.3-.2 1.4-.2 1.3-.2 1.3-.2 1.4-.1 1.3-.2 1.3-.2 1.4-.2 1.3-.2 1.3-.2 1.4-.2 1.3-.2 1.3-.2 1.4-.2 1.3-.2 1.3-.2 1.4-.2 1.3-.2 1.3-.2 1.4-.2 1.3-.2 1.3-.2 1.4-.2 1.3-.2 1.3-.2 1.4-.2 1.3-.2 1.4-.2 1.3-.2 1.3-.2 1.4-.2 1.3-.2 1.3-.2 1.4-.2 1.3-.1 1.3-.2 1.4-.2 1.3-.2 1.3-.2 1.4-.2 1.3-.2 1.3-.2 1.4-.2 1.3-.2 1.3-.2 1.4-.2 1.3-.2 1.3-.2 1.4-.2 1.3-.2 1.3-.2 1.4-.2 1.3-.2 1.3-.2 1.4-.2 1.3-.2 1.3-.2 1.4-.2 1.3-.2 1.3-.2 1.4-.2 1.3-.2 1.3-.2 1.4-.1 1.3-.2 1.3-.2 1.4-.2 1.3-.2 1.3-.2 1.4-.2 1.3-.2 1.3-.2 1.4-.2 1.3-.2 1.3-.2 1.4-.2 1.3-.2 1.3-.2 1.4-.2 1.3-.2 1.3-.2 1.4-.2 1.3-.2 1.3-.2 1.4-.2 1.3-.2 1.3-.2 1.4-.2 1.3-.2 1.3-.2 1.4-.2 1.3-.2 1.3-.2 1.4-.1 1.3-.2 1.4-.2 1.3-.2 1.3-.2 1.4-.2 1.3-.2 1.3-.2 1.4-.2 1.3-.2 1.3-.2 1.4-.2 1.3-.2 1.3-.2 1.4-.2 1.3-.2 1.3-.2 1.4-.2 1.3-.2 1.3-.2 1.4-.2 1.3-.2 1.3-.2 1.4-.2 1.3-.2 1.3-.2 1.4-.2 1.3-.2 1.3-.2 1.4-.2 1.3-.1 1.3-.2 1.4-.2 1.3-.2 1.3-.2 1.4-.2" clip-path="url(#a)" opacity=".9" fill="none" stroke="#ccc" stroke-dasharray="2 2"/><text clip-path="url(#a)" font-size="80%" opacity=".9" text-anchor="end" fill="#999"><textPath baseline-shift="-0.2rem" href="#b" startOffset="90%" fill="#fff" stroke="#fff" stroke-linecap="round" stroke-linejoin="round" stroke-width=".25em">Line of best fit</textPath><textPath baseline-shift="-0.2rem" href="#b" startOffset="90%">Line of best fit</textPath></text></g><g class="PointsWithLabels clickable" clip-path="url(#c)" font-family="Arial, sans-serif"><path fill="rgba(255,255,255,0)" d="M66.09 111.2H733V499H66.09z"/><defs><clipPath id="c"><path d="M56.09 101.2H743V509H56.09z"/></clipPath></defs><g class="key-Hawaii_0"><circle cx="474" cy="324" r="3.57" fill="#959595" opacity=".8" stroke="#333" stroke-width=".5"/></g><g class="key-Florida_0"><circle cx="525" cy="187" r="3.57" fill="#959595" opacity=".8" stroke="#333" stroke-width=".5"/></g><g class="key-Texas_0"><circle cx="528" cy="337" r="3.57" fill="#959595" opacity=".8" stroke="#333" stroke-width=".5"/></g><g class="key-Virginia_0"><circle cx="240" cy="328" r="3.57" fill="#959595" opacity=".8" stroke="#333" stroke-width=".5"/></g><g class="key-New-York_0"><circle cx="551" cy="328" r="3.57" fill="#959595" opacity=".8" stroke="#666" stroke-width=".5"/></g><g class="key-Washington_0"><circle cx="533" cy="273" r="3.57" fill="#959595" opacity=".8" stroke="#333" stroke-width=".5"/></g><g class="key-Delaware_0"><circle cx="387" cy="307" r="3.57" fill="#959595" opacity=".8" stroke="#333" stroke-width=".5"/></g><g class="key-Mississippi_0"><circle cx="454" cy="320" r="3.57" fill="#959595" opacity=".8" stroke="#666" stroke-width=".5"/></g><g class="key-Alabama_0"><circle cx="712" cy="247" r="3.57" fill="#959595" opacity=".8" stroke="#333" stroke-width=".5"/></g><g class="key-Arizona_0"><circle cx="466" cy="213" r="3.57" fill="#959595" opacity=".8" stroke="#333" stroke-width=".5"/></g><g class="key-Arkansas_0"><circle cx="383" cy="388" r="3.57" fill="#959595" opacity=".8" stroke="#333" stroke-width=".5"/></g><g class="key-California_0"><circle cx="389" cy="200" r="3.57" fill="#959595" opacity=".8" stroke="#333" stroke-width=".5"/></g><g class="key-Colorado_0"><circle cx="490" cy="277" r="3.57" fill="#959595" opacity=".8" stroke="#666" stroke-width=".5"/></g><g class="key-Connecticut_0"><circle cx="541" cy="298" r="3.57" fill="#959595" opacity=".8" stroke="#333" stroke-width=".5"/></g><g class="key-District-of-Columbia_0"><circle cx="396" cy="307" r="3.57" fill="#959595" opacity=".8" stroke="#666" stroke-width=".5"/></g><g class="key-Idaho_0"><circle cx="733" cy="256" r="3.57" fill="#959595" opacity=".8" stroke="#666" stroke-width=".5"/></g><g class="key-Illinois_0"><circle cx="530" cy="273" r="3.57" fill="#959595" opacity=".8" stroke="#666" stroke-width=".5"/></g><g class="key-Indiana_0"><circle cx="592" cy="264" r="3.57" fill="#959595" opacity=".8" stroke="#666" stroke-width=".5"/></g><g class="key-Iowa_0"><circle cx="649" cy="392" r="3.57" fill="#959595" opacity=".8" stroke="#333" stroke-width=".5"/></g><g class="key-Kansas_0"><circle cx="705" cy="371" r="3.57" fill="#959595" opacity=".8" stroke="#333" stroke-width=".5"/></g><g class="key-Kentucky_0"><circle cx="593" cy="303" r="3.57" fill="#959595" opacity=".8" stroke="#666" stroke-width=".5"/></g><g class="key-Louisiana_0"><circle cx="687" cy="345" r="3.57" fill="#959595" opacity=".8" stroke="#333" stroke-width=".5"/></g><g class="key-Maine_0"><circle cx="415" cy="349" r="3.57" fill="#959595" opacity=".8" stroke="#333" stroke-width=".5"/></g><g class="key-Maryland_0"><circle cx="477" cy="311" r="3.57" fill="#959595" opacity=".8" stroke="#666" stroke-width=".5"/></g><g class="key-Massachusetts_0"><circle cx="571" cy="337" r="3.57" fill="#959595" opacity=".8" stroke="#666" stroke-width=".5"/></g><g class="key-Michigan_0"><circle cx="541" cy="260" r="3.57" fill="#959595" opacity=".8" stroke="#666" stroke-width=".5"/></g><g class="key-Minnesota_0"><circle cx="421" cy="383" r="3.57" fill="#959595" opacity=".8" stroke="#666" stroke-width=".5"/></g><g class="key-Missouri_0"><circle cx="450" cy="315" r="3.57" fill="#959595" opacity=".8" stroke="#666" stroke-width=".5"/></g><g class="key-Nebraska_0"><circle cx="556" cy="426" r="3.57" fill="#959595" opacity=".8" stroke="#333" stroke-width=".5"/></g><g class="key-Nevada_0"><circle cx="530" cy="111" r="3.57" fill="#959595" opacity=".8" stroke="#333" stroke-width=".5"/></g><g class="key-New-Hampshire_0"><circle cx="572" cy="388" r="3.57" fill="#959595" opacity=".8" stroke="#666" stroke-width=".5"/></g><g class="key-New-Jersey_0"><circle cx="520" cy="273" r="3.57" fill="#959595" opacity=".8" stroke="#666" stroke-width=".5"/></g><g class="key-New-Mexico_0"><circle cx="562" cy="311" r="3.57" fill="#959595" opacity=".8" stroke="#666" stroke-width=".5"/></g><g class="key-North-Carolina_0"><circle cx="510" cy="243" r="3.57" fill="#959595" opacity=".8" stroke="#333" stroke-width=".5"/></g><g class="key-North-Dakota_0"><circle cx="118" cy="469" r="3.57" fill="#959595" opacity=".8" stroke="#333" stroke-width=".5"/></g><g class="key-Ohio_0"><circle cx="569" cy="311" r="3.57" fill="#959595" opacity=".8" stroke="#666" stroke-width=".5"/></g><g class="key-Oklahoma_0"><circle cx="647" cy="379" r="3.57" fill="#959595" opacity=".8" stroke="#666" stroke-width=".5"/></g><g class="key-Oregon_0"><circle cx="596" cy="264" r="3.57" fill="#959595" opacity=".8" stroke="#666" stroke-width=".5"/></g><g class="key-Pennsylvania_0"><circle cx="573" cy="328" r="3.57" fill="#959595" opacity=".8" stroke="#666" stroke-width=".5"/></g><g class="key-Rhode-Island_0"><circle cx="592" cy="222" r="3.57" fill="#959595" opacity=".8" stroke="#333" stroke-width=".5"/></g><g class="key-South-Carolina_0"><circle cx="625" cy="260" r="3.57" fill="#959595" opacity=".8" stroke="#666" stroke-width=".5"/></g><g class="key-South-Dakota_0"><circle cx="66" cy="405" r="3.57" fill="#959595" opacity=".8" stroke="#333" stroke-width=".5"/></g><g class="key-Tennessee_0"><circle cx="400" cy="285" r="3.57" fill="#959595" opacity=".8" stroke="#333" stroke-width=".5"/></g><g class="key-Utah_0"><circle cx="693" cy="264" r="3.57" fill="#959595" opacity=".8" stroke="#666" stroke-width=".5"/></g><g class="key-Wisconsin_0"><circle cx="428" cy="341" r="3.57" fill="#959595" opacity=".8" stroke="#666" stroke-width=".5"/></g><g class="backgroundLabels" fill="#333" font-size="11" font-weight="400"><text x="474" y="319.43" fill="#fff" stroke="#fff" stroke-linecap="round" stroke-linejoin="round" stroke-width=".25em">Hawaii</text><text x="474" y="319.43" fill="#959595">Hawaii</text><text x="525" y="182.43" fill="#fff" stroke="#fff" stroke-linecap="round" stroke-linejoin="round" stroke-width=".25em">Florida</text><text x="525" y="182.43" fill="#959595">Florida</text><text x="528" y="332.43" fill="#fff" stroke="#fff" stroke-linecap="round" stroke-linejoin="round" stroke-width=".25em">Texas</text><text x="528" y="332.43" fill="#959595">Texas</text><text x="240" y="323.43" fill="#fff" stroke="#fff" stroke-linecap="round" stroke-linejoin="round" stroke-width=".25em">Virginia</text><text x="240" y="323.43" fill="#959595">Virginia</text><text x="533" y="268.43" fill="#fff" stroke="#fff" stroke-linecap="round" stroke-linejoin="round" stroke-width=".25em">Washington</text><text x="533" y="268.43" fill="#959595">Washington</text><text x="387" y="302.43" fill="#fff" stroke="#fff" stroke-linecap="round" stroke-linejoin="round" stroke-width=".25em">Delaware</text><text x="387" y="302.43" fill="#959595">Delaware</text><text x="668.44" y="242.43" fill="#fff" stroke="#fff" stroke-linecap="round" stroke-linejoin="round" stroke-width=".25em">Alabama</text><text x="668.44" y="242.43" fill="#959595">Alabama</text><text x="466" y="208.43" fill="#fff" stroke="#fff" stroke-linecap="round" stroke-linejoin="round" stroke-width=".25em">Arizona</text><text x="466" y="208.43" fill="#959595">Arizona</text><text x="383" y="383.43" fill="#fff" stroke="#fff" stroke-linecap="round" stroke-linejoin="round" stroke-width=".25em">Arkansas</text><text x="383" y="383.43" fill="#959595">Arkansas</text><text x="389" y="195.43" fill="#fff" stroke="#fff" stroke-linecap="round" stroke-linejoin="round" stroke-width=".25em">California</text><text x="389" y="195.43" fill="#959595">California</text><text x="541" y="293.43" fill="#fff" stroke="#fff" stroke-linecap="round" stroke-linejoin="round" stroke-width=".25em">Connecticut</text><text x="541" y="293.43" fill="#959595">Connecticut</text><text x="649" y="387.43" fill="#fff" stroke="#fff" stroke-linecap="round" stroke-linejoin="round" stroke-width=".25em">Iowa</text><text x="649" y="387.43" fill="#959595">Iowa</text><text x="668.15" y="366.43" fill="#fff" stroke="#fff" stroke-linecap="round" stroke-linejoin="round" stroke-width=".25em">Kansas</text><text x="668.15" y="366.43" fill="#959595">Kansas</text><text x="639.7" y="340.43" fill="#fff" stroke="#fff" stroke-linecap="round" stroke-linejoin="round" stroke-width=".25em">Louisiana</text><text x="639.7" y="340.43" fill="#959595">Louisiana</text><text x="415" y="344.43" fill="#fff" stroke="#fff" stroke-linecap="round" stroke-linejoin="round" stroke-width=".25em">Maine</text><text x="415" y="344.43" fill="#959595">Maine</text><text x="556" y="421.43" fill="#fff" stroke="#fff" stroke-linecap="round" stroke-linejoin="round" stroke-width=".25em">Nebraska</text><text x="556" y="421.43" fill="#959595">Nebraska</text><text x="530" y="122.2" fill="#fff" stroke="#fff" stroke-linecap="round" stroke-linejoin="round" stroke-width=".25em">Nevada</text><text x="530" y="122.2" fill="#959595">Nevada</text><text x="510" y="238.43" fill="#fff" stroke="#fff" stroke-linecap="round" stroke-linejoin="round" stroke-width=".25em">North Carolina</text><text x="510" y="238.43" fill="#959595">North Carolina</text><text x="118" y="464.43" fill="#fff" stroke="#fff" stroke-linecap="round" stroke-linejoin="round" stroke-width=".25em">North Dakota</text><text x="118" y="464.43" fill="#959595">North Dakota</text><text x="592" y="217.43" fill="#fff" stroke="#fff" stroke-linecap="round" stroke-linejoin="round" stroke-width=".25em">Rhode Island</text><text x="592" y="217.43" fill="#959595">Rhode Island</text><text x="66" y="400.43" fill="#fff" stroke="#fff" stroke-linecap="round" stroke-linejoin="round" stroke-width=".25em">South Dakota</text><text x="66" y="400.43" fill="#959595">South Dakota</text><text x="400" y="280.43" fill="#fff" stroke="#fff" stroke-linecap="round" stroke-linejoin="round" stroke-width=".25em">Tennessee</text><text x="400" y="280.43" fill="#959595">Tennessee</text></g></g><g class="ScatterColorLegend clickable" cursor="pointer"><g class="legendMark"><path fill="#959595" d="M753 113h9v9h-9z"/><text font-size="12.6" x="767" y="121.3"><tspan x="767" y="121.28">No data</tspan></text></g></g></g><g class="SourcesFooter" fill="#777"><g class="clickable" fill="#777"><text font-size="12.6" x="15" y="567.9"><tspan x="15" y="567.88">Source: Algan, Beasley, Guyot and Murtin (2014), Our World In Data</tspan></text></g><text font-size="12.6" x="15" y="582.5"><tspan x="15" y="582.48">Note: Changes are simple differences between year 2010 and 2007. CC-BY-ND-NC</tspan></text><text font-size="12.6" x="538.9" y="567.9"><tspan x="538.9" y="567.88"><a target="_blank" href="https://tinyco.re/13000110" fill="#777">tinyco.re/13000110</a> • <a href="https://ourworldindata.org" target="_blank">Powered by ourworldindata.org</a></tspan></text></g></svg>