<svg xmlns="http://www.w3.org/2000/svg" version="1.1" style="background-color:#fff;-webkit-font-smoothing:antialiased" width="850" height="600" viewBox="0 0 850 600" font-family="Lato,'Helvetica Neue',Helvetica,Arial,sans-serif" font-size="18" text-rendering="geometricPrecision"><g class="HeaderView"><g transform="matrix(.29 0 0 .29 774 15)"><svg className="owidLog" width="210" height="120" viewBox="0 0 210 120" fill="none" xmlns="http://www.w3.org/2000/svg"><g clip-path="url(#clip0)"><path d="M0 0h210v107.89H0V0z" fill="#002147"/><path d="M40.98 32.25c0 2.36-.38 4.53-1.12 6.51a14.26 14.26 0 01-8.1 8.4c-1.9.78-4.02 1.17-6.34 1.17a16.6 16.6 0 01-6.33-1.17 14.31 14.31 0 01-8.08-8.4 18.29 18.29 0 01-1.12-6.51c0-2.36.38-4.53 1.12-6.5.75-1.97 1.8-3.67 3.17-5.1a14.32 14.32 0 014.9-3.34c1.92-.8 4.03-1.19 6.34-1.19 2.32 0 4.43.4 6.34 1.19 1.92.8 3.56 1.9 4.93 3.34a14.87 14.87 0 013.17 5.1 18.1 18.1 0 011.12 6.5zm-4.38 0c0-1.94-.26-3.68-.8-5.22a10.91 10.91 0 00-2.24-3.89 9.68 9.68 0 00-3.52-2.46 11.95 11.95 0 00-4.62-.86c-1.68 0-3.21.28-4.6.86a9.88 9.88 0 00-3.54 2.46 10.91 10.91 0 00-2.24 3.9c-.53 1.53-.8 3.27-.8 5.2 0 1.94.27 3.68.8 5.22a11.17 11.17 0 002.24 3.9 10.01 10.01 0 003.55 2.44c1.38.56 2.9.83 4.6.83s3.24-.27 4.61-.83a9.8 9.8 0 003.52-2.44 11.17 11.17 0 002.25-3.9c.53-1.54.8-3.28.8-5.21zm26.22-6.54V48H60.5c-.56 0-.9-.27-1.05-.81l-.31-2.4a12.45 12.45 0 01-3.26 2.6c-1.2.64-2.58.96-4.13.96-1.22 0-2.3-.2-3.24-.6a6.52 6.52 0 01-2.33-1.7 7.37 7.37 0 01-1.43-2.67c-.3-1.04-.46-2.2-.46-3.45V25.7h3.91v14.22c0 1.68.38 2.99 1.15 3.91.77.93 1.96 1.39 3.54 1.39 1.16 0 2.24-.27 3.23-.82a10.42 10.42 0 002.8-2.28V25.7h3.91zm8.61 4.47a9.94 9.94 0 012.6-3.56 5.64 5.64 0 013.76-1.3c.47 0 .92.05 1.34.15.44.1.83.27 1.17.49l-.3 2.92c-.09.37-.3.55-.66.55-.2 0-.5-.04-.9-.13a6.21 6.21 0 00-3.24.18 4.23 4.23 0 00-1.47.92c-.42.4-.81.9-1.17 1.5-.33.58-.64 1.26-.92 2.02V48H67.7V25.71h2.25c.42 0 .72.08.88.25.16.16.27.44.33.83l.26 3.39zm61.16-13.7L122.75 48h-3.82l-7.99-24.05a21.95 21.95 0 01-.42-1.58 38.36 38.36 0 01-.44 1.58L102.05 48h-3.83L88.4 16.47h3.54c.38 0 .7.1.95.29.26.2.43.43.5.73l6.52 21.9.28 1.28.29 1.46.3-1.46.38-1.27 7.41-21.91c.1-.25.26-.48.51-.69.27-.22.58-.33.95-.33h1.23c.38 0 .69.1.92.29a1.77 1.77 0 01.53.73l7.4 21.9a28.4 28.4 0 01.68 2.62 29.52 29.52 0 01.52-2.61l6.54-21.91a1.31 1.31 0 01.48-.7c.27-.21.58-.32.95-.32h3.32zm9.35 8.88c1.63 0 3.1.27 4.4.82a9.43 9.43 0 015.46 5.94c.5 1.4.74 2.98.74 4.73 0 1.76-.25 3.34-.74 4.75a9.43 9.43 0 01-5.46 5.92c-1.3.52-2.77.79-4.4.79-1.64 0-3.12-.27-4.44-.8a9.42 9.42 0 01-3.35-2.3c-.92-1-1.63-2.2-2.13-3.61-.49-1.41-.73-3-.73-4.75s.24-3.33.73-4.73c.5-1.43 1.2-2.64 2.13-3.63a9.4 9.4 0 013.35-2.31c1.32-.55 2.8-.82 4.44-.82zm0 19.89c2.2 0 3.84-.73 4.93-2.2 1.08-1.48 1.63-3.54 1.63-6.18 0-2.66-.55-4.72-1.63-6.2-1.09-1.49-2.73-2.23-4.93-2.23-1.12 0-2.09.2-2.93.57a5.71 5.71 0 00-2.06 1.65 7.5 7.5 0 00-1.24 2.67c-.26 1.04-.4 2.22-.4 3.54 0 2.64.55 4.7 1.64 6.18 1.1 1.47 2.76 2.2 4.99 2.2zm17.97-15.07a9.94 9.94 0 012.6-3.56 5.64 5.64 0 013.76-1.3c.47 0 .91.05 1.34.15.44.1.83.27 1.16.49l-.28 2.92c-.09.37-.31.55-.66.55-.2 0-.5-.04-.9-.13a6.2 6.2 0 00-3.24.18 4.23 4.23 0 00-1.47.92c-.43.4-.82.9-1.17 1.5a13.1 13.1 0 00-.92 2.02V48h-3.94V25.71h2.24c.43 0 .72.08.88.25.17.16.28.44.33.83l.27 3.39zm15.04-14.59V48h-3.92V15.6h3.92zm19.55 15.43a6.22 6.22 0 00-2.38-2.05 6.7 6.7 0 00-2.86-.6c-2.07 0-3.66.75-4.77 2.23-1.12 1.48-1.68 3.6-1.68 6.33 0 1.46.13 2.7.38 3.74a7.29 7.29 0 001.1 2.56 4.35 4.35 0 001.78 1.45c.7.3 1.5.46 2.4.46 1.29 0 2.41-.3 3.36-.88a9.6 9.6 0 002.67-2.49V31.02zm3.91-15.43V48h-2.33c-.56 0-.9-.27-1.06-.81l-.35-2.71a12.13 12.13 0 01-3.25 2.77 8.28 8.28 0 01-4.23 1.06 7.31 7.31 0 01-6.14-2.9c-.73-.96-1.3-2.15-1.69-3.57a18.35 18.35 0 01.07-9.48 11.29 11.29 0 011.89-3.7 8.7 8.7 0 017.06-3.34 7.96 7.96 0 016.12 2.62V15.59h3.91zM46.61 70.71V93H42.7V70.71h3.91zm.84-7c0 .39-.08.75-.24 1.09a2.81 2.81 0 01-1.52 1.47 2.67 2.67 0 01-2.16 0 2.9 2.9 0 01-1.45-1.47 2.67 2.67 0 010-2.16c.15-.35.35-.65.6-.9.25-.27.53-.47.85-.62a2.67 2.67 0 012.16 0c.35.15.65.35.9.62.27.25.47.55.62.9.16.34.24.7.24 1.08zm7.97 10.24c.49-.54 1-1.04 1.54-1.48a9.85 9.85 0 013.66-1.84 8.96 8.96 0 015.43.35c.94.4 1.72.97 2.33 1.71a7.36 7.36 0 011.43 2.67c.32 1.04.49 2.19.49 3.45V93h-3.94V78.81c0-1.69-.4-3-1.17-3.92-.76-.93-1.93-1.4-3.5-1.4a6.6 6.6 0 00-3.25.83c-1 .56-1.92 1.31-2.77 2.27V93h-3.94V70.71h2.35c.56 0 .9.28 1.04.82l.3 2.42zm57.7 3.3c0 2.36-.37 4.5-1.11 6.44a14.3 14.3 0 01-3.17 4.98 14.1 14.1 0 01-4.93 3.2c-1.9.76-4.02 1.13-6.33 1.13H85.8V61.47h11.77c2.31 0 4.42.39 6.33 1.15a13.8 13.8 0 018.1 8.18 17.75 17.75 0 011.12 6.45zm-4.37 0c0-1.94-.26-3.67-.8-5.2a10.94 10.94 0 00-2.23-3.87 9.57 9.57 0 00-3.53-2.42 12.23 12.23 0 00-4.61-.83h-7.5v24.62h7.5c1.7 0 3.24-.28 4.61-.84a9.7 9.7 0 003.53-2.4 10.94 10.94 0 002.24-3.87c.53-1.53.8-3.26.8-5.2zm19.8 5.72c-1.8.06-3.34.2-4.62.44-1.26.22-2.3.51-3.1.88-.8.36-1.37.8-1.74 1.3-.35.5-.53 1.05-.53 1.67 0 .58.1 1.1.3 1.52a3 3 0 00.76 1.05c.34.27.73.46 1.17.6a6.13 6.13 0 001.45.17 7.28 7.28 0 003.5-.81 11.95 11.95 0 002.82-2.2v-4.62zm-12.65-9.11a12.73 12.73 0 013.98-2.66c1.43-.59 3-.88 4.73-.88 1.25 0 2.36.2 3.33.61a6.81 6.81 0 013.94 4.38c.33 1.04.5 2.19.5 3.43V93h-1.74a1.8 1.8 0 01-.88-.18c-.2-.13-.36-.38-.48-.74l-.44-2.12-1.72 1.46a9.48 9.48 0 01-3.74 1.7c-.69.15-1.46.23-2.3.23-.87 0-1.69-.12-2.45-.35a5.34 5.34 0 01-3.34-2.93 6.64 6.64 0 01-.49-2.64c0-.88.25-1.72.73-2.53a6.33 6.33 0 012.35-2.17c1.09-.63 2.5-1.15 4.25-1.54 1.75-.41 3.89-.65 6.42-.7v-1.75c0-1.73-.37-3.03-1.12-3.91-.75-.9-1.84-1.34-3.28-1.34-.97 0-1.78.12-2.44.37-.64.23-1.2.5-1.7.81l-1.23.82c-.33.23-.67.35-1 .35-.27 0-.5-.07-.69-.2a2.1 2.1 0 01-.48-.53l-.7-1.25zm27.67 19.5c-1.76 0-3.12-.5-4.07-1.48-.94-.98-1.41-2.4-1.41-4.25V74h-2.68a.9.9 0 01-.6-.2c-.16-.14-.24-.36-.24-.66v-1.56l3.65-.46.9-6.89a.9.9 0 01.29-.52.88.88 0 01.62-.22H142v7.67h6.44V74H142v13.38c0 .94.22 1.63.68 2.09.45.45 1.04.68 1.76.68a3.21 3.21 0 001.85-.53l.55-.35c.16-.12.3-.18.41-.18.2 0 .4.13.55.38l1.15 1.87a7.45 7.45 0 01-2.44 1.5 8.53 8.53 0 01-2.95.52zm19.68-10.4c-1.8.07-3.34.21-4.62.45-1.26.22-2.3.51-3.1.88-.8.36-1.37.8-1.74 1.3-.35.5-.53 1.05-.53 1.67 0 .58.1 1.1.3 1.52a2.9 2.9 0 00.76 1.05c.34.27.73.46 1.17.6a6.13 6.13 0 001.45.17 7.3 7.3 0 003.5-.81 12.04 12.04 0 002.82-2.2v-4.62zm-12.65-9.1a12.72 12.72 0 013.99-2.66c1.42-.59 3-.88 4.72-.88 1.25 0 2.36.2 3.33.61a6.81 6.81 0 013.94 4.38c.33 1.04.5 2.19.5 3.43V93h-1.74a1.8 1.8 0 01-.88-.18c-.2-.13-.36-.38-.48-.74l-.44-2.12-1.72 1.46a9.48 9.48 0 01-3.74 1.7c-.69.15-1.46.23-2.3.23-.87 0-1.69-.12-2.45-.35a5.33 5.33 0 01-3.34-2.93 6.62 6.62 0 01-.49-2.64c0-.88.25-1.72.73-2.53a6.33 6.33 0 012.35-2.17c1.09-.63 2.5-1.15 4.25-1.54a31.2 31.2 0 016.42-.7v-1.75c0-1.73-.37-3.03-1.12-3.91-.75-.9-1.84-1.34-3.28-1.34-.97 0-1.78.12-2.44.37-.64.23-1.2.5-1.7.81l-1.22.82c-.34.23-.68.35-1.02.35-.26 0-.49-.07-.68-.2a1.88 1.88 0 01-.48-.53l-.7-1.25zM40.98 32.25c0 2.36-.38 4.53-1.12 6.51a14.26 14.26 0 01-8.1 8.4c-1.9.78-4.02 1.17-6.34 1.17a16.6 16.6 0 01-6.33-1.17 14.31 14.31 0 01-8.08-8.4 18.29 18.29 0 01-1.12-6.51c0-2.36.38-4.53 1.12-6.5.75-1.97 1.8-3.67 3.17-5.1a14.32 14.32 0 014.9-3.34c1.92-.8 4.03-1.19 6.34-1.19 2.32 0 4.43.4 6.34 1.19 1.92.8 3.56 1.9 4.93 3.34a14.87 14.87 0 013.17 5.1 18.1 18.1 0 011.12 6.5zm-4.38 0c0-1.94-.26-3.68-.8-5.22a10.91 10.91 0 00-2.24-3.89 9.68 9.68 0 00-3.52-2.46 11.95 11.95 0 00-4.62-.86c-1.68 0-3.21.28-4.6.86a9.88 9.88 0 00-3.54 2.46 10.91 10.91 0 00-2.24 3.9c-.53 1.53-.8 3.27-.8 5.2 0 1.94.27 3.68.8 5.22a11.17 11.17 0 002.24 3.9 10.01 10.01 0 003.55 2.44c1.38.56 2.9.83 4.6.83s3.24-.27 4.61-.83a9.8 9.8 0 003.52-2.44 11.17 11.17 0 002.25-3.9c.53-1.54.8-3.28.8-5.21zm26.22-6.54V48H60.5c-.56 0-.9-.27-1.05-.81l-.31-2.4a12.45 12.45 0 01-3.26 2.6c-1.2.64-2.58.96-4.13.96-1.22 0-2.3-.2-3.24-.6a6.52 6.52 0 01-2.33-1.7 7.37 7.37 0 01-1.43-2.67c-.3-1.04-.46-2.2-.46-3.45V25.7h3.91v14.22c0 1.68.38 2.99 1.15 3.91.77.93 1.96 1.39 3.54 1.39 1.16 0 2.24-.27 3.23-.82a10.42 10.42 0 002.8-2.28V25.7h3.91zm8.61 4.47a9.94 9.94 0 012.6-3.56 5.64 5.64 0 013.76-1.3c.47 0 .92.05 1.34.15.44.1.83.27 1.17.49l-.3 2.92c-.09.37-.3.55-.66.55-.2 0-.5-.04-.9-.13a6.21 6.21 0 00-3.24.18 4.23 4.23 0 00-1.47.92c-.42.4-.81.9-1.17 1.5-.33.58-.64 1.26-.92 2.02V48H67.7V25.71h2.25c.42 0 .72.08.88.25.16.16.27.44.33.83l.26 3.39zm61.16-13.7L122.75 48h-3.82l-7.99-24.05a21.95 21.95 0 01-.42-1.58 38.36 38.36 0 01-.44 1.58L102.05 48h-3.83L88.4 16.47h3.54c.38 0 .7.1.95.29.26.2.43.43.5.73l6.52 21.9.28 1.28.29 1.46.3-1.46.38-1.27 7.41-21.91c.1-.25.26-.48.51-.69.27-.22.58-.33.95-.33h1.23c.38 0 .69.1.92.29a1.77 1.77 0 01.53.73l7.4 21.9a28.4 28.4 0 01.68 2.62 29.52 29.52 0 01.52-2.61l6.54-21.91a1.31 1.31 0 01.48-.7c.27-.21.58-.32.95-.32h3.32zm9.35 8.88c1.63 0 3.1.27 4.4.82a9.43 9.43 0 015.46 5.94c.5 1.4.74 2.98.74 4.73 0 1.76-.25 3.34-.74 4.75a9.43 9.43 0 01-5.46 5.92c-1.3.52-2.77.79-4.4.79-1.64 0-3.12-.27-4.44-.8a9.42 9.42 0 01-3.35-2.3c-.92-1-1.63-2.2-2.13-3.61-.49-1.41-.73-3-.73-4.75s.24-3.33.73-4.73c.5-1.43 1.2-2.64 2.13-3.63a9.4 9.4 0 013.35-2.31c1.32-.55 2.8-.82 4.44-.82zm0 19.89c2.2 0 3.84-.73 4.93-2.2 1.08-1.48 1.63-3.54 1.63-6.18 0-2.66-.55-4.72-1.63-6.2-1.09-1.49-2.73-2.23-4.93-2.23-1.12 0-2.09.2-2.93.57a5.71 5.71 0 00-2.06 1.65 7.5 7.5 0 00-1.24 2.67c-.26 1.04-.4 2.22-.4 3.54 0 2.64.55 4.7 1.64 6.18 1.1 1.47 2.76 2.2 4.99 2.2zm17.97-15.07a9.94 9.94 0 012.6-3.56 5.64 5.64 0 013.76-1.3c.47 0 .91.05 1.34.15.44.1.83.27 1.16.49l-.28 2.92c-.09.37-.31.55-.66.55-.2 0-.5-.04-.9-.13a6.2 6.2 0 00-3.24.18 4.23 4.23 0 00-1.47.92c-.43.4-.82.9-1.17 1.5a13.1 13.1 0 00-.92 2.02V48h-3.94V25.71h2.24c.43 0 .72.08.88.25.17.16.28.44.33.83l.27 3.39zm15.04-14.59V48h-3.92V15.6h3.92zm19.55 15.43a6.22 6.22 0 00-2.38-2.05 6.7 6.7 0 00-2.86-.6c-2.07 0-3.66.75-4.77 2.23-1.12 1.48-1.68 3.6-1.68 6.33 0 1.46.13 2.7.38 3.74a7.29 7.29 0 001.1 2.56 4.35 4.35 0 001.78 1.45c.7.3 1.5.46 2.4.46 1.29 0 2.41-.3 3.36-.88a9.6 9.6 0 002.67-2.49V31.02zm3.91-15.43V48h-2.33c-.56 0-.9-.27-1.06-.81l-.35-2.71a12.13 12.13 0 01-3.25 2.77 8.28 8.28 0 01-4.23 1.06 7.31 7.31 0 01-6.14-2.9c-.73-.96-1.3-2.15-1.69-3.57a18.35 18.35 0 01.07-9.48 11.29 11.29 0 011.89-3.7 8.7 8.7 0 017.06-3.34 7.96 7.96 0 016.12 2.62V15.59h3.91zM46.61 70.71V93H42.7V70.71h3.91zm.84-7c0 .39-.08.75-.24 1.09a2.81 2.81 0 01-1.52 1.47 2.67 2.67 0 01-2.16 0 2.9 2.9 0 01-1.45-1.47 2.67 2.67 0 010-2.16c.15-.35.35-.65.6-.9.25-.27.53-.47.85-.62a2.67 2.67 0 012.16 0c.35.15.65.35.9.62.27.25.47.55.62.9.16.34.24.7.24 1.08zm7.97 10.24c.49-.54 1-1.04 1.54-1.48a9.85 9.85 0 013.66-1.84 8.96 8.96 0 015.43.35c.94.4 1.72.97 2.33 1.71a7.36 7.36 0 011.43 2.67c.32 1.04.49 2.19.49 3.45V93h-3.94V78.81c0-1.69-.4-3-1.17-3.92-.76-.93-1.93-1.4-3.5-1.4a6.6 6.6 0 00-3.25.83c-1 .56-1.92 1.31-2.77 2.27V93h-3.94V70.71h2.35c.56 0 .9.28 1.04.82l.3 2.42zm57.7 3.3c0 2.36-.37 4.5-1.11 6.44a14.3 14.3 0 01-3.17 4.98 14.1 14.1 0 01-4.93 3.2c-1.9.76-4.02 1.13-6.33 1.13H85.8V61.47h11.77c2.31 0 4.42.39 6.33 1.15a13.8 13.8 0 018.1 8.18 17.75 17.75 0 011.12 6.45zm-4.37 0c0-1.94-.26-3.67-.8-5.2a10.94 10.94 0 00-2.23-3.87 9.57 9.57 0 00-3.53-2.42 12.23 12.23 0 00-4.61-.83h-7.5v24.62h7.5c1.7 0 3.24-.28 4.61-.84a9.7 9.7 0 003.53-2.4 10.94 10.94 0 002.24-3.87c.53-1.53.8-3.26.8-5.2zm19.8 5.72c-1.8.06-3.34.2-4.62.44-1.26.22-2.3.51-3.1.88-.8.36-1.37.8-1.74 1.3-.35.5-.53 1.05-.53 1.67 0 .58.1 1.1.3 1.52a3 3 0 00.76 1.05c.34.27.73.46 1.17.6a6.13 6.13 0 001.45.17 7.28 7.28 0 003.5-.81 11.95 11.95 0 002.82-2.2v-4.62zm-12.65-9.11a12.73 12.73 0 013.98-2.66c1.43-.59 3-.88 4.73-.88 1.25 0 2.36.2 3.33.61a6.81 6.81 0 013.94 4.38c.33 1.04.5 2.19.5 3.43V93h-1.74a1.8 1.8 0 01-.88-.18c-.2-.13-.36-.38-.48-.74l-.44-2.12-1.72 1.46a9.48 9.48 0 01-3.74 1.7c-.69.15-1.46.23-2.3.23-.87 0-1.69-.12-2.45-.35a5.34 5.34 0 01-3.34-2.93 6.64 6.64 0 01-.49-2.64c0-.88.25-1.72.73-2.53a6.33 6.33 0 012.35-2.17c1.09-.63 2.5-1.15 4.25-1.54 1.75-.41 3.89-.65 6.42-.7v-1.75c0-1.73-.37-3.03-1.12-3.91-.75-.9-1.84-1.34-3.28-1.34-.97 0-1.78.12-2.44.37-.64.23-1.2.5-1.7.81l-1.23.82c-.33.23-.67.35-1 .35-.27 0-.5-.07-.69-.2a2.1 2.1 0 01-.48-.53l-.7-1.25zm27.67 19.5c-1.76 0-3.12-.5-4.07-1.48-.94-.98-1.41-2.4-1.41-4.25V74h-2.68a.9.9 0 01-.6-.2c-.16-.14-.24-.36-.24-.66v-1.56l3.65-.46.9-6.89a.9.9 0 01.29-.52.88.88 0 01.62-.22H142v7.67h6.44V74H142v13.38c0 .94.22 1.63.68 2.09.45.45 1.04.68 1.76.68a3.21 3.21 0 001.85-.53l.55-.35c.16-.12.3-.18.41-.18.2 0 .4.13.55.38l1.15 1.87a7.45 7.45 0 01-2.44 1.5 8.53 8.53 0 01-2.95.52zm19.68-10.4c-1.8.07-3.34.21-4.62.45-1.26.22-2.3.51-3.1.88-.8.36-1.37.8-1.74 1.3-.35.5-.53 1.05-.53 1.67 0 .58.1 1.1.3 1.52a2.9 2.9 0 00.76 1.05c.34.27.73.46 1.17.6a6.13 6.13 0 001.45.17 7.3 7.3 0 003.5-.81 12.04 12.04 0 002.82-2.2v-4.62zm-12.65-9.1a12.72 12.72 0 013.99-2.66c1.42-.59 3-.88 4.72-.88 1.25 0 2.36.2 3.33.61a6.81 6.81 0 013.94 4.38c.33 1.04.5 2.19.5 3.43V93h-1.74a1.8 1.8 0 01-.88-.18c-.2-.13-.36-.38-.48-.74l-.44-2.12-1.72 1.46a9.48 9.48 0 01-3.74 1.7c-.69.15-1.46.23-2.3.23-.87 0-1.69-.12-2.45-.35a5.33 5.33 0 01-3.34-2.93 6.62 6.62 0 01-.49-2.64c0-.88.25-1.72.73-2.53a6.33 6.33 0 012.35-2.17c1.09-.63 2.5-1.15 4.25-1.54a31.2 31.2 0 016.42-.7v-1.75c0-1.73-.37-3.03-1.12-3.91-.75-.9-1.84-1.34-3.28-1.34-.97 0-1.78.12-2.44.37-.64.23-1.2.5-1.7.81l-1.22.82c-.34.23-.68.35-1.02.35-.26 0-.49-.07-.68-.2a1.88 1.88 0 01-.48-.53l-.7-1.25zM40.98 32.25c0 2.36-.38 4.53-1.12 6.51a14.26 14.26 0 01-8.1 8.4c-1.9.78-4.02 1.17-6.34 1.17a16.6 16.6 0 01-6.33-1.17 14.31 14.31 0 01-8.08-8.4 18.29 18.29 0 01-1.12-6.51c0-2.36.38-4.53 1.12-6.5.75-1.97 1.8-3.67 3.17-5.1a14.32 14.32 0 014.9-3.34c1.92-.8 4.03-1.19 6.34-1.19 2.32 0 4.43.4 6.34 1.19 1.92.8 3.56 1.9 4.93 3.34a14.87 14.87 0 013.17 5.1 18.1 18.1 0 011.12 6.5zm-4.38 0c0-1.94-.26-3.68-.8-5.22a10.91 10.91 0 00-2.24-3.89 9.68 9.68 0 00-3.52-2.46 11.95 11.95 0 00-4.62-.86c-1.68 0-3.21.28-4.6.86a9.88 9.88 0 00-3.54 2.46 10.91 10.91 0 00-2.24 3.9c-.53 1.53-.8 3.27-.8 5.2 0 1.94.27 3.68.8 5.22a11.17 11.17 0 002.24 3.9 10.01 10.01 0 003.55 2.44c1.38.56 2.9.83 4.6.83s3.24-.27 4.61-.83a9.8 9.8 0 003.52-2.44 11.17 11.17 0 002.25-3.9c.53-1.54.8-3.28.8-5.21zm26.22-6.54V48H60.5c-.56 0-.9-.27-1.05-.81l-.31-2.4a12.45 12.45 0 01-3.26 2.6c-1.2.64-2.58.96-4.13.96-1.22 0-2.3-.2-3.24-.6a6.52 6.52 0 01-2.33-1.7 7.37 7.37 0 01-1.43-2.67c-.3-1.04-.46-2.2-.46-3.45V25.7h3.91v14.22c0 1.68.38 2.99 1.15 3.91.77.93 1.96 1.39 3.54 1.39 1.16 0 2.24-.27 3.23-.82a10.42 10.42 0 002.8-2.28V25.7h3.91zm8.61 4.47a9.94 9.94 0 012.6-3.56 5.64 5.64 0 013.76-1.3c.47 0 .92.05 1.34.15.44.1.83.27 1.17.49l-.3 2.92c-.09.37-.3.55-.66.55-.2 0-.5-.04-.9-.13a6.21 6.21 0 00-3.24.18 4.23 4.23 0 00-1.47.92c-.42.4-.81.9-1.17 1.5-.33.58-.64 1.26-.92 2.02V48H67.7V25.71h2.25c.42 0 .72.08.88.25.16.16.27.44.33.83l.26 3.39zm61.16-13.7L122.75 48h-3.82l-7.99-24.05a21.95 21.95 0 01-.42-1.58 38.36 38.36 0 01-.44 1.58L102.05 48h-3.83L88.4 16.47h3.54c.38 0 .7.1.95.29.26.2.43.43.5.73l6.52 21.9.28 1.28.29 1.46.3-1.46.38-1.27 7.41-21.91c.1-.25.26-.48.51-.69.27-.22.58-.33.95-.33h1.23c.38 0 .69.1.92.29a1.77 1.77 0 01.53.73l7.4 21.9a28.4 28.4 0 01.68 2.62 29.52 29.52 0 01.52-2.61l6.54-21.91a1.31 1.31 0 01.48-.7c.27-.21.58-.32.95-.32h3.32zm9.35 8.88c1.63 0 3.1.27 4.4.82a9.43 9.43 0 015.46 5.94c.5 1.4.74 2.98.74 4.73 0 1.76-.25 3.34-.74 4.75a9.43 9.43 0 01-5.46 5.92c-1.3.52-2.77.79-4.4.79-1.64 0-3.12-.27-4.44-.8a9.42 9.42 0 01-3.35-2.3c-.92-1-1.63-2.2-2.13-3.61-.49-1.41-.73-3-.73-4.75s.24-3.33.73-4.73c.5-1.43 1.2-2.64 2.13-3.63a9.4 9.4 0 013.35-2.31c1.32-.55 2.8-.82 4.44-.82zm0 19.89c2.2 0 3.84-.73 4.93-2.2 1.08-1.48 1.63-3.54 1.63-6.18 0-2.66-.55-4.72-1.63-6.2-1.09-1.49-2.73-2.23-4.93-2.23-1.12 0-2.09.2-2.93.57a5.71 5.71 0 00-2.06 1.65 7.5 7.5 0 00-1.24 2.67c-.26 1.04-.4 2.22-.4 3.54 0 2.64.55 4.7 1.64 6.18 1.1 1.47 2.76 2.2 4.99 2.2zm17.97-15.07a9.94 9.94 0 012.6-3.56 5.64 5.64 0 013.76-1.3c.47 0 .91.05 1.34.15.44.1.83.27 1.16.49l-.28 2.92c-.09.37-.31.55-.66.55-.2 0-.5-.04-.9-.13a6.2 6.2 0 00-3.24.18 4.23 4.23 0 00-1.47.92c-.43.4-.82.9-1.17 1.5a13.1 13.1 0 00-.92 2.02V48h-3.94V25.71h2.24c.43 0 .72.08.88.25.17.16.28.44.33.83l.27 3.39zm15.04-14.59V48h-3.92V15.6h3.92zm19.55 15.43a6.22 6.22 0 00-2.38-2.05 6.7 6.7 0 00-2.86-.6c-2.07 0-3.66.75-4.77 2.23-1.12 1.48-1.68 3.6-1.68 6.33 0 1.46.13 2.7.38 3.74a7.29 7.29 0 001.1 2.56 4.35 4.35 0 001.78 1.45c.7.3 1.5.46 2.4.46 1.29 0 2.41-.3 3.36-.88a9.6 9.6 0 002.67-2.49V31.02zm3.91-15.43V48h-2.33c-.56 0-.9-.27-1.06-.81l-.35-2.71a12.13 12.13 0 01-3.25 2.77 8.28 8.28 0 01-4.23 1.06 7.31 7.31 0 01-6.14-2.9c-.73-.96-1.3-2.15-1.69-3.57a18.35 18.35 0 01.07-9.48 11.29 11.29 0 011.89-3.7 8.7 8.7 0 017.06-3.34 7.96 7.96 0 016.12 2.62V15.59h3.91zM46.61 70.71V93H42.7V70.71h3.91zm.84-7c0 .39-.08.75-.24 1.09a2.81 2.81 0 01-1.52 1.47 2.67 2.67 0 01-2.16 0 2.9 2.9 0 01-1.45-1.47 2.67 2.67 0 010-2.16c.15-.35.35-.65.6-.9.25-.27.53-.47.85-.62a2.67 2.67 0 012.16 0c.35.15.65.35.9.62.27.25.47.55.62.9.16.34.24.7.24 1.08zm7.97 10.24c.49-.54 1-1.04 1.54-1.48a9.85 9.85 0 013.66-1.84 8.96 8.96 0 015.43.35c.94.4 1.72.97 2.33 1.71a7.36 7.36 0 011.43 2.67c.32 1.04.49 2.19.49 3.45V93h-3.94V78.81c0-1.69-.4-3-1.17-3.92-.76-.93-1.93-1.4-3.5-1.4a6.6 6.6 0 00-3.25.83c-1 .56-1.92 1.31-2.77 2.27V93h-3.94V70.71h2.35c.56 0 .9.28 1.04.82l.3 2.42zm57.7 3.3c0 2.36-.37 4.5-1.11 6.44a14.3 14.3 0 01-3.17 4.98 14.1 14.1 0 01-4.93 3.2c-1.9.76-4.02 1.13-6.33 1.13H85.8V61.47h11.77c2.31 0 4.42.39 6.33 1.15a13.8 13.8 0 018.1 8.18 17.75 17.75 0 011.12 6.45zm-4.37 0c0-1.94-.26-3.67-.8-5.2a10.94 10.94 0 00-2.23-3.87 9.57 9.57 0 00-3.53-2.42 12.23 12.23 0 00-4.61-.83h-7.5v24.62h7.5c1.7 0 3.24-.28 4.61-.84a9.7 9.7 0 003.53-2.4 10.94 10.94 0 002.24-3.87c.53-1.53.8-3.26.8-5.2zm19.8 5.72c-1.8.06-3.34.2-4.62.44-1.26.22-2.3.51-3.1.88-.8.36-1.37.8-1.74 1.3-.35.5-.53 1.05-.53 1.67 0 .58.1 1.1.3 1.52a3 3 0 00.76 1.05c.34.27.73.46 1.17.6a6.13 6.13 0 001.45.17 7.28 7.28 0 003.5-.81 11.95 11.95 0 002.82-2.2v-4.62zm-12.65-9.11a12.73 12.73 0 013.98-2.66c1.43-.59 3-.88 4.73-.88 1.25 0 2.36.2 3.33.61a6.81 6.81 0 013.94 4.38c.33 1.04.5 2.19.5 3.43V93h-1.74a1.8 1.8 0 01-.88-.18c-.2-.13-.36-.38-.48-.74l-.44-2.12-1.72 1.46a9.48 9.48 0 01-3.74 1.7c-.69.15-1.46.23-2.3.23-.87 0-1.69-.12-2.45-.35a5.34 5.34 0 01-3.34-2.93 6.64 6.64 0 01-.49-2.64c0-.88.25-1.72.73-2.53a6.33 6.33 0 012.35-2.17c1.09-.63 2.5-1.15 4.25-1.54 1.75-.41 3.89-.65 6.42-.7v-1.75c0-1.73-.37-3.03-1.12-3.91-.75-.9-1.84-1.34-3.28-1.34-.97 0-1.78.12-2.44.37-.64.23-1.2.5-1.7.81l-1.23.82c-.33.23-.67.35-1 .35-.27 0-.5-.07-.69-.2a2.1 2.1 0 01-.48-.53l-.7-1.25zm27.67 19.5c-1.76 0-3.12-.5-4.07-1.48-.94-.98-1.41-2.4-1.41-4.25V74h-2.68a.9.9 0 01-.6-.2c-.16-.14-.24-.36-.24-.66v-1.56l3.65-.46.9-6.89a.9.9 0 01.29-.52.88.88 0 01.62-.22H142v7.67h6.44V74H142v13.38c0 .94.22 1.63.68 2.09.45.45 1.04.68 1.76.68a3.21 3.21 0 001.85-.53l.55-.35c.16-.12.3-.18.41-.18.2 0 .4.13.55.38l1.15 1.87a7.45 7.45 0 01-2.44 1.5 8.53 8.53 0 01-2.95.52zm19.68-10.4c-1.8.07-3.34.21-4.62.45-1.26.22-2.3.51-3.1.88-.8.36-1.37.8-1.74 1.3-.35.5-.53 1.05-.53 1.67 0 .58.1 1.1.3 1.52a2.9 2.9 0 00.76 1.05c.34.27.73.46 1.17.6a6.13 6.13 0 001.45.17 7.3 7.3 0 003.5-.81 12.04 12.04 0 002.82-2.2v-4.62zm-12.65-9.1a12.72 12.72 0 013.99-2.66c1.42-.59 3-.88 4.72-.88 1.25 0 2.36.2 3.33.61a6.81 6.81 0 013.94 4.38c.33 1.04.5 2.19.5 3.43V93h-1.74a1.8 1.8 0 01-.88-.18c-.2-.13-.36-.38-.48-.74l-.44-2.12-1.72 1.46a9.48 9.48 0 01-3.74 1.7c-.69.15-1.46.23-2.3.23-.87 0-1.69-.12-2.45-.35a5.33 5.33 0 01-3.34-2.93 6.62 6.62 0 01-.49-2.64c0-.88.25-1.72.73-2.53a6.33 6.33 0 012.35-2.17c1.09-.63 2.5-1.15 4.25-1.54a31.2 31.2 0 016.42-.7v-1.75c0-1.73-.37-3.03-1.12-3.91-.75-.9-1.84-1.34-3.28-1.34-.97 0-1.78.12-2.44.37-.64.23-1.2.5-1.7.81l-1.22.82c-.34.23-.68.35-1.02.35-.26 0-.49-.07-.68-.2a1.88 1.88 0 01-.48-.53l-.7-1.25z" fill="#fff"/><path fill="#D42B21" d="M0 106.79h210V120H0z"/></g><defs><clipPath id="clip0"><path fill="#fff" d="M0 0h210v120H0z"/></clipPath></defs></svg></g><a href="https://ourworldindata.org/grapher/child-stunting-ihme-slope" target="_blank" rel="noopener" font-family="&quot;Playfair Display&quot;,Georgia,&quot;Times New Roman&quot;,serif"><text font-size="24.3" x="15" y="34.4" fill="#555"><tspan x="15" y="34.44">Share of children under 5 years old who are stunted, 2000 to 2016</tspan></text></a><text font-size="14.4" x="15" y="54.8" fill="#666"><tspan x="15" y="54.82">Share of children younger than 5 years that fall below two standard deviations from the median height-for-age of</tspan><tspan x="15" y="72.1">the WHO Child Growth Standards.</tspan></text></g><g class="slopeChart"><g class="LabelledSlopes"><g class="gridlines" stroke="#eee" stroke-dasharray="3,2"><path d="M235.06 497.4h259.88M235.06 433.73h259.88M235.06 370.06h259.88M235.06 306.4h259.88M235.06 242.73h259.88M235.06 179.06h259.88M235.06 115.39h259.88"/></g><g class="axis" font-size=".8em" fill="#666" dominant-baseline="middle" text-anchor="start"><text x="15" y="497.4">0%</text><text x="15" y="433.73">10%</text><text x="15" y="370.06">20%</text><text x="15" y="306.4">30%</text><text x="15" y="242.73">40%</text><text x="15" y="179.06">50%</text><text x="15" y="115.39">60%</text></g><g class="axis" font-size=".8em" fill="#666" dominant-baseline="middle" text-anchor="end"><text x="715" y="497.4">0%</text><text x="715" y="433.73">10%</text><text x="715" y="370.06">20%</text><text x="715" y="306.4">30%</text><text x="715" y="242.73">40%</text><text x="715" y="179.06">50%</text><text x="715" y="115.39">60%</text></g><path stroke="#333" d="M235.06 497.4V91.3M494.94 497.4V91.3"/><text x="235.06" y="521.8" text-anchor="middle" fill="#666" font-size="18">2000</text><text x="494.94" y="521.8" text-anchor="middle" fill="#666" font-size="18">2016</text><g class="slopes"><g class="slope"><text font-size="11.7" x="183.2" y="374.5" text-anchor="end" fill="#333"><tspan x="183.16" y="374.47">China</tspan></text><text x="227.06" y="374.47" text-anchor="end" font-size="11.7" fill="#333">19.86%</text><circle cx="235.06" cy="370.96" r="2" fill="#2D8587" opacity=".5"/><path stroke="#2D8587" stroke-width="2.5" opacity=".5" d="M235.06 370.96l259.88 52.52"/><circle cx="494.94" cy="423.48" r="2" fill="#2D8587" opacity=".5"/><text x="502.94" y="426.99" font-size="11.7" fill="#333">11.61%</text><text font-size="11.7" x="546.8" y="427" fill="#333"><tspan x="546.84" y="426.99">China</tspan></text></g><g class="slope"><text font-size="11.7" x="183.2" y="178.6" text-anchor="end" fill="#333"><tspan x="183.16" y="178.58">North Korea</tspan></text><text x="227.06" y="178.58" text-anchor="end" font-size="11.7" fill="#333">50.63%</text><circle cx="235.06" cy="175.07" r="2" fill="#2D8587" opacity=".5"/><path stroke="#2D8587" stroke-width="2.5" opacity=".5" d="M235.06 175.07l259.88 126.66"/><circle cx="494.94" cy="301.73" r="2" fill="#2D8587" opacity=".5"/><text x="502.94" y="305.24" font-size="11.7" fill="#333">30.73%</text><text font-size="11.7" x="546.8" y="305.2" fill="#333"><tspan x="546.84" y="305.24">North Korea</tspan></text></g><g class="slope"><text font-size="11.7" x="189.7" y="462" text-anchor="end" fill="#333"><tspan x="189.71" y="461.98">Taiwan</tspan></text><text x="227.06" y="461.98" text-anchor="end" font-size="11.7" fill="#333">6.11%</text><circle cx="235.06" cy="458.47" r="2" fill="#2D8587" opacity=".5"/><path stroke="#2D8587" stroke-width="2.5" opacity=".5" d="M235.06 458.47l259.88 9.18"/><circle cx="494.94" cy="467.65" r="2" fill="#2D8587" opacity=".5"/><text x="502.94" y="471.16" font-size="11.7" fill="#333">4.67%</text><text font-size="11.7" x="540.3" y="471.2" fill="#333"><tspan x="540.29" y="471.16">Taiwan</tspan></text></g><g class="slope"><circle cx="235.06" cy="185.52" r="2" fill="#2D8587" opacity=".5"/><path stroke="#2D8587" stroke-width="2.5" opacity=".5" d="M235.06 185.52l259.88 100.2"/><circle cx="494.94" cy="285.72" r="2" fill="#2D8587" opacity=".5"/><text x="502.94" y="289.23" font-size="11.7" fill="#333">33.25%</text><text font-size="11.7" x="546.8" y="289.2" fill="#333"><tspan x="546.84" y="289.23">Cambodia</tspan></text></g><g class="slope"><text font-size="11.7" x="183.2" y="258.6" text-anchor="end" fill="#333"><tspan x="183.16" y="258.6">Indonesia</tspan></text><text x="227.06" y="258.6" text-anchor="end" font-size="11.7" fill="#333">38.06%</text><circle cx="235.06" cy="255.09" r="2" fill="#2D8587" opacity=".5"/><path stroke="#2D8587" stroke-width="2.5" opacity=".5" d="M235.06 255.09l259.88 41.25"/><circle cx="494.94" cy="296.34" r="2" fill="#2D8587" opacity=".5"/></g><g class="slope"><text font-size="11.7" x="183.2" y="113.2" text-anchor="end" fill="#333"><tspan x="183.16" y="113.22">Laos</tspan></text><text x="227.06" y="113.22" text-anchor="end" font-size="11.7" fill="#333">60.89%</text><circle cx="235.06" cy="109.71" r="2" fill="#2D8587" opacity=".5"/><path stroke="#2D8587" stroke-width="2.5" opacity=".5" d="M235.06 109.71l259.88 131.37"/><circle cx="494.94" cy="241.08" r="2" fill="#2D8587" opacity=".5"/><text x="502.94" y="244.59" font-size="11.7" fill="#333">40.26%</text><text font-size="11.7" x="546.8" y="244.6" fill="#333"><tspan x="546.84" y="244.59">Laos</tspan></text></g><g class="slope"><circle cx="235.06" cy="375.97" r="2" fill="#2D8587" opacity=".5"/><path stroke="#2D8587" stroke-width="2.5" opacity=".5" d="M235.06 375.97l259.88 9.31"/><circle cx="494.94" cy="385.28" r="2" fill="#2D8587" opacity=".5"/></g><g class="slope"><circle cx="235.06" cy="246.15" r="2" fill="#2D8587" opacity=".5"/><path stroke="#2D8587" stroke-width="2.5" opacity=".5" d="M235.06 246.15l259.88 123.03"/><circle cx="494.94" cy="369.18" r="2" fill="#2D8587" opacity=".5"/></g><g class="slope"><text font-size="11.7" x="183.2" y="217.4" text-anchor="end" fill="#333"><tspan x="183.16" y="217.39">Myanmar</tspan></text><text x="227.06" y="217.39" text-anchor="end" font-size="11.7" fill="#333">44.53%</text><circle cx="235.06" cy="213.88" r="2" fill="#2D8587" opacity=".5"/><path stroke="#2D8587" stroke-width="2.5" opacity=".5" d="M235.06 213.88l259.88 102.68"/><circle cx="494.94" cy="316.56" r="2" fill="#2D8587" opacity=".5"/><text x="502.94" y="320.07" font-size="11.7" fill="#333">28.4%</text><text font-size="11.7" x="540.3" y="320.1" fill="#333"><tspan x="540.29" y="320.07">Myanmar</tspan></text></g><g class="slope"><circle cx="235.06" cy="258.37" r="2" fill="#2D8587" opacity=".5"/><path stroke="#2D8587" stroke-width="2.5" opacity=".5" d="M235.06 258.37l259.88 38.09"/><circle cx="494.94" cy="296.46" r="2" fill="#2D8587" opacity=".5"/></g><g class="slope"><text font-size="11.7" x="183.2" y="339.1" text-anchor="end" fill="#333"><tspan x="183.16" y="339.07">Sri Lanka</tspan></text><text x="227.06" y="339.07" text-anchor="end" font-size="11.7" fill="#333">25.42%</text><circle cx="235.06" cy="335.56" r="2" fill="#2D8587" opacity=".5"/><path stroke="#2D8587" stroke-width="2.5" opacity=".5" d="M235.06 335.56l259.88 72.38"/><circle cx="494.94" cy="407.94" r="2" fill="#2D8587" opacity=".5"/><text x="502.94" y="411.45" font-size="11.7" fill="#333">14.05%</text><text font-size="11.7" x="546.8" y="411.5" fill="#333"><tspan x="546.84" y="411.45">Sri Lanka</tspan></text></g><g class="slope"><text font-size="11.7" x="183.2" y="402.7" text-anchor="end" fill="#333"><tspan x="183.16" y="402.74">Thailand</tspan></text><text x="227.06" y="402.74" text-anchor="end" font-size="11.7" fill="#333">15.42%</text><circle cx="235.06" cy="399.23" r="2" fill="#2D8587" opacity=".5"/><path stroke="#2D8587" stroke-width="2.5" opacity=".5" d="M235.06 399.23l259.88 13.35"/><circle cx="494.94" cy="412.58" r="2" fill="#2D8587" opacity=".5"/></g><g class="slope"><circle cx="235.06" cy="115.16" r="2" fill="#2D8587" opacity=".5"/><path stroke="#2D8587" stroke-width="2.5" opacity=".5" d="M235.06 115.16l259.88 84.43"/><circle cx="494.94" cy="199.59" r="2" fill="#2D8587" opacity=".5"/></g><g class="slope"><circle cx="235.06" cy="223.37" r="2" fill="#2D8587" opacity=".5"/><path stroke="#2D8587" stroke-width="2.5" opacity=".5" d="M235.06 223.37l259.88 146.86"/><circle cx="494.94" cy="370.23" r="2" fill="#2D8587" opacity=".5"/></g><g class="slope"><circle cx="235.06" cy="453.87" r="2" fill="#A8633C" opacity=".5"/><path stroke="#A8633C" stroke-width="2.5" opacity=".5" d="M235.06 453.87l259.88 4.77"/><circle cx="494.94" cy="458.64" r="2" fill="#A8633C" opacity=".5"/></g><g class="slope"><circle cx="235.06" cy="334.56" r="2" fill="#A8633C" opacity=".5"/><path stroke="#A8633C" stroke-width="2.5" opacity=".5" d="M235.06 334.56l259.88 43"/><circle cx="494.94" cy="377.56" r="2" fill="#A8633C" opacity=".5"/></g><g class="slope"><circle cx="235.06" cy="390.95" r="2" fill="#A8633C" opacity=".5"/><path stroke="#A8633C" stroke-width="2.5" opacity=".5" d="M235.06 390.95l259.88 22.51"/><circle cx="494.94" cy="413.46" r="2" fill="#A8633C" opacity=".5"/></g><g class="slope"><circle cx="235.06" cy="402.62" r="2" fill="#A8633C" opacity=".5"/><path stroke="#A8633C" stroke-width="2.5" opacity=".5" d="M235.06 402.62l259.88 20.23"/><circle cx="494.94" cy="422.85" r="2" fill="#A8633C" opacity=".5"/></g><g class="slope"><text font-size="11.7" x="199.5" y="163.5" text-anchor="end" fill="#333"><tspan x="199.54" y="163.48">Papua New Guinea</tspan></text><text x="227.06" y="163.48" text-anchor="end" font-size="11.7" fill="#333">53%</text><circle cx="235.06" cy="159.97" r="2" fill="#A8633C" opacity=".5"/><path stroke="#A8633C" stroke-width="2.5" opacity=".5" d="M235.06 159.97l259.88 36.27"/><circle cx="494.94" cy="196.24" r="2" fill="#A8633C" opacity=".5"/><text x="502.94" y="199.75" font-size="11.7" fill="#333">47.3%</text><text font-size="11.7" x="540.3" y="199.7" fill="#333"><tspan x="540.29" y="199.75">Papua New Guinea</tspan></text></g><g class="slope"><text font-size="11.7" x="189.7" y="449.9" text-anchor="end" fill="#333"><tspan x="189.71" y="449.87">Samoa</tspan></text><text x="227.06" y="449.87" text-anchor="end" font-size="11.7" fill="#333">8.02%</text><circle cx="235.06" cy="446.36" r="2" fill="#A8633C" opacity=".5"/><path stroke="#A8633C" stroke-width="2.5" opacity=".5" d="M235.06 446.36L494.94 454"/><circle cx="494.94" cy="454" r="2" fill="#A8633C" opacity=".5"/><text x="502.94" y="457.51" font-size="11.7" fill="#333">6.82%</text><text font-size="11.7" x="540.3" y="457.5" fill="#333"><tspan x="540.29" y="457.51">Samoa</tspan></text></g><g class="slope"><text font-size="11.7" x="183.2" y="319.2" text-anchor="end" fill="#333"><tspan x="183.16" y="319.17">Solomon Islands</tspan></text><text x="227.06" y="319.17" text-anchor="end" font-size="11.7" fill="#333">28.55%</text><circle cx="235.06" cy="315.66" r="2" fill="#A8633C" opacity=".5"/><path stroke="#A8633C" stroke-width="2.5" opacity=".5" d="M235.06 315.66l259.88 40.95"/><circle cx="494.94" cy="356.61" r="2" fill="#A8633C" opacity=".5"/><text x="502.94" y="360.12" font-size="11.7" fill="#333">22.11%</text><text font-size="11.7" x="546.8" y="360.1" fill="#333"><tspan x="546.84" y="360.12">Solomon Islands</tspan></text></g><g class="slope"><text font-size="11.7" x="183.2" y="436.5" text-anchor="end" fill="#333"><tspan x="183.16" y="436.54">Tonga</tspan></text><text x="227.06" y="436.54" text-anchor="end" font-size="11.7" fill="#333">10.11%</text><circle cx="235.06" cy="433.03" r="2" fill="#A8633C" opacity=".5"/><path stroke="#A8633C" stroke-width="2.5" opacity=".5" d="M235.06 433.03l259.88 14.08"/><circle cx="494.94" cy="447.11" r="2" fill="#A8633C" opacity=".5"/></g><g class="slope"><circle cx="235.06" cy="344.11" r="2" fill="#A8633C" opacity=".5"/><path stroke="#A8633C" stroke-width="2.5" opacity=".5" d="M235.06 344.11l259.88 9.8"/><circle cx="494.94" cy="353.91" r="2" fill="#A8633C" opacity=".5"/></g><g class="slope"><circle cx="235.06" cy="380.4" r="2" fill="#2D8587" opacity=".5"/><path stroke="#2D8587" stroke-width="2.5" opacity=".5" d="M235.06 380.4l259.88 10.47"/><circle cx="494.94" cy="390.87" r="2" fill="#2D8587" opacity=".5"/></g><g class="slope"><text font-size="11.7" x="183.2" y="351" text-anchor="end" fill="#333"><tspan x="183.16" y="351">Azerbaijan</tspan></text><text x="227.06" y="351" text-anchor="end" font-size="11.7" fill="#333">23.55%</text><circle cx="235.06" cy="347.49" r="2" fill="#2D8587" opacity=".5"/><path stroke="#2D8587" stroke-width="2.5" opacity=".5" d="M235.06 347.49l259.88 60.74"/><circle cx="494.94" cy="408.23" r="2" fill="#2D8587" opacity=".5"/></g><g class="slope"><text font-size="11.7" x="183.2" y="415.1" text-anchor="end" fill="#333"><tspan x="183.16" y="415.06">Georgia</tspan></text><text x="227.06" y="415.06" text-anchor="end" font-size="11.7" fill="#333">13.48%</text><circle cx="235.06" cy="411.55" r="2" fill="#2D8587" opacity=".5"/><path stroke="#2D8587" stroke-width="2.5" opacity=".5" d="M235.06 411.55l259.88 19.04"/><circle cx="494.94" cy="430.59" r="2" fill="#2D8587" opacity=".5"/></g><g class="slope"><circle cx="235.06" cy="401.03" r="2" fill="#2D8587" opacity=".5"/><path stroke="#2D8587" stroke-width="2.5" opacity=".5" d="M235.06 401.03l259.88 42.81"/><circle cx="494.94" cy="443.84" r="2" fill="#2D8587" opacity=".5"/></g><g class="slope"><circle cx="235.06" cy="341.04" r="2" fill="#2D8587" opacity=".5"/><path stroke="#2D8587" stroke-width="2.5" opacity=".5" d="M235.06 341.04l259.88 71.13"/><circle cx="494.94" cy="412.17" r="2" fill="#2D8587" opacity=".5"/></g><g class="slope"><text font-size="11.7" x="183.2" y="282.8" text-anchor="end" fill="#333"><tspan x="183.16" y="282.78">Mongolia</tspan></text><text x="227.06" y="282.78" text-anchor="end" font-size="11.7" fill="#333">34.26%</text><circle cx="235.06" cy="279.27" r="2" fill="#2D8587" opacity=".5"/><path stroke="#2D8587" stroke-width="2.5" opacity=".5" d="M235.06 279.27L494.94 406"/><circle cx="494.94" cy="406" r="2" fill="#2D8587" opacity=".5"/></g><g class="slope"><text font-size="11.7" x="183.2" y="241.7" text-anchor="end" fill="#333"><tspan x="183.16" y="241.7">Tajikistan</tspan></text><text x="227.06" y="241.7" text-anchor="end" font-size="11.7" fill="#333">40.71%</text><circle cx="235.06" cy="238.19" r="2" fill="#2D8587" opacity=".5"/><path stroke="#2D8587" stroke-width="2.5" opacity=".5" d="M235.06 238.19l259.88 76.12"/><circle cx="494.94" cy="314.31" r="2" fill="#2D8587" opacity=".5"/></g><g class="slope"><circle cx="235.06" cy="333.95" r="2" fill="#2D8587" opacity=".5"/><path stroke="#2D8587" stroke-width="2.5" opacity=".5" d="M235.06 333.95l259.88 92.17"/><circle cx="494.94" cy="426.12" r="2" fill="#2D8587" opacity=".5"/></g><g class="slope"><text font-size="11.7" x="183.2" y="299.2" text-anchor="end" fill="#333"><tspan x="183.16" y="299.25">Uzbekistan</tspan></text><text x="227.06" y="299.25" text-anchor="end" font-size="11.7" fill="#333">31.67%</text><circle cx="235.06" cy="295.74" r="2" fill="#2D8587" opacity=".5"/><path stroke="#2D8587" stroke-width="2.5" opacity=".5" d="M235.06 295.74l259.88 99.6"/><circle cx="494.94" cy="395.34" r="2" fill="#2D8587" opacity=".5"/><text x="502.94" y="398.85" font-size="11.7" fill="#333">16.03%</text><text font-size="11.7" x="546.8" y="398.9" fill="#333"><tspan x="546.84" y="398.85">Uzbekistan</tspan></text></g><g class="slope"><text font-size="11.7" x="183.2" y="270.5" text-anchor="end" fill="#333"><tspan x="183.16" y="270.51">Albania</tspan></text><text x="227.06" y="270.51" text-anchor="end" font-size="11.7" fill="#333">36.19%</text><circle cx="235.06" cy="267" r="2" fill="#4C5C78" opacity=".5"/><path stroke="#4C5C78" stroke-width="2.5" opacity=".5" d="M235.06 267l259.88 90.83"/><circle cx="494.94" cy="357.83" r="2" fill="#4C5C78" opacity=".5"/></g><g class="slope"><circle cx="235.06" cy="422.39" r="2" fill="#4C5C78" opacity=".5"/><path stroke="#4C5C78" stroke-width="2.5" opacity=".5" d="M235.06 422.39l259.88-14.13"/><circle cx="494.94" cy="408.26" r="2" fill="#4C5C78" opacity=".5"/></g><g class="slope"><circle cx="235.06" cy="420.41" r="2" fill="#4C5C78" opacity=".5"/><path stroke="#4C5C78" stroke-width="2.5" opacity=".5" d="M235.06 420.41l259.88 17.68"/><circle cx="494.94" cy="438.09" r="2" fill="#4C5C78" opacity=".5"/><text x="502.94" y="441.6" font-size="11.7" fill="#333">9.31%</text><text font-size="11.7" x="540.3" y="441.6" fill="#333"><tspan x="540.29" y="441.6">Bulgaria</tspan></text></g><g class="slope"><circle cx="235.06" cy="432.75" r="2" fill="#4C5C78" opacity=".5"/><path stroke="#4C5C78" stroke-width="2.5" opacity=".5" d="M235.06 432.75l259.88 15.53"/><circle cx="494.94" cy="448.28" r="2" fill="#4C5C78" opacity=".5"/></g><g class="slope"><text font-size="11.7" x="196.3" y="482.4" text-anchor="end" fill="#333"><tspan x="196.26" y="482.41">Czechia</tspan></text><text x="227.06" y="482.41" text-anchor="end" font-size="11.7" fill="#333">2.9%</text><circle cx="235.06" cy="478.9" r="2" fill="#4C5C78" opacity=".5"/><path stroke="#4C5C78" stroke-width="2.5" opacity=".5" d="M235.06 478.9l259.88 1.9"/><circle cx="494.94" cy="480.8" r="2" fill="#4C5C78" opacity=".5"/><text x="502.94" y="484.31" font-size="11.7" fill="#333">2.61%</text><text font-size="11.7" x="540.3" y="484.3" fill="#333"><tspan x="540.29" y="484.31">Czechia</tspan></text></g><g class="slope"><circle cx="235.06" cy="472.74" r="2" fill="#4C5C78" opacity=".5"/><path stroke="#4C5C78" stroke-width="2.5" opacity=".5" d="M235.06 472.74l259.88 4.01"/><circle cx="494.94" cy="476.75" r="2" fill="#4C5C78" opacity=".5"/></g><g class="slope"><circle cx="235.06" cy="448.17" r="2" fill="#4C5C78" opacity=".5"/><path stroke="#4C5C78" stroke-width="2.5" opacity=".5" d="M235.06 448.17l259.88-.51"/><circle cx="494.94" cy="447.66" r="2" fill="#4C5C78" opacity=".5"/></g><g class="slope"><circle cx="235.06" cy="429.1" r="2" fill="#4C5C78" opacity=".5"/><path stroke="#4C5C78" stroke-width="2.5" opacity=".5" d="M235.06 429.1l259.88-19.83"/><circle cx="494.94" cy="409.27" r="2" fill="#4C5C78" opacity=".5"/></g><g class="slope"><circle cx="235.06" cy="432.47" r="2" fill="#4C5C78" opacity=".5"/><path stroke="#4C5C78" stroke-width="2.5" opacity=".5" d="M235.06 432.47l259.88 18.58"/><circle cx="494.94" cy="451.05" r="2" fill="#4C5C78" opacity=".5"/></g><g class="slope"><circle cx="235.06" cy="387.69" r="2" fill="#4C5C78" opacity=".5"/><path stroke="#4C5C78" stroke-width="2.5" opacity=".5" d="M235.06 387.69l259.88 31.33"/><circle cx="494.94" cy="419.02" r="2" fill="#4C5C78" opacity=".5"/></g><g class="slope"><circle cx="235.06" cy="450.94" r="2" fill="#4C5C78" opacity=".5"/><path stroke="#4C5C78" stroke-width="2.5" opacity=".5" d="M235.06 450.94l259.88-18.43"/><circle cx="494.94" cy="432.51" r="2" fill="#4C5C78" opacity=".5"/></g><g class="slope"><circle cx="235.06" cy="437.56" r="2" fill="#4C5C78" opacity=".5"/><path stroke="#4C5C78" stroke-width="2.5" opacity=".5" d="M235.06 437.56l259.88 14.63"/><circle cx="494.94" cy="452.19" r="2" fill="#4C5C78" opacity=".5"/></g><g class="slope"><circle cx="235.06" cy="438.4" r="2" fill="#4C5C78" opacity=".5"/><path stroke="#4C5C78" stroke-width="2.5" opacity=".5" d="M235.06 438.4l259.88 13.62"/><circle cx="494.94" cy="452.02" r="2" fill="#4C5C78" opacity=".5"/></g><g class="slope"><circle cx="235.06" cy="457.94" r="2" fill="#4C5C78" opacity=".5"/><path stroke="#4C5C78" stroke-width="2.5" opacity=".5" d="M235.06 457.94l259.88 10.45"/><circle cx="494.94" cy="468.39" r="2" fill="#4C5C78" opacity=".5"/></g><g class="slope"><circle cx="235.06" cy="431.41" r="2" fill="#4C5C78" opacity=".5"/><path stroke="#4C5C78" stroke-width="2.5" opacity=".5" d="M235.06 431.41l259.88 29.09"/><circle cx="494.94" cy="460.5" r="2" fill="#4C5C78" opacity=".5"/></g><g class="slope"><circle cx="235.06" cy="422.79" r="2" fill="#4C5C78" opacity=".5"/><path stroke="#4C5C78" stroke-width="2.5" opacity=".5" d="M235.06 422.79l259.88 33.88"/><circle cx="494.94" cy="456.67" r="2" fill="#4C5C78" opacity=".5"/></g><g class="slope"><circle cx="235.06" cy="426.26" r="2" fill="#4C5C78" opacity=".5"/><path stroke="#4C5C78" stroke-width="2.5" opacity=".5" d="M235.06 426.26l259.88 32.86"/><circle cx="494.94" cy="459.12" r="2" fill="#4C5C78" opacity=".5"/></g><g class="slope"><circle cx="235.06" cy="409.77" r="2" fill="#4C5C78" opacity=".5"/><path stroke="#4C5C78" stroke-width="2.5" opacity=".5" d="M235.06 409.77l259.88 38.68"/><circle cx="494.94" cy="448.45" r="2" fill="#4C5C78" opacity=".5"/></g><g class="slope"><circle cx="235.06" cy="407.64" r="2" fill="#4C5C78" opacity=".5"/><path stroke="#4C5C78" stroke-width="2.5" opacity=".5" d="M235.06 407.64l259.88 24.6"/><circle cx="494.94" cy="432.24" r="2" fill="#4C5C78" opacity=".5"/></g><g class="slope"><circle cx="235.06" cy="352.61" r="2" fill="#4C5C78" opacity=".5"/><path stroke="#4C5C78" stroke-width="2.5" opacity=".5" d="M235.06 352.61l259.88 38.7"/><circle cx="494.94" cy="391.31" r="2" fill="#4C5C78" opacity=".5"/></g><g class="slope"><circle cx="235.06" cy="433.58" r="2" fill="#2D8587" opacity=".5"/><path stroke="#2D8587" stroke-width="2.5" opacity=".5" d="M235.06 433.58l259.88 10.52"/><circle cx="494.94" cy="444.1" r="2" fill="#2D8587" opacity=".5"/></g><g class="slope"><circle cx="235.06" cy="478.96" r="2" fill="#2D8587" opacity=".5"/><path stroke="#2D8587" stroke-width="2.5" opacity=".5" d="M235.06 478.96l259.88-5.37"/><circle cx="494.94" cy="473.59" r="2" fill="#2D8587" opacity=".5"/></g><g class="slope"><circle cx="235.06" cy="481.72" r="2" fill="#2D8587" opacity=".5"/><path stroke="#2D8587" stroke-width="2.5" opacity=".5" d="M235.06 481.72l259.88-4.35"/><circle cx="494.94" cy="477.37" r="2" fill="#2D8587" opacity=".5"/></g><g class="slope"><circle cx="235.06" cy="476.11" r="2" fill="#2D8587" opacity=".5"/><path stroke="#2D8587" stroke-width="2.5" opacity=".5" d="M235.06 476.11l259.88 2.05"/><circle cx="494.94" cy="478.16" r="2" fill="#2D8587" opacity=".5"/></g><g class="slope"><circle cx="235.06" cy="475.87" r="2" fill="#A8633C" opacity=".5"/><path stroke="#A8633C" stroke-width="2.5" opacity=".5" d="M235.06 475.87l259.88 2.96"/><circle cx="494.94" cy="478.83" r="2" fill="#A8633C" opacity=".5"/></g><g class="slope"><circle cx="235.06" cy="474.48" r="2" fill="#A8633C" opacity=".5"/><path stroke="#A8633C" stroke-width="2.5" opacity=".5" d="M235.06 474.48l259.88 2.9"/><circle cx="494.94" cy="477.38" r="2" fill="#A8633C" opacity=".5"/></g><g class="slope"><circle cx="235.06" cy="489.97" r="2" fill="#4C5C78" opacity=".5"/><path stroke="#4C5C78" stroke-width="2.5" opacity=".5" d="M235.06 489.97l259.88.31"/><circle cx="494.94" cy="490.28" r="2" fill="#4C5C78" opacity=".5"/></g><g class="slope"><circle cx="235.06" cy="489.35" r="2" fill="#4C5C78" opacity=".5"/><path stroke="#4C5C78" stroke-width="2.5" opacity=".5" d="M235.06 489.35l259.88.56"/><circle cx="494.94" cy="489.91" r="2" fill="#4C5C78" opacity=".5"/></g><g class="slope"><circle cx="235.06" cy="489.59" r="2" fill="#4C5C78" opacity=".5"/><path stroke="#4C5C78" stroke-width="2.5" opacity=".5" d="M235.06 489.59l259.88.45"/><circle cx="494.94" cy="490.04" r="2" fill="#4C5C78" opacity=".5"/></g><g class="slope"><circle cx="235.06" cy="488.67" r="2" fill="#4C5C78" opacity=".5"/><path stroke="#4C5C78" stroke-width="2.5" opacity=".5" d="M235.06 488.67l259.88.94"/><circle cx="494.94" cy="489.61" r="2" fill="#4C5C78" opacity=".5"/></g><g class="slope"><circle cx="235.06" cy="490.13" r="2" fill="#4C5C78" opacity=".5"/><path stroke="#4C5C78" stroke-width="2.5" opacity=".5" d="M235.06 490.13l259.88.2"/><circle cx="494.94" cy="490.33" r="2" fill="#4C5C78" opacity=".5"/></g><g class="slope"><circle cx="235.06" cy="489.54" r="2" fill="#4C5C78" opacity=".5"/><path stroke="#4C5C78" stroke-width="2.5" opacity=".5" d="M235.06 489.54l259.88.54"/><circle cx="494.94" cy="490.08" r="2" fill="#4C5C78" opacity=".5"/></g><g class="slope"><circle cx="235.06" cy="489" r="2" fill="#4C5C78" opacity=".5"/><path stroke="#4C5C78" stroke-width="2.5" opacity=".5" d="M235.06 489l259.88.58"/><circle cx="494.94" cy="489.58" r="2" fill="#4C5C78" opacity=".5"/></g><g class="slope"><text font-size="11.7" x="189.7" y="494.4" text-anchor="end" fill="#333"><tspan x="189.71" y="494.43">Germany</tspan></text><text x="227.06" y="494.43" text-anchor="end" font-size="11.7" fill="#333">1.02%</text><circle cx="235.06" cy="490.92" r="2" fill="#4C5C78" opacity=".5"/><path stroke="#4C5C78" stroke-width="2.5" opacity=".5" d="M235.06 490.92l259.88.28"/><circle cx="494.94" cy="491.2" r="2" fill="#4C5C78" opacity=".5"/></g><g class="slope"><circle cx="235.06" cy="488.45" r="2" fill="#4C5C78" opacity=".5"/><path stroke="#4C5C78" stroke-width="2.5" opacity=".5" d="M235.06 488.45l259.88.85"/><circle cx="494.94" cy="489.3" r="2" fill="#4C5C78" opacity=".5"/></g><g class="slope"><circle cx="235.06" cy="489.72" r="2" fill="#4C5C78" opacity=".5"/><path stroke="#4C5C78" stroke-width="2.5" opacity=".5" d="M235.06 489.72l259.88.6"/><circle cx="494.94" cy="490.32" r="2" fill="#4C5C78" opacity=".5"/></g><g class="slope"><circle cx="235.06" cy="488.96" r="2" fill="#4C5C78" opacity=".5"/><path stroke="#4C5C78" stroke-width="2.5" opacity=".5" d="M235.06 488.96l259.88.94"/><circle cx="494.94" cy="489.9" r="2" fill="#4C5C78" opacity=".5"/></g><g class="slope"><circle cx="235.06" cy="487.54" r="2" fill="#2D8587" opacity=".5"/><path stroke="#2D8587" stroke-width="2.5" opacity=".5" d="M235.06 487.54l259.88.6"/><circle cx="494.94" cy="488.14" r="2" fill="#2D8587" opacity=".5"/></g><g class="slope"><circle cx="235.06" cy="488.98" r="2" fill="#4C5C78" opacity=".5"/><path stroke="#4C5C78" stroke-width="2.5" opacity=".5" d="M235.06 488.98l259.88.54"/><circle cx="494.94" cy="489.52" r="2" fill="#4C5C78" opacity=".5"/></g><g class="slope"><circle cx="235.06" cy="490.19" r="2" fill="#4C5C78" opacity=".5"/><path stroke="#4C5C78" stroke-width="2.5" opacity=".5" d="M235.06 490.19l259.88.28"/><circle cx="494.94" cy="490.47" r="2" fill="#4C5C78" opacity=".5"/></g><g class="slope"><circle cx="235.06" cy="488.54" r="2" fill="#4C5C78" opacity=".5"/><path stroke="#4C5C78" stroke-width="2.5" opacity=".5" d="M235.06 488.54l259.88.77"/><circle cx="494.94" cy="489.31" r="2" fill="#4C5C78" opacity=".5"/></g><g class="slope"><circle cx="235.06" cy="489.75" r="2" fill="#4C5C78" opacity=".5"/><path stroke="#4C5C78" stroke-width="2.5" opacity=".5" d="M235.06 489.75l259.88.65"/><circle cx="494.94" cy="490.4" r="2" fill="#4C5C78" opacity=".5"/></g><g class="slope"><circle cx="235.06" cy="489.87" r="2" fill="#4C5C78" opacity=".5"/><path stroke="#4C5C78" stroke-width="2.5" opacity=".5" d="M235.06 489.87l259.88.41"/><circle cx="494.94" cy="490.28" r="2" fill="#4C5C78" opacity=".5"/></g><g class="slope"><circle cx="235.06" cy="486.66" r="2" fill="#4C5C78" opacity=".5"/><path stroke="#4C5C78" stroke-width="2.5" opacity=".5" d="M235.06 486.66l259.88 1.36"/><circle cx="494.94" cy="488.02" r="2" fill="#4C5C78" opacity=".5"/></g><g class="slope"><circle cx="235.06" cy="489.79" r="2" fill="#4C5C78" opacity=".5"/><path stroke="#4C5C78" stroke-width="2.5" opacity=".5" d="M235.06 489.79l259.88.86"/><circle cx="494.94" cy="490.65" r="2" fill="#4C5C78" opacity=".5"/></g><g class="slope"><circle cx="235.06" cy="489.38" r="2" fill="#4C5C78" opacity=".5"/><path stroke="#4C5C78" stroke-width="2.5" opacity=".5" d="M235.06 489.38l259.88.25"/><circle cx="494.94" cy="489.63" r="2" fill="#4C5C78" opacity=".5"/></g><g class="slope"><circle cx="235.06" cy="489.75" r="2" fill="#4C5C78" opacity=".5"/><path stroke="#4C5C78" stroke-width="2.5" opacity=".5" d="M235.06 489.75l259.88.35"/><circle cx="494.94" cy="490.1" r="2" fill="#4C5C78" opacity=".5"/></g><g class="slope"><circle cx="235.06" cy="477.23" r="2" fill="#4C5C78" opacity=".5"/><path stroke="#4C5C78" stroke-width="2.5" opacity=".5" d="M235.06 477.23l259.88 1.76"/><circle cx="494.94" cy="478.99" r="2" fill="#4C5C78" opacity=".5"/></g><g class="slope"><circle cx="235.06" cy="434.65" r="2" fill="#932834" opacity=".5"/><path stroke="#932834" stroke-width="2.5" opacity=".5" d="M235.06 434.65l259.88 19.96"/><circle cx="494.94" cy="454.61" r="2" fill="#932834" opacity=".5"/></g><g class="slope"><circle cx="235.06" cy="480.97" r="2" fill="#932834" opacity=".5"/><path stroke="#932834" stroke-width="2.5" opacity=".5" d="M235.06 480.97l259.88 2.58"/><circle cx="494.94" cy="483.55" r="2" fill="#932834" opacity=".5"/></g><g class="slope"><circle cx="235.06" cy="425.54" r="2" fill="#932834" opacity=".5"/><path stroke="#932834" stroke-width="2.5" opacity=".5" d="M235.06 425.54l259.88 14.04"/><circle cx="494.94" cy="439.58" r="2" fill="#932834" opacity=".5"/></g><g class="slope"><circle cx="235.06" cy="481.77" r="2" fill="#E04E4B" opacity=".5"/><path stroke="#E04E4B" stroke-width="2.5" opacity=".5" d="M235.06 481.77l259.88 2.36"/><circle cx="494.94" cy="484.13" r="2" fill="#E04E4B" opacity=".5"/></g><g class="slope"><circle cx="235.06" cy="481.94" r="2" fill="#E04E4B" opacity=".5"/><path stroke="#E04E4B" stroke-width="2.5" opacity=".5" d="M235.06 481.94l259.88 3.29"/><circle cx="494.94" cy="485.23" r="2" fill="#E04E4B" opacity=".5"/></g><g class="slope"><circle cx="235.06" cy="449.01" r="2" fill="#E04E4B" opacity=".5"/><path stroke="#E04E4B" stroke-width="2.5" opacity=".5" d="M235.06 449.01l259.88 4.73"/><circle cx="494.94" cy="453.74" r="2" fill="#E04E4B" opacity=".5"/></g><g class="slope"><circle cx="235.06" cy="454.04" r="2" fill="#E04E4B" opacity=".5"/><path stroke="#E04E4B" stroke-width="2.5" opacity=".5" d="M235.06 454.04l259.88-.03"/><circle cx="494.94" cy="454.01" r="2" fill="#E04E4B" opacity=".5"/></g><g class="slope"><circle cx="235.06" cy="448.95" r="2" fill="#E04E4B" opacity=".5"/><path stroke="#E04E4B" stroke-width="2.5" opacity=".5" d="M235.06 448.95l259.88 3.41"/><circle cx="494.94" cy="452.36" r="2" fill="#E04E4B" opacity=".5"/></g><g class="slope"><circle cx="235.06" cy="381.59" r="2" fill="#E04E4B" opacity=".5"/><path stroke="#E04E4B" stroke-width="2.5" opacity=".5" d="M235.06 381.59l259.88 27.55"/><circle cx="494.94" cy="409.14" r="2" fill="#E04E4B" opacity=".5"/></g><g class="slope"><circle cx="235.06" cy="460.74" r="2" fill="#E04E4B" opacity=".5"/><path stroke="#E04E4B" stroke-width="2.5" opacity=".5" d="M235.06 460.74l259.88-17.17"/><circle cx="494.94" cy="443.57" r="2" fill="#E04E4B" opacity=".5"/></g><g class="slope"><circle cx="235.06" cy="436.96" r="2" fill="#E04E4B" opacity=".5"/><path stroke="#E04E4B" stroke-width="2.5" opacity=".5" d="M235.06 436.96l259.88 7.78"/><circle cx="494.94" cy="444.74" r="2" fill="#E04E4B" opacity=".5"/></g><g class="slope"><circle cx="235.06" cy="432.62" r="2" fill="#E04E4B" opacity=".5"/><path stroke="#E04E4B" stroke-width="2.5" opacity=".5" d="M235.06 432.62l259.88 12.23"/><circle cx="494.94" cy="444.85" r="2" fill="#E04E4B" opacity=".5"/></g><g class="slope"><circle cx="235.06" cy="425.56" r="2" fill="#E04E4B" opacity=".5"/><path stroke="#E04E4B" stroke-width="2.5" opacity=".5" d="M235.06 425.56l259.88 17.07"/><circle cx="494.94" cy="442.63" r="2" fill="#E04E4B" opacity=".5"/></g><g class="slope"><circle cx="235.06" cy="406.46" r="2" fill="#932834" opacity=".5"/><path stroke="#932834" stroke-width="2.5" opacity=".5" d="M235.06 406.46l259.88 11.64"/><circle cx="494.94" cy="418.1" r="2" fill="#932834" opacity=".5"/></g><g class="slope"><circle cx="235.06" cy="310.68" r="2" fill="#E04E4B" opacity=".5"/><path stroke="#E04E4B" stroke-width="2.5" opacity=".5" d="M235.06 310.68l259.88 50.51"/><circle cx="494.94" cy="361.19" r="2" fill="#E04E4B" opacity=".5"/></g><g class="slope"><circle cx="235.06" cy="443.21" r="2" fill="#E04E4B" opacity=".5"/><path stroke="#E04E4B" stroke-width="2.5" opacity=".5" d="M235.06 443.21l259.88 12.83"/><circle cx="494.94" cy="456.04" r="2" fill="#E04E4B" opacity=".5"/></g><g class="slope"><circle cx="235.06" cy="472.03" r="2" fill="#E04E4B" opacity=".5"/><path stroke="#E04E4B" stroke-width="2.5" opacity=".5" d="M235.06 472.03l259.88 5.41"/><circle cx="494.94" cy="477.44" r="2" fill="#E04E4B" opacity=".5"/></g><g class="slope"><circle cx="235.06" cy="425.05" r="2" fill="#E04E4B" opacity=".5"/><path stroke="#E04E4B" stroke-width="2.5" opacity=".5" d="M235.06 425.05l259.88 11.22"/><circle cx="494.94" cy="436.27" r="2" fill="#E04E4B" opacity=".5"/></g><g class="slope"><circle cx="235.06" cy="407.11" r="2" fill="#932834" opacity=".5"/><path stroke="#932834" stroke-width="2.5" opacity=".5" d="M235.06 407.11l259.88 36.09"/><circle cx="494.94" cy="443.2" r="2" fill="#932834" opacity=".5"/></g><g class="slope"><circle cx="235.06" cy="481.16" r="2" fill="#E04E4B" opacity=".5"/><path stroke="#E04E4B" stroke-width="2.5" opacity=".5" d="M235.06 481.16l259.88 6.65"/><circle cx="494.94" cy="487.81" r="2" fill="#E04E4B" opacity=".5"/></g><g class="slope"><circle cx="235.06" cy="278.65" r="2" fill="#932834" opacity=".5"/><path stroke="#932834" stroke-width="2.5" opacity=".5" d="M235.06 278.65l259.88 107.43"/><circle cx="494.94" cy="386.08" r="2" fill="#932834" opacity=".5"/></g><g class="slope"><circle cx="235.06" cy="304.57" r="2" fill="#932834" opacity=".5"/><path stroke="#932834" stroke-width="2.5" opacity=".5" d="M235.06 304.57l259.88 63.39"/><circle cx="494.94" cy="367.96" r="2" fill="#932834" opacity=".5"/></g><g class="slope"><circle cx="235.06" cy="301.13" r="2" fill="#932834" opacity=".5"/><path stroke="#932834" stroke-width="2.5" opacity=".5" d="M235.06 301.13l259.88 79.92"/><circle cx="494.94" cy="381.05" r="2" fill="#932834" opacity=".5"/><text x="502.94" y="384.56" font-size="11.7" fill="#333">18.27%</text><text font-size="11.7" x="546.8" y="384.6" fill="#333"><tspan x="546.84" y="384.56">Peru</tspan></text></g><g class="slope"><circle cx="235.06" cy="380" r="2" fill="#932834" opacity=".5"/><path stroke="#932834" stroke-width="2.5" opacity=".5" d="M235.06 380l259.88 47.44"/><circle cx="494.94" cy="427.44" r="2" fill="#932834" opacity=".5"/></g><g class="slope"><circle cx="235.06" cy="446.46" r="2" fill="#E04E4B" opacity=".5"/><path stroke="#E04E4B" stroke-width="2.5" opacity=".5" d="M235.06 446.46l259.88 11.28"/><circle cx="494.94" cy="457.74" r="2" fill="#E04E4B" opacity=".5"/></g><g class="slope"><circle cx="235.06" cy="293.08" r="2" fill="#E04E4B" opacity=".5"/><path stroke="#E04E4B" stroke-width="2.5" opacity=".5" d="M235.06 293.08l259.88 115.28"/><circle cx="494.94" cy="408.36" r="2" fill="#E04E4B" opacity=".5"/></g><g class="slope"><circle cx="235.06" cy="158.85" r="2" fill="#E04E4B" opacity=".5"/><path stroke="#E04E4B" stroke-width="2.5" opacity=".5" d="M235.06 158.85l259.88 53.41"/><circle cx="494.94" cy="212.26" r="2" fill="#E04E4B" opacity=".5"/></g><g class="slope"><circle cx="235.06" cy="237.87" r="2" fill="#E04E4B" opacity=".5"/><path stroke="#E04E4B" stroke-width="2.5" opacity=".5" d="M235.06 237.87l259.88 115.54"/><circle cx="494.94" cy="353.41" r="2" fill="#E04E4B" opacity=".5"/></g><g class="slope"><text font-size="11.7" x="183.2" y="386.6" text-anchor="end" fill="#333"><tspan x="183.16" y="386.61">Mexico</tspan></text><text x="227.06" y="386.61" text-anchor="end" font-size="11.7" fill="#333">17.95%</text><circle cx="235.06" cy="383.1" r="2" fill="#E04E4B" opacity=".5"/><path stroke="#E04E4B" stroke-width="2.5" opacity=".5" d="M235.06 383.1l259.88 35.11"/><circle cx="494.94" cy="418.21" r="2" fill="#E04E4B" opacity=".5"/></g><g class="slope"><circle cx="235.06" cy="333.66" r="2" fill="#E04E4B" opacity=".5"/><path stroke="#E04E4B" stroke-width="2.5" opacity=".5" d="M235.06 333.66l259.88 60.08"/><circle cx="494.94" cy="393.74" r="2" fill="#E04E4B" opacity=".5"/></g><g class="slope"><circle cx="235.06" cy="336.19" r="2" fill="#E04E4B" opacity=".5"/><path stroke="#E04E4B" stroke-width="2.5" opacity=".5" d="M235.06 336.19l259.88 60.43"/><circle cx="494.94" cy="396.62" r="2" fill="#E04E4B" opacity=".5"/></g><g class="slope"><circle cx="235.06" cy="393.3" r="2" fill="#932834" opacity=".5"/><path stroke="#932834" stroke-width="2.5" opacity=".5" d="M235.06 393.3l259.88 35.72"/><circle cx="494.94" cy="429.02" r="2" fill="#932834" opacity=".5"/></g><g class="slope"><circle cx="235.06" cy="422.03" r="2" fill="#932834" opacity=".5"/><path stroke="#932834" stroke-width="2.5" opacity=".5" d="M235.06 422.03l259.88 37.16"/><circle cx="494.94" cy="459.19" r="2" fill="#932834" opacity=".5"/></g><g class="slope"><circle cx="235.06" cy="402.95" r="2" fill="#932834" opacity=".5"/><path stroke="#932834" stroke-width="2.5" opacity=".5" d="M235.06 402.95l259.88 49.58"/><circle cx="494.94" cy="452.53" r="2" fill="#932834" opacity=".5"/></g><g class="slope"><circle cx="235.06" cy="280.26" r="2" fill="#923E8B" opacity=".5"/><path stroke="#923E8B" stroke-width="2.5" opacity=".5" d="M235.06 280.26l259.88 146.23"/><circle cx="494.94" cy="426.49" r="2" fill="#923E8B" opacity=".5"/></g><g class="slope"><circle cx="235.06" cy="441.32" r="2" fill="#2D8587" opacity=".5"/><path stroke="#2D8587" stroke-width="2.5" opacity=".5" d="M235.06 441.32l259.88 37.41"/><circle cx="494.94" cy="478.73" r="2" fill="#2D8587" opacity=".5"/></g><g class="slope"><circle cx="235.06" cy="328.63" r="2" fill="#923E8B" opacity=".5"/><path stroke="#923E8B" stroke-width="2.5" opacity=".5" d="M235.06 328.63l259.88 42.46"/><circle cx="494.94" cy="371.09" r="2" fill="#923E8B" opacity=".5"/></g><g class="slope"><circle cx="235.06" cy="381.19" r="2" fill="#2D8587" opacity=".5"/><path stroke="#2D8587" stroke-width="2.5" opacity=".5" d="M235.06 381.19l259.88 66.19"/><circle cx="494.94" cy="447.38" r="2" fill="#2D8587" opacity=".5"/></g><g class="slope"><circle cx="235.06" cy="314.32" r="2" fill="#2D8587" opacity=".5"/><path stroke="#2D8587" stroke-width="2.5" opacity=".5" d="M235.06 314.32l259.88 28.04"/><circle cx="494.94" cy="342.36" r="2" fill="#2D8587" opacity=".5"/><text x="502.94" y="345.87" font-size="11.7" fill="#333">24.35%</text><text font-size="11.7" x="546.8" y="345.9" fill="#333"><tspan x="546.84" y="345.87">Iraq</tspan></text></g><g class="slope"><circle cx="235.06" cy="422.07" r="2" fill="#2D8587" opacity=".5"/><path stroke="#2D8587" stroke-width="2.5" opacity=".5" d="M235.06 422.07l259.88 23.23"/><circle cx="494.94" cy="445.3" r="2" fill="#2D8587" opacity=".5"/></g><g class="slope"><circle cx="235.06" cy="463.64" r="2" fill="#2D8587" opacity=".5"/><path stroke="#2D8587" stroke-width="2.5" opacity=".5" d="M235.06 463.64l259.88 14.79"/><circle cx="494.94" cy="478.43" r="2" fill="#2D8587" opacity=".5"/></g><g class="slope"><circle cx="235.06" cy="381.8" r="2" fill="#2D8587" opacity=".5"/><path stroke="#2D8587" stroke-width="2.5" opacity=".5" d="M235.06 381.8l259.88 38.04"/><circle cx="494.94" cy="419.84" r="2" fill="#2D8587" opacity=".5"/></g><g class="slope"><circle cx="235.06" cy="373.6" r="2" fill="#923E8B" opacity=".5"/><path stroke="#923E8B" stroke-width="2.5" opacity=".5" d="M235.06 373.6l259.88 28.9"/><circle cx="494.94" cy="402.5" r="2" fill="#923E8B" opacity=".5"/></g><g class="slope"><circle cx="235.06" cy="339.22" r="2" fill="#923E8B" opacity=".5"/><path stroke="#923E8B" stroke-width="2.5" opacity=".5" d="M235.06 339.22l259.88 50.29"/><circle cx="494.94" cy="389.51" r="2" fill="#923E8B" opacity=".5"/></g><g class="slope"><circle cx="235.06" cy="422.81" r="2" fill="#2D8587" opacity=".5"/><path stroke="#2D8587" stroke-width="2.5" opacity=".5" d="M235.06 422.81l259.88 17.45"/><circle cx="494.94" cy="440.26" r="2" fill="#2D8587" opacity=".5"/></g><g class="slope"><circle cx="235.06" cy="409.53" r="2" fill="#2D8587" opacity=".5"/><path stroke="#2D8587" stroke-width="2.5" opacity=".5" d="M235.06 409.53l259.88 14.48"/><circle cx="494.94" cy="424.01" r="2" fill="#2D8587" opacity=".5"/></g><g class="slope"><circle cx="235.06" cy="435.69" r="2" fill="#2D8587" opacity=".5"/><path stroke="#2D8587" stroke-width="2.5" opacity=".5" d="M235.06 435.69l259.88 15.03"/><circle cx="494.94" cy="450.72" r="2" fill="#2D8587" opacity=".5"/></g><g class="slope"><circle cx="235.06" cy="404.11" r="2" fill="#2D8587" opacity=".5"/><path stroke="#2D8587" stroke-width="2.5" opacity=".5" d="M235.06 404.11l259.88 51.06"/><circle cx="494.94" cy="455.17" r="2" fill="#2D8587" opacity=".5"/></g><g class="slope"><circle cx="235.06" cy="292.74" r="2" fill="#2D8587" opacity=".5"/><path stroke="#2D8587" stroke-width="2.5" opacity=".5" d="M235.06 292.74l259.88 55.68"/><circle cx="494.94" cy="348.42" r="2" fill="#2D8587" opacity=".5"/></g><g class="slope"><circle cx="235.06" cy="398.05" r="2" fill="#923E8B" opacity=".5"/><path stroke="#923E8B" stroke-width="2.5" opacity=".5" d="M235.06 398.05l259.88 44.11"/><circle cx="494.94" cy="442.16" r="2" fill="#923E8B" opacity=".5"/></g><g class="slope"><circle cx="235.06" cy="390.95" r="2" fill="#2D8587" opacity=".5"/><path stroke="#2D8587" stroke-width="2.5" opacity=".5" d="M235.06 390.95l259.88 43.73"/><circle cx="494.94" cy="434.68" r="2" fill="#2D8587" opacity=".5"/></g><g class="slope"><circle cx="235.06" cy="399.08" r="2" fill="#2D8587" opacity=".5"/><path stroke="#2D8587" stroke-width="2.5" opacity=".5" d="M235.06 399.08l259.88 29.03"/><circle cx="494.94" cy="428.11" r="2" fill="#2D8587" opacity=".5"/></g><g class="slope"><text font-size="11.7" x="183.2" y="146.6" text-anchor="end" fill="#333"><tspan x="183.16" y="146.61">Yemen</tspan></text><text x="227.06" y="146.61" text-anchor="end" font-size="11.7" fill="#333">55.65%</text><circle cx="235.06" cy="143.1" r="2" fill="#2D8587" opacity=".5"/><path stroke="#2D8587" stroke-width="2.5" opacity=".5" d="M235.06 143.1l259.88 72.06"/><circle cx="494.94" cy="215.16" r="2" fill="#2D8587" opacity=".5"/><text x="502.94" y="218.67" font-size="11.7" fill="#333">44.33%</text><text font-size="11.7" x="546.8" y="218.7" fill="#333"><tspan x="546.84" y="218.67">Yemen</tspan></text></g><g class="slope"><text font-size="11.7" x="183.2" y="94.8" text-anchor="end" fill="#333"><tspan x="183.16" y="94.81">Afghanistan</tspan></text><text x="227.06" y="94.81" text-anchor="end" font-size="11.7" fill="#333">63.78%</text><circle cx="235.06" cy="91.3" r="2" fill="#2D8587" opacity=".5"/><path stroke="#2D8587" stroke-width="2.5" opacity=".5" d="M235.06 91.3l259.88 68.15"/><circle cx="494.94" cy="159.45" r="2" fill="#2D8587" opacity=".5"/><text x="502.94" y="162.96" font-size="11.7" fill="#333">53.08%</text><text font-size="11.7" x="546.8" y="163" fill="#333"><tspan x="546.84" y="162.96">Afghanistan</tspan></text></g><g class="slope"><text font-size="11.7" x="183.2" y="133" text-anchor="end" fill="#333"><tspan x="183.16" y="133.01">Bangladesh</tspan></text><text x="227.06" y="133.01" text-anchor="end" font-size="11.7" fill="#333">57.78%</text><circle cx="235.06" cy="129.5" r="2" fill="#2D8587" opacity=".5"/><path stroke="#2D8587" stroke-width="2.5" opacity=".5" d="M235.06 129.5l259.88 130.67"/><circle cx="494.94" cy="260.17" r="2" fill="#2D8587" opacity=".5"/><text x="502.94" y="263.68" font-size="11.7" fill="#333">37.26%</text><text font-size="11.7" x="546.8" y="263.7" fill="#333"><tspan x="546.84" y="263.68">Bangladesh</tspan></text></g><g class="slope"><circle cx="235.06" cy="158.58" r="2" fill="#2D8587" opacity=".5"/><path stroke="#2D8587" stroke-width="2.5" opacity=".5" d="M235.06 158.58l259.88 160.43"/><circle cx="494.94" cy="319.01" r="2" fill="#2D8587" opacity=".5"/></g><g class="slope"><circle cx="235.06" cy="167.77" r="2" fill="#2D8587" opacity=".5"/><path stroke="#2D8587" stroke-width="2.5" opacity=".5" d="M235.06 167.77l259.88 61.33"/><circle cx="494.94" cy="229.1" r="2" fill="#2D8587" opacity=".5"/><text x="502.94" y="232.61" font-size="11.7" fill="#333">42.14%</text><text font-size="11.7" x="546.8" y="232.6" fill="#333"><tspan x="546.84" y="232.61">India</tspan></text></g><g class="slope"><circle cx="235.06" cy="111.1" r="2" fill="#2D8587" opacity=".5"/><path stroke="#2D8587" stroke-width="2.5" opacity=".5" d="M235.06 111.1l259.88 162.75"/><circle cx="494.94" cy="273.85" r="2" fill="#2D8587" opacity=".5"/><text x="502.94" y="277.36" font-size="11.7" fill="#333">35.11%</text><text font-size="11.7" x="546.8" y="277.4" fill="#333"><tspan x="546.84" y="277.36">Nepal</tspan></text></g><g class="slope"><text font-size="11.7" x="183.2" y="198.1" text-anchor="end" fill="#333"><tspan x="183.16" y="198.12">Pakistan</tspan></text><text x="227.06" y="198.12" text-anchor="end" font-size="11.7" fill="#333">47.56%</text><circle cx="235.06" cy="194.61" r="2" fill="#2D8587" opacity=".5"/><path stroke="#2D8587" stroke-width="2.5" opacity=".5" d="M235.06 194.61l259.88 37.55"/><circle cx="494.94" cy="232.16" r="2" fill="#2D8587" opacity=".5"/></g><g class="slope"><circle cx="235.06" cy="167.73" r="2" fill="#923E8B" opacity=".5"/><path stroke="#923E8B" stroke-width="2.5" opacity=".5" d="M235.06 167.73l259.88 137.76"/><circle cx="494.94" cy="305.49" r="2" fill="#923E8B" opacity=".5"/></g><g class="slope"><circle cx="235.06" cy="204.39" r="2" fill="#923E8B" opacity=".5"/><path stroke="#923E8B" stroke-width="2.5" opacity=".5" d="M235.06 204.39l259.88 48.19"/><circle cx="494.94" cy="252.58" r="2" fill="#923E8B" opacity=".5"/></g><g class="slope"><circle cx="235.06" cy="325.26" r="2" fill="#923E8B" opacity=".5"/><path stroke="#923E8B" stroke-width="2.5" opacity=".5" d="M235.06 325.26l259.88 44.42"/><circle cx="494.94" cy="369.68" r="2" fill="#923E8B" opacity=".5"/></g><g class="slope"><circle cx="235.06" cy="210.54" r="2" fill="#923E8B" opacity=".5"/><path stroke="#923E8B" stroke-width="2.5" opacity=".5" d="M235.06 210.54l259.88 42.51"/><circle cx="494.94" cy="253.05" r="2" fill="#923E8B" opacity=".5"/></g><g class="slope"><circle cx="235.06" cy="194.67" r="2" fill="#923E8B" opacity=".5"/><path stroke="#923E8B" stroke-width="2.5" opacity=".5" d="M235.06 194.67l259.88 168.45"/><circle cx="494.94" cy="363.12" r="2" fill="#923E8B" opacity=".5"/></g><g class="slope"><circle cx="235.06" cy="333.12" r="2" fill="#923E8B" opacity=".5"/><path stroke="#923E8B" stroke-width="2.5" opacity=".5" d="M235.06 333.12l259.88 60.09"/><circle cx="494.94" cy="393.21" r="2" fill="#923E8B" opacity=".5"/></g><g class="slope"><circle cx="235.06" cy="121.67" r="2" fill="#923E8B" opacity=".5"/><path stroke="#923E8B" stroke-width="2.5" opacity=".5" d="M235.06 121.67l259.88 51.92"/><circle cx="494.94" cy="173.59" r="2" fill="#923E8B" opacity=".5"/><text x="502.94" y="177.1" font-size="11.7" fill="#333">50.86%</text><text font-size="11.7" x="546.8" y="177.1" fill="#333"><tspan x="546.84" y="177.1">Burundi</tspan></text></g><g class="slope"><circle cx="235.06" cy="193" r="2" fill="#923E8B" opacity=".5"/><path stroke="#923E8B" stroke-width="2.5" opacity=".5" d="M235.06 193l259.88 115.66"/><circle cx="494.94" cy="308.66" r="2" fill="#923E8B" opacity=".5"/></g><g class="slope"><circle cx="235.06" cy="302.4" r="2" fill="#923E8B" opacity=".5"/><path stroke="#923E8B" stroke-width="2.5" opacity=".5" d="M235.06 302.4l259.88 22.41"/><circle cx="494.94" cy="324.81" r="2" fill="#923E8B" opacity=".5"/></g><g class="slope"><circle cx="235.06" cy="202.43" r="2" fill="#923E8B" opacity=".5"/><path stroke="#923E8B" stroke-width="2.5" opacity=".5" d="M235.06 202.43l259.88 101.02"/><circle cx="494.94" cy="303.45" r="2" fill="#923E8B" opacity=".5"/></g><g class="slope"><circle cx="235.06" cy="181.47" r="2" fill="#923E8B" opacity=".5"/><path stroke="#923E8B" stroke-width="2.5" opacity=".5" d="M235.06 181.47l259.88 52.09"/><circle cx="494.94" cy="233.56" r="2" fill="#923E8B" opacity=".5"/></g><g class="slope"><circle cx="235.06" cy="250.66" r="2" fill="#923E8B" opacity=".5"/><path stroke="#923E8B" stroke-width="2.5" opacity=".5" d="M235.06 250.66l259.88 94.35"/><circle cx="494.94" cy="345.01" r="2" fill="#923E8B" opacity=".5"/></g><g class="slope"><circle cx="235.06" cy="176.7" r="2" fill="#923E8B" opacity=".5"/><path stroke="#923E8B" stroke-width="2.5" opacity=".5" d="M235.06 176.7l259.88 35.8"/><circle cx="494.94" cy="212.5" r="2" fill="#923E8B" opacity=".5"/></g><g class="slope"><circle cx="235.06" cy="151.84" r="2" fill="#923E8B" opacity=".5"/><path stroke="#923E8B" stroke-width="2.5" opacity=".5" d="M235.06 151.84l259.88 110.04"/><circle cx="494.94" cy="261.88" r="2" fill="#923E8B" opacity=".5"/></g><g class="slope"><circle cx="235.06" cy="417.81" r="2" fill="#923E8B" opacity=".5"/><path stroke="#923E8B" stroke-width="2.5" opacity=".5" d="M235.06 417.81l259.88 16.06"/><circle cx="494.94" cy="433.87" r="2" fill="#923E8B" opacity=".5"/></g><g class="slope"><circle cx="235.06" cy="191.81" r="2" fill="#923E8B" opacity=".5"/><path stroke="#923E8B" stroke-width="2.5" opacity=".5" d="M235.06 191.81l259.88 115.95"/><circle cx="494.94" cy="307.76" r="2" fill="#923E8B" opacity=".5"/></g><g class="slope"><circle cx="235.06" cy="189.04" r="2" fill="#923E8B" opacity=".5"/><path stroke="#923E8B" stroke-width="2.5" opacity=".5" d="M235.06 189.04l259.88 80.49"/><circle cx="494.94" cy="269.53" r="2" fill="#923E8B" opacity=".5"/></g><g class="slope"><circle cx="235.06" cy="443.33" r="2" fill="#923E8B" opacity=".5"/><path stroke="#923E8B" stroke-width="2.5" opacity=".5" d="M235.06 443.33l259.88-3.22"/><circle cx="494.94" cy="440.11" r="2" fill="#923E8B" opacity=".5"/></g><g class="slope"><circle cx="235.06" cy="287.65" r="2" fill="#923E8B" opacity=".5"/><path stroke="#923E8B" stroke-width="2.5" opacity=".5" d="M235.06 287.65l259.88 18.27"/><circle cx="494.94" cy="305.92" r="2" fill="#923E8B" opacity=".5"/></g><g class="slope"><circle cx="235.06" cy="180.52" r="2" fill="#923E8B" opacity=".5"/><path stroke="#923E8B" stroke-width="2.5" opacity=".5" d="M235.06 180.52l259.88 102.05"/><circle cx="494.94" cy="282.57" r="2" fill="#923E8B" opacity=".5"/></g><g class="slope"><circle cx="235.06" cy="205.07" r="2" fill="#923E8B" opacity=".5"/><path stroke="#923E8B" stroke-width="2.5" opacity=".5" d="M235.06 205.07l259.88 104.56"/><circle cx="494.94" cy="309.63" r="2" fill="#923E8B" opacity=".5"/></g><g class="slope"><circle cx="235.06" cy="141.92" r="2" fill="#923E8B" opacity=".5"/><path stroke="#923E8B" stroke-width="2.5" opacity=".5" d="M235.06 141.92l259.88 96.57"/><circle cx="494.94" cy="238.49" r="2" fill="#923E8B" opacity=".5"/></g><g class="slope"><circle cx="235.06" cy="308.38" r="2" fill="#923E8B" opacity=".5"/><path stroke="#923E8B" stroke-width="2.5" opacity=".5" d="M235.06 308.38l259.88 41.23"/><circle cx="494.94" cy="349.61" r="2" fill="#923E8B" opacity=".5"/></g><g class="slope"><circle cx="235.06" cy="161.71" r="2" fill="#923E8B" opacity=".5"/><path stroke="#923E8B" stroke-width="2.5" opacity=".5" d="M235.06 161.71l259.88 133.68"/><circle cx="494.94" cy="295.39" r="2" fill="#923E8B" opacity=".5"/></g><g class="slope"><circle cx="235.06" cy="311.36" r="2" fill="#923E8B" opacity=".5"/><path stroke="#923E8B" stroke-width="2.5" opacity=".5" d="M235.06 311.36l259.88 52.69"/><circle cx="494.94" cy="364.05" r="2" fill="#923E8B" opacity=".5"/></g><g class="slope"><circle cx="235.06" cy="326.36" r="2" fill="#923E8B" opacity=".5"/><path stroke="#923E8B" stroke-width="2.5" opacity=".5" d="M235.06 326.36l259.88 48.1"/><circle cx="494.94" cy="374.46" r="2" fill="#923E8B" opacity=".5"/></g><g class="slope"><circle cx="235.06" cy="266.12" r="2" fill="#923E8B" opacity=".5"/><path stroke="#923E8B" stroke-width="2.5" opacity=".5" d="M235.06 266.12l259.88 65.6"/><circle cx="494.94" cy="331.72" r="2" fill="#923E8B" opacity=".5"/></g><g class="slope"><circle cx="235.06" cy="294.03" r="2" fill="#923E8B" opacity=".5"/><path stroke="#923E8B" stroke-width="2.5" opacity=".5" d="M235.06 294.03l259.88 32.52"/><circle cx="494.94" cy="326.55" r="2" fill="#923E8B" opacity=".5"/></g><g class="slope"><circle cx="235.06" cy="236.5" r="2" fill="#923E8B" opacity=".5"/><path stroke="#923E8B" stroke-width="2.5" opacity=".5" d="M235.06 236.5l259.88 55.56"/><circle cx="494.94" cy="292.06" r="2" fill="#923E8B" opacity=".5"/></g><g class="slope"><circle cx="235.06" cy="182.43" r="2" fill="#923E8B" opacity=".5"/><path stroke="#923E8B" stroke-width="2.5" opacity=".5" d="M235.06 182.43l259.88 121.55"/><circle cx="494.94" cy="303.98" r="2" fill="#923E8B" opacity=".5"/></g><g class="slope"><circle cx="235.06" cy="280.49" r="2" fill="#923E8B" opacity=".5"/><path stroke="#923E8B" stroke-width="2.5" opacity=".5" d="M235.06 280.49l259.88 27.57"/><circle cx="494.94" cy="308.06" r="2" fill="#923E8B" opacity=".5"/></g><g class="slope"><circle cx="235.06" cy="380.67" r="2" fill="#923E8B" opacity=".5"/><path stroke="#923E8B" stroke-width="2.5" opacity=".5" d="M235.06 380.67l259.88 46.56"/><circle cx="494.94" cy="427.23" r="2" fill="#923E8B" opacity=".5"/></g><g class="slope"><circle cx="235.06" cy="230.32" r="2" fill="#923E8B" opacity=".5"/><path stroke="#923E8B" stroke-width="2.5" opacity=".5" d="M235.06 230.32l259.88 33.96"/><circle cx="494.94" cy="264.28" r="2" fill="#923E8B" opacity=".5"/></g><g class="slope"><circle cx="235.06" cy="281.45" r="2" fill="#923E8B" opacity=".5"/><path stroke="#923E8B" stroke-width="2.5" opacity=".5" d="M235.06 281.45l259.88 29.66"/><circle cx="494.94" cy="311.11" r="2" fill="#923E8B" opacity=".5"/></g><g class="slope"><circle cx="235.06" cy="326.66" r="2" fill="#923E8B" opacity=".5"/><path stroke="#923E8B" stroke-width="2.5" opacity=".5" d="M235.06 326.66l259.88 27.71"/><circle cx="494.94" cy="354.37" r="2" fill="#923E8B" opacity=".5"/></g><g class="slope"><circle cx="235.06" cy="286.12" r="2" fill="#923E8B" opacity=".5"/><path stroke="#923E8B" stroke-width="2.5" opacity=".5" d="M235.06 286.12l259.88 95.08"/><circle cx="494.94" cy="381.2" r="2" fill="#923E8B" opacity=".5"/></g><g class="slope"><circle cx="235.06" cy="250.27" r="2" fill="#923E8B" opacity=".5"/><path stroke="#923E8B" stroke-width="2.5" opacity=".5" d="M235.06 250.27L494.94 303"/><circle cx="494.94" cy="303" r="2" fill="#923E8B" opacity=".5"/></g><g class="slope"><circle cx="235.06" cy="250.86" r="2" fill="#923E8B" opacity=".5"/><path stroke="#923E8B" stroke-width="2.5" opacity=".5" d="M235.06 250.86l259.88 72.41"/><circle cx="494.94" cy="323.27" r="2" fill="#923E8B" opacity=".5"/></g><g class="slope"><circle cx="235.06" cy="163.74" r="2" fill="#923E8B" opacity=".5"/><path stroke="#923E8B" stroke-width="2.5" opacity=".5" d="M235.06 163.74l259.88 132.93"/><circle cx="494.94" cy="296.67" r="2" fill="#923E8B" opacity=".5"/></g><g class="slope"><circle cx="235.06" cy="238.77" r="2" fill="#923E8B" opacity=".5"/><path stroke="#923E8B" stroke-width="2.5" opacity=".5" d="M235.06 238.77l259.88 99.99"/><circle cx="494.94" cy="338.76" r="2" fill="#923E8B" opacity=".5"/></g><g class="slope"><circle cx="235.06" cy="229.31" r="2" fill="#923E8B" opacity=".5"/><path stroke="#923E8B" stroke-width="2.5" opacity=".5" d="M235.06 229.31l259.88 109.14"/><circle cx="494.94" cy="338.45" r="2" fill="#923E8B" opacity=".5"/></g><g class="slope"><circle cx="235.06" cy="151.49" r="2" fill="#923E8B" opacity=".5"/><path stroke="#923E8B" stroke-width="2.5" opacity=".5" d="M235.06 151.49l259.88 62.27"/><circle cx="494.94" cy="213.76" r="2" fill="#923E8B" opacity=".5"/></g><g class="slope"><circle cx="235.06" cy="196.59" r="2" fill="#923E8B" opacity=".5"/><path stroke="#923E8B" stroke-width="2.5" opacity=".5" d="M235.06 196.59l259.88 87.73"/><circle cx="494.94" cy="284.32" r="2" fill="#923E8B" opacity=".5"/></g><g class="slope"><circle cx="235.06" cy="263.62" r="2" fill="#923E8B" opacity=".5"/><path stroke="#923E8B" stroke-width="2.5" opacity=".5" d="M235.06 263.62l259.88 127.76"/><circle cx="494.94" cy="391.38" r="2" fill="#923E8B" opacity=".5"/></g><g class="slope"><circle cx="235.06" cy="300.54" r="2" fill="#923E8B" opacity=".5"/><path stroke="#923E8B" stroke-width="2.5" opacity=".5" d="M235.06 300.54l259.88 77"/><circle cx="494.94" cy="377.54" r="2" fill="#923E8B" opacity=".5"/></g><g class="slope"><circle cx="235.06" cy="245.32" r="2" fill="#923E8B" opacity=".5"/><path stroke="#923E8B" stroke-width="2.5" opacity=".5" d="M235.06 245.32l259.88 17.78"/><circle cx="494.94" cy="263.1" r="2" fill="#923E8B" opacity=".5"/></g><g class="slope"><circle cx="235.06" cy="287.56" r="2" fill="#923E8B" opacity=".5"/><path stroke="#923E8B" stroke-width="2.5" opacity=".5" d="M235.06 287.56l259.88 81.62"/><circle cx="494.94" cy="369.18" r="2" fill="#923E8B" opacity=".5"/><text x="502.94" y="372.69" font-size="11.7" fill="#333">20.14%</text><text font-size="11.7" x="546.8" y="372.7" fill="#333"><tspan x="546.84" y="372.69">Togo</tspan></text></g><g class="slope"><circle cx="235.06" cy="217.87" r="2" fill="#923E8B" opacity=".5"/><path stroke="#923E8B" stroke-width="2.5" opacity=".5" d="M235.06 217.87l259.88 74.2"/><circle cx="494.94" cy="292.07" r="2" fill="#923E8B" opacity=".5"/></g><g class="slope"><circle cx="235.06" cy="207.86" r="2" fill="#923E8B" opacity=".5"/><path stroke="#923E8B" stroke-width="2.5" opacity=".5" d="M235.06 207.86l259.88 83.55"/><circle cx="494.94" cy="291.41" r="2" fill="#923E8B" opacity=".5"/></g></g></g><g class="ScatterColorLegend clickable" cursor="pointer"><g class="legendMark"><path fill="#923E8B" d="M735 93.1h9v9h-9z"/><text font-size="12.6" x="749" y="101.4"><tspan x="749" y="101.38">Africa</tspan></text></g><g class="legendMark"><path fill="#2D8587" d="M735 110.7h9v9h-9z"/><text font-size="12.6" x="749" y="119"><tspan x="749" y="118.98">Asia</tspan></text></g><g class="legendMark"><path fill="#4C5C78" d="M735 128.3h9v9h-9z"/><text font-size="12.6" x="749" y="136.6"><tspan x="749" y="136.58">Europe</tspan></text></g><g class="legendMark"><path fill="#E04E4B" d="M735 145.9h9v9h-9z"/><text font-size="12.6" x="749" y="154.2"><tspan x="749" y="154.18">North America</tspan></text></g><g class="legendMark"><path fill="#A8633C" d="M735 163.5h9v9h-9z"/><text font-size="12.6" x="749" y="171.8"><tspan x="749" y="171.78">Oceania</tspan></text></g><g class="legendMark"><path fill="#932834" d="M735 181.1h9v9h-9z"/><text font-size="12.6" x="749" y="189.4"><tspan x="749" y="189.38">South America</tspan></text></g></g></g><g class="SourcesFooter" fill="#777"><g fill="#777"><text font-size="12.6" x="15" y="582.5"><tspan x="15" y="582.48">Source: Institute for Health Metrics and Evaluation (IHME)</tspan></text></g><text font-size="12.6" x="796.4" y="582.5"><tspan x="796.44" y="582.48"><a class="cclogo" href="http://creativecommons.org/licenses/by/4.0/deed.en_US" target="_blank" fill="#777">CC BY</a></tspan></text></g></svg>