<svg xmlns="http://www.w3.org/2000/svg" version="1.1" style="font-family:Lato,'Helvetica Neue',Helvetica,Arial,sans-serif;font-size:18px;background-color:#fff;text-rendering:geometricPrecision;-webkit-font-smoothing:antialiased" width="850" height="600" viewBox="0 0 850 600"><g class="HeaderView"><g transform="matrix(.29 0 0 .29 774 15)"><svg className="owidLog" width="210" height="120" viewBox="0 0 210 120" fill="none" xmlns="http://www.w3.org/2000/svg"><g clip-path="url(#a)"><path d="M0 0h210v107.89H0V0z" fill="#002147"/><path d="M40.98 32.25c0 2.36-.38 4.53-1.12 6.51a14.26 14.26 0 0 1-8.1 8.4c-1.9.78-4.02 1.17-6.34 1.17a16.6 16.6 0 0 1-6.33-1.17 14.31 14.31 0 0 1-8.08-8.4 18.29 18.29 0 0 1-1.12-6.51c0-2.36.38-4.53 1.12-6.5.75-1.97 1.8-3.67 3.17-5.1a14.32 14.32 0 0 1 4.9-3.34c1.92-.8 4.03-1.19 6.34-1.19 2.32 0 4.43.4 6.34 1.19 1.92.8 3.56 1.9 4.93 3.34a14.87 14.87 0 0 1 3.17 5.1 18.1 18.1 0 0 1 1.12 6.5zm-4.38 0c0-1.94-.26-3.68-.8-5.22a10.91 10.91 0 0 0-2.24-3.89 9.68 9.68 0 0 0-3.52-2.46 11.95 11.95 0 0 0-4.62-.86c-1.68 0-3.21.28-4.6.86a9.88 9.88 0 0 0-3.54 2.46 10.91 10.91 0 0 0-2.24 3.9c-.53 1.53-.8 3.27-.8 5.2 0 1.94.27 3.68.8 5.22a11.17 11.17 0 0 0 2.24 3.9 10.01 10.01 0 0 0 3.55 2.44c1.38.56 2.9.83 4.6.83s3.24-.27 4.61-.83a9.8 9.8 0 0 0 3.52-2.44 11.17 11.17 0 0 0 2.25-3.9c.53-1.54.8-3.28.8-5.21zm26.22-6.54V48H60.5c-.56 0-.9-.27-1.05-.81l-.31-2.4a12.45 12.45 0 0 1-3.26 2.6c-1.2.64-2.58.96-4.13.96-1.22 0-2.3-.2-3.24-.6a6.52 6.52 0 0 1-2.33-1.7 7.37 7.37 0 0 1-1.43-2.67c-.3-1.04-.46-2.2-.46-3.45V25.7h3.91v14.22c0 1.68.38 2.99 1.15 3.91.77.93 1.96 1.39 3.54 1.39 1.16 0 2.24-.27 3.23-.82a10.42 10.42 0 0 0 2.8-2.28V25.7h3.91zm8.61 4.47a9.94 9.94 0 0 1 2.6-3.56 5.64 5.64 0 0 1 3.76-1.3c.47 0 .92.05 1.34.15.44.1.83.27 1.17.49l-.3 2.92c-.09.37-.3.55-.66.55-.2 0-.5-.04-.9-.13a6.21 6.21 0 0 0-3.24.18 4.23 4.23 0 0 0-1.47.92c-.42.4-.81.9-1.17 1.5-.33.58-.64 1.26-.92 2.02V48H67.7V25.71h2.25c.42 0 .72.08.88.25.16.16.27.44.33.83l.26 3.39zm61.16-13.7L122.75 48h-3.82l-7.99-24.05a21.95 21.95 0 0 1-.42-1.58 38.36 38.36 0 0 1-.44 1.58L102.05 48h-3.83L88.4 16.47h3.54c.38 0 .7.1.95.29.26.2.43.43.5.73l6.52 21.9.28 1.28.29 1.46.3-1.46.38-1.27 7.41-21.91c.1-.25.26-.48.51-.69.27-.22.58-.33.95-.33h1.23c.38 0 .69.1.92.29a1.77 1.77 0 0 1 .53.73l7.4 21.9a28.4 28.4 0 0 1 .68 2.62 29.52 29.52 0 0 1 .52-2.61l6.54-21.91a1.31 1.31 0 0 1 .48-.7c.27-.21.58-.32.95-.32h3.32zm9.35 8.88c1.63 0 3.1.27 4.4.82a9.43 9.43 0 0 1 5.46 5.94c.5 1.4.74 2.98.74 4.73 0 1.76-.25 3.34-.74 4.75a9.43 9.43 0 0 1-5.46 5.92c-1.3.52-2.77.79-4.4.79-1.64 0-3.12-.27-4.44-.8a9.42 9.42 0 0 1-3.35-2.3c-.92-1-1.63-2.2-2.13-3.61-.49-1.41-.73-3-.73-4.75s.24-3.33.73-4.73c.5-1.43 1.2-2.64 2.13-3.63a9.4 9.4 0 0 1 3.35-2.31c1.32-.55 2.8-.82 4.44-.82zm0 19.89c2.2 0 3.84-.73 4.93-2.2 1.08-1.48 1.63-3.54 1.63-6.18 0-2.66-.55-4.72-1.63-6.2-1.09-1.49-2.73-2.23-4.93-2.23-1.12 0-2.09.2-2.93.57a5.71 5.71 0 0 0-2.06 1.65 7.5 7.5 0 0 0-1.24 2.67c-.26 1.04-.4 2.22-.4 3.54 0 2.64.55 4.7 1.64 6.18 1.1 1.47 2.76 2.2 4.99 2.2zm17.97-15.07a9.94 9.94 0 0 1 2.6-3.56 5.64 5.64 0 0 1 3.76-1.3c.47 0 .91.05 1.34.15.44.1.83.27 1.16.49l-.28 2.92c-.09.37-.31.55-.66.55-.2 0-.5-.04-.9-.13a6.2 6.2 0 0 0-3.24.18 4.23 4.23 0 0 0-1.47.92c-.43.4-.82.9-1.17 1.5a13.1 13.1 0 0 0-.92 2.02V48h-3.94V25.71h2.24c.43 0 .72.08.88.25.17.16.28.44.33.83l.27 3.39zm15.04-14.59V48h-3.92V15.6h3.92zm19.55 15.43a6.22 6.22 0 0 0-2.38-2.05 6.7 6.7 0 0 0-2.86-.6c-2.07 0-3.66.75-4.77 2.23-1.12 1.48-1.68 3.6-1.68 6.33 0 1.46.13 2.7.38 3.74a7.29 7.29 0 0 0 1.1 2.56 4.35 4.35 0 0 0 1.78 1.45c.7.3 1.5.46 2.4.46 1.29 0 2.41-.3 3.36-.88a9.6 9.6 0 0 0 2.67-2.49V31.02zm3.91-15.43V48h-2.33c-.56 0-.9-.27-1.06-.81l-.35-2.71a12.13 12.13 0 0 1-3.25 2.77 8.28 8.28 0 0 1-4.23 1.06 7.31 7.31 0 0 1-6.14-2.9c-.73-.96-1.3-2.15-1.69-3.57a18.35 18.35 0 0 1 .07-9.48 11.29 11.29 0 0 1 1.89-3.7 8.7 8.7 0 0 1 7.06-3.34 7.96 7.96 0 0 1 6.12 2.62V15.59h3.91zM46.61 70.71V93H42.7V70.71h3.91zm.84-7c0 .39-.08.75-.24 1.09a2.81 2.81 0 0 1-1.52 1.47 2.67 2.67 0 0 1-2.16 0 2.9 2.9 0 0 1-1.45-1.47 2.67 2.67 0 0 1 0-2.16c.15-.35.35-.65.6-.9.25-.27.53-.47.85-.62a2.67 2.67 0 0 1 2.16 0c.35.15.65.35.9.62.27.25.47.55.62.9.16.34.24.7.24 1.08zm7.97 10.24c.49-.54 1-1.04 1.54-1.48a9.85 9.85 0 0 1 3.66-1.84 8.96 8.96 0 0 1 5.43.35c.94.4 1.72.97 2.33 1.71a7.36 7.36 0 0 1 1.43 2.67c.32 1.04.49 2.19.49 3.45V93h-3.94V78.81c0-1.69-.4-3-1.17-3.92-.76-.93-1.93-1.4-3.5-1.4a6.6 6.6 0 0 0-3.25.83c-1 .56-1.92 1.31-2.77 2.27V93h-3.94V70.71h2.35c.56 0 .9.28 1.04.82l.3 2.42zm57.7 3.3c0 2.36-.37 4.5-1.11 6.44a14.3 14.3 0 0 1-3.17 4.98 14.1 14.1 0 0 1-4.93 3.2c-1.9.76-4.02 1.13-6.33 1.13H85.8V61.47h11.77c2.31 0 4.42.39 6.33 1.15a13.8 13.8 0 0 1 8.1 8.18 17.75 17.75 0 0 1 1.12 6.45zm-4.37 0c0-1.94-.26-3.67-.8-5.2a10.94 10.94 0 0 0-2.23-3.87 9.57 9.57 0 0 0-3.53-2.42 12.23 12.23 0 0 0-4.61-.83h-7.5v24.62h7.5c1.7 0 3.24-.28 4.61-.84a9.7 9.7 0 0 0 3.53-2.4 10.94 10.94 0 0 0 2.24-3.87c.53-1.53.8-3.26.8-5.2zm19.8 5.72c-1.8.06-3.34.2-4.62.44-1.26.22-2.3.51-3.1.88-.8.36-1.37.8-1.74 1.3-.35.5-.53 1.05-.53 1.67 0 .58.1 1.1.3 1.52a3 3 0 0 0 .76 1.05c.34.27.73.46 1.17.6a6.13 6.13 0 0 0 1.45.17 7.28 7.28 0 0 0 3.5-.81 11.95 11.95 0 0 0 2.82-2.2v-4.62zm-12.65-9.11a12.73 12.73 0 0 1 3.98-2.66c1.43-.59 3-.88 4.73-.88 1.25 0 2.36.2 3.33.61a6.81 6.81 0 0 1 3.94 4.38c.33 1.04.5 2.19.5 3.43V93h-1.74a1.8 1.8 0 0 1-.88-.18c-.2-.13-.36-.38-.48-.74l-.44-2.12-1.72 1.46a9.48 9.48 0 0 1-3.74 1.7c-.69.15-1.46.23-2.3.23-.87 0-1.69-.12-2.45-.35a5.34 5.34 0 0 1-3.34-2.93 6.64 6.64 0 0 1-.49-2.64c0-.88.25-1.72.73-2.53a6.33 6.33 0 0 1 2.35-2.17c1.09-.63 2.5-1.15 4.25-1.54 1.75-.41 3.89-.65 6.42-.7v-1.75c0-1.73-.37-3.03-1.12-3.91-.75-.9-1.84-1.34-3.28-1.34-.97 0-1.78.12-2.44.37-.64.23-1.2.5-1.7.81l-1.23.82c-.33.23-.67.35-1 .35-.27 0-.5-.07-.69-.2a2.1 2.1 0 0 1-.48-.53l-.7-1.25zm27.67 19.5c-1.76 0-3.12-.5-4.07-1.48-.94-.98-1.41-2.4-1.41-4.25V74h-2.68a.9.9 0 0 1-.6-.2c-.16-.14-.24-.36-.24-.66v-1.56l3.65-.46.9-6.89a.9.9 0 0 1 .29-.52.88.88 0 0 1 .62-.22H142v7.67h6.44V74H142v13.38c0 .94.22 1.63.68 2.09.45.45 1.04.68 1.76.68a3.21 3.21 0 0 0 1.85-.53l.55-.35c.16-.12.3-.18.41-.18.2 0 .4.13.55.38l1.15 1.87a7.45 7.45 0 0 1-2.44 1.5 8.53 8.53 0 0 1-2.95.52zm19.68-10.4c-1.8.07-3.34.21-4.62.45-1.26.22-2.3.51-3.1.88-.8.36-1.37.8-1.74 1.3-.35.5-.53 1.05-.53 1.67 0 .58.1 1.1.3 1.52a2.9 2.9 0 0 0 .76 1.05c.34.27.73.46 1.17.6a6.13 6.13 0 0 0 1.45.17 7.3 7.3 0 0 0 3.5-.81 12.04 12.04 0 0 0 2.82-2.2v-4.62zm-12.65-9.1a12.72 12.72 0 0 1 3.99-2.66c1.42-.59 3-.88 4.72-.88 1.25 0 2.36.2 3.33.61a6.81 6.81 0 0 1 3.94 4.38c.33 1.04.5 2.19.5 3.43V93h-1.74a1.8 1.8 0 0 1-.88-.18c-.2-.13-.36-.38-.48-.74l-.44-2.12-1.72 1.46a9.48 9.48 0 0 1-3.74 1.7c-.69.15-1.46.23-2.3.23-.87 0-1.69-.12-2.45-.35a5.33 5.33 0 0 1-3.34-2.93 6.62 6.62 0 0 1-.49-2.64c0-.88.25-1.72.73-2.53a6.33 6.33 0 0 1 2.35-2.17c1.09-.63 2.5-1.15 4.25-1.54a31.2 31.2 0 0 1 6.42-.7v-1.75c0-1.73-.37-3.03-1.12-3.91-.75-.9-1.84-1.34-3.28-1.34-.97 0-1.78.12-2.44.37-.64.23-1.2.5-1.7.81l-1.22.82c-.34.23-.68.35-1.02.35-.26 0-.49-.07-.68-.2a1.88 1.88 0 0 1-.48-.53l-.7-1.25zM40.98 32.25c0 2.36-.38 4.53-1.12 6.51a14.26 14.26 0 0 1-8.1 8.4c-1.9.78-4.02 1.17-6.34 1.17a16.6 16.6 0 0 1-6.33-1.17 14.31 14.31 0 0 1-8.08-8.4 18.29 18.29 0 0 1-1.12-6.51c0-2.36.38-4.53 1.12-6.5.75-1.97 1.8-3.67 3.17-5.1a14.32 14.32 0 0 1 4.9-3.34c1.92-.8 4.03-1.19 6.34-1.19 2.32 0 4.43.4 6.34 1.19 1.92.8 3.56 1.9 4.93 3.34a14.87 14.87 0 0 1 3.17 5.1 18.1 18.1 0 0 1 1.12 6.5zm-4.38 0c0-1.94-.26-3.68-.8-5.22a10.91 10.91 0 0 0-2.24-3.89 9.68 9.68 0 0 0-3.52-2.46 11.95 11.95 0 0 0-4.62-.86c-1.68 0-3.21.28-4.6.86a9.88 9.88 0 0 0-3.54 2.46 10.91 10.91 0 0 0-2.24 3.9c-.53 1.53-.8 3.27-.8 5.2 0 1.94.27 3.68.8 5.22a11.17 11.17 0 0 0 2.24 3.9 10.01 10.01 0 0 0 3.55 2.44c1.38.56 2.9.83 4.6.83s3.24-.27 4.61-.83a9.8 9.8 0 0 0 3.52-2.44 11.17 11.17 0 0 0 2.25-3.9c.53-1.54.8-3.28.8-5.21zm26.22-6.54V48H60.5c-.56 0-.9-.27-1.05-.81l-.31-2.4a12.45 12.45 0 0 1-3.26 2.6c-1.2.64-2.58.96-4.13.96-1.22 0-2.3-.2-3.24-.6a6.52 6.52 0 0 1-2.33-1.7 7.37 7.37 0 0 1-1.43-2.67c-.3-1.04-.46-2.2-.46-3.45V25.7h3.91v14.22c0 1.68.38 2.99 1.15 3.91.77.93 1.96 1.39 3.54 1.39 1.16 0 2.24-.27 3.23-.82a10.42 10.42 0 0 0 2.8-2.28V25.7h3.91zm8.61 4.47a9.94 9.94 0 0 1 2.6-3.56 5.64 5.64 0 0 1 3.76-1.3c.47 0 .92.05 1.34.15.44.1.83.27 1.17.49l-.3 2.92c-.09.37-.3.55-.66.55-.2 0-.5-.04-.9-.13a6.21 6.21 0 0 0-3.24.18 4.23 4.23 0 0 0-1.47.92c-.42.4-.81.9-1.17 1.5-.33.58-.64 1.26-.92 2.02V48H67.7V25.71h2.25c.42 0 .72.08.88.25.16.16.27.44.33.83l.26 3.39zm61.16-13.7L122.75 48h-3.82l-7.99-24.05a21.95 21.95 0 0 1-.42-1.58 38.36 38.36 0 0 1-.44 1.58L102.05 48h-3.83L88.4 16.47h3.54c.38 0 .7.1.95.29.26.2.43.43.5.73l6.52 21.9.28 1.28.29 1.46.3-1.46.38-1.27 7.41-21.91c.1-.25.26-.48.51-.69.27-.22.58-.33.95-.33h1.23c.38 0 .69.1.92.29a1.77 1.77 0 0 1 .53.73l7.4 21.9a28.4 28.4 0 0 1 .68 2.62 29.52 29.52 0 0 1 .52-2.61l6.54-21.91a1.31 1.31 0 0 1 .48-.7c.27-.21.58-.32.95-.32h3.32zm9.35 8.88c1.63 0 3.1.27 4.4.82a9.43 9.43 0 0 1 5.46 5.94c.5 1.4.74 2.98.74 4.73 0 1.76-.25 3.34-.74 4.75a9.43 9.43 0 0 1-5.46 5.92c-1.3.52-2.77.79-4.4.79-1.64 0-3.12-.27-4.44-.8a9.42 9.42 0 0 1-3.35-2.3c-.92-1-1.63-2.2-2.13-3.61-.49-1.41-.73-3-.73-4.75s.24-3.33.73-4.73c.5-1.43 1.2-2.64 2.13-3.63a9.4 9.4 0 0 1 3.35-2.31c1.32-.55 2.8-.82 4.44-.82zm0 19.89c2.2 0 3.84-.73 4.93-2.2 1.08-1.48 1.63-3.54 1.63-6.18 0-2.66-.55-4.72-1.63-6.2-1.09-1.49-2.73-2.23-4.93-2.23-1.12 0-2.09.2-2.93.57a5.71 5.71 0 0 0-2.06 1.65 7.5 7.5 0 0 0-1.24 2.67c-.26 1.04-.4 2.22-.4 3.54 0 2.64.55 4.7 1.64 6.18 1.1 1.47 2.76 2.2 4.99 2.2zm17.97-15.07a9.94 9.94 0 0 1 2.6-3.56 5.64 5.64 0 0 1 3.76-1.3c.47 0 .91.05 1.34.15.44.1.83.27 1.16.49l-.28 2.92c-.09.37-.31.55-.66.55-.2 0-.5-.04-.9-.13a6.2 6.2 0 0 0-3.24.18 4.23 4.23 0 0 0-1.47.92c-.43.4-.82.9-1.17 1.5a13.1 13.1 0 0 0-.92 2.02V48h-3.94V25.71h2.24c.43 0 .72.08.88.25.17.16.28.44.33.83l.27 3.39zm15.04-14.59V48h-3.92V15.6h3.92zm19.55 15.43a6.22 6.22 0 0 0-2.38-2.05 6.7 6.7 0 0 0-2.86-.6c-2.07 0-3.66.75-4.77 2.23-1.12 1.48-1.68 3.6-1.68 6.33 0 1.46.13 2.7.38 3.74a7.29 7.29 0 0 0 1.1 2.56 4.35 4.35 0 0 0 1.78 1.45c.7.3 1.5.46 2.4.46 1.29 0 2.41-.3 3.36-.88a9.6 9.6 0 0 0 2.67-2.49V31.02zm3.91-15.43V48h-2.33c-.56 0-.9-.27-1.06-.81l-.35-2.71a12.13 12.13 0 0 1-3.25 2.77 8.28 8.28 0 0 1-4.23 1.06 7.31 7.31 0 0 1-6.14-2.9c-.73-.96-1.3-2.15-1.69-3.57a18.35 18.35 0 0 1 .07-9.48 11.29 11.29 0 0 1 1.89-3.7 8.7 8.7 0 0 1 7.06-3.34 7.96 7.96 0 0 1 6.12 2.62V15.59h3.91zM46.61 70.71V93H42.7V70.71h3.91zm.84-7c0 .39-.08.75-.24 1.09a2.81 2.81 0 0 1-1.52 1.47 2.67 2.67 0 0 1-2.16 0 2.9 2.9 0 0 1-1.45-1.47 2.67 2.67 0 0 1 0-2.16c.15-.35.35-.65.6-.9.25-.27.53-.47.85-.62a2.67 2.67 0 0 1 2.16 0c.35.15.65.35.9.62.27.25.47.55.62.9.16.34.24.7.24 1.08zm7.97 10.24c.49-.54 1-1.04 1.54-1.48a9.85 9.85 0 0 1 3.66-1.84 8.96 8.96 0 0 1 5.43.35c.94.4 1.72.97 2.33 1.71a7.36 7.36 0 0 1 1.43 2.67c.32 1.04.49 2.19.49 3.45V93h-3.94V78.81c0-1.69-.4-3-1.17-3.92-.76-.93-1.93-1.4-3.5-1.4a6.6 6.6 0 0 0-3.25.83c-1 .56-1.92 1.31-2.77 2.27V93h-3.94V70.71h2.35c.56 0 .9.28 1.04.82l.3 2.42zm57.7 3.3c0 2.36-.37 4.5-1.11 6.44a14.3 14.3 0 0 1-3.17 4.98 14.1 14.1 0 0 1-4.93 3.2c-1.9.76-4.02 1.13-6.33 1.13H85.8V61.47h11.77c2.31 0 4.42.39 6.33 1.15a13.8 13.8 0 0 1 8.1 8.18 17.75 17.75 0 0 1 1.12 6.45zm-4.37 0c0-1.94-.26-3.67-.8-5.2a10.94 10.94 0 0 0-2.23-3.87 9.57 9.57 0 0 0-3.53-2.42 12.23 12.23 0 0 0-4.61-.83h-7.5v24.62h7.5c1.7 0 3.24-.28 4.61-.84a9.7 9.7 0 0 0 3.53-2.4 10.94 10.94 0 0 0 2.24-3.87c.53-1.53.8-3.26.8-5.2zm19.8 5.72c-1.8.06-3.34.2-4.62.44-1.26.22-2.3.51-3.1.88-.8.36-1.37.8-1.74 1.3-.35.5-.53 1.05-.53 1.67 0 .58.1 1.1.3 1.52a3 3 0 0 0 .76 1.05c.34.27.73.46 1.17.6a6.13 6.13 0 0 0 1.45.17 7.28 7.28 0 0 0 3.5-.81 11.95 11.95 0 0 0 2.82-2.2v-4.62zm-12.65-9.11a12.73 12.73 0 0 1 3.98-2.66c1.43-.59 3-.88 4.73-.88 1.25 0 2.36.2 3.33.61a6.81 6.81 0 0 1 3.94 4.38c.33 1.04.5 2.19.5 3.43V93h-1.74a1.8 1.8 0 0 1-.88-.18c-.2-.13-.36-.38-.48-.74l-.44-2.12-1.72 1.46a9.48 9.48 0 0 1-3.74 1.7c-.69.15-1.46.23-2.3.23-.87 0-1.69-.12-2.45-.35a5.34 5.34 0 0 1-3.34-2.93 6.64 6.64 0 0 1-.49-2.64c0-.88.25-1.72.73-2.53a6.33 6.33 0 0 1 2.35-2.17c1.09-.63 2.5-1.15 4.25-1.54 1.75-.41 3.89-.65 6.42-.7v-1.75c0-1.73-.37-3.03-1.12-3.91-.75-.9-1.84-1.34-3.28-1.34-.97 0-1.78.12-2.44.37-.64.23-1.2.5-1.7.81l-1.23.82c-.33.23-.67.35-1 .35-.27 0-.5-.07-.69-.2a2.1 2.1 0 0 1-.48-.53l-.7-1.25zm27.67 19.5c-1.76 0-3.12-.5-4.07-1.48-.94-.98-1.41-2.4-1.41-4.25V74h-2.68a.9.9 0 0 1-.6-.2c-.16-.14-.24-.36-.24-.66v-1.56l3.65-.46.9-6.89a.9.9 0 0 1 .29-.52.88.88 0 0 1 .62-.22H142v7.67h6.44V74H142v13.38c0 .94.22 1.63.68 2.09.45.45 1.04.68 1.76.68a3.21 3.21 0 0 0 1.85-.53l.55-.35c.16-.12.3-.18.41-.18.2 0 .4.13.55.38l1.15 1.87a7.45 7.45 0 0 1-2.44 1.5 8.53 8.53 0 0 1-2.95.52zm19.68-10.4c-1.8.07-3.34.21-4.62.45-1.26.22-2.3.51-3.1.88-.8.36-1.37.8-1.74 1.3-.35.5-.53 1.05-.53 1.67 0 .58.1 1.1.3 1.52a2.9 2.9 0 0 0 .76 1.05c.34.27.73.46 1.17.6a6.13 6.13 0 0 0 1.45.17 7.3 7.3 0 0 0 3.5-.81 12.04 12.04 0 0 0 2.82-2.2v-4.62zm-12.65-9.1a12.72 12.72 0 0 1 3.99-2.66c1.42-.59 3-.88 4.72-.88 1.25 0 2.36.2 3.33.61a6.81 6.81 0 0 1 3.94 4.38c.33 1.04.5 2.19.5 3.43V93h-1.74a1.8 1.8 0 0 1-.88-.18c-.2-.13-.36-.38-.48-.74l-.44-2.12-1.72 1.46a9.48 9.48 0 0 1-3.74 1.7c-.69.15-1.46.23-2.3.23-.87 0-1.69-.12-2.45-.35a5.33 5.33 0 0 1-3.34-2.93 6.62 6.62 0 0 1-.49-2.64c0-.88.25-1.72.73-2.53a6.33 6.33 0 0 1 2.35-2.17c1.09-.63 2.5-1.15 4.25-1.54a31.2 31.2 0 0 1 6.42-.7v-1.75c0-1.73-.37-3.03-1.12-3.91-.75-.9-1.84-1.34-3.28-1.34-.97 0-1.78.12-2.44.37-.64.23-1.2.5-1.7.81l-1.22.82c-.34.23-.68.35-1.02.35-.26 0-.49-.07-.68-.2a1.88 1.88 0 0 1-.48-.53l-.7-1.25zM40.98 32.25c0 2.36-.38 4.53-1.12 6.51a14.26 14.26 0 0 1-8.1 8.4c-1.9.78-4.02 1.17-6.34 1.17a16.6 16.6 0 0 1-6.33-1.17 14.31 14.31 0 0 1-8.08-8.4 18.29 18.29 0 0 1-1.12-6.51c0-2.36.38-4.53 1.12-6.5.75-1.97 1.8-3.67 3.17-5.1a14.32 14.32 0 0 1 4.9-3.34c1.92-.8 4.03-1.19 6.34-1.19 2.32 0 4.43.4 6.34 1.19 1.92.8 3.56 1.9 4.93 3.34a14.87 14.87 0 0 1 3.17 5.1 18.1 18.1 0 0 1 1.12 6.5zm-4.38 0c0-1.94-.26-3.68-.8-5.22a10.91 10.91 0 0 0-2.24-3.89 9.68 9.68 0 0 0-3.52-2.46 11.95 11.95 0 0 0-4.62-.86c-1.68 0-3.21.28-4.6.86a9.88 9.88 0 0 0-3.54 2.46 10.91 10.91 0 0 0-2.24 3.9c-.53 1.53-.8 3.27-.8 5.2 0 1.94.27 3.68.8 5.22a11.17 11.17 0 0 0 2.24 3.9 10.01 10.01 0 0 0 3.55 2.44c1.38.56 2.9.83 4.6.83s3.24-.27 4.61-.83a9.8 9.8 0 0 0 3.52-2.44 11.17 11.17 0 0 0 2.25-3.9c.53-1.54.8-3.28.8-5.21zm26.22-6.54V48H60.5c-.56 0-.9-.27-1.05-.81l-.31-2.4a12.45 12.45 0 0 1-3.26 2.6c-1.2.64-2.58.96-4.13.96-1.22 0-2.3-.2-3.24-.6a6.52 6.52 0 0 1-2.33-1.7 7.37 7.37 0 0 1-1.43-2.67c-.3-1.04-.46-2.2-.46-3.45V25.7h3.91v14.22c0 1.68.38 2.99 1.15 3.91.77.93 1.96 1.39 3.54 1.39 1.16 0 2.24-.27 3.23-.82a10.42 10.42 0 0 0 2.8-2.28V25.7h3.91zm8.61 4.47a9.94 9.94 0 0 1 2.6-3.56 5.64 5.64 0 0 1 3.76-1.3c.47 0 .92.05 1.34.15.44.1.83.27 1.17.49l-.3 2.92c-.09.37-.3.55-.66.55-.2 0-.5-.04-.9-.13a6.21 6.21 0 0 0-3.24.18 4.23 4.23 0 0 0-1.47.92c-.42.4-.81.9-1.17 1.5-.33.58-.64 1.26-.92 2.02V48H67.7V25.71h2.25c.42 0 .72.08.88.25.16.16.27.44.33.83l.26 3.39zm61.16-13.7L122.75 48h-3.82l-7.99-24.05a21.95 21.95 0 0 1-.42-1.58 38.36 38.36 0 0 1-.44 1.58L102.05 48h-3.83L88.4 16.47h3.54c.38 0 .7.1.95.29.26.2.43.43.5.73l6.52 21.9.28 1.28.29 1.46.3-1.46.38-1.27 7.41-21.91c.1-.25.26-.48.51-.69.27-.22.58-.33.95-.33h1.23c.38 0 .69.1.92.29a1.77 1.77 0 0 1 .53.73l7.4 21.9a28.4 28.4 0 0 1 .68 2.62 29.52 29.52 0 0 1 .52-2.61l6.54-21.91a1.31 1.31 0 0 1 .48-.7c.27-.21.58-.32.95-.32h3.32zm9.35 8.88c1.63 0 3.1.27 4.4.82a9.43 9.43 0 0 1 5.46 5.94c.5 1.4.74 2.98.74 4.73 0 1.76-.25 3.34-.74 4.75a9.43 9.43 0 0 1-5.46 5.92c-1.3.52-2.77.79-4.4.79-1.64 0-3.12-.27-4.44-.8a9.42 9.42 0 0 1-3.35-2.3c-.92-1-1.63-2.2-2.13-3.61-.49-1.41-.73-3-.73-4.75s.24-3.33.73-4.73c.5-1.43 1.2-2.64 2.13-3.63a9.4 9.4 0 0 1 3.35-2.31c1.32-.55 2.8-.82 4.44-.82zm0 19.89c2.2 0 3.84-.73 4.93-2.2 1.08-1.48 1.63-3.54 1.63-6.18 0-2.66-.55-4.72-1.63-6.2-1.09-1.49-2.73-2.23-4.93-2.23-1.12 0-2.09.2-2.93.57a5.71 5.71 0 0 0-2.06 1.65 7.5 7.5 0 0 0-1.24 2.67c-.26 1.04-.4 2.22-.4 3.54 0 2.64.55 4.7 1.64 6.18 1.1 1.47 2.76 2.2 4.99 2.2zm17.97-15.07a9.94 9.94 0 0 1 2.6-3.56 5.64 5.64 0 0 1 3.76-1.3c.47 0 .91.05 1.34.15.44.1.83.27 1.16.49l-.28 2.92c-.09.37-.31.55-.66.55-.2 0-.5-.04-.9-.13a6.2 6.2 0 0 0-3.24.18 4.23 4.23 0 0 0-1.47.92c-.43.4-.82.9-1.17 1.5a13.1 13.1 0 0 0-.92 2.02V48h-3.94V25.71h2.24c.43 0 .72.08.88.25.17.16.28.44.33.83l.27 3.39zm15.04-14.59V48h-3.92V15.6h3.92zm19.55 15.43a6.22 6.22 0 0 0-2.38-2.05 6.7 6.7 0 0 0-2.86-.6c-2.07 0-3.66.75-4.77 2.23-1.12 1.48-1.68 3.6-1.68 6.33 0 1.46.13 2.7.38 3.74a7.29 7.29 0 0 0 1.1 2.56 4.35 4.35 0 0 0 1.78 1.45c.7.3 1.5.46 2.4.46 1.29 0 2.41-.3 3.36-.88a9.6 9.6 0 0 0 2.67-2.49V31.02zm3.91-15.43V48h-2.33c-.56 0-.9-.27-1.06-.81l-.35-2.71a12.13 12.13 0 0 1-3.25 2.77 8.28 8.28 0 0 1-4.23 1.06 7.31 7.31 0 0 1-6.14-2.9c-.73-.96-1.3-2.15-1.69-3.57a18.35 18.35 0 0 1 .07-9.48 11.29 11.29 0 0 1 1.89-3.7 8.7 8.7 0 0 1 7.06-3.34 7.96 7.96 0 0 1 6.12 2.62V15.59h3.91zM46.61 70.71V93H42.7V70.71h3.91zm.84-7c0 .39-.08.75-.24 1.09a2.81 2.81 0 0 1-1.52 1.47 2.67 2.67 0 0 1-2.16 0 2.9 2.9 0 0 1-1.45-1.47 2.67 2.67 0 0 1 0-2.16c.15-.35.35-.65.6-.9.25-.27.53-.47.85-.62a2.67 2.67 0 0 1 2.16 0c.35.15.65.35.9.62.27.25.47.55.62.9.16.34.24.7.24 1.08zm7.97 10.24c.49-.54 1-1.04 1.54-1.48a9.85 9.85 0 0 1 3.66-1.84 8.96 8.96 0 0 1 5.43.35c.94.4 1.72.97 2.33 1.71a7.36 7.36 0 0 1 1.43 2.67c.32 1.04.49 2.19.49 3.45V93h-3.94V78.81c0-1.69-.4-3-1.17-3.92-.76-.93-1.93-1.4-3.5-1.4a6.6 6.6 0 0 0-3.25.83c-1 .56-1.92 1.31-2.77 2.27V93h-3.94V70.71h2.35c.56 0 .9.28 1.04.82l.3 2.42zm57.7 3.3c0 2.36-.37 4.5-1.11 6.44a14.3 14.3 0 0 1-3.17 4.98 14.1 14.1 0 0 1-4.93 3.2c-1.9.76-4.02 1.13-6.33 1.13H85.8V61.47h11.77c2.31 0 4.42.39 6.33 1.15a13.8 13.8 0 0 1 8.1 8.18 17.75 17.75 0 0 1 1.12 6.45zm-4.37 0c0-1.94-.26-3.67-.8-5.2a10.94 10.94 0 0 0-2.23-3.87 9.57 9.57 0 0 0-3.53-2.42 12.23 12.23 0 0 0-4.61-.83h-7.5v24.62h7.5c1.7 0 3.24-.28 4.61-.84a9.7 9.7 0 0 0 3.53-2.4 10.94 10.94 0 0 0 2.24-3.87c.53-1.53.8-3.26.8-5.2zm19.8 5.72c-1.8.06-3.34.2-4.62.44-1.26.22-2.3.51-3.1.88-.8.36-1.37.8-1.74 1.3-.35.5-.53 1.05-.53 1.67 0 .58.1 1.1.3 1.52a3 3 0 0 0 .76 1.05c.34.27.73.46 1.17.6a6.13 6.13 0 0 0 1.45.17 7.28 7.28 0 0 0 3.5-.81 11.95 11.95 0 0 0 2.82-2.2v-4.62zm-12.65-9.11a12.73 12.73 0 0 1 3.98-2.66c1.43-.59 3-.88 4.73-.88 1.25 0 2.36.2 3.33.61a6.81 6.81 0 0 1 3.94 4.38c.33 1.04.5 2.19.5 3.43V93h-1.74a1.8 1.8 0 0 1-.88-.18c-.2-.13-.36-.38-.48-.74l-.44-2.12-1.72 1.46a9.48 9.48 0 0 1-3.74 1.7c-.69.15-1.46.23-2.3.23-.87 0-1.69-.12-2.45-.35a5.34 5.34 0 0 1-3.34-2.93 6.64 6.64 0 0 1-.49-2.64c0-.88.25-1.72.73-2.53a6.33 6.33 0 0 1 2.35-2.17c1.09-.63 2.5-1.15 4.25-1.54 1.75-.41 3.89-.65 6.42-.7v-1.75c0-1.73-.37-3.03-1.12-3.91-.75-.9-1.84-1.34-3.28-1.34-.97 0-1.78.12-2.44.37-.64.23-1.2.5-1.7.81l-1.23.82c-.33.23-.67.35-1 .35-.27 0-.5-.07-.69-.2a2.1 2.1 0 0 1-.48-.53l-.7-1.25zm27.67 19.5c-1.76 0-3.12-.5-4.07-1.48-.94-.98-1.41-2.4-1.41-4.25V74h-2.68a.9.9 0 0 1-.6-.2c-.16-.14-.24-.36-.24-.66v-1.56l3.65-.46.9-6.89a.9.9 0 0 1 .29-.52.88.88 0 0 1 .62-.22H142v7.67h6.44V74H142v13.38c0 .94.22 1.63.68 2.09.45.45 1.04.68 1.76.68a3.21 3.21 0 0 0 1.85-.53l.55-.35c.16-.12.3-.18.41-.18.2 0 .4.13.55.38l1.15 1.87a7.45 7.45 0 0 1-2.44 1.5 8.53 8.53 0 0 1-2.95.52zm19.68-10.4c-1.8.07-3.34.21-4.62.45-1.26.22-2.3.51-3.1.88-.8.36-1.37.8-1.74 1.3-.35.5-.53 1.05-.53 1.67 0 .58.1 1.1.3 1.52a2.9 2.9 0 0 0 .76 1.05c.34.27.73.46 1.17.6a6.13 6.13 0 0 0 1.45.17 7.3 7.3 0 0 0 3.5-.81 12.04 12.04 0 0 0 2.82-2.2v-4.62zm-12.65-9.1a12.72 12.72 0 0 1 3.99-2.66c1.42-.59 3-.88 4.72-.88 1.25 0 2.36.2 3.33.61a6.81 6.81 0 0 1 3.94 4.38c.33 1.04.5 2.19.5 3.43V93h-1.74a1.8 1.8 0 0 1-.88-.18c-.2-.13-.36-.38-.48-.74l-.44-2.12-1.72 1.46a9.48 9.48 0 0 1-3.74 1.7c-.69.15-1.46.23-2.3.23-.87 0-1.69-.12-2.45-.35a5.33 5.33 0 0 1-3.34-2.93 6.62 6.62 0 0 1-.49-2.64c0-.88.25-1.72.73-2.53a6.33 6.33 0 0 1 2.35-2.17c1.09-.63 2.5-1.15 4.25-1.54a31.2 31.2 0 0 1 6.42-.7v-1.75c0-1.73-.37-3.03-1.12-3.91-.75-.9-1.84-1.34-3.28-1.34-.97 0-1.78.12-2.44.37-.64.23-1.2.5-1.7.81l-1.22.82c-.34.23-.68.35-1.02.35-.26 0-.49-.07-.68-.2a1.88 1.88 0 0 1-.48-.53l-.7-1.25z" fill="#fff"/><path fill="#D42B21" d="M0 106.79h210V120H0z"/></g><defs><clipPath id="a"><path fill="#fff" d="M0 0h210v120H0z"/></clipPath></defs></svg></g><a href="https://ourworldindata.org/grapher/coal-vs-gdp-per-capita" style="font-family:&quot;Playfair Display&quot;,Georgia,&quot;Times New Roman&quot;,serif" target="_blank" rel="noopener"><text font-size="25.2" x="15" y="35.2" fill="#555"><tspan x="15" y="35.16">Coal consumption per capita vs. GDP per capita, 1965 to 2018</tspan></text></a><text font-size="14.4" x="15" y="55.7" fill="#666"><tspan x="15" y="55.72">Coal consumption per capita is measured in megawatt-hours per person. Gross domestic product (GDP) per capita</tspan><tspan x="15" y="73">is measured in 2011 international-$, which adjusts for inflation and cross-country price differences.</tspan></text></g><g class="ScatterPlot"><g class="DualAxisView"><g class="HorizontalAxis"><text font-size="12.6" x="323.3" y="530.3"><tspan x="323.33" y="530.28">GDP per capita</tspan></text><text x="130.2" y="510.2" fill="#666" text-anchor="middle" font-size="16.2">$1,000</text><text x="398.1" y="510.2" fill="#666" text-anchor="middle" font-size="16.2">$10,000</text><text x="666.1" y="510.2" fill="#666" text-anchor="middle" font-size="16.2">$100,000</text><text x="210.8" y="510.2" fill="#666" text-anchor="middle" font-size="16.2">$2,000</text><text x="317.5" y="510.2" fill="#666" text-anchor="middle" font-size="16.2">$5,000</text><text x="478.8" y="510.2" fill="#666" text-anchor="middle" font-size="16.2">$20,000</text><text x="585.4" y="510.2" fill="#666" text-anchor="middle" font-size="16.2">$50,000</text></g><g class="VerticalAxis"><text font-size="12.6" x="-355" y="25.1" transform="rotate(-90)"><tspan x="-355.02" y="25.08">Coal per capita</tspan></text><text x="98.03" y="489" dy=".32em" text-anchor="end" fill="#666" font-size="16.2">0 MWh</text><text x="98.03" y="402.1" dy=".32em" text-anchor="end" fill="#666" font-size="16.2">10 MWh</text><text x="98.03" y="315.2" dy=".32em" text-anchor="end" fill="#666" font-size="16.2">20 MWh</text><text x="98.03" y="228.2" dy=".32em" text-anchor="end" fill="#666" font-size="16.2">30 MWh</text><text x="98.03" y="141.3" dy=".32em" text-anchor="end" fill="#666" font-size="16.2">40 MWh</text></g><g class="AxisGridLines horizontalLines"><path stroke="#999" d="M103.03 489h615.06"/><path stroke="#ddd" stroke-dasharray="3,2" d="M103.03 402.1h615.06M103.03 315.2h615.06M103.03 228.2h615.06M103.03 141.3h615.06"/></g><g class="AxisGridLines verticalLines" stroke="#ddd" stroke-dasharray="3,2"><path d="M130.2 489V92.2M210.8 489V92.2M317.5 489V92.2M398.1 489V92.2M478.8 489V92.2M585.4 489V92.2M666.1 489V92.2"/></g></g><g class="PointsWithLabels clickable" clip-path="url(#b)"><path fill="rgba(255,255,255,0)" d="M103.03 92.2H718.1V489H103.03z"/><defs><clipPath id="b"><path d="M93.03 82.2H728.1V499H93.03z"/></clipPath></defs><g class="key-Algeria"><circle cx="257" cy="488" r="1.5" fill="#923E8B" opacity=".7"/><path stroke-width="1" opacity=".7" stroke="#923E8B" fill="none" stroke-linecap="butt" d="M257 488h-10 31-13 54-2l3-4 3 1h4-4l-4-1h-6l1 1-4 1h10l7 2 4-1h29l9-1 11 1 8-1 9 1 5-1h12l4 1 6 1h16-1v-1"/><path cx="439" cy="487" r="2.5" fill="#923E8B" opacity=".7" d="m436.5 489.5 2.5-5 2.5 5z"/></g><g class="key-Argentina"><circle cx="399" cy="485" r="1.5" fill="#932834" opacity=".7"/><path stroke-width="1" opacity=".7" stroke="#932834" fill="none" stroke-linecap="butt" d="M399 485v1h4l8-1 4-1 4 1h12-6 5l-7-1 6 1h-15l3 1h-9l6-1h1-14l10 1 10-1 7 1 5 1h-4 17l-4-1-2 1h-20 9l9-1h18l9-1h4l-7 1h10l6-1-2 1 2-1h-4 1l-3 1h2-4"/><path cx="470" cy="486" r="2.5" fill="#932834" opacity=".7" d="m472.5 488.5-5-2.5 5-2.5z"/></g><g class="key-Australia"><circle cx="454" cy="333" r="1.5" fill="#A8633C" opacity=".7"/><path stroke-width="1" opacity=".7" stroke="#A8633C" fill="none" stroke-linecap="butt" d="m454 333 1-1 5-1h5l4-2 4 2 3 2 1-4 4-4 1-5 2-3 3-4v-6l2-3 5-6v-3l2-2h-2l-1 3 7-8 4-4 1-2 4-5 3-7 3-7v-2l-2-2 3 2 4 1 5-2 3-5 4-7 4-10 5-8 4-13 4 1 2 5 4-3 3-4 4-8 2 6 2-3 4 8 1-6 1 14 2 23 2 10 2 18v14l2 4 1-4 1 3 1 9 2 7"/><path cx="585" cy="311" r="2.5" fill="#A8633C" opacity=".7" d="m586.72 307.9-1.03 5.5-3.78-4.12z"/></g><g class="key-Austria"><circle cx="422" cy="418" r="1.5" fill="#4C5C78" opacity=".7"/><path stroke-width="1" opacity=".7" stroke="#4C5C78" fill="none" stroke-linecap="butt" d="m422 418 6 4 2 4 5 1 6 1 8-4 5 6 7 5 5 1 4-3v7l5-3 5 9v-1l6-4 3-1v-2l2 3 3-4 1-7 2 1 3 6h2l3 3h4l4-5 3-2 2 12v5h3l3-5h3l3-3 4 6h5l4-5 1-2h2l1-3 3 1 2 1h4l4 2h2l-5 12 3-6 3-1v6-2 3l2-1 2 4"/><path cx="567" cy="457" r="2.5" fill="#4C5C78" opacity=".7" d="M568.12 453.65v5.59l-4.47-3.36z"/></g><g class="key-Belgium"><circle cx="434" cy="283" r="1.5" fill="#4C5C78" opacity=".7"/><path stroke-width="1" opacity=".7" stroke="#4C5C78" fill="none" stroke-linecap="butt" d="m434 283 3 19 4 4 4-5 7 6 7 11 4 30 5 6 7 22 4-7-2 30 7-3v-1l3-2 3-11 5-1-2-4h2v17l3-15h1l2 16 2 1 5-1 4-4 3-10 2 5 1 11-1 5 3-6 3 5 2 4 4 5 2 1 4 10 4-7 1 3 2 11v2l4 5 2 4 2 1 3 5v1l-3 15 2-7 1 2v2l-1-1 2 1h1v2l2 1h1"/><path cx="558" cy="461" r="2.5" fill="#4C5C78" opacity=".7" d="m555.5 458.5 5 2.5-5 2.5z"/></g><g class="key-Brazil"><circle cx="279" cy="486" r="1.5" fill="#932834" opacity=".7"/><path stroke-width="1" opacity=".7" stroke="#932834" fill="none" stroke-linecap="butt" d="M279 486h70l8-1h3l3-1h12-9l-6-1 3-1 7-1h7-2 1l-7 1 1-1-1 1 5-1h23l4 1 1-1h10l5 1 7-1h6v2l9-2h6l2-1h4l-15 1v-1l1 1"/><path cx="437" cy="481" r="2.5" fill="#932834" opacity=".7" d="m437 477.46 1.77 5.3-5.3-1.76z"/></g><g class="key-Bulgaria"><circle cx="341" cy="415" r="1.5" fill="#4C5C78" opacity=".7"/><path stroke-width="1" opacity=".7" stroke="#4C5C78" fill="none" stroke-linecap="butt" d="m341 415 8-2 5-6 2-6h4l6-8 3 2 5-2h4l3 2 8-4 3 7h-2l3-5 4-3-4-5 3-1 3-5-2 1h4l-4-5 3-3-1 7-2-2-13 17-8 9-7-5 2-8 4 7 5-1h-10l1-14 5 4-5 17 7 6 5-12 8 7 8-11 8 3 10 2 9-3 9-12 8 4-3 16 2-8 4-17v15l2 13 2-6 5-3 5 11 5-6 4 8"/><path cx="469" cy="410" r="2.5" fill="#4C5C78" opacity=".7" d="M470.12 406.65v5.59l-4.47-3.36z"/></g><g class="key-Canada"><circle cx="457" cy="409" r="1.5" fill="#E04E4B" opacity=".7"/><path stroke-width="1" opacity=".7" stroke="#E04E4B" fill="none" stroke-linecap="butt" d="m457 409 5 3 2 2 4-5 4 4 2-5 4 6 5 5 7-1h3l1 3 4-12 3-20 3 18 4 5v-15l2-1-5-5 2-3 6-10 5 5 1 9 4-6 4-6v2l-1 7-4 4 2 11 4-4 3-3 1-1 4-3 3-6 6 5 5-4 1-3h2l2 1 3 7 2 1 3 4 1-3v6l-4 15 2-1 3 8 1 4 1 3 2 3v4h3v9"/><path cx="572" cy="446" r="2.5" fill="#E04E4B" opacity=".7" d="m574.5 443.5-2.5 5-2.5-5z"/></g><g class="key-Chile"><circle cx="360" cy="475" r="1.5" fill="#932834" opacity=".7"/><path stroke-width="1" opacity=".7" stroke="#932834" fill="none" stroke-linecap="butt" d="M360 475h9l2 1h3l1-1 7 1-3 2h-9l-18 3h2l9-1h15l8-1h5l-19 3-5-1 5-2 4 1 6-1 6-3 10-4 2-3 6 4 11 2h5l3-2 9-1 6-6 5-7 2 2h-3l3 6 1 5h1l2 1 5-2h4l6-4 3-3 2-2-4 3 5-3 5-7 4-5 4-5h1l1 2h1v-1l2 2"/><path cx="490" cy="448" r="2.5" fill="#932834" opacity=".7" d="m490 444.46 1.77 5.3-5.3-1.76z"/></g><g class="key-China"><circle cx="156" cy="473" r="1.5" fill="#2D8587" opacity=".7"/><path stroke-width="1" opacity=".7" stroke="#2D8587" fill="none" stroke-linecap="butt" d="m156 473 1-1-3 2-5 1 8-3 12-4 4-2-2-1h7v1l6-2-6-1 5-2 11-2h8l4-1h2l10-1 5-2 11-2 8-3 5-1 8-2 4-3-1-1h-1l3-1 6-2 10-3 7-2 8-1 6-2 3 2v1l4-1 7-1 6-2 8-5 6-12 9-12 10-14 11-9 9-9 4-2 8-5 12-4 6-10 5-1 7-2h6l3 4 3 2h2l3-1"/><path cx="429" cy="351" r="2.5" fill="#2D8587" opacity=".7" d="m425.84 349.42 5.53.79-3.95 3.95z"/></g><g class="key-Colombia"><circle cx="299" cy="478" r="1.5" fill="#932834" opacity=".7"/><path stroke-width="1" opacity=".7" stroke="#932834" fill="none" stroke-linecap="butt" d="M299 478h3l1-1 4 2 4-1h4l4 3 6-1h5l4-1h5l8 1h3l3-1h-3l2-1h1l4 1 4-3 2 3 2-1 2 6v-1l3-4 4-1 4-1 4 2v2l3-1h-1l-7 2h2l2 1h7l4 2 6-5 6 1 3-3 1 1 3-1 6 2 3-2h4l4-1 2 1 1-1v3l2 1"/><path cx="433" cy="481" r="2.5" fill="#932834" opacity=".7" d="m431.88 477.65 3.36 4.47h-5.6z"/></g><g class="key-Cyprus"><circle cx="313" cy="489" r="1.5" fill="#4C5C78" opacity=".7"/><path stroke-width="1" opacity=".7" stroke="#4C5C78" fill="none" stroke-linecap="butt" d="M313 489h57-41 83l4-14 4 5 6-8 9 7 8 1 6 1-1 2 8-5v2l5-3 10-1 1 1 2 3 6 7 5-1 6-1 4-2 4 1h11l4 2h7l-5 1-2 1-5 1h-7v-1h2l3 1 4-1 3-1"/><path cx="514" cy="487" r="2.5" fill="#4C5C78" opacity=".7" d="m510.84 485.42 5.53.79-3.95 3.95z"/></g><g class="key-Denmark"><circle cx="463" cy="410" r="1.5" fill="#4C5C78" opacity=".7"/><path stroke-width="1" opacity=".7" stroke="#4C5C78" fill="none" stroke-linecap="butt" d="m463 410 2-10 3 13 4 9 6 6 2 12 2 19h5l4-16-2 3-1 2 7-16 1-8 2-7 4-14-1-36-1 25 3-20 3 5 5-6 5-26 4-2 1 3 1 9v24l1-10 2-42 3 27v-6l6-10 4 25 3-46 4 45 3 19 4 18 4 14 1-4h1l1-28 3 25 3 13 5-35 1 19v10l-6 2 2 4 2 11v14-13l2 11 1 16v-7l2 10h2"/><path cx="576" cy="461" r="2.5" fill="#4C5C78" opacity=".7" d="m573.5 458.5 5 2.5-5 2.5z"/></g><g class="key-Ecuador"><circle cx="294" cy="489" r="1.5" fill="#932834" opacity=".7"/><path stroke-width="1" opacity=".7" stroke="#932834" fill="none" stroke-linecap="butt" d="M294 489h-1 57-7 4-11 9-3 19-7 33-1 23-5 1"/><path cx="405" cy="489" r="2.5" fill="#932834" opacity=".7" d="m402.5 486.5 5 2.5-5 2.5z"/></g><g class="key-Egypt"><circle cx="206" cy="487" r="1.5" fill="#923E8B" opacity=".7"/><path stroke-width="1" opacity=".7" stroke="#923E8B" fill="none" stroke-linecap="butt" d="m206 487-2 1-4-1h10l3 1h1l2-1h163l8 1h23l2-1h3l3-1"/><path cx="418" cy="486" r="2.5" fill="#923E8B" opacity=".7" d="m414.84 484.42 5.53.79-3.95 3.95z"/></g><g class="key-Finland"><circle cx="421" cy="450" r="1.5" fill="#4C5C78" opacity=".7"/><path stroke-width="1" opacity=".7" stroke="#4C5C78" fill="none" stroke-linecap="butt" d="m421 450 2 3 2 1 2-7 11-8 9-1 2 6 8-4 7-5 3-1 1 5-1-17 2-23 7 3 6-11 2 38 3-6 2-6 3-10 3-21 3 9 4-11h5l6 3v-5l-8 1-4 10-2-14 4-23 5 16 4-22 7 8 5 24 5 3 7 6 2-20 2-10 2-31 4 16 3 51 5-50 5 8v32h-10l3-26 2 24-2 19-1-8-1 10-1 12 2-10 3 7 2-3"/><path cx="556" cy="412" r="2.5" fill="#4C5C78" opacity=".7" d="m552.53 412.7 4.86-2.78-.7 5.55z"/></g><g class="key-France"><circle cx="442" cy="403" r="1.5" fill="#4C5C78" opacity=".7"/><path stroke-width="1" opacity=".7" stroke="#4C5C78" fill="none" stroke-linecap="butt" d="m442 403 5 7 4 2 4 3h7l5 5 5 6 4 7 5 1h2l-1 7 5-8 3 2 3-2 3-4 1 1 1 6 2-1 1 5 1 2 1 2 2 8 3 3 4 1 4-2 2 1 1-2 1 4-1 6h4l2-2 2 4 4-5 3 3 4 1 2 3h1v-1l3 1 1-1 2 2h2v1l-4 2 2-1 2 3v-3l-1 5h2l3-1 2 2"/><path cx="555" cy="476" r="2.5" fill="#4C5C78" opacity=".7" d="m555 472.46 1.77 5.3-5.3-1.76z"/></g><g class="key-Germany"><circle cx="442" cy="275" r="1.5" fill="#4C5C78" opacity=".7"/><path stroke-width="1" opacity=".7" stroke="#4C5C78" fill="none" stroke-linecap="butt" d="m442 275 3 16v9l5-2 7-4 4 3 3 8 4 5h5l1-1v17l6-10 3 7 3-2 5-11 1-4v-3l-1 4 3-7 3-7 3 1 3 11 1 2 4 2 3-2-5 13 6 22 3 15-1 8 4 4 3 7h2l3 4 4 3 3 3 5-3 3-1h1l1-1 2 2 2 5 6-4 5-3 3 8-5 10 6-7 6-1v-3l1-3 1 5 1 1 1 3 2 7 2 3"/><path cx="576" cy="404" r="2.5" fill="#4C5C78" opacity=".7" d="m576.7 400.53.69 5.55-4.86-2.77z"/></g><g class="key-Greece"><circle cx="359" cy="463" r="1.5" fill="#4C5C78" opacity=".7"/><path stroke-width="1" opacity=".7" stroke="#4C5C78" fill="none" stroke-linecap="butt" d="m359 463 6 1 5 1 7-3 11 1 9-4 7-14 13-2 4-8-5-2 6-17 5-12 3-4 6 11 2 35 1 1-1 1v-9l3-4 3-8 1 3-1-8 5-7 4-6h-1l3 4 1-3-1 1 3 1 2 1 4 2 6-5 5-3 4 3 5-4 5-2 5 3h7l7-2 1 1 7 7 5-5v4l-4-1-6 4h-10l-8-3-3 11 1 2 1 10v12l2-4 3 2"/><path cx="497" cy="445" r="2.5" fill="#4C5C78" opacity=".7" d="m496.3 441.53 2.78 4.86-5.55-.7z"/></g><g class="key-Hong-Kong"><circle cx="363" cy="485" r="1.5" fill="#2D8587" opacity=".7"/><path stroke-width="1" opacity=".7" stroke="#2D8587" fill="none" stroke-linecap="butt" d="M363 485v1h1l3 1 12 1h37-2 38l8 1 8-1 1-17 6-24 9-12-1-11 11-9 12-18 8-12 1-6 2 13 5-7 4-5 4-16 4 37-1-6 1 26 4 11-9-12 1 11 6-9v-37l1 23 2-21 8 7 7-8 6 1 5-9 1 10-4-4 6 14 4-16v2l3-6 3-5 2 21 1 1 4 7 2 1"/><path cx="587" cy="403" r="2.5" fill="#2D8587" opacity=".7" d="m585.88 399.65 3.36 4.47h-5.6z"/></g><g class="key-Hungary"><circle cx="357" cy="380" r="1.5" fill="#4C5C78" opacity=".7"/><path stroke-width="1" opacity=".7" stroke="#4C5C78" fill="none" stroke-linecap="butt" d="m357 380 6 5 6 14 1 2 3-1-1-2 5 4 2 2h5l3 4 2 4h-1l7-1h2l1 2 1-1 4-3-1 4 4 2-3 1h4l4 4-2 7-8 2-12 4-2 5 2 5 6 2 4 1 3 1 6 1 8 1 6-1 7 2 7 2 8 1 7-1 8 2 8 4h7l3-1 4 1-6 5 4-2h4l-1 1 3 3h5l4-1 2 2 5-1 6 1"/><path cx="507" cy="466" r="2.5" fill="#4C5C78" opacity=".7" d="m504.95 463.12 4.52 3.3-5.35 1.63z"/></g><g class="key-India"><circle cx="154" cy="481" r="1.5" fill="#2D8587" opacity=".7"/><path stroke-width="1" opacity=".7" stroke="#2D8587" fill="none" stroke-linecap="butt" d="m154 481-2 1h7v-1h5l4 1h-5 3l-2-1h7-1l6-1 4 1h-9l6-1h12l2-1h4l3-1 9-1h5l3-1-1-1h6l4-1h11l2-1h4l5 1 2-1h4l7-1 7-1 6-1h8l7-2 5-1 7-2h6l6-1 4-2 6-1 6-3h14l6-1 6-2"/><path cx="353" cy="455" r="2.5" fill="#2D8587" opacity=".7" d="m349.84 453.42 5.53.79-3.95 3.95z"/></g><g class="key-Indonesia"><circle cx="182" cy="488" r="1.5" fill="#2D8587" opacity=".7"/><path stroke-width="1" opacity=".7" stroke="#2D8587" fill="none" stroke-linecap="butt" d="M182 488h-7 58-2 31-7 13l3-1h29l6-1h22l7-1h4l-17-1-1-1 5-1 3-1h4l4-3 5 1 5-1 6-2 6-3 7 2h5l6-3 6-3 6-2 5-1 5 5 4-2 5-1 5-1 4-4"/><path cx="417" cy="463" r="2.5" fill="#2D8587" opacity=".7" d="m413.46 463 5.3-1.77-1.76 5.3z"/></g><g class="key-Iran"><circle cx="302" cy="488" r="1.5" fill="#2D8587" opacity=".7"/><path stroke-width="1" opacity=".7" stroke="#2D8587" fill="none" stroke-linecap="butt" d="M302 488h16l13-1h20l10 1 14-1 7-1h6l2-1h15-5l-18 1-15-1h-22l-9 1 12-1 10 1h-4l-16 1h-15 34-3 69l6-1h19l2 1h16-12l2-1-2 1h4l6-1h-4"/><path cx="460" cy="486" r="2.5" fill="#2D8587" opacity=".7" d="m462.5 488.5-5-2.5 5-2.5z"/></g><g class="key-Iraq"><circle cx="323" cy="489" r="1.5" fill="#2D8587" opacity=".7"/><path stroke-width="1" opacity=".7" stroke="#2D8587" fill="none" stroke-linecap="butt" d="M323 489h2-7 15-4 3-8 48-1 35-68 1-161 40-8 98-23 145-3 9-9"/><path cx="427" cy="489" r="2.5" fill="#2D8587" opacity=".7" d="m429.5 491.5-5-2.5 5-2.5z"/></g><g class="key-Ireland"><circle cx="372" cy="377" r="1.5" fill="#4C5C78" opacity=".7"/><path stroke-width="1" opacity=".7" stroke="#4C5C78" fill="none" stroke-linecap="butt" d="m372 377 1-15 6-8 9-29 6 9 2 80 3 4 6 6 3 2 3-3 5 11-1-1 8-2 7 4 1-7 3 4 2-2 1-3-1-4 4 3 4-9-1-7 5-23 7-2h7l9 4 3 4 5 5 3 3 7 4h22l12 5h10l12 12 11-3 6-3 5 4 4 4 7 5 5-5 5 7 2 3-6 2-5 8h3l1 2-2-7 1 5 9 1 4-4 4 2 8 7 8 9"/><path cx="615" cy="459" r="2.5" fill="#4C5C78" opacity=".7" d="m615.2 455.47 1.46 5.4-5.19-2.08z"/></g><g class="key-Israel"><circle cx="398" cy="489" r="1.5" fill="#2D8587" opacity=".7"/><path stroke-width="1" opacity=".7" stroke="#2D8587" fill="none" stroke-linecap="butt" d="M398 489h-2 58-4 17v-15l2-13-1-16 2-3 3-4 6-2 1 3-1-3 4-1 1-3 3-11v-6l3-1 7-5 2-14 2-5 1-5 1 4 6-7-3-14-2-5-2-2 3 1 2 4 4 4h5l1 5-1 5 4 2 3-1 1-9 3 24 1 8 1 3 3 13 2 7 2 5"/><path cx="536" cy="432" r="2.5" fill="#2D8587" opacity=".7" d="m537.4 428.75-.47 5.57-4.18-3.71z"/></g><g class="key-Italy"><circle cx="420" cy="472" r="1.5" fill="#4C5C78" opacity=".7"/><path stroke-width="1" opacity=".7" stroke="#4C5C78" fill="none" stroke-linecap="butt" d="m420 472 5-1 7-1h17l1 1 3 1h6l5-1h-4 14l6-2 4-3 1-3 1 2 3-4 3 1h7l4 2 3-1h3l2 1 2 3v3l3-1 4-2 3 2 2-1h6l5-2 2-1 1-1 1-1 2-3h6l-1 1-7 6 3-2 1-2-4-1-3 4h-1l1 2 1 2 2 3 1 1"/><path cx="541" cy="474" r="2.5" fill="#4C5C78" opacity=".7" d="m541 470.46 1.77 5.3-5.3-1.76z"/></g><g class="key-Japan"><circle cx="391" cy="439" r="1.5" fill="#2D8587" opacity=".7"/><path stroke-width="1" opacity=".7" stroke="#2D8587" fill="none" stroke-linecap="butt" d="m391 439 11-3 11-5 13-1 12-3 11 3 3 6 8 2 8-2-3-2 2 4 3 2 4 3 5 5 5-3 2-6 3-6 3 3 2 1 3-6 5-2 2 3 4-1 7-4h5l5-2 4 1v1-1l1-3 3-2 3-1 1-2-2 3-1-3 3-5 1-2-1-5 2-2 2-2 2-4 2 2 1-5-1-2-6 15 5-11-1 5 2-5 3-4v2l2-1h1l3-2 1 2"/><path cx="555" cy="394" r="2.5" fill="#2D8587" opacity=".7" d="M556.12 390.65v5.59l-4.47-3.36z"/></g><g class="key-Kuwait"><circle cx="552" cy="489" r="1.5" fill="#2D8587" opacity=".7"/><path stroke-width="1" opacity=".7" stroke="#2D8587" fill="none" stroke-linecap="butt" d="M552 489h2-16 45-73 8-82 4-12 5-11 4-82 268l10-1 7 1h3-8l-2-1h13l3 1-5-8-5 2-2 1v-1l-9 1h-1"/><path cx="616" cy="484" r="2.5" fill="#2D8587" opacity=".7" d="m618.5 486.5-5-2.5 5-2.5z"/></g><g class="key-Malaysia"><circle cx="253" cy="488" r="1.5" fill="#2D8587" opacity=".7"/><path stroke-width="1" opacity=".7" stroke="#2D8587" fill="none" stroke-linecap="butt" d="M253 488h2-1 45-2 47l4-1h6l-4-1-2 1h11l7-5 8-1 9-1h7l9 1h8l9-1h9l6 1h-11l5-1 7-2-1-2 4-3 5-6 6-5 4-1 5-1 6-5 4-3-3-2 8-14h5l4-3 4 4h5l4-7 3-3 5-6 4-4"/><path cx="504" cy="417" r="2.5" fill="#2D8587" opacity=".7" d="m500.46 417 5.3-1.77-1.76 5.3z"/></g><g class="key-Mexico"><circle cx="333" cy="487" r="1.5" fill="#E04E4B" opacity=".7"/><path stroke-width="1" opacity=".7" stroke="#E04E4B" fill="none" stroke-linecap="butt" d="M333 487h17l4-1h12l3-1h3l2 1v-1h23l7 1-4-1h-6 1v-1h-6l-1 1 2-1h4l4 1h3l1-1h4l-9-1 5-1h23l-1-1 1-4 1 3h5l3-2 5-1 3 1 1 1h-6l6-2 3-1 4 1v1h3l2-2 1 2"/><path cx="456" cy="478" r="2.5" fill="#E04E4B" opacity=".7" d="M457.12 474.65v5.59l-4.47-3.36z"/></g><g class="key-Morocco"><circle cx="223" cy="487" r="1.5" fill="#923E8B" opacity=".7"/><path stroke-width="1" opacity=".7" stroke="#923E8B" fill="none" stroke-linecap="butt" d="M223 487h20l1-1h28l7 1-5-1h9-4 6l5-1-5-1h16-7l10-1-8-1 11-1h-3l7-1h-1l1-1 7-2h8l4-1h10l3 2 5-1 4 3h3l5-1h2l4 1 2-3 4-1h4l2-2"/><path cx="378" cy="474" r="2.5" fill="#923E8B" opacity=".7" d="m374.46 474 5.3-1.77-1.76 5.3z"/></g><g class="key-Netherlands"><circle cx="450" cy="415" r="1.5" fill="#4C5C78" opacity=".7"/><path stroke-width="1" opacity=".7" stroke="#4C5C78" fill="none" stroke-linecap="butt" d="m450 415 1 8 5 3 6 4 6 9 5 14 3 9 3 4h4l4 1-1 4 4-5h3l2-4 1 2 1-4-2-3-1-5 1-1 3-7h3l3-1 1-2 2-9 5 1 3-3 3 5h3l3-3 4-2 4 3 5 2 5-1 6 7 5-2 2-3v-1l3 1 3 3 4 2 5-4 2 3-4 3h2l2 1-2-5h-1l2-5 1-11 2 4 3 7 2 6"/><path cx="579" cy="440" r="2.5" fill="#4C5C78" opacity=".7" d="m580.58 436.84-.79 5.53-3.95-3.95z"/></g><g class="key-New-Zealand"><circle cx="462" cy="425" r="1.5" fill="#A8633C" opacity=".7"/><path stroke-width="1" opacity=".7" stroke="#A8633C" fill="none" stroke-linecap="butt" d="m462 425 5 3-7 6-2 4 10-1-3 1 4 6h3l5-5h4l-3 3 1-1-6 3v3l3 5v-1h5l1 1 2-3 4 3v3l2-5v7-6l-2 2-3 2v-3l4 1 6 3h3l3 1 2-2 1 3h4l5 2 1-7 4 1 3-15 4-1 2-5 2 2 3 13-1-9-1 12 2 6h1l2-8 2 5 1 3h1l2 6 2-1 2-2"/><path cx="545" cy="460" r="2.5" fill="#A8633C" opacity=".7" d="m541.46 460 5.3-1.77-1.76 5.3z"/></g><g class="key-Norway"><circle cx="436" cy="468" r="1.5" fill="#4C5C78" opacity=".7"/><path stroke-width="1" opacity=".7" stroke="#4C5C78" fill="none" stroke-linecap="butt" d="m436 468 3 2 6-1h2l4-2 1-1 5 2 5-2 4-1 4-3 6 2 6 1 4 3 4-1 4-5 6 2v1l4-1 6-3h6l4 3 1 1v3l2 1 7 2h7l6-1 8-2 8-2h9l9 1 6-2 5 2 6-1 5 3 5 2 4 1 7-2 6 3 5 2 6-1h3v3l2-4 4-2 1 1v1l1-1 1 2v-1h2"/><path cx="646" cy="473" r="2.5" fill="#4C5C78" opacity=".7" d="m643.5 470.5 5 2.5-5 2.5z"/></g><g class="key-Oman"><circle cx="190" cy="489" r="1.5" fill="#2D8587" opacity=".7"/><path stroke-width="1" opacity=".7" stroke="#2D8587" fill="none" stroke-linecap="butt" d="M190 489h149-2 6-21 40-15 56-2 5-5 126l11-1 10 1h23l5-1h-6l-6-1-7 1-2-1h-7"/><path cx="548" cy="487" r="2.5" fill="#2D8587" opacity=".7" d="m550.5 489.5-5-2.5 5-2.5z"/></g><g class="key-Pakistan"><circle cx="154" cy="486" r="1.5" fill="#2D8587" opacity=".7"/><path stroke-width="1" opacity=".7" stroke="#2D8587" fill="none" stroke-linecap="butt" d="M154 486h12l4 1h8-2l-3 1h33l5-1h62l8-1h12l3-1h1l2 1h8l3 1 3-1h9l4-1 2-2"/><path cx="328" cy="483" r="2.5" fill="#2D8587" opacity=".7" d="m324.46 483 5.3-1.77-1.76 5.3z"/></g><g class="key-Peru"><circle cx="333" cy="488" r="1.5" fill="#932834" opacity=".7"/><path stroke-width="1" opacity=".7" stroke="#932834" fill="none" stroke-linecap="butt" d="M333 488h7-5 11l3-1h5l-1 1h-6 8-22 18-39l1-1h-3 29-2l2-1h-1 5l4-1h11l7 1 9-1h9v1h30l4-1h5"/><path cx="422" cy="485" r="2.5" fill="#932834" opacity=".7" d="m419.5 482.5 5 2.5-5 2.5z"/></g><g class="key-Philippines"><circle cx="241" cy="488" r="1.5" fill="#2D8587" opacity=".7"/><path stroke-width="1" opacity=".7" stroke="#2D8587" fill="none" stroke-linecap="butt" d="M241 488h4l2 1 2-1h4l3 1h7v-1h24-1l-12-1-11-1 1 1h12-4 8l5-1 4-1h-2 2l3-2h2l2 1h10l4-1h5l6-1 3-1 1 1 7-1 3-1h6l6-2h5l5-1 6-1 5-2 6-1"/><path cx="374" cy="473" r="2.5" fill="#2D8587" opacity=".7" d="m371.12 470.95 5.35 1.64-4.52 3.29z"/></g><g class="key-Poland"><circle cx="339" cy="297" r="1.5" fill="#4C5C78" opacity=".7"/><path stroke-width="1" opacity=".7" stroke="#4C5C78" fill="none" stroke-linecap="butt" d="m339 297 6-1 3-2 6-8-2-8 5-7 7-3 8-9 7 1 5-4 5-17 1-9 2-6 3-10-4-1-4-14-7 34-2-6 4 3 4-9v-4l2-6-2-8 2 9-2 13-12 55-8 2 4 8 5 3 7 13 9-2 7-4 9 4 6 19 6 6 7 12 2 2 4 2 5-4 7 4 5-2 8-6 10 4 5 2 5 9 5-9h7l1 10 2-6 4 10 4 2 4-2 5-1h6"/><path cx="515" cy="356" r="2.5" fill="#4C5C78" opacity=".7" d="m512.5 353.5 5 2.5-5 2.5z"/></g><g class="key-Portugal"><circle cx="345" cy="482" r="1.5" fill="#4C5C78" opacity=".7"/><path stroke-width="1" opacity=".7" stroke="#4C5C78" fill="none" stroke-linecap="butt" d="M345 482h23l3 1h11l8 1h9l12-2v2h-9 5l6 1 3-1h6l5 1 1-1 2 1v-1h-3l3-3 5-7 7-5 8-3 6-2 5-5 5-1h4l-1-3 2-1 3-8 4 3 5 4h5l5-1h3l2 6 1-4-1 2 2 1 1-1 2 1 4 4v4l-3-4 2 12-1-6-4-6-1 2h2l2-6 2 4 4-4 3 5"/><path cx="513" cy="462" r="2.5" fill="#4C5C78" opacity=".7" d="m513.86 458.57.43 5.57-4.72-3z"/></g><g class="key-Qatar"><circle cx="562" cy="489" r="1.5" fill="#2D8587" opacity=".7"/><path stroke-width="1" opacity=".7" stroke="#2D8587" fill="none" stroke-linecap="butt" d="M562 489h40-13 32-46 3-162 301-1 2-2"/><path cx="716" cy="489" r="2.5" fill="#2D8587" opacity=".7" d="m713.5 486.5 5 2.5-5 2.5z"/></g><g class="key-Romania"><circle cx="225" cy="466" r="1.5" fill="#4C5C78" opacity=".7"/><path stroke-width="1" opacity=".7" stroke="#4C5C78" fill="none" stroke-linecap="butt" d="m225 466 11-2 10-2 6-2 5-4 10-3 7-1 13-2 13-4v-2l1-1h17l9-5 1-4v-1l-1-2 4 3 6-9 7 1-1-3h2l1-5-1-5h-8l-7 22-12 8-5 1h14l12-2h8v4l-1 6 4 5 8-2 12-1 11-3 9-5h14l8 2 15-6 13-1 15 2-4 9 4 2 6-6v3l5 8h3l5-1-9 3h8l6 1"/><path cx="479" cy="462" r="2.5" fill="#4C5C78" opacity=".7" d="m476.95 459.12 4.52 3.3-5.35 1.63z"/></g><g class="key-Saudi-Arabia"><circle cx="382" cy="489" r="1.5" fill="#2D8587" opacity=".7"/><path stroke-width="1" opacity=".7" stroke="#2D8587" fill="none" stroke-linecap="butt" d="M382 489h94-5 12-2 5-60 65-1 11l-1-1h89-4 1"/><path cx="586" cy="488" r="2.5" fill="#2D8587" opacity=".7" d="m583.5 485.5 5 2.5-5 2.5z"/></g><g class="key-Singapore"><circle cx="291" cy="488" r="1.5" fill="#2D8587" opacity=".7"/><path stroke-width="1" opacity=".7" stroke="#2D8587" fill="none" stroke-linecap="butt" d="M291 488h124l9 1 9-1h25-1 72l7 1h7-4 13-2l3-1h37-2 23l4-4 2-3 3-8 1 7"/><path cx="621" cy="480" r="2.5" fill="#2D8587" opacity=".7" d="m623.12 477.17-1.77 5.3-3.18-4.6z"/></g><g class="key-South-Africa"><circle cx="332" cy="360" r="1.5" fill="#923E8B" opacity=".7"/><path stroke-width="1" opacity=".7" stroke="#923E8B" fill="none" stroke-linecap="butt" d="m332 360 2 5 4-1 2-2 4 2 3-1 2-5-1 3 2-5 4-3-1-5v-4l-3-1v7l2-5 4-8 3-23-5-12-5 3 2-9h-6l-2 2-1 1 2-11v18l-4-2-1 7-3 4 2 4 4-2 4-3 6 1 3-1 2 8 3-5 5 4 4 1 5 10 4-15 6-14 6 17 7-1 7-3 5-17-2 2 5 4 5 8 2 7 2 2v13l-1-9 1 5v10"/><path cx="421" cy="341" r="2.5" fill="#923E8B" opacity=".7" d="m423.5 338.5-2.5 5-2.5-5z"/></g><g class="key-South-Korea"><circle cx="205" cy="471" r="1.5" fill="#2D8587" opacity=".7"/><path stroke-width="1" opacity=".7" stroke="#2D8587" fill="none" stroke-linecap="butt" d="m205 471 11-2 7 2 12 1h13l9-1h15l14-4 8-1h7l13-3 11-2 10 1 8-5-4-4 7-4h7l13-2 10-8 8-5 11-3h12l12-3 7 2 10 2h9l5 2 6-4 8-1 9-2 7-9 4-6-8-2 11-3 8-10 4-5 6-7 2-4 5-3 3-3 5-4 4-5 2-13-1-5 6-17 3-12 2 7 3-1 3-5 2-1 3 8 3-9 3-1"/><path cx="553" cy="317" r="2.5" fill="#2D8587" opacity=".7" d="m549.84 315.42 5.53.79-3.95 3.95z"/></g><g class="key-Spain"><circle cx="363" cy="458" r="1.5" fill="#4C5C78" opacity=".7"/><path stroke-width="1" opacity=".7" stroke="#4C5C78" fill="none" stroke-linecap="butt" d="m363 458 7 3 5-1h5l9 1 3-2h15l8 1 8 1 2-2 4 1 2-2 2 5 1-4 3-4-1-7 1-4 2-3 3 1 5-2 7 2 7 6 7-9h6l4-2 2-1-1 6 3-2h5l3 8 5-6 6 3 6-5 6-3 5 5 3-6 2 5 3-2 3 2 4 7 3-4v15l-4 9v6-13l-4-6-1 9 2-1 4-4-7 7 3-7 2 6"/><path cx="531" cy="465" r="2.5" fill="#4C5C78" opacity=".7" d="m532.58 461.84-.79 5.53-3.95-3.95z"/></g><g class="key-Sri-Lanka"><circle cx="217" cy="489" r="1.5" fill="#2D8587" opacity=".7"/><path stroke-width="1" opacity=".7" stroke="#2D8587" fill="none" stroke-linecap="butt" d="M217 489h-4 18-3 31l4-1h12l4 1h-1 19-5 39-4 8-4l2-1h43l8-1 10-1h3l5-2 4-1 4-1h6"/><path cx="416" cy="482" r="2.5" fill="#2D8587" opacity=".7" d="m413.5 479.5 5 2.5-5 2.5z"/></g><g class="key-Sweden"><circle cx="461" cy="459" r="1.5" fill="#4C5C78" opacity=".7"/><path stroke-width="1" opacity=".7" stroke="#4C5C78" fill="none" stroke-linecap="butt" d="m461 459 1 2h3l4 4 5 1 6-1v2l3 3 4-2 3-2 3-1v1l-2 4h2l4-3 2 1-1 3 2-2 2-5 4-5 2-6 2-2 3 1 2 1 2 2 1-1-2 1-2 2h-3 9l2-4 3 6 5-1 6 2 5-1 1-2 3-2h8l4 3 5-3 4 2-1 1-6 9 7-8-1 3-1 4 2 1 3 1h5"/><path cx="574" cy="468" r="2.5" fill="#4C5C78" opacity=".7" d="m571.5 465.5 5 2.5-5 2.5z"/></g><g class="key-Switzerland"><circle cx="477" cy="466" r="1.5" fill="#4C5C78" opacity=".7"/><path stroke-width="1" opacity=".7" stroke="#4C5C78" fill="none" stroke-linecap="butt" d="m477 466 3 4 3 3 3 1 5 2 6 2 5 3 4 2h3l-1 1-6 1h10l3-2 1-3v1l2 1 1-1h4l6 1h3l3 1h6v2l1 1h5l2 1h34l6-1h9l-2 1h13"/><path cx="609" cy="487" r="2.5" fill="#4C5C78" opacity=".7" d="m606.5 484.5 5 2.5-5 2.5z"/></g><g class="key-Taiwan"><circle cx="253" cy="465" r="1.5" fill="#2D8587" opacity=".7"/><path stroke-width="1" opacity=".7" stroke="#2D8587" fill="none" stroke-linecap="butt" d="m253 465 7 1h9l6 1 8 2 9 1 12 3 12 1 12 1h-1l4 2 12-1 9-1 13-1 6-4 6-3 5 2 2-3 8-8 10-4 4-1 12-8 16-3 4-6 8-2 5 1 8-4 8-9 6-7 7-2 6-2 5-10 6-12 3-8 7-3 5-19-2-5 5-11 4-4 6-9 6-2 5-7 7-7v8l-3 8 11-11 4-6 2 5 2-3 4-1 1 5 1 2 4-5 3-1"/><path cx="572" cy="315" r="2.5" fill="#2D8587" opacity=".7" d="m568.84 313.42 5.53.79-3.95 3.95z"/></g><g class="key-Thailand"><circle cx="215" cy="488" r="1.5" fill="#2D8587" opacity=".7"/><path stroke-width="1" opacity=".7" stroke="#2D8587" fill="none" stroke-linecap="butt" d="M215 488h83l3-1h9l4-2 4 1 9-2h13l12-1 10-1 8-2h8l7-1 7-1 7-2 4-2h-5l-12 3 4-1h3l3-1 5-1h6l6-2 3-1 5-1 4-3 1-1h-2l7-1 8-1 2 1 1-3 3 1 3-1h5l4-1"/><path cx="457" cy="461" r="2.5" fill="#2D8587" opacity=".7" d="m453.97 459.18 5.46 1.21-4.25 3.64z"/></g><g class="key-Trinidad-and-Tobago"><circle cx="411" cy="489" r="1.5" fill="#E04E4B" opacity=".7"/><path stroke-width="1" opacity=".7" stroke="#E04E4B" fill="none" stroke-linecap="butt" d="M411 489h69-21 5-27 1-1 1-7 100-7 2-1 4-9"/><path cx="520" cy="489" r="2.5" fill="#E04E4B" opacity=".7" d="m517.5 486.5 5 2.5-5 2.5z"/></g><g class="key-Turkey"><circle cx="275" cy="477" r="1.5" fill="#2D8587" opacity=".7"/><path stroke-width="1" opacity=".7" stroke="#2D8587" fill="none" stroke-linecap="butt" d="m275 477 11-1 3 1h6l4-1 3-1h8l5-1h10l8-1h12-3l-2-1h2l3-1 2-2 5-1 3-4 6-2 8-1 3 2v-3l8-2 1-1 6 1 9 2-7 1 8-1 8-3 8-3 4-1-7 3 8-3-10 6h8l7-2 9-2 9 1 7-6 5-4h1l-8-1h10l10-3 1-3 4 8 3-6 3 3-12-4 7-1 2-1"/><path cx="474" cy="438" r="2.5" fill="#2D8587" opacity=".7" d="M470.65 436.88h5.59l-3.36 4.47z"/></g><g class="key-United-Arab-Emirates"><circle cx="564" cy="489" r="1.5" fill="#2D8587" opacity=".7"/><path stroke-width="1" opacity=".7" stroke="#2D8587" fill="none" stroke-linecap="butt" d="M564 489h2-10 18-13 3-17 24-91 102l6-1 6-2h12l9-1h2l3-2-4 3-3-2-9 1 2-4 10 3 5-11 4-4 3-2 4 3 2-1 1-3-1 2"/><path cx="634" cy="468" r="2.5" fill="#2D8587" opacity=".7" d="m637.35 466.88-4.47 3.36v-5.6z"/></g><g class="key-United-Kingdom"><circle cx="449" cy="270" r="1.5" fill="#4C5C78" opacity=".7"/><path stroke-width="1" opacity=".7" stroke="#4C5C78" fill="none" stroke-linecap="butt" d="m449 270 2 12 2 14 4 1 1 6 3 11 1 20 4 20 7-11-1 17 2-2 3-1 4 4 3-10-2 10h-2l2 9 4-1 3 35 3-28 5-9 5-3 5 4 3 5v1h-2v7l2 14 4 7 3 4 2 5 4 9 3 2 3 7 4-3 2-4 3 6 3-4 2 3 3-1 1-5 2 4-1 6-7 10 2-2 1-11 2 3 2 12 2 10 1 19 1 3 1 2"/><path cx="553" cy="477" r="2.5" fill="#4C5C78" opacity=".7" d="M554.12 473.65v5.59l-4.47-3.36z"/></g><g class="key-United-States"><circle cx="486" cy="348" r="1.5" fill="#E04E4B" opacity=".7"/><path stroke-width="1" opacity=".7" stroke="#E04E4B" fill="none" stroke-linecap="butt" d="m486 348 6-5 2 4 4-3h3l-2 3 2 9 5-4 6-9-2 4-1 2 5-9 4-2 5 3 2-13-1-2 2-4-4 8 4-4 7-11 4-2 3 3 3-5 3-7h3l1 1-2 3h3l1-4 4 1h1l3-6 4-1h4l4 3 3-6v7l1 2 2-2 3 1 3-1 2 4 1-1-1 5-5 23 2-8 1 11 2 19 1-4 2 1 2 19 1 11 2 4 3 5"/><path cx="597" cy="391" r="2.5" fill="#E04E4B" opacity=".7" d="m597.86 387.57.43 5.57-4.72-3z"/></g><g class="key-Venezuela"><circle cx="440" cy="488" r="1.5" fill="#932834" opacity=".7"/><path stroke-width="1" opacity=".7" stroke="#932834" fill="none" stroke-linecap="butt" d="M440 488h-2 9l-1-1 3-1 3 1h12l-1 1-3-1-6 1h-23l4-1h1l3 1-13-2h4l9 3h5l-2-1h-4l3 1-2-1h5-10 5-23l18 1 10-1h22-6 26-80"/><path cx="406" cy="488" r="2.5" fill="#932834" opacity=".7" d="m408.5 490.5-5-2.5 5-2.5z"/></g><g class="key-Vietnam"><circle cx="169" cy="486" r="1.5" fill="#2D8587" opacity=".7"/><path stroke-width="1" opacity=".7" stroke="#2D8587" fill="none" stroke-linecap="butt" d="M169 486h-27 7-1l3-1 7 1 5-1h-8l-11-2 15 1 2-1-2 1-2-1-5 1h23l2-1 4 1 3 1h14l6 1 7-1 9-1h8l7-1 4-1 4 2 5-1 6-1 6-1 7-1 6-2 7-1 6 5 6-1 5-6 4 1 6-4 5-3 5 1 5-1 5-3 7-6 5-2h7l7-9"/><path cx="353" cy="449" r="2.5" fill="#2D8587" opacity=".7" d="m349.5 449.44 5.03-2.41-1.1 5.48z"/></g><g class="key-Czechia"><circle cx="382" cy="107" r="1.5" fill="#4C5C78" opacity=".7"/><path stroke-width="1" opacity=".7" stroke="#4C5C78" fill="none" stroke-linecap="butt" d="m382 107 6-15 5 7 5 11 5 3 5-5 4-5 3-6 4 1 1 2 2 13v2l-2-3 2 2 2-8 3 8 3 2 3 4 2-4 2 15 1 67-12 24 1 18 1 7 5 13h15l1 14 1 15 3 17 7-26 5 4 4 3 5-3 8-1 8 8 9-7 7 2 4 12-5 15 4-5 3 4-1 7-1 8 3 5 5 1 3-1 5 8 2 2"/><path cx="528" cy="342" r="2.5" fill="#4C5C78" opacity=".7" d="m528 338.46 1.77 5.3-5.3-1.76z"/></g><g class="key-Bangladesh"><circle cx="122" cy="489" r="1.5" fill="#2D8587" opacity=".7"/><path stroke-width="1" opacity=".7" stroke="#2D8587" fill="none" stroke-linecap="butt" d="m122 489-17-1h-2 11-4 2-2 7-3 1-2 3l4 1 1-1h16l3 1h5l4-1h15l6 1 6-1h90l6-1h22"/><path cx="294" cy="487" r="2.5" fill="#2D8587" opacity=".7" d="m291.5 484.5 5 2.5-5 2.5z"/></g><g class="key-Azerbaijan"><circle cx="380" cy="487" r="1.5" fill="#2D8587" opacity=".7"/><path stroke-width="1" opacity=".7" stroke="#2D8587" fill="none" stroke-linecap="butt" d="M380 487h10-27l-2 1h-30l-31 1-26-1-16 1h142l26-1 11 1h11l6-1 1 1h8-7 1"/><path cx="457" cy="489" r="2.5" fill="#2D8587" opacity=".7" d="m454.5 486.5 5 2.5-5 2.5z"/></g><g class="key-Belarus"><circle cx="409" cy="467" r="1.5" fill="#4C5C78" opacity=".7"/><path stroke-width="1" opacity=".7" stroke="#4C5C78" fill="none" stroke-linecap="butt" d="m409 467 2-2h1l-1-1h7l-4 3-3 1-14 4-11 2-15 4-15 1 2-2 12-1 9 2h8l4 3 5 1h19l10-1 10 1 9-1 10 1h-1 8l5-2h5l-4 1-3-1h3l4-5"/><path cx="471" cy="475" r="2.5" fill="#4C5C78" opacity=".7" d="m467.49 475.39 5.07-2.34-1.17 5.46z"/></g><g class="key-Estonia"><circle cx="456" cy="103" r="1.5" fill="#4C5C78" opacity=".7"/><path stroke-width="1" opacity=".7" stroke="#4C5C78" fill="none" stroke-linecap="butt" d="m456 103 3-1 5 21 7-11-10 17-13 34-18 36-9 72-1-7 7 2 6-11 12 1 4 21-2 19 11-12 6 2 6 4 7-33 6-8 9 9 10 11 8-46-8 12-21 23 1-66 7-21 6 20 2-23 3-4 2 31 2-3 6-30 5-24"/><path cx="515" cy="138" r="2.5" fill="#4C5C78" opacity=".7" d="m512.04 139.94 3.47-4.39 1.43 5.4z"/></g><g class="key-Kazakhstan"><circle cx="414" cy="242" r="1.5" fill="#2D8587" opacity=".7"/><path stroke-width="1" opacity=".7" stroke="#2D8587" fill="none" stroke-linecap="butt" d="m414 242 1-9-2-7 8-8-1 14-2 18-14 5-6-3-10 21-14 2-7 39 2 17 4 20 5 9 11 8 15-31 11-1 11-14 10-10h11l11-8 9-16 3-15 1 21 7-13 8-15 4-6 5 6 4 6v24l3-11 4-21"/><path cx="506" cy="264" r="2.5" fill="#2D8587" opacity=".7" d="m503.08 265.99 3.39-4.45 1.52 5.38z"/></g><g class="key-Latvia"><circle cx="439" cy="460" r="1.5" fill="#4C5C78" opacity=".7"/><path stroke-width="1" opacity=".7" stroke="#4C5C78" fill="none" stroke-linecap="butt" d="m439 460 2-7-1 3h4l6 6h1l-16 3-44 2-13 2 4 5v4h3l10 1 8 3 3 1h14l8 1 10 1 10 1 12-1h13l11-1h-4l-17 1-3-2h9l6 1 4 1 4 1h18"/><path cx="501" cy="486" r="2.5" fill="#4C5C78" opacity=".7" d="m498.5 483.5 5 2.5-5 2.5z"/></g><g class="key-Lithuania"><circle cx="431" cy="465" r="1.5" fill="#4C5C78" opacity=".7"/><path stroke-width="1" opacity=".7" stroke="#4C5C78" fill="none" stroke-linecap="butt" d="m431 465 3-3 1 1h9l-2 1-7 3-7-3-28 13-20 1-11 2 7 2h7l10 1 9 1v1l5 1h8l9-1 12-2 9 1 10-1 11-2h13l4 1-17 1 4-1 10-1h6l5-1 5 1 3 1h11l5-1"/><path cx="515" cy="481" r="2.5" fill="#4C5C78" opacity=".7" d="m512.06 479.04 5.4 1.47-4.42 3.43z"/></g><g class="key-Russia"><circle cx="423" cy="348" r="1.5" fill="#4C5C78" opacity=".7"/><path stroke-width="1" opacity=".7" stroke="#4C5C78" fill="none" stroke-linecap="butt" d="m423 348 2-2v-1l1 3v5l-3 11-4 10-16 8-8 10-13 12-2 3-2 2 5 6-3 4 10-1 14-2 9 1 8-1h12l11 2 10 4 12-2 12 2 9-5-7 7 8 1 7-3 4-3 2 6v2l-3-3v2l2 4 3-2"/><path cx="503" cy="428" r="2.5" fill="#4C5C78" opacity=".7" d="m499.53 427.3 5.55-.69-2.77 4.86z"/></g><g class="key-Slovakia"><circle cx="417" cy="323" r="1.5" fill="#4C5C78" opacity=".7"/><path stroke-width="1" opacity=".7" stroke="#4C5C78" fill="none" stroke-linecap="butt" d="m417 323 4 13 2-7 2-6 1 7-4 9-18 17-8 15 7 2 6 13h9l7 2 6 6 4 9 1 5 4-2 5 2 6-6 5 1 8 7 9-4 12 9h6l-7 2h5l3 3 2 4 1 1 3 1 4 2 4 1 3-2h5"/><path cx="514" cy="427" r="2.5" fill="#4C5C78" opacity=".7" d="m511.5 424.5 5 2.5-5 2.5z"/></g><g class="key-Turkmenistan"><circle cx="342" cy="479" r="1.5" fill="#2D8587" opacity=".7"/><path stroke-width="1" opacity=".7" stroke="#2D8587" fill="none" stroke-linecap="butt" d="m342 479 7 2-12-2-3-1-7 2-20 5v4l-23-1h-9l-9-1-14 2h258"/><path cx="510" cy="489" r="2.5" fill="#2D8587" opacity=".7" d="m507.5 486.5 5 2.5-5 2.5z"/></g><g class="key-Ukraine"><circle cx="390" cy="320" r="1.5" fill="#4C5C78" opacity=".7"/><path stroke-width="1" opacity=".7" stroke="#4C5C78" fill="none" stroke-linecap="butt" d="m390 320 1 2 3 2v9l5 14-6-22-9 19-10 2-16 15-28 26h-12l-10 25v1-2h3l10-2 13 1 9-1 14-3 15 4 7-2 11-6 12-6 5 1-17 13 3-6 9-7v-3 2l-6 13-11 18 3-12 4 15 3-6"/><path cx="395" cy="424" r="2.5" fill="#4C5C78" opacity=".7" d="m391.65 425.12 4.47-3.36v5.6z"/></g><g class="key-Uzbekistan"><circle cx="359" cy="480" r="1.5" fill="#2D8587" opacity=".7"/><path stroke-width="1" opacity=".7" stroke="#2D8587" fill="none" stroke-linecap="butt" d="m359 480-4-1-4 2h7v-1h-11l-18 2-8 2h-10l-5 1h-2 8l1 1 6-1h10l7 1 8-1h6l6 1h7l8-1 8-2h8l7 1h12l5-2"/><path cx="411" cy="482" r="2.5" fill="#2D8587" opacity=".7" d="m407.75 480.6 5.57.47-3.71 4.18z"/></g><g class="key-Croatia"><circle cx="428" cy="471" r="1.5" fill="#4C5C78" opacity=".7"/><path stroke-width="1" opacity=".7" stroke="#4C5C78" fill="none" stroke-linecap="butt" d="m428 471-27 8-11 1-8 1 8 3 10 1h9l10-2h4l1 1 6-5 5-1 7-3 8-1 7-1h6l8 1 7-1 4-1-7 5v-4l2-1-2 2-1-1 3 1 4-1 4 6 5 1"/><path cx="490" cy="480" r="2.5" fill="#4C5C78" opacity=".7" d="m488.04 477.06 4.41 3.43-5.4 1.47z"/></g><g class="key-North-Macedonia"><circle cx="388" cy="421" r="1.5" fill="#4C5C78" opacity=".7"/><path stroke-width="1" opacity=".7" stroke="#4C5C78" fill="none" stroke-linecap="butt" d="M388 421h-27l-2-3-2-2 1 2 1 5 4-18 5 11 5 6-4-7 2 10 3-9 6 3 5-2 6 2 8-2 6-1v7l4 2 3-9-1 5 3 11 4 4 4 5 3 5 1-4 3 5"/><path cx="429" cy="447" r="2.5" fill="#4C5C78" opacity=".7" d="m429.86 443.57.43 5.57-4.72-3z"/></g><g class="key-Slovenia"><circle cx="467" cy="409" r="1.5" fill="#4C5C78" opacity=".7"/><path stroke-width="1" opacity=".7" stroke="#4C5C78" fill="none" stroke-linecap="butt" d="m467 409-12 7-7-3 3 3 6 5 8-2 4 5 5-7 3-1 6 6 4-2 2-5 4-6 3 4 4-1h4l6-2h7l2 3-11 6 1-1v-1l-4 4-1 2 4 14h2l3-4h5l5 2"/><path cx="523" cy="435" r="2.5" fill="#4C5C78" opacity=".7" d="m521.6 431.75 3.72 4.18-5.57.46z"/></g><g class="backgroundLabels" fill="#333" font-size="11.55" font-weight="400"><text x="439" y="482" fill="#923E8B" style="fill:#fff;stroke:#fff;stroke-linecap:round;stroke-linejoin:round;stroke-width:.25em">Algeria</text><text x="439" y="482" fill="#923E8B">Algeria</text><text x="586.37" y="321.58" fill="#A8633C" style="fill:#fff;stroke:#fff;stroke-linecap:round;stroke-linejoin:round;stroke-width:.25em">Australia</text><text x="586.37" y="321.58" fill="#A8633C">Australia</text><text x="569.24" y="467.25" fill="#4C5C78" style="fill:#fff;stroke:#fff;stroke-linecap:round;stroke-linejoin:round;stroke-width:.25em">Austria</text><text x="569.24" y="467.25" fill="#4C5C78">Austria</text><text x="471.24" y="420.25" fill="#4C5C78" style="fill:#fff;stroke:#fff;stroke-linecap:round;stroke-linejoin:round;stroke-width:.25em">Bulgaria</text><text x="471.24" y="420.25" fill="#4C5C78">Bulgaria</text><text x="493.54" y="457.31" fill="#932834" style="fill:#fff;stroke:#fff;stroke-linecap:round;stroke-linejoin:round;stroke-width:.25em">Chile</text><text x="493.54" y="457.31" fill="#932834">Chile</text><text x="433.74" y="349.42" fill="#2D8587" style="fill:#fff;stroke:#fff;stroke-linecap:round;stroke-linejoin:round;stroke-width:.25em">China</text><text x="433.74" y="349.42" fill="#2D8587">China</text><text x="518.74" y="485.42" fill="#4C5C78" style="fill:#fff;stroke:#fff;stroke-linecap:round;stroke-linejoin:round;stroke-width:.25em">Cyprus</text><text x="518.74" y="485.42" fill="#4C5C78">Cyprus</text><text x="558.77" y="407.84" fill="#4C5C78" style="fill:#fff;stroke:#fff;stroke-linecap:round;stroke-linejoin:round;stroke-width:.25em">Finland</text><text x="558.77" y="407.84" fill="#4C5C78">Finland</text><text x="357.74" y="453.42" fill="#2D8587" style="fill:#fff;stroke:#fff;stroke-linecap:round;stroke-linejoin:round;stroke-width:.25em">India</text><text x="357.74" y="453.42" fill="#2D8587">India</text><text x="420.54" y="459.46" fill="#2D8587" style="fill:#fff;stroke:#fff;stroke-linecap:round;stroke-linejoin:round;stroke-width:.25em">Indonesia</text><text x="420.54" y="459.46" fill="#2D8587">Indonesia</text><text x="402.02" y="489" fill="#2D8587" style="fill:#fff;stroke:#fff;stroke-linecap:round;stroke-linejoin:round;stroke-width:.25em">Iraq</text><text x="402.02" y="489" fill="#2D8587">Iraq</text><text x="618.32" y="468.51" fill="#4C5C78" style="fill:#fff;stroke:#fff;stroke-linecap:round;stroke-linejoin:round;stroke-width:.25em">Ireland</text><text x="618.32" y="468.51" fill="#4C5C78">Ireland</text><text x="537.86" y="442.42" fill="#2D8587" style="fill:#fff;stroke:#fff;stroke-linecap:round;stroke-linejoin:round;stroke-width:.25em">Israel</text><text x="537.86" y="442.42" fill="#2D8587">Israel</text><text x="331.54" y="479.46" fill="#2D8587" style="fill:#fff;stroke:#fff;stroke-linecap:round;stroke-linejoin:round;stroke-width:.25em">Pakistan</text><text x="331.54" y="479.46" fill="#2D8587">Pakistan</text><text x="520" y="356" fill="#4C5C78" style="fill:#fff;stroke:#fff;stroke-linecap:round;stroke-linejoin:round;stroke-width:.25em">Poland</text><text x="520" y="356" fill="#4C5C78">Poland</text><text x="687.01" y="489" fill="#2D8587" style="fill:#fff;stroke:#fff;stroke-linecap:round;stroke-linejoin:round;stroke-width:.25em">Qatar</text><text x="687.01" y="489" fill="#2D8587">Qatar</text><text x="591" y="488" fill="#2D8587" style="fill:#fff;stroke:#fff;stroke-linecap:round;stroke-linejoin:round;stroke-width:.25em">Saudi Arabia</text><text x="591" y="488" fill="#2D8587">Saudi Arabia</text><text x="516.02" y="133.11" fill="#4C5C78" style="fill:#fff;stroke:#fff;stroke-linecap:round;stroke-linejoin:round;stroke-width:.25em">Estonia</text><text x="516.02" y="133.11" fill="#4C5C78">Estonia</text><text x="506.94" y="259.09" fill="#2D8587" style="fill:#fff;stroke:#fff;stroke-linecap:round;stroke-linejoin:round;stroke-width:.25em">Kazakhstan</text><text x="506.94" y="259.09" fill="#2D8587">Kazakhstan</text><text x="397.24" y="419.53" fill="#4C5C78" style="fill:#fff;stroke:#fff;stroke-linecap:round;stroke-linejoin:round;stroke-width:.25em">Ukraine</text><text x="397.24" y="419.53" fill="#4C5C78">Ukraine</text></g></g><g class="ScatterColorLegend clickable" style="cursor:pointer"><g class="legendMark"><path fill="#923E8B" d="M738.09 94h9v9h-9z"/><text font-size="12.6" x="752.1" y="102.3"><tspan x="752.09" y="102.28">Africa</tspan></text></g><g class="legendMark"><path fill="#2D8587" d="M738.09 111.6h9v9h-9z"/><text font-size="12.6" x="752.1" y="119.9"><tspan x="752.09" y="119.88">Asia</tspan></text></g><g class="legendMark"><path fill="#4C5C78" d="M738.09 129.2h9v9h-9z"/><text font-size="12.6" x="752.1" y="137.5"><tspan x="752.09" y="137.48">Europe</tspan></text></g><g class="legendMark"><path fill="#E04E4B" d="M738.09 146.8h9v9h-9z"/><text font-size="12.6" x="752.1" y="155.1"><tspan x="752.09" y="155.08">North America</tspan></text></g><g class="legendMark"><path fill="#A8633C" d="M738.09 164.4h9v9h-9z"/><text font-size="12.6" x="752.1" y="172.7"><tspan x="752.09" y="172.68">Oceania</tspan></text></g><g class="legendMark"><path fill="#932834" d="M738.09 182h9v9h-9z"/><text font-size="12.6" x="752.1" y="190.3"><tspan x="752.09" y="190.28">South America</tspan></text></g></g><path stroke="#ccc" d="M738.09 198.8H830"/><g class="clickable"><g class="ConnectedScatterLegend"><text font-size="12.6" x="738.1" y="215.9" fill="#333"><tspan x="738.09" y="215.88">1965</tspan></text><text font-size="12.6" x="806.8" y="215.9" fill="#333"><tspan x="806.78" y="215.88">2018</tspan></text><path stroke="#666" stroke-width="1" d="M771.32 211.6h30.46"/><circle cx="771.32" cy="211.6" r="2" fill="#666" stroke="#ccc" stroke-width=".2"/><circle cx="781.47" cy="211.6" r="2" fill="#666" stroke="#ccc" stroke-width=".2"/><circle cx="791.62" cy="211.6" r="2" fill="#666" stroke="#ccc" stroke-width=".2"/><path cx="801.78" cy="211.6" r="3" fill="#666" stroke="#ccc" stroke-width=".2" d="m798.78 208.6 6 3-6 3z"/></g></g></g><g class="SourcesFooter" style="fill:#777"><g style="fill:#777"><text font-size="12.6" x="15" y="567.9"><tspan x="15" y="567.88">Source: Our World in Data based on BP Statistical Review of World Energy (2021), Maddison Project Database, 2020 (Bolt and van Zanden)</tspan></text></g><text font-size="12.6" x="15" y="582.5"><tspan x="15" y="582.48"><a target="_blank" style="fill:#777" href="https://ourworldindata.org/energy">OurWorldInData.org/energy</a> • <a style="fill:#777" class="cclogo" href="http://creativecommons.org/licenses/by/4.0/deed.en_US" target="_blank">CC BY</a></tspan></text></g></svg>