<svg xmlns="http://www.w3.org/2000/svg" version="1.1" style="background-color:#fff;-webkit-font-smoothing:antialiased" width="850" height="600" viewBox="0 0 850 600" font-family="Lato,'Helvetica Neue',Helvetica,Arial,sans-serif" font-size="18" text-rendering="optimizeLegibility"><g class="HeaderView"><g transform="matrix(.29 0 0 .29 774 15)"><svg className="owidLog" width="210" height="120" viewBox="0 0 210 120" fill="none" xmlns="http://www.w3.org/2000/svg"><g clip-path="url(#clip0)"><path d="M0 0h210v107.89H0V0z" fill="#002147"/><path d="M40.98 32.25c0 2.36-.38 4.53-1.12 6.51a14.26 14.26 0 01-8.1 8.4c-1.9.78-4.02 1.17-6.34 1.17a16.6 16.6 0 01-6.33-1.17 14.31 14.31 0 01-8.08-8.4 18.29 18.29 0 01-1.12-6.51c0-2.36.38-4.53 1.12-6.5.75-1.97 1.8-3.67 3.17-5.1a14.32 14.32 0 014.9-3.34c1.92-.8 4.03-1.19 6.34-1.19 2.32 0 4.43.4 6.34 1.19 1.92.8 3.56 1.9 4.93 3.34a14.87 14.87 0 013.17 5.1 18.1 18.1 0 011.12 6.5zm-4.38 0c0-1.94-.26-3.68-.8-5.22a10.91 10.91 0 00-2.24-3.89 9.68 9.68 0 00-3.52-2.46 11.95 11.95 0 00-4.62-.86c-1.68 0-3.21.28-4.6.86a9.88 9.88 0 00-3.54 2.46 10.91 10.91 0 00-2.24 3.9c-.53 1.53-.8 3.27-.8 5.2 0 1.94.27 3.68.8 5.22a11.17 11.17 0 002.24 3.9 10.01 10.01 0 003.55 2.44c1.38.56 2.9.83 4.6.83s3.24-.27 4.61-.83a9.8 9.8 0 003.52-2.44 11.17 11.17 0 002.25-3.9c.53-1.54.8-3.28.8-5.21zm26.22-6.54V48H60.5c-.56 0-.9-.27-1.05-.81l-.31-2.4a12.45 12.45 0 01-3.26 2.6c-1.2.64-2.58.96-4.13.96-1.22 0-2.3-.2-3.24-.6a6.52 6.52 0 01-2.33-1.7 7.37 7.37 0 01-1.43-2.67c-.3-1.04-.46-2.2-.46-3.45V25.7h3.91v14.22c0 1.68.38 2.99 1.15 3.91.77.93 1.96 1.39 3.54 1.39 1.16 0 2.24-.27 3.23-.82a10.42 10.42 0 002.8-2.28V25.7h3.91zm8.61 4.47a9.94 9.94 0 012.6-3.56 5.64 5.64 0 013.76-1.3c.47 0 .92.05 1.34.15.44.1.83.27 1.17.49l-.3 2.92c-.09.37-.3.55-.66.55-.2 0-.5-.04-.9-.13a6.21 6.21 0 00-3.24.18 4.23 4.23 0 00-1.47.92c-.42.4-.81.9-1.17 1.5-.33.58-.64 1.26-.92 2.02V48H67.7V25.71h2.25c.42 0 .72.08.88.25.16.16.27.44.33.83l.26 3.39zm61.16-13.7L122.75 48h-3.82l-7.99-24.05a21.95 21.95 0 01-.42-1.58 38.36 38.36 0 01-.44 1.58L102.05 48h-3.83L88.4 16.47h3.54c.38 0 .7.1.95.29.26.2.43.43.5.73l6.52 21.9.28 1.28.29 1.46.3-1.46.38-1.27 7.41-21.91c.1-.25.26-.48.51-.69.27-.22.58-.33.95-.33h1.23c.38 0 .69.1.92.29a1.77 1.77 0 01.53.73l7.4 21.9a28.4 28.4 0 01.68 2.62 29.52 29.52 0 01.52-2.61l6.54-21.91a1.31 1.31 0 01.48-.7c.27-.21.58-.32.95-.32h3.32zm9.35 8.88c1.63 0 3.1.27 4.4.82a9.43 9.43 0 015.46 5.94c.5 1.4.74 2.98.74 4.73 0 1.76-.25 3.34-.74 4.75a9.43 9.43 0 01-5.46 5.92c-1.3.52-2.77.79-4.4.79-1.64 0-3.12-.27-4.44-.8a9.42 9.42 0 01-3.35-2.3c-.92-1-1.63-2.2-2.13-3.61-.49-1.41-.73-3-.73-4.75s.24-3.33.73-4.73c.5-1.43 1.2-2.64 2.13-3.63a9.4 9.4 0 013.35-2.31c1.32-.55 2.8-.82 4.44-.82zm0 19.89c2.2 0 3.84-.73 4.93-2.2 1.08-1.48 1.63-3.54 1.63-6.18 0-2.66-.55-4.72-1.63-6.2-1.09-1.49-2.73-2.23-4.93-2.23-1.12 0-2.09.2-2.93.57a5.71 5.71 0 00-2.06 1.65 7.5 7.5 0 00-1.24 2.67c-.26 1.04-.4 2.22-.4 3.54 0 2.64.55 4.7 1.64 6.18 1.1 1.47 2.76 2.2 4.99 2.2zm17.97-15.07a9.94 9.94 0 012.6-3.56 5.64 5.64 0 013.76-1.3c.47 0 .91.05 1.34.15.44.1.83.27 1.16.49l-.28 2.92c-.09.37-.31.55-.66.55-.2 0-.5-.04-.9-.13a6.2 6.2 0 00-3.24.18 4.23 4.23 0 00-1.47.92c-.43.4-.82.9-1.17 1.5a13.1 13.1 0 00-.92 2.02V48h-3.94V25.71h2.24c.43 0 .72.08.88.25.17.16.28.44.33.83l.27 3.39zm15.04-14.59V48h-3.92V15.6h3.92zm19.55 15.43a6.22 6.22 0 00-2.38-2.05 6.7 6.7 0 00-2.86-.6c-2.07 0-3.66.75-4.77 2.23-1.12 1.48-1.68 3.6-1.68 6.33 0 1.46.13 2.7.38 3.74a7.29 7.29 0 001.1 2.56 4.35 4.35 0 001.78 1.45c.7.3 1.5.46 2.4.46 1.29 0 2.41-.3 3.36-.88a9.6 9.6 0 002.67-2.49V31.02zm3.91-15.43V48h-2.33c-.56 0-.9-.27-1.06-.81l-.35-2.71a12.13 12.13 0 01-3.25 2.77 8.28 8.28 0 01-4.23 1.06 7.31 7.31 0 01-6.14-2.9c-.73-.96-1.3-2.15-1.69-3.57a18.35 18.35 0 01.07-9.48 11.29 11.29 0 011.89-3.7 8.7 8.7 0 017.06-3.34 7.96 7.96 0 016.12 2.62V15.59h3.91zM46.61 70.71V93H42.7V70.71h3.91zm.84-7c0 .39-.08.75-.24 1.09a2.81 2.81 0 01-1.52 1.47 2.67 2.67 0 01-2.16 0 2.9 2.9 0 01-1.45-1.47 2.67 2.67 0 010-2.16c.15-.35.35-.65.6-.9.25-.27.53-.47.85-.62a2.67 2.67 0 012.16 0c.35.15.65.35.9.62.27.25.47.55.62.9.16.34.24.7.24 1.08zm7.97 10.24c.49-.54 1-1.04 1.54-1.48a9.85 9.85 0 013.66-1.84 8.96 8.96 0 015.43.35c.94.4 1.72.97 2.33 1.71a7.36 7.36 0 011.43 2.67c.32 1.04.49 2.19.49 3.45V93h-3.94V78.81c0-1.69-.4-3-1.17-3.92-.76-.93-1.93-1.4-3.5-1.4a6.6 6.6 0 00-3.25.83c-1 .56-1.92 1.31-2.77 2.27V93h-3.94V70.71h2.35c.56 0 .9.28 1.04.82l.3 2.42zm57.7 3.3c0 2.36-.37 4.5-1.11 6.44a14.3 14.3 0 01-3.17 4.98 14.1 14.1 0 01-4.93 3.2c-1.9.76-4.02 1.13-6.33 1.13H85.8V61.47h11.77c2.31 0 4.42.39 6.33 1.15a13.8 13.8 0 018.1 8.18 17.75 17.75 0 011.12 6.45zm-4.37 0c0-1.94-.26-3.67-.8-5.2a10.94 10.94 0 00-2.23-3.87 9.57 9.57 0 00-3.53-2.42 12.23 12.23 0 00-4.61-.83h-7.5v24.62h7.5c1.7 0 3.24-.28 4.61-.84a9.7 9.7 0 003.53-2.4 10.94 10.94 0 002.24-3.87c.53-1.53.8-3.26.8-5.2zm19.8 5.72c-1.8.06-3.34.2-4.62.44-1.26.22-2.3.51-3.1.88-.8.36-1.37.8-1.74 1.3-.35.5-.53 1.05-.53 1.67 0 .58.1 1.1.3 1.52a3 3 0 00.76 1.05c.34.27.73.46 1.17.6a6.13 6.13 0 001.45.17 7.28 7.28 0 003.5-.81 11.95 11.95 0 002.82-2.2v-4.62zm-12.65-9.11a12.73 12.73 0 013.98-2.66c1.43-.59 3-.88 4.73-.88 1.25 0 2.36.2 3.33.61a6.81 6.81 0 013.94 4.38c.33 1.04.5 2.19.5 3.43V93h-1.74a1.8 1.8 0 01-.88-.18c-.2-.13-.36-.38-.48-.74l-.44-2.12-1.72 1.46a9.48 9.48 0 01-3.74 1.7c-.69.15-1.46.23-2.3.23-.87 0-1.69-.12-2.45-.35a5.34 5.34 0 01-3.34-2.93 6.64 6.64 0 01-.49-2.64c0-.88.25-1.72.73-2.53a6.33 6.33 0 012.35-2.17c1.09-.63 2.5-1.15 4.25-1.54 1.75-.41 3.89-.65 6.42-.7v-1.75c0-1.73-.37-3.03-1.12-3.91-.75-.9-1.84-1.34-3.28-1.34-.97 0-1.78.12-2.44.37-.64.23-1.2.5-1.7.81l-1.23.82c-.33.23-.67.35-1 .35-.27 0-.5-.07-.69-.2a2.1 2.1 0 01-.48-.53l-.7-1.25zm27.67 19.5c-1.76 0-3.12-.5-4.07-1.48-.94-.98-1.41-2.4-1.41-4.25V74h-2.68a.9.9 0 01-.6-.2c-.16-.14-.24-.36-.24-.66v-1.56l3.65-.46.9-6.89a.9.9 0 01.29-.52.88.88 0 01.62-.22H142v7.67h6.44V74H142v13.38c0 .94.22 1.63.68 2.09.45.45 1.04.68 1.76.68a3.21 3.21 0 001.85-.53l.55-.35c.16-.12.3-.18.41-.18.2 0 .4.13.55.38l1.15 1.87a7.45 7.45 0 01-2.44 1.5 8.53 8.53 0 01-2.95.52zm19.68-10.4c-1.8.07-3.34.21-4.62.45-1.26.22-2.3.51-3.1.88-.8.36-1.37.8-1.74 1.3-.35.5-.53 1.05-.53 1.67 0 .58.1 1.1.3 1.52a2.9 2.9 0 00.76 1.05c.34.27.73.46 1.17.6a6.13 6.13 0 001.45.17 7.3 7.3 0 003.5-.81 12.04 12.04 0 002.82-2.2v-4.62zm-12.65-9.1a12.72 12.72 0 013.99-2.66c1.42-.59 3-.88 4.72-.88 1.25 0 2.36.2 3.33.61a6.81 6.81 0 013.94 4.38c.33 1.04.5 2.19.5 3.43V93h-1.74a1.8 1.8 0 01-.88-.18c-.2-.13-.36-.38-.48-.74l-.44-2.12-1.72 1.46a9.48 9.48 0 01-3.74 1.7c-.69.15-1.46.23-2.3.23-.87 0-1.69-.12-2.45-.35a5.33 5.33 0 01-3.34-2.93 6.62 6.62 0 01-.49-2.64c0-.88.25-1.72.73-2.53a6.33 6.33 0 012.35-2.17c1.09-.63 2.5-1.15 4.25-1.54a31.2 31.2 0 016.42-.7v-1.75c0-1.73-.37-3.03-1.12-3.91-.75-.9-1.84-1.34-3.28-1.34-.97 0-1.78.12-2.44.37-.64.23-1.2.5-1.7.81l-1.22.82c-.34.23-.68.35-1.02.35-.26 0-.49-.07-.68-.2a1.88 1.88 0 01-.48-.53l-.7-1.25zM40.98 32.25c0 2.36-.38 4.53-1.12 6.51a14.26 14.26 0 01-8.1 8.4c-1.9.78-4.02 1.17-6.34 1.17a16.6 16.6 0 01-6.33-1.17 14.31 14.31 0 01-8.08-8.4 18.29 18.29 0 01-1.12-6.51c0-2.36.38-4.53 1.12-6.5.75-1.97 1.8-3.67 3.17-5.1a14.32 14.32 0 014.9-3.34c1.92-.8 4.03-1.19 6.34-1.19 2.32 0 4.43.4 6.34 1.19 1.92.8 3.56 1.9 4.93 3.34a14.87 14.87 0 013.17 5.1 18.1 18.1 0 011.12 6.5zm-4.38 0c0-1.94-.26-3.68-.8-5.22a10.91 10.91 0 00-2.24-3.89 9.68 9.68 0 00-3.52-2.46 11.95 11.95 0 00-4.62-.86c-1.68 0-3.21.28-4.6.86a9.88 9.88 0 00-3.54 2.46 10.91 10.91 0 00-2.24 3.9c-.53 1.53-.8 3.27-.8 5.2 0 1.94.27 3.68.8 5.22a11.17 11.17 0 002.24 3.9 10.01 10.01 0 003.55 2.44c1.38.56 2.9.83 4.6.83s3.24-.27 4.61-.83a9.8 9.8 0 003.52-2.44 11.17 11.17 0 002.25-3.9c.53-1.54.8-3.28.8-5.21zm26.22-6.54V48H60.5c-.56 0-.9-.27-1.05-.81l-.31-2.4a12.45 12.45 0 01-3.26 2.6c-1.2.64-2.58.96-4.13.96-1.22 0-2.3-.2-3.24-.6a6.52 6.52 0 01-2.33-1.7 7.37 7.37 0 01-1.43-2.67c-.3-1.04-.46-2.2-.46-3.45V25.7h3.91v14.22c0 1.68.38 2.99 1.15 3.91.77.93 1.96 1.39 3.54 1.39 1.16 0 2.24-.27 3.23-.82a10.42 10.42 0 002.8-2.28V25.7h3.91zm8.61 4.47a9.94 9.94 0 012.6-3.56 5.64 5.64 0 013.76-1.3c.47 0 .92.05 1.34.15.44.1.83.27 1.17.49l-.3 2.92c-.09.37-.3.55-.66.55-.2 0-.5-.04-.9-.13a6.21 6.21 0 00-3.24.18 4.23 4.23 0 00-1.47.92c-.42.4-.81.9-1.17 1.5-.33.58-.64 1.26-.92 2.02V48H67.7V25.71h2.25c.42 0 .72.08.88.25.16.16.27.44.33.83l.26 3.39zm61.16-13.7L122.75 48h-3.82l-7.99-24.05a21.95 21.95 0 01-.42-1.58 38.36 38.36 0 01-.44 1.58L102.05 48h-3.83L88.4 16.47h3.54c.38 0 .7.1.95.29.26.2.43.43.5.73l6.52 21.9.28 1.28.29 1.46.3-1.46.38-1.27 7.41-21.91c.1-.25.26-.48.51-.69.27-.22.58-.33.95-.33h1.23c.38 0 .69.1.92.29a1.77 1.77 0 01.53.73l7.4 21.9a28.4 28.4 0 01.68 2.62 29.52 29.52 0 01.52-2.61l6.54-21.91a1.31 1.31 0 01.48-.7c.27-.21.58-.32.95-.32h3.32zm9.35 8.88c1.63 0 3.1.27 4.4.82a9.43 9.43 0 015.46 5.94c.5 1.4.74 2.98.74 4.73 0 1.76-.25 3.34-.74 4.75a9.43 9.43 0 01-5.46 5.92c-1.3.52-2.77.79-4.4.79-1.64 0-3.12-.27-4.44-.8a9.42 9.42 0 01-3.35-2.3c-.92-1-1.63-2.2-2.13-3.61-.49-1.41-.73-3-.73-4.75s.24-3.33.73-4.73c.5-1.43 1.2-2.64 2.13-3.63a9.4 9.4 0 013.35-2.31c1.32-.55 2.8-.82 4.44-.82zm0 19.89c2.2 0 3.84-.73 4.93-2.2 1.08-1.48 1.63-3.54 1.63-6.18 0-2.66-.55-4.72-1.63-6.2-1.09-1.49-2.73-2.23-4.93-2.23-1.12 0-2.09.2-2.93.57a5.71 5.71 0 00-2.06 1.65 7.5 7.5 0 00-1.24 2.67c-.26 1.04-.4 2.22-.4 3.54 0 2.64.55 4.7 1.64 6.18 1.1 1.47 2.76 2.2 4.99 2.2zm17.97-15.07a9.94 9.94 0 012.6-3.56 5.64 5.64 0 013.76-1.3c.47 0 .91.05 1.34.15.44.1.83.27 1.16.49l-.28 2.92c-.09.37-.31.55-.66.55-.2 0-.5-.04-.9-.13a6.2 6.2 0 00-3.24.18 4.23 4.23 0 00-1.47.92c-.43.4-.82.9-1.17 1.5a13.1 13.1 0 00-.92 2.02V48h-3.94V25.71h2.24c.43 0 .72.08.88.25.17.16.28.44.33.83l.27 3.39zm15.04-14.59V48h-3.92V15.6h3.92zm19.55 15.43a6.22 6.22 0 00-2.38-2.05 6.7 6.7 0 00-2.86-.6c-2.07 0-3.66.75-4.77 2.23-1.12 1.48-1.68 3.6-1.68 6.33 0 1.46.13 2.7.38 3.74a7.29 7.29 0 001.1 2.56 4.35 4.35 0 001.78 1.45c.7.3 1.5.46 2.4.46 1.29 0 2.41-.3 3.36-.88a9.6 9.6 0 002.67-2.49V31.02zm3.91-15.43V48h-2.33c-.56 0-.9-.27-1.06-.81l-.35-2.71a12.13 12.13 0 01-3.25 2.77 8.28 8.28 0 01-4.23 1.06 7.31 7.31 0 01-6.14-2.9c-.73-.96-1.3-2.15-1.69-3.57a18.35 18.35 0 01.07-9.48 11.29 11.29 0 011.89-3.7 8.7 8.7 0 017.06-3.34 7.96 7.96 0 016.12 2.62V15.59h3.91zM46.61 70.71V93H42.7V70.71h3.91zm.84-7c0 .39-.08.75-.24 1.09a2.81 2.81 0 01-1.52 1.47 2.67 2.67 0 01-2.16 0 2.9 2.9 0 01-1.45-1.47 2.67 2.67 0 010-2.16c.15-.35.35-.65.6-.9.25-.27.53-.47.85-.62a2.67 2.67 0 012.16 0c.35.15.65.35.9.62.27.25.47.55.62.9.16.34.24.7.24 1.08zm7.97 10.24c.49-.54 1-1.04 1.54-1.48a9.85 9.85 0 013.66-1.84 8.96 8.96 0 015.43.35c.94.4 1.72.97 2.33 1.71a7.36 7.36 0 011.43 2.67c.32 1.04.49 2.19.49 3.45V93h-3.94V78.81c0-1.69-.4-3-1.17-3.92-.76-.93-1.93-1.4-3.5-1.4a6.6 6.6 0 00-3.25.83c-1 .56-1.92 1.31-2.77 2.27V93h-3.94V70.71h2.35c.56 0 .9.28 1.04.82l.3 2.42zm57.7 3.3c0 2.36-.37 4.5-1.11 6.44a14.3 14.3 0 01-3.17 4.98 14.1 14.1 0 01-4.93 3.2c-1.9.76-4.02 1.13-6.33 1.13H85.8V61.47h11.77c2.31 0 4.42.39 6.33 1.15a13.8 13.8 0 018.1 8.18 17.75 17.75 0 011.12 6.45zm-4.37 0c0-1.94-.26-3.67-.8-5.2a10.94 10.94 0 00-2.23-3.87 9.57 9.57 0 00-3.53-2.42 12.23 12.23 0 00-4.61-.83h-7.5v24.62h7.5c1.7 0 3.24-.28 4.61-.84a9.7 9.7 0 003.53-2.4 10.94 10.94 0 002.24-3.87c.53-1.53.8-3.26.8-5.2zm19.8 5.72c-1.8.06-3.34.2-4.62.44-1.26.22-2.3.51-3.1.88-.8.36-1.37.8-1.74 1.3-.35.5-.53 1.05-.53 1.67 0 .58.1 1.1.3 1.52a3 3 0 00.76 1.05c.34.27.73.46 1.17.6a6.13 6.13 0 001.45.17 7.28 7.28 0 003.5-.81 11.95 11.95 0 002.82-2.2v-4.62zm-12.65-9.11a12.73 12.73 0 013.98-2.66c1.43-.59 3-.88 4.73-.88 1.25 0 2.36.2 3.33.61a6.81 6.81 0 013.94 4.38c.33 1.04.5 2.19.5 3.43V93h-1.74a1.8 1.8 0 01-.88-.18c-.2-.13-.36-.38-.48-.74l-.44-2.12-1.72 1.46a9.48 9.48 0 01-3.74 1.7c-.69.15-1.46.23-2.3.23-.87 0-1.69-.12-2.45-.35a5.34 5.34 0 01-3.34-2.93 6.64 6.64 0 01-.49-2.64c0-.88.25-1.72.73-2.53a6.33 6.33 0 012.35-2.17c1.09-.63 2.5-1.15 4.25-1.54 1.75-.41 3.89-.65 6.42-.7v-1.75c0-1.73-.37-3.03-1.12-3.91-.75-.9-1.84-1.34-3.28-1.34-.97 0-1.78.12-2.44.37-.64.23-1.2.5-1.7.81l-1.23.82c-.33.23-.67.35-1 .35-.27 0-.5-.07-.69-.2a2.1 2.1 0 01-.48-.53l-.7-1.25zm27.67 19.5c-1.76 0-3.12-.5-4.07-1.48-.94-.98-1.41-2.4-1.41-4.25V74h-2.68a.9.9 0 01-.6-.2c-.16-.14-.24-.36-.24-.66v-1.56l3.65-.46.9-6.89a.9.9 0 01.29-.52.88.88 0 01.62-.22H142v7.67h6.44V74H142v13.38c0 .94.22 1.63.68 2.09.45.45 1.04.68 1.76.68a3.21 3.21 0 001.85-.53l.55-.35c.16-.12.3-.18.41-.18.2 0 .4.13.55.38l1.15 1.87a7.45 7.45 0 01-2.44 1.5 8.53 8.53 0 01-2.95.52zm19.68-10.4c-1.8.07-3.34.21-4.62.45-1.26.22-2.3.51-3.1.88-.8.36-1.37.8-1.74 1.3-.35.5-.53 1.05-.53 1.67 0 .58.1 1.1.3 1.52a2.9 2.9 0 00.76 1.05c.34.27.73.46 1.17.6a6.13 6.13 0 001.45.17 7.3 7.3 0 003.5-.81 12.04 12.04 0 002.82-2.2v-4.62zm-12.65-9.1a12.72 12.72 0 013.99-2.66c1.42-.59 3-.88 4.72-.88 1.25 0 2.36.2 3.33.61a6.81 6.81 0 013.94 4.38c.33 1.04.5 2.19.5 3.43V93h-1.74a1.8 1.8 0 01-.88-.18c-.2-.13-.36-.38-.48-.74l-.44-2.12-1.72 1.46a9.48 9.48 0 01-3.74 1.7c-.69.15-1.46.23-2.3.23-.87 0-1.69-.12-2.45-.35a5.33 5.33 0 01-3.34-2.93 6.62 6.62 0 01-.49-2.64c0-.88.25-1.72.73-2.53a6.33 6.33 0 012.35-2.17c1.09-.63 2.5-1.15 4.25-1.54a31.2 31.2 0 016.42-.7v-1.75c0-1.73-.37-3.03-1.12-3.91-.75-.9-1.84-1.34-3.28-1.34-.97 0-1.78.12-2.44.37-.64.23-1.2.5-1.7.81l-1.22.82c-.34.23-.68.35-1.02.35-.26 0-.49-.07-.68-.2a1.88 1.88 0 01-.48-.53l-.7-1.25zM40.98 32.25c0 2.36-.38 4.53-1.12 6.51a14.26 14.26 0 01-8.1 8.4c-1.9.78-4.02 1.17-6.34 1.17a16.6 16.6 0 01-6.33-1.17 14.31 14.31 0 01-8.08-8.4 18.29 18.29 0 01-1.12-6.51c0-2.36.38-4.53 1.12-6.5.75-1.97 1.8-3.67 3.17-5.1a14.32 14.32 0 014.9-3.34c1.92-.8 4.03-1.19 6.34-1.19 2.32 0 4.43.4 6.34 1.19 1.92.8 3.56 1.9 4.93 3.34a14.87 14.87 0 013.17 5.1 18.1 18.1 0 011.12 6.5zm-4.38 0c0-1.94-.26-3.68-.8-5.22a10.91 10.91 0 00-2.24-3.89 9.68 9.68 0 00-3.52-2.46 11.95 11.95 0 00-4.62-.86c-1.68 0-3.21.28-4.6.86a9.88 9.88 0 00-3.54 2.46 10.91 10.91 0 00-2.24 3.9c-.53 1.53-.8 3.27-.8 5.2 0 1.94.27 3.68.8 5.22a11.17 11.17 0 002.24 3.9 10.01 10.01 0 003.55 2.44c1.38.56 2.9.83 4.6.83s3.24-.27 4.61-.83a9.8 9.8 0 003.52-2.44 11.17 11.17 0 002.25-3.9c.53-1.54.8-3.28.8-5.21zm26.22-6.54V48H60.5c-.56 0-.9-.27-1.05-.81l-.31-2.4a12.45 12.45 0 01-3.26 2.6c-1.2.64-2.58.96-4.13.96-1.22 0-2.3-.2-3.24-.6a6.52 6.52 0 01-2.33-1.7 7.37 7.37 0 01-1.43-2.67c-.3-1.04-.46-2.2-.46-3.45V25.7h3.91v14.22c0 1.68.38 2.99 1.15 3.91.77.93 1.96 1.39 3.54 1.39 1.16 0 2.24-.27 3.23-.82a10.42 10.42 0 002.8-2.28V25.7h3.91zm8.61 4.47a9.94 9.94 0 012.6-3.56 5.64 5.64 0 013.76-1.3c.47 0 .92.05 1.34.15.44.1.83.27 1.17.49l-.3 2.92c-.09.37-.3.55-.66.55-.2 0-.5-.04-.9-.13a6.21 6.21 0 00-3.24.18 4.23 4.23 0 00-1.47.92c-.42.4-.81.9-1.17 1.5-.33.58-.64 1.26-.92 2.02V48H67.7V25.71h2.25c.42 0 .72.08.88.25.16.16.27.44.33.83l.26 3.39zm61.16-13.7L122.75 48h-3.82l-7.99-24.05a21.95 21.95 0 01-.42-1.58 38.36 38.36 0 01-.44 1.58L102.05 48h-3.83L88.4 16.47h3.54c.38 0 .7.1.95.29.26.2.43.43.5.73l6.52 21.9.28 1.28.29 1.46.3-1.46.38-1.27 7.41-21.91c.1-.25.26-.48.51-.69.27-.22.58-.33.95-.33h1.23c.38 0 .69.1.92.29a1.77 1.77 0 01.53.73l7.4 21.9a28.4 28.4 0 01.68 2.62 29.52 29.52 0 01.52-2.61l6.54-21.91a1.31 1.31 0 01.48-.7c.27-.21.58-.32.95-.32h3.32zm9.35 8.88c1.63 0 3.1.27 4.4.82a9.43 9.43 0 015.46 5.94c.5 1.4.74 2.98.74 4.73 0 1.76-.25 3.34-.74 4.75a9.43 9.43 0 01-5.46 5.92c-1.3.52-2.77.79-4.4.79-1.64 0-3.12-.27-4.44-.8a9.42 9.42 0 01-3.35-2.3c-.92-1-1.63-2.2-2.13-3.61-.49-1.41-.73-3-.73-4.75s.24-3.33.73-4.73c.5-1.43 1.2-2.64 2.13-3.63a9.4 9.4 0 013.35-2.31c1.32-.55 2.8-.82 4.44-.82zm0 19.89c2.2 0 3.84-.73 4.93-2.2 1.08-1.48 1.63-3.54 1.63-6.18 0-2.66-.55-4.72-1.63-6.2-1.09-1.49-2.73-2.23-4.93-2.23-1.12 0-2.09.2-2.93.57a5.71 5.71 0 00-2.06 1.65 7.5 7.5 0 00-1.24 2.67c-.26 1.04-.4 2.22-.4 3.54 0 2.64.55 4.7 1.64 6.18 1.1 1.47 2.76 2.2 4.99 2.2zm17.97-15.07a9.94 9.94 0 012.6-3.56 5.64 5.64 0 013.76-1.3c.47 0 .91.05 1.34.15.44.1.83.27 1.16.49l-.28 2.92c-.09.37-.31.55-.66.55-.2 0-.5-.04-.9-.13a6.2 6.2 0 00-3.24.18 4.23 4.23 0 00-1.47.92c-.43.4-.82.9-1.17 1.5a13.1 13.1 0 00-.92 2.02V48h-3.94V25.71h2.24c.43 0 .72.08.88.25.17.16.28.44.33.83l.27 3.39zm15.04-14.59V48h-3.92V15.6h3.92zm19.55 15.43a6.22 6.22 0 00-2.38-2.05 6.7 6.7 0 00-2.86-.6c-2.07 0-3.66.75-4.77 2.23-1.12 1.48-1.68 3.6-1.68 6.33 0 1.46.13 2.7.38 3.74a7.29 7.29 0 001.1 2.56 4.35 4.35 0 001.78 1.45c.7.3 1.5.46 2.4.46 1.29 0 2.41-.3 3.36-.88a9.6 9.6 0 002.67-2.49V31.02zm3.91-15.43V48h-2.33c-.56 0-.9-.27-1.06-.81l-.35-2.71a12.13 12.13 0 01-3.25 2.77 8.28 8.28 0 01-4.23 1.06 7.31 7.31 0 01-6.14-2.9c-.73-.96-1.3-2.15-1.69-3.57a18.35 18.35 0 01.07-9.48 11.29 11.29 0 011.89-3.7 8.7 8.7 0 017.06-3.34 7.96 7.96 0 016.12 2.62V15.59h3.91zM46.61 70.71V93H42.7V70.71h3.91zm.84-7c0 .39-.08.75-.24 1.09a2.81 2.81 0 01-1.52 1.47 2.67 2.67 0 01-2.16 0 2.9 2.9 0 01-1.45-1.47 2.67 2.67 0 010-2.16c.15-.35.35-.65.6-.9.25-.27.53-.47.85-.62a2.67 2.67 0 012.16 0c.35.15.65.35.9.62.27.25.47.55.62.9.16.34.24.7.24 1.08zm7.97 10.24c.49-.54 1-1.04 1.54-1.48a9.85 9.85 0 013.66-1.84 8.96 8.96 0 015.43.35c.94.4 1.72.97 2.33 1.71a7.36 7.36 0 011.43 2.67c.32 1.04.49 2.19.49 3.45V93h-3.94V78.81c0-1.69-.4-3-1.17-3.92-.76-.93-1.93-1.4-3.5-1.4a6.6 6.6 0 00-3.25.83c-1 .56-1.92 1.31-2.77 2.27V93h-3.94V70.71h2.35c.56 0 .9.28 1.04.82l.3 2.42zm57.7 3.3c0 2.36-.37 4.5-1.11 6.44a14.3 14.3 0 01-3.17 4.98 14.1 14.1 0 01-4.93 3.2c-1.9.76-4.02 1.13-6.33 1.13H85.8V61.47h11.77c2.31 0 4.42.39 6.33 1.15a13.8 13.8 0 018.1 8.18 17.75 17.75 0 011.12 6.45zm-4.37 0c0-1.94-.26-3.67-.8-5.2a10.94 10.94 0 00-2.23-3.87 9.57 9.57 0 00-3.53-2.42 12.23 12.23 0 00-4.61-.83h-7.5v24.62h7.5c1.7 0 3.24-.28 4.61-.84a9.7 9.7 0 003.53-2.4 10.94 10.94 0 002.24-3.87c.53-1.53.8-3.26.8-5.2zm19.8 5.72c-1.8.06-3.34.2-4.62.44-1.26.22-2.3.51-3.1.88-.8.36-1.37.8-1.74 1.3-.35.5-.53 1.05-.53 1.67 0 .58.1 1.1.3 1.52a3 3 0 00.76 1.05c.34.27.73.46 1.17.6a6.13 6.13 0 001.45.17 7.28 7.28 0 003.5-.81 11.95 11.95 0 002.82-2.2v-4.62zm-12.65-9.11a12.73 12.73 0 013.98-2.66c1.43-.59 3-.88 4.73-.88 1.25 0 2.36.2 3.33.61a6.81 6.81 0 013.94 4.38c.33 1.04.5 2.19.5 3.43V93h-1.74a1.8 1.8 0 01-.88-.18c-.2-.13-.36-.38-.48-.74l-.44-2.12-1.72 1.46a9.48 9.48 0 01-3.74 1.7c-.69.15-1.46.23-2.3.23-.87 0-1.69-.12-2.45-.35a5.34 5.34 0 01-3.34-2.93 6.64 6.64 0 01-.49-2.64c0-.88.25-1.72.73-2.53a6.33 6.33 0 012.35-2.17c1.09-.63 2.5-1.15 4.25-1.54 1.75-.41 3.89-.65 6.42-.7v-1.75c0-1.73-.37-3.03-1.12-3.91-.75-.9-1.84-1.34-3.28-1.34-.97 0-1.78.12-2.44.37-.64.23-1.2.5-1.7.81l-1.23.82c-.33.23-.67.35-1 .35-.27 0-.5-.07-.69-.2a2.1 2.1 0 01-.48-.53l-.7-1.25zm27.67 19.5c-1.76 0-3.12-.5-4.07-1.48-.94-.98-1.41-2.4-1.41-4.25V74h-2.68a.9.9 0 01-.6-.2c-.16-.14-.24-.36-.24-.66v-1.56l3.65-.46.9-6.89a.9.9 0 01.29-.52.88.88 0 01.62-.22H142v7.67h6.44V74H142v13.38c0 .94.22 1.63.68 2.09.45.45 1.04.68 1.76.68a3.21 3.21 0 001.85-.53l.55-.35c.16-.12.3-.18.41-.18.2 0 .4.13.55.38l1.15 1.87a7.45 7.45 0 01-2.44 1.5 8.53 8.53 0 01-2.95.52zm19.68-10.4c-1.8.07-3.34.21-4.62.45-1.26.22-2.3.51-3.1.88-.8.36-1.37.8-1.74 1.3-.35.5-.53 1.05-.53 1.67 0 .58.1 1.1.3 1.52a2.9 2.9 0 00.76 1.05c.34.27.73.46 1.17.6a6.13 6.13 0 001.45.17 7.3 7.3 0 003.5-.81 12.04 12.04 0 002.82-2.2v-4.62zm-12.65-9.1a12.72 12.72 0 013.99-2.66c1.42-.59 3-.88 4.72-.88 1.25 0 2.36.2 3.33.61a6.81 6.81 0 013.94 4.38c.33 1.04.5 2.19.5 3.43V93h-1.74a1.8 1.8 0 01-.88-.18c-.2-.13-.36-.38-.48-.74l-.44-2.12-1.72 1.46a9.48 9.48 0 01-3.74 1.7c-.69.15-1.46.23-2.3.23-.87 0-1.69-.12-2.45-.35a5.33 5.33 0 01-3.34-2.93 6.62 6.62 0 01-.49-2.64c0-.88.25-1.72.73-2.53a6.33 6.33 0 012.35-2.17c1.09-.63 2.5-1.15 4.25-1.54a31.2 31.2 0 016.42-.7v-1.75c0-1.73-.37-3.03-1.12-3.91-.75-.9-1.84-1.34-3.28-1.34-.97 0-1.78.12-2.44.37-.64.23-1.2.5-1.7.81l-1.22.82c-.34.23-.68.35-1.02.35-.26 0-.49-.07-.68-.2a1.88 1.88 0 01-.48-.53l-.7-1.25z" fill="#fff"/><path fill="#D42B21" d="M0 106.79h210V120H0z"/></g><defs><clipPath id="clip0"><path fill="#fff" d="M0 0h210v120H0z"/></clipPath></defs></svg></g><a href="https://ourworldindata.org/grapher/comparison-of-median-income-or-consumption-in-lis-and-povcalnet" target="_blank" rel="noopener" font-family="&quot;Playfair Display&quot;,Georgia,&quot;Times New Roman&quot;,serif"><text font-size="21.6" x="15" y="32.3" fill="#555"><tspan x="15" y="32.28">Comparison of median income (or consumption) in LIS and PovcalNet,</tspan><tspan x="15" y="53.88">1981 to 2013</tspan></text></a></g><g class="ScatterPlot"><g class="DualAxisView"><g class="HorizontalAxis"><text font-size="12.6" x="183.2" y="544.9"><tspan x="183.22" y="544.88">Monthly median per capita income/consumption (PovcalNet 2017)</tspan></text><text x="153.8" y="524.8" fill="#666" text-anchor="middle" font-size="16.2">$400</text><text x="229.6" y="524.8" fill="#666" text-anchor="middle" font-size="16.2">$600</text><text x="305.4" y="524.8" fill="#666" text-anchor="middle" font-size="16.2">$800</text><text x="381.2" y="524.8" fill="#666" text-anchor="middle" font-size="16.2">$1,000</text><text x="457" y="524.8" fill="#666" text-anchor="middle" font-size="16.2">$1,200</text><text x="532.8" y="524.8" fill="#666" text-anchor="middle" font-size="16.2">$1,400</text><text x="608.5" y="524.8" fill="#666" text-anchor="middle" font-size="16.2">$1,600</text><text x="684.3" y="524.8" fill="#666" text-anchor="middle" font-size="16.2">$1,800</text></g><g class="VerticalAxis"><text font-size="12.6" x="-490.4" y="25.1" transform="rotate(-90)"><tspan x="-490.45" y="25.08">Annual median equivalized disposable household income (LIS)</tspan></text><text x="96.57" y="503.6" dy=".32em" text-anchor="end" fill="#666" font-size="16.2">$0</text><text x="96.57" y="444.1" dy=".32em" text-anchor="end" fill="#666" font-size="16.2">$5,000</text><text x="96.57" y="384.6" dy=".32em" text-anchor="end" fill="#666" font-size="16.2">$10,000</text><text x="96.57" y="325.1" dy=".32em" text-anchor="end" fill="#666" font-size="16.2">$15,000</text><text x="96.57" y="265.6" dy=".32em" text-anchor="end" fill="#666" font-size="16.2">$20,000</text><text x="96.57" y="206.1" dy=".32em" text-anchor="end" fill="#666" font-size="16.2">$25,000</text><text x="96.57" y="146.6" dy=".32em" text-anchor="end" fill="#666" font-size="16.2">$30,000</text><text x="96.57" y="87.2" dy=".32em" text-anchor="end" fill="#666" font-size="16.2">$35,000</text></g><g class="AxisGridLines horizontalLines"><path stroke="#999" d="M101.57 503.6h618.79"/><path stroke="#ddd" stroke-dasharray="3,2" d="M101.57 444.1h618.79M101.57 384.6h618.79M101.57 325.1h618.79M101.57 265.6h618.79M101.57 206.1h618.79M101.57 146.6h618.79M101.57 87.2h618.79"/></g><g class="AxisGridLines verticalLines" stroke="#ddd" stroke-dasharray="3,2"><path d="M153.8 503.6V81.2M229.6 503.6V81.2M305.4 503.6V81.2M381.2 503.6V81.2M457 503.6V81.2M532.8 503.6V81.2M608.5 503.6V81.2M684.3 503.6V81.2"/></g></g><g class="comparisonLine"><defs><clipPath id="a"><path d="M101.57 81.2h618.79v422.4H101.57z"/></clipPath></defs><path id="b" d="M101.6 466.2l1.2-.5 1.2-.4 1.3-.5 1.2-.5 1.3-.4 1.2-.5 1.2-.5 1.3-.4 1.2-.5 1.2-.5 1.3-.4 1.2-.5 1.3-.5 1.2-.4 1.2-.5 1.3-.5 1.2-.4 1.2-.5 1.3-.5 1.2-.4 1.3-.5 1.2-.5 1.2-.4 1.3-.5 1.2-.5 1.2-.4 1.3-.5 1.2-.5 1.3-.4 1.2-.5 1.2-.5 1.3-.4 1.2-.5 1.2-.5 1.3-.4 1.2-.5 1.3-.5 1.2-.4 1.2-.5 1.3-.5 1.2-.4 1.2-.5 1.3-.5 1.2-.4 1.3-.5 1.2-.5 1.2-.4 1.3-.5 1.2-.5 1.2-.4 1.3-.5 1.2-.5 1.3-.4 1.2-.5 1.2-.5 1.3-.4 1.2-.5 1.2-.5 1.3-.4 1.2-.5 1.3-.5 1.2-.4 1.2-.5 1.3-.5 1.2-.4 1.2-.5 1.3-.5 1.2-.4 1.3-.5 1.2-.5 1.2-.4 1.3-.5 1.2-.5 1.2-.4 1.3-.5 1.2-.5 1.3-.4 1.2-.5 1.2-.5 1.3-.4 1.2-.5 1.2-.5 1.3-.4 1.2-.5 1.3-.5 1.2-.4 1.2-.5 1.3-.5 1.2-.4 1.3-.5 1.2-.5 1.2-.4 1.3-.5 1.2-.4 1.2-.5 1.3-.5 1.2-.4 1.3-.5 1.2-.5 1.2-.4 1.3-.5 1.2-.5 1.2-.4 1.3-.5 1.2-.5 1.3-.4 1.2-.5 1.2-.5 1.3-.4 1.2-.5 1.2-.5 1.3-.4 1.2-.5 1.3-.5 1.2-.4 1.2-.5 1.3-.5 1.2-.4 1.2-.5 1.3-.5 1.2-.4 1.3-.5 1.2-.5 1.2-.4 1.3-.5 1.2-.5 1.2-.4 1.3-.5 1.2-.5 1.3-.4 1.2-.5 1.2-.5 1.3-.4 1.2-.5 1.2-.5 1.3-.4 1.2-.5 1.3-.5 1.2-.4 1.2-.5 1.3-.5 1.2-.4 1.2-.5 1.3-.5 1.2-.4 1.3-.5 1.2-.5 1.2-.4 1.3-.5 1.2-.5 1.2-.4 1.3-.5 1.2-.5 1.3-.4 1.2-.5 1.2-.5 1.3-.4 1.2-.5 1.2-.5 1.3-.4 1.2-.5 1.3-.5 1.2-.4 1.2-.5 1.3-.5 1.2-.4 1.2-.5 1.3-.5 1.2-.4 1.3-.5 1.2-.5 1.2-.4 1.3-.5 1.2-.5 1.2-.4 1.3-.5 1.2-.5 1.3-.4 1.2-.5 1.2-.5 1.3-.4 1.2-.5 1.2-.5 1.3-.4 1.2-.5 1.3-.5 1.2-.4 1.2-.5 1.3-.5 1.2-.4 1.2-.5 1.3-.5 1.2-.4 1.3-.5 1.2-.4 1.2-.5 1.3-.5 1.2-.4 1.2-.5 1.3-.5 1.2-.4 1.3-.5 1.2-.5 1.2-.4 1.3-.5 1.2-.5 1.2-.4 1.3-.5 1.2-.5 1.3-.4 1.2-.5 1.2-.5 1.3-.4 1.2-.5 1.2-.5 1.3-.4 1.2-.5 1.3-.5 1.2-.4 1.2-.5 1.3-.5 1.2-.4 1.2-.5 1.3-.5 1.2-.4 1.3-.5 1.2-.5 1.2-.4 1.3-.5 1.2-.5 1.2-.4 1.3-.5 1.2-.5 1.3-.4 1.2-.5 1.2-.5 1.3-.4 1.2-.5 1.3-.5 1.2-.4 1.2-.5 1.3-.5 1.2-.4 1.2-.5 1.3-.5 1.2-.4 1.3-.5 1.2-.5 1.2-.4 1.3-.5 1.2-.5 1.2-.4 1.3-.5 1.2-.5 1.3-.4 1.2-.5 1.2-.5 1.3-.4 1.2-.5 1.2-.5 1.3-.4 1.2-.5 1.3-.5 1.2-.4 1.2-.5 1.3-.5 1.2-.4 1.2-.5 1.3-.5 1.2-.4 1.3-.5 1.2-.5 1.2-.4 1.3-.5 1.2-.5 1.2-.4 1.3-.5 1.2-.5 1.3-.4 1.2-.5 1.2-.5 1.3-.4 1.2-.5 1.2-.5 1.3-.4 1.2-.5 1.3-.5 1.2-.4 1.2-.5 1.3-.5 1.2-.4 1.2-.5 1.3-.5 1.2-.4 1.3-.5 1.2-.4 1.2-.5 1.3-.5 1.2-.4 1.2-.5 1.3-.5 1.2-.4 1.3-.5 1.2-.5 1.2-.4 1.3-.5 1.2-.5 1.2-.4 1.3-.5 1.2-.5 1.3-.4 1.2-.5 1.2-.5 1.3-.4 1.2-.5 1.2-.5 1.3-.4 1.2-.5 1.3-.5 1.2-.4 1.2-.5 1.3-.5 1.2-.4 1.2-.5 1.3-.5 1.2-.4 1.3-.5 1.2-.5 1.2-.4 1.3-.5 1.2-.5 1.2-.4 1.3-.5 1.2-.5 1.3-.4 1.2-.5 1.2-.5 1.3-.4 1.2-.5 1.2-.5 1.3-.4 1.2-.5 1.3-.5 1.2-.4 1.2-.5 1.3-.5 1.2-.4 1.2-.5 1.3-.5 1.2-.4 1.3-.5 1.2-.5 1.2-.4 1.3-.5 1.2-.5 1.2-.4 1.3-.5 1.2-.5 1.3-.4 1.2-.5 1.2-.5 1.3-.4 1.2-.5 1.2-.5 1.3-.4 1.2-.5 1.3-.5 1.2-.4 1.2-.5 1.3-.5 1.2-.4 1.2-.5 1.3-.5 1.2-.4 1.3-.5 1.2-.5 1.2-.4 1.3-.5 1.2-.5 1.2-.4 1.3-.5 1.2-.5 1.3-.4 1.2-.5 1.2-.5 1.3-.4 1.2-.5 1.3-.5 1.2-.4 1.2-.5 1.3-.5 1.2-.4 1.2-.5 1.3-.5 1.2-.4 1.3-.5 1.2-.4 1.2-.5 1.3-.5 1.2-.4 1.2-.5 1.3-.5 1.2-.4 1.3-.5 1.2-.5 1.2-.4 1.3-.5 1.2-.5 1.2-.4 1.3-.5 1.2-.5 1.3-.4 1.2-.5 1.2-.5 1.3-.4 1.2-.5 1.2-.5 1.3-.4 1.2-.5 1.3-.5 1.2-.4 1.2-.5 1.3-.5 1.2-.4 1.2-.5 1.3-.5 1.2-.4 1.3-.5 1.2-.5 1.2-.4 1.3-.5 1.2-.5 1.2-.4 1.3-.5 1.2-.5 1.3-.4 1.2-.5 1.2-.5 1.3-.4 1.2-.5 1.2-.5 1.3-.4 1.2-.5 1.3-.5 1.2-.4 1.2-.5 1.3-.5 1.2-.4 1.2-.5 1.3-.5 1.2-.4 1.3-.5 1.2-.5 1.2-.4 1.3-.5 1.2-.5 1.2-.4 1.3-.5 1.2-.5 1.3-.4 1.2-.5 1.2-.5 1.3-.4 1.2-.5 1.2-.5 1.3-.4 1.2-.5 1.3-.5 1.2-.4 1.2-.5 1.3-.5 1.2-.4 1.2-.5 1.3-.5 1.2-.4 1.3-.5 1.2-.5 1.2-.4 1.3-.5 1.2-.5 1.2-.4 1.3-.5 1.2-.5 1.3-.4 1.2-.5 1.2-.5 1.3-.4 1.2-.5 1.2-.5 1.3-.4 1.2-.5 1.3-.5 1.2-.4 1.2-.5 1.3-.5 1.2-.4 1.2-.5 1.3-.5 1.2-.4" clip-path="url(#a)" opacity=".9" fill="none" stroke="#ccc" stroke-dasharray="2 2"/><text clip-path="url(#a)" font-size="80%" opacity=".9" text-anchor="end" fill="#999"><textPath baseline-shift="-0.2rem" href="#b" startOffset="90%" fill="#fff" stroke="#fff" stroke-linecap="round" stroke-linejoin="round" stroke-width=".25em">1:1</textPath><textPath baseline-shift="-0.2rem" href="#b" startOffset="90%">1:1</textPath></text></g><g class="comparisonLine"><defs><clipPath id="c"><path d="M101.57 81.2h618.79v422.4H101.57z"/></clipPath></defs><path id="d" d="M101.6 428.8l1.2-1 1.2-.9 1.3-.9 1.2-1 1.3-.9 1.2-.9 1.2-1 1.3-.9 1.2-.9 1.2-1 1.3-.9 1.2-.9 1.3-1 1.2-.9 1.2-.9 1.3-.9 1.2-1 1.2-.9 1.3-.9 1.2-1 1.3-.9 1.2-.9 1.2-1 1.3-.9 1.2-.9 1.2-1 1.3-.9 1.2-.9 1.3-1 1.2-.9 1.2-.9 1.3-1 1.2-.9 1.2-.9 1.3-1 1.2-.9 1.3-.9 1.2-1 1.2-.9 1.3-.9 1.2-1 1.2-.9 1.3-.9 1.2-1 1.3-.9 1.2-.9 1.2-1 1.3-.9 1.2-.9 1.2-1 1.3-.9 1.2-.9 1.3-1 1.2-.9 1.2-.9 1.3-1 1.2-.9 1.2-.9 1.3-1 1.2-.9 1.3-.9 1.2-1 1.2-.9 1.3-.9 1.2-1 1.2-.9 1.3-.9 1.2-.9 1.3-1 1.2-.9 1.2-.9 1.3-1 1.2-.9 1.2-.9 1.3-1 1.2-.9 1.3-.9 1.2-1 1.2-.9 1.3-.9 1.2-1 1.2-.9 1.3-.9 1.2-1 1.3-.9 1.2-.9 1.2-1 1.3-.9 1.2-.9 1.3-1 1.2-.9 1.2-.9 1.3-1 1.2-.9 1.2-.9 1.3-1 1.2-.9 1.3-.9 1.2-1 1.2-.9 1.3-.9 1.2-1 1.2-.9 1.3-.9 1.2-1 1.3-.9 1.2-.9 1.2-1 1.3-.9 1.2-.9 1.2-1 1.3-.9 1.2-.9 1.3-1 1.2-.9 1.2-.9 1.3-.9 1.2-1 1.2-.9 1.3-.9 1.2-1 1.3-.9 1.2-.9 1.2-1 1.3-.9 1.2-.9 1.2-1 1.3-.9 1.2-.9 1.3-1 1.2-.9 1.2-.9 1.3-1 1.2-.9 1.2-.9 1.3-1 1.2-.9 1.3-.9 1.2-1 1.2-.9 1.3-.9 1.2-1 1.2-.9 1.3-.9 1.2-1 1.3-.9 1.2-.9 1.2-1 1.3-.9 1.2-.9 1.2-1 1.3-.9 1.2-.9 1.3-1 1.2-.9 1.2-.9 1.3-1 1.2-.9 1.2-.9 1.3-1 1.2-.9 1.3-.9 1.2-1 1.2-.9 1.3-.9 1.2-1 1.2-.9 1.3-.9 1.2-.9 1.3-1 1.2-.9 1.2-.9 1.3-1 1.2-.9 1.2-.9 1.3-1 1.2-.9 1.3-.9 1.2-1 1.2-.9 1.3-.9 1.2-1 1.2-.9 1.3-.9 1.2-1 1.3-.9 1.2-.9 1.2-1 1.3-.9 1.2-.9 1.2-1 1.3-.9 1.2-.9 1.3-1 1.2-.9 1.2-.9 1.3-1 1.2-.9 1.2-.9 1.3-1 1.2-.9 1.3-.9 1.2-1 1.2-.9 1.3-.9 1.2-1 1.2-.9 1.3-.9 1.2-1 1.3-.9 1.2-.9 1.2-1 1.3-.9 1.2-.9 1.2-1 1.3-.9 1.2-.9 1.3-1 1.2-.9 1.2-.9 1.3-.9 1.2-1 1.2-.9 1.3-.9 1.2-1 1.3-.9 1.2-.9 1.2-1 1.3-.9 1.2-.9 1.2-1 1.3-.9 1.2-.9 1.3-1 1.2-.9 1.2-.9 1.3-1 1.2-.9 1.3-.9 1.2-1 1.2-.9 1.3-.9 1.2-1 1.2-.9 1.3-.9 1.2-1 1.3-.9 1.2-.9 1.2-1 1.3-.9 1.2-.9 1.2-1 1.3-.9 1.2-.9 1.3-1 1.2-.9 1.2-.9 1.3-1 1.2-.9 1.2-.9 1.3-1 1.2-.9 1.3-.9 1.2-1 1.2-.9 1.3-.9 1.2-1 1.2-.9 1.3-.9 1.2-.9 1.3-1 1.2-.9 1.2-.9 1.3-1 1.2-.9 1.2-.9 1.3-1 1.2-.9 1.3-.9 1.2-1 1.2-.9 1.3-.9 1.2-1 1.2-.9 1.3-.9 1.2-1 1.3-.9 1.2-.9 1.2-1 1.3-.9 1.2-.9 1.2-1 1.3-.9 1.2-.9 1.3-1 1.2-.9 1.2-.9 1.3-1 1.2-.9 1.2-.9 1.3-1 1.2-.9 1.3-.9 1.2-1 1.2-.9 1.3-.9 1.2-1 1.2-.9 1.3-.9 1.2-1 1.3-.9 1.2-.9 1.2-1 1.3-.9 1.2-.9 1.2-1 1.3-.9 1.2-.9 1.3-1 1.2-.9 1.2-.9 1.3-.9 1.2-1 1.2-.9 1.3-.9 1.2-1 1.3-.9 1.2-.9 1.2-1 1.3-.9 1.2-.9 1.2-1 1.3-.9 1.2-.9 1.3-1 1.2-.9 1.2-.9 1.3-1 1.2-.9 1.2-.9 1.3-1 1.2-.9 1.3-.9 1.2-1 1.2-.9 1.3-.9 1.2-1 1.2-.9 1.3-.9 1.2-1 1.3-.9 1.2-.9 1.2-1 1.3-.9 1.2-.9 1.2-1 1.3-.9 1.2-.9 1.3-1 1.2-.9 1.2-.9 1.3-1 1.2-.9 1.2-.9 1.3-1 1.2-.9 1.3-.9 1.2-1 1.2-.9 1.3-.9 1.2-1 1.2-.9" clip-path="url(#c)" opacity=".9" fill="none" stroke="#ccc" stroke-dasharray="2 2"/><text clip-path="url(#c)" font-size="80%" opacity=".9" text-anchor="end" fill="#999"><textPath baseline-shift="-0.2rem" href="#d" startOffset="90%" fill="#fff" stroke="#fff" stroke-linecap="round" stroke-linejoin="round" stroke-width=".25em">2:1</textPath><textPath baseline-shift="-0.2rem" href="#d" startOffset="90%">2:1</textPath></text></g><g class="PointsWithLabels clickable" clip-path="url(#e)" font-family="Arial, sans-serif"><path fill="rgba(255,255,255,0)" d="M101.57 81.2h618.79v422.4H101.57z"/><defs><clipPath id="e"><path d="M91.57 71.2h638.79v442.4H91.57z"/></clipPath></defs><g class="key-United-States"><circle cx="490" cy="182" r="1.6" fill="#E04E4B" stroke="none" opacity=".7"/><path stroke-width="1.42" opacity=".7" stroke="#E04E4B" fill="none" stroke-linecap="butt" d="M490 182l14-1-2 2 20-17 36-24 13-3 10-5-16 11-8 4"/><path cx="557" cy="149" r="2.62" fill="#E04E4B" opacity=".7" d="M560.52 150.17h-5.86l3.51-4.69z"/></g><g class="key-Germany"><circle cx="515" cy="202" r="1.4" fill="#4C5C78" stroke="none" opacity=".7"/><path stroke-width=".87" opacity=".7" stroke="#4C5C78" fill="none" stroke-linecap="butt" d="M515 202l5-5"/><path cx="520" cy="197" r="2.07" fill="#4C5C78" opacity=".7" d="M517.07 197l4.4-1.46-1.47 4.39z"/></g><g class="key-United-Kingdom"><circle cx="432" cy="246" r="1.3" fill="#4C5C78" stroke="none" opacity=".7"/><path stroke-width=".81" opacity=".7" stroke="#4C5C78" fill="none" stroke-linecap="butt" d="M432 246l44-17-33 7"/><path cx="443" cy="236" r="2.01" fill="#4C5C78" opacity=".7" d="M445.38 237.55l-4.35-1.13 3.52-2.8z"/></g><g class="key-France"><circle cx="425" cy="244" r="1.3" fill="#4C5C78" stroke="none" opacity=".7"/><path stroke-width=".81" opacity=".7" stroke="#4C5C78" fill="none" stroke-linecap="butt" d="M425 244l72-32"/><path cx="497" cy="212" r="2.01" fill="#4C5C78" opacity=".7" d="M494.35 210.98l4.49.2-2.86 3.47z"/></g><g class="key-Italy"><circle cx="419" cy="280" r="1.3" fill="#4C5C78" stroke="none" opacity=".7"/><path stroke-width=".79" opacity=".7" stroke="#4C5C78" fill="none" stroke-linecap="butt" d="M419 280l4-8-5 7"/><path cx="418" cy="279" r="1.99" fill="#4C5C78" opacity=".7" d="M420.78 278.54l-3.94 2.08.7-4.4z"/></g><g class="key-Spain"><circle cx="329" cy="277" r="1.3" fill="#4C5C78" stroke="none" opacity=".7"/><path stroke-width=".74" opacity=".7" stroke="#4C5C78" fill="none" stroke-linecap="butt" d="M329 277l33-25 21 28"/><path cx="383" cy="280" r="1.94" fill="#4C5C78" opacity=".7" d="M383.39 277.28l.77 4.27-3.88-1.94z"/></g><g class="key-Poland"><circle cx="126" cy="398" r="1.3" fill="#4C5C78" stroke="none" opacity=".7"/><path stroke-width=".7" opacity=".7" stroke="#4C5C78" fill="none" stroke-linecap="butt" d="M126 398l14 2 5-21 14-22"/><path cx="159" cy="357" r="1.9" fill="#4C5C78" opacity=".7" d="M156.38 357.58l3.64-2.18-.44 4.22z"/></g><g class="key-Canada"><circle cx="410" cy="225" r="1.2" fill="#E04E4B" stroke="none" opacity=".7"/><path stroke-width=".68" opacity=".7" stroke="#E04E4B" fill="none" stroke-linecap="butt" d="M410 225l14-8 6 2h14l1-5 6 2 32-19 41-26 18-11"/><path cx="542" cy="160" r="1.88" fill="#E04E4B" opacity=".7" d="M539.42 159.38l4.18-.36-2.22 3.56z"/></g><g class="key-Australia"><circle cx="335" cy="269" r="1.2" fill="#A8633C" stroke="none" opacity=".7"/><path stroke-width=".61" opacity=".7" stroke="#A8633C" fill="none" stroke-linecap="butt" d="M335 269l4 1 9-2-28 19 42-26 12-3 125-89 7 2"/><path cx="506" cy="171" r="1.81" fill="#A8633C" opacity=".7" d="M504.76 168.76l2.98 2.74-3.98.74z"/></g><g class="key-Netherlands"><circle cx="460" cy="221" r="1.2" fill="#4C5C78" stroke="none" opacity=".7"/><path stroke-width=".58" opacity=".7" stroke="#4C5C78" fill="none" stroke-linecap="butt" d="M460 221l53-28 2 4"/><path cx="515" cy="197" r="1.78" fill="#4C5C78" opacity=".7" d="M515.8 194.61v3.98l-3.19-2.39z"/></g><g class="key-Greece"><circle cx="325" cy="283" r="1.2" fill="#4C5C78" stroke="none" opacity=".7"/><path stroke-width=".53" opacity=".7" stroke="#4C5C78" fill="none" stroke-linecap="butt" d="M325 283l17-18-35 22"/><path cx="307" cy="287" r="1.73" fill="#4C5C78" opacity=".7" d="M309.39 287.54l-3.85.38 2-3.3z"/></g><g class="key-Czechia"><circle cx="198" cy="364" r="1.1" fill="#4C5C78" stroke="none" opacity=".7"/><path stroke-width=".53" opacity=".7" stroke="#4C5C78" fill="none" stroke-linecap="butt" d="M198 364l34-21 32-32 12-6"/><path cx="276" cy="305" r="1.73" fill="#4C5C78" opacity=".7" d="M273.68 304.23h3.87l-2.32 3.1z"/></g><g class="key-Hungary"><circle cx="125" cy="395" r="1.1" fill="#4C5C78" stroke="none" opacity=".7"/><path stroke-width=".52" opacity=".7" stroke="#4C5C78" fill="none" stroke-linecap="butt" d="M125 395l49-24-2-4 28 7-9-1"/><path cx="191" cy="373" r="1.72" fill="#4C5C78" opacity=".7" d="M192.52 374.9l-3.23-2.09 3.6-1.33z"/></g><g class="key-Sweden"><circle cx="425" cy="241" r="1.22" fill="#4C5C78" opacity=".8" stroke="#666" stroke-width=".5"/></g><g class="key-Austria"><circle cx="516" cy="190" r="1.21" fill="#4C5C78" opacity=".8" stroke="#666" stroke-width=".5"/></g><g class="key-Israel"><circle cx="181" cy="361" r="1.1" fill="#2D8587" stroke="none" opacity=".7"/><path stroke-width=".5" opacity=".7" stroke="#2D8587" fill="none" stroke-linecap="butt" d="M181 361l35-25 6-2 27-19-5 3 22-15 9-7"/><path cx="275" cy="296" r="1.7" fill="#2D8587" opacity=".7" d="M272.61 295.7l3.73-.74-1.64 3.43z"/></g><g class="key-Denmark"><circle cx="476" cy="188" r="1.1" fill="#4C5C78" stroke="none" opacity=".7"/><path stroke-width=".48" opacity=".7" stroke="#4C5C78" fill="none" stroke-linecap="butt" d="M476 188l18-14 17-4"/><path cx="511" cy="170" r="1.68" fill="#4C5C78" opacity=".7" d="M508.98 168.75l3.66.87-2.9 2.4z"/></g><g class="key-Slovakia"><circle cx="191" cy="383" r="1.1" fill="#4C5C78" stroke="none" opacity=".7"/><path stroke-width=".48" opacity=".7" stroke="#4C5C78" fill="none" stroke-linecap="butt" d="M191 383l-26 1-33-7 38-40 141-13"/><path cx="311" cy="324" r="1.68" fill="#4C5C78" opacity=".7" d="M309.17 322.48l3.5 1.37-3.19 1.98z"/></g><g class="key-Finland"><circle cx="426" cy="236" r="1.1" fill="#4C5C78" stroke="none" opacity=".7"/><path stroke-width=".48" opacity=".7" stroke="#4C5C78" fill="none" stroke-linecap="butt" d="M426 236l39-26 26-7"/><path cx="491" cy="203" r="1.68" fill="#4C5C78" opacity=".7" d="M488.94 201.81l3.68.75-2.8 2.5z"/></g><g class="key-Norway"><circle cx="512" cy="186" r="1.1" fill="#4C5C78" stroke="none" opacity=".7"/><path stroke-width=".47" opacity=".7" stroke="#4C5C78" fill="none" stroke-linecap="butt" d="M512 186l83-49 43-15"/><path cx="638" cy="122" r="1.67" fill="#4C5C78" opacity=".7" d="M635.87 120.97l3.7.48-2.6 2.68z"/></g><g class="key-Ireland"><circle cx="427" cy="208" r="1.1" fill="#4C5C78" stroke="none" opacity=".7"/><path stroke-width=".47" opacity=".7" stroke="#4C5C78" fill="none" stroke-linecap="butt" d="M427 208l47-32-46 49"/><path cx="428" cy="225" r="1.67" fill="#4C5C78" opacity=".7" d="M430.36 224.93l-3.5 1.29 1.07-3.58z"/></g><g class="key-Slovenia"><circle cx="311" cy="300" r="1.1" fill="#4C5C78" stroke="none" opacity=".7"/><path stroke-width=".44" opacity=".7" stroke="#4C5C78" fill="none" stroke-linecap="butt" d="M311 300l41-18 13-13"/><path cx="365" cy="269" r="1.64" fill="#4C5C78" opacity=".7" d="M362.68 269l3.48-1.16-1.16 3.48z"/></g><g class="key-Estonia"><circle cx="101" cy="426" r="1.1" fill="#4C5C78" stroke="none" opacity=".7"/><path stroke-width=".43" opacity=".7" stroke="#4C5C78" fill="none" stroke-linecap="butt" d="M101 426l18-25 105-56-16 18"/><path cx="208" cy="363" r="1.63" fill="#4C5C78" opacity=".7" d="M210.3 362.86l-3.38 1.36.94-3.52z"/></g><g class="key-Luxembourg"><circle cx="700" cy="81" r="1.1" fill="#4C5C78" stroke="none" opacity=".7"/><path stroke-width=".42" opacity=".7" stroke="#4C5C78" fill="none" stroke-linecap="butt" d="M700 81l20 1-15 5"/><path cx="705" cy="87" r="1.62" fill="#4C5C78" opacity=".7" d="M707.05 88.02l-3.59-.5 2.56-2.57z"/></g><g class="key-Iceland"><circle cx="459" cy="187" r="1.1" fill="#4C5C78" stroke="none" opacity=".7"/><path stroke-width=".41" opacity=".7" stroke="#4C5C78" fill="none" stroke-linecap="butt" d="M459 187l112-59-98 63"/><path cx="473" cy="191" r="1.61" fill="#4C5C78" opacity=".7" d="M475.22 191.48l-3.57.4 1.83-3.1z"/></g><g class="backgroundLabels" fill="#333" font-weight="400"><text x="466.3" y="158.39" font-size="14.3" fill="#fff" stroke="#fff" stroke-linecap="round" stroke-linejoin="round" stroke-width=".25em">United States</text><text x="466.3" y="158.39" font-size="14.3" fill="#E04E4B">United States</text><text x="523.54" y="193.46" font-size="11.84" fill="#fff" stroke="#fff" stroke-linecap="round" stroke-linejoin="round" stroke-width=".25em">Germany</text><text x="523.54" y="193.46" font-size="11.84" fill="#4C5C78">Germany</text><text x="354.86" y="242.87" font-size="11.66" fill="#fff" stroke="#fff" stroke-linecap="round" stroke-linejoin="round" stroke-width=".25em">United Kingdom</text><text x="354.86" y="242.87" font-size="11.66" fill="#4C5C78">United Kingdom</text><text x="393.72" y="288.88" font-size="11.62" fill="#fff" stroke="#fff" stroke-linecap="round" stroke-linejoin="round" stroke-width=".25em">Italy</text><text x="393.72" y="288.88" font-size="11.62" fill="#4C5C78">Italy</text><text x="161.68" y="352.78" font-size="11.4" fill="#fff" stroke="#fff" stroke-linecap="round" stroke-linejoin="round" stroke-width=".25em">Poland</text><text x="161.68" y="352.78" font-size="11.4" fill="#4C5C78">Poland</text><text x="266.21" y="295.22" font-size="11.11" fill="#fff" stroke="#fff" stroke-linecap="round" stroke-linejoin="round" stroke-width=".25em">Greece</text><text x="266.21" y="295.22" font-size="11.11" fill="#4C5C78">Greece</text><text x="143.96" y="372.45" font-size="11.1" fill="#fff" stroke="#fff" stroke-linecap="round" stroke-linejoin="round" stroke-width=".25em">Hungary</text><text x="143.96" y="372.45" font-size="11.1" fill="#4C5C78">Hungary</text><text x="315.98" y="323.54" font-size="11.05" fill="#fff" stroke="#fff" stroke-linecap="round" stroke-linejoin="round" stroke-width=".25em">Slovakia</text><text x="315.98" y="323.54" font-size="11.05" fill="#4C5C78">Slovakia</text><text x="642.72" y="120.35" font-size="11.05" fill="#fff" stroke="#fff" stroke-linecap="round" stroke-linejoin="round" stroke-width=".25em">Norway</text><text x="642.72" y="120.35" font-size="11.05" fill="#4C5C78">Norway</text><text x="368.54" y="265.46" font-size="11.02" fill="#fff" stroke="#fff" stroke-linecap="round" stroke-linejoin="round" stroke-width=".25em">Slovenia</text><text x="368.54" y="265.46" font-size="11.02" fill="#4C5C78">Slovenia</text><text x="638.86" y="94.08" font-size="11" fill="#fff" stroke="#fff" stroke-linecap="round" stroke-linejoin="round" stroke-width=".25em">Luxembourg</text><text x="638.86" y="94.08" font-size="11" fill="#4C5C78">Luxembourg</text><text x="433.15" y="199.2" font-size="11" fill="#fff" stroke="#fff" stroke-linecap="round" stroke-linejoin="round" stroke-width=".25em">Iceland</text><text x="433.15" y="199.2" font-size="11" fill="#4C5C78">Iceland</text></g></g><g class="ScatterColorLegend clickable" cursor="pointer"><g class="legendMark"><path fill="#2D8587" d="M740.36 83h9v9h-9z"/><text font-size="12.6" x="754.4" y="91.3"><tspan x="754.36" y="91.28">Asia</tspan></text></g><g class="legendMark"><path fill="#4C5C78" d="M740.36 100.6h9v9h-9z"/><text font-size="12.6" x="754.4" y="108.9"><tspan x="754.36" y="108.88">Europe</tspan></text></g><g class="legendMark"><path fill="#E04E4B" d="M740.36 118.2h9v9h-9z"/><text font-size="12.6" x="754.4" y="126.5"><tspan x="754.36" y="126.48">North America</tspan></text></g><g class="legendMark"><path fill="#A8633C" d="M740.36 135.8h9v9h-9z"/><text font-size="12.6" x="754.4" y="144.1"><tspan x="754.36" y="144.08">Oceania</tspan></text></g></g><path stroke="#ccc" d="M740.36 153.6H830"/><g class="clickable"><g class="ConnectedScatterLegend"><text font-size="12.6" x="740.4" y="172.7" fill="#333"><tspan x="740.36" y="172.68">1981</tspan></text><text font-size="12.6" x="806.8" y="172.7" fill="#333"><tspan x="806.78" y="172.68">2013</tspan></text><path stroke="#666" stroke-width="1" d="M773.58 168.4h28.2"/><circle cx="773.58" cy="168.4" r="2" fill="#666" stroke="#ccc" stroke-width=".2"/><circle cx="782.98" cy="168.4" r="2" fill="#666" stroke="#ccc" stroke-width=".2"/><circle cx="792.38" cy="168.4" r="2" fill="#666" stroke="#ccc" stroke-width=".2"/><path cx="801.78" cy="168.4" r="3" fill="#666" stroke="#ccc" stroke-width=".2" d="M798.78 165.4l6 3-6 3z"/></g></g></g><g class="SourcesFooter" fill="#777"><g fill="#777"><text font-size="12.6" x="15" y="582.5"><tspan x="15" y="582.48">Source: Incomes across the Distribution Database (Nolan, Thewissen, Roser) in levels (2016), World Bank</tspan></text></g><text font-size="12.6" x="796.4" y="582.5"><tspan x="796.44" y="582.48"><a class="cclogo" href="http://creativecommons.org/licenses/by/4.0/deed.en_US" target="_blank" fill="#777">CC BY</a></tspan></text></g></svg>