<svg xmlns="http://www.w3.org/2000/svg" version="1.1" style="background-color:#fff;-webkit-font-smoothing:antialiased" width="850" height="600" viewBox="0 0 850 600" font-family="Lato,'Helvetica Neue',Helvetica,Arial,sans-serif" font-size="18" text-rendering="optimizeLegibility"><g class="HeaderView"><g transform="matrix(.29 0 0 .29 774 15)"><svg className="owidLog" width="210" height="120" viewBox="0 0 210 120" fill="none" xmlns="http://www.w3.org/2000/svg"><g clip-path="url(#clip0)"><path d="M0 0h210v107.89H0V0z" fill="#002147"/><path d="M40.98 32.25c0 2.36-.38 4.53-1.12 6.51a14.26 14.26 0 01-8.1 8.4c-1.9.78-4.02 1.17-6.34 1.17a16.6 16.6 0 01-6.33-1.17 14.31 14.31 0 01-8.08-8.4 18.29 18.29 0 01-1.12-6.51c0-2.36.38-4.53 1.12-6.5.75-1.97 1.8-3.67 3.17-5.1a14.32 14.32 0 014.9-3.34c1.92-.8 4.03-1.19 6.34-1.19 2.32 0 4.43.4 6.34 1.19 1.92.8 3.56 1.9 4.93 3.34a14.87 14.87 0 013.17 5.1 18.1 18.1 0 011.12 6.5zm-4.38 0c0-1.94-.26-3.68-.8-5.22a10.91 10.91 0 00-2.24-3.89 9.68 9.68 0 00-3.52-2.46 11.95 11.95 0 00-4.62-.86c-1.68 0-3.21.28-4.6.86a9.88 9.88 0 00-3.54 2.46 10.91 10.91 0 00-2.24 3.9c-.53 1.53-.8 3.27-.8 5.2 0 1.94.27 3.68.8 5.22a11.17 11.17 0 002.24 3.9 10.01 10.01 0 003.55 2.44c1.38.56 2.9.83 4.6.83s3.24-.27 4.61-.83a9.8 9.8 0 003.52-2.44 11.17 11.17 0 002.25-3.9c.53-1.54.8-3.28.8-5.21zm26.22-6.54V48H60.5c-.56 0-.9-.27-1.05-.81l-.31-2.4a12.45 12.45 0 01-3.26 2.6c-1.2.64-2.58.96-4.13.96-1.22 0-2.3-.2-3.24-.6a6.52 6.52 0 01-2.33-1.7 7.37 7.37 0 01-1.43-2.67c-.3-1.04-.46-2.2-.46-3.45V25.7h3.91v14.22c0 1.68.38 2.99 1.15 3.91.77.93 1.96 1.39 3.54 1.39 1.16 0 2.24-.27 3.23-.82a10.42 10.42 0 002.8-2.28V25.7h3.91zm8.61 4.47a9.94 9.94 0 012.6-3.56 5.64 5.64 0 013.76-1.3c.47 0 .92.05 1.34.15.44.1.83.27 1.17.49l-.3 2.92c-.09.37-.3.55-.66.55-.2 0-.5-.04-.9-.13a6.21 6.21 0 00-3.24.18 4.23 4.23 0 00-1.47.92c-.42.4-.81.9-1.17 1.5-.33.58-.64 1.26-.92 2.02V48H67.7V25.71h2.25c.42 0 .72.08.88.25.16.16.27.44.33.83l.26 3.39zm61.16-13.7L122.75 48h-3.82l-7.99-24.05a21.95 21.95 0 01-.42-1.58 38.36 38.36 0 01-.44 1.58L102.05 48h-3.83L88.4 16.47h3.54c.38 0 .7.1.95.29.26.2.43.43.5.73l6.52 21.9.28 1.28.29 1.46.3-1.46.38-1.27 7.41-21.91c.1-.25.26-.48.51-.69.27-.22.58-.33.95-.33h1.23c.38 0 .69.1.92.29a1.77 1.77 0 01.53.73l7.4 21.9a28.4 28.4 0 01.68 2.62 29.52 29.52 0 01.52-2.61l6.54-21.91a1.31 1.31 0 01.48-.7c.27-.21.58-.32.95-.32h3.32zm9.35 8.88c1.63 0 3.1.27 4.4.82a9.43 9.43 0 015.46 5.94c.5 1.4.74 2.98.74 4.73 0 1.76-.25 3.34-.74 4.75a9.43 9.43 0 01-5.46 5.92c-1.3.52-2.77.79-4.4.79-1.64 0-3.12-.27-4.44-.8a9.42 9.42 0 01-3.35-2.3c-.92-1-1.63-2.2-2.13-3.61-.49-1.41-.73-3-.73-4.75s.24-3.33.73-4.73c.5-1.43 1.2-2.64 2.13-3.63a9.4 9.4 0 013.35-2.31c1.32-.55 2.8-.82 4.44-.82zm0 19.89c2.2 0 3.84-.73 4.93-2.2 1.08-1.48 1.63-3.54 1.63-6.18 0-2.66-.55-4.72-1.63-6.2-1.09-1.49-2.73-2.23-4.93-2.23-1.12 0-2.09.2-2.93.57a5.71 5.71 0 00-2.06 1.65 7.5 7.5 0 00-1.24 2.67c-.26 1.04-.4 2.22-.4 3.54 0 2.64.55 4.7 1.64 6.18 1.1 1.47 2.76 2.2 4.99 2.2zm17.97-15.07a9.94 9.94 0 012.6-3.56 5.64 5.64 0 013.76-1.3c.47 0 .91.05 1.34.15.44.1.83.27 1.16.49l-.28 2.92c-.09.37-.31.55-.66.55-.2 0-.5-.04-.9-.13a6.2 6.2 0 00-3.24.18 4.23 4.23 0 00-1.47.92c-.43.4-.82.9-1.17 1.5a13.1 13.1 0 00-.92 2.02V48h-3.94V25.71h2.24c.43 0 .72.08.88.25.17.16.28.44.33.83l.27 3.39zm15.04-14.59V48h-3.92V15.6h3.92zm19.55 15.43a6.22 6.22 0 00-2.38-2.05 6.7 6.7 0 00-2.86-.6c-2.07 0-3.66.75-4.77 2.23-1.12 1.48-1.68 3.6-1.68 6.33 0 1.46.13 2.7.38 3.74a7.29 7.29 0 001.1 2.56 4.35 4.35 0 001.78 1.45c.7.3 1.5.46 2.4.46 1.29 0 2.41-.3 3.36-.88a9.6 9.6 0 002.67-2.49V31.02zm3.91-15.43V48h-2.33c-.56 0-.9-.27-1.06-.81l-.35-2.71a12.13 12.13 0 01-3.25 2.77 8.28 8.28 0 01-4.23 1.06 7.31 7.31 0 01-6.14-2.9c-.73-.96-1.3-2.15-1.69-3.57a18.35 18.35 0 01.07-9.48 11.29 11.29 0 011.89-3.7 8.7 8.7 0 017.06-3.34 7.96 7.96 0 016.12 2.62V15.59h3.91zM46.61 70.71V93H42.7V70.71h3.91zm.84-7c0 .39-.08.75-.24 1.09a2.81 2.81 0 01-1.52 1.47 2.67 2.67 0 01-2.16 0 2.9 2.9 0 01-1.45-1.47 2.67 2.67 0 010-2.16c.15-.35.35-.65.6-.9.25-.27.53-.47.85-.62a2.67 2.67 0 012.16 0c.35.15.65.35.9.62.27.25.47.55.62.9.16.34.24.7.24 1.08zm7.97 10.24c.49-.54 1-1.04 1.54-1.48a9.85 9.85 0 013.66-1.84 8.96 8.96 0 015.43.35c.94.4 1.72.97 2.33 1.71a7.36 7.36 0 011.43 2.67c.32 1.04.49 2.19.49 3.45V93h-3.94V78.81c0-1.69-.4-3-1.17-3.92-.76-.93-1.93-1.4-3.5-1.4a6.6 6.6 0 00-3.25.83c-1 .56-1.92 1.31-2.77 2.27V93h-3.94V70.71h2.35c.56 0 .9.28 1.04.82l.3 2.42zm57.7 3.3c0 2.36-.37 4.5-1.11 6.44a14.3 14.3 0 01-3.17 4.98 14.1 14.1 0 01-4.93 3.2c-1.9.76-4.02 1.13-6.33 1.13H85.8V61.47h11.77c2.31 0 4.42.39 6.33 1.15a13.8 13.8 0 018.1 8.18 17.75 17.75 0 011.12 6.45zm-4.37 0c0-1.94-.26-3.67-.8-5.2a10.94 10.94 0 00-2.23-3.87 9.57 9.57 0 00-3.53-2.42 12.23 12.23 0 00-4.61-.83h-7.5v24.62h7.5c1.7 0 3.24-.28 4.61-.84a9.7 9.7 0 003.53-2.4 10.94 10.94 0 002.24-3.87c.53-1.53.8-3.26.8-5.2zm19.8 5.72c-1.8.06-3.34.2-4.62.44-1.26.22-2.3.51-3.1.88-.8.36-1.37.8-1.74 1.3-.35.5-.53 1.05-.53 1.67 0 .58.1 1.1.3 1.52a3 3 0 00.76 1.05c.34.27.73.46 1.17.6a6.13 6.13 0 001.45.17 7.28 7.28 0 003.5-.81 11.95 11.95 0 002.82-2.2v-4.62zm-12.65-9.11a12.73 12.73 0 013.98-2.66c1.43-.59 3-.88 4.73-.88 1.25 0 2.36.2 3.33.61a6.81 6.81 0 013.94 4.38c.33 1.04.5 2.19.5 3.43V93h-1.74a1.8 1.8 0 01-.88-.18c-.2-.13-.36-.38-.48-.74l-.44-2.12-1.72 1.46a9.48 9.48 0 01-3.74 1.7c-.69.15-1.46.23-2.3.23-.87 0-1.69-.12-2.45-.35a5.34 5.34 0 01-3.34-2.93 6.64 6.64 0 01-.49-2.64c0-.88.25-1.72.73-2.53a6.33 6.33 0 012.35-2.17c1.09-.63 2.5-1.15 4.25-1.54 1.75-.41 3.89-.65 6.42-.7v-1.75c0-1.73-.37-3.03-1.12-3.91-.75-.9-1.84-1.34-3.28-1.34-.97 0-1.78.12-2.44.37-.64.23-1.2.5-1.7.81l-1.23.82c-.33.23-.67.35-1 .35-.27 0-.5-.07-.69-.2a2.1 2.1 0 01-.48-.53l-.7-1.25zm27.67 19.5c-1.76 0-3.12-.5-4.07-1.48-.94-.98-1.41-2.4-1.41-4.25V74h-2.68a.9.9 0 01-.6-.2c-.16-.14-.24-.36-.24-.66v-1.56l3.65-.46.9-6.89a.9.9 0 01.29-.52.88.88 0 01.62-.22H142v7.67h6.44V74H142v13.38c0 .94.22 1.63.68 2.09.45.45 1.04.68 1.76.68a3.21 3.21 0 001.85-.53l.55-.35c.16-.12.3-.18.41-.18.2 0 .4.13.55.38l1.15 1.87a7.45 7.45 0 01-2.44 1.5 8.53 8.53 0 01-2.95.52zm19.68-10.4c-1.8.07-3.34.21-4.62.45-1.26.22-2.3.51-3.1.88-.8.36-1.37.8-1.74 1.3-.35.5-.53 1.05-.53 1.67 0 .58.1 1.1.3 1.52a2.9 2.9 0 00.76 1.05c.34.27.73.46 1.17.6a6.13 6.13 0 001.45.17 7.3 7.3 0 003.5-.81 12.04 12.04 0 002.82-2.2v-4.62zm-12.65-9.1a12.72 12.72 0 013.99-2.66c1.42-.59 3-.88 4.72-.88 1.25 0 2.36.2 3.33.61a6.81 6.81 0 013.94 4.38c.33 1.04.5 2.19.5 3.43V93h-1.74a1.8 1.8 0 01-.88-.18c-.2-.13-.36-.38-.48-.74l-.44-2.12-1.72 1.46a9.48 9.48 0 01-3.74 1.7c-.69.15-1.46.23-2.3.23-.87 0-1.69-.12-2.45-.35a5.33 5.33 0 01-3.34-2.93 6.62 6.62 0 01-.49-2.64c0-.88.25-1.72.73-2.53a6.33 6.33 0 012.35-2.17c1.09-.63 2.5-1.15 4.25-1.54a31.2 31.2 0 016.42-.7v-1.75c0-1.73-.37-3.03-1.12-3.91-.75-.9-1.84-1.34-3.28-1.34-.97 0-1.78.12-2.44.37-.64.23-1.2.5-1.7.81l-1.22.82c-.34.23-.68.35-1.02.35-.26 0-.49-.07-.68-.2a1.88 1.88 0 01-.48-.53l-.7-1.25zM40.98 32.25c0 2.36-.38 4.53-1.12 6.51a14.26 14.26 0 01-8.1 8.4c-1.9.78-4.02 1.17-6.34 1.17a16.6 16.6 0 01-6.33-1.17 14.31 14.31 0 01-8.08-8.4 18.29 18.29 0 01-1.12-6.51c0-2.36.38-4.53 1.12-6.5.75-1.97 1.8-3.67 3.17-5.1a14.32 14.32 0 014.9-3.34c1.92-.8 4.03-1.19 6.34-1.19 2.32 0 4.43.4 6.34 1.19 1.92.8 3.56 1.9 4.93 3.34a14.87 14.87 0 013.17 5.1 18.1 18.1 0 011.12 6.5zm-4.38 0c0-1.94-.26-3.68-.8-5.22a10.91 10.91 0 00-2.24-3.89 9.68 9.68 0 00-3.52-2.46 11.95 11.95 0 00-4.62-.86c-1.68 0-3.21.28-4.6.86a9.88 9.88 0 00-3.54 2.46 10.91 10.91 0 00-2.24 3.9c-.53 1.53-.8 3.27-.8 5.2 0 1.94.27 3.68.8 5.22a11.17 11.17 0 002.24 3.9 10.01 10.01 0 003.55 2.44c1.38.56 2.9.83 4.6.83s3.24-.27 4.61-.83a9.8 9.8 0 003.52-2.44 11.17 11.17 0 002.25-3.9c.53-1.54.8-3.28.8-5.21zm26.22-6.54V48H60.5c-.56 0-.9-.27-1.05-.81l-.31-2.4a12.45 12.45 0 01-3.26 2.6c-1.2.64-2.58.96-4.13.96-1.22 0-2.3-.2-3.24-.6a6.52 6.52 0 01-2.33-1.7 7.37 7.37 0 01-1.43-2.67c-.3-1.04-.46-2.2-.46-3.45V25.7h3.91v14.22c0 1.68.38 2.99 1.15 3.91.77.93 1.96 1.39 3.54 1.39 1.16 0 2.24-.27 3.23-.82a10.42 10.42 0 002.8-2.28V25.7h3.91zm8.61 4.47a9.94 9.94 0 012.6-3.56 5.64 5.64 0 013.76-1.3c.47 0 .92.05 1.34.15.44.1.83.27 1.17.49l-.3 2.92c-.09.37-.3.55-.66.55-.2 0-.5-.04-.9-.13a6.21 6.21 0 00-3.24.18 4.23 4.23 0 00-1.47.92c-.42.4-.81.9-1.17 1.5-.33.58-.64 1.26-.92 2.02V48H67.7V25.71h2.25c.42 0 .72.08.88.25.16.16.27.44.33.83l.26 3.39zm61.16-13.7L122.75 48h-3.82l-7.99-24.05a21.95 21.95 0 01-.42-1.58 38.36 38.36 0 01-.44 1.58L102.05 48h-3.83L88.4 16.47h3.54c.38 0 .7.1.95.29.26.2.43.43.5.73l6.52 21.9.28 1.28.29 1.46.3-1.46.38-1.27 7.41-21.91c.1-.25.26-.48.51-.69.27-.22.58-.33.95-.33h1.23c.38 0 .69.1.92.29a1.77 1.77 0 01.53.73l7.4 21.9a28.4 28.4 0 01.68 2.62 29.52 29.52 0 01.52-2.61l6.54-21.91a1.31 1.31 0 01.48-.7c.27-.21.58-.32.95-.32h3.32zm9.35 8.88c1.63 0 3.1.27 4.4.82a9.43 9.43 0 015.46 5.94c.5 1.4.74 2.98.74 4.73 0 1.76-.25 3.34-.74 4.75a9.43 9.43 0 01-5.46 5.92c-1.3.52-2.77.79-4.4.79-1.64 0-3.12-.27-4.44-.8a9.42 9.42 0 01-3.35-2.3c-.92-1-1.63-2.2-2.13-3.61-.49-1.41-.73-3-.73-4.75s.24-3.33.73-4.73c.5-1.43 1.2-2.64 2.13-3.63a9.4 9.4 0 013.35-2.31c1.32-.55 2.8-.82 4.44-.82zm0 19.89c2.2 0 3.84-.73 4.93-2.2 1.08-1.48 1.63-3.54 1.63-6.18 0-2.66-.55-4.72-1.63-6.2-1.09-1.49-2.73-2.23-4.93-2.23-1.12 0-2.09.2-2.93.57a5.71 5.71 0 00-2.06 1.65 7.5 7.5 0 00-1.24 2.67c-.26 1.04-.4 2.22-.4 3.54 0 2.64.55 4.7 1.64 6.18 1.1 1.47 2.76 2.2 4.99 2.2zm17.97-15.07a9.94 9.94 0 012.6-3.56 5.64 5.64 0 013.76-1.3c.47 0 .91.05 1.34.15.44.1.83.27 1.16.49l-.28 2.92c-.09.37-.31.55-.66.55-.2 0-.5-.04-.9-.13a6.2 6.2 0 00-3.24.18 4.23 4.23 0 00-1.47.92c-.43.4-.82.9-1.17 1.5a13.1 13.1 0 00-.92 2.02V48h-3.94V25.71h2.24c.43 0 .72.08.88.25.17.16.28.44.33.83l.27 3.39zm15.04-14.59V48h-3.92V15.6h3.92zm19.55 15.43a6.22 6.22 0 00-2.38-2.05 6.7 6.7 0 00-2.86-.6c-2.07 0-3.66.75-4.77 2.23-1.12 1.48-1.68 3.6-1.68 6.33 0 1.46.13 2.7.38 3.74a7.29 7.29 0 001.1 2.56 4.35 4.35 0 001.78 1.45c.7.3 1.5.46 2.4.46 1.29 0 2.41-.3 3.36-.88a9.6 9.6 0 002.67-2.49V31.02zm3.91-15.43V48h-2.33c-.56 0-.9-.27-1.06-.81l-.35-2.71a12.13 12.13 0 01-3.25 2.77 8.28 8.28 0 01-4.23 1.06 7.31 7.31 0 01-6.14-2.9c-.73-.96-1.3-2.15-1.69-3.57a18.35 18.35 0 01.07-9.48 11.29 11.29 0 011.89-3.7 8.7 8.7 0 017.06-3.34 7.96 7.96 0 016.12 2.62V15.59h3.91zM46.61 70.71V93H42.7V70.71h3.91zm.84-7c0 .39-.08.75-.24 1.09a2.81 2.81 0 01-1.52 1.47 2.67 2.67 0 01-2.16 0 2.9 2.9 0 01-1.45-1.47 2.67 2.67 0 010-2.16c.15-.35.35-.65.6-.9.25-.27.53-.47.85-.62a2.67 2.67 0 012.16 0c.35.15.65.35.9.62.27.25.47.55.62.9.16.34.24.7.24 1.08zm7.97 10.24c.49-.54 1-1.04 1.54-1.48a9.85 9.85 0 013.66-1.84 8.96 8.96 0 015.43.35c.94.4 1.72.97 2.33 1.71a7.36 7.36 0 011.43 2.67c.32 1.04.49 2.19.49 3.45V93h-3.94V78.81c0-1.69-.4-3-1.17-3.92-.76-.93-1.93-1.4-3.5-1.4a6.6 6.6 0 00-3.25.83c-1 .56-1.92 1.31-2.77 2.27V93h-3.94V70.71h2.35c.56 0 .9.28 1.04.82l.3 2.42zm57.7 3.3c0 2.36-.37 4.5-1.11 6.44a14.3 14.3 0 01-3.17 4.98 14.1 14.1 0 01-4.93 3.2c-1.9.76-4.02 1.13-6.33 1.13H85.8V61.47h11.77c2.31 0 4.42.39 6.33 1.15a13.8 13.8 0 018.1 8.18 17.75 17.75 0 011.12 6.45zm-4.37 0c0-1.94-.26-3.67-.8-5.2a10.94 10.94 0 00-2.23-3.87 9.57 9.57 0 00-3.53-2.42 12.23 12.23 0 00-4.61-.83h-7.5v24.62h7.5c1.7 0 3.24-.28 4.61-.84a9.7 9.7 0 003.53-2.4 10.94 10.94 0 002.24-3.87c.53-1.53.8-3.26.8-5.2zm19.8 5.72c-1.8.06-3.34.2-4.62.44-1.26.22-2.3.51-3.1.88-.8.36-1.37.8-1.74 1.3-.35.5-.53 1.05-.53 1.67 0 .58.1 1.1.3 1.52a3 3 0 00.76 1.05c.34.27.73.46 1.17.6a6.13 6.13 0 001.45.17 7.28 7.28 0 003.5-.81 11.95 11.95 0 002.82-2.2v-4.62zm-12.65-9.11a12.73 12.73 0 013.98-2.66c1.43-.59 3-.88 4.73-.88 1.25 0 2.36.2 3.33.61a6.81 6.81 0 013.94 4.38c.33 1.04.5 2.19.5 3.43V93h-1.74a1.8 1.8 0 01-.88-.18c-.2-.13-.36-.38-.48-.74l-.44-2.12-1.72 1.46a9.48 9.48 0 01-3.74 1.7c-.69.15-1.46.23-2.3.23-.87 0-1.69-.12-2.45-.35a5.34 5.34 0 01-3.34-2.93 6.64 6.64 0 01-.49-2.64c0-.88.25-1.72.73-2.53a6.33 6.33 0 012.35-2.17c1.09-.63 2.5-1.15 4.25-1.54 1.75-.41 3.89-.65 6.42-.7v-1.75c0-1.73-.37-3.03-1.12-3.91-.75-.9-1.84-1.34-3.28-1.34-.97 0-1.78.12-2.44.37-.64.23-1.2.5-1.7.81l-1.23.82c-.33.23-.67.35-1 .35-.27 0-.5-.07-.69-.2a2.1 2.1 0 01-.48-.53l-.7-1.25zm27.67 19.5c-1.76 0-3.12-.5-4.07-1.48-.94-.98-1.41-2.4-1.41-4.25V74h-2.68a.9.9 0 01-.6-.2c-.16-.14-.24-.36-.24-.66v-1.56l3.65-.46.9-6.89a.9.9 0 01.29-.52.88.88 0 01.62-.22H142v7.67h6.44V74H142v13.38c0 .94.22 1.63.68 2.09.45.45 1.04.68 1.76.68a3.21 3.21 0 001.85-.53l.55-.35c.16-.12.3-.18.41-.18.2 0 .4.13.55.38l1.15 1.87a7.45 7.45 0 01-2.44 1.5 8.53 8.53 0 01-2.95.52zm19.68-10.4c-1.8.07-3.34.21-4.62.45-1.26.22-2.3.51-3.1.88-.8.36-1.37.8-1.74 1.3-.35.5-.53 1.05-.53 1.67 0 .58.1 1.1.3 1.52a2.9 2.9 0 00.76 1.05c.34.27.73.46 1.17.6a6.13 6.13 0 001.45.17 7.3 7.3 0 003.5-.81 12.04 12.04 0 002.82-2.2v-4.62zm-12.65-9.1a12.72 12.72 0 013.99-2.66c1.42-.59 3-.88 4.72-.88 1.25 0 2.36.2 3.33.61a6.81 6.81 0 013.94 4.38c.33 1.04.5 2.19.5 3.43V93h-1.74a1.8 1.8 0 01-.88-.18c-.2-.13-.36-.38-.48-.74l-.44-2.12-1.72 1.46a9.48 9.48 0 01-3.74 1.7c-.69.15-1.46.23-2.3.23-.87 0-1.69-.12-2.45-.35a5.33 5.33 0 01-3.34-2.93 6.62 6.62 0 01-.49-2.64c0-.88.25-1.72.73-2.53a6.33 6.33 0 012.35-2.17c1.09-.63 2.5-1.15 4.25-1.54a31.2 31.2 0 016.42-.7v-1.75c0-1.73-.37-3.03-1.12-3.91-.75-.9-1.84-1.34-3.28-1.34-.97 0-1.78.12-2.44.37-.64.23-1.2.5-1.7.81l-1.22.82c-.34.23-.68.35-1.02.35-.26 0-.49-.07-.68-.2a1.88 1.88 0 01-.48-.53l-.7-1.25zM40.98 32.25c0 2.36-.38 4.53-1.12 6.51a14.26 14.26 0 01-8.1 8.4c-1.9.78-4.02 1.17-6.34 1.17a16.6 16.6 0 01-6.33-1.17 14.31 14.31 0 01-8.08-8.4 18.29 18.29 0 01-1.12-6.51c0-2.36.38-4.53 1.12-6.5.75-1.97 1.8-3.67 3.17-5.1a14.32 14.32 0 014.9-3.34c1.92-.8 4.03-1.19 6.34-1.19 2.32 0 4.43.4 6.34 1.19 1.92.8 3.56 1.9 4.93 3.34a14.87 14.87 0 013.17 5.1 18.1 18.1 0 011.12 6.5zm-4.38 0c0-1.94-.26-3.68-.8-5.22a10.91 10.91 0 00-2.24-3.89 9.68 9.68 0 00-3.52-2.46 11.95 11.95 0 00-4.62-.86c-1.68 0-3.21.28-4.6.86a9.88 9.88 0 00-3.54 2.46 10.91 10.91 0 00-2.24 3.9c-.53 1.53-.8 3.27-.8 5.2 0 1.94.27 3.68.8 5.22a11.17 11.17 0 002.24 3.9 10.01 10.01 0 003.55 2.44c1.38.56 2.9.83 4.6.83s3.24-.27 4.61-.83a9.8 9.8 0 003.52-2.44 11.17 11.17 0 002.25-3.9c.53-1.54.8-3.28.8-5.21zm26.22-6.54V48H60.5c-.56 0-.9-.27-1.05-.81l-.31-2.4a12.45 12.45 0 01-3.26 2.6c-1.2.64-2.58.96-4.13.96-1.22 0-2.3-.2-3.24-.6a6.52 6.52 0 01-2.33-1.7 7.37 7.37 0 01-1.43-2.67c-.3-1.04-.46-2.2-.46-3.45V25.7h3.91v14.22c0 1.68.38 2.99 1.15 3.91.77.93 1.96 1.39 3.54 1.39 1.16 0 2.24-.27 3.23-.82a10.42 10.42 0 002.8-2.28V25.7h3.91zm8.61 4.47a9.94 9.94 0 012.6-3.56 5.64 5.64 0 013.76-1.3c.47 0 .92.05 1.34.15.44.1.83.27 1.17.49l-.3 2.92c-.09.37-.3.55-.66.55-.2 0-.5-.04-.9-.13a6.21 6.21 0 00-3.24.18 4.23 4.23 0 00-1.47.92c-.42.4-.81.9-1.17 1.5-.33.58-.64 1.26-.92 2.02V48H67.7V25.71h2.25c.42 0 .72.08.88.25.16.16.27.44.33.83l.26 3.39zm61.16-13.7L122.75 48h-3.82l-7.99-24.05a21.95 21.95 0 01-.42-1.58 38.36 38.36 0 01-.44 1.58L102.05 48h-3.83L88.4 16.47h3.54c.38 0 .7.1.95.29.26.2.43.43.5.73l6.52 21.9.28 1.28.29 1.46.3-1.46.38-1.27 7.41-21.91c.1-.25.26-.48.51-.69.27-.22.58-.33.95-.33h1.23c.38 0 .69.1.92.29a1.77 1.77 0 01.53.73l7.4 21.9a28.4 28.4 0 01.68 2.62 29.52 29.52 0 01.52-2.61l6.54-21.91a1.31 1.31 0 01.48-.7c.27-.21.58-.32.95-.32h3.32zm9.35 8.88c1.63 0 3.1.27 4.4.82a9.43 9.43 0 015.46 5.94c.5 1.4.74 2.98.74 4.73 0 1.76-.25 3.34-.74 4.75a9.43 9.43 0 01-5.46 5.92c-1.3.52-2.77.79-4.4.79-1.64 0-3.12-.27-4.44-.8a9.42 9.42 0 01-3.35-2.3c-.92-1-1.63-2.2-2.13-3.61-.49-1.41-.73-3-.73-4.75s.24-3.33.73-4.73c.5-1.43 1.2-2.64 2.13-3.63a9.4 9.4 0 013.35-2.31c1.32-.55 2.8-.82 4.44-.82zm0 19.89c2.2 0 3.84-.73 4.93-2.2 1.08-1.48 1.63-3.54 1.63-6.18 0-2.66-.55-4.72-1.63-6.2-1.09-1.49-2.73-2.23-4.93-2.23-1.12 0-2.09.2-2.93.57a5.71 5.71 0 00-2.06 1.65 7.5 7.5 0 00-1.24 2.67c-.26 1.04-.4 2.22-.4 3.54 0 2.64.55 4.7 1.64 6.18 1.1 1.47 2.76 2.2 4.99 2.2zm17.97-15.07a9.94 9.94 0 012.6-3.56 5.64 5.64 0 013.76-1.3c.47 0 .91.05 1.34.15.44.1.83.27 1.16.49l-.28 2.92c-.09.37-.31.55-.66.55-.2 0-.5-.04-.9-.13a6.2 6.2 0 00-3.24.18 4.23 4.23 0 00-1.47.92c-.43.4-.82.9-1.17 1.5a13.1 13.1 0 00-.92 2.02V48h-3.94V25.71h2.24c.43 0 .72.08.88.25.17.16.28.44.33.83l.27 3.39zm15.04-14.59V48h-3.92V15.6h3.92zm19.55 15.43a6.22 6.22 0 00-2.38-2.05 6.7 6.7 0 00-2.86-.6c-2.07 0-3.66.75-4.77 2.23-1.12 1.48-1.68 3.6-1.68 6.33 0 1.46.13 2.7.38 3.74a7.29 7.29 0 001.1 2.56 4.35 4.35 0 001.78 1.45c.7.3 1.5.46 2.4.46 1.29 0 2.41-.3 3.36-.88a9.6 9.6 0 002.67-2.49V31.02zm3.91-15.43V48h-2.33c-.56 0-.9-.27-1.06-.81l-.35-2.71a12.13 12.13 0 01-3.25 2.77 8.28 8.28 0 01-4.23 1.06 7.31 7.31 0 01-6.14-2.9c-.73-.96-1.3-2.15-1.69-3.57a18.35 18.35 0 01.07-9.48 11.29 11.29 0 011.89-3.7 8.7 8.7 0 017.06-3.34 7.96 7.96 0 016.12 2.62V15.59h3.91zM46.61 70.71V93H42.7V70.71h3.91zm.84-7c0 .39-.08.75-.24 1.09a2.81 2.81 0 01-1.52 1.47 2.67 2.67 0 01-2.16 0 2.9 2.9 0 01-1.45-1.47 2.67 2.67 0 010-2.16c.15-.35.35-.65.6-.9.25-.27.53-.47.85-.62a2.67 2.67 0 012.16 0c.35.15.65.35.9.62.27.25.47.55.62.9.16.34.24.7.24 1.08zm7.97 10.24c.49-.54 1-1.04 1.54-1.48a9.85 9.85 0 013.66-1.84 8.96 8.96 0 015.43.35c.94.4 1.72.97 2.33 1.71a7.36 7.36 0 011.43 2.67c.32 1.04.49 2.19.49 3.45V93h-3.94V78.81c0-1.69-.4-3-1.17-3.92-.76-.93-1.93-1.4-3.5-1.4a6.6 6.6 0 00-3.25.83c-1 .56-1.92 1.31-2.77 2.27V93h-3.94V70.71h2.35c.56 0 .9.28 1.04.82l.3 2.42zm57.7 3.3c0 2.36-.37 4.5-1.11 6.44a14.3 14.3 0 01-3.17 4.98 14.1 14.1 0 01-4.93 3.2c-1.9.76-4.02 1.13-6.33 1.13H85.8V61.47h11.77c2.31 0 4.42.39 6.33 1.15a13.8 13.8 0 018.1 8.18 17.75 17.75 0 011.12 6.45zm-4.37 0c0-1.94-.26-3.67-.8-5.2a10.94 10.94 0 00-2.23-3.87 9.57 9.57 0 00-3.53-2.42 12.23 12.23 0 00-4.61-.83h-7.5v24.62h7.5c1.7 0 3.24-.28 4.61-.84a9.7 9.7 0 003.53-2.4 10.94 10.94 0 002.24-3.87c.53-1.53.8-3.26.8-5.2zm19.8 5.72c-1.8.06-3.34.2-4.62.44-1.26.22-2.3.51-3.1.88-.8.36-1.37.8-1.74 1.3-.35.5-.53 1.05-.53 1.67 0 .58.1 1.1.3 1.52a3 3 0 00.76 1.05c.34.27.73.46 1.17.6a6.13 6.13 0 001.45.17 7.28 7.28 0 003.5-.81 11.95 11.95 0 002.82-2.2v-4.62zm-12.65-9.11a12.73 12.73 0 013.98-2.66c1.43-.59 3-.88 4.73-.88 1.25 0 2.36.2 3.33.61a6.81 6.81 0 013.94 4.38c.33 1.04.5 2.19.5 3.43V93h-1.74a1.8 1.8 0 01-.88-.18c-.2-.13-.36-.38-.48-.74l-.44-2.12-1.72 1.46a9.48 9.48 0 01-3.74 1.7c-.69.15-1.46.23-2.3.23-.87 0-1.69-.12-2.45-.35a5.34 5.34 0 01-3.34-2.93 6.64 6.64 0 01-.49-2.64c0-.88.25-1.72.73-2.53a6.33 6.33 0 012.35-2.17c1.09-.63 2.5-1.15 4.25-1.54 1.75-.41 3.89-.65 6.42-.7v-1.75c0-1.73-.37-3.03-1.12-3.91-.75-.9-1.84-1.34-3.28-1.34-.97 0-1.78.12-2.44.37-.64.23-1.2.5-1.7.81l-1.23.82c-.33.23-.67.35-1 .35-.27 0-.5-.07-.69-.2a2.1 2.1 0 01-.48-.53l-.7-1.25zm27.67 19.5c-1.76 0-3.12-.5-4.07-1.48-.94-.98-1.41-2.4-1.41-4.25V74h-2.68a.9.9 0 01-.6-.2c-.16-.14-.24-.36-.24-.66v-1.56l3.65-.46.9-6.89a.9.9 0 01.29-.52.88.88 0 01.62-.22H142v7.67h6.44V74H142v13.38c0 .94.22 1.63.68 2.09.45.45 1.04.68 1.76.68a3.21 3.21 0 001.85-.53l.55-.35c.16-.12.3-.18.41-.18.2 0 .4.13.55.38l1.15 1.87a7.45 7.45 0 01-2.44 1.5 8.53 8.53 0 01-2.95.52zm19.68-10.4c-1.8.07-3.34.21-4.62.45-1.26.22-2.3.51-3.1.88-.8.36-1.37.8-1.74 1.3-.35.5-.53 1.05-.53 1.67 0 .58.1 1.1.3 1.52a2.9 2.9 0 00.76 1.05c.34.27.73.46 1.17.6a6.13 6.13 0 001.45.17 7.3 7.3 0 003.5-.81 12.04 12.04 0 002.82-2.2v-4.62zm-12.65-9.1a12.72 12.72 0 013.99-2.66c1.42-.59 3-.88 4.72-.88 1.25 0 2.36.2 3.33.61a6.81 6.81 0 013.94 4.38c.33 1.04.5 2.19.5 3.43V93h-1.74a1.8 1.8 0 01-.88-.18c-.2-.13-.36-.38-.48-.74l-.44-2.12-1.72 1.46a9.48 9.48 0 01-3.74 1.7c-.69.15-1.46.23-2.3.23-.87 0-1.69-.12-2.45-.35a5.33 5.33 0 01-3.34-2.93 6.62 6.62 0 01-.49-2.64c0-.88.25-1.72.73-2.53a6.33 6.33 0 012.35-2.17c1.09-.63 2.5-1.15 4.25-1.54a31.2 31.2 0 016.42-.7v-1.75c0-1.73-.37-3.03-1.12-3.91-.75-.9-1.84-1.34-3.28-1.34-.97 0-1.78.12-2.44.37-.64.23-1.2.5-1.7.81l-1.22.82c-.34.23-.68.35-1.02.35-.26 0-.49-.07-.68-.2a1.88 1.88 0 01-.48-.53l-.7-1.25z" fill="#fff"/><path fill="#D42B21" d="M0 106.79h210V120H0z"/></g><defs><clipPath id="clip0"><path fill="#fff" d="M0 0h210v120H0z"/></clipPath></defs></svg></g><a href="https://ourworldindata.org/grapher/consumption-vs-production-co2-per-capita" target="_blank" rel="noopener" font-family="&quot;Playfair Display&quot;,Georgia,&quot;Times New Roman&quot;,serif"><text font-size="21.6" x="15" y="32.3" fill="#555"><tspan x="15" y="32.28">Consumption-based vs. production-based CO₂ emissions per capita, 2017</tspan><tspan x="15" y="53.88">to 2018</tspan></text></a><text font-size="14.4" x="15" y="74.7" fill="#666"><tspan x="15" y="74.72">Consumption-based versus production-based carbon dioxide (CO₂) emissions per capita, measured in tonnes per person.</tspan><tspan x="15" y="92">Production-based emissions are national emissions produced within a country&apos;s boundaries. Consumption-based emissions</tspan><tspan x="15" y="109.28">are adjusted for emissions embedded in trade (i.e. territorial emissions minus exports plus imports).</tspan></text></g><g class="ScatterPlot"><g class="DualAxisView"><g class="HorizontalAxis"><text font-size="12.6" x="276.1" y="530.3"><tspan x="276.08" y="530.28">CO₂ emissions per capita</tspan></text><text x="69.8" y="510.2" fill="#666" text-anchor="middle" font-size="16.2">0 t</text><text x="192.1" y="510.2" fill="#666" text-anchor="middle" font-size="16.2">10 t</text><text x="314.3" y="510.2" fill="#666" text-anchor="middle" font-size="16.2">20 t</text><text x="436.6" y="510.2" fill="#666" text-anchor="middle" font-size="16.2">30 t</text><text x="558.8" y="510.2" fill="#666" text-anchor="middle" font-size="16.2">40 t</text><text x="681" y="510.2" fill="#666" text-anchor="middle" font-size="16.2">50 t</text></g><g class="VerticalAxis"><text font-size="12.6" x="-430.3" y="25.1" transform="rotate(-90)"><tspan x="-430.29" y="25.08">Consumption-based CO₂ per capita</tspan></text><text x="64.82" y="489" fill="#666" dominant-baseline="middle" text-anchor="end" font-size="16.2">0 t</text><text x="64.82" y="416.6" fill="#666" dominant-baseline="middle" text-anchor="end" font-size="16.2">10 t</text><text x="64.82" y="344.1" fill="#666" dominant-baseline="middle" text-anchor="end" font-size="16.2">20 t</text><text x="64.82" y="271.7" fill="#666" dominant-baseline="middle" text-anchor="end" font-size="16.2">30 t</text><text x="64.82" y="199.2" fill="#666" dominant-baseline="middle" text-anchor="end" font-size="16.2">40 t</text><text x="64.82" y="126.8" fill="#666" dominant-baseline="middle" text-anchor="end" font-size="16.2">50 t</text></g><g class="AxisGridLines horizontalLines"><path stroke="#ccc" d="M69.82 489h611.23"/><path stroke="#d3d3d3" stroke-dasharray="3,2" d="M69.82 416.6h611.23M69.82 344.1h611.23M69.82 271.7h611.23M69.82 199.2h611.23M69.82 126.8h611.23"/></g><g class="AxisGridLines verticalLines"><path stroke="#ccc" d="M69.8 489V126.8"/><path stroke="#d3d3d3" stroke-dasharray="3,2" d="M192.1 489V126.8M314.3 489V126.8M436.6 489V126.8M558.8 489V126.8M681 489V126.8"/></g></g><g class="comparisonLine"><defs><clipPath id="a"><path d="M69.82 126.8h611.23V489H69.82z"/></clipPath></defs><path d="M69.8 489l1.2-.7 1.3-.7 1.2-.8 1.2-.7 1.2-.7 1.3-.7 1.2-.8 1.2-.7 1.2-.7 1.2-.7 1.3-.8 1.2-.7 1.2-.7 1.2-.7 1.3-.8 1.2-.7 1.2-.7 1.2-.7 1.2-.8 1.3-.7 1.2-.7 1.2-.7 1.2-.8 1.3-.7 1.2-.7 1.2-.7 1.2-.8 1.2-.7 1.3-.7 1.2-.7 1.2-.8 1.2-.7 1.3-.7 1.2-.7 1.2-.8 1.2-.7 1.2-.7 1.3-.7 1.2-.8 1.2-.7 1.2-.7 1.3-.7 1.2-.7 1.2-.8 1.2-.7 1.2-.7 1.3-.7 1.2-.8 1.2-.7 1.2-.7 1.3-.7 1.2-.8 1.2-.7 1.2-.7 1.3-.7 1.2-.8 1.2-.7 1.2-.7 1.2-.7 1.3-.8 1.2-.7 1.2-.7 1.2-.7 1.3-.8 1.2-.7 1.2-.7 1.2-.7 1.2-.8 1.3-.7 1.2-.7 1.2-.7 1.2-.8 1.3-.7 1.2-.7 1.2-.7 1.2-.8 1.2-.7 1.3-.7 1.2-.7 1.2-.8 1.2-.7 1.3-.7 1.2-.7 1.2-.7 1.2-.8 1.2-.7 1.3-.7 1.2-.7 1.2-.8 1.2-.7 1.3-.7 1.2-.7 1.2-.8 1.2-.7 1.3-.7 1.2-.7 1.2-.8 1.2-.7 1.2-.7 1.3-.7 1.2-.8 1.2-.7 1.2-.7 1.3-.7 1.2-.8 1.2-.7 1.2-.7 1.2-.7 1.3-.8 1.2-.7 1.2-.7 1.2-.7 1.3-.8 1.2-.7 1.2-.7 1.2-.7 1.2-.8 1.3-.7 1.2-.7 1.2-.7 1.2-.8 1.3-.7 1.2-.7 1.2-.7 1.2-.8 1.2-.7 1.3-.7 1.2-.7 1.2-.7 1.2-.8 1.3-.7 1.2-.7 1.2-.7 1.2-.8 1.2-.7 1.3-.7 1.2-.7 1.2-.8 1.2-.7 1.3-.7 1.2-.7 1.2-.8 1.2-.7 1.3-.7 1.2-.7 1.2-.8 1.2-.7 1.2-.7 1.3-.7 1.2-.8 1.2-.7 1.2-.7 1.3-.7 1.2-.8 1.2-.7 1.2-.7 1.2-.7 1.3-.8 1.2-.7 1.2-.7 1.2-.7 1.3-.8 1.2-.7 1.2-.7 1.2-.7 1.2-.8 1.3-.7 1.2-.7 1.2-.7 1.2-.7 1.3-.8 1.2-.7 1.2-.7 1.2-.7 1.2-.8 1.3-.7 1.2-.7 1.2-.7 1.2-.8 1.3-.7 1.2-.7 1.2-.7 1.2-.8 1.2-.7 1.3-.7 1.2-.7 1.2-.8 1.2-.7 1.3-.7 1.2-.7 1.2-.8 1.2-.7 1.3-.7 1.2-.7 1.2-.8 1.2-.7 1.2-.7 1.3-.7 1.2-.8 1.2-.7 1.2-.7 1.3-.7 1.2-.8 1.2-.7 1.2-.7 1.2-.7 1.3-.8 1.2-.7 1.2-.7 1.2-.7 1.3-.7 1.2-.8 1.2-.7 1.2-.7 1.2-.7 1.3-.8 1.2-.7 1.2-.7 1.2-.7 1.3-.8 1.2-.7 1.2-.7 1.2-.7 1.2-.8 1.3-.7 1.2-.7 1.2-.7 1.2-.8 1.3-.7 1.2-.7 1.2-.7 1.2-.8 1.3-.7 1.2-.7 1.2-.7 1.2-.8 1.2-.7 1.3-.7 1.2-.7 1.2-.8 1.2-.7 1.3-.7 1.2-.7 1.2-.8 1.2-.7 1.2-.7 1.3-.7 1.2-.8 1.2-.7 1.2-.7 1.3-.7 1.2-.7 1.2-.8 1.2-.7 1.2-.7 1.3-.7 1.2-.8 1.2-.7 1.2-.7 1.3-.7 1.2-.8 1.2-.7 1.2-.7 1.2-.7 1.3-.8 1.2-.7 1.2-.7 1.2-.7 1.3-.8 1.2-.7 1.2-.7 1.2-.7 1.2-.8 1.3-.7 1.2-.7 1.2-.7 1.2-.8 1.3-.7 1.2-.7 1.2-.7 1.2-.8 1.3-.7 1.2-.7 1.2-.7 1.2-.8 1.2-.7 1.3-.7 1.2-.7 1.2-.8 1.2-.7 1.3-.7 1.2-.7 1.2-.7 1.2-.8 1.2-.7 1.3-.7 1.2-.7 1.2-.8 1.2-.7 1.3-.7 1.2-.7 1.2-.8 1.2-.7 1.2-.7 1.3-.7 1.2-.8 1.2-.7 1.2-.7 1.3-.7 1.2-.8 1.2-.7 1.2-.7 1.2-.7 1.3-.8 1.2-.7 1.2-.7 1.2-.7 1.3-.8 1.2-.7 1.2-.7 1.2-.7 1.2-.8 1.3-.7 1.2-.7 1.2-.7 1.2-.8 1.3-.7 1.2-.7 1.2-.7 1.2-.8 1.3-.7 1.2-.7 1.2-.7 1.2-.7 1.2-.8 1.3-.7 1.2-.7 1.2-.7 1.2-.8 1.3-.7 1.2-.7 1.2-.7 1.2-.8 1.2-.7 1.3-.7 1.2-.7 1.2-.8 1.2-.7 1.3-.7 1.2-.7 1.2-.8 1.2-.7 1.2-.7 1.3-.7 1.2-.8 1.2-.7 1.2-.7 1.3-.7 1.2-.8 1.2-.7 1.2-.7 1.2-.7 1.3-.8 1.2-.7 1.2-.7 1.2-.7 1.3-.8 1.2-.7 1.2-.7 1.2-.7 1.3-.8 1.2-.7 1.2-.7 1.2-.7 1.2-.8 1.3-.7 1.2-.7 1.2-.7 1.2-.7 1.3-.8 1.2-.7 1.2-.7 1.2-.7 1.2-.8 1.3-.7 1.2-.7 1.2-.7 1.2-.8 1.3-.7 1.2-.7 1.2-.7 1.2-.8 1.2-.7 1.3-.7 1.2-.7 1.2-.8 1.2-.7 1.3-.7 1.2-.7 1.2-.8 1.2-.7 1.2-.7 1.3-.7 1.2-.8 1.2-.7 1.2-.7 1.3-.7 1.2-.8 1.2-.7 1.2-.7 1.2-.7 1.3-.8 1.2-.7 1.2-.7 1.2-.7 1.3-.8 1.2-.7 1.2-.7 1.2-.7 1.3-.7 1.2-.8 1.2-.7 1.2-.7 1.2-.7 1.3-.8 1.2-.7 1.2-.7 1.2-.7 1.3-.8 1.2-.7 1.2-.7 1.2-.7 1.2-.8 1.3-.7 1.2-.7 1.2-.7 1.2-.8 1.3-.7 1.2-.7 1.2-.7 1.2-.8 1.2-.7 1.3-.7 1.2-.7 1.2-.8 1.2-.7 1.3-.7 1.2-.7 1.2-.8 1.2-.7 1.2-.7 1.3-.7 1.2-.8 1.2-.7 1.2-.7 1.3-.7 1.2-.8 1.2-.7 1.2-.7 1.2-.7 1.3-.7 1.2-.8 1.2-.7 1.2-.7 1.3-.7 1.2-.8 1.2-.7 1.2-.7 1.3-.7 1.2-.8 1.2-.7 1.2-.7 1.2-.7 1.3-.8 1.2-.7 1.2-.7 1.2-.7 1.3-.8 1.2-.7 1.2-.7 1.2-.7 1.2-.8 1.3-.7 1.2-.7 1.2-.7 1.2-.8 1.3-.7 1.2-.7 1.2-.7 1.2-.8 1.2-.7 1.3-.7 1.2-.7 1.2-.8 1.2-.7 1.3-.7 1.2-.7 1.2-.8 1.2-.7" clip-path="url(#a)" opacity=".9" fill="none" stroke="#ccc" stroke-dasharray="2 2"/></g><g class="PointsWithLabels clickable" clip-path="url(#b)" font-family="Arial, sans-serif"><path fill="rgba(255,255,255,0)" d="M69.82 126.8h611.23V489H69.82z"/><defs><clipPath id="b"><path d="M59.82 116.8h631.23V499H59.82z"/></clipPath></defs><g class="key-China"><circle cx="153" cy="444" r="1.7" fill="#E04E4B" stroke="none" opacity=".7"/><path stroke-width="1.42" opacity=".7" stroke="#E04E4B" fill="none" stroke-linecap="butt" d="M153 444l2-1"/><path cx="155" cy="443" r="2.62" fill="#E04E4B" opacity=".7" d="M151.48 441.83h5.86l-3.51 4.69z"/></g><g class="key-India"><circle cx="92" cy="476" r="1.7" fill="#2D8587" stroke="none" opacity=".7"/><path stroke-width="1.39" opacity=".7" stroke="#2D8587" fill="none" stroke-linecap="butt" d="M92 476h1"/><path cx="93" cy="476" r="2.59" fill="#2D8587" opacity=".7" d="M90.41 473.41l5.18 2.59-5.18 2.59z"/></g><g class="key-United-States"><circle cx="267" cy="364" r="1.4" fill="#923E8B" stroke="none" opacity=".7"/><path stroke-width=".85" opacity=".7" stroke="#923E8B" fill="none" stroke-linecap="butt" d="M267 364l5-3"/><path cx="272" cy="361" r="2.05" fill="#923E8B" opacity=".7" d="M269.19 360.3l4.57-.35-2.46 3.86z"/></g><g class="key-Indonesia"><circle cx="94" cy="473" r="1.3" fill="#2D8587" stroke="none" opacity=".7"/><path stroke-width=".79" opacity=".7" stroke="#2D8587" fill="none" stroke-linecap="butt" d="M94 473h2"/><path cx="96" cy="473" r="1.99" fill="#2D8587" opacity=".7" d="M94.01 471.01l3.98 1.99-3.98 1.99z"/></g><g class="key-Brazil"><circle cx="98" cy="471" r="1.3" fill="#E04E4B" stroke="none" opacity=".7"/><path stroke-width=".74" opacity=".7" stroke="#E04E4B" fill="none" stroke-linecap="butt" d="M98 471l-1 1"/><path cx="97" cy="472" r="1.94" fill="#E04E4B" opacity=".7" d="M99.74 472l-4.11 1.37 1.37-4.11z"/></g><g class="key-Pakistan"><circle cx="83" cy="480" r="1.3" fill="#2D8587" stroke="none" opacity=".7"/><path stroke-width=".73" opacity=".7" stroke="#2D8587" fill="none" stroke-linecap="butt" d="M83 480h1"/><path cx="84" cy="480" r="1.93" fill="#2D8587" opacity=".7" d="M82.07 478.07l3.86 1.93-3.86 1.93z"/></g><g class="key-Nigeria"><circle cx="78" cy="484" r="1.3" fill="#2D8587" stroke="none" opacity=".7"/><path stroke-width=".72" opacity=".7" stroke="#2D8587" fill="none" stroke-linecap="butt" d="M78 484h0"/><path cx="78" cy="484" r="1.92" fill="#2D8587" opacity=".7" d="M76.08 482.08l3.84 1.92-3.84 1.92z"/></g><g class="key-Bangladesh"><circle cx="76" cy="484" r="1.3" fill="#2D8587" stroke="none" opacity=".7"/><path stroke-width=".7" opacity=".7" stroke="#2D8587" fill="none" stroke-linecap="butt" d="M76 484h0"/><path cx="76" cy="484" r="1.9" fill="#2D8587" opacity=".7" d="M74.1 482.1l3.8 1.9-3.8 1.9z"/></g><g class="key-Russia"><circle cx="208" cy="417" r="1.2" fill="#E04E4B" stroke="none" opacity=".7"/><path stroke-width=".68" opacity=".7" stroke="#E04E4B" fill="none" stroke-linecap="butt" d="M208 417l3 1"/><path cx="211" cy="418" r="1.88" fill="#E04E4B" opacity=".7" d="M209.81 415.62l2.97 2.97-4.16.6z"/></g><g class="key-Japan"><circle cx="183" cy="412" r="1.2" fill="#923E8B" stroke="none" opacity=".7"/><path stroke-width=".66" opacity=".7" stroke="#923E8B" fill="none" stroke-linecap="butt" d="M183 412l-4 2"/><path cx="179" cy="414" r="1.86" fill="#923E8B" opacity=".7" d="M181.5 414.83h-4.16l2.5-3.33z"/></g><g class="key-Mexico"><circle cx="115" cy="461" r="1.2" fill="#E04E4B" stroke="none" opacity=".7"/><path stroke-width=".65" opacity=".7" stroke="#E04E4B" fill="none" stroke-linecap="butt" d="M115 461h-2"/><path cx="113" cy="461" r="1.85" fill="#E04E4B" opacity=".7" d="M114.85 462.85l-3.7-1.85 3.7-1.85z"/></g><g class="key-Philippines"><circle cx="85" cy="478" r="1.2" fill="#2D8587" stroke="none" opacity=".7"/><path stroke-width=".62" opacity=".7" stroke="#2D8587" fill="none" stroke-linecap="butt" d="M85 478h0"/><path cx="85" cy="478" r="1.82" fill="#2D8587" opacity=".7" d="M83.18 476.18l3.64 1.82-3.64 1.82z"/></g><g class="key-Ethiopia"><circle cx="71" cy="487" r="1.2" fill="#5887A1" stroke="none" opacity=".7"/><path stroke-width=".62" opacity=".7" stroke="#5887A1" fill="none" stroke-linecap="butt" d="M71 487h0"/><path cx="71" cy="487" r="1.82" fill="#5887A1" opacity=".7" d="M69.18 485.18l3.64 1.82-3.64 1.82z"/></g><g class="key-Egypt"><circle cx="101" cy="470" r="1.2" fill="#2D8587" stroke="none" opacity=".7"/><path stroke-width=".61" opacity=".7" stroke="#2D8587" fill="none" stroke-linecap="butt" d="M101 470h0"/><path cx="101" cy="470" r="1.81" fill="#2D8587" opacity=".7" d="M99.19 468.19l3.62 1.81-3.62 1.81z"/></g><g class="key-Vietnam"><circle cx="93" cy="474" r="1.2" fill="#2D8587" stroke="none" opacity=".7"/><path stroke-width=".61" opacity=".7" stroke="#2D8587" fill="none" stroke-linecap="butt" d="M93 474l3-1"/><path cx="96" cy="473" r="1.81" fill="#2D8587" opacity=".7" d="M93.71 471.86l4 .57-2.85 2.86z"/></g><g class="key-Germany"><circle cx="186" cy="412" r="1.2" fill="#923E8B" stroke="none" opacity=".7"/><path stroke-width=".59" opacity=".7" stroke="#923E8B" fill="none" stroke-linecap="butt" d="M186 412l-6 1"/><path cx="180" cy="413" r="1.79" fill="#923E8B" opacity=".7" d="M182.06 414.47l-3.83-1.18 3.24-2.35z"/></g><g class="key-Iran"><circle cx="179" cy="430" r="1.2" fill="#E04E4B" stroke="none" opacity=".7"/><path stroke-width=".59" opacity=".7" stroke="#E04E4B" fill="none" stroke-linecap="butt" d="M179 430l3-3"/><path cx="182" cy="427" r="1.79" fill="#E04E4B" opacity=".7" d="M179.47 427l3.8-1.27-1.27 3.8z"/></g><g class="key-Turkey"><circle cx="133" cy="448" r="1.2" fill="#E04E4B" stroke="none" opacity=".7"/><path stroke-width=".59" opacity=".7" stroke="#E04E4B" fill="none" stroke-linecap="butt" d="M133 448l-1 2"/><path cx="132" cy="450" r="1.79" fill="#E04E4B" opacity=".7" d="M134.4 449.2l-3.2 2.4v-4z"/></g><g class="key-Thailand"><circle cx="120" cy="460" r="1.2" fill="#E04E4B" stroke="none" opacity=".7"/><path stroke-width=".57" opacity=".7" stroke="#E04E4B" fill="none" stroke-linecap="butt" d="M120 460l1-1"/><path cx="121" cy="459" r="1.77" fill="#E04E4B" opacity=".7" d="M118.5 459l3.75-1.25-1.25 3.75z"/></g><g class="key-France"><circle cx="135" cy="439" r="1.2" fill="#923E8B" stroke="none" opacity=".7"/><path stroke-width=".57" opacity=".7" stroke="#923E8B" fill="none" stroke-linecap="butt" d="M135 439h-3"/><path cx="132" cy="439" r="1.77" fill="#923E8B" opacity=".7" d="M133.77 440.77l-3.54-1.77 3.54-1.77z"/></g><g class="key-United-Kingdom"><circle cx="140" cy="430" r="1.2" fill="#923E8B" stroke="none" opacity=".7"/><path stroke-width=".57" opacity=".7" stroke="#923E8B" fill="none" stroke-linecap="butt" d="M140 430h-1"/><path cx="139" cy="430" r="1.77" fill="#923E8B" opacity=".7" d="M140.77 431.77l-3.54-1.77 3.54-1.77z"/></g><g class="key-Italy"><circle cx="140" cy="434" r="1.2" fill="#923E8B" stroke="none" opacity=".7"/><path stroke-width=".56" opacity=".7" stroke="#923E8B" fill="none" stroke-linecap="butt" d="M140 434v-1"/><path cx="140" cy="433" r="1.76" fill="#923E8B" opacity=".7" d="M138.24 434.76l1.76-3.52 1.76 3.52z"/></g><g class="key-South-Africa"><circle cx="169" cy="446" r="1.2" fill="#E04E4B" stroke="none" opacity=".7"/><path stroke-width=".55" opacity=".7" stroke="#E04E4B" fill="none" stroke-linecap="butt" d="M169 446v1"/><path cx="169" cy="447" r="1.75" fill="#E04E4B" opacity=".7" d="M170.75 445.25l-1.75 3.5-1.75-3.5z"/></g><g class="key-Tanzania"><circle cx="72" cy="486" r="1.2" fill="#5887A1" stroke="none" opacity=".7"/><path stroke-width=".55" opacity=".7" stroke="#5887A1" fill="none" stroke-linecap="butt" d="M72 486h0"/><path cx="72" cy="486" r="1.75" fill="#5887A1" opacity=".7" d="M70.25 484.25l3.5 1.75-3.5 1.75z"/></g><g class="key-South-Korea"><circle cx="218" cy="393" r="1.2" fill="#923E8B" stroke="none" opacity=".7"/><path stroke-width=".54" opacity=".7" stroke="#923E8B" fill="none" stroke-linecap="butt" d="M218 393l3-2"/><path cx="221" cy="391" r="1.74" fill="#923E8B" opacity=".7" d="M218.59 390.52l3.86-.49-1.93 3.38z"/></g><g class="key-Colombia"><circle cx="92" cy="473" r="1.2" fill="#E04E4B" stroke="none" opacity=".7"/><path stroke-width=".54" opacity=".7" stroke="#E04E4B" fill="none" stroke-linecap="butt" d="M92 473v1"/><path cx="92" cy="474" r="1.74" fill="#E04E4B" opacity=".7" d="M93.74 472.26L92 475.74l-1.74-3.48z"/></g><g class="key-Kenya"><circle cx="73" cy="485" r="1.1" fill="#2D8587" stroke="none" opacity=".7"/><path stroke-width=".53" opacity=".7" stroke="#2D8587" fill="none" stroke-linecap="butt" d="M73 485h0"/><path cx="73" cy="485" r="1.73" fill="#2D8587" opacity=".7" d="M71.27 483.27l3.46 1.73-3.46 1.73z"/></g><g class="key-Spain"><circle cx="141" cy="444" r="1.1" fill="#923E8B" stroke="none" opacity=".7"/><path stroke-width=".53" opacity=".7" stroke="#923E8B" fill="none" stroke-linecap="butt" d="M141 444h-1"/><path cx="140" cy="444" r="1.73" fill="#923E8B" opacity=".7" d="M141.73 445.73l-3.46-1.73 3.46-1.73z"/></g><g class="key-Ukraine"><circle cx="131" cy="455" r="1.1" fill="#2D8587" stroke="none" opacity=".7"/><path stroke-width=".53" opacity=".7" stroke="#2D8587" fill="none" stroke-linecap="butt" d="M131 455l2-2"/><path cx="133" cy="453" r="1.73" fill="#2D8587" opacity=".7" d="M130.55 453l3.67-1.22-1.22 3.67z"/></g><g class="key-Argentina"><circle cx="122" cy="456" r="1.1" fill="#E04E4B" stroke="none" opacity=".7"/><path stroke-width=".53" opacity=".7" stroke="#E04E4B" fill="none" stroke-linecap="butt" d="M122 456l-2 2"/><path cx="120" cy="458" r="1.73" fill="#E04E4B" opacity=".7" d="M122.45 458l-3.67 1.22 1.22-3.67z"/></g><g class="key-Uganda"><circle cx="71" cy="487" r="1.1" fill="#5887A1" stroke="none" opacity=".7"/><path stroke-width=".52" opacity=".7" stroke="#5887A1" fill="none" stroke-linecap="butt" d="M71 487h0"/><path cx="71" cy="487" r="1.72" fill="#5887A1" opacity=".7" d="M69.28 485.28l3.44 1.72-3.44 1.72z"/></g><g class="key-Poland"><circle cx="178" cy="432" r="1.1" fill="#923E8B" stroke="none" opacity=".7"/><path stroke-width=".51" opacity=".7" stroke="#923E8B" fill="none" stroke-linecap="butt" d="M178 432v-1"/><path cx="178" cy="431" r="1.71" fill="#923E8B" opacity=".7" d="M176.29 432.71l1.71-3.42 1.71 3.42z"/></g><g class="key-Canada"><circle cx="260" cy="375" r="1.1" fill="#923E8B" stroke="none" opacity=".7"/><path stroke-width=".51" opacity=".7" stroke="#923E8B" fill="none" stroke-linecap="butt" d="M260 375l3-1"/><path cx="263" cy="374" r="1.71" fill="#923E8B" opacity=".7" d="M260.84 372.92l3.78.54-2.7 2.7z"/></g><g class="key-Morocco"><circle cx="91" cy="475" r="1.1" fill="#2D8587" stroke="none" opacity=".7"/><path stroke-width=".51" opacity=".7" stroke="#2D8587" fill="none" stroke-linecap="butt" d="M91 475h1"/><path cx="92" cy="475" r="1.71" fill="#2D8587" opacity=".7" d="M90.29 473.29l3.42 1.71-3.42 1.71z"/></g><g class="key-Saudi-Arabia"><circle cx="283" cy="355" r="1.1" fill="#923E8B" stroke="none" opacity=".7"/><path stroke-width=".5" opacity=".7" stroke="#923E8B" fill="none" stroke-linecap="butt" d="M283 355l-4 4"/><path cx="279" cy="359" r="1.7" fill="#923E8B" opacity=".7" d="M281.4 359l-3.6 1.2 1.2-3.6z"/></g><g class="key-Peru"><circle cx="90" cy="475" r="1.1" fill="#E04E4B" stroke="none" opacity=".7"/><path stroke-width=".5" opacity=".7" stroke="#E04E4B" fill="none" stroke-linecap="butt" d="M90 475v-1"/><path cx="90" cy="474" r="1.7" fill="#E04E4B" opacity=".7" d="M88.3 475.7l1.7-3.4 1.7 3.4z"/></g><g class="key-Venezuela"><circle cx="130" cy="449" r="1.1" fill="#E04E4B" stroke="none" opacity=".7"/><path stroke-width=".5" opacity=".7" stroke="#E04E4B" fill="none" stroke-linecap="butt" d="M130 449l-6 2"/><path cx="124" cy="451" r="1.7" fill="#E04E4B" opacity=".7" d="M126.15 452.08l-3.76-.54 2.69-2.69z"/></g><g class="key-Malaysia"><circle cx="167" cy="432" r="1.1" fill="#E04E4B" stroke="none" opacity=".7"/><path stroke-width=".5" opacity=".7" stroke="#E04E4B" fill="none" stroke-linecap="butt" d="M167 432h-1"/><path cx="166" cy="432" r="1.7" fill="#E04E4B" opacity=".7" d="M167.7 433.7l-3.4-1.7 3.4-1.7z"/></g><g class="key-Nepal"><circle cx="74" cy="484" r="1.1" fill="#5887A1" stroke="none" opacity=".7"/><path stroke-width=".49" opacity=".7" stroke="#5887A1" fill="none" stroke-linecap="butt" d="M74 484h1"/><path cx="75" cy="484" r="1.69" fill="#5887A1" opacity=".7" d="M73.31 482.31l3.38 1.69-3.38 1.69z"/></g><g class="key-Mozambique"><circle cx="73" cy="484" r="1.1" fill="#5887A1" stroke="none" opacity=".7"/><path stroke-width=".49" opacity=".7" stroke="#5887A1" fill="none" stroke-linecap="butt" d="M73 484h0"/><path cx="73" cy="484" r="1.69" fill="#5887A1" opacity=".7" d="M71.31 482.31l3.38 1.69-3.38 1.69z"/></g><g class="key-Ghana"><circle cx="75" cy="484" r="1.1" fill="#2D8587" stroke="none" opacity=".7"/><path stroke-width=".49" opacity=".7" stroke="#2D8587" fill="none" stroke-linecap="butt" d="M75 484h0"/><path cx="75" cy="484" r="1.69" fill="#2D8587" opacity=".7" d="M73.31 482.31l3.38 1.69-3.38 1.69z"/></g><g class="key-Madagascar"><circle cx="71" cy="487" r="1.1" fill="#5887A1" stroke="none" opacity=".7"/><path stroke-width=".48" opacity=".7" stroke="#5887A1" fill="none" stroke-linecap="butt" d="M71 487h0"/><path cx="71" cy="487" r="1.68" fill="#5887A1" opacity=".7" d="M69.32 485.32l3.36 1.68-3.36 1.68z"/></g><g class="key-Australia"><circle cx="276" cy="374" r="1.1" fill="#923E8B" stroke="none" opacity=".7"/><path stroke-width=".48" opacity=".7" stroke="#923E8B" fill="none" stroke-linecap="butt" d="M276 374l-2 4"/><path cx="274" cy="378" r="1.68" fill="#923E8B" opacity=".7" d="M276.25 377.25l-3 2.25v-3.75z"/></g><g class="key-Taiwan"><circle cx="210" cy="407" r="1.1" fill="#923E8B" stroke="none" opacity=".7"/><path stroke-width=".48" opacity=".7" stroke="#923E8B" fill="none" stroke-linecap="butt" d="M210 407v-2"/><path cx="210" cy="405" r="1.68" fill="#923E8B" opacity=".7" d="M208.32 406.68l1.68-3.36 1.68 3.36z"/></g><g class="key-Cameroon"><circle cx="73" cy="485" r="1.1" fill="#2D8587" stroke="none" opacity=".7"/><path stroke-width=".48" opacity=".7" stroke="#2D8587" fill="none" stroke-linecap="butt" d="M73 485h0"/><path cx="73" cy="485" r="1.68" fill="#2D8587" opacity=".7" d="M71.32 483.32l3.36 1.68-3.36 1.68z"/></g><g class="key-Sri-Lanka"><circle cx="83" cy="477" r="1.1" fill="#2D8587" stroke="none" opacity=".7"/><path stroke-width=".48" opacity=".7" stroke="#2D8587" fill="none" stroke-linecap="butt" d="M83 477h0"/><path cx="83" cy="477" r="1.68" fill="#2D8587" opacity=".7" d="M81.32 475.32l3.36 1.68-3.36 1.68z"/></g><g class="key-Romania"><circle cx="118" cy="460" r="1.1" fill="#E04E4B" stroke="none" opacity=".7"/><path stroke-width=".47" opacity=".7" stroke="#E04E4B" fill="none" stroke-linecap="butt" d="M118 460v-1"/><path cx="118" cy="459" r="1.67" fill="#E04E4B" opacity=".7" d="M116.33 460.67l1.67-3.34 1.67 3.34z"/></g><g class="key-Burkina-Faso"><circle cx="72" cy="487" r="1.1" fill="#5887A1" stroke="none" opacity=".7"/><path stroke-width=".47" opacity=".7" stroke="#5887A1" fill="none" stroke-linecap="butt" d="M72 487h0"/><path cx="72" cy="487" r="1.67" fill="#5887A1" opacity=".7" d="M70.33 485.33l3.34 1.67-3.34 1.67z"/></g><g class="key-Chile"><circle cx="125" cy="453" r="1.1" fill="#923E8B" stroke="none" opacity=".7"/><path stroke-width=".47" opacity=".7" stroke="#923E8B" fill="none" stroke-linecap="butt" d="M125 453v-1"/><path cx="125" cy="452" r="1.67" fill="#923E8B" opacity=".7" d="M123.33 453.67l1.67-3.34 1.67 3.34z"/></g><g class="key-Kazakhstan"><circle cx="278" cy="392" r="1.1" fill="#E04E4B" stroke="none" opacity=".7"/><path stroke-width=".47" opacity=".7" stroke="#E04E4B" fill="none" stroke-linecap="butt" d="M278 392l5 3"/><path cx="283" cy="395" r="1.67" fill="#E04E4B" opacity=".7" d="M282.43 392.7l2 3.16-3.72-.29z"/></g><g class="key-Malawi"><circle cx="70" cy="487" r="1.1" fill="#5887A1" stroke="none" opacity=".7"/><path stroke-width=".47" opacity=".7" stroke="#5887A1" fill="none" stroke-linecap="butt" d="M70 487h0"/><path cx="70" cy="487" r="1.67" fill="#5887A1" opacity=".7" d="M68.33 485.33l3.34 1.67-3.34 1.67z"/></g><g class="key-Netherlands"><circle cx="187" cy="424" r="1.1" fill="#923E8B" stroke="none" opacity=".7"/><path stroke-width=".47" opacity=".7" stroke="#923E8B" fill="none" stroke-linecap="butt" d="M187 424h-3"/><path cx="184" cy="424" r="1.67" fill="#923E8B" opacity=".7" d="M185.67 425.67l-3.34-1.67 3.34-1.67z"/></g><g class="key-Guatemala"><circle cx="82" cy="479" r="1.1" fill="#2D8587" stroke="none" opacity=".7"/><path stroke-width=".46" opacity=".7" stroke="#2D8587" fill="none" stroke-linecap="butt" d="M82 479l1-1"/><path cx="83" cy="478" r="1.66" fill="#2D8587" opacity=".7" d="M80.65 478l3.52-1.17-1.17 3.52z"/></g><g class="key-Ecuador"><circle cx="98" cy="468" r="1.1" fill="#E04E4B" stroke="none" opacity=".7"/><path stroke-width=".46" opacity=".7" stroke="#E04E4B" fill="none" stroke-linecap="butt" d="M98 468h1"/><path cx="99" cy="468" r="1.66" fill="#E04E4B" opacity=".7" d="M97.34 466.34l3.32 1.66-3.32 1.66z"/></g><g class="key-Zambia"><circle cx="74" cy="484" r="1.1" fill="#2D8587" stroke="none" opacity=".7"/><path stroke-width=".46" opacity=".7" stroke="#2D8587" fill="none" stroke-linecap="butt" d="M74 484h0"/><path cx="74" cy="484" r="1.66" fill="#2D8587" opacity=".7" d="M72.34 482.34l3.32 1.66-3.32 1.66z"/></g><g class="key-Zimbabwe"><circle cx="78" cy="483" r="1.1" fill="#5887A1" stroke="none" opacity=".7"/><path stroke-width=".46" opacity=".7" stroke="#5887A1" fill="none" stroke-linecap="butt" d="M78 483l1-1"/><path cx="79" cy="482" r="1.66" fill="#5887A1" opacity=".7" d="M76.65 482l3.52-1.17-1.17 3.52z"/></g><g class="key-Cambodia"><circle cx="78" cy="481" r="1.1" fill="#2D8587" stroke="none" opacity=".7"/><path stroke-width=".46" opacity=".7" stroke="#2D8587" fill="none" stroke-linecap="butt" d="M78 481l3-1"/><path cx="81" cy="480" r="1.66" fill="#2D8587" opacity=".7" d="M78.9 478.95l3.67.53-2.62 2.62z"/></g><g class="key-Senegal"><circle cx="77" cy="484" r="1.1" fill="#5887A1" stroke="none" opacity=".7"/><path stroke-width=".46" opacity=".7" stroke="#5887A1" fill="none" stroke-linecap="butt" d="M77 484h0"/><path cx="77" cy="484" r="1.66" fill="#5887A1" opacity=".7" d="M75.34 482.34l3.32 1.66-3.32 1.66z"/></g><g class="key-Guinea"><circle cx="72" cy="487" r="1.1" fill="#5887A1" stroke="none" opacity=".7"/><path stroke-width=".45" opacity=".7" stroke="#5887A1" fill="none" stroke-linecap="butt" d="M72 487h0"/><path cx="72" cy="487" r="1.65" fill="#5887A1" opacity=".7" d="M70.35 485.35l3.3 1.65-3.3 1.65z"/></g><g class="key-Rwanda"><circle cx="70" cy="488" r="1.1" fill="#5887A1" stroke="none" opacity=".7"/><path stroke-width=".45" opacity=".7" stroke="#5887A1" fill="none" stroke-linecap="butt" d="M70 488h0"/><path cx="70" cy="488" r="1.65" fill="#5887A1" opacity=".7" d="M68.35 486.35l3.3 1.65-3.3 1.65z"/></g><g class="key-Belgium"><circle cx="176" cy="379" r="1.1" fill="#923E8B" stroke="none" opacity=".7"/><path stroke-width=".45" opacity=".7" stroke="#923E8B" fill="none" stroke-linecap="butt" d="M176 379v-2"/><path cx="176" cy="377" r="1.65" fill="#923E8B" opacity=".7" d="M174.35 378.65l1.65-3.3 1.65 3.3z"/></g><g class="key-Tunisia"><circle cx="101" cy="471" r="1.1" fill="#2D8587" stroke="none" opacity=".7"/><path stroke-width=".45" opacity=".7" stroke="#2D8587" fill="none" stroke-linecap="butt" d="M101 471h0"/><path cx="101" cy="471" r="1.65" fill="#2D8587" opacity=".7" d="M99.35 469.35l3.3 1.65-3.3 1.65z"/></g><g class="key-Greece"><circle cx="156" cy="445" r="1.1" fill="#923E8B" stroke="none" opacity=".7"/><path stroke-width=".45" opacity=".7" stroke="#923E8B" fill="none" stroke-linecap="butt" d="M156 445l-3 2"/><path cx="153" cy="447" r="1.65" fill="#923E8B" opacity=".7" d="M155.29 447.46l-3.66.46 1.83-3.2z"/></g><g class="key-Bolivia"><circle cx="93" cy="475" r="1.1" fill="#2D8587" stroke="none" opacity=".7"/><path stroke-width=".45" opacity=".7" stroke="#2D8587" fill="none" stroke-linecap="butt" d="M93 475h0"/><path cx="93" cy="475" r="1.65" fill="#2D8587" opacity=".7" d="M91.35 473.35l3.3 1.65-3.3 1.65z"/></g><g class="key-Benin"><circle cx="77" cy="483" r="1.1" fill="#5887A1" stroke="none" opacity=".7"/><path stroke-width=".45" opacity=".7" stroke="#5887A1" fill="none" stroke-linecap="butt" d="M77 483h1"/><path cx="78" cy="483" r="1.65" fill="#5887A1" opacity=".7" d="M76.35 481.35l3.3 1.65-3.3 1.65z"/></g><g class="key-Dominican-Republic"><circle cx="98" cy="471" r="1.1" fill="#E04E4B" stroke="none" opacity=".7"/><path stroke-width=".45" opacity=".7" stroke="#E04E4B" fill="none" stroke-linecap="butt" d="M98 471v-1"/><path cx="98" cy="470" r="1.65" fill="#E04E4B" opacity=".7" d="M96.35 471.65l1.65-3.3 1.65 3.3z"/></g><g class="key-Portugal"><circle cx="134" cy="448" r="1.1" fill="#923E8B" stroke="none" opacity=".7"/><path stroke-width=".45" opacity=".7" stroke="#923E8B" fill="none" stroke-linecap="butt" d="M134 448l-3 1"/><path cx="131" cy="449" r="1.65" fill="#923E8B" opacity=".7" d="M133.09 450.04l-3.66-.52 2.61-2.6z"/></g><g class="key-Hungary"><circle cx="132" cy="440" r="1.1" fill="#923E8B" stroke="none" opacity=".7"/><path stroke-width=".44" opacity=".7" stroke="#923E8B" fill="none" stroke-linecap="butt" d="M132 440v-1"/><path cx="132" cy="439" r="1.64" fill="#923E8B" opacity=".7" d="M130.36 440.64l1.64-3.28 1.64 3.28z"/></g><g class="key-Sweden"><circle cx="122" cy="437" r="1.1" fill="#923E8B" stroke="none" opacity=".7"/><path stroke-width=".44" opacity=".7" stroke="#923E8B" fill="none" stroke-linecap="butt" d="M122 437h-1"/><path cx="121" cy="437" r="1.64" fill="#923E8B" opacity=".7" d="M122.64 438.64l-3.28-1.64 3.28-1.64z"/></g><g class="key-Azerbaijan"><circle cx="115" cy="460" r="1.1" fill="#E04E4B" stroke="none" opacity=".7"/><path stroke-width=".44" opacity=".7" stroke="#E04E4B" fill="none" stroke-linecap="butt" d="M115 460h0"/><path cx="115" cy="460" r="1.64" fill="#E04E4B" opacity=".7" d="M113.36 458.36l3.28 1.64-3.28 1.64z"/></g><g class="key-Belarus"><circle cx="148" cy="441" r="1.1" fill="#E04E4B" stroke="none" opacity=".7"/><path stroke-width=".44" opacity=".7" stroke="#E04E4B" fill="none" stroke-linecap="butt" d="M148 441l1-2"/><path cx="149" cy="439" r="1.64" fill="#E04E4B" opacity=".7" d="M146.8 439.73l2.93-2.2v3.67z"/></g><g class="key-Jordan"><circle cx="101" cy="463" r="1.1" fill="#2D8587" stroke="none" opacity=".7"/><path stroke-width=".44" opacity=".7" stroke="#2D8587" fill="none" stroke-linecap="butt" d="M101 463l-1 1"/><path cx="100" cy="464" r="1.64" fill="#2D8587" opacity=".7" d="M102.32 464l-3.48 1.16 1.16-3.48z"/></g><g class="key-United-Arab-Emirates"><circle cx="310" cy="326" r="1.1" fill="#923E8B" stroke="none" opacity=".7"/><path stroke-width=".44" opacity=".7" stroke="#923E8B" fill="none" stroke-linecap="butt" d="M310 326l-1-6"/><path cx="309" cy="320" r="1.64" fill="#923E8B" opacity=".7" d="M307.65 321.89l1.08-3.5 2.16 2.96z"/></g><g class="key-Honduras"><circle cx="82" cy="479" r="1.1" fill="#2D8587" stroke="none" opacity=".7"/><path stroke-width=".44" opacity=".7" stroke="#2D8587" fill="none" stroke-linecap="butt" d="M82 479h1"/><path cx="83" cy="479" r="1.64" fill="#2D8587" opacity=".7" d="M81.36 477.36l3.28 1.64-3.28 1.64z"/></g><g class="key-Austria"><circle cx="166" cy="411" r="1.1" fill="#923E8B" stroke="none" opacity=".7"/><path stroke-width=".44" opacity=".7" stroke="#923E8B" fill="none" stroke-linecap="butt" d="M166 411l-5 2"/><path cx="161" cy="413" r="1.64" fill="#923E8B" opacity=".7" d="M163.13 413.91l-3.65-.3 2.43-2.74z"/></g><g class="key-Israel"><circle cx="162" cy="419" r="1.1" fill="#923E8B" stroke="none" opacity=".7"/><path stroke-width=".44" opacity=".7" stroke="#923E8B" fill="none" stroke-linecap="butt" d="M162 419h-2"/><path cx="160" cy="419" r="1.64" fill="#923E8B" opacity=".7" d="M161.64 420.64l-3.28-1.64 3.28-1.64z"/></g><g class="key-Switzerland"><circle cx="125" cy="386" r="1.1" fill="#923E8B" stroke="none" opacity=".7"/><path stroke-width=".44" opacity=".7" stroke="#923E8B" fill="none" stroke-linecap="butt" d="M125 386l-3 1"/><path cx="122" cy="387" r="1.64" fill="#923E8B" opacity=".7" d="M124.07 388.04l-3.63-.52 2.6-2.6z"/></g><g class="key-Togo"><circle cx="74" cy="481" r="1.1" fill="#5887A1" stroke="none" opacity=".7"/><path stroke-width=".44" opacity=".7" stroke="#5887A1" fill="none" stroke-linecap="butt" d="M74 481h0"/><path cx="74" cy="481" r="1.64" fill="#5887A1" opacity=".7" d="M72.36 479.36l3.28 1.64-3.28 1.64z"/></g><g class="key-Hong-Kong"><circle cx="141" cy="383" r="1.1" fill="#923E8B" stroke="none" opacity=".7"/><path stroke-width=".44" opacity=".7" stroke="#923E8B" fill="none" stroke-linecap="butt" d="M141 383l-1-1"/><path cx="140" cy="382" r="1.64" fill="#923E8B" opacity=".7" d="M140 384.32l-1.16-3.48 3.48 1.16z"/></g><g class="key-Bulgaria"><circle cx="151" cy="448" r="1.1" fill="#E04E4B" stroke="none" opacity=".7"/><path stroke-width=".44" opacity=".7" stroke="#E04E4B" fill="none" stroke-linecap="butt" d="M151 448h-6"/><path cx="145" cy="448" r="1.64" fill="#E04E4B" opacity=".7" d="M146.64 449.64l-3.28-1.64 3.28-1.64z"/></g><g class="key-Laos"><circle cx="101" cy="470" r="1.1" fill="#2D8587" stroke="none" opacity=".7"/><path stroke-width=".43" opacity=".7" stroke="#2D8587" fill="none" stroke-linecap="butt" d="M101 470l24-11"/><path cx="125" cy="459" r="1.63" fill="#2D8587" opacity=".7" d="M122.84 458.2l3.64.12-2.28 2.84z"/></g><g class="key-Paraguay"><circle cx="84" cy="477" r="1.1" fill="#E04E4B" stroke="none" opacity=".7"/><path stroke-width=".43" opacity=".7" stroke="#E04E4B" fill="none" stroke-linecap="butt" d="M84 477h0"/><path cx="84" cy="477" r="1.63" fill="#E04E4B" opacity=".7" d="M82.37 475.37l3.26 1.63-3.26 1.63z"/></g><g class="key-El-Salvador"><circle cx="81" cy="479" r="1.1" fill="#2D8587" stroke="none" opacity=".7"/><path stroke-width=".43" opacity=".7" stroke="#2D8587" fill="none" stroke-linecap="butt" d="M81 479h0"/><path cx="81" cy="479" r="1.63" fill="#2D8587" opacity=".7" d="M79.37 477.37l3.26 1.63-3.26 1.63z"/></g><g class="key-Nicaragua"><circle cx="80" cy="481" r="1.1" fill="#2D8587" stroke="none" opacity=".7"/><path stroke-width=".43" opacity=".7" stroke="#2D8587" fill="none" stroke-linecap="butt" d="M80 481h0"/><path cx="80" cy="481" r="1.63" fill="#2D8587" opacity=".7" d="M78.37 479.37l3.26 1.63-3.26 1.63z"/></g><g class="key-Kyrgyzstan"><circle cx="88" cy="471" r="1.1" fill="#2D8587" stroke="none" opacity=".7"/><path stroke-width=".43" opacity=".7" stroke="#2D8587" fill="none" stroke-linecap="butt" d="M88 471l1-2"/><path cx="89" cy="469" r="1.63" fill="#2D8587" opacity=".7" d="M86.81 469.73l2.92-2.19v3.65z"/></g><g class="key-Denmark"><circle cx="143" cy="425" r="1.1" fill="#923E8B" stroke="none" opacity=".7"/><path stroke-width=".43" opacity=".7" stroke="#923E8B" fill="none" stroke-linecap="butt" d="M143 425v-1"/><path cx="143" cy="424" r="1.63" fill="#923E8B" opacity=".7" d="M141.37 425.63l1.63-3.26 1.63 3.26z"/></g><g class="key-Singapore"><circle cx="153" cy="351" r="1.1" fill="#923E8B" stroke="none" opacity=".7"/><path stroke-width=".43" opacity=".7" stroke="#923E8B" fill="none" stroke-linecap="butt" d="M153 351l-2-1"/><path cx="151" cy="350" r="1.63" fill="#923E8B" opacity=".7" d="M151.73 352.19l-2.19-2.92h3.65z"/></g><g class="key-Finland"><circle cx="168" cy="405" r="1.1" fill="#923E8B" stroke="none" opacity=".7"/><path stroke-width=".43" opacity=".7" stroke="#923E8B" fill="none" stroke-linecap="butt" d="M168 405l3-5"/><path cx="171" cy="400" r="1.63" fill="#923E8B" opacity=".7" d="M168.76 400.56l3.08-1.96-.28 3.64z"/></g><g class="key-Slovakia"><circle cx="150" cy="426" r="1.1" fill="#923E8B" stroke="none" opacity=".7"/><path stroke-width=".43" opacity=".7" stroke="#923E8B" fill="none" stroke-linecap="butt" d="M150 426v-1"/><path cx="150" cy="425" r="1.63" fill="#923E8B" opacity=".7" d="M148.37 426.63l1.63-3.26 1.63 3.26z"/></g><g class="key-Norway"><circle cx="170" cy="422" r="1.1" fill="#923E8B" stroke="none" opacity=".7"/><path stroke-width=".43" opacity=".7" stroke="#923E8B" fill="none" stroke-linecap="butt" d="M170 422v1"/><path cx="170" cy="423" r="1.63" fill="#923E8B" opacity=".7" d="M171.63 421.37l-1.63 3.26-1.63-3.26z"/></g><g class="key-Costa-Rica"><circle cx="90" cy="470" r="1.1" fill="#E04E4B" stroke="none" opacity=".7"/><path stroke-width=".43" opacity=".7" stroke="#E04E4B" fill="none" stroke-linecap="butt" d="M90 470h0"/><path cx="90" cy="470" r="1.63" fill="#E04E4B" opacity=".7" d="M88.37 468.37l3.26 1.63-3.26 1.63z"/></g><g class="key-Ireland"><circle cx="169" cy="424" r="1.1" fill="#923E8B" stroke="none" opacity=".7"/><path stroke-width=".43" opacity=".7" stroke="#923E8B" fill="none" stroke-linecap="butt" d="M169 424l-1 2"/><path cx="168" cy="426" r="1.63" fill="#923E8B" opacity=".7" d="M170.19 425.27l-2.92 2.19v-3.65z"/></g><g class="key-New-Zealand"><circle cx="163" cy="429" r="1.1" fill="#923E8B" stroke="none" opacity=".7"/><path stroke-width=".43" opacity=".7" stroke="#923E8B" fill="none" stroke-linecap="butt" d="M163 429h-3"/><path cx="160" cy="429" r="1.63" fill="#923E8B" opacity=".7" d="M161.63 430.63l-3.26-1.63 3.26-1.63z"/></g><g class="key-Croatia"><circle cx="124" cy="451" r="1.1" fill="#E04E4B" stroke="none" opacity=".7"/><path stroke-width=".43" opacity=".7" stroke="#E04E4B" fill="none" stroke-linecap="butt" d="M124 451l-3 1"/><path cx="121" cy="452" r="1.63" fill="#E04E4B" opacity=".7" d="M123.06 453.03l-3.6-.51 2.57-2.58z"/></g><g class="key-Oman"><circle cx="241" cy="389" r="1.1" fill="#923E8B" stroke="none" opacity=".7"/><path stroke-width=".43" opacity=".7" stroke="#923E8B" fill="none" stroke-linecap="butt" d="M241 389l8 1"/><path cx="249" cy="390" r="1.63" fill="#923E8B" opacity=".7" d="M247.58 388.18l3.04 2.02-3.44 1.22z"/></g><g class="key-Kuwait"><circle cx="385" cy="313" r="1.1" fill="#923E8B" stroke="none" opacity=".7"/><path stroke-width=".42" opacity=".7" stroke="#923E8B" fill="none" stroke-linecap="butt" d="M385 313l-8 7"/><path cx="377" cy="320" r="1.62" fill="#923E8B" opacity=".7" d="M379.29 320.15l-3.5.92 1.36-3.36z"/></g><g class="key-Panama"><circle cx="105" cy="446" r="1.1" fill="#E04E4B" stroke="none" opacity=".7"/><path stroke-width=".42" opacity=".7" stroke="#E04E4B" fill="none" stroke-linecap="butt" d="M105 446v-1"/><path cx="105" cy="445" r="1.62" fill="#E04E4B" opacity=".7" d="M103.38 446.62l1.62-3.24 1.62 3.24z"/></g><g class="key-Georgia"><circle cx="99" cy="468" r="1.1" fill="#2D8587" stroke="none" opacity=".7"/><path stroke-width=".42" opacity=".7" stroke="#2D8587" fill="none" stroke-linecap="butt" d="M99 468h0"/><path cx="99" cy="468" r="1.62" fill="#2D8587" opacity=".7" d="M97.38 466.38l3.24 1.62-3.24 1.62z"/></g><g class="key-Uruguay"><circle cx="91" cy="465" r="1.1" fill="#923E8B" stroke="none" opacity=".7"/><path stroke-width=".42" opacity=".7" stroke="#923E8B" fill="none" stroke-linecap="butt" d="M91 465l1-1"/><path cx="92" cy="464" r="1.62" fill="#923E8B" opacity=".7" d="M89.7 464l3.45-1.15L92 466.3z"/></g><g class="key-Armenia"><circle cx="92" cy="475" r="1.1" fill="#2D8587" stroke="none" opacity=".7"/><path stroke-width=".42" opacity=".7" stroke="#2D8587" fill="none" stroke-linecap="butt" d="M92 475l3-2"/><path cx="95" cy="473" r="1.62" fill="#2D8587" opacity=".7" d="M92.75 472.55l3.6-.45-1.8 3.15z"/></g><g class="key-Mongolia"><circle cx="203" cy="417" r="1.1" fill="#2D8587" stroke="none" opacity=".7"/><path stroke-width=".42" opacity=".7" stroke="#2D8587" fill="none" stroke-linecap="butt" d="M203 417l115-54"/><path cx="318" cy="363" r="1.62" fill="#2D8587" opacity=".7" d="M315.85 362.22l3.62.1-2.25 2.83z"/></g><g class="key-Albania"><circle cx="92" cy="473" r="1.1" fill="#E04E4B" stroke="none" opacity=".7"/><path stroke-width=".42" opacity=".7" stroke="#E04E4B" fill="none" stroke-linecap="butt" d="M92 473h0"/><path cx="92" cy="473" r="1.62" fill="#E04E4B" opacity=".7" d="M90.38 471.38l3.24 1.62-3.24 1.62z"/></g><g class="key-Jamaica"><circle cx="102" cy="467" r="1.1" fill="#E04E4B" stroke="none" opacity=".7"/><path stroke-width=".42" opacity=".7" stroke="#E04E4B" fill="none" stroke-linecap="butt" d="M102 467h1"/><path cx="103" cy="467" r="1.62" fill="#E04E4B" opacity=".7" d="M101.38 465.38l3.24 1.62-3.24 1.62z"/></g><g class="key-Lithuania"><circle cx="128" cy="434" r="1.1" fill="#923E8B" stroke="none" opacity=".7"/><path stroke-width=".42" opacity=".7" stroke="#923E8B" fill="none" stroke-linecap="butt" d="M128 434l1-4"/><path cx="129" cy="430" r="1.62" fill="#923E8B" opacity=".7" d="M127.04 431.18l2.35-2.75.79 3.53z"/></g><g class="key-Qatar"><circle cx="543" cy="299" r="1.1" fill="#923E8B" stroke="none" opacity=".7"/><path stroke-width=".42" opacity=".7" stroke="#923E8B" fill="none" stroke-linecap="butt" d="M543 299l6 6"/><path cx="549" cy="305" r="1.62" fill="#923E8B" opacity=".7" d="M549 302.7l1.15 3.45-3.44-1.15z"/></g><g class="key-Namibia"><circle cx="90" cy="462" r="1.1" fill="#E04E4B" stroke="none" opacity=".7"/><path stroke-width=".42" opacity=".7" stroke="#E04E4B" fill="none" stroke-linecap="butt" d="M90 462h0"/><path cx="90" cy="462" r="1.62" fill="#E04E4B" opacity=".7" d="M88.38 460.38l3.24 1.62-3.24 1.62z"/></g><g class="key-Botswana"><circle cx="109" cy="430" r="1.1" fill="#E04E4B" stroke="none" opacity=".7"/><path stroke-width=".42" opacity=".7" stroke="#E04E4B" fill="none" stroke-linecap="butt" d="M109 430l-3 1"/><path cx="106" cy="431" r="1.62" fill="#E04E4B" opacity=".7" d="M108.05 432.02l-3.59-.5 2.56-2.57z"/></g><g class="key-Slovenia"><circle cx="153" cy="425" r="1.1" fill="#923E8B" stroke="none" opacity=".7"/><path stroke-width=".42" opacity=".7" stroke="#923E8B" fill="none" stroke-linecap="butt" d="M153 425l2-1"/><path cx="155" cy="424" r="1.62" fill="#923E8B" opacity=".7" d="M152.83 423.28h3.62l-2.17 2.9z"/></g><g class="key-Latvia"><circle cx="115" cy="443" r="1.1" fill="#923E8B" stroke="none" opacity=".7"/><path stroke-width=".42" opacity=".7" stroke="#923E8B" fill="none" stroke-linecap="butt" d="M115 443l4-4"/><path cx="119" cy="439" r="1.62" fill="#923E8B" opacity=".7" d="M116.7 439l3.45-1.15-1.15 3.44z"/></g><g class="key-Bahrain"><circle cx="338" cy="398" r="1.1" fill="#923E8B" stroke="none" opacity=".7"/><path stroke-width=".42" opacity=".7" stroke="#923E8B" fill="none" stroke-linecap="butt" d="M338 398l-22 9"/><path cx="316" cy="407" r="1.62" fill="#923E8B" opacity=".7" d="M318.11 407.89l-3.6-.28 2.38-2.72z"/></g><g class="key-Estonia"><circle cx="242" cy="389" r="1.1" fill="#923E8B" stroke="none" opacity=".7"/><path stroke-width=".42" opacity=".7" stroke="#923E8B" fill="none" stroke-linecap="butt" d="M242 389h-9"/><path cx="233" cy="389" r="1.62" fill="#923E8B" opacity=".7" d="M234.62 390.62l-3.24-1.62 3.24-1.62z"/></g><g class="key-Trinidad-and-Tobago"><circle cx="422" cy="343" r="1.1" fill="#923E8B" stroke="none" opacity=".7"/><path stroke-width=".42" opacity=".7" stroke="#923E8B" fill="none" stroke-linecap="butt" d="M422 343l-20 12"/><path cx="402" cy="355" r="1.62" fill="#923E8B" opacity=".7" d="M404.22 355.56l-3.6.27 1.94-3.05z"/></g><g class="key-Mauritius"><circle cx="113" cy="457" r="1.1" fill="#E04E4B" stroke="none" opacity=".7"/><path stroke-width=".41" opacity=".7" stroke="#E04E4B" fill="none" stroke-linecap="butt" d="M113 457l4-3"/><path cx="117" cy="454" r="1.61" fill="#E04E4B" opacity=".7" d="M114.75 453.68l3.54-.65-1.61 3.22z"/></g><g class="key-Cyprus"><circle cx="147" cy="442" r="1.1" fill="#923E8B" stroke="none" opacity=".7"/><path stroke-width=".41" opacity=".7" stroke="#923E8B" fill="none" stroke-linecap="butt" d="M147 442l-2-1"/><path cx="145" cy="441" r="1.61" fill="#923E8B" opacity=".7" d="M145.72 443.16l-2.16-2.88h3.6z"/></g><g class="key-Luxembourg"><circle cx="260" cy="204" r="1.1" fill="#923E8B" stroke="none" opacity=".7"/><path stroke-width=".41" opacity=".7" stroke="#923E8B" fill="none" stroke-linecap="butt" d="M260 204l3 8"/><path cx="263" cy="212" r="1.61" fill="#923E8B" opacity=".7" d="M263.94 209.93l-.37 3.58-2.64-2.45z"/></g><g class="key-Brunei"><circle cx="345" cy="318" r="1.1" fill="#923E8B" stroke="none" opacity=".7"/><path stroke-width=".41" opacity=".7" stroke="#923E8B" fill="none" stroke-linecap="butt" d="M345 318l-3 3"/><path cx="342" cy="321" r="1.61" fill="#923E8B" opacity=".7" d="M344.28 321l-3.42 1.14 1.14-3.42z"/></g><g class="key-Malta"><circle cx="113" cy="405" r="1.1" fill="#923E8B" stroke="none" opacity=".7"/><path stroke-width=".41" opacity=".7" stroke="#923E8B" fill="none" stroke-linecap="butt" d="M113 405l-1-4"/><path cx="112" cy="401" r="1.61" fill="#923E8B" opacity=".7" d="M110.83 402.95l.78-3.51 2.34 2.73z"/></g><g class="backgroundLabels" fill="#333" font-weight="400"><text x="159.47" y="440.76" font-size="14.3" fill="#fff" stroke="#fff" stroke-linecap="round" stroke-linejoin="round" stroke-width=".25em">China</text><text x="159.47" y="440.76" font-size="14.3" fill="#E04E4B">China</text><text x="98" y="476" font-size="14.15" fill="#fff" stroke="#fff" stroke-linecap="round" stroke-linejoin="round" stroke-width=".25em">India</text><text x="98" y="476" font-size="14.15" fill="#2D8587">India</text><text x="276.29" y="358.43" font-size="11.77" fill="#fff" stroke="#fff" stroke-linecap="round" stroke-linejoin="round" stroke-width=".25em">United States</text><text x="276.29" y="358.43" font-size="11.77" fill="#923E8B">United States</text><text x="215.74" y="425.25" font-size="11.35" fill="#fff" stroke="#fff" stroke-linecap="round" stroke-linejoin="round" stroke-width=".25em">Russia</text><text x="215.74" y="425.25" font-size="11.35" fill="#E04E4B">Russia</text><text x="128.94" y="419.42" font-size="11.2" fill="#fff" stroke="#fff" stroke-linecap="round" stroke-linejoin="round" stroke-width=".25em">Germany</text><text x="128.94" y="419.42" font-size="11.2" fill="#923E8B">Germany</text><text x="92.18" y="439" font-size="11.16" fill="#fff" stroke="#fff" stroke-linecap="round" stroke-linejoin="round" stroke-width=".25em">France</text><text x="92.18" y="439" font-size="11.16" fill="#923E8B">France</text><text x="225.16" y="388.23" font-size="11.12" fill="#fff" stroke="#fff" stroke-linecap="round" stroke-linejoin="round" stroke-width=".25em">South Korea</text><text x="225.16" y="388.23" font-size="11.12" fill="#923E8B">South Korea</text><text x="176" y="372" font-size="11.03" fill="#fff" stroke="#fff" stroke-linecap="round" stroke-linejoin="round" stroke-width=".25em">Belgium</text><text x="176" y="372" font-size="11.03" fill="#923E8B">Belgium</text><text x="203.15" y="315.07" font-size="11.02" fill="#fff" stroke="#fff" stroke-linecap="round" stroke-linejoin="round" stroke-width=".25em">United Arab Emirates</text><text x="203.15" y="315.07" font-size="11.02" fill="#923E8B">United Arab Emirates</text><text x="117.26" y="394.09" font-size="11.02" fill="#fff" stroke="#fff" stroke-linecap="round" stroke-linejoin="round" stroke-width=".25em">Switzerland</text><text x="117.26" y="394.09" font-size="11.02" fill="#923E8B">Switzerland</text><text x="96.09" y="347.76" font-size="11.01" fill="#fff" stroke="#fff" stroke-linecap="round" stroke-linejoin="round" stroke-width=".25em">Singapore</text><text x="96.09" y="347.76" font-size="11.01" fill="#923E8B">Singapore</text><text x="340.1" y="328.8" font-size="11.01" fill="#fff" stroke="#fff" stroke-linecap="round" stroke-linejoin="round" stroke-width=".25em">Kuwait</text><text x="340.1" y="328.8" font-size="11.01" fill="#923E8B">Kuwait</text><text x="552.54" y="314.04" font-size="11" fill="#fff" stroke="#fff" stroke-linecap="round" stroke-linejoin="round" stroke-width=".25em">Qatar</text><text x="552.54" y="314.04" font-size="11" fill="#923E8B">Qatar</text><text x="273.3" y="414.39" font-size="11" fill="#fff" stroke="#fff" stroke-linecap="round" stroke-linejoin="round" stroke-width=".25em">Bahrain</text><text x="273.3" y="414.39" font-size="11" fill="#923E8B">Bahrain</text><text x="264.76" y="222.18" font-size="11" fill="#fff" stroke="#fff" stroke-linecap="round" stroke-linejoin="round" stroke-width=".25em">Luxembourg</text><text x="264.76" y="222.18" font-size="11" fill="#923E8B">Luxembourg</text><text x="83.84" y="396.15" font-size="11" fill="#fff" stroke="#fff" stroke-linecap="round" stroke-linejoin="round" stroke-width=".25em">Malta</text><text x="83.84" y="396.15" font-size="11" fill="#923E8B">Malta</text></g></g><g class="ScatterColorLegend clickable" cursor="pointer"><g class="legendMark"><path fill="#923E8B" d="M701.05 128.6h9v9h-9z"/><text font-size="12.6" x="715" y="136.9"><tspan x="715.05" y="136.88">High income</tspan></text></g><g class="legendMark"><path fill="#5887A1" d="M701.05 146.2h9v9h-9z"/><text font-size="12.6" x="715" y="154.5"><tspan x="715.05" y="154.48">Low income</tspan></text></g><g class="legendMark"><path fill="#2D8587" d="M701.05 163.8h9v9h-9z"/><text font-size="12.6" x="715" y="172.1"><tspan x="715.05" y="172.08">Lower-middle income</tspan></text></g><g class="legendMark" fill="#ccc"><path d="M701.05 181.4h9v9h-9z"/><text font-size="12.6" x="715" y="189.7" font-weight="700"><tspan x="715.05" y="189.68">Not categorized</tspan></text></g><g class="legendMark"><path fill="#E04E4B" d="M701.05 199h9v9h-9z"/><text font-size="12.6" x="715" y="207.3"><tspan x="715.05" y="207.28">Upper-middle income</tspan></text></g></g><path stroke="#ccc" d="M701.05 216.8H830"/><g class="clickable"><g class="ConnectedScatterLegend"><text font-size="12.6" x="701" y="235.9" fill="#333"><tspan x="701.05" y="235.88">2017</tspan></text><text font-size="12.6" x="806.8" y="235.9" fill="#333"><tspan x="806.78" y="235.88">2018</tspan></text><path stroke="#666" stroke-width="1" d="M734.27 231.6h67.51"/><circle cx="734.27" cy="231.6" r="2" fill="#666" stroke="#ccc" stroke-width=".2"/><circle cx="756.77" cy="231.6" r="2" fill="#666" stroke="#ccc" stroke-width=".2"/><circle cx="779.27" cy="231.6" r="2" fill="#666" stroke="#ccc" stroke-width=".2"/><path cx="801.78" cy="231.6" r="3" fill="#666" stroke="#ccc" stroke-width=".2" d="M798.78 228.6l6 3-6 3z"/></g></g></g><g class="SourcesFooter" fill="#777"><g fill="#777"><text font-size="12.6" x="15" y="567.9"><tspan x="15" y="567.88">Source: Our World in Data based on Global Carbon Project and UN Population</tspan></text></g><text font-size="12.6" x="15" y="582.5"><tspan x="15" y="582.48"><a target="_blank" href="https://ourworldindata.org/co2-and-other-greenhouse-gas-emissions" fill="#777">OurWorldInData.org/co2-and-other-greenhouse-gas-emissions</a> • <a class="cclogo" href="http://creativecommons.org/licenses/by/4.0/deed.en_US" target="_blank" fill="#777">CC BY</a></tspan></text></g></svg>