<svg xmlns="http://www.w3.org/2000/svg" version="1.1" style="font-family:Lato,'Helvetica Neue',Helvetica,Arial,sans-serif;font-size:18px;background-color:#fff;text-rendering:geometricPrecision;-webkit-font-smoothing:antialiased" width="850" height="600" viewBox="0 0 850 600"><g class="HeaderView"><g transform="matrix(.29 0 0 .29 774 15)"><svg className="owidLog" width="210" height="120" viewBox="0 0 210 120" fill="none" xmlns="http://www.w3.org/2000/svg"><g clip-path="url(#a)"><path d="M0 0h210v107.89H0V0z" fill="#002147"/><path d="M40.98 32.25c0 2.36-.38 4.53-1.12 6.51a14.26 14.26 0 0 1-8.1 8.4c-1.9.78-4.02 1.17-6.34 1.17a16.6 16.6 0 0 1-6.33-1.17 14.31 14.31 0 0 1-8.08-8.4 18.29 18.29 0 0 1-1.12-6.51c0-2.36.38-4.53 1.12-6.5.75-1.97 1.8-3.67 3.17-5.1a14.32 14.32 0 0 1 4.9-3.34c1.92-.8 4.03-1.19 6.34-1.19 2.32 0 4.43.4 6.34 1.19 1.92.8 3.56 1.9 4.93 3.34a14.87 14.87 0 0 1 3.17 5.1 18.1 18.1 0 0 1 1.12 6.5zm-4.38 0c0-1.94-.26-3.68-.8-5.22a10.91 10.91 0 0 0-2.24-3.89 9.68 9.68 0 0 0-3.52-2.46 11.95 11.95 0 0 0-4.62-.86c-1.68 0-3.21.28-4.6.86a9.88 9.88 0 0 0-3.54 2.46 10.91 10.91 0 0 0-2.24 3.9c-.53 1.53-.8 3.27-.8 5.2 0 1.94.27 3.68.8 5.22a11.17 11.17 0 0 0 2.24 3.9 10.01 10.01 0 0 0 3.55 2.44c1.38.56 2.9.83 4.6.83s3.24-.27 4.61-.83a9.8 9.8 0 0 0 3.52-2.44 11.17 11.17 0 0 0 2.25-3.9c.53-1.54.8-3.28.8-5.21zm26.22-6.54V48H60.5c-.56 0-.9-.27-1.05-.81l-.31-2.4a12.45 12.45 0 0 1-3.26 2.6c-1.2.64-2.58.96-4.13.96-1.22 0-2.3-.2-3.24-.6a6.52 6.52 0 0 1-2.33-1.7 7.37 7.37 0 0 1-1.43-2.67c-.3-1.04-.46-2.2-.46-3.45V25.7h3.91v14.22c0 1.68.38 2.99 1.15 3.91.77.93 1.96 1.39 3.54 1.39 1.16 0 2.24-.27 3.23-.82a10.42 10.42 0 0 0 2.8-2.28V25.7h3.91zm8.61 4.47a9.94 9.94 0 0 1 2.6-3.56 5.64 5.64 0 0 1 3.76-1.3c.47 0 .92.05 1.34.15.44.1.83.27 1.17.49l-.3 2.92c-.09.37-.3.55-.66.55-.2 0-.5-.04-.9-.13a6.21 6.21 0 0 0-3.24.18 4.23 4.23 0 0 0-1.47.92c-.42.4-.81.9-1.17 1.5-.33.58-.64 1.26-.92 2.02V48H67.7V25.71h2.25c.42 0 .72.08.88.25.16.16.27.44.33.83l.26 3.39zm61.16-13.7L122.75 48h-3.82l-7.99-24.05a21.95 21.95 0 0 1-.42-1.58 38.36 38.36 0 0 1-.44 1.58L102.05 48h-3.83L88.4 16.47h3.54c.38 0 .7.1.95.29.26.2.43.43.5.73l6.52 21.9.28 1.28.29 1.46.3-1.46.38-1.27 7.41-21.91c.1-.25.26-.48.51-.69.27-.22.58-.33.95-.33h1.23c.38 0 .69.1.92.29a1.77 1.77 0 0 1 .53.73l7.4 21.9a28.4 28.4 0 0 1 .68 2.62 29.52 29.52 0 0 1 .52-2.61l6.54-21.91a1.31 1.31 0 0 1 .48-.7c.27-.21.58-.32.95-.32h3.32zm9.35 8.88c1.63 0 3.1.27 4.4.82a9.43 9.43 0 0 1 5.46 5.94c.5 1.4.74 2.98.74 4.73 0 1.76-.25 3.34-.74 4.75a9.43 9.43 0 0 1-5.46 5.92c-1.3.52-2.77.79-4.4.79-1.64 0-3.12-.27-4.44-.8a9.42 9.42 0 0 1-3.35-2.3c-.92-1-1.63-2.2-2.13-3.61-.49-1.41-.73-3-.73-4.75s.24-3.33.73-4.73c.5-1.43 1.2-2.64 2.13-3.63a9.4 9.4 0 0 1 3.35-2.31c1.32-.55 2.8-.82 4.44-.82zm0 19.89c2.2 0 3.84-.73 4.93-2.2 1.08-1.48 1.63-3.54 1.63-6.18 0-2.66-.55-4.72-1.63-6.2-1.09-1.49-2.73-2.23-4.93-2.23-1.12 0-2.09.2-2.93.57a5.71 5.71 0 0 0-2.06 1.65 7.5 7.5 0 0 0-1.24 2.67c-.26 1.04-.4 2.22-.4 3.54 0 2.64.55 4.7 1.64 6.18 1.1 1.47 2.76 2.2 4.99 2.2zm17.97-15.07a9.94 9.94 0 0 1 2.6-3.56 5.64 5.64 0 0 1 3.76-1.3c.47 0 .91.05 1.34.15.44.1.83.27 1.16.49l-.28 2.92c-.09.37-.31.55-.66.55-.2 0-.5-.04-.9-.13a6.2 6.2 0 0 0-3.24.18 4.23 4.23 0 0 0-1.47.92c-.43.4-.82.9-1.17 1.5a13.1 13.1 0 0 0-.92 2.02V48h-3.94V25.71h2.24c.43 0 .72.08.88.25.17.16.28.44.33.83l.27 3.39zm15.04-14.59V48h-3.92V15.6h3.92zm19.55 15.43a6.22 6.22 0 0 0-2.38-2.05 6.7 6.7 0 0 0-2.86-.6c-2.07 0-3.66.75-4.77 2.23-1.12 1.48-1.68 3.6-1.68 6.33 0 1.46.13 2.7.38 3.74a7.29 7.29 0 0 0 1.1 2.56 4.35 4.35 0 0 0 1.78 1.45c.7.3 1.5.46 2.4.46 1.29 0 2.41-.3 3.36-.88a9.6 9.6 0 0 0 2.67-2.49V31.02zm3.91-15.43V48h-2.33c-.56 0-.9-.27-1.06-.81l-.35-2.71a12.13 12.13 0 0 1-3.25 2.77 8.28 8.28 0 0 1-4.23 1.06 7.31 7.31 0 0 1-6.14-2.9c-.73-.96-1.3-2.15-1.69-3.57a18.35 18.35 0 0 1 .07-9.48 11.29 11.29 0 0 1 1.89-3.7 8.7 8.7 0 0 1 7.06-3.34 7.96 7.96 0 0 1 6.12 2.62V15.59h3.91zM46.61 70.71V93H42.7V70.71h3.91zm.84-7c0 .39-.08.75-.24 1.09a2.81 2.81 0 0 1-1.52 1.47 2.67 2.67 0 0 1-2.16 0 2.9 2.9 0 0 1-1.45-1.47 2.67 2.67 0 0 1 0-2.16c.15-.35.35-.65.6-.9.25-.27.53-.47.85-.62a2.67 2.67 0 0 1 2.16 0c.35.15.65.35.9.62.27.25.47.55.62.9.16.34.24.7.24 1.08zm7.97 10.24c.49-.54 1-1.04 1.54-1.48a9.85 9.85 0 0 1 3.66-1.84 8.96 8.96 0 0 1 5.43.35c.94.4 1.72.97 2.33 1.71a7.36 7.36 0 0 1 1.43 2.67c.32 1.04.49 2.19.49 3.45V93h-3.94V78.81c0-1.69-.4-3-1.17-3.92-.76-.93-1.93-1.4-3.5-1.4a6.6 6.6 0 0 0-3.25.83c-1 .56-1.92 1.31-2.77 2.27V93h-3.94V70.71h2.35c.56 0 .9.28 1.04.82l.3 2.42zm57.7 3.3c0 2.36-.37 4.5-1.11 6.44a14.3 14.3 0 0 1-3.17 4.98 14.1 14.1 0 0 1-4.93 3.2c-1.9.76-4.02 1.13-6.33 1.13H85.8V61.47h11.77c2.31 0 4.42.39 6.33 1.15a13.8 13.8 0 0 1 8.1 8.18 17.75 17.75 0 0 1 1.12 6.45zm-4.37 0c0-1.94-.26-3.67-.8-5.2a10.94 10.94 0 0 0-2.23-3.87 9.57 9.57 0 0 0-3.53-2.42 12.23 12.23 0 0 0-4.61-.83h-7.5v24.62h7.5c1.7 0 3.24-.28 4.61-.84a9.7 9.7 0 0 0 3.53-2.4 10.94 10.94 0 0 0 2.24-3.87c.53-1.53.8-3.26.8-5.2zm19.8 5.72c-1.8.06-3.34.2-4.62.44-1.26.22-2.3.51-3.1.88-.8.36-1.37.8-1.74 1.3-.35.5-.53 1.05-.53 1.67 0 .58.1 1.1.3 1.52a3 3 0 0 0 .76 1.05c.34.27.73.46 1.17.6a6.13 6.13 0 0 0 1.45.17 7.28 7.28 0 0 0 3.5-.81 11.95 11.95 0 0 0 2.82-2.2v-4.62zm-12.65-9.11a12.73 12.73 0 0 1 3.98-2.66c1.43-.59 3-.88 4.73-.88 1.25 0 2.36.2 3.33.61a6.81 6.81 0 0 1 3.94 4.38c.33 1.04.5 2.19.5 3.43V93h-1.74a1.8 1.8 0 0 1-.88-.18c-.2-.13-.36-.38-.48-.74l-.44-2.12-1.72 1.46a9.48 9.48 0 0 1-3.74 1.7c-.69.15-1.46.23-2.3.23-.87 0-1.69-.12-2.45-.35a5.34 5.34 0 0 1-3.34-2.93 6.64 6.64 0 0 1-.49-2.64c0-.88.25-1.72.73-2.53a6.33 6.33 0 0 1 2.35-2.17c1.09-.63 2.5-1.15 4.25-1.54 1.75-.41 3.89-.65 6.42-.7v-1.75c0-1.73-.37-3.03-1.12-3.91-.75-.9-1.84-1.34-3.28-1.34-.97 0-1.78.12-2.44.37-.64.23-1.2.5-1.7.81l-1.23.82c-.33.23-.67.35-1 .35-.27 0-.5-.07-.69-.2a2.1 2.1 0 0 1-.48-.53l-.7-1.25zm27.67 19.5c-1.76 0-3.12-.5-4.07-1.48-.94-.98-1.41-2.4-1.41-4.25V74h-2.68a.9.9 0 0 1-.6-.2c-.16-.14-.24-.36-.24-.66v-1.56l3.65-.46.9-6.89a.9.9 0 0 1 .29-.52.88.88 0 0 1 .62-.22H142v7.67h6.44V74H142v13.38c0 .94.22 1.63.68 2.09.45.45 1.04.68 1.76.68a3.21 3.21 0 0 0 1.85-.53l.55-.35c.16-.12.3-.18.41-.18.2 0 .4.13.55.38l1.15 1.87a7.45 7.45 0 0 1-2.44 1.5 8.53 8.53 0 0 1-2.95.52zm19.68-10.4c-1.8.07-3.34.21-4.62.45-1.26.22-2.3.51-3.1.88-.8.36-1.37.8-1.74 1.3-.35.5-.53 1.05-.53 1.67 0 .58.1 1.1.3 1.52a2.9 2.9 0 0 0 .76 1.05c.34.27.73.46 1.17.6a6.13 6.13 0 0 0 1.45.17 7.3 7.3 0 0 0 3.5-.81 12.04 12.04 0 0 0 2.82-2.2v-4.62zm-12.65-9.1a12.72 12.72 0 0 1 3.99-2.66c1.42-.59 3-.88 4.72-.88 1.25 0 2.36.2 3.33.61a6.81 6.81 0 0 1 3.94 4.38c.33 1.04.5 2.19.5 3.43V93h-1.74a1.8 1.8 0 0 1-.88-.18c-.2-.13-.36-.38-.48-.74l-.44-2.12-1.72 1.46a9.48 9.48 0 0 1-3.74 1.7c-.69.15-1.46.23-2.3.23-.87 0-1.69-.12-2.45-.35a5.33 5.33 0 0 1-3.34-2.93 6.62 6.62 0 0 1-.49-2.64c0-.88.25-1.72.73-2.53a6.33 6.33 0 0 1 2.35-2.17c1.09-.63 2.5-1.15 4.25-1.54a31.2 31.2 0 0 1 6.42-.7v-1.75c0-1.73-.37-3.03-1.12-3.91-.75-.9-1.84-1.34-3.28-1.34-.97 0-1.78.12-2.44.37-.64.23-1.2.5-1.7.81l-1.22.82c-.34.23-.68.35-1.02.35-.26 0-.49-.07-.68-.2a1.88 1.88 0 0 1-.48-.53l-.7-1.25zM40.98 32.25c0 2.36-.38 4.53-1.12 6.51a14.26 14.26 0 0 1-8.1 8.4c-1.9.78-4.02 1.17-6.34 1.17a16.6 16.6 0 0 1-6.33-1.17 14.31 14.31 0 0 1-8.08-8.4 18.29 18.29 0 0 1-1.12-6.51c0-2.36.38-4.53 1.12-6.5.75-1.97 1.8-3.67 3.17-5.1a14.32 14.32 0 0 1 4.9-3.34c1.92-.8 4.03-1.19 6.34-1.19 2.32 0 4.43.4 6.34 1.19 1.92.8 3.56 1.9 4.93 3.34a14.87 14.87 0 0 1 3.17 5.1 18.1 18.1 0 0 1 1.12 6.5zm-4.38 0c0-1.94-.26-3.68-.8-5.22a10.91 10.91 0 0 0-2.24-3.89 9.68 9.68 0 0 0-3.52-2.46 11.95 11.95 0 0 0-4.62-.86c-1.68 0-3.21.28-4.6.86a9.88 9.88 0 0 0-3.54 2.46 10.91 10.91 0 0 0-2.24 3.9c-.53 1.53-.8 3.27-.8 5.2 0 1.94.27 3.68.8 5.22a11.17 11.17 0 0 0 2.24 3.9 10.01 10.01 0 0 0 3.55 2.44c1.38.56 2.9.83 4.6.83s3.24-.27 4.61-.83a9.8 9.8 0 0 0 3.52-2.44 11.17 11.17 0 0 0 2.25-3.9c.53-1.54.8-3.28.8-5.21zm26.22-6.54V48H60.5c-.56 0-.9-.27-1.05-.81l-.31-2.4a12.45 12.45 0 0 1-3.26 2.6c-1.2.64-2.58.96-4.13.96-1.22 0-2.3-.2-3.24-.6a6.52 6.52 0 0 1-2.33-1.7 7.37 7.37 0 0 1-1.43-2.67c-.3-1.04-.46-2.2-.46-3.45V25.7h3.91v14.22c0 1.68.38 2.99 1.15 3.91.77.93 1.96 1.39 3.54 1.39 1.16 0 2.24-.27 3.23-.82a10.42 10.42 0 0 0 2.8-2.28V25.7h3.91zm8.61 4.47a9.94 9.94 0 0 1 2.6-3.56 5.64 5.64 0 0 1 3.76-1.3c.47 0 .92.05 1.34.15.44.1.83.27 1.17.49l-.3 2.92c-.09.37-.3.55-.66.55-.2 0-.5-.04-.9-.13a6.21 6.21 0 0 0-3.24.18 4.23 4.23 0 0 0-1.47.92c-.42.4-.81.9-1.17 1.5-.33.58-.64 1.26-.92 2.02V48H67.7V25.71h2.25c.42 0 .72.08.88.25.16.16.27.44.33.83l.26 3.39zm61.16-13.7L122.75 48h-3.82l-7.99-24.05a21.95 21.95 0 0 1-.42-1.58 38.36 38.36 0 0 1-.44 1.58L102.05 48h-3.83L88.4 16.47h3.54c.38 0 .7.1.95.29.26.2.43.43.5.73l6.52 21.9.28 1.28.29 1.46.3-1.46.38-1.27 7.41-21.91c.1-.25.26-.48.51-.69.27-.22.58-.33.95-.33h1.23c.38 0 .69.1.92.29a1.77 1.77 0 0 1 .53.73l7.4 21.9a28.4 28.4 0 0 1 .68 2.62 29.52 29.52 0 0 1 .52-2.61l6.54-21.91a1.31 1.31 0 0 1 .48-.7c.27-.21.58-.32.95-.32h3.32zm9.35 8.88c1.63 0 3.1.27 4.4.82a9.43 9.43 0 0 1 5.46 5.94c.5 1.4.74 2.98.74 4.73 0 1.76-.25 3.34-.74 4.75a9.43 9.43 0 0 1-5.46 5.92c-1.3.52-2.77.79-4.4.79-1.64 0-3.12-.27-4.44-.8a9.42 9.42 0 0 1-3.35-2.3c-.92-1-1.63-2.2-2.13-3.61-.49-1.41-.73-3-.73-4.75s.24-3.33.73-4.73c.5-1.43 1.2-2.64 2.13-3.63a9.4 9.4 0 0 1 3.35-2.31c1.32-.55 2.8-.82 4.44-.82zm0 19.89c2.2 0 3.84-.73 4.93-2.2 1.08-1.48 1.63-3.54 1.63-6.18 0-2.66-.55-4.72-1.63-6.2-1.09-1.49-2.73-2.23-4.93-2.23-1.12 0-2.09.2-2.93.57a5.71 5.71 0 0 0-2.06 1.65 7.5 7.5 0 0 0-1.24 2.67c-.26 1.04-.4 2.22-.4 3.54 0 2.64.55 4.7 1.64 6.18 1.1 1.47 2.76 2.2 4.99 2.2zm17.97-15.07a9.94 9.94 0 0 1 2.6-3.56 5.64 5.64 0 0 1 3.76-1.3c.47 0 .91.05 1.34.15.44.1.83.27 1.16.49l-.28 2.92c-.09.37-.31.55-.66.55-.2 0-.5-.04-.9-.13a6.2 6.2 0 0 0-3.24.18 4.23 4.23 0 0 0-1.47.92c-.43.4-.82.9-1.17 1.5a13.1 13.1 0 0 0-.92 2.02V48h-3.94V25.71h2.24c.43 0 .72.08.88.25.17.16.28.44.33.83l.27 3.39zm15.04-14.59V48h-3.92V15.6h3.92zm19.55 15.43a6.22 6.22 0 0 0-2.38-2.05 6.7 6.7 0 0 0-2.86-.6c-2.07 0-3.66.75-4.77 2.23-1.12 1.48-1.68 3.6-1.68 6.33 0 1.46.13 2.7.38 3.74a7.29 7.29 0 0 0 1.1 2.56 4.35 4.35 0 0 0 1.78 1.45c.7.3 1.5.46 2.4.46 1.29 0 2.41-.3 3.36-.88a9.6 9.6 0 0 0 2.67-2.49V31.02zm3.91-15.43V48h-2.33c-.56 0-.9-.27-1.06-.81l-.35-2.71a12.13 12.13 0 0 1-3.25 2.77 8.28 8.28 0 0 1-4.23 1.06 7.31 7.31 0 0 1-6.14-2.9c-.73-.96-1.3-2.15-1.69-3.57a18.35 18.35 0 0 1 .07-9.48 11.29 11.29 0 0 1 1.89-3.7 8.7 8.7 0 0 1 7.06-3.34 7.96 7.96 0 0 1 6.12 2.62V15.59h3.91zM46.61 70.71V93H42.7V70.71h3.91zm.84-7c0 .39-.08.75-.24 1.09a2.81 2.81 0 0 1-1.52 1.47 2.67 2.67 0 0 1-2.16 0 2.9 2.9 0 0 1-1.45-1.47 2.67 2.67 0 0 1 0-2.16c.15-.35.35-.65.6-.9.25-.27.53-.47.85-.62a2.67 2.67 0 0 1 2.16 0c.35.15.65.35.9.62.27.25.47.55.62.9.16.34.24.7.24 1.08zm7.97 10.24c.49-.54 1-1.04 1.54-1.48a9.85 9.85 0 0 1 3.66-1.84 8.96 8.96 0 0 1 5.43.35c.94.4 1.72.97 2.33 1.71a7.36 7.36 0 0 1 1.43 2.67c.32 1.04.49 2.19.49 3.45V93h-3.94V78.81c0-1.69-.4-3-1.17-3.92-.76-.93-1.93-1.4-3.5-1.4a6.6 6.6 0 0 0-3.25.83c-1 .56-1.92 1.31-2.77 2.27V93h-3.94V70.71h2.35c.56 0 .9.28 1.04.82l.3 2.42zm57.7 3.3c0 2.36-.37 4.5-1.11 6.44a14.3 14.3 0 0 1-3.17 4.98 14.1 14.1 0 0 1-4.93 3.2c-1.9.76-4.02 1.13-6.33 1.13H85.8V61.47h11.77c2.31 0 4.42.39 6.33 1.15a13.8 13.8 0 0 1 8.1 8.18 17.75 17.75 0 0 1 1.12 6.45zm-4.37 0c0-1.94-.26-3.67-.8-5.2a10.94 10.94 0 0 0-2.23-3.87 9.57 9.57 0 0 0-3.53-2.42 12.23 12.23 0 0 0-4.61-.83h-7.5v24.62h7.5c1.7 0 3.24-.28 4.61-.84a9.7 9.7 0 0 0 3.53-2.4 10.94 10.94 0 0 0 2.24-3.87c.53-1.53.8-3.26.8-5.2zm19.8 5.72c-1.8.06-3.34.2-4.62.44-1.26.22-2.3.51-3.1.88-.8.36-1.37.8-1.74 1.3-.35.5-.53 1.05-.53 1.67 0 .58.1 1.1.3 1.52a3 3 0 0 0 .76 1.05c.34.27.73.46 1.17.6a6.13 6.13 0 0 0 1.45.17 7.28 7.28 0 0 0 3.5-.81 11.95 11.95 0 0 0 2.82-2.2v-4.62zm-12.65-9.11a12.73 12.73 0 0 1 3.98-2.66c1.43-.59 3-.88 4.73-.88 1.25 0 2.36.2 3.33.61a6.81 6.81 0 0 1 3.94 4.38c.33 1.04.5 2.19.5 3.43V93h-1.74a1.8 1.8 0 0 1-.88-.18c-.2-.13-.36-.38-.48-.74l-.44-2.12-1.72 1.46a9.48 9.48 0 0 1-3.74 1.7c-.69.15-1.46.23-2.3.23-.87 0-1.69-.12-2.45-.35a5.34 5.34 0 0 1-3.34-2.93 6.64 6.64 0 0 1-.49-2.64c0-.88.25-1.72.73-2.53a6.33 6.33 0 0 1 2.35-2.17c1.09-.63 2.5-1.15 4.25-1.54 1.75-.41 3.89-.65 6.42-.7v-1.75c0-1.73-.37-3.03-1.12-3.91-.75-.9-1.84-1.34-3.28-1.34-.97 0-1.78.12-2.44.37-.64.23-1.2.5-1.7.81l-1.23.82c-.33.23-.67.35-1 .35-.27 0-.5-.07-.69-.2a2.1 2.1 0 0 1-.48-.53l-.7-1.25zm27.67 19.5c-1.76 0-3.12-.5-4.07-1.48-.94-.98-1.41-2.4-1.41-4.25V74h-2.68a.9.9 0 0 1-.6-.2c-.16-.14-.24-.36-.24-.66v-1.56l3.65-.46.9-6.89a.9.9 0 0 1 .29-.52.88.88 0 0 1 .62-.22H142v7.67h6.44V74H142v13.38c0 .94.22 1.63.68 2.09.45.45 1.04.68 1.76.68a3.21 3.21 0 0 0 1.85-.53l.55-.35c.16-.12.3-.18.41-.18.2 0 .4.13.55.38l1.15 1.87a7.45 7.45 0 0 1-2.44 1.5 8.53 8.53 0 0 1-2.95.52zm19.68-10.4c-1.8.07-3.34.21-4.62.45-1.26.22-2.3.51-3.1.88-.8.36-1.37.8-1.74 1.3-.35.5-.53 1.05-.53 1.67 0 .58.1 1.1.3 1.52a2.9 2.9 0 0 0 .76 1.05c.34.27.73.46 1.17.6a6.13 6.13 0 0 0 1.45.17 7.3 7.3 0 0 0 3.5-.81 12.04 12.04 0 0 0 2.82-2.2v-4.62zm-12.65-9.1a12.72 12.72 0 0 1 3.99-2.66c1.42-.59 3-.88 4.72-.88 1.25 0 2.36.2 3.33.61a6.81 6.81 0 0 1 3.94 4.38c.33 1.04.5 2.19.5 3.43V93h-1.74a1.8 1.8 0 0 1-.88-.18c-.2-.13-.36-.38-.48-.74l-.44-2.12-1.72 1.46a9.48 9.48 0 0 1-3.74 1.7c-.69.15-1.46.23-2.3.23-.87 0-1.69-.12-2.45-.35a5.33 5.33 0 0 1-3.34-2.93 6.62 6.62 0 0 1-.49-2.64c0-.88.25-1.72.73-2.53a6.33 6.33 0 0 1 2.35-2.17c1.09-.63 2.5-1.15 4.25-1.54a31.2 31.2 0 0 1 6.42-.7v-1.75c0-1.73-.37-3.03-1.12-3.91-.75-.9-1.84-1.34-3.28-1.34-.97 0-1.78.12-2.44.37-.64.23-1.2.5-1.7.81l-1.22.82c-.34.23-.68.35-1.02.35-.26 0-.49-.07-.68-.2a1.88 1.88 0 0 1-.48-.53l-.7-1.25zM40.98 32.25c0 2.36-.38 4.53-1.12 6.51a14.26 14.26 0 0 1-8.1 8.4c-1.9.78-4.02 1.17-6.34 1.17a16.6 16.6 0 0 1-6.33-1.17 14.31 14.31 0 0 1-8.08-8.4 18.29 18.29 0 0 1-1.12-6.51c0-2.36.38-4.53 1.12-6.5.75-1.97 1.8-3.67 3.17-5.1a14.32 14.32 0 0 1 4.9-3.34c1.92-.8 4.03-1.19 6.34-1.19 2.32 0 4.43.4 6.34 1.19 1.92.8 3.56 1.9 4.93 3.34a14.87 14.87 0 0 1 3.17 5.1 18.1 18.1 0 0 1 1.12 6.5zm-4.38 0c0-1.94-.26-3.68-.8-5.22a10.91 10.91 0 0 0-2.24-3.89 9.68 9.68 0 0 0-3.52-2.46 11.95 11.95 0 0 0-4.62-.86c-1.68 0-3.21.28-4.6.86a9.88 9.88 0 0 0-3.54 2.46 10.91 10.91 0 0 0-2.24 3.9c-.53 1.53-.8 3.27-.8 5.2 0 1.94.27 3.68.8 5.22a11.17 11.17 0 0 0 2.24 3.9 10.01 10.01 0 0 0 3.55 2.44c1.38.56 2.9.83 4.6.83s3.24-.27 4.61-.83a9.8 9.8 0 0 0 3.52-2.44 11.17 11.17 0 0 0 2.25-3.9c.53-1.54.8-3.28.8-5.21zm26.22-6.54V48H60.5c-.56 0-.9-.27-1.05-.81l-.31-2.4a12.45 12.45 0 0 1-3.26 2.6c-1.2.64-2.58.96-4.13.96-1.22 0-2.3-.2-3.24-.6a6.52 6.52 0 0 1-2.33-1.7 7.37 7.37 0 0 1-1.43-2.67c-.3-1.04-.46-2.2-.46-3.45V25.7h3.91v14.22c0 1.68.38 2.99 1.15 3.91.77.93 1.96 1.39 3.54 1.39 1.16 0 2.24-.27 3.23-.82a10.42 10.42 0 0 0 2.8-2.28V25.7h3.91zm8.61 4.47a9.94 9.94 0 0 1 2.6-3.56 5.64 5.64 0 0 1 3.76-1.3c.47 0 .92.05 1.34.15.44.1.83.27 1.17.49l-.3 2.92c-.09.37-.3.55-.66.55-.2 0-.5-.04-.9-.13a6.21 6.21 0 0 0-3.24.18 4.23 4.23 0 0 0-1.47.92c-.42.4-.81.9-1.17 1.5-.33.58-.64 1.26-.92 2.02V48H67.7V25.71h2.25c.42 0 .72.08.88.25.16.16.27.44.33.83l.26 3.39zm61.16-13.7L122.75 48h-3.82l-7.99-24.05a21.95 21.95 0 0 1-.42-1.58 38.36 38.36 0 0 1-.44 1.58L102.05 48h-3.83L88.4 16.47h3.54c.38 0 .7.1.95.29.26.2.43.43.5.73l6.52 21.9.28 1.28.29 1.46.3-1.46.38-1.27 7.41-21.91c.1-.25.26-.48.51-.69.27-.22.58-.33.95-.33h1.23c.38 0 .69.1.92.29a1.77 1.77 0 0 1 .53.73l7.4 21.9a28.4 28.4 0 0 1 .68 2.62 29.52 29.52 0 0 1 .52-2.61l6.54-21.91a1.31 1.31 0 0 1 .48-.7c.27-.21.58-.32.95-.32h3.32zm9.35 8.88c1.63 0 3.1.27 4.4.82a9.43 9.43 0 0 1 5.46 5.94c.5 1.4.74 2.98.74 4.73 0 1.76-.25 3.34-.74 4.75a9.43 9.43 0 0 1-5.46 5.92c-1.3.52-2.77.79-4.4.79-1.64 0-3.12-.27-4.44-.8a9.42 9.42 0 0 1-3.35-2.3c-.92-1-1.63-2.2-2.13-3.61-.49-1.41-.73-3-.73-4.75s.24-3.33.73-4.73c.5-1.43 1.2-2.64 2.13-3.63a9.4 9.4 0 0 1 3.35-2.31c1.32-.55 2.8-.82 4.44-.82zm0 19.89c2.2 0 3.84-.73 4.93-2.2 1.08-1.48 1.63-3.54 1.63-6.18 0-2.66-.55-4.72-1.63-6.2-1.09-1.49-2.73-2.23-4.93-2.23-1.12 0-2.09.2-2.93.57a5.71 5.71 0 0 0-2.06 1.65 7.5 7.5 0 0 0-1.24 2.67c-.26 1.04-.4 2.22-.4 3.54 0 2.64.55 4.7 1.64 6.18 1.1 1.47 2.76 2.2 4.99 2.2zm17.97-15.07a9.94 9.94 0 0 1 2.6-3.56 5.64 5.64 0 0 1 3.76-1.3c.47 0 .91.05 1.34.15.44.1.83.27 1.16.49l-.28 2.92c-.09.37-.31.55-.66.55-.2 0-.5-.04-.9-.13a6.2 6.2 0 0 0-3.24.18 4.23 4.23 0 0 0-1.47.92c-.43.4-.82.9-1.17 1.5a13.1 13.1 0 0 0-.92 2.02V48h-3.94V25.71h2.24c.43 0 .72.08.88.25.17.16.28.44.33.83l.27 3.39zm15.04-14.59V48h-3.92V15.6h3.92zm19.55 15.43a6.22 6.22 0 0 0-2.38-2.05 6.7 6.7 0 0 0-2.86-.6c-2.07 0-3.66.75-4.77 2.23-1.12 1.48-1.68 3.6-1.68 6.33 0 1.46.13 2.7.38 3.74a7.29 7.29 0 0 0 1.1 2.56 4.35 4.35 0 0 0 1.78 1.45c.7.3 1.5.46 2.4.46 1.29 0 2.41-.3 3.36-.88a9.6 9.6 0 0 0 2.67-2.49V31.02zm3.91-15.43V48h-2.33c-.56 0-.9-.27-1.06-.81l-.35-2.71a12.13 12.13 0 0 1-3.25 2.77 8.28 8.28 0 0 1-4.23 1.06 7.31 7.31 0 0 1-6.14-2.9c-.73-.96-1.3-2.15-1.69-3.57a18.35 18.35 0 0 1 .07-9.48 11.29 11.29 0 0 1 1.89-3.7 8.7 8.7 0 0 1 7.06-3.34 7.96 7.96 0 0 1 6.12 2.62V15.59h3.91zM46.61 70.71V93H42.7V70.71h3.91zm.84-7c0 .39-.08.75-.24 1.09a2.81 2.81 0 0 1-1.52 1.47 2.67 2.67 0 0 1-2.16 0 2.9 2.9 0 0 1-1.45-1.47 2.67 2.67 0 0 1 0-2.16c.15-.35.35-.65.6-.9.25-.27.53-.47.85-.62a2.67 2.67 0 0 1 2.16 0c.35.15.65.35.9.62.27.25.47.55.62.9.16.34.24.7.24 1.08zm7.97 10.24c.49-.54 1-1.04 1.54-1.48a9.85 9.85 0 0 1 3.66-1.84 8.96 8.96 0 0 1 5.43.35c.94.4 1.72.97 2.33 1.71a7.36 7.36 0 0 1 1.43 2.67c.32 1.04.49 2.19.49 3.45V93h-3.94V78.81c0-1.69-.4-3-1.17-3.92-.76-.93-1.93-1.4-3.5-1.4a6.6 6.6 0 0 0-3.25.83c-1 .56-1.92 1.31-2.77 2.27V93h-3.94V70.71h2.35c.56 0 .9.28 1.04.82l.3 2.42zm57.7 3.3c0 2.36-.37 4.5-1.11 6.44a14.3 14.3 0 0 1-3.17 4.98 14.1 14.1 0 0 1-4.93 3.2c-1.9.76-4.02 1.13-6.33 1.13H85.8V61.47h11.77c2.31 0 4.42.39 6.33 1.15a13.8 13.8 0 0 1 8.1 8.18 17.75 17.75 0 0 1 1.12 6.45zm-4.37 0c0-1.94-.26-3.67-.8-5.2a10.94 10.94 0 0 0-2.23-3.87 9.57 9.57 0 0 0-3.53-2.42 12.23 12.23 0 0 0-4.61-.83h-7.5v24.62h7.5c1.7 0 3.24-.28 4.61-.84a9.7 9.7 0 0 0 3.53-2.4 10.94 10.94 0 0 0 2.24-3.87c.53-1.53.8-3.26.8-5.2zm19.8 5.72c-1.8.06-3.34.2-4.62.44-1.26.22-2.3.51-3.1.88-.8.36-1.37.8-1.74 1.3-.35.5-.53 1.05-.53 1.67 0 .58.1 1.1.3 1.52a3 3 0 0 0 .76 1.05c.34.27.73.46 1.17.6a6.13 6.13 0 0 0 1.45.17 7.28 7.28 0 0 0 3.5-.81 11.95 11.95 0 0 0 2.82-2.2v-4.62zm-12.65-9.11a12.73 12.73 0 0 1 3.98-2.66c1.43-.59 3-.88 4.73-.88 1.25 0 2.36.2 3.33.61a6.81 6.81 0 0 1 3.94 4.38c.33 1.04.5 2.19.5 3.43V93h-1.74a1.8 1.8 0 0 1-.88-.18c-.2-.13-.36-.38-.48-.74l-.44-2.12-1.72 1.46a9.48 9.48 0 0 1-3.74 1.7c-.69.15-1.46.23-2.3.23-.87 0-1.69-.12-2.45-.35a5.34 5.34 0 0 1-3.34-2.93 6.64 6.64 0 0 1-.49-2.64c0-.88.25-1.72.73-2.53a6.33 6.33 0 0 1 2.35-2.17c1.09-.63 2.5-1.15 4.25-1.54 1.75-.41 3.89-.65 6.42-.7v-1.75c0-1.73-.37-3.03-1.12-3.91-.75-.9-1.84-1.34-3.28-1.34-.97 0-1.78.12-2.44.37-.64.23-1.2.5-1.7.81l-1.23.82c-.33.23-.67.35-1 .35-.27 0-.5-.07-.69-.2a2.1 2.1 0 0 1-.48-.53l-.7-1.25zm27.67 19.5c-1.76 0-3.12-.5-4.07-1.48-.94-.98-1.41-2.4-1.41-4.25V74h-2.68a.9.9 0 0 1-.6-.2c-.16-.14-.24-.36-.24-.66v-1.56l3.65-.46.9-6.89a.9.9 0 0 1 .29-.52.88.88 0 0 1 .62-.22H142v7.67h6.44V74H142v13.38c0 .94.22 1.63.68 2.09.45.45 1.04.68 1.76.68a3.21 3.21 0 0 0 1.85-.53l.55-.35c.16-.12.3-.18.41-.18.2 0 .4.13.55.38l1.15 1.87a7.45 7.45 0 0 1-2.44 1.5 8.53 8.53 0 0 1-2.95.52zm19.68-10.4c-1.8.07-3.34.21-4.62.45-1.26.22-2.3.51-3.1.88-.8.36-1.37.8-1.74 1.3-.35.5-.53 1.05-.53 1.67 0 .58.1 1.1.3 1.52a2.9 2.9 0 0 0 .76 1.05c.34.27.73.46 1.17.6a6.13 6.13 0 0 0 1.45.17 7.3 7.3 0 0 0 3.5-.81 12.04 12.04 0 0 0 2.82-2.2v-4.62zm-12.65-9.1a12.72 12.72 0 0 1 3.99-2.66c1.42-.59 3-.88 4.72-.88 1.25 0 2.36.2 3.33.61a6.81 6.81 0 0 1 3.94 4.38c.33 1.04.5 2.19.5 3.43V93h-1.74a1.8 1.8 0 0 1-.88-.18c-.2-.13-.36-.38-.48-.74l-.44-2.12-1.72 1.46a9.48 9.48 0 0 1-3.74 1.7c-.69.15-1.46.23-2.3.23-.87 0-1.69-.12-2.45-.35a5.33 5.33 0 0 1-3.34-2.93 6.62 6.62 0 0 1-.49-2.64c0-.88.25-1.72.73-2.53a6.33 6.33 0 0 1 2.35-2.17c1.09-.63 2.5-1.15 4.25-1.54a31.2 31.2 0 0 1 6.42-.7v-1.75c0-1.73-.37-3.03-1.12-3.91-.75-.9-1.84-1.34-3.28-1.34-.97 0-1.78.12-2.44.37-.64.23-1.2.5-1.7.81l-1.22.82c-.34.23-.68.35-1.02.35-.26 0-.49-.07-.68-.2a1.88 1.88 0 0 1-.48-.53l-.7-1.25z" fill="#fff"/><path fill="#D42B21" d="M0 106.79h210V120H0z"/></g><defs><clipPath id="a"><path fill="#fff" d="M0 0h210v120H0z"/></clipPath></defs></svg></g><a href="https://ourworldindata.org/grapher/distribution-deliberative-democracy-vdem" style="font-family:&quot;Playfair Display&quot;,Georgia,&quot;Times New Roman&quot;,serif" target="_blank" rel="noopener"><text font-size="25.2" x="15" y="35.2" fill="#555"><tspan x="15" y="35.16">Distribution of deliberative democracy, 2021</tspan></text></a><text font-size="14.4" x="15" y="55.7" fill="#666"><tspan x="15" y="55.72">Based on the expert assessments and index by V-Dem. It combines information on voting rights, the freedom and</tspan><tspan x="15" y="73">fairness of elections, freedoms of association and expression, as well as the extent to which citizens and leaders</tspan><tspan x="15" y="90.28">discuss different views and seek the public good. It ranges from 0 to 1 (most democratic).</tspan></text></g><g class="MarimekkoChart"><g class="DualAxisView"><g class="VerticalAxis"><text font-size="12.6" x="-371.2" y="25.1" transform="rotate(-90)"><tspan x="-371.2" y="25.08">Deliberative democracy</tspan></text><text x="60.28" y="471.2" dy=".32em" text-anchor="end" fill="#666" font-size="16.2">0</text><text x="60.28" y="404.8" dy=".32em" text-anchor="end" fill="#666" font-size="16.2">0.2</text><text x="60.28" y="338.4" dy=".32em" text-anchor="end" fill="#666" font-size="16.2">0.4</text><text x="60.28" y="272" dy=".32em" text-anchor="end" fill="#666" font-size="16.2">0.6</text><text x="60.28" y="205.7" dy=".32em" text-anchor="end" fill="#666" font-size="16.2">0.8</text><text x="60.28" y="139.3" dy=".32em" text-anchor="end" fill="#666" font-size="16.2">1</text></g><g class="AxisGridLines horizontalLines"><path stroke="#999" d="M65.28 471.2H825"/><path stroke="#ddd" stroke-dasharray="3,2" d="M65.28 404.8H825M65.28 338.4H825M65.28 272H825M65.28 205.7H825M65.28 139.3H825"/></g></g><g><g class="categoricalColorLegend"><g><path fill="#923E8B" opacity=".7" d="M15 107.8h13.5v13.5H15z"/>,<text x="33.5" y="114.55" dy=".32em" font-size="14.4">Africa</text></g><g><path fill="#5887A1" opacity=".7" d="M82.36 107.8h13.5v13.5h-13.5z"/>,<text x="100.86" y="114.55" dy=".32em" font-size="14.4">Asia</text></g><g><path fill="#2D8587" opacity=".7" d="M140.94 107.8h13.5v13.5h-13.5z"/>,<text x="159.44" y="114.55" dy=".32em" font-size="14.4">Europe</text></g><g><path fill="#4C5C78" opacity=".7" d="M218.1 107.8h13.5v13.5h-13.5z"/>,<text x="236.6" y="114.55" dy=".32em" font-size="14.4">North America</text></g><g><path fill="#E04E4B" opacity=".7" d="M340.76 107.8h13.5v13.5h-13.5z"/>,<text x="359.26" y="114.55" dy=".32em" font-size="14.4">Oceania</text></g><g><path fill="#A8633C" opacity=".7" d="M425.12 107.8h13.5v13.5h-13.5z"/>,<text x="443.62" y="114.55" dy=".32em" font-size="14.4">South America</text></g><g><path fill="#932834" opacity=".7" d="M550.37 107.8h13.5v13.5h-13.5z"/>,<text x="568.87" y="114.55" dy=".32em" font-size="14.4">World</text></g></g></g><g class="bar"><g><path transform="translate(65.3 181.8)" fill="#2D8587" fill-opacity=".7" stroke="#2D8587" stroke-width=".5" stroke-opacity="1" opacity="1" style="transition:translate 200ms ease" d="M0 0h4.1v289.4H0z"/></g></g><g class="bar"><g><path transform="translate(69.4 183.1)" fill="#2D8587" fill-opacity=".7" stroke="#2D8587" stroke-width=".5" stroke-opacity="1" opacity="1" style="transition:translate 200ms ease" d="M0 0h4.1v288.1H0z"/></g></g><g class="bar"><g><path transform="translate(73.5 188.1)" fill="#4C5C78" fill-opacity=".7" stroke="#4C5C78" stroke-width=".5" stroke-opacity="1" opacity="1" style="transition:translate 200ms ease" d="M0 0h4.1v283.1H0z"/></g></g><g class="bar"><g><path transform="translate(77.6 190.4)" fill="#2D8587" fill-opacity=".7" stroke="#2D8587" stroke-width=".5" stroke-opacity="1" opacity="1" style="transition:translate 200ms ease" d="M0 0h4.1v280.8H0z"/></g></g><g class="bar"><g><path transform="translate(81.7 191.7)" fill="#2D8587" fill-opacity=".7" stroke="#2D8587" stroke-width=".5" stroke-opacity="1" opacity="1" style="transition:translate 200ms ease" d="M0 0h4.1v279.5H0z"/></g></g><g class="bar"><g><path transform="translate(85.8 193.4)" fill="#2D8587" fill-opacity=".7" stroke="#2D8587" stroke-width=".5" stroke-opacity="1" opacity="1" style="transition:translate 200ms ease" d="M0 0h4.1v277.8H0z"/></g></g><g class="bar"><g><path transform="translate(89.9 194.7)" fill="#2D8587" fill-opacity=".7" stroke="#2D8587" stroke-width=".5" stroke-opacity="1" opacity="1" style="transition:translate 200ms ease" d="M0 0h4.1v276.5H0z"/></g></g><g class="bar"><g><path transform="translate(94 197)" fill="#2D8587" fill-opacity=".7" stroke="#2D8587" stroke-width=".5" stroke-opacity="1" opacity="1" style="transition:translate 200ms ease" d="M0 0h4.1v274.2H0z"/></g></g><g class="bar"><g><path transform="translate(98.1 198)" fill="#2D8587" fill-opacity=".7" stroke="#2D8587" stroke-width=".5" stroke-opacity="1" opacity="1" style="transition:translate 200ms ease" d="M0 0h4.1v273.2H0z"/></g></g><g class="bar"><g><path transform="translate(102.2 201)" fill="#2D8587" fill-opacity=".7" stroke="#2D8587" stroke-width=".5" stroke-opacity="1" opacity="1" style="transition:translate 200ms ease" d="M0 0h4.1v270.2H0z"/></g></g><g class="bar"><g><path transform="translate(106.3 206.3)" fill="#2D8587" fill-opacity=".7" stroke="#2D8587" stroke-width=".5" stroke-opacity="1" opacity="1" style="transition:translate 200ms ease" d="M0 0h4.1v264.9H0z"/></g></g><g class="bar"><g><path transform="translate(110.4 207)" fill="#2D8587" fill-opacity=".7" stroke="#2D8587" stroke-width=".5" stroke-opacity="1" opacity="1" style="transition:translate 200ms ease" d="M0 0h4.1v264.2H0z"/></g></g><g class="bar"><g><path transform="translate(114.5 208.7)" fill="#5887A1" fill-opacity=".7" stroke="#5887A1" stroke-width=".5" stroke-opacity="1" opacity="1" style="transition:translate 200ms ease" d="M0 0h4.1v262.5H0z"/></g></g><g class="bar"><g><path transform="translate(118.6 213.3)" fill="#2D8587" fill-opacity=".7" stroke="#2D8587" stroke-width=".5" stroke-opacity="1" opacity="1" style="transition:translate 200ms ease" d="M0 0h4.1v257.9H0z"/></g></g><g class="bar"><g><path transform="translate(122.7 214.3)" fill="#2D8587" fill-opacity=".7" stroke="#2D8587" stroke-width=".5" stroke-opacity="1" opacity="1" style="transition:translate 200ms ease" d="M0 0h4.1v256.9H0z"/></g></g><g class="bar"><g><path transform="translate(126.8 214.6)" fill="#2D8587" fill-opacity=".7" stroke="#2D8587" stroke-width=".5" stroke-opacity="1" opacity="1" style="transition:translate 200ms ease" d="M0 0h4.1v256.6H0z"/></g></g><g class="bar"><g><path transform="translate(130.9 214.6)" fill="#E04E4B" fill-opacity=".7" stroke="#E04E4B" stroke-width=".5" stroke-opacity="1" opacity="1" style="transition:translate 200ms ease" d="M0 0h4.1v256.6H0z"/></g></g><g class="bar"><g><path transform="translate(135 216.3)" fill="#2D8587" fill-opacity=".7" stroke="#2D8587" stroke-width=".5" stroke-opacity="1" opacity="1" style="transition:translate 200ms ease" d="M0 0h4.1v254.9H0z"/></g></g><g class="bar"><g><path transform="translate(139.1 217.3)" fill="#E04E4B" fill-opacity=".7" stroke="#E04E4B" stroke-width=".5" stroke-opacity="1" opacity="1" style="transition:translate 200ms ease" d="M0 0h4.1v253.9H0z"/></g></g><g class="bar"><g><path transform="translate(143.2 220.6)" fill="#5887A1" fill-opacity=".7" stroke="#5887A1" stroke-width=".5" stroke-opacity="1" opacity="1" style="transition:translate 200ms ease" d="M0 0h4.1v250.6H0z"/></g></g><g class="bar"><g><path transform="translate(147.3 220.6)" fill="#2D8587" fill-opacity=".7" stroke="#2D8587" stroke-width=".5" stroke-opacity="1" opacity="1" style="transition:translate 200ms ease" d="M0 0h4.1v250.6H0z"/></g></g><g class="bar"><g><path transform="translate(151.4 221.3)" fill="#2D8587" fill-opacity=".7" stroke="#2D8587" stroke-width=".5" stroke-opacity="1" opacity="1" style="transition:translate 200ms ease" d="M0 0h4.1v249.9H0z"/></g></g><g class="bar"><g><path transform="translate(155.5 223.3)" fill="#A8633C" fill-opacity=".7" stroke="#A8633C" stroke-width=".5" stroke-opacity="1" opacity="1" style="transition:translate 200ms ease" d="M0 0h4.1v247.9H0z"/></g></g><g class="bar"><g><path transform="translate(159.6 227.6)" fill="#4C5C78" fill-opacity=".7" stroke="#4C5C78" stroke-width=".5" stroke-opacity="1" opacity="1" style="transition:translate 200ms ease" d="M0 0h4.1v243.6H0z"/></g></g><g class="bar"><g><path transform="translate(163.7 231.2)" fill="#5887A1" fill-opacity=".7" stroke="#5887A1" stroke-width=".5" stroke-opacity="1" opacity="1" style="transition:translate 200ms ease" d="M0 0h4.1v240H0z"/></g></g><g class="bar"><g><path transform="translate(167.8 234.2)" fill="#A8633C" fill-opacity=".7" stroke="#A8633C" stroke-width=".5" stroke-opacity="1" opacity="1" style="transition:translate 200ms ease" d="M0 0h4.1v237H0z"/></g></g><g class="bar"><g><path transform="translate(171.9 237.9)" fill="#4C5C78" fill-opacity=".7" stroke="#4C5C78" stroke-width=".5" stroke-opacity="1" opacity="1" style="transition:translate 200ms ease" d="M0 0h4.1v233.3H0z"/></g></g><g class="bar"><g><path transform="translate(176 240.5)" fill="#2D8587" fill-opacity=".7" stroke="#2D8587" stroke-width=".5" stroke-opacity="1" opacity="1" style="transition:translate 200ms ease" d="M0 0h4.1v230.7H0z"/></g></g><g class="bar"><g><path transform="translate(180.1 242.8)" fill="#2D8587" fill-opacity=".7" stroke="#2D8587" stroke-width=".5" stroke-opacity="1" opacity="1" style="transition:translate 200ms ease" d="M0 0h4.1v228.4H0z"/></g></g><g class="bar"><g><path transform="translate(184.2 244.5)" fill="#2D8587" fill-opacity=".7" stroke="#2D8587" stroke-width=".5" stroke-opacity="1" opacity="1" style="transition:translate 200ms ease" d="M0 0h4.1v226.7H0z"/></g></g><g class="bar"><g><path transform="translate(188.3 245.5)" fill="#4C5C78" fill-opacity=".7" stroke="#4C5C78" stroke-width=".5" stroke-opacity="1" opacity="1" style="transition:translate 200ms ease" d="M0 0h4.1v225.7H0z"/></g></g><g class="bar"><g><path transform="translate(192.4 246.5)" fill="#A8633C" fill-opacity=".7" stroke="#A8633C" stroke-width=".5" stroke-opacity="1" opacity="1" style="transition:translate 200ms ease" d="M0 0h4.1v224.7H0z"/></g></g><g class="bar"><g><path transform="translate(196.5 248.2)" fill="#2D8587" fill-opacity=".7" stroke="#2D8587" stroke-width=".5" stroke-opacity="1" opacity="1" style="transition:translate 200ms ease" d="M0 0h4.1v223H0z"/></g></g><g class="bar"><g><path transform="translate(200.6 253.1)" fill="#2D8587" fill-opacity=".7" stroke="#2D8587" stroke-width=".5" stroke-opacity="1" opacity="1" style="transition:translate 200ms ease" d="M0 0h4.1v218.1H0z"/></g></g><g class="bar"><g><path transform="translate(204.7 254.1)" fill="#4C5C78" fill-opacity=".7" stroke="#4C5C78" stroke-width=".5" stroke-opacity="1" opacity="1" style="transition:translate 200ms ease" d="M0 0h4.1v217.1H0z"/></g></g><g class="bar"><g><path transform="translate(208.8 255.5)" fill="#4C5C78" fill-opacity=".7" stroke="#4C5C78" stroke-width=".5" stroke-opacity="1" opacity="1" style="transition:translate 200ms ease" d="M0 0h4.1v215.7H0z"/></g></g><g class="bar"><g><path transform="translate(212.9 256.5)" fill="#2D8587" fill-opacity=".7" stroke="#2D8587" stroke-width=".5" stroke-opacity="1" opacity="1" style="transition:translate 200ms ease" d="M0 0h4.1v214.7H0z"/></g></g><g class="bar"><g><path transform="translate(217 259.4)" fill="#923E8B" fill-opacity=".7" stroke="#923E8B" stroke-width=".5" stroke-opacity="1" opacity="1" style="transition:translate 200ms ease" d="M0 0h4.1v211.8H0z"/></g></g><g class="bar"><g><path transform="translate(221.1 260.8)" fill="#4C5C78" fill-opacity=".7" stroke="#4C5C78" stroke-width=".5" stroke-opacity="1" opacity="1" style="transition:translate 200ms ease" d="M0 0h4.1v210.4H0z"/></g></g><g class="bar"><g><path transform="translate(225.2 261.1)" fill="#2D8587" fill-opacity=".7" stroke="#2D8587" stroke-width=".5" stroke-opacity="1" opacity="1" style="transition:translate 200ms ease" d="M0 0h4.1v210.1H0z"/></g></g><g class="bar"><g><path transform="translate(229.3 264.4)" fill="#2D8587" fill-opacity=".7" stroke="#2D8587" stroke-width=".5" stroke-opacity="1" opacity="1" style="transition:translate 200ms ease" d="M0 0h4.1v206.8H0z"/></g></g><g class="bar"><g><path transform="translate(233.4 269.3)" fill="#932834" fill-opacity=".7" stroke="#932834" stroke-width=".5" stroke-opacity="1" opacity="1" style="transition:translate 200ms ease" d="M0 0h4.1v201.9H0z"/></g></g><g class="bar"><g><path transform="translate(237.5 269.7)" fill="#E04E4B" fill-opacity=".7" stroke="#E04E4B" stroke-width=".5" stroke-opacity="1" opacity="1" style="transition:translate 200ms ease" d="M0 0h4.1v201.5H0z"/></g></g><g class="bar"><g><path transform="translate(241.6 272.4)" fill="#923E8B" fill-opacity=".7" stroke="#923E8B" stroke-width=".5" stroke-opacity="1" opacity="1" style="transition:translate 200ms ease" d="M0 0h4.1v198.8H0z"/></g></g><g class="bar"><g><path transform="translate(245.7 272.7)" fill="#A8633C" fill-opacity=".7" stroke="#A8633C" stroke-width=".5" stroke-opacity="1" opacity="1" style="transition:translate 200ms ease" d="M0 0h4.1v198.5H0z"/></g></g><g class="bar"><g><path transform="translate(249.8 272.7)" fill="#2D8587" fill-opacity=".7" stroke="#2D8587" stroke-width=".5" stroke-opacity="1" opacity="1" style="transition:translate 200ms ease" d="M0 0h4.1v198.5H0z"/></g></g><g class="bar"><g><path transform="translate(253.9 275.4)" fill="#5887A1" fill-opacity=".7" stroke="#5887A1" stroke-width=".5" stroke-opacity="1" opacity="1" style="transition:translate 200ms ease" d="M0 0h4.1v195.8H0z"/></g></g><g class="bar"><g><path transform="translate(258 277)" fill="#923E8B" fill-opacity=".7" stroke="#923E8B" stroke-width=".5" stroke-opacity="1" opacity="1" style="transition:translate 200ms ease" d="M0 0h4.1v194.2H0z"/></g></g><g class="bar"><g><path transform="translate(262.1 277.7)" fill="#4C5C78" fill-opacity=".7" stroke="#4C5C78" stroke-width=".5" stroke-opacity="1" opacity="1" style="transition:translate 200ms ease" d="M0 0h4.1v193.5H0z"/></g></g><g class="bar"><g><path transform="translate(266.2 279.3)" fill="#A8633C" fill-opacity=".7" stroke="#A8633C" stroke-width=".5" stroke-opacity="1" opacity="1" style="transition:translate 200ms ease" d="M0 0h4.1v191.9H0z"/></g></g><g class="bar"><g><path transform="translate(270.3 283.7)" fill="#5887A1" fill-opacity=".7" stroke="#5887A1" stroke-width=".5" stroke-opacity="1" opacity="1" style="transition:translate 200ms ease" d="M0 0h4.1v187.5H0z"/></g></g><g class="bar"><g><path transform="translate(274.4 285)" fill="#923E8B" fill-opacity=".7" stroke="#923E8B" stroke-width=".5" stroke-opacity="1" opacity="1" style="transition:translate 200ms ease" d="M0 0h4.1v186.2H0z"/></g></g><g class="bar"><g><path transform="translate(278.5 288)" fill="#2D8587" fill-opacity=".7" stroke="#2D8587" stroke-width=".5" stroke-opacity="1" opacity="1" style="transition:translate 200ms ease" d="M0 0h4.1v183.2H0z"/></g></g><g class="bar"><g><path transform="translate(282.6 288.6)" fill="#923E8B" fill-opacity=".7" stroke="#923E8B" stroke-width=".5" stroke-opacity="1" opacity="1" style="transition:translate 200ms ease" d="M0 0h4.1v182.6H0z"/></g></g><g class="bar"><g><path transform="translate(286.7 288.6)" fill="#2D8587" fill-opacity=".7" stroke="#2D8587" stroke-width=".5" stroke-opacity="1" opacity="1" style="transition:translate 200ms ease" d="M0 0h4.1v182.6H0z"/></g></g><g class="bar"><g><path transform="translate(290.8 293.6)" fill="#5887A1" fill-opacity=".7" stroke="#5887A1" stroke-width=".5" stroke-opacity="1" opacity="1" style="transition:translate 200ms ease" d="M0 0h4.1v177.6H0z"/></g></g><g class="bar"><g><path transform="translate(294.9 294)" fill="#923E8B" fill-opacity=".7" stroke="#923E8B" stroke-width=".5" stroke-opacity="1" opacity="1" style="transition:translate 200ms ease" d="M0 0h4.1v177.2H0z"/></g></g><g class="bar"><g><path transform="translate(299 296.9)" fill="#923E8B" fill-opacity=".7" stroke="#923E8B" stroke-width=".5" stroke-opacity="1" opacity="1" style="transition:translate 200ms ease" d="M0 0h4.1v174.3H0z"/></g></g><g class="bar"><g><path transform="translate(303.1 298.3)" fill="#923E8B" fill-opacity=".7" stroke="#923E8B" stroke-width=".5" stroke-opacity="1" opacity="1" style="transition:translate 200ms ease" d="M0 0h4.1v172.9H0z"/></g></g><g class="bar"><g><path transform="translate(307.2 300.3)" fill="#923E8B" fill-opacity=".7" stroke="#923E8B" stroke-width=".5" stroke-opacity="1" opacity="1" style="transition:translate 200ms ease" d="M0 0h4.1v170.9H0z"/></g></g><g class="bar"><g><path transform="translate(311.3 300.6)" fill="#923E8B" fill-opacity=".7" stroke="#923E8B" stroke-width=".5" stroke-opacity="1" opacity="1" style="transition:translate 200ms ease" d="M0 0h4.1v170.6H0z"/></g></g><g class="bar"><g><path transform="translate(315.4 300.6)" fill="#5887A1" fill-opacity=".7" stroke="#5887A1" stroke-width=".5" stroke-opacity="1" opacity="1" style="transition:translate 200ms ease" d="M0 0h4.1v170.6H0z"/></g></g><g class="bar"><g><path transform="translate(319.5 300.9)" fill="#A8633C" fill-opacity=".7" stroke="#A8633C" stroke-width=".5" stroke-opacity="1" opacity="1" style="transition:translate 200ms ease" d="M0 0h4.1v170.3H0z"/></g></g><g class="bar"><g><path transform="translate(323.6 301.1)" fill="#932834" fill-opacity=".7" stroke="#932834" stroke-width=".5" stroke-opacity="1" opacity="1" style="transition:translate 200ms ease" d="M0 0h4.1v170.1H0z"/></g></g><g class="bar"><g><path transform="translate(327.7 302.9)" fill="#5887A1" fill-opacity=".7" stroke="#5887A1" stroke-width=".5" stroke-opacity="1" opacity="1" style="transition:translate 200ms ease" d="M0 0h4.1v168.3H0z"/></g></g><g class="bar"><g><path transform="translate(331.8 305.9)" fill="#923E8B" fill-opacity=".7" stroke="#923E8B" stroke-width=".5" stroke-opacity="1" opacity="1" style="transition:translate 200ms ease" d="M0 0h4.1v165.3H0z"/></g></g><g class="bar"><g><path transform="translate(335.9 308.2)" fill="#2D8587" fill-opacity=".7" stroke="#2D8587" stroke-width=".5" stroke-opacity="1" opacity="1" style="transition:translate 200ms ease" d="M0 0h4.1v163H0z"/></g></g><g class="bar"><g><path transform="translate(340 308.9)" fill="#923E8B" fill-opacity=".7" stroke="#923E8B" stroke-width=".5" stroke-opacity="1" opacity="1" style="transition:translate 200ms ease" d="M0 0h4.1v162.3H0z"/></g></g><g class="bar"><g><path transform="translate(344.1 312.5)" fill="#5887A1" fill-opacity=".7" stroke="#5887A1" stroke-width=".5" stroke-opacity="1" opacity="1" style="transition:translate 200ms ease" d="M0 0h4.1v158.7H0z"/></g></g><g class="bar"><g><path transform="translate(348.2 312.9)" fill="#2D8587" fill-opacity=".7" stroke="#2D8587" stroke-width=".5" stroke-opacity="1" opacity="1" style="transition:translate 200ms ease" d="M0 0h4.1v158.3H0z"/></g></g><g class="bar"><g><path transform="translate(352.3 313.1)" fill="#932834" fill-opacity=".7" stroke="#932834" stroke-width=".5" stroke-opacity="1" opacity="1" style="transition:translate 200ms ease" d="M0 0h4.1v158.1H0z"/></g></g><g class="bar"><g><path transform="translate(356.4 314.2)" fill="#923E8B" fill-opacity=".7" stroke="#923E8B" stroke-width=".5" stroke-opacity="1" opacity="1" style="transition:translate 200ms ease" d="M0 0h4.1v157H0z"/></g></g><g class="bar"><g><path transform="translate(360.5 314.5)" fill="#5887A1" fill-opacity=".7" stroke="#5887A1" stroke-width=".5" stroke-opacity="1" opacity="1" style="transition:translate 200ms ease" d="M0 0h4.1v156.7H0z"/></g></g><g class="bar"><g><path transform="translate(364.6 315.5)" fill="#932834" fill-opacity=".7" stroke="#932834" stroke-width=".5" stroke-opacity="1" opacity="1" style="transition:translate 200ms ease" d="M0 0h4.1v155.7H0z"/></g></g><g class="bar"><g><path transform="translate(368.7 315.5)" fill="#923E8B" fill-opacity=".7" stroke="#923E8B" stroke-width=".5" stroke-opacity="1" opacity="1" style="transition:translate 200ms ease" d="M0 0h4.1v155.7H0z"/></g></g><g class="bar"><g><path transform="translate(372.8 321.2)" fill="#923E8B" fill-opacity=".7" stroke="#923E8B" stroke-width=".5" stroke-opacity="1" opacity="1" style="transition:translate 200ms ease" d="M0 0h4.1v150H0z"/></g></g><g class="bar"><g><path transform="translate(376.9 324.5)" fill="#5887A1" fill-opacity=".7" stroke="#5887A1" stroke-width=".5" stroke-opacity="1" opacity="1" style="transition:translate 200ms ease" d="M0 0h4.1v146.7H0z"/></g></g><g class="bar"><g><path transform="translate(381 327.8)" fill="#923E8B" fill-opacity=".7" stroke="#923E8B" stroke-width=".5" stroke-opacity="1" opacity="1" style="transition:translate 200ms ease" d="M0 0h4.1v143.4H0z"/></g></g><g class="bar"><g><path transform="translate(385.1 328.5)" fill="#2D8587" fill-opacity=".7" stroke="#2D8587" stroke-width=".5" stroke-opacity="1" opacity="1" style="transition:translate 200ms ease" d="M0 0h4.1v142.7H0z"/></g></g><g class="bar"><g><path transform="translate(389.2 329.1)" fill="#2D8587" fill-opacity=".7" stroke="#2D8587" stroke-width=".5" stroke-opacity="1" opacity="1" style="transition:translate 200ms ease" d="M0 0h4.1v142.1H0z"/></g></g><g class="bar"><g><path transform="translate(393.3 331.1)" fill="#A8633C" fill-opacity=".7" stroke="#A8633C" stroke-width=".5" stroke-opacity="1" opacity="1" style="transition:translate 200ms ease" d="M0 0h4.1v140.1H0z"/></g></g><g class="bar"><g><path transform="translate(397.4 332.1)" fill="#A8633C" fill-opacity=".7" stroke="#A8633C" stroke-width=".5" stroke-opacity="1" opacity="1" style="transition:translate 200ms ease" d="M0 0h4.1v139.1H0z"/></g></g><g class="bar"><g><path transform="translate(401.5 333.4)" fill="#2D8587" fill-opacity=".7" stroke="#2D8587" stroke-width=".5" stroke-opacity="1" opacity="1" style="transition:translate 200ms ease" d="M0 0h4.1v137.8H0z"/></g></g><g class="bar"><g><path transform="translate(405.6 333.4)" fill="#2D8587" fill-opacity=".7" stroke="#2D8587" stroke-width=".5" stroke-opacity="1" opacity="1" style="transition:translate 200ms ease" d="M0 0h4.1v137.8H0z"/></g></g><g class="bar"><g><path transform="translate(409.7 337.4)" fill="#A8633C" fill-opacity=".7" stroke="#A8633C" stroke-width=".5" stroke-opacity="1" opacity="1" style="transition:translate 200ms ease" d="M0 0h4.1v133.8H0z"/></g></g><g class="bar"><g><path transform="translate(413.8 339.4)" fill="#923E8B" fill-opacity=".7" stroke="#923E8B" stroke-width=".5" stroke-opacity="1" opacity="1" style="transition:translate 200ms ease" d="M0 0h4.1v131.8H0z"/></g></g><g class="bar"><g><path transform="translate(417.9 341.7)" fill="#932834" fill-opacity=".7" stroke="#932834" stroke-width=".5" stroke-opacity="1" opacity="1" style="transition:translate 200ms ease" d="M0 0h4.1v129.5H0z"/></g></g><g class="bar"><g><path transform="translate(422 345.1)" fill="#923E8B" fill-opacity=".7" stroke="#923E8B" stroke-width=".5" stroke-opacity="1" opacity="1" style="transition:translate 200ms ease" d="M0 0h4.1v126.1H0z"/></g></g><g class="bar"><g><path transform="translate(426.1 345.4)" fill="#4C5C78" fill-opacity=".7" stroke="#4C5C78" stroke-width=".5" stroke-opacity="1" opacity="1" style="transition:translate 200ms ease" d="M0 0h4.1v125.8H0z"/></g></g><g class="bar"><g><path transform="translate(430.2 348)" fill="#E04E4B" fill-opacity=".7" stroke="#E04E4B" stroke-width=".5" stroke-opacity="1" opacity="1" style="transition:translate 200ms ease" d="M0 0h4.1v123.2H0z"/></g></g><g class="bar"><g><path transform="translate(434.3 348.4)" fill="#5887A1" fill-opacity=".7" stroke="#5887A1" stroke-width=".5" stroke-opacity="1" opacity="1" style="transition:translate 200ms ease" d="M0 0h4.1v122.8H0z"/></g></g><g class="bar"><g><path transform="translate(438.4 352)" fill="#5887A1" fill-opacity=".7" stroke="#5887A1" stroke-width=".5" stroke-opacity="1" opacity="1" style="transition:translate 200ms ease" d="M0 0h4.1v119.2H0z"/></g></g><g class="bar"><g><path transform="translate(442.5 354.7)" fill="#5887A1" fill-opacity=".7" stroke="#5887A1" stroke-width=".5" stroke-opacity="1" opacity="1" style="transition:translate 200ms ease" d="M0 0h4.1v116.5H0z"/></g></g><g class="bar"><g><path transform="translate(446.6 355)" fill="#5887A1" fill-opacity=".7" stroke="#5887A1" stroke-width=".5" stroke-opacity="1" opacity="1" style="transition:translate 200ms ease" d="M0 0h4.1v116.2H0z"/></g></g><g class="bar"><g><path transform="translate(450.7 356.3)" fill="#A8633C" fill-opacity=".7" stroke="#A8633C" stroke-width=".5" stroke-opacity="1" opacity="1" style="transition:translate 200ms ease" d="M0 0h4.1v114.9H0z"/></g></g><g class="bar"><g><path transform="translate(454.8 358)" fill="#5887A1" fill-opacity=".7" stroke="#5887A1" stroke-width=".5" stroke-opacity="1" opacity="1" style="transition:translate 200ms ease" d="M0 0h4.1v113.2H0z"/></g></g><g class="bar"><g><path transform="translate(458.9 358.3)" fill="#2D8587" fill-opacity=".7" stroke="#2D8587" stroke-width=".5" stroke-opacity="1" opacity="1" style="transition:translate 200ms ease" d="M0 0h4.1v112.9H0z"/></g></g><g class="bar"><g><path transform="translate(463 361.3)" fill="#2D8587" fill-opacity=".7" stroke="#2D8587" stroke-width=".5" stroke-opacity="1" opacity="1" style="transition:translate 200ms ease" d="M0 0h4.1v109.9H0z"/></g></g><g class="bar"><g><path transform="translate(467.1 365.6)" fill="#923E8B" fill-opacity=".7" stroke="#923E8B" stroke-width=".5" stroke-opacity="1" opacity="1" style="transition:translate 200ms ease" d="M0 0h4.1v105.6H0z"/></g></g><g class="bar"><g><path transform="translate(471.2 365.6)" fill="#923E8B" fill-opacity=".7" stroke="#923E8B" stroke-width=".5" stroke-opacity="1" opacity="1" style="transition:translate 200ms ease" d="M0 0h4.1v105.6H0z"/></g></g><g class="bar"><g><path transform="translate(475.3 368)" fill="#923E8B" fill-opacity=".7" stroke="#923E8B" stroke-width=".5" stroke-opacity="1" opacity="1" style="transition:translate 200ms ease" d="M0 0h4.1v103.2H0z"/></g></g><g class="bar"><g><path transform="translate(479.4 368.6)" fill="#5887A1" fill-opacity=".7" stroke="#5887A1" stroke-width=".5" stroke-opacity="1" opacity="1" style="transition:translate 200ms ease" d="M0 0h4.1v102.6H0z"/></g></g><g class="bar"><g><path transform="translate(483.5 370.3)" fill="#E04E4B" fill-opacity=".7" stroke="#E04E4B" stroke-width=".5" stroke-opacity="1" opacity="1" style="transition:translate 200ms ease" d="M0 0h4.1v100.9H0z"/></g></g><g class="bar"><g><path transform="translate(487.6 370.6)" fill="#5887A1" fill-opacity=".7" stroke="#5887A1" stroke-width=".5" stroke-opacity="1" opacity="1" style="transition:translate 200ms ease" d="M0 0h4.1v100.6H0z"/></g></g><g class="bar"><g><path transform="translate(491.7 371)" fill="#932834" fill-opacity=".7" stroke="#932834" stroke-width=".5" stroke-opacity="1" opacity="1" style="transition:translate 200ms ease" d="M0 0h4.1v100.2H0z"/></g></g><g class="bar"><g><path transform="translate(495.8 371.6)" fill="#923E8B" fill-opacity=".7" stroke="#923E8B" stroke-width=".5" stroke-opacity="1" opacity="1" style="transition:translate 200ms ease" d="M0 0h4.1v99.6H0z"/></g></g><g class="bar"><g><path transform="translate(499.9 372.3)" fill="#5887A1" fill-opacity=".7" stroke="#5887A1" stroke-width=".5" stroke-opacity="1" opacity="1" style="transition:translate 200ms ease" d="M0 0h4.1v98.9H0z"/></g></g><g class="bar"><g><path transform="translate(504 372.6)" fill="#923E8B" fill-opacity=".7" stroke="#923E8B" stroke-width=".5" stroke-opacity="1" opacity="1" style="transition:translate 200ms ease" d="M0 0h4.1v98.6H0z"/></g></g><g class="bar"><g><path transform="translate(508.1 373.6)" fill="#923E8B" fill-opacity=".7" stroke="#923E8B" stroke-width=".5" stroke-opacity="1" opacity="1" style="transition:translate 200ms ease" d="M0 0h4.1v97.6H0z"/></g></g><g class="bar"><g><path transform="translate(512.2 375.9)" fill="#923E8B" fill-opacity=".7" stroke="#923E8B" stroke-width=".5" stroke-opacity="1" opacity="1" style="transition:translate 200ms ease" d="M0 0h4.1v95.3H0z"/></g></g><g class="bar"><g><path transform="translate(516.3 376.9)" fill="#5887A1" fill-opacity=".7" stroke="#5887A1" stroke-width=".5" stroke-opacity="1" opacity="1" style="transition:translate 200ms ease" d="M0 0h4.1v94.3H0z"/></g></g><g class="bar"><g><path transform="translate(520.4 377.3)" fill="#923E8B" fill-opacity=".7" stroke="#923E8B" stroke-width=".5" stroke-opacity="1" opacity="1" style="transition:translate 200ms ease" d="M0 0h4.1v93.9H0z"/></g></g><g class="bar"><g><path transform="translate(524.5 379.9)" fill="#923E8B" fill-opacity=".7" stroke="#923E8B" stroke-width=".5" stroke-opacity="1" opacity="1" style="transition:translate 200ms ease" d="M0 0h4.1v91.3H0z"/></g></g><g class="bar"><g><path transform="translate(528.6 381.2)" fill="#923E8B" fill-opacity=".7" stroke="#923E8B" stroke-width=".5" stroke-opacity="1" opacity="1" style="transition:translate 200ms ease" d="M0 0h4.1v90H0z"/></g></g><g class="bar"><g><path transform="translate(532.7 381.6)" fill="#4C5C78" fill-opacity=".7" stroke="#4C5C78" stroke-width=".5" stroke-opacity="1" opacity="1" style="transition:translate 200ms ease" d="M0 0h4.1v89.6H0z"/></g></g><g class="bar"><g><path transform="translate(536.8 382.9)" fill="#4C5C78" fill-opacity=".7" stroke="#4C5C78" stroke-width=".5" stroke-opacity="1" opacity="1" style="transition:translate 200ms ease" d="M0 0h4.1v88.3H0z"/></g></g><g class="bar"><g><path transform="translate(540.9 383.6)" fill="#A8633C" fill-opacity=".7" stroke="#A8633C" stroke-width=".5" stroke-opacity="1" opacity="1" style="transition:translate 200ms ease" d="M0 0h4.1v87.6H0z"/></g></g><g class="bar"><g><path transform="translate(545 383.9)" fill="#2D8587" fill-opacity=".7" stroke="#2D8587" stroke-width=".5" stroke-opacity="1" opacity="1" style="transition:translate 200ms ease" d="M0 0h4.1v87.3H0z"/></g></g><g class="bar"><g><path transform="translate(549.1 385.9)" fill="#5887A1" fill-opacity=".7" stroke="#5887A1" stroke-width=".5" stroke-opacity="1" opacity="1" style="transition:translate 200ms ease" d="M0 0h4.1v85.3H0z"/></g></g><g class="bar"><g><path transform="translate(553.2 386.5)" fill="#923E8B" fill-opacity=".7" stroke="#923E8B" stroke-width=".5" stroke-opacity="1" opacity="1" style="transition:translate 200ms ease" d="M0 0h4.1v84.7H0z"/></g></g><g class="bar"><g><path transform="translate(557.3 386.9)" fill="#E04E4B" fill-opacity=".7" stroke="#E04E4B" stroke-width=".5" stroke-opacity="1" opacity="1" style="transition:translate 200ms ease" d="M0 0h4.1v84.3H0z"/></g></g><g class="bar"><g><path transform="translate(561.4 387.5)" fill="#923E8B" fill-opacity=".7" stroke="#923E8B" stroke-width=".5" stroke-opacity="1" opacity="1" style="transition:translate 200ms ease" d="M0 0h4.1v83.7H0z"/></g></g><g class="bar"><g><path transform="translate(565.5 387.5)" fill="#923E8B" fill-opacity=".7" stroke="#923E8B" stroke-width=".5" stroke-opacity="1" opacity="1" style="transition:translate 200ms ease" d="M0 0h4.1v83.7H0z"/></g></g><g class="bar"><g><path transform="translate(569.6 387.9)" fill="#923E8B" fill-opacity=".7" stroke="#923E8B" stroke-width=".5" stroke-opacity="1" opacity="1" style="transition:translate 200ms ease" d="M0 0h4.1v83.3H0z"/></g></g><g class="bar"><g><path transform="translate(573.7 388.5)" fill="#923E8B" fill-opacity=".7" stroke="#923E8B" stroke-width=".5" stroke-opacity="1" opacity="1" style="transition:translate 200ms ease" d="M0 0h4.1v82.7H0z"/></g></g><g class="bar"><g><path transform="translate(577.8 388.5)" fill="#4C5C78" fill-opacity=".7" stroke="#4C5C78" stroke-width=".5" stroke-opacity="1" opacity="1" style="transition:translate 200ms ease" d="M0 0h4.1v82.7H0z"/></g></g><g class="bar"><g><path transform="translate(581.9 388.7)" fill="#932834" fill-opacity=".7" stroke="#932834" stroke-width=".5" stroke-opacity="1" opacity="1" style="transition:translate 200ms ease" d="M0 0h4.1v82.5H0z"/></g></g><g class="bar"><g><path transform="translate(586 388.9)" fill="#923E8B" fill-opacity=".7" stroke="#923E8B" stroke-width=".5" stroke-opacity="1" opacity="1" style="transition:translate 200ms ease" d="M0 0h4.1v82.3H0z"/></g></g><g class="bar"><g><path transform="translate(590.1 389.9)" fill="#923E8B" fill-opacity=".7" stroke="#923E8B" stroke-width=".5" stroke-opacity="1" opacity="1" style="transition:translate 200ms ease" d="M0 0h4.1v81.3H0z"/></g></g><g class="bar"><g><path transform="translate(594.2 391.9)" fill="#923E8B" fill-opacity=".7" stroke="#923E8B" stroke-width=".5" stroke-opacity="1" opacity="1" style="transition:translate 200ms ease" d="M0 0h4.1v79.3H0z"/></g></g><g class="bar"><g><path transform="translate(598.3 392.2)" fill="#923E8B" fill-opacity=".7" stroke="#923E8B" stroke-width=".5" stroke-opacity="1" opacity="1" style="transition:translate 200ms ease" d="M0 0h4.1v79H0z"/></g></g><g class="bar"><g><path transform="translate(602.4 392.5)" fill="#923E8B" fill-opacity=".7" stroke="#923E8B" stroke-width=".5" stroke-opacity="1" opacity="1" style="transition:translate 200ms ease" d="M0 0h4.1v78.7H0z"/></g></g><g class="bar"><g><path transform="translate(606.5 392.8)" fill="#4C5C78" fill-opacity=".7" stroke="#4C5C78" stroke-width=".5" stroke-opacity="1" opacity="1" style="transition:translate 200ms ease" d="M0 0h4.1v78.4H0z"/></g></g><g class="bar"><g><path transform="translate(610.6 396.2)" fill="#2D8587" fill-opacity=".7" stroke="#2D8587" stroke-width=".5" stroke-opacity="1" opacity="1" style="transition:translate 200ms ease" d="M0 0h4.1v75H0z"/></g></g><g class="bar"><g><path transform="translate(614.7 399.5)" fill="#5887A1" fill-opacity=".7" stroke="#5887A1" stroke-width=".5" stroke-opacity="1" opacity="1" style="transition:translate 200ms ease" d="M0 0h4.1v71.7H0z"/></g></g><g class="bar"><g><path transform="translate(618.8 401.1)" fill="#5887A1" fill-opacity=".7" stroke="#5887A1" stroke-width=".5" stroke-opacity="1" opacity="1" style="transition:translate 200ms ease" d="M0 0h4.1v70.1H0z"/></g></g><g class="bar"><g><path transform="translate(622.9 401.8)" fill="#923E8B" fill-opacity=".7" stroke="#923E8B" stroke-width=".5" stroke-opacity="1" opacity="1" style="transition:translate 200ms ease" d="M0 0h4.1v69.4H0z"/></g></g><g class="bar"><g><path transform="translate(627 402.1)" fill="#923E8B" fill-opacity=".7" stroke="#923E8B" stroke-width=".5" stroke-opacity="1" opacity="1" style="transition:translate 200ms ease" d="M0 0h4.1v69.1H0z"/></g></g><g class="bar"><g><path transform="translate(631.1 404.8)" fill="#5887A1" fill-opacity=".7" stroke="#5887A1" stroke-width=".5" stroke-opacity="1" opacity="1" style="transition:translate 200ms ease" d="M0 0h4.1v66.4H0z"/></g></g><g class="bar"><g><path transform="translate(635.2 404.8)" fill="#923E8B" fill-opacity=".7" stroke="#923E8B" stroke-width=".5" stroke-opacity="1" opacity="1" style="transition:translate 200ms ease" d="M0 0h4.1v66.4H0z"/></g></g><g class="bar"><g><path transform="translate(639.3 405.1)" fill="#2D8587" fill-opacity=".7" stroke="#2D8587" stroke-width=".5" stroke-opacity="1" opacity="1" style="transition:translate 200ms ease" d="M0 0h4.1v66.1H0z"/></g></g><g class="bar"><g><path transform="translate(643.4 411.1)" fill="#5887A1" fill-opacity=".7" stroke="#5887A1" stroke-width=".5" stroke-opacity="1" opacity="1" style="transition:translate 200ms ease" d="M0 0h4.1v60.1H0z"/></g></g><g class="bar"><g><path transform="translate(647.5 413.4)" fill="#923E8B" fill-opacity=".7" stroke="#923E8B" stroke-width=".5" stroke-opacity="1" opacity="1" style="transition:translate 200ms ease" d="M0 0h4.1v57.8H0z"/></g></g><g class="bar"><g><path transform="translate(651.6 413.8)" fill="#923E8B" fill-opacity=".7" stroke="#923E8B" stroke-width=".5" stroke-opacity="1" opacity="1" style="transition:translate 200ms ease" d="M0 0h4.1v57.4H0z"/></g></g><g class="bar"><g><path transform="translate(655.7 414.8)" fill="#923E8B" fill-opacity=".7" stroke="#923E8B" stroke-width=".5" stroke-opacity="1" opacity="1" style="transition:translate 200ms ease" d="M0 0h4.1v56.4H0z"/></g></g><g class="bar"><g><path transform="translate(659.8 418.7)" fill="#923E8B" fill-opacity=".7" stroke="#923E8B" stroke-width=".5" stroke-opacity="1" opacity="1" style="transition:translate 200ms ease" d="M0 0h4.1v52.5H0z"/></g></g><g class="bar"><g><path transform="translate(663.9 423.4)" fill="#923E8B" fill-opacity=".7" stroke="#923E8B" stroke-width=".5" stroke-opacity="1" opacity="1" style="transition:translate 200ms ease" d="M0 0h4.1v47.8H0z"/></g></g><g class="bar"><g><path transform="translate(668 424)" fill="#5887A1" fill-opacity=".7" stroke="#5887A1" stroke-width=".5" stroke-opacity="1" opacity="1" style="transition:translate 200ms ease" d="M0 0h4.1v47.2H0z"/></g></g><g class="bar"><g><path transform="translate(672.1 424.7)" fill="#5887A1" fill-opacity=".7" stroke="#5887A1" stroke-width=".5" stroke-opacity="1" opacity="1" style="transition:translate 200ms ease" d="M0 0h4.1v46.5H0z"/></g></g><g class="bar"><g><path transform="translate(676.2 425.7)" fill="#923E8B" fill-opacity=".7" stroke="#923E8B" stroke-width=".5" stroke-opacity="1" opacity="1" style="transition:translate 200ms ease" d="M0 0h4.1v45.5H0z"/></g></g><g class="bar"><g><path transform="translate(680.3 426.7)" fill="#5887A1" fill-opacity=".7" stroke="#5887A1" stroke-width=".5" stroke-opacity="1" opacity="1" style="transition:translate 200ms ease" d="M0 0h4.1v44.5H0z"/></g></g><g class="bar"><g><path transform="translate(684.4 430)" fill="#923E8B" fill-opacity=".7" stroke="#923E8B" stroke-width=".5" stroke-opacity="1" opacity="1" style="transition:translate 200ms ease" d="M0 0h4.1v41.2H0z"/></g></g><g class="bar"><g><path transform="translate(688.5 431)" fill="#2D8587" fill-opacity=".7" stroke="#2D8587" stroke-width=".5" stroke-opacity="1" opacity="1" style="transition:translate 200ms ease" d="M0 0h4.1v40.2H0z"/></g></g><g class="bar"><g><path transform="translate(692.6 431.7)" fill="#5887A1" fill-opacity=".7" stroke="#5887A1" stroke-width=".5" stroke-opacity="1" opacity="1" style="transition:translate 200ms ease" d="M0 0h4.1v39.5H0z"/></g></g><g class="bar"><g><path transform="translate(696.7 432)" fill="#923E8B" fill-opacity=".7" stroke="#923E8B" stroke-width=".5" stroke-opacity="1" opacity="1" style="transition:translate 200ms ease" d="M0 0h4.1v39.2H0z"/></g></g><g class="bar"><g><path transform="translate(700.8 432.3)" fill="#923E8B" fill-opacity=".7" stroke="#923E8B" stroke-width=".5" stroke-opacity="1" opacity="1" style="transition:translate 200ms ease" d="M0 0h4.1v38.9H0z"/></g></g><g class="bar"><g><path transform="translate(704.9 433.7)" fill="#5887A1" fill-opacity=".7" stroke="#5887A1" stroke-width=".5" stroke-opacity="1" opacity="1" style="transition:translate 200ms ease" d="M0 0h4.1v37.5H0z"/></g></g><g class="bar"><g><path transform="translate(709 434)" fill="#923E8B" fill-opacity=".7" stroke="#923E8B" stroke-width=".5" stroke-opacity="1" opacity="1" style="transition:translate 200ms ease" d="M0 0h4.1v37.2H0z"/></g></g><g class="bar"><g><path transform="translate(713.1 435.3)" fill="#4C5C78" fill-opacity=".7" stroke="#4C5C78" stroke-width=".5" stroke-opacity="1" opacity="1" style="transition:translate 200ms ease" d="M0 0h4.1v35.9H0z"/></g></g><g class="bar"><g><path transform="translate(717.2 438.3)" fill="#5887A1" fill-opacity=".7" stroke="#5887A1" stroke-width=".5" stroke-opacity="1" opacity="1" style="transition:translate 200ms ease" d="M0 0h4.1v32.9H0z"/></g></g><g class="bar"><g><path transform="translate(721.3 439.3)" fill="#5887A1" fill-opacity=".7" stroke="#5887A1" stroke-width=".5" stroke-opacity="1" opacity="1" style="transition:translate 200ms ease" d="M0 0h4.1v31.9H0z"/></g></g><g class="bar"><g><path transform="translate(725.4 441.3)" fill="#923E8B" fill-opacity=".7" stroke="#923E8B" stroke-width=".5" stroke-opacity="1" opacity="1" style="transition:translate 200ms ease" d="M0 0h4.1v29.9H0z"/></g></g><g class="bar"><g><path transform="translate(729.5 442.3)" fill="#5887A1" fill-opacity=".7" stroke="#5887A1" stroke-width=".5" stroke-opacity="1" opacity="1" style="transition:translate 200ms ease" d="M0 0h4.1v28.9H0z"/></g></g><g class="bar"><g><path transform="translate(733.6 443.6)" fill="#5887A1" fill-opacity=".7" stroke="#5887A1" stroke-width=".5" stroke-opacity="1" opacity="1" style="transition:translate 200ms ease" d="M0 0h4.1v27.6H0z"/></g></g><g class="bar"><g><path transform="translate(737.7 446.6)" fill="#5887A1" fill-opacity=".7" stroke="#5887A1" stroke-width=".5" stroke-opacity="1" opacity="1" style="transition:translate 200ms ease" d="M0 0h4.1v24.6H0z"/></g></g><g class="bar"><g><path transform="translate(741.8 446.6)" fill="#923E8B" fill-opacity=".7" stroke="#923E8B" stroke-width=".5" stroke-opacity="1" opacity="1" style="transition:translate 200ms ease" d="M0 0h4.1v24.6H0z"/></g></g><g class="bar"><g><path transform="translate(745.9 447.9)" fill="#5887A1" fill-opacity=".7" stroke="#5887A1" stroke-width=".5" stroke-opacity="1" opacity="1" style="transition:translate 200ms ease" d="M0 0h4.1v23.3H0z"/></g></g><g class="bar"><g><path transform="translate(750 448.9)" fill="#923E8B" fill-opacity=".7" stroke="#923E8B" stroke-width=".5" stroke-opacity="1" opacity="1" style="transition:translate 200ms ease" d="M0 0h4.1v22.3H0z"/></g></g><g class="bar"><g><path transform="translate(754.1 448.9)" fill="#5887A1" fill-opacity=".7" stroke="#5887A1" stroke-width=".5" stroke-opacity="1" opacity="1" style="transition:translate 200ms ease" d="M0 0h4.1v22.3H0z"/></g></g><g class="bar"><g><path transform="translate(758.2 449.3)" fill="#5887A1" fill-opacity=".7" stroke="#5887A1" stroke-width=".5" stroke-opacity="1" opacity="1" style="transition:translate 200ms ease" d="M0 0h4.1v21.9H0z"/></g></g><g class="bar"><g><path transform="translate(762.3 449.3)" fill="#5887A1" fill-opacity=".7" stroke="#5887A1" stroke-width=".5" stroke-opacity="1" opacity="1" style="transition:translate 200ms ease" d="M0 0h4.1v21.9H0z"/></g></g><g class="bar"><g><path transform="translate(766.4 450.3)" fill="#5887A1" fill-opacity=".7" stroke="#5887A1" stroke-width=".5" stroke-opacity="1" opacity="1" style="transition:translate 200ms ease" d="M0 0h4.1v20.9H0z"/></g></g><g class="bar"><g><path transform="translate(770.5 450.3)" fill="#5887A1" fill-opacity=".7" stroke="#5887A1" stroke-width=".5" stroke-opacity="1" opacity="1" style="transition:translate 200ms ease" d="M0 0h4.1v20.9H0z"/></g></g><g class="bar"><g><path transform="translate(774.6 451.6)" fill="#5887A1" fill-opacity=".7" stroke="#5887A1" stroke-width=".5" stroke-opacity="1" opacity="1" style="transition:translate 200ms ease" d="M0 0h4.1v19.6H0z"/></g></g><g class="bar"><g><path transform="translate(778.7 452.3)" fill="#5887A1" fill-opacity=".7" stroke="#5887A1" stroke-width=".5" stroke-opacity="1" opacity="1" style="transition:translate 200ms ease" d="M0 0h4.1v18.9H0z"/></g></g><g class="bar"><g><path transform="translate(782.8 453.6)" fill="#2D8587" fill-opacity=".7" stroke="#2D8587" stroke-width=".5" stroke-opacity="1" opacity="1" style="transition:translate 200ms ease" d="M0 0h4.1v17.6H0z"/></g></g><g class="bar"><g><path transform="translate(786.9 455.2)" fill="#923E8B" fill-opacity=".7" stroke="#923E8B" stroke-width=".5" stroke-opacity="1" opacity="1" style="transition:translate 200ms ease" d="M0 0h4.1v16H0z"/></g></g><g class="bar"><g><path transform="translate(791 455.6)" fill="#5887A1" fill-opacity=".7" stroke="#5887A1" stroke-width=".5" stroke-opacity="1" opacity="1" style="transition:translate 200ms ease" d="M0 0h4.1v15.6H0z"/></g></g><g class="bar"><g><path transform="translate(795.1 457.2)" fill="#5887A1" fill-opacity=".7" stroke="#5887A1" stroke-width=".5" stroke-opacity="1" opacity="1" style="transition:translate 200ms ease" d="M0 0h4.1v14H0z"/></g></g><g class="bar"><g><path transform="translate(799.2 458.9)" fill="#4C5C78" fill-opacity=".7" stroke="#4C5C78" stroke-width=".5" stroke-opacity="1" opacity="1" style="transition:translate 200ms ease" d="M0 0h4.1v12.3H0z"/></g></g><g class="bar"><g><path transform="translate(803.3 459.6)" fill="#A8633C" fill-opacity=".7" stroke="#A8633C" stroke-width=".5" stroke-opacity="1" opacity="1" style="transition:translate 200ms ease" d="M0 0h4.1v11.6H0z"/></g></g><g class="bar"><g><path transform="translate(807.4 460.9)" fill="#5887A1" fill-opacity=".7" stroke="#5887A1" stroke-width=".5" stroke-opacity="1" opacity="1" style="transition:translate 200ms ease" d="M0 0h4.1v10.3H0z"/></g></g><g class="bar"><g><path transform="translate(811.5 461.5)" fill="#923E8B" fill-opacity=".7" stroke="#923E8B" stroke-width=".5" stroke-opacity="1" opacity="1" style="transition:translate 200ms ease" d="M0 0h4.1v9.7H0z"/></g></g><g class="bar"><g><path transform="translate(815.6 462.5)" fill="#5887A1" fill-opacity=".7" stroke="#5887A1" stroke-width=".5" stroke-opacity="1" opacity="1" style="transition:translate 200ms ease" d="M0 0h4.1v8.7H0z"/></g></g><g class="bar"><g><path transform="translate(819.7 464.2)" fill="#5887A1" fill-opacity=".7" stroke="#5887A1" stroke-width=".5" stroke-opacity="1" opacity="1" style="transition:translate 200ms ease" d="M0 0h4.1v7H0z"/></g></g><g class="bar"><g><path transform="translate(823.8 466.9)" fill="#5887A1" fill-opacity=".7" stroke="#5887A1" stroke-width=".5" stroke-opacity="1" opacity="1" style="transition:translate 200ms ease" d="M0 0h4.1v4.3H0z"/></g></g><g class="bar-label"><g><text x="-42.71" y="0" width="42.71" height="12.6" font-weight="400" fill="#2D8587" transform="rotate(-45 632.64 166.8)" opacity="1" font-size=".7em" text-anchor="right" dominant-baseline="middle">Norway</text></g></g><g class="bar-label"><g><text x="-42.21" y="0" width="42.21" height="12.6" font-weight="400" fill="#2D8587" transform="rotate(-45 663.4 92.56)" opacity="1" font-size=".7em" text-anchor="right" dominant-baseline="middle">Estonia</text></g></g><g class="bar-label"><g><text x="-39.31" y="0" width="39.31" height="12.6" font-weight="400" fill="#2D8587" transform="rotate(-45 690.04 28.23)" opacity="1" font-size=".7em" text-anchor="right" dominant-baseline="middle">Austria</text></g></g><g class="bar-label"><g><text x="-40.82" y="0" width="40.82" height="12.6" font-weight="400" fill="#932834" transform="rotate(-45 716.7 -36.11)" opacity="1" font-size=".7em" text-anchor="right" dominant-baseline="middle">Europe</text></g></g><g class="bar-label"><g><text x="-46.37" y="0" width="46.37" height="12.6" font-weight="400" fill="#2D8587" transform="rotate(-45 743.34 -100.45)" opacity="1" font-size=".7em" text-anchor="right" dominant-baseline="middle">Bulgaria</text></g></g><g class="bar-label"><g><text x="-30.11" y="0" width="30.11" height="12.6" font-weight="400" fill="#923E8B" transform="rotate(-45 770 -164.8)" opacity="1" font-size=".7em" text-anchor="right" dominant-baseline="middle">Niger</text></g></g><g class="bar-label"><g><text x="-37.17" y="0" width="37.17" height="12.6" font-weight="400" fill="#A8633C" transform="rotate(-45 796.64 -229.13)" opacity="1" font-size=".7em" text-anchor="right" dominant-baseline="middle">Bolivia</text></g></g><g class="bar-label"><g><text x="-53.42" y="0" width="53.42" height="12.6" font-weight="400" fill="#5887A1" transform="rotate(-45 823.3 -293.47)" opacity="1" font-size=".7em" text-anchor="right" dominant-baseline="middle">Sri Lanka</text></g></g><g class="bar-label"><g><text x="-48.51" y="0" width="48.51" height="12.6" font-weight="400" fill="#5887A1" transform="rotate(-45 849.94 -357.8)" opacity="1" font-size=".7em" text-anchor="right" dominant-baseline="middle">Pakistan</text></g></g><g class="bar-label"><g><text x="-48.38" y="0" width="48.38" height="12.6" font-weight="400" fill="#923E8B" transform="rotate(-45 876.6 -422.15)" opacity="1" font-size=".7em" text-anchor="right" dominant-baseline="middle">Morocco</text></g></g><g class="bar-label"><g><text x="-64.64" y="0" width="64.64" height="12.6" font-weight="400" fill="#4C5C78" transform="rotate(-45 903.24 -486.48)" opacity="1" font-size=".7em" text-anchor="right" dominant-baseline="middle">El Salvador</text></g></g><g class="bar-label"><g><text x="-58.97" y="0" width="58.97" height="12.6" font-weight="400" fill="#923E8B" transform="rotate(-45 929.9 -550.82)" opacity="1" font-size=".7em" text-anchor="right" dominant-baseline="middle">Cameroon</text></g></g><g class="bar-label"><g><text x="-30.24" y="0" width="30.24" height="12.6" font-weight="400" fill="#4C5C78" transform="rotate(-45 956.54 -615.16)" opacity="1" font-size=".7em" text-anchor="right" dominant-baseline="middle">Cuba</text></g></g><g class="bar-label"><g><text x="-72.45" y="0" width="72.45" height="12.6" font-weight="400" fill="#5887A1" transform="rotate(-45 983.2 -679.5)" opacity="1" font-size=".7em" text-anchor="right" dominant-baseline="middle">Saudi Arabia</text></g></g><g class="bar-label"><g><text x="-68.17" y="0" width="68.17" height="12.6" font-weight="400" fill="#5887A1" transform="rotate(-45 1011.48 -747.79)" opacity="1" font-size=".7em" text-anchor="right" dominant-baseline="middle">North Korea</text></g></g><g class="indicator"><path d="M825.85 475.2v8.5h-.83v8.5" stroke="#bbb" stroke-width="1" fill="none"/></g><g class="indicator"><path d="M67.35 475.2v17" stroke="#bbb" stroke-width="1" fill="none"/></g><g class="indicator"><path d="M128.85 475.2v17" stroke="#bbb" stroke-width="1" fill="none"/></g><g class="indicator"><path d="M182.15 475.2v17" stroke="#bbb" stroke-width="1" fill="none"/></g><g class="indicator"><path d="M235.45 475.2v17" stroke="#bbb" stroke-width="1" fill="none"/></g><g class="indicator"><path d="M288.75 475.2v17" stroke="#bbb" stroke-width="1" fill="none"/></g><g class="indicator"><path d="M342.05 475.2v17" stroke="#bbb" stroke-width="1" fill="none"/></g><g class="indicator"><path d="M395.35 475.2v17" stroke="#bbb" stroke-width="1" fill="none"/></g><g class="indicator"><path d="M448.65 475.2v17" stroke="#bbb" stroke-width="1" fill="none"/></g><g class="indicator"><path d="M501.95 475.2v17" stroke="#bbb" stroke-width="1" fill="none"/></g><g class="indicator"><path d="M555.25 475.2v17" stroke="#bbb" stroke-width="1" fill="none"/></g><g class="indicator"><path d="M608.55 475.2v17" stroke="#bbb" stroke-width="1" fill="none"/></g><g class="indicator"><path d="M661.85 475.2v17" stroke="#bbb" stroke-width="1" fill="none"/></g><g class="indicator"><path d="M715.15 475.2v17" stroke="#bbb" stroke-width="1" fill="none"/></g><g class="indicator"><path d="M768.45 475.2v17" stroke="#bbb" stroke-width="1" fill="none"/></g></g><g class="SourcesFooter" style="fill:#777"><g style="fill:#777"><text font-size="12.6" x="15" y="582.5"><tspan x="15" y="582.48">Source: OWID based on V-Dem (v12)</tspan></text></g><text font-size="12.6" x="604.8" y="582.5"><tspan x="604.8" y="582.48"><a target="_blank" style="fill:#777" href="https://ourworldindata.org/democracy">OurWorldInData.org/democracy</a> • <a style="fill:#777" class="cclogo" href="http://creativecommons.org/licenses/by/4.0/deed.en_US" target="_blank">CC BY</a></tspan></text></g></svg>