<svg xmlns="http://www.w3.org/2000/svg" version="1.1" style="font-family:Lato,'Helvetica Neue',Helvetica,Arial,sans-serif;font-size:18px;background-color:#fff;text-rendering:geometricPrecision;-webkit-font-smoothing:antialiased" width="850" height="600" viewBox="0 0 850 600"><g class="HeaderView"><g transform="matrix(.29 0 0 .29 774 15)"><svg className="owidLog" width="210" height="120" viewBox="0 0 210 120" fill="none" xmlns="http://www.w3.org/2000/svg"><g clip-path="url(#a)"><path d="M0 0h210v107.89H0V0z" fill="#002147"/><path d="M40.98 32.25c0 2.36-.38 4.53-1.12 6.51a14.26 14.26 0 0 1-8.1 8.4c-1.9.78-4.02 1.17-6.34 1.17a16.6 16.6 0 0 1-6.33-1.17 14.31 14.31 0 0 1-8.08-8.4 18.29 18.29 0 0 1-1.12-6.51c0-2.36.38-4.53 1.12-6.5.75-1.97 1.8-3.67 3.17-5.1a14.32 14.32 0 0 1 4.9-3.34c1.92-.8 4.03-1.19 6.34-1.19 2.32 0 4.43.4 6.34 1.19 1.92.8 3.56 1.9 4.93 3.34a14.87 14.87 0 0 1 3.17 5.1 18.1 18.1 0 0 1 1.12 6.5zm-4.38 0c0-1.94-.26-3.68-.8-5.22a10.91 10.91 0 0 0-2.24-3.89 9.68 9.68 0 0 0-3.52-2.46 11.95 11.95 0 0 0-4.62-.86c-1.68 0-3.21.28-4.6.86a9.88 9.88 0 0 0-3.54 2.46 10.91 10.91 0 0 0-2.24 3.9c-.53 1.53-.8 3.27-.8 5.2 0 1.94.27 3.68.8 5.22a11.17 11.17 0 0 0 2.24 3.9 10.01 10.01 0 0 0 3.55 2.44c1.38.56 2.9.83 4.6.83s3.24-.27 4.61-.83a9.8 9.8 0 0 0 3.52-2.44 11.17 11.17 0 0 0 2.25-3.9c.53-1.54.8-3.28.8-5.21zm26.22-6.54V48H60.5c-.56 0-.9-.27-1.05-.81l-.31-2.4a12.45 12.45 0 0 1-3.26 2.6c-1.2.64-2.58.96-4.13.96-1.22 0-2.3-.2-3.24-.6a6.52 6.52 0 0 1-2.33-1.7 7.37 7.37 0 0 1-1.43-2.67c-.3-1.04-.46-2.2-.46-3.45V25.7h3.91v14.22c0 1.68.38 2.99 1.15 3.91.77.93 1.96 1.39 3.54 1.39 1.16 0 2.24-.27 3.23-.82a10.42 10.42 0 0 0 2.8-2.28V25.7h3.91zm8.61 4.47a9.94 9.94 0 0 1 2.6-3.56 5.64 5.64 0 0 1 3.76-1.3c.47 0 .92.05 1.34.15.44.1.83.27 1.17.49l-.3 2.92c-.09.37-.3.55-.66.55-.2 0-.5-.04-.9-.13a6.21 6.21 0 0 0-3.24.18 4.23 4.23 0 0 0-1.47.92c-.42.4-.81.9-1.17 1.5-.33.58-.64 1.26-.92 2.02V48H67.7V25.71h2.25c.42 0 .72.08.88.25.16.16.27.44.33.83l.26 3.39zm61.16-13.7L122.75 48h-3.82l-7.99-24.05a21.95 21.95 0 0 1-.42-1.58 38.36 38.36 0 0 1-.44 1.58L102.05 48h-3.83L88.4 16.47h3.54c.38 0 .7.1.95.29.26.2.43.43.5.73l6.52 21.9.28 1.28.29 1.46.3-1.46.38-1.27 7.41-21.91c.1-.25.26-.48.51-.69.27-.22.58-.33.95-.33h1.23c.38 0 .69.1.92.29a1.77 1.77 0 0 1 .53.73l7.4 21.9a28.4 28.4 0 0 1 .68 2.62 29.52 29.52 0 0 1 .52-2.61l6.54-21.91a1.31 1.31 0 0 1 .48-.7c.27-.21.58-.32.95-.32h3.32zm9.35 8.88c1.63 0 3.1.27 4.4.82a9.43 9.43 0 0 1 5.46 5.94c.5 1.4.74 2.98.74 4.73 0 1.76-.25 3.34-.74 4.75a9.43 9.43 0 0 1-5.46 5.92c-1.3.52-2.77.79-4.4.79-1.64 0-3.12-.27-4.44-.8a9.42 9.42 0 0 1-3.35-2.3c-.92-1-1.63-2.2-2.13-3.61-.49-1.41-.73-3-.73-4.75s.24-3.33.73-4.73c.5-1.43 1.2-2.64 2.13-3.63a9.4 9.4 0 0 1 3.35-2.31c1.32-.55 2.8-.82 4.44-.82zm0 19.89c2.2 0 3.84-.73 4.93-2.2 1.08-1.48 1.63-3.54 1.63-6.18 0-2.66-.55-4.72-1.63-6.2-1.09-1.49-2.73-2.23-4.93-2.23-1.12 0-2.09.2-2.93.57a5.71 5.71 0 0 0-2.06 1.65 7.5 7.5 0 0 0-1.24 2.67c-.26 1.04-.4 2.22-.4 3.54 0 2.64.55 4.7 1.64 6.18 1.1 1.47 2.76 2.2 4.99 2.2zm17.97-15.07a9.94 9.94 0 0 1 2.6-3.56 5.64 5.64 0 0 1 3.76-1.3c.47 0 .91.05 1.34.15.44.1.83.27 1.16.49l-.28 2.92c-.09.37-.31.55-.66.55-.2 0-.5-.04-.9-.13a6.2 6.2 0 0 0-3.24.18 4.23 4.23 0 0 0-1.47.92c-.43.4-.82.9-1.17 1.5a13.1 13.1 0 0 0-.92 2.02V48h-3.94V25.71h2.24c.43 0 .72.08.88.25.17.16.28.44.33.83l.27 3.39zm15.04-14.59V48h-3.92V15.6h3.92zm19.55 15.43a6.22 6.22 0 0 0-2.38-2.05 6.7 6.7 0 0 0-2.86-.6c-2.07 0-3.66.75-4.77 2.23-1.12 1.48-1.68 3.6-1.68 6.33 0 1.46.13 2.7.38 3.74a7.29 7.29 0 0 0 1.1 2.56 4.35 4.35 0 0 0 1.78 1.45c.7.3 1.5.46 2.4.46 1.29 0 2.41-.3 3.36-.88a9.6 9.6 0 0 0 2.67-2.49V31.02zm3.91-15.43V48h-2.33c-.56 0-.9-.27-1.06-.81l-.35-2.71a12.13 12.13 0 0 1-3.25 2.77 8.28 8.28 0 0 1-4.23 1.06 7.31 7.31 0 0 1-6.14-2.9c-.73-.96-1.3-2.15-1.69-3.57a18.35 18.35 0 0 1 .07-9.48 11.29 11.29 0 0 1 1.89-3.7 8.7 8.7 0 0 1 7.06-3.34 7.96 7.96 0 0 1 6.12 2.62V15.59h3.91zM46.61 70.71V93H42.7V70.71h3.91zm.84-7c0 .39-.08.75-.24 1.09a2.81 2.81 0 0 1-1.52 1.47 2.67 2.67 0 0 1-2.16 0 2.9 2.9 0 0 1-1.45-1.47 2.67 2.67 0 0 1 0-2.16c.15-.35.35-.65.6-.9.25-.27.53-.47.85-.62a2.67 2.67 0 0 1 2.16 0c.35.15.65.35.9.62.27.25.47.55.62.9.16.34.24.7.24 1.08zm7.97 10.24c.49-.54 1-1.04 1.54-1.48a9.85 9.85 0 0 1 3.66-1.84 8.96 8.96 0 0 1 5.43.35c.94.4 1.72.97 2.33 1.71a7.36 7.36 0 0 1 1.43 2.67c.32 1.04.49 2.19.49 3.45V93h-3.94V78.81c0-1.69-.4-3-1.17-3.92-.76-.93-1.93-1.4-3.5-1.4a6.6 6.6 0 0 0-3.25.83c-1 .56-1.92 1.31-2.77 2.27V93h-3.94V70.71h2.35c.56 0 .9.28 1.04.82l.3 2.42zm57.7 3.3c0 2.36-.37 4.5-1.11 6.44a14.3 14.3 0 0 1-3.17 4.98 14.1 14.1 0 0 1-4.93 3.2c-1.9.76-4.02 1.13-6.33 1.13H85.8V61.47h11.77c2.31 0 4.42.39 6.33 1.15a13.8 13.8 0 0 1 8.1 8.18 17.75 17.75 0 0 1 1.12 6.45zm-4.37 0c0-1.94-.26-3.67-.8-5.2a10.94 10.94 0 0 0-2.23-3.87 9.57 9.57 0 0 0-3.53-2.42 12.23 12.23 0 0 0-4.61-.83h-7.5v24.62h7.5c1.7 0 3.24-.28 4.61-.84a9.7 9.7 0 0 0 3.53-2.4 10.94 10.94 0 0 0 2.24-3.87c.53-1.53.8-3.26.8-5.2zm19.8 5.72c-1.8.06-3.34.2-4.62.44-1.26.22-2.3.51-3.1.88-.8.36-1.37.8-1.74 1.3-.35.5-.53 1.05-.53 1.67 0 .58.1 1.1.3 1.52a3 3 0 0 0 .76 1.05c.34.27.73.46 1.17.6a6.13 6.13 0 0 0 1.45.17 7.28 7.28 0 0 0 3.5-.81 11.95 11.95 0 0 0 2.82-2.2v-4.62zm-12.65-9.11a12.73 12.73 0 0 1 3.98-2.66c1.43-.59 3-.88 4.73-.88 1.25 0 2.36.2 3.33.61a6.81 6.81 0 0 1 3.94 4.38c.33 1.04.5 2.19.5 3.43V93h-1.74a1.8 1.8 0 0 1-.88-.18c-.2-.13-.36-.38-.48-.74l-.44-2.12-1.72 1.46a9.48 9.48 0 0 1-3.74 1.7c-.69.15-1.46.23-2.3.23-.87 0-1.69-.12-2.45-.35a5.34 5.34 0 0 1-3.34-2.93 6.64 6.64 0 0 1-.49-2.64c0-.88.25-1.72.73-2.53a6.33 6.33 0 0 1 2.35-2.17c1.09-.63 2.5-1.15 4.25-1.54 1.75-.41 3.89-.65 6.42-.7v-1.75c0-1.73-.37-3.03-1.12-3.91-.75-.9-1.84-1.34-3.28-1.34-.97 0-1.78.12-2.44.37-.64.23-1.2.5-1.7.81l-1.23.82c-.33.23-.67.35-1 .35-.27 0-.5-.07-.69-.2a2.1 2.1 0 0 1-.48-.53l-.7-1.25zm27.67 19.5c-1.76 0-3.12-.5-4.07-1.48-.94-.98-1.41-2.4-1.41-4.25V74h-2.68a.9.9 0 0 1-.6-.2c-.16-.14-.24-.36-.24-.66v-1.56l3.65-.46.9-6.89a.9.9 0 0 1 .29-.52.88.88 0 0 1 .62-.22H142v7.67h6.44V74H142v13.38c0 .94.22 1.63.68 2.09.45.45 1.04.68 1.76.68a3.21 3.21 0 0 0 1.85-.53l.55-.35c.16-.12.3-.18.41-.18.2 0 .4.13.55.38l1.15 1.87a7.45 7.45 0 0 1-2.44 1.5 8.53 8.53 0 0 1-2.95.52zm19.68-10.4c-1.8.07-3.34.21-4.62.45-1.26.22-2.3.51-3.1.88-.8.36-1.37.8-1.74 1.3-.35.5-.53 1.05-.53 1.67 0 .58.1 1.1.3 1.52a2.9 2.9 0 0 0 .76 1.05c.34.27.73.46 1.17.6a6.13 6.13 0 0 0 1.45.17 7.3 7.3 0 0 0 3.5-.81 12.04 12.04 0 0 0 2.82-2.2v-4.62zm-12.65-9.1a12.72 12.72 0 0 1 3.99-2.66c1.42-.59 3-.88 4.72-.88 1.25 0 2.36.2 3.33.61a6.81 6.81 0 0 1 3.94 4.38c.33 1.04.5 2.19.5 3.43V93h-1.74a1.8 1.8 0 0 1-.88-.18c-.2-.13-.36-.38-.48-.74l-.44-2.12-1.72 1.46a9.48 9.48 0 0 1-3.74 1.7c-.69.15-1.46.23-2.3.23-.87 0-1.69-.12-2.45-.35a5.33 5.33 0 0 1-3.34-2.93 6.62 6.62 0 0 1-.49-2.64c0-.88.25-1.72.73-2.53a6.33 6.33 0 0 1 2.35-2.17c1.09-.63 2.5-1.15 4.25-1.54a31.2 31.2 0 0 1 6.42-.7v-1.75c0-1.73-.37-3.03-1.12-3.91-.75-.9-1.84-1.34-3.28-1.34-.97 0-1.78.12-2.44.37-.64.23-1.2.5-1.7.81l-1.22.82c-.34.23-.68.35-1.02.35-.26 0-.49-.07-.68-.2a1.88 1.88 0 0 1-.48-.53l-.7-1.25zM40.98 32.25c0 2.36-.38 4.53-1.12 6.51a14.26 14.26 0 0 1-8.1 8.4c-1.9.78-4.02 1.17-6.34 1.17a16.6 16.6 0 0 1-6.33-1.17 14.31 14.31 0 0 1-8.08-8.4 18.29 18.29 0 0 1-1.12-6.51c0-2.36.38-4.53 1.12-6.5.75-1.97 1.8-3.67 3.17-5.1a14.32 14.32 0 0 1 4.9-3.34c1.92-.8 4.03-1.19 6.34-1.19 2.32 0 4.43.4 6.34 1.19 1.92.8 3.56 1.9 4.93 3.34a14.87 14.87 0 0 1 3.17 5.1 18.1 18.1 0 0 1 1.12 6.5zm-4.38 0c0-1.94-.26-3.68-.8-5.22a10.91 10.91 0 0 0-2.24-3.89 9.68 9.68 0 0 0-3.52-2.46 11.95 11.95 0 0 0-4.62-.86c-1.68 0-3.21.28-4.6.86a9.88 9.88 0 0 0-3.54 2.46 10.91 10.91 0 0 0-2.24 3.9c-.53 1.53-.8 3.27-.8 5.2 0 1.94.27 3.68.8 5.22a11.17 11.17 0 0 0 2.24 3.9 10.01 10.01 0 0 0 3.55 2.44c1.38.56 2.9.83 4.6.83s3.24-.27 4.61-.83a9.8 9.8 0 0 0 3.52-2.44 11.17 11.17 0 0 0 2.25-3.9c.53-1.54.8-3.28.8-5.21zm26.22-6.54V48H60.5c-.56 0-.9-.27-1.05-.81l-.31-2.4a12.45 12.45 0 0 1-3.26 2.6c-1.2.64-2.58.96-4.13.96-1.22 0-2.3-.2-3.24-.6a6.52 6.52 0 0 1-2.33-1.7 7.37 7.37 0 0 1-1.43-2.67c-.3-1.04-.46-2.2-.46-3.45V25.7h3.91v14.22c0 1.68.38 2.99 1.15 3.91.77.93 1.96 1.39 3.54 1.39 1.16 0 2.24-.27 3.23-.82a10.42 10.42 0 0 0 2.8-2.28V25.7h3.91zm8.61 4.47a9.94 9.94 0 0 1 2.6-3.56 5.64 5.64 0 0 1 3.76-1.3c.47 0 .92.05 1.34.15.44.1.83.27 1.17.49l-.3 2.92c-.09.37-.3.55-.66.55-.2 0-.5-.04-.9-.13a6.21 6.21 0 0 0-3.24.18 4.23 4.23 0 0 0-1.47.92c-.42.4-.81.9-1.17 1.5-.33.58-.64 1.26-.92 2.02V48H67.7V25.71h2.25c.42 0 .72.08.88.25.16.16.27.44.33.83l.26 3.39zm61.16-13.7L122.75 48h-3.82l-7.99-24.05a21.95 21.95 0 0 1-.42-1.58 38.36 38.36 0 0 1-.44 1.58L102.05 48h-3.83L88.4 16.47h3.54c.38 0 .7.1.95.29.26.2.43.43.5.73l6.52 21.9.28 1.28.29 1.46.3-1.46.38-1.27 7.41-21.91c.1-.25.26-.48.51-.69.27-.22.58-.33.95-.33h1.23c.38 0 .69.1.92.29a1.77 1.77 0 0 1 .53.73l7.4 21.9a28.4 28.4 0 0 1 .68 2.62 29.52 29.52 0 0 1 .52-2.61l6.54-21.91a1.31 1.31 0 0 1 .48-.7c.27-.21.58-.32.95-.32h3.32zm9.35 8.88c1.63 0 3.1.27 4.4.82a9.43 9.43 0 0 1 5.46 5.94c.5 1.4.74 2.98.74 4.73 0 1.76-.25 3.34-.74 4.75a9.43 9.43 0 0 1-5.46 5.92c-1.3.52-2.77.79-4.4.79-1.64 0-3.12-.27-4.44-.8a9.42 9.42 0 0 1-3.35-2.3c-.92-1-1.63-2.2-2.13-3.61-.49-1.41-.73-3-.73-4.75s.24-3.33.73-4.73c.5-1.43 1.2-2.64 2.13-3.63a9.4 9.4 0 0 1 3.35-2.31c1.32-.55 2.8-.82 4.44-.82zm0 19.89c2.2 0 3.84-.73 4.93-2.2 1.08-1.48 1.63-3.54 1.63-6.18 0-2.66-.55-4.72-1.63-6.2-1.09-1.49-2.73-2.23-4.93-2.23-1.12 0-2.09.2-2.93.57a5.71 5.71 0 0 0-2.06 1.65 7.5 7.5 0 0 0-1.24 2.67c-.26 1.04-.4 2.22-.4 3.54 0 2.64.55 4.7 1.64 6.18 1.1 1.47 2.76 2.2 4.99 2.2zm17.97-15.07a9.94 9.94 0 0 1 2.6-3.56 5.64 5.64 0 0 1 3.76-1.3c.47 0 .91.05 1.34.15.44.1.83.27 1.16.49l-.28 2.92c-.09.37-.31.55-.66.55-.2 0-.5-.04-.9-.13a6.2 6.2 0 0 0-3.24.18 4.23 4.23 0 0 0-1.47.92c-.43.4-.82.9-1.17 1.5a13.1 13.1 0 0 0-.92 2.02V48h-3.94V25.71h2.24c.43 0 .72.08.88.25.17.16.28.44.33.83l.27 3.39zm15.04-14.59V48h-3.92V15.6h3.92zm19.55 15.43a6.22 6.22 0 0 0-2.38-2.05 6.7 6.7 0 0 0-2.86-.6c-2.07 0-3.66.75-4.77 2.23-1.12 1.48-1.68 3.6-1.68 6.33 0 1.46.13 2.7.38 3.74a7.29 7.29 0 0 0 1.1 2.56 4.35 4.35 0 0 0 1.78 1.45c.7.3 1.5.46 2.4.46 1.29 0 2.41-.3 3.36-.88a9.6 9.6 0 0 0 2.67-2.49V31.02zm3.91-15.43V48h-2.33c-.56 0-.9-.27-1.06-.81l-.35-2.71a12.13 12.13 0 0 1-3.25 2.77 8.28 8.28 0 0 1-4.23 1.06 7.31 7.31 0 0 1-6.14-2.9c-.73-.96-1.3-2.15-1.69-3.57a18.35 18.35 0 0 1 .07-9.48 11.29 11.29 0 0 1 1.89-3.7 8.7 8.7 0 0 1 7.06-3.34 7.96 7.96 0 0 1 6.12 2.62V15.59h3.91zM46.61 70.71V93H42.7V70.71h3.91zm.84-7c0 .39-.08.75-.24 1.09a2.81 2.81 0 0 1-1.52 1.47 2.67 2.67 0 0 1-2.16 0 2.9 2.9 0 0 1-1.45-1.47 2.67 2.67 0 0 1 0-2.16c.15-.35.35-.65.6-.9.25-.27.53-.47.85-.62a2.67 2.67 0 0 1 2.16 0c.35.15.65.35.9.62.27.25.47.55.62.9.16.34.24.7.24 1.08zm7.97 10.24c.49-.54 1-1.04 1.54-1.48a9.85 9.85 0 0 1 3.66-1.84 8.96 8.96 0 0 1 5.43.35c.94.4 1.72.97 2.33 1.71a7.36 7.36 0 0 1 1.43 2.67c.32 1.04.49 2.19.49 3.45V93h-3.94V78.81c0-1.69-.4-3-1.17-3.92-.76-.93-1.93-1.4-3.5-1.4a6.6 6.6 0 0 0-3.25.83c-1 .56-1.92 1.31-2.77 2.27V93h-3.94V70.71h2.35c.56 0 .9.28 1.04.82l.3 2.42zm57.7 3.3c0 2.36-.37 4.5-1.11 6.44a14.3 14.3 0 0 1-3.17 4.98 14.1 14.1 0 0 1-4.93 3.2c-1.9.76-4.02 1.13-6.33 1.13H85.8V61.47h11.77c2.31 0 4.42.39 6.33 1.15a13.8 13.8 0 0 1 8.1 8.18 17.75 17.75 0 0 1 1.12 6.45zm-4.37 0c0-1.94-.26-3.67-.8-5.2a10.94 10.94 0 0 0-2.23-3.87 9.57 9.57 0 0 0-3.53-2.42 12.23 12.23 0 0 0-4.61-.83h-7.5v24.62h7.5c1.7 0 3.24-.28 4.61-.84a9.7 9.7 0 0 0 3.53-2.4 10.94 10.94 0 0 0 2.24-3.87c.53-1.53.8-3.26.8-5.2zm19.8 5.72c-1.8.06-3.34.2-4.62.44-1.26.22-2.3.51-3.1.88-.8.36-1.37.8-1.74 1.3-.35.5-.53 1.05-.53 1.67 0 .58.1 1.1.3 1.52a3 3 0 0 0 .76 1.05c.34.27.73.46 1.17.6a6.13 6.13 0 0 0 1.45.17 7.28 7.28 0 0 0 3.5-.81 11.95 11.95 0 0 0 2.82-2.2v-4.62zm-12.65-9.11a12.73 12.73 0 0 1 3.98-2.66c1.43-.59 3-.88 4.73-.88 1.25 0 2.36.2 3.33.61a6.81 6.81 0 0 1 3.94 4.38c.33 1.04.5 2.19.5 3.43V93h-1.74a1.8 1.8 0 0 1-.88-.18c-.2-.13-.36-.38-.48-.74l-.44-2.12-1.72 1.46a9.48 9.48 0 0 1-3.74 1.7c-.69.15-1.46.23-2.3.23-.87 0-1.69-.12-2.45-.35a5.34 5.34 0 0 1-3.34-2.93 6.64 6.64 0 0 1-.49-2.64c0-.88.25-1.72.73-2.53a6.33 6.33 0 0 1 2.35-2.17c1.09-.63 2.5-1.15 4.25-1.54 1.75-.41 3.89-.65 6.42-.7v-1.75c0-1.73-.37-3.03-1.12-3.91-.75-.9-1.84-1.34-3.28-1.34-.97 0-1.78.12-2.44.37-.64.23-1.2.5-1.7.81l-1.23.82c-.33.23-.67.35-1 .35-.27 0-.5-.07-.69-.2a2.1 2.1 0 0 1-.48-.53l-.7-1.25zm27.67 19.5c-1.76 0-3.12-.5-4.07-1.48-.94-.98-1.41-2.4-1.41-4.25V74h-2.68a.9.9 0 0 1-.6-.2c-.16-.14-.24-.36-.24-.66v-1.56l3.65-.46.9-6.89a.9.9 0 0 1 .29-.52.88.88 0 0 1 .62-.22H142v7.67h6.44V74H142v13.38c0 .94.22 1.63.68 2.09.45.45 1.04.68 1.76.68a3.21 3.21 0 0 0 1.85-.53l.55-.35c.16-.12.3-.18.41-.18.2 0 .4.13.55.38l1.15 1.87a7.45 7.45 0 0 1-2.44 1.5 8.53 8.53 0 0 1-2.95.52zm19.68-10.4c-1.8.07-3.34.21-4.62.45-1.26.22-2.3.51-3.1.88-.8.36-1.37.8-1.74 1.3-.35.5-.53 1.05-.53 1.67 0 .58.1 1.1.3 1.52a2.9 2.9 0 0 0 .76 1.05c.34.27.73.46 1.17.6a6.13 6.13 0 0 0 1.45.17 7.3 7.3 0 0 0 3.5-.81 12.04 12.04 0 0 0 2.82-2.2v-4.62zm-12.65-9.1a12.72 12.72 0 0 1 3.99-2.66c1.42-.59 3-.88 4.72-.88 1.25 0 2.36.2 3.33.61a6.81 6.81 0 0 1 3.94 4.38c.33 1.04.5 2.19.5 3.43V93h-1.74a1.8 1.8 0 0 1-.88-.18c-.2-.13-.36-.38-.48-.74l-.44-2.12-1.72 1.46a9.48 9.48 0 0 1-3.74 1.7c-.69.15-1.46.23-2.3.23-.87 0-1.69-.12-2.45-.35a5.33 5.33 0 0 1-3.34-2.93 6.62 6.62 0 0 1-.49-2.64c0-.88.25-1.72.73-2.53a6.33 6.33 0 0 1 2.35-2.17c1.09-.63 2.5-1.15 4.25-1.54a31.2 31.2 0 0 1 6.42-.7v-1.75c0-1.73-.37-3.03-1.12-3.91-.75-.9-1.84-1.34-3.28-1.34-.97 0-1.78.12-2.44.37-.64.23-1.2.5-1.7.81l-1.22.82c-.34.23-.68.35-1.02.35-.26 0-.49-.07-.68-.2a1.88 1.88 0 0 1-.48-.53l-.7-1.25zM40.98 32.25c0 2.36-.38 4.53-1.12 6.51a14.26 14.26 0 0 1-8.1 8.4c-1.9.78-4.02 1.17-6.34 1.17a16.6 16.6 0 0 1-6.33-1.17 14.31 14.31 0 0 1-8.08-8.4 18.29 18.29 0 0 1-1.12-6.51c0-2.36.38-4.53 1.12-6.5.75-1.97 1.8-3.67 3.17-5.1a14.32 14.32 0 0 1 4.9-3.34c1.92-.8 4.03-1.19 6.34-1.19 2.32 0 4.43.4 6.34 1.19 1.92.8 3.56 1.9 4.93 3.34a14.87 14.87 0 0 1 3.17 5.1 18.1 18.1 0 0 1 1.12 6.5zm-4.38 0c0-1.94-.26-3.68-.8-5.22a10.91 10.91 0 0 0-2.24-3.89 9.68 9.68 0 0 0-3.52-2.46 11.95 11.95 0 0 0-4.62-.86c-1.68 0-3.21.28-4.6.86a9.88 9.88 0 0 0-3.54 2.46 10.91 10.91 0 0 0-2.24 3.9c-.53 1.53-.8 3.27-.8 5.2 0 1.94.27 3.68.8 5.22a11.17 11.17 0 0 0 2.24 3.9 10.01 10.01 0 0 0 3.55 2.44c1.38.56 2.9.83 4.6.83s3.24-.27 4.61-.83a9.8 9.8 0 0 0 3.52-2.44 11.17 11.17 0 0 0 2.25-3.9c.53-1.54.8-3.28.8-5.21zm26.22-6.54V48H60.5c-.56 0-.9-.27-1.05-.81l-.31-2.4a12.45 12.45 0 0 1-3.26 2.6c-1.2.64-2.58.96-4.13.96-1.22 0-2.3-.2-3.24-.6a6.52 6.52 0 0 1-2.33-1.7 7.37 7.37 0 0 1-1.43-2.67c-.3-1.04-.46-2.2-.46-3.45V25.7h3.91v14.22c0 1.68.38 2.99 1.15 3.91.77.93 1.96 1.39 3.54 1.39 1.16 0 2.24-.27 3.23-.82a10.42 10.42 0 0 0 2.8-2.28V25.7h3.91zm8.61 4.47a9.94 9.94 0 0 1 2.6-3.56 5.64 5.64 0 0 1 3.76-1.3c.47 0 .92.05 1.34.15.44.1.83.27 1.17.49l-.3 2.92c-.09.37-.3.55-.66.55-.2 0-.5-.04-.9-.13a6.21 6.21 0 0 0-3.24.18 4.23 4.23 0 0 0-1.47.92c-.42.4-.81.9-1.17 1.5-.33.58-.64 1.26-.92 2.02V48H67.7V25.71h2.25c.42 0 .72.08.88.25.16.16.27.44.33.83l.26 3.39zm61.16-13.7L122.75 48h-3.82l-7.99-24.05a21.95 21.95 0 0 1-.42-1.58 38.36 38.36 0 0 1-.44 1.58L102.05 48h-3.83L88.4 16.47h3.54c.38 0 .7.1.95.29.26.2.43.43.5.73l6.52 21.9.28 1.28.29 1.46.3-1.46.38-1.27 7.41-21.91c.1-.25.26-.48.51-.69.27-.22.58-.33.95-.33h1.23c.38 0 .69.1.92.29a1.77 1.77 0 0 1 .53.73l7.4 21.9a28.4 28.4 0 0 1 .68 2.62 29.52 29.52 0 0 1 .52-2.61l6.54-21.91a1.31 1.31 0 0 1 .48-.7c.27-.21.58-.32.95-.32h3.32zm9.35 8.88c1.63 0 3.1.27 4.4.82a9.43 9.43 0 0 1 5.46 5.94c.5 1.4.74 2.98.74 4.73 0 1.76-.25 3.34-.74 4.75a9.43 9.43 0 0 1-5.46 5.92c-1.3.52-2.77.79-4.4.79-1.64 0-3.12-.27-4.44-.8a9.42 9.42 0 0 1-3.35-2.3c-.92-1-1.63-2.2-2.13-3.61-.49-1.41-.73-3-.73-4.75s.24-3.33.73-4.73c.5-1.43 1.2-2.64 2.13-3.63a9.4 9.4 0 0 1 3.35-2.31c1.32-.55 2.8-.82 4.44-.82zm0 19.89c2.2 0 3.84-.73 4.93-2.2 1.08-1.48 1.63-3.54 1.63-6.18 0-2.66-.55-4.72-1.63-6.2-1.09-1.49-2.73-2.23-4.93-2.23-1.12 0-2.09.2-2.93.57a5.71 5.71 0 0 0-2.06 1.65 7.5 7.5 0 0 0-1.24 2.67c-.26 1.04-.4 2.22-.4 3.54 0 2.64.55 4.7 1.64 6.18 1.1 1.47 2.76 2.2 4.99 2.2zm17.97-15.07a9.94 9.94 0 0 1 2.6-3.56 5.64 5.64 0 0 1 3.76-1.3c.47 0 .91.05 1.34.15.44.1.83.27 1.16.49l-.28 2.92c-.09.37-.31.55-.66.55-.2 0-.5-.04-.9-.13a6.2 6.2 0 0 0-3.24.18 4.23 4.23 0 0 0-1.47.92c-.43.4-.82.9-1.17 1.5a13.1 13.1 0 0 0-.92 2.02V48h-3.94V25.71h2.24c.43 0 .72.08.88.25.17.16.28.44.33.83l.27 3.39zm15.04-14.59V48h-3.92V15.6h3.92zm19.55 15.43a6.22 6.22 0 0 0-2.38-2.05 6.7 6.7 0 0 0-2.86-.6c-2.07 0-3.66.75-4.77 2.23-1.12 1.48-1.68 3.6-1.68 6.33 0 1.46.13 2.7.38 3.74a7.29 7.29 0 0 0 1.1 2.56 4.35 4.35 0 0 0 1.78 1.45c.7.3 1.5.46 2.4.46 1.29 0 2.41-.3 3.36-.88a9.6 9.6 0 0 0 2.67-2.49V31.02zm3.91-15.43V48h-2.33c-.56 0-.9-.27-1.06-.81l-.35-2.71a12.13 12.13 0 0 1-3.25 2.77 8.28 8.28 0 0 1-4.23 1.06 7.31 7.31 0 0 1-6.14-2.9c-.73-.96-1.3-2.15-1.69-3.57a18.35 18.35 0 0 1 .07-9.48 11.29 11.29 0 0 1 1.89-3.7 8.7 8.7 0 0 1 7.06-3.34 7.96 7.96 0 0 1 6.12 2.62V15.59h3.91zM46.61 70.71V93H42.7V70.71h3.91zm.84-7c0 .39-.08.75-.24 1.09a2.81 2.81 0 0 1-1.52 1.47 2.67 2.67 0 0 1-2.16 0 2.9 2.9 0 0 1-1.45-1.47 2.67 2.67 0 0 1 0-2.16c.15-.35.35-.65.6-.9.25-.27.53-.47.85-.62a2.67 2.67 0 0 1 2.16 0c.35.15.65.35.9.62.27.25.47.55.62.9.16.34.24.7.24 1.08zm7.97 10.24c.49-.54 1-1.04 1.54-1.48a9.85 9.85 0 0 1 3.66-1.84 8.96 8.96 0 0 1 5.43.35c.94.4 1.72.97 2.33 1.71a7.36 7.36 0 0 1 1.43 2.67c.32 1.04.49 2.19.49 3.45V93h-3.94V78.81c0-1.69-.4-3-1.17-3.92-.76-.93-1.93-1.4-3.5-1.4a6.6 6.6 0 0 0-3.25.83c-1 .56-1.92 1.31-2.77 2.27V93h-3.94V70.71h2.35c.56 0 .9.28 1.04.82l.3 2.42zm57.7 3.3c0 2.36-.37 4.5-1.11 6.44a14.3 14.3 0 0 1-3.17 4.98 14.1 14.1 0 0 1-4.93 3.2c-1.9.76-4.02 1.13-6.33 1.13H85.8V61.47h11.77c2.31 0 4.42.39 6.33 1.15a13.8 13.8 0 0 1 8.1 8.18 17.75 17.75 0 0 1 1.12 6.45zm-4.37 0c0-1.94-.26-3.67-.8-5.2a10.94 10.94 0 0 0-2.23-3.87 9.57 9.57 0 0 0-3.53-2.42 12.23 12.23 0 0 0-4.61-.83h-7.5v24.62h7.5c1.7 0 3.24-.28 4.61-.84a9.7 9.7 0 0 0 3.53-2.4 10.94 10.94 0 0 0 2.24-3.87c.53-1.53.8-3.26.8-5.2zm19.8 5.72c-1.8.06-3.34.2-4.62.44-1.26.22-2.3.51-3.1.88-.8.36-1.37.8-1.74 1.3-.35.5-.53 1.05-.53 1.67 0 .58.1 1.1.3 1.52a3 3 0 0 0 .76 1.05c.34.27.73.46 1.17.6a6.13 6.13 0 0 0 1.45.17 7.28 7.28 0 0 0 3.5-.81 11.95 11.95 0 0 0 2.82-2.2v-4.62zm-12.65-9.11a12.73 12.73 0 0 1 3.98-2.66c1.43-.59 3-.88 4.73-.88 1.25 0 2.36.2 3.33.61a6.81 6.81 0 0 1 3.94 4.38c.33 1.04.5 2.19.5 3.43V93h-1.74a1.8 1.8 0 0 1-.88-.18c-.2-.13-.36-.38-.48-.74l-.44-2.12-1.72 1.46a9.48 9.48 0 0 1-3.74 1.7c-.69.15-1.46.23-2.3.23-.87 0-1.69-.12-2.45-.35a5.34 5.34 0 0 1-3.34-2.93 6.64 6.64 0 0 1-.49-2.64c0-.88.25-1.72.73-2.53a6.33 6.33 0 0 1 2.35-2.17c1.09-.63 2.5-1.15 4.25-1.54 1.75-.41 3.89-.65 6.42-.7v-1.75c0-1.73-.37-3.03-1.12-3.91-.75-.9-1.84-1.34-3.28-1.34-.97 0-1.78.12-2.44.37-.64.23-1.2.5-1.7.81l-1.23.82c-.33.23-.67.35-1 .35-.27 0-.5-.07-.69-.2a2.1 2.1 0 0 1-.48-.53l-.7-1.25zm27.67 19.5c-1.76 0-3.12-.5-4.07-1.48-.94-.98-1.41-2.4-1.41-4.25V74h-2.68a.9.9 0 0 1-.6-.2c-.16-.14-.24-.36-.24-.66v-1.56l3.65-.46.9-6.89a.9.9 0 0 1 .29-.52.88.88 0 0 1 .62-.22H142v7.67h6.44V74H142v13.38c0 .94.22 1.63.68 2.09.45.45 1.04.68 1.76.68a3.21 3.21 0 0 0 1.85-.53l.55-.35c.16-.12.3-.18.41-.18.2 0 .4.13.55.38l1.15 1.87a7.45 7.45 0 0 1-2.44 1.5 8.53 8.53 0 0 1-2.95.52zm19.68-10.4c-1.8.07-3.34.21-4.62.45-1.26.22-2.3.51-3.1.88-.8.36-1.37.8-1.74 1.3-.35.5-.53 1.05-.53 1.67 0 .58.1 1.1.3 1.52a2.9 2.9 0 0 0 .76 1.05c.34.27.73.46 1.17.6a6.13 6.13 0 0 0 1.45.17 7.3 7.3 0 0 0 3.5-.81 12.04 12.04 0 0 0 2.82-2.2v-4.62zm-12.65-9.1a12.72 12.72 0 0 1 3.99-2.66c1.42-.59 3-.88 4.72-.88 1.25 0 2.36.2 3.33.61a6.81 6.81 0 0 1 3.94 4.38c.33 1.04.5 2.19.5 3.43V93h-1.74a1.8 1.8 0 0 1-.88-.18c-.2-.13-.36-.38-.48-.74l-.44-2.12-1.72 1.46a9.48 9.48 0 0 1-3.74 1.7c-.69.15-1.46.23-2.3.23-.87 0-1.69-.12-2.45-.35a5.33 5.33 0 0 1-3.34-2.93 6.62 6.62 0 0 1-.49-2.64c0-.88.25-1.72.73-2.53a6.33 6.33 0 0 1 2.35-2.17c1.09-.63 2.5-1.15 4.25-1.54a31.2 31.2 0 0 1 6.42-.7v-1.75c0-1.73-.37-3.03-1.12-3.91-.75-.9-1.84-1.34-3.28-1.34-.97 0-1.78.12-2.44.37-.64.23-1.2.5-1.7.81l-1.22.82c-.34.23-.68.35-1.02.35-.26 0-.49-.07-.68-.2a1.88 1.88 0 0 1-.48-.53l-.7-1.25z" fill="#fff"/><path fill="#D42B21" d="M0 106.79h210V120H0z"/></g><defs><clipPath id="a"><path fill="#fff" d="M0 0h210v120H0z"/></clipPath></defs></svg></g><a href="https://ourworldindata.org/grapher/distribution-participatory-democracy-popw-vdem" style="font-family:&quot;Playfair Display&quot;,Georgia,&quot;Times New Roman&quot;,serif" target="_blank" rel="noopener"><text font-size="23.4" x="15" y="33.7" fill="#555"><tspan x="15" y="33.72">Distribution of participatory democracy weighted by population, 2021</tspan></text></a><text font-size="14.4" x="15" y="53.9" fill="#666"><tspan x="15" y="53.92">Based on the expert assessments and index by V-Dem. It combines information on voting rights, the freedom and</tspan><tspan x="15" y="71.2">fairness of elections, freedoms of association and expression, as well as the extent to which citizens can engage in</tspan><tspan x="15" y="88.48">regional and local government, civil society organizations, and direct democracy. It ranges from 0 to 1 (most</tspan><tspan x="15" y="105.76">democratic).</tspan></text></g><g class="MarimekkoChart"><g class="DualAxisView"><g class="HorizontalAxis"><text font-size="12.6" x="390.1" y="163.2"><tspan x="390.07" y="163.18">Population</tspan></text><path stroke="#999" d="M65.3 191.9v5M141.3 191.9v5M217.2 191.9v5M293.2 191.9v5M369.2 191.9v5M445.1 191.9v5M521.1 191.9v5M597.1 191.9v5M673.1 191.9v5M749 191.9v5M825 191.9v5"/><text x="65.28" y="185.7" fill="#666" text-anchor="start" font-size="16.2">0%</text><text x="141.3" y="185.7" fill="#666" text-anchor="middle" font-size="16.2">10%</text><text x="217.2" y="185.7" fill="#666" text-anchor="middle" font-size="16.2">20%</text><text x="293.2" y="185.7" fill="#666" text-anchor="middle" font-size="16.2">30%</text><text x="369.2" y="185.7" fill="#666" text-anchor="middle" font-size="16.2">40%</text><text x="445.1" y="185.7" fill="#666" text-anchor="middle" font-size="16.2">50%</text><text x="521.1" y="185.7" fill="#666" text-anchor="middle" font-size="16.2">60%</text><text x="597.1" y="185.7" fill="#666" text-anchor="middle" font-size="16.2">70%</text><text x="673.1" y="185.7" fill="#666" text-anchor="middle" font-size="16.2">80%</text><text x="749" y="185.7" fill="#666" text-anchor="middle" font-size="16.2">90%</text><text x="825" y="185.7" fill="#666" text-anchor="end" font-size="16.2">100%</text></g><g class="VerticalAxis"><text font-size="12.6" x="-378.6" y="25.1" transform="rotate(-90)"><tspan x="-378.61" y="25.08">Participatory democracy</tspan></text><text x="60.28" y="468.7" dy=".32em" text-anchor="end" fill="#666" font-size="16.2">0</text><text x="60.28" y="414.3" dy=".32em" text-anchor="end" fill="#666" font-size="16.2">0.2</text><text x="60.28" y="360" dy=".32em" text-anchor="end" fill="#666" font-size="16.2">0.4</text><text x="60.28" y="305.6" dy=".32em" text-anchor="end" fill="#666" font-size="16.2">0.6</text><text x="60.28" y="251.3" dy=".32em" text-anchor="end" fill="#666" font-size="16.2">0.8</text><text x="60.28" y="196.9" dy=".32em" text-anchor="end" fill="#666" font-size="16.2">1</text></g><g class="AxisGridLines horizontalLines"><path stroke="#999" d="M65.28 468.7H825"/><path stroke="#ddd" stroke-dasharray="3,2" d="M65.28 414.3H825M65.28 360H825M65.28 305.6H825M65.28 251.3H825M65.28 196.9H825"/></g><g class="AxisGridLines verticalLines"><path stroke="#999" d="M65.3 468.68V196.9"/><path stroke="#ddd" stroke-dasharray="3,2" d="M141.3 468.68V196.9M217.2 468.68V196.9M293.2 468.68V196.9M369.2 468.68V196.9M445.1 468.68V196.9M521.1 468.68V196.9M597.1 468.68V196.9M673.1 468.68V196.9M749 468.68V196.9M825 468.68V196.9"/></g></g><g><g class="categoricalColorLegend"><g><path fill="#923E8B" opacity=".7" d="M15 121.6h13.5v13.5H15z"/>,<text x="33.5" y="128.35" dy=".32em" font-size="14.4">Africa</text></g><g><path fill="#5887A1" opacity=".7" d="M82.36 121.6h13.5v13.5h-13.5z"/>,<text x="100.86" y="128.35" dy=".32em" font-size="14.4">Asia</text></g><g><path fill="#2D8587" opacity=".7" d="M140.94 121.6h13.5v13.5h-13.5z"/>,<text x="159.44" y="128.35" dy=".32em" font-size="14.4">Europe</text></g><g><path fill="#4C5C78" opacity=".7" d="M218.1 121.6h13.5v13.5h-13.5z"/>,<text x="236.6" y="128.35" dy=".32em" font-size="14.4">North America</text></g><g><path fill="#E04E4B" opacity=".7" d="M340.76 121.6h13.5v13.5h-13.5z"/>,<text x="359.26" y="128.35" dy=".32em" font-size="14.4">Oceania</text></g><g><path fill="#A8633C" opacity=".7" d="M425.12 121.6h13.5v13.5h-13.5z"/>,<text x="443.62" y="128.35" dy=".32em" font-size="14.4">South America</text></g><g><path fill="#932834" opacity=".7" d="M550.37 121.6h13.5v13.5h-13.5z"/>,<text x="568.87" y="128.35" dy=".32em" font-size="14.4">World</text></g></g></g><pattern id="b" patternUnits="userSpaceOnUse" width="4" height="4" patternTransform="rotate(-45 2 2)"><path d="M-1 2h6" stroke="#ccc" stroke-width="1"/></pattern><path fill="url(#b)" opacity=".5" d="M821.1 442.7h.5v26h-.5z"/><g class="bar"><g><path transform="translate(65.3 255.1)" fill="#2D8587" fill-opacity=".7" stroke="#2D8587" stroke-width=".5" stroke-opacity="1" opacity="1" style="transition:translate 200ms ease" d="M0 0h.8v213.6H0z"/></g></g><g class="bar"><g><path transform="translate(66.1 280.6)" fill="#2D8587" fill-opacity=".7" stroke="#2D8587" stroke-width=".5" stroke-opacity="1" opacity="1" style="transition:translate 200ms ease" d="M0 0h.5v188.1H0z"/></g></g><g class="bar"><g><path transform="translate(66.6 282.2)" fill="#E04E4B" fill-opacity=".7" stroke="#E04E4B" stroke-width=".5" stroke-opacity="1" opacity="1" style="transition:translate 200ms ease" d="M0 0h.4v186.5H0z"/></g></g><g class="bar"><g><path transform="translate(67 284.7)" fill="#2D8587" fill-opacity=".7" stroke="#2D8587" stroke-width=".5" stroke-opacity="1" opacity="1" style="transition:translate 200ms ease" d="M0 0h5.8v184H0z"/></g></g><g class="bar"><g><path transform="translate(72.8 290.7)" fill="#4C5C78" fill-opacity=".7" stroke="#4C5C78" stroke-width=".5" stroke-opacity="1" opacity="1" style="transition:translate 200ms ease" d="M0 0h.5v178H0z"/></g></g><g class="bar"><g><path transform="translate(73.3 290.9)" fill="#2D8587" fill-opacity=".7" stroke="#2D8587" stroke-width=".5" stroke-opacity="1" opacity="1" style="transition:translate 200ms ease" d="M0 0h1v177.8H0z"/></g></g><g class="bar"><g><path transform="translate(74.3 291.5)" fill="#A8633C" fill-opacity=".7" stroke="#A8633C" stroke-width=".5" stroke-opacity="1" opacity="1" style="transition:translate 200ms ease" d="M0 0h.3v177.2H0z"/></g></g><g class="bar"><g><path transform="translate(74.6 293.1)" fill="#2D8587" fill-opacity=".7" stroke="#2D8587" stroke-width=".5" stroke-opacity="1" opacity="1" style="transition:translate 200ms ease" d="M0 0h.5v175.6H0z"/></g></g><g class="bar"><g><path transform="translate(75.1 294.7)" fill="#2D8587" fill-opacity=".7" stroke="#2D8587" stroke-width=".5" stroke-opacity="1" opacity="1" style="transition:translate 200ms ease" d="M0 0h.5v174H0z"/></g></g><g class="bar"><g><path transform="translate(75.6 296.4)" fill="#2D8587" fill-opacity=".7" stroke="#2D8587" stroke-width=".5" stroke-opacity="1" opacity="1" style="transition:translate 200ms ease" d="M0 0h6.6v172.3H0z"/></g></g><g class="bar"><g><path transform="translate(82.2 297.5)" fill="#2D8587" fill-opacity=".7" stroke="#2D8587" stroke-width=".5" stroke-opacity="1" opacity="1" style="transition:translate 200ms ease" d="M0 0h8.1v171.2H0z"/></g></g><g class="bar"><g><path transform="translate(90.3 298.3)" fill="#2D8587" fill-opacity=".7" stroke="#2D8587" stroke-width=".5" stroke-opacity="1" opacity="1" style="transition:translate 200ms ease" d="M0 0h1.1v170.4H0z"/></g></g><g class="bar"><g><path transform="translate(91.4 299.1)" fill="#2D8587" fill-opacity=".7" stroke="#2D8587" stroke-width=".5" stroke-opacity="1" opacity="1" style="transition:translate 200ms ease" d="M0 0h.5v169.6H0z"/></g></g><g class="bar"><g><path transform="translate(91.9 299.1)" fill="#2D8587" fill-opacity=".7" stroke="#2D8587" stroke-width=".5" stroke-opacity="1" opacity="1" style="transition:translate 200ms ease" d="M0 0h.1v169.6H0z"/></g></g><g class="bar"><g><path transform="translate(92 299.9)" fill="#5887A1" fill-opacity=".7" stroke="#5887A1" stroke-width=".5" stroke-opacity="1" opacity="1" style="transition:translate 200ms ease" d="M0 0h2.3v168.8H0z"/></g></g><g class="bar"><g><path transform="translate(94.3 301)" fill="#2D8587" fill-opacity=".7" stroke="#2D8587" stroke-width=".5" stroke-opacity="1" opacity="1" style="transition:translate 200ms ease" d="M0 0h1v167.7H0z"/></g></g><g class="bar"><g><path transform="translate(95.3 301)" fill="#2D8587" fill-opacity=".7" stroke="#2D8587" stroke-width=".5" stroke-opacity="1" opacity="1" style="transition:translate 200ms ease" d="M0 0h6.3v167.7H0z"/></g></g><g class="bar"><g><path transform="translate(101.6 301.8)" fill="#E04E4B" fill-opacity=".7" stroke="#E04E4B" stroke-width=".5" stroke-opacity="1" opacity="1" style="transition:translate 200ms ease" d="M0 0h2.5v166.9H0z"/></g></g><g class="bar"><g><path transform="translate(104.1 302.9)" fill="#4C5C78" fill-opacity=".7" stroke="#4C5C78" stroke-width=".5" stroke-opacity="1" opacity="1" style="transition:translate 200ms ease" d="M0 0h3.7v165.8H0z"/></g></g><g class="bar"><g><path transform="translate(107.8 303.4)" fill="#2D8587" fill-opacity=".7" stroke="#2D8587" stroke-width=".5" stroke-opacity="1" opacity="1" style="transition:translate 200ms ease" d="M0 0h4.5v165.3H0z"/></g></g><g class="bar"><g><path transform="translate(112.3 303.4)" fill="#2D8587" fill-opacity=".7" stroke="#2D8587" stroke-width=".5" stroke-opacity="1" opacity="1" style="transition:translate 200ms ease" d="M0 0h.5v165.3H0z"/></g></g><g class="bar"><g><path transform="translate(112.8 306.7)" fill="#A8633C" fill-opacity=".7" stroke="#A8633C" stroke-width=".5" stroke-opacity="1" opacity="1" style="transition:translate 200ms ease" d="M0 0h1.8v162H0z"/></g></g><g class="bar"><g><path transform="translate(114.6 307.2)" fill="#5887A1" fill-opacity=".7" stroke="#5887A1" stroke-width=".5" stroke-opacity="1" opacity="1" style="transition:translate 200ms ease" d="M0 0h4.9v161.5H0z"/></g></g><g class="bar"><g><path transform="translate(119.5 308.3)" fill="#2D8587" fill-opacity=".7" stroke="#2D8587" stroke-width=".5" stroke-opacity="1" opacity="1" style="transition:translate 200ms ease" d="M0 0h.2v160.4H0z"/></g></g><g class="bar"><g><path transform="translate(119.7 308.6)" fill="#2D8587" fill-opacity=".7" stroke="#2D8587" stroke-width=".5" stroke-opacity="1" opacity="1" style="transition:translate 200ms ease" d="M0 0h.2v160.1H0z"/></g></g><g class="bar"><g><path transform="translate(119.9 309.1)" fill="#2D8587" fill-opacity=".7" stroke="#2D8587" stroke-width=".5" stroke-opacity="1" opacity="1" style="transition:translate 200ms ease" d="M0 0h1.8v159.6H0z"/></g></g><g class="bar"><g><path transform="translate(121.7 309.1)" fill="#2D8587" fill-opacity=".7" stroke="#2D8587" stroke-width=".5" stroke-opacity="1" opacity="1" style="transition:translate 200ms ease" d="M0 0h1.6v159.6H0z"/></g></g><g class="bar"><g><path transform="translate(123.3 309.4)" fill="#2D8587" fill-opacity=".7" stroke="#2D8587" stroke-width=".5" stroke-opacity="1" opacity="1" style="transition:translate 200ms ease" d="M0 0h.9v159.3H0z"/></g></g><g class="bar"><g><path transform="translate(124.2 309.7)" fill="#4C5C78" fill-opacity=".7" stroke="#4C5C78" stroke-width=".5" stroke-opacity="1" opacity="1" style="transition:translate 200ms ease" d="M0 0h32.1v159H0z"/></g></g><g class="bar"><g><path transform="translate(156.3 318.1)" fill="#2D8587" fill-opacity=".7" stroke="#2D8587" stroke-width=".5" stroke-opacity="1" opacity="1" style="transition:translate 200ms ease" d="M0 0h1v150.6H0z"/></g></g><g class="bar"><g><path transform="translate(157.3 319.7)" fill="#A8633C" fill-opacity=".7" stroke="#A8633C" stroke-width=".5" stroke-opacity="1" opacity="1" style="transition:translate 200ms ease" d="M0 0h4.4v149H0z"/></g></g><g class="bar"><g><path transform="translate(161.7 321.6)" fill="#A8633C" fill-opacity=".7" stroke="#A8633C" stroke-width=".5" stroke-opacity="1" opacity="1" style="transition:translate 200ms ease" d="M0 0h3.2v147.1H0z"/></g></g><g class="bar"><g><path transform="translate(164.9 322.2)" fill="#5887A1" fill-opacity=".7" stroke="#5887A1" stroke-width=".5" stroke-opacity="1" opacity="1" style="transition:translate 200ms ease" d="M0 0h12.2v146.5H0z"/></g></g><g class="bar"><g><path transform="translate(177.1 323)" fill="#2D8587" fill-opacity=".7" stroke="#2D8587" stroke-width=".5" stroke-opacity="1" opacity="1" style="transition:translate 200ms ease" d="M0 0h1v145.7H0z"/></g></g><g class="bar"><g><path transform="translate(178.1 324.6)" fill="#2D8587" fill-opacity=".7" stroke="#2D8587" stroke-width=".5" stroke-opacity="1" opacity="1" style="transition:translate 200ms ease" d="M0 0h.1v144.1H0z"/></g></g><g class="bar"><g><path transform="translate(178.2 325.4)" fill="#4C5C78" fill-opacity=".7" stroke="#4C5C78" stroke-width=".5" stroke-opacity="1" opacity="1" style="transition:translate 200ms ease" d="M0 0h.3v143.3H0z"/></g></g><g class="bar"><g><path transform="translate(178.5 326.5)" fill="#2D8587" fill-opacity=".7" stroke="#2D8587" stroke-width=".5" stroke-opacity="1" opacity="1" style="transition:translate 200ms ease" d="M0 0h.4v142.2H0z"/></g></g><g class="bar"><g><path transform="translate(178.9 330.1)" fill="#2D8587" fill-opacity=".7" stroke="#2D8587" stroke-width=".5" stroke-opacity="1" opacity="1" style="transition:translate 200ms ease" d="M0 0h.4v138.6H0z"/></g></g><g class="bar"><g><path transform="translate(179.3 332)" fill="#2D8587" fill-opacity=".7" stroke="#2D8587" stroke-width=".5" stroke-opacity="1" opacity="1" style="transition:translate 200ms ease" d="M0 0h.2v136.7H0z"/></g></g><g class="bar"><g><path transform="translate(179.5 334.1)" fill="#4C5C78" fill-opacity=".7" stroke="#4C5C78" stroke-width=".5" stroke-opacity="1" opacity="1" style="transition:translate 200ms ease" d="M0 0h.1v134.6H0z"/></g></g><g class="bar"><g><path transform="translate(179.6 336)" fill="#5887A1" fill-opacity=".7" stroke="#5887A1" stroke-width=".5" stroke-opacity="1" opacity="1" style="transition:translate 200ms ease" d="M0 0h.8v132.7H0z"/></g></g><g class="bar"><g><path transform="translate(180.4 338.5)" fill="#2D8587" fill-opacity=".7" stroke="#2D8587" stroke-width=".5" stroke-opacity="1" opacity="1" style="transition:translate 200ms ease" d="M0 0h.6v130.2H0z"/></g></g><g class="bar"><g><path transform="translate(181 340.4)" fill="#5887A1" fill-opacity=".7" stroke="#5887A1" stroke-width=".5" stroke-opacity="1" opacity="1" style="transition:translate 200ms ease" d="M0 0h.3v128.3H0z"/></g></g><g class="bar"><g><path transform="translate(181.3 344.2)" fill="#4C5C78" fill-opacity=".7" stroke="#4C5C78" stroke-width=".5" stroke-opacity="1" opacity="1" style="transition:translate 200ms ease" d="M0 0h.4v124.5H0z"/></g></g><g class="bar"><g><path transform="translate(181.7 344.2)" fill="#A8633C" fill-opacity=".7" stroke="#A8633C" stroke-width=".5" stroke-opacity="1" opacity="1" style="transition:translate 200ms ease" d="M0 0h1.7v124.5H0z"/></g></g><g class="bar"><g><path transform="translate(183.4 346.4)" fill="#4C5C78" fill-opacity=".7" stroke="#4C5C78" stroke-width=".5" stroke-opacity="1" opacity="1" style="transition:translate 200ms ease" d="M0 0h1v122.3H0z"/></g></g><g class="bar"><g><path transform="translate(184.4 349.1)" fill="#923E8B" fill-opacity=".7" stroke="#923E8B" stroke-width=".5" stroke-opacity="1" opacity="1" style="transition:translate 200ms ease" d="M0 0h5.8v119.6H0z"/></g></g><g class="bar"><g><path transform="translate(190.2 350.7)" fill="#A8633C" fill-opacity=".7" stroke="#A8633C" stroke-width=".5" stroke-opacity="1" opacity="1" style="transition:translate 200ms ease" d="M0 0h1.1v118H0z"/></g></g><g class="bar"><g><path transform="translate(191.3 351.5)" fill="#A8633C" fill-opacity=".7" stroke="#A8633C" stroke-width=".5" stroke-opacity="1" opacity="1" style="transition:translate 200ms ease" d="M0 0h4.9v117.2H0z"/></g></g><g class="bar"><g><path transform="translate(196.2 354)" fill="#A8633C" fill-opacity=".7" stroke="#A8633C" stroke-width=".5" stroke-opacity="1" opacity="1" style="transition:translate 200ms ease" d="M0 0h20.7v114.7H0z"/></g></g><g class="bar"><g><path transform="translate(216.9 354.8)" fill="#5887A1" fill-opacity=".7" stroke="#5887A1" stroke-width=".5" stroke-opacity="1" opacity="1" style="transition:translate 200ms ease" d="M0 0h.4v113.9H0z"/></g></g><g class="bar"><g><path transform="translate(217.3 356.7)" fill="#923E8B" fill-opacity=".7" stroke="#923E8B" stroke-width=".5" stroke-opacity="1" opacity="1" style="transition:translate 200ms ease" d="M0 0h1.9v112H0z"/></g></g><g class="bar"><g><path transform="translate(219.2 359.7)" fill="#923E8B" fill-opacity=".7" stroke="#923E8B" stroke-width=".5" stroke-opacity="1" opacity="1" style="transition:translate 200ms ease" d="M0 0h.2v109H0z"/></g></g><g class="bar"><g><path transform="translate(219.4 360.5)" fill="#2D8587" fill-opacity=".7" stroke="#2D8587" stroke-width=".5" stroke-opacity="1" opacity="1" style="transition:translate 200ms ease" d="M0 0h.2v108.2H0z"/></g></g><g class="bar"><g><path transform="translate(219.6 362.7)" fill="#923E8B" fill-opacity=".7" stroke="#923E8B" stroke-width=".5" stroke-opacity="1" opacity="1" style="transition:translate 200ms ease" d="M0 0h.2v106H0z"/></g></g><g class="bar"><g><path transform="translate(219.8 363.8)" fill="#5887A1" fill-opacity=".7" stroke="#5887A1" stroke-width=".5" stroke-opacity="1" opacity="1" style="transition:translate 200ms ease" d="M0 0h.1v104.9H0z"/></g></g><g class="bar"><g><path transform="translate(219.9 364.3)" fill="#5887A1" fill-opacity=".7" stroke="#5887A1" stroke-width=".5" stroke-opacity="1" opacity="1" style="transition:translate 200ms ease" d="M0 0h2.8v104.4H0z"/></g></g><g class="bar"><g><path transform="translate(222.7 364.6)" fill="#923E8B" fill-opacity=".7" stroke="#923E8B" stroke-width=".5" stroke-opacity="1" opacity="1" style="transition:translate 200ms ease" d="M0 0h.2v104.1H0z"/></g></g><g class="bar"><g><path transform="translate(222.9 365.1)" fill="#4C5C78" fill-opacity=".7" stroke="#4C5C78" stroke-width=".5" stroke-opacity="1" opacity="1" style="transition:translate 200ms ease" d="M0 0h12.6v103.6H0z"/></g></g><g class="bar"><g><path transform="translate(235.5 365.1)" fill="#5887A1" fill-opacity=".7" stroke="#5887A1" stroke-width=".5" stroke-opacity="1" opacity="1" style="transition:translate 200ms ease" d="M0 0h26.7v103.6H0z"/></g></g><g class="bar"><g><path transform="translate(262.2 365.7)" fill="#923E8B" fill-opacity=".7" stroke="#923E8B" stroke-width=".5" stroke-opacity="1" opacity="1" style="transition:translate 200ms ease" d="M0 0h1.6v103H0z"/></g></g><g class="bar"><g><path transform="translate(263.8 366.8)" fill="#923E8B" fill-opacity=".7" stroke="#923E8B" stroke-width=".5" stroke-opacity="1" opacity="1" style="transition:translate 200ms ease" d="M0 0h1.1v101.9H0z"/></g></g><g class="bar"><g><path transform="translate(264.9 367)" fill="#923E8B" fill-opacity=".7" stroke="#923E8B" stroke-width=".5" stroke-opacity="1" opacity="1" style="transition:translate 200ms ease" d="M0 0h.8v101.7H0z"/></g></g><g class="bar"><g><path transform="translate(265.7 368.1)" fill="#923E8B" fill-opacity=".7" stroke="#923E8B" stroke-width=".5" stroke-opacity="1" opacity="1" style="transition:translate 200ms ease" d="M0 0h2.1v100.6H0z"/></g></g><g class="bar"><g><path transform="translate(267.8 368.4)" fill="#5887A1" fill-opacity=".7" stroke="#5887A1" stroke-width=".5" stroke-opacity="1" opacity="1" style="transition:translate 200ms ease" d="M0 0h.1v100.3H0z"/></g></g><g class="bar"><g><path transform="translate(267.9 368.9)" fill="#923E8B" fill-opacity=".7" stroke="#923E8B" stroke-width=".5" stroke-opacity="1" opacity="1" style="transition:translate 200ms ease" d="M0 0h.1v99.8H0z"/></g></g><g class="bar"><g><path transform="translate(268 369.2)" fill="#2D8587" fill-opacity=".7" stroke="#2D8587" stroke-width=".5" stroke-opacity="1" opacity="1" style="transition:translate 200ms ease" d="M0 0h3.6v99.5H0z"/></g></g><g class="bar"><g><path transform="translate(271.6 373)" fill="#A8633C" fill-opacity=".7" stroke="#A8633C" stroke-width=".5" stroke-opacity="1" opacity="1" style="transition:translate 200ms ease" d="M0 0h.7v95.7H0z"/></g></g><g class="bar"><g><path transform="translate(272.3 375.7)" fill="#923E8B" fill-opacity=".7" stroke="#923E8B" stroke-width=".5" stroke-opacity="1" opacity="1" style="transition:translate 200ms ease" d="M0 0h3v93H0z"/></g></g><g class="bar"><g><path transform="translate(275.3 376.3)" fill="#923E8B" fill-opacity=".7" stroke="#923E8B" stroke-width=".5" stroke-opacity="1" opacity="1" style="transition:translate 200ms ease" d="M0 0h.5v92.4H0z"/></g></g><g class="bar"><g><path transform="translate(275.8 376.5)" fill="#5887A1" fill-opacity=".7" stroke="#5887A1" stroke-width=".5" stroke-opacity="1" opacity="1" style="transition:translate 200ms ease" d="M0 0h.3v92.2H0z"/></g></g><g class="bar"><g><path transform="translate(276.1 379)" fill="#5887A1" fill-opacity=".7" stroke="#5887A1" stroke-width=".5" stroke-opacity="1" opacity="1" style="transition:translate 200ms ease" d="M0 0h2.1v89.7H0z"/></g></g><g class="bar"><g><path transform="translate(278.2 379.5)" fill="#923E8B" fill-opacity=".7" stroke="#923E8B" stroke-width=".5" stroke-opacity="1" opacity="1" style="transition:translate 200ms ease" d="M0 0h20.4v89.2H0z"/></g></g><g class="bar"><g><path transform="translate(298.6 380.1)" fill="#2D8587" fill-opacity=".7" stroke="#2D8587" stroke-width=".5" stroke-opacity="1" opacity="1" style="transition:translate 200ms ease" d="M0 0h4.2v88.6H0z"/></g></g><g class="bar"><g><path transform="translate(302.8 380.3)" fill="#A8633C" fill-opacity=".7" stroke="#A8633C" stroke-width=".5" stroke-opacity="1" opacity="1" style="transition:translate 200ms ease" d="M0 0h.1v88.4H0z"/></g></g><g class="bar"><g><path transform="translate(302.9 380.6)" fill="#2D8587" fill-opacity=".7" stroke="#2D8587" stroke-width=".5" stroke-opacity="1" opacity="1" style="transition:translate 200ms ease" d="M0 0h.3v88.1H0z"/></g></g><g class="bar"><g><path transform="translate(303.2 382)" fill="#923E8B" fill-opacity=".7" stroke="#923E8B" stroke-width=".5" stroke-opacity="1" opacity="1" style="transition:translate 200ms ease" d="M0 0h2.4v86.7H0z"/></g></g><g class="bar"><g><path transform="translate(305.6 383.1)" fill="#923E8B" fill-opacity=".7" stroke="#923E8B" stroke-width=".5" stroke-opacity="1" opacity="1" style="transition:translate 200ms ease" d="M0 0h.2v85.6H0z"/></g></g><g class="bar"><g><path transform="translate(305.8 383.3)" fill="#4C5C78" fill-opacity=".7" stroke="#4C5C78" stroke-width=".5" stroke-opacity="1" opacity="1" style="transition:translate 200ms ease" d="M0 0h1.7v85.4H0z"/></g></g><g class="bar"><g><path transform="translate(307.5 384.4)" fill="#923E8B" fill-opacity=".7" stroke="#923E8B" stroke-width=".5" stroke-opacity="1" opacity="1" style="transition:translate 200ms ease" d="M0 0h2.6v84.3H0z"/></g></g><g class="bar"><g><path transform="translate(310.1 385.5)" fill="#2D8587" fill-opacity=".7" stroke="#2D8587" stroke-width=".5" stroke-opacity="1" opacity="1" style="transition:translate 200ms ease" d="M0 0h.9v83.2H0z"/></g></g><g class="bar"><g><path transform="translate(311 386.1)" fill="#923E8B" fill-opacity=".7" stroke="#923E8B" stroke-width=".5" stroke-opacity="1" opacity="1" style="transition:translate 200ms ease" d="M0 0h5.3v82.6H0z"/></g></g><g class="bar"><g><path transform="translate(316.3 386.9)" fill="#2D8587" fill-opacity=".7" stroke="#2D8587" stroke-width=".5" stroke-opacity="1" opacity="1" style="transition:translate 200ms ease" d="M0 0h.3v81.8H0z"/></g></g><g class="bar"><g><path transform="translate(316.6 390.7)" fill="#5887A1" fill-opacity=".7" stroke="#5887A1" stroke-width=".5" stroke-opacity="1" opacity="1" style="transition:translate 200ms ease" d="M0 0h10.7v78H0z"/></g></g><g class="bar"><g><path transform="translate(327.3 392.6)" fill="#923E8B" fill-opacity=".7" stroke="#923E8B" stroke-width=".5" stroke-opacity="1" opacity="1" style="transition:translate 200ms ease" d="M0 0h2.7v76.1H0z"/></g></g><g class="bar"><g><path transform="translate(330 392.9)" fill="#5887A1" fill-opacity=".7" stroke="#5887A1" stroke-width=".5" stroke-opacity="1" opacity="1" style="transition:translate 200ms ease" d="M0 0h134.6v75.8H0z"/></g></g><g class="bar"><g><path transform="translate(464.6 393.7)" fill="#4C5C78" fill-opacity=".7" stroke="#4C5C78" stroke-width=".5" stroke-opacity="1" opacity="1" style="transition:translate 200ms ease" d="M0 0h.6v75H0z"/></g></g><g class="bar"><g><path transform="translate(465.2 398.6)" fill="#5887A1" fill-opacity=".7" stroke="#5887A1" stroke-width=".5" stroke-opacity="1" opacity="1" style="transition:translate 200ms ease" d="M0 0h.6v70.1H0z"/></g></g><g class="bar"><g><path transform="translate(465.8 398.6)" fill="#923E8B" fill-opacity=".7" stroke="#923E8B" stroke-width=".5" stroke-opacity="1" opacity="1" style="transition:translate 200ms ease" d="M0 0h.2v70.1H0z"/></g></g><g class="bar"><g><path transform="translate(466 399.1)" fill="#923E8B" fill-opacity=".7" stroke="#923E8B" stroke-width=".5" stroke-opacity="1" opacity="1" style="transition:translate 200ms ease" d="M0 0h.4v69.6H0z"/></g></g><g class="bar"><g><path transform="translate(466.4 399.4)" fill="#E04E4B" fill-opacity=".7" stroke="#E04E4B" stroke-width=".5" stroke-opacity="1" opacity="1" style="transition:translate 200ms ease" d="M0 0h.9v69.3H0z"/></g></g><g class="bar"><g><path transform="translate(467.3 399.9)" fill="#5887A1" fill-opacity=".7" stroke="#5887A1" stroke-width=".5" stroke-opacity="1" opacity="1" style="transition:translate 200ms ease" d="M0 0h3.1v68.8H0z"/></g></g><g class="bar"><g><path transform="translate(470.4 400.2)" fill="#4C5C78" fill-opacity=".7" stroke="#4C5C78" stroke-width=".5" stroke-opacity="1" opacity="1" style="transition:translate 200ms ease" d="M0 0h1v68.5H0z"/></g></g><g class="bar"><g><path transform="translate(471.4 402.1)" fill="#923E8B" fill-opacity=".7" stroke="#923E8B" stroke-width=".5" stroke-opacity="1" opacity="1" style="transition:translate 200ms ease" d="M0 0h1.2v66.6H0z"/></g></g><g class="bar"><g><path transform="translate(472.6 403.7)" fill="#923E8B" fill-opacity=".7" stroke="#923E8B" stroke-width=".5" stroke-opacity="1" opacity="1" style="transition:translate 200ms ease" d="M0 0h.8v65H0z"/></g></g><g class="bar"><g><path transform="translate(473.4 404)" fill="#923E8B" fill-opacity=".7" stroke="#923E8B" stroke-width=".5" stroke-opacity="1" opacity="1" style="transition:translate 200ms ease" d="M0 0h1.8v64.7H0z"/></g></g><g class="bar"><g><path transform="translate(475.2 404)" fill="#923E8B" fill-opacity=".7" stroke="#923E8B" stroke-width=".5" stroke-opacity="1" opacity="1" style="transition:translate 200ms ease" d="M0 0h3.1v64.7H0z"/></g></g><g class="bar"><g><path transform="translate(478.3 404.3)" fill="#923E8B" fill-opacity=".7" stroke="#923E8B" stroke-width=".5" stroke-opacity="1" opacity="1" style="transition:translate 200ms ease" d="M0 0h5.9v64.4H0z"/></g></g><g class="bar"><g><path transform="translate(484.2 405.1)" fill="#5887A1" fill-opacity=".7" stroke="#5887A1" stroke-width=".5" stroke-opacity="1" opacity="1" style="transition:translate 200ms ease" d="M0 0h21.7v63.6H0z"/></g></g><g class="bar"><g><path transform="translate(505.9 405.1)" fill="#923E8B" fill-opacity=".7" stroke="#923E8B" stroke-width=".5" stroke-opacity="1" opacity="1" style="transition:translate 200ms ease" d="M0 0h.2v63.6H0z"/></g></g><g class="bar"><g><path transform="translate(506.1 405.9)" fill="#923E8B" fill-opacity=".7" stroke="#923E8B" stroke-width=".5" stroke-opacity="1" opacity="1" style="transition:translate 200ms ease" d="M0 0h.1v62.8H0z"/></g></g><g class="bar"><g><path transform="translate(506.2 407.5)" fill="#5887A1" fill-opacity=".7" stroke="#5887A1" stroke-width=".5" stroke-opacity="1" opacity="1" style="transition:translate 200ms ease" d="M0 0h4v61.2H0z"/></g></g><g class="bar"><g><path transform="translate(510.2 407.8)" fill="#2D8587" fill-opacity=".7" stroke="#2D8587" stroke-width=".5" stroke-opacity="1" opacity="1" style="transition:translate 200ms ease" d="M0 0h.8v60.9H0z"/></g></g><g class="bar"><g><path transform="translate(511 408.1)" fill="#5887A1" fill-opacity=".7" stroke="#5887A1" stroke-width=".5" stroke-opacity="1" opacity="1" style="transition:translate 200ms ease" d="M0 0h.6v60.6H0z"/></g></g><g class="bar"><g><path transform="translate(511.6 408.9)" fill="#923E8B" fill-opacity=".7" stroke="#923E8B" stroke-width=".5" stroke-opacity="1" opacity="1" style="transition:translate 200ms ease" d="M0 0h8.9v59.8H0z"/></g></g><g class="bar"><g><path transform="translate(520.5 412.7)" fill="#923E8B" fill-opacity=".7" stroke="#923E8B" stroke-width=".5" stroke-opacity="1" opacity="1" style="transition:translate 200ms ease" d="M0 0h1.3v56H0z"/></g></g><g class="bar"><g><path transform="translate(521.8 414)" fill="#4C5C78" fill-opacity=".7" stroke="#4C5C78" stroke-width=".5" stroke-opacity="1" opacity="1" style="transition:translate 200ms ease" d="M0 0h1.1v54.7H0z"/></g></g><g class="bar"><g><path transform="translate(522.9 415.7)" fill="#923E8B" fill-opacity=".7" stroke="#923E8B" stroke-width=".5" stroke-opacity="1" opacity="1" style="transition:translate 200ms ease" d="M0 0h1.4v53H0z"/></g></g><g class="bar"><g><path transform="translate(524.3 416)" fill="#923E8B" fill-opacity=".7" stroke="#923E8B" stroke-width=".5" stroke-opacity="1" opacity="1" style="transition:translate 200ms ease" d="M0 0h.5v52.7H0z"/></g></g><g class="bar"><g><path transform="translate(524.8 416.8)" fill="#E04E4B" fill-opacity=".7" stroke="#E04E4B" stroke-width=".5" stroke-opacity="1" opacity="1" style="transition:translate 200ms ease" d="M0 0h.1v51.9H0z"/></g></g><g class="bar"><g><path transform="translate(524.9 417)" fill="#923E8B" fill-opacity=".7" stroke="#923E8B" stroke-width=".5" stroke-opacity="1" opacity="1" style="transition:translate 200ms ease" d="M0 0h4.5v51.7H0z"/></g></g><g class="bar"><g><path transform="translate(529.4 418.1)" fill="#5887A1" fill-opacity=".7" stroke="#5887A1" stroke-width=".5" stroke-opacity="1" opacity="1" style="transition:translate 200ms ease" d="M0 0h9.5v50.6H0z"/></g></g><g class="bar"><g><path transform="translate(538.9 418.7)" fill="#923E8B" fill-opacity=".7" stroke="#923E8B" stroke-width=".5" stroke-opacity="1" opacity="1" style="transition:translate 200ms ease" d="M0 0h2v50H0z"/></g></g><g class="bar"><g><path transform="translate(540.9 420.3)" fill="#923E8B" fill-opacity=".7" stroke="#923E8B" stroke-width=".5" stroke-opacity="1" opacity="1" style="transition:translate 200ms ease" d="M0 0h1.3v48.4H0z"/></g></g><g class="bar"><g><path transform="translate(542.2 420.6)" fill="#2D8587" fill-opacity=".7" stroke="#2D8587" stroke-width=".5" stroke-opacity="1" opacity="1" style="transition:translate 200ms ease" d="M0 0h14.1v48.1H0z"/></g></g><g class="bar"><g><path transform="translate(556.3 422.2)" fill="#A8633C" fill-opacity=".7" stroke="#A8633C" stroke-width=".5" stroke-opacity="1" opacity="1" style="transition:translate 200ms ease" d="M0 0h2.8v46.5H0z"/></g></g><g class="bar"><g><path transform="translate(559.1 424.4)" fill="#923E8B" fill-opacity=".7" stroke="#923E8B" stroke-width=".5" stroke-opacity="1" opacity="1" style="transition:translate 200ms ease" d="M0 0h3.6v44.3H0z"/></g></g><g class="bar"><g><path transform="translate(562.7 425.2)" fill="#5887A1" fill-opacity=".7" stroke="#5887A1" stroke-width=".5" stroke-opacity="1" opacity="1" style="transition:translate 200ms ease" d="M0 0h8.2v43.5H0z"/></g></g><g class="bar"><g><path transform="translate(570.9 426.6)" fill="#923E8B" fill-opacity=".7" stroke="#923E8B" stroke-width=".5" stroke-opacity="1" opacity="1" style="transition:translate 200ms ease" d="M0 0h11.4v42.1H0z"/></g></g><g class="bar"><g><path transform="translate(582.3 429.5)" fill="#923E8B" fill-opacity=".7" stroke="#923E8B" stroke-width=".5" stroke-opacity="1" opacity="1" style="transition:translate 200ms ease" d="M0 0h1.2v39.2H0z"/></g></g><g class="bar"><g><path transform="translate(583.5 430.4)" fill="#923E8B" fill-opacity=".7" stroke="#923E8B" stroke-width=".5" stroke-opacity="1" opacity="1" style="transition:translate 200ms ease" d="M0 0h.7v38.3H0z"/></g></g><g class="bar"><g><path transform="translate(584.2 430.9)" fill="#923E8B" fill-opacity=".7" stroke="#923E8B" stroke-width=".5" stroke-opacity="1" opacity="1" style="transition:translate 200ms ease" d="M0 0h.5v37.8H0z"/></g></g><g class="bar"><g><path transform="translate(584.7 431.2)" fill="#4C5C78" fill-opacity=".7" stroke="#4C5C78" stroke-width=".5" stroke-opacity="1" opacity="1" style="transition:translate 200ms ease" d="M0 0h.6v37.5H0z"/></g></g><g class="bar"><g><path transform="translate(585.3 431.2)" fill="#923E8B" fill-opacity=".7" stroke="#923E8B" stroke-width=".5" stroke-opacity="1" opacity="1" style="transition:translate 200ms ease" d="M0 0h.1v37.5H0z"/></g></g><g class="bar"><g><path transform="translate(585.4 432.8)" fill="#5887A1" fill-opacity=".7" stroke="#5887A1" stroke-width=".5" stroke-opacity="1" opacity="1" style="transition:translate 200ms ease" d="M0 0h16v35.9H0z"/></g></g><g class="bar"><g><path transform="translate(601.4 433.6)" fill="#5887A1" fill-opacity=".7" stroke="#5887A1" stroke-width=".5" stroke-opacity="1" opacity="1" style="transition:translate 200ms ease" d="M0 0h1.6v35.1H0z"/></g></g><g class="bar"><g><path transform="translate(603 435.8)" fill="#5887A1" fill-opacity=".7" stroke="#5887A1" stroke-width=".5" stroke-opacity="1" opacity="1" style="transition:translate 200ms ease" d="M0 0h.5v32.9H0z"/></g></g><g class="bar"><g><path transform="translate(603.5 435.8)" fill="#5887A1" fill-opacity=".7" stroke="#5887A1" stroke-width=".5" stroke-opacity="1" opacity="1" style="transition:translate 200ms ease" d="M0 0h.7v32.9H0z"/></g></g><g class="bar"><g><path transform="translate(604.2 436.6)" fill="#923E8B" fill-opacity=".7" stroke="#923E8B" stroke-width=".5" stroke-opacity="1" opacity="1" style="transition:translate 200ms ease" d="M0 0h1.6v32.1H0z"/></g></g><g class="bar"><g><path transform="translate(605.8 436.6)" fill="#923E8B" fill-opacity=".7" stroke="#923E8B" stroke-width=".5" stroke-opacity="1" opacity="1" style="transition:translate 200ms ease" d="M0 0h2.6v32.1H0z"/></g></g><g class="bar"><g><path transform="translate(608.4 436.9)" fill="#923E8B" fill-opacity=".7" stroke="#923E8B" stroke-width=".5" stroke-opacity="1" opacity="1" style="transition:translate 200ms ease" d="M0 0h.1v31.8H0z"/></g></g><g class="bar"><g><path transform="translate(608.5 436.9)" fill="#4C5C78" fill-opacity=".7" stroke="#4C5C78" stroke-width=".5" stroke-opacity="1" opacity="1" style="transition:translate 200ms ease" d="M0 0h1.1v31.8H0z"/></g></g><g class="bar"><g><path transform="translate(609.6 437.1)" fill="#5887A1" fill-opacity=".7" stroke="#5887A1" stroke-width=".5" stroke-opacity="1" opacity="1" style="transition:translate 200ms ease" d="M0 0h1v31.6H0z"/></g></g><g class="bar"><g><path transform="translate(610.6 438)" fill="#5887A1" fill-opacity=".7" stroke="#5887A1" stroke-width=".5" stroke-opacity="1" opacity="1" style="transition:translate 200ms ease" d="M0 0h.5v30.7H0z"/></g></g><g class="bar"><g><path transform="translate(611.1 438)" fill="#923E8B" fill-opacity=".7" stroke="#923E8B" stroke-width=".5" stroke-opacity="1" opacity="1" style="transition:translate 200ms ease" d="M0 0h4.3v30.7H0z"/></g></g><g class="bar"><g><path transform="translate(615.4 438.5)" fill="#5887A1" fill-opacity=".7" stroke="#5887A1" stroke-width=".5" stroke-opacity="1" opacity="1" style="transition:translate 200ms ease" d="M0 0h6.7v30.2H0z"/></g></g><g class="bar"><g><path transform="translate(622.1 441.5)" fill="#923E8B" fill-opacity=".7" stroke="#923E8B" stroke-width=".5" stroke-opacity="1" opacity="1" style="transition:translate 200ms ease" d="M0 0h4.3v27.2H0z"/></g></g><g class="bar"><g><path transform="translate(626.4 442)" fill="#5887A1" fill-opacity=".7" stroke="#5887A1" stroke-width=".5" stroke-opacity="1" opacity="1" style="transition:translate 200ms ease" d="M0 0h.7v26.7H0z"/></g></g><g class="bar"><g><path transform="translate(627.1 442.9)" fill="#923E8B" fill-opacity=".7" stroke="#923E8B" stroke-width=".5" stroke-opacity="1" opacity="1" style="transition:translate 200ms ease" d="M0 0h3.3v25.8H0z"/></g></g><g class="bar"><g><path transform="translate(630.4 443.1)" fill="#923E8B" fill-opacity=".7" stroke="#923E8B" stroke-width=".5" stroke-opacity="1" opacity="1" style="transition:translate 200ms ease" d="M0 0h1.6v25.6H0z"/></g></g><g class="bar"><g><path transform="translate(632 443.1)" fill="#5887A1" fill-opacity=".7" stroke="#5887A1" stroke-width=".5" stroke-opacity="1" opacity="1" style="transition:translate 200ms ease" d="M0 0h1.8v25.6H0z"/></g></g><g class="bar"><g><path transform="translate(633.8 445.3)" fill="#5887A1" fill-opacity=".7" stroke="#5887A1" stroke-width=".5" stroke-opacity="1" opacity="1" style="transition:translate 200ms ease" d="M0 0h.4v23.4H0z"/></g></g><g class="bar"><g><path transform="translate(634.2 446.9)" fill="#923E8B" fill-opacity=".7" stroke="#923E8B" stroke-width=".5" stroke-opacity="1" opacity="1" style="transition:translate 200ms ease" d="M0 0h10.1v21.8H0z"/></g></g><g class="bar"><g><path transform="translate(644.3 448.6)" fill="#5887A1" fill-opacity=".7" stroke="#5887A1" stroke-width=".5" stroke-opacity="1" opacity="1" style="transition:translate 200ms ease" d="M0 0h5.3v20.1H0z"/></g></g><g class="bar"><g><path transform="translate(649.6 450.5)" fill="#5887A1" fill-opacity=".7" stroke="#5887A1" stroke-width=".5" stroke-opacity="1" opacity="1" style="transition:translate 200ms ease" d="M0 0h3.3v18.2H0z"/></g></g><g class="bar"><g><path transform="translate(652.9 450.7)" fill="#5887A1" fill-opacity=".7" stroke="#5887A1" stroke-width=".5" stroke-opacity="1" opacity="1" style="transition:translate 200ms ease" d="M0 0h2.9v18H0z"/></g></g><g class="bar"><g><path transform="translate(655.8 451)" fill="#5887A1" fill-opacity=".7" stroke="#5887A1" stroke-width=".5" stroke-opacity="1" opacity="1" style="transition:translate 200ms ease" d="M0 0h1v17.7H0z"/></g></g><g class="bar"><g><path transform="translate(656.8 451.6)" fill="#2D8587" fill-opacity=".7" stroke="#2D8587" stroke-width=".5" stroke-opacity="1" opacity="1" style="transition:translate 200ms ease" d="M0 0h.9v17.1H0z"/></g></g><g class="bar"><g><path transform="translate(657.7 452.6)" fill="#5887A1" fill-opacity=".7" stroke="#5887A1" stroke-width=".5" stroke-opacity="1" opacity="1" style="transition:translate 200ms ease" d="M0 0h.9v16.1H0z"/></g></g><g class="bar"><g><path transform="translate(658.6 453.5)" fill="#5887A1" fill-opacity=".7" stroke="#5887A1" stroke-width=".5" stroke-opacity="1" opacity="1" style="transition:translate 200ms ease" d="M0 0h8.2v15.2H0z"/></g></g><g class="bar"><g><path transform="translate(666.8 454)" fill="#5887A1" fill-opacity=".7" stroke="#5887A1" stroke-width=".5" stroke-opacity="1" opacity="1" style="transition:translate 200ms ease" d="M0 0h1.7v14.7H0z"/></g></g><g class="bar"><g><path transform="translate(668.5 455.1)" fill="#923E8B" fill-opacity=".7" stroke="#923E8B" stroke-width=".5" stroke-opacity="1" opacity="1" style="transition:translate 200ms ease" d="M0 0h.1v13.6H0z"/></g></g><g class="bar"><g><path transform="translate(668.6 456.2)" fill="#923E8B" fill-opacity=".7" stroke="#923E8B" stroke-width=".5" stroke-opacity="1" opacity="1" style="transition:translate 200ms ease" d="M0 0h1.1v12.5H0z"/></g></g><g class="bar"><g><path transform="translate(669.7 456.7)" fill="#5887A1" fill-opacity=".7" stroke="#5887A1" stroke-width=".5" stroke-opacity="1" opacity="1" style="transition:translate 200ms ease" d="M0 0h2.5v12H0z"/></g></g><g class="bar"><g><path transform="translate(672.2 457)" fill="#5887A1" fill-opacity=".7" stroke="#5887A1" stroke-width=".5" stroke-opacity="1" opacity="1" style="transition:translate 200ms ease" d="M0 0h3.8v11.7H0z"/></g></g><g class="bar"><g><path transform="translate(676 457.8)" fill="#5887A1" fill-opacity=".7" stroke="#5887A1" stroke-width=".5" stroke-opacity="1" opacity="1" style="transition:translate 200ms ease" d="M0 0h139.5v10.9H0z"/></g></g><g class="bar"><g><path transform="translate(815.5 459.4)" fill="#5887A1" fill-opacity=".7" stroke="#5887A1" stroke-width=".5" stroke-opacity="1" opacity="1" style="transition:translate 200ms ease" d="M0 0h.6v9.3H0z"/></g></g><g class="bar"><g><path transform="translate(816.1 459.4)" fill="#5887A1" fill-opacity=".7" stroke="#5887A1" stroke-width=".5" stroke-opacity="1" opacity="1" style="transition:translate 200ms ease" d="M0 0h.1v9.3H0z"/></g></g><g class="bar"><g><path transform="translate(816.2 460.3)" fill="#5887A1" fill-opacity=".7" stroke="#5887A1" stroke-width=".5" stroke-opacity="1" opacity="1" style="transition:translate 200ms ease" d="M0 0h.9v8.4H0z"/></g></g><g class="bar"><g><path transform="translate(817.1 462.4)" fill="#5887A1" fill-opacity=".7" stroke="#5887A1" stroke-width=".5" stroke-opacity="1" opacity="1" style="transition:translate 200ms ease" d="M0 0h.3v6.3H0z"/></g></g><g class="bar"><g><path transform="translate(817.4 463.5)" fill="#5887A1" fill-opacity=".7" stroke="#5887A1" stroke-width=".5" stroke-opacity="1" opacity="1" style="transition:translate 200ms ease" d="M0 0h3.4v5.2H0z"/></g></g><g class="bar"><g><path transform="translate(820.8 465.7)" fill="#923E8B" fill-opacity=".7" stroke="#923E8B" stroke-width=".5" stroke-opacity="1" opacity="1" style="transition:translate 200ms ease" d="M0 0h.3v3H0z"/></g></g><g class="bar"><g><path transform="translate(821.1 442.7)" fill="#555" fill-opacity=".7" stroke="#555" stroke-width=".5" stroke-opacity=".8" opacity=".2" style="transition:translate 200ms ease" d="M0 0h.5v26H0z"/></g></g><g class="bar-label"><g><text x="-65.27" y="0" width="65.27" height="12.6" font-weight="400" fill="#2D8587" transform="rotate(-45 628.8 167.54)" opacity="1" font-size=".7em" text-anchor="right" dominant-baseline="middle">Switzerland</text></g></g><g class="bar-label"><g><text x="-51.91" y="0" width="51.91" height="12.6" font-weight="400" fill="#2D8587" transform="rotate(-45 645.3 127.7)" opacity="1" font-size=".7em" text-anchor="right" dominant-baseline="middle">Germany</text></g></g><g class="bar-label"><g><text x="-75.98" y="0" width="75.98" height="12.6" font-weight="400" fill="#4C5C78" transform="rotate(-45 666.07 77.55)" opacity="1" font-size=".7em" text-anchor="right" dominant-baseline="middle">United States</text></g></g><g class="bar-label"><g><text x="-31.5" y="0" width="31.5" height="12.6" font-weight="400" fill="#A8633C" transform="rotate(-45 699.22 -2.48)" opacity="1" font-size=".7em" text-anchor="right" dominant-baseline="middle">Brazil</text></g></g><g class="bar-label"><g><text x="-54.94" y="0" width="54.94" height="12.6" font-weight="400" fill="#5887A1" transform="rotate(-45 720.37 -53.54)" opacity="1" font-size=".7em" text-anchor="right" dominant-baseline="middle">Indonesia</text></g></g><g class="bar-label"><g><text x="-39.94" y="0" width="39.94" height="12.6" font-weight="400" fill="#923E8B" transform="rotate(-45 740.15 -101.28)" opacity="1" font-size=".7em" text-anchor="right" dominant-baseline="middle">Nigeria</text></g></g><g class="bar-label"><g><text x="-27.47" y="0" width="27.47" height="12.6" font-weight="400" fill="#5887A1" transform="rotate(-45 794.6 -232.73)" opacity="1" font-size=".7em" text-anchor="right" dominant-baseline="middle">India</text></g></g><g class="bar-label"><g><text x="-48.51" y="0" width="48.51" height="12.6" font-weight="400" fill="#5887A1" transform="rotate(-45 843.47 -350.73)" opacity="1" font-size=".7em" text-anchor="right" dominant-baseline="middle">Pakistan</text></g></g><g class="bar-label"><g><text x="-66.91" y="0" width="66.91" height="12.6" font-weight="400" fill="#5887A1" transform="rotate(-45 892.65 -469.45)" opacity="1" font-size=".7em" text-anchor="right" dominant-baseline="middle">Bangladesh</text></g></g><g class="bar-label"><g><text x="-32.38" y="0" width="32.38" height="12.6" font-weight="400" fill="#923E8B" transform="rotate(-45 915.57 -524.8)" opacity="1" font-size=".7em" text-anchor="right" dominant-baseline="middle">Egypt</text></g></g><g class="bar-label"><g><text x="-21.8" y="0" width="21.8" height="12.6" font-weight="400" fill="#5887A1" transform="rotate(-45 932.08 -564.64)" opacity="1" font-size=".7em" text-anchor="right" dominant-baseline="middle">Iran</text></g></g><g class="bar-label"><g><text x="-37.17" y="0" width="37.17" height="12.6" font-weight="400" fill="#923E8B" transform="rotate(-45 991.95 -709.2)" opacity="1" font-size=".7em" text-anchor="right" dominant-baseline="middle">Eritrea</text></g></g><g class="bar-label"><g><text x="-52.04" y="0" width="52.04" height="12.6" font-weight="400" fill="#5887A1" transform="rotate(-45 1008.46 -749.04)" opacity="1" font-size=".7em" text-anchor="right" dominant-baseline="middle">Palestine</text></g></g><g class="indicator"><path d="M86.25 472.7v8.5h12.46v8.5" stroke="#bbb" stroke-width="1" fill="none"/></g><g class="indicator"><path d="M662.7 472.7v12.75h9.56v4.25" stroke="#bbb" stroke-width="1" fill="none"/></g><g class="indicator"><path d="M820.95 472.7v8.5h-28.94v8.5" stroke="#bbb" stroke-width="1" fill="none"/></g><g class="indicator"><path d="M821.35 472.7v4.25h3.67v12.75" stroke="#bbb" stroke-width="1" fill="none"/></g><g class="indicator"><path d="M65.7 472.7v17" stroke="#bbb" stroke-width="1" fill="none"/></g><g class="indicator"><path d="M140.25 472.7v17" stroke="#bbb" stroke-width="1" fill="none"/></g><g class="indicator"><path d="M206.55 472.7v17" stroke="#bbb" stroke-width="1" fill="none"/></g><g class="indicator"><path d="M248.85 472.7v17" stroke="#bbb" stroke-width="1" fill="none"/></g><g class="indicator"><path d="M288.4 472.7v17" stroke="#bbb" stroke-width="1" fill="none"/></g><g class="indicator"><path d="M397.3 472.7v17" stroke="#bbb" stroke-width="1" fill="none"/></g><g class="indicator"><path d="M495.05 472.7v17" stroke="#bbb" stroke-width="1" fill="none"/></g><g class="indicator"><path d="M593.4 472.7v17" stroke="#bbb" stroke-width="1" fill="none"/></g><g class="indicator"><path d="M639.25 472.7v17" stroke="#bbb" stroke-width="1" fill="none"/></g><text x="0" transform="rotate(-90 618.15 -203.2)" y="0" width=".5" height="26" font-weight="700" fill="#666" opacity="1" font-size=".8em" text-anchor="middle" dominant-baseline="middle" style="pointer-events:none">no data</text></g><g class="SourcesFooter" style="fill:#777"><g style="fill:#777"><text font-size="12.6" x="15" y="582.5"><tspan x="15" y="582.48">Source: OWID based on V-Dem (v12), Gapminder (v6), HYDE (v3.2), UN (2019)</tspan></text></g><text font-size="12.6" x="604.8" y="582.5"><tspan x="604.8" y="582.48"><a target="_blank" style="fill:#777" href="https://ourworldindata.org/democracy">OurWorldInData.org/democracy</a> • <a style="fill:#777" class="cclogo" href="http://creativecommons.org/licenses/by/4.0/deed.en_US" target="_blank">CC BY</a></tspan></text></g></svg>