<svg xmlns="http://www.w3.org/2000/svg" version="1.1" style="background-color:#fff;-webkit-font-smoothing:antialiased" width="850" height="600" viewBox="0 0 850 600" font-family="Lato,'Helvetica Neue',Helvetica,Arial,sans-serif" font-size="18" text-rendering="optimizeLegibility"><g class="HeaderView"><g transform="matrix(.29 0 0 .29 774 15)"><svg className="owidLog" width="210" height="120" viewBox="0 0 210 120" fill="none" xmlns="http://www.w3.org/2000/svg"><g clip-path="url(#clip0)"><path d="M0 0h210v107.89H0V0z" fill="#002147"/><path d="M40.98 32.25c0 2.36-.38 4.53-1.12 6.51a14.26 14.26 0 01-8.1 8.4c-1.9.78-4.02 1.17-6.34 1.17a16.6 16.6 0 01-6.33-1.17 14.31 14.31 0 01-8.08-8.4 18.29 18.29 0 01-1.12-6.51c0-2.36.38-4.53 1.12-6.5.75-1.97 1.8-3.67 3.17-5.1a14.32 14.32 0 014.9-3.34c1.92-.8 4.03-1.19 6.34-1.19 2.32 0 4.43.4 6.34 1.19 1.92.8 3.56 1.9 4.93 3.34a14.87 14.87 0 013.17 5.1 18.1 18.1 0 011.12 6.5zm-4.38 0c0-1.94-.26-3.68-.8-5.22a10.91 10.91 0 00-2.24-3.89 9.68 9.68 0 00-3.52-2.46 11.95 11.95 0 00-4.62-.86c-1.68 0-3.21.28-4.6.86a9.88 9.88 0 00-3.54 2.46 10.91 10.91 0 00-2.24 3.9c-.53 1.53-.8 3.27-.8 5.2 0 1.94.27 3.68.8 5.22a11.17 11.17 0 002.24 3.9 10.01 10.01 0 003.55 2.44c1.38.56 2.9.83 4.6.83s3.24-.27 4.61-.83a9.8 9.8 0 003.52-2.44 11.17 11.17 0 002.25-3.9c.53-1.54.8-3.28.8-5.21zm26.22-6.54V48H60.5c-.56 0-.9-.27-1.05-.81l-.31-2.4a12.45 12.45 0 01-3.26 2.6c-1.2.64-2.58.96-4.13.96-1.22 0-2.3-.2-3.24-.6a6.52 6.52 0 01-2.33-1.7 7.37 7.37 0 01-1.43-2.67c-.3-1.04-.46-2.2-.46-3.45V25.7h3.91v14.22c0 1.68.38 2.99 1.15 3.91.77.93 1.96 1.39 3.54 1.39 1.16 0 2.24-.27 3.23-.82a10.42 10.42 0 002.8-2.28V25.7h3.91zm8.61 4.47a9.94 9.94 0 012.6-3.56 5.64 5.64 0 013.76-1.3c.47 0 .92.05 1.34.15.44.1.83.27 1.17.49l-.3 2.92c-.09.37-.3.55-.66.55-.2 0-.5-.04-.9-.13a6.21 6.21 0 00-3.24.18 4.23 4.23 0 00-1.47.92c-.42.4-.81.9-1.17 1.5-.33.58-.64 1.26-.92 2.02V48H67.7V25.71h2.25c.42 0 .72.08.88.25.16.16.27.44.33.83l.26 3.39zm61.16-13.7L122.75 48h-3.82l-7.99-24.05a21.95 21.95 0 01-.42-1.58 38.36 38.36 0 01-.44 1.58L102.05 48h-3.83L88.4 16.47h3.54c.38 0 .7.1.95.29.26.2.43.43.5.73l6.52 21.9.28 1.28.29 1.46.3-1.46.38-1.27 7.41-21.91c.1-.25.26-.48.51-.69.27-.22.58-.33.95-.33h1.23c.38 0 .69.1.92.29a1.77 1.77 0 01.53.73l7.4 21.9a28.4 28.4 0 01.68 2.62 29.52 29.52 0 01.52-2.61l6.54-21.91a1.31 1.31 0 01.48-.7c.27-.21.58-.32.95-.32h3.32zm9.35 8.88c1.63 0 3.1.27 4.4.82a9.43 9.43 0 015.46 5.94c.5 1.4.74 2.98.74 4.73 0 1.76-.25 3.34-.74 4.75a9.43 9.43 0 01-5.46 5.92c-1.3.52-2.77.79-4.4.79-1.64 0-3.12-.27-4.44-.8a9.42 9.42 0 01-3.35-2.3c-.92-1-1.63-2.2-2.13-3.61-.49-1.41-.73-3-.73-4.75s.24-3.33.73-4.73c.5-1.43 1.2-2.64 2.13-3.63a9.4 9.4 0 013.35-2.31c1.32-.55 2.8-.82 4.44-.82zm0 19.89c2.2 0 3.84-.73 4.93-2.2 1.08-1.48 1.63-3.54 1.63-6.18 0-2.66-.55-4.72-1.63-6.2-1.09-1.49-2.73-2.23-4.93-2.23-1.12 0-2.09.2-2.93.57a5.71 5.71 0 00-2.06 1.65 7.5 7.5 0 00-1.24 2.67c-.26 1.04-.4 2.22-.4 3.54 0 2.64.55 4.7 1.64 6.18 1.1 1.47 2.76 2.2 4.99 2.2zm17.97-15.07a9.94 9.94 0 012.6-3.56 5.64 5.64 0 013.76-1.3c.47 0 .91.05 1.34.15.44.1.83.27 1.16.49l-.28 2.92c-.09.37-.31.55-.66.55-.2 0-.5-.04-.9-.13a6.2 6.2 0 00-3.24.18 4.23 4.23 0 00-1.47.92c-.43.4-.82.9-1.17 1.5a13.1 13.1 0 00-.92 2.02V48h-3.94V25.71h2.24c.43 0 .72.08.88.25.17.16.28.44.33.83l.27 3.39zm15.04-14.59V48h-3.92V15.6h3.92zm19.55 15.43a6.22 6.22 0 00-2.38-2.05 6.7 6.7 0 00-2.86-.6c-2.07 0-3.66.75-4.77 2.23-1.12 1.48-1.68 3.6-1.68 6.33 0 1.46.13 2.7.38 3.74a7.29 7.29 0 001.1 2.56 4.35 4.35 0 001.78 1.45c.7.3 1.5.46 2.4.46 1.29 0 2.41-.3 3.36-.88a9.6 9.6 0 002.67-2.49V31.02zm3.91-15.43V48h-2.33c-.56 0-.9-.27-1.06-.81l-.35-2.71a12.13 12.13 0 01-3.25 2.77 8.28 8.28 0 01-4.23 1.06 7.31 7.31 0 01-6.14-2.9c-.73-.96-1.3-2.15-1.69-3.57a18.35 18.35 0 01.07-9.48 11.29 11.29 0 011.89-3.7 8.7 8.7 0 017.06-3.34 7.96 7.96 0 016.12 2.62V15.59h3.91zM46.61 70.71V93H42.7V70.71h3.91zm.84-7c0 .39-.08.75-.24 1.09a2.81 2.81 0 01-1.52 1.47 2.67 2.67 0 01-2.16 0 2.9 2.9 0 01-1.45-1.47 2.67 2.67 0 010-2.16c.15-.35.35-.65.6-.9.25-.27.53-.47.85-.62a2.67 2.67 0 012.16 0c.35.15.65.35.9.62.27.25.47.55.62.9.16.34.24.7.24 1.08zm7.97 10.24c.49-.54 1-1.04 1.54-1.48a9.85 9.85 0 013.66-1.84 8.96 8.96 0 015.43.35c.94.4 1.72.97 2.33 1.71a7.36 7.36 0 011.43 2.67c.32 1.04.49 2.19.49 3.45V93h-3.94V78.81c0-1.69-.4-3-1.17-3.92-.76-.93-1.93-1.4-3.5-1.4a6.6 6.6 0 00-3.25.83c-1 .56-1.92 1.31-2.77 2.27V93h-3.94V70.71h2.35c.56 0 .9.28 1.04.82l.3 2.42zm57.7 3.3c0 2.36-.37 4.5-1.11 6.44a14.3 14.3 0 01-3.17 4.98 14.1 14.1 0 01-4.93 3.2c-1.9.76-4.02 1.13-6.33 1.13H85.8V61.47h11.77c2.31 0 4.42.39 6.33 1.15a13.8 13.8 0 018.1 8.18 17.75 17.75 0 011.12 6.45zm-4.37 0c0-1.94-.26-3.67-.8-5.2a10.94 10.94 0 00-2.23-3.87 9.57 9.57 0 00-3.53-2.42 12.23 12.23 0 00-4.61-.83h-7.5v24.62h7.5c1.7 0 3.24-.28 4.61-.84a9.7 9.7 0 003.53-2.4 10.94 10.94 0 002.24-3.87c.53-1.53.8-3.26.8-5.2zm19.8 5.72c-1.8.06-3.34.2-4.62.44-1.26.22-2.3.51-3.1.88-.8.36-1.37.8-1.74 1.3-.35.5-.53 1.05-.53 1.67 0 .58.1 1.1.3 1.52a3 3 0 00.76 1.05c.34.27.73.46 1.17.6a6.13 6.13 0 001.45.17 7.28 7.28 0 003.5-.81 11.95 11.95 0 002.82-2.2v-4.62zm-12.65-9.11a12.73 12.73 0 013.98-2.66c1.43-.59 3-.88 4.73-.88 1.25 0 2.36.2 3.33.61a6.81 6.81 0 013.94 4.38c.33 1.04.5 2.19.5 3.43V93h-1.74a1.8 1.8 0 01-.88-.18c-.2-.13-.36-.38-.48-.74l-.44-2.12-1.72 1.46a9.48 9.48 0 01-3.74 1.7c-.69.15-1.46.23-2.3.23-.87 0-1.69-.12-2.45-.35a5.34 5.34 0 01-3.34-2.93 6.64 6.64 0 01-.49-2.64c0-.88.25-1.72.73-2.53a6.33 6.33 0 012.35-2.17c1.09-.63 2.5-1.15 4.25-1.54 1.75-.41 3.89-.65 6.42-.7v-1.75c0-1.73-.37-3.03-1.12-3.91-.75-.9-1.84-1.34-3.28-1.34-.97 0-1.78.12-2.44.37-.64.23-1.2.5-1.7.81l-1.23.82c-.33.23-.67.35-1 .35-.27 0-.5-.07-.69-.2a2.1 2.1 0 01-.48-.53l-.7-1.25zm27.67 19.5c-1.76 0-3.12-.5-4.07-1.48-.94-.98-1.41-2.4-1.41-4.25V74h-2.68a.9.9 0 01-.6-.2c-.16-.14-.24-.36-.24-.66v-1.56l3.65-.46.9-6.89a.9.9 0 01.29-.52.88.88 0 01.62-.22H142v7.67h6.44V74H142v13.38c0 .94.22 1.63.68 2.09.45.45 1.04.68 1.76.68a3.21 3.21 0 001.85-.53l.55-.35c.16-.12.3-.18.41-.18.2 0 .4.13.55.38l1.15 1.87a7.45 7.45 0 01-2.44 1.5 8.53 8.53 0 01-2.95.52zm19.68-10.4c-1.8.07-3.34.21-4.62.45-1.26.22-2.3.51-3.1.88-.8.36-1.37.8-1.74 1.3-.35.5-.53 1.05-.53 1.67 0 .58.1 1.1.3 1.52a2.9 2.9 0 00.76 1.05c.34.27.73.46 1.17.6a6.13 6.13 0 001.45.17 7.3 7.3 0 003.5-.81 12.04 12.04 0 002.82-2.2v-4.62zm-12.65-9.1a12.72 12.72 0 013.99-2.66c1.42-.59 3-.88 4.72-.88 1.25 0 2.36.2 3.33.61a6.81 6.81 0 013.94 4.38c.33 1.04.5 2.19.5 3.43V93h-1.74a1.8 1.8 0 01-.88-.18c-.2-.13-.36-.38-.48-.74l-.44-2.12-1.72 1.46a9.48 9.48 0 01-3.74 1.7c-.69.15-1.46.23-2.3.23-.87 0-1.69-.12-2.45-.35a5.33 5.33 0 01-3.34-2.93 6.62 6.62 0 01-.49-2.64c0-.88.25-1.72.73-2.53a6.33 6.33 0 012.35-2.17c1.09-.63 2.5-1.15 4.25-1.54a31.2 31.2 0 016.42-.7v-1.75c0-1.73-.37-3.03-1.12-3.91-.75-.9-1.84-1.34-3.28-1.34-.97 0-1.78.12-2.44.37-.64.23-1.2.5-1.7.81l-1.22.82c-.34.23-.68.35-1.02.35-.26 0-.49-.07-.68-.2a1.88 1.88 0 01-.48-.53l-.7-1.25zM40.98 32.25c0 2.36-.38 4.53-1.12 6.51a14.26 14.26 0 01-8.1 8.4c-1.9.78-4.02 1.17-6.34 1.17a16.6 16.6 0 01-6.33-1.17 14.31 14.31 0 01-8.08-8.4 18.29 18.29 0 01-1.12-6.51c0-2.36.38-4.53 1.12-6.5.75-1.97 1.8-3.67 3.17-5.1a14.32 14.32 0 014.9-3.34c1.92-.8 4.03-1.19 6.34-1.19 2.32 0 4.43.4 6.34 1.19 1.92.8 3.56 1.9 4.93 3.34a14.87 14.87 0 013.17 5.1 18.1 18.1 0 011.12 6.5zm-4.38 0c0-1.94-.26-3.68-.8-5.22a10.91 10.91 0 00-2.24-3.89 9.68 9.68 0 00-3.52-2.46 11.95 11.95 0 00-4.62-.86c-1.68 0-3.21.28-4.6.86a9.88 9.88 0 00-3.54 2.46 10.91 10.91 0 00-2.24 3.9c-.53 1.53-.8 3.27-.8 5.2 0 1.94.27 3.68.8 5.22a11.17 11.17 0 002.24 3.9 10.01 10.01 0 003.55 2.44c1.38.56 2.9.83 4.6.83s3.24-.27 4.61-.83a9.8 9.8 0 003.52-2.44 11.17 11.17 0 002.25-3.9c.53-1.54.8-3.28.8-5.21zm26.22-6.54V48H60.5c-.56 0-.9-.27-1.05-.81l-.31-2.4a12.45 12.45 0 01-3.26 2.6c-1.2.64-2.58.96-4.13.96-1.22 0-2.3-.2-3.24-.6a6.52 6.52 0 01-2.33-1.7 7.37 7.37 0 01-1.43-2.67c-.3-1.04-.46-2.2-.46-3.45V25.7h3.91v14.22c0 1.68.38 2.99 1.15 3.91.77.93 1.96 1.39 3.54 1.39 1.16 0 2.24-.27 3.23-.82a10.42 10.42 0 002.8-2.28V25.7h3.91zm8.61 4.47a9.94 9.94 0 012.6-3.56 5.64 5.64 0 013.76-1.3c.47 0 .92.05 1.34.15.44.1.83.27 1.17.49l-.3 2.92c-.09.37-.3.55-.66.55-.2 0-.5-.04-.9-.13a6.21 6.21 0 00-3.24.18 4.23 4.23 0 00-1.47.92c-.42.4-.81.9-1.17 1.5-.33.58-.64 1.26-.92 2.02V48H67.7V25.71h2.25c.42 0 .72.08.88.25.16.16.27.44.33.83l.26 3.39zm61.16-13.7L122.75 48h-3.82l-7.99-24.05a21.95 21.95 0 01-.42-1.58 38.36 38.36 0 01-.44 1.58L102.05 48h-3.83L88.4 16.47h3.54c.38 0 .7.1.95.29.26.2.43.43.5.73l6.52 21.9.28 1.28.29 1.46.3-1.46.38-1.27 7.41-21.91c.1-.25.26-.48.51-.69.27-.22.58-.33.95-.33h1.23c.38 0 .69.1.92.29a1.77 1.77 0 01.53.73l7.4 21.9a28.4 28.4 0 01.68 2.62 29.52 29.52 0 01.52-2.61l6.54-21.91a1.31 1.31 0 01.48-.7c.27-.21.58-.32.95-.32h3.32zm9.35 8.88c1.63 0 3.1.27 4.4.82a9.43 9.43 0 015.46 5.94c.5 1.4.74 2.98.74 4.73 0 1.76-.25 3.34-.74 4.75a9.43 9.43 0 01-5.46 5.92c-1.3.52-2.77.79-4.4.79-1.64 0-3.12-.27-4.44-.8a9.42 9.42 0 01-3.35-2.3c-.92-1-1.63-2.2-2.13-3.61-.49-1.41-.73-3-.73-4.75s.24-3.33.73-4.73c.5-1.43 1.2-2.64 2.13-3.63a9.4 9.4 0 013.35-2.31c1.32-.55 2.8-.82 4.44-.82zm0 19.89c2.2 0 3.84-.73 4.93-2.2 1.08-1.48 1.63-3.54 1.63-6.18 0-2.66-.55-4.72-1.63-6.2-1.09-1.49-2.73-2.23-4.93-2.23-1.12 0-2.09.2-2.93.57a5.71 5.71 0 00-2.06 1.65 7.5 7.5 0 00-1.24 2.67c-.26 1.04-.4 2.22-.4 3.54 0 2.64.55 4.7 1.64 6.18 1.1 1.47 2.76 2.2 4.99 2.2zm17.97-15.07a9.94 9.94 0 012.6-3.56 5.64 5.64 0 013.76-1.3c.47 0 .91.05 1.34.15.44.1.83.27 1.16.49l-.28 2.92c-.09.37-.31.55-.66.55-.2 0-.5-.04-.9-.13a6.2 6.2 0 00-3.24.18 4.23 4.23 0 00-1.47.92c-.43.4-.82.9-1.17 1.5a13.1 13.1 0 00-.92 2.02V48h-3.94V25.71h2.24c.43 0 .72.08.88.25.17.16.28.44.33.83l.27 3.39zm15.04-14.59V48h-3.92V15.6h3.92zm19.55 15.43a6.22 6.22 0 00-2.38-2.05 6.7 6.7 0 00-2.86-.6c-2.07 0-3.66.75-4.77 2.23-1.12 1.48-1.68 3.6-1.68 6.33 0 1.46.13 2.7.38 3.74a7.29 7.29 0 001.1 2.56 4.35 4.35 0 001.78 1.45c.7.3 1.5.46 2.4.46 1.29 0 2.41-.3 3.36-.88a9.6 9.6 0 002.67-2.49V31.02zm3.91-15.43V48h-2.33c-.56 0-.9-.27-1.06-.81l-.35-2.71a12.13 12.13 0 01-3.25 2.77 8.28 8.28 0 01-4.23 1.06 7.31 7.31 0 01-6.14-2.9c-.73-.96-1.3-2.15-1.69-3.57a18.35 18.35 0 01.07-9.48 11.29 11.29 0 011.89-3.7 8.7 8.7 0 017.06-3.34 7.96 7.96 0 016.12 2.62V15.59h3.91zM46.61 70.71V93H42.7V70.71h3.91zm.84-7c0 .39-.08.75-.24 1.09a2.81 2.81 0 01-1.52 1.47 2.67 2.67 0 01-2.16 0 2.9 2.9 0 01-1.45-1.47 2.67 2.67 0 010-2.16c.15-.35.35-.65.6-.9.25-.27.53-.47.85-.62a2.67 2.67 0 012.16 0c.35.15.65.35.9.62.27.25.47.55.62.9.16.34.24.7.24 1.08zm7.97 10.24c.49-.54 1-1.04 1.54-1.48a9.85 9.85 0 013.66-1.84 8.96 8.96 0 015.43.35c.94.4 1.72.97 2.33 1.71a7.36 7.36 0 011.43 2.67c.32 1.04.49 2.19.49 3.45V93h-3.94V78.81c0-1.69-.4-3-1.17-3.92-.76-.93-1.93-1.4-3.5-1.4a6.6 6.6 0 00-3.25.83c-1 .56-1.92 1.31-2.77 2.27V93h-3.94V70.71h2.35c.56 0 .9.28 1.04.82l.3 2.42zm57.7 3.3c0 2.36-.37 4.5-1.11 6.44a14.3 14.3 0 01-3.17 4.98 14.1 14.1 0 01-4.93 3.2c-1.9.76-4.02 1.13-6.33 1.13H85.8V61.47h11.77c2.31 0 4.42.39 6.33 1.15a13.8 13.8 0 018.1 8.18 17.75 17.75 0 011.12 6.45zm-4.37 0c0-1.94-.26-3.67-.8-5.2a10.94 10.94 0 00-2.23-3.87 9.57 9.57 0 00-3.53-2.42 12.23 12.23 0 00-4.61-.83h-7.5v24.62h7.5c1.7 0 3.24-.28 4.61-.84a9.7 9.7 0 003.53-2.4 10.94 10.94 0 002.24-3.87c.53-1.53.8-3.26.8-5.2zm19.8 5.72c-1.8.06-3.34.2-4.62.44-1.26.22-2.3.51-3.1.88-.8.36-1.37.8-1.74 1.3-.35.5-.53 1.05-.53 1.67 0 .58.1 1.1.3 1.52a3 3 0 00.76 1.05c.34.27.73.46 1.17.6a6.13 6.13 0 001.45.17 7.28 7.28 0 003.5-.81 11.95 11.95 0 002.82-2.2v-4.62zm-12.65-9.11a12.73 12.73 0 013.98-2.66c1.43-.59 3-.88 4.73-.88 1.25 0 2.36.2 3.33.61a6.81 6.81 0 013.94 4.38c.33 1.04.5 2.19.5 3.43V93h-1.74a1.8 1.8 0 01-.88-.18c-.2-.13-.36-.38-.48-.74l-.44-2.12-1.72 1.46a9.48 9.48 0 01-3.74 1.7c-.69.15-1.46.23-2.3.23-.87 0-1.69-.12-2.45-.35a5.34 5.34 0 01-3.34-2.93 6.64 6.64 0 01-.49-2.64c0-.88.25-1.72.73-2.53a6.33 6.33 0 012.35-2.17c1.09-.63 2.5-1.15 4.25-1.54 1.75-.41 3.89-.65 6.42-.7v-1.75c0-1.73-.37-3.03-1.12-3.91-.75-.9-1.84-1.34-3.28-1.34-.97 0-1.78.12-2.44.37-.64.23-1.2.5-1.7.81l-1.23.82c-.33.23-.67.35-1 .35-.27 0-.5-.07-.69-.2a2.1 2.1 0 01-.48-.53l-.7-1.25zm27.67 19.5c-1.76 0-3.12-.5-4.07-1.48-.94-.98-1.41-2.4-1.41-4.25V74h-2.68a.9.9 0 01-.6-.2c-.16-.14-.24-.36-.24-.66v-1.56l3.65-.46.9-6.89a.9.9 0 01.29-.52.88.88 0 01.62-.22H142v7.67h6.44V74H142v13.38c0 .94.22 1.63.68 2.09.45.45 1.04.68 1.76.68a3.21 3.21 0 001.85-.53l.55-.35c.16-.12.3-.18.41-.18.2 0 .4.13.55.38l1.15 1.87a7.45 7.45 0 01-2.44 1.5 8.53 8.53 0 01-2.95.52zm19.68-10.4c-1.8.07-3.34.21-4.62.45-1.26.22-2.3.51-3.1.88-.8.36-1.37.8-1.74 1.3-.35.5-.53 1.05-.53 1.67 0 .58.1 1.1.3 1.52a2.9 2.9 0 00.76 1.05c.34.27.73.46 1.17.6a6.13 6.13 0 001.45.17 7.3 7.3 0 003.5-.81 12.04 12.04 0 002.82-2.2v-4.62zm-12.65-9.1a12.72 12.72 0 013.99-2.66c1.42-.59 3-.88 4.72-.88 1.25 0 2.36.2 3.33.61a6.81 6.81 0 013.94 4.38c.33 1.04.5 2.19.5 3.43V93h-1.74a1.8 1.8 0 01-.88-.18c-.2-.13-.36-.38-.48-.74l-.44-2.12-1.72 1.46a9.48 9.48 0 01-3.74 1.7c-.69.15-1.46.23-2.3.23-.87 0-1.69-.12-2.45-.35a5.33 5.33 0 01-3.34-2.93 6.62 6.62 0 01-.49-2.64c0-.88.25-1.72.73-2.53a6.33 6.33 0 012.35-2.17c1.09-.63 2.5-1.15 4.25-1.54a31.2 31.2 0 016.42-.7v-1.75c0-1.73-.37-3.03-1.12-3.91-.75-.9-1.84-1.34-3.28-1.34-.97 0-1.78.12-2.44.37-.64.23-1.2.5-1.7.81l-1.22.82c-.34.23-.68.35-1.02.35-.26 0-.49-.07-.68-.2a1.88 1.88 0 01-.48-.53l-.7-1.25zM40.98 32.25c0 2.36-.38 4.53-1.12 6.51a14.26 14.26 0 01-8.1 8.4c-1.9.78-4.02 1.17-6.34 1.17a16.6 16.6 0 01-6.33-1.17 14.31 14.31 0 01-8.08-8.4 18.29 18.29 0 01-1.12-6.51c0-2.36.38-4.53 1.12-6.5.75-1.97 1.8-3.67 3.17-5.1a14.32 14.32 0 014.9-3.34c1.92-.8 4.03-1.19 6.34-1.19 2.32 0 4.43.4 6.34 1.19 1.92.8 3.56 1.9 4.93 3.34a14.87 14.87 0 013.17 5.1 18.1 18.1 0 011.12 6.5zm-4.38 0c0-1.94-.26-3.68-.8-5.22a10.91 10.91 0 00-2.24-3.89 9.68 9.68 0 00-3.52-2.46 11.95 11.95 0 00-4.62-.86c-1.68 0-3.21.28-4.6.86a9.88 9.88 0 00-3.54 2.46 10.91 10.91 0 00-2.24 3.9c-.53 1.53-.8 3.27-.8 5.2 0 1.94.27 3.68.8 5.22a11.17 11.17 0 002.24 3.9 10.01 10.01 0 003.55 2.44c1.38.56 2.9.83 4.6.83s3.24-.27 4.61-.83a9.8 9.8 0 003.52-2.44 11.17 11.17 0 002.25-3.9c.53-1.54.8-3.28.8-5.21zm26.22-6.54V48H60.5c-.56 0-.9-.27-1.05-.81l-.31-2.4a12.45 12.45 0 01-3.26 2.6c-1.2.64-2.58.96-4.13.96-1.22 0-2.3-.2-3.24-.6a6.52 6.52 0 01-2.33-1.7 7.37 7.37 0 01-1.43-2.67c-.3-1.04-.46-2.2-.46-3.45V25.7h3.91v14.22c0 1.68.38 2.99 1.15 3.91.77.93 1.96 1.39 3.54 1.39 1.16 0 2.24-.27 3.23-.82a10.42 10.42 0 002.8-2.28V25.7h3.91zm8.61 4.47a9.94 9.94 0 012.6-3.56 5.64 5.64 0 013.76-1.3c.47 0 .92.05 1.34.15.44.1.83.27 1.17.49l-.3 2.92c-.09.37-.3.55-.66.55-.2 0-.5-.04-.9-.13a6.21 6.21 0 00-3.24.18 4.23 4.23 0 00-1.47.92c-.42.4-.81.9-1.17 1.5-.33.58-.64 1.26-.92 2.02V48H67.7V25.71h2.25c.42 0 .72.08.88.25.16.16.27.44.33.83l.26 3.39zm61.16-13.7L122.75 48h-3.82l-7.99-24.05a21.95 21.95 0 01-.42-1.58 38.36 38.36 0 01-.44 1.58L102.05 48h-3.83L88.4 16.47h3.54c.38 0 .7.1.95.29.26.2.43.43.5.73l6.52 21.9.28 1.28.29 1.46.3-1.46.38-1.27 7.41-21.91c.1-.25.26-.48.51-.69.27-.22.58-.33.95-.33h1.23c.38 0 .69.1.92.29a1.77 1.77 0 01.53.73l7.4 21.9a28.4 28.4 0 01.68 2.62 29.52 29.52 0 01.52-2.61l6.54-21.91a1.31 1.31 0 01.48-.7c.27-.21.58-.32.95-.32h3.32zm9.35 8.88c1.63 0 3.1.27 4.4.82a9.43 9.43 0 015.46 5.94c.5 1.4.74 2.98.74 4.73 0 1.76-.25 3.34-.74 4.75a9.43 9.43 0 01-5.46 5.92c-1.3.52-2.77.79-4.4.79-1.64 0-3.12-.27-4.44-.8a9.42 9.42 0 01-3.35-2.3c-.92-1-1.63-2.2-2.13-3.61-.49-1.41-.73-3-.73-4.75s.24-3.33.73-4.73c.5-1.43 1.2-2.64 2.13-3.63a9.4 9.4 0 013.35-2.31c1.32-.55 2.8-.82 4.44-.82zm0 19.89c2.2 0 3.84-.73 4.93-2.2 1.08-1.48 1.63-3.54 1.63-6.18 0-2.66-.55-4.72-1.63-6.2-1.09-1.49-2.73-2.23-4.93-2.23-1.12 0-2.09.2-2.93.57a5.71 5.71 0 00-2.06 1.65 7.5 7.5 0 00-1.24 2.67c-.26 1.04-.4 2.22-.4 3.54 0 2.64.55 4.7 1.64 6.18 1.1 1.47 2.76 2.2 4.99 2.2zm17.97-15.07a9.94 9.94 0 012.6-3.56 5.64 5.64 0 013.76-1.3c.47 0 .91.05 1.34.15.44.1.83.27 1.16.49l-.28 2.92c-.09.37-.31.55-.66.55-.2 0-.5-.04-.9-.13a6.2 6.2 0 00-3.24.18 4.23 4.23 0 00-1.47.92c-.43.4-.82.9-1.17 1.5a13.1 13.1 0 00-.92 2.02V48h-3.94V25.71h2.24c.43 0 .72.08.88.25.17.16.28.44.33.83l.27 3.39zm15.04-14.59V48h-3.92V15.6h3.92zm19.55 15.43a6.22 6.22 0 00-2.38-2.05 6.7 6.7 0 00-2.86-.6c-2.07 0-3.66.75-4.77 2.23-1.12 1.48-1.68 3.6-1.68 6.33 0 1.46.13 2.7.38 3.74a7.29 7.29 0 001.1 2.56 4.35 4.35 0 001.78 1.45c.7.3 1.5.46 2.4.46 1.29 0 2.41-.3 3.36-.88a9.6 9.6 0 002.67-2.49V31.02zm3.91-15.43V48h-2.33c-.56 0-.9-.27-1.06-.81l-.35-2.71a12.13 12.13 0 01-3.25 2.77 8.28 8.28 0 01-4.23 1.06 7.31 7.31 0 01-6.14-2.9c-.73-.96-1.3-2.15-1.69-3.57a18.35 18.35 0 01.07-9.48 11.29 11.29 0 011.89-3.7 8.7 8.7 0 017.06-3.34 7.96 7.96 0 016.12 2.62V15.59h3.91zM46.61 70.71V93H42.7V70.71h3.91zm.84-7c0 .39-.08.75-.24 1.09a2.81 2.81 0 01-1.52 1.47 2.67 2.67 0 01-2.16 0 2.9 2.9 0 01-1.45-1.47 2.67 2.67 0 010-2.16c.15-.35.35-.65.6-.9.25-.27.53-.47.85-.62a2.67 2.67 0 012.16 0c.35.15.65.35.9.62.27.25.47.55.62.9.16.34.24.7.24 1.08zm7.97 10.24c.49-.54 1-1.04 1.54-1.48a9.85 9.85 0 013.66-1.84 8.96 8.96 0 015.43.35c.94.4 1.72.97 2.33 1.71a7.36 7.36 0 011.43 2.67c.32 1.04.49 2.19.49 3.45V93h-3.94V78.81c0-1.69-.4-3-1.17-3.92-.76-.93-1.93-1.4-3.5-1.4a6.6 6.6 0 00-3.25.83c-1 .56-1.92 1.31-2.77 2.27V93h-3.94V70.71h2.35c.56 0 .9.28 1.04.82l.3 2.42zm57.7 3.3c0 2.36-.37 4.5-1.11 6.44a14.3 14.3 0 01-3.17 4.98 14.1 14.1 0 01-4.93 3.2c-1.9.76-4.02 1.13-6.33 1.13H85.8V61.47h11.77c2.31 0 4.42.39 6.33 1.15a13.8 13.8 0 018.1 8.18 17.75 17.75 0 011.12 6.45zm-4.37 0c0-1.94-.26-3.67-.8-5.2a10.94 10.94 0 00-2.23-3.87 9.57 9.57 0 00-3.53-2.42 12.23 12.23 0 00-4.61-.83h-7.5v24.62h7.5c1.7 0 3.24-.28 4.61-.84a9.7 9.7 0 003.53-2.4 10.94 10.94 0 002.24-3.87c.53-1.53.8-3.26.8-5.2zm19.8 5.72c-1.8.06-3.34.2-4.62.44-1.26.22-2.3.51-3.1.88-.8.36-1.37.8-1.74 1.3-.35.5-.53 1.05-.53 1.67 0 .58.1 1.1.3 1.52a3 3 0 00.76 1.05c.34.27.73.46 1.17.6a6.13 6.13 0 001.45.17 7.28 7.28 0 003.5-.81 11.95 11.95 0 002.82-2.2v-4.62zm-12.65-9.11a12.73 12.73 0 013.98-2.66c1.43-.59 3-.88 4.73-.88 1.25 0 2.36.2 3.33.61a6.81 6.81 0 013.94 4.38c.33 1.04.5 2.19.5 3.43V93h-1.74a1.8 1.8 0 01-.88-.18c-.2-.13-.36-.38-.48-.74l-.44-2.12-1.72 1.46a9.48 9.48 0 01-3.74 1.7c-.69.15-1.46.23-2.3.23-.87 0-1.69-.12-2.45-.35a5.34 5.34 0 01-3.34-2.93 6.64 6.64 0 01-.49-2.64c0-.88.25-1.72.73-2.53a6.33 6.33 0 012.35-2.17c1.09-.63 2.5-1.15 4.25-1.54 1.75-.41 3.89-.65 6.42-.7v-1.75c0-1.73-.37-3.03-1.12-3.91-.75-.9-1.84-1.34-3.28-1.34-.97 0-1.78.12-2.44.37-.64.23-1.2.5-1.7.81l-1.23.82c-.33.23-.67.35-1 .35-.27 0-.5-.07-.69-.2a2.1 2.1 0 01-.48-.53l-.7-1.25zm27.67 19.5c-1.76 0-3.12-.5-4.07-1.48-.94-.98-1.41-2.4-1.41-4.25V74h-2.68a.9.9 0 01-.6-.2c-.16-.14-.24-.36-.24-.66v-1.56l3.65-.46.9-6.89a.9.9 0 01.29-.52.88.88 0 01.62-.22H142v7.67h6.44V74H142v13.38c0 .94.22 1.63.68 2.09.45.45 1.04.68 1.76.68a3.21 3.21 0 001.85-.53l.55-.35c.16-.12.3-.18.41-.18.2 0 .4.13.55.38l1.15 1.87a7.45 7.45 0 01-2.44 1.5 8.53 8.53 0 01-2.95.52zm19.68-10.4c-1.8.07-3.34.21-4.62.45-1.26.22-2.3.51-3.1.88-.8.36-1.37.8-1.74 1.3-.35.5-.53 1.05-.53 1.67 0 .58.1 1.1.3 1.52a2.9 2.9 0 00.76 1.05c.34.27.73.46 1.17.6a6.13 6.13 0 001.45.17 7.3 7.3 0 003.5-.81 12.04 12.04 0 002.82-2.2v-4.62zm-12.65-9.1a12.72 12.72 0 013.99-2.66c1.42-.59 3-.88 4.72-.88 1.25 0 2.36.2 3.33.61a6.81 6.81 0 013.94 4.38c.33 1.04.5 2.19.5 3.43V93h-1.74a1.8 1.8 0 01-.88-.18c-.2-.13-.36-.38-.48-.74l-.44-2.12-1.72 1.46a9.48 9.48 0 01-3.74 1.7c-.69.15-1.46.23-2.3.23-.87 0-1.69-.12-2.45-.35a5.33 5.33 0 01-3.34-2.93 6.62 6.62 0 01-.49-2.64c0-.88.25-1.72.73-2.53a6.33 6.33 0 012.35-2.17c1.09-.63 2.5-1.15 4.25-1.54a31.2 31.2 0 016.42-.7v-1.75c0-1.73-.37-3.03-1.12-3.91-.75-.9-1.84-1.34-3.28-1.34-.97 0-1.78.12-2.44.37-.64.23-1.2.5-1.7.81l-1.22.82c-.34.23-.68.35-1.02.35-.26 0-.49-.07-.68-.2a1.88 1.88 0 01-.48-.53l-.7-1.25z" fill="#fff"/><path fill="#D42B21" d="M0 106.79h210V120H0z"/></g><defs><clipPath id="clip0"><path fill="#fff" d="M0 0h210v120H0z"/></clipPath></defs></svg></g><a href="https://ourworldindata.org/grapher/fertility-rate-vs-share-of-women-between-25-and-29-years-old-with-no-education" target="_blank" rel="noopener" font-family="&quot;Playfair Display&quot;,Georgia,&quot;Times New Roman&quot;,serif"><text font-size="21.6" x="15" y="32.3" fill="#555"><tspan x="15" y="32.28">Fertility rate vs. share of women, between 25 and 29 years old, with no</tspan><tspan x="15" y="53.88">education</tspan></text></a></g><g class="ScatterPlot"><g class="DualAxisView"><g class="HorizontalAxis"><text font-size="12.6" x="162.4" y="544.9"><tspan x="162.43" y="544.88">Barro-Lee: Percentage of female population age 25-29 with no education</tspan></text><text x="51.67" y="524.8" fill="#666" text-anchor="start" font-size="16.2">0%</text><text x="185.1" y="524.8" fill="#666" text-anchor="middle" font-size="16.2">20%</text><text x="318.6" y="524.8" fill="#666" text-anchor="middle" font-size="16.2">40%</text><text x="452" y="524.8" fill="#666" text-anchor="middle" font-size="16.2">60%</text><text x="585.5" y="524.8" fill="#666" text-anchor="middle" font-size="16.2">80%</text></g><g class="VerticalAxis"><text font-size="12.6" x="-370.8" y="25.1" transform="rotate(-90)"><tspan x="-370.81" y="25.08">Children per woman</tspan></text><text x="46.67" y="503.6" dy=".32em" text-anchor="end" fill="#666" font-size="16.2">0</text><text x="46.67" y="453.2" dy=".32em" text-anchor="end" fill="#666" font-size="16.2">1</text><text x="46.67" y="402.9" dy=".32em" text-anchor="end" fill="#666" font-size="16.2">2</text><text x="46.67" y="352.5" dy=".32em" text-anchor="end" fill="#666" font-size="16.2">3</text><text x="46.67" y="302.1" dy=".32em" text-anchor="end" fill="#666" font-size="16.2">4</text><text x="46.67" y="251.8" dy=".32em" text-anchor="end" fill="#666" font-size="16.2">5</text><text x="46.67" y="201.4" dy=".32em" text-anchor="end" fill="#666" font-size="16.2">6</text><text x="46.67" y="151" dy=".32em" text-anchor="end" fill="#666" font-size="16.2">7</text><text x="46.67" y="100.6" dy=".32em" text-anchor="end" fill="#666" font-size="16.2">8</text></g><g class="AxisGridLines horizontalLines"><path stroke="#999" d="M51.67 503.6h666.42"/><path stroke="#ddd" stroke-dasharray="3,2" d="M51.67 453.2h666.42M51.67 402.9h666.42M51.67 352.5h666.42M51.67 302.1h666.42M51.67 251.8h666.42M51.67 201.4h666.42M51.67 151h666.42M51.67 100.6h666.42"/></g><g class="AxisGridLines verticalLines"><path stroke="#999" d="M51.7 503.6V81.2"/><path stroke="#ddd" stroke-dasharray="3,2" d="M185.1 503.6V81.2M318.6 503.6V81.2M452 503.6V81.2M585.5 503.6V81.2"/></g></g><g class="PointsWithLabels clickable" clip-path="url(#a)" font-family="Arial, sans-serif"><path fill="rgba(255,255,255,0)" d="M51.67 81.2h666.42v422.4H51.67z"/><defs><clipPath id="a"><path d="M41.67 71.2h686.42v442.4H41.67z"/></clipPath></defs><g class="key-China"><circle cx="148" cy="215" r="1.6" fill="#2D8587" stroke="none" opacity=".7"/><path stroke-width="1.42" opacity=".7" stroke="#2D8587" fill="none" stroke-linecap="butt" d="M148 215L57 421"/><path cx="57" cy="421" r="2.62" fill="#2D8587" opacity=".7" d="M60.46 419.66l-4.52 3.74-.28-5.86z"/></g><g class="key-India"><circle cx="594" cy="222" r="1.5" fill="#2D8587" stroke="none" opacity=".7"/><path stroke-width="1.36" opacity=".7" stroke="#2D8587" fill="none" stroke-linecap="butt" d="M594 222L271 373"/><path cx="271" cy="373" r="2.56" fill="#2D8587" opacity=".7" d="M274.4 374.23l-5.72-.15 3.55-4.48z"/></g><g class="key-United-States"><circle cx="57" cy="390" r="1.3" fill="#E04E4B" stroke="none" opacity=".7"/><path stroke-width=".84" opacity=".7" stroke="#E04E4B" fill="none" stroke-linecap="butt" d="M57 390l-5 14"/><path cx="52" cy="404" r="2.04" fill="#E04E4B" opacity=".7" d="M54.6 402.76l-3.29 3.16-.55-4.53z"/></g><g class="key-Indonesia"><circle cx="405" cy="227" r="1.2" fill="#2D8587" stroke="none" opacity=".7"/><path stroke-width=".78" opacity=".7" stroke="#2D8587" fill="none" stroke-linecap="butt" d="M405 227L63 378"/><path cx="63" cy="378" r="1.98" fill="#2D8587" opacity=".7" d="M65.61 379.01l-4.42-.21 2.82-3.41z"/></g><g class="key-Brazil"><circle cx="295" cy="253" r="1.2" fill="#932834" stroke="none" opacity=".7"/><path stroke-width=".73" opacity=".7" stroke="#932834" fill="none" stroke-linecap="butt" d="M295 253L68 413"/><path cx="68" cy="413" r="1.93" fill="#932834" opacity=".7" d="M70.69 413.47l-4.27.64 2.05-3.8z"/></g><g class="key-Pakistan"><circle cx="646" cy="171" r="1.2" fill="#2D8587" stroke="none" opacity=".7"/><path stroke-width=".72" opacity=".7" stroke="#2D8587" fill="none" stroke-linecap="butt" d="M646 171L405 304"/><path cx="405" cy="304" r="1.92" fill="#2D8587" opacity=".7" d="M407.6 304.75l-4.28.18 2.43-3.54z"/></g><g class="key-Bangladesh"><circle cx="636" cy="153" r="1.2" fill="#2D8587" stroke="none" opacity=".7"/><path stroke-width=".68" opacity=".7" stroke="#2D8587" fill="none" stroke-linecap="butt" d="M636 153L207 386"/><path cx="207" cy="386" r="1.88" fill="#2D8587" opacity=".7" d="M209.55 386.75l-4.2.15 2.4-3.45z"/></g><g class="key-Russia"><circle cx="53" cy="403" r="1.2" fill="#4C5C78" stroke="none" opacity=".7"/><path stroke-width=".68" opacity=".7" stroke="#4C5C78" fill="none" stroke-linecap="butt" d="M53 403l1 21"/><path cx="54" cy="424" r="1.88" fill="#4C5C78" opacity=".7" d="M55.79 422.03l-1.7 3.85-2.06-3.67z"/></g><g class="key-Japan"><circle cx="53" cy="397" r="1.2" fill="#2D8587" stroke="none" opacity=".7"/><path stroke-width=".66" opacity=".7" stroke="#2D8587" fill="none" stroke-linecap="butt" d="M53 397l-1 37"/><path cx="52" cy="434" r="1.86" fill="#2D8587" opacity=".7" d="M53.91 432.2l-1.96 3.66-1.76-3.77z"/></g><g class="key-Mexico"><circle cx="271" cy="170" r="1.2" fill="#E04E4B" stroke="none" opacity=".7"/><path stroke-width=".64" opacity=".7" stroke="#E04E4B" fill="none" stroke-linecap="butt" d="M271 170L68 385"/><path cx="68" cy="385" r="1.84" fill="#E04E4B" opacity=".7" d="M70.6 384.93l-3.86 1.4 1.19-3.93z"/></g><g class="key-Philippines"><circle cx="125" cy="188" r="1.1" fill="#2D8587" stroke="none" opacity=".7"/><path stroke-width=".61" opacity=".7" stroke="#2D8587" fill="none" stroke-linecap="butt" d="M125 188L63 343"/><path cx="63" cy="343" r="1.81" fill="#2D8587" opacity=".7" d="M65.35 342l-3.02 2.68-.34-4.03z"/></g><g class="key-Vietnam"><circle cx="146" cy="178" r="1.1" fill="#2D8587" stroke="none" opacity=".7"/><path stroke-width=".6" opacity=".7" stroke="#2D8587" fill="none" stroke-linecap="butt" d="M146 178l-7 228"/><path cx="139" cy="406" r="1.8" fill="#2D8587" opacity=".7" d="M140.85 404.26l-1.9 3.54-1.7-3.65z"/></g><g class="key-Egypt"><circle cx="630" cy="189" r="1.1" fill="#923E8B" stroke="none" opacity=".7"/><path stroke-width=".59" opacity=".7" stroke="#923E8B" fill="none" stroke-linecap="butt" d="M630 189L161 340"/><path cx="161" cy="340" r="1.79" fill="#923E8B" opacity=".7" d="M163.25 341.16l-3.95-.61 2.86-2.8z"/></g><g class="key-Germany"><circle cx="58" cy="400" r="1.2" fill="#4C5C78" stroke="none" opacity=".7"/><path stroke-width=".59" opacity=".7" stroke="#4C5C78" fill="none" stroke-linecap="butt" d="M58 400l4 33"/><path cx="62" cy="433" r="1.79" fill="#4C5C78" opacity=".7" d="M63.56 431l-1.34 3.78-2.21-3.34z"/></g><g class="key-Iran"><circle cx="593" cy="179" r="1.1" fill="#2D8587" stroke="none" opacity=".7"/><path stroke-width=".58" opacity=".7" stroke="#2D8587" fill="none" stroke-linecap="butt" d="M593 179L102 411"/><path cx="102" cy="411" r="1.78" fill="#2D8587" opacity=".7" d="M104.37 411.85l-3.98-.09 2.46-3.13z"/></g><g class="key-Turkey"><circle cx="454" cy="220" r="1.1" fill="#2D8587" stroke="none" opacity=".7"/><path stroke-width=".58" opacity=".7" stroke="#2D8587" fill="none" stroke-linecap="butt" d="M454 220L86 395"/><path cx="86" cy="395" r="1.78" fill="#2D8587" opacity=".7" d="M88.37 395.84l-3.98-.08 2.45-3.13z"/></g><g class="key-Thailand"><circle cx="171" cy="221" r="1.1" fill="#2D8587" stroke="none" opacity=".7"/><path stroke-width=".57" opacity=".7" stroke="#2D8587" fill="none" stroke-linecap="butt" d="M171 221L76 425"/><path cx="76" cy="425" r="1.77" fill="#2D8587" opacity=".7" d="M78.35 424.14l-3.1 2.46-.1-3.95z"/></g><g class="key-Democratic-Republic-of-Congo"><circle cx="628" cy="190" r="1.1" fill="#923E8B" stroke="none" opacity=".7"/><path stroke-width=".57" opacity=".7" stroke="#923E8B" fill="none" stroke-linecap="butt" d="M628 190l-229-16"/><path cx="399" cy="174" r="1.77" fill="#923E8B" opacity=".7" d="M400.64 175.89l-3.4-2.01 3.65-1.52z"/></g><g class="key-United-Kingdom"><circle cx="54" cy="388" r="1.2" fill="#4C5C78" stroke="none" opacity=".7"/><path stroke-width=".56" opacity=".7" stroke="#4C5C78" fill="none" stroke-linecap="butt" d="M54 388l-2 20"/><path cx="52" cy="408" r="1.76" fill="#4C5C78" opacity=".7" d="M53.93 406.42l-2.1 3.33-1.4-3.68z"/></g><g class="key-France"><circle cx="57" cy="377" r="1.2" fill="#4C5C78" stroke="none" opacity=".7"/><path stroke-width=".56" opacity=".7" stroke="#4C5C78" fill="none" stroke-linecap="butt" d="M57 377l-2 26"/><path cx="55" cy="403" r="1.76" fill="#4C5C78" opacity=".7" d="M56.89 401.38l-2.02 3.37-1.49-3.64z"/></g><g class="key-Italy"><circle cx="67" cy="380" r="1.2" fill="#4C5C78" stroke="none" opacity=".7"/><path stroke-width=".56" opacity=".7" stroke="#4C5C78" fill="none" stroke-linecap="butt" d="M67 380l-9 50"/><path cx="58" cy="430" r="1.76" fill="#4C5C78" opacity=".7" d="M60.04 428.58l-2.35 3.15-1.11-3.77z"/></g><g class="key-South-Africa"><circle cx="287" cy="218" r="1.1" fill="#923E8B" stroke="none" opacity=".7"/><path stroke-width=".54" opacity=".7" stroke="#923E8B" fill="none" stroke-linecap="butt" d="M287 218L57 372"/><path cx="57" cy="372" r="1.74" fill="#923E8B" opacity=".7" d="M59.41 372.48l-3.86.49 1.93-3.38z"/></g><g class="key-Myanmar"><circle cx="520" cy="203" r="1.1" fill="#2D8587" stroke="none" opacity=".7"/><path stroke-width=".54" opacity=".7" stroke="#2D8587" fill="none" stroke-linecap="butt" d="M520 203L87 384"/><path cx="87" cy="384" r="1.74" fill="#2D8587" opacity=".7" d="M89.28 384.93l-3.89-.26 2.54-2.95z"/></g><g class="key-South-Korea"><circle cx="133" cy="285" r="1.1" fill="#2D8587" stroke="none" opacity=".7"/><path stroke-width=".54" opacity=".7" stroke="#2D8587" fill="none" stroke-linecap="butt" d="M133 285L52 442"/><path cx="52" cy="442" r="1.74" fill="#2D8587" opacity=".7" d="M54.34 441.25l-3.14 2.3.05-3.9z"/></g><g class="key-Spain"><circle cx="271" cy="358" r="1.1" fill="#4C5C78" stroke="none" opacity=".7"/><path stroke-width=".53" opacity=".7" stroke="#4C5C78" fill="none" stroke-linecap="butt" d="M271 358L55 433"/><path cx="55" cy="433" r="1.73" fill="#4C5C78" opacity=".7" d="M57.2 434.07l-3.83-.5 2.7-2.77z"/></g><g class="key-Ukraine"><circle cx="57" cy="400" r="1.1" fill="#4C5C78" stroke="none" opacity=".7"/><path stroke-width=".53" opacity=".7" stroke="#4C5C78" fill="none" stroke-linecap="butt" d="M57 400l-5 30"/><path cx="52" cy="430" r="1.73" fill="#4C5C78" opacity=".7" d="M54 428.58l-2.28 3.13-1.14-3.7z"/></g><g class="key-Colombia"><circle cx="176" cy="237" r="1.1" fill="#932834" stroke="none" opacity=".7"/><path stroke-width=".53" opacity=".7" stroke="#932834" fill="none" stroke-linecap="butt" d="M176 237L63 403"/><path cx="63" cy="403" r="1.73" fill="#932834" opacity=".7" d="M65.4 402.54l-3.37 1.89.51-3.83z"/></g><g class="key-Tanzania"><circle cx="550" cy="162" r="1.1" fill="#923E8B" stroke="none" opacity=".7"/><path stroke-width=".53" opacity=".7" stroke="#923E8B" fill="none" stroke-linecap="butt" d="M550 162l-388 68"/><path cx="162" cy="230" r="1.73" fill="#923E8B" opacity=".7" d="M164 231.4l-3.7-1.1 3.1-2.3z"/></g><g class="key-Kenya"><circle cx="554" cy="96" r="1.1" fill="#923E8B" stroke="none" opacity=".7"/><path stroke-width=".52" opacity=".7" stroke="#923E8B" fill="none" stroke-linecap="butt" d="M554 96L120 283"/><path cx="120" cy="283" r="1.72" fill="#923E8B" opacity=".7" d="M122.26 283.9l-3.84-.22 2.48-2.94z"/></g><g class="key-Argentina"><circle cx="81" cy="348" r="1.1" fill="#932834" stroke="none" opacity=".7"/><path stroke-width=".52" opacity=".7" stroke="#932834" fill="none" stroke-linecap="butt" d="M81 348l-28 37"/><path cx="53" cy="385" r="1.72" fill="#932834" opacity=".7" d="M55.4 384.67l-3.44 1.7.7-3.78z"/></g><g class="key-Poland"><circle cx="53" cy="390" r="1.1" fill="#4C5C78" stroke="none" opacity=".7"/><path stroke-width=".52" opacity=".7" stroke="#4C5C78" fill="none" stroke-linecap="butt" d="M53 390l-1 45"/><path cx="52" cy="435" r="1.72" fill="#4C5C78" opacity=".7" d="M53.76 433.32l-1.8 3.4-1.64-3.48z"/></g><g class="key-Algeria"><circle cx="662" cy="118" r="1.1" fill="#923E8B" stroke="none" opacity=".7"/><path stroke-width=".51" opacity=".7" stroke="#923E8B" fill="none" stroke-linecap="butt" d="M662 118L127 359"/><path cx="127" cy="359" r="1.71" fill="#923E8B" opacity=".7" d="M129.26 359.86l-3.82-.16 2.42-2.96z"/></g><g class="key-Sudan"><circle cx="665" cy="156" r="1.1" fill="#923E8B" stroke="none" opacity=".7"/><path stroke-width=".51" opacity=".7" stroke="#923E8B" fill="none" stroke-linecap="butt" d="M665 156L405 258"/><path cx="405" cy="258" r="1.71" fill="#923E8B" opacity=".7" d="M407.22 258.97l-3.81-.35 2.56-2.84z"/></g><g class="key-Canada"><circle cx="53" cy="391" r="1.1" fill="#E04E4B" stroke="none" opacity=".7"/><path stroke-width=".51" opacity=".7" stroke="#E04E4B" fill="none" stroke-linecap="butt" d="M53 391l1 30"/><path cx="54" cy="421" r="1.71" fill="#E04E4B" opacity=".7" d="M55.65 419.23l-1.6 3.48-1.82-3.36z"/></g><g class="key-Uganda"><circle cx="572" cy="145" r="1.1" fill="#923E8B" stroke="none" opacity=".7"/><path stroke-width=".5" opacity=".7" stroke="#923E8B" fill="none" stroke-linecap="butt" d="M572 145l-410 50"/><path cx="162" cy="195" r="1.7" fill="#923E8B" opacity=".7" d="M163.9 196.48l-3.59-1.27 3.17-2.1z"/></g><g class="key-Morocco"><circle cx="672" cy="168" r="1.1" fill="#923E8B" stroke="none" opacity=".7"/><path stroke-width=".5" opacity=".7" stroke="#923E8B" fill="none" stroke-linecap="butt" d="M672 168L368 374"/><path cx="368" cy="374" r="1.7" fill="#923E8B" opacity=".7" d="M370.36 374.45l-3.77.5 1.86-3.31z"/></g><g class="key-Iraq"><circle cx="659" cy="132" r="1.1" fill="#2D8587" stroke="none" opacity=".7"/><path stroke-width=".5" opacity=".7" stroke="#2D8587" fill="none" stroke-linecap="butt" d="M659 132L208 284"/><path cx="208" cy="284" r="1.7" fill="#2D8587" opacity=".7" d="M210.15 285.07l-3.76-.53 2.68-2.7z"/></g><g class="key-Afghanistan"><circle cx="709" cy="128" r="1.1" fill="#2D8587" stroke="none" opacity=".7"/><path stroke-width=".5" opacity=".7" stroke="#2D8587" fill="none" stroke-linecap="butt" d="M709 128l-193 74"/><path cx="516" cy="202" r="1.7" fill="#2D8587" opacity=".7" d="M518.2 202.98l-3.79-.37 2.57-2.8z"/></g><g class="key-Peru"><circle cx="285" cy="185" r="1.1" fill="#932834" stroke="none" opacity=".7"/><path stroke-width=".5" opacity=".7" stroke="#932834" fill="none" stroke-linecap="butt" d="M285 185L66 375"/><path cx="66" cy="375" r="1.7" fill="#932834" opacity=".7" d="M68.4 375.17l-3.68.94 1.45-3.5z"/></g><g class="key-Venezuela"><circle cx="295" cy="235" r="1.1" fill="#932834" stroke="none" opacity=".7"/><path stroke-width=".49" opacity=".7" stroke="#932834" fill="none" stroke-linecap="butt" d="M295 235L63 379"/><path cx="63" cy="379" r="1.69" fill="#932834" opacity=".7" d="M65.33 379.54l-3.77.35 1.98-3.22z"/></g><g class="key-Malaysia"><circle cx="306" cy="251" r="1.1" fill="#2D8587" stroke="none" opacity=".7"/><path stroke-width=".49" opacity=".7" stroke="#2D8587" fill="none" stroke-linecap="butt" d="M306 251L65 395"/><path cx="65" cy="395" r="1.69" fill="#2D8587" opacity=".7" d="M67.32 395.58l-3.77.29 2.03-3.19z"/></g><g class="key-Saudi-Arabia"><circle cx="558" cy="136" r="1.1" fill="#2D8587" stroke="none" opacity=".7"/><path stroke-width=".49" opacity=".7" stroke="#2D8587" fill="none" stroke-linecap="butt" d="M558 136L95 354"/><path cx="95" cy="354" r="1.69" fill="#2D8587" opacity=".7" d="M97.25 354.8l-3.78-.08 2.34-2.97z"/></g><g class="key-Nepal"><circle cx="711" cy="205" r="1.1" fill="#2D8587" stroke="none" opacity=".7"/><path stroke-width=".49" opacity=".7" stroke="#2D8587" fill="none" stroke-linecap="butt" d="M711 205L253 375"/><path cx="253" cy="375" r="1.69" fill="#2D8587" opacity=".7" d="M255.17 376l-3.75-.41 2.58-2.76z"/></g><g class="key-Ghana"><circle cx="587" cy="153" r="1.1" fill="#923E8B" stroke="none" opacity=".7"/><path stroke-width=".49" opacity=".7" stroke="#923E8B" fill="none" stroke-linecap="butt" d="M587 153L239 288"/><path cx="239" cy="288" r="1.69" fill="#923E8B" opacity=".7" d="M241.19 288.96l-3.77-.35 2.54-2.8z"/></g><g class="key-Mozambique"><circle cx="649" cy="165" r="1.1" fill="#923E8B" stroke="none" opacity=".7"/><path stroke-width=".48" opacity=".7" stroke="#923E8B" fill="none" stroke-linecap="butt" d="M649 165l-81 67"/><path cx="568" cy="232" r="1.68" fill="#923E8B" opacity=".7" d="M570.37 232.22l-3.66.85 1.51-3.44z"/></g><g class="key-Yemen"><circle cx="718" cy="81" r="1.1" fill="#2D8587" stroke="none" opacity=".7"/><path stroke-width=".48" opacity=".7" stroke="#2D8587" fill="none" stroke-linecap="butt" d="M718 81L525 268"/><path cx="525" cy="268" r="1.68" fill="#2D8587" opacity=".7" d="M527.38 268.04l-3.59 1.13 1.25-3.55z"/></g><g class="key-Australia"><circle cx="55" cy="366" r="1.1" fill="#A8633C" stroke="none" opacity=".7"/><path stroke-width=".48" opacity=".7" stroke="#A8633C" fill="none" stroke-linecap="butt" d="M55 366l-2 40"/><path cx="53" cy="406" r="1.68" fill="#A8633C" opacity=".7" d="M54.76 404.4l-1.84 3.28-1.51-3.44z"/></g><g class="key-Syria"><circle cx="572" cy="122" r="1.1" fill="#2D8587" stroke="none" opacity=".7"/><path stroke-width=".48" opacity=".7" stroke="#2D8587" fill="none" stroke-linecap="butt" d="M572 122L135 332"/><path cx="135" cy="332" r="1.68" fill="#2D8587" opacity=".7" d="M137.24 332.79l-3.75-.06 2.3-2.97z"/></g><g class="key-Cote-d__0027Ivoire"><circle cx="688" cy="103" r="1.1" fill="#923E8B" stroke="none" opacity=".7"/><path stroke-width=".48" opacity=".7" stroke="#923E8B" fill="none" stroke-linecap="butt" d="M688 103L330 247"/><path cx="330" cy="247" r="1.68" fill="#923E8B" opacity=".7" d="M332.19 247.93l-3.75-.3 2.5-2.82z"/></g><g class="key-Romania"><circle cx="81" cy="361" r="1.1" fill="#4C5C78" stroke="none" opacity=".7"/><path stroke-width=".48" opacity=".7" stroke="#4C5C78" fill="none" stroke-linecap="butt" d="M81 361l-20 66"/><path cx="61" cy="427" r="1.68" fill="#4C5C78" opacity=".7" d="M63.1 425.88l-2.59 2.73-.63-3.7z"/></g><g class="key-Cameroon"><circle cx="534" cy="191" r="1.1" fill="#923E8B" stroke="none" opacity=".7"/><path stroke-width=".48" opacity=".7" stroke="#923E8B" fill="none" stroke-linecap="butt" d="M534 191l-408 55"/><path cx="126" cy="246" r="1.68" fill="#923E8B" opacity=".7" d="M127.89 247.44l-3.55-1.22 3.1-2.1z"/></g><g class="key-Sri-Lanka"><circle cx="178" cy="284" r="1.1" fill="#2D8587" stroke="none" opacity=".7"/><path stroke-width=".47" opacity=".7" stroke="#2D8587" fill="none" stroke-linecap="butt" d="M178 284L62 390"/><path cx="62" cy="390" r="1.67" fill="#2D8587" opacity=".7" d="M64.36 390.1l-3.6 1.03 1.35-3.49z"/></g><g class="key-Chile"><circle cx="92" cy="313" r="1.1" fill="#932834" stroke="none" opacity=".7"/><path stroke-width=".47" opacity=".7" stroke="#932834" fill="none" stroke-linecap="butt" d="M92 313l-32 95"/><path cx="60" cy="408" r="1.67" fill="#932834" opacity=".7" d="M62.12 406.95l-2.65 2.63-.52-3.7z"/></g><g class="key-Netherlands"><circle cx="62" cy="379" r="1.1" fill="#4C5C78" stroke="none" opacity=".7"/><path stroke-width=".47" opacity=".7" stroke="#4C5C78" fill="none" stroke-linecap="butt" d="M62 379l-11 36"/><path cx="51" cy="415" r="1.67" fill="#4C5C78" opacity=".7" d="M53.09 413.9l-2.58 2.7-.62-3.69z"/></g><g class="key-Niger"><circle cx="704" cy="122" r="1.1" fill="#923E8B" stroke="none" opacity=".7"/><path stroke-width=".46" opacity=".7" stroke="#923E8B" fill="none" stroke-linecap="butt" d="M704 122l-102 5"/><path cx="602" cy="127" r="1.66" fill="#923E8B" opacity=".7" d="M603.74 128.58l-3.4-1.5 3.24-1.82z"/></g><g class="key-Kazakhstan"><circle cx="88" cy="321" r="1.1" fill="#2D8587" stroke="none" opacity=".7"/><path stroke-width=".46" opacity=".7" stroke="#2D8587" fill="none" stroke-linecap="butt" d="M88 321l-37 49"/><path cx="51" cy="370" r="1.66" fill="#2D8587" opacity=".7" d="M53.33 369.68L50 371.32l.68-3.65z"/></g><g class="key-Mali"><circle cx="695" cy="144" r="1.1" fill="#923E8B" stroke="none" opacity=".7"/><path stroke-width=".46" opacity=".7" stroke="#923E8B" fill="none" stroke-linecap="butt" d="M695 144l-127 29"/><path cx="568" cy="173" r="1.66" fill="#923E8B" opacity=".7" d="M569.99 174.25l-3.6-.88 2.86-2.36z"/></g><g class="key-Ecuador"><circle cx="209" cy="194" r="1.1" fill="#932834" stroke="none" opacity=".7"/><path stroke-width=".46" opacity=".7" stroke="#932834" fill="none" stroke-linecap="butt" d="M209 194L68 371"/><path cx="68" cy="371" r="1.66" fill="#932834" opacity=".7" d="M70.33 370.74l-3.36 1.56.77-3.63z"/></g><g class="key-Guatemala"><circle cx="488" cy="169" r="1.1" fill="#E04E4B" stroke="none" opacity=".7"/><path stroke-width=".46" opacity=".7" stroke="#E04E4B" fill="none" stroke-linecap="butt" d="M488 169L207 333"/><path cx="207" cy="333" r="1.66" fill="#E04E4B" opacity=".7" d="M209.27 333.6l-3.7.24 2.03-3.11z"/></g><g class="key-Malawi"><circle cx="463" cy="135" r="1.1" fill="#923E8B" stroke="none" opacity=".7"/><path stroke-width=".46" opacity=".7" stroke="#923E8B" fill="none" stroke-linecap="butt" d="M463 135L64 235"/><path cx="64" cy="235" r="1.66" fill="#923E8B" opacity=".7" d="M66.01 236.2l-3.62-.8 2.82-2.41z"/></g><g class="key-Cambodia"><circle cx="553" cy="178" r="1.1" fill="#2D8587" stroke="none" opacity=".7"/><path stroke-width=".46" opacity=".7" stroke="#2D8587" fill="none" stroke-linecap="butt" d="M553 178L202 358"/><path cx="202" cy="358" r="1.66" fill="#2D8587" opacity=".7" d="M204.23 358.72l-3.7.04 2.19-3z"/></g><g class="key-Zambia"><circle cx="333" cy="132" r="1.1" fill="#923E8B" stroke="none" opacity=".7"/><path stroke-width=".46" opacity=".7" stroke="#923E8B" fill="none" stroke-linecap="butt" d="M333 132l-179 98"/><path cx="154" cy="230" r="1.66" fill="#923E8B" opacity=".7" d="M156.25 230.66l-3.7.14 2.1-3.05z"/></g><g class="key-Zimbabwe"><circle cx="297" cy="129" r="1.1" fill="#923E8B" stroke="none" opacity=".7"/><path stroke-width=".45" opacity=".7" stroke="#923E8B" fill="none" stroke-linecap="butt" d="M297 129L88 300"/><path cx="88" cy="300" r="1.65" fill="#923E8B" opacity=".7" d="M90.32 300.23l-3.6.81 1.51-3.36z"/></g><g class="key-Senegal"><circle cx="513" cy="137" r="1.1" fill="#923E8B" stroke="none" opacity=".7"/><path stroke-width=".45" opacity=".7" stroke="#923E8B" fill="none" stroke-linecap="butt" d="M513 137l-63 111"/><path cx="450" cy="248" r="1.65" fill="#923E8B" opacity=".7" d="M452.25 247.38l-3.06 2.05.19-3.68z"/></g><g class="key-Cuba"><circle cx="88" cy="305" r="1.1" fill="#E04E4B" stroke="none" opacity=".7"/><path stroke-width=".45" opacity=".7" stroke="#E04E4B" fill="none" stroke-linecap="butt" d="M88 305L52 420"/><path cx="52" cy="420" r="1.65" fill="#E04E4B" opacity=".7" d="M54.07 418.92l-2.56 2.65-.6-3.64z"/></g><g class="key-Belgium"><circle cx="53" cy="392" r="1.1" fill="#4C5C78" stroke="none" opacity=".7"/><path stroke-width=".45" opacity=".7" stroke="#4C5C78" fill="none" stroke-linecap="butt" d="M53 392l43 20"/><path cx="96" cy="412" r="1.65" fill="#4C5C78" opacity=".7" d="M95.2 409.8l2.3 2.9-3.7.1z"/></g><g class="key-Greece"><circle cx="98" cy="374" r="1.1" fill="#4C5C78" stroke="none" opacity=".7"/><path stroke-width=".45" opacity=".7" stroke="#4C5C78" fill="none" stroke-linecap="butt" d="M98 374l-44 59"/><path cx="54" cy="433" r="1.65" fill="#4C5C78" opacity=".7" d="M56.3 432.66l-3.29 1.66.65-3.63z"/></g><g class="key-Tunisia"><circle cx="566" cy="165" r="1.1" fill="#923E8B" stroke="none" opacity=".7"/><path stroke-width=".45" opacity=".7" stroke="#923E8B" fill="none" stroke-linecap="butt" d="M566 165L110 395"/><path cx="110" cy="395" r="1.65" fill="#923E8B" opacity=".7" d="M112.22 395.73l-3.7.01 2.21-2.96z"/></g><g class="key-Portugal"><circle cx="283" cy="352" r="1.1" fill="#4C5C78" stroke="none" opacity=".7"/><path stroke-width=".45" opacity=".7" stroke="#4C5C78" fill="none" stroke-linecap="butt" d="M283 352L59 437"/><path cx="59" cy="437" r="1.65" fill="#4C5C78" opacity=".7" d="M61.13 437.96l-3.67-.37 2.5-2.72z"/></g><g class="key-Czechia"><circle cx="53" cy="400" r="1.1" fill="#4C5C78" stroke="none" opacity=".7"/><path stroke-width=".45" opacity=".7" stroke="#4C5C78" fill="none" stroke-linecap="butt" d="M53 400v30"/><path cx="53" cy="430" r="1.65" fill="#4C5C78" opacity=".7" d="M54.65 428.35l-1.65 3.3-1.65-3.3z"/></g><g class="key-Bolivia"><circle cx="347" cy="201" r="1.1" fill="#932834" stroke="none" opacity=".7"/><path stroke-width=".45" opacity=".7" stroke="#932834" fill="none" stroke-linecap="butt" d="M347 201L71 341"/><path cx="71" cy="341" r="1.65" fill="#932834" opacity=".7" d="M73.22 341.73l-3.7.02 2.2-2.97z"/></g><g class="key-Rwanda"><circle cx="657" cy="89" r="1.1" fill="#923E8B" stroke="none" opacity=".7"/><path stroke-width=".45" opacity=".7" stroke="#923E8B" fill="none" stroke-linecap="butt" d="M657 89L343 275"/><path cx="343" cy="275" r="1.65" fill="#923E8B" opacity=".7" d="M345.26 275.58l-3.68.26 2-3.1z"/></g><g class="key-Haiti"><circle cx="610" cy="213" r="1.1" fill="#E04E4B" stroke="none" opacity=".7"/><path stroke-width=".45" opacity=".7" stroke="#E04E4B" fill="none" stroke-linecap="butt" d="M610 213L427 331"/><path cx="427" cy="331" r="1.65" fill="#E04E4B" opacity=".7" d="M429.28 331.5l-3.67.4 1.88-3.18z"/></g><g class="key-Hungary"><circle cx="61" cy="402" r="1.1" fill="#4C5C78" stroke="none" opacity=".7"/><path stroke-width=".45" opacity=".7" stroke="#4C5C78" fill="none" stroke-linecap="butt" d="M61 402l-10 35"/><path cx="51" cy="437" r="1.65" fill="#4C5C78" opacity=".7" d="M53.04 435.87l-2.5 2.72-.67-3.63z"/></g><g class="key-Dominican-Republic"><circle cx="237" cy="192" r="1.1" fill="#E04E4B" stroke="none" opacity=".7"/><path stroke-width=".45" opacity=".7" stroke="#E04E4B" fill="none" stroke-linecap="butt" d="M237 192L76 377"/><path cx="76" cy="377" r="1.65" fill="#E04E4B" opacity=".7" d="M78.33 376.84l-3.41 1.4.92-3.57z"/></g><g class="key-Sweden"><circle cx="63" cy="400" r="1.1" fill="#4C5C78" stroke="none" opacity=".7"/><path stroke-width=".44" opacity=".7" stroke="#4C5C78" fill="none" stroke-linecap="butt" d="M63 400l12 7"/><path cx="75" cy="407" r="1.64" fill="#4C5C78" opacity=".7" d="M74.41 404.76l2 3.07-3.65-.24z"/></g><g class="key-Benin"><circle cx="680" cy="163" r="1.1" fill="#923E8B" stroke="none" opacity=".7"/><path stroke-width=".44" opacity=".7" stroke="#923E8B" fill="none" stroke-linecap="butt" d="M680 163l-167 70"/><path cx="513" cy="233" r="1.64" fill="#923E8B" opacity=".7" d="M515.15 233.88l-3.66-.25 2.39-2.78z"/></g><g class="key-Serbia"><circle cx="138" cy="383" r="1.1" fill="#4C5C78" stroke="none" opacity=".7"/><path stroke-width=".44" opacity=".7" stroke="#4C5C78" fill="none" stroke-linecap="butt" d="M138 383l-81 44"/><path cx="57" cy="427" r="1.64" fill="#4C5C78" opacity=".7" d="M59.22 427.66l-3.66.12 2.1-3z"/></g><g class="key-Burundi"><circle cx="576" cy="138" r="1.1" fill="#923E8B" stroke="none" opacity=".7"/><path stroke-width=".44" opacity=".7" stroke="#923E8B" fill="none" stroke-linecap="butt" d="M576 138l-209 54"/><path cx="367" cy="192" r="1.64" fill="#923E8B" opacity=".7" d="M369 193.18l-3.59-.77 2.77-2.4z"/></g><g class="key-United-Arab-Emirates"><circle cx="486" cy="168" r="1.1" fill="#2D8587" stroke="none" opacity=".7"/><path stroke-width=".44" opacity=".7" stroke="#2D8587" fill="none" stroke-linecap="butt" d="M486 168L78 412"/><path cx="78" cy="412" r="1.64" fill="#2D8587" opacity=".7" d="M80.25 412.57l-3.66.27 1.98-3.09z"/></g><g class="key-Austria"><circle cx="64" cy="386" r="1.1" fill="#4C5C78" stroke="none" opacity=".7"/><path stroke-width=".44" opacity=".7" stroke="#4C5C78" fill="none" stroke-linecap="butt" d="M64 386l-12 46"/><path cx="52" cy="432" r="1.64" fill="#4C5C78" opacity=".7" d="M54 430.83l-2.41 2.76-.76-3.6z"/></g><g class="key-Honduras"><circle cx="340" cy="137" r="1.1" fill="#E04E4B" stroke="none" opacity=".7"/><path stroke-width=".44" opacity=".7" stroke="#E04E4B" fill="none" stroke-linecap="butt" d="M340 137L97 354"/><path cx="97" cy="354" r="1.64" fill="#E04E4B" opacity=".7" d="M99.32 354.13l-3.54.96 1.35-3.4z"/></g><g class="key-Switzerland"><circle cx="73" cy="396" r="1.1" fill="#4C5C78" stroke="none" opacity=".7"/><path stroke-width=".44" opacity=".7" stroke="#4C5C78" fill="none" stroke-linecap="butt" d="M73 396l-19 32"/><path cx="54" cy="428" r="1.64" fill="#4C5C78" opacity=".7" d="M56.25 427.43l-3.09 1.98.27-3.66z"/></g><g class="key-Tajikistan"><circle cx="144" cy="150" r="1.1" fill="#2D8587" stroke="none" opacity=".7"/><path stroke-width=".44" opacity=".7" stroke="#2D8587" fill="none" stroke-linecap="butt" d="M144 150L52 322"/><path cx="52" cy="322" r="1.64" fill="#2D8587" opacity=".7" d="M54.22 321.33l-3 2.12.1-3.67z"/></g><g class="key-Bulgaria"><circle cx="52" cy="396" r="1.1" fill="#4C5C78" stroke="none" opacity=".7"/><path stroke-width=".44" opacity=".7" stroke="#4C5C78" fill="none" stroke-linecap="butt" d="M52 396l23 30"/><path cx="75" cy="426" r="1.64" fill="#4C5C78" opacity=".7" d="M75.3 423.7l.7 3.6-3.3-1.6z"/></g><g class="key-Israel"><circle cx="123" cy="311" r="1.1" fill="#2D8587" stroke="none" opacity=".7"/><path stroke-width=".44" opacity=".7" stroke="#2D8587" fill="none" stroke-linecap="butt" d="M123 311l-65 42"/><path cx="58" cy="353" r="1.64" fill="#2D8587" opacity=".7" d="M60.27 353.49l-3.65.4 1.87-3.16z"/></g><g class="key-Papua-New-Guinea"><circle cx="609" cy="193" r="1.1" fill="#A8633C" stroke="none" opacity=".7"/><path stroke-width=".44" opacity=".7" stroke="#A8633C" fill="none" stroke-linecap="butt" d="M609 193L242 302"/><path cx="242" cy="302" r="1.64" fill="#A8633C" opacity=".7" d="M244.04 303.1l-3.61-.63 2.68-2.5z"/></g><g class="key-Jordan"><circle cx="516" cy="104" r="1.1" fill="#2D8587" stroke="none" opacity=".7"/><path stroke-width=".44" opacity=".7" stroke="#2D8587" fill="none" stroke-linecap="butt" d="M516 104L64 320"/><path cx="64" cy="320" r="1.64" fill="#2D8587" opacity=".7" d="M66.19 320.77l-3.67-.06 2.25-2.9z"/></g><g class="key-Hong-Kong"><circle cx="175" cy="338" r="1.1" fill="#2D8587" stroke="none" opacity=".7"/><path stroke-width=".44" opacity=".7" stroke="#2D8587" fill="none" stroke-linecap="butt" d="M175 338L51 447"/><path cx="51" cy="447" r="1.64" fill="#2D8587" opacity=".7" d="M53.31 447.15l-3.54.93 1.38-3.4z"/></g><g class="key-Togo"><circle cx="682" cy="146" r="1.1" fill="#923E8B" stroke="none" opacity=".7"/><path stroke-width=".43" opacity=".7" stroke="#923E8B" fill="none" stroke-linecap="butt" d="M682 146L369 258"/><path cx="369" cy="258" r="1.63" fill="#923E8B" opacity=".7" d="M371.08 258.99l-3.61-.44 2.52-2.63z"/></g><g class="key-Sierra-Leone"><circle cx="680" cy="176" r="1.1" fill="#923E8B" stroke="none" opacity=".7"/><path stroke-width=".43" opacity=".7" stroke="#923E8B" fill="none" stroke-linecap="butt" d="M680 176l-184 65"/><path cx="496" cy="241" r="1.63" fill="#923E8B" opacity=".7" d="M498.08 242l-3.62-.46 2.53-2.62z"/></g><g class="key-Laos"><circle cx="586" cy="202" r="1.1" fill="#2D8587" stroke="none" opacity=".7"/><path stroke-width=".43" opacity=".7" stroke="#2D8587" fill="none" stroke-linecap="butt" d="M586 202L261 345"/><path cx="261" cy="345" r="1.63" fill="#2D8587" opacity=".7" d="M263.15 345.84l-3.64-.18 2.33-2.8z"/></g><g class="key-Paraguay"><circle cx="150" cy="214" r="1.1" fill="#932834" stroke="none" opacity=".7"/><path stroke-width=".43" opacity=".7" stroke="#932834" fill="none" stroke-linecap="butt" d="M150 214L61 366"/><path cx="61" cy="366" r="1.63" fill="#932834" opacity=".7" d="M63.23 365.42l-3.05 1.99.24-3.64z"/></g><g class="key-Libya"><circle cx="645" cy="94" r="1.1" fill="#923E8B" stroke="none" opacity=".7"/><path stroke-width=".43" opacity=".7" stroke="#923E8B" fill="none" stroke-linecap="butt" d="M645 94L115 378"/><path cx="115" cy="378" r="1.63" fill="#923E8B" opacity=".7" d="M117.2 378.67l-3.64.1 2.1-2.98z"/></g><g class="key-El-Salvador"><circle cx="343" cy="192" r="1.1" fill="#E04E4B" stroke="none" opacity=".7"/><path stroke-width=".43" opacity=".7" stroke="#E04E4B" fill="none" stroke-linecap="butt" d="M343 192L68 389"/><path cx="68" cy="389" r="1.63" fill="#E04E4B" opacity=".7" d="M70.27 389.38l-3.6.57 1.7-3.22z"/></g><g class="key-Nicaragua"><circle cx="466" cy="158" r="1.1" fill="#E04E4B" stroke="none" opacity=".7"/><path stroke-width=".43" opacity=".7" stroke="#E04E4B" fill="none" stroke-linecap="butt" d="M466 158L134 372"/><path cx="134" cy="372" r="1.63" fill="#E04E4B" opacity=".7" d="M136.25 372.49l-3.62.4 1.86-3.14z"/></g><g class="key-Denmark"><circle cx="62" cy="397" r="1.1" fill="#4C5C78" stroke="none" opacity=".7"/><path stroke-width=".43" opacity=".7" stroke="#4C5C78" fill="none" stroke-linecap="butt" d="M62 397l59 16"/><path cx="121" cy="413" r="1.63" fill="#4C5C78" opacity=".7" d="M119.85 411l2.72 2.43-3.57.72z"/></g><g class="key-Kyrgyzstan"><circle cx="71" cy="242" r="1.1" fill="#2D8587" stroke="none" opacity=".7"/><path stroke-width=".43" opacity=".7" stroke="#2D8587" fill="none" stroke-linecap="butt" d="M71 242L53 348"/><path cx="53" cy="348" r="1.63" fill="#2D8587" opacity=".7" d="M54.88 346.67l-2.15 2.94-1.06-3.49z"/></g><g class="key-Slovakia"><circle cx="53" cy="377" r="1.1" fill="#4C5C78" stroke="none" opacity=".7"/><path stroke-width=".43" opacity=".7" stroke="#4C5C78" fill="none" stroke-linecap="butt" d="M53 377l1 58"/><path cx="54" cy="435" r="1.63" fill="#4C5C78" opacity=".7" d="M55.6 433.34l-1.57 3.29-1.69-3.23z"/></g><g class="key-Finland"><circle cx="53" cy="409" r="1.1" fill="#4C5C78" stroke="none" opacity=".7"/><path stroke-width=".43" opacity=".7" stroke="#4C5C78" fill="none" stroke-linecap="butt" d="M53 409l-2 2"/><path cx="51" cy="411" r="1.63" fill="#4C5C78" opacity=".7" d="M53.3 411l-3.45 1.15L51 408.7z"/></g><g class="key-Singapore"><circle cx="334" cy="342" r="1.1" fill="#2D8587" stroke="none" opacity=".7"/><path stroke-width=".43" opacity=".7" stroke="#2D8587" fill="none" stroke-linecap="butt" d="M334 342L58 441"/><path cx="58" cy="441" r="1.63" fill="#2D8587" opacity=".7" d="M60.08 441.98l-3.61-.43 2.51-2.63z"/></g><g class="key-Norway"><circle cx="55" cy="372" r="1.1" fill="#4C5C78" stroke="none" opacity=".7"/><path stroke-width=".43" opacity=".7" stroke="#4C5C78" fill="none" stroke-linecap="butt" d="M55 372l91 36"/><path cx="146" cy="408" r="1.63" fill="#4C5C78" opacity=".7" d="M145.08 405.88l2.44 2.72-3.64.32z"/></g><g class="key-Costa-Rica"><circle cx="160" cy="272" r="1.1" fill="#E04E4B" stroke="none" opacity=".7"/><path stroke-width=".43" opacity=".7" stroke="#E04E4B" fill="none" stroke-linecap="butt" d="M160 272L60 408"/><path cx="60" cy="408" r="1.63" fill="#E04E4B" opacity=".7" d="M62.28 407.65l-3.25 1.66.62-3.59z"/></g><g class="key-Ireland"><circle cx="65" cy="310" r="1.1" fill="#4C5C78" stroke="none" opacity=".7"/><path stroke-width=".43" opacity=".7" stroke="#4C5C78" fill="none" stroke-linecap="butt" d="M65 310l-11 92"/><path cx="54" cy="402" r="1.63" fill="#4C5C78" opacity=".7" d="M55.81 400.58l-2 3.04-1.23-3.43z"/></g><g class="key-Central-African-Republic"><circle cx="664" cy="203" r="1.1" fill="#923E8B" stroke="none" opacity=".7"/><path stroke-width=".43" opacity=".7" stroke="#923E8B" fill="none" stroke-linecap="butt" d="M664 203l-241 37"/><path cx="423" cy="240" r="1.63" fill="#923E8B" opacity=".7" d="M424.86 241.36l-3.47-1.11 2.97-2.1z"/></g><g class="key-New-Zealand"><circle cx="53" cy="347" r="1.1" fill="#A8633C" stroke="none" opacity=".7"/><path stroke-width=".43" opacity=".7" stroke="#A8633C" fill="none" stroke-linecap="butt" d="M53 347v50"/><path cx="53" cy="397" r="1.63" fill="#A8633C" opacity=".7" d="M54.63 395.37L53 398.63l-1.63-3.26z"/></g><g class="key-Croatia"><circle cx="114" cy="403" r="1.1" fill="#4C5C78" stroke="none" opacity=".7"/><path stroke-width=".43" opacity=".7" stroke="#4C5C78" fill="none" stroke-linecap="butt" d="M114 403l-60 24"/><path cx="54" cy="427" r="1.63" fill="#4C5C78" opacity=".7" d="M56.12 427.9l-3.63-.3 2.42-2.72z"/></g><g class="key-Congo"><circle cx="561" cy="187" r="1.1" fill="#923E8B" stroke="none" opacity=".7"/><path stroke-width=".43" opacity=".7" stroke="#923E8B" fill="none" stroke-linecap="butt" d="M561 187l-234 76"/><path cx="327" cy="263" r="1.63" fill="#923E8B" opacity=".7" d="M329.05 264.05l-3.6-.55 2.6-2.55z"/></g><g class="key-Moldova"><circle cx="106" cy="373" r="1.1" fill="#4C5C78" stroke="none" opacity=".7"/><path stroke-width=".43" opacity=".7" stroke="#4C5C78" fill="none" stroke-linecap="butt" d="M106 373l-52 66"/><path cx="54" cy="439" r="1.63" fill="#4C5C78" opacity=".7" d="M56.29 438.73l-3.3 1.55.74-3.57z"/></g><g class="key-Liberia"><circle cx="673" cy="166" r="1.1" fill="#923E8B" stroke="none" opacity=".7"/><path stroke-width=".43" opacity=".7" stroke="#923E8B" fill="none" stroke-linecap="butt" d="M673 166l-248 87"/><path cx="425" cy="253" r="1.63" fill="#923E8B" opacity=".7" d="M427.08 254l-3.62-.46 2.54-2.62z"/></g><g class="key-Panama"><circle cx="133" cy="243" r="1.1" fill="#E04E4B" stroke="none" opacity=".7"/><path stroke-width=".43" opacity=".7" stroke="#E04E4B" fill="none" stroke-linecap="butt" d="M133 243L81 371"/><path cx="81" cy="371" r="1.63" fill="#E04E4B" opacity=".7" d="M83.12 370.1l-2.73 2.41-.29-3.63z"/></g><g class="key-Mauritania"><circle cx="521" cy="161" r="1.1" fill="#923E8B" stroke="none" opacity=".7"/><path stroke-width=".42" opacity=".7" stroke="#923E8B" fill="none" stroke-linecap="butt" d="M521 161l-173 91"/><path cx="348" cy="252" r="1.62" fill="#923E8B" opacity=".7" d="M350.19 252.68l-3.62.07 2.11-2.94z"/></g><g class="key-Uruguay"><circle cx="70" cy="357" r="1.1" fill="#932834" stroke="none" opacity=".7"/><path stroke-width=".42" opacity=".7" stroke="#932834" fill="none" stroke-linecap="butt" d="M70 357l-18 45"/><path cx="52" cy="402" r="1.62" fill="#932834" opacity=".7" d="M54.1 401.1l-2.7 2.4-.3-3.6z"/></g><g class="key-Lithuania"><circle cx="77" cy="387" r="1.1" fill="#4C5C78" stroke="none" opacity=".7"/><path stroke-width=".42" opacity=".7" stroke="#4C5C78" fill="none" stroke-linecap="butt" d="M77 387l-26 40"/><path cx="51" cy="427" r="1.62" fill="#4C5C78" opacity=".7" d="M53.24 426.52l-3.12 1.84.4-3.6z"/></g><g class="key-Kuwait"><circle cx="425" cy="142" r="1.1" fill="#2D8587" stroke="none" opacity=".7"/><path stroke-width=".42" opacity=".7" stroke="#2D8587" fill="none" stroke-linecap="butt" d="M425 142L69 391"/><path cx="69" cy="391" r="1.62" fill="#2D8587" opacity=".7" d="M71.26 391.4l-3.59.53 1.73-3.19z"/></g><g class="key-Albania"><circle cx="263" cy="256" r="1.1" fill="#4C5C78" stroke="none" opacity=".7"/><path stroke-width=".42" opacity=".7" stroke="#4C5C78" fill="none" stroke-linecap="butt" d="M263 256L63 420"/><path cx="63" cy="420" r="1.62" fill="#4C5C78" opacity=".7" d="M65.28 420.23l-3.53.8 1.48-3.31z"/></g><g class="key-Armenia"><circle cx="57" cy="342" r="1.1" fill="#2D8587" stroke="none" opacity=".7"/><path stroke-width=".42" opacity=".7" stroke="#2D8587" fill="none" stroke-linecap="butt" d="M57 342l-5 74"/><path cx="52" cy="416" r="1.62" fill="#2D8587" opacity=".7" d="M53.73 414.5l-1.84 3.12-1.4-3.35z"/></g><g class="key-Jamaica"><circle cx="65" cy="227" r="1.1" fill="#E04E4B" stroke="none" opacity=".7"/><path stroke-width=".42" opacity=".7" stroke="#E04E4B" fill="none" stroke-linecap="butt" d="M65 227l-4 167"/><path cx="61" cy="394" r="1.62" fill="#E04E4B" opacity=".7" d="M62.66 392.42l-1.7 3.2-1.54-3.28z"/></g><g class="key-Mongolia"><circle cx="210" cy="122" r="1.1" fill="#2D8587" stroke="none" opacity=".7"/><path stroke-width=".42" opacity=".7" stroke="#2D8587" fill="none" stroke-linecap="butt" d="M210 122L81 370"/><path cx="81" cy="370" r="1.62" fill="#2D8587" opacity=".7" d="M83.18 369.31l-2.93 2.13.06-3.62z"/></g><g class="key-Namibia"><circle cx="324" cy="177" r="1.1" fill="#923E8B" stroke="none" opacity=".7"/><path stroke-width=".42" opacity=".7" stroke="#923E8B" fill="none" stroke-linecap="butt" d="M324 177L124 320"/><path cx="124" cy="320" r="1.62" fill="#923E8B" opacity=".7" d="M126.26 320.38l-3.58.56 1.7-3.2z"/></g><g class="key-Latvia"><circle cx="53" cy="406" r="1.1" fill="#4C5C78" stroke="none" opacity=".7"/><path stroke-width=".42" opacity=".7" stroke="#4C5C78" fill="none" stroke-linecap="butt" d="M53 406l-1 22"/><path cx="52" cy="428" r="1.62" fill="#4C5C78" opacity=".7" d="M53.7 426.46l-1.77 3.16-1.47-3.31z"/></g><g class="key-Slovenia"><circle cx="97" cy="391" r="1.1" fill="#4C5C78" stroke="none" opacity=".7"/><path stroke-width=".42" opacity=".7" stroke="#4C5C78" fill="none" stroke-linecap="butt" d="M97 391l-45 36"/><path cx="52" cy="427" r="1.62" fill="#4C5C78" opacity=".7" d="M54.28 427.25l-3.55.76 1.52-3.29z"/></g><g class="key-Lesotho"><circle cx="112" cy="211" r="1.1" fill="#923E8B" stroke="none" opacity=".7"/><path stroke-width=".42" opacity=".7" stroke="#923E8B" fill="none" stroke-linecap="butt" d="M112 211L68 337"/><path cx="68" cy="337" r="1.62" fill="#923E8B" opacity=".7" d="M70.06 336l-2.6 2.53-.46-3.6z"/></g><g class="key-Botswana"><circle cx="404" cy="168" r="1.1" fill="#923E8B" stroke="none" opacity=".7"/><path stroke-width=".42" opacity=".7" stroke="#923E8B" fill="none" stroke-linecap="butt" d="M404 168L55 351"/><path cx="55" cy="351" r="1.62" fill="#923E8B" opacity=".7" d="M57.19 351.68l-3.62.07 2.11-2.94z"/></g><g class="key-Qatar"><circle cx="467" cy="155" r="1.1" fill="#2D8587" stroke="none" opacity=".7"/><path stroke-width=".42" opacity=".7" stroke="#2D8587" fill="none" stroke-linecap="butt" d="M467 155L66 399"/><path cx="66" cy="399" r="1.62" fill="#2D8587" opacity=".7" d="M68.23 399.54l-3.61.3 1.92-3.07z"/></g><g class="key-Gambia"><circle cx="697" cy="192" r="1.1" fill="#923E8B" stroke="none" opacity=".7"/><path stroke-width=".42" opacity=".7" stroke="#923E8B" fill="none" stroke-linecap="butt" d="M697 192l-207 30"/><path cx="490" cy="222" r="1.62" fill="#923E8B" opacity=".7" d="M491.84 223.37l-3.44-1.14 2.97-2.07z"/></g><g class="key-Gabon"><circle cx="286" cy="247" r="1.1" fill="#923E8B" stroke="none" opacity=".7"/><path stroke-width=".42" opacity=".7" stroke="#923E8B" fill="none" stroke-linecap="butt" d="M286 247L74 294"/><path cx="74" cy="294" r="1.62" fill="#923E8B" opacity=".7" d="M75.93 295.23l-3.51-.88 2.81-2.28z"/></g><g class="key-Estonia"><circle cx="56" cy="398" r="1.1" fill="#4C5C78" stroke="none" opacity=".7"/><path stroke-width=".42" opacity=".7" stroke="#4C5C78" fill="none" stroke-linecap="butt" d="M56 398l-4 22"/><path cx="52" cy="420" r="1.62" fill="#4C5C78" opacity=".7" d="M53.88 418.7l-2.17 2.9-1.01-3.48z"/></g><g class="key-Trinidad-and-Tobago"><circle cx="83" cy="324" r="1.1" fill="#E04E4B" stroke="none" opacity=".7"/><path stroke-width=".42" opacity=".7" stroke="#E04E4B" fill="none" stroke-linecap="butt" d="M83 324l-28 88"/><path cx="55" cy="412" r="1.62" fill="#E04E4B" opacity=".7" d="M57.03 410.95l-2.52 2.6-.56-3.58z"/></g><g class="key-Mauritius"><circle cx="265" cy="304" r="1.1" fill="#923E8B" stroke="none" opacity=".7"/><path stroke-width=".42" opacity=".7" stroke="#923E8B" fill="none" stroke-linecap="butt" d="M265 304L55 423"/><path cx="55" cy="423" r="1.62" fill="#923E8B" opacity=".7" d="M57.2 423.61l-3.6.19 2.01-3z"/></g><g class="key-Bahrain"><circle cx="542" cy="176" r="1.1" fill="#2D8587" stroke="none" opacity=".7"/><path stroke-width=".42" opacity=".7" stroke="#2D8587" fill="none" stroke-linecap="butt" d="M542 176L240 394"/><path cx="240" cy="394" r="1.62" fill="#2D8587" opacity=".7" d="M242.26 394.37l-3.57.58 1.68-3.21z"/></g><g class="key-Cyprus"><circle cx="86" cy="372" r="1.1" fill="#4C5C78" stroke="none" opacity=".7"/><path stroke-width=".42" opacity=".7" stroke="#4C5C78" fill="none" stroke-linecap="butt" d="M86 372l-35 59"/><path cx="51" cy="431" r="1.62" fill="#4C5C78" opacity=".7" d="M53.22 430.43l-3.05 1.96.26-3.61z"/></g><g class="key-Eswatini"><circle cx="345" cy="157" r="1.1" fill="#923E8B" stroke="none" opacity=".7"/><path stroke-width=".42" opacity=".7" stroke="#923E8B" fill="none" stroke-linecap="butt" d="M345 157L136 335"/><path cx="136" cy="335" r="1.62" fill="#923E8B" opacity=".7" d="M138.28 335.18l-3.51.87 1.41-3.33z"/></g><g class="key-Fiji"><circle cx="144" cy="274" r="1.1" fill="#A8633C" stroke="none" opacity=".7"/><path stroke-width=".41" opacity=".7" stroke="#A8633C" fill="none" stroke-linecap="butt" d="M144 274l-89 91"/><path cx="55" cy="365" r="1.61" fill="#A8633C" opacity=".7" d="M57.28 364.97l-3.4 1.18 1.1-3.43z"/></g><g class="key-Guyana"><circle cx="87" cy="232" r="1.1" fill="#932834" stroke="none" opacity=".7"/><path stroke-width=".41" opacity=".7" stroke="#932834" fill="none" stroke-linecap="butt" d="M87 232L61 369"/><path cx="61" cy="369" r="1.61" fill="#932834" opacity=".7" d="M62.88 367.72l-2.18 2.86-.98-3.46z"/></g><g class="key-Macao"><circle cx="180" cy="394" r="1.1" fill="#2D8587" stroke="none" opacity=".7"/><path stroke-width=".41" opacity=".7" stroke="#2D8587" fill="none" stroke-linecap="butt" d="M180 394L52 448"/><path cx="52" cy="448" r="1.61" fill="#2D8587" opacity=".7" d="M54.1 448.86l-3.58-.23 2.34-2.74z"/></g><g class="key-Luxembourg"><circle cx="54" cy="404" r="1.1" fill="#4C5C78" stroke="none" opacity=".7"/><path stroke-width=".41" opacity=".7" stroke="#4C5C78" fill="none" stroke-linecap="butt" d="M54 404l50 19"/><path cx="104" cy="423" r="1.61" fill="#4C5C78" opacity=".7" d="M103.07 420.92l2.44 2.65-3.59.36z"/></g><g class="key-Malta"><circle cx="258" cy="404" r="1.1" fill="#4C5C78" stroke="none" opacity=".7"/><path stroke-width=".41" opacity=".7" stroke="#4C5C78" fill="none" stroke-linecap="butt" d="M258 404L51 433"/><path cx="51" cy="433" r="1.61" fill="#4C5C78" opacity=".7" d="M52.82 434.37l-3.41-1.15 2.96-2.04z"/></g><g class="key-Brunei"><circle cx="410" cy="215" r="1.1" fill="#2D8587" stroke="none" opacity=".7"/><path stroke-width=".41" opacity=".7" stroke="#2D8587" fill="none" stroke-linecap="butt" d="M410 215L189 406"/><path cx="189" cy="406" r="1.61" fill="#2D8587" opacity=".7" d="M191.27 406.17l-3.49.88 1.39-3.32z"/></g><g class="key-Maldives"><circle cx="306" cy="139" r="1.1" fill="#2D8587" stroke="none" opacity=".7"/><path stroke-width=".41" opacity=".7" stroke="#2D8587" fill="none" stroke-linecap="butt" d="M306 139L61 392"/><path cx="61" cy="392" r="1.61" fill="#2D8587" opacity=".7" d="M63.28 391.96l-3.4 1.2 1.08-3.44z"/></g><g class="key-Belize"><circle cx="96" cy="186" r="1.1" fill="#E04E4B" stroke="none" opacity=".7"/><path stroke-width=".41" opacity=".7" stroke="#E04E4B" fill="none" stroke-linecap="butt" d="M96 186L52 368"/><path cx="52" cy="368" r="1.61" fill="#E04E4B" opacity=".7" d="M53.94 366.81l-2.32 2.75-.8-3.5z"/></g><g class="key-Iceland"><circle cx="55" cy="350" r="1.1" fill="#4C5C78" stroke="none" opacity=".7"/><path stroke-width=".41" opacity=".7" stroke="#4C5C78" fill="none" stroke-linecap="butt" d="M55 350l18 48"/><path cx="73" cy="398" r="1.61" fill="#4C5C78" opacity=".7" d="M73.94 395.93l-.37 3.58-2.64-2.45z"/></g><g class="key-Barbados"><circle cx="53" cy="346" r="1.1" fill="#E04E4B" stroke="none" opacity=".7"/><path stroke-width=".41" opacity=".7" stroke="#E04E4B" fill="none" stroke-linecap="butt" d="M53 346l-1 72"/><path cx="52" cy="418" r="1.61" fill="#E04E4B" opacity=".7" d="M53.63 416.41l-1.65 3.2-1.57-3.24z"/></g><g class="key-Tonga"><circle cx="135" cy="204" r="1.1" fill="#A8633C" stroke="none" opacity=".7"/><path stroke-width=".41" opacity=".7" stroke="#A8633C" fill="none" stroke-linecap="butt" d="M135 204L53 306"/><path cx="53" cy="306" r="1.61" fill="#A8633C" opacity=".7" d="M55.26 305.75l-3.27 1.5.76-3.51z"/></g><g class="backgroundLabels" fill="#333" font-weight="400"><text x="54.98" y="432.72" font-size="14.3" fill="#fff" stroke="#fff" stroke-linecap="round" stroke-linejoin="round" stroke-width=".25em">China</text><text x="54.98" y="432.72" font-size="14.3" fill="#2D8587">China</text><text x="236" y="382.11" font-size="13.98" fill="#fff" stroke="#fff" stroke-linecap="round" stroke-linejoin="round" stroke-width=".25em">India</text><text x="236" y="382.11" font-size="13.98" fill="#2D8587">India</text><text x="58.43" y="385.81" font-size="11.58" fill="#fff" stroke="#fff" stroke-linecap="round" stroke-linejoin="round" stroke-width=".25em">Indonesia</text><text x="58.43" y="385.81" font-size="11.58" fill="#2D8587">Indonesia</text><text x="356.61" y="312.13" font-size="11.43" fill="#fff" stroke="#fff" stroke-linecap="round" stroke-linejoin="round" stroke-width=".25em">Pakistan</text><text x="356.61" y="312.13" font-size="11.43" fill="#2D8587">Pakistan</text><text x="142.31" y="394.06" font-size="11.36" fill="#fff" stroke="#fff" stroke-linecap="round" stroke-linejoin="round" stroke-width=".25em">Bangladesh</text><text x="142.31" y="394.06" font-size="11.36" fill="#2D8587">Bangladesh</text><text x="61.14" y="353.26" font-size="11.23" fill="#fff" stroke="#fff" stroke-linecap="round" stroke-linejoin="round" stroke-width=".25em">Philippines</text><text x="61.14" y="353.26" font-size="11.23" fill="#2D8587">Philippines</text><text x="127.46" y="347.13" font-size="11.2" fill="#fff" stroke="#fff" stroke-linecap="round" stroke-linejoin="round" stroke-width=".25em">Egypt</text><text x="127.46" y="347.13" font-size="11.2" fill="#923E8B">Egypt</text><text x="242.3" y="173.65" font-size="11.16" fill="#fff" stroke="#fff" stroke-linecap="round" stroke-linejoin="round" stroke-width=".25em">Democratic Republic of Congo</text><text x="242.3" y="173.65" font-size="11.16" fill="#923E8B">Democratic Republic of Congo</text><text x="49.71" y="452" font-size="11.12" fill="#fff" stroke="#fff" stroke-linecap="round" stroke-linejoin="round" stroke-width=".25em">South Korea</text><text x="49.71" y="452" font-size="11.12" fill="#2D8587">South Korea</text><text x="111.2" y="236.42" font-size="11.11" fill="#fff" stroke="#fff" stroke-linecap="round" stroke-linejoin="round" stroke-width=".25em">Tanzania</text><text x="111.2" y="236.42" font-size="11.11" fill="#923E8B">Tanzania</text><text x="83.77" y="290.53" font-size="11.1" fill="#fff" stroke="#fff" stroke-linecap="round" stroke-linejoin="round" stroke-width=".25em">Kenya</text><text x="83.77" y="290.53" font-size="11.1" fill="#923E8B">Kenya</text><text x="368.09" y="265.37" font-size="11.08" fill="#fff" stroke="#fff" stroke-linecap="round" stroke-linejoin="round" stroke-width=".25em">Sudan</text><text x="368.09" y="265.37" font-size="11.08" fill="#923E8B">Sudan</text><text x="118.04" y="201.14" font-size="11.08" fill="#fff" stroke="#fff" stroke-linecap="round" stroke-linejoin="round" stroke-width=".25em">Uganda</text><text x="118.04" y="201.14" font-size="11.08" fill="#923E8B">Uganda</text><text x="321.32" y="382.34" font-size="11.08" fill="#fff" stroke="#fff" stroke-linecap="round" stroke-linejoin="round" stroke-width=".25em">Morocco</text><text x="321.32" y="382.34" font-size="11.08" fill="#923E8B">Morocco</text><text x="184.11" y="291.13" font-size="11.07" fill="#fff" stroke="#fff" stroke-linecap="round" stroke-linejoin="round" stroke-width=".25em">Iraq</text><text x="184.11" y="291.13" font-size="11.07" fill="#2D8587">Iraq</text><text x="452.55" y="209.33" font-size="11.07" fill="#fff" stroke="#fff" stroke-linecap="round" stroke-linejoin="round" stroke-width=".25em">Afghanistan</text><text x="452.55" y="209.33" font-size="11.07" fill="#2D8587">Afghanistan</text><text x="60.71" y="403.1" font-size="11.07" fill="#fff" stroke="#fff" stroke-linecap="round" stroke-linejoin="round" stroke-width=".25em">Malaysia</text><text x="60.71" y="403.1" font-size="11.07" fill="#2D8587">Malaysia</text><text x="500.68" y="240.72" font-size="11.06" fill="#fff" stroke="#fff" stroke-linecap="round" stroke-linejoin="round" stroke-width=".25em">Mozambique</text><text x="500.68" y="240.72" font-size="11.06" fill="#923E8B">Mozambique</text><text x="486.25" y="277.01" font-size="11.06" fill="#fff" stroke="#fff" stroke-linecap="round" stroke-linejoin="round" stroke-width=".25em">Yemen</text><text x="486.25" y="277.01" font-size="11.06" fill="#2D8587">Yemen</text><text x="263.49" y="254.39" font-size="11.05" fill="#fff" stroke="#fff" stroke-linecap="round" stroke-linejoin="round" stroke-width=".25em">Cote d&apos;Ivoire</text><text x="263.49" y="254.39" font-size="11.05" fill="#923E8B">Cote d&apos;Ivoire</text><text x="570.62" y="132.76" font-size="11.04" fill="#fff" stroke="#fff" stroke-linecap="round" stroke-linejoin="round" stroke-width=".25em">Niger</text><text x="570.62" y="132.76" font-size="11.04" fill="#923E8B">Niger</text><text x="542.93" y="179.63" font-size="11.04" fill="#fff" stroke="#fff" stroke-linecap="round" stroke-linejoin="round" stroke-width=".25em">Mali</text><text x="542.93" y="179.63" font-size="11.04" fill="#923E8B">Mali</text><text x="59.15" y="241.73" font-size="11.03" fill="#fff" stroke="#fff" stroke-linecap="round" stroke-linejoin="round" stroke-width=".25em">Malawi</text><text x="59.15" y="241.73" font-size="11.03" fill="#923E8B">Malawi</text><text x="147.12" y="365.8" font-size="11.03" fill="#fff" stroke="#fff" stroke-linecap="round" stroke-linejoin="round" stroke-width=".25em">Cambodia</text><text x="147.12" y="365.8" font-size="11.03" fill="#2D8587">Cambodia</text><text x="84.13" y="308.68" font-size="11.03" fill="#fff" stroke="#fff" stroke-linecap="round" stroke-linejoin="round" stroke-width=".25em">Zimbabwe</text><text x="84.13" y="308.68" font-size="11.03" fill="#923E8B">Zimbabwe</text><text x="406.83" y="257.86" font-size="11.03" fill="#fff" stroke="#fff" stroke-linecap="round" stroke-linejoin="round" stroke-width=".25em">Senegal</text><text x="406.83" y="257.86" font-size="11.03" fill="#923E8B">Senegal</text><text x="298.13" y="283.06" font-size="11.02" fill="#fff" stroke="#fff" stroke-linecap="round" stroke-linejoin="round" stroke-width=".25em">Rwanda</text><text x="298.13" y="283.06" font-size="11.02" fill="#923E8B">Rwanda</text><text x="400.75" y="339.22" font-size="11.02" fill="#fff" stroke="#fff" stroke-linecap="round" stroke-linejoin="round" stroke-width=".25em">Haiti</text><text x="400.75" y="339.22" font-size="11.02" fill="#E04E4B">Haiti</text><text x="324.03" y="198.76" font-size="11.02" fill="#fff" stroke="#fff" stroke-linecap="round" stroke-linejoin="round" stroke-width=".25em">Burundi</text><text x="324.03" y="198.76" font-size="11.02" fill="#923E8B">Burundi</text><text x="49.64" y="331.92" font-size="11.02" fill="#fff" stroke="#fff" stroke-linecap="round" stroke-linejoin="round" stroke-width=".25em">Tajikistan</text><text x="49.64" y="331.92" font-size="11.02" fill="#2D8587">Tajikistan</text><text x="141.25" y="308.93" font-size="11.02" fill="#fff" stroke="#fff" stroke-linecap="round" stroke-linejoin="round" stroke-width=".25em">Papua New Guinea</text><text x="141.25" y="308.93" font-size="11.02" fill="#A8633C">Papua New Guinea</text><text x="232.41" y="352.52" font-size="11.01" fill="#fff" stroke="#fff" stroke-linecap="round" stroke-linejoin="round" stroke-width=".25em">Laos</text><text x="232.41" y="352.52" font-size="11.01" fill="#2D8587">Laos</text><text x="125.83" y="419.82" font-size="11.01" fill="#fff" stroke="#fff" stroke-linecap="round" stroke-linejoin="round" stroke-width=".25em">Denmark</text><text x="125.83" y="419.82" font-size="11.01" fill="#4C5C78">Denmark</text><text x="446.43" y="228.22" font-size="11" fill="#fff" stroke="#fff" stroke-linecap="round" stroke-linejoin="round" stroke-width=".25em">Gambia</text><text x="446.43" y="228.22" font-size="11" fill="#923E8B">Gambia</text></g></g><g class="ScatterColorLegend clickable" cursor="pointer"><g class="legendMark"><path fill="#923E8B" d="M738.09 83h9v9h-9z"/><text font-size="12.6" x="752.1" y="91.3"><tspan x="752.09" y="91.28">Africa</tspan></text></g><g class="legendMark"><path fill="#2D8587" d="M738.09 100.6h9v9h-9z"/><text font-size="12.6" x="752.1" y="108.9"><tspan x="752.09" y="108.88">Asia</tspan></text></g><g class="legendMark"><path fill="#4C5C78" d="M738.09 118.2h9v9h-9z"/><text font-size="12.6" x="752.1" y="126.5"><tspan x="752.09" y="126.48">Europe</tspan></text></g><g class="legendMark"><path fill="#E04E4B" d="M738.09 135.8h9v9h-9z"/><text font-size="12.6" x="752.1" y="144.1"><tspan x="752.09" y="144.08">North America</tspan></text></g><g class="legendMark"><path fill="#A8633C" d="M738.09 153.4h9v9h-9z"/><text font-size="12.6" x="752.1" y="161.7"><tspan x="752.09" y="161.68">Oceania</tspan></text></g><g class="legendMark"><path fill="#932834" d="M738.09 171h9v9h-9z"/><text font-size="12.6" x="752.1" y="179.3"><tspan x="752.09" y="179.28">South America</tspan></text></g></g><path stroke="#ccc" d="M738.09 188.8H830"/><g class="clickable"><g class="ConnectedScatterLegend"><text font-size="12.6" x="738.1" y="207.9" fill="#333"><tspan x="738.09" y="207.88">1970</tspan></text><text font-size="12.6" x="806.8" y="207.9" fill="#333"><tspan x="806.78" y="207.88">2010</tspan></text><path stroke="#666" stroke-width="1" d="M771.32 203.6h30.46"/><circle cx="771.32" cy="203.6" r="2" fill="#666" stroke="#ccc" stroke-width=".2"/><path cx="801.78" cy="203.6" r="3" fill="#666" stroke="#ccc" stroke-width=".2" d="M798.78 200.6l6 3-6 3z"/></g></g></g><g class="SourcesFooter" fill="#777"><g fill="#777"><text font-size="12.6" x="15" y="582.5"><tspan x="15" y="582.48">Source: United Nations – Population Division (2019 Revision), World Bank</tspan></text></g><text font-size="12.6" x="796.4" y="582.5"><tspan x="796.44" y="582.48"><a class="cclogo" href="http://creativecommons.org/licenses/by/4.0/deed.en_US" target="_blank" fill="#777">CC BY</a></tspan></text></g></svg>