<svg xmlns="http://www.w3.org/2000/svg" version="1.1" style="font-family:Lato,'Helvetica Neue',Helvetica,Arial,sans-serif;font-size:18px;background-color:#fff;text-rendering:geometricPrecision;-webkit-font-smoothing:antialiased" width="850" height="600" viewBox="0 0 850 600"><g class="HeaderView"><g transform="matrix(.95 0 0 .95 739 15)"><svg className="coreLogo" width="102" height="37" viewBox="0 0 102 37" fill="none" xmlns="http://www.w3.org/2000/svg"><path d="M47 0H0v37h47V0z" fill="#EA4148"/><path d="M3.78 11.85c0-3.55 2.67-5.6 5.68-5.6a4.63 4.63 0 0 1 3.09 1.1l-1.7 2.36c-.31-.32-.74-.5-1.18-.52-1.36 0-2.16 1.03-2.16 2.66 0 1.62.89 2.65 2.03 2.65a2.93 2.93 0 0 0 1.7-.69l1.4 2.4a5.29 5.29 0 0 1-3.52 1.24c-3 0-5.34-2.05-5.34-5.6z" fill="#fff"/><path d="M18.85 11.85c0-1.63-.42-2.66-1.52-2.66s-1.52 1.03-1.52 2.66c0 1.62.42 2.65 1.52 2.65s1.52-1.03 1.52-2.65zm-6.77 0c0-3.55 2.54-5.6 5.25-5.6 2.7 0 5.25 2.05 5.25 5.6s-2.54 5.6-5.25 5.6-5.25-2.05-5.25-5.6M23.34 6.5h2.97l.25 1.84h.09c.78-1.46 1.97-2.1 3-2.1.45-.02.9.05 1.32.22l-.6 3.16c-.38-.1-.78-.16-1.18-.17-.76 0-1.7.47-2.2 1.8v5.94h-3.65V6.5zm13.64 4.06c0-.81-.34-1.54-1.44-1.54-.8 0-1.49.47-1.7 1.54h3.14zm-6.6 1.29c0-3.47 2.49-5.6 5.07-5.6 3.13 0 4.62 2.3 4.62 5.17 0 .52-.05 1.03-.15 1.54h-6.04c.34 1.28 1.27 1.71 2.46 1.71a4.3 4.3 0 0 0 2.16-.64l1.18 2.18a7.08 7.08 0 0 1-3.85 1.24c-3.09 0-5.46-2.05-5.46-5.6" fill="#fff"/><path d="M10.43 23.87c0-.81-.34-1.54-1.44-1.54-.8 0-1.48.47-1.69 1.54h3.13zm-6.6 1.28c0-3.46 2.5-5.6 5.08-5.6 3.13 0 4.61 2.3 4.61 5.18 0 .51-.05 1.03-.15 1.54H7.34c.34 1.28 1.27 1.7 2.46 1.7.76-.01 1.5-.23 2.16-.63l1.18 2.18a7.08 7.08 0 0 1-3.85 1.24c-3.1 0-5.46-2.06-5.46-5.6m10.07-.01c0-3.55 2.67-5.6 5.68-5.6a4.63 4.63 0 0 1 3.09 1.11l-1.7 2.35c-.32-.31-.74-.5-1.18-.51-1.36 0-2.16 1.03-2.16 2.65 0 1.63.89 2.66 2.03 2.66a2.93 2.93 0 0 0 1.7-.69l1.39 2.4a5.29 5.29 0 0 1-3.51 1.24c-3 0-5.34-2.06-5.34-5.6" fill="#1A1818"/><path d="M28.97 25.15c0-1.62-.42-2.65-1.52-2.65s-1.52 1.03-1.52 2.65c0 1.63.42 2.66 1.52 2.66s1.52-1.03 1.52-2.66zm-6.77 0c0-3.55 2.54-5.6 5.25-5.6 2.7 0 5.25 2.05 5.25 5.6s-2.54 5.6-5.25 5.6-5.25-2.04-5.25-5.6m11.34-5.35h2.97l.25 1.29h.09a4.76 4.76 0 0 1 3.34-1.54c2.33 0 3.3 1.71 3.3 4.36v6.6h-3.64v-6.13c0-1.37-.34-1.7-1.06-1.7-.67 0-1.05.3-1.6.8v7.02h-3.65V19.8z" fill="#1A1818"/><path fill="#fff" d="M48 0h54v37H48z"/><path d="M48 0h53.93v33H48V0z" fill="#002147"/><path d="M58.42 10.86c0 .61-.1 1.18-.3 1.7a3.83 3.83 0 0 1-2.15 2.21c-.5.21-1.07.32-1.7.32-.6 0-1.17-.1-1.68-.32a3.9 3.9 0 0 1-2.15-2.21c-.2-.52-.3-1.09-.3-1.7 0-.61.1-1.18.3-1.7a3.93 3.93 0 0 1 2.15-2.22 4.38 4.38 0 0 1 1.69-.31c.62 0 1.18.1 1.69.31a3.79 3.79 0 0 1 2.15 2.22c.2.52.3 1.09.3 1.7zm-1.38 0c0-.48-.06-.9-.2-1.28A2.38 2.38 0 0 0 55.43 8a2.97 2.97 0 0 0-1.14-.21c-.42 0-.8.07-1.15.21-.34.14-.63.35-.87.61a2.8 2.8 0 0 0-.56.97c-.13.38-.2.8-.2 1.28s.07.9.2 1.29a2.46 2.46 0 0 0 1.43 1.57c.35.14.73.2 1.15.2.42 0 .8-.06 1.15-.2a2.4 2.4 0 0 0 1.42-1.57c.13-.38.2-.81.2-1.29zm7.14-1.72V15h-.74c-.17 0-.27-.08-.32-.24l-.1-.54a3.42 3.42 0 0 1-.81.63 2.3 2.3 0 0 1-1.06.24c-.32 0-.6-.05-.85-.16a1.72 1.72 0 0 1-1-1.15 3.1 3.1 0 0 1-.12-.91V9.14h1.24v3.73c0 .4.09.7.27.92.18.22.46.32.83.32.27 0 .53-.06.76-.18.24-.13.46-.3.67-.52V9.13h1.23zm2.33 1.08c.18-.37.4-.66.66-.87.27-.22.58-.32.94-.32a1.34 1.34 0 0 1 .66.17l-.09.93a.26.26 0 0 1-.07.14.2.2 0 0 1-.13.03c-.06 0-.14 0-.25-.03a1.62 1.62 0 0 0-.8.04c-.13.05-.25.13-.35.22-.1.1-.2.21-.28.35-.08.14-.15.3-.22.47V15h-1.24V9.13h.72c.13 0 .22.03.27.08.05.05.08.13.1.25l.08.76zm16-3.5L79.94 15h-1.21l-1.95-5.95a4.7 4.7 0 0 1-.12-.46 3.32 3.32 0 0 1-.13.46L74.57 15h-1.22l-2.57-8.28h1.13c.11 0 .2.03.28.09.08.05.14.12.16.22l1.56 5.3a6.11 6.11 0 0 1 .16.8 10 10 0 0 1 .2-.8l1.78-5.3a.48.48 0 0 1 .16-.21.4.4 0 0 1 .28-.1h.4c.11 0 .21.03.28.1.08.05.13.12.17.21l1.77 5.3.1.37.1.4a59.35 59.35 0 0 0 .16-.76L81 7.03a.4.4 0 0 1 .16-.22.49.49 0 0 1 .3-.09h1.04zm2.41 2.32c.44 0 .83.07 1.18.22a2.49 2.49 0 0 1 1.47 1.55c.13.37.2.79.2 1.25 0 .47-.07.88-.2 1.26-.14.37-.33.69-.58.95a2.87 2.87 0 0 1-2.07.82c-.43 0-.83-.07-1.18-.22a2.55 2.55 0 0 1-1.47-1.55c-.14-.38-.2-.8-.2-1.26 0-.46.06-.88.2-1.25a2.55 2.55 0 0 1 1.47-1.55c.35-.15.75-.22 1.18-.22zm0 5.08c.53 0 .92-.18 1.18-.53.26-.36.4-.86.4-1.52s-.14-1.17-.4-1.53c-.26-.36-.65-.54-1.18-.54-.53 0-.93.18-1.2.54-.25.36-.38.87-.38 1.53s.13 1.16.39 1.52c.26.35.66.53 1.2.53zm4.86-3.9c.18-.37.4-.66.67-.87.26-.22.57-.32.93-.32a1.34 1.34 0 0 1 .66.17l-.09.93a.26.26 0 0 1-.07.14.2.2 0 0 1-.13.03c-.06 0-.14 0-.25-.03a1.62 1.62 0 0 0-.8.04 1.29 1.29 0 0 0-.63.57c-.08.14-.15.3-.22.47V15H88.6V9.13h.72c.13 0 .22.03.27.08.05.05.08.13.1.25l.08.76zm4-3.73V15h-1.25V6.49h1.24zm4.91 4.09a1.45 1.45 0 0 0-1.24-.6c-.48 0-.86.18-1.13.54-.27.35-.4.87-.4 1.56 0 .37.02.67.08.93.07.25.15.46.27.62.11.16.25.28.42.35.16.08.35.11.56.11.31 0 .58-.07.8-.2.24-.14.45-.33.64-.58v-2.73zm1.24-4.09V15h-.75c-.16 0-.27-.08-.31-.24l-.11-.63c-.25.28-.53.52-.84.7-.31.17-.67.26-1.09.26a1.96 1.96 0 0 1-1.59-.78 2.73 2.73 0 0 1-.44-.94 4.86 4.86 0 0 1 .01-2.5c.12-.37.3-.7.51-.96a2.3 2.3 0 0 1 1.85-.88c.34 0 .63.05.88.16.24.11.45.26.64.46V6.49h1.24zm-39.9 14.65V27h-1.24v-5.86h1.24zm.2-1.78c0 .12-.02.22-.06.32a.83.83 0 0 1-1.34.26.8.8 0 0 1-.24-.58c0-.11.02-.22.06-.32a.89.89 0 0 1 .43-.43.76.76 0 0 1 .64 0 .81.81 0 0 1 .45.43c.04.1.06.2.06.32zm2.16 2.55a3.67 3.67 0 0 1 .83-.63 2.32 2.32 0 0 1 1.9-.08c.24.11.45.26.61.46.17.2.3.43.38.7.09.28.13.58.13.9V27H65v-3.73c0-.4-.1-.7-.28-.92-.18-.22-.45-.33-.83-.33-.27 0-.53.06-.77.19-.23.13-.45.3-.66.52V27h-1.23v-5.86h.74c.17 0 .28.07.33.23l.08.54zm14.96.95c0 .61-.1 1.17-.3 1.68a3.78 3.78 0 0 1-2.15 2.16c-.5.2-1.07.3-1.69.3H70.1v-8.28h3.12c.62 0 1.19.1 1.7.3a3.71 3.71 0 0 1 2.14 2.16c.2.5.3 1.07.3 1.68zm-1.37 0c0-.48-.07-.9-.2-1.28a2.6 2.6 0 0 0-.55-.96 2.35 2.35 0 0 0-.87-.6 2.97 2.97 0 0 0-1.15-.21h-1.77v6.1h1.77c.43 0 .81-.07 1.15-.2a2.42 2.42 0 0 0 1.42-1.56c.13-.38.2-.81.2-1.29zm5.27 1.58a7.5 7.5 0 0 0-1.12.1c-.3.06-.55.13-.73.22a.97.97 0 0 0-.41.3.68.68 0 0 0-.12.4c0 .13.02.25.06.35.05.1.1.18.18.24.08.06.18.1.28.14a1.78 1.78 0 0 0 1.18-.14c.23-.12.46-.3.68-.53v-1.08zm-3.28-2.49a3.36 3.36 0 0 1 2.37-.92c.34 0 .63.05.9.16a1.83 1.83 0 0 1 1.06 1.18c.1.27.15.57.15.9V27h-.55a.56.56 0 0 1-.27-.05.42.42 0 0 1-.16-.23l-.12-.47-.44.36c-.15.1-.3.2-.46.26a2.77 2.77 0 0 1-1.75.12c-.2-.06-.38-.16-.53-.29a1.46 1.46 0 0 1-.48-1.18c0-.23.06-.45.18-.66.12-.22.32-.41.6-.58a4 4 0 0 1 1.1-.43 8.03 8.03 0 0 1 1.68-.19v-.39c0-.42-.1-.73-.27-.94-.18-.2-.45-.3-.8-.3-.23-.01-.43.02-.6.08a6.05 6.05 0 0 0-.74.39.54.54 0 0 1-.28.08.38.38 0 0 1-.22-.06.6.6 0 0 1-.15-.17l-.22-.4zm7.38 5.14c-.48 0-.86-.13-1.12-.4-.26-.28-.4-.67-.4-1.17v-3.41h-.64a.27.27 0 0 1-.18-.07c-.05-.04-.07-.11-.07-.2v-.5l.95-.14.27-1.7a.31.31 0 0 1 .1-.15c.04-.04.1-.06.18-.06h.63v1.93h1.63v.89h-1.63v3.33c0 .2.05.37.16.48.1.11.24.17.41.17a.79.79 0 0 0 .43-.12 4 4 0 0 0 .12-.08.2.2 0 0 1 .11-.04c.07 0 .13.04.17.11l.37.6c-.2.18-.42.3-.68.4a2.5 2.5 0 0 1-.8.13zm5.11-2.65a7.5 7.5 0 0 0-1.11.1 3 3 0 0 0-.74.22.97.97 0 0 0-.4.3.68.68 0 0 0-.13.4c0 .13.02.25.06.35.05.1.11.18.19.24s.17.1.28.14a1.78 1.78 0 0 0 1.18-.14c.23-.12.45-.3.67-.53v-1.08zm-3.28-2.49a3.36 3.36 0 0 1 2.37-.92c.34 0 .64.05.9.16.27.11.49.26.66.46.18.2.32.44.41.72.1.27.14.57.14.9V27h-.55a.56.56 0 0 1-.27-.05c-.06-.04-.11-.11-.15-.23l-.12-.47-.45.36c-.14.1-.3.2-.45.26a2.77 2.77 0 0 1-1.75.12c-.2-.06-.38-.16-.53-.29a1.46 1.46 0 0 1-.49-1.18c0-.23.06-.45.18-.66.12-.22.32-.41.6-.58.28-.17.65-.31 1.1-.43a8.03 8.03 0 0 1 1.68-.19v-.39c0-.42-.09-.73-.27-.94-.18-.2-.44-.3-.8-.3a1.5 1.5 0 0 0-.59.08 6.09 6.09 0 0 0-.74.39.54.54 0 0 1-.29.08.38.38 0 0 1-.22-.06.6.6 0 0 1-.14-.17l-.23-.4z" fill="#fff"/><path fill="#D42B21" d="M48 32.65h54V37H48z"/></svg></g><a href="https://ourworldindata.org/grapher/firm-size-in-the-us-number-of-employees" style="font-family:&quot;Playfair Display&quot;,Georgia,&quot;Times New Roman&quot;,serif" target="_blank" rel="noopener"><text font-size="25.2" x="15" y="35.2" fill="#555"><tspan x="15" y="35.16">Firm size in the US: Number of employees, 1887 to 2021</tspan></text></a><text font-size="14.4" x="15" y="55.7" fill="#666"><tspan x="15" y="55.72">Unit 7 &apos;The firm and its customers’ in The CORE Team, The Economy. Available at:</tspan><tspan x="15" y="73">https://tinyco.re/07017110 [Figure 7.1]</tspan></text></g><g class="LineChart"><defs><clipPath id="a"><path d="M83.06 82.2h840v460.6h-840z"/></clipPath></defs><g class="DualAxisView"><g class="HorizontalAxis"><path stroke="#999" d="M93.1 511.6v5M678.8 511.6v5M237.3 511.6v5M324.7 511.6v5M412.1 511.6v5M499.6 511.6v5M587 511.6v5"/><text x="93.06" y="532.8" fill="#666" text-anchor="start" font-size="16.2">1887</text><text x="678.77" y="532.8" fill="#666" text-anchor="end" font-size="16.2">2021</text><text x="237.3" y="532.8" fill="#666" text-anchor="middle" font-size="16.2">1920</text><text x="324.7" y="532.8" fill="#666" text-anchor="middle" font-size="16.2">1940</text><text x="412.1" y="532.8" fill="#666" text-anchor="middle" font-size="16.2">1960</text><text x="499.6" y="532.8" fill="#666" text-anchor="middle" font-size="16.2">1980</text><text x="587" y="532.8" fill="#666" text-anchor="middle" font-size="16.2">2000</text></g><g class="VerticalAxis" text-anchor="end" fill="#666" font-size="16.2"><text x="88.06" y="511.6" dy=".32em">0</text><text x="88.06" y="420.4" dy=".32em">500,000</text><text x="88.06" y="329.3" dy=".32em">1 million</text><text x="88.06" y="238.1" dy=".32em">1.5 million</text><text x="88.06" y="146.9" dy=".32em">2 million</text></g><g class="AxisGridLines horizontalLines"><path stroke="#999" d="M93.06 511.6h585.71"/><path stroke="#ddd" stroke-dasharray="3,2" d="M93.06 420.4h585.71M93.06 329.3h585.71M93.06 238.1h585.71M93.06 146.9h585.71"/></g></g><g clip-path="url(#a)"><g class="LineLabels" style="cursor:default"><g class="legendMark"><g class="indicator"><path d="M682.77 92.2h13.5v6.75h13.5" stroke="#999" stroke-width=".5" fill="none"/></g><text font-size="13.5" font-weight="400" x="713.8" y="103" fill="#3360a9"><tspan x="713.77" y="103">Walmart</tspan></text></g><g class="legendMark"><g class="indicator"><path d="M682.77 274.9h27" stroke="#999" stroke-width=".5" fill="none"/></g><text font-size="13.5" font-weight="400" x="713.8" y="278.9" fill="#6cabb1"><tspan x="713.77" y="278.95">Amazon</tspan></text></g><g class="legendMark"><g class="indicator"><path d="M682.77 458.9h4.5v-31.55h22.5" stroke="#999" stroke-width=".5" fill="none"/></g><text font-size="13.5" font-weight="400" x="713.8" y="431.4" fill="#34983f"><tspan x="713.77" y="431.4">FedEx</tspan></text></g><g class="legendMark"><g class="indicator"><path d="M682.77 475.1h9v-32.25h18" stroke="#999" stroke-width=".5" fill="none"/></g><text font-size="13.5" font-weight="400" x="713.8" y="446.9" fill="#e3682b"><tspan x="713.77" y="446.9">McDonald&apos;s</tspan></text></g><g class="legendMark"><g class="indicator"><path d="M682.77 477.7h13.5v-19.35h13.5" stroke="#999" stroke-width=".5" fill="none"/></g><text font-size="13.5" font-weight="400" x="713.8" y="462.4" fill="#a771a8"><tspan x="713.77" y="462.4">Ford</tspan></text></g><g class="legendMark"><g class="indicator"><path d="M682.77 482.8h18v-8.95h9" stroke="#999" stroke-width=".5" fill="none"/></g><text font-size="13.5" font-weight="400" x="713.8" y="477.9" fill="#d68e1f"><tspan x="713.77" y="477.9">Dell</tspan></text></g><g class="legendMark"><g class="indicator"><path d="M682.77 491.4h22.5v-2.05h4.5" stroke="#999" stroke-width=".5" fill="none"/></g><text font-size="13.5" font-weight="400" x="713.8" y="493.4" fill="#e6332e"><tspan x="713.77" y="493.4">Intel</tspan></text></g><g class="legendMark"><g class="indicator"><path d="M682.77 493.2h22.5v11.65h4.5" stroke="#999" stroke-width=".5" fill="none"/></g><text font-size="13.5" font-weight="400" x="713.8" y="508.9" fill="#a652ba"><tspan x="713.77" y="508.9">Proctor and Gamble</tspan></text></g></g><g class="Lines"><g><path stroke-linecap="round" stroke-linejoin="round" stroke="#ddd" d="m569.5 511.6 4.4-.1 4.3-.3 4.4-1 4.4-.2 4.4.2h8.7l4.4-.2 4.3-.6 4.4-.3 4.4-.6 4.3-.7 4.4-.6 4.4-1.7 4.4-4.1 4.3-5.9 4.4-5.3 4.4-6.7 4.3-14 4.4-20.2 4.4-40.9 4.4-14.9 4.3-27.4 4.4-91.2" fill="none" stroke-width="1"/></g><g><path stroke-linecap="round" stroke-linejoin="round" stroke="#ddd" d="m530.2 511.5 4.3-.1 4.4-.1 4.4-.1 4.3-.1 4.4-.3 4.4-.3 4.4-.1 4.3-.3 4.4-.4 4.4-1 4.3-1.5 4.4-2.3 4.4-.6 4.4 1 4.3-.8 4.4-1.3 4.4-1.8 4.3-1.9 48.1-6.5 4.4-6.6 4.4-1.2 4.3-2.2 4.4-1.5 4.4 1.3" fill="none" stroke-width="1"/></g><g><path stroke-linecap="round" stroke-linejoin="round" stroke="#ddd" d="m460.2 511.5 26.2-.7 4.4-.3 4.4-.4 4.4-.3 4.3-.4 4.4-.8 4.4-1.7 4.3-1.1 4.4-.4 4.4-2.5 4.4-2 4.3-3.6 4.4-1.5 4.4-.9 4.3-.6h4.4l4.4-1.1 4.4-1.1 4.3-1.3 4.4-2.2 4.4-7.8 4.3-1.5 4.4 5.1 4.4-5.1 4.4-1.4 4.3-5.1 4.4-4.7 4.4 2.5 4.3-6.4 4.4-3.7 4.4 25 4.3-.3 4.4.9 4.4-.2 4.4-.4 4.3-1.1 4.4-2.1 4.4-.2 4.3-.8 4.4-.3 4.4-.2 4.4-10.6 4.3-2.2 4.4-1.1 4.4-8" fill="none" stroke-width="1"/></g><g><path stroke-linecap="round" stroke-linejoin="round" stroke="#ddd" d="m460.2 511.5 4.4-.1 4.4-.4h4.3l4.4-.2 4.4-.5 4.3-.2 4.4-.5 4.4-.6 4.4-.3 4.3-.2 4.4-.4 4.4-.4 4.3-.7 4.4.7 4.4.6 4.4-.2 4.3-.3 4.4-.2 4.4-.4 4.3-.1 4.4-.2 4.4-.7 4.4-.5 4.3-1.7 4.4-1.2 4.4-2.8 4.3-.2 4.4-1 4.4-2.9 4.4.5 4.3.8 4.4-.1 4.4-1 4.3-2.7 4.4 1 4.4 1.5 4.3.4 4.4.7 4.4-.4 4.4-3.3 4.3-.8 4.4-.5 4.4.1 4.3-.1 4.4.3 4.4.6 4.4-.9 4.3-.6h4.4" fill="none" stroke-width="1"/></g><g><path stroke-linecap="round" stroke-linejoin="round" stroke="#ddd" d="m455.9 511.4 4.3-.2 4.4-.3 4.4-.1 4.3-.3 4.4-.3 4.4-.4 4.3-.7 4.4-.7 4.4-.7 4.4-1 4.3-2.6 4.4-.9 4.4-2.9 4.3-3.5 4.4-4.2 4.4-6.7 4.4-7.7 4.3-7.3 4.4-8.7 4.4-10.4 4.3-7.9 4.4-11.4 4.4-17.2 4.4-17.1 4.3-9.7 4.4-9.6 4.4-17.7 4.3-15.5 4.4-42 4.4-18.9 4.4-25.4 4.3-3.1 4.4-18.2 4.4-36.5 4.3-18.2 4.4-18.3h4.4l4.3-36.4H635.1l4.3-18.3H652.5l4.4-18.2h8.8l4.3 18.2h4.4l4.4-18.2" fill="none" stroke-width="1"/></g><g><path stroke-linecap="round" stroke-linejoin="round" stroke="#ddd" d="m434 511.2 21.9-2.7 4.3-.8 4.4-1.3 4.4-3.7 4.3-1.3 4.4-2.7 4.4-1.3 4.3-2.2 4.4-1.1 4.4-2.6 4.4-1.2 4.3-3.5 4.4 2 4.4-.4 4.3-1.8 4.4-2 4.4-2h4.4l4.3-1.8 4.4-1.3 4.4-.2 4.3 1.7 4.4.3 4.4-.2 4.4-2.9 4.3-5.3 4.4-4.5 4.4-5.5 4.3-3.1 4.4-5.5 4.4-9.1 4.4-5.6 4.3-3.3 4.4-.9 4.4-3.7 4.3-1.6 4.4-3.3 4.4 13.7 4.3-1.8 4.4 2.7 4.4-2.7 4.4-3.7 4.3-3.6h4.4l4.4 3.6h4.3l4.4 8.2 4.4 25.5 4.4 4.6 4.3.9 4.4.9" fill="none" stroke-width="1"/></g><g><path stroke-linecap="round" stroke-linejoin="round" stroke="#ddd" d="m184.9 511.5 21.8-2.4 4.4.3 4.3-1.1 56.9-28.4 39.3 9.5 4.4-.6 4.4 1.5 17.4-13.8 4.4 8.8 4.4 5.9 4.3-1.7 4.4-2 4.4-1.5 17.5-10.5 4.3-10.1h4.4l4.4-2.9 4.4.5 4.3-2 4.4 8.7 4.4-4 4.3-2.6 4.4.7 4.4-7.4 4.4-2.5 4.3-3.7 4.4-5.1 4.4-4.3 4.3-1.1 4.4-3.8 4.4-3.9 4.4.9 4.3-.3 4.4-1.7 4.4-5.8 4.3 1.8 4.4 8.8 4.4-5 4.3-6.5 4.4-5 4.4 2.2 4.4 12.4 4.3 4 4.4 4.6 4.4-.1 4.3-.7 4.4 2.7 4.4-2.4 4.4 5.8 4.3-1.6 4.4-1.4 4.4-.6 4.3 6.8 4.4 1.4 4.4.5 4.4-2.8 4.3-1.7 4.4-4.5 4.4 1.4 4.3 3.5 4.4-3.6 4.4 3.4 4.4-1.5 4.3.7 4.4 4.2 4.4.5 4.3 4.5 4.4 3.1 4.4 6.7 4.3 6.1 4.4 2.7 4.4 6.2h4.4l4.3-1.3 4.4-1.8 4.4-1.1 4.3-2.2 4.4-.4 4.4-.1 4.4.5 4.3 1.7 4.4.7" fill="none" stroke-width="1"/></g><g><path stroke-linecap="round" stroke-linejoin="round" stroke="#ddd" d="m93.1 511.5 179.2-1.7 8.7-.2 4.4.2 8.7.1 8.8-.1h4.3l4.4-.3 4.4-.4h4.4l4.3-.1 8.8-.1h26.2l13.1-1.2 4.4-1.4 4.3-.4 4.4.9 4.4-.1 4.4-.4 4.3-.2h4.4l4.4-.2h4.3l4.4-.2 4.4-.1 4.4.2 4.3-.2 4.4-.4 4.4-.5 4.3-.6 4.4-.1 4.4-.3 4.4.2 4.3-.3 4.4-.2 4.4-.4 4.3-.5 4.4-.2 4.4-.2 4.3-.3 4.4-.2 4.4-.8 4.4-.3 4.3.2 4.4-.9 4.4.5h8.7l4.4-2.2 4.4.2 4.3-.7 4.4-.4 4.4-1.8 4.3-.9 4.4-2.2 4.4.4 4.4 1.3 4.3-.5 4.4-.7 4.4-.5 4.3-.8h8.8l4.4.8 4.3.7 4.4.7 4.4-2.2h4.3l4.4-5.1h8.7l4.4.6 4.4 1.4 4.4-.3 4.3.5 4.4.9 4.4.6 4.3 1.4 4.4 1 4.4 1.8 4.4.5 4.3-.9 4.4-.4 4.4-.3" fill="none" stroke-width="1"/></g><g><path fill="none" stroke-linecap="butt" stroke-linejoin="round" stroke="#fff" stroke-width="2.5" d="m569.5 511.6 4.4-.1 4.3-.3 4.4-1 4.4-.2 4.4.2h8.7l4.4-.2 4.3-.6 4.4-.3 4.4-.6 4.3-.7 4.4-.6 4.4-1.7 4.4-4.1 4.3-5.9 4.4-5.3 4.4-6.7 4.3-14 4.4-20.2 4.4-40.9 4.4-14.9 4.3-27.4 4.4-91.2"/><path stroke-linejoin="round" stroke-width="1.5" stroke="#7ec7ce" fill="none" stroke-linecap="butt" d="m569.5 511.6 4.4-.1 4.3-.3 4.4-1 4.4-.2 4.4.2h8.7l4.4-.2 4.3-.6 4.4-.3 4.4-.6 4.3-.7 4.4-.6 4.4-1.7 4.4-4.1 4.3-5.9 4.4-5.3 4.4-6.7 4.3-14 4.4-20.2 4.4-40.9 4.4-14.9 4.3-27.4 4.4-91.2"/><g fill="#7ec7ce"><circle cx="569.5" cy="511.6" r="1.8"/><circle cx="573.9" cy="511.5" r="1.8"/><circle cx="578.2" cy="511.2" r="1.8"/><circle cx="582.6" cy="510.2" r="1.8"/><circle cx="587" cy="510" r="1.8"/><circle cx="591.4" cy="510.2" r="1.8"/><circle cx="595.7" cy="510.2" r="1.8"/><circle cx="600.1" cy="510.2" r="1.8"/><circle cx="604.5" cy="510" r="1.8"/><circle cx="608.8" cy="509.4" r="1.8"/><circle cx="613.2" cy="509.1" r="1.8"/><circle cx="617.6" cy="508.5" r="1.8"/><circle cx="621.9" cy="507.8" r="1.8"/><circle cx="626.3" cy="507.2" r="1.8"/><circle cx="630.7" cy="505.5" r="1.8"/><circle cx="635.1" cy="501.4" r="1.8"/><circle cx="639.4" cy="495.5" r="1.8"/><circle cx="643.8" cy="490.2" r="1.8"/><circle cx="648.2" cy="483.5" r="1.8"/><circle cx="652.5" cy="469.5" r="1.8"/><circle cx="656.9" cy="449.3" r="1.8"/><circle cx="661.3" cy="408.4" r="1.8"/><circle cx="665.7" cy="393.5" r="1.8"/><circle cx="670" cy="366.1" r="1.8"/><circle cx="674.4" cy="274.9" r="1.8"/></g></g><g><path fill="none" stroke-linecap="butt" stroke-linejoin="round" stroke="#fff" stroke-width="2.5" d="m530.2 511.5 4.3-.1 4.4-.1 4.4-.1 4.3-.1 4.4-.3 4.4-.3 4.4-.1 4.3-.3 4.4-.4 4.4-1 4.3-1.5 4.4-2.3 4.4-.6 4.4 1 4.3-.8 4.4-1.3 4.4-1.8 4.3-1.9 48.1-6.5 4.4-6.6 4.4-1.2 4.3-2.2 4.4-1.5 4.4 1.3"/><path stroke-linejoin="round" stroke-width="1.5" stroke="#f6a324" fill="none" stroke-linecap="butt" d="m530.2 511.5 4.3-.1 4.4-.1 4.4-.1 4.3-.1 4.4-.3 4.4-.3 4.4-.1 4.3-.3 4.4-.4 4.4-1 4.3-1.5 4.4-2.3 4.4-.6 4.4 1 4.3-.8 4.4-1.3 4.4-1.8 4.3-1.9 48.1-6.5 4.4-6.6 4.4-1.2 4.3-2.2 4.4-1.5 4.4 1.3"/><g fill="#f6a324"><circle cx="530.2" cy="511.5" r="1.8"/><circle cx="534.5" cy="511.4" r="1.8"/><circle cx="538.9" cy="511.3" r="1.8"/><circle cx="543.3" cy="511.2" r="1.8"/><circle cx="547.6" cy="511.1" r="1.8"/><circle cx="552" cy="510.8" r="1.8"/><circle cx="556.4" cy="510.5" r="1.8"/><circle cx="560.8" cy="510.4" r="1.8"/><circle cx="565.1" cy="510.1" r="1.8"/><circle cx="569.5" cy="509.7" r="1.8"/><circle cx="573.9" cy="508.7" r="1.8"/><circle cx="578.2" cy="507.2" r="1.8"/><circle cx="582.6" cy="504.9" r="1.8"/><circle cx="587" cy="504.3" r="1.8"/><circle cx="591.4" cy="505.3" r="1.8"/><circle cx="595.7" cy="504.5" r="1.8"/><circle cx="600.1" cy="503.2" r="1.8"/><circle cx="604.5" cy="501.4" r="1.8"/><circle cx="608.8" cy="499.5" r="1.8"/><circle cx="656.9" cy="493" r="1.8"/><circle cx="661.3" cy="486.4" r="1.8"/><circle cx="665.7" cy="485.2" r="1.8"/><circle cx="670" cy="483" r="1.8"/><circle cx="674.4" cy="481.5" r="1.8"/><circle cx="678.8" cy="482.8" r="1.8"/></g></g><g><path fill="none" stroke-linecap="butt" stroke-linejoin="round" stroke="#fff" stroke-width="2.5" d="m460.2 511.5 26.2-.7 4.4-.3 4.4-.4 4.4-.3 4.3-.4 4.4-.8 4.4-1.7 4.3-1.1 4.4-.4 4.4-2.5 4.4-2 4.3-3.6 4.4-1.5 4.4-.9 4.3-.6h4.4l4.4-1.1 4.4-1.1 4.3-1.3 4.4-2.2 4.4-7.8 4.3-1.5 4.4 5.1 4.4-5.1 4.4-1.4 4.3-5.1 4.4-4.7 4.4 2.5 4.3-6.4 4.4-3.7 4.4 25 4.3-.3 4.4.9 4.4-.2 4.4-.4 4.3-1.1 4.4-2.1 4.4-.2 4.3-.8 4.4-.3 4.4-.2 4.4-10.6 4.3-2.2 4.4-1.1 4.4-8"/><path stroke-linejoin="round" stroke-width="1.5" stroke="#34983f" fill="none" stroke-linecap="butt" d="m460.2 511.5 26.2-.7 4.4-.3 4.4-.4 4.4-.3 4.3-.4 4.4-.8 4.4-1.7 4.3-1.1 4.4-.4 4.4-2.5 4.4-2 4.3-3.6 4.4-1.5 4.4-.9 4.3-.6h4.4l4.4-1.1 4.4-1.1 4.3-1.3 4.4-2.2 4.4-7.8 4.3-1.5 4.4 5.1 4.4-5.1 4.4-1.4 4.3-5.1 4.4-4.7 4.4 2.5 4.3-6.4 4.4-3.7 4.4 25 4.3-.3 4.4.9 4.4-.2 4.4-.4 4.3-1.1 4.4-2.1 4.4-.2 4.3-.8 4.4-.3 4.4-.2 4.4-10.6 4.3-2.2 4.4-1.1 4.4-8"/><g fill="#34983f"><circle cx="460.2" cy="511.5" r="1.8"/><circle cx="486.4" cy="510.8" r="1.8"/><circle cx="490.8" cy="510.5" r="1.8"/><circle cx="495.2" cy="510.1" r="1.8"/><circle cx="499.6" cy="509.8" r="1.8"/><circle cx="503.9" cy="509.4" r="1.8"/><circle cx="508.3" cy="508.6" r="1.8"/><circle cx="512.7" cy="506.9" r="1.8"/><circle cx="517" cy="505.8" r="1.8"/><circle cx="521.4" cy="505.4" r="1.8"/><circle cx="525.8" cy="502.9" r="1.8"/><circle cx="530.2" cy="500.9" r="1.8"/><circle cx="534.5" cy="497.3" r="1.8"/><circle cx="538.9" cy="495.8" r="1.8"/><circle cx="543.3" cy="494.9" r="1.8"/><circle cx="547.6" cy="494.3" r="1.8"/><circle cx="552" cy="494.3" r="1.8"/><circle cx="556.4" cy="493.2" r="1.8"/><circle cx="560.8" cy="492.1" r="1.8"/><circle cx="565.1" cy="490.8" r="1.8"/><circle cx="569.5" cy="488.6" r="1.8"/><circle cx="573.9" cy="480.8" r="1.8"/><circle cx="578.2" cy="479.3" r="1.8"/><circle cx="582.6" cy="484.4" r="1.8"/><circle cx="587" cy="479.3" r="1.8"/><circle cx="591.4" cy="477.9" r="1.8"/><circle cx="595.7" cy="472.8" r="1.8"/><circle cx="600.1" cy="468.1" r="1.8"/><circle cx="604.5" cy="470.6" r="1.8"/><circle cx="608.8" cy="464.2" r="1.8"/><circle cx="613.2" cy="460.5" r="1.8"/><circle cx="617.6" cy="485.5" r="1.8"/><circle cx="621.9" cy="485.2" r="1.8"/><circle cx="626.3" cy="486.1" r="1.8"/><circle cx="630.7" cy="485.9" r="1.8"/><circle cx="635.1" cy="485.5" r="1.8"/><circle cx="639.4" cy="484.4" r="1.8"/><circle cx="643.8" cy="482.3" r="1.8"/><circle cx="648.2" cy="482.1" r="1.8"/><circle cx="652.5" cy="481.3" r="1.8"/><circle cx="656.9" cy="481" r="1.8"/><circle cx="661.3" cy="480.8" r="1.8"/><circle cx="665.7" cy="470.2" r="1.8"/><circle cx="670" cy="468" r="1.8"/><circle cx="674.4" cy="466.9" r="1.8"/><circle cx="678.8" cy="458.9" r="1.8"/></g></g><g><path fill="none" stroke-linecap="butt" stroke-linejoin="round" stroke="#fff" stroke-width="2.5" d="m460.2 511.5 4.4-.1 4.4-.4h4.3l4.4-.2 4.4-.5 4.3-.2 4.4-.5 4.4-.6 4.4-.3 4.3-.2 4.4-.4 4.4-.4 4.3-.7 4.4.7 4.4.6 4.4-.2 4.3-.3 4.4-.2 4.4-.4 4.3-.1 4.4-.2 4.4-.7 4.4-.5 4.3-1.7 4.4-1.2 4.4-2.8 4.3-.2 4.4-1 4.4-2.9 4.4.5 4.3.8 4.4-.1 4.4-1 4.3-2.7 4.4 1 4.4 1.5 4.3.4 4.4.7 4.4-.4 4.4-3.3 4.3-.8 4.4-.5 4.4.1 4.3-.1 4.4.3 4.4.6 4.4-.9 4.3-.6h4.4"/><path stroke-linejoin="round" stroke-width="1.5" stroke="#e6332e" fill="none" stroke-linecap="butt" d="m460.2 511.5 4.4-.1 4.4-.4h4.3l4.4-.2 4.4-.5 4.3-.2 4.4-.5 4.4-.6 4.4-.3 4.3-.2 4.4-.4 4.4-.4 4.3-.7 4.4.7 4.4.6 4.4-.2 4.3-.3 4.4-.2 4.4-.4 4.3-.1 4.4-.2 4.4-.7 4.4-.5 4.3-1.7 4.4-1.2 4.4-2.8 4.3-.2 4.4-1 4.4-2.9 4.4.5 4.3.8 4.4-.1 4.4-1 4.3-2.7 4.4 1 4.4 1.5 4.3.4 4.4.7 4.4-.4 4.4-3.3 4.3-.8 4.4-.5 4.4.1 4.3-.1 4.4.3 4.4.6 4.4-.9 4.3-.6h4.4"/><g fill="#e6332e"><circle cx="460.2" cy="511.5" r="1.8"/><circle cx="464.6" cy="511.4" r="1.8"/><circle cx="469" cy="511" r="1.8"/><circle cx="473.3" cy="511" r="1.8"/><circle cx="477.7" cy="510.8" r="1.8"/><circle cx="482.1" cy="510.3" r="1.8"/><circle cx="486.4" cy="510.1" r="1.8"/><circle cx="490.8" cy="509.6" r="1.8"/><circle cx="495.2" cy="509" r="1.8"/><circle cx="499.6" cy="508.7" r="1.8"/><circle cx="503.9" cy="508.5" r="1.8"/><circle cx="508.3" cy="508.1" r="1.8"/><circle cx="512.7" cy="507.7" r="1.8"/><circle cx="517" cy="507" r="1.8"/><circle cx="521.4" cy="507.7" r="1.8"/><circle cx="525.8" cy="508.3" r="1.8"/><circle cx="530.2" cy="508.1" r="1.8"/><circle cx="534.5" cy="507.8" r="1.8"/><circle cx="538.9" cy="507.6" r="1.8"/><circle cx="543.3" cy="507.2" r="1.8"/><circle cx="547.6" cy="507.1" r="1.8"/><circle cx="552" cy="506.9" r="1.8"/><circle cx="556.4" cy="506.2" r="1.8"/><circle cx="560.8" cy="505.7" r="1.8"/><circle cx="565.1" cy="504" r="1.8"/><circle cx="569.5" cy="502.8" r="1.8"/><circle cx="573.9" cy="500" r="1.8"/><circle cx="578.2" cy="499.8" r="1.8"/><circle cx="582.6" cy="498.8" r="1.8"/><circle cx="587" cy="495.9" r="1.8"/><circle cx="591.4" cy="496.4" r="1.8"/><circle cx="595.7" cy="497.2" r="1.8"/><circle cx="600.1" cy="497.1" r="1.8"/><circle cx="604.5" cy="496.1" r="1.8"/><circle cx="608.8" cy="493.4" r="1.8"/><circle cx="613.2" cy="494.4" r="1.8"/><circle cx="617.6" cy="495.9" r="1.8"/><circle cx="621.9" cy="496.3" r="1.8"/><circle cx="626.3" cy="497" r="1.8"/><circle cx="630.7" cy="496.6" r="1.8"/><circle cx="635.1" cy="493.3" r="1.8"/><circle cx="639.4" cy="492.5" r="1.8"/><circle cx="643.8" cy="492" r="1.8"/><circle cx="648.2" cy="492.1" r="1.8"/><circle cx="652.5" cy="492" r="1.8"/><circle cx="656.9" cy="492.3" r="1.8"/><circle cx="661.3" cy="492.9" r="1.8"/><circle cx="665.7" cy="492" r="1.8"/><circle cx="670" cy="491.4" r="1.8"/><circle cx="674.4" cy="491.4" r="1.8"/></g></g><g><path fill="none" stroke-linecap="butt" stroke-linejoin="round" stroke="#fff" stroke-width="2.5" d="m455.9 511.4 4.3-.2 4.4-.3 4.4-.1 4.3-.3 4.4-.3 4.4-.4 4.3-.7 4.4-.7 4.4-.7 4.4-1 4.3-2.6 4.4-.9 4.4-2.9 4.3-3.5 4.4-4.2 4.4-6.7 4.4-7.7 4.3-7.3 4.4-8.7 4.4-10.4 4.3-7.9 4.4-11.4 4.4-17.2 4.4-17.1 4.3-9.7 4.4-9.6 4.4-17.7 4.3-15.5 4.4-42 4.4-18.9 4.4-25.4 4.3-3.1 4.4-18.2 4.4-36.5 4.3-18.2 4.4-18.3h4.4l4.3-36.4H635.1l4.3-18.3H652.5l4.4-18.2h8.8l4.3 18.2h4.4l4.4-18.2"/><path stroke-linejoin="round" stroke-width="1.5" stroke="#3360a9" fill="none" stroke-linecap="butt" d="m455.9 511.4 4.3-.2 4.4-.3 4.4-.1 4.3-.3 4.4-.3 4.4-.4 4.3-.7 4.4-.7 4.4-.7 4.4-1 4.3-2.6 4.4-.9 4.4-2.9 4.3-3.5 4.4-4.2 4.4-6.7 4.4-7.7 4.3-7.3 4.4-8.7 4.4-10.4 4.3-7.9 4.4-11.4 4.4-17.2 4.4-17.1 4.3-9.7 4.4-9.6 4.4-17.7 4.3-15.5 4.4-42 4.4-18.9 4.4-25.4 4.3-3.1 4.4-18.2 4.4-36.5 4.3-18.2 4.4-18.3h4.4l4.3-36.4H635.1l4.3-18.3H652.5l4.4-18.2h8.8l4.3 18.2h4.4l4.4-18.2"/><g fill="#3360a9"><circle cx="455.9" cy="511.4" r="1.8"/><circle cx="460.2" cy="511.2" r="1.8"/><circle cx="464.6" cy="510.9" r="1.8"/><circle cx="469" cy="510.8" r="1.8"/><circle cx="473.3" cy="510.5" r="1.8"/><circle cx="477.7" cy="510.2" r="1.8"/><circle cx="482.1" cy="509.8" r="1.8"/><circle cx="486.4" cy="509.1" r="1.8"/><circle cx="490.8" cy="508.4" r="1.8"/><circle cx="495.2" cy="507.7" r="1.8"/><circle cx="499.6" cy="506.7" r="1.8"/><circle cx="503.9" cy="504.1" r="1.8"/><circle cx="508.3" cy="503.2" r="1.8"/><circle cx="512.7" cy="500.3" r="1.8"/><circle cx="517" cy="496.8" r="1.8"/><circle cx="521.4" cy="492.6" r="1.8"/><circle cx="525.8" cy="485.9" r="1.8"/><circle cx="530.2" cy="478.2" r="1.8"/><circle cx="534.5" cy="470.9" r="1.8"/><circle cx="538.9" cy="462.2" r="1.8"/><circle cx="543.3" cy="451.8" r="1.8"/><circle cx="547.6" cy="443.9" r="1.8"/><circle cx="552" cy="432.5" r="1.8"/><circle cx="556.4" cy="415.3" r="1.8"/><circle cx="560.8" cy="398.2" r="1.8"/><circle cx="565.1" cy="388.5" r="1.8"/><circle cx="569.5" cy="378.9" r="1.8"/><circle cx="573.9" cy="361.2" r="1.8"/><circle cx="578.2" cy="345.7" r="1.8"/><circle cx="582.6" cy="303.7" r="1.8"/><circle cx="587" cy="284.8" r="1.8"/><circle cx="591.4" cy="259.4" r="1.8"/><circle cx="595.7" cy="256.3" r="1.8"/><circle cx="600.1" cy="238.1" r="1.8"/><circle cx="604.5" cy="201.6" r="1.8"/><circle cx="608.8" cy="183.4" r="1.8"/><circle cx="613.2" cy="165.1" r="1.8"/><circle cx="617.6" cy="165.1" r="1.8"/><circle cx="621.9" cy="128.7" r="1.8"/><circle cx="626.3" cy="128.7" r="1.8"/><circle cx="630.7" cy="128.7" r="1.8"/><circle cx="635.1" cy="128.7" r="1.8"/><circle cx="639.4" cy="110.4" r="1.8"/><circle cx="643.8" cy="110.4" r="1.8"/><circle cx="648.2" cy="110.4" r="1.8"/><circle cx="652.5" cy="110.4" r="1.8"/><circle cx="656.9" cy="92.2" r="1.8"/><circle cx="661.3" cy="92.2" r="1.8"/><circle cx="665.7" cy="92.2" r="1.8"/><circle cx="670" cy="110.4" r="1.8"/><circle cx="674.4" cy="110.4" r="1.8"/><circle cx="678.8" cy="92.2" r="1.8"/></g></g><g><path fill="none" stroke-linecap="butt" stroke-linejoin="round" stroke="#fff" stroke-width="2.5" d="m434 511.2 21.9-2.7 4.3-.8 4.4-1.3 4.4-3.7 4.3-1.3 4.4-2.7 4.4-1.3 4.3-2.2 4.4-1.1 4.4-2.6 4.4-1.2 4.3-3.5 4.4 2 4.4-.4 4.3-1.8 4.4-2 4.4-2h4.4l4.3-1.8 4.4-1.3 4.4-.2 4.3 1.7 4.4.3 4.4-.2 4.4-2.9 4.3-5.3 4.4-4.5 4.4-5.5 4.3-3.1 4.4-5.5 4.4-9.1 4.4-5.6 4.3-3.3 4.4-.9 4.4-3.7 4.3-1.6 4.4-3.3 4.4 13.7 4.3-1.8 4.4 2.7 4.4-2.7 4.4-3.7 4.3-3.6h4.4l4.4 3.6h4.3l4.4 8.2 4.4 25.5 4.4 4.6 4.3.9 4.4.9"/><path stroke-linejoin="round" stroke-width="1.5" stroke="#ed6c2d" fill="none" stroke-linecap="butt" d="m434 511.2 21.9-2.7 4.3-.8 4.4-1.3 4.4-3.7 4.3-1.3 4.4-2.7 4.4-1.3 4.3-2.2 4.4-1.1 4.4-2.6 4.4-1.2 4.3-3.5 4.4 2 4.4-.4 4.3-1.8 4.4-2 4.4-2h4.4l4.3-1.8 4.4-1.3 4.4-.2 4.3 1.7 4.4.3 4.4-.2 4.4-2.9 4.3-5.3 4.4-4.5 4.4-5.5 4.3-3.1 4.4-5.5 4.4-9.1 4.4-5.6 4.3-3.3 4.4-.9 4.4-3.7 4.3-1.6 4.4-3.3 4.4 13.7 4.3-1.8 4.4 2.7 4.4-2.7 4.4-3.7 4.3-3.6h4.4l4.4 3.6h4.3l4.4 8.2 4.4 25.5 4.4 4.6 4.3.9 4.4.9"/><g fill="#ed6c2d"><circle cx="434" cy="511.2" r="1.8"/><circle cx="455.9" cy="508.5" r="1.8"/><circle cx="460.2" cy="507.7" r="1.8"/><circle cx="464.6" cy="506.4" r="1.8"/><circle cx="469" cy="502.7" r="1.8"/><circle cx="473.3" cy="501.4" r="1.8"/><circle cx="477.7" cy="498.7" r="1.8"/><circle cx="482.1" cy="497.4" r="1.8"/><circle cx="486.4" cy="495.2" r="1.8"/><circle cx="490.8" cy="494.1" r="1.8"/><circle cx="495.2" cy="491.5" r="1.8"/><circle cx="499.6" cy="490.3" r="1.8"/><circle cx="503.9" cy="486.8" r="1.8"/><circle cx="508.3" cy="488.8" r="1.8"/><circle cx="512.7" cy="488.4" r="1.8"/><circle cx="517" cy="486.6" r="1.8"/><circle cx="521.4" cy="484.6" r="1.8"/><circle cx="525.8" cy="482.6" r="1.8"/><circle cx="530.2" cy="482.6" r="1.8"/><circle cx="534.5" cy="480.8" r="1.8"/><circle cx="538.9" cy="479.5" r="1.8"/><circle cx="543.3" cy="479.3" r="1.8"/><circle cx="547.6" cy="481" r="1.8"/><circle cx="552" cy="481.3" r="1.8"/><circle cx="556.4" cy="481.1" r="1.8"/><circle cx="560.8" cy="478.2" r="1.8"/><circle cx="565.1" cy="472.9" r="1.8"/><circle cx="569.5" cy="468.4" r="1.8"/><circle cx="573.9" cy="462.9" r="1.8"/><circle cx="578.2" cy="459.8" r="1.8"/><circle cx="582.6" cy="454.3" r="1.8"/><circle cx="587" cy="445.2" r="1.8"/><circle cx="591.4" cy="439.6" r="1.8"/><circle cx="595.7" cy="436.3" r="1.8"/><circle cx="600.1" cy="435.4" r="1.8"/><circle cx="604.5" cy="431.7" r="1.8"/><circle cx="608.8" cy="430.1" r="1.8"/><circle cx="613.2" cy="426.8" r="1.8"/><circle cx="617.6" cy="440.5" r="1.8"/><circle cx="621.9" cy="438.7" r="1.8"/><circle cx="626.3" cy="441.4" r="1.8"/><circle cx="630.7" cy="438.7" r="1.8"/><circle cx="635.1" cy="435" r="1.8"/><circle cx="639.4" cy="431.4" r="1.8"/><circle cx="643.8" cy="431.4" r="1.8"/><circle cx="648.2" cy="435" r="1.8"/><circle cx="652.5" cy="435" r="1.8"/><circle cx="656.9" cy="443.2" r="1.8"/><circle cx="661.3" cy="468.7" r="1.8"/><circle cx="665.7" cy="473.3" r="1.8"/><circle cx="670" cy="474.2" r="1.8"/><circle cx="674.4" cy="475.1" r="1.8"/></g></g><g><path fill="none" stroke-linecap="butt" stroke-linejoin="round" stroke="#fff" stroke-width="2.5" d="m184.9 511.5 21.8-2.4 4.4.3 4.3-1.1 56.9-28.4 39.3 9.5 4.4-.6 4.4 1.5 17.4-13.8 4.4 8.8 4.4 5.9 4.3-1.7 4.4-2 4.4-1.5 17.5-10.5 4.3-10.1h4.4l4.4-2.9 4.4.5 4.3-2 4.4 8.7 4.4-4 4.3-2.6 4.4.7 4.4-7.4 4.4-2.5 4.3-3.7 4.4-5.1 4.4-4.3 4.3-1.1 4.4-3.8 4.4-3.9 4.4.9 4.3-.3 4.4-1.7 4.4-5.8 4.3 1.8 4.4 8.8 4.4-5 4.3-6.5 4.4-5 4.4 2.2 4.4 12.4 4.3 4 4.4 4.6 4.4-.1 4.3-.7 4.4 2.7 4.4-2.4 4.4 5.8 4.3-1.6 4.4-1.4 4.4-.6 4.3 6.8 4.4 1.4 4.4.5 4.4-2.8 4.3-1.7 4.4-4.5 4.4 1.4 4.3 3.5 4.4-3.6 4.4 3.4 4.4-1.5 4.3.7 4.4 4.2 4.4.5 4.3 4.5 4.4 3.1 4.4 6.7 4.3 6.1 4.4 2.7 4.4 6.2h4.4l4.3-1.3 4.4-1.8 4.4-1.1 4.3-2.2 4.4-.4 4.4-.1 4.4.5 4.3 1.7 4.4.7"/><path stroke-linejoin="round" stroke-width="1.5" stroke="#b077b1" fill="none" stroke-linecap="butt" d="m184.9 511.5 21.8-2.4 4.4.3 4.3-1.1 56.9-28.4 39.3 9.5 4.4-.6 4.4 1.5 17.4-13.8 4.4 8.8 4.4 5.9 4.3-1.7 4.4-2 4.4-1.5 17.5-10.5 4.3-10.1h4.4l4.4-2.9 4.4.5 4.3-2 4.4 8.7 4.4-4 4.3-2.6 4.4.7 4.4-7.4 4.4-2.5 4.3-3.7 4.4-5.1 4.4-4.3 4.3-1.1 4.4-3.8 4.4-3.9 4.4.9 4.3-.3 4.4-1.7 4.4-5.8 4.3 1.8 4.4 8.8 4.4-5 4.3-6.5 4.4-5 4.4 2.2 4.4 12.4 4.3 4 4.4 4.6 4.4-.1 4.3-.7 4.4 2.7 4.4-2.4 4.4 5.8 4.3-1.6 4.4-1.4 4.4-.6 4.3 6.8 4.4 1.4 4.4.5 4.4-2.8 4.3-1.7 4.4-4.5 4.4 1.4 4.3 3.5 4.4-3.6 4.4 3.4 4.4-1.5 4.3.7 4.4 4.2 4.4.5 4.3 4.5 4.4 3.1 4.4 6.7 4.3 6.1 4.4 2.7 4.4 6.2h4.4l4.3-1.3 4.4-1.8 4.4-1.1 4.3-2.2 4.4-.4 4.4-.1 4.4.5 4.3 1.7 4.4.7"/><g fill="#b077b1"><circle cx="184.9" cy="511.5" r="1.8"/><circle cx="206.7" cy="509.1" r="1.8"/><circle cx="211.1" cy="509.4" r="1.8"/><circle cx="215.4" cy="508.3" r="1.8"/><circle cx="272.3" cy="479.9" r="1.8"/><circle cx="311.6" cy="489.4" r="1.8"/><circle cx="316" cy="488.8" r="1.8"/><circle cx="320.4" cy="490.3" r="1.8"/><circle cx="337.8" cy="476.5" r="1.8"/><circle cx="342.2" cy="485.3" r="1.8"/><circle cx="346.6" cy="491.2" r="1.8"/><circle cx="350.9" cy="489.5" r="1.8"/><circle cx="355.3" cy="487.5" r="1.8"/><circle cx="359.7" cy="486" r="1.8"/><circle cx="377.2" cy="475.5" r="1.8"/><circle cx="381.5" cy="465.4" r="1.8"/><circle cx="385.9" cy="465.4" r="1.8"/><circle cx="390.3" cy="462.5" r="1.8"/><circle cx="394.7" cy="463" r="1.8"/><circle cx="399" cy="461" r="1.8"/><circle cx="403.4" cy="469.7" r="1.8"/><circle cx="407.8" cy="465.7" r="1.8"/><circle cx="412.1" cy="463.1" r="1.8"/><circle cx="416.5" cy="463.8" r="1.8"/><circle cx="420.9" cy="456.4" r="1.8"/><circle cx="425.3" cy="453.9" r="1.8"/><circle cx="429.6" cy="450.2" r="1.8"/><circle cx="434" cy="445.1" r="1.8"/><circle cx="438.4" cy="440.8" r="1.8"/><circle cx="442.7" cy="439.7" r="1.8"/><circle cx="447.1" cy="435.9" r="1.8"/><circle cx="451.5" cy="432" r="1.8"/><circle cx="455.9" cy="432.9" r="1.8"/><circle cx="460.2" cy="432.6" r="1.8"/><circle cx="464.6" cy="430.9" r="1.8"/><circle cx="469" cy="425.1" r="1.8"/><circle cx="473.3" cy="426.9" r="1.8"/><circle cx="477.7" cy="435.7" r="1.8"/><circle cx="482.1" cy="430.7" r="1.8"/><circle cx="486.4" cy="424.2" r="1.8"/><circle cx="490.8" cy="419.2" r="1.8"/><circle cx="495.2" cy="421.4" r="1.8"/><circle cx="499.6" cy="433.8" r="1.8"/><circle cx="503.9" cy="437.8" r="1.8"/><circle cx="508.3" cy="442.4" r="1.8"/><circle cx="512.7" cy="442.3" r="1.8"/><circle cx="517" cy="441.6" r="1.8"/><circle cx="521.4" cy="444.3" r="1.8"/><circle cx="525.8" cy="441.9" r="1.8"/><circle cx="530.2" cy="447.7" r="1.8"/><circle cx="534.5" cy="446.1" r="1.8"/><circle cx="538.9" cy="444.7" r="1.8"/><circle cx="543.3" cy="444.1" r="1.8"/><circle cx="547.6" cy="450.9" r="1.8"/><circle cx="552" cy="452.3" r="1.8"/><circle cx="556.4" cy="452.8" r="1.8"/><circle cx="560.8" cy="450" r="1.8"/><circle cx="565.1" cy="448.3" r="1.8"/><circle cx="569.5" cy="443.8" r="1.8"/><circle cx="573.9" cy="445.2" r="1.8"/><circle cx="578.2" cy="448.7" r="1.8"/><circle cx="582.6" cy="445.1" r="1.8"/><circle cx="587" cy="448.5" r="1.8"/><circle cx="591.4" cy="447" r="1.8"/><circle cx="595.7" cy="447.7" r="1.8"/><circle cx="600.1" cy="451.9" r="1.8"/><circle cx="604.5" cy="452.4" r="1.8"/><circle cx="608.8" cy="456.9" r="1.8"/><circle cx="613.2" cy="460" r="1.8"/><circle cx="617.6" cy="466.7" r="1.8"/><circle cx="621.9" cy="472.8" r="1.8"/><circle cx="626.3" cy="475.5" r="1.8"/><circle cx="630.7" cy="481.7" r="1.8"/><circle cx="635.1" cy="481.7" r="1.8"/><circle cx="639.4" cy="480.4" r="1.8"/><circle cx="643.8" cy="478.6" r="1.8"/><circle cx="648.2" cy="477.5" r="1.8"/><circle cx="652.5" cy="475.3" r="1.8"/><circle cx="656.9" cy="474.9" r="1.8"/><circle cx="661.3" cy="474.8" r="1.8"/><circle cx="665.7" cy="475.3" r="1.8"/><circle cx="670" cy="477" r="1.8"/><circle cx="674.4" cy="477.7" r="1.8"/></g></g><g><path fill="none" stroke-linecap="butt" stroke-linejoin="round" stroke="#fff" stroke-width="2.5" d="m93.1 511.5 179.2-1.7 8.7-.2 4.4.2 8.7.1 8.8-.1h4.3l4.4-.3 4.4-.4h4.4l4.3-.1 8.8-.1h26.2l13.1-1.2 4.4-1.4 4.3-.4 4.4.9 4.4-.1 4.4-.4 4.3-.2h4.4l4.4-.2h4.3l4.4-.2 4.4-.1 4.4.2 4.3-.2 4.4-.4 4.4-.5 4.3-.6 4.4-.1 4.4-.3 4.4.2 4.3-.3 4.4-.2 4.4-.4 4.3-.5 4.4-.2 4.4-.2 4.3-.3 4.4-.2 4.4-.8 4.4-.3 4.3.2 4.4-.9 4.4.5h8.7l4.4-2.2 4.4.2 4.3-.7 4.4-.4 4.4-1.8 4.3-.9 4.4-2.2 4.4.4 4.4 1.3 4.3-.5 4.4-.7 4.4-.5 4.3-.8h8.8l4.4.8 4.3.7 4.4.7 4.4-2.2h4.3l4.4-5.1h8.7l4.4.6 4.4 1.4 4.4-.3 4.3.5 4.4.9 4.4.6 4.3 1.4 4.4 1 4.4 1.8 4.4.5 4.3-.9 4.4-.4 4.4-.3"/><path stroke-linejoin="round" stroke-width="1.5" stroke="#a652ba" fill="none" stroke-linecap="butt" d="m93.1 511.5 179.2-1.7 8.7-.2 4.4.2 8.7.1 8.8-.1h4.3l4.4-.3 4.4-.4h4.4l4.3-.1 8.8-.1h26.2l13.1-1.2 4.4-1.4 4.3-.4 4.4.9 4.4-.1 4.4-.4 4.3-.2h4.4l4.4-.2h4.3l4.4-.2 4.4-.1 4.4.2 4.3-.2 4.4-.4 4.4-.5 4.3-.6 4.4-.1 4.4-.3 4.4.2 4.3-.3 4.4-.2 4.4-.4 4.3-.5 4.4-.2 4.4-.2 4.3-.3 4.4-.2 4.4-.8 4.4-.3 4.3.2 4.4-.9 4.4.5h8.7l4.4-2.2 4.4.2 4.3-.7 4.4-.4 4.4-1.8 4.3-.9 4.4-2.2 4.4.4 4.4 1.3 4.3-.5 4.4-.7 4.4-.5 4.3-.8h8.8l4.4.8 4.3.7 4.4.7 4.4-2.2h4.3l4.4-5.1h8.7l4.4.6 4.4 1.4 4.4-.3 4.3.5 4.4.9 4.4.6 4.3 1.4 4.4 1 4.4 1.8 4.4.5 4.3-.9 4.4-.4 4.4-.3"/><g fill="#a652ba"><circle cx="93.1" cy="511.5" r="1.8"/><circle cx="272.3" cy="509.8" r="1.8"/><circle cx="281" cy="509.6" r="1.8"/><circle cx="285.4" cy="509.8" r="1.8"/><circle cx="294.1" cy="509.9" r="1.8"/><circle cx="302.9" cy="509.8" r="1.8"/><circle cx="307.2" cy="509.8" r="1.8"/><circle cx="311.6" cy="509.5" r="1.8"/><circle cx="316" cy="509.1" r="1.8"/><circle cx="320.4" cy="509.1" r="1.8"/><circle cx="324.7" cy="509" r="1.8"/><circle cx="333.5" cy="508.9" r="1.8"/><circle cx="359.7" cy="508.9" r="1.8"/><circle cx="372.8" cy="507.7" r="1.8"/><circle cx="377.2" cy="506.3" r="1.8"/><circle cx="381.5" cy="505.9" r="1.8"/><circle cx="385.9" cy="506.8" r="1.8"/><circle cx="390.3" cy="506.7" r="1.8"/><circle cx="394.7" cy="506.3" r="1.8"/><circle cx="399" cy="506.1" r="1.8"/><circle cx="403.4" cy="506.1" r="1.8"/><circle cx="407.8" cy="505.9" r="1.8"/><circle cx="412.1" cy="505.9" r="1.8"/><circle cx="416.5" cy="505.7" r="1.8"/><circle cx="420.9" cy="505.6" r="1.8"/><circle cx="425.3" cy="505.8" r="1.8"/><circle cx="429.6" cy="505.6" r="1.8"/><circle cx="434" cy="505.2" r="1.8"/><circle cx="438.4" cy="504.7" r="1.8"/><circle cx="442.7" cy="504.1" r="1.8"/><circle cx="447.1" cy="504" r="1.8"/><circle cx="451.5" cy="503.7" r="1.8"/><circle cx="455.9" cy="503.9" r="1.8"/><circle cx="460.2" cy="503.6" r="1.8"/><circle cx="464.6" cy="503.4" r="1.8"/><circle cx="469" cy="503" r="1.8"/><circle cx="473.3" cy="502.5" r="1.8"/><circle cx="477.7" cy="502.3" r="1.8"/><circle cx="482.1" cy="502.1" r="1.8"/><circle cx="486.4" cy="501.8" r="1.8"/><circle cx="490.8" cy="501.6" r="1.8"/><circle cx="495.2" cy="500.8" r="1.8"/><circle cx="499.6" cy="500.5" r="1.8"/><circle cx="503.9" cy="500.7" r="1.8"/><circle cx="508.3" cy="499.8" r="1.8"/><circle cx="512.7" cy="500.3" r="1.8"/><circle cx="517" cy="500.3" r="1.8"/><circle cx="521.4" cy="500.3" r="1.8"/><circle cx="525.8" cy="498.1" r="1.8"/><circle cx="530.2" cy="498.3" r="1.8"/><circle cx="534.5" cy="497.6" r="1.8"/><circle cx="538.9" cy="497.2" r="1.8"/><circle cx="543.3" cy="495.4" r="1.8"/><circle cx="547.6" cy="494.5" r="1.8"/><circle cx="552" cy="492.3" r="1.8"/><circle cx="556.4" cy="492.7" r="1.8"/><circle cx="560.8" cy="494" r="1.8"/><circle cx="565.1" cy="493.5" r="1.8"/><circle cx="569.5" cy="492.8" r="1.8"/><circle cx="573.9" cy="492.3" r="1.8"/><circle cx="578.2" cy="491.5" r="1.8"/><circle cx="582.6" cy="491.5" r="1.8"/><circle cx="587" cy="491.5" r="1.8"/><circle cx="591.4" cy="492.3" r="1.8"/><circle cx="595.7" cy="493" r="1.8"/><circle cx="600.1" cy="493.7" r="1.8"/><circle cx="604.5" cy="491.5" r="1.8"/><circle cx="608.8" cy="491.5" r="1.8"/><circle cx="613.2" cy="486.4" r="1.8"/><circle cx="617.6" cy="486.4" r="1.8"/><circle cx="621.9" cy="486.4" r="1.8"/><circle cx="626.3" cy="487" r="1.8"/><circle cx="630.7" cy="488.4" r="1.8"/><circle cx="635.1" cy="488.1" r="1.8"/><circle cx="639.4" cy="488.6" r="1.8"/><circle cx="643.8" cy="489.5" r="1.8"/><circle cx="648.2" cy="490.1" r="1.8"/><circle cx="652.5" cy="491.5" r="1.8"/><circle cx="656.9" cy="492.5" r="1.8"/><circle cx="661.3" cy="494.3" r="1.8"/><circle cx="665.7" cy="494.8" r="1.8"/><circle cx="670" cy="493.9" r="1.8"/><circle cx="674.4" cy="493.5" r="1.8"/><circle cx="678.8" cy="493.2" r="1.8"/></g></g></g></g></g><g class="SourcesFooter" style="fill:#777"><g style="fill:#777"><text font-size="12.6" x="15" y="567.9"><tspan x="15" y="567.88">Source: Luttmer (2011)</tspan></text></g><text font-size="12.6" x="15" y="582.5"><tspan x="15" y="582.48">Note: CC-BY-ND-NC</tspan></text><text font-size="12.6" x="538.9" y="567.9"><tspan x="538.9" y="567.88"><a target="_blank" style="fill:#777" href="https://tinyco.re/07017110">tinyco.re/07017110</a> • <a href="https://ourworldindata.org" target="_blank">Powered by ourworldindata.org</a></tspan></text></g></svg>