<svg xmlns="http://www.w3.org/2000/svg" version="1.1" style="background-color:#fff;-webkit-font-smoothing:antialiased" width="850" height="600" viewBox="0 0 850 600" font-family="Lato,'Helvetica Neue',Helvetica,Arial,sans-serif" font-size="18" text-rendering="geometricPrecision"><g class="HeaderView"><g transform="matrix(.29 0 0 .29 774 15)"><svg className="owidLog" width="210" height="120" viewBox="0 0 210 120" fill="none" xmlns="http://www.w3.org/2000/svg"><g clip-path="url(#clip0)"><path d="M0 0h210v107.89H0V0z" fill="#002147"/><path d="M40.98 32.25c0 2.36-.38 4.53-1.12 6.51a14.26 14.26 0 01-8.1 8.4c-1.9.78-4.02 1.17-6.34 1.17a16.6 16.6 0 01-6.33-1.17 14.31 14.31 0 01-8.08-8.4 18.29 18.29 0 01-1.12-6.51c0-2.36.38-4.53 1.12-6.5.75-1.97 1.8-3.67 3.17-5.1a14.32 14.32 0 014.9-3.34c1.92-.8 4.03-1.19 6.34-1.19 2.32 0 4.43.4 6.34 1.19 1.92.8 3.56 1.9 4.93 3.34a14.87 14.87 0 013.17 5.1 18.1 18.1 0 011.12 6.5zm-4.38 0c0-1.94-.26-3.68-.8-5.22a10.91 10.91 0 00-2.24-3.89 9.68 9.68 0 00-3.52-2.46 11.95 11.95 0 00-4.62-.86c-1.68 0-3.21.28-4.6.86a9.88 9.88 0 00-3.54 2.46 10.91 10.91 0 00-2.24 3.9c-.53 1.53-.8 3.27-.8 5.2 0 1.94.27 3.68.8 5.22a11.17 11.17 0 002.24 3.9 10.01 10.01 0 003.55 2.44c1.38.56 2.9.83 4.6.83s3.24-.27 4.61-.83a9.8 9.8 0 003.52-2.44 11.17 11.17 0 002.25-3.9c.53-1.54.8-3.28.8-5.21zm26.22-6.54V48H60.5c-.56 0-.9-.27-1.05-.81l-.31-2.4a12.45 12.45 0 01-3.26 2.6c-1.2.64-2.58.96-4.13.96-1.22 0-2.3-.2-3.24-.6a6.52 6.52 0 01-2.33-1.7 7.37 7.37 0 01-1.43-2.67c-.3-1.04-.46-2.2-.46-3.45V25.7h3.91v14.22c0 1.68.38 2.99 1.15 3.91.77.93 1.96 1.39 3.54 1.39 1.16 0 2.24-.27 3.23-.82a10.42 10.42 0 002.8-2.28V25.7h3.91zm8.61 4.47a9.94 9.94 0 012.6-3.56 5.64 5.64 0 013.76-1.3c.47 0 .92.05 1.34.15.44.1.83.27 1.17.49l-.3 2.92c-.09.37-.3.55-.66.55-.2 0-.5-.04-.9-.13a6.21 6.21 0 00-3.24.18 4.23 4.23 0 00-1.47.92c-.42.4-.81.9-1.17 1.5-.33.58-.64 1.26-.92 2.02V48H67.7V25.71h2.25c.42 0 .72.08.88.25.16.16.27.44.33.83l.26 3.39zm61.16-13.7L122.75 48h-3.82l-7.99-24.05a21.95 21.95 0 01-.42-1.58 38.36 38.36 0 01-.44 1.58L102.05 48h-3.83L88.4 16.47h3.54c.38 0 .7.1.95.29.26.2.43.43.5.73l6.52 21.9.28 1.28.29 1.46.3-1.46.38-1.27 7.41-21.91c.1-.25.26-.48.51-.69.27-.22.58-.33.95-.33h1.23c.38 0 .69.1.92.29a1.77 1.77 0 01.53.73l7.4 21.9a28.4 28.4 0 01.68 2.62 29.52 29.52 0 01.52-2.61l6.54-21.91a1.31 1.31 0 01.48-.7c.27-.21.58-.32.95-.32h3.32zm9.35 8.88c1.63 0 3.1.27 4.4.82a9.43 9.43 0 015.46 5.94c.5 1.4.74 2.98.74 4.73 0 1.76-.25 3.34-.74 4.75a9.43 9.43 0 01-5.46 5.92c-1.3.52-2.77.79-4.4.79-1.64 0-3.12-.27-4.44-.8a9.42 9.42 0 01-3.35-2.3c-.92-1-1.63-2.2-2.13-3.61-.49-1.41-.73-3-.73-4.75s.24-3.33.73-4.73c.5-1.43 1.2-2.64 2.13-3.63a9.4 9.4 0 013.35-2.31c1.32-.55 2.8-.82 4.44-.82zm0 19.89c2.2 0 3.84-.73 4.93-2.2 1.08-1.48 1.63-3.54 1.63-6.18 0-2.66-.55-4.72-1.63-6.2-1.09-1.49-2.73-2.23-4.93-2.23-1.12 0-2.09.2-2.93.57a5.71 5.71 0 00-2.06 1.65 7.5 7.5 0 00-1.24 2.67c-.26 1.04-.4 2.22-.4 3.54 0 2.64.55 4.7 1.64 6.18 1.1 1.47 2.76 2.2 4.99 2.2zm17.97-15.07a9.94 9.94 0 012.6-3.56 5.64 5.64 0 013.76-1.3c.47 0 .91.05 1.34.15.44.1.83.27 1.16.49l-.28 2.92c-.09.37-.31.55-.66.55-.2 0-.5-.04-.9-.13a6.2 6.2 0 00-3.24.18 4.23 4.23 0 00-1.47.92c-.43.4-.82.9-1.17 1.5a13.1 13.1 0 00-.92 2.02V48h-3.94V25.71h2.24c.43 0 .72.08.88.25.17.16.28.44.33.83l.27 3.39zm15.04-14.59V48h-3.92V15.6h3.92zm19.55 15.43a6.22 6.22 0 00-2.38-2.05 6.7 6.7 0 00-2.86-.6c-2.07 0-3.66.75-4.77 2.23-1.12 1.48-1.68 3.6-1.68 6.33 0 1.46.13 2.7.38 3.74a7.29 7.29 0 001.1 2.56 4.35 4.35 0 001.78 1.45c.7.3 1.5.46 2.4.46 1.29 0 2.41-.3 3.36-.88a9.6 9.6 0 002.67-2.49V31.02zm3.91-15.43V48h-2.33c-.56 0-.9-.27-1.06-.81l-.35-2.71a12.13 12.13 0 01-3.25 2.77 8.28 8.28 0 01-4.23 1.06 7.31 7.31 0 01-6.14-2.9c-.73-.96-1.3-2.15-1.69-3.57a18.35 18.35 0 01.07-9.48 11.29 11.29 0 011.89-3.7 8.7 8.7 0 017.06-3.34 7.96 7.96 0 016.12 2.62V15.59h3.91zM46.61 70.71V93H42.7V70.71h3.91zm.84-7c0 .39-.08.75-.24 1.09a2.81 2.81 0 01-1.52 1.47 2.67 2.67 0 01-2.16 0 2.9 2.9 0 01-1.45-1.47 2.67 2.67 0 010-2.16c.15-.35.35-.65.6-.9.25-.27.53-.47.85-.62a2.67 2.67 0 012.16 0c.35.15.65.35.9.62.27.25.47.55.62.9.16.34.24.7.24 1.08zm7.97 10.24c.49-.54 1-1.04 1.54-1.48a9.85 9.85 0 013.66-1.84 8.96 8.96 0 015.43.35c.94.4 1.72.97 2.33 1.71a7.36 7.36 0 011.43 2.67c.32 1.04.49 2.19.49 3.45V93h-3.94V78.81c0-1.69-.4-3-1.17-3.92-.76-.93-1.93-1.4-3.5-1.4a6.6 6.6 0 00-3.25.83c-1 .56-1.92 1.31-2.77 2.27V93h-3.94V70.71h2.35c.56 0 .9.28 1.04.82l.3 2.42zm57.7 3.3c0 2.36-.37 4.5-1.11 6.44a14.3 14.3 0 01-3.17 4.98 14.1 14.1 0 01-4.93 3.2c-1.9.76-4.02 1.13-6.33 1.13H85.8V61.47h11.77c2.31 0 4.42.39 6.33 1.15a13.8 13.8 0 018.1 8.18 17.75 17.75 0 011.12 6.45zm-4.37 0c0-1.94-.26-3.67-.8-5.2a10.94 10.94 0 00-2.23-3.87 9.57 9.57 0 00-3.53-2.42 12.23 12.23 0 00-4.61-.83h-7.5v24.62h7.5c1.7 0 3.24-.28 4.61-.84a9.7 9.7 0 003.53-2.4 10.94 10.94 0 002.24-3.87c.53-1.53.8-3.26.8-5.2zm19.8 5.72c-1.8.06-3.34.2-4.62.44-1.26.22-2.3.51-3.1.88-.8.36-1.37.8-1.74 1.3-.35.5-.53 1.05-.53 1.67 0 .58.1 1.1.3 1.52a3 3 0 00.76 1.05c.34.27.73.46 1.17.6a6.13 6.13 0 001.45.17 7.28 7.28 0 003.5-.81 11.95 11.95 0 002.82-2.2v-4.62zm-12.65-9.11a12.73 12.73 0 013.98-2.66c1.43-.59 3-.88 4.73-.88 1.25 0 2.36.2 3.33.61a6.81 6.81 0 013.94 4.38c.33 1.04.5 2.19.5 3.43V93h-1.74a1.8 1.8 0 01-.88-.18c-.2-.13-.36-.38-.48-.74l-.44-2.12-1.72 1.46a9.48 9.48 0 01-3.74 1.7c-.69.15-1.46.23-2.3.23-.87 0-1.69-.12-2.45-.35a5.34 5.34 0 01-3.34-2.93 6.64 6.64 0 01-.49-2.64c0-.88.25-1.72.73-2.53a6.33 6.33 0 012.35-2.17c1.09-.63 2.5-1.15 4.25-1.54 1.75-.41 3.89-.65 6.42-.7v-1.75c0-1.73-.37-3.03-1.12-3.91-.75-.9-1.84-1.34-3.28-1.34-.97 0-1.78.12-2.44.37-.64.23-1.2.5-1.7.81l-1.23.82c-.33.23-.67.35-1 .35-.27 0-.5-.07-.69-.2a2.1 2.1 0 01-.48-.53l-.7-1.25zm27.67 19.5c-1.76 0-3.12-.5-4.07-1.48-.94-.98-1.41-2.4-1.41-4.25V74h-2.68a.9.9 0 01-.6-.2c-.16-.14-.24-.36-.24-.66v-1.56l3.65-.46.9-6.89a.9.9 0 01.29-.52.88.88 0 01.62-.22H142v7.67h6.44V74H142v13.38c0 .94.22 1.63.68 2.09.45.45 1.04.68 1.76.68a3.21 3.21 0 001.85-.53l.55-.35c.16-.12.3-.18.41-.18.2 0 .4.13.55.38l1.15 1.87a7.45 7.45 0 01-2.44 1.5 8.53 8.53 0 01-2.95.52zm19.68-10.4c-1.8.07-3.34.21-4.62.45-1.26.22-2.3.51-3.1.88-.8.36-1.37.8-1.74 1.3-.35.5-.53 1.05-.53 1.67 0 .58.1 1.1.3 1.52a2.9 2.9 0 00.76 1.05c.34.27.73.46 1.17.6a6.13 6.13 0 001.45.17 7.3 7.3 0 003.5-.81 12.04 12.04 0 002.82-2.2v-4.62zm-12.65-9.1a12.72 12.72 0 013.99-2.66c1.42-.59 3-.88 4.72-.88 1.25 0 2.36.2 3.33.61a6.81 6.81 0 013.94 4.38c.33 1.04.5 2.19.5 3.43V93h-1.74a1.8 1.8 0 01-.88-.18c-.2-.13-.36-.38-.48-.74l-.44-2.12-1.72 1.46a9.48 9.48 0 01-3.74 1.7c-.69.15-1.46.23-2.3.23-.87 0-1.69-.12-2.45-.35a5.33 5.33 0 01-3.34-2.93 6.62 6.62 0 01-.49-2.64c0-.88.25-1.72.73-2.53a6.33 6.33 0 012.35-2.17c1.09-.63 2.5-1.15 4.25-1.54a31.2 31.2 0 016.42-.7v-1.75c0-1.73-.37-3.03-1.12-3.91-.75-.9-1.84-1.34-3.28-1.34-.97 0-1.78.12-2.44.37-.64.23-1.2.5-1.7.81l-1.22.82c-.34.23-.68.35-1.02.35-.26 0-.49-.07-.68-.2a1.88 1.88 0 01-.48-.53l-.7-1.25zM40.98 32.25c0 2.36-.38 4.53-1.12 6.51a14.26 14.26 0 01-8.1 8.4c-1.9.78-4.02 1.17-6.34 1.17a16.6 16.6 0 01-6.33-1.17 14.31 14.31 0 01-8.08-8.4 18.29 18.29 0 01-1.12-6.51c0-2.36.38-4.53 1.12-6.5.75-1.97 1.8-3.67 3.17-5.1a14.32 14.32 0 014.9-3.34c1.92-.8 4.03-1.19 6.34-1.19 2.32 0 4.43.4 6.34 1.19 1.92.8 3.56 1.9 4.93 3.34a14.87 14.87 0 013.17 5.1 18.1 18.1 0 011.12 6.5zm-4.38 0c0-1.94-.26-3.68-.8-5.22a10.91 10.91 0 00-2.24-3.89 9.68 9.68 0 00-3.52-2.46 11.95 11.95 0 00-4.62-.86c-1.68 0-3.21.28-4.6.86a9.88 9.88 0 00-3.54 2.46 10.91 10.91 0 00-2.24 3.9c-.53 1.53-.8 3.27-.8 5.2 0 1.94.27 3.68.8 5.22a11.17 11.17 0 002.24 3.9 10.01 10.01 0 003.55 2.44c1.38.56 2.9.83 4.6.83s3.24-.27 4.61-.83a9.8 9.8 0 003.52-2.44 11.17 11.17 0 002.25-3.9c.53-1.54.8-3.28.8-5.21zm26.22-6.54V48H60.5c-.56 0-.9-.27-1.05-.81l-.31-2.4a12.45 12.45 0 01-3.26 2.6c-1.2.64-2.58.96-4.13.96-1.22 0-2.3-.2-3.24-.6a6.52 6.52 0 01-2.33-1.7 7.37 7.37 0 01-1.43-2.67c-.3-1.04-.46-2.2-.46-3.45V25.7h3.91v14.22c0 1.68.38 2.99 1.15 3.91.77.93 1.96 1.39 3.54 1.39 1.16 0 2.24-.27 3.23-.82a10.42 10.42 0 002.8-2.28V25.7h3.91zm8.61 4.47a9.94 9.94 0 012.6-3.56 5.64 5.64 0 013.76-1.3c.47 0 .92.05 1.34.15.44.1.83.27 1.17.49l-.3 2.92c-.09.37-.3.55-.66.55-.2 0-.5-.04-.9-.13a6.21 6.21 0 00-3.24.18 4.23 4.23 0 00-1.47.92c-.42.4-.81.9-1.17 1.5-.33.58-.64 1.26-.92 2.02V48H67.7V25.71h2.25c.42 0 .72.08.88.25.16.16.27.44.33.83l.26 3.39zm61.16-13.7L122.75 48h-3.82l-7.99-24.05a21.95 21.95 0 01-.42-1.58 38.36 38.36 0 01-.44 1.58L102.05 48h-3.83L88.4 16.47h3.54c.38 0 .7.1.95.29.26.2.43.43.5.73l6.52 21.9.28 1.28.29 1.46.3-1.46.38-1.27 7.41-21.91c.1-.25.26-.48.51-.69.27-.22.58-.33.95-.33h1.23c.38 0 .69.1.92.29a1.77 1.77 0 01.53.73l7.4 21.9a28.4 28.4 0 01.68 2.62 29.52 29.52 0 01.52-2.61l6.54-21.91a1.31 1.31 0 01.48-.7c.27-.21.58-.32.95-.32h3.32zm9.35 8.88c1.63 0 3.1.27 4.4.82a9.43 9.43 0 015.46 5.94c.5 1.4.74 2.98.74 4.73 0 1.76-.25 3.34-.74 4.75a9.43 9.43 0 01-5.46 5.92c-1.3.52-2.77.79-4.4.79-1.64 0-3.12-.27-4.44-.8a9.42 9.42 0 01-3.35-2.3c-.92-1-1.63-2.2-2.13-3.61-.49-1.41-.73-3-.73-4.75s.24-3.33.73-4.73c.5-1.43 1.2-2.64 2.13-3.63a9.4 9.4 0 013.35-2.31c1.32-.55 2.8-.82 4.44-.82zm0 19.89c2.2 0 3.84-.73 4.93-2.2 1.08-1.48 1.63-3.54 1.63-6.18 0-2.66-.55-4.72-1.63-6.2-1.09-1.49-2.73-2.23-4.93-2.23-1.12 0-2.09.2-2.93.57a5.71 5.71 0 00-2.06 1.65 7.5 7.5 0 00-1.24 2.67c-.26 1.04-.4 2.22-.4 3.54 0 2.64.55 4.7 1.64 6.18 1.1 1.47 2.76 2.2 4.99 2.2zm17.97-15.07a9.94 9.94 0 012.6-3.56 5.64 5.64 0 013.76-1.3c.47 0 .91.05 1.34.15.44.1.83.27 1.16.49l-.28 2.92c-.09.37-.31.55-.66.55-.2 0-.5-.04-.9-.13a6.2 6.2 0 00-3.24.18 4.23 4.23 0 00-1.47.92c-.43.4-.82.9-1.17 1.5a13.1 13.1 0 00-.92 2.02V48h-3.94V25.71h2.24c.43 0 .72.08.88.25.17.16.28.44.33.83l.27 3.39zm15.04-14.59V48h-3.92V15.6h3.92zm19.55 15.43a6.22 6.22 0 00-2.38-2.05 6.7 6.7 0 00-2.86-.6c-2.07 0-3.66.75-4.77 2.23-1.12 1.48-1.68 3.6-1.68 6.33 0 1.46.13 2.7.38 3.74a7.29 7.29 0 001.1 2.56 4.35 4.35 0 001.78 1.45c.7.3 1.5.46 2.4.46 1.29 0 2.41-.3 3.36-.88a9.6 9.6 0 002.67-2.49V31.02zm3.91-15.43V48h-2.33c-.56 0-.9-.27-1.06-.81l-.35-2.71a12.13 12.13 0 01-3.25 2.77 8.28 8.28 0 01-4.23 1.06 7.31 7.31 0 01-6.14-2.9c-.73-.96-1.3-2.15-1.69-3.57a18.35 18.35 0 01.07-9.48 11.29 11.29 0 011.89-3.7 8.7 8.7 0 017.06-3.34 7.96 7.96 0 016.12 2.62V15.59h3.91zM46.61 70.71V93H42.7V70.71h3.91zm.84-7c0 .39-.08.75-.24 1.09a2.81 2.81 0 01-1.52 1.47 2.67 2.67 0 01-2.16 0 2.9 2.9 0 01-1.45-1.47 2.67 2.67 0 010-2.16c.15-.35.35-.65.6-.9.25-.27.53-.47.85-.62a2.67 2.67 0 012.16 0c.35.15.65.35.9.62.27.25.47.55.62.9.16.34.24.7.24 1.08zm7.97 10.24c.49-.54 1-1.04 1.54-1.48a9.85 9.85 0 013.66-1.84 8.96 8.96 0 015.43.35c.94.4 1.72.97 2.33 1.71a7.36 7.36 0 011.43 2.67c.32 1.04.49 2.19.49 3.45V93h-3.94V78.81c0-1.69-.4-3-1.17-3.92-.76-.93-1.93-1.4-3.5-1.4a6.6 6.6 0 00-3.25.83c-1 .56-1.92 1.31-2.77 2.27V93h-3.94V70.71h2.35c.56 0 .9.28 1.04.82l.3 2.42zm57.7 3.3c0 2.36-.37 4.5-1.11 6.44a14.3 14.3 0 01-3.17 4.98 14.1 14.1 0 01-4.93 3.2c-1.9.76-4.02 1.13-6.33 1.13H85.8V61.47h11.77c2.31 0 4.42.39 6.33 1.15a13.8 13.8 0 018.1 8.18 17.75 17.75 0 011.12 6.45zm-4.37 0c0-1.94-.26-3.67-.8-5.2a10.94 10.94 0 00-2.23-3.87 9.57 9.57 0 00-3.53-2.42 12.23 12.23 0 00-4.61-.83h-7.5v24.62h7.5c1.7 0 3.24-.28 4.61-.84a9.7 9.7 0 003.53-2.4 10.94 10.94 0 002.24-3.87c.53-1.53.8-3.26.8-5.2zm19.8 5.72c-1.8.06-3.34.2-4.62.44-1.26.22-2.3.51-3.1.88-.8.36-1.37.8-1.74 1.3-.35.5-.53 1.05-.53 1.67 0 .58.1 1.1.3 1.52a3 3 0 00.76 1.05c.34.27.73.46 1.17.6a6.13 6.13 0 001.45.17 7.28 7.28 0 003.5-.81 11.95 11.95 0 002.82-2.2v-4.62zm-12.65-9.11a12.73 12.73 0 013.98-2.66c1.43-.59 3-.88 4.73-.88 1.25 0 2.36.2 3.33.61a6.81 6.81 0 013.94 4.38c.33 1.04.5 2.19.5 3.43V93h-1.74a1.8 1.8 0 01-.88-.18c-.2-.13-.36-.38-.48-.74l-.44-2.12-1.72 1.46a9.48 9.48 0 01-3.74 1.7c-.69.15-1.46.23-2.3.23-.87 0-1.69-.12-2.45-.35a5.34 5.34 0 01-3.34-2.93 6.64 6.64 0 01-.49-2.64c0-.88.25-1.72.73-2.53a6.33 6.33 0 012.35-2.17c1.09-.63 2.5-1.15 4.25-1.54 1.75-.41 3.89-.65 6.42-.7v-1.75c0-1.73-.37-3.03-1.12-3.91-.75-.9-1.84-1.34-3.28-1.34-.97 0-1.78.12-2.44.37-.64.23-1.2.5-1.7.81l-1.23.82c-.33.23-.67.35-1 .35-.27 0-.5-.07-.69-.2a2.1 2.1 0 01-.48-.53l-.7-1.25zm27.67 19.5c-1.76 0-3.12-.5-4.07-1.48-.94-.98-1.41-2.4-1.41-4.25V74h-2.68a.9.9 0 01-.6-.2c-.16-.14-.24-.36-.24-.66v-1.56l3.65-.46.9-6.89a.9.9 0 01.29-.52.88.88 0 01.62-.22H142v7.67h6.44V74H142v13.38c0 .94.22 1.63.68 2.09.45.45 1.04.68 1.76.68a3.21 3.21 0 001.85-.53l.55-.35c.16-.12.3-.18.41-.18.2 0 .4.13.55.38l1.15 1.87a7.45 7.45 0 01-2.44 1.5 8.53 8.53 0 01-2.95.52zm19.68-10.4c-1.8.07-3.34.21-4.62.45-1.26.22-2.3.51-3.1.88-.8.36-1.37.8-1.74 1.3-.35.5-.53 1.05-.53 1.67 0 .58.1 1.1.3 1.52a2.9 2.9 0 00.76 1.05c.34.27.73.46 1.17.6a6.13 6.13 0 001.45.17 7.3 7.3 0 003.5-.81 12.04 12.04 0 002.82-2.2v-4.62zm-12.65-9.1a12.72 12.72 0 013.99-2.66c1.42-.59 3-.88 4.72-.88 1.25 0 2.36.2 3.33.61a6.81 6.81 0 013.94 4.38c.33 1.04.5 2.19.5 3.43V93h-1.74a1.8 1.8 0 01-.88-.18c-.2-.13-.36-.38-.48-.74l-.44-2.12-1.72 1.46a9.48 9.48 0 01-3.74 1.7c-.69.15-1.46.23-2.3.23-.87 0-1.69-.12-2.45-.35a5.33 5.33 0 01-3.34-2.93 6.62 6.62 0 01-.49-2.64c0-.88.25-1.72.73-2.53a6.33 6.33 0 012.35-2.17c1.09-.63 2.5-1.15 4.25-1.54a31.2 31.2 0 016.42-.7v-1.75c0-1.73-.37-3.03-1.12-3.91-.75-.9-1.84-1.34-3.28-1.34-.97 0-1.78.12-2.44.37-.64.23-1.2.5-1.7.81l-1.22.82c-.34.23-.68.35-1.02.35-.26 0-.49-.07-.68-.2a1.88 1.88 0 01-.48-.53l-.7-1.25zM40.98 32.25c0 2.36-.38 4.53-1.12 6.51a14.26 14.26 0 01-8.1 8.4c-1.9.78-4.02 1.17-6.34 1.17a16.6 16.6 0 01-6.33-1.17 14.31 14.31 0 01-8.08-8.4 18.29 18.29 0 01-1.12-6.51c0-2.36.38-4.53 1.12-6.5.75-1.97 1.8-3.67 3.17-5.1a14.32 14.32 0 014.9-3.34c1.92-.8 4.03-1.19 6.34-1.19 2.32 0 4.43.4 6.34 1.19 1.92.8 3.56 1.9 4.93 3.34a14.87 14.87 0 013.17 5.1 18.1 18.1 0 011.12 6.5zm-4.38 0c0-1.94-.26-3.68-.8-5.22a10.91 10.91 0 00-2.24-3.89 9.68 9.68 0 00-3.52-2.46 11.95 11.95 0 00-4.62-.86c-1.68 0-3.21.28-4.6.86a9.88 9.88 0 00-3.54 2.46 10.91 10.91 0 00-2.24 3.9c-.53 1.53-.8 3.27-.8 5.2 0 1.94.27 3.68.8 5.22a11.17 11.17 0 002.24 3.9 10.01 10.01 0 003.55 2.44c1.38.56 2.9.83 4.6.83s3.24-.27 4.61-.83a9.8 9.8 0 003.52-2.44 11.17 11.17 0 002.25-3.9c.53-1.54.8-3.28.8-5.21zm26.22-6.54V48H60.5c-.56 0-.9-.27-1.05-.81l-.31-2.4a12.45 12.45 0 01-3.26 2.6c-1.2.64-2.58.96-4.13.96-1.22 0-2.3-.2-3.24-.6a6.52 6.52 0 01-2.33-1.7 7.37 7.37 0 01-1.43-2.67c-.3-1.04-.46-2.2-.46-3.45V25.7h3.91v14.22c0 1.68.38 2.99 1.15 3.91.77.93 1.96 1.39 3.54 1.39 1.16 0 2.24-.27 3.23-.82a10.42 10.42 0 002.8-2.28V25.7h3.91zm8.61 4.47a9.94 9.94 0 012.6-3.56 5.64 5.64 0 013.76-1.3c.47 0 .92.05 1.34.15.44.1.83.27 1.17.49l-.3 2.92c-.09.37-.3.55-.66.55-.2 0-.5-.04-.9-.13a6.21 6.21 0 00-3.24.18 4.23 4.23 0 00-1.47.92c-.42.4-.81.9-1.17 1.5-.33.58-.64 1.26-.92 2.02V48H67.7V25.71h2.25c.42 0 .72.08.88.25.16.16.27.44.33.83l.26 3.39zm61.16-13.7L122.75 48h-3.82l-7.99-24.05a21.95 21.95 0 01-.42-1.58 38.36 38.36 0 01-.44 1.58L102.05 48h-3.83L88.4 16.47h3.54c.38 0 .7.1.95.29.26.2.43.43.5.73l6.52 21.9.28 1.28.29 1.46.3-1.46.38-1.27 7.41-21.91c.1-.25.26-.48.51-.69.27-.22.58-.33.95-.33h1.23c.38 0 .69.1.92.29a1.77 1.77 0 01.53.73l7.4 21.9a28.4 28.4 0 01.68 2.62 29.52 29.52 0 01.52-2.61l6.54-21.91a1.31 1.31 0 01.48-.7c.27-.21.58-.32.95-.32h3.32zm9.35 8.88c1.63 0 3.1.27 4.4.82a9.43 9.43 0 015.46 5.94c.5 1.4.74 2.98.74 4.73 0 1.76-.25 3.34-.74 4.75a9.43 9.43 0 01-5.46 5.92c-1.3.52-2.77.79-4.4.79-1.64 0-3.12-.27-4.44-.8a9.42 9.42 0 01-3.35-2.3c-.92-1-1.63-2.2-2.13-3.61-.49-1.41-.73-3-.73-4.75s.24-3.33.73-4.73c.5-1.43 1.2-2.64 2.13-3.63a9.4 9.4 0 013.35-2.31c1.32-.55 2.8-.82 4.44-.82zm0 19.89c2.2 0 3.84-.73 4.93-2.2 1.08-1.48 1.63-3.54 1.63-6.18 0-2.66-.55-4.72-1.63-6.2-1.09-1.49-2.73-2.23-4.93-2.23-1.12 0-2.09.2-2.93.57a5.71 5.71 0 00-2.06 1.65 7.5 7.5 0 00-1.24 2.67c-.26 1.04-.4 2.22-.4 3.54 0 2.64.55 4.7 1.64 6.18 1.1 1.47 2.76 2.2 4.99 2.2zm17.97-15.07a9.94 9.94 0 012.6-3.56 5.64 5.64 0 013.76-1.3c.47 0 .91.05 1.34.15.44.1.83.27 1.16.49l-.28 2.92c-.09.37-.31.55-.66.55-.2 0-.5-.04-.9-.13a6.2 6.2 0 00-3.24.18 4.23 4.23 0 00-1.47.92c-.43.4-.82.9-1.17 1.5a13.1 13.1 0 00-.92 2.02V48h-3.94V25.71h2.24c.43 0 .72.08.88.25.17.16.28.44.33.83l.27 3.39zm15.04-14.59V48h-3.92V15.6h3.92zm19.55 15.43a6.22 6.22 0 00-2.38-2.05 6.7 6.7 0 00-2.86-.6c-2.07 0-3.66.75-4.77 2.23-1.12 1.48-1.68 3.6-1.68 6.33 0 1.46.13 2.7.38 3.74a7.29 7.29 0 001.1 2.56 4.35 4.35 0 001.78 1.45c.7.3 1.5.46 2.4.46 1.29 0 2.41-.3 3.36-.88a9.6 9.6 0 002.67-2.49V31.02zm3.91-15.43V48h-2.33c-.56 0-.9-.27-1.06-.81l-.35-2.71a12.13 12.13 0 01-3.25 2.77 8.28 8.28 0 01-4.23 1.06 7.31 7.31 0 01-6.14-2.9c-.73-.96-1.3-2.15-1.69-3.57a18.35 18.35 0 01.07-9.48 11.29 11.29 0 011.89-3.7 8.7 8.7 0 017.06-3.34 7.96 7.96 0 016.12 2.62V15.59h3.91zM46.61 70.71V93H42.7V70.71h3.91zm.84-7c0 .39-.08.75-.24 1.09a2.81 2.81 0 01-1.52 1.47 2.67 2.67 0 01-2.16 0 2.9 2.9 0 01-1.45-1.47 2.67 2.67 0 010-2.16c.15-.35.35-.65.6-.9.25-.27.53-.47.85-.62a2.67 2.67 0 012.16 0c.35.15.65.35.9.62.27.25.47.55.62.9.16.34.24.7.24 1.08zm7.97 10.24c.49-.54 1-1.04 1.54-1.48a9.85 9.85 0 013.66-1.84 8.96 8.96 0 015.43.35c.94.4 1.72.97 2.33 1.71a7.36 7.36 0 011.43 2.67c.32 1.04.49 2.19.49 3.45V93h-3.94V78.81c0-1.69-.4-3-1.17-3.92-.76-.93-1.93-1.4-3.5-1.4a6.6 6.6 0 00-3.25.83c-1 .56-1.92 1.31-2.77 2.27V93h-3.94V70.71h2.35c.56 0 .9.28 1.04.82l.3 2.42zm57.7 3.3c0 2.36-.37 4.5-1.11 6.44a14.3 14.3 0 01-3.17 4.98 14.1 14.1 0 01-4.93 3.2c-1.9.76-4.02 1.13-6.33 1.13H85.8V61.47h11.77c2.31 0 4.42.39 6.33 1.15a13.8 13.8 0 018.1 8.18 17.75 17.75 0 011.12 6.45zm-4.37 0c0-1.94-.26-3.67-.8-5.2a10.94 10.94 0 00-2.23-3.87 9.57 9.57 0 00-3.53-2.42 12.23 12.23 0 00-4.61-.83h-7.5v24.62h7.5c1.7 0 3.24-.28 4.61-.84a9.7 9.7 0 003.53-2.4 10.94 10.94 0 002.24-3.87c.53-1.53.8-3.26.8-5.2zm19.8 5.72c-1.8.06-3.34.2-4.62.44-1.26.22-2.3.51-3.1.88-.8.36-1.37.8-1.74 1.3-.35.5-.53 1.05-.53 1.67 0 .58.1 1.1.3 1.52a3 3 0 00.76 1.05c.34.27.73.46 1.17.6a6.13 6.13 0 001.45.17 7.28 7.28 0 003.5-.81 11.95 11.95 0 002.82-2.2v-4.62zm-12.65-9.11a12.73 12.73 0 013.98-2.66c1.43-.59 3-.88 4.73-.88 1.25 0 2.36.2 3.33.61a6.81 6.81 0 013.94 4.38c.33 1.04.5 2.19.5 3.43V93h-1.74a1.8 1.8 0 01-.88-.18c-.2-.13-.36-.38-.48-.74l-.44-2.12-1.72 1.46a9.48 9.48 0 01-3.74 1.7c-.69.15-1.46.23-2.3.23-.87 0-1.69-.12-2.45-.35a5.34 5.34 0 01-3.34-2.93 6.64 6.64 0 01-.49-2.64c0-.88.25-1.72.73-2.53a6.33 6.33 0 012.35-2.17c1.09-.63 2.5-1.15 4.25-1.54 1.75-.41 3.89-.65 6.42-.7v-1.75c0-1.73-.37-3.03-1.12-3.91-.75-.9-1.84-1.34-3.28-1.34-.97 0-1.78.12-2.44.37-.64.23-1.2.5-1.7.81l-1.23.82c-.33.23-.67.35-1 .35-.27 0-.5-.07-.69-.2a2.1 2.1 0 01-.48-.53l-.7-1.25zm27.67 19.5c-1.76 0-3.12-.5-4.07-1.48-.94-.98-1.41-2.4-1.41-4.25V74h-2.68a.9.9 0 01-.6-.2c-.16-.14-.24-.36-.24-.66v-1.56l3.65-.46.9-6.89a.9.9 0 01.29-.52.88.88 0 01.62-.22H142v7.67h6.44V74H142v13.38c0 .94.22 1.63.68 2.09.45.45 1.04.68 1.76.68a3.21 3.21 0 001.85-.53l.55-.35c.16-.12.3-.18.41-.18.2 0 .4.13.55.38l1.15 1.87a7.45 7.45 0 01-2.44 1.5 8.53 8.53 0 01-2.95.52zm19.68-10.4c-1.8.07-3.34.21-4.62.45-1.26.22-2.3.51-3.1.88-.8.36-1.37.8-1.74 1.3-.35.5-.53 1.05-.53 1.67 0 .58.1 1.1.3 1.52a2.9 2.9 0 00.76 1.05c.34.27.73.46 1.17.6a6.13 6.13 0 001.45.17 7.3 7.3 0 003.5-.81 12.04 12.04 0 002.82-2.2v-4.62zm-12.65-9.1a12.72 12.72 0 013.99-2.66c1.42-.59 3-.88 4.72-.88 1.25 0 2.36.2 3.33.61a6.81 6.81 0 013.94 4.38c.33 1.04.5 2.19.5 3.43V93h-1.74a1.8 1.8 0 01-.88-.18c-.2-.13-.36-.38-.48-.74l-.44-2.12-1.72 1.46a9.48 9.48 0 01-3.74 1.7c-.69.15-1.46.23-2.3.23-.87 0-1.69-.12-2.45-.35a5.33 5.33 0 01-3.34-2.93 6.62 6.62 0 01-.49-2.64c0-.88.25-1.72.73-2.53a6.33 6.33 0 012.35-2.17c1.09-.63 2.5-1.15 4.25-1.54a31.2 31.2 0 016.42-.7v-1.75c0-1.73-.37-3.03-1.12-3.91-.75-.9-1.84-1.34-3.28-1.34-.97 0-1.78.12-2.44.37-.64.23-1.2.5-1.7.81l-1.22.82c-.34.23-.68.35-1.02.35-.26 0-.49-.07-.68-.2a1.88 1.88 0 01-.48-.53l-.7-1.25z" fill="#fff"/><path fill="#D42B21" d="M0 106.79h210V120H0z"/></g><defs><clipPath id="clip0"><path fill="#fff" d="M0 0h210v120H0z"/></clipPath></defs></svg></g><a href="https://ourworldindata.org/grapher/five-year-cancer-survival-in-usa?country=~All+races%2C+total" target="_blank" rel="noopener" font-family="&quot;Playfair Display&quot;,Georgia,&quot;Times New Roman&quot;,serif"><text font-size="22.5" x="15" y="33" fill="#555"><tspan x="15" y="33">Five-year cancer survival rates in the USA, All races, total, 1977 to 2013</tspan></text></a><text font-size="14.4" x="15" y="53" fill="#666"><tspan x="15" y="53.02">Percentage of cancer patients surviving at least five years since diagnosis, by cancer type. This data is available to</tspan><tspan x="15" y="70.3">view by sex and race.</tspan></text></g><g class="LineChart"><defs><clipPath id="a"><path d="M42.56 79.5h840v477.9h-840z"/></clipPath></defs><g class="DualAxisView"><g class="HorizontalAxis"><path stroke="#999" d="M52.6 526.2v5M643.4 526.2v5M183.9 526.2v5M265.9 526.2v5M348 526.2v5M430 526.2v5M512.1 526.2v5"/><text x="52.56" y="547.4" fill="#666" text-anchor="start" font-size="16.2">1977</text><text x="643.4" y="547.4" fill="#666" text-anchor="end" font-size="16.2">2013</text><text x="183.9" y="547.4" fill="#666" text-anchor="middle" font-size="16.2">1985</text><text x="265.9" y="547.4" fill="#666" text-anchor="middle" font-size="16.2">1990</text><text x="348" y="547.4" fill="#666" text-anchor="middle" font-size="16.2">1995</text><text x="430" y="547.4" fill="#666" text-anchor="middle" font-size="16.2">2000</text><text x="512.1" y="547.4" fill="#666" text-anchor="middle" font-size="16.2">2005</text></g><g class="VerticalAxis" text-anchor="end" fill="#666" font-size="16.2"><text x="47.56" y="526.2" dy=".32em">0%</text><text x="47.56" y="438.5" dy=".32em">20%</text><text x="47.56" y="350.8" dy=".32em">40%</text><text x="47.56" y="263.1" dy=".32em">60%</text><text x="47.56" y="175.4" dy=".32em">80%</text></g><g class="AxisGridLines horizontalLines"><path stroke="#999" d="M52.56 526.2H643.4"/><path stroke="#ddd" stroke-dasharray="3,2" d="M52.56 438.5H643.4M52.56 350.8H643.4M52.56 263.1H643.4M52.56 175.4H643.4"/></g></g><g clip-path="url(#a)"><g class="LineLabels" cursor="default"><g class="legendMark"><g class="indicator"><path d="M647.4 91.3H669v4.95h5.4" stroke="#999" stroke-width=".5" fill="none"/></g><text font-size="13.5" x="678.4" y="100.3" fill="#9A5129"><tspan x="678.4" y="100.3">Prostate</tspan></text></g><g class="legendMark"><g class="indicator"><path d="M647.4 95.6h16.2v16.15h10.8" stroke="#999" stroke-width=".5" fill="none"/></g><text font-size="13.5" x="678.4" y="115.8" fill="#8C4569"><tspan x="678.4" y="115.8">Thyroid</tspan></text></g><g class="legendMark"><g class="indicator"><path d="M647.4 115.8h10.8v11.45h16.2" stroke="#999" stroke-width=".5" fill="none"/></g><text font-size="13.5" x="678.4" y="131.3" fill="#C45267"><tspan x="678.4" y="131.3">Skin</tspan></text></g><g class="legendMark"><g class="indicator"><path d="M647.4 126.8h5.4v15.95h21.6" stroke="#999" stroke-width=".5" fill="none"/></g><text font-size="13.5" x="678.4" y="146.8" fill="#6D3E91"><tspan x="678.4" y="146.8">Breast</tspan></text></g><g class="legendMark"><g class="indicator"><path d="M647.4 184.2h13.5v0h13.5" stroke="#999" stroke-width=".5" fill="none"/></g><text font-size="13.5" x="678.4" y="188.3" fill="#B13507"><tspan x="678.4" y="188.25">Bladder</tspan></text></g><g class="legendMark"><g class="indicator"><path d="M647.4 222.8h20.25v-13.63h6.75" stroke="#999" stroke-width=".5" fill="none"/></g><text font-size="13.5" x="678.4" y="213.2" fill="#3C4E66"><tspan x="678.4" y="213.23">All cancers</tspan></text></g><g class="legendMark"><g class="indicator"><path d="M647.4 224.5h20.25v.18h6.75" stroke="#999" stroke-width=".5" fill="none"/></g><text font-size="13.5" x="678.4" y="228.7" fill="#CF0A66"><tspan x="678.4" y="228.73">Cervix uteri</tspan></text></g><g class="legendMark"><g class="indicator"><path d="M647.4 235.5h13.5v4.68h13.5" stroke="#999" stroke-width=".5" fill="none"/></g><text font-size="13.5" x="678.4" y="244.2" fill="#883039"><tspan x="678.4" y="244.23">Colon and rectum</tspan></text></g><g class="legendMark"><g class="indicator"><path d="M647.4 246.9h6.75v8.78h20.25" stroke="#999" stroke-width=".5" fill="none"/></g><text font-size="13.5" x="678.4" y="259.7" fill="#4C6A9C"><tspan x="678.4" y="259.73">Leukemia</tspan></text></g><g class="legendMark"><g class="indicator"><path d="M647.4 302.6h13.5v0h13.5" stroke="#999" stroke-width=".5" fill="none"/></g><text font-size="13.5" x="678.4" y="306.7" fill="#287669"><tspan x="678.4" y="306.65">Myeloma</tspan></text></g><g class="legendMark"><g class="indicator"><path d="M647.4 321.4h13.5v0h13.5" stroke="#999" stroke-width=".5" fill="none"/></g><text font-size="13.5" x="678.4" y="325.4" fill="#CD2285"><tspan x="678.4" y="325.45">Ovary</tspan></text></g><g class="legendMark"><g class="indicator"><path d="M647.4 368.8h13.5v0h13.5" stroke="#999" stroke-width=".5" fill="none"/></g><text font-size="13.5" x="678.4" y="372.9" fill="#00847E"><tspan x="678.4" y="372.85">Brain and nervous system</tspan></text></g><g class="legendMark"><g class="indicator"><path d="M647.4 389.8h13.5v0h13.5" stroke="#999" stroke-width=".5" fill="none"/></g><text font-size="13.5" x="678.4" y="393.9" fill="#008860"><tspan x="678.4" y="393.85">Stomach</tspan></text></g><g class="legendMark"><g class="indicator"><path d="M647.4 434.1h9v-9.63h18" stroke="#999" stroke-width=".5" fill="none"/></g><text font-size="13.5" x="678.4" y="428.5" fill="#00823F"><tspan x="678.4" y="428.52">Esophagus</tspan></text></g><g class="legendMark"><g class="indicator"><path d="M647.4 440.7h18v-.73h9" stroke="#999" stroke-width=".5" fill="none"/></g><text font-size="13.5" x="678.4" y="444" fill="#D73C50"><tspan x="678.4" y="444.02">Lung and bronchus</tspan></text></g><g class="legendMark"><g class="indicator"><path d="M647.4 445.1h18v10.37h9" stroke="#999" stroke-width=".5" fill="none"/></g><text font-size="13.5" x="678.4" y="459.5" fill="#C05917"><tspan x="678.4" y="459.52">Liver</tspan></text></g><g class="legendMark"><g class="indicator"><path d="M647.4 488.1h13.5v0h13.5" stroke="#999" stroke-width=".5" fill="none"/></g><text font-size="13.5" x="678.4" y="492.2" fill="#0F739C"><tspan x="678.4" y="492.15">Pancreas</tspan></text></g></g><g class="Lines"><g><path stroke-linecap="round" stroke-linejoin="round" stroke="#ddd" d="M52.6 122.4h49.2l49.2-6.6 49.3 1.8 49.2-5.3 49.2.4 49.3-4.8 49.2-.9 49.3-3.9 82-4.8 114.9-2.7" fill="none" stroke-width="1"/></g><g><path stroke-linecap="round" stroke-linejoin="round" stroke="#ddd" d="M52.6 459.6l49.2-4 49.2-4.8 49.3-1.8 49.2-9.2 49.2-5.2 49.3-.5 49.2-5.7 49.3-7.9 82-16.6 114.9-14.1" fill="none" stroke-width="1"/></g><g><path stroke-linecap="round" stroke-linejoin="round" stroke="#ddd" d="M52.6 167.1l49.2-3.9H151l49.3-16.7 49.2-6.6 49.2-4.8 49.3-2.2 49.2-5.7 49.3-5.3 82-3.9 114.9-2.2" fill="none" stroke-width="1"/></g><g><path stroke-linecap="round" stroke-linejoin="round" stroke="#ddd" d="M52.6 228.9l49.2-10.1 49.2-8.3 49.3-14 49.2-33.3 49.2-44.3 49.3-10.1 49.2-9.7 49.3-8.3 82-1.3 114.9 1.8" fill="none" stroke-width="1"/></g><g><path stroke-linecap="round" stroke-linejoin="round" stroke="#ddd" d="M52.6 515.2l49.2-1.7 49.2.9 49.3-.9 49.2-2.6 49.2-3.6 49.3 1.4 49.2-1.8 49.3-3.1 82-4.3 114.9-11.4" fill="none" stroke-width="1"/></g><g><path stroke-linecap="round" stroke-linejoin="round" stroke="#ddd" d="M52.6 368.4l49.2-7.5 49.2-5.3 49.3 2.2 49.2.9 49.2-10.1 49.3-4.4 49.2-10.5h49.3l82-1.7 114.9-10.6" fill="none" stroke-width="1"/></g><g><path stroke-linecap="round" stroke-linejoin="round" stroke="#ddd" d="M52.6 418.3l49.2-5.7 49.2-7 49.3.9 49.2.4 49.2-9.2 49.3-10.1 49.2-3.9 49.3-8.8 82-41.6 114.9-30.7" fill="none" stroke-width="1"/></g><g><path stroke-linecap="round" stroke-linejoin="round" stroke="#ddd" d="M52.6 472.7l49.2-2.6 49.2-1.3 49.3 1.3 49.2-.9 49.2-2.6 49.3-3.1 49.2-1.3 49.3-3.1 82-6.1 114.9-12.3" fill="none" stroke-width="1"/></g><g><path stroke-linecap="round" stroke-linejoin="round" stroke="#ddd" d="M52.6 511.3l49.2.4L151 510l49.3-8.8 49.2 3.5 49.2-3.1H348l49.2-13.1 49.3-11.8 82-19.3 114.9-12.3" fill="none" stroke-width="1"/></g><g><path stroke-linecap="round" stroke-linejoin="round" stroke="#ddd" d="M52.6 376.7l49.2-8.3 49.2-5.7 49.3-14.1 49.2-10.5 49.2-10.1 49.3-10.1 49.2-3.5 49.3-11.4 82-37.7 114.9-18.4" fill="none" stroke-width="1"/></g><g><path stroke-linecap="round" stroke-linejoin="round" stroke="#ddd" d="M52.6 504.3h49.2l49.2-7 49.3-12.8 49.2.5 49.2-12.3 49.3.4 49.2-5.7 49.3-20.6 82-2.6 114.9-10.1" fill="none" stroke-width="1"/></g><g><path stroke-linecap="round" stroke-linejoin="round" stroke="#ddd" d="M52.6 307.9l49.2-6.2 49.2-12.3 49.3-16.2 49.2-8.3 49.2-7 49.3 5.7 49.2-11 49.3-11.8 82-4 114.9-1.3" fill="none" stroke-width="1"/></g><g><path stroke-linecap="round" stroke-linejoin="round" stroke="#ddd" d="M52.6 223.2l49.2 7.5 49.2 2.2 49.3-1.3 49.2-12.8 49.2 2.2 49.3-13.1h49.2l49.3.9 82 12.7 114.9 3" fill="none" stroke-width="1"/></g><g><path stroke-linecap="round" stroke-linejoin="round" stroke="#ddd" d="M52.6 198.2l49.2 1.8 49.2-7.5 49.3-12.2 49.2-22.4 49.2-5.3 49.3-5.2 49.2-7.9 49.3-6.6 82-2.2 114.9-3.9" fill="none" stroke-width="1"/></g><g><path stroke-linecap="round" stroke-linejoin="round" stroke="#ddd" d="M52.6 427.5l49.2-4.8 49.2-2.2 49.3-12.2 49.2-8.8 49.2-5.7L348 385l49.2 4 49.3-11 82-5.7 114.9-3.5" fill="none" stroke-width="1"/></g><g><path stroke-linecap="round" stroke-linejoin="round" stroke="#ddd" d="M52.6 209.2l49.2-7 49.2-12.3h49.3l49.2-10.1 49.2-.9 49.3-4.3 49.2 4.8 49.3-4 82-.4 114.9 9.2" fill="none" stroke-width="1"/></g><g><path stroke-linecap="round" stroke-linejoin="round" stroke="#ddd" d="M52.6 311.8l49.2-.4 49.2-5.3 49.3-9.6 49.2-12.8 49.2-20.1 49.3-6.2 49.2-8.7 49.3-11.9 82-6.6 114.9-7.4" fill="none" stroke-width="1"/></g><g><path stroke="#8C4569" stroke-linecap="round" stroke-linejoin="round" d="M52.6 122.4h49.2l49.2-6.6 49.3 1.8 49.2-5.3 49.2.4 49.3-4.8 49.2-.9 49.3-3.9 82-4.8 114.9-2.7" fill="none" stroke-width="1.5"/><g fill="#8C4569"><circle cx="52.6" cy="122.4" r="2"/><circle cx="101.8" cy="122.4" r="2"/><circle cx="151" cy="115.8" r="2"/><circle cx="200.3" cy="117.6" r="2"/><circle cx="249.5" cy="112.3" r="2"/><circle cx="298.7" cy="112.7" r="2"/><circle cx="348" cy="107.9" r="2"/><circle cx="397.2" cy="107" r="2"/><circle cx="446.5" cy="103.1" r="2"/><circle cx="528.5" cy="98.3" r="2"/><circle cx="643.4" cy="95.6" r="2"/></g></g><g><path stroke="#008860" stroke-linecap="round" stroke-linejoin="round" d="M52.6 459.6l49.2-4 49.2-4.8 49.3-1.8 49.2-9.2 49.2-5.2 49.3-.5 49.2-5.7 49.3-7.9 82-16.6 114.9-14.1" fill="none" stroke-width="1.5"/><g fill="#008860"><circle cx="52.6" cy="459.6" r="2"/><circle cx="101.8" cy="455.6" r="2"/><circle cx="151" cy="450.8" r="2"/><circle cx="200.3" cy="449" r="2"/><circle cx="249.5" cy="439.8" r="2"/><circle cx="298.7" cy="434.6" r="2"/><circle cx="348" cy="434.1" r="2"/><circle cx="397.2" cy="428.4" r="2"/><circle cx="446.5" cy="420.5" r="2"/><circle cx="528.5" cy="403.9" r="2"/><circle cx="643.4" cy="389.8" r="2"/></g></g><g><path stroke="#C45267" stroke-linecap="round" stroke-linejoin="round" d="M52.6 167.1l49.2-3.9H151l49.3-16.7 49.2-6.6 49.2-4.8 49.3-2.2 49.2-5.7 49.3-5.3 82-3.9 114.9-2.2" fill="none" stroke-width="1.5"/><g fill="#C45267"><circle cx="52.6" cy="167.1" r="2"/><circle cx="101.8" cy="163.2" r="2"/><circle cx="151" cy="163.2" r="2"/><circle cx="200.3" cy="146.5" r="2"/><circle cx="249.5" cy="139.9" r="2"/><circle cx="298.7" cy="135.1" r="2"/><circle cx="348" cy="132.9" r="2"/><circle cx="397.2" cy="127.2" r="2"/><circle cx="446.5" cy="121.9" r="2"/><circle cx="528.5" cy="118" r="2"/><circle cx="643.4" cy="115.8" r="2"/></g></g><g><path stroke="#9A5129" stroke-linecap="round" stroke-linejoin="round" d="M52.6 228.9l49.2-10.1 49.2-8.3 49.3-14 49.2-33.3 49.2-44.3 49.3-10.1 49.2-9.7 49.3-8.3 82-1.3 114.9 1.8" fill="none" stroke-width="1.5"/><g fill="#9A5129"><circle cx="52.6" cy="228.9" r="2"/><circle cx="101.8" cy="218.8" r="2"/><circle cx="151" cy="210.5" r="2"/><circle cx="200.3" cy="196.5" r="2"/><circle cx="249.5" cy="163.2" r="2"/><circle cx="298.7" cy="118.9" r="2"/><circle cx="348" cy="108.8" r="2"/><circle cx="397.2" cy="99.1" r="2"/><circle cx="446.5" cy="90.8" r="2"/><circle cx="528.5" cy="89.5" r="2"/><circle cx="643.4" cy="91.3" r="2"/></g></g><g><path stroke="#0F739C" stroke-linecap="round" stroke-linejoin="round" d="M52.6 515.2l49.2-1.7 49.2.9 49.3-.9 49.2-2.6 49.2-3.6 49.3 1.4 49.2-1.8 49.3-3.1 82-4.3 114.9-11.4" fill="none" stroke-width="1.5"/><g fill="#0F739C"><circle cx="52.6" cy="515.2" r="2"/><circle cx="101.8" cy="513.5" r="2"/><circle cx="151" cy="514.4" r="2"/><circle cx="200.3" cy="513.5" r="2"/><circle cx="249.5" cy="510.9" r="2"/><circle cx="298.7" cy="507.3" r="2"/><circle cx="348" cy="508.7" r="2"/><circle cx="397.2" cy="506.9" r="2"/><circle cx="446.5" cy="503.8" r="2"/><circle cx="528.5" cy="499.5" r="2"/><circle cx="643.4" cy="488.1" r="2"/></g></g><g><path stroke="#CD2285" stroke-linecap="round" stroke-linejoin="round" d="M52.6 368.4l49.2-7.5 49.2-5.3 49.3 2.2 49.2.9 49.2-10.1 49.3-4.4 49.2-10.5h49.3l82-1.7 114.9-10.6" fill="none" stroke-width="1.5"/><g fill="#CD2285"><circle cx="52.6" cy="368.4" r="2"/><circle cx="101.8" cy="360.9" r="2"/><circle cx="151" cy="355.6" r="2"/><circle cx="200.3" cy="357.8" r="2"/><circle cx="249.5" cy="358.7" r="2"/><circle cx="298.7" cy="348.6" r="2"/><circle cx="348" cy="344.2" r="2"/><circle cx="397.2" cy="333.7" r="2"/><circle cx="446.5" cy="333.7" r="2"/><circle cx="528.5" cy="332" r="2"/><circle cx="643.4" cy="321.4" r="2"/></g></g><g><path stroke="#287669" stroke-linecap="round" stroke-linejoin="round" d="M52.6 418.3l49.2-5.7 49.2-7 49.3.9 49.2.4 49.2-9.2 49.3-10.1 49.2-3.9 49.3-8.8 82-41.6 114.9-30.7" fill="none" stroke-width="1.5"/><g fill="#287669"><circle cx="52.6" cy="418.3" r="2"/><circle cx="101.8" cy="412.6" r="2"/><circle cx="151" cy="405.6" r="2"/><circle cx="200.3" cy="406.5" r="2"/><circle cx="249.5" cy="406.9" r="2"/><circle cx="298.7" cy="397.7" r="2"/><circle cx="348" cy="387.6" r="2"/><circle cx="397.2" cy="383.7" r="2"/><circle cx="446.5" cy="374.9" r="2"/><circle cx="528.5" cy="333.3" r="2"/><circle cx="643.4" cy="302.6" r="2"/></g></g><g><path stroke="#D73C50" stroke-linecap="round" stroke-linejoin="round" d="M52.6 472.7l49.2-2.6 49.2-1.3 49.3 1.3 49.2-.9 49.2-2.6 49.3-3.1 49.2-1.3 49.3-3.1 82-6.1 114.9-12.3" fill="none" stroke-width="1.5"/><g fill="#D73C50"><circle cx="52.6" cy="472.7" r="2"/><circle cx="101.8" cy="470.1" r="2"/><circle cx="151" cy="468.8" r="2"/><circle cx="200.3" cy="470.1" r="2"/><circle cx="249.5" cy="469.2" r="2"/><circle cx="298.7" cy="466.6" r="2"/><circle cx="348" cy="463.5" r="2"/><circle cx="397.2" cy="462.2" r="2"/><circle cx="446.5" cy="459.1" r="2"/><circle cx="528.5" cy="453" r="2"/><circle cx="643.4" cy="440.7" r="2"/></g></g><g><path stroke="#C05917" stroke-linecap="round" stroke-linejoin="round" d="M52.6 511.3l49.2.4L151 510l49.3-8.8 49.2 3.5 49.2-3.1H348l49.2-13.1 49.3-11.8 82-19.3 114.9-12.3" fill="none" stroke-width="1.5"/><g fill="#C05917"><circle cx="52.6" cy="511.3" r="2"/><circle cx="101.8" cy="511.7" r="2"/><circle cx="151" cy="510" r="2"/><circle cx="200.3" cy="501.2" r="2"/><circle cx="249.5" cy="504.7" r="2"/><circle cx="298.7" cy="501.6" r="2"/><circle cx="348" cy="501.6" r="2"/><circle cx="397.2" cy="488.5" r="2"/><circle cx="446.5" cy="476.7" r="2"/><circle cx="528.5" cy="457.4" r="2"/><circle cx="643.4" cy="445.1" r="2"/></g></g><g><path stroke="#4C6A9C" stroke-linecap="round" stroke-linejoin="round" d="M52.6 376.7l49.2-8.3 49.2-5.7 49.3-14.1 49.2-10.5 49.2-10.1 49.3-10.1 49.2-3.5 49.3-11.4 82-37.7 114.9-18.4" fill="none" stroke-width="1.5"/><g fill="#4C6A9C"><circle cx="52.6" cy="376.7" r="2"/><circle cx="101.8" cy="368.4" r="2"/><circle cx="151" cy="362.7" r="2"/><circle cx="200.3" cy="348.6" r="2"/><circle cx="249.5" cy="338.1" r="2"/><circle cx="298.7" cy="328" r="2"/><circle cx="348" cy="317.9" r="2"/><circle cx="397.2" cy="314.4" r="2"/><circle cx="446.5" cy="303" r="2"/><circle cx="528.5" cy="265.3" r="2"/><circle cx="643.4" cy="246.9" r="2"/></g></g><g><path stroke="#00823F" stroke-linecap="round" stroke-linejoin="round" d="M52.6 504.3h49.2l49.2-7 49.3-12.8 49.2.5 49.2-12.3 49.3.4 49.2-5.7 49.3-20.6 82-2.6 114.9-10.1" fill="none" stroke-width="1.5"/><g fill="#00823F"><circle cx="52.6" cy="504.3" r="2"/><circle cx="101.8" cy="504.3" r="2"/><circle cx="151" cy="497.3" r="2"/><circle cx="200.3" cy="484.5" r="2"/><circle cx="249.5" cy="485" r="2"/><circle cx="298.7" cy="472.7" r="2"/><circle cx="348" cy="473.1" r="2"/><circle cx="397.2" cy="467.4" r="2"/><circle cx="446.5" cy="446.8" r="2"/><circle cx="528.5" cy="444.2" r="2"/><circle cx="643.4" cy="434.1" r="2"/></g></g><g><path stroke="#883039" stroke-linecap="round" stroke-linejoin="round" d="M52.6 307.9l49.2-6.2 49.2-12.3 49.3-16.2 49.2-8.3 49.2-7 49.3 5.7 49.2-11 49.3-11.8 82-4 114.9-1.3" fill="none" stroke-width="1.5"/><g fill="#883039"><circle cx="52.6" cy="307.9" r="2"/><circle cx="101.8" cy="301.7" r="2"/><circle cx="151" cy="289.4" r="2"/><circle cx="200.3" cy="273.2" r="2"/><circle cx="249.5" cy="264.9" r="2"/><circle cx="298.7" cy="257.9" r="2"/><circle cx="348" cy="263.6" r="2"/><circle cx="397.2" cy="252.6" r="2"/><circle cx="446.5" cy="240.8" r="2"/><circle cx="528.5" cy="236.8" r="2"/><circle cx="643.4" cy="235.5" r="2"/></g></g><g><path stroke="#CF0A66" stroke-linecap="round" stroke-linejoin="round" d="M52.6 223.2l49.2 7.5 49.2 2.2 49.3-1.3 49.2-12.8 49.2 2.2 49.3-13.1h49.2l49.3.9 82 12.7 114.9 3" fill="none" stroke-width="1.5"/><g fill="#CF0A66"><circle cx="52.6" cy="223.2" r="2"/><circle cx="101.8" cy="230.7" r="2"/><circle cx="151" cy="232.9" r="2"/><circle cx="200.3" cy="231.6" r="2"/><circle cx="249.5" cy="218.8" r="2"/><circle cx="298.7" cy="221" r="2"/><circle cx="348" cy="207.9" r="2"/><circle cx="397.2" cy="207.9" r="2"/><circle cx="446.5" cy="208.8" r="2"/><circle cx="528.5" cy="221.5" r="2"/><circle cx="643.4" cy="224.5" r="2"/></g></g><g><path stroke="#6D3E91" stroke-linecap="round" stroke-linejoin="round" d="M52.6 198.2l49.2 1.8 49.2-7.5 49.3-12.2 49.2-22.4 49.2-5.3 49.3-5.2 49.2-7.9 49.3-6.6 82-2.2 114.9-3.9" fill="none" stroke-width="1.5"/><g fill="#6D3E91"><circle cx="52.6" cy="198.2" r="2"/><circle cx="101.8" cy="200" r="2"/><circle cx="151" cy="192.5" r="2"/><circle cx="200.3" cy="180.3" r="2"/><circle cx="249.5" cy="157.9" r="2"/><circle cx="298.7" cy="152.6" r="2"/><circle cx="348" cy="147.4" r="2"/><circle cx="397.2" cy="139.5" r="2"/><circle cx="446.5" cy="132.9" r="2"/><circle cx="528.5" cy="130.7" r="2"/><circle cx="643.4" cy="126.8" r="2"/></g></g><g><path stroke="#00847E" stroke-linecap="round" stroke-linejoin="round" d="M52.6 427.5l49.2-4.8 49.2-2.2 49.3-12.2 49.2-8.8 49.2-5.7L348 385l49.2 4 49.3-11 82-5.7 114.9-3.5" fill="none" stroke-width="1.5"/><g fill="#00847E"><circle cx="52.6" cy="427.5" r="2"/><circle cx="101.8" cy="422.7" r="2"/><circle cx="151" cy="420.5" r="2"/><circle cx="200.3" cy="408.3" r="2"/><circle cx="249.5" cy="399.5" r="2"/><circle cx="298.7" cy="393.8" r="2"/><circle cx="348" cy="385" r="2"/><circle cx="397.2" cy="389" r="2"/><circle cx="446.5" cy="378" r="2"/><circle cx="528.5" cy="372.3" r="2"/><circle cx="643.4" cy="368.8" r="2"/></g></g><g><path stroke="#B13507" stroke-linecap="round" stroke-linejoin="round" d="M52.6 209.2l49.2-7 49.2-12.3h49.3l49.2-10.1 49.2-.9 49.3-4.3 49.2 4.8 49.3-4 82-.4 114.9 9.2" fill="none" stroke-width="1.5"/><g fill="#B13507"><circle cx="52.6" cy="209.2" r="2"/><circle cx="101.8" cy="202.2" r="2"/><circle cx="151" cy="189.9" r="2"/><circle cx="200.3" cy="189.9" r="2"/><circle cx="249.5" cy="179.8" r="2"/><circle cx="298.7" cy="178.9" r="2"/><circle cx="348" cy="174.6" r="2"/><circle cx="397.2" cy="179.4" r="2"/><circle cx="446.5" cy="175.4" r="2"/><circle cx="528.5" cy="175" r="2"/><circle cx="643.4" cy="184.2" r="2"/></g></g><g><path stroke="#3C4E66" stroke-linecap="round" stroke-linejoin="round" d="M52.6 311.8l49.2-.4 49.2-5.3 49.3-9.6 49.2-12.8 49.2-20.1 49.3-6.2 49.2-8.7 49.3-11.9 82-6.6 114.9-7.4" fill="none" stroke-width="1.5"/><g fill="#3C4E66"><circle cx="52.6" cy="311.8" r="2"/><circle cx="101.8" cy="311.4" r="2"/><circle cx="151" cy="306.1" r="2"/><circle cx="200.3" cy="296.5" r="2"/><circle cx="249.5" cy="283.7" r="2"/><circle cx="298.7" cy="263.6" r="2"/><circle cx="348" cy="257.4" r="2"/><circle cx="397.2" cy="248.7" r="2"/><circle cx="446.5" cy="236.8" r="2"/><circle cx="528.5" cy="230.2" r="2"/><circle cx="643.4" cy="222.8" r="2"/></g></g></g></g></g><g class="SourcesFooter" fill="#777"><g fill="#777"><text font-size="12.6" x="15" y="582.5"><tspan x="15" y="582.48">Source: National Cancer Institute</tspan></text></g><text font-size="12.6" x="796.4" y="582.5"><tspan x="796.44" y="582.48"><a class="cclogo" href="http://creativecommons.org/licenses/by/4.0/deed.en_US" target="_blank" fill="#777">CC BY</a></tspan></text></g></svg>