<svg xmlns="http://www.w3.org/2000/svg" version="1.1" style="font-family:Lato,'Helvetica Neue',Helvetica,Arial,sans-serif;font-size:18px;background-color:#fff;text-rendering:geometricPrecision;-webkit-font-smoothing:antialiased" width="850" height="600" viewBox="0 0 850 600"><g class="HeaderView"><g transform="matrix(.29 0 0 .29 774 15)"><svg className="owidLog" width="210" height="120" viewBox="0 0 210 120" fill="none" xmlns="http://www.w3.org/2000/svg"><g clip-path="url(#a)"><path d="M0 0h210v107.89H0V0z" fill="#002147"/><path d="M40.98 32.25c0 2.36-.38 4.53-1.12 6.51a14.26 14.26 0 0 1-8.1 8.4c-1.9.78-4.02 1.17-6.34 1.17a16.6 16.6 0 0 1-6.33-1.17 14.31 14.31 0 0 1-8.08-8.4 18.29 18.29 0 0 1-1.12-6.51c0-2.36.38-4.53 1.12-6.5.75-1.97 1.8-3.67 3.17-5.1a14.32 14.32 0 0 1 4.9-3.34c1.92-.8 4.03-1.19 6.34-1.19 2.32 0 4.43.4 6.34 1.19 1.92.8 3.56 1.9 4.93 3.34a14.87 14.87 0 0 1 3.17 5.1 18.1 18.1 0 0 1 1.12 6.5zm-4.38 0c0-1.94-.26-3.68-.8-5.22a10.91 10.91 0 0 0-2.24-3.89 9.68 9.68 0 0 0-3.52-2.46 11.95 11.95 0 0 0-4.62-.86c-1.68 0-3.21.28-4.6.86a9.88 9.88 0 0 0-3.54 2.46 10.91 10.91 0 0 0-2.24 3.9c-.53 1.53-.8 3.27-.8 5.2 0 1.94.27 3.68.8 5.22a11.17 11.17 0 0 0 2.24 3.9 10.01 10.01 0 0 0 3.55 2.44c1.38.56 2.9.83 4.6.83s3.24-.27 4.61-.83a9.8 9.8 0 0 0 3.52-2.44 11.17 11.17 0 0 0 2.25-3.9c.53-1.54.8-3.28.8-5.21zm26.22-6.54V48H60.5c-.56 0-.9-.27-1.05-.81l-.31-2.4a12.45 12.45 0 0 1-3.26 2.6c-1.2.64-2.58.96-4.13.96-1.22 0-2.3-.2-3.24-.6a6.52 6.52 0 0 1-2.33-1.7 7.37 7.37 0 0 1-1.43-2.67c-.3-1.04-.46-2.2-.46-3.45V25.7h3.91v14.22c0 1.68.38 2.99 1.15 3.91.77.93 1.96 1.39 3.54 1.39 1.16 0 2.24-.27 3.23-.82a10.42 10.42 0 0 0 2.8-2.28V25.7h3.91zm8.61 4.47a9.94 9.94 0 0 1 2.6-3.56 5.64 5.64 0 0 1 3.76-1.3c.47 0 .92.05 1.34.15.44.1.83.27 1.17.49l-.3 2.92c-.09.37-.3.55-.66.55-.2 0-.5-.04-.9-.13a6.21 6.21 0 0 0-3.24.18 4.23 4.23 0 0 0-1.47.92c-.42.4-.81.9-1.17 1.5-.33.58-.64 1.26-.92 2.02V48H67.7V25.71h2.25c.42 0 .72.08.88.25.16.16.27.44.33.83l.26 3.39zm61.16-13.7L122.75 48h-3.82l-7.99-24.05a21.95 21.95 0 0 1-.42-1.58 38.36 38.36 0 0 1-.44 1.58L102.05 48h-3.83L88.4 16.47h3.54c.38 0 .7.1.95.29.26.2.43.43.5.73l6.52 21.9.28 1.28.29 1.46.3-1.46.38-1.27 7.41-21.91c.1-.25.26-.48.51-.69.27-.22.58-.33.95-.33h1.23c.38 0 .69.1.92.29a1.77 1.77 0 0 1 .53.73l7.4 21.9a28.4 28.4 0 0 1 .68 2.62 29.52 29.52 0 0 1 .52-2.61l6.54-21.91a1.31 1.31 0 0 1 .48-.7c.27-.21.58-.32.95-.32h3.32zm9.35 8.88c1.63 0 3.1.27 4.4.82a9.43 9.43 0 0 1 5.46 5.94c.5 1.4.74 2.98.74 4.73 0 1.76-.25 3.34-.74 4.75a9.43 9.43 0 0 1-5.46 5.92c-1.3.52-2.77.79-4.4.79-1.64 0-3.12-.27-4.44-.8a9.42 9.42 0 0 1-3.35-2.3c-.92-1-1.63-2.2-2.13-3.61-.49-1.41-.73-3-.73-4.75s.24-3.33.73-4.73c.5-1.43 1.2-2.64 2.13-3.63a9.4 9.4 0 0 1 3.35-2.31c1.32-.55 2.8-.82 4.44-.82zm0 19.89c2.2 0 3.84-.73 4.93-2.2 1.08-1.48 1.63-3.54 1.63-6.18 0-2.66-.55-4.72-1.63-6.2-1.09-1.49-2.73-2.23-4.93-2.23-1.12 0-2.09.2-2.93.57a5.71 5.71 0 0 0-2.06 1.65 7.5 7.5 0 0 0-1.24 2.67c-.26 1.04-.4 2.22-.4 3.54 0 2.64.55 4.7 1.64 6.18 1.1 1.47 2.76 2.2 4.99 2.2zm17.97-15.07a9.94 9.94 0 0 1 2.6-3.56 5.64 5.64 0 0 1 3.76-1.3c.47 0 .91.05 1.34.15.44.1.83.27 1.16.49l-.28 2.92c-.09.37-.31.55-.66.55-.2 0-.5-.04-.9-.13a6.2 6.2 0 0 0-3.24.18 4.23 4.23 0 0 0-1.47.92c-.43.4-.82.9-1.17 1.5a13.1 13.1 0 0 0-.92 2.02V48h-3.94V25.71h2.24c.43 0 .72.08.88.25.17.16.28.44.33.83l.27 3.39zm15.04-14.59V48h-3.92V15.6h3.92zm19.55 15.43a6.22 6.22 0 0 0-2.38-2.05 6.7 6.7 0 0 0-2.86-.6c-2.07 0-3.66.75-4.77 2.23-1.12 1.48-1.68 3.6-1.68 6.33 0 1.46.13 2.7.38 3.74a7.29 7.29 0 0 0 1.1 2.56 4.35 4.35 0 0 0 1.78 1.45c.7.3 1.5.46 2.4.46 1.29 0 2.41-.3 3.36-.88a9.6 9.6 0 0 0 2.67-2.49V31.02zm3.91-15.43V48h-2.33c-.56 0-.9-.27-1.06-.81l-.35-2.71a12.13 12.13 0 0 1-3.25 2.77 8.28 8.28 0 0 1-4.23 1.06 7.31 7.31 0 0 1-6.14-2.9c-.73-.96-1.3-2.15-1.69-3.57a18.35 18.35 0 0 1 .07-9.48 11.29 11.29 0 0 1 1.89-3.7 8.7 8.7 0 0 1 7.06-3.34 7.96 7.96 0 0 1 6.12 2.62V15.59h3.91zM46.61 70.71V93H42.7V70.71h3.91zm.84-7c0 .39-.08.75-.24 1.09a2.81 2.81 0 0 1-1.52 1.47 2.67 2.67 0 0 1-2.16 0 2.9 2.9 0 0 1-1.45-1.47 2.67 2.67 0 0 1 0-2.16c.15-.35.35-.65.6-.9.25-.27.53-.47.85-.62a2.67 2.67 0 0 1 2.16 0c.35.15.65.35.9.62.27.25.47.55.62.9.16.34.24.7.24 1.08zm7.97 10.24c.49-.54 1-1.04 1.54-1.48a9.85 9.85 0 0 1 3.66-1.84 8.96 8.96 0 0 1 5.43.35c.94.4 1.72.97 2.33 1.71a7.36 7.36 0 0 1 1.43 2.67c.32 1.04.49 2.19.49 3.45V93h-3.94V78.81c0-1.69-.4-3-1.17-3.92-.76-.93-1.93-1.4-3.5-1.4a6.6 6.6 0 0 0-3.25.83c-1 .56-1.92 1.31-2.77 2.27V93h-3.94V70.71h2.35c.56 0 .9.28 1.04.82l.3 2.42zm57.7 3.3c0 2.36-.37 4.5-1.11 6.44a14.3 14.3 0 0 1-3.17 4.98 14.1 14.1 0 0 1-4.93 3.2c-1.9.76-4.02 1.13-6.33 1.13H85.8V61.47h11.77c2.31 0 4.42.39 6.33 1.15a13.8 13.8 0 0 1 8.1 8.18 17.75 17.75 0 0 1 1.12 6.45zm-4.37 0c0-1.94-.26-3.67-.8-5.2a10.94 10.94 0 0 0-2.23-3.87 9.57 9.57 0 0 0-3.53-2.42 12.23 12.23 0 0 0-4.61-.83h-7.5v24.62h7.5c1.7 0 3.24-.28 4.61-.84a9.7 9.7 0 0 0 3.53-2.4 10.94 10.94 0 0 0 2.24-3.87c.53-1.53.8-3.26.8-5.2zm19.8 5.72c-1.8.06-3.34.2-4.62.44-1.26.22-2.3.51-3.1.88-.8.36-1.37.8-1.74 1.3-.35.5-.53 1.05-.53 1.67 0 .58.1 1.1.3 1.52a3 3 0 0 0 .76 1.05c.34.27.73.46 1.17.6a6.13 6.13 0 0 0 1.45.17 7.28 7.28 0 0 0 3.5-.81 11.95 11.95 0 0 0 2.82-2.2v-4.62zm-12.65-9.11a12.73 12.73 0 0 1 3.98-2.66c1.43-.59 3-.88 4.73-.88 1.25 0 2.36.2 3.33.61a6.81 6.81 0 0 1 3.94 4.38c.33 1.04.5 2.19.5 3.43V93h-1.74a1.8 1.8 0 0 1-.88-.18c-.2-.13-.36-.38-.48-.74l-.44-2.12-1.72 1.46a9.48 9.48 0 0 1-3.74 1.7c-.69.15-1.46.23-2.3.23-.87 0-1.69-.12-2.45-.35a5.34 5.34 0 0 1-3.34-2.93 6.64 6.64 0 0 1-.49-2.64c0-.88.25-1.72.73-2.53a6.33 6.33 0 0 1 2.35-2.17c1.09-.63 2.5-1.15 4.25-1.54 1.75-.41 3.89-.65 6.42-.7v-1.75c0-1.73-.37-3.03-1.12-3.91-.75-.9-1.84-1.34-3.28-1.34-.97 0-1.78.12-2.44.37-.64.23-1.2.5-1.7.81l-1.23.82c-.33.23-.67.35-1 .35-.27 0-.5-.07-.69-.2a2.1 2.1 0 0 1-.48-.53l-.7-1.25zm27.67 19.5c-1.76 0-3.12-.5-4.07-1.48-.94-.98-1.41-2.4-1.41-4.25V74h-2.68a.9.9 0 0 1-.6-.2c-.16-.14-.24-.36-.24-.66v-1.56l3.65-.46.9-6.89a.9.9 0 0 1 .29-.52.88.88 0 0 1 .62-.22H142v7.67h6.44V74H142v13.38c0 .94.22 1.63.68 2.09.45.45 1.04.68 1.76.68a3.21 3.21 0 0 0 1.85-.53l.55-.35c.16-.12.3-.18.41-.18.2 0 .4.13.55.38l1.15 1.87a7.45 7.45 0 0 1-2.44 1.5 8.53 8.53 0 0 1-2.95.52zm19.68-10.4c-1.8.07-3.34.21-4.62.45-1.26.22-2.3.51-3.1.88-.8.36-1.37.8-1.74 1.3-.35.5-.53 1.05-.53 1.67 0 .58.1 1.1.3 1.52a2.9 2.9 0 0 0 .76 1.05c.34.27.73.46 1.17.6a6.13 6.13 0 0 0 1.45.17 7.3 7.3 0 0 0 3.5-.81 12.04 12.04 0 0 0 2.82-2.2v-4.62zm-12.65-9.1a12.72 12.72 0 0 1 3.99-2.66c1.42-.59 3-.88 4.72-.88 1.25 0 2.36.2 3.33.61a6.81 6.81 0 0 1 3.94 4.38c.33 1.04.5 2.19.5 3.43V93h-1.74a1.8 1.8 0 0 1-.88-.18c-.2-.13-.36-.38-.48-.74l-.44-2.12-1.72 1.46a9.48 9.48 0 0 1-3.74 1.7c-.69.15-1.46.23-2.3.23-.87 0-1.69-.12-2.45-.35a5.33 5.33 0 0 1-3.34-2.93 6.62 6.62 0 0 1-.49-2.64c0-.88.25-1.72.73-2.53a6.33 6.33 0 0 1 2.35-2.17c1.09-.63 2.5-1.15 4.25-1.54a31.2 31.2 0 0 1 6.42-.7v-1.75c0-1.73-.37-3.03-1.12-3.91-.75-.9-1.84-1.34-3.28-1.34-.97 0-1.78.12-2.44.37-.64.23-1.2.5-1.7.81l-1.22.82c-.34.23-.68.35-1.02.35-.26 0-.49-.07-.68-.2a1.88 1.88 0 0 1-.48-.53l-.7-1.25zM40.98 32.25c0 2.36-.38 4.53-1.12 6.51a14.26 14.26 0 0 1-8.1 8.4c-1.9.78-4.02 1.17-6.34 1.17a16.6 16.6 0 0 1-6.33-1.17 14.31 14.31 0 0 1-8.08-8.4 18.29 18.29 0 0 1-1.12-6.51c0-2.36.38-4.53 1.12-6.5.75-1.97 1.8-3.67 3.17-5.1a14.32 14.32 0 0 1 4.9-3.34c1.92-.8 4.03-1.19 6.34-1.19 2.32 0 4.43.4 6.34 1.19 1.92.8 3.56 1.9 4.93 3.34a14.87 14.87 0 0 1 3.17 5.1 18.1 18.1 0 0 1 1.12 6.5zm-4.38 0c0-1.94-.26-3.68-.8-5.22a10.91 10.91 0 0 0-2.24-3.89 9.68 9.68 0 0 0-3.52-2.46 11.95 11.95 0 0 0-4.62-.86c-1.68 0-3.21.28-4.6.86a9.88 9.88 0 0 0-3.54 2.46 10.91 10.91 0 0 0-2.24 3.9c-.53 1.53-.8 3.27-.8 5.2 0 1.94.27 3.68.8 5.22a11.17 11.17 0 0 0 2.24 3.9 10.01 10.01 0 0 0 3.55 2.44c1.38.56 2.9.83 4.6.83s3.24-.27 4.61-.83a9.8 9.8 0 0 0 3.52-2.44 11.17 11.17 0 0 0 2.25-3.9c.53-1.54.8-3.28.8-5.21zm26.22-6.54V48H60.5c-.56 0-.9-.27-1.05-.81l-.31-2.4a12.45 12.45 0 0 1-3.26 2.6c-1.2.64-2.58.96-4.13.96-1.22 0-2.3-.2-3.24-.6a6.52 6.52 0 0 1-2.33-1.7 7.37 7.37 0 0 1-1.43-2.67c-.3-1.04-.46-2.2-.46-3.45V25.7h3.91v14.22c0 1.68.38 2.99 1.15 3.91.77.93 1.96 1.39 3.54 1.39 1.16 0 2.24-.27 3.23-.82a10.42 10.42 0 0 0 2.8-2.28V25.7h3.91zm8.61 4.47a9.94 9.94 0 0 1 2.6-3.56 5.64 5.64 0 0 1 3.76-1.3c.47 0 .92.05 1.34.15.44.1.83.27 1.17.49l-.3 2.92c-.09.37-.3.55-.66.55-.2 0-.5-.04-.9-.13a6.21 6.21 0 0 0-3.24.18 4.23 4.23 0 0 0-1.47.92c-.42.4-.81.9-1.17 1.5-.33.58-.64 1.26-.92 2.02V48H67.7V25.71h2.25c.42 0 .72.08.88.25.16.16.27.44.33.83l.26 3.39zm61.16-13.7L122.75 48h-3.82l-7.99-24.05a21.95 21.95 0 0 1-.42-1.58 38.36 38.36 0 0 1-.44 1.58L102.05 48h-3.83L88.4 16.47h3.54c.38 0 .7.1.95.29.26.2.43.43.5.73l6.52 21.9.28 1.28.29 1.46.3-1.46.38-1.27 7.41-21.91c.1-.25.26-.48.51-.69.27-.22.58-.33.95-.33h1.23c.38 0 .69.1.92.29a1.77 1.77 0 0 1 .53.73l7.4 21.9a28.4 28.4 0 0 1 .68 2.62 29.52 29.52 0 0 1 .52-2.61l6.54-21.91a1.31 1.31 0 0 1 .48-.7c.27-.21.58-.32.95-.32h3.32zm9.35 8.88c1.63 0 3.1.27 4.4.82a9.43 9.43 0 0 1 5.46 5.94c.5 1.4.74 2.98.74 4.73 0 1.76-.25 3.34-.74 4.75a9.43 9.43 0 0 1-5.46 5.92c-1.3.52-2.77.79-4.4.79-1.64 0-3.12-.27-4.44-.8a9.42 9.42 0 0 1-3.35-2.3c-.92-1-1.63-2.2-2.13-3.61-.49-1.41-.73-3-.73-4.75s.24-3.33.73-4.73c.5-1.43 1.2-2.64 2.13-3.63a9.4 9.4 0 0 1 3.35-2.31c1.32-.55 2.8-.82 4.44-.82zm0 19.89c2.2 0 3.84-.73 4.93-2.2 1.08-1.48 1.63-3.54 1.63-6.18 0-2.66-.55-4.72-1.63-6.2-1.09-1.49-2.73-2.23-4.93-2.23-1.12 0-2.09.2-2.93.57a5.71 5.71 0 0 0-2.06 1.65 7.5 7.5 0 0 0-1.24 2.67c-.26 1.04-.4 2.22-.4 3.54 0 2.64.55 4.7 1.64 6.18 1.1 1.47 2.76 2.2 4.99 2.2zm17.97-15.07a9.94 9.94 0 0 1 2.6-3.56 5.64 5.64 0 0 1 3.76-1.3c.47 0 .91.05 1.34.15.44.1.83.27 1.16.49l-.28 2.92c-.09.37-.31.55-.66.55-.2 0-.5-.04-.9-.13a6.2 6.2 0 0 0-3.24.18 4.23 4.23 0 0 0-1.47.92c-.43.4-.82.9-1.17 1.5a13.1 13.1 0 0 0-.92 2.02V48h-3.94V25.71h2.24c.43 0 .72.08.88.25.17.16.28.44.33.83l.27 3.39zm15.04-14.59V48h-3.92V15.6h3.92zm19.55 15.43a6.22 6.22 0 0 0-2.38-2.05 6.7 6.7 0 0 0-2.86-.6c-2.07 0-3.66.75-4.77 2.23-1.12 1.48-1.68 3.6-1.68 6.33 0 1.46.13 2.7.38 3.74a7.29 7.29 0 0 0 1.1 2.56 4.35 4.35 0 0 0 1.78 1.45c.7.3 1.5.46 2.4.46 1.29 0 2.41-.3 3.36-.88a9.6 9.6 0 0 0 2.67-2.49V31.02zm3.91-15.43V48h-2.33c-.56 0-.9-.27-1.06-.81l-.35-2.71a12.13 12.13 0 0 1-3.25 2.77 8.28 8.28 0 0 1-4.23 1.06 7.31 7.31 0 0 1-6.14-2.9c-.73-.96-1.3-2.15-1.69-3.57a18.35 18.35 0 0 1 .07-9.48 11.29 11.29 0 0 1 1.89-3.7 8.7 8.7 0 0 1 7.06-3.34 7.96 7.96 0 0 1 6.12 2.62V15.59h3.91zM46.61 70.71V93H42.7V70.71h3.91zm.84-7c0 .39-.08.75-.24 1.09a2.81 2.81 0 0 1-1.52 1.47 2.67 2.67 0 0 1-2.16 0 2.9 2.9 0 0 1-1.45-1.47 2.67 2.67 0 0 1 0-2.16c.15-.35.35-.65.6-.9.25-.27.53-.47.85-.62a2.67 2.67 0 0 1 2.16 0c.35.15.65.35.9.62.27.25.47.55.62.9.16.34.24.7.24 1.08zm7.97 10.24c.49-.54 1-1.04 1.54-1.48a9.85 9.85 0 0 1 3.66-1.84 8.96 8.96 0 0 1 5.43.35c.94.4 1.72.97 2.33 1.71a7.36 7.36 0 0 1 1.43 2.67c.32 1.04.49 2.19.49 3.45V93h-3.94V78.81c0-1.69-.4-3-1.17-3.92-.76-.93-1.93-1.4-3.5-1.4a6.6 6.6 0 0 0-3.25.83c-1 .56-1.92 1.31-2.77 2.27V93h-3.94V70.71h2.35c.56 0 .9.28 1.04.82l.3 2.42zm57.7 3.3c0 2.36-.37 4.5-1.11 6.44a14.3 14.3 0 0 1-3.17 4.98 14.1 14.1 0 0 1-4.93 3.2c-1.9.76-4.02 1.13-6.33 1.13H85.8V61.47h11.77c2.31 0 4.42.39 6.33 1.15a13.8 13.8 0 0 1 8.1 8.18 17.75 17.75 0 0 1 1.12 6.45zm-4.37 0c0-1.94-.26-3.67-.8-5.2a10.94 10.94 0 0 0-2.23-3.87 9.57 9.57 0 0 0-3.53-2.42 12.23 12.23 0 0 0-4.61-.83h-7.5v24.62h7.5c1.7 0 3.24-.28 4.61-.84a9.7 9.7 0 0 0 3.53-2.4 10.94 10.94 0 0 0 2.24-3.87c.53-1.53.8-3.26.8-5.2zm19.8 5.72c-1.8.06-3.34.2-4.62.44-1.26.22-2.3.51-3.1.88-.8.36-1.37.8-1.74 1.3-.35.5-.53 1.05-.53 1.67 0 .58.1 1.1.3 1.52a3 3 0 0 0 .76 1.05c.34.27.73.46 1.17.6a6.13 6.13 0 0 0 1.45.17 7.28 7.28 0 0 0 3.5-.81 11.95 11.95 0 0 0 2.82-2.2v-4.62zm-12.65-9.11a12.73 12.73 0 0 1 3.98-2.66c1.43-.59 3-.88 4.73-.88 1.25 0 2.36.2 3.33.61a6.81 6.81 0 0 1 3.94 4.38c.33 1.04.5 2.19.5 3.43V93h-1.74a1.8 1.8 0 0 1-.88-.18c-.2-.13-.36-.38-.48-.74l-.44-2.12-1.72 1.46a9.48 9.48 0 0 1-3.74 1.7c-.69.15-1.46.23-2.3.23-.87 0-1.69-.12-2.45-.35a5.34 5.34 0 0 1-3.34-2.93 6.64 6.64 0 0 1-.49-2.64c0-.88.25-1.72.73-2.53a6.33 6.33 0 0 1 2.35-2.17c1.09-.63 2.5-1.15 4.25-1.54 1.75-.41 3.89-.65 6.42-.7v-1.75c0-1.73-.37-3.03-1.12-3.91-.75-.9-1.84-1.34-3.28-1.34-.97 0-1.78.12-2.44.37-.64.23-1.2.5-1.7.81l-1.23.82c-.33.23-.67.35-1 .35-.27 0-.5-.07-.69-.2a2.1 2.1 0 0 1-.48-.53l-.7-1.25zm27.67 19.5c-1.76 0-3.12-.5-4.07-1.48-.94-.98-1.41-2.4-1.41-4.25V74h-2.68a.9.9 0 0 1-.6-.2c-.16-.14-.24-.36-.24-.66v-1.56l3.65-.46.9-6.89a.9.9 0 0 1 .29-.52.88.88 0 0 1 .62-.22H142v7.67h6.44V74H142v13.38c0 .94.22 1.63.68 2.09.45.45 1.04.68 1.76.68a3.21 3.21 0 0 0 1.85-.53l.55-.35c.16-.12.3-.18.41-.18.2 0 .4.13.55.38l1.15 1.87a7.45 7.45 0 0 1-2.44 1.5 8.53 8.53 0 0 1-2.95.52zm19.68-10.4c-1.8.07-3.34.21-4.62.45-1.26.22-2.3.51-3.1.88-.8.36-1.37.8-1.74 1.3-.35.5-.53 1.05-.53 1.67 0 .58.1 1.1.3 1.52a2.9 2.9 0 0 0 .76 1.05c.34.27.73.46 1.17.6a6.13 6.13 0 0 0 1.45.17 7.3 7.3 0 0 0 3.5-.81 12.04 12.04 0 0 0 2.82-2.2v-4.62zm-12.65-9.1a12.72 12.72 0 0 1 3.99-2.66c1.42-.59 3-.88 4.72-.88 1.25 0 2.36.2 3.33.61a6.81 6.81 0 0 1 3.94 4.38c.33 1.04.5 2.19.5 3.43V93h-1.74a1.8 1.8 0 0 1-.88-.18c-.2-.13-.36-.38-.48-.74l-.44-2.12-1.72 1.46a9.48 9.48 0 0 1-3.74 1.7c-.69.15-1.46.23-2.3.23-.87 0-1.69-.12-2.45-.35a5.33 5.33 0 0 1-3.34-2.93 6.62 6.62 0 0 1-.49-2.64c0-.88.25-1.72.73-2.53a6.33 6.33 0 0 1 2.35-2.17c1.09-.63 2.5-1.15 4.25-1.54a31.2 31.2 0 0 1 6.42-.7v-1.75c0-1.73-.37-3.03-1.12-3.91-.75-.9-1.84-1.34-3.28-1.34-.97 0-1.78.12-2.44.37-.64.23-1.2.5-1.7.81l-1.22.82c-.34.23-.68.35-1.02.35-.26 0-.49-.07-.68-.2a1.88 1.88 0 0 1-.48-.53l-.7-1.25zM40.98 32.25c0 2.36-.38 4.53-1.12 6.51a14.26 14.26 0 0 1-8.1 8.4c-1.9.78-4.02 1.17-6.34 1.17a16.6 16.6 0 0 1-6.33-1.17 14.31 14.31 0 0 1-8.08-8.4 18.29 18.29 0 0 1-1.12-6.51c0-2.36.38-4.53 1.12-6.5.75-1.97 1.8-3.67 3.17-5.1a14.32 14.32 0 0 1 4.9-3.34c1.92-.8 4.03-1.19 6.34-1.19 2.32 0 4.43.4 6.34 1.19 1.92.8 3.56 1.9 4.93 3.34a14.87 14.87 0 0 1 3.17 5.1 18.1 18.1 0 0 1 1.12 6.5zm-4.38 0c0-1.94-.26-3.68-.8-5.22a10.91 10.91 0 0 0-2.24-3.89 9.68 9.68 0 0 0-3.52-2.46 11.95 11.95 0 0 0-4.62-.86c-1.68 0-3.21.28-4.6.86a9.88 9.88 0 0 0-3.54 2.46 10.91 10.91 0 0 0-2.24 3.9c-.53 1.53-.8 3.27-.8 5.2 0 1.94.27 3.68.8 5.22a11.17 11.17 0 0 0 2.24 3.9 10.01 10.01 0 0 0 3.55 2.44c1.38.56 2.9.83 4.6.83s3.24-.27 4.61-.83a9.8 9.8 0 0 0 3.52-2.44 11.17 11.17 0 0 0 2.25-3.9c.53-1.54.8-3.28.8-5.21zm26.22-6.54V48H60.5c-.56 0-.9-.27-1.05-.81l-.31-2.4a12.45 12.45 0 0 1-3.26 2.6c-1.2.64-2.58.96-4.13.96-1.22 0-2.3-.2-3.24-.6a6.52 6.52 0 0 1-2.33-1.7 7.37 7.37 0 0 1-1.43-2.67c-.3-1.04-.46-2.2-.46-3.45V25.7h3.91v14.22c0 1.68.38 2.99 1.15 3.91.77.93 1.96 1.39 3.54 1.39 1.16 0 2.24-.27 3.23-.82a10.42 10.42 0 0 0 2.8-2.28V25.7h3.91zm8.61 4.47a9.94 9.94 0 0 1 2.6-3.56 5.64 5.64 0 0 1 3.76-1.3c.47 0 .92.05 1.34.15.44.1.83.27 1.17.49l-.3 2.92c-.09.37-.3.55-.66.55-.2 0-.5-.04-.9-.13a6.21 6.21 0 0 0-3.24.18 4.23 4.23 0 0 0-1.47.92c-.42.4-.81.9-1.17 1.5-.33.58-.64 1.26-.92 2.02V48H67.7V25.71h2.25c.42 0 .72.08.88.25.16.16.27.44.33.83l.26 3.39zm61.16-13.7L122.75 48h-3.82l-7.99-24.05a21.95 21.95 0 0 1-.42-1.58 38.36 38.36 0 0 1-.44 1.58L102.05 48h-3.83L88.4 16.47h3.54c.38 0 .7.1.95.29.26.2.43.43.5.73l6.52 21.9.28 1.28.29 1.46.3-1.46.38-1.27 7.41-21.91c.1-.25.26-.48.51-.69.27-.22.58-.33.95-.33h1.23c.38 0 .69.1.92.29a1.77 1.77 0 0 1 .53.73l7.4 21.9a28.4 28.4 0 0 1 .68 2.62 29.52 29.52 0 0 1 .52-2.61l6.54-21.91a1.31 1.31 0 0 1 .48-.7c.27-.21.58-.32.95-.32h3.32zm9.35 8.88c1.63 0 3.1.27 4.4.82a9.43 9.43 0 0 1 5.46 5.94c.5 1.4.74 2.98.74 4.73 0 1.76-.25 3.34-.74 4.75a9.43 9.43 0 0 1-5.46 5.92c-1.3.52-2.77.79-4.4.79-1.64 0-3.12-.27-4.44-.8a9.42 9.42 0 0 1-3.35-2.3c-.92-1-1.63-2.2-2.13-3.61-.49-1.41-.73-3-.73-4.75s.24-3.33.73-4.73c.5-1.43 1.2-2.64 2.13-3.63a9.4 9.4 0 0 1 3.35-2.31c1.32-.55 2.8-.82 4.44-.82zm0 19.89c2.2 0 3.84-.73 4.93-2.2 1.08-1.48 1.63-3.54 1.63-6.18 0-2.66-.55-4.72-1.63-6.2-1.09-1.49-2.73-2.23-4.93-2.23-1.12 0-2.09.2-2.93.57a5.71 5.71 0 0 0-2.06 1.65 7.5 7.5 0 0 0-1.24 2.67c-.26 1.04-.4 2.22-.4 3.54 0 2.64.55 4.7 1.64 6.18 1.1 1.47 2.76 2.2 4.99 2.2zm17.97-15.07a9.94 9.94 0 0 1 2.6-3.56 5.64 5.64 0 0 1 3.76-1.3c.47 0 .91.05 1.34.15.44.1.83.27 1.16.49l-.28 2.92c-.09.37-.31.55-.66.55-.2 0-.5-.04-.9-.13a6.2 6.2 0 0 0-3.24.18 4.23 4.23 0 0 0-1.47.92c-.43.4-.82.9-1.17 1.5a13.1 13.1 0 0 0-.92 2.02V48h-3.94V25.71h2.24c.43 0 .72.08.88.25.17.16.28.44.33.83l.27 3.39zm15.04-14.59V48h-3.92V15.6h3.92zm19.55 15.43a6.22 6.22 0 0 0-2.38-2.05 6.7 6.7 0 0 0-2.86-.6c-2.07 0-3.66.75-4.77 2.23-1.12 1.48-1.68 3.6-1.68 6.33 0 1.46.13 2.7.38 3.74a7.29 7.29 0 0 0 1.1 2.56 4.35 4.35 0 0 0 1.78 1.45c.7.3 1.5.46 2.4.46 1.29 0 2.41-.3 3.36-.88a9.6 9.6 0 0 0 2.67-2.49V31.02zm3.91-15.43V48h-2.33c-.56 0-.9-.27-1.06-.81l-.35-2.71a12.13 12.13 0 0 1-3.25 2.77 8.28 8.28 0 0 1-4.23 1.06 7.31 7.31 0 0 1-6.14-2.9c-.73-.96-1.3-2.15-1.69-3.57a18.35 18.35 0 0 1 .07-9.48 11.29 11.29 0 0 1 1.89-3.7 8.7 8.7 0 0 1 7.06-3.34 7.96 7.96 0 0 1 6.12 2.62V15.59h3.91zM46.61 70.71V93H42.7V70.71h3.91zm.84-7c0 .39-.08.75-.24 1.09a2.81 2.81 0 0 1-1.52 1.47 2.67 2.67 0 0 1-2.16 0 2.9 2.9 0 0 1-1.45-1.47 2.67 2.67 0 0 1 0-2.16c.15-.35.35-.65.6-.9.25-.27.53-.47.85-.62a2.67 2.67 0 0 1 2.16 0c.35.15.65.35.9.62.27.25.47.55.62.9.16.34.24.7.24 1.08zm7.97 10.24c.49-.54 1-1.04 1.54-1.48a9.85 9.85 0 0 1 3.66-1.84 8.96 8.96 0 0 1 5.43.35c.94.4 1.72.97 2.33 1.71a7.36 7.36 0 0 1 1.43 2.67c.32 1.04.49 2.19.49 3.45V93h-3.94V78.81c0-1.69-.4-3-1.17-3.92-.76-.93-1.93-1.4-3.5-1.4a6.6 6.6 0 0 0-3.25.83c-1 .56-1.92 1.31-2.77 2.27V93h-3.94V70.71h2.35c.56 0 .9.28 1.04.82l.3 2.42zm57.7 3.3c0 2.36-.37 4.5-1.11 6.44a14.3 14.3 0 0 1-3.17 4.98 14.1 14.1 0 0 1-4.93 3.2c-1.9.76-4.02 1.13-6.33 1.13H85.8V61.47h11.77c2.31 0 4.42.39 6.33 1.15a13.8 13.8 0 0 1 8.1 8.18 17.75 17.75 0 0 1 1.12 6.45zm-4.37 0c0-1.94-.26-3.67-.8-5.2a10.94 10.94 0 0 0-2.23-3.87 9.57 9.57 0 0 0-3.53-2.42 12.23 12.23 0 0 0-4.61-.83h-7.5v24.62h7.5c1.7 0 3.24-.28 4.61-.84a9.7 9.7 0 0 0 3.53-2.4 10.94 10.94 0 0 0 2.24-3.87c.53-1.53.8-3.26.8-5.2zm19.8 5.72c-1.8.06-3.34.2-4.62.44-1.26.22-2.3.51-3.1.88-.8.36-1.37.8-1.74 1.3-.35.5-.53 1.05-.53 1.67 0 .58.1 1.1.3 1.52a3 3 0 0 0 .76 1.05c.34.27.73.46 1.17.6a6.13 6.13 0 0 0 1.45.17 7.28 7.28 0 0 0 3.5-.81 11.95 11.95 0 0 0 2.82-2.2v-4.62zm-12.65-9.11a12.73 12.73 0 0 1 3.98-2.66c1.43-.59 3-.88 4.73-.88 1.25 0 2.36.2 3.33.61a6.81 6.81 0 0 1 3.94 4.38c.33 1.04.5 2.19.5 3.43V93h-1.74a1.8 1.8 0 0 1-.88-.18c-.2-.13-.36-.38-.48-.74l-.44-2.12-1.72 1.46a9.48 9.48 0 0 1-3.74 1.7c-.69.15-1.46.23-2.3.23-.87 0-1.69-.12-2.45-.35a5.34 5.34 0 0 1-3.34-2.93 6.64 6.64 0 0 1-.49-2.64c0-.88.25-1.72.73-2.53a6.33 6.33 0 0 1 2.35-2.17c1.09-.63 2.5-1.15 4.25-1.54 1.75-.41 3.89-.65 6.42-.7v-1.75c0-1.73-.37-3.03-1.12-3.91-.75-.9-1.84-1.34-3.28-1.34-.97 0-1.78.12-2.44.37-.64.23-1.2.5-1.7.81l-1.23.82c-.33.23-.67.35-1 .35-.27 0-.5-.07-.69-.2a2.1 2.1 0 0 1-.48-.53l-.7-1.25zm27.67 19.5c-1.76 0-3.12-.5-4.07-1.48-.94-.98-1.41-2.4-1.41-4.25V74h-2.68a.9.9 0 0 1-.6-.2c-.16-.14-.24-.36-.24-.66v-1.56l3.65-.46.9-6.89a.9.9 0 0 1 .29-.52.88.88 0 0 1 .62-.22H142v7.67h6.44V74H142v13.38c0 .94.22 1.63.68 2.09.45.45 1.04.68 1.76.68a3.21 3.21 0 0 0 1.85-.53l.55-.35c.16-.12.3-.18.41-.18.2 0 .4.13.55.38l1.15 1.87a7.45 7.45 0 0 1-2.44 1.5 8.53 8.53 0 0 1-2.95.52zm19.68-10.4c-1.8.07-3.34.21-4.62.45-1.26.22-2.3.51-3.1.88-.8.36-1.37.8-1.74 1.3-.35.5-.53 1.05-.53 1.67 0 .58.1 1.1.3 1.52a2.9 2.9 0 0 0 .76 1.05c.34.27.73.46 1.17.6a6.13 6.13 0 0 0 1.45.17 7.3 7.3 0 0 0 3.5-.81 12.04 12.04 0 0 0 2.82-2.2v-4.62zm-12.65-9.1a12.72 12.72 0 0 1 3.99-2.66c1.42-.59 3-.88 4.72-.88 1.25 0 2.36.2 3.33.61a6.81 6.81 0 0 1 3.94 4.38c.33 1.04.5 2.19.5 3.43V93h-1.74a1.8 1.8 0 0 1-.88-.18c-.2-.13-.36-.38-.48-.74l-.44-2.12-1.72 1.46a9.48 9.48 0 0 1-3.74 1.7c-.69.15-1.46.23-2.3.23-.87 0-1.69-.12-2.45-.35a5.33 5.33 0 0 1-3.34-2.93 6.62 6.62 0 0 1-.49-2.64c0-.88.25-1.72.73-2.53a6.33 6.33 0 0 1 2.35-2.17c1.09-.63 2.5-1.15 4.25-1.54a31.2 31.2 0 0 1 6.42-.7v-1.75c0-1.73-.37-3.03-1.12-3.91-.75-.9-1.84-1.34-3.28-1.34-.97 0-1.78.12-2.44.37-.64.23-1.2.5-1.7.81l-1.22.82c-.34.23-.68.35-1.02.35-.26 0-.49-.07-.68-.2a1.88 1.88 0 0 1-.48-.53l-.7-1.25z" fill="#fff"/><path fill="#D42B21" d="M0 106.79h210V120H0z"/></g><defs><clipPath id="a"><path fill="#fff" d="M0 0h210v120H0z"/></clipPath></defs></svg></g><a href="https://ourworldindata.org/grapher/GDP-vs-services-employment" style="font-family:&quot;Playfair Display&quot;,Georgia,&quot;Times New Roman&quot;,serif" target="_blank" rel="noopener"><text font-size="25.2" x="15" y="35.2" fill="#555"><tspan x="15" y="35.16">GDP per head vs share of services in employment, 1801 to 2015</tspan></text></a><text font-size="14.4" x="15" y="55.7" fill="#666"><tspan x="15" y="55.72">The vertical axis shows historical estimates of the employment share in the service sector. The horizontal axis</tspan><tspan x="15" y="73">shows GDP per head after adjusting for inflation and price differences across countries (figures are in 2011</tspan><tspan x="15" y="90.28">international-$).</tspan></text></g><g class="ScatterPlot"><g class="DualAxisView"><g class="HorizontalAxis"><text font-size="12.6" x="323.3" y="516.6"><tspan x="323.33" y="516.58">GDP per capita</tspan></text><text x="145.2" y="496.5" fill="#666" text-anchor="middle" font-size="16.2">$1,000</text><text x="465.3" y="496.5" fill="#666" text-anchor="middle" font-size="16.2">$10,000</text><text x="75.16" y="496.5" fill="#666" text-anchor="start" font-size="16.2">$604</text><text x="241.6" y="496.5" fill="#666" text-anchor="middle" font-size="16.2">$2,000</text><text x="368.9" y="496.5" fill="#666" text-anchor="middle" font-size="16.2">$5,000</text><text x="561.6" y="496.5" fill="#666" text-anchor="middle" font-size="16.2">$20,000</text><text x="718.09" y="496.5" fill="#666" text-anchor="end" font-size="16.2">$50,000</text></g><g class="VerticalAxis"><text font-size="12.6" x="-405.1" y="25.1" transform="rotate(-90)"><tspan x="-405.12" y="25.08">Share of services in employment</tspan></text><text x="70.16" y="475.3" dy=".32em" text-anchor="end" fill="#666" font-size="16.2">0%</text><text x="70.16" y="392" dy=".32em" text-anchor="end" fill="#666" font-size="16.2">20%</text><text x="70.16" y="308.6" dy=".32em" text-anchor="end" fill="#666" font-size="16.2">40%</text><text x="70.16" y="225.3" dy=".32em" text-anchor="end" fill="#666" font-size="16.2">60%</text><text x="70.16" y="142" dy=".32em" text-anchor="end" fill="#666" font-size="16.2">80%</text></g><g class="AxisGridLines horizontalLines"><path stroke="#999" d="M75.16 475.3h642.93"/><path stroke="#ddd" stroke-dasharray="3,2" d="M75.16 392h642.93M75.16 308.6h642.93M75.16 225.3h642.93M75.16 142h642.93"/></g><g class="AxisGridLines verticalLines" stroke-dasharray="3,2"><path stroke="#eee" d="M95.7 475.3V107.8M114.2 475.3V107.8M130.6 475.3V107.8"/><path stroke="#ddd" d="M145.2 475.3V107.8M241.6 475.3V107.8"/><path stroke="#eee" d="M297.9 475.3V107.8M337.9 475.3V107.8"/><path stroke="#ddd" d="M368.9 475.3V107.8"/><path stroke="#eee" d="M394.3 475.3V107.8M415.7 475.3V107.8M434.2 475.3V107.8M450.6 475.3V107.8"/><path stroke="#ddd" d="M465.3 475.3V107.8M561.6 475.3V107.8"/><path stroke="#eee" d="M617.9 475.3V107.8M657.9 475.3V107.8"/><path stroke="#ddd" d="M688.9 475.3V107.8"/><path stroke="#eee" d="M714.3 475.3V107.8"/></g></g><g class="PointsWithLabels clickable" clip-path="url(#b)"><path fill="rgba(255,255,255,0)" d="M75.16 107.8h642.93v367.5H75.16z"/><defs><clipPath id="b"><path d="M65.16 97.8h662.93v387.5H65.16z"/></clipPath></defs><g class="key-China"><circle cx="151" cy="437" r="1.7" fill="#2D8587" opacity=".7"/><path stroke-width="2" opacity=".7" stroke="#2D8587" fill="none" stroke-linecap="butt" d="M151 437h14l-14 3h9l9-2 1-4-3-25-7-9-8-6-26 28 8 11h42l1 1h-9l9 2 14 1h5l-1-1 7 1 1-1 7-1-7-1 6-5 13-6 9-2 5-2 2-2 12 1 6-4 13-7 10-3 6-2 9-3 6-2h-3l3-2 8-4 11-6 9-8 9-7 8-5 3-2v-1l5-1 8-2 7-1 10-4 7-3 10-6 13-3 13-3 11-1 5-4 9-3 14-2 8-5"/><path cx="468" cy="324" r="3.5" fill="#2D8587" opacity=".7" d="m463.18 322.89 7.79-.74-4.08 6.67z"/></g><g class="key-India"><circle cx="170" cy="406" r="1.6" fill="#2D8587" opacity=".7"/><path stroke-width="1.89" opacity=".7" stroke="#2D8587" fill="none" stroke-linecap="butt" d="m170 406 1 1v-2l4-1 7-1-9 2h-1l8 1h6l4-1h-2l-4 1 4 1-2-1 8-1-1 1h8l4-1h-11l7-1h5l1-2h8l3-2 2-3 3-2 3-2 11-1 6-3h4l-2-1h4l4-1 5-4 6-2 7 1 2-2 5-1 5-3h3l4-1 1-4 8-2 8 1 8 2h9l9-4 6-2 8-2 8 2"/><path cx="355" cy="366" r="3.39" fill="#2D8587" opacity=".7" d="m352.53 361.89 5.76 4.93-7.4 1.65z"/></g><g class="key-United-States"><circle cx="312" cy="382" r="1.3" fill="#E04E4B" opacity=".7"/><path stroke-width=".97" opacity=".7" stroke="#E04E4B" fill="none" stroke-linecap="butt" d="m312 382 12-9 27-11 12 25 37-8 8-30 26-6 26-28 7-13 23-38-16-5-10-2-24-3-5 2 10-1h15l12-4 10 2-10-10 8 1 10 1 17 5 13 2 11-10 8-10-5-10-15 18-4 8 4 3-5-7 9 1 8-4 3-3 4 1-3-5h7v-5l-4-7 8 1 1-3 1-3h6l4-2 6-2 6 1 8-2 2-3 5-1 3-1-2-5 3-3h5l7 2-2-2-2-9 6 2h14l-1-4 2-1-4-7 4-2h9l4-3 3-3 4-2 4-1 4-2 1-3-2-2 3-3h5l2-1 4-1h4l5-1 5-2 4-1v-9l1-3 2-2h4l4-1h2l1-2-2-2-5-6 2-2h10"/><path cx="696" cy="126" r="2.47" fill="#E04E4B" opacity=".7" d="m693.53 123.53 4.94 2.47-4.94 2.47z"/></g><g class="key-Indonesia"><circle cx="218" cy="397" r="1.3" fill="#2D8587" opacity=".7"/><path stroke-width=".85" opacity=".7" stroke="#2D8587" fill="none" stroke-linecap="butt" d="m218 397 19-23 12-5 16 2 4-2-3-8h8l7-6 3-2 4-1 9-5 6-3-8-2h2l7 2 5-3 5-2 5-2 9-1 10 1 10 11 7 8 9-12 8-5 10-10 8-7 5-11-21 1v-3l5 5 3-2 5 5 5 6 6-11 7 5 6-11 7-5 9-3 6-3 7-4 8-5 6-1"/><path cx="454" cy="285" r="2.35" fill="#2D8587" opacity=".7" d="m451.3 283.07 5.02 1.54-4.25 3.1z"/></g><g class="key-Brazil"><circle cx="257" cy="391" r="1.3" fill="#932834" opacity=".7"/><path stroke-width=".76" opacity=".7" stroke="#932834" fill="none" stroke-linecap="butt" d="m257 391 2-2 6-2 2-2 7-2 8-2-1-2 7-2 10-3 8-2 9-2 7-2 5-3-3-2v-2l-1-3 5-2 2-2 9-3 9-2 10-3 11-11 12-10 15 1 7-4 4-4 10-5 3 1 3-10 6-4 9 9-9-15-3-4-7-14 5 7 7 11 8-16 2-6-3-4 1-3-8-4 1-3-2-2 7-2 7-3 5-4 3-5 4-2v-4l1 2 5-7 2-6 4-1 2-1 7 3 5 1 5-7 9-3 7 1v-4l11-3 6-4"/><path cx="520" cy="207" r="2.26" fill="#932834" opacity=".7" d="m516.87 206.37 5.01-.62-2.5 4.38z"/></g><g class="key-Nigeria"><circle cx="182" cy="406" r="1.3" fill="#923E8B" opacity=".7"/><path stroke-width=".69" opacity=".7" stroke="#923E8B" fill="none" stroke-linecap="butt" d="m182 406 1-2 3-2 9-8 2-9 5-5-9-2-28 10-5-4 29-9 33-13 12-1 1 1 7-1 11-4-8-15 10-10 1-13-13-1 5-4-1-15-16-17-6-11-12-11-9-3 8 7-1 7-5 5 10 4 5 6 3 6-1 6 3 4 2 4v6l2 5 6 6 4 4 3 3 1 2 7 8 9 5h18l12 6 14-13h9l8-1 10-2h9l11 1h15l6 7"/><path cx="372" cy="343" r="2.19" fill="#923E8B" opacity=".7" d="m372.24 339.91 1.19 4.75-4.52-1.9z"/></g><g class="key-Japan"><circle cx="208" cy="432" r="1.3" fill="#2D8587" opacity=".7"/><path stroke-width=".61" opacity=".7" stroke="#2D8587" fill="none" stroke-linecap="butt" d="m208 432 13-3 10-10 18-12 13-13 34-20 16-16 53 3-65-7 35-25 6-5 10-3 9-4 8-1 7-4 11-4 16-1 14-3 11-2 10-7 14-5 6-4 13-4 13-1 15-3 15-2 13-4 4-5 9-3 9-2-3-3 2-6 4-2 5-3 6-2 6-3 3-1 3-3 3-3 2-2 5-1 5-1 3-1 5-3 8 1 6 1 6-1 4-1 1-1v-4l1-3 3-3 4-3 1-2-2-4-1-3 4-2v-8l1-2 3-4 2-2h2l2-1-1-4-8-4 6-3v-2l2-1"/><path cx="641" cy="172" r="2.11" fill="#2D8587" opacity=".7" d="M638.17 171.06h4.72l-2.83 3.77z"/></g><g class="key-Mexico"><circle cx="319" cy="368" r="1.3" fill="#E04E4B" opacity=".7"/><path stroke-width=".58" opacity=".7" stroke="#E04E4B" fill="none" stroke-linecap="butt" d="m319 368 7-3 1-4h-4 9l8-1 5-5 6-1 3-1v-3l7-1h2l2-2 7-3 11-2h5l5-3 4-2 6-2 5-2 5-2v-3l7-5 7-1 3-7 4-4 2-7 1 1 8-3 10-7 9-2 8-3-4-6-8-3 2-2v1l-8-3h-1l3-2 5-3 4-6 3-4 2-3 4-4-10-7 6 2 8-1h6l5-2 8-3v-8h2l5-2 4-1 6-2 4-4 1 2-7-3h6l5-2"/><path cx="523" cy="224" r="2.08" fill="#E04E4B" opacity=".7" d="m520.3 222.84 4.63.39-3.09 3.47z"/></g><g class="key-Philippines"><circle cx="292" cy="329" r="1.3" fill="#2D8587" opacity=".7"/><path stroke-width=".53" opacity=".7" stroke="#2D8587" fill="none" stroke-linecap="butt" d="m292 329 3 13 8 1 1 1 4-3 8 2 4-9h7l3-1 1-5 1-1v1l-14-6-14-5 1 1 2-4 6-3 5-3 1-3-3 4-1 1 1-1 4-3 4-3 6-6 5-5-3-7 3-3 4-3h2l3-3h5l7-3 4-1 6-3 7-3 4-1 1-5 9-3 3 1 7-1"/><path cx="397" cy="257" r="2.03" fill="#2D8587" opacity=".7" d="m394.7 255.28 4.31 1.43-3.73 2.59z"/></g><g class="key-Ethiopia"><circle cx="100" cy="465" r="1.3" fill="#923E8B" opacity=".7"/><path stroke-width=".51" opacity=".7" stroke="#923E8B" fill="none" stroke-linecap="butt" d="m100 465 2-1 15-1 4-1 5-1 2-2h3l-1-3 3-2 4-1 3-1 4-3 1-1-1-1-3-2v-1h1-4l7-2 4-4-3-1-4-1 3-1h-6l-12 2h15-2l-1 1-7 2-16 2H97l-2-5 6-2 3-1 7-3 5-1-5 2-4-2 2-2 2 1 2 1-6 1h2l10-3 8-4 9-4 7-5 8-4 8-3 11-2"/><path cx="170" cy="406" r="2.01" fill="#923E8B" opacity=".7" d="m167.66 404.38 4.32 1.26-3.6 2.7z"/></g><g class="key-Egypt"><circle cx="208" cy="337" r="1.3" fill="#923E8B" opacity=".7"/><path stroke-width=".5" opacity=".7" stroke="#923E8B" fill="none" stroke-linecap="butt" d="m208 337 6-1 6 1 5 1 6-1 5-1-2 10-5 1v2l6-1 6-4 3-1 1-13h13l17-5 14-2 6-2 6-1 10-2v4l10-3 6-2 4-3 4-2v-10l2-2 1-5v-2l6-1 5-1h12l7-1 8-7 8-1h7l8-3 8-2 7-2 4-3 4-4 6-2 6-1 8-3 10-3h9l6-2 7-2 1-2v-1"/><path cx="475" cy="252" r="2" fill="#923E8B" opacity=".7" d="m473 254 2-4 2 4z"/></g><g class="key-United-Kingdom"><circle cx="313" cy="342" r="1.3" fill="#4C5C78" opacity=".7"/><path stroke-width=".5" opacity=".7" stroke="#4C5C78" fill="none" stroke-linecap="butt" d="m313 342 21-21 19 15 16 5 20-14 8-10 14-12 14-10 7-4-16 1-5-10 12 3 3 2 5 1 6-3-6-3h11l1-2 4-1-2-7-8-6v-3l4 1 8 3h5l5 2h5l1-2 10-5 4 1v1h3v-2l5 1 5 1h5l2-1-1-1h15v-3l4-2h9l2-2 2-3 5-3h2l3-3 2-4 5-4 8-1-2-1v-7l3-2 3-1 5-2 4-2-3-4-2-6 3-5 4-4 4-3 4-2 6-3 6-1 6-2h2l1-3-3-5v-6l3-3 5-1 3-1 3-1 4-1 4-1 4-4 4-4 3-3 3-3 4-3 2-2 3-2 3-2h2l-2-3-7-3 1 2 1 2"/><path cx="639" cy="145" r="2" fill="#4C5C78" opacity=".7" d="M639.9 142.32v4.47l-3.58-2.68z"/></g><g class="key-Netherlands"><circle cx="333" cy="347" r="1.3" fill="#4C5C78" opacity=".7"/><path stroke-width=".5" opacity=".7" stroke="#4C5C78" fill="none" stroke-linecap="butt" d="m333 347-6 8-2 2 53-15 2-6 10-9 20-22 39-18-14-3 21-23 47-9h-1l7-2h3l10-1 5-4 2-5 5-3 8-5 7-2 6-4 4-3 3-2 5-3 4-3-1-3 5-2 3-3 3-2 2-4v-4l-2-4-2-4 2-4 4-2 4-1 3-2 1-1 2-2 6-1 4-1 4-2 2-3 1-3 4-3 5-2 5-3 6-1 6-2 6-2h6l3-2v-4l3-2 4-2 5-1 6-1h2l-5-1 2-2 3-1"/><path cx="673" cy="138" r="2" fill="#4C5C78" opacity=".7" d="m670.47 136.74 4.43.63-3.16 3.16z"/></g><g class="key-Belgium"><circle cx="283" cy="417" r="1.3" fill="#4C5C78" opacity=".7"/><path stroke-width=".5" opacity=".7" stroke="#4C5C78" fill="none" stroke-linecap="butt" d="m283 417 34-3 20-3 28-27 16-19 12-2 11 4-3-2 32-15-5-18 57-19 53-65 4-3 7-4 8-2 5-2-2-5 7-5 1-5 4-5 3-5 6-4-2-6 2-4v-4l3-2 2-2 2-3 3-3 6-3h4l4-1 2-1 2-2-2-4 4-2 4-2 2-2 5-3 2-1 5-2 5-2h1l2-3v-3l5-2 2-1 3-1 4-2"/><path cx="651" cy="147" r="2" fill="#4C5C78" opacity=".7" d="M648.32 146.1h4.47l-2.68 3.58z"/></g><g class="key-Sweden"><circle cx="220" cy="411" r="1.3" fill="#4C5C78" opacity=".7"/><path stroke-width=".5" opacity=".7" stroke="#4C5C78" fill="none" stroke-linecap="butt" d="m220 411-3 1h-3l2 1 1-1 9 2h-2 4l2-1 4 1h3l-6-1-4-2 6 1 2-2 3 3-2-1h2l-14-3h10l17 3 5-1h2l2 1h5l-5-1 8-2-3-1-5-2 7-1-3-1 5-1-5-1h10l-3-2 2 1h2l-4-2h4l3-1 7-1-2-1 4-1v-1l7 1 4-2 5 1h8l1-1 3-1-2-3 7-1 3-1-2-1 10 1 9-2-4-2 1-2 2-1 4-1h5l8-1 3 1 5-5h7l-8-1-11-6 2-2 8-2-7 3 10-6 4-3 9 4 3 2 7-5 4-3h4l8-4 6-2-3-3-6-3 2-2 9 3 6 2h5l3-2 4-1 10-1-11-10-4-1 1-2 4-4 4 2 3 3 13-2 11-2 1-3 5-1 8-2 4-2 1-1 3-2 5-2 3-1 4-2 5-1v-2l4-2 6-1 7-4 5-4 6-4 9-4 3-4 2-5 4-5 4-5 6-5 7-5v-10l3-3h5l4-2 3-4 1-3-3-5 2-3 5-2 2-3v-3l1-4 3-3 5-2 3-1 2-2 4-1 2-1 3-3v-3l-2-4-2-5-3-2 4-2 5 3 3-1h10l6-2 7-1 2-1 3-2 3-2 6-3h5l6-1h5l-1 2-7-5 8-1"/><path cx="666" cy="174" r="2" fill="#4C5C78" opacity=".7" d="m663.77 172.26 4.21 1.5-3.72 2.47z"/></g><g class="key-France"><circle cx="282" cy="386" r="1.3" fill="#4C5C78" opacity=".7"/><path stroke-width=".5" opacity=".7" stroke="#4C5C78" fill="none" stroke-linecap="butt" d="m282 386 19-6 20-19 26 3 7-11 6 5 13 9-7-13h45l-1-9v-11l-13-2 60-16 43-16 33-8 15-28 5-2 5-4 6-3 3-3-1-5 5-5 4-4 4-4 4-4 1-2v-5l3-4 1-4 1-6 2-3 2-3 3-4 6-4 4-2 3-2v-3l2-4-1-5 2-4 3-1 1-3 3-2 4-2 5-3 4-1 3-1 1-2v-1l3-2 2-1 2-1 3-1"/><path cx="646" cy="154" r="2" fill="#4C5C78" opacity=".7" d="m643.47 152.74 4.43.63-3.16 3.16z"/></g><g class="key-Spain"><circle cx="236" cy="419" r="1.3" fill="#4C5C78" opacity=".7"/><path stroke-width=".5" opacity=".7" stroke="#4C5C78" fill="none" stroke-linecap="butt" d="m236 419 42-16-13 11 17-15 7 5 19-8-3-22 12-3 97-22 44-48 5-2 12-3 11-2 9-3 2-3 5-3 3-3 2-5 1-4 4-6-1-8 1-5 2-3 1-5 3-4 5-5 9-3 9-2 8-3 7-2 5-5 2-6-1-5 4-4 5-1 5 1h33l3-1 3-2 3-2 4-1 4-4 4-1"/><path cx="630" cy="196" r="2" fill="#4C5C78" opacity=".7" d="m627.57 194.54 4.37.97-3.4 2.92z"/></g><g class="key-Finland"><circle cx="230" cy="395" r="1.3" fill="#4C5C78" opacity=".7"/><path stroke-width=".5" opacity=".7" stroke="#4C5C78" fill="none" stroke-linecap="butt" d="m230 395 51 9 18 33-4-11 51-11 26-16 39-30 53-31 60-57 2-4 10-2 8-2 3-4 1-5-1-5v-5l3-5h16l1-3 4-3 3-3 3-3 4-4 3-4 5-5 7-3 7-4-1-2-9-5-5-5-2-3 5-1 5-1 5-2h8l7-1h6l7-1 4-3 2-4 2-2 5-3h15"/><path cx="657" cy="184" r="2" fill="#4C5C78" opacity=".7" d="m655 182 4 2-4 2z"/></g><g class="key-Argentina"><circle cx="433" cy="297" r="1.3" fill="#932834" opacity=".7"/><path stroke-width=".5" opacity=".7" stroke="#932834" fill="none" stroke-linecap="butt" d="m433 297 2 3-10-9 5 6 3-1 7 1 1-4 5 1 5 2-11-8 8 2 7-5-4-5-6-1 12 2 10-2-1-6 2-2 3-4 10 2 5-1 4-2 2-2 6-3 6-3-3-7-3 1 6-3-9-2 7-5v6l-10-10-7-19 3 2v4l-11-5 7 3 2-1-5-4-11-3-2-4 13-4 12-1 7-8 7-4-5 1 7-4 10-3 4-7-6-6-2-4h-7l-17-7 11 4 11 4 11 1h10l12 1 4-1-9-4 13 1 7 1"/><path cx="561" cy="171" r="2" fill="#932834" opacity=".7" d="m559.3 168.74 3.68 2.54-4.24 1.42z"/></g><g class="key-Bolivia"><circle cx="298" cy="415" r="1.3" fill="#932834" opacity=".7"/><path stroke-width=".5" opacity=".7" stroke="#932834" fill="none" stroke-linecap="butt" d="m298 415 9-1 1-4-17-1v-2l4 7-11-5-8-8v3l-3 5 2-7 4-5 6 1 3 2 4 8 6-2 5-6 8-5 3-11 4-2 1-3 4-5 6-4 3-6 6-7 7-7 2-4 1-6-3-5-4-3-1-6-9-4-9-5-1-4-3-15-7-5h1l2 4 1 1 4 5 4 14v4l2-12h4l4-5 3-5 4-1 4-7-2-8 1-1v-13l1 4 1-16h3l4 8 4-6 4-2 6-9 3-4 3-11"/><path cx="372" cy="233" r="2" fill="#932834" opacity=".7" d="m369.54 234.4 2.99-3.33.87 4.39z"/></g><g class="key-Chile"><circle cx="391" cy="308" r="1.3" fill="#932834" opacity=".7"/><path stroke-width=".5" opacity=".7" stroke="#932834" fill="none" stroke-linecap="butt" d="m391 308 3-3 6-1 7-12-8 19 2-1-1-5 10-16 4 3-11 12 8-3 3-4 3-2 5-4-1 7-2 5 12-2 2-3 2-4 2-5 10-3-4-7-11 4-1 13-21-7 3-5 11-8 9-3 9-2 9-10 6-2-23-19-6-13 6 5v14l5 1 7 5 7 5 12-1 3-7 7-3 12-6 7-4 4-7 11-6 7-3 6-3 2-4-4-14 3-4 2 4 1-1 2-1 6-1 6-4 6 2 4-2 3-1-5-4 5-5 6 2"/><path cx="559" cy="184" r="2" fill="#932834" opacity=".7" d="m557.74 181.47 3.16 3.16-4.43.63z"/></g><g class="key-Colombia"><circle cx="316" cy="361" r="1.3" fill="#932834" opacity=".7"/><path stroke-width=".5" opacity=".7" stroke="#932834" fill="none" stroke-linecap="butt" d="M316 361v-6h4l4-6 5-2 1-1 1-2v1l-1 3 5-1 2-6 2-3 3-4v-3l4-4 1-3 3-3 2-1 4-3 5-3 6-7 4-3 7-4 6-3 4-4v-6l4 1 3-6h9l4-5h3v-1l-2 1-1 4 2 1 1-1 6-3h4l3-3 1-1 3-7 1-8 3 5 5-4 4 8 5-14 1 7 2-20h-1l-8-6h2l1-6 1-2 4 2 5-5 5 13 7-2 8-11 3-3 1 3 3-3"/><path cx="480" cy="221" r="2" fill="#932834" opacity=".7" d="m477.17 221 4.24-1.41-1.41 4.24z"/></g><g class="key-Costa-Rica"><circle cx="303" cy="359" r="1.3" fill="#E04E4B" opacity=".7"/><path stroke-width=".5" opacity=".7" stroke="#E04E4B" fill="none" stroke-linecap="butt" d="m303 359-1 5 12 1 15-12-4 1 10-11-10-6 7 10 11-7-1-1 6 1h1l3 1 6-2 2-3 8-4 6-4 4-1 6-1 4-4 5-6 5-4 8-3 7-5 3-3h-1l4-1 8-6 3-2 2-3-1-2-7-3-14 4v-5l7 9-3-8 3 1 3 8v-3l5-3h1v-3l8-7 6-9 2-5 1-6-2-5 4-3 6-4 2-4 2-5 2-11 2-4 3-5 4-4h3l8-5 8-3 4-10-3-9 5 9 3-3"/><path cx="494" cy="191" r="2" fill="#E04E4B" opacity=".7" d="m491.17 191 4.24-1.41-1.41 4.24z"/></g><g class="key-Denmark"><circle cx="479" cy="302" r="1.3" fill="#4C5C78" opacity=".7"/><path stroke-width=".5" opacity=".7" stroke="#4C5C78" fill="none" stroke-linecap="butt" d="M479 302v-6l7-2h1l1-4v-1h10l2-4 9 4h3l8-3 6-2v-4l11-1 5-5 3-2 3-3 5-4 8-6 2-5 2-8 7-4 4-3-2-5-1-10 8-2 2-3 1-3 5-3-1-5-1-6 4-4 4-1 6 2h10v-2l2-4v-3l2-2 2-2 3-2v-2l8-3 4 1 4-2 5-2 3-2 5-3 5-2 1-1 1-3 1-2 5-3 3-1h6l1-1h-1l-6-5 2-3 2-2"/><path cx="669" cy="148" r="2" fill="#4C5C78" opacity=".7" d="m666.17 148 4.24-1.41-1.41 4.24z"/></g><g class="key-Germany"><circle cx="398" cy="239" r="1.3" fill="#4C5C78" opacity=".7"/><path stroke-width=".5" opacity=".7" stroke="#4C5C78" fill="none" stroke-linecap="butt" d="m398 239 11 6 11 2 11 5 9 1 14 5 9-1 7-3 5-1 8 1 10 3h9l3-3 7 3 6 1 3-2v-6l7 2 8 2 5 1 3-5 5-3h6l1-5-1-7 8 1 4-1 4-4h5l1-2 1-5-1-2 3-1h4l3-1 3-3 2-5h4l4 2-6-2 8-4"/><path cx="602" cy="208" r="2" fill="#4C5C78" opacity=".7" d="M599.32 207.1h4.47l-2.68 3.58z"/></g><g class="key-Venezuela"><circle cx="442" cy="325" r="1.3" fill="#932834" opacity=".7"/><path stroke-width=".5" opacity=".7" stroke="#932834" fill="none" stroke-linecap="butt" d="m442 325 9 4 4-3 3-9 7-10 7-3 8-2 9-9-3-3 5-4v-4l2-1 7-1 4-3 8-3 3-3-2-3 1-1 3-3 1-3 6-3-1-1-1-3 4-2 4-10 3-9 7-3 4-2-2 2-2-3-8-2h-4l-3-1-12-1-5-2h-4l5-1 1-5 5-1-16-4 5 4 10 4 6-2-2-6-5 2 3-3-2-4 6-1-1-3-11-8 3-1 3-6-14-4h-13l22 2 12-1 11 5 10 1 5-2h-6l-2-2 6-4"/><path cx="545" cy="181" r="2" fill="#932834" opacity=".7" d="m542.23 180.45 4.43-.56-2.21 3.88z"/></g><g class="key-Italy"><circle cx="393" cy="362" r="1.3" fill="#4C5C78" opacity=".7"/><path stroke-width=".5" opacity=".7" stroke="#4C5C78" fill="none" stroke-linecap="butt" d="m393 362 9-3 9-2 6-3 7-4 5-4 8-4 6-3 7-2 7-3 10-3 10-3 8-4 4-5 2-2 7-4 8-2 11-4 6-3 3-4 1-1 3-6 8-4 5-2-3-4 8-4 3-3 5-2 7-2 5-2v-5l1-6 1-5 4-10 3-6 4-4 4-4 6-3 4-3 3-2 3-3 2-3-1-3 4-1 5-2 3-3 3-1 3-2 4-2 6-3 3-1 1-1 1-2 2-1h5l2-1-1-2-8-3 3-2 2-1"/><path cx="640" cy="185" r="2" fill="#4C5C78" opacity=".7" d="M637.32 184.1h4.47l-2.68 3.58z"/></g><g class="key-South-Korea"><circle cx="193" cy="427" r="1.3" fill="#2D8587" opacity=".7"/><path stroke-width=".5" opacity=".7" stroke="#2D8587" fill="none" stroke-linecap="butt" d="m193 427 27-63 9-5 6-5 12-3 9-1 14-4 16-3 10-6 11-7 7 10 17 5 10 1 8-2 15 6 14-7 12-6 10-8-5-12 8-4 9-9 15-4 12-4 9-9 13-1 15 2 15-1 8-5 11-5 12-5 6-6 6-10 10-6 11-5 8-6 5-6-9-9 12-5h10l4-6 9-3 2-1 5-4 4-3 5-3 6-4h2-1l7 1"/><path cx="624" cy="196" r="2" fill="#2D8587" opacity=".7" d="m622.3 193.74 3.68 2.54-4.24 1.42z"/></g><g class="key-Ghana"><circle cx="254" cy="378" r="1.3" fill="#923E8B" opacity=".7"/><path stroke-width=".5" opacity=".7" stroke="#923E8B" fill="none" stroke-linecap="butt" d="m254 378 1-2 3-1 1-5-1 2-2-3h-8l1-6 10-3 6-4-8 1-1-2 6-4-22 4-8 8 1-6 9-2-6 4-6 5-2-3-13 5-15 1 4-2 2-4 2-2 3-6 3-3 3-2 1-2 4 5h2l2 1h2l3-1 4-1 4-2 3-1h4l2-1 3-5 3-4 4-3 4-5 5-7 5-5 3-5 9-7 4-4 7-7 15-2"/><path cx="310" cy="292" r="2" fill="#923E8B" opacity=".7" d="m307.75 290.28 4.23 1.46-3.7 2.5z"/></g><g class="key-Morocco"><circle cx="249" cy="378" r="1.3" fill="#923E8B" opacity=".7"/><path stroke-width=".5" opacity=".7" stroke="#923E8B" fill="none" stroke-linecap="butt" d="m249 378 1-11 2 10 1-3 1 2 2-2 4 2 4-4 4-2 4-2 4-3 4-1h1l2-2 4-2 7-1 11-5 4-4 2-4 3-3 10-6-7-1 11-5-5-1 2-3h5l7-3-7-2h10v-2h2l7-3h-8l12-2-10 2 14-1-4 1 8-3-1-2 1-1 9-4h9l5-4 3-2 9-4 3-2 7-4 4-5 4-2 6-5 2-5"/><path cx="422" cy="274" r="2" fill="#923E8B" opacity=".7" d="m419.4 275.11 3.34-2.97.37 4.46z"/></g><g class="key-Peru"><circle cx="361" cy="357" r="1.3" fill="#932834" opacity=".7"/><path stroke-width=".5" opacity=".7" stroke="#932834" fill="none" stroke-linecap="butt" d="m361 357 8-3 6-9 2-4 5-3 5-2 8-2 1-2h-5l6-2 2 8 1-6 3-1 3 3 7-8-2-7-3-1-4-7 4-12h3l3-3-3-4-24-7 4-3-1-1 10-4 9-4-15-4-21-5-10-4v-3l-3 1 4 8 14-2 8-4 2-4 6-6-2-6 1-7 2 4-1-3 6 2 4 1h6l7-2h9l10-9 11-2 1-2 10-2 7-1"/><path cx="465" cy="223" r="2" fill="#932834" opacity=".7" d="m462.74 221.3 4.24 1.42-3.68 2.54z"/></g><g class="key-South-Africa"><circle cx="364" cy="354" r="1.3" fill="#923E8B" opacity=".7"/><path stroke-width=".5" opacity=".7" stroke="#923E8B" fill="none" stroke-linecap="butt" d="m364 354 2-4 4-4 6-3 6-2 4-3 2-4 6-3 2-6 4-3 4-3 3-2-1-2 2 1 4-1-1-6v-2l-3-5v-5l2-1h5l3 2-5-1-7-3 3-1-7-1-3-2v-5l2-6v-5l-5-5-1-7-3-5 1-3 5-1 5-2 7-7 4-4 2-6 4-5 6-1 5-6 6 12 4-13 7-2 8-8 9 4 8-5 5 2-2-2 6-1 6 5"/><path cx="488" cy="214" r="2" fill="#923E8B" opacity=".7" d="m487.74 211.18 1.8 4.1-4.36-1.02z"/></g><g class="key-Tanzania"><circle cx="101" cy="446" r="1.3" fill="#923E8B" opacity=".7"/><path stroke-width=".5" opacity=".7" stroke="#923E8B" fill="none" stroke-linecap="butt" d="m101 446-5-9 8 4 4 3 3 3 1 1 13 1 1 1h3l-2 1 4-2 1-1 5-1v-2l-1-2 3-2 5-2v-1l-2-2-3-2h-14l-4-2 3-1 1-2v-2l1 1 3-1h6l7-1 5-2 5-1 6-2 6-2 8-3 9-4 8-4 9-4 8-5 6-5 11-4 7-3 7-4 9-4 10-3"/><path cx="256" cy="376" r="2" fill="#923E8B" opacity=".7" d="m253.51 374.66 4.4.77-3.25 3.06z"/></g><g class="key-Thailand"><circle cx="220" cy="418" r="1.3" fill="#2D8587" opacity=".7"/><path stroke-width=".5" opacity=".7" stroke="#2D8587" fill="none" stroke-linecap="butt" d="m220 418 3-1h6l7-1 4-1h7l11-1h7l6-1 7-1h5l2-3 2-3 10-3 3-3 3-2 9-3 10-2 11 2 4-6 3-2 5-2 5-11 5 6 5 6 5-4 5-5 11-6 15 7 14 2 13-2 8-10 10 3 9-10 8-1 8-10 5-3-6-4-14-4 4-9 5 4 2-7 7 5 7-5 7-8h9l6-1 1-2-3-10 9-4v2"/><path cx="505" cy="304" r="2" fill="#2D8587" opacity=".7" d="m507 302-2 4-2-4z"/></g><g class="key-Mauritius"><circle cx="372" cy="323" r="1.3" fill="#923E8B" opacity=".7"/><path stroke-width=".5" opacity=".7" stroke="#923E8B" fill="none" stroke-linecap="butt" d="m372 323-13-32 4-9 9 10 14 5 9 8-1 2 26 3 7-1 3-5 2-1-17-6 5-4 6-7-1-6 5 13 8 6 12 17 13-9 7-8 6 5h8l2-2 4-3 3-4 1-3 3-6 3-6 3-5 5-2-1-4 7-3 1-3-2-10 5-7 2-13-1-6 3-3 4 2 4-6v-6l2-4 2-2"/><path cx="534" cy="208" r="2" fill="#923E8B" opacity=".7" d="m531.17 208 4.24-1.41-1.41 4.24z"/></g><g class="key-Taiwan"><circle cx="270" cy="338" r="1.3" fill="#2D8587" opacity=".7"/><path stroke-width=".5" opacity=".7" stroke="#2D8587" fill="none" stroke-linecap="butt" d="m270 338 12-1 10-3 8-5 11-2 7-5 9-2 12-4 14 1 14-1 15-2-1 4 4 1h14l11-5h15l8-5 7-5 6-3 3-5 9-2h12l5-3 14-2 20-1 4-8 10-4 6-5 9-2 9-4 8-6 8-1 7-3 7-4h6l4-2 8-4 7-3-3-4 6-3 5-3 7-1h7l6-1h8v-1l-3-4h13l4 2 3-1"/><path cx="655" cy="226" r="2" fill="#2D8587" opacity=".7" d="m652.47 224.74 4.43.63-3.16 3.16z"/></g><g class="key-Botswana"><circle cx="75" cy="439" r="1.3" fill="#923E8B" opacity=".7"/><path stroke-width=".5" opacity=".7" stroke="#923E8B" fill="none" stroke-linecap="butt" d="m75 439 2-4 11-6h11l11-5 11-1 10-4 29-10 28-14 21-4 6-5 5-9 7-8 6-6 8-6 12-2 10-3 11-9 6-5h10l13-3 8-6 5-4 7-8 12-2 35 2 6-3 9-4 2-5 2-4 4-3 8-4 7-1 10 6h1l13-1 3-5v-9l9-2 7-3 4 2 7-4 12-3 11-2 10-7h-11l12-2"/><path cx="496" cy="263" r="2" fill="#923E8B" opacity=".7" d="m493.7 261.36 4.27 1.31-3.61 2.63z"/></g><g class="key-Zambia"><circle cx="229" cy="373" r="1.3" fill="#923E8B" opacity=".7"/><path stroke-width=".5" opacity=".7" stroke="#923E8B" fill="none" stroke-linecap="butt" d="m229 373-12 1 7-7-2-2-5 11 2-11-4-9 8 8-5 2 7 5-10 2 4 1-11 5-3 2-8 1 3-3-9 2-8 7-5 3-2 2-4 3-2 3 5 2-3 3 8 1-1-1 3-2 1-3h-20 5l9-6 5-2v-3l7-6 5-3 8 3 6 5 10 3 11 4 10-1 11-1h12l10-2h13l14-1"/><path cx="299" cy="389" r="2" fill="#923E8B" opacity=".7" d="m296.86 387.15 4.13 1.7-3.84 2.29z"/></g><g class="key-Malawi"><circle cx="91" cy="434" r="1.3" fill="#923E8B" opacity=".7"/><path stroke-width=".5" opacity=".7" stroke="#923E8B" fill="none" stroke-linecap="butt" d="m91 434 9 2-5 3h5l-2 3 15-4 9 4 8-3 4-1 1 1h1l3 3 8-1 2 1-4 3-11 1-3 1 1-2 2-2 6-2-4-1-5-1h-5l-2-1v-1l6-4-16-1h11l-13-2 19-1 10-2 5-5-3 1v-2h-3l-10-3-2-4h3l3-10-1-7 2 2 7-7 5-11 6-7 4-6"/><path cx="157" cy="368" r="2" fill="#923E8B" opacity=".7" d="m154.23 368.55 3.88-2.21-.56 4.43z"/></g><g class="key-Kenya"><circle cx="192" cy="413" r="1.3" fill="#923E8B" opacity=".7"/><path stroke-width=".5" opacity=".7" stroke="#923E8B" fill="none" stroke-linecap="butt" d="m192 413 5 3 4-3 2 1 2 1 2-6h-6v-1l7-1 7 2-1-3 2-4h-2 3l-5-4-2-1v-3l5-2 3-2h4l1-4 2-3v-2l-4-2-3-3 3-6 5-7 4-6v-4l3-3 3-3-1-2 4-1-1-1 3-1 5-3h6l6-1 7-3-1-2 3-4 9-2 7-3"/><path cx="283" cy="324" r="2" fill="#923E8B" opacity=".7" d="m280.37 322.95 4.47.26-2.89 3.42z"/></g><g class="key-Senegal"><circle cx="260" cy="393" r="1.3" fill="#923E8B" opacity=".7"/><path stroke-width=".5" opacity=".7" stroke="#923E8B" fill="none" stroke-linecap="butt" d="m260 393-5-5 5-1-12 2 1 5 7-6 9-1-8 3-10-6 5-1-9-3-6-2 15-3h-1l-11-1h1l2-2 1-3 3-2-7-3h1l-1-1-3-1-3 2h-4l3-2-1-1v-3l3-4 5-5v-3l2-1-4-2 5-4 3-3 3-3-1-2 2-2h1l-1 1h1"/><path cx="251" cy="330" r="2" fill="#923E8B" opacity=".7" d="m249 328 4 2-4 2z"/></g><g class="key-Singapore"><circle cx="408" cy="193" r="1.3" fill="#2D8587" opacity=".7"/><path stroke-width=".5" opacity=".7" stroke="#2D8587" fill="none" stroke-linecap="butt" d="m408 193 13 7 15 13 13-6 6 12 4-13 8 3h8l10 6h11l12 2 7 6 3-3 10-3 9 3-2-6 2-1 12 1h11l9 2 10-3 5-4 7-5 12-6 12-6 7-9 8 2 8 6-5 4 7 5h10l-4-7 4-7 4-3 11-1 8 1 10 1 11 3v2l-2-4 19-4 7-2"/><path cx="718" cy="179" r="2" fill="#2D8587" opacity=".7" d="m715.53 177.63 4.4.82-3.3 3.02z"/></g><g class="key-Hong-Kong"><circle cx="487" cy="272" r="1.3" fill="#2D8587" opacity=".7"/><path stroke-width=".5" opacity=".7" stroke="#2D8587" fill="none" stroke-linecap="butt" d="m487 272-3 8 17 1 10-7 7-7 11-7 10-8 10 19 2-4 6-4 11-5-1-23 12-4 15-2 9-9 2-9 3-10 5-7 5-9 5-13 4-7-1-4 2-5 4-5-11-7 2-5 7-3v-3l1-4 2-5 10-5 8-2 7-2 7-2 1-2-5-2 7-2h4"/><path cx="672" cy="107" r="2" fill="#2D8587" opacity=".7" d="m670 105 4 2-4 2z"/></g><g class="key-Malaysia"><circle cx="345" cy="315" r="1.3" fill="#2D8587" opacity=".7"/><path stroke-width=".5" opacity=".7" stroke="#2D8587" fill="none" stroke-linecap="butt" d="m345 315 13-5 8 2h8l8-2 8-19 6-7 5-6 5-4h7l-5-2-2-4 4 1h17l10-5 10 1 9 1 11-1h9l11 1 11 1 7-1-13-2 5-1 9 2-1-6 5-7 5-3 7-7 5-1 6 1 7-7 5-1-3-8 9 3 6-7"/><path cx="557" cy="222" r="2" fill="#2D8587" opacity=".7" d="m554.18 222.22 4.12-1.74-1.08 4.34z"/></g><g class="backgroundLabels" fill="#333" font-weight="400"><text x="472.24" y="321.35" font-size="14.3" fill="#2D8587" style="fill:#fff;stroke:#fff;stroke-linecap:round;stroke-linejoin:round;stroke-width:.25em">China</text><text x="472.24" y="321.35" font-size="14.3" fill="#2D8587">China</text><text x="359.85" y="374.28" font-size="14.12" fill="#2D8587" style="fill:#fff;stroke:#fff;stroke-linecap:round;stroke-linejoin:round;stroke-width:.25em">India</text><text x="359.85" y="374.28" font-size="14.12" fill="#2D8587">India</text><text x="625.06" y="126" font-size="12.59" fill="#E04E4B" style="fill:#fff;stroke:#fff;stroke-linecap:round;stroke-linejoin:round;stroke-width:.25em">United States</text><text x="625.06" y="126" font-size="12.59" fill="#E04E4B">United States</text><text x="458.93" y="284.18" font-size="12.4" fill="#2D8587" style="fill:#fff;stroke:#fff;stroke-linecap:round;stroke-linejoin:round;stroke-width:.25em">Indonesia</text><text x="458.93" y="284.18" font-size="12.4" fill="#2D8587">Indonesia</text><text x="524.16" y="204.23" font-size="12.25" fill="#932834" style="fill:#fff;stroke:#fff;stroke-linecap:round;stroke-linejoin:round;stroke-width:.25em">Brazil</text><text x="524.16" y="204.23" font-size="12.25" fill="#932834">Brazil</text><text x="375.25" y="352.86" font-size="12.13" fill="#923E8B" style="fill:#fff;stroke:#fff;stroke-linecap:round;stroke-linejoin:round;stroke-width:.25em">Nigeria</text><text x="375.25" y="352.86" font-size="12.13" fill="#923E8B">Nigeria</text><text x="645.47" y="169.76" font-size="12.01" fill="#2D8587" style="fill:#fff;stroke:#fff;stroke-linecap:round;stroke-linejoin:round;stroke-width:.25em">Japan</text><text x="645.47" y="169.76" font-size="12.01" fill="#2D8587">Japan</text><text x="401.95" y="256.29" font-size="11.88" fill="#2D8587" style="fill:#fff;stroke:#fff;stroke-linecap:round;stroke-linejoin:round;stroke-width:.25em">Philippines</text><text x="401.95" y="256.29" font-size="11.88" fill="#2D8587">Philippines</text><text x="174.92" y="405.11" font-size="11.84" fill="#923E8B" style="fill:#fff;stroke:#fff;stroke-linecap:round;stroke-linejoin:round;stroke-width:.25em">Ethiopia</text><text x="174.92" y="405.11" font-size="11.84" fill="#923E8B">Ethiopia</text><text x="475" y="247" font-size="11.83" fill="#923E8B" style="fill:#fff;stroke:#fff;stroke-linecap:round;stroke-linejoin:round;stroke-width:.25em">Egypt</text><text x="475" y="247" font-size="11.83" fill="#923E8B">Egypt</text><text x="655.47" y="144.76" font-size="11.29" fill="#4C5C78" style="fill:#fff;stroke:#fff;stroke-linecap:round;stroke-linejoin:round;stroke-width:.25em">Belgium</text><text x="655.47" y="144.76" font-size="11.29" fill="#4C5C78">Belgium</text><text x="565.95" y="177.49" font-size="11.57" fill="#932834" style="fill:#fff;stroke:#fff;stroke-linecap:round;stroke-linejoin:round;stroke-width:.25em">Argentina</text><text x="565.95" y="177.49" font-size="11.57" fill="#932834">Argentina</text><text x="373.32" y="228.18" font-size="11.28" fill="#932834" style="fill:#fff;stroke:#fff;stroke-linecap:round;stroke-linejoin:round;stroke-width:.25em">Bolivia</text><text x="373.32" y="228.18" font-size="11.28" fill="#932834">Bolivia</text><text x="606.47" y="205.76" font-size="11.79" fill="#4C5C78" style="fill:#fff;stroke:#fff;stroke-linecap:round;stroke-linejoin:round;stroke-width:.25em">Germany</text><text x="606.47" y="205.76" font-size="11.79" fill="#4C5C78">Germany</text><text x="314.96" y="291.34" font-size="11.45" fill="#923E8B" style="fill:#fff;stroke:#fff;stroke-linecap:round;stroke-linejoin:round;stroke-width:.25em">Ghana</text><text x="314.96" y="291.34" font-size="11.45" fill="#923E8B">Ghana</text><text x="491.84" y="223.02" font-size="11.64" fill="#923E8B" style="fill:#fff;stroke:#fff;stroke-linecap:round;stroke-linejoin:round;stroke-width:.25em">South Africa</text><text x="491.84" y="223.02" font-size="11.64" fill="#923E8B">South Africa</text><text x="260.79" y="374.56" font-size="11.6" fill="#923E8B" style="fill:#fff;stroke:#fff;stroke-linecap:round;stroke-linejoin:round;stroke-width:.25em">Tanzania</text><text x="260.79" y="374.56" font-size="11.6" fill="#923E8B">Tanzania</text><text x="659.74" y="224.42" font-size="11.43" fill="#2D8587" style="fill:#fff;stroke:#fff;stroke-linecap:round;stroke-linejoin:round;stroke-width:.25em">Taiwan</text><text x="659.74" y="224.42" font-size="11.43" fill="#2D8587">Taiwan</text><text x="159.77" y="363.84" font-size="11.34" fill="#923E8B" style="fill:#fff;stroke:#fff;stroke-linecap:round;stroke-linejoin:round;stroke-width:.25em">Malawi</text><text x="159.77" y="363.84" font-size="11.34" fill="#923E8B">Malawi</text><text x="287.6" y="322.03" font-size="11.58" fill="#923E8B" style="fill:#fff;stroke:#fff;stroke-linecap:round;stroke-linejoin:round;stroke-width:.25em">Kenya</text><text x="287.6" y="322.03" font-size="11.58" fill="#923E8B">Kenya</text></g></g><g class="ScatterColorLegend clickable" style="cursor:pointer"><g class="legendMark"><path fill="#923E8B" d="M738.09 109.6h9v9h-9z"/><text font-size="12.6" x="752.1" y="117.9"><tspan x="752.09" y="117.88">Africa</tspan></text></g><g class="legendMark"><path fill="#2D8587" d="M738.09 127.2h9v9h-9z"/><text font-size="12.6" x="752.1" y="135.5"><tspan x="752.09" y="135.48">Asia</tspan></text></g><g class="legendMark"><path fill="#4C5C78" d="M738.09 144.8h9v9h-9z"/><text font-size="12.6" x="752.1" y="153.1"><tspan x="752.09" y="153.08">Europe</tspan></text></g><g class="legendMark"><path fill="#E04E4B" d="M738.09 162.4h9v9h-9z"/><text font-size="12.6" x="752.1" y="170.7"><tspan x="752.09" y="170.68">North America</tspan></text></g><g class="legendMark"><path fill="#932834" d="M738.09 180h9v9h-9z"/><text font-size="12.6" x="752.1" y="188.3"><tspan x="752.09" y="188.28">South America</tspan></text></g></g><path stroke="#ccc" d="M738.09 196.8H830"/><g class="clickable"><g class="ConnectedScatterLegend"><text font-size="12.6" x="738.1" y="213.9" fill="#333"><tspan x="738.09" y="213.88">1801</tspan></text><text font-size="12.6" x="806.8" y="213.9" fill="#333"><tspan x="806.78" y="213.88">2015</tspan></text><path stroke="#666" stroke-width="1" d="M771.32 209.6h30.46"/><circle cx="771.32" cy="209.6" r="2" fill="#666" stroke="#ccc" stroke-width=".2"/><circle cx="781.47" cy="209.6" r="2" fill="#666" stroke="#ccc" stroke-width=".2"/><circle cx="791.62" cy="209.6" r="2" fill="#666" stroke="#ccc" stroke-width=".2"/><path cx="801.78" cy="209.6" r="3" fill="#666" stroke="#ccc" stroke-width=".2" d="m798.78 206.6 6 3-6 3z"/></g></g></g><g class="SourcesFooter" style="fill:#777"><g style="fill:#777"><text font-size="12.6" x="15" y="554.2"><tspan x="15" y="554.18">Source: Our World In Data based on Herrendorf et al. (2014) and GGDC-10 (2015), Maddison Project Database 2020 (Bolt and van Zanden,</tspan><tspan x="15" y="568.04">2020)</tspan></text></g><text font-size="12.6" x="15" y="582.5"><tspan x="15" y="582.48"><a style="fill:#777" class="cclogo" href="http://creativecommons.org/licenses/by/4.0/deed.en_US" target="_blank">CC BY</a></tspan></text></g></svg>