<svg xmlns="http://www.w3.org/2000/svg" version="1.1" style="background-color:#fff;-webkit-font-smoothing:antialiased" width="850" height="600" viewBox="0 0 850 600" font-family="Lato,'Helvetica Neue',Helvetica,Arial,sans-serif" font-size="18" text-rendering="optimizeLegibility"><g class="HeaderView"><g transform="matrix(.29 0 0 .29 774 15)"><svg className="owidLog" width="210" height="120" viewBox="0 0 210 120" fill="none" xmlns="http://www.w3.org/2000/svg"><g clip-path="url(#clip0)"><path d="M0 0h210v107.89H0V0z" fill="#002147"/><path d="M40.98 32.25c0 2.36-.38 4.53-1.12 6.51a14.26 14.26 0 01-8.1 8.4c-1.9.78-4.02 1.17-6.34 1.17a16.6 16.6 0 01-6.33-1.17 14.31 14.31 0 01-8.08-8.4 18.29 18.29 0 01-1.12-6.51c0-2.36.38-4.53 1.12-6.5.75-1.97 1.8-3.67 3.17-5.1a14.32 14.32 0 014.9-3.34c1.92-.8 4.03-1.19 6.34-1.19 2.32 0 4.43.4 6.34 1.19 1.92.8 3.56 1.9 4.93 3.34a14.87 14.87 0 013.17 5.1 18.1 18.1 0 011.12 6.5zm-4.38 0c0-1.94-.26-3.68-.8-5.22a10.91 10.91 0 00-2.24-3.89 9.68 9.68 0 00-3.52-2.46 11.95 11.95 0 00-4.62-.86c-1.68 0-3.21.28-4.6.86a9.88 9.88 0 00-3.54 2.46 10.91 10.91 0 00-2.24 3.9c-.53 1.53-.8 3.27-.8 5.2 0 1.94.27 3.68.8 5.22a11.17 11.17 0 002.24 3.9 10.01 10.01 0 003.55 2.44c1.38.56 2.9.83 4.6.83s3.24-.27 4.61-.83a9.8 9.8 0 003.52-2.44 11.17 11.17 0 002.25-3.9c.53-1.54.8-3.28.8-5.21zm26.22-6.54V48H60.5c-.56 0-.9-.27-1.05-.81l-.31-2.4a12.45 12.45 0 01-3.26 2.6c-1.2.64-2.58.96-4.13.96-1.22 0-2.3-.2-3.24-.6a6.52 6.52 0 01-2.33-1.7 7.37 7.37 0 01-1.43-2.67c-.3-1.04-.46-2.2-.46-3.45V25.7h3.91v14.22c0 1.68.38 2.99 1.15 3.91.77.93 1.96 1.39 3.54 1.39 1.16 0 2.24-.27 3.23-.82a10.42 10.42 0 002.8-2.28V25.7h3.91zm8.61 4.47a9.94 9.94 0 012.6-3.56 5.64 5.64 0 013.76-1.3c.47 0 .92.05 1.34.15.44.1.83.27 1.17.49l-.3 2.92c-.09.37-.3.55-.66.55-.2 0-.5-.04-.9-.13a6.21 6.21 0 00-3.24.18 4.23 4.23 0 00-1.47.92c-.42.4-.81.9-1.17 1.5-.33.58-.64 1.26-.92 2.02V48H67.7V25.71h2.25c.42 0 .72.08.88.25.16.16.27.44.33.83l.26 3.39zm61.16-13.7L122.75 48h-3.82l-7.99-24.05a21.95 21.95 0 01-.42-1.58 38.36 38.36 0 01-.44 1.58L102.05 48h-3.83L88.4 16.47h3.54c.38 0 .7.1.95.29.26.2.43.43.5.73l6.52 21.9.28 1.28.29 1.46.3-1.46.38-1.27 7.41-21.91c.1-.25.26-.48.51-.69.27-.22.58-.33.95-.33h1.23c.38 0 .69.1.92.29a1.77 1.77 0 01.53.73l7.4 21.9a28.4 28.4 0 01.68 2.62 29.52 29.52 0 01.52-2.61l6.54-21.91a1.31 1.31 0 01.48-.7c.27-.21.58-.32.95-.32h3.32zm9.35 8.88c1.63 0 3.1.27 4.4.82a9.43 9.43 0 015.46 5.94c.5 1.4.74 2.98.74 4.73 0 1.76-.25 3.34-.74 4.75a9.43 9.43 0 01-5.46 5.92c-1.3.52-2.77.79-4.4.79-1.64 0-3.12-.27-4.44-.8a9.42 9.42 0 01-3.35-2.3c-.92-1-1.63-2.2-2.13-3.61-.49-1.41-.73-3-.73-4.75s.24-3.33.73-4.73c.5-1.43 1.2-2.64 2.13-3.63a9.4 9.4 0 013.35-2.31c1.32-.55 2.8-.82 4.44-.82zm0 19.89c2.2 0 3.84-.73 4.93-2.2 1.08-1.48 1.63-3.54 1.63-6.18 0-2.66-.55-4.72-1.63-6.2-1.09-1.49-2.73-2.23-4.93-2.23-1.12 0-2.09.2-2.93.57a5.71 5.71 0 00-2.06 1.65 7.5 7.5 0 00-1.24 2.67c-.26 1.04-.4 2.22-.4 3.54 0 2.64.55 4.7 1.64 6.18 1.1 1.47 2.76 2.2 4.99 2.2zm17.97-15.07a9.94 9.94 0 012.6-3.56 5.64 5.64 0 013.76-1.3c.47 0 .91.05 1.34.15.44.1.83.27 1.16.49l-.28 2.92c-.09.37-.31.55-.66.55-.2 0-.5-.04-.9-.13a6.2 6.2 0 00-3.24.18 4.23 4.23 0 00-1.47.92c-.43.4-.82.9-1.17 1.5a13.1 13.1 0 00-.92 2.02V48h-3.94V25.71h2.24c.43 0 .72.08.88.25.17.16.28.44.33.83l.27 3.39zm15.04-14.59V48h-3.92V15.6h3.92zm19.55 15.43a6.22 6.22 0 00-2.38-2.05 6.7 6.7 0 00-2.86-.6c-2.07 0-3.66.75-4.77 2.23-1.12 1.48-1.68 3.6-1.68 6.33 0 1.46.13 2.7.38 3.74a7.29 7.29 0 001.1 2.56 4.35 4.35 0 001.78 1.45c.7.3 1.5.46 2.4.46 1.29 0 2.41-.3 3.36-.88a9.6 9.6 0 002.67-2.49V31.02zm3.91-15.43V48h-2.33c-.56 0-.9-.27-1.06-.81l-.35-2.71a12.13 12.13 0 01-3.25 2.77 8.28 8.28 0 01-4.23 1.06 7.31 7.31 0 01-6.14-2.9c-.73-.96-1.3-2.15-1.69-3.57a18.35 18.35 0 01.07-9.48 11.29 11.29 0 011.89-3.7 8.7 8.7 0 017.06-3.34 7.96 7.96 0 016.12 2.62V15.59h3.91zM46.61 70.71V93H42.7V70.71h3.91zm.84-7c0 .39-.08.75-.24 1.09a2.81 2.81 0 01-1.52 1.47 2.67 2.67 0 01-2.16 0 2.9 2.9 0 01-1.45-1.47 2.67 2.67 0 010-2.16c.15-.35.35-.65.6-.9.25-.27.53-.47.85-.62a2.67 2.67 0 012.16 0c.35.15.65.35.9.62.27.25.47.55.62.9.16.34.24.7.24 1.08zm7.97 10.24c.49-.54 1-1.04 1.54-1.48a9.85 9.85 0 013.66-1.84 8.96 8.96 0 015.43.35c.94.4 1.72.97 2.33 1.71a7.36 7.36 0 011.43 2.67c.32 1.04.49 2.19.49 3.45V93h-3.94V78.81c0-1.69-.4-3-1.17-3.92-.76-.93-1.93-1.4-3.5-1.4a6.6 6.6 0 00-3.25.83c-1 .56-1.92 1.31-2.77 2.27V93h-3.94V70.71h2.35c.56 0 .9.28 1.04.82l.3 2.42zm57.7 3.3c0 2.36-.37 4.5-1.11 6.44a14.3 14.3 0 01-3.17 4.98 14.1 14.1 0 01-4.93 3.2c-1.9.76-4.02 1.13-6.33 1.13H85.8V61.47h11.77c2.31 0 4.42.39 6.33 1.15a13.8 13.8 0 018.1 8.18 17.75 17.75 0 011.12 6.45zm-4.37 0c0-1.94-.26-3.67-.8-5.2a10.94 10.94 0 00-2.23-3.87 9.57 9.57 0 00-3.53-2.42 12.23 12.23 0 00-4.61-.83h-7.5v24.62h7.5c1.7 0 3.24-.28 4.61-.84a9.7 9.7 0 003.53-2.4 10.94 10.94 0 002.24-3.87c.53-1.53.8-3.26.8-5.2zm19.8 5.72c-1.8.06-3.34.2-4.62.44-1.26.22-2.3.51-3.1.88-.8.36-1.37.8-1.74 1.3-.35.5-.53 1.05-.53 1.67 0 .58.1 1.1.3 1.52a3 3 0 00.76 1.05c.34.27.73.46 1.17.6a6.13 6.13 0 001.45.17 7.28 7.28 0 003.5-.81 11.95 11.95 0 002.82-2.2v-4.62zm-12.65-9.11a12.73 12.73 0 013.98-2.66c1.43-.59 3-.88 4.73-.88 1.25 0 2.36.2 3.33.61a6.81 6.81 0 013.94 4.38c.33 1.04.5 2.19.5 3.43V93h-1.74a1.8 1.8 0 01-.88-.18c-.2-.13-.36-.38-.48-.74l-.44-2.12-1.72 1.46a9.48 9.48 0 01-3.74 1.7c-.69.15-1.46.23-2.3.23-.87 0-1.69-.12-2.45-.35a5.34 5.34 0 01-3.34-2.93 6.64 6.64 0 01-.49-2.64c0-.88.25-1.72.73-2.53a6.33 6.33 0 012.35-2.17c1.09-.63 2.5-1.15 4.25-1.54 1.75-.41 3.89-.65 6.42-.7v-1.75c0-1.73-.37-3.03-1.12-3.91-.75-.9-1.84-1.34-3.28-1.34-.97 0-1.78.12-2.44.37-.64.23-1.2.5-1.7.81l-1.23.82c-.33.23-.67.35-1 .35-.27 0-.5-.07-.69-.2a2.1 2.1 0 01-.48-.53l-.7-1.25zm27.67 19.5c-1.76 0-3.12-.5-4.07-1.48-.94-.98-1.41-2.4-1.41-4.25V74h-2.68a.9.9 0 01-.6-.2c-.16-.14-.24-.36-.24-.66v-1.56l3.65-.46.9-6.89a.9.9 0 01.29-.52.88.88 0 01.62-.22H142v7.67h6.44V74H142v13.38c0 .94.22 1.63.68 2.09.45.45 1.04.68 1.76.68a3.21 3.21 0 001.85-.53l.55-.35c.16-.12.3-.18.41-.18.2 0 .4.13.55.38l1.15 1.87a7.45 7.45 0 01-2.44 1.5 8.53 8.53 0 01-2.95.52zm19.68-10.4c-1.8.07-3.34.21-4.62.45-1.26.22-2.3.51-3.1.88-.8.36-1.37.8-1.74 1.3-.35.5-.53 1.05-.53 1.67 0 .58.1 1.1.3 1.52a2.9 2.9 0 00.76 1.05c.34.27.73.46 1.17.6a6.13 6.13 0 001.45.17 7.3 7.3 0 003.5-.81 12.04 12.04 0 002.82-2.2v-4.62zm-12.65-9.1a12.72 12.72 0 013.99-2.66c1.42-.59 3-.88 4.72-.88 1.25 0 2.36.2 3.33.61a6.81 6.81 0 013.94 4.38c.33 1.04.5 2.19.5 3.43V93h-1.74a1.8 1.8 0 01-.88-.18c-.2-.13-.36-.38-.48-.74l-.44-2.12-1.72 1.46a9.48 9.48 0 01-3.74 1.7c-.69.15-1.46.23-2.3.23-.87 0-1.69-.12-2.45-.35a5.33 5.33 0 01-3.34-2.93 6.62 6.62 0 01-.49-2.64c0-.88.25-1.72.73-2.53a6.33 6.33 0 012.35-2.17c1.09-.63 2.5-1.15 4.25-1.54a31.2 31.2 0 016.42-.7v-1.75c0-1.73-.37-3.03-1.12-3.91-.75-.9-1.84-1.34-3.28-1.34-.97 0-1.78.12-2.44.37-.64.23-1.2.5-1.7.81l-1.22.82c-.34.23-.68.35-1.02.35-.26 0-.49-.07-.68-.2a1.88 1.88 0 01-.48-.53l-.7-1.25zM40.98 32.25c0 2.36-.38 4.53-1.12 6.51a14.26 14.26 0 01-8.1 8.4c-1.9.78-4.02 1.17-6.34 1.17a16.6 16.6 0 01-6.33-1.17 14.31 14.31 0 01-8.08-8.4 18.29 18.29 0 01-1.12-6.51c0-2.36.38-4.53 1.12-6.5.75-1.97 1.8-3.67 3.17-5.1a14.32 14.32 0 014.9-3.34c1.92-.8 4.03-1.19 6.34-1.19 2.32 0 4.43.4 6.34 1.19 1.92.8 3.56 1.9 4.93 3.34a14.87 14.87 0 013.17 5.1 18.1 18.1 0 011.12 6.5zm-4.38 0c0-1.94-.26-3.68-.8-5.22a10.91 10.91 0 00-2.24-3.89 9.68 9.68 0 00-3.52-2.46 11.95 11.95 0 00-4.62-.86c-1.68 0-3.21.28-4.6.86a9.88 9.88 0 00-3.54 2.46 10.91 10.91 0 00-2.24 3.9c-.53 1.53-.8 3.27-.8 5.2 0 1.94.27 3.68.8 5.22a11.17 11.17 0 002.24 3.9 10.01 10.01 0 003.55 2.44c1.38.56 2.9.83 4.6.83s3.24-.27 4.61-.83a9.8 9.8 0 003.52-2.44 11.17 11.17 0 002.25-3.9c.53-1.54.8-3.28.8-5.21zm26.22-6.54V48H60.5c-.56 0-.9-.27-1.05-.81l-.31-2.4a12.45 12.45 0 01-3.26 2.6c-1.2.64-2.58.96-4.13.96-1.22 0-2.3-.2-3.24-.6a6.52 6.52 0 01-2.33-1.7 7.37 7.37 0 01-1.43-2.67c-.3-1.04-.46-2.2-.46-3.45V25.7h3.91v14.22c0 1.68.38 2.99 1.15 3.91.77.93 1.96 1.39 3.54 1.39 1.16 0 2.24-.27 3.23-.82a10.42 10.42 0 002.8-2.28V25.7h3.91zm8.61 4.47a9.94 9.94 0 012.6-3.56 5.64 5.64 0 013.76-1.3c.47 0 .92.05 1.34.15.44.1.83.27 1.17.49l-.3 2.92c-.09.37-.3.55-.66.55-.2 0-.5-.04-.9-.13a6.21 6.21 0 00-3.24.18 4.23 4.23 0 00-1.47.92c-.42.4-.81.9-1.17 1.5-.33.58-.64 1.26-.92 2.02V48H67.7V25.71h2.25c.42 0 .72.08.88.25.16.16.27.44.33.83l.26 3.39zm61.16-13.7L122.75 48h-3.82l-7.99-24.05a21.95 21.95 0 01-.42-1.58 38.36 38.36 0 01-.44 1.58L102.05 48h-3.83L88.4 16.47h3.54c.38 0 .7.1.95.29.26.2.43.43.5.73l6.52 21.9.28 1.28.29 1.46.3-1.46.38-1.27 7.41-21.91c.1-.25.26-.48.51-.69.27-.22.58-.33.95-.33h1.23c.38 0 .69.1.92.29a1.77 1.77 0 01.53.73l7.4 21.9a28.4 28.4 0 01.68 2.62 29.52 29.52 0 01.52-2.61l6.54-21.91a1.31 1.31 0 01.48-.7c.27-.21.58-.32.95-.32h3.32zm9.35 8.88c1.63 0 3.1.27 4.4.82a9.43 9.43 0 015.46 5.94c.5 1.4.74 2.98.74 4.73 0 1.76-.25 3.34-.74 4.75a9.43 9.43 0 01-5.46 5.92c-1.3.52-2.77.79-4.4.79-1.64 0-3.12-.27-4.44-.8a9.42 9.42 0 01-3.35-2.3c-.92-1-1.63-2.2-2.13-3.61-.49-1.41-.73-3-.73-4.75s.24-3.33.73-4.73c.5-1.43 1.2-2.64 2.13-3.63a9.4 9.4 0 013.35-2.31c1.32-.55 2.8-.82 4.44-.82zm0 19.89c2.2 0 3.84-.73 4.93-2.2 1.08-1.48 1.63-3.54 1.63-6.18 0-2.66-.55-4.72-1.63-6.2-1.09-1.49-2.73-2.23-4.93-2.23-1.12 0-2.09.2-2.93.57a5.71 5.71 0 00-2.06 1.65 7.5 7.5 0 00-1.24 2.67c-.26 1.04-.4 2.22-.4 3.54 0 2.64.55 4.7 1.64 6.18 1.1 1.47 2.76 2.2 4.99 2.2zm17.97-15.07a9.94 9.94 0 012.6-3.56 5.64 5.64 0 013.76-1.3c.47 0 .91.05 1.34.15.44.1.83.27 1.16.49l-.28 2.92c-.09.37-.31.55-.66.55-.2 0-.5-.04-.9-.13a6.2 6.2 0 00-3.24.18 4.23 4.23 0 00-1.47.92c-.43.4-.82.9-1.17 1.5a13.1 13.1 0 00-.92 2.02V48h-3.94V25.71h2.24c.43 0 .72.08.88.25.17.16.28.44.33.83l.27 3.39zm15.04-14.59V48h-3.92V15.6h3.92zm19.55 15.43a6.22 6.22 0 00-2.38-2.05 6.7 6.7 0 00-2.86-.6c-2.07 0-3.66.75-4.77 2.23-1.12 1.48-1.68 3.6-1.68 6.33 0 1.46.13 2.7.38 3.74a7.29 7.29 0 001.1 2.56 4.35 4.35 0 001.78 1.45c.7.3 1.5.46 2.4.46 1.29 0 2.41-.3 3.36-.88a9.6 9.6 0 002.67-2.49V31.02zm3.91-15.43V48h-2.33c-.56 0-.9-.27-1.06-.81l-.35-2.71a12.13 12.13 0 01-3.25 2.77 8.28 8.28 0 01-4.23 1.06 7.31 7.31 0 01-6.14-2.9c-.73-.96-1.3-2.15-1.69-3.57a18.35 18.35 0 01.07-9.48 11.29 11.29 0 011.89-3.7 8.7 8.7 0 017.06-3.34 7.96 7.96 0 016.12 2.62V15.59h3.91zM46.61 70.71V93H42.7V70.71h3.91zm.84-7c0 .39-.08.75-.24 1.09a2.81 2.81 0 01-1.52 1.47 2.67 2.67 0 01-2.16 0 2.9 2.9 0 01-1.45-1.47 2.67 2.67 0 010-2.16c.15-.35.35-.65.6-.9.25-.27.53-.47.85-.62a2.67 2.67 0 012.16 0c.35.15.65.35.9.62.27.25.47.55.62.9.16.34.24.7.24 1.08zm7.97 10.24c.49-.54 1-1.04 1.54-1.48a9.85 9.85 0 013.66-1.84 8.96 8.96 0 015.43.35c.94.4 1.72.97 2.33 1.71a7.36 7.36 0 011.43 2.67c.32 1.04.49 2.19.49 3.45V93h-3.94V78.81c0-1.69-.4-3-1.17-3.92-.76-.93-1.93-1.4-3.5-1.4a6.6 6.6 0 00-3.25.83c-1 .56-1.92 1.31-2.77 2.27V93h-3.94V70.71h2.35c.56 0 .9.28 1.04.82l.3 2.42zm57.7 3.3c0 2.36-.37 4.5-1.11 6.44a14.3 14.3 0 01-3.17 4.98 14.1 14.1 0 01-4.93 3.2c-1.9.76-4.02 1.13-6.33 1.13H85.8V61.47h11.77c2.31 0 4.42.39 6.33 1.15a13.8 13.8 0 018.1 8.18 17.75 17.75 0 011.12 6.45zm-4.37 0c0-1.94-.26-3.67-.8-5.2a10.94 10.94 0 00-2.23-3.87 9.57 9.57 0 00-3.53-2.42 12.23 12.23 0 00-4.61-.83h-7.5v24.62h7.5c1.7 0 3.24-.28 4.61-.84a9.7 9.7 0 003.53-2.4 10.94 10.94 0 002.24-3.87c.53-1.53.8-3.26.8-5.2zm19.8 5.72c-1.8.06-3.34.2-4.62.44-1.26.22-2.3.51-3.1.88-.8.36-1.37.8-1.74 1.3-.35.5-.53 1.05-.53 1.67 0 .58.1 1.1.3 1.52a3 3 0 00.76 1.05c.34.27.73.46 1.17.6a6.13 6.13 0 001.45.17 7.28 7.28 0 003.5-.81 11.95 11.95 0 002.82-2.2v-4.62zm-12.65-9.11a12.73 12.73 0 013.98-2.66c1.43-.59 3-.88 4.73-.88 1.25 0 2.36.2 3.33.61a6.81 6.81 0 013.94 4.38c.33 1.04.5 2.19.5 3.43V93h-1.74a1.8 1.8 0 01-.88-.18c-.2-.13-.36-.38-.48-.74l-.44-2.12-1.72 1.46a9.48 9.48 0 01-3.74 1.7c-.69.15-1.46.23-2.3.23-.87 0-1.69-.12-2.45-.35a5.34 5.34 0 01-3.34-2.93 6.64 6.64 0 01-.49-2.64c0-.88.25-1.72.73-2.53a6.33 6.33 0 012.35-2.17c1.09-.63 2.5-1.15 4.25-1.54 1.75-.41 3.89-.65 6.42-.7v-1.75c0-1.73-.37-3.03-1.12-3.91-.75-.9-1.84-1.34-3.28-1.34-.97 0-1.78.12-2.44.37-.64.23-1.2.5-1.7.81l-1.23.82c-.33.23-.67.35-1 .35-.27 0-.5-.07-.69-.2a2.1 2.1 0 01-.48-.53l-.7-1.25zm27.67 19.5c-1.76 0-3.12-.5-4.07-1.48-.94-.98-1.41-2.4-1.41-4.25V74h-2.68a.9.9 0 01-.6-.2c-.16-.14-.24-.36-.24-.66v-1.56l3.65-.46.9-6.89a.9.9 0 01.29-.52.88.88 0 01.62-.22H142v7.67h6.44V74H142v13.38c0 .94.22 1.63.68 2.09.45.45 1.04.68 1.76.68a3.21 3.21 0 001.85-.53l.55-.35c.16-.12.3-.18.41-.18.2 0 .4.13.55.38l1.15 1.87a7.45 7.45 0 01-2.44 1.5 8.53 8.53 0 01-2.95.52zm19.68-10.4c-1.8.07-3.34.21-4.62.45-1.26.22-2.3.51-3.1.88-.8.36-1.37.8-1.74 1.3-.35.5-.53 1.05-.53 1.67 0 .58.1 1.1.3 1.52a2.9 2.9 0 00.76 1.05c.34.27.73.46 1.17.6a6.13 6.13 0 001.45.17 7.3 7.3 0 003.5-.81 12.04 12.04 0 002.82-2.2v-4.62zm-12.65-9.1a12.72 12.72 0 013.99-2.66c1.42-.59 3-.88 4.72-.88 1.25 0 2.36.2 3.33.61a6.81 6.81 0 013.94 4.38c.33 1.04.5 2.19.5 3.43V93h-1.74a1.8 1.8 0 01-.88-.18c-.2-.13-.36-.38-.48-.74l-.44-2.12-1.72 1.46a9.48 9.48 0 01-3.74 1.7c-.69.15-1.46.23-2.3.23-.87 0-1.69-.12-2.45-.35a5.33 5.33 0 01-3.34-2.93 6.62 6.62 0 01-.49-2.64c0-.88.25-1.72.73-2.53a6.33 6.33 0 012.35-2.17c1.09-.63 2.5-1.15 4.25-1.54a31.2 31.2 0 016.42-.7v-1.75c0-1.73-.37-3.03-1.12-3.91-.75-.9-1.84-1.34-3.28-1.34-.97 0-1.78.12-2.44.37-.64.23-1.2.5-1.7.81l-1.22.82c-.34.23-.68.35-1.02.35-.26 0-.49-.07-.68-.2a1.88 1.88 0 01-.48-.53l-.7-1.25zM40.98 32.25c0 2.36-.38 4.53-1.12 6.51a14.26 14.26 0 01-8.1 8.4c-1.9.78-4.02 1.17-6.34 1.17a16.6 16.6 0 01-6.33-1.17 14.31 14.31 0 01-8.08-8.4 18.29 18.29 0 01-1.12-6.51c0-2.36.38-4.53 1.12-6.5.75-1.97 1.8-3.67 3.17-5.1a14.32 14.32 0 014.9-3.34c1.92-.8 4.03-1.19 6.34-1.19 2.32 0 4.43.4 6.34 1.19 1.92.8 3.56 1.9 4.93 3.34a14.87 14.87 0 013.17 5.1 18.1 18.1 0 011.12 6.5zm-4.38 0c0-1.94-.26-3.68-.8-5.22a10.91 10.91 0 00-2.24-3.89 9.68 9.68 0 00-3.52-2.46 11.95 11.95 0 00-4.62-.86c-1.68 0-3.21.28-4.6.86a9.88 9.88 0 00-3.54 2.46 10.91 10.91 0 00-2.24 3.9c-.53 1.53-.8 3.27-.8 5.2 0 1.94.27 3.68.8 5.22a11.17 11.17 0 002.24 3.9 10.01 10.01 0 003.55 2.44c1.38.56 2.9.83 4.6.83s3.24-.27 4.61-.83a9.8 9.8 0 003.52-2.44 11.17 11.17 0 002.25-3.9c.53-1.54.8-3.28.8-5.21zm26.22-6.54V48H60.5c-.56 0-.9-.27-1.05-.81l-.31-2.4a12.45 12.45 0 01-3.26 2.6c-1.2.64-2.58.96-4.13.96-1.22 0-2.3-.2-3.24-.6a6.52 6.52 0 01-2.33-1.7 7.37 7.37 0 01-1.43-2.67c-.3-1.04-.46-2.2-.46-3.45V25.7h3.91v14.22c0 1.68.38 2.99 1.15 3.91.77.93 1.96 1.39 3.54 1.39 1.16 0 2.24-.27 3.23-.82a10.42 10.42 0 002.8-2.28V25.7h3.91zm8.61 4.47a9.94 9.94 0 012.6-3.56 5.64 5.64 0 013.76-1.3c.47 0 .92.05 1.34.15.44.1.83.27 1.17.49l-.3 2.92c-.09.37-.3.55-.66.55-.2 0-.5-.04-.9-.13a6.21 6.21 0 00-3.24.18 4.23 4.23 0 00-1.47.92c-.42.4-.81.9-1.17 1.5-.33.58-.64 1.26-.92 2.02V48H67.7V25.71h2.25c.42 0 .72.08.88.25.16.16.27.44.33.83l.26 3.39zm61.16-13.7L122.75 48h-3.82l-7.99-24.05a21.95 21.95 0 01-.42-1.58 38.36 38.36 0 01-.44 1.58L102.05 48h-3.83L88.4 16.47h3.54c.38 0 .7.1.95.29.26.2.43.43.5.73l6.52 21.9.28 1.28.29 1.46.3-1.46.38-1.27 7.41-21.91c.1-.25.26-.48.51-.69.27-.22.58-.33.95-.33h1.23c.38 0 .69.1.92.29a1.77 1.77 0 01.53.73l7.4 21.9a28.4 28.4 0 01.68 2.62 29.52 29.52 0 01.52-2.61l6.54-21.91a1.31 1.31 0 01.48-.7c.27-.21.58-.32.95-.32h3.32zm9.35 8.88c1.63 0 3.1.27 4.4.82a9.43 9.43 0 015.46 5.94c.5 1.4.74 2.98.74 4.73 0 1.76-.25 3.34-.74 4.75a9.43 9.43 0 01-5.46 5.92c-1.3.52-2.77.79-4.4.79-1.64 0-3.12-.27-4.44-.8a9.42 9.42 0 01-3.35-2.3c-.92-1-1.63-2.2-2.13-3.61-.49-1.41-.73-3-.73-4.75s.24-3.33.73-4.73c.5-1.43 1.2-2.64 2.13-3.63a9.4 9.4 0 013.35-2.31c1.32-.55 2.8-.82 4.44-.82zm0 19.89c2.2 0 3.84-.73 4.93-2.2 1.08-1.48 1.63-3.54 1.63-6.18 0-2.66-.55-4.72-1.63-6.2-1.09-1.49-2.73-2.23-4.93-2.23-1.12 0-2.09.2-2.93.57a5.71 5.71 0 00-2.06 1.65 7.5 7.5 0 00-1.24 2.67c-.26 1.04-.4 2.22-.4 3.54 0 2.64.55 4.7 1.64 6.18 1.1 1.47 2.76 2.2 4.99 2.2zm17.97-15.07a9.94 9.94 0 012.6-3.56 5.64 5.64 0 013.76-1.3c.47 0 .91.05 1.34.15.44.1.83.27 1.16.49l-.28 2.92c-.09.37-.31.55-.66.55-.2 0-.5-.04-.9-.13a6.2 6.2 0 00-3.24.18 4.23 4.23 0 00-1.47.92c-.43.4-.82.9-1.17 1.5a13.1 13.1 0 00-.92 2.02V48h-3.94V25.71h2.24c.43 0 .72.08.88.25.17.16.28.44.33.83l.27 3.39zm15.04-14.59V48h-3.92V15.6h3.92zm19.55 15.43a6.22 6.22 0 00-2.38-2.05 6.7 6.7 0 00-2.86-.6c-2.07 0-3.66.75-4.77 2.23-1.12 1.48-1.68 3.6-1.68 6.33 0 1.46.13 2.7.38 3.74a7.29 7.29 0 001.1 2.56 4.35 4.35 0 001.78 1.45c.7.3 1.5.46 2.4.46 1.29 0 2.41-.3 3.36-.88a9.6 9.6 0 002.67-2.49V31.02zm3.91-15.43V48h-2.33c-.56 0-.9-.27-1.06-.81l-.35-2.71a12.13 12.13 0 01-3.25 2.77 8.28 8.28 0 01-4.23 1.06 7.31 7.31 0 01-6.14-2.9c-.73-.96-1.3-2.15-1.69-3.57a18.35 18.35 0 01.07-9.48 11.29 11.29 0 011.89-3.7 8.7 8.7 0 017.06-3.34 7.96 7.96 0 016.12 2.62V15.59h3.91zM46.61 70.71V93H42.7V70.71h3.91zm.84-7c0 .39-.08.75-.24 1.09a2.81 2.81 0 01-1.52 1.47 2.67 2.67 0 01-2.16 0 2.9 2.9 0 01-1.45-1.47 2.67 2.67 0 010-2.16c.15-.35.35-.65.6-.9.25-.27.53-.47.85-.62a2.67 2.67 0 012.16 0c.35.15.65.35.9.62.27.25.47.55.62.9.16.34.24.7.24 1.08zm7.97 10.24c.49-.54 1-1.04 1.54-1.48a9.85 9.85 0 013.66-1.84 8.96 8.96 0 015.43.35c.94.4 1.72.97 2.33 1.71a7.36 7.36 0 011.43 2.67c.32 1.04.49 2.19.49 3.45V93h-3.94V78.81c0-1.69-.4-3-1.17-3.92-.76-.93-1.93-1.4-3.5-1.4a6.6 6.6 0 00-3.25.83c-1 .56-1.92 1.31-2.77 2.27V93h-3.94V70.71h2.35c.56 0 .9.28 1.04.82l.3 2.42zm57.7 3.3c0 2.36-.37 4.5-1.11 6.44a14.3 14.3 0 01-3.17 4.98 14.1 14.1 0 01-4.93 3.2c-1.9.76-4.02 1.13-6.33 1.13H85.8V61.47h11.77c2.31 0 4.42.39 6.33 1.15a13.8 13.8 0 018.1 8.18 17.75 17.75 0 011.12 6.45zm-4.37 0c0-1.94-.26-3.67-.8-5.2a10.94 10.94 0 00-2.23-3.87 9.57 9.57 0 00-3.53-2.42 12.23 12.23 0 00-4.61-.83h-7.5v24.62h7.5c1.7 0 3.24-.28 4.61-.84a9.7 9.7 0 003.53-2.4 10.94 10.94 0 002.24-3.87c.53-1.53.8-3.26.8-5.2zm19.8 5.72c-1.8.06-3.34.2-4.62.44-1.26.22-2.3.51-3.1.88-.8.36-1.37.8-1.74 1.3-.35.5-.53 1.05-.53 1.67 0 .58.1 1.1.3 1.52a3 3 0 00.76 1.05c.34.27.73.46 1.17.6a6.13 6.13 0 001.45.17 7.28 7.28 0 003.5-.81 11.95 11.95 0 002.82-2.2v-4.62zm-12.65-9.11a12.73 12.73 0 013.98-2.66c1.43-.59 3-.88 4.73-.88 1.25 0 2.36.2 3.33.61a6.81 6.81 0 013.94 4.38c.33 1.04.5 2.19.5 3.43V93h-1.74a1.8 1.8 0 01-.88-.18c-.2-.13-.36-.38-.48-.74l-.44-2.12-1.72 1.46a9.48 9.48 0 01-3.74 1.7c-.69.15-1.46.23-2.3.23-.87 0-1.69-.12-2.45-.35a5.34 5.34 0 01-3.34-2.93 6.64 6.64 0 01-.49-2.64c0-.88.25-1.72.73-2.53a6.33 6.33 0 012.35-2.17c1.09-.63 2.5-1.15 4.25-1.54 1.75-.41 3.89-.65 6.42-.7v-1.75c0-1.73-.37-3.03-1.12-3.91-.75-.9-1.84-1.34-3.28-1.34-.97 0-1.78.12-2.44.37-.64.23-1.2.5-1.7.81l-1.23.82c-.33.23-.67.35-1 .35-.27 0-.5-.07-.69-.2a2.1 2.1 0 01-.48-.53l-.7-1.25zm27.67 19.5c-1.76 0-3.12-.5-4.07-1.48-.94-.98-1.41-2.4-1.41-4.25V74h-2.68a.9.9 0 01-.6-.2c-.16-.14-.24-.36-.24-.66v-1.56l3.65-.46.9-6.89a.9.9 0 01.29-.52.88.88 0 01.62-.22H142v7.67h6.44V74H142v13.38c0 .94.22 1.63.68 2.09.45.45 1.04.68 1.76.68a3.21 3.21 0 001.85-.53l.55-.35c.16-.12.3-.18.41-.18.2 0 .4.13.55.38l1.15 1.87a7.45 7.45 0 01-2.44 1.5 8.53 8.53 0 01-2.95.52zm19.68-10.4c-1.8.07-3.34.21-4.62.45-1.26.22-2.3.51-3.1.88-.8.36-1.37.8-1.74 1.3-.35.5-.53 1.05-.53 1.67 0 .58.1 1.1.3 1.52a2.9 2.9 0 00.76 1.05c.34.27.73.46 1.17.6a6.13 6.13 0 001.45.17 7.3 7.3 0 003.5-.81 12.04 12.04 0 002.82-2.2v-4.62zm-12.65-9.1a12.72 12.72 0 013.99-2.66c1.42-.59 3-.88 4.72-.88 1.25 0 2.36.2 3.33.61a6.81 6.81 0 013.94 4.38c.33 1.04.5 2.19.5 3.43V93h-1.74a1.8 1.8 0 01-.88-.18c-.2-.13-.36-.38-.48-.74l-.44-2.12-1.72 1.46a9.48 9.48 0 01-3.74 1.7c-.69.15-1.46.23-2.3.23-.87 0-1.69-.12-2.45-.35a5.33 5.33 0 01-3.34-2.93 6.62 6.62 0 01-.49-2.64c0-.88.25-1.72.73-2.53a6.33 6.33 0 012.35-2.17c1.09-.63 2.5-1.15 4.25-1.54a31.2 31.2 0 016.42-.7v-1.75c0-1.73-.37-3.03-1.12-3.91-.75-.9-1.84-1.34-3.28-1.34-.97 0-1.78.12-2.44.37-.64.23-1.2.5-1.7.81l-1.22.82c-.34.23-.68.35-1.02.35-.26 0-.49-.07-.68-.2a1.88 1.88 0 01-.48-.53l-.7-1.25z" fill="#fff"/><path fill="#D42B21" d="M0 106.79h210V120H0z"/></g><defs><clipPath id="clip0"><path fill="#fff" d="M0 0h210v120H0z"/></clipPath></defs></svg></g><a href="https://ourworldindata.org/grapher/GDP-vs-industry-GDP-at-constant-prices" target="_blank" rel="noopener" font-family="&quot;Playfair Display&quot;,Georgia,&quot;Times New Roman&quot;,serif"><text font-size="25.2" x="15" y="35.2" fill="#555"><tspan x="15" y="35.16">Share of industry in GDP vs GDP per capita, 1947 to 2010</tspan></text></a><text font-size="14.4" x="15" y="55.7" fill="#666"><tspan x="15" y="55.72">The share of the industrial sector in gross domestic product (GDP) versus GDP per capita (measured in constant</tspan><tspan x="15" y="73">2011 international-$). This corrects for inflation and cross-country price differences.</tspan></text></g><g class="ScatterPlot"><g class="DualAxisView"><g class="HorizontalAxis"><text font-size="12.6" x="323.3" y="544.9"><tspan x="323.33" y="544.88">GDP per capita</tspan></text><text x="75.2" y="524.8" fill="#666" text-anchor="middle" font-size="16.2">$604</text><text x="146" y="524.8" fill="#666" text-anchor="middle" font-size="16.2">$1,000</text><text x="243.4" y="524.8" fill="#666" text-anchor="middle" font-size="16.2">$2,000</text><text x="372.2" y="524.8" fill="#666" text-anchor="middle" font-size="16.2">$5,000</text><text x="469.6" y="524.8" fill="#666" text-anchor="middle" font-size="16.2">$10,000</text><text x="567" y="524.8" fill="#666" text-anchor="middle" font-size="16.2">$20,000</text><text x="695.8" y="524.8" fill="#666" text-anchor="middle" font-size="16.2">$50,000</text></g><g class="VerticalAxis"><text font-size="12.6" x="-481.8" y="25.1" transform="rotate(-90)"><tspan x="-481.77" y="25.08">Share of industry in GDP at constant 2005 prices (GGDC)</tspan></text><text x="70.16" y="503.6" fill="#666" dominant-baseline="middle" text-anchor="end" font-size="16.2">0%</text><text x="70.16" y="451.7" fill="#666" dominant-baseline="middle" text-anchor="end" font-size="16.2">10%</text><text x="70.16" y="399.7" fill="#666" dominant-baseline="middle" text-anchor="end" font-size="16.2">20%</text><text x="70.16" y="347.8" fill="#666" dominant-baseline="middle" text-anchor="end" font-size="16.2">30%</text><text x="70.16" y="295.8" fill="#666" dominant-baseline="middle" text-anchor="end" font-size="16.2">40%</text><text x="70.16" y="243.9" fill="#666" dominant-baseline="middle" text-anchor="end" font-size="16.2">50%</text><text x="70.16" y="191.9" fill="#666" dominant-baseline="middle" text-anchor="end" font-size="16.2">60%</text><text x="70.16" y="140" fill="#666" dominant-baseline="middle" text-anchor="end" font-size="16.2">70%</text></g><g class="AxisGridLines horizontalLines"><path stroke="#ccc" d="M75.16 503.6h642.93"/><path stroke="#d3d3d3" stroke-dasharray="3,2" d="M75.16 451.7h642.93M75.16 399.7h642.93M75.16 347.8h642.93M75.16 295.8h642.93M75.16 243.9h642.93M75.16 191.9h642.93M75.16 140h642.93"/></g><g class="AxisGridLines verticalLines" stroke-dasharray="3,2"><path stroke="#eee" d="M95.9 503.6V92.2M114.7 503.6V92.2M131.2 503.6V92.2"/><path stroke="#d3d3d3" d="M146 503.6V92.2M243.4 503.6V92.2"/><path stroke="#eee" d="M300.4 503.6V92.2M340.8 503.6V92.2"/><path stroke="#d3d3d3" d="M372.2 503.6V92.2"/><path stroke="#eee" d="M397.8 503.6V92.2M419.5 503.6V92.2M438.2 503.6V92.2M454.8 503.6V92.2"/><path stroke="#d3d3d3" d="M469.6 503.6V92.2M567 503.6V92.2"/><path stroke="#eee" d="M624 503.6V92.2M664.4 503.6V92.2"/><path stroke="#d3d3d3" d="M695.8 503.6V92.2"/></g></g><g class="PointsWithLabels clickable" clip-path="url(#a)" font-family="Arial, sans-serif"><path fill="rgba(255,255,255,0)" d="M75.16 92.2h642.93v411.4H75.16z"/><defs><clipPath id="a"><path d="M65.16 82.2h662.93v431.4H65.16z"/></clipPath></defs><g class="key-China"><circle cx="152" cy="495" r="1.5" fill="#2D8587" stroke="none" opacity=".7"/><path stroke-width="1.42" opacity=".7" stroke="#2D8587" fill="none" stroke-linecap="butt" d="M152 495l14-4-14-1 9-1 9-10h1l-3-21-7-13-8-7-26 16 8 1 15-5 15-7 12-6 1-10-3 8-6 5 9-22 15-26 4-9-1-3 8 1h0l7-13h-7l6-9 14-5 9-1 5-14 2 8 12 6h6l13 3 10-8 7-4 9-4 5-5-1 7-2 4 3-8 8-11 12-13 9-16 9-18 8-5 3-1v-1l5 1 8-3 8 1 9-1 8-6 10 2 12-1 13-6 12-2h5l9-2 14-3"/><path cx="464" cy="253" r="2.62" fill="#2D8587" opacity=".7" d="M460.89 250.99l5.67 1.46-4.57 3.66z"/></g><g class="key-India"><circle cx="144" cy="414" r="1.4" fill="#2D8587" stroke="none" opacity=".7"/><path stroke-width="1.36" opacity=".7" stroke="#2D8587" fill="none" stroke-linecap="butt" d="M144 414l1-3 1 3h6l3-3 1-7 5-2h-4l7 1v-4l7-4 1-4v-5l4-4 7 1-8-9-2-3 8 7v-2l6-1 4 5-2-2-3-4 3 4h-2l9 4-1-9h7l4-1-10-3 6 3 6-2 1-1h8l2-1 3-1 3-4 3-2 11 2 6-3 4-4-2 2 4 2h4l5-4 6-6 7 2 2 2 5 5 6 1 2-1 4 5 2-5 8 2 8-3h7l10-4 9-1 5 4 9-3 8-1"/><path cx="358" cy="353" r="2.56" fill="#2D8587" opacity=".7" d="M355.14 350.78l5.4 1.9-4.76 3.18z"/></g><g class="key-United-States"><circle cx="520" cy="355" r="1.2" fill="#E04E4B" stroke="none" opacity=".7"/><path stroke-width=".84" opacity=".7" stroke="#E04E4B" fill="none" stroke-linecap="butt" d="M520 355l4-8-6 8 10-8 8 3 3 4 4-4-3 3 7-6v-2 3l-4 5 8-6 1 3 1 3 6-1 4-2 6-1 7-1 7 2 2 5 5 1 3 4-1 7 2 3 6-2 7-2-2 6-2 9 6-4 5-2h6l3 2-1 7 2 4-4 7 4-2 9-6 4-1 3 2 4-2 5-1 3 3 1 3-2 3 3 1 2-1 4-4h2l3 1h5l4 1 5 1 4 4v4h1l3 2 4-2 3 2 3 1 1 2-2 5-5 5 2 2"/><path cx="693" cy="418" r="2.04" fill="#E04E4B" opacity=".7" d="M693 415.12l1.44 4.32-4.32-1.44z"/></g><g class="key-Indonesia"><circle cx="213" cy="334" r="1.2" fill="#2D8587" stroke="none" opacity=".7"/><path stroke-width=".78" opacity=".7" stroke="#2D8587" fill="none" stroke-linecap="butt" d="M213 334l6-1h-3l-8 3 2 1-1-1-3 5-6-4 10-18 13-18 11-9 5-3 12-18 16-15 4-2-3 5 8-9 8-8 3 4 4 2 8 2 6 1-8 13 3 4 6-6v5h6l4-1 6 1 9-2 10-4 10-6h7l9-4 9-7 9-3 9-4 5 4-22 6h0l5-5h4l5 1 5 4 6 5 6 8 7 5 7 2 9 4 6-2 7 3"/><path cx="444" cy="272" r="1.98" fill="#2D8587" opacity=".7" d="M442.96 269.4l2.86 3.38-4.42.26z"/></g><g class="key-Brazil"><circle cx="259" cy="373" r="1.2" fill="#932834" stroke="none" opacity=".7"/><path stroke-width=".73" opacity=".7" stroke="#932834" fill="none" stroke-linecap="butt" d="M259 373l2 2 6 8 3-3 6 2 8-5v-4h6l10-10 9-10h8l8 1 5-4-4 3 1-4-1 9 5-5 2 5 9-5 9-1 10-4h11l13-2 14-3 8-2 3 3 11-2 3 2 3 2 6 2 9-5-9 10-3 1-7 7 5-1h7l8-6 2 2-3 4h2l-9 6 1 3-2 1 7 3 7-4 6-5h2l5-3h0v2l6-6 1 2 5 2h1l8-4 4 1 6 2h8l8 2v8l11-5"/><path cx="519" cy="365" r="1.93" fill="#932834" opacity=".7" d="M516.44 364.04l4.32.16-2.72 3.36z"/></g><g class="key-Nigeria"><circle cx="183" cy="448" r="1.1" fill="#923E8B" stroke="none" opacity=".7"/><path stroke-width=".69" opacity=".7" stroke="#923E8B" fill="none" stroke-linecap="butt" d="M183 448l1-17 4-8 8 1 2-16 5-51-9-41-28 21-5 50 29-100 34-52 11-35 1-27 8-13 11-13-8 21 10-22 1 5-13 2 5-27-2 17-16 34-5 14-13 13-9-18 8 7-1 12-4 2 9 7 6-7 3-21-1 14 3 1 2 2v6h2l6-3 3 2 4 2v13l8-10 9-1 18 49 13-20 13 12 9 9 9 17 10 15 9 15 11 7 15 3"/><path cx="369" cy="319" r="1.89" fill="#923E8B" opacity=".7" d="M367.52 316.78l3.33 2.6-4.07 1.1z"/></g><g class="key-Japan"><circle cx="338" cy="367" r="1.2" fill="#2D8587" stroke="none" opacity=".7"/><path stroke-width=".66" opacity=".7" stroke="#2D8587" fill="none" stroke-linecap="butt" d="M338 367l6-14 10 20 9-8 9-5 6-1 11-2 16-14 15-7 11-1 10-6 14-7h6l13-1 14-2 15-5 15-8 13-13h4l10 1 8-5-3 5 2 10 4-1 5 3 6 2 6-2 3 4h3l4 3 2 4 4-1 6-5 3 6 5-2 8-4 6-2 6-4 4-2 1 6v5l1 7 3 4 4 2h1l-2 6-1 2 4-1v14l2-1 2-3 3 1 2-1 2-2-2 3-8 12 6-13"/><path cx="645" cy="344" r="1.86" fill="#2D8587" opacity=".7" d="M642.53 344.9l3.25-2.59.13 4.16z"/></g><g class="key-Mexico"><circle cx="322" cy="338" r="1.1" fill="#E04E4B" stroke="none" opacity=".7"/><path stroke-width=".64" opacity=".7" stroke="#E04E4B" fill="none" stroke-linecap="butt" d="M322 338h6l2-1-4 3 9 6 7-5 6-3h6l3 3v-5h7l2 2 2 3 7-6 12-2 4 3 5-3 4-4 7-1 4-3 5-2 1 9 7-9 7-3 3-2h6l1 2 8-4 10-4 9-4 9-2-5 3-8 11 2-1v-4l-7 6-1-2-1-1 3-1 5-2 4 2 4-1 1 3h5l-11 3 6-10 9-5 6-2 5 1 8-1-1 3 1 5 2-1 5 2 4 3 6 2 4 6 1 3-7 1 6 1"/><path cx="523" cy="330" r="1.84" fill="#E04E4B" opacity=".7" d="M521.49 327.88l3.32 2.42-3.93 1.21z"/></g><g class="key-Philippines"><circle cx="294" cy="303" r="1.1" fill="#2D8587" stroke="none" opacity=".7"/><path stroke-width=".61" opacity=".7" stroke="#2D8587" fill="none" stroke-linecap="butt" d="M294 303l4-6 8-6 1 2 4-7 8-7 4-4h3l4-3 3 2 1-2 1 5h0l-15 10-14 21 1 5 3-2 6-1 5-2 1 2-3 6-1 1 1 1h4l4-2 6 1h5l-3 5 2 9 5-1 2 4 3 1 5 2 7 3h5l5 1 8 2 4-1v4l9-5"/><path cx="390" cy="341" r="1.81" fill="#2D8587" opacity=".7" d="M387.54 340.3l4.04-.18-2.28 3.34z"/></g><g class="key-Ethiopia"><circle cx="100" cy="477" r="1.1" fill="#923E8B" stroke="none" opacity=".7"/><path stroke-width=".6" opacity=".7" stroke="#923E8B" fill="none" stroke-linecap="butt" d="M100 477l2-1 15-1 4-1 5-2 3-3 3-3-1-5 2-1 5 3 3-3h5l-1 1h-3v5-1h-3l6-2 5-2h-3l-4-1h2l-6-8-11-5 6 3 9 4h-2l-2 1-6 3-17 6-19 3-2-7 7-2 2-2h7l6-1-5-5h-5 2l2 1 2-4-5-5h1l10 1 9 1 8 1h16l8-1"/><path cx="160" cy="444" r="1.8" fill="#923E8B" opacity=".7" d="M158 442.44l3.79 1.34-3.35 2.23z"/></g><g class="key-Egypt"><circle cx="210" cy="305" r="1.1" fill="#923E8B" stroke="none" opacity=".7"/><path stroke-width=".59" opacity=".7" stroke="#923E8B" fill="none" stroke-linecap="butt" d="M210 305l5-14 6 3 6-8 6 2 5 2h-2l-5 15-1-5 7-10 6-11 3 12v26l1-22 3 24 10-31 18-30 13-18 6-8 6-1 10 32 1 4 9-2 6-1 5-6 4 1v5-2l2 1 1 6v-1l6 9h5l6-2 6-1 8 1 8 22 8-8 7 3 7 38 9-15 6-4 5 8 4 3 6-8 6 3 8-8 10 12 9-8 6 2 8 3"/><path cx="479" cy="318" r="1.79" fill="#923E8B" opacity=".7" d="M477.95 315.7l2.73 2.93-3.98.42z"/></g><g class="key-Thailand"><circle cx="188" cy="413" r="1.1" fill="#2D8587" stroke="none" opacity=".7"/><path stroke-width=".57" opacity=".7" stroke="#2D8587" fill="none" stroke-linecap="butt" d="M188 413l3-2 11-3-6-2 7 4-2-1-3-2h0l12-7 12 3 2-3 7-5h6l5-4 7-8 11-3 7-6 7 2 6-2 5 3 3-4 2-5h12l4 1 9-9 10-6 10-1 5-2 3 3h5l5 1 5-8 6-4 4 6 5-3 11-7 15-4 15-9 13-8 8-7 10-3 9-4 8-2 8-3 5-3-6 2-13 10 4-11h4l3 3 6-5 8-6 7-5 4-1 5-2 6-1v-2l-2 8 9-11"/><path cx="510" cy="275" r="1.77" fill="#2D8587" opacity=".7" d="M507.5 275.25l3.62-1.62-.87 3.86z"/></g><g class="key-United-Kingdom"><circle cx="484" cy="281" r="1.2" fill="#4C5C78" stroke="none" opacity=".7"/><path stroke-width=".56" opacity=".7" stroke="#4C5C78" fill="none" stroke-linecap="butt" d="M484 281l-1-2 4-1-1 2 5-2 5-2 5-3 1 1h2l-1 3 4-1 7-2 4 1h0l4 1 6-5 3 2 2 2 2 2 5-2 2-1 3 14 2 3 5 6 9-6-2 8-1 8 4 2 3-1 5 2h3l-2 8-2 6 2-3h13l5 3 6-3 7-1 2-1v1l-2 8v3l3 2 5-3 3 1 3 2 4 3 4 4 4 3 4 4 3 6 3 5 4 3 3 5 3 6 2 3 2 1-2 2-7 8"/><path cx="643" cy="386" r="1.76" fill="#4C5C78" opacity=".7" d="M645.48 385.83l-3.64 1.5 1-3.81z"/></g><g class="key-France"><circle cx="442" cy="368" r="1.1" fill="#4C5C78" stroke="none" opacity=".7"/><path stroke-width=".56" opacity=".7" stroke="#4C5C78" fill="none" stroke-linecap="butt" d="M442 368l8-3 2 5h3l6-3 6-5 6-2 7-1 2-3 2-1h8l6-3 6-2 6-1 7-7 5-3 6-3 5-1 5 1 9-3 6-4 5-1 5 1 7-2 3-3-2 9h10l3 2 4 6 1 3 1 5 3 6 1 3 1 5 2 2 2 2 3 2h5l5-1 2 1 1 1 2 1-1 5h5l1 3h3l5 1 4-13 5-3 2-1 1 4h0l4 2 1-2 3 2 2 1v3l-5 8"/><path cx="647" cy="381" r="1.76" fill="#4C5C78" opacity=".7" d="M649.43 380.44l-3.36 2.05.37-3.92z"/></g><g class="key-Italy"><circle cx="396" cy="364" r="1.1" fill="#4C5C78" stroke="none" opacity=".7"/><path stroke-width=".56" opacity=".7" stroke="#4C5C78" fill="none" stroke-linecap="butt" d="M396 364l10-4 9-7 6-5 7-5 5-2 8-4h6l8-4 6-4 10-3 10-6 9-3 4 4 2 4 6-1 9-3 10-3 7-1h3l1 5 3-1 8-2 6-1-4 4 8-4 3-1 5-1 7-3 5-4 1 3v3l2 1 3 2 4 1 4 2h4l5-3 4-2h3l3 2 3 2-1 3 4-1 5-3 3 3 3 1h4l3 2 6-1 3 1h1l1 1 2 2 2 1 3-2h2l-1 5-8 12"/><path cx="641" cy="344" r="1.76" fill="#4C5C78" opacity=".7" d="M643.44 343.51l-3.42 1.95.5-3.9z"/></g><g class="key-South-Africa"><circle cx="367" cy="263" r="1.1" fill="#923E8B" stroke="none" opacity=".7"/><path stroke-width=".54" opacity=".7" stroke="#923E8B" fill="none" stroke-linecap="butt" d="M367 263h3l4-3 6-6 5-8 4 1h3l5 8 2 1 5-2h3l4 6-1 3 2 1 4 10-1 5h0l-4 3h1l2-4 5 3h3l-5 7-7 3 2 2-6 3-3 5-1 5 3-1-1 2-4 3-2 6-3 1 2 3h10l6 5h5l2 3 4 5h6l5 1 6 2 4 5 7 1 8 1 9 1 8 1 5 3-1 9 6-2"/><path cx="487" cy="355" r="1.74" fill="#923E8B" opacity=".7" d="M484.8 353.9l3.85.55-2.75 2.75z"/></g><g class="key-Spain"><circle cx="322" cy="391" r="1.1" fill="#4C5C78" stroke="none" opacity=".7"/><path stroke-width=".53" opacity=".7" stroke="#4C5C78" fill="none" stroke-linecap="butt" d="M322 391l-1-2-2 2 1-5 13 6 11-5-1-1 8-4 4-8 10 3h4l8-6-3 2-1 3 14-1h12l13-1 6-9 9-13 9-9 6-9 6-4 11-4 3-5 6 2 12-8 10-5 9-3 3 6 5 3h3l2 3 1 2 4 3h-2l2 2 2-1v6l4 2 5-5h10l8-4 9-3 6-1h5l3 9-2 9 4-1 6-6 4 2 6-1 7-2 7-2h8l6-3h6l3 2 4 1 4 2 4 4v6l-5 11"/><path cx="631" cy="351" r="1.73" fill="#4C5C78" opacity=".7" d="M633.3 350.14l-3.02 2.43-.14-3.86z"/></g><g class="key-Colombia"><circle cx="319" cy="338" r="1.1" fill="#932834" stroke="none" opacity=".7"/><path stroke-width=".53" opacity=".7" stroke="#932834" fill="none" stroke-linecap="butt" d="M319 338v3l4 2 4-3 5-5 1-3 1-3v-2l-1-1 5-4 2 3 2 1 3 2v1l4 2 1-1 3-1 2-5 4 2 5-4 6 3 4 1 7 4 6-5 5 3v6h3l3 3 9 3 5 2 3-2v3l-2 2-1-5 2-6 1-7 5-9 5 1h4l3 4 1 2h3l5 5 4-5 5 2 1 9 3 3-2-3h-8l2 1 1 3 1-1 4-1h10l8-1h7l4-1v-1h4"/><path cx="485" cy="335" r="1.73" fill="#932834" opacity=".7" d="M483.27 333.27l3.46 1.73-3.46 1.73z"/></g><g class="key-Tanzania"><circle cx="102" cy="410" r="1.1" fill="#923E8B" stroke="none" opacity=".7"/><path stroke-width=".53" opacity=".7" stroke="#923E8B" fill="none" stroke-linecap="butt" d="M102 410l-6-21 8 2 5 8 3-1 1-7 13-1 1-10 3 4-2-1 4 1 1-12 5 2v2l-2 2 3 9 6-2v9l-3-1-2 3-6 8-2 1-5 19-1-4-4 6v-1l2-10 2-4v7l1-16 2 6 1-2 1 7v-2l5 6 7-2 5-3 5-5 6-2h6l8-1 9-2 8-5 9-4 9-4 6-3 11-3 7-2h7l9-3"/><path cx="248" cy="378" r="1.73" fill="#923E8B" opacity=".7" d="M245.81 376.9l3.83.55-2.73 2.74z"/></g><g class="key-Kenya"><circle cx="172" cy="424" r="1.1" fill="#923E8B" stroke="none" opacity=".7"/><path stroke-width=".52" opacity=".7" stroke="#923E8B" fill="none" stroke-linecap="butt" d="M172 424h-3l13 5 2-3 5-2 4-5 6-1 4-2 2-2 2-5 1 2-5-1v-8l7-8 6-4v15l2-2-2 2h2l-4 1-3-2h14l2-1h-1l-4 1h-2l3 2 4 1 5 1h0l3 2 2 2v1l4 2h-1l3-1h11l6-1h7l-1-3 3-1 10 1"/><path cx="279" cy="410" r="1.72" fill="#923E8B" opacity=".7" d="M277.46 408.12l3.25 2.05-3.6 1.37z"/></g><g class="key-Argentina"><circle cx="437" cy="308" r="1.1" fill="#932834" stroke="none" opacity=".7"/><path stroke-width=".52" opacity=".7" stroke="#932834" fill="none" stroke-linecap="butt" d="M437 308l2-2-10 8 5 12 3-8 7-4 1 3 5-5 6-4-12 13 8-6 8-6-5 5-6 2 12-9 10-5-1-1 2-1 4-8 9-8 5-3 5-10 2-4 6 3h6l-4 4-2-1 6-6-9 9 7-3v5l-11 11-7 3 3-2 1 3-12 6 8-6 1-2-4 3-11 6-2 7 12-3 13-7 7-2 7 1-5 4 7-2 9-1 5 5-6 7-2 4-7 3-17 4 11-10 11-6 11 2 10-2 12 3 5 4-10 2 13 3"/><path cx="559" cy="316" r="1.72" fill="#932834" opacity=".7" d="M557.71 313.94l2.97 2.45-3.74.9z"/></g><g class="key-Morocco"><circle cx="251" cy="373" r="1.1" fill="#923E8B" stroke="none" opacity=".7"/><path stroke-width=".5" opacity=".7" stroke="#923E8B" fill="none" stroke-linecap="butt" d="M251 373l1-13 2 8h2l2-1 4-9 4 3 4 10 4-6 5-4 4 1v-5l2-2h5l6-18 12 2 4-8 1 14 4 2 9 8-6-12 10 8-4 1 2 7 5 2 7 12-7-4 10 3v4l2-4 7 10-5-9-3 1 12 9-10-11 14 8-4-10 8 7v-3l1-2 8 3h3l6 4 5 2 3-3 9 5 4-6 6 3 5 8 4-3"/><path cx="418" cy="385" r="1.7" fill="#923E8B" opacity=".7" d="M415.62 384.66l3.74-.68-1.7 3.4z"/></g><g class="key-Peru"><circle cx="329" cy="350" r="1.1" fill="#932834" stroke="none" opacity=".7"/><path stroke-width=".5" opacity=".7" stroke="#932834" fill="none" stroke-linecap="butt" d="M329 350l7 3 3-7 5-10v-1l7 15 2-14 3 2-3 12-3 7 14-23 8-2 6 10 2 1 6 1 5-3h7l2-3-6-1v1l7-2 2-1v-2h4l3-3 7 6-2-1h-4l-3 1 4-2 3-2 2 4-3 1-23 12 3-1v2l10-1 8-2-15 4-21 3-10-2v-3l-3 1 5-3 14-9h7l2 3 7-3-2 1v2l2 1v-2l6-4 4-1 6-2 7-2 9 2 10-1 11-1 1 6 10-4"/><path cx="462" cy="333" r="1.7" fill="#932834" opacity=".7" d="M459.79 332.05l3.79.32-2.53 2.84z"/></g><g class="key-Venezuela"><circle cx="446" cy="101" r="1.1" fill="#932834" stroke="none" opacity=".7"/><path stroke-width=".49" opacity=".7" stroke="#932834" fill="none" stroke-linecap="butt" d="M446 101l9-5 4-2 3 10h7l7-7 8-5 10 1-4 4 6-2v1h1l7-2 4 5 9 4 3 4-2 6 1-1 3 1 1 4 6 5-1 6-1 7 4-2 4 16 4 23 6 4 4 1-1-3-3-2-7 3-5 3-3 8-12 7-6 8-3 8 5-3 1 1 4-1-16 2 6-12 10-7 6-2-2-3-5-3 3-4-2-7 6-7-1 1-11 8h6l-15 10-12 7 22 1 12 10 11 10 10 10 5 2-6 7-1 2"/><path cx="545" cy="231" r="1.69" fill="#932834" opacity=".7" d="M547.27 230.24l-3.03 2.27v-3.78z"/></g><g class="key-Malaysia"><circle cx="314" cy="244" r="1.1" fill="#2D8587" stroke="none" opacity=".7"/><path stroke-width=".49" opacity=".7" stroke="#2D8587" fill="none" stroke-linecap="butt" d="M314 244l7 12 6 3 16 8 7 11-2 2 13-9 8 2 9-5 7-7 8 4 7 10 4-1 5-9 7-7-5 7-1-5 3 3 9-6 9 9 10-1 10-3 9 5 11 2 10-3 11-10 10-6 8 1-14 13 6-6 9-5-2 12 6 2 5-3h7l5 3 6 3 7 8 6 10-4 12 9-2"/><path cx="556" cy="298" r="1.69" fill="#2D8587" opacity=".7" d="M553.98 296.72l3.67.91-2.93 2.39z"/></g><g class="key-Ghana"><circle cx="256" cy="330" r="1.1" fill="#923E8B" stroke="none" opacity=".7"/><path stroke-width=".49" opacity=".7" stroke="#923E8B" fill="none" stroke-linecap="butt" d="M256 330h5l-1-2-2-1-4 9-2-9-2 4 1-1 10-5 6 3-8 17-1-11 6 7-22-8-8-3v-2l10 21-6 16-6-1-2 19-13 12-16 9h4l3-7h1l3-3 4-4h3l1 1 4 8 2-2 1 2 2 1 4 1 3 1 4-1 4 1h4l2 1 3 1h7l4 1 5-1h6l2-3 9-6 4 2 7 1"/><path cx="297" cy="398" r="1.69" fill="#923E8B" opacity=".7" d="M295.57 396.09l3.1 2.15-3.58 1.2z"/></g><g class="key-Taiwan"><circle cx="258" cy="380" r="1.1" fill="#2D8587" stroke="none" opacity=".7"/><path stroke-width=".48" opacity=".7" stroke="#2D8587" fill="none" stroke-linecap="butt" d="M258 380l6-4 8-4 12-4 10-3 8-5 11-5 8-8 9-10 12-6 14-11 15-12 14-6-1 6h4l15-13 11-4 15-10 8 2 7-3 6-1 3 7 9-2 13-5 5 5 14-9 19-2 5 6 10 4 6 12 9 5 10 2 7 6 8 1 8 5 6-3 7-1 4 1 8 5 7 5-3 9 6-3 5 5 7 9 7 13 6 5 8-2v12l-3-8 13-18"/><path cx="654" cy="343" r="1.68" fill="#2D8587" opacity=".7" d="M651.65 343.38l3.33-1.74-.6 3.7z"/></g><g class="key-Chile"><circle cx="395" cy="317" r="1.1" fill="#932834" stroke="none" opacity=".7"/><path stroke-width=".47" opacity=".7" stroke="#932834" fill="none" stroke-linecap="butt" d="M395 317l2-4 6 10 7 5-7-31 2 3-1-6 10 21 4 11-11-31 8 9 2-7 3-9 6-3-1-1-2 4h12l2 3 2 2 2-5v3l10-4-4 2-11 4-1-6-21 25 2-2 12 3h9l9-2 9-3 6-2-23 6-6-13 6-6v5l5 2 7 2 7-2 12-2 3 1 7 3 13 5 6-2 5 1h11l7-2 6-1 2 2-4-3 3 2 2 1 1 4 3-1h5l6 5 6 3 4 2 3 4h-5l6-16"/><path cx="559" cy="306" r="1.67" fill="#932834" opacity=".7" d="M556.85 306.98l2.74-2.54.39 3.71z"/></g><g class="key-Netherlands"><circle cx="508" cy="350" r="1.1" fill="#4C5C78" stroke="none" opacity=".7"/><path stroke-width=".46" opacity=".7" stroke="#4C5C78" fill="none" stroke-linecap="butt" d="M508 350l-1-2 7-1 3-1 10-8 5-1 2-5 5-2 8-6 7 1h6l4 1 3 2 5-1 5 2-1-4 5-3h3l2 6 2 3 1 2-2 4-2 6 2-2 4-3 3-1 3 4 1 3 3-3h6l4 1h3l3 2 1 2 4-2 5 1 5 2 6 6 6 3 7 1 5-1 3 1v2l1 4 3-1 3 5h11l3 1-5 4"/><path cx="675" cy="372" r="1.66" fill="#4C5C78" opacity=".7" d="M677.33 372.26l-3.63.78 1.56-3.37z"/></g><g class="key-Malawi"><circle cx="91" cy="420" r="1.1" fill="#923E8B" stroke="none" opacity=".7"/><path stroke-width=".46" opacity=".7" stroke="#923E8B" fill="none" stroke-linecap="butt" d="M91 420l9-1-5-9 5 2-2-5 15 11 10-13 7 9 5 1 1-7 1 6 3-2 8-3 2 3h-15l-4 4 2 1 2 6 6-1-5 1-4-2-6-3-1-3v-2l6 3-16-7 10 14-12-10 19 5 10 4 4 4-2 1v-1l-3 1-10 6-2 1 3-5 2 1v-6l1-12 8-3 5-2 6 3 4-5"/><path cx="158" cy="405" r="1.66" fill="#923E8B" opacity=".7" d="M155.67 405.26l3.37-1.56-.78 3.63z"/></g><g class="key-Zambia"><circle cx="230" cy="149" r="1.1" fill="#923E8B" stroke="none" opacity=".7"/><path stroke-width=".46" opacity=".7" stroke="#923E8B" fill="none" stroke-linecap="butt" d="M230 149l-11 1 6 31-2 10-4-22 2 27-4 16 8-5-5 2 6-1-9 15 4 16-11 6-4 3-8 6v11l4 8-9 7h-8l-6 4-2 8-4 16-1-8 4 11-3 1 8 1-1 18 3 2 1 21-20 4 5 18 9 7 6-9-1 10 7 10 6-1 7-5 7-8 10-5 10-7 11-6 11-2 12-3 11 3 12-6 14-4"/><path cx="301" cy="350" r="1.66" fill="#923E8B" opacity=".7" d="M298.95 348.86l3.65.68-2.74 2.51z"/></g><g class="key-Senegal"><circle cx="262" cy="411" r="1.1" fill="#923E8B" stroke="none" opacity=".7"/><path stroke-width=".45" opacity=".7" stroke="#923E8B" fill="none" stroke-linecap="butt" d="M262 411l-5-3 5 4-12-3 1-7 7 7 9-4-8-7-10 6h5l-10 1-5 3 15-2-1-5h-11l1 3h2l1-3 3-5-7 3 1-4-1-1-3-3-3 1-4-2 3-1-2-3h0l4-3 4 5 1-1 2-1-4-6 5 5 3-1 3 4-1 2 2-1 1 7-1-1 1-1"/><path cx="253" cy="394" r="1.65" fill="#923E8B" opacity=".7" d="M250.67 394l3.5-1.17-1.17 3.5z"/></g><g class="key-Bolivia"><circle cx="300" cy="298" r="1.1" fill="#932834" stroke="none" opacity=".7"/><path stroke-width=".44" opacity=".7" stroke="#932834" fill="none" stroke-linecap="butt" d="M300 298l9-6 2-3-17-8v6l4-12-12 12-8 23 1 28-4-13 3 10-1 6 5-3 5-7 4-6 3-13 7-3 5-10 8 7 3-3 3 3h2l4 7 6-10 3 6 6 7 7 3 2 1 1 7-3 6-4 1-2 8-8 9-9-1-1 6-3 9-7 5 1 1 2-12 1-5 4-4 4 1-1 2 3-1 4 1 4-4 3 4 4 3 4-4-2 7 1-1v2l1-1 1 2 4-4 3-5 4-3 4-4 7-8 2 3h4"/><path cx="376" cy="340" r="1.64" fill="#932834" opacity=".7" d="M374.36 338.36l3.28 1.64-3.28 1.64z"/></g><g class="key-Sweden"><circle cx="479" cy="397" r="1.1" fill="#4C5C78" stroke="none" opacity=".7"/><path stroke-width=".44" opacity=".7" stroke="#4C5C78" fill="none" stroke-linecap="butt" d="M479 397l5 3v2l3-5h5l3-1h5l5-1v-2l3-2 7-1 7-2 5-5 6-2 9-6 4-4 1-4 4-2 4-5 6-4h8l3-1 5 1 4 4 3 7 1 4-3 5h2l5-2 2 2v6h1l3-1 5-5 2-1 3 1 4 2h2l2-2 1 2-2 3-2 3-4 2 5-5 5-6h3l4-2 6-3 7-4 6-2 2 4 3-7 4-4 6-11 4-3 6-6 5-1-1 3-7 11"/><path cx="664" cy="350" r="1.64" fill="#4C5C78" opacity=".7" d="M666.26 349.5l-3.14 1.88.38-3.64z"/></g><g class="key-Hong-Kong"><circle cx="491" cy="435" r="1.1" fill="#2D8587" stroke="none" opacity=".7"/><path stroke-width=".43" opacity=".7" stroke="#2D8587" fill="none" stroke-linecap="butt" d="M491 435l-3-2 17-5 11-1 7-5 11-8 10-5 10-5 2 9 6 3 12 1-1 6 12-2 15 1h9l2-4h3l5 4 5 3 5 4 5 4-2 1 2 2 5 1-11 2 1 6 7 5v3l1 3 2 6 10 5 8 3 8 3 7 3h1l-5 1h7"/><path cx="675" cy="477" r="1.63" fill="#2D8587" opacity=".7" d="M673.37 475.37l3.26 1.63-3.26 1.63z"/></g><g class="key-Denmark"><circle cx="483" cy="319" r="1.1" fill="#4C5C78" stroke="none" opacity=".7"/><path stroke-width=".43" opacity=".7" stroke="#4C5C78" fill="none" stroke-linecap="butt" d="M483 319v3l1 3h6l2-1v7l1 2 10-3 2-2 9-7 3-4 8-6 6-1v4l11-7 5-2 3 2 4-1 4 5 8-3h2l3-2 6-4 4 8-2 3-1 7 9 3 1 4 2 2 5 5-1-5-1 10 4 2 3-7 7-3h5l5-4v1l2 3v-4l2 8 2 5 3 2 1 7 7-5 4-1 4 4 5-3 4 1 4-2 5-1 2 4 1 2 1 3 4-1 4 1 5 1 2 3-1-1-7 7"/><path cx="671" cy="361" r="1.63" fill="#4C5C78" opacity=".7" d="M673.3 361l-3.45 1.15 1.15-3.46z"/></g><g class="key-Singapore"><circle cx="320" cy="409" r="1.1" fill="#2D8587" stroke="none" opacity=".7"/><path stroke-width=".43" opacity=".7" stroke="#2D8587" fill="none" stroke-linecap="butt" d="M320 409h6l6-2 10-4-9-12 7-6h11l13-1 16-7 16-8 16-11 13-7 15-7 13-1 6 6 4 5 9-7 8-1 10-1 11-5h11l8-2 3 8h10l9-1-2 14 2-2 12-4 12-6 9 1h9l6 2 7 1 12 6 12-2 7-2 8 3 9 2h-6l7-4 10-4-4 2 4 2 4-5 11-7 9 6 10-2 10 2 1 6-2 1 19-14"/><path cx="718" cy="341" r="1.63" fill="#2D8587" opacity=".7" d="M715.72 340.65l3.6-.62-1.67 3.25z"/></g><g class="key-Costa-Rica"><circle cx="306" cy="405" r="1.1" fill="#E04E4B" stroke="none" opacity=".7"/><path stroke-width=".43" opacity=".7" stroke="#E04E4B" fill="none" stroke-linecap="butt" d="M306 405h-1l11 2 15 1-4-5 11 6-10-2 6-3 12 12-1 3 6-5 1 3 3-7 7-1 2-1 7-7h6l4-2 6-4 5-1h5l5-3 8-4 7-2 3-5-1-3 4-4 8-1 3-2 2-2-1 1-7 5-14 12v-1l6-6-3-2 4-2h2l1 1h5l1 2v2l8-4 6-1h2l2-1-3 5 4-3 6-5 2-14 2 6 2 9h2l4-2h3l3-3 8-5 9-3 4 4-4 6 5 3"/><path cx="495" cy="372" r="1.63" fill="#E04E4B" opacity=".7" d="M494.44 369.76l1.96 3.08-3.64-.28z"/></g><g class="key-Botswana"><circle cx="75" cy="361" r="1.1" fill="#923E8B" stroke="none" opacity=".7"/><path stroke-width=".42" opacity=".7" stroke="#923E8B" fill="none" stroke-linecap="butt" d="M75 361l2-17 11 21 11 7 12 30 11-88 10-59 29 11 28-1 22 3 5 7 5 3 7-16 7 6 8-43 12 16 11-4 10-70 6-6 11-31 13-19 7 23 6 17 7 3 12 49 36-5 5 12 9-5 3 7 1 16 4 10 9 4 7 12 10 1 1 7 13 5 3-10v4l9-9 7 4 4 4 7-4h12l12 9 9 21-10 46 12-8"/><path cx="501" cy="324" r="1.62" fill="#923E8B" opacity=".7" d="M498.75 323.55l3.6-.45-1.8 3.15z"/></g><g class="key-Mauritius"><circle cx="362" cy="356" r="1.1" fill="#923E8B" stroke="none" opacity=".7"/><path stroke-width=".41" opacity=".7" stroke="#923E8B" fill="none" stroke-linecap="butt" d="M362 356l4-6 9-6 14 11 9-12v17l26 5 7-1 3-3 2 3-18-2 6 2 6 2-1-2 5-5 8-8 12-9 13-4 8-4 5-2 9-2 2 1 4 2 2 1h2l2 1 3 1 4 2h4v-1l7 5h1l-2 5 5 4 2 5-1 9h7l4-1h0l3 3"/><path cx="538" cy="367" r="1.61" fill="#923E8B" opacity=".7" d="M538 364.72l1.14 3.42-3.42-1.14z"/></g><g class="backgroundLabels" fill="#333" font-weight="400"><text x="468.89" y="251.95" font-size="14.3" fill="#fff" stroke="#fff" stroke-linecap="round" stroke-linejoin="round" stroke-width=".25em">China</text><text x="468.89" y="251.95" font-size="14.3" fill="#2D8587">China</text><text x="362.96" y="352.38" font-size="13.98" fill="#fff" stroke="#fff" stroke-linecap="round" stroke-linejoin="round" stroke-width=".25em">India</text><text x="362.96" y="352.38" font-size="13.98" fill="#2D8587">India</text><text x="625.72" y="427.41" font-size="11.74" fill="#fff" stroke="#fff" stroke-linecap="round" stroke-linejoin="round" stroke-width=".25em">United States</text><text x="625.72" y="427.41" font-size="11.74" fill="#E04E4B">United States</text><text x="448.6" y="279.76" font-size="11.58" fill="#fff" stroke="#fff" stroke-linecap="round" stroke-linejoin="round" stroke-width=".25em">Indonesia</text><text x="448.6" y="279.76" font-size="11.58" fill="#2D8587">Indonesia</text><text x="523.55" y="362.93" font-size="11.47" fill="#fff" stroke="#fff" stroke-linecap="round" stroke-linejoin="round" stroke-width=".25em">Brazil</text><text x="523.55" y="362.93" font-size="11.47" fill="#932834">Brazil</text><text x="373.9" y="325.67" font-size="11.38" fill="#fff" stroke="#fff" stroke-linecap="round" stroke-linejoin="round" stroke-width=".25em">Nigeria</text><text x="373.9" y="325.67" font-size="11.38" fill="#923E8B">Nigeria</text><text x="647.1" y="339.46" font-size="11.31" fill="#fff" stroke="#fff" stroke-linecap="round" stroke-linejoin="round" stroke-width=".25em">Japan</text><text x="647.1" y="339.46" font-size="11.31" fill="#2D8587">Japan</text><text x="527.93" y="336.46" font-size="11.27" fill="#fff" stroke="#fff" stroke-linecap="round" stroke-linejoin="round" stroke-width=".25em">Mexico</text><text x="527.93" y="336.46" font-size="11.27" fill="#E04E4B">Mexico</text><text x="164.96" y="443.38" font-size="11.21" fill="#fff" stroke="#fff" stroke-linecap="round" stroke-linejoin="round" stroke-width=".25em">Ethiopia</text><text x="164.96" y="443.38" font-size="11.21" fill="#923E8B">Ethiopia</text><text x="483.68" y="325.35" font-size="11.2" fill="#fff" stroke="#fff" stroke-linecap="round" stroke-linejoin="round" stroke-width=".25em">Egypt</text><text x="483.68" y="325.35" font-size="11.2" fill="#923E8B">Egypt</text><text x="513.17" y="271.13" font-size="11.16" fill="#fff" stroke="#fff" stroke-linecap="round" stroke-linejoin="round" stroke-width=".25em">Thailand</text><text x="513.17" y="271.13" font-size="11.16" fill="#2D8587">Thailand</text><text x="560.09" y="395.34" font-size="11.15" fill="#fff" stroke="#fff" stroke-linecap="round" stroke-linejoin="round" stroke-width=".25em">United Kingdom</text><text x="560.09" y="395.34" font-size="11.15" fill="#4C5C78">United Kingdom</text><text x="617.73" y="353.73" font-size="11.14" fill="#fff" stroke="#fff" stroke-linecap="round" stroke-linejoin="round" stroke-width=".25em">Italy</text><text x="617.73" y="353.73" font-size="11.14" fill="#4C5C78">Italy</text><text x="252.74" y="376.42" font-size="11.11" fill="#fff" stroke="#fff" stroke-linecap="round" stroke-linejoin="round" stroke-width=".25em">Tanzania</text><text x="252.74" y="376.42" font-size="11.11" fill="#923E8B">Tanzania</text><text x="283.98" y="416.05" font-size="11.1" fill="#fff" stroke="#fff" stroke-linecap="round" stroke-linejoin="round" stroke-width=".25em">Kenya</text><text x="283.98" y="416.05" font-size="11.1" fill="#923E8B">Kenya</text><text x="422" y="382" font-size="11.08" fill="#fff" stroke="#fff" stroke-linecap="round" stroke-linejoin="round" stroke-width=".25em">Morocco</text><text x="422" y="382" font-size="11.08" fill="#923E8B">Morocco</text><text x="560.88" y="296.92" font-size="11.07" fill="#fff" stroke="#fff" stroke-linecap="round" stroke-linejoin="round" stroke-width=".25em">Malaysia</text><text x="560.88" y="296.92" font-size="11.07" fill="#2D8587">Malaysia</text><text x="161.12" y="401.1" font-size="11.03" fill="#fff" stroke="#fff" stroke-linecap="round" stroke-linejoin="round" stroke-width=".25em">Malawi</text><text x="161.12" y="401.1" font-size="11.03" fill="#923E8B">Malawi</text><text x="305.81" y="348.63" font-size="11.03" fill="#fff" stroke="#fff" stroke-linecap="round" stroke-linejoin="round" stroke-width=".25em">Zambia</text><text x="305.81" y="348.63" font-size="11.03" fill="#923E8B">Zambia</text><text x="624.59" y="477" font-size="11.02" fill="#fff" stroke="#fff" stroke-linecap="round" stroke-linejoin="round" stroke-width=".25em">Hong Kong</text><text x="624.59" y="477" font-size="11.02" fill="#2D8587">Hong Kong</text><text x="499.29" y="380.08" font-size="11.01" fill="#fff" stroke="#fff" stroke-linecap="round" stroke-linejoin="round" stroke-width=".25em">Costa Rica</text><text x="499.29" y="380.08" font-size="11.01" fill="#E04E4B">Costa Rica</text></g></g><g class="ScatterColorLegend clickable" cursor="pointer"><g class="legendMark"><path fill="#923E8B" d="M738.09 94h9v9h-9z"/><text font-size="12.6" x="752.1" y="102.3"><tspan x="752.09" y="102.28">Africa</tspan></text></g><g class="legendMark"><path fill="#2D8587" d="M738.09 111.6h9v9h-9z"/><text font-size="12.6" x="752.1" y="119.9"><tspan x="752.09" y="119.88">Asia</tspan></text></g><g class="legendMark"><path fill="#4C5C78" d="M738.09 129.2h9v9h-9z"/><text font-size="12.6" x="752.1" y="137.5"><tspan x="752.09" y="137.48">Europe</tspan></text></g><g class="legendMark"><path fill="#E04E4B" d="M738.09 146.8h9v9h-9z"/><text font-size="12.6" x="752.1" y="155.1"><tspan x="752.09" y="155.08">North America</tspan></text></g><g class="legendMark"><path fill="#932834" d="M738.09 164.4h9v9h-9z"/><text font-size="12.6" x="752.1" y="172.7"><tspan x="752.09" y="172.68">South America</tspan></text></g></g><path stroke="#ccc" d="M738.09 182.2H830"/><g class="clickable"><g class="ConnectedScatterLegend"><text font-size="12.6" x="738.1" y="201.3" fill="#333"><tspan x="738.09" y="201.28">1947</tspan></text><text font-size="12.6" x="806.8" y="201.3" fill="#333"><tspan x="806.78" y="201.28">2010</tspan></text><path stroke="#666" stroke-width="1" d="M771.32 197h30.46"/><circle cx="771.32" cy="197" r="2" fill="#666" stroke="#ccc" stroke-width=".2"/><circle cx="781.47" cy="197" r="2" fill="#666" stroke="#ccc" stroke-width=".2"/><circle cx="791.62" cy="197" r="2" fill="#666" stroke="#ccc" stroke-width=".2"/><path cx="801.78" cy="197" r="3" fill="#666" stroke="#ccc" stroke-width=".2" d="M798.78 194l6 3-6 3z"/></g></g></g><g class="SourcesFooter" fill="#777"><g fill="#777"><text font-size="12.6" x="15" y="582.5"><tspan x="15" y="582.48">Source: Our World In Data based on GGDC-10 (2015), Maddison Project Database 2020 (Bolt and van Zanden (2020))</tspan></text></g><text font-size="12.6" x="796.4" y="582.5"><tspan x="796.44" y="582.48"><a class="cclogo" href="http://creativecommons.org/licenses/by/4.0/deed.en_US" target="_blank" fill="#777">CC BY</a></tspan></text></g></svg>