<svg xmlns="http://www.w3.org/2000/svg" version="1.1" style="background-color:#fff;-webkit-font-smoothing:antialiased" width="850" height="600" viewBox="0 0 850 600" font-family="Lato,'Helvetica Neue',Helvetica,Arial,sans-serif" font-size="18" text-rendering="geometricPrecision"><g class="HeaderView"><g transform="matrix(.29 0 0 .29 774 15)"><svg className="owidLog" width="210" height="120" viewBox="0 0 210 120" fill="none" xmlns="http://www.w3.org/2000/svg"><g clip-path="url(#clip0)"><path d="M0 0h210v107.89H0V0z" fill="#002147"/><path d="M40.98 32.25c0 2.36-.38 4.53-1.12 6.51a14.26 14.26 0 01-8.1 8.4c-1.9.78-4.02 1.17-6.34 1.17a16.6 16.6 0 01-6.33-1.17 14.31 14.31 0 01-8.08-8.4 18.29 18.29 0 01-1.12-6.51c0-2.36.38-4.53 1.12-6.5.75-1.97 1.8-3.67 3.17-5.1a14.32 14.32 0 014.9-3.34c1.92-.8 4.03-1.19 6.34-1.19 2.32 0 4.43.4 6.34 1.19 1.92.8 3.56 1.9 4.93 3.34a14.87 14.87 0 013.17 5.1 18.1 18.1 0 011.12 6.5zm-4.38 0c0-1.94-.26-3.68-.8-5.22a10.91 10.91 0 00-2.24-3.89 9.68 9.68 0 00-3.52-2.46 11.95 11.95 0 00-4.62-.86c-1.68 0-3.21.28-4.6.86a9.88 9.88 0 00-3.54 2.46 10.91 10.91 0 00-2.24 3.9c-.53 1.53-.8 3.27-.8 5.2 0 1.94.27 3.68.8 5.22a11.17 11.17 0 002.24 3.9 10.01 10.01 0 003.55 2.44c1.38.56 2.9.83 4.6.83s3.24-.27 4.61-.83a9.8 9.8 0 003.52-2.44 11.17 11.17 0 002.25-3.9c.53-1.54.8-3.28.8-5.21zm26.22-6.54V48H60.5c-.56 0-.9-.27-1.05-.81l-.31-2.4a12.45 12.45 0 01-3.26 2.6c-1.2.64-2.58.96-4.13.96-1.22 0-2.3-.2-3.24-.6a6.52 6.52 0 01-2.33-1.7 7.37 7.37 0 01-1.43-2.67c-.3-1.04-.46-2.2-.46-3.45V25.7h3.91v14.22c0 1.68.38 2.99 1.15 3.91.77.93 1.96 1.39 3.54 1.39 1.16 0 2.24-.27 3.23-.82a10.42 10.42 0 002.8-2.28V25.7h3.91zm8.61 4.47a9.94 9.94 0 012.6-3.56 5.64 5.64 0 013.76-1.3c.47 0 .92.05 1.34.15.44.1.83.27 1.17.49l-.3 2.92c-.09.37-.3.55-.66.55-.2 0-.5-.04-.9-.13a6.21 6.21 0 00-3.24.18 4.23 4.23 0 00-1.47.92c-.42.4-.81.9-1.17 1.5-.33.58-.64 1.26-.92 2.02V48H67.7V25.71h2.25c.42 0 .72.08.88.25.16.16.27.44.33.83l.26 3.39zm61.16-13.7L122.75 48h-3.82l-7.99-24.05a21.95 21.95 0 01-.42-1.58 38.36 38.36 0 01-.44 1.58L102.05 48h-3.83L88.4 16.47h3.54c.38 0 .7.1.95.29.26.2.43.43.5.73l6.52 21.9.28 1.28.29 1.46.3-1.46.38-1.27 7.41-21.91c.1-.25.26-.48.51-.69.27-.22.58-.33.95-.33h1.23c.38 0 .69.1.92.29a1.77 1.77 0 01.53.73l7.4 21.9a28.4 28.4 0 01.68 2.62 29.52 29.52 0 01.52-2.61l6.54-21.91a1.31 1.31 0 01.48-.7c.27-.21.58-.32.95-.32h3.32zm9.35 8.88c1.63 0 3.1.27 4.4.82a9.43 9.43 0 015.46 5.94c.5 1.4.74 2.98.74 4.73 0 1.76-.25 3.34-.74 4.75a9.43 9.43 0 01-5.46 5.92c-1.3.52-2.77.79-4.4.79-1.64 0-3.12-.27-4.44-.8a9.42 9.42 0 01-3.35-2.3c-.92-1-1.63-2.2-2.13-3.61-.49-1.41-.73-3-.73-4.75s.24-3.33.73-4.73c.5-1.43 1.2-2.64 2.13-3.63a9.4 9.4 0 013.35-2.31c1.32-.55 2.8-.82 4.44-.82zm0 19.89c2.2 0 3.84-.73 4.93-2.2 1.08-1.48 1.63-3.54 1.63-6.18 0-2.66-.55-4.72-1.63-6.2-1.09-1.49-2.73-2.23-4.93-2.23-1.12 0-2.09.2-2.93.57a5.71 5.71 0 00-2.06 1.65 7.5 7.5 0 00-1.24 2.67c-.26 1.04-.4 2.22-.4 3.54 0 2.64.55 4.7 1.64 6.18 1.1 1.47 2.76 2.2 4.99 2.2zm17.97-15.07a9.94 9.94 0 012.6-3.56 5.64 5.64 0 013.76-1.3c.47 0 .91.05 1.34.15.44.1.83.27 1.16.49l-.28 2.92c-.09.37-.31.55-.66.55-.2 0-.5-.04-.9-.13a6.2 6.2 0 00-3.24.18 4.23 4.23 0 00-1.47.92c-.43.4-.82.9-1.17 1.5a13.1 13.1 0 00-.92 2.02V48h-3.94V25.71h2.24c.43 0 .72.08.88.25.17.16.28.44.33.83l.27 3.39zm15.04-14.59V48h-3.92V15.6h3.92zm19.55 15.43a6.22 6.22 0 00-2.38-2.05 6.7 6.7 0 00-2.86-.6c-2.07 0-3.66.75-4.77 2.23-1.12 1.48-1.68 3.6-1.68 6.33 0 1.46.13 2.7.38 3.74a7.29 7.29 0 001.1 2.56 4.35 4.35 0 001.78 1.45c.7.3 1.5.46 2.4.46 1.29 0 2.41-.3 3.36-.88a9.6 9.6 0 002.67-2.49V31.02zm3.91-15.43V48h-2.33c-.56 0-.9-.27-1.06-.81l-.35-2.71a12.13 12.13 0 01-3.25 2.77 8.28 8.28 0 01-4.23 1.06 7.31 7.31 0 01-6.14-2.9c-.73-.96-1.3-2.15-1.69-3.57a18.35 18.35 0 01.07-9.48 11.29 11.29 0 011.89-3.7 8.7 8.7 0 017.06-3.34 7.96 7.96 0 016.12 2.62V15.59h3.91zM46.61 70.71V93H42.7V70.71h3.91zm.84-7c0 .39-.08.75-.24 1.09a2.81 2.81 0 01-1.52 1.47 2.67 2.67 0 01-2.16 0 2.9 2.9 0 01-1.45-1.47 2.67 2.67 0 010-2.16c.15-.35.35-.65.6-.9.25-.27.53-.47.85-.62a2.67 2.67 0 012.16 0c.35.15.65.35.9.62.27.25.47.55.62.9.16.34.24.7.24 1.08zm7.97 10.24c.49-.54 1-1.04 1.54-1.48a9.85 9.85 0 013.66-1.84 8.96 8.96 0 015.43.35c.94.4 1.72.97 2.33 1.71a7.36 7.36 0 011.43 2.67c.32 1.04.49 2.19.49 3.45V93h-3.94V78.81c0-1.69-.4-3-1.17-3.92-.76-.93-1.93-1.4-3.5-1.4a6.6 6.6 0 00-3.25.83c-1 .56-1.92 1.31-2.77 2.27V93h-3.94V70.71h2.35c.56 0 .9.28 1.04.82l.3 2.42zm57.7 3.3c0 2.36-.37 4.5-1.11 6.44a14.3 14.3 0 01-3.17 4.98 14.1 14.1 0 01-4.93 3.2c-1.9.76-4.02 1.13-6.33 1.13H85.8V61.47h11.77c2.31 0 4.42.39 6.33 1.15a13.8 13.8 0 018.1 8.18 17.75 17.75 0 011.12 6.45zm-4.37 0c0-1.94-.26-3.67-.8-5.2a10.94 10.94 0 00-2.23-3.87 9.57 9.57 0 00-3.53-2.42 12.23 12.23 0 00-4.61-.83h-7.5v24.62h7.5c1.7 0 3.24-.28 4.61-.84a9.7 9.7 0 003.53-2.4 10.94 10.94 0 002.24-3.87c.53-1.53.8-3.26.8-5.2zm19.8 5.72c-1.8.06-3.34.2-4.62.44-1.26.22-2.3.51-3.1.88-.8.36-1.37.8-1.74 1.3-.35.5-.53 1.05-.53 1.67 0 .58.1 1.1.3 1.52a3 3 0 00.76 1.05c.34.27.73.46 1.17.6a6.13 6.13 0 001.45.17 7.28 7.28 0 003.5-.81 11.95 11.95 0 002.82-2.2v-4.62zm-12.65-9.11a12.73 12.73 0 013.98-2.66c1.43-.59 3-.88 4.73-.88 1.25 0 2.36.2 3.33.61a6.81 6.81 0 013.94 4.38c.33 1.04.5 2.19.5 3.43V93h-1.74a1.8 1.8 0 01-.88-.18c-.2-.13-.36-.38-.48-.74l-.44-2.12-1.72 1.46a9.48 9.48 0 01-3.74 1.7c-.69.15-1.46.23-2.3.23-.87 0-1.69-.12-2.45-.35a5.34 5.34 0 01-3.34-2.93 6.64 6.64 0 01-.49-2.64c0-.88.25-1.72.73-2.53a6.33 6.33 0 012.35-2.17c1.09-.63 2.5-1.15 4.25-1.54 1.75-.41 3.89-.65 6.42-.7v-1.75c0-1.73-.37-3.03-1.12-3.91-.75-.9-1.84-1.34-3.28-1.34-.97 0-1.78.12-2.44.37-.64.23-1.2.5-1.7.81l-1.23.82c-.33.23-.67.35-1 .35-.27 0-.5-.07-.69-.2a2.1 2.1 0 01-.48-.53l-.7-1.25zm27.67 19.5c-1.76 0-3.12-.5-4.07-1.48-.94-.98-1.41-2.4-1.41-4.25V74h-2.68a.9.9 0 01-.6-.2c-.16-.14-.24-.36-.24-.66v-1.56l3.65-.46.9-6.89a.9.9 0 01.29-.52.88.88 0 01.62-.22H142v7.67h6.44V74H142v13.38c0 .94.22 1.63.68 2.09.45.45 1.04.68 1.76.68a3.21 3.21 0 001.85-.53l.55-.35c.16-.12.3-.18.41-.18.2 0 .4.13.55.38l1.15 1.87a7.45 7.45 0 01-2.44 1.5 8.53 8.53 0 01-2.95.52zm19.68-10.4c-1.8.07-3.34.21-4.62.45-1.26.22-2.3.51-3.1.88-.8.36-1.37.8-1.74 1.3-.35.5-.53 1.05-.53 1.67 0 .58.1 1.1.3 1.52a2.9 2.9 0 00.76 1.05c.34.27.73.46 1.17.6a6.13 6.13 0 001.45.17 7.3 7.3 0 003.5-.81 12.04 12.04 0 002.82-2.2v-4.62zm-12.65-9.1a12.72 12.72 0 013.99-2.66c1.42-.59 3-.88 4.72-.88 1.25 0 2.36.2 3.33.61a6.81 6.81 0 013.94 4.38c.33 1.04.5 2.19.5 3.43V93h-1.74a1.8 1.8 0 01-.88-.18c-.2-.13-.36-.38-.48-.74l-.44-2.12-1.72 1.46a9.48 9.48 0 01-3.74 1.7c-.69.15-1.46.23-2.3.23-.87 0-1.69-.12-2.45-.35a5.33 5.33 0 01-3.34-2.93 6.62 6.62 0 01-.49-2.64c0-.88.25-1.72.73-2.53a6.33 6.33 0 012.35-2.17c1.09-.63 2.5-1.15 4.25-1.54a31.2 31.2 0 016.42-.7v-1.75c0-1.73-.37-3.03-1.12-3.91-.75-.9-1.84-1.34-3.28-1.34-.97 0-1.78.12-2.44.37-.64.23-1.2.5-1.7.81l-1.22.82c-.34.23-.68.35-1.02.35-.26 0-.49-.07-.68-.2a1.88 1.88 0 01-.48-.53l-.7-1.25zM40.98 32.25c0 2.36-.38 4.53-1.12 6.51a14.26 14.26 0 01-8.1 8.4c-1.9.78-4.02 1.17-6.34 1.17a16.6 16.6 0 01-6.33-1.17 14.31 14.31 0 01-8.08-8.4 18.29 18.29 0 01-1.12-6.51c0-2.36.38-4.53 1.12-6.5.75-1.97 1.8-3.67 3.17-5.1a14.32 14.32 0 014.9-3.34c1.92-.8 4.03-1.19 6.34-1.19 2.32 0 4.43.4 6.34 1.19 1.92.8 3.56 1.9 4.93 3.34a14.87 14.87 0 013.17 5.1 18.1 18.1 0 011.12 6.5zm-4.38 0c0-1.94-.26-3.68-.8-5.22a10.91 10.91 0 00-2.24-3.89 9.68 9.68 0 00-3.52-2.46 11.95 11.95 0 00-4.62-.86c-1.68 0-3.21.28-4.6.86a9.88 9.88 0 00-3.54 2.46 10.91 10.91 0 00-2.24 3.9c-.53 1.53-.8 3.27-.8 5.2 0 1.94.27 3.68.8 5.22a11.17 11.17 0 002.24 3.9 10.01 10.01 0 003.55 2.44c1.38.56 2.9.83 4.6.83s3.24-.27 4.61-.83a9.8 9.8 0 003.52-2.44 11.17 11.17 0 002.25-3.9c.53-1.54.8-3.28.8-5.21zm26.22-6.54V48H60.5c-.56 0-.9-.27-1.05-.81l-.31-2.4a12.45 12.45 0 01-3.26 2.6c-1.2.64-2.58.96-4.13.96-1.22 0-2.3-.2-3.24-.6a6.52 6.52 0 01-2.33-1.7 7.37 7.37 0 01-1.43-2.67c-.3-1.04-.46-2.2-.46-3.45V25.7h3.91v14.22c0 1.68.38 2.99 1.15 3.91.77.93 1.96 1.39 3.54 1.39 1.16 0 2.24-.27 3.23-.82a10.42 10.42 0 002.8-2.28V25.7h3.91zm8.61 4.47a9.94 9.94 0 012.6-3.56 5.64 5.64 0 013.76-1.3c.47 0 .92.05 1.34.15.44.1.83.27 1.17.49l-.3 2.92c-.09.37-.3.55-.66.55-.2 0-.5-.04-.9-.13a6.21 6.21 0 00-3.24.18 4.23 4.23 0 00-1.47.92c-.42.4-.81.9-1.17 1.5-.33.58-.64 1.26-.92 2.02V48H67.7V25.71h2.25c.42 0 .72.08.88.25.16.16.27.44.33.83l.26 3.39zm61.16-13.7L122.75 48h-3.82l-7.99-24.05a21.95 21.95 0 01-.42-1.58 38.36 38.36 0 01-.44 1.58L102.05 48h-3.83L88.4 16.47h3.54c.38 0 .7.1.95.29.26.2.43.43.5.73l6.52 21.9.28 1.28.29 1.46.3-1.46.38-1.27 7.41-21.91c.1-.25.26-.48.51-.69.27-.22.58-.33.95-.33h1.23c.38 0 .69.1.92.29a1.77 1.77 0 01.53.73l7.4 21.9a28.4 28.4 0 01.68 2.62 29.52 29.52 0 01.52-2.61l6.54-21.91a1.31 1.31 0 01.48-.7c.27-.21.58-.32.95-.32h3.32zm9.35 8.88c1.63 0 3.1.27 4.4.82a9.43 9.43 0 015.46 5.94c.5 1.4.74 2.98.74 4.73 0 1.76-.25 3.34-.74 4.75a9.43 9.43 0 01-5.46 5.92c-1.3.52-2.77.79-4.4.79-1.64 0-3.12-.27-4.44-.8a9.42 9.42 0 01-3.35-2.3c-.92-1-1.63-2.2-2.13-3.61-.49-1.41-.73-3-.73-4.75s.24-3.33.73-4.73c.5-1.43 1.2-2.64 2.13-3.63a9.4 9.4 0 013.35-2.31c1.32-.55 2.8-.82 4.44-.82zm0 19.89c2.2 0 3.84-.73 4.93-2.2 1.08-1.48 1.63-3.54 1.63-6.18 0-2.66-.55-4.72-1.63-6.2-1.09-1.49-2.73-2.23-4.93-2.23-1.12 0-2.09.2-2.93.57a5.71 5.71 0 00-2.06 1.65 7.5 7.5 0 00-1.24 2.67c-.26 1.04-.4 2.22-.4 3.54 0 2.64.55 4.7 1.64 6.18 1.1 1.47 2.76 2.2 4.99 2.2zm17.97-15.07a9.94 9.94 0 012.6-3.56 5.64 5.64 0 013.76-1.3c.47 0 .91.05 1.34.15.44.1.83.27 1.16.49l-.28 2.92c-.09.37-.31.55-.66.55-.2 0-.5-.04-.9-.13a6.2 6.2 0 00-3.24.18 4.23 4.23 0 00-1.47.92c-.43.4-.82.9-1.17 1.5a13.1 13.1 0 00-.92 2.02V48h-3.94V25.71h2.24c.43 0 .72.08.88.25.17.16.28.44.33.83l.27 3.39zm15.04-14.59V48h-3.92V15.6h3.92zm19.55 15.43a6.22 6.22 0 00-2.38-2.05 6.7 6.7 0 00-2.86-.6c-2.07 0-3.66.75-4.77 2.23-1.12 1.48-1.68 3.6-1.68 6.33 0 1.46.13 2.7.38 3.74a7.29 7.29 0 001.1 2.56 4.35 4.35 0 001.78 1.45c.7.3 1.5.46 2.4.46 1.29 0 2.41-.3 3.36-.88a9.6 9.6 0 002.67-2.49V31.02zm3.91-15.43V48h-2.33c-.56 0-.9-.27-1.06-.81l-.35-2.71a12.13 12.13 0 01-3.25 2.77 8.28 8.28 0 01-4.23 1.06 7.31 7.31 0 01-6.14-2.9c-.73-.96-1.3-2.15-1.69-3.57a18.35 18.35 0 01.07-9.48 11.29 11.29 0 011.89-3.7 8.7 8.7 0 017.06-3.34 7.96 7.96 0 016.12 2.62V15.59h3.91zM46.61 70.71V93H42.7V70.71h3.91zm.84-7c0 .39-.08.75-.24 1.09a2.81 2.81 0 01-1.52 1.47 2.67 2.67 0 01-2.16 0 2.9 2.9 0 01-1.45-1.47 2.67 2.67 0 010-2.16c.15-.35.35-.65.6-.9.25-.27.53-.47.85-.62a2.67 2.67 0 012.16 0c.35.15.65.35.9.62.27.25.47.55.62.9.16.34.24.7.24 1.08zm7.97 10.24c.49-.54 1-1.04 1.54-1.48a9.85 9.85 0 013.66-1.84 8.96 8.96 0 015.43.35c.94.4 1.72.97 2.33 1.71a7.36 7.36 0 011.43 2.67c.32 1.04.49 2.19.49 3.45V93h-3.94V78.81c0-1.69-.4-3-1.17-3.92-.76-.93-1.93-1.4-3.5-1.4a6.6 6.6 0 00-3.25.83c-1 .56-1.92 1.31-2.77 2.27V93h-3.94V70.71h2.35c.56 0 .9.28 1.04.82l.3 2.42zm57.7 3.3c0 2.36-.37 4.5-1.11 6.44a14.3 14.3 0 01-3.17 4.98 14.1 14.1 0 01-4.93 3.2c-1.9.76-4.02 1.13-6.33 1.13H85.8V61.47h11.77c2.31 0 4.42.39 6.33 1.15a13.8 13.8 0 018.1 8.18 17.75 17.75 0 011.12 6.45zm-4.37 0c0-1.94-.26-3.67-.8-5.2a10.94 10.94 0 00-2.23-3.87 9.57 9.57 0 00-3.53-2.42 12.23 12.23 0 00-4.61-.83h-7.5v24.62h7.5c1.7 0 3.24-.28 4.61-.84a9.7 9.7 0 003.53-2.4 10.94 10.94 0 002.24-3.87c.53-1.53.8-3.26.8-5.2zm19.8 5.72c-1.8.06-3.34.2-4.62.44-1.26.22-2.3.51-3.1.88-.8.36-1.37.8-1.74 1.3-.35.5-.53 1.05-.53 1.67 0 .58.1 1.1.3 1.52a3 3 0 00.76 1.05c.34.27.73.46 1.17.6a6.13 6.13 0 001.45.17 7.28 7.28 0 003.5-.81 11.95 11.95 0 002.82-2.2v-4.62zm-12.65-9.11a12.73 12.73 0 013.98-2.66c1.43-.59 3-.88 4.73-.88 1.25 0 2.36.2 3.33.61a6.81 6.81 0 013.94 4.38c.33 1.04.5 2.19.5 3.43V93h-1.74a1.8 1.8 0 01-.88-.18c-.2-.13-.36-.38-.48-.74l-.44-2.12-1.72 1.46a9.48 9.48 0 01-3.74 1.7c-.69.15-1.46.23-2.3.23-.87 0-1.69-.12-2.45-.35a5.34 5.34 0 01-3.34-2.93 6.64 6.64 0 01-.49-2.64c0-.88.25-1.72.73-2.53a6.33 6.33 0 012.35-2.17c1.09-.63 2.5-1.15 4.25-1.54 1.75-.41 3.89-.65 6.42-.7v-1.75c0-1.73-.37-3.03-1.12-3.91-.75-.9-1.84-1.34-3.28-1.34-.97 0-1.78.12-2.44.37-.64.23-1.2.5-1.7.81l-1.23.82c-.33.23-.67.35-1 .35-.27 0-.5-.07-.69-.2a2.1 2.1 0 01-.48-.53l-.7-1.25zm27.67 19.5c-1.76 0-3.12-.5-4.07-1.48-.94-.98-1.41-2.4-1.41-4.25V74h-2.68a.9.9 0 01-.6-.2c-.16-.14-.24-.36-.24-.66v-1.56l3.65-.46.9-6.89a.9.9 0 01.29-.52.88.88 0 01.62-.22H142v7.67h6.44V74H142v13.38c0 .94.22 1.63.68 2.09.45.45 1.04.68 1.76.68a3.21 3.21 0 001.85-.53l.55-.35c.16-.12.3-.18.41-.18.2 0 .4.13.55.38l1.15 1.87a7.45 7.45 0 01-2.44 1.5 8.53 8.53 0 01-2.95.52zm19.68-10.4c-1.8.07-3.34.21-4.62.45-1.26.22-2.3.51-3.1.88-.8.36-1.37.8-1.74 1.3-.35.5-.53 1.05-.53 1.67 0 .58.1 1.1.3 1.52a2.9 2.9 0 00.76 1.05c.34.27.73.46 1.17.6a6.13 6.13 0 001.45.17 7.3 7.3 0 003.5-.81 12.04 12.04 0 002.82-2.2v-4.62zm-12.65-9.1a12.72 12.72 0 013.99-2.66c1.42-.59 3-.88 4.72-.88 1.25 0 2.36.2 3.33.61a6.81 6.81 0 013.94 4.38c.33 1.04.5 2.19.5 3.43V93h-1.74a1.8 1.8 0 01-.88-.18c-.2-.13-.36-.38-.48-.74l-.44-2.12-1.72 1.46a9.48 9.48 0 01-3.74 1.7c-.69.15-1.46.23-2.3.23-.87 0-1.69-.12-2.45-.35a5.33 5.33 0 01-3.34-2.93 6.62 6.62 0 01-.49-2.64c0-.88.25-1.72.73-2.53a6.33 6.33 0 012.35-2.17c1.09-.63 2.5-1.15 4.25-1.54a31.2 31.2 0 016.42-.7v-1.75c0-1.73-.37-3.03-1.12-3.91-.75-.9-1.84-1.34-3.28-1.34-.97 0-1.78.12-2.44.37-.64.23-1.2.5-1.7.81l-1.22.82c-.34.23-.68.35-1.02.35-.26 0-.49-.07-.68-.2a1.88 1.88 0 01-.48-.53l-.7-1.25zM40.98 32.25c0 2.36-.38 4.53-1.12 6.51a14.26 14.26 0 01-8.1 8.4c-1.9.78-4.02 1.17-6.34 1.17a16.6 16.6 0 01-6.33-1.17 14.31 14.31 0 01-8.08-8.4 18.29 18.29 0 01-1.12-6.51c0-2.36.38-4.53 1.12-6.5.75-1.97 1.8-3.67 3.17-5.1a14.32 14.32 0 014.9-3.34c1.92-.8 4.03-1.19 6.34-1.19 2.32 0 4.43.4 6.34 1.19 1.92.8 3.56 1.9 4.93 3.34a14.87 14.87 0 013.17 5.1 18.1 18.1 0 011.12 6.5zm-4.38 0c0-1.94-.26-3.68-.8-5.22a10.91 10.91 0 00-2.24-3.89 9.68 9.68 0 00-3.52-2.46 11.95 11.95 0 00-4.62-.86c-1.68 0-3.21.28-4.6.86a9.88 9.88 0 00-3.54 2.46 10.91 10.91 0 00-2.24 3.9c-.53 1.53-.8 3.27-.8 5.2 0 1.94.27 3.68.8 5.22a11.17 11.17 0 002.24 3.9 10.01 10.01 0 003.55 2.44c1.38.56 2.9.83 4.6.83s3.24-.27 4.61-.83a9.8 9.8 0 003.52-2.44 11.17 11.17 0 002.25-3.9c.53-1.54.8-3.28.8-5.21zm26.22-6.54V48H60.5c-.56 0-.9-.27-1.05-.81l-.31-2.4a12.45 12.45 0 01-3.26 2.6c-1.2.64-2.58.96-4.13.96-1.22 0-2.3-.2-3.24-.6a6.52 6.52 0 01-2.33-1.7 7.37 7.37 0 01-1.43-2.67c-.3-1.04-.46-2.2-.46-3.45V25.7h3.91v14.22c0 1.68.38 2.99 1.15 3.91.77.93 1.96 1.39 3.54 1.39 1.16 0 2.24-.27 3.23-.82a10.42 10.42 0 002.8-2.28V25.7h3.91zm8.61 4.47a9.94 9.94 0 012.6-3.56 5.64 5.64 0 013.76-1.3c.47 0 .92.05 1.34.15.44.1.83.27 1.17.49l-.3 2.92c-.09.37-.3.55-.66.55-.2 0-.5-.04-.9-.13a6.21 6.21 0 00-3.24.18 4.23 4.23 0 00-1.47.92c-.42.4-.81.9-1.17 1.5-.33.58-.64 1.26-.92 2.02V48H67.7V25.71h2.25c.42 0 .72.08.88.25.16.16.27.44.33.83l.26 3.39zm61.16-13.7L122.75 48h-3.82l-7.99-24.05a21.95 21.95 0 01-.42-1.58 38.36 38.36 0 01-.44 1.58L102.05 48h-3.83L88.4 16.47h3.54c.38 0 .7.1.95.29.26.2.43.43.5.73l6.52 21.9.28 1.28.29 1.46.3-1.46.38-1.27 7.41-21.91c.1-.25.26-.48.51-.69.27-.22.58-.33.95-.33h1.23c.38 0 .69.1.92.29a1.77 1.77 0 01.53.73l7.4 21.9a28.4 28.4 0 01.68 2.62 29.52 29.52 0 01.52-2.61l6.54-21.91a1.31 1.31 0 01.48-.7c.27-.21.58-.32.95-.32h3.32zm9.35 8.88c1.63 0 3.1.27 4.4.82a9.43 9.43 0 015.46 5.94c.5 1.4.74 2.98.74 4.73 0 1.76-.25 3.34-.74 4.75a9.43 9.43 0 01-5.46 5.92c-1.3.52-2.77.79-4.4.79-1.64 0-3.12-.27-4.44-.8a9.42 9.42 0 01-3.35-2.3c-.92-1-1.63-2.2-2.13-3.61-.49-1.41-.73-3-.73-4.75s.24-3.33.73-4.73c.5-1.43 1.2-2.64 2.13-3.63a9.4 9.4 0 013.35-2.31c1.32-.55 2.8-.82 4.44-.82zm0 19.89c2.2 0 3.84-.73 4.93-2.2 1.08-1.48 1.63-3.54 1.63-6.18 0-2.66-.55-4.72-1.63-6.2-1.09-1.49-2.73-2.23-4.93-2.23-1.12 0-2.09.2-2.93.57a5.71 5.71 0 00-2.06 1.65 7.5 7.5 0 00-1.24 2.67c-.26 1.04-.4 2.22-.4 3.54 0 2.64.55 4.7 1.64 6.18 1.1 1.47 2.76 2.2 4.99 2.2zm17.97-15.07a9.94 9.94 0 012.6-3.56 5.64 5.64 0 013.76-1.3c.47 0 .91.05 1.34.15.44.1.83.27 1.16.49l-.28 2.92c-.09.37-.31.55-.66.55-.2 0-.5-.04-.9-.13a6.2 6.2 0 00-3.24.18 4.23 4.23 0 00-1.47.92c-.43.4-.82.9-1.17 1.5a13.1 13.1 0 00-.92 2.02V48h-3.94V25.71h2.24c.43 0 .72.08.88.25.17.16.28.44.33.83l.27 3.39zm15.04-14.59V48h-3.92V15.6h3.92zm19.55 15.43a6.22 6.22 0 00-2.38-2.05 6.7 6.7 0 00-2.86-.6c-2.07 0-3.66.75-4.77 2.23-1.12 1.48-1.68 3.6-1.68 6.33 0 1.46.13 2.7.38 3.74a7.29 7.29 0 001.1 2.56 4.35 4.35 0 001.78 1.45c.7.3 1.5.46 2.4.46 1.29 0 2.41-.3 3.36-.88a9.6 9.6 0 002.67-2.49V31.02zm3.91-15.43V48h-2.33c-.56 0-.9-.27-1.06-.81l-.35-2.71a12.13 12.13 0 01-3.25 2.77 8.28 8.28 0 01-4.23 1.06 7.31 7.31 0 01-6.14-2.9c-.73-.96-1.3-2.15-1.69-3.57a18.35 18.35 0 01.07-9.48 11.29 11.29 0 011.89-3.7 8.7 8.7 0 017.06-3.34 7.96 7.96 0 016.12 2.62V15.59h3.91zM46.61 70.71V93H42.7V70.71h3.91zm.84-7c0 .39-.08.75-.24 1.09a2.81 2.81 0 01-1.52 1.47 2.67 2.67 0 01-2.16 0 2.9 2.9 0 01-1.45-1.47 2.67 2.67 0 010-2.16c.15-.35.35-.65.6-.9.25-.27.53-.47.85-.62a2.67 2.67 0 012.16 0c.35.15.65.35.9.62.27.25.47.55.62.9.16.34.24.7.24 1.08zm7.97 10.24c.49-.54 1-1.04 1.54-1.48a9.85 9.85 0 013.66-1.84 8.96 8.96 0 015.43.35c.94.4 1.72.97 2.33 1.71a7.36 7.36 0 011.43 2.67c.32 1.04.49 2.19.49 3.45V93h-3.94V78.81c0-1.69-.4-3-1.17-3.92-.76-.93-1.93-1.4-3.5-1.4a6.6 6.6 0 00-3.25.83c-1 .56-1.92 1.31-2.77 2.27V93h-3.94V70.71h2.35c.56 0 .9.28 1.04.82l.3 2.42zm57.7 3.3c0 2.36-.37 4.5-1.11 6.44a14.3 14.3 0 01-3.17 4.98 14.1 14.1 0 01-4.93 3.2c-1.9.76-4.02 1.13-6.33 1.13H85.8V61.47h11.77c2.31 0 4.42.39 6.33 1.15a13.8 13.8 0 018.1 8.18 17.75 17.75 0 011.12 6.45zm-4.37 0c0-1.94-.26-3.67-.8-5.2a10.94 10.94 0 00-2.23-3.87 9.57 9.57 0 00-3.53-2.42 12.23 12.23 0 00-4.61-.83h-7.5v24.62h7.5c1.7 0 3.24-.28 4.61-.84a9.7 9.7 0 003.53-2.4 10.94 10.94 0 002.24-3.87c.53-1.53.8-3.26.8-5.2zm19.8 5.72c-1.8.06-3.34.2-4.62.44-1.26.22-2.3.51-3.1.88-.8.36-1.37.8-1.74 1.3-.35.5-.53 1.05-.53 1.67 0 .58.1 1.1.3 1.52a3 3 0 00.76 1.05c.34.27.73.46 1.17.6a6.13 6.13 0 001.45.17 7.28 7.28 0 003.5-.81 11.95 11.95 0 002.82-2.2v-4.62zm-12.65-9.11a12.73 12.73 0 013.98-2.66c1.43-.59 3-.88 4.73-.88 1.25 0 2.36.2 3.33.61a6.81 6.81 0 013.94 4.38c.33 1.04.5 2.19.5 3.43V93h-1.74a1.8 1.8 0 01-.88-.18c-.2-.13-.36-.38-.48-.74l-.44-2.12-1.72 1.46a9.48 9.48 0 01-3.74 1.7c-.69.15-1.46.23-2.3.23-.87 0-1.69-.12-2.45-.35a5.34 5.34 0 01-3.34-2.93 6.64 6.64 0 01-.49-2.64c0-.88.25-1.72.73-2.53a6.33 6.33 0 012.35-2.17c1.09-.63 2.5-1.15 4.25-1.54 1.75-.41 3.89-.65 6.42-.7v-1.75c0-1.73-.37-3.03-1.12-3.91-.75-.9-1.84-1.34-3.28-1.34-.97 0-1.78.12-2.44.37-.64.23-1.2.5-1.7.81l-1.23.82c-.33.23-.67.35-1 .35-.27 0-.5-.07-.69-.2a2.1 2.1 0 01-.48-.53l-.7-1.25zm27.67 19.5c-1.76 0-3.12-.5-4.07-1.48-.94-.98-1.41-2.4-1.41-4.25V74h-2.68a.9.9 0 01-.6-.2c-.16-.14-.24-.36-.24-.66v-1.56l3.65-.46.9-6.89a.9.9 0 01.29-.52.88.88 0 01.62-.22H142v7.67h6.44V74H142v13.38c0 .94.22 1.63.68 2.09.45.45 1.04.68 1.76.68a3.21 3.21 0 001.85-.53l.55-.35c.16-.12.3-.18.41-.18.2 0 .4.13.55.38l1.15 1.87a7.45 7.45 0 01-2.44 1.5 8.53 8.53 0 01-2.95.52zm19.68-10.4c-1.8.07-3.34.21-4.62.45-1.26.22-2.3.51-3.1.88-.8.36-1.37.8-1.74 1.3-.35.5-.53 1.05-.53 1.67 0 .58.1 1.1.3 1.52a2.9 2.9 0 00.76 1.05c.34.27.73.46 1.17.6a6.13 6.13 0 001.45.17 7.3 7.3 0 003.5-.81 12.04 12.04 0 002.82-2.2v-4.62zm-12.65-9.1a12.72 12.72 0 013.99-2.66c1.42-.59 3-.88 4.72-.88 1.25 0 2.36.2 3.33.61a6.81 6.81 0 013.94 4.38c.33 1.04.5 2.19.5 3.43V93h-1.74a1.8 1.8 0 01-.88-.18c-.2-.13-.36-.38-.48-.74l-.44-2.12-1.72 1.46a9.48 9.48 0 01-3.74 1.7c-.69.15-1.46.23-2.3.23-.87 0-1.69-.12-2.45-.35a5.33 5.33 0 01-3.34-2.93 6.62 6.62 0 01-.49-2.64c0-.88.25-1.72.73-2.53a6.33 6.33 0 012.35-2.17c1.09-.63 2.5-1.15 4.25-1.54a31.2 31.2 0 016.42-.7v-1.75c0-1.73-.37-3.03-1.12-3.91-.75-.9-1.84-1.34-3.28-1.34-.97 0-1.78.12-2.44.37-.64.23-1.2.5-1.7.81l-1.22.82c-.34.23-.68.35-1.02.35-.26 0-.49-.07-.68-.2a1.88 1.88 0 01-.48-.53l-.7-1.25z" fill="#fff"/><path fill="#D42B21" d="M0 106.79h210V120H0z"/></g><defs><clipPath id="clip0"><path fill="#fff" d="M0 0h210v120H0z"/></clipPath></defs></svg></g><a href="https://ourworldindata.org/grapher/GDP-vs-services-GDP" target="_blank" rel="noopener" font-family="&quot;Playfair Display&quot;,Georgia,&quot;Times New Roman&quot;,serif"><text font-size="25.2" x="15" y="35.2" fill="#555"><tspan x="15" y="35.16">GDP per head vs share of services in GDP, 1801 to 2016</tspan></text></a><text font-size="14.4" x="15" y="55.7" fill="#666"><tspan x="15" y="55.72">The vertical axis shows historical estimates of the share of services in GDP (estimated at current prices). The</tspan><tspan x="15" y="73">horizontal axis shows GDP per head after adjusting for inflation and price differences across countries (figures are</tspan><tspan x="15" y="90.28">in 2011 international-$).</tspan></text></g><g class="ScatterPlot"><g class="DualAxisView"><g class="HorizontalAxis"><text font-size="12.6" x="323.3" y="516.6"><tspan x="323.33" y="516.58">GDP per capita</tspan></text><text x="151.6" y="496.5" fill="#666" text-anchor="middle" font-size="16.2">$1,000</text><text x="466.7" y="496.5" fill="#666" text-anchor="middle" font-size="16.2">$10,000</text><text x="75.16" y="496.5" fill="#666" text-anchor="start" font-size="16.2">$572</text><text x="246.5" y="496.5" fill="#666" text-anchor="middle" font-size="16.2">$2,000</text><text x="371.8" y="496.5" fill="#666" text-anchor="middle" font-size="16.2">$5,000</text><text x="561.6" y="496.5" fill="#666" text-anchor="middle" font-size="16.2">$20,000</text><text x="686.9" y="496.5" fill="#666" text-anchor="middle" font-size="16.2">$50,000</text></g><g class="VerticalAxis"><text font-size="12.6" x="-384.4" y="25.1" transform="rotate(-90)"><tspan x="-384.39" y="25.08">Share of services in GDP</tspan></text><text x="70.16" y="475.3" dy=".32em" text-anchor="end" fill="#666" font-size="16.2">0%</text><text x="70.16" y="397.9" dy=".32em" text-anchor="end" fill="#666" font-size="16.2">20%</text><text x="70.16" y="320.4" dy=".32em" text-anchor="end" fill="#666" font-size="16.2">40%</text><text x="70.16" y="243" dy=".32em" text-anchor="end" fill="#666" font-size="16.2">60%</text><text x="70.16" y="165.5" dy=".32em" text-anchor="end" fill="#666" font-size="16.2">80%</text></g><g class="AxisGridLines horizontalLines"><path stroke="#999" d="M75.16 475.3h642.93"/><path stroke="#ddd" stroke-dasharray="3,2" d="M75.16 397.9h642.93M75.16 320.4h642.93M75.16 243h642.93M75.16 165.5h642.93"/></g><g class="AxisGridLines verticalLines" stroke="#ddd" stroke-dasharray="3,2"><path d="M151.6 475.3V107.8M246.5 475.3V107.8M371.8 475.3V107.8M466.7 475.3V107.8M561.6 475.3V107.8M686.9 475.3V107.8"/></g></g><g class="PointsWithLabels clickable" clip-path="url(#a)" font-family="Arial, sans-serif"><path fill="rgba(255,255,255,0)" d="M75.16 107.8h642.93v367.5H75.16z"/><defs><clipPath id="a"><path d="M65.16 97.8h662.93v387.5H65.16z"/></clipPath></defs><g class="key-China"><circle cx="157" cy="370" r="1.5" fill="#2D8587" stroke="none" opacity=".7"/><path stroke-width="1.42" opacity=".7" stroke="#2D8587" fill="none" stroke-linecap="butt" d="M157 370l14-9-13 2 9 3 8 1 1-3-3 3-7-8-7-5-26 1 8 13 15 10h15l11-4 1 8-3-4-6-2 9-1 14 7 5 1-2-1 8 1v2l7 5-7 2 6-8 13-4 9 9 5 1 2-1 11 2 7-2 12-9 10-16 6-1 9-2 6-4-2-6-1 4 3-9 8-3 11 4 8 1 10 1 7 1 3-7v-8l5-7 8-5 7-6 9-4 8 1 10 1 12-1 13 2 11-3 5-1 9-4 13 1h8"/><path cx="469" cy="309" r="2.62" fill="#2D8587" opacity=".7" d="M466.38 306.38l5.24 2.62-5.24 2.62z"/></g><g class="key-India"><circle cx="149" cy="369" r="1.4" fill="#2D8587" stroke="none" opacity=".7"/><path stroke-width="1.37" opacity=".7" stroke="#2D8587" fill="none" stroke-linecap="butt" d="M149 369l1-2 2-5 5 3 4-13v-5l5 10-4-7 7 4v-4l7-1 1-2v-5l4 4 7 3-9-5-1 1 8 6v-3l6 2 4-4-2-4h-4l3 8-1-8 8-9-1-3 7 4 4-3-10-5 6 4 6-2 1-5 8 3 2-5 2-5 3-5 3-2 11 4 6-2h4l-2-4 4-2 4-1h4l6-4h7l2-7 6-4 4-6 3-3 4-4 1-5 8-1 8 2h17l8 1 6-5 8-3 8 2 7-5 5-4"/><path cx="370" cy="258" r="2.57" fill="#2D8587" opacity=".7" d="M366.39 257.6l5.62-1.2-2.41 5.21z"/></g><g class="key-United-States"><circle cx="322" cy="328" r="1.1" fill="#E04E4B" stroke="none" opacity=".7"/><path stroke-width=".85" opacity=".7" stroke="#E04E4B" fill="none" stroke-linecap="butt" d="M322 328l5-4 23-8 20 16 20-20 22-15 23-4 28-11-2 2 2-7 3 5 2-6-15-8 1 3 15 19-6 7 10 3-1-27-4-9-6-32 4 2 14 12 1-5v4l6-2-1-5-1-1 6 20-16-9-10-16-23-19-5 8 10 13 15 14h12l9 11-10-22 8 8 10 8 17 20 13 9 10-6 8-10-4-15-15 4-5-16 4 8-5-9 10 5 8 4 2-4h4l-3-7 7 1v-4l-4-6h8l1-3 1-4 6 1h4l6-2 6 3h7l2-4h5l3-3-1-6 2-3 6 1 6 4-2-2-1-5 5 2 5 1h6l3 2-1-3h2l-4-7 4-5 9 2 4-4 3-6h8l3-1 1-2-2-5 3-2 2-2 4 1h5l5-1 4-1 5-2h4v-3l1-4 2 1 4 2h4l2 2 1-1-2-1-5-5h2l2 2 2-1 1 2 2-1 2-4 2-2"/><path cx="695" cy="158" r="2.05" fill="#E04E4B" opacity=".7" d="M692.1 158l4.35-1.45-1.45 4.35z"/></g><g class="key-Indonesia"><circle cx="210" cy="335" r="1.2" fill="#2D8587" stroke="none" opacity=".7"/><path stroke-width=".78" opacity=".7" stroke="#2D8587" fill="none" stroke-linecap="butt" d="M210 335l-6 5 10 2 13 2 11-5h4l12 1 16 5 3 2-3-7h8l8 4h2l5 3 8 9 6-9-8-2 2-10 6-3 1-9 5-5 4 6 6 4h9l9-5 10 1 7-1 9-3h8l9 3 9 6 5 4-21 1-1-3 6 3 3-3 5-6 5-6 5-1 7 4 6 1 7 2 9 8 6 1 7-2 8-1 6-2"/><path cx="456" cy="329" r="1.98" fill="#2D8587" opacity=".7" d="M453.5 327.75l4.38.62-3.13 3.13z"/></g><g class="key-Brazil"><circle cx="433" cy="215" r="1.2" fill="#932834" stroke="none" opacity=".7"/><path stroke-width=".73" opacity=".7" stroke="#932834" fill="none" stroke-linecap="butt" d="M433 215l1 7-2-9 7-3 7 20 5 2 3-17 4 1v-4l6 6 2-1 4 1 1 6 8 5 4-9 6-3 8-3 7 3v-5l10 3 6-1"/><path cx="520" cy="214" r="1.93" fill="#932834" opacity=".7" d="M517.78 212.41l4.12 1.27-3.49 2.54z"/></g><g class="key-Nigeria"><circle cx="188" cy="376" r="1.1" fill="#923E8B" stroke="none" opacity=".7"/><path stroke-width=".7" opacity=".7" stroke="#923E8B" fill="none" stroke-linecap="butt" d="M188 376v-2l4 4 8-3 2-8 5 3-8 1h-28l-5-8 28 1 33 4 12 5 1 2 7 3 11 17-9-14 11 3v-4l-12 2 5-2-2 4-15-13-6-1-12-3-9 4 8 5-1-1-4 14 9 5h5l4 6-2 1 3 8 2-13v-16l2 22 6 5 3-4 4-17v4l8 17 8-13 18 15 12 3 14-10 9 2 8-11 9-2 10-3 10-11 15 18 6-3"/><path cx="375" cy="392" r="1.9" fill="#923E8B" opacity=".7" d="M372.45 391.15h4.25l-2.55 3.4z"/></g><g class="key-Japan"><circle cx="226" cy="308" r="1.1" fill="#2D8587" stroke="none" opacity=".7"/><path stroke-width=".66" opacity=".7" stroke="#2D8587" fill="none" stroke-linecap="butt" d="M226 308h8l1-1-9-4 2 3 8 16-8-11h7l-1-2 13 7v-3l-8-1v1l22 16-8-9 1-7h3l-10-9 12 10-1-8-5-17 14 18 2 14-1-7-1-6-1-3 5 7 1 6 1 4-4-12 8 1 16 6 6 5 1 20 11-1-11-23 12-13v-7 3l3 2h4l-2-10-1 2 9-3 4 6-13-14-1-3 9 8 9 7-1-4 3 11 5 8 3 5 6 13 17 15 2 1-29-49 6-7 9-4 9 1h8l7-6 10 3 16 4 15-2 10-5 10-1 13-3 7-5 12-4 13 3 15-1 15 1h12l5-5 9-1 8 3-3-9 2-9 4-1 5-4h12l2-3h4l3-2 2-3 4 2 6 1 3-3 4-2 8 2h6l6 2 4 1 1-2v-3l1-4 3-1 4-1 1-1-2-4-1-3 3-1 1-6-1-2h2l3 1h2l2-2 2 1-1-2-8-8 6 7v-4"/><path cx="638" cy="204" r="1.86" fill="#2D8587" opacity=".7" d="M636.14 205.86l1.86-3.72 1.86 3.72z"/></g><g class="key-Mexico"><circle cx="323" cy="285" r="1.1" fill="#E04E4B" stroke="none" opacity=".7"/><path stroke-width=".64" opacity=".7" stroke="#E04E4B" fill="none" stroke-linecap="butt" d="M323 285l6-3 1-4h-3l9 1h7l5-3 6-1 3-4v-1l7-2 2-1 2 1 7 1 11-2 4 1 5-2 4 2 7-2h9l1-5 6 1 7 1 3 6 4-1 2-4 1 4h8l9 2 9 11 8-8-4-1-8 36 2-11v-4l-7-5v11l-1-15 3-12 4-4 4-6 4-4 1-9 5-1-11 3 6 9 9 1 6-1 4-4 8-5-1-4 1-6 2-2 5 5 4-3 6 6h4l1 3-7-10 6 1 5 7"/><path cx="524" cy="248" r="1.84" fill="#E04E4B" opacity=".7" d="M524.43 245.43l.64 4.07-3.64-1.93z"/></g><g class="key-Philippines"><circle cx="296" cy="331" r="1.1" fill="#2D8587" stroke="none" opacity=".7"/><path stroke-width=".61" opacity=".7" stroke="#2D8587" fill="none" stroke-linecap="butt" d="M296 331l3 3 8 8 1 5 4-3h8l4-1 3-2 3-1 3-4 2-1 1-7-1-5-14 2-13-10 1-4 2 2 6-2 5-3 1-4-3-6-1-1h1l4 1 4-3 6-4 4-7-2-9 2-4 4-1 2-5h3l5-1h7l5-4 5-2 7-1 4 4v-6h9l4-3 7-6"/><path cx="400" cy="246" r="1.81" fill="#2D8587" opacity=".7" d="M397.45 245.8l3.92-.98-1.57 3.73z"/></g><g class="key-Ethiopia"><circle cx="107" cy="430" r="1.1" fill="#923E8B" stroke="none" opacity=".7"/><path stroke-width=".61" opacity=".7" stroke="#923E8B" fill="none" stroke-linecap="butt" d="M107 430l2-3 15-2 3-4h5l3-2 3-1-1-3 2-1 5-2 3-2 3-6 2-4-2-3-3-5 1 3v4l-4 3 7-6 5-1-4-1-4-7 3 1-6-8-11-2 6 1 8-3-1-6h-2l-6-1-17-3-18 9-2-8 6-15 3-2 7-6 5 3-5-15-4-10 2-1 2-4 2-10-6-6 2 8 10 7 8 3 8-1 8 8 7-2 8-13 11 1 10 8"/><path cx="186" cy="320" r="1.81" fill="#923E8B" opacity=".7" d="M185.72 317.46l1.7 3.67-3.96-.85z"/></g><g class="key-Egypt"><circle cx="214" cy="267" r="1.1" fill="#923E8B" stroke="none" opacity=".7"/><path stroke-width=".6" opacity=".7" stroke="#923E8B" fill="none" stroke-linecap="butt" d="M214 267l5-2 6 8 5 5 6 7h5l-2-3-5-12v5l6 5 6 3h3l1 10 3 6 10 3 17-3h13l6-7 6 8 9-10 1-13 9 29 6-3 4-1 5-3-1 1v2l3 1h1v2l5-2 5-2h6l6-1h7l8-6 8 2 7-4 7-6 8 3 7-4h4l4 2 6 1 6-4 8 1 10-5 8 2h6l8 2v8h0"/><path cx="476" cy="292" r="1.8" fill="#923E8B" opacity=".7" d="M474.2 290.2l3.6 1.8-3.6 1.8z"/></g><g class="key-Germany"><circle cx="528" cy="278" r="1.2" fill="#4C5C78" stroke="none" opacity=".7"/><path stroke-width=".59" opacity=".7" stroke="#4C5C78" fill="none" stroke-linecap="butt" d="M528 278l8 1h5l3-6 5-5 6-3 1-4-1-8 8 1 4-1 4-1 5-2 1-3 1-4-2-2 3-3 5-2 3 1h3l2-4h4l3-1-5-2 7-3 3-10-1-5 5 1 3 2h3l3-1 5-2 4 1 5 6 4-3 1-4 1-4 3-2 2 2 7 2 6-2 3-2-6-10 8-1"/><path cx="660" cy="195" r="1.79" fill="#4C5C78" opacity=".7" d="M658 193.45l3.78 1.33-3.33 2.22z"/></g><g class="key-Thailand"><circle cx="193" cy="338" r="1.1" fill="#2D8587" stroke="none" opacity=".7"/><path stroke-width=".57" opacity=".7" stroke="#2D8587" fill="none" stroke-linecap="butt" d="M193 338l3-21 10 1-6-12 7 4-2-6-3-4 1 1 11-1 11-2 3 1 6-2 6-3 5-8 7 8 10 5 7-7 7-4h6l5-11 3-1 1 7 10 7 3-3 3-5 9 7 10-2h10l4 2 3-1 6-2 4-15 5 10 6-4 4-9 5 4 10 1 15 7 14 2 13-6 8 6 10-5 8-3 8 2 8 2h5l-6-3-13 2 4 1 4 2h3l6 2 8 9 6-2 4 3 5 3 6 2h1l-3-4 9 10-1-2"/><path cx="505" cy="301" r="1.77" fill="#2D8587" opacity=".7" d="M504.2 303.37v-3.95l3.17 2.37z"/></g><g class="key-United-Kingdom"><circle cx="317" cy="336" r="1.1" fill="#4C5C78" stroke="none" opacity=".7"/><path stroke-width=".56" opacity=".7" stroke="#4C5C78" fill="none" stroke-linecap="butt" d="M317 336l1-28-3 4 9 4 13-2 19-28 62-10-5-21 12 9 3 4h5l6-11-6-3 11 4 1-4 3-1-1-10h-8v-1l4 6 8 3 4 2 6 7 4 1 1-6 44 39 3-3 1-3 4-3 6 2 3-2 1-3 3-3 5-2h4l2-3 5-3 8 2-2-7v-5l3-1 3 7 5 2 4 3-3-4-2-3 2 1 5-3 3 2 5-2 5-14 6 2 6-5h3v-6l-2-11v-5l3-2 5 2 2 3 3-2 4-3 4-7 4-3 4-2 3-4 3-7 4-5 2-2 3-3h2l3-1-2-2-8-5 2 2 1 2"/><path cx="638" cy="185" r="1.76" fill="#4C5C78" opacity=".7" d="M638.79 182.64v3.93l-3.15-2.36z"/></g><g class="key-France"><circle cx="232" cy="385" r="1.1" fill="#4C5C78" stroke="none" opacity=".7"/><path stroke-width=".56" opacity=".7" stroke="#4C5C78" fill="none" stroke-linecap="butt" d="M232 385l11 1-6-3h4l4 1-6 3 3-1-2 2h-1l3 4-3 1 2-5 11 2-2-2v1l4 1h-2l2-2 6 1-5-3 9 2 2-5-3 2 6-1 4 1h-4l-1 2 14 5-9-11 4 3h2l-3-2 9 4-8-2 6 3-2-4 5 2 8 1 9-3-10-4 9 6-9-2 11 1 4-1h1l-4-5v3l-9-3 13 5 1 1-9-8 2-8 12 7-11-4 16 2 4-2-12-6 6 2-2-5-9-7 11 3h4l6 1v-3l-2-3-3-7 2-2 1-3h1l3 1 3 2 4-1 3-3 2-2 5-1-3-5 6 2-2 1 6 2h7l-1-3-3-4-2 2 2 3 1-3 2-3 3 3 5 3-1-4 6 3-9-1 12 4 11 4-1-2-11 27-6-27 22 2 5 6 15 3-1-1 3 2-3-9 9-2 8-3-5-1-10-13-9-5 10-2-2-9-3-10 5 11 7 9 128-44 5-2 5 1 6-1 3-6-2-8 6-1 4-5 3-2 4-1 1-4 1-4 3-2 1-6 1-4 1-1 3-2 3-2 5-1h4l3-1 1-5 1-2-1-7 3-1h2l1-3h3l4-1 5 10h4l2-2 1-5 1-3 3-1h2l2-1 3 2-1-2-4-9 2-2 2-1"/><path cx="644" cy="188" r="1.76" fill="#4C5C78" opacity=".7" d="M641.64 187.21h3.93l-2.36 3.15z"/></g><g class="key-Italy"><circle cx="526" cy="294" r="1.2" fill="#4C5C78" stroke="none" opacity=".7"/><path stroke-width=".56" opacity=".7" stroke="#4C5C78" fill="none" stroke-linecap="butt" d="M526 294l2-4 3-6 7 7 6 4-4-4 8 2 3-3 5-4 7-2 5-1v-6l1-6 1-5 3-2 4-3 4-4 4-3 5-2 4 1 3-5 3-4 2-2v-2l4-1 4 3 3-3 3-1 4-1 3-2 5-1 4-2h1v-2l3 1 1-2 3 2 3 1-2-3-7-9h3l1 1"/><path cx="638" cy="221" r="1.76" fill="#4C5C78" opacity=".7" d="M638 218.51l1.24 3.73-3.73-1.24z"/></g><g class="key-South-Africa"><circle cx="367" cy="279" r="1.1" fill="#923E8B" stroke="none" opacity=".7"/><path stroke-width=".54" opacity=".7" stroke="#923E8B" fill="none" stroke-linecap="butt" d="M367 279l2 1 4-2 6 1 5-2 5 2 2-1 5-4 2-6 5 1 3-4 3-5-1 4 3 6 4 10-1-2v-4l-4-6v3l2 11 5 14 3-10-5-9-7-4 3-5-6 2h-3l-1-7h2v-4l-4-6-2-6-3-10 2-2h4l5-3 7-3 4-3 2-2 4-4 6 2 5 3 6 5 4-7 7-3 8-2 8 1 8 1 5 4-1-7 5-6 6 1"/><path cx="489" cy="212" r="1.74" fill="#923E8B" opacity=".7" d="M487.57 210l3.15 2.29-3.72 1.14z"/></g><g class="key-South-Korea"><circle cx="165" cy="376" r="1.1" fill="#2D8587" stroke="none" opacity=".7"/><path stroke-width=".54" opacity=".7" stroke="#2D8587" fill="none" stroke-linecap="butt" d="M165 376l-2 2 10 3 9-6 1-10 6 4 5 6 6 7-6-14 6 3 4-17 2 5 1-2-8 2 5 2 5-5 7-2-10-11v-4l13-9-2 5v7l3 1 2 1 6 5-5-5 23 12-5-5-25-4 28 5-55-35 6-16 3 22-3 9 9-9 4-12 4-18-1 6 5 12 1-7 8 16 9 21 6-17 12-12 9-14 14-6 15 5 10 1 11-2h7l17 5 10 4 8 3h28l12 3h9l-4-15h7l9-5 15 1 12-2 9-3 13-2 15-1 14 3 8-4 11 1 11 2 6-5 7-1 10-1 10 1 7-4 6-3-9-5 12-1 10-2 4-7h10l5 7 4-3 6-3h5l2 1-1-3 7 8 3 2"/><path cx="626" cy="267" r="1.74" fill="#2D8587" opacity=".7" d="M625.52 264.59l1.93 3.38-3.86-.49z"/></g><g class="key-Spain"><circle cx="224" cy="299" r="1.1" fill="#4C5C78" stroke="none" opacity=".7"/><path stroke-width=".53" opacity=".7" stroke="#4C5C78" fill="none" stroke-linecap="butt" d="M224 299l1 2 5-1v21l2-3 6 16-6-13-5-7 3 2 6 5 5-1v2l2 2-1-5-6 1 8 2-2 6-18-19 5-3 3 11 10 4 20 11 11-1-13-13 4-3 4 10 14 11-6-2-10-1 12 3 1 3v1h2v-4h-5l-3 2-3-11 5 9v-13 3l2 3 11-3-6-5 2-1-3 3-14-8 8 9 8-3 1-3 2 3 10 7-7-10-1 5-3 2-2-4 8 1 2 10 5-10 2 2-7-9 10 6-5-6 7 3-5-7v15l5 4-3-9-1 2 2-1 9 6 3-12h5v-6l3 3h8l-3-4 11 14-1-12 9 6-9-16-5-7 3 5-6-11h3l1-5-25-1 1-7 8 14 7-5 4 16-12-15 5 19 1-6-1 1-2-3 1 7 12 13 11-5-1 2 9-3 3 3 10-2 4 3 7 3 83-12 6-1h12l10 2 9 2 2-9 5-3 3-4 2-1 1-7 3-4-1-9 2-4 2-2v-2l4-2 5 6 9-2 8 2 8-1 7-5 5-6 2-13-2-6 5-1 5 4h4l6-1 7-1 7-3h13l3-2h6l4 1h4l4-3v-6l-5-13 1 2-1-1"/><path cx="624" cy="212" r="1.73" fill="#4C5C78" opacity=".7" d="M624 214.45l-1.22-3.67 3.67 1.22z"/></g><g class="key-Tanzania"><circle cx="108" cy="273" r="1.1" fill="#923E8B" stroke="none" opacity=".7"/><path stroke-width=".53" opacity=".7" stroke="#923E8B" fill="none" stroke-linecap="butt" d="M108 273l-5 2 8-1 4 2 3-3 1-6 13 6 1-4 3-2-2 5 3-1 2 2h4v-2l-1-10 3 2 6 17-1 4h0l-2-6-3-7h-5l-3-2-4-8-1 3-4 4v20l2 5 2 2v-13l1-6 2 6 1 17 1-12h0l4 5 7 6 5 1 5 4 6-3 6-3 8-3 8 5 8 7 9 3 8-4 6-4 11-1 7-2h7l9-2h10"/><path cx="261" cy="296" r="1.73" fill="#923E8B" opacity=".7" d="M259.27 294.27l3.46 1.73-3.46 1.73z"/></g><g class="key-Colombia"><circle cx="320" cy="307" r="1.1" fill="#932834" stroke="none" opacity=".7"/><path stroke-width=".53" opacity=".7" stroke="#932834" fill="none" stroke-linecap="butt" d="M320 307v1l4-3 4 5 4 1 1 1 1 3 1 6-1-1 5-4 1-5 3-3 2-6 1-3 4 2v-4l3-4 2-2 4 1 5-1 6-7h11l5 7 5-1v-5l3 6 3 3 9-9 5-8 2 1v-8l-2-3h0l1 5 2 3 5 6 4-7 3-4 1-2 3-3 1 11 3-12 5-4 4-7 5-3v-10l3-6-1-1-8 2 2 7v-4l2 2 4 3 5 1 5 1 7 3 7-1 3 7 1-4 4 1 7 10"/><path cx="489" cy="261" r="1.73" fill="#932834" opacity=".7" d="M489.43 258.6l.56 3.82-3.4-1.85z"/></g><g class="key-Kenya"><circle cx="171" cy="350" r="1.1" fill="#923E8B" stroke="none" opacity=".7"/><path stroke-width=".52" opacity=".7" stroke="#923E8B" fill="none" stroke-linecap="butt" d="M171 350l-8-5 3 7 3-1 8-6-3-7 12 3 3-4 5-7 4-1 5-1 4-8 2 6h2l1-5-5 4v10l7 15 6-13h0l2-12h-3l3 3-4-3-3-4 1-4 4-6 4-6 3 1 2-2 1-4v-6l-4-9-2 5 2 2 5-10 4-5v-3l3-1 2 4v2l4-8-1-8h7l6-1 6-3 8-6-2 5 3 1 10-6 7 7"/><path cx="288" cy="260" r="1.72" fill="#923E8B" opacity=".7" d="M288 257.57l1.22 3.65-3.65-1.22z"/></g><g class="key-Argentina"><circle cx="435" cy="263" r="1.1" fill="#932834" stroke="none" opacity=".7"/><path stroke-width=".52" opacity=".7" stroke="#932834" fill="none" stroke-linecap="butt" d="M435 263l2-5-10-1 5-1 3 3 7 4 1-5 4-1h6l-11-4 8 3 7-1-4 1-6 3 11 9 10 3-1-4 2-2 4-3h9l5 3 4 1 2 8 6 17 6-5-3 4-3 7 6-6-9-7 7 1v-12l-10 1-7 20 3-4v-9l-11-6 8-5 1 5-5 5-10 11-2-27 12-15 12-9 7-3 7-1-5-1 6 3 10 1 4-3-5-8-2-1-7-5-17 48 11 11h11l11-5 10-4 11-3 5-4-10-11 13 6 7 1"/><path cx="561" cy="261" r="1.72" fill="#932834" opacity=".7" d="M559.54 259.05l3.16 2.2-3.65 1.2z"/></g><g class="key-Morocco"><circle cx="281" cy="272" r="1.1" fill="#923E8B" stroke="none" opacity=".7"/><path stroke-width=".5" opacity=".7" stroke="#923E8B" fill="none" stroke-linecap="butt" d="M281 272l4 9v-4l2-1 5 23 6-9 11-5 4-6 1 5 4-1 9-4-6-9 10 3-4-1 2-4 4 3h7l-7-15 10 9v2h2l7 3-5-18-3-5 12 10-10-13 14 16-4-10 8 3v-15l9 1h2l7 5 5-1 3-8 8 4 3-12 7 16h8l6 4 2-4"/><path cx="424" cy="243" r="1.7" fill="#923E8B" opacity=".7" d="M421.72 243.76l3.04-2.28v3.8z"/></g><g class="key-Venezuela"><circle cx="493" cy="318" r="1.1" fill="#932834" stroke="none" opacity=".7"/><path stroke-width=".5" opacity=".7" stroke="#932834" fill="none" stroke-linecap="butt" d="M493 318l1-6 7 6h4l7 4 4-1-2-2h1l2-3 2-2 5-6-1 7v3l4 12 3 28 4-19 6-1 4-1-1-2-3 7-7-3-5-9-2-5-12-9-6 7-3-3 5-10 1 3 4-2-16 16 6 8 10-15 6-5-2-10-5-5 3-3-3 26 7-17-2-24-10 1 3 15 3-13-14 12-13 9 21 14 12 9 12-6 9-13 5 5-6-31-1 30h11"/><path cx="551" cy="314" r="1.7" fill="#932834" opacity=".7" d="M549.3 312.3l3.4 1.7-3.4 1.7z"/></g><g class="key-Peru"><circle cx="403" cy="258" r="1.1" fill="#932834" stroke="none" opacity=".7"/><path stroke-width=".5" opacity=".7" stroke="#932834" fill="none" stroke-linecap="butt" d="M403 258l8-17-15 12-20-12-10-1v-14l-3 3 4 7 14 5 8-2 1-3h7l-2-3v-2h2v-2l5 1 5 1 5 8 7 5 9 11h10l11-3v-8l10 5 8 2"/><path cx="467" cy="251" r="1.7" fill="#932834" opacity=".7" d="M465.76 248.94l2.89 2.47-3.71.83z"/></g><g class="key-Malaysia"><circle cx="315" cy="324" r="1.1" fill="#2D8587" stroke="none" opacity=".7"/><path stroke-width=".49" opacity=".7" stroke="#2D8587" fill="none" stroke-linecap="butt" d="M315 324l7-1h6l16 1 6 2-2 2 13 3 8 3 8 2 8-2 7-3 6-2 5-3 5-3 7-2-5-3-2-2 4-10h8l9-4 10-2 9-3 10-4 10-8 10-1h10l11 3h7l-13-1 5 2 9 8-2-12h5l6 7 7 7 5-1 6 1 7-2 5 3-4-20 9 5 6 3"/><path cx="557" cy="287" r="1.69" fill="#2D8587" opacity=".7" d="M556.24 284.73l2.27 3.03h-3.78z"/></g><g class="key-Ghana"><circle cx="259" cy="309" r="1.1" fill="#923E8B" stroke="none" opacity=".7"/><path stroke-width=".49" opacity=".7" stroke="#923E8B" fill="none" stroke-linecap="butt" d="M259 309l1 1h3-3l-4 2-1-4-2-1v4l10-2 7-3-9-1v15l5 7-21-10-8 2 1 11 9 5h-6l-6-8-2-25-12 3-16 6 4-26 3 10 1-3 3 3 4-4 3 4v6l4-9 2 5h4l3 2 4 3 4-11h3l3-2 3-2 2-2h4l4 2 4 3 5-3 5-4 2-4 9 7 4-2 7-7 15 10"/><path cx="314" cy="287" r="1.69" fill="#923E8B" opacity=".7" d="M313.53 284.66l1.88 3.28-3.75-.47z"/></g><g class="key-Taiwan"><circle cx="208" cy="305" r="1.1" fill="#2D8587" stroke="none" opacity=".7"/><path stroke-width=".48" opacity=".7" stroke="#2D8587" fill="none" stroke-linecap="butt" d="M208 305l11-6 7 6 7-5 6-1 2-2 5 3 4-4 4 5 2 5 5-7 6-3 8 1 11 6 10-3 8-4 11 3h7l9-4 11-3 14-1 14 9 14 11-1-10 4-6 15 8h25l8-3 7-4 6-9 2-3 10 2 12-1 5-4 13 8 19-2 5-8 10-12 5-7 9-2 9-5 8-2 8-7 7-5 7-4 6-5 4-4 7-6 7-5-3-7 6 2 5-1 7-1 7-2h6l8 4v-8l-3 1 13 9 4-4 2-2"/><path cx="653" cy="206" r="1.68" fill="#2D8587" opacity=".7" d="M650.62 206l3.57-1.19-1.19 3.57z"/></g><g class="key-Chile"><circle cx="394" cy="235" r="1.1" fill="#932834" stroke="none" opacity=".7"/><path stroke-width=".47" opacity=".7" stroke="#932834" fill="none" stroke-linecap="butt" d="M394 235l2 1 6-5 7-8-7 16 2 2-1-2 10-16 4-2-12 18 8-7 3-3 3 4 5 10v6h-3l12-1 2-7h2l2 8v-7l9-16-4 4-10-1-1 28-21-34 3 12 11-6 9-5 9 8 8-3 6-9-22-3-6 20 6 6v-6h5l7 5 7 18 11-8 3 2 7-2 13-8 6-6 4 1 10 4 7-9 6-1 2-11h-4l4 2 2-1v3l3 6 6 11 5 5 6 17h4l3-17-5-4 5 9 6-2"/><path cx="559" cy="251" r="1.67" fill="#932834" opacity=".7" d="M556.89 249.94l3.7.53-2.65 2.64z"/></g><g class="key-Netherlands"><circle cx="336" cy="295" r="1.1" fill="#4C5C78" stroke="none" opacity=".7"/><path stroke-width=".46" opacity=".7" stroke="#4C5C78" fill="none" stroke-linecap="butt" d="M336 295l-52-3 18-13-7 6 2-3 2 1-7-2 10 6-3-7 1-3 7 5-1-9-4 4 3 5 7 11 3-6 1 4-13 3 10-7 6-14-3 6 1 1v12l4-4 4 7h1v-4l1 10 2-4-4 3-2-4 1-9-1 6v4l1 4 3-7 4-7 2-2 2 1-2-2-3 9 8 7-3-4 5-1-2-3-4-9h-5l6 8-4-12 6 6 2-2 6-3v3l5 1-5 1 1 1 4 5 5 1-2-3 1 3 3 4-5 5 8-1v3l1 3v-3l-7-8 8 4 1-1 2 4 8-5 1-5h2l1-2 1 1 3 1-7-8-2-2 3-1-3-6 6 8-1-7 4 5 1 1 1-1h0l-3 1 4 2h4-3l5-1 1-4h-4 6l4 2 3-2 2-5 4-1 149-16 4-2 3-2h5l4-2-1-5h5l3-3 2-5 2-2 1 1-2 3-2-2h2l4 4 3 1 3-8 1-8 3 2 5 1h5l3-2 2-5 1-4h4l5 1 5-2 5-2 6-5 7-4 6 3 2-3v-6l1-2h6l6 3 5 1 3 2-6-13h2l3 4"/><path cx="671" cy="196" r="1.66" fill="#4C5C78" opacity=".7" d="M671.33 193.68l.67 3.65-3.32-1.66z"/></g><g class="key-Malawi"><circle cx="87" cy="334" r="1.1" fill="#923E8B" stroke="none" opacity=".7"/><path stroke-width=".46" opacity=".7" stroke="#923E8B" fill="none" stroke-linecap="butt" d="M87 334l4-2-4-1-6 3-6-49h14l9 7 9-3-5-3 5 2-2 5 15-8 9 10 7-11 5 1 1-4 1 4 3 6 7 1 2-2-3 22-12-25-3-11 2 4 1 17 6-19-4 7-5-21-5 3-1 2v-4l6-1-16-12 10 18-12-8 19 15 9 13 5-13-3 11 1 8-3 5-10-7-2-3 3 1 2-10v-9l1-3 8 1 5-1 5 2 4-1"/><path cx="163" cy="271" r="1.66" fill="#923E8B" opacity=".7" d="M160.99 269.8l3.62.8-2.82 2.41z"/></g><g class="key-Zambia"><circle cx="209" cy="368" r="1.1" fill="#923E8B" stroke="none" opacity=".7"/><path stroke-width=".46" opacity=".7" stroke="#923E8B" fill="none" stroke-linecap="butt" d="M209 368l-3-6-5-7v1l13-1 20-34-12 4 7-17-2-2-5 35 3-33-4-30 8 7-6 11 7 13-10-57 4-4-10-11-4-6-8 20v-5l4-28-9 3-8 35-5 7-2 45-4 8-2-18 4 3-2-14 7 24v-20l3 1v1l-19 1 5-6 9-9 5-4v-12l7-10 5-7 7-1 7 1 10 2 10 7h10l11 10 11 1 11-6 12-5 14 4"/><path cx="303" cy="259" r="1.66" fill="#923E8B" opacity=".7" d="M301.86 256.95l2.74 2.5-3.65.69z"/></g><g class="key-Senegal"><circle cx="265" cy="254" r="1.1" fill="#923E8B" stroke="none" opacity=".7"/><path stroke-width=".45" opacity=".7" stroke="#923E8B" fill="none" stroke-linecap="butt" d="M265 254l3 1 1 2 2-15-1 5 1 5v-1l-5-2h4l-13-1h7l-4-11 4 12-12-9 2 16 7 24 8-4-8-9-9-26 4 12-9-17-5 8 15 8-1-15-11 6 1 9 2 3 1 2 3-9-7 3 1-5-1 3-3-1-3 5-4-4 3 9-1-2v-3l3-1 5-1v-1l2 4-4-9 5 2 3-5 3-1-1-6 2-5 1 4-1 6 1 2"/><path cx="256" cy="242" r="1.65" fill="#923E8B" opacity=".7" d="M256.74 239.79v3.69l-2.95-2.22z"/></g><g class="key-Belgium"><circle cx="287" cy="320" r="1.1" fill="#4C5C78" stroke="none" opacity=".7"/><path stroke-width=".45" opacity=".7" stroke="#4C5C78" fill="none" stroke-linecap="butt" d="M287 320l5 11v-11l3-2 4-2 3-1 3 3 2 10 8 11h0l6 3 3-6v-7l-1-3 6 7 1-1 2 3 3-4h3l-1-4 4 5h-1l4 2 5-2 1 1v-2l7 9v2l3-3-1-18v-2l1 1 3-4v-4l5 5v1l3-2 1-5-1-6v-7l1-4 4 4v-2l6 4h2l-2-3 2-1 1-2v-3l2-1 1-1 2 4 1-1 1 2 3 3v-7l2-1 1 1 3-2 1 1v2-4l2-5h3l3-2h2v-1l-9 5h4l11-9 4 10 3 3 1-2 3 6 4 4h6l-2-1-2-11-4-9-7-12h2l-1-4 7-7 1 5 1 16-3-4 8-3-16 12 7 2 6-1 4 7 7-4 7 1-2-6 4 3 5 3 5-2h3l2 3-1-7 3-5 7 3h6l6-1 5-1 8 4 4-5 3-3 5-3 5-2 8 2 8 3 5-8h14l5-1-2-9 7-2 1-4 4-2 3-2 6-4-2-10h2v-1l3-2h1l2-3 3-5 7 2 4 3 3-2 2-13 2-7-2-3 5-5h3l2 1 5-1 2 1 5-2 5-3v1l2-4 1-2 5-3h2l2-3h4v-1"/><path cx="649" cy="175" r="1.65" fill="#4C5C78" opacity=".7" d="M647.35 176.65l1.65-3.3 1.65 3.3z"/></g><g class="key-Bolivia"><circle cx="281" cy="340" r="1.1" fill="#932834" stroke="none" opacity=".7"/><path stroke-width=".45" opacity=".7" stroke="#932834" fill="none" stroke-linecap="butt" d="M281 340l-4 4 3-1v3l4-3 5 1 3-5 4 5 6-6 5-9 8-2 3-7 3-2h2l4-6 5 8 4 8 5-18 7-1 2-2 2-5-4-1-4 2-1 4-9 15-8-3-1-9-3-7-7-8 1-15 2 14 1-4h4l4-6-1-9 3-9h4l3 4 3-5 5-5 4-12-2-5 1 4-1-1h1l2 3 3 7h3l4 10 4 1 6 10 3-7h3l5 5"/><path cx="380" cy="275" r="1.65" fill="#932834" opacity=".7" d="M380 272.67l1.17 3.5-3.5-1.17z"/></g><g class="key-Sweden"><circle cx="193" cy="304" r="1.1" fill="#4C5C78" stroke="none" opacity=".7"/><path stroke-width=".44" opacity=".7" stroke="#4C5C78" fill="none" stroke-linecap="butt" d="M193 304l6-7-2-3-9-5 9 9 1-7-6 6-7-9-7 15h21l-9-16 2 7 2 3 4 6 3-5-4-2 1 2-1 4 2 4 4-2v-5l-1-2 3 4h4l1-5-7 11h2l2-8-3 2h2l-3 3 4-1 2-2-1 2 4 3-1-4-2 2 2 5 2-1-2-1-7-2 3 3 6 4 3-5-5 2 4 2 1-3 5 1 4 2-3-1h-3l2-4 2 7 8-1h-2l4-1 2 4 4-1 3-2-6-1h-4l6 5 2-3 3-4-3 1 2 6-12-5 9 7 17 3 4-1 3 1 1-1 5 3-5-2 9-1h-8l7-1-3-2h4l-5 1 10-2-3-2 3-1 1-2-4-4 2 1 2 1 3-3 7 4-1 2 3 1 1 2h6l4 1 5 2 5-5 3 1v1l4-1-2-3h7l2-1-2-3 11 3 9-4-5 2 1-4 3 6h3l5-1 8 5 3-4 5-9 7 9-8 5-11-12 2-5 8-6-7-8 10-2 4-5 9-2 3-1h7l4-2 4-2 8 3 6-2-4-9-5-7 2 5 8 7 7 6 4 6 3 5 4 1 10-5-11-7-4 7 1 4 4 4h3l4 5 13-1 10-3 2 1 4-1 8 7 4 13 1-5 3-9 5 1 3-4h4l5-5v-2l3-2 7 1 7-1 5 1 6-5 8 1 4-2 1-7 4-5 4-6h6l7 1v-5l3-4 5 2 4 7 3-2 1-6-3-11 2-8h5l2-2v-5l1-1 2 1 6 3h2l3-1 3-1 3-2 2 1v-5l-2-8-2-4-3-5 5 6 5 6 2-4h4l6 2 6-2 7-2 1-2 4-1 3-2 6 2 4-1 6 1h5l-1-5-7-9 9 10"/><path cx="665" cy="204" r="1.64" fill="#4C5C78" opacity=".7" d="M665.12 201.68l.98 3.54-3.42-1.34z"/></g><g class="key-Hong-Kong"><circle cx="456" cy="223" r="1.1" fill="#2D8587" stroke="none" opacity=".7"/><path stroke-width=".43" opacity=".7" stroke="#2D8587" fill="none" stroke-linecap="butt" d="M456 223l7-6 12-4 13-1v-2l-3 2 16 4 11-1 7 3 11 2 10-2 9-1 2-11h6l11-1-1-9h12l15-4 8-5 2-2 3-6 5-11 6-8 4-10 4-7-1-2 2-3 4-1-11-2 2-3 7-2v-4l1-4 2-4 10-3 8-3 7-1 6-4 2 2-5 1h11"/><path cx="671" cy="110" r="1.63" fill="#2D8587" opacity=".7" d="M669.37 108.37l3.26 1.63-3.26 1.63z"/></g><g class="key-Denmark"><circle cx="563" cy="248" r="1.1" fill="#4C5C78" stroke="none" opacity=".7"/><path stroke-width=".43" opacity=".7" stroke="#4C5C78" fill="none" stroke-linecap="butt" d="M563 248h8l5-2-2-4-2-6 9-4 1 1 2-2 4-6v7l-2-6 5-1 3-1 6 7 6-1 4-1 1-3 1-2v1l2-4 2-4h3l1-5 7 1 4 2h4l5-1 3-2 4 1 6 6 1-3 1-4 1-4 4-2 3 2 6 2 1-2v-2l-7-10 3-1 2 3"/><path cx="668" cy="198" r="1.63" fill="#4C5C78" opacity=".7" d="M668.45 195.74l.45 3.62-3.16-1.81z"/></g><g class="key-Singapore"><circle cx="410" cy="200" r="1.1" fill="#2D8587" stroke="none" opacity=".7"/><path stroke-width=".43" opacity=".7" stroke="#2D8587" fill="none" stroke-linecap="butt" d="M410 200l14 6 14 8 12-1 7 1h4l8 3 8-2 9-3 11 5 11 6 8 2 3-5 9 4 9 3-1-11 1 1 12 1 11 2 9-2 9-7 6 5h6l13-1 11-2 7 1 7-1 9-1-5 1 6-5 10 7-3-13h3l4-1 11 6 8-4 10-1 10-9 1-7-2 7 18-1 7-3 3 1"/><path cx="718" cy="190" r="1.63" fill="#2D8587" opacity=".7" d="M716.97 187.94l2.58 2.58-3.61.51z"/></g><g class="key-Costa-Rica"><circle cx="307" cy="290" r="1.1" fill="#E04E4B" stroke="none" opacity=".7"/><path stroke-width=".43" opacity=".7" stroke="#E04E4B" fill="none" stroke-linecap="butt" d="M307 290l-1-1h26l-4-2 10-2-9-12 6 4 11 1v-9l6 5v1l3 2 7 1 2-6h7l6-2h3l6 3 5-1h5l5-4h8l6 3 4 3-1 3h3l8-1 3-6 2-4-1-2-7 13h-14v-2l7 2-3-8 3 3 3-9 1-2 4-4 1-9v5l8 2 6-7 2-2 1 2-2-6 4 2 6 2 2 12 2-17 2-14 2-3 3-2 3 2h3l8 1h8l4-8-3-8 5-4 3-5"/><path cx="495" cy="200" r="1.63" fill="#E04E4B" opacity=".7" d="M492.76 200.56l3.08-1.96-.28 3.64z"/></g><g class="key-Botswana"><circle cx="82" cy="306" r="1.1" fill="#923E8B" stroke="none" opacity=".7"/><path stroke-width=".42" opacity=".7" stroke="#923E8B" fill="none" stroke-linecap="butt" d="M82 306l2-16 11-7 11 22 11 17 11 13 10 10 28-13h27l22-5 5-1 5-11 7-9 6 3 8 4 12 18 10 5 10-6 6-19 10 12 13 11 8 9 5 7 6-8 12 6 35-7 6-20 8-12 3-3 1-17 4-3 8 2 7 5h10l1-11 13 5 2 7 1-9 9-7 6-14h5l6 16 12 4 12-4 9-15-11-41 12 34"/><path cx="497" cy="258" r="1.62" fill="#923E8B" opacity=".7" d="M497.99 255.93l-.45 3.6-2.6-2.52z"/></g><g class="key-Mauritius"><circle cx="354" cy="245" r="1.1" fill="#923E8B" stroke="none" opacity=".7"/><path stroke-width=".41" opacity=".7" stroke="#923E8B" fill="none" stroke-linecap="butt" d="M354 245l24 39-3-2 15 31-13-36v-4l-8-4 3 3-12-9 5 8-3-4 4 12 9 12 14 3 8 10v-8l26-2 6-11 3-3 2 2-17-27 6 6 5 2-1-5 5 8 8 12 12 6 12-4 8-7 5-3 8 2 2-7 4-2 3-6 1-6h5l4-6 4-1v-12h8l-2-8 4-2 2-3-1-6 3 1h4l4 2 1-3 2-3 2-2 3-2"/><path cx="538" cy="206" r="1.61" fill="#923E8B" opacity=".7" d="M535.77 205.55l3.57-.44-1.79 3.12z"/></g><g class="backgroundLabels" fill="#333" font-weight="400"><text x="474" y="309" font-size="14.3" fill="#fff" stroke="#fff" stroke-linecap="round" stroke-linejoin="round" stroke-width=".25em">China</text><text x="474" y="309" font-size="14.3" fill="#2D8587">China</text><text x="373.9" y="254.88" font-size="14.03" fill="#fff" stroke="#fff" stroke-linecap="round" stroke-linejoin="round" stroke-width=".25em">India</text><text x="373.9" y="254.88" font-size="14.03" fill="#2D8587">India</text><text x="627.54" y="154.46" font-size="11.77" fill="#fff" stroke="#fff" stroke-linecap="round" stroke-linejoin="round" stroke-width=".25em">United States</text><text x="627.54" y="154.46" font-size="11.77" fill="#E04E4B">United States</text><text x="460.74" y="327.42" font-size="11.59" fill="#fff" stroke="#fff" stroke-linecap="round" stroke-linejoin="round" stroke-width=".25em">Indonesia</text><text x="460.74" y="327.42" font-size="11.59" fill="#2D8587">Indonesia</text><text x="524.93" y="213.18" font-size="11.47" fill="#fff" stroke="#fff" stroke-linecap="round" stroke-linejoin="round" stroke-width=".25em">Brazil</text><text x="524.93" y="213.18" font-size="11.47" fill="#932834">Brazil</text><text x="379.47" y="389.76" font-size="11.39" fill="#fff" stroke="#fff" stroke-linecap="round" stroke-linejoin="round" stroke-width=".25em">Nigeria</text><text x="379.47" y="389.76" font-size="11.39" fill="#923E8B">Nigeria</text><text x="638" y="199" font-size="11.31" fill="#fff" stroke="#fff" stroke-linecap="round" stroke-linejoin="round" stroke-width=".25em">Japan</text><text x="638" y="199" font-size="11.31" fill="#2D8587">Japan</text><text x="526.91" y="257.71" font-size="11.28" fill="#fff" stroke="#fff" stroke-linecap="round" stroke-linejoin="round" stroke-width=".25em">Mexico</text><text x="526.91" y="257.71" font-size="11.28" fill="#E04E4B">Mexico</text><text x="189.9" y="328.73" font-size="11.22" fill="#fff" stroke="#fff" stroke-linecap="round" stroke-linejoin="round" stroke-width=".25em">Ethiopia</text><text x="189.9" y="328.73" font-size="11.22" fill="#923E8B">Ethiopia</text><text x="641.54" y="230.11" font-size="11.14" fill="#fff" stroke="#fff" stroke-linecap="round" stroke-linejoin="round" stroke-width=".25em">Italy</text><text x="641.54" y="230.11" font-size="11.14" fill="#4C5C78">Italy</text><text x="630.16" y="275.33" font-size="11.12" fill="#fff" stroke="#fff" stroke-linecap="round" stroke-linejoin="round" stroke-width=".25em">South Korea</text><text x="630.16" y="275.33" font-size="11.12" fill="#2D8587">South Korea</text><text x="591.91" y="208.46" font-size="11.11" fill="#fff" stroke="#fff" stroke-linecap="round" stroke-linejoin="round" stroke-width=".25em">Spain</text><text x="591.91" y="208.46" font-size="11.11" fill="#4C5C78">Spain</text><text x="266" y="296" font-size="11.11" fill="#fff" stroke="#fff" stroke-linecap="round" stroke-linejoin="round" stroke-width=".25em">Tanzania</text><text x="266" y="296" font-size="11.11" fill="#923E8B">Tanzania</text><text x="291.54" y="269.09" font-size="11.1" fill="#fff" stroke="#fff" stroke-linecap="round" stroke-linejoin="round" stroke-width=".25em">Kenya</text><text x="291.54" y="269.09" font-size="11.1" fill="#923E8B">Kenya</text><text x="426.24" y="238.53" font-size="11.08" fill="#fff" stroke="#fff" stroke-linecap="round" stroke-linejoin="round" stroke-width=".25em">Morocco</text><text x="426.24" y="238.53" font-size="11.08" fill="#923E8B">Morocco</text><text x="556" y="314" font-size="11.07" fill="#fff" stroke="#fff" stroke-linecap="round" stroke-linejoin="round" stroke-width=".25em">Venezuela</text><text x="556" y="314" font-size="11.07" fill="#932834">Venezuela</text><text x="471.85" y="257.75" font-size="11.07" fill="#fff" stroke="#fff" stroke-linecap="round" stroke-linejoin="round" stroke-width=".25em">Peru</text><text x="471.85" y="257.75" font-size="11.07" fill="#932834">Peru</text><text x="561.47" y="294.77" font-size="11.07" fill="#fff" stroke="#fff" stroke-linecap="round" stroke-linejoin="round" stroke-width=".25em">Malaysia</text><text x="561.47" y="294.77" font-size="11.07" fill="#2D8587">Malaysia</text><text x="318.16" y="295.3" font-size="11.06" fill="#fff" stroke="#fff" stroke-linecap="round" stroke-linejoin="round" stroke-width=".25em">Ghana</text><text x="318.16" y="295.3" font-size="11.06" fill="#923E8B">Ghana</text><text x="167.85" y="269.79" font-size="11.03" fill="#fff" stroke="#fff" stroke-linecap="round" stroke-linejoin="round" stroke-width=".25em">Malawi</text><text x="167.85" y="269.79" font-size="11.03" fill="#923E8B">Malawi</text><text x="383.54" y="284.05" font-size="11.02" fill="#fff" stroke="#fff" stroke-linecap="round" stroke-linejoin="round" stroke-width=".25em">Bolivia</text><text x="383.54" y="284.05" font-size="11.02" fill="#932834">Bolivia</text><text x="620.59" y="118.82" font-size="11.02" fill="#fff" stroke="#fff" stroke-linecap="round" stroke-linejoin="round" stroke-width=".25em">Hong Kong</text><text x="620.59" y="118.82" font-size="11.02" fill="#2D8587">Hong Kong</text></g></g><g class="ScatterColorLegend clickable" cursor="pointer"><g class="legendMark"><path fill="#923E8B" d="M738.09 109.6h9v9h-9z"/><text font-size="12.6" x="752.1" y="117.9"><tspan x="752.09" y="117.88">Africa</tspan></text></g><g class="legendMark"><path fill="#2D8587" d="M738.09 127.2h9v9h-9z"/><text font-size="12.6" x="752.1" y="135.5"><tspan x="752.09" y="135.48">Asia</tspan></text></g><g class="legendMark"><path fill="#4C5C78" d="M738.09 144.8h9v9h-9z"/><text font-size="12.6" x="752.1" y="153.1"><tspan x="752.09" y="153.08">Europe</tspan></text></g><g class="legendMark"><path fill="#E04E4B" d="M738.09 162.4h9v9h-9z"/><text font-size="12.6" x="752.1" y="170.7"><tspan x="752.09" y="170.68">North America</tspan></text></g><g class="legendMark"><path fill="#932834" d="M738.09 180h9v9h-9z"/><text font-size="12.6" x="752.1" y="188.3"><tspan x="752.09" y="188.28">South America</tspan></text></g></g><path stroke="#ccc" d="M738.09 197.8H830"/><g class="clickable"><g class="ConnectedScatterLegend"><text font-size="12.6" x="738.1" y="216.9" fill="#333"><tspan x="738.09" y="216.88">1801</tspan></text><text font-size="12.6" x="806.8" y="216.9" fill="#333"><tspan x="806.78" y="216.88">2016</tspan></text><path stroke="#666" stroke-width="1" d="M771.32 212.6h30.46"/><circle cx="771.32" cy="212.6" r="2" fill="#666" stroke="#ccc" stroke-width=".2"/><circle cx="781.47" cy="212.6" r="2" fill="#666" stroke="#ccc" stroke-width=".2"/><circle cx="791.62" cy="212.6" r="2" fill="#666" stroke="#ccc" stroke-width=".2"/><path cx="801.78" cy="212.6" r="3" fill="#666" stroke="#ccc" stroke-width=".2" d="M798.78 209.6l6 3-6 3z"/></g></g></g><g class="SourcesFooter" fill="#777"><g fill="#777"><text font-size="12.6" x="15" y="554.2"><tspan x="15" y="554.18">Source: Our World In Data based on Herrendorf et al. (2014) and GGDC-10 (2015), Maddison Project Database 2020 (Bolt and van Zanden</tspan><tspan x="15" y="568.04">(2020))</tspan></text></g><text font-size="12.6" x="15" y="582.5"><tspan x="15" y="582.48"><a class="cclogo" href="http://creativecommons.org/licenses/by/4.0/deed.en_US" target="_blank" fill="#777">CC BY</a></tspan></text></g></svg>