<svg xmlns="http://www.w3.org/2000/svg" version="1.1" style="font-family:Lato,'Helvetica Neue',Helvetica,Arial,sans-serif;font-size:18px;background-color:#fff;text-rendering:geometricPrecision;-webkit-font-smoothing:antialiased" width="850" height="600" viewBox="0 0 850 600"><g class="HeaderView"><g transform="matrix(.29 0 0 .29 774 15)"><svg className="owidLog" width="210" height="120" viewBox="0 0 210 120" fill="none" xmlns="http://www.w3.org/2000/svg"><g clip-path="url(#a)"><path d="M0 0h210v107.89H0V0z" fill="#002147"/><path d="M40.98 32.25c0 2.36-.38 4.53-1.12 6.51a14.26 14.26 0 0 1-8.1 8.4c-1.9.78-4.02 1.17-6.34 1.17a16.6 16.6 0 0 1-6.33-1.17 14.31 14.31 0 0 1-8.08-8.4 18.29 18.29 0 0 1-1.12-6.51c0-2.36.38-4.53 1.12-6.5.75-1.97 1.8-3.67 3.17-5.1a14.32 14.32 0 0 1 4.9-3.34c1.92-.8 4.03-1.19 6.34-1.19 2.32 0 4.43.4 6.34 1.19 1.92.8 3.56 1.9 4.93 3.34a14.87 14.87 0 0 1 3.17 5.1 18.1 18.1 0 0 1 1.12 6.5zm-4.38 0c0-1.94-.26-3.68-.8-5.22a10.91 10.91 0 0 0-2.24-3.89 9.68 9.68 0 0 0-3.52-2.46 11.95 11.95 0 0 0-4.62-.86c-1.68 0-3.21.28-4.6.86a9.88 9.88 0 0 0-3.54 2.46 10.91 10.91 0 0 0-2.24 3.9c-.53 1.53-.8 3.27-.8 5.2 0 1.94.27 3.68.8 5.22a11.17 11.17 0 0 0 2.24 3.9 10.01 10.01 0 0 0 3.55 2.44c1.38.56 2.9.83 4.6.83s3.24-.27 4.61-.83a9.8 9.8 0 0 0 3.52-2.44 11.17 11.17 0 0 0 2.25-3.9c.53-1.54.8-3.28.8-5.21zm26.22-6.54V48H60.5c-.56 0-.9-.27-1.05-.81l-.31-2.4a12.45 12.45 0 0 1-3.26 2.6c-1.2.64-2.58.96-4.13.96-1.22 0-2.3-.2-3.24-.6a6.52 6.52 0 0 1-2.33-1.7 7.37 7.37 0 0 1-1.43-2.67c-.3-1.04-.46-2.2-.46-3.45V25.7h3.91v14.22c0 1.68.38 2.99 1.15 3.91.77.93 1.96 1.39 3.54 1.39 1.16 0 2.24-.27 3.23-.82a10.42 10.42 0 0 0 2.8-2.28V25.7h3.91zm8.61 4.47a9.94 9.94 0 0 1 2.6-3.56 5.64 5.64 0 0 1 3.76-1.3c.47 0 .92.05 1.34.15.44.1.83.27 1.17.49l-.3 2.92c-.09.37-.3.55-.66.55-.2 0-.5-.04-.9-.13a6.21 6.21 0 0 0-3.24.18 4.23 4.23 0 0 0-1.47.92c-.42.4-.81.9-1.17 1.5-.33.58-.64 1.26-.92 2.02V48H67.7V25.71h2.25c.42 0 .72.08.88.25.16.16.27.44.33.83l.26 3.39zm61.16-13.7L122.75 48h-3.82l-7.99-24.05a21.95 21.95 0 0 1-.42-1.58 38.36 38.36 0 0 1-.44 1.58L102.05 48h-3.83L88.4 16.47h3.54c.38 0 .7.1.95.29.26.2.43.43.5.73l6.52 21.9.28 1.28.29 1.46.3-1.46.38-1.27 7.41-21.91c.1-.25.26-.48.51-.69.27-.22.58-.33.95-.33h1.23c.38 0 .69.1.92.29a1.77 1.77 0 0 1 .53.73l7.4 21.9a28.4 28.4 0 0 1 .68 2.62 29.52 29.52 0 0 1 .52-2.61l6.54-21.91a1.31 1.31 0 0 1 .48-.7c.27-.21.58-.32.95-.32h3.32zm9.35 8.88c1.63 0 3.1.27 4.4.82a9.43 9.43 0 0 1 5.46 5.94c.5 1.4.74 2.98.74 4.73 0 1.76-.25 3.34-.74 4.75a9.43 9.43 0 0 1-5.46 5.92c-1.3.52-2.77.79-4.4.79-1.64 0-3.12-.27-4.44-.8a9.42 9.42 0 0 1-3.35-2.3c-.92-1-1.63-2.2-2.13-3.61-.49-1.41-.73-3-.73-4.75s.24-3.33.73-4.73c.5-1.43 1.2-2.64 2.13-3.63a9.4 9.4 0 0 1 3.35-2.31c1.32-.55 2.8-.82 4.44-.82zm0 19.89c2.2 0 3.84-.73 4.93-2.2 1.08-1.48 1.63-3.54 1.63-6.18 0-2.66-.55-4.72-1.63-6.2-1.09-1.49-2.73-2.23-4.93-2.23-1.12 0-2.09.2-2.93.57a5.71 5.71 0 0 0-2.06 1.65 7.5 7.5 0 0 0-1.24 2.67c-.26 1.04-.4 2.22-.4 3.54 0 2.64.55 4.7 1.64 6.18 1.1 1.47 2.76 2.2 4.99 2.2zm17.97-15.07a9.94 9.94 0 0 1 2.6-3.56 5.64 5.64 0 0 1 3.76-1.3c.47 0 .91.05 1.34.15.44.1.83.27 1.16.49l-.28 2.92c-.09.37-.31.55-.66.55-.2 0-.5-.04-.9-.13a6.2 6.2 0 0 0-3.24.18 4.23 4.23 0 0 0-1.47.92c-.43.4-.82.9-1.17 1.5a13.1 13.1 0 0 0-.92 2.02V48h-3.94V25.71h2.24c.43 0 .72.08.88.25.17.16.28.44.33.83l.27 3.39zm15.04-14.59V48h-3.92V15.6h3.92zm19.55 15.43a6.22 6.22 0 0 0-2.38-2.05 6.7 6.7 0 0 0-2.86-.6c-2.07 0-3.66.75-4.77 2.23-1.12 1.48-1.68 3.6-1.68 6.33 0 1.46.13 2.7.38 3.74a7.29 7.29 0 0 0 1.1 2.56 4.35 4.35 0 0 0 1.78 1.45c.7.3 1.5.46 2.4.46 1.29 0 2.41-.3 3.36-.88a9.6 9.6 0 0 0 2.67-2.49V31.02zm3.91-15.43V48h-2.33c-.56 0-.9-.27-1.06-.81l-.35-2.71a12.13 12.13 0 0 1-3.25 2.77 8.28 8.28 0 0 1-4.23 1.06 7.31 7.31 0 0 1-6.14-2.9c-.73-.96-1.3-2.15-1.69-3.57a18.35 18.35 0 0 1 .07-9.48 11.29 11.29 0 0 1 1.89-3.7 8.7 8.7 0 0 1 7.06-3.34 7.96 7.96 0 0 1 6.12 2.62V15.59h3.91zM46.61 70.71V93H42.7V70.71h3.91zm.84-7c0 .39-.08.75-.24 1.09a2.81 2.81 0 0 1-1.52 1.47 2.67 2.67 0 0 1-2.16 0 2.9 2.9 0 0 1-1.45-1.47 2.67 2.67 0 0 1 0-2.16c.15-.35.35-.65.6-.9.25-.27.53-.47.85-.62a2.67 2.67 0 0 1 2.16 0c.35.15.65.35.9.62.27.25.47.55.62.9.16.34.24.7.24 1.08zm7.97 10.24c.49-.54 1-1.04 1.54-1.48a9.85 9.85 0 0 1 3.66-1.84 8.96 8.96 0 0 1 5.43.35c.94.4 1.72.97 2.33 1.71a7.36 7.36 0 0 1 1.43 2.67c.32 1.04.49 2.19.49 3.45V93h-3.94V78.81c0-1.69-.4-3-1.17-3.92-.76-.93-1.93-1.4-3.5-1.4a6.6 6.6 0 0 0-3.25.83c-1 .56-1.92 1.31-2.77 2.27V93h-3.94V70.71h2.35c.56 0 .9.28 1.04.82l.3 2.42zm57.7 3.3c0 2.36-.37 4.5-1.11 6.44a14.3 14.3 0 0 1-3.17 4.98 14.1 14.1 0 0 1-4.93 3.2c-1.9.76-4.02 1.13-6.33 1.13H85.8V61.47h11.77c2.31 0 4.42.39 6.33 1.15a13.8 13.8 0 0 1 8.1 8.18 17.75 17.75 0 0 1 1.12 6.45zm-4.37 0c0-1.94-.26-3.67-.8-5.2a10.94 10.94 0 0 0-2.23-3.87 9.57 9.57 0 0 0-3.53-2.42 12.23 12.23 0 0 0-4.61-.83h-7.5v24.62h7.5c1.7 0 3.24-.28 4.61-.84a9.7 9.7 0 0 0 3.53-2.4 10.94 10.94 0 0 0 2.24-3.87c.53-1.53.8-3.26.8-5.2zm19.8 5.72c-1.8.06-3.34.2-4.62.44-1.26.22-2.3.51-3.1.88-.8.36-1.37.8-1.74 1.3-.35.5-.53 1.05-.53 1.67 0 .58.1 1.1.3 1.52a3 3 0 0 0 .76 1.05c.34.27.73.46 1.17.6a6.13 6.13 0 0 0 1.45.17 7.28 7.28 0 0 0 3.5-.81 11.95 11.95 0 0 0 2.82-2.2v-4.62zm-12.65-9.11a12.73 12.73 0 0 1 3.98-2.66c1.43-.59 3-.88 4.73-.88 1.25 0 2.36.2 3.33.61a6.81 6.81 0 0 1 3.94 4.38c.33 1.04.5 2.19.5 3.43V93h-1.74a1.8 1.8 0 0 1-.88-.18c-.2-.13-.36-.38-.48-.74l-.44-2.12-1.72 1.46a9.48 9.48 0 0 1-3.74 1.7c-.69.15-1.46.23-2.3.23-.87 0-1.69-.12-2.45-.35a5.34 5.34 0 0 1-3.34-2.93 6.64 6.64 0 0 1-.49-2.64c0-.88.25-1.72.73-2.53a6.33 6.33 0 0 1 2.35-2.17c1.09-.63 2.5-1.15 4.25-1.54 1.75-.41 3.89-.65 6.42-.7v-1.75c0-1.73-.37-3.03-1.12-3.91-.75-.9-1.84-1.34-3.28-1.34-.97 0-1.78.12-2.44.37-.64.23-1.2.5-1.7.81l-1.23.82c-.33.23-.67.35-1 .35-.27 0-.5-.07-.69-.2a2.1 2.1 0 0 1-.48-.53l-.7-1.25zm27.67 19.5c-1.76 0-3.12-.5-4.07-1.48-.94-.98-1.41-2.4-1.41-4.25V74h-2.68a.9.9 0 0 1-.6-.2c-.16-.14-.24-.36-.24-.66v-1.56l3.65-.46.9-6.89a.9.9 0 0 1 .29-.52.88.88 0 0 1 .62-.22H142v7.67h6.44V74H142v13.38c0 .94.22 1.63.68 2.09.45.45 1.04.68 1.76.68a3.21 3.21 0 0 0 1.85-.53l.55-.35c.16-.12.3-.18.41-.18.2 0 .4.13.55.38l1.15 1.87a7.45 7.45 0 0 1-2.44 1.5 8.53 8.53 0 0 1-2.95.52zm19.68-10.4c-1.8.07-3.34.21-4.62.45-1.26.22-2.3.51-3.1.88-.8.36-1.37.8-1.74 1.3-.35.5-.53 1.05-.53 1.67 0 .58.1 1.1.3 1.52a2.9 2.9 0 0 0 .76 1.05c.34.27.73.46 1.17.6a6.13 6.13 0 0 0 1.45.17 7.3 7.3 0 0 0 3.5-.81 12.04 12.04 0 0 0 2.82-2.2v-4.62zm-12.65-9.1a12.72 12.72 0 0 1 3.99-2.66c1.42-.59 3-.88 4.72-.88 1.25 0 2.36.2 3.33.61a6.81 6.81 0 0 1 3.94 4.38c.33 1.04.5 2.19.5 3.43V93h-1.74a1.8 1.8 0 0 1-.88-.18c-.2-.13-.36-.38-.48-.74l-.44-2.12-1.72 1.46a9.48 9.48 0 0 1-3.74 1.7c-.69.15-1.46.23-2.3.23-.87 0-1.69-.12-2.45-.35a5.33 5.33 0 0 1-3.34-2.93 6.62 6.62 0 0 1-.49-2.64c0-.88.25-1.72.73-2.53a6.33 6.33 0 0 1 2.35-2.17c1.09-.63 2.5-1.15 4.25-1.54a31.2 31.2 0 0 1 6.42-.7v-1.75c0-1.73-.37-3.03-1.12-3.91-.75-.9-1.84-1.34-3.28-1.34-.97 0-1.78.12-2.44.37-.64.23-1.2.5-1.7.81l-1.22.82c-.34.23-.68.35-1.02.35-.26 0-.49-.07-.68-.2a1.88 1.88 0 0 1-.48-.53l-.7-1.25zM40.98 32.25c0 2.36-.38 4.53-1.12 6.51a14.26 14.26 0 0 1-8.1 8.4c-1.9.78-4.02 1.17-6.34 1.17a16.6 16.6 0 0 1-6.33-1.17 14.31 14.31 0 0 1-8.08-8.4 18.29 18.29 0 0 1-1.12-6.51c0-2.36.38-4.53 1.12-6.5.75-1.97 1.8-3.67 3.17-5.1a14.32 14.32 0 0 1 4.9-3.34c1.92-.8 4.03-1.19 6.34-1.19 2.32 0 4.43.4 6.34 1.19 1.92.8 3.56 1.9 4.93 3.34a14.87 14.87 0 0 1 3.17 5.1 18.1 18.1 0 0 1 1.12 6.5zm-4.38 0c0-1.94-.26-3.68-.8-5.22a10.91 10.91 0 0 0-2.24-3.89 9.68 9.68 0 0 0-3.52-2.46 11.95 11.95 0 0 0-4.62-.86c-1.68 0-3.21.28-4.6.86a9.88 9.88 0 0 0-3.54 2.46 10.91 10.91 0 0 0-2.24 3.9c-.53 1.53-.8 3.27-.8 5.2 0 1.94.27 3.68.8 5.22a11.17 11.17 0 0 0 2.24 3.9 10.01 10.01 0 0 0 3.55 2.44c1.38.56 2.9.83 4.6.83s3.24-.27 4.61-.83a9.8 9.8 0 0 0 3.52-2.44 11.17 11.17 0 0 0 2.25-3.9c.53-1.54.8-3.28.8-5.21zm26.22-6.54V48H60.5c-.56 0-.9-.27-1.05-.81l-.31-2.4a12.45 12.45 0 0 1-3.26 2.6c-1.2.64-2.58.96-4.13.96-1.22 0-2.3-.2-3.24-.6a6.52 6.52 0 0 1-2.33-1.7 7.37 7.37 0 0 1-1.43-2.67c-.3-1.04-.46-2.2-.46-3.45V25.7h3.91v14.22c0 1.68.38 2.99 1.15 3.91.77.93 1.96 1.39 3.54 1.39 1.16 0 2.24-.27 3.23-.82a10.42 10.42 0 0 0 2.8-2.28V25.7h3.91zm8.61 4.47a9.94 9.94 0 0 1 2.6-3.56 5.64 5.64 0 0 1 3.76-1.3c.47 0 .92.05 1.34.15.44.1.83.27 1.17.49l-.3 2.92c-.09.37-.3.55-.66.55-.2 0-.5-.04-.9-.13a6.21 6.21 0 0 0-3.24.18 4.23 4.23 0 0 0-1.47.92c-.42.4-.81.9-1.17 1.5-.33.58-.64 1.26-.92 2.02V48H67.7V25.71h2.25c.42 0 .72.08.88.25.16.16.27.44.33.83l.26 3.39zm61.16-13.7L122.75 48h-3.82l-7.99-24.05a21.95 21.95 0 0 1-.42-1.58 38.36 38.36 0 0 1-.44 1.58L102.05 48h-3.83L88.4 16.47h3.54c.38 0 .7.1.95.29.26.2.43.43.5.73l6.52 21.9.28 1.28.29 1.46.3-1.46.38-1.27 7.41-21.91c.1-.25.26-.48.51-.69.27-.22.58-.33.95-.33h1.23c.38 0 .69.1.92.29a1.77 1.77 0 0 1 .53.73l7.4 21.9a28.4 28.4 0 0 1 .68 2.62 29.52 29.52 0 0 1 .52-2.61l6.54-21.91a1.31 1.31 0 0 1 .48-.7c.27-.21.58-.32.95-.32h3.32zm9.35 8.88c1.63 0 3.1.27 4.4.82a9.43 9.43 0 0 1 5.46 5.94c.5 1.4.74 2.98.74 4.73 0 1.76-.25 3.34-.74 4.75a9.43 9.43 0 0 1-5.46 5.92c-1.3.52-2.77.79-4.4.79-1.64 0-3.12-.27-4.44-.8a9.42 9.42 0 0 1-3.35-2.3c-.92-1-1.63-2.2-2.13-3.61-.49-1.41-.73-3-.73-4.75s.24-3.33.73-4.73c.5-1.43 1.2-2.64 2.13-3.63a9.4 9.4 0 0 1 3.35-2.31c1.32-.55 2.8-.82 4.44-.82zm0 19.89c2.2 0 3.84-.73 4.93-2.2 1.08-1.48 1.63-3.54 1.63-6.18 0-2.66-.55-4.72-1.63-6.2-1.09-1.49-2.73-2.23-4.93-2.23-1.12 0-2.09.2-2.93.57a5.71 5.71 0 0 0-2.06 1.65 7.5 7.5 0 0 0-1.24 2.67c-.26 1.04-.4 2.22-.4 3.54 0 2.64.55 4.7 1.64 6.18 1.1 1.47 2.76 2.2 4.99 2.2zm17.97-15.07a9.94 9.94 0 0 1 2.6-3.56 5.64 5.64 0 0 1 3.76-1.3c.47 0 .91.05 1.34.15.44.1.83.27 1.16.49l-.28 2.92c-.09.37-.31.55-.66.55-.2 0-.5-.04-.9-.13a6.2 6.2 0 0 0-3.24.18 4.23 4.23 0 0 0-1.47.92c-.43.4-.82.9-1.17 1.5a13.1 13.1 0 0 0-.92 2.02V48h-3.94V25.71h2.24c.43 0 .72.08.88.25.17.16.28.44.33.83l.27 3.39zm15.04-14.59V48h-3.92V15.6h3.92zm19.55 15.43a6.22 6.22 0 0 0-2.38-2.05 6.7 6.7 0 0 0-2.86-.6c-2.07 0-3.66.75-4.77 2.23-1.12 1.48-1.68 3.6-1.68 6.33 0 1.46.13 2.7.38 3.74a7.29 7.29 0 0 0 1.1 2.56 4.35 4.35 0 0 0 1.78 1.45c.7.3 1.5.46 2.4.46 1.29 0 2.41-.3 3.36-.88a9.6 9.6 0 0 0 2.67-2.49V31.02zm3.91-15.43V48h-2.33c-.56 0-.9-.27-1.06-.81l-.35-2.71a12.13 12.13 0 0 1-3.25 2.77 8.28 8.28 0 0 1-4.23 1.06 7.31 7.31 0 0 1-6.14-2.9c-.73-.96-1.3-2.15-1.69-3.57a18.35 18.35 0 0 1 .07-9.48 11.29 11.29 0 0 1 1.89-3.7 8.7 8.7 0 0 1 7.06-3.34 7.96 7.96 0 0 1 6.12 2.62V15.59h3.91zM46.61 70.71V93H42.7V70.71h3.91zm.84-7c0 .39-.08.75-.24 1.09a2.81 2.81 0 0 1-1.52 1.47 2.67 2.67 0 0 1-2.16 0 2.9 2.9 0 0 1-1.45-1.47 2.67 2.67 0 0 1 0-2.16c.15-.35.35-.65.6-.9.25-.27.53-.47.85-.62a2.67 2.67 0 0 1 2.16 0c.35.15.65.35.9.62.27.25.47.55.62.9.16.34.24.7.24 1.08zm7.97 10.24c.49-.54 1-1.04 1.54-1.48a9.85 9.85 0 0 1 3.66-1.84 8.96 8.96 0 0 1 5.43.35c.94.4 1.72.97 2.33 1.71a7.36 7.36 0 0 1 1.43 2.67c.32 1.04.49 2.19.49 3.45V93h-3.94V78.81c0-1.69-.4-3-1.17-3.92-.76-.93-1.93-1.4-3.5-1.4a6.6 6.6 0 0 0-3.25.83c-1 .56-1.92 1.31-2.77 2.27V93h-3.94V70.71h2.35c.56 0 .9.28 1.04.82l.3 2.42zm57.7 3.3c0 2.36-.37 4.5-1.11 6.44a14.3 14.3 0 0 1-3.17 4.98 14.1 14.1 0 0 1-4.93 3.2c-1.9.76-4.02 1.13-6.33 1.13H85.8V61.47h11.77c2.31 0 4.42.39 6.33 1.15a13.8 13.8 0 0 1 8.1 8.18 17.75 17.75 0 0 1 1.12 6.45zm-4.37 0c0-1.94-.26-3.67-.8-5.2a10.94 10.94 0 0 0-2.23-3.87 9.57 9.57 0 0 0-3.53-2.42 12.23 12.23 0 0 0-4.61-.83h-7.5v24.62h7.5c1.7 0 3.24-.28 4.61-.84a9.7 9.7 0 0 0 3.53-2.4 10.94 10.94 0 0 0 2.24-3.87c.53-1.53.8-3.26.8-5.2zm19.8 5.72c-1.8.06-3.34.2-4.62.44-1.26.22-2.3.51-3.1.88-.8.36-1.37.8-1.74 1.3-.35.5-.53 1.05-.53 1.67 0 .58.1 1.1.3 1.52a3 3 0 0 0 .76 1.05c.34.27.73.46 1.17.6a6.13 6.13 0 0 0 1.45.17 7.28 7.28 0 0 0 3.5-.81 11.95 11.95 0 0 0 2.82-2.2v-4.62zm-12.65-9.11a12.73 12.73 0 0 1 3.98-2.66c1.43-.59 3-.88 4.73-.88 1.25 0 2.36.2 3.33.61a6.81 6.81 0 0 1 3.94 4.38c.33 1.04.5 2.19.5 3.43V93h-1.74a1.8 1.8 0 0 1-.88-.18c-.2-.13-.36-.38-.48-.74l-.44-2.12-1.72 1.46a9.48 9.48 0 0 1-3.74 1.7c-.69.15-1.46.23-2.3.23-.87 0-1.69-.12-2.45-.35a5.34 5.34 0 0 1-3.34-2.93 6.64 6.64 0 0 1-.49-2.64c0-.88.25-1.72.73-2.53a6.33 6.33 0 0 1 2.35-2.17c1.09-.63 2.5-1.15 4.25-1.54 1.75-.41 3.89-.65 6.42-.7v-1.75c0-1.73-.37-3.03-1.12-3.91-.75-.9-1.84-1.34-3.28-1.34-.97 0-1.78.12-2.44.37-.64.23-1.2.5-1.7.81l-1.23.82c-.33.23-.67.35-1 .35-.27 0-.5-.07-.69-.2a2.1 2.1 0 0 1-.48-.53l-.7-1.25zm27.67 19.5c-1.76 0-3.12-.5-4.07-1.48-.94-.98-1.41-2.4-1.41-4.25V74h-2.68a.9.9 0 0 1-.6-.2c-.16-.14-.24-.36-.24-.66v-1.56l3.65-.46.9-6.89a.9.9 0 0 1 .29-.52.88.88 0 0 1 .62-.22H142v7.67h6.44V74H142v13.38c0 .94.22 1.63.68 2.09.45.45 1.04.68 1.76.68a3.21 3.21 0 0 0 1.85-.53l.55-.35c.16-.12.3-.18.41-.18.2 0 .4.13.55.38l1.15 1.87a7.45 7.45 0 0 1-2.44 1.5 8.53 8.53 0 0 1-2.95.52zm19.68-10.4c-1.8.07-3.34.21-4.62.45-1.26.22-2.3.51-3.1.88-.8.36-1.37.8-1.74 1.3-.35.5-.53 1.05-.53 1.67 0 .58.1 1.1.3 1.52a2.9 2.9 0 0 0 .76 1.05c.34.27.73.46 1.17.6a6.13 6.13 0 0 0 1.45.17 7.3 7.3 0 0 0 3.5-.81 12.04 12.04 0 0 0 2.82-2.2v-4.62zm-12.65-9.1a12.72 12.72 0 0 1 3.99-2.66c1.42-.59 3-.88 4.72-.88 1.25 0 2.36.2 3.33.61a6.81 6.81 0 0 1 3.94 4.38c.33 1.04.5 2.19.5 3.43V93h-1.74a1.8 1.8 0 0 1-.88-.18c-.2-.13-.36-.38-.48-.74l-.44-2.12-1.72 1.46a9.48 9.48 0 0 1-3.74 1.7c-.69.15-1.46.23-2.3.23-.87 0-1.69-.12-2.45-.35a5.33 5.33 0 0 1-3.34-2.93 6.62 6.62 0 0 1-.49-2.64c0-.88.25-1.72.73-2.53a6.33 6.33 0 0 1 2.35-2.17c1.09-.63 2.5-1.15 4.25-1.54a31.2 31.2 0 0 1 6.42-.7v-1.75c0-1.73-.37-3.03-1.12-3.91-.75-.9-1.84-1.34-3.28-1.34-.97 0-1.78.12-2.44.37-.64.23-1.2.5-1.7.81l-1.22.82c-.34.23-.68.35-1.02.35-.26 0-.49-.07-.68-.2a1.88 1.88 0 0 1-.48-.53l-.7-1.25zM40.98 32.25c0 2.36-.38 4.53-1.12 6.51a14.26 14.26 0 0 1-8.1 8.4c-1.9.78-4.02 1.17-6.34 1.17a16.6 16.6 0 0 1-6.33-1.17 14.31 14.31 0 0 1-8.08-8.4 18.29 18.29 0 0 1-1.12-6.51c0-2.36.38-4.53 1.12-6.5.75-1.97 1.8-3.67 3.17-5.1a14.32 14.32 0 0 1 4.9-3.34c1.92-.8 4.03-1.19 6.34-1.19 2.32 0 4.43.4 6.34 1.19 1.92.8 3.56 1.9 4.93 3.34a14.87 14.87 0 0 1 3.17 5.1 18.1 18.1 0 0 1 1.12 6.5zm-4.38 0c0-1.94-.26-3.68-.8-5.22a10.91 10.91 0 0 0-2.24-3.89 9.68 9.68 0 0 0-3.52-2.46 11.95 11.95 0 0 0-4.62-.86c-1.68 0-3.21.28-4.6.86a9.88 9.88 0 0 0-3.54 2.46 10.91 10.91 0 0 0-2.24 3.9c-.53 1.53-.8 3.27-.8 5.2 0 1.94.27 3.68.8 5.22a11.17 11.17 0 0 0 2.24 3.9 10.01 10.01 0 0 0 3.55 2.44c1.38.56 2.9.83 4.6.83s3.24-.27 4.61-.83a9.8 9.8 0 0 0 3.52-2.44 11.17 11.17 0 0 0 2.25-3.9c.53-1.54.8-3.28.8-5.21zm26.22-6.54V48H60.5c-.56 0-.9-.27-1.05-.81l-.31-2.4a12.45 12.45 0 0 1-3.26 2.6c-1.2.64-2.58.96-4.13.96-1.22 0-2.3-.2-3.24-.6a6.52 6.52 0 0 1-2.33-1.7 7.37 7.37 0 0 1-1.43-2.67c-.3-1.04-.46-2.2-.46-3.45V25.7h3.91v14.22c0 1.68.38 2.99 1.15 3.91.77.93 1.96 1.39 3.54 1.39 1.16 0 2.24-.27 3.23-.82a10.42 10.42 0 0 0 2.8-2.28V25.7h3.91zm8.61 4.47a9.94 9.94 0 0 1 2.6-3.56 5.64 5.64 0 0 1 3.76-1.3c.47 0 .92.05 1.34.15.44.1.83.27 1.17.49l-.3 2.92c-.09.37-.3.55-.66.55-.2 0-.5-.04-.9-.13a6.21 6.21 0 0 0-3.24.18 4.23 4.23 0 0 0-1.47.92c-.42.4-.81.9-1.17 1.5-.33.58-.64 1.26-.92 2.02V48H67.7V25.71h2.25c.42 0 .72.08.88.25.16.16.27.44.33.83l.26 3.39zm61.16-13.7L122.75 48h-3.82l-7.99-24.05a21.95 21.95 0 0 1-.42-1.58 38.36 38.36 0 0 1-.44 1.58L102.05 48h-3.83L88.4 16.47h3.54c.38 0 .7.1.95.29.26.2.43.43.5.73l6.52 21.9.28 1.28.29 1.46.3-1.46.38-1.27 7.41-21.91c.1-.25.26-.48.51-.69.27-.22.58-.33.95-.33h1.23c.38 0 .69.1.92.29a1.77 1.77 0 0 1 .53.73l7.4 21.9a28.4 28.4 0 0 1 .68 2.62 29.52 29.52 0 0 1 .52-2.61l6.54-21.91a1.31 1.31 0 0 1 .48-.7c.27-.21.58-.32.95-.32h3.32zm9.35 8.88c1.63 0 3.1.27 4.4.82a9.43 9.43 0 0 1 5.46 5.94c.5 1.4.74 2.98.74 4.73 0 1.76-.25 3.34-.74 4.75a9.43 9.43 0 0 1-5.46 5.92c-1.3.52-2.77.79-4.4.79-1.64 0-3.12-.27-4.44-.8a9.42 9.42 0 0 1-3.35-2.3c-.92-1-1.63-2.2-2.13-3.61-.49-1.41-.73-3-.73-4.75s.24-3.33.73-4.73c.5-1.43 1.2-2.64 2.13-3.63a9.4 9.4 0 0 1 3.35-2.31c1.32-.55 2.8-.82 4.44-.82zm0 19.89c2.2 0 3.84-.73 4.93-2.2 1.08-1.48 1.63-3.54 1.63-6.18 0-2.66-.55-4.72-1.63-6.2-1.09-1.49-2.73-2.23-4.93-2.23-1.12 0-2.09.2-2.93.57a5.71 5.71 0 0 0-2.06 1.65 7.5 7.5 0 0 0-1.24 2.67c-.26 1.04-.4 2.22-.4 3.54 0 2.64.55 4.7 1.64 6.18 1.1 1.47 2.76 2.2 4.99 2.2zm17.97-15.07a9.94 9.94 0 0 1 2.6-3.56 5.64 5.64 0 0 1 3.76-1.3c.47 0 .91.05 1.34.15.44.1.83.27 1.16.49l-.28 2.92c-.09.37-.31.55-.66.55-.2 0-.5-.04-.9-.13a6.2 6.2 0 0 0-3.24.18 4.23 4.23 0 0 0-1.47.92c-.43.4-.82.9-1.17 1.5a13.1 13.1 0 0 0-.92 2.02V48h-3.94V25.71h2.24c.43 0 .72.08.88.25.17.16.28.44.33.83l.27 3.39zm15.04-14.59V48h-3.92V15.6h3.92zm19.55 15.43a6.22 6.22 0 0 0-2.38-2.05 6.7 6.7 0 0 0-2.86-.6c-2.07 0-3.66.75-4.77 2.23-1.12 1.48-1.68 3.6-1.68 6.33 0 1.46.13 2.7.38 3.74a7.29 7.29 0 0 0 1.1 2.56 4.35 4.35 0 0 0 1.78 1.45c.7.3 1.5.46 2.4.46 1.29 0 2.41-.3 3.36-.88a9.6 9.6 0 0 0 2.67-2.49V31.02zm3.91-15.43V48h-2.33c-.56 0-.9-.27-1.06-.81l-.35-2.71a12.13 12.13 0 0 1-3.25 2.77 8.28 8.28 0 0 1-4.23 1.06 7.31 7.31 0 0 1-6.14-2.9c-.73-.96-1.3-2.15-1.69-3.57a18.35 18.35 0 0 1 .07-9.48 11.29 11.29 0 0 1 1.89-3.7 8.7 8.7 0 0 1 7.06-3.34 7.96 7.96 0 0 1 6.12 2.62V15.59h3.91zM46.61 70.71V93H42.7V70.71h3.91zm.84-7c0 .39-.08.75-.24 1.09a2.81 2.81 0 0 1-1.52 1.47 2.67 2.67 0 0 1-2.16 0 2.9 2.9 0 0 1-1.45-1.47 2.67 2.67 0 0 1 0-2.16c.15-.35.35-.65.6-.9.25-.27.53-.47.85-.62a2.67 2.67 0 0 1 2.16 0c.35.15.65.35.9.62.27.25.47.55.62.9.16.34.24.7.24 1.08zm7.97 10.24c.49-.54 1-1.04 1.54-1.48a9.85 9.85 0 0 1 3.66-1.84 8.96 8.96 0 0 1 5.43.35c.94.4 1.72.97 2.33 1.71a7.36 7.36 0 0 1 1.43 2.67c.32 1.04.49 2.19.49 3.45V93h-3.94V78.81c0-1.69-.4-3-1.17-3.92-.76-.93-1.93-1.4-3.5-1.4a6.6 6.6 0 0 0-3.25.83c-1 .56-1.92 1.31-2.77 2.27V93h-3.94V70.71h2.35c.56 0 .9.28 1.04.82l.3 2.42zm57.7 3.3c0 2.36-.37 4.5-1.11 6.44a14.3 14.3 0 0 1-3.17 4.98 14.1 14.1 0 0 1-4.93 3.2c-1.9.76-4.02 1.13-6.33 1.13H85.8V61.47h11.77c2.31 0 4.42.39 6.33 1.15a13.8 13.8 0 0 1 8.1 8.18 17.75 17.75 0 0 1 1.12 6.45zm-4.37 0c0-1.94-.26-3.67-.8-5.2a10.94 10.94 0 0 0-2.23-3.87 9.57 9.57 0 0 0-3.53-2.42 12.23 12.23 0 0 0-4.61-.83h-7.5v24.62h7.5c1.7 0 3.24-.28 4.61-.84a9.7 9.7 0 0 0 3.53-2.4 10.94 10.94 0 0 0 2.24-3.87c.53-1.53.8-3.26.8-5.2zm19.8 5.72c-1.8.06-3.34.2-4.62.44-1.26.22-2.3.51-3.1.88-.8.36-1.37.8-1.74 1.3-.35.5-.53 1.05-.53 1.67 0 .58.1 1.1.3 1.52a3 3 0 0 0 .76 1.05c.34.27.73.46 1.17.6a6.13 6.13 0 0 0 1.45.17 7.28 7.28 0 0 0 3.5-.81 11.95 11.95 0 0 0 2.82-2.2v-4.62zm-12.65-9.11a12.73 12.73 0 0 1 3.98-2.66c1.43-.59 3-.88 4.73-.88 1.25 0 2.36.2 3.33.61a6.81 6.81 0 0 1 3.94 4.38c.33 1.04.5 2.19.5 3.43V93h-1.74a1.8 1.8 0 0 1-.88-.18c-.2-.13-.36-.38-.48-.74l-.44-2.12-1.72 1.46a9.48 9.48 0 0 1-3.74 1.7c-.69.15-1.46.23-2.3.23-.87 0-1.69-.12-2.45-.35a5.34 5.34 0 0 1-3.34-2.93 6.64 6.64 0 0 1-.49-2.64c0-.88.25-1.72.73-2.53a6.33 6.33 0 0 1 2.35-2.17c1.09-.63 2.5-1.15 4.25-1.54 1.75-.41 3.89-.65 6.42-.7v-1.75c0-1.73-.37-3.03-1.12-3.91-.75-.9-1.84-1.34-3.28-1.34-.97 0-1.78.12-2.44.37-.64.23-1.2.5-1.7.81l-1.23.82c-.33.23-.67.35-1 .35-.27 0-.5-.07-.69-.2a2.1 2.1 0 0 1-.48-.53l-.7-1.25zm27.67 19.5c-1.76 0-3.12-.5-4.07-1.48-.94-.98-1.41-2.4-1.41-4.25V74h-2.68a.9.9 0 0 1-.6-.2c-.16-.14-.24-.36-.24-.66v-1.56l3.65-.46.9-6.89a.9.9 0 0 1 .29-.52.88.88 0 0 1 .62-.22H142v7.67h6.44V74H142v13.38c0 .94.22 1.63.68 2.09.45.45 1.04.68 1.76.68a3.21 3.21 0 0 0 1.85-.53l.55-.35c.16-.12.3-.18.41-.18.2 0 .4.13.55.38l1.15 1.87a7.45 7.45 0 0 1-2.44 1.5 8.53 8.53 0 0 1-2.95.52zm19.68-10.4c-1.8.07-3.34.21-4.62.45-1.26.22-2.3.51-3.1.88-.8.36-1.37.8-1.74 1.3-.35.5-.53 1.05-.53 1.67 0 .58.1 1.1.3 1.52a2.9 2.9 0 0 0 .76 1.05c.34.27.73.46 1.17.6a6.13 6.13 0 0 0 1.45.17 7.3 7.3 0 0 0 3.5-.81 12.04 12.04 0 0 0 2.82-2.2v-4.62zm-12.65-9.1a12.72 12.72 0 0 1 3.99-2.66c1.42-.59 3-.88 4.72-.88 1.25 0 2.36.2 3.33.61a6.81 6.81 0 0 1 3.94 4.38c.33 1.04.5 2.19.5 3.43V93h-1.74a1.8 1.8 0 0 1-.88-.18c-.2-.13-.36-.38-.48-.74l-.44-2.12-1.72 1.46a9.48 9.48 0 0 1-3.74 1.7c-.69.15-1.46.23-2.3.23-.87 0-1.69-.12-2.45-.35a5.33 5.33 0 0 1-3.34-2.93 6.62 6.62 0 0 1-.49-2.64c0-.88.25-1.72.73-2.53a6.33 6.33 0 0 1 2.35-2.17c1.09-.63 2.5-1.15 4.25-1.54a31.2 31.2 0 0 1 6.42-.7v-1.75c0-1.73-.37-3.03-1.12-3.91-.75-.9-1.84-1.34-3.28-1.34-.97 0-1.78.12-2.44.37-.64.23-1.2.5-1.7.81l-1.22.82c-.34.23-.68.35-1.02.35-.26 0-.49-.07-.68-.2a1.88 1.88 0 0 1-.48-.53l-.7-1.25z" fill="#fff"/><path fill="#D42B21" d="M0 106.79h210V120H0z"/></g><defs><clipPath id="a"><path fill="#fff" d="M0 0h210v120H0z"/></clipPath></defs></svg></g><a href="https://ourworldindata.org/grapher/GDP-vs-manufacturing-employment" style="font-family:&quot;Playfair Display&quot;,Georgia,&quot;Times New Roman&quot;,serif" target="_blank" rel="noopener"><text font-size="25.2" x="15" y="35.2" fill="#555"><tspan x="15" y="35.16">GDP per head vs share of industry in employment, 1800 to 2015</tspan></text></a><text font-size="14.4" x="15" y="55.7" fill="#666"><tspan x="15" y="55.72">The vertical axis shows historical estimates of the share of industry in employment. The horizontal axis shows GDP</tspan><tspan x="15" y="73">per head after adjusting for inflation and price differences across countries (figures are in 2011 international-$).</tspan></text></g><g class="ScatterPlot"><g class="DualAxisView"><g class="HorizontalAxis"><text font-size="12.6" x="323.3" y="516.6"><tspan x="323.33" y="516.58">GDP per capita</tspan></text><text x="145.2" y="496.5" fill="#666" text-anchor="middle" font-size="16.2">$1,000</text><text x="465.3" y="496.5" fill="#666" text-anchor="middle" font-size="16.2">$10,000</text><text x="75.16" y="496.5" fill="#666" text-anchor="start" font-size="16.2">$604</text><text x="241.6" y="496.5" fill="#666" text-anchor="middle" font-size="16.2">$2,000</text><text x="368.9" y="496.5" fill="#666" text-anchor="middle" font-size="16.2">$5,000</text><text x="561.6" y="496.5" fill="#666" text-anchor="middle" font-size="16.2">$20,000</text><text x="718.09" y="496.5" fill="#666" text-anchor="end" font-size="16.2">$50,000</text></g><g class="VerticalAxis"><text font-size="12.6" x="-414.3" y="25.1" transform="rotate(-90)"><tspan x="-414.26" y="25.08">Share of manufacturing in employment</tspan></text><text x="70.16" y="475.3" dy=".32em" text-anchor="end" fill="#666" font-size="16.2">0%</text><text x="70.16" y="402.5" dy=".32em" text-anchor="end" fill="#666" font-size="16.2">10%</text><text x="70.16" y="329.6" dy=".32em" text-anchor="end" fill="#666" font-size="16.2">20%</text><text x="70.16" y="256.8" dy=".32em" text-anchor="end" fill="#666" font-size="16.2">30%</text><text x="70.16" y="184" dy=".32em" text-anchor="end" fill="#666" font-size="16.2">40%</text><text x="70.16" y="111.1" dy=".32em" text-anchor="end" fill="#666" font-size="16.2">50%</text></g><g class="AxisGridLines horizontalLines"><path stroke="#999" d="M75.16 475.3h642.93"/><path stroke="#ddd" stroke-dasharray="3,2" d="M75.16 402.5h642.93M75.16 329.6h642.93M75.16 256.8h642.93M75.16 184h642.93M75.16 111.1h642.93"/></g><g class="AxisGridLines verticalLines" stroke-dasharray="3,2"><path stroke="#eee" d="M95.7 475.3V92.2M114.2 475.3V92.2M130.6 475.3V92.2"/><path stroke="#ddd" d="M145.2 475.3V92.2M241.6 475.3V92.2"/><path stroke="#eee" d="M297.9 475.3V92.2M337.9 475.3V92.2"/><path stroke="#ddd" d="M368.9 475.3V92.2"/><path stroke="#eee" d="M394.3 475.3V92.2M415.7 475.3V92.2M434.2 475.3V92.2M450.6 475.3V92.2"/><path stroke="#ddd" d="M465.3 475.3V92.2M561.6 475.3V92.2"/><path stroke="#eee" d="M617.9 475.3V92.2M657.9 475.3V92.2"/><path stroke="#ddd" d="M688.9 475.3V92.2"/><path stroke="#eee" d="M714.3 475.3V92.2"/></g></g><g class="PointsWithLabels clickable" clip-path="url(#b)"><path fill="rgba(255,255,255,0)" d="M75.16 92.2h642.93v383.1H75.16z"/><defs><clipPath id="b"><path d="M65.16 82.2h662.93v403.1H65.16z"/></clipPath></defs><g class="key-China"><circle cx="151" cy="422" r="1.7" fill="#2D8587" opacity=".7"/><path stroke-width="2" opacity=".7" stroke="#2D8587" fill="none" stroke-linecap="butt" d="m151 422 14-5-14-4 9 1 9-16 1 12-3-125-7 43-8 35-26 33 8 22 15 2 15-2 12-4 1-2-3 1h-6l9-4 14-8 5-6-1-6 7-2 1-2 7-7-7-7 6-2 13-19 9-1 5-5h2l12-2 6-1 13-9 10-7 6-7 9-3 6-1-2 6-1 1h3l8-1 11-5 9-3 9-2 8-3 3-2v2l5 3 8 4 7 1 10 7 7-1 10-6 13-10 13-10 11-12 5-3 9-4 14-7 8-5"/><path cx="468" cy="264" r="3.5" fill="#2D8587" opacity=".7" d="m463.18 262.89 7.79-.74-4.08 6.67z"/></g><g class="key-India"><circle cx="170" cy="390" r="1.6" fill="#2D8587" opacity=".7"/><path stroke-width="1.89" opacity=".7" stroke="#2D8587" fill="none" stroke-linecap="butt" d="m170 390 1-1v-1l4-3h7l-9 2-1 2 8 3 6-2 4 3h-2l-4 1 4 1-2 1 8 1-1-2 8-2 4-3-11 5 7 2 5-2h1l8-4h3l2 1 3-2 3-1 11-2 6-5 4-1-2 5 4-4 4-4 5-7 6-6 7-2 2-2h5l5-3 3-5 4-4 1-10 8 4 8-2 8 3h9l9-8 6-3 8-2 8 4"/><path cx="355" cy="335" r="3.39" fill="#2D8587" opacity=".7" d="m353.48 330.45 4.55 6.07h-7.58z"/></g><g class="key-United-States"><circle cx="312" cy="369" r="1.3" fill="#E04E4B" opacity=".7"/><path stroke-width=".97" opacity=".7" stroke="#E04E4B" fill="none" stroke-linecap="butt" d="m312 369 12-46 27 6 12-47 37 6 8-11 26-8 26-15 7-17 23 16-16 11-10 16-24 16-5-3 10-10 15-3 12-4 10-11-10 18 8-11 10-8 17-21 13-13 11 6 8 15-5 16-15-24-4-14 4-8-5 12 9-6 8-1 3 2 4-4-3 10 7-2v-1 2l-4 12 8-5 1 3 1 5 6-3h10l6-3 8-3 2 4 5 2h3l-2 7 3 6 5-2 7-3-2 4-2 15 6-3 5-2 6-1 3-1-1 7 2 3-4 10 4 5 9-2 4 3 3 4 4 4 4 1 4 4 1 3-2 6 3 3 1 2h4l2 2h4l4 1 5 1 5 2 4 2v10l1 6 2 3h4l4 1 2 1 1 2-2 4-5 10 2 4h7l3-1"/><path cx="696" cy="366" r="2.47" fill="#E04E4B" opacity=".7" d="m692.88 364.44 5.46.78-3.9 3.9z"/></g><g class="key-Indonesia"><circle cx="218" cy="417" r="1.3" fill="#2D8587" opacity=".7"/><path stroke-width=".85" opacity=".7" stroke="#2D8587" fill="none" stroke-linecap="butt" d="m218 417 19-15 12-5 16-2 4-3-3-2h8l7-4 3-2 4-1 9-4 6-2-8 1 2 1 7-6v-2l5-2 5-4 5-4 9-3 10-5 10 18 7 1 9-11 8-24 10 2 8 2 5-7-21 20v-11h5l3-4 5-2 5 7 6-1h7l6 2h7l9-1 6 1 7-3 8-6 6-8"/><path cx="454" cy="328" r="2.35" fill="#2D8587" opacity=".7" d="m450.71 328.47 4.7-2.35-.94 5.17z"/></g><g class="key-Brazil"><circle cx="257" cy="361" r="1.3" fill="#932834" opacity=".7"/><path stroke-width=".76" opacity=".7" stroke="#932834" fill="none" stroke-linecap="butt" d="M257 361h10l7-1h8-1l7-1h27l7-3 5-3-3-3v-3l-1-3 5-2 2-4 9-3 9-3 10-4 11 12 12 10 15-14 7-5 4-5 10-6 3-3 3 1 6-1 9-3-9-10-3 8-7 8 5 6 7-8 8-12 2 1-3 1h1l-8 5 1 10-2 7h7l7 2 5 2h3l4 2v1l1 1 5-2 2 2h4l2 1 7-2 5-5 5 4 9-4 7-6v2l11 2 6 1"/><path cx="520" cy="331" r="2.26" fill="#932834" opacity=".7" d="m518.14 328.4 4.09 2.97-4.83 1.49z"/></g><g class="key-Nigeria"><circle cx="182" cy="437" r="1.3" fill="#923E8B" opacity=".7"/><path stroke-width=".69" opacity=".7" stroke="#923E8B" fill="none" stroke-linecap="butt" d="m182 437 1-2 3-4 9-3 2-3 5-10h-9l-28 6-5 4 29-7 33-3 12 5 1-6 7-3 11 7-8-3 10-7 1 1-13-3h5l-1-2-16 2-6 3-12 16-9 4h8l-1 4h-5l10-2 5 1h3l-1-1 3 3 2 3v1l2 3 6 2 4 1 3 2 1 1 7-1 9-1 18-1 12-2h14l9-1 8-3 10-1 9-2 11-2 15-2 6-4"/><path cx="372" cy="427" r="2.19" fill="#923E8B" opacity=".7" d="m368.96 426.4 4.86-.61-2.43 4.25z"/></g><g class="key-Japan"><circle cx="208" cy="439" r="1.3" fill="#2D8587" opacity=".7"/><path stroke-width=".61" opacity=".7" stroke="#2D8587" fill="none" stroke-linecap="butt" d="m208 439 13-12 10-28 18-25 13-28 34-26h16l53-34-65 24 35-4 6-3 10 3 9-7 8-11 7-7 11-5 16-7 14-7 11-6 10-3 14-4 6-1 13-1 13-6h15l15-1 13-3 4-1 9-1 9-6-3 3 2 8 4 1 5 4 6 1h6l3-2 3 1 3 3h7l5-1 3 1 5 1 8-4 6-4 6-1 4-3 1 1v3l1 4 3 5 4 2 1 1-2 7-1 3 4 2v10l1 4 3 5 2 4h4l-1 6-8 9 6 4v2l2 1"/><path cx="641" cy="310" r="2.11" fill="#2D8587" opacity=".7" d="m640.06 307.17 2.83 3.77h-4.72z"/></g><g class="key-Mexico"><circle cx="319" cy="361" r="1.3" fill="#E04E4B" opacity=".7"/><path stroke-width=".58" opacity=".7" stroke="#E04E4B" fill="none" stroke-linecap="butt" d="m319 361 7-3 1-3-4-2 9 1 8-2 5-3 6-5 3 5v-3l7-1 2-5 2-4 7-5 11-2 5-9 5-2 4-6 6-3 5-4 5-3v2l7-6 7-4 3-7 4 3 2-5 1 8 8-5 10-9 9-4 8-4-4 2-8 16 2-2v-3l-8 1v-1l-1 1 3-7 5-6 4 2 3 1 2 4 4 4-10 10 6-8 8-10 6-3h5l8-3v16l2 3 5 1 4-8 6-1h5l-7 8 6-1 5 1"/><path cx="523" cy="288" r="2.08" fill="#E04E4B" opacity=".7" d="m521.37 285.55 3.67 2.86-4.49 1.22z"/></g><g class="key-Philippines"><circle cx="292" cy="358" r="1.3" fill="#2D8587" opacity=".7"/><path stroke-width=".53" opacity=".7" stroke="#2D8587" fill="none" stroke-linecap="butt" d="m292 358 3 8 8 9 1-4 4-10h8l4 3h3l4-3 3-3 1 8 1 2-14-3-14 4 1 6 2-9 6-7 5-2 1 6-3-8h-1l1 4 4-2 4 1 6-7h5l-3 7 3 1 4 2 2-2 3 4 5-2h7l4 2 6 4 7-1 4 4 1 2 9-3h3l7 2"/><path cx="397" cy="371" r="2.03" fill="#2D8587" opacity=".7" d="m395.6 368.49 3.35 3.07-4.46.83z"/></g><g class="key-Ethiopia"><circle cx="100" cy="464" r="1.3" fill="#923E8B" opacity=".7"/><path stroke-width=".51" opacity=".7" stroke="#923E8B" fill="none" stroke-linecap="butt" d="M100 464h17l4-2h5l2-1 3-1h-1 3l4-1 3-1h5l-1 2h-3v1l1 1h-4l7-1 4-1-3 1h-4 3-18l6-1h9l-2-1h-1l-7 1-16 1-19 1-2-5 6-1 3-2 7-2 5-1-5-1-4-1 2-3 2-1 2-1-6-2 2-3 10-4 8-5 9-2 7-6 8-4 8-7 11-8"/><path cx="170" cy="403" r="2.01" fill="#923E8B" opacity=".7" d="m167.2 402.56 4.43-.74-2.07 3.99z"/></g><g class="key-Egypt"><circle cx="208" cy="387" r="1.3" fill="#923E8B" opacity=".7"/><path stroke-width=".5" opacity=".7" stroke="#923E8B" fill="none" stroke-linecap="butt" d="m208 387 6-21 6-6 5-12 6-1 5-3-2 6-5 12v-8l6-2 6-3h3v-1l1 7 3-4 10-16 17 1h14l6-2 6-1h10v-17l10-1h10l4 1v4l2-2h1v-1l6 1 5 3 6 1 6-1 7-1 8-5 8-4 7-2 8 1 8 2 7 1 4 6 4 4h6l6-3 8-6 10-5 9-4 6-4 7 2 1 1"/><path cx="475" cy="304" r="2" fill="#923E8B" opacity=".7" d="m473 302 4 2-4 2z"/></g><g class="key-Finland"><circle cx="172" cy="449" r="1.3" fill="#4C5C78" opacity=".7"/><path stroke-width=".5" opacity=".7" stroke="#4C5C78" fill="none" stroke-linecap="butt" d="m172 449 58-44 51-40 18 2-4 7 51-15 26-30 39-59 53-25 60-8 2-1 10-6 8-8h3l1 2-1 8v3l3 5h9l7-3 1 4 4 4 3 3 3 3 4 2 3 4 5 4 7 2 7-1-1 2-9 9-5 8-2 5 5 2 5-4h5l8-3 7-2 6-1h7l4 3 2 4 2 3 5 4 4-1h11"/><path cx="657" cy="291" r="2" fill="#4C5C78" opacity=".7" d="m655 289 4 2-4 2z"/></g><g class="key-United-Kingdom"><circle cx="313" cy="203" r="1.3" fill="#4C5C78" opacity=".7"/><path stroke-width=".5" opacity=".7" stroke="#4C5C78" fill="none" stroke-linecap="butt" d="m313 203 21-34 19-17 16 24 20-10 8-4 14-5 14-2 7-1-16-25-5 22 12-7 3-6 5-2 6 4-6 6 11-5 1 4 4 1-2 10-8 12v3l4-3 8-6 5-2 5-6 5-4 1 4 10 5 4-2v-2l3-2v3l5-2 5-3 4-2 1 1h2l-1 2 5 1 6-3h4v4l4 3 6-3h3l2 1 2 7 5 3h2l3 4 2 5 5 7 8 3-2 1v10l3 5h3l5 3 4 4-3 7-2 12 3 9 4 7 4 5 4 2 6 5 6 2 6 3 2-1 1 5-3 11v9l3 6 5 2h3l3 2 4 3 4-1 4 7 4 5 3 4 3 6 4 5 2 4 3 4 3 2 2 1-2 4-7 7 1-4 1-3"/><path cx="639" cy="337" r="2" fill="#4C5C78" opacity=".7" d="m636.47 338.26 3.16-3.16.63 4.43z"/></g><g class="key-Netherlands"><circle cx="333" cy="284" r="1.3" fill="#4C5C78" opacity=".7"/><path stroke-width=".5" opacity=".7" stroke="#4C5C78" fill="none" stroke-linecap="butt" d="m333 284-6-35-2-2 53-2 2-8 10-12 20-9 39 4-14-4 21 12 47-19-1-1 7-3 3-3h10l5 3 2 7 5 1 8 3 7 2 6 6 4 5 3 3 5 5 4 5-1 6 5 3 3 2 3 3 2 6v8l-2 7-2 8 2 6 4 2 4 2 3 2 1 2 2 1 6 2h4l4 5 2 4 1 5 4 3 5 4 5 4 6 1 6 3 6 2 6 1 3 2v7l3 2 4 3 5 2 6 2 2-1-5 1 2 3 3 1"/><path cx="673" cy="356" r="2" fill="#4C5C78" opacity=".7" d="m671.74 353.47 3.16 3.16-4.43.63z"/></g><g class="key-Belgium"><circle cx="283" cy="238" r="1.3" fill="#4C5C78" opacity=".7"/><path stroke-width=".5" opacity=".7" stroke="#4C5C78" fill="none" stroke-linecap="butt" d="m283 238 34-28 20-25 28-1 16-11 12-34 11-25-3-10 32-6h-5l57-6 53 89 4 3 7 5 8 2 5 3-2 8 7 7 1 7 4 9 3 8 6 6-2 9 2 8v6l3 4 2 4 2 5 3 5 6 3h4l4 1 2 2 2 3-2 6 4 4 4 3 2 3 5 3 2 2 5 3 5 2h1l2 5v4l5 3 2 2 3 2 4 2"/><path cx="651" cy="333" r="2" fill="#4C5C78" opacity=".7" d="m650.1 330.32 2.69 3.57h-4.47z"/></g><g class="key-Sweden"><circle cx="220" cy="378" r="1.3" fill="#4C5C78" opacity=".7"/><path stroke-width=".5" opacity=".7" stroke="#4C5C78" fill="none" stroke-linecap="butt" d="m220 378-3-7-3 1 2-1 1 2 9-2-2-5 4 3 2 2 4-5 3-5-6-2h-4l6-2 2-7 3-1-2-2 2 5-14-2h10l17-2 5-3 2-1 2-14 5-6-5 3 8-8-3-2-5-9 7-2-3 12 5-3-5 12 10-11-3 6 2-12 2-14-4 12 2-2 2-4 3 2 7 4-2-3 4-1v-2l7-12 4 7 5-12 5-3 3-7 1-4 3 2-2 2 7-12 3-2-2-4 10-4 9 6-4 3 1 1 2-2 4-8 5-3 8-7 3-3 5 5 7-1-8 3-11 3 2-4 8-2-7 6 10 2 4-2 9-12 3-12 7 3 4 1 4-7 8 1 6-8-3 6-6 8 2 5 9-12 6-10 5-7 3-4 4-2 10-6-11 18-4-3 1-11 4-5 4-4 3-11 13-5 11-3 1 2h5l8-3 4-2 1-3 3-2 5-3 3-2 4-3 5-3v-2l4-3 6-2 7 2 5 3 6 1 9 2 3 2 2 6 4 5 4 6 6 6 7 6v13l3 2 5-2 4 2 3 4 1 3-3 8 2 5 5 3 2 3v5l1 6 3 5 5 3h3l2 1h6l3 3v6l-2 6-2 9-3 5 4 2 5-6h3l4-1 6-1 6 3 7 2 2-1 3 3 3 3 6 3 5 1 6 2 5-3-1-2-7 8 8 2"/><path cx="666" cy="288" r="2" fill="#4C5C78" opacity=".7" d="m664.54 285.57 3.4 2.92-4.37.97z"/></g><g class="key-France"><circle cx="282" cy="279" r="1.3" fill="#4C5C78" opacity=".7"/><path stroke-width=".5" opacity=".7" stroke="#4C5C78" fill="none" stroke-linecap="butt" d="m282 279 19 6 20 3 26-21 7-6 6 1 13-28-7 27 45-25-1-4v21l-13 6 60-43 43-19 33-16 15 32h16l3 2-1 6 5 4 4 4 4 5 4 4 1 2v7l3 4 1 6 1 8 2 4 2 4 3 5 6 3 4 2 3 1v4l2 5-1 7 2 6 3 1 1 3 3 3 4 3 5 3 4 1 3 1 1 2v3l3 2 2 1 2 2h3"/><path cx="646" cy="331" r="2" fill="#4C5C78" opacity=".7" d="m644 329 4 2-4 2z"/></g><g class="key-Spain"><circle cx="236" cy="359" r="1.3" fill="#4C5C78" opacity=".7"/><path stroke-width=".5" opacity=".7" stroke="#4C5C78" fill="none" stroke-linecap="butt" d="m236 359 42 25-13-26 17 18 7-20 19-41-3-15 12-11 97-70 44 16 5-3 12-3 11-4 9-2 2-2h8l2 3 1 2 4 7-1 10 1 8 2 3 1 7 3 6 5-2 9-1 9-2 8-4 7-2 5 2 2 6-1 8 4 4 5-2 5-2 5-4 7-1 7-4 8-2 6-2 3 1 3 2 3 1 4 1 4 3h4"/><path cx="630" cy="267" r="2" fill="#4C5C78" opacity=".7" d="m628 265 4 2-4 2z"/></g><g class="key-Argentina"><circle cx="433" cy="258" r="1.3" fill="#932834" opacity=".7"/><path stroke-width=".5" opacity=".7" stroke="#932834" fill="none" stroke-linecap="butt" d="m433 258 2-5-10 2 5 17 3-15 7-11 1-1 5-10 5-10-11 16 8-13 7-2-4 15-6 10 12-6 10-1-1 3 2 4 3-6 10-7h5l4 1 2 1 6 1 6-1-3 16-3-11 6-1-9 2 7 5v-14l-10 16-7 30 3-3v-10l-11 10 7-5h2l-5 5-11 5-2 6 13 4 12 1 7 14 7 5h-5l7 3 10 2 4 8-6 9-2 5h-7l-17 10 11-11 11-10 11-3 10-1 12-4 4 2-9 4 13-1 7-4"/><path cx="561" cy="324" r="2" fill="#932834" opacity=".7" d="m558.27 323.26 4.47-.25-2.48 3.72z"/></g><g class="key-Bolivia"><circle cx="298" cy="379" r="1.3" fill="#932834" opacity=".7"/><path stroke-width=".5" opacity=".7" stroke="#932834" fill="none" stroke-linecap="butt" d="m298 379 9-8 1-6-17 1v-7l4-5-11 8-8 20v5l-3-1 2-2v8l4-8 6-3 3-3 4-10 6 2 5-7 8 1 3-11 4 3 1-3 4-1 6-8 3-5 6-3 7-4 2-4h1l-3 2-4 2-1 10-9 10-9 6-1-6-3 20-7 10h3l1-8 4-10 4-18v-4l2 8 4-14 4-2 3-3 4-13 4 3-2 3 1-10v18l1-18 1-17h3l4 7 4 16 4-16 6 6 3-8h3"/><path cx="372" cy="302" r="2" fill="#932834" opacity=".7" d="m370 300 4 2-4 2z"/></g><g class="key-Chile"><circle cx="391" cy="266" r="1.3" fill="#932834" opacity=".7"/><path stroke-width=".5" opacity=".7" stroke="#932834" fill="none" stroke-linecap="butt" d="m391 266 3 8 6 17 7 3-8-59 2 15-1-7 10 23 4 20-11-33 8 18 3 6h3l5 3-1-12-2-12h12l2 2 2 5 2 3v-2l10-2-4 3-11-10-1-23-21 18 3 3 11 5 9 1 9-3 9 19 6-10-23 34-6 19 6-12v3l5-5 7-13 7-13 12-11 3 5 7 2 12 1 7-3 4 7 11 1 7 2 6-4 2 5-4 24 3 2 2 3h1l2 1 6 2 6 3 6-3 4-1 3-1-5 5 5 5 6-5"/><path cx="559" cy="318" r="2" fill="#932834" opacity=".7" d="m556.18 317.74 4.36-1.02-1.8 4.1z"/></g><g class="key-Colombia"><circle cx="316" cy="358" r="1.3" fill="#932834" opacity=".7"/><path stroke-width=".5" opacity=".7" stroke="#932834" fill="none" stroke-linecap="butt" d="M316 358v2l4 1 4-6 5-7 1-2 1-1-1 5 5-3 2 2 2-2 3-3v3h5l3-4 2-4 4-2 5-3 6-1 4 6 7 8 6 6 4 6v5l4-6h3l9-8 4 2 3-7-2 1-1-2h2l1 6h6l4-7 3-1 1 1 3-12 1-3 3-5 5-3 4 6 5-12 1 18 2 2-1 5-8 12 2-7 1 8 1-11 4 3 5-10 5-9 7-2 8 12 3-9 1 9 3-9"/><path cx="480" cy="326" r="2" fill="#932834" opacity=".7" d="m477.47 327.26 3.16-3.16.63 4.43z"/></g><g class="key-Costa-Rica"><circle cx="303" cy="363" r="1.3" fill="#E04E4B" opacity=".7"/><path stroke-width=".5" opacity=".7" stroke="#E04E4B" fill="none" stroke-linecap="butt" d="m303 363-1 1 12 1 15-7-4-7h10l-10-7 7-1 11 12-1 3 6-6 1 4 3-6 6-2 2 2 8-11h6l4-2 6-6 4-1 5-1 5-6 8-10 7-2 3-7-1-2 4-7 8-3 3-3 2-4-1 4-7 12-14 28v-3l7-4-3-18 3-8 3 1v4l5-10 1-7v-7l8 2 6 5 2-2 1 11-2 2 4 1 6 3h2l2 7 2 1 2 8 3 3 4 2 3 1 8 1 8-3 4 8-3 12 5 7 3-2"/><path cx="494" cy="344" r="2" fill="#E04E4B" opacity=".7" d="m491.23 343.45 4.43-.56-2.21 3.88z"/></g><g class="key-Denmark"><circle cx="479" cy="229" r="1.3" fill="#4C5C78" opacity=".7"/><path stroke-width=".5" opacity=".7" stroke="#4C5C78" fill="none" stroke-linecap="butt" d="M479 229v5l7-2 1-5 1 5 10-5 2 2 9-12 3-7 8-2 6-1v1l11-3 5 1 3-1h3l5 1 8 2 2 2 2 10 7 4 4 2-2 9-1 16 8 1 2 4 1 2 5 3-1 6-1 11 4 5 4 2 6-5 5-3 5-4v4l2 6v2l2 2 2 3 3 3v3l8 1 4-3 4 2 5 3 3 3 5 2 5 3 1 1 1 4 1 4 5 4h3l6 1h1-1l-6 8 2 5 2 4"/><path cx="669" cy="338" r="2" fill="#4C5C78" opacity=".7" d="M669.9 335.32v4.47l-3.58-2.68z"/></g><g class="key-Germany"><circle cx="398" cy="185" r="1.3" fill="#4C5C78" opacity=".7"/><path stroke-width=".5" opacity=".7" stroke="#4C5C78" fill="none" stroke-linecap="butt" d="m398 185 11-10 11-6 11-9 9-4 14-11h9l7 6 5 2 8-4 10-6 5-1 4 1 3 3 7-5 6-3 3 4v11l7-4 8-5 5-1 3 8 5 5 6 1 1 8-1 12 8-2 4 2 4 7h5l1 3 1 7-1 6 3 2h7l3 6 2 8h4l4-3-6 3 8 5"/><path cx="602" cy="221" r="2" fill="#4C5C78" opacity=".7" d="m601.36 218.24 2.34 3.82-4.46-.42z"/></g><g class="key-Venezuela"><circle cx="442" cy="332" r="1.3" fill="#932834" opacity=".7"/><path stroke-width=".5" opacity=".7" stroke="#932834" fill="none" stroke-linecap="butt" d="m442 332 9-2 4-4 3 2 7-12 7-8 8-4 9 3-3 2 5-4v18l2 3 7-3 4 1 8-6 3-1-2 2 1-1 3-6 1 3 6-1-1-11-1-10 4-7 4 6 3 1 7-8 4-8-2-9-2 3-8 3-4 6h-3l-12 6-5 13h-4l5-4 1 1 5-5-16 16 5-7 10-13 6-1-2 5-5 17 3 6-2 6 6-16-1 3-11 13 3-2 3 8-14 10-13 5 22-5 12-5 11-13 10-6 5 2-6 2-2 3 6 1"/><path cx="545" cy="320" r="2" fill="#932834" opacity=".7" d="m543.36 317.7 3.61 2.63-4.27 1.31z"/></g><g class="key-Italy"><circle cx="393" cy="288" r="1.3" fill="#4C5C78" opacity=".7"/><path stroke-width=".5" opacity=".7" stroke="#4C5C78" fill="none" stroke-linecap="butt" d="m393 288 9-5 9-8 6-6 7-3 5-5 8-7 6-1 7-2 7-7 10-9 10-8 8-10 4-2 2 4 7-1 8-3 11-5 6-5 3-5h12l5-1h-3l8 4 3-1 5 2 7-1 5-1v3l1 5 1 6 4 12 3 7 4 3 4 4h6l4 1h3l3 4 2 4-1 1 4 1h5l3 4 3 1h3l4 2 6 4 3 1 1 1h1l2 1h1l4 2h2l-1 2-8 4 3 5 2 1"/><path cx="640" cy="281" r="2" fill="#4C5C78" opacity=".7" d="m639.1 278.32 2.69 3.57h-4.47z"/></g><g class="key-South-Korea"><circle cx="193" cy="417" r="1.3" fill="#2D8587" opacity=".7"/><path stroke-width=".5" opacity=".7" stroke="#2D8587" fill="none" stroke-linecap="butt" d="m193 417 27-27h9l6-15h12l9-18 14-13 16-3 10 5 11-3 7-3 17-13 10-15 8-13 15-19 14-9 12-14 10-4-5 8 8 9 9-1 15-8 12-12h9l13-8 15-15 15-6 8-1 11-1 12-5 6 8 6 10 10 3h11l8 6 5 8-9 25 12 4 10-5 4 5h9l2-1 5 1 4 4 5 4 6 3h2-1l7-4"/><path cx="624" cy="284" r="2" fill="#2D8587" opacity=".7" d="m621.27 283.26 4.47-.25-2.48 3.72z"/></g><g class="key-Ghana"><circle cx="254" cy="357" r="1.3" fill="#923E8B" opacity=".7"/><path stroke-width=".5" opacity=".7" stroke="#923E8B" fill="none" stroke-linecap="butt" d="m254 357 1 1 3 4 1-1-1 10-2 4-4 5-2-11h-2l1-4 10-3 6 1-8 7-1-16 6 1-22-8-8-2 1-4 9 3-6 11-6-3-2 18-13 14-15 8 4-8 2-12 2-3 3-3 3-4 3-3 1 3 4 4 2-1 2 1 2 1 3 2h4l4-3h3l4-1 2-2 3 2 3-1h4l4-1h10l3 3 9-3 4 3h7l15-16"/><path cx="310" cy="350" r="2" fill="#923E8B" opacity=".7" d="m307.17 350.1 4.2-1.56-1.28 4.29z"/></g><g class="key-Morocco"><circle cx="249" cy="379" r="1.3" fill="#923E8B" opacity=".7"/><path stroke-width=".5" opacity=".7" stroke="#923E8B" fill="none" stroke-linecap="butt" d="m249 379 1-17 2 10 1-3 1 2 2-3 4-5 4-2 4-3 4-2 4-6 4-5 1-6 2-3 4-6 7-20 11-11 4-7 2 8 3 2 10 4-7-6 11-1-5 3 2 5 5-4 7 4-7 2 10-7v2l2-7 7 4-5 2-3 2 12 2-10-1h14l-4-4 8 2-1 3 1-2h9l2-1 7-1 5 1 3-1 9-4 3-6 7-3 4 2 4-2 6 1 2 2"/><path cx="422" cy="293" r="2" fill="#923E8B" opacity=".7" d="m422 290.17 1.41 4.24-4.24-1.41z"/></g><g class="key-Peru"><circle cx="361" cy="350" r="1.3" fill="#932834" opacity=".7"/><path stroke-width=".5" opacity=".7" stroke="#932834" fill="none" stroke-linecap="butt" d="m361 350 8-6h6l2 3 5-3 5-3 8-3 1-2-5 3v2l6-6 2-12 1 3h3l3-12 7 9-2 7-3-2-4 10 4 13 3-5 3-1-3-2-24 1 4 3-1 7 10-1 9-6-15-8-21 1-10 9-3-1h4l14-7h8l2-1 6 3-2 7 1 12 2-2-1 3 6 1 4 7 6-6 7 2 9-4 10-9 11-2 1 1 10-5 7 2"/><path cx="465" cy="350" r="2" fill="#932834" opacity=".7" d="m463.63 347.53 3.3 3.02-4.4.82z"/></g><g class="key-South-Africa"><circle cx="364" cy="313" r="1.3" fill="#923E8B" opacity=".7"/><path stroke-width=".5" opacity=".7" stroke="#923E8B" fill="none" stroke-linecap="butt" d="m364 313 2-3 4-2 6-4 6-9 4-7 2-3 6-3 2-2 4-3 4-5h3-1l2-6 4-5-1 5v-3l-3 1v1l2-6 5-11 3-4-5 1-7 4h3l-7-1-3 3v2l2 3v4l-5 3-1 9-3 7 1 4h5l5 2 7 11 4 4 2 9 4 6 6-1h5l6 2 4 2 7-6h8l9 3 8-7h5l-2 5 6 7 6 5"/><path cx="488" cy="325" r="2" fill="#923E8B" opacity=".7" d="m487.74 322.18 1.8 4.1-4.36-1.02z"/></g><g class="key-Tanzania"><circle cx="101" cy="465" r="1.3" fill="#923E8B" opacity=".7"/><path stroke-width=".5" opacity=".7" stroke="#923E8B" fill="none" stroke-linecap="butt" d="M101 465h-5 8l4-1 3-1 1-1 13-2 1-2h3l-2-1h4l1-2 5-1h-1l3 1 5-2v1l-2-1-3 1-6 1-2 1-5 3-1-1-4 1v1l3-2 1-1v1l1-2 3-1 1 1h1l4 1h7l5-1 5-2h6l6-1 8-1 9-1 8-2 9-3 8-4 6-3 11-1 7-1 7-1h9l10-1"/><path cx="256" cy="435" r="2" fill="#923E8B" opacity=".7" d="m253.81 433.2 4.18 1.6-3.78 2.39z"/></g><g class="key-Thailand"><circle cx="220" cy="438" r="1.3" fill="#2D8587" opacity=".7"/><path stroke-width=".5" opacity=".7" stroke="#2D8587" fill="none" stroke-linecap="butt" d="m220 438 3-1 6-1 7-1 4-2 7-1 11-2 7-1 6-1 7-2 5-1 2-3 2-2 10-3 3-2 3-2 9-2 10-3 11 5 4-17 3 2 5 3 5-9 5 8 5 3 5-2 5-1 11-3 15 3 14-7 13-15 8-10 10-1 9-12 8-3 8-12 5-6-6 8-14 14 4-5 5-4 2-7 7-8 7 2 7-6 4 1 5-3h6l1 8-3-8h9v2"/><path cx="505" cy="328" r="2" fill="#2D8587" opacity=".7" d="m507 326-2 4-2-4z"/></g><g class="key-Mauritius"><circle cx="372" cy="289" r="1.3" fill="#923E8B" opacity=".7"/><path stroke-width=".5" opacity=".7" stroke="#923E8B" fill="none" stroke-linecap="butt" d="m372 289-13 51 4-10 9-24 14-34 9-22-1-4 26-24 7-3 3-7 2 3-17 16h5l6 16-1 17 5-28 8-14 12-39 13 14 7 2 6-21 8-11h6l3 3 1 3 3 10 3 5 3 5 5-4h-1l7 6 1 2-2 6 5 11 2 23-1 10 3 2 4-9 4 6v10l2 5 2 3"/><path cx="534" cy="264" r="2" fill="#923E8B" opacity=".7" d="m534.55 261.23.56 4.43-3.88-2.21z"/></g><g class="key-Taiwan"><circle cx="270" cy="342" r="1.3" fill="#2D8587" opacity=".7"/><path stroke-width=".5" opacity=".7" stroke="#2D8587" fill="none" stroke-linecap="butt" d="m270 342 12-10 10-12 8-2 11-14 7-5 9-6 12-12 14-14 14-13 15-13-1-4 4-5 14-10 11-9 15-12 8-14 7-6 6 1 3 9 9 1 12-8 5 5h14l20-9 4 2 10 2 6 8 9 5 9 3 8 3 8-1 7 3 7 5 6-5h4l8 3 7 1-3 6 6 5 5 3 7-3 7-4 6-1 8-2-3 8h13l4-3h3"/><path cx="655" cy="218" r="2" fill="#2D8587" opacity=".7" d="m653 216 4 2-4 2z"/></g><g class="key-Botswana"><circle cx="75" cy="445" r="1.3" fill="#923E8B" opacity=".7"/><path stroke-width=".5" opacity=".7" stroke="#923E8B" fill="none" stroke-linecap="butt" d="m75 445 2-4 11 8 11 8 11 3 11-14 10-11 29 2 28-7 21-11 6-5 5-4 7 6 6 1 8-2 12-12 10-6 11-2 6 3 10 5 13-5h8l5-11 7-11 12-18 35-23 6-14 9-6 2 13 2 9 4 8 8 5 7-2 10 10 1-6 13-9 3 1v-1l9 9 7 6 4 3 7 16 12 5 11-8 10 13-11 4 12 2"/><path cx="496" cy="393" r="2" fill="#923E8B" opacity=".7" d="m494.36 390.7 3.61 2.63-4.27 1.31z"/></g><g class="key-Zambia"><circle cx="229" cy="385" r="1.3" fill="#923E8B" opacity=".7"/><path stroke-width=".5" opacity=".7" stroke="#923E8B" fill="none" stroke-linecap="butt" d="m229 385-12-3 7 11-2 3-5-11 2 10-4 3 8-7-5 2 7-3-10 3 4 5-11 2-3 1-8 4 3 1-9 3-8-1-5 1-2 2-4 3h-2l5 1-3 1 8 1-1 5 3 2 1 4-20 1 5 4h9l5-3v4l7 3 5-1 8-1 6-3 10-2 11-2 10-2 11-1h12l10 1 13-2 14-2"/><path cx="299" cy="422" r="2" fill="#923E8B" opacity=".7" d="m296.74 420.3 4.24 1.42-3.68 2.54z"/></g><g class="key-Malawi"><circle cx="91" cy="433" r="1.3" fill="#923E8B" opacity=".7"/><path stroke-width=".5" opacity=".7" stroke="#923E8B" fill="none" stroke-linecap="butt" d="m91 433 9 5h-5l5-1-2-1 15 1 9-6 8 4 4-2 1-3 1 3 3-1 8-4h2l-4 5-11 8-3 2 1-4h2l6-2-4-4-5 9h-7v-1h6-16l11 3h-13 19l10-1 5 1h-3v-3h-3l-10 3-2-3 3-3 3-2-1-3 2-6 7-7 5-5 6-2 4-4"/><path cx="157" cy="409" r="2" fill="#923E8B" opacity=".7" d="m154.17 409 4.24-1.41-1.41 4.24z"/></g><g class="key-Kenya"><circle cx="192" cy="442" r="1.3" fill="#923E8B" opacity=".7"/><path stroke-width=".5" opacity=".7" stroke="#923E8B" fill="none" stroke-linecap="butt" d="m192 442 5-2 4-2 2 2 2-1h2l-6 3v-1l7 1 7-1h-1 2l-2-1 3-1-5-1h-2v-2l5-2 3-2 4-2 1-2 2-3v-3l-4-3-3-5 3-4 5-7 4-5v-5l3-5 3-5-1-2 4-3-1-4 3-3 5-4 6-5 6-1 7-1-1-2h3l9-1 7-1"/><path cx="283" cy="356" r="2" fill="#923E8B" opacity=".7" d="m280.74 354.3 4.24 1.42-3.68 2.54z"/></g><g class="key-Senegal"><circle cx="260" cy="423" r="1.3" fill="#923E8B" opacity=".7"/><path stroke-width=".5" opacity=".7" stroke="#923E8B" fill="none" stroke-linecap="butt" d="M260 423h-5l5 1-12 2 1-5 7 1 9-3-8-2-10 7 5-4-9 3-6-1 15-3-1 3h-11 3l1-3h3l-7 2 1-1-1-1-3-2-3-1-4-2 3-4-1-3v-3l3-5 5-1v-3l2-3-4-4 5-1 3-5 3-3h-1l2-3 1 3-1-2 1-3"/><path cx="251" cy="374" r="2" fill="#923E8B" opacity=".7" d="m248.47 375.26 3.16-3.16.63 4.43z"/></g><g class="key-Singapore"><circle cx="408" cy="264" r="1.3" fill="#2D8587" opacity=".7"/><path stroke-width=".5" opacity=".7" stroke="#2D8587" fill="none" stroke-linecap="butt" d="m408 264 13-13 15-22 13 14 6-23 4 18 8-4h8l10-13 11-5 12-4 7-13 3 3 10 5 9-8-2 10 2 4 12-1 11-5 9-3 10 4 5 8 7 8 12 9 12 13 7 15 8-5 8-11-5-8 7-8 10-1-4 14 4 11 4 6 11 2 8-2 10-3 11-5v-4l-2 7 19 8 7 3"/><path cx="718" cy="265" r="2" fill="#2D8587" opacity=".7" d="m716.95 262.37 2.89 3.42-4.47.26z"/></g><g class="key-Hong-Kong"><circle cx="487" cy="125" r="1.3" fill="#2D8587" opacity=".7"/><path stroke-width=".5" opacity=".7" stroke="#2D8587" fill="none" stroke-linecap="butt" d="m487 125-3-16 17-5 10 10 7 12 11 12 10 12 10-32 2 4 6 7 11 9-1 38 12 7 15 3 9 14 2 16 3 14 5 13 5 14 5 22 4 13-1 6 2 9 4 8-11 11 2 9 7 5v6l1 7 2 8 10 10 8 3 7 3 7 3 1 5-5 2 7 4 4-1"/><path cx="672" cy="390" r="2" fill="#2D8587" opacity=".7" d="m669.57 388.54 4.37.97-3.4 2.92z"/></g><g class="key-Malaysia"><circle cx="345" cy="359" r="1.3" fill="#2D8587" opacity=".7"/><path stroke-width=".5" opacity=".7" stroke="#2D8587" fill="none" stroke-linecap="butt" d="m345 359 13-20 8-4h8l8-4 8-5 6-4 5-4 5-4 7-3-5 7-2 8 4 1 8-5 9-14 10-12 10-13 9-14 11-6 9-12 11-11 11-10 7-6-13 13h5l9-4-1-3 5 10 5-1 7 15 5 2 6-1 7 12 5-3-3 12h9l6-4"/><path cx="557" cy="272" r="2" fill="#2D8587" opacity=".7" d="m554.23 271.45 4.43-.56-2.21 3.88z"/></g><g class="backgroundLabels" fill="#333" font-weight="400"><text x="472.24" y="261.35" font-size="14.3" fill="#2D8587" style="fill:#fff;stroke:#fff;stroke-linecap:round;stroke-linejoin:round;stroke-width:.25em">China</text><text x="472.24" y="261.35" font-size="14.3" fill="#2D8587">China</text><text x="359.47" y="344.3" font-size="14.12" fill="#2D8587" style="fill:#fff;stroke:#fff;stroke-linecap:round;stroke-linejoin:round;stroke-width:.25em">India</text><text x="359.47" y="344.3" font-size="14.12" fill="#2D8587">India</text><text x="624.81" y="364.42" font-size="12.59" fill="#E04E4B" style="fill:#fff;stroke:#fff;stroke-linecap:round;stroke-linejoin:round;stroke-width:.25em">United States</text><text x="624.81" y="364.42" font-size="12.59" fill="#E04E4B">United States</text><text x="457" y="324" font-size="12.4" fill="#2D8587" style="fill:#fff;stroke:#fff;stroke-linecap:round;stroke-linejoin:round;stroke-width:.25em">Indonesia</text><text x="457" y="324" font-size="12.4" fill="#2D8587">Indonesia</text><text x="524.93" y="337.95" font-size="12.25" fill="#932834" style="fill:#fff;stroke:#fff;stroke-linecap:round;stroke-linejoin:round;stroke-width:.25em">Brazil</text><text x="524.93" y="337.95" font-size="12.25" fill="#932834">Brazil</text><text x="376.16" y="424.23" font-size="12.13" fill="#923E8B" style="fill:#fff;stroke:#fff;stroke-linecap:round;stroke-linejoin:round;stroke-width:.25em">Nigeria</text><text x="376.16" y="424.23" font-size="12.13" fill="#923E8B">Nigeria</text><text x="645.47" y="318.24" font-size="12.01" fill="#2D8587" style="fill:#fff;stroke:#fff;stroke-linecap:round;stroke-linejoin:round;stroke-width:.25em">Japan</text><text x="645.47" y="318.24" font-size="12.01" fill="#2D8587">Japan</text><text x="527.9" y="294.96" font-size="11.96" fill="#E04E4B" style="fill:#fff;stroke:#fff;stroke-linecap:round;stroke-linejoin:round;stroke-width:.25em">Mexico</text><text x="527.9" y="294.96" font-size="11.96" fill="#E04E4B">Mexico</text><text x="401.81" y="378.31" font-size="11.88" fill="#2D8587" style="fill:#fff;stroke:#fff;stroke-linecap:round;stroke-linejoin:round;stroke-width:.25em">Philippines</text><text x="401.81" y="378.31" font-size="11.88" fill="#2D8587">Philippines</text><text x="174.04" y="400.06" font-size="11.84" fill="#923E8B" style="fill:#fff;stroke:#fff;stroke-linecap:round;stroke-linejoin:round;stroke-width:.25em">Ethiopia</text><text x="174.04" y="400.06" font-size="11.84" fill="#923E8B">Ethiopia</text><text x="475" y="304" font-size="11.83" fill="#923E8B" style="fill:#fff;stroke:#fff;stroke-linecap:round;stroke-linejoin:round;stroke-width:.25em">Egypt</text><text x="475" y="304" font-size="11.83" fill="#923E8B">Egypt</text><text x="655.47" y="340.88" font-size="11.29" fill="#4C5C78" style="fill:#fff;stroke:#fff;stroke-linecap:round;stroke-linejoin:round;stroke-width:.25em">Belgium</text><text x="655.47" y="340.88" font-size="11.29" fill="#4C5C78">Belgium</text><text x="635" y="267" font-size="11.6" fill="#4C5C78" style="fill:#fff;stroke:#fff;stroke-linecap:round;stroke-linejoin:round;stroke-width:.25em">Spain</text><text x="635" y="267" font-size="11.6" fill="#4C5C78">Spain</text><text x="565.34" y="321.52" font-size="11.57" fill="#932834" style="fill:#fff;stroke:#fff;stroke-linecap:round;stroke-linejoin:round;stroke-width:.25em">Argentina</text><text x="565.34" y="321.52" font-size="11.57" fill="#932834">Argentina</text><text x="377" y="302" font-size="11.28" fill="#932834" style="fill:#fff;stroke:#fff;stroke-linecap:round;stroke-linejoin:round;stroke-width:.25em">Bolivia</text><text x="377" y="302" font-size="11.28" fill="#932834">Bolivia</text><text x="606.24" y="229.55" font-size="11.79" fill="#4C5C78" style="fill:#fff;stroke:#fff;stroke-linecap:round;stroke-linejoin:round;stroke-width:.25em">Germany</text><text x="606.24" y="229.55" font-size="11.79" fill="#4C5C78">Germany</text><text x="644.47" y="289.08" font-size="11.69" fill="#4C5C78" style="fill:#fff;stroke:#fff;stroke-linecap:round;stroke-linejoin:round;stroke-width:.25em">Italy</text><text x="644.47" y="289.08" font-size="11.69" fill="#4C5C78">Italy</text><text x="469.81" y="357.11" font-size="11.48" fill="#932834" style="fill:#fff;stroke:#fff;stroke-linecap:round;stroke-linejoin:round;stroke-width:.25em">Peru</text><text x="469.81" y="357.11" font-size="11.48" fill="#932834">Peru</text><text x="260.98" y="434.5" font-size="11.6" fill="#923E8B" style="fill:#fff;stroke:#fff;stroke-linecap:round;stroke-linejoin:round;stroke-width:.25em">Tanzania</text><text x="260.98" y="434.5" font-size="11.6" fill="#923E8B">Tanzania</text><text x="500.93" y="399.38" font-size="11.13" fill="#923E8B" style="fill:#fff;stroke:#fff;stroke-linecap:round;stroke-linejoin:round;stroke-width:.25em">Botswana</text><text x="500.93" y="399.38" font-size="11.13" fill="#923E8B">Botswana</text><text x="287.95" y="355.29" font-size="11.58" fill="#923E8B" style="fill:#fff;stroke:#fff;stroke-linecap:round;stroke-linejoin:round;stroke-width:.25em">Kenya</text><text x="287.95" y="355.29" font-size="11.58" fill="#923E8B">Kenya</text><text x="620.34" y="388.79" font-size="11.24" fill="#2D8587" style="fill:#fff;stroke:#fff;stroke-linecap:round;stroke-linejoin:round;stroke-width:.25em">Hong Kong</text><text x="620.34" y="388.79" font-size="11.24" fill="#2D8587">Hong Kong</text><text x="561.16" y="269.23" font-size="11.48" fill="#2D8587" style="fill:#fff;stroke:#fff;stroke-linecap:round;stroke-linejoin:round;stroke-width:.25em">Malaysia</text><text x="561.16" y="269.23" font-size="11.48" fill="#2D8587">Malaysia</text></g></g><g class="ScatterColorLegend clickable" style="cursor:pointer"><g class="legendMark"><path fill="#923E8B" d="M738.09 94h9v9h-9z"/><text font-size="12.6" x="752.1" y="102.3"><tspan x="752.09" y="102.28">Africa</tspan></text></g><g class="legendMark"><path fill="#2D8587" d="M738.09 111.6h9v9h-9z"/><text font-size="12.6" x="752.1" y="119.9"><tspan x="752.09" y="119.88">Asia</tspan></text></g><g class="legendMark"><path fill="#4C5C78" d="M738.09 129.2h9v9h-9z"/><text font-size="12.6" x="752.1" y="137.5"><tspan x="752.09" y="137.48">Europe</tspan></text></g><g class="legendMark"><path fill="#E04E4B" d="M738.09 146.8h9v9h-9z"/><text font-size="12.6" x="752.1" y="155.1"><tspan x="752.09" y="155.08">North America</tspan></text></g><g class="legendMark"><path fill="#932834" d="M738.09 164.4h9v9h-9z"/><text font-size="12.6" x="752.1" y="172.7"><tspan x="752.09" y="172.68">South America</tspan></text></g></g><path stroke="#ccc" d="M738.09 181.2H830"/><g class="clickable"><g class="ConnectedScatterLegend"><text font-size="12.6" x="738.1" y="198.3" fill="#333"><tspan x="738.09" y="198.28">1800</tspan></text><text font-size="12.6" x="806.8" y="198.3" fill="#333"><tspan x="806.78" y="198.28">2015</tspan></text><path stroke="#666" stroke-width="1" d="M771.32 194h30.46"/><circle cx="771.32" cy="194" r="2" fill="#666" stroke="#ccc" stroke-width=".2"/><circle cx="781.47" cy="194" r="2" fill="#666" stroke="#ccc" stroke-width=".2"/><circle cx="791.62" cy="194" r="2" fill="#666" stroke="#ccc" stroke-width=".2"/><path cx="801.78" cy="194" r="3" fill="#666" stroke="#ccc" stroke-width=".2" d="m798.78 191 6 3-6 3z"/></g></g></g><g class="SourcesFooter" style="fill:#777"><g style="fill:#777"><text font-size="12.6" x="15" y="554.2"><tspan x="15" y="554.18">Source: Our World In Data based on Herrendorf et al. (2014) and GGDC-10 (2015), Maddison Project Database 2020 (Bolt and van Zanden,</tspan><tspan x="15" y="568.04">2020)</tspan></text></g><text font-size="12.6" x="15" y="582.5"><tspan x="15" y="582.48"><a style="fill:#777" class="cclogo" href="http://creativecommons.org/licenses/by/4.0/deed.en_US" target="_blank">CC BY</a></tspan></text></g></svg>