<svg xmlns="http://www.w3.org/2000/svg" version="1.1" style="font-family:Lato,'Helvetica Neue',Helvetica,Arial,sans-serif;font-size:18px;background-color:#fff;text-rendering:geometricPrecision;-webkit-font-smoothing:antialiased" width="850" height="600" viewBox="0 0 850 600"><g class="HeaderView"><g transform="matrix(.29 0 0 .29 774 15)"><svg className="owidLog" width="210" height="120" viewBox="0 0 210 120" fill="none" xmlns="http://www.w3.org/2000/svg"><g clip-path="url(#a)"><path d="M0 0h210v107.89H0V0z" fill="#002147"/><path d="M40.98 32.25c0 2.36-.38 4.53-1.12 6.51a14.26 14.26 0 0 1-8.1 8.4c-1.9.78-4.02 1.17-6.34 1.17a16.6 16.6 0 0 1-6.33-1.17 14.31 14.31 0 0 1-8.08-8.4 18.29 18.29 0 0 1-1.12-6.51c0-2.36.38-4.53 1.12-6.5.75-1.97 1.8-3.67 3.17-5.1a14.32 14.32 0 0 1 4.9-3.34c1.92-.8 4.03-1.19 6.34-1.19 2.32 0 4.43.4 6.34 1.19 1.92.8 3.56 1.9 4.93 3.34a14.87 14.87 0 0 1 3.17 5.1 18.1 18.1 0 0 1 1.12 6.5zm-4.38 0c0-1.94-.26-3.68-.8-5.22a10.91 10.91 0 0 0-2.24-3.89 9.68 9.68 0 0 0-3.52-2.46 11.95 11.95 0 0 0-4.62-.86c-1.68 0-3.21.28-4.6.86a9.88 9.88 0 0 0-3.54 2.46 10.91 10.91 0 0 0-2.24 3.9c-.53 1.53-.8 3.27-.8 5.2 0 1.94.27 3.68.8 5.22a11.17 11.17 0 0 0 2.24 3.9 10.01 10.01 0 0 0 3.55 2.44c1.38.56 2.9.83 4.6.83s3.24-.27 4.61-.83a9.8 9.8 0 0 0 3.52-2.44 11.17 11.17 0 0 0 2.25-3.9c.53-1.54.8-3.28.8-5.21zm26.22-6.54V48H60.5c-.56 0-.9-.27-1.05-.81l-.31-2.4a12.45 12.45 0 0 1-3.26 2.6c-1.2.64-2.58.96-4.13.96-1.22 0-2.3-.2-3.24-.6a6.52 6.52 0 0 1-2.33-1.7 7.37 7.37 0 0 1-1.43-2.67c-.3-1.04-.46-2.2-.46-3.45V25.7h3.91v14.22c0 1.68.38 2.99 1.15 3.91.77.93 1.96 1.39 3.54 1.39 1.16 0 2.24-.27 3.23-.82a10.42 10.42 0 0 0 2.8-2.28V25.7h3.91zm8.61 4.47a9.94 9.94 0 0 1 2.6-3.56 5.64 5.64 0 0 1 3.76-1.3c.47 0 .92.05 1.34.15.44.1.83.27 1.17.49l-.3 2.92c-.09.37-.3.55-.66.55-.2 0-.5-.04-.9-.13a6.21 6.21 0 0 0-3.24.18 4.23 4.23 0 0 0-1.47.92c-.42.4-.81.9-1.17 1.5-.33.58-.64 1.26-.92 2.02V48H67.7V25.71h2.25c.42 0 .72.08.88.25.16.16.27.44.33.83l.26 3.39zm61.16-13.7L122.75 48h-3.82l-7.99-24.05a21.95 21.95 0 0 1-.42-1.58 38.36 38.36 0 0 1-.44 1.58L102.05 48h-3.83L88.4 16.47h3.54c.38 0 .7.1.95.29.26.2.43.43.5.73l6.52 21.9.28 1.28.29 1.46.3-1.46.38-1.27 7.41-21.91c.1-.25.26-.48.51-.69.27-.22.58-.33.95-.33h1.23c.38 0 .69.1.92.29a1.77 1.77 0 0 1 .53.73l7.4 21.9a28.4 28.4 0 0 1 .68 2.62 29.52 29.52 0 0 1 .52-2.61l6.54-21.91a1.31 1.31 0 0 1 .48-.7c.27-.21.58-.32.95-.32h3.32zm9.35 8.88c1.63 0 3.1.27 4.4.82a9.43 9.43 0 0 1 5.46 5.94c.5 1.4.74 2.98.74 4.73 0 1.76-.25 3.34-.74 4.75a9.43 9.43 0 0 1-5.46 5.92c-1.3.52-2.77.79-4.4.79-1.64 0-3.12-.27-4.44-.8a9.42 9.42 0 0 1-3.35-2.3c-.92-1-1.63-2.2-2.13-3.61-.49-1.41-.73-3-.73-4.75s.24-3.33.73-4.73c.5-1.43 1.2-2.64 2.13-3.63a9.4 9.4 0 0 1 3.35-2.31c1.32-.55 2.8-.82 4.44-.82zm0 19.89c2.2 0 3.84-.73 4.93-2.2 1.08-1.48 1.63-3.54 1.63-6.18 0-2.66-.55-4.72-1.63-6.2-1.09-1.49-2.73-2.23-4.93-2.23-1.12 0-2.09.2-2.93.57a5.71 5.71 0 0 0-2.06 1.65 7.5 7.5 0 0 0-1.24 2.67c-.26 1.04-.4 2.22-.4 3.54 0 2.64.55 4.7 1.64 6.18 1.1 1.47 2.76 2.2 4.99 2.2zm17.97-15.07a9.94 9.94 0 0 1 2.6-3.56 5.64 5.64 0 0 1 3.76-1.3c.47 0 .91.05 1.34.15.44.1.83.27 1.16.49l-.28 2.92c-.09.37-.31.55-.66.55-.2 0-.5-.04-.9-.13a6.2 6.2 0 0 0-3.24.18 4.23 4.23 0 0 0-1.47.92c-.43.4-.82.9-1.17 1.5a13.1 13.1 0 0 0-.92 2.02V48h-3.94V25.71h2.24c.43 0 .72.08.88.25.17.16.28.44.33.83l.27 3.39zm15.04-14.59V48h-3.92V15.6h3.92zm19.55 15.43a6.22 6.22 0 0 0-2.38-2.05 6.7 6.7 0 0 0-2.86-.6c-2.07 0-3.66.75-4.77 2.23-1.12 1.48-1.68 3.6-1.68 6.33 0 1.46.13 2.7.38 3.74a7.29 7.29 0 0 0 1.1 2.56 4.35 4.35 0 0 0 1.78 1.45c.7.3 1.5.46 2.4.46 1.29 0 2.41-.3 3.36-.88a9.6 9.6 0 0 0 2.67-2.49V31.02zm3.91-15.43V48h-2.33c-.56 0-.9-.27-1.06-.81l-.35-2.71a12.13 12.13 0 0 1-3.25 2.77 8.28 8.28 0 0 1-4.23 1.06 7.31 7.31 0 0 1-6.14-2.9c-.73-.96-1.3-2.15-1.69-3.57a18.35 18.35 0 0 1 .07-9.48 11.29 11.29 0 0 1 1.89-3.7 8.7 8.7 0 0 1 7.06-3.34 7.96 7.96 0 0 1 6.12 2.62V15.59h3.91zM46.61 70.71V93H42.7V70.71h3.91zm.84-7c0 .39-.08.75-.24 1.09a2.81 2.81 0 0 1-1.52 1.47 2.67 2.67 0 0 1-2.16 0 2.9 2.9 0 0 1-1.45-1.47 2.67 2.67 0 0 1 0-2.16c.15-.35.35-.65.6-.9.25-.27.53-.47.85-.62a2.67 2.67 0 0 1 2.16 0c.35.15.65.35.9.62.27.25.47.55.62.9.16.34.24.7.24 1.08zm7.97 10.24c.49-.54 1-1.04 1.54-1.48a9.85 9.85 0 0 1 3.66-1.84 8.96 8.96 0 0 1 5.43.35c.94.4 1.72.97 2.33 1.71a7.36 7.36 0 0 1 1.43 2.67c.32 1.04.49 2.19.49 3.45V93h-3.94V78.81c0-1.69-.4-3-1.17-3.92-.76-.93-1.93-1.4-3.5-1.4a6.6 6.6 0 0 0-3.25.83c-1 .56-1.92 1.31-2.77 2.27V93h-3.94V70.71h2.35c.56 0 .9.28 1.04.82l.3 2.42zm57.7 3.3c0 2.36-.37 4.5-1.11 6.44a14.3 14.3 0 0 1-3.17 4.98 14.1 14.1 0 0 1-4.93 3.2c-1.9.76-4.02 1.13-6.33 1.13H85.8V61.47h11.77c2.31 0 4.42.39 6.33 1.15a13.8 13.8 0 0 1 8.1 8.18 17.75 17.75 0 0 1 1.12 6.45zm-4.37 0c0-1.94-.26-3.67-.8-5.2a10.94 10.94 0 0 0-2.23-3.87 9.57 9.57 0 0 0-3.53-2.42 12.23 12.23 0 0 0-4.61-.83h-7.5v24.62h7.5c1.7 0 3.24-.28 4.61-.84a9.7 9.7 0 0 0 3.53-2.4 10.94 10.94 0 0 0 2.24-3.87c.53-1.53.8-3.26.8-5.2zm19.8 5.72c-1.8.06-3.34.2-4.62.44-1.26.22-2.3.51-3.1.88-.8.36-1.37.8-1.74 1.3-.35.5-.53 1.05-.53 1.67 0 .58.1 1.1.3 1.52a3 3 0 0 0 .76 1.05c.34.27.73.46 1.17.6a6.13 6.13 0 0 0 1.45.17 7.28 7.28 0 0 0 3.5-.81 11.95 11.95 0 0 0 2.82-2.2v-4.62zm-12.65-9.11a12.73 12.73 0 0 1 3.98-2.66c1.43-.59 3-.88 4.73-.88 1.25 0 2.36.2 3.33.61a6.81 6.81 0 0 1 3.94 4.38c.33 1.04.5 2.19.5 3.43V93h-1.74a1.8 1.8 0 0 1-.88-.18c-.2-.13-.36-.38-.48-.74l-.44-2.12-1.72 1.46a9.48 9.48 0 0 1-3.74 1.7c-.69.15-1.46.23-2.3.23-.87 0-1.69-.12-2.45-.35a5.34 5.34 0 0 1-3.34-2.93 6.64 6.64 0 0 1-.49-2.64c0-.88.25-1.72.73-2.53a6.33 6.33 0 0 1 2.35-2.17c1.09-.63 2.5-1.15 4.25-1.54 1.75-.41 3.89-.65 6.42-.7v-1.75c0-1.73-.37-3.03-1.12-3.91-.75-.9-1.84-1.34-3.28-1.34-.97 0-1.78.12-2.44.37-.64.23-1.2.5-1.7.81l-1.23.82c-.33.23-.67.35-1 .35-.27 0-.5-.07-.69-.2a2.1 2.1 0 0 1-.48-.53l-.7-1.25zm27.67 19.5c-1.76 0-3.12-.5-4.07-1.48-.94-.98-1.41-2.4-1.41-4.25V74h-2.68a.9.9 0 0 1-.6-.2c-.16-.14-.24-.36-.24-.66v-1.56l3.65-.46.9-6.89a.9.9 0 0 1 .29-.52.88.88 0 0 1 .62-.22H142v7.67h6.44V74H142v13.38c0 .94.22 1.63.68 2.09.45.45 1.04.68 1.76.68a3.21 3.21 0 0 0 1.85-.53l.55-.35c.16-.12.3-.18.41-.18.2 0 .4.13.55.38l1.15 1.87a7.45 7.45 0 0 1-2.44 1.5 8.53 8.53 0 0 1-2.95.52zm19.68-10.4c-1.8.07-3.34.21-4.62.45-1.26.22-2.3.51-3.1.88-.8.36-1.37.8-1.74 1.3-.35.5-.53 1.05-.53 1.67 0 .58.1 1.1.3 1.52a2.9 2.9 0 0 0 .76 1.05c.34.27.73.46 1.17.6a6.13 6.13 0 0 0 1.45.17 7.3 7.3 0 0 0 3.5-.81 12.04 12.04 0 0 0 2.82-2.2v-4.62zm-12.65-9.1a12.72 12.72 0 0 1 3.99-2.66c1.42-.59 3-.88 4.72-.88 1.25 0 2.36.2 3.33.61a6.81 6.81 0 0 1 3.94 4.38c.33 1.04.5 2.19.5 3.43V93h-1.74a1.8 1.8 0 0 1-.88-.18c-.2-.13-.36-.38-.48-.74l-.44-2.12-1.72 1.46a9.48 9.48 0 0 1-3.74 1.7c-.69.15-1.46.23-2.3.23-.87 0-1.69-.12-2.45-.35a5.33 5.33 0 0 1-3.34-2.93 6.62 6.62 0 0 1-.49-2.64c0-.88.25-1.72.73-2.53a6.33 6.33 0 0 1 2.35-2.17c1.09-.63 2.5-1.15 4.25-1.54a31.2 31.2 0 0 1 6.42-.7v-1.75c0-1.73-.37-3.03-1.12-3.91-.75-.9-1.84-1.34-3.28-1.34-.97 0-1.78.12-2.44.37-.64.23-1.2.5-1.7.81l-1.22.82c-.34.23-.68.35-1.02.35-.26 0-.49-.07-.68-.2a1.88 1.88 0 0 1-.48-.53l-.7-1.25zM40.98 32.25c0 2.36-.38 4.53-1.12 6.51a14.26 14.26 0 0 1-8.1 8.4c-1.9.78-4.02 1.17-6.34 1.17a16.6 16.6 0 0 1-6.33-1.17 14.31 14.31 0 0 1-8.08-8.4 18.29 18.29 0 0 1-1.12-6.51c0-2.36.38-4.53 1.12-6.5.75-1.97 1.8-3.67 3.17-5.1a14.32 14.32 0 0 1 4.9-3.34c1.92-.8 4.03-1.19 6.34-1.19 2.32 0 4.43.4 6.34 1.19 1.92.8 3.56 1.9 4.93 3.34a14.87 14.87 0 0 1 3.17 5.1 18.1 18.1 0 0 1 1.12 6.5zm-4.38 0c0-1.94-.26-3.68-.8-5.22a10.91 10.91 0 0 0-2.24-3.89 9.68 9.68 0 0 0-3.52-2.46 11.95 11.95 0 0 0-4.62-.86c-1.68 0-3.21.28-4.6.86a9.88 9.88 0 0 0-3.54 2.46 10.91 10.91 0 0 0-2.24 3.9c-.53 1.53-.8 3.27-.8 5.2 0 1.94.27 3.68.8 5.22a11.17 11.17 0 0 0 2.24 3.9 10.01 10.01 0 0 0 3.55 2.44c1.38.56 2.9.83 4.6.83s3.24-.27 4.61-.83a9.8 9.8 0 0 0 3.52-2.44 11.17 11.17 0 0 0 2.25-3.9c.53-1.54.8-3.28.8-5.21zm26.22-6.54V48H60.5c-.56 0-.9-.27-1.05-.81l-.31-2.4a12.45 12.45 0 0 1-3.26 2.6c-1.2.64-2.58.96-4.13.96-1.22 0-2.3-.2-3.24-.6a6.52 6.52 0 0 1-2.33-1.7 7.37 7.37 0 0 1-1.43-2.67c-.3-1.04-.46-2.2-.46-3.45V25.7h3.91v14.22c0 1.68.38 2.99 1.15 3.91.77.93 1.96 1.39 3.54 1.39 1.16 0 2.24-.27 3.23-.82a10.42 10.42 0 0 0 2.8-2.28V25.7h3.91zm8.61 4.47a9.94 9.94 0 0 1 2.6-3.56 5.64 5.64 0 0 1 3.76-1.3c.47 0 .92.05 1.34.15.44.1.83.27 1.17.49l-.3 2.92c-.09.37-.3.55-.66.55-.2 0-.5-.04-.9-.13a6.21 6.21 0 0 0-3.24.18 4.23 4.23 0 0 0-1.47.92c-.42.4-.81.9-1.17 1.5-.33.58-.64 1.26-.92 2.02V48H67.7V25.71h2.25c.42 0 .72.08.88.25.16.16.27.44.33.83l.26 3.39zm61.16-13.7L122.75 48h-3.82l-7.99-24.05a21.95 21.95 0 0 1-.42-1.58 38.36 38.36 0 0 1-.44 1.58L102.05 48h-3.83L88.4 16.47h3.54c.38 0 .7.1.95.29.26.2.43.43.5.73l6.52 21.9.28 1.28.29 1.46.3-1.46.38-1.27 7.41-21.91c.1-.25.26-.48.51-.69.27-.22.58-.33.95-.33h1.23c.38 0 .69.1.92.29a1.77 1.77 0 0 1 .53.73l7.4 21.9a28.4 28.4 0 0 1 .68 2.62 29.52 29.52 0 0 1 .52-2.61l6.54-21.91a1.31 1.31 0 0 1 .48-.7c.27-.21.58-.32.95-.32h3.32zm9.35 8.88c1.63 0 3.1.27 4.4.82a9.43 9.43 0 0 1 5.46 5.94c.5 1.4.74 2.98.74 4.73 0 1.76-.25 3.34-.74 4.75a9.43 9.43 0 0 1-5.46 5.92c-1.3.52-2.77.79-4.4.79-1.64 0-3.12-.27-4.44-.8a9.42 9.42 0 0 1-3.35-2.3c-.92-1-1.63-2.2-2.13-3.61-.49-1.41-.73-3-.73-4.75s.24-3.33.73-4.73c.5-1.43 1.2-2.64 2.13-3.63a9.4 9.4 0 0 1 3.35-2.31c1.32-.55 2.8-.82 4.44-.82zm0 19.89c2.2 0 3.84-.73 4.93-2.2 1.08-1.48 1.63-3.54 1.63-6.18 0-2.66-.55-4.72-1.63-6.2-1.09-1.49-2.73-2.23-4.93-2.23-1.12 0-2.09.2-2.93.57a5.71 5.71 0 0 0-2.06 1.65 7.5 7.5 0 0 0-1.24 2.67c-.26 1.04-.4 2.22-.4 3.54 0 2.64.55 4.7 1.64 6.18 1.1 1.47 2.76 2.2 4.99 2.2zm17.97-15.07a9.94 9.94 0 0 1 2.6-3.56 5.64 5.64 0 0 1 3.76-1.3c.47 0 .91.05 1.34.15.44.1.83.27 1.16.49l-.28 2.92c-.09.37-.31.55-.66.55-.2 0-.5-.04-.9-.13a6.2 6.2 0 0 0-3.24.18 4.23 4.23 0 0 0-1.47.92c-.43.4-.82.9-1.17 1.5a13.1 13.1 0 0 0-.92 2.02V48h-3.94V25.71h2.24c.43 0 .72.08.88.25.17.16.28.44.33.83l.27 3.39zm15.04-14.59V48h-3.92V15.6h3.92zm19.55 15.43a6.22 6.22 0 0 0-2.38-2.05 6.7 6.7 0 0 0-2.86-.6c-2.07 0-3.66.75-4.77 2.23-1.12 1.48-1.68 3.6-1.68 6.33 0 1.46.13 2.7.38 3.74a7.29 7.29 0 0 0 1.1 2.56 4.35 4.35 0 0 0 1.78 1.45c.7.3 1.5.46 2.4.46 1.29 0 2.41-.3 3.36-.88a9.6 9.6 0 0 0 2.67-2.49V31.02zm3.91-15.43V48h-2.33c-.56 0-.9-.27-1.06-.81l-.35-2.71a12.13 12.13 0 0 1-3.25 2.77 8.28 8.28 0 0 1-4.23 1.06 7.31 7.31 0 0 1-6.14-2.9c-.73-.96-1.3-2.15-1.69-3.57a18.35 18.35 0 0 1 .07-9.48 11.29 11.29 0 0 1 1.89-3.7 8.7 8.7 0 0 1 7.06-3.34 7.96 7.96 0 0 1 6.12 2.62V15.59h3.91zM46.61 70.71V93H42.7V70.71h3.91zm.84-7c0 .39-.08.75-.24 1.09a2.81 2.81 0 0 1-1.52 1.47 2.67 2.67 0 0 1-2.16 0 2.9 2.9 0 0 1-1.45-1.47 2.67 2.67 0 0 1 0-2.16c.15-.35.35-.65.6-.9.25-.27.53-.47.85-.62a2.67 2.67 0 0 1 2.16 0c.35.15.65.35.9.62.27.25.47.55.62.9.16.34.24.7.24 1.08zm7.97 10.24c.49-.54 1-1.04 1.54-1.48a9.85 9.85 0 0 1 3.66-1.84 8.96 8.96 0 0 1 5.43.35c.94.4 1.72.97 2.33 1.71a7.36 7.36 0 0 1 1.43 2.67c.32 1.04.49 2.19.49 3.45V93h-3.94V78.81c0-1.69-.4-3-1.17-3.92-.76-.93-1.93-1.4-3.5-1.4a6.6 6.6 0 0 0-3.25.83c-1 .56-1.92 1.31-2.77 2.27V93h-3.94V70.71h2.35c.56 0 .9.28 1.04.82l.3 2.42zm57.7 3.3c0 2.36-.37 4.5-1.11 6.44a14.3 14.3 0 0 1-3.17 4.98 14.1 14.1 0 0 1-4.93 3.2c-1.9.76-4.02 1.13-6.33 1.13H85.8V61.47h11.77c2.31 0 4.42.39 6.33 1.15a13.8 13.8 0 0 1 8.1 8.18 17.75 17.75 0 0 1 1.12 6.45zm-4.37 0c0-1.94-.26-3.67-.8-5.2a10.94 10.94 0 0 0-2.23-3.87 9.57 9.57 0 0 0-3.53-2.42 12.23 12.23 0 0 0-4.61-.83h-7.5v24.62h7.5c1.7 0 3.24-.28 4.61-.84a9.7 9.7 0 0 0 3.53-2.4 10.94 10.94 0 0 0 2.24-3.87c.53-1.53.8-3.26.8-5.2zm19.8 5.72c-1.8.06-3.34.2-4.62.44-1.26.22-2.3.51-3.1.88-.8.36-1.37.8-1.74 1.3-.35.5-.53 1.05-.53 1.67 0 .58.1 1.1.3 1.52a3 3 0 0 0 .76 1.05c.34.27.73.46 1.17.6a6.13 6.13 0 0 0 1.45.17 7.28 7.28 0 0 0 3.5-.81 11.95 11.95 0 0 0 2.82-2.2v-4.62zm-12.65-9.11a12.73 12.73 0 0 1 3.98-2.66c1.43-.59 3-.88 4.73-.88 1.25 0 2.36.2 3.33.61a6.81 6.81 0 0 1 3.94 4.38c.33 1.04.5 2.19.5 3.43V93h-1.74a1.8 1.8 0 0 1-.88-.18c-.2-.13-.36-.38-.48-.74l-.44-2.12-1.72 1.46a9.48 9.48 0 0 1-3.74 1.7c-.69.15-1.46.23-2.3.23-.87 0-1.69-.12-2.45-.35a5.34 5.34 0 0 1-3.34-2.93 6.64 6.64 0 0 1-.49-2.64c0-.88.25-1.72.73-2.53a6.33 6.33 0 0 1 2.35-2.17c1.09-.63 2.5-1.15 4.25-1.54 1.75-.41 3.89-.65 6.42-.7v-1.75c0-1.73-.37-3.03-1.12-3.91-.75-.9-1.84-1.34-3.28-1.34-.97 0-1.78.12-2.44.37-.64.23-1.2.5-1.7.81l-1.23.82c-.33.23-.67.35-1 .35-.27 0-.5-.07-.69-.2a2.1 2.1 0 0 1-.48-.53l-.7-1.25zm27.67 19.5c-1.76 0-3.12-.5-4.07-1.48-.94-.98-1.41-2.4-1.41-4.25V74h-2.68a.9.9 0 0 1-.6-.2c-.16-.14-.24-.36-.24-.66v-1.56l3.65-.46.9-6.89a.9.9 0 0 1 .29-.52.88.88 0 0 1 .62-.22H142v7.67h6.44V74H142v13.38c0 .94.22 1.63.68 2.09.45.45 1.04.68 1.76.68a3.21 3.21 0 0 0 1.85-.53l.55-.35c.16-.12.3-.18.41-.18.2 0 .4.13.55.38l1.15 1.87a7.45 7.45 0 0 1-2.44 1.5 8.53 8.53 0 0 1-2.95.52zm19.68-10.4c-1.8.07-3.34.21-4.62.45-1.26.22-2.3.51-3.1.88-.8.36-1.37.8-1.74 1.3-.35.5-.53 1.05-.53 1.67 0 .58.1 1.1.3 1.52a2.9 2.9 0 0 0 .76 1.05c.34.27.73.46 1.17.6a6.13 6.13 0 0 0 1.45.17 7.3 7.3 0 0 0 3.5-.81 12.04 12.04 0 0 0 2.82-2.2v-4.62zm-12.65-9.1a12.72 12.72 0 0 1 3.99-2.66c1.42-.59 3-.88 4.72-.88 1.25 0 2.36.2 3.33.61a6.81 6.81 0 0 1 3.94 4.38c.33 1.04.5 2.19.5 3.43V93h-1.74a1.8 1.8 0 0 1-.88-.18c-.2-.13-.36-.38-.48-.74l-.44-2.12-1.72 1.46a9.48 9.48 0 0 1-3.74 1.7c-.69.15-1.46.23-2.3.23-.87 0-1.69-.12-2.45-.35a5.33 5.33 0 0 1-3.34-2.93 6.62 6.62 0 0 1-.49-2.64c0-.88.25-1.72.73-2.53a6.33 6.33 0 0 1 2.35-2.17c1.09-.63 2.5-1.15 4.25-1.54a31.2 31.2 0 0 1 6.42-.7v-1.75c0-1.73-.37-3.03-1.12-3.91-.75-.9-1.84-1.34-3.28-1.34-.97 0-1.78.12-2.44.37-.64.23-1.2.5-1.7.81l-1.22.82c-.34.23-.68.35-1.02.35-.26 0-.49-.07-.68-.2a1.88 1.88 0 0 1-.48-.53l-.7-1.25zM40.98 32.25c0 2.36-.38 4.53-1.12 6.51a14.26 14.26 0 0 1-8.1 8.4c-1.9.78-4.02 1.17-6.34 1.17a16.6 16.6 0 0 1-6.33-1.17 14.31 14.31 0 0 1-8.08-8.4 18.29 18.29 0 0 1-1.12-6.51c0-2.36.38-4.53 1.12-6.5.75-1.97 1.8-3.67 3.17-5.1a14.32 14.32 0 0 1 4.9-3.34c1.92-.8 4.03-1.19 6.34-1.19 2.32 0 4.43.4 6.34 1.19 1.92.8 3.56 1.9 4.93 3.34a14.87 14.87 0 0 1 3.17 5.1 18.1 18.1 0 0 1 1.12 6.5zm-4.38 0c0-1.94-.26-3.68-.8-5.22a10.91 10.91 0 0 0-2.24-3.89 9.68 9.68 0 0 0-3.52-2.46 11.95 11.95 0 0 0-4.62-.86c-1.68 0-3.21.28-4.6.86a9.88 9.88 0 0 0-3.54 2.46 10.91 10.91 0 0 0-2.24 3.9c-.53 1.53-.8 3.27-.8 5.2 0 1.94.27 3.68.8 5.22a11.17 11.17 0 0 0 2.24 3.9 10.01 10.01 0 0 0 3.55 2.44c1.38.56 2.9.83 4.6.83s3.24-.27 4.61-.83a9.8 9.8 0 0 0 3.52-2.44 11.17 11.17 0 0 0 2.25-3.9c.53-1.54.8-3.28.8-5.21zm26.22-6.54V48H60.5c-.56 0-.9-.27-1.05-.81l-.31-2.4a12.45 12.45 0 0 1-3.26 2.6c-1.2.64-2.58.96-4.13.96-1.22 0-2.3-.2-3.24-.6a6.52 6.52 0 0 1-2.33-1.7 7.37 7.37 0 0 1-1.43-2.67c-.3-1.04-.46-2.2-.46-3.45V25.7h3.91v14.22c0 1.68.38 2.99 1.15 3.91.77.93 1.96 1.39 3.54 1.39 1.16 0 2.24-.27 3.23-.82a10.42 10.42 0 0 0 2.8-2.28V25.7h3.91zm8.61 4.47a9.94 9.94 0 0 1 2.6-3.56 5.64 5.64 0 0 1 3.76-1.3c.47 0 .92.05 1.34.15.44.1.83.27 1.17.49l-.3 2.92c-.09.37-.3.55-.66.55-.2 0-.5-.04-.9-.13a6.21 6.21 0 0 0-3.24.18 4.23 4.23 0 0 0-1.47.92c-.42.4-.81.9-1.17 1.5-.33.58-.64 1.26-.92 2.02V48H67.7V25.71h2.25c.42 0 .72.08.88.25.16.16.27.44.33.83l.26 3.39zm61.16-13.7L122.75 48h-3.82l-7.99-24.05a21.95 21.95 0 0 1-.42-1.58 38.36 38.36 0 0 1-.44 1.58L102.05 48h-3.83L88.4 16.47h3.54c.38 0 .7.1.95.29.26.2.43.43.5.73l6.52 21.9.28 1.28.29 1.46.3-1.46.38-1.27 7.41-21.91c.1-.25.26-.48.51-.69.27-.22.58-.33.95-.33h1.23c.38 0 .69.1.92.29a1.77 1.77 0 0 1 .53.73l7.4 21.9a28.4 28.4 0 0 1 .68 2.62 29.52 29.52 0 0 1 .52-2.61l6.54-21.91a1.31 1.31 0 0 1 .48-.7c.27-.21.58-.32.95-.32h3.32zm9.35 8.88c1.63 0 3.1.27 4.4.82a9.43 9.43 0 0 1 5.46 5.94c.5 1.4.74 2.98.74 4.73 0 1.76-.25 3.34-.74 4.75a9.43 9.43 0 0 1-5.46 5.92c-1.3.52-2.77.79-4.4.79-1.64 0-3.12-.27-4.44-.8a9.42 9.42 0 0 1-3.35-2.3c-.92-1-1.63-2.2-2.13-3.61-.49-1.41-.73-3-.73-4.75s.24-3.33.73-4.73c.5-1.43 1.2-2.64 2.13-3.63a9.4 9.4 0 0 1 3.35-2.31c1.32-.55 2.8-.82 4.44-.82zm0 19.89c2.2 0 3.84-.73 4.93-2.2 1.08-1.48 1.63-3.54 1.63-6.18 0-2.66-.55-4.72-1.63-6.2-1.09-1.49-2.73-2.23-4.93-2.23-1.12 0-2.09.2-2.93.57a5.71 5.71 0 0 0-2.06 1.65 7.5 7.5 0 0 0-1.24 2.67c-.26 1.04-.4 2.22-.4 3.54 0 2.64.55 4.7 1.64 6.18 1.1 1.47 2.76 2.2 4.99 2.2zm17.97-15.07a9.94 9.94 0 0 1 2.6-3.56 5.64 5.64 0 0 1 3.76-1.3c.47 0 .91.05 1.34.15.44.1.83.27 1.16.49l-.28 2.92c-.09.37-.31.55-.66.55-.2 0-.5-.04-.9-.13a6.2 6.2 0 0 0-3.24.18 4.23 4.23 0 0 0-1.47.92c-.43.4-.82.9-1.17 1.5a13.1 13.1 0 0 0-.92 2.02V48h-3.94V25.71h2.24c.43 0 .72.08.88.25.17.16.28.44.33.83l.27 3.39zm15.04-14.59V48h-3.92V15.6h3.92zm19.55 15.43a6.22 6.22 0 0 0-2.38-2.05 6.7 6.7 0 0 0-2.86-.6c-2.07 0-3.66.75-4.77 2.23-1.12 1.48-1.68 3.6-1.68 6.33 0 1.46.13 2.7.38 3.74a7.29 7.29 0 0 0 1.1 2.56 4.35 4.35 0 0 0 1.78 1.45c.7.3 1.5.46 2.4.46 1.29 0 2.41-.3 3.36-.88a9.6 9.6 0 0 0 2.67-2.49V31.02zm3.91-15.43V48h-2.33c-.56 0-.9-.27-1.06-.81l-.35-2.71a12.13 12.13 0 0 1-3.25 2.77 8.28 8.28 0 0 1-4.23 1.06 7.31 7.31 0 0 1-6.14-2.9c-.73-.96-1.3-2.15-1.69-3.57a18.35 18.35 0 0 1 .07-9.48 11.29 11.29 0 0 1 1.89-3.7 8.7 8.7 0 0 1 7.06-3.34 7.96 7.96 0 0 1 6.12 2.62V15.59h3.91zM46.61 70.71V93H42.7V70.71h3.91zm.84-7c0 .39-.08.75-.24 1.09a2.81 2.81 0 0 1-1.52 1.47 2.67 2.67 0 0 1-2.16 0 2.9 2.9 0 0 1-1.45-1.47 2.67 2.67 0 0 1 0-2.16c.15-.35.35-.65.6-.9.25-.27.53-.47.85-.62a2.67 2.67 0 0 1 2.16 0c.35.15.65.35.9.62.27.25.47.55.62.9.16.34.24.7.24 1.08zm7.97 10.24c.49-.54 1-1.04 1.54-1.48a9.85 9.85 0 0 1 3.66-1.84 8.96 8.96 0 0 1 5.43.35c.94.4 1.72.97 2.33 1.71a7.36 7.36 0 0 1 1.43 2.67c.32 1.04.49 2.19.49 3.45V93h-3.94V78.81c0-1.69-.4-3-1.17-3.92-.76-.93-1.93-1.4-3.5-1.4a6.6 6.6 0 0 0-3.25.83c-1 .56-1.92 1.31-2.77 2.27V93h-3.94V70.71h2.35c.56 0 .9.28 1.04.82l.3 2.42zm57.7 3.3c0 2.36-.37 4.5-1.11 6.44a14.3 14.3 0 0 1-3.17 4.98 14.1 14.1 0 0 1-4.93 3.2c-1.9.76-4.02 1.13-6.33 1.13H85.8V61.47h11.77c2.31 0 4.42.39 6.33 1.15a13.8 13.8 0 0 1 8.1 8.18 17.75 17.75 0 0 1 1.12 6.45zm-4.37 0c0-1.94-.26-3.67-.8-5.2a10.94 10.94 0 0 0-2.23-3.87 9.57 9.57 0 0 0-3.53-2.42 12.23 12.23 0 0 0-4.61-.83h-7.5v24.62h7.5c1.7 0 3.24-.28 4.61-.84a9.7 9.7 0 0 0 3.53-2.4 10.94 10.94 0 0 0 2.24-3.87c.53-1.53.8-3.26.8-5.2zm19.8 5.72c-1.8.06-3.34.2-4.62.44-1.26.22-2.3.51-3.1.88-.8.36-1.37.8-1.74 1.3-.35.5-.53 1.05-.53 1.67 0 .58.1 1.1.3 1.52a3 3 0 0 0 .76 1.05c.34.27.73.46 1.17.6a6.13 6.13 0 0 0 1.45.17 7.28 7.28 0 0 0 3.5-.81 11.95 11.95 0 0 0 2.82-2.2v-4.62zm-12.65-9.11a12.73 12.73 0 0 1 3.98-2.66c1.43-.59 3-.88 4.73-.88 1.25 0 2.36.2 3.33.61a6.81 6.81 0 0 1 3.94 4.38c.33 1.04.5 2.19.5 3.43V93h-1.74a1.8 1.8 0 0 1-.88-.18c-.2-.13-.36-.38-.48-.74l-.44-2.12-1.72 1.46a9.48 9.48 0 0 1-3.74 1.7c-.69.15-1.46.23-2.3.23-.87 0-1.69-.12-2.45-.35a5.34 5.34 0 0 1-3.34-2.93 6.64 6.64 0 0 1-.49-2.64c0-.88.25-1.72.73-2.53a6.33 6.33 0 0 1 2.35-2.17c1.09-.63 2.5-1.15 4.25-1.54 1.75-.41 3.89-.65 6.42-.7v-1.75c0-1.73-.37-3.03-1.12-3.91-.75-.9-1.84-1.34-3.28-1.34-.97 0-1.78.12-2.44.37-.64.23-1.2.5-1.7.81l-1.23.82c-.33.23-.67.35-1 .35-.27 0-.5-.07-.69-.2a2.1 2.1 0 0 1-.48-.53l-.7-1.25zm27.67 19.5c-1.76 0-3.12-.5-4.07-1.48-.94-.98-1.41-2.4-1.41-4.25V74h-2.68a.9.9 0 0 1-.6-.2c-.16-.14-.24-.36-.24-.66v-1.56l3.65-.46.9-6.89a.9.9 0 0 1 .29-.52.88.88 0 0 1 .62-.22H142v7.67h6.44V74H142v13.38c0 .94.22 1.63.68 2.09.45.45 1.04.68 1.76.68a3.21 3.21 0 0 0 1.85-.53l.55-.35c.16-.12.3-.18.41-.18.2 0 .4.13.55.38l1.15 1.87a7.45 7.45 0 0 1-2.44 1.5 8.53 8.53 0 0 1-2.95.52zm19.68-10.4c-1.8.07-3.34.21-4.62.45-1.26.22-2.3.51-3.1.88-.8.36-1.37.8-1.74 1.3-.35.5-.53 1.05-.53 1.67 0 .58.1 1.1.3 1.52a2.9 2.9 0 0 0 .76 1.05c.34.27.73.46 1.17.6a6.13 6.13 0 0 0 1.45.17 7.3 7.3 0 0 0 3.5-.81 12.04 12.04 0 0 0 2.82-2.2v-4.62zm-12.65-9.1a12.72 12.72 0 0 1 3.99-2.66c1.42-.59 3-.88 4.72-.88 1.25 0 2.36.2 3.33.61a6.81 6.81 0 0 1 3.94 4.38c.33 1.04.5 2.19.5 3.43V93h-1.74a1.8 1.8 0 0 1-.88-.18c-.2-.13-.36-.38-.48-.74l-.44-2.12-1.72 1.46a9.48 9.48 0 0 1-3.74 1.7c-.69.15-1.46.23-2.3.23-.87 0-1.69-.12-2.45-.35a5.33 5.33 0 0 1-3.34-2.93 6.62 6.62 0 0 1-.49-2.64c0-.88.25-1.72.73-2.53a6.33 6.33 0 0 1 2.35-2.17c1.09-.63 2.5-1.15 4.25-1.54a31.2 31.2 0 0 1 6.42-.7v-1.75c0-1.73-.37-3.03-1.12-3.91-.75-.9-1.84-1.34-3.28-1.34-.97 0-1.78.12-2.44.37-.64.23-1.2.5-1.7.81l-1.22.82c-.34.23-.68.35-1.02.35-.26 0-.49-.07-.68-.2a1.88 1.88 0 0 1-.48-.53l-.7-1.25z" fill="#fff"/><path fill="#D42B21" d="M0 106.79h210V120H0z"/></g><defs><clipPath id="a"><path fill="#fff" d="M0 0h210v120H0z"/></clipPath></defs></svg></g><a href="https://ourworldindata.org/grapher/gdppercapita-vs-annual-hours-worked" style="font-family:&quot;Playfair Display&quot;,Georgia,&quot;Times New Roman&quot;,serif" target="_blank" rel="noopener"><text font-size="25.2" x="15" y="35.2" fill="#555"><tspan x="15" y="35.16">Annual working hours vs. GDP per capita, 1995 to 2019</tspan></text></a><text font-size="14.4" x="15" y="55.7" fill="#666"><tspan x="15" y="55.72">Working hours are the annual average per employed person. GDP per capita is adjusted for differences in the cost</tspan><tspan x="15" y="73">of living between countries, and for inflation.</tspan></text></g><g class="ScatterPlot"><g class="DualAxisView"><g class="HorizontalAxis"><text font-size="12.6" x="303.4" y="530.3"><tspan x="303.36" y="530.28">GDP per capita (int.-$)</tspan></text><text x="141.3" y="510.2" fill="#666" text-anchor="middle" font-size="16.2">$1,000</text><text x="418.4" y="510.2" fill="#666" text-anchor="middle" font-size="16.2">$10,000</text><text x="718.09" y="510.2" fill="#666" text-anchor="end" font-size="16.2">$100,000</text><text x="224.7" y="510.2" fill="#666" text-anchor="middle" font-size="16.2">$2,000</text><text x="335" y="510.2" fill="#666" text-anchor="middle" font-size="16.2">$5,000</text><text x="501.8" y="510.2" fill="#666" text-anchor="middle" font-size="16.2">$20,000</text><text x="612.1" y="510.2" fill="#666" text-anchor="middle" font-size="16.2">$50,000</text></g><g class="VerticalAxis"><text font-size="12.6" x="-373.3" y="25.1" transform="rotate(-90)"><tspan x="-373.3" y="25.08">Annual working hours</tspan></text><text x="92.03" y="482.9" dy=".32em" text-anchor="end" fill="#666" font-size="16.2">1,400 h</text><text x="92.03" y="420.2" dy=".32em" text-anchor="end" fill="#666" font-size="16.2">1,600 h</text><text x="92.03" y="357.4" dy=".32em" text-anchor="end" fill="#666" font-size="16.2">1,800 h</text><text x="92.03" y="294.6" dy=".32em" text-anchor="end" fill="#666" font-size="16.2">2,000 h</text><text x="92.03" y="231.9" dy=".32em" text-anchor="end" fill="#666" font-size="16.2">2,200 h</text><text x="92.03" y="169.1" dy=".32em" text-anchor="end" fill="#666" font-size="16.2">2,400 h</text><text x="92.03" y="106.4" dy=".32em" text-anchor="end" fill="#666" font-size="16.2">2,600 h</text></g><g class="AxisGridLines horizontalLines" stroke="#ddd" stroke-dasharray="3,2"><path d="M97.03 482.9h621.06M97.03 420.2h621.06M97.03 357.4h621.06M97.03 294.6h621.06M97.03 231.9h621.06M97.03 169.1h621.06M97.03 106.4h621.06"/></g><g class="AxisGridLines verticalLines" stroke="#ddd" stroke-dasharray="3,2"><path d="M141.3 489V92.2M224.7 489V92.2M335 489V92.2M418.4 489V92.2M501.8 489V92.2M612.1 489V92.2M695.5 489V92.2"/></g></g><g class="PointsWithLabels clickable" clip-path="url(#b)"><path fill="rgba(255,255,255,0)" d="M97.03 92.2h621.06V489H97.03z"/><defs><clipPath id="b"><path d="M87.03 82.2h641.06V499H87.03z"/></clipPath></defs><g class="key-China"><circle cx="246" cy="294" r="1.9" fill="#2D8587" opacity=".7"/><path stroke-width="2" opacity=".7" stroke="#2D8587" fill="none" stroke-linecap="butt" d="m246 294 10-5 9-7 8-7 8-7 9-2 9-4 9-5 11-6 11-9 12-8 14 3 15 9 11 7 10-2 12-11 10-2 8-2 9 2h7l8 3 7 1 8-1h13"/><path cx="474" cy="241" r="3.5" fill="#2D8587" opacity=".7" d="m470.5 237.5 7 3.5-7 3.5z"/></g><g class="key-India"><circle cx="230" cy="270" r="1.8" fill="#2D8587" opacity=".7"/><path stroke-width="1.95" opacity=".7" stroke="#2D8587" fill="none" stroke-linecap="butt" d="m230 270 7-1h7l8-1 3-1h3l3-1 7-1 7-1h15l7-1h2l7-1 9-2 4-1 5-1 6-1h15l8-1h17"/><path cx="370" cy="256" r="3.45" fill="#2D8587" opacity=".7" d="m366.55 252.55 6.9 3.45-6.9 3.45z"/></g><g class="key-United-States"><circle cx="594" cy="351" r="1.4" fill="#E04E4B" opacity=".7"/><path stroke-width=".96" opacity=".7" stroke="#E04E4B" fill="none" stroke-linecap="butt" d="m594 351 3-1 3-2 4-3 4-1 4-1v7l1 5 2 5h4l3 1h3l-1 7-4 11 2-2 1-3h1l2-2 2-2 3-4 1 1 2 1 3-3 2 3"/><path cx="639" cy="368" r="2.46" fill="#E04E4B" opacity=".7" d="m639.68 364.59.68 5.46-4.77-2.73z"/></g><g class="key-Indonesia"><circle cx="354" cy="317" r="1.4" fill="#2D8587" opacity=".7"/><path stroke-width=".87" opacity=".7" stroke="#2D8587" fill="none" stroke-linecap="butt" d="m354 317 8 3 3-2-18-10-1-5 4-2 3-13 3 8 4-8 5-9 5 8 5-5 5-12 6 7 4-6 5 2 6 10 5-1 5 1 5 6 4-2 4 3 5-2h9"/><path cx="438" cy="288" r="2.37" fill="#2D8587" opacity=".7" d="m435.63 285.63 4.74 2.37-4.74 2.37z"/></g><g class="key-Pakistan"><circle cx="280" cy="229" r="1.3" fill="#2D8587" opacity=".7"/><path stroke-width=".78" opacity=".7" stroke="#2D8587" fill="none" stroke-linecap="butt" d="M280 229h2l-2 3v6h1l2-2 1 2v3l4-4 6 2 5 4 4 10 3-1-1 2 1 6-1-6 1 4 1 4 3 4 3 10 3 10 4 9 4 10h4-1"/><path cx="327" cy="305" r="2.28" fill="#2D8587" opacity=".7" d="m329.28 307.28-4.56-2.28 4.56-2.28z"/></g><g class="key-Brazil"><circle cx="432" cy="340" r="1.3" fill="#932834" opacity=".7"/><path stroke-width=".77" opacity=".7" stroke="#932834" fill="none" stroke-linecap="butt" d="m432 340 1 1 2 2-1 1-2 9 4-8v3l2 3v2l5 3 2 6 4 1 6 2 4 1-1 2 8 1 3-3 2 2 2 4v4l-6 5-5 3 1 1 1 1h1"/><path cx="465" cy="386" r="2.27" fill="#932834" opacity=".7" d="m462.73 383.73 4.54 2.27-4.54 2.27z"/></g><g class="key-Bangladesh"><circle cx="204" cy="128" r="1.3" fill="#2D8587" opacity=".7"/><path stroke-width=".67" opacity=".7" stroke="#2D8587" fill="none" stroke-linecap="butt" d="m204 128 3-2 3-2 4-2 3-2 3-2h4l3-1h3l4-4 6-3 6-3 7 1 6 2 4 2 5 1 6 27 7 27 5 27 6-15 6-16 7-17 7 17h16"/><path cx="328" cy="163" r="2.17" fill="#2D8587" opacity=".7" d="m325.83 160.83 4.34 2.17-4.34 2.17z"/></g><g class="key-Russia"><circle cx="452" cy="328" r="1.3" fill="#4C5C78" opacity=".7"/><path stroke-width=".64" opacity=".7" stroke="#4C5C78" fill="none" stroke-linecap="butt" d="m452 328-4-1 2-17-7 1 8-6 12-5h13l9-4h9l8 2 10-3h16l-10 7h5l5-1 5-1h1l-1-1-2 2v1l2-1 3 3 2 1"/><path cx="538" cy="305" r="2.14" fill="#4C5C78" opacity=".7" d="m537.04 302.13 2.87 3.83h-4.78z"/></g><g class="key-Mexico"><circle cx="465" cy="244" r="1.3" fill="#E04E4B" opacity=".7"/><path stroke-width=".6" opacity=".7" stroke="#E04E4B" fill="none" stroke-linecap="butt" d="m465 244 6-10 6-15 4 22 2-23 4 22-2 8-2-15v16l3 7 1 5 4 12 1 7-1-19-8 42 4-56 3 9 3 1v-5h1l3-2 2-2h1l1-1-2 4"/><path cx="499" cy="251" r="2.1" fill="#E04E4B" opacity=".7" d="m501.82 250.06-3.76 2.82v-4.7z"/></g><g class="key-Japan"><circle cx="568" cy="322" r="1.3" fill="#2D8587" opacity=".7"/><path stroke-width=".59" opacity=".7" stroke="#2D8587" fill="none" stroke-linecap="butt" d="m568 322 4-1 1 9-2 6-1 5 3-2v8l2-1 2-2 2 4 2-2 2 3-2 6-7 15 5-7v2l2-4 2 6 1 2 2 1 1 4 2 1 1 4 1 12"/><path cx="591" cy="391" r="2.09" fill="#2D8587" opacity=".7" d="m592.9 388.74-1.73 4.34-2.43-3.99z"/></g><g class="key-Philippines"><circle cx="313" cy="253" r="1.3" fill="#2D8587" opacity=".7"/><path stroke-width=".55" opacity=".7" stroke="#2D8587" fill="none" stroke-linecap="butt" d="m313 253 4 12 3-17-3 13 1-3 3-14 1 29 2 2 3-5 5-2 4-6 4 8 5-5 4-6-1-2 7-2 2-1 6-1 6-3 6-1 5-2 7-3 6-3h11"/><path cx="404" cy="241" r="2.05" fill="#2D8587" opacity=".7" d="m401.95 238.95 4.1 2.05-4.1 2.05z"/></g><g class="key-Vietnam"><circle cx="239" cy="189" r="1.3" fill="#2D8587" opacity=".7"/><path stroke-width=".52" opacity=".7" stroke="#2D8587" fill="none" stroke-linecap="butt" d="m239 189 9 1 7 5 5-15 5 1 6-10 6 46 6 5 7-8 8 15 8 5 7-15h7l5-30 5-22 7 33 6-10 5 7 5 13 5 37 7-13 6 7 7 12h14"/><path cx="392" cy="253" r="2.02" fill="#2D8587" opacity=".7" d="m389.98 250.98 4.04 2.02-4.04 2.02z"/></g><g class="key-Argentina"><circle cx="484" cy="331" r="1.3" fill="#932834" opacity=".7"/><path stroke-width=".5" opacity=".7" stroke="#932834" fill="none" stroke-linecap="butt" d="m484 331 5-2 8-2 4-2-6 5-2 7-7 16-15 32 9-1 9-9 9-9 8-1 9-4 4-1-9 12 11-3h6l-3 8 1 3-4 7h2l-4 18 2-1-4 4-4 9"/><path cx="513" cy="417" r="2" fill="#932834" opacity=".7" d="m515.64 415.98-3.45 2.85-.2-4.47z"/></g><g class="key-Australia"><circle cx="561" cy="335" r="1.3" fill="#A8633C" opacity=".7"/><path stroke-width=".5" opacity=".7" stroke="#A8633C" fill="none" stroke-linecap="butt" d="m561 335 3 2 4 1 4 4h7l1 11 3 1 3 2 3 1 2 1 2 3h5v9l1-2h1l3 2 1 1 1 3h1l1 3h1l1 2 1 1"/><path cx="610" cy="380" r="2" fill="#A8633C" opacity=".7" d="m610 377.17 1.41 4.24-4.24-1.41z"/></g><g class="key-Austria"><circle cx="586" cy="365" r="1.3" fill="#4C5C78" opacity=".7"/><path stroke-width=".5" opacity=".7" stroke="#4C5C78" fill="none" stroke-linecap="butt" d="m586 365 3-10 2-3 4 7 4-1 4-1 1 5h1l1 3 2-1 2 8 4 5 4 4 1 2-5 14 2 2 3-2v16l-1 5 1-4 2 3 3-1h1"/><path cx="625" cy="416" r="2" fill="#4C5C78" opacity=".7" d="m623 414 4 2-4 2z"/></g><g class="key-Belgium"><circle cx="578" cy="427" r="1.3" fill="#4C5C78" opacity=".7"/><path stroke-width=".5" opacity=".7" stroke="#4C5C78" fill="none" stroke-linecap="butt" d="m578 427 1 8 4-4 3-4h3l5-4v3l2-4 1-2 3 4 3 3 2-5h3v3l-4 6 3-3v-5 1l2 1 1 2 1 1 2-1 1-2 2-1"/><path cx="616" cy="424" r="2" fill="#4C5C78" opacity=".7" d="M613.32 423.1h4.47l-2.68 3.58z"/></g><g class="key-Bulgaria"><circle cx="433" cy="385" r="1.3" fill="#4C5C78" opacity=".7"/><path stroke-width=".5" opacity=".7" stroke="#4C5C78" fill="none" stroke-linecap="butt" d="m433 385 7 1h-18l6 18-10-6 6 9 7-4 9 1 7 3 9-7 9 1 9 2h8l8-13-3 15 3 1h30"/><path cx="520" cy="406" r="2" fill="#4C5C78" opacity=".7" d="m518 404 4 2-4 2z"/></g><g class="key-Cambodia"><circle cx="161" cy="235" r="1.3" fill="#2D8587" opacity=".7"/><path stroke-width=".5" opacity=".7" stroke="#2D8587" fill="none" stroke-linecap="butt" d="m161 235 3-1 2-3 2-12 11-8 9-10 7-8 6-14h7l10-2h24l10-2 6-1-2-2h5l6-6 7-2 7-3 6-6 6-5 6-3 7-2h13"/><path cx="319" cy="145" r="2" fill="#2D8587" opacity=".7" d="m317 143 4 2-4 2z"/></g><g class="key-Chile"><circle cx="452" cy="196" r="1.3" fill="#932834" opacity=".7"/><path stroke-width=".5" opacity=".7" stroke="#932834" fill="none" stroke-linecap="butt" d="M452 196h6l7 18 4-14-2 7 5 5 2 6 3-2 3 4 7 1 6 24 6-3 4 12 3 10-3 7 6 1 6 7 5 8 3 2 1 8 2 1v11l2 4v8"/><path cx="528" cy="321" r="2" fill="#932834" opacity=".7" d="m530 319-2 4-2-4z"/></g><g class="key-Colombia"><circle cx="411" cy="304" r="1.3" fill="#932834" opacity=".7"/><path stroke-width=".5" opacity=".7" stroke="#932834" fill="none" stroke-linecap="butt" d="M411 304v1l2 2-2 1h-7 2l1-24 3 5 5 4 4-3 6-8 6-7 3-8v11l4 2 7 5 3 4 5 2 4 2 2 2 1 3v4l1 2h2"/><path cx="463" cy="304" r="2" fill="#932834" opacity=".7" d="m461 302 4 2-4 2z"/></g><g class="key-Costa-Rica"><circle cx="434" cy="184" r="1.3" fill="#E04E4B" opacity=".7"/><path stroke-width=".5" opacity=".7" stroke="#E04E4B" fill="none" stroke-linecap="butt" d="m434 184-2-13 4 7 5 3 3-5 2 3 2 10 2-9 3 2 4-6 3 6 7-3 7-8 4-2-2 14 5 33 3-13 5 15 1 27 3 7 3-7 4-17 3 8 2 18 2 18"/><path cx="507" cy="272" r="2" fill="#E04E4B" opacity=".7" d="m508.77 269.8-1.55 4.19-2.43-3.76z"/></g><g class="key-Croatia"><circle cx="468" cy="318" r="1.3" fill="#4C5C78" opacity=".7"/><path stroke-width=".5" opacity=".7" stroke="#4C5C78" fill="none" stroke-linecap="butt" d="M468 318h19-1l5 1 8-1h13l5-1h11l6-1 2-1-9 2-1-5v1l-2 5v10l4 20 5-2 5 3 5 5 4-7"/><path cx="547" cy="347" r="2" fill="#4C5C78" opacity=".7" d="m544.27 347.74 3.72-2.48-.25 4.47z"/></g><g class="key-Cyprus"><circle cx="545" cy="326" r="1.3" fill="#4C5C78" opacity=".7"/><path stroke-width=".5" opacity=".7" stroke="#4C5C78" fill="none" stroke-linecap="butt" d="M545 326h-1l2-2 5-2 5-3 5-2 4-7 3 8 1 3 5 11 4 10 3 5 4-10 1-1-6 6v1l-3-1-6 1-8 11-1-2 5-3 7-4 6 5 5 4 4 1"/><path cx="589" cy="355" r="2" fill="#4C5C78" opacity=".7" d="m587.54 352.57 3.4 2.92-4.37.97z"/></g><g class="key-Czechia"><circle cx="517" cy="339" r="1.3" fill="#4C5C78" opacity=".7"/><path stroke-width=".5" opacity=".7" stroke="#4C5C78" fill="none" stroke-linecap="butt" d="m517 339 5 1v-1l-1-6 2-5 5-1 4 24 2 1 5 3 5-3h8l7 5 6 5 2-2-6 4 2-7 2-2-1 9v5l3-5 6 7 2-7 6-2 4-1h3"/><path cx="588" cy="361" r="2" fill="#4C5C78" opacity=".7" d="m586 359 4 2-4 2z"/></g><g class="key-Denmark"><circle cx="594" cy="476" r="1.3" fill="#4C5C78" opacity=".7"/><path stroke-width=".5" opacity=".7" stroke="#4C5C78" fill="none" stroke-linecap="butt" d="m594 476 2 3 4-5 2-4 3-5 4-3 1-1v3h3l2 2 4-1 1 7-1 1-7 4 2-2 1-4v4-1l1 4 2 2 3-1 3 2 2 7 2 1"/><path cx="628" cy="489" r="2" fill="#4C5C78" opacity=".7" d="m627.1 486.32 2.69 3.57h-4.47z"/></g><g class="key-Dominican-Republic"><circle cx="382" cy="221" r="1.3" fill="#E04E4B" opacity=".7"/><path stroke-width=".5" opacity=".7" stroke="#E04E4B" fill="none" stroke-linecap="butt" d="m382 221 5 8 8-5 6-19 5-6 4 30 1 6 3 16-3 2 1-6 9-1 9 9 7-2h3-1l9 5 2 2 2-2 4-2 7-19 6 8 7 5h15"/><path cx="491" cy="250" r="2" fill="#E04E4B" opacity=".7" d="m489 248 4 2-4 2z"/></g><g class="key-Ecuador"><circle cx="399" cy="312" r="1.3" fill="#932834" opacity=".7"/><path stroke-width=".5" opacity=".7" stroke="#932834" fill="none" stroke-linecap="butt" d="M399 312v2l3 2 1 2-8 42-1-3 2-4 3-3 1-4 8 16 4-8 3 12 1 13 5-9-1 8 2 4 7 6 5 11 4 1 3 4-2 9-4 15 1 2h-1l-2 5"/><path cx="433" cy="435" r="2" fill="#932834" opacity=".7" d="m435.6 433.89-3.34 2.97-.37-4.46z"/></g><g class="key-Estonia"><circle cx="447" cy="299" r="1.3" fill="#4C5C78" opacity=".7"/><path stroke-width=".5" opacity=".7" stroke="#4C5C78" fill="none" stroke-linecap="butt" d="m447 299 8 1h22l-1 1h11l8 2h9l9-2 9-3 11-6 12 2 10 1-6 9-19 43 3-13 9-14 4 10 2 6 4 2 2 3 4-1 7-1 4 15 4 4"/><path cx="573" cy="358" r="2" fill="#4C5C78" opacity=".7" d="m573 355.17 1.41 4.24-4.24-1.41z"/></g><g class="key-Finland"><circle cx="556" cy="378" r="1.3" fill="#4C5C78" opacity=".7"/><path stroke-width=".5" opacity=".7" stroke="#4C5C78" fill="none" stroke-linecap="butt" d="m556 378 4 1 7 1 6 3h5l6 4 3 4 2 3 2 2 5-1 2 4 5 1 5 2 1 1-11 7 3-2 3 2-3 4-1 2-1 1 3 1 4 2h1l1 3"/><path cx="608" cy="423" r="2" fill="#4C5C78" opacity=".7" d="m609.26 420.47-.63 4.43-3.16-3.16z"/></g><g class="key-France"><circle cx="569" cy="419" r="1.3" fill="#4C5C78" opacity=".7"/><path stroke-width=".5" opacity=".7" stroke="#4C5C78" fill="none" stroke-linecap="butt" d="m569 419 2 2h2l4 3 3 3 4 6 1 6 1 11v-1l3-8h1l2 5 2-6-1-2-4 3 2-2 2-2v6l1 2 1-1 3 5 2 4 2-3"/><path cx="602" cy="450" r="2" fill="#4C5C78" opacity=".7" d="m599.23 450.55 3.88-2.21-.56 4.43z"/></g><g class="key-Germany"><circle cx="583" cy="441" r="1.3" fill="#4C5C78" opacity=".7"/><path stroke-width=".5" opacity=".7" stroke="#4C5C78" fill="none" stroke-linecap="butt" d="M583 441v5l2 3 3 1 2 4 3 8 2 2v3l-1 2h1l1 3 5-6 3-1 2 3-7 13 5-7h7v6l1 4 2-2 2 2 3 1 1 1 1 1"/><path cx="621" cy="487" r="2" fill="#4C5C78" opacity=".7" d="m621 484.17 1.41 4.24-4.24-1.41z"/></g><g class="key-Greece"><circle cx="528" cy="259" r="1.3" fill="#4C5C78" opacity=".7"/><path stroke-width=".5" opacity=".7" stroke="#4C5C78" fill="none" stroke-linecap="butt" d="m528 259 3 1h8l4 1 4-1 4 2 4 3h7l5 3 1-17 6 4 3 4v2l-6 8-7 19-13-6-8-5-2-1 1 12 1-4v1l1-5h3l2 3"/><path cx="549" cy="283" r="2" fill="#4C5C78" opacity=".7" d="m549.55 280.23.56 4.43-3.88-2.21z"/></g><g class="key-Hong-Kong"><circle cx="567" cy="214" r="1.3" fill="#2D8587" opacity=".7"/><path stroke-width=".5" opacity=".7" stroke="#2D8587" fill="none" stroke-linecap="butt" d="M567 214v-15l5 14h-8l1-14 8-9v2l1-6 4 4 9-7 8 3 8 9 6-4 2 16-3 8 7-16 5 15v7l4 2 2 16 2-3 2 3 3 9h3-3"/><path cx="633" cy="248" r="2" fill="#2D8587" opacity=".7" d="m635 250-4-2 4-2z"/></g><g class="key-Hungary"><circle cx="479" cy="311" r="1.3" fill="#4C5C78" opacity=".7"/><path stroke-width=".5" opacity=".7" stroke="#4C5C78" fill="none" stroke-linecap="butt" d="m479 311 4-2 5 2 4-2 6 6 5 11 6 5 5 8h6l5 7 5 7 1 8 1-1-8 10 2-2 2 3-1 5 3 2 5-5 5 1 3-5 5 4 7 6 5 1"/><path cx="560" cy="380" r="2" fill="#4C5C78" opacity=".7" d="m558.43 377.65 3.53 2.74-4.31 1.18z"/></g><g class="key-Iceland"><circle cx="564" cy="407" r="1.3" fill="#4C5C78" opacity=".7"/><path stroke-width=".5" opacity=".7" stroke="#4C5C78" fill="none" stroke-linecap="butt" d="m564 407 5-6 6-8 7 6 3 7 4-16 3-4v11l2 11 8-3 5 3 5 3 6 7 1-1-10 30-4 3 2-3 1 5 4-1 1 4h4l5 4 3 3 2 5v-2"/><path cx="627" cy="465" r="2" fill="#4C5C78" opacity=".7" d="m625 467 2-4 2 4z"/></g><g class="key-Ireland"><circle cx="559" cy="306" r="1.3" fill="#4C5C78" opacity=".7"/><path stroke-width=".5" opacity=".7" stroke="#4C5C78" fill="none" stroke-linecap="butt" d="m559 306 8 3h20l11 3 9 3 4 3 5 6 2 6 5 3 4-2 3 1 3 5-8 6-8 10 2 29v-6l1-1 9-5 26-4 1 3 9-4 9-3 4 4"/><path cx="678" cy="366" r="2" fill="#4C5C78" opacity=".7" d="m678 363.17 1.41 4.24-4.24-1.41z"/></g><g class="key-Israel"><circle cx="534" cy="289" r="1.3" fill="#2D8587" opacity=".7"/><path stroke-width=".5" opacity=".7" stroke="#2D8587" fill="none" stroke-linecap="butt" d="m534 289 4-6 2-2 2 8 1-2 7-4-3 12-2-6-1 6 3 8 3 2 5 4 5-4 2 2-2-1 5 2 4 3 1 9 4 3 2 4 3-8h3l2 3 3 3"/><path cx="587" cy="325" r="2" fill="#2D8587" opacity=".7" d="m587 322.17 1.41 4.24-4.24-1.41z"/></g><g class="key-Italy"><circle cx="582" cy="339" r="1.3" fill="#4C5C78" opacity=".7"/><path stroke-width=".5" opacity=".7" stroke="#4C5C78" fill="none" stroke-linecap="butt" d="m582 339 1-3 2 2 2-4 2 1 5 6 2 4v7h1v1h2l1-2-2 4-7 10 2-1v2l-4 12-3 4-2 1h2l1-1h2l2-1 2 2"/><path cx="593" cy="383" r="2" fill="#4C5C78" opacity=".7" d="m593 380.17 1.41 4.24-4.24-1.41z"/></g><g class="key-Jamaica"><circle cx="417" cy="310" r="1.3" fill="#E04E4B" opacity=".7"/><path stroke-width=".5" opacity=".7" stroke="#E04E4B" fill="none" stroke-linecap="butt" d="m417 310-1-6-2 2-4-12v12l1-3 1 2"/><path cx="412" cy="305" r="2" fill="#E04E4B" opacity=".7" d="M412.9 302.32v4.47l-3.58-2.68z"/></g><g class="key-Latvia"><circle cx="413" cy="302" r="1.3" fill="#4C5C78" opacity=".7"/><path stroke-width=".5" opacity=".7" stroke="#4C5C78" fill="none" stroke-linecap="butt" d="M413 302h36l9-4 10 16 11 3 11 15 13-8 15-1 12 9-2-39-17 16-3 6 5-6 10 6 4 2 3-3 6 11h4l5 5 5-4 4 11"/><path cx="554" cy="337" r="2" fill="#4C5C78" opacity=".7" d="m555.2 334.44-.52 4.44-3.24-3.08z"/></g><g class="key-Lithuania"><circle cx="425" cy="379" r="1.3" fill="#4C5C78" opacity=".7"/><path stroke-width=".5" opacity=".7" stroke="#4C5C78" fill="none" stroke-linecap="butt" d="m425 379 7 1 11-2 9-15v17l5-38 9 5 9 9 13 5 9-29h11l10 2 14-10 5-9-18 22 4-18 10 8 6 1 5 5 6 2 3-8 5-7 6 13 6-3h6"/><path cx="576" cy="330" r="2" fill="#4C5C78" opacity=".7" d="m574 328 4 2-4 2z"/></g><g class="key-Luxembourg"><circle cx="669" cy="422" r="1.3" fill="#4C5C78" opacity=".7"/><path stroke-width=".5" opacity=".7" stroke="#4C5C78" fill="none" stroke-linecap="butt" d="M669 422v-2h5l6 2h8l6-3 2 5 3 2h2l3 1 1 8h5l8-5h-3l-6 16h2-1l-1 3 1 1v-3h3l-1 2h1"/><path cx="713" cy="449" r="2" fill="#4C5C78" opacity=".7" d="m711 447 4 2-4 2z"/></g><g class="key-Malaysia"><circle cx="461" cy="216" r="1.3" fill="#2D8587" opacity=".7"/><path stroke-width=".5" opacity=".7" stroke="#2D8587" fill="none" stroke-linecap="butt" d="M461 216h13-12 4l8 1-2-1 4-8 4 3 6 1 3-15 5 6 5 8 3 8-4-2 7 6h4l5 7 3 11 6-3 4 3 4-7 5-2h8"/><path cx="544" cy="232" r="2" fill="#2D8587" opacity=".7" d="m542 230 4 2-4 2z"/></g><g class="key-Malta"><circle cx="500" cy="213" r="1.3" fill="#4C5C78" opacity=".7"/><path stroke-width=".5" opacity=".7" stroke="#4C5C78" fill="none" stroke-linecap="butt" d="m500 213 3 3 6-1 5-8 5 7 21 1-3 29 2-18 4 8v32l3-21 3-2 5 3 4-3-3-2 6 19v19l4 11 5 8 6 14 8 3 2-16 6 27 2-5h2"/><path cx="596" cy="321" r="2" fill="#4C5C78" opacity=".7" d="m594 319 4 2-4 2z"/></g><g class="key-Myanmar"><circle cx="97" cy="155" r="1.3" fill="#2D8587" opacity=".7"/><path stroke-width=".5" opacity=".7" stroke="#2D8587" fill="none" stroke-linecap="butt" d="M97 155h197l3-1h31"/><path cx="328" cy="154" r="2" fill="#2D8587" opacity=".7" d="m326 152 4 2-4 2z"/></g><g class="key-Netherlands"><circle cx="583" cy="457" r="1.3" fill="#4C5C78" opacity=".7"/><path stroke-width=".5" opacity=".7" stroke="#4C5C78" fill="none" stroke-linecap="butt" d="m583 457 4-5 4 5 5 1h5l4 4 2 3v6l-1 3 2-7 2 5 4 1h4l3 1-6 2h3l-2 3v-1l1-4h2l2-3h4l2-1"/><path cx="627" cy="470" r="2" fill="#4C5C78" opacity=".7" d="M624.32 469.1h4.47l-2.68 3.58z"/></g><g class="key-New-Zealand"><circle cx="549" cy="343" r="1.3" fill="#A8633C" opacity=".7"/><path stroke-width=".5" opacity=".7" stroke="#A8633C" fill="none" stroke-linecap="butt" d="m549 343 3 2 1 5v-1l5-5 3 2 3 4h4l3 1 3-4 2 6 2 5 3 6-3 6-1 5 1-5 1 4 2 2 3-5h2l2 1 2-4 1 4 2-5v-3"/><path cx="593" cy="364" r="2" fill="#A8633C" opacity=".7" d="m591 366 2-4 2 4z"/></g><g class="key-Norway"><circle cx="610" cy="455" r="1.3" fill="#4C5C78" opacity=".7"/><path stroke-width=".5" opacity=".7" stroke="#4C5C78" fill="none" stroke-linecap="butt" d="m610 455 5 2 6 1 2 1h2l3 6 2 10 1 5v6l4-5 2-1 2 3 2-2v-1l-4 7-1-3v-2l2 2-1 3 1-1 1-1 1-1 1 4h1v-1"/><path cx="642" cy="487" r="2" fill="#4C5C78" opacity=".7" d="m640 489 2-4 2 4z"/></g><g class="key-Peru"><circle cx="360" cy="257" r="1.3" fill="#932834" opacity=".7"/><path stroke-width=".5" opacity=".7" stroke="#932834" fill="none" stroke-linecap="butt" d="m360 257 1 2h5l-3 2v1h2l-1 1h27l9-6 10-1v-1l9-2h6l6-1 6-1 2 1h2l3-2h4"/><path cx="448" cy="250" r="2" fill="#932834" opacity=".7" d="m446 248 4 2-4 2z"/></g><g class="key-Poland"><circle cx="444" cy="268" r="1.3" fill="#4C5C78" opacity=".7"/><path stroke-width=".5" opacity=".7" stroke="#4C5C78" fill="none" stroke-linecap="butt" d="M444 268h7l8 1h5l6-11 6 11 2-1 2 2 5-2h6l4 1h7l8 1 5 2 4 5 4 2 6 2 1 1 2 1 4-2 5-2 4-1 5 7 7 9 5-7"/><path cx="562" cy="287" r="2" fill="#4C5C78" opacity=".7" d="m559.21 287.46 3.95-2.09-.7 4.42z"/></g><g class="key-Portugal"><circle cx="531" cy="326" r="1.3" fill="#4C5C78" opacity=".7"/><path stroke-width=".5" opacity=".7" stroke="#4C5C78" fill="none" stroke-linecap="butt" d="M531 326h3l5 2 5-5 4-1 4-3 1 5v3l-1 2 2-2v-1l2 4 3-6v5l-4-1h2l-2 7-4 5-1-3 2-2 3-3 2-2 5 4 3 2 4 1"/><path cx="569" cy="337" r="2" fill="#4C5C78" opacity=".7" d="m567.54 334.57 3.4 2.92-4.37.97z"/></g><g class="key-Romania"><circle cx="441" cy="350" r="1.3" fill="#4C5C78" opacity=".7"/><path stroke-width=".5" opacity=".7" stroke="#4C5C78" fill="none" stroke-linecap="butt" d="m441 350 5-12h-8v3l3-1h8l9-4 3 9 13-15 6 3 10 13 10-2 13 2-6 6-4-8 3-3 3 12 5 2 5 4 4 2 6-7 9 7h6l6-1"/><path cx="550" cy="360" r="2" fill="#4C5C78" opacity=".7" d="m547.7 358.36 4.27 1.31-3.61 2.63z"/></g><g class="key-Singapore"><circle cx="609" cy="133" r="1.3" fill="#2D8587" opacity=".7"/><path stroke-width=".5" opacity=".7" stroke="#2D8587" fill="none" stroke-linecap="butt" d="m609 133 4-6 5-5-7 4 6-6 9-6-5 7 3 2 8-1 9 10h6l7 3 5 7-4 2-4 12 15-11 4 13 3-2 4 3 3 13 2 8 2 4 5 6 4 8v-7"/><path cx="693" cy="191" r="2" fill="#2D8587" opacity=".7" d="m691 193 2-4 2 4z"/></g><g class="key-Slovakia"><circle cx="452" cy="340" r="1.3" fill="#4C5C78" opacity=".7"/><path stroke-width=".5" opacity=".7" stroke="#4C5C78" fill="none" stroke-linecap="butt" d="m452 340 7 11 7-3 5 2-1 2h2l4 5 5 14 7 18 6-14 8-8 10-2 12-5 6-1-6 4 7-8 3 4 1 1 1 6 3 4 6 1 2 5 3 8 5 3 3 3"/><path cx="558" cy="390" r="2" fill="#4C5C78" opacity=".7" d="m558 387.17 1.41 4.24-4.24-1.41z"/></g><g class="key-Slovenia"><circle cx="510" cy="371" r="1.3" fill="#4C5C78" opacity=".7"/><path stroke-width=".5" opacity=".7" stroke="#4C5C78" fill="none" stroke-linecap="butt" d="m510 371 4 9 6 4 4-5h6l4 6 4 5 4-8 3-1 5-4 5 12 6 10 7 3 4-5-10-2h1l1 5-4 6-1-6 3-6 3-2 3 11 6 10 5 7 3 2"/><path cx="582" cy="422" r="2" fill="#4C5C78" opacity=".7" d="m581.45 419.23 2.21 3.88-4.43-.56z"/></g><g class="key-South-Korea"><circle cx="490" cy="92" r="1.3" fill="#2D8587" opacity=".7"/><path stroke-width=".5" opacity=".7" stroke="#2D8587" fill="none" stroke-linecap="butt" d="m490 92 7 3 7 17-8 30 13-2 9-6 5 4 8 11 3 13 6 10 5 13 5 1 6 13 3 27v16l8 4 3 9 2 5 3 3 4 9 2-2 3 5 4 15 3 8 2 3"/><path cx="593" cy="301" r="2" fill="#2D8587" opacity=".7" d="m593.55 298.23.56 4.43-3.88-2.21z"/></g><g class="key-Spain"><circle cx="546" cy="376" r="1.3" fill="#4C5C78" opacity=".7"/><path stroke-width=".5" opacity=".7" stroke="#4C5C78" fill="none" stroke-linecap="butt" d="M546 376h3l4-1 4-3 5-1 6 1 4-3 1-1 2 3 1 5 3 5 2 3 2 4-1-3-5-2-1 4-1-2-4 4-1 3 2-1 5-1 3-2 3 4 3-2 1 3"/><path cx="587" cy="393" r="2" fill="#4C5C78" opacity=".7" d="m588.26 390.47-.63 4.43-3.16-3.16z"/></g><g class="key-Sri-Lanka"><circle cx="329" cy="312" r="1.3" fill="#2D8587" opacity=".7"/><path stroke-width=".5" opacity=".7" stroke="#2D8587" fill="none" stroke-linecap="butt" d="m329 312 4 2 7 13 5-5 4-7 6-21-2 8 3 51 6 25 6-39 6-10 8 17 7-8 6 11 4 5 8-20 9-38 10-18 3 49 5-10 5 1 4 1h7"/><path cx="450" cy="319" r="2" fill="#2D8587" opacity=".7" d="m448 317 4 2-4 2z"/></g><g class="key-Sweden"><circle cx="566" cy="407" r="1.3" fill="#4C5C78" opacity=".7"/><path stroke-width=".5" opacity=".7" stroke="#4C5C78" fill="none" stroke-linecap="butt" d="m566 407 2-3 3-2h5l5-3 6 7 1 7 2 8 3 4 4-7h8l3-4-1-3-7 5 6-9h3l-2 4 1 3h2l4-1 1-4 1 4h1l1 5"/><path cx="618" cy="418" r="2" fill="#4C5C78" opacity=".7" d="m619.57 415.65-1.18 4.31-2.74-3.53z"/></g><g class="key-Switzerland"><circle cx="621" cy="382" r="1.3" fill="#4C5C78" opacity=".7"/><path stroke-width=".5" opacity=".7" stroke="#4C5C78" fill="none" stroke-linecap="butt" d="M621 382v7l3 3 3-2 1-7 4 1 1 13v7l-1-5 2-9 3 1 4 4 3 3 2 3-4 3 3 8 1 2v5l1 6 1 2 1-4h1l1 6 2 3 1 1"/><path cx="654" cy="433" r="2" fill="#4C5C78" opacity=".7" d="m654 430.17 1.41 4.24-4.24-1.41z"/></g><g class="key-Thailand"><circle cx="418" cy="103" r="1.3" fill="#2D8587" opacity=".7"/><path stroke-width=".5" opacity=".7" stroke="#2D8587" fill="none" stroke-linecap="butt" d="m418 103 5 17-4 22-11-15 4 11 4-2 3 31 6 4 7 3 7-2 4 16 5 4 6-1 1-4-1-4 8 2v-3l8 14 3 12v9l4 19 3-7 5 36h7"/><path cx="492" cy="265" r="2" fill="#2D8587" opacity=".7" d="m490 263 4 2-4 2z"/></g><g class="key-Trinidad-and-Tobago"><circle cx="439" cy="419" r="1.3" fill="#E04E4B" opacity=".7"/><path stroke-width=".5" opacity=".7" stroke="#E04E4B" fill="none" stroke-linecap="butt" d="m439 419 8-5 8-3 10-1 9-2 7-8 5-2 9 11"/><path cx="495" cy="409" r="2" fill="#E04E4B" opacity=".7" d="m495.28 406.19.99 4.36-4.08-1.83z"/></g><g class="key-Turkey"><circle cx="455" cy="333" r="1.3" fill="#2D8587" opacity=".7"/><path stroke-width=".5" opacity=".7" stroke="#2D8587" fill="none" stroke-linecap="butt" d="m455 333 7-5 7 4 1-1-6-13 6-4-9-2h11l10 8 8-6 7-2 4 10v4l-8 6 9 1 10 4 4 3 8 7h19"/><path cx="543" cy="347" r="2" fill="#2D8587" opacity=".7" d="m541 345 4 2-4 2z"/></g><g class="key-United-Kingdom"><circle cx="563" cy="381" r="1.3" fill="#4C5C78" opacity=".7"/><path stroke-width=".5" opacity=".7" stroke="#4C5C78" fill="none" stroke-linecap="butt" d="M563 381h3l5 1 3 1 4 3 3 5 2-1 3 5 3 3 2 1 2-1 2 2 2-1-1 2-7 7 2-2 1 1 1-5 1-3 3-2 2 1h4l1 2 1-2"/><path cx="605" cy="398" r="2" fill="#4C5C78" opacity=".7" d="m602.32 398.9 3.57-2.69v4.47z"/></g><g class="key-Uruguay"><circle cx="449" cy="371" r="1.3" fill="#932834" opacity=".7"/><path stroke-width=".5" opacity=".7" stroke="#932834" fill="none" stroke-linecap="butt" d="m449 371 6 2 9 2 4 2-3 4-2 6-5 10-10 11 1 8 6-8 9 3 4 2 8 4 8-5 4 6 9 2 6 2 4 4 5 3 3 1v3l2 8h1"/><path cx="518" cy="441" r="2" fill="#932834" opacity=".7" d="m516 439 4 2-4 2z"/></g><g class="key-Canada"><circle cx="565" cy="358" r="1.3" fill="#E04E4B" opacity=".7"/><path stroke-width=".5" opacity=".7" stroke="#E04E4B" fill="none" stroke-linecap="butt" d="m565 358 3 1 3 1 5 1v4l3 6 4 4 3-4 5 4h10v1l-5 9 3-1h2l1-2 1 2 3 1-1 2 3 3 1-4 1 6"/><path cx="610" cy="392" r="2" fill="#E04E4B" opacity=".7" d="m611.64 389.7-1.31 4.27-2.63-3.61z"/></g><g class="key-South-Africa"><circle cx="431" cy="176" r="1.3" fill="#923E8B" opacity=".7"/><path stroke-width=".5" opacity=".7" stroke="#923E8B" fill="none" stroke-linecap="butt" d="m431 176 3-2 2 20 4-7 5-18 5 26 5-2 2 12-4 11 2 4 2-6 1 10 1 4v1l-1-3-1 6v2h-1"/><path cx="456" cy="234" r="2" fill="#923E8B" opacity=".7" d="m458 236-4-2 4-2z"/></g><g class="backgroundLabels" fill="#333" font-weight="400"><text x="479" y="241" font-size="14.3" fill="#2D8587" style="fill:#fff;stroke:#fff;stroke-linecap:round;stroke-linejoin:round;stroke-width:.25em">China</text><text x="479" y="241" font-size="14.3" fill="#2D8587">China</text><text x="375" y="256" font-size="14.22" fill="#2D8587" style="fill:#fff;stroke:#fff;stroke-linecap:round;stroke-linejoin:round;stroke-width:.25em">India</text><text x="375" y="256" font-size="14.22" fill="#2D8587">India</text><text x="641.77" y="378.45" font-size="12.58" fill="#E04E4B" style="fill:#fff;stroke:#fff;stroke-linecap:round;stroke-linejoin:round;stroke-width:.25em">United States</text><text x="641.77" y="378.45" font-size="12.58" fill="#E04E4B">United States</text><text x="443" y="288" font-size="12.43" fill="#2D8587" style="fill:#fff;stroke:#fff;stroke-linecap:round;stroke-linejoin:round;stroke-width:.25em">Indonesia</text><text x="443" y="288" font-size="12.43" fill="#2D8587">Indonesia</text><text x="274.71" y="305" font-size="12.28" fill="#2D8587" style="fill:#fff;stroke:#fff;stroke-linecap:round;stroke-linejoin:round;stroke-width:.25em">Pakistan</text><text x="274.71" y="305" font-size="12.28" fill="#2D8587">Pakistan</text><text x="470" y="386" font-size="12.27" fill="#932834" style="fill:#fff;stroke:#fff;stroke-linecap:round;stroke-linejoin:round;stroke-width:.25em">Brazil</text><text x="470" y="386" font-size="12.27" fill="#932834">Brazil</text><text x="333" y="163" font-size="12.11" fill="#2D8587" style="fill:#fff;stroke:#fff;stroke-linecap:round;stroke-linejoin:round;stroke-width:.25em">Bangladesh</text><text x="333" y="163" font-size="12.11" fill="#2D8587">Bangladesh</text><text x="542.47" y="313.26" font-size="12.05" fill="#4C5C78" style="fill:#fff;stroke:#fff;stroke-linecap:round;stroke-linejoin:round;stroke-width:.25em">Russia</text><text x="542.47" y="313.26" font-size="12.05" fill="#4C5C78">Russia</text><text x="458.77" y="261.46" font-size="11.98" fill="#E04E4B" style="fill:#fff;stroke:#fff;stroke-linecap:round;stroke-linejoin:round;stroke-width:.25em">Mexico</text><text x="458.77" y="261.46" font-size="11.98" fill="#E04E4B">Mexico</text><text x="591.42" y="401.97" font-size="11.98" fill="#2D8587" style="fill:#fff;stroke:#fff;stroke-linecap:round;stroke-linejoin:round;stroke-width:.25em">Japan</text><text x="591.42" y="401.97" font-size="11.98" fill="#2D8587">Japan</text><text x="461.16" y="427.36" font-size="11.58" fill="#932834" style="fill:#fff;stroke:#fff;stroke-linecap:round;stroke-linejoin:round;stroke-width:.25em">Argentina</text><text x="461.16" y="427.36" font-size="11.58" fill="#932834">Argentina</text><text x="620.47" y="421.76" font-size="11.3" fill="#4C5C78" style="fill:#fff;stroke:#fff;stroke-linecap:round;stroke-linejoin:round;stroke-width:.25em">Belgium</text><text x="620.47" y="421.76" font-size="11.3" fill="#4C5C78">Belgium</text><text x="525" y="406" font-size="11.23" fill="#4C5C78" style="fill:#fff;stroke:#fff;stroke-linecap:round;stroke-linejoin:round;stroke-width:.25em">Bulgaria</text><text x="525" y="406" font-size="11.23" fill="#4C5C78">Bulgaria</text><text x="593" y="361" font-size="11.28" fill="#4C5C78" style="fill:#fff;stroke:#fff;stroke-linecap:round;stroke-linejoin:round;stroke-width:.25em">Czechia</text><text x="593" y="361" font-size="11.28" fill="#4C5C78">Czechia</text><text x="388.64" y="445.32" font-size="11.36" fill="#932834" style="fill:#fff;stroke:#fff;stroke-linecap:round;stroke-linejoin:round;stroke-width:.25em">Ecuador</text><text x="388.64" y="445.32" font-size="11.36" fill="#932834">Ecuador</text><text x="604.77" y="445.84" font-size="11.7" fill="#4C5C78" style="fill:#fff;stroke:#fff;stroke-linecap:round;stroke-linejoin:round;stroke-width:.25em">France</text><text x="604.77" y="445.84" font-size="11.7" fill="#4C5C78">France</text><text x="624.54" y="489" font-size="11.8" fill="#4C5C78" style="fill:#fff;stroke:#fff;stroke-linecap:round;stroke-linejoin:round;stroke-width:.25em">Germany</text><text x="624.54" y="489" font-size="11.8" fill="#4C5C78">Germany</text><text x="590.54" y="334.16" font-size="11.25" fill="#2D8587" style="fill:#fff;stroke:#fff;stroke-linecap:round;stroke-linejoin:round;stroke-width:.25em">Israel</text><text x="590.54" y="334.16" font-size="11.25" fill="#2D8587">Israel</text><text x="549" y="232" font-size="11.49" fill="#2D8587" style="fill:#fff;stroke:#fff;stroke-linecap:round;stroke-linejoin:round;stroke-width:.25em">Malaysia</text><text x="549" y="232" font-size="11.49" fill="#2D8587">Malaysia</text><text x="631.47" y="467.76" font-size="11.36" fill="#4C5C78" style="fill:#fff;stroke:#fff;stroke-linecap:round;stroke-linejoin:round;stroke-width:.25em">Netherlands</text><text x="631.47" y="467.76" font-size="11.36" fill="#4C5C78">Netherlands</text><text x="564.91" y="282.93" font-size="11.54" fill="#4C5C78" style="fill:#fff;stroke:#fff;stroke-linecap:round;stroke-linejoin:round;stroke-width:.25em">Poland</text><text x="564.91" y="282.93" font-size="11.54" fill="#4C5C78">Poland</text><text x="641.66" y="186" font-size="11.21" fill="#2D8587" style="fill:#fff;stroke:#fff;stroke-linecap:round;stroke-linejoin:round;stroke-width:.25em">Singapore</text><text x="641.66" y="186" font-size="11.21" fill="#2D8587">Singapore</text><text x="595.77" y="310.97" font-size="11.62" fill="#2D8587" style="fill:#fff;stroke:#fff;stroke-linecap:round;stroke-linejoin:round;stroke-width:.25em">South Korea</text><text x="595.77" y="310.97" font-size="11.62" fill="#2D8587">South Korea</text><text x="455" y="319" font-size="11.4" fill="#2D8587" style="fill:#fff;stroke:#fff;stroke-linecap:round;stroke-linejoin:round;stroke-width:.25em">Sri Lanka</text><text x="455" y="319" font-size="11.4" fill="#2D8587">Sri Lanka</text><text x="657.54" y="442.16" font-size="11.26" fill="#4C5C78" style="fill:#fff;stroke:#fff;stroke-linecap:round;stroke-linejoin:round;stroke-width:.25em">Switzerland</text><text x="657.54" y="442.16" font-size="11.26" fill="#4C5C78">Switzerland</text><text x="543" y="347" font-size="11.8" fill="#2D8587" style="fill:#fff;stroke:#fff;stroke-linecap:round;stroke-linejoin:round;stroke-width:.25em">Turkey</text><text x="543" y="347" font-size="11.8" fill="#2D8587">Turkey</text><text x="518" y="441" font-size="11.16" fill="#932834" style="fill:#fff;stroke:#fff;stroke-linecap:round;stroke-linejoin:round;stroke-width:.25em">Uruguay</text><text x="518" y="441" font-size="11.16" fill="#932834">Uruguay</text><text x="387.18" y="234" font-size="11.67" fill="#923E8B" style="fill:#fff;stroke:#fff;stroke-linecap:round;stroke-linejoin:round;stroke-width:.25em">South Africa</text><text x="387.18" y="234" font-size="11.67" fill="#923E8B">South Africa</text></g></g><g class="ScatterColorLegend clickable" style="cursor:pointer"><g class="legendMark"><path fill="#923E8B" d="M738.09 94h9v9h-9z"/><text font-size="12.6" x="752.1" y="102.3"><tspan x="752.09" y="102.28">Africa</tspan></text></g><g class="legendMark"><path fill="#2D8587" d="M738.09 111.6h9v9h-9z"/><text font-size="12.6" x="752.1" y="119.9"><tspan x="752.09" y="119.88">Asia</tspan></text></g><g class="legendMark"><path fill="#4C5C78" d="M738.09 129.2h9v9h-9z"/><text font-size="12.6" x="752.1" y="137.5"><tspan x="752.09" y="137.48">Europe</tspan></text></g><g class="legendMark"><path fill="#E04E4B" d="M738.09 146.8h9v9h-9z"/><text font-size="12.6" x="752.1" y="155.1"><tspan x="752.09" y="155.08">North America</tspan></text></g><g class="legendMark"><path fill="#A8633C" d="M738.09 164.4h9v9h-9z"/><text font-size="12.6" x="752.1" y="172.7"><tspan x="752.09" y="172.68">Oceania</tspan></text></g><g class="legendMark"><path fill="#932834" d="M738.09 182h9v9h-9z"/><text font-size="12.6" x="752.1" y="190.3"><tspan x="752.09" y="190.28">South America</tspan></text></g></g><path stroke="#ccc" d="M738.09 198.8H830"/><g class="clickable"><g class="ConnectedScatterLegend"><text font-size="12.6" x="738.1" y="215.9" fill="#333"><tspan x="738.09" y="215.88">1995</tspan></text><text font-size="12.6" x="806.8" y="215.9" fill="#333"><tspan x="806.78" y="215.88">2019</tspan></text><path stroke="#666" stroke-width="1" d="M771.32 211.6h30.46"/><circle cx="771.32" cy="211.6" r="2" fill="#666" stroke="#ccc" stroke-width=".2"/><circle cx="781.47" cy="211.6" r="2" fill="#666" stroke="#ccc" stroke-width=".2"/><circle cx="791.62" cy="211.6" r="2" fill="#666" stroke="#ccc" stroke-width=".2"/><path cx="801.78" cy="211.6" r="3" fill="#666" stroke="#ccc" stroke-width=".2" d="m798.78 208.6 6 3-6 3z"/></g></g></g><g class="SourcesFooter" style="fill:#777"><g style="fill:#777"><text font-size="12.6" x="15" y="567.9"><tspan x="15" y="567.88">Source: Feenstra et al. (2015), Penn World Table v10.0, Data compiled from multiple sources by World Bank</tspan></text></g><text font-size="12.6" x="15" y="582.5"><tspan x="15" y="582.48"><a target="_blank" style="fill:#777" href="https://ourworldindata.org/working-hours/">OurWorldInData.org/working-hours/</a> • <a style="fill:#777" class="cclogo" href="http://creativecommons.org/licenses/by/4.0/deed.en_US" target="_blank">CC BY</a></tspan></text></g></svg>