<svg xmlns="http://www.w3.org/2000/svg" version="1.1" style="background-color:#fff;-webkit-font-smoothing:antialiased" width="850" height="600" viewBox="0 0 850 600" font-family="Lato,'Helvetica Neue',Helvetica,Arial,sans-serif" font-size="18" text-rendering="geometricPrecision"><g class="HeaderView"><g transform="matrix(.29 0 0 .29 774 15)"><svg className="owidLog" width="210" height="120" viewBox="0 0 210 120" fill="none" xmlns="http://www.w3.org/2000/svg"><g clip-path="url(#clip0)"><path d="M0 0h210v107.89H0V0z" fill="#002147"/><path d="M40.98 32.25c0 2.36-.38 4.53-1.12 6.51a14.26 14.26 0 01-8.1 8.4c-1.9.78-4.02 1.17-6.34 1.17a16.6 16.6 0 01-6.33-1.17 14.31 14.31 0 01-8.08-8.4 18.29 18.29 0 01-1.12-6.51c0-2.36.38-4.53 1.12-6.5.75-1.97 1.8-3.67 3.17-5.1a14.32 14.32 0 014.9-3.34c1.92-.8 4.03-1.19 6.34-1.19 2.32 0 4.43.4 6.34 1.19 1.92.8 3.56 1.9 4.93 3.34a14.87 14.87 0 013.17 5.1 18.1 18.1 0 011.12 6.5zm-4.38 0c0-1.94-.26-3.68-.8-5.22a10.91 10.91 0 00-2.24-3.89 9.68 9.68 0 00-3.52-2.46 11.95 11.95 0 00-4.62-.86c-1.68 0-3.21.28-4.6.86a9.88 9.88 0 00-3.54 2.46 10.91 10.91 0 00-2.24 3.9c-.53 1.53-.8 3.27-.8 5.2 0 1.94.27 3.68.8 5.22a11.17 11.17 0 002.24 3.9 10.01 10.01 0 003.55 2.44c1.38.56 2.9.83 4.6.83s3.24-.27 4.61-.83a9.8 9.8 0 003.52-2.44 11.17 11.17 0 002.25-3.9c.53-1.54.8-3.28.8-5.21zm26.22-6.54V48H60.5c-.56 0-.9-.27-1.05-.81l-.31-2.4a12.45 12.45 0 01-3.26 2.6c-1.2.64-2.58.96-4.13.96-1.22 0-2.3-.2-3.24-.6a6.52 6.52 0 01-2.33-1.7 7.37 7.37 0 01-1.43-2.67c-.3-1.04-.46-2.2-.46-3.45V25.7h3.91v14.22c0 1.68.38 2.99 1.15 3.91.77.93 1.96 1.39 3.54 1.39 1.16 0 2.24-.27 3.23-.82a10.42 10.42 0 002.8-2.28V25.7h3.91zm8.61 4.47a9.94 9.94 0 012.6-3.56 5.64 5.64 0 013.76-1.3c.47 0 .92.05 1.34.15.44.1.83.27 1.17.49l-.3 2.92c-.09.37-.3.55-.66.55-.2 0-.5-.04-.9-.13a6.21 6.21 0 00-3.24.18 4.23 4.23 0 00-1.47.92c-.42.4-.81.9-1.17 1.5-.33.58-.64 1.26-.92 2.02V48H67.7V25.71h2.25c.42 0 .72.08.88.25.16.16.27.44.33.83l.26 3.39zm61.16-13.7L122.75 48h-3.82l-7.99-24.05a21.95 21.95 0 01-.42-1.58 38.36 38.36 0 01-.44 1.58L102.05 48h-3.83L88.4 16.47h3.54c.38 0 .7.1.95.29.26.2.43.43.5.73l6.52 21.9.28 1.28.29 1.46.3-1.46.38-1.27 7.41-21.91c.1-.25.26-.48.51-.69.27-.22.58-.33.95-.33h1.23c.38 0 .69.1.92.29a1.77 1.77 0 01.53.73l7.4 21.9a28.4 28.4 0 01.68 2.62 29.52 29.52 0 01.52-2.61l6.54-21.91a1.31 1.31 0 01.48-.7c.27-.21.58-.32.95-.32h3.32zm9.35 8.88c1.63 0 3.1.27 4.4.82a9.43 9.43 0 015.46 5.94c.5 1.4.74 2.98.74 4.73 0 1.76-.25 3.34-.74 4.75a9.43 9.43 0 01-5.46 5.92c-1.3.52-2.77.79-4.4.79-1.64 0-3.12-.27-4.44-.8a9.42 9.42 0 01-3.35-2.3c-.92-1-1.63-2.2-2.13-3.61-.49-1.41-.73-3-.73-4.75s.24-3.33.73-4.73c.5-1.43 1.2-2.64 2.13-3.63a9.4 9.4 0 013.35-2.31c1.32-.55 2.8-.82 4.44-.82zm0 19.89c2.2 0 3.84-.73 4.93-2.2 1.08-1.48 1.63-3.54 1.63-6.18 0-2.66-.55-4.72-1.63-6.2-1.09-1.49-2.73-2.23-4.93-2.23-1.12 0-2.09.2-2.93.57a5.71 5.71 0 00-2.06 1.65 7.5 7.5 0 00-1.24 2.67c-.26 1.04-.4 2.22-.4 3.54 0 2.64.55 4.7 1.64 6.18 1.1 1.47 2.76 2.2 4.99 2.2zm17.97-15.07a9.94 9.94 0 012.6-3.56 5.64 5.64 0 013.76-1.3c.47 0 .91.05 1.34.15.44.1.83.27 1.16.49l-.28 2.92c-.09.37-.31.55-.66.55-.2 0-.5-.04-.9-.13a6.2 6.2 0 00-3.24.18 4.23 4.23 0 00-1.47.92c-.43.4-.82.9-1.17 1.5a13.1 13.1 0 00-.92 2.02V48h-3.94V25.71h2.24c.43 0 .72.08.88.25.17.16.28.44.33.83l.27 3.39zm15.04-14.59V48h-3.92V15.6h3.92zm19.55 15.43a6.22 6.22 0 00-2.38-2.05 6.7 6.7 0 00-2.86-.6c-2.07 0-3.66.75-4.77 2.23-1.12 1.48-1.68 3.6-1.68 6.33 0 1.46.13 2.7.38 3.74a7.29 7.29 0 001.1 2.56 4.35 4.35 0 001.78 1.45c.7.3 1.5.46 2.4.46 1.29 0 2.41-.3 3.36-.88a9.6 9.6 0 002.67-2.49V31.02zm3.91-15.43V48h-2.33c-.56 0-.9-.27-1.06-.81l-.35-2.71a12.13 12.13 0 01-3.25 2.77 8.28 8.28 0 01-4.23 1.06 7.31 7.31 0 01-6.14-2.9c-.73-.96-1.3-2.15-1.69-3.57a18.35 18.35 0 01.07-9.48 11.29 11.29 0 011.89-3.7 8.7 8.7 0 017.06-3.34 7.96 7.96 0 016.12 2.62V15.59h3.91zM46.61 70.71V93H42.7V70.71h3.91zm.84-7c0 .39-.08.75-.24 1.09a2.81 2.81 0 01-1.52 1.47 2.67 2.67 0 01-2.16 0 2.9 2.9 0 01-1.45-1.47 2.67 2.67 0 010-2.16c.15-.35.35-.65.6-.9.25-.27.53-.47.85-.62a2.67 2.67 0 012.16 0c.35.15.65.35.9.62.27.25.47.55.62.9.16.34.24.7.24 1.08zm7.97 10.24c.49-.54 1-1.04 1.54-1.48a9.85 9.85 0 013.66-1.84 8.96 8.96 0 015.43.35c.94.4 1.72.97 2.33 1.71a7.36 7.36 0 011.43 2.67c.32 1.04.49 2.19.49 3.45V93h-3.94V78.81c0-1.69-.4-3-1.17-3.92-.76-.93-1.93-1.4-3.5-1.4a6.6 6.6 0 00-3.25.83c-1 .56-1.92 1.31-2.77 2.27V93h-3.94V70.71h2.35c.56 0 .9.28 1.04.82l.3 2.42zm57.7 3.3c0 2.36-.37 4.5-1.11 6.44a14.3 14.3 0 01-3.17 4.98 14.1 14.1 0 01-4.93 3.2c-1.9.76-4.02 1.13-6.33 1.13H85.8V61.47h11.77c2.31 0 4.42.39 6.33 1.15a13.8 13.8 0 018.1 8.18 17.75 17.75 0 011.12 6.45zm-4.37 0c0-1.94-.26-3.67-.8-5.2a10.94 10.94 0 00-2.23-3.87 9.57 9.57 0 00-3.53-2.42 12.23 12.23 0 00-4.61-.83h-7.5v24.62h7.5c1.7 0 3.24-.28 4.61-.84a9.7 9.7 0 003.53-2.4 10.94 10.94 0 002.24-3.87c.53-1.53.8-3.26.8-5.2zm19.8 5.72c-1.8.06-3.34.2-4.62.44-1.26.22-2.3.51-3.1.88-.8.36-1.37.8-1.74 1.3-.35.5-.53 1.05-.53 1.67 0 .58.1 1.1.3 1.52a3 3 0 00.76 1.05c.34.27.73.46 1.17.6a6.13 6.13 0 001.45.17 7.28 7.28 0 003.5-.81 11.95 11.95 0 002.82-2.2v-4.62zm-12.65-9.11a12.73 12.73 0 013.98-2.66c1.43-.59 3-.88 4.73-.88 1.25 0 2.36.2 3.33.61a6.81 6.81 0 013.94 4.38c.33 1.04.5 2.19.5 3.43V93h-1.74a1.8 1.8 0 01-.88-.18c-.2-.13-.36-.38-.48-.74l-.44-2.12-1.72 1.46a9.48 9.48 0 01-3.74 1.7c-.69.15-1.46.23-2.3.23-.87 0-1.69-.12-2.45-.35a5.34 5.34 0 01-3.34-2.93 6.64 6.64 0 01-.49-2.64c0-.88.25-1.72.73-2.53a6.33 6.33 0 012.35-2.17c1.09-.63 2.5-1.15 4.25-1.54 1.75-.41 3.89-.65 6.42-.7v-1.75c0-1.73-.37-3.03-1.12-3.91-.75-.9-1.84-1.34-3.28-1.34-.97 0-1.78.12-2.44.37-.64.23-1.2.5-1.7.81l-1.23.82c-.33.23-.67.35-1 .35-.27 0-.5-.07-.69-.2a2.1 2.1 0 01-.48-.53l-.7-1.25zm27.67 19.5c-1.76 0-3.12-.5-4.07-1.48-.94-.98-1.41-2.4-1.41-4.25V74h-2.68a.9.9 0 01-.6-.2c-.16-.14-.24-.36-.24-.66v-1.56l3.65-.46.9-6.89a.9.9 0 01.29-.52.88.88 0 01.62-.22H142v7.67h6.44V74H142v13.38c0 .94.22 1.63.68 2.09.45.45 1.04.68 1.76.68a3.21 3.21 0 001.85-.53l.55-.35c.16-.12.3-.18.41-.18.2 0 .4.13.55.38l1.15 1.87a7.45 7.45 0 01-2.44 1.5 8.53 8.53 0 01-2.95.52zm19.68-10.4c-1.8.07-3.34.21-4.62.45-1.26.22-2.3.51-3.1.88-.8.36-1.37.8-1.74 1.3-.35.5-.53 1.05-.53 1.67 0 .58.1 1.1.3 1.52a2.9 2.9 0 00.76 1.05c.34.27.73.46 1.17.6a6.13 6.13 0 001.45.17 7.3 7.3 0 003.5-.81 12.04 12.04 0 002.82-2.2v-4.62zm-12.65-9.1a12.72 12.72 0 013.99-2.66c1.42-.59 3-.88 4.72-.88 1.25 0 2.36.2 3.33.61a6.81 6.81 0 013.94 4.38c.33 1.04.5 2.19.5 3.43V93h-1.74a1.8 1.8 0 01-.88-.18c-.2-.13-.36-.38-.48-.74l-.44-2.12-1.72 1.46a9.48 9.48 0 01-3.74 1.7c-.69.15-1.46.23-2.3.23-.87 0-1.69-.12-2.45-.35a5.33 5.33 0 01-3.34-2.93 6.62 6.62 0 01-.49-2.64c0-.88.25-1.72.73-2.53a6.33 6.33 0 012.35-2.17c1.09-.63 2.5-1.15 4.25-1.54a31.2 31.2 0 016.42-.7v-1.75c0-1.73-.37-3.03-1.12-3.91-.75-.9-1.84-1.34-3.28-1.34-.97 0-1.78.12-2.44.37-.64.23-1.2.5-1.7.81l-1.22.82c-.34.23-.68.35-1.02.35-.26 0-.49-.07-.68-.2a1.88 1.88 0 01-.48-.53l-.7-1.25zM40.98 32.25c0 2.36-.38 4.53-1.12 6.51a14.26 14.26 0 01-8.1 8.4c-1.9.78-4.02 1.17-6.34 1.17a16.6 16.6 0 01-6.33-1.17 14.31 14.31 0 01-8.08-8.4 18.29 18.29 0 01-1.12-6.51c0-2.36.38-4.53 1.12-6.5.75-1.97 1.8-3.67 3.17-5.1a14.32 14.32 0 014.9-3.34c1.92-.8 4.03-1.19 6.34-1.19 2.32 0 4.43.4 6.34 1.19 1.92.8 3.56 1.9 4.93 3.34a14.87 14.87 0 013.17 5.1 18.1 18.1 0 011.12 6.5zm-4.38 0c0-1.94-.26-3.68-.8-5.22a10.91 10.91 0 00-2.24-3.89 9.68 9.68 0 00-3.52-2.46 11.95 11.95 0 00-4.62-.86c-1.68 0-3.21.28-4.6.86a9.88 9.88 0 00-3.54 2.46 10.91 10.91 0 00-2.24 3.9c-.53 1.53-.8 3.27-.8 5.2 0 1.94.27 3.68.8 5.22a11.17 11.17 0 002.24 3.9 10.01 10.01 0 003.55 2.44c1.38.56 2.9.83 4.6.83s3.24-.27 4.61-.83a9.8 9.8 0 003.52-2.44 11.17 11.17 0 002.25-3.9c.53-1.54.8-3.28.8-5.21zm26.22-6.54V48H60.5c-.56 0-.9-.27-1.05-.81l-.31-2.4a12.45 12.45 0 01-3.26 2.6c-1.2.64-2.58.96-4.13.96-1.22 0-2.3-.2-3.24-.6a6.52 6.52 0 01-2.33-1.7 7.37 7.37 0 01-1.43-2.67c-.3-1.04-.46-2.2-.46-3.45V25.7h3.91v14.22c0 1.68.38 2.99 1.15 3.91.77.93 1.96 1.39 3.54 1.39 1.16 0 2.24-.27 3.23-.82a10.42 10.42 0 002.8-2.28V25.7h3.91zm8.61 4.47a9.94 9.94 0 012.6-3.56 5.64 5.64 0 013.76-1.3c.47 0 .92.05 1.34.15.44.1.83.27 1.17.49l-.3 2.92c-.09.37-.3.55-.66.55-.2 0-.5-.04-.9-.13a6.21 6.21 0 00-3.24.18 4.23 4.23 0 00-1.47.92c-.42.4-.81.9-1.17 1.5-.33.58-.64 1.26-.92 2.02V48H67.7V25.71h2.25c.42 0 .72.08.88.25.16.16.27.44.33.83l.26 3.39zm61.16-13.7L122.75 48h-3.82l-7.99-24.05a21.95 21.95 0 01-.42-1.58 38.36 38.36 0 01-.44 1.58L102.05 48h-3.83L88.4 16.47h3.54c.38 0 .7.1.95.29.26.2.43.43.5.73l6.52 21.9.28 1.28.29 1.46.3-1.46.38-1.27 7.41-21.91c.1-.25.26-.48.51-.69.27-.22.58-.33.95-.33h1.23c.38 0 .69.1.92.29a1.77 1.77 0 01.53.73l7.4 21.9a28.4 28.4 0 01.68 2.62 29.52 29.52 0 01.52-2.61l6.54-21.91a1.31 1.31 0 01.48-.7c.27-.21.58-.32.95-.32h3.32zm9.35 8.88c1.63 0 3.1.27 4.4.82a9.43 9.43 0 015.46 5.94c.5 1.4.74 2.98.74 4.73 0 1.76-.25 3.34-.74 4.75a9.43 9.43 0 01-5.46 5.92c-1.3.52-2.77.79-4.4.79-1.64 0-3.12-.27-4.44-.8a9.42 9.42 0 01-3.35-2.3c-.92-1-1.63-2.2-2.13-3.61-.49-1.41-.73-3-.73-4.75s.24-3.33.73-4.73c.5-1.43 1.2-2.64 2.13-3.63a9.4 9.4 0 013.35-2.31c1.32-.55 2.8-.82 4.44-.82zm0 19.89c2.2 0 3.84-.73 4.93-2.2 1.08-1.48 1.63-3.54 1.63-6.18 0-2.66-.55-4.72-1.63-6.2-1.09-1.49-2.73-2.23-4.93-2.23-1.12 0-2.09.2-2.93.57a5.71 5.71 0 00-2.06 1.65 7.5 7.5 0 00-1.24 2.67c-.26 1.04-.4 2.22-.4 3.54 0 2.64.55 4.7 1.64 6.18 1.1 1.47 2.76 2.2 4.99 2.2zm17.97-15.07a9.94 9.94 0 012.6-3.56 5.64 5.64 0 013.76-1.3c.47 0 .91.05 1.34.15.44.1.83.27 1.16.49l-.28 2.92c-.09.37-.31.55-.66.55-.2 0-.5-.04-.9-.13a6.2 6.2 0 00-3.24.18 4.23 4.23 0 00-1.47.92c-.43.4-.82.9-1.17 1.5a13.1 13.1 0 00-.92 2.02V48h-3.94V25.71h2.24c.43 0 .72.08.88.25.17.16.28.44.33.83l.27 3.39zm15.04-14.59V48h-3.92V15.6h3.92zm19.55 15.43a6.22 6.22 0 00-2.38-2.05 6.7 6.7 0 00-2.86-.6c-2.07 0-3.66.75-4.77 2.23-1.12 1.48-1.68 3.6-1.68 6.33 0 1.46.13 2.7.38 3.74a7.29 7.29 0 001.1 2.56 4.35 4.35 0 001.78 1.45c.7.3 1.5.46 2.4.46 1.29 0 2.41-.3 3.36-.88a9.6 9.6 0 002.67-2.49V31.02zm3.91-15.43V48h-2.33c-.56 0-.9-.27-1.06-.81l-.35-2.71a12.13 12.13 0 01-3.25 2.77 8.28 8.28 0 01-4.23 1.06 7.31 7.31 0 01-6.14-2.9c-.73-.96-1.3-2.15-1.69-3.57a18.35 18.35 0 01.07-9.48 11.29 11.29 0 011.89-3.7 8.7 8.7 0 017.06-3.34 7.96 7.96 0 016.12 2.62V15.59h3.91zM46.61 70.71V93H42.7V70.71h3.91zm.84-7c0 .39-.08.75-.24 1.09a2.81 2.81 0 01-1.52 1.47 2.67 2.67 0 01-2.16 0 2.9 2.9 0 01-1.45-1.47 2.67 2.67 0 010-2.16c.15-.35.35-.65.6-.9.25-.27.53-.47.85-.62a2.67 2.67 0 012.16 0c.35.15.65.35.9.62.27.25.47.55.62.9.16.34.24.7.24 1.08zm7.97 10.24c.49-.54 1-1.04 1.54-1.48a9.85 9.85 0 013.66-1.84 8.96 8.96 0 015.43.35c.94.4 1.72.97 2.33 1.71a7.36 7.36 0 011.43 2.67c.32 1.04.49 2.19.49 3.45V93h-3.94V78.81c0-1.69-.4-3-1.17-3.92-.76-.93-1.93-1.4-3.5-1.4a6.6 6.6 0 00-3.25.83c-1 .56-1.92 1.31-2.77 2.27V93h-3.94V70.71h2.35c.56 0 .9.28 1.04.82l.3 2.42zm57.7 3.3c0 2.36-.37 4.5-1.11 6.44a14.3 14.3 0 01-3.17 4.98 14.1 14.1 0 01-4.93 3.2c-1.9.76-4.02 1.13-6.33 1.13H85.8V61.47h11.77c2.31 0 4.42.39 6.33 1.15a13.8 13.8 0 018.1 8.18 17.75 17.75 0 011.12 6.45zm-4.37 0c0-1.94-.26-3.67-.8-5.2a10.94 10.94 0 00-2.23-3.87 9.57 9.57 0 00-3.53-2.42 12.23 12.23 0 00-4.61-.83h-7.5v24.62h7.5c1.7 0 3.24-.28 4.61-.84a9.7 9.7 0 003.53-2.4 10.94 10.94 0 002.24-3.87c.53-1.53.8-3.26.8-5.2zm19.8 5.72c-1.8.06-3.34.2-4.62.44-1.26.22-2.3.51-3.1.88-.8.36-1.37.8-1.74 1.3-.35.5-.53 1.05-.53 1.67 0 .58.1 1.1.3 1.52a3 3 0 00.76 1.05c.34.27.73.46 1.17.6a6.13 6.13 0 001.45.17 7.28 7.28 0 003.5-.81 11.95 11.95 0 002.82-2.2v-4.62zm-12.65-9.11a12.73 12.73 0 013.98-2.66c1.43-.59 3-.88 4.73-.88 1.25 0 2.36.2 3.33.61a6.81 6.81 0 013.94 4.38c.33 1.04.5 2.19.5 3.43V93h-1.74a1.8 1.8 0 01-.88-.18c-.2-.13-.36-.38-.48-.74l-.44-2.12-1.72 1.46a9.48 9.48 0 01-3.74 1.7c-.69.15-1.46.23-2.3.23-.87 0-1.69-.12-2.45-.35a5.34 5.34 0 01-3.34-2.93 6.64 6.64 0 01-.49-2.64c0-.88.25-1.72.73-2.53a6.33 6.33 0 012.35-2.17c1.09-.63 2.5-1.15 4.25-1.54 1.75-.41 3.89-.65 6.42-.7v-1.75c0-1.73-.37-3.03-1.12-3.91-.75-.9-1.84-1.34-3.28-1.34-.97 0-1.78.12-2.44.37-.64.23-1.2.5-1.7.81l-1.23.82c-.33.23-.67.35-1 .35-.27 0-.5-.07-.69-.2a2.1 2.1 0 01-.48-.53l-.7-1.25zm27.67 19.5c-1.76 0-3.12-.5-4.07-1.48-.94-.98-1.41-2.4-1.41-4.25V74h-2.68a.9.9 0 01-.6-.2c-.16-.14-.24-.36-.24-.66v-1.56l3.65-.46.9-6.89a.9.9 0 01.29-.52.88.88 0 01.62-.22H142v7.67h6.44V74H142v13.38c0 .94.22 1.63.68 2.09.45.45 1.04.68 1.76.68a3.21 3.21 0 001.85-.53l.55-.35c.16-.12.3-.18.41-.18.2 0 .4.13.55.38l1.15 1.87a7.45 7.45 0 01-2.44 1.5 8.53 8.53 0 01-2.95.52zm19.68-10.4c-1.8.07-3.34.21-4.62.45-1.26.22-2.3.51-3.1.88-.8.36-1.37.8-1.74 1.3-.35.5-.53 1.05-.53 1.67 0 .58.1 1.1.3 1.52a2.9 2.9 0 00.76 1.05c.34.27.73.46 1.17.6a6.13 6.13 0 001.45.17 7.3 7.3 0 003.5-.81 12.04 12.04 0 002.82-2.2v-4.62zm-12.65-9.1a12.72 12.72 0 013.99-2.66c1.42-.59 3-.88 4.72-.88 1.25 0 2.36.2 3.33.61a6.81 6.81 0 013.94 4.38c.33 1.04.5 2.19.5 3.43V93h-1.74a1.8 1.8 0 01-.88-.18c-.2-.13-.36-.38-.48-.74l-.44-2.12-1.72 1.46a9.48 9.48 0 01-3.74 1.7c-.69.15-1.46.23-2.3.23-.87 0-1.69-.12-2.45-.35a5.33 5.33 0 01-3.34-2.93 6.62 6.62 0 01-.49-2.64c0-.88.25-1.72.73-2.53a6.33 6.33 0 012.35-2.17c1.09-.63 2.5-1.15 4.25-1.54a31.2 31.2 0 016.42-.7v-1.75c0-1.73-.37-3.03-1.12-3.91-.75-.9-1.84-1.34-3.28-1.34-.97 0-1.78.12-2.44.37-.64.23-1.2.5-1.7.81l-1.22.82c-.34.23-.68.35-1.02.35-.26 0-.49-.07-.68-.2a1.88 1.88 0 01-.48-.53l-.7-1.25zM40.98 32.25c0 2.36-.38 4.53-1.12 6.51a14.26 14.26 0 01-8.1 8.4c-1.9.78-4.02 1.17-6.34 1.17a16.6 16.6 0 01-6.33-1.17 14.31 14.31 0 01-8.08-8.4 18.29 18.29 0 01-1.12-6.51c0-2.36.38-4.53 1.12-6.5.75-1.97 1.8-3.67 3.17-5.1a14.32 14.32 0 014.9-3.34c1.92-.8 4.03-1.19 6.34-1.19 2.32 0 4.43.4 6.34 1.19 1.92.8 3.56 1.9 4.93 3.34a14.87 14.87 0 013.17 5.1 18.1 18.1 0 011.12 6.5zm-4.38 0c0-1.94-.26-3.68-.8-5.22a10.91 10.91 0 00-2.24-3.89 9.68 9.68 0 00-3.52-2.46 11.95 11.95 0 00-4.62-.86c-1.68 0-3.21.28-4.6.86a9.88 9.88 0 00-3.54 2.46 10.91 10.91 0 00-2.24 3.9c-.53 1.53-.8 3.27-.8 5.2 0 1.94.27 3.68.8 5.22a11.17 11.17 0 002.24 3.9 10.01 10.01 0 003.55 2.44c1.38.56 2.9.83 4.6.83s3.24-.27 4.61-.83a9.8 9.8 0 003.52-2.44 11.17 11.17 0 002.25-3.9c.53-1.54.8-3.28.8-5.21zm26.22-6.54V48H60.5c-.56 0-.9-.27-1.05-.81l-.31-2.4a12.45 12.45 0 01-3.26 2.6c-1.2.64-2.58.96-4.13.96-1.22 0-2.3-.2-3.24-.6a6.52 6.52 0 01-2.33-1.7 7.37 7.37 0 01-1.43-2.67c-.3-1.04-.46-2.2-.46-3.45V25.7h3.91v14.22c0 1.68.38 2.99 1.15 3.91.77.93 1.96 1.39 3.54 1.39 1.16 0 2.24-.27 3.23-.82a10.42 10.42 0 002.8-2.28V25.7h3.91zm8.61 4.47a9.94 9.94 0 012.6-3.56 5.64 5.64 0 013.76-1.3c.47 0 .92.05 1.34.15.44.1.83.27 1.17.49l-.3 2.92c-.09.37-.3.55-.66.55-.2 0-.5-.04-.9-.13a6.21 6.21 0 00-3.24.18 4.23 4.23 0 00-1.47.92c-.42.4-.81.9-1.17 1.5-.33.58-.64 1.26-.92 2.02V48H67.7V25.71h2.25c.42 0 .72.08.88.25.16.16.27.44.33.83l.26 3.39zm61.16-13.7L122.75 48h-3.82l-7.99-24.05a21.95 21.95 0 01-.42-1.58 38.36 38.36 0 01-.44 1.58L102.05 48h-3.83L88.4 16.47h3.54c.38 0 .7.1.95.29.26.2.43.43.5.73l6.52 21.9.28 1.28.29 1.46.3-1.46.38-1.27 7.41-21.91c.1-.25.26-.48.51-.69.27-.22.58-.33.95-.33h1.23c.38 0 .69.1.92.29a1.77 1.77 0 01.53.73l7.4 21.9a28.4 28.4 0 01.68 2.62 29.52 29.52 0 01.52-2.61l6.54-21.91a1.31 1.31 0 01.48-.7c.27-.21.58-.32.95-.32h3.32zm9.35 8.88c1.63 0 3.1.27 4.4.82a9.43 9.43 0 015.46 5.94c.5 1.4.74 2.98.74 4.73 0 1.76-.25 3.34-.74 4.75a9.43 9.43 0 01-5.46 5.92c-1.3.52-2.77.79-4.4.79-1.64 0-3.12-.27-4.44-.8a9.42 9.42 0 01-3.35-2.3c-.92-1-1.63-2.2-2.13-3.61-.49-1.41-.73-3-.73-4.75s.24-3.33.73-4.73c.5-1.43 1.2-2.64 2.13-3.63a9.4 9.4 0 013.35-2.31c1.32-.55 2.8-.82 4.44-.82zm0 19.89c2.2 0 3.84-.73 4.93-2.2 1.08-1.48 1.63-3.54 1.63-6.18 0-2.66-.55-4.72-1.63-6.2-1.09-1.49-2.73-2.23-4.93-2.23-1.12 0-2.09.2-2.93.57a5.71 5.71 0 00-2.06 1.65 7.5 7.5 0 00-1.24 2.67c-.26 1.04-.4 2.22-.4 3.54 0 2.64.55 4.7 1.64 6.18 1.1 1.47 2.76 2.2 4.99 2.2zm17.97-15.07a9.94 9.94 0 012.6-3.56 5.64 5.64 0 013.76-1.3c.47 0 .91.05 1.34.15.44.1.83.27 1.16.49l-.28 2.92c-.09.37-.31.55-.66.55-.2 0-.5-.04-.9-.13a6.2 6.2 0 00-3.24.18 4.23 4.23 0 00-1.47.92c-.43.4-.82.9-1.17 1.5a13.1 13.1 0 00-.92 2.02V48h-3.94V25.71h2.24c.43 0 .72.08.88.25.17.16.28.44.33.83l.27 3.39zm15.04-14.59V48h-3.92V15.6h3.92zm19.55 15.43a6.22 6.22 0 00-2.38-2.05 6.7 6.7 0 00-2.86-.6c-2.07 0-3.66.75-4.77 2.23-1.12 1.48-1.68 3.6-1.68 6.33 0 1.46.13 2.7.38 3.74a7.29 7.29 0 001.1 2.56 4.35 4.35 0 001.78 1.45c.7.3 1.5.46 2.4.46 1.29 0 2.41-.3 3.36-.88a9.6 9.6 0 002.67-2.49V31.02zm3.91-15.43V48h-2.33c-.56 0-.9-.27-1.06-.81l-.35-2.71a12.13 12.13 0 01-3.25 2.77 8.28 8.28 0 01-4.23 1.06 7.31 7.31 0 01-6.14-2.9c-.73-.96-1.3-2.15-1.69-3.57a18.35 18.35 0 01.07-9.48 11.29 11.29 0 011.89-3.7 8.7 8.7 0 017.06-3.34 7.96 7.96 0 016.12 2.62V15.59h3.91zM46.61 70.71V93H42.7V70.71h3.91zm.84-7c0 .39-.08.75-.24 1.09a2.81 2.81 0 01-1.52 1.47 2.67 2.67 0 01-2.16 0 2.9 2.9 0 01-1.45-1.47 2.67 2.67 0 010-2.16c.15-.35.35-.65.6-.9.25-.27.53-.47.85-.62a2.67 2.67 0 012.16 0c.35.15.65.35.9.62.27.25.47.55.62.9.16.34.24.7.24 1.08zm7.97 10.24c.49-.54 1-1.04 1.54-1.48a9.85 9.85 0 013.66-1.84 8.96 8.96 0 015.43.35c.94.4 1.72.97 2.33 1.71a7.36 7.36 0 011.43 2.67c.32 1.04.49 2.19.49 3.45V93h-3.94V78.81c0-1.69-.4-3-1.17-3.92-.76-.93-1.93-1.4-3.5-1.4a6.6 6.6 0 00-3.25.83c-1 .56-1.92 1.31-2.77 2.27V93h-3.94V70.71h2.35c.56 0 .9.28 1.04.82l.3 2.42zm57.7 3.3c0 2.36-.37 4.5-1.11 6.44a14.3 14.3 0 01-3.17 4.98 14.1 14.1 0 01-4.93 3.2c-1.9.76-4.02 1.13-6.33 1.13H85.8V61.47h11.77c2.31 0 4.42.39 6.33 1.15a13.8 13.8 0 018.1 8.18 17.75 17.75 0 011.12 6.45zm-4.37 0c0-1.94-.26-3.67-.8-5.2a10.94 10.94 0 00-2.23-3.87 9.57 9.57 0 00-3.53-2.42 12.23 12.23 0 00-4.61-.83h-7.5v24.62h7.5c1.7 0 3.24-.28 4.61-.84a9.7 9.7 0 003.53-2.4 10.94 10.94 0 002.24-3.87c.53-1.53.8-3.26.8-5.2zm19.8 5.72c-1.8.06-3.34.2-4.62.44-1.26.22-2.3.51-3.1.88-.8.36-1.37.8-1.74 1.3-.35.5-.53 1.05-.53 1.67 0 .58.1 1.1.3 1.52a3 3 0 00.76 1.05c.34.27.73.46 1.17.6a6.13 6.13 0 001.45.17 7.28 7.28 0 003.5-.81 11.95 11.95 0 002.82-2.2v-4.62zm-12.65-9.11a12.73 12.73 0 013.98-2.66c1.43-.59 3-.88 4.73-.88 1.25 0 2.36.2 3.33.61a6.81 6.81 0 013.94 4.38c.33 1.04.5 2.19.5 3.43V93h-1.74a1.8 1.8 0 01-.88-.18c-.2-.13-.36-.38-.48-.74l-.44-2.12-1.72 1.46a9.48 9.48 0 01-3.74 1.7c-.69.15-1.46.23-2.3.23-.87 0-1.69-.12-2.45-.35a5.34 5.34 0 01-3.34-2.93 6.64 6.64 0 01-.49-2.64c0-.88.25-1.72.73-2.53a6.33 6.33 0 012.35-2.17c1.09-.63 2.5-1.15 4.25-1.54 1.75-.41 3.89-.65 6.42-.7v-1.75c0-1.73-.37-3.03-1.12-3.91-.75-.9-1.84-1.34-3.28-1.34-.97 0-1.78.12-2.44.37-.64.23-1.2.5-1.7.81l-1.23.82c-.33.23-.67.35-1 .35-.27 0-.5-.07-.69-.2a2.1 2.1 0 01-.48-.53l-.7-1.25zm27.67 19.5c-1.76 0-3.12-.5-4.07-1.48-.94-.98-1.41-2.4-1.41-4.25V74h-2.68a.9.9 0 01-.6-.2c-.16-.14-.24-.36-.24-.66v-1.56l3.65-.46.9-6.89a.9.9 0 01.29-.52.88.88 0 01.62-.22H142v7.67h6.44V74H142v13.38c0 .94.22 1.63.68 2.09.45.45 1.04.68 1.76.68a3.21 3.21 0 001.85-.53l.55-.35c.16-.12.3-.18.41-.18.2 0 .4.13.55.38l1.15 1.87a7.45 7.45 0 01-2.44 1.5 8.53 8.53 0 01-2.95.52zm19.68-10.4c-1.8.07-3.34.21-4.62.45-1.26.22-2.3.51-3.1.88-.8.36-1.37.8-1.74 1.3-.35.5-.53 1.05-.53 1.67 0 .58.1 1.1.3 1.52a2.9 2.9 0 00.76 1.05c.34.27.73.46 1.17.6a6.13 6.13 0 001.45.17 7.3 7.3 0 003.5-.81 12.04 12.04 0 002.82-2.2v-4.62zm-12.65-9.1a12.72 12.72 0 013.99-2.66c1.42-.59 3-.88 4.72-.88 1.25 0 2.36.2 3.33.61a6.81 6.81 0 013.94 4.38c.33 1.04.5 2.19.5 3.43V93h-1.74a1.8 1.8 0 01-.88-.18c-.2-.13-.36-.38-.48-.74l-.44-2.12-1.72 1.46a9.48 9.48 0 01-3.74 1.7c-.69.15-1.46.23-2.3.23-.87 0-1.69-.12-2.45-.35a5.33 5.33 0 01-3.34-2.93 6.62 6.62 0 01-.49-2.64c0-.88.25-1.72.73-2.53a6.33 6.33 0 012.35-2.17c1.09-.63 2.5-1.15 4.25-1.54a31.2 31.2 0 016.42-.7v-1.75c0-1.73-.37-3.03-1.12-3.91-.75-.9-1.84-1.34-3.28-1.34-.97 0-1.78.12-2.44.37-.64.23-1.2.5-1.7.81l-1.22.82c-.34.23-.68.35-1.02.35-.26 0-.49-.07-.68-.2a1.88 1.88 0 01-.48-.53l-.7-1.25z" fill="#fff"/><path fill="#D42B21" d="M0 106.79h210V120H0z"/></g><defs><clipPath id="clip0"><path fill="#fff" d="M0 0h210v120H0z"/></clipPath></defs></svg></g><a href="https://ourworldindata.org/grapher/global-hunger-index-vs-extreme-poverty" target="_blank" rel="noopener" font-family="&quot;Playfair Display&quot;,Georgia,&quot;Times New Roman&quot;,serif"><text font-size="25.2" x="15" y="35.2" fill="#555"><tspan x="15" y="35.16">Global Hunger Index vs. extreme poverty</tspan></text></a><text font-size="14.4" x="15" y="55.7" fill="#666"><tspan x="15" y="55.72">The Global Hunger Index measured against the share of the population living in extreme poverty (living on less</tspan><tspan x="15" y="73">than 1.90 international dollars a day at 2011 prices). The GHI comprises of four key hunger indicators: prevalence</tspan><tspan x="15" y="90.28">of undernourishment in the total population; childhood wasting; childhood stunting; and child mortality. This</tspan><tspan x="15" y="107.56">calculation results in GHI scores on a 100-point scale where 0 is the best score (no hunger) and 100 the</tspan><tspan x="15" y="124.84">worst.versus</tspan></text></g><g class="ScatterPlot"><g class="DualAxisView"><g class="HorizontalAxis"><text font-size="12.6" x="295.9" y="544.9"><tspan x="295.92" y="544.88">Share in extreme poverty</tspan></text><text x="60.74" y="524.8" fill="#666" text-anchor="start" font-size="16.2">0%</text><text x="200.6" y="524.8" fill="#666" text-anchor="middle" font-size="16.2">20%</text><text x="340.4" y="524.8" fill="#666" text-anchor="middle" font-size="16.2">40%</text><text x="480.2" y="524.8" fill="#666" text-anchor="middle" font-size="16.2">60%</text><text x="620" y="524.8" fill="#666" text-anchor="middle" font-size="16.2">80%</text></g><g class="VerticalAxis"><text font-size="12.6" x="-418.4" y="25.1" transform="rotate(-90)"><tspan x="-418.36" y="25.08">Global Hunger Index (GHI)</tspan></text><text x="55.74" y="503.6" dy=".32em" text-anchor="end" fill="#666" font-size="16.2">0</text><text x="55.74" y="452.2" dy=".32em" text-anchor="end" fill="#666" font-size="16.2">10</text><text x="55.74" y="400.8" dy=".32em" text-anchor="end" fill="#666" font-size="16.2">20</text><text x="55.74" y="349.3" dy=".32em" text-anchor="end" fill="#666" font-size="16.2">30</text><text x="55.74" y="297.9" dy=".32em" text-anchor="end" fill="#666" font-size="16.2">40</text><text x="55.74" y="246.5" dy=".32em" text-anchor="end" fill="#666" font-size="16.2">50</text><text x="55.74" y="195.1" dy=".32em" text-anchor="end" fill="#666" font-size="16.2">60</text><text x="55.74" y="143.6" dy=".32em" text-anchor="end" fill="#666" font-size="16.2">70</text></g><g class="AxisGridLines horizontalLines"><path stroke="#999" d="M60.74 503.6h657.35"/><path stroke="#ddd" stroke-dasharray="3,2" d="M60.74 452.2h657.35M60.74 400.8h657.35M60.74 349.3h657.35M60.74 297.9h657.35M60.74 246.5h657.35M60.74 195.1h657.35M60.74 143.6h657.35"/></g><g class="AxisGridLines verticalLines"><path stroke="#999" d="M60.7 503.6V139"/><path stroke="#ddd" stroke-dasharray="3,2" d="M200.6 503.6V139M340.4 503.6V139M480.2 503.6V139M620 503.6V139"/></g></g><g class="PointsWithLabels clickable" clip-path="url(#a)" font-family="Arial, sans-serif"><path fill="rgba(255,255,255,0)" d="M60.74 139h657.35v364.6H60.74z"/><defs><clipPath id="a"><path d="M50.74 129h677.35v384.6H50.74z"/></clipPath></defs><g class="key-China"><circle cx="482" cy="367" r="1.7" fill="#2D8587" stroke="none" opacity=".7"/><path stroke-width="1.42" opacity=".7" stroke="#2D8587" fill="none" stroke-linecap="butt" d="M482 367l-167 54-151 23-100 20-1 1"/><path cx="63" cy="465" r="2.62" fill="#2D8587" opacity=".7" d="M66.7 465l-5.55 1.85L63 461.3z"/></g><g class="key-India"><circle cx="400" cy="265" r="1.6" fill="#2D8587" stroke="none" opacity=".7"/><path stroke-width="1.38" opacity=".7" stroke="#2D8587" fill="none" stroke-linecap="butt" d="M400 265l-37 42-59 11-158 39-12-15"/><path cx="134" cy="342" r="2.58" fill="#2D8587" opacity=".7" d="M133.6 345.63l-1.21-5.64 5.24 2.41z"/></g><g class="key-Indonesia"><circle cx="445" cy="319" r="1.3" fill="#2D8587" stroke="none" opacity=".7"/><path stroke-width=".79" opacity=".7" stroke="#2D8587" fill="none" stroke-linecap="butt" d="M445 319l-141 54-111-17-96 35-6-1"/><path cx="91" cy="390" r="1.99" fill="#2D8587" opacity=".7" d="M92.64 392.29l-3.6-2.62 4.25-1.3z"/></g><g class="key-Pakistan"><circle cx="358" cy="280" r="1.2" fill="#2D8587" stroke="none" opacity=".7"/><path stroke-width=".74" opacity=".7" stroke="#2D8587" fill="none" stroke-linecap="butt" d="M358 280l-99 29-105 14-64 8-2 5"/><path cx="88" cy="336" r="1.94" fill="#2D8587" opacity=".7" d="M90.52 334.92l-3.24 2.88-.36-4.32z"/></g><g class="key-Brazil"><circle cx="205" cy="420" r="1.2" fill="#932834" stroke="none" opacity=".7"/><path stroke-width=".74" opacity=".7" stroke="#932834" fill="none" stroke-linecap="butt" d="M205 420l-60 22-46 33-12 2 4-2"/><path cx="91" cy="475" r="1.94" fill="#932834" opacity=".7" d="M88.4 474.13h4.34l-2.6 3.47z"/></g><g class="key-Nigeria"><circle cx="470" cy="249" r="1.2" fill="#923E8B" stroke="none" opacity=".7"/><path stroke-width=".72" opacity=".7" stroke="#923E8B" fill="none" stroke-linecap="butt" d="M470 249l56 44-72 37-100 42h-5"/><path cx="349" cy="372" r="1.92" fill="#923E8B" opacity=".7" d="M350.92 373.92l-3.84-1.92 3.84-1.92z"/></g><g class="key-Bangladesh"><circle cx="346" cy="234" r="1.2" fill="#2D8587" stroke="none" opacity=".7"/><path stroke-width=".69" opacity=".7" stroke="#2D8587" fill="none" stroke-linecap="butt" d="M346 234l-46 71-94 32-46 27-20 3"/><path cx="140" cy="367" r="1.89" fill="#2D8587" opacity=".7" d="M142.15 368.59l-4.02-1.31 3.46-2.43z"/></g><g class="key-Russia"><circle cx="82" cy="449" r="1.2" fill="#4C5C78" stroke="none" opacity=".7"/><path stroke-width=".67" opacity=".7" stroke="#4C5C78" fill="none" stroke-linecap="butt" d="M82 449l-21 19h-1l1 3"/><path cx="61" cy="471" r="1.87" fill="#4C5C78" opacity=".7" d="M62.18 468.63l-.59 4.14-2.96-2.95z"/></g><g class="key-Mexico"><circle cx="112" cy="428" r="1.2" fill="#E04E4B" stroke="none" opacity=".7"/><path stroke-width=".65" opacity=".7" stroke="#E04E4B" fill="none" stroke-linecap="butt" d="M112 428l11 20-25 12-23 6-1 4"/><path cx="74" cy="470" r="1.85" fill="#E04E4B" opacity=".7" d="M76.24 468.65l-2.69 3.14-.9-4.03z"/></g><g class="key-Ethiopia"><circle cx="586" cy="139" r="1.2" fill="#923E8B" stroke="none" opacity=".7"/><path stroke-width=".62" opacity=".7" stroke="#923E8B" fill="none" stroke-linecap="butt" d="M586 139l-137 63-131 80-55 49-30 6"/><path cx="233" cy="337" r="1.82" fill="#923E8B" opacity=".7" d="M235.14 338.43l-3.92-1.07 3.2-2.5z"/></g><g class="key-Philippines"><circle cx="241" cy="345" r="1.2" fill="#2D8587" stroke="none" opacity=".7"/><path stroke-width=".62" opacity=".7" stroke="#2D8587" fill="none" stroke-linecap="butt" d="M241 345l-81 23-20 30-33 3-7-1"/><path cx="100" cy="400" r="1.82" fill="#2D8587" opacity=".7" d="M101.54 402.06l-3.34-2.32 3.86-1.28z"/></g><g class="key-Egypt"><circle cx="115" cy="404" r="1.2" fill="#923E8B" stroke="none" opacity=".7"/><path stroke-width=".61" opacity=".7" stroke="#923E8B" fill="none" stroke-linecap="butt" d="M115 404l-37 20 15-4-16 13 4-5"/><path cx="81" cy="428" r="1.81" fill="#923E8B" opacity=".7" d="M78.46 428.28l3.67-1.7-.85 3.96z"/></g><g class="key-Vietnam"><circle cx="446" cy="290" r="1.2" fill="#2D8587" stroke="none" opacity=".7"/><path stroke-width=".61" opacity=".7" stroke="#2D8587" fill="none" stroke-linecap="butt" d="M446 290l-130 58-157 42-86 39v-8"/><path cx="73" cy="421" r="1.81" fill="#2D8587" opacity=".7" d="M71.19 422.81l1.81-3.62 1.81 3.62z"/></g><g class="key-Iran"><circle cx="87" cy="413" r="1.2" fill="#2D8587" stroke="none" opacity=".7"/><path stroke-width=".59" opacity=".7" stroke="#2D8587" fill="none" stroke-linecap="butt" d="M87 413l-7 20-13 25-4 11v-5"/><path cx="63" cy="464" r="1.79" fill="#2D8587" opacity=".7" d="M61.21 465.79l1.79-3.58 1.79 3.58z"/></g><g class="key-Turkey"><circle cx="78" cy="430" r="1.2" fill="#2D8587" stroke="none" opacity=".7"/><path stroke-width=".59" opacity=".7" stroke="#2D8587" fill="none" stroke-linecap="butt" d="M78 430l-7 20-7 24-2 3"/><path cx="62" cy="477" r="1.79" fill="#2D8587" opacity=".7" d="M64.48 476.5l-3.47 1.99.5-3.97z"/></g><g class="key-Thailand"><circle cx="106" cy="369" r="1.2" fill="#2D8587" stroke="none" opacity=".7"/><path stroke-width=".57" opacity=".7" stroke="#2D8587" fill="none" stroke-linecap="butt" d="M106 369l-29 40-16 33h-1l1 7"/><path cx="61" cy="449" r="1.77" fill="#2D8587" opacity=".7" d="M62.5 447l-1.25 3.75L59 447.5z"/></g><g class="key-South-Africa"><circle cx="277" cy="408" r="1.1" fill="#923E8B" stroke="none" opacity=".7"/><path stroke-width=".55" opacity=".7" stroke="#923E8B" fill="none" stroke-linecap="butt" d="M277 408l29-1-126 12 13 23v-7"/><path cx="193" cy="435" r="1.75" fill="#923E8B" opacity=".7" d="M191.25 436.75l1.75-3.5 1.75 3.5z"/></g><g class="key-Tanzania"><circle cx="569" cy="287" r="1.1" fill="#923E8B" stroke="none" opacity=".7"/><path stroke-width=".54" opacity=".7" stroke="#923E8B" fill="none" stroke-linecap="butt" d="M569 287l92-2-193 49-64 23v-2"/><path cx="404" cy="355" r="1.74" fill="#923E8B" opacity=".7" d="M402.26 356.74l1.74-3.48 1.74 3.48z"/></g><g class="key-Myanmar"><circle cx="718" cy="216" r="1.1" fill="#2D8587" stroke="none" opacity=".7"/><path stroke-width=".54" opacity=".7" stroke="#2D8587" fill="none" stroke-linecap="butt" d="M718 216l-107 54-392 69-137 51-12-3"/><path cx="70" cy="387" r="1.74" fill="#2D8587" opacity=".7" d="M71.27 389.11l-2.96-2.53 3.8-.85z"/></g><g class="key-Kenya"><circle cx="282" cy="305" r="1.1" fill="#923E8B" stroke="none" opacity=".7"/><path stroke-width=".54" opacity=".7" stroke="#923E8B" fill="none" stroke-linecap="butt" d="M282 305l45 5 30 41-41 40-10 4"/><path cx="306" cy="395" r="1.74" fill="#923E8B" opacity=".7" d="M308.26 395.97l-3.88-.32 2.59-2.91z"/></g><g class="key-Colombia"><circle cx="123" cy="425" r="1.1" fill="#932834" stroke="none" opacity=".7"/><path stroke-width=".53" opacity=".7" stroke="#932834" fill="none" stroke-linecap="butt" d="M123 425l54 20-44 10-41 4-4 3"/><path cx="88" cy="462" r="1.73" fill="#932834" opacity=".7" d="M90.42 462.35l-3.8.69 1.73-3.46z"/></g><g class="key-Ukraine"><circle cx="81" cy="434" r="1.1" fill="#4C5C78" stroke="none" opacity=".7"/><path stroke-width=".53" opacity=".7" stroke="#4C5C78" fill="none" stroke-linecap="butt" d="M81 434l-21 43h0"/><path cx="60" cy="477" r="1.73" fill="#4C5C78" opacity=".7" d="M58.27 475.27l3.46 1.73-3.46 1.73z"/></g><g class="key-Algeria"><circle cx="101" cy="417" r="1.1" fill="#923E8B" stroke="none" opacity=".7"/><path stroke-width=".52" opacity=".7" stroke="#923E8B" fill="none" stroke-linecap="butt" d="M101 417l-4 10-29 21-5 10v-4"/><path cx="63" cy="454" r="1.72" fill="#923E8B" opacity=".7" d="M61.28 455.72l1.72-3.44 1.72 3.44z"/></g><g class="key-Uganda"><circle cx="511" cy="291" r="1.1" fill="#923E8B" stroke="none" opacity=".7"/><path stroke-width=".52" opacity=".7" stroke="#923E8B" fill="none" stroke-linecap="butt" d="M511 291l24 10-140 42-53 24 7-28"/><path cx="349" cy="339" r="1.72" fill="#923E8B" opacity=".7" d="M346.91 340.25l2.5-2.92.84 3.76z"/></g><g class="key-Sudan"><circle cx="132" cy="321" r="1.22" fill="#923E8B" opacity=".8" stroke="#333" stroke-width=".5"/></g><g class="key-Iraq"><circle cx="317" cy="402" r="1.1" fill="#2D8587" stroke="none" opacity=".7"/><path stroke-width=".51" opacity=".7" stroke="#2D8587" fill="none" stroke-linecap="butt" d="M317 402L70 375l2 2-5 13 2-5"/><path cx="69" cy="385" r="1.71" fill="#2D8587" opacity=".7" d="M66.78 385.95l2.86-2.54.31 3.81z"/></g><g class="key-Morocco"><circle cx="88" cy="409" r="1.1" fill="#923E8B" stroke="none" opacity=".7"/><path stroke-width=".51" opacity=".7" stroke="#923E8B" fill="none" stroke-linecap="butt" d="M88 409l14 14-27 18-9 14-1-4"/><path cx="65" cy="451" r="1.71" fill="#923E8B" opacity=".7" d="M63.76 453.07l.83-3.73 2.48 2.9z"/></g><g class="key-Uzbekistan"><circle cx="490" cy="391" r="1.1" fill="#2D8587" stroke="none" opacity=".7"/><path stroke-width=".5" opacity=".7" stroke="#2D8587" fill="none" stroke-linecap="butt" d="M490 391l-166 31-168 14h-7"/><path cx="149" cy="436" r="1.7" fill="#2D8587" opacity=".7" d="M150.7 437.7l-3.4-1.7 3.4-1.7z"/></g><g class="key-Peru"><circle cx="159" cy="357" r="1.1" fill="#932834" stroke="none" opacity=".7"/><path stroke-width=".5" opacity=".7" stroke="#932834" fill="none" stroke-linecap="butt" d="M159 357l16 39-51 26-39 37-1-1"/><path cx="84" cy="458" r="1.7" fill="#932834" opacity=".7" d="M84 460.4l-1.2-3.6 3.6 1.2z"/></g><g class="key-Malaysia"><circle cx="69" cy="400" r="1.1" fill="#2D8587" stroke="none" opacity=".7"/><path stroke-width=".5" opacity=".7" stroke="#2D8587" fill="none" stroke-linecap="butt" d="M69 400l-1 23-4 11-4 19v-2"/><path cx="60" cy="451" r="1.7" fill="#2D8587" opacity=".7" d="M58.3 452.7l1.7-3.4 1.7 3.4z"/></g><g class="key-Venezuela"><circle cx="91" cy="427" r="1.1" fill="#932834" stroke="none" opacity=".7"/><path stroke-width=".5" opacity=".7" stroke="#932834" fill="none" stroke-linecap="butt" d="M91 427l42-3-35 34v9"/><path cx="98" cy="467" r="1.7" fill="#932834" opacity=".7" d="M99.7 465.3l-1.7 3.4-1.7-3.4z"/></g><g class="key-Angola"><circle cx="289" cy="164" r="1.1" fill="#923E8B" stroke="none" opacity=".7"/><path stroke-width=".49" opacity=".7" stroke="#923E8B" fill="none" stroke-linecap="butt" d="M289 164l27 42-23 89 62 39 20 2"/><path cx="375" cy="336" r="1.69" fill="#923E8B" opacity=".7" d="M373.49 334.15l3.2 2.02-3.54 1.34z"/></g><g class="key-Ghana"><circle cx="393" cy="284" r="1.1" fill="#923E8B" stroke="none" opacity=".7"/><path stroke-width=".49" opacity=".7" stroke="#923E8B" fill="none" stroke-linecap="butt" d="M393 284l-107 65-86 37-50 46-3-12"/><path cx="147" cy="420" r="1.69" fill="#923E8B" opacity=".7" d="M145.77 422.05l.82-3.69 2.46 2.87z"/></g><g class="key-Mozambique"><circle cx="661" cy="166" r="1.1" fill="#923E8B" stroke="none" opacity=".7"/><path stroke-width=".49" opacity=".7" stroke="#923E8B" fill="none" stroke-linecap="butt" d="M661 166l-33 83-72 58-59 33-2 6"/><path cx="495" cy="346" r="1.69" fill="#923E8B" opacity=".7" d="M497.14 344.93l-2.67 2.67-.54-3.74z"/></g><g class="key-Yemen"><circle cx="124" cy="278" r="1.1" fill="#2D8587" stroke="none" opacity=".7"/><path stroke-width=".49" opacity=".7" stroke="#2D8587" fill="none" stroke-linecap="butt" d="M124 278l-10 3 17 34 264 8 39-5"/><path cx="434" cy="318" r="1.69" fill="#2D8587" opacity=".7" d="M432.1 316.54l3.58 1.25-3.14 2.1z"/></g><g class="key-Nepal"><circle cx="553" cy="282" r="1.1" fill="#2D8587" stroke="none" opacity=".7"/><path stroke-width=".49" opacity=".7" stroke="#2D8587" fill="none" stroke-linecap="butt" d="M553 282l-131 32-147 39-171 38-2-1"/><path cx="102" cy="390" r="1.69" fill="#2D8587" opacity=".7" d="M102.76 392.27l-2.27-3.03h3.78z"/></g><g class="key-Madagascar"><circle cx="540" cy="274" r="1.1" fill="#923E8B" stroke="none" opacity=".7"/><path stroke-width=".49" opacity=".7" stroke="#923E8B" fill="none" stroke-linecap="butt" d="M540 274l-16 2 36 36 47 9-3-15"/><path cx="604" cy="306" r="1.69" fill="#923E8B" opacity=".7" d="M602.67 307.99l1-3.65 2.32 2.99z"/></g><g class="key-Cameroon"><circle cx="373" cy="295" r="1.1" fill="#923E8B" stroke="none" opacity=".7"/><path stroke-width=".48" opacity=".7" stroke="#923E8B" fill="none" stroke-linecap="butt" d="M373 295l-102 1 10 50-53 39-2 5"/><path cx="226" cy="390" r="1.68" fill="#923E8B" opacity=".7" d="M228.18 389.06l-2.8 2.5-.32-3.74z"/></g><g class="key-Cote-d__0027Ivoire"><circle cx="213" cy="340" r="1.1" fill="#923E8B" stroke="none" opacity=".7"/><path stroke-width=".48" opacity=".7" stroke="#923E8B" fill="none" stroke-linecap="butt" d="M213 340l27 2 33-14-19 43-15-4"/><path cx="239" cy="367" r="1.68" fill="#923E8B" opacity=".7" d="M240.19 369.06l-2.81-2.5 3.68-.75z"/></g><g class="key-Niger"><circle cx="601" cy="170" r="1.1" fill="#923E8B" stroke="none" opacity=".7"/><path stroke-width=".48" opacity=".7" stroke="#923E8B" fill="none" stroke-linecap="butt" d="M601 170l20 61-141 81-116 18-5-4"/><path cx="359" cy="326" r="1.68" fill="#923E8B" opacity=".7" d="M359.26 328.36l-1.57-3.4 3.67.78z"/></g><g class="key-Sri-Lanka"><circle cx="127" cy="340" r="1.1" fill="#2D8587" stroke="none" opacity=".7"/><path stroke-width=".47" opacity=".7" stroke="#2D8587" fill="none" stroke-linecap="butt" d="M127 340l-4 24-37 14-19-6h-1"/><path cx="66" cy="372" r="1.67" fill="#2D8587" opacity=".7" d="M67.67 373.67L64.33 372l3.34-1.67z"/></g><g class="key-Romania"><circle cx="64" cy="457" r="1.1" fill="#4C5C78" stroke="none" opacity=".7"/><path stroke-width=".47" opacity=".7" stroke="#4C5C78" fill="none" stroke-linecap="butt" d="M64 457l34 2-38 14v2l22 1"/><path cx="82" cy="476" r="1.67" fill="#4C5C78" opacity=".7" d="M80.4 474.26l3.27 1.82-3.41 1.51z"/></g><g class="key-Burkina-Faso"><circle cx="642" cy="258" r="1.1" fill="#923E8B" stroke="none" opacity=".7"/><path stroke-width=".47" opacity=".7" stroke="#923E8B" fill="none" stroke-linecap="butt" d="M642 258l-52-4-147 58-97 32-17 17"/><path cx="329" cy="361" r="1.67" fill="#923E8B" opacity=".7" d="M331.36 361l-3.54 1.18 1.18-3.54z"/></g><g class="key-Mali"><circle cx="659" cy="245" r="1.1" fill="#923E8B" stroke="none" opacity=".7"/><path stroke-width=".47" opacity=".7" stroke="#923E8B" fill="none" stroke-linecap="butt" d="M659 245l-89 32-148 49-38 33-12-3"/><path cx="372" cy="356" r="1.67" fill="#923E8B" opacity=".7" d="M373.22 358.03l-2.84-2.44 3.65-.8z"/></g><g class="key-Chile"><circle cx="92" cy="471" r="1.1" fill="#932834" stroke="none" opacity=".7"/><path stroke-width=".47" opacity=".7" stroke="#932834" fill="none" stroke-linecap="butt" d="M92 471l-2 6H62"/><path cx="62" cy="477" r="1.67" fill="#932834" opacity=".7" d="M63.67 478.67L60.33 477l3.34-1.67z"/></g><g class="key-Kazakhstan"><circle cx="130" cy="448" r="1.1" fill="#2D8587" stroke="none" opacity=".7"/><path stroke-width=".47" opacity=".7" stroke="#2D8587" fill="none" stroke-linecap="butt" d="M130 448H60v25"/><path cx="60" cy="473" r="1.67" fill="#2D8587" opacity=".7" d="M61.67 471.33L60 474.67l-1.67-3.34z"/></g><g class="key-Malawi"><circle cx="565" cy="207" r="1.1" fill="#923E8B" stroke="none" opacity=".7"/><path stroke-width=".47" opacity=".7" stroke="#923E8B" fill="none" stroke-linecap="butt" d="M565 207l-102 63 98 70-15 25-5-2"/><path cx="541" cy="363" r="1.67" fill="#923E8B" opacity=".7" d="M541.93 365.17l-2.48-2.79 3.72-.31z"/></g><g class="key-Guatemala"><circle cx="267" cy="357" r="1.1" fill="#E04E4B" stroke="none" opacity=".7"/><path stroke-width=".46" opacity=".7" stroke="#E04E4B" fill="none" stroke-linecap="butt" d="M267 357l-142 2 7 32-18 6h-2"/><path cx="112" cy="397" r="1.66" fill="#E04E4B" opacity=".7" d="M113.66 398.66l-3.32-1.66 3.32-1.66z"/></g><g class="key-Zambia"><circle cx="460" cy="261" r="1.1" fill="#923E8B" stroke="none" opacity=".7"/><path stroke-width=".46" opacity=".7" stroke="#923E8B" fill="none" stroke-linecap="butt" d="M460 261l-61-17 109 27-38 32-1 4"/><path cx="469" cy="307" r="1.66" fill="#923E8B" opacity=".7" d="M471.01 305.8l-2.41 2.81-.8-3.62z"/></g><g class="key-Ecuador"><circle cx="188" cy="382" r="1.1" fill="#932834" stroke="none" opacity=".7"/><path stroke-width=".46" opacity=".7" stroke="#932834" fill="none" stroke-linecap="butt" d="M188 382l71 17-146 14-28 19-2-3"/><path cx="83" cy="429" r="1.66" fill="#932834" opacity=".7" d="M82.54 431.3l-.46-3.68 3.22 1.84z"/></g><g class="key-Senegal"><circle cx="518" cy="312" r="1.1" fill="#923E8B" stroke="none" opacity=".7"/><path stroke-width=".46" opacity=".7" stroke="#923E8B" fill="none" stroke-linecap="butt" d="M518 312l-101-3-98 69-32 40-13-9"/><path cx="274" cy="409" r="1.66" fill="#923E8B" opacity=".7" d="M274.42 411.31l-1.78-3.25 3.67.52z"/></g><g class="key-Chad"><circle cx="481" cy="182" r="1.1" fill="#923E8B" stroke="none" opacity=".7"/><path stroke-width=".46" opacity=".7" stroke="#923E8B" fill="none" stroke-linecap="butt" d="M481 182l74 54-204 5-27 34 22 4"/><path cx="346" cy="279" r="1.66" fill="#923E8B" opacity=".7" d="M344.66 277.07l2.97 2.23-3.56 1.04z"/></g><g class="key-Zimbabwe"><circle cx="161" cy="318" r="1.1" fill="#923E8B" stroke="none" opacity=".7"/><path stroke-width=".46" opacity=".7" stroke="#923E8B" fill="none" stroke-linecap="butt" d="M161 318l-31-26 209 31-52 32 10-26"/><path cx="297" cy="329" r="1.66" fill="#923E8B" opacity=".7" d="M294.85 329.95l2.75-2.5.35 3.7z"/></g><g class="key-Guinea"><circle cx="667" cy="266" r="1.1" fill="#923E8B" stroke="none" opacity=".7"/><path stroke-width=".45" opacity=".7" stroke="#923E8B" fill="none" stroke-linecap="butt" d="M667 266l-188 9-40 54-181 30-28-3"/><path cx="230" cy="356" r="1.65" fill="#923E8B" opacity=".7" d="M231.46 357.82l-3.1-2 3.46-1.28z"/></g><g class="key-Rwanda"><circle cx="552" cy="222" r="1.1" fill="#923E8B" stroke="none" opacity=".7"/><path stroke-width=".45" opacity=".7" stroke="#923E8B" fill="none" stroke-linecap="butt" d="M552 222l58-21-86 107-75 54 5-20"/><path cx="454" cy="342" r="1.65" fill="#923E8B" opacity=".7" d="M452 343.2l2.4-2.8.8 3.6z"/></g><g class="key-Tunisia"><circle cx="138" cy="433" r="1.1" fill="#923E8B" stroke="none" opacity=".7"/><path stroke-width=".45" opacity=".7" stroke="#923E8B" fill="none" stroke-linecap="butt" d="M138 433l-36 24-23 14-17 4v-10"/><path cx="62" cy="465" r="1.65" fill="#923E8B" opacity=".7" d="M60.35 466.65l1.65-3.3 1.65 3.3z"/></g><g class="key-Bolivia"><circle cx="165" cy="314" r="1.1" fill="#932834" stroke="none" opacity=".7"/><path stroke-width=".45" opacity=".7" stroke="#932834" fill="none" stroke-linecap="butt" d="M165 314l95 31-123 35-25 44-6-9"/><path cx="106" cy="415" r="1.65" fill="#932834" opacity=".7" d="M105.54 417.29l-.46-3.66 3.2 1.83z"/></g><g class="key-Benin"><circle cx="495" cy="274" r="1.1" fill="#923E8B" stroke="none" opacity=".7"/><path stroke-width=".45" opacity=".7" stroke="#923E8B" fill="none" stroke-linecap="butt" d="M495 274l-55 33-25 33-10 44-11-6"/><path cx="394" cy="378" r="1.65" fill="#923E8B" opacity=".7" d="M394.66 380.24l-2.1-3.03 3.68.13z"/></g><g class="key-Haiti"><circle cx="606" cy="238" r="1.1" fill="#E04E4B" stroke="none" opacity=".7"/><path stroke-width=".45" opacity=".7" stroke="#E04E4B" fill="none" stroke-linecap="butt" d="M606 238l-107 45-26-3-262 33-7 14"/><path cx="204" cy="327" r="1.65" fill="#E04E4B" opacity=".7" d="M206.21 326.26l-2.95 2.22v-3.7z"/></g><g class="key-Dominican-Republic"><circle cx="97" cy="375" r="1.1" fill="#E04E4B" stroke="none" opacity=".7"/><path stroke-width=".45" opacity=".7" stroke="#E04E4B" fill="none" stroke-linecap="butt" d="M97 375l1 28-12 20-14 23-7-3"/><path cx="65" cy="443" r="1.65" fill="#E04E4B" opacity=".7" d="M65.87 445.17l-2.39-2.82 3.69-.22z"/></g><g class="key-Azerbaijan"><circle cx="75" cy="363" r="1.1" fill="#2D8587" stroke="none" opacity=".7"/><path stroke-width=".44" opacity=".7" stroke="#2D8587" fill="none" stroke-linecap="butt" d="M75 363l-15 59v32"/><path cx="60" cy="454" r="1.64" fill="#2D8587" opacity=".7" d="M61.64 452.36L60 455.64l-1.64-3.28z"/></g><g class="key-Jordan"><circle cx="79" cy="438" r="1.1" fill="#2D8587" stroke="none" opacity=".7"/><path stroke-width=".44" opacity=".7" stroke="#2D8587" fill="none" stroke-linecap="butt" d="M79 438l-13 15-5 20v1-5"/><path cx="61" cy="469" r="1.64" fill="#2D8587" opacity=".7" d="M59.36 470.64l1.64-3.28 1.64 3.28z"/></g><g class="key-Belarus"><circle cx="112" cy="477" r="1.1" fill="#4C5C78" stroke="none" opacity=".7"/><path stroke-width=".44" opacity=".7" stroke="#4C5C78" fill="none" stroke-linecap="butt" d="M112 477H60h0"/><path cx="60" cy="477" r="1.64" fill="#4C5C78" opacity=".7" d="M58.36 475.36l3.28 1.64-3.28 1.64z"/></g><g class="key-Honduras"><circle cx="264" cy="370" r="1.1" fill="#E04E4B" stroke="none" opacity=".7"/><path stroke-width=".44" opacity=".7" stroke="#E04E4B" fill="none" stroke-linecap="butt" d="M264 370l-56 29-30 18-5 18-5-5"/><path cx="168" cy="430" r="1.64" fill="#E04E4B" opacity=".7" d="M168 432.32l-1.16-3.48 3.48 1.16z"/></g><g class="key-Tajikistan"><circle cx="304" cy="296" r="1.1" fill="#2D8587" stroke="none" opacity=".7"/><path stroke-width=".44" opacity=".7" stroke="#2D8587" fill="none" stroke-linecap="butt" d="M304 296l-197 41-23 12-4 7"/><path cx="80" cy="356" r="1.64" fill="#2D8587" opacity=".7" d="M82.24 355.39l-3.05 2.03.2-3.66z"/></g><g class="key-Serbia"><circle cx="61" cy="463" r="1.1" fill="#4C5C78" stroke="none" opacity=".7"/><path stroke-width=".44" opacity=".7" stroke="#4C5C78" fill="none" stroke-linecap="butt" d="M61 463l44 4-7 2"/><path cx="98" cy="469" r="1.64" fill="#4C5C78" opacity=".7" d="M100.03 470.13l-3.6-.68 2.7-2.48z"/></g><g class="key-Togo"><circle cx="441" cy="271" r="1.1" fill="#923E8B" stroke="none" opacity=".7"/><path stroke-width=".44" opacity=".7" stroke="#923E8B" fill="none" stroke-linecap="butt" d="M441 271l-16 34 42 53-63 30-9-1"/><path cx="395" cy="387" r="1.64" fill="#923E8B" opacity=".7" d="M396.45 388.81l-3.08-2 3.44-1.26z"/></g><g class="key-Sierra-Leone"><circle cx="600" cy="206" r="1.1" fill="#923E8B" stroke="none" opacity=".7"/><path stroke-width=".44" opacity=".7" stroke="#923E8B" fill="none" stroke-linecap="butt" d="M600 206l14 20-111 44-120 53-15-18"/><path cx="368" cy="305" r="1.64" fill="#923E8B" opacity=".7" d="M367.79 307.31l-.84-3.57 3.36 1.47z"/></g><g class="key-Bulgaria"><circle cx="60" cy="455" r="1.1" fill="#4C5C78" stroke="none" opacity=".7"/><path stroke-width=".43" opacity=".7" stroke="#4C5C78" fill="none" stroke-linecap="butt" d="M60 455l20-1-11 4 5 2-4 15"/><path cx="70" cy="475" r="1.63" fill="#4C5C78" opacity=".7" d="M72 473.85l-2.42 2.72-.73-3.56z"/></g><g class="key-Laos"><circle cx="280" cy="235" r="1.1" fill="#2D8587" stroke="none" opacity=".7"/><path stroke-width=".43" opacity=".7" stroke="#2D8587" fill="none" stroke-linecap="butt" d="M280 235l66 17-130 77-76 30-5 3"/><path cx="135" cy="362" r="1.63" fill="#2D8587" opacity=".7" d="M137.24 362.56l-3.64.28 1.96-3.08z"/></g><g class="key-Paraguay"><circle cx="101" cy="415" r="1.1" fill="#932834" stroke="none" opacity=".7"/><path stroke-width=".43" opacity=".7" stroke="#932834" fill="none" stroke-linecap="butt" d="M101 415l27 15-40 13-17 7-5-3"/><path cx="66" cy="447" r="1.63" fill="#932834" opacity=".7" d="M66.56 449.24l-1.96-3.08 3.64.28z"/></g><g class="key-Lebanon"><circle cx="60" cy="445" r="1.1" fill="#2D8587" stroke="none" opacity=".7"/><path stroke-width=".43" opacity=".7" stroke="#2D8587" fill="none" stroke-linecap="butt" d="M60 445v22-6"/><path cx="60" cy="461" r="1.63" fill="#2D8587" opacity=".7" d="M58.37 462.63l1.63-3.26 1.63 3.26z"/></g><g class="key-El-Salvador"><circle cx="191" cy="405" r="1.1" fill="#E04E4B" stroke="none" opacity=".7"/><path stroke-width=".43" opacity=".7" stroke="#E04E4B" fill="none" stroke-linecap="butt" d="M191 405l-44 12-38 21-32 8h-3"/><path cx="74" cy="446" r="1.63" fill="#E04E4B" opacity=".7" d="M75.63 447.63L72.37 446l3.26-1.63z"/></g><g class="key-Nicaragua"><circle cx="205" cy="318" r="1.1" fill="#E04E4B" stroke="none" opacity=".7"/><path stroke-width=".43" opacity=".7" stroke="#E04E4B" fill="none" stroke-linecap="butt" d="M205 318l-24 54-69 39-34 24-3-2"/><path cx="75" cy="433" r="1.63" fill="#E04E4B" opacity=".7" d="M75.45 435.26l-1.8-3.16 3.61.45z"/></g><g class="key-Kyrgyzstan"><circle cx="306" cy="403" r="1.1" fill="#2D8587" stroke="none" opacity=".7"/><path stroke-width=".43" opacity=".7" stroke="#2D8587" fill="none" stroke-linecap="butt" d="M306 403L80 436l-13 20 1-1"/><path cx="68" cy="455" r="1.63" fill="#2D8587" opacity=".7" d="M65.7 455l3.45-1.15L68 457.3z"/></g><g class="key-Turkmenistan"><circle cx="329" cy="389" r="1.1" fill="#2D8587" stroke="none" opacity=".7"/><path stroke-width=".43" opacity=".7" stroke="#2D8587" fill="none" stroke-linecap="butt" d="M329 389l-169 29-81 22h-2"/><path cx="77" cy="440" r="1.63" fill="#2D8587" opacity=".7" d="M78.63 441.63L75.37 440l3.26-1.63z"/></g><g class="key-Slovakia"><circle cx="65" cy="464" r="1.1" fill="#4C5C78" stroke="none" opacity=".7"/><path stroke-width=".43" opacity=".7" stroke="#4C5C78" fill="none" stroke-linecap="butt" d="M65 464l-5 8 10 4"/><path cx="70" cy="476" r="1.63" fill="#4C5C78" opacity=".7" d="M69.1 473.88l2.41 2.73-3.63.3z"/></g><g class="key-Congo"><circle cx="415" cy="310" r="1.1" fill="#923E8B" stroke="none" opacity=".7"/><path stroke-width=".43" opacity=".7" stroke="#923E8B" fill="none" stroke-linecap="butt" d="M415 310l47 2-45 27-45 27 26 6"/><path cx="398" cy="372" r="1.63" fill="#923E8B" opacity=".7" d="M396.78 370.05l2.8 2.32-3.53.85z"/></g><g class="key-Costa-Rica"><circle cx="128" cy="464" r="1.1" fill="#E04E4B" stroke="none" opacity=".7"/><path stroke-width=".43" opacity=".7" stroke="#E04E4B" fill="none" stroke-linecap="butt" d="M128 464l-21 7-31 6h-7l-1-1"/><path cx="68" cy="476" r="1.63" fill="#E04E4B" opacity=".7" d="M68 478.3l-1.15-3.45L70.3 476z"/></g><g class="key-Liberia"><circle cx="481" cy="248" r="1.1" fill="#923E8B" stroke="none" opacity=".7"/><path stroke-width=".43" opacity=".7" stroke="#923E8B" fill="none" stroke-linecap="butt" d="M481 248l-29 11 82 46-163 40 1-23"/><path cx="372" cy="322" r="1.63" fill="#923E8B" opacity=".7" d="M370.3 323.56l1.77-3.19 1.49 3.33z"/></g><g class="key-Central-African-Republic"><circle cx="647" cy="235" r="1.1" fill="#923E8B" stroke="none" opacity=".7"/><path stroke-width=".43" opacity=".7" stroke="#923E8B" fill="none" stroke-linecap="butt" d="M647 235l-54 3-72 18 53 10-8-25"/><path cx="566" cy="241" r="1.63" fill="#923E8B" opacity=".7" d="M564.94 243.05l.56-3.6 2.55 2.6z"/></g><g class="key-Mauritania"><circle cx="360" cy="299" r="1.1" fill="#923E8B" stroke="none" opacity=".7"/><path stroke-width=".43" opacity=".7" stroke="#923E8B" fill="none" stroke-linecap="butt" d="M360 299l-157 31-67 52-34 8-1-16"/><path cx="101" cy="374" r="1.63" fill="#923E8B" opacity=".7" d="M99.47 375.73l1.43-3.36 1.83 3.16z"/></g><g class="key-Croatia"><circle cx="61" cy="471" r="1.1" fill="#4C5C78" stroke="none" opacity=".7"/><path stroke-width=".43" opacity=".7" stroke="#4C5C78" fill="none" stroke-linecap="butt" d="M61 471l-1 6h5"/><path cx="65" cy="477" r="1.63" fill="#4C5C78" opacity=".7" d="M63.37 475.37l3.26 1.63-3.26 1.63z"/></g><g class="key-Panama"><circle cx="199" cy="395" r="1.1" fill="#E04E4B" stroke="none" opacity=".7"/><path stroke-width=".43" opacity=".7" stroke="#E04E4B" fill="none" stroke-linecap="butt" d="M199 395l-53 6-49 26-21 28 2 1"/><path cx="78" cy="456" r="1.63" fill="#E04E4B" opacity=".7" d="M77.27 453.81l2.19 2.92H75.8z"/></g><g class="key-Moldova"><circle cx="306" cy="425" r="1.1" fill="#4C5C78" stroke="none" opacity=".7"/><path stroke-width=".42" opacity=".7" stroke="#4C5C78" fill="none" stroke-linecap="butt" d="M306 425L69 442l-8 14v8"/><path cx="61" cy="464" r="1.62" fill="#4C5C78" opacity=".7" d="M62.62 462.38L61 465.62l-1.62-3.24z"/></g><g class="key-Georgia"><circle cx="195" cy="425" r="1.1" fill="#2D8587" stroke="none" opacity=".7"/><path stroke-width=".42" opacity=".7" stroke="#2D8587" fill="none" stroke-linecap="butt" d="M195 425l-64 36H87l8 3"/><path cx="95" cy="464" r="1.62" fill="#2D8587" opacity=".7" d="M94.05 461.91l2.47 2.66-3.6.38z"/></g><g class="key-Uruguay"><circle cx="64" cy="452" r="1.1" fill="#932834" stroke="none" opacity=".7"/><path stroke-width=".42" opacity=".7" stroke="#932834" fill="none" stroke-linecap="butt" d="M64 452v12l-2 5-1 5"/><path cx="61" cy="474" r="1.62" fill="#932834" opacity=".7" d="M62.9 472.73l-2.22 2.86-.95-3.5z"/></g><g class="key-Bosnia-and-Herzegovina"><circle cx="63" cy="454" r="1.1" fill="#4C5C78" stroke="none" opacity=".7"/><path stroke-width=".42" opacity=".7" stroke="#4C5C78" fill="none" stroke-linecap="butt" d="M63 454l-2 15v8"/><path cx="61" cy="477" r="1.62" fill="#4C5C78" opacity=".7" d="M62.62 475.38L61 478.62l-1.62-3.24z"/></g><g class="key-Mongolia"><circle cx="152" cy="328" r="1.1" fill="#2D8587" stroke="none" opacity=".7"/><path stroke-width=".42" opacity=".7" stroke="#2D8587" fill="none" stroke-linecap="butt" d="M152 328l46 5-131 65-3 34v2"/><path cx="64" cy="434" r="1.62" fill="#2D8587" opacity=".7" d="M65.62 432.38L64 435.62l-1.62-3.24z"/></g><g class="key-Armenia"><circle cx="155" cy="414" r="1.1" fill="#2D8587" stroke="none" opacity=".7"/><path stroke-width=".42" opacity=".7" stroke="#2D8587" fill="none" stroke-linecap="butt" d="M155 414l-88 29 1 15-2 6"/><path cx="66" cy="464" r="1.62" fill="#2D8587" opacity=".7" d="M68.05 462.98l-2.56 2.56-.51-3.59z"/></g><g class="key-Jamaica"><circle cx="125" cy="439" r="1.1" fill="#E04E4B" stroke="none" opacity=".7"/><path stroke-width=".42" opacity=".7" stroke="#E04E4B" fill="none" stroke-linecap="butt" d="M125 439l-44 20-10 6 2-2v-1"/><path cx="73" cy="462" r="1.62" fill="#E04E4B" opacity=".7" d="M71.38 463.62l1.62-3.24 1.62 3.24z"/></g><g class="key-Lithuania"><circle cx="62" cy="476" r="1.1" fill="#4C5C78" stroke="none" opacity=".7"/><path stroke-width=".42" opacity=".7" stroke="#4C5C78" fill="none" stroke-linecap="butt" d="M62 476l-1 1h8"/><path cx="69" cy="477" r="1.62" fill="#4C5C78" opacity=".7" d="M67.38 475.38l3.24 1.62-3.24 1.62z"/></g><g class="key-Albania"><circle cx="111" cy="398" r="1.1" fill="#4C5C78" stroke="none" opacity=".7"/><path stroke-width=".42" opacity=".7" stroke="#4C5C78" fill="none" stroke-linecap="butt" d="M111 398l-33-3-16 21 4 26 3 4"/><path cx="69" cy="446" r="1.62" fill="#4C5C78" opacity=".7" d="M69.32 443.73l.65 3.57-3.24-1.62z"/></g><g class="key-Namibia"><circle cx="411" cy="319" r="1.1" fill="#923E8B" stroke="none" opacity=".7"/><path stroke-width=".42" opacity=".7" stroke="#923E8B" fill="none" stroke-linecap="butt" d="M411 319l-80 17-98 15-74-9 5 29"/><path cx="164" cy="371" r="1.62" fill="#923E8B" opacity=".7" d="M165.32 369.13l-1.04 3.47-2.15-2.92z"/></g><g class="key-Gambia"><circle cx="543" cy="331" r="1.1" fill="#923E8B" stroke="none" opacity=".7"/><path stroke-width=".42" opacity=".7" stroke="#923E8B" fill="none" stroke-linecap="butt" d="M543 331l-144 29-99 17-165 19-4-12"/><path cx="131" cy="384" r="1.62" fill="#923E8B" opacity=".7" d="M129.98 386.05l.5-3.59 2.57 2.56z"/></g><g class="key-Botswana"><circle cx="284" cy="337" r="1.1" fill="#923E8B" stroke="none" opacity=".7"/><path stroke-width=".42" opacity=".7" stroke="#923E8B" fill="none" stroke-linecap="butt" d="M284 337l-26-4-87 11-10 41-3-7"/><path cx="158" cy="378" r="1.62" fill="#923E8B" opacity=".7" d="M157.15 380.13l.21-3.62 2.77 2.34z"/></g><g class="key-Lesotho"><circle cx="402" cy="370" r="1.1" fill="#923E8B" stroke="none" opacity=".7"/><path stroke-width=".42" opacity=".7" stroke="#923E8B" fill="none" stroke-linecap="butt" d="M402 370l73-36-105 25-117 27-3-7"/><path cx="250" cy="379" r="1.62" fill="#923E8B" opacity=".7" d="M249.15 381.13l.21-3.62 2.77 2.34z"/></g><g class="key-North-Macedonia"><circle cx="97" cy="463" r="1.1" fill="#4C5C78" stroke="none" opacity=".7"/><path stroke-width=".42" opacity=".7" stroke="#4C5C78" fill="none" stroke-linecap="butt" d="M97 463l-32 8 26 2 1 3"/><path cx="92" cy="476" r="1.62" fill="#4C5C78" opacity=".7" d="M93.02 473.95l-.5 3.59-2.57-2.56z"/></g><g class="key-Gabon"><circle cx="99" cy="395" r="1.1" fill="#923E8B" stroke="none" opacity=".7"/><path stroke-width=".42" opacity=".7" stroke="#923E8B" fill="none" stroke-linecap="butt" d="M99 395l10 13 10 15-34 18-1-9"/><path cx="84" cy="432" r="1.62" fill="#923E8B" opacity=".7" d="M82.57 433.79l1.25-3.4 1.97 3.04z"/></g><g class="key-Latvia"><circle cx="69" cy="469" r="1.1" fill="#4C5C78" stroke="none" opacity=".7"/><path stroke-width=".42" opacity=".7" stroke="#4C5C78" fill="none" stroke-linecap="butt" d="M69 469l-9 8h5"/><path cx="65" cy="477" r="1.62" fill="#4C5C78" opacity=".7" d="M63.38 475.38l3.24 1.62-3.24 1.62z"/></g><g class="key-Guinea__002dBissau"><circle cx="389" cy="271" r="1.1" fill="#923E8B" stroke="none" opacity=".7"/><path stroke-width=".42" opacity=".7" stroke="#923E8B" fill="none" stroke-linecap="butt" d="M389 271l47 6 82 62 2 23-11-16"/><path cx="509" cy="346" r="1.62" fill="#923E8B" opacity=".7" d="M508.58 348.25l-.5-3.58 3.17 1.75z"/></g><g class="key-Trinidad-and-Tobago"><circle cx="83" cy="432" r="1.1" fill="#E04E4B" stroke="none" opacity=".7"/><path stroke-width=".42" opacity=".7" stroke="#E04E4B" fill="none" stroke-linecap="butt" d="M83 432l-16 8-5 9v19"/><path cx="62" cy="468" r="1.62" fill="#E04E4B" opacity=".7" d="M63.62 466.38L62 469.62l-1.62-3.24z"/></g><g class="key-Estonia"><circle cx="69" cy="476" r="1.1" fill="#4C5C78" stroke="none" opacity=".7"/><path stroke-width=".41" opacity=".7" stroke="#4C5C78" fill="none" stroke-linecap="butt" d="M69 476l-6 1h1"/><path cx="64" cy="477" r="1.61" fill="#4C5C78" opacity=".7" d="M62.39 475.39l3.22 1.61-3.22 1.61z"/></g><g class="key-Mauritius"><circle cx="85" cy="413" r="1.1" fill="#923E8B" stroke="none" opacity=".7"/><path stroke-width=".41" opacity=".7" stroke="#923E8B" fill="none" stroke-linecap="butt" d="M85 413l-17 7-5 7v8h-1"/><path cx="62" cy="435" r="1.61" fill="#923E8B" opacity=".7" d="M63.61 436.61L60.39 435l3.22-1.61z"/></g><g class="key-Timor"><circle cx="361" cy="262" r="1.1" fill="#2D8587" stroke="none" opacity=".7"/><path stroke-width=".41" opacity=".7" stroke="#2D8587" fill="none" stroke-linecap="butt" d="M361 262l-145 65h-5"/><path cx="211" cy="327" r="1.61" fill="#2D8587" opacity=".7" d="M212.61 328.61l-3.22-1.61 3.22-1.61z"/></g><g class="key-Eswatini"><circle cx="639" cy="376" r="1.1" fill="#923E8B" stroke="none" opacity=".7"/><path stroke-width=".41" opacity=".7" stroke="#923E8B" fill="none" stroke-linecap="butt" d="M639 376l-227-32-45 5-102 30-5 15"/><path cx="260" cy="394" r="1.61" fill="#923E8B" opacity=".7" d="M262.04 392.98l-2.55 2.55-.5-3.57z"/></g><g class="key-Djibouti"><circle cx="122" cy="189" r="1.1" fill="#923E8B" stroke="none" opacity=".7"/><path stroke-width=".41" opacity=".7" stroke="#923E8B" fill="none" stroke-linecap="butt" d="M122 189l78 65-10 65-4 16-7 7"/><path cx="179" cy="342" r="1.61" fill="#923E8B" opacity=".7" d="M181.28 342l-3.42 1.14 1.14-3.42z"/></g><g class="key-Fiji"><circle cx="93" cy="443" r="1.1" fill="#A8633C" stroke="none" opacity=".7"/><path stroke-width=".41" opacity=".7" stroke="#A8633C" fill="none" stroke-linecap="butt" d="M93 443l-14 8-9 7-8 1v2"/><path cx="62" cy="461" r="1.61" fill="#A8633C" opacity=".7" d="M63.61 459.39L62 462.61l-1.61-3.22z"/></g><g class="key-Guyana"><circle cx="273" cy="379" r="1.1" fill="#932834" stroke="none" opacity=".7"/><path stroke-width=".41" opacity=".7" stroke="#932834" fill="none" stroke-linecap="butt" d="M273 379l-132 27-15 10-19 13-2 4"/><path cx="105" cy="433" r="1.61" fill="#932834" opacity=".7" d="M107.16 432.28l-2.88 2.16v-3.6z"/></g><g class="key-Montenegro"><circle cx="62" cy="477" r="1.1" fill="#4C5C78" stroke="none" opacity=".7"/><path stroke-width=".41" opacity=".7" stroke="#4C5C78" fill="none" stroke-linecap="butt" d="M62 477h16"/><path cx="78" cy="477" r="1.61" fill="#4C5C78" opacity=".7" d="M76.39 475.39l3.22 1.61-3.22 1.61z"/></g><g class="key-Suriname"><circle cx="210" cy="413" r="1.1" fill="#932834" stroke="none" opacity=".7"/><path stroke-width=".41" opacity=".7" stroke="#932834" fill="none" stroke-linecap="butt" d="M210 413l14 5-28 25v9"/><path cx="196" cy="452" r="1.61" fill="#932834" opacity=".7" d="M197.61 450.39l-1.61 3.22-1.61-3.22z"/></g><g class="backgroundLabels" fill="#333" font-weight="400"><text x="59.46" y="475.69" font-size="14.3" fill="#fff" stroke="#fff" stroke-linecap="round" stroke-linejoin="round" stroke-width=".25em">China</text><text x="59.46" y="475.69" font-size="14.3" fill="#2D8587">China</text><text x="100.12" y="338.1" font-size="14.11" fill="#fff" stroke="#fff" stroke-linecap="round" stroke-linejoin="round" stroke-width=".25em">India</text><text x="100.12" y="338.1" font-size="14.11" fill="#2D8587">India</text><text x="86.07" y="389.18" font-size="11.61" fill="#fff" stroke="#fff" stroke-linecap="round" stroke-linejoin="round" stroke-width=".25em">Indonesia</text><text x="86.07" y="389.18" font-size="11.61" fill="#2D8587">Indonesia</text><text x="307.73" y="372" font-size="11.44" fill="#fff" stroke="#fff" stroke-linecap="round" stroke-linejoin="round" stroke-width=".25em">Nigeria</text><text x="307.73" y="372" font-size="11.44" fill="#923E8B">Nigeria</text><text x="187.27" y="343.6" font-size="11.25" fill="#fff" stroke="#fff" stroke-linecap="round" stroke-linejoin="round" stroke-width=".25em">Ethiopia</text><text x="187.27" y="343.6" font-size="11.25" fill="#923E8B">Ethiopia</text><text x="84.12" y="424.1" font-size="11.22" fill="#fff" stroke="#fff" stroke-linecap="round" stroke-linejoin="round" stroke-width=".25em">Egypt</text><text x="84.12" y="424.1" font-size="11.22" fill="#923E8B">Egypt</text><text x="193" y="430" font-size="11.13" fill="#fff" stroke="#fff" stroke-linecap="round" stroke-linejoin="round" stroke-width=".25em">South Africa</text><text x="193" y="430" font-size="11.13" fill="#923E8B">South Africa</text><text x="404" y="350" font-size="11.13" fill="#fff" stroke="#fff" stroke-linecap="round" stroke-linejoin="round" stroke-width=".25em">Tanzania</text><text x="404" y="350" font-size="11.13" fill="#923E8B">Tanzania</text><text x="269.68" y="402.41" font-size="11.12" fill="#fff" stroke="#fff" stroke-linecap="round" stroke-linejoin="round" stroke-width=".25em">Kenya</text><text x="269.68" y="402.41" font-size="11.12" fill="#923E8B">Kenya</text><text x="63" y="449" font-size="11.1" fill="#fff" stroke="#fff" stroke-linecap="round" stroke-linejoin="round" stroke-width=".25em">Algeria</text><text x="63" y="449" font-size="11.1" fill="#923E8B">Algeria</text><text x="350.21" y="334.15" font-size="11.09" fill="#fff" stroke="#fff" stroke-linecap="round" stroke-linejoin="round" stroke-width=".25em">Uganda</text><text x="350.21" y="334.15" font-size="11.09" fill="#923E8B">Uganda</text><text x="132" y="316.52" font-size="11.09" fill="#fff" stroke="#fff" stroke-linecap="round" stroke-linejoin="round" stroke-width=".25em">Sudan</text><text x="132" y="316.52" font-size="11.09" fill="#923E8B">Sudan</text><text x="438.96" y="317.36" font-size="11.06" fill="#fff" stroke="#fff" stroke-linecap="round" stroke-linejoin="round" stroke-width=".25em">Yemen</text><text x="438.96" y="317.36" font-size="11.06" fill="#2D8587">Yemen</text><text x="541.98" y="301.1" font-size="11.06" fill="#fff" stroke="#fff" stroke-linecap="round" stroke-linejoin="round" stroke-width=".25em">Madagascar</text><text x="541.98" y="301.1" font-size="11.06" fill="#923E8B">Madagascar</text><text x="172.4" y="400.17" font-size="11.06" fill="#fff" stroke="#fff" stroke-linecap="round" stroke-linejoin="round" stroke-width=".25em">Cameroon</text><text x="172.4" y="400.17" font-size="11.06" fill="#923E8B">Cameroon</text><text x="172.26" y="365.71" font-size="11.06" fill="#fff" stroke="#fff" stroke-linecap="round" stroke-linejoin="round" stroke-width=".25em">Cote d&apos;Ivoire</text><text x="172.26" y="365.71" font-size="11.06" fill="#923E8B">Cote d&apos;Ivoire</text><text x="502.02" y="361.14" font-size="11.04" fill="#fff" stroke="#fff" stroke-linecap="round" stroke-linejoin="round" stroke-width=".25em">Malawi</text><text x="502.02" y="361.14" font-size="11.04" fill="#923E8B">Malawi</text><text x="350.92" y="285.41" font-size="11.03" fill="#fff" stroke="#fff" stroke-linecap="round" stroke-linejoin="round" stroke-width=".25em">Chad</text><text x="350.92" y="285.41" font-size="11.03" fill="#923E8B">Chad</text><text x="361.28" y="375.61" font-size="11.02" fill="#fff" stroke="#fff" stroke-linecap="round" stroke-linejoin="round" stroke-width=".25em">Benin</text><text x="361.28" y="375.61" font-size="11.02" fill="#923E8B">Benin</text><text x="77.52" y="365.85" font-size="11.02" fill="#fff" stroke="#fff" stroke-linecap="round" stroke-linejoin="round" stroke-width=".25em">Tajikistan</text><text x="77.52" y="365.85" font-size="11.02" fill="#2D8587">Tajikistan</text><text x="402.87" y="378.63" font-size="11.01" fill="#fff" stroke="#fff" stroke-linecap="round" stroke-linejoin="round" stroke-width=".25em">Congo</text><text x="402.87" y="378.63" font-size="11.01" fill="#923E8B">Congo</text><text x="372.22" y="317" font-size="11.01" fill="#fff" stroke="#fff" stroke-linecap="round" stroke-linejoin="round" stroke-width=".25em">Liberia</text><text x="372.22" y="317" font-size="11.01" fill="#923E8B">Liberia</text><text x="445.46" y="236.24" font-size="11.01" fill="#fff" stroke="#fff" stroke-linecap="round" stroke-linejoin="round" stroke-width=".25em">Central African Republic</text><text x="445.46" y="236.24" font-size="11.01" fill="#923E8B">Central African Republic</text><text x="196" y="462.5" font-size="11" fill="#fff" stroke="#fff" stroke-linecap="round" stroke-linejoin="round" stroke-width=".25em">Suriname</text><text x="196" y="462.5" font-size="11" fill="#932834">Suriname</text></g></g><g class="ScatterColorLegend clickable" cursor="pointer"><g class="legendMark"><path fill="#923E8B" d="M738.09 140.8h9v9h-9z"/><text font-size="12.6" x="752.1" y="149.1"><tspan x="752.09" y="149.08">Africa</tspan></text></g><g class="legendMark"><path fill="#2D8587" d="M738.09 158.4h9v9h-9z"/><text font-size="12.6" x="752.1" y="166.7"><tspan x="752.09" y="166.68">Asia</tspan></text></g><g class="legendMark"><path fill="#4C5C78" d="M738.09 176h9v9h-9z"/><text font-size="12.6" x="752.1" y="184.3"><tspan x="752.09" y="184.28">Europe</tspan></text></g><g class="legendMark"><path fill="#E04E4B" d="M738.09 193.6h9v9h-9z"/><text font-size="12.6" x="752.1" y="201.9"><tspan x="752.09" y="201.88">North America</tspan></text></g><g class="legendMark"><path fill="#A8633C" d="M738.09 211.2h9v9h-9z"/><text font-size="12.6" x="752.1" y="219.5"><tspan x="752.09" y="219.48">Oceania</tspan></text></g><g class="legendMark"><path fill="#932834" d="M738.09 228.8h9v9h-9z"/><text font-size="12.6" x="752.1" y="237.1"><tspan x="752.09" y="237.08">South America</tspan></text></g></g><path stroke="#ccc" d="M738.09 246.6H830"/><g class="clickable"><g class="ConnectedScatterLegend"><text font-size="12.6" x="738.1" y="265.7" fill="#333"><tspan x="738.09" y="265.68">1992</tspan></text><text font-size="12.6" x="806.8" y="265.7" fill="#333"><tspan x="806.78" y="265.68">2017</tspan></text><path stroke="#666" stroke-width="1" d="M771.32 261.4h30.46"/><circle cx="771.32" cy="261.4" r="2" fill="#666" stroke="#ccc" stroke-width=".2"/><circle cx="781.47" cy="261.4" r="2" fill="#666" stroke="#ccc" stroke-width=".2"/><circle cx="791.62" cy="261.4" r="2" fill="#666" stroke="#ccc" stroke-width=".2"/><path cx="801.78" cy="261.4" r="3" fill="#666" stroke="#ccc" stroke-width=".2" d="M798.78 258.4l6 3-6 3z"/></g></g></g><g class="SourcesFooter" fill="#777"><g fill="#777"><text font-size="12.6" x="15" y="582.5"><tspan x="15" y="582.48">Source: Global Hunger Index - IFPRI (2018), PovCal (2021)</tspan></text></g><text font-size="12.6" x="796.4" y="582.5"><tspan x="796.44" y="582.48"><a class="cclogo" href="http://creativecommons.org/licenses/by/4.0/deed.en_US" target="_blank" fill="#777">CC BY</a></tspan></text></g></svg>