<svg xmlns="http://www.w3.org/2000/svg" version="1.1" style="background-color:#fff;-webkit-font-smoothing:antialiased" width="850" height="600" viewBox="0 0 850 600" font-family="Lato,'Helvetica Neue',Helvetica,Arial,sans-serif" font-size="18" text-rendering="geometricPrecision"><g class="HeaderView"><g transform="matrix(.95 0 0 .95 739 15)"><svg className="coreLogo" width="102" height="37" viewBox="0 0 102 37" fill="none" xmlns="http://www.w3.org/2000/svg"><path d="M47 0H0v37h47V0z" fill="#EA4148"/><path d="M3.78 11.85c0-3.55 2.67-5.6 5.68-5.6a4.63 4.63 0 013.09 1.1l-1.7 2.36c-.31-.32-.74-.5-1.18-.52-1.36 0-2.16 1.03-2.16 2.66 0 1.62.89 2.65 2.03 2.65a2.93 2.93 0 001.7-.69l1.4 2.4a5.29 5.29 0 01-3.52 1.24c-3 0-5.34-2.05-5.34-5.6z" fill="#fff"/><path d="M18.85 11.85c0-1.63-.42-2.66-1.52-2.66s-1.52 1.03-1.52 2.66c0 1.62.42 2.65 1.52 2.65s1.52-1.03 1.52-2.65zm-6.77 0c0-3.55 2.54-5.6 5.25-5.6 2.7 0 5.25 2.05 5.25 5.6s-2.54 5.6-5.25 5.6-5.25-2.05-5.25-5.6M23.34 6.5h2.97l.25 1.84h.09c.78-1.46 1.97-2.1 3-2.1.45-.02.9.05 1.32.22l-.6 3.16c-.38-.1-.78-.16-1.18-.17-.76 0-1.7.47-2.2 1.8v5.94h-3.65V6.5zm13.64 4.06c0-.81-.34-1.54-1.44-1.54-.8 0-1.49.47-1.7 1.54h3.14zm-6.6 1.29c0-3.47 2.49-5.6 5.07-5.6 3.13 0 4.62 2.3 4.62 5.17 0 .52-.05 1.03-.15 1.54h-6.04c.34 1.28 1.27 1.71 2.46 1.71a4.3 4.3 0 002.16-.64l1.18 2.18a7.08 7.08 0 01-3.85 1.24c-3.09 0-5.46-2.05-5.46-5.6" fill="#fff"/><path d="M10.43 23.87c0-.81-.34-1.54-1.44-1.54-.8 0-1.48.47-1.69 1.54h3.13zm-6.6 1.28c0-3.46 2.5-5.6 5.08-5.6 3.13 0 4.61 2.3 4.61 5.18 0 .51-.05 1.03-.15 1.54H7.34c.34 1.28 1.27 1.7 2.46 1.7.76-.01 1.5-.23 2.16-.63l1.18 2.18a7.08 7.08 0 01-3.85 1.24c-3.1 0-5.46-2.06-5.46-5.6m10.07-.01c0-3.55 2.67-5.6 5.68-5.6a4.63 4.63 0 013.09 1.11l-1.7 2.35c-.32-.31-.74-.5-1.18-.51-1.36 0-2.16 1.03-2.16 2.65 0 1.63.89 2.66 2.03 2.66a2.93 2.93 0 001.7-.69l1.39 2.4a5.29 5.29 0 01-3.51 1.24c-3 0-5.34-2.06-5.34-5.6" fill="#1A1818"/><path d="M28.97 25.15c0-1.62-.42-2.65-1.52-2.65s-1.52 1.03-1.52 2.65c0 1.63.42 2.66 1.52 2.66s1.52-1.03 1.52-2.66zm-6.77 0c0-3.55 2.54-5.6 5.25-5.6 2.7 0 5.25 2.05 5.25 5.6s-2.54 5.6-5.25 5.6-5.25-2.04-5.25-5.6m11.34-5.35h2.97l.25 1.29h.09a4.76 4.76 0 013.34-1.54c2.33 0 3.3 1.71 3.3 4.36v6.6h-3.64v-6.13c0-1.37-.34-1.7-1.06-1.7-.67 0-1.05.3-1.6.8v7.02h-3.65V19.8z" fill="#1A1818"/><path fill="#fff" d="M48 0h54v37H48z"/><path d="M48 0h53.93v33H48V0z" fill="#002147"/><path d="M58.42 10.86c0 .61-.1 1.18-.3 1.7a3.83 3.83 0 01-2.15 2.21c-.5.21-1.07.32-1.7.32-.6 0-1.17-.1-1.68-.32a3.9 3.9 0 01-2.15-2.21c-.2-.52-.3-1.09-.3-1.7 0-.61.1-1.18.3-1.7a3.93 3.93 0 012.15-2.22 4.38 4.38 0 011.69-.31c.62 0 1.18.1 1.69.31a3.79 3.79 0 012.15 2.22c.2.52.3 1.09.3 1.7zm-1.38 0c0-.48-.06-.9-.2-1.28A2.38 2.38 0 0055.43 8a2.97 2.97 0 00-1.14-.21c-.42 0-.8.07-1.15.21-.34.14-.63.35-.87.61a2.8 2.8 0 00-.56.97c-.13.38-.2.8-.2 1.28s.07.9.2 1.29a2.46 2.46 0 001.43 1.57c.35.14.73.2 1.15.2.42 0 .8-.06 1.15-.2a2.4 2.4 0 001.42-1.57c.13-.38.2-.81.2-1.29zm7.14-1.72V15h-.74c-.17 0-.27-.08-.32-.24l-.1-.54a3.42 3.42 0 01-.81.63 2.3 2.3 0 01-1.06.24c-.32 0-.6-.05-.85-.16a1.72 1.72 0 01-1-1.15 3.1 3.1 0 01-.12-.91V9.14h1.24v3.73c0 .4.09.7.27.92.18.22.46.32.83.32.27 0 .53-.06.76-.18.24-.13.46-.3.67-.52V9.13h1.23zm2.33 1.08c.18-.37.4-.66.66-.87.27-.22.58-.32.94-.32a1.34 1.34 0 01.66.17l-.09.93a.26.26 0 01-.07.14.2.2 0 01-.13.03c-.06 0-.14 0-.25-.03a1.62 1.62 0 00-.8.04c-.13.05-.25.13-.35.22-.1.1-.2.21-.28.35-.08.14-.15.3-.22.47V15h-1.24V9.13h.72c.13 0 .22.03.27.08.05.05.08.13.1.25l.08.76zm16-3.5L79.94 15h-1.21l-1.95-5.95a4.7 4.7 0 01-.12-.46 3.32 3.32 0 01-.13.46L74.57 15h-1.22l-2.57-8.28h1.13c.11 0 .2.03.28.09.08.05.14.12.16.22l1.56 5.3a6.11 6.11 0 01.16.8 10 10 0 01.2-.8l1.78-5.3a.48.48 0 01.16-.21.4.4 0 01.28-.1h.4c.11 0 .21.03.28.1.08.05.13.12.17.21l1.77 5.3.1.37.1.4a59.35 59.35 0 00.16-.76L81 7.03a.4.4 0 01.16-.22.49.49 0 01.3-.09h1.04zm2.41 2.32c.44 0 .83.07 1.18.22a2.49 2.49 0 011.47 1.55c.13.37.2.79.2 1.25 0 .47-.07.88-.2 1.26-.14.37-.33.69-.58.95a2.87 2.87 0 01-2.07.82c-.43 0-.83-.07-1.18-.22a2.55 2.55 0 01-1.47-1.55c-.14-.38-.2-.8-.2-1.26 0-.46.06-.88.2-1.25a2.55 2.55 0 011.47-1.55c.35-.15.75-.22 1.18-.22zm0 5.08c.53 0 .92-.18 1.18-.53.26-.36.4-.86.4-1.52s-.14-1.17-.4-1.53c-.26-.36-.65-.54-1.18-.54-.53 0-.93.18-1.2.54-.25.36-.38.87-.38 1.53s.13 1.16.39 1.52c.26.35.66.53 1.2.53zm4.86-3.9c.18-.37.4-.66.67-.87.26-.22.57-.32.93-.32a1.34 1.34 0 01.66.17l-.09.93a.26.26 0 01-.07.14.2.2 0 01-.13.03c-.06 0-.14 0-.25-.03a1.62 1.62 0 00-.8.04 1.29 1.29 0 00-.63.57c-.08.14-.15.3-.22.47V15H88.6V9.13h.72c.13 0 .22.03.27.08.05.05.08.13.1.25l.08.76zm4-3.73V15h-1.25V6.49h1.24zm4.91 4.09a1.45 1.45 0 00-1.24-.6c-.48 0-.86.18-1.13.54-.27.35-.4.87-.4 1.56 0 .37.02.67.08.93.07.25.15.46.27.62.11.16.25.28.42.35.16.08.35.11.56.11.31 0 .58-.07.8-.2.24-.14.45-.33.64-.58v-2.73zm1.24-4.09V15h-.75c-.16 0-.27-.08-.31-.24l-.11-.63c-.25.28-.53.52-.84.7-.31.17-.67.26-1.09.26a1.96 1.96 0 01-1.59-.78 2.73 2.73 0 01-.44-.94 4.86 4.86 0 01.01-2.5c.12-.37.3-.7.51-.96a2.3 2.3 0 011.85-.88c.34 0 .63.05.88.16.24.11.45.26.64.46V6.49h1.24zm-39.9 14.65V27h-1.24v-5.86h1.24zm.2-1.78c0 .12-.02.22-.06.32a.83.83 0 01-1.34.26.8.8 0 01-.24-.58c0-.11.02-.22.06-.32a.89.89 0 01.43-.43.76.76 0 01.64 0 .81.81 0 01.45.43c.04.1.06.2.06.32zm2.16 2.55a3.67 3.67 0 01.83-.63 2.32 2.32 0 011.9-.08c.24.11.45.26.61.46.17.2.3.43.38.7.09.28.13.58.13.9V27H65v-3.73c0-.4-.1-.7-.28-.92-.18-.22-.45-.33-.83-.33-.27 0-.53.06-.77.19-.23.13-.45.3-.66.52V27h-1.23v-5.86h.74c.17 0 .28.07.33.23l.08.54zm14.96.95c0 .61-.1 1.17-.3 1.68a3.78 3.78 0 01-2.15 2.16c-.5.2-1.07.3-1.69.3H70.1v-8.28h3.12c.62 0 1.19.1 1.7.3a3.71 3.71 0 012.14 2.16c.2.5.3 1.07.3 1.68zm-1.37 0c0-.48-.07-.9-.2-1.28a2.6 2.6 0 00-.55-.96 2.35 2.35 0 00-.87-.6 2.97 2.97 0 00-1.15-.21h-1.77v6.1h1.77c.43 0 .81-.07 1.15-.2a2.42 2.42 0 001.42-1.56c.13-.38.2-.81.2-1.29zm5.27 1.58a7.5 7.5 0 00-1.12.1c-.3.06-.55.13-.73.22a.97.97 0 00-.41.3.68.68 0 00-.12.4c0 .13.02.25.06.35.05.1.1.18.18.24.08.06.18.1.28.14a1.78 1.78 0 001.18-.14c.23-.12.46-.3.68-.53v-1.08zm-3.28-2.49a3.36 3.36 0 012.37-.92c.34 0 .63.05.9.16a1.83 1.83 0 011.06 1.18c.1.27.15.57.15.9V27h-.55a.56.56 0 01-.27-.05.42.42 0 01-.16-.23l-.12-.47-.44.36c-.15.1-.3.2-.46.26a2.77 2.77 0 01-1.75.12c-.2-.06-.38-.16-.53-.29a1.46 1.46 0 01-.48-1.18c0-.23.06-.45.18-.66.12-.22.32-.41.6-.58a4 4 0 011.1-.43 8.03 8.03 0 011.68-.19v-.39c0-.42-.1-.73-.27-.94-.18-.2-.45-.3-.8-.3-.23-.01-.43.02-.6.08a6.05 6.05 0 00-.74.39.54.54 0 01-.28.08.38.38 0 01-.22-.06.6.6 0 01-.15-.17l-.22-.4zm7.38 5.14c-.48 0-.86-.13-1.12-.4-.26-.28-.4-.67-.4-1.17v-3.41h-.64a.27.27 0 01-.18-.07c-.05-.04-.07-.11-.07-.2v-.5l.95-.14.27-1.7a.31.31 0 01.1-.15c.04-.04.1-.06.18-.06h.63v1.93h1.63v.89h-1.63v3.33c0 .2.05.37.16.48.1.11.24.17.41.17a.79.79 0 00.43-.12 4 4 0 00.12-.08.2.2 0 01.11-.04c.07 0 .13.04.17.11l.37.6c-.2.18-.42.3-.68.4a2.5 2.5 0 01-.8.13zm5.11-2.65a7.5 7.5 0 00-1.11.1 3 3 0 00-.74.22.97.97 0 00-.4.3.68.68 0 00-.13.4c0 .13.02.25.06.35.05.1.11.18.19.24s.17.1.28.14a1.78 1.78 0 001.18-.14c.23-.12.45-.3.67-.53v-1.08zm-3.28-2.49a3.36 3.36 0 012.37-.92c.34 0 .64.05.9.16.27.11.49.26.66.46.18.2.32.44.41.72.1.27.14.57.14.9V27h-.55a.56.56 0 01-.27-.05c-.06-.04-.11-.11-.15-.23l-.12-.47-.45.36c-.14.1-.3.2-.45.26a2.77 2.77 0 01-1.75.12c-.2-.06-.38-.16-.53-.29a1.46 1.46 0 01-.49-1.18c0-.23.06-.45.18-.66.12-.22.32-.41.6-.58.28-.17.65-.31 1.1-.43a8.03 8.03 0 011.68-.19v-.39c0-.42-.09-.73-.27-.94-.18-.2-.44-.3-.8-.3a1.5 1.5 0 00-.59.08 6.09 6.09 0 00-.74.39.54.54 0 01-.29.08.38.38 0 01-.22-.06.6.6 0 01-.14-.17l-.23-.4z" fill="#fff"/><path fill="#D42B21" d="M48 32.65h54V37H48z"/></svg></g><a href="https://ourworldindata.org/grapher/growth-rates-of-consumption-investment-and-gdp-in-south-africa-19612016" target="_blank" rel="noopener" font-family="&quot;Playfair Display&quot;,Georgia,&quot;Times New Roman&quot;,serif"><text font-size="21.6" x="15" y="32.3" fill="#555"><tspan x="15" y="32.28">Growth rates of consumption, investment, and GDP in South Africa,</tspan><tspan x="15" y="53.88">1961 to 2016</tspan></text></a><text font-size="14.4" x="15" y="74.7" fill="#666"><tspan x="15" y="74.72">Unit 13 &apos;Economic fluctuations and unemployment’ Section 13.7 &apos;Why investment is volatile?&apos; in The CORE Team, The</tspan><tspan x="15" y="92">Economy. Available at: https://tinyco.re/13071911 [Figure 13.19b]</tspan></text></g><g class="LineChart"><defs><clipPath id="a"><path d="M47.91 101.2h840v441.6h-840z"/></clipPath></defs><g class="DualAxisView"><g class="HorizontalAxis"><path stroke="#999" d="M57.9 511.6v5M591.6 511.6v5M145.2 511.6v5M242.3 511.6v5M339.3 511.6v5M436.3 511.6v5"/><text x="57.91" y="532.8" fill="#666" text-anchor="start" font-size="16.2">1961</text><text x="591.56" y="532.8" fill="#666" text-anchor="end" font-size="16.2">2016</text><text x="145.2" y="532.8" fill="#666" text-anchor="middle" font-size="16.2">1970</text><text x="242.3" y="532.8" fill="#666" text-anchor="middle" font-size="16.2">1980</text><text x="339.3" y="532.8" fill="#666" text-anchor="middle" font-size="16.2">1990</text><text x="436.3" y="532.8" fill="#666" text-anchor="middle" font-size="16.2">2000</text></g><g class="VerticalAxis" text-anchor="end" fill="#666" font-size="16.2"><text x="52.91" y="474.2" dy=".32em">-15%</text><text x="52.91" y="421.8" dy=".32em">-10%</text><text x="52.91" y="369.5" dy=".32em">-5%</text><text x="52.91" y="317.1" dy=".32em">0%</text><text x="52.91" y="264.7" dy=".32em">5%</text><text x="52.91" y="212.4" dy=".32em">10%</text><text x="52.91" y="160" dy=".32em">15%</text></g><g class="AxisGridLines horizontalLines"><path stroke="#ddd" stroke-dasharray="3,2" d="M57.91 474.2h533.65M57.91 421.8h533.65M57.91 369.5h533.65"/><path stroke="#999" d="M57.91 317.1h533.65"/><path stroke="#ddd" stroke-dasharray="3,2" d="M57.91 264.7h533.65M57.91 212.4h533.65M57.91 160h533.65"/></g></g><g clip-path="url(#a)"><g class="LineLabels" cursor="default"><g class="legendMark"><text font-size="13.5" x="595.6" y="295.8" fill="#34983f"><tspan x="595.56" y="295.85">Growth rate of Private Final</tspan><tspan x="595.56" y="310.7">Consumption Expenditure (%)</tspan></text></g><g class="legendMark"><text font-size="13.5" x="595.6" y="325.9" fill="#000"><tspan x="595.56" y="325.95">Growth rate of GDP (%)</tspan></text></g><g class="legendMark"><text font-size="13.5" x="595.6" y="356.9" fill="#ed6c2d"><tspan x="595.56" y="356.85">Growth rate of Gross Fixed Capital</tspan><tspan x="595.56" y="371.7">Formation (%)</tspan></text></g></g><g class="Lines"><g><path stroke-linecap="round" stroke-linejoin="round" stroke="#ddd" d="M57.9 316.1l9.7 25.3 9.7-211.3 9.7-18.9 9.7 23.2 9.7 194.6 9.7-38.9 9.7-20.4 9.7-83.9 9.7-18.1 9.7 36.2 9.7 52 9.7 6.5 9.7-13.7 9.7-33.8 9.7 115.1 9.8 49.5 9.7-33.4 9.7-72.7 9.7-135.1 9.7 85 9.7 116.3 9.7 14.6 9.7-21.5 9.7 58 9.7 120.9 9.7-140.9 9.7-185.4 9.7 63.7 9.7 92.6 9.7 52.9 9.7-22.3 9.7-49.3 9.7-92.2 9.7-25.6 9.7 17.7 9.7 34.2 9.7 10.2 9.7 129.4 9.7-120 9.7 10.7 9.7-6.8 9.7-70.6 9.7-27.6 9.7 19.8 9.7-12.2 9.7-16.9 9.7 9.8 9.7 204.2 9.7-28.9 9.7-99 9.7 30.7 9.8-47.9 9.7 67.9 9.7-28.6 9.7 78.9" fill="none" stroke-width="1"/></g><g><path stroke-linecap="round" stroke-linejoin="round" stroke="#ddd" d="M57.9 294.6l9.7-10.1 9.7-35 9.7-18.2 9.7 48.2 9.7-11.3 9.7 1.9 9.7-30 9.7 4.1 9.7 4.3 9.7 19.3 9.7 4.5 9.7-34.6 9.7 24.5 9.7 16.9 9.7 21.5 9.8 25.6 9.7-26.3 9.7-8.7 9.7-64.1 9.7 13.5 9.7 54.5 9.7-9.5 9.7-16.6 9.7 84.3 9.7-37.9 9.7-38.7 9.7-15.2 9.7 26.9 9.7-1.4 9.7 35.5 9.7 9.5 9.7-34.7 9.7-22.2 9.7-20.1 9.7 15.3 9.7 12.7 9.7 15.8 9.7.1 9.7-25.1 9.7 6.7 9.7 3.4 9.7 3.5 9.7-35.7 9.7 1.2 9.7-27.7 9.7 23.6 9.7 55.6 9.7 39.8 9.7-68.3 9.7-12.7 9.7 15.1 9.8 17.9 9.7 12.3 9.7-10.3 9.7 11.6" fill="none" stroke-width="1"/></g><g><path stroke-linecap="round" stroke-linejoin="round" stroke="#ddd" d="M57.9 276.8l9.7-24.4 9.7-12.5L87 234l9.7 19 9.7 17.6 9.7-28.9 9.7 31.9 9.7-5.9 9.7-5.6 9.7 10.2 9.7 27.5 9.7-30.6 9.7-16.1 9.7 46.2 9.7-5.8 9.8 24.6 9.7-32.6 9.7-8.1 9.7-29.6L252 261l9.7 60.1 9.7 15.3 9.7-72.7 9.7 66.1 9.7-12.9 9.7-21.8 9.7-22 9.7 18.9 9.7 28.4 9.7 7.4 9.7 11.7 9.7-35.3 9.7-21 9.7 1.3 9.7-12.5 9.7 17.4 9.7 22.3 9.7-19.3 9.7-18.8 9.7 14.8 9.7-9.7 9.7 7.5 9.7-16.8 9.7-7.6 9.7-3.4 9.7 2.6 9.7 22.7 9.7 49.5 9.7-47.9 9.7-2.6 9.7 11.2 9.8-2.8 9.7 6.7 9.7 5.9 9.7 7.5" fill="none" stroke-width="1"/></g><g><path stroke="#ed6c2d" stroke-linecap="round" stroke-linejoin="round" d="M57.9 316.1l9.7 25.3 9.7-211.3 9.7-18.9 9.7 23.2 9.7 194.6 9.7-38.9 9.7-20.4 9.7-83.9 9.7-18.1 9.7 36.2 9.7 52 9.7 6.5 9.7-13.7 9.7-33.8 9.7 115.1 9.8 49.5 9.7-33.4 9.7-72.7 9.7-135.1 9.7 85 9.7 116.3 9.7 14.6 9.7-21.5 9.7 58 9.7 120.9 9.7-140.9 9.7-185.4 9.7 63.7 9.7 92.6 9.7 52.9 9.7-22.3 9.7-49.3 9.7-92.2 9.7-25.6 9.7 17.7 9.7 34.2 9.7 10.2 9.7 129.4 9.7-120 9.7 10.7 9.7-6.8 9.7-70.6 9.7-27.6 9.7 19.8 9.7-12.2 9.7-16.9 9.7 9.8 9.7 204.2 9.7-28.9 9.7-99 9.7 30.7 9.8-47.9 9.7 67.9 9.7-28.6 9.7 78.9" fill="none" stroke-width="1.5"/><g fill="#ed6c2d"><circle cx="57.9" cy="316.1" r="2"/><circle cx="67.6" cy="341.4" r="2"/><circle cx="77.3" cy="130.1" r="2"/><circle cx="87" cy="111.2" r="2"/><circle cx="96.7" cy="134.4" r="2"/><circle cx="106.4" cy="329" r="2"/><circle cx="116.1" cy="290.1" r="2"/><circle cx="125.8" cy="269.7" r="2"/><circle cx="135.5" cy="185.8" r="2"/><circle cx="145.2" cy="167.7" r="2"/><circle cx="154.9" cy="203.9" r="2"/><circle cx="164.6" cy="255.9" r="2"/><circle cx="174.3" cy="262.4" r="2"/><circle cx="184" cy="248.7" r="2"/><circle cx="193.7" cy="214.9" r="2"/><circle cx="203.4" cy="330" r="2"/><circle cx="213.2" cy="379.5" r="2"/><circle cx="222.9" cy="346.1" r="2"/><circle cx="232.6" cy="273.4" r="2"/><circle cx="242.3" cy="138.3" r="2"/><circle cx="252" cy="223.3" r="2"/><circle cx="261.7" cy="339.6" r="2"/><circle cx="271.4" cy="354.2" r="2"/><circle cx="281.1" cy="332.7" r="2"/><circle cx="290.8" cy="390.7" r="2"/><circle cx="300.5" cy="511.6" r="2"/><circle cx="310.2" cy="370.7" r="2"/><circle cx="319.9" cy="185.3" r="2"/><circle cx="329.6" cy="249" r="2"/><circle cx="339.3" cy="341.6" r="2"/><circle cx="349" cy="394.5" r="2"/><circle cx="358.7" cy="372.2" r="2"/><circle cx="368.4" cy="322.9" r="2"/><circle cx="378.1" cy="230.7" r="2"/><circle cx="387.8" cy="205.1" r="2"/><circle cx="397.5" cy="222.8" r="2"/><circle cx="407.2" cy="257" r="2"/><circle cx="416.9" cy="267.2" r="2"/><circle cx="426.6" cy="396.6" r="2"/><circle cx="436.3" cy="276.6" r="2"/><circle cx="446" cy="287.3" r="2"/><circle cx="455.7" cy="280.5" r="2"/><circle cx="465.4" cy="209.9" r="2"/><circle cx="475.1" cy="182.3" r="2"/><circle cx="484.8" cy="202.1" r="2"/><circle cx="494.5" cy="189.9" r="2"/><circle cx="504.2" cy="173" r="2"/><circle cx="513.9" cy="182.8" r="2"/><circle cx="523.6" cy="387" r="2"/><circle cx="533.3" cy="358.1" r="2"/><circle cx="543" cy="259.1" r="2"/><circle cx="552.7" cy="289.8" r="2"/><circle cx="562.5" cy="241.9" r="2"/><circle cx="572.2" cy="309.8" r="2"/><circle cx="581.9" cy="281.2" r="2"/><circle cx="591.6" cy="360.1" r="2"/></g></g><g><path stroke="#34983f" stroke-linecap="round" stroke-linejoin="round" d="M57.9 294.6l9.7-10.1 9.7-35 9.7-18.2 9.7 48.2 9.7-11.3 9.7 1.9 9.7-30 9.7 4.1 9.7 4.3 9.7 19.3 9.7 4.5 9.7-34.6 9.7 24.5 9.7 16.9 9.7 21.5 9.8 25.6 9.7-26.3 9.7-8.7 9.7-64.1 9.7 13.5 9.7 54.5 9.7-9.5 9.7-16.6 9.7 84.3 9.7-37.9 9.7-38.7 9.7-15.2 9.7 26.9 9.7-1.4 9.7 35.5 9.7 9.5 9.7-34.7 9.7-22.2 9.7-20.1 9.7 15.3 9.7 12.7 9.7 15.8 9.7.1 9.7-25.1 9.7 6.7 9.7 3.4 9.7 3.5 9.7-35.7 9.7 1.2 9.7-27.7 9.7 23.6 9.7 55.6 9.7 39.8 9.7-68.3 9.7-12.7 9.7 15.1 9.8 17.9 9.7 12.3 9.7-10.3 9.7 11.6" fill="none" stroke-width="1.5"/><g fill="#34983f"><circle cx="57.9" cy="294.6" r="2"/><circle cx="67.6" cy="284.5" r="2"/><circle cx="77.3" cy="249.5" r="2"/><circle cx="87" cy="231.3" r="2"/><circle cx="96.7" cy="279.5" r="2"/><circle cx="106.4" cy="268.2" r="2"/><circle cx="116.1" cy="270.1" r="2"/><circle cx="125.8" cy="240.1" r="2"/><circle cx="135.5" cy="244.2" r="2"/><circle cx="145.2" cy="248.5" r="2"/><circle cx="154.9" cy="267.8" r="2"/><circle cx="164.6" cy="272.3" r="2"/><circle cx="174.3" cy="237.7" r="2"/><circle cx="184" cy="262.2" r="2"/><circle cx="193.7" cy="279.1" r="2"/><circle cx="203.4" cy="300.6" r="2"/><circle cx="213.2" cy="326.2" r="2"/><circle cx="222.9" cy="299.9" r="2"/><circle cx="232.6" cy="291.2" r="2"/><circle cx="242.3" cy="227.1" r="2"/><circle cx="252" cy="240.6" r="2"/><circle cx="261.7" cy="295.1" r="2"/><circle cx="271.4" cy="285.6" r="2"/><circle cx="281.1" cy="269" r="2"/><circle cx="290.8" cy="353.3" r="2"/><circle cx="300.5" cy="315.4" r="2"/><circle cx="310.2" cy="276.7" r="2"/><circle cx="319.9" cy="261.5" r="2"/><circle cx="329.6" cy="288.4" r="2"/><circle cx="339.3" cy="287" r="2"/><circle cx="349" cy="322.5" r="2"/><circle cx="358.7" cy="332" r="2"/><circle cx="368.4" cy="297.3" r="2"/><circle cx="378.1" cy="275.1" r="2"/><circle cx="387.8" cy="255" r="2"/><circle cx="397.5" cy="270.3" r="2"/><circle cx="407.2" cy="283" r="2"/><circle cx="416.9" cy="298.8" r="2"/><circle cx="426.6" cy="298.9" r="2"/><circle cx="436.3" cy="273.8" r="2"/><circle cx="446" cy="280.5" r="2"/><circle cx="455.7" cy="283.9" r="2"/><circle cx="465.4" cy="287.4" r="2"/><circle cx="475.1" cy="251.7" r="2"/><circle cx="484.8" cy="252.9" r="2"/><circle cx="494.5" cy="225.2" r="2"/><circle cx="504.2" cy="248.8" r="2"/><circle cx="513.9" cy="304.4" r="2"/><circle cx="523.6" cy="344.2" r="2"/><circle cx="533.3" cy="275.9" r="2"/><circle cx="543" cy="263.2" r="2"/><circle cx="552.7" cy="278.3" r="2"/><circle cx="562.5" cy="296.2" r="2"/><circle cx="572.2" cy="308.5" r="2"/><circle cx="581.9" cy="298.2" r="2"/><circle cx="591.6" cy="309.8" r="2"/></g></g><g><path stroke="#000" stroke-linecap="round" stroke-linejoin="round" d="M57.9 276.8l9.7-24.4 9.7-12.5L87 234l9.7 19 9.7 17.6 9.7-28.9 9.7 31.9 9.7-5.9 9.7-5.6 9.7 10.2 9.7 27.5 9.7-30.6 9.7-16.1 9.7 46.2 9.7-5.8 9.8 24.6 9.7-32.6 9.7-8.1 9.7-29.6L252 261l9.7 60.1 9.7 15.3 9.7-72.7 9.7 66.1 9.7-12.9 9.7-21.8 9.7-22 9.7 18.9 9.7 28.4 9.7 7.4 9.7 11.7 9.7-35.3 9.7-21 9.7 1.3 9.7-12.5 9.7 17.4 9.7 22.3 9.7-19.3 9.7-18.8 9.7 14.8 9.7-9.7 9.7 7.5 9.7-16.8 9.7-7.6 9.7-3.4 9.7 2.6 9.7 22.7 9.7 49.5 9.7-47.9 9.7-2.6 9.7 11.2 9.8-2.8 9.7 6.7 9.7 5.9 9.7 7.5" fill="none" stroke-width="1.5"/><g fill="#000"><circle cx="57.9" cy="276.8" r="2"/><circle cx="67.6" cy="252.4" r="2"/><circle cx="77.3" cy="239.9" r="2"/><circle cx="87" cy="234" r="2"/><circle cx="96.7" cy="253" r="2"/><circle cx="106.4" cy="270.6" r="2"/><circle cx="116.1" cy="241.7" r="2"/><circle cx="125.8" cy="273.6" r="2"/><circle cx="135.5" cy="267.7" r="2"/><circle cx="145.2" cy="262.1" r="2"/><circle cx="154.9" cy="272.3" r="2"/><circle cx="164.6" cy="299.8" r="2"/><circle cx="174.3" cy="269.2" r="2"/><circle cx="184" cy="253.1" r="2"/><circle cx="193.7" cy="299.3" r="2"/><circle cx="203.4" cy="293.5" r="2"/><circle cx="213.2" cy="318.1" r="2"/><circle cx="222.9" cy="285.5" r="2"/><circle cx="232.6" cy="277.4" r="2"/><circle cx="242.3" cy="247.8" r="2"/><circle cx="252" cy="261" r="2"/><circle cx="261.7" cy="321.1" r="2"/><circle cx="271.4" cy="336.4" r="2"/><circle cx="281.1" cy="263.7" r="2"/><circle cx="290.8" cy="329.8" r="2"/><circle cx="300.5" cy="316.9" r="2"/><circle cx="310.2" cy="295.1" r="2"/><circle cx="319.9" cy="273.1" r="2"/><circle cx="329.6" cy="292" r="2"/><circle cx="339.3" cy="320.4" r="2"/><circle cx="349" cy="327.8" r="2"/><circle cx="358.7" cy="339.5" r="2"/><circle cx="368.4" cy="304.2" r="2"/><circle cx="378.1" cy="283.2" r="2"/><circle cx="387.8" cy="284.5" r="2"/><circle cx="397.5" cy="272" r="2"/><circle cx="407.2" cy="289.4" r="2"/><circle cx="416.9" cy="311.7" r="2"/><circle cx="426.6" cy="292.4" r="2"/><circle cx="436.3" cy="273.6" r="2"/><circle cx="446" cy="288.4" r="2"/><circle cx="455.7" cy="278.7" r="2"/><circle cx="465.4" cy="286.2" r="2"/><circle cx="475.1" cy="269.4" r="2"/><circle cx="484.8" cy="261.8" r="2"/><circle cx="494.5" cy="258.4" r="2"/><circle cx="504.2" cy="261" r="2"/><circle cx="513.9" cy="283.7" r="2"/><circle cx="523.6" cy="333.2" r="2"/><circle cx="533.3" cy="285.3" r="2"/><circle cx="543" cy="282.7" r="2"/><circle cx="552.7" cy="293.9" r="2"/><circle cx="562.5" cy="291.1" r="2"/><circle cx="572.2" cy="297.8" r="2"/><circle cx="581.9" cy="303.7" r="2"/><circle cx="591.6" cy="311.2" r="2"/></g></g></g></g></g><g class="SourcesFooter" fill="#777"><g fill="#777"><text font-size="12.6" x="15" y="567.9"><tspan x="15" y="567.88">Source: FRED (2016)</tspan></text></g><text font-size="12.6" x="15" y="582.5"><tspan x="15" y="582.48">Note: CC-BY-ND-NC</tspan></text><text font-size="12.6" x="538.9" y="567.9"><tspan x="538.9" y="567.88"><a target="_blank" href="https://tinyco.re/13071911" fill="#777">tinyco.re/13071911</a> • <a href="https://ourworldindata.org" target="_blank">Powered by ourworldindata.org</a></tspan></text></g></svg>