<svg xmlns="http://www.w3.org/2000/svg" version="1.1" style="font-family:Lato,'Helvetica Neue',Helvetica,Arial,sans-serif;font-size:18px;background-color:#fff;text-rendering:geometricPrecision;-webkit-font-smoothing:antialiased" width="850" height="600" viewBox="0 0 850 600"><g class="HeaderView"><g transform="matrix(.29 0 0 .29 774 15)"><svg className="owidLog" width="210" height="120" viewBox="0 0 210 120" fill="none" xmlns="http://www.w3.org/2000/svg"><g clip-path="url(#a)"><path d="M0 0h210v107.89H0V0z" fill="#002147"/><path d="M40.98 32.25c0 2.36-.38 4.53-1.12 6.51a14.26 14.26 0 0 1-8.1 8.4c-1.9.78-4.02 1.17-6.34 1.17a16.6 16.6 0 0 1-6.33-1.17 14.31 14.31 0 0 1-8.08-8.4 18.29 18.29 0 0 1-1.12-6.51c0-2.36.38-4.53 1.12-6.5.75-1.97 1.8-3.67 3.17-5.1a14.32 14.32 0 0 1 4.9-3.34c1.92-.8 4.03-1.19 6.34-1.19 2.32 0 4.43.4 6.34 1.19 1.92.8 3.56 1.9 4.93 3.34a14.87 14.87 0 0 1 3.17 5.1 18.1 18.1 0 0 1 1.12 6.5zm-4.38 0c0-1.94-.26-3.68-.8-5.22a10.91 10.91 0 0 0-2.24-3.89 9.68 9.68 0 0 0-3.52-2.46 11.95 11.95 0 0 0-4.62-.86c-1.68 0-3.21.28-4.6.86a9.88 9.88 0 0 0-3.54 2.46 10.91 10.91 0 0 0-2.24 3.9c-.53 1.53-.8 3.27-.8 5.2 0 1.94.27 3.68.8 5.22a11.17 11.17 0 0 0 2.24 3.9 10.01 10.01 0 0 0 3.55 2.44c1.38.56 2.9.83 4.6.83s3.24-.27 4.61-.83a9.8 9.8 0 0 0 3.52-2.44 11.17 11.17 0 0 0 2.25-3.9c.53-1.54.8-3.28.8-5.21zm26.22-6.54V48H60.5c-.56 0-.9-.27-1.05-.81l-.31-2.4a12.45 12.45 0 0 1-3.26 2.6c-1.2.64-2.58.96-4.13.96-1.22 0-2.3-.2-3.24-.6a6.52 6.52 0 0 1-2.33-1.7 7.37 7.37 0 0 1-1.43-2.67c-.3-1.04-.46-2.2-.46-3.45V25.7h3.91v14.22c0 1.68.38 2.99 1.15 3.91.77.93 1.96 1.39 3.54 1.39 1.16 0 2.24-.27 3.23-.82a10.42 10.42 0 0 0 2.8-2.28V25.7h3.91zm8.61 4.47a9.94 9.94 0 0 1 2.6-3.56 5.64 5.64 0 0 1 3.76-1.3c.47 0 .92.05 1.34.15.44.1.83.27 1.17.49l-.3 2.92c-.09.37-.3.55-.66.55-.2 0-.5-.04-.9-.13a6.21 6.21 0 0 0-3.24.18 4.23 4.23 0 0 0-1.47.92c-.42.4-.81.9-1.17 1.5-.33.58-.64 1.26-.92 2.02V48H67.7V25.71h2.25c.42 0 .72.08.88.25.16.16.27.44.33.83l.26 3.39zm61.16-13.7L122.75 48h-3.82l-7.99-24.05a21.95 21.95 0 0 1-.42-1.58 38.36 38.36 0 0 1-.44 1.58L102.05 48h-3.83L88.4 16.47h3.54c.38 0 .7.1.95.29.26.2.43.43.5.73l6.52 21.9.28 1.28.29 1.46.3-1.46.38-1.27 7.41-21.91c.1-.25.26-.48.51-.69.27-.22.58-.33.95-.33h1.23c.38 0 .69.1.92.29a1.77 1.77 0 0 1 .53.73l7.4 21.9a28.4 28.4 0 0 1 .68 2.62 29.52 29.52 0 0 1 .52-2.61l6.54-21.91a1.31 1.31 0 0 1 .48-.7c.27-.21.58-.32.95-.32h3.32zm9.35 8.88c1.63 0 3.1.27 4.4.82a9.43 9.43 0 0 1 5.46 5.94c.5 1.4.74 2.98.74 4.73 0 1.76-.25 3.34-.74 4.75a9.43 9.43 0 0 1-5.46 5.92c-1.3.52-2.77.79-4.4.79-1.64 0-3.12-.27-4.44-.8a9.42 9.42 0 0 1-3.35-2.3c-.92-1-1.63-2.2-2.13-3.61-.49-1.41-.73-3-.73-4.75s.24-3.33.73-4.73c.5-1.43 1.2-2.64 2.13-3.63a9.4 9.4 0 0 1 3.35-2.31c1.32-.55 2.8-.82 4.44-.82zm0 19.89c2.2 0 3.84-.73 4.93-2.2 1.08-1.48 1.63-3.54 1.63-6.18 0-2.66-.55-4.72-1.63-6.2-1.09-1.49-2.73-2.23-4.93-2.23-1.12 0-2.09.2-2.93.57a5.71 5.71 0 0 0-2.06 1.65 7.5 7.5 0 0 0-1.24 2.67c-.26 1.04-.4 2.22-.4 3.54 0 2.64.55 4.7 1.64 6.18 1.1 1.47 2.76 2.2 4.99 2.2zm17.97-15.07a9.94 9.94 0 0 1 2.6-3.56 5.64 5.64 0 0 1 3.76-1.3c.47 0 .91.05 1.34.15.44.1.83.27 1.16.49l-.28 2.92c-.09.37-.31.55-.66.55-.2 0-.5-.04-.9-.13a6.2 6.2 0 0 0-3.24.18 4.23 4.23 0 0 0-1.47.92c-.43.4-.82.9-1.17 1.5a13.1 13.1 0 0 0-.92 2.02V48h-3.94V25.71h2.24c.43 0 .72.08.88.25.17.16.28.44.33.83l.27 3.39zm15.04-14.59V48h-3.92V15.6h3.92zm19.55 15.43a6.22 6.22 0 0 0-2.38-2.05 6.7 6.7 0 0 0-2.86-.6c-2.07 0-3.66.75-4.77 2.23-1.12 1.48-1.68 3.6-1.68 6.33 0 1.46.13 2.7.38 3.74a7.29 7.29 0 0 0 1.1 2.56 4.35 4.35 0 0 0 1.78 1.45c.7.3 1.5.46 2.4.46 1.29 0 2.41-.3 3.36-.88a9.6 9.6 0 0 0 2.67-2.49V31.02zm3.91-15.43V48h-2.33c-.56 0-.9-.27-1.06-.81l-.35-2.71a12.13 12.13 0 0 1-3.25 2.77 8.28 8.28 0 0 1-4.23 1.06 7.31 7.31 0 0 1-6.14-2.9c-.73-.96-1.3-2.15-1.69-3.57a18.35 18.35 0 0 1 .07-9.48 11.29 11.29 0 0 1 1.89-3.7 8.7 8.7 0 0 1 7.06-3.34 7.96 7.96 0 0 1 6.12 2.62V15.59h3.91zM46.61 70.71V93H42.7V70.71h3.91zm.84-7c0 .39-.08.75-.24 1.09a2.81 2.81 0 0 1-1.52 1.47 2.67 2.67 0 0 1-2.16 0 2.9 2.9 0 0 1-1.45-1.47 2.67 2.67 0 0 1 0-2.16c.15-.35.35-.65.6-.9.25-.27.53-.47.85-.62a2.67 2.67 0 0 1 2.16 0c.35.15.65.35.9.62.27.25.47.55.62.9.16.34.24.7.24 1.08zm7.97 10.24c.49-.54 1-1.04 1.54-1.48a9.85 9.85 0 0 1 3.66-1.84 8.96 8.96 0 0 1 5.43.35c.94.4 1.72.97 2.33 1.71a7.36 7.36 0 0 1 1.43 2.67c.32 1.04.49 2.19.49 3.45V93h-3.94V78.81c0-1.69-.4-3-1.17-3.92-.76-.93-1.93-1.4-3.5-1.4a6.6 6.6 0 0 0-3.25.83c-1 .56-1.92 1.31-2.77 2.27V93h-3.94V70.71h2.35c.56 0 .9.28 1.04.82l.3 2.42zm57.7 3.3c0 2.36-.37 4.5-1.11 6.44a14.3 14.3 0 0 1-3.17 4.98 14.1 14.1 0 0 1-4.93 3.2c-1.9.76-4.02 1.13-6.33 1.13H85.8V61.47h11.77c2.31 0 4.42.39 6.33 1.15a13.8 13.8 0 0 1 8.1 8.18 17.75 17.75 0 0 1 1.12 6.45zm-4.37 0c0-1.94-.26-3.67-.8-5.2a10.94 10.94 0 0 0-2.23-3.87 9.57 9.57 0 0 0-3.53-2.42 12.23 12.23 0 0 0-4.61-.83h-7.5v24.62h7.5c1.7 0 3.24-.28 4.61-.84a9.7 9.7 0 0 0 3.53-2.4 10.94 10.94 0 0 0 2.24-3.87c.53-1.53.8-3.26.8-5.2zm19.8 5.72c-1.8.06-3.34.2-4.62.44-1.26.22-2.3.51-3.1.88-.8.36-1.37.8-1.74 1.3-.35.5-.53 1.05-.53 1.67 0 .58.1 1.1.3 1.52a3 3 0 0 0 .76 1.05c.34.27.73.46 1.17.6a6.13 6.13 0 0 0 1.45.17 7.28 7.28 0 0 0 3.5-.81 11.95 11.95 0 0 0 2.82-2.2v-4.62zm-12.65-9.11a12.73 12.73 0 0 1 3.98-2.66c1.43-.59 3-.88 4.73-.88 1.25 0 2.36.2 3.33.61a6.81 6.81 0 0 1 3.94 4.38c.33 1.04.5 2.19.5 3.43V93h-1.74a1.8 1.8 0 0 1-.88-.18c-.2-.13-.36-.38-.48-.74l-.44-2.12-1.72 1.46a9.48 9.48 0 0 1-3.74 1.7c-.69.15-1.46.23-2.3.23-.87 0-1.69-.12-2.45-.35a5.34 5.34 0 0 1-3.34-2.93 6.64 6.64 0 0 1-.49-2.64c0-.88.25-1.72.73-2.53a6.33 6.33 0 0 1 2.35-2.17c1.09-.63 2.5-1.15 4.25-1.54 1.75-.41 3.89-.65 6.42-.7v-1.75c0-1.73-.37-3.03-1.12-3.91-.75-.9-1.84-1.34-3.28-1.34-.97 0-1.78.12-2.44.37-.64.23-1.2.5-1.7.81l-1.23.82c-.33.23-.67.35-1 .35-.27 0-.5-.07-.69-.2a2.1 2.1 0 0 1-.48-.53l-.7-1.25zm27.67 19.5c-1.76 0-3.12-.5-4.07-1.48-.94-.98-1.41-2.4-1.41-4.25V74h-2.68a.9.9 0 0 1-.6-.2c-.16-.14-.24-.36-.24-.66v-1.56l3.65-.46.9-6.89a.9.9 0 0 1 .29-.52.88.88 0 0 1 .62-.22H142v7.67h6.44V74H142v13.38c0 .94.22 1.63.68 2.09.45.45 1.04.68 1.76.68a3.21 3.21 0 0 0 1.85-.53l.55-.35c.16-.12.3-.18.41-.18.2 0 .4.13.55.38l1.15 1.87a7.45 7.45 0 0 1-2.44 1.5 8.53 8.53 0 0 1-2.95.52zm19.68-10.4c-1.8.07-3.34.21-4.62.45-1.26.22-2.3.51-3.1.88-.8.36-1.37.8-1.74 1.3-.35.5-.53 1.05-.53 1.67 0 .58.1 1.1.3 1.52a2.9 2.9 0 0 0 .76 1.05c.34.27.73.46 1.17.6a6.13 6.13 0 0 0 1.45.17 7.3 7.3 0 0 0 3.5-.81 12.04 12.04 0 0 0 2.82-2.2v-4.62zm-12.65-9.1a12.72 12.72 0 0 1 3.99-2.66c1.42-.59 3-.88 4.72-.88 1.25 0 2.36.2 3.33.61a6.81 6.81 0 0 1 3.94 4.38c.33 1.04.5 2.19.5 3.43V93h-1.74a1.8 1.8 0 0 1-.88-.18c-.2-.13-.36-.38-.48-.74l-.44-2.12-1.72 1.46a9.48 9.48 0 0 1-3.74 1.7c-.69.15-1.46.23-2.3.23-.87 0-1.69-.12-2.45-.35a5.33 5.33 0 0 1-3.34-2.93 6.62 6.62 0 0 1-.49-2.64c0-.88.25-1.72.73-2.53a6.33 6.33 0 0 1 2.35-2.17c1.09-.63 2.5-1.15 4.25-1.54a31.2 31.2 0 0 1 6.42-.7v-1.75c0-1.73-.37-3.03-1.12-3.91-.75-.9-1.84-1.34-3.28-1.34-.97 0-1.78.12-2.44.37-.64.23-1.2.5-1.7.81l-1.22.82c-.34.23-.68.35-1.02.35-.26 0-.49-.07-.68-.2a1.88 1.88 0 0 1-.48-.53l-.7-1.25zM40.98 32.25c0 2.36-.38 4.53-1.12 6.51a14.26 14.26 0 0 1-8.1 8.4c-1.9.78-4.02 1.17-6.34 1.17a16.6 16.6 0 0 1-6.33-1.17 14.31 14.31 0 0 1-8.08-8.4 18.29 18.29 0 0 1-1.12-6.51c0-2.36.38-4.53 1.12-6.5.75-1.97 1.8-3.67 3.17-5.1a14.32 14.32 0 0 1 4.9-3.34c1.92-.8 4.03-1.19 6.34-1.19 2.32 0 4.43.4 6.34 1.19 1.92.8 3.56 1.9 4.93 3.34a14.87 14.87 0 0 1 3.17 5.1 18.1 18.1 0 0 1 1.12 6.5zm-4.38 0c0-1.94-.26-3.68-.8-5.22a10.91 10.91 0 0 0-2.24-3.89 9.68 9.68 0 0 0-3.52-2.46 11.95 11.95 0 0 0-4.62-.86c-1.68 0-3.21.28-4.6.86a9.88 9.88 0 0 0-3.54 2.46 10.91 10.91 0 0 0-2.24 3.9c-.53 1.53-.8 3.27-.8 5.2 0 1.94.27 3.68.8 5.22a11.17 11.17 0 0 0 2.24 3.9 10.01 10.01 0 0 0 3.55 2.44c1.38.56 2.9.83 4.6.83s3.24-.27 4.61-.83a9.8 9.8 0 0 0 3.52-2.44 11.17 11.17 0 0 0 2.25-3.9c.53-1.54.8-3.28.8-5.21zm26.22-6.54V48H60.5c-.56 0-.9-.27-1.05-.81l-.31-2.4a12.45 12.45 0 0 1-3.26 2.6c-1.2.64-2.58.96-4.13.96-1.22 0-2.3-.2-3.24-.6a6.52 6.52 0 0 1-2.33-1.7 7.37 7.37 0 0 1-1.43-2.67c-.3-1.04-.46-2.2-.46-3.45V25.7h3.91v14.22c0 1.68.38 2.99 1.15 3.91.77.93 1.96 1.39 3.54 1.39 1.16 0 2.24-.27 3.23-.82a10.42 10.42 0 0 0 2.8-2.28V25.7h3.91zm8.61 4.47a9.94 9.94 0 0 1 2.6-3.56 5.64 5.64 0 0 1 3.76-1.3c.47 0 .92.05 1.34.15.44.1.83.27 1.17.49l-.3 2.92c-.09.37-.3.55-.66.55-.2 0-.5-.04-.9-.13a6.21 6.21 0 0 0-3.24.18 4.23 4.23 0 0 0-1.47.92c-.42.4-.81.9-1.17 1.5-.33.58-.64 1.26-.92 2.02V48H67.7V25.71h2.25c.42 0 .72.08.88.25.16.16.27.44.33.83l.26 3.39zm61.16-13.7L122.75 48h-3.82l-7.99-24.05a21.95 21.95 0 0 1-.42-1.58 38.36 38.36 0 0 1-.44 1.58L102.05 48h-3.83L88.4 16.47h3.54c.38 0 .7.1.95.29.26.2.43.43.5.73l6.52 21.9.28 1.28.29 1.46.3-1.46.38-1.27 7.41-21.91c.1-.25.26-.48.51-.69.27-.22.58-.33.95-.33h1.23c.38 0 .69.1.92.29a1.77 1.77 0 0 1 .53.73l7.4 21.9a28.4 28.4 0 0 1 .68 2.62 29.52 29.52 0 0 1 .52-2.61l6.54-21.91a1.31 1.31 0 0 1 .48-.7c.27-.21.58-.32.95-.32h3.32zm9.35 8.88c1.63 0 3.1.27 4.4.82a9.43 9.43 0 0 1 5.46 5.94c.5 1.4.74 2.98.74 4.73 0 1.76-.25 3.34-.74 4.75a9.43 9.43 0 0 1-5.46 5.92c-1.3.52-2.77.79-4.4.79-1.64 0-3.12-.27-4.44-.8a9.42 9.42 0 0 1-3.35-2.3c-.92-1-1.63-2.2-2.13-3.61-.49-1.41-.73-3-.73-4.75s.24-3.33.73-4.73c.5-1.43 1.2-2.64 2.13-3.63a9.4 9.4 0 0 1 3.35-2.31c1.32-.55 2.8-.82 4.44-.82zm0 19.89c2.2 0 3.84-.73 4.93-2.2 1.08-1.48 1.63-3.54 1.63-6.18 0-2.66-.55-4.72-1.63-6.2-1.09-1.49-2.73-2.23-4.93-2.23-1.12 0-2.09.2-2.93.57a5.71 5.71 0 0 0-2.06 1.65 7.5 7.5 0 0 0-1.24 2.67c-.26 1.04-.4 2.22-.4 3.54 0 2.64.55 4.7 1.64 6.18 1.1 1.47 2.76 2.2 4.99 2.2zm17.97-15.07a9.94 9.94 0 0 1 2.6-3.56 5.64 5.64 0 0 1 3.76-1.3c.47 0 .91.05 1.34.15.44.1.83.27 1.16.49l-.28 2.92c-.09.37-.31.55-.66.55-.2 0-.5-.04-.9-.13a6.2 6.2 0 0 0-3.24.18 4.23 4.23 0 0 0-1.47.92c-.43.4-.82.9-1.17 1.5a13.1 13.1 0 0 0-.92 2.02V48h-3.94V25.71h2.24c.43 0 .72.08.88.25.17.16.28.44.33.83l.27 3.39zm15.04-14.59V48h-3.92V15.6h3.92zm19.55 15.43a6.22 6.22 0 0 0-2.38-2.05 6.7 6.7 0 0 0-2.86-.6c-2.07 0-3.66.75-4.77 2.23-1.12 1.48-1.68 3.6-1.68 6.33 0 1.46.13 2.7.38 3.74a7.29 7.29 0 0 0 1.1 2.56 4.35 4.35 0 0 0 1.78 1.45c.7.3 1.5.46 2.4.46 1.29 0 2.41-.3 3.36-.88a9.6 9.6 0 0 0 2.67-2.49V31.02zm3.91-15.43V48h-2.33c-.56 0-.9-.27-1.06-.81l-.35-2.71a12.13 12.13 0 0 1-3.25 2.77 8.28 8.28 0 0 1-4.23 1.06 7.31 7.31 0 0 1-6.14-2.9c-.73-.96-1.3-2.15-1.69-3.57a18.35 18.35 0 0 1 .07-9.48 11.29 11.29 0 0 1 1.89-3.7 8.7 8.7 0 0 1 7.06-3.34 7.96 7.96 0 0 1 6.12 2.62V15.59h3.91zM46.61 70.71V93H42.7V70.71h3.91zm.84-7c0 .39-.08.75-.24 1.09a2.81 2.81 0 0 1-1.52 1.47 2.67 2.67 0 0 1-2.16 0 2.9 2.9 0 0 1-1.45-1.47 2.67 2.67 0 0 1 0-2.16c.15-.35.35-.65.6-.9.25-.27.53-.47.85-.62a2.67 2.67 0 0 1 2.16 0c.35.15.65.35.9.62.27.25.47.55.62.9.16.34.24.7.24 1.08zm7.97 10.24c.49-.54 1-1.04 1.54-1.48a9.85 9.85 0 0 1 3.66-1.84 8.96 8.96 0 0 1 5.43.35c.94.4 1.72.97 2.33 1.71a7.36 7.36 0 0 1 1.43 2.67c.32 1.04.49 2.19.49 3.45V93h-3.94V78.81c0-1.69-.4-3-1.17-3.92-.76-.93-1.93-1.4-3.5-1.4a6.6 6.6 0 0 0-3.25.83c-1 .56-1.92 1.31-2.77 2.27V93h-3.94V70.71h2.35c.56 0 .9.28 1.04.82l.3 2.42zm57.7 3.3c0 2.36-.37 4.5-1.11 6.44a14.3 14.3 0 0 1-3.17 4.98 14.1 14.1 0 0 1-4.93 3.2c-1.9.76-4.02 1.13-6.33 1.13H85.8V61.47h11.77c2.31 0 4.42.39 6.33 1.15a13.8 13.8 0 0 1 8.1 8.18 17.75 17.75 0 0 1 1.12 6.45zm-4.37 0c0-1.94-.26-3.67-.8-5.2a10.94 10.94 0 0 0-2.23-3.87 9.57 9.57 0 0 0-3.53-2.42 12.23 12.23 0 0 0-4.61-.83h-7.5v24.62h7.5c1.7 0 3.24-.28 4.61-.84a9.7 9.7 0 0 0 3.53-2.4 10.94 10.94 0 0 0 2.24-3.87c.53-1.53.8-3.26.8-5.2zm19.8 5.72c-1.8.06-3.34.2-4.62.44-1.26.22-2.3.51-3.1.88-.8.36-1.37.8-1.74 1.3-.35.5-.53 1.05-.53 1.67 0 .58.1 1.1.3 1.52a3 3 0 0 0 .76 1.05c.34.27.73.46 1.17.6a6.13 6.13 0 0 0 1.45.17 7.28 7.28 0 0 0 3.5-.81 11.95 11.95 0 0 0 2.82-2.2v-4.62zm-12.65-9.11a12.73 12.73 0 0 1 3.98-2.66c1.43-.59 3-.88 4.73-.88 1.25 0 2.36.2 3.33.61a6.81 6.81 0 0 1 3.94 4.38c.33 1.04.5 2.19.5 3.43V93h-1.74a1.8 1.8 0 0 1-.88-.18c-.2-.13-.36-.38-.48-.74l-.44-2.12-1.72 1.46a9.48 9.48 0 0 1-3.74 1.7c-.69.15-1.46.23-2.3.23-.87 0-1.69-.12-2.45-.35a5.34 5.34 0 0 1-3.34-2.93 6.64 6.64 0 0 1-.49-2.64c0-.88.25-1.72.73-2.53a6.33 6.33 0 0 1 2.35-2.17c1.09-.63 2.5-1.15 4.25-1.54 1.75-.41 3.89-.65 6.42-.7v-1.75c0-1.73-.37-3.03-1.12-3.91-.75-.9-1.84-1.34-3.28-1.34-.97 0-1.78.12-2.44.37-.64.23-1.2.5-1.7.81l-1.23.82c-.33.23-.67.35-1 .35-.27 0-.5-.07-.69-.2a2.1 2.1 0 0 1-.48-.53l-.7-1.25zm27.67 19.5c-1.76 0-3.12-.5-4.07-1.48-.94-.98-1.41-2.4-1.41-4.25V74h-2.68a.9.9 0 0 1-.6-.2c-.16-.14-.24-.36-.24-.66v-1.56l3.65-.46.9-6.89a.9.9 0 0 1 .29-.52.88.88 0 0 1 .62-.22H142v7.67h6.44V74H142v13.38c0 .94.22 1.63.68 2.09.45.45 1.04.68 1.76.68a3.21 3.21 0 0 0 1.85-.53l.55-.35c.16-.12.3-.18.41-.18.2 0 .4.13.55.38l1.15 1.87a7.45 7.45 0 0 1-2.44 1.5 8.53 8.53 0 0 1-2.95.52zm19.68-10.4c-1.8.07-3.34.21-4.62.45-1.26.22-2.3.51-3.1.88-.8.36-1.37.8-1.74 1.3-.35.5-.53 1.05-.53 1.67 0 .58.1 1.1.3 1.52a2.9 2.9 0 0 0 .76 1.05c.34.27.73.46 1.17.6a6.13 6.13 0 0 0 1.45.17 7.3 7.3 0 0 0 3.5-.81 12.04 12.04 0 0 0 2.82-2.2v-4.62zm-12.65-9.1a12.72 12.72 0 0 1 3.99-2.66c1.42-.59 3-.88 4.72-.88 1.25 0 2.36.2 3.33.61a6.81 6.81 0 0 1 3.94 4.38c.33 1.04.5 2.19.5 3.43V93h-1.74a1.8 1.8 0 0 1-.88-.18c-.2-.13-.36-.38-.48-.74l-.44-2.12-1.72 1.46a9.48 9.48 0 0 1-3.74 1.7c-.69.15-1.46.23-2.3.23-.87 0-1.69-.12-2.45-.35a5.33 5.33 0 0 1-3.34-2.93 6.62 6.62 0 0 1-.49-2.64c0-.88.25-1.72.73-2.53a6.33 6.33 0 0 1 2.35-2.17c1.09-.63 2.5-1.15 4.25-1.54a31.2 31.2 0 0 1 6.42-.7v-1.75c0-1.73-.37-3.03-1.12-3.91-.75-.9-1.84-1.34-3.28-1.34-.97 0-1.78.12-2.44.37-.64.23-1.2.5-1.7.81l-1.22.82c-.34.23-.68.35-1.02.35-.26 0-.49-.07-.68-.2a1.88 1.88 0 0 1-.48-.53l-.7-1.25zM40.98 32.25c0 2.36-.38 4.53-1.12 6.51a14.26 14.26 0 0 1-8.1 8.4c-1.9.78-4.02 1.17-6.34 1.17a16.6 16.6 0 0 1-6.33-1.17 14.31 14.31 0 0 1-8.08-8.4 18.29 18.29 0 0 1-1.12-6.51c0-2.36.38-4.53 1.12-6.5.75-1.97 1.8-3.67 3.17-5.1a14.32 14.32 0 0 1 4.9-3.34c1.92-.8 4.03-1.19 6.34-1.19 2.32 0 4.43.4 6.34 1.19 1.92.8 3.56 1.9 4.93 3.34a14.87 14.87 0 0 1 3.17 5.1 18.1 18.1 0 0 1 1.12 6.5zm-4.38 0c0-1.94-.26-3.68-.8-5.22a10.91 10.91 0 0 0-2.24-3.89 9.68 9.68 0 0 0-3.52-2.46 11.95 11.95 0 0 0-4.62-.86c-1.68 0-3.21.28-4.6.86a9.88 9.88 0 0 0-3.54 2.46 10.91 10.91 0 0 0-2.24 3.9c-.53 1.53-.8 3.27-.8 5.2 0 1.94.27 3.68.8 5.22a11.17 11.17 0 0 0 2.24 3.9 10.01 10.01 0 0 0 3.55 2.44c1.38.56 2.9.83 4.6.83s3.24-.27 4.61-.83a9.8 9.8 0 0 0 3.52-2.44 11.17 11.17 0 0 0 2.25-3.9c.53-1.54.8-3.28.8-5.21zm26.22-6.54V48H60.5c-.56 0-.9-.27-1.05-.81l-.31-2.4a12.45 12.45 0 0 1-3.26 2.6c-1.2.64-2.58.96-4.13.96-1.22 0-2.3-.2-3.24-.6a6.52 6.52 0 0 1-2.33-1.7 7.37 7.37 0 0 1-1.43-2.67c-.3-1.04-.46-2.2-.46-3.45V25.7h3.91v14.22c0 1.68.38 2.99 1.15 3.91.77.93 1.96 1.39 3.54 1.39 1.16 0 2.24-.27 3.23-.82a10.42 10.42 0 0 0 2.8-2.28V25.7h3.91zm8.61 4.47a9.94 9.94 0 0 1 2.6-3.56 5.64 5.64 0 0 1 3.76-1.3c.47 0 .92.05 1.34.15.44.1.83.27 1.17.49l-.3 2.92c-.09.37-.3.55-.66.55-.2 0-.5-.04-.9-.13a6.21 6.21 0 0 0-3.24.18 4.23 4.23 0 0 0-1.47.92c-.42.4-.81.9-1.17 1.5-.33.58-.64 1.26-.92 2.02V48H67.7V25.71h2.25c.42 0 .72.08.88.25.16.16.27.44.33.83l.26 3.39zm61.16-13.7L122.75 48h-3.82l-7.99-24.05a21.95 21.95 0 0 1-.42-1.58 38.36 38.36 0 0 1-.44 1.58L102.05 48h-3.83L88.4 16.47h3.54c.38 0 .7.1.95.29.26.2.43.43.5.73l6.52 21.9.28 1.28.29 1.46.3-1.46.38-1.27 7.41-21.91c.1-.25.26-.48.51-.69.27-.22.58-.33.95-.33h1.23c.38 0 .69.1.92.29a1.77 1.77 0 0 1 .53.73l7.4 21.9a28.4 28.4 0 0 1 .68 2.62 29.52 29.52 0 0 1 .52-2.61l6.54-21.91a1.31 1.31 0 0 1 .48-.7c.27-.21.58-.32.95-.32h3.32zm9.35 8.88c1.63 0 3.1.27 4.4.82a9.43 9.43 0 0 1 5.46 5.94c.5 1.4.74 2.98.74 4.73 0 1.76-.25 3.34-.74 4.75a9.43 9.43 0 0 1-5.46 5.92c-1.3.52-2.77.79-4.4.79-1.64 0-3.12-.27-4.44-.8a9.42 9.42 0 0 1-3.35-2.3c-.92-1-1.63-2.2-2.13-3.61-.49-1.41-.73-3-.73-4.75s.24-3.33.73-4.73c.5-1.43 1.2-2.64 2.13-3.63a9.4 9.4 0 0 1 3.35-2.31c1.32-.55 2.8-.82 4.44-.82zm0 19.89c2.2 0 3.84-.73 4.93-2.2 1.08-1.48 1.63-3.54 1.63-6.18 0-2.66-.55-4.72-1.63-6.2-1.09-1.49-2.73-2.23-4.93-2.23-1.12 0-2.09.2-2.93.57a5.71 5.71 0 0 0-2.06 1.65 7.5 7.5 0 0 0-1.24 2.67c-.26 1.04-.4 2.22-.4 3.54 0 2.64.55 4.7 1.64 6.18 1.1 1.47 2.76 2.2 4.99 2.2zm17.97-15.07a9.94 9.94 0 0 1 2.6-3.56 5.64 5.64 0 0 1 3.76-1.3c.47 0 .91.05 1.34.15.44.1.83.27 1.16.49l-.28 2.92c-.09.37-.31.55-.66.55-.2 0-.5-.04-.9-.13a6.2 6.2 0 0 0-3.24.18 4.23 4.23 0 0 0-1.47.92c-.43.4-.82.9-1.17 1.5a13.1 13.1 0 0 0-.92 2.02V48h-3.94V25.71h2.24c.43 0 .72.08.88.25.17.16.28.44.33.83l.27 3.39zm15.04-14.59V48h-3.92V15.6h3.92zm19.55 15.43a6.22 6.22 0 0 0-2.38-2.05 6.7 6.7 0 0 0-2.86-.6c-2.07 0-3.66.75-4.77 2.23-1.12 1.48-1.68 3.6-1.68 6.33 0 1.46.13 2.7.38 3.74a7.29 7.29 0 0 0 1.1 2.56 4.35 4.35 0 0 0 1.78 1.45c.7.3 1.5.46 2.4.46 1.29 0 2.41-.3 3.36-.88a9.6 9.6 0 0 0 2.67-2.49V31.02zm3.91-15.43V48h-2.33c-.56 0-.9-.27-1.06-.81l-.35-2.71a12.13 12.13 0 0 1-3.25 2.77 8.28 8.28 0 0 1-4.23 1.06 7.31 7.31 0 0 1-6.14-2.9c-.73-.96-1.3-2.15-1.69-3.57a18.35 18.35 0 0 1 .07-9.48 11.29 11.29 0 0 1 1.89-3.7 8.7 8.7 0 0 1 7.06-3.34 7.96 7.96 0 0 1 6.12 2.62V15.59h3.91zM46.61 70.71V93H42.7V70.71h3.91zm.84-7c0 .39-.08.75-.24 1.09a2.81 2.81 0 0 1-1.52 1.47 2.67 2.67 0 0 1-2.16 0 2.9 2.9 0 0 1-1.45-1.47 2.67 2.67 0 0 1 0-2.16c.15-.35.35-.65.6-.9.25-.27.53-.47.85-.62a2.67 2.67 0 0 1 2.16 0c.35.15.65.35.9.62.27.25.47.55.62.9.16.34.24.7.24 1.08zm7.97 10.24c.49-.54 1-1.04 1.54-1.48a9.85 9.85 0 0 1 3.66-1.84 8.96 8.96 0 0 1 5.43.35c.94.4 1.72.97 2.33 1.71a7.36 7.36 0 0 1 1.43 2.67c.32 1.04.49 2.19.49 3.45V93h-3.94V78.81c0-1.69-.4-3-1.17-3.92-.76-.93-1.93-1.4-3.5-1.4a6.6 6.6 0 0 0-3.25.83c-1 .56-1.92 1.31-2.77 2.27V93h-3.94V70.71h2.35c.56 0 .9.28 1.04.82l.3 2.42zm57.7 3.3c0 2.36-.37 4.5-1.11 6.44a14.3 14.3 0 0 1-3.17 4.98 14.1 14.1 0 0 1-4.93 3.2c-1.9.76-4.02 1.13-6.33 1.13H85.8V61.47h11.77c2.31 0 4.42.39 6.33 1.15a13.8 13.8 0 0 1 8.1 8.18 17.75 17.75 0 0 1 1.12 6.45zm-4.37 0c0-1.94-.26-3.67-.8-5.2a10.94 10.94 0 0 0-2.23-3.87 9.57 9.57 0 0 0-3.53-2.42 12.23 12.23 0 0 0-4.61-.83h-7.5v24.62h7.5c1.7 0 3.24-.28 4.61-.84a9.7 9.7 0 0 0 3.53-2.4 10.94 10.94 0 0 0 2.24-3.87c.53-1.53.8-3.26.8-5.2zm19.8 5.72c-1.8.06-3.34.2-4.62.44-1.26.22-2.3.51-3.1.88-.8.36-1.37.8-1.74 1.3-.35.5-.53 1.05-.53 1.67 0 .58.1 1.1.3 1.52a3 3 0 0 0 .76 1.05c.34.27.73.46 1.17.6a6.13 6.13 0 0 0 1.45.17 7.28 7.28 0 0 0 3.5-.81 11.95 11.95 0 0 0 2.82-2.2v-4.62zm-12.65-9.11a12.73 12.73 0 0 1 3.98-2.66c1.43-.59 3-.88 4.73-.88 1.25 0 2.36.2 3.33.61a6.81 6.81 0 0 1 3.94 4.38c.33 1.04.5 2.19.5 3.43V93h-1.74a1.8 1.8 0 0 1-.88-.18c-.2-.13-.36-.38-.48-.74l-.44-2.12-1.72 1.46a9.48 9.48 0 0 1-3.74 1.7c-.69.15-1.46.23-2.3.23-.87 0-1.69-.12-2.45-.35a5.34 5.34 0 0 1-3.34-2.93 6.64 6.64 0 0 1-.49-2.64c0-.88.25-1.72.73-2.53a6.33 6.33 0 0 1 2.35-2.17c1.09-.63 2.5-1.15 4.25-1.54 1.75-.41 3.89-.65 6.42-.7v-1.75c0-1.73-.37-3.03-1.12-3.91-.75-.9-1.84-1.34-3.28-1.34-.97 0-1.78.12-2.44.37-.64.23-1.2.5-1.7.81l-1.23.82c-.33.23-.67.35-1 .35-.27 0-.5-.07-.69-.2a2.1 2.1 0 0 1-.48-.53l-.7-1.25zm27.67 19.5c-1.76 0-3.12-.5-4.07-1.48-.94-.98-1.41-2.4-1.41-4.25V74h-2.68a.9.9 0 0 1-.6-.2c-.16-.14-.24-.36-.24-.66v-1.56l3.65-.46.9-6.89a.9.9 0 0 1 .29-.52.88.88 0 0 1 .62-.22H142v7.67h6.44V74H142v13.38c0 .94.22 1.63.68 2.09.45.45 1.04.68 1.76.68a3.21 3.21 0 0 0 1.85-.53l.55-.35c.16-.12.3-.18.41-.18.2 0 .4.13.55.38l1.15 1.87a7.45 7.45 0 0 1-2.44 1.5 8.53 8.53 0 0 1-2.95.52zm19.68-10.4c-1.8.07-3.34.21-4.62.45-1.26.22-2.3.51-3.1.88-.8.36-1.37.8-1.74 1.3-.35.5-.53 1.05-.53 1.67 0 .58.1 1.1.3 1.52a2.9 2.9 0 0 0 .76 1.05c.34.27.73.46 1.17.6a6.13 6.13 0 0 0 1.45.17 7.3 7.3 0 0 0 3.5-.81 12.04 12.04 0 0 0 2.82-2.2v-4.62zm-12.65-9.1a12.72 12.72 0 0 1 3.99-2.66c1.42-.59 3-.88 4.72-.88 1.25 0 2.36.2 3.33.61a6.81 6.81 0 0 1 3.94 4.38c.33 1.04.5 2.19.5 3.43V93h-1.74a1.8 1.8 0 0 1-.88-.18c-.2-.13-.36-.38-.48-.74l-.44-2.12-1.72 1.46a9.48 9.48 0 0 1-3.74 1.7c-.69.15-1.46.23-2.3.23-.87 0-1.69-.12-2.45-.35a5.33 5.33 0 0 1-3.34-2.93 6.62 6.62 0 0 1-.49-2.64c0-.88.25-1.72.73-2.53a6.33 6.33 0 0 1 2.35-2.17c1.09-.63 2.5-1.15 4.25-1.54a31.2 31.2 0 0 1 6.42-.7v-1.75c0-1.73-.37-3.03-1.12-3.91-.75-.9-1.84-1.34-3.28-1.34-.97 0-1.78.12-2.44.37-.64.23-1.2.5-1.7.81l-1.22.82c-.34.23-.68.35-1.02.35-.26 0-.49-.07-.68-.2a1.88 1.88 0 0 1-.48-.53l-.7-1.25z" fill="#fff"/><path fill="#D42B21" d="M0 106.79h210V120H0z"/></g><defs><clipPath id="a"><path fill="#fff" d="M0 0h210v120H0z"/></clipPath></defs></svg></g><a href="https://ourworldindata.org/grapher/household-expenditure-on-housing-water-electricity-gas-and-other-fuels-as-a-share-of-gdp-vs-gdp-per-capita-int-" style="font-family:&quot;Playfair Display&quot;,Georgia,&quot;Times New Roman&quot;,serif" target="_blank" rel="noopener"><text font-size="21.6" x="15" y="32.3" fill="#555"><tspan x="15" y="32.28">Household expenditure on Housing, water, electricity, gas and other fuels</tspan><tspan x="15" y="53.88">as a share of GDP vs. GDP per capita (int.-$), 1990 to 2018</tspan></text></a></g><g class="ScatterPlot"><g class="DualAxisView"><g class="HorizontalAxis"><text font-size="12.6" x="323.3" y="516.6"><tspan x="323.33" y="516.58">GDP per capita</tspan></text><text x="74.44" y="496.5" fill="#666" text-anchor="start" font-size="16.2">$1,000</text><text x="428.2" y="496.5" fill="#666" text-anchor="middle" font-size="16.2">$10,000</text><text x="188.5" y="496.5" fill="#666" text-anchor="middle" font-size="16.2">$2,000</text><text x="325" y="496.5" fill="#666" text-anchor="middle" font-size="16.2">$5,000</text><text x="531.5" y="496.5" fill="#666" text-anchor="middle" font-size="16.2">$20,000</text><text x="668" y="496.5" fill="#666" text-anchor="middle" font-size="16.2">$50,000</text></g><g class="VerticalAxis"><text font-size="12.6" x="-490" y="25.1" transform="rotate(-90)"><tspan x="-490.03" y="25.08">Household expenditure on Housing, water, electricity, gas and other</tspan><tspan x="-490.03" y="38.94">fuels as a share of GDP</tspan></text><text x="69.44" y="395.8" dy=".32em" text-anchor="end" fill="#666" font-size="16.2">5</text><text x="69.44" y="302.9" dy=".32em" text-anchor="end" fill="#666" font-size="16.2">10</text><text x="69.44" y="210.1" dy=".32em" text-anchor="end" fill="#666" font-size="16.2">15</text><text x="69.44" y="117.3" dy=".32em" text-anchor="end" fill="#666" font-size="16.2">20</text></g><g class="AxisGridLines horizontalLines" stroke="#ddd" stroke-dasharray="3,2"><path d="M74.44 395.8h643.65M74.44 302.9h643.65M74.44 210.1h643.65M74.44 117.3h643.65"/></g><g class="AxisGridLines verticalLines" stroke-dasharray="3,2"><path stroke="#ddd" d="M85.3 475.3V81.2M188.5 475.3V81.2"/><path stroke="#eee" d="M248.9 475.3V81.2M291.8 475.3V81.2"/><path stroke="#ddd" d="M325 475.3V81.2"/><path stroke="#eee" d="M352.2 475.3V81.2M375.1 475.3V81.2M395 475.3V81.2M412.6 475.3V81.2"/><path stroke="#ddd" d="M428.2 475.3V81.2M531.5 475.3V81.2"/><path stroke="#eee" d="M591.9 475.3V81.2M634.7 475.3V81.2"/><path stroke="#ddd" d="M668 475.3V81.2"/><path stroke="#eee" d="M695.1 475.3V81.2M718.1 475.3V81.2"/></g></g><g class="PointsWithLabels clickable" clip-path="url(#b)"><path fill="rgba(255,255,255,0)" d="M74.44 81.2h643.65v394.1H74.44z"/><defs><clipPath id="b"><path d="M64.44 71.2h663.65v414.1H64.44z"/></clipPath></defs><g class="key-Australia"><circle cx="597" cy="270" r="1.5" fill="#A8633C" opacity=".7"/><path stroke-width="1" opacity=".7" stroke="#A8633C" fill="none" stroke-linecap="butt" d="m597 270-3-7-1 2 4 3 5 4 3 3h4l4-1h5l6 2 4-1 1 1 4-1h7l2 1 2 1 5-2 2-5v-10l1 3 1-3 3-9 2-2 1-5 1-2 2 5h1"/><path cx="663" cy="247" r="2.5" fill="#A8633C" opacity=".7" d="m660.5 244.5 5 2.5-5 2.5z"/></g><g class="key-Austria"><circle cx="624" cy="305" r="1.5" fill="#4C5C78" opacity=".7"/><path stroke-width="1" opacity=".7" stroke="#4C5C78" fill="none" stroke-linecap="butt" d="m624 305 4-1 1-2v-5l3-4 4-2 3-8 3 5 5 3h5l4 1 2-2 1 1 1-2 3-2 2-9 5 1 5 8 1-3-6-8h3l3 1 1-4-1-4v2h1l2-1"/><path cx="679" cy="270" r="2.5" fill="#4C5C78" opacity=".7" d="M675.65 268.88h5.59l-3.36 4.47z"/></g><g class="key-Azerbaijan"><circle cx="390" cy="469" r="1.5" fill="#2D8587" opacity=".7"/><path stroke-width="1" opacity=".7" stroke="#2D8587" fill="none" stroke-linecap="butt" d="M390 469h-3l-41-5h-41l-35-4-20 7 7 3 13-1 9 1 15 3 13 1 12-1 13 1 12 1 35-54 43 8 32 6 12 3 10-14 5 5-4-2 1-3 7-4 2-6v-19l-7-3-1-13 1 11"/><path cx="480" cy="390" r="2.5" fill="#2D8587" opacity=".7" d="m482.26 387.28-2.03 5.21-2.95-4.75z"/></g><g class="key-Belarus"><circle cx="410" cy="445" r="1.5" fill="#4C5C78" opacity=".7"/><path stroke-width="1" opacity=".7" stroke="#4C5C78" fill="none" stroke-linecap="butt" d="m410 445-29-8-18-4-16-39 4-14 17 23 13 1 5 31 10-4 7-17 8-20 12-27 17 2 14 7 15 1 13 13 15 4 1-34 11 7 8 29 3 6 2-9 2-10-6-9-4-15 4-18"/><path cx="518" cy="341" r="2.5" fill="#4C5C78" opacity=".7" d="m515.02 342.9 3.52-4.34 1.36 5.42z"/></g><g class="key-Denmark"><circle cx="631" cy="247" r="1.5" fill="#4C5C78" opacity=".7"/><path stroke-width="1" opacity=".7" stroke="#4C5C78" fill="none" stroke-linecap="butt" d="m631 247 1-6 3-2-1-12 7 11 4 13h4l4 6h2l4 4 5 6 1-4v-7l4 2 3 2 5 4 1 3-2-4-8-17 2-8 1-3v-1l1-4 2 7 2 2 3 3 4 2"/><path cx="683" cy="244" r="2.5" fill="#4C5C78" opacity=".7" d="m681.88 240.65 3.36 4.47h-5.6z"/></g><g class="key-Finland"><circle cx="605" cy="324" r="1.5" fill="#4C5C78" opacity=".7"/><path stroke-width="1" opacity=".7" stroke="#4C5C78" fill="none" stroke-linecap="butt" d="m605 324-9-32-6-23-2-21h5l6 16 5-4 8 1 8 8 6 2 8 7 3 1 3-6 2-6 6 3 3 1 5 1 7 8 1-4-13-28 4-5 3 1-3-10-2-8-1-6v-4l4-2 4-1"/><path cx="660" cy="213" r="2.5" fill="#4C5C78" opacity=".7" d="m656.97 211.18 5.46 1.21-4.25 3.64z"/></g><g class="key-France"><circle cx="609" cy="278" r="1.5" fill="#4C5C78" opacity=".7"/><path stroke-width="1" opacity=".7" stroke="#4C5C78" fill="none" stroke-linecap="butt" d="m609 278 1-10 1-7-1-9 3-1 2 8 2-4 3 2 4 2 5 2 4 5 2-1 1-1v-5l3-2 1-5 3-3 2 1v-5l-5-11 2-2 3 2-1-6v-4l1 3 1 2h1l3 3"/><path cx="650" cy="232" r="2.5" fill="#4C5C78" opacity=".7" d="m650 228.46 1.77 5.3-5.3-1.76z"/></g><g class="key-Hong-Kong"><circle cx="585" cy="335" r="1.5" fill="#2D8587" opacity=".7"/><path stroke-width="1" opacity=".7" stroke="#2D8587" fill="none" stroke-linecap="butt" d="m585 335 7-4 8-4 7-1 5-14v-24h6l-10-28 2 6 10 12v-6l1-4 5-5 11 14 10 5 10 1 8 12 2-8-4-13 9 10 6 2v-4l4-4 3-4 3 1 2-1 4 7"/><path cx="694" cy="281" r="2.5" fill="#2D8587" opacity=".7" d="m694.93 277.59.31 5.58-4.65-3.1z"/></g><g class="key-Italy"><circle cx="621" cy="317" r="1.5" fill="#4C5C78" opacity=".7"/><path stroke-width="1" opacity=".7" stroke="#4C5C78" fill="none" stroke-linecap="butt" d="m621 317 2-10 1-7-1-10 3-1 4-5 2 1 3 1 2-2 3-6h5l3 1v-8l1-6v-5l3-3h1l-2-8-9-16 2-2 1-2-5-14-5-6-1 7h1l2 6 3 1"/><path cx="640" cy="223" r="2.5" fill="#4C5C78" opacity=".7" d="m638.42 219.84 3.95 3.95-5.53.8z"/></g><g class="key-Japan"><circle cx="602" cy="306" r="1.5" fill="#2D8587" opacity=".7"/><path stroke-width="1" opacity=".7" stroke="#2D8587" fill="none" stroke-linecap="butt" d="M602 306h4l1-7-1-9 1-6 3 1 5-4 1-5-2-7-1-7h4v-11l2-3 3-2 3-4 2-5 2-1-2-10-8-15 6 4v-6l3-2 3 3v5l2 12 1 5 4 3"/><path cx="638" cy="235" r="2.5" fill="#2D8587" opacity=".7" d="m637.5 231.5 2.5 5-5.5-1z"/></g><g class="key-Mexico"><circle cx="488" cy="338" r="1.5" fill="#E04E4B" opacity=".7"/><path stroke-width="1" opacity=".7" stroke="#E04E4B" fill="none" stroke-linecap="butt" d="m488 338 3-8 3-5v-10l4-2-12-7 8 10 7 3 5-8 2 9 5 3-2-3-2-2V173l3 28 2 2 4 11 1 2v-8l-11 18 6 6 3 8 3 15v-6h3l2 14 3 6 1 3"/><path cx="529" cy="272" r="2.5" fill="#E04E4B" opacity=".7" d="m530.58 268.84-.79 5.53-3.95-3.95z"/></g><g class="key-Netherlands"><circle cx="620" cy="320" r="1.5" fill="#4C5C78" opacity=".7"/><path stroke-width="1" opacity=".7" stroke="#4C5C78" fill="none" stroke-linecap="butt" d="m620 320 3-5 1-3 1-5 4-7 3 12 5-6 5 5 6 4 7 2 5 3h2-1v-6l2-3 3-3 5 3 5 6h3l-7-12 1-2h2l-2-7-1-7h2l2-1 3 2 3 3"/><path cx="682" cy="293" r="2.5" fill="#4C5C78" opacity=".7" d="m682 289.46 1.77 5.3-5.3-1.76z"/></g><g class="key-New-Zealand"><circle cx="582" cy="239" r="1.5" fill="#A8633C" opacity=".7"/><path stroke-width="1" opacity=".7" stroke="#A8633C" fill="none" stroke-linecap="butt" d="m582 239-9-8v8l7 12 6 2 5-33 2-7 2-8-1-7 8 11 3 10 4 15 4-2 4-1 4-1 3-2 2-3 3 4-3-12-1-5h2l3-7 3 9 3-1 2 3 2 6"/><path cx="640" cy="222" r="2.5" fill="#A8633C" opacity=".7" d="m641.58 218.84-.79 5.53-3.95-3.95z"/></g><g class="key-Norway"><circle cx="642" cy="284" r="1.5" fill="#4C5C78" opacity=".7"/><path stroke-width="1" opacity=".7" stroke="#4C5C78" fill="none" stroke-linecap="butt" d="m642 284 4-1 4-2 4 3 6 7 5 9 7 8 7 8h3l2 9 3 17 3-10 1-10v-8l5 12 3 10 3 5 2 5-1 4-4-18-1-5v11l2 7-1-6 1-1 2-13v-7l2 1 1-1"/><path cx="705" cy="318" r="2.5" fill="#4C5C78" opacity=".7" d="m701.46 318 5.3-1.77-1.76 5.3z"/></g><g class="key-Portugal"><circle cx="555" cy="369" r="1.5" fill="#4C5C78" opacity=".7"/><path stroke-width="1" opacity=".7" stroke="#4C5C78" fill="none" stroke-linecap="butt" d="m555 369 7-5 2 3-3-6 1 2 5-30 5-1 6 4 6 5 5 2h4l2-3v-5l-1-10 2-4 1-5 2-2 3-2v-9l-4-12 2-7-2-10-6-19v-3l2-7 3 4 3 3 6 4"/><path cx="606" cy="256" r="2.5" fill="#4C5C78" opacity=".7" d="m605.3 252.53 2.78 4.86-5.55-.7z"/></g><g class="key-South-Africa"><circle cx="432" cy="343" r="1.5" fill="#923E8B" opacity=".7"/><path stroke-width="1" opacity=".7" stroke="#923E8B" fill="none" stroke-linecap="butt" d="m432 343-5 6-7-4-2 4 1 4 2-2h3l1-1-1-15 1-4 4 2 2 2h4l2 2 5-16 6-4 6 2 6 3 3 6-5-7 2-2 3 1 1-2 1 5 1 1h-3v1-1"/><path cx="463" cy="324" r="2.5" fill="#923E8B" opacity=".7" d="m460.5 326.5 2.5-5 2.5 5z"/></g><g class="key-South-Korea"><circle cx="463" cy="377" r="1.5" fill="#2D8587" opacity=".7"/><path stroke-width="1" opacity=".7" stroke="#2D8587" fill="none" stroke-linecap="butt" d="m463 377 14-8 7-12 8-14 12-11 12-9 10-10 8-14-9-15 15 13 12-4 6 2 10 8 4-1 7 6 6-1 6 2 8 7 3 1 1 3 9 7h4l3-3 4-1 4 2 3 5 4 3 4 3"/><path cx="638" cy="336" r="2.5" fill="#2D8587" opacity=".7" d="m637.5 332.5 2.5 5-5.5-1z"/></g><g class="key-Switzerland"><circle cx="685" cy="273" r="1.5" fill="#4C5C78" opacity=".7"/><path stroke-width="1" opacity=".7" stroke="#4C5C78" fill="none" stroke-linecap="butt" d="m685 273-3-14-2-11-1-8v7-6l3 2 4 5 2-1 5 5 2-4-2-5h-1l3 2 4 1 5 7 4 8 2-3-5-5 3-1 2 1v-2l1-6"/><path cx="711" cy="245" r="2.5" fill="#4C5C78" opacity=".7" d="m708.12 247.05 3.3-4.52 1.63 5.35z"/></g><g class="key-United-Kingdom"><circle cx="594" cy="304" r="1.5" fill="#4C5C78" opacity=".7"/><path stroke-width="1" opacity=".7" stroke="#4C5C78" fill="none" stroke-linecap="butt" d="m594 304-2-16v-12l3-4 5 1 4-109 3 3 7 4 5 5h4l5 5 3-1 3 6 4 8 2 1 4 1 3-1 2 3-2-9-7-15 2 2 1 6 1-8 2-3 3 7 2-3 2 2 1 2"/><path cx="654" cy="179" r="2.5" fill="#4C5C78" opacity=".7" d="M655.12 175.65v5.59l-4.47-3.36z"/></g><g class="key-United-States"><circle cx="636" cy="259" r="1.5" fill="#E04E4B" opacity=".7"/><path stroke-width="1" opacity=".7" stroke="#E04E4B" fill="none" stroke-linecap="butt" d="m636 259-2-4 3 2 2-1h4l2 7 4 1 5 3h4l6 2 4-1v-8l1-1h3l4 3 4-3h4l-2-6-5-9 3 5 1 2 2 6 2 1 3-1 3-1 1-3h3"/><path cx="695" cy="253" r="2.5" fill="#E04E4B" opacity=".7" d="m692.5 250.5 5 2.5-5 2.5z"/></g><g class="key-Dominican-Republic"><circle cx="355" cy="244" r="1.5" fill="#E04E4B" opacity=".7"/><path stroke-width="1" opacity=".7" stroke="#E04E4B" fill="none" stroke-linecap="butt" d="m355 244 13-20 8-15 1-14 6-3 6 7 63 208 3-1-1 6 10-5 3-20 2 5 6 10"/><path cx="475" cy="402" r="2.5" fill="#E04E4B" opacity=".7" d="m475.86 398.57.43 5.57-4.72-3z"/></g><g class="key-Germany"><circle cx="628" cy="290" r="1.5" fill="#4C5C78" opacity=".7"/><path stroke-width="1" opacity=".7" stroke="#4C5C78" fill="none" stroke-linecap="butt" d="m628 290 1-4-2-19 3-4 2-1v-8l3-4 3 3 3 1 4-2 2-3-1 1-1-6 2 1 1-5 6 2 4 11 2-7-8-10 6 6 9 8v-3l3 9 1 6 2 5 3 3"/><path cx="676" cy="270" r="2.5" fill="#4C5C78" opacity=".7" d="m676 266.46 1.77 5.3-5.3-1.76z"/></g><g class="key-Bolivia"><circle cx="316" cy="332" r="1" fill="#932834" opacity=".8" stroke="#333" stroke-width=".5"/></g><g class="key-Czechia"><circle cx="537" cy="362" r="1.5" fill="#4C5C78" opacity=".7"/><path stroke-width="1" opacity=".7" stroke="#4C5C78" fill="none" stroke-linecap="butt" d="M537 362v-61l4-10 9 10 7 2-1-14v-14l2-3 6-5 5 1 3-10 5-2 7 5 9 2 10 1 7 4 3-9-8-24 3-6 2 4-1-2 3 19 7 7 4 2h7"/><path cx="630" cy="259" r="2.5" fill="#4C5C78" opacity=".7" d="m627.5 256.5 5 2.5-5 2.5z"/></g><g class="key-Philippines"><circle cx="292" cy="430" r="1.5" fill="#2D8587" opacity=".7"/><path stroke-width="1" opacity=".7" stroke="#2D8587" fill="none" stroke-linecap="butt" d="M292 430v-1l2 3 4 1 5 1 4-2-4-2h1l3-1 2-4 2 2 4-2 7 3 4-111 5 1 7-7 4 8v4l8-1 3-2 7-2 7-1 7 2 7 5 8 5 8-2 7-3"/><path cx="404" cy="324" r="2.5" fill="#2D8587" opacity=".7" d="m400.72 322.69 5.58.33-3.61 4.26z"/></g><g class="key-Macao"><circle cx="684" cy="343" r="1.5" fill="#2D8587" opacity=".7"/><path stroke-width="1" opacity=".7" stroke="#2D8587" fill="none" stroke-linecap="butt" d="m684 343 3-3 2 2-3-20-4-3-10 22-6-55 5-7v8l9 14 13 21"/><path cx="693" cy="322" r="2.5" fill="#2D8587" opacity=".7" d="m693.81 318.56.5 5.57-4.75-2.94z"/></g><g class="key-Moldova"><circle cx="344" cy="444" r="1.5" fill="#4C5C78" opacity=".7"/><path stroke-width="1" opacity=".7" stroke="#4C5C78" fill="none" stroke-linecap="butt" d="m344 444-9-18-8-149 53-56"/><path cx="380" cy="221" r="2.5" fill="#4C5C78" opacity=".7" d="m376.47 221.1 5.25-1.92-1.62 5.35z"/></g><g class="key-Namibia"><circle cx="358" cy="317" r="1.5" fill="#923E8B" opacity=".7"/><path stroke-width="1" opacity=".7" stroke="#923E8B" fill="none" stroke-linecap="butt" d="m358 317-1 9 2 8 2-9 3-3 2 2 2-2h2v-85l5 1 3-7 15 85 2 13 8 5 5-9 1 2h-2 6l4-10 5-11 6 14 6 18 3-28-2 11-5 14"/><path cx="430" cy="335" r="2.5" fill="#923E8B" opacity=".7" d="m433.2 333.49-4.04 3.86-.67-5.55z"/></g><g class="key-Slovakia"><circle cx="453" cy="268" r="1.5" fill="#4C5C78" opacity=".7"/><path stroke-width="1" opacity=".7" stroke="#4C5C78" fill="none" stroke-linecap="butt" d="m453 268 9 25 8 20 9-10 8-1 6-5v-22l2-14h5l6-3 8-24 8-21 10 5 12-5 15 9 8 4-9-18 9 13 4 2 2-2 1 7 4 5 7 7 3 4 4 7"/><path cx="592" cy="251" r="2.5" fill="#4C5C78" opacity=".7" d="m592.93 247.59.31 5.58-4.65-3.1z"/></g><g class="key-Sweden"><circle cx="601" cy="194" r="1.5" fill="#4C5C78" opacity=".7"/><path stroke-width="1" opacity=".7" stroke="#4C5C78" fill="none" stroke-linecap="butt" d="m601 194 5 8 5 23 2-7 5 6 6 12 6 13 7 12h1l3-1 3-2 6 7 3 1 6 8 4 5-2-4-8-16 8 4 3 3-2 1h1l2 4 5 8h1l2-1"/><path cx="673" cy="278" r="2.5" fill="#4C5C78" opacity=".7" d="M669.65 276.88h5.59l-3.36 4.47z"/></g><g class="key-Botswana"><circle cx="420" cy="399" r="1.5" fill="#923E8B" opacity=".7"/><path stroke-width="1" opacity=".7" stroke="#923E8B" fill="none" stroke-linecap="butt" d="m420 399 7-4 5 2 8 16-3 9 11 3v-3l-3 4"/><path cx="445" cy="426" r="2.5" fill="#923E8B" opacity=".7" d="m448.5 425.5-5 2.5 1-5.5z"/></g><g class="key-Colombia"><circle cx="414" cy="285" r="1.5" fill="#932834" opacity=".7"/><path stroke-width="1" opacity=".7" stroke="#932834" fill="none" stroke-linecap="butt" d="M414 285h5v-7l2-1-1-3-9 2 2-18 1 4 4 3 6 8 5 5 7 8 8 7 3 8v-5h5l9 10 4 1 6 2 5-14 3-4 1-3"/><path cx="480" cy="288" r="2.5" fill="#932834" opacity=".7" d="m477.5 285.5 5 2.5-5 2.5z"/></g><g class="key-Iran"><circle cx="416" cy="252" r="1.5" fill="#2D8587" opacity=".7"/><path stroke-width="1" opacity=".7" stroke="#2D8587" fill="none" stroke-linecap="butt" d="m416 252 1 16 6-30-1-26 1-32-1 36 7 9-1-12 9 18 10 13 5 23 3 16 6-15 10-12-2-18v-4l7 1 2-10-13-22-2 15 4-12-4-29 17 12"/><path cx="480" cy="189" r="2.5" fill="#2D8587" opacity=".7" d="m479.4 185.52 2.64 4.92-5.52-.84z"/></g><g class="key-Papua-New-Guinea"><circle cx="270" cy="423" r="1.5" fill="#A8633C" opacity=".7"/><path stroke-width="1" opacity=".7" stroke="#A8633C" fill="none" stroke-linecap="butt" d="m270 423-9 4 8 4h-10l-9 6-1 4-7 1h-3l-4 5v2"/><path cx="235" cy="449" r="2.5" fill="#A8633C" opacity=".7" d="m237.5 446.5-2.5 5-2.5-5z"/></g><g class="key-Ukraine"><circle cx="405" cy="442" r="1.5" fill="#4C5C78" opacity=".7"/><path stroke-width="1" opacity=".7" stroke="#4C5C78" fill="none" stroke-linecap="butt" d="m405 442-18-16-14-18-3 6-2-10 1 11 25-21 9-9 15 2 18 1 5-9 12-13 12-4 4 1-23-27 6-2h9v1l1-9-2 1-15 2 4 12 4 14"/><path cx="453" cy="355" r="2.5" fill="#4C5C78" opacity=".7" d="m454.72 351.9-1.03 5.5-3.78-4.12z"/></g><g class="key-Belgium"><circle cx="626" cy="268" r="1.5" fill="#4C5C78" opacity=".7"/><path stroke-width="1" opacity=".7" stroke="#4C5C78" fill="none" stroke-linecap="butt" d="m626 268 1-9 6 3 2 2 5 4 5-1 1-4 2 5h1l5 6 2 1 3-1 4 8v-14l-4-1 2-1h1v-7l2 7 2 1 1 3h2"/><path cx="669" cy="270" r="2.5" fill="#4C5C78" opacity=".7" d="m666.5 267.5 5 2.5-5 2.5z"/></g><g class="key-Bulgaria"><circle cx="442" cy="186" r="1.5" fill="#4C5C78" opacity=".7"/><path stroke-width="1" opacity=".7" stroke="#4C5C78" fill="none" stroke-linecap="butt" d="m442 186 8-105-22 81 7 41-12-45 8 54 8-1 12 9 9 3 10 21 12 16 11-2 10 12 10-4-4-15 2-6 4-2 1-6 2 3 3 1 7 3 7 13 6-3"/><path cx="541" cy="254" r="2.5" fill="#4C5C78" opacity=".7" d="M537.65 252.88h5.59l-3.36 4.47z"/></g><g class="key-Cyprus"><circle cx="585" cy="335" r="1.5" fill="#4C5C78" opacity=".7"/><path stroke-width="1" opacity=".7" stroke="#4C5C78" fill="none" stroke-linecap="butt" d="m585 335-1-8 2-4 7 1 6 3 7 1 4 3 4-5 2-4 5-6 5-13 4-13 4-2 2-12-7-13-1-13-3-2-8-16-9 7-1 6 5 8 9 13 6 3"/><path cx="627" cy="269" r="2.5" fill="#4C5C78" opacity=".7" d="m625.88 265.65 3.36 4.47h-5.6z"/></g><g class="key-Estonia"><circle cx="464" cy="317" r="1.5" fill="#4C5C78" opacity=".7"/><path stroke-width="1" opacity=".7" stroke="#4C5C78" fill="none" stroke-linecap="butt" d="m464 317 9-52 20-13 8-23-1-2 14 19 9 10 11 8 12 11 10 4 15 16 14 4 12 2-7-2-23-18 4 9 11 10 5 2 3 1 4 8 3 6 5 1 7 5"/><path cx="609" cy="323" r="2.5" fill="#4C5C78" opacity=".7" d="m608.42 319.51 2.61 4.94-5.52-.87z"/></g><g class="key-Greece"><circle cx="564" cy="251" r="1.5" fill="#4C5C78" opacity=".7"/><path stroke-width="1" opacity=".7" stroke="#4C5C78" fill="none" stroke-linecap="butt" d="m564 251 4-4 5 5 5-1 4 19 5 3 6 5 5-11 8 9 7 2v-18l8 10h4v-22l-7-14-9-16-16-26-10-23-3 13 2 17v13l3 7"/><path cx="585" cy="219" r="2.5" fill="#4C5C78" opacity=".7" d="m586.31 215.72-.33 5.58-4.26-3.61z"/></g><g class="key-Hungary"><circle cx="503" cy="306" r="1.5" fill="#4C5C78" opacity=".7"/><path stroke-width="1" opacity=".7" stroke="#4C5C78" fill="none" stroke-linecap="butt" d="m503 306 1-15 5 1 6 9 5-9 7 2 6 5 7 3 7-6 7 2 6-1 7-2v-3l2-7-10-20 2-4 3 2-1-2 3 17 7 21 5 6 4 2 7 5"/><path cx="589" cy="312" r="2.5" fill="#4C5C78" opacity=".7" d="m588.42 308.51 2.61 4.94-5.52-.87z"/></g><g class="key-Ireland"><circle cx="604" cy="341" r="1.5" fill="#4C5C78" opacity=".7"/><path stroke-width="1" opacity=".7" stroke="#4C5C78" fill="none" stroke-linecap="butt" d="m604 341 10-2 14-3 11-1 13 3h11l6-3 6-2 2-5 7 3 5 3h3l3-11-9-25-10 8 2 1v-1 1h1l11 8"/><path cx="690" cy="315" r="2.5" fill="#4C5C78" opacity=".7" d="m689.45 311.5 2.57 4.97-5.51-.92z"/></g><g class="key-Israel"><circle cx="583" cy="257" r="1.5" fill="#2D8587" opacity=".7"/><path stroke-width="1" opacity=".7" stroke="#2D8587" fill="none" stroke-linecap="butt" d="m583 257 3 14 2 3 3-7v-2l7 7-3-9-3-18-1 11 3 2 3 1 6 3 6 1 1-12-2-9 6-4 4 1v-6l4 2 3-3v3l3 1 2-4"/><path cx="630" cy="232" r="2.5" fill="#2D8587" opacity=".7" d="m626.65 233.12 4.47-3.36v5.6z"/></g><g class="key-Latvia"><circle cx="420" cy="280" r="1.5" fill="#4C5C78" opacity=".7"/><path stroke-width="1" opacity=".7" stroke="#4C5C78" fill="none" stroke-linecap="butt" d="m420 280 6-17 14 1 10-1 6-9 9 27 11 6 12-13 14-7 14 9 16 7 19-23 15 1-3-16-21-12-4 8 13 1 8-8 5 9 3-4 7 9 4-1 7 9"/><path cx="585" cy="256" r="2.5" fill="#4C5C78" opacity=".7" d="m585.44 252.5 1.1 5.47-5.05-2.4z"/></g><g class="key-Lithuania"><circle cx="437" cy="239" r="1.5" fill="#4C5C78" opacity=".7"/><path stroke-width="1" opacity=".7" stroke="#4C5C78" fill="none" stroke-linecap="butt" d="m437 239 9 18 13 14 11 16v-6l6 1 11 14 11-2 16 12 11 2 14 1 13 2 17 10 6-10-23-27 6 10 12 1 8-1h6l7 1 4 8h6l8 12"/><path cx="609" cy="315" r="2.5" fill="#4C5C78" opacity=".7" d="m609.7 311.53.69 5.55-4.86-2.77z"/></g><g class="key-Malta"><circle cx="529" cy="336" r="1.5" fill="#4C5C78" opacity=".7"/><path stroke-width="1" opacity=".7" stroke="#4C5C78" fill="none" stroke-linecap="butt" d="M529 336h5l6 1 7-2 6 4 25 4-2-2 2 2 5-1-1 1 4-1 3 1 7 7 5-5-3-9h7v2l5 6 6 7 8 18 10 10 2 1 8 5"/><path cx="644" cy="385" r="2.5" fill="#4C5C78" opacity=".7" d="m643.2 381.56 2.92 4.76-5.56-.53z"/></g><g class="key-Poland"><circle cx="461" cy="300" r="1.5" fill="#4C5C78" opacity=".7"/><path stroke-width="1" opacity=".7" stroke="#4C5C78" fill="none" stroke-linecap="butt" d="m461 300 8-5 9-20 7-3 7-9 8 2 2-21 3-15 5 3 8 5 5-5 9 5 10 11 6-1 4-17 6 1h7l2 12 2 6 5-1 6 8 5 3 7 4"/><path cx="592" cy="263" r="2.5" fill="#4C5C78" opacity=".7" d="m591.07 259.59 3.1 4.65-5.58-.31z"/></g><g class="key-Slovenia"><circle cx="542" cy="285" r="1.5" fill="#4C5C78" opacity=".7"/><path stroke-width="1" opacity=".7" stroke="#4C5C78" fill="none" stroke-linecap="butt" d="m542 285 4-4 8 3 5 2 8 2 5-5 4 1 5 6 4 7 7-1 5-5 8 6 9 10 5-4-13-25 1-6 1 2-4-5-2-4 4 13 3 2 5 4 7 7"/><path cx="621" cy="291" r="2.5" fill="#4C5C78" opacity=".7" d="m621 287.46 1.77 5.3-5.3-1.76z"/></g><g class="key-Spain"><circle cx="587" cy="316" r="1.5" fill="#4C5C78" opacity=".7"/><path stroke-width="1" opacity=".7" stroke="#4C5C78" fill="none" stroke-linecap="butt" d="m587 316 3-4 5-2h5l6 3h7l5 1 2-6 2-4 2-2 3-4 3-6 2-6-1-10-7-19v-11l-2-12-4-11-2-5 2 4 6 12 5 8 4 7"/><path cx="633" cy="249" r="2.5" fill="#4C5C78" opacity=".7" d="m633.93 245.59.31 5.58-4.65-3.1z"/></g><g class="key-Cameroon"><circle cx="226" cy="390" r="1.5" fill="#923E8B" opacity=".7"/><path stroke-width="1" opacity=".7" stroke="#923E8B" fill="none" stroke-linecap="butt" d="m226 390 3 1 3-14 2-12 2 9 2 4 2 2 3-2 6-4-1-1 1 3 3 4 1-2-1-1"/><path cx="252" cy="377" r="2.5" fill="#923E8B" opacity=".7" d="m252 380.54-1.77-5.3 5.3 1.76z"/></g><g class="key-Iceland"><circle cx="614" cy="316" r="1.5" fill="#4C5C78" opacity=".7"/><path stroke-width="1" opacity=".7" stroke="#4C5C78" fill="none" stroke-linecap="butt" d="m614 316 8 5 9 4 4-3 5-10 4 8-1-8 2-17 10-4 7-2 5 1 9-6v-12l-12-18-4-6 2-3 1-3 5 1 1 1 5 12"/><path cx="674" cy="256" r="2.5" fill="#4C5C78" opacity=".7" d="m675.35 252.73-.39 5.58-4.23-3.66z"/></g><g class="key-Kenya"><circle cx="249" cy="398" r="1.5" fill="#923E8B" opacity=".7"/><path stroke-width="1" opacity=".7" stroke="#923E8B" fill="none" stroke-linecap="butt" d="m249 398-4-4 1-2-1-10-3-8 1 2-3-2v5h4l4-6h5l6 4-4 2h9l5 14 2-3 5-55 4 5 5 7 5-4 3 6 6 1"/><path cx="299" cy="350" r="2.5" fill="#923E8B" opacity=".7" d="m296.95 347.12 4.52 3.3-5.35 1.63z"/></g><g class="key-Canada"><circle cx="610" cy="241" r="1.5" fill="#E04E4B" opacity=".7"/><path stroke-width="1" opacity=".7" stroke="#E04E4B" fill="none" stroke-linecap="butt" d="m610 241 3 3 5 7 5 11 1-2h3l5-1 4 5 6 2 4 1 9-2v-2l-7-19 3 4 4 4 1-2 1-2h3v-14l2 5"/><path cx="662" cy="239" r="2.5" fill="#E04E4B" opacity=".7" d="m663.4 235.75-.47 5.57-4.18-3.71z"/></g><g class="key-Lebanon"><circle cx="482" cy="252" r="1" fill="#2D8587" opacity=".8" stroke="#333" stroke-width=".5"/></g><g class="key-Niger"><circle cx="79" cy="303" r="1.5" fill="#923E8B" opacity=".7"/><path stroke-width="1" opacity=".7" stroke="#923E8B" fill="none" stroke-linecap="butt" d="m79 303 8-1h-5l-7-1 5 50 1-1-2-5-5-9 5 16 3 2-1-2 5 7-2-8 6 3-2-5 9 12 2 1 4 7v-2"/><path cx="103" cy="367" r="2.5" fill="#923E8B" opacity=".7" d="m100.5 369.5 2.5-5 2.5 5z"/></g><g class="key-North-Macedonia"><circle cx="415" cy="239" r="1.5" fill="#4C5C78" opacity=".7"/><path stroke-width="1" opacity=".7" stroke="#4C5C78" fill="none" stroke-linecap="butt" d="m415 239 4 6 6 11 5-3-5 9 2-31 3-56 7-6 6 46 7 2 10 9 7-8v-9l5 12 3-1"/><path cx="475" cy="220" r="2.5" fill="#4C5C78" opacity=".7" d="m471.84 218.42 5.53.79-3.95 3.95z"/></g><g class="key-Sri-Lanka"><circle cx="337" cy="397" r="1.5" fill="#2D8587" opacity=".7"/><path stroke-width="1" opacity=".7" stroke="#2D8587" fill="none" stroke-linecap="butt" d="m337 397 6 1 7-2-3-7 5-43 7-1 7 5 7 10h10l9-10 8-28 4 23 10 17 11-1 13 2 4-8 6-1 6 4 4-6 4 7h3"/><path cx="465" cy="359" r="2.5" fill="#2D8587" opacity=".7" d="m462.5 356.5 5 2.5-5 2.5z"/></g><g class="key-Burkina-Faso"><circle cx="125" cy="449" r="1.5" fill="#923E8B" opacity=".7"/><path stroke-width="1" opacity=".7" stroke="#923E8B" fill="none" stroke-linecap="butt" d="m125 449-1-66 5 41 2-18 7-2 2-2h8l4-7 2-1 4 1 7 3 5 7 5-7 4-10 2-3"/><path cx="181" cy="385" r="2.5" fill="#923E8B" opacity=".7" d="m177.53 385.7 4.86-2.78-.7 5.55z"/></g><g class="key-Croatia"><circle cx="511" cy="245" r="1.5" fill="#4C5C78" opacity=".7"/><path stroke-width="1" opacity=".7" stroke="#4C5C78" fill="none" stroke-linecap="butt" d="m511 245 6-3 10 7 8-2 8 15 6 3 6 35 8 6 7 9"/><path cx="570" cy="315" r="2.5" fill="#4C5C78" opacity=".7" d="m570.44 311.5 1.1 5.47-5.05-2.4z"/></g><g class="key-India"><circle cx="223" cy="352" r="1.5" fill="#2D8587" opacity=".7"/><path stroke-width="1" opacity=".7" stroke="#2D8587" fill="none" stroke-linecap="butt" d="m223 352 3-12 4-2h3l9 6 9-8 9 6 9 4 9 1 3-5 9 2 10 4 6-31 6-2h7l9 2 10 7 10 6"/><path cx="348" cy="330" r="2.5" fill="#2D8587" opacity=".7" d="m347.14 326.57 3 4.72-5.57-.43z"/></g><g class="key-Mauritania"><circle cx="314" cy="388" r="1.5" fill="#923E8B" opacity=".7"/><path stroke-width="1" opacity=".7" stroke="#923E8B" fill="none" stroke-linecap="butt" d="m314 388-10 5-5-2-2 2 6 5 2 6 8-1 21 12-7-5-5 40-4-5"/><path cx="318" cy="445" r="2.5" fill="#923E8B" opacity=".7" d="m317.61 448.51-1.17-5.46 5.07 2.34z"/></g><g class="key-Belize"><circle cx="366" cy="375" r="1.5" fill="#E04E4B" opacity=".7"/><path stroke-width="1" opacity=".7" stroke="#E04E4B" fill="none" stroke-linecap="butt" d="M366 375h2l3 4 9-2 3 3-1-4 3-1-3 1 1 6-3-9 1 1-1 4v1l-1-5 2 4 1 3-3 2"/><path cx="379" cy="383" r="2.5" fill="#E04E4B" opacity=".7" d="m376.5 380.5 5 2.5-5 2.5z"/></g><g class="key-Bhutan"><circle cx="294" cy="262" r="1.5" fill="#2D8587" opacity=".7"/><path stroke-width="1" opacity=".7" stroke="#2D8587" fill="none" stroke-linecap="butt" d="m294 262 8 1 13 5 8-5 6 2 9 16 8 9 23 35 6-22 8-22 15 6 10 12 5 8 2-28 6 3 8 10 10-4 5 98"/><path cx="444" cy="386" r="2.5" fill="#2D8587" opacity=".7" d="m446.37 383.38-2.24 5.12-2.75-4.87z"/></g><g class="key-Honduras"><circle cx="295" cy="349" r="1.5" fill="#E04E4B" opacity=".7"/><path stroke-width="1" opacity=".7" stroke="#E04E4B" fill="none" stroke-linecap="butt" d="M295 349v-5l2-13 3-7 5-6h5l6-2 6-1 3-9-7 4 3-7 2-11 3-1 2-4 2 4 3 22 3 8"/><path cx="336" cy="321" r="2.5" fill="#E04E4B" opacity=".7" d="m337.46 317.78-.58 5.56-4.1-3.8z"/></g><g class="key-Kyrgyzstan"><circle cx="252" cy="424" r="1.5" fill="#2D8587" opacity=".7"/><path stroke-width="1" opacity=".7" stroke="#2D8587" fill="none" stroke-linecap="butt" d="m252 424 7-25-2-12 9-57 8 51-2-15 25-20 6 18 13-13"/><path cx="316" cy="351" r="2.5" fill="#2D8587" opacity=".7" d="m312.46 351 5.3-1.77-1.76 5.3z"/></g><g class="key-Mongolia"><circle cx="310" cy="234" r="1.5" fill="#2D8587" opacity=".7"/><path stroke-width="1" opacity=".7" stroke="#2D8587" fill="none" stroke-linecap="butt" d="m310 234 3 11 5-3 9 19 13 41 9 20 10 15 13 8 10-29-4-32 7 34 21 22 14 3 13-2 9 6v-19l-1 2 5 46 8-3"/><path cx="454" cy="373" r="2.5" fill="#2D8587" opacity=".7" d="m450.78 371.54 5.56.58-3.8 4.1z"/></g><g class="key-Guatemala"><circle cx="363" cy="241" r="1.5" fill="#E04E4B" opacity=".7"/><path stroke-width="1" opacity=".7" stroke="#E04E4B" fill="none" stroke-linecap="butt" d="m363 241 3 5v-4l2 2h1l5 3 6 11 2 6-2 2 2 2 3 12 2 4"/><path cx="387" cy="284" r="2.5" fill="#E04E4B" opacity=".7" d="M388.12 280.65v5.59l-4.47-3.36z"/></g><g class="key-Sierra-Leone"><circle cx="79" cy="313" r="1.5" fill="#923E8B" opacity=".7"/><path stroke-width="1" opacity=".7" stroke="#923E8B" fill="none" stroke-linecap="butt" d="m79 313 28 25 7 24 3 15v-2l2 2 7-4 5-2 1-1 4 14 6-5"/><path cx="142" cy="379" r="2.5" fill="#923E8B" opacity=".7" d="m138.48 378.68 5.44-1.28-2.24 5.12z"/></g><g class="key-Vanuatu"><circle cx="243" cy="397" r="1.5" fill="#A8633C" opacity=".7"/><path stroke-width="1" opacity=".7" stroke="#A8633C" fill="none" stroke-linecap="butt" d="m243 397-11-11 2 2 2 3 4 4 9 6v1"/><path cx="249" cy="402" r="2.5" fill="#A8633C" opacity=".7" d="m251.5 399.5-2.5 5-2.5-5z"/></g><g class="key-Laos"><circle cx="254" cy="343" r="1.5" fill="#2D8587" opacity=".7"/><path stroke-width="1" opacity=".7" stroke="#2D8587" fill="none" stroke-linecap="butt" d="m254 343 6-8 7-4 8-13"/><path cx="275" cy="318" r="2.5" fill="#2D8587" opacity=".7" d="m271.56 318.82 4.75-2.95-.5 5.57z"/></g><g class="key-Serbia"><circle cx="430" cy="127" r="1.5" fill="#4C5C78" opacity=".7"/><path stroke-width="1" opacity=".7" stroke="#4C5C78" fill="none" stroke-linecap="butt" d="m430 127 7 4 13 8 8 37 8 15 10 14 9 13-3-12 1-9 4 2v-2l5 14-2-10 4 8 5 5 4 5"/><path cx="503" cy="219" r="2.5" fill="#4C5C78" opacity=".7" d="m503.39 215.49 1.17 5.46-5.07-2.34z"/></g><g class="key-Chile"><circle cx="505" cy="307" r="1.5" fill="#932834" opacity=".7"/><path stroke-width="1" opacity=".7" stroke="#932834" fill="none" stroke-linecap="butt" d="m505 307 9 14 7 6 7 14 6-2 3-37-4 8 7 13 8 1 6 3 4-2 1-4"/><path cx="559" cy="321" r="2.5" fill="#932834" opacity=".7" d="m555.97 322.82 3.64-4.25 1.2 5.46z"/></g><g class="key-Brazil"><circle cx="459" cy="209" r="1.5" fill="#932834" opacity=".7"/><path stroke-width="1" opacity=".7" stroke="#932834" fill="none" stroke-linecap="butt" d="M459 209h3l4 7 7 10 6 9-1-4 9 15 4-2 2-6 3-4-1-8-6-18-6-8"/><path cx="483" cy="200" r="2.5" fill="#932834" opacity=".7" d="m482.5 203.5-1-5.5 5 2.5z"/></g><g class="key-Nigeria"><circle cx="291" cy="337" r="1.5" fill="#923E8B" opacity=".7"/><path stroke-width="1" opacity=".7" stroke="#923E8B" fill="none" stroke-linecap="butt" d="m291 337 5 21h19"/><path cx="315" cy="358" r="2.5" fill="#923E8B" opacity=".7" d="m312.5 355.5 5 2.5-5 2.5z"/></g><g class="key-Thailand"><circle cx="459" cy="380" r="1.5" fill="#2D8587" opacity=".7"/><path stroke-width="1" opacity=".7" stroke="#2D8587" fill="none" stroke-linecap="butt" d="m459 380 6 4 7 3 2 5-2-2 10 5 1 1 9-1h4v-3l4-1 5 3 5 2"/><path cx="510" cy="396" r="2.5" fill="#2D8587" opacity=".7" d="m508.6 392.75 3.72 4.18-5.57.46z"/></g><g class="key-Nicaragua"><circle cx="307" cy="270" r="1.5" fill="#E04E4B" opacity=".7"/><path stroke-width="1" opacity=".7" stroke="#E04E4B" fill="none" stroke-linecap="butt" d="m307 270 5 6 3 11-7-11 5 3 7 6 7 8h5l5 2"/><path cx="337" cy="295" r="2.5" fill="#E04E4B" opacity=".7" d="m335.6 291.75 3.72 4.18-5.57.46z"/></g><g class="key-Russia"><circle cx="564" cy="405" r="1.5" fill="#4C5C78" opacity=".7"/><path stroke-width="1" opacity=".7" stroke="#4C5C78" fill="none" stroke-linecap="butt" d="m564 405-13-15h7l6-74 6-2 2 2"/><path cx="572" cy="316" r="2.5" fill="#4C5C78" opacity=".7" d="m572 312.46 1.77 5.3-5.3-1.76z"/></g><g class="key-Turkey"><circle cx="521" cy="256" r="1.5" fill="#2D8587" opacity=".7"/><path stroke-width="1" opacity=".7" stroke="#2D8587" fill="none" stroke-linecap="butt" d="m521 256 10 11 14 13 4 4 10 7 5 8 6 5"/><path cx="570" cy="304" r="2.5" fill="#2D8587" opacity=".7" d="m569.68 300.48 2.24 5.12-5.44-1.28z"/></g><g class="key-Malaysia"><circle cx="535" cy="337" r="1.5" fill="#2D8587" opacity=".7"/><path stroke-width="1" opacity=".7" stroke="#2D8587" fill="none" stroke-linecap="butt" d="m535 337 5 4 6-1 5-5 7-1"/><path cx="558" cy="334" r="2.5" fill="#2D8587" opacity=".7" d="m555.17 331.88 5.3 1.77-4.6 3.18z"/></g><g class="key-Montenegro"><circle cx="505" cy="255" r="1.5" fill="#4C5C78" opacity=".7"/><path stroke-width="1" opacity=".7" stroke="#4C5C78" fill="none" stroke-linecap="butt" d="m505 255 4-2-4-16 5 5"/><path cx="510" cy="242" r="2.5" fill="#4C5C78" opacity=".7" d="m510 238.46 1.77 5.3-5.3-1.76z"/></g><g class="key-Zambia"><circle cx="255" cy="373" r="1.5" fill="#923E8B" opacity=".7"/><path stroke-width="1" opacity=".7" stroke="#923E8B" fill="none" stroke-linecap="butt" d="m255 373 3-6 6-9 3-1 2-9v-16l1 13 1 6"/><path cx="271" cy="351" r="2.5" fill="#923E8B" opacity=".7" d="m273.05 348.12-1.64 5.35-3.29-4.52z"/></g><g class="key-San-Marino"><circle cx="707" cy="288" r="1.5" fill="#4C5C78" opacity=".7"/><path stroke-width="1" opacity=".7" stroke="#4C5C78" fill="none" stroke-linecap="butt" d="m707 288-13-5"/><path cx="694" cy="283" r="2.5" fill="#4C5C78" opacity=".7" d="m695.44 286.23-3.77-4.13 5.56-.54z"/></g><g class="key-Costa-Rica"><circle cx="515" cy="275" r="1.5" fill="#E04E4B" opacity=".7"/><path stroke-width="1" opacity=".7" stroke="#E04E4B" fill="none" stroke-linecap="butt" d="m515 275 2-5 4 10 4 8 4 3"/><path cx="529" cy="291" r="2.5" fill="#E04E4B" opacity=".7" d="m528.5 287.5 2.5 5-5.5-1z"/></g><g class="key-Senegal"><circle cx="242" cy="293" r="1.5" fill="#923E8B" opacity=".7"/><path stroke-width="1" opacity=".7" stroke="#923E8B" fill="none" stroke-linecap="butt" d="m242 293 5 6 5 3 6 9"/><path cx="258" cy="311" r="2.5" fill="#923E8B" opacity=".7" d="m258.7 307.53.69 5.55-4.86-2.77z"/></g><g class="backgroundLabels" fill="#333" font-size="11.55" font-weight="400"><text x="668" y="247" fill="#A8633C" style="fill:#fff;stroke:#fff;stroke-linecap:round;stroke-linejoin:round;stroke-width:.25em">Australia</text><text x="668" y="247" fill="#A8633C">Australia</text><text x="647.44" y="267.76" fill="#4C5C78" style="fill:#fff;stroke:#fff;stroke-linecap:round;stroke-linejoin:round;stroke-width:.25em">Austria</text><text x="647.44" y="267.76" fill="#4C5C78">Austria</text><text x="480.45" y="400.75" fill="#2D8587" style="fill:#fff;stroke:#fff;stroke-linecap:round;stroke-linejoin:round;stroke-width:.25em">Azerbaijan</text><text x="480.45" y="400.75" fill="#2D8587">Azerbaijan</text><text x="519.08" y="336.12" fill="#4C5C78" style="fill:#fff;stroke:#fff;stroke-linecap:round;stroke-linejoin:round;stroke-width:.25em">Belarus</text><text x="519.08" y="336.12" fill="#4C5C78">Belarus</text><text x="664.85" y="211.79" fill="#4C5C78" style="fill:#fff;stroke:#fff;stroke-linecap:round;stroke-linejoin:round;stroke-width:.25em">Finland</text><text x="664.85" y="211.79" fill="#4C5C78">Finland</text><text x="638.38" y="291.12" fill="#2D8587" style="fill:#fff;stroke:#fff;stroke-linecap:round;stroke-linejoin:round;stroke-width:.25em">Hong Kong</text><text x="638.38" y="291.12" fill="#2D8587">Hong Kong</text><text x="530.58" y="282.52" fill="#E04E4B" style="fill:#fff;stroke:#fff;stroke-linecap:round;stroke-linejoin:round;stroke-width:.25em">Mexico</text><text x="530.58" y="282.52" fill="#E04E4B">Mexico</text><text x="669.38" y="314.46" fill="#4C5C78" style="fill:#fff;stroke:#fff;stroke-linecap:round;stroke-linejoin:round;stroke-width:.25em">Norway</text><text x="669.38" y="314.46" fill="#4C5C78">Norway</text><text x="642" y="344.77" fill="#2D8587" style="fill:#fff;stroke:#fff;stroke-linecap:round;stroke-linejoin:round;stroke-width:.25em">South Korea</text><text x="642" y="344.77" fill="#2D8587">South Korea</text><text x="573.77" y="189.25" fill="#4C5C78" style="fill:#fff;stroke:#fff;stroke-linecap:round;stroke-linejoin:round;stroke-width:.25em">United Kingdom</text><text x="573.77" y="189.25" fill="#4C5C78">United Kingdom</text><text x="316" y="330" fill="#932834" style="fill:#fff;stroke:#fff;stroke-linecap:round;stroke-linejoin:round;stroke-width:.25em">Bolivia</text><text x="316" y="330" fill="#932834">Bolivia</text><text x="408.6" y="322.03" fill="#2D8587" style="fill:#fff;stroke:#fff;stroke-linecap:round;stroke-linejoin:round;stroke-width:.25em">Philippines</text><text x="408.6" y="322.03" fill="#2D8587">Philippines</text><text x="383.44" y="217.37" fill="#4C5C78" style="fill:#fff;stroke:#fff;stroke-linecap:round;stroke-linejoin:round;stroke-width:.25em">Moldova</text><text x="383.44" y="217.37" fill="#4C5C78">Moldova</text><text x="385.93" y="345.48" fill="#923E8B" style="fill:#fff;stroke:#fff;stroke-linecap:round;stroke-linejoin:round;stroke-width:.25em">Namibia</text><text x="385.93" y="345.48" fill="#923E8B">Namibia</text><text x="594.48" y="261.12" fill="#4C5C78" style="fill:#fff;stroke:#fff;stroke-linecap:round;stroke-linejoin:round;stroke-width:.25em">Slovakia</text><text x="594.48" y="261.12" fill="#4C5C78">Slovakia</text><text x="391.06" y="435.77" fill="#923E8B" style="fill:#fff;stroke:#fff;stroke-linecap:round;stroke-linejoin:round;stroke-width:.25em">Botswana</text><text x="391.06" y="435.77" fill="#923E8B">Botswana</text><text x="484.08" y="197.66" fill="#2D8587" style="fill:#fff;stroke:#fff;stroke-linecap:round;stroke-linejoin:round;stroke-width:.25em">Iran</text><text x="484.08" y="197.66" fill="#2D8587">Iran</text><text x="235" y="459.77" fill="#A8633C" style="fill:#fff;stroke:#fff;stroke-linecap:round;stroke-linejoin:round;stroke-width:.25em">Papua New Guinea</text><text x="235" y="459.77" fill="#A8633C">Papua New Guinea</text><text x="454.37" y="365.58" fill="#4C5C78" style="fill:#fff;stroke:#fff;stroke-linecap:round;stroke-linejoin:round;stroke-width:.25em">Ukraine</text><text x="454.37" y="365.58" fill="#4C5C78">Ukraine</text><text x="545.47" y="251.76" fill="#4C5C78" style="fill:#fff;stroke:#fff;stroke-linecap:round;stroke-linejoin:round;stroke-width:.25em">Bulgaria</text><text x="545.47" y="251.76" fill="#4C5C78">Bulgaria</text><text x="586.97" y="229.37" fill="#4C5C78" style="fill:#fff;stroke:#fff;stroke-linecap:round;stroke-linejoin:round;stroke-width:.25em">Greece</text><text x="586.97" y="229.37" fill="#4C5C78">Greece</text><text x="593.07" y="320.68" fill="#4C5C78" style="fill:#fff;stroke:#fff;stroke-linecap:round;stroke-linejoin:round;stroke-width:.25em">Hungary</text><text x="593.07" y="320.68" fill="#4C5C78">Hungary</text><text x="648.24" y="393.42" fill="#4C5C78" style="fill:#fff;stroke:#fff;stroke-linecap:round;stroke-linejoin:round;stroke-width:.25em">Malta</text><text x="648.24" y="393.42" fill="#4C5C78">Malta</text><text x="194.41" y="373.46" fill="#923E8B" style="fill:#fff;stroke:#fff;stroke-linecap:round;stroke-linejoin:round;stroke-width:.25em">Cameroon</text><text x="194.41" y="373.46" fill="#923E8B">Cameroon</text><text x="303.93" y="356.6" fill="#923E8B" style="fill:#fff;stroke:#fff;stroke-linecap:round;stroke-linejoin:round;stroke-width:.25em">Kenya</text><text x="303.93" y="356.6" fill="#923E8B">Kenya</text><text x="482" y="250" fill="#2D8587" style="fill:#fff;stroke:#fff;stroke-linecap:round;stroke-linejoin:round;stroke-width:.25em">Lebanon</text><text x="482" y="250" fill="#2D8587">Lebanon</text><text x="103" y="362" fill="#923E8B" style="fill:#fff;stroke:#fff;stroke-linecap:round;stroke-linejoin:round;stroke-width:.25em">Niger</text><text x="103" y="362" fill="#923E8B">Niger</text><text x="479.74" y="218.42" fill="#4C5C78" style="fill:#fff;stroke:#fff;stroke-linecap:round;stroke-linejoin:round;stroke-width:.25em">North Macedonia</text><text x="479.74" y="218.42" fill="#4C5C78">North Macedonia</text><text x="260.82" y="441.1" fill="#923E8B" style="fill:#fff;stroke:#fff;stroke-linecap:round;stroke-linejoin:round;stroke-width:.25em">Mauritania</text><text x="260.82" y="441.1" fill="#923E8B">Mauritania</text><text x="379" y="383" fill="#E04E4B" style="fill:#fff;stroke:#fff;stroke-linecap:round;stroke-linejoin:round;stroke-width:.25em">Belize</text><text x="379" y="383" fill="#E04E4B">Belize</text><text x="389.24" y="294.25" fill="#E04E4B" style="fill:#fff;stroke:#fff;stroke-linecap:round;stroke-linejoin:round;stroke-width:.25em">Guatemala</text><text x="389.24" y="294.25" fill="#E04E4B">Guatemala</text><text x="249" y="412.77" fill="#A8633C" style="fill:#fff;stroke:#fff;stroke-linecap:round;stroke-linejoin:round;stroke-width:.25em">Vanuatu</text><text x="249" y="412.77" fill="#A8633C">Vanuatu</text><text x="277.62" y="313.74" fill="#2D8587" style="fill:#fff;stroke:#fff;stroke-linecap:round;stroke-linejoin:round;stroke-width:.25em">Laos</text><text x="277.62" y="313.74" fill="#2D8587">Laos</text><text x="560.21" y="316.15" fill="#932834" style="fill:#fff;stroke:#fff;stroke-linecap:round;stroke-linejoin:round;stroke-width:.25em">Chile</text><text x="560.21" y="316.15" fill="#932834">Chile</text></g></g><g class="ScatterColorLegend clickable" style="cursor:pointer"><g class="legendMark"><path fill="#923E8B" d="M738.09 83h9v9h-9z"/><text font-size="12.6" x="752.1" y="91.3"><tspan x="752.09" y="91.28">Africa</tspan></text></g><g class="legendMark"><path fill="#2D8587" d="M738.09 100.6h9v9h-9z"/><text font-size="12.6" x="752.1" y="108.9"><tspan x="752.09" y="108.88">Asia</tspan></text></g><g class="legendMark"><path fill="#4C5C78" d="M738.09 118.2h9v9h-9z"/><text font-size="12.6" x="752.1" y="126.5"><tspan x="752.09" y="126.48">Europe</tspan></text></g><g class="legendMark"><path fill="#E04E4B" d="M738.09 135.8h9v9h-9z"/><text font-size="12.6" x="752.1" y="144.1"><tspan x="752.09" y="144.08">North America</tspan></text></g><g class="legendMark"><path fill="#A8633C" d="M738.09 153.4h9v9h-9z"/><text font-size="12.6" x="752.1" y="161.7"><tspan x="752.09" y="161.68">Oceania</tspan></text></g><g class="legendMark"><path fill="#932834" d="M738.09 171h9v9h-9z"/><text font-size="12.6" x="752.1" y="179.3"><tspan x="752.09" y="179.28">South America</tspan></text></g></g><path stroke="#ccc" d="M738.09 187.8H830"/><g class="clickable"><g class="ConnectedScatterLegend"><text font-size="12.6" x="738.1" y="204.9" fill="#333"><tspan x="738.09" y="204.88">1990</tspan></text><text font-size="12.6" x="806.8" y="204.9" fill="#333"><tspan x="806.78" y="204.88">2018</tspan></text><path stroke="#666" stroke-width="1" d="M771.32 200.6h30.46"/><circle cx="771.32" cy="200.6" r="2" fill="#666" stroke="#ccc" stroke-width=".2"/><circle cx="781.47" cy="200.6" r="2" fill="#666" stroke="#ccc" stroke-width=".2"/><circle cx="791.62" cy="200.6" r="2" fill="#666" stroke="#ccc" stroke-width=".2"/><path cx="801.78" cy="200.6" r="3" fill="#666" stroke="#ccc" stroke-width=".2" d="m798.78 197.6 6 3-6 3z"/></g></g></g><g class="SourcesFooter" style="fill:#777"><g style="fill:#777"><text font-size="12.6" x="15" y="554.2"><tspan x="15" y="554.18">Source: Household expenditure on Housing, water, electricity, gas and other fuels as a share of GDP - UN, Data compiled from multiple sources</tspan><tspan x="15" y="568.04">by World Bank</tspan></text></g><text font-size="12.6" x="15" y="582.5"><tspan x="15" y="582.48"><a style="fill:#777" class="cclogo" href="http://creativecommons.org/licenses/by/4.0/deed.en_US" target="_blank">CC BY</a></tspan></text></g></svg>