<svg xmlns="http://www.w3.org/2000/svg" version="1.1" style="background-color:#fff;-webkit-font-smoothing:antialiased" width="850" height="600" viewBox="0 0 850 600" font-family="Lato,'Helvetica Neue',Helvetica,Arial,sans-serif" font-size="18" text-rendering="optimizeLegibility"><g class="HeaderView"><g transform="matrix(.29 0 0 .29 774 15)"><svg className="owidLog" width="210" height="120" viewBox="0 0 210 120" fill="none" xmlns="http://www.w3.org/2000/svg"><g clip-path="url(#clip0)"><path d="M0 0h210v107.89H0V0z" fill="#002147"/><path d="M40.98 32.25c0 2.36-.38 4.53-1.12 6.51a14.26 14.26 0 01-8.1 8.4c-1.9.78-4.02 1.17-6.34 1.17a16.6 16.6 0 01-6.33-1.17 14.31 14.31 0 01-8.08-8.4 18.29 18.29 0 01-1.12-6.51c0-2.36.38-4.53 1.12-6.5.75-1.97 1.8-3.67 3.17-5.1a14.32 14.32 0 014.9-3.34c1.92-.8 4.03-1.19 6.34-1.19 2.32 0 4.43.4 6.34 1.19 1.92.8 3.56 1.9 4.93 3.34a14.87 14.87 0 013.17 5.1 18.1 18.1 0 011.12 6.5zm-4.38 0c0-1.94-.26-3.68-.8-5.22a10.91 10.91 0 00-2.24-3.89 9.68 9.68 0 00-3.52-2.46 11.95 11.95 0 00-4.62-.86c-1.68 0-3.21.28-4.6.86a9.88 9.88 0 00-3.54 2.46 10.91 10.91 0 00-2.24 3.9c-.53 1.53-.8 3.27-.8 5.2 0 1.94.27 3.68.8 5.22a11.17 11.17 0 002.24 3.9 10.01 10.01 0 003.55 2.44c1.38.56 2.9.83 4.6.83s3.24-.27 4.61-.83a9.8 9.8 0 003.52-2.44 11.17 11.17 0 002.25-3.9c.53-1.54.8-3.28.8-5.21zm26.22-6.54V48H60.5c-.56 0-.9-.27-1.05-.81l-.31-2.4a12.45 12.45 0 01-3.26 2.6c-1.2.64-2.58.96-4.13.96-1.22 0-2.3-.2-3.24-.6a6.52 6.52 0 01-2.33-1.7 7.37 7.37 0 01-1.43-2.67c-.3-1.04-.46-2.2-.46-3.45V25.7h3.91v14.22c0 1.68.38 2.99 1.15 3.91.77.93 1.96 1.39 3.54 1.39 1.16 0 2.24-.27 3.23-.82a10.42 10.42 0 002.8-2.28V25.7h3.91zm8.61 4.47a9.94 9.94 0 012.6-3.56 5.64 5.64 0 013.76-1.3c.47 0 .92.05 1.34.15.44.1.83.27 1.17.49l-.3 2.92c-.09.37-.3.55-.66.55-.2 0-.5-.04-.9-.13a6.21 6.21 0 00-3.24.18 4.23 4.23 0 00-1.47.92c-.42.4-.81.9-1.17 1.5-.33.58-.64 1.26-.92 2.02V48H67.7V25.71h2.25c.42 0 .72.08.88.25.16.16.27.44.33.83l.26 3.39zm61.16-13.7L122.75 48h-3.82l-7.99-24.05a21.95 21.95 0 01-.42-1.58 38.36 38.36 0 01-.44 1.58L102.05 48h-3.83L88.4 16.47h3.54c.38 0 .7.1.95.29.26.2.43.43.5.73l6.52 21.9.28 1.28.29 1.46.3-1.46.38-1.27 7.41-21.91c.1-.25.26-.48.51-.69.27-.22.58-.33.95-.33h1.23c.38 0 .69.1.92.29a1.77 1.77 0 01.53.73l7.4 21.9a28.4 28.4 0 01.68 2.62 29.52 29.52 0 01.52-2.61l6.54-21.91a1.31 1.31 0 01.48-.7c.27-.21.58-.32.95-.32h3.32zm9.35 8.88c1.63 0 3.1.27 4.4.82a9.43 9.43 0 015.46 5.94c.5 1.4.74 2.98.74 4.73 0 1.76-.25 3.34-.74 4.75a9.43 9.43 0 01-5.46 5.92c-1.3.52-2.77.79-4.4.79-1.64 0-3.12-.27-4.44-.8a9.42 9.42 0 01-3.35-2.3c-.92-1-1.63-2.2-2.13-3.61-.49-1.41-.73-3-.73-4.75s.24-3.33.73-4.73c.5-1.43 1.2-2.64 2.13-3.63a9.4 9.4 0 013.35-2.31c1.32-.55 2.8-.82 4.44-.82zm0 19.89c2.2 0 3.84-.73 4.93-2.2 1.08-1.48 1.63-3.54 1.63-6.18 0-2.66-.55-4.72-1.63-6.2-1.09-1.49-2.73-2.23-4.93-2.23-1.12 0-2.09.2-2.93.57a5.71 5.71 0 00-2.06 1.65 7.5 7.5 0 00-1.24 2.67c-.26 1.04-.4 2.22-.4 3.54 0 2.64.55 4.7 1.64 6.18 1.1 1.47 2.76 2.2 4.99 2.2zm17.97-15.07a9.94 9.94 0 012.6-3.56 5.64 5.64 0 013.76-1.3c.47 0 .91.05 1.34.15.44.1.83.27 1.16.49l-.28 2.92c-.09.37-.31.55-.66.55-.2 0-.5-.04-.9-.13a6.2 6.2 0 00-3.24.18 4.23 4.23 0 00-1.47.92c-.43.4-.82.9-1.17 1.5a13.1 13.1 0 00-.92 2.02V48h-3.94V25.71h2.24c.43 0 .72.08.88.25.17.16.28.44.33.83l.27 3.39zm15.04-14.59V48h-3.92V15.6h3.92zm19.55 15.43a6.22 6.22 0 00-2.38-2.05 6.7 6.7 0 00-2.86-.6c-2.07 0-3.66.75-4.77 2.23-1.12 1.48-1.68 3.6-1.68 6.33 0 1.46.13 2.7.38 3.74a7.29 7.29 0 001.1 2.56 4.35 4.35 0 001.78 1.45c.7.3 1.5.46 2.4.46 1.29 0 2.41-.3 3.36-.88a9.6 9.6 0 002.67-2.49V31.02zm3.91-15.43V48h-2.33c-.56 0-.9-.27-1.06-.81l-.35-2.71a12.13 12.13 0 01-3.25 2.77 8.28 8.28 0 01-4.23 1.06 7.31 7.31 0 01-6.14-2.9c-.73-.96-1.3-2.15-1.69-3.57a18.35 18.35 0 01.07-9.48 11.29 11.29 0 011.89-3.7 8.7 8.7 0 017.06-3.34 7.96 7.96 0 016.12 2.62V15.59h3.91zM46.61 70.71V93H42.7V70.71h3.91zm.84-7c0 .39-.08.75-.24 1.09a2.81 2.81 0 01-1.52 1.47 2.67 2.67 0 01-2.16 0 2.9 2.9 0 01-1.45-1.47 2.67 2.67 0 010-2.16c.15-.35.35-.65.6-.9.25-.27.53-.47.85-.62a2.67 2.67 0 012.16 0c.35.15.65.35.9.62.27.25.47.55.62.9.16.34.24.7.24 1.08zm7.97 10.24c.49-.54 1-1.04 1.54-1.48a9.85 9.85 0 013.66-1.84 8.96 8.96 0 015.43.35c.94.4 1.72.97 2.33 1.71a7.36 7.36 0 011.43 2.67c.32 1.04.49 2.19.49 3.45V93h-3.94V78.81c0-1.69-.4-3-1.17-3.92-.76-.93-1.93-1.4-3.5-1.4a6.6 6.6 0 00-3.25.83c-1 .56-1.92 1.31-2.77 2.27V93h-3.94V70.71h2.35c.56 0 .9.28 1.04.82l.3 2.42zm57.7 3.3c0 2.36-.37 4.5-1.11 6.44a14.3 14.3 0 01-3.17 4.98 14.1 14.1 0 01-4.93 3.2c-1.9.76-4.02 1.13-6.33 1.13H85.8V61.47h11.77c2.31 0 4.42.39 6.33 1.15a13.8 13.8 0 018.1 8.18 17.75 17.75 0 011.12 6.45zm-4.37 0c0-1.94-.26-3.67-.8-5.2a10.94 10.94 0 00-2.23-3.87 9.57 9.57 0 00-3.53-2.42 12.23 12.23 0 00-4.61-.83h-7.5v24.62h7.5c1.7 0 3.24-.28 4.61-.84a9.7 9.7 0 003.53-2.4 10.94 10.94 0 002.24-3.87c.53-1.53.8-3.26.8-5.2zm19.8 5.72c-1.8.06-3.34.2-4.62.44-1.26.22-2.3.51-3.1.88-.8.36-1.37.8-1.74 1.3-.35.5-.53 1.05-.53 1.67 0 .58.1 1.1.3 1.52a3 3 0 00.76 1.05c.34.27.73.46 1.17.6a6.13 6.13 0 001.45.17 7.28 7.28 0 003.5-.81 11.95 11.95 0 002.82-2.2v-4.62zm-12.65-9.11a12.73 12.73 0 013.98-2.66c1.43-.59 3-.88 4.73-.88 1.25 0 2.36.2 3.33.61a6.81 6.81 0 013.94 4.38c.33 1.04.5 2.19.5 3.43V93h-1.74a1.8 1.8 0 01-.88-.18c-.2-.13-.36-.38-.48-.74l-.44-2.12-1.72 1.46a9.48 9.48 0 01-3.74 1.7c-.69.15-1.46.23-2.3.23-.87 0-1.69-.12-2.45-.35a5.34 5.34 0 01-3.34-2.93 6.64 6.64 0 01-.49-2.64c0-.88.25-1.72.73-2.53a6.33 6.33 0 012.35-2.17c1.09-.63 2.5-1.15 4.25-1.54 1.75-.41 3.89-.65 6.42-.7v-1.75c0-1.73-.37-3.03-1.12-3.91-.75-.9-1.84-1.34-3.28-1.34-.97 0-1.78.12-2.44.37-.64.23-1.2.5-1.7.81l-1.23.82c-.33.23-.67.35-1 .35-.27 0-.5-.07-.69-.2a2.1 2.1 0 01-.48-.53l-.7-1.25zm27.67 19.5c-1.76 0-3.12-.5-4.07-1.48-.94-.98-1.41-2.4-1.41-4.25V74h-2.68a.9.9 0 01-.6-.2c-.16-.14-.24-.36-.24-.66v-1.56l3.65-.46.9-6.89a.9.9 0 01.29-.52.88.88 0 01.62-.22H142v7.67h6.44V74H142v13.38c0 .94.22 1.63.68 2.09.45.45 1.04.68 1.76.68a3.21 3.21 0 001.85-.53l.55-.35c.16-.12.3-.18.41-.18.2 0 .4.13.55.38l1.15 1.87a7.45 7.45 0 01-2.44 1.5 8.53 8.53 0 01-2.95.52zm19.68-10.4c-1.8.07-3.34.21-4.62.45-1.26.22-2.3.51-3.1.88-.8.36-1.37.8-1.74 1.3-.35.5-.53 1.05-.53 1.67 0 .58.1 1.1.3 1.52a2.9 2.9 0 00.76 1.05c.34.27.73.46 1.17.6a6.13 6.13 0 001.45.17 7.3 7.3 0 003.5-.81 12.04 12.04 0 002.82-2.2v-4.62zm-12.65-9.1a12.72 12.72 0 013.99-2.66c1.42-.59 3-.88 4.72-.88 1.25 0 2.36.2 3.33.61a6.81 6.81 0 013.94 4.38c.33 1.04.5 2.19.5 3.43V93h-1.74a1.8 1.8 0 01-.88-.18c-.2-.13-.36-.38-.48-.74l-.44-2.12-1.72 1.46a9.48 9.48 0 01-3.74 1.7c-.69.15-1.46.23-2.3.23-.87 0-1.69-.12-2.45-.35a5.33 5.33 0 01-3.34-2.93 6.62 6.62 0 01-.49-2.64c0-.88.25-1.72.73-2.53a6.33 6.33 0 012.35-2.17c1.09-.63 2.5-1.15 4.25-1.54a31.2 31.2 0 016.42-.7v-1.75c0-1.73-.37-3.03-1.12-3.91-.75-.9-1.84-1.34-3.28-1.34-.97 0-1.78.12-2.44.37-.64.23-1.2.5-1.7.81l-1.22.82c-.34.23-.68.35-1.02.35-.26 0-.49-.07-.68-.2a1.88 1.88 0 01-.48-.53l-.7-1.25zM40.98 32.25c0 2.36-.38 4.53-1.12 6.51a14.26 14.26 0 01-8.1 8.4c-1.9.78-4.02 1.17-6.34 1.17a16.6 16.6 0 01-6.33-1.17 14.31 14.31 0 01-8.08-8.4 18.29 18.29 0 01-1.12-6.51c0-2.36.38-4.53 1.12-6.5.75-1.97 1.8-3.67 3.17-5.1a14.32 14.32 0 014.9-3.34c1.92-.8 4.03-1.19 6.34-1.19 2.32 0 4.43.4 6.34 1.19 1.92.8 3.56 1.9 4.93 3.34a14.87 14.87 0 013.17 5.1 18.1 18.1 0 011.12 6.5zm-4.38 0c0-1.94-.26-3.68-.8-5.22a10.91 10.91 0 00-2.24-3.89 9.68 9.68 0 00-3.52-2.46 11.95 11.95 0 00-4.62-.86c-1.68 0-3.21.28-4.6.86a9.88 9.88 0 00-3.54 2.46 10.91 10.91 0 00-2.24 3.9c-.53 1.53-.8 3.27-.8 5.2 0 1.94.27 3.68.8 5.22a11.17 11.17 0 002.24 3.9 10.01 10.01 0 003.55 2.44c1.38.56 2.9.83 4.6.83s3.24-.27 4.61-.83a9.8 9.8 0 003.52-2.44 11.17 11.17 0 002.25-3.9c.53-1.54.8-3.28.8-5.21zm26.22-6.54V48H60.5c-.56 0-.9-.27-1.05-.81l-.31-2.4a12.45 12.45 0 01-3.26 2.6c-1.2.64-2.58.96-4.13.96-1.22 0-2.3-.2-3.24-.6a6.52 6.52 0 01-2.33-1.7 7.37 7.37 0 01-1.43-2.67c-.3-1.04-.46-2.2-.46-3.45V25.7h3.91v14.22c0 1.68.38 2.99 1.15 3.91.77.93 1.96 1.39 3.54 1.39 1.16 0 2.24-.27 3.23-.82a10.42 10.42 0 002.8-2.28V25.7h3.91zm8.61 4.47a9.94 9.94 0 012.6-3.56 5.64 5.64 0 013.76-1.3c.47 0 .92.05 1.34.15.44.1.83.27 1.17.49l-.3 2.92c-.09.37-.3.55-.66.55-.2 0-.5-.04-.9-.13a6.21 6.21 0 00-3.24.18 4.23 4.23 0 00-1.47.92c-.42.4-.81.9-1.17 1.5-.33.58-.64 1.26-.92 2.02V48H67.7V25.71h2.25c.42 0 .72.08.88.25.16.16.27.44.33.83l.26 3.39zm61.16-13.7L122.75 48h-3.82l-7.99-24.05a21.95 21.95 0 01-.42-1.58 38.36 38.36 0 01-.44 1.58L102.05 48h-3.83L88.4 16.47h3.54c.38 0 .7.1.95.29.26.2.43.43.5.73l6.52 21.9.28 1.28.29 1.46.3-1.46.38-1.27 7.41-21.91c.1-.25.26-.48.51-.69.27-.22.58-.33.95-.33h1.23c.38 0 .69.1.92.29a1.77 1.77 0 01.53.73l7.4 21.9a28.4 28.4 0 01.68 2.62 29.52 29.52 0 01.52-2.61l6.54-21.91a1.31 1.31 0 01.48-.7c.27-.21.58-.32.95-.32h3.32zm9.35 8.88c1.63 0 3.1.27 4.4.82a9.43 9.43 0 015.46 5.94c.5 1.4.74 2.98.74 4.73 0 1.76-.25 3.34-.74 4.75a9.43 9.43 0 01-5.46 5.92c-1.3.52-2.77.79-4.4.79-1.64 0-3.12-.27-4.44-.8a9.42 9.42 0 01-3.35-2.3c-.92-1-1.63-2.2-2.13-3.61-.49-1.41-.73-3-.73-4.75s.24-3.33.73-4.73c.5-1.43 1.2-2.64 2.13-3.63a9.4 9.4 0 013.35-2.31c1.32-.55 2.8-.82 4.44-.82zm0 19.89c2.2 0 3.84-.73 4.93-2.2 1.08-1.48 1.63-3.54 1.63-6.18 0-2.66-.55-4.72-1.63-6.2-1.09-1.49-2.73-2.23-4.93-2.23-1.12 0-2.09.2-2.93.57a5.71 5.71 0 00-2.06 1.65 7.5 7.5 0 00-1.24 2.67c-.26 1.04-.4 2.22-.4 3.54 0 2.64.55 4.7 1.64 6.18 1.1 1.47 2.76 2.2 4.99 2.2zm17.97-15.07a9.94 9.94 0 012.6-3.56 5.64 5.64 0 013.76-1.3c.47 0 .91.05 1.34.15.44.1.83.27 1.16.49l-.28 2.92c-.09.37-.31.55-.66.55-.2 0-.5-.04-.9-.13a6.2 6.2 0 00-3.24.18 4.23 4.23 0 00-1.47.92c-.43.4-.82.9-1.17 1.5a13.1 13.1 0 00-.92 2.02V48h-3.94V25.71h2.24c.43 0 .72.08.88.25.17.16.28.44.33.83l.27 3.39zm15.04-14.59V48h-3.92V15.6h3.92zm19.55 15.43a6.22 6.22 0 00-2.38-2.05 6.7 6.7 0 00-2.86-.6c-2.07 0-3.66.75-4.77 2.23-1.12 1.48-1.68 3.6-1.68 6.33 0 1.46.13 2.7.38 3.74a7.29 7.29 0 001.1 2.56 4.35 4.35 0 001.78 1.45c.7.3 1.5.46 2.4.46 1.29 0 2.41-.3 3.36-.88a9.6 9.6 0 002.67-2.49V31.02zm3.91-15.43V48h-2.33c-.56 0-.9-.27-1.06-.81l-.35-2.71a12.13 12.13 0 01-3.25 2.77 8.28 8.28 0 01-4.23 1.06 7.31 7.31 0 01-6.14-2.9c-.73-.96-1.3-2.15-1.69-3.57a18.35 18.35 0 01.07-9.48 11.29 11.29 0 011.89-3.7 8.7 8.7 0 017.06-3.34 7.96 7.96 0 016.12 2.62V15.59h3.91zM46.61 70.71V93H42.7V70.71h3.91zm.84-7c0 .39-.08.75-.24 1.09a2.81 2.81 0 01-1.52 1.47 2.67 2.67 0 01-2.16 0 2.9 2.9 0 01-1.45-1.47 2.67 2.67 0 010-2.16c.15-.35.35-.65.6-.9.25-.27.53-.47.85-.62a2.67 2.67 0 012.16 0c.35.15.65.35.9.62.27.25.47.55.62.9.16.34.24.7.24 1.08zm7.97 10.24c.49-.54 1-1.04 1.54-1.48a9.85 9.85 0 013.66-1.84 8.96 8.96 0 015.43.35c.94.4 1.72.97 2.33 1.71a7.36 7.36 0 011.43 2.67c.32 1.04.49 2.19.49 3.45V93h-3.94V78.81c0-1.69-.4-3-1.17-3.92-.76-.93-1.93-1.4-3.5-1.4a6.6 6.6 0 00-3.25.83c-1 .56-1.92 1.31-2.77 2.27V93h-3.94V70.71h2.35c.56 0 .9.28 1.04.82l.3 2.42zm57.7 3.3c0 2.36-.37 4.5-1.11 6.44a14.3 14.3 0 01-3.17 4.98 14.1 14.1 0 01-4.93 3.2c-1.9.76-4.02 1.13-6.33 1.13H85.8V61.47h11.77c2.31 0 4.42.39 6.33 1.15a13.8 13.8 0 018.1 8.18 17.75 17.75 0 011.12 6.45zm-4.37 0c0-1.94-.26-3.67-.8-5.2a10.94 10.94 0 00-2.23-3.87 9.57 9.57 0 00-3.53-2.42 12.23 12.23 0 00-4.61-.83h-7.5v24.62h7.5c1.7 0 3.24-.28 4.61-.84a9.7 9.7 0 003.53-2.4 10.94 10.94 0 002.24-3.87c.53-1.53.8-3.26.8-5.2zm19.8 5.72c-1.8.06-3.34.2-4.62.44-1.26.22-2.3.51-3.1.88-.8.36-1.37.8-1.74 1.3-.35.5-.53 1.05-.53 1.67 0 .58.1 1.1.3 1.52a3 3 0 00.76 1.05c.34.27.73.46 1.17.6a6.13 6.13 0 001.45.17 7.28 7.28 0 003.5-.81 11.95 11.95 0 002.82-2.2v-4.62zm-12.65-9.11a12.73 12.73 0 013.98-2.66c1.43-.59 3-.88 4.73-.88 1.25 0 2.36.2 3.33.61a6.81 6.81 0 013.94 4.38c.33 1.04.5 2.19.5 3.43V93h-1.74a1.8 1.8 0 01-.88-.18c-.2-.13-.36-.38-.48-.74l-.44-2.12-1.72 1.46a9.48 9.48 0 01-3.74 1.7c-.69.15-1.46.23-2.3.23-.87 0-1.69-.12-2.45-.35a5.34 5.34 0 01-3.34-2.93 6.64 6.64 0 01-.49-2.64c0-.88.25-1.72.73-2.53a6.33 6.33 0 012.35-2.17c1.09-.63 2.5-1.15 4.25-1.54 1.75-.41 3.89-.65 6.42-.7v-1.75c0-1.73-.37-3.03-1.12-3.91-.75-.9-1.84-1.34-3.28-1.34-.97 0-1.78.12-2.44.37-.64.23-1.2.5-1.7.81l-1.23.82c-.33.23-.67.35-1 .35-.27 0-.5-.07-.69-.2a2.1 2.1 0 01-.48-.53l-.7-1.25zm27.67 19.5c-1.76 0-3.12-.5-4.07-1.48-.94-.98-1.41-2.4-1.41-4.25V74h-2.68a.9.9 0 01-.6-.2c-.16-.14-.24-.36-.24-.66v-1.56l3.65-.46.9-6.89a.9.9 0 01.29-.52.88.88 0 01.62-.22H142v7.67h6.44V74H142v13.38c0 .94.22 1.63.68 2.09.45.45 1.04.68 1.76.68a3.21 3.21 0 001.85-.53l.55-.35c.16-.12.3-.18.41-.18.2 0 .4.13.55.38l1.15 1.87a7.45 7.45 0 01-2.44 1.5 8.53 8.53 0 01-2.95.52zm19.68-10.4c-1.8.07-3.34.21-4.62.45-1.26.22-2.3.51-3.1.88-.8.36-1.37.8-1.74 1.3-.35.5-.53 1.05-.53 1.67 0 .58.1 1.1.3 1.52a2.9 2.9 0 00.76 1.05c.34.27.73.46 1.17.6a6.13 6.13 0 001.45.17 7.3 7.3 0 003.5-.81 12.04 12.04 0 002.82-2.2v-4.62zm-12.65-9.1a12.72 12.72 0 013.99-2.66c1.42-.59 3-.88 4.72-.88 1.25 0 2.36.2 3.33.61a6.81 6.81 0 013.94 4.38c.33 1.04.5 2.19.5 3.43V93h-1.74a1.8 1.8 0 01-.88-.18c-.2-.13-.36-.38-.48-.74l-.44-2.12-1.72 1.46a9.48 9.48 0 01-3.74 1.7c-.69.15-1.46.23-2.3.23-.87 0-1.69-.12-2.45-.35a5.33 5.33 0 01-3.34-2.93 6.62 6.62 0 01-.49-2.64c0-.88.25-1.72.73-2.53a6.33 6.33 0 012.35-2.17c1.09-.63 2.5-1.15 4.25-1.54a31.2 31.2 0 016.42-.7v-1.75c0-1.73-.37-3.03-1.12-3.91-.75-.9-1.84-1.34-3.28-1.34-.97 0-1.78.12-2.44.37-.64.23-1.2.5-1.7.81l-1.22.82c-.34.23-.68.35-1.02.35-.26 0-.49-.07-.68-.2a1.88 1.88 0 01-.48-.53l-.7-1.25zM40.98 32.25c0 2.36-.38 4.53-1.12 6.51a14.26 14.26 0 01-8.1 8.4c-1.9.78-4.02 1.17-6.34 1.17a16.6 16.6 0 01-6.33-1.17 14.31 14.31 0 01-8.08-8.4 18.29 18.29 0 01-1.12-6.51c0-2.36.38-4.53 1.12-6.5.75-1.97 1.8-3.67 3.17-5.1a14.32 14.32 0 014.9-3.34c1.92-.8 4.03-1.19 6.34-1.19 2.32 0 4.43.4 6.34 1.19 1.92.8 3.56 1.9 4.93 3.34a14.87 14.87 0 013.17 5.1 18.1 18.1 0 011.12 6.5zm-4.38 0c0-1.94-.26-3.68-.8-5.22a10.91 10.91 0 00-2.24-3.89 9.68 9.68 0 00-3.52-2.46 11.95 11.95 0 00-4.62-.86c-1.68 0-3.21.28-4.6.86a9.88 9.88 0 00-3.54 2.46 10.91 10.91 0 00-2.24 3.9c-.53 1.53-.8 3.27-.8 5.2 0 1.94.27 3.68.8 5.22a11.17 11.17 0 002.24 3.9 10.01 10.01 0 003.55 2.44c1.38.56 2.9.83 4.6.83s3.24-.27 4.61-.83a9.8 9.8 0 003.52-2.44 11.17 11.17 0 002.25-3.9c.53-1.54.8-3.28.8-5.21zm26.22-6.54V48H60.5c-.56 0-.9-.27-1.05-.81l-.31-2.4a12.45 12.45 0 01-3.26 2.6c-1.2.64-2.58.96-4.13.96-1.22 0-2.3-.2-3.24-.6a6.52 6.52 0 01-2.33-1.7 7.37 7.37 0 01-1.43-2.67c-.3-1.04-.46-2.2-.46-3.45V25.7h3.91v14.22c0 1.68.38 2.99 1.15 3.91.77.93 1.96 1.39 3.54 1.39 1.16 0 2.24-.27 3.23-.82a10.42 10.42 0 002.8-2.28V25.7h3.91zm8.61 4.47a9.94 9.94 0 012.6-3.56 5.64 5.64 0 013.76-1.3c.47 0 .92.05 1.34.15.44.1.83.27 1.17.49l-.3 2.92c-.09.37-.3.55-.66.55-.2 0-.5-.04-.9-.13a6.21 6.21 0 00-3.24.18 4.23 4.23 0 00-1.47.92c-.42.4-.81.9-1.17 1.5-.33.58-.64 1.26-.92 2.02V48H67.7V25.71h2.25c.42 0 .72.08.88.25.16.16.27.44.33.83l.26 3.39zm61.16-13.7L122.75 48h-3.82l-7.99-24.05a21.95 21.95 0 01-.42-1.58 38.36 38.36 0 01-.44 1.58L102.05 48h-3.83L88.4 16.47h3.54c.38 0 .7.1.95.29.26.2.43.43.5.73l6.52 21.9.28 1.28.29 1.46.3-1.46.38-1.27 7.41-21.91c.1-.25.26-.48.51-.69.27-.22.58-.33.95-.33h1.23c.38 0 .69.1.92.29a1.77 1.77 0 01.53.73l7.4 21.9a28.4 28.4 0 01.68 2.62 29.52 29.52 0 01.52-2.61l6.54-21.91a1.31 1.31 0 01.48-.7c.27-.21.58-.32.95-.32h3.32zm9.35 8.88c1.63 0 3.1.27 4.4.82a9.43 9.43 0 015.46 5.94c.5 1.4.74 2.98.74 4.73 0 1.76-.25 3.34-.74 4.75a9.43 9.43 0 01-5.46 5.92c-1.3.52-2.77.79-4.4.79-1.64 0-3.12-.27-4.44-.8a9.42 9.42 0 01-3.35-2.3c-.92-1-1.63-2.2-2.13-3.61-.49-1.41-.73-3-.73-4.75s.24-3.33.73-4.73c.5-1.43 1.2-2.64 2.13-3.63a9.4 9.4 0 013.35-2.31c1.32-.55 2.8-.82 4.44-.82zm0 19.89c2.2 0 3.84-.73 4.93-2.2 1.08-1.48 1.63-3.54 1.63-6.18 0-2.66-.55-4.72-1.63-6.2-1.09-1.49-2.73-2.23-4.93-2.23-1.12 0-2.09.2-2.93.57a5.71 5.71 0 00-2.06 1.65 7.5 7.5 0 00-1.24 2.67c-.26 1.04-.4 2.22-.4 3.54 0 2.64.55 4.7 1.64 6.18 1.1 1.47 2.76 2.2 4.99 2.2zm17.97-15.07a9.94 9.94 0 012.6-3.56 5.64 5.64 0 013.76-1.3c.47 0 .91.05 1.34.15.44.1.83.27 1.16.49l-.28 2.92c-.09.37-.31.55-.66.55-.2 0-.5-.04-.9-.13a6.2 6.2 0 00-3.24.18 4.23 4.23 0 00-1.47.92c-.43.4-.82.9-1.17 1.5a13.1 13.1 0 00-.92 2.02V48h-3.94V25.71h2.24c.43 0 .72.08.88.25.17.16.28.44.33.83l.27 3.39zm15.04-14.59V48h-3.92V15.6h3.92zm19.55 15.43a6.22 6.22 0 00-2.38-2.05 6.7 6.7 0 00-2.86-.6c-2.07 0-3.66.75-4.77 2.23-1.12 1.48-1.68 3.6-1.68 6.33 0 1.46.13 2.7.38 3.74a7.29 7.29 0 001.1 2.56 4.35 4.35 0 001.78 1.45c.7.3 1.5.46 2.4.46 1.29 0 2.41-.3 3.36-.88a9.6 9.6 0 002.67-2.49V31.02zm3.91-15.43V48h-2.33c-.56 0-.9-.27-1.06-.81l-.35-2.71a12.13 12.13 0 01-3.25 2.77 8.28 8.28 0 01-4.23 1.06 7.31 7.31 0 01-6.14-2.9c-.73-.96-1.3-2.15-1.69-3.57a18.35 18.35 0 01.07-9.48 11.29 11.29 0 011.89-3.7 8.7 8.7 0 017.06-3.34 7.96 7.96 0 016.12 2.62V15.59h3.91zM46.61 70.71V93H42.7V70.71h3.91zm.84-7c0 .39-.08.75-.24 1.09a2.81 2.81 0 01-1.52 1.47 2.67 2.67 0 01-2.16 0 2.9 2.9 0 01-1.45-1.47 2.67 2.67 0 010-2.16c.15-.35.35-.65.6-.9.25-.27.53-.47.85-.62a2.67 2.67 0 012.16 0c.35.15.65.35.9.62.27.25.47.55.62.9.16.34.24.7.24 1.08zm7.97 10.24c.49-.54 1-1.04 1.54-1.48a9.85 9.85 0 013.66-1.84 8.96 8.96 0 015.43.35c.94.4 1.72.97 2.33 1.71a7.36 7.36 0 011.43 2.67c.32 1.04.49 2.19.49 3.45V93h-3.94V78.81c0-1.69-.4-3-1.17-3.92-.76-.93-1.93-1.4-3.5-1.4a6.6 6.6 0 00-3.25.83c-1 .56-1.92 1.31-2.77 2.27V93h-3.94V70.71h2.35c.56 0 .9.28 1.04.82l.3 2.42zm57.7 3.3c0 2.36-.37 4.5-1.11 6.44a14.3 14.3 0 01-3.17 4.98 14.1 14.1 0 01-4.93 3.2c-1.9.76-4.02 1.13-6.33 1.13H85.8V61.47h11.77c2.31 0 4.42.39 6.33 1.15a13.8 13.8 0 018.1 8.18 17.75 17.75 0 011.12 6.45zm-4.37 0c0-1.94-.26-3.67-.8-5.2a10.94 10.94 0 00-2.23-3.87 9.57 9.57 0 00-3.53-2.42 12.23 12.23 0 00-4.61-.83h-7.5v24.62h7.5c1.7 0 3.24-.28 4.61-.84a9.7 9.7 0 003.53-2.4 10.94 10.94 0 002.24-3.87c.53-1.53.8-3.26.8-5.2zm19.8 5.72c-1.8.06-3.34.2-4.62.44-1.26.22-2.3.51-3.1.88-.8.36-1.37.8-1.74 1.3-.35.5-.53 1.05-.53 1.67 0 .58.1 1.1.3 1.52a3 3 0 00.76 1.05c.34.27.73.46 1.17.6a6.13 6.13 0 001.45.17 7.28 7.28 0 003.5-.81 11.95 11.95 0 002.82-2.2v-4.62zm-12.65-9.11a12.73 12.73 0 013.98-2.66c1.43-.59 3-.88 4.73-.88 1.25 0 2.36.2 3.33.61a6.81 6.81 0 013.94 4.38c.33 1.04.5 2.19.5 3.43V93h-1.74a1.8 1.8 0 01-.88-.18c-.2-.13-.36-.38-.48-.74l-.44-2.12-1.72 1.46a9.48 9.48 0 01-3.74 1.7c-.69.15-1.46.23-2.3.23-.87 0-1.69-.12-2.45-.35a5.34 5.34 0 01-3.34-2.93 6.64 6.64 0 01-.49-2.64c0-.88.25-1.72.73-2.53a6.33 6.33 0 012.35-2.17c1.09-.63 2.5-1.15 4.25-1.54 1.75-.41 3.89-.65 6.42-.7v-1.75c0-1.73-.37-3.03-1.12-3.91-.75-.9-1.84-1.34-3.28-1.34-.97 0-1.78.12-2.44.37-.64.23-1.2.5-1.7.81l-1.23.82c-.33.23-.67.35-1 .35-.27 0-.5-.07-.69-.2a2.1 2.1 0 01-.48-.53l-.7-1.25zm27.67 19.5c-1.76 0-3.12-.5-4.07-1.48-.94-.98-1.41-2.4-1.41-4.25V74h-2.68a.9.9 0 01-.6-.2c-.16-.14-.24-.36-.24-.66v-1.56l3.65-.46.9-6.89a.9.9 0 01.29-.52.88.88 0 01.62-.22H142v7.67h6.44V74H142v13.38c0 .94.22 1.63.68 2.09.45.45 1.04.68 1.76.68a3.21 3.21 0 001.85-.53l.55-.35c.16-.12.3-.18.41-.18.2 0 .4.13.55.38l1.15 1.87a7.45 7.45 0 01-2.44 1.5 8.53 8.53 0 01-2.95.52zm19.68-10.4c-1.8.07-3.34.21-4.62.45-1.26.22-2.3.51-3.1.88-.8.36-1.37.8-1.74 1.3-.35.5-.53 1.05-.53 1.67 0 .58.1 1.1.3 1.52a2.9 2.9 0 00.76 1.05c.34.27.73.46 1.17.6a6.13 6.13 0 001.45.17 7.3 7.3 0 003.5-.81 12.04 12.04 0 002.82-2.2v-4.62zm-12.65-9.1a12.72 12.72 0 013.99-2.66c1.42-.59 3-.88 4.72-.88 1.25 0 2.36.2 3.33.61a6.81 6.81 0 013.94 4.38c.33 1.04.5 2.19.5 3.43V93h-1.74a1.8 1.8 0 01-.88-.18c-.2-.13-.36-.38-.48-.74l-.44-2.12-1.72 1.46a9.48 9.48 0 01-3.74 1.7c-.69.15-1.46.23-2.3.23-.87 0-1.69-.12-2.45-.35a5.33 5.33 0 01-3.34-2.93 6.62 6.62 0 01-.49-2.64c0-.88.25-1.72.73-2.53a6.33 6.33 0 012.35-2.17c1.09-.63 2.5-1.15 4.25-1.54a31.2 31.2 0 016.42-.7v-1.75c0-1.73-.37-3.03-1.12-3.91-.75-.9-1.84-1.34-3.28-1.34-.97 0-1.78.12-2.44.37-.64.23-1.2.5-1.7.81l-1.22.82c-.34.23-.68.35-1.02.35-.26 0-.49-.07-.68-.2a1.88 1.88 0 01-.48-.53l-.7-1.25z" fill="#fff"/><path fill="#D42B21" d="M0 106.79h210V120H0z"/></g><defs><clipPath id="clip0"><path fill="#fff" d="M0 0h210v120H0z"/></clipPath></defs></svg></g><a href="https://ourworldindata.org/grapher/maddison-data-gdp-per-capita-in-2011us-slopechart" target="_blank" rel="noopener" font-family="&quot;Playfair Display&quot;,Georgia,&quot;Times New Roman&quot;,serif"><text font-size="25.2" x="15" y="35.2" fill="#555"><tspan x="15" y="35.16">GDP per capita, 1950 to 2016</tspan></text></a><text font-size="14.4" x="15" y="55.7" fill="#666"><tspan x="15" y="55.72">GDP per capita adjusted for price changes over time (inflation) and price differences between countries – it is</tspan><tspan x="15" y="73">measured in international-$ in 2011 prices.</tspan></text></g><g class="slopeChart"><g class="LabelledSlopes"><g class="gridlines" stroke="#eee" stroke-dasharray="3,2"><path d="M272.79 443.68h184.42M272.79 283.47h184.42M272.79 123.27h184.42"/></g><g class="axis" font-size=".8em" fill="#666" dominant-baseline="middle" text-anchor="start"><text x="15" y="443.68">$1,000</text><text x="15" y="283.47">$10,000</text><text x="15" y="123.27">$100,000</text></g><g class="axis" font-size=".8em" fill="#666" dominant-baseline="middle" text-anchor="end"><text x="715" y="443.68">$1,000</text><text x="715" y="283.47">$10,000</text><text x="715" y="123.27">$100,000</text></g><path stroke="#333" d="M272.79 497.4V92.2M457.21 497.4V92.2"/><text x="272.79" y="521.8" text-anchor="middle" fill="#666" font-size="18">1950</text><text x="457.21" y="521.8" text-anchor="middle" fill="#666" font-size="18">2016</text><g class="slopes"><g class="slope"><text font-size="11.7" x="224.8" y="342.1" text-anchor="end" fill="#333"><tspan x="224.75" y="342.09">Former USSR</tspan></text><text x="264.79" y="342.09" text-anchor="end" font-size="11.7" fill="#333">$4,529</text><circle cx="272.79" cy="338.58" r="2" fill="#ff7f0e" opacity=".5"/><path stroke="#ff7f0e" stroke-width="2.5" opacity=".5" d="M272.79 338.58l184.42-98.41"/><circle cx="457.21" cy="240.17" r="2" fill="#ff7f0e" opacity=".5"/><text x="465.21" y="243.68" font-size="11.7" fill="#333">$18,635</text><text font-size="11.7" x="511.8" y="243.7" fill="#333"><tspan x="511.8" y="243.68">Former USSR</tspan></text></g><g class="slope"><text font-size="11.7" x="218.2" y="259.8" text-anchor="end" fill="#333"><tspan x="218.2" y="259.83">Western Offshoots</tspan></text><text x="264.79" y="259.83" text-anchor="end" font-size="11.7" fill="#333">$14,773</text><circle cx="272.79" cy="256.32" r="2" fill="#ff7f0e" opacity=".5"/><path stroke="#ff7f0e" stroke-width="2.5" opacity=".5" d="M272.79 256.32l184.42-87.11"/><circle cx="457.21" cy="169.21" r="2" fill="#ff7f0e" opacity=".5"/><text x="465.21" y="172.72" font-size="11.7" fill="#333">$51,668</text><text font-size="11.7" x="511.8" y="172.7" fill="#333"><tspan x="511.8" y="172.72">Western Offshoots</tspan></text></g><g class="slope"><text font-size="11.7" x="224.8" y="436.1" text-anchor="end" fill="#333"><tspan x="224.75" y="436.1">South and South-East</tspan><tspan x="224.75" y="448.97">Asia</tspan></text><text x="264.79" y="442.5" text-anchor="end" font-size="11.7" fill="#333">$1,070</text><circle cx="272.79" cy="438.99" r="2" fill="#ff7f0e" opacity=".5"/><path stroke="#ff7f0e" stroke-width="2.5" opacity=".5" d="M272.79 438.99l184.42-130.61"/><circle cx="457.21" cy="308.38" r="2" fill="#ff7f0e" opacity=".5"/><text x="465.21" y="311.89" font-size="11.7" fill="#333">$6,991</text><text font-size="11.7" x="505.2" y="305.5" fill="#333"><tspan x="505.25" y="305.49">South and South-East</tspan><tspan x="505.25" y="318.36">Asia</tspan></text></g><g class="slope"><circle cx="272.79" cy="424.22" r="2" fill="#ff7f0e" opacity=".5"/><path stroke="#ff7f0e" stroke-width="2.5" opacity=".5" d="M272.79 424.22l184.42-67.53"/><circle cx="457.21" cy="356.69" r="2" fill="#ff7f0e" opacity=".5"/><text x="465.21" y="360.2" font-size="11.7" fill="#333">$3,491</text><text font-size="11.7" x="505.2" y="360.2" fill="#333"><tspan x="505.25" y="360.2">Sub-Sahara Africa</tspan></text></g><g class="slope"><text font-size="11.7" x="218.2" y="280" text-anchor="end" fill="#333"><tspan x="218.2" y="279.97">United Kingdom</tspan></text><text x="264.79" y="279.97" text-anchor="end" font-size="11.7" fill="#333">$11,061</text><circle cx="272.79" cy="276.46" r="2" fill="#4C5C78" opacity=".5"/><path stroke="#4C5C78" stroke-width="2.5" opacity=".5" d="M272.79 276.46l184.42-84.64"/><circle cx="457.21" cy="191.82" r="2" fill="#4C5C78" opacity=".5"/><text x="465.21" y="195.33" font-size="11.7" fill="#333">$37,334</text><text font-size="11.7" x="511.8" y="195.3" fill="#333"><tspan x="511.8" y="195.33">United Kingdom</tspan></text></g><g class="slope"><text font-size="11.7" x="224.8" y="328.5" text-anchor="end" fill="#333"><tspan x="224.75" y="328.53">Ireland</tspan></text><text x="264.79" y="328.53" text-anchor="end" font-size="11.7" fill="#333">$5,504</text><circle cx="272.79" cy="325.02" r="2" fill="#4C5C78" opacity=".5"/><path stroke="#4C5C78" stroke-width="2.5" opacity=".5" d="M272.79 325.02l184.42-162.15"/><circle cx="457.21" cy="162.87" r="2" fill="#4C5C78" opacity=".5"/></g><g class="slope"><text font-size="11.7" x="224.8" y="300.2" text-anchor="end" fill="#333"><tspan x="224.75" y="300.23">France</tspan></text><text x="264.79" y="300.23" text-anchor="end" font-size="11.7" fill="#333">$8,266</text><circle cx="272.79" cy="296.72" r="2" fill="#4C5C78" opacity=".5"/><path stroke="#4C5C78" stroke-width="2.5" opacity=".5" d="M272.79 296.72l184.42-104.51"/><circle cx="457.21" cy="192.21" r="2" fill="#4C5C78" opacity=".5"/></g><g class="slope"><circle cx="272.79" cy="293.11" r="2" fill="#4C5C78" opacity=".5"/><path stroke="#4C5C78" stroke-width="2.5" opacity=".5" d="M272.79 293.11L457.21 189.2"/><circle cx="457.21" cy="189.2" r="2" fill="#4C5C78" opacity=".5"/></g><g class="slope"><circle cx="272.79" cy="286.62" r="2" fill="#4C5C78" opacity=".5"/><path stroke="#4C5C78" stroke-width="2.5" opacity=".5" d="M272.79 286.62l184.42-108.71"/><circle cx="457.21" cy="177.91" r="2" fill="#4C5C78" opacity=".5"/></g><g class="slope"><circle cx="272.79" cy="316.89" r="2" fill="#4C5C78" opacity=".5"/><path stroke="#4C5C78" stroke-width="2.5" opacity=".5" d="M272.79 316.89l184.42-137.58"/><circle cx="457.21" cy="179.31" r="2" fill="#4C5C78" opacity=".5"/></g><g class="slope"><circle cx="272.79" cy="273.5" r="2" fill="#4C5C78" opacity=".5"/><path stroke="#4C5C78" stroke-width="2.5" opacity=".5" d="M272.79 273.5l184.42-114.29"/><circle cx="457.21" cy="159.21" r="2" fill="#4C5C78" opacity=".5"/></g><g class="slope"><circle cx="272.79" cy="324.04" r="2" fill="#4C5C78" opacity=".5"/><path stroke="#4C5C78" stroke-width="2.5" opacity=".5" d="M272.79 324.04l184.42-124.51"/><circle cx="457.21" cy="199.53" r="2" fill="#4C5C78" opacity=".5"/></g><g class="slope"><text font-size="11.7" x="224.8" y="360.7" text-anchor="end" fill="#333"><tspan x="224.75" y="360.74">Spain</tspan></text><text x="264.79" y="360.74" text-anchor="end" font-size="11.7" fill="#333">$3,464</text><circle cx="272.79" cy="357.23" r="2" fill="#4C5C78" opacity=".5"/><path stroke="#4C5C78" stroke-width="2.5" opacity=".5" d="M272.79 357.23l184.42-150.45"/><circle cx="457.21" cy="206.78" r="2" fill="#4C5C78" opacity=".5"/><text x="465.21" y="210.29" font-size="11.7" fill="#333">$30,110</text><text font-size="11.7" x="511.8" y="210.3" fill="#333"><tspan x="511.8" y="210.29">Spain</tspan></text></g><g class="slope"><circle cx="272.79" cy="278.49" r="2" fill="#4C5C78" opacity=".5"/><path stroke="#4C5C78" stroke-width="2.5" opacity=".5" d="M272.79 278.49l184.42-99.13"/><circle cx="457.21" cy="179.36" r="2" fill="#4C5C78" opacity=".5"/></g><g class="slope"><circle cx="272.79" cy="348.99" r="2" fill="#4C5C78" opacity=".5"/><path stroke="#4C5C78" stroke-width="2.5" opacity=".5" d="M272.79 348.99l184.42-128.81"/><circle cx="457.21" cy="220.18" r="2" fill="#4C5C78" opacity=".5"/><text x="465.21" y="223.69" font-size="11.7" fill="#333">$24,838</text><text font-size="11.7" x="511.8" y="223.7" fill="#333"><tspan x="511.8" y="223.69">Poland</tspan></text></g><g class="slope"><circle cx="272.79" cy="254.16" r="2" fill="#E04E4B" opacity=".5"/><path stroke="#E04E4B" stroke-width="2.5" opacity=".5" d="M272.79 254.16l184.42-86.74"/><circle cx="457.21" cy="167.42" r="2" fill="#E04E4B" opacity=".5"/></g><g class="slope"><circle cx="272.79" cy="365.82" r="2" fill="#2D8587" opacity=".5"/><path stroke="#2D8587" stroke-width="2.5" opacity=".5" d="M272.79 365.82l184.42-174.24"/><circle cx="457.21" cy="191.58" r="2" fill="#2D8587" opacity=".5"/></g><g class="slope"><circle cx="272.79" cy="433.59" r="2" fill="#2D8587" opacity=".5"/><path stroke="#2D8587" stroke-width="2.5" opacity=".5" d="M272.79 433.59l184.42-35.63"/><circle cx="457.21" cy="397.96" r="2" fill="#2D8587" opacity=".5"/><text x="465.21" y="401.47" font-size="11.7" fill="#333">$1,929</text><text font-size="11.7" x="505.2" y="401.5" fill="#333"><tspan x="505.25" y="401.47">Afghanistan</tspan></text></g><g class="slope"><text font-size="11.7" x="224.8" y="414.7" text-anchor="end" fill="#333"><tspan x="224.75" y="414.66">Albania</tspan></text><text x="264.79" y="414.66" text-anchor="end" font-size="11.7" fill="#333">$1,596</text><circle cx="272.79" cy="411.15" r="2" fill="#4C5C78" opacity=".5"/><path stroke="#4C5C78" stroke-width="2.5" opacity=".5" d="M272.79 411.15l184.42-130.02"/><circle cx="457.21" cy="281.13" r="2" fill="#4C5C78" opacity=".5"/><text x="465.21" y="284.64" font-size="11.7" fill="#333">$10,342</text><text font-size="11.7" x="511.8" y="284.6" fill="#333"><tspan x="511.8" y="284.64">Albania</tspan></text></g><g class="slope"><text font-size="11.7" x="224.8" y="393.1" text-anchor="end" fill="#333"><tspan x="224.75" y="393.09">Algeria</tspan></text><text x="264.79" y="393.09" text-anchor="end" font-size="11.7" fill="#333">$2,176</text><circle cx="272.79" cy="389.58" r="2" fill="#923E8B" opacity=".5"/><path stroke="#923E8B" stroke-width="2.5" opacity=".5" d="M272.79 389.58l184.42-131.14"/><circle cx="457.21" cy="258.44" r="2" fill="#923E8B" opacity=".5"/><text x="465.21" y="261.95" font-size="11.7" fill="#333">$14,331</text><text font-size="11.7" x="511.8" y="261.9" fill="#333"><tspan x="511.8" y="261.95">Algeria</tspan></text></g><g class="slope"><circle cx="272.79" cy="407.7" r="2" fill="#923E8B" opacity=".5"/><path stroke="#923E8B" stroke-width="2.5" opacity=".5" d="M272.79 407.7l184.42-112.53"/><circle cx="457.21" cy="295.17" r="2" fill="#923E8B" opacity=".5"/></g><g class="slope"><circle cx="272.79" cy="299.44" r="2" fill="#932834" opacity=".5"/><path stroke="#932834" stroke-width="2.5" opacity=".5" d="M272.79 299.44l184.42-60.16"/><circle cx="457.21" cy="239.28" r="2" fill="#932834" opacity=".5"/></g><g class="slope"><circle cx="272.79" cy="271.87" r="2" fill="#A8633C" opacity=".5"/><path stroke="#A8633C" stroke-width="2.5" opacity=".5" d="M272.79 271.87l184.42-98.75"/><circle cx="457.21" cy="173.12" r="2" fill="#A8633C" opacity=".5"/></g><g class="slope"><circle cx="272.79" cy="320.1" r="2" fill="#4C5C78" opacity=".5"/><path stroke="#4C5C78" stroke-width="2.5" opacity=".5" d="M272.79 320.1l184.42-135.55"/><circle cx="457.21" cy="184.55" r="2" fill="#4C5C78" opacity=".5"/></g><g class="slope"><circle cx="272.79" cy="359.48" r="2" fill="#2D8587" opacity=".5"/><path stroke="#2D8587" stroke-width="2.5" opacity=".5" d="M272.79 359.48l184.42-174.31"/><circle cx="457.21" cy="185.17" r="2" fill="#2D8587" opacity=".5"/></g><g class="slope"><circle cx="272.79" cy="454.09" r="2" fill="#2D8587" opacity=".5"/><path stroke="#2D8587" stroke-width="2.5" opacity=".5" d="M272.79 454.09l184.42-99.61"/><circle cx="457.21" cy="354.48" r="2" fill="#2D8587" opacity=".5"/></g><g class="slope"><circle cx="272.79" cy="358.74" r="2" fill="#E04E4B" opacity=".5"/><path stroke="#E04E4B" stroke-width="2.5" opacity=".5" d="M272.79 358.74l184.42-87.97"/><circle cx="457.21" cy="270.77" r="2" fill="#E04E4B" opacity=".5"/></g><g class="slope"><circle cx="272.79" cy="409.81" r="2" fill="#923E8B" opacity=".5"/><path stroke="#923E8B" stroke-width="2.5" opacity=".5" d="M272.79 409.81l184.42-17.09"/><circle cx="457.21" cy="392.72" r="2" fill="#923E8B" opacity=".5"/></g><g class="slope"><circle cx="272.79" cy="366.98" r="2" fill="#932834" opacity=".5"/><path stroke="#932834" stroke-width="2.5" opacity=".5" d="M272.79 366.98l184.42-51.97"/><circle cx="457.21" cy="315.01" r="2" fill="#932834" opacity=".5"/></g><g class="slope"><text font-size="11.7" x="234.6" y="497" text-anchor="end" fill="#333"><tspan x="234.58" y="496.96">Botswana</tspan></text><text x="264.79" y="496.96" text-anchor="end" font-size="11.7" fill="#333">$489</text><circle cx="272.79" cy="493.45" r="2" fill="#923E8B" opacity=".5"/><path stroke="#923E8B" stroke-width="2.5" opacity=".5" d="M272.79 493.45l184.42-239.1"/><circle cx="457.21" cy="254.35" r="2" fill="#923E8B" opacity=".5"/></g><g class="slope"><circle cx="272.79" cy="387.69" r="2" fill="#932834" opacity=".5"/><path stroke="#932834" stroke-width="2.5" opacity=".5" d="M272.79 387.69L457.21 260.7"/><circle cx="457.21" cy="260.7" r="2" fill="#932834" opacity=".5"/></g><g class="slope"><text font-size="11.7" x="224.8" y="379.9" text-anchor="end" fill="#333"><tspan x="224.75" y="379.85">Bulgaria</tspan></text><text x="264.79" y="379.85" text-anchor="end" font-size="11.7" fill="#333">$2,632</text><circle cx="272.79" cy="376.34" r="2" fill="#4C5C78" opacity=".5"/><path stroke="#4C5C78" stroke-width="2.5" opacity=".5" d="M272.79 376.34L457.21 246.4"/><circle cx="457.21" cy="246.4" r="2" fill="#4C5C78" opacity=".5"/></g><g class="slope"><text font-size="11.7" x="234.6" y="466.6" text-anchor="end" fill="#333"><tspan x="234.58" y="466.65">Burkina Faso</tspan></text><text x="264.79" y="466.65" text-anchor="end" font-size="11.7" fill="#333">$756</text><circle cx="272.79" cy="463.14" r="2" fill="#923E8B" opacity=".5"/><path stroke="#923E8B" stroke-width="2.5" opacity=".5" d="M272.79 463.14l184.42-46.88"/><circle cx="457.21" cy="416.26" r="2" fill="#923E8B" opacity=".5"/><text x="465.21" y="419.77" font-size="11.7" fill="#333">$1,483</text><text font-size="11.7" x="505.2" y="419.8" fill="#333"><tspan x="505.25" y="419.77">Burkina Faso</tspan></text></g><g class="slope"><text font-size="11.7" x="234.6" y="483.3" text-anchor="end" fill="#333"><tspan x="234.58" y="483.31">Burundi</tspan></text><text x="264.79" y="483.31" text-anchor="end" font-size="11.7" fill="#333">$595</text><circle cx="272.79" cy="479.8" r="2" fill="#923E8B" opacity=".5"/><path stroke="#923E8B" stroke-width="2.5" opacity=".5" d="M272.79 479.8l184.42-7.74"/><circle cx="457.21" cy="472.06" r="2" fill="#923E8B" opacity=".5"/><text x="465.21" y="475.57" font-size="11.7" fill="#333">$665</text><text font-size="11.7" x="495.4" y="475.6" fill="#333"><tspan x="495.42" y="475.57">Burundi</tspan></text></g><g class="slope"><circle cx="272.79" cy="462.04" r="2" fill="#2D8587" opacity=".5"/><path stroke="#2D8587" stroke-width="2.5" opacity=".5" d="M272.79 462.04l184.42-100.39"/><circle cx="457.21" cy="361.65" r="2" fill="#2D8587" opacity=".5"/></g><g class="slope"><circle cx="272.79" cy="438.97" r="2" fill="#923E8B" opacity=".5"/><path stroke="#923E8B" stroke-width="2.5" opacity=".5" d="M272.79 438.97l184.42-67.62"/><circle cx="457.21" cy="371.35" r="2" fill="#923E8B" opacity=".5"/><text x="465.21" y="374.86" font-size="11.7" fill="#333">$2,828</text><text font-size="11.7" x="505.2" y="374.9" fill="#333"><tspan x="505.25" y="374.86">Cameroon</tspan></text></g><g class="slope"><circle cx="272.79" cy="273.02" r="2" fill="#E04E4B" opacity=".5"/><path stroke="#E04E4B" stroke-width="2.5" opacity=".5" d="M272.79 273.02l184.42-92.22"/><circle cx="457.21" cy="180.8" r="2" fill="#E04E4B" opacity=".5"/></g><g class="slope"><circle cx="272.79" cy="443.26" r="2" fill="#923E8B" opacity=".5"/><path stroke="#923E8B" stroke-width="2.5" opacity=".5" d="M272.79 443.26l184.42-128.93"/><circle cx="457.21" cy="314.33" r="2" fill="#923E8B" opacity=".5"/></g><g class="slope"><circle cx="272.79" cy="440.02" r="2" fill="#923E8B" opacity=".5"/><path stroke="#923E8B" stroke-width="2.5" opacity=".5" d="M272.79 440.02l184.42-83.09"/><circle cx="457.21" cy="356.93" r="2" fill="#923E8B" opacity=".5"/></g><g class="slope"><circle cx="272.79" cy="417.73" r="2" fill="#2D8587" opacity=".5"/><path stroke="#2D8587" stroke-width="2.5" opacity=".5" d="M272.79 417.73l184.42-37.97"/><circle cx="457.21" cy="379.76" r="2" fill="#2D8587" opacity=".5"/></g><g class="slope"><circle cx="272.79" cy="308.14" r="2" fill="#932834" opacity=".5"/><path stroke="#932834" stroke-width="2.5" opacity=".5" d="M272.79 308.14l184.42-71.02"/><circle cx="457.21" cy="237.12" r="2" fill="#932834" opacity=".5"/></g><g class="slope"><circle cx="272.79" cy="470.92" r="2" fill="#923E8B" opacity=".5"/><path stroke="#923E8B" stroke-width="2.5" opacity=".5" d="M272.79 470.92l184.42-95.31"/><circle cx="457.21" cy="375.61" r="2" fill="#923E8B" opacity=".5"/></g><g class="slope"><circle cx="272.79" cy="417.78" r="2" fill="#923E8B" opacity=".5"/><path stroke="#923E8B" stroke-width="2.5" opacity=".5" d="M272.79 417.78l184.42-143.12"/><circle cx="457.21" cy="274.66" r="2" fill="#923E8B" opacity=".5"/></g><g class="slope"><circle cx="272.79" cy="437.36" r="2" fill="#923E8B" opacity=".5"/><path stroke="#923E8B" stroke-width="2.5" opacity=".5" d="M272.79 437.36l184.42-41.21"/><circle cx="457.21" cy="396.15" r="2" fill="#923E8B" opacity=".5"/></g><g class="slope"><circle cx="272.79" cy="392.75" r="2" fill="#2D8587" opacity=".5"/><path stroke="#2D8587" stroke-width="2.5" opacity=".5" d="M272.79 392.75l184.42-149.81"/><circle cx="457.21" cy="242.94" r="2" fill="#2D8587" opacity=".5"/></g><g class="slope"><circle cx="272.79" cy="403.67" r="2" fill="#923E8B" opacity=".5"/><path stroke="#923E8B" stroke-width="2.5" opacity=".5" d="M272.79 403.67l184.42-127.29"/><circle cx="457.21" cy="276.38" r="2" fill="#923E8B" opacity=".5"/></g><g class="slope"><text font-size="11.7" x="218.2" y="222.7" text-anchor="end" fill="#333"><tspan x="218.2" y="222.73">United Arab Emirates</tspan></text><text x="264.79" y="222.73" text-anchor="end" font-size="11.7" fill="#333">$25,182</text><circle cx="272.79" cy="219.22" r="2" fill="#2D8587" opacity=".5"/><path stroke="#2D8587" stroke-width="2.5" opacity=".5" d="M272.79 219.22l184.42-76.74"/><circle cx="457.21" cy="142.48" r="2" fill="#2D8587" opacity=".5"/><text x="465.21" y="145.99" font-size="11.7" fill="#333">$75,876</text><text font-size="11.7" x="511.8" y="146" fill="#333"><tspan x="511.8" y="145.99">United Arab Emirates</tspan></text></g><g class="slope"><circle cx="272.79" cy="320.7" r="2" fill="#E04E4B" opacity=".5"/><path stroke="#E04E4B" stroke-width="2.5" opacity=".5" d="M272.79 320.7l184.42-111.73"/><circle cx="457.21" cy="208.97" r="2" fill="#E04E4B" opacity=".5"/></g><g class="slope"><circle cx="272.79" cy="453.36" r="2" fill="#923E8B" opacity=".5"/><path stroke="#923E8B" stroke-width="2.5" opacity=".5" d="M272.79 453.36l184.42-33.09"/><circle cx="457.21" cy="420.27" r="2" fill="#923E8B" opacity=".5"/></g><g class="slope"><circle cx="272.79" cy="425.31" r="2" fill="#2D8587" opacity=".5"/><path stroke="#2D8587" stroke-width="2.5" opacity=".5" d="M272.79 425.31l184.42-172.12"/><circle cx="457.21" cy="253.19" r="2" fill="#2D8587" opacity=".5"/></g><g class="slope"><circle cx="272.79" cy="350.1" r="2" fill="#2D8587" opacity=".5"/><path stroke="#2D8587" stroke-width="2.5" opacity=".5" d="M272.79 350.1l184.42 15.06"/><circle cx="457.21" cy="365.16" r="2" fill="#2D8587" opacity=".5"/></g><g class="slope"><circle cx="272.79" cy="478.75" r="2" fill="#923E8B" opacity=".5"/><path stroke="#923E8B" stroke-width="2.5" opacity=".5" d="M272.79 478.75l184.42-178.71"/><circle cx="457.21" cy="300.04" r="2" fill="#923E8B" opacity=".5"/></g><g class="slope"><circle cx="272.79" cy="424.94" r="2" fill="#923E8B" opacity=".5"/><path stroke="#923E8B" stroke-width="2.5" opacity=".5" d="M272.79 424.94l184.42-71.36"/><circle cx="457.21" cy="353.58" r="2" fill="#923E8B" opacity=".5"/></g><g class="slope"><circle cx="272.79" cy="435.98" r="2" fill="#923E8B" opacity=".5"/><path stroke="#923E8B" stroke-width="2.5" opacity=".5" d="M272.79 435.98l184.42-22.07"/><circle cx="457.21" cy="413.91" r="2" fill="#923E8B" opacity=".5"/></g><g class="slope"><circle cx="272.79" cy="346.51" r="2" fill="#923E8B" opacity=".5"/><path stroke="#923E8B" stroke-width="2.5" opacity=".5" d="M272.79 346.51l184.42-76.52"/><circle cx="457.21" cy="269.99" r="2" fill="#923E8B" opacity=".5"/></g><g class="slope"><circle cx="272.79" cy="440.35" r="2" fill="#2D8587" opacity=".5"/><path stroke="#2D8587" stroke-width="2.5" opacity=".5" d="M272.79 440.35L457.21 318.3"/><circle cx="457.21" cy="318.3" r="2" fill="#2D8587" opacity=".5"/></g><g class="slope"><circle cx="272.79" cy="355.1" r="2" fill="#2D8587" opacity=".5"/><path stroke="#2D8587" stroke-width="2.5" opacity=".5" d="M272.79 355.1l184.42-202.63"/><circle cx="457.21" cy="152.47" r="2" fill="#2D8587" opacity=".5"/></g><g class="slope"><circle cx="272.79" cy="450.85" r="2" fill="#923E8B" opacity=".5"/><path stroke="#923E8B" stroke-width="2.5" opacity=".5" d="M272.79 450.85l184.42-40.7"/><circle cx="457.21" cy="410.15" r="2" fill="#923E8B" opacity=".5"/></g><g class="slope"><circle cx="272.79" cy="395.21" r="2" fill="#923E8B" opacity=".5"/><path stroke="#923E8B" stroke-width="2.5" opacity=".5" d="M272.79 395.21l184.42-12.53"/><circle cx="457.21" cy="382.68" r="2" fill="#923E8B" opacity=".5"/></g><g class="slope"><circle cx="272.79" cy="355.41" r="2" fill="#2D8587" opacity=".5"/><path stroke="#2D8587" stroke-width="2.5" opacity=".5" d="M272.79 355.41l184.42-185.83"/><circle cx="457.21" cy="169.58" r="2" fill="#2D8587" opacity=".5"/></g><g class="slope"><circle cx="272.79" cy="442.3" r="2" fill="#923E8B" opacity=".5"/><path stroke="#923E8B" stroke-width="2.5" opacity=".5" d="M272.79 442.3l184.42-37.88"/><circle cx="457.21" cy="404.42" r="2" fill="#923E8B" opacity=".5"/></g><g class="slope"><circle cx="272.79" cy="457.14" r="2" fill="#4C5C78" opacity=".5"/><path stroke="#4C5C78" stroke-width="2.5" opacity=".5" d="M272.79 457.14l184.42-213.71"/><circle cx="457.21" cy="243.43" r="2" fill="#4C5C78" opacity=".5"/></g><g class="slope"><circle cx="272.79" cy="358.2" r="2" fill="#E04E4B" opacity=".5"/><path stroke="#E04E4B" stroke-width="2.5" opacity=".5" d="M272.79 358.2l184.42-162.05"/><circle cx="457.21" cy="196.15" r="2" fill="#E04E4B" opacity=".5"/></g><g class="slope"><circle cx="272.79" cy="497.4" r="2" fill="#923E8B" opacity=".5"/><path stroke="#923E8B" stroke-width="2.5" opacity=".5" d="M272.79 497.4l184.42-78.9"/><circle cx="457.21" cy="418.5" r="2" fill="#923E8B" opacity=".5"/></g><g class="slope"><circle cx="272.79" cy="360.08" r="2" fill="#4C5C78" opacity=".5"/><path stroke="#4C5C78" stroke-width="2.5" opacity=".5" d="M272.79 360.08l184.42-141.31"/><circle cx="457.21" cy="218.77" r="2" fill="#4C5C78" opacity=".5"/></g><g class="slope"><circle cx="272.79" cy="406.51" r="2" fill="#2D8587" opacity=".5"/><path stroke="#2D8587" stroke-width="2.5" opacity=".5" d="M272.79 406.51l184.42-102.18"/><circle cx="457.21" cy="304.33" r="2" fill="#2D8587" opacity=".5"/></g><g class="slope"><circle cx="272.79" cy="353.04" r="2" fill="#932834" opacity=".5"/><path stroke="#932834" stroke-width="2.5" opacity=".5" d="M272.79 353.04l184.42-80.94"/><circle cx="457.21" cy="272.1" r="2" fill="#932834" opacity=".5"/></g><g class="slope"><circle cx="272.79" cy="383.03" r="2" fill="#932834" opacity=".5"/><path stroke="#932834" stroke-width="2.5" opacity=".5" d="M272.79 383.03l184.42-90.55"/><circle cx="457.21" cy="292.48" r="2" fill="#932834" opacity=".5"/></g><g class="slope"><circle cx="272.79" cy="377.81" r="2" fill="#E04E4B" opacity=".5"/><path stroke="#E04E4B" stroke-width="2.5" opacity=".5" d="M272.79 377.81l184.42-147.43"/><circle cx="457.21" cy="230.38" r="2" fill="#E04E4B" opacity=".5"/></g><g class="slope"><circle cx="272.79" cy="441.96" r="2" fill="#2D8587" opacity=".5"/><path stroke="#2D8587" stroke-width="2.5" opacity=".5" d="M272.79 441.96l184.42-113.3"/><circle cx="457.21" cy="328.66" r="2" fill="#2D8587" opacity=".5"/><text x="465.21" y="332.17" font-size="11.7" fill="#333">$5,223</text><text font-size="11.7" x="505.2" y="332.2" fill="#333"><tspan x="505.25" y="332.17">Pakistan</tspan></text></g><g class="slope"><circle cx="272.79" cy="293.52" r="2" fill="#4C5C78" opacity=".5"/><path stroke="#4C5C78" stroke-width="2.5" opacity=".5" d="M272.79 293.52l184.42-157.13"/><circle cx="457.21" cy="136.39" r="2" fill="#4C5C78" opacity=".5"/></g><g class="slope"><circle cx="272.79" cy="430.99" r="2" fill="#923E8B" opacity=".5"/><path stroke="#923E8B" stroke-width="2.5" opacity=".5" d="M272.79 430.99l184.42-104.13"/><circle cx="457.21" cy="326.86" r="2" fill="#923E8B" opacity=".5"/></g><g class="slope"><circle cx="272.79" cy="444.87" r="2" fill="#923E8B" opacity=".5"/><path stroke="#923E8B" stroke-width="2.5" opacity=".5" d="M272.79 444.87l184.42 4.23"/><circle cx="457.21" cy="449.1" r="2" fill="#923E8B" opacity=".5"/><text x="465.21" y="452.61" font-size="11.7" fill="#333">$925</text><text font-size="11.7" x="495.4" y="452.6" fill="#333"><tspan x="495.42" y="452.61">Niger</tspan></text></g><g class="slope"><circle cx="272.79" cy="378.14" r="2" fill="#E04E4B" opacity=".5"/><path stroke="#E04E4B" stroke-width="2.5" opacity=".5" d="M272.79 378.14l184.42-47.06"/><circle cx="457.21" cy="331.08" r="2" fill="#E04E4B" opacity=".5"/></g><g class="slope"><circle cx="272.79" cy="262.7" r="2" fill="#A8633C" opacity=".5"/><path stroke="#A8633C" stroke-width="2.5" opacity=".5" d="M272.79 262.7l184.42-64.97"/><circle cx="457.21" cy="197.73" r="2" fill="#A8633C" opacity=".5"/></g><g class="slope"><circle cx="272.79" cy="459.03" r="2" fill="#2D8587" opacity=".5"/><path stroke="#2D8587" stroke-width="2.5" opacity=".5" d="M272.79 459.03l184.42-77.27"/><circle cx="457.21" cy="381.76" r="2" fill="#2D8587" opacity=".5"/></g><g class="slope"><circle cx="272.79" cy="347.07" r="2" fill="#923E8B" opacity=".5"/><path stroke="#923E8B" stroke-width="2.5" opacity=".5" d="M272.79 347.07l184.42-59.11"/><circle cx="457.21" cy="287.96" r="2" fill="#923E8B" opacity=".5"/></g><g class="slope"><circle cx="272.79" cy="402.55" r="2" fill="#923E8B" opacity=".5"/><path stroke="#923E8B" stroke-width="2.5" opacity=".5" d="M272.79 402.55l184.42 33.68"/><circle cx="457.21" cy="436.23" r="2" fill="#923E8B" opacity=".5"/><text x="465.21" y="439.74" font-size="11.7" fill="#333">$1,113</text><text font-size="11.7" x="505.2" y="439.7" fill="#333"><tspan x="505.25" y="439.74">Mozambique</tspan></text></g><g class="slope"><circle cx="272.79" cy="385.15" r="2" fill="#923E8B" opacity=".5"/><path stroke="#923E8B" stroke-width="2.5" opacity=".5" d="M272.79 385.15l184.42-86.49"/><circle cx="457.21" cy="298.66" r="2" fill="#923E8B" opacity=".5"/></g><g class="slope"><circle cx="272.79" cy="470.82" r="2" fill="#2D8587" opacity=".5"/><path stroke="#2D8587" stroke-width="2.5" opacity=".5" d="M272.79 470.82l184.42-202.09"/><circle cx="457.21" cy="268.73" r="2" fill="#2D8587" opacity=".5"/></g><g class="slope"><circle cx="272.79" cy="356.32" r="2" fill="#E04E4B" opacity=".5"/><path stroke="#E04E4B" stroke-width="2.5" opacity=".5" d="M272.79 356.32L457.21 250.2"/><circle cx="457.21" cy="250.2" r="2" fill="#E04E4B" opacity=".5"/></g><g class="slope"><circle cx="272.79" cy="470.61" r="2" fill="#923E8B" opacity=".5"/><path stroke="#923E8B" stroke-width="2.5" opacity=".5" d="M272.79 470.61l184.42-112.22"/><circle cx="457.21" cy="358.39" r="2" fill="#923E8B" opacity=".5"/></g><g class="slope"><circle cx="272.79" cy="465.76" r="2" fill="#923E8B" opacity=".5"/><path stroke="#923E8B" stroke-width="2.5" opacity=".5" d="M272.79 465.76l184.42-54.52"/><circle cx="457.21" cy="411.24" r="2" fill="#923E8B" opacity=".5"/></g><g class="slope"><circle cx="272.79" cy="380.34" r="2" fill="#2D8587" opacity=".5"/><path stroke="#2D8587" stroke-width="2.5" opacity=".5" d="M272.79 380.34l184.42-154.98"/><circle cx="457.21" cy="225.36" r="2" fill="#2D8587" opacity=".5"/></g><g class="slope"><circle cx="272.79" cy="489.71" r="2" fill="#923E8B" opacity=".5"/><path stroke="#923E8B" stroke-width="2.5" opacity=".5" d="M272.79 489.71l184.42-53.42"/><circle cx="457.21" cy="436.29" r="2" fill="#923E8B" opacity=".5"/></g><g class="slope"><circle cx="272.79" cy="414.73" r="2" fill="#923E8B" opacity=".5"/><path stroke="#923E8B" stroke-width="2.5" opacity=".5" d="M272.79 414.73l184.42 6.49"/><circle cx="457.21" cy="421.22" r="2" fill="#923E8B" opacity=".5"/></g><g class="slope"><circle cx="272.79" cy="476.93" r="2" fill="#923E8B" opacity=".5"/><path stroke="#923E8B" stroke-width="2.5" opacity=".5" d="M272.79 476.93l184.42-178.76"/><circle cx="457.21" cy="298.17" r="2" fill="#923E8B" opacity=".5"/></g><g class="slope"><circle cx="272.79" cy="363.82" r="2" fill="#923E8B" opacity=".5"/><path stroke="#923E8B" stroke-width="2.5" opacity=".5" d="M272.79 363.82l184.42 92.9"/><circle cx="457.21" cy="456.72" r="2" fill="#923E8B" opacity=".5"/></g><g class="slope"><circle cx="272.79" cy="475.71" r="2" fill="#923E8B" opacity=".5"/><path stroke="#923E8B" stroke-width="2.5" opacity=".5" d="M272.79 475.71l184.42-102.85"/><circle cx="457.21" cy="372.86" r="2" fill="#923E8B" opacity=".5"/></g><g class="slope"><circle cx="272.79" cy="349.49" r="2" fill="#2D8587" opacity=".5"/><path stroke="#2D8587" stroke-width="2.5" opacity=".5" d="M272.79 349.49l184.42-84.12"/><circle cx="457.21" cy="265.37" r="2" fill="#2D8587" opacity=".5"/></g><g class="slope"><circle cx="272.79" cy="468.79" r="2" fill="#2D8587" opacity=".5"/><path stroke="#2D8587" stroke-width="2.5" opacity=".5" d="M272.79 468.79l184.42-148.12"/><circle cx="457.21" cy="320.67" r="2" fill="#2D8587" opacity=".5"/></g><g class="slope"><circle cx="272.79" cy="443.81" r="2" fill="#2D8587" opacity=".5"/><path stroke="#2D8587" stroke-width="2.5" opacity=".5" d="M272.79 443.81l184.42-249.66"/><circle cx="457.21" cy="194.15" r="2" fill="#2D8587" opacity=".5"/></g><g class="slope"><circle cx="272.79" cy="441.08" r="2" fill="#923E8B" opacity=".5"/><path stroke="#923E8B" stroke-width="2.5" opacity=".5" d="M272.79 441.08l184.42-77.65"/><circle cx="457.21" cy="363.43" r="2" fill="#923E8B" opacity=".5"/></g><g class="slope"><circle cx="272.79" cy="375.84" r="2" fill="#2D8587" opacity=".5"/><path stroke="#2D8587" stroke-width="2.5" opacity=".5" d="M272.79 375.84l184.42-102.27"/><circle cx="457.21" cy="273.57" r="2" fill="#2D8587" opacity=".5"/></g><g class="slope"><circle cx="272.79" cy="391.56" r="2" fill="#E04E4B" opacity=".5"/><path stroke="#E04E4B" stroke-width="2.5" opacity=".5" d="M272.79 391.56l184.42-84.1"/><circle cx="457.21" cy="307.46" r="2" fill="#E04E4B" opacity=".5"/></g><g class="slope"><circle cx="272.79" cy="339.18" r="2" fill="#2D8587" opacity=".5"/><path stroke="#2D8587" stroke-width="2.5" opacity=".5" d="M272.79 339.18L457.21 203.2"/><circle cx="457.21" cy="203.2" r="2" fill="#2D8587" opacity=".5"/></g><g class="slope"><circle cx="272.79" cy="389.65" r="2" fill="#2D8587" opacity=".5"/><path stroke="#2D8587" stroke-width="2.5" opacity=".5" d="M272.79 389.65l184.42-129.08"/><circle cx="457.21" cy="260.57" r="2" fill="#2D8587" opacity=".5"/></g><g class="slope"><circle cx="272.79" cy="373.5" r="2" fill="#2D8587" opacity=".5"/><path stroke="#2D8587" stroke-width="2.5" opacity=".5" d="M272.79 373.5l184.42-126.05"/><circle cx="457.21" cy="247.45" r="2" fill="#2D8587" opacity=".5"/></g><g class="slope"><circle cx="272.79" cy="426.5" r="2" fill="#2D8587" opacity=".5"/><path stroke="#2D8587" stroke-width="2.5" opacity=".5" d="M272.79 426.5l184.42-149.09"/><circle cx="457.21" cy="277.41" r="2" fill="#2D8587" opacity=".5"/></g><g class="slope"><circle cx="272.79" cy="444.59" r="2" fill="#2D8587" opacity=".5"/><path stroke="#2D8587" stroke-width="2.5" opacity=".5" d="M272.79 444.59l184.42-127.01"/><circle cx="457.21" cy="317.58" r="2" fill="#2D8587" opacity=".5"/></g><g class="slope"><circle cx="272.79" cy="348.05" r="2" fill="#4C5C78" opacity=".5"/><path stroke="#4C5C78" stroke-width="2.5" opacity=".5" d="M272.79 348.05l184.42-123.36"/><circle cx="457.21" cy="224.69" r="2" fill="#4C5C78" opacity=".5"/></g><g class="slope"><circle cx="272.79" cy="394.83" r="2" fill="#E04E4B" opacity=".5"/><path stroke="#E04E4B" stroke-width="2.5" opacity=".5" d="M272.79 394.83l184.42-60.23"/><circle cx="457.21" cy="334.6" r="2" fill="#E04E4B" opacity=".5"/></g><g class="slope"><circle cx="272.79" cy="413.23" r="2" fill="#2D8587" opacity=".5"/><path stroke="#2D8587" stroke-width="2.5" opacity=".5" d="M272.79 413.23l184.42-85.87"/><circle cx="457.21" cy="327.36" r="2" fill="#2D8587" opacity=".5"/></g><g class="slope"><circle cx="272.79" cy="395.55" r="2" fill="#2D8587" opacity=".5"/><path stroke="#2D8587" stroke-width="2.5" opacity=".5" d="M272.79 395.55l184.42-119.64"/><circle cx="457.21" cy="275.91" r="2" fill="#2D8587" opacity=".5"/></g><g class="slope"><circle cx="272.79" cy="475.71" r="2" fill="#2D8587" opacity=".5"/><path stroke="#2D8587" stroke-width="2.5" opacity=".5" d="M272.79 475.71l184.42-147.85"/><circle cx="457.21" cy="327.86" r="2" fill="#2D8587" opacity=".5"/></g><g class="slope"><circle cx="272.79" cy="408.46" r="2" fill="#923E8B" opacity=".5"/><path stroke="#923E8B" stroke-width="2.5" opacity=".5" d="M272.79 408.46l184.42-49.83"/><circle cx="457.21" cy="358.63" r="2" fill="#923E8B" opacity=".5"/></g><g class="slope"><circle cx="272.79" cy="345.81" r="2" fill="#2D8587" opacity=".5"/><path stroke="#2D8587" stroke-width="2.5" opacity=".5" d="M272.79 345.81l184.42-171.95"/><circle cx="457.21" cy="173.86" r="2" fill="#2D8587" opacity=".5"/></g><g class="slope"><circle cx="272.79" cy="403.17" r="2" fill="#E04E4B" opacity=".5"/><path stroke="#E04E4B" stroke-width="2.5" opacity=".5" d="M272.79 403.17l184.42 2.45"/><circle cx="457.21" cy="405.62" r="2" fill="#E04E4B" opacity=".5"/></g><g class="slope"><circle cx="272.79" cy="489.17" r="2" fill="#923E8B" opacity=".5"/><path stroke="#923E8B" stroke-width="2.5" opacity=".5" d="M272.79 489.17l184.42-69.74"/><circle cx="457.21" cy="419.43" r="2" fill="#923E8B" opacity=".5"/></g><g class="slope"><circle cx="272.79" cy="360.13" r="2" fill="#E04E4B" opacity=".5"/><path stroke="#E04E4B" stroke-width="2.5" opacity=".5" d="M272.79 360.13l184.42-54"/><circle cx="457.21" cy="306.13" r="2" fill="#E04E4B" opacity=".5"/></g><g class="slope"><circle cx="272.79" cy="366.04" r="2" fill="#4C5C78" opacity=".5"/><path stroke="#4C5C78" stroke-width="2.5" opacity=".5" d="M272.79 366.04l184.42-139.22"/><circle cx="457.21" cy="226.82" r="2" fill="#4C5C78" opacity=".5"/></g><g class="slope"><circle cx="272.79" cy="403.25" r="2" fill="#923E8B" opacity=".5"/><path stroke="#923E8B" stroke-width="2.5" opacity=".5" d="M272.79 403.25l184.42-53.87"/><circle cx="457.21" cy="349.38" r="2" fill="#923E8B" opacity=".5"/></g><g class="slope"><circle cx="272.79" cy="444.94" r="2" fill="#923E8B" opacity=".5"/><path stroke="#923E8B" stroke-width="2.5" opacity=".5" d="M272.79 444.94l184.42-41.69"/><circle cx="457.21" cy="403.25" r="2" fill="#923E8B" opacity=".5"/></g><g class="slope"><circle cx="272.79" cy="368.22" r="2" fill="#923E8B" opacity=".5"/><path stroke="#923E8B" stroke-width="2.5" opacity=".5" d="M272.79 368.22L457.21 241"/><circle cx="457.21" cy="241" r="2" fill="#923E8B" opacity=".5"/></g><g class="slope"><circle cx="272.79" cy="357.33" r="2" fill="#923E8B" opacity=".5"/><path stroke="#923E8B" stroke-width="2.5" opacity=".5" d="M272.79 357.33l184.42 8.44"/><circle cx="457.21" cy="365.77" r="2" fill="#923E8B" opacity=".5"/></g><g class="slope"><text font-size="11.7" x="224.8" y="314" text-anchor="end" fill="#333"><tspan x="224.75" y="314.03">Finland</tspan></text><text x="264.79" y="314.03" text-anchor="end" font-size="11.7" fill="#333">$6,779</text><circle cx="272.79" cy="310.52" r="2" fill="#4C5C78" opacity=".5"/><path stroke="#4C5C78" stroke-width="2.5" opacity=".5" d="M272.79 310.52L457.21 192"/><circle cx="457.21" cy="192" r="2" fill="#4C5C78" opacity=".5"/></g><g class="slope"><circle cx="272.79" cy="476.71" r="2" fill="#923E8B" opacity=".5"/><path stroke="#923E8B" stroke-width="2.5" opacity=".5" d="M272.79 476.71l184.42-67.24"/><circle cx="457.21" cy="409.47" r="2" fill="#923E8B" opacity=".5"/></g><g class="slope"><circle cx="272.79" cy="459.46" r="2" fill="#923E8B" opacity=".5"/><path stroke="#923E8B" stroke-width="2.5" opacity=".5" d="M272.79 459.46l184.42-259.72"/><circle cx="457.21" cy="199.74" r="2" fill="#923E8B" opacity=".5"/></g><g class="slope"><circle cx="272.79" cy="409.38" r="2" fill="#E04E4B" opacity=".5"/><path stroke="#E04E4B" stroke-width="2.5" opacity=".5" d="M272.79 409.38l184.42-151.7"/><circle cx="457.21" cy="257.68" r="2" fill="#E04E4B" opacity=".5"/></g><g class="slope"><circle cx="272.79" cy="276.42" r="2" fill="#4C5C78" opacity=".5"/><path stroke="#4C5C78" stroke-width="2.5" opacity=".5" d="M272.79 276.42l184.42-97.34"/><circle cx="457.21" cy="179.08" r="2" fill="#4C5C78" opacity=".5"/></g><g class="slope"><circle cx="272.79" cy="369.96" r="2" fill="#4C5C78" opacity=".5"/><path stroke="#4C5C78" stroke-width="2.5" opacity=".5" d="M272.79 369.96l184.42-151.82"/><circle cx="457.21" cy="218.14" r="2" fill="#4C5C78" opacity=".5"/></g><g class="slope"><circle cx="272.79" cy="376.19" r="2" fill="#E04E4B" opacity=".5"/><path stroke="#E04E4B" stroke-width="2.5" opacity=".5" d="M272.79 376.19L457.21 299"/><circle cx="457.21" cy="299" r="2" fill="#E04E4B" opacity=".5"/></g><g class="slope"><circle cx="272.79" cy="364.31" r="2" fill="#E04E4B" opacity=".5"/><path stroke="#E04E4B" stroke-width="2.5" opacity=".5" d="M272.79 364.31l184.42-104.73"/><circle cx="457.21" cy="259.58" r="2" fill="#E04E4B" opacity=".5"/></g><g class="slope"><circle cx="272.79" cy="450.31" r="2" fill="#923E8B" opacity=".5"/><path stroke="#923E8B" stroke-width="2.5" opacity=".5" d="M272.79 450.31l184.42 5.83"/><circle cx="457.21" cy="456.14" r="2" fill="#923E8B" opacity=".5"/></g><g class="slope"><circle cx="272.79" cy="407.04" r="2" fill="#923E8B" opacity=".5"/><path stroke="#923E8B" stroke-width="2.5" opacity=".5" d="M272.79 407.04l184.42-87.72"/><circle cx="457.21" cy="319.32" r="2" fill="#923E8B" opacity=".5"/></g><g class="slope"><circle cx="272.79" cy="487.32" r="2" fill="#923E8B" opacity=".5"/><path stroke="#923E8B" stroke-width="2.5" opacity=".5" d="M272.79 487.32l184.42-80.64"/><circle cx="457.21" cy="406.68" r="2" fill="#923E8B" opacity=".5"/></g><g class="slope"><circle cx="272.79" cy="357.88" r="2" fill="#932834" opacity=".5"/><path stroke="#932834" stroke-width="2.5" opacity=".5" d="M272.79 357.88l184.42-94.38"/><circle cx="457.21" cy="263.5" r="2" fill="#932834" opacity=".5"/></g><g class="slope"><circle cx="272.79" cy="459.29" r="2" fill="#2D8587" opacity=".5"/><path stroke="#2D8587" stroke-width="2.5" opacity=".5" d="M272.79 459.29l184.42-191.72"/><circle cx="457.21" cy="267.57" r="2" fill="#2D8587" opacity=".5"/></g><g class="slope"><circle cx="272.79" cy="320.42" r="2" fill="#932834" opacity=".5"/><path stroke="#932834" stroke-width="2.5" opacity=".5" d="M272.79 320.42l184.42-90.83"/><circle cx="457.21" cy="229.59" r="2" fill="#932834" opacity=".5"/></g><g class="slope"><circle cx="272.79" cy="457.91" r="2" fill="#923E8B" opacity=".5"/><path stroke="#923E8B" stroke-width="2.5" opacity=".5" d="M272.79 457.91l184.42-68.74"/><circle cx="457.21" cy="389.17" r="2" fill="#923E8B" opacity=".5"/></g><g class="slope"><circle cx="272.79" cy="425.05" r="2" fill="#923E8B" opacity=".5"/><path stroke="#923E8B" stroke-width="2.5" opacity=".5" d="M272.79 425.05l184.42 55.45"/><circle cx="457.21" cy="480.5" r="2" fill="#923E8B" opacity=".5"/></g><g class="slope"><circle cx="272.79" cy="417.35" r="2" fill="#2D8587" opacity=".5"/><path stroke="#2D8587" stroke-width="2.5" opacity=".5" d="M272.79 417.35l184.42-233.99"/><circle cx="457.21" cy="183.36" r="2" fill="#2D8587" opacity=".5"/></g><g class="slope"><circle cx="272.79" cy="445.08" r="2" fill="#E04E4B" opacity=".5"/><path stroke="#E04E4B" stroke-width="2.5" opacity=".5" d="M272.79 445.08l184.42-158.4"/><circle cx="457.21" cy="286.68" r="2" fill="#E04E4B" opacity=".5"/></g><g class="slope"><circle cx="272.79" cy="367.94" r="2" fill="#932834" opacity=".5"/><path stroke="#932834" stroke-width="2.5" opacity=".5" d="M272.79 367.94l184.42-88.04"/><circle cx="457.21" cy="279.9" r="2" fill="#932834" opacity=".5"/></g><g class="slope"><circle cx="272.79" cy="294.8" r="2" fill="#4C5C78" opacity=".5"/><path stroke="#4C5C78" stroke-width="2.5" opacity=".5" d="M272.79 294.8l184.42-111.31"/><circle cx="457.21" cy="183.49" r="2" fill="#4C5C78" opacity=".5"/></g><g class="slope"><text font-size="11.7" x="218.2" y="180.8" text-anchor="end" fill="#333"><tspan x="218.2" y="180.76">Kuwait</tspan></text><text x="264.79" y="180.76" text-anchor="end" font-size="11.7" fill="#333">$46,031</text><circle cx="272.79" cy="177.25" r="2" fill="#2D8587" opacity=".5"/><path stroke="#2D8587" stroke-width="2.5" opacity=".5" d="M272.79 177.25l184.42-30.16"/><circle cx="457.21" cy="147.09" r="2" fill="#2D8587" opacity=".5"/></g><g class="slope"><circle cx="272.79" cy="263.23" r="2" fill="#4C5C78" opacity=".5"/><path stroke="#4C5C78" stroke-width="2.5" opacity=".5" d="M272.79 263.23l184.42-100.86"/><circle cx="457.21" cy="162.37" r="2" fill="#4C5C78" opacity=".5"/></g><g class="slope"><circle cx="272.79" cy="412.16" r="2" fill="#4C5C78" opacity=".5"/><path stroke="#4C5C78" stroke-width="2.5" opacity=".5" d="M272.79 412.16l184.42-204.7"/><circle cx="457.21" cy="207.46" r="2" fill="#4C5C78" opacity=".5"/></g><g class="slope"><circle cx="272.79" cy="348.24" r="2" fill="#923E8B" opacity=".5"/><path stroke="#923E8B" stroke-width="2.5" opacity=".5" d="M272.79 348.24l184.42-109.12"/><circle cx="457.21" cy="239.12" r="2" fill="#923E8B" opacity=".5"/></g><g class="slope"><circle cx="272.79" cy="444.16" r="2" fill="#2D8587" opacity=".5"/><path stroke="#2D8587" stroke-width="2.5" opacity=".5" d="M272.79 444.16l184.42-254.51"/><circle cx="457.21" cy="189.65" r="2" fill="#2D8587" opacity=".5"/></g><g class="slope"><circle cx="272.79" cy="173.71" r="2" fill="#2D8587" opacity=".5"/><path stroke="#2D8587" stroke-width="2.5" opacity=".5" d="M272.79 173.71L457.21 92.2"/><circle cx="457.21" cy="92.2" r="2" fill="#2D8587" opacity=".5"/><text x="465.21" y="95.71" font-size="11.7" fill="#333">$156,299</text><text font-size="11.7" x="518.4" y="95.7" fill="#333"><tspan x="518.35" y="95.71">Qatar</tspan></text></g><g class="slope"><circle cx="272.79" cy="429.22" r="2" fill="#E04E4B" opacity=".5"/><path stroke="#E04E4B" stroke-width="2.5" opacity=".5" d="M272.79 429.22l184.42-147.35"/><circle cx="457.21" cy="281.87" r="2" fill="#E04E4B" opacity=".5"/></g><g class="slope"><circle cx="272.79" cy="426.61" r="2" fill="#923E8B" opacity=".5"/><path stroke="#923E8B" stroke-width="2.5" opacity=".5" d="M272.79 426.61l184.42-72.52"/><circle cx="457.21" cy="354.09" r="2" fill="#923E8B" opacity=".5"/></g><g class="slope"><circle cx="272.79" cy="376.34" r="2" fill="#923E8B" opacity=".5"/><path stroke="#923E8B" stroke-width="2.5" opacity=".5" d="M272.79 376.34l184.42-161"/><circle cx="457.21" cy="215.34" r="2" fill="#923E8B" opacity=".5"/></g><g class="slope"><circle cx="272.79" cy="295.09" r="2" fill="#932834" opacity=".5"/><path stroke="#932834" stroke-width="2.5" opacity=".5" d="M272.79 295.09l184.42-40.83"/><circle cx="457.21" cy="254.26" r="2" fill="#932834" opacity=".5"/></g><g class="slope"><circle cx="272.79" cy="383.49" r="2" fill="#E04E4B" opacity=".5"/><path stroke="#E04E4B" stroke-width="2.5" opacity=".5" d="M272.79 383.49l184.42-86.88"/><circle cx="457.21" cy="296.61" r="2" fill="#E04E4B" opacity=".5"/></g><g class="slope"><circle cx="272.79" cy="324.05" r="2" fill="#4C5C78" opacity=".5"/><path stroke="#4C5C78" stroke-width="2.5" opacity=".5" d="M272.79 324.05l184.42-111.56"/><circle cx="457.21" cy="212.49" r="2" fill="#4C5C78" opacity=".5"/></g><g class="slope"><circle cx="272.79" cy="359.55" r="2" fill="#ff7f0e" opacity=".5"/><path stroke="#ff7f0e" stroke-width="2.5" opacity=".5" d="M272.79 359.55l184.42-102.88"/><circle cx="457.21" cy="256.67" r="2" fill="#ff7f0e" opacity=".5"/></g><g class="slope"><circle cx="272.79" cy="345.81" r="2" fill="#ff7f0e" opacity=".5"/><path stroke="#ff7f0e" stroke-width="2.5" opacity=".5" d="M272.79 345.81L457.21 237.2"/><circle cx="457.21" cy="237.2" r="2" fill="#ff7f0e" opacity=".5"/></g><g class="slope"><circle cx="272.79" cy="305.72" r="2" fill="#ff7f0e" opacity=".5"/><path stroke="#ff7f0e" stroke-width="2.5" opacity=".5" d="M272.79 305.72l184.42-116.06"/><circle cx="457.21" cy="189.66" r="2" fill="#ff7f0e" opacity=".5"/></g><g class="slope"><circle cx="272.79" cy="386.46" r="2" fill="#ff7f0e" opacity=".5"/><path stroke="#ff7f0e" stroke-width="2.5" opacity=".5" d="M272.79 386.46l184.42-133.1"/><circle cx="457.21" cy="253.36" r="2" fill="#ff7f0e" opacity=".5"/></g><g class="slope"><circle cx="272.79" cy="352.41" r="2" fill="#ff7f0e" opacity=".5"/><path stroke="#ff7f0e" stroke-width="2.5" opacity=".5" d="M272.79 352.41l184.42-92.79"/><circle cx="457.21" cy="259.62" r="2" fill="#ff7f0e" opacity=".5"/></g><g class="slope"><circle cx="272.79" cy="382.97" r="2" fill="#ff7f0e" opacity=".5"/><path stroke="#ff7f0e" stroke-width="2.5" opacity=".5" d="M272.79 382.97l184.42-140.43"/><circle cx="457.21" cy="242.54" r="2" fill="#ff7f0e" opacity=".5"/></g><g class="slope"><circle cx="272.79" cy="435.69" r="2" fill="#ff7f0e" opacity=".5"/><path stroke="#ff7f0e" stroke-width="2.5" opacity=".5" d="M272.79 435.69L457.21 252.1"/><circle cx="457.21" cy="252.1" r="2" fill="#ff7f0e" opacity=".5"/></g></g></g><g class="ScatterColorLegend clickable" cursor="pointer"><g class="legendMark"><path fill="#923E8B" d="M735 94h9v9h-9z"/><text font-size="12.6" x="749" y="102.3"><tspan x="749" y="102.28">Africa</tspan></text></g><g class="legendMark"><path fill="#2D8587" d="M735 111.6h9v9h-9z"/><text font-size="12.6" x="749" y="119.9"><tspan x="749" y="119.88">Asia</tspan></text></g><g class="legendMark"><path fill="#4C5C78" d="M735 129.2h9v9h-9z"/><text font-size="12.6" x="749" y="137.5"><tspan x="749" y="137.48">Europe</tspan></text></g><g class="legendMark"><path fill="#E04E4B" d="M735 146.8h9v9h-9z"/><text font-size="12.6" x="749" y="155.1"><tspan x="749" y="155.08">North America</tspan></text></g><g class="legendMark"><path fill="#A8633C" d="M735 164.4h9v9h-9z"/><text font-size="12.6" x="749" y="172.7"><tspan x="749" y="172.68">Oceania</tspan></text></g><g class="legendMark"><path fill="#932834" d="M735 182h9v9h-9z"/><text font-size="12.6" x="749" y="190.3"><tspan x="749" y="190.28">South America</tspan></text></g></g></g><g class="SourcesFooter" fill="#777"><g fill="#777"><text font-size="12.6" x="15" y="582.5"><tspan x="15" y="582.48">Source: Maddison Project Database 2020 (Bolt and van Zanden (2020))</tspan></text></g><text font-size="12.6" x="570.4" y="582.5"><tspan x="570.4" y="582.48"><a target="_blank" href="https://ourworldindata.org/economic-growth" fill="#777">OurWorldInData.org/economic-growth</a> • <a class="cclogo" href="http://creativecommons.org/licenses/by/4.0/deed.en_US" target="_blank" fill="#777">CC BY</a></tspan></text></g></svg>