<svg xmlns="http://www.w3.org/2000/svg" version="1.1" style="font-family:Lato,'Helvetica Neue',Helvetica,Arial,sans-serif;font-size:18px;background-color:#fff;text-rendering:geometricPrecision;-webkit-font-smoothing:antialiased" width="850" height="600" viewBox="0 0 850 600"><g class="HeaderView"><g transform="matrix(.29 0 0 .29 774 15)"><svg className="owidLog" width="210" height="120" viewBox="0 0 210 120" fill="none" xmlns="http://www.w3.org/2000/svg"><g clip-path="url(#a)"><path d="M0 0h210v107.89H0V0z" fill="#002147"/><path d="M40.98 32.25c0 2.36-.38 4.53-1.12 6.51a14.26 14.26 0 0 1-8.1 8.4c-1.9.78-4.02 1.17-6.34 1.17a16.6 16.6 0 0 1-6.33-1.17 14.31 14.31 0 0 1-8.08-8.4 18.29 18.29 0 0 1-1.12-6.51c0-2.36.38-4.53 1.12-6.5.75-1.97 1.8-3.67 3.17-5.1a14.32 14.32 0 0 1 4.9-3.34c1.92-.8 4.03-1.19 6.34-1.19 2.32 0 4.43.4 6.34 1.19 1.92.8 3.56 1.9 4.93 3.34a14.87 14.87 0 0 1 3.17 5.1 18.1 18.1 0 0 1 1.12 6.5zm-4.38 0c0-1.94-.26-3.68-.8-5.22a10.91 10.91 0 0 0-2.24-3.89 9.68 9.68 0 0 0-3.52-2.46 11.95 11.95 0 0 0-4.62-.86c-1.68 0-3.21.28-4.6.86a9.88 9.88 0 0 0-3.54 2.46 10.91 10.91 0 0 0-2.24 3.9c-.53 1.53-.8 3.27-.8 5.2 0 1.94.27 3.68.8 5.22a11.17 11.17 0 0 0 2.24 3.9 10.01 10.01 0 0 0 3.55 2.44c1.38.56 2.9.83 4.6.83s3.24-.27 4.61-.83a9.8 9.8 0 0 0 3.52-2.44 11.17 11.17 0 0 0 2.25-3.9c.53-1.54.8-3.28.8-5.21zm26.22-6.54V48H60.5c-.56 0-.9-.27-1.05-.81l-.31-2.4a12.45 12.45 0 0 1-3.26 2.6c-1.2.64-2.58.96-4.13.96-1.22 0-2.3-.2-3.24-.6a6.52 6.52 0 0 1-2.33-1.7 7.37 7.37 0 0 1-1.43-2.67c-.3-1.04-.46-2.2-.46-3.45V25.7h3.91v14.22c0 1.68.38 2.99 1.15 3.91.77.93 1.96 1.39 3.54 1.39 1.16 0 2.24-.27 3.23-.82a10.42 10.42 0 0 0 2.8-2.28V25.7h3.91zm8.61 4.47a9.94 9.94 0 0 1 2.6-3.56 5.64 5.64 0 0 1 3.76-1.3c.47 0 .92.05 1.34.15.44.1.83.27 1.17.49l-.3 2.92c-.09.37-.3.55-.66.55-.2 0-.5-.04-.9-.13a6.21 6.21 0 0 0-3.24.18 4.23 4.23 0 0 0-1.47.92c-.42.4-.81.9-1.17 1.5-.33.58-.64 1.26-.92 2.02V48H67.7V25.71h2.25c.42 0 .72.08.88.25.16.16.27.44.33.83l.26 3.39zm61.16-13.7L122.75 48h-3.82l-7.99-24.05a21.95 21.95 0 0 1-.42-1.58 38.36 38.36 0 0 1-.44 1.58L102.05 48h-3.83L88.4 16.47h3.54c.38 0 .7.1.95.29.26.2.43.43.5.73l6.52 21.9.28 1.28.29 1.46.3-1.46.38-1.27 7.41-21.91c.1-.25.26-.48.51-.69.27-.22.58-.33.95-.33h1.23c.38 0 .69.1.92.29a1.77 1.77 0 0 1 .53.73l7.4 21.9a28.4 28.4 0 0 1 .68 2.62 29.52 29.52 0 0 1 .52-2.61l6.54-21.91a1.31 1.31 0 0 1 .48-.7c.27-.21.58-.32.95-.32h3.32zm9.35 8.88c1.63 0 3.1.27 4.4.82a9.43 9.43 0 0 1 5.46 5.94c.5 1.4.74 2.98.74 4.73 0 1.76-.25 3.34-.74 4.75a9.43 9.43 0 0 1-5.46 5.92c-1.3.52-2.77.79-4.4.79-1.64 0-3.12-.27-4.44-.8a9.42 9.42 0 0 1-3.35-2.3c-.92-1-1.63-2.2-2.13-3.61-.49-1.41-.73-3-.73-4.75s.24-3.33.73-4.73c.5-1.43 1.2-2.64 2.13-3.63a9.4 9.4 0 0 1 3.35-2.31c1.32-.55 2.8-.82 4.44-.82zm0 19.89c2.2 0 3.84-.73 4.93-2.2 1.08-1.48 1.63-3.54 1.63-6.18 0-2.66-.55-4.72-1.63-6.2-1.09-1.49-2.73-2.23-4.93-2.23-1.12 0-2.09.2-2.93.57a5.71 5.71 0 0 0-2.06 1.65 7.5 7.5 0 0 0-1.24 2.67c-.26 1.04-.4 2.22-.4 3.54 0 2.64.55 4.7 1.64 6.18 1.1 1.47 2.76 2.2 4.99 2.2zm17.97-15.07a9.94 9.94 0 0 1 2.6-3.56 5.64 5.64 0 0 1 3.76-1.3c.47 0 .91.05 1.34.15.44.1.83.27 1.16.49l-.28 2.92c-.09.37-.31.55-.66.55-.2 0-.5-.04-.9-.13a6.2 6.2 0 0 0-3.24.18 4.23 4.23 0 0 0-1.47.92c-.43.4-.82.9-1.17 1.5a13.1 13.1 0 0 0-.92 2.02V48h-3.94V25.71h2.24c.43 0 .72.08.88.25.17.16.28.44.33.83l.27 3.39zm15.04-14.59V48h-3.92V15.6h3.92zm19.55 15.43a6.22 6.22 0 0 0-2.38-2.05 6.7 6.7 0 0 0-2.86-.6c-2.07 0-3.66.75-4.77 2.23-1.12 1.48-1.68 3.6-1.68 6.33 0 1.46.13 2.7.38 3.74a7.29 7.29 0 0 0 1.1 2.56 4.35 4.35 0 0 0 1.78 1.45c.7.3 1.5.46 2.4.46 1.29 0 2.41-.3 3.36-.88a9.6 9.6 0 0 0 2.67-2.49V31.02zm3.91-15.43V48h-2.33c-.56 0-.9-.27-1.06-.81l-.35-2.71a12.13 12.13 0 0 1-3.25 2.77 8.28 8.28 0 0 1-4.23 1.06 7.31 7.31 0 0 1-6.14-2.9c-.73-.96-1.3-2.15-1.69-3.57a18.35 18.35 0 0 1 .07-9.48 11.29 11.29 0 0 1 1.89-3.7 8.7 8.7 0 0 1 7.06-3.34 7.96 7.96 0 0 1 6.12 2.62V15.59h3.91zM46.61 70.71V93H42.7V70.71h3.91zm.84-7c0 .39-.08.75-.24 1.09a2.81 2.81 0 0 1-1.52 1.47 2.67 2.67 0 0 1-2.16 0 2.9 2.9 0 0 1-1.45-1.47 2.67 2.67 0 0 1 0-2.16c.15-.35.35-.65.6-.9.25-.27.53-.47.85-.62a2.67 2.67 0 0 1 2.16 0c.35.15.65.35.9.62.27.25.47.55.62.9.16.34.24.7.24 1.08zm7.97 10.24c.49-.54 1-1.04 1.54-1.48a9.85 9.85 0 0 1 3.66-1.84 8.96 8.96 0 0 1 5.43.35c.94.4 1.72.97 2.33 1.71a7.36 7.36 0 0 1 1.43 2.67c.32 1.04.49 2.19.49 3.45V93h-3.94V78.81c0-1.69-.4-3-1.17-3.92-.76-.93-1.93-1.4-3.5-1.4a6.6 6.6 0 0 0-3.25.83c-1 .56-1.92 1.31-2.77 2.27V93h-3.94V70.71h2.35c.56 0 .9.28 1.04.82l.3 2.42zm57.7 3.3c0 2.36-.37 4.5-1.11 6.44a14.3 14.3 0 0 1-3.17 4.98 14.1 14.1 0 0 1-4.93 3.2c-1.9.76-4.02 1.13-6.33 1.13H85.8V61.47h11.77c2.31 0 4.42.39 6.33 1.15a13.8 13.8 0 0 1 8.1 8.18 17.75 17.75 0 0 1 1.12 6.45zm-4.37 0c0-1.94-.26-3.67-.8-5.2a10.94 10.94 0 0 0-2.23-3.87 9.57 9.57 0 0 0-3.53-2.42 12.23 12.23 0 0 0-4.61-.83h-7.5v24.62h7.5c1.7 0 3.24-.28 4.61-.84a9.7 9.7 0 0 0 3.53-2.4 10.94 10.94 0 0 0 2.24-3.87c.53-1.53.8-3.26.8-5.2zm19.8 5.72c-1.8.06-3.34.2-4.62.44-1.26.22-2.3.51-3.1.88-.8.36-1.37.8-1.74 1.3-.35.5-.53 1.05-.53 1.67 0 .58.1 1.1.3 1.52a3 3 0 0 0 .76 1.05c.34.27.73.46 1.17.6a6.13 6.13 0 0 0 1.45.17 7.28 7.28 0 0 0 3.5-.81 11.95 11.95 0 0 0 2.82-2.2v-4.62zm-12.65-9.11a12.73 12.73 0 0 1 3.98-2.66c1.43-.59 3-.88 4.73-.88 1.25 0 2.36.2 3.33.61a6.81 6.81 0 0 1 3.94 4.38c.33 1.04.5 2.19.5 3.43V93h-1.74a1.8 1.8 0 0 1-.88-.18c-.2-.13-.36-.38-.48-.74l-.44-2.12-1.72 1.46a9.48 9.48 0 0 1-3.74 1.7c-.69.15-1.46.23-2.3.23-.87 0-1.69-.12-2.45-.35a5.34 5.34 0 0 1-3.34-2.93 6.64 6.64 0 0 1-.49-2.64c0-.88.25-1.72.73-2.53a6.33 6.33 0 0 1 2.35-2.17c1.09-.63 2.5-1.15 4.25-1.54 1.75-.41 3.89-.65 6.42-.7v-1.75c0-1.73-.37-3.03-1.12-3.91-.75-.9-1.84-1.34-3.28-1.34-.97 0-1.78.12-2.44.37-.64.23-1.2.5-1.7.81l-1.23.82c-.33.23-.67.35-1 .35-.27 0-.5-.07-.69-.2a2.1 2.1 0 0 1-.48-.53l-.7-1.25zm27.67 19.5c-1.76 0-3.12-.5-4.07-1.48-.94-.98-1.41-2.4-1.41-4.25V74h-2.68a.9.9 0 0 1-.6-.2c-.16-.14-.24-.36-.24-.66v-1.56l3.65-.46.9-6.89a.9.9 0 0 1 .29-.52.88.88 0 0 1 .62-.22H142v7.67h6.44V74H142v13.38c0 .94.22 1.63.68 2.09.45.45 1.04.68 1.76.68a3.21 3.21 0 0 0 1.85-.53l.55-.35c.16-.12.3-.18.41-.18.2 0 .4.13.55.38l1.15 1.87a7.45 7.45 0 0 1-2.44 1.5 8.53 8.53 0 0 1-2.95.52zm19.68-10.4c-1.8.07-3.34.21-4.62.45-1.26.22-2.3.51-3.1.88-.8.36-1.37.8-1.74 1.3-.35.5-.53 1.05-.53 1.67 0 .58.1 1.1.3 1.52a2.9 2.9 0 0 0 .76 1.05c.34.27.73.46 1.17.6a6.13 6.13 0 0 0 1.45.17 7.3 7.3 0 0 0 3.5-.81 12.04 12.04 0 0 0 2.82-2.2v-4.62zm-12.65-9.1a12.72 12.72 0 0 1 3.99-2.66c1.42-.59 3-.88 4.72-.88 1.25 0 2.36.2 3.33.61a6.81 6.81 0 0 1 3.94 4.38c.33 1.04.5 2.19.5 3.43V93h-1.74a1.8 1.8 0 0 1-.88-.18c-.2-.13-.36-.38-.48-.74l-.44-2.12-1.72 1.46a9.48 9.48 0 0 1-3.74 1.7c-.69.15-1.46.23-2.3.23-.87 0-1.69-.12-2.45-.35a5.33 5.33 0 0 1-3.34-2.93 6.62 6.62 0 0 1-.49-2.64c0-.88.25-1.72.73-2.53a6.33 6.33 0 0 1 2.35-2.17c1.09-.63 2.5-1.15 4.25-1.54a31.2 31.2 0 0 1 6.42-.7v-1.75c0-1.73-.37-3.03-1.12-3.91-.75-.9-1.84-1.34-3.28-1.34-.97 0-1.78.12-2.44.37-.64.23-1.2.5-1.7.81l-1.22.82c-.34.23-.68.35-1.02.35-.26 0-.49-.07-.68-.2a1.88 1.88 0 0 1-.48-.53l-.7-1.25zM40.98 32.25c0 2.36-.38 4.53-1.12 6.51a14.26 14.26 0 0 1-8.1 8.4c-1.9.78-4.02 1.17-6.34 1.17a16.6 16.6 0 0 1-6.33-1.17 14.31 14.31 0 0 1-8.08-8.4 18.29 18.29 0 0 1-1.12-6.51c0-2.36.38-4.53 1.12-6.5.75-1.97 1.8-3.67 3.17-5.1a14.32 14.32 0 0 1 4.9-3.34c1.92-.8 4.03-1.19 6.34-1.19 2.32 0 4.43.4 6.34 1.19 1.92.8 3.56 1.9 4.93 3.34a14.87 14.87 0 0 1 3.17 5.1 18.1 18.1 0 0 1 1.12 6.5zm-4.38 0c0-1.94-.26-3.68-.8-5.22a10.91 10.91 0 0 0-2.24-3.89 9.68 9.68 0 0 0-3.52-2.46 11.95 11.95 0 0 0-4.62-.86c-1.68 0-3.21.28-4.6.86a9.88 9.88 0 0 0-3.54 2.46 10.91 10.91 0 0 0-2.24 3.9c-.53 1.53-.8 3.27-.8 5.2 0 1.94.27 3.68.8 5.22a11.17 11.17 0 0 0 2.24 3.9 10.01 10.01 0 0 0 3.55 2.44c1.38.56 2.9.83 4.6.83s3.24-.27 4.61-.83a9.8 9.8 0 0 0 3.52-2.44 11.17 11.17 0 0 0 2.25-3.9c.53-1.54.8-3.28.8-5.21zm26.22-6.54V48H60.5c-.56 0-.9-.27-1.05-.81l-.31-2.4a12.45 12.45 0 0 1-3.26 2.6c-1.2.64-2.58.96-4.13.96-1.22 0-2.3-.2-3.24-.6a6.52 6.52 0 0 1-2.33-1.7 7.37 7.37 0 0 1-1.43-2.67c-.3-1.04-.46-2.2-.46-3.45V25.7h3.91v14.22c0 1.68.38 2.99 1.15 3.91.77.93 1.96 1.39 3.54 1.39 1.16 0 2.24-.27 3.23-.82a10.42 10.42 0 0 0 2.8-2.28V25.7h3.91zm8.61 4.47a9.94 9.94 0 0 1 2.6-3.56 5.64 5.64 0 0 1 3.76-1.3c.47 0 .92.05 1.34.15.44.1.83.27 1.17.49l-.3 2.92c-.09.37-.3.55-.66.55-.2 0-.5-.04-.9-.13a6.21 6.21 0 0 0-3.24.18 4.23 4.23 0 0 0-1.47.92c-.42.4-.81.9-1.17 1.5-.33.58-.64 1.26-.92 2.02V48H67.7V25.71h2.25c.42 0 .72.08.88.25.16.16.27.44.33.83l.26 3.39zm61.16-13.7L122.75 48h-3.82l-7.99-24.05a21.95 21.95 0 0 1-.42-1.58 38.36 38.36 0 0 1-.44 1.58L102.05 48h-3.83L88.4 16.47h3.54c.38 0 .7.1.95.29.26.2.43.43.5.73l6.52 21.9.28 1.28.29 1.46.3-1.46.38-1.27 7.41-21.91c.1-.25.26-.48.51-.69.27-.22.58-.33.95-.33h1.23c.38 0 .69.1.92.29a1.77 1.77 0 0 1 .53.73l7.4 21.9a28.4 28.4 0 0 1 .68 2.62 29.52 29.52 0 0 1 .52-2.61l6.54-21.91a1.31 1.31 0 0 1 .48-.7c.27-.21.58-.32.95-.32h3.32zm9.35 8.88c1.63 0 3.1.27 4.4.82a9.43 9.43 0 0 1 5.46 5.94c.5 1.4.74 2.98.74 4.73 0 1.76-.25 3.34-.74 4.75a9.43 9.43 0 0 1-5.46 5.92c-1.3.52-2.77.79-4.4.79-1.64 0-3.12-.27-4.44-.8a9.42 9.42 0 0 1-3.35-2.3c-.92-1-1.63-2.2-2.13-3.61-.49-1.41-.73-3-.73-4.75s.24-3.33.73-4.73c.5-1.43 1.2-2.64 2.13-3.63a9.4 9.4 0 0 1 3.35-2.31c1.32-.55 2.8-.82 4.44-.82zm0 19.89c2.2 0 3.84-.73 4.93-2.2 1.08-1.48 1.63-3.54 1.63-6.18 0-2.66-.55-4.72-1.63-6.2-1.09-1.49-2.73-2.23-4.93-2.23-1.12 0-2.09.2-2.93.57a5.71 5.71 0 0 0-2.06 1.65 7.5 7.5 0 0 0-1.24 2.67c-.26 1.04-.4 2.22-.4 3.54 0 2.64.55 4.7 1.64 6.18 1.1 1.47 2.76 2.2 4.99 2.2zm17.97-15.07a9.94 9.94 0 0 1 2.6-3.56 5.64 5.64 0 0 1 3.76-1.3c.47 0 .91.05 1.34.15.44.1.83.27 1.16.49l-.28 2.92c-.09.37-.31.55-.66.55-.2 0-.5-.04-.9-.13a6.2 6.2 0 0 0-3.24.18 4.23 4.23 0 0 0-1.47.92c-.43.4-.82.9-1.17 1.5a13.1 13.1 0 0 0-.92 2.02V48h-3.94V25.71h2.24c.43 0 .72.08.88.25.17.16.28.44.33.83l.27 3.39zm15.04-14.59V48h-3.92V15.6h3.92zm19.55 15.43a6.22 6.22 0 0 0-2.38-2.05 6.7 6.7 0 0 0-2.86-.6c-2.07 0-3.66.75-4.77 2.23-1.12 1.48-1.68 3.6-1.68 6.33 0 1.46.13 2.7.38 3.74a7.29 7.29 0 0 0 1.1 2.56 4.35 4.35 0 0 0 1.78 1.45c.7.3 1.5.46 2.4.46 1.29 0 2.41-.3 3.36-.88a9.6 9.6 0 0 0 2.67-2.49V31.02zm3.91-15.43V48h-2.33c-.56 0-.9-.27-1.06-.81l-.35-2.71a12.13 12.13 0 0 1-3.25 2.77 8.28 8.28 0 0 1-4.23 1.06 7.31 7.31 0 0 1-6.14-2.9c-.73-.96-1.3-2.15-1.69-3.57a18.35 18.35 0 0 1 .07-9.48 11.29 11.29 0 0 1 1.89-3.7 8.7 8.7 0 0 1 7.06-3.34 7.96 7.96 0 0 1 6.12 2.62V15.59h3.91zM46.61 70.71V93H42.7V70.71h3.91zm.84-7c0 .39-.08.75-.24 1.09a2.81 2.81 0 0 1-1.52 1.47 2.67 2.67 0 0 1-2.16 0 2.9 2.9 0 0 1-1.45-1.47 2.67 2.67 0 0 1 0-2.16c.15-.35.35-.65.6-.9.25-.27.53-.47.85-.62a2.67 2.67 0 0 1 2.16 0c.35.15.65.35.9.62.27.25.47.55.62.9.16.34.24.7.24 1.08zm7.97 10.24c.49-.54 1-1.04 1.54-1.48a9.85 9.85 0 0 1 3.66-1.84 8.96 8.96 0 0 1 5.43.35c.94.4 1.72.97 2.33 1.71a7.36 7.36 0 0 1 1.43 2.67c.32 1.04.49 2.19.49 3.45V93h-3.94V78.81c0-1.69-.4-3-1.17-3.92-.76-.93-1.93-1.4-3.5-1.4a6.6 6.6 0 0 0-3.25.83c-1 .56-1.92 1.31-2.77 2.27V93h-3.94V70.71h2.35c.56 0 .9.28 1.04.82l.3 2.42zm57.7 3.3c0 2.36-.37 4.5-1.11 6.44a14.3 14.3 0 0 1-3.17 4.98 14.1 14.1 0 0 1-4.93 3.2c-1.9.76-4.02 1.13-6.33 1.13H85.8V61.47h11.77c2.31 0 4.42.39 6.33 1.15a13.8 13.8 0 0 1 8.1 8.18 17.75 17.75 0 0 1 1.12 6.45zm-4.37 0c0-1.94-.26-3.67-.8-5.2a10.94 10.94 0 0 0-2.23-3.87 9.57 9.57 0 0 0-3.53-2.42 12.23 12.23 0 0 0-4.61-.83h-7.5v24.62h7.5c1.7 0 3.24-.28 4.61-.84a9.7 9.7 0 0 0 3.53-2.4 10.94 10.94 0 0 0 2.24-3.87c.53-1.53.8-3.26.8-5.2zm19.8 5.72c-1.8.06-3.34.2-4.62.44-1.26.22-2.3.51-3.1.88-.8.36-1.37.8-1.74 1.3-.35.5-.53 1.05-.53 1.67 0 .58.1 1.1.3 1.52a3 3 0 0 0 .76 1.05c.34.27.73.46 1.17.6a6.13 6.13 0 0 0 1.45.17 7.28 7.28 0 0 0 3.5-.81 11.95 11.95 0 0 0 2.82-2.2v-4.62zm-12.65-9.11a12.73 12.73 0 0 1 3.98-2.66c1.43-.59 3-.88 4.73-.88 1.25 0 2.36.2 3.33.61a6.81 6.81 0 0 1 3.94 4.38c.33 1.04.5 2.19.5 3.43V93h-1.74a1.8 1.8 0 0 1-.88-.18c-.2-.13-.36-.38-.48-.74l-.44-2.12-1.72 1.46a9.48 9.48 0 0 1-3.74 1.7c-.69.15-1.46.23-2.3.23-.87 0-1.69-.12-2.45-.35a5.34 5.34 0 0 1-3.34-2.93 6.64 6.64 0 0 1-.49-2.64c0-.88.25-1.72.73-2.53a6.33 6.33 0 0 1 2.35-2.17c1.09-.63 2.5-1.15 4.25-1.54 1.75-.41 3.89-.65 6.42-.7v-1.75c0-1.73-.37-3.03-1.12-3.91-.75-.9-1.84-1.34-3.28-1.34-.97 0-1.78.12-2.44.37-.64.23-1.2.5-1.7.81l-1.23.82c-.33.23-.67.35-1 .35-.27 0-.5-.07-.69-.2a2.1 2.1 0 0 1-.48-.53l-.7-1.25zm27.67 19.5c-1.76 0-3.12-.5-4.07-1.48-.94-.98-1.41-2.4-1.41-4.25V74h-2.68a.9.9 0 0 1-.6-.2c-.16-.14-.24-.36-.24-.66v-1.56l3.65-.46.9-6.89a.9.9 0 0 1 .29-.52.88.88 0 0 1 .62-.22H142v7.67h6.44V74H142v13.38c0 .94.22 1.63.68 2.09.45.45 1.04.68 1.76.68a3.21 3.21 0 0 0 1.85-.53l.55-.35c.16-.12.3-.18.41-.18.2 0 .4.13.55.38l1.15 1.87a7.45 7.45 0 0 1-2.44 1.5 8.53 8.53 0 0 1-2.95.52zm19.68-10.4c-1.8.07-3.34.21-4.62.45-1.26.22-2.3.51-3.1.88-.8.36-1.37.8-1.74 1.3-.35.5-.53 1.05-.53 1.67 0 .58.1 1.1.3 1.52a2.9 2.9 0 0 0 .76 1.05c.34.27.73.46 1.17.6a6.13 6.13 0 0 0 1.45.17 7.3 7.3 0 0 0 3.5-.81 12.04 12.04 0 0 0 2.82-2.2v-4.62zm-12.65-9.1a12.72 12.72 0 0 1 3.99-2.66c1.42-.59 3-.88 4.72-.88 1.25 0 2.36.2 3.33.61a6.81 6.81 0 0 1 3.94 4.38c.33 1.04.5 2.19.5 3.43V93h-1.74a1.8 1.8 0 0 1-.88-.18c-.2-.13-.36-.38-.48-.74l-.44-2.12-1.72 1.46a9.48 9.48 0 0 1-3.74 1.7c-.69.15-1.46.23-2.3.23-.87 0-1.69-.12-2.45-.35a5.33 5.33 0 0 1-3.34-2.93 6.62 6.62 0 0 1-.49-2.64c0-.88.25-1.72.73-2.53a6.33 6.33 0 0 1 2.35-2.17c1.09-.63 2.5-1.15 4.25-1.54a31.2 31.2 0 0 1 6.42-.7v-1.75c0-1.73-.37-3.03-1.12-3.91-.75-.9-1.84-1.34-3.28-1.34-.97 0-1.78.12-2.44.37-.64.23-1.2.5-1.7.81l-1.22.82c-.34.23-.68.35-1.02.35-.26 0-.49-.07-.68-.2a1.88 1.88 0 0 1-.48-.53l-.7-1.25zM40.98 32.25c0 2.36-.38 4.53-1.12 6.51a14.26 14.26 0 0 1-8.1 8.4c-1.9.78-4.02 1.17-6.34 1.17a16.6 16.6 0 0 1-6.33-1.17 14.31 14.31 0 0 1-8.08-8.4 18.29 18.29 0 0 1-1.12-6.51c0-2.36.38-4.53 1.12-6.5.75-1.97 1.8-3.67 3.17-5.1a14.32 14.32 0 0 1 4.9-3.34c1.92-.8 4.03-1.19 6.34-1.19 2.32 0 4.43.4 6.34 1.19 1.92.8 3.56 1.9 4.93 3.34a14.87 14.87 0 0 1 3.17 5.1 18.1 18.1 0 0 1 1.12 6.5zm-4.38 0c0-1.94-.26-3.68-.8-5.22a10.91 10.91 0 0 0-2.24-3.89 9.68 9.68 0 0 0-3.52-2.46 11.95 11.95 0 0 0-4.62-.86c-1.68 0-3.21.28-4.6.86a9.88 9.88 0 0 0-3.54 2.46 10.91 10.91 0 0 0-2.24 3.9c-.53 1.53-.8 3.27-.8 5.2 0 1.94.27 3.68.8 5.22a11.17 11.17 0 0 0 2.24 3.9 10.01 10.01 0 0 0 3.55 2.44c1.38.56 2.9.83 4.6.83s3.24-.27 4.61-.83a9.8 9.8 0 0 0 3.52-2.44 11.17 11.17 0 0 0 2.25-3.9c.53-1.54.8-3.28.8-5.21zm26.22-6.54V48H60.5c-.56 0-.9-.27-1.05-.81l-.31-2.4a12.45 12.45 0 0 1-3.26 2.6c-1.2.64-2.58.96-4.13.96-1.22 0-2.3-.2-3.24-.6a6.52 6.52 0 0 1-2.33-1.7 7.37 7.37 0 0 1-1.43-2.67c-.3-1.04-.46-2.2-.46-3.45V25.7h3.91v14.22c0 1.68.38 2.99 1.15 3.91.77.93 1.96 1.39 3.54 1.39 1.16 0 2.24-.27 3.23-.82a10.42 10.42 0 0 0 2.8-2.28V25.7h3.91zm8.61 4.47a9.94 9.94 0 0 1 2.6-3.56 5.64 5.64 0 0 1 3.76-1.3c.47 0 .92.05 1.34.15.44.1.83.27 1.17.49l-.3 2.92c-.09.37-.3.55-.66.55-.2 0-.5-.04-.9-.13a6.21 6.21 0 0 0-3.24.18 4.23 4.23 0 0 0-1.47.92c-.42.4-.81.9-1.17 1.5-.33.58-.64 1.26-.92 2.02V48H67.7V25.71h2.25c.42 0 .72.08.88.25.16.16.27.44.33.83l.26 3.39zm61.16-13.7L122.75 48h-3.82l-7.99-24.05a21.95 21.95 0 0 1-.42-1.58 38.36 38.36 0 0 1-.44 1.58L102.05 48h-3.83L88.4 16.47h3.54c.38 0 .7.1.95.29.26.2.43.43.5.73l6.52 21.9.28 1.28.29 1.46.3-1.46.38-1.27 7.41-21.91c.1-.25.26-.48.51-.69.27-.22.58-.33.95-.33h1.23c.38 0 .69.1.92.29a1.77 1.77 0 0 1 .53.73l7.4 21.9a28.4 28.4 0 0 1 .68 2.62 29.52 29.52 0 0 1 .52-2.61l6.54-21.91a1.31 1.31 0 0 1 .48-.7c.27-.21.58-.32.95-.32h3.32zm9.35 8.88c1.63 0 3.1.27 4.4.82a9.43 9.43 0 0 1 5.46 5.94c.5 1.4.74 2.98.74 4.73 0 1.76-.25 3.34-.74 4.75a9.43 9.43 0 0 1-5.46 5.92c-1.3.52-2.77.79-4.4.79-1.64 0-3.12-.27-4.44-.8a9.42 9.42 0 0 1-3.35-2.3c-.92-1-1.63-2.2-2.13-3.61-.49-1.41-.73-3-.73-4.75s.24-3.33.73-4.73c.5-1.43 1.2-2.64 2.13-3.63a9.4 9.4 0 0 1 3.35-2.31c1.32-.55 2.8-.82 4.44-.82zm0 19.89c2.2 0 3.84-.73 4.93-2.2 1.08-1.48 1.63-3.54 1.63-6.18 0-2.66-.55-4.72-1.63-6.2-1.09-1.49-2.73-2.23-4.93-2.23-1.12 0-2.09.2-2.93.57a5.71 5.71 0 0 0-2.06 1.65 7.5 7.5 0 0 0-1.24 2.67c-.26 1.04-.4 2.22-.4 3.54 0 2.64.55 4.7 1.64 6.18 1.1 1.47 2.76 2.2 4.99 2.2zm17.97-15.07a9.94 9.94 0 0 1 2.6-3.56 5.64 5.64 0 0 1 3.76-1.3c.47 0 .91.05 1.34.15.44.1.83.27 1.16.49l-.28 2.92c-.09.37-.31.55-.66.55-.2 0-.5-.04-.9-.13a6.2 6.2 0 0 0-3.24.18 4.23 4.23 0 0 0-1.47.92c-.43.4-.82.9-1.17 1.5a13.1 13.1 0 0 0-.92 2.02V48h-3.94V25.71h2.24c.43 0 .72.08.88.25.17.16.28.44.33.83l.27 3.39zm15.04-14.59V48h-3.92V15.6h3.92zm19.55 15.43a6.22 6.22 0 0 0-2.38-2.05 6.7 6.7 0 0 0-2.86-.6c-2.07 0-3.66.75-4.77 2.23-1.12 1.48-1.68 3.6-1.68 6.33 0 1.46.13 2.7.38 3.74a7.29 7.29 0 0 0 1.1 2.56 4.35 4.35 0 0 0 1.78 1.45c.7.3 1.5.46 2.4.46 1.29 0 2.41-.3 3.36-.88a9.6 9.6 0 0 0 2.67-2.49V31.02zm3.91-15.43V48h-2.33c-.56 0-.9-.27-1.06-.81l-.35-2.71a12.13 12.13 0 0 1-3.25 2.77 8.28 8.28 0 0 1-4.23 1.06 7.31 7.31 0 0 1-6.14-2.9c-.73-.96-1.3-2.15-1.69-3.57a18.35 18.35 0 0 1 .07-9.48 11.29 11.29 0 0 1 1.89-3.7 8.7 8.7 0 0 1 7.06-3.34 7.96 7.96 0 0 1 6.12 2.62V15.59h3.91zM46.61 70.71V93H42.7V70.71h3.91zm.84-7c0 .39-.08.75-.24 1.09a2.81 2.81 0 0 1-1.52 1.47 2.67 2.67 0 0 1-2.16 0 2.9 2.9 0 0 1-1.45-1.47 2.67 2.67 0 0 1 0-2.16c.15-.35.35-.65.6-.9.25-.27.53-.47.85-.62a2.67 2.67 0 0 1 2.16 0c.35.15.65.35.9.62.27.25.47.55.62.9.16.34.24.7.24 1.08zm7.97 10.24c.49-.54 1-1.04 1.54-1.48a9.85 9.85 0 0 1 3.66-1.84 8.96 8.96 0 0 1 5.43.35c.94.4 1.72.97 2.33 1.71a7.36 7.36 0 0 1 1.43 2.67c.32 1.04.49 2.19.49 3.45V93h-3.94V78.81c0-1.69-.4-3-1.17-3.92-.76-.93-1.93-1.4-3.5-1.4a6.6 6.6 0 0 0-3.25.83c-1 .56-1.92 1.31-2.77 2.27V93h-3.94V70.71h2.35c.56 0 .9.28 1.04.82l.3 2.42zm57.7 3.3c0 2.36-.37 4.5-1.11 6.44a14.3 14.3 0 0 1-3.17 4.98 14.1 14.1 0 0 1-4.93 3.2c-1.9.76-4.02 1.13-6.33 1.13H85.8V61.47h11.77c2.31 0 4.42.39 6.33 1.15a13.8 13.8 0 0 1 8.1 8.18 17.75 17.75 0 0 1 1.12 6.45zm-4.37 0c0-1.94-.26-3.67-.8-5.2a10.94 10.94 0 0 0-2.23-3.87 9.57 9.57 0 0 0-3.53-2.42 12.23 12.23 0 0 0-4.61-.83h-7.5v24.62h7.5c1.7 0 3.24-.28 4.61-.84a9.7 9.7 0 0 0 3.53-2.4 10.94 10.94 0 0 0 2.24-3.87c.53-1.53.8-3.26.8-5.2zm19.8 5.72c-1.8.06-3.34.2-4.62.44-1.26.22-2.3.51-3.1.88-.8.36-1.37.8-1.74 1.3-.35.5-.53 1.05-.53 1.67 0 .58.1 1.1.3 1.52a3 3 0 0 0 .76 1.05c.34.27.73.46 1.17.6a6.13 6.13 0 0 0 1.45.17 7.28 7.28 0 0 0 3.5-.81 11.95 11.95 0 0 0 2.82-2.2v-4.62zm-12.65-9.11a12.73 12.73 0 0 1 3.98-2.66c1.43-.59 3-.88 4.73-.88 1.25 0 2.36.2 3.33.61a6.81 6.81 0 0 1 3.94 4.38c.33 1.04.5 2.19.5 3.43V93h-1.74a1.8 1.8 0 0 1-.88-.18c-.2-.13-.36-.38-.48-.74l-.44-2.12-1.72 1.46a9.48 9.48 0 0 1-3.74 1.7c-.69.15-1.46.23-2.3.23-.87 0-1.69-.12-2.45-.35a5.34 5.34 0 0 1-3.34-2.93 6.64 6.64 0 0 1-.49-2.64c0-.88.25-1.72.73-2.53a6.33 6.33 0 0 1 2.35-2.17c1.09-.63 2.5-1.15 4.25-1.54 1.75-.41 3.89-.65 6.42-.7v-1.75c0-1.73-.37-3.03-1.12-3.91-.75-.9-1.84-1.34-3.28-1.34-.97 0-1.78.12-2.44.37-.64.23-1.2.5-1.7.81l-1.23.82c-.33.23-.67.35-1 .35-.27 0-.5-.07-.69-.2a2.1 2.1 0 0 1-.48-.53l-.7-1.25zm27.67 19.5c-1.76 0-3.12-.5-4.07-1.48-.94-.98-1.41-2.4-1.41-4.25V74h-2.68a.9.9 0 0 1-.6-.2c-.16-.14-.24-.36-.24-.66v-1.56l3.65-.46.9-6.89a.9.9 0 0 1 .29-.52.88.88 0 0 1 .62-.22H142v7.67h6.44V74H142v13.38c0 .94.22 1.63.68 2.09.45.45 1.04.68 1.76.68a3.21 3.21 0 0 0 1.85-.53l.55-.35c.16-.12.3-.18.41-.18.2 0 .4.13.55.38l1.15 1.87a7.45 7.45 0 0 1-2.44 1.5 8.53 8.53 0 0 1-2.95.52zm19.68-10.4c-1.8.07-3.34.21-4.62.45-1.26.22-2.3.51-3.1.88-.8.36-1.37.8-1.74 1.3-.35.5-.53 1.05-.53 1.67 0 .58.1 1.1.3 1.52a2.9 2.9 0 0 0 .76 1.05c.34.27.73.46 1.17.6a6.13 6.13 0 0 0 1.45.17 7.3 7.3 0 0 0 3.5-.81 12.04 12.04 0 0 0 2.82-2.2v-4.62zm-12.65-9.1a12.72 12.72 0 0 1 3.99-2.66c1.42-.59 3-.88 4.72-.88 1.25 0 2.36.2 3.33.61a6.81 6.81 0 0 1 3.94 4.38c.33 1.04.5 2.19.5 3.43V93h-1.74a1.8 1.8 0 0 1-.88-.18c-.2-.13-.36-.38-.48-.74l-.44-2.12-1.72 1.46a9.48 9.48 0 0 1-3.74 1.7c-.69.15-1.46.23-2.3.23-.87 0-1.69-.12-2.45-.35a5.33 5.33 0 0 1-3.34-2.93 6.62 6.62 0 0 1-.49-2.64c0-.88.25-1.72.73-2.53a6.33 6.33 0 0 1 2.35-2.17c1.09-.63 2.5-1.15 4.25-1.54a31.2 31.2 0 0 1 6.42-.7v-1.75c0-1.73-.37-3.03-1.12-3.91-.75-.9-1.84-1.34-3.28-1.34-.97 0-1.78.12-2.44.37-.64.23-1.2.5-1.7.81l-1.22.82c-.34.23-.68.35-1.02.35-.26 0-.49-.07-.68-.2a1.88 1.88 0 0 1-.48-.53l-.7-1.25z" fill="#fff"/><path fill="#D42B21" d="M0 106.79h210V120H0z"/></g><defs><clipPath id="a"><path fill="#fff" d="M0 0h210v120H0z"/></clipPath></defs></svg></g><a href="https://ourworldindata.org/grapher/maddison-data-gdp-per-capita-in-2011us-slopechart" style="font-family:&quot;Playfair Display&quot;,Georgia,&quot;Times New Roman&quot;,serif" target="_blank" rel="noopener"><text font-size="25.2" x="15" y="35.2" fill="#555"><tspan x="15" y="35.16">GDP per capita, 1950 to 2018</tspan></text></a><text font-size="14.4" x="15" y="55.7" fill="#666"><tspan x="15" y="55.72">GDP per capita adjusted for price changes over time (inflation) and price differences between countries – it is</tspan><tspan x="15" y="73">measured in international-$ in 2011 prices.</tspan></text></g><g class="slopeChart"><g class="LabelledSlopes"><g class="gridlines" stroke="#eee" stroke-dasharray="3,2"><path d="M272.79 443.52h184.42M272.79 282.87h184.42M272.79 122.22h184.42"/></g><g class="axis" font-size=".8em" fill="#666" dominant-baseline="middle" text-anchor="start"><text x="15" y="443.52">$1,000</text><text x="15" y="282.87">$10,000</text><text x="15" y="122.22">$100,000</text></g><g class="axis" font-size=".8em" fill="#666" dominant-baseline="middle" text-anchor="end"><text x="715" y="443.52">$1,000</text><text x="715" y="282.87">$10,000</text><text x="715" y="122.22">$100,000</text></g><path stroke="#333" d="M272.79 497.4V92.2M457.21 497.4V92.2"/><text x="272.79" y="521.8" text-anchor="middle" fill="#666" font-size="18">1950</text><text x="457.21" y="521.8" text-anchor="middle" fill="#666" font-size="18">2018</text><g class="slopes"><g class="slope"><text font-size="11.7" x="224.8" y="392.9" text-anchor="end" fill="#333"><tspan x="224.75" y="392.85">Iraq</tspan></text><text x="264.79" y="392.85" text-anchor="end" font-size="11.7" fill="#333">$2,174</text><circle cx="272.79" cy="389.34" r="2" fill="#2D8587" opacity=".5"/><path stroke="#2D8587" stroke-width="2.5" opacity=".5" d="m272.79 389.34 184.42-123.89"/><circle cx="457.21" cy="265.45" r="2" fill="#2D8587" opacity=".5"/><text x="465.21" y="268.96" font-size="11.7" fill="#333">$12,836</text><text font-size="11.7" x="511.8" y="269" fill="#333"><tspan x="511.8" y="268.96">Iraq</tspan></text></g><g class="slope"><text font-size="11.7" x="224.8" y="376.7" text-anchor="end" fill="#333"><tspan x="224.75" y="376.66">Iran</tspan></text><text x="264.79" y="376.66" text-anchor="end" font-size="11.7" fill="#333">$2,742</text><circle cx="272.79" cy="373.15" r="2" fill="#2D8587" opacity=".5"/><path stroke="#2D8587" stroke-width="2.5" opacity=".5" d="M272.79 373.15 457.21 245.8"/><circle cx="457.21" cy="245.8" r="2" fill="#2D8587" opacity=".5"/><text x="465.21" y="249.31" font-size="11.7" fill="#333">$17,011</text><text font-size="11.7" x="511.8" y="249.3" fill="#333"><tspan x="511.8" y="249.31">Iran</tspan></text></g><g class="slope"><text font-size="11.7" x="224.8" y="429.8" text-anchor="end" fill="#333"><tspan x="224.75" y="429.81">Indonesia</tspan></text><text x="264.79" y="429.81" text-anchor="end" font-size="11.7" fill="#333">$1,280</text><circle cx="272.79" cy="426.3" r="2" fill="#2D8587" opacity=".5"/><path stroke="#2D8587" stroke-width="2.5" opacity=".5" d="m272.79 426.3 184.42-155.28"/><circle cx="457.21" cy="271.02" r="2" fill="#2D8587" opacity=".5"/></g><g class="slope"><text font-size="11.7" x="234.6" y="447.9" text-anchor="end" fill="#333"><tspan x="234.58" y="447.95">India</tspan></text><text x="264.79" y="447.95" text-anchor="end" font-size="11.7" fill="#333">$987</text><circle cx="272.79" cy="444.44" r="2" fill="#2D8587" opacity=".5"/><path stroke="#2D8587" stroke-width="2.5" opacity=".5" d="m272.79 444.44 184.42-134.73"/><circle cx="457.21" cy="309.71" r="2" fill="#2D8587" opacity=".5"/><text x="465.21" y="313.22" font-size="11.7" fill="#333">$6,806</text><text font-size="11.7" x="505.2" y="313.2" fill="#333"><tspan x="505.25" y="313.22">India</tspan></text></g><g class="slope"><text font-size="11.7" x="224.8" y="351.1" text-anchor="end" fill="#333"><tspan x="224.75" y="351.14">Hungary</tspan></text><text x="264.79" y="351.14" text-anchor="end" font-size="11.7" fill="#333">$3,953</text><circle cx="272.79" cy="347.63" r="2" fill="#4C5C78" opacity=".5"/><path stroke="#4C5C78" stroke-width="2.5" opacity=".5" d="m272.79 347.63 184.42-130.41"/><circle cx="457.21" cy="217.22" r="2" fill="#4C5C78" opacity=".5"/><text x="465.21" y="220.73" font-size="11.7" fill="#333">$25,623</text><text font-size="11.7" x="511.8" y="220.7" fill="#333"><tspan x="511.8" y="220.73">Hungary</tspan></text></g><g class="slope"><circle cx="272.79" cy="394.54" r="2" fill="#E04E4B" opacity=".5"/><path stroke="#E04E4B" stroke-width="2.5" opacity=".5" d="m272.79 394.54 184.42-63.89"/><circle cx="457.21" cy="330.65" r="2" fill="#E04E4B" opacity=".5"/></g><g class="slope"><text font-size="11.7" x="224.8" y="416.5" text-anchor="end" fill="#333"><tspan x="224.75" y="416.5">Palestine</tspan></text><text x="264.79" y="416.5" text-anchor="end" font-size="11.7" fill="#333">$1,549</text><circle cx="272.79" cy="412.99" r="2" fill="#2D8587" opacity=".5"/><path stroke="#2D8587" stroke-width="2.5" opacity=".5" d="m272.79 412.99 184.42-84.6"/><circle cx="457.21" cy="328.39" r="2" fill="#2D8587" opacity=".5"/><text x="465.21" y="331.9" font-size="11.7" fill="#333">$5,208</text><text font-size="11.7" x="505.2" y="331.9" fill="#333"><tspan x="505.25" y="331.9">Palestine</tspan></text></g><g class="slope"><circle cx="272.79" cy="395.27" r="2" fill="#2D8587" opacity=".5"/><path stroke="#2D8587" stroke-width="2.5" opacity=".5" d="m272.79 395.27 184.42-123.13"/><circle cx="457.21" cy="272.14" r="2" fill="#2D8587" opacity=".5"/></g><g class="slope"><text font-size="11.7" x="234.6" y="479.2" text-anchor="end" fill="#333"><tspan x="234.58" y="479.16">Myanmar</tspan></text><text x="264.79" y="479.16" text-anchor="end" font-size="11.7" fill="#333">$631</text><circle cx="272.79" cy="475.65" r="2" fill="#2D8587" opacity=".5"/><path stroke="#2D8587" stroke-width="2.5" opacity=".5" d="m272.79 475.65 184.42-155.23"/><circle cx="457.21" cy="320.42" r="2" fill="#2D8587" opacity=".5"/></g><g class="slope"><circle cx="272.79" cy="408.2" r="2" fill="#923E8B" opacity=".5"/><path stroke="#923E8B" stroke-width="2.5" opacity=".5" d="m272.79 408.2 184.42-56.22"/><circle cx="457.21" cy="351.98" r="2" fill="#923E8B" opacity=".5"/><text x="465.21" y="355.49" font-size="11.7" fill="#333">$3,714</text><text font-size="11.7" x="505.2" y="355.5" fill="#333"><tspan x="505.25" y="355.49">Cote d&apos;Ivoire</tspan></text></g><g class="slope"><circle cx="272.79" cy="345.39" r="2" fill="#2D8587" opacity=".5"/><path stroke="#2D8587" stroke-width="2.5" opacity=".5" d="m272.79 345.39 184.42-175.97"/><circle cx="457.21" cy="169.42" r="2" fill="#2D8587" opacity=".5"/></g><g class="slope"><circle cx="272.79" cy="402.9" r="2" fill="#E04E4B" opacity=".5"/><path stroke="#E04E4B" stroke-width="2.5" opacity=".5" d="m272.79 402.9 184.42 2.42"/><circle cx="457.21" cy="405.32" r="2" fill="#E04E4B" opacity=".5"/></g><g class="slope"><text font-size="11.7" x="234.6" y="492.7" text-anchor="end" fill="#333"><tspan x="234.58" y="492.66">Guinea</tspan></text><text x="264.79" y="492.66" text-anchor="end" font-size="11.7" fill="#333">$520</text><circle cx="272.79" cy="489.15" r="2" fill="#923E8B" opacity=".5"/><path stroke="#923E8B" stroke-width="2.5" opacity=".5" d="m272.79 489.15 184.42-78.7"/><circle cx="457.21" cy="410.45" r="2" fill="#923E8B" opacity=".5"/><text x="465.21" y="413.96" font-size="11.7" fill="#333">$1,606</text><text font-size="11.7" x="505.2" y="414" fill="#333"><tspan x="505.25" y="413.96">Guinea</tspan></text></g><g class="slope"><text font-size="11.7" x="224.8" y="363.2" text-anchor="end" fill="#333"><tspan x="224.75" y="363.25">Guatemala</tspan></text><text x="264.79" y="363.25" text-anchor="end" font-size="11.7" fill="#333">$3,323</text><circle cx="272.79" cy="359.74" r="2" fill="#E04E4B" opacity=".5"/><path stroke="#E04E4B" stroke-width="2.5" opacity=".5" d="m272.79 359.74 184.42-55.88"/><circle cx="457.21" cy="303.86" r="2" fill="#E04E4B" opacity=".5"/></g><g class="slope"><circle cx="272.79" cy="365.67" r="2" fill="#4C5C78" opacity=".5"/><path stroke="#4C5C78" stroke-width="2.5" opacity=".5" d="M272.79 365.67 457.21 223.4"/><circle cx="457.21" cy="223.4" r="2" fill="#4C5C78" opacity=".5"/></g><g class="slope"><circle cx="272.79" cy="402.98" r="2" fill="#923E8B" opacity=".5"/><path stroke="#923E8B" stroke-width="2.5" opacity=".5" d="m272.79 402.98 184.42-60.69"/><circle cx="457.21" cy="342.29" r="2" fill="#923E8B" opacity=".5"/></g><g class="slope"><circle cx="272.79" cy="444.79" r="2" fill="#923E8B" opacity=".5"/><path stroke="#923E8B" stroke-width="2.5" opacity=".5" d="m272.79 444.79 184.42-45.39"/><circle cx="457.21" cy="399.4" r="2" fill="#923E8B" opacity=".5"/></g><g class="slope"><circle cx="272.79" cy="367.86" r="2" fill="#923E8B" opacity=".5"/><path stroke="#923E8B" stroke-width="2.5" opacity=".5" d="m272.79 367.86 184.42-124.48"/><circle cx="457.21" cy="243.38" r="2" fill="#923E8B" opacity=".5"/></g><g class="slope"><circle cx="272.79" cy="356.94" r="2" fill="#923E8B" opacity=".5"/><path stroke="#923E8B" stroke-width="2.5" opacity=".5" d="m272.79 356.94 184.42 3.37"/><circle cx="457.21" cy="360.31" r="2" fill="#923E8B" opacity=".5"/></g><g class="slope"><text font-size="11.7" x="224.8" y="313.5" text-anchor="end" fill="#333"><tspan x="224.75" y="313.5">Finland</tspan></text><text x="264.79" y="313.5" text-anchor="end" font-size="11.7" fill="#333">$6,779</text><circle cx="272.79" cy="309.99" r="2" fill="#4C5C78" opacity=".5"/><path stroke="#4C5C78" stroke-width="2.5" opacity=".5" d="M272.79 309.99 457.21 188.1"/><circle cx="457.21" cy="188.1" r="2" fill="#4C5C78" opacity=".5"/><text x="465.21" y="191.61" font-size="11.7" fill="#333">$38,897</text><text font-size="11.7" x="511.8" y="191.6" fill="#333"><tspan x="511.8" y="191.61">Finland</tspan></text></g><g class="slope"><circle cx="272.79" cy="476.65" r="2" fill="#923E8B" opacity=".5"/><path stroke="#923E8B" stroke-width="2.5" opacity=".5" d="m272.79 476.65 184.42-75.61"/><circle cx="457.21" cy="401.04" r="2" fill="#923E8B" opacity=".5"/></g><g class="slope"><text font-size="11.7" x="234.6" y="462.9" text-anchor="end" fill="#333"><tspan x="234.58" y="462.86">Equatorial Guinea</tspan></text><text x="264.79" y="462.86" text-anchor="end" font-size="11.7" fill="#333">$797</text><circle cx="272.79" cy="459.35" r="2" fill="#923E8B" opacity=".5"/><path stroke="#923E8B" stroke-width="2.5" opacity=".5" d="m272.79 459.35 184.42-249.62"/><circle cx="457.21" cy="209.73" r="2" fill="#923E8B" opacity=".5"/></g><g class="slope"><circle cx="272.79" cy="409.14" r="2" fill="#E04E4B" opacity=".5"/><path stroke="#E04E4B" stroke-width="2.5" opacity=".5" d="m272.79 409.14 184.42-158.68"/><circle cx="457.21" cy="250.46" r="2" fill="#E04E4B" opacity=".5"/></g><g class="slope"><text font-size="11.7" x="218.2" y="279.3" text-anchor="end" fill="#333"><tspan x="218.2" y="279.31">Denmark</tspan></text><text x="264.79" y="279.31" text-anchor="end" font-size="11.7" fill="#333">$11,067</text><circle cx="272.79" cy="275.8" r="2" fill="#4C5C78" opacity=".5"/><path stroke="#4C5C78" stroke-width="2.5" opacity=".5" d="m272.79 275.8 184.42-99.87"/><circle cx="457.21" cy="175.93" r="2" fill="#4C5C78" opacity=".5"/><text x="465.21" y="179.44" font-size="11.7" fill="#333">$46,312</text><text font-size="11.7" x="511.8" y="179.4" fill="#333"><tspan x="511.8" y="179.44">Denmark</tspan></text></g><g class="slope"><circle cx="272.79" cy="369.6" r="2" fill="#4C5C78" opacity=".5"/><path stroke="#4C5C78" stroke-width="2.5" opacity=".5" d="m272.79 369.6 184.42-156.5"/><circle cx="457.21" cy="213.1" r="2" fill="#4C5C78" opacity=".5"/></g><g class="slope"><circle cx="272.79" cy="375.85" r="2" fill="#E04E4B" opacity=".5"/><path stroke="#E04E4B" stroke-width="2.5" opacity=".5" d="m272.79 375.85 184.42-80.19"/><circle cx="457.21" cy="295.66" r="2" fill="#E04E4B" opacity=".5"/><text x="465.21" y="299.17" font-size="11.7" fill="#333">$8,326</text><text font-size="11.7" x="505.2" y="299.2" fill="#333"><tspan x="505.25" y="299.17">Cuba</tspan></text></g><g class="slope"><circle cx="272.79" cy="363.94" r="2" fill="#E04E4B" opacity=".5"/><path stroke="#E04E4B" stroke-width="2.5" opacity=".5" d="m272.79 363.94 184.42-107.88"/><circle cx="457.21" cy="256.06" r="2" fill="#E04E4B" opacity=".5"/></g><g class="slope"><circle cx="272.79" cy="450.18" r="2" fill="#923E8B" opacity=".5"/><path stroke="#923E8B" stroke-width="2.5" opacity=".5" d="m272.79 450.18 184.42 3.92"/><circle cx="457.21" cy="454.1" r="2" fill="#923E8B" opacity=".5"/><text x="465.21" y="457.61" font-size="11.7" fill="#333">$859</text><text font-size="11.7" x="495.4" y="451.2" fill="#333"><tspan x="495.42" y="451.21">Democratic Republic of</tspan><tspan x="495.42" y="464.08">Congo</tspan></text></g><g class="slope"><circle cx="272.79" cy="406.79" r="2" fill="#923E8B" opacity=".5"/><path stroke="#923E8B" stroke-width="2.5" opacity=".5" d="m272.79 406.79 184.42-84.88"/><circle cx="457.21" cy="321.91" r="2" fill="#923E8B" opacity=".5"/></g><g class="slope"><circle cx="272.79" cy="487.3" r="2" fill="#923E8B" opacity=".5"/><path stroke="#923E8B" stroke-width="2.5" opacity=".5" d="m272.79 487.3 184.42-81.79"/><circle cx="457.21" cy="405.51" r="2" fill="#923E8B" opacity=".5"/></g><g class="slope"><circle cx="272.79" cy="357.49" r="2" fill="#932834" opacity=".5"/><path stroke="#932834" stroke-width="2.5" opacity=".5" d="m272.79 357.49 184.42-95.79"/><circle cx="457.21" cy="261.7" r="2" fill="#932834" opacity=".5"/></g><g class="slope"><circle cx="272.79" cy="459.18" r="2" fill="#2D8587" opacity=".5"/><path stroke="#2D8587" stroke-width="2.5" opacity=".5" d="m272.79 459.18 184.42-195.16"/><circle cx="457.21" cy="264.02" r="2" fill="#2D8587" opacity=".5"/></g><g class="slope"><circle cx="272.79" cy="319.92" r="2" fill="#932834" opacity=".5"/><path stroke="#932834" stroke-width="2.5" opacity=".5" d="m272.79 319.92 184.42-92.39"/><circle cx="457.21" cy="227.53" r="2" fill="#932834" opacity=".5"/></g><g class="slope"><circle cx="272.79" cy="457.8" r="2" fill="#923E8B" opacity=".5"/><path stroke="#923E8B" stroke-width="2.5" opacity=".5" d="m272.79 457.8 184.42-64.24"/><circle cx="457.21" cy="393.56" r="2" fill="#923E8B" opacity=".5"/><text x="465.21" y="397.07" font-size="11.7" fill="#333">$2,046</text><text font-size="11.7" x="505.2" y="397.1" fill="#333"><tspan x="505.25" y="397.07">Chad</tspan></text></g><g class="slope"><circle cx="272.79" cy="424.84" r="2" fill="#923E8B" opacity=".5"/><path stroke="#923E8B" stroke-width="2.5" opacity=".5" d="m272.79 424.84 184.42 51.65"/><circle cx="457.21" cy="476.49" r="2" fill="#923E8B" opacity=".5"/><text x="465.21" y="480" font-size="11.7" fill="#333">$623</text><text font-size="11.7" x="495.4" y="480" fill="#333"><tspan x="495.42" y="480">Central African Republic</tspan></text></g><g class="slope"><circle cx="272.79" cy="417.12" r="2" fill="#2D8587" opacity=".5"/><path stroke="#2D8587" stroke-width="2.5" opacity=".5" d="m272.79 417.12 184.42-238.67"/><circle cx="457.21" cy="178.45" r="2" fill="#2D8587" opacity=".5"/></g><g class="slope"><circle cx="272.79" cy="444.93" r="2" fill="#E04E4B" opacity=".5"/><path stroke="#E04E4B" stroke-width="2.5" opacity=".5" d="m272.79 444.93 184.42-154.87"/><circle cx="457.21" cy="290.06" r="2" fill="#E04E4B" opacity=".5"/></g><g class="slope"><circle cx="272.79" cy="367.57" r="2" fill="#932834" opacity=".5"/><path stroke="#932834" stroke-width="2.5" opacity=".5" d="m272.79 367.57 184.42-89.02"/><circle cx="457.21" cy="278.55" r="2" fill="#932834" opacity=".5"/><text x="465.21" y="282.06" font-size="11.7" fill="#333">$10,639</text><text font-size="11.7" x="511.8" y="282.1" fill="#333"><tspan x="511.8" y="282.06">Ecuador</tspan></text></g><g class="slope"><text font-size="11.7" x="224.8" y="297.7" text-anchor="end" fill="#333"><tspan x="224.75" y="297.74">Iceland</tspan></text><text x="264.79" y="297.74" text-anchor="end" font-size="11.7" fill="#333">$8,498</text><circle cx="272.79" cy="294.23" r="2" fill="#4C5C78" opacity=".5"/><path stroke="#4C5C78" stroke-width="2.5" opacity=".5" d="M272.79 294.23 457.21 180.4"/><circle cx="457.21" cy="180.4" r="2" fill="#4C5C78" opacity=".5"/></g><g class="slope"><text font-size="11.7" x="218.2" y="179.9" text-anchor="end" fill="#333"><tspan x="218.2" y="179.86">Kuwait</tspan></text><text x="264.79" y="179.86" text-anchor="end" font-size="11.7" fill="#333">$46,031</text><circle cx="272.79" cy="176.35" r="2" fill="#2D8587" opacity=".5"/><path stroke="#2D8587" stroke-width="2.5" opacity=".5" d="m272.79 176.35 184.42-24.63"/><circle cx="457.21" cy="151.72" r="2" fill="#2D8587" opacity=".5"/><text x="465.21" y="155.23" font-size="11.7" fill="#333">$65,521</text><text font-size="11.7" x="511.8" y="155.2" fill="#333"><tspan x="511.8" y="155.23">Kuwait</tspan></text></g><g class="slope"><text font-size="11.7" x="218.2" y="266.1" text-anchor="end" fill="#333"><tspan x="218.2" y="266.08">Luxembourg</tspan></text><text x="264.79" y="266.08" text-anchor="end" font-size="11.7" fill="#333">$13,378</text><circle cx="272.79" cy="262.57" r="2" fill="#4C5C78" opacity=".5"/><path stroke="#4C5C78" stroke-width="2.5" opacity=".5" d="m272.79 262.57 184.42-101.65"/><circle cx="457.21" cy="160.92" r="2" fill="#4C5C78" opacity=".5"/></g><g class="slope"><circle cx="272.79" cy="411.92" r="2" fill="#4C5C78" opacity=".5"/><path stroke="#4C5C78" stroke-width="2.5" opacity=".5" d="m272.79 411.92 184.42-210.27"/><circle cx="457.21" cy="201.65" r="2" fill="#4C5C78" opacity=".5"/><text x="465.21" y="205.16" font-size="11.7" fill="#333">$32,029</text><text font-size="11.7" x="511.8" y="205.2" fill="#333"><tspan x="511.8" y="205.16">Malta</tspan></text></g><g class="slope"><circle cx="272.79" cy="347.82" r="2" fill="#923E8B" opacity=".5"/><path stroke="#923E8B" stroke-width="2.5" opacity=".5" d="m272.79 347.82 184.42-113.79"/><circle cx="457.21" cy="234.03" r="2" fill="#923E8B" opacity=".5"/><text x="465.21" y="237.54" font-size="11.7" fill="#333">$20,139</text><text font-size="11.7" x="511.8" y="237.5" fill="#333"><tspan x="511.8" y="237.54">Mauritius</tspan></text></g><g class="slope"><circle cx="272.79" cy="444.01" r="2" fill="#2D8587" opacity=".5"/><path stroke="#2D8587" stroke-width="2.5" opacity=".5" d="m272.79 444.01 184.42-251.43"/><circle cx="457.21" cy="192.58" r="2" fill="#2D8587" opacity=".5"/></g><g class="slope"><circle cx="272.79" cy="172.8" r="2" fill="#2D8587" opacity=".5"/><path stroke="#2D8587" stroke-width="2.5" opacity=".5" d="m272.79 172.8 184.42-80.6"/><circle cx="457.21" cy="92.2" r="2" fill="#2D8587" opacity=".5"/><text x="465.21" y="95.71" font-size="11.7" fill="#333">$153,764</text><text font-size="11.7" x="518.4" y="95.7" fill="#333"><tspan x="518.35" y="95.71">Qatar</tspan></text></g><g class="slope"><circle cx="272.79" cy="429.02" r="2" fill="#E04E4B" opacity=".5"/><path stroke="#E04E4B" stroke-width="2.5" opacity=".5" d="m272.79 429.02 184.42-149.39"/><circle cx="457.21" cy="279.63" r="2" fill="#E04E4B" opacity=".5"/></g><g class="slope"><circle cx="272.79" cy="275.84" r="2" fill="#4C5C78" opacity=".5"/><path stroke="#4C5C78" stroke-width="2.5" opacity=".5" d="m272.79 275.84 184.42-86.22"/><circle cx="457.21" cy="189.62" r="2" fill="#4C5C78" opacity=".5"/></g><g class="slope"><text font-size="11.7" x="224.8" y="328" text-anchor="end" fill="#333"><tspan x="224.75" y="328.04">Ireland</tspan></text><text x="264.79" y="328.04" text-anchor="end" font-size="11.7" fill="#333">$5,504</text><circle cx="272.79" cy="324.53" r="2" fill="#4C5C78" opacity=".5"/><path stroke="#4C5C78" stroke-width="2.5" opacity=".5" d="m272.79 324.53 184.42-171.92"/><circle cx="457.21" cy="152.61" r="2" fill="#4C5C78" opacity=".5"/></g><g class="slope"><circle cx="272.79" cy="296.16" r="2" fill="#4C5C78" opacity=".5"/><path stroke="#4C5C78" stroke-width="2.5" opacity=".5" d="m272.79 296.16 184.42-107.37"/><circle cx="457.21" cy="188.79" r="2" fill="#4C5C78" opacity=".5"/></g><g class="slope"><circle cx="272.79" cy="292.54" r="2" fill="#4C5C78" opacity=".5"/><path stroke="#4C5C78" stroke-width="2.5" opacity=".5" d="m272.79 292.54 184.42-105.96"/><circle cx="457.21" cy="186.58" r="2" fill="#4C5C78" opacity=".5"/></g><g class="slope"><circle cx="272.79" cy="286.03" r="2" fill="#4C5C78" opacity=".5"/><path stroke="#4C5C78" stroke-width="2.5" opacity=".5" d="M272.79 286.03 457.21 174.2"/><circle cx="457.21" cy="174.2" r="2" fill="#4C5C78" opacity=".5"/></g><g class="slope"><circle cx="272.79" cy="316.38" r="2" fill="#4C5C78" opacity=".5"/><path stroke="#4C5C78" stroke-width="2.5" opacity=".5" d="m272.79 316.38 184.42-140.25"/><circle cx="457.21" cy="176.13" r="2" fill="#4C5C78" opacity=".5"/></g><g class="slope"><circle cx="272.79" cy="272.87" r="2" fill="#4C5C78" opacity=".5"/><path stroke="#4C5C78" stroke-width="2.5" opacity=".5" d="m272.79 272.87 184.42-116.59"/><circle cx="457.21" cy="156.28" r="2" fill="#4C5C78" opacity=".5"/></g><g class="slope"><circle cx="272.79" cy="323.55" r="2" fill="#4C5C78" opacity=".5"/><path stroke="#4C5C78" stroke-width="2.5" opacity=".5" d="m272.79 323.55 184.42-126.81"/><circle cx="457.21" cy="196.74" r="2" fill="#4C5C78" opacity=".5"/></g><g class="slope"><circle cx="272.79" cy="356.84" r="2" fill="#4C5C78" opacity=".5"/><path stroke="#4C5C78" stroke-width="2.5" opacity=".5" d="m272.79 356.84 184.42-154.02"/><circle cx="457.21" cy="202.82" r="2" fill="#4C5C78" opacity=".5"/></g><g class="slope"><circle cx="272.79" cy="277.88" r="2" fill="#4C5C78" opacity=".5"/><path stroke="#4C5C78" stroke-width="2.5" opacity=".5" d="M272.79 277.88 457.21 177.1"/><circle cx="457.21" cy="177.1" r="2" fill="#4C5C78" opacity=".5"/></g><g class="slope"><circle cx="272.79" cy="348.57" r="2" fill="#4C5C78" opacity=".5"/><path stroke="#4C5C78" stroke-width="2.5" opacity=".5" d="m272.79 348.57 184.42-136.16"/><circle cx="457.21" cy="212.41" r="2" fill="#4C5C78" opacity=".5"/></g><g class="slope"><circle cx="272.79" cy="426.41" r="2" fill="#923E8B" opacity=".5"/><path stroke="#923E8B" stroke-width="2.5" opacity=".5" d="m272.79 426.41 184.42-74.74"/><circle cx="457.21" cy="351.67" r="2" fill="#923E8B" opacity=".5"/></g><g class="slope"><circle cx="272.79" cy="376" r="2" fill="#923E8B" opacity=".5"/><path stroke="#923E8B" stroke-width="2.5" opacity=".5" d="m272.79 376 184.42-168.68"/><circle cx="457.21" cy="207.32" r="2" fill="#923E8B" opacity=".5"/></g><g class="slope"><circle cx="272.79" cy="294.52" r="2" fill="#932834" opacity=".5"/><path stroke="#932834" stroke-width="2.5" opacity=".5" d="m272.79 294.52 184.42-16.43"/><circle cx="457.21" cy="278.09" r="2" fill="#932834" opacity=".5"/></g><g class="slope"><circle cx="272.79" cy="383.17" r="2" fill="#E04E4B" opacity=".5"/><path stroke="#E04E4B" stroke-width="2.5" opacity=".5" d="m272.79 383.17 184.42-89.76"/><circle cx="457.21" cy="293.41" r="2" fill="#E04E4B" opacity=".5"/></g><g class="slope"><circle cx="272.79" cy="323.56" r="2" fill="#4C5C78" opacity=".5"/><path stroke="#4C5C78" stroke-width="2.5" opacity=".5" d="m272.79 323.56 184.42-116.4"/><circle cx="457.21" cy="207.16" r="2" fill="#4C5C78" opacity=".5"/></g><g class="slope"><circle cx="272.79" cy="338.14" r="2" fill="#4C5C78" opacity=".5"/><path stroke="#4C5C78" stroke-width="2.5" opacity=".5" d="m272.79 338.14 184.42-102"/><circle cx="457.21" cy="236.14" r="2" fill="#4C5C78" opacity=".5"/></g><g class="slope"><circle cx="272.79" cy="386.14" r="2" fill="#4C5C78" opacity=".5"/><path stroke="#4C5C78" stroke-width="2.5" opacity=".5" d="m272.79 386.14 184.42-138.45"/><circle cx="457.21" cy="247.69" r="2" fill="#4C5C78" opacity=".5"/></g><g class="slope"><circle cx="272.79" cy="359.16" r="2" fill="#ff7f0e" opacity=".5"/><path stroke="#ff7f0e" stroke-width="2.5" opacity=".5" d="M272.79 359.16 457.21 253.6"/><circle cx="457.21" cy="253.6" r="2" fill="#ff7f0e" opacity=".5"/></g><g class="slope"><circle cx="272.79" cy="345.38" r="2" fill="#ff7f0e" opacity=".5"/><path stroke="#ff7f0e" stroke-width="2.5" opacity=".5" d="m272.79 345.38 184.42-113.2"/><circle cx="457.21" cy="232.18" r="2" fill="#ff7f0e" opacity=".5"/></g><g class="slope"><circle cx="272.79" cy="305.18" r="2" fill="#ff7f0e" opacity=".5"/><path stroke="#ff7f0e" stroke-width="2.5" opacity=".5" d="m272.79 305.18 184.42-118.66"/><circle cx="457.21" cy="186.52" r="2" fill="#ff7f0e" opacity=".5"/></g><g class="slope"><circle cx="272.79" cy="352" r="2" fill="#ff7f0e" opacity=".5"/><path stroke="#ff7f0e" stroke-width="2.5" opacity=".5" d="m272.79 352 184.42-92.98"/><circle cx="457.21" cy="259.02" r="2" fill="#ff7f0e" opacity=".5"/></g><g class="slope"><circle cx="272.79" cy="382.64" r="2" fill="#ff7f0e" opacity=".5"/><path stroke="#ff7f0e" stroke-width="2.5" opacity=".5" d="m272.79 382.64 184.42-142.43"/><circle cx="457.21" cy="240.21" r="2" fill="#ff7f0e" opacity=".5"/></g><g class="slope"><circle cx="272.79" cy="435.51" r="2" fill="#ff7f0e" opacity=".5"/><path stroke="#ff7f0e" stroke-width="2.5" opacity=".5" d="m272.79 435.51 184.42-186.84"/><circle cx="457.21" cy="248.67" r="2" fill="#ff7f0e" opacity=".5"/></g><g class="slope"><circle cx="272.79" cy="255.64" r="2" fill="#ff7f0e" opacity=".5"/><path stroke="#ff7f0e" stroke-width="2.5" opacity=".5" d="m272.79 255.64 184.42-90.11"/><circle cx="457.21" cy="165.53" r="2" fill="#ff7f0e" opacity=".5"/></g><g class="slope"><circle cx="272.79" cy="438.82" r="2" fill="#ff7f0e" opacity=".5"/><path stroke="#ff7f0e" stroke-width="2.5" opacity=".5" d="m272.79 438.82 184.42-137.25"/><circle cx="457.21" cy="301.57" r="2" fill="#ff7f0e" opacity=".5"/></g><g class="slope"><circle cx="272.79" cy="424.01" r="2" fill="#ff7f0e" opacity=".5"/><path stroke="#ff7f0e" stroke-width="2.5" opacity=".5" d="m272.79 424.01 184.42-68.53"/><circle cx="457.21" cy="355.48" r="2" fill="#ff7f0e" opacity=".5"/></g><g class="slope"><circle cx="272.79" cy="424.74" r="2" fill="#ff7f0e" opacity=".5"/><path stroke="#ff7f0e" stroke-width="2.5" opacity=".5" d="m272.79 424.74 184.42-66.18"/><circle cx="457.21" cy="358.56" r="2" fill="#ff7f0e" opacity=".5"/></g><g class="slope"><circle cx="272.79" cy="394.92" r="2" fill="#923E8B" opacity=".5"/><path stroke="#923E8B" stroke-width="2.5" opacity=".5" d="m272.79 394.92 184.42-18.52"/><circle cx="457.21" cy="376.4" r="2" fill="#923E8B" opacity=".5"/><text x="465.21" y="379.91" font-size="11.7" fill="#333">$2,617</text><text font-size="11.7" x="505.2" y="379.9" fill="#333"><tspan x="505.25" y="379.91">Senegal</tspan></text></g><g class="slope"><circle cx="272.79" cy="355.01" r="2" fill="#2D8587" opacity=".5"/><path stroke="#2D8587" stroke-width="2.5" opacity=".5" d="m272.79 355.01 184.42-184.85"/><circle cx="457.21" cy="170.16" r="2" fill="#2D8587" opacity=".5"/></g><g class="slope"><circle cx="272.79" cy="442.14" r="2" fill="#923E8B" opacity=".5"/><path stroke="#923E8B" stroke-width="2.5" opacity=".5" d="m272.79 442.14 184.42-44.47"/><circle cx="457.21" cy="397.67" r="2" fill="#923E8B" opacity=".5"/></g><g class="slope"><circle cx="272.79" cy="457.03" r="2" fill="#4C5C78" opacity=".5"/><path stroke="#4C5C78" stroke-width="2.5" opacity=".5" d="m272.79 457.03 184.42-222.96"/><circle cx="457.21" cy="234.07" r="2" fill="#4C5C78" opacity=".5"/></g><g class="slope"><circle cx="272.79" cy="357.81" r="2" fill="#E04E4B" opacity=".5"/><path stroke="#E04E4B" stroke-width="2.5" opacity=".5" d="m272.79 357.81 184.42-162.5"/><circle cx="457.21" cy="195.31" r="2" fill="#E04E4B" opacity=".5"/></g><g class="slope"><circle cx="272.79" cy="497.4" r="2" fill="#923E8B" opacity=".5"/><path stroke="#923E8B" stroke-width="2.5" opacity=".5" d="m272.79 497.4 184.42-82.23"/><circle cx="457.21" cy="415.17" r="2" fill="#923E8B" opacity=".5"/></g><g class="slope"><circle cx="272.79" cy="359.7" r="2" fill="#4C5C78" opacity=".5"/><path stroke="#4C5C78" stroke-width="2.5" opacity=".5" d="m272.79 359.7 184.42-146.22"/><circle cx="457.21" cy="213.48" r="2" fill="#4C5C78" opacity=".5"/></g><g class="slope"><circle cx="272.79" cy="406.26" r="2" fill="#2D8587" opacity=".5"/><path stroke="#2D8587" stroke-width="2.5" opacity=".5" d="m272.79 406.26 184.42-109.02"/><circle cx="457.21" cy="297.24" r="2" fill="#2D8587" opacity=".5"/></g><g class="slope"><circle cx="272.79" cy="352.64" r="2" fill="#932834" opacity=".5"/><path stroke="#932834" stroke-width="2.5" opacity=".5" d="m272.79 352.64 184.42-84.27"/><circle cx="457.21" cy="268.37" r="2" fill="#932834" opacity=".5"/></g><g class="slope"><circle cx="272.79" cy="382.7" r="2" fill="#932834" opacity=".5"/><path stroke="#932834" stroke-width="2.5" opacity=".5" d="m272.79 382.7 184.42-95.06"/><circle cx="457.21" cy="287.64" r="2" fill="#932834" opacity=".5"/></g><g class="slope"><circle cx="272.79" cy="377.48" r="2" fill="#E04E4B" opacity=".5"/><path stroke="#E04E4B" stroke-width="2.5" opacity=".5" d="m272.79 377.48 184.42-151.61"/><circle cx="457.21" cy="225.87" r="2" fill="#E04E4B" opacity=".5"/></g><g class="slope"><circle cx="272.79" cy="441.8" r="2" fill="#2D8587" opacity=".5"/><path stroke="#2D8587" stroke-width="2.5" opacity=".5" d="m272.79 441.8 184.42-117.35"/><circle cx="457.21" cy="324.45" r="2" fill="#2D8587" opacity=".5"/></g><g class="slope"><circle cx="272.79" cy="292.95" r="2" fill="#4C5C78" opacity=".5"/><path stroke="#4C5C78" stroke-width="2.5" opacity=".5" d="M272.79 292.95 457.21 133.9"/><circle cx="457.21" cy="133.9" r="2" fill="#4C5C78" opacity=".5"/><text x="465.21" y="137.41" font-size="11.7" fill="#333">$84,580</text><text font-size="11.7" x="511.8" y="137.4" fill="#333"><tspan x="511.8" y="137.41">Norway</tspan></text></g><g class="slope"><circle cx="272.79" cy="430.8" r="2" fill="#923E8B" opacity=".5"/><path stroke="#923E8B" stroke-width="2.5" opacity=".5" d="m272.79 430.8 184.42-102.81"/><circle cx="457.21" cy="327.99" r="2" fill="#923E8B" opacity=".5"/></g><g class="slope"><circle cx="272.79" cy="444.72" r="2" fill="#923E8B" opacity=".5"/><path stroke="#923E8B" stroke-width="2.5" opacity=".5" d="m272.79 444.72 184.42 1.31"/><circle cx="457.21" cy="446.03" r="2" fill="#923E8B" opacity=".5"/></g><g class="slope"><circle cx="272.79" cy="377.8" r="2" fill="#E04E4B" opacity=".5"/><path stroke="#E04E4B" stroke-width="2.5" opacity=".5" d="m272.79 377.8 184.42-45.9"/><circle cx="457.21" cy="331.9" r="2" fill="#E04E4B" opacity=".5"/></g><g class="slope"><circle cx="272.79" cy="262.04" r="2" fill="#A8633C" opacity=".5"/><path stroke="#A8633C" stroke-width="2.5" opacity=".5" d="m272.79 262.04 184.42-67.24"/><circle cx="457.21" cy="194.8" r="2" fill="#A8633C" opacity=".5"/></g><g class="slope"><circle cx="272.79" cy="458.92" r="2" fill="#2D8587" opacity=".5"/><path stroke="#2D8587" stroke-width="2.5" opacity=".5" d="m272.79 458.92 184.42-85.4"/><circle cx="457.21" cy="373.52" r="2" fill="#2D8587" opacity=".5"/></g><g class="slope"><circle cx="272.79" cy="346.64" r="2" fill="#923E8B" opacity=".5"/><path stroke="#923E8B" stroke-width="2.5" opacity=".5" d="m272.79 346.64 184.42-56.75"/><circle cx="457.21" cy="289.89" r="2" fill="#923E8B" opacity=".5"/></g><g class="slope"><circle cx="272.79" cy="402.28" r="2" fill="#923E8B" opacity=".5"/><path stroke="#923E8B" stroke-width="2.5" opacity=".5" d="m272.79 402.28 184.42 32.55"/><circle cx="457.21" cy="434.83" r="2" fill="#923E8B" opacity=".5"/><text x="465.21" y="438.34" font-size="11.7" fill="#333">$1,133</text><text font-size="11.7" x="505.2" y="438.3" fill="#333"><tspan x="505.25" y="438.34">Mozambique</tspan></text></g><g class="slope"><circle cx="272.79" cy="384.84" r="2" fill="#923E8B" opacity=".5"/><path stroke="#923E8B" stroke-width="2.5" opacity=".5" d="m272.79 384.84 184.42-90.23"/><circle cx="457.21" cy="294.61" r="2" fill="#923E8B" opacity=".5"/></g><g class="slope"><circle cx="272.79" cy="470.74" r="2" fill="#2D8587" opacity=".5"/><path stroke="#2D8587" stroke-width="2.5" opacity=".5" d="m272.79 470.74 184.42-208.2"/><circle cx="457.21" cy="262.54" r="2" fill="#2D8587" opacity=".5"/></g><g class="slope"><circle cx="272.79" cy="355.92" r="2" fill="#E04E4B" opacity=".5"/><path stroke="#E04E4B" stroke-width="2.5" opacity=".5" d="m272.79 355.92 184.42-107.96"/><circle cx="457.21" cy="247.96" r="2" fill="#E04E4B" opacity=".5"/></g><g class="slope"><circle cx="272.79" cy="470.53" r="2" fill="#923E8B" opacity=".5"/><path stroke="#923E8B" stroke-width="2.5" opacity=".5" d="m272.79 470.53 184.42-113.56"/><circle cx="457.21" cy="356.97" r="2" fill="#923E8B" opacity=".5"/></g><g class="slope"><circle cx="272.79" cy="465.67" r="2" fill="#923E8B" opacity=".5"/><path stroke="#923E8B" stroke-width="2.5" opacity=".5" d="m272.79 465.67 184.42-57.81"/><circle cx="457.21" cy="407.86" r="2" fill="#923E8B" opacity=".5"/></g><g class="slope"><circle cx="272.79" cy="380.01" r="2" fill="#2D8587" opacity=".5"/><path stroke="#2D8587" stroke-width="2.5" opacity=".5" d="m272.79 380.01 184.42-160.63"/><circle cx="457.21" cy="219.38" r="2" fill="#2D8587" opacity=".5"/></g><g class="slope"><circle cx="272.79" cy="489.69" r="2" fill="#923E8B" opacity=".5"/><path stroke="#923E8B" stroke-width="2.5" opacity=".5" d="m272.79 489.69 184.42-53.86"/><circle cx="457.21" cy="435.83" r="2" fill="#923E8B" opacity=".5"/></g><g class="slope"><circle cx="272.79" cy="414.49" r="2" fill="#923E8B" opacity=".5"/><path stroke="#923E8B" stroke-width="2.5" opacity=".5" d="m272.79 414.49 184.42 4.2"/><circle cx="457.21" cy="418.69" r="2" fill="#923E8B" opacity=".5"/></g><g class="slope"><circle cx="272.79" cy="476.88" r="2" fill="#923E8B" opacity=".5"/><path stroke="#923E8B" stroke-width="2.5" opacity=".5" d="m272.79 476.88 184.42-222.36"/><circle cx="457.21" cy="254.52" r="2" fill="#923E8B" opacity=".5"/></g><g class="slope"><circle cx="272.79" cy="363.45" r="2" fill="#923E8B" opacity=".5"/><path stroke="#923E8B" stroke-width="2.5" opacity=".5" d="m272.79 363.45 184.42 94.05"/><circle cx="457.21" cy="457.5" r="2" fill="#923E8B" opacity=".5"/></g><g class="slope"><circle cx="272.79" cy="475.65" r="2" fill="#923E8B" opacity=".5"/><path stroke="#923E8B" stroke-width="2.5" opacity=".5" d="m272.79 475.65 184.42-102.23"/><circle cx="457.21" cy="373.42" r="2" fill="#923E8B" opacity=".5"/></g><g class="slope"><circle cx="272.79" cy="349.07" r="2" fill="#2D8587" opacity=".5"/><path stroke="#2D8587" stroke-width="2.5" opacity=".5" d="m272.79 349.07 184.42-82.1"/><circle cx="457.21" cy="266.97" r="2" fill="#2D8587" opacity=".5"/></g><g class="slope"><circle cx="272.79" cy="468.71" r="2" fill="#2D8587" opacity=".5"/><path stroke="#2D8587" stroke-width="2.5" opacity=".5" d="m272.79 468.71 184.42-155.25"/><circle cx="457.21" cy="313.46" r="2" fill="#2D8587" opacity=".5"/></g><g class="slope"><circle cx="272.79" cy="443.66" r="2" fill="#2D8587" opacity=".5"/><path stroke="#2D8587" stroke-width="2.5" opacity=".5" d="m272.79 443.66 184.42-253.8"/><circle cx="457.21" cy="189.86" r="2" fill="#2D8587" opacity=".5"/></g><g class="slope"><circle cx="272.79" cy="440.92" r="2" fill="#923E8B" opacity=".5"/><path stroke="#923E8B" stroke-width="2.5" opacity=".5" d="m272.79 440.92 184.42-82.32"/><circle cx="457.21" cy="358.6" r="2" fill="#923E8B" opacity=".5"/></g><g class="slope"><circle cx="272.79" cy="375.5" r="2" fill="#2D8587" opacity=".5"/><path stroke="#2D8587" stroke-width="2.5" opacity=".5" d="m272.79 375.5 184.42-102.42"/><circle cx="457.21" cy="273.08" r="2" fill="#2D8587" opacity=".5"/></g><g class="slope"><circle cx="272.79" cy="391.26" r="2" fill="#E04E4B" opacity=".5"/><path stroke="#E04E4B" stroke-width="2.5" opacity=".5" d="m272.79 391.26 184.42-86.17"/><circle cx="457.21" cy="305.09" r="2" fill="#E04E4B" opacity=".5"/></g><g class="slope"><circle cx="272.79" cy="338.74" r="2" fill="#2D8587" opacity=".5"/><path stroke="#2D8587" stroke-width="2.5" opacity=".5" d="m272.79 338.74 184.42-139.07"/><circle cx="457.21" cy="199.67" r="2" fill="#2D8587" opacity=".5"/></g><g class="slope"><circle cx="272.79" cy="253.47" r="2" fill="#E04E4B" opacity=".5"/><path stroke="#E04E4B" stroke-width="2.5" opacity=".5" d="m272.79 253.47 184.42-89.96"/><circle cx="457.21" cy="163.51" r="2" fill="#E04E4B" opacity=".5"/><text x="465.21" y="167.02" font-size="11.7" fill="#333">$55,335</text><text font-size="11.7" x="511.8" y="167" fill="#333"><tspan x="511.8" y="167.02">United States</tspan></text></g><g class="slope"><circle cx="272.79" cy="365.45" r="2" fill="#2D8587" opacity=".5"/><path stroke="#2D8587" stroke-width="2.5" opacity=".5" d="M272.79 365.45 457.21 188.5"/><circle cx="457.21" cy="188.5" r="2" fill="#2D8587" opacity=".5"/></g><g class="slope"><circle cx="272.79" cy="433.41" r="2" fill="#2D8587" opacity=".5"/><path stroke="#2D8587" stroke-width="2.5" opacity=".5" d="m272.79 433.41 184.42-35.93"/><circle cx="457.21" cy="397.48" r="2" fill="#2D8587" opacity=".5"/></g><g class="slope"><circle cx="272.79" cy="410.91" r="2" fill="#4C5C78" opacity=".5"/><path stroke="#4C5C78" stroke-width="2.5" opacity=".5" d="m272.79 410.91 184.42-135.35"/><circle cx="457.21" cy="275.56" r="2" fill="#4C5C78" opacity=".5"/></g><g class="slope"><circle cx="272.79" cy="389.28" r="2" fill="#923E8B" opacity=".5"/><path stroke="#923E8B" stroke-width="2.5" opacity=".5" d="m272.79 389.28 184.42-131.01"/><circle cx="457.21" cy="258.27" r="2" fill="#923E8B" opacity=".5"/></g><g class="slope"><circle cx="272.79" cy="407.45" r="2" fill="#923E8B" opacity=".5"/><path stroke="#923E8B" stroke-width="2.5" opacity=".5" d="m272.79 407.45 184.42-106.99"/><circle cx="457.21" cy="300.46" r="2" fill="#923E8B" opacity=".5"/></g><g class="slope"><circle cx="272.79" cy="298.89" r="2" fill="#932834" opacity=".5"/><path stroke="#932834" stroke-width="2.5" opacity=".5" d="m272.79 298.89 184.42-59.15"/><circle cx="457.21" cy="239.74" r="2" fill="#932834" opacity=".5"/></g><g class="slope"><circle cx="272.79" cy="271.23" r="2" fill="#A8633C" opacity=".5"/><path stroke="#A8633C" stroke-width="2.5" opacity=".5" d="m272.79 271.23 184.42-100.41"/><circle cx="457.21" cy="170.82" r="2" fill="#A8633C" opacity=".5"/></g><g class="slope"><circle cx="272.79" cy="319.6" r="2" fill="#4C5C78" opacity=".5"/><path stroke="#4C5C78" stroke-width="2.5" opacity=".5" d="m272.79 319.6 184.42-138.48"/><circle cx="457.21" cy="181.12" r="2" fill="#4C5C78" opacity=".5"/></g><g class="slope"><circle cx="272.79" cy="359.09" r="2" fill="#2D8587" opacity=".5"/><path stroke="#2D8587" stroke-width="2.5" opacity=".5" d="m272.79 359.09 184.42-172.06"/><circle cx="457.21" cy="187.03" r="2" fill="#2D8587" opacity=".5"/></g><g class="slope"><circle cx="272.79" cy="453.97" r="2" fill="#2D8587" opacity=".5"/><path stroke="#2D8587" stroke-width="2.5" opacity=".5" d="m272.79 453.97 184.42-108.88"/><circle cx="457.21" cy="345.09" r="2" fill="#2D8587" opacity=".5"/></g><g class="slope"><circle cx="272.79" cy="358.35" r="2" fill="#E04E4B" opacity=".5"/><path stroke="#E04E4B" stroke-width="2.5" opacity=".5" d="m272.79 358.35 184.42-88.17"/><circle cx="457.21" cy="270.18" r="2" fill="#E04E4B" opacity=".5"/></g><g class="slope"><circle cx="272.79" cy="409.56" r="2" fill="#923E8B" opacity=".5"/><path stroke="#923E8B" stroke-width="2.5" opacity=".5" d="m272.79 409.56 184.42-21.68"/><circle cx="457.21" cy="387.88" r="2" fill="#923E8B" opacity=".5"/></g><g class="slope"><circle cx="272.79" cy="366.62" r="2" fill="#932834" opacity=".5"/><path stroke="#932834" stroke-width="2.5" opacity=".5" d="m272.79 366.62 184.42-55.76"/><circle cx="457.21" cy="310.86" r="2" fill="#932834" opacity=".5"/></g><g class="slope"><circle cx="272.79" cy="493.44" r="2" fill="#923E8B" opacity=".5"/><path stroke="#923E8B" stroke-width="2.5" opacity=".5" d="m272.79 493.44 184.42-242.67"/><circle cx="457.21" cy="250.77" r="2" fill="#923E8B" opacity=".5"/></g><g class="slope"><circle cx="272.79" cy="387.38" r="2" fill="#932834" opacity=".5"/><path stroke="#932834" stroke-width="2.5" opacity=".5" d="m272.79 387.38 184.42-128.15"/><circle cx="457.21" cy="259.23" r="2" fill="#932834" opacity=".5"/></g><g class="slope"><circle cx="272.79" cy="376" r="2" fill="#4C5C78" opacity=".5"/><path stroke="#4C5C78" stroke-width="2.5" opacity=".5" d="m272.79 376 184.42-135.84"/><circle cx="457.21" cy="240.16" r="2" fill="#4C5C78" opacity=".5"/></g><g class="slope"><circle cx="272.79" cy="463.04" r="2" fill="#923E8B" opacity=".5"/><path stroke="#923E8B" stroke-width="2.5" opacity=".5" d="m272.79 463.04 184.42-51.85"/><circle cx="457.21" cy="411.19" r="2" fill="#923E8B" opacity=".5"/></g><g class="slope"><circle cx="272.79" cy="479.75" r="2" fill="#923E8B" opacity=".5"/><path stroke="#923E8B" stroke-width="2.5" opacity=".5" d="m272.79 479.75 184.42-6.32"/><circle cx="457.21" cy="473.43" r="2" fill="#923E8B" opacity=".5"/></g><g class="slope"><circle cx="272.79" cy="461.94" r="2" fill="#2D8587" opacity=".5"/><path stroke="#2D8587" stroke-width="2.5" opacity=".5" d="M272.79 461.94 457.21 353.6"/><circle cx="457.21" cy="353.6" r="2" fill="#2D8587" opacity=".5"/></g><g class="slope"><circle cx="272.79" cy="438.8" r="2" fill="#923E8B" opacity=".5"/><path stroke="#923E8B" stroke-width="2.5" opacity=".5" d="m272.79 438.8 184.42-69.27"/><circle cx="457.21" cy="369.53" r="2" fill="#923E8B" opacity=".5"/></g><g class="slope"><circle cx="272.79" cy="272.38" r="2" fill="#E04E4B" opacity=".5"/><path stroke="#E04E4B" stroke-width="2.5" opacity=".5" d="m272.79 272.38 184.42-94.25"/><circle cx="457.21" cy="178.13" r="2" fill="#E04E4B" opacity=".5"/></g><g class="slope"><circle cx="272.79" cy="443.11" r="2" fill="#923E8B" opacity=".5"/><path stroke="#923E8B" stroke-width="2.5" opacity=".5" d="m272.79 443.11 184.42-133.65"/><circle cx="457.21" cy="309.46" r="2" fill="#923E8B" opacity=".5"/></g><g class="slope"><circle cx="272.79" cy="439.85" r="2" fill="#923E8B" opacity=".5"/><path stroke="#923E8B" stroke-width="2.5" opacity=".5" d="m272.79 439.85 184.42-84.41"/><circle cx="457.21" cy="355.44" r="2" fill="#923E8B" opacity=".5"/></g><g class="slope"><circle cx="272.79" cy="417.5" r="2" fill="#2D8587" opacity=".5"/><path stroke="#2D8587" stroke-width="2.5" opacity=".5" d="m272.79 417.5 184.42-31.63"/><circle cx="457.21" cy="385.87" r="2" fill="#2D8587" opacity=".5"/></g><g class="slope"><circle cx="272.79" cy="307.61" r="2" fill="#932834" opacity=".5"/><path stroke="#932834" stroke-width="2.5" opacity=".5" d="m272.79 307.61 184.42-73.75"/><circle cx="457.21" cy="233.86" r="2" fill="#932834" opacity=".5"/></g><g class="slope"><circle cx="272.79" cy="470.84" r="2" fill="#923E8B" opacity=".5"/><path stroke="#923E8B" stroke-width="2.5" opacity=".5" d="m272.79 470.84 184.42-101"/><circle cx="457.21" cy="369.84" r="2" fill="#923E8B" opacity=".5"/></g><g class="slope"><circle cx="272.79" cy="417.55" r="2" fill="#923E8B" opacity=".5"/><path stroke="#923E8B" stroke-width="2.5" opacity=".5" d="M272.79 417.55 457.21 270.4"/><circle cx="457.21" cy="270.4" r="2" fill="#923E8B" opacity=".5"/></g><g class="slope"><circle cx="272.79" cy="437.19" r="2" fill="#923E8B" opacity=".5"/><path stroke="#923E8B" stroke-width="2.5" opacity=".5" d="m272.79 437.19 184.42-43.59"/><circle cx="457.21" cy="393.6" r="2" fill="#923E8B" opacity=".5"/></g><g class="slope"><circle cx="272.79" cy="392.46" r="2" fill="#2D8587" opacity=".5"/><path stroke="#2D8587" stroke-width="2.5" opacity=".5" d="M272.79 392.46 457.21 237.1"/><circle cx="457.21" cy="237.1" r="2" fill="#2D8587" opacity=".5"/></g><g class="slope"><circle cx="272.79" cy="403.41" r="2" fill="#923E8B" opacity=".5"/><path stroke="#923E8B" stroke-width="2.5" opacity=".5" d="m272.79 403.41 184.42-129.4"/><circle cx="457.21" cy="274.01" r="2" fill="#923E8B" opacity=".5"/></g><g class="slope"><text font-size="11.7" x="218.2" y="221.9" text-anchor="end" fill="#333"><tspan x="218.2" y="221.95">United Arab Emirates</tspan></text><text x="264.79" y="221.95" text-anchor="end" font-size="11.7" fill="#333">$25,182</text><circle cx="272.79" cy="218.44" r="2" fill="#2D8587" opacity=".5"/><path stroke="#2D8587" stroke-width="2.5" opacity=".5" d="M272.79 218.44 457.21 141"/><circle cx="457.21" cy="141" r="2" fill="#2D8587" opacity=".5"/></g><g class="slope"><circle cx="272.79" cy="320.21" r="2" fill="#E04E4B" opacity=".5"/><path stroke="#E04E4B" stroke-width="2.5" opacity=".5" d="m272.79 320.21 184.42-110.53"/><circle cx="457.21" cy="209.68" r="2" fill="#E04E4B" opacity=".5"/></g><g class="slope"><circle cx="272.79" cy="453.24" r="2" fill="#923E8B" opacity=".5"/><path stroke="#923E8B" stroke-width="2.5" opacity=".5" d="m272.79 453.24 184.42-35.71"/><circle cx="457.21" cy="417.53" r="2" fill="#923E8B" opacity=".5"/></g><g class="slope"><circle cx="272.79" cy="425.11" r="2" fill="#2D8587" opacity=".5"/><path stroke="#2D8587" stroke-width="2.5" opacity=".5" d="m272.79 425.11 184.42-177.8"/><circle cx="457.21" cy="247.31" r="2" fill="#2D8587" opacity=".5"/></g><g class="slope"><circle cx="272.79" cy="349.69" r="2" fill="#2D8587" opacity=".5"/><path stroke="#2D8587" stroke-width="2.5" opacity=".5" d="m272.79 349.69 184.42 9.5"/><circle cx="457.21" cy="359.19" r="2" fill="#2D8587" opacity=".5"/></g><g class="slope"><circle cx="272.79" cy="478.7" r="2" fill="#923E8B" opacity=".5"/><path stroke="#923E8B" stroke-width="2.5" opacity=".5" d="m272.79 478.7 184.42-180.85"/><circle cx="457.21" cy="297.85" r="2" fill="#923E8B" opacity=".5"/></g><g class="slope"><circle cx="272.79" cy="435.8" r="2" fill="#923E8B" opacity=".5"/><path stroke="#923E8B" stroke-width="2.5" opacity=".5" d="m272.79 435.8 184.42-25.56"/><circle cx="457.21" cy="410.24" r="2" fill="#923E8B" opacity=".5"/></g><g class="slope"><circle cx="272.79" cy="346.09" r="2" fill="#923E8B" opacity=".5"/><path stroke="#923E8B" stroke-width="2.5" opacity=".5" d="m272.79 346.09 184.42-76.9"/><circle cx="457.21" cy="269.19" r="2" fill="#923E8B" opacity=".5"/></g><g class="slope"><circle cx="272.79" cy="440.19" r="2" fill="#2D8587" opacity=".5"/><path stroke="#2D8587" stroke-width="2.5" opacity=".5" d="m272.79 440.19 184.42-130.56"/><circle cx="457.21" cy="309.63" r="2" fill="#2D8587" opacity=".5"/></g><g class="slope"><circle cx="272.79" cy="354.7" r="2" fill="#2D8587" opacity=".5"/><path stroke="#2D8587" stroke-width="2.5" opacity=".5" d="m272.79 354.7 184.42-205.98"/><circle cx="457.21" cy="148.72" r="2" fill="#2D8587" opacity=".5"/></g><g class="slope"><circle cx="272.79" cy="450.72" r="2" fill="#923E8B" opacity=".5"/><path stroke="#923E8B" stroke-width="2.5" opacity=".5" d="m272.79 450.72 184.42-43.55"/><circle cx="457.21" cy="407.17" r="2" fill="#923E8B" opacity=".5"/></g></g></g><g class="ScatterColorLegend clickable" style="cursor:pointer"><g class="legendMark"><path fill="#923E8B" d="M735 94h9v9h-9z"/><text font-size="12.6" x="749" y="102.3"><tspan x="749" y="102.28">Africa</tspan></text></g><g class="legendMark"><path fill="#2D8587" d="M735 111.6h9v9h-9z"/><text font-size="12.6" x="749" y="119.9"><tspan x="749" y="119.88">Asia</tspan></text></g><g class="legendMark"><path fill="#4C5C78" d="M735 129.2h9v9h-9z"/><text font-size="12.6" x="749" y="137.5"><tspan x="749" y="137.48">Europe</tspan></text></g><g class="legendMark"><path fill="#E04E4B" d="M735 146.8h9v9h-9z"/><text font-size="12.6" x="749" y="155.1"><tspan x="749" y="155.08">North America</tspan></text></g><g class="legendMark"><path fill="#A8633C" d="M735 164.4h9v9h-9z"/><text font-size="12.6" x="749" y="172.7"><tspan x="749" y="172.68">Oceania</tspan></text></g><g class="legendMark"><path fill="#932834" d="M735 182h9v9h-9z"/><text font-size="12.6" x="749" y="190.3"><tspan x="749" y="190.28">South America</tspan></text></g></g></g><g class="SourcesFooter" style="fill:#777"><g style="fill:#777"><text font-size="12.6" x="15" y="582.5"><tspan x="15" y="582.48">Source: Maddison Project Database 2020 (Bolt and van Zanden, 2020)</tspan></text></g><text font-size="12.6" x="570.4" y="582.5"><tspan x="570.4" y="582.48"><a target="_blank" style="fill:#777" href="https://ourworldindata.org/economic-growth">OurWorldInData.org/economic-growth</a> • <a style="fill:#777" class="cclogo" href="http://creativecommons.org/licenses/by/4.0/deed.en_US" target="_blank">CC BY</a></tspan></text></g></svg>