<svg xmlns="http://www.w3.org/2000/svg" version="1.1" style="background-color:#fff;-webkit-font-smoothing:antialiased" width="850" height="600" viewBox="0 0 850 600" font-family="Lato,'Helvetica Neue',Helvetica,Arial,sans-serif" font-size="18" text-rendering="optimizeLegibility"><g class="HeaderView"><g transform="matrix(.95 0 0 .95 739 15)"><svg className="coreLogo" width="102" height="37" viewBox="0 0 102 37" fill="none" xmlns="http://www.w3.org/2000/svg"><path d="M47 0H0v37h47V0z" fill="#EA4148"/><path d="M3.78 11.85c0-3.55 2.67-5.6 5.68-5.6a4.63 4.63 0 013.09 1.1l-1.7 2.36c-.31-.32-.74-.5-1.18-.52-1.36 0-2.16 1.03-2.16 2.66 0 1.62.89 2.65 2.03 2.65a2.93 2.93 0 001.7-.69l1.4 2.4a5.29 5.29 0 01-3.52 1.24c-3 0-5.34-2.05-5.34-5.6z" fill="#fff"/><path d="M18.85 11.85c0-1.63-.42-2.66-1.52-2.66s-1.52 1.03-1.52 2.66c0 1.62.42 2.65 1.52 2.65s1.52-1.03 1.52-2.65zm-6.77 0c0-3.55 2.54-5.6 5.25-5.6 2.7 0 5.25 2.05 5.25 5.6s-2.54 5.6-5.25 5.6-5.25-2.05-5.25-5.6M23.34 6.5h2.97l.25 1.84h.09c.78-1.46 1.97-2.1 3-2.1.45-.02.9.05 1.32.22l-.6 3.16c-.38-.1-.78-.16-1.18-.17-.76 0-1.7.47-2.2 1.8v5.94h-3.65V6.5zm13.64 4.06c0-.81-.34-1.54-1.44-1.54-.8 0-1.49.47-1.7 1.54h3.14zm-6.6 1.29c0-3.47 2.49-5.6 5.07-5.6 3.13 0 4.62 2.3 4.62 5.17 0 .52-.05 1.03-.15 1.54h-6.04c.34 1.28 1.27 1.71 2.46 1.71a4.3 4.3 0 002.16-.64l1.18 2.18a7.08 7.08 0 01-3.85 1.24c-3.09 0-5.46-2.05-5.46-5.6" fill="#fff"/><path d="M10.43 23.87c0-.81-.34-1.54-1.44-1.54-.8 0-1.48.47-1.69 1.54h3.13zm-6.6 1.28c0-3.46 2.5-5.6 5.08-5.6 3.13 0 4.61 2.3 4.61 5.18 0 .51-.05 1.03-.15 1.54H7.34c.34 1.28 1.27 1.7 2.46 1.7.76-.01 1.5-.23 2.16-.63l1.18 2.18a7.08 7.08 0 01-3.85 1.24c-3.1 0-5.46-2.06-5.46-5.6m10.07-.01c0-3.55 2.67-5.6 5.68-5.6a4.63 4.63 0 013.09 1.11l-1.7 2.35c-.32-.31-.74-.5-1.18-.51-1.36 0-2.16 1.03-2.16 2.65 0 1.63.89 2.66 2.03 2.66a2.93 2.93 0 001.7-.69l1.39 2.4a5.29 5.29 0 01-3.51 1.24c-3 0-5.34-2.06-5.34-5.6" fill="#1A1818"/><path d="M28.97 25.15c0-1.62-.42-2.65-1.52-2.65s-1.52 1.03-1.52 2.65c0 1.63.42 2.66 1.52 2.66s1.52-1.03 1.52-2.66zm-6.77 0c0-3.55 2.54-5.6 5.25-5.6 2.7 0 5.25 2.05 5.25 5.6s-2.54 5.6-5.25 5.6-5.25-2.04-5.25-5.6m11.34-5.35h2.97l.25 1.29h.09a4.76 4.76 0 013.34-1.54c2.33 0 3.3 1.71 3.3 4.36v6.6h-3.64v-6.13c0-1.37-.34-1.7-1.06-1.7-.67 0-1.05.3-1.6.8v7.02h-3.65V19.8z" fill="#1A1818"/><path fill="#fff" d="M48 0h54v37H48z"/><path d="M48 0h53.93v33H48V0z" fill="#002147"/><path d="M58.42 10.86c0 .61-.1 1.18-.3 1.7a3.83 3.83 0 01-2.15 2.21c-.5.21-1.07.32-1.7.32-.6 0-1.17-.1-1.68-.32a3.9 3.9 0 01-2.15-2.21c-.2-.52-.3-1.09-.3-1.7 0-.61.1-1.18.3-1.7a3.93 3.93 0 012.15-2.22 4.38 4.38 0 011.69-.31c.62 0 1.18.1 1.69.31a3.79 3.79 0 012.15 2.22c.2.52.3 1.09.3 1.7zm-1.38 0c0-.48-.06-.9-.2-1.28A2.38 2.38 0 0055.43 8a2.97 2.97 0 00-1.14-.21c-.42 0-.8.07-1.15.21-.34.14-.63.35-.87.61a2.8 2.8 0 00-.56.97c-.13.38-.2.8-.2 1.28s.07.9.2 1.29a2.46 2.46 0 001.43 1.57c.35.14.73.2 1.15.2.42 0 .8-.06 1.15-.2a2.4 2.4 0 001.42-1.57c.13-.38.2-.81.2-1.29zm7.14-1.72V15h-.74c-.17 0-.27-.08-.32-.24l-.1-.54a3.42 3.42 0 01-.81.63 2.3 2.3 0 01-1.06.24c-.32 0-.6-.05-.85-.16a1.72 1.72 0 01-1-1.15 3.1 3.1 0 01-.12-.91V9.14h1.24v3.73c0 .4.09.7.27.92.18.22.46.32.83.32.27 0 .53-.06.76-.18.24-.13.46-.3.67-.52V9.13h1.23zm2.33 1.08c.18-.37.4-.66.66-.87.27-.22.58-.32.94-.32a1.34 1.34 0 01.66.17l-.09.93a.26.26 0 01-.07.14.2.2 0 01-.13.03c-.06 0-.14 0-.25-.03a1.62 1.62 0 00-.8.04c-.13.05-.25.13-.35.22-.1.1-.2.21-.28.35-.08.14-.15.3-.22.47V15h-1.24V9.13h.72c.13 0 .22.03.27.08.05.05.08.13.1.25l.08.76zm16-3.5L79.94 15h-1.21l-1.95-5.95a4.7 4.7 0 01-.12-.46 3.32 3.32 0 01-.13.46L74.57 15h-1.22l-2.57-8.28h1.13c.11 0 .2.03.28.09.08.05.14.12.16.22l1.56 5.3a6.11 6.11 0 01.16.8 10 10 0 01.2-.8l1.78-5.3a.48.48 0 01.16-.21.4.4 0 01.28-.1h.4c.11 0 .21.03.28.1.08.05.13.12.17.21l1.77 5.3.1.37.1.4a59.35 59.35 0 00.16-.76L81 7.03a.4.4 0 01.16-.22.49.49 0 01.3-.09h1.04zm2.41 2.32c.44 0 .83.07 1.18.22a2.49 2.49 0 011.47 1.55c.13.37.2.79.2 1.25 0 .47-.07.88-.2 1.26-.14.37-.33.69-.58.95a2.87 2.87 0 01-2.07.82c-.43 0-.83-.07-1.18-.22a2.55 2.55 0 01-1.47-1.55c-.14-.38-.2-.8-.2-1.26 0-.46.06-.88.2-1.25a2.55 2.55 0 011.47-1.55c.35-.15.75-.22 1.18-.22zm0 5.08c.53 0 .92-.18 1.18-.53.26-.36.4-.86.4-1.52s-.14-1.17-.4-1.53c-.26-.36-.65-.54-1.18-.54-.53 0-.93.18-1.2.54-.25.36-.38.87-.38 1.53s.13 1.16.39 1.52c.26.35.66.53 1.2.53zm4.86-3.9c.18-.37.4-.66.67-.87.26-.22.57-.32.93-.32a1.34 1.34 0 01.66.17l-.09.93a.26.26 0 01-.07.14.2.2 0 01-.13.03c-.06 0-.14 0-.25-.03a1.62 1.62 0 00-.8.04 1.29 1.29 0 00-.63.57c-.08.14-.15.3-.22.47V15H88.6V9.13h.72c.13 0 .22.03.27.08.05.05.08.13.1.25l.08.76zm4-3.73V15h-1.25V6.49h1.24zm4.91 4.09a1.45 1.45 0 00-1.24-.6c-.48 0-.86.18-1.13.54-.27.35-.4.87-.4 1.56 0 .37.02.67.08.93.07.25.15.46.27.62.11.16.25.28.42.35.16.08.35.11.56.11.31 0 .58-.07.8-.2.24-.14.45-.33.64-.58v-2.73zm1.24-4.09V15h-.75c-.16 0-.27-.08-.31-.24l-.11-.63c-.25.28-.53.52-.84.7-.31.17-.67.26-1.09.26a1.96 1.96 0 01-1.59-.78 2.73 2.73 0 01-.44-.94 4.86 4.86 0 01.01-2.5c.12-.37.3-.7.51-.96a2.3 2.3 0 011.85-.88c.34 0 .63.05.88.16.24.11.45.26.64.46V6.49h1.24zm-39.9 14.65V27h-1.24v-5.86h1.24zm.2-1.78c0 .12-.02.22-.06.32a.83.83 0 01-1.34.26.8.8 0 01-.24-.58c0-.11.02-.22.06-.32a.89.89 0 01.43-.43.76.76 0 01.64 0 .81.81 0 01.45.43c.04.1.06.2.06.32zm2.16 2.55a3.67 3.67 0 01.83-.63 2.32 2.32 0 011.9-.08c.24.11.45.26.61.46.17.2.3.43.38.7.09.28.13.58.13.9V27H65v-3.73c0-.4-.1-.7-.28-.92-.18-.22-.45-.33-.83-.33-.27 0-.53.06-.77.19-.23.13-.45.3-.66.52V27h-1.23v-5.86h.74c.17 0 .28.07.33.23l.08.54zm14.96.95c0 .61-.1 1.17-.3 1.68a3.78 3.78 0 01-2.15 2.16c-.5.2-1.07.3-1.69.3H70.1v-8.28h3.12c.62 0 1.19.1 1.7.3a3.71 3.71 0 012.14 2.16c.2.5.3 1.07.3 1.68zm-1.37 0c0-.48-.07-.9-.2-1.28a2.6 2.6 0 00-.55-.96 2.35 2.35 0 00-.87-.6 2.97 2.97 0 00-1.15-.21h-1.77v6.1h1.77c.43 0 .81-.07 1.15-.2a2.42 2.42 0 001.42-1.56c.13-.38.2-.81.2-1.29zm5.27 1.58a7.5 7.5 0 00-1.12.1c-.3.06-.55.13-.73.22a.97.97 0 00-.41.3.68.68 0 00-.12.4c0 .13.02.25.06.35.05.1.1.18.18.24.08.06.18.1.28.14a1.78 1.78 0 001.18-.14c.23-.12.46-.3.68-.53v-1.08zm-3.28-2.49a3.36 3.36 0 012.37-.92c.34 0 .63.05.9.16a1.83 1.83 0 011.06 1.18c.1.27.15.57.15.9V27h-.55a.56.56 0 01-.27-.05.42.42 0 01-.16-.23l-.12-.47-.44.36c-.15.1-.3.2-.46.26a2.77 2.77 0 01-1.75.12c-.2-.06-.38-.16-.53-.29a1.46 1.46 0 01-.48-1.18c0-.23.06-.45.18-.66.12-.22.32-.41.6-.58a4 4 0 011.1-.43 8.03 8.03 0 011.68-.19v-.39c0-.42-.1-.73-.27-.94-.18-.2-.45-.3-.8-.3-.23-.01-.43.02-.6.08a6.05 6.05 0 00-.74.39.54.54 0 01-.28.08.38.38 0 01-.22-.06.6.6 0 01-.15-.17l-.22-.4zm7.38 5.14c-.48 0-.86-.13-1.12-.4-.26-.28-.4-.67-.4-1.17v-3.41h-.64a.27.27 0 01-.18-.07c-.05-.04-.07-.11-.07-.2v-.5l.95-.14.27-1.7a.31.31 0 01.1-.15c.04-.04.1-.06.18-.06h.63v1.93h1.63v.89h-1.63v3.33c0 .2.05.37.16.48.1.11.24.17.41.17a.79.79 0 00.43-.12 4 4 0 00.12-.08.2.2 0 01.11-.04c.07 0 .13.04.17.11l.37.6c-.2.18-.42.3-.68.4a2.5 2.5 0 01-.8.13zm5.11-2.65a7.5 7.5 0 00-1.11.1 3 3 0 00-.74.22.97.97 0 00-.4.3.68.68 0 00-.13.4c0 .13.02.25.06.35.05.1.11.18.19.24s.17.1.28.14a1.78 1.78 0 001.18-.14c.23-.12.45-.3.67-.53v-1.08zm-3.28-2.49a3.36 3.36 0 012.37-.92c.34 0 .64.05.9.16.27.11.49.26.66.46.18.2.32.44.41.72.1.27.14.57.14.9V27h-.55a.56.56 0 01-.27-.05c-.06-.04-.11-.11-.15-.23l-.12-.47-.45.36c-.14.1-.3.2-.45.26a2.77 2.77 0 01-1.75.12c-.2-.06-.38-.16-.53-.29a1.46 1.46 0 01-.49-1.18c0-.23.06-.45.18-.66.12-.22.32-.41.6-.58.28-.17.65-.31 1.1-.43a8.03 8.03 0 011.68-.19v-.39c0-.42-.09-.73-.27-.94-.18-.2-.44-.3-.8-.3a1.5 1.5 0 00-.59.08 6.09 6.09 0 00-.74.39.54.54 0 01-.29.08.38.38 0 01-.22-.06.6.6 0 01-.14-.17l-.23-.4z" fill="#fff"/><path fill="#D42B21" d="M48 32.65h54V37H48z"/></svg></g><a href="https://ourworldindata.org/grapher/manufacturing-wages-relative-to-the-us-with-finland" target="_blank" rel="noopener" font-family="&quot;Playfair Display&quot;,Georgia,&quot;Times New Roman&quot;,serif"><text font-size="25.2" x="15" y="35.2" fill="#555"><tspan x="15" y="35.16">Manufacturing wages relative to the US, 1975 to 2012</tspan></text></a><text font-size="14.4" x="15" y="55.7" fill="#666"><tspan x="15" y="55.72">Unit 18 &apos;The nation and the world economy’ Section 18.3 &apos;Globalization and migration&apos; in The CORE Team,</tspan><tspan x="15" y="73">The Economy. Available at https://tinyco.re/18031220 [Figure 18.12]</tspan></text></g><g class="LineChart"><defs><clipPath id="a"><path d="M37.22 82.2h840v460.6h-840z"/></clipPath></defs><g class="DualAxisView"><g class="HorizontalAxis"><path stroke="#999" d="M47.2 511.6v5M703.6 511.6v5M135.9 511.6v5M224.6 511.6v5M313.3 511.6v5M402 511.6v5M490.7 511.6v5M579.4 511.6v5"/><text x="47.22" y="532.8" fill="#666" text-anchor="start" font-size="16.2">1975</text><text x="703.61" y="532.8" fill="#666" text-anchor="end" font-size="16.2">2012</text><text x="135.9" y="532.8" fill="#666" text-anchor="middle" font-size="16.2">1980</text><text x="224.6" y="532.8" fill="#666" text-anchor="middle" font-size="16.2">1985</text><text x="313.3" y="532.8" fill="#666" text-anchor="middle" font-size="16.2">1990</text><text x="402" y="532.8" fill="#666" text-anchor="middle" font-size="16.2">1995</text><text x="490.7" y="532.8" fill="#666" text-anchor="middle" font-size="16.2">2000</text><text x="579.4" y="532.8" fill="#666" text-anchor="middle" font-size="16.2">2005</text></g><g class="VerticalAxis" text-anchor="end" fill="#666" font-size="16.2"><text x="42.22" y="470.1" dy=".32em">20</text><text x="42.22" y="422.3" dy=".32em">40</text><text x="42.22" y="374.4" dy=".32em">60</text><text x="42.22" y="326.6" dy=".32em">80</text><text x="42.22" y="278.8" dy=".32em">100</text><text x="42.22" y="230.9" dy=".32em">120</text><text x="42.22" y="183.1" dy=".32em">140</text><text x="42.22" y="135.3" dy=".32em">160</text></g><g class="AxisGridLines horizontalLines" stroke="#ddd" stroke-dasharray="3,2"><path d="M47.22 470.1h656.39M47.22 422.3h656.39M47.22 374.4h656.39M47.22 326.6h656.39M47.22 278.8h656.39M47.22 230.9h656.39M47.22 183.1h656.39M47.22 135.3h656.39"/></g></g><g clip-path="url(#a)"><g class="LineLabels" cursor="default"><g class="legendMark"><g class="indicator"><path d="M707.61 92.2h13.5v6.75h13.5" stroke="#999" stroke-width=".5" fill="none"/></g><text font-size="13.5" x="738.6" y="103" fill="#a652ba"><tspan x="738.61" y="103">Norway</tspan></text></g><g class="legendMark"><g class="indicator"><path d="M707.61 183.1h13.5v0h13.5" stroke="#999" stroke-width=".5" fill="none"/></g><text font-size="13.5" x="738.6" y="187.2" fill="#34983f"><tspan x="738.61" y="187.15">Sweden</tspan></text></g><g class="legendMark"><g class="indicator"><path d="M707.61 233.3h13.5v0h13.5" stroke="#999" stroke-width=".5" fill="none"/></g><text font-size="13.5" x="738.6" y="237.4" fill="#9a5129"><tspan x="738.61" y="237.35">Finland</tspan></text></g><g class="legendMark"><g class="indicator"><path d="M707.61 250.1h13.5v0h13.5" stroke="#999" stroke-width=".5" fill="none"/></g><text font-size="13.5" x="738.6" y="254.2" fill="#000"><tspan x="738.61" y="254.15">France</tspan></text></g><g class="legendMark"><g class="indicator"><path d="M707.61 278.8h18v-13.1h9" stroke="#999" stroke-width=".5" fill="none"/></g><text font-size="13.5" x="738.6" y="269.8" fill="#ed6c2d"><tspan x="738.61" y="269.75">United States</tspan></text></g><g class="legendMark"><g class="indicator"><path d="M707.61 281.2h18v0h9" stroke="#999" stroke-width=".5" fill="none"/></g><text font-size="13.5" x="738.6" y="285.3" fill="#c8c8c8"><tspan x="738.61" y="285.25">Japan</tspan></text></g><g class="legendMark"><g class="indicator"><path d="M707.61 288.3h18v8.4h9" stroke="#999" stroke-width=".5" fill="none"/></g><text font-size="13.5" x="738.6" y="300.8" fill="#b077b1"><tspan x="738.61" y="300.75">Italy</tspan></text></g><g class="legendMark"><g class="indicator"><path d="M707.61 307.5h9v4.7h18" stroke="#999" stroke-width=".5" fill="none"/></g><text font-size="13.5" x="738.6" y="316.3" fill="#2a939b"><tspan x="738.61" y="316.25">United Kingdom</tspan></text></g><g class="legendMark"><g class="indicator"><path d="M707.61 379.2h13.5v0h13.5" stroke="#999" stroke-width=".5" fill="none"/></g><text font-size="13.5" x="738.6" y="383.3" fill="#ce8ebd"><tspan x="738.61" y="383.25">South Korea</tspan></text></g><g class="legendMark"><g class="indicator"><path d="M707.61 436.6h13.5v0h13.5" stroke="#999" stroke-width=".5" fill="none"/></g><text font-size="13.5" x="738.6" y="440.7" fill="#ffd53e"><tspan x="738.61" y="440.65">Portugal</tspan></text></g><g class="legendMark"><g class="indicator"><path d="M707.61 453.4h13.5v0h13.5" stroke="#999" stroke-width=".5" fill="none"/></g><text font-size="13.5" x="738.6" y="457.4" fill="#df3c64"><tspan x="738.61" y="457.45">Taiwan</tspan></text></g><g class="legendMark"><g class="indicator"><path d="M707.61 474.9h13.5v0h13.5" stroke="#999" stroke-width=".5" fill="none"/></g><text font-size="13.5" x="738.6" y="478.9" fill="#5eb77e"><tspan x="738.61" y="478.95">Mexico</tspan></text></g><g class="legendMark"><g class="indicator"><path d="M707.61 511.6h13.5v-6.75h13.5" stroke="#999" stroke-width=".5" fill="none"/></g><text font-size="13.5" x="738.6" y="508.9" fill="#7ec7ce"><tspan x="738.61" y="508.9">Sri Lanka</tspan></text></g></g><g class="Lines"><g><path stroke-linecap="round" stroke-linejoin="round" stroke="#ddd" d="M47.2 335.7l656.4-85.6" fill="none" stroke-width="1"/></g><g><path stroke-linecap="round" stroke-linejoin="round" stroke="#ddd" d="M47.2 503l656.4-49.6" fill="none" stroke-width="1"/></g><g><path stroke-linecap="round" stroke-linejoin="round" stroke="#ddd" d="M47.2 336.3l656.4-48" fill="none" stroke-width="1"/></g><g><path stroke-linecap="round" stroke-linejoin="round" stroke="#ddd" d="M47.2 243.8l656.4-60.7" fill="none" stroke-width="1"/></g><g><path stroke-linecap="round" stroke-linejoin="round" stroke="#ddd" d="M47.2 278.8h656.4" fill="none" stroke-width="1"/></g><g><path stroke-linecap="round" stroke-linejoin="round" stroke="#ddd" d="M47.2 403.9l656.4-122.7" fill="none" stroke-width="1"/></g><g><path stroke-linecap="round" stroke-linejoin="round" stroke="#ddd" d="M47.2 507.2l656.4 4.4" fill="none" stroke-width="1"/></g><g><path stroke-linecap="round" stroke-linejoin="round" stroke="#ddd" d="M47.2 392.3l656.4-84.8" fill="none" stroke-width="1"/></g><g><path stroke-linecap="round" stroke-linejoin="round" stroke="#ddd" d="M47.2 448.8l656.4-12.2" fill="none" stroke-width="1"/></g><g><path stroke-linecap="round" stroke-linejoin="round" stroke="#ddd" d="M47.2 247L703.6 92.2" fill="none" stroke-width="1"/></g><g><path stroke-linecap="round" stroke-linejoin="round" stroke="#ddd" d="M47.2 505.2l656.4-126" fill="none" stroke-width="1"/></g><g><path stroke-linecap="round" stroke-linejoin="round" stroke="#ddd" d="M47.2 448.3l656.4 26.6" fill="none" stroke-width="1"/></g><g><path stroke-linecap="round" stroke-linejoin="round" stroke="#ddd" d="M47.2 325.1l656.4-91.8" fill="none" stroke-width="1"/></g><g><path stroke="#000" stroke-linecap="round" stroke-linejoin="round" d="M47.2 335.7l656.4-85.6" fill="none" stroke-width="1.5"/><g fill="#000"><circle cx="47.2" cy="335.7" r="2"/><circle cx="703.6" cy="250.1" r="2"/></g></g><g><path stroke="#df3c64" stroke-linecap="round" stroke-linejoin="round" d="M47.2 503l656.4-49.6" fill="none" stroke-width="1.5"/><g fill="#df3c64"><circle cx="47.2" cy="503" r="2"/><circle cx="703.6" cy="453.4" r="2"/></g></g><g><path stroke="#b077b1" stroke-linecap="round" stroke-linejoin="round" d="M47.2 336.3l656.4-48" fill="none" stroke-width="1.5"/><g fill="#b077b1"><circle cx="47.2" cy="336.3" r="2"/><circle cx="703.6" cy="288.3" r="2"/></g></g><g><path stroke="#34983f" stroke-linecap="round" stroke-linejoin="round" d="M47.2 243.8l656.4-60.7" fill="none" stroke-width="1.5"/><g fill="#34983f"><circle cx="47.2" cy="243.8" r="2"/><circle cx="703.6" cy="183.1" r="2"/></g></g><g><path stroke="#ed6c2d" stroke-linecap="round" stroke-linejoin="round" d="M47.2 278.8h656.4" fill="none" stroke-width="1.5"/><g fill="#ed6c2d"><circle cx="47.2" cy="278.8" r="2"/><circle cx="703.6" cy="278.8" r="2"/></g></g><g><path stroke="#c8c8c8" stroke-linecap="round" stroke-linejoin="round" d="M47.2 403.9l656.4-122.7" fill="none" stroke-width="1.5"/><g fill="#c8c8c8"><circle cx="47.2" cy="403.9" r="2"/><circle cx="703.6" cy="281.2" r="2"/></g></g><g><path stroke="#7ec7ce" stroke-linecap="round" stroke-linejoin="round" d="M47.2 507.2l656.4 4.4" fill="none" stroke-width="1.5"/><g fill="#7ec7ce"><circle cx="47.2" cy="507.2" r="2"/><circle cx="703.6" cy="511.6" r="2"/></g></g><g><path stroke="#2a939b" stroke-linecap="round" stroke-linejoin="round" d="M47.2 392.3l656.4-84.8" fill="none" stroke-width="1.5"/><g fill="#2a939b"><circle cx="47.2" cy="392.3" r="2"/><circle cx="703.6" cy="307.5" r="2"/></g></g><g><path stroke="#ffd53e" stroke-linecap="round" stroke-linejoin="round" d="M47.2 448.8l656.4-12.2" fill="none" stroke-width="1.5"/><g fill="#ffd53e"><circle cx="47.2" cy="448.8" r="2"/><circle cx="703.6" cy="436.6" r="2"/></g></g><g><path stroke="#a652ba" stroke-linecap="round" stroke-linejoin="round" d="M47.2 247L703.6 92.2" fill="none" stroke-width="1.5"/><g fill="#a652ba"><circle cx="47.2" cy="247" r="2"/><circle cx="703.6" cy="92.2" r="2"/></g></g><g><path stroke="#ce8ebd" stroke-linecap="round" stroke-linejoin="round" d="M47.2 505.2l656.4-126" fill="none" stroke-width="1.5"/><g fill="#ce8ebd"><circle cx="47.2" cy="505.2" r="2"/><circle cx="703.6" cy="379.2" r="2"/></g></g><g><path stroke="#5eb77e" stroke-linecap="round" stroke-linejoin="round" d="M47.2 448.3l656.4 26.6" fill="none" stroke-width="1.5"/><g fill="#5eb77e"><circle cx="47.2" cy="448.3" r="2"/><circle cx="703.6" cy="474.9" r="2"/></g></g><g><path stroke="#9a5129" stroke-linecap="round" stroke-linejoin="round" d="M47.2 325.1l656.4-91.8" fill="none" stroke-width="1.5"/><g fill="#9a5129"><circle cx="47.2" cy="325.1" r="2"/><circle cx="703.6" cy="233.3" r="2"/></g></g></g></g></g><g class="SourcesFooter" fill="#777"><g fill="#777"><text font-size="12.6" x="15" y="567.9"><tspan x="15" y="567.88">Source: US Bureau of Labor Statistics (2015)</tspan></text></g><text font-size="12.6" x="15" y="582.5"><tspan x="15" y="582.48">Note: CC-BY-ND-NC</tspan></text><text font-size="12.6" x="538.9" y="567.9"><tspan x="538.9" y="567.88"><a target="_blank" href="https://tinyco.re/18031220" fill="#777">tinyco.re/18031220</a> • <a href="https://ourworldindata.org" target="_blank">Powered by ourworldindata.org</a></tspan></text></g></svg>