<svg xmlns="http://www.w3.org/2000/svg" version="1.1" style="background-color:#fff;-webkit-font-smoothing:antialiased" width="850" height="600" viewBox="0 0 850 600" font-family="Lato,'Helvetica Neue',Helvetica,Arial,sans-serif" font-size="18" text-rendering="optimizeLegibility"><g class="HeaderView"><g transform="matrix(.29 0 0 .29 774 15)"><svg className="owidLog" width="210" height="120" viewBox="0 0 210 120" fill="none" xmlns="http://www.w3.org/2000/svg"><g clip-path="url(#clip0)"><path d="M0 0h210v107.89H0V0z" fill="#002147"/><path d="M40.98 32.25c0 2.36-.38 4.53-1.12 6.51a14.26 14.26 0 01-8.1 8.4c-1.9.78-4.02 1.17-6.34 1.17a16.6 16.6 0 01-6.33-1.17 14.31 14.31 0 01-8.08-8.4 18.29 18.29 0 01-1.12-6.51c0-2.36.38-4.53 1.12-6.5.75-1.97 1.8-3.67 3.17-5.1a14.32 14.32 0 014.9-3.34c1.92-.8 4.03-1.19 6.34-1.19 2.32 0 4.43.4 6.34 1.19 1.92.8 3.56 1.9 4.93 3.34a14.87 14.87 0 013.17 5.1 18.1 18.1 0 011.12 6.5zm-4.38 0c0-1.94-.26-3.68-.8-5.22a10.91 10.91 0 00-2.24-3.89 9.68 9.68 0 00-3.52-2.46 11.95 11.95 0 00-4.62-.86c-1.68 0-3.21.28-4.6.86a9.88 9.88 0 00-3.54 2.46 10.91 10.91 0 00-2.24 3.9c-.53 1.53-.8 3.27-.8 5.2 0 1.94.27 3.68.8 5.22a11.17 11.17 0 002.24 3.9 10.01 10.01 0 003.55 2.44c1.38.56 2.9.83 4.6.83s3.24-.27 4.61-.83a9.8 9.8 0 003.52-2.44 11.17 11.17 0 002.25-3.9c.53-1.54.8-3.28.8-5.21zm26.22-6.54V48H60.5c-.56 0-.9-.27-1.05-.81l-.31-2.4a12.45 12.45 0 01-3.26 2.6c-1.2.64-2.58.96-4.13.96-1.22 0-2.3-.2-3.24-.6a6.52 6.52 0 01-2.33-1.7 7.37 7.37 0 01-1.43-2.67c-.3-1.04-.46-2.2-.46-3.45V25.7h3.91v14.22c0 1.68.38 2.99 1.15 3.91.77.93 1.96 1.39 3.54 1.39 1.16 0 2.24-.27 3.23-.82a10.42 10.42 0 002.8-2.28V25.7h3.91zm8.61 4.47a9.94 9.94 0 012.6-3.56 5.64 5.64 0 013.76-1.3c.47 0 .92.05 1.34.15.44.1.83.27 1.17.49l-.3 2.92c-.09.37-.3.55-.66.55-.2 0-.5-.04-.9-.13a6.21 6.21 0 00-3.24.18 4.23 4.23 0 00-1.47.92c-.42.4-.81.9-1.17 1.5-.33.58-.64 1.26-.92 2.02V48H67.7V25.71h2.25c.42 0 .72.08.88.25.16.16.27.44.33.83l.26 3.39zm61.16-13.7L122.75 48h-3.82l-7.99-24.05a21.95 21.95 0 01-.42-1.58 38.36 38.36 0 01-.44 1.58L102.05 48h-3.83L88.4 16.47h3.54c.38 0 .7.1.95.29.26.2.43.43.5.73l6.52 21.9.28 1.28.29 1.46.3-1.46.38-1.27 7.41-21.91c.1-.25.26-.48.51-.69.27-.22.58-.33.95-.33h1.23c.38 0 .69.1.92.29a1.77 1.77 0 01.53.73l7.4 21.9a28.4 28.4 0 01.68 2.62 29.52 29.52 0 01.52-2.61l6.54-21.91a1.31 1.31 0 01.48-.7c.27-.21.58-.32.95-.32h3.32zm9.35 8.88c1.63 0 3.1.27 4.4.82a9.43 9.43 0 015.46 5.94c.5 1.4.74 2.98.74 4.73 0 1.76-.25 3.34-.74 4.75a9.43 9.43 0 01-5.46 5.92c-1.3.52-2.77.79-4.4.79-1.64 0-3.12-.27-4.44-.8a9.42 9.42 0 01-3.35-2.3c-.92-1-1.63-2.2-2.13-3.61-.49-1.41-.73-3-.73-4.75s.24-3.33.73-4.73c.5-1.43 1.2-2.64 2.13-3.63a9.4 9.4 0 013.35-2.31c1.32-.55 2.8-.82 4.44-.82zm0 19.89c2.2 0 3.84-.73 4.93-2.2 1.08-1.48 1.63-3.54 1.63-6.18 0-2.66-.55-4.72-1.63-6.2-1.09-1.49-2.73-2.23-4.93-2.23-1.12 0-2.09.2-2.93.57a5.71 5.71 0 00-2.06 1.65 7.5 7.5 0 00-1.24 2.67c-.26 1.04-.4 2.22-.4 3.54 0 2.64.55 4.7 1.64 6.18 1.1 1.47 2.76 2.2 4.99 2.2zm17.97-15.07a9.94 9.94 0 012.6-3.56 5.64 5.64 0 013.76-1.3c.47 0 .91.05 1.34.15.44.1.83.27 1.16.49l-.28 2.92c-.09.37-.31.55-.66.55-.2 0-.5-.04-.9-.13a6.2 6.2 0 00-3.24.18 4.23 4.23 0 00-1.47.92c-.43.4-.82.9-1.17 1.5a13.1 13.1 0 00-.92 2.02V48h-3.94V25.71h2.24c.43 0 .72.08.88.25.17.16.28.44.33.83l.27 3.39zm15.04-14.59V48h-3.92V15.6h3.92zm19.55 15.43a6.22 6.22 0 00-2.38-2.05 6.7 6.7 0 00-2.86-.6c-2.07 0-3.66.75-4.77 2.23-1.12 1.48-1.68 3.6-1.68 6.33 0 1.46.13 2.7.38 3.74a7.29 7.29 0 001.1 2.56 4.35 4.35 0 001.78 1.45c.7.3 1.5.46 2.4.46 1.29 0 2.41-.3 3.36-.88a9.6 9.6 0 002.67-2.49V31.02zm3.91-15.43V48h-2.33c-.56 0-.9-.27-1.06-.81l-.35-2.71a12.13 12.13 0 01-3.25 2.77 8.28 8.28 0 01-4.23 1.06 7.31 7.31 0 01-6.14-2.9c-.73-.96-1.3-2.15-1.69-3.57a18.35 18.35 0 01.07-9.48 11.29 11.29 0 011.89-3.7 8.7 8.7 0 017.06-3.34 7.96 7.96 0 016.12 2.62V15.59h3.91zM46.61 70.71V93H42.7V70.71h3.91zm.84-7c0 .39-.08.75-.24 1.09a2.81 2.81 0 01-1.52 1.47 2.67 2.67 0 01-2.16 0 2.9 2.9 0 01-1.45-1.47 2.67 2.67 0 010-2.16c.15-.35.35-.65.6-.9.25-.27.53-.47.85-.62a2.67 2.67 0 012.16 0c.35.15.65.35.9.62.27.25.47.55.62.9.16.34.24.7.24 1.08zm7.97 10.24c.49-.54 1-1.04 1.54-1.48a9.85 9.85 0 013.66-1.84 8.96 8.96 0 015.43.35c.94.4 1.72.97 2.33 1.71a7.36 7.36 0 011.43 2.67c.32 1.04.49 2.19.49 3.45V93h-3.94V78.81c0-1.69-.4-3-1.17-3.92-.76-.93-1.93-1.4-3.5-1.4a6.6 6.6 0 00-3.25.83c-1 .56-1.92 1.31-2.77 2.27V93h-3.94V70.71h2.35c.56 0 .9.28 1.04.82l.3 2.42zm57.7 3.3c0 2.36-.37 4.5-1.11 6.44a14.3 14.3 0 01-3.17 4.98 14.1 14.1 0 01-4.93 3.2c-1.9.76-4.02 1.13-6.33 1.13H85.8V61.47h11.77c2.31 0 4.42.39 6.33 1.15a13.8 13.8 0 018.1 8.18 17.75 17.75 0 011.12 6.45zm-4.37 0c0-1.94-.26-3.67-.8-5.2a10.94 10.94 0 00-2.23-3.87 9.57 9.57 0 00-3.53-2.42 12.23 12.23 0 00-4.61-.83h-7.5v24.62h7.5c1.7 0 3.24-.28 4.61-.84a9.7 9.7 0 003.53-2.4 10.94 10.94 0 002.24-3.87c.53-1.53.8-3.26.8-5.2zm19.8 5.72c-1.8.06-3.34.2-4.62.44-1.26.22-2.3.51-3.1.88-.8.36-1.37.8-1.74 1.3-.35.5-.53 1.05-.53 1.67 0 .58.1 1.1.3 1.52a3 3 0 00.76 1.05c.34.27.73.46 1.17.6a6.13 6.13 0 001.45.17 7.28 7.28 0 003.5-.81 11.95 11.95 0 002.82-2.2v-4.62zm-12.65-9.11a12.73 12.73 0 013.98-2.66c1.43-.59 3-.88 4.73-.88 1.25 0 2.36.2 3.33.61a6.81 6.81 0 013.94 4.38c.33 1.04.5 2.19.5 3.43V93h-1.74a1.8 1.8 0 01-.88-.18c-.2-.13-.36-.38-.48-.74l-.44-2.12-1.72 1.46a9.48 9.48 0 01-3.74 1.7c-.69.15-1.46.23-2.3.23-.87 0-1.69-.12-2.45-.35a5.34 5.34 0 01-3.34-2.93 6.64 6.64 0 01-.49-2.64c0-.88.25-1.72.73-2.53a6.33 6.33 0 012.35-2.17c1.09-.63 2.5-1.15 4.25-1.54 1.75-.41 3.89-.65 6.42-.7v-1.75c0-1.73-.37-3.03-1.12-3.91-.75-.9-1.84-1.34-3.28-1.34-.97 0-1.78.12-2.44.37-.64.23-1.2.5-1.7.81l-1.23.82c-.33.23-.67.35-1 .35-.27 0-.5-.07-.69-.2a2.1 2.1 0 01-.48-.53l-.7-1.25zm27.67 19.5c-1.76 0-3.12-.5-4.07-1.48-.94-.98-1.41-2.4-1.41-4.25V74h-2.68a.9.9 0 01-.6-.2c-.16-.14-.24-.36-.24-.66v-1.56l3.65-.46.9-6.89a.9.9 0 01.29-.52.88.88 0 01.62-.22H142v7.67h6.44V74H142v13.38c0 .94.22 1.63.68 2.09.45.45 1.04.68 1.76.68a3.21 3.21 0 001.85-.53l.55-.35c.16-.12.3-.18.41-.18.2 0 .4.13.55.38l1.15 1.87a7.45 7.45 0 01-2.44 1.5 8.53 8.53 0 01-2.95.52zm19.68-10.4c-1.8.07-3.34.21-4.62.45-1.26.22-2.3.51-3.1.88-.8.36-1.37.8-1.74 1.3-.35.5-.53 1.05-.53 1.67 0 .58.1 1.1.3 1.52a2.9 2.9 0 00.76 1.05c.34.27.73.46 1.17.6a6.13 6.13 0 001.45.17 7.3 7.3 0 003.5-.81 12.04 12.04 0 002.82-2.2v-4.62zm-12.65-9.1a12.72 12.72 0 013.99-2.66c1.42-.59 3-.88 4.72-.88 1.25 0 2.36.2 3.33.61a6.81 6.81 0 013.94 4.38c.33 1.04.5 2.19.5 3.43V93h-1.74a1.8 1.8 0 01-.88-.18c-.2-.13-.36-.38-.48-.74l-.44-2.12-1.72 1.46a9.48 9.48 0 01-3.74 1.7c-.69.15-1.46.23-2.3.23-.87 0-1.69-.12-2.45-.35a5.33 5.33 0 01-3.34-2.93 6.62 6.62 0 01-.49-2.64c0-.88.25-1.72.73-2.53a6.33 6.33 0 012.35-2.17c1.09-.63 2.5-1.15 4.25-1.54a31.2 31.2 0 016.42-.7v-1.75c0-1.73-.37-3.03-1.12-3.91-.75-.9-1.84-1.34-3.28-1.34-.97 0-1.78.12-2.44.37-.64.23-1.2.5-1.7.81l-1.22.82c-.34.23-.68.35-1.02.35-.26 0-.49-.07-.68-.2a1.88 1.88 0 01-.48-.53l-.7-1.25zM40.98 32.25c0 2.36-.38 4.53-1.12 6.51a14.26 14.26 0 01-8.1 8.4c-1.9.78-4.02 1.17-6.34 1.17a16.6 16.6 0 01-6.33-1.17 14.31 14.31 0 01-8.08-8.4 18.29 18.29 0 01-1.12-6.51c0-2.36.38-4.53 1.12-6.5.75-1.97 1.8-3.67 3.17-5.1a14.32 14.32 0 014.9-3.34c1.92-.8 4.03-1.19 6.34-1.19 2.32 0 4.43.4 6.34 1.19 1.92.8 3.56 1.9 4.93 3.34a14.87 14.87 0 013.17 5.1 18.1 18.1 0 011.12 6.5zm-4.38 0c0-1.94-.26-3.68-.8-5.22a10.91 10.91 0 00-2.24-3.89 9.68 9.68 0 00-3.52-2.46 11.95 11.95 0 00-4.62-.86c-1.68 0-3.21.28-4.6.86a9.88 9.88 0 00-3.54 2.46 10.91 10.91 0 00-2.24 3.9c-.53 1.53-.8 3.27-.8 5.2 0 1.94.27 3.68.8 5.22a11.17 11.17 0 002.24 3.9 10.01 10.01 0 003.55 2.44c1.38.56 2.9.83 4.6.83s3.24-.27 4.61-.83a9.8 9.8 0 003.52-2.44 11.17 11.17 0 002.25-3.9c.53-1.54.8-3.28.8-5.21zm26.22-6.54V48H60.5c-.56 0-.9-.27-1.05-.81l-.31-2.4a12.45 12.45 0 01-3.26 2.6c-1.2.64-2.58.96-4.13.96-1.22 0-2.3-.2-3.24-.6a6.52 6.52 0 01-2.33-1.7 7.37 7.37 0 01-1.43-2.67c-.3-1.04-.46-2.2-.46-3.45V25.7h3.91v14.22c0 1.68.38 2.99 1.15 3.91.77.93 1.96 1.39 3.54 1.39 1.16 0 2.24-.27 3.23-.82a10.42 10.42 0 002.8-2.28V25.7h3.91zm8.61 4.47a9.94 9.94 0 012.6-3.56 5.64 5.64 0 013.76-1.3c.47 0 .92.05 1.34.15.44.1.83.27 1.17.49l-.3 2.92c-.09.37-.3.55-.66.55-.2 0-.5-.04-.9-.13a6.21 6.21 0 00-3.24.18 4.23 4.23 0 00-1.47.92c-.42.4-.81.9-1.17 1.5-.33.58-.64 1.26-.92 2.02V48H67.7V25.71h2.25c.42 0 .72.08.88.25.16.16.27.44.33.83l.26 3.39zm61.16-13.7L122.75 48h-3.82l-7.99-24.05a21.95 21.95 0 01-.42-1.58 38.36 38.36 0 01-.44 1.58L102.05 48h-3.83L88.4 16.47h3.54c.38 0 .7.1.95.29.26.2.43.43.5.73l6.52 21.9.28 1.28.29 1.46.3-1.46.38-1.27 7.41-21.91c.1-.25.26-.48.51-.69.27-.22.58-.33.95-.33h1.23c.38 0 .69.1.92.29a1.77 1.77 0 01.53.73l7.4 21.9a28.4 28.4 0 01.68 2.62 29.52 29.52 0 01.52-2.61l6.54-21.91a1.31 1.31 0 01.48-.7c.27-.21.58-.32.95-.32h3.32zm9.35 8.88c1.63 0 3.1.27 4.4.82a9.43 9.43 0 015.46 5.94c.5 1.4.74 2.98.74 4.73 0 1.76-.25 3.34-.74 4.75a9.43 9.43 0 01-5.46 5.92c-1.3.52-2.77.79-4.4.79-1.64 0-3.12-.27-4.44-.8a9.42 9.42 0 01-3.35-2.3c-.92-1-1.63-2.2-2.13-3.61-.49-1.41-.73-3-.73-4.75s.24-3.33.73-4.73c.5-1.43 1.2-2.64 2.13-3.63a9.4 9.4 0 013.35-2.31c1.32-.55 2.8-.82 4.44-.82zm0 19.89c2.2 0 3.84-.73 4.93-2.2 1.08-1.48 1.63-3.54 1.63-6.18 0-2.66-.55-4.72-1.63-6.2-1.09-1.49-2.73-2.23-4.93-2.23-1.12 0-2.09.2-2.93.57a5.71 5.71 0 00-2.06 1.65 7.5 7.5 0 00-1.24 2.67c-.26 1.04-.4 2.22-.4 3.54 0 2.64.55 4.7 1.64 6.18 1.1 1.47 2.76 2.2 4.99 2.2zm17.97-15.07a9.94 9.94 0 012.6-3.56 5.64 5.64 0 013.76-1.3c.47 0 .91.05 1.34.15.44.1.83.27 1.16.49l-.28 2.92c-.09.37-.31.55-.66.55-.2 0-.5-.04-.9-.13a6.2 6.2 0 00-3.24.18 4.23 4.23 0 00-1.47.92c-.43.4-.82.9-1.17 1.5a13.1 13.1 0 00-.92 2.02V48h-3.94V25.71h2.24c.43 0 .72.08.88.25.17.16.28.44.33.83l.27 3.39zm15.04-14.59V48h-3.92V15.6h3.92zm19.55 15.43a6.22 6.22 0 00-2.38-2.05 6.7 6.7 0 00-2.86-.6c-2.07 0-3.66.75-4.77 2.23-1.12 1.48-1.68 3.6-1.68 6.33 0 1.46.13 2.7.38 3.74a7.29 7.29 0 001.1 2.56 4.35 4.35 0 001.78 1.45c.7.3 1.5.46 2.4.46 1.29 0 2.41-.3 3.36-.88a9.6 9.6 0 002.67-2.49V31.02zm3.91-15.43V48h-2.33c-.56 0-.9-.27-1.06-.81l-.35-2.71a12.13 12.13 0 01-3.25 2.77 8.28 8.28 0 01-4.23 1.06 7.31 7.31 0 01-6.14-2.9c-.73-.96-1.3-2.15-1.69-3.57a18.35 18.35 0 01.07-9.48 11.29 11.29 0 011.89-3.7 8.7 8.7 0 017.06-3.34 7.96 7.96 0 016.12 2.62V15.59h3.91zM46.61 70.71V93H42.7V70.71h3.91zm.84-7c0 .39-.08.75-.24 1.09a2.81 2.81 0 01-1.52 1.47 2.67 2.67 0 01-2.16 0 2.9 2.9 0 01-1.45-1.47 2.67 2.67 0 010-2.16c.15-.35.35-.65.6-.9.25-.27.53-.47.85-.62a2.67 2.67 0 012.16 0c.35.15.65.35.9.62.27.25.47.55.62.9.16.34.24.7.24 1.08zm7.97 10.24c.49-.54 1-1.04 1.54-1.48a9.85 9.85 0 013.66-1.84 8.96 8.96 0 015.43.35c.94.4 1.72.97 2.33 1.71a7.36 7.36 0 011.43 2.67c.32 1.04.49 2.19.49 3.45V93h-3.94V78.81c0-1.69-.4-3-1.17-3.92-.76-.93-1.93-1.4-3.5-1.4a6.6 6.6 0 00-3.25.83c-1 .56-1.92 1.31-2.77 2.27V93h-3.94V70.71h2.35c.56 0 .9.28 1.04.82l.3 2.42zm57.7 3.3c0 2.36-.37 4.5-1.11 6.44a14.3 14.3 0 01-3.17 4.98 14.1 14.1 0 01-4.93 3.2c-1.9.76-4.02 1.13-6.33 1.13H85.8V61.47h11.77c2.31 0 4.42.39 6.33 1.15a13.8 13.8 0 018.1 8.18 17.75 17.75 0 011.12 6.45zm-4.37 0c0-1.94-.26-3.67-.8-5.2a10.94 10.94 0 00-2.23-3.87 9.57 9.57 0 00-3.53-2.42 12.23 12.23 0 00-4.61-.83h-7.5v24.62h7.5c1.7 0 3.24-.28 4.61-.84a9.7 9.7 0 003.53-2.4 10.94 10.94 0 002.24-3.87c.53-1.53.8-3.26.8-5.2zm19.8 5.72c-1.8.06-3.34.2-4.62.44-1.26.22-2.3.51-3.1.88-.8.36-1.37.8-1.74 1.3-.35.5-.53 1.05-.53 1.67 0 .58.1 1.1.3 1.52a3 3 0 00.76 1.05c.34.27.73.46 1.17.6a6.13 6.13 0 001.45.17 7.28 7.28 0 003.5-.81 11.95 11.95 0 002.82-2.2v-4.62zm-12.65-9.11a12.73 12.73 0 013.98-2.66c1.43-.59 3-.88 4.73-.88 1.25 0 2.36.2 3.33.61a6.81 6.81 0 013.94 4.38c.33 1.04.5 2.19.5 3.43V93h-1.74a1.8 1.8 0 01-.88-.18c-.2-.13-.36-.38-.48-.74l-.44-2.12-1.72 1.46a9.48 9.48 0 01-3.74 1.7c-.69.15-1.46.23-2.3.23-.87 0-1.69-.12-2.45-.35a5.34 5.34 0 01-3.34-2.93 6.64 6.64 0 01-.49-2.64c0-.88.25-1.72.73-2.53a6.33 6.33 0 012.35-2.17c1.09-.63 2.5-1.15 4.25-1.54 1.75-.41 3.89-.65 6.42-.7v-1.75c0-1.73-.37-3.03-1.12-3.91-.75-.9-1.84-1.34-3.28-1.34-.97 0-1.78.12-2.44.37-.64.23-1.2.5-1.7.81l-1.23.82c-.33.23-.67.35-1 .35-.27 0-.5-.07-.69-.2a2.1 2.1 0 01-.48-.53l-.7-1.25zm27.67 19.5c-1.76 0-3.12-.5-4.07-1.48-.94-.98-1.41-2.4-1.41-4.25V74h-2.68a.9.9 0 01-.6-.2c-.16-.14-.24-.36-.24-.66v-1.56l3.65-.46.9-6.89a.9.9 0 01.29-.52.88.88 0 01.62-.22H142v7.67h6.44V74H142v13.38c0 .94.22 1.63.68 2.09.45.45 1.04.68 1.76.68a3.21 3.21 0 001.85-.53l.55-.35c.16-.12.3-.18.41-.18.2 0 .4.13.55.38l1.15 1.87a7.45 7.45 0 01-2.44 1.5 8.53 8.53 0 01-2.95.52zm19.68-10.4c-1.8.07-3.34.21-4.62.45-1.26.22-2.3.51-3.1.88-.8.36-1.37.8-1.74 1.3-.35.5-.53 1.05-.53 1.67 0 .58.1 1.1.3 1.52a2.9 2.9 0 00.76 1.05c.34.27.73.46 1.17.6a6.13 6.13 0 001.45.17 7.3 7.3 0 003.5-.81 12.04 12.04 0 002.82-2.2v-4.62zm-12.65-9.1a12.72 12.72 0 013.99-2.66c1.42-.59 3-.88 4.72-.88 1.25 0 2.36.2 3.33.61a6.81 6.81 0 013.94 4.38c.33 1.04.5 2.19.5 3.43V93h-1.74a1.8 1.8 0 01-.88-.18c-.2-.13-.36-.38-.48-.74l-.44-2.12-1.72 1.46a9.48 9.48 0 01-3.74 1.7c-.69.15-1.46.23-2.3.23-.87 0-1.69-.12-2.45-.35a5.33 5.33 0 01-3.34-2.93 6.62 6.62 0 01-.49-2.64c0-.88.25-1.72.73-2.53a6.33 6.33 0 012.35-2.17c1.09-.63 2.5-1.15 4.25-1.54a31.2 31.2 0 016.42-.7v-1.75c0-1.73-.37-3.03-1.12-3.91-.75-.9-1.84-1.34-3.28-1.34-.97 0-1.78.12-2.44.37-.64.23-1.2.5-1.7.81l-1.22.82c-.34.23-.68.35-1.02.35-.26 0-.49-.07-.68-.2a1.88 1.88 0 01-.48-.53l-.7-1.25zM40.98 32.25c0 2.36-.38 4.53-1.12 6.51a14.26 14.26 0 01-8.1 8.4c-1.9.78-4.02 1.17-6.34 1.17a16.6 16.6 0 01-6.33-1.17 14.31 14.31 0 01-8.08-8.4 18.29 18.29 0 01-1.12-6.51c0-2.36.38-4.53 1.12-6.5.75-1.97 1.8-3.67 3.17-5.1a14.32 14.32 0 014.9-3.34c1.92-.8 4.03-1.19 6.34-1.19 2.32 0 4.43.4 6.34 1.19 1.92.8 3.56 1.9 4.93 3.34a14.87 14.87 0 013.17 5.1 18.1 18.1 0 011.12 6.5zm-4.38 0c0-1.94-.26-3.68-.8-5.22a10.91 10.91 0 00-2.24-3.89 9.68 9.68 0 00-3.52-2.46 11.95 11.95 0 00-4.62-.86c-1.68 0-3.21.28-4.6.86a9.88 9.88 0 00-3.54 2.46 10.91 10.91 0 00-2.24 3.9c-.53 1.53-.8 3.27-.8 5.2 0 1.94.27 3.68.8 5.22a11.17 11.17 0 002.24 3.9 10.01 10.01 0 003.55 2.44c1.38.56 2.9.83 4.6.83s3.24-.27 4.61-.83a9.8 9.8 0 003.52-2.44 11.17 11.17 0 002.25-3.9c.53-1.54.8-3.28.8-5.21zm26.22-6.54V48H60.5c-.56 0-.9-.27-1.05-.81l-.31-2.4a12.45 12.45 0 01-3.26 2.6c-1.2.64-2.58.96-4.13.96-1.22 0-2.3-.2-3.24-.6a6.52 6.52 0 01-2.33-1.7 7.37 7.37 0 01-1.43-2.67c-.3-1.04-.46-2.2-.46-3.45V25.7h3.91v14.22c0 1.68.38 2.99 1.15 3.91.77.93 1.96 1.39 3.54 1.39 1.16 0 2.24-.27 3.23-.82a10.42 10.42 0 002.8-2.28V25.7h3.91zm8.61 4.47a9.94 9.94 0 012.6-3.56 5.64 5.64 0 013.76-1.3c.47 0 .92.05 1.34.15.44.1.83.27 1.17.49l-.3 2.92c-.09.37-.3.55-.66.55-.2 0-.5-.04-.9-.13a6.21 6.21 0 00-3.24.18 4.23 4.23 0 00-1.47.92c-.42.4-.81.9-1.17 1.5-.33.58-.64 1.26-.92 2.02V48H67.7V25.71h2.25c.42 0 .72.08.88.25.16.16.27.44.33.83l.26 3.39zm61.16-13.7L122.75 48h-3.82l-7.99-24.05a21.95 21.95 0 01-.42-1.58 38.36 38.36 0 01-.44 1.58L102.05 48h-3.83L88.4 16.47h3.54c.38 0 .7.1.95.29.26.2.43.43.5.73l6.52 21.9.28 1.28.29 1.46.3-1.46.38-1.27 7.41-21.91c.1-.25.26-.48.51-.69.27-.22.58-.33.95-.33h1.23c.38 0 .69.1.92.29a1.77 1.77 0 01.53.73l7.4 21.9a28.4 28.4 0 01.68 2.62 29.52 29.52 0 01.52-2.61l6.54-21.91a1.31 1.31 0 01.48-.7c.27-.21.58-.32.95-.32h3.32zm9.35 8.88c1.63 0 3.1.27 4.4.82a9.43 9.43 0 015.46 5.94c.5 1.4.74 2.98.74 4.73 0 1.76-.25 3.34-.74 4.75a9.43 9.43 0 01-5.46 5.92c-1.3.52-2.77.79-4.4.79-1.64 0-3.12-.27-4.44-.8a9.42 9.42 0 01-3.35-2.3c-.92-1-1.63-2.2-2.13-3.61-.49-1.41-.73-3-.73-4.75s.24-3.33.73-4.73c.5-1.43 1.2-2.64 2.13-3.63a9.4 9.4 0 013.35-2.31c1.32-.55 2.8-.82 4.44-.82zm0 19.89c2.2 0 3.84-.73 4.93-2.2 1.08-1.48 1.63-3.54 1.63-6.18 0-2.66-.55-4.72-1.63-6.2-1.09-1.49-2.73-2.23-4.93-2.23-1.12 0-2.09.2-2.93.57a5.71 5.71 0 00-2.06 1.65 7.5 7.5 0 00-1.24 2.67c-.26 1.04-.4 2.22-.4 3.54 0 2.64.55 4.7 1.64 6.18 1.1 1.47 2.76 2.2 4.99 2.2zm17.97-15.07a9.94 9.94 0 012.6-3.56 5.64 5.64 0 013.76-1.3c.47 0 .91.05 1.34.15.44.1.83.27 1.16.49l-.28 2.92c-.09.37-.31.55-.66.55-.2 0-.5-.04-.9-.13a6.2 6.2 0 00-3.24.18 4.23 4.23 0 00-1.47.92c-.43.4-.82.9-1.17 1.5a13.1 13.1 0 00-.92 2.02V48h-3.94V25.71h2.24c.43 0 .72.08.88.25.17.16.28.44.33.83l.27 3.39zm15.04-14.59V48h-3.92V15.6h3.92zm19.55 15.43a6.22 6.22 0 00-2.38-2.05 6.7 6.7 0 00-2.86-.6c-2.07 0-3.66.75-4.77 2.23-1.12 1.48-1.68 3.6-1.68 6.33 0 1.46.13 2.7.38 3.74a7.29 7.29 0 001.1 2.56 4.35 4.35 0 001.78 1.45c.7.3 1.5.46 2.4.46 1.29 0 2.41-.3 3.36-.88a9.6 9.6 0 002.67-2.49V31.02zm3.91-15.43V48h-2.33c-.56 0-.9-.27-1.06-.81l-.35-2.71a12.13 12.13 0 01-3.25 2.77 8.28 8.28 0 01-4.23 1.06 7.31 7.31 0 01-6.14-2.9c-.73-.96-1.3-2.15-1.69-3.57a18.35 18.35 0 01.07-9.48 11.29 11.29 0 011.89-3.7 8.7 8.7 0 017.06-3.34 7.96 7.96 0 016.12 2.62V15.59h3.91zM46.61 70.71V93H42.7V70.71h3.91zm.84-7c0 .39-.08.75-.24 1.09a2.81 2.81 0 01-1.52 1.47 2.67 2.67 0 01-2.16 0 2.9 2.9 0 01-1.45-1.47 2.67 2.67 0 010-2.16c.15-.35.35-.65.6-.9.25-.27.53-.47.85-.62a2.67 2.67 0 012.16 0c.35.15.65.35.9.62.27.25.47.55.62.9.16.34.24.7.24 1.08zm7.97 10.24c.49-.54 1-1.04 1.54-1.48a9.85 9.85 0 013.66-1.84 8.96 8.96 0 015.43.35c.94.4 1.72.97 2.33 1.71a7.36 7.36 0 011.43 2.67c.32 1.04.49 2.19.49 3.45V93h-3.94V78.81c0-1.69-.4-3-1.17-3.92-.76-.93-1.93-1.4-3.5-1.4a6.6 6.6 0 00-3.25.83c-1 .56-1.92 1.31-2.77 2.27V93h-3.94V70.71h2.35c.56 0 .9.28 1.04.82l.3 2.42zm57.7 3.3c0 2.36-.37 4.5-1.11 6.44a14.3 14.3 0 01-3.17 4.98 14.1 14.1 0 01-4.93 3.2c-1.9.76-4.02 1.13-6.33 1.13H85.8V61.47h11.77c2.31 0 4.42.39 6.33 1.15a13.8 13.8 0 018.1 8.18 17.75 17.75 0 011.12 6.45zm-4.37 0c0-1.94-.26-3.67-.8-5.2a10.94 10.94 0 00-2.23-3.87 9.57 9.57 0 00-3.53-2.42 12.23 12.23 0 00-4.61-.83h-7.5v24.62h7.5c1.7 0 3.24-.28 4.61-.84a9.7 9.7 0 003.53-2.4 10.94 10.94 0 002.24-3.87c.53-1.53.8-3.26.8-5.2zm19.8 5.72c-1.8.06-3.34.2-4.62.44-1.26.22-2.3.51-3.1.88-.8.36-1.37.8-1.74 1.3-.35.5-.53 1.05-.53 1.67 0 .58.1 1.1.3 1.52a3 3 0 00.76 1.05c.34.27.73.46 1.17.6a6.13 6.13 0 001.45.17 7.28 7.28 0 003.5-.81 11.95 11.95 0 002.82-2.2v-4.62zm-12.65-9.11a12.73 12.73 0 013.98-2.66c1.43-.59 3-.88 4.73-.88 1.25 0 2.36.2 3.33.61a6.81 6.81 0 013.94 4.38c.33 1.04.5 2.19.5 3.43V93h-1.74a1.8 1.8 0 01-.88-.18c-.2-.13-.36-.38-.48-.74l-.44-2.12-1.72 1.46a9.48 9.48 0 01-3.74 1.7c-.69.15-1.46.23-2.3.23-.87 0-1.69-.12-2.45-.35a5.34 5.34 0 01-3.34-2.93 6.64 6.64 0 01-.49-2.64c0-.88.25-1.72.73-2.53a6.33 6.33 0 012.35-2.17c1.09-.63 2.5-1.15 4.25-1.54 1.75-.41 3.89-.65 6.42-.7v-1.75c0-1.73-.37-3.03-1.12-3.91-.75-.9-1.84-1.34-3.28-1.34-.97 0-1.78.12-2.44.37-.64.23-1.2.5-1.7.81l-1.23.82c-.33.23-.67.35-1 .35-.27 0-.5-.07-.69-.2a2.1 2.1 0 01-.48-.53l-.7-1.25zm27.67 19.5c-1.76 0-3.12-.5-4.07-1.48-.94-.98-1.41-2.4-1.41-4.25V74h-2.68a.9.9 0 01-.6-.2c-.16-.14-.24-.36-.24-.66v-1.56l3.65-.46.9-6.89a.9.9 0 01.29-.52.88.88 0 01.62-.22H142v7.67h6.44V74H142v13.38c0 .94.22 1.63.68 2.09.45.45 1.04.68 1.76.68a3.21 3.21 0 001.85-.53l.55-.35c.16-.12.3-.18.41-.18.2 0 .4.13.55.38l1.15 1.87a7.45 7.45 0 01-2.44 1.5 8.53 8.53 0 01-2.95.52zm19.68-10.4c-1.8.07-3.34.21-4.62.45-1.26.22-2.3.51-3.1.88-.8.36-1.37.8-1.74 1.3-.35.5-.53 1.05-.53 1.67 0 .58.1 1.1.3 1.52a2.9 2.9 0 00.76 1.05c.34.27.73.46 1.17.6a6.13 6.13 0 001.45.17 7.3 7.3 0 003.5-.81 12.04 12.04 0 002.82-2.2v-4.62zm-12.65-9.1a12.72 12.72 0 013.99-2.66c1.42-.59 3-.88 4.72-.88 1.25 0 2.36.2 3.33.61a6.81 6.81 0 013.94 4.38c.33 1.04.5 2.19.5 3.43V93h-1.74a1.8 1.8 0 01-.88-.18c-.2-.13-.36-.38-.48-.74l-.44-2.12-1.72 1.46a9.48 9.48 0 01-3.74 1.7c-.69.15-1.46.23-2.3.23-.87 0-1.69-.12-2.45-.35a5.33 5.33 0 01-3.34-2.93 6.62 6.62 0 01-.49-2.64c0-.88.25-1.72.73-2.53a6.33 6.33 0 012.35-2.17c1.09-.63 2.5-1.15 4.25-1.54a31.2 31.2 0 016.42-.7v-1.75c0-1.73-.37-3.03-1.12-3.91-.75-.9-1.84-1.34-3.28-1.34-.97 0-1.78.12-2.44.37-.64.23-1.2.5-1.7.81l-1.22.82c-.34.23-.68.35-1.02.35-.26 0-.49-.07-.68-.2a1.88 1.88 0 01-.48-.53l-.7-1.25z" fill="#fff"/><path fill="#D42B21" d="M0 106.79h210V120H0z"/></g><defs><clipPath id="clip0"><path fill="#fff" d="M0 0h210v120H0z"/></clipPath></defs></svg></g><a href="https://ourworldindata.org/grapher/mean-seawater-ph?country=~Hawaii" target="_blank" rel="noopener" font-family="&quot;Playfair Display&quot;,Georgia,&quot;Times New Roman&quot;,serif"><text font-size="25.2" x="15" y="35.2" fill="#555"><tspan x="15" y="35.16">Mean seawater pH</tspan></text></a><text font-size="14.4" x="15" y="55.7" fill="#666"><tspan x="15" y="55.72">Mean seawater pH is shown based on calculations of oceanic pH from the Aloha station time series.</tspan></text></g><g class="LineChart"><defs><clipPath id="a"><path d="M41.75 66.6h840v490.8h-840z"/></clipPath></defs><g class="DualAxisView"><g class="HorizontalAxis"><path stroke="#999" d="M51.8 526.2v5M759.5 526.2v5M263.6 526.2v5M388.1 526.2v5M512.6 526.2v5"/><text x="51.75" y="547.4" fill="#666" text-anchor="start" font-size="16.2">Oct 31, 1988</text><text x="759.5" y="547.4" fill="#666" text-anchor="end" font-size="16.2">Dec 19, 2019</text><text x="263.6" y="547.4" fill="#666" text-anchor="middle" font-size="16.2">Feb 25, 1998</text><text x="388.1" y="547.4" fill="#666" text-anchor="middle" font-size="16.2">Aug 18, 2003</text><text x="512.6" y="547.4" fill="#666" text-anchor="middle" font-size="16.2">Feb 7, 2009</text></g><g class="VerticalAxis" text-anchor="end" fill="#666" font-size="16.2"><text x="46.75" y="526.2" dy=".32em">8</text><text x="46.75" y="470" dy=".32em">8.02</text><text x="46.75" y="413.8" dy=".32em">8.04</text><text x="46.75" y="357.6" dy=".32em">8.06</text><text x="46.75" y="301.4" dy=".32em">8.08</text><text x="46.75" y="245.2" dy=".32em">8.1</text><text x="46.75" y="189" dy=".32em">8.12</text><text x="46.75" y="132.8" dy=".32em">8.14</text><text x="46.75" y="76.6" dy=".32em">8.16</text></g><g class="AxisGridLines horizontalLines" stroke="#ddd" stroke-dasharray="3,2"><path d="M51.75 526.2H759.5M51.75 470H759.5M51.75 413.8H759.5M51.75 357.6H759.5M51.75 301.4H759.5M51.75 245.2H759.5M51.75 189H759.5M51.75 132.8H759.5M51.75 76.6H759.5"/></g></g><g clip-path="url(#a)"><g class="LineLabels" cursor="default"><g class="legendMark"><text font-size="13.5" x="763.5" y="367.3" fill="#3C4E66"><tspan x="763.5" y="367.25">Hawaii</tspan></text></g></g><g class="Lines"><g><path stroke-linecap="round" stroke-linejoin="round" stroke="#ddd" d="M51.8 217.9l1.9 1.4L56 198l3.1-41.6 1.8 27.5 3.2 16.9 2.3 39.3 2.2 7.6 1.6 17.2L72 248l1.7 37.1 2.5-68.3 2.4-64.9 2.5 29 2-31.2 1.6 31.2 1.6 17.4 2.2-18.3 2.6 41.6 3.2 65.7 5.9-101.7 2.9-12.3 2-2 2.1 9 1.8 24.4 1.7 1.4 2.2 5.4 1.9 35.9 2.4 13.8 2.1-10.7 2.9-16.5 1.8-38.5 2.6-22.2 1.2 18.5 2.6 25.6 3.3-14.9 1.6 49.2 2 5.9 3 6.4 1.7 17.7 2.2-51.1 1.3-30.6 2.2-52.9 1.8 6.8 3.5 70.5 2.3-8.7 7.2 85.1 2.8-38.7 5.1-159.6 1.8 42.4 1.2 43 6.4 51.4 2.2 45.8 2.3-7 1.5 2.2 1.3-1.4 2.2-47.2 4.9-14.3 1.6-20.3 2.1 37.4 1.9-31.2 5.3 59.6 1.8 1.1 1.8 13.2 1.9-31.2 1.3-38.7 3.8 17.1 4.4-13.5 1.7 15.8 1.7 33.7 2.2 12.3 1.9 3.7 1.6 16.9 2.6-2 1.8-24.7 2.6-25.3 1.7-24.8 2.6 69.2 1.3-79.3 1.8-4.8 1.7 40.8 1.8-13.5 2.1 45.8 1.5 1.4 3.4 23.9 4.4-78.1 2.3-4 2.4-10.6 1.7 25.5 1.8-9.5 1.7 7.8 2.2 31.8 1.7 37.1 1.7-3.7 3 16.3 1.3-16.3 1.4-1.9 1.8-34.6 2.2 14.9 2.2-28.7 1.7-99.1 1.7 33.7 1.6 64.6 4.1 17.4 1.9 50.3 3.9 13.5 1.5-31.7 2.3 1.6 3.1-41.5 1.7 5.6 1.7 1.1 1.8.3 1.8 74.2 1.6-43.3 2.2-11.5 1.8 12.6 3.4 41.9 2.7-76.5 1.3 7.9 1.7-1.9 1.8 13.4 2.1-3.6 1.8-12.4 1.7-2.8 1.8-10.1 1.7 35.7 1.7 28.1 3.5 21.6 1.3-57.6 1.5 20 1.7-31.2 2.1-9.6 2.2-34 1.3-1.4 4.2 77 2.5 28.4 3.7 1.1 2.5-43.8 1.7-4h1.3l1.5-17.1 1.8-24.7 2.5-4.2 2 6.7 1.6 14.9 1.7 16.3 1.8 22.8 1.9 13.2 2-14.6 3.4-12.4 1.6-3.1 2.5-70.3 2.1 47 2.1-36.3 1.5-41.6 2 72 1.7 30.9 1.8 7.3 1.6 42.4 2.2-2.5 2.7 1.4 2-36.8 1.7-17.4 1.5-26.5 2.6 8.2 2-28.7 4.6 46.7 1.7 25.3 2 40.7 1.8-24.4 1.6 42.1 1.8-49.4 2.2-18.6 1.9-12.6 2.7-69.4 1.3 51.1 1.4-36.8 1.4 12.4 3.5 39 1.1 71.7 1.8-44.4 1.7 22.7 2.3-13.2 2.2 25.6 1.2-26.1 1.9-38.2 3.7-39.1 2.6 20.8 2.8 46.4 4 49.7 1.7-8.2 1.8 12.4 1.9-6.5 3.7-10.9 1.2-50 2.5-28.4h1.6l5.8 73.9 1.8-11.5 2 28.1 1.3-26.4 3.4-19.7 3.2-4.8 3.1-50.6 1.8-24.7 4.3 52.3 1.8 57.6 2.3 4.7 1.3 25.9 1.6-8.4 2.3 20.5 2.5-35.4 2.2-37.7 5.6-47.2 1.8.3 2.6 36.2 1.3 42.5 1.9-4.2 1.8-23.1 1.7 26.4 1.9 11.3 3-18 4.3-49.5 1.9-7.6 2.6 9.3 1.8 24.7 4.4 28.4 2.5-5.9 1.8 20.3 2.4-8.2 1.5-36 1.3-2.5 1.9-18.3 4.1-8.1 2.3 32.6 1.8 18 1.7 17.1 2.2 28.4 1.1 18 1.7 6.2 1.4-30.9 3.6-31 4.4-34.8 1.4-5.3 1.8 5 2.6 70.5 2.5-2.8L617 386l1.3-37.7 1.6 19.7 1.9-47.8 1.5-25.5 1.6 1.9 1.8-19.9 1.2 23 2.3-14.3 3.1 29.8 1.9 42.4 4.7 51.4 1.8-27.8 2.5-54.2 1.5-9.9 4.4-10.4 2 1.4 1.5-12.9 2 16.3 1.6 51.7 1.9 43.9 1.5-31.5 3.9-29 1.9-8.7 1.5-11.5 2.2-30.1 1.8 1.2 1.7-5.1 2.3 14.9 2.7 38.5 2.8 17.1 1.8 2.6 4.2 5.9 2.6-35.2 3.6-7.3 1.9-11.2 2.1-9.3 1.7 34.6 1.8 5 1.7 34.6 3 4.8 3.7-6.5 2.1-29.5 2.1-53.1 4.7 2.3 3.1-3.7 1.8 16.3 2.6 61 1.7-2 3 40.8 2-48.7 2.2-8.9 3.7-27 2.2-14.1 4.5 45.5 2.5 43.3 1.2 2.3 2 10.9 2.1 33.5 2.6-62.4 3.9-24.2" fill="none" stroke-width="1"/></g><g><path stroke="#3C4E66" stroke-linecap="round" stroke-linejoin="round" d="M51.8 217.9l1.9 1.4L56 198l3.1-41.6 1.8 27.5 3.2 16.9 2.3 39.3 2.2 7.6 1.6 17.2L72 248l1.7 37.1 2.5-68.3 2.4-64.9 2.5 29 2-31.2 1.6 31.2 1.6 17.4 2.2-18.3 2.6 41.6 3.2 65.7 5.9-101.7 2.9-12.3 2-2 2.1 9 1.8 24.4 1.7 1.4 2.2 5.4 1.9 35.9 2.4 13.8 2.1-10.7 2.9-16.5 1.8-38.5 2.6-22.2 1.2 18.5 2.6 25.6 3.3-14.9 1.6 49.2 2 5.9 3 6.4 1.7 17.7 2.2-51.1 1.3-30.6 2.2-52.9 1.8 6.8 3.5 70.5 2.3-8.7 7.2 85.1 2.8-38.7 5.1-159.6 1.8 42.4 1.2 43 6.4 51.4 2.2 45.8 2.3-7 1.5 2.2 1.3-1.4 2.2-47.2 4.9-14.3 1.6-20.3 2.1 37.4 1.9-31.2 5.3 59.6 1.8 1.1 1.8 13.2 1.9-31.2 1.3-38.7 3.8 17.1 4.4-13.5 1.7 15.8 1.7 33.7 2.2 12.3 1.9 3.7 1.6 16.9 2.6-2 1.8-24.7 2.6-25.3 1.7-24.8 2.6 69.2 1.3-79.3 1.8-4.8 1.7 40.8 1.8-13.5 2.1 45.8 1.5 1.4 3.4 23.9 4.4-78.1 2.3-4 2.4-10.6 1.7 25.5 1.8-9.5 1.7 7.8 2.2 31.8 1.7 37.1 1.7-3.7 3 16.3 1.3-16.3 1.4-1.9 1.8-34.6 2.2 14.9 2.2-28.7 1.7-99.1 1.7 33.7 1.6 64.6 4.1 17.4 1.9 50.3 3.9 13.5 1.5-31.7 2.3 1.6 3.1-41.5 1.7 5.6 1.7 1.1 1.8.3 1.8 74.2 1.6-43.3 2.2-11.5 1.8 12.6 3.4 41.9 2.7-76.5 1.3 7.9 1.7-1.9 1.8 13.4 2.1-3.6 1.8-12.4 1.7-2.8 1.8-10.1 1.7 35.7 1.7 28.1 3.5 21.6 1.3-57.6 1.5 20 1.7-31.2 2.1-9.6 2.2-34 1.3-1.4 4.2 77 2.5 28.4 3.7 1.1 2.5-43.8 1.7-4h1.3l1.5-17.1 1.8-24.7 2.5-4.2 2 6.7 1.6 14.9 1.7 16.3 1.8 22.8 1.9 13.2 2-14.6 3.4-12.4 1.6-3.1 2.5-70.3 2.1 47 2.1-36.3 1.5-41.6 2 72 1.7 30.9 1.8 7.3 1.6 42.4 2.2-2.5 2.7 1.4 2-36.8 1.7-17.4 1.5-26.5 2.6 8.2 2-28.7 4.6 46.7 1.7 25.3 2 40.7 1.8-24.4 1.6 42.1 1.8-49.4 2.2-18.6 1.9-12.6 2.7-69.4 1.3 51.1 1.4-36.8 1.4 12.4 3.5 39 1.1 71.7 1.8-44.4 1.7 22.7 2.3-13.2 2.2 25.6 1.2-26.1 1.9-38.2 3.7-39.1 2.6 20.8 2.8 46.4 4 49.7 1.7-8.2 1.8 12.4 1.9-6.5 3.7-10.9 1.2-50 2.5-28.4h1.6l5.8 73.9 1.8-11.5 2 28.1 1.3-26.4 3.4-19.7 3.2-4.8 3.1-50.6 1.8-24.7 4.3 52.3 1.8 57.6 2.3 4.7 1.3 25.9 1.6-8.4 2.3 20.5 2.5-35.4 2.2-37.7 5.6-47.2 1.8.3 2.6 36.2 1.3 42.5 1.9-4.2 1.8-23.1 1.7 26.4 1.9 11.3 3-18 4.3-49.5 1.9-7.6 2.6 9.3 1.8 24.7 4.4 28.4 2.5-5.9 1.8 20.3 2.4-8.2 1.5-36 1.3-2.5 1.9-18.3 4.1-8.1 2.3 32.6 1.8 18 1.7 17.1 2.2 28.4 1.1 18 1.7 6.2 1.4-30.9 3.6-31 4.4-34.8 1.4-5.3 1.8 5 2.6 70.5 2.5-2.8L617 386l1.3-37.7 1.6 19.7 1.9-47.8 1.5-25.5 1.6 1.9 1.8-19.9 1.2 23 2.3-14.3 3.1 29.8 1.9 42.4 4.7 51.4 1.8-27.8 2.5-54.2 1.5-9.9 4.4-10.4 2 1.4 1.5-12.9 2 16.3 1.6 51.7 1.9 43.9 1.5-31.5 3.9-29 1.9-8.7 1.5-11.5 2.2-30.1 1.8 1.2 1.7-5.1 2.3 14.9 2.7 38.5 2.8 17.1 1.8 2.6 4.2 5.9 2.6-35.2 3.6-7.3 1.9-11.2 2.1-9.3 1.7 34.6 1.8 5 1.7 34.6 3 4.8 3.7-6.5 2.1-29.5 2.1-53.1 4.7 2.3 3.1-3.7 1.8 16.3 2.6 61 1.7-2 3 40.8 2-48.7 2.2-8.9 3.7-27 2.2-14.1 4.5 45.5 2.5 43.3 1.2 2.3 2 10.9 2.1 33.5 2.6-62.4 3.9-24.2" fill="none" stroke-width="1.5"/><g fill="#3C4E66"><circle cx="51.8" cy="217.9" r="2"/><circle cx="53.7" cy="219.3" r="2"/><circle cx="56" cy="198" r="2"/><circle cx="59.1" cy="156.4" r="2"/><circle cx="60.9" cy="183.9" r="2"/><circle cx="64.1" cy="200.8" r="2"/><circle cx="66.4" cy="240.1" r="2"/><circle cx="68.6" cy="247.7" r="2"/><circle cx="70.2" cy="264.9" r="2"/><circle cx="72" cy="248" r="2"/><circle cx="73.7" cy="285.1" r="2"/><circle cx="76.2" cy="216.8" r="2"/><circle cx="78.6" cy="151.9" r="2"/><circle cx="81.1" cy="180.9" r="2"/><circle cx="83.1" cy="149.7" r="2"/><circle cx="84.7" cy="180.9" r="2"/><circle cx="86.3" cy="198.3" r="2"/><circle cx="88.5" cy="180" r="2"/><circle cx="91.1" cy="221.6" r="2"/><circle cx="94.3" cy="287.3" r="2"/><circle cx="100.2" cy="185.6" r="2"/><circle cx="103.1" cy="173.3" r="2"/><circle cx="105.1" cy="171.3" r="2"/><circle cx="107.2" cy="180.3" r="2"/><circle cx="109" cy="204.7" r="2"/><circle cx="110.7" cy="206.1" r="2"/><circle cx="112.9" cy="211.5" r="2"/><circle cx="114.8" cy="247.4" r="2"/><circle cx="117.2" cy="261.2" r="2"/><circle cx="119.3" cy="250.5" r="2"/><circle cx="122.2" cy="234" r="2"/><circle cx="124" cy="195.5" r="2"/><circle cx="126.6" cy="173.3" r="2"/><circle cx="127.8" cy="191.8" r="2"/><circle cx="130.4" cy="217.4" r="2"/><circle cx="133.7" cy="202.5" r="2"/><circle cx="135.3" cy="251.7" r="2"/><circle cx="137.3" cy="257.6" r="2"/><circle cx="140.3" cy="264" r="2"/><circle cx="142" cy="281.7" r="2"/><circle cx="144.2" cy="230.6" r="2"/><circle cx="145.5" cy="200" r="2"/><circle cx="147.7" cy="147.1" r="2"/><circle cx="149.5" cy="153.9" r="2"/><circle cx="153" cy="224.4" r="2"/><circle cx="155.3" cy="215.7" r="2"/><circle cx="162.5" cy="300.8" r="2"/><circle cx="165.3" cy="262.1" r="2"/><circle cx="170.4" cy="102.5" r="2"/><circle cx="172.2" cy="144.9" r="2"/><circle cx="173.4" cy="187.9" r="2"/><circle cx="179.8" cy="239.3" r="2"/><circle cx="182" cy="285.1" r="2"/><circle cx="184.3" cy="278.1" r="2"/><circle cx="185.8" cy="280.3" r="2"/><circle cx="187.1" cy="278.9" r="2"/><circle cx="189.3" cy="231.7" r="2"/><circle cx="194.2" cy="217.4" r="2"/><circle cx="195.8" cy="197.1" r="2"/><circle cx="197.9" cy="234.5" r="2"/><circle cx="199.8" cy="203.3" r="2"/><circle cx="205.1" cy="262.9" r="2"/><circle cx="206.9" cy="264" r="2"/><circle cx="208.7" cy="277.2" r="2"/><circle cx="210.6" cy="246" r="2"/><circle cx="211.9" cy="207.3" r="2"/><circle cx="215.7" cy="224.4" r="2"/><circle cx="220.1" cy="210.9" r="2"/><circle cx="221.8" cy="226.7" r="2"/><circle cx="223.5" cy="260.4" r="2"/><circle cx="225.7" cy="272.7" r="2"/><circle cx="227.6" cy="276.4" r="2"/><circle cx="229.2" cy="293.3" r="2"/><circle cx="231.8" cy="291.3" r="2"/><circle cx="233.6" cy="266.6" r="2"/><circle cx="236.2" cy="241.3" r="2"/><circle cx="237.9" cy="216.5" r="2"/><circle cx="240.5" cy="285.7" r="2"/><circle cx="241.8" cy="206.4" r="2"/><circle cx="243.6" cy="201.6" r="2"/><circle cx="245.3" cy="242.4" r="2"/><circle cx="247.1" cy="228.9" r="2"/><circle cx="249.2" cy="274.7" r="2"/><circle cx="250.7" cy="276.1" r="2"/><circle cx="254.1" cy="300" r="2"/><circle cx="258.5" cy="221.9" r="2"/><circle cx="260.8" cy="217.9" r="2"/><circle cx="263.2" cy="207.3" r="2"/><circle cx="264.9" cy="232.8" r="2"/><circle cx="266.7" cy="223.3" r="2"/><circle cx="268.4" cy="231.1" r="2"/><circle cx="270.6" cy="262.9" r="2"/><circle cx="272.3" cy="300" r="2"/><circle cx="274" cy="296.3" r="2"/><circle cx="277" cy="312.6" r="2"/><circle cx="278.3" cy="296.3" r="2"/><circle cx="279.7" cy="294.4" r="2"/><circle cx="281.5" cy="259.8" r="2"/><circle cx="283.7" cy="274.7" r="2"/><circle cx="285.9" cy="246" r="2"/><circle cx="287.6" cy="146.9" r="2"/><circle cx="289.3" cy="180.6" r="2"/><circle cx="290.9" cy="245.2" r="2"/><circle cx="295" cy="262.6" r="2"/><circle cx="296.9" cy="312.9" r="2"/><circle cx="300.8" cy="326.4" r="2"/><circle cx="302.3" cy="294.7" r="2"/><circle cx="304.6" cy="296.3" r="2"/><circle cx="307.7" cy="254.8" r="2"/><circle cx="309.4" cy="260.4" r="2"/><circle cx="311.1" cy="261.5" r="2"/><circle cx="312.9" cy="261.8" r="2"/><circle cx="314.7" cy="336" r="2"/><circle cx="316.3" cy="292.7" r="2"/><circle cx="318.5" cy="281.2" r="2"/><circle cx="320.3" cy="293.8" r="2"/><circle cx="323.7" cy="335.7" r="2"/><circle cx="326.4" cy="259.2" r="2"/><circle cx="327.7" cy="267.1" r="2"/><circle cx="329.4" cy="265.2" r="2"/><circle cx="331.2" cy="278.6" r="2"/><circle cx="333.3" cy="275" r="2"/><circle cx="335.1" cy="262.6" r="2"/><circle cx="336.8" cy="259.8" r="2"/><circle cx="338.6" cy="249.7" r="2"/><circle cx="340.3" cy="285.4" r="2"/><circle cx="342" cy="313.5" r="2"/><circle cx="345.5" cy="335.1" r="2"/><circle cx="346.8" cy="277.5" r="2"/><circle cx="348.3" cy="297.5" r="2"/><circle cx="350" cy="266.3" r="2"/><circle cx="352.1" cy="256.7" r="2"/><circle cx="354.3" cy="222.7" r="2"/><circle cx="355.6" cy="221.3" r="2"/><circle cx="359.8" cy="298.3" r="2"/><circle cx="362.3" cy="326.7" r="2"/><circle cx="366" cy="327.8" r="2"/><circle cx="368.5" cy="284" r="2"/><circle cx="370.2" cy="280" r="2"/><circle cx="371.5" cy="280" r="2"/><circle cx="373" cy="262.9" r="2"/><circle cx="374.8" cy="238.2" r="2"/><circle cx="377.3" cy="234" r="2"/><circle cx="379.3" cy="240.7" r="2"/><circle cx="380.9" cy="255.6" r="2"/><circle cx="382.6" cy="271.9" r="2"/><circle cx="384.4" cy="294.7" r="2"/><circle cx="386.3" cy="307.9" r="2"/><circle cx="388.3" cy="293.3" r="2"/><circle cx="391.7" cy="280.9" r="2"/><circle cx="393.3" cy="277.8" r="2"/><circle cx="395.8" cy="207.5" r="2"/><circle cx="397.9" cy="254.5" r="2"/><circle cx="400" cy="218.2" r="2"/><circle cx="401.5" cy="176.6" r="2"/><circle cx="403.5" cy="248.6" r="2"/><circle cx="405.2" cy="279.5" r="2"/><circle cx="407" cy="286.8" r="2"/><circle cx="408.6" cy="329.2" r="2"/><circle cx="410.8" cy="326.7" r="2"/><circle cx="413.5" cy="328.1" r="2"/><circle cx="415.5" cy="291.3" r="2"/><circle cx="417.2" cy="273.9" r="2"/><circle cx="418.7" cy="247.4" r="2"/><circle cx="421.3" cy="255.6" r="2"/><circle cx="423.3" cy="226.9" r="2"/><circle cx="427.9" cy="273.6" r="2"/><circle cx="429.6" cy="298.9" r="2"/><circle cx="431.6" cy="339.6" r="2"/><circle cx="433.4" cy="315.2" r="2"/><circle cx="435" cy="357.3" r="2"/><circle cx="436.8" cy="307.9" r="2"/><circle cx="439" cy="289.3" r="2"/><circle cx="440.9" cy="276.7" r="2"/><circle cx="443.6" cy="207.3" r="2"/><circle cx="444.9" cy="258.4" r="2"/><circle cx="446.3" cy="221.6" r="2"/><circle cx="447.7" cy="234" r="2"/><circle cx="451.2" cy="273" r="2"/><circle cx="452.3" cy="344.7" r="2"/><circle cx="454.1" cy="300.3" r="2"/><circle cx="455.8" cy="323" r="2"/><circle cx="458.1" cy="309.8" r="2"/><circle cx="460.3" cy="335.4" r="2"/><circle cx="461.5" cy="309.3" r="2"/><circle cx="463.4" cy="271.1" r="2"/><circle cx="467.1" cy="232" r="2"/><circle cx="469.7" cy="252.8" r="2"/><circle cx="472.5" cy="299.2" r="2"/><circle cx="476.5" cy="348.9" r="2"/><circle cx="478.2" cy="340.7" r="2"/><circle cx="480" cy="353.1" r="2"/><circle cx="481.9" cy="346.6" r="2"/><circle cx="485.6" cy="335.7" r="2"/><circle cx="486.8" cy="285.7" r="2"/><circle cx="489.3" cy="257.3" r="2"/><circle cx="490.9" cy="257.3" r="2"/><circle cx="496.7" cy="331.2" r="2"/><circle cx="498.5" cy="319.7" r="2"/><circle cx="500.5" cy="347.8" r="2"/><circle cx="501.8" cy="321.4" r="2"/><circle cx="505.2" cy="301.7" r="2"/><circle cx="508.4" cy="296.9" r="2"/><circle cx="511.5" cy="246.3" r="2"/><circle cx="513.3" cy="221.6" r="2"/><circle cx="517.6" cy="273.9" r="2"/><circle cx="519.4" cy="331.5" r="2"/><circle cx="521.7" cy="336.2" r="2"/><circle cx="523" cy="362.1" r="2"/><circle cx="524.6" cy="353.7" r="2"/><circle cx="526.9" cy="374.2" r="2"/><circle cx="529.4" cy="338.8" r="2"/><circle cx="531.6" cy="301.1" r="2"/><circle cx="537.2" cy="253.9" r="2"/><circle cx="539" cy="254.2" r="2"/><circle cx="541.6" cy="290.4" r="2"/><circle cx="542.9" cy="332.9" r="2"/><circle cx="544.8" cy="328.7" r="2"/><circle cx="546.6" cy="305.6" r="2"/><circle cx="548.3" cy="332" r="2"/><circle cx="550.2" cy="343.3" r="2"/><circle cx="553.2" cy="325.3" r="2"/><circle cx="557.5" cy="275.8" r="2"/><circle cx="559.4" cy="268.2" r="2"/><circle cx="562" cy="277.5" r="2"/><circle cx="563.8" cy="302.2" r="2"/><circle cx="568.2" cy="330.6" r="2"/><circle cx="570.7" cy="324.7" r="2"/><circle cx="572.5" cy="345" r="2"/><circle cx="574.9" cy="336.8" r="2"/><circle cx="576.4" cy="300.8" r="2"/><circle cx="577.7" cy="298.3" r="2"/><circle cx="579.6" cy="280" r="2"/><circle cx="583.7" cy="271.9" r="2"/><circle cx="586" cy="304.5" r="2"/><circle cx="587.8" cy="322.5" r="2"/><circle cx="589.5" cy="339.6" r="2"/><circle cx="591.7" cy="368" r="2"/><circle cx="592.8" cy="386" r="2"/><circle cx="594.5" cy="392.2" r="2"/><circle cx="595.9" cy="361.3" r="2"/><circle cx="599.5" cy="330.3" r="2"/><circle cx="603.9" cy="295.5" r="2"/><circle cx="605.3" cy="290.2" r="2"/><circle cx="607.1" cy="295.2" r="2"/><circle cx="609.7" cy="365.7" r="2"/><circle cx="612.2" cy="362.9" r="2"/><circle cx="617" cy="386" r="2"/><circle cx="618.3" cy="348.3" r="2"/><circle cx="619.9" cy="368" r="2"/><circle cx="621.8" cy="320.2" r="2"/><circle cx="623.3" cy="294.7" r="2"/><circle cx="624.9" cy="296.6" r="2"/><circle cx="626.7" cy="276.7" r="2"/><circle cx="627.9" cy="299.7" r="2"/><circle cx="630.2" cy="285.4" r="2"/><circle cx="633.3" cy="315.2" r="2"/><circle cx="635.2" cy="357.6" r="2"/><circle cx="639.9" cy="409" r="2"/><circle cx="641.7" cy="381.2" r="2"/><circle cx="644.2" cy="327" r="2"/><circle cx="645.7" cy="317.1" r="2"/><circle cx="650.1" cy="306.7" r="2"/><circle cx="652.1" cy="308.1" r="2"/><circle cx="653.6" cy="295.2" r="2"/><circle cx="655.6" cy="311.5" r="2"/><circle cx="657.2" cy="363.2" r="2"/><circle cx="659.1" cy="407.1" r="2"/><circle cx="660.6" cy="375.6" r="2"/><circle cx="664.5" cy="346.6" r="2"/><circle cx="666.4" cy="337.9" r="2"/><circle cx="667.9" cy="326.4" r="2"/><circle cx="670.1" cy="296.3" r="2"/><circle cx="671.9" cy="297.5" r="2"/><circle cx="673.6" cy="292.4" r="2"/><circle cx="675.9" cy="307.3" r="2"/><circle cx="678.6" cy="345.8" r="2"/><circle cx="681.4" cy="362.9" r="2"/><circle cx="683.2" cy="365.5" r="2"/><circle cx="687.4" cy="371.4" r="2"/><circle cx="690" cy="336.2" r="2"/><circle cx="693.6" cy="328.9" r="2"/><circle cx="695.5" cy="317.7" r="2"/><circle cx="697.6" cy="308.4" r="2"/><circle cx="699.3" cy="343" r="2"/><circle cx="701.1" cy="348" r="2"/><circle cx="702.8" cy="382.6" r="2"/><circle cx="705.8" cy="387.4" r="2"/><circle cx="709.5" cy="380.9" r="2"/><circle cx="711.6" cy="351.4" r="2"/><circle cx="713.7" cy="298.3" r="2"/><circle cx="718.4" cy="300.6" r="2"/><circle cx="721.5" cy="296.9" r="2"/><circle cx="723.3" cy="313.2" r="2"/><circle cx="725.9" cy="374.2" r="2"/><circle cx="727.6" cy="372.2" r="2"/><circle cx="730.6" cy="413" r="2"/><circle cx="732.6" cy="364.3" r="2"/><circle cx="734.8" cy="355.4" r="2"/><circle cx="738.5" cy="328.4" r="2"/><circle cx="740.7" cy="314.3" r="2"/><circle cx="745.2" cy="359.8" r="2"/><circle cx="747.7" cy="403.1" r="2"/><circle cx="748.9" cy="405.4" r="2"/><circle cx="750.9" cy="416.3" r="2"/><circle cx="753" cy="449.8" r="2"/><circle cx="755.6" cy="387.4" r="2"/><circle cx="759.5" cy="363.2" r="2"/></g></g></g></g></g><g class="SourcesFooter" fill="#777"><g fill="#777"><text font-size="12.6" x="15" y="582.5"><tspan x="15" y="582.48">Source: University of Hawaii</tspan></text></g><text font-size="12.6" x="580.9" y="582.5"><tspan x="580.86" y="582.48"><a target="_blank" href="https://ourworldindata.org/climate-change" fill="#777">OurWorldInData.org/climate-change</a> • <a class="cclogo" href="http://creativecommons.org/licenses/by/4.0/deed.en_US" target="_blank" fill="#777">CC BY</a></tspan></text></g></svg>