<svg xmlns="http://www.w3.org/2000/svg" version="1.1" style="font-family:Lato,'Helvetica Neue',Helvetica,Arial,sans-serif;font-size:18px;background-color:#fff;text-rendering:geometricPrecision;-webkit-font-smoothing:antialiased" width="850" height="600" viewBox="0 0 850 600"><g class="HeaderView"><g transform="matrix(.29 0 0 .29 774 15)"><svg className="owidLog" width="210" height="120" viewBox="0 0 210 120" fill="none" xmlns="http://www.w3.org/2000/svg"><g clip-path="url(#a)"><path d="M0 0h210v107.89H0V0z" fill="#002147"/><path d="M40.98 32.25c0 2.36-.38 4.53-1.12 6.51a14.26 14.26 0 0 1-8.1 8.4c-1.9.78-4.02 1.17-6.34 1.17a16.6 16.6 0 0 1-6.33-1.17 14.31 14.31 0 0 1-8.08-8.4 18.29 18.29 0 0 1-1.12-6.51c0-2.36.38-4.53 1.12-6.5.75-1.97 1.8-3.67 3.17-5.1a14.32 14.32 0 0 1 4.9-3.34c1.92-.8 4.03-1.19 6.34-1.19 2.32 0 4.43.4 6.34 1.19 1.92.8 3.56 1.9 4.93 3.34a14.87 14.87 0 0 1 3.17 5.1 18.1 18.1 0 0 1 1.12 6.5zm-4.38 0c0-1.94-.26-3.68-.8-5.22a10.91 10.91 0 0 0-2.24-3.89 9.68 9.68 0 0 0-3.52-2.46 11.95 11.95 0 0 0-4.62-.86c-1.68 0-3.21.28-4.6.86a9.88 9.88 0 0 0-3.54 2.46 10.91 10.91 0 0 0-2.24 3.9c-.53 1.53-.8 3.27-.8 5.2 0 1.94.27 3.68.8 5.22a11.17 11.17 0 0 0 2.24 3.9 10.01 10.01 0 0 0 3.55 2.44c1.38.56 2.9.83 4.6.83s3.24-.27 4.61-.83a9.8 9.8 0 0 0 3.52-2.44 11.17 11.17 0 0 0 2.25-3.9c.53-1.54.8-3.28.8-5.21zm26.22-6.54V48H60.5c-.56 0-.9-.27-1.05-.81l-.31-2.4a12.45 12.45 0 0 1-3.26 2.6c-1.2.64-2.58.96-4.13.96-1.22 0-2.3-.2-3.24-.6a6.52 6.52 0 0 1-2.33-1.7 7.37 7.37 0 0 1-1.43-2.67c-.3-1.04-.46-2.2-.46-3.45V25.7h3.91v14.22c0 1.68.38 2.99 1.15 3.91.77.93 1.96 1.39 3.54 1.39 1.16 0 2.24-.27 3.23-.82a10.42 10.42 0 0 0 2.8-2.28V25.7h3.91zm8.61 4.47a9.94 9.94 0 0 1 2.6-3.56 5.64 5.64 0 0 1 3.76-1.3c.47 0 .92.05 1.34.15.44.1.83.27 1.17.49l-.3 2.92c-.09.37-.3.55-.66.55-.2 0-.5-.04-.9-.13a6.21 6.21 0 0 0-3.24.18 4.23 4.23 0 0 0-1.47.92c-.42.4-.81.9-1.17 1.5-.33.58-.64 1.26-.92 2.02V48H67.7V25.71h2.25c.42 0 .72.08.88.25.16.16.27.44.33.83l.26 3.39zm61.16-13.7L122.75 48h-3.82l-7.99-24.05a21.95 21.95 0 0 1-.42-1.58 38.36 38.36 0 0 1-.44 1.58L102.05 48h-3.83L88.4 16.47h3.54c.38 0 .7.1.95.29.26.2.43.43.5.73l6.52 21.9.28 1.28.29 1.46.3-1.46.38-1.27 7.41-21.91c.1-.25.26-.48.51-.69.27-.22.58-.33.95-.33h1.23c.38 0 .69.1.92.29a1.77 1.77 0 0 1 .53.73l7.4 21.9a28.4 28.4 0 0 1 .68 2.62 29.52 29.52 0 0 1 .52-2.61l6.54-21.91a1.31 1.31 0 0 1 .48-.7c.27-.21.58-.32.95-.32h3.32zm9.35 8.88c1.63 0 3.1.27 4.4.82a9.43 9.43 0 0 1 5.46 5.94c.5 1.4.74 2.98.74 4.73 0 1.76-.25 3.34-.74 4.75a9.43 9.43 0 0 1-5.46 5.92c-1.3.52-2.77.79-4.4.79-1.64 0-3.12-.27-4.44-.8a9.42 9.42 0 0 1-3.35-2.3c-.92-1-1.63-2.2-2.13-3.61-.49-1.41-.73-3-.73-4.75s.24-3.33.73-4.73c.5-1.43 1.2-2.64 2.13-3.63a9.4 9.4 0 0 1 3.35-2.31c1.32-.55 2.8-.82 4.44-.82zm0 19.89c2.2 0 3.84-.73 4.93-2.2 1.08-1.48 1.63-3.54 1.63-6.18 0-2.66-.55-4.72-1.63-6.2-1.09-1.49-2.73-2.23-4.93-2.23-1.12 0-2.09.2-2.93.57a5.71 5.71 0 0 0-2.06 1.65 7.5 7.5 0 0 0-1.24 2.67c-.26 1.04-.4 2.22-.4 3.54 0 2.64.55 4.7 1.64 6.18 1.1 1.47 2.76 2.2 4.99 2.2zm17.97-15.07a9.94 9.94 0 0 1 2.6-3.56 5.64 5.64 0 0 1 3.76-1.3c.47 0 .91.05 1.34.15.44.1.83.27 1.16.49l-.28 2.92c-.09.37-.31.55-.66.55-.2 0-.5-.04-.9-.13a6.2 6.2 0 0 0-3.24.18 4.23 4.23 0 0 0-1.47.92c-.43.4-.82.9-1.17 1.5a13.1 13.1 0 0 0-.92 2.02V48h-3.94V25.71h2.24c.43 0 .72.08.88.25.17.16.28.44.33.83l.27 3.39zm15.04-14.59V48h-3.92V15.6h3.92zm19.55 15.43a6.22 6.22 0 0 0-2.38-2.05 6.7 6.7 0 0 0-2.86-.6c-2.07 0-3.66.75-4.77 2.23-1.12 1.48-1.68 3.6-1.68 6.33 0 1.46.13 2.7.38 3.74a7.29 7.29 0 0 0 1.1 2.56 4.35 4.35 0 0 0 1.78 1.45c.7.3 1.5.46 2.4.46 1.29 0 2.41-.3 3.36-.88a9.6 9.6 0 0 0 2.67-2.49V31.02zm3.91-15.43V48h-2.33c-.56 0-.9-.27-1.06-.81l-.35-2.71a12.13 12.13 0 0 1-3.25 2.77 8.28 8.28 0 0 1-4.23 1.06 7.31 7.31 0 0 1-6.14-2.9c-.73-.96-1.3-2.15-1.69-3.57a18.35 18.35 0 0 1 .07-9.48 11.29 11.29 0 0 1 1.89-3.7 8.7 8.7 0 0 1 7.06-3.34 7.96 7.96 0 0 1 6.12 2.62V15.59h3.91zM46.61 70.71V93H42.7V70.71h3.91zm.84-7c0 .39-.08.75-.24 1.09a2.81 2.81 0 0 1-1.52 1.47 2.67 2.67 0 0 1-2.16 0 2.9 2.9 0 0 1-1.45-1.47 2.67 2.67 0 0 1 0-2.16c.15-.35.35-.65.6-.9.25-.27.53-.47.85-.62a2.67 2.67 0 0 1 2.16 0c.35.15.65.35.9.62.27.25.47.55.62.9.16.34.24.7.24 1.08zm7.97 10.24c.49-.54 1-1.04 1.54-1.48a9.85 9.85 0 0 1 3.66-1.84 8.96 8.96 0 0 1 5.43.35c.94.4 1.72.97 2.33 1.71a7.36 7.36 0 0 1 1.43 2.67c.32 1.04.49 2.19.49 3.45V93h-3.94V78.81c0-1.69-.4-3-1.17-3.92-.76-.93-1.93-1.4-3.5-1.4a6.6 6.6 0 0 0-3.25.83c-1 .56-1.92 1.31-2.77 2.27V93h-3.94V70.71h2.35c.56 0 .9.28 1.04.82l.3 2.42zm57.7 3.3c0 2.36-.37 4.5-1.11 6.44a14.3 14.3 0 0 1-3.17 4.98 14.1 14.1 0 0 1-4.93 3.2c-1.9.76-4.02 1.13-6.33 1.13H85.8V61.47h11.77c2.31 0 4.42.39 6.33 1.15a13.8 13.8 0 0 1 8.1 8.18 17.75 17.75 0 0 1 1.12 6.45zm-4.37 0c0-1.94-.26-3.67-.8-5.2a10.94 10.94 0 0 0-2.23-3.87 9.57 9.57 0 0 0-3.53-2.42 12.23 12.23 0 0 0-4.61-.83h-7.5v24.62h7.5c1.7 0 3.24-.28 4.61-.84a9.7 9.7 0 0 0 3.53-2.4 10.94 10.94 0 0 0 2.24-3.87c.53-1.53.8-3.26.8-5.2zm19.8 5.72c-1.8.06-3.34.2-4.62.44-1.26.22-2.3.51-3.1.88-.8.36-1.37.8-1.74 1.3-.35.5-.53 1.05-.53 1.67 0 .58.1 1.1.3 1.52a3 3 0 0 0 .76 1.05c.34.27.73.46 1.17.6a6.13 6.13 0 0 0 1.45.17 7.28 7.28 0 0 0 3.5-.81 11.95 11.95 0 0 0 2.82-2.2v-4.62zm-12.65-9.11a12.73 12.73 0 0 1 3.98-2.66c1.43-.59 3-.88 4.73-.88 1.25 0 2.36.2 3.33.61a6.81 6.81 0 0 1 3.94 4.38c.33 1.04.5 2.19.5 3.43V93h-1.74a1.8 1.8 0 0 1-.88-.18c-.2-.13-.36-.38-.48-.74l-.44-2.12-1.72 1.46a9.48 9.48 0 0 1-3.74 1.7c-.69.15-1.46.23-2.3.23-.87 0-1.69-.12-2.45-.35a5.34 5.34 0 0 1-3.34-2.93 6.64 6.64 0 0 1-.49-2.64c0-.88.25-1.72.73-2.53a6.33 6.33 0 0 1 2.35-2.17c1.09-.63 2.5-1.15 4.25-1.54 1.75-.41 3.89-.65 6.42-.7v-1.75c0-1.73-.37-3.03-1.12-3.91-.75-.9-1.84-1.34-3.28-1.34-.97 0-1.78.12-2.44.37-.64.23-1.2.5-1.7.81l-1.23.82c-.33.23-.67.35-1 .35-.27 0-.5-.07-.69-.2a2.1 2.1 0 0 1-.48-.53l-.7-1.25zm27.67 19.5c-1.76 0-3.12-.5-4.07-1.48-.94-.98-1.41-2.4-1.41-4.25V74h-2.68a.9.9 0 0 1-.6-.2c-.16-.14-.24-.36-.24-.66v-1.56l3.65-.46.9-6.89a.9.9 0 0 1 .29-.52.88.88 0 0 1 .62-.22H142v7.67h6.44V74H142v13.38c0 .94.22 1.63.68 2.09.45.45 1.04.68 1.76.68a3.21 3.21 0 0 0 1.85-.53l.55-.35c.16-.12.3-.18.41-.18.2 0 .4.13.55.38l1.15 1.87a7.45 7.45 0 0 1-2.44 1.5 8.53 8.53 0 0 1-2.95.52zm19.68-10.4c-1.8.07-3.34.21-4.62.45-1.26.22-2.3.51-3.1.88-.8.36-1.37.8-1.74 1.3-.35.5-.53 1.05-.53 1.67 0 .58.1 1.1.3 1.52a2.9 2.9 0 0 0 .76 1.05c.34.27.73.46 1.17.6a6.13 6.13 0 0 0 1.45.17 7.3 7.3 0 0 0 3.5-.81 12.04 12.04 0 0 0 2.82-2.2v-4.62zm-12.65-9.1a12.72 12.72 0 0 1 3.99-2.66c1.42-.59 3-.88 4.72-.88 1.25 0 2.36.2 3.33.61a6.81 6.81 0 0 1 3.94 4.38c.33 1.04.5 2.19.5 3.43V93h-1.74a1.8 1.8 0 0 1-.88-.18c-.2-.13-.36-.38-.48-.74l-.44-2.12-1.72 1.46a9.48 9.48 0 0 1-3.74 1.7c-.69.15-1.46.23-2.3.23-.87 0-1.69-.12-2.45-.35a5.33 5.33 0 0 1-3.34-2.93 6.62 6.62 0 0 1-.49-2.64c0-.88.25-1.72.73-2.53a6.33 6.33 0 0 1 2.35-2.17c1.09-.63 2.5-1.15 4.25-1.54a31.2 31.2 0 0 1 6.42-.7v-1.75c0-1.73-.37-3.03-1.12-3.91-.75-.9-1.84-1.34-3.28-1.34-.97 0-1.78.12-2.44.37-.64.23-1.2.5-1.7.81l-1.22.82c-.34.23-.68.35-1.02.35-.26 0-.49-.07-.68-.2a1.88 1.88 0 0 1-.48-.53l-.7-1.25zM40.98 32.25c0 2.36-.38 4.53-1.12 6.51a14.26 14.26 0 0 1-8.1 8.4c-1.9.78-4.02 1.17-6.34 1.17a16.6 16.6 0 0 1-6.33-1.17 14.31 14.31 0 0 1-8.08-8.4 18.29 18.29 0 0 1-1.12-6.51c0-2.36.38-4.53 1.12-6.5.75-1.97 1.8-3.67 3.17-5.1a14.32 14.32 0 0 1 4.9-3.34c1.92-.8 4.03-1.19 6.34-1.19 2.32 0 4.43.4 6.34 1.19 1.92.8 3.56 1.9 4.93 3.34a14.87 14.87 0 0 1 3.17 5.1 18.1 18.1 0 0 1 1.12 6.5zm-4.38 0c0-1.94-.26-3.68-.8-5.22a10.91 10.91 0 0 0-2.24-3.89 9.68 9.68 0 0 0-3.52-2.46 11.95 11.95 0 0 0-4.62-.86c-1.68 0-3.21.28-4.6.86a9.88 9.88 0 0 0-3.54 2.46 10.91 10.91 0 0 0-2.24 3.9c-.53 1.53-.8 3.27-.8 5.2 0 1.94.27 3.68.8 5.22a11.17 11.17 0 0 0 2.24 3.9 10.01 10.01 0 0 0 3.55 2.44c1.38.56 2.9.83 4.6.83s3.24-.27 4.61-.83a9.8 9.8 0 0 0 3.52-2.44 11.17 11.17 0 0 0 2.25-3.9c.53-1.54.8-3.28.8-5.21zm26.22-6.54V48H60.5c-.56 0-.9-.27-1.05-.81l-.31-2.4a12.45 12.45 0 0 1-3.26 2.6c-1.2.64-2.58.96-4.13.96-1.22 0-2.3-.2-3.24-.6a6.52 6.52 0 0 1-2.33-1.7 7.37 7.37 0 0 1-1.43-2.67c-.3-1.04-.46-2.2-.46-3.45V25.7h3.91v14.22c0 1.68.38 2.99 1.15 3.91.77.93 1.96 1.39 3.54 1.39 1.16 0 2.24-.27 3.23-.82a10.42 10.42 0 0 0 2.8-2.28V25.7h3.91zm8.61 4.47a9.94 9.94 0 0 1 2.6-3.56 5.64 5.64 0 0 1 3.76-1.3c.47 0 .92.05 1.34.15.44.1.83.27 1.17.49l-.3 2.92c-.09.37-.3.55-.66.55-.2 0-.5-.04-.9-.13a6.21 6.21 0 0 0-3.24.18 4.23 4.23 0 0 0-1.47.92c-.42.4-.81.9-1.17 1.5-.33.58-.64 1.26-.92 2.02V48H67.7V25.71h2.25c.42 0 .72.08.88.25.16.16.27.44.33.83l.26 3.39zm61.16-13.7L122.75 48h-3.82l-7.99-24.05a21.95 21.95 0 0 1-.42-1.58 38.36 38.36 0 0 1-.44 1.58L102.05 48h-3.83L88.4 16.47h3.54c.38 0 .7.1.95.29.26.2.43.43.5.73l6.52 21.9.28 1.28.29 1.46.3-1.46.38-1.27 7.41-21.91c.1-.25.26-.48.51-.69.27-.22.58-.33.95-.33h1.23c.38 0 .69.1.92.29a1.77 1.77 0 0 1 .53.73l7.4 21.9a28.4 28.4 0 0 1 .68 2.62 29.52 29.52 0 0 1 .52-2.61l6.54-21.91a1.31 1.31 0 0 1 .48-.7c.27-.21.58-.32.95-.32h3.32zm9.35 8.88c1.63 0 3.1.27 4.4.82a9.43 9.43 0 0 1 5.46 5.94c.5 1.4.74 2.98.74 4.73 0 1.76-.25 3.34-.74 4.75a9.43 9.43 0 0 1-5.46 5.92c-1.3.52-2.77.79-4.4.79-1.64 0-3.12-.27-4.44-.8a9.42 9.42 0 0 1-3.35-2.3c-.92-1-1.63-2.2-2.13-3.61-.49-1.41-.73-3-.73-4.75s.24-3.33.73-4.73c.5-1.43 1.2-2.64 2.13-3.63a9.4 9.4 0 0 1 3.35-2.31c1.32-.55 2.8-.82 4.44-.82zm0 19.89c2.2 0 3.84-.73 4.93-2.2 1.08-1.48 1.63-3.54 1.63-6.18 0-2.66-.55-4.72-1.63-6.2-1.09-1.49-2.73-2.23-4.93-2.23-1.12 0-2.09.2-2.93.57a5.71 5.71 0 0 0-2.06 1.65 7.5 7.5 0 0 0-1.24 2.67c-.26 1.04-.4 2.22-.4 3.54 0 2.64.55 4.7 1.64 6.18 1.1 1.47 2.76 2.2 4.99 2.2zm17.97-15.07a9.94 9.94 0 0 1 2.6-3.56 5.64 5.64 0 0 1 3.76-1.3c.47 0 .91.05 1.34.15.44.1.83.27 1.16.49l-.28 2.92c-.09.37-.31.55-.66.55-.2 0-.5-.04-.9-.13a6.2 6.2 0 0 0-3.24.18 4.23 4.23 0 0 0-1.47.92c-.43.4-.82.9-1.17 1.5a13.1 13.1 0 0 0-.92 2.02V48h-3.94V25.71h2.24c.43 0 .72.08.88.25.17.16.28.44.33.83l.27 3.39zm15.04-14.59V48h-3.92V15.6h3.92zm19.55 15.43a6.22 6.22 0 0 0-2.38-2.05 6.7 6.7 0 0 0-2.86-.6c-2.07 0-3.66.75-4.77 2.23-1.12 1.48-1.68 3.6-1.68 6.33 0 1.46.13 2.7.38 3.74a7.29 7.29 0 0 0 1.1 2.56 4.35 4.35 0 0 0 1.78 1.45c.7.3 1.5.46 2.4.46 1.29 0 2.41-.3 3.36-.88a9.6 9.6 0 0 0 2.67-2.49V31.02zm3.91-15.43V48h-2.33c-.56 0-.9-.27-1.06-.81l-.35-2.71a12.13 12.13 0 0 1-3.25 2.77 8.28 8.28 0 0 1-4.23 1.06 7.31 7.31 0 0 1-6.14-2.9c-.73-.96-1.3-2.15-1.69-3.57a18.35 18.35 0 0 1 .07-9.48 11.29 11.29 0 0 1 1.89-3.7 8.7 8.7 0 0 1 7.06-3.34 7.96 7.96 0 0 1 6.12 2.62V15.59h3.91zM46.61 70.71V93H42.7V70.71h3.91zm.84-7c0 .39-.08.75-.24 1.09a2.81 2.81 0 0 1-1.52 1.47 2.67 2.67 0 0 1-2.16 0 2.9 2.9 0 0 1-1.45-1.47 2.67 2.67 0 0 1 0-2.16c.15-.35.35-.65.6-.9.25-.27.53-.47.85-.62a2.67 2.67 0 0 1 2.16 0c.35.15.65.35.9.62.27.25.47.55.62.9.16.34.24.7.24 1.08zm7.97 10.24c.49-.54 1-1.04 1.54-1.48a9.85 9.85 0 0 1 3.66-1.84 8.96 8.96 0 0 1 5.43.35c.94.4 1.72.97 2.33 1.71a7.36 7.36 0 0 1 1.43 2.67c.32 1.04.49 2.19.49 3.45V93h-3.94V78.81c0-1.69-.4-3-1.17-3.92-.76-.93-1.93-1.4-3.5-1.4a6.6 6.6 0 0 0-3.25.83c-1 .56-1.92 1.31-2.77 2.27V93h-3.94V70.71h2.35c.56 0 .9.28 1.04.82l.3 2.42zm57.7 3.3c0 2.36-.37 4.5-1.11 6.44a14.3 14.3 0 0 1-3.17 4.98 14.1 14.1 0 0 1-4.93 3.2c-1.9.76-4.02 1.13-6.33 1.13H85.8V61.47h11.77c2.31 0 4.42.39 6.33 1.15a13.8 13.8 0 0 1 8.1 8.18 17.75 17.75 0 0 1 1.12 6.45zm-4.37 0c0-1.94-.26-3.67-.8-5.2a10.94 10.94 0 0 0-2.23-3.87 9.57 9.57 0 0 0-3.53-2.42 12.23 12.23 0 0 0-4.61-.83h-7.5v24.62h7.5c1.7 0 3.24-.28 4.61-.84a9.7 9.7 0 0 0 3.53-2.4 10.94 10.94 0 0 0 2.24-3.87c.53-1.53.8-3.26.8-5.2zm19.8 5.72c-1.8.06-3.34.2-4.62.44-1.26.22-2.3.51-3.1.88-.8.36-1.37.8-1.74 1.3-.35.5-.53 1.05-.53 1.67 0 .58.1 1.1.3 1.52a3 3 0 0 0 .76 1.05c.34.27.73.46 1.17.6a6.13 6.13 0 0 0 1.45.17 7.28 7.28 0 0 0 3.5-.81 11.95 11.95 0 0 0 2.82-2.2v-4.62zm-12.65-9.11a12.73 12.73 0 0 1 3.98-2.66c1.43-.59 3-.88 4.73-.88 1.25 0 2.36.2 3.33.61a6.81 6.81 0 0 1 3.94 4.38c.33 1.04.5 2.19.5 3.43V93h-1.74a1.8 1.8 0 0 1-.88-.18c-.2-.13-.36-.38-.48-.74l-.44-2.12-1.72 1.46a9.48 9.48 0 0 1-3.74 1.7c-.69.15-1.46.23-2.3.23-.87 0-1.69-.12-2.45-.35a5.34 5.34 0 0 1-3.34-2.93 6.64 6.64 0 0 1-.49-2.64c0-.88.25-1.72.73-2.53a6.33 6.33 0 0 1 2.35-2.17c1.09-.63 2.5-1.15 4.25-1.54 1.75-.41 3.89-.65 6.42-.7v-1.75c0-1.73-.37-3.03-1.12-3.91-.75-.9-1.84-1.34-3.28-1.34-.97 0-1.78.12-2.44.37-.64.23-1.2.5-1.7.81l-1.23.82c-.33.23-.67.35-1 .35-.27 0-.5-.07-.69-.2a2.1 2.1 0 0 1-.48-.53l-.7-1.25zm27.67 19.5c-1.76 0-3.12-.5-4.07-1.48-.94-.98-1.41-2.4-1.41-4.25V74h-2.68a.9.9 0 0 1-.6-.2c-.16-.14-.24-.36-.24-.66v-1.56l3.65-.46.9-6.89a.9.9 0 0 1 .29-.52.88.88 0 0 1 .62-.22H142v7.67h6.44V74H142v13.38c0 .94.22 1.63.68 2.09.45.45 1.04.68 1.76.68a3.21 3.21 0 0 0 1.85-.53l.55-.35c.16-.12.3-.18.41-.18.2 0 .4.13.55.38l1.15 1.87a7.45 7.45 0 0 1-2.44 1.5 8.53 8.53 0 0 1-2.95.52zm19.68-10.4c-1.8.07-3.34.21-4.62.45-1.26.22-2.3.51-3.1.88-.8.36-1.37.8-1.74 1.3-.35.5-.53 1.05-.53 1.67 0 .58.1 1.1.3 1.52a2.9 2.9 0 0 0 .76 1.05c.34.27.73.46 1.17.6a6.13 6.13 0 0 0 1.45.17 7.3 7.3 0 0 0 3.5-.81 12.04 12.04 0 0 0 2.82-2.2v-4.62zm-12.65-9.1a12.72 12.72 0 0 1 3.99-2.66c1.42-.59 3-.88 4.72-.88 1.25 0 2.36.2 3.33.61a6.81 6.81 0 0 1 3.94 4.38c.33 1.04.5 2.19.5 3.43V93h-1.74a1.8 1.8 0 0 1-.88-.18c-.2-.13-.36-.38-.48-.74l-.44-2.12-1.72 1.46a9.48 9.48 0 0 1-3.74 1.7c-.69.15-1.46.23-2.3.23-.87 0-1.69-.12-2.45-.35a5.33 5.33 0 0 1-3.34-2.93 6.62 6.62 0 0 1-.49-2.64c0-.88.25-1.72.73-2.53a6.33 6.33 0 0 1 2.35-2.17c1.09-.63 2.5-1.15 4.25-1.54a31.2 31.2 0 0 1 6.42-.7v-1.75c0-1.73-.37-3.03-1.12-3.91-.75-.9-1.84-1.34-3.28-1.34-.97 0-1.78.12-2.44.37-.64.23-1.2.5-1.7.81l-1.22.82c-.34.23-.68.35-1.02.35-.26 0-.49-.07-.68-.2a1.88 1.88 0 0 1-.48-.53l-.7-1.25zM40.98 32.25c0 2.36-.38 4.53-1.12 6.51a14.26 14.26 0 0 1-8.1 8.4c-1.9.78-4.02 1.17-6.34 1.17a16.6 16.6 0 0 1-6.33-1.17 14.31 14.31 0 0 1-8.08-8.4 18.29 18.29 0 0 1-1.12-6.51c0-2.36.38-4.53 1.12-6.5.75-1.97 1.8-3.67 3.17-5.1a14.32 14.32 0 0 1 4.9-3.34c1.92-.8 4.03-1.19 6.34-1.19 2.32 0 4.43.4 6.34 1.19 1.92.8 3.56 1.9 4.93 3.34a14.87 14.87 0 0 1 3.17 5.1 18.1 18.1 0 0 1 1.12 6.5zm-4.38 0c0-1.94-.26-3.68-.8-5.22a10.91 10.91 0 0 0-2.24-3.89 9.68 9.68 0 0 0-3.52-2.46 11.95 11.95 0 0 0-4.62-.86c-1.68 0-3.21.28-4.6.86a9.88 9.88 0 0 0-3.54 2.46 10.91 10.91 0 0 0-2.24 3.9c-.53 1.53-.8 3.27-.8 5.2 0 1.94.27 3.68.8 5.22a11.17 11.17 0 0 0 2.24 3.9 10.01 10.01 0 0 0 3.55 2.44c1.38.56 2.9.83 4.6.83s3.24-.27 4.61-.83a9.8 9.8 0 0 0 3.52-2.44 11.17 11.17 0 0 0 2.25-3.9c.53-1.54.8-3.28.8-5.21zm26.22-6.54V48H60.5c-.56 0-.9-.27-1.05-.81l-.31-2.4a12.45 12.45 0 0 1-3.26 2.6c-1.2.64-2.58.96-4.13.96-1.22 0-2.3-.2-3.24-.6a6.52 6.52 0 0 1-2.33-1.7 7.37 7.37 0 0 1-1.43-2.67c-.3-1.04-.46-2.2-.46-3.45V25.7h3.91v14.22c0 1.68.38 2.99 1.15 3.91.77.93 1.96 1.39 3.54 1.39 1.16 0 2.24-.27 3.23-.82a10.42 10.42 0 0 0 2.8-2.28V25.7h3.91zm8.61 4.47a9.94 9.94 0 0 1 2.6-3.56 5.64 5.64 0 0 1 3.76-1.3c.47 0 .92.05 1.34.15.44.1.83.27 1.17.49l-.3 2.92c-.09.37-.3.55-.66.55-.2 0-.5-.04-.9-.13a6.21 6.21 0 0 0-3.24.18 4.23 4.23 0 0 0-1.47.92c-.42.4-.81.9-1.17 1.5-.33.58-.64 1.26-.92 2.02V48H67.7V25.71h2.25c.42 0 .72.08.88.25.16.16.27.44.33.83l.26 3.39zm61.16-13.7L122.75 48h-3.82l-7.99-24.05a21.95 21.95 0 0 1-.42-1.58 38.36 38.36 0 0 1-.44 1.58L102.05 48h-3.83L88.4 16.47h3.54c.38 0 .7.1.95.29.26.2.43.43.5.73l6.52 21.9.28 1.28.29 1.46.3-1.46.38-1.27 7.41-21.91c.1-.25.26-.48.51-.69.27-.22.58-.33.95-.33h1.23c.38 0 .69.1.92.29a1.77 1.77 0 0 1 .53.73l7.4 21.9a28.4 28.4 0 0 1 .68 2.62 29.52 29.52 0 0 1 .52-2.61l6.54-21.91a1.31 1.31 0 0 1 .48-.7c.27-.21.58-.32.95-.32h3.32zm9.35 8.88c1.63 0 3.1.27 4.4.82a9.43 9.43 0 0 1 5.46 5.94c.5 1.4.74 2.98.74 4.73 0 1.76-.25 3.34-.74 4.75a9.43 9.43 0 0 1-5.46 5.92c-1.3.52-2.77.79-4.4.79-1.64 0-3.12-.27-4.44-.8a9.42 9.42 0 0 1-3.35-2.3c-.92-1-1.63-2.2-2.13-3.61-.49-1.41-.73-3-.73-4.75s.24-3.33.73-4.73c.5-1.43 1.2-2.64 2.13-3.63a9.4 9.4 0 0 1 3.35-2.31c1.32-.55 2.8-.82 4.44-.82zm0 19.89c2.2 0 3.84-.73 4.93-2.2 1.08-1.48 1.63-3.54 1.63-6.18 0-2.66-.55-4.72-1.63-6.2-1.09-1.49-2.73-2.23-4.93-2.23-1.12 0-2.09.2-2.93.57a5.71 5.71 0 0 0-2.06 1.65 7.5 7.5 0 0 0-1.24 2.67c-.26 1.04-.4 2.22-.4 3.54 0 2.64.55 4.7 1.64 6.18 1.1 1.47 2.76 2.2 4.99 2.2zm17.97-15.07a9.94 9.94 0 0 1 2.6-3.56 5.64 5.64 0 0 1 3.76-1.3c.47 0 .91.05 1.34.15.44.1.83.27 1.16.49l-.28 2.92c-.09.37-.31.55-.66.55-.2 0-.5-.04-.9-.13a6.2 6.2 0 0 0-3.24.18 4.23 4.23 0 0 0-1.47.92c-.43.4-.82.9-1.17 1.5a13.1 13.1 0 0 0-.92 2.02V48h-3.94V25.71h2.24c.43 0 .72.08.88.25.17.16.28.44.33.83l.27 3.39zm15.04-14.59V48h-3.92V15.6h3.92zm19.55 15.43a6.22 6.22 0 0 0-2.38-2.05 6.7 6.7 0 0 0-2.86-.6c-2.07 0-3.66.75-4.77 2.23-1.12 1.48-1.68 3.6-1.68 6.33 0 1.46.13 2.7.38 3.74a7.29 7.29 0 0 0 1.1 2.56 4.35 4.35 0 0 0 1.78 1.45c.7.3 1.5.46 2.4.46 1.29 0 2.41-.3 3.36-.88a9.6 9.6 0 0 0 2.67-2.49V31.02zm3.91-15.43V48h-2.33c-.56 0-.9-.27-1.06-.81l-.35-2.71a12.13 12.13 0 0 1-3.25 2.77 8.28 8.28 0 0 1-4.23 1.06 7.31 7.31 0 0 1-6.14-2.9c-.73-.96-1.3-2.15-1.69-3.57a18.35 18.35 0 0 1 .07-9.48 11.29 11.29 0 0 1 1.89-3.7 8.7 8.7 0 0 1 7.06-3.34 7.96 7.96 0 0 1 6.12 2.62V15.59h3.91zM46.61 70.71V93H42.7V70.71h3.91zm.84-7c0 .39-.08.75-.24 1.09a2.81 2.81 0 0 1-1.52 1.47 2.67 2.67 0 0 1-2.16 0 2.9 2.9 0 0 1-1.45-1.47 2.67 2.67 0 0 1 0-2.16c.15-.35.35-.65.6-.9.25-.27.53-.47.85-.62a2.67 2.67 0 0 1 2.16 0c.35.15.65.35.9.62.27.25.47.55.62.9.16.34.24.7.24 1.08zm7.97 10.24c.49-.54 1-1.04 1.54-1.48a9.85 9.85 0 0 1 3.66-1.84 8.96 8.96 0 0 1 5.43.35c.94.4 1.72.97 2.33 1.71a7.36 7.36 0 0 1 1.43 2.67c.32 1.04.49 2.19.49 3.45V93h-3.94V78.81c0-1.69-.4-3-1.17-3.92-.76-.93-1.93-1.4-3.5-1.4a6.6 6.6 0 0 0-3.25.83c-1 .56-1.92 1.31-2.77 2.27V93h-3.94V70.71h2.35c.56 0 .9.28 1.04.82l.3 2.42zm57.7 3.3c0 2.36-.37 4.5-1.11 6.44a14.3 14.3 0 0 1-3.17 4.98 14.1 14.1 0 0 1-4.93 3.2c-1.9.76-4.02 1.13-6.33 1.13H85.8V61.47h11.77c2.31 0 4.42.39 6.33 1.15a13.8 13.8 0 0 1 8.1 8.18 17.75 17.75 0 0 1 1.12 6.45zm-4.37 0c0-1.94-.26-3.67-.8-5.2a10.94 10.94 0 0 0-2.23-3.87 9.57 9.57 0 0 0-3.53-2.42 12.23 12.23 0 0 0-4.61-.83h-7.5v24.62h7.5c1.7 0 3.24-.28 4.61-.84a9.7 9.7 0 0 0 3.53-2.4 10.94 10.94 0 0 0 2.24-3.87c.53-1.53.8-3.26.8-5.2zm19.8 5.72c-1.8.06-3.34.2-4.62.44-1.26.22-2.3.51-3.1.88-.8.36-1.37.8-1.74 1.3-.35.5-.53 1.05-.53 1.67 0 .58.1 1.1.3 1.52a3 3 0 0 0 .76 1.05c.34.27.73.46 1.17.6a6.13 6.13 0 0 0 1.45.17 7.28 7.28 0 0 0 3.5-.81 11.95 11.95 0 0 0 2.82-2.2v-4.62zm-12.65-9.11a12.73 12.73 0 0 1 3.98-2.66c1.43-.59 3-.88 4.73-.88 1.25 0 2.36.2 3.33.61a6.81 6.81 0 0 1 3.94 4.38c.33 1.04.5 2.19.5 3.43V93h-1.74a1.8 1.8 0 0 1-.88-.18c-.2-.13-.36-.38-.48-.74l-.44-2.12-1.72 1.46a9.48 9.48 0 0 1-3.74 1.7c-.69.15-1.46.23-2.3.23-.87 0-1.69-.12-2.45-.35a5.34 5.34 0 0 1-3.34-2.93 6.64 6.64 0 0 1-.49-2.64c0-.88.25-1.72.73-2.53a6.33 6.33 0 0 1 2.35-2.17c1.09-.63 2.5-1.15 4.25-1.54 1.75-.41 3.89-.65 6.42-.7v-1.75c0-1.73-.37-3.03-1.12-3.91-.75-.9-1.84-1.34-3.28-1.34-.97 0-1.78.12-2.44.37-.64.23-1.2.5-1.7.81l-1.23.82c-.33.23-.67.35-1 .35-.27 0-.5-.07-.69-.2a2.1 2.1 0 0 1-.48-.53l-.7-1.25zm27.67 19.5c-1.76 0-3.12-.5-4.07-1.48-.94-.98-1.41-2.4-1.41-4.25V74h-2.68a.9.9 0 0 1-.6-.2c-.16-.14-.24-.36-.24-.66v-1.56l3.65-.46.9-6.89a.9.9 0 0 1 .29-.52.88.88 0 0 1 .62-.22H142v7.67h6.44V74H142v13.38c0 .94.22 1.63.68 2.09.45.45 1.04.68 1.76.68a3.21 3.21 0 0 0 1.85-.53l.55-.35c.16-.12.3-.18.41-.18.2 0 .4.13.55.38l1.15 1.87a7.45 7.45 0 0 1-2.44 1.5 8.53 8.53 0 0 1-2.95.52zm19.68-10.4c-1.8.07-3.34.21-4.62.45-1.26.22-2.3.51-3.1.88-.8.36-1.37.8-1.74 1.3-.35.5-.53 1.05-.53 1.67 0 .58.1 1.1.3 1.52a2.9 2.9 0 0 0 .76 1.05c.34.27.73.46 1.17.6a6.13 6.13 0 0 0 1.45.17 7.3 7.3 0 0 0 3.5-.81 12.04 12.04 0 0 0 2.82-2.2v-4.62zm-12.65-9.1a12.72 12.72 0 0 1 3.99-2.66c1.42-.59 3-.88 4.72-.88 1.25 0 2.36.2 3.33.61a6.81 6.81 0 0 1 3.94 4.38c.33 1.04.5 2.19.5 3.43V93h-1.74a1.8 1.8 0 0 1-.88-.18c-.2-.13-.36-.38-.48-.74l-.44-2.12-1.72 1.46a9.48 9.48 0 0 1-3.74 1.7c-.69.15-1.46.23-2.3.23-.87 0-1.69-.12-2.45-.35a5.33 5.33 0 0 1-3.34-2.93 6.62 6.62 0 0 1-.49-2.64c0-.88.25-1.72.73-2.53a6.33 6.33 0 0 1 2.35-2.17c1.09-.63 2.5-1.15 4.25-1.54a31.2 31.2 0 0 1 6.42-.7v-1.75c0-1.73-.37-3.03-1.12-3.91-.75-.9-1.84-1.34-3.28-1.34-.97 0-1.78.12-2.44.37-.64.23-1.2.5-1.7.81l-1.22.82c-.34.23-.68.35-1.02.35-.26 0-.49-.07-.68-.2a1.88 1.88 0 0 1-.48-.53l-.7-1.25z" fill="#fff"/><path fill="#D42B21" d="M0 106.79h210V120H0z"/></g><defs><clipPath id="a"><path fill="#fff" d="M0 0h210v120H0z"/></clipPath></defs></svg></g><a href="https://ourworldindata.org/grapher/mockupbyHRkfjgkajirejgdfvndflkna" style="font-family:&quot;Playfair Display&quot;,Georgia,&quot;Times New Roman&quot;,serif" target="_blank" rel="noopener"><text font-size="25.2" x="15" y="35.2" fill="#555"><tspan x="15" y="35.16">Experience curves, 1867 to 2014</tspan></text></a></g><g class="ScatterPlot"><g class="DualAxisView"><g class="HorizontalAxis"><text font-size="12.6" x="311.1" y="544.9"><tspan x="311.13" y="544.88">Cumulative production</tspan></text><text x="294.7" y="524.8" fill="#666" text-anchor="middle" font-size="16.2">&lt;0.1</text><text x="369.3" y="524.8" fill="#666" text-anchor="middle" font-size="16.2">1</text><text x="443.9" y="524.8" fill="#666" text-anchor="middle" font-size="16.2">100</text><text x="518.4" y="524.8" fill="#666" text-anchor="middle" font-size="16.2">10,000</text><text x="593" y="524.8" fill="#666" text-anchor="middle" font-size="16.2">1 million</text><text x="667.6" y="524.8" fill="#666" text-anchor="middle" font-size="16.2">100 million</text></g><g class="VerticalAxis"><text font-size="12.6" x="-332.3" y="25.1" transform="rotate(-90)"><tspan x="-332.27" y="25.08">Unit cost</tspan></text><text x="251.12" y="452.5" dy=".32em" text-anchor="end" fill="#666" font-size="16.2">&lt;0.000009999999999999999</text><text x="251.12" y="376" dy=".32em" text-anchor="end" fill="#666" font-size="16.2">0.0001</text><text x="251.12" y="299.6" dy=".32em" text-anchor="end" fill="#666" font-size="16.2">0.01</text><text x="251.12" y="223.1" dy=".32em" text-anchor="end" fill="#666" font-size="16.2">1</text><text x="251.12" y="146.7" dy=".32em" text-anchor="end" fill="#666" font-size="16.2">100</text><text x="251.12" y="70.2" dy=".32em" text-anchor="end" fill="#666" font-size="16.2">10,000</text></g><g class="AxisGridLines horizontalLines" stroke="#ddd" stroke-dasharray="3,2"><path d="M256.12 452.5H733M256.12 376H733M256.12 299.6H733M256.12 223.1H733M256.12 146.7H733M256.12 70.2H733"/></g><g class="AxisGridLines verticalLines" stroke="#ddd" stroke-dasharray="3,2"><path d="M294.7 503.6V68M369.3 503.6V68M443.9 503.6V68M518.4 503.6V68M593 503.6V68M667.6 503.6V68"/></g></g><g class="PointsWithLabels clickable" clip-path="url(#b)" font-family="Arial, sans-serif"><path fill="rgba(255,255,255,0)" d="M256.12 68H733v435.6H256.12z"/><defs><clipPath id="b"><path d="M246.12 58H743v455.6H246.12z"/></clipPath></defs><g class="key-Wheat"><path stroke-width="2.91" opacity=".9" stroke="#959595" fill="none" stroke-linecap="butt" d="M452 150h13l8 1 6-2 4 1 4-1 2 1 3 1 3-3h2l2 4 2-1h3l2-3 1 5 2-3 1 3 2-5 1 4 1-1 1-2 1 3v-2l1 5 1-3 1-2 1 1 1 1 1-2v2l1 1 1-3h1v3h1l1-2v-1l1 3v1l1-2 1 2 1-3v-1 3l1-1v2l1 1 1-6v4l1-3v1l1-1v2l1-1v3l1-4v3h1v-2 1l1 2v-3l1-3v3h1v2l1 2v2-3l1 2v-1l1 1v-4l1 3v-1 2l1-1v3h1v5-4l1 3v-1l1 1h1v3h1v2-1l1-1v-2 2h1l1 2v-1 1h1v2h1v-2l1 1v-2 3l1-2v2-1h1v-1 2l1 2v-1l1-1v-2 4-1l1-1v2"/><circle cx="452" cy="150" r="2.45" fill="#959595" opacity=".9" stroke="#959595" stroke-opacity=".6"/><path cx="563" cy="171" r="5.81" fill="#959595" opacity=".9" d="m557.19 165.19 11.62 5.81-11.62 5.81z"/></g><g class="key-PrimaryAluminum"><path stroke-width="2.91" opacity=".9" stroke="#959595" fill="none" stroke-linecap="butt" d="M483 235h2l1-3 1-1v4h1l1 1h2l1-1 1 2 2 3 2 4 2 1h5l2 1 2 1 1 2 2 1 1-2h5l1-1 2-1 2-1 2-1h3l2 1 1 1 2 2 1-1 1 2 1-1h5l1 1"/><circle cx="483" cy="235" r="2.45" fill="#959595" opacity=".9" stroke="#959595" stroke-opacity=".6"/><path cx="541" cy="249" r="5.81" fill="#959595" opacity=".9" d="m535.19 243.19 11.62 5.81-11.62 5.81z"/></g><g class="key-PrimaryMagnesium"><path stroke-width="2.91" opacity=".9" stroke="#959595" fill="none" stroke-linecap="butt" d="m497 223 3 6 3-1 1-1 4 1 5 1h10l3 1 4 1 4 4 8 2 12 3h25l1 2v2l1 1 1-1v-1l1 1 3-1h2l2-2 1-1h3v1h3l1 1h2l1 1"/><circle cx="497" cy="223" r="2.45" fill="#959595" opacity=".9" stroke="#959595" stroke-opacity=".6"/><path cx="601" cy="243" r="5.81" fill="#959595" opacity=".9" d="m595.19 237.19 11.62 5.81-11.62 5.81z"/></g><g class="key-Milk"><path stroke-width="2.91" opacity=".9" stroke="#959595" fill="none" stroke-linecap="butt" d="m555 133 12-1h6l5-1 4 1h5l2 1h4l2 1h1l2-1h1l1 1h1l1 1h1l1 1h4v1h1l1 1v1h1l1 1 1 1 1 1 1 1 1 1v1h1v1h1v1l1-1v1l1 1 1 1v1h1l1 1 1 1 1 1v1h1v-1l1 2v1h1v1h1v1h1"/><circle cx="555" cy="133" r="2.45" fill="#959595" opacity=".9" stroke="#959595" stroke-opacity=".6"/><path cx="630" cy="158" r="5.81" fill="#959595" opacity=".9" d="m624.19 152.19 11.62 5.81-11.62 5.81z"/></g><g class="key-RefinedCaneSugar"><path stroke-width="2.91" opacity=".9" stroke="#959595" fill="none" stroke-linecap="butt" d="M473 259v2-1l1 1v-1 1l1 1v-3 2h2v1h1l1 1v-4 2l1 1v1"/><circle cx="473" cy="259" r="2.45" fill="#959595" opacity=".9" stroke="#959595" stroke-opacity=".6"/><path cx="480" cy="263" r="5.81" fill="#959595" opacity=".9" d="m474.19 257.19 11.62 5.81-11.62 5.81z"/></g><g class="key-Polystyrene"><path stroke-width="2.91" opacity=".9" stroke="#959595" fill="none" stroke-linecap="butt" d="m418 233 7 1 9 2 13 1 10 4 8-3 6-1h10l4 1h3l2 1 3 2 2 2 2 1 1 2h3l1 3 2 1 1 2 2 2h2l2-1 2 2 2 2"/><circle cx="418" cy="233" r="2.45" fill="#959595" opacity=".9" stroke="#959595" stroke-opacity=".6"/><path cx="515" cy="257" r="5.81" fill="#959595" opacity=".9" d="m509.19 251.19 11.62 5.81-11.62 5.81z"/></g><g class="key-CrudeOil"><path stroke-width="2.91" opacity=".9" stroke="#959595" fill="none" stroke-linecap="butt" d="m418 207 1-4h3l1 1 1 1 2-1h2l1 1 1-1h1l1 1h1l1 1h1l1 1h2v1"/><circle cx="418" cy="207" r="2.45" fill="#959595" opacity=".9" stroke="#959595" stroke-opacity=".6"/><path cx="438" cy="208" r="5.81" fill="#959595" opacity=".9" d="m432.19 202.19 11.62 5.81-11.62 5.81z"/></g><g class="key-ElectricRange"><path stroke-width="2.91" opacity=".9" stroke="#959595" fill="none" stroke-linecap="butt" d="M395 128h3l4 1h11l1 1 1 1 1-1 1 1 1 1h1l1 1v2h2l1 1"/><circle cx="395" cy="128" r="2.45" fill="#959595" opacity=".9" stroke="#959595" stroke-opacity=".6"/><path cx="423" cy="136" r="5.81" fill="#959595" opacity=".9" d="m417.19 130.19 11.62 5.81-11.62 5.81z"/></g><g class="key-FreeStandingGasRange"><path stroke-width="2.91" opacity=".9" stroke="#959595" fill="none" stroke-linecap="butt" d="m426 144 1-1 2 1h3l1 1 1 1h1v1h1v1h1v-1 2h2"/><circle cx="426" cy="144" r="2.45" fill="#959595" opacity=".9" stroke="#959595" stroke-opacity=".6"/><path cx="439" cy="149" r="5.81" fill="#959595" opacity=".9" d="m433.19 143.19 11.62 5.81-11.62 5.81z"/></g><g class="key-MotorGasoline"><path stroke-width="2.91" opacity=".9" stroke="#959595" fill="none" stroke-linecap="butt" d="m406 259 1-2 1-1h3l1 1 2-1 1 1h3l1 1 1 1h3l1 1h2l1 1h1l1 1"/><circle cx="406" cy="259" r="2.45" fill="#959595" opacity=".9" stroke="#959595" stroke-opacity=".6"/><path cx="429" cy="262" r="5.81" fill="#959595" opacity=".9" d="m423.19 256.19 11.62 5.81-11.62 5.81z"/></g><g class="key-Polyvinylchloride"><path stroke-width="2.91" opacity=".9" stroke="#959595" fill="none" stroke-linecap="butt" d="M464 235h6l4-1 5 2h13l3 1 3 2 2 2 3 2 3 1 2 2 2 2 3 3 2 1h2l2 2h2l3 1 2 2h2"/><circle cx="464" cy="235" r="2.45" fill="#959595" opacity=".9" stroke="#959595" stroke-opacity=".6"/><path cx="528" cy="257" r="5.81" fill="#959595" opacity=".9" d="m522.19 251.19 11.62 5.81-11.62 5.81z"/></g><g class="key-MonochromeTelevision"><path stroke-width="2.91" opacity=".9" stroke="#959595" fill="none" stroke-linecap="butt" d="m416 128 30 3 21 2 16 1 6 1h5l5 4h3l3 2h4l2 1h1l2 1h1l1 2 1 1 2 3 1-2 1 1h1"/><circle cx="416" cy="128" r="2.45" fill="#959595" opacity=".9" stroke="#959595" stroke-opacity=".6"/><path cx="522" cy="148" r="5.81" fill="#959595" opacity=".9" d="m516.19 142.19 11.62 5.81-11.62 5.81z"/></g><g class="key-TitaniumSponge"><path stroke-width="2.91" opacity=".9" stroke="#959595" fill="none" stroke-linecap="butt" d="m435 193 36 1h32l14 4 9 4 10 5 8 4 1 3 1 1 2 2 1 1 2 1 1 1h3l3 1h2"/><circle cx="435" cy="193" r="2.45" fill="#959595" opacity=".9" stroke="#959595" stroke-opacity=".6"/><path cx="560" cy="221" r="5.81" fill="#959595" opacity=".9" d="m554.19 215.19 11.62 5.81-11.62 5.81z"/></g><g class="key-Beer"><path stroke-width="2.91" opacity=".9" stroke="#959595" fill="none" stroke-linecap="butt" d="m480 151 4 2h8l3 1 3 1 2-1 3 1 3 1 3 1 3 1h3l3 1h3l2 1h5"/><circle cx="480" cy="151" r="2.45" fill="#959595" opacity=".9" stroke="#959595" stroke-opacity=".6"/><path cx="528" cy="160" r="5.81" fill="#959595" opacity=".9" d="m522.19 154.19 11.62 5.81-11.62 5.81z"/></g><g class="key-Pentaerythritol"><path stroke-width="2.91" opacity=".9" stroke="#959595" fill="none" stroke-linecap="butt" d="M455 162h3l3 1h3l3 1 2 1 1 1h4l1 1 2 1 1 2 1-1 1 2 1-1 2 1 1 1h2l1 3 1 4"/><circle cx="455" cy="162" r="2.45" fill="#959595" opacity=".9" stroke="#959595" stroke-opacity=".6"/><path cx="488" cy="179" r="5.81" fill="#959595" opacity=".9" d="m482.19 173.19 11.62 5.81-11.62 5.81z"/></g><g class="key-Benzene"><path stroke-width="2.91" opacity=".9" stroke="#959595" fill="none" stroke-linecap="butt" d="m388 235 1 1 1 2 1 1 1 1 1 1 1 2h2l1-1 1 5 2 1 1 1 2-1 1 1h3"/><circle cx="388" cy="235" r="2.45" fill="#959595" opacity=".9" stroke="#959595" stroke-opacity=".6"/><path cx="407" cy="249" r="5.81" fill="#959595" opacity=".9" d="m401.19 243.19 11.62 5.81-11.62 5.81z"/></g><g class="key-LowDensityPolyethylene"><path stroke-width="2.91" opacity=".9" stroke="#959595" fill="none" stroke-linecap="butt" d="m459 234 7 2 7 1 8 1 7 3 6 1h5l5 2 4 4 3 1 4 3 3 2h6l2 3 3 3"/><circle cx="459" cy="234" r="2.45" fill="#959595" opacity=".9" stroke="#959595" stroke-opacity=".6"/><path cx="529" cy="260" r="5.81" fill="#959595" opacity=".9" d="m523.19 254.19 11.62 5.81-11.62 5.81z"/></g><g class="key-Magnesium"><path stroke-width="2.91" opacity=".9" stroke="#959595" fill="none" stroke-linecap="butt" d="m477 166 1-1 1-2h7l1 1 1 1h2l1 1h2"/><circle cx="477" cy="166" r="2.45" fill="#959595" opacity=".9" stroke="#959595" stroke-opacity=".6"/><path cx="493" cy="166" r="5.81" fill="#959595" opacity=".9" d="m487.19 160.19 11.62 5.81-11.62 5.81z"/></g><g class="key-Ethanolamine"><path stroke-width="2.91" opacity=".9" stroke="#959595" fill="none" stroke-linecap="butt" d="m467 168 3 1 2 1h3l2 1 2 1h4l2 1 2 1 2 1 1 1 2 2 2 2 1 2 2 2 2 1h1"/><circle cx="467" cy="168" r="2.45" fill="#959595" opacity=".9" stroke="#959595" stroke-opacity=".6"/><path cx="500" cy="185" r="5.81" fill="#959595" opacity=".9" d="m494.19 179.19 11.62 5.81-11.62 5.81z"/></g><g class="key-PhthalicAnhydride"><path stroke-width="2.91" opacity=".9" stroke="#959595" fill="none" stroke-linecap="butt" d="m498 172 2 1h3l1 3 1-1h2l1 4 1 6 1-1 2 3 1-1 2-4 1-1 1 3 2 4 1 4 1 1"/><circle cx="498" cy="172" r="2.45" fill="#959595" opacity=".9" stroke="#959595" stroke-opacity=".6"/><path cx="521" cy="193" r="5.81" fill="#959595" opacity=".9" d="m515.19 187.19 11.62 5.81-11.62 5.81z"/></g><g class="key-Aluminum"><path stroke-width="2.91" opacity=".9" stroke="#959595" fill="none" stroke-linecap="butt" d="M525 167h3l1 1h2l1 1 1 1 2 1 1-1 1-1 2 1h2l1-1h3l1 2"/><circle cx="525" cy="167" r="2.45" fill="#959595" opacity=".9" stroke="#959595" stroke-opacity=".6"/><path cx="546" cy="171" r="5.81" fill="#959595" opacity=".9" d="m540.19 165.19 11.62 5.81-11.62 5.81z"/></g><g class="key-Cyclohexane"><path stroke-width="2.91" opacity=".9" stroke="#959595" fill="none" stroke-linecap="butt" d="m467 193 1 1h2l2 1h1l3 1 2 1 2 2 3 1 2-1 3 1 3 1 2 2 2 1h3l1 2 1 2"/><circle cx="467" cy="193" r="2.45" fill="#959595" opacity=".9" stroke="#959595" stroke-opacity=".6"/><path cx="500" cy="208" r="5.81" fill="#959595" opacity=".9" d="m494.19 202.19 11.62 5.81-11.62 5.81z"/></g><g class="key-Methanol"><path stroke-width="2.91" opacity=".9" stroke="#959595" fill="none" stroke-linecap="butt" d="m495 199 2 2 1-1 1 1h2l1 1h2l1 3 1-2h2l1 1 2 3h2l2 7 1 5"/><circle cx="495" cy="199" r="2.45" fill="#959595" opacity=".9" stroke="#959595" stroke-opacity=".6"/><path cx="516" cy="219" r="5.81" fill="#959595" opacity=".9" d="m510.19 213.19 11.62 5.81-11.62 5.81z"/></g><g class="key-Sodium"><path stroke-width="2.91" opacity=".9" stroke="#959595" fill="none" stroke-linecap="butt" d="M511 175h1v1h3v1h1v1h2l1 1"/><circle cx="511" cy="175" r="2.45" fill="#959595" opacity=".9" stroke="#959595" stroke-opacity=".6"/><path cx="519" cy="179" r="5.81" fill="#959595" opacity=".9" d="m513.19 173.19 11.62 5.81-11.62 5.81z"/></g><g class="key-Paraxylene"><path stroke-width="2.91" opacity=".9" stroke="#959595" fill="none" stroke-linecap="butt" d="m460 253 5 3h6l5 1 5 2 3 5h7l3 3h3l4 3"/><circle cx="460" cy="253" r="2.45" fill="#959595" opacity=".9" stroke="#959595" stroke-opacity=".6"/><path cx="501" cy="270" r="5.81" fill="#959595" opacity=".9" d="m495.19 264.19 11.62 5.81-11.62 5.81z"/></g><g class="key-PolyethyleneHD"><path stroke-width="2.91" opacity=".9" stroke="#959595" fill="none" stroke-linecap="butt" d="M476 164h4l3 1h4l4 5 4 2 4 2 3 1 4 1 3 2h3l4 3 2 3 3 1"/><circle cx="476" cy="164" r="2.45" fill="#959595" opacity=".9" stroke="#959595" stroke-opacity=".6"/><path cx="521" cy="185" r="5.81" fill="#959595" opacity=".9" d="m515.19 179.19 11.62 5.81-11.62 5.81z"/></g><g class="key-PolyethyleneLD"><path stroke-width="2.91" opacity=".9" stroke="#959595" fill="none" stroke-linecap="butt" d="m495 164 4 1 5 2 4 3 3 2 4 2 3 2h6l2 3 3 3h5l2 1 3 1"/><circle cx="495" cy="164" r="2.45" fill="#959595" opacity=".9" stroke="#959595" stroke-opacity=".6"/><path cx="539" cy="184" r="5.81" fill="#959595" opacity=".9" d="m533.19 178.19 11.62 5.81-11.62 5.81z"/></g><g class="key-SodiumChlorate"><path stroke-width="2.91" opacity=".9" stroke="#959595" fill="none" stroke-linecap="butt" d="M473 187h2l2 1h7l1 1 2 2 2 2 1 1h3l1 1h2"/><circle cx="473" cy="187" r="2.45" fill="#959595" opacity=".9" stroke="#959595" stroke-opacity=".6"/><path cx="496" cy="195" r="5.81" fill="#959595" opacity=".9" d="m490.19 189.19 11.62 5.81-11.62 5.81z"/></g><g class="key-Styrene"><path stroke-width="2.91" opacity=".9" stroke="#959595" fill="none" stroke-linecap="butt" d="m516 181 3 1h2l2 1 2 1 2 1 2 3 2 1 2-1 2 1 2 3 1 1h2l2 2 2 2"/><circle cx="516" cy="181" r="2.45" fill="#959595" opacity=".9" stroke="#959595" stroke-opacity=".6"/><path cx="544" cy="197" r="5.81" fill="#959595" opacity=".9" d="m538.19 191.19 11.62 5.81-11.62 5.81z"/></g><g class="key-Acrylonitrile"><path stroke-width="2.91" opacity=".9" stroke="#959595" fill="none" stroke-linecap="butt" d="m479 168 4 3 3 4 3 3 3 1 3-2 4-1 3 5 3 1h2l3 1 3 2 2 1h2"/><circle cx="479" cy="168" r="2.45" fill="#959595" opacity=".9" stroke="#959595" stroke-opacity=".6"/><path cx="517" cy="186" r="5.81" fill="#959595" opacity=".9" d="m511.19 180.19 11.62 5.81-11.62 5.81z"/></g><g class="key-BisphenolA"><path stroke-width="2.91" opacity=".9" stroke="#959595" fill="none" stroke-linecap="butt" d="m457 167 3 1h3l2 1h2l3 2 2 1 3 1h3l2 2h2l3 3 2 1 2 1"/><circle cx="457" cy="167" r="2.45" fill="#959595" opacity=".9" stroke="#959595" stroke-opacity=".6"/><path cx="489" cy="180" r="5.81" fill="#959595" opacity=".9" d="m483.19 174.19 11.62 5.81-11.62 5.81z"/></g><g class="key-MaleicAnhydride"><path stroke-width="2.91" opacity=".9" stroke="#959595" fill="none" stroke-linecap="butt" d="m466 168 2 2 3 1 2 5 2 3 2 2 2 1 3-1 2-1 2 2 2-3 2-1 2 3 2 2"/><circle cx="466" cy="168" r="2.45" fill="#959595" opacity=".9" stroke="#959595" stroke-opacity=".6"/><path cx="494" cy="183" r="5.81" fill="#959595" opacity=".9" d="m488.19 177.19 11.62 5.81-11.62 5.81z"/></g><g class="key-Phenol"><path stroke-width="2.91" opacity=".9" stroke="#959595" fill="none" stroke-linecap="butt" d="M510 178h3l2 3 1 4h3l2 1 2 1 1 3h2l1 2 2 2 1 1"/><circle cx="510" cy="178" r="2.45" fill="#959595" opacity=".9" stroke="#959595" stroke-opacity=".6"/><path cx="530" cy="195" r="5.81" fill="#959595" opacity=".9" d="m524.19 189.19 11.62 5.81-11.62 5.81z"/></g><g class="key-AcrylicFiber"><path stroke-width="2.91" opacity=".9" stroke="#959595" fill="none" stroke-linecap="butt" d="m471 142 4 1 3 2h3l3 1 3 2 4 2 3 2 2 3 3 2 3 1 2 1 2 2"/><circle cx="471" cy="142" r="2.45" fill="#959595" opacity=".9" stroke="#959595" stroke-opacity=".6"/><path cx="506" cy="161" r="5.81" fill="#959595" opacity=".9" d="m500.19 155.19 11.62 5.81-11.62 5.81z"/></g><g class="key-Ammonia"><path stroke-width="2.91" opacity=".9" stroke="#959595" fill="none" stroke-linecap="butt" d="m542 202 2-1 1 1h5l2 2 2 2 2 5 2 4h2l1 1h2"/><circle cx="542" cy="202" r="2.45" fill="#959595" opacity=".9" stroke="#959595" stroke-opacity=".6"/><path cx="563" cy="216" r="5.81" fill="#959595" opacity=".9" d="m557.19 210.19 11.62 5.81-11.62 5.81z"/></g><g class="key-Ethylene2"><path stroke-width="2.91" opacity=".9" stroke="#959595" fill="none" stroke-linecap="butt" d="M536 196h3l2 1h5l2 2h2l2 1 2 3 2 1 3 2 2 1 2 1"/><circle cx="536" cy="196" r="2.45" fill="#959595" opacity=".9" stroke="#959595" stroke-opacity=".6"/><path cx="563" cy="208" r="5.81" fill="#959595" opacity=".9" d="m557.19 202.19 11.62 5.81-11.62 5.81z"/></g><g class="key-EthyleneGlycol"><path stroke-width="2.91" opacity=".9" stroke="#959595" fill="none" stroke-linecap="butt" d="m519 184 2-1 2 2 1 1h2l2 1 1 1 2 2 1 2 2 1h1l2 1 1 2"/><circle cx="519" cy="184" r="2.45" fill="#959595" opacity=".9" stroke="#959595" stroke-opacity=".6"/><path cx="538" cy="196" r="5.81" fill="#959595" opacity=".9" d="m532.19 190.19 11.62 5.81-11.62 5.81z"/></g><g class="key-NeopreneRubber"><path stroke-width="2.91" opacity=".9" stroke="#959595" fill="none" stroke-linecap="butt" d="M494 160h8l1 1 2 1h2l1 1 1 1h1"/><circle cx="494" cy="160" r="2.45" fill="#959595" opacity=".9" stroke="#959595" stroke-opacity=".6"/><path cx="510" cy="164" r="5.81" fill="#959595" opacity=".9" d="m504.19 158.19 11.62 5.81-11.62 5.81z"/></g><g class="key-PolyesterFiber"><path stroke-width="2.91" opacity=".9" stroke="#959595" fill="none" stroke-linecap="butt" d="m461 142 5 1 3 1h5l4 2 4 3 5 1 5 6 5 1 5 3 5 3 4 2 4 1"/><circle cx="461" cy="142" r="2.45" fill="#959595" opacity=".9" stroke="#959595" stroke-opacity=".6"/><path cx="515" cy="166" r="5.81" fill="#959595" opacity=".9" d="m509.19 160.19 11.62 5.81-11.62 5.81z"/></g><g class="key-VinylAcetate"><path stroke-width="2.91" opacity=".9" stroke="#959595" fill="none" stroke-linecap="butt" d="m491 177 2 1 2 1h2l2 3 2 1h5l2 1 2 2 2 3 1 2 2 2"/><circle cx="491" cy="177" r="2.45" fill="#959595" opacity=".9" stroke="#959595" stroke-opacity=".6"/><path cx="515" cy="193" r="5.81" fill="#959595" opacity=".9" d="m509.19 187.19 11.62 5.81-11.62 5.81z"/></g><g class="key-Aniline"><path stroke-width="2.91" opacity=".9" stroke="#959595" fill="none" stroke-linecap="butt" d="m498 177 1 2h1l1 1 1 2 1 2h1l1 1 1-1 1 1 1 5"/><circle cx="498" cy="177" r="2.45" fill="#959595" opacity=".9" stroke="#959595" stroke-opacity=".6"/><path cx="508" cy="190" r="5.81" fill="#959595" opacity=".9" d="m502.19 184.19 11.62 5.81-11.62 5.81z"/></g><g class="key-Urea"><path stroke-width="2.91" opacity=".9" stroke="#959595" fill="none" stroke-linecap="butt" d="M507 198h7l3 1h2l3 3 2 3 3 3 2-1 3 1 2 2"/><circle cx="507" cy="198" r="2.45" fill="#959595" opacity=".9" stroke="#959595" stroke-opacity=".6"/><path cx="534" cy="210" r="5.81" fill="#959595" opacity=".9" d="m528.19 204.19 11.62 5.81-11.62 5.81z"/></g><g class="key-Caprolactam"><path stroke-width="2.91" opacity=".9" stroke="#959595" fill="none" stroke-linecap="butt" d="m464 161 6 1 5 2 5 1 4 5 4 3 3 1 3 2h3l3 2h3"/><circle cx="464" cy="161" r="2.45" fill="#959595" opacity=".9" stroke="#959595" stroke-opacity=".6"/><path cx="503" cy="178" r="5.81" fill="#959595" opacity=".9" d="m497.19 172.19 11.62 5.81-11.62 5.81z"/></g><g class="key-Formaldehyde"><path stroke-width="2.91" opacity=".9" stroke="#959595" fill="none" stroke-linecap="butt" d="m532 203 1 1 2 2 1 1 2-1 1 1 2 1 2 2h1l1 2 2 3"/><circle cx="532" cy="203" r="2.45" fill="#959595" opacity=".9" stroke="#959595" stroke-opacity=".6"/><path cx="547" cy="215" r="5.81" fill="#959595" opacity=".9" d="m541.19 209.19 11.62 5.81-11.62 5.81z"/></g><g class="key-HydrofluoricAcid"><path stroke-width="2.91" opacity=".9" stroke="#959595" fill="none" stroke-linecap="butt" d="m493 178 1 1h2l2 1h1l2-1h1l1-1h2l1 2"/><circle cx="493" cy="178" r="2.45" fill="#959595" opacity=".9" stroke="#959595" stroke-opacity=".6"/><path cx="506" cy="180" r="5.81" fill="#959595" opacity=".9" d="m500.19 174.19 11.62 5.81-11.62 5.81z"/></g><g class="key-VinylChloride"><path stroke-width="2.91" opacity=".9" stroke="#959595" fill="none" stroke-linecap="butt" d="m516 189 2 1 2 2h2l3 1 2 3 2 2 2 1 3 3 2-1 2 2"/><circle cx="516" cy="189" r="2.45" fill="#959595" opacity=".9" stroke="#959595" stroke-opacity=".6"/><path cx="538" cy="203" r="5.81" fill="#959595" opacity=".9" d="m532.19 197.19 11.62 5.81-11.62 5.81z"/></g><g class="key-CarbonDisulfide"><path stroke-width="2.91" opacity=".9" stroke="#959595" fill="none" stroke-linecap="butt" d="M522 199h3v1l1-1h1l1 2v1l1 1"/><circle cx="522" cy="199" r="2.45" fill="#959595" opacity=".9" stroke="#959595" stroke-opacity=".6"/><path cx="529" cy="203" r="5.81" fill="#959595" opacity=".9" d="m523.19 197.19 11.62 5.81-11.62 5.81z"/></g><g class="key-Transistor"><path stroke-width="2.91" opacity=".9" stroke="#959595" fill="none" stroke-linecap="butt" d="m380 202 15 8 11 11 11 10 11 10 14 9 11 18 12 11 14 10 12 9 12 12 13 9 12 13 12 12 11 5 11 2 9 13 9 6 9 6 9 4 9 11 10 9 8 7 8 6 8 2 7 3 7 2 7 8 7 10 8 11 8 6 8 4 9 14 8 6 7 5 7 4 9 15"/><circle cx="380" cy="202" r="2.45" fill="#959595" opacity=".9" stroke="#959595" stroke-opacity=".6"/><path cx="733" cy="503" r="5.81" fill="#959595" opacity=".9" d="m727.19 497.19 11.62 5.81-11.62 5.81z"/></g><g class="key-DRAM"><path stroke-width="2.91" opacity=".9" stroke="#959595" fill="none" stroke-linecap="butt" d="m256 165 26 4 17 8 15 13 13 11 16 10 14 8 14 5 13 6 13 14 10 10 12 5 14 4 13 20 9 8 11 1 8-6 8 2 7 13 8 8 7 6 8-1 8 1h8l9 18 9 15 9 17 10 3 10 4 9 24 9 1 7 4h7l7 9 7 2 7 13"/><circle cx="256" cy="165" r="2.45" fill="#959595" opacity=".9" stroke="#959595" stroke-opacity=".6"/><path cx="628" cy="425" r="5.81" fill="#959595" opacity=".9" d="m622.19 419.19 11.62 5.81-11.62 5.81z"/></g><g class="key-NukeHult"><path stroke-width="2.91" opacity=".9" stroke="#959595" fill="none" stroke-linecap="butt" d="m475 200 25-1h17l10-4 7 2h1l3-3 2 3v2l1-4 1 2 1-6 1 1h2l2-3 2-2 2 2 1-4 1-1"/><circle cx="475" cy="200" r="2.45" fill="#959595" opacity=".9" stroke="#959595" stroke-opacity=".6"/><path cx="554" cy="184" r="5.81" fill="#959595" opacity=".9" d="m548.19 178.19 11.62 5.81-11.62 5.81z"/></g><g class="key-Corn"><path stroke-width="2.91" opacity=".9" stroke="#959595" fill="none" stroke-linecap="butt" d="m456 182 10 1 6 2 5 1 5-3 4 3 3 1 2-6 2 4 2 2h2l1-6 2 6h1l1-1 1 3 1-5 1 6 1-3 1 2h1l1 1 1-1 1 1v1l1-2 1 2v2l1-2 1-1 1 1"/><circle cx="456" cy="182" r="2.45" fill="#959595" opacity=".9" stroke="#959595" stroke-opacity=".6"/><path cx="516" cy="191" r="5.81" fill="#959595" opacity=".9" d="m510.19 185.19 11.62 5.81-11.62 5.81z"/></g><g class="key-Photovoltaics"><path stroke-width="2.91" opacity=".9" stroke="#959595" fill="none" stroke-linecap="butt" d="m350 153 15 6 13 6 10 1 11 4 10 5h8l9 1 7 3 5 2 4 1 4 3h7l4-1 3 2 3 1 2 2h3l2 1 2 3h3l3 3 3 2 4 3 4 1h4l4 1 6-1h5l5-2h5l7 2 7 6 9 7 7 2 6 10 5-1 4 2"/><circle cx="350" cy="153" r="2.45" fill="#959595" opacity=".9" stroke="#959595" stroke-opacity=".6"/><path cx="563" cy="228" r="5.81" fill="#959595" opacity=".9" d="m560.4 220.2 7.8 10.4h-13z"/></g><g class="key-GeothermalElectricity"><path stroke-width="2.91" opacity=".9" stroke="#959595" fill="none" stroke-linecap="butt" d="m646 181 2 1 3 1 2 1 2 1 3 1 2 1 3 1h2l2 2h2l2 1 2 1 2 1 1 1h2l1 1 1 1 1 1 1 1h1l1 1 1 1 1 1h1"/><circle cx="646" cy="181" r="2.45" fill="#959595" opacity=".9" stroke="#959595" stroke-opacity=".6"/><path cx="687" cy="201" r="5.81" fill="#959595" opacity=".9" d="m681.19 195.19 11.62 5.81-11.62 5.81z"/></g><g class="key-OnshoreGasPipeline"><path stroke-width="2.91" opacity=".9" stroke="#959595" fill="none" stroke-linecap="butt" d="m382 106 11-3 3 1 8 3 3 3h9l2-2 2-3h1v1l1 1 1 5"/><circle cx="382" cy="106" r="2.45" fill="#959595" opacity=".9" stroke="#959595" stroke-opacity=".6"/><path cx="423" cy="112" r="5.81" fill="#959595" opacity=".9" d="m417.19 106.19 11.62 5.81-11.62 5.81z"/></g><g class="key-Ethanol"><path stroke-width="2.91" opacity=".9" stroke="#959595" fill="none" stroke-linecap="butt" d="M500 168h12l8 2h13l5 4 5-1 3 3 3 3 3 1h2l2-1 2 2h1l2 2 1-1 1 2 2 1 1 11 1-11 1-2 1 1 1-1v4"/><circle cx="500" cy="168" r="2.45" fill="#959595" opacity=".9" stroke="#959595" stroke-opacity=".6"/><path cx="570" cy="187" r="5.81" fill="#959595" opacity=".9" d="m564.19 181.19 11.62 5.81-11.62 5.81z"/></g><g class="key-WindTurbine"><path stroke-width="2.91" opacity=".9" stroke="#959595" fill="none" stroke-linecap="butt" d="M406 68h7l16 1h22l15 2 7 2 2 1h5l2-1 3 2 2 1 2 1 3 1h12l4 1 6 1"/><circle cx="406" cy="68" r="2.45" fill="#959595" opacity=".9" stroke="#959595" stroke-opacity=".6"/><path cx="514" cy="80" r="5.81" fill="#959595" opacity=".9" d="M508.19 74.19 519.81 80l-11.62 5.81z"/></g><g class="key-LaserDiode"><path stroke-width="2.91" opacity=".9" stroke="#959595" fill="none" stroke-linecap="butt" d="m332 87 38 10 38 4 37 7 16 5 11 10 11 5 8 7 8 2 8 4h8"/><circle cx="332" cy="87" r="2.45" fill="#959595" opacity=".9" stroke="#959595" stroke-opacity=".6"/><path cx="515" cy="141" r="5.81" fill="#959595" opacity=".9" d="m509.19 135.19 11.62 5.81-11.62 5.81z"/></g><g class="key-Automotive"><path stroke-width="2.91" opacity=".9" stroke="#959595" fill="none" stroke-linecap="butt" d="m503 199 6 4 4 3 4 2 3 2 3 1 2 2 2 1 2 1 2 1 2 1 1 1 2 1 1 1 1 1h1l2 1 1 1 1 1h1l1 1"/><circle cx="503" cy="199" r="2.45" fill="#959595" opacity=".9" stroke="#959595" stroke-opacity=".6"/><path cx="545" cy="225" r="5.81" fill="#959595" opacity=".9" d="m539.19 219.19 11.62 5.81-11.62 5.81z"/></g><g class="key-CCGT"><path stroke-width="2.91" opacity=".9" stroke="#959595" fill="none" stroke-linecap="butt" d="m534 117 1 2 2-3 2 3 3-4 2 1 3 2 4 3h3l2 1"/><circle cx="534" cy="117" r="2.45" fill="#959595" opacity=".9" stroke="#959595" stroke-opacity=".6"/><path cx="556" cy="122" r="5.81" fill="#959595" opacity=".9" d="m550.19 116.19 11.62 5.81-11.62 5.81z"/></g><g class="key-HardDiskDrive"><path stroke-width="2.91" opacity=".9" stroke="#959595" fill="none" stroke-linecap="butt" d="m490 180 14 5 10 5 8 10 8 12 9 13 10 13 13 10 12 11 12 17 13 13 11 10 10 6 6 22 12-1 8 10 9 7 10 12 11 2"/><circle cx="490" cy="180" r="2.45" fill="#959595" opacity=".9" stroke="#959595" stroke-opacity=".6"/><path cx="676" cy="357" r="5.81" fill="#959595" opacity=".9" d="m670.19 351.19 11.62 5.81-11.62 5.81z"/></g><text x="563" y="171" font-size="15.6" font-family="Arial, sans-serif" font-weight="700" fill="#959595" style="fill:#fff;stroke:#fff;stroke-linecap:round;stroke-linejoin:round;stroke-width:.25em">Wheat</text><text x="563" y="171" font-size="15.6" font-family="Arial, sans-serif" font-weight="700" fill="#959595">Wheat</text><text x="483" y="235" font-size="8" font-family="Arial, sans-serif" font-weight="400" fill="#959595" style="fill:#fff;stroke:#fff;stroke-linecap:round;stroke-linejoin:round;stroke-width:.25em">1925</text><text x="483" y="235" font-size="8" font-family="Arial, sans-serif" font-weight="400" fill="#959595">1925</text><text x="541" y="249" font-size="15.6" font-family="Arial, sans-serif" font-weight="700" fill="#959595" style="fill:#fff;stroke:#fff;stroke-linecap:round;stroke-linejoin:round;stroke-width:.25em">PrimaryAluminum</text><text x="541" y="249" font-size="15.6" font-family="Arial, sans-serif" font-weight="700" fill="#959595">PrimaryAluminum</text><text x="630" y="158" font-size="15.6" font-family="Arial, sans-serif" font-weight="700" fill="#959595" style="fill:#fff;stroke:#fff;stroke-linecap:round;stroke-linejoin:round;stroke-width:.25em">Milk</text><text x="630" y="158" font-size="15.6" font-family="Arial, sans-serif" font-weight="700" fill="#959595">Milk</text><text x="480" y="263" font-size="15.6" font-family="Arial, sans-serif" font-weight="700" fill="#959595" style="fill:#fff;stroke:#fff;stroke-linecap:round;stroke-linejoin:round;stroke-width:.25em">RefinedCaneSugar</text><text x="480" y="263" font-size="15.6" font-family="Arial, sans-serif" font-weight="700" fill="#959595">RefinedCaneSugar</text><text x="438" y="208" font-size="15.6" font-family="Arial, sans-serif" font-weight="700" fill="#959595" style="fill:#fff;stroke:#fff;stroke-linecap:round;stroke-linejoin:round;stroke-width:.25em">CrudeOil</text><text x="438" y="208" font-size="15.6" font-family="Arial, sans-serif" font-weight="700" fill="#959595">CrudeOil</text><text x="395" y="128" font-size="8" font-family="Arial, sans-serif" font-weight="400" fill="#959595" style="fill:#fff;stroke:#fff;stroke-linecap:round;stroke-linejoin:round;stroke-width:.25em">1942</text><text x="395" y="128" font-size="8" font-family="Arial, sans-serif" font-weight="400" fill="#959595">1942</text><text x="423" y="136" font-size="15.6" font-family="Arial, sans-serif" font-weight="700" fill="#959595" style="fill:#fff;stroke:#fff;stroke-linecap:round;stroke-linejoin:round;stroke-width:.25em">ElectricRange</text><text x="423" y="136" font-size="15.6" font-family="Arial, sans-serif" font-weight="700" fill="#959595">ElectricRange</text><text x="439" y="149" font-size="15.6" font-family="Arial, sans-serif" font-weight="700" fill="#959595" style="fill:#fff;stroke:#fff;stroke-linecap:round;stroke-linejoin:round;stroke-width:.25em">FreeStandingGasRange</text><text x="439" y="149" font-size="15.6" font-family="Arial, sans-serif" font-weight="700" fill="#959595">FreeStandingGasRange</text><text x="560" y="221" font-size="15.6" font-family="Arial, sans-serif" font-weight="700" fill="#959595" style="fill:#fff;stroke:#fff;stroke-linecap:round;stroke-linejoin:round;stroke-width:.25em">TitaniumSponge</text><text x="560" y="221" font-size="15.6" font-family="Arial, sans-serif" font-weight="700" fill="#959595">TitaniumSponge</text><text x="528" y="160" font-size="15.6" font-family="Arial, sans-serif" font-weight="700" fill="#959595" style="fill:#fff;stroke:#fff;stroke-linecap:round;stroke-linejoin:round;stroke-width:.25em">Beer</text><text x="528" y="160" font-size="15.6" font-family="Arial, sans-serif" font-weight="700" fill="#959595">Beer</text><text x="407" y="249" font-size="15.6" font-family="Arial, sans-serif" font-weight="700" fill="#959595" style="fill:#fff;stroke:#fff;stroke-linecap:round;stroke-linejoin:round;stroke-width:.25em">Benzene</text><text x="407" y="249" font-size="15.6" font-family="Arial, sans-serif" font-weight="700" fill="#959595">Benzene</text><text x="467" y="168" font-size="8" font-family="Arial, sans-serif" font-weight="400" fill="#959595" style="fill:#fff;stroke:#fff;stroke-linecap:round;stroke-linejoin:round;stroke-width:.25em">1950</text><text x="467" y="168" font-size="8" font-family="Arial, sans-serif" font-weight="400" fill="#959595">1950</text><text x="500" y="185" font-size="15.6" font-family="Arial, sans-serif" font-weight="700" fill="#959595" style="fill:#fff;stroke:#fff;stroke-linecap:round;stroke-linejoin:round;stroke-width:.25em">Ethanolamine</text><text x="500" y="185" font-size="15.6" font-family="Arial, sans-serif" font-weight="700" fill="#959595">Ethanolamine</text><text x="500" y="208" font-size="15.6" font-family="Arial, sans-serif" font-weight="700" fill="#959595" style="fill:#fff;stroke:#fff;stroke-linecap:round;stroke-linejoin:round;stroke-width:.25em">Cyclohexane</text><text x="500" y="208" font-size="15.6" font-family="Arial, sans-serif" font-weight="700" fill="#959595">Cyclohexane</text><text x="496" y="195" font-size="15.6" font-family="Arial, sans-serif" font-weight="700" fill="#959595" style="fill:#fff;stroke:#fff;stroke-linecap:round;stroke-linejoin:round;stroke-width:.25em">SodiumChlorate</text><text x="496" y="195" font-size="15.6" font-family="Arial, sans-serif" font-weight="700" fill="#959595">SodiumChlorate</text><text x="380" y="202" font-size="8" font-family="Arial, sans-serif" font-weight="400" fill="#959595" style="fill:#fff;stroke:#fff;stroke-linecap:round;stroke-linejoin:round;stroke-width:.25em">1964</text><text x="380" y="202" font-size="8" font-family="Arial, sans-serif" font-weight="400" fill="#959595">1964</text><text x="663.58" y="503" font-size="15.6" font-family="Arial, sans-serif" font-weight="700" fill="#959595" style="fill:#fff;stroke:#fff;stroke-linecap:round;stroke-linejoin:round;stroke-width:.25em">Transistor</text><text x="663.58" y="503" font-size="15.6" font-family="Arial, sans-serif" font-weight="700" fill="#959595">Transistor</text><text x="256" y="165" font-size="8" font-family="Arial, sans-serif" font-weight="400" fill="#959595" style="fill:#fff;stroke:#fff;stroke-linecap:round;stroke-linejoin:round;stroke-width:.25em">1967</text><text x="256" y="165" font-size="8" font-family="Arial, sans-serif" font-weight="400" fill="#959595">1967</text><text x="628" y="425" font-size="15.6" font-family="Arial, sans-serif" font-weight="700" fill="#959595" style="fill:#fff;stroke:#fff;stroke-linecap:round;stroke-linejoin:round;stroke-width:.25em">DRAM</text><text x="628" y="425" font-size="15.6" font-family="Arial, sans-serif" font-weight="700" fill="#959595">DRAM</text><text x="350" y="153" font-size="8" font-family="Arial, sans-serif" font-weight="400" fill="#959595" style="fill:#fff;stroke:#fff;stroke-linecap:round;stroke-linejoin:round;stroke-width:.25em">1971</text><text x="350" y="153" font-size="8" font-family="Arial, sans-serif" font-weight="400" fill="#959595">1971</text><text x="567.47" y="238.04" font-size="15.6" font-family="Arial, sans-serif" font-weight="700" fill="#959595" style="fill:#fff;stroke:#fff;stroke-linecap:round;stroke-linejoin:round;stroke-width:.25em">Photovoltaics</text><text x="567.47" y="238.04" font-size="15.6" font-family="Arial, sans-serif" font-weight="700" fill="#959595">Photovoltaics</text><text x="646" y="181" font-size="8" font-family="Arial, sans-serif" font-weight="400" fill="#959595" style="fill:#fff;stroke:#fff;stroke-linecap:round;stroke-linejoin:round;stroke-width:.25em">1975</text><text x="646" y="181" font-size="8" font-family="Arial, sans-serif" font-weight="400" fill="#959595">1975</text><text x="382" y="106" font-size="8" font-family="Arial, sans-serif" font-weight="400" fill="#959595" style="fill:#fff;stroke:#fff;stroke-linecap:round;stroke-linejoin:round;stroke-width:.25em">1975</text><text x="382" y="106" font-size="8" font-family="Arial, sans-serif" font-weight="400" fill="#959595">1975</text><text x="423" y="112" font-size="15.6" font-family="Arial, sans-serif" font-weight="700" fill="#959595" style="fill:#fff;stroke:#fff;stroke-linecap:round;stroke-linejoin:round;stroke-width:.25em">OnshoreGasPipeline</text><text x="423" y="112" font-size="15.6" font-family="Arial, sans-serif" font-weight="700" fill="#959595">OnshoreGasPipeline</text><text x="406" y="76" font-size="8" font-family="Arial, sans-serif" font-weight="400" fill="#959595" style="fill:#fff;stroke:#fff;stroke-linecap:round;stroke-linejoin:round;stroke-width:.25em">1977</text><text x="406" y="76" font-size="8" font-family="Arial, sans-serif" font-weight="400" fill="#959595">1977</text><text x="514" y="83.6" font-size="15.6" font-family="Arial, sans-serif" font-weight="700" fill="#959595" style="fill:#fff;stroke:#fff;stroke-linecap:round;stroke-linejoin:round;stroke-width:.25em">WindTurbine</text><text x="514" y="83.6" font-size="15.6" font-family="Arial, sans-serif" font-weight="700" fill="#959595">WindTurbine</text><text x="332" y="87" font-size="8" font-family="Arial, sans-serif" font-weight="400" fill="#959595" style="fill:#fff;stroke:#fff;stroke-linecap:round;stroke-linejoin:round;stroke-width:.25em">1978</text><text x="332" y="87" font-size="8" font-family="Arial, sans-serif" font-weight="400" fill="#959595">1978</text><text x="556" y="122" font-size="15.6" font-family="Arial, sans-serif" font-weight="700" fill="#959595" style="fill:#fff;stroke:#fff;stroke-linecap:round;stroke-linejoin:round;stroke-width:.25em">CCGT</text><text x="556" y="122" font-size="15.6" font-family="Arial, sans-serif" font-weight="700" fill="#959595">CCGT</text><text x="575.54" y="357" font-size="15.6" font-family="Arial, sans-serif" font-weight="700" fill="#959595" style="fill:#fff;stroke:#fff;stroke-linecap:round;stroke-linejoin:round;stroke-width:.25em">HardDiskDrive</text><text x="575.54" y="357" font-size="15.6" font-family="Arial, sans-serif" font-weight="700" fill="#959595">HardDiskDrive</text></g><g class="ScatterColorLegend clickable" style="cursor:pointer"><g class="legendMark"><path fill="#959595" d="M753 69.8h9v9h-9z"/><text font-size="12.6" x="767" y="78.1" style="font-weight:700"><tspan x="767" y="78.08">No data</tspan></text></g></g><path stroke="#ccc" d="M753 87.6h77"/><g class="clickable"><g class="ConnectedScatterLegend"><text font-size="12.6" x="753" y="106.7" fill="#333"><tspan x="753" y="106.68">1867</tspan></text><text font-size="12.6" x="806.8" y="106.7" fill="#333"><tspan x="806.78" y="106.68">2014</tspan></text><path stroke="#666" stroke-width="1" d="M786.22 102.4h15.56"/><circle cx="786.22" cy="102.4" r="2" fill="#666" stroke="#ccc" stroke-width=".2"/><circle cx="791.41" cy="102.4" r="2" fill="#666" stroke="#ccc" stroke-width=".2"/><circle cx="796.59" cy="102.4" r="2" fill="#666" stroke="#ccc" stroke-width=".2"/><path cx="801.78" cy="102.4" r="3" fill="#666" stroke="#ccc" stroke-width=".2" d="m798.78 99.4 6 3-6 3z"/></g></g></g><g class="SourcesFooter" style="fill:#777"><g style="fill:#777"><text font-size="12.6" x="15" y="582.5"><tspan x="15" y="582.48">Source: Lafond et al. (2017)</tspan></text></g><text font-size="12.6" x="796.4" y="582.5"><tspan x="796.44" y="582.48"><a style="fill:#777" class="cclogo" href="http://creativecommons.org/licenses/by/4.0/deed.en_US" target="_blank">CC BY</a></tspan></text></g></svg>