<svg xmlns="http://www.w3.org/2000/svg" version="1.1" style="font-family:Lato,'Helvetica Neue',Helvetica,Arial,sans-serif;font-size:18px;background-color:#fff;text-rendering:geometricPrecision;-webkit-font-smoothing:antialiased" width="850" height="600" viewBox="0 0 850 600"><g class="HeaderView"><g transform="matrix(.29 0 0 .29 774 15)"><svg className="owidLog" width="210" height="120" viewBox="0 0 210 120" fill="none" xmlns="http://www.w3.org/2000/svg"><g clip-path="url(#a)"><path d="M0 0h210v107.89H0V0z" fill="#002147"/><path d="M40.98 32.25c0 2.36-.38 4.53-1.12 6.51a14.26 14.26 0 0 1-8.1 8.4c-1.9.78-4.02 1.17-6.34 1.17a16.6 16.6 0 0 1-6.33-1.17 14.31 14.31 0 0 1-8.08-8.4 18.29 18.29 0 0 1-1.12-6.51c0-2.36.38-4.53 1.12-6.5.75-1.97 1.8-3.67 3.17-5.1a14.32 14.32 0 0 1 4.9-3.34c1.92-.8 4.03-1.19 6.34-1.19 2.32 0 4.43.4 6.34 1.19 1.92.8 3.56 1.9 4.93 3.34a14.87 14.87 0 0 1 3.17 5.1 18.1 18.1 0 0 1 1.12 6.5zm-4.38 0c0-1.94-.26-3.68-.8-5.22a10.91 10.91 0 0 0-2.24-3.89 9.68 9.68 0 0 0-3.52-2.46 11.95 11.95 0 0 0-4.62-.86c-1.68 0-3.21.28-4.6.86a9.88 9.88 0 0 0-3.54 2.46 10.91 10.91 0 0 0-2.24 3.9c-.53 1.53-.8 3.27-.8 5.2 0 1.94.27 3.68.8 5.22a11.17 11.17 0 0 0 2.24 3.9 10.01 10.01 0 0 0 3.55 2.44c1.38.56 2.9.83 4.6.83s3.24-.27 4.61-.83a9.8 9.8 0 0 0 3.52-2.44 11.17 11.17 0 0 0 2.25-3.9c.53-1.54.8-3.28.8-5.21zm26.22-6.54V48H60.5c-.56 0-.9-.27-1.05-.81l-.31-2.4a12.45 12.45 0 0 1-3.26 2.6c-1.2.64-2.58.96-4.13.96-1.22 0-2.3-.2-3.24-.6a6.52 6.52 0 0 1-2.33-1.7 7.37 7.37 0 0 1-1.43-2.67c-.3-1.04-.46-2.2-.46-3.45V25.7h3.91v14.22c0 1.68.38 2.99 1.15 3.91.77.93 1.96 1.39 3.54 1.39 1.16 0 2.24-.27 3.23-.82a10.42 10.42 0 0 0 2.8-2.28V25.7h3.91zm8.61 4.47a9.94 9.94 0 0 1 2.6-3.56 5.64 5.64 0 0 1 3.76-1.3c.47 0 .92.05 1.34.15.44.1.83.27 1.17.49l-.3 2.92c-.09.37-.3.55-.66.55-.2 0-.5-.04-.9-.13a6.21 6.21 0 0 0-3.24.18 4.23 4.23 0 0 0-1.47.92c-.42.4-.81.9-1.17 1.5-.33.58-.64 1.26-.92 2.02V48H67.7V25.71h2.25c.42 0 .72.08.88.25.16.16.27.44.33.83l.26 3.39zm61.16-13.7L122.75 48h-3.82l-7.99-24.05a21.95 21.95 0 0 1-.42-1.58 38.36 38.36 0 0 1-.44 1.58L102.05 48h-3.83L88.4 16.47h3.54c.38 0 .7.1.95.29.26.2.43.43.5.73l6.52 21.9.28 1.28.29 1.46.3-1.46.38-1.27 7.41-21.91c.1-.25.26-.48.51-.69.27-.22.58-.33.95-.33h1.23c.38 0 .69.1.92.29a1.77 1.77 0 0 1 .53.73l7.4 21.9a28.4 28.4 0 0 1 .68 2.62 29.52 29.52 0 0 1 .52-2.61l6.54-21.91a1.31 1.31 0 0 1 .48-.7c.27-.21.58-.32.95-.32h3.32zm9.35 8.88c1.63 0 3.1.27 4.4.82a9.43 9.43 0 0 1 5.46 5.94c.5 1.4.74 2.98.74 4.73 0 1.76-.25 3.34-.74 4.75a9.43 9.43 0 0 1-5.46 5.92c-1.3.52-2.77.79-4.4.79-1.64 0-3.12-.27-4.44-.8a9.42 9.42 0 0 1-3.35-2.3c-.92-1-1.63-2.2-2.13-3.61-.49-1.41-.73-3-.73-4.75s.24-3.33.73-4.73c.5-1.43 1.2-2.64 2.13-3.63a9.4 9.4 0 0 1 3.35-2.31c1.32-.55 2.8-.82 4.44-.82zm0 19.89c2.2 0 3.84-.73 4.93-2.2 1.08-1.48 1.63-3.54 1.63-6.18 0-2.66-.55-4.72-1.63-6.2-1.09-1.49-2.73-2.23-4.93-2.23-1.12 0-2.09.2-2.93.57a5.71 5.71 0 0 0-2.06 1.65 7.5 7.5 0 0 0-1.24 2.67c-.26 1.04-.4 2.22-.4 3.54 0 2.64.55 4.7 1.64 6.18 1.1 1.47 2.76 2.2 4.99 2.2zm17.97-15.07a9.94 9.94 0 0 1 2.6-3.56 5.64 5.64 0 0 1 3.76-1.3c.47 0 .91.05 1.34.15.44.1.83.27 1.16.49l-.28 2.92c-.09.37-.31.55-.66.55-.2 0-.5-.04-.9-.13a6.2 6.2 0 0 0-3.24.18 4.23 4.23 0 0 0-1.47.92c-.43.4-.82.9-1.17 1.5a13.1 13.1 0 0 0-.92 2.02V48h-3.94V25.71h2.24c.43 0 .72.08.88.25.17.16.28.44.33.83l.27 3.39zm15.04-14.59V48h-3.92V15.6h3.92zm19.55 15.43a6.22 6.22 0 0 0-2.38-2.05 6.7 6.7 0 0 0-2.86-.6c-2.07 0-3.66.75-4.77 2.23-1.12 1.48-1.68 3.6-1.68 6.33 0 1.46.13 2.7.38 3.74a7.29 7.29 0 0 0 1.1 2.56 4.35 4.35 0 0 0 1.78 1.45c.7.3 1.5.46 2.4.46 1.29 0 2.41-.3 3.36-.88a9.6 9.6 0 0 0 2.67-2.49V31.02zm3.91-15.43V48h-2.33c-.56 0-.9-.27-1.06-.81l-.35-2.71a12.13 12.13 0 0 1-3.25 2.77 8.28 8.28 0 0 1-4.23 1.06 7.31 7.31 0 0 1-6.14-2.9c-.73-.96-1.3-2.15-1.69-3.57a18.35 18.35 0 0 1 .07-9.48 11.29 11.29 0 0 1 1.89-3.7 8.7 8.7 0 0 1 7.06-3.34 7.96 7.96 0 0 1 6.12 2.62V15.59h3.91zM46.61 70.71V93H42.7V70.71h3.91zm.84-7c0 .39-.08.75-.24 1.09a2.81 2.81 0 0 1-1.52 1.47 2.67 2.67 0 0 1-2.16 0 2.9 2.9 0 0 1-1.45-1.47 2.67 2.67 0 0 1 0-2.16c.15-.35.35-.65.6-.9.25-.27.53-.47.85-.62a2.67 2.67 0 0 1 2.16 0c.35.15.65.35.9.62.27.25.47.55.62.9.16.34.24.7.24 1.08zm7.97 10.24c.49-.54 1-1.04 1.54-1.48a9.85 9.85 0 0 1 3.66-1.84 8.96 8.96 0 0 1 5.43.35c.94.4 1.72.97 2.33 1.71a7.36 7.36 0 0 1 1.43 2.67c.32 1.04.49 2.19.49 3.45V93h-3.94V78.81c0-1.69-.4-3-1.17-3.92-.76-.93-1.93-1.4-3.5-1.4a6.6 6.6 0 0 0-3.25.83c-1 .56-1.92 1.31-2.77 2.27V93h-3.94V70.71h2.35c.56 0 .9.28 1.04.82l.3 2.42zm57.7 3.3c0 2.36-.37 4.5-1.11 6.44a14.3 14.3 0 0 1-3.17 4.98 14.1 14.1 0 0 1-4.93 3.2c-1.9.76-4.02 1.13-6.33 1.13H85.8V61.47h11.77c2.31 0 4.42.39 6.33 1.15a13.8 13.8 0 0 1 8.1 8.18 17.75 17.75 0 0 1 1.12 6.45zm-4.37 0c0-1.94-.26-3.67-.8-5.2a10.94 10.94 0 0 0-2.23-3.87 9.57 9.57 0 0 0-3.53-2.42 12.23 12.23 0 0 0-4.61-.83h-7.5v24.62h7.5c1.7 0 3.24-.28 4.61-.84a9.7 9.7 0 0 0 3.53-2.4 10.94 10.94 0 0 0 2.24-3.87c.53-1.53.8-3.26.8-5.2zm19.8 5.72c-1.8.06-3.34.2-4.62.44-1.26.22-2.3.51-3.1.88-.8.36-1.37.8-1.74 1.3-.35.5-.53 1.05-.53 1.67 0 .58.1 1.1.3 1.52a3 3 0 0 0 .76 1.05c.34.27.73.46 1.17.6a6.13 6.13 0 0 0 1.45.17 7.28 7.28 0 0 0 3.5-.81 11.95 11.95 0 0 0 2.82-2.2v-4.62zm-12.65-9.11a12.73 12.73 0 0 1 3.98-2.66c1.43-.59 3-.88 4.73-.88 1.25 0 2.36.2 3.33.61a6.81 6.81 0 0 1 3.94 4.38c.33 1.04.5 2.19.5 3.43V93h-1.74a1.8 1.8 0 0 1-.88-.18c-.2-.13-.36-.38-.48-.74l-.44-2.12-1.72 1.46a9.48 9.48 0 0 1-3.74 1.7c-.69.15-1.46.23-2.3.23-.87 0-1.69-.12-2.45-.35a5.34 5.34 0 0 1-3.34-2.93 6.64 6.64 0 0 1-.49-2.64c0-.88.25-1.72.73-2.53a6.33 6.33 0 0 1 2.35-2.17c1.09-.63 2.5-1.15 4.25-1.54 1.75-.41 3.89-.65 6.42-.7v-1.75c0-1.73-.37-3.03-1.12-3.91-.75-.9-1.84-1.34-3.28-1.34-.97 0-1.78.12-2.44.37-.64.23-1.2.5-1.7.81l-1.23.82c-.33.23-.67.35-1 .35-.27 0-.5-.07-.69-.2a2.1 2.1 0 0 1-.48-.53l-.7-1.25zm27.67 19.5c-1.76 0-3.12-.5-4.07-1.48-.94-.98-1.41-2.4-1.41-4.25V74h-2.68a.9.9 0 0 1-.6-.2c-.16-.14-.24-.36-.24-.66v-1.56l3.65-.46.9-6.89a.9.9 0 0 1 .29-.52.88.88 0 0 1 .62-.22H142v7.67h6.44V74H142v13.38c0 .94.22 1.63.68 2.09.45.45 1.04.68 1.76.68a3.21 3.21 0 0 0 1.85-.53l.55-.35c.16-.12.3-.18.41-.18.2 0 .4.13.55.38l1.15 1.87a7.45 7.45 0 0 1-2.44 1.5 8.53 8.53 0 0 1-2.95.52zm19.68-10.4c-1.8.07-3.34.21-4.62.45-1.26.22-2.3.51-3.1.88-.8.36-1.37.8-1.74 1.3-.35.5-.53 1.05-.53 1.67 0 .58.1 1.1.3 1.52a2.9 2.9 0 0 0 .76 1.05c.34.27.73.46 1.17.6a6.13 6.13 0 0 0 1.45.17 7.3 7.3 0 0 0 3.5-.81 12.04 12.04 0 0 0 2.82-2.2v-4.62zm-12.65-9.1a12.72 12.72 0 0 1 3.99-2.66c1.42-.59 3-.88 4.72-.88 1.25 0 2.36.2 3.33.61a6.81 6.81 0 0 1 3.94 4.38c.33 1.04.5 2.19.5 3.43V93h-1.74a1.8 1.8 0 0 1-.88-.18c-.2-.13-.36-.38-.48-.74l-.44-2.12-1.72 1.46a9.48 9.48 0 0 1-3.74 1.7c-.69.15-1.46.23-2.3.23-.87 0-1.69-.12-2.45-.35a5.33 5.33 0 0 1-3.34-2.93 6.62 6.62 0 0 1-.49-2.64c0-.88.25-1.72.73-2.53a6.33 6.33 0 0 1 2.35-2.17c1.09-.63 2.5-1.15 4.25-1.54a31.2 31.2 0 0 1 6.42-.7v-1.75c0-1.73-.37-3.03-1.12-3.91-.75-.9-1.84-1.34-3.28-1.34-.97 0-1.78.12-2.44.37-.64.23-1.2.5-1.7.81l-1.22.82c-.34.23-.68.35-1.02.35-.26 0-.49-.07-.68-.2a1.88 1.88 0 0 1-.48-.53l-.7-1.25zM40.98 32.25c0 2.36-.38 4.53-1.12 6.51a14.26 14.26 0 0 1-8.1 8.4c-1.9.78-4.02 1.17-6.34 1.17a16.6 16.6 0 0 1-6.33-1.17 14.31 14.31 0 0 1-8.08-8.4 18.29 18.29 0 0 1-1.12-6.51c0-2.36.38-4.53 1.12-6.5.75-1.97 1.8-3.67 3.17-5.1a14.32 14.32 0 0 1 4.9-3.34c1.92-.8 4.03-1.19 6.34-1.19 2.32 0 4.43.4 6.34 1.19 1.92.8 3.56 1.9 4.93 3.34a14.87 14.87 0 0 1 3.17 5.1 18.1 18.1 0 0 1 1.12 6.5zm-4.38 0c0-1.94-.26-3.68-.8-5.22a10.91 10.91 0 0 0-2.24-3.89 9.68 9.68 0 0 0-3.52-2.46 11.95 11.95 0 0 0-4.62-.86c-1.68 0-3.21.28-4.6.86a9.88 9.88 0 0 0-3.54 2.46 10.91 10.91 0 0 0-2.24 3.9c-.53 1.53-.8 3.27-.8 5.2 0 1.94.27 3.68.8 5.22a11.17 11.17 0 0 0 2.24 3.9 10.01 10.01 0 0 0 3.55 2.44c1.38.56 2.9.83 4.6.83s3.24-.27 4.61-.83a9.8 9.8 0 0 0 3.52-2.44 11.17 11.17 0 0 0 2.25-3.9c.53-1.54.8-3.28.8-5.21zm26.22-6.54V48H60.5c-.56 0-.9-.27-1.05-.81l-.31-2.4a12.45 12.45 0 0 1-3.26 2.6c-1.2.64-2.58.96-4.13.96-1.22 0-2.3-.2-3.24-.6a6.52 6.52 0 0 1-2.33-1.7 7.37 7.37 0 0 1-1.43-2.67c-.3-1.04-.46-2.2-.46-3.45V25.7h3.91v14.22c0 1.68.38 2.99 1.15 3.91.77.93 1.96 1.39 3.54 1.39 1.16 0 2.24-.27 3.23-.82a10.42 10.42 0 0 0 2.8-2.28V25.7h3.91zm8.61 4.47a9.94 9.94 0 0 1 2.6-3.56 5.64 5.64 0 0 1 3.76-1.3c.47 0 .92.05 1.34.15.44.1.83.27 1.17.49l-.3 2.92c-.09.37-.3.55-.66.55-.2 0-.5-.04-.9-.13a6.21 6.21 0 0 0-3.24.18 4.23 4.23 0 0 0-1.47.92c-.42.4-.81.9-1.17 1.5-.33.58-.64 1.26-.92 2.02V48H67.7V25.71h2.25c.42 0 .72.08.88.25.16.16.27.44.33.83l.26 3.39zm61.16-13.7L122.75 48h-3.82l-7.99-24.05a21.95 21.95 0 0 1-.42-1.58 38.36 38.36 0 0 1-.44 1.58L102.05 48h-3.83L88.4 16.47h3.54c.38 0 .7.1.95.29.26.2.43.43.5.73l6.52 21.9.28 1.28.29 1.46.3-1.46.38-1.27 7.41-21.91c.1-.25.26-.48.51-.69.27-.22.58-.33.95-.33h1.23c.38 0 .69.1.92.29a1.77 1.77 0 0 1 .53.73l7.4 21.9a28.4 28.4 0 0 1 .68 2.62 29.52 29.52 0 0 1 .52-2.61l6.54-21.91a1.31 1.31 0 0 1 .48-.7c.27-.21.58-.32.95-.32h3.32zm9.35 8.88c1.63 0 3.1.27 4.4.82a9.43 9.43 0 0 1 5.46 5.94c.5 1.4.74 2.98.74 4.73 0 1.76-.25 3.34-.74 4.75a9.43 9.43 0 0 1-5.46 5.92c-1.3.52-2.77.79-4.4.79-1.64 0-3.12-.27-4.44-.8a9.42 9.42 0 0 1-3.35-2.3c-.92-1-1.63-2.2-2.13-3.61-.49-1.41-.73-3-.73-4.75s.24-3.33.73-4.73c.5-1.43 1.2-2.64 2.13-3.63a9.4 9.4 0 0 1 3.35-2.31c1.32-.55 2.8-.82 4.44-.82zm0 19.89c2.2 0 3.84-.73 4.93-2.2 1.08-1.48 1.63-3.54 1.63-6.18 0-2.66-.55-4.72-1.63-6.2-1.09-1.49-2.73-2.23-4.93-2.23-1.12 0-2.09.2-2.93.57a5.71 5.71 0 0 0-2.06 1.65 7.5 7.5 0 0 0-1.24 2.67c-.26 1.04-.4 2.22-.4 3.54 0 2.64.55 4.7 1.64 6.18 1.1 1.47 2.76 2.2 4.99 2.2zm17.97-15.07a9.94 9.94 0 0 1 2.6-3.56 5.64 5.64 0 0 1 3.76-1.3c.47 0 .91.05 1.34.15.44.1.83.27 1.16.49l-.28 2.92c-.09.37-.31.55-.66.55-.2 0-.5-.04-.9-.13a6.2 6.2 0 0 0-3.24.18 4.23 4.23 0 0 0-1.47.92c-.43.4-.82.9-1.17 1.5a13.1 13.1 0 0 0-.92 2.02V48h-3.94V25.71h2.24c.43 0 .72.08.88.25.17.16.28.44.33.83l.27 3.39zm15.04-14.59V48h-3.92V15.6h3.92zm19.55 15.43a6.22 6.22 0 0 0-2.38-2.05 6.7 6.7 0 0 0-2.86-.6c-2.07 0-3.66.75-4.77 2.23-1.12 1.48-1.68 3.6-1.68 6.33 0 1.46.13 2.7.38 3.74a7.29 7.29 0 0 0 1.1 2.56 4.35 4.35 0 0 0 1.78 1.45c.7.3 1.5.46 2.4.46 1.29 0 2.41-.3 3.36-.88a9.6 9.6 0 0 0 2.67-2.49V31.02zm3.91-15.43V48h-2.33c-.56 0-.9-.27-1.06-.81l-.35-2.71a12.13 12.13 0 0 1-3.25 2.77 8.28 8.28 0 0 1-4.23 1.06 7.31 7.31 0 0 1-6.14-2.9c-.73-.96-1.3-2.15-1.69-3.57a18.35 18.35 0 0 1 .07-9.48 11.29 11.29 0 0 1 1.89-3.7 8.7 8.7 0 0 1 7.06-3.34 7.96 7.96 0 0 1 6.12 2.62V15.59h3.91zM46.61 70.71V93H42.7V70.71h3.91zm.84-7c0 .39-.08.75-.24 1.09a2.81 2.81 0 0 1-1.52 1.47 2.67 2.67 0 0 1-2.16 0 2.9 2.9 0 0 1-1.45-1.47 2.67 2.67 0 0 1 0-2.16c.15-.35.35-.65.6-.9.25-.27.53-.47.85-.62a2.67 2.67 0 0 1 2.16 0c.35.15.65.35.9.62.27.25.47.55.62.9.16.34.24.7.24 1.08zm7.97 10.24c.49-.54 1-1.04 1.54-1.48a9.85 9.85 0 0 1 3.66-1.84 8.96 8.96 0 0 1 5.43.35c.94.4 1.72.97 2.33 1.71a7.36 7.36 0 0 1 1.43 2.67c.32 1.04.49 2.19.49 3.45V93h-3.94V78.81c0-1.69-.4-3-1.17-3.92-.76-.93-1.93-1.4-3.5-1.4a6.6 6.6 0 0 0-3.25.83c-1 .56-1.92 1.31-2.77 2.27V93h-3.94V70.71h2.35c.56 0 .9.28 1.04.82l.3 2.42zm57.7 3.3c0 2.36-.37 4.5-1.11 6.44a14.3 14.3 0 0 1-3.17 4.98 14.1 14.1 0 0 1-4.93 3.2c-1.9.76-4.02 1.13-6.33 1.13H85.8V61.47h11.77c2.31 0 4.42.39 6.33 1.15a13.8 13.8 0 0 1 8.1 8.18 17.75 17.75 0 0 1 1.12 6.45zm-4.37 0c0-1.94-.26-3.67-.8-5.2a10.94 10.94 0 0 0-2.23-3.87 9.57 9.57 0 0 0-3.53-2.42 12.23 12.23 0 0 0-4.61-.83h-7.5v24.62h7.5c1.7 0 3.24-.28 4.61-.84a9.7 9.7 0 0 0 3.53-2.4 10.94 10.94 0 0 0 2.24-3.87c.53-1.53.8-3.26.8-5.2zm19.8 5.72c-1.8.06-3.34.2-4.62.44-1.26.22-2.3.51-3.1.88-.8.36-1.37.8-1.74 1.3-.35.5-.53 1.05-.53 1.67 0 .58.1 1.1.3 1.52a3 3 0 0 0 .76 1.05c.34.27.73.46 1.17.6a6.13 6.13 0 0 0 1.45.17 7.28 7.28 0 0 0 3.5-.81 11.95 11.95 0 0 0 2.82-2.2v-4.62zm-12.65-9.11a12.73 12.73 0 0 1 3.98-2.66c1.43-.59 3-.88 4.73-.88 1.25 0 2.36.2 3.33.61a6.81 6.81 0 0 1 3.94 4.38c.33 1.04.5 2.19.5 3.43V93h-1.74a1.8 1.8 0 0 1-.88-.18c-.2-.13-.36-.38-.48-.74l-.44-2.12-1.72 1.46a9.48 9.48 0 0 1-3.74 1.7c-.69.15-1.46.23-2.3.23-.87 0-1.69-.12-2.45-.35a5.34 5.34 0 0 1-3.34-2.93 6.64 6.64 0 0 1-.49-2.64c0-.88.25-1.72.73-2.53a6.33 6.33 0 0 1 2.35-2.17c1.09-.63 2.5-1.15 4.25-1.54 1.75-.41 3.89-.65 6.42-.7v-1.75c0-1.73-.37-3.03-1.12-3.91-.75-.9-1.84-1.34-3.28-1.34-.97 0-1.78.12-2.44.37-.64.23-1.2.5-1.7.81l-1.23.82c-.33.23-.67.35-1 .35-.27 0-.5-.07-.69-.2a2.1 2.1 0 0 1-.48-.53l-.7-1.25zm27.67 19.5c-1.76 0-3.12-.5-4.07-1.48-.94-.98-1.41-2.4-1.41-4.25V74h-2.68a.9.9 0 0 1-.6-.2c-.16-.14-.24-.36-.24-.66v-1.56l3.65-.46.9-6.89a.9.9 0 0 1 .29-.52.88.88 0 0 1 .62-.22H142v7.67h6.44V74H142v13.38c0 .94.22 1.63.68 2.09.45.45 1.04.68 1.76.68a3.21 3.21 0 0 0 1.85-.53l.55-.35c.16-.12.3-.18.41-.18.2 0 .4.13.55.38l1.15 1.87a7.45 7.45 0 0 1-2.44 1.5 8.53 8.53 0 0 1-2.95.52zm19.68-10.4c-1.8.07-3.34.21-4.62.45-1.26.22-2.3.51-3.1.88-.8.36-1.37.8-1.74 1.3-.35.5-.53 1.05-.53 1.67 0 .58.1 1.1.3 1.52a2.9 2.9 0 0 0 .76 1.05c.34.27.73.46 1.17.6a6.13 6.13 0 0 0 1.45.17 7.3 7.3 0 0 0 3.5-.81 12.04 12.04 0 0 0 2.82-2.2v-4.62zm-12.65-9.1a12.72 12.72 0 0 1 3.99-2.66c1.42-.59 3-.88 4.72-.88 1.25 0 2.36.2 3.33.61a6.81 6.81 0 0 1 3.94 4.38c.33 1.04.5 2.19.5 3.43V93h-1.74a1.8 1.8 0 0 1-.88-.18c-.2-.13-.36-.38-.48-.74l-.44-2.12-1.72 1.46a9.48 9.48 0 0 1-3.74 1.7c-.69.15-1.46.23-2.3.23-.87 0-1.69-.12-2.45-.35a5.33 5.33 0 0 1-3.34-2.93 6.62 6.62 0 0 1-.49-2.64c0-.88.25-1.72.73-2.53a6.33 6.33 0 0 1 2.35-2.17c1.09-.63 2.5-1.15 4.25-1.54a31.2 31.2 0 0 1 6.42-.7v-1.75c0-1.73-.37-3.03-1.12-3.91-.75-.9-1.84-1.34-3.28-1.34-.97 0-1.78.12-2.44.37-.64.23-1.2.5-1.7.81l-1.22.82c-.34.23-.68.35-1.02.35-.26 0-.49-.07-.68-.2a1.88 1.88 0 0 1-.48-.53l-.7-1.25zM40.98 32.25c0 2.36-.38 4.53-1.12 6.51a14.26 14.26 0 0 1-8.1 8.4c-1.9.78-4.02 1.17-6.34 1.17a16.6 16.6 0 0 1-6.33-1.17 14.31 14.31 0 0 1-8.08-8.4 18.29 18.29 0 0 1-1.12-6.51c0-2.36.38-4.53 1.12-6.5.75-1.97 1.8-3.67 3.17-5.1a14.32 14.32 0 0 1 4.9-3.34c1.92-.8 4.03-1.19 6.34-1.19 2.32 0 4.43.4 6.34 1.19 1.92.8 3.56 1.9 4.93 3.34a14.87 14.87 0 0 1 3.17 5.1 18.1 18.1 0 0 1 1.12 6.5zm-4.38 0c0-1.94-.26-3.68-.8-5.22a10.91 10.91 0 0 0-2.24-3.89 9.68 9.68 0 0 0-3.52-2.46 11.95 11.95 0 0 0-4.62-.86c-1.68 0-3.21.28-4.6.86a9.88 9.88 0 0 0-3.54 2.46 10.91 10.91 0 0 0-2.24 3.9c-.53 1.53-.8 3.27-.8 5.2 0 1.94.27 3.68.8 5.22a11.17 11.17 0 0 0 2.24 3.9 10.01 10.01 0 0 0 3.55 2.44c1.38.56 2.9.83 4.6.83s3.24-.27 4.61-.83a9.8 9.8 0 0 0 3.52-2.44 11.17 11.17 0 0 0 2.25-3.9c.53-1.54.8-3.28.8-5.21zm26.22-6.54V48H60.5c-.56 0-.9-.27-1.05-.81l-.31-2.4a12.45 12.45 0 0 1-3.26 2.6c-1.2.64-2.58.96-4.13.96-1.22 0-2.3-.2-3.24-.6a6.52 6.52 0 0 1-2.33-1.7 7.37 7.37 0 0 1-1.43-2.67c-.3-1.04-.46-2.2-.46-3.45V25.7h3.91v14.22c0 1.68.38 2.99 1.15 3.91.77.93 1.96 1.39 3.54 1.39 1.16 0 2.24-.27 3.23-.82a10.42 10.42 0 0 0 2.8-2.28V25.7h3.91zm8.61 4.47a9.94 9.94 0 0 1 2.6-3.56 5.64 5.64 0 0 1 3.76-1.3c.47 0 .92.05 1.34.15.44.1.83.27 1.17.49l-.3 2.92c-.09.37-.3.55-.66.55-.2 0-.5-.04-.9-.13a6.21 6.21 0 0 0-3.24.18 4.23 4.23 0 0 0-1.47.92c-.42.4-.81.9-1.17 1.5-.33.58-.64 1.26-.92 2.02V48H67.7V25.71h2.25c.42 0 .72.08.88.25.16.16.27.44.33.83l.26 3.39zm61.16-13.7L122.75 48h-3.82l-7.99-24.05a21.95 21.95 0 0 1-.42-1.58 38.36 38.36 0 0 1-.44 1.58L102.05 48h-3.83L88.4 16.47h3.54c.38 0 .7.1.95.29.26.2.43.43.5.73l6.52 21.9.28 1.28.29 1.46.3-1.46.38-1.27 7.41-21.91c.1-.25.26-.48.51-.69.27-.22.58-.33.95-.33h1.23c.38 0 .69.1.92.29a1.77 1.77 0 0 1 .53.73l7.4 21.9a28.4 28.4 0 0 1 .68 2.62 29.52 29.52 0 0 1 .52-2.61l6.54-21.91a1.31 1.31 0 0 1 .48-.7c.27-.21.58-.32.95-.32h3.32zm9.35 8.88c1.63 0 3.1.27 4.4.82a9.43 9.43 0 0 1 5.46 5.94c.5 1.4.74 2.98.74 4.73 0 1.76-.25 3.34-.74 4.75a9.43 9.43 0 0 1-5.46 5.92c-1.3.52-2.77.79-4.4.79-1.64 0-3.12-.27-4.44-.8a9.42 9.42 0 0 1-3.35-2.3c-.92-1-1.63-2.2-2.13-3.61-.49-1.41-.73-3-.73-4.75s.24-3.33.73-4.73c.5-1.43 1.2-2.64 2.13-3.63a9.4 9.4 0 0 1 3.35-2.31c1.32-.55 2.8-.82 4.44-.82zm0 19.89c2.2 0 3.84-.73 4.93-2.2 1.08-1.48 1.63-3.54 1.63-6.18 0-2.66-.55-4.72-1.63-6.2-1.09-1.49-2.73-2.23-4.93-2.23-1.12 0-2.09.2-2.93.57a5.71 5.71 0 0 0-2.06 1.65 7.5 7.5 0 0 0-1.24 2.67c-.26 1.04-.4 2.22-.4 3.54 0 2.64.55 4.7 1.64 6.18 1.1 1.47 2.76 2.2 4.99 2.2zm17.97-15.07a9.94 9.94 0 0 1 2.6-3.56 5.64 5.64 0 0 1 3.76-1.3c.47 0 .91.05 1.34.15.44.1.83.27 1.16.49l-.28 2.92c-.09.37-.31.55-.66.55-.2 0-.5-.04-.9-.13a6.2 6.2 0 0 0-3.24.18 4.23 4.23 0 0 0-1.47.92c-.43.4-.82.9-1.17 1.5a13.1 13.1 0 0 0-.92 2.02V48h-3.94V25.71h2.24c.43 0 .72.08.88.25.17.16.28.44.33.83l.27 3.39zm15.04-14.59V48h-3.92V15.6h3.92zm19.55 15.43a6.22 6.22 0 0 0-2.38-2.05 6.7 6.7 0 0 0-2.86-.6c-2.07 0-3.66.75-4.77 2.23-1.12 1.48-1.68 3.6-1.68 6.33 0 1.46.13 2.7.38 3.74a7.29 7.29 0 0 0 1.1 2.56 4.35 4.35 0 0 0 1.78 1.45c.7.3 1.5.46 2.4.46 1.29 0 2.41-.3 3.36-.88a9.6 9.6 0 0 0 2.67-2.49V31.02zm3.91-15.43V48h-2.33c-.56 0-.9-.27-1.06-.81l-.35-2.71a12.13 12.13 0 0 1-3.25 2.77 8.28 8.28 0 0 1-4.23 1.06 7.31 7.31 0 0 1-6.14-2.9c-.73-.96-1.3-2.15-1.69-3.57a18.35 18.35 0 0 1 .07-9.48 11.29 11.29 0 0 1 1.89-3.7 8.7 8.7 0 0 1 7.06-3.34 7.96 7.96 0 0 1 6.12 2.62V15.59h3.91zM46.61 70.71V93H42.7V70.71h3.91zm.84-7c0 .39-.08.75-.24 1.09a2.81 2.81 0 0 1-1.52 1.47 2.67 2.67 0 0 1-2.16 0 2.9 2.9 0 0 1-1.45-1.47 2.67 2.67 0 0 1 0-2.16c.15-.35.35-.65.6-.9.25-.27.53-.47.85-.62a2.67 2.67 0 0 1 2.16 0c.35.15.65.35.9.62.27.25.47.55.62.9.16.34.24.7.24 1.08zm7.97 10.24c.49-.54 1-1.04 1.54-1.48a9.85 9.85 0 0 1 3.66-1.84 8.96 8.96 0 0 1 5.43.35c.94.4 1.72.97 2.33 1.71a7.36 7.36 0 0 1 1.43 2.67c.32 1.04.49 2.19.49 3.45V93h-3.94V78.81c0-1.69-.4-3-1.17-3.92-.76-.93-1.93-1.4-3.5-1.4a6.6 6.6 0 0 0-3.25.83c-1 .56-1.92 1.31-2.77 2.27V93h-3.94V70.71h2.35c.56 0 .9.28 1.04.82l.3 2.42zm57.7 3.3c0 2.36-.37 4.5-1.11 6.44a14.3 14.3 0 0 1-3.17 4.98 14.1 14.1 0 0 1-4.93 3.2c-1.9.76-4.02 1.13-6.33 1.13H85.8V61.47h11.77c2.31 0 4.42.39 6.33 1.15a13.8 13.8 0 0 1 8.1 8.18 17.75 17.75 0 0 1 1.12 6.45zm-4.37 0c0-1.94-.26-3.67-.8-5.2a10.94 10.94 0 0 0-2.23-3.87 9.57 9.57 0 0 0-3.53-2.42 12.23 12.23 0 0 0-4.61-.83h-7.5v24.62h7.5c1.7 0 3.24-.28 4.61-.84a9.7 9.7 0 0 0 3.53-2.4 10.94 10.94 0 0 0 2.24-3.87c.53-1.53.8-3.26.8-5.2zm19.8 5.72c-1.8.06-3.34.2-4.62.44-1.26.22-2.3.51-3.1.88-.8.36-1.37.8-1.74 1.3-.35.5-.53 1.05-.53 1.67 0 .58.1 1.1.3 1.52a3 3 0 0 0 .76 1.05c.34.27.73.46 1.17.6a6.13 6.13 0 0 0 1.45.17 7.28 7.28 0 0 0 3.5-.81 11.95 11.95 0 0 0 2.82-2.2v-4.62zm-12.65-9.11a12.73 12.73 0 0 1 3.98-2.66c1.43-.59 3-.88 4.73-.88 1.25 0 2.36.2 3.33.61a6.81 6.81 0 0 1 3.94 4.38c.33 1.04.5 2.19.5 3.43V93h-1.74a1.8 1.8 0 0 1-.88-.18c-.2-.13-.36-.38-.48-.74l-.44-2.12-1.72 1.46a9.48 9.48 0 0 1-3.74 1.7c-.69.15-1.46.23-2.3.23-.87 0-1.69-.12-2.45-.35a5.34 5.34 0 0 1-3.34-2.93 6.64 6.64 0 0 1-.49-2.64c0-.88.25-1.72.73-2.53a6.33 6.33 0 0 1 2.35-2.17c1.09-.63 2.5-1.15 4.25-1.54 1.75-.41 3.89-.65 6.42-.7v-1.75c0-1.73-.37-3.03-1.12-3.91-.75-.9-1.84-1.34-3.28-1.34-.97 0-1.78.12-2.44.37-.64.23-1.2.5-1.7.81l-1.23.82c-.33.23-.67.35-1 .35-.27 0-.5-.07-.69-.2a2.1 2.1 0 0 1-.48-.53l-.7-1.25zm27.67 19.5c-1.76 0-3.12-.5-4.07-1.48-.94-.98-1.41-2.4-1.41-4.25V74h-2.68a.9.9 0 0 1-.6-.2c-.16-.14-.24-.36-.24-.66v-1.56l3.65-.46.9-6.89a.9.9 0 0 1 .29-.52.88.88 0 0 1 .62-.22H142v7.67h6.44V74H142v13.38c0 .94.22 1.63.68 2.09.45.45 1.04.68 1.76.68a3.21 3.21 0 0 0 1.85-.53l.55-.35c.16-.12.3-.18.41-.18.2 0 .4.13.55.38l1.15 1.87a7.45 7.45 0 0 1-2.44 1.5 8.53 8.53 0 0 1-2.95.52zm19.68-10.4c-1.8.07-3.34.21-4.62.45-1.26.22-2.3.51-3.1.88-.8.36-1.37.8-1.74 1.3-.35.5-.53 1.05-.53 1.67 0 .58.1 1.1.3 1.52a2.9 2.9 0 0 0 .76 1.05c.34.27.73.46 1.17.6a6.13 6.13 0 0 0 1.45.17 7.3 7.3 0 0 0 3.5-.81 12.04 12.04 0 0 0 2.82-2.2v-4.62zm-12.65-9.1a12.72 12.72 0 0 1 3.99-2.66c1.42-.59 3-.88 4.72-.88 1.25 0 2.36.2 3.33.61a6.81 6.81 0 0 1 3.94 4.38c.33 1.04.5 2.19.5 3.43V93h-1.74a1.8 1.8 0 0 1-.88-.18c-.2-.13-.36-.38-.48-.74l-.44-2.12-1.72 1.46a9.48 9.48 0 0 1-3.74 1.7c-.69.15-1.46.23-2.3.23-.87 0-1.69-.12-2.45-.35a5.33 5.33 0 0 1-3.34-2.93 6.62 6.62 0 0 1-.49-2.64c0-.88.25-1.72.73-2.53a6.33 6.33 0 0 1 2.35-2.17c1.09-.63 2.5-1.15 4.25-1.54a31.2 31.2 0 0 1 6.42-.7v-1.75c0-1.73-.37-3.03-1.12-3.91-.75-.9-1.84-1.34-3.28-1.34-.97 0-1.78.12-2.44.37-.64.23-1.2.5-1.7.81l-1.22.82c-.34.23-.68.35-1.02.35-.26 0-.49-.07-.68-.2a1.88 1.88 0 0 1-.48-.53l-.7-1.25z" fill="#fff"/><path fill="#D42B21" d="M0 106.79h210V120H0z"/></g><defs><clipPath id="a"><path fill="#fff" d="M0 0h210v120H0z"/></clipPath></defs></svg></g><a href="https://ourworldindata.org/grapher/poverty-share-living-on-less-than-190-int-per-day-slope" style="font-family:&quot;Playfair Display&quot;,Georgia,&quot;Times New Roman&quot;,serif" target="_blank" rel="noopener"><text font-size="25.2" x="15" y="35.2" fill="#555"><tspan x="15" y="35.16">Share of population in extreme poverty, 1981 to 2019</tspan></text></a><text font-size="14.4" x="15" y="55.7" fill="#666"><tspan x="15" y="55.72">Adjusted for inflation and price differences between countries. Extreme poverty is defined as living below the</tspan><tspan x="15" y="73">international poverty line of 1.90 int.-$ per day.</tspan></text></g><g class="slopeChart"><g class="LabelledSlopes"><g class="gridlines" stroke="#eee" stroke-dasharray="3,2"><path d="M235.06 482.8h259.88M235.06 400.89h259.88M235.06 318.98h259.88M235.06 237.07h259.88M235.06 155.16h259.88"/></g><g class="axis" font-size=".8em" fill="#666" dominant-baseline="middle" text-anchor="start"><text x="15" y="482.8">0%</text><text x="15" y="400.89">20%</text><text x="15" y="318.98">40%</text><text x="15" y="237.07">60%</text><text x="15" y="155.16">80%</text></g><g class="axis" font-size=".8em" fill="#666" dominant-baseline="middle" text-anchor="end"><text x="715" y="482.8">0%</text><text x="715" y="400.89">20%</text><text x="715" y="318.98">40%</text><text x="715" y="237.07">60%</text><text x="715" y="155.16">80%</text></g><path stroke="#333" d="M235.06 482.8V92.2M494.94 482.8V92.2"/><text x="235.06" y="507.2" text-anchor="middle" fill="#666" font-size="18">1981</text><text x="494.94" y="507.2" text-anchor="middle" fill="#666" font-size="18">2019</text><g class="slopes"><g class="slope"><circle cx="235.06" cy="154.28" r="2" fill="#ff7f0e" opacity=".5"/><path stroke="#ff7f0e" stroke-width="1" opacity=".5" d="M235.06 154.28 494.94 478.8"/><circle cx="494.94" cy="478.8" r="2" fill="#ff7f0e" opacity=".5"/></g><g class="slope"><circle cx="235.06" cy="426.57" r="2" fill="#ff7f0e" opacity=".5"/><path stroke="#ff7f0e" stroke-width="1" opacity=".5" d="m235.06 426.57 259.88 40.88"/><circle cx="494.94" cy="467.45" r="2" fill="#ff7f0e" opacity=".5"/></g><g class="slope"><circle cx="235.06" cy="480.06" r="2" fill="#ff7f0e" opacity=".5"/><path stroke="#ff7f0e" stroke-width="1" opacity=".5" d="m235.06 480.06 259.88-3.23"/><circle cx="494.94" cy="476.83" r="2" fill="#ff7f0e" opacity=".5"/></g><g class="slope"><circle cx="235.06" cy="92.2" r="2" fill="#ff7f0e" opacity=".5"/><path stroke="#ff7f0e" stroke-width="1" opacity=".5" d="m235.06 92.2 259.88 389.05"/><circle cx="494.94" cy="481.25" r="2" fill="#ff7f0e" opacity=".5"/></g><g class="slope"><circle cx="235.06" cy="240.43" r="2" fill="#ff7f0e" opacity=".5"/><path stroke="#ff7f0e" stroke-width="1" opacity=".5" d="m235.06 240.43 259.88 242.02"/><circle cx="494.94" cy="482.45" r="2" fill="#ff7f0e" opacity=".5"/></g><g class="slope"><circle cx="235.06" cy="151.97" r="2" fill="#ff7f0e" opacity=".5"/><path stroke="#ff7f0e" stroke-width="1" opacity=".5" d="m235.06 151.97 259.88 318.86"/><circle cx="494.94" cy="470.83" r="2" fill="#ff7f0e" opacity=".5"/></g><g class="slope"><circle cx="235.06" cy="276.75" r="2" fill="#ff7f0e" opacity=".5"/><path stroke="#ff7f0e" stroke-width="1" opacity=".5" d="m235.06 276.75 259.88 194.4"/><circle cx="494.94" cy="471.15" r="2" fill="#ff7f0e" opacity=".5"/></g><g class="slope"><circle cx="235.06" cy="480.24" r="2" fill="#ff7f0e" opacity=".5"/><path stroke="#ff7f0e" stroke-width="1" opacity=".5" d="m235.06 480.24 259.88.09"/><circle cx="494.94" cy="480.33" r="2" fill="#ff7f0e" opacity=".5"/></g><g class="slope"><text font-size="11.7" x="183.2" y="410.9" text-anchor="end" fill="#333"><tspan x="183.16" y="410.88">Suriname (Urban)</tspan></text><text x="227.06" y="410.88" text-anchor="end" font-size="11.7" fill="#333">18.42%</text><circle cx="235.06" cy="407.37" r="2" fill="#ff7f0e" opacity=".5"/><path stroke="#ff7f0e" stroke-width="1" opacity=".5" d="M235.06 407.37 494.94 411"/><circle cx="494.94" cy="411" r="2" fill="#ff7f0e" opacity=".5"/></g><g class="slope"><circle cx="235.06" cy="454.05" r="2" fill="#A8633C" opacity=".5"/><path stroke="#A8633C" stroke-width="1" opacity=".5" d="m235.06 454.05 259.88-16.59"/><circle cx="494.94" cy="437.46" r="2" fill="#A8633C" opacity=".5"/></g><g class="slope"><circle cx="235.06" cy="469.88" r="2" fill="#923E8B" opacity=".5"/><path stroke="#923E8B" stroke-width="1" opacity=".5" d="m235.06 469.88 259.88 11.28"/><circle cx="494.94" cy="481.16" r="2" fill="#923E8B" opacity=".5"/></g><g class="slope"><circle cx="235.06" cy="454.31" r="2" fill="#A8633C" opacity=".5"/><path stroke="#A8633C" stroke-width="1" opacity=".5" d="m235.06 454.31 259.88 26.1"/><circle cx="494.94" cy="480.41" r="2" fill="#A8633C" opacity=".5"/></g><g class="slope"><circle cx="235.06" cy="424.5" r="2" fill="#923E8B" opacity=".5"/><path stroke="#923E8B" stroke-width="1" opacity=".5" d="m235.06 424.5 259.88-86.89"/><circle cx="494.94" cy="337.61" r="2" fill="#923E8B" opacity=".5"/></g><g class="slope"><circle cx="235.06" cy="406.61" r="2" fill="#A8633C" opacity=".5"/><path stroke="#A8633C" stroke-width="1" opacity=".5" d="m235.06 406.61 259.88 18.19"/><circle cx="494.94" cy="424.8" r="2" fill="#A8633C" opacity=".5"/></g><g class="slope"><text font-size="11.7" x="183.2" y="211.7" text-anchor="end" fill="#333"><tspan x="183.16" y="211.68">Saint Lucia</tspan></text><text x="227.06" y="211.68" text-anchor="end" font-size="11.7" fill="#333">67.06%</text><circle cx="235.06" cy="208.17" r="2" fill="#E04E4B" opacity=".5"/><path stroke="#E04E4B" stroke-width="1" opacity=".5" d="m235.06 208.17 259.88 256.72"/><circle cx="494.94" cy="464.89" r="2" fill="#E04E4B" opacity=".5"/></g><g class="slope"><circle cx="235.06" cy="390.22" r="2" fill="#E04E4B" opacity=".5"/><path stroke="#E04E4B" stroke-width="1" opacity=".5" d="m235.06 390.22 259.88 33.64"/><circle cx="494.94" cy="423.86" r="2" fill="#E04E4B" opacity=".5"/></g><g class="slope"><circle cx="235.06" cy="453.3" r="2" fill="#A8633C" opacity=".5"/><path stroke="#A8633C" stroke-width="1" opacity=".5" d="m235.06 453.3 259.88 27.21"/><circle cx="494.94" cy="480.51" r="2" fill="#A8633C" opacity=".5"/></g><g class="slope"><circle cx="235.06" cy="311.57" r="2" fill="#2D8587" opacity=".5"/><path stroke="#2D8587" stroke-width="1" opacity=".5" d="M235.06 311.57 494.94 482.8"/><circle cx="494.94" cy="482.8" r="2" fill="#2D8587" opacity=".5"/></g><g class="slope"><circle cx="235.06" cy="482.65" r="2" fill="#4C5C78" opacity=".5"/><path stroke="#4C5C78" stroke-width="1" opacity=".5" d="m235.06 482.65 259.88.15"/><circle cx="494.94" cy="482.8" r="2" fill="#4C5C78" opacity=".5"/></g><g class="slope"><circle cx="235.06" cy="328.47" r="2" fill="#A8633C" opacity=".5"/><path stroke="#A8633C" stroke-width="1" opacity=".5" d="m235.06 328.47 259.88 60.36"/><circle cx="494.94" cy="388.83" r="2" fill="#A8633C" opacity=".5"/></g><g class="slope"><circle cx="235.06" cy="209.05" r="2" fill="#923E8B" opacity=".5"/><path stroke="#923E8B" stroke-width="1" opacity=".5" d="m235.06 209.05 259.88 265.1"/><circle cx="494.94" cy="474.15" r="2" fill="#923E8B" opacity=".5"/></g><g class="slope"><circle cx="235.06" cy="431.04" r="2" fill="#923E8B" opacity=".5"/><path stroke="#923E8B" stroke-width="1" opacity=".5" d="m235.06 431.04 259.88-23.26"/><circle cx="494.94" cy="407.78" r="2" fill="#923E8B" opacity=".5"/></g><g class="slope"><circle cx="235.06" cy="479.95" r="2" fill="#4C5C78" opacity=".5"/><path stroke="#4C5C78" stroke-width="1" opacity=".5" d="m235.06 479.95 259.88 2.43"/><circle cx="494.94" cy="482.38" r="2" fill="#4C5C78" opacity=".5"/></g><g class="slope"><circle cx="235.06" cy="482.8" r="2" fill="#4C5C78" opacity=".5"/><path stroke="#4C5C78" stroke-width="1" opacity=".5" d="m235.06 482.8 259.88-1.17"/><circle cx="494.94" cy="481.63" r="2" fill="#4C5C78" opacity=".5"/></g><g class="slope"><circle cx="235.06" cy="471.59" r="2" fill="#923E8B" opacity=".5"/><path stroke="#923E8B" stroke-width="1" opacity=".5" d="m235.06 471.59 259.88-47.22"/><circle cx="494.94" cy="424.37" r="2" fill="#923E8B" opacity=".5"/></g><g class="slope"><circle cx="235.06" cy="167.24" r="2" fill="#2D8587" opacity=".5"/><path stroke="#2D8587" stroke-width="1" opacity=".5" d="m235.06 167.24 259.88 312.87"/><circle cx="494.94" cy="480.11" r="2" fill="#2D8587" opacity=".5"/></g><g class="slope"><circle cx="235.06" cy="482.09" r="2" fill="#4C5C78" opacity=".5"/><path stroke="#4C5C78" stroke-width="1" opacity=".5" d="m235.06 482.09 259.88-8.27"/><circle cx="494.94" cy="473.82" r="2" fill="#4C5C78" opacity=".5"/></g><g class="slope"><circle cx="235.06" cy="108.33" r="2" fill="#923E8B" opacity=".5"/><path stroke="#923E8B" stroke-width="1" opacity=".5" d="m235.06 108.33 259.88 261.71"/><circle cx="494.94" cy="370.04" r="2" fill="#923E8B" opacity=".5"/></g><g class="slope"><circle cx="235.06" cy="465.59" r="2" fill="#A8633C" opacity=".5"/><path stroke="#A8633C" stroke-width="1" opacity=".5" d="m235.06 465.59 259.88 16.34"/><circle cx="494.94" cy="481.93" r="2" fill="#A8633C" opacity=".5"/></g><g class="slope"><circle cx="235.06" cy="209.82" r="2" fill="#923E8B" opacity=".5"/><path stroke="#923E8B" stroke-width="1" opacity=".5" d="m235.06 209.82 259.88 240.31"/><circle cx="494.94" cy="450.13" r="2" fill="#923E8B" opacity=".5"/></g><g class="slope"><circle cx="235.06" cy="482" r="2" fill="#4C5C78" opacity=".5"/><path stroke="#4C5C78" stroke-width="1" opacity=".5" d="m235.06 482 259.88.73"/><circle cx="494.94" cy="482.73" r="2" fill="#4C5C78" opacity=".5"/></g><g class="slope"><circle cx="235.06" cy="468.83" r="2" fill="#923E8B" opacity=".5"/><path stroke="#923E8B" stroke-width="1" opacity=".5" d="m235.06 468.83 259.88-.02"/><circle cx="494.94" cy="468.81" r="2" fill="#923E8B" opacity=".5"/></g><g class="slope"><circle cx="235.06" cy="387.17" r="2" fill="#932834" opacity=".5"/><path stroke="#932834" stroke-width="1" opacity=".5" d="m235.06 387.17 259.88 71"/><circle cx="494.94" cy="458.17" r="2" fill="#932834" opacity=".5"/></g><g class="slope"><circle cx="235.06" cy="280.63" r="2" fill="#923E8B" opacity=".5"/><path stroke="#923E8B" stroke-width="1" opacity=".5" d="m235.06 280.63 259.88-54.42"/><circle cx="494.94" cy="226.21" r="2" fill="#923E8B" opacity=".5"/></g><g class="slope"><circle cx="235.06" cy="269.31" r="2" fill="#923E8B" opacity=".5"/><path stroke="#923E8B" stroke-width="1" opacity=".5" d="m235.06 269.31 259.88 159.88"/><circle cx="494.94" cy="429.19" r="2" fill="#923E8B" opacity=".5"/></g><g class="slope"><circle cx="235.06" cy="399.13" r="2" fill="#923E8B" opacity=".5"/><path stroke="#923E8B" stroke-width="1" opacity=".5" d="m235.06 399.13 259.88 83.16"/><circle cx="494.94" cy="482.29" r="2" fill="#923E8B" opacity=".5"/></g><g class="slope"><circle cx="235.06" cy="287.14" r="2" fill="#923E8B" opacity=".5"/><path stroke="#923E8B" stroke-width="1" opacity=".5" d="m235.06 287.14 259.88 130.33"/><circle cx="494.94" cy="417.47" r="2" fill="#923E8B" opacity=".5"/></g><g class="slope"><circle cx="235.06" cy="482.8" r="2" fill="#2D8587" opacity=".5"/><path stroke="#2D8587" stroke-width="1" opacity=".5" d="M235.06 482.8h259.88"/><circle cx="494.94" cy="482.8" r="2" fill="#2D8587" opacity=".5"/></g><g class="slope"><circle cx="235.06" cy="482.8" r="2" fill="#E04E4B" opacity=".5"/><path stroke="#E04E4B" stroke-width="1" opacity=".5" d="m235.06 482.8 259.88-1.16"/><circle cx="494.94" cy="481.64" r="2" fill="#E04E4B" opacity=".5"/></g><g class="slope"><circle cx="235.06" cy="270.76" r="2" fill="#923E8B" opacity=".5"/><path stroke="#923E8B" stroke-width="1" opacity=".5" d="m235.06 270.76 259.88 95.33"/><circle cx="494.94" cy="366.09" r="2" fill="#923E8B" opacity=".5"/></g><g class="slope"><circle cx="235.06" cy="480.05" r="2" fill="#4C5C78" opacity=".5"/><path stroke="#4C5C78" stroke-width="1" opacity=".5" d="m235.06 480.05 259.88 1.82"/><circle cx="494.94" cy="481.87" r="2" fill="#4C5C78" opacity=".5"/></g><g class="slope"><circle cx="235.06" cy="470.54" r="2" fill="#2D8587" opacity=".5"/><path stroke="#2D8587" stroke-width="1" opacity=".5" d="m235.06 470.54 259.88 8.6"/><circle cx="494.94" cy="479.14" r="2" fill="#2D8587" opacity=".5"/></g><g class="slope"><circle cx="235.06" cy="334.15" r="2" fill="#923E8B" opacity=".5"/><path stroke="#923E8B" stroke-width="1" opacity=".5" d="M235.06 334.15 494.94 460.9"/><circle cx="494.94" cy="460.9" r="2" fill="#923E8B" opacity=".5"/></g><g class="slope"><circle cx="235.06" cy="431.37" r="2" fill="#2D8587" opacity=".5"/><path stroke="#2D8587" stroke-width="1.01" opacity=".5" d="m235.06 431.37 259.88 50.45"/><circle cx="494.94" cy="481.82" r="2" fill="#2D8587" opacity=".5"/></g><g class="slope"><circle cx="235.06" cy="265.33" r="2" fill="#923E8B" opacity=".5"/><path stroke="#923E8B" stroke-width="1.01" opacity=".5" d="m235.06 265.33 259.88-10.44"/><circle cx="494.94" cy="254.89" r="2" fill="#923E8B" opacity=".5"/></g><g class="slope"><circle cx="235.06" cy="482.74" r="2" fill="#4C5C78" opacity=".5"/><path stroke="#4C5C78" stroke-width="1.01" opacity=".5" d="m235.06 482.74 259.88.06"/><circle cx="494.94" cy="482.8" r="2" fill="#4C5C78" opacity=".5"/></g><g class="slope"><circle cx="235.06" cy="467.56" r="2" fill="#923E8B" opacity=".5"/><path stroke="#923E8B" stroke-width="1.01" opacity=".5" d="m235.06 467.56 259.88-182.04"/><circle cx="494.94" cy="285.52" r="2" fill="#923E8B" opacity=".5"/></g><g class="slope"><circle cx="235.06" cy="482.8" r="2" fill="#4C5C78" opacity=".5"/><path stroke="#4C5C78" stroke-width="1.01" opacity=".5" d="m235.06 482.8 259.88-13.61"/><circle cx="494.94" cy="469.19" r="2" fill="#4C5C78" opacity=".5"/></g><g class="slope"><circle cx="235.06" cy="445.71" r="2" fill="#E04E4B" opacity=".5"/><path stroke="#E04E4B" stroke-width="1.01" opacity=".5" d="m235.06 445.71 259.88 32.1"/><circle cx="494.94" cy="477.81" r="2" fill="#E04E4B" opacity=".5"/></g><g class="slope"><circle cx="235.06" cy="454.92" r="2" fill="#E04E4B" opacity=".5"/><path stroke="#E04E4B" stroke-width="1.01" opacity=".5" d="m235.06 454.92 259.88 20.53"/><circle cx="494.94" cy="475.45" r="2" fill="#E04E4B" opacity=".5"/></g><g class="slope"><circle cx="235.06" cy="158.84" r="2" fill="#923E8B" opacity=".5"/><path stroke="#923E8B" stroke-width="1.01" opacity=".5" d="M235.06 158.84 494.94 193"/><circle cx="494.94" cy="193" r="2" fill="#923E8B" opacity=".5"/></g><g class="slope"><circle cx="235.06" cy="379.8" r="2" fill="#E04E4B" opacity=".5"/><path stroke="#E04E4B" stroke-width="1.01" opacity=".5" d="m235.06 379.8 259.88 98.85"/><circle cx="494.94" cy="478.65" r="2" fill="#E04E4B" opacity=".5"/></g><g class="slope"><circle cx="235.06" cy="482.8" r="2" fill="#2D8587" opacity=".5"/><path stroke="#2D8587" stroke-width="1.01" opacity=".5" d="m235.06 482.8 259.88-.43"/><circle cx="494.94" cy="482.37" r="2" fill="#2D8587" opacity=".5"/></g><g class="slope"><circle cx="235.06" cy="482.8" r="2" fill="#4C5C78" opacity=".5"/><path stroke="#4C5C78" stroke-width="1.01" opacity=".5" d="m235.06 482.8 259.88-1.4"/><circle cx="494.94" cy="481.4" r="2" fill="#4C5C78" opacity=".5"/></g><g class="slope"><circle cx="235.06" cy="482.55" r="2" fill="#2D8587" opacity=".5"/><path stroke="#2D8587" stroke-width="1.01" opacity=".5" d="m235.06 482.55 259.88.25"/><circle cx="494.94" cy="482.8" r="2" fill="#2D8587" opacity=".5"/></g><g class="slope"><circle cx="235.06" cy="480.9" r="2" fill="#4C5C78" opacity=".5"/><path stroke="#4C5C78" stroke-width="1.01" opacity=".5" d="m235.06 480.9 259.88-1.66"/><circle cx="494.94" cy="479.24" r="2" fill="#4C5C78" opacity=".5"/></g><g class="slope"><circle cx="235.06" cy="319.66" r="2" fill="#923E8B" opacity=".5"/><path stroke="#923E8B" stroke-width="1.01" opacity=".5" d="m235.06 319.66 259.88-22.34"/><circle cx="494.94" cy="297.32" r="2" fill="#923E8B" opacity=".5"/></g><g class="slope"><circle cx="235.06" cy="479.95" r="2" fill="#932834" opacity=".5"/><path stroke="#932834" stroke-width="1.01" opacity=".5" d="m235.06 479.95 259.88 2.44"/><circle cx="494.94" cy="482.39" r="2" fill="#932834" opacity=".5"/></g><g class="slope"><circle cx="235.06" cy="375.82" r="2" fill="#2D8587" opacity=".5"/><path stroke="#2D8587" stroke-width="1.01" opacity=".5" d="m235.06 375.82 259.88 99.82"/><circle cx="494.94" cy="475.64" r="2" fill="#2D8587" opacity=".5"/></g><g class="slope"><circle cx="235.06" cy="468.33" r="2" fill="#2D8587" opacity=".5"/><path stroke="#2D8587" stroke-width="1.01" opacity=".5" d="m235.06 468.33 259.88 10.05"/><circle cx="494.94" cy="478.38" r="2" fill="#2D8587" opacity=".5"/></g><g class="slope"><circle cx="235.06" cy="476.75" r="2" fill="#932834" opacity=".5"/><path stroke="#932834" stroke-width="1.01" opacity=".5" d="m235.06 476.75 259.88 2.16"/><circle cx="494.94" cy="478.91" r="2" fill="#932834" opacity=".5"/></g><g class="slope"><circle cx="235.06" cy="296.93" r="2" fill="#2D8587" opacity=".5"/><path stroke="#2D8587" stroke-width="1.01" opacity=".5" d="m235.06 296.93 259.88 147.58"/><circle cx="494.94" cy="444.51" r="2" fill="#2D8587" opacity=".5"/></g><g class="slope"><circle cx="235.06" cy="427.99" r="2" fill="#E04E4B" opacity=".5"/><path stroke="#E04E4B" stroke-width="1.01" opacity=".5" d="m235.06 427.99 259.88 40.67"/><circle cx="494.94" cy="468.66" r="2" fill="#E04E4B" opacity=".5"/></g><g class="slope"><circle cx="235.06" cy="479.98" r="2" fill="#4C5C78" opacity=".5"/><path stroke="#4C5C78" stroke-width="1.01" opacity=".5" d="m235.06 479.98 259.88 1.82"/><circle cx="494.94" cy="481.8" r="2" fill="#4C5C78" opacity=".5"/></g><g class="slope"><circle cx="235.06" cy="482.8" r="2" fill="#4C5C78" opacity=".5"/><path stroke="#4C5C78" stroke-width="1.01" opacity=".5" d="m235.06 482.8 259.88-3.68"/><circle cx="494.94" cy="479.12" r="2" fill="#4C5C78" opacity=".5"/></g><g class="slope"><circle cx="235.06" cy="202.09" r="2" fill="#923E8B" opacity=".5"/><path stroke="#923E8B" stroke-width="1.01" opacity=".5" d="m235.06 202.09 259.88 116.63"/><circle cx="494.94" cy="318.72" r="2" fill="#923E8B" opacity=".5"/></g><g class="slope"><circle cx="235.06" cy="229.78" r="2" fill="#A8633C" opacity=".5"/><path stroke="#A8633C" stroke-width="1.01" opacity=".5" d="M235.06 229.78 494.94 375.6"/><circle cx="494.94" cy="375.6" r="2" fill="#A8633C" opacity=".5"/></g><g class="slope"><circle cx="235.06" cy="432.92" r="2" fill="#2D8587" opacity=".5"/><path stroke="#2D8587" stroke-width="1.01" opacity=".5" d="m235.06 432.92 259.88 47.61"/><circle cx="494.94" cy="480.53" r="2" fill="#2D8587" opacity=".5"/></g><g class="slope"><circle cx="235.06" cy="482.52" r="2" fill="#2D8587" opacity=".5"/><path stroke="#2D8587" stroke-width="1.01" opacity=".5" d="m235.06 482.52 259.88-.71"/><circle cx="494.94" cy="481.81" r="2" fill="#2D8587" opacity=".5"/></g><g class="slope"><circle cx="235.06" cy="303.2" r="2" fill="#E04E4B" opacity=".5"/><path stroke="#E04E4B" stroke-width="1.01" opacity=".5" d="m235.06 303.2 259.88 119.07"/><circle cx="494.94" cy="422.27" r="2" fill="#E04E4B" opacity=".5"/></g><g class="slope"><circle cx="235.06" cy="239.49" r="2" fill="#923E8B" opacity=".5"/><path stroke="#923E8B" stroke-width="1.01" opacity=".5" d="m235.06 239.49 259.88 65.64"/><circle cx="494.94" cy="305.13" r="2" fill="#923E8B" opacity=".5"/></g><g class="slope"><circle cx="235.06" cy="475.45" r="2" fill="#2D8587" opacity=".5"/><path stroke="#2D8587" stroke-width="1.01" opacity=".5" d="m235.06 475.45 259.88-1.7"/><circle cx="494.94" cy="473.75" r="2" fill="#2D8587" opacity=".5"/></g><g class="slope"><circle cx="235.06" cy="475.98" r="2" fill="#4C5C78" opacity=".5"/><path stroke="#4C5C78" stroke-width="1.01" opacity=".5" d="m235.06 475.98 259.88 6.75"/><circle cx="494.94" cy="482.73" r="2" fill="#4C5C78" opacity=".5"/></g><g class="slope"><circle cx="235.06" cy="481.85" r="2" fill="#4C5C78" opacity=".5"/><path stroke="#4C5C78" stroke-width="1.01" opacity=".5" d="m235.06 481.85 259.88-.09"/><circle cx="494.94" cy="481.76" r="2" fill="#4C5C78" opacity=".5"/></g><g class="slope"><circle cx="235.06" cy="474.69" r="2" fill="#4C5C78" opacity=".5"/><path stroke="#4C5C78" stroke-width="1.01" opacity=".5" d="m235.06 474.69 259.88 7.87"/><circle cx="494.94" cy="482.56" r="2" fill="#4C5C78" opacity=".5"/></g><g class="slope"><circle cx="235.06" cy="132.76" r="2" fill="#923E8B" opacity=".5"/><path stroke="#923E8B" stroke-width="1.01" opacity=".5" d="m235.06 132.76 259.88 24.34"/><circle cx="494.94" cy="157.1" r="2" fill="#923E8B" opacity=".5"/><text x="502.94" y="160.61" font-size="11.7" fill="#333">79.53%</text><text font-size="11.7" x="546.8" y="160.6" fill="#333"><tspan x="546.84" y="160.61">Burundi</tspan></text></g><g class="slope"><text font-size="11.7" x="183.2" y="169.5" text-anchor="end" fill="#333"><tspan x="183.16" y="169.53">Chad</tspan></text><text x="227.06" y="169.53" text-anchor="end" font-size="11.7" fill="#333">77.35%</text><circle cx="235.06" cy="166.02" r="2" fill="#923E8B" opacity=".5"/><path stroke="#923E8B" stroke-width="1.01" opacity=".5" d="m235.06 166.02 259.88 148.71"/><circle cx="494.94" cy="314.73" r="2" fill="#923E8B" opacity=".5"/></g><g class="slope"><circle cx="235.06" cy="482.62" r="2" fill="#4C5C78" opacity=".5"/><path stroke="#4C5C78" stroke-width="1.01" opacity=".5" d="m235.06 482.62 259.88-1.61"/><circle cx="494.94" cy="481.01" r="2" fill="#4C5C78" opacity=".5"/></g><g class="slope"><circle cx="235.06" cy="416.39" r="2" fill="#E04E4B" opacity=".5"/><path stroke="#E04E4B" stroke-width="1.01" opacity=".5" d="m235.06 416.39 259.88 61.28"/><circle cx="494.94" cy="477.67" r="2" fill="#E04E4B" opacity=".5"/></g><g class="slope"><circle cx="235.06" cy="482.8" r="2" fill="#4C5C78" opacity=".5"/><path stroke="#4C5C78" stroke-width="1.01" opacity=".5" d="m235.06 482.8 259.88-.23"/><circle cx="494.94" cy="482.57" r="2" fill="#4C5C78" opacity=".5"/></g><g class="slope"><circle cx="235.06" cy="102.85" r="2" fill="#923E8B" opacity=".5"/><path stroke="#923E8B" stroke-width="1.01" opacity=".5" d="m235.06 102.85 259.88 292.88"/><circle cx="494.94" cy="395.73" r="2" fill="#923E8B" opacity=".5"/></g><g class="slope"><circle cx="235.06" cy="482.8" r="2" fill="#2D8587" opacity=".5"/><path stroke="#2D8587" stroke-width="1.01" opacity=".5" d="m235.06 482.8 259.88-15.49"/><circle cx="494.94" cy="467.31" r="2" fill="#2D8587" opacity=".5"/></g><g class="slope"><circle cx="235.06" cy="480.76" r="2" fill="#4C5C78" opacity=".5"/><path stroke="#4C5C78" stroke-width="1.02" opacity=".5" d="m235.06 480.76 259.88 1.34"/><circle cx="494.94" cy="482.1" r="2" fill="#4C5C78" opacity=".5"/></g><g class="slope"><circle cx="235.06" cy="203.44" r="2" fill="#923E8B" opacity=".5"/><path stroke="#923E8B" stroke-width="1.02" opacity=".5" d="m235.06 203.44 259.88 78.8"/><circle cx="494.94" cy="282.24" r="2" fill="#923E8B" opacity=".5"/></g><g class="slope"><circle cx="235.06" cy="432.35" r="2" fill="#932834" opacity=".5"/><path stroke="#932834" stroke-width="1.02" opacity=".5" d="m235.06 432.35 259.88 37.18"/><circle cx="494.94" cy="469.53" r="2" fill="#932834" opacity=".5"/></g><g class="slope"><circle cx="235.06" cy="214.37" r="2" fill="#923E8B" opacity=".5"/><path stroke="#923E8B" stroke-width="1.02" opacity=".5" d="m235.06 214.37 259.88 155.81"/><circle cx="494.94" cy="370.18" r="2" fill="#923E8B" opacity=".5"/><text x="502.94" y="373.69" font-size="11.7" fill="#333">27.5%</text><text font-size="11.7" x="540.3" y="373.7" fill="#333"><tspan x="540.29" y="373.69">Senegal</tspan></text></g><g class="slope"><circle cx="235.06" cy="297.02" r="2" fill="#E04E4B" opacity=".5"/><path stroke="#E04E4B" stroke-width="1.02" opacity=".5" d="m235.06 297.02 259.88 102.5"/><circle cx="494.94" cy="399.52" r="2" fill="#E04E4B" opacity=".5"/></g><g class="slope"><circle cx="235.06" cy="461" r="2" fill="#E04E4B" opacity=".5"/><path stroke="#E04E4B" stroke-width="1.02" opacity=".5" d="m235.06 461 259.88 19.48"/><circle cx="494.94" cy="480.48" r="2" fill="#E04E4B" opacity=".5"/></g><g class="slope"><text font-size="11.7" x="183.2" y="289.2" text-anchor="end" fill="#333"><tspan x="183.16" y="289.23">Zambia</tspan></text><text x="227.06" y="289.23" text-anchor="end" font-size="11.7" fill="#333">48.12%</text><circle cx="235.06" cy="285.72" r="2" fill="#923E8B" opacity=".5"/><path stroke="#923E8B" stroke-width="1.02" opacity=".5" d="m235.06 285.72 259.88-42.59"/><circle cx="494.94" cy="243.13" r="2" fill="#923E8B" opacity=".5"/><text x="502.94" y="246.64" font-size="11.7" fill="#333">58.52%</text><text font-size="11.7" x="546.8" y="246.6" fill="#333"><tspan x="546.84" y="246.64">Zambia</tspan></text></g><g class="slope"><circle cx="235.06" cy="245.43" r="2" fill="#923E8B" opacity=".5"/><path stroke="#923E8B" stroke-width="1.02" opacity=".5" d="m235.06 245.43 259.88 76.46"/><circle cx="494.94" cy="321.89" r="2" fill="#923E8B" opacity=".5"/></g><g class="slope"><circle cx="235.06" cy="480.23" r="2" fill="#2D8587" opacity=".5"/><path stroke="#2D8587" stroke-width="1.02" opacity=".5" d="m235.06 480.23 259.88 2.57"/><circle cx="494.94" cy="482.8" r="2" fill="#2D8587" opacity=".5"/></g><g class="slope"><circle cx="235.06" cy="479.94" r="2" fill="#4C5C78" opacity=".5"/><path stroke="#4C5C78" stroke-width="1.02" opacity=".5" d="m235.06 479.94 259.88 2.74"/><circle cx="494.94" cy="482.68" r="2" fill="#4C5C78" opacity=".5"/></g><g class="slope"><circle cx="235.06" cy="212.69" r="2" fill="#923E8B" opacity=".5"/><path stroke="#923E8B" stroke-width="1.02" opacity=".5" d="m235.06 212.69 259.88-6.55"/><circle cx="494.94" cy="206.14" r="2" fill="#923E8B" opacity=".5"/></g><g class="slope"><circle cx="235.06" cy="416.51" r="2" fill="#923E8B" opacity=".5"/><path stroke="#923E8B" stroke-width="1.02" opacity=".5" d="m235.06 416.51 259.88 65.39"/><circle cx="494.94" cy="481.9" r="2" fill="#923E8B" opacity=".5"/></g><g class="slope"><circle cx="235.06" cy="131.76" r="2" fill="#923E8B" opacity=".5"/><path stroke="#923E8B" stroke-width="1.02" opacity=".5" d="m235.06 131.76 259.88 216.61"/><circle cx="494.94" cy="348.37" r="2" fill="#923E8B" opacity=".5"/></g><g class="slope"><circle cx="235.06" cy="122.83" r="2" fill="#923E8B" opacity=".5"/><path stroke="#923E8B" stroke-width="1.02" opacity=".5" d="m235.06 122.83 259.88 186.88"/><circle cx="494.94" cy="309.71" r="2" fill="#923E8B" opacity=".5"/><text x="502.94" y="313.22" font-size="11.7" fill="#333">42.26%</text><text font-size="11.7" x="546.8" y="313.2" fill="#333"><tspan x="546.84" y="313.22">Mali</tspan></text></g><g class="slope"><circle cx="235.06" cy="308.14" r="2" fill="#E04E4B" opacity=".5"/><path stroke="#E04E4B" stroke-width="1.02" opacity=".5" d="m235.06 308.14 259.88 147.47"/><circle cx="494.94" cy="455.61" r="2" fill="#E04E4B" opacity=".5"/></g><g class="slope"><circle cx="235.06" cy="482.8" r="2" fill="#4C5C78" opacity=".5"/><path stroke="#4C5C78" stroke-width="1.02" opacity=".5" d="m235.06 482.8 259.88-2.33"/><circle cx="494.94" cy="480.47" r="2" fill="#4C5C78" opacity=".5"/></g><g class="slope"><circle cx="235.06" cy="434.98" r="2" fill="#923E8B" opacity=".5"/><path stroke="#923E8B" stroke-width="1.02" opacity=".5" d="M235.06 434.98 494.94 320.9"/><circle cx="494.94" cy="320.9" r="2" fill="#923E8B" opacity=".5"/></g><g class="slope"><circle cx="235.06" cy="416.24" r="2" fill="#932834" opacity=".5"/><path stroke="#932834" stroke-width="1.02" opacity=".5" d="m235.06 416.24 259.88 51.88"/><circle cx="494.94" cy="468.12" r="2" fill="#932834" opacity=".5"/></g><g class="slope"><circle cx="235.06" cy="445.31" r="2" fill="#2D8587" opacity=".5"/><path stroke="#2D8587" stroke-width="1.02" opacity=".5" d="m235.06 445.31 259.88-186.5"/><circle cx="494.94" cy="258.81" r="2" fill="#2D8587" opacity=".5"/><text x="502.94" y="262.32" font-size="11.7" fill="#333">54.69%</text><text font-size="11.7" x="546.8" y="262.3" fill="#333"><tspan x="546.84" y="262.32">Yemen</tspan></text></g><g class="slope"><circle cx="235.06" cy="481.78" r="2" fill="#4C5C78" opacity=".5"/><path stroke="#4C5C78" stroke-width="1.02" opacity=".5" d="m235.06 481.78 259.88-1.82"/><circle cx="494.94" cy="479.96" r="2" fill="#4C5C78" opacity=".5"/></g><g class="slope"><circle cx="235.06" cy="464.81" r="2" fill="#923E8B" opacity=".5"/><path stroke="#923E8B" stroke-width="1.02" opacity=".5" d="m235.06 464.81 259.88-72.37"/><circle cx="494.94" cy="392.44" r="2" fill="#923E8B" opacity=".5"/></g><g class="slope"><circle cx="235.06" cy="376.91" r="2" fill="#923E8B" opacity=".5"/><path stroke="#923E8B" stroke-width="1.03" opacity=".5" d="m235.06 376.91 259.88-104.6"/><circle cx="494.94" cy="272.31" r="2" fill="#923E8B" opacity=".5"/><text x="502.94" y="275.82" font-size="11.7" fill="#333">51.4%</text><text font-size="11.7" x="540.3" y="275.8" fill="#333"><tspan x="540.29" y="275.82">Angola</tspan></text></g><g class="slope"><circle cx="235.06" cy="360.7" r="2" fill="#923E8B" opacity=".5"/><path stroke="#923E8B" stroke-width="1.03" opacity=".5" d="m235.06 360.7 259.88 28.84"/><circle cx="494.94" cy="389.54" r="2" fill="#923E8B" opacity=".5"/><text x="502.94" y="393.05" font-size="11.7" fill="#333">22.77%</text><text font-size="11.7" x="546.8" y="393.1" fill="#333"><tspan x="546.84" y="393.05">Cameroon</tspan></text></g><g class="slope"><circle cx="235.06" cy="482.55" r="2" fill="#4C5C78" opacity=".5"/><path stroke="#4C5C78" stroke-width="1.03" opacity=".5" d="m235.06 482.55 259.88-2.97"/><circle cx="494.94" cy="479.58" r="2" fill="#4C5C78" opacity=".5"/></g><g class="slope"><text font-size="11.7" x="183.2" y="266" text-anchor="end" fill="#333"><tspan x="183.16" y="266.02">Madagascar</tspan></text><text x="227.06" y="266.02" text-anchor="end" font-size="11.7" fill="#333">53.79%</text><circle cx="235.06" cy="262.51" r="2" fill="#923E8B" opacity=".5"/><path stroke="#923E8B" stroke-width="1.03" opacity=".5" d="m235.06 262.51 259.88-93.23"/><circle cx="494.94" cy="169.28" r="2" fill="#923E8B" opacity=".5"/><text x="502.94" y="172.79" font-size="11.7" fill="#333">76.55%</text><text font-size="11.7" x="546.8" y="172.8" fill="#333"><tspan x="546.84" y="172.79">Madagascar</tspan></text></g><g class="slope"><circle cx="235.06" cy="482.75" r="2" fill="#4C5C78" opacity=".5"/><path stroke="#4C5C78" stroke-width="1.03" opacity=".5" d="m235.06 482.75 259.88-.1"/><circle cx="494.94" cy="482.65" r="2" fill="#4C5C78" opacity=".5"/></g><g class="slope"><circle cx="235.06" cy="468.17" r="2" fill="#2D8587" opacity=".5"/><path stroke="#2D8587" stroke-width="1.03" opacity=".5" d="m235.06 468.17 259.88-126.95"/><circle cx="494.94" cy="341.22" r="2" fill="#2D8587" opacity=".5"/><text x="502.94" y="344.73" font-size="11.7" fill="#333">34.57%</text><text font-size="11.7" x="546.8" y="344.7" fill="#333"><tspan x="546.84" y="344.73">Syria</tspan></text></g><g class="slope"><circle cx="235.06" cy="482.5" r="2" fill="#4C5C78" opacity=".5"/><path stroke="#4C5C78" stroke-width="1.03" opacity=".5" d="m235.06 482.5 259.88.3"/><circle cx="494.94" cy="482.8" r="2" fill="#4C5C78" opacity=".5"/></g><g class="slope"><circle cx="235.06" cy="474.64" r="2" fill="#4C5C78" opacity=".5"/><path stroke="#4C5C78" stroke-width="1.03" opacity=".5" d="m235.06 474.64 259.88 7.59"/><circle cx="494.94" cy="482.23" r="2" fill="#4C5C78" opacity=".5"/></g><g class="slope"><circle cx="235.06" cy="476.55" r="2" fill="#4C5C78" opacity=".5"/><path stroke="#4C5C78" stroke-width="1.03" opacity=".5" d="m235.06 476.55 259.88 5.14"/><circle cx="494.94" cy="481.69" r="2" fill="#4C5C78" opacity=".5"/></g><g class="slope"><circle cx="235.06" cy="481.82" r="2" fill="#4C5C78" opacity=".5"/><path stroke="#4C5C78" stroke-width="1.03" opacity=".5" d="m235.06 481.82 259.88.65"/><circle cx="494.94" cy="482.47" r="2" fill="#4C5C78" opacity=".5"/></g><g class="slope"><circle cx="235.06" cy="482.8" r="2" fill="#4C5C78" opacity=".5"/><path stroke="#4C5C78" stroke-width="1.03" opacity=".5" d="m235.06 482.8 259.88-.04"/><circle cx="494.94" cy="482.76" r="2" fill="#4C5C78" opacity=".5"/></g><g class="slope"><circle cx="235.06" cy="482.54" r="2" fill="#4C5C78" opacity=".5"/><path stroke="#4C5C78" stroke-width="1.03" opacity=".5" d="m235.06 482.54 259.88-.59"/><circle cx="494.94" cy="481.95" r="2" fill="#4C5C78" opacity=".5"/></g><g class="slope"><circle cx="235.06" cy="330.06" r="2" fill="#923E8B" opacity=".5"/><path stroke="#923E8B" stroke-width="1.03" opacity=".5" d="m235.06 330.06 259.88 108.91"/><circle cx="494.94" cy="438.97" r="2" fill="#923E8B" opacity=".5"/></g><g class="slope"><circle cx="235.06" cy="451.28" r="2" fill="#932834" opacity=".5"/><path stroke="#932834" stroke-width="1.03" opacity=".5" d="m235.06 451.28 259.88 30.39"/><circle cx="494.94" cy="481.67" r="2" fill="#932834" opacity=".5"/></g><g class="slope"><circle cx="235.06" cy="150.12" r="2" fill="#923E8B" opacity=".5"/><path stroke="#923E8B" stroke-width="1.04" opacity=".5" d="m235.06 150.12 259.88 77.57"/><circle cx="494.94" cy="227.69" r="2" fill="#923E8B" opacity=".5"/><text x="502.94" y="231.2" font-size="11.7" fill="#333">62.29%</text><text font-size="11.7" x="546.8" y="231.2" fill="#333"><tspan x="546.84" y="231.2">Mozambique</tspan></text></g><g class="slope"><circle cx="235.06" cy="241.25" r="2" fill="#923E8B" opacity=".5"/><path stroke="#923E8B" stroke-width="1.04" opacity=".5" d="m235.06 241.25 259.88 85.85"/><circle cx="494.94" cy="327.1" r="2" fill="#923E8B" opacity=".5"/></g><g class="slope"><circle cx="235.06" cy="461.54" r="2" fill="#2D8587" opacity=".5"/><path stroke="#2D8587" stroke-width="1.04" opacity=".5" d="m235.06 461.54 259.88 16.12"/><circle cx="494.94" cy="477.66" r="2" fill="#2D8587" opacity=".5"/></g><g class="slope"><circle cx="235.06" cy="468.37" r="2" fill="#2D8587" opacity=".5"/><path stroke="#2D8587" stroke-width="1.04" opacity=".5" d="m235.06 468.37 259.88 14.41"/><circle cx="494.94" cy="482.78" r="2" fill="#2D8587" opacity=".5"/></g><g class="slope"><circle cx="235.06" cy="480.92" r="2" fill="#4C5C78" opacity=".5"/><path stroke="#4C5C78" stroke-width="1.04" opacity=".5" d="m235.06 480.92 259.88 1.47"/><circle cx="494.94" cy="482.39" r="2" fill="#4C5C78" opacity=".5"/></g><g class="slope"><circle cx="235.06" cy="478.7" r="2" fill="#A8633C" opacity=".5"/><path stroke="#A8633C" stroke-width="1.04" opacity=".5" d="m235.06 478.7 259.88 2.06"/><circle cx="494.94" cy="480.76" r="2" fill="#A8633C" opacity=".5"/></g><g class="slope"><circle cx="235.06" cy="458.02" r="2" fill="#2D8587" opacity=".5"/><path stroke="#2D8587" stroke-width="1.04" opacity=".5" d="m235.06 458.02 259.88 24.74"/><circle cx="494.94" cy="482.76" r="2" fill="#2D8587" opacity=".5"/></g><g class="slope"><circle cx="235.06" cy="301.23" r="2" fill="#923E8B" opacity=".5"/><path stroke="#923E8B" stroke-width="1.04" opacity=".5" d="m235.06 301.23 259.88 125.79"/><circle cx="494.94" cy="427.02" r="2" fill="#923E8B" opacity=".5"/><text x="502.94" y="430.53" font-size="11.7" fill="#333">13.62%</text><text font-size="11.7" x="546.8" y="430.5" fill="#333"><tspan x="546.84" y="430.53">Sudan</tspan></text></g><g class="slope"><circle cx="235.06" cy="381.73" r="2" fill="#2D8587" opacity=".5"/><path stroke="#2D8587" stroke-width="1.05" opacity=".5" d="m235.06 381.73 259.88 98.73"/><circle cx="494.94" cy="480.46" r="2" fill="#2D8587" opacity=".5"/></g><g class="slope"><text font-size="11.7" x="183.2" y="155.9" text-anchor="end" fill="#333"><tspan x="183.16" y="155.93">Nepal</tspan></text><text x="227.06" y="155.93" text-anchor="end" font-size="11.7" fill="#333">80.67%</text><circle cx="235.06" cy="152.42" r="2" fill="#2D8587" opacity=".5"/><path stroke="#2D8587" stroke-width="1.05" opacity=".5" d="m235.06 152.42 259.88 310.8"/><circle cx="494.94" cy="463.22" r="2" fill="#2D8587" opacity=".5"/></g><g class="slope"><text font-size="11.7" x="183.2" y="377" text-anchor="end" fill="#333"><tspan x="183.16" y="377.03">Uzbekistan</tspan></text><text x="227.06" y="377.03" text-anchor="end" font-size="11.7" fill="#333">26.68%</text><circle cx="235.06" cy="373.52" r="2" fill="#2D8587" opacity=".5"/><path stroke="#2D8587" stroke-width="1.05" opacity=".5" d="m235.06 373.52 259.88 65.55"/><circle cx="494.94" cy="439.07" r="2" fill="#2D8587" opacity=".5"/><text x="502.94" y="442.58" font-size="11.7" fill="#333">10.68%</text><text font-size="11.7" x="546.8" y="442.6" fill="#333"><tspan x="546.84" y="442.58">Uzbekistan</tspan></text></g><g class="slope"><text font-size="11.7" x="183.2" y="361.1" text-anchor="end" fill="#333"><tspan x="183.16" y="361.08">Kenya</tspan></text><text x="227.06" y="361.08" text-anchor="end" font-size="11.7" fill="#333">30.58%</text><circle cx="235.06" cy="357.57" r="2" fill="#923E8B" opacity=".5"/><path stroke="#923E8B" stroke-width="1.05" opacity=".5" d="m235.06 357.57 259.88-2.77"/><circle cx="494.94" cy="354.8" r="2" fill="#923E8B" opacity=".5"/><text x="502.94" y="358.31" font-size="11.7" fill="#333">31.25%</text><text font-size="11.7" x="546.8" y="358.3" fill="#333"><tspan x="546.84" y="358.31">Kenya</tspan></text></g><g class="slope"><circle cx="235.06" cy="473.9" r="2" fill="#932834" opacity=".5"/><path stroke="#932834" stroke-width="1.05" opacity=".5" d="m235.06 473.9 259.88-.06"/><circle cx="494.94" cy="473.84" r="2" fill="#932834" opacity=".5"/></g><g class="slope"><circle cx="235.06" cy="482.8" r="2" fill="#2D8587" opacity=".5"/><path stroke="#2D8587" stroke-width="1.05" opacity=".5" d="M235.06 482.8h259.88"/><circle cx="494.94" cy="482.8" r="2" fill="#2D8587" opacity=".5"/></g><g class="slope"><circle cx="235.06" cy="175.53" r="2" fill="#923E8B" opacity=".5"/><path stroke="#923E8B" stroke-width="1.06" opacity=".5" d="m235.06 175.53 259.88 111.85"/><circle cx="494.94" cy="287.38" r="2" fill="#923E8B" opacity=".5"/><text x="502.94" y="290.89" font-size="11.7" fill="#333">47.72%</text><text font-size="11.7" x="546.8" y="290.9" fill="#333"><tspan x="546.84" y="290.89">Tanzania</tspan></text></g><g class="slope"><circle cx="235.06" cy="472.5" r="2" fill="#923E8B" opacity=".5"/><path stroke="#923E8B" stroke-width="1.06" opacity=".5" d="m235.06 472.5 259.88 8.98"/><circle cx="494.94" cy="481.48" r="2" fill="#923E8B" opacity=".5"/></g><g class="slope"><text font-size="11.7" x="183.2" y="427.1" text-anchor="end" fill="#333"><tspan x="183.16" y="427.12">Morocco</tspan></text><text x="227.06" y="427.12" text-anchor="end" font-size="11.7" fill="#333">14.45%</text><circle cx="235.06" cy="423.61" r="2" fill="#923E8B" opacity=".5"/><path stroke="#923E8B" stroke-width="1.06" opacity=".5" d="m235.06 423.61 259.88 56.72"/><circle cx="494.94" cy="480.33" r="2" fill="#923E8B" opacity=".5"/></g><g class="slope"><circle cx="235.06" cy="481.6" r="2" fill="#4C5C78" opacity=".5"/><path stroke="#4C5C78" stroke-width="1.07" opacity=".5" d="m235.06 481.6 259.88-6.98"/><circle cx="494.94" cy="474.62" r="2" fill="#4C5C78" opacity=".5"/></g><g class="slope"><circle cx="235.06" cy="480.77" r="2" fill="#E04E4B" opacity=".5"/><path stroke="#E04E4B" stroke-width="1.07" opacity=".5" d="m235.06 480.77 259.88 1.02"/><circle cx="494.94" cy="481.79" r="2" fill="#E04E4B" opacity=".5"/></g><g class="slope"><text font-size="11.7" x="189.7" y="223.9" text-anchor="end" fill="#333"><tspan x="189.71" y="223.94">Democratic Republic of</tspan><tspan x="189.71" y="236.81">Congo</tspan></text><text x="227.06" y="230.34" text-anchor="end" font-size="11.7" fill="#333">62.5%</text><circle cx="235.06" cy="226.83" r="2" fill="#923E8B" opacity=".5"/><path stroke="#923E8B" stroke-width="1.08" opacity=".5" d="m235.06 226.83 259.88-34.79"/><circle cx="494.94" cy="192.04" r="2" fill="#923E8B" opacity=".5"/><text x="502.94" y="195.55" font-size="11.7" fill="#333">70.99%</text><text font-size="11.7" x="546.8" y="189.1" fill="#333"><tspan x="546.84" y="189.15">Democratic Republic of</tspan><tspan x="546.84" y="202.02">Congo</tspan></text></g><g class="slope"><text font-size="11.7" x="196.3" y="445.8" text-anchor="end" fill="#333"><tspan x="196.26" y="445.76">Colombia</tspan></text><text x="227.06" y="445.76" text-anchor="end" font-size="11.7" fill="#333">9.9%</text><circle cx="235.06" cy="442.25" r="2" fill="#932834" opacity=".5"/><path stroke="#932834" stroke-width="1.08" opacity=".5" d="m235.06 442.25 259.88 20.32"/><circle cx="494.94" cy="462.57" r="2" fill="#932834" opacity=".5"/></g><g class="slope"><circle cx="235.06" cy="386.47" r="2" fill="#923E8B" opacity=".5"/><path stroke="#923E8B" stroke-width="1.09" opacity=".5" d="m235.06 386.47 259.88 15.76"/><circle cx="494.94" cy="402.23" r="2" fill="#923E8B" opacity=".5"/></g><g class="slope"><text font-size="11.7" x="183.2" y="103.2" text-anchor="end" fill="#333"><tspan x="183.16" y="103.2">Myanmar</tspan></text><text x="227.06" y="103.2" text-anchor="end" font-size="11.7" fill="#333">93.54%</text><circle cx="235.06" cy="99.69" r="2" fill="#2D8587" opacity=".5"/><path stroke="#2D8587" stroke-width="1.1" opacity=".5" d="m235.06 99.69 259.88 379.56"/><circle cx="494.94" cy="479.25" r="2" fill="#2D8587" opacity=".5"/></g><g class="slope"><circle cx="235.06" cy="482.06" r="2" fill="#4C5C78" opacity=".5"/><path stroke="#4C5C78" stroke-width="1.11" opacity=".5" d="m235.06 482.06 259.88.74"/><circle cx="494.94" cy="482.8" r="2" fill="#4C5C78" opacity=".5"/></g><g class="slope"><text font-size="11.7" x="183.2" y="252.6" text-anchor="end" fill="#333"><tspan x="183.16" y="252.6">Ethiopia</tspan></text><text x="227.06" y="252.6" text-anchor="end" font-size="11.7" fill="#333">57.07%</text><circle cx="235.06" cy="249.09" r="2" fill="#923E8B" opacity=".5"/><path stroke="#923E8B" stroke-width="1.11" opacity=".5" d="m235.06 249.09 259.88 153.68"/><circle cx="494.94" cy="402.77" r="2" fill="#923E8B" opacity=".5"/><text x="502.94" y="406.28" font-size="11.7" fill="#333">19.54%</text><text font-size="11.7" x="546.8" y="406.3" fill="#333"><tspan x="546.84" y="406.28">Ethiopia</tspan></text></g><g class="slope"><circle cx="235.06" cy="480.98" r="2" fill="#4C5C78" opacity=".5"/><path stroke="#4C5C78" stroke-width="1.11" opacity=".5" d="m235.06 480.98 259.88-1.77"/><circle cx="494.94" cy="479.21" r="2" fill="#4C5C78" opacity=".5"/></g><g class="slope"><circle cx="235.06" cy="471.54" r="2" fill="#2D8587" opacity=".5"/><path stroke="#2D8587" stroke-width="1.11" opacity=".5" d="m235.06 471.54 259.88 10.33"/><circle cx="494.94" cy="481.87" r="2" fill="#2D8587" opacity=".5"/></g><g class="slope"><circle cx="235.06" cy="446.67" r="2" fill="#2D8587" opacity=".5"/><path stroke="#2D8587" stroke-width="1.12" opacity=".5" d="m235.06 446.67 259.88 33.09"/><circle cx="494.94" cy="479.76" r="2" fill="#2D8587" opacity=".5"/></g><g class="slope"><circle cx="235.06" cy="405.13" r="2" fill="#923E8B" opacity=".5"/><path stroke="#923E8B" stroke-width="1.13" opacity=".5" d="m235.06 405.13 259.88 61"/><circle cx="494.94" cy="466.13" r="2" fill="#923E8B" opacity=".5"/></g><g class="slope"><circle cx="235.06" cy="462" r="2" fill="#2D8587" opacity=".5"/><path stroke="#2D8587" stroke-width="1.13" opacity=".5" d="m235.06 462 259.88 19.32"/><circle cx="494.94" cy="481.32" r="2" fill="#2D8587" opacity=".5"/></g><g class="slope"><circle cx="235.06" cy="403.66" r="2" fill="#2D8587" opacity=".5"/><path stroke="#2D8587" stroke-width="1.14" opacity=".5" d="m235.06 403.66 259.88 78.82"/><circle cx="494.94" cy="482.48" r="2" fill="#2D8587" opacity=".5"/></g><g class="slope"><circle cx="235.06" cy="384.91" r="2" fill="#2D8587" opacity=".5"/><path stroke="#2D8587" stroke-width="1.14" opacity=".5" d="m235.06 384.91 259.88 82.27"/><circle cx="494.94" cy="467.18" r="2" fill="#2D8587" opacity=".5"/></g><g class="slope"><circle cx="235.06" cy="475.2" r="2" fill="#4C5C78" opacity=".5"/><path stroke="#4C5C78" stroke-width="1.15" opacity=".5" d="m235.06 475.2 259.88 7.6"/><circle cx="494.94" cy="482.8" r="2" fill="#4C5C78" opacity=".5"/></g><g class="slope"><circle cx="235.06" cy="477.7" r="2" fill="#4C5C78" opacity=".5"/><path stroke="#4C5C78" stroke-width="1.16" opacity=".5" d="m235.06 477.7 259.88 5.01"/><circle cx="494.94" cy="482.71" r="2" fill="#4C5C78" opacity=".5"/></g><g class="slope"><circle cx="235.06" cy="167.15" r="2" fill="#2D8587" opacity=".5"/><path stroke="#2D8587" stroke-width="1.16" opacity=".5" d="m235.06 167.15 259.88 310.11"/><circle cx="494.94" cy="477.26" r="2" fill="#2D8587" opacity=".5"/></g><g class="slope"><circle cx="235.06" cy="480.98" r="2" fill="#4C5C78" opacity=".5"/><path stroke="#4C5C78" stroke-width="1.17" opacity=".5" d="m235.06 480.98 259.88.6"/><circle cx="494.94" cy="481.58" r="2" fill="#4C5C78" opacity=".5"/></g><g class="slope"><circle cx="235.06" cy="481.96" r="2" fill="#4C5C78" opacity=".5"/><path stroke="#4C5C78" stroke-width="1.17" opacity=".5" d="m235.06 481.96 259.88-4.85"/><circle cx="494.94" cy="477.11" r="2" fill="#4C5C78" opacity=".5"/></g><g class="slope"><text font-size="11.7" x="189.7" y="460.9" text-anchor="end" fill="#333"><tspan x="189.71" y="460.94">Mexico</tspan></text><text x="227.06" y="460.94" text-anchor="end" font-size="11.7" fill="#333">6.19%</text><circle cx="235.06" cy="457.43" r="2" fill="#E04E4B" opacity=".5"/><path stroke="#E04E4B" stroke-width="1.21" opacity=".5" d="m235.06 457.43 259.88 18.24"/><circle cx="494.94" cy="475.67" r="2" fill="#E04E4B" opacity=".5"/></g><g class="slope"><text font-size="11.7" x="189.7" y="313.1" text-anchor="end" fill="#333"><tspan x="189.71" y="313.07">Nigeria</tspan></text><text x="227.06" y="313.07" text-anchor="end" font-size="11.7" fill="#333">42.3%</text><circle cx="235.06" cy="309.56" r="2" fill="#923E8B" opacity=".5"/><path stroke="#923E8B" stroke-width="1.22" opacity=".5" d="m235.06 309.56 259.88 12.7"/><circle cx="494.94" cy="322.26" r="2" fill="#923E8B" opacity=".5"/><text x="502.94" y="325.77" font-size="11.7" fill="#333">39.2%</text><text font-size="11.7" x="540.3" y="325.8" fill="#333"><tspan x="540.29" y="325.77">Nigeria</tspan></text></g><g class="slope"><circle cx="235.06" cy="482.8" r="2" fill="#4C5C78" opacity=".5"/><path stroke="#4C5C78" stroke-width="1.23" opacity=".5" d="M235.06 482.8h259.88"/><circle cx="494.94" cy="482.8" r="2" fill="#4C5C78" opacity=".5"/></g><g class="slope"><circle cx="235.06" cy="178.47" r="2" fill="#2D8587" opacity=".5"/><path stroke="#2D8587" stroke-width="1.24" opacity=".5" d="m235.06 178.47 259.88 286.76"/><circle cx="494.94" cy="465.23" r="2" fill="#2D8587" opacity=".5"/></g><g class="slope"><text font-size="11.7" x="183.2" y="340.6" text-anchor="end" fill="#333"><tspan x="183.16" y="340.6">Bangladesh</tspan></text><text x="227.06" y="340.6" text-anchor="end" font-size="11.7" fill="#333">35.58%</text><circle cx="235.06" cy="337.09" r="2" fill="#2D8587" opacity=".5"/><path stroke="#2D8587" stroke-width="1.24" opacity=".5" d="M235.06 337.09 494.94 455.7"/><circle cx="494.94" cy="455.7" r="2" fill="#2D8587" opacity=".5"/></g><g class="slope"><circle cx="235.06" cy="479.86" r="2" fill="#2D8587" opacity=".5"/><path stroke="#2D8587" stroke-width="1.35" opacity=".5" d="m235.06 479.86 259.88-.04"/><circle cx="494.94" cy="479.82" r="2" fill="#2D8587" opacity=".5"/></g><g class="slope"><text font-size="11.7" x="183.2" y="399.1" text-anchor="end" fill="#333"><tspan x="183.16" y="399.11">Brazil</tspan></text><text x="227.06" y="399.11" text-anchor="end" font-size="11.7" fill="#333">21.29%</text><circle cx="235.06" cy="395.6" r="2" fill="#932834" opacity=".5"/><path stroke="#932834" stroke-width="1.37" opacity=".5" d="m235.06 395.6 259.88 68.31"/><circle cx="494.94" cy="463.91" r="2" fill="#932834" opacity=".5"/><text x="502.94" y="467.42" font-size="11.7" fill="#333">4.61%</text><text font-size="11.7" x="540.3" y="467.4" fill="#333"><tspan x="540.29" y="467.42">Brazil</tspan></text></g><g class="slope"><circle cx="235.06" cy="481.41" r="2" fill="#4C5C78" opacity=".5"/><path stroke="#4C5C78" stroke-width="1.41" opacity=".5" d="m235.06 481.41 259.88 1.27"/><circle cx="494.94" cy="482.68" r="2" fill="#4C5C78" opacity=".5"/></g><g class="slope"><text font-size="11.7" x="183.2" y="184" text-anchor="end" fill="#333"><tspan x="183.16" y="183.95">Indonesia</tspan></text><text x="227.06" y="183.95" text-anchor="end" font-size="11.7" fill="#333">73.83%</text><circle cx="235.06" cy="180.44" r="2" fill="#2D8587" opacity=".5"/><path stroke="#2D8587" stroke-width="1.45" opacity=".5" d="m235.06 180.44 259.88 290.57"/><circle cx="494.94" cy="471.01" r="2" fill="#2D8587" opacity=".5"/></g><g class="slope"><text font-size="11.7" x="196.3" y="484.3" text-anchor="end" fill="#333"><tspan x="196.26" y="484.27">United States</tspan></text><text x="227.06" y="484.27" text-anchor="end" font-size="11.7" fill="#333">0.5%</text><circle cx="235.06" cy="480.76" r="2" fill="#E04E4B" opacity=".5"/><path stroke="#E04E4B" stroke-width="1.69" opacity=".5" d="m235.06 480.76 259.88-2.05"/><circle cx="494.94" cy="478.71" r="2" fill="#E04E4B" opacity=".5"/></g><g class="slope"><text font-size="11.7" x="183.2" y="125.5" text-anchor="end" fill="#333"><tspan x="183.16" y="125.53">China</tspan></text><text x="227.06" y="125.53" text-anchor="end" font-size="11.7" fill="#333">88.09%</text><circle cx="235.06" cy="122.02" r="2" fill="#2D8587" opacity=".5"/><path stroke="#2D8587" stroke-width="4" opacity=".5" d="m235.06 122.02 259.88 359.96"/><circle cx="494.94" cy="481.98" r="2" fill="#2D8587" opacity=".5"/><text x="502.94" y="485.49" font-size="11.7" fill="#333">0.2%</text><text font-size="11.7" x="533.7" y="485.5" fill="#333"><tspan x="533.74" y="485.49">China</tspan></text></g></g></g><g class="ScatterColorLegend clickable" style="cursor:pointer"><g class="legendMark"><path fill="#923E8B" d="M735 94h9v9h-9z"/><text font-size="12.6" x="749" y="102.3"><tspan x="749" y="102.28">Africa</tspan></text></g><g class="legendMark"><path fill="#2D8587" d="M735 111.6h9v9h-9z"/><text font-size="12.6" x="749" y="119.9"><tspan x="749" y="119.88">Asia</tspan></text></g><g class="legendMark"><path fill="#4C5C78" d="M735 129.2h9v9h-9z"/><text font-size="12.6" x="749" y="137.5"><tspan x="749" y="137.48">Europe</tspan></text></g><g class="legendMark"><path fill="#E04E4B" d="M735 146.8h9v9h-9z"/><text font-size="12.6" x="749" y="155.1"><tspan x="749" y="155.08">North America</tspan></text></g><g class="legendMark"><path fill="#A8633C" d="M735 164.4h9v9h-9z"/><text font-size="12.6" x="749" y="172.7"><tspan x="749" y="172.68">Oceania</tspan></text></g><g class="legendMark"><path fill="#932834" d="M735 182h9v9h-9z"/><text font-size="12.6" x="749" y="190.3"><tspan x="749" y="190.28">South America</tspan></text></g></g></g><g class="SourcesFooter" style="fill:#777"><g style="fill:#777"><text font-size="12.6" x="15" y="567.9"><tspan x="15" y="567.88">Source: World Bank PovcalNet</tspan></text></g><text font-size="12.6" x="15" y="582.5"><tspan x="15" y="582.48">Note: Based on household surveys and measured in international-$ in 2011 prices.</tspan></text><text font-size="12.6" x="575.3" y="567.9"><tspan x="575.31" y="567.88"><a target="_blank" style="fill:#777" href="https://ourworldindata.org/extreme-poverty">OurWorldInData.org/extreme-poverty</a> • <a style="fill:#777" class="cclogo" href="http://creativecommons.org/licenses/by/4.0/deed.en_US" target="_blank">CC BY</a></tspan></text></g></svg>