<svg xmlns="http://www.w3.org/2000/svg" version="1.1" style="background-color:#fff;-webkit-font-smoothing:antialiased" width="850" height="600" viewBox="0 0 850 600" font-family="Lato,'Helvetica Neue',Helvetica,Arial,sans-serif" font-size="18" text-rendering="geometricPrecision"><g class="HeaderView"><g transform="matrix(.29 0 0 .29 774 15)"><svg className="owidLog" width="210" height="120" viewBox="0 0 210 120" fill="none" xmlns="http://www.w3.org/2000/svg"><g clip-path="url(#clip0)"><path d="M0 0h210v107.89H0V0z" fill="#002147"/><path d="M40.98 32.25c0 2.36-.38 4.53-1.12 6.51a14.26 14.26 0 01-8.1 8.4c-1.9.78-4.02 1.17-6.34 1.17a16.6 16.6 0 01-6.33-1.17 14.31 14.31 0 01-8.08-8.4 18.29 18.29 0 01-1.12-6.51c0-2.36.38-4.53 1.12-6.5.75-1.97 1.8-3.67 3.17-5.1a14.32 14.32 0 014.9-3.34c1.92-.8 4.03-1.19 6.34-1.19 2.32 0 4.43.4 6.34 1.19 1.92.8 3.56 1.9 4.93 3.34a14.87 14.87 0 013.17 5.1 18.1 18.1 0 011.12 6.5zm-4.38 0c0-1.94-.26-3.68-.8-5.22a10.91 10.91 0 00-2.24-3.89 9.68 9.68 0 00-3.52-2.46 11.95 11.95 0 00-4.62-.86c-1.68 0-3.21.28-4.6.86a9.88 9.88 0 00-3.54 2.46 10.91 10.91 0 00-2.24 3.9c-.53 1.53-.8 3.27-.8 5.2 0 1.94.27 3.68.8 5.22a11.17 11.17 0 002.24 3.9 10.01 10.01 0 003.55 2.44c1.38.56 2.9.83 4.6.83s3.24-.27 4.61-.83a9.8 9.8 0 003.52-2.44 11.17 11.17 0 002.25-3.9c.53-1.54.8-3.28.8-5.21zm26.22-6.54V48H60.5c-.56 0-.9-.27-1.05-.81l-.31-2.4a12.45 12.45 0 01-3.26 2.6c-1.2.64-2.58.96-4.13.96-1.22 0-2.3-.2-3.24-.6a6.52 6.52 0 01-2.33-1.7 7.37 7.37 0 01-1.43-2.67c-.3-1.04-.46-2.2-.46-3.45V25.7h3.91v14.22c0 1.68.38 2.99 1.15 3.91.77.93 1.96 1.39 3.54 1.39 1.16 0 2.24-.27 3.23-.82a10.42 10.42 0 002.8-2.28V25.7h3.91zm8.61 4.47a9.94 9.94 0 012.6-3.56 5.64 5.64 0 013.76-1.3c.47 0 .92.05 1.34.15.44.1.83.27 1.17.49l-.3 2.92c-.09.37-.3.55-.66.55-.2 0-.5-.04-.9-.13a6.21 6.21 0 00-3.24.18 4.23 4.23 0 00-1.47.92c-.42.4-.81.9-1.17 1.5-.33.58-.64 1.26-.92 2.02V48H67.7V25.71h2.25c.42 0 .72.08.88.25.16.16.27.44.33.83l.26 3.39zm61.16-13.7L122.75 48h-3.82l-7.99-24.05a21.95 21.95 0 01-.42-1.58 38.36 38.36 0 01-.44 1.58L102.05 48h-3.83L88.4 16.47h3.54c.38 0 .7.1.95.29.26.2.43.43.5.73l6.52 21.9.28 1.28.29 1.46.3-1.46.38-1.27 7.41-21.91c.1-.25.26-.48.51-.69.27-.22.58-.33.95-.33h1.23c.38 0 .69.1.92.29a1.77 1.77 0 01.53.73l7.4 21.9a28.4 28.4 0 01.68 2.62 29.52 29.52 0 01.52-2.61l6.54-21.91a1.31 1.31 0 01.48-.7c.27-.21.58-.32.95-.32h3.32zm9.35 8.88c1.63 0 3.1.27 4.4.82a9.43 9.43 0 015.46 5.94c.5 1.4.74 2.98.74 4.73 0 1.76-.25 3.34-.74 4.75a9.43 9.43 0 01-5.46 5.92c-1.3.52-2.77.79-4.4.79-1.64 0-3.12-.27-4.44-.8a9.42 9.42 0 01-3.35-2.3c-.92-1-1.63-2.2-2.13-3.61-.49-1.41-.73-3-.73-4.75s.24-3.33.73-4.73c.5-1.43 1.2-2.64 2.13-3.63a9.4 9.4 0 013.35-2.31c1.32-.55 2.8-.82 4.44-.82zm0 19.89c2.2 0 3.84-.73 4.93-2.2 1.08-1.48 1.63-3.54 1.63-6.18 0-2.66-.55-4.72-1.63-6.2-1.09-1.49-2.73-2.23-4.93-2.23-1.12 0-2.09.2-2.93.57a5.71 5.71 0 00-2.06 1.65 7.5 7.5 0 00-1.24 2.67c-.26 1.04-.4 2.22-.4 3.54 0 2.64.55 4.7 1.64 6.18 1.1 1.47 2.76 2.2 4.99 2.2zm17.97-15.07a9.94 9.94 0 012.6-3.56 5.64 5.64 0 013.76-1.3c.47 0 .91.05 1.34.15.44.1.83.27 1.16.49l-.28 2.92c-.09.37-.31.55-.66.55-.2 0-.5-.04-.9-.13a6.2 6.2 0 00-3.24.18 4.23 4.23 0 00-1.47.92c-.43.4-.82.9-1.17 1.5a13.1 13.1 0 00-.92 2.02V48h-3.94V25.71h2.24c.43 0 .72.08.88.25.17.16.28.44.33.83l.27 3.39zm15.04-14.59V48h-3.92V15.6h3.92zm19.55 15.43a6.22 6.22 0 00-2.38-2.05 6.7 6.7 0 00-2.86-.6c-2.07 0-3.66.75-4.77 2.23-1.12 1.48-1.68 3.6-1.68 6.33 0 1.46.13 2.7.38 3.74a7.29 7.29 0 001.1 2.56 4.35 4.35 0 001.78 1.45c.7.3 1.5.46 2.4.46 1.29 0 2.41-.3 3.36-.88a9.6 9.6 0 002.67-2.49V31.02zm3.91-15.43V48h-2.33c-.56 0-.9-.27-1.06-.81l-.35-2.71a12.13 12.13 0 01-3.25 2.77 8.28 8.28 0 01-4.23 1.06 7.31 7.31 0 01-6.14-2.9c-.73-.96-1.3-2.15-1.69-3.57a18.35 18.35 0 01.07-9.48 11.29 11.29 0 011.89-3.7 8.7 8.7 0 017.06-3.34 7.96 7.96 0 016.12 2.62V15.59h3.91zM46.61 70.71V93H42.7V70.71h3.91zm.84-7c0 .39-.08.75-.24 1.09a2.81 2.81 0 01-1.52 1.47 2.67 2.67 0 01-2.16 0 2.9 2.9 0 01-1.45-1.47 2.67 2.67 0 010-2.16c.15-.35.35-.65.6-.9.25-.27.53-.47.85-.62a2.67 2.67 0 012.16 0c.35.15.65.35.9.62.27.25.47.55.62.9.16.34.24.7.24 1.08zm7.97 10.24c.49-.54 1-1.04 1.54-1.48a9.85 9.85 0 013.66-1.84 8.96 8.96 0 015.43.35c.94.4 1.72.97 2.33 1.71a7.36 7.36 0 011.43 2.67c.32 1.04.49 2.19.49 3.45V93h-3.94V78.81c0-1.69-.4-3-1.17-3.92-.76-.93-1.93-1.4-3.5-1.4a6.6 6.6 0 00-3.25.83c-1 .56-1.92 1.31-2.77 2.27V93h-3.94V70.71h2.35c.56 0 .9.28 1.04.82l.3 2.42zm57.7 3.3c0 2.36-.37 4.5-1.11 6.44a14.3 14.3 0 01-3.17 4.98 14.1 14.1 0 01-4.93 3.2c-1.9.76-4.02 1.13-6.33 1.13H85.8V61.47h11.77c2.31 0 4.42.39 6.33 1.15a13.8 13.8 0 018.1 8.18 17.75 17.75 0 011.12 6.45zm-4.37 0c0-1.94-.26-3.67-.8-5.2a10.94 10.94 0 00-2.23-3.87 9.57 9.57 0 00-3.53-2.42 12.23 12.23 0 00-4.61-.83h-7.5v24.62h7.5c1.7 0 3.24-.28 4.61-.84a9.7 9.7 0 003.53-2.4 10.94 10.94 0 002.24-3.87c.53-1.53.8-3.26.8-5.2zm19.8 5.72c-1.8.06-3.34.2-4.62.44-1.26.22-2.3.51-3.1.88-.8.36-1.37.8-1.74 1.3-.35.5-.53 1.05-.53 1.67 0 .58.1 1.1.3 1.52a3 3 0 00.76 1.05c.34.27.73.46 1.17.6a6.13 6.13 0 001.45.17 7.28 7.28 0 003.5-.81 11.95 11.95 0 002.82-2.2v-4.62zm-12.65-9.11a12.73 12.73 0 013.98-2.66c1.43-.59 3-.88 4.73-.88 1.25 0 2.36.2 3.33.61a6.81 6.81 0 013.94 4.38c.33 1.04.5 2.19.5 3.43V93h-1.74a1.8 1.8 0 01-.88-.18c-.2-.13-.36-.38-.48-.74l-.44-2.12-1.72 1.46a9.48 9.48 0 01-3.74 1.7c-.69.15-1.46.23-2.3.23-.87 0-1.69-.12-2.45-.35a5.34 5.34 0 01-3.34-2.93 6.64 6.64 0 01-.49-2.64c0-.88.25-1.72.73-2.53a6.33 6.33 0 012.35-2.17c1.09-.63 2.5-1.15 4.25-1.54 1.75-.41 3.89-.65 6.42-.7v-1.75c0-1.73-.37-3.03-1.12-3.91-.75-.9-1.84-1.34-3.28-1.34-.97 0-1.78.12-2.44.37-.64.23-1.2.5-1.7.81l-1.23.82c-.33.23-.67.35-1 .35-.27 0-.5-.07-.69-.2a2.1 2.1 0 01-.48-.53l-.7-1.25zm27.67 19.5c-1.76 0-3.12-.5-4.07-1.48-.94-.98-1.41-2.4-1.41-4.25V74h-2.68a.9.9 0 01-.6-.2c-.16-.14-.24-.36-.24-.66v-1.56l3.65-.46.9-6.89a.9.9 0 01.29-.52.88.88 0 01.62-.22H142v7.67h6.44V74H142v13.38c0 .94.22 1.63.68 2.09.45.45 1.04.68 1.76.68a3.21 3.21 0 001.85-.53l.55-.35c.16-.12.3-.18.41-.18.2 0 .4.13.55.38l1.15 1.87a7.45 7.45 0 01-2.44 1.5 8.53 8.53 0 01-2.95.52zm19.68-10.4c-1.8.07-3.34.21-4.62.45-1.26.22-2.3.51-3.1.88-.8.36-1.37.8-1.74 1.3-.35.5-.53 1.05-.53 1.67 0 .58.1 1.1.3 1.52a2.9 2.9 0 00.76 1.05c.34.27.73.46 1.17.6a6.13 6.13 0 001.45.17 7.3 7.3 0 003.5-.81 12.04 12.04 0 002.82-2.2v-4.62zm-12.65-9.1a12.72 12.72 0 013.99-2.66c1.42-.59 3-.88 4.72-.88 1.25 0 2.36.2 3.33.61a6.81 6.81 0 013.94 4.38c.33 1.04.5 2.19.5 3.43V93h-1.74a1.8 1.8 0 01-.88-.18c-.2-.13-.36-.38-.48-.74l-.44-2.12-1.72 1.46a9.48 9.48 0 01-3.74 1.7c-.69.15-1.46.23-2.3.23-.87 0-1.69-.12-2.45-.35a5.33 5.33 0 01-3.34-2.93 6.62 6.62 0 01-.49-2.64c0-.88.25-1.72.73-2.53a6.33 6.33 0 012.35-2.17c1.09-.63 2.5-1.15 4.25-1.54a31.2 31.2 0 016.42-.7v-1.75c0-1.73-.37-3.03-1.12-3.91-.75-.9-1.84-1.34-3.28-1.34-.97 0-1.78.12-2.44.37-.64.23-1.2.5-1.7.81l-1.22.82c-.34.23-.68.35-1.02.35-.26 0-.49-.07-.68-.2a1.88 1.88 0 01-.48-.53l-.7-1.25zM40.98 32.25c0 2.36-.38 4.53-1.12 6.51a14.26 14.26 0 01-8.1 8.4c-1.9.78-4.02 1.17-6.34 1.17a16.6 16.6 0 01-6.33-1.17 14.31 14.31 0 01-8.08-8.4 18.29 18.29 0 01-1.12-6.51c0-2.36.38-4.53 1.12-6.5.75-1.97 1.8-3.67 3.17-5.1a14.32 14.32 0 014.9-3.34c1.92-.8 4.03-1.19 6.34-1.19 2.32 0 4.43.4 6.34 1.19 1.92.8 3.56 1.9 4.93 3.34a14.87 14.87 0 013.17 5.1 18.1 18.1 0 011.12 6.5zm-4.38 0c0-1.94-.26-3.68-.8-5.22a10.91 10.91 0 00-2.24-3.89 9.68 9.68 0 00-3.52-2.46 11.95 11.95 0 00-4.62-.86c-1.68 0-3.21.28-4.6.86a9.88 9.88 0 00-3.54 2.46 10.91 10.91 0 00-2.24 3.9c-.53 1.53-.8 3.27-.8 5.2 0 1.94.27 3.68.8 5.22a11.17 11.17 0 002.24 3.9 10.01 10.01 0 003.55 2.44c1.38.56 2.9.83 4.6.83s3.24-.27 4.61-.83a9.8 9.8 0 003.52-2.44 11.17 11.17 0 002.25-3.9c.53-1.54.8-3.28.8-5.21zm26.22-6.54V48H60.5c-.56 0-.9-.27-1.05-.81l-.31-2.4a12.45 12.45 0 01-3.26 2.6c-1.2.64-2.58.96-4.13.96-1.22 0-2.3-.2-3.24-.6a6.52 6.52 0 01-2.33-1.7 7.37 7.37 0 01-1.43-2.67c-.3-1.04-.46-2.2-.46-3.45V25.7h3.91v14.22c0 1.68.38 2.99 1.15 3.91.77.93 1.96 1.39 3.54 1.39 1.16 0 2.24-.27 3.23-.82a10.42 10.42 0 002.8-2.28V25.7h3.91zm8.61 4.47a9.94 9.94 0 012.6-3.56 5.64 5.64 0 013.76-1.3c.47 0 .92.05 1.34.15.44.1.83.27 1.17.49l-.3 2.92c-.09.37-.3.55-.66.55-.2 0-.5-.04-.9-.13a6.21 6.21 0 00-3.24.18 4.23 4.23 0 00-1.47.92c-.42.4-.81.9-1.17 1.5-.33.58-.64 1.26-.92 2.02V48H67.7V25.71h2.25c.42 0 .72.08.88.25.16.16.27.44.33.83l.26 3.39zm61.16-13.7L122.75 48h-3.82l-7.99-24.05a21.95 21.95 0 01-.42-1.58 38.36 38.36 0 01-.44 1.58L102.05 48h-3.83L88.4 16.47h3.54c.38 0 .7.1.95.29.26.2.43.43.5.73l6.52 21.9.28 1.28.29 1.46.3-1.46.38-1.27 7.41-21.91c.1-.25.26-.48.51-.69.27-.22.58-.33.95-.33h1.23c.38 0 .69.1.92.29a1.77 1.77 0 01.53.73l7.4 21.9a28.4 28.4 0 01.68 2.62 29.52 29.52 0 01.52-2.61l6.54-21.91a1.31 1.31 0 01.48-.7c.27-.21.58-.32.95-.32h3.32zm9.35 8.88c1.63 0 3.1.27 4.4.82a9.43 9.43 0 015.46 5.94c.5 1.4.74 2.98.74 4.73 0 1.76-.25 3.34-.74 4.75a9.43 9.43 0 01-5.46 5.92c-1.3.52-2.77.79-4.4.79-1.64 0-3.12-.27-4.44-.8a9.42 9.42 0 01-3.35-2.3c-.92-1-1.63-2.2-2.13-3.61-.49-1.41-.73-3-.73-4.75s.24-3.33.73-4.73c.5-1.43 1.2-2.64 2.13-3.63a9.4 9.4 0 013.35-2.31c1.32-.55 2.8-.82 4.44-.82zm0 19.89c2.2 0 3.84-.73 4.93-2.2 1.08-1.48 1.63-3.54 1.63-6.18 0-2.66-.55-4.72-1.63-6.2-1.09-1.49-2.73-2.23-4.93-2.23-1.12 0-2.09.2-2.93.57a5.71 5.71 0 00-2.06 1.65 7.5 7.5 0 00-1.24 2.67c-.26 1.04-.4 2.22-.4 3.54 0 2.64.55 4.7 1.64 6.18 1.1 1.47 2.76 2.2 4.99 2.2zm17.97-15.07a9.94 9.94 0 012.6-3.56 5.64 5.64 0 013.76-1.3c.47 0 .91.05 1.34.15.44.1.83.27 1.16.49l-.28 2.92c-.09.37-.31.55-.66.55-.2 0-.5-.04-.9-.13a6.2 6.2 0 00-3.24.18 4.23 4.23 0 00-1.47.92c-.43.4-.82.9-1.17 1.5a13.1 13.1 0 00-.92 2.02V48h-3.94V25.71h2.24c.43 0 .72.08.88.25.17.16.28.44.33.83l.27 3.39zm15.04-14.59V48h-3.92V15.6h3.92zm19.55 15.43a6.22 6.22 0 00-2.38-2.05 6.7 6.7 0 00-2.86-.6c-2.07 0-3.66.75-4.77 2.23-1.12 1.48-1.68 3.6-1.68 6.33 0 1.46.13 2.7.38 3.74a7.29 7.29 0 001.1 2.56 4.35 4.35 0 001.78 1.45c.7.3 1.5.46 2.4.46 1.29 0 2.41-.3 3.36-.88a9.6 9.6 0 002.67-2.49V31.02zm3.91-15.43V48h-2.33c-.56 0-.9-.27-1.06-.81l-.35-2.71a12.13 12.13 0 01-3.25 2.77 8.28 8.28 0 01-4.23 1.06 7.31 7.31 0 01-6.14-2.9c-.73-.96-1.3-2.15-1.69-3.57a18.35 18.35 0 01.07-9.48 11.29 11.29 0 011.89-3.7 8.7 8.7 0 017.06-3.34 7.96 7.96 0 016.12 2.62V15.59h3.91zM46.61 70.71V93H42.7V70.71h3.91zm.84-7c0 .39-.08.75-.24 1.09a2.81 2.81 0 01-1.52 1.47 2.67 2.67 0 01-2.16 0 2.9 2.9 0 01-1.45-1.47 2.67 2.67 0 010-2.16c.15-.35.35-.65.6-.9.25-.27.53-.47.85-.62a2.67 2.67 0 012.16 0c.35.15.65.35.9.62.27.25.47.55.62.9.16.34.24.7.24 1.08zm7.97 10.24c.49-.54 1-1.04 1.54-1.48a9.85 9.85 0 013.66-1.84 8.96 8.96 0 015.43.35c.94.4 1.72.97 2.33 1.71a7.36 7.36 0 011.43 2.67c.32 1.04.49 2.19.49 3.45V93h-3.94V78.81c0-1.69-.4-3-1.17-3.92-.76-.93-1.93-1.4-3.5-1.4a6.6 6.6 0 00-3.25.83c-1 .56-1.92 1.31-2.77 2.27V93h-3.94V70.71h2.35c.56 0 .9.28 1.04.82l.3 2.42zm57.7 3.3c0 2.36-.37 4.5-1.11 6.44a14.3 14.3 0 01-3.17 4.98 14.1 14.1 0 01-4.93 3.2c-1.9.76-4.02 1.13-6.33 1.13H85.8V61.47h11.77c2.31 0 4.42.39 6.33 1.15a13.8 13.8 0 018.1 8.18 17.75 17.75 0 011.12 6.45zm-4.37 0c0-1.94-.26-3.67-.8-5.2a10.94 10.94 0 00-2.23-3.87 9.57 9.57 0 00-3.53-2.42 12.23 12.23 0 00-4.61-.83h-7.5v24.62h7.5c1.7 0 3.24-.28 4.61-.84a9.7 9.7 0 003.53-2.4 10.94 10.94 0 002.24-3.87c.53-1.53.8-3.26.8-5.2zm19.8 5.72c-1.8.06-3.34.2-4.62.44-1.26.22-2.3.51-3.1.88-.8.36-1.37.8-1.74 1.3-.35.5-.53 1.05-.53 1.67 0 .58.1 1.1.3 1.52a3 3 0 00.76 1.05c.34.27.73.46 1.17.6a6.13 6.13 0 001.45.17 7.28 7.28 0 003.5-.81 11.95 11.95 0 002.82-2.2v-4.62zm-12.65-9.11a12.73 12.73 0 013.98-2.66c1.43-.59 3-.88 4.73-.88 1.25 0 2.36.2 3.33.61a6.81 6.81 0 013.94 4.38c.33 1.04.5 2.19.5 3.43V93h-1.74a1.8 1.8 0 01-.88-.18c-.2-.13-.36-.38-.48-.74l-.44-2.12-1.72 1.46a9.48 9.48 0 01-3.74 1.7c-.69.15-1.46.23-2.3.23-.87 0-1.69-.12-2.45-.35a5.34 5.34 0 01-3.34-2.93 6.64 6.64 0 01-.49-2.64c0-.88.25-1.72.73-2.53a6.33 6.33 0 012.35-2.17c1.09-.63 2.5-1.15 4.25-1.54 1.75-.41 3.89-.65 6.42-.7v-1.75c0-1.73-.37-3.03-1.12-3.91-.75-.9-1.84-1.34-3.28-1.34-.97 0-1.78.12-2.44.37-.64.23-1.2.5-1.7.81l-1.23.82c-.33.23-.67.35-1 .35-.27 0-.5-.07-.69-.2a2.1 2.1 0 01-.48-.53l-.7-1.25zm27.67 19.5c-1.76 0-3.12-.5-4.07-1.48-.94-.98-1.41-2.4-1.41-4.25V74h-2.68a.9.9 0 01-.6-.2c-.16-.14-.24-.36-.24-.66v-1.56l3.65-.46.9-6.89a.9.9 0 01.29-.52.88.88 0 01.62-.22H142v7.67h6.44V74H142v13.38c0 .94.22 1.63.68 2.09.45.45 1.04.68 1.76.68a3.21 3.21 0 001.85-.53l.55-.35c.16-.12.3-.18.41-.18.2 0 .4.13.55.38l1.15 1.87a7.45 7.45 0 01-2.44 1.5 8.53 8.53 0 01-2.95.52zm19.68-10.4c-1.8.07-3.34.21-4.62.45-1.26.22-2.3.51-3.1.88-.8.36-1.37.8-1.74 1.3-.35.5-.53 1.05-.53 1.67 0 .58.1 1.1.3 1.52a2.9 2.9 0 00.76 1.05c.34.27.73.46 1.17.6a6.13 6.13 0 001.45.17 7.3 7.3 0 003.5-.81 12.04 12.04 0 002.82-2.2v-4.62zm-12.65-9.1a12.72 12.72 0 013.99-2.66c1.42-.59 3-.88 4.72-.88 1.25 0 2.36.2 3.33.61a6.81 6.81 0 013.94 4.38c.33 1.04.5 2.19.5 3.43V93h-1.74a1.8 1.8 0 01-.88-.18c-.2-.13-.36-.38-.48-.74l-.44-2.12-1.72 1.46a9.48 9.48 0 01-3.74 1.7c-.69.15-1.46.23-2.3.23-.87 0-1.69-.12-2.45-.35a5.33 5.33 0 01-3.34-2.93 6.62 6.62 0 01-.49-2.64c0-.88.25-1.72.73-2.53a6.33 6.33 0 012.35-2.17c1.09-.63 2.5-1.15 4.25-1.54a31.2 31.2 0 016.42-.7v-1.75c0-1.73-.37-3.03-1.12-3.91-.75-.9-1.84-1.34-3.28-1.34-.97 0-1.78.12-2.44.37-.64.23-1.2.5-1.7.81l-1.22.82c-.34.23-.68.35-1.02.35-.26 0-.49-.07-.68-.2a1.88 1.88 0 01-.48-.53l-.7-1.25zM40.98 32.25c0 2.36-.38 4.53-1.12 6.51a14.26 14.26 0 01-8.1 8.4c-1.9.78-4.02 1.17-6.34 1.17a16.6 16.6 0 01-6.33-1.17 14.31 14.31 0 01-8.08-8.4 18.29 18.29 0 01-1.12-6.51c0-2.36.38-4.53 1.12-6.5.75-1.97 1.8-3.67 3.17-5.1a14.32 14.32 0 014.9-3.34c1.92-.8 4.03-1.19 6.34-1.19 2.32 0 4.43.4 6.34 1.19 1.92.8 3.56 1.9 4.93 3.34a14.87 14.87 0 013.17 5.1 18.1 18.1 0 011.12 6.5zm-4.38 0c0-1.94-.26-3.68-.8-5.22a10.91 10.91 0 00-2.24-3.89 9.68 9.68 0 00-3.52-2.46 11.95 11.95 0 00-4.62-.86c-1.68 0-3.21.28-4.6.86a9.88 9.88 0 00-3.54 2.46 10.91 10.91 0 00-2.24 3.9c-.53 1.53-.8 3.27-.8 5.2 0 1.94.27 3.68.8 5.22a11.17 11.17 0 002.24 3.9 10.01 10.01 0 003.55 2.44c1.38.56 2.9.83 4.6.83s3.24-.27 4.61-.83a9.8 9.8 0 003.52-2.44 11.17 11.17 0 002.25-3.9c.53-1.54.8-3.28.8-5.21zm26.22-6.54V48H60.5c-.56 0-.9-.27-1.05-.81l-.31-2.4a12.45 12.45 0 01-3.26 2.6c-1.2.64-2.58.96-4.13.96-1.22 0-2.3-.2-3.24-.6a6.52 6.52 0 01-2.33-1.7 7.37 7.37 0 01-1.43-2.67c-.3-1.04-.46-2.2-.46-3.45V25.7h3.91v14.22c0 1.68.38 2.99 1.15 3.91.77.93 1.96 1.39 3.54 1.39 1.16 0 2.24-.27 3.23-.82a10.42 10.42 0 002.8-2.28V25.7h3.91zm8.61 4.47a9.94 9.94 0 012.6-3.56 5.64 5.64 0 013.76-1.3c.47 0 .92.05 1.34.15.44.1.83.27 1.17.49l-.3 2.92c-.09.37-.3.55-.66.55-.2 0-.5-.04-.9-.13a6.21 6.21 0 00-3.24.18 4.23 4.23 0 00-1.47.92c-.42.4-.81.9-1.17 1.5-.33.58-.64 1.26-.92 2.02V48H67.7V25.71h2.25c.42 0 .72.08.88.25.16.16.27.44.33.83l.26 3.39zm61.16-13.7L122.75 48h-3.82l-7.99-24.05a21.95 21.95 0 01-.42-1.58 38.36 38.36 0 01-.44 1.58L102.05 48h-3.83L88.4 16.47h3.54c.38 0 .7.1.95.29.26.2.43.43.5.73l6.52 21.9.28 1.28.29 1.46.3-1.46.38-1.27 7.41-21.91c.1-.25.26-.48.51-.69.27-.22.58-.33.95-.33h1.23c.38 0 .69.1.92.29a1.77 1.77 0 01.53.73l7.4 21.9a28.4 28.4 0 01.68 2.62 29.52 29.52 0 01.52-2.61l6.54-21.91a1.31 1.31 0 01.48-.7c.27-.21.58-.32.95-.32h3.32zm9.35 8.88c1.63 0 3.1.27 4.4.82a9.43 9.43 0 015.46 5.94c.5 1.4.74 2.98.74 4.73 0 1.76-.25 3.34-.74 4.75a9.43 9.43 0 01-5.46 5.92c-1.3.52-2.77.79-4.4.79-1.64 0-3.12-.27-4.44-.8a9.42 9.42 0 01-3.35-2.3c-.92-1-1.63-2.2-2.13-3.61-.49-1.41-.73-3-.73-4.75s.24-3.33.73-4.73c.5-1.43 1.2-2.64 2.13-3.63a9.4 9.4 0 013.35-2.31c1.32-.55 2.8-.82 4.44-.82zm0 19.89c2.2 0 3.84-.73 4.93-2.2 1.08-1.48 1.63-3.54 1.63-6.18 0-2.66-.55-4.72-1.63-6.2-1.09-1.49-2.73-2.23-4.93-2.23-1.12 0-2.09.2-2.93.57a5.71 5.71 0 00-2.06 1.65 7.5 7.5 0 00-1.24 2.67c-.26 1.04-.4 2.22-.4 3.54 0 2.64.55 4.7 1.64 6.18 1.1 1.47 2.76 2.2 4.99 2.2zm17.97-15.07a9.94 9.94 0 012.6-3.56 5.64 5.64 0 013.76-1.3c.47 0 .91.05 1.34.15.44.1.83.27 1.16.49l-.28 2.92c-.09.37-.31.55-.66.55-.2 0-.5-.04-.9-.13a6.2 6.2 0 00-3.24.18 4.23 4.23 0 00-1.47.92c-.43.4-.82.9-1.17 1.5a13.1 13.1 0 00-.92 2.02V48h-3.94V25.71h2.24c.43 0 .72.08.88.25.17.16.28.44.33.83l.27 3.39zm15.04-14.59V48h-3.92V15.6h3.92zm19.55 15.43a6.22 6.22 0 00-2.38-2.05 6.7 6.7 0 00-2.86-.6c-2.07 0-3.66.75-4.77 2.23-1.12 1.48-1.68 3.6-1.68 6.33 0 1.46.13 2.7.38 3.74a7.29 7.29 0 001.1 2.56 4.35 4.35 0 001.78 1.45c.7.3 1.5.46 2.4.46 1.29 0 2.41-.3 3.36-.88a9.6 9.6 0 002.67-2.49V31.02zm3.91-15.43V48h-2.33c-.56 0-.9-.27-1.06-.81l-.35-2.71a12.13 12.13 0 01-3.25 2.77 8.28 8.28 0 01-4.23 1.06 7.31 7.31 0 01-6.14-2.9c-.73-.96-1.3-2.15-1.69-3.57a18.35 18.35 0 01.07-9.48 11.29 11.29 0 011.89-3.7 8.7 8.7 0 017.06-3.34 7.96 7.96 0 016.12 2.62V15.59h3.91zM46.61 70.71V93H42.7V70.71h3.91zm.84-7c0 .39-.08.75-.24 1.09a2.81 2.81 0 01-1.52 1.47 2.67 2.67 0 01-2.16 0 2.9 2.9 0 01-1.45-1.47 2.67 2.67 0 010-2.16c.15-.35.35-.65.6-.9.25-.27.53-.47.85-.62a2.67 2.67 0 012.16 0c.35.15.65.35.9.62.27.25.47.55.62.9.16.34.24.7.24 1.08zm7.97 10.24c.49-.54 1-1.04 1.54-1.48a9.85 9.85 0 013.66-1.84 8.96 8.96 0 015.43.35c.94.4 1.72.97 2.33 1.71a7.36 7.36 0 011.43 2.67c.32 1.04.49 2.19.49 3.45V93h-3.94V78.81c0-1.69-.4-3-1.17-3.92-.76-.93-1.93-1.4-3.5-1.4a6.6 6.6 0 00-3.25.83c-1 .56-1.92 1.31-2.77 2.27V93h-3.94V70.71h2.35c.56 0 .9.28 1.04.82l.3 2.42zm57.7 3.3c0 2.36-.37 4.5-1.11 6.44a14.3 14.3 0 01-3.17 4.98 14.1 14.1 0 01-4.93 3.2c-1.9.76-4.02 1.13-6.33 1.13H85.8V61.47h11.77c2.31 0 4.42.39 6.33 1.15a13.8 13.8 0 018.1 8.18 17.75 17.75 0 011.12 6.45zm-4.37 0c0-1.94-.26-3.67-.8-5.2a10.94 10.94 0 00-2.23-3.87 9.57 9.57 0 00-3.53-2.42 12.23 12.23 0 00-4.61-.83h-7.5v24.62h7.5c1.7 0 3.24-.28 4.61-.84a9.7 9.7 0 003.53-2.4 10.94 10.94 0 002.24-3.87c.53-1.53.8-3.26.8-5.2zm19.8 5.72c-1.8.06-3.34.2-4.62.44-1.26.22-2.3.51-3.1.88-.8.36-1.37.8-1.74 1.3-.35.5-.53 1.05-.53 1.67 0 .58.1 1.1.3 1.52a3 3 0 00.76 1.05c.34.27.73.46 1.17.6a6.13 6.13 0 001.45.17 7.28 7.28 0 003.5-.81 11.95 11.95 0 002.82-2.2v-4.62zm-12.65-9.11a12.73 12.73 0 013.98-2.66c1.43-.59 3-.88 4.73-.88 1.25 0 2.36.2 3.33.61a6.81 6.81 0 013.94 4.38c.33 1.04.5 2.19.5 3.43V93h-1.74a1.8 1.8 0 01-.88-.18c-.2-.13-.36-.38-.48-.74l-.44-2.12-1.72 1.46a9.48 9.48 0 01-3.74 1.7c-.69.15-1.46.23-2.3.23-.87 0-1.69-.12-2.45-.35a5.34 5.34 0 01-3.34-2.93 6.64 6.64 0 01-.49-2.64c0-.88.25-1.72.73-2.53a6.33 6.33 0 012.35-2.17c1.09-.63 2.5-1.15 4.25-1.54 1.75-.41 3.89-.65 6.42-.7v-1.75c0-1.73-.37-3.03-1.12-3.91-.75-.9-1.84-1.34-3.28-1.34-.97 0-1.78.12-2.44.37-.64.23-1.2.5-1.7.81l-1.23.82c-.33.23-.67.35-1 .35-.27 0-.5-.07-.69-.2a2.1 2.1 0 01-.48-.53l-.7-1.25zm27.67 19.5c-1.76 0-3.12-.5-4.07-1.48-.94-.98-1.41-2.4-1.41-4.25V74h-2.68a.9.9 0 01-.6-.2c-.16-.14-.24-.36-.24-.66v-1.56l3.65-.46.9-6.89a.9.9 0 01.29-.52.88.88 0 01.62-.22H142v7.67h6.44V74H142v13.38c0 .94.22 1.63.68 2.09.45.45 1.04.68 1.76.68a3.21 3.21 0 001.85-.53l.55-.35c.16-.12.3-.18.41-.18.2 0 .4.13.55.38l1.15 1.87a7.45 7.45 0 01-2.44 1.5 8.53 8.53 0 01-2.95.52zm19.68-10.4c-1.8.07-3.34.21-4.62.45-1.26.22-2.3.51-3.1.88-.8.36-1.37.8-1.74 1.3-.35.5-.53 1.05-.53 1.67 0 .58.1 1.1.3 1.52a2.9 2.9 0 00.76 1.05c.34.27.73.46 1.17.6a6.13 6.13 0 001.45.17 7.3 7.3 0 003.5-.81 12.04 12.04 0 002.82-2.2v-4.62zm-12.65-9.1a12.72 12.72 0 013.99-2.66c1.42-.59 3-.88 4.72-.88 1.25 0 2.36.2 3.33.61a6.81 6.81 0 013.94 4.38c.33 1.04.5 2.19.5 3.43V93h-1.74a1.8 1.8 0 01-.88-.18c-.2-.13-.36-.38-.48-.74l-.44-2.12-1.72 1.46a9.48 9.48 0 01-3.74 1.7c-.69.15-1.46.23-2.3.23-.87 0-1.69-.12-2.45-.35a5.33 5.33 0 01-3.34-2.93 6.62 6.62 0 01-.49-2.64c0-.88.25-1.72.73-2.53a6.33 6.33 0 012.35-2.17c1.09-.63 2.5-1.15 4.25-1.54a31.2 31.2 0 016.42-.7v-1.75c0-1.73-.37-3.03-1.12-3.91-.75-.9-1.84-1.34-3.28-1.34-.97 0-1.78.12-2.44.37-.64.23-1.2.5-1.7.81l-1.22.82c-.34.23-.68.35-1.02.35-.26 0-.49-.07-.68-.2a1.88 1.88 0 01-.48-.53l-.7-1.25z" fill="#fff"/><path fill="#D42B21" d="M0 106.79h210V120H0z"/></g><defs><clipPath id="clip0"><path fill="#fff" d="M0 0h210v120H0z"/></clipPath></defs></svg></g><a href="https://ourworldindata.org/grapher/prevalence-of-childhood-stunting-vs-improved-sanitation-facilities" target="_blank" rel="noopener" font-family="&quot;Playfair Display&quot;,Georgia,&quot;Times New Roman&quot;,serif"><text font-size="21.6" x="15" y="32.3" fill="#555"><tspan x="15" y="32.28">Prevalence of childhood stunting vs. improved sanitation facilities, 1990 to</tspan><tspan x="15" y="53.88">2015</tspan></text></a><text font-size="14.4" x="15" y="74.7" fill="#666"><tspan x="15" y="74.72">The prevalence of childhood stunting (low height-for-age) measured as the share of children under the age of 5 stunted versus</tspan><tspan x="15" y="92">the share of the total population with access to improved sanitation facilities. A child is defined as stunted if height-for-age is</tspan><tspan x="15" y="109.28">more than two standard deviations below the median for a international reference population.</tspan></text></g><g class="ScatterPlot"><g class="DualAxisView"><g class="HorizontalAxis"><text font-size="12.6" x="217.9" y="544.9"><tspan x="217.87" y="544.88">Share of population with improved sanitation facilities</tspan></text><text x="189.5" y="524.8" fill="#666" text-anchor="middle" font-size="16.2">20%</text><text x="321.6" y="524.8" fill="#666" text-anchor="middle" font-size="16.2">40%</text><text x="453.8" y="524.8" fill="#666" text-anchor="middle" font-size="16.2">60%</text><text x="585.9" y="524.8" fill="#666" text-anchor="middle" font-size="16.2">80%</text><text x="718.09" y="524.8" fill="#666" text-anchor="end" font-size="16.2">100%</text></g><g class="VerticalAxis"><text font-size="12.6" x="-428.6" y="25.1" transform="rotate(-90)"><tspan x="-428.58" y="25.08">Prevalence of childhood stunting</tspan></text><text x="70.16" y="503.6" dy=".32em" text-anchor="end" fill="#666" font-size="16.2">0%</text><text x="70.16" y="452.4" dy=".32em" text-anchor="end" fill="#666" font-size="16.2">10%</text><text x="70.16" y="401.2" dy=".32em" text-anchor="end" fill="#666" font-size="16.2">20%</text><text x="70.16" y="350" dy=".32em" text-anchor="end" fill="#666" font-size="16.2">30%</text><text x="70.16" y="298.8" dy=".32em" text-anchor="end" fill="#666" font-size="16.2">40%</text><text x="70.16" y="247.6" dy=".32em" text-anchor="end" fill="#666" font-size="16.2">50%</text><text x="70.16" y="196.4" dy=".32em" text-anchor="end" fill="#666" font-size="16.2">60%</text><text x="70.16" y="145.2" dy=".32em" text-anchor="end" fill="#666" font-size="16.2">70%</text></g><g class="AxisGridLines horizontalLines"><path stroke="#999" d="M75.16 503.6h642.93"/><path stroke="#ddd" stroke-dasharray="3,2" d="M75.16 452.4h642.93M75.16 401.2h642.93M75.16 350h642.93M75.16 298.8h642.93M75.16 247.6h642.93M75.16 196.4h642.93M75.16 145.2h642.93"/></g><g class="AxisGridLines verticalLines" stroke="#ddd" stroke-dasharray="3,2"><path d="M189.5 503.6V126.8M321.6 503.6V126.8M453.8 503.6V126.8M585.9 503.6V126.8M718.1 503.6V126.8"/></g></g><g class="PointsWithLabels clickable" clip-path="url(#a)" font-family="Arial, sans-serif"><path fill="rgba(255,255,255,0)" d="M75.16 126.8h642.93v376.8H75.16z"/><defs><clipPath id="a"><path d="M65.16 116.8h662.93v396.8H65.16z"/></clipPath></defs><g class="key-World"><circle cx="406" cy="302" r="1.6" fill="#959595" stroke="none" opacity=".7"/><path stroke-width="1.42" opacity=".7" stroke="#959595" fill="none" stroke-linecap="butt" d="M406 302h0l19 19h0l20 15h0l20 17h0l20 17h0l3 3 5 3 3 3 4 2 3 3"/><path cx="503" cy="384" r="2.62" fill="#959595" opacity=".7" d="M503 380.3l1.85 5.55-5.56-1.85z"/></g><g class="key-China"><circle cx="371" cy="338" r="1.3" fill="#2D8587" stroke="none" opacity=".7"/><path stroke-width=".8" opacity=".7" stroke="#2D8587" fill="none" stroke-linecap="butt" d="M371 338h0l15-29h0l22 34h0l23 59h0l14 10h0l16-20h0l25 51h0l23 10h0l8 4 8-2h0l22 7h0"/><path cx="547" cy="462" r="2" fill="#2D8587" opacity=".7" d="M545 460l4 2-4 2z"/></g><g class="key-India"><circle cx="168" cy="182" r="1.3" fill="#2D8587" stroke="none" opacity=".7"/><path stroke-width=".78" opacity=".7" stroke="#2D8587" fill="none" stroke-linecap="butt" d="M168 182h0l6 4 7 22h0l26 60h0l12-42h0l47 32h0l52 47h0l1 2"/><path cx="319" cy="307" r="1.98" fill="#2D8587" opacity=".7" d="M319.89 304.34v4.43l-3.55-2.66z"/></g><g class="key-North-America"><circle cx="715" cy="485" r="1.2" fill="#959595" stroke="none" opacity=".7"/><path stroke-width=".63" opacity=".7" stroke="#959595" fill="none" stroke-linecap="butt" d="M715 485h0v1h0l1 2h0v1h0l1 1h1v1h0"/><path cx="718" cy="491" r="1.83" fill="#959595" opacity=".7" d="M716.17 489.17l3.66 1.83-3.66 1.83z"/></g><g class="key-United-States"><circle cx="714" cy="487" r="1.1" fill="#E04E4B" stroke="none" opacity=".7"/><path stroke-width=".56" opacity=".7" stroke="#E04E4B" fill="none" stroke-linecap="butt" d="M714 487h0l2-1h0v1h0l1 2h0l1 3h0"/><path cx="718" cy="492" r="1.76" fill="#E04E4B" opacity=".7" d="M716.24 490.24l3.52 1.76-3.52 1.76z"/></g><g class="key-Indonesia"><circle cx="328" cy="257" r="1.1" fill="#2D8587" stroke="none" opacity=".7"/><path stroke-width=".54" opacity=".7" stroke="#2D8587" fill="none" stroke-linecap="butt" d="M328 257h0l40 29h0l7 4h0l20 67h0l19-59h0l20 4h0l17 15h0"/><path cx="451" cy="317" r="1.74" fill="#2D8587" opacity=".7" d="M449.26 315.26l3.48 1.74-3.48 1.74z"/></g><g class="key-Pakistan"><circle cx="213" cy="183" r="1.1" fill="#2D8587" stroke="none" opacity=".7"/><path stroke-width=".51" opacity=".7" stroke="#2D8587" fill="none" stroke-linecap="butt" d="M213 183l1 41 1 61h0l98 6h0l117-8h0l12-10h0"/><path cx="442" cy="273" r="1.71" fill="#2D8587" opacity=".7" d="M440.29 271.29l3.42 1.71-3.42 1.71z"/></g><g class="key-Brazil"><circle cx="497" cy="404" r="1.1" fill="#932834" stroke="none" opacity=".7"/><path stroke-width=".51" opacity=".7" stroke="#932834" fill="none" stroke-linecap="butt" d="M497 404h0l32 30h0l49 33h0"/><path cx="578" cy="467" r="1.71" fill="#932834" opacity=".7" d="M576.29 465.29l3.42 1.71-3.42 1.71z"/></g><g class="key-Nigeria"><circle cx="309" cy="245" r="1.1" fill="#923E8B" stroke="none" opacity=".7"/><path stroke-width=".51" opacity=".7" stroke="#923E8B" fill="none" stroke-linecap="butt" d="M309 245h0l-9 34h0l-26 4h0l-9 1h0l-2 9h0l-7 26h0l-4-2-2 18h-2"/><path cx="248" cy="335" r="1.71" fill="#923E8B" opacity=".7" d="M249.71 336.71l-3.42-1.71 3.42-1.71z"/></g><g class="key-Bangladesh"><circle cx="284" cy="179" r="1.1" fill="#2D8587" stroke="none" opacity=".7"/><path stroke-width=".5" opacity=".7" stroke="#2D8587" fill="none" stroke-linecap="butt" d="M284 179l8-53 7 11 8 12 7 10 7 7 7 11 8 21 7 2 7-4 7 47 7-12 7 9 7 18 7-13 7 23 7 4 7 10h0l26 9h0l6-3 7 17 6 13h0"/><path cx="451" cy="318" r="1.7" fill="#2D8587" opacity=".7" d="M449.3 316.3l3.4 1.7-3.4 1.7z"/></g><g class="key-Japan"><circle cx="718" cy="467" r="1.1" fill="#2D8587" stroke="none" opacity=".7"/><path stroke-width=".48" opacity=".7" stroke="#2D8587" fill="none" stroke-linecap="butt" d="M718 467h0"/><path cx="718" cy="467" r="1.68" fill="#2D8587" opacity=".7" d="M716.32 465.32l3.36 1.68-3.36 1.68z"/></g><g class="key-Mexico"><circle cx="494" cy="370" r="1.1" fill="#E04E4B" stroke="none" opacity=".7"/><path stroke-width=".48" opacity=".7" stroke="#E04E4B" fill="none" stroke-linecap="butt" d="M494 370h0l35 1h0l11 21h0l42 32h0l28 10h0l10 6h0"/><path cx="620" cy="440" r="1.68" fill="#E04E4B" opacity=".7" d="M618.32 438.32l3.36 1.68-3.36 1.68z"/></g><g class="key-Philippines"><circle cx="434" cy="281" r="1.1" fill="#2D8587" stroke="none" opacity=".7"/><path stroke-width=".47" opacity=".7" stroke="#2D8587" fill="none" stroke-linecap="butt" d="M434 281h0l9 13 4 10h0l23 3h0l22 23h0l21 8h0l14-7h0l9 17h0l9-16"/><path cx="545" cy="332" r="1.67" fill="#2D8587" opacity=".7" d="M542.73 332.64l3.09-2.1-.18 3.73z"/></g><g class="key-Ethiopia"><circle cx="75" cy="161" r="1.1" fill="#923E8B" stroke="none" opacity=".7"/><path stroke-width=".47" opacity=".7" stroke="#923E8B" fill="none" stroke-linecap="butt" d="M75 161h0l39 48h0l43 35h0l52 33h0l25 19h0"/><path cx="234" cy="296" r="1.67" fill="#923E8B" opacity=".7" d="M232.33 294.33l3.34 1.67-3.34 1.67z"/></g><g class="key-Vietnam"><circle cx="296" cy="189" r="1.1" fill="#2D8587" stroke="none" opacity=".7"/><path stroke-width=".47" opacity=".7" stroke="#2D8587" fill="none" stroke-linecap="butt" d="M296 189h33l11 45h0l44 54h0l11-9 11 2h0l23 30 11 11 11 9 12 2 10 7 11-2 12 9h0l21 6 12 31h0l21-13 11 5 11 1"/><path cx="572" cy="377" r="1.67" fill="#2D8587" opacity=".7" d="M570.49 375.19l3.17 1.96-3.47 1.36z"/></g><g class="key-Egypt"><circle cx="542" cy="329" r="1.1" fill="#923E8B" stroke="none" opacity=".7"/><path stroke-width=".47" opacity=".7" stroke="#923E8B" fill="none" stroke-linecap="butt" d="M542 329l7-5h0l14 19h0l15-19h0l14 21 7 24h0l15 8h0l22 22h0l16-18h0l21-35h0l10 43h0"/><path cx="683" cy="389" r="1.67" fill="#923E8B" opacity=".7" d="M681.33 387.33l3.34 1.67-3.34 1.67z"/></g><g class="key-Germany"><circle cx="712" cy="496" r="1.1" fill="#4C5C78" stroke="none" opacity=".7"/><path stroke-width=".46" opacity=".7" stroke="#4C5C78" fill="none" stroke-linecap="butt" d="M712 496h0"/><path cx="712" cy="496" r="1.66" fill="#4C5C78" opacity=".7" d="M710.34 494.34l3.32 1.66-3.32 1.66z"/></g><g class="key-Turkey"><circle cx="614" cy="380" r="1.1" fill="#2D8587" stroke="none" opacity=".7"/><path stroke-width=".46" opacity=".7" stroke="#2D8587" fill="none" stroke-linecap="butt" d="M614 380h0l18 25h0l20 18h0l13 17h0l14 15h0"/><path cx="679" cy="455" r="1.66" fill="#2D8587" opacity=".7" d="M677.34 453.34l3.32 1.66-3.32 1.66z"/></g><g class="key-Iran"><circle cx="545" cy="378" r="1.1" fill="#2D8587" stroke="none" opacity=".7"/><path stroke-width=".46" opacity=".7" stroke="#2D8587" fill="none" stroke-linecap="butt" d="M545 378h0l20 21h0l39 68h0l43 1h0"/><path cx="647" cy="468" r="1.66" fill="#2D8587" opacity=".7" d="M645.34 466.34l3.32 1.66-3.32 1.66z"/></g><g class="key-Democratic-Republic-of-Congo"><circle cx="191" cy="242" r="1.1" fill="#923E8B" stroke="none" opacity=".7"/><path stroke-width=".46" opacity=".7" stroke="#923E8B" fill="none" stroke-linecap="butt" d="M191 242h0l19 34h0l16-7h0l8 11h0l7 5h0"/><path cx="241" cy="285" r="1.66" fill="#923E8B" opacity=".7" d="M239.34 283.34l3.32 1.66-3.32 1.66z"/></g><g class="key-Thailand"><circle cx="631" cy="377" r="1.1" fill="#2D8587" stroke="none" opacity=".7"/><path stroke-width=".45" opacity=".7" stroke="#2D8587" fill="none" stroke-linecap="butt" d="M631 377h0l9 18h0l6 15h0l29 13h0l-2-3h0l-2 29h0"/><path cx="671" cy="449" r="1.65" fill="#2D8587" opacity=".7" d="M669.35 447.35l3.3 1.65-3.3 1.65z"/></g><g class="key-South-Africa"><circle cx="408" cy="342" r="1.1" fill="#923E8B" stroke="none" opacity=".7"/><path stroke-width=".45" opacity=".7" stroke="#923E8B" fill="none" stroke-linecap="butt" d="M408 342h0l4 14h0l18-7h0l22-14h0l17 41h0l15-12h0l12-1h0"/><path cx="496" cy="363" r="1.65" fill="#923E8B" opacity=".7" d="M494.35 361.35l3.3 1.65-3.3 1.65z"/></g><g class="key-Myanmar"><circle cx="414" cy="229" r="1.1" fill="#2D8587" stroke="none" opacity=".7"/><path stroke-width=".45" opacity=".7" stroke="#2D8587" fill="none" stroke-linecap="butt" d="M414 229h0l2-26h0l20 17h0l30 74h0l30 1h0l58 28h0l29 31h0"/><path cx="583" cy="354" r="1.65" fill="#2D8587" opacity=".7" d="M581.35 352.35l3.3 1.65-3.3 1.65z"/></g><g class="key-Tanzania"><circle cx="102" cy="249" r="1.1" fill="#923E8B" stroke="none" opacity=".7"/><path stroke-width=".44" opacity=".7" stroke="#923E8B" fill="none" stroke-linecap="butt" d="M102 249h8l6 7h0l11 20h0l13 7h0l3 3 4 39h0l6-12 3 13 4 1"/><path cx="160" cy="327" r="1.64" fill="#923E8B" opacity=".7" d="M158.8 325.01l2.8 2.39-3.59.8z"/></g><g class="key-South-Korea"><circle cx="718" cy="490" r="1.1" fill="#2D8587" stroke="none" opacity=".7"/><path stroke-width=".44" opacity=".7" stroke="#2D8587" fill="none" stroke-linecap="butt" d="M718 490h0"/><path cx="718" cy="490" r="1.64" fill="#2D8587" opacity=".7" d="M716.36 488.36l3.28 1.64-3.28 1.64z"/></g><g class="key-Kenya"><circle cx="219" cy="314" r="1.1" fill="#923E8B" stroke="none" opacity=".7"/><path stroke-width=".44" opacity=".7" stroke="#923E8B" fill="none" stroke-linecap="butt" d="M219 314h0l5-17h0l1 2h0l6 13h0l4-19h0l4 27h0l3-26h0l6 29h0l8 47h0"/><path cx="256" cy="370" r="1.64" fill="#923E8B" opacity=".7" d="M254.36 368.36l3.28 1.64-3.28 1.64z"/></g><g class="key-Colombia"><circle cx="513" cy="392" r="1.1" fill="#932834" stroke="none" opacity=".7"/><path stroke-width=".44" opacity=".7" stroke="#932834" fill="none" stroke-linecap="butt" d="M513 392h0l20 10h0l17 8h0l16 10h0l15 18h0"/><path cx="581" cy="438" r="1.64" fill="#932834" opacity=".7" d="M579.36 436.36l3.28 1.64-3.28 1.64z"/></g><g class="key-Ukraine"><circle cx="683" cy="386" r="1.1" fill="#4C5C78" stroke="none" opacity=".7"/><path stroke-width=".44" opacity=".7" stroke="#4C5C78" fill="none" stroke-linecap="butt" d="M683 386h0"/><path cx="683" cy="386" r="1.64" fill="#4C5C78" opacity=".7" d="M681.36 384.36l3.28 1.64-3.28 1.64z"/></g><g class="key-Argentina"><circle cx="646" cy="467" r="1.1" fill="#932834" stroke="none" opacity=".7"/><path stroke-width=".44" opacity=".7" stroke="#932834" fill="none" stroke-linecap="butt" d="M646 467h0l5-50h0l22 44h0"/><path cx="673" cy="461" r="1.64" fill="#932834" opacity=".7" d="M671.36 459.36l3.28 1.64-3.28 1.64z"/></g><g class="key-Algeria"><circle cx="587" cy="417" r="1.1" fill="#923E8B" stroke="none" opacity=".7"/><path stroke-width=".44" opacity=".7" stroke="#923E8B" fill="none" stroke-linecap="butt" d="M587 417h0l3-31h0l7 2h0l12-6h0l5 2h0l7 38h0l11 21h0"/><path cx="632" cy="443" r="1.64" fill="#923E8B" opacity=".7" d="M630.36 441.36l3.28 1.64-3.28 1.64z"/></g><g class="key-Sudan"><circle cx="213" cy="307" r="1.1" fill="#923E8B" stroke="none" opacity=".7"/><path stroke-width=".44" opacity=".7" stroke="#923E8B" fill="none" stroke-linecap="butt" d="M213 307h0l-7 22h0l7-21h0"/><path cx="213" cy="308" r="1.64" fill="#923E8B" opacity=".7" d="M211.36 306.36l3.28 1.64-3.28 1.64z"/></g><g class="key-Uganda"><circle cx="144" cy="259" r="1.1" fill="#923E8B" stroke="none" opacity=".7"/><path stroke-width=".44" opacity=".7" stroke="#923E8B" fill="none" stroke-linecap="butt" d="M144 259h0l8 10h0l8 5h0l9 31h0l9 26h0l1-3h0l4 27h0"/><path cx="183" cy="355" r="1.64" fill="#923E8B" opacity=".7" d="M181.36 353.36l3.28 1.64-3.28 1.64z"/></g><g class="key-Iraq"><circle cx="531" cy="362" r="1.1" fill="#2D8587" stroke="none" opacity=".7"/><path stroke-width=".44" opacity=".7" stroke="#2D8587" fill="none" stroke-linecap="butt" d="M531 362h0l23-4h0l16-27h0l6 70h0l10-39h0l26 25h0"/><path cx="612" cy="387" r="1.64" fill="#2D8587" opacity=".7" d="M610.36 385.36l3.28 1.64-3.28 1.64z"/></g><g class="key-Morocco"><circle cx="403" cy="327" r="1.1" fill="#923E8B" stroke="none" opacity=".7"/><path stroke-width=".43" opacity=".7" stroke="#923E8B" fill="none" stroke-linecap="butt" d="M403 327h0l18 23h0l38 5h0l40 30h0l51 42h0"/><path cx="550" cy="427" r="1.63" fill="#923E8B" opacity=".7" d="M548.37 425.37l3.26 1.63-3.26 1.63z"/></g><g class="key-Afghanistan"><circle cx="200" cy="231" r="1.1" fill="#2D8587" stroke="none" opacity=".7"/><path stroke-width=".43" opacity=".7" stroke="#2D8587" fill="none" stroke-linecap="butt" d="M200 231h0l27-31h0l35 94h0"/><path cx="262" cy="294" r="1.63" fill="#2D8587" opacity=".7" d="M260.37 292.37l3.26 1.63-3.26 1.63z"/></g><g class="key-Peru"><circle cx="413" cy="312" r="1.1" fill="#932834" stroke="none" opacity=".7"/><path stroke-width=".43" opacity=".7" stroke="#932834" fill="none" stroke-linecap="butt" d="M413 312h0l34 29h0l25 2h0l32 8h0l17 8h0l6 22 6 3 6 19 5 6 6 5 5 14 5 1"/><path cx="560" cy="429" r="1.63" fill="#932834" opacity=".7" d="M558.72 427.08l2.88 2.24-3.52.96z"/></g><g class="key-Malaysia"><circle cx="656" cy="397" r="1.1" fill="#2D8587" stroke="none" opacity=".7"/><path stroke-width=".43" opacity=".7" stroke="#2D8587" fill="none" stroke-linecap="butt" d="M656 397h0l21 18h0l14-2h0"/><path cx="691" cy="413" r="1.63" fill="#2D8587" opacity=".7" d="M689.37 411.37l3.26 1.63-3.26 1.63z"/></g><g class="key-Venezuela"><circle cx="599" cy="408" r="1.1" fill="#932834" stroke="none" opacity=".7"/><path stroke-width=".43" opacity=".7" stroke="#932834" fill="none" stroke-linecap="butt" d="M599 408l5 2 4-1 5 5 4-2 4-6 3-2 4-3 4 4 4 4 4 5 4 1 3-2h3l4 3 2 4h3l4 3 2 5 4 7h0"/><path cx="669" cy="435" r="1.63" fill="#932834" opacity=".7" d="M667.37 433.37l3.26 1.63-3.26 1.63z"/></g><g class="key-Uzbekistan"><circle cx="624" cy="301" r="1.1" fill="#2D8587" stroke="none" opacity=".7"/><path stroke-width=".43" opacity=".7" stroke="#2D8587" fill="none" stroke-linecap="butt" d="M624 301h0l50 73h0l34 29h0"/><path cx="708" cy="403" r="1.63" fill="#2D8587" opacity=".7" d="M706.37 401.37l3.26 1.63-3.26 1.63z"/></g><g class="key-Angola"><circle cx="234" cy="187" r="1.1" fill="#923E8B" stroke="none" opacity=".7"/><path stroke-width=".43" opacity=".7" stroke="#923E8B" fill="none" stroke-linecap="butt" d="M234 187h0l99 167h0l65-43h0"/><path cx="398" cy="311" r="1.63" fill="#923E8B" opacity=".7" d="M396.37 309.37l3.26 1.63-3.26 1.63z"/></g><g class="key-Ghana"><circle cx="103" cy="285" r="1.1" fill="#923E8B" stroke="none" opacity=".7"/><path stroke-width=".43" opacity=".7" stroke="#923E8B" fill="none" stroke-linecap="butt" d="M103 285h0l7 7h0l13 51h0l9-22h0l6 38h0l5-2h0l6 30h0l6 20h0"/><path cx="155" cy="407" r="1.63" fill="#923E8B" opacity=".7" d="M153.37 405.37l3.26 1.63-3.26 1.63z"/></g><g class="key-Saudi-Arabia"><circle cx="673" cy="394" r="1.1" fill="#2D8587" stroke="none" opacity=".7"/><path stroke-width=".43" opacity=".7" stroke="#2D8587" fill="none" stroke-linecap="butt" d="M673 394h0l43 62h0"/><path cx="716" cy="456" r="1.63" fill="#2D8587" opacity=".7" d="M714.37 454.37l3.26 1.63-3.26 1.63z"/></g><g class="key-Mozambique"><circle cx="133" cy="196" r="1.1" fill="#923E8B" stroke="none" opacity=".7"/><path stroke-width=".43" opacity=".7" stroke="#923E8B" fill="none" stroke-linecap="butt" d="M133 196h0l7 58h0l13-5h0l6 14h0l16 16h0l9 3h0"/><path cx="184" cy="282" r="1.63" fill="#923E8B" opacity=".7" d="M182.37 280.37l3.26 1.63-3.26 1.63z"/></g><g class="key-Nepal"><circle cx="143" cy="154" r="1.1" fill="#2D8587" stroke="none" opacity=".7"/><path stroke-width=".43" opacity=".7" stroke="#2D8587" fill="none" stroke-linecap="butt" d="M143 154h0l12 13h0l23 23h0l33 21h0l54 40h0l53 45h0l31 16h0"/><path cx="349" cy="312" r="1.63" fill="#2D8587" opacity=".7" d="M347.37 310.37l3.26 1.63-3.26 1.63z"/></g><g class="key-Yemen"><circle cx="224" cy="235" r="1.1" fill="#2D8587" stroke="none" opacity=".7"/><path stroke-width=".43" opacity=".7" stroke="#2D8587" fill="none" stroke-linecap="butt" d="M224 235h0l52 10h0l10-45h0l62 8h0l59 57h0"/><path cx="407" cy="265" r="1.63" fill="#2D8587" opacity=".7" d="M405.37 263.37l3.26 1.63-3.26 1.63z"/></g><g class="key-North-Korea"><circle cx="434" cy="176" r="1.1" fill="#2D8587" stroke="none" opacity=".7"/><path stroke-width=".43" opacity=".7" stroke="#2D8587" fill="none" stroke-linecap="butt" d="M434 176h0l25 66h0l25 32h0l25 8h0l63 55h0l25 23h0"/><path cx="597" cy="360" r="1.63" fill="#2D8587" opacity=".7" d="M595.37 358.37l3.26 1.63-3.26 1.63z"/></g><g class="key-Madagascar"><circle cx="120" cy="191" r="1.1" fill="#923E8B" stroke="none" opacity=".7"/><path stroke-width=".43" opacity=".7" stroke="#923E8B" fill="none" stroke-linecap="butt" d="M120 191h0l1 35h0l1-5h0l1-16h0l4 28h0l4 18h0"/><path cx="131" cy="251" r="1.63" fill="#923E8B" opacity=".7" d="M129.37 249.37l3.26 1.63-3.26 1.63z"/></g><g class="key-Cameroon"><circle cx="322" cy="317" r="1.1" fill="#923E8B" stroke="none" opacity=".7"/><path stroke-width=".43" opacity=".7" stroke="#923E8B" fill="none" stroke-linecap="butt" d="M322 317h0l10-9h0l10 14h0l4-5h0l8 19h0l4 5h0"/><path cx="358" cy="341" r="1.63" fill="#923E8B" opacity=".7" d="M356.37 339.37l3.26 1.63-3.26 1.63z"/></g><g class="key-Cote-d__0027Ivoire"><circle cx="155" cy="388" r="1.1" fill="#923E8B" stroke="none" opacity=".7"/><path stroke-width=".43" opacity=".7" stroke="#923E8B" fill="none" stroke-linecap="butt" d="M155 388h0l7-60h0l7 14h0l17-44h0l2 5h0l12 49h0l6 41h0"/><path cx="206" cy="393" r="1.63" fill="#923E8B" opacity=".7" d="M204.37 391.37l3.26 1.63-3.26 1.63z"/></g><g class="key-Australia"><circle cx="718" cy="503" r="1.1" fill="#A8633C" stroke="none" opacity=".7"/><path stroke-width=".43" opacity=".7" stroke="#A8633C" fill="none" stroke-linecap="butt" d="M718 503h0v-10h0"/><path cx="718" cy="493" r="1.63" fill="#A8633C" opacity=".7" d="M716.37 491.37l3.26 1.63-3.26 1.63z"/></g><g class="key-Romania"><circle cx="526" cy="446" r="1.1" fill="#4C5C78" stroke="none" opacity=".7"/><path stroke-width=".43" opacity=".7" stroke="#4C5C78" fill="none" stroke-linecap="butt" d="M526 446h0l17-21h0l2 13 2-7 1 7h0"/><path cx="548" cy="438" r="1.63" fill="#4C5C78" opacity=".7" d="M546.37 436.37l3.26 1.63-3.26 1.63z"/></g><g class="key-Sri-Lanka"><circle cx="524" cy="338" r="1.1" fill="#2D8587" stroke="none" opacity=".7"/><path stroke-width=".43" opacity=".7" stroke="#2D8587" fill="none" stroke-linecap="butt" d="M524 338h0l21 13h0l14 19h0l34 39h0l49 6h0l14-10h0l21 23h0l8-13h0"/><path cx="685" cy="415" r="1.63" fill="#2D8587" opacity=".7" d="M683.37 413.37l3.26 1.63-3.26 1.63z"/></g><g class="key-Niger"><circle cx="83" cy="279" r="1.1" fill="#923E8B" stroke="none" opacity=".7"/><path stroke-width=".43" opacity=".7" stroke="#923E8B" fill="none" stroke-linecap="butt" d="M83 279l3-23h0l11-12h0l3-18h0l11-3h0l13 60h0l5 4h0"/><path cx="129" cy="287" r="1.63" fill="#923E8B" opacity=".7" d="M127.37 285.37l3.26 1.63-3.26 1.63z"/></g><g class="key-Burkina-Faso"><circle cx="113" cy="295" r="1.1" fill="#923E8B" stroke="none" opacity=".7"/><path stroke-width=".42" opacity=".7" stroke="#923E8B" fill="none" stroke-linecap="butt" d="M113 295h0l17-25h0l14 12h0l12 4h0l12 37h4l4 6 4 6 2 8 3 12h0"/><path cx="185" cy="355" r="1.62" fill="#923E8B" opacity=".7" d="M183.38 353.38l3.24 1.62-3.24 1.62z"/></g><g class="key-Chile"><circle cx="617" cy="434" r="1.1" fill="#932834" stroke="none" opacity=".7"/><path stroke-width=".42" opacity=".7" stroke="#932834" fill="none" stroke-linecap="butt" d="M617 434h0l19 48h0l4 1 5 1h0l9 2 4 1h0l9 2 4 1h4l4 1h0l8 1h4l4 1h0l16 1h0"/><path cx="711" cy="494" r="1.62" fill="#932834" opacity=".7" d="M709.38 492.38l3.24 1.62-3.24 1.62z"/></g><g class="key-Kazakhstan"><circle cx="695" cy="384" r="1.1" fill="#2D8587" stroke="none" opacity=".7"/><path stroke-width=".42" opacity=".7" stroke="#2D8587" fill="none" stroke-linecap="butt" d="M695 384h0l1 48h0l2-18h0l2 22h0l1 26h0"/><path cx="701" cy="462" r="1.62" fill="#2D8587" opacity=".7" d="M699.38 460.38l3.24 1.62-3.24 1.62z"/></g><g class="key-Mali"><circle cx="150" cy="320" r="1.1" fill="#923E8B" stroke="none" opacity=".7"/><path stroke-width=".42" opacity=".7" stroke="#923E8B" fill="none" stroke-linecap="butt" d="M150 320h0l15-21h0l13-14h0l15 21h0l12 55h0l15-13h0"/><path cx="220" cy="348" r="1.62" fill="#923E8B" opacity=".7" d="M218.38 346.38l3.24 1.62-3.24 1.62z"/></g><g class="key-Malawi"><circle cx="258" cy="217" r="1.1" fill="#923E8B" stroke="none" opacity=".7"/><path stroke-width=".42" opacity=".7" stroke="#923E8B" fill="none" stroke-linecap="butt" d="M258 217h0l10 11h0l10-50h0l6 46h0l11 10h0l6-3h0l9 22h0l3 5h0l12 28h0l3 27"/><path cx="328" cy="313" r="1.62" fill="#923E8B" opacity=".7" d="M329.43 311.21l-1.25 3.4-1.97-3.04z"/></g><g class="key-Guatemala"><circle cx="369" cy="164" r="1.1" fill="#E04E4B" stroke="none" opacity=".7"/><path stroke-width=".42" opacity=".7" stroke="#E04E4B" fill="none" stroke-linecap="butt" d="M369 164h0l24 56h0l19 11h0l6 16h0l9-22h0l32 32h0l20 8h0"/><path cx="479" cy="265" r="1.62" fill="#E04E4B" opacity=".7" d="M477.38 263.38l3.24 1.62-3.24 1.62z"/></g><g class="key-Ecuador"><circle cx="434" cy="297" r="1.1" fill="#932834" stroke="none" opacity=".7"/><path stroke-width=".42" opacity=".7" stroke="#932834" fill="none" stroke-linecap="butt" d="M434 297h0l67 40h0l46 18h0l15 16h0l42 3h0l13 7h0"/><path cx="617" cy="381" r="1.62" fill="#932834" opacity=".7" d="M615.38 379.38l3.24 1.62-3.24 1.62z"/></g><g class="key-Zambia"><circle cx="324" cy="266" r="1.1" fill="#923E8B" stroke="none" opacity=".7"/><path stroke-width=".42" opacity=".7" stroke="#923E8B" fill="none" stroke-linecap="butt" d="M324 266h0v-60h0v48h0v-47h0l4 27h0l8 35h0l8 29h0"/><path cx="344" cy="298" r="1.62" fill="#923E8B" opacity=".7" d="M342.38 296.38l3.24 1.62-3.24 1.62z"/></g><g class="key-Cambodia"><circle cx="119" cy="203" r="1.1" fill="#2D8587" stroke="none" opacity=".7"/><path stroke-width=".42" opacity=".7" stroke="#2D8587" fill="none" stroke-linecap="butt" d="M119 203h0l46 48h0l56 28h0l35 22h0l23-7h0l47 43h0"/><path cx="326" cy="337" r="1.62" fill="#2D8587" opacity=".7" d="M324.38 335.38l3.24 1.62-3.24 1.62z"/></g><g class="key-Senegal"><circle cx="291" cy="367" r="1.1" fill="#923E8B" stroke="none" opacity=".7"/><path stroke-width=".42" opacity=".7" stroke="#923E8B" fill="none" stroke-linecap="butt" d="M291 367h0l7-40 3 4h0l10 25h0l12-4h0l15 48h0l20-44h0l3 68 4-19 3-1 3-6"/><path cx="371" cy="398" r="1.62" fill="#923E8B" opacity=".7" d="M368.83 398.72l2.9-2.17v3.62z"/></g><g class="key-Chad"><circle cx="118" cy="273" r="1.1" fill="#923E8B" stroke="none" opacity=".7"/><path stroke-width=".42" opacity=".7" stroke="#923E8B" fill="none" stroke-linecap="butt" d="M118 273h0l3 29h0l5-28h0l8 31h0l3-6h0"/><path cx="137" cy="299" r="1.62" fill="#923E8B" opacity=".7" d="M135.38 297.38l3.24 1.62-3.24 1.62z"/></g><g class="key-Zimbabwe"><circle cx="321" cy="344" r="1.1" fill="#923E8B" stroke="none" opacity=".7"/><path stroke-width=".42" opacity=".7" stroke="#923E8B" fill="none" stroke-linecap="butt" d="M321 344h0l-2 13h0l-2-26h0l-5-11h0l-5 3h0l-1 15h0l-5 24h0l-1 4"/><path cx="300" cy="366" r="1.62" fill="#923E8B" opacity=".7" d="M301.96 364.82l-2.35 2.75-.79-3.53z"/></g><g class="key-Somalia"><circle cx="201" cy="354" r="1.1" fill="#923E8B" stroke="none" opacity=".7"/><path stroke-width=".42" opacity=".7" stroke="#923E8B" fill="none" stroke-linecap="butt" d="M201 354h0l5-66h0l4 86h0"/><path cx="210" cy="374" r="1.62" fill="#923E8B" opacity=".7" d="M208.38 372.38l3.24 1.62-3.24 1.62z"/></g><g class="key-Guinea"><circle cx="124" cy="322" r="1.1" fill="#923E8B" stroke="none" opacity=".7"/><path stroke-width=".42" opacity=".7" stroke="#923E8B" fill="none" stroke-linecap="butt" d="M124 322h0l15 6h0l19-26h0l7-4h0l13 22h0l4 23h0l8-6h0"/><path cx="190" cy="337" r="1.62" fill="#923E8B" opacity=".7" d="M188.38 335.38l3.24 1.62-3.24 1.62z"/></g><g class="key-Rwanda"><circle cx="294" cy="212" r="1.1" fill="#923E8B" stroke="none" opacity=".7"/><path stroke-width=".42" opacity=".7" stroke="#923E8B" fill="none" stroke-linecap="butt" d="M294 212h0l38 59h0l33-15h0l37-18h0l33 38h0l29 33h0"/><path cx="464" cy="309" r="1.62" fill="#923E8B" opacity=".7" d="M462.38 307.38l3.24 1.62-3.24 1.62z"/></g><g class="key-Cuba"><circle cx="630" cy="467" r="1.1" fill="#E04E4B" stroke="none" opacity=".7"/><path stroke-width=".42" opacity=".7" stroke="#E04E4B" fill="none" stroke-linecap="butt" d="M630 467h0"/><path cx="630" cy="467" r="1.62" fill="#E04E4B" opacity=".7" d="M628.38 465.38l3.24 1.62-3.24 1.62z"/></g><g class="key-Tunisia"><circle cx="537" cy="408" r="1.1" fill="#923E8B" stroke="none" opacity=".7"/><path stroke-width=".42" opacity=".7" stroke="#923E8B" fill="none" stroke-linecap="butt" d="M537 408h0l45 34h0l16-25h0l29 40h0l27-6h0"/><path cx="654" cy="451" r="1.62" fill="#923E8B" opacity=".7" d="M652.38 449.38l3.24 1.62-3.24 1.62z"/></g><g class="key-Bolivia"><circle cx="245" cy="278" r="1.1" fill="#932834" stroke="none" opacity=".7"/><path stroke-width=".42" opacity=".7" stroke="#932834" fill="none" stroke-linecap="butt" d="M245 278h0l25 35h0l24 21h0l30 3h0l30 27h0l23 46h0l12 11h0"/><path cx="389" cy="421" r="1.62" fill="#932834" opacity=".7" d="M387.38 419.38l3.24 1.62-3.24 1.62z"/></g><g class="key-South-Sudan"><circle cx="100" cy="344" r="1.1" fill="#923E8B" stroke="none" opacity=".7"/><path stroke-width=".42" opacity=".7" stroke="#923E8B" fill="none" stroke-linecap="butt" d="M100 344h0"/><path cx="100" cy="344" r="1.62" fill="#923E8B" opacity=".7" d="M98.38 342.38l3.24 1.62-3.24 1.62z"/></g><g class="key-Haiti"><circle cx="173" cy="298" r="1.1" fill="#E04E4B" stroke="none" opacity=".7"/><path stroke-width=".42" opacity=".7" stroke="#E04E4B" fill="none" stroke-linecap="butt" d="M173 298h0l9 15h0l14 45h0l21-7h0l16 40h0"/><path cx="233" cy="391" r="1.62" fill="#E04E4B" opacity=".7" d="M231.38 389.38l3.24 1.62-3.24 1.62z"/></g><g class="key-Benin"><circle cx="122" cy="303" r="1.1" fill="#923E8B" stroke="none" opacity=".7"/><path stroke-width=".42" opacity=".7" stroke="#923E8B" fill="none" stroke-linecap="butt" d="M122 303h17l18-29h0l29 55h0"/><path cx="186" cy="329" r="1.62" fill="#923E8B" opacity=".7" d="M184.38 327.38l3.24 1.62-3.24 1.62z"/></g><g class="key-Czechia"><circle cx="712" cy="487" r="1.1" fill="#4C5C78" stroke="none" opacity=".7"/><path stroke-width=".42" opacity=".7" stroke="#4C5C78" fill="none" stroke-linecap="butt" d="M712 487h0v3h0"/><path cx="712" cy="490" r="1.62" fill="#4C5C78" opacity=".7" d="M710.38 488.38l3.24 1.62-3.24 1.62z"/></g><g class="key-Dominican-Republic"><circle cx="539" cy="399" r="1.1" fill="#E04E4B" stroke="none" opacity=".7"/><path stroke-width=".42" opacity=".7" stroke="#E04E4B" fill="none" stroke-linecap="butt" d="M539 399l3-4h0l14 37h0l13 30h0l6-19h0l13 6h0l3 2h0l16 16h0"/><path cx="607" cy="467" r="1.62" fill="#E04E4B" opacity=".7" d="M605.38 465.38l3.24 1.62-3.24 1.62z"/></g><g class="key-Burundi"><circle cx="332" cy="215" r="1.1" fill="#923E8B" stroke="none" opacity=".7"/><path stroke-width=".42" opacity=".7" stroke="#923E8B" fill="none" stroke-linecap="butt" d="M332 215h0l18-35h0l8 28h0l9 1h0l7 8h0"/><path cx="374" cy="217" r="1.62" fill="#923E8B" opacity=".7" d="M372.38 215.38l3.24 1.62-3.24 1.62z"/></g><g class="key-Azerbaijan"><circle cx="471" cy="360" r="1.1" fill="#2D8587" stroke="none" opacity=".7"/><path stroke-width=".42" opacity=".7" stroke="#2D8587" fill="none" stroke-linecap="butt" d="M471 360h0l19 20h0l11 31h0l53-45h0l53 53h0l20-8h0"/><path cx="627" cy="411" r="1.62" fill="#2D8587" opacity=".7" d="M625.38 409.38l3.24 1.62-3.24 1.62z"/></g><g class="key-Belarus"><circle cx="682" cy="480" r="1.1" fill="#4C5C78" stroke="none" opacity=".7"/><path stroke-width=".42" opacity=".7" stroke="#4C5C78" fill="none" stroke-linecap="butt" d="M682 480h0"/><path cx="682" cy="480" r="1.62" fill="#4C5C78" opacity=".7" d="M680.38 478.38l3.24 1.62-3.24 1.62z"/></g><g class="key-Jordan"><circle cx="700" cy="398" r="1.1" fill="#2D8587" stroke="none" opacity=".7"/><path stroke-width=".42" opacity=".7" stroke="#2D8587" fill="none" stroke-linecap="butt" d="M700 398h0l2 48h0l2-4h0l3 19h0l1 2h0"/><path cx="708" cy="463" r="1.62" fill="#2D8587" opacity=".7" d="M706.38 461.38l3.24 1.62-3.24 1.62z"/></g><g class="key-Honduras"><circle cx="375" cy="281" r="1.1" fill="#E04E4B" stroke="none" opacity=".7"/><path stroke-width=".42" opacity=".7" stroke="#E04E4B" fill="none" stroke-linecap="butt" d="M375 281h0l21 5h0l20-17h0l20 37h0l48 21h0l48 23h0l53 37h0"/><path cx="585" cy="387" r="1.62" fill="#E04E4B" opacity=".7" d="M583.38 385.38l3.24 1.62-3.24 1.62z"/></g><g class="key-Serbia"><circle cx="696" cy="462" r="1.1" fill="#4C5C78" stroke="none" opacity=".7"/><path stroke-width=".42" opacity=".7" stroke="#4C5C78" fill="none" stroke-linecap="butt" d="M696 462h0l-1 7h0v3h0"/><path cx="695" cy="472" r="1.62" fill="#4C5C78" opacity=".7" d="M693.38 470.38l3.24 1.62-3.24 1.62z"/></g><g class="key-Tajikistan"><circle cx="652" cy="291" r="1.1" fill="#2D8587" stroke="none" opacity=".7"/><path stroke-width=".42" opacity=".7" stroke="#2D8587" fill="none" stroke-linecap="butt" d="M652 291h0l2-3 2-6 3 31 2-27h0l4 48h0l4-32h0l5 54h0l7 10h0"/><path cx="681" cy="366" r="1.62" fill="#2D8587" opacity=".7" d="M679.38 364.38l3.24 1.62-3.24 1.62z"/></g><g class="key-Papua-New-Guinea"><circle cx="183" cy="278" r="1.1" fill="#A8633C" stroke="none" opacity=".7"/><path stroke-width=".42" opacity=".7" stroke="#A8633C" fill="none" stroke-linecap="butt" d="M183 278h0l-1-28h0"/><path cx="182" cy="250" r="1.62" fill="#A8633C" opacity=".7" d="M180.38 248.38l3.24 1.62-3.24 1.62z"/></g><g class="key-Bulgaria"><circle cx="624" cy="458" r="1.1" fill="#4C5C78" stroke="none" opacity=".7"/><path stroke-width=".42" opacity=".7" stroke="#4C5C78" fill="none" stroke-linecap="butt" d="M624 458h0"/><path cx="624" cy="458" r="1.62" fill="#4C5C78" opacity=".7" d="M622.38 456.38l3.24 1.62-3.24 1.62z"/></g><g class="key-Togo"><circle cx="134" cy="295" r="1.1" fill="#923E8B" stroke="none" opacity=".7"/><path stroke-width=".42" opacity=".7" stroke="#923E8B" fill="none" stroke-linecap="butt" d="M134 295h0l-1 2h0l-1 36h0v28h0l1 4h0v-14h0l1 11h0"/><path cx="134" cy="362" r="1.62" fill="#923E8B" opacity=".7" d="M132.38 360.38l3.24 1.62-3.24 1.62z"/></g><g class="key-Sierra-Leone"><circle cx="124" cy="294" r="1.1" fill="#923E8B" stroke="none" opacity=".7"/><path stroke-width=".42" opacity=".7" stroke="#923E8B" fill="none" stroke-linecap="butt" d="M124 294h0l8 13h0l4-44h0l2 49h0l2-39h0l3 36h0"/><path cx="143" cy="309" r="1.62" fill="#923E8B" opacity=".7" d="M141.38 307.38l3.24 1.62-3.24 1.62z"/></g><g class="key-Laos"><circle cx="190" cy="232" r="1.1" fill="#2D8587" stroke="none" opacity=".7"/><path stroke-width=".42" opacity=".7" stroke="#2D8587" fill="none" stroke-linecap="butt" d="M190 232h0l52 24h0l122 3h0l101 20h0"/><path cx="465" cy="279" r="1.62" fill="#2D8587" opacity=".7" d="M463.38 277.38l3.24 1.62-3.24 1.62z"/></g><g class="key-Paraguay"><circle cx="402" cy="409" r="1.1" fill="#932834" stroke="none" opacity=".7"/><path stroke-width=".42" opacity=".7" stroke="#932834" fill="none" stroke-linecap="butt" d="M402 409h0l156 5h0l63 33h0l21 27h0"/><path cx="642" cy="474" r="1.62" fill="#932834" opacity=".7" d="M640.38 472.38l3.24 1.62-3.24 1.62z"/></g><g class="key-El-Salvador"><circle cx="395" cy="315" r="1.1" fill="#E04E4B" stroke="none" opacity=".7"/><path stroke-width=".42" opacity=".7" stroke="#E04E4B" fill="none" stroke-linecap="butt" d="M395 315h0l21 37h0l41-14h0l30 39h0l28 21h0l32 36h0"/><path cx="547" cy="434" r="1.62" fill="#E04E4B" opacity=".7" d="M545.38 432.38l3.24 1.62-3.24 1.62z"/></g><g class="key-Libya"><circle cx="695" cy="395" r="1.1" fill="#923E8B" stroke="none" opacity=".7"/><path stroke-width=".42" opacity=".7" stroke="#923E8B" fill="none" stroke-linecap="butt" d="M695 395h0v1h0"/><path cx="695" cy="396" r="1.62" fill="#923E8B" opacity=".7" d="M693.38 394.38l3.24 1.62-3.24 1.62z"/></g><g class="key-Nicaragua"><circle cx="368" cy="352" r="1.1" fill="#E04E4B" stroke="none" opacity=".7"/><path stroke-width=".42" opacity=".7" stroke="#E04E4B" fill="none" stroke-linecap="butt" d="M368 352h0l34-5h0l22 27h0l20 33h0l13-22h0l41 30h0"/><path cx="498" cy="415" r="1.62" fill="#E04E4B" opacity=".7" d="M496.38 413.38l3.24 1.62-3.24 1.62z"/></g><g class="key-Kyrgyzstan"><circle cx="661" cy="318" r="1.1" fill="#2D8587" stroke="none" opacity=".7"/><path stroke-width=".42" opacity=".7" stroke="#2D8587" fill="none" stroke-linecap="butt" d="M661 318h0l6 92h0l2-23h0l2 25h0l2 25h0"/><path cx="673" cy="437" r="1.62" fill="#2D8587" opacity=".7" d="M671.38 435.38l3.24 1.62-3.24 1.62z"/></g><g class="key-Turkmenistan"><circle cx="469" cy="359" r="1.1" fill="#2D8587" stroke="none" opacity=".7"/><path stroke-width=".42" opacity=".7" stroke="#2D8587" fill="none" stroke-linecap="butt" d="M469 359h0l2 47h0"/><path cx="471" cy="406" r="1.62" fill="#2D8587" opacity=".7" d="M469.38 404.38l3.24 1.62-3.24 1.62z"/></g><g class="key-Congo"><circle cx="145" cy="343" r="1.1" fill="#923E8B" stroke="none" opacity=".7"/><path stroke-width=".42" opacity=".7" stroke="#923E8B" fill="none" stroke-linecap="butt" d="M145 343h0l7 32h0l4 20h0"/><path cx="156" cy="395" r="1.62" fill="#923E8B" opacity=".7" d="M154.38 393.38l3.24 1.62-3.24 1.62z"/></g><g class="key-Lebanon"><circle cx="603" cy="415" r="1.1" fill="#2D8587" stroke="none" opacity=".7"/><path stroke-width=".42" opacity=".7" stroke="#2D8587" fill="none" stroke-linecap="butt" d="M603 415h0l-3 4h0"/><path cx="600" cy="419" r="1.62" fill="#2D8587" opacity=".7" d="M598.38 417.38l3.24 1.62-3.24 1.62z"/></g><g class="key-Costa-Rica"><circle cx="654" cy="461" r="1.1" fill="#E04E4B" stroke="none" opacity=".7"/><path stroke-width=".41" opacity=".7" stroke="#E04E4B" fill="none" stroke-linecap="butt" d="M654 461h0l21 13h0"/><path cx="675" cy="474" r="1.61" fill="#E04E4B" opacity=".7" d="M673.39 472.39l3.22 1.61-3.22 1.61z"/></g><g class="key-Palestine"><circle cx="634" cy="449" r="1.1" fill="#2D8587" stroke="none" opacity=".7"/><path stroke-width=".41" opacity=".7" stroke="#2D8587" fill="none" stroke-linecap="butt" d="M634 449h0l12-28h0l10 22h0l6 4h0l5 18h0"/><path cx="667" cy="465" r="1.61" fill="#2D8587" opacity=".7" d="M665.39 463.39l3.22 1.61-3.22 1.61z"/></g><g class="key-Central-African-Republic"><circle cx="158" cy="291" r="1.1" fill="#923E8B" stroke="none" opacity=".7"/><path stroke-width=".41" opacity=".7" stroke="#923E8B" fill="none" stroke-linecap="butt" d="M158 291h0l13-16h0l13-3h0l10 23h0"/><path cx="194" cy="295" r="1.61" fill="#923E8B" opacity=".7" d="M192.39 293.39l3.22 1.61-3.22 1.61z"/></g><g class="key-Liberia"><circle cx="143" cy="271" r="1.1" fill="#923E8B" stroke="none" opacity=".7"/><path stroke-width=".41" opacity=".7" stroke="#923E8B" fill="none" stroke-linecap="butt" d="M143 271h0l12 30h0l5-12h0l5 50h0"/><path cx="165" cy="339" r="1.61" fill="#923E8B" opacity=".7" d="M163.39 337.39l3.22 1.61-3.22 1.61z"/></g><g class="key-Oman"><circle cx="601" cy="379" r="1.1" fill="#2D8587" stroke="none" opacity=".7"/><path stroke-width=".41" opacity=".7" stroke="#2D8587" fill="none" stroke-linecap="butt" d="M601 379h0l11 16h0l28 42h0l56 16h0v-22h0"/><path cx="696" cy="431" r="1.61" fill="#2D8587" opacity=".7" d="M694.39 429.39l3.22 1.61-3.22 1.61z"/></g><g class="key-Singapore"><circle cx="716" cy="481" r="1.1" fill="#2D8587" stroke="none" opacity=".7"/><path stroke-width=".41" opacity=".7" stroke="#2D8587" fill="none" stroke-linecap="butt" d="M716 481h0"/><path cx="716" cy="481" r="1.61" fill="#2D8587" opacity=".7" d="M714.39 479.39l3.22 1.61-3.22 1.61z"/></g><g class="key-Moldova"><circle cx="545" cy="445" r="1.1" fill="#4C5C78" stroke="none" opacity=".7"/><path stroke-width=".41" opacity=".7" stroke="#4C5C78" fill="none" stroke-linecap="butt" d="M545 445h0l13 25h0"/><path cx="558" cy="470" r="1.61" fill="#4C5C78" opacity=".7" d="M556.39 468.39l3.22 1.61-3.22 1.61z"/></g><g class="key-Mauritania"><circle cx="160" cy="223" r="1.1" fill="#923E8B" stroke="none" opacity=".7"/><path stroke-width=".41" opacity=".7" stroke="#923E8B" fill="none" stroke-linecap="butt" d="M160 223h0l24 25h0l29 53h0l55 54h0l8 30h0l25-34h0l8 40h0l12-31h0"/><path cx="321" cy="360" r="1.61" fill="#923E8B" opacity=".7" d="M319.39 358.39l3.22 1.61-3.22 1.61z"/></g><g class="key-Georgia"><circle cx="693" cy="421" r="1.1" fill="#2D8587" stroke="none" opacity=".7"/><path stroke-width=".41" opacity=".7" stroke="#2D8587" fill="none" stroke-linecap="butt" d="M693 421h0l-25 7h0l-17 17h0"/><path cx="651" cy="445" r="1.61" fill="#2D8587" opacity=".7" d="M649.39 443.39l3.22 1.61-3.22 1.61z"/></g><g class="key-Kuwait"><circle cx="718" cy="478" r="1.1" fill="#2D8587" stroke="none" opacity=".7"/><path stroke-width=".41" opacity=".7" stroke="#2D8587" fill="none" stroke-linecap="butt" d="M718 478h0v5h0v2-5h0v-3h0v7-2 1-10 5"/><path cx="718" cy="478" r="1.61" fill="#2D8587" opacity=".7" d="M719.61 476.39l-1.61 3.22-1.61-3.22z"/></g><g class="key-Panama"><circle cx="484" cy="393" r="1.1" fill="#E04E4B" stroke="none" opacity=".7"/><path stroke-width=".41" opacity=".7" stroke="#E04E4B" fill="none" stroke-linecap="butt" d="M484 393h0l25-4h0l18 16h0"/><path cx="527" cy="405" r="1.61" fill="#E04E4B" opacity=".7" d="M525.39 403.39l3.22 1.61-3.22 1.61z"/></g><g class="key-Bosnia-and-Herzegovina"><circle cx="684" cy="441" r="1.1" fill="#4C5C78" stroke="none" opacity=".7"/><path stroke-width=".41" opacity=".7" stroke="#4C5C78" fill="none" stroke-linecap="butt" d="M684 441h0l-1 2h0v15h0"/><path cx="683" cy="458" r="1.61" fill="#4C5C78" opacity=".7" d="M681.39 456.39l3.22 1.61-3.22 1.61z"/></g><g class="key-Uruguay"><circle cx="665" cy="396" r="1.1" fill="#932834" stroke="none" opacity=".7"/><path stroke-width=".41" opacity=".7" stroke="#932834" fill="none" stroke-linecap="butt" d="M665 396h0l8 42h0l4-10h0l2-6 1 10h0l4 16h5"/><path cx="689" cy="448" r="1.61" fill="#932834" opacity=".7" d="M687.39 446.39l3.22 1.61-3.22 1.61z"/></g><g class="key-Eritrea"><circle cx="120" cy="147" r="1.1" fill="#923E8B" stroke="none" opacity=".7"/><path stroke-width=".41" opacity=".7" stroke="#923E8B" fill="none" stroke-linecap="butt" d="M120 147h0l2 111h0l14 21h0l17-33h0"/><path cx="153" cy="246" r="1.61" fill="#923E8B" opacity=".7" d="M151.39 244.39l3.22 1.61-3.22 1.61z"/></g><g class="key-Mongolia"><circle cx="361" cy="334" r="1.1" fill="#2D8587" stroke="none" opacity=".7"/><path stroke-width=".41" opacity=".7" stroke="#2D8587" fill="none" stroke-linecap="butt" d="M361 334h0l10 15h0l4 2h0l25 32h0l5-21h0l25 61h0l13 25h0"/><path cx="443" cy="448" r="1.61" fill="#2D8587" opacity=".7" d="M441.39 446.39l3.22 1.61-3.22 1.61z"/></g><g class="key-Armenia"><circle cx="648" cy="426" r="1.1" fill="#2D8587" stroke="none" opacity=".7"/><path stroke-width=".41" opacity=".7" stroke="#2D8587" fill="none" stroke-linecap="butt" d="M648 426h0l-1-13h0l1-3h0v-13h0v58h0"/><path cx="648" cy="455" r="1.61" fill="#2D8587" opacity=".7" d="M646.39 453.39l3.22 1.61-3.22 1.61z"/></g><g class="key-Albania"><circle cx="592" cy="399" r="1.1" fill="#4C5C78" stroke="none" opacity=".7"/><path stroke-width=".41" opacity=".7" stroke="#4C5C78" fill="none" stroke-linecap="butt" d="M592 399h0l16-97h0l26 63h0l19 20h0"/><path cx="653" cy="385" r="1.61" fill="#4C5C78" opacity=".7" d="M651.39 383.39l3.22 1.61-3.22 1.61z"/></g><g class="key-Jamaica"><circle cx="584" cy="440" r="1.1" fill="#E04E4B" stroke="none" opacity=".7"/><path stroke-width=".41" opacity=".7" stroke="#E04E4B" fill="none" stroke-linecap="butt" d="M584 440l1 17v-29l1 6 1 8v13-9l1 13 1 2v10l1-2 1 1v-1h0l1 11h0l1-6 1 10 1-7h0l1 2h0l1-5h0v-3h0"/><path cx="597" cy="471" r="1.61" fill="#E04E4B" opacity=".7" d="M595.39 469.39l3.22 1.61-3.22 1.61z"/></g><g class="key-Namibia"><circle cx="219" cy="320" r="1.1" fill="#923E8B" stroke="none" opacity=".7"/><path stroke-width=".41" opacity=".7" stroke="#923E8B" fill="none" stroke-linecap="butt" d="M219 320h0l19 32h22l19 33h0"/><path cx="279" cy="385" r="1.61" fill="#923E8B" opacity=".7" d="M277.39 383.39l3.22 1.61-3.22 1.61z"/></g><g class="key-Gambia"><circle cx="455" cy="318" r="1.1" fill="#923E8B" stroke="none" opacity=".7"/><path stroke-width=".41" opacity=".7" stroke="#923E8B" fill="none" stroke-linecap="butt" d="M455 318h0l-4 62h0l-4-18h0l-2 21h0v12-20h0"/><path cx="445" cy="375" r="1.61" fill="#923E8B" opacity=".7" d="M443.39 373.39l3.22 1.61-3.22 1.61z"/></g><g class="key-North-Macedonia"><circle cx="650" cy="462" r="1.1" fill="#4C5C78" stroke="none" opacity=".7"/><path stroke-width=".41" opacity=".7" stroke="#4C5C78" fill="none" stroke-linecap="butt" d="M650 462h0l2-18h0l6 34h0"/><path cx="658" cy="478" r="1.61" fill="#4C5C78" opacity=".7" d="M656.39 476.39l3.22 1.61-3.22 1.61z"/></g><g class="key-Lesotho"><circle cx="206" cy="311" r="1.1" fill="#923E8B" stroke="none" opacity=".7"/><path stroke-width=".41" opacity=".7" stroke="#923E8B" fill="none" stroke-linecap="butt" d="M206 311h0l9-79h0l12 40h0l15 31h0l14 30h0"/><path cx="256" cy="333" r="1.61" fill="#923E8B" opacity=".7" d="M254.39 331.39l3.22 1.61-3.22 1.61z"/></g><g class="key-Botswana"><circle cx="369" cy="323" r="1.1" fill="#923E8B" stroke="none" opacity=".7"/><path stroke-width=".41" opacity=".7" stroke="#923E8B" fill="none" stroke-linecap="butt" d="M369 323h0l29 31h0l42-12h0"/><path cx="440" cy="342" r="1.61" fill="#923E8B" opacity=".7" d="M438.39 340.39l3.22 1.61-3.22 1.61z"/></g><g class="key-Gabon"><circle cx="313" cy="369" r="1.1" fill="#923E8B" stroke="none" opacity=".7"/><path stroke-width=".41" opacity=".7" stroke="#923E8B" fill="none" stroke-linecap="butt" d="M313 369h0l17 45h0"/><path cx="330" cy="414" r="1.61" fill="#923E8B" opacity=".7" d="M328.39 412.39l3.22 1.61-3.22 1.61z"/></g><g class="key-Guinea__002dBissau"><circle cx="139" cy="318" r="1.1" fill="#923E8B" stroke="none" opacity=".7"/><path stroke-width=".41" opacity=".7" stroke="#923E8B" fill="none" stroke-linecap="butt" d="M139 318h0l26-59h0l17 79h0l12 24h0"/><path cx="194" cy="362" r="1.61" fill="#923E8B" opacity=".7" d="M192.39 360.39l3.22 1.61-3.22 1.61z"/></g><g class="key-Trinidad-and-Tobago"><circle cx="651" cy="471" r="1.1" fill="#E04E4B" stroke="none" opacity=".7"/><path stroke-width=".41" opacity=".7" stroke="#E04E4B" fill="none" stroke-linecap="butt" d="M651 471h0l5 5h0l5-29h0"/><path cx="661" cy="447" r="1.61" fill="#E04E4B" opacity=".7" d="M659.39 445.39l3.22 1.61-3.22 1.61z"/></g><g class="key-Timor"><circle cx="305" cy="218" r="1.1" fill="#2D8587" stroke="none" opacity=".7"/><path stroke-width=".41" opacity=".7" stroke="#2D8587" fill="none" stroke-linecap="butt" d="M305 218h0v5h0l5 4h0l3-19h0l9 38h0"/><path cx="322" cy="246" r="1.61" fill="#2D8587" opacity=".7" d="M320.39 244.39l3.22 1.61-3.22 1.61z"/></g><g class="key-Mauritius"><circle cx="659" cy="363" r="1.1" fill="#923E8B" stroke="none" opacity=".7"/><path stroke-width=".41" opacity=".7" stroke="#923E8B" fill="none" stroke-linecap="butt" d="M659 363v71h0"/><path cx="659" cy="434" r="1.61" fill="#923E8B" opacity=".7" d="M657.39 432.39l3.22 1.61-3.22 1.61z"/></g><g class="key-Equatorial-Guinea"><circle cx="593" cy="305" r="1.1" fill="#923E8B" stroke="none" opacity=".7"/><path stroke-width=".41" opacity=".7" stroke="#923E8B" fill="none" stroke-linecap="butt" d="M593 305h0l-6-20h0l-12 39h0l-20 45h0"/><path cx="555" cy="369" r="1.61" fill="#923E8B" opacity=".7" d="M553.39 367.39l3.22 1.61-3.22 1.61z"/></g><g class="key-Eswatini"><circle cx="399" cy="316" r="1.1" fill="#923E8B" stroke="none" opacity=".7"/><path stroke-width=".41" opacity=".7" stroke="#923E8B" fill="none" stroke-linecap="butt" d="M399 316h0l19 36h0l6-56h0l6 48h0l7 29h0"/><path cx="437" cy="373" r="1.61" fill="#923E8B" opacity=".7" d="M435.39 371.39l3.22 1.61-3.22 1.61z"/></g><g class="key-Djibouti"><circle cx="494" cy="360" r="1.1" fill="#923E8B" stroke="none" opacity=".7"/><path stroke-width=".41" opacity=".7" stroke="#923E8B" fill="none" stroke-linecap="butt" d="M494 360h0l-14-19h0l-45 26h0l-29-31h0l-37-4h0"/><path cx="369" cy="332" r="1.61" fill="#923E8B" opacity=".7" d="M367.39 330.39l3.22 1.61-3.22 1.61z"/></g><g class="key-Fiji"><circle cx="471" cy="481" r="1.1" fill="#A8633C" stroke="none" opacity=".7"/><path stroke-width=".41" opacity=".7" stroke="#A8633C" fill="none" stroke-linecap="butt" d="M471 481h0l120-16h0"/><path cx="591" cy="465" r="1.61" fill="#A8633C" opacity=".7" d="M589.39 463.39l3.22 1.61-3.22 1.61z"/></g><g class="key-Comoros"><circle cx="186" cy="306" r="1.1" fill="#923E8B" stroke="none" opacity=".7"/><path stroke-width=".41" opacity=".7" stroke="#923E8B" fill="none" stroke-linecap="butt" d="M186 306h0l17-8h0l20-35h0l60 76h0"/><path cx="283" cy="339" r="1.61" fill="#923E8B" opacity=".7" d="M281.39 337.39l3.22 1.61-3.22 1.61z"/></g><g class="key-Guyana"><circle cx="573" cy="431" r="1.1" fill="#932834" stroke="none" opacity=".7"/><path stroke-width=".41" opacity=".7" stroke="#932834" fill="none" stroke-linecap="butt" d="M573 431h0l7 1h0l16-22h0l8-7h0l5 39h0"/><path cx="609" cy="442" r="1.61" fill="#932834" opacity=".7" d="M607.39 440.39l3.22 1.61-3.22 1.61z"/></g><g class="key-Bhutan"><circle cx="182" cy="191" r="1.1" fill="#2D8587" stroke="none" opacity=".7"/><path stroke-width=".41" opacity=".7" stroke="#2D8587" fill="none" stroke-linecap="butt" d="M182 191h0l69 68h0l94 65h0l21 7h0"/><path cx="366" cy="331" r="1.61" fill="#2D8587" opacity=".7" d="M364.39 329.39l3.22 1.61-3.22 1.61z"/></g><g class="key-Bahrain"><circle cx="711" cy="432" r="1.1" fill="#2D8587" stroke="none" opacity=".7"/><path stroke-width=".41" opacity=".7" stroke="#2D8587" fill="none" stroke-linecap="butt" d="M711 432h0l1 2h0"/><path cx="712" cy="434" r="1.61" fill="#2D8587" opacity=".7" d="M710.39 432.39l3.22 1.61-3.22 1.61z"/></g><g class="key-Montenegro"><circle cx="658" cy="463" r="1.1" fill="#4C5C78" stroke="none" opacity=".7"/><path stroke-width=".41" opacity=".7" stroke="#4C5C78" fill="none" stroke-linecap="butt" d="M658 463h0l27-8h0"/><path cx="685" cy="455" r="1.61" fill="#4C5C78" opacity=".7" d="M683.39 453.39l3.22 1.61-3.22 1.61z"/></g><g class="key-Solomon-Islands"><circle cx="238" cy="335" r="1.1" fill="#A8633C" stroke="none" opacity=".7"/><path stroke-width=".41" opacity=".7" stroke="#A8633C" fill="none" stroke-linecap="butt" d="M238 335h0l16 6h0"/><path cx="254" cy="341" r="1.61" fill="#A8633C" opacity=".7" d="M252.39 339.39l3.22 1.61-3.22 1.61z"/></g><g class="key-Qatar"><circle cx="717" cy="444" r="1.1" fill="#2D8587" stroke="none" opacity=".7"/><path stroke-width=".41" opacity=".7" stroke="#2D8587" fill="none" stroke-linecap="butt" d="M717 444h0"/><path cx="717" cy="444" r="1.61" fill="#2D8587" opacity=".7" d="M715.39 442.39l3.22 1.61-3.22 1.61z"/></g><g class="key-Suriname"><circle cx="591" cy="429" r="1.1" fill="#932834" stroke="none" opacity=".7"/><path stroke-width=".41" opacity=".7" stroke="#932834" fill="none" stroke-linecap="butt" d="M591 429h0l-4 19h0l-4 10h0"/><path cx="583" cy="458" r="1.61" fill="#932834" opacity=".7" d="M581.39 456.39l3.22 1.61-3.22 1.61z"/></g><g class="key-Maldives"><circle cx="506" cy="318" r="1.1" fill="#2D8587" stroke="none" opacity=".7"/><path stroke-width=".41" opacity=".7" stroke="#2D8587" fill="none" stroke-linecap="butt" d="M506 318h0l11 16h0l27-51h0l51 57h0l95 59h0"/><path cx="690" cy="399" r="1.61" fill="#2D8587" opacity=".7" d="M688.39 397.39l3.22 1.61-3.22 1.61z"/></g><g class="key-Cape-Verde"><circle cx="283" cy="394" r="1.1" fill="#923E8B" stroke="none" opacity=".7"/><path stroke-width=".41" opacity=".7" stroke="#923E8B" fill="none" stroke-linecap="butt" d="M283 394h0"/><path cx="283" cy="394" r="1.61" fill="#923E8B" opacity=".7" d="M281.39 392.39l3.22 1.61-3.22 1.61z"/></g><g class="key-Belize"><circle cx="629" cy="389" r="1.1" fill="#E04E4B" stroke="none" opacity=".7"/><path stroke-width=".41" opacity=".7" stroke="#E04E4B" fill="none" stroke-linecap="butt" d="M629 389h0l22 15h0l4 22h0"/><path cx="655" cy="426" r="1.61" fill="#E04E4B" opacity=".7" d="M653.39 424.39l3.22 1.61-3.22 1.61z"/></g><g class="key-Barbados"><circle cx="684" cy="464" r="1.1" fill="#E04E4B" stroke="none" opacity=".7"/><path stroke-width=".41" opacity=".7" stroke="#E04E4B" fill="none" stroke-linecap="butt" d="M684 464h0"/><path cx="684" cy="464" r="1.61" fill="#E04E4B" opacity=".7" d="M682.39 462.39l3.22 1.61-3.22 1.61z"/></g><g class="key-Vanuatu"><circle cx="293" cy="372" r="1.1" fill="#A8633C" stroke="none" opacity=".7"/><path stroke-width=".41" opacity=".7" stroke="#A8633C" fill="none" stroke-linecap="butt" d="M293 372h0l107-1h0l39-14h0"/><path cx="439" cy="357" r="1.61" fill="#A8633C" opacity=".7" d="M437.39 355.39l3.22 1.61-3.22 1.61z"/></g><g class="key-Sao-Tome-and-Principe"><circle cx="195" cy="323" r="1.1" fill="#923E8B" stroke="none" opacity=".7"/><path stroke-width=".41" opacity=".7" stroke="#923E8B" fill="none" stroke-linecap="butt" d="M195 323h0l48 32h0l16-14h0l26 74h0"/><path cx="285" cy="415" r="1.61" fill="#923E8B" opacity=".7" d="M283.39 413.39l3.22 1.61-3.22 1.61z"/></g><g class="key-Samoa"><circle cx="667" cy="470" r="1.1" fill="#A8633C" stroke="none" opacity=".7"/><path stroke-width=".41" opacity=".7" stroke="#A8633C" fill="none" stroke-linecap="butt" d="M667 470h0l-6 9h0"/><path cx="661" cy="479" r="1.61" fill="#A8633C" opacity=".7" d="M659.39 477.39l3.22 1.61-3.22 1.61z"/></g><g class="key-Saint-Lucia"><circle cx="648" cy="490" r="1.1" fill="#E04E4B" stroke="none" opacity=".7"/><path stroke-width=".41" opacity=".7" stroke="#E04E4B" fill="none" stroke-linecap="butt" d="M648 490h0"/><path cx="648" cy="490" r="1.61" fill="#E04E4B" opacity=".7" d="M646.39 488.39l3.22 1.61-3.22 1.61z"/></g><g class="key-Tonga"><circle cx="681" cy="492" r="1.1" fill="#A8633C" stroke="none" opacity=".7"/><path stroke-width=".41" opacity=".7" stroke="#A8633C" fill="none" stroke-linecap="butt" d="M681 492h0l-21-30h0"/><path cx="660" cy="462" r="1.61" fill="#A8633C" opacity=".7" d="M658.39 460.39l3.22 1.61-3.22 1.61z"/></g><g class="key-Seychelles"><circle cx="707" cy="464" r="1.1" fill="#923E8B" stroke="none" opacity=".7"/><path stroke-width=".41" opacity=".7" stroke="#923E8B" fill="none" stroke-linecap="butt" d="M707 464h0v-1h0"/><path cx="707" cy="463" r="1.61" fill="#923E8B" opacity=".7" d="M705.39 461.39l3.22 1.61-3.22 1.61z"/></g><g class="key-Kiribati"><circle cx="242" cy="327" r="1.11" fill="#A8633C" opacity=".8" stroke="#666" stroke-width=".5"/></g><g class="key-Tuvalu"><circle cx="599" cy="452" r="1.1" fill="#A8633C" stroke="none" opacity=".7"/><path stroke-width=".41" opacity=".7" stroke="#A8633C" fill="none" stroke-linecap="butt" d="M599 452h0"/><path cx="599" cy="452" r="1.61" fill="#A8633C" opacity=".7" d="M597.39 450.39l3.22 1.61-3.22 1.61z"/></g><g class="key-Nauru"><circle cx="490" cy="380" r="1.1" fill="#A8633C" stroke="none" opacity=".7"/><path stroke-width=".41" opacity=".7" stroke="#A8633C" fill="none" stroke-linecap="butt" d="M490 380h0"/><path cx="490" cy="380" r="1.61" fill="#A8633C" opacity=".7" d="M488.39 378.39l3.22 1.61-3.22 1.61z"/></g><g class="key-East-Asia-__0026-Pacific"><circle cx="409" cy="315" r="1.1" fill="#959595" stroke="none" opacity=".7"/><path stroke-width=".41" opacity=".7" stroke="#959595" fill="none" stroke-linecap="butt" d="M409 315h0l29 35h0l33 27h0l34 24h0l32 19h0l7 4 6 3 6 3 6 3 5 3"/><path cx="567" cy="436" r="1.61" fill="#959595" opacity=".7" d="M566.45 433.8l1.93 3.03-3.59-.28z"/></g><g class="key-High-income"><circle cx="710" cy="482" r="1.1" fill="#959595" stroke="none" opacity=".7"/><path stroke-width=".41" opacity=".7" stroke="#959595" fill="none" stroke-linecap="butt" d="M710 482h0l1 2h0l-2 2h0l2 1h0l2 2h1v1h0"/><path cx="714" cy="490" r="1.61" fill="#959595" opacity=".7" d="M712.39 488.39l3.22 1.61-3.22 1.61z"/></g><g class="key-Latin-America-__0026-Caribbean"><circle cx="501" cy="386" r="1.1" fill="#959595" stroke="none" opacity=".7"/><path stroke-width=".41" opacity=".7" stroke="#959595" fill="none" stroke-linecap="butt" d="M501 386h0l26 16h0l23 15h0l21 12h0l20 12h0l4 2 3 2 4 2 3 2 1 1"/><path cx="606" cy="450" r="1.61" fill="#959595" opacity=".7" d="M606 447.72l1.14 3.42-3.42-1.14z"/></g><g class="key-Low-__0026-middle-income"><circle cx="337" cy="273" r="1.1" fill="#959595" stroke="none" opacity=".7"/><path stroke-width=".41" opacity=".7" stroke="#959595" fill="none" stroke-linecap="butt" d="M337 273h0l28 22h0l26 19h0l26 20h0l24 19h0l4 3 5 4 5 4 4 3 4 4"/><path cx="463" cy="371" r="1.61" fill="#959595" opacity=".7" d="M463 368.72l1.14 3.42-3.42-1.14z"/></g><g class="key-Low-income"><circle cx="143" cy="226" r="1.1" fill="#959595" stroke="none" opacity=".7"/><path stroke-width=".41" opacity=".7" stroke="#959595" fill="none" stroke-linecap="butt" d="M143 226h0l29 18h0l19 19h0l20 18h0l19 18h0l1 3 4 4 3 3 3 4 3 3"/><path cx="244" cy="316" r="1.61" fill="#959595" opacity=".7" d="M244 313.72l1.14 3.42-3.42-1.14z"/></g><g class="key-Lower-middle-income"><circle cx="249" cy="225" r="1.1" fill="#959595" stroke="none" opacity=".7"/><path stroke-width=".41" opacity=".7" stroke="#959595" fill="none" stroke-linecap="butt" d="M249 225h0l41 23h0l28 22h0l30 22h0l28 22h0l6 4 6 4 5 4 5 4 4 4"/><path cx="402" cy="334" r="1.61" fill="#959595" opacity=".7" d="M402 331.72l1.14 3.42-3.42-1.14z"/></g><g class="key-Middle-East-__0026-North-Africa"><circle cx="537" cy="357" r="1.1" fill="#959595" stroke="none" opacity=".7"/><path stroke-width=".41" opacity=".7" stroke="#959595" fill="none" stroke-linecap="butt" d="M537 357h0l21 15h0l28 14h0l28 13h0l23 13h0l3 2 2 2 16 2 1 2v2"/><path cx="659" cy="422" r="1.61" fill="#959595" opacity=".7" d="M660.61 420.39l-1.61 3.22-1.61-3.22z"/></g><g class="key-Middle-income"><circle cx="351" cy="279" r="1.1" fill="#959595" stroke="none" opacity=".7"/><path stroke-width=".41" opacity=".7" stroke="#959595" fill="none" stroke-linecap="butt" d="M351 279h0l31 22h0l27 21h0l28 21h0l27 20h0l5 4 5 4 5 4 5 4 5 3"/><path cx="489" cy="382" r="1.61" fill="#959595" opacity=".7" d="M488.45 379.8l1.93 3.03-3.59-.28z"/></g><g class="key-South-Asia"><circle cx="187" cy="191" r="1.1" fill="#959595" stroke="none" opacity=".7"/><path stroke-width=".41" opacity=".7" stroke="#959595" fill="none" stroke-linecap="butt" d="M187 191h0l28 24h0l35 26h0l36 25h0l36 25h0l7 4 7 5 7 5 7 5 3 5"/><path cx="353" cy="315" r="1.61" fill="#959595" opacity=".7" d="M353.55 312.8l.28 3.58-3.04-1.93z"/></g><g class="key-Sub__002dSaharan-Africa"><circle cx="214" cy="254" r="1.1" fill="#959595" stroke="none" opacity=".7"/><path stroke-width=".41" opacity=".7" stroke="#959595" fill="none" stroke-linecap="butt" d="M214 254h0l3 14h0l8 14h0l9 14h0l10 14h0v3l3 2 2 3 2 2 3 3"/><path cx="254" cy="323" r="1.61" fill="#959595" opacity=".7" d="M254 320.72l1.14 3.42-3.42-1.14z"/></g><g class="key-Upper-middle-income"><circle cx="444" cy="342" r="1.1" fill="#959595" stroke="none" opacity=".7"/><path stroke-width=".41" opacity=".7" stroke="#959595" fill="none" stroke-linecap="butt" d="M444 342h0l29 36h0l29 30h0l30 24h0l29 19h0l6 4 5 3 5 3 6 2 4 3"/><path cx="587" cy="466" r="1.61" fill="#959595" opacity=".7" d="M586.68 463.75l1.6 3.22-3.53-.65z"/></g><g class="backgroundLabels" fill="#333" font-weight="400"><text x="506.54" y="394.69" font-size="14.3" fill="#fff" stroke="#fff" stroke-linecap="round" stroke-linejoin="round" stroke-width=".25em">World</text><text x="506.54" y="394.69" font-size="14.3" fill="#959595">World</text><text x="547" y="462" font-size="11.63" fill="#fff" stroke="#fff" stroke-linecap="round" stroke-linejoin="round" stroke-width=".25em">China</text><text x="547" y="462" font-size="11.63" fill="#2D8587">China</text><text x="321.24" y="317.27" font-size="11.59" fill="#fff" stroke="#fff" stroke-linecap="round" stroke-linejoin="round" stroke-width=".25em">India</text><text x="321.24" y="317.27" font-size="11.59" fill="#2D8587">India</text><text x="645.97" y="491" font-size="11.25" fill="#fff" stroke="#fff" stroke-linecap="round" stroke-linejoin="round" stroke-width=".25em">North America</text><text x="645.97" y="491" font-size="11.25" fill="#959595">North America</text><text x="451" y="317" font-size="11.12" fill="#fff" stroke="#fff" stroke-linecap="round" stroke-linejoin="round" stroke-width=".25em">Indonesia</text><text x="451" y="317" font-size="11.12" fill="#2D8587">Indonesia</text><text x="442" y="273" font-size="11.09" fill="#fff" stroke="#fff" stroke-linecap="round" stroke-linejoin="round" stroke-width=".25em">Pakistan</text><text x="442" y="273" font-size="11.09" fill="#2D8587">Pakistan</text><text x="207.87" y="335" font-size="11.08" fill="#fff" stroke="#fff" stroke-linecap="round" stroke-linejoin="round" stroke-width=".25em">Nigeria</text><text x="207.87" y="335" font-size="11.08" fill="#923E8B">Nigeria</text><text x="687.7" y="467" font-size="11.06" fill="#fff" stroke="#fff" stroke-linecap="round" stroke-linejoin="round" stroke-width=".25em">Japan</text><text x="687.7" y="467" font-size="11.06" fill="#2D8587">Japan</text><text x="620" y="440" font-size="11.05" fill="#fff" stroke="#fff" stroke-linecap="round" stroke-linejoin="round" stroke-width=".25em">Mexico</text><text x="620" y="440" font-size="11.05" fill="#E04E4B">Mexico</text><text x="547.45" y="327.64" font-size="11.05" fill="#fff" stroke="#fff" stroke-linecap="round" stroke-linejoin="round" stroke-width=".25em">Philippines</text><text x="547.45" y="327.64" font-size="11.05" fill="#2D8587">Philippines</text><text x="234" y="296" font-size="11.05" fill="#fff" stroke="#fff" stroke-linecap="round" stroke-linejoin="round" stroke-width=".25em">Ethiopia</text><text x="234" y="296" font-size="11.05" fill="#923E8B">Ethiopia</text><text x="576.98" y="382.97" font-size="11.04" fill="#fff" stroke="#fff" stroke-linecap="round" stroke-linejoin="round" stroke-width=".25em">Vietnam</text><text x="576.98" y="382.97" font-size="11.04" fill="#2D8587">Vietnam</text><text x="683" y="389" font-size="11.04" fill="#fff" stroke="#fff" stroke-linecap="round" stroke-linejoin="round" stroke-width=".25em">Egypt</text><text x="683" y="389" font-size="11.04" fill="#923E8B">Egypt</text><text x="647" y="468" font-size="11.04" fill="#fff" stroke="#fff" stroke-linecap="round" stroke-linejoin="round" stroke-width=".25em">Iran</text><text x="647" y="468" font-size="11.04" fill="#2D8587">Iran</text><text x="671" y="449" font-size="11.03" fill="#fff" stroke="#fff" stroke-linecap="round" stroke-linejoin="round" stroke-width=".25em">Thailand</text><text x="671" y="449" font-size="11.03" fill="#2D8587">Thailand</text><text x="496" y="363" font-size="11.02" fill="#fff" stroke="#fff" stroke-linecap="round" stroke-linejoin="round" stroke-width=".25em">South Africa</text><text x="496" y="363" font-size="11.02" fill="#923E8B">South Africa</text><text x="583" y="354" font-size="11.02" fill="#fff" stroke="#fff" stroke-linecap="round" stroke-linejoin="round" stroke-width=".25em">Myanmar</text><text x="583" y="354" font-size="11.02" fill="#2D8587">Myanmar</text><text x="256" y="370" font-size="11.02" fill="#fff" stroke="#fff" stroke-linecap="round" stroke-linejoin="round" stroke-width=".25em">Kenya</text><text x="256" y="370" font-size="11.02" fill="#923E8B">Kenya</text><text x="183" y="355" font-size="11.02" fill="#fff" stroke="#fff" stroke-linecap="round" stroke-linejoin="round" stroke-width=".25em">Uganda</text><text x="183" y="355" font-size="11.02" fill="#923E8B">Uganda</text><text x="550" y="427" font-size="11.02" fill="#fff" stroke="#fff" stroke-linecap="round" stroke-linejoin="round" stroke-width=".25em">Morocco</text><text x="550" y="427" font-size="11.02" fill="#923E8B">Morocco</text><text x="647.5" y="413" font-size="11.01" fill="#fff" stroke="#fff" stroke-linecap="round" stroke-linejoin="round" stroke-width=".25em">Malaysia</text><text x="647.5" y="413" font-size="11.01" fill="#2D8587">Malaysia</text><text x="398" y="311" font-size="11.01" fill="#fff" stroke="#fff" stroke-linecap="round" stroke-linejoin="round" stroke-width=".25em">Angola</text><text x="398" y="311" font-size="11.01" fill="#923E8B">Angola</text><text x="155" y="407" font-size="11.01" fill="#fff" stroke="#fff" stroke-linecap="round" stroke-linejoin="round" stroke-width=".25em">Ghana</text><text x="155" y="407" font-size="11.01" fill="#923E8B">Ghana</text><text x="131" y="251" font-size="11.01" fill="#fff" stroke="#fff" stroke-linecap="round" stroke-linejoin="round" stroke-width=".25em">Madagascar</text><text x="131" y="251" font-size="11.01" fill="#923E8B">Madagascar</text><text x="358" y="341" font-size="11.01" fill="#fff" stroke="#fff" stroke-linecap="round" stroke-linejoin="round" stroke-width=".25em">Cameroon</text><text x="358" y="341" font-size="11.01" fill="#923E8B">Cameroon</text><text x="206" y="393" font-size="11.01" fill="#fff" stroke="#fff" stroke-linecap="round" stroke-linejoin="round" stroke-width=".25em">Cote d&apos;Ivoire</text><text x="206" y="393" font-size="11.01" fill="#923E8B">Cote d&apos;Ivoire</text><text x="129" y="287" font-size="11.01" fill="#fff" stroke="#fff" stroke-linecap="round" stroke-linejoin="round" stroke-width=".25em">Niger</text><text x="129" y="287" font-size="11.01" fill="#923E8B">Niger</text><text x="344" y="298" font-size="11.01" fill="#fff" stroke="#fff" stroke-linecap="round" stroke-linejoin="round" stroke-width=".25em">Zambia</text><text x="344" y="298" font-size="11.01" fill="#923E8B">Zambia</text><text x="373.24" y="393.53" font-size="11.01" fill="#fff" stroke="#fff" stroke-linecap="round" stroke-linejoin="round" stroke-width=".25em">Senegal</text><text x="373.24" y="393.53" font-size="11.01" fill="#923E8B">Senegal</text><text x="210" y="374" font-size="11.01" fill="#fff" stroke="#fff" stroke-linecap="round" stroke-linejoin="round" stroke-width=".25em">Somalia</text><text x="210" y="374" font-size="11.01" fill="#923E8B">Somalia</text><text x="389" y="421" font-size="11" fill="#fff" stroke="#fff" stroke-linecap="round" stroke-linejoin="round" stroke-width=".25em">Bolivia</text><text x="389" y="421" font-size="11" fill="#932834">Bolivia</text><text x="100" y="344" font-size="11" fill="#fff" stroke="#fff" stroke-linecap="round" stroke-linejoin="round" stroke-width=".25em">South Sudan</text><text x="100" y="344" font-size="11" fill="#923E8B">South Sudan</text><text x="374" y="217" font-size="11" fill="#fff" stroke="#fff" stroke-linecap="round" stroke-linejoin="round" stroke-width=".25em">Burundi</text><text x="374" y="217" font-size="11" fill="#923E8B">Burundi</text><text x="134" y="362" font-size="11" fill="#fff" stroke="#fff" stroke-linecap="round" stroke-linejoin="round" stroke-width=".25em">Togo</text><text x="134" y="362" font-size="11" fill="#923E8B">Togo</text><text x="143" y="309" font-size="11" fill="#fff" stroke="#fff" stroke-linecap="round" stroke-linejoin="round" stroke-width=".25em">Sierra Leone</text><text x="143" y="309" font-size="11" fill="#923E8B">Sierra Leone</text><text x="665.96" y="431" font-size="11" fill="#fff" stroke="#fff" stroke-linecap="round" stroke-linejoin="round" stroke-width=".25em">Oman</text><text x="665.96" y="431" font-size="11" fill="#2D8587">Oman</text><text x="321" y="360" font-size="11" fill="#fff" stroke="#fff" stroke-linecap="round" stroke-linejoin="round" stroke-width=".25em">Mauritania</text><text x="321" y="360" font-size="11" fill="#923E8B">Mauritania</text><text x="443" y="448" font-size="11" fill="#fff" stroke="#fff" stroke-linecap="round" stroke-linejoin="round" stroke-width=".25em">Mongolia</text><text x="443" y="448" font-size="11" fill="#2D8587">Mongolia</text><text x="597" y="471" font-size="11" fill="#fff" stroke="#fff" stroke-linecap="round" stroke-linejoin="round" stroke-width=".25em">Jamaica</text><text x="597" y="471" font-size="11" fill="#E04E4B">Jamaica</text><text x="445" y="375" font-size="11" fill="#fff" stroke="#fff" stroke-linecap="round" stroke-linejoin="round" stroke-width=".25em">Gambia</text><text x="445" y="375" font-size="11" fill="#923E8B">Gambia</text><text x="256" y="333" font-size="11" fill="#fff" stroke="#fff" stroke-linecap="round" stroke-linejoin="round" stroke-width=".25em">Lesotho</text><text x="256" y="333" font-size="11" fill="#923E8B">Lesotho</text><text x="440" y="342" font-size="11" fill="#fff" stroke="#fff" stroke-linecap="round" stroke-linejoin="round" stroke-width=".25em">Botswana</text><text x="440" y="342" font-size="11" fill="#923E8B">Botswana</text><text x="330" y="414" font-size="11" fill="#fff" stroke="#fff" stroke-linecap="round" stroke-linejoin="round" stroke-width=".25em">Gabon</text><text x="330" y="414" font-size="11" fill="#923E8B">Gabon</text><text x="322" y="246" font-size="11" fill="#fff" stroke="#fff" stroke-linecap="round" stroke-linejoin="round" stroke-width=".25em">Timor</text><text x="322" y="246" font-size="11" fill="#2D8587">Timor</text><text x="283" y="394" font-size="11" fill="#fff" stroke="#fff" stroke-linecap="round" stroke-linejoin="round" stroke-width=".25em">Cape Verde</text><text x="283" y="394" font-size="11" fill="#923E8B">Cape Verde</text></g></g><g class="ScatterColorLegend clickable" cursor="pointer"><g class="legendMark"><path fill="#923E8B" d="M738.09 128.6h9v9h-9z"/><text font-size="12.6" x="752.1" y="136.9"><tspan x="752.09" y="136.88">Africa</tspan></text></g><g class="legendMark"><path fill="#2D8587" d="M738.09 146.2h9v9h-9z"/><text font-size="12.6" x="752.1" y="154.5"><tspan x="752.09" y="154.48">Asia</tspan></text></g><g class="legendMark"><path fill="#4C5C78" d="M738.09 163.8h9v9h-9z"/><text font-size="12.6" x="752.1" y="172.1"><tspan x="752.09" y="172.08">Europe</tspan></text></g><g class="legendMark"><path fill="#E04E4B" d="M738.09 181.4h9v9h-9z"/><text font-size="12.6" x="752.1" y="189.7"><tspan x="752.09" y="189.68">North America</tspan></text></g><g class="legendMark"><path fill="#A8633C" d="M738.09 199h9v9h-9z"/><text font-size="12.6" x="752.1" y="207.3"><tspan x="752.09" y="207.28">Oceania</tspan></text></g><g class="legendMark"><path fill="#932834" d="M738.09 216.6h9v9h-9z"/><text font-size="12.6" x="752.1" y="224.9"><tspan x="752.09" y="224.88">South America</tspan></text></g><g class="legendMark"><path fill="#959595" d="M738.09 234.2h9v9h-9z"/><text font-size="12.6" x="752.1" y="242.5"><tspan x="752.09" y="242.48">No data</tspan></text></g></g><path stroke="#ccc" d="M738.09 252H830"/><g class="clickable"><g class="ConnectedScatterLegend"><text font-size="12.6" x="738.1" y="271.1" fill="#333"><tspan x="738.09" y="271.08">1990</tspan></text><text font-size="12.6" x="806.8" y="271.1" fill="#333"><tspan x="806.78" y="271.08">2015</tspan></text><path stroke="#666" stroke-width="1" d="M771.32 266.8h30.46"/><circle cx="771.32" cy="266.8" r="2" fill="#666" stroke="#ccc" stroke-width=".2"/><circle cx="781.47" cy="266.8" r="2" fill="#666" stroke="#ccc" stroke-width=".2"/><circle cx="791.62" cy="266.8" r="2" fill="#666" stroke="#ccc" stroke-width=".2"/><path cx="801.78" cy="266.8" r="3" fill="#666" stroke="#ccc" stroke-width=".2" d="M798.78 263.8l6 3-6 3z"/></g></g></g><g class="SourcesFooter" fill="#777"><g fill="#777"><text font-size="12.6" x="15" y="582.5"><tspan x="15" y="582.48">Source: World Bank, World Bank – WDI</tspan></text></g><text font-size="12.6" x="796.4" y="582.5"><tspan x="796.44" y="582.48"><a class="cclogo" href="http://creativecommons.org/licenses/by/4.0/deed.en_US" target="_blank" fill="#777">CC BY</a></tspan></text></g></svg>