<svg xmlns="http://www.w3.org/2000/svg" version="1.1" style="background-color:#fff;-webkit-font-smoothing:antialiased" width="850" height="600" viewBox="0 0 850 600" font-family="Lato,'Helvetica Neue',Helvetica,Arial,sans-serif" font-size="18" text-rendering="geometricPrecision"><g class="HeaderView"><g transform="matrix(.29 0 0 .29 774 15)"><svg className="owidLog" width="210" height="120" viewBox="0 0 210 120" fill="none" xmlns="http://www.w3.org/2000/svg"><g clip-path="url(#clip0)"><path d="M0 0h210v107.89H0V0z" fill="#002147"/><path d="M40.98 32.25c0 2.36-.38 4.53-1.12 6.51a14.26 14.26 0 01-8.1 8.4c-1.9.78-4.02 1.17-6.34 1.17a16.6 16.6 0 01-6.33-1.17 14.31 14.31 0 01-8.08-8.4 18.29 18.29 0 01-1.12-6.51c0-2.36.38-4.53 1.12-6.5.75-1.97 1.8-3.67 3.17-5.1a14.32 14.32 0 014.9-3.34c1.92-.8 4.03-1.19 6.34-1.19 2.32 0 4.43.4 6.34 1.19 1.92.8 3.56 1.9 4.93 3.34a14.87 14.87 0 013.17 5.1 18.1 18.1 0 011.12 6.5zm-4.38 0c0-1.94-.26-3.68-.8-5.22a10.91 10.91 0 00-2.24-3.89 9.68 9.68 0 00-3.52-2.46 11.95 11.95 0 00-4.62-.86c-1.68 0-3.21.28-4.6.86a9.88 9.88 0 00-3.54 2.46 10.91 10.91 0 00-2.24 3.9c-.53 1.53-.8 3.27-.8 5.2 0 1.94.27 3.68.8 5.22a11.17 11.17 0 002.24 3.9 10.01 10.01 0 003.55 2.44c1.38.56 2.9.83 4.6.83s3.24-.27 4.61-.83a9.8 9.8 0 003.52-2.44 11.17 11.17 0 002.25-3.9c.53-1.54.8-3.28.8-5.21zm26.22-6.54V48H60.5c-.56 0-.9-.27-1.05-.81l-.31-2.4a12.45 12.45 0 01-3.26 2.6c-1.2.64-2.58.96-4.13.96-1.22 0-2.3-.2-3.24-.6a6.52 6.52 0 01-2.33-1.7 7.37 7.37 0 01-1.43-2.67c-.3-1.04-.46-2.2-.46-3.45V25.7h3.91v14.22c0 1.68.38 2.99 1.15 3.91.77.93 1.96 1.39 3.54 1.39 1.16 0 2.24-.27 3.23-.82a10.42 10.42 0 002.8-2.28V25.7h3.91zm8.61 4.47a9.94 9.94 0 012.6-3.56 5.64 5.64 0 013.76-1.3c.47 0 .92.05 1.34.15.44.1.83.27 1.17.49l-.3 2.92c-.09.37-.3.55-.66.55-.2 0-.5-.04-.9-.13a6.21 6.21 0 00-3.24.18 4.23 4.23 0 00-1.47.92c-.42.4-.81.9-1.17 1.5-.33.58-.64 1.26-.92 2.02V48H67.7V25.71h2.25c.42 0 .72.08.88.25.16.16.27.44.33.83l.26 3.39zm61.16-13.7L122.75 48h-3.82l-7.99-24.05a21.95 21.95 0 01-.42-1.58 38.36 38.36 0 01-.44 1.58L102.05 48h-3.83L88.4 16.47h3.54c.38 0 .7.1.95.29.26.2.43.43.5.73l6.52 21.9.28 1.28.29 1.46.3-1.46.38-1.27 7.41-21.91c.1-.25.26-.48.51-.69.27-.22.58-.33.95-.33h1.23c.38 0 .69.1.92.29a1.77 1.77 0 01.53.73l7.4 21.9a28.4 28.4 0 01.68 2.62 29.52 29.52 0 01.52-2.61l6.54-21.91a1.31 1.31 0 01.48-.7c.27-.21.58-.32.95-.32h3.32zm9.35 8.88c1.63 0 3.1.27 4.4.82a9.43 9.43 0 015.46 5.94c.5 1.4.74 2.98.74 4.73 0 1.76-.25 3.34-.74 4.75a9.43 9.43 0 01-5.46 5.92c-1.3.52-2.77.79-4.4.79-1.64 0-3.12-.27-4.44-.8a9.42 9.42 0 01-3.35-2.3c-.92-1-1.63-2.2-2.13-3.61-.49-1.41-.73-3-.73-4.75s.24-3.33.73-4.73c.5-1.43 1.2-2.64 2.13-3.63a9.4 9.4 0 013.35-2.31c1.32-.55 2.8-.82 4.44-.82zm0 19.89c2.2 0 3.84-.73 4.93-2.2 1.08-1.48 1.63-3.54 1.63-6.18 0-2.66-.55-4.72-1.63-6.2-1.09-1.49-2.73-2.23-4.93-2.23-1.12 0-2.09.2-2.93.57a5.71 5.71 0 00-2.06 1.65 7.5 7.5 0 00-1.24 2.67c-.26 1.04-.4 2.22-.4 3.54 0 2.64.55 4.7 1.64 6.18 1.1 1.47 2.76 2.2 4.99 2.2zm17.97-15.07a9.94 9.94 0 012.6-3.56 5.64 5.64 0 013.76-1.3c.47 0 .91.05 1.34.15.44.1.83.27 1.16.49l-.28 2.92c-.09.37-.31.55-.66.55-.2 0-.5-.04-.9-.13a6.2 6.2 0 00-3.24.18 4.23 4.23 0 00-1.47.92c-.43.4-.82.9-1.17 1.5a13.1 13.1 0 00-.92 2.02V48h-3.94V25.71h2.24c.43 0 .72.08.88.25.17.16.28.44.33.83l.27 3.39zm15.04-14.59V48h-3.92V15.6h3.92zm19.55 15.43a6.22 6.22 0 00-2.38-2.05 6.7 6.7 0 00-2.86-.6c-2.07 0-3.66.75-4.77 2.23-1.12 1.48-1.68 3.6-1.68 6.33 0 1.46.13 2.7.38 3.74a7.29 7.29 0 001.1 2.56 4.35 4.35 0 001.78 1.45c.7.3 1.5.46 2.4.46 1.29 0 2.41-.3 3.36-.88a9.6 9.6 0 002.67-2.49V31.02zm3.91-15.43V48h-2.33c-.56 0-.9-.27-1.06-.81l-.35-2.71a12.13 12.13 0 01-3.25 2.77 8.28 8.28 0 01-4.23 1.06 7.31 7.31 0 01-6.14-2.9c-.73-.96-1.3-2.15-1.69-3.57a18.35 18.35 0 01.07-9.48 11.29 11.29 0 011.89-3.7 8.7 8.7 0 017.06-3.34 7.96 7.96 0 016.12 2.62V15.59h3.91zM46.61 70.71V93H42.7V70.71h3.91zm.84-7c0 .39-.08.75-.24 1.09a2.81 2.81 0 01-1.52 1.47 2.67 2.67 0 01-2.16 0 2.9 2.9 0 01-1.45-1.47 2.67 2.67 0 010-2.16c.15-.35.35-.65.6-.9.25-.27.53-.47.85-.62a2.67 2.67 0 012.16 0c.35.15.65.35.9.62.27.25.47.55.62.9.16.34.24.7.24 1.08zm7.97 10.24c.49-.54 1-1.04 1.54-1.48a9.85 9.85 0 013.66-1.84 8.96 8.96 0 015.43.35c.94.4 1.72.97 2.33 1.71a7.36 7.36 0 011.43 2.67c.32 1.04.49 2.19.49 3.45V93h-3.94V78.81c0-1.69-.4-3-1.17-3.92-.76-.93-1.93-1.4-3.5-1.4a6.6 6.6 0 00-3.25.83c-1 .56-1.92 1.31-2.77 2.27V93h-3.94V70.71h2.35c.56 0 .9.28 1.04.82l.3 2.42zm57.7 3.3c0 2.36-.37 4.5-1.11 6.44a14.3 14.3 0 01-3.17 4.98 14.1 14.1 0 01-4.93 3.2c-1.9.76-4.02 1.13-6.33 1.13H85.8V61.47h11.77c2.31 0 4.42.39 6.33 1.15a13.8 13.8 0 018.1 8.18 17.75 17.75 0 011.12 6.45zm-4.37 0c0-1.94-.26-3.67-.8-5.2a10.94 10.94 0 00-2.23-3.87 9.57 9.57 0 00-3.53-2.42 12.23 12.23 0 00-4.61-.83h-7.5v24.62h7.5c1.7 0 3.24-.28 4.61-.84a9.7 9.7 0 003.53-2.4 10.94 10.94 0 002.24-3.87c.53-1.53.8-3.26.8-5.2zm19.8 5.72c-1.8.06-3.34.2-4.62.44-1.26.22-2.3.51-3.1.88-.8.36-1.37.8-1.74 1.3-.35.5-.53 1.05-.53 1.67 0 .58.1 1.1.3 1.52a3 3 0 00.76 1.05c.34.27.73.46 1.17.6a6.13 6.13 0 001.45.17 7.28 7.28 0 003.5-.81 11.95 11.95 0 002.82-2.2v-4.62zm-12.65-9.11a12.73 12.73 0 013.98-2.66c1.43-.59 3-.88 4.73-.88 1.25 0 2.36.2 3.33.61a6.81 6.81 0 013.94 4.38c.33 1.04.5 2.19.5 3.43V93h-1.74a1.8 1.8 0 01-.88-.18c-.2-.13-.36-.38-.48-.74l-.44-2.12-1.72 1.46a9.48 9.48 0 01-3.74 1.7c-.69.15-1.46.23-2.3.23-.87 0-1.69-.12-2.45-.35a5.34 5.34 0 01-3.34-2.93 6.64 6.64 0 01-.49-2.64c0-.88.25-1.72.73-2.53a6.33 6.33 0 012.35-2.17c1.09-.63 2.5-1.15 4.25-1.54 1.75-.41 3.89-.65 6.42-.7v-1.75c0-1.73-.37-3.03-1.12-3.91-.75-.9-1.84-1.34-3.28-1.34-.97 0-1.78.12-2.44.37-.64.23-1.2.5-1.7.81l-1.23.82c-.33.23-.67.35-1 .35-.27 0-.5-.07-.69-.2a2.1 2.1 0 01-.48-.53l-.7-1.25zm27.67 19.5c-1.76 0-3.12-.5-4.07-1.48-.94-.98-1.41-2.4-1.41-4.25V74h-2.68a.9.9 0 01-.6-.2c-.16-.14-.24-.36-.24-.66v-1.56l3.65-.46.9-6.89a.9.9 0 01.29-.52.88.88 0 01.62-.22H142v7.67h6.44V74H142v13.38c0 .94.22 1.63.68 2.09.45.45 1.04.68 1.76.68a3.21 3.21 0 001.85-.53l.55-.35c.16-.12.3-.18.41-.18.2 0 .4.13.55.38l1.15 1.87a7.45 7.45 0 01-2.44 1.5 8.53 8.53 0 01-2.95.52zm19.68-10.4c-1.8.07-3.34.21-4.62.45-1.26.22-2.3.51-3.1.88-.8.36-1.37.8-1.74 1.3-.35.5-.53 1.05-.53 1.67 0 .58.1 1.1.3 1.52a2.9 2.9 0 00.76 1.05c.34.27.73.46 1.17.6a6.13 6.13 0 001.45.17 7.3 7.3 0 003.5-.81 12.04 12.04 0 002.82-2.2v-4.62zm-12.65-9.1a12.72 12.72 0 013.99-2.66c1.42-.59 3-.88 4.72-.88 1.25 0 2.36.2 3.33.61a6.81 6.81 0 013.94 4.38c.33 1.04.5 2.19.5 3.43V93h-1.74a1.8 1.8 0 01-.88-.18c-.2-.13-.36-.38-.48-.74l-.44-2.12-1.72 1.46a9.48 9.48 0 01-3.74 1.7c-.69.15-1.46.23-2.3.23-.87 0-1.69-.12-2.45-.35a5.33 5.33 0 01-3.34-2.93 6.62 6.62 0 01-.49-2.64c0-.88.25-1.72.73-2.53a6.33 6.33 0 012.35-2.17c1.09-.63 2.5-1.15 4.25-1.54a31.2 31.2 0 016.42-.7v-1.75c0-1.73-.37-3.03-1.12-3.91-.75-.9-1.84-1.34-3.28-1.34-.97 0-1.78.12-2.44.37-.64.23-1.2.5-1.7.81l-1.22.82c-.34.23-.68.35-1.02.35-.26 0-.49-.07-.68-.2a1.88 1.88 0 01-.48-.53l-.7-1.25zM40.98 32.25c0 2.36-.38 4.53-1.12 6.51a14.26 14.26 0 01-8.1 8.4c-1.9.78-4.02 1.17-6.34 1.17a16.6 16.6 0 01-6.33-1.17 14.31 14.31 0 01-8.08-8.4 18.29 18.29 0 01-1.12-6.51c0-2.36.38-4.53 1.12-6.5.75-1.97 1.8-3.67 3.17-5.1a14.32 14.32 0 014.9-3.34c1.92-.8 4.03-1.19 6.34-1.19 2.32 0 4.43.4 6.34 1.19 1.92.8 3.56 1.9 4.93 3.34a14.87 14.87 0 013.17 5.1 18.1 18.1 0 011.12 6.5zm-4.38 0c0-1.94-.26-3.68-.8-5.22a10.91 10.91 0 00-2.24-3.89 9.68 9.68 0 00-3.52-2.46 11.95 11.95 0 00-4.62-.86c-1.68 0-3.21.28-4.6.86a9.88 9.88 0 00-3.54 2.46 10.91 10.91 0 00-2.24 3.9c-.53 1.53-.8 3.27-.8 5.2 0 1.94.27 3.68.8 5.22a11.17 11.17 0 002.24 3.9 10.01 10.01 0 003.55 2.44c1.38.56 2.9.83 4.6.83s3.24-.27 4.61-.83a9.8 9.8 0 003.52-2.44 11.17 11.17 0 002.25-3.9c.53-1.54.8-3.28.8-5.21zm26.22-6.54V48H60.5c-.56 0-.9-.27-1.05-.81l-.31-2.4a12.45 12.45 0 01-3.26 2.6c-1.2.64-2.58.96-4.13.96-1.22 0-2.3-.2-3.24-.6a6.52 6.52 0 01-2.33-1.7 7.37 7.37 0 01-1.43-2.67c-.3-1.04-.46-2.2-.46-3.45V25.7h3.91v14.22c0 1.68.38 2.99 1.15 3.91.77.93 1.96 1.39 3.54 1.39 1.16 0 2.24-.27 3.23-.82a10.42 10.42 0 002.8-2.28V25.7h3.91zm8.61 4.47a9.94 9.94 0 012.6-3.56 5.64 5.64 0 013.76-1.3c.47 0 .92.05 1.34.15.44.1.83.27 1.17.49l-.3 2.92c-.09.37-.3.55-.66.55-.2 0-.5-.04-.9-.13a6.21 6.21 0 00-3.24.18 4.23 4.23 0 00-1.47.92c-.42.4-.81.9-1.17 1.5-.33.58-.64 1.26-.92 2.02V48H67.7V25.71h2.25c.42 0 .72.08.88.25.16.16.27.44.33.83l.26 3.39zm61.16-13.7L122.75 48h-3.82l-7.99-24.05a21.95 21.95 0 01-.42-1.58 38.36 38.36 0 01-.44 1.58L102.05 48h-3.83L88.4 16.47h3.54c.38 0 .7.1.95.29.26.2.43.43.5.73l6.52 21.9.28 1.28.29 1.46.3-1.46.38-1.27 7.41-21.91c.1-.25.26-.48.51-.69.27-.22.58-.33.95-.33h1.23c.38 0 .69.1.92.29a1.77 1.77 0 01.53.73l7.4 21.9a28.4 28.4 0 01.68 2.62 29.52 29.52 0 01.52-2.61l6.54-21.91a1.31 1.31 0 01.48-.7c.27-.21.58-.32.95-.32h3.32zm9.35 8.88c1.63 0 3.1.27 4.4.82a9.43 9.43 0 015.46 5.94c.5 1.4.74 2.98.74 4.73 0 1.76-.25 3.34-.74 4.75a9.43 9.43 0 01-5.46 5.92c-1.3.52-2.77.79-4.4.79-1.64 0-3.12-.27-4.44-.8a9.42 9.42 0 01-3.35-2.3c-.92-1-1.63-2.2-2.13-3.61-.49-1.41-.73-3-.73-4.75s.24-3.33.73-4.73c.5-1.43 1.2-2.64 2.13-3.63a9.4 9.4 0 013.35-2.31c1.32-.55 2.8-.82 4.44-.82zm0 19.89c2.2 0 3.84-.73 4.93-2.2 1.08-1.48 1.63-3.54 1.63-6.18 0-2.66-.55-4.72-1.63-6.2-1.09-1.49-2.73-2.23-4.93-2.23-1.12 0-2.09.2-2.93.57a5.71 5.71 0 00-2.06 1.65 7.5 7.5 0 00-1.24 2.67c-.26 1.04-.4 2.22-.4 3.54 0 2.64.55 4.7 1.64 6.18 1.1 1.47 2.76 2.2 4.99 2.2zm17.97-15.07a9.94 9.94 0 012.6-3.56 5.64 5.64 0 013.76-1.3c.47 0 .91.05 1.34.15.44.1.83.27 1.16.49l-.28 2.92c-.09.37-.31.55-.66.55-.2 0-.5-.04-.9-.13a6.2 6.2 0 00-3.24.18 4.23 4.23 0 00-1.47.92c-.43.4-.82.9-1.17 1.5a13.1 13.1 0 00-.92 2.02V48h-3.94V25.71h2.24c.43 0 .72.08.88.25.17.16.28.44.33.83l.27 3.39zm15.04-14.59V48h-3.92V15.6h3.92zm19.55 15.43a6.22 6.22 0 00-2.38-2.05 6.7 6.7 0 00-2.86-.6c-2.07 0-3.66.75-4.77 2.23-1.12 1.48-1.68 3.6-1.68 6.33 0 1.46.13 2.7.38 3.74a7.29 7.29 0 001.1 2.56 4.35 4.35 0 001.78 1.45c.7.3 1.5.46 2.4.46 1.29 0 2.41-.3 3.36-.88a9.6 9.6 0 002.67-2.49V31.02zm3.91-15.43V48h-2.33c-.56 0-.9-.27-1.06-.81l-.35-2.71a12.13 12.13 0 01-3.25 2.77 8.28 8.28 0 01-4.23 1.06 7.31 7.31 0 01-6.14-2.9c-.73-.96-1.3-2.15-1.69-3.57a18.35 18.35 0 01.07-9.48 11.29 11.29 0 011.89-3.7 8.7 8.7 0 017.06-3.34 7.96 7.96 0 016.12 2.62V15.59h3.91zM46.61 70.71V93H42.7V70.71h3.91zm.84-7c0 .39-.08.75-.24 1.09a2.81 2.81 0 01-1.52 1.47 2.67 2.67 0 01-2.16 0 2.9 2.9 0 01-1.45-1.47 2.67 2.67 0 010-2.16c.15-.35.35-.65.6-.9.25-.27.53-.47.85-.62a2.67 2.67 0 012.16 0c.35.15.65.35.9.62.27.25.47.55.62.9.16.34.24.7.24 1.08zm7.97 10.24c.49-.54 1-1.04 1.54-1.48a9.85 9.85 0 013.66-1.84 8.96 8.96 0 015.43.35c.94.4 1.72.97 2.33 1.71a7.36 7.36 0 011.43 2.67c.32 1.04.49 2.19.49 3.45V93h-3.94V78.81c0-1.69-.4-3-1.17-3.92-.76-.93-1.93-1.4-3.5-1.4a6.6 6.6 0 00-3.25.83c-1 .56-1.92 1.31-2.77 2.27V93h-3.94V70.71h2.35c.56 0 .9.28 1.04.82l.3 2.42zm57.7 3.3c0 2.36-.37 4.5-1.11 6.44a14.3 14.3 0 01-3.17 4.98 14.1 14.1 0 01-4.93 3.2c-1.9.76-4.02 1.13-6.33 1.13H85.8V61.47h11.77c2.31 0 4.42.39 6.33 1.15a13.8 13.8 0 018.1 8.18 17.75 17.75 0 011.12 6.45zm-4.37 0c0-1.94-.26-3.67-.8-5.2a10.94 10.94 0 00-2.23-3.87 9.57 9.57 0 00-3.53-2.42 12.23 12.23 0 00-4.61-.83h-7.5v24.62h7.5c1.7 0 3.24-.28 4.61-.84a9.7 9.7 0 003.53-2.4 10.94 10.94 0 002.24-3.87c.53-1.53.8-3.26.8-5.2zm19.8 5.72c-1.8.06-3.34.2-4.62.44-1.26.22-2.3.51-3.1.88-.8.36-1.37.8-1.74 1.3-.35.5-.53 1.05-.53 1.67 0 .58.1 1.1.3 1.52a3 3 0 00.76 1.05c.34.27.73.46 1.17.6a6.13 6.13 0 001.45.17 7.28 7.28 0 003.5-.81 11.95 11.95 0 002.82-2.2v-4.62zm-12.65-9.11a12.73 12.73 0 013.98-2.66c1.43-.59 3-.88 4.73-.88 1.25 0 2.36.2 3.33.61a6.81 6.81 0 013.94 4.38c.33 1.04.5 2.19.5 3.43V93h-1.74a1.8 1.8 0 01-.88-.18c-.2-.13-.36-.38-.48-.74l-.44-2.12-1.72 1.46a9.48 9.48 0 01-3.74 1.7c-.69.15-1.46.23-2.3.23-.87 0-1.69-.12-2.45-.35a5.34 5.34 0 01-3.34-2.93 6.64 6.64 0 01-.49-2.64c0-.88.25-1.72.73-2.53a6.33 6.33 0 012.35-2.17c1.09-.63 2.5-1.15 4.25-1.54 1.75-.41 3.89-.65 6.42-.7v-1.75c0-1.73-.37-3.03-1.12-3.91-.75-.9-1.84-1.34-3.28-1.34-.97 0-1.78.12-2.44.37-.64.23-1.2.5-1.7.81l-1.23.82c-.33.23-.67.35-1 .35-.27 0-.5-.07-.69-.2a2.1 2.1 0 01-.48-.53l-.7-1.25zm27.67 19.5c-1.76 0-3.12-.5-4.07-1.48-.94-.98-1.41-2.4-1.41-4.25V74h-2.68a.9.9 0 01-.6-.2c-.16-.14-.24-.36-.24-.66v-1.56l3.65-.46.9-6.89a.9.9 0 01.29-.52.88.88 0 01.62-.22H142v7.67h6.44V74H142v13.38c0 .94.22 1.63.68 2.09.45.45 1.04.68 1.76.68a3.21 3.21 0 001.85-.53l.55-.35c.16-.12.3-.18.41-.18.2 0 .4.13.55.38l1.15 1.87a7.45 7.45 0 01-2.44 1.5 8.53 8.53 0 01-2.95.52zm19.68-10.4c-1.8.07-3.34.21-4.62.45-1.26.22-2.3.51-3.1.88-.8.36-1.37.8-1.74 1.3-.35.5-.53 1.05-.53 1.67 0 .58.1 1.1.3 1.52a2.9 2.9 0 00.76 1.05c.34.27.73.46 1.17.6a6.13 6.13 0 001.45.17 7.3 7.3 0 003.5-.81 12.04 12.04 0 002.82-2.2v-4.62zm-12.65-9.1a12.72 12.72 0 013.99-2.66c1.42-.59 3-.88 4.72-.88 1.25 0 2.36.2 3.33.61a6.81 6.81 0 013.94 4.38c.33 1.04.5 2.19.5 3.43V93h-1.74a1.8 1.8 0 01-.88-.18c-.2-.13-.36-.38-.48-.74l-.44-2.12-1.72 1.46a9.48 9.48 0 01-3.74 1.7c-.69.15-1.46.23-2.3.23-.87 0-1.69-.12-2.45-.35a5.33 5.33 0 01-3.34-2.93 6.62 6.62 0 01-.49-2.64c0-.88.25-1.72.73-2.53a6.33 6.33 0 012.35-2.17c1.09-.63 2.5-1.15 4.25-1.54a31.2 31.2 0 016.42-.7v-1.75c0-1.73-.37-3.03-1.12-3.91-.75-.9-1.84-1.34-3.28-1.34-.97 0-1.78.12-2.44.37-.64.23-1.2.5-1.7.81l-1.22.82c-.34.23-.68.35-1.02.35-.26 0-.49-.07-.68-.2a1.88 1.88 0 01-.48-.53l-.7-1.25zM40.98 32.25c0 2.36-.38 4.53-1.12 6.51a14.26 14.26 0 01-8.1 8.4c-1.9.78-4.02 1.17-6.34 1.17a16.6 16.6 0 01-6.33-1.17 14.31 14.31 0 01-8.08-8.4 18.29 18.29 0 01-1.12-6.51c0-2.36.38-4.53 1.12-6.5.75-1.97 1.8-3.67 3.17-5.1a14.32 14.32 0 014.9-3.34c1.92-.8 4.03-1.19 6.34-1.19 2.32 0 4.43.4 6.34 1.19 1.92.8 3.56 1.9 4.93 3.34a14.87 14.87 0 013.17 5.1 18.1 18.1 0 011.12 6.5zm-4.38 0c0-1.94-.26-3.68-.8-5.22a10.91 10.91 0 00-2.24-3.89 9.68 9.68 0 00-3.52-2.46 11.95 11.95 0 00-4.62-.86c-1.68 0-3.21.28-4.6.86a9.88 9.88 0 00-3.54 2.46 10.91 10.91 0 00-2.24 3.9c-.53 1.53-.8 3.27-.8 5.2 0 1.94.27 3.68.8 5.22a11.17 11.17 0 002.24 3.9 10.01 10.01 0 003.55 2.44c1.38.56 2.9.83 4.6.83s3.24-.27 4.61-.83a9.8 9.8 0 003.52-2.44 11.17 11.17 0 002.25-3.9c.53-1.54.8-3.28.8-5.21zm26.22-6.54V48H60.5c-.56 0-.9-.27-1.05-.81l-.31-2.4a12.45 12.45 0 01-3.26 2.6c-1.2.64-2.58.96-4.13.96-1.22 0-2.3-.2-3.24-.6a6.52 6.52 0 01-2.33-1.7 7.37 7.37 0 01-1.43-2.67c-.3-1.04-.46-2.2-.46-3.45V25.7h3.91v14.22c0 1.68.38 2.99 1.15 3.91.77.93 1.96 1.39 3.54 1.39 1.16 0 2.24-.27 3.23-.82a10.42 10.42 0 002.8-2.28V25.7h3.91zm8.61 4.47a9.94 9.94 0 012.6-3.56 5.64 5.64 0 013.76-1.3c.47 0 .92.05 1.34.15.44.1.83.27 1.17.49l-.3 2.92c-.09.37-.3.55-.66.55-.2 0-.5-.04-.9-.13a6.21 6.21 0 00-3.24.18 4.23 4.23 0 00-1.47.92c-.42.4-.81.9-1.17 1.5-.33.58-.64 1.26-.92 2.02V48H67.7V25.71h2.25c.42 0 .72.08.88.25.16.16.27.44.33.83l.26 3.39zm61.16-13.7L122.75 48h-3.82l-7.99-24.05a21.95 21.95 0 01-.42-1.58 38.36 38.36 0 01-.44 1.58L102.05 48h-3.83L88.4 16.47h3.54c.38 0 .7.1.95.29.26.2.43.43.5.73l6.52 21.9.28 1.28.29 1.46.3-1.46.38-1.27 7.41-21.91c.1-.25.26-.48.51-.69.27-.22.58-.33.95-.33h1.23c.38 0 .69.1.92.29a1.77 1.77 0 01.53.73l7.4 21.9a28.4 28.4 0 01.68 2.62 29.52 29.52 0 01.52-2.61l6.54-21.91a1.31 1.31 0 01.48-.7c.27-.21.58-.32.95-.32h3.32zm9.35 8.88c1.63 0 3.1.27 4.4.82a9.43 9.43 0 015.46 5.94c.5 1.4.74 2.98.74 4.73 0 1.76-.25 3.34-.74 4.75a9.43 9.43 0 01-5.46 5.92c-1.3.52-2.77.79-4.4.79-1.64 0-3.12-.27-4.44-.8a9.42 9.42 0 01-3.35-2.3c-.92-1-1.63-2.2-2.13-3.61-.49-1.41-.73-3-.73-4.75s.24-3.33.73-4.73c.5-1.43 1.2-2.64 2.13-3.63a9.4 9.4 0 013.35-2.31c1.32-.55 2.8-.82 4.44-.82zm0 19.89c2.2 0 3.84-.73 4.93-2.2 1.08-1.48 1.63-3.54 1.63-6.18 0-2.66-.55-4.72-1.63-6.2-1.09-1.49-2.73-2.23-4.93-2.23-1.12 0-2.09.2-2.93.57a5.71 5.71 0 00-2.06 1.65 7.5 7.5 0 00-1.24 2.67c-.26 1.04-.4 2.22-.4 3.54 0 2.64.55 4.7 1.64 6.18 1.1 1.47 2.76 2.2 4.99 2.2zm17.97-15.07a9.94 9.94 0 012.6-3.56 5.64 5.64 0 013.76-1.3c.47 0 .91.05 1.34.15.44.1.83.27 1.16.49l-.28 2.92c-.09.37-.31.55-.66.55-.2 0-.5-.04-.9-.13a6.2 6.2 0 00-3.24.18 4.23 4.23 0 00-1.47.92c-.43.4-.82.9-1.17 1.5a13.1 13.1 0 00-.92 2.02V48h-3.94V25.71h2.24c.43 0 .72.08.88.25.17.16.28.44.33.83l.27 3.39zm15.04-14.59V48h-3.92V15.6h3.92zm19.55 15.43a6.22 6.22 0 00-2.38-2.05 6.7 6.7 0 00-2.86-.6c-2.07 0-3.66.75-4.77 2.23-1.12 1.48-1.68 3.6-1.68 6.33 0 1.46.13 2.7.38 3.74a7.29 7.29 0 001.1 2.56 4.35 4.35 0 001.78 1.45c.7.3 1.5.46 2.4.46 1.29 0 2.41-.3 3.36-.88a9.6 9.6 0 002.67-2.49V31.02zm3.91-15.43V48h-2.33c-.56 0-.9-.27-1.06-.81l-.35-2.71a12.13 12.13 0 01-3.25 2.77 8.28 8.28 0 01-4.23 1.06 7.31 7.31 0 01-6.14-2.9c-.73-.96-1.3-2.15-1.69-3.57a18.35 18.35 0 01.07-9.48 11.29 11.29 0 011.89-3.7 8.7 8.7 0 017.06-3.34 7.96 7.96 0 016.12 2.62V15.59h3.91zM46.61 70.71V93H42.7V70.71h3.91zm.84-7c0 .39-.08.75-.24 1.09a2.81 2.81 0 01-1.52 1.47 2.67 2.67 0 01-2.16 0 2.9 2.9 0 01-1.45-1.47 2.67 2.67 0 010-2.16c.15-.35.35-.65.6-.9.25-.27.53-.47.85-.62a2.67 2.67 0 012.16 0c.35.15.65.35.9.62.27.25.47.55.62.9.16.34.24.7.24 1.08zm7.97 10.24c.49-.54 1-1.04 1.54-1.48a9.85 9.85 0 013.66-1.84 8.96 8.96 0 015.43.35c.94.4 1.72.97 2.33 1.71a7.36 7.36 0 011.43 2.67c.32 1.04.49 2.19.49 3.45V93h-3.94V78.81c0-1.69-.4-3-1.17-3.92-.76-.93-1.93-1.4-3.5-1.4a6.6 6.6 0 00-3.25.83c-1 .56-1.92 1.31-2.77 2.27V93h-3.94V70.71h2.35c.56 0 .9.28 1.04.82l.3 2.42zm57.7 3.3c0 2.36-.37 4.5-1.11 6.44a14.3 14.3 0 01-3.17 4.98 14.1 14.1 0 01-4.93 3.2c-1.9.76-4.02 1.13-6.33 1.13H85.8V61.47h11.77c2.31 0 4.42.39 6.33 1.15a13.8 13.8 0 018.1 8.18 17.75 17.75 0 011.12 6.45zm-4.37 0c0-1.94-.26-3.67-.8-5.2a10.94 10.94 0 00-2.23-3.87 9.57 9.57 0 00-3.53-2.42 12.23 12.23 0 00-4.61-.83h-7.5v24.62h7.5c1.7 0 3.24-.28 4.61-.84a9.7 9.7 0 003.53-2.4 10.94 10.94 0 002.24-3.87c.53-1.53.8-3.26.8-5.2zm19.8 5.72c-1.8.06-3.34.2-4.62.44-1.26.22-2.3.51-3.1.88-.8.36-1.37.8-1.74 1.3-.35.5-.53 1.05-.53 1.67 0 .58.1 1.1.3 1.52a3 3 0 00.76 1.05c.34.27.73.46 1.17.6a6.13 6.13 0 001.45.17 7.28 7.28 0 003.5-.81 11.95 11.95 0 002.82-2.2v-4.62zm-12.65-9.11a12.73 12.73 0 013.98-2.66c1.43-.59 3-.88 4.73-.88 1.25 0 2.36.2 3.33.61a6.81 6.81 0 013.94 4.38c.33 1.04.5 2.19.5 3.43V93h-1.74a1.8 1.8 0 01-.88-.18c-.2-.13-.36-.38-.48-.74l-.44-2.12-1.72 1.46a9.48 9.48 0 01-3.74 1.7c-.69.15-1.46.23-2.3.23-.87 0-1.69-.12-2.45-.35a5.34 5.34 0 01-3.34-2.93 6.64 6.64 0 01-.49-2.64c0-.88.25-1.72.73-2.53a6.33 6.33 0 012.35-2.17c1.09-.63 2.5-1.15 4.25-1.54 1.75-.41 3.89-.65 6.42-.7v-1.75c0-1.73-.37-3.03-1.12-3.91-.75-.9-1.84-1.34-3.28-1.34-.97 0-1.78.12-2.44.37-.64.23-1.2.5-1.7.81l-1.23.82c-.33.23-.67.35-1 .35-.27 0-.5-.07-.69-.2a2.1 2.1 0 01-.48-.53l-.7-1.25zm27.67 19.5c-1.76 0-3.12-.5-4.07-1.48-.94-.98-1.41-2.4-1.41-4.25V74h-2.68a.9.9 0 01-.6-.2c-.16-.14-.24-.36-.24-.66v-1.56l3.65-.46.9-6.89a.9.9 0 01.29-.52.88.88 0 01.62-.22H142v7.67h6.44V74H142v13.38c0 .94.22 1.63.68 2.09.45.45 1.04.68 1.76.68a3.21 3.21 0 001.85-.53l.55-.35c.16-.12.3-.18.41-.18.2 0 .4.13.55.38l1.15 1.87a7.45 7.45 0 01-2.44 1.5 8.53 8.53 0 01-2.95.52zm19.68-10.4c-1.8.07-3.34.21-4.62.45-1.26.22-2.3.51-3.1.88-.8.36-1.37.8-1.74 1.3-.35.5-.53 1.05-.53 1.67 0 .58.1 1.1.3 1.52a2.9 2.9 0 00.76 1.05c.34.27.73.46 1.17.6a6.13 6.13 0 001.45.17 7.3 7.3 0 003.5-.81 12.04 12.04 0 002.82-2.2v-4.62zm-12.65-9.1a12.72 12.72 0 013.99-2.66c1.42-.59 3-.88 4.72-.88 1.25 0 2.36.2 3.33.61a6.81 6.81 0 013.94 4.38c.33 1.04.5 2.19.5 3.43V93h-1.74a1.8 1.8 0 01-.88-.18c-.2-.13-.36-.38-.48-.74l-.44-2.12-1.72 1.46a9.48 9.48 0 01-3.74 1.7c-.69.15-1.46.23-2.3.23-.87 0-1.69-.12-2.45-.35a5.33 5.33 0 01-3.34-2.93 6.62 6.62 0 01-.49-2.64c0-.88.25-1.72.73-2.53a6.33 6.33 0 012.35-2.17c1.09-.63 2.5-1.15 4.25-1.54a31.2 31.2 0 016.42-.7v-1.75c0-1.73-.37-3.03-1.12-3.91-.75-.9-1.84-1.34-3.28-1.34-.97 0-1.78.12-2.44.37-.64.23-1.2.5-1.7.81l-1.22.82c-.34.23-.68.35-1.02.35-.26 0-.49-.07-.68-.2a1.88 1.88 0 01-.48-.53l-.7-1.25z" fill="#fff"/><path fill="#D42B21" d="M0 106.79h210V120H0z"/></g><defs><clipPath id="clip0"><path fill="#fff" d="M0 0h210v120H0z"/></clipPath></defs></svg></g><a href="https://ourworldindata.org/grapher/real-price-of-nails-matched-model" target="_blank" rel="noopener" font-family="&quot;Playfair Display&quot;,Georgia,&quot;Times New Roman&quot;,serif"><text font-size="25.2" x="15" y="35.2" fill="#555"><tspan x="15" y="35.16">Real price of nails: matched-model</tspan></text></a><text font-size="14.4" x="15" y="55.7" fill="#666"><tspan x="15" y="55.72">Measures the real price of nails, adjusted for inflation in 2010 dollars. Prices are in cents per nail. The</tspan><tspan x="15" y="73">matched-model constructs a single price index and holds the quality of nails constant.</tspan></text></g><g class="LineChart"><defs><clipPath id="a"><path d="M105.9 82.2h840v475.2h-840z"/></clipPath></defs><g class="DualAxisView"><g class="HorizontalAxis"><path stroke="#999" d="M115.9 526.2v5M764.8 526.2v5M228.8 526.2v5M331.5 526.2v5M434.2 526.2v5M536.8 526.2v5M639.5 526.2v5"/><text x="115.9" y="547.4" fill="#666" text-anchor="start" font-size="16.2">1695</text><text x="764.76" y="547.4" fill="#666" text-anchor="end" font-size="16.2">2011</text><text x="228.8" y="547.4" fill="#666" text-anchor="middle" font-size="16.2">1750</text><text x="331.5" y="547.4" fill="#666" text-anchor="middle" font-size="16.2">1800</text><text x="434.2" y="547.4" fill="#666" text-anchor="middle" font-size="16.2">1850</text><text x="536.8" y="547.4" fill="#666" text-anchor="middle" font-size="16.2">1900</text><text x="639.5" y="547.4" fill="#666" text-anchor="middle" font-size="16.2">1950</text></g><g class="VerticalAxis" text-anchor="end" fill="#666" font-size="16.2"><text x="110.9" y="526.2" dy=".32em">0 cents/nail</text><text x="110.9" y="449" dy=".32em">0.5 cents/nail</text><text x="110.9" y="371.8" dy=".32em">1 cents/nail</text><text x="110.9" y="294.5" dy=".32em">1.5 cents/nail</text><text x="110.9" y="217.3" dy=".32em">2 cents/nail</text><text x="110.9" y="140.1" dy=".32em">2.5 cents/nail</text></g><g class="AxisGridLines horizontalLines"><path stroke="#999" d="M115.9 526.2h648.86"/><path stroke="#ddd" stroke-dasharray="3,2" d="M115.9 449h648.86M115.9 371.8h648.86M115.9 294.5h648.86M115.9 217.3h648.86M115.9 140.1h648.86"/></g></g><g clip-path="url(#a)"><g class="LineLabels" cursor="default"><g class="legendMark"><text font-size="13.5" x="768.8" y="448.4" fill="#3C4E66"><tspan x="768.76" y="448.35">World</tspan></text></g></g><g class="Lines"><g><path stroke-linecap="round" stroke-linejoin="round" stroke="#ddd" d="M115.9 288.3l2.1-41.7 2 44.8 2.1 3.1 2-17 2.1-44.8 2-21.6 2.1-3.1 2 12.4 2.1-13.9 2-18.5 2.1-21.7 2 24.7 2.1 57.2 2.1 32.4 2-29.3 2.1 9.2 2-41.7 2.1 21.7 2-32.5 2.1 10.8 2-3 2.1-9.3 2-60.2 2.1 24.7 2-15.5 2.1-1.5 2 4.6h2.1l2.1 7.7 2 27.8 2.1-13.9 2 37.1 2.1 7.7 2-21.6 2.1-13.9 2-24.7 2.1-72.6 2 86.5 2.1-17 2-18.5 2.1 6.1 2-16.9 2.1 3 2.1 44.8 2 35.6 2.1-35.6 2-44.8 2.1-37 2 7.7 2.1 37.1 2 4.6 2.1-6.2 2 20.1 2.1 23.2 2 15.4 2.1 15.5 2-3.1 2.1-3.1 2.1 13.9 2 15.4 2.1 12.4 2 13.9 2.1-44.8 2-13.9 2.1-18.5 2 7.7 2.1 12.3 2 21.7 2.1 29.3 2 7.7 2.1 7.7 2 9.3 2.1-23.2 2.1-7.7 2 17 2.1 15.5 2 6.1 2.1 6.2 2-3.1 2.1-9.2 2-9.3 2.1 1.5h2l2.1 1.6 2 1.5 2.1 4.7 2 4.6 2.1-13.9 2.1-12.4 2-12.3 2.1-4.7 2-6.1h2.1l2-6.2 2.1 21.6 2-9.3 2.1 12.4 2 9.3 2.1 26.2 2-17 2.1 17 2-9.2 2.1-7.8 2.1 4.7 2 27.8 2.1-4.7 2-60.2 2.1 38.6 2 1.6h2.1l2 30.9 2.1-14 2 18.6 2.1-4.6h2l2.1 16.9 2 20.1 2.1 21.6 2.1-33.9 2-49.5 2.1-26.2 2 26.2 2.1 18.6 2-1.6 2.1-23.1 2-12.4h2.1l2-29.3 2.1 4.6 2 54 2.1 4.7 2 13.9 2.1-17h2.1l2 49.4 2.1-3.1 2-17 2.1 20.1 2-10.8 2.1-10.8 2 12.4 2.1 4.6 2-10.8 2.1-3.1 2 7.7 2.1 13.9 2 6.2 2.1 12.3 2.1-9.2 2-9.3 2.1 3.1 2 6.2 2.1-3.1 2 3.1 2.1 12.3 2 17 2.1 6.2 2-69.5 2.1 18.5 2 29.4 2.1 1.5 2 12.4 2.1-3.1 2.1-9.3 2 29.4 2.1 13.9 2-13.9 2.1-23.2 2-27.8 2.1 12.4 2-4.7 2.1 18.6 2 10.8 2.1 7.7 2 6.2 2.1-9.3 2-26.3 2.1 15.5 2.1 18.5 2 13.9 2.1 10.8 2 12.4h2.1l2-15.5 2.1-30.8 2 20 2.1-13.9 2 10.8 2.1 21.7 2 1.5 2.1 1.6h2l2.1 9.2 2.1 1.6h2l2.1 12.3 2 7.7 2.1 4.7 2 6.2 2.1-13.9 2-21.7 2.1 38.6 2 1.6 2.1-26.3 2-6.1 2.1 7.7 2 9.2 2.1 1.6 2.1 4.6h2l2.1-1.5 2-1.6 2.1-1.5 2 4.6 2.1 3.1 2 1.6 2.1 3 2-1.5 2.1 4.6 2-1.5 2.1-15.5 2-9.2 2.1 9.2 2.1 7.8h2l2.1 7.7 2 3.1 2.1-4.7 2 1.6 2.1 3.1h2l2.1 1.5 2-1.5h2.1l2 6.2h2.1l2-4.7 2.1-1.5 2.1-7.7h2l2.1 7.7 2-7.7 2.1 1.5 2 1.5h2.1l2 1.6 2.1 9.3 2 1.5 2.1 1.5 2-6.1 2.1-3.1 2.1-4.7 2-7.7 2.1-4.6h2l2.1-1.6h2l2.1-1.5 2-1.5 2.1-4.7 2-4.6 2.1-1.6h4.1l2 3.1 2.1 1.6h2.1l2 3.1h2.1l2 1.5 2.1 4.6 2 1.6 2.1 3.1 2-1.6 2.1-1.5 2-1.6 2.1-3 2 1.5 2.1-18.5 2-4.7 2.1 3.1h2.1l2 1.6 2.1 1.5 2 1.6 2.1 1.5 2 1.5 2.1 4.7 2 1.5 2.1 1.6 2 1.5h2.1l2 1.6 2.1-1.6 2 3.1 2.1 1.5h2.1l2 1.6h2.1l2 1.5 2.1 1.6 2 1.5h4.1l2.1 3.1 2 1.6h2.1l2 1.5 2.1-9.3 2-1.5h4.2l2-18.5 2.1 3 2-10.8 2.1-3.1" fill="none" stroke-width="1"/></g><g><path stroke="#3C4E66" stroke-linecap="round" stroke-linejoin="round" d="M115.9 288.3l2.1-41.7 2 44.8 2.1 3.1 2-17 2.1-44.8 2-21.6 2.1-3.1 2 12.4 2.1-13.9 2-18.5 2.1-21.7 2 24.7 2.1 57.2 2.1 32.4 2-29.3 2.1 9.2 2-41.7 2.1 21.7 2-32.5 2.1 10.8 2-3 2.1-9.3 2-60.2 2.1 24.7 2-15.5 2.1-1.5 2 4.6h2.1l2.1 7.7 2 27.8 2.1-13.9 2 37.1 2.1 7.7 2-21.6 2.1-13.9 2-24.7 2.1-72.6 2 86.5 2.1-17 2-18.5 2.1 6.1 2-16.9 2.1 3 2.1 44.8 2 35.6 2.1-35.6 2-44.8 2.1-37 2 7.7 2.1 37.1 2 4.6 2.1-6.2 2 20.1 2.1 23.2 2 15.4 2.1 15.5 2-3.1 2.1-3.1 2.1 13.9 2 15.4 2.1 12.4 2 13.9 2.1-44.8 2-13.9 2.1-18.5 2 7.7 2.1 12.3 2 21.7 2.1 29.3 2 7.7 2.1 7.7 2 9.3 2.1-23.2 2.1-7.7 2 17 2.1 15.5 2 6.1 2.1 6.2 2-3.1 2.1-9.2 2-9.3 2.1 1.5h2l2.1 1.6 2 1.5 2.1 4.7 2 4.6 2.1-13.9 2.1-12.4 2-12.3 2.1-4.7 2-6.1h2.1l2-6.2 2.1 21.6 2-9.3 2.1 12.4 2 9.3 2.1 26.2 2-17 2.1 17 2-9.2 2.1-7.8 2.1 4.7 2 27.8 2.1-4.7 2-60.2 2.1 38.6 2 1.6h2.1l2 30.9 2.1-14 2 18.6 2.1-4.6h2l2.1 16.9 2 20.1 2.1 21.6 2.1-33.9 2-49.5 2.1-26.2 2 26.2 2.1 18.6 2-1.6 2.1-23.1 2-12.4h2.1l2-29.3 2.1 4.6 2 54 2.1 4.7 2 13.9 2.1-17h2.1l2 49.4 2.1-3.1 2-17 2.1 20.1 2-10.8 2.1-10.8 2 12.4 2.1 4.6 2-10.8 2.1-3.1 2 7.7 2.1 13.9 2 6.2 2.1 12.3 2.1-9.2 2-9.3 2.1 3.1 2 6.2 2.1-3.1 2 3.1 2.1 12.3 2 17 2.1 6.2 2-69.5 2.1 18.5 2 29.4 2.1 1.5 2 12.4 2.1-3.1 2.1-9.3 2 29.4 2.1 13.9 2-13.9 2.1-23.2 2-27.8 2.1 12.4 2-4.7 2.1 18.6 2 10.8 2.1 7.7 2 6.2 2.1-9.3 2-26.3 2.1 15.5 2.1 18.5 2 13.9 2.1 10.8 2 12.4h2.1l2-15.5 2.1-30.8 2 20 2.1-13.9 2 10.8 2.1 21.7 2 1.5 2.1 1.6h2l2.1 9.2 2.1 1.6h2l2.1 12.3 2 7.7 2.1 4.7 2 6.2 2.1-13.9 2-21.7 2.1 38.6 2 1.6 2.1-26.3 2-6.1 2.1 7.7 2 9.2 2.1 1.6 2.1 4.6h2l2.1-1.5 2-1.6 2.1-1.5 2 4.6 2.1 3.1 2 1.6 2.1 3 2-1.5 2.1 4.6 2-1.5 2.1-15.5 2-9.2 2.1 9.2 2.1 7.8h2l2.1 7.7 2 3.1 2.1-4.7 2 1.6 2.1 3.1h2l2.1 1.5 2-1.5h2.1l2 6.2h2.1l2-4.7 2.1-1.5 2.1-7.7h2l2.1 7.7 2-7.7 2.1 1.5 2 1.5h2.1l2 1.6 2.1 9.3 2 1.5 2.1 1.5 2-6.1 2.1-3.1 2.1-4.7 2-7.7 2.1-4.6h2l2.1-1.6h2l2.1-1.5 2-1.5 2.1-4.7 2-4.6 2.1-1.6h4.1l2 3.1 2.1 1.6h2.1l2 3.1h2.1l2 1.5 2.1 4.6 2 1.6 2.1 3.1 2-1.6 2.1-1.5 2-1.6 2.1-3 2 1.5 2.1-18.5 2-4.7 2.1 3.1h2.1l2 1.6 2.1 1.5 2 1.6 2.1 1.5 2 1.5 2.1 4.7 2 1.5 2.1 1.6 2 1.5h2.1l2 1.6 2.1-1.6 2 3.1 2.1 1.5h2.1l2 1.6h2.1l2 1.5 2.1 1.6 2 1.5h4.1l2.1 3.1 2 1.6h2.1l2 1.5 2.1-9.3 2-1.5h4.2l2-18.5 2.1 3 2-10.8 2.1-3.1" fill="none" stroke-width="1.5"/><g fill="#3C4E66"><circle cx="115.9" cy="288.3" r="2"/><circle cx="118" cy="246.6" r="2"/><circle cx="120" cy="291.4" r="2"/><circle cx="122.1" cy="294.5" r="2"/><circle cx="124.1" cy="277.5" r="2"/><circle cx="126.2" cy="232.7" r="2"/><circle cx="128.2" cy="211.1" r="2"/><circle cx="130.3" cy="208" r="2"/><circle cx="132.3" cy="220.4" r="2"/><circle cx="134.4" cy="206.5" r="2"/><circle cx="136.4" cy="188" r="2"/><circle cx="138.5" cy="166.3" r="2"/><circle cx="140.5" cy="191" r="2"/><circle cx="142.6" cy="248.2" r="2"/><circle cx="144.7" cy="280.6" r="2"/><circle cx="146.7" cy="251.3" r="2"/><circle cx="148.8" cy="260.5" r="2"/><circle cx="150.8" cy="218.8" r="2"/><circle cx="152.9" cy="240.5" r="2"/><circle cx="154.9" cy="208" r="2"/><circle cx="157" cy="218.8" r="2"/><circle cx="159" cy="215.8" r="2"/><circle cx="161.1" cy="206.5" r="2"/><circle cx="163.1" cy="146.3" r="2"/><circle cx="165.2" cy="171" r="2"/><circle cx="167.2" cy="155.5" r="2"/><circle cx="169.3" cy="154" r="2"/><circle cx="171.3" cy="158.6" r="2"/><circle cx="173.4" cy="158.6" r="2"/><circle cx="175.5" cy="166.3" r="2"/><circle cx="177.5" cy="194.1" r="2"/><circle cx="179.6" cy="180.2" r="2"/><circle cx="181.6" cy="217.3" r="2"/><circle cx="183.7" cy="225" r="2"/><circle cx="185.7" cy="203.4" r="2"/><circle cx="187.8" cy="189.5" r="2"/><circle cx="189.8" cy="164.8" r="2"/><circle cx="191.9" cy="92.2" r="2"/><circle cx="193.9" cy="178.7" r="2"/><circle cx="196" cy="161.7" r="2"/><circle cx="198" cy="143.2" r="2"/><circle cx="200.1" cy="149.3" r="2"/><circle cx="202.1" cy="132.4" r="2"/><circle cx="204.2" cy="135.4" r="2"/><circle cx="206.3" cy="180.2" r="2"/><circle cx="208.3" cy="215.8" r="2"/><circle cx="210.4" cy="180.2" r="2"/><circle cx="212.4" cy="135.4" r="2"/><circle cx="214.5" cy="98.4" r="2"/><circle cx="216.5" cy="106.1" r="2"/><circle cx="218.6" cy="143.2" r="2"/><circle cx="220.6" cy="147.8" r="2"/><circle cx="222.7" cy="141.6" r="2"/><circle cx="224.7" cy="161.7" r="2"/><circle cx="226.8" cy="184.9" r="2"/><circle cx="228.8" cy="200.3" r="2"/><circle cx="230.9" cy="215.8" r="2"/><circle cx="232.9" cy="212.7" r="2"/><circle cx="235" cy="209.6" r="2"/><circle cx="237.1" cy="223.5" r="2"/><circle cx="239.1" cy="238.9" r="2"/><circle cx="241.2" cy="251.3" r="2"/><circle cx="243.2" cy="265.2" r="2"/><circle cx="245.3" cy="220.4" r="2"/><circle cx="247.3" cy="206.5" r="2"/><circle cx="249.4" cy="188" r="2"/><circle cx="251.4" cy="195.7" r="2"/><circle cx="253.5" cy="208" r="2"/><circle cx="255.5" cy="229.7" r="2"/><circle cx="257.6" cy="259" r="2"/><circle cx="259.6" cy="266.7" r="2"/><circle cx="261.7" cy="274.4" r="2"/><circle cx="263.7" cy="283.7" r="2"/><circle cx="265.8" cy="260.5" r="2"/><circle cx="267.9" cy="252.8" r="2"/><circle cx="269.9" cy="269.8" r="2"/><circle cx="272" cy="285.3" r="2"/><circle cx="274" cy="291.4" r="2"/><circle cx="276.1" cy="297.6" r="2"/><circle cx="278.1" cy="294.5" r="2"/><circle cx="280.2" cy="285.3" r="2"/><circle cx="282.2" cy="276" r="2"/><circle cx="284.3" cy="277.5" r="2"/><circle cx="286.3" cy="277.5" r="2"/><circle cx="288.4" cy="279.1" r="2"/><circle cx="290.4" cy="280.6" r="2"/><circle cx="292.5" cy="285.3" r="2"/><circle cx="294.5" cy="289.9" r="2"/><circle cx="296.6" cy="276" r="2"/><circle cx="298.7" cy="263.6" r="2"/><circle cx="300.7" cy="251.3" r="2"/><circle cx="302.8" cy="246.6" r="2"/><circle cx="304.8" cy="240.5" r="2"/><circle cx="306.9" cy="240.5" r="2"/><circle cx="308.9" cy="234.3" r="2"/><circle cx="311" cy="255.9" r="2"/><circle cx="313" cy="246.6" r="2"/><circle cx="315.1" cy="259" r="2"/><circle cx="317.1" cy="268.3" r="2"/><circle cx="319.2" cy="294.5" r="2"/><circle cx="321.2" cy="277.5" r="2"/><circle cx="323.3" cy="294.5" r="2"/><circle cx="325.3" cy="285.3" r="2"/><circle cx="327.4" cy="277.5" r="2"/><circle cx="329.5" cy="282.2" r="2"/><circle cx="331.5" cy="310" r="2"/><circle cx="333.6" cy="305.3" r="2"/><circle cx="335.6" cy="245.1" r="2"/><circle cx="337.7" cy="283.7" r="2"/><circle cx="339.7" cy="285.3" r="2"/><circle cx="341.8" cy="285.3" r="2"/><circle cx="343.8" cy="316.2" r="2"/><circle cx="345.9" cy="302.2" r="2"/><circle cx="347.9" cy="320.8" r="2"/><circle cx="350" cy="316.2" r="2"/><circle cx="352" cy="316.2" r="2"/><circle cx="354.1" cy="333.1" r="2"/><circle cx="356.1" cy="353.2" r="2"/><circle cx="358.2" cy="374.8" r="2"/><circle cx="360.3" cy="340.9" r="2"/><circle cx="362.3" cy="291.4" r="2"/><circle cx="364.4" cy="265.2" r="2"/><circle cx="366.4" cy="291.4" r="2"/><circle cx="368.5" cy="310" r="2"/><circle cx="370.5" cy="308.4" r="2"/><circle cx="372.6" cy="285.3" r="2"/><circle cx="374.6" cy="272.9" r="2"/><circle cx="376.7" cy="272.9" r="2"/><circle cx="378.7" cy="243.6" r="2"/><circle cx="380.8" cy="248.2" r="2"/><circle cx="382.8" cy="302.2" r="2"/><circle cx="384.9" cy="306.9" r="2"/><circle cx="386.9" cy="320.8" r="2"/><circle cx="389" cy="303.8" r="2"/><circle cx="391.1" cy="303.8" r="2"/><circle cx="393.1" cy="353.2" r="2"/><circle cx="395.2" cy="350.1" r="2"/><circle cx="397.2" cy="333.1" r="2"/><circle cx="399.3" cy="353.2" r="2"/><circle cx="401.3" cy="342.4" r="2"/><circle cx="403.4" cy="331.6" r="2"/><circle cx="405.4" cy="344" r="2"/><circle cx="407.5" cy="348.6" r="2"/><circle cx="409.5" cy="337.8" r="2"/><circle cx="411.6" cy="334.7" r="2"/><circle cx="413.6" cy="342.4" r="2"/><circle cx="415.7" cy="356.3" r="2"/><circle cx="417.7" cy="362.5" r="2"/><circle cx="419.8" cy="374.8" r="2"/><circle cx="421.9" cy="365.6" r="2"/><circle cx="423.9" cy="356.3" r="2"/><circle cx="426" cy="359.4" r="2"/><circle cx="428" cy="365.6" r="2"/><circle cx="430.1" cy="362.5" r="2"/><circle cx="432.1" cy="365.6" r="2"/><circle cx="434.2" cy="377.9" r="2"/><circle cx="436.2" cy="394.9" r="2"/><circle cx="438.3" cy="401.1" r="2"/><circle cx="440.3" cy="331.6" r="2"/><circle cx="442.4" cy="350.1" r="2"/><circle cx="444.4" cy="379.5" r="2"/><circle cx="446.5" cy="381" r="2"/><circle cx="448.5" cy="393.4" r="2"/><circle cx="450.6" cy="390.3" r="2"/><circle cx="452.7" cy="381" r="2"/><circle cx="454.7" cy="410.4" r="2"/><circle cx="456.8" cy="424.3" r="2"/><circle cx="458.8" cy="410.4" r="2"/><circle cx="460.9" cy="387.2" r="2"/><circle cx="462.9" cy="359.4" r="2"/><circle cx="465" cy="371.8" r="2"/><circle cx="467" cy="367.1" r="2"/><circle cx="469.1" cy="385.7" r="2"/><circle cx="471.1" cy="396.5" r="2"/><circle cx="473.2" cy="404.2" r="2"/><circle cx="475.2" cy="410.4" r="2"/><circle cx="477.3" cy="401.1" r="2"/><circle cx="479.3" cy="374.8" r="2"/><circle cx="481.4" cy="390.3" r="2"/><circle cx="483.5" cy="408.8" r="2"/><circle cx="485.5" cy="422.7" r="2"/><circle cx="487.6" cy="433.5" r="2"/><circle cx="489.6" cy="445.9" r="2"/><circle cx="491.7" cy="445.9" r="2"/><circle cx="493.7" cy="430.4" r="2"/><circle cx="495.8" cy="399.6" r="2"/><circle cx="497.8" cy="419.6" r="2"/><circle cx="499.9" cy="405.7" r="2"/><circle cx="501.9" cy="416.5" r="2"/><circle cx="504" cy="438.2" r="2"/><circle cx="506" cy="439.7" r="2"/><circle cx="508.1" cy="441.3" r="2"/><circle cx="510.1" cy="441.3" r="2"/><circle cx="512.2" cy="450.5" r="2"/><circle cx="514.3" cy="452.1" r="2"/><circle cx="516.3" cy="452.1" r="2"/><circle cx="518.4" cy="464.4" r="2"/><circle cx="520.4" cy="472.1" r="2"/><circle cx="522.5" cy="476.8" r="2"/><circle cx="524.5" cy="483" r="2"/><circle cx="526.6" cy="469.1" r="2"/><circle cx="528.6" cy="447.4" r="2"/><circle cx="530.7" cy="486" r="2"/><circle cx="532.7" cy="487.6" r="2"/><circle cx="534.8" cy="461.3" r="2"/><circle cx="536.8" cy="455.2" r="2"/><circle cx="538.9" cy="462.9" r="2"/><circle cx="540.9" cy="472.1" r="2"/><circle cx="543" cy="473.7" r="2"/><circle cx="545.1" cy="478.3" r="2"/><circle cx="547.1" cy="478.3" r="2"/><circle cx="549.2" cy="476.8" r="2"/><circle cx="551.2" cy="475.2" r="2"/><circle cx="553.3" cy="473.7" r="2"/><circle cx="555.3" cy="478.3" r="2"/><circle cx="557.4" cy="481.4" r="2"/><circle cx="559.4" cy="483" r="2"/><circle cx="561.5" cy="486" r="2"/><circle cx="563.5" cy="484.5" r="2"/><circle cx="565.6" cy="489.1" r="2"/><circle cx="567.6" cy="487.6" r="2"/><circle cx="569.7" cy="472.1" r="2"/><circle cx="571.7" cy="462.9" r="2"/><circle cx="573.8" cy="472.1" r="2"/><circle cx="575.9" cy="479.9" r="2"/><circle cx="577.9" cy="479.9" r="2"/><circle cx="580" cy="487.6" r="2"/><circle cx="582" cy="490.7" r="2"/><circle cx="584.1" cy="486" r="2"/><circle cx="586.1" cy="487.6" r="2"/><circle cx="588.2" cy="490.7" r="2"/><circle cx="590.2" cy="490.7" r="2"/><circle cx="592.3" cy="492.2" r="2"/><circle cx="594.3" cy="490.7" r="2"/><circle cx="596.4" cy="490.7" r="2"/><circle cx="598.4" cy="496.9" r="2"/><circle cx="600.5" cy="496.9" r="2"/><circle cx="602.5" cy="492.2" r="2"/><circle cx="604.6" cy="490.7" r="2"/><circle cx="606.7" cy="483" r="2"/><circle cx="608.7" cy="483" r="2"/><circle cx="610.8" cy="490.7" r="2"/><circle cx="612.8" cy="483" r="2"/><circle cx="614.9" cy="484.5" r="2"/><circle cx="616.9" cy="486" r="2"/><circle cx="619" cy="486" r="2"/><circle cx="621" cy="487.6" r="2"/><circle cx="623.1" cy="496.9" r="2"/><circle cx="625.1" cy="498.4" r="2"/><circle cx="627.2" cy="499.9" r="2"/><circle cx="629.2" cy="493.8" r="2"/><circle cx="631.3" cy="490.7" r="2"/><circle cx="633.4" cy="486" r="2"/><circle cx="635.4" cy="478.3" r="2"/><circle cx="637.5" cy="473.7" r="2"/><circle cx="639.5" cy="473.7" r="2"/><circle cx="641.6" cy="472.1" r="2"/><circle cx="643.6" cy="472.1" r="2"/><circle cx="645.7" cy="470.6" r="2"/><circle cx="647.7" cy="469.1" r="2"/><circle cx="649.8" cy="464.4" r="2"/><circle cx="651.8" cy="459.8" r="2"/><circle cx="653.9" cy="458.2" r="2"/><circle cx="655.9" cy="458.2" r="2"/><circle cx="658" cy="458.2" r="2"/><circle cx="660" cy="461.3" r="2"/><circle cx="662.1" cy="462.9" r="2"/><circle cx="664.2" cy="462.9" r="2"/><circle cx="666.2" cy="466" r="2"/><circle cx="668.3" cy="466" r="2"/><circle cx="670.3" cy="467.5" r="2"/><circle cx="672.4" cy="472.1" r="2"/><circle cx="674.4" cy="473.7" r="2"/><circle cx="676.5" cy="476.8" r="2"/><circle cx="678.5" cy="475.2" r="2"/><circle cx="680.6" cy="473.7" r="2"/><circle cx="682.6" cy="472.1" r="2"/><circle cx="684.7" cy="469.1" r="2"/><circle cx="686.7" cy="470.6" r="2"/><circle cx="688.8" cy="452.1" r="2"/><circle cx="690.8" cy="447.4" r="2"/><circle cx="692.9" cy="450.5" r="2"/><circle cx="695" cy="450.5" r="2"/><circle cx="697" cy="452.1" r="2"/><circle cx="699.1" cy="453.6" r="2"/><circle cx="701.1" cy="455.2" r="2"/><circle cx="703.2" cy="456.7" r="2"/><circle cx="705.2" cy="458.2" r="2"/><circle cx="707.3" cy="462.9" r="2"/><circle cx="709.3" cy="464.4" r="2"/><circle cx="711.4" cy="466" r="2"/><circle cx="713.4" cy="467.5" r="2"/><circle cx="715.5" cy="467.5" r="2"/><circle cx="717.5" cy="469.1" r="2"/><circle cx="719.6" cy="467.5" r="2"/><circle cx="721.6" cy="470.6" r="2"/><circle cx="723.7" cy="472.1" r="2"/><circle cx="725.8" cy="472.1" r="2"/><circle cx="727.8" cy="473.7" r="2"/><circle cx="729.9" cy="473.7" r="2"/><circle cx="731.9" cy="475.2" r="2"/><circle cx="734" cy="476.8" r="2"/><circle cx="736" cy="478.3" r="2"/><circle cx="738.1" cy="478.3" r="2"/><circle cx="740.1" cy="478.3" r="2"/><circle cx="742.2" cy="481.4" r="2"/><circle cx="744.2" cy="483" r="2"/><circle cx="746.3" cy="483" r="2"/><circle cx="748.3" cy="484.5" r="2"/><circle cx="750.4" cy="475.2" r="2"/><circle cx="752.4" cy="473.7" r="2"/><circle cx="754.5" cy="473.7" r="2"/><circle cx="756.6" cy="473.7" r="2"/><circle cx="758.6" cy="455.2" r="2"/><circle cx="760.7" cy="458.2" r="2"/><circle cx="762.7" cy="447.4" r="2"/><circle cx="764.8" cy="444.3" r="2"/></g></g></g></g></g><g class="SourcesFooter" fill="#777"><g fill="#777"><text font-size="12.6" x="15" y="582.5"><tspan x="15" y="582.48">Source: Daniel E. Sichel (2017)</tspan></text></g><text font-size="12.6" x="796.4" y="582.5"><tspan x="796.44" y="582.48"><a class="cclogo" href="http://creativecommons.org/licenses/by/4.0/deed.en_US" target="_blank" fill="#777">CC BY</a></tspan></text></g></svg>