<svg xmlns="http://www.w3.org/2000/svg" version="1.1" style="background-color:#fff;-webkit-font-smoothing:antialiased" width="850" height="600" viewBox="0 0 850 600" font-family="Lato,'Helvetica Neue',Helvetica,Arial,sans-serif" font-size="18" text-rendering="geometricPrecision"><g class="HeaderView"><g transform="matrix(.29 0 0 .29 774 15)"><svg className="owidLog" width="210" height="120" viewBox="0 0 210 120" fill="none" xmlns="http://www.w3.org/2000/svg"><g clip-path="url(#clip0)"><path d="M0 0h210v107.89H0V0z" fill="#002147"/><path d="M40.98 32.25c0 2.36-.38 4.53-1.12 6.51a14.26 14.26 0 01-8.1 8.4c-1.9.78-4.02 1.17-6.34 1.17a16.6 16.6 0 01-6.33-1.17 14.31 14.31 0 01-8.08-8.4 18.29 18.29 0 01-1.12-6.51c0-2.36.38-4.53 1.12-6.5.75-1.97 1.8-3.67 3.17-5.1a14.32 14.32 0 014.9-3.34c1.92-.8 4.03-1.19 6.34-1.19 2.32 0 4.43.4 6.34 1.19 1.92.8 3.56 1.9 4.93 3.34a14.87 14.87 0 013.17 5.1 18.1 18.1 0 011.12 6.5zm-4.38 0c0-1.94-.26-3.68-.8-5.22a10.91 10.91 0 00-2.24-3.89 9.68 9.68 0 00-3.52-2.46 11.95 11.95 0 00-4.62-.86c-1.68 0-3.21.28-4.6.86a9.88 9.88 0 00-3.54 2.46 10.91 10.91 0 00-2.24 3.9c-.53 1.53-.8 3.27-.8 5.2 0 1.94.27 3.68.8 5.22a11.17 11.17 0 002.24 3.9 10.01 10.01 0 003.55 2.44c1.38.56 2.9.83 4.6.83s3.24-.27 4.61-.83a9.8 9.8 0 003.52-2.44 11.17 11.17 0 002.25-3.9c.53-1.54.8-3.28.8-5.21zm26.22-6.54V48H60.5c-.56 0-.9-.27-1.05-.81l-.31-2.4a12.45 12.45 0 01-3.26 2.6c-1.2.64-2.58.96-4.13.96-1.22 0-2.3-.2-3.24-.6a6.52 6.52 0 01-2.33-1.7 7.37 7.37 0 01-1.43-2.67c-.3-1.04-.46-2.2-.46-3.45V25.7h3.91v14.22c0 1.68.38 2.99 1.15 3.91.77.93 1.96 1.39 3.54 1.39 1.16 0 2.24-.27 3.23-.82a10.42 10.42 0 002.8-2.28V25.7h3.91zm8.61 4.47a9.94 9.94 0 012.6-3.56 5.64 5.64 0 013.76-1.3c.47 0 .92.05 1.34.15.44.1.83.27 1.17.49l-.3 2.92c-.09.37-.3.55-.66.55-.2 0-.5-.04-.9-.13a6.21 6.21 0 00-3.24.18 4.23 4.23 0 00-1.47.92c-.42.4-.81.9-1.17 1.5-.33.58-.64 1.26-.92 2.02V48H67.7V25.71h2.25c.42 0 .72.08.88.25.16.16.27.44.33.83l.26 3.39zm61.16-13.7L122.75 48h-3.82l-7.99-24.05a21.95 21.95 0 01-.42-1.58 38.36 38.36 0 01-.44 1.58L102.05 48h-3.83L88.4 16.47h3.54c.38 0 .7.1.95.29.26.2.43.43.5.73l6.52 21.9.28 1.28.29 1.46.3-1.46.38-1.27 7.41-21.91c.1-.25.26-.48.51-.69.27-.22.58-.33.95-.33h1.23c.38 0 .69.1.92.29a1.77 1.77 0 01.53.73l7.4 21.9a28.4 28.4 0 01.68 2.62 29.52 29.52 0 01.52-2.61l6.54-21.91a1.31 1.31 0 01.48-.7c.27-.21.58-.32.95-.32h3.32zm9.35 8.88c1.63 0 3.1.27 4.4.82a9.43 9.43 0 015.46 5.94c.5 1.4.74 2.98.74 4.73 0 1.76-.25 3.34-.74 4.75a9.43 9.43 0 01-5.46 5.92c-1.3.52-2.77.79-4.4.79-1.64 0-3.12-.27-4.44-.8a9.42 9.42 0 01-3.35-2.3c-.92-1-1.63-2.2-2.13-3.61-.49-1.41-.73-3-.73-4.75s.24-3.33.73-4.73c.5-1.43 1.2-2.64 2.13-3.63a9.4 9.4 0 013.35-2.31c1.32-.55 2.8-.82 4.44-.82zm0 19.89c2.2 0 3.84-.73 4.93-2.2 1.08-1.48 1.63-3.54 1.63-6.18 0-2.66-.55-4.72-1.63-6.2-1.09-1.49-2.73-2.23-4.93-2.23-1.12 0-2.09.2-2.93.57a5.71 5.71 0 00-2.06 1.65 7.5 7.5 0 00-1.24 2.67c-.26 1.04-.4 2.22-.4 3.54 0 2.64.55 4.7 1.64 6.18 1.1 1.47 2.76 2.2 4.99 2.2zm17.97-15.07a9.94 9.94 0 012.6-3.56 5.64 5.64 0 013.76-1.3c.47 0 .91.05 1.34.15.44.1.83.27 1.16.49l-.28 2.92c-.09.37-.31.55-.66.55-.2 0-.5-.04-.9-.13a6.2 6.2 0 00-3.24.18 4.23 4.23 0 00-1.47.92c-.43.4-.82.9-1.17 1.5a13.1 13.1 0 00-.92 2.02V48h-3.94V25.71h2.24c.43 0 .72.08.88.25.17.16.28.44.33.83l.27 3.39zm15.04-14.59V48h-3.92V15.6h3.92zm19.55 15.43a6.22 6.22 0 00-2.38-2.05 6.7 6.7 0 00-2.86-.6c-2.07 0-3.66.75-4.77 2.23-1.12 1.48-1.68 3.6-1.68 6.33 0 1.46.13 2.7.38 3.74a7.29 7.29 0 001.1 2.56 4.35 4.35 0 001.78 1.45c.7.3 1.5.46 2.4.46 1.29 0 2.41-.3 3.36-.88a9.6 9.6 0 002.67-2.49V31.02zm3.91-15.43V48h-2.33c-.56 0-.9-.27-1.06-.81l-.35-2.71a12.13 12.13 0 01-3.25 2.77 8.28 8.28 0 01-4.23 1.06 7.31 7.31 0 01-6.14-2.9c-.73-.96-1.3-2.15-1.69-3.57a18.35 18.35 0 01.07-9.48 11.29 11.29 0 011.89-3.7 8.7 8.7 0 017.06-3.34 7.96 7.96 0 016.12 2.62V15.59h3.91zM46.61 70.71V93H42.7V70.71h3.91zm.84-7c0 .39-.08.75-.24 1.09a2.81 2.81 0 01-1.52 1.47 2.67 2.67 0 01-2.16 0 2.9 2.9 0 01-1.45-1.47 2.67 2.67 0 010-2.16c.15-.35.35-.65.6-.9.25-.27.53-.47.85-.62a2.67 2.67 0 012.16 0c.35.15.65.35.9.62.27.25.47.55.62.9.16.34.24.7.24 1.08zm7.97 10.24c.49-.54 1-1.04 1.54-1.48a9.85 9.85 0 013.66-1.84 8.96 8.96 0 015.43.35c.94.4 1.72.97 2.33 1.71a7.36 7.36 0 011.43 2.67c.32 1.04.49 2.19.49 3.45V93h-3.94V78.81c0-1.69-.4-3-1.17-3.92-.76-.93-1.93-1.4-3.5-1.4a6.6 6.6 0 00-3.25.83c-1 .56-1.92 1.31-2.77 2.27V93h-3.94V70.71h2.35c.56 0 .9.28 1.04.82l.3 2.42zm57.7 3.3c0 2.36-.37 4.5-1.11 6.44a14.3 14.3 0 01-3.17 4.98 14.1 14.1 0 01-4.93 3.2c-1.9.76-4.02 1.13-6.33 1.13H85.8V61.47h11.77c2.31 0 4.42.39 6.33 1.15a13.8 13.8 0 018.1 8.18 17.75 17.75 0 011.12 6.45zm-4.37 0c0-1.94-.26-3.67-.8-5.2a10.94 10.94 0 00-2.23-3.87 9.57 9.57 0 00-3.53-2.42 12.23 12.23 0 00-4.61-.83h-7.5v24.62h7.5c1.7 0 3.24-.28 4.61-.84a9.7 9.7 0 003.53-2.4 10.94 10.94 0 002.24-3.87c.53-1.53.8-3.26.8-5.2zm19.8 5.72c-1.8.06-3.34.2-4.62.44-1.26.22-2.3.51-3.1.88-.8.36-1.37.8-1.74 1.3-.35.5-.53 1.05-.53 1.67 0 .58.1 1.1.3 1.52a3 3 0 00.76 1.05c.34.27.73.46 1.17.6a6.13 6.13 0 001.45.17 7.28 7.28 0 003.5-.81 11.95 11.95 0 002.82-2.2v-4.62zm-12.65-9.11a12.73 12.73 0 013.98-2.66c1.43-.59 3-.88 4.73-.88 1.25 0 2.36.2 3.33.61a6.81 6.81 0 013.94 4.38c.33 1.04.5 2.19.5 3.43V93h-1.74a1.8 1.8 0 01-.88-.18c-.2-.13-.36-.38-.48-.74l-.44-2.12-1.72 1.46a9.48 9.48 0 01-3.74 1.7c-.69.15-1.46.23-2.3.23-.87 0-1.69-.12-2.45-.35a5.34 5.34 0 01-3.34-2.93 6.64 6.64 0 01-.49-2.64c0-.88.25-1.72.73-2.53a6.33 6.33 0 012.35-2.17c1.09-.63 2.5-1.15 4.25-1.54 1.75-.41 3.89-.65 6.42-.7v-1.75c0-1.73-.37-3.03-1.12-3.91-.75-.9-1.84-1.34-3.28-1.34-.97 0-1.78.12-2.44.37-.64.23-1.2.5-1.7.81l-1.23.82c-.33.23-.67.35-1 .35-.27 0-.5-.07-.69-.2a2.1 2.1 0 01-.48-.53l-.7-1.25zm27.67 19.5c-1.76 0-3.12-.5-4.07-1.48-.94-.98-1.41-2.4-1.41-4.25V74h-2.68a.9.9 0 01-.6-.2c-.16-.14-.24-.36-.24-.66v-1.56l3.65-.46.9-6.89a.9.9 0 01.29-.52.88.88 0 01.62-.22H142v7.67h6.44V74H142v13.38c0 .94.22 1.63.68 2.09.45.45 1.04.68 1.76.68a3.21 3.21 0 001.85-.53l.55-.35c.16-.12.3-.18.41-.18.2 0 .4.13.55.38l1.15 1.87a7.45 7.45 0 01-2.44 1.5 8.53 8.53 0 01-2.95.52zm19.68-10.4c-1.8.07-3.34.21-4.62.45-1.26.22-2.3.51-3.1.88-.8.36-1.37.8-1.74 1.3-.35.5-.53 1.05-.53 1.67 0 .58.1 1.1.3 1.52a2.9 2.9 0 00.76 1.05c.34.27.73.46 1.17.6a6.13 6.13 0 001.45.17 7.3 7.3 0 003.5-.81 12.04 12.04 0 002.82-2.2v-4.62zm-12.65-9.1a12.72 12.72 0 013.99-2.66c1.42-.59 3-.88 4.72-.88 1.25 0 2.36.2 3.33.61a6.81 6.81 0 013.94 4.38c.33 1.04.5 2.19.5 3.43V93h-1.74a1.8 1.8 0 01-.88-.18c-.2-.13-.36-.38-.48-.74l-.44-2.12-1.72 1.46a9.48 9.48 0 01-3.74 1.7c-.69.15-1.46.23-2.3.23-.87 0-1.69-.12-2.45-.35a5.33 5.33 0 01-3.34-2.93 6.62 6.62 0 01-.49-2.64c0-.88.25-1.72.73-2.53a6.33 6.33 0 012.35-2.17c1.09-.63 2.5-1.15 4.25-1.54a31.2 31.2 0 016.42-.7v-1.75c0-1.73-.37-3.03-1.12-3.91-.75-.9-1.84-1.34-3.28-1.34-.97 0-1.78.12-2.44.37-.64.23-1.2.5-1.7.81l-1.22.82c-.34.23-.68.35-1.02.35-.26 0-.49-.07-.68-.2a1.88 1.88 0 01-.48-.53l-.7-1.25zM40.98 32.25c0 2.36-.38 4.53-1.12 6.51a14.26 14.26 0 01-8.1 8.4c-1.9.78-4.02 1.17-6.34 1.17a16.6 16.6 0 01-6.33-1.17 14.31 14.31 0 01-8.08-8.4 18.29 18.29 0 01-1.12-6.51c0-2.36.38-4.53 1.12-6.5.75-1.97 1.8-3.67 3.17-5.1a14.32 14.32 0 014.9-3.34c1.92-.8 4.03-1.19 6.34-1.19 2.32 0 4.43.4 6.34 1.19 1.92.8 3.56 1.9 4.93 3.34a14.87 14.87 0 013.17 5.1 18.1 18.1 0 011.12 6.5zm-4.38 0c0-1.94-.26-3.68-.8-5.22a10.91 10.91 0 00-2.24-3.89 9.68 9.68 0 00-3.52-2.46 11.95 11.95 0 00-4.62-.86c-1.68 0-3.21.28-4.6.86a9.88 9.88 0 00-3.54 2.46 10.91 10.91 0 00-2.24 3.9c-.53 1.53-.8 3.27-.8 5.2 0 1.94.27 3.68.8 5.22a11.17 11.17 0 002.24 3.9 10.01 10.01 0 003.55 2.44c1.38.56 2.9.83 4.6.83s3.24-.27 4.61-.83a9.8 9.8 0 003.52-2.44 11.17 11.17 0 002.25-3.9c.53-1.54.8-3.28.8-5.21zm26.22-6.54V48H60.5c-.56 0-.9-.27-1.05-.81l-.31-2.4a12.45 12.45 0 01-3.26 2.6c-1.2.64-2.58.96-4.13.96-1.22 0-2.3-.2-3.24-.6a6.52 6.52 0 01-2.33-1.7 7.37 7.37 0 01-1.43-2.67c-.3-1.04-.46-2.2-.46-3.45V25.7h3.91v14.22c0 1.68.38 2.99 1.15 3.91.77.93 1.96 1.39 3.54 1.39 1.16 0 2.24-.27 3.23-.82a10.42 10.42 0 002.8-2.28V25.7h3.91zm8.61 4.47a9.94 9.94 0 012.6-3.56 5.64 5.64 0 013.76-1.3c.47 0 .92.05 1.34.15.44.1.83.27 1.17.49l-.3 2.92c-.09.37-.3.55-.66.55-.2 0-.5-.04-.9-.13a6.21 6.21 0 00-3.24.18 4.23 4.23 0 00-1.47.92c-.42.4-.81.9-1.17 1.5-.33.58-.64 1.26-.92 2.02V48H67.7V25.71h2.25c.42 0 .72.08.88.25.16.16.27.44.33.83l.26 3.39zm61.16-13.7L122.75 48h-3.82l-7.99-24.05a21.95 21.95 0 01-.42-1.58 38.36 38.36 0 01-.44 1.58L102.05 48h-3.83L88.4 16.47h3.54c.38 0 .7.1.95.29.26.2.43.43.5.73l6.52 21.9.28 1.28.29 1.46.3-1.46.38-1.27 7.41-21.91c.1-.25.26-.48.51-.69.27-.22.58-.33.95-.33h1.23c.38 0 .69.1.92.29a1.77 1.77 0 01.53.73l7.4 21.9a28.4 28.4 0 01.68 2.62 29.52 29.52 0 01.52-2.61l6.54-21.91a1.31 1.31 0 01.48-.7c.27-.21.58-.32.95-.32h3.32zm9.35 8.88c1.63 0 3.1.27 4.4.82a9.43 9.43 0 015.46 5.94c.5 1.4.74 2.98.74 4.73 0 1.76-.25 3.34-.74 4.75a9.43 9.43 0 01-5.46 5.92c-1.3.52-2.77.79-4.4.79-1.64 0-3.12-.27-4.44-.8a9.42 9.42 0 01-3.35-2.3c-.92-1-1.63-2.2-2.13-3.61-.49-1.41-.73-3-.73-4.75s.24-3.33.73-4.73c.5-1.43 1.2-2.64 2.13-3.63a9.4 9.4 0 013.35-2.31c1.32-.55 2.8-.82 4.44-.82zm0 19.89c2.2 0 3.84-.73 4.93-2.2 1.08-1.48 1.63-3.54 1.63-6.18 0-2.66-.55-4.72-1.63-6.2-1.09-1.49-2.73-2.23-4.93-2.23-1.12 0-2.09.2-2.93.57a5.71 5.71 0 00-2.06 1.65 7.5 7.5 0 00-1.24 2.67c-.26 1.04-.4 2.22-.4 3.54 0 2.64.55 4.7 1.64 6.18 1.1 1.47 2.76 2.2 4.99 2.2zm17.97-15.07a9.94 9.94 0 012.6-3.56 5.64 5.64 0 013.76-1.3c.47 0 .91.05 1.34.15.44.1.83.27 1.16.49l-.28 2.92c-.09.37-.31.55-.66.55-.2 0-.5-.04-.9-.13a6.2 6.2 0 00-3.24.18 4.23 4.23 0 00-1.47.92c-.43.4-.82.9-1.17 1.5a13.1 13.1 0 00-.92 2.02V48h-3.94V25.71h2.24c.43 0 .72.08.88.25.17.16.28.44.33.83l.27 3.39zm15.04-14.59V48h-3.92V15.6h3.92zm19.55 15.43a6.22 6.22 0 00-2.38-2.05 6.7 6.7 0 00-2.86-.6c-2.07 0-3.66.75-4.77 2.23-1.12 1.48-1.68 3.6-1.68 6.33 0 1.46.13 2.7.38 3.74a7.29 7.29 0 001.1 2.56 4.35 4.35 0 001.78 1.45c.7.3 1.5.46 2.4.46 1.29 0 2.41-.3 3.36-.88a9.6 9.6 0 002.67-2.49V31.02zm3.91-15.43V48h-2.33c-.56 0-.9-.27-1.06-.81l-.35-2.71a12.13 12.13 0 01-3.25 2.77 8.28 8.28 0 01-4.23 1.06 7.31 7.31 0 01-6.14-2.9c-.73-.96-1.3-2.15-1.69-3.57a18.35 18.35 0 01.07-9.48 11.29 11.29 0 011.89-3.7 8.7 8.7 0 017.06-3.34 7.96 7.96 0 016.12 2.62V15.59h3.91zM46.61 70.71V93H42.7V70.71h3.91zm.84-7c0 .39-.08.75-.24 1.09a2.81 2.81 0 01-1.52 1.47 2.67 2.67 0 01-2.16 0 2.9 2.9 0 01-1.45-1.47 2.67 2.67 0 010-2.16c.15-.35.35-.65.6-.9.25-.27.53-.47.85-.62a2.67 2.67 0 012.16 0c.35.15.65.35.9.62.27.25.47.55.62.9.16.34.24.7.24 1.08zm7.97 10.24c.49-.54 1-1.04 1.54-1.48a9.85 9.85 0 013.66-1.84 8.96 8.96 0 015.43.35c.94.4 1.72.97 2.33 1.71a7.36 7.36 0 011.43 2.67c.32 1.04.49 2.19.49 3.45V93h-3.94V78.81c0-1.69-.4-3-1.17-3.92-.76-.93-1.93-1.4-3.5-1.4a6.6 6.6 0 00-3.25.83c-1 .56-1.92 1.31-2.77 2.27V93h-3.94V70.71h2.35c.56 0 .9.28 1.04.82l.3 2.42zm57.7 3.3c0 2.36-.37 4.5-1.11 6.44a14.3 14.3 0 01-3.17 4.98 14.1 14.1 0 01-4.93 3.2c-1.9.76-4.02 1.13-6.33 1.13H85.8V61.47h11.77c2.31 0 4.42.39 6.33 1.15a13.8 13.8 0 018.1 8.18 17.75 17.75 0 011.12 6.45zm-4.37 0c0-1.94-.26-3.67-.8-5.2a10.94 10.94 0 00-2.23-3.87 9.57 9.57 0 00-3.53-2.42 12.23 12.23 0 00-4.61-.83h-7.5v24.62h7.5c1.7 0 3.24-.28 4.61-.84a9.7 9.7 0 003.53-2.4 10.94 10.94 0 002.24-3.87c.53-1.53.8-3.26.8-5.2zm19.8 5.72c-1.8.06-3.34.2-4.62.44-1.26.22-2.3.51-3.1.88-.8.36-1.37.8-1.74 1.3-.35.5-.53 1.05-.53 1.67 0 .58.1 1.1.3 1.52a3 3 0 00.76 1.05c.34.27.73.46 1.17.6a6.13 6.13 0 001.45.17 7.28 7.28 0 003.5-.81 11.95 11.95 0 002.82-2.2v-4.62zm-12.65-9.11a12.73 12.73 0 013.98-2.66c1.43-.59 3-.88 4.73-.88 1.25 0 2.36.2 3.33.61a6.81 6.81 0 013.94 4.38c.33 1.04.5 2.19.5 3.43V93h-1.74a1.8 1.8 0 01-.88-.18c-.2-.13-.36-.38-.48-.74l-.44-2.12-1.72 1.46a9.48 9.48 0 01-3.74 1.7c-.69.15-1.46.23-2.3.23-.87 0-1.69-.12-2.45-.35a5.34 5.34 0 01-3.34-2.93 6.64 6.64 0 01-.49-2.64c0-.88.25-1.72.73-2.53a6.33 6.33 0 012.35-2.17c1.09-.63 2.5-1.15 4.25-1.54 1.75-.41 3.89-.65 6.42-.7v-1.75c0-1.73-.37-3.03-1.12-3.91-.75-.9-1.84-1.34-3.28-1.34-.97 0-1.78.12-2.44.37-.64.23-1.2.5-1.7.81l-1.23.82c-.33.23-.67.35-1 .35-.27 0-.5-.07-.69-.2a2.1 2.1 0 01-.48-.53l-.7-1.25zm27.67 19.5c-1.76 0-3.12-.5-4.07-1.48-.94-.98-1.41-2.4-1.41-4.25V74h-2.68a.9.9 0 01-.6-.2c-.16-.14-.24-.36-.24-.66v-1.56l3.65-.46.9-6.89a.9.9 0 01.29-.52.88.88 0 01.62-.22H142v7.67h6.44V74H142v13.38c0 .94.22 1.63.68 2.09.45.45 1.04.68 1.76.68a3.21 3.21 0 001.85-.53l.55-.35c.16-.12.3-.18.41-.18.2 0 .4.13.55.38l1.15 1.87a7.45 7.45 0 01-2.44 1.5 8.53 8.53 0 01-2.95.52zm19.68-10.4c-1.8.07-3.34.21-4.62.45-1.26.22-2.3.51-3.1.88-.8.36-1.37.8-1.74 1.3-.35.5-.53 1.05-.53 1.67 0 .58.1 1.1.3 1.52a2.9 2.9 0 00.76 1.05c.34.27.73.46 1.17.6a6.13 6.13 0 001.45.17 7.3 7.3 0 003.5-.81 12.04 12.04 0 002.82-2.2v-4.62zm-12.65-9.1a12.72 12.72 0 013.99-2.66c1.42-.59 3-.88 4.72-.88 1.25 0 2.36.2 3.33.61a6.81 6.81 0 013.94 4.38c.33 1.04.5 2.19.5 3.43V93h-1.74a1.8 1.8 0 01-.88-.18c-.2-.13-.36-.38-.48-.74l-.44-2.12-1.72 1.46a9.48 9.48 0 01-3.74 1.7c-.69.15-1.46.23-2.3.23-.87 0-1.69-.12-2.45-.35a5.33 5.33 0 01-3.34-2.93 6.62 6.62 0 01-.49-2.64c0-.88.25-1.72.73-2.53a6.33 6.33 0 012.35-2.17c1.09-.63 2.5-1.15 4.25-1.54a31.2 31.2 0 016.42-.7v-1.75c0-1.73-.37-3.03-1.12-3.91-.75-.9-1.84-1.34-3.28-1.34-.97 0-1.78.12-2.44.37-.64.23-1.2.5-1.7.81l-1.22.82c-.34.23-.68.35-1.02.35-.26 0-.49-.07-.68-.2a1.88 1.88 0 01-.48-.53l-.7-1.25zM40.98 32.25c0 2.36-.38 4.53-1.12 6.51a14.26 14.26 0 01-8.1 8.4c-1.9.78-4.02 1.17-6.34 1.17a16.6 16.6 0 01-6.33-1.17 14.31 14.31 0 01-8.08-8.4 18.29 18.29 0 01-1.12-6.51c0-2.36.38-4.53 1.12-6.5.75-1.97 1.8-3.67 3.17-5.1a14.32 14.32 0 014.9-3.34c1.92-.8 4.03-1.19 6.34-1.19 2.32 0 4.43.4 6.34 1.19 1.92.8 3.56 1.9 4.93 3.34a14.87 14.87 0 013.17 5.1 18.1 18.1 0 011.12 6.5zm-4.38 0c0-1.94-.26-3.68-.8-5.22a10.91 10.91 0 00-2.24-3.89 9.68 9.68 0 00-3.52-2.46 11.95 11.95 0 00-4.62-.86c-1.68 0-3.21.28-4.6.86a9.88 9.88 0 00-3.54 2.46 10.91 10.91 0 00-2.24 3.9c-.53 1.53-.8 3.27-.8 5.2 0 1.94.27 3.68.8 5.22a11.17 11.17 0 002.24 3.9 10.01 10.01 0 003.55 2.44c1.38.56 2.9.83 4.6.83s3.24-.27 4.61-.83a9.8 9.8 0 003.52-2.44 11.17 11.17 0 002.25-3.9c.53-1.54.8-3.28.8-5.21zm26.22-6.54V48H60.5c-.56 0-.9-.27-1.05-.81l-.31-2.4a12.45 12.45 0 01-3.26 2.6c-1.2.64-2.58.96-4.13.96-1.22 0-2.3-.2-3.24-.6a6.52 6.52 0 01-2.33-1.7 7.37 7.37 0 01-1.43-2.67c-.3-1.04-.46-2.2-.46-3.45V25.7h3.91v14.22c0 1.68.38 2.99 1.15 3.91.77.93 1.96 1.39 3.54 1.39 1.16 0 2.24-.27 3.23-.82a10.42 10.42 0 002.8-2.28V25.7h3.91zm8.61 4.47a9.94 9.94 0 012.6-3.56 5.64 5.64 0 013.76-1.3c.47 0 .92.05 1.34.15.44.1.83.27 1.17.49l-.3 2.92c-.09.37-.3.55-.66.55-.2 0-.5-.04-.9-.13a6.21 6.21 0 00-3.24.18 4.23 4.23 0 00-1.47.92c-.42.4-.81.9-1.17 1.5-.33.58-.64 1.26-.92 2.02V48H67.7V25.71h2.25c.42 0 .72.08.88.25.16.16.27.44.33.83l.26 3.39zm61.16-13.7L122.75 48h-3.82l-7.99-24.05a21.95 21.95 0 01-.42-1.58 38.36 38.36 0 01-.44 1.58L102.05 48h-3.83L88.4 16.47h3.54c.38 0 .7.1.95.29.26.2.43.43.5.73l6.52 21.9.28 1.28.29 1.46.3-1.46.38-1.27 7.41-21.91c.1-.25.26-.48.51-.69.27-.22.58-.33.95-.33h1.23c.38 0 .69.1.92.29a1.77 1.77 0 01.53.73l7.4 21.9a28.4 28.4 0 01.68 2.62 29.52 29.52 0 01.52-2.61l6.54-21.91a1.31 1.31 0 01.48-.7c.27-.21.58-.32.95-.32h3.32zm9.35 8.88c1.63 0 3.1.27 4.4.82a9.43 9.43 0 015.46 5.94c.5 1.4.74 2.98.74 4.73 0 1.76-.25 3.34-.74 4.75a9.43 9.43 0 01-5.46 5.92c-1.3.52-2.77.79-4.4.79-1.64 0-3.12-.27-4.44-.8a9.42 9.42 0 01-3.35-2.3c-.92-1-1.63-2.2-2.13-3.61-.49-1.41-.73-3-.73-4.75s.24-3.33.73-4.73c.5-1.43 1.2-2.64 2.13-3.63a9.4 9.4 0 013.35-2.31c1.32-.55 2.8-.82 4.44-.82zm0 19.89c2.2 0 3.84-.73 4.93-2.2 1.08-1.48 1.63-3.54 1.63-6.18 0-2.66-.55-4.72-1.63-6.2-1.09-1.49-2.73-2.23-4.93-2.23-1.12 0-2.09.2-2.93.57a5.71 5.71 0 00-2.06 1.65 7.5 7.5 0 00-1.24 2.67c-.26 1.04-.4 2.22-.4 3.54 0 2.64.55 4.7 1.64 6.18 1.1 1.47 2.76 2.2 4.99 2.2zm17.97-15.07a9.94 9.94 0 012.6-3.56 5.64 5.64 0 013.76-1.3c.47 0 .91.05 1.34.15.44.1.83.27 1.16.49l-.28 2.92c-.09.37-.31.55-.66.55-.2 0-.5-.04-.9-.13a6.2 6.2 0 00-3.24.18 4.23 4.23 0 00-1.47.92c-.43.4-.82.9-1.17 1.5a13.1 13.1 0 00-.92 2.02V48h-3.94V25.71h2.24c.43 0 .72.08.88.25.17.16.28.44.33.83l.27 3.39zm15.04-14.59V48h-3.92V15.6h3.92zm19.55 15.43a6.22 6.22 0 00-2.38-2.05 6.7 6.7 0 00-2.86-.6c-2.07 0-3.66.75-4.77 2.23-1.12 1.48-1.68 3.6-1.68 6.33 0 1.46.13 2.7.38 3.74a7.29 7.29 0 001.1 2.56 4.35 4.35 0 001.78 1.45c.7.3 1.5.46 2.4.46 1.29 0 2.41-.3 3.36-.88a9.6 9.6 0 002.67-2.49V31.02zm3.91-15.43V48h-2.33c-.56 0-.9-.27-1.06-.81l-.35-2.71a12.13 12.13 0 01-3.25 2.77 8.28 8.28 0 01-4.23 1.06 7.31 7.31 0 01-6.14-2.9c-.73-.96-1.3-2.15-1.69-3.57a18.35 18.35 0 01.07-9.48 11.29 11.29 0 011.89-3.7 8.7 8.7 0 017.06-3.34 7.96 7.96 0 016.12 2.62V15.59h3.91zM46.61 70.71V93H42.7V70.71h3.91zm.84-7c0 .39-.08.75-.24 1.09a2.81 2.81 0 01-1.52 1.47 2.67 2.67 0 01-2.16 0 2.9 2.9 0 01-1.45-1.47 2.67 2.67 0 010-2.16c.15-.35.35-.65.6-.9.25-.27.53-.47.85-.62a2.67 2.67 0 012.16 0c.35.15.65.35.9.62.27.25.47.55.62.9.16.34.24.7.24 1.08zm7.97 10.24c.49-.54 1-1.04 1.54-1.48a9.85 9.85 0 013.66-1.84 8.96 8.96 0 015.43.35c.94.4 1.72.97 2.33 1.71a7.36 7.36 0 011.43 2.67c.32 1.04.49 2.19.49 3.45V93h-3.94V78.81c0-1.69-.4-3-1.17-3.92-.76-.93-1.93-1.4-3.5-1.4a6.6 6.6 0 00-3.25.83c-1 .56-1.92 1.31-2.77 2.27V93h-3.94V70.71h2.35c.56 0 .9.28 1.04.82l.3 2.42zm57.7 3.3c0 2.36-.37 4.5-1.11 6.44a14.3 14.3 0 01-3.17 4.98 14.1 14.1 0 01-4.93 3.2c-1.9.76-4.02 1.13-6.33 1.13H85.8V61.47h11.77c2.31 0 4.42.39 6.33 1.15a13.8 13.8 0 018.1 8.18 17.75 17.75 0 011.12 6.45zm-4.37 0c0-1.94-.26-3.67-.8-5.2a10.94 10.94 0 00-2.23-3.87 9.57 9.57 0 00-3.53-2.42 12.23 12.23 0 00-4.61-.83h-7.5v24.62h7.5c1.7 0 3.24-.28 4.61-.84a9.7 9.7 0 003.53-2.4 10.94 10.94 0 002.24-3.87c.53-1.53.8-3.26.8-5.2zm19.8 5.72c-1.8.06-3.34.2-4.62.44-1.26.22-2.3.51-3.1.88-.8.36-1.37.8-1.74 1.3-.35.5-.53 1.05-.53 1.67 0 .58.1 1.1.3 1.52a3 3 0 00.76 1.05c.34.27.73.46 1.17.6a6.13 6.13 0 001.45.17 7.28 7.28 0 003.5-.81 11.95 11.95 0 002.82-2.2v-4.62zm-12.65-9.11a12.73 12.73 0 013.98-2.66c1.43-.59 3-.88 4.73-.88 1.25 0 2.36.2 3.33.61a6.81 6.81 0 013.94 4.38c.33 1.04.5 2.19.5 3.43V93h-1.74a1.8 1.8 0 01-.88-.18c-.2-.13-.36-.38-.48-.74l-.44-2.12-1.72 1.46a9.48 9.48 0 01-3.74 1.7c-.69.15-1.46.23-2.3.23-.87 0-1.69-.12-2.45-.35a5.34 5.34 0 01-3.34-2.93 6.64 6.64 0 01-.49-2.64c0-.88.25-1.72.73-2.53a6.33 6.33 0 012.35-2.17c1.09-.63 2.5-1.15 4.25-1.54 1.75-.41 3.89-.65 6.42-.7v-1.75c0-1.73-.37-3.03-1.12-3.91-.75-.9-1.84-1.34-3.28-1.34-.97 0-1.78.12-2.44.37-.64.23-1.2.5-1.7.81l-1.23.82c-.33.23-.67.35-1 .35-.27 0-.5-.07-.69-.2a2.1 2.1 0 01-.48-.53l-.7-1.25zm27.67 19.5c-1.76 0-3.12-.5-4.07-1.48-.94-.98-1.41-2.4-1.41-4.25V74h-2.68a.9.9 0 01-.6-.2c-.16-.14-.24-.36-.24-.66v-1.56l3.65-.46.9-6.89a.9.9 0 01.29-.52.88.88 0 01.62-.22H142v7.67h6.44V74H142v13.38c0 .94.22 1.63.68 2.09.45.45 1.04.68 1.76.68a3.21 3.21 0 001.85-.53l.55-.35c.16-.12.3-.18.41-.18.2 0 .4.13.55.38l1.15 1.87a7.45 7.45 0 01-2.44 1.5 8.53 8.53 0 01-2.95.52zm19.68-10.4c-1.8.07-3.34.21-4.62.45-1.26.22-2.3.51-3.1.88-.8.36-1.37.8-1.74 1.3-.35.5-.53 1.05-.53 1.67 0 .58.1 1.1.3 1.52a2.9 2.9 0 00.76 1.05c.34.27.73.46 1.17.6a6.13 6.13 0 001.45.17 7.3 7.3 0 003.5-.81 12.04 12.04 0 002.82-2.2v-4.62zm-12.65-9.1a12.72 12.72 0 013.99-2.66c1.42-.59 3-.88 4.72-.88 1.25 0 2.36.2 3.33.61a6.81 6.81 0 013.94 4.38c.33 1.04.5 2.19.5 3.43V93h-1.74a1.8 1.8 0 01-.88-.18c-.2-.13-.36-.38-.48-.74l-.44-2.12-1.72 1.46a9.48 9.48 0 01-3.74 1.7c-.69.15-1.46.23-2.3.23-.87 0-1.69-.12-2.45-.35a5.33 5.33 0 01-3.34-2.93 6.62 6.62 0 01-.49-2.64c0-.88.25-1.72.73-2.53a6.33 6.33 0 012.35-2.17c1.09-.63 2.5-1.15 4.25-1.54a31.2 31.2 0 016.42-.7v-1.75c0-1.73-.37-3.03-1.12-3.91-.75-.9-1.84-1.34-3.28-1.34-.97 0-1.78.12-2.44.37-.64.23-1.2.5-1.7.81l-1.22.82c-.34.23-.68.35-1.02.35-.26 0-.49-.07-.68-.2a1.88 1.88 0 01-.48-.53l-.7-1.25z" fill="#fff"/><path fill="#D42B21" d="M0 106.79h210V120H0z"/></g><defs><clipPath id="clip0"><path fill="#fff" d="M0 0h210v120H0z"/></clipPath></defs></svg></g><a href="https://ourworldindata.org/grapher/relative-difference-in-global-population-estimates-un-vs-us-census-bureau" target="_blank" rel="noopener" font-family="&quot;Playfair Display&quot;,Georgia,&quot;Times New Roman&quot;,serif"><text font-size="21.6" x="15" y="32.3" fill="#555"><tspan x="15" y="32.28">Relative difference in global population estimates, UN vs. US Census</tspan><tspan x="15" y="53.88">Bureau, 1950 to 2015</tspan></text></a><text font-size="14.4" x="15" y="74.7" fill="#666"><tspan x="15" y="74.72">Relative difference in global and regional population estimates between UN population division and US Census Bureau</tspan><tspan x="15" y="92">sources, measured as the difference as a percentage of UN figures (i.e.UN minus US Census Bureau values, divided by UN</tspan><tspan x="15" y="109.28">population figures). Negative figures therefore indicate lower UN estimates relative to the US Census Bureau, and vice versa.</tspan></text></g><g class="LineChart"><defs><clipPath id="a"><path d="M38.84 116.8h840v440.6h-840z"/></clipPath></defs><g class="DualAxisView"><g class="HorizontalAxis"><path stroke="#999" d="M48.8 526.2v5M601.8 526.2v5M133.9 526.2v5M219 526.2v5M304.1 526.2v5M389.1 526.2v5M474.2 526.2v5"/><text x="48.84" y="547.4" fill="#666" text-anchor="start" font-size="16.2">1950</text><text x="601.82" y="547.4" fill="#666" text-anchor="end" font-size="16.2">2015</text><text x="133.9" y="547.4" fill="#666" text-anchor="middle" font-size="16.2">1960</text><text x="219" y="547.4" fill="#666" text-anchor="middle" font-size="16.2">1970</text><text x="304.1" y="547.4" fill="#666" text-anchor="middle" font-size="16.2">1980</text><text x="389.1" y="547.4" fill="#666" text-anchor="middle" font-size="16.2">1990</text><text x="474.2" y="547.4" fill="#666" text-anchor="middle" font-size="16.2">2000</text></g><g class="VerticalAxis" text-anchor="end" fill="#666" font-size="16.2"><text x="43.84" y="507.9" dy=".32em">-2%</text><text x="43.84" y="460.6" dy=".32em">-1%</text><text x="43.84" y="413.4" dy=".32em">0%</text><text x="43.84" y="366.1" dy=".32em">1%</text><text x="43.84" y="318.8" dy=".32em">2%</text><text x="43.84" y="271.5" dy=".32em">3%</text><text x="43.84" y="224.2" dy=".32em">4%</text><text x="43.84" y="176.9" dy=".32em">5%</text><text x="43.84" y="129.6" dy=".32em">6%</text></g><g class="AxisGridLines horizontalLines"><path stroke="#ddd" stroke-dasharray="3,2" d="M48.84 507.9h552.98M48.84 460.6h552.98"/><path stroke="#999" d="M48.84 413.4h552.98"/><path stroke="#ddd" stroke-dasharray="3,2" d="M48.84 366.1h552.98M48.84 318.8h552.98M48.84 271.5h552.98M48.84 224.2h552.98M48.84 176.9h552.98M48.84 129.6h552.98"/></g></g><g clip-path="url(#a)"><g class="LineLabels" cursor="default"><g class="legendMark"><g class="indicator"><path d="M605.82 126.8h13.5v6.75h13.5" stroke="#999" stroke-width=".5" fill="none"/></g><text font-size="13.5" x="636.8" y="137.6" fill="#34983f"><tspan x="636.82" y="137.6">Oceania</tspan></text></g><g class="legendMark"><g class="indicator"><path d="M605.82 299.1h9v-10.13h18" stroke="#999" stroke-width=".5" fill="none"/></g><text font-size="13.5" x="636.8" y="293" fill="#a652ba"><tspan x="636.82" y="293.03">Africa</tspan></text></g><g class="legendMark"><g class="indicator"><path d="M605.82 311.3h18v-6.82h9" stroke="#999" stroke-width=".5" fill="none"/></g><text font-size="13.5" x="636.8" y="308.5" fill="#ffd53e"><tspan x="636.82" y="308.53">Latin America and the Caribbean</tspan></text></g><g class="legendMark"><g class="indicator"><path d="M605.82 311.7h18v8.28h9" stroke="#999" stroke-width=".5" fill="none"/></g><text font-size="13.5" x="636.8" y="324" fill="#58888f"><tspan x="636.82" y="324.03">Asia</tspan></text></g><g class="legendMark"><g class="indicator"><path d="M605.82 326.8h9v8.68h18" stroke="#999" stroke-width=".5" fill="none"/></g><text font-size="13.5" x="636.8" y="339.5" fill="#e6332e"><tspan x="636.82" y="339.53">World</tspan></text></g><g class="legendMark"><g class="indicator"><path d="M605.82 415h13.5v0h13.5" stroke="#999" stroke-width=".5" fill="none"/></g><text font-size="13.5" x="636.8" y="419.1" fill="#ca2628"><tspan x="636.82" y="419.05">Northern America</tspan></text></g><g class="legendMark"><g class="indicator"><path d="M605.82 443.2h13.5v0h13.5" stroke="#999" stroke-width=".5" fill="none"/></g><text font-size="13.5" x="636.8" y="447.3" fill="#3360a9"><tspan x="636.82" y="447.25">Europe</tspan></text></g></g><g class="Lines"><g><path stroke-linecap="round" stroke-linejoin="round" stroke="#ddd" d="M48.8 453.2l8.5-19.5 8.6-9.2 8.5-2.6 8.5 1.7 8.5 6.6 8.5 6.5 8.5 8.6 8.5 6.9 8.5-2.5 8.5-21.1 8.5-24.9 8.5-3.9 8.5 13.1 8.5 11.6 8.5 4.6 8.6 2.1 8.5-2 8.5-1.3 8.5.9 8.5.9 8.5 2.7 8.5.2 8.5-.9 8.5-2 8.5-5.1 8.5-6 8.5-4.6 8.5-4.8 8.6-2.6 8.5-7 8.5 2.3 8.5-.4 8.5-1.2 8.5-5.5 8.5-4.7 8.5-4.8 8.5-4.3 8.5-4.2 8.5-3.8 8.5-1.1 8.5-3.3 8.5-.1 8.6-.6 8.5-1.1 8.5.8 8.5 1 8.5.2 8.5-.3 8.5-.5 8.5-1 8.5-1.1 8.5-1.3 8.5-1.2 8.5-1.8 8.5-2.3 8.6-2.1 8.5-2.3 8.5-2.6 8.5-2.9 8.5-3.7 8.5-4.2 8.5-4 8.5-3.7 8.5-3.7 8.5-3.3" fill="none" stroke-width="1"/></g><g><path stroke-linecap="round" stroke-linejoin="round" stroke="#ddd" d="M48.8 349.2l8.5 3.8 8.6-9.3 8.5-6.4 8.5 3.1 8.5 4.3 8.5 4.6 8.5-.3 8.5-3.3 8.5.5 8.5 2.6 8.5 12.5 8.5.7 8.5 2.2 8.5-1.8 8.5-6.6L185 342l8.5-21.4 8.5-20.9 8.5-7.3 8.5 4 8.5 11.3 8.5 5.9 8.5 3.4 8.5 7.7 8.5 2.5 8.5-5.8 8.5-2.7 8.5.2 8.6-2.1 8.5-.2 8.5 19.8 8.5 3.6 8.5-7 8.5-13.5 8.5-12.2 8.5-10 8.5-6.7 8.5-2.2 8.5 3 8.5 6.7 8.5 2.2 8.5-2.5 8.6-5.6 8.5-8.3 8.5-.2 8.5 5 8.5 3.8 8.5-.2 8.5-1.1 8.5-.3 8.5 3.3 8.5 5.4 8.5 1.4 8.5-5.4 8.5-10.4 8.6-13.1 8.5-17.3 8.5-20.3 8.5-20.4 8.5-18.9 8.5-16.2 8.5-14.2 8.5-12.8 8.5-12.5 8.5-12.7" fill="none" stroke-width="1"/></g><g><path stroke-linecap="round" stroke-linejoin="round" stroke="#ddd" d="M48.8 231l8.5 1.6 8.6 4.6 8.5.2 8.5 6.3 8.5 8.3 8.5 1.6 8.5 7 8.5 1.2 8.5 1.9 8.5.1 8.5 5.6 8.5 2.7 8.5 4.2 8.5 6.3 8.5 3.3 8.6-.3 8.5-.8 8.5 1.6 8.5 3 8.5 15.4 8.5 19.2 8.5 10.3 8.5 2.4 8.5 1 8.5 3.7 8.5 2.1 8.5 2.7 8.5 4 8.6 6.2 8.5 10.8 8.5 2.6 8.5 1.4 8.5-1.1 8.5-3.7 8.5-3.3 8.5-1.9 8.5-2.4 8.5-2.2 8.5 1.5 8.5 7.8 8.5 15.3 8.5 19.2 8.6 15.2 8.5 8.9 8.5 4.5 8.5.1 8.5-1.5 8.5-3.7 8.5-2.2 8.5-.1 8.5-1.2 8.5-.5 8.5-1.5 8.5 1.5 8.5.5 8.6 1 8.5-.2 8.5-.4 8.5-1.9 8.5-1.4 8.5-2.6 8.5-.6 8.5-1.1 8.5 1.3 8.5.5" fill="none" stroke-width="1"/></g><g><path stroke-linecap="round" stroke-linejoin="round" stroke="#ddd" d="M48.8 316.1l8.5-1.1 8.6-2.7 8.5-2.8 8.5-.5 8.5 1.8 8.5 2.3 8.5 3.6 8.5 4.8 8.5 5 8.5 4.6 8.5 1.2 8.5.6 8.5 1.3 8.5 2.7 8.5 2.6 8.6 2.6 8.5 2.5 8.5 3 8.5 3.6 8.5 3.2 8.5.6 8.5.5 8.5-.7 8.5-7.3 8.5-1.8 8.5-2.2 8.5-1.3 8.5-1.2 8.6.2 8.5-1.9 8.5-.7 8.5.9 8.5 2.5 8.5 2.8 8.5 2.6 8.5 2.9 8.5 4.3 8.5 4.2 8.5 2.2 8.5 1.7 8.5-1.2 8.5-1.9 8.6-1.3 8.5-.1 8.5-.8 8.5-1.2 8.5-1.1 8.5-1.2 8.5-3.1 8.5-3.5 8.5-1.8 8.5-.5 8.5.8 8.5.9 8.5-.6 8.6-2.5 8.5-3.3 8.5-3.1 8.5-2.9 8.5-4.7 8.5-3.1 8.5-3.5 8.5-4 8.5-4.2 8.5-3.5" fill="none" stroke-width="1"/></g><g><path stroke-linecap="round" stroke-linejoin="round" stroke="#ddd" d="M48.8 394.1l8.5 4.1 8.6-.6 8.5.6 8.5-.7 8.5.8 8.5 2.1 8.5 2 8.5 3 8.5 3.4 8.5 2.1 8.5 2.4 8.5 2.6 8.5-.4 8.5-.5 8.5-.7 8.6-.3 8.5-1 8.5.9 8.5 2 8.5 1.7 8.5 3.5 8.5 1.2h8.5l8.5-.7 8.5-1 8.5-1.7 8.5-.2 8.5-.2 8.6.5 8.5 1.3 8.5 1.2 8.5-1.2 8.5-1.4 8.5-1.1 8.5-1.2 8.5-.8 8.5-1.4 8.5-.6 8.5 1.8 8.5 3.8 8.5 2 8.5 1.3 8.6-.3 8.5.9 8.5 1.5 8.5 1.6 8.5 2.5 8.5 2.5 8.5 1.9 8.5 1.5 8.5.7 8.5-.3 8.5-1.1 8.5-.7 8.5-1.3 8.6-2.2 8.5.7 8.5 2.4 8.5.4 8.5-.4 8.5.9 8.5 2.8 8.5 3.8 8.5 1.7 8.5 1" fill="none" stroke-width="1"/></g><g><path stroke-linecap="round" stroke-linejoin="round" stroke="#ddd" d="M48.8 526.2l8.5-37.5 8.6-17 8.5-4.5 8.5 2.7 8.5 9.9 8.5 10.3 8.5 13.5 8.5 10.8 8.5-6.5 8.5-38.9 8.5-45.4 8.5-7.3 8.5 22.6 8.5 19.5 8.5 7.2 8.6 3.2 8.5-3.9 8.5-3.6 8.5-.4 8.5-.3 8.5 1.4 8.5-.7 8.5-1.6 8.5-2.3 8.5-7.8 8.5-9.6 8.5-8.2 8.5-8.3 8.6-5.5 8.5-13.2 8.5 1.2 8.5-2.3 8.5-2.3 8.5-6.3 8.5-7 8.5-7.7 8.5-6 8.5-6.2 8.5-6 8.5-2.9 8.5-6.8 8.5-.7 8.6-.7 8.5.8 8.5 2.1 8.5 2.1 8.5 1.2 8.5.6h8.5l8.5-.7 8.5-1.2 8.5-1.8 8.5-1.8 8.5-2.9 8.5-2.9 8.6-2.2 8.5-2.8 8.5-3.4 8.5-3.2 8.5-3.9 8.5-4.1 8.5-4.3 8.5-4.2 8.5-3.9 8.5-2.9" fill="none" stroke-width="1"/></g><g><path stroke-linecap="round" stroke-linejoin="round" stroke="#ddd" d="M48.8 421.4l8.5 2.5 8.6 1.8 8.5.1 8.5-.1 8.5 1.6 8.5.5 8.5-.5 8.5-1.1 8.5-1.3 8.5-1.1 8.5-4.5 8.5-6.2 8.5 1 8.5.3 8.5 1.4 8.6 1.8 8.5 2.1 8.5 1.4 8.5.7 8.5-6.1 8.5-1.4 8.5-3.3 8.5-1.7 8.5-1.5 8.5-5.1 8.5-.4 8.5 1.6 8.5.6 8.6 2.4 8.5 1.1 8.5 10.8 8.5 9.6 8.5 3.1 8.5-14.3 8.5-1.9 8.5-1.7 8.5-5.6 8.5-5.3 8.5-5.4 8.5-3.1 8.5-.9 8.5-4.8 8.6-5.3 8.5-16.5 8.5-5.9 8.5-2.7 8.5-4.2 8.5-3.8 8.5-2.1 8.5-2.2 8.5-1.1 8.5.6 8.5 1 8.5.5 8.5-1 8.6-1.5 8.5-1.4 8.5-1.9 8.5-2.9 8.5-4.8 8.5-7.3 8.5-7.4 8.5-6.2 8.5-6.5 8.5-6.8" fill="none" stroke-width="1"/></g><g><path stroke="#e6332e" stroke-linecap="round" stroke-linejoin="round" d="M48.8 453.2l8.5-19.5 8.6-9.2 8.5-2.6 8.5 1.7 8.5 6.6 8.5 6.5 8.5 8.6 8.5 6.9 8.5-2.5 8.5-21.1 8.5-24.9 8.5-3.9 8.5 13.1 8.5 11.6 8.5 4.6 8.6 2.1 8.5-2 8.5-1.3 8.5.9 8.5.9 8.5 2.7 8.5.2 8.5-.9 8.5-2 8.5-5.1 8.5-6 8.5-4.6 8.5-4.8 8.6-2.6 8.5-7 8.5 2.3 8.5-.4 8.5-1.2 8.5-5.5 8.5-4.7 8.5-4.8 8.5-4.3 8.5-4.2 8.5-3.8 8.5-1.1 8.5-3.3 8.5-.1 8.6-.6 8.5-1.1 8.5.8 8.5 1 8.5.2 8.5-.3 8.5-.5 8.5-1 8.5-1.1 8.5-1.3 8.5-1.2 8.5-1.8 8.5-2.3 8.6-2.1 8.5-2.3 8.5-2.6 8.5-2.9 8.5-3.7 8.5-4.2 8.5-4 8.5-3.7 8.5-3.7 8.5-3.3" fill="none" stroke-width="1.5"/><g fill="#e6332e"><circle cx="48.8" cy="453.2" r="2"/><circle cx="57.3" cy="433.7" r="2"/><circle cx="65.9" cy="424.5" r="2"/><circle cx="74.4" cy="421.9" r="2"/><circle cx="82.9" cy="423.6" r="2"/><circle cx="91.4" cy="430.2" r="2"/><circle cx="99.9" cy="436.7" r="2"/><circle cx="108.4" cy="445.3" r="2"/><circle cx="116.9" cy="452.2" r="2"/><circle cx="125.4" cy="449.7" r="2"/><circle cx="133.9" cy="428.6" r="2"/><circle cx="142.4" cy="403.7" r="2"/><circle cx="150.9" cy="399.8" r="2"/><circle cx="159.4" cy="412.9" r="2"/><circle cx="167.9" cy="424.5" r="2"/><circle cx="176.4" cy="429.1" r="2"/><circle cx="185" cy="431.2" r="2"/><circle cx="193.5" cy="429.2" r="2"/><circle cx="202" cy="427.9" r="2"/><circle cx="210.5" cy="428.8" r="2"/><circle cx="219" cy="429.7" r="2"/><circle cx="227.5" cy="432.4" r="2"/><circle cx="236" cy="432.6" r="2"/><circle cx="244.5" cy="431.7" r="2"/><circle cx="253" cy="429.7" r="2"/><circle cx="261.5" cy="424.6" r="2"/><circle cx="270" cy="418.6" r="2"/><circle cx="278.5" cy="414" r="2"/><circle cx="287" cy="409.2" r="2"/><circle cx="295.6" cy="406.6" r="2"/><circle cx="304.1" cy="399.6" r="2"/><circle cx="312.6" cy="401.9" r="2"/><circle cx="321.1" cy="401.5" r="2"/><circle cx="329.6" cy="400.3" r="2"/><circle cx="338.1" cy="394.8" r="2"/><circle cx="346.6" cy="390.1" r="2"/><circle cx="355.1" cy="385.3" r="2"/><circle cx="363.6" cy="381" r="2"/><circle cx="372.1" cy="376.8" r="2"/><circle cx="380.6" cy="373" r="2"/><circle cx="389.1" cy="371.9" r="2"/><circle cx="397.6" cy="368.6" r="2"/><circle cx="406.1" cy="368.5" r="2"/><circle cx="414.7" cy="367.9" r="2"/><circle cx="423.2" cy="366.8" r="2"/><circle cx="431.7" cy="367.6" r="2"/><circle cx="440.2" cy="368.6" r="2"/><circle cx="448.7" cy="368.8" r="2"/><circle cx="457.2" cy="368.5" r="2"/><circle cx="465.7" cy="368" r="2"/><circle cx="474.2" cy="367" r="2"/><circle cx="482.7" cy="365.9" r="2"/><circle cx="491.2" cy="364.6" r="2"/><circle cx="499.7" cy="363.4" r="2"/><circle cx="508.2" cy="361.6" r="2"/><circle cx="516.7" cy="359.3" r="2"/><circle cx="525.3" cy="357.2" r="2"/><circle cx="533.8" cy="354.9" r="2"/><circle cx="542.3" cy="352.3" r="2"/><circle cx="550.8" cy="349.4" r="2"/><circle cx="559.3" cy="345.7" r="2"/><circle cx="567.8" cy="341.5" r="2"/><circle cx="576.3" cy="337.5" r="2"/><circle cx="584.8" cy="333.8" r="2"/><circle cx="593.3" cy="330.1" r="2"/><circle cx="601.8" cy="326.8" r="2"/></g></g><g><path stroke="#34983f" stroke-linecap="round" stroke-linejoin="round" d="M48.8 349.2l8.5 3.8 8.6-9.3 8.5-6.4 8.5 3.1 8.5 4.3 8.5 4.6 8.5-.3 8.5-3.3 8.5.5 8.5 2.6 8.5 12.5 8.5.7 8.5 2.2 8.5-1.8 8.5-6.6L185 342l8.5-21.4 8.5-20.9 8.5-7.3 8.5 4 8.5 11.3 8.5 5.9 8.5 3.4 8.5 7.7 8.5 2.5 8.5-5.8 8.5-2.7 8.5.2 8.6-2.1 8.5-.2 8.5 19.8 8.5 3.6 8.5-7 8.5-13.5 8.5-12.2 8.5-10 8.5-6.7 8.5-2.2 8.5 3 8.5 6.7 8.5 2.2 8.5-2.5 8.6-5.6 8.5-8.3 8.5-.2 8.5 5 8.5 3.8 8.5-.2 8.5-1.1 8.5-.3 8.5 3.3 8.5 5.4 8.5 1.4 8.5-5.4 8.5-10.4 8.6-13.1 8.5-17.3 8.5-20.3 8.5-20.4 8.5-18.9 8.5-16.2 8.5-14.2 8.5-12.8 8.5-12.5 8.5-12.7" fill="none" stroke-width="1.5"/><g fill="#34983f"><circle cx="48.8" cy="349.2" r="2"/><circle cx="57.3" cy="353" r="2"/><circle cx="65.9" cy="343.7" r="2"/><circle cx="74.4" cy="337.3" r="2"/><circle cx="82.9" cy="340.4" r="2"/><circle cx="91.4" cy="344.7" r="2"/><circle cx="99.9" cy="349.3" r="2"/><circle cx="108.4" cy="349" r="2"/><circle cx="116.9" cy="345.7" r="2"/><circle cx="125.4" cy="346.2" r="2"/><circle cx="133.9" cy="348.8" r="2"/><circle cx="142.4" cy="361.3" r="2"/><circle cx="150.9" cy="362" r="2"/><circle cx="159.4" cy="364.2" r="2"/><circle cx="167.9" cy="362.4" r="2"/><circle cx="176.4" cy="355.8" r="2"/><circle cx="185" cy="342" r="2"/><circle cx="193.5" cy="320.6" r="2"/><circle cx="202" cy="299.7" r="2"/><circle cx="210.5" cy="292.4" r="2"/><circle cx="219" cy="296.4" r="2"/><circle cx="227.5" cy="307.7" r="2"/><circle cx="236" cy="313.6" r="2"/><circle cx="244.5" cy="317" r="2"/><circle cx="253" cy="324.7" r="2"/><circle cx="261.5" cy="327.2" r="2"/><circle cx="270" cy="321.4" r="2"/><circle cx="278.5" cy="318.7" r="2"/><circle cx="287" cy="318.9" r="2"/><circle cx="295.6" cy="316.8" r="2"/><circle cx="304.1" cy="316.6" r="2"/><circle cx="312.6" cy="336.4" r="2"/><circle cx="321.1" cy="340" r="2"/><circle cx="329.6" cy="333" r="2"/><circle cx="338.1" cy="319.5" r="2"/><circle cx="346.6" cy="307.3" r="2"/><circle cx="355.1" cy="297.3" r="2"/><circle cx="363.6" cy="290.6" r="2"/><circle cx="372.1" cy="288.4" r="2"/><circle cx="380.6" cy="291.4" r="2"/><circle cx="389.1" cy="298.1" r="2"/><circle cx="397.6" cy="300.3" r="2"/><circle cx="406.1" cy="297.8" r="2"/><circle cx="414.7" cy="292.2" r="2"/><circle cx="423.2" cy="283.9" r="2"/><circle cx="431.7" cy="283.7" r="2"/><circle cx="440.2" cy="288.7" r="2"/><circle cx="448.7" cy="292.5" r="2"/><circle cx="457.2" cy="292.3" r="2"/><circle cx="465.7" cy="291.2" r="2"/><circle cx="474.2" cy="290.9" r="2"/><circle cx="482.7" cy="294.2" r="2"/><circle cx="491.2" cy="299.6" r="2"/><circle cx="499.7" cy="301" r="2"/><circle cx="508.2" cy="295.6" r="2"/><circle cx="516.7" cy="285.2" r="2"/><circle cx="525.3" cy="272.1" r="2"/><circle cx="533.8" cy="254.8" r="2"/><circle cx="542.3" cy="234.5" r="2"/><circle cx="550.8" cy="214.1" r="2"/><circle cx="559.3" cy="195.2" r="2"/><circle cx="567.8" cy="179" r="2"/><circle cx="576.3" cy="164.8" r="2"/><circle cx="584.8" cy="152" r="2"/><circle cx="593.3" cy="139.5" r="2"/><circle cx="601.8" cy="126.8" r="2"/></g></g><g><path stroke="#ca2628" stroke-linecap="round" stroke-linejoin="round" d="M48.8 231l8.5 1.6 8.6 4.6 8.5.2 8.5 6.3 8.5 8.3 8.5 1.6 8.5 7 8.5 1.2 8.5 1.9 8.5.1 8.5 5.6 8.5 2.7 8.5 4.2 8.5 6.3 8.5 3.3 8.6-.3 8.5-.8 8.5 1.6 8.5 3 8.5 15.4 8.5 19.2 8.5 10.3 8.5 2.4 8.5 1 8.5 3.7 8.5 2.1 8.5 2.7 8.5 4 8.6 6.2 8.5 10.8 8.5 2.6 8.5 1.4 8.5-1.1 8.5-3.7 8.5-3.3 8.5-1.9 8.5-2.4 8.5-2.2 8.5 1.5 8.5 7.8 8.5 15.3 8.5 19.2 8.6 15.2 8.5 8.9 8.5 4.5 8.5.1 8.5-1.5 8.5-3.7 8.5-2.2 8.5-.1 8.5-1.2 8.5-.5 8.5-1.5 8.5 1.5 8.5.5 8.6 1 8.5-.2 8.5-.4 8.5-1.9 8.5-1.4 8.5-2.6 8.5-.6 8.5-1.1 8.5 1.3 8.5.5" fill="none" stroke-width="1.5"/><g fill="#ca2628"><circle cx="48.8" cy="231" r="2"/><circle cx="57.3" cy="232.6" r="2"/><circle cx="65.9" cy="237.2" r="2"/><circle cx="74.4" cy="237.4" r="2"/><circle cx="82.9" cy="243.7" r="2"/><circle cx="91.4" cy="252" r="2"/><circle cx="99.9" cy="253.6" r="2"/><circle cx="108.4" cy="260.6" r="2"/><circle cx="116.9" cy="261.8" r="2"/><circle cx="125.4" cy="263.7" r="2"/><circle cx="133.9" cy="263.8" r="2"/><circle cx="142.4" cy="269.4" r="2"/><circle cx="150.9" cy="272.1" r="2"/><circle cx="159.4" cy="276.3" r="2"/><circle cx="167.9" cy="282.6" r="2"/><circle cx="176.4" cy="285.9" r="2"/><circle cx="185" cy="285.6" r="2"/><circle cx="193.5" cy="284.8" r="2"/><circle cx="202" cy="286.4" r="2"/><circle cx="210.5" cy="289.4" r="2"/><circle cx="219" cy="304.8" r="2"/><circle cx="227.5" cy="324" r="2"/><circle cx="236" cy="334.3" r="2"/><circle cx="244.5" cy="336.7" r="2"/><circle cx="253" cy="337.7" r="2"/><circle cx="261.5" cy="341.4" r="2"/><circle cx="270" cy="343.5" r="2"/><circle cx="278.5" cy="346.2" r="2"/><circle cx="287" cy="350.2" r="2"/><circle cx="295.6" cy="356.4" r="2"/><circle cx="304.1" cy="367.2" r="2"/><circle cx="312.6" cy="369.8" r="2"/><circle cx="321.1" cy="371.2" r="2"/><circle cx="329.6" cy="370.1" r="2"/><circle cx="338.1" cy="366.4" r="2"/><circle cx="346.6" cy="363.1" r="2"/><circle cx="355.1" cy="361.2" r="2"/><circle cx="363.6" cy="358.8" r="2"/><circle cx="372.1" cy="356.6" r="2"/><circle cx="380.6" cy="358.1" r="2"/><circle cx="389.1" cy="365.9" r="2"/><circle cx="397.6" cy="381.2" r="2"/><circle cx="406.1" cy="400.4" r="2"/><circle cx="414.7" cy="415.6" r="2"/><circle cx="423.2" cy="424.5" r="2"/><circle cx="431.7" cy="429" r="2"/><circle cx="440.2" cy="429.1" r="2"/><circle cx="448.7" cy="427.6" r="2"/><circle cx="457.2" cy="423.9" r="2"/><circle cx="465.7" cy="421.7" r="2"/><circle cx="474.2" cy="421.6" r="2"/><circle cx="482.7" cy="420.4" r="2"/><circle cx="491.2" cy="419.9" r="2"/><circle cx="499.7" cy="418.4" r="2"/><circle cx="508.2" cy="419.9" r="2"/><circle cx="516.7" cy="420.4" r="2"/><circle cx="525.3" cy="421.4" r="2"/><circle cx="533.8" cy="421.2" r="2"/><circle cx="542.3" cy="420.8" r="2"/><circle cx="550.8" cy="418.9" r="2"/><circle cx="559.3" cy="417.5" r="2"/><circle cx="567.8" cy="414.9" r="2"/><circle cx="576.3" cy="414.3" r="2"/><circle cx="584.8" cy="413.2" r="2"/><circle cx="593.3" cy="414.5" r="2"/><circle cx="601.8" cy="415" r="2"/></g></g><g><path stroke="#ffd53e" stroke-linecap="round" stroke-linejoin="round" d="M48.8 316.1l8.5-1.1 8.6-2.7 8.5-2.8 8.5-.5 8.5 1.8 8.5 2.3 8.5 3.6 8.5 4.8 8.5 5 8.5 4.6 8.5 1.2 8.5.6 8.5 1.3 8.5 2.7 8.5 2.6 8.6 2.6 8.5 2.5 8.5 3 8.5 3.6 8.5 3.2 8.5.6 8.5.5 8.5-.7 8.5-7.3 8.5-1.8 8.5-2.2 8.5-1.3 8.5-1.2 8.6.2 8.5-1.9 8.5-.7 8.5.9 8.5 2.5 8.5 2.8 8.5 2.6 8.5 2.9 8.5 4.3 8.5 4.2 8.5 2.2 8.5 1.7 8.5-1.2 8.5-1.9 8.6-1.3 8.5-.1 8.5-.8 8.5-1.2 8.5-1.1 8.5-1.2 8.5-3.1 8.5-3.5 8.5-1.8 8.5-.5 8.5.8 8.5.9 8.5-.6 8.6-2.5 8.5-3.3 8.5-3.1 8.5-2.9 8.5-4.7 8.5-3.1 8.5-3.5 8.5-4 8.5-4.2 8.5-3.5" fill="none" stroke-width="1.5"/><g fill="#ffd53e"><circle cx="48.8" cy="316.1" r="2"/><circle cx="57.3" cy="315" r="2"/><circle cx="65.9" cy="312.3" r="2"/><circle cx="74.4" cy="309.5" r="2"/><circle cx="82.9" cy="309" r="2"/><circle cx="91.4" cy="310.8" r="2"/><circle cx="99.9" cy="313.1" r="2"/><circle cx="108.4" cy="316.7" r="2"/><circle cx="116.9" cy="321.5" r="2"/><circle cx="125.4" cy="326.5" r="2"/><circle cx="133.9" cy="331.1" r="2"/><circle cx="142.4" cy="332.3" r="2"/><circle cx="150.9" cy="332.9" r="2"/><circle cx="159.4" cy="334.2" r="2"/><circle cx="167.9" cy="336.9" r="2"/><circle cx="176.4" cy="339.5" r="2"/><circle cx="185" cy="342.1" r="2"/><circle cx="193.5" cy="344.6" r="2"/><circle cx="202" cy="347.6" r="2"/><circle cx="210.5" cy="351.2" r="2"/><circle cx="219" cy="354.4" r="2"/><circle cx="227.5" cy="355" r="2"/><circle cx="236" cy="355.5" r="2"/><circle cx="244.5" cy="354.8" r="2"/><circle cx="253" cy="347.5" r="2"/><circle cx="261.5" cy="345.7" r="2"/><circle cx="270" cy="343.5" r="2"/><circle cx="278.5" cy="342.2" r="2"/><circle cx="287" cy="341" r="2"/><circle cx="295.6" cy="341.2" r="2"/><circle cx="304.1" cy="339.3" r="2"/><circle cx="312.6" cy="338.6" r="2"/><circle cx="321.1" cy="339.5" r="2"/><circle cx="329.6" cy="342" r="2"/><circle cx="338.1" cy="344.8" r="2"/><circle cx="346.6" cy="347.4" r="2"/><circle cx="355.1" cy="350.3" r="2"/><circle cx="363.6" cy="354.6" r="2"/><circle cx="372.1" cy="358.8" r="2"/><circle cx="380.6" cy="361" r="2"/><circle cx="389.1" cy="362.7" r="2"/><circle cx="397.6" cy="361.5" r="2"/><circle cx="406.1" cy="359.6" r="2"/><circle cx="414.7" cy="358.3" r="2"/><circle cx="423.2" cy="358.2" r="2"/><circle cx="431.7" cy="357.4" r="2"/><circle cx="440.2" cy="356.2" r="2"/><circle cx="448.7" cy="355.1" r="2"/><circle cx="457.2" cy="353.9" r="2"/><circle cx="465.7" cy="350.8" r="2"/><circle cx="474.2" cy="347.3" r="2"/><circle cx="482.7" cy="345.5" r="2"/><circle cx="491.2" cy="345" r="2"/><circle cx="499.7" cy="345.8" r="2"/><circle cx="508.2" cy="346.7" r="2"/><circle cx="516.7" cy="346.1" r="2"/><circle cx="525.3" cy="343.6" r="2"/><circle cx="533.8" cy="340.3" r="2"/><circle cx="542.3" cy="337.2" r="2"/><circle cx="550.8" cy="334.3" r="2"/><circle cx="559.3" cy="329.6" r="2"/><circle cx="567.8" cy="326.5" r="2"/><circle cx="576.3" cy="323" r="2"/><circle cx="584.8" cy="319" r="2"/><circle cx="593.3" cy="314.8" r="2"/><circle cx="601.8" cy="311.3" r="2"/></g></g><g><path stroke="#3360a9" stroke-linecap="round" stroke-linejoin="round" d="M48.8 394.1l8.5 4.1 8.6-.6 8.5.6 8.5-.7 8.5.8 8.5 2.1 8.5 2 8.5 3 8.5 3.4 8.5 2.1 8.5 2.4 8.5 2.6 8.5-.4 8.5-.5 8.5-.7 8.6-.3 8.5-1 8.5.9 8.5 2 8.5 1.7 8.5 3.5 8.5 1.2h8.5l8.5-.7 8.5-1 8.5-1.7 8.5-.2 8.5-.2 8.6.5 8.5 1.3 8.5 1.2 8.5-1.2 8.5-1.4 8.5-1.1 8.5-1.2 8.5-.8 8.5-1.4 8.5-.6 8.5 1.8 8.5 3.8 8.5 2 8.5 1.3 8.6-.3 8.5.9 8.5 1.5 8.5 1.6 8.5 2.5 8.5 2.5 8.5 1.9 8.5 1.5 8.5.7 8.5-.3 8.5-1.1 8.5-.7 8.5-1.3 8.6-2.2 8.5.7 8.5 2.4 8.5.4 8.5-.4 8.5.9 8.5 2.8 8.5 3.8 8.5 1.7 8.5 1" fill="none" stroke-width="1.5"/><g fill="#3360a9"><circle cx="48.8" cy="394.1" r="2"/><circle cx="57.3" cy="398.2" r="2"/><circle cx="65.9" cy="397.6" r="2"/><circle cx="74.4" cy="398.2" r="2"/><circle cx="82.9" cy="397.5" r="2"/><circle cx="91.4" cy="398.3" r="2"/><circle cx="99.9" cy="400.4" r="2"/><circle cx="108.4" cy="402.4" r="2"/><circle cx="116.9" cy="405.4" r="2"/><circle cx="125.4" cy="408.8" r="2"/><circle cx="133.9" cy="410.9" r="2"/><circle cx="142.4" cy="413.3" r="2"/><circle cx="150.9" cy="415.9" r="2"/><circle cx="159.4" cy="415.5" r="2"/><circle cx="167.9" cy="415" r="2"/><circle cx="176.4" cy="414.3" r="2"/><circle cx="185" cy="414" r="2"/><circle cx="193.5" cy="413" r="2"/><circle cx="202" cy="413.9" r="2"/><circle cx="210.5" cy="415.9" r="2"/><circle cx="219" cy="417.6" r="2"/><circle cx="227.5" cy="421.1" r="2"/><circle cx="236" cy="422.3" r="2"/><circle cx="244.5" cy="422.3" r="2"/><circle cx="253" cy="421.6" r="2"/><circle cx="261.5" cy="420.6" r="2"/><circle cx="270" cy="418.9" r="2"/><circle cx="278.5" cy="418.7" r="2"/><circle cx="287" cy="418.5" r="2"/><circle cx="295.6" cy="419" r="2"/><circle cx="304.1" cy="420.3" r="2"/><circle cx="312.6" cy="421.5" r="2"/><circle cx="321.1" cy="420.3" r="2"/><circle cx="329.6" cy="418.9" r="2"/><circle cx="338.1" cy="417.8" r="2"/><circle cx="346.6" cy="416.6" r="2"/><circle cx="355.1" cy="415.8" r="2"/><circle cx="363.6" cy="414.4" r="2"/><circle cx="372.1" cy="413.8" r="2"/><circle cx="380.6" cy="415.6" r="2"/><circle cx="389.1" cy="419.4" r="2"/><circle cx="397.6" cy="421.4" r="2"/><circle cx="406.1" cy="422.7" r="2"/><circle cx="414.7" cy="422.4" r="2"/><circle cx="423.2" cy="423.3" r="2"/><circle cx="431.7" cy="424.8" r="2"/><circle cx="440.2" cy="426.4" r="2"/><circle cx="448.7" cy="428.9" r="2"/><circle cx="457.2" cy="431.4" r="2"/><circle cx="465.7" cy="433.3" r="2"/><circle cx="474.2" cy="434.8" r="2"/><circle cx="482.7" cy="435.5" r="2"/><circle cx="491.2" cy="435.2" r="2"/><circle cx="499.7" cy="434.1" r="2"/><circle cx="508.2" cy="433.4" r="2"/><circle cx="516.7" cy="432.1" r="2"/><circle cx="525.3" cy="429.9" r="2"/><circle cx="533.8" cy="430.6" r="2"/><circle cx="542.3" cy="433" r="2"/><circle cx="550.8" cy="433.4" r="2"/><circle cx="559.3" cy="433" r="2"/><circle cx="567.8" cy="433.9" r="2"/><circle cx="576.3" cy="436.7" r="2"/><circle cx="584.8" cy="440.5" r="2"/><circle cx="593.3" cy="442.2" r="2"/><circle cx="601.8" cy="443.2" r="2"/></g></g><g><path stroke="#58888f" stroke-linecap="round" stroke-linejoin="round" d="M48.8 526.2l8.5-37.5 8.6-17 8.5-4.5 8.5 2.7 8.5 9.9 8.5 10.3 8.5 13.5 8.5 10.8 8.5-6.5 8.5-38.9 8.5-45.4 8.5-7.3 8.5 22.6 8.5 19.5 8.5 7.2 8.6 3.2 8.5-3.9 8.5-3.6 8.5-.4 8.5-.3 8.5 1.4 8.5-.7 8.5-1.6 8.5-2.3 8.5-7.8 8.5-9.6 8.5-8.2 8.5-8.3 8.6-5.5 8.5-13.2 8.5 1.2 8.5-2.3 8.5-2.3 8.5-6.3 8.5-7 8.5-7.7 8.5-6 8.5-6.2 8.5-6 8.5-2.9 8.5-6.8 8.5-.7 8.6-.7 8.5.8 8.5 2.1 8.5 2.1 8.5 1.2 8.5.6h8.5l8.5-.7 8.5-1.2 8.5-1.8 8.5-1.8 8.5-2.9 8.5-2.9 8.6-2.2 8.5-2.8 8.5-3.4 8.5-3.2 8.5-3.9 8.5-4.1 8.5-4.3 8.5-4.2 8.5-3.9 8.5-2.9" fill="none" stroke-width="1.5"/><g fill="#58888f"><circle cx="48.8" cy="526.2" r="2"/><circle cx="57.3" cy="488.7" r="2"/><circle cx="65.9" cy="471.7" r="2"/><circle cx="74.4" cy="467.2" r="2"/><circle cx="82.9" cy="469.9" r="2"/><circle cx="91.4" cy="479.8" r="2"/><circle cx="99.9" cy="490.1" r="2"/><circle cx="108.4" cy="503.6" r="2"/><circle cx="116.9" cy="514.4" r="2"/><circle cx="125.4" cy="507.9" r="2"/><circle cx="133.9" cy="469" r="2"/><circle cx="142.4" cy="423.6" r="2"/><circle cx="150.9" cy="416.3" r="2"/><circle cx="159.4" cy="438.9" r="2"/><circle cx="167.9" cy="458.4" r="2"/><circle cx="176.4" cy="465.6" r="2"/><circle cx="185" cy="468.8" r="2"/><circle cx="193.5" cy="464.9" r="2"/><circle cx="202" cy="461.3" r="2"/><circle cx="210.5" cy="460.9" r="2"/><circle cx="219" cy="460.6" r="2"/><circle cx="227.5" cy="462" r="2"/><circle cx="236" cy="461.3" r="2"/><circle cx="244.5" cy="459.7" r="2"/><circle cx="253" cy="457.4" r="2"/><circle cx="261.5" cy="449.6" r="2"/><circle cx="270" cy="440" r="2"/><circle cx="278.5" cy="431.8" r="2"/><circle cx="287" cy="423.5" r="2"/><circle cx="295.6" cy="418" r="2"/><circle cx="304.1" cy="404.8" r="2"/><circle cx="312.6" cy="406" r="2"/><circle cx="321.1" cy="403.7" r="2"/><circle cx="329.6" cy="401.4" r="2"/><circle cx="338.1" cy="395.1" r="2"/><circle cx="346.6" cy="388.1" r="2"/><circle cx="355.1" cy="380.4" r="2"/><circle cx="363.6" cy="374.4" r="2"/><circle cx="372.1" cy="368.2" r="2"/><circle cx="380.6" cy="362.2" r="2"/><circle cx="389.1" cy="359.3" r="2"/><circle cx="397.6" cy="352.5" r="2"/><circle cx="406.1" cy="351.8" r="2"/><circle cx="414.7" cy="351.1" r="2"/><circle cx="423.2" cy="351.9" r="2"/><circle cx="431.7" cy="354" r="2"/><circle cx="440.2" cy="356.1" r="2"/><circle cx="448.7" cy="357.3" r="2"/><circle cx="457.2" cy="357.9" r="2"/><circle cx="465.7" cy="357.9" r="2"/><circle cx="474.2" cy="357.2" r="2"/><circle cx="482.7" cy="356" r="2"/><circle cx="491.2" cy="354.2" r="2"/><circle cx="499.7" cy="352.4" r="2"/><circle cx="508.2" cy="349.5" r="2"/><circle cx="516.7" cy="346.6" r="2"/><circle cx="525.3" cy="344.4" r="2"/><circle cx="533.8" cy="341.6" r="2"/><circle cx="542.3" cy="338.2" r="2"/><circle cx="550.8" cy="335" r="2"/><circle cx="559.3" cy="331.1" r="2"/><circle cx="567.8" cy="327" r="2"/><circle cx="576.3" cy="322.7" r="2"/><circle cx="584.8" cy="318.5" r="2"/><circle cx="593.3" cy="314.6" r="2"/><circle cx="601.8" cy="311.7" r="2"/></g></g><g><path stroke="#a652ba" stroke-linecap="round" stroke-linejoin="round" d="M48.8 421.4l8.5 2.5 8.6 1.8 8.5.1 8.5-.1 8.5 1.6 8.5.5 8.5-.5 8.5-1.1 8.5-1.3 8.5-1.1 8.5-4.5 8.5-6.2 8.5 1 8.5.3 8.5 1.4 8.6 1.8 8.5 2.1 8.5 1.4 8.5.7 8.5-6.1 8.5-1.4 8.5-3.3 8.5-1.7 8.5-1.5 8.5-5.1 8.5-.4 8.5 1.6 8.5.6 8.6 2.4 8.5 1.1 8.5 10.8 8.5 9.6 8.5 3.1 8.5-14.3 8.5-1.9 8.5-1.7 8.5-5.6 8.5-5.3 8.5-5.4 8.5-3.1 8.5-.9 8.5-4.8 8.6-5.3 8.5-16.5 8.5-5.9 8.5-2.7 8.5-4.2 8.5-3.8 8.5-2.1 8.5-2.2 8.5-1.1 8.5.6 8.5 1 8.5.5 8.5-1 8.6-1.5 8.5-1.4 8.5-1.9 8.5-2.9 8.5-4.8 8.5-7.3 8.5-7.4 8.5-6.2 8.5-6.5 8.5-6.8" fill="none" stroke-width="1.5"/><g fill="#a652ba"><circle cx="48.8" cy="421.4" r="2"/><circle cx="57.3" cy="423.9" r="2"/><circle cx="65.9" cy="425.7" r="2"/><circle cx="74.4" cy="425.8" r="2"/><circle cx="82.9" cy="425.7" r="2"/><circle cx="91.4" cy="427.3" r="2"/><circle cx="99.9" cy="427.8" r="2"/><circle cx="108.4" cy="427.3" r="2"/><circle cx="116.9" cy="426.2" r="2"/><circle cx="125.4" cy="424.9" r="2"/><circle cx="133.9" cy="423.8" r="2"/><circle cx="142.4" cy="419.3" r="2"/><circle cx="150.9" cy="413.1" r="2"/><circle cx="159.4" cy="414.1" r="2"/><circle cx="167.9" cy="414.4" r="2"/><circle cx="176.4" cy="415.8" r="2"/><circle cx="185" cy="417.6" r="2"/><circle cx="193.5" cy="419.7" r="2"/><circle cx="202" cy="421.1" r="2"/><circle cx="210.5" cy="421.8" r="2"/><circle cx="219" cy="415.7" r="2"/><circle cx="227.5" cy="414.3" r="2"/><circle cx="236" cy="411" r="2"/><circle cx="244.5" cy="409.3" r="2"/><circle cx="253" cy="407.8" r="2"/><circle cx="261.5" cy="402.7" r="2"/><circle cx="270" cy="402.3" r="2"/><circle cx="278.5" cy="403.9" r="2"/><circle cx="287" cy="404.5" r="2"/><circle cx="295.6" cy="406.9" r="2"/><circle cx="304.1" cy="408" r="2"/><circle cx="312.6" cy="418.8" r="2"/><circle cx="321.1" cy="428.4" r="2"/><circle cx="329.6" cy="431.5" r="2"/><circle cx="338.1" cy="417.2" r="2"/><circle cx="346.6" cy="415.3" r="2"/><circle cx="355.1" cy="413.6" r="2"/><circle cx="363.6" cy="408" r="2"/><circle cx="372.1" cy="402.7" r="2"/><circle cx="380.6" cy="397.3" r="2"/><circle cx="389.1" cy="394.2" r="2"/><circle cx="397.6" cy="393.3" r="2"/><circle cx="406.1" cy="388.5" r="2"/><circle cx="414.7" cy="383.2" r="2"/><circle cx="423.2" cy="366.7" r="2"/><circle cx="431.7" cy="360.8" r="2"/><circle cx="440.2" cy="358.1" r="2"/><circle cx="448.7" cy="353.9" r="2"/><circle cx="457.2" cy="350.1" r="2"/><circle cx="465.7" cy="348" r="2"/><circle cx="474.2" cy="345.8" r="2"/><circle cx="482.7" cy="344.7" r="2"/><circle cx="491.2" cy="345.3" r="2"/><circle cx="499.7" cy="346.3" r="2"/><circle cx="508.2" cy="346.8" r="2"/><circle cx="516.7" cy="345.8" r="2"/><circle cx="525.3" cy="344.3" r="2"/><circle cx="533.8" cy="342.9" r="2"/><circle cx="542.3" cy="341" r="2"/><circle cx="550.8" cy="338.1" r="2"/><circle cx="559.3" cy="333.3" r="2"/><circle cx="567.8" cy="326" r="2"/><circle cx="576.3" cy="318.6" r="2"/><circle cx="584.8" cy="312.4" r="2"/><circle cx="593.3" cy="305.9" r="2"/><circle cx="601.8" cy="299.1" r="2"/></g></g></g></g></g><g class="SourcesFooter" fill="#777"><g fill="#777"><text font-size="12.6" x="15" y="582.5"><tspan x="15" y="582.48">Source: Differences in population estimates, OWID based on UN vs US Census Bureau</tspan></text></g><text font-size="12.6" x="796.4" y="582.5"><tspan x="796.44" y="582.48"><a class="cclogo" href="http://creativecommons.org/licenses/by/4.0/deed.en_US" target="_blank" fill="#777">CC BY</a></tspan></text></g></svg>