<svg xmlns="http://www.w3.org/2000/svg" version="1.1" style="font-family:Lato,'Helvetica Neue',Helvetica,Arial,sans-serif;font-size:18px;background-color:#fff;text-rendering:geometricPrecision;-webkit-font-smoothing:antialiased" width="850" height="600" viewBox="0 0 850 600"><g class="HeaderView"><g transform="matrix(.29 0 0 .29 774 15)"><svg className="owidLog" width="210" height="120" viewBox="0 0 210 120" fill="none" xmlns="http://www.w3.org/2000/svg"><g clip-path="url(#a)"><path d="M0 0h210v107.89H0V0z" fill="#002147"/><path d="M40.98 32.25c0 2.36-.38 4.53-1.12 6.51a14.26 14.26 0 0 1-8.1 8.4c-1.9.78-4.02 1.17-6.34 1.17a16.6 16.6 0 0 1-6.33-1.17 14.31 14.31 0 0 1-8.08-8.4 18.29 18.29 0 0 1-1.12-6.51c0-2.36.38-4.53 1.12-6.5.75-1.97 1.8-3.67 3.17-5.1a14.32 14.32 0 0 1 4.9-3.34c1.92-.8 4.03-1.19 6.34-1.19 2.32 0 4.43.4 6.34 1.19 1.92.8 3.56 1.9 4.93 3.34a14.87 14.87 0 0 1 3.17 5.1 18.1 18.1 0 0 1 1.12 6.5zm-4.38 0c0-1.94-.26-3.68-.8-5.22a10.91 10.91 0 0 0-2.24-3.89 9.68 9.68 0 0 0-3.52-2.46 11.95 11.95 0 0 0-4.62-.86c-1.68 0-3.21.28-4.6.86a9.88 9.88 0 0 0-3.54 2.46 10.91 10.91 0 0 0-2.24 3.9c-.53 1.53-.8 3.27-.8 5.2 0 1.94.27 3.68.8 5.22a11.17 11.17 0 0 0 2.24 3.9 10.01 10.01 0 0 0 3.55 2.44c1.38.56 2.9.83 4.6.83s3.24-.27 4.61-.83a9.8 9.8 0 0 0 3.52-2.44 11.17 11.17 0 0 0 2.25-3.9c.53-1.54.8-3.28.8-5.21zm26.22-6.54V48H60.5c-.56 0-.9-.27-1.05-.81l-.31-2.4a12.45 12.45 0 0 1-3.26 2.6c-1.2.64-2.58.96-4.13.96-1.22 0-2.3-.2-3.24-.6a6.52 6.52 0 0 1-2.33-1.7 7.37 7.37 0 0 1-1.43-2.67c-.3-1.04-.46-2.2-.46-3.45V25.7h3.91v14.22c0 1.68.38 2.99 1.15 3.91.77.93 1.96 1.39 3.54 1.39 1.16 0 2.24-.27 3.23-.82a10.42 10.42 0 0 0 2.8-2.28V25.7h3.91zm8.61 4.47a9.94 9.94 0 0 1 2.6-3.56 5.64 5.64 0 0 1 3.76-1.3c.47 0 .92.05 1.34.15.44.1.83.27 1.17.49l-.3 2.92c-.09.37-.3.55-.66.55-.2 0-.5-.04-.9-.13a6.21 6.21 0 0 0-3.24.18 4.23 4.23 0 0 0-1.47.92c-.42.4-.81.9-1.17 1.5-.33.58-.64 1.26-.92 2.02V48H67.7V25.71h2.25c.42 0 .72.08.88.25.16.16.27.44.33.83l.26 3.39zm61.16-13.7L122.75 48h-3.82l-7.99-24.05a21.95 21.95 0 0 1-.42-1.58 38.36 38.36 0 0 1-.44 1.58L102.05 48h-3.83L88.4 16.47h3.54c.38 0 .7.1.95.29.26.2.43.43.5.73l6.52 21.9.28 1.28.29 1.46.3-1.46.38-1.27 7.41-21.91c.1-.25.26-.48.51-.69.27-.22.58-.33.95-.33h1.23c.38 0 .69.1.92.29a1.77 1.77 0 0 1 .53.73l7.4 21.9a28.4 28.4 0 0 1 .68 2.62 29.52 29.52 0 0 1 .52-2.61l6.54-21.91a1.31 1.31 0 0 1 .48-.7c.27-.21.58-.32.95-.32h3.32zm9.35 8.88c1.63 0 3.1.27 4.4.82a9.43 9.43 0 0 1 5.46 5.94c.5 1.4.74 2.98.74 4.73 0 1.76-.25 3.34-.74 4.75a9.43 9.43 0 0 1-5.46 5.92c-1.3.52-2.77.79-4.4.79-1.64 0-3.12-.27-4.44-.8a9.42 9.42 0 0 1-3.35-2.3c-.92-1-1.63-2.2-2.13-3.61-.49-1.41-.73-3-.73-4.75s.24-3.33.73-4.73c.5-1.43 1.2-2.64 2.13-3.63a9.4 9.4 0 0 1 3.35-2.31c1.32-.55 2.8-.82 4.44-.82zm0 19.89c2.2 0 3.84-.73 4.93-2.2 1.08-1.48 1.63-3.54 1.63-6.18 0-2.66-.55-4.72-1.63-6.2-1.09-1.49-2.73-2.23-4.93-2.23-1.12 0-2.09.2-2.93.57a5.71 5.71 0 0 0-2.06 1.65 7.5 7.5 0 0 0-1.24 2.67c-.26 1.04-.4 2.22-.4 3.54 0 2.64.55 4.7 1.64 6.18 1.1 1.47 2.76 2.2 4.99 2.2zm17.97-15.07a9.94 9.94 0 0 1 2.6-3.56 5.64 5.64 0 0 1 3.76-1.3c.47 0 .91.05 1.34.15.44.1.83.27 1.16.49l-.28 2.92c-.09.37-.31.55-.66.55-.2 0-.5-.04-.9-.13a6.2 6.2 0 0 0-3.24.18 4.23 4.23 0 0 0-1.47.92c-.43.4-.82.9-1.17 1.5a13.1 13.1 0 0 0-.92 2.02V48h-3.94V25.71h2.24c.43 0 .72.08.88.25.17.16.28.44.33.83l.27 3.39zm15.04-14.59V48h-3.92V15.6h3.92zm19.55 15.43a6.22 6.22 0 0 0-2.38-2.05 6.7 6.7 0 0 0-2.86-.6c-2.07 0-3.66.75-4.77 2.23-1.12 1.48-1.68 3.6-1.68 6.33 0 1.46.13 2.7.38 3.74a7.29 7.29 0 0 0 1.1 2.56 4.35 4.35 0 0 0 1.78 1.45c.7.3 1.5.46 2.4.46 1.29 0 2.41-.3 3.36-.88a9.6 9.6 0 0 0 2.67-2.49V31.02zm3.91-15.43V48h-2.33c-.56 0-.9-.27-1.06-.81l-.35-2.71a12.13 12.13 0 0 1-3.25 2.77 8.28 8.28 0 0 1-4.23 1.06 7.31 7.31 0 0 1-6.14-2.9c-.73-.96-1.3-2.15-1.69-3.57a18.35 18.35 0 0 1 .07-9.48 11.29 11.29 0 0 1 1.89-3.7 8.7 8.7 0 0 1 7.06-3.34 7.96 7.96 0 0 1 6.12 2.62V15.59h3.91zM46.61 70.71V93H42.7V70.71h3.91zm.84-7c0 .39-.08.75-.24 1.09a2.81 2.81 0 0 1-1.52 1.47 2.67 2.67 0 0 1-2.16 0 2.9 2.9 0 0 1-1.45-1.47 2.67 2.67 0 0 1 0-2.16c.15-.35.35-.65.6-.9.25-.27.53-.47.85-.62a2.67 2.67 0 0 1 2.16 0c.35.15.65.35.9.62.27.25.47.55.62.9.16.34.24.7.24 1.08zm7.97 10.24c.49-.54 1-1.04 1.54-1.48a9.85 9.85 0 0 1 3.66-1.84 8.96 8.96 0 0 1 5.43.35c.94.4 1.72.97 2.33 1.71a7.36 7.36 0 0 1 1.43 2.67c.32 1.04.49 2.19.49 3.45V93h-3.94V78.81c0-1.69-.4-3-1.17-3.92-.76-.93-1.93-1.4-3.5-1.4a6.6 6.6 0 0 0-3.25.83c-1 .56-1.92 1.31-2.77 2.27V93h-3.94V70.71h2.35c.56 0 .9.28 1.04.82l.3 2.42zm57.7 3.3c0 2.36-.37 4.5-1.11 6.44a14.3 14.3 0 0 1-3.17 4.98 14.1 14.1 0 0 1-4.93 3.2c-1.9.76-4.02 1.13-6.33 1.13H85.8V61.47h11.77c2.31 0 4.42.39 6.33 1.15a13.8 13.8 0 0 1 8.1 8.18 17.75 17.75 0 0 1 1.12 6.45zm-4.37 0c0-1.94-.26-3.67-.8-5.2a10.94 10.94 0 0 0-2.23-3.87 9.57 9.57 0 0 0-3.53-2.42 12.23 12.23 0 0 0-4.61-.83h-7.5v24.62h7.5c1.7 0 3.24-.28 4.61-.84a9.7 9.7 0 0 0 3.53-2.4 10.94 10.94 0 0 0 2.24-3.87c.53-1.53.8-3.26.8-5.2zm19.8 5.72c-1.8.06-3.34.2-4.62.44-1.26.22-2.3.51-3.1.88-.8.36-1.37.8-1.74 1.3-.35.5-.53 1.05-.53 1.67 0 .58.1 1.1.3 1.52a3 3 0 0 0 .76 1.05c.34.27.73.46 1.17.6a6.13 6.13 0 0 0 1.45.17 7.28 7.28 0 0 0 3.5-.81 11.95 11.95 0 0 0 2.82-2.2v-4.62zm-12.65-9.11a12.73 12.73 0 0 1 3.98-2.66c1.43-.59 3-.88 4.73-.88 1.25 0 2.36.2 3.33.61a6.81 6.81 0 0 1 3.94 4.38c.33 1.04.5 2.19.5 3.43V93h-1.74a1.8 1.8 0 0 1-.88-.18c-.2-.13-.36-.38-.48-.74l-.44-2.12-1.72 1.46a9.48 9.48 0 0 1-3.74 1.7c-.69.15-1.46.23-2.3.23-.87 0-1.69-.12-2.45-.35a5.34 5.34 0 0 1-3.34-2.93 6.64 6.64 0 0 1-.49-2.64c0-.88.25-1.72.73-2.53a6.33 6.33 0 0 1 2.35-2.17c1.09-.63 2.5-1.15 4.25-1.54 1.75-.41 3.89-.65 6.42-.7v-1.75c0-1.73-.37-3.03-1.12-3.91-.75-.9-1.84-1.34-3.28-1.34-.97 0-1.78.12-2.44.37-.64.23-1.2.5-1.7.81l-1.23.82c-.33.23-.67.35-1 .35-.27 0-.5-.07-.69-.2a2.1 2.1 0 0 1-.48-.53l-.7-1.25zm27.67 19.5c-1.76 0-3.12-.5-4.07-1.48-.94-.98-1.41-2.4-1.41-4.25V74h-2.68a.9.9 0 0 1-.6-.2c-.16-.14-.24-.36-.24-.66v-1.56l3.65-.46.9-6.89a.9.9 0 0 1 .29-.52.88.88 0 0 1 .62-.22H142v7.67h6.44V74H142v13.38c0 .94.22 1.63.68 2.09.45.45 1.04.68 1.76.68a3.21 3.21 0 0 0 1.85-.53l.55-.35c.16-.12.3-.18.41-.18.2 0 .4.13.55.38l1.15 1.87a7.45 7.45 0 0 1-2.44 1.5 8.53 8.53 0 0 1-2.95.52zm19.68-10.4c-1.8.07-3.34.21-4.62.45-1.26.22-2.3.51-3.1.88-.8.36-1.37.8-1.74 1.3-.35.5-.53 1.05-.53 1.67 0 .58.1 1.1.3 1.52a2.9 2.9 0 0 0 .76 1.05c.34.27.73.46 1.17.6a6.13 6.13 0 0 0 1.45.17 7.3 7.3 0 0 0 3.5-.81 12.04 12.04 0 0 0 2.82-2.2v-4.62zm-12.65-9.1a12.72 12.72 0 0 1 3.99-2.66c1.42-.59 3-.88 4.72-.88 1.25 0 2.36.2 3.33.61a6.81 6.81 0 0 1 3.94 4.38c.33 1.04.5 2.19.5 3.43V93h-1.74a1.8 1.8 0 0 1-.88-.18c-.2-.13-.36-.38-.48-.74l-.44-2.12-1.72 1.46a9.48 9.48 0 0 1-3.74 1.7c-.69.15-1.46.23-2.3.23-.87 0-1.69-.12-2.45-.35a5.33 5.33 0 0 1-3.34-2.93 6.62 6.62 0 0 1-.49-2.64c0-.88.25-1.72.73-2.53a6.33 6.33 0 0 1 2.35-2.17c1.09-.63 2.5-1.15 4.25-1.54a31.2 31.2 0 0 1 6.42-.7v-1.75c0-1.73-.37-3.03-1.12-3.91-.75-.9-1.84-1.34-3.28-1.34-.97 0-1.78.12-2.44.37-.64.23-1.2.5-1.7.81l-1.22.82c-.34.23-.68.35-1.02.35-.26 0-.49-.07-.68-.2a1.88 1.88 0 0 1-.48-.53l-.7-1.25zM40.98 32.25c0 2.36-.38 4.53-1.12 6.51a14.26 14.26 0 0 1-8.1 8.4c-1.9.78-4.02 1.17-6.34 1.17a16.6 16.6 0 0 1-6.33-1.17 14.31 14.31 0 0 1-8.08-8.4 18.29 18.29 0 0 1-1.12-6.51c0-2.36.38-4.53 1.12-6.5.75-1.97 1.8-3.67 3.17-5.1a14.32 14.32 0 0 1 4.9-3.34c1.92-.8 4.03-1.19 6.34-1.19 2.32 0 4.43.4 6.34 1.19 1.92.8 3.56 1.9 4.93 3.34a14.87 14.87 0 0 1 3.17 5.1 18.1 18.1 0 0 1 1.12 6.5zm-4.38 0c0-1.94-.26-3.68-.8-5.22a10.91 10.91 0 0 0-2.24-3.89 9.68 9.68 0 0 0-3.52-2.46 11.95 11.95 0 0 0-4.62-.86c-1.68 0-3.21.28-4.6.86a9.88 9.88 0 0 0-3.54 2.46 10.91 10.91 0 0 0-2.24 3.9c-.53 1.53-.8 3.27-.8 5.2 0 1.94.27 3.68.8 5.22a11.17 11.17 0 0 0 2.24 3.9 10.01 10.01 0 0 0 3.55 2.44c1.38.56 2.9.83 4.6.83s3.24-.27 4.61-.83a9.8 9.8 0 0 0 3.52-2.44 11.17 11.17 0 0 0 2.25-3.9c.53-1.54.8-3.28.8-5.21zm26.22-6.54V48H60.5c-.56 0-.9-.27-1.05-.81l-.31-2.4a12.45 12.45 0 0 1-3.26 2.6c-1.2.64-2.58.96-4.13.96-1.22 0-2.3-.2-3.24-.6a6.52 6.52 0 0 1-2.33-1.7 7.37 7.37 0 0 1-1.43-2.67c-.3-1.04-.46-2.2-.46-3.45V25.7h3.91v14.22c0 1.68.38 2.99 1.15 3.91.77.93 1.96 1.39 3.54 1.39 1.16 0 2.24-.27 3.23-.82a10.42 10.42 0 0 0 2.8-2.28V25.7h3.91zm8.61 4.47a9.94 9.94 0 0 1 2.6-3.56 5.64 5.64 0 0 1 3.76-1.3c.47 0 .92.05 1.34.15.44.1.83.27 1.17.49l-.3 2.92c-.09.37-.3.55-.66.55-.2 0-.5-.04-.9-.13a6.21 6.21 0 0 0-3.24.18 4.23 4.23 0 0 0-1.47.92c-.42.4-.81.9-1.17 1.5-.33.58-.64 1.26-.92 2.02V48H67.7V25.71h2.25c.42 0 .72.08.88.25.16.16.27.44.33.83l.26 3.39zm61.16-13.7L122.75 48h-3.82l-7.99-24.05a21.95 21.95 0 0 1-.42-1.58 38.36 38.36 0 0 1-.44 1.58L102.05 48h-3.83L88.4 16.47h3.54c.38 0 .7.1.95.29.26.2.43.43.5.73l6.52 21.9.28 1.28.29 1.46.3-1.46.38-1.27 7.41-21.91c.1-.25.26-.48.51-.69.27-.22.58-.33.95-.33h1.23c.38 0 .69.1.92.29a1.77 1.77 0 0 1 .53.73l7.4 21.9a28.4 28.4 0 0 1 .68 2.62 29.52 29.52 0 0 1 .52-2.61l6.54-21.91a1.31 1.31 0 0 1 .48-.7c.27-.21.58-.32.95-.32h3.32zm9.35 8.88c1.63 0 3.1.27 4.4.82a9.43 9.43 0 0 1 5.46 5.94c.5 1.4.74 2.98.74 4.73 0 1.76-.25 3.34-.74 4.75a9.43 9.43 0 0 1-5.46 5.92c-1.3.52-2.77.79-4.4.79-1.64 0-3.12-.27-4.44-.8a9.42 9.42 0 0 1-3.35-2.3c-.92-1-1.63-2.2-2.13-3.61-.49-1.41-.73-3-.73-4.75s.24-3.33.73-4.73c.5-1.43 1.2-2.64 2.13-3.63a9.4 9.4 0 0 1 3.35-2.31c1.32-.55 2.8-.82 4.44-.82zm0 19.89c2.2 0 3.84-.73 4.93-2.2 1.08-1.48 1.63-3.54 1.63-6.18 0-2.66-.55-4.72-1.63-6.2-1.09-1.49-2.73-2.23-4.93-2.23-1.12 0-2.09.2-2.93.57a5.71 5.71 0 0 0-2.06 1.65 7.5 7.5 0 0 0-1.24 2.67c-.26 1.04-.4 2.22-.4 3.54 0 2.64.55 4.7 1.64 6.18 1.1 1.47 2.76 2.2 4.99 2.2zm17.97-15.07a9.94 9.94 0 0 1 2.6-3.56 5.64 5.64 0 0 1 3.76-1.3c.47 0 .91.05 1.34.15.44.1.83.27 1.16.49l-.28 2.92c-.09.37-.31.55-.66.55-.2 0-.5-.04-.9-.13a6.2 6.2 0 0 0-3.24.18 4.23 4.23 0 0 0-1.47.92c-.43.4-.82.9-1.17 1.5a13.1 13.1 0 0 0-.92 2.02V48h-3.94V25.71h2.24c.43 0 .72.08.88.25.17.16.28.44.33.83l.27 3.39zm15.04-14.59V48h-3.92V15.6h3.92zm19.55 15.43a6.22 6.22 0 0 0-2.38-2.05 6.7 6.7 0 0 0-2.86-.6c-2.07 0-3.66.75-4.77 2.23-1.12 1.48-1.68 3.6-1.68 6.33 0 1.46.13 2.7.38 3.74a7.29 7.29 0 0 0 1.1 2.56 4.35 4.35 0 0 0 1.78 1.45c.7.3 1.5.46 2.4.46 1.29 0 2.41-.3 3.36-.88a9.6 9.6 0 0 0 2.67-2.49V31.02zm3.91-15.43V48h-2.33c-.56 0-.9-.27-1.06-.81l-.35-2.71a12.13 12.13 0 0 1-3.25 2.77 8.28 8.28 0 0 1-4.23 1.06 7.31 7.31 0 0 1-6.14-2.9c-.73-.96-1.3-2.15-1.69-3.57a18.35 18.35 0 0 1 .07-9.48 11.29 11.29 0 0 1 1.89-3.7 8.7 8.7 0 0 1 7.06-3.34 7.96 7.96 0 0 1 6.12 2.62V15.59h3.91zM46.61 70.71V93H42.7V70.71h3.91zm.84-7c0 .39-.08.75-.24 1.09a2.81 2.81 0 0 1-1.52 1.47 2.67 2.67 0 0 1-2.16 0 2.9 2.9 0 0 1-1.45-1.47 2.67 2.67 0 0 1 0-2.16c.15-.35.35-.65.6-.9.25-.27.53-.47.85-.62a2.67 2.67 0 0 1 2.16 0c.35.15.65.35.9.62.27.25.47.55.62.9.16.34.24.7.24 1.08zm7.97 10.24c.49-.54 1-1.04 1.54-1.48a9.85 9.85 0 0 1 3.66-1.84 8.96 8.96 0 0 1 5.43.35c.94.4 1.72.97 2.33 1.71a7.36 7.36 0 0 1 1.43 2.67c.32 1.04.49 2.19.49 3.45V93h-3.94V78.81c0-1.69-.4-3-1.17-3.92-.76-.93-1.93-1.4-3.5-1.4a6.6 6.6 0 0 0-3.25.83c-1 .56-1.92 1.31-2.77 2.27V93h-3.94V70.71h2.35c.56 0 .9.28 1.04.82l.3 2.42zm57.7 3.3c0 2.36-.37 4.5-1.11 6.44a14.3 14.3 0 0 1-3.17 4.98 14.1 14.1 0 0 1-4.93 3.2c-1.9.76-4.02 1.13-6.33 1.13H85.8V61.47h11.77c2.31 0 4.42.39 6.33 1.15a13.8 13.8 0 0 1 8.1 8.18 17.75 17.75 0 0 1 1.12 6.45zm-4.37 0c0-1.94-.26-3.67-.8-5.2a10.94 10.94 0 0 0-2.23-3.87 9.57 9.57 0 0 0-3.53-2.42 12.23 12.23 0 0 0-4.61-.83h-7.5v24.62h7.5c1.7 0 3.24-.28 4.61-.84a9.7 9.7 0 0 0 3.53-2.4 10.94 10.94 0 0 0 2.24-3.87c.53-1.53.8-3.26.8-5.2zm19.8 5.72c-1.8.06-3.34.2-4.62.44-1.26.22-2.3.51-3.1.88-.8.36-1.37.8-1.74 1.3-.35.5-.53 1.05-.53 1.67 0 .58.1 1.1.3 1.52a3 3 0 0 0 .76 1.05c.34.27.73.46 1.17.6a6.13 6.13 0 0 0 1.45.17 7.28 7.28 0 0 0 3.5-.81 11.95 11.95 0 0 0 2.82-2.2v-4.62zm-12.65-9.11a12.73 12.73 0 0 1 3.98-2.66c1.43-.59 3-.88 4.73-.88 1.25 0 2.36.2 3.33.61a6.81 6.81 0 0 1 3.94 4.38c.33 1.04.5 2.19.5 3.43V93h-1.74a1.8 1.8 0 0 1-.88-.18c-.2-.13-.36-.38-.48-.74l-.44-2.12-1.72 1.46a9.48 9.48 0 0 1-3.74 1.7c-.69.15-1.46.23-2.3.23-.87 0-1.69-.12-2.45-.35a5.34 5.34 0 0 1-3.34-2.93 6.64 6.64 0 0 1-.49-2.64c0-.88.25-1.72.73-2.53a6.33 6.33 0 0 1 2.35-2.17c1.09-.63 2.5-1.15 4.25-1.54 1.75-.41 3.89-.65 6.42-.7v-1.75c0-1.73-.37-3.03-1.12-3.91-.75-.9-1.84-1.34-3.28-1.34-.97 0-1.78.12-2.44.37-.64.23-1.2.5-1.7.81l-1.23.82c-.33.23-.67.35-1 .35-.27 0-.5-.07-.69-.2a2.1 2.1 0 0 1-.48-.53l-.7-1.25zm27.67 19.5c-1.76 0-3.12-.5-4.07-1.48-.94-.98-1.41-2.4-1.41-4.25V74h-2.68a.9.9 0 0 1-.6-.2c-.16-.14-.24-.36-.24-.66v-1.56l3.65-.46.9-6.89a.9.9 0 0 1 .29-.52.88.88 0 0 1 .62-.22H142v7.67h6.44V74H142v13.38c0 .94.22 1.63.68 2.09.45.45 1.04.68 1.76.68a3.21 3.21 0 0 0 1.85-.53l.55-.35c.16-.12.3-.18.41-.18.2 0 .4.13.55.38l1.15 1.87a7.45 7.45 0 0 1-2.44 1.5 8.53 8.53 0 0 1-2.95.52zm19.68-10.4c-1.8.07-3.34.21-4.62.45-1.26.22-2.3.51-3.1.88-.8.36-1.37.8-1.74 1.3-.35.5-.53 1.05-.53 1.67 0 .58.1 1.1.3 1.52a2.9 2.9 0 0 0 .76 1.05c.34.27.73.46 1.17.6a6.13 6.13 0 0 0 1.45.17 7.3 7.3 0 0 0 3.5-.81 12.04 12.04 0 0 0 2.82-2.2v-4.62zm-12.65-9.1a12.72 12.72 0 0 1 3.99-2.66c1.42-.59 3-.88 4.72-.88 1.25 0 2.36.2 3.33.61a6.81 6.81 0 0 1 3.94 4.38c.33 1.04.5 2.19.5 3.43V93h-1.74a1.8 1.8 0 0 1-.88-.18c-.2-.13-.36-.38-.48-.74l-.44-2.12-1.72 1.46a9.48 9.48 0 0 1-3.74 1.7c-.69.15-1.46.23-2.3.23-.87 0-1.69-.12-2.45-.35a5.33 5.33 0 0 1-3.34-2.93 6.62 6.62 0 0 1-.49-2.64c0-.88.25-1.72.73-2.53a6.33 6.33 0 0 1 2.35-2.17c1.09-.63 2.5-1.15 4.25-1.54a31.2 31.2 0 0 1 6.42-.7v-1.75c0-1.73-.37-3.03-1.12-3.91-.75-.9-1.84-1.34-3.28-1.34-.97 0-1.78.12-2.44.37-.64.23-1.2.5-1.7.81l-1.22.82c-.34.23-.68.35-1.02.35-.26 0-.49-.07-.68-.2a1.88 1.88 0 0 1-.48-.53l-.7-1.25zM40.98 32.25c0 2.36-.38 4.53-1.12 6.51a14.26 14.26 0 0 1-8.1 8.4c-1.9.78-4.02 1.17-6.34 1.17a16.6 16.6 0 0 1-6.33-1.17 14.31 14.31 0 0 1-8.08-8.4 18.29 18.29 0 0 1-1.12-6.51c0-2.36.38-4.53 1.12-6.5.75-1.97 1.8-3.67 3.17-5.1a14.32 14.32 0 0 1 4.9-3.34c1.92-.8 4.03-1.19 6.34-1.19 2.32 0 4.43.4 6.34 1.19 1.92.8 3.56 1.9 4.93 3.34a14.87 14.87 0 0 1 3.17 5.1 18.1 18.1 0 0 1 1.12 6.5zm-4.38 0c0-1.94-.26-3.68-.8-5.22a10.91 10.91 0 0 0-2.24-3.89 9.68 9.68 0 0 0-3.52-2.46 11.95 11.95 0 0 0-4.62-.86c-1.68 0-3.21.28-4.6.86a9.88 9.88 0 0 0-3.54 2.46 10.91 10.91 0 0 0-2.24 3.9c-.53 1.53-.8 3.27-.8 5.2 0 1.94.27 3.68.8 5.22a11.17 11.17 0 0 0 2.24 3.9 10.01 10.01 0 0 0 3.55 2.44c1.38.56 2.9.83 4.6.83s3.24-.27 4.61-.83a9.8 9.8 0 0 0 3.52-2.44 11.17 11.17 0 0 0 2.25-3.9c.53-1.54.8-3.28.8-5.21zm26.22-6.54V48H60.5c-.56 0-.9-.27-1.05-.81l-.31-2.4a12.45 12.45 0 0 1-3.26 2.6c-1.2.64-2.58.96-4.13.96-1.22 0-2.3-.2-3.24-.6a6.52 6.52 0 0 1-2.33-1.7 7.37 7.37 0 0 1-1.43-2.67c-.3-1.04-.46-2.2-.46-3.45V25.7h3.91v14.22c0 1.68.38 2.99 1.15 3.91.77.93 1.96 1.39 3.54 1.39 1.16 0 2.24-.27 3.23-.82a10.42 10.42 0 0 0 2.8-2.28V25.7h3.91zm8.61 4.47a9.94 9.94 0 0 1 2.6-3.56 5.64 5.64 0 0 1 3.76-1.3c.47 0 .92.05 1.34.15.44.1.83.27 1.17.49l-.3 2.92c-.09.37-.3.55-.66.55-.2 0-.5-.04-.9-.13a6.21 6.21 0 0 0-3.24.18 4.23 4.23 0 0 0-1.47.92c-.42.4-.81.9-1.17 1.5-.33.58-.64 1.26-.92 2.02V48H67.7V25.71h2.25c.42 0 .72.08.88.25.16.16.27.44.33.83l.26 3.39zm61.16-13.7L122.75 48h-3.82l-7.99-24.05a21.95 21.95 0 0 1-.42-1.58 38.36 38.36 0 0 1-.44 1.58L102.05 48h-3.83L88.4 16.47h3.54c.38 0 .7.1.95.29.26.2.43.43.5.73l6.52 21.9.28 1.28.29 1.46.3-1.46.38-1.27 7.41-21.91c.1-.25.26-.48.51-.69.27-.22.58-.33.95-.33h1.23c.38 0 .69.1.92.29a1.77 1.77 0 0 1 .53.73l7.4 21.9a28.4 28.4 0 0 1 .68 2.62 29.52 29.52 0 0 1 .52-2.61l6.54-21.91a1.31 1.31 0 0 1 .48-.7c.27-.21.58-.32.95-.32h3.32zm9.35 8.88c1.63 0 3.1.27 4.4.82a9.43 9.43 0 0 1 5.46 5.94c.5 1.4.74 2.98.74 4.73 0 1.76-.25 3.34-.74 4.75a9.43 9.43 0 0 1-5.46 5.92c-1.3.52-2.77.79-4.4.79-1.64 0-3.12-.27-4.44-.8a9.42 9.42 0 0 1-3.35-2.3c-.92-1-1.63-2.2-2.13-3.61-.49-1.41-.73-3-.73-4.75s.24-3.33.73-4.73c.5-1.43 1.2-2.64 2.13-3.63a9.4 9.4 0 0 1 3.35-2.31c1.32-.55 2.8-.82 4.44-.82zm0 19.89c2.2 0 3.84-.73 4.93-2.2 1.08-1.48 1.63-3.54 1.63-6.18 0-2.66-.55-4.72-1.63-6.2-1.09-1.49-2.73-2.23-4.93-2.23-1.12 0-2.09.2-2.93.57a5.71 5.71 0 0 0-2.06 1.65 7.5 7.5 0 0 0-1.24 2.67c-.26 1.04-.4 2.22-.4 3.54 0 2.64.55 4.7 1.64 6.18 1.1 1.47 2.76 2.2 4.99 2.2zm17.97-15.07a9.94 9.94 0 0 1 2.6-3.56 5.64 5.64 0 0 1 3.76-1.3c.47 0 .91.05 1.34.15.44.1.83.27 1.16.49l-.28 2.92c-.09.37-.31.55-.66.55-.2 0-.5-.04-.9-.13a6.2 6.2 0 0 0-3.24.18 4.23 4.23 0 0 0-1.47.92c-.43.4-.82.9-1.17 1.5a13.1 13.1 0 0 0-.92 2.02V48h-3.94V25.71h2.24c.43 0 .72.08.88.25.17.16.28.44.33.83l.27 3.39zm15.04-14.59V48h-3.92V15.6h3.92zm19.55 15.43a6.22 6.22 0 0 0-2.38-2.05 6.7 6.7 0 0 0-2.86-.6c-2.07 0-3.66.75-4.77 2.23-1.12 1.48-1.68 3.6-1.68 6.33 0 1.46.13 2.7.38 3.74a7.29 7.29 0 0 0 1.1 2.56 4.35 4.35 0 0 0 1.78 1.45c.7.3 1.5.46 2.4.46 1.29 0 2.41-.3 3.36-.88a9.6 9.6 0 0 0 2.67-2.49V31.02zm3.91-15.43V48h-2.33c-.56 0-.9-.27-1.06-.81l-.35-2.71a12.13 12.13 0 0 1-3.25 2.77 8.28 8.28 0 0 1-4.23 1.06 7.31 7.31 0 0 1-6.14-2.9c-.73-.96-1.3-2.15-1.69-3.57a18.35 18.35 0 0 1 .07-9.48 11.29 11.29 0 0 1 1.89-3.7 8.7 8.7 0 0 1 7.06-3.34 7.96 7.96 0 0 1 6.12 2.62V15.59h3.91zM46.61 70.71V93H42.7V70.71h3.91zm.84-7c0 .39-.08.75-.24 1.09a2.81 2.81 0 0 1-1.52 1.47 2.67 2.67 0 0 1-2.16 0 2.9 2.9 0 0 1-1.45-1.47 2.67 2.67 0 0 1 0-2.16c.15-.35.35-.65.6-.9.25-.27.53-.47.85-.62a2.67 2.67 0 0 1 2.16 0c.35.15.65.35.9.62.27.25.47.55.62.9.16.34.24.7.24 1.08zm7.97 10.24c.49-.54 1-1.04 1.54-1.48a9.85 9.85 0 0 1 3.66-1.84 8.96 8.96 0 0 1 5.43.35c.94.4 1.72.97 2.33 1.71a7.36 7.36 0 0 1 1.43 2.67c.32 1.04.49 2.19.49 3.45V93h-3.94V78.81c0-1.69-.4-3-1.17-3.92-.76-.93-1.93-1.4-3.5-1.4a6.6 6.6 0 0 0-3.25.83c-1 .56-1.92 1.31-2.77 2.27V93h-3.94V70.71h2.35c.56 0 .9.28 1.04.82l.3 2.42zm57.7 3.3c0 2.36-.37 4.5-1.11 6.44a14.3 14.3 0 0 1-3.17 4.98 14.1 14.1 0 0 1-4.93 3.2c-1.9.76-4.02 1.13-6.33 1.13H85.8V61.47h11.77c2.31 0 4.42.39 6.33 1.15a13.8 13.8 0 0 1 8.1 8.18 17.75 17.75 0 0 1 1.12 6.45zm-4.37 0c0-1.94-.26-3.67-.8-5.2a10.94 10.94 0 0 0-2.23-3.87 9.57 9.57 0 0 0-3.53-2.42 12.23 12.23 0 0 0-4.61-.83h-7.5v24.62h7.5c1.7 0 3.24-.28 4.61-.84a9.7 9.7 0 0 0 3.53-2.4 10.94 10.94 0 0 0 2.24-3.87c.53-1.53.8-3.26.8-5.2zm19.8 5.72c-1.8.06-3.34.2-4.62.44-1.26.22-2.3.51-3.1.88-.8.36-1.37.8-1.74 1.3-.35.5-.53 1.05-.53 1.67 0 .58.1 1.1.3 1.52a3 3 0 0 0 .76 1.05c.34.27.73.46 1.17.6a6.13 6.13 0 0 0 1.45.17 7.28 7.28 0 0 0 3.5-.81 11.95 11.95 0 0 0 2.82-2.2v-4.62zm-12.65-9.11a12.73 12.73 0 0 1 3.98-2.66c1.43-.59 3-.88 4.73-.88 1.25 0 2.36.2 3.33.61a6.81 6.81 0 0 1 3.94 4.38c.33 1.04.5 2.19.5 3.43V93h-1.74a1.8 1.8 0 0 1-.88-.18c-.2-.13-.36-.38-.48-.74l-.44-2.12-1.72 1.46a9.48 9.48 0 0 1-3.74 1.7c-.69.15-1.46.23-2.3.23-.87 0-1.69-.12-2.45-.35a5.34 5.34 0 0 1-3.34-2.93 6.64 6.64 0 0 1-.49-2.64c0-.88.25-1.72.73-2.53a6.33 6.33 0 0 1 2.35-2.17c1.09-.63 2.5-1.15 4.25-1.54 1.75-.41 3.89-.65 6.42-.7v-1.75c0-1.73-.37-3.03-1.12-3.91-.75-.9-1.84-1.34-3.28-1.34-.97 0-1.78.12-2.44.37-.64.23-1.2.5-1.7.81l-1.23.82c-.33.23-.67.35-1 .35-.27 0-.5-.07-.69-.2a2.1 2.1 0 0 1-.48-.53l-.7-1.25zm27.67 19.5c-1.76 0-3.12-.5-4.07-1.48-.94-.98-1.41-2.4-1.41-4.25V74h-2.68a.9.9 0 0 1-.6-.2c-.16-.14-.24-.36-.24-.66v-1.56l3.65-.46.9-6.89a.9.9 0 0 1 .29-.52.88.88 0 0 1 .62-.22H142v7.67h6.44V74H142v13.38c0 .94.22 1.63.68 2.09.45.45 1.04.68 1.76.68a3.21 3.21 0 0 0 1.85-.53l.55-.35c.16-.12.3-.18.41-.18.2 0 .4.13.55.38l1.15 1.87a7.45 7.45 0 0 1-2.44 1.5 8.53 8.53 0 0 1-2.95.52zm19.68-10.4c-1.8.07-3.34.21-4.62.45-1.26.22-2.3.51-3.1.88-.8.36-1.37.8-1.74 1.3-.35.5-.53 1.05-.53 1.67 0 .58.1 1.1.3 1.52a2.9 2.9 0 0 0 .76 1.05c.34.27.73.46 1.17.6a6.13 6.13 0 0 0 1.45.17 7.3 7.3 0 0 0 3.5-.81 12.04 12.04 0 0 0 2.82-2.2v-4.62zm-12.65-9.1a12.72 12.72 0 0 1 3.99-2.66c1.42-.59 3-.88 4.72-.88 1.25 0 2.36.2 3.33.61a6.81 6.81 0 0 1 3.94 4.38c.33 1.04.5 2.19.5 3.43V93h-1.74a1.8 1.8 0 0 1-.88-.18c-.2-.13-.36-.38-.48-.74l-.44-2.12-1.72 1.46a9.48 9.48 0 0 1-3.74 1.7c-.69.15-1.46.23-2.3.23-.87 0-1.69-.12-2.45-.35a5.33 5.33 0 0 1-3.34-2.93 6.62 6.62 0 0 1-.49-2.64c0-.88.25-1.72.73-2.53a6.33 6.33 0 0 1 2.35-2.17c1.09-.63 2.5-1.15 4.25-1.54a31.2 31.2 0 0 1 6.42-.7v-1.75c0-1.73-.37-3.03-1.12-3.91-.75-.9-1.84-1.34-3.28-1.34-.97 0-1.78.12-2.44.37-.64.23-1.2.5-1.7.81l-1.22.82c-.34.23-.68.35-1.02.35-.26 0-.49-.07-.68-.2a1.88 1.88 0 0 1-.48-.53l-.7-1.25z" fill="#fff"/><path fill="#D42B21" d="M0 106.79h210V120H0z"/></g><defs><clipPath id="a"><path fill="#fff" d="M0 0h210v120H0z"/></clipPath></defs></svg></g><a href="https://ourworldindata.org/grapher/secondary-mathematics-learning-outcomes-for-males-and-females" style="font-family:&quot;Playfair Display&quot;,Georgia,&quot;Times New Roman&quot;,serif" target="_blank" rel="noopener"><text font-size="21.6" x="15" y="32.3" fill="#555"><tspan x="15" y="32.28">Secondary mathematics learning outcomes for males &amp; females, 2000 to</tspan><tspan x="15" y="53.88">2015</tspan></text></a><text font-size="14.4" x="15" y="74.7" fill="#666"><tspan x="15" y="74.72">Average mathematics scores across standardized, psychometrically robust international and regional achievement tests. </tspan></text></g><g class="ScatterPlot"><g class="DualAxisView"><g class="HorizontalAxis"><text font-size="12.6" x="247.9" y="530.3"><tspan x="247.85" y="530.28">Secondary-level maths HLO score, female</tspan></text><text x="138.1" y="510.2" fill="#666" text-anchor="middle" font-size="16.2">300</text><text x="227.1" y="510.2" fill="#666" text-anchor="middle" font-size="16.2">350</text><text x="316.1" y="510.2" fill="#666" text-anchor="middle" font-size="16.2">400</text><text x="405.2" y="510.2" fill="#666" text-anchor="middle" font-size="16.2">450</text><text x="494.2" y="510.2" fill="#666" text-anchor="middle" font-size="16.2">500</text><text x="583.2" y="510.2" fill="#666" text-anchor="middle" font-size="16.2">550</text><text x="672.2" y="510.2" fill="#666" text-anchor="middle" font-size="16.2">600</text></g><g class="VerticalAxis"><text font-size="12.6" x="-427.6" y="25.1" transform="rotate(-90)"><tspan x="-427.6" y="25.08">Secondary-level maths HLO score, male</tspan></text><text x="64.82" y="450" dy=".32em" text-anchor="end" fill="#666" font-size="16.2">300</text><text x="64.82" y="395.5" dy=".32em" text-anchor="end" fill="#666" font-size="16.2">350</text><text x="64.82" y="341" dy=".32em" text-anchor="end" fill="#666" font-size="16.2">400</text><text x="64.82" y="286.4" dy=".32em" text-anchor="end" fill="#666" font-size="16.2">450</text><text x="64.82" y="231.9" dy=".32em" text-anchor="end" fill="#666" font-size="16.2">500</text><text x="64.82" y="177.4" dy=".32em" text-anchor="end" fill="#666" font-size="16.2">550</text><text x="64.82" y="122.8" dy=".32em" text-anchor="end" fill="#666" font-size="16.2">600</text></g><g class="AxisGridLines horizontalLines" stroke="#ddd" stroke-dasharray="3,2"><path d="M69.82 450h648.27M69.82 395.5h648.27M69.82 341h648.27M69.82 286.4h648.27M69.82 231.9h648.27M69.82 177.4h648.27M69.82 122.8h648.27"/></g><g class="AxisGridLines verticalLines" stroke="#ddd" stroke-dasharray="3,2"><path d="M138.1 489V95.6M227.1 489V95.6M316.1 489V95.6M405.2 489V95.6M494.2 489V95.6M583.2 489V95.6M672.2 489V95.6"/></g></g><g class="PointsWithLabels clickable" clip-path="url(#b)" font-family="Arial, sans-serif"><path fill="rgba(255,255,255,0)" d="M69.82 95.6H718.1V489H69.82z"/><defs><clipPath id="b"><path d="M59.82 85.6H728.1V499H59.82z"/></clipPath></defs><g class="key-China"><circle cx="692" cy="111" r="1.7" fill="#2D8587" opacity=".7"/><path stroke-width="1.42" opacity=".7" stroke="#2D8587" fill="none" stroke-linecap="butt" d="m692 111 15-16-133 82"/><path cx="574" cy="177" r="2.62" fill="#2D8587" opacity=".7" d="m577.6 177.86-5.83.52 3.09-4.99z"/></g><g class="key-India"><circle cx="284" cy="363" r="2.04" fill="#2D8587" opacity=".8" stroke="#333" stroke-width=".5"/></g><g class="key-United-States"><circle cx="511" cy="214" r="1.3" fill="#E04E4B" opacity=".7"/><path stroke-width=".84" opacity=".7" stroke="#E04E4B" fill="none" stroke-linecap="butt" d="m511 214-14 10-18 8 27-12-16-7 18 6-15 8 32-16"/><path cx="525" cy="211" r="2.04" fill="#E04E4B" opacity=".7" d="M522.26 210.09h4.56l-2.73 3.65z"/></g><g class="key-Indonesia"><circle cx="306" cy="341" r="1.3" fill="#2D8587" opacity=".7"/><path stroke-width=".79" opacity=".7" stroke="#2D8587" fill="none" stroke-linecap="butt" d="m306 341 30-12v-18l-22 35 5-6-17 23 18-30 24-7"/><path cx="344" cy="326" r="1.99" fill="#2D8587" opacity=".7" d="m341.53 324.65 4.38.8-3.26 3.02z"/></g><g class="key-Brazil"><circle cx="237" cy="362" r="1.3" fill="#932834" opacity=".7"/><path stroke-width=".74" opacity=".7" stroke="#932834" fill="none" stroke-linecap="butt" d="m237 362 43-16 21-15 29-14 36 11-51-2"/><path cx="315" cy="326" r="1.94" fill="#932834" opacity=".7" d="m316.86 328.01-3.8-2.09 3.95-1.78z"/></g><g class="key-Russia"><circle cx="494" cy="233" r="1.2" fill="#4C5C78" opacity=".7"/><path stroke-width=".67" opacity=".7" stroke="#4C5C78" fill="none" stroke-linecap="butt" d="m494 233 17-9-27 8 35-11-46 21 90-53-63 40 53-44"/><path cx="553" cy="185" r="1.87" fill="#4C5C78" opacity=".7" d="m550.37 184.76 4.07-.95-1.68 3.82z"/></g><g class="key-Japan"><circle cx="613" cy="150" r="1.2" fill="#2D8587" opacity=".7"/><path stroke-width=".65" opacity=".7" stroke="#2D8587" fill="none" stroke-linecap="butt" d="m613 150 3 4-67 24 65-25-47 24 44-26-39 15 78-28"/><path cx="650" cy="138" r="1.85" fill="#2D8587" opacity=".7" d="m647.63 136.88 4.11.5-2.86 2.99z"/></g><g class="key-Mexico"><circle cx="335" cy="318" r="1.2" fill="#E04E4B" opacity=".7"/><path stroke-width=".65" opacity=".7" stroke="#E04E4B" fill="none" stroke-linecap="butt" d="m335 318-3 2 35-20 17-15-9 5-3 9"/><path cx="372" cy="299" r="1.85" fill="#E04E4B" opacity=".7" d="m374.34 297.83-2.93 2.93-.58-4.1z"/></g><g class="key-Vietnam"><circle cx="539" cy="194" r="1.2" fill="#2D8587" opacity=".7"/><path stroke-width=".61" opacity=".7" stroke="#2D8587" fill="none" stroke-linecap="butt" d="m539 194-18 24"/><path cx="521" cy="218" r="1.81" fill="#2D8587" opacity=".7" d="m523.53 217.64-3.62 1.8.73-3.97z"/></g><g class="key-Egypt"><circle cx="328" cy="334" r="1.2" fill="#923E8B" opacity=".7"/><path stroke-width=".61" opacity=".7" stroke="#923E8B" fill="none" stroke-linecap="butt" d="m328 334-17 24-1-4"/><path cx="310" cy="354" r="1.81" fill="#923E8B" opacity=".7" d="m308.68 356.2.88-3.96 2.63 3.08z"/></g><g class="key-Philippines"><circle cx="285" cy="373" r="1.29" fill="#2D8587" opacity=".8" stroke="#333" stroke-width=".5"/></g><g class="key-Germany"><circle cx="500" cy="213" r="1.2" fill="#4C5C78" opacity=".7"/><path stroke-width=".59" opacity=".7" stroke="#4C5C78" fill="none" stroke-linecap="butt" d="m500 213 26-10-9-6 19-7h3l-15 7"/><path cx="524" cy="197" r="1.79" fill="#4C5C78" opacity=".7" d="m526.38 197.87-4-.11 2.49-3.14z"/></g><g class="key-Turkey"><circle cx="389" cy="280" r="1.2" fill="#2D8587" opacity=".7"/><path stroke-width=".58" opacity=".7" stroke="#2D8587" fill="none" stroke-linecap="butt" d="m389 280 9 4-25 22 57-46-13 28 19-29-12 22"/><path cx="424" cy="281" r="1.78" fill="#2D8587" opacity=".7" d="m426.42 280.29-3.27 2.27.14-3.98z"/></g><g class="key-Iran"><circle cx="346" cy="332" r="1.2" fill="#2D8587" opacity=".7"/><path stroke-width=".58" opacity=".7" stroke="#2D8587" fill="none" stroke-linecap="butt" d="m346 332-18 8 8-19 47-19"/><path cx="383" cy="302" r="1.78" fill="#2D8587" opacity=".7" d="m380.68 301.02 3.97.31-2.63 2.99z"/></g><g class="key-Thailand"><circle cx="422" cy="282" r="1.2" fill="#2D8587" opacity=".7"/><path stroke-width=".57" opacity=".7" stroke="#2D8587" fill="none" stroke-linecap="butt" d="m422 282-27 14 2 1 13 11-18-18-14 31 40-30-32 26"/><path cx="386" cy="317" r="1.77" fill="#2D8587" opacity=".7" d="m388.49 317.26-3.86.86 1.63-3.61z"/></g><g class="key-United-Kingdom"><circle cx="570" cy="176" r="1.2" fill="#4C5C78" opacity=".7"/><path stroke-width=".56" opacity=".7" stroke="#4C5C78" fill="none" stroke-linecap="butt" d="m570 176-34 23-29 8-8 1 9 2-2 2"/><path cx="506" cy="212" r="1.76" fill="#4C5C78" opacity=".7" d="m508.49 212-3.73 1.24 1.24-3.73z"/></g><g class="key-France"><circle cx="545" cy="186" r="1.2" fill="#4C5C78" opacity=".7"/><path stroke-width=".56" opacity=".7" stroke="#4C5C78" fill="none" stroke-linecap="butt" d="m545 186-6 9-24 17-5-6 3 5-2 4"/><path cx="511" cy="215" r="1.76" fill="#4C5C78" opacity=".7" d="m513.36 214.21-3.15 2.36v-3.93z"/></g><g class="key-Italy"><circle cx="452" cy="248" r="1.2" fill="#4C5C78" opacity=".7"/><path stroke-width=".56" opacity=".7" stroke="#4C5C78" fill="none" stroke-linecap="butt" d="m452 248 7-2-7-5v10l36-30-7 7 7-12-10 18"/><path cx="478" cy="234" r="1.76" fill="#4C5C78" opacity=".7" d="m480.4 233.32-3.25 2.22.17-3.93z"/></g><g class="key-South-Africa"><circle cx="69" cy="489" r="1.1" fill="#923E8B" opacity=".7"/><path stroke-width=".55" opacity=".7" stroke="#923E8B" fill="none" stroke-linecap="butt" d="m69 489 164-94 40-20"/><path cx="273" cy="375" r="1.75" fill="#923E8B" opacity=".7" d="M270.65 374.22h3.92l-2.35 3.13z"/></g><g class="key-South-Korea"><circle cx="580" cy="152" r="1.1" fill="#2D8587" opacity=".7"/><path stroke-width=".54" opacity=".7" stroke="#2D8587" fill="none" stroke-linecap="butt" d="m580 152 67-21-50 28 66-36-63 40 89-58-89 44 81-34"/><path cx="681" cy="115" r="1.74" fill="#2D8587" opacity=".7" d="m678.72 114.07 3.88.26-2.53 2.95z"/></g><g class="key-Colombia"><circle cx="299" cy="329" r="1.1" fill="#932834" opacity=".7"/><path stroke-width=".53" opacity=".7" stroke="#932834" fill="none" stroke-linecap="butt" d="m299 329-47 16 56-32-1 8 32-6"/><path cx="339" cy="315" r="1.73" fill="#932834" opacity=".7" d="m336.98 313.62 3.72 1.06-3.08 2.34z"/></g><g class="key-Spain"><circle cx="477" cy="224" r="1.1" fill="#4C5C78" opacity=".7"/><path stroke-width=".53" opacity=".7" stroke="#4C5C78" fill="none" stroke-linecap="butt" d="m477 224 19-3-8 5-3-8h3l4-1"/><path cx="492" cy="217" r="1.73" fill="#4C5C78" opacity=".7" d="m489.9 215.74 3.78.84-2.94 2.52z"/></g><g class="key-Ukraine"><circle cx="431" cy="276" r="1.1" fill="#4C5C78" opacity=".7"/><path stroke-width=".53" opacity=".7" stroke="#4C5C78" fill="none" stroke-linecap="butt" d="m431 276 23-24"/><path cx="454" cy="252" r="1.73" fill="#4C5C78" opacity=".7" d="m451.55 252.05 3.65-1.3-1.15 3.7z"/></g><g class="key-Argentina"><circle cx="346" cy="325" r="1.1" fill="#932834" opacity=".7"/><path stroke-width=".52" opacity=".7" stroke="#932834" fill="none" stroke-linecap="butt" d="m346 325-22-3 13-5-2-2"/><path cx="335" cy="315" r="1.72" fill="#932834" opacity=".7" d="m335 317.43-1.22-3.65 3.65 1.22z"/></g><g class="key-Algeria"><circle cx="287" cy="352" r="1.1" fill="#923E8B" opacity=".7"/><path stroke-width=".52" opacity=".7" stroke="#923E8B" fill="none" stroke-linecap="butt" d="m287 352 17 2"/><path cx="304" cy="354" r="1.72" fill="#923E8B" opacity=".7" d="m302.5 352.1 3.2 2.1-3.6 1.3z"/></g><g class="key-Poland"><circle cx="475" cy="238" r="1.1" fill="#4C5C78" opacity=".7"/><path stroke-width=".51" opacity=".7" stroke="#4C5C78" fill="none" stroke-linecap="butt" d="m475 238 32-20 6-7 3 3 37-23-28 10"/><path cx="525" cy="201" r="1.71" fill="#4C5C78" opacity=".7" d="m527.19 202.04-3.8-.46 2.65-2.77z"/></g><g class="key-Canada"><circle cx="574" cy="172" r="1.1" fill="#E04E4B" opacity=".7"/><path stroke-width=".51" opacity=".7" stroke="#E04E4B" fill="none" stroke-linecap="butt" d="m574 172 2-2-16 7 2 1-13 10-11 11"/><path cx="538" cy="199" r="1.71" fill="#E04E4B" opacity=".7" d="m540.42 199-3.63 1.2 1.21-3.62z"/></g><g class="key-Morocco"><circle cx="283" cy="348" r="1.1" fill="#923E8B" opacity=".7"/><path stroke-width=".51" opacity=".7" stroke="#923E8B" fill="none" stroke-linecap="butt" d="m283 348-8 8-11 16 26-14"/><path cx="290" cy="358" r="1.71" fill="#923E8B" opacity=".7" d="m287.68 357.3 3.83-.11-2.2 3.13z"/></g><g class="key-Saudi-Arabia"><circle cx="184" cy="410" r="1.1" fill="#2D8587" opacity=".7"/><path stroke-width=".5" opacity=".7" stroke="#2D8587" fill="none" stroke-linecap="butt" d="m184 410 27 19 107-74-47 29"/><path cx="271" cy="384" r="1.7" fill="#2D8587" opacity=".7" d="m273.34 384.55-3.79.34 2-3.23z"/></g><g class="key-Peru"><circle cx="177" cy="409" r="1.1" fill="#932834" opacity=".7"/><path stroke-width=".5" opacity=".7" stroke="#932834" fill="none" stroke-linecap="butt" d="m177 409 116-72 5-4 37-14"/><path cx="335" cy="319" r="1.7" fill="#932834" opacity=".7" d="m332.8 318.01 3.79.39-2.58 2.8z"/></g><g class="key-Malaysia"><circle cx="515" cy="227" r="1.1" fill="#2D8587" opacity=".7"/><path stroke-width=".5" opacity=".7" stroke="#2D8587" fill="none" stroke-linecap="butt" d="m515 227-59 39-82 42 29-1 1-13 36-20"/><path cx="440" cy="274" r="1.7" fill="#2D8587" opacity=".7" d="m437.69 273.34 3.8-.17-2.15 3.14z"/></g><g class="key-Venezuela"><circle cx="347" cy="305" r="1.19" fill="#932834" opacity=".8" stroke="#666" stroke-width=".5"/></g><g class="key-Ghana"><circle cx="78" cy="468" r="1.1" fill="#923E8B" opacity=".7"/><path stroke-width=".49" opacity=".7" stroke="#923E8B" fill="none" stroke-linecap="butt" d="m78 468 55-40 38-24"/><path cx="171" cy="404" r="1.69" fill="#923E8B" opacity=".7" d="m168.67 403.47 3.76-.37-1.96 3.23z"/></g><g class="key-Australia"><circle cx="572" cy="171" r="1.1" fill="#A8633C" opacity=".7"/><path stroke-width=".48" opacity=".7" stroke="#A8633C" fill="none" stroke-linecap="butt" d="m572 171-81 48 57-35-75 43 70-36-49 30 30-20-23 24"/><path cx="501" cy="225" r="1.68" fill="#A8633C" opacity=".7" d="m503.38 224.95-3.54 1.26 1.1-3.59z"/></g><g class="key-Taiwan"><circle cx="652" cy="142" r="1.1" fill="#2D8587" opacity=".7"/><path stroke-width=".48" opacity=".7" stroke="#2D8587" fill="none" stroke-linecap="butt" d="m652 142-55 13 72-30-75 40 100-49-73 32 49-25"/><path cx="670" cy="123" r="1.68" fill="#2D8587" opacity=".7" d="m667.74 122.27 3.76-.03-2.23 3.02z"/></g><g class="key-Syria"><circle cx="230" cy="389" r="1.1" fill="#2D8587" opacity=".7"/><path stroke-width=".48" opacity=".7" stroke="#2D8587" fill="none" stroke-linecap="butt" d="m230 389 63-52-22 19"/><path cx="271" cy="356" r="1.68" fill="#2D8587" opacity=".7" d="m273.37 356.17-3.64.93 1.44-3.47z"/></g><g class="key-Romania"><circle cx="414" cy="291" r="1.1" fill="#4C5C78" opacity=".7"/><path stroke-width=".47" opacity=".7" stroke="#4C5C78" fill="none" stroke-linecap="butt" d="m414 291 39-30-70 31 58-9-35-1 23 1 5-19 2 2"/><path cx="436" cy="266" r="1.67" fill="#4C5C78" opacity=".7" d="m436 263.64 1.18 3.54-3.54-1.18z"/></g><g class="key-Chile"><circle cx="332" cy="323" r="1.1" fill="#932834" opacity=".7"/><path stroke-width=".47" opacity=".7" stroke="#932834" fill="none" stroke-linecap="butt" d="m332 323-54 24 81-61 23-7-49 35 49-39-34 26"/><path cx="348" cy="301" r="1.67" fill="#932834" opacity=".7" d="m350.34 301.31-3.67.7 1.64-3.35z"/></g><g class="key-Kazakhstan"><circle cx="373" cy="306" r="1.1" fill="#2D8587" opacity=".7"/><path stroke-width=".47" opacity=".7" stroke="#2D8587" fill="none" stroke-linecap="butt" d="m373 306 96-61-53 34 133-74"/><path cx="549" cy="205" r="1.67" fill="#2D8587" opacity=".7" d="m546.73 204.35 3.73-.16-2.1 3.08z"/></g><g class="key-Netherlands"><circle cx="623" cy="142" r="1.1" fill="#4C5C78" opacity=".7"/><path stroke-width=".47" opacity=".7" stroke="#4C5C78" fill="none" stroke-linecap="butt" d="m623 142-70 46 14-14-11 2 1 7-11 14"/><path cx="546" cy="197" r="1.67" fill="#4C5C78" opacity=".7" d="m548.34 196.72-3.37 1.6.75-3.66z"/></g><g class="key-Belgium"><circle cx="556" cy="187" r="1.1" fill="#4C5C78" opacity=".7"/><path stroke-width=".45" opacity=".7" stroke="#4C5C78" fill="none" stroke-linecap="butt" d="m556 187 13-9-14 9-21-2 8 6-15 6"/><path cx="527" cy="197" r="1.65" fill="#4C5C78" opacity=".7" d="m529.14 197.92-3.67-.3 2.45-2.76z"/></g><g class="key-Tunisia"><circle cx="314" cy="315" r="1.1" fill="#923E8B" opacity=".7"/><path stroke-width=".45" opacity=".7" stroke="#923E8B" fill="none" stroke-linecap="butt" d="m314 315-18 22 38-31-25 27 37-29-13 11-27 25"/><path cx="306" cy="340" r="1.65" fill="#923E8B" opacity=".7" d="m308.33 340.09-3.54 1.03 1.3-3.45z"/></g><g class="key-Greece"><circle cx="437" cy="260" r="1.1" fill="#4C5C78" opacity=".7"/><path stroke-width=".45" opacity=".7" stroke="#4C5C78" fill="none" stroke-linecap="butt" d="m437 260-14-4 34-7 4-12-17 17 8 3"/><path cx="452" cy="257" r="1.65" fill="#4C5C78" opacity=".7" d="m451.03 254.88 2.51 2.7-3.66.39z"/></g><g class="key-Czechia"><circle cx="515" cy="207" r="1.1" fill="#4C5C78" opacity=".7"/><path stroke-width=".45" opacity=".7" stroke="#4C5C78" fill="none" stroke-linecap="butt" d="m515 207 27-20-8 9-31 33 9-13 4-10-7 9"/><path cx="509" cy="215" r="1.65" fill="#4C5C78" opacity=".7" d="m511.32 214.71-3.33 1.6.72-3.63z"/></g><g class="key-Portugal"><circle cx="439" cy="246" r="1.1" fill="#4C5C78" opacity=".7"/><path stroke-width=".45" opacity=".7" stroke="#4C5C78" fill="none" stroke-linecap="butt" d="m439 246 24-8-2-1 36-19 9-4"/><path cx="506" cy="214" r="1.65" fill="#4C5C78" opacity=".7" d="m503.82 213.16 3.69.17-2.35 2.85z"/></g><g class="key-Dominican-Republic"><circle cx="250" cy="385" r="1.15" fill="#E04E4B" opacity=".8" stroke="#666" stroke-width=".5"/></g><g class="key-Hungary"><circle cx="503" cy="219" r="1.1" fill="#4C5C78" opacity=".7"/><path stroke-width=".44" opacity=".7" stroke="#4C5C78" fill="none" stroke-linecap="butt" d="m503 219 37-23-36 19 19-2-21 2-5 8-14 6 28-18"/><path cx="511" cy="211" r="1.64" fill="#4C5C78" opacity=".7" d="m508.73 210.5 3.65-.39-1.87 3.16z"/></g><g class="key-Sweden"><circle cx="539" cy="197" r="1.1" fill="#4C5C78" opacity=".7"/><path stroke-width=".44" opacity=".7" stroke="#4C5C78" fill="none" stroke-linecap="butt" d="m539 197-48 35 36-26-45 37 38-26-51 34 25-17-5-7"/><path cx="489" cy="227" r="1.64" fill="#4C5C78" opacity=".7" d="m488.62 229.29-.57-3.62 3.24 1.71z"/></g><g class="key-Jordan"><circle cx="384" cy="328" r="1.1" fill="#2D8587" opacity=".7"/><path stroke-width=".44" opacity=".7" stroke="#2D8587" fill="none" stroke-linecap="butt" d="m384 328-40 2 39-8-40 2 9 25 6-14-51 32"/><path cx="307" cy="367" r="1.64" fill="#2D8587" opacity=".7" d="m309.26 367.52-3.65.35 1.9-3.13z"/></g><g class="key-United-Arab-Emirates"><circle cx="404" cy="293" r="1.1" fill="#2D8587" opacity=".7"/><path stroke-width=".44" opacity=".7" stroke="#2D8587" fill="none" stroke-linecap="butt" d="m404 293 26-4-6-10 18-2"/><path cx="442" cy="277" r="1.64" fill="#2D8587" opacity=".7" d="m440.19 275.55 3.44 1.27-3.08 2z"/></g><g class="key-Serbia"><circle cx="458" cy="260" r="1.1" fill="#4C5C78" opacity=".7"/><path stroke-width=".44" opacity=".7" stroke="#4C5C78" fill="none" stroke-linecap="butt" d="m458 260-40 13 56-23-50 12 13-5"/><path cx="437" cy="257" r="1.64" fill="#4C5C78" opacity=".7" d="m434.88 256.06 3.65.35-2.47 2.7z"/></g><g class="key-Azerbaijan"><circle cx="490" cy="235" r="1.1" fill="#2D8587" opacity=".7"/><path stroke-width=".44" opacity=".7" stroke="#2D8587" fill="none" stroke-linecap="butt" d="m490 235-82 41"/><path cx="408" cy="276" r="1.64" fill="#2D8587" opacity=".7" d="M410.2 276.73h-3.67l2.2-2.93z"/></g><g class="key-Austria"><circle cx="533" cy="181" r="1.1" fill="#4C5C78" opacity=".7"/><path stroke-width=".44" opacity=".7" stroke="#4C5C78" fill="none" stroke-linecap="butt" d="m533 181-2 20-13-7-12 11 13-11-19 7"/><path cx="500" cy="201" r="1.64" fill="#4C5C78" opacity=".7" d="m502.1 201.97-3.64-.4 2.51-2.68z"/></g><g class="key-Honduras"><circle cx="187" cy="394" r="1.14" fill="#E04E4B" opacity=".8" stroke="#666" stroke-width=".5"/></g><g class="key-Switzerland"><circle cx="565" cy="174" r="1.1" fill="#4C5C78" opacity=".7"/><path stroke-width=".44" opacity=".7" stroke="#4C5C78" fill="none" stroke-linecap="butt" d="m565 174-8 2 8-1 2-8 1 6-16 11"/><path cx="552" cy="184" r="1.64" fill="#4C5C78" opacity=".7" d="m554.28 184.42-3.63.5 1.77-3.2z"/></g><g class="key-Israel"><circle cx="413" cy="269" r="1.1" fill="#2D8587" opacity=".7"/><path stroke-width=".44" opacity=".7" stroke="#2D8587" fill="none" stroke-linecap="butt" d="m413 269 66-37-56 31 8 10 3-13 95-41-65 19 47-20"/><path cx="511" cy="218" r="1.64" fill="#2D8587" opacity=".7" d="m508.85 217.13 3.66.23-2.38 2.8z"/></g><g class="key-Bulgaria"><circle cx="416" cy="283" r="1.1" fill="#4C5C78" opacity=".7"/><path stroke-width=".44" opacity=".7" stroke="#4C5C78" fill="none" stroke-linecap="butt" d="m416 283 34-26-60 42 52-20-28 5 16-11 3-3"/><path cx="433" cy="270" r="1.64" fill="#4C5C78" opacity=".7" d="m430.68 270 3.48-1.16-1.16 3.48z"/></g><g class="key-Hong-Kong"><circle cx="612" cy="141" r="1.1" fill="#2D8587" opacity=".7"/><path stroke-width=".44" opacity=".7" stroke="#2D8587" fill="none" stroke-linecap="butt" d="m612 141 37-2-56 16 40 4-28-9 46-9-37 1 43-16"/><path cx="657" cy="126" r="1.64" fill="#2D8587" opacity=".7" d="m654.9 125.03 3.64.4-2.5 2.68z"/></g><g class="key-Lebanon"><circle cx="367" cy="298" r="1.1" fill="#2D8587" opacity=".7"/><path stroke-width=".43" opacity=".7" stroke="#2D8587" fill="none" stroke-linecap="butt" d="m367 298 25-19h2l-5 14"/><path cx="389" cy="293" r="1.63" fill="#2D8587" opacity=".7" d="m391.08 292.01-2.63 2.53-.44-3.62z"/></g><g class="key-El-Salvador"><circle cx="192" cy="394" r="1.13" fill="#E04E4B" opacity=".8" stroke="#666" stroke-width=".5"/></g><g class="key-Denmark"><circle cx="540" cy="189" r="1.1" fill="#4C5C78" opacity=".7"/><path stroke-width=".43" opacity=".7" stroke="#4C5C78" fill="none" stroke-linecap="butt" d="m540 189-2-1 3 4-21 7-4 5 22-9"/><path cx="538" cy="195" r="1.63" fill="#4C5C78" opacity=".7" d="m535.87 194.1 3.64.28-2.4 2.75z"/></g><g class="key-Singapore"><circle cx="691" cy="122" r="1.1" fill="#2D8587" opacity=".7"/><path stroke-width=".43" opacity=".7" stroke="#2D8587" fill="none" stroke-linecap="butt" d="m691 122-19 16-47 8 74-31-49 24 68-35"/><path cx="718" cy="104" r="1.63" fill="#2D8587" opacity=".7" d="m715.8 103.3 3.65-.05-2.15 2.95z"/></g><g class="key-Finland"><circle cx="586" cy="174" r="1.1" fill="#4C5C78" opacity=".7"/><path stroke-width=".43" opacity=".7" stroke="#4C5C78" fill="none" stroke-linecap="butt" d="m586 174 8-11 3-7-5 13-69 49 38-25-9 10"/><path cx="552" cy="203" r="1.63" fill="#4C5C78" opacity=".7" d="m554.3 202.88-3.39 1.33.97-3.51z"/></g><g class="key-Slovakia"><circle cx="507" cy="223" r="1.1" fill="#4C5C78" opacity=".7"/><path stroke-width=".43" opacity=".7" stroke="#4C5C78" fill="none" stroke-linecap="butt" d="m507 223-4-11 17 1-30 12-8 8"/><path cx="482" cy="233" r="1.63" fill="#4C5C78" opacity=".7" d="m484.3 233-3.45 1.15 1.15-3.46z"/></g><g class="key-Kyrgyzstan"><circle cx="218" cy="400" r="1.1" fill="#2D8587" opacity=".7"/><path stroke-width=".43" opacity=".7" stroke="#2D8587" fill="none" stroke-linecap="butt" d="m218 400 39-18"/><path cx="257" cy="382" r="1.63" fill="#2D8587" opacity=".7" d="m254.84 381.2 3.64.12-2.28 2.84z"/></g><g class="key-Norway"><circle cx="520" cy="205" r="1.1" fill="#4C5C78" opacity=".7"/><path stroke-width=".43" opacity=".7" stroke="#4C5C78" fill="none" stroke-linecap="butt" d="m520 205-92 70 78-57-64 49 78-57-69 51 58-41-39 26"/><path cx="470" cy="246" r="1.63" fill="#4C5C78" opacity=".7" d="m472.26 246.45-3.62.45 1.81-3.16z"/></g><g class="key-Costa-Rica"><circle cx="361" cy="288" r="1.1" fill="#E04E4B" opacity=".7"/><path stroke-width=".43" opacity=".7" stroke="#E04E4B" fill="none" stroke-linecap="butt" d="m361 288-3 3-6 11"/><path cx="352" cy="302" r="1.63" fill="#E04E4B" opacity=".7" d="m354.21 301.35-3 2.08.14-3.64z"/></g><g class="key-Ireland"><circle cx="523" cy="201" r="1.1" fill="#4C5C78" opacity=".7"/><path stroke-width=".43" opacity=".7" stroke="#4C5C78" fill="none" stroke-linecap="butt" d="m523 201-3-1 1 3-21 17 17-18 14 1"/><path cx="531" cy="203" r="1.63" fill="#4C5C78" opacity=".7" d="m529.49 201.26 3.14 1.86-3.37 1.39z"/></g><g class="key-New-Zealand"><circle cx="591" cy="174" r="1.1" fill="#A8633C" opacity=".7"/><path stroke-width=".43" opacity=".7" stroke="#A8633C" fill="none" stroke-linecap="butt" d="m591 174-106 65 70-56-2 5-98 47 60-31-32 37"/><path cx="483" cy="241" r="1.63" fill="#A8633C" opacity=".7" d="m485.3 240.83-3.37 1.4.9-3.53z"/></g><g class="key-Oman"><circle cx="313" cy="401" r="1.1" fill="#2D8587" opacity=".7"/><path stroke-width=".43" opacity=".7" stroke="#2D8587" fill="none" stroke-linecap="butt" d="m313 401-3 11 41-58"/><path cx="351" cy="354" r="1.63" fill="#2D8587" opacity=".7" d="m348.73 354.39 3.21-1.72-.55 3.6z"/></g><g class="key-Croatia"><circle cx="463" cy="237" r="1.1" fill="#4C5C78" opacity=".7"/><path stroke-width=".43" opacity=".7" stroke="#4C5C78" fill="none" stroke-linecap="butt" d="m463 237-10 9 18-12-12 6"/><path cx="459" cy="240" r="1.63" fill="#4C5C78" opacity=".7" d="M461.19 240.73h-3.65l2.19-2.92z"/></g><g class="key-Palestine"><circle cx="305" cy="356" r="1.1" fill="#2D8587" opacity=".7"/><path stroke-width=".43" opacity=".7" stroke="#2D8587" fill="none" stroke-linecap="butt" d="m305 356-16 40 54-47"/><path cx="343" cy="349" r="1.63" fill="#2D8587" opacity=".7" d="m340.7 348.84 3.53-.91-1.39 3.37z"/></g><g class="key-Moldova"><circle cx="431" cy="281" r="1.1" fill="#4C5C78" opacity=".7"/><path stroke-width=".43" opacity=".7" stroke="#4C5C78" fill="none" stroke-linecap="butt" d="m431 281-73 31 40-20"/><path cx="398" cy="292" r="1.63" fill="#4C5C78" opacity=".7" d="M395.81 291.27h3.65l-2.19 2.92z"/></g><g class="key-Georgia"><circle cx="337" cy="332" r="1.1" fill="#2D8587" opacity=".7"/><path stroke-width=".43" opacity=".7" stroke="#2D8587" fill="none" stroke-linecap="butt" d="m337 332-3 1 35-28 42-22"/><path cx="411" cy="283" r="1.63" fill="#2D8587" opacity=".7" d="m408.8 282.31 3.64-.07-2.13 2.96z"/></g><g class="key-Kuwait"><circle cx="251" cy="404" r="1.1" fill="#2D8587" opacity=".7"/><path stroke-width=".43" opacity=".7" stroke="#2D8587" fill="none" stroke-linecap="butt" d="m251 404 57-52"/><path cx="308" cy="352" r="1.63" fill="#2D8587" opacity=".7" d="m305.7 351.9 3.5-1-1.3 3.4z"/></g><g class="key-Bosnia-and-Herzegovina"><circle cx="416" cy="280" r="1.13" fill="#4C5C78" opacity=".8" stroke="#666" stroke-width=".5"/></g><g class="key-Panama"><circle cx="295" cy="348" r="1.12" fill="#E04E4B" opacity=".8" stroke="#666" stroke-width=".5"/></g><g class="key-Uruguay"><circle cx="391" cy="282" r="1.1" fill="#932834" opacity=".7"/><path stroke-width=".42" opacity=".7" stroke="#932834" fill="none" stroke-linecap="butt" d="m391 282 7-5h1l-28 18 12-10"/><path cx="383" cy="285" r="1.62" fill="#932834" opacity=".7" d="m380.72 284.8 3.52-.84-1.45 3.32z"/></g><g class="key-Lithuania"><circle cx="500" cy="233" r="1.1" fill="#4C5C78" opacity=".7"/><path stroke-width=".42" opacity=".7" stroke="#4C5C78" fill="none" stroke-linecap="butt" d="m500 233 4-10 6 6-15 8 11-3-13-2 18-14"/><path cx="511" cy="218" r="1.62" fill="#4C5C78" opacity=".7" d="m508.73 217.72 3.55-.71-1.56 3.26z"/></g><g class="key-Albania"><circle cx="348" cy="338" r="1.1" fill="#4C5C78" opacity=".7"/><path stroke-width=".42" opacity=".7" stroke="#4C5C78" fill="none" stroke-linecap="butt" d="M348 338h-11l19-21 38-15"/><path cx="394" cy="302" r="1.62" fill="#4C5C78" opacity=".7" d="m391.9 301.09 3.6.32-2.41 2.7z"/></g><g class="key-Armenia"><circle cx="463" cy="261" r="1.1" fill="#2D8587" opacity=".7"/><path stroke-width=".42" opacity=".7" stroke="#2D8587" fill="none" stroke-linecap="butt" d="m463 261 32-26-52 38"/><path cx="443" cy="273" r="1.62" fill="#2D8587" opacity=".7" d="m445.26 273.35-3.57.6 1.66-3.21z"/></g><g class="key-Mongolia"><circle cx="366" cy="301" r="1.12" fill="#2D8587" opacity=".8" stroke="#666" stroke-width=".5"/></g><g class="key-Qatar"><circle cx="242" cy="400" r="1.1" fill="#2D8587" opacity=".7"/><path stroke-width=".42" opacity=".7" stroke="#2D8587" fill="none" stroke-linecap="butt" d="m242 400-59 63 134-118 26-9-3 6 48-38"/><path cx="388" cy="304" r="1.62" fill="#2D8587" opacity=".7" d="m385.72 303.74 3.55-.75-1.53 3.29z"/></g><g class="key-Botswana"><circle cx="259" cy="379" r="1.1" fill="#923E8B" opacity=".7"/><path stroke-width=".42" opacity=".7" stroke="#923E8B" fill="none" stroke-linecap="butt" d="m259 379 5 10 58-37-6 9"/><path cx="316" cy="361" r="1.62" fill="#923E8B" opacity=".7" d="m318.25 360.55-3.15 1.8.45-3.6z"/></g><g class="key-North-Macedonia"><circle cx="338" cy="330" r="1.1" fill="#4C5C78" opacity=".7"/><path stroke-width=".42" opacity=".7" stroke="#4C5C78" fill="none" stroke-linecap="butt" d="m338 330 48-23-18 9-45 26"/><path cx="323" cy="342" r="1.62" fill="#4C5C78" opacity=".7" d="m325.21 342.6-3.61.21 2-3.02z"/></g><g class="key-Slovenia"><circle cx="484" cy="241" r="1.1" fill="#4C5C78" opacity=".7"/><path stroke-width=".42" opacity=".7" stroke="#4C5C78" fill="none" stroke-linecap="butt" d="m484 241 47-37-37 25 35-20-31 15 29-16-6 4"/><path cx="521" cy="212" r="1.62" fill="#4C5C78" opacity=".7" d="m523.25 212.45-3.6.45 1.8-3.15z"/></g><g class="key-Latvia"><circle cx="463" cy="244" r="1.1" fill="#4C5C78" opacity=".7"/><path stroke-width=".42" opacity=".7" stroke="#4C5C78" fill="none" stroke-linecap="butt" d="m463 244 51-19-13-3-4 6 19-6-16 7"/><path cx="500" cy="229" r="1.62" fill="#4C5C78" opacity=".7" d="m502.13 229.83-3.61-.18 2.31-2.78z"/></g><g class="key-Bahrain"><circle cx="347" cy="357" r="1.1" fill="#2D8587" opacity=".7"/><path stroke-width=".42" opacity=".7" stroke="#2D8587" fill="none" stroke-linecap="butt" d="m347 357-6 3 30-6 55-64"/><path cx="426" cy="290" r="1.62" fill="#2D8587" opacity=".7" d="m423.72 290.17 3.34-1.4-.89 3.51z"/></g><g class="key-Trinidad-and-Tobago"><circle cx="394" cy="301" r="1.1" fill="#E04E4B" opacity=".7"/><path stroke-width=".42" opacity=".7" stroke="#E04E4B" fill="none" stroke-linecap="butt" d="m394 301 13 1"/><path cx="407" cy="302" r="1.62" fill="#E04E4B" opacity=".7" d="m405.5 300.26 3.12 1.86-3.36 1.37z"/></g><g class="key-Estonia"><circle cx="551" cy="199" r="1.1" fill="#4C5C78" opacity=".7"/><path stroke-width=".42" opacity=".7" stroke="#4C5C78" fill="none" stroke-linecap="butt" d="m551 199-1-4-10-1 17-7-2 2"/><path cx="555" cy="189" r="1.62" fill="#4C5C78" opacity=".7" d="m557.3 189-3.45 1.15 1.15-3.44z"/></g><g class="key-Mauritius"><circle cx="395" cy="289" r="1.12" fill="#923E8B" opacity=".8" stroke="#666" stroke-width=".5"/></g><g class="key-Cyprus"><circle cx="436" cy="284" r="1.1" fill="#4C5C78" opacity=".7"/><path stroke-width=".42" opacity=".7" stroke="#4C5C78" fill="none" stroke-linecap="butt" d="m436 284 14-4"/><path cx="450" cy="280" r="1.62" fill="#4C5C78" opacity=".7" d="m448 278.89 3.56.66-2.67 2.45z"/></g><g class="key-Montenegro"><circle cx="354" cy="306" r="1.1" fill="#4C5C78" opacity=".7"/><path stroke-width=".41" opacity=".7" stroke="#4C5C78" fill="none" stroke-linecap="butt" d="m354 306 5-4 21-1 13-9"/><path cx="393" cy="292" r="1.61" fill="#4C5C78" opacity=".7" d="m390.76 291.6 3.56-.52-1.73 3.16z"/></g><g class="key-Macao"><circle cx="555" cy="172" r="1.1" fill="#2D8587" opacity=".7"/><path stroke-width=".41" opacity=".7" stroke="#2D8587" fill="none" stroke-linecap="butt" d="m555 172 5 8 28-9h18"/><path cx="606" cy="171" r="1.61" fill="#2D8587" opacity=".7" d="m604.39 169.39 3.22 1.61-3.22 1.61z"/></g><g class="key-Luxembourg"><circle cx="428" cy="256" r="1.1" fill="#4C5C78" opacity=".7"/><path stroke-width=".41" opacity=".7" stroke="#4C5C78" fill="none" stroke-linecap="butt" d="m428 256 75-47-5 3h-4l-4-4 5 11"/><path cx="495" cy="219" r="1.61" fill="#4C5C78" opacity=".7" d="m495.8 216.87-.13 3.6-2.8-2.27z"/></g><g class="key-Malta"><circle cx="472" cy="245" r="1.1" fill="#4C5C78" opacity=".7"/><path stroke-width=".41" opacity=".7" stroke="#4C5C78" fill="none" stroke-linecap="butt" d="m472 245 7 10 6-15"/><path cx="485" cy="240" r="1.61" fill="#4C5C78" opacity=".7" d="m482.9 240.9 2.7-2.4.3 3.6z"/></g><g class="key-Iceland"><circle cx="557" cy="197" r="1.1" fill="#4C5C78" opacity=".7"/><path stroke-width=".41" opacity=".7" stroke="#4C5C78" fill="none" stroke-linecap="butt" d="m557 197 8 6-25 4-4-5-15 19-12 2"/><path cx="509" cy="223" r="1.61" fill="#4C5C78" opacity=".7" d="m510.85 224.32-3.44-1.06 2.91-2.11z"/></g><g class="key-Liechtenstein"><circle cx="544" cy="189" r="1.1" fill="#4C5C78" opacity=".7"/><path stroke-width=".41" opacity=".7" stroke="#4C5C78" fill="none" stroke-linecap="butt" d="m544 189 18-28 7 25-3-23-1 2"/><path cx="565" cy="165" r="1.61" fill="#4C5C78" opacity=".7" d="m567.16 164.28-2.88 2.16v-3.6z"/></g><g class="key-Kosovo"><circle cx="294" cy="344" r="1.11" fill="#4C5C78" opacity=".8" stroke="#666" stroke-width=".5"/></g><g class="backgroundLabels" fill="#333" font-weight="400"><text x="532.28" y="186.77" font-size="14.3" fill="#2D8587" style="fill:#fff;stroke:#fff;stroke-linecap:round;stroke-linejoin:round;stroke-width:.25em">China</text><text x="532.28" y="186.77" font-size="14.3" fill="#2D8587">China</text><text x="284" y="345.39" font-size="13.86" fill="#2D8587" style="fill:#fff;stroke:#fff;stroke-linecap:round;stroke-linejoin:round;stroke-width:.25em">India</text><text x="284" y="345.39" font-size="13.86" fill="#2D8587">India</text><text x="529.47" y="208.76" font-size="11.75" fill="#E04E4B" style="fill:#fff;stroke:#fff;stroke-linecap:round;stroke-linejoin:round;stroke-width:.25em">United States</text><text x="529.47" y="208.76" font-size="11.75" fill="#E04E4B">United States</text><text x="348.8" y="324.6" font-size="11.61" fill="#2D8587" style="fill:#fff;stroke:#fff;stroke-linecap:round;stroke-linejoin:round;stroke-width:.25em">Indonesia</text><text x="348.8" y="324.6" font-size="11.61" fill="#2D8587">Indonesia</text><text x="654.71" y="136.31" font-size="11.3" fill="#2D8587" style="fill:#fff;stroke:#fff;stroke-linecap:round;stroke-linejoin:round;stroke-width:.25em">Japan</text><text x="654.71" y="136.31" font-size="11.3" fill="#2D8587">Japan</text><text x="476.72" y="227.61" font-size="11.22" fill="#2D8587" style="fill:#fff;stroke:#fff;stroke-linecap:round;stroke-linejoin:round;stroke-width:.25em">Vietnam</text><text x="476.72" y="227.61" font-size="11.22" fill="#2D8587">Vietnam</text><text x="285" y="367.33" font-size="11.19" fill="#2D8587" style="fill:#fff;stroke:#fff;stroke-linecap:round;stroke-linejoin:round;stroke-width:.25em">Philippines</text><text x="285" y="367.33" font-size="11.19" fill="#2D8587">Philippines</text><text x="473.36" y="204.71" font-size="11.19" fill="#4C5C78" style="fill:#fff;stroke:#fff;stroke-linecap:round;stroke-linejoin:round;stroke-width:.25em">Germany</text><text x="473.36" y="204.71" font-size="11.19" fill="#4C5C78">Germany</text><text x="387.38" y="290.98" font-size="11.18" fill="#2D8587" style="fill:#fff;stroke:#fff;stroke-linecap:round;stroke-linejoin:round;stroke-width:.25em">Turkey</text><text x="387.38" y="290.98" font-size="11.18" fill="#2D8587">Turkey</text><text x="623.45" y="113.06" font-size="11.12" fill="#2D8587" style="fill:#fff;stroke:#fff;stroke-linecap:round;stroke-linejoin:round;stroke-width:.25em">South Korea</text><text x="623.45" y="113.06" font-size="11.12" fill="#2D8587">South Korea</text><text x="457.46" y="248.39" font-size="11.11" fill="#4C5C78" style="fill:#fff;stroke:#fff;stroke-linecap:round;stroke-linejoin:round;stroke-width:.25em">Ukraine</text><text x="457.46" y="248.39" font-size="11.11" fill="#4C5C78">Ukraine</text><text x="283.74" y="311.46" font-size="11.1" fill="#932834" style="fill:#fff;stroke:#fff;stroke-linecap:round;stroke-linejoin:round;stroke-width:.25em">Argentina</text><text x="283.74" y="311.46" font-size="11.1" fill="#932834">Argentina</text><text x="203.07" y="392.16" font-size="11.07" fill="#2D8587" style="fill:#fff;stroke:#fff;stroke-linecap:round;stroke-linejoin:round;stroke-width:.25em">Saudi Arabia</text><text x="203.07" y="392.16" font-size="11.07" fill="#2D8587">Saudi Arabia</text><text x="444.37" y="271.57" font-size="11.07" fill="#2D8587" style="fill:#fff;stroke:#fff;stroke-linecap:round;stroke-linejoin:round;stroke-width:.25em">Malaysia</text><text x="444.37" y="271.57" font-size="11.07" fill="#2D8587">Malaysia</text><text x="242.02" y="364.79" font-size="11.05" fill="#2D8587" style="fill:#fff;stroke:#fff;stroke-linecap:round;stroke-linejoin:round;stroke-width:.25em">Syria</text><text x="242.02" y="364.79" font-size="11.05" fill="#2D8587">Syria</text><text x="353.89" y="349.92" font-size="11.01" fill="#2D8587" style="fill:#fff;stroke:#fff;stroke-linecap:round;stroke-linejoin:round;stroke-width:.25em">Oman</text><text x="353.89" y="349.92" font-size="11.01" fill="#2D8587">Oman</text><text x="611" y="171" font-size="11" fill="#2D8587" style="fill:#fff;stroke:#fff;stroke-linecap:round;stroke-linejoin:round;stroke-width:.25em">Macao</text><text x="611" y="171" font-size="11" fill="#2D8587">Macao</text></g></g><g class="ScatterColorLegend clickable" style="cursor:pointer"><g class="legendMark"><path fill="#923E8B" d="M738.09 97.4h9v9h-9z"/><text font-size="12.6" x="752.1" y="105.7"><tspan x="752.09" y="105.68">Africa</tspan></text></g><g class="legendMark"><path fill="#2D8587" d="M738.09 115h9v9h-9z"/><text font-size="12.6" x="752.1" y="123.3"><tspan x="752.09" y="123.28">Asia</tspan></text></g><g class="legendMark"><path fill="#4C5C78" d="M738.09 132.6h9v9h-9z"/><text font-size="12.6" x="752.1" y="140.9"><tspan x="752.09" y="140.88">Europe</tspan></text></g><g class="legendMark"><path fill="#E04E4B" d="M738.09 150.2h9v9h-9z"/><text font-size="12.6" x="752.1" y="158.5"><tspan x="752.09" y="158.48">North America</tspan></text></g><g class="legendMark"><path fill="#A8633C" d="M738.09 167.8h9v9h-9z"/><text font-size="12.6" x="752.1" y="176.1"><tspan x="752.09" y="176.08">Oceania</tspan></text></g><g class="legendMark"><path fill="#932834" d="M738.09 185.4h9v9h-9z"/><text font-size="12.6" x="752.1" y="193.7"><tspan x="752.09" y="193.68">South America</tspan></text></g></g><path stroke="#ccc" d="M738.09 203.2H830"/><g class="clickable"><g class="ConnectedScatterLegend"><text font-size="12.6" x="738.1" y="222.3" fill="#333"><tspan x="738.09" y="222.28">2000</tspan></text><text font-size="12.6" x="806.8" y="222.3" fill="#333"><tspan x="806.78" y="222.28">2015</tspan></text><path stroke="#666" stroke-width="1" d="M771.32 218h30.46"/><circle cx="771.32" cy="218" r="2" fill="#666" stroke="#ccc" stroke-width=".2"/><circle cx="781.47" cy="218" r="2" fill="#666" stroke="#ccc" stroke-width=".2"/><circle cx="791.62" cy="218" r="2" fill="#666" stroke="#ccc" stroke-width=".2"/><path cx="801.78" cy="218" r="3" fill="#666" stroke="#ccc" stroke-width=".2" d="m798.78 215 6 3-6 3z"/></g></g></g><g class="SourcesFooter" style="fill:#777"><g style="fill:#777"><text font-size="12.6" x="15" y="567.9"><tspan x="15" y="567.88">Source: Angrist, Djankov, Goldberg, and Patrinos (2021)</tspan></text></g><text font-size="12.6" x="15" y="582.5"><tspan x="15" y="582.48">Note: Not all observations are nationally representative. See the sources tab for more details.</tspan></text><text font-size="12.6" x="796.4" y="567.9"><tspan x="796.44" y="567.88"><a style="fill:#777" class="cclogo" href="http://creativecommons.org/licenses/by/4.0/deed.en_US" target="_blank">CC BY</a></tspan></text></g></svg>