<svg xmlns="http://www.w3.org/2000/svg" version="1.1" style="font-family:Lato,'Helvetica Neue',Helvetica,Arial,sans-serif;font-size:18px;background-color:#fff;text-rendering:geometricPrecision;-webkit-font-smoothing:antialiased" width="850" height="600" viewBox="0 0 850 600"><g class="HeaderView"><g transform="matrix(.29 0 0 .29 774 15)"><svg className="owidLog" width="210" height="120" viewBox="0 0 210 120" fill="none" xmlns="http://www.w3.org/2000/svg"><g clip-path="url(#a)"><path d="M0 0h210v107.89H0V0z" fill="#002147"/><path d="M40.98 32.25c0 2.36-.38 4.53-1.12 6.51a14.26 14.26 0 0 1-8.1 8.4c-1.9.78-4.02 1.17-6.34 1.17a16.6 16.6 0 0 1-6.33-1.17 14.31 14.31 0 0 1-8.08-8.4 18.29 18.29 0 0 1-1.12-6.51c0-2.36.38-4.53 1.12-6.5.75-1.97 1.8-3.67 3.17-5.1a14.32 14.32 0 0 1 4.9-3.34c1.92-.8 4.03-1.19 6.34-1.19 2.32 0 4.43.4 6.34 1.19 1.92.8 3.56 1.9 4.93 3.34a14.87 14.87 0 0 1 3.17 5.1 18.1 18.1 0 0 1 1.12 6.5zm-4.38 0c0-1.94-.26-3.68-.8-5.22a10.91 10.91 0 0 0-2.24-3.89 9.68 9.68 0 0 0-3.52-2.46 11.95 11.95 0 0 0-4.62-.86c-1.68 0-3.21.28-4.6.86a9.88 9.88 0 0 0-3.54 2.46 10.91 10.91 0 0 0-2.24 3.9c-.53 1.53-.8 3.27-.8 5.2 0 1.94.27 3.68.8 5.22a11.17 11.17 0 0 0 2.24 3.9 10.01 10.01 0 0 0 3.55 2.44c1.38.56 2.9.83 4.6.83s3.24-.27 4.61-.83a9.8 9.8 0 0 0 3.52-2.44 11.17 11.17 0 0 0 2.25-3.9c.53-1.54.8-3.28.8-5.21zm26.22-6.54V48H60.5c-.56 0-.9-.27-1.05-.81l-.31-2.4a12.45 12.45 0 0 1-3.26 2.6c-1.2.64-2.58.96-4.13.96-1.22 0-2.3-.2-3.24-.6a6.52 6.52 0 0 1-2.33-1.7 7.37 7.37 0 0 1-1.43-2.67c-.3-1.04-.46-2.2-.46-3.45V25.7h3.91v14.22c0 1.68.38 2.99 1.15 3.91.77.93 1.96 1.39 3.54 1.39 1.16 0 2.24-.27 3.23-.82a10.42 10.42 0 0 0 2.8-2.28V25.7h3.91zm8.61 4.47a9.94 9.94 0 0 1 2.6-3.56 5.64 5.64 0 0 1 3.76-1.3c.47 0 .92.05 1.34.15.44.1.83.27 1.17.49l-.3 2.92c-.09.37-.3.55-.66.55-.2 0-.5-.04-.9-.13a6.21 6.21 0 0 0-3.24.18 4.23 4.23 0 0 0-1.47.92c-.42.4-.81.9-1.17 1.5-.33.58-.64 1.26-.92 2.02V48H67.7V25.71h2.25c.42 0 .72.08.88.25.16.16.27.44.33.83l.26 3.39zm61.16-13.7L122.75 48h-3.82l-7.99-24.05a21.95 21.95 0 0 1-.42-1.58 38.36 38.36 0 0 1-.44 1.58L102.05 48h-3.83L88.4 16.47h3.54c.38 0 .7.1.95.29.26.2.43.43.5.73l6.52 21.9.28 1.28.29 1.46.3-1.46.38-1.27 7.41-21.91c.1-.25.26-.48.51-.69.27-.22.58-.33.95-.33h1.23c.38 0 .69.1.92.29a1.77 1.77 0 0 1 .53.73l7.4 21.9a28.4 28.4 0 0 1 .68 2.62 29.52 29.52 0 0 1 .52-2.61l6.54-21.91a1.31 1.31 0 0 1 .48-.7c.27-.21.58-.32.95-.32h3.32zm9.35 8.88c1.63 0 3.1.27 4.4.82a9.43 9.43 0 0 1 5.46 5.94c.5 1.4.74 2.98.74 4.73 0 1.76-.25 3.34-.74 4.75a9.43 9.43 0 0 1-5.46 5.92c-1.3.52-2.77.79-4.4.79-1.64 0-3.12-.27-4.44-.8a9.42 9.42 0 0 1-3.35-2.3c-.92-1-1.63-2.2-2.13-3.61-.49-1.41-.73-3-.73-4.75s.24-3.33.73-4.73c.5-1.43 1.2-2.64 2.13-3.63a9.4 9.4 0 0 1 3.35-2.31c1.32-.55 2.8-.82 4.44-.82zm0 19.89c2.2 0 3.84-.73 4.93-2.2 1.08-1.48 1.63-3.54 1.63-6.18 0-2.66-.55-4.72-1.63-6.2-1.09-1.49-2.73-2.23-4.93-2.23-1.12 0-2.09.2-2.93.57a5.71 5.71 0 0 0-2.06 1.65 7.5 7.5 0 0 0-1.24 2.67c-.26 1.04-.4 2.22-.4 3.54 0 2.64.55 4.7 1.64 6.18 1.1 1.47 2.76 2.2 4.99 2.2zm17.97-15.07a9.94 9.94 0 0 1 2.6-3.56 5.64 5.64 0 0 1 3.76-1.3c.47 0 .91.05 1.34.15.44.1.83.27 1.16.49l-.28 2.92c-.09.37-.31.55-.66.55-.2 0-.5-.04-.9-.13a6.2 6.2 0 0 0-3.24.18 4.23 4.23 0 0 0-1.47.92c-.43.4-.82.9-1.17 1.5a13.1 13.1 0 0 0-.92 2.02V48h-3.94V25.71h2.24c.43 0 .72.08.88.25.17.16.28.44.33.83l.27 3.39zm15.04-14.59V48h-3.92V15.6h3.92zm19.55 15.43a6.22 6.22 0 0 0-2.38-2.05 6.7 6.7 0 0 0-2.86-.6c-2.07 0-3.66.75-4.77 2.23-1.12 1.48-1.68 3.6-1.68 6.33 0 1.46.13 2.7.38 3.74a7.29 7.29 0 0 0 1.1 2.56 4.35 4.35 0 0 0 1.78 1.45c.7.3 1.5.46 2.4.46 1.29 0 2.41-.3 3.36-.88a9.6 9.6 0 0 0 2.67-2.49V31.02zm3.91-15.43V48h-2.33c-.56 0-.9-.27-1.06-.81l-.35-2.71a12.13 12.13 0 0 1-3.25 2.77 8.28 8.28 0 0 1-4.23 1.06 7.31 7.31 0 0 1-6.14-2.9c-.73-.96-1.3-2.15-1.69-3.57a18.35 18.35 0 0 1 .07-9.48 11.29 11.29 0 0 1 1.89-3.7 8.7 8.7 0 0 1 7.06-3.34 7.96 7.96 0 0 1 6.12 2.62V15.59h3.91zM46.61 70.71V93H42.7V70.71h3.91zm.84-7c0 .39-.08.75-.24 1.09a2.81 2.81 0 0 1-1.52 1.47 2.67 2.67 0 0 1-2.16 0 2.9 2.9 0 0 1-1.45-1.47 2.67 2.67 0 0 1 0-2.16c.15-.35.35-.65.6-.9.25-.27.53-.47.85-.62a2.67 2.67 0 0 1 2.16 0c.35.15.65.35.9.62.27.25.47.55.62.9.16.34.24.7.24 1.08zm7.97 10.24c.49-.54 1-1.04 1.54-1.48a9.85 9.85 0 0 1 3.66-1.84 8.96 8.96 0 0 1 5.43.35c.94.4 1.72.97 2.33 1.71a7.36 7.36 0 0 1 1.43 2.67c.32 1.04.49 2.19.49 3.45V93h-3.94V78.81c0-1.69-.4-3-1.17-3.92-.76-.93-1.93-1.4-3.5-1.4a6.6 6.6 0 0 0-3.25.83c-1 .56-1.92 1.31-2.77 2.27V93h-3.94V70.71h2.35c.56 0 .9.28 1.04.82l.3 2.42zm57.7 3.3c0 2.36-.37 4.5-1.11 6.44a14.3 14.3 0 0 1-3.17 4.98 14.1 14.1 0 0 1-4.93 3.2c-1.9.76-4.02 1.13-6.33 1.13H85.8V61.47h11.77c2.31 0 4.42.39 6.33 1.15a13.8 13.8 0 0 1 8.1 8.18 17.75 17.75 0 0 1 1.12 6.45zm-4.37 0c0-1.94-.26-3.67-.8-5.2a10.94 10.94 0 0 0-2.23-3.87 9.57 9.57 0 0 0-3.53-2.42 12.23 12.23 0 0 0-4.61-.83h-7.5v24.62h7.5c1.7 0 3.24-.28 4.61-.84a9.7 9.7 0 0 0 3.53-2.4 10.94 10.94 0 0 0 2.24-3.87c.53-1.53.8-3.26.8-5.2zm19.8 5.72c-1.8.06-3.34.2-4.62.44-1.26.22-2.3.51-3.1.88-.8.36-1.37.8-1.74 1.3-.35.5-.53 1.05-.53 1.67 0 .58.1 1.1.3 1.52a3 3 0 0 0 .76 1.05c.34.27.73.46 1.17.6a6.13 6.13 0 0 0 1.45.17 7.28 7.28 0 0 0 3.5-.81 11.95 11.95 0 0 0 2.82-2.2v-4.62zm-12.65-9.11a12.73 12.73 0 0 1 3.98-2.66c1.43-.59 3-.88 4.73-.88 1.25 0 2.36.2 3.33.61a6.81 6.81 0 0 1 3.94 4.38c.33 1.04.5 2.19.5 3.43V93h-1.74a1.8 1.8 0 0 1-.88-.18c-.2-.13-.36-.38-.48-.74l-.44-2.12-1.72 1.46a9.48 9.48 0 0 1-3.74 1.7c-.69.15-1.46.23-2.3.23-.87 0-1.69-.12-2.45-.35a5.34 5.34 0 0 1-3.34-2.93 6.64 6.64 0 0 1-.49-2.64c0-.88.25-1.72.73-2.53a6.33 6.33 0 0 1 2.35-2.17c1.09-.63 2.5-1.15 4.25-1.54 1.75-.41 3.89-.65 6.42-.7v-1.75c0-1.73-.37-3.03-1.12-3.91-.75-.9-1.84-1.34-3.28-1.34-.97 0-1.78.12-2.44.37-.64.23-1.2.5-1.7.81l-1.23.82c-.33.23-.67.35-1 .35-.27 0-.5-.07-.69-.2a2.1 2.1 0 0 1-.48-.53l-.7-1.25zm27.67 19.5c-1.76 0-3.12-.5-4.07-1.48-.94-.98-1.41-2.4-1.41-4.25V74h-2.68a.9.9 0 0 1-.6-.2c-.16-.14-.24-.36-.24-.66v-1.56l3.65-.46.9-6.89a.9.9 0 0 1 .29-.52.88.88 0 0 1 .62-.22H142v7.67h6.44V74H142v13.38c0 .94.22 1.63.68 2.09.45.45 1.04.68 1.76.68a3.21 3.21 0 0 0 1.85-.53l.55-.35c.16-.12.3-.18.41-.18.2 0 .4.13.55.38l1.15 1.87a7.45 7.45 0 0 1-2.44 1.5 8.53 8.53 0 0 1-2.95.52zm19.68-10.4c-1.8.07-3.34.21-4.62.45-1.26.22-2.3.51-3.1.88-.8.36-1.37.8-1.74 1.3-.35.5-.53 1.05-.53 1.67 0 .58.1 1.1.3 1.52a2.9 2.9 0 0 0 .76 1.05c.34.27.73.46 1.17.6a6.13 6.13 0 0 0 1.45.17 7.3 7.3 0 0 0 3.5-.81 12.04 12.04 0 0 0 2.82-2.2v-4.62zm-12.65-9.1a12.72 12.72 0 0 1 3.99-2.66c1.42-.59 3-.88 4.72-.88 1.25 0 2.36.2 3.33.61a6.81 6.81 0 0 1 3.94 4.38c.33 1.04.5 2.19.5 3.43V93h-1.74a1.8 1.8 0 0 1-.88-.18c-.2-.13-.36-.38-.48-.74l-.44-2.12-1.72 1.46a9.48 9.48 0 0 1-3.74 1.7c-.69.15-1.46.23-2.3.23-.87 0-1.69-.12-2.45-.35a5.33 5.33 0 0 1-3.34-2.93 6.62 6.62 0 0 1-.49-2.64c0-.88.25-1.72.73-2.53a6.33 6.33 0 0 1 2.35-2.17c1.09-.63 2.5-1.15 4.25-1.54a31.2 31.2 0 0 1 6.42-.7v-1.75c0-1.73-.37-3.03-1.12-3.91-.75-.9-1.84-1.34-3.28-1.34-.97 0-1.78.12-2.44.37-.64.23-1.2.5-1.7.81l-1.22.82c-.34.23-.68.35-1.02.35-.26 0-.49-.07-.68-.2a1.88 1.88 0 0 1-.48-.53l-.7-1.25zM40.98 32.25c0 2.36-.38 4.53-1.12 6.51a14.26 14.26 0 0 1-8.1 8.4c-1.9.78-4.02 1.17-6.34 1.17a16.6 16.6 0 0 1-6.33-1.17 14.31 14.31 0 0 1-8.08-8.4 18.29 18.29 0 0 1-1.12-6.51c0-2.36.38-4.53 1.12-6.5.75-1.97 1.8-3.67 3.17-5.1a14.32 14.32 0 0 1 4.9-3.34c1.92-.8 4.03-1.19 6.34-1.19 2.32 0 4.43.4 6.34 1.19 1.92.8 3.56 1.9 4.93 3.34a14.87 14.87 0 0 1 3.17 5.1 18.1 18.1 0 0 1 1.12 6.5zm-4.38 0c0-1.94-.26-3.68-.8-5.22a10.91 10.91 0 0 0-2.24-3.89 9.68 9.68 0 0 0-3.52-2.46 11.95 11.95 0 0 0-4.62-.86c-1.68 0-3.21.28-4.6.86a9.88 9.88 0 0 0-3.54 2.46 10.91 10.91 0 0 0-2.24 3.9c-.53 1.53-.8 3.27-.8 5.2 0 1.94.27 3.68.8 5.22a11.17 11.17 0 0 0 2.24 3.9 10.01 10.01 0 0 0 3.55 2.44c1.38.56 2.9.83 4.6.83s3.24-.27 4.61-.83a9.8 9.8 0 0 0 3.52-2.44 11.17 11.17 0 0 0 2.25-3.9c.53-1.54.8-3.28.8-5.21zm26.22-6.54V48H60.5c-.56 0-.9-.27-1.05-.81l-.31-2.4a12.45 12.45 0 0 1-3.26 2.6c-1.2.64-2.58.96-4.13.96-1.22 0-2.3-.2-3.24-.6a6.52 6.52 0 0 1-2.33-1.7 7.37 7.37 0 0 1-1.43-2.67c-.3-1.04-.46-2.2-.46-3.45V25.7h3.91v14.22c0 1.68.38 2.99 1.15 3.91.77.93 1.96 1.39 3.54 1.39 1.16 0 2.24-.27 3.23-.82a10.42 10.42 0 0 0 2.8-2.28V25.7h3.91zm8.61 4.47a9.94 9.94 0 0 1 2.6-3.56 5.64 5.64 0 0 1 3.76-1.3c.47 0 .92.05 1.34.15.44.1.83.27 1.17.49l-.3 2.92c-.09.37-.3.55-.66.55-.2 0-.5-.04-.9-.13a6.21 6.21 0 0 0-3.24.18 4.23 4.23 0 0 0-1.47.92c-.42.4-.81.9-1.17 1.5-.33.58-.64 1.26-.92 2.02V48H67.7V25.71h2.25c.42 0 .72.08.88.25.16.16.27.44.33.83l.26 3.39zm61.16-13.7L122.75 48h-3.82l-7.99-24.05a21.95 21.95 0 0 1-.42-1.58 38.36 38.36 0 0 1-.44 1.58L102.05 48h-3.83L88.4 16.47h3.54c.38 0 .7.1.95.29.26.2.43.43.5.73l6.52 21.9.28 1.28.29 1.46.3-1.46.38-1.27 7.41-21.91c.1-.25.26-.48.51-.69.27-.22.58-.33.95-.33h1.23c.38 0 .69.1.92.29a1.77 1.77 0 0 1 .53.73l7.4 21.9a28.4 28.4 0 0 1 .68 2.62 29.52 29.52 0 0 1 .52-2.61l6.54-21.91a1.31 1.31 0 0 1 .48-.7c.27-.21.58-.32.95-.32h3.32zm9.35 8.88c1.63 0 3.1.27 4.4.82a9.43 9.43 0 0 1 5.46 5.94c.5 1.4.74 2.98.74 4.73 0 1.76-.25 3.34-.74 4.75a9.43 9.43 0 0 1-5.46 5.92c-1.3.52-2.77.79-4.4.79-1.64 0-3.12-.27-4.44-.8a9.42 9.42 0 0 1-3.35-2.3c-.92-1-1.63-2.2-2.13-3.61-.49-1.41-.73-3-.73-4.75s.24-3.33.73-4.73c.5-1.43 1.2-2.64 2.13-3.63a9.4 9.4 0 0 1 3.35-2.31c1.32-.55 2.8-.82 4.44-.82zm0 19.89c2.2 0 3.84-.73 4.93-2.2 1.08-1.48 1.63-3.54 1.63-6.18 0-2.66-.55-4.72-1.63-6.2-1.09-1.49-2.73-2.23-4.93-2.23-1.12 0-2.09.2-2.93.57a5.71 5.71 0 0 0-2.06 1.65 7.5 7.5 0 0 0-1.24 2.67c-.26 1.04-.4 2.22-.4 3.54 0 2.64.55 4.7 1.64 6.18 1.1 1.47 2.76 2.2 4.99 2.2zm17.97-15.07a9.94 9.94 0 0 1 2.6-3.56 5.64 5.64 0 0 1 3.76-1.3c.47 0 .91.05 1.34.15.44.1.83.27 1.16.49l-.28 2.92c-.09.37-.31.55-.66.55-.2 0-.5-.04-.9-.13a6.2 6.2 0 0 0-3.24.18 4.23 4.23 0 0 0-1.47.92c-.43.4-.82.9-1.17 1.5a13.1 13.1 0 0 0-.92 2.02V48h-3.94V25.71h2.24c.43 0 .72.08.88.25.17.16.28.44.33.83l.27 3.39zm15.04-14.59V48h-3.92V15.6h3.92zm19.55 15.43a6.22 6.22 0 0 0-2.38-2.05 6.7 6.7 0 0 0-2.86-.6c-2.07 0-3.66.75-4.77 2.23-1.12 1.48-1.68 3.6-1.68 6.33 0 1.46.13 2.7.38 3.74a7.29 7.29 0 0 0 1.1 2.56 4.35 4.35 0 0 0 1.78 1.45c.7.3 1.5.46 2.4.46 1.29 0 2.41-.3 3.36-.88a9.6 9.6 0 0 0 2.67-2.49V31.02zm3.91-15.43V48h-2.33c-.56 0-.9-.27-1.06-.81l-.35-2.71a12.13 12.13 0 0 1-3.25 2.77 8.28 8.28 0 0 1-4.23 1.06 7.31 7.31 0 0 1-6.14-2.9c-.73-.96-1.3-2.15-1.69-3.57a18.35 18.35 0 0 1 .07-9.48 11.29 11.29 0 0 1 1.89-3.7 8.7 8.7 0 0 1 7.06-3.34 7.96 7.96 0 0 1 6.12 2.62V15.59h3.91zM46.61 70.71V93H42.7V70.71h3.91zm.84-7c0 .39-.08.75-.24 1.09a2.81 2.81 0 0 1-1.52 1.47 2.67 2.67 0 0 1-2.16 0 2.9 2.9 0 0 1-1.45-1.47 2.67 2.67 0 0 1 0-2.16c.15-.35.35-.65.6-.9.25-.27.53-.47.85-.62a2.67 2.67 0 0 1 2.16 0c.35.15.65.35.9.62.27.25.47.55.62.9.16.34.24.7.24 1.08zm7.97 10.24c.49-.54 1-1.04 1.54-1.48a9.85 9.85 0 0 1 3.66-1.84 8.96 8.96 0 0 1 5.43.35c.94.4 1.72.97 2.33 1.71a7.36 7.36 0 0 1 1.43 2.67c.32 1.04.49 2.19.49 3.45V93h-3.94V78.81c0-1.69-.4-3-1.17-3.92-.76-.93-1.93-1.4-3.5-1.4a6.6 6.6 0 0 0-3.25.83c-1 .56-1.92 1.31-2.77 2.27V93h-3.94V70.71h2.35c.56 0 .9.28 1.04.82l.3 2.42zm57.7 3.3c0 2.36-.37 4.5-1.11 6.44a14.3 14.3 0 0 1-3.17 4.98 14.1 14.1 0 0 1-4.93 3.2c-1.9.76-4.02 1.13-6.33 1.13H85.8V61.47h11.77c2.31 0 4.42.39 6.33 1.15a13.8 13.8 0 0 1 8.1 8.18 17.75 17.75 0 0 1 1.12 6.45zm-4.37 0c0-1.94-.26-3.67-.8-5.2a10.94 10.94 0 0 0-2.23-3.87 9.57 9.57 0 0 0-3.53-2.42 12.23 12.23 0 0 0-4.61-.83h-7.5v24.62h7.5c1.7 0 3.24-.28 4.61-.84a9.7 9.7 0 0 0 3.53-2.4 10.94 10.94 0 0 0 2.24-3.87c.53-1.53.8-3.26.8-5.2zm19.8 5.72c-1.8.06-3.34.2-4.62.44-1.26.22-2.3.51-3.1.88-.8.36-1.37.8-1.74 1.3-.35.5-.53 1.05-.53 1.67 0 .58.1 1.1.3 1.52a3 3 0 0 0 .76 1.05c.34.27.73.46 1.17.6a6.13 6.13 0 0 0 1.45.17 7.28 7.28 0 0 0 3.5-.81 11.95 11.95 0 0 0 2.82-2.2v-4.62zm-12.65-9.11a12.73 12.73 0 0 1 3.98-2.66c1.43-.59 3-.88 4.73-.88 1.25 0 2.36.2 3.33.61a6.81 6.81 0 0 1 3.94 4.38c.33 1.04.5 2.19.5 3.43V93h-1.74a1.8 1.8 0 0 1-.88-.18c-.2-.13-.36-.38-.48-.74l-.44-2.12-1.72 1.46a9.48 9.48 0 0 1-3.74 1.7c-.69.15-1.46.23-2.3.23-.87 0-1.69-.12-2.45-.35a5.34 5.34 0 0 1-3.34-2.93 6.64 6.64 0 0 1-.49-2.64c0-.88.25-1.72.73-2.53a6.33 6.33 0 0 1 2.35-2.17c1.09-.63 2.5-1.15 4.25-1.54 1.75-.41 3.89-.65 6.42-.7v-1.75c0-1.73-.37-3.03-1.12-3.91-.75-.9-1.84-1.34-3.28-1.34-.97 0-1.78.12-2.44.37-.64.23-1.2.5-1.7.81l-1.23.82c-.33.23-.67.35-1 .35-.27 0-.5-.07-.69-.2a2.1 2.1 0 0 1-.48-.53l-.7-1.25zm27.67 19.5c-1.76 0-3.12-.5-4.07-1.48-.94-.98-1.41-2.4-1.41-4.25V74h-2.68a.9.9 0 0 1-.6-.2c-.16-.14-.24-.36-.24-.66v-1.56l3.65-.46.9-6.89a.9.9 0 0 1 .29-.52.88.88 0 0 1 .62-.22H142v7.67h6.44V74H142v13.38c0 .94.22 1.63.68 2.09.45.45 1.04.68 1.76.68a3.21 3.21 0 0 0 1.85-.53l.55-.35c.16-.12.3-.18.41-.18.2 0 .4.13.55.38l1.15 1.87a7.45 7.45 0 0 1-2.44 1.5 8.53 8.53 0 0 1-2.95.52zm19.68-10.4c-1.8.07-3.34.21-4.62.45-1.26.22-2.3.51-3.1.88-.8.36-1.37.8-1.74 1.3-.35.5-.53 1.05-.53 1.67 0 .58.1 1.1.3 1.52a2.9 2.9 0 0 0 .76 1.05c.34.27.73.46 1.17.6a6.13 6.13 0 0 0 1.45.17 7.3 7.3 0 0 0 3.5-.81 12.04 12.04 0 0 0 2.82-2.2v-4.62zm-12.65-9.1a12.72 12.72 0 0 1 3.99-2.66c1.42-.59 3-.88 4.72-.88 1.25 0 2.36.2 3.33.61a6.81 6.81 0 0 1 3.94 4.38c.33 1.04.5 2.19.5 3.43V93h-1.74a1.8 1.8 0 0 1-.88-.18c-.2-.13-.36-.38-.48-.74l-.44-2.12-1.72 1.46a9.48 9.48 0 0 1-3.74 1.7c-.69.15-1.46.23-2.3.23-.87 0-1.69-.12-2.45-.35a5.33 5.33 0 0 1-3.34-2.93 6.62 6.62 0 0 1-.49-2.64c0-.88.25-1.72.73-2.53a6.33 6.33 0 0 1 2.35-2.17c1.09-.63 2.5-1.15 4.25-1.54a31.2 31.2 0 0 1 6.42-.7v-1.75c0-1.73-.37-3.03-1.12-3.91-.75-.9-1.84-1.34-3.28-1.34-.97 0-1.78.12-2.44.37-.64.23-1.2.5-1.7.81l-1.22.82c-.34.23-.68.35-1.02.35-.26 0-.49-.07-.68-.2a1.88 1.88 0 0 1-.48-.53l-.7-1.25zM40.98 32.25c0 2.36-.38 4.53-1.12 6.51a14.26 14.26 0 0 1-8.1 8.4c-1.9.78-4.02 1.17-6.34 1.17a16.6 16.6 0 0 1-6.33-1.17 14.31 14.31 0 0 1-8.08-8.4 18.29 18.29 0 0 1-1.12-6.51c0-2.36.38-4.53 1.12-6.5.75-1.97 1.8-3.67 3.17-5.1a14.32 14.32 0 0 1 4.9-3.34c1.92-.8 4.03-1.19 6.34-1.19 2.32 0 4.43.4 6.34 1.19 1.92.8 3.56 1.9 4.93 3.34a14.87 14.87 0 0 1 3.17 5.1 18.1 18.1 0 0 1 1.12 6.5zm-4.38 0c0-1.94-.26-3.68-.8-5.22a10.91 10.91 0 0 0-2.24-3.89 9.68 9.68 0 0 0-3.52-2.46 11.95 11.95 0 0 0-4.62-.86c-1.68 0-3.21.28-4.6.86a9.88 9.88 0 0 0-3.54 2.46 10.91 10.91 0 0 0-2.24 3.9c-.53 1.53-.8 3.27-.8 5.2 0 1.94.27 3.68.8 5.22a11.17 11.17 0 0 0 2.24 3.9 10.01 10.01 0 0 0 3.55 2.44c1.38.56 2.9.83 4.6.83s3.24-.27 4.61-.83a9.8 9.8 0 0 0 3.52-2.44 11.17 11.17 0 0 0 2.25-3.9c.53-1.54.8-3.28.8-5.21zm26.22-6.54V48H60.5c-.56 0-.9-.27-1.05-.81l-.31-2.4a12.45 12.45 0 0 1-3.26 2.6c-1.2.64-2.58.96-4.13.96-1.22 0-2.3-.2-3.24-.6a6.52 6.52 0 0 1-2.33-1.7 7.37 7.37 0 0 1-1.43-2.67c-.3-1.04-.46-2.2-.46-3.45V25.7h3.91v14.22c0 1.68.38 2.99 1.15 3.91.77.93 1.96 1.39 3.54 1.39 1.16 0 2.24-.27 3.23-.82a10.42 10.42 0 0 0 2.8-2.28V25.7h3.91zm8.61 4.47a9.94 9.94 0 0 1 2.6-3.56 5.64 5.64 0 0 1 3.76-1.3c.47 0 .92.05 1.34.15.44.1.83.27 1.17.49l-.3 2.92c-.09.37-.3.55-.66.55-.2 0-.5-.04-.9-.13a6.21 6.21 0 0 0-3.24.18 4.23 4.23 0 0 0-1.47.92c-.42.4-.81.9-1.17 1.5-.33.58-.64 1.26-.92 2.02V48H67.7V25.71h2.25c.42 0 .72.08.88.25.16.16.27.44.33.83l.26 3.39zm61.16-13.7L122.75 48h-3.82l-7.99-24.05a21.95 21.95 0 0 1-.42-1.58 38.36 38.36 0 0 1-.44 1.58L102.05 48h-3.83L88.4 16.47h3.54c.38 0 .7.1.95.29.26.2.43.43.5.73l6.52 21.9.28 1.28.29 1.46.3-1.46.38-1.27 7.41-21.91c.1-.25.26-.48.51-.69.27-.22.58-.33.95-.33h1.23c.38 0 .69.1.92.29a1.77 1.77 0 0 1 .53.73l7.4 21.9a28.4 28.4 0 0 1 .68 2.62 29.52 29.52 0 0 1 .52-2.61l6.54-21.91a1.31 1.31 0 0 1 .48-.7c.27-.21.58-.32.95-.32h3.32zm9.35 8.88c1.63 0 3.1.27 4.4.82a9.43 9.43 0 0 1 5.46 5.94c.5 1.4.74 2.98.74 4.73 0 1.76-.25 3.34-.74 4.75a9.43 9.43 0 0 1-5.46 5.92c-1.3.52-2.77.79-4.4.79-1.64 0-3.12-.27-4.44-.8a9.42 9.42 0 0 1-3.35-2.3c-.92-1-1.63-2.2-2.13-3.61-.49-1.41-.73-3-.73-4.75s.24-3.33.73-4.73c.5-1.43 1.2-2.64 2.13-3.63a9.4 9.4 0 0 1 3.35-2.31c1.32-.55 2.8-.82 4.44-.82zm0 19.89c2.2 0 3.84-.73 4.93-2.2 1.08-1.48 1.63-3.54 1.63-6.18 0-2.66-.55-4.72-1.63-6.2-1.09-1.49-2.73-2.23-4.93-2.23-1.12 0-2.09.2-2.93.57a5.71 5.71 0 0 0-2.06 1.65 7.5 7.5 0 0 0-1.24 2.67c-.26 1.04-.4 2.22-.4 3.54 0 2.64.55 4.7 1.64 6.18 1.1 1.47 2.76 2.2 4.99 2.2zm17.97-15.07a9.94 9.94 0 0 1 2.6-3.56 5.64 5.64 0 0 1 3.76-1.3c.47 0 .91.05 1.34.15.44.1.83.27 1.16.49l-.28 2.92c-.09.37-.31.55-.66.55-.2 0-.5-.04-.9-.13a6.2 6.2 0 0 0-3.24.18 4.23 4.23 0 0 0-1.47.92c-.43.4-.82.9-1.17 1.5a13.1 13.1 0 0 0-.92 2.02V48h-3.94V25.71h2.24c.43 0 .72.08.88.25.17.16.28.44.33.83l.27 3.39zm15.04-14.59V48h-3.92V15.6h3.92zm19.55 15.43a6.22 6.22 0 0 0-2.38-2.05 6.7 6.7 0 0 0-2.86-.6c-2.07 0-3.66.75-4.77 2.23-1.12 1.48-1.68 3.6-1.68 6.33 0 1.46.13 2.7.38 3.74a7.29 7.29 0 0 0 1.1 2.56 4.35 4.35 0 0 0 1.78 1.45c.7.3 1.5.46 2.4.46 1.29 0 2.41-.3 3.36-.88a9.6 9.6 0 0 0 2.67-2.49V31.02zm3.91-15.43V48h-2.33c-.56 0-.9-.27-1.06-.81l-.35-2.71a12.13 12.13 0 0 1-3.25 2.77 8.28 8.28 0 0 1-4.23 1.06 7.31 7.31 0 0 1-6.14-2.9c-.73-.96-1.3-2.15-1.69-3.57a18.35 18.35 0 0 1 .07-9.48 11.29 11.29 0 0 1 1.89-3.7 8.7 8.7 0 0 1 7.06-3.34 7.96 7.96 0 0 1 6.12 2.62V15.59h3.91zM46.61 70.71V93H42.7V70.71h3.91zm.84-7c0 .39-.08.75-.24 1.09a2.81 2.81 0 0 1-1.52 1.47 2.67 2.67 0 0 1-2.16 0 2.9 2.9 0 0 1-1.45-1.47 2.67 2.67 0 0 1 0-2.16c.15-.35.35-.65.6-.9.25-.27.53-.47.85-.62a2.67 2.67 0 0 1 2.16 0c.35.15.65.35.9.62.27.25.47.55.62.9.16.34.24.7.24 1.08zm7.97 10.24c.49-.54 1-1.04 1.54-1.48a9.85 9.85 0 0 1 3.66-1.84 8.96 8.96 0 0 1 5.43.35c.94.4 1.72.97 2.33 1.71a7.36 7.36 0 0 1 1.43 2.67c.32 1.04.49 2.19.49 3.45V93h-3.94V78.81c0-1.69-.4-3-1.17-3.92-.76-.93-1.93-1.4-3.5-1.4a6.6 6.6 0 0 0-3.25.83c-1 .56-1.92 1.31-2.77 2.27V93h-3.94V70.71h2.35c.56 0 .9.28 1.04.82l.3 2.42zm57.7 3.3c0 2.36-.37 4.5-1.11 6.44a14.3 14.3 0 0 1-3.17 4.98 14.1 14.1 0 0 1-4.93 3.2c-1.9.76-4.02 1.13-6.33 1.13H85.8V61.47h11.77c2.31 0 4.42.39 6.33 1.15a13.8 13.8 0 0 1 8.1 8.18 17.75 17.75 0 0 1 1.12 6.45zm-4.37 0c0-1.94-.26-3.67-.8-5.2a10.94 10.94 0 0 0-2.23-3.87 9.57 9.57 0 0 0-3.53-2.42 12.23 12.23 0 0 0-4.61-.83h-7.5v24.62h7.5c1.7 0 3.24-.28 4.61-.84a9.7 9.7 0 0 0 3.53-2.4 10.94 10.94 0 0 0 2.24-3.87c.53-1.53.8-3.26.8-5.2zm19.8 5.72c-1.8.06-3.34.2-4.62.44-1.26.22-2.3.51-3.1.88-.8.36-1.37.8-1.74 1.3-.35.5-.53 1.05-.53 1.67 0 .58.1 1.1.3 1.52a3 3 0 0 0 .76 1.05c.34.27.73.46 1.17.6a6.13 6.13 0 0 0 1.45.17 7.28 7.28 0 0 0 3.5-.81 11.95 11.95 0 0 0 2.82-2.2v-4.62zm-12.65-9.11a12.73 12.73 0 0 1 3.98-2.66c1.43-.59 3-.88 4.73-.88 1.25 0 2.36.2 3.33.61a6.81 6.81 0 0 1 3.94 4.38c.33 1.04.5 2.19.5 3.43V93h-1.74a1.8 1.8 0 0 1-.88-.18c-.2-.13-.36-.38-.48-.74l-.44-2.12-1.72 1.46a9.48 9.48 0 0 1-3.74 1.7c-.69.15-1.46.23-2.3.23-.87 0-1.69-.12-2.45-.35a5.34 5.34 0 0 1-3.34-2.93 6.64 6.64 0 0 1-.49-2.64c0-.88.25-1.72.73-2.53a6.33 6.33 0 0 1 2.35-2.17c1.09-.63 2.5-1.15 4.25-1.54 1.75-.41 3.89-.65 6.42-.7v-1.75c0-1.73-.37-3.03-1.12-3.91-.75-.9-1.84-1.34-3.28-1.34-.97 0-1.78.12-2.44.37-.64.23-1.2.5-1.7.81l-1.23.82c-.33.23-.67.35-1 .35-.27 0-.5-.07-.69-.2a2.1 2.1 0 0 1-.48-.53l-.7-1.25zm27.67 19.5c-1.76 0-3.12-.5-4.07-1.48-.94-.98-1.41-2.4-1.41-4.25V74h-2.68a.9.9 0 0 1-.6-.2c-.16-.14-.24-.36-.24-.66v-1.56l3.65-.46.9-6.89a.9.9 0 0 1 .29-.52.88.88 0 0 1 .62-.22H142v7.67h6.44V74H142v13.38c0 .94.22 1.63.68 2.09.45.45 1.04.68 1.76.68a3.21 3.21 0 0 0 1.85-.53l.55-.35c.16-.12.3-.18.41-.18.2 0 .4.13.55.38l1.15 1.87a7.45 7.45 0 0 1-2.44 1.5 8.53 8.53 0 0 1-2.95.52zm19.68-10.4c-1.8.07-3.34.21-4.62.45-1.26.22-2.3.51-3.1.88-.8.36-1.37.8-1.74 1.3-.35.5-.53 1.05-.53 1.67 0 .58.1 1.1.3 1.52a2.9 2.9 0 0 0 .76 1.05c.34.27.73.46 1.17.6a6.13 6.13 0 0 0 1.45.17 7.3 7.3 0 0 0 3.5-.81 12.04 12.04 0 0 0 2.82-2.2v-4.62zm-12.65-9.1a12.72 12.72 0 0 1 3.99-2.66c1.42-.59 3-.88 4.72-.88 1.25 0 2.36.2 3.33.61a6.81 6.81 0 0 1 3.94 4.38c.33 1.04.5 2.19.5 3.43V93h-1.74a1.8 1.8 0 0 1-.88-.18c-.2-.13-.36-.38-.48-.74l-.44-2.12-1.72 1.46a9.48 9.48 0 0 1-3.74 1.7c-.69.15-1.46.23-2.3.23-.87 0-1.69-.12-2.45-.35a5.33 5.33 0 0 1-3.34-2.93 6.62 6.62 0 0 1-.49-2.64c0-.88.25-1.72.73-2.53a6.33 6.33 0 0 1 2.35-2.17c1.09-.63 2.5-1.15 4.25-1.54a31.2 31.2 0 0 1 6.42-.7v-1.75c0-1.73-.37-3.03-1.12-3.91-.75-.9-1.84-1.34-3.28-1.34-.97 0-1.78.12-2.44.37-.64.23-1.2.5-1.7.81l-1.22.82c-.34.23-.68.35-1.02.35-.26 0-.49-.07-.68-.2a1.88 1.88 0 0 1-.48-.53l-.7-1.25z" fill="#fff"/><path fill="#D42B21" d="M0 106.79h210V120H0z"/></g><defs><clipPath id="a"><path fill="#fff" d="M0 0h210v120H0z"/></clipPath></defs></svg></g><a href="https://ourworldindata.org/grapher/share-of-dietary-energy-supply-from-fats-vs-gdp-per-capita" style="font-family:&quot;Playfair Display&quot;,Georgia,&quot;Times New Roman&quot;,serif" target="_blank" rel="noopener"><text font-size="21.6" x="15" y="32.3" fill="#555"><tspan x="15" y="32.28">Share of dietary energy supply from fats vs. GDP per capita, 1990 to 2013</tspan></text></a><text font-size="14.4" x="15" y="52.1" fill="#666"><tspan x="15" y="52.12">The share of per capita dietary energy derived from fats, measured as the daily caloric supply from fat as a</tspan><tspan x="15" y="69.4">percentage of total caloric supply, versus gross domestic product (GDP) per capita measured in constant</tspan><tspan x="15" y="86.68">international-$.</tspan></text></g><g class="ScatterPlot"><g class="DualAxisView"><g class="HorizontalAxis"><text font-size="12.6" x="323.3" y="531.2"><tspan x="323.33" y="531.18">GDP per capita</tspan></text><text x="179.8" y="511.1" fill="#666" text-anchor="middle" font-size="16.2">$20,000</text><text x="286.8" y="511.1" fill="#666" text-anchor="middle" font-size="16.2">$40,000</text><text x="393.7" y="511.1" fill="#666" text-anchor="middle" font-size="16.2">$60,000</text><text x="500.7" y="511.1" fill="#666" text-anchor="middle" font-size="16.2">$80,000</text><text x="607.7" y="511.1" fill="#666" text-anchor="middle" font-size="16.2">$100,000</text><text x="718.09" y="511.1" fill="#666" text-anchor="end" font-size="16.2">$120,000</text></g><g class="VerticalAxis"><text font-size="12.6" x="-411.1" y="25.1" transform="rotate(-90)"><tspan x="-411.06" y="25.08">Share of dietary energy from fats</tspan></text><text x="70.16" y="461.7" dy=".32em" text-anchor="end" fill="#666" font-size="16.2">10%</text><text x="70.16" y="408.7" dy=".32em" text-anchor="end" fill="#666" font-size="16.2">15%</text><text x="70.16" y="355.7" dy=".32em" text-anchor="end" fill="#666" font-size="16.2">20%</text><text x="70.16" y="302.6" dy=".32em" text-anchor="end" fill="#666" font-size="16.2">25%</text><text x="70.16" y="249.6" dy=".32em" text-anchor="end" fill="#666" font-size="16.2">30%</text><text x="70.16" y="196.5" dy=".32em" text-anchor="end" fill="#666" font-size="16.2">35%</text><text x="70.16" y="143.5" dy=".32em" text-anchor="end" fill="#666" font-size="16.2">40%</text></g><g class="AxisGridLines horizontalLines" stroke="#ddd" stroke-dasharray="3,2"><path d="M75.16 461.7h642.93M75.16 408.7h642.93M75.16 355.7h642.93M75.16 302.6h642.93M75.16 249.6h642.93M75.16 196.5h642.93M75.16 143.5h642.93"/></g><g class="AxisGridLines verticalLines" stroke="#ddd" stroke-dasharray="3,2"><path d="M179.8 489.9V104.2M286.8 489.9V104.2M393.7 489.9V104.2M500.7 489.9V104.2M607.7 489.9V104.2M714.6 489.9V104.2"/></g></g><g class="PointsWithLabels clickable" clip-path="url(#b)"><path fill="rgba(255,255,255,0)" d="M75.16 104.2h642.93v385.7H75.16z"/><defs><clipPath id="b"><path d="M65.16 94.2h662.93v405.7H65.16z"/></clipPath></defs><g class="key-China"><circle cx="80" cy="363" r="1.9" fill="#2D8587" opacity=".7"/><path stroke-width="2" opacity=".7" stroke="#2D8587" fill="none" stroke-linecap="butt" d="m80 363 1-10 1-2 1-6 1-11 1-1 1 1 1-3 1-9 2-5 1-7 1 1 2-5 2-6 2-1 3-5 3-9 5-4 3 1 4-8 4-1 4 3 4-3h4"/><path cx="132" cy="273" r="3.5" fill="#2D8587" opacity=".7" d="m128.5 269.5 7 3.5-7 3.5z"/></g><g class="key-India"><circle cx="82" cy="396" r="1.8" fill="#2D8587" opacity=".7"/><path stroke-width="1.92" opacity=".7" stroke="#2D8587" fill="none" stroke-linecap="butt" d="M82 396v6-2l1 1v-6l1-4v-11l1-1v9l1-8v4l1 2v-7h1l1-5 1-7 1-1 1-1v8l2-12 1 5 1-1 1-4 1 4"/><path cx="98" cy="365" r="3.42" fill="#2D8587" opacity=".7" d="m100.49 360.85-1.66 7.47-4.98-5.8z"/></g><g class="key-United-States"><circle cx="289" cy="187" r="1.4" fill="#E04E4B" opacity=".7"/><path stroke-width=".95" opacity=".7" stroke="#E04E4B" fill="none" stroke-linecap="butt" d="m289 187-3-1h4l3 2 6 1 3 4 6 9h8l8-7 9-8 7-12v-6l3-5 5 2 8-4 7-6 6 1 2-4-3-2-10-1 5-1 2-5 5 3 3 1"/><path cx="373" cy="148" r="2.45" fill="#E04E4B" opacity=".7" d="m371.45 144.9 3.87 3.87-5.42.78z"/></g><g class="key-Indonesia"><circle cx="97" cy="396" r="1.4" fill="#2D8587" opacity=".7"/><path stroke-width=".85" opacity=".7" stroke="#2D8587" fill="none" stroke-linecap="butt" d="m97 396 1-6h1l1 3h2l2 1 2 1 1 6-5 3v-3l1-6v-3l1-2 2-10 1 2 1-4 2-1 2-9 1 6 2 1 2-3 2-1 2 2 2-4"/><path cx="123" cy="369" r="2.35" fill="#2D8587" opacity=".7" d="m119.85 370.05 4.2-3.15v5.25z"/></g><g class="key-Brazil"><circle cx="129" cy="294" r="1.3" fill="#932834" opacity=".7"/><path stroke-width=".76" opacity=".7" stroke="#932834" fill="none" stroke-linecap="butt" d="m129 294-1-10-1 5 2 6 2 1 2-4v-1l1-10-1-4v-32l1-8v2h1v6l3-3 2 8 1-7 4-5 3-5-1 1 5-1 2-2 1-7 2-1"/><path cx="157" cy="223" r="2.26" fill="#932834" opacity=".7" d="M153.97 221.99h5.05l-3.03 4.04z"/></g><g class="key-Pakistan"><circle cx="88" cy="337" r="1.3" fill="#2D8587" opacity=".7"/><path stroke-width=".74" opacity=".7" stroke="#2D8587" fill="none" stroke-linecap="butt" d="M88 337v-9l1-12v-4 18-23l1 2-1 10v-14l1 6v-25l1 8 1-7 1-5v-5 3-6h1"/><path cx="94" cy="274" r="2.24" fill="#2D8587" opacity=".7" d="m91.76 271.76 4.48 2.24-4.48 2.24z"/></g><g class="key-Nigeria"><circle cx="90" cy="337" r="1.3" fill="#923E8B" opacity=".7"/><path stroke-width=".7" opacity=".7" stroke="#923E8B" fill="none" stroke-linecap="butt" d="m90 337-1 11 1 2-1-6h-1v9-5 1-6 6l1-10 2-3 1-2h1l1-2v-1l1 5 1 3 1 23 2 1v1l1-3 1 7"/><path cx="101" cy="368" r="2.2" fill="#923E8B" opacity=".7" d="m102.87 365.51-1.56 4.67-2.8-4.05z"/></g><g class="key-Bangladesh"><circle cx="80" cy="489" r="1.3" fill="#2D8587" opacity=".7"/><path stroke-width=".66" opacity=".7" stroke="#2D8587" fill="none" stroke-linecap="butt" d="m80 489 1-8v-12 8-6l1-2v-39 36l1-14v17l1-7v-3l1-2v-7l1 4 1 3v-5l1 3 1-4v-2l1 2"/><path cx="90" cy="451" r="2.16" fill="#2D8587" opacity=".7" d="M90.97 448.1v4.83l-3.87-2.9z"/></g><g class="key-Russia"><circle cx="187" cy="269" r="1.3" fill="#4C5C78" opacity=".7"/><path stroke-width=".64" opacity=".7" stroke="#4C5C78" fill="none" stroke-linecap="butt" d="m187 269-6 19-16 15-8-1-10-1-3 4-3 5 1-3-4 3 5 9 7-5 5-4 4-1 7-5 7-1h7l9-3 10-4 6-3-10-5 6-9 5-1 5-4 2-7"/><path cx="213" cy="267" r="2.14" fill="#4C5C78" opacity=".7" d="m210.35 268.47 3.24-3.53.88 4.7z"/></g><g class="key-Japan"><circle cx="249" cy="298" r="1.3" fill="#2D8587" opacity=".7"/><path stroke-width=".61" opacity=".7" stroke="#2D8587" fill="none" stroke-linecap="butt" d="m249 298 5-3 1-2-2-1 2-4h4l5-10 2-2-3-1h-1l5-5v1h2l4-7 4-2 3-2 2 6-2-9-12 5 8-6v4l4 3 4 1"/><path cx="284" cy="264" r="2.11" fill="#2D8587" opacity=".7" d="m282.46 261.44 3.59 3.07-4.6 1.03z"/></g><g class="key-Mexico"><circle cx="152" cy="326" r="1.3" fill="#E04E4B" opacity=".7"/><path stroke-width=".58" opacity=".7" stroke="#E04E4B" fill="none" stroke-linecap="butt" d="m152 326 2-15 2 1v-4l2-2-6 2 4-5 4-4h3l1 6 3 1-1-1-2-6v2l3-8 1-9 2 7 1-4v-2l-7 1 4-3 2-9 2 7v-4"/><path cx="172" cy="277" r="2.08" fill="#E04E4B" opacity=".7" d="m169.92 279.08 2.08-4.16 2.08 4.16z"/></g><g class="key-Philippines"><circle cx="95" cy="395" r="1.3" fill="#2D8587" opacity=".7"/><path stroke-width=".53" opacity=".7" stroke="#2D8587" fill="none" stroke-linecap="butt" d="m95 395-1-11v6-6l1 4v-1l1-1-1-2 1-17v10l1 3h1l1 6v5l1-7 2-4v4-7l2-3 1-2 1 1 2 4"/><path cx="108" cy="377" r="2.03" fill="#2D8587" opacity=".7" d="M108.9 374.28v4.54l-3.62-2.73z"/></g><g class="key-Ethiopia"><circle cx="76" cy="427" r="1.3" fill="#923E8B" opacity=".7"/><path stroke-width=".52" opacity=".7" stroke="#923E8B" fill="none" stroke-linecap="butt" d="M76 427v1-4 42-3 7-2 9-12l1-2v-2 2l1-6v-14l1 14v-10l1-3v8l1-1"/><path cx="81" cy="451" r="2.02" fill="#923E8B" opacity=".7" d="m78.14 451 4.29-1.43-1.43 4.29z"/></g><g class="key-Vietnam"><circle cx="81" cy="438" r="1.3" fill="#2D8587" opacity=".7"/><path stroke-width=".51" opacity=".7" stroke="#2D8587" fill="none" stroke-linecap="butt" d="m81 438 1-4v-5l1-1 1-7v-9l1-4h1l1-2v-6l1 2 1-8 1-6 1-3 1-10 1-15 2-17 1-5 1-7 1-12 2 1 1-7 1 5 1-1"/><path cx="103" cy="317" r="2.01" fill="#2D8587" opacity=".7" d="m100.16 317 4.26-1.42-1.42 4.26z"/></g><g class="key-Egypt"><circle cx="105" cy="401" r="1.3" fill="#923E8B" opacity=".7"/><path stroke-width=".5" opacity=".7" stroke="#923E8B" fill="none" stroke-linecap="butt" d="M105 401v2h1v2l1-1 1 5 1 3 2-4 1-2 2-1v5l1-4v-6l1 7 1-2h3l2-8 3 1 1 4 2-4-1-3v-1 2"/><path cx="127" cy="396" r="2" fill="#923E8B" opacity=".7" d="m129 394-2 4-2-4z"/></g><g class="key-Albania"><circle cx="98" cy="341" r="1.3" fill="#4C5C78" opacity=".7"/><path stroke-width=".5" opacity=".7" stroke="#4C5C78" fill="none" stroke-linecap="butt" d="m98 341-7-28-1 3 2-2 1 5 3-26 3-4-3 22 2-6h4l2-1 3-9 1 2 3-13 2-20 2 9 3-12 3 2 4-5 3-16 2 9 1 3 1-4 1-1"/><path cx="133" cy="249" r="2" fill="#4C5C78" opacity=".7" d="m130.17 249 4.24-1.41-1.41 4.24z"/></g><g class="key-Algeria"><circle cx="119" cy="328" r="1.3" fill="#923E8B" opacity=".7"/><path stroke-width=".5" opacity=".7" stroke="#923E8B" fill="none" stroke-linecap="butt" d="m119 328-2 6v-9l-2 6-1 6 1-5 1 24v-17l1 8 1-3 1 1 1-9 2 18 3 17 1-8 3 6v-17l1 5v9l1-9 1-15v4h1"/><path cx="133" cy="346" r="2" fill="#923E8B" opacity=".7" d="m131 344 4 2-4 2z"/></g><g class="key-Angola"><circle cx="103" cy="304" r="1.3" fill="#923E8B" opacity=".7"/><path stroke-width=".5" opacity=".7" stroke="#923E8B" fill="none" stroke-linecap="butt" d="M103 304v13l-3 8-7 15-1 29 3-5 2-10 1 7v-2 9-7 1l2 6v-9l2 6 4-5 2 2 4-1h2l-1 2 1 2-1-6 2-3 1 5"/><path cx="116" cy="361" r="2" fill="#923E8B" opacity=".7" d="m117.57 358.65-1.18 4.31-2.74-3.53z"/></g><g class="key-Antigua-and-Barbuda"><circle cx="155" cy="189" r="1.3" fill="#E04E4B" opacity=".7"/><path stroke-width=".5" opacity=".7" stroke="#E04E4B" fill="none" stroke-linecap="butt" d="m155 189 1-22-1 33 3 9 4 40h-6l4-9 2-11 3 1 1-5 4 9-6-1v-6l4-1 5 3 5 5 11-5 9 2-2 4-16-9-10-1-3-8 1-25-1 20"/><path cx="167" cy="212" r="2" fill="#E04E4B" opacity=".7" d="m169.1 210.1-2.2 3.9-1.8-4.1z"/></g><g class="key-Argentina"><circle cx="148" cy="241" r="1.3" fill="#932834" opacity=".7"/><path stroke-width=".5" opacity=".7" stroke="#932834" fill="none" stroke-linecap="butt" d="m148 241 6-6 5-12 6-8 4 1-4 8 4 4 7 1 3-8-5-2-2 7-5 1-12 22 7 4 7-5 7-10h8l8-7h4l-9-2 11-2 6 1-3-4 2-1"/><path cx="203" cy="223" r="2" fill="#932834" opacity=".7" d="M200.32 222.1h4.47l-2.68 3.58z"/></g><g class="key-Armenia"><circle cx="100" cy="269" r="1.3" fill="#2D8587" opacity=".7"/><path stroke-width=".5" opacity=".7" stroke="#2D8587" fill="none" stroke-linecap="butt" d="m100 269-3 19-10 142-1 12 1-45 1-14 2 3 2 24 1-3 1-16 2-6 4-24 4-19 3 16 5-16 6-5 6-35 4-6-7 8 1-19 2-3 4-24 2-6"/><path cx="130" cy="252" r="2" fill="#2D8587" opacity=".7" d="m127.47 253.26 3.16-3.16.63 4.43z"/></g><g class="key-Australia"><circle cx="238" cy="180" r="1.3" fill="#A8633C" opacity=".7"/><path stroke-width=".5" opacity=".7" stroke="#A8633C" fill="none" stroke-linecap="butt" d="m238 180-2-5-2-10 5-4 5 8 4 12 5-1 5-4 6-4 7-18 6-2 1-5 6 13 4 4 6-16 4-4 3-11 7 5 4 9-1-7 2-6 2-5 5-8 2 7"/><path cx="322" cy="128" r="2" fill="#A8633C" opacity=".7" d="m323.37 125.53-.82 4.4-3.02-3.3z"/></g><g class="key-Austria"><circle cx="273" cy="142" r="1.3" fill="#4C5C78" opacity=".7"/><path stroke-width=".5" opacity=".7" stroke="#4C5C78" fill="none" stroke-linecap="butt" d="m273 142 5-2 2-7-1 1 4 7 6 11 4-4 5-9 8 15 7 5 8 1 2-4 3 8 1 3 5-12 5 13 7-17 10 1h3l-12-15 5-6 7 12v-4l-1-4"/><path cx="356" cy="135" r="2" fill="#4C5C78" opacity=".7" d="m354.54 137.43.97-4.37 2.92 3.4z"/></g><g class="key-Azerbaijan"><circle cx="113" cy="269" r="1.3" fill="#2D8587" opacity=".7"/><path stroke-width=".5" opacity=".7" stroke="#2D8587" fill="none" stroke-linecap="butt" d="m113 269-1 19-9 118-8 7-4-14-3 1v-12l1 24 2 1 1-10 2 9 2-1 2-3 2-14 2-8 8 13 13 11 12 6 5-4 5-13 3-14h-1l4 1"/><path cx="151" cy="386" r="2" fill="#2D8587" opacity=".7" d="m149.54 383.57 3.4 2.92-4.37.97z"/></g><g class="key-Bahamas"><circle cx="276" cy="262" r="1.3" fill="#E04E4B" opacity=".7"/><path stroke-width=".5" opacity=".7" stroke="#E04E4B" fill="none" stroke-linecap="butt" d="m276 262-12-25-11 13-2-2 2 9 5 33 5-5 11-35-11-6 21-6 5 7 3-7 2-5-7 9-2-7 3-1 2-2-1-5-9-5-12-12v4l-1 9 3-29-9 12"/><path cx="261" cy="206" r="2" fill="#E04E4B" opacity=".7" d="m263.8 205.6-4 2 .8-4.4z"/></g><g class="key-Barbados"><circle cx="147" cy="235" r="1.3" fill="#E04E4B" opacity=".7"/><path stroke-width=".5" opacity=".7" stroke="#E04E4B" fill="none" stroke-linecap="butt" d="m147 235-3 4-4-5v1l1 1 1-7 3 15 3-22 2 18v9l3 9-2 17v-1l2 4 1-6 3-4 4 4 2-2v-5l-5-2-2 5-1 8-1 6-1-2"/><path cx="153" cy="280" r="2" fill="#E04E4B" opacity=".7" d="M152.1 282.68v-4.47l3.58 2.68z"/></g><g class="key-Belarus"><circle cx="120" cy="269" r="1.3" fill="#4C5C78" opacity=".7"/><path stroke-width=".5" opacity=".7" stroke="#4C5C78" fill="none" stroke-linecap="butt" d="m120 269-1 19-4-5-4-1-4-12-4 10 1-2 4-1 3-11 2-12 2 5 3-19 2-1 4 11 6 4 6-15 7-19 6-7 9-1v17l7-32 5-7 2 10 1-14"/><path cx="173" cy="186" r="2" fill="#4C5C78" opacity=".7" d="m170.86 187.85 2.28-3.84 1.71 4.13z"/></g><g class="key-Belgium"><circle cx="262" cy="155" r="1.3" fill="#4C5C78" opacity=".7"/><path stroke-width=".5" opacity=".7" stroke="#4C5C78" fill="none" stroke-linecap="butt" d="m262 155 3-8 2 8-2-8 5-1 4-3 3 1 7 4 4 2 7 3 7-1 2-5 3-2 2 6 7 4 4-7 5-1 7-4-1 6-7 7 5-4 1-15v15"/><path cx="330" cy="152" r="2" fill="#4C5C78" opacity=".7" d="m328 150 4 2-4 2z"/></g><g class="key-Belize"><circle cx="98" cy="317" r="1.3" fill="#E04E4B" opacity=".7"/><path stroke-width=".5" opacity=".7" stroke="#E04E4B" fill="none" stroke-linecap="butt" d="m98 317 3-1 3-5 1 5-1-8v-1l-1 9v-8 18l2 10 3-8v11l1-10 2-4 1 14v-14l1-3-1 12v-9l-1-2v-30 12"/><path cx="111" cy="305" r="2" fill="#E04E4B" opacity=".7" d="m113 303-2 4-2-4z"/></g><g class="key-Benin"><circle cx="84" cy="382" r="1.3" fill="#923E8B" opacity=".7"/><path stroke-width=".5" opacity=".7" stroke="#923E8B" fill="none" stroke-linecap="butt" d="M84 382v13-8 18-10l1 5v1-11l1-6v-30 25-8 29l1-7v-15 14-8 6-6l1 2"/><path cx="88" cy="386" r="2" fill="#923E8B" opacity=".7" d="M88.9 383.32v4.47l-3.58-2.68z"/></g><g class="key-Bermuda"><circle cx="425" cy="143" r="1.3" fill="#E04E4B" opacity=".7"/><path stroke-width=".5" opacity=".7" stroke="#E04E4B" fill="none" stroke-linecap="butt" d="m425 143-11 28 3-5 8-4v51l13 2 7-4 15-20 12-5 11 10 34-11 27-12-10-11 13-24 8 19 5-9 24 1 14-7-13-8-31 12-9-5-14-3-26-4-2 42"/><path cx="503" cy="176" r="2" fill="#E04E4B" opacity=".7" d="m505.1 174.1-2.2 3.9-1.8-4.1z"/></g><g class="key-Bolivia"><circle cx="97" cy="379" r="1.3" fill="#932834" opacity=".7"/><path stroke-width=".5" opacity=".7" stroke="#932834" fill="none" stroke-linecap="butt" d="m97 379 1 2v-10 8l1-11v-2l1-18h1l1 14-1 7v8-8l1-7v-5l1 1 1-1 1-9 1-6 1 17 1-5 1-9 1-6 2 3"/><path cx="112" cy="342" r="2" fill="#932834" opacity=".7" d="m112.55 339.23.56 4.43-3.88-2.21z"/></g><g class="key-Bosnia-and-Herzegovina"><circle cx="81" cy="426" r="1.3" fill="#4C5C78" opacity=".7"/><path stroke-width=".5" opacity=".7" stroke="#4C5C78" fill="none" stroke-linecap="butt" d="m81 426 2-8 10-41 8 11 4 2 4-21 4-5 1-13 2 11 2 10 3-3 1-15 3-2 3-3 3-3-1 4 1-12 1 2 1-4 2 14"/><path cx="135" cy="350" r="2" fill="#4C5C78" opacity=".7" d="m136.7 347.74-1.42 4.24-2.54-3.68z"/></g><g class="key-Botswana"><circle cx="117" cy="323" r="1.3" fill="#923E8B" opacity=".7"/><path stroke-width=".5" opacity=".7" stroke="#923E8B" fill="none" stroke-linecap="butt" d="m117 323 2-24v45l1 19 2-27 1-4 3 1-1 6 4-3v6l-1 11h3l1-4 1-27 1-21 4 27 4-6 3 3-7-9 5 15 3-18 2-12 8-5"/><path cx="156" cy="296" r="2" fill="#923E8B" opacity=".7" d="m153.24 295.36 4.46-.42-2.34 3.82z"/></g><g class="key-Brunei"><circle cx="453" cy="304" r="1.3" fill="#2D8587" opacity=".7"/><path stroke-width=".5" opacity=".7" stroke="#2D8587" fill="none" stroke-linecap="butt" d="m453 304 1 15 7 8-9-2 1-10 7 10 1 2-15-15-10-22 3 17 3 10 2 10 7-28 4 2-5 8-4 1 11 9-5-12-11-11-11 10 5-3 8-3-1 2-13 1"/><path cx="429" cy="303" r="2" fill="#2D8587" opacity=".7" d="m431.15 304.84-4.14-1.69 3.83-2.3z"/></g><g class="key-Bulgaria"><circle cx="139" cy="259" r="1.3" fill="#4C5C78" opacity=".7"/><path stroke-width=".5" opacity=".7" stroke="#4C5C78" fill="none" stroke-linecap="butt" d="m139 259-5 6-4-21v3l1 19 2-1 4-4-9 1 2-19-4 19 3-8 3 1 5-5 4-9 5-3 5-6 6 14 7-6 6 10-3-11 3-4 2 8 2 1v6"/><path cx="174" cy="250" r="2" fill="#4C5C78" opacity=".7" d="m176 248-2 4-2-4z"/></g><g class="key-Burkina-Faso"><circle cx="78" cy="365" r="1.3" fill="#923E8B" opacity=".7"/><path stroke-width=".5" opacity=".7" stroke="#923E8B" fill="none" stroke-linecap="butt" d="M78 365v16-22 4l1 2v1-7 3-8l1 6v-20 2l1 13v8-16 9l1-11v6"/><path cx="82" cy="351" r="2" fill="#923E8B" opacity=".7" d="m84 349-2 4-2-4z"/></g><g class="key-Cambodia"><circle cx="82" cy="432" r="1.3" fill="#2D8587" opacity=".7"/><path stroke-width=".5" opacity=".7" stroke="#2D8587" fill="none" stroke-linecap="butt" d="m82 432-4 5 1 2v-11 7l1-2v3l1-5v2l1-3h1l1-5 1-3 1 2v6l1 6 1-3 1 3v-7"/><path cx="89" cy="429" r="2" fill="#2D8587" opacity=".7" d="m87 431 2-4 2 4z"/></g><g class="key-Cameroon"><circle cx="90" cy="368" r="1.3" fill="#923E8B" opacity=".7"/><path stroke-width=".5" opacity=".7" stroke="#923E8B" fill="none" stroke-linecap="butt" d="m90 368-1 6-1 8-1-5-1-2v3l1 3v4-18l1-6v19-19l1-5v2l1 4v-3 4"/><path cx="90" cy="363" r="2" fill="#923E8B" opacity=".7" d="m88 361 4 2-4 2z"/></g><g class="key-Central-African-Republic"><circle cx="79" cy="263" r="1.3" fill="#923E8B" opacity=".7"/><path stroke-width=".5" opacity=".7" stroke="#923E8B" fill="none" stroke-linecap="butt" d="M79 263v10l-1 5v2-18 31-25 10-34 15-20l1 10v35l-2-19"/><path cx="77" cy="265" r="2" fill="#923E8B" opacity=".7" d="m75.22 267.2 1.57-4.19 2.4 3.77z"/></g><g class="key-Chad"><circle cx="78" cy="341" r="1.3" fill="#923E8B" opacity=".7"/><path stroke-width=".5" opacity=".7" stroke="#923E8B" fill="none" stroke-linecap="butt" d="M78 341v-41l-1-8 1 44-1-60v1-24l1 22-1-12v5l1 4v-9 23h2l1 9v37-8 12l1 3-1-2 1 23v-6"/><path cx="82" cy="354" r="2" fill="#923E8B" opacity=".7" d="m80 356 2-4 2 4z"/></g><g class="key-Chile"><circle cx="125" cy="334" r="1.3" fill="#932834" opacity=".7"/><path stroke-width=".5" opacity=".7" stroke="#932834" fill="none" stroke-linecap="butt" d="m125 334 3-11 5-2 3-9 3-5 4-10 4-1 5 2 2-4-1 2 3-9 2 1 2 1 2-5 6 7 4 11 5-15 4-7 3 7-3 4 5 6 6-4 5-3 4-9"/><path cx="201" cy="281" r="2" fill="#932834" opacity=".7" d="m198.36 282.02 3.45-2.85.2 4.47z"/></g><g class="key-Colombia"><circle cx="117" cy="350" r="1.3" fill="#932834" opacity=".7"/><path stroke-width=".5" opacity=".7" stroke="#932834" fill="none" stroke-linecap="butt" d="M117 350v-1l1 5 1-10 2-5 2-3v-7l1 3-1-5-3 3 1-14v4-4l1 3 2 2 2-11 3-3 3 2 1-4 2-17 4 1 2-1h3"/><path cx="144" cy="288" r="2" fill="#932834" opacity=".7" d="m142 286 4 2-4 2z"/></g><g class="key-Congo"><circle cx="99" cy="369" r="1.3" fill="#923E8B" opacity=".7"/><path stroke-width=".5" opacity=".7" stroke="#923E8B" fill="none" stroke-linecap="butt" d="M99 369v-59l-1 25-2 5 1 10v-17l-1 11v6l-1-14 1-3v-7l1-3-1 9v10l1 12 1-17-2 10v17l2 3 2-2v-11l2 20-1-10"/><path cx="101" cy="364" r="2" fill="#923E8B" opacity=".7" d="m99.2 366.19 1.6-4.18 2.39 3.78z"/></g><g class="key-Costa-Rica"><circle cx="125" cy="316" r="1.3" fill="#E04E4B" opacity=".7"/><path stroke-width=".5" opacity=".7" stroke="#E04E4B" fill="none" stroke-linecap="butt" d="M125 316v-6l4-10 2 10 1-3 1-12v-6l1 18 3 7 2-3 1-10 1 4 1-9h2l2-12 2 4 4-7 6-6 3-2h-2l3 4 3-1 4-9 1-3"/><path cx="170" cy="264" r="2" fill="#E04E4B" opacity=".7" d="m167.47 265.26 3.16-3.16.63 4.43z"/></g><g class="key-Cote-d__0027Ivoire"><circle cx="95" cy="387" r="1.3" fill="#923E8B" opacity=".7"/><path stroke-width=".5" opacity=".7" stroke="#923E8B" fill="none" stroke-linecap="butt" d="m95 387-1 4v1l-1 10-1-12 1-7 1-9 1-3 1 10-1-7v-1l-1-5-2 2-1-4v8-1 8-1 16l1-13 1 7-2-20 1 1 2-6"/><path cx="94" cy="365" r="2" fill="#923E8B" opacity=".7" d="m91.47 366.26 3.16-3.16.63 4.43z"/></g><g class="key-Croatia"><circle cx="153" cy="293" r="1.3" fill="#4C5C78" opacity=".7"/><path stroke-width=".5" opacity=".7" stroke="#4C5C78" fill="none" stroke-linecap="butt" d="m153 293 6 6h6l2 12v-35l4-11 7 15 5-12 7 5 4-34 6-16 6-13 6-15 3-5-10 24-2 18h1l-3-28v-6"/><path cx="201" cy="198" r="2" fill="#4C5C78" opacity=".7" d="m199 200 2-4 2 4z"/></g><g class="key-Cyprus"><circle cx="207" cy="209" r="1.3" fill="#4C5C78" opacity=".7"/><path stroke-width=".5" opacity=".7" stroke="#4C5C78" fill="none" stroke-linecap="butt" d="m207 209-2-37 8 33-2-16 5-9 10 19-1-18 2-4 7 14 6 5 9-21 5-9 4 15 3-2 7-2 6-23 6-25 6 32 2-8-10-13-1 12-4-20-10 11-12 11"/><path cx="251" cy="154" r="2" fill="#4C5C78" opacity=".7" d="m253.83 154.12-4.3 1.23 1.6-4.18z"/></g><g class="key-Czechia"><circle cx="183" cy="205" r="1.3" fill="#4C5C78" opacity=".7"/><path stroke-width=".5" opacity=".7" stroke="#4C5C78" fill="none" stroke-linecap="butt" d="m183 205 4 35 7 9 5-1v-20l1-10 6 4 5 2 2 3 5-6 7 11 10-33 10-33 9 8 3-9-9 5 3-4 3 10-1-12-1 1"/><path cx="252" cy="165" r="2" fill="#4C5C78" opacity=".7" d="m254.83 165-4.24 1.41 1.41-4.24z"/></g><g class="key-Denmark"><circle cx="281" cy="175" r="1.3" fill="#4C5C78" opacity=".7"/><path stroke-width=".5" opacity=".7" stroke="#4C5C78" fill="none" stroke-linecap="butt" d="m281 175 2 10 4-21-1 12 11 5 5-8 6 7 6 22 5-12h6l9-9 1-2 1 19v-2l6-5 6-8 10 18 1 5-3-4-16-10 4 9 3-8-1-10 2 3"/><path cx="348" cy="186" r="2" fill="#4C5C78" opacity=".7" d="m348.55 183.23.56 4.43-3.88-2.21z"/></g><g class="key-Dominica"><circle cx="114" cy="295" r="1.3" fill="#E04E4B" opacity=".7"/><path stroke-width=".5" opacity=".7" stroke="#E04E4B" fill="none" stroke-linecap="butt" d="m114 295 1 7 1-11v13l1 14 2-12h1l2 5v2l2-14-2-5 3 10h2v9l2 5h4l4-8-1 17 1-9-1-1v-2l-1 6"/><path cx="135" cy="321" r="2" fill="#E04E4B" opacity=".7" d="m137.3 319.36-2.63 3.61-1.31-4.27z"/></g><g class="key-Dominican-Republic"><circle cx="106" cy="265" r="1.3" fill="#E04E4B" opacity=".7"/><path stroke-width=".5" opacity=".7" stroke="#E04E4B" fill="none" stroke-linecap="butt" d="m106 265-1 34 3-8 2-5v-8l2-7 2-4 3-14 2-11 2-11h1l1 15 1 6-1-15v-7l4 18 5-4 3-7 1-13v6l5 5 1-8 1 7 3 7"/><path cx="146" cy="241" r="2" fill="#E04E4B" opacity=".7" d="m147.05 238.37-.26 4.47-3.42-2.89z"/></g><g class="key-Ecuador"><circle cx="117" cy="251" r="1.3" fill="#932834" opacity=".7"/><path stroke-width=".5" opacity=".7" stroke="#932834" fill="none" stroke-linecap="butt" d="m117 251 1-9-1 8v21l1 15v-49l1-8 1 2-4 5v2l1-4 1-23 1 1 2-9 2-1 2-4v-15l2-6v16l1 3 3-3 3 3 2-14"/><path cx="136" cy="182" r="2" fill="#932834" opacity=".7" d="m133.74 183.7 2.54-3.68 1.42 4.24z"/></g><g class="key-El-Salvador"><circle cx="101" cy="362" r="1.3" fill="#E04E4B" opacity=".7"/><path stroke-width=".5" opacity=".7" stroke="#E04E4B" fill="none" stroke-linecap="butt" d="M101 362v10l1-6 2-1 1-3 1 7v4l1-17v-10l1 4v-8 9l1-12 2-4v-3l1 19-1-11 1 7 1-1 1 3 1-12"/><path cx="115" cy="337" r="2" fill="#E04E4B" opacity=".7" d="m112.84 338.83 2.33-3.82 1.66 4.15z"/></g><g class="key-Estonia"><circle cx="140" cy="273" r="1.3" fill="#4C5C78" opacity=".7"/><path stroke-width=".5" opacity=".7" stroke="#4C5C78" fill="none" stroke-linecap="butt" d="m140 273 5 9 10-5 5-16-1-8 8 43 7-8 7-31 9-5 9 12 13 27 14-7 13 6-8 7-23-2 4 7 10 7 5-20 3 12"/><path cx="230" cy="301" r="2" fill="#4C5C78" opacity=".7" d="m231.46 298.57-.97 4.37-2.92-3.4z"/></g><g class="key-Eswatini"><circle cx="100" cy="382" r="1.3" fill="#923E8B" opacity=".7"/><path stroke-width=".5" opacity=".7" stroke="#923E8B" fill="none" stroke-linecap="butt" d="m100 382-1 6 1-16v19l1 9v4-55l1 19v17-4 11l1-15 2-1 1-41 1 7 2 26 2-4v16l1 1 1 3h2l1-8"/><path cx="116" cy="376" r="2" fill="#923E8B" opacity=".7" d="m113.77 377.74 2.48-3.72 1.49 4.21z"/></g><g class="key-Fiji"><circle cx="118" cy="223" r="1.3" fill="#A8633C" opacity=".7"/><path stroke-width=".5" opacity=".7" stroke="#A8633C" fill="none" stroke-linecap="butt" d="m118 223-2-8 2-1v1l2 21 1-15 1 14-1 1v3l4-4-1 8v1l2 14v-2l3-7v8h1-1v8l-1-8 1 6 1-5 1 10 3-7"/><path cx="134" cy="261" r="2" fill="#A8633C" opacity=".7" d="m131.37 262.05 3.42-2.89.26 4.47z"/></g><g class="key-Finland"><circle cx="249" cy="191" r="1.3" fill="#4C5C78" opacity=".7"/><path stroke-width=".5" opacity=".7" stroke="#4C5C78" fill="none" stroke-linecap="butt" d="m249 191-12-6-6-6-2-5 6 4 6-14 5 10 11-1 9-7 9 16 11 13 5-9 3-5 4 5 8 4 6-3h9l12-3v-5l-22 1 7-4 5-7-5 3-3-2"/><path cx="315" cy="170" r="2" fill="#4C5C78" opacity=".7" d="m315.55 172.77-2.21-3.88 4.43.56z"/></g><g class="key-France"><circle cx="253" cy="129" r="1.3" fill="#4C5C78" opacity=".7"/><path stroke-width=".5" opacity=".7" stroke="#4C5C78" fill="none" stroke-linecap="butt" d="m253 129 1-2 2-3-2 2 3-3h4l2 4 3-7 6 1h6l7-4 3 1v2l1-1 4 14 2-5 4-3h4l-1-8-7 4 3 5 4 3-1 3v-1"/><path cx="301" cy="131" r="2" fill="#4C5C78" opacity=".7" d="m299 133 2-4 2 4z"/></g><g class="key-Gabon"><circle cx="170" cy="383" r="1.3" fill="#923E8B" opacity=".7"/><path stroke-width=".5" opacity=".7" stroke="#923E8B" fill="none" stroke-linecap="butt" d="m170 383 3-1-6-2 1-11 1 6 2 6 1 3 4-1v-7l-11-13-4 4v-1l-3 2-1 4v-5l-5-7 2 3-5 19-2 5 2-7 3-13 1 3 1-4"/><path cx="154" cy="366" r="2" fill="#923E8B" opacity=".7" d="m151.57 367.46 2.92-3.4.97 4.37z"/></g><g class="key-Gambia"><circle cx="84" cy="350" r="1.3" fill="#923E8B" opacity=".7"/><path stroke-width=".5" opacity=".7" stroke="#923E8B" fill="none" stroke-linecap="butt" d="M84 350v9-67 31-79 32l1 13v-32l-1 17v-16l1-11-1 13v52l1 1v-6l-1-3v4"/><path cx="84" cy="308" r="2" fill="#923E8B" opacity=".7" d="m86 306-2 4-2-4z"/></g><g class="key-Georgia"><circle cx="132" cy="269" r="1.3" fill="#2D8587" opacity=".7"/><path stroke-width=".5" opacity=".7" stroke="#2D8587" fill="none" stroke-linecap="butt" d="m132 269-13 19-21 123-8 9-1-13 1-11 2 15 3 4 2-26 1 18 1-6 1-51 2 31 4-4 2-7 4-15 3-5 6-3 1 21-1-25 3-50 5 61 4-7 2 8"/><path cx="135" cy="355" r="2" fill="#2D8587" opacity=".7" d="m136.46 352.57-.97 4.37-2.92-3.4z"/></g><g class="key-Germany"><circle cx="269" cy="156" r="1.3" fill="#4C5C78" opacity=".7"/><path stroke-width=".5" opacity=".7" stroke="#4C5C78" fill="none" stroke-linecap="butt" d="m269 156 8 6 3-6h-4l4 2 3 3 1-12 3-12 5 13 4 8 6 1 3 19v2l-2-5 3 4 1 4 10-3 7-8 3 4-14 3 11-4 14-1h1l1 6"/><path cx="340" cy="180" r="2" fill="#4C5C78" opacity=".7" d="m341.64 177.7-1.31 4.27-2.63-3.61z"/></g><g class="key-Ghana"><circle cx="85" cy="372" r="1.3" fill="#923E8B" opacity=".7"/><path stroke-width=".5" opacity=".7" stroke="#923E8B" fill="none" stroke-linecap="butt" d="m85 372 1 43v-9 9-4 21h1v-17 3-1l1 9v-19 10l1 1v-5l1-8v14l1-13 1 10 1-3 2 11 2-10 1 8"/><path cx="98" cy="422" r="2" fill="#923E8B" opacity=".7" d="m99.74 419.77-1.5 4.21-2.47-3.72z"/></g><g class="key-Greece"><circle cx="202" cy="193" r="1.3" fill="#4C5C78" opacity=".7"/><path stroke-width=".5" opacity=".7" stroke="#4C5C78" fill="none" stroke-linecap="butt" d="m202 193 3-6-1-7-2 10 2-11 2-7h3l5-4h5l4 10 5 14h6l6-10 9 1 8 3 1-15 10-10h6l-2-7-9-6-10-3-18-6-11 11-3 6"/><path cx="221" cy="156" r="2" fill="#4C5C78" opacity=".7" d="m223.68 155.1-3.57 2.69v-4.47z"/></g><g class="key-Grenada"><circle cx="120" cy="248" r="1.3" fill="#E04E4B" opacity=".7"/><path stroke-width=".5" opacity=".7" stroke="#E04E4B" fill="none" stroke-linecap="butt" d="M120 248v-6l-1 24-1-11v-7h1l1-13h3l5-7 4-5 2-6-1-18 2 21h6l-1-4 9 6-4-11 5 6v8l-5 5-1-20v12l-1 4 1 3"/><path cx="144" cy="229" r="2" fill="#E04E4B" opacity=".7" d="m145.26 226.47-.63 4.43-3.16-3.16z"/></g><g class="key-Guatemala"><circle cx="102" cy="390" r="1.3" fill="#E04E4B" opacity=".7"/><path stroke-width=".5" opacity=".7" stroke="#E04E4B" fill="none" stroke-linecap="butt" d="M102 390v3l1 5v4l1-1 1 3v-10l1-7 1-6v-20l1-4v-18l2-2 1 1 1-7-1 18 1-5h1v4l1-1"/><path cx="114" cy="347" r="2" fill="#E04E4B" opacity=".7" d="m111.17 347 4.24-1.41-1.41 4.24z"/></g><g class="key-Guinea"><circle cx="80" cy="395" r="1.3" fill="#923E8B" opacity=".7"/><path stroke-width=".5" opacity=".7" stroke="#923E8B" fill="none" stroke-linecap="butt" d="M80 395v-27l1-12v23-24 12-15l1 9v-22 15-13l1-9v5"/><path cx="83" cy="337" r="2" fill="#923E8B" opacity=".7" d="m81 335 4 2-4 2z"/></g><g class="key-Guinea__002dBissau"><circle cx="83" cy="323" r="1.3" fill="#923E8B" opacity=".7"/><path stroke-width=".5" opacity=".7" stroke="#923E8B" fill="none" stroke-linecap="butt" d="M83 323v19-30 21l1-1 1 4v2l-4-2v8l1-5v12l-1-10v-25 5l1-5v2-15"/><path cx="82" cy="303" r="2" fill="#923E8B" opacity=".7" d="m80 305 2-4 2 4z"/></g><g class="key-Guyana"><circle cx="98" cy="441" r="1.3" fill="#932834" opacity=".7"/><path stroke-width=".5" opacity=".7" stroke="#932834" fill="none" stroke-linecap="butt" d="m98 441 2-6 2-29 2-7 2-15 2 12 3-19 2-5v-7l1-6v1l1-1 1 6-1 10 1-13-1 11 2-6 3-3 1 12 2 1 2-6 2-7 3-6 2 3"/><path cx="132" cy="361" r="2" fill="#932834" opacity=".7" d="m132.55 358.23.56 4.43-3.88-2.21z"/></g><g class="key-Haiti"><circle cx="91" cy="411" r="1.3" fill="#E04E4B" opacity=".7"/><path stroke-width=".5" opacity=".7" stroke="#E04E4B" fill="none" stroke-linecap="butt" d="M91 411v1l-1-5-1 9-3-12 2 4v-51 24-8 30-34l1-1-1-8v-24l1 8"/><path cx="89" cy="344" r="2" fill="#E04E4B" opacity=".7" d="m90.74 341.77-1.5 4.21-2.47-3.72z"/></g><g class="key-Honduras"><circle cx="94" cy="338" r="1.3" fill="#E04E4B" opacity=".7"/><path stroke-width=".5" opacity=".7" stroke="#E04E4B" fill="none" stroke-linecap="butt" d="m94 338-2-2 1-15 1 6-1 6 1-10v-19 1l-1-5 1-2v-4l1 1v17l1-1 1-6 1-7 1-4v4l-1 8 1-2v3l1-3"/><path cx="100" cy="304" r="2" fill="#E04E4B" opacity=".7" d="m97.47 305.26 3.16-3.16.63 4.43z"/></g><g class="key-Hong-Kong"><circle cx="226" cy="155" r="1.3" fill="#2D8587" opacity=".7"/><path stroke-width=".5" opacity=".7" stroke="#2D8587" fill="none" stroke-linecap="butt" d="m226 155 8-15 8 29 8-4 6-26 1 26v-1l7-5-12-12 2 5 13 8-1-9 3 4 6-2 16 1 15 10 15-7 14 17 4-3-7-2 15 2 11 9 2-13 8-6"/><path cx="368" cy="161" r="2" fill="#2D8587" opacity=".7" d="m365.2 160.6 4.4-.8-2 4z"/></g><g class="key-Hungary"><circle cx="160" cy="194" r="1.3" fill="#4C5C78" opacity=".7"/><path stroke-width=".5" opacity=".7" stroke="#4C5C78" fill="none" stroke-linecap="butt" d="m160 194-2-17-1-18 3 5 1-2 3 14 4-9 4 6 4-11 5 6 5-23 5 19 6 3 6-4 5-1 1-16h2l-9 6 1-11 3 3-1 2 3-11"/><path cx="208" cy="135" r="2" fill="#4C5C78" opacity=".7" d="m205.54 136.4 2.99-3.33.87 4.39z"/></g><g class="key-Iceland"><circle cx="252" cy="207" r="1.3" fill="#4C5C78" opacity=".7"/><path stroke-width=".5" opacity=".7" stroke="#4C5C78" fill="none" stroke-linecap="butt" d="M252 207h8l9-8 12-7 6-12 7-6 6 5v-21h3l16-10 11 4 10-3 15 1h1l-23 5-7-2 4-2 1-4 10-6"/><path cx="341" cy="141" r="2" fill="#4C5C78" opacity=".7" d="m338.26 140.31 4.45-.34-2.4 3.77z"/></g><g class="key-Iran"><circle cx="119" cy="357" r="1.3" fill="#2D8587" opacity=".7"/><path stroke-width=".5" opacity=".7" stroke="#2D8587" fill="none" stroke-linecap="butt" d="m119 357 4 5 1 6-1 6-1-7v-19l2 16v3-17 16h2v-2l3 2 4-6 2-13 2 6 2-5 5-11-1-11v-6l3 9 1 4-6 4-1-2"/><path cx="140" cy="335" r="2" fill="#2D8587" opacity=".7" d="M139.1 337.68v-4.47l3.58 2.68z"/></g><g class="key-Iraq"><circle cx="113" cy="353" r="1.3" fill="#2D8587" opacity=".7"/><path stroke-width=".5" opacity=".7" stroke="#2D8587" fill="none" stroke-linecap="butt" d="m113 353-26 75 4-42 4-45 1-48-1-38 2-6 4 39 9 24 6 26 6 12-1-10-5 21-17 14 13-33v-18l1 21 1 6 2-24 1-9 1-4 2-8 5 18 2 3"/><path cx="127" cy="327" r="2" fill="#2D8587" opacity=".7" d="m127.55 324.23.56 4.43-3.88-2.21z"/></g><g class="key-Ireland"><circle cx="214" cy="210" r="1.3" fill="#4C5C78" opacity=".7"/><path stroke-width=".5" opacity=".7" stroke="#4C5C78" fill="none" stroke-linecap="butt" d="m214 210 2 5 3 5 4 17 8-12 14-1h11l19-21 15 1 20 4 19 1 9 10 11-8 4 1 14-4 10-8 7 25 7-8-21-5-18 7 4 2 1 2-1-1 2 12"/><path cx="358" cy="234" r="2" fill="#4C5C78" opacity=".7" d="m359.64 231.7-1.31 4.27-2.63-3.61z"/></g><g class="key-Israel"><circle cx="213" cy="229" r="1.3" fill="#2D8587" opacity=".7"/><path stroke-width=".5" opacity=".7" stroke="#2D8587" fill="none" stroke-linecap="butt" d="m213 229 4-5 2 4h3l1 4 10-12-4-17h-3l-1-9 4-17 4 2 6-7h7l3-4-2 3 6 7 7-11 2 2 5-3"/><path cx="267" cy="166" r="2" fill="#2D8587" opacity=".7" d="m264.26 165.31 4.45-.34-2.4 3.77z"/></g><g class="key-Italy"><circle cx="268" cy="166" r="1.3" fill="#4C5C78" opacity=".7"/><path stroke-width=".5" opacity=".7" stroke="#4C5C78" fill="none" stroke-linecap="butt" d="m268 166 3 3 1 8-1-7 4-5 6 3 2 1 4-1 4-8 3-4 9 11 4-3v-2 3l1 7h1l4-17h2l-4-2-14 9 4-12 1-3-8-1-6 9"/><path cx="288" cy="155" r="2" fill="#4C5C78" opacity=".7" d="m290.77 154.45-3.88 2.21.56-4.43z"/></g><g class="key-Jamaica"><circle cx="118" cy="310" r="1.3" fill="#E04E4B" opacity=".7"/><path stroke-width=".5" opacity=".7" stroke="#E04E4B" fill="none" stroke-linecap="butt" d="m118 310 2-3 1 10 4-7v14l1-5-1-18-1-12-2 4v-8h1v-6l2-4v-7 3h2v-2l-1 26-2 13-1-13v15-15"/><path cx="123" cy="295" r="2" fill="#E04E4B" opacity=".7" d="m121 297 2-4 2 4z"/></g><g class="key-Jordan"><circle cx="115" cy="337" r="1.3" fill="#2D8587" opacity=".7"/><path stroke-width=".5" opacity=".7" stroke="#2D8587" fill="none" stroke-linecap="butt" d="m115 337-2-27 4-3-1-32v21l1 3-1 13 1-24v-6l1 27 1-21 2-16 2-13v45l3-52 3 30 2 2 2-8 2 21v-12l-2-17-2-6-1-1-2-2"/><path cx="128" cy="259" r="2" fill="#2D8587" opacity=".7" d="m128 261.83-1.41-4.24 4.24 1.41z"/></g><g class="key-Kazakhstan"><circle cx="144" cy="269" r="1.3" fill="#2D8587" opacity=".7"/><path stroke-width=".5" opacity=".7" stroke="#2D8587" fill="none" stroke-linecap="butt" d="m144 269-8 19-3 21-6-4-6 1-3 14 1 15 2 19v-5l1-7 5-22 8-15 6-13 6-12 7-6 7-40 8-7 8-13 1-10-1 2 6 14 7-41 4-5h5"/><path cx="199" cy="174" r="2" fill="#2D8587" opacity=".7" d="m197 172 4 2-4 2z"/></g><g class="key-Kenya"><circle cx="91" cy="349" r="1.3" fill="#923E8B" opacity=".7"/><path stroke-width=".5" opacity=".7" stroke="#923E8B" fill="none" stroke-linecap="butt" d="M91 349v-5l-1-2v13-11 7-5l-1 4h1l-1 1v-5l1-3v9l1 1 1-6-1 1v-11l1 5 1 13v6-1"/><path cx="93" cy="360" r="2" fill="#923E8B" opacity=".7" d="m91 362 2-4 2 4z"/></g><g class="key-Kiribati"><circle cx="84" cy="226" r="1.3" fill="#A8633C" opacity=".7"/><path stroke-width=".5" opacity=".7" stroke="#A8633C" fill="none" stroke-linecap="butt" d="M84 226v12-15l-1 9 1-2-1-12v19l1-6v-14 22-7 9-6l-1 3v-1 12-6"/><path cx="83" cy="243" r="2" fill="#A8633C" opacity=".7" d="m81 245 2-4 2 4z"/></g><g class="key-Kuwait"><circle cx="413" cy="264" r="1.3" fill="#2D8587" opacity=".7"/><path stroke-width=".5" opacity=".7" stroke="#2D8587" fill="none" stroke-linecap="butt" d="m413 264-2 5-9-18-10 10h-25l-1-17-7-12 4 9 46 7 28 2 27-9 11-1 2-3-14-7-49 11h-27l11 9 3 1-13-3"/><path cx="388" cy="248" r="2" fill="#2D8587" opacity=".7" d="m389.5 250.4-3.45-2.85 4.35-1.05z"/></g><g class="key-Kyrgyzstan"><circle cx="100" cy="269" r="1.3" fill="#2D8587" opacity=".7"/><path stroke-width=".5" opacity=".7" stroke="#2D8587" fill="none" stroke-linecap="butt" d="m100 269-3 19-3 35-4 1-3 7-1 45 1-11 1 11v-26 26l1-8 1 3-1-4 1 6 1-5v1l1-12 1-8 2-10v9-6l1 3-1-7 2-1"/><path cx="97" cy="337" r="2" fill="#2D8587" opacity=".7" d="M94.32 336.1h4.47l-2.68 3.58z"/></g><g class="key-Laos"><circle cx="83" cy="462" r="1.3" fill="#2D8587" opacity=".7"/><path stroke-width=".5" opacity=".7" stroke="#2D8587" fill="none" stroke-linecap="butt" d="M83 462v2-4l1 1v-5l1-6v-1l1-3v-1l1-1 1 4v-3l1-1 1-1 1-4 1-8 1-1 1-3 1-4 2-3 1-1 2 1 2-3 2-1"/><path cx="104" cy="416" r="2" fill="#2D8587" opacity=".7" d="M101.32 415.1h4.47l-2.68 3.58z"/></g><g class="key-Latvia"><circle cx="124" cy="255" r="1.3" fill="#4C5C78" opacity=".7"/><path stroke-width=".5" opacity=".7" stroke="#4C5C78" fill="none" stroke-linecap="butt" d="m124 255 2 10 5 7 4-3 3-1 4-18 5-15 6-15 8-3 9-20 11 10 14-21 14 6-3 11h-18l-2-1 5 2 10 1 4 3"/><path cx="205" cy="208" r="2" fill="#4C5C78" opacity=".7" d="m204.6 205.2 2 4-4.4-.8z"/></g><g class="key-Lebanon"><circle cx="113" cy="263" r="1.3" fill="#2D8587" opacity=".7"/><path stroke-width=".5" opacity=".7" stroke="#2D8587" fill="none" stroke-linecap="butt" d="m113 263 17 3 6-4 4 3 2 8 2-1h6v-9l2-12-2-12-1 4v-10l-1 11-1-3 2-1v5-16l7 5 7 5 9-7 5 12-4 8-4 6-3-9"/><path cx="166" cy="249" r="2" fill="#2D8587" opacity=".7" d="m164.74 251.53.63-4.43 3.16 3.16z"/></g><g class="key-Lesotho"><circle cx="80" cy="423" r="1.3" fill="#923E8B" opacity=".7"/><path stroke-width=".5" opacity=".7" stroke="#923E8B" fill="none" stroke-linecap="butt" d="M80 423v4l1 3v3-2 3-2h1v10h1v-4l1 4 1 5-1-2 1 5v-3l1 4v-6"/><path cx="86" cy="445" r="2" fill="#923E8B" opacity=".7" d="m84 447 2-4 2 4z"/></g><g class="key-Lithuania"><circle cx="129" cy="359" r="1.3" fill="#4C5C78" opacity=".7"/><path stroke-width=".5" opacity=".7" stroke="#4C5C78" fill="none" stroke-linecap="butt" d="m129 359 4-13 5-6 6 2-1-17 3 14 6-18 6-16 10-10 7 3 10-9 10-1 16 3 5-2-20 6 4-14 11 5 8 15 6 2"/><path cx="225" cy="303" r="2" fill="#4C5C78" opacity=".7" d="m223.74 300.47 3.16 3.16-4.43.63z"/></g><g class="key-Madagascar"><circle cx="82" cy="425" r="1.3" fill="#923E8B" opacity=".7"/><path stroke-width=".5" opacity=".7" stroke="#923E8B" fill="none" stroke-linecap="butt" d="m82 425-1-2v4-5 4-5 23l-1-2v-2l1 2v1-7 4-1 15-1"/><path cx="81" cy="453" r="2" fill="#923E8B" opacity=".7" d="m79 455 2-4 2 4z"/></g><g class="key-Malawi"><circle cx="77" cy="434" r="1.3" fill="#923E8B" opacity=".7"/><path stroke-width=".5" opacity=".7" stroke="#923E8B" fill="none" stroke-linecap="butt" d="m77 434 1 2-1 1 1 2-1 6 1-11v9-3 3-16 6-3l1-7v-19l1 9v-6 5-11"/><path cx="80" cy="401" r="2" fill="#923E8B" opacity=".7" d="m78 403 2-4 2 4z"/></g><g class="key-Malaysia"><circle cx="127" cy="243" r="1.3" fill="#2D8587" opacity=".7"/><path stroke-width=".5" opacity=".7" stroke="#2D8587" fill="none" stroke-linecap="butt" d="m127 243 4 22 4 2h4l5 4 5 4 5 18 4-3-8-3 2-1 6-7-2-3 3-8 3 7 4-4 3 5 4 7 4 2 3-6-4 5 6-10 4 2 5-1 4-1"/><path cx="195" cy="274" r="2" fill="#2D8587" opacity=".7" d="m192.57 272.54 4.37.97-3.4 2.92z"/></g><g class="key-Maldives"><circle cx="129" cy="372" r="1.3" fill="#2D8587" opacity=".7"/><path stroke-width=".5" opacity=".7" stroke="#2D8587" fill="none" stroke-linecap="butt" d="m129 372 3-4 4-13 4-15 3-2 1-5h-5l3-1 8 2 2-5-12 10 15 5 5-7 6 1-9 2 3-8 3 3-1 27 2-15"/><path cx="164" cy="347" r="2" fill="#2D8587" opacity=".7" d="m161.75 348.72 2.51-3.7 1.46 4.23z"/></g><g class="key-Mali"><circle cx="80" cy="342" r="1.3" fill="#923E8B" opacity=".7"/><path stroke-width=".5" opacity=".7" stroke="#923E8B" fill="none" stroke-linecap="butt" d="m80 342 1-4-1 22v1-24 29l1 9v-22 13l1-13v-4l1 1v-1 4-1 4-3l1 8v-5l-1 9v-10"/><path cx="83" cy="355" r="2" fill="#923E8B" opacity=".7" d="m81 357 2-4 2 4z"/></g><g class="key-Malta"><circle cx="159" cy="238" r="1.3" fill="#4C5C78" opacity=".7"/><path stroke-width=".5" opacity=".7" stroke="#4C5C78" fill="none" stroke-linecap="butt" d="m159 238 2-5 4 2 3 15 4 27 6-26 3 4 5 3 5 1 5 2 23 1-2-8 2 16h5l-1-10 4 7 4-15 7 6 5-6-3 3 8-15v5l6-8 7 2"/><path cx="261" cy="239" r="2" fill="#4C5C78" opacity=".7" d="m259.63 236.53 3.3 3.02-4.4.82z"/></g><g class="key-Mauritania"><circle cx="97" cy="322" r="1.3" fill="#923E8B" opacity=".7"/><path stroke-width=".5" opacity=".7" stroke="#923E8B" fill="none" stroke-linecap="butt" d="m97 322-1 19v-20l1 12-1 8 1-18 1-3-1 19v4-23l-2 5-1 1v-9l1 8v-14l2-2 3-3-1 14-1-3-1 7v-21l1-10v30"/><path cx="98" cy="323" r="2" fill="#923E8B" opacity=".7" d="m100 321-2 4-2-4z"/></g><g class="key-Mauritius"><circle cx="115" cy="314" r="1.3" fill="#923E8B" opacity=".7"/><path stroke-width=".5" opacity=".7" stroke="#923E8B" fill="none" stroke-linecap="butt" d="m115 314 2-3 2-4 2-10 1-32 2 19 2 1 2 15 3-14 1 5 4-1 2 9v-17l4 13 2 5 1-9 3-4 4 7 4-8 3 17 3-3 4-17 3-7 3 4"/><path cx="172" cy="280" r="2" fill="#923E8B" opacity=".7" d="m172.4 277.2.8 4.4-4-2z"/></g><g class="key-Moldova"><circle cx="103" cy="371" r="1.3" fill="#4C5C78" opacity=".7"/><path stroke-width=".5" opacity=".7" stroke="#4C5C78" fill="none" stroke-linecap="butt" d="m103 371-2-7 1 26-2-14-1 12 1 16 1 4 3-9 2-27 2-11 3-14 2-18 1-25 4-21-3-27 3 15 3-3v-5l4 3"/><path cx="125" cy="266" r="2" fill="#4C5C78" opacity=".7" d="m124.6 263.2 2 4-4.4-.8z"/></g><g class="key-Mongolia"><circle cx="99" cy="224" r="1.3" fill="#2D8587" opacity=".7"/><path stroke-width=".5" opacity=".7" stroke="#2D8587" fill="none" stroke-linecap="butt" d="m99 224-3-26-2-15-1 17v6l1 25 1-8v-9l1 2 1-17v28l1 19 1-5 3-4 2-1 2 10 3-22 3 6-1-26 1 7 6 12 5 9 5-9"/><path cx="128" cy="223" r="2" fill="#2D8587" opacity=".7" d="m125.28 223.78 3.7-2.53-.2 4.47z"/></g><g class="key-Morocco"><circle cx="93" cy="389" r="1.3" fill="#923E8B" opacity=".7"/><path stroke-width=".5" opacity=".7" stroke="#923E8B" fill="none" stroke-linecap="butt" d="m93 389 1-1-1-12v9l1 2-1-14 2 13-1-6h2v-3 2l1 3 1 6 1-4 1 9v-7h2l1-9 1 4 1-5 1 2h1l1-11 1 6"/><path cx="109" cy="373" r="2" fill="#923E8B" opacity=".7" d="m110.64 370.7-1.31 4.27-2.63-3.61z"/></g><g class="key-Mozambique"><circle cx="75" cy="371" r="1.3" fill="#923E8B" opacity=".7"/><path stroke-width=".5" opacity=".7" stroke="#923E8B" fill="none" stroke-linecap="butt" d="M75 371v-10 28-27 9l1 4v14-1 15l1-3v-15 15-1l1-5v12-13l1-1"/><path cx="79" cy="392" r="2" fill="#923E8B" opacity=".7" d="m76.17 392 4.24-1.41-1.41 4.24z"/></g><g class="key-Myanmar"><circle cx="75" cy="347" r="1.3" fill="#2D8587" opacity=".7"/><path stroke-width=".5" opacity=".7" stroke="#2D8587" fill="none" stroke-linecap="butt" d="M75 347v18l1-10v12-1 3h1v15-6l1 3 1-9v-3l1-16 1-9 1-1 2-16 1-10 1-17 1-2h1l1 12h1"/><path cx="90" cy="310" r="2" fill="#2D8587" opacity=".7" d="m88 308 4 2-4 2z"/></g><g class="key-Namibia"><circle cx="104" cy="410" r="1.3" fill="#923E8B" opacity=".7"/><path stroke-width=".5" opacity=".7" stroke="#923E8B" fill="none" stroke-linecap="butt" d="m104 410 2-1 1 5-1 3v7-5l1-41 1-9v-2l1-21v3l1 15 1-12 4-20v14l3-7 1-4v-6 9l2-2 1 11 2-2 2 6"/><path cx="126" cy="351" r="2" fill="#923E8B" opacity=".7" d="m127.26 348.47-.63 4.43-3.16-3.16z"/></g><g class="key-Nepal"><circle cx="81" cy="410" r="1.3" fill="#2D8587" opacity=".7"/><path stroke-width=".5" opacity=".7" stroke="#2D8587" fill="none" stroke-linecap="butt" d="M81 410v5l1-6v-1 7h1v-11 4l1-2v-7 3l1-1v4-7l1-10v-6l1-1v-9l1 5 1-2"/><path cx="89" cy="375" r="2" fill="#2D8587" opacity=".7" d="m86.32 375.9 3.57-2.69v4.47z"/></g><g class="key-Netherlands"><circle cx="267" cy="156" r="1.3" fill="#4C5C78" opacity=".7"/><path stroke-width=".5" opacity=".7" stroke="#4C5C78" fill="none" stroke-linecap="butt" d="m267 156 4 15 1 4 2-35 4 24 6-11 6-7 8-7 9-16 11 14 8 3 4 6-1-2-1 27 4-2 5-16 9 21 9 5 5-4-12 15 3 5 3 8-4-4-1-3"/><path cx="349" cy="196" r="2" fill="#4C5C78" opacity=".7" d="m347.74 198.53.63-4.43 3.16 3.16z"/></g><g class="key-New-Zealand"><circle cx="223" cy="176" r="1.3" fill="#A8633C" opacity=".7"/><path stroke-width=".5" opacity=".7" stroke="#A8633C" fill="none" stroke-linecap="butt" d="m223 176-9 4v6l7 11 6 20 5-17 3 3 1 3v23l8-2 4-3 5-1 5-8 5 3 5-7h4l3-3 4-3-4 2-2 7 1-7 3-4 3 8 4 3"/><path cx="284" cy="214" r="2" fill="#A8633C" opacity=".7" d="m283.6 211.2 2 4-4.4-.8z"/></g><g class="key-Nicaragua"><circle cx="91" cy="355" r="1.3" fill="#E04E4B" opacity=".7"/><path stroke-width=".5" opacity=".7" stroke="#E04E4B" fill="none" stroke-linecap="butt" d="m91 355-1-7v-19 10-14l1 45 1-2v-8l1 6 1-14v15l1-6v-16l1-8 1-3v1l-1 9 1-9 1 10 2 4 1-10"/><path cx="101" cy="339" r="2" fill="#E04E4B" opacity=".7" d="m98.81 340.8 2.39-3.79 1.6 4.18z"/></g><g class="key-Niger"><circle cx="78" cy="411" r="1.3" fill="#923E8B" opacity=".7"/><path stroke-width=".5" opacity=".7" stroke="#923E8B" fill="none" stroke-linecap="butt" d="M78 411v-8 8-26l-1-14 1 9v-4l-1 8 1-6v-18l-1 2 1-4v5-13 7-4 17"/><path cx="78" cy="370" r="2" fill="#923E8B" opacity=".7" d="m80 368-2 4-2-4z"/></g><g class="key-North-Macedonia"><circle cx="126" cy="330" r="1.3" fill="#4C5C78" opacity=".7"/><path stroke-width=".5" opacity=".7" stroke="#4C5C78" fill="none" stroke-linecap="butt" d="m126 330-4-14-1 3v8-26l1 22 1-36 2-18 2 12-2-21 1-4 1-10 3-15 2 1 3-31 4-15 4 41-1 1 3 3 1 4v-3l2 3"/><path cx="148" cy="235" r="2" fill="#4C5C78" opacity=".7" d="m148.55 232.23.56 4.43-3.88-2.21z"/></g><g class="key-Norway"><circle cx="298" cy="181" r="1.3" fill="#4C5C78" opacity=".7"/><path stroke-width=".5" opacity=".7" stroke="#4C5C78" fill="none" stroke-linecap="butt" d="m298 181 6-7 6 2 6-2h11l9-1 12 1 13 5 5-9 4 4h8l5-4 2-5 1-3 11-10 6-9 6 11 6 5-3 4-10-1-1-3-2-3 5 2-1 1"/><path cx="403" cy="159" r="2" fill="#4C5C78" opacity=".7" d="m405.83 159-4.24 1.41 1.41-4.24z"/></g><g class="key-Oman"><circle cx="235" cy="319" r="1.3" fill="#2D8587" opacity=".7"/><path stroke-width=".5" opacity=".7" stroke="#2D8587" fill="none" stroke-linecap="butt" d="m235 319 2-47 6 11 2-7 1 5 4-16 3 15 9 2 5 18 1 7 11 8 7-11-6 18-10-27-2 21h-1l5-5 3 1 9-13 3 5-8 4-7 2 2-13-5-4"/><path cx="269" cy="293" r="2" fill="#2D8587" opacity=".7" d="m269.31 295.81-1.87-4.06 4.37.94z"/></g><g class="key-Panama"><circle cx="130" cy="278" r="1.3" fill="#E04E4B" opacity=".7"/><path stroke-width=".5" opacity=".7" stroke="#E04E4B" fill="none" stroke-linecap="butt" d="m130 278 4 10 4 11 2 6v9-28l1-7 3-16 4 19 1-31 1 26-1 19v12l2 10 4-3 5 5 5-4 10 5 8-10-1-3 5-7 10-7 10-1 7 2"/><path cx="214" cy="295" r="2" fill="#E04E4B" opacity=".7" d="m212.63 292.53 3.3 3.02-4.4.82z"/></g><g class="key-Paraguay"><circle cx="118" cy="298" r="1.3" fill="#932834" opacity=".7"/><path stroke-width=".5" opacity=".7" stroke="#932834" fill="none" stroke-linecap="butt" d="M118 298v-28l1 10 1-13 2 12v-4l1 7-1-8-2-33-2-15-1 9-1-5 1-8 1 14v4l2-7 2 2 2-7-1-1 5-4 2 3-1-1h3"/><path cx="132" cy="225" r="2" fill="#932834" opacity=".7" d="m130 223 4 2-4 2z"/></g><g class="key-Peru"><circle cx="100" cy="372" r="1.3" fill="#932834" opacity=".7"/><path stroke-width=".5" opacity=".7" stroke="#932834" fill="none" stroke-linecap="butt" d="M100 372v-2l1 4 3-5 1-5 1 4 1 8-1 16v-7l1 1v-1l1-1 1 20 2-2 2 10 2-4 4-3 3-11v2h4l3-3 3-6 3-1"/><path cx="135" cy="386" r="2" fill="#932834" opacity=".7" d="m132.47 384.74 4.43.63-3.16 3.16z"/></g><g class="key-Poland"><circle cx="133" cy="252" r="1.3" fill="#4C5C78" opacity=".7"/><path stroke-width=".5" opacity=".7" stroke="#4C5C78" fill="none" stroke-linecap="butt" d="m133 252-5-7 2-5 2 12h3l4-4h4l5 2 3-4 4-1 4 6 1-2 2-5 3 3 5 1 4-2 6 1 8 3 4-3 4-5 5-2h6l2 1 1-4"/><path cx="210" cy="237" r="2" fill="#4C5C78" opacity=".7" d="m207.57 238.46 2.92-3.4.97 4.37z"/></g><g class="key-Portugal"><circle cx="198" cy="222" r="1.3" fill="#4C5C78" opacity=".7"/><path stroke-width=".5" opacity=".7" stroke="#4C5C78" fill="none" stroke-linecap="butt" d="m198 222 6 8 2 1-3-3 1-1h5l4-7 6-2 6 7 5-15 5-3 2 1v-5l-2 1 3 6 1-10 2-3 4-7v-11l-5 1 2 5-2-1-6-7-1 5"/><path cx="233" cy="182" r="2" fill="#4C5C78" opacity=".7" d="m235.35 180.43-2.74 3.53-1.18-4.31z"/></g><g class="key-Romania"><circle cx="144" cy="254" r="1.3" fill="#4C5C78" opacity=".7"/><path stroke-width=".5" opacity=".7" stroke="#4C5C78" fill="none" stroke-linecap="butt" d="m144 254-9 2-5 30 1 16 2 3 4-10 3-2-3 14-1-11v4l1-10 4-2 6-3 2-6 9 17 4-19 8-4 8-8h12-5l-4 4 3 4h2l5 1"/><path cx="191" cy="274" r="2" fill="#4C5C78" opacity=".7" d="m189.43 271.65 3.53 2.74-4.31 1.18z"/></g><g class="key-Rwanda"><circle cx="77" cy="480" r="1.3" fill="#923E8B" opacity=".7"/><path stroke-width=".5" opacity=".7" stroke="#923E8B" fill="none" stroke-linecap="butt" d="M77 480v-2l1-4v-19l-3-8 1 10 1 19v7-7 4l1 2v-19l1 3v-11h1v-20 8l1-2v14l1 11"/><path cx="82" cy="466" r="2" fill="#923E8B" opacity=".7" d="m83.81 463.83-1.63 4.16-2.35-3.8z"/></g><g class="key-Saint-Kitts-and-Nevis"><circle cx="148" cy="252" r="1.3" fill="#E04E4B" opacity=".7"/><path stroke-width=".5" opacity=".7" stroke="#E04E4B" fill="none" stroke-linecap="butt" d="m148 252-1-4 2 2 5 18 3 1 4-9 4-7 5 2-1 11 2 7 9-16 4 10v-17l-5-3 3-12 9 11 2 6v3l6-14-6 15-2-12 1-9-3 7 5-15"/><path cx="194" cy="227" r="2" fill="#E04E4B" opacity=".7" d="m191.47 228.26 3.16-3.16.63 4.43z"/></g><g class="key-Saint-Lucia"><circle cx="135" cy="341" r="1.3" fill="#E04E4B" opacity=".7"/><path stroke-width=".5" opacity=".7" stroke="#E04E4B" fill="none" stroke-linecap="butt" d="m135 341-1-17 5 10-1-12v-16l1-1 1-7-2 3 4 2 1-19-1-1-3 7v1l2-5 4-13-1-6 4-1v-2l3 11-3 4v-6l3 6v-3h-3"/><path cx="148" cy="276" r="2" fill="#E04E4B" opacity=".7" d="m150 278-4-2 4-2z"/></g><g class="key-Saint-Vincent-and-the-Grenadines"><circle cx="107" cy="274" r="1.3" fill="#E04E4B" opacity=".7"/><path stroke-width=".5" opacity=".7" stroke="#E04E4B" fill="none" stroke-linecap="butt" d="M107 274v4l1-6 2 19v35l3-26v9l2-4 2 10 1-6 1 20v-12l3-7 4-2 2-7 1 3 5 1 2 4 1-2-1-6-2-5-1 4 1 11 1-1"/><path cx="135" cy="310" r="2" fill="#E04E4B" opacity=".7" d="m132.17 310 4.24-1.41-1.41 4.24z"/></g><g class="key-Samoa"><circle cx="94" cy="138" r="1.3" fill="#A8633C" opacity=".7"/><path stroke-width=".5" opacity=".7" stroke="#A8633C" fill="none" stroke-linecap="butt" d="m94 138-1 12v-25l1-21-1 37 1 9 2-27v14-14l1 23 1-7 2-16 1 14 1-4 1 2 1-14 1 9 1 4v-10l-1 2v-11l1 10-2-10v-4"/><path cx="104" cy="111" r="2" fill="#A8633C" opacity=".7" d="m102 113 2-4 2 4z"/></g><g class="key-Saudi-Arabia"><circle cx="294" cy="279" r="1.3" fill="#2D8587" opacity=".7"/><path stroke-width=".5" opacity=".7" stroke="#2D8587" fill="none" stroke-linecap="butt" d="m294 279 25 11 2 14-10-9-5 19-4 3 1 5-2-4 2-14-13 2 7-18-9-1-11 10 16-7 10 20 6-8v-3l-2 8 8-7-12-3 5-16 16-2 5-30-1 2"/><path cx="328" cy="251" r="2" fill="#2D8587" opacity=".7" d="m330.68 250.1-3.57 2.69v-4.47z"/></g><g class="key-Senegal"><circle cx="86" cy="366" r="1.3" fill="#923E8B" opacity=".7"/><path stroke-width=".5" opacity=".7" stroke="#923E8B" fill="none" stroke-linecap="butt" d="M86 366v-61l-1-24v-18 36-19l1-3v16l1-14h-1l1 16v2-1 20-44 17"/><path cx="87" cy="289" r="2" fill="#923E8B" opacity=".7" d="m89 287-2 4-2-4z"/></g><g class="key-Sierra-Leone"><circle cx="80" cy="299" r="1.3" fill="#923E8B" opacity=".7"/><path stroke-width=".5" opacity=".7" stroke="#923E8B" fill="none" stroke-linecap="butt" d="M80 299v-4l-1-3v-2 15l-1-7v-4 54l-1 2 2-14v7-19 5-4 23l1-6v1-8 4l1-3 2-2"/><path cx="83" cy="334" r="2" fill="#923E8B" opacity=".7" d="m80.17 334 4.24-1.41-1.41 4.24z"/></g><g class="key-Slovakia"><circle cx="136" cy="225" r="1.3" fill="#4C5C78" opacity=".7"/><path stroke-width=".5" opacity=".7" stroke="#4C5C78" fill="none" stroke-linecap="butt" d="m136 225 4 11 3-14 5 25 4-6 3-16v-8l1 16 3-27 4 2 5-2 5 7 7 14 9-13 12 8 8 21-8-32 8-3 3-4 2-15 1 12"/><path cx="215" cy="201" r="2" fill="#4C5C78" opacity=".7" d="m216.83 198.84-1.66 4.15-2.33-3.82z"/></g><g class="key-Slovenia"><circle cx="187" cy="237" r="1.3" fill="#4C5C78" opacity=".7"/><path stroke-width=".5" opacity=".7" stroke="#4C5C78" fill="none" stroke-linecap="butt" d="m187 237 4-2 6-9 5 12 6-1 5-7 4-23 5 1 4-10 7 4h6l9 1 11 1 6-5-16 2h2l1 6-5 1-2-1"/><path cx="245" cy="207" r="2" fill="#4C5C78" opacity=".7" d="m245.9 209.68-2.69-3.57h4.47z"/></g><g class="key-Solomon-Islands"><circle cx="85" cy="361" r="1.3" fill="#A8633C" opacity=".7"/><path stroke-width=".5" opacity=".7" stroke="#A8633C" fill="none" stroke-linecap="butt" d="M85 361v-1l1 5 1-3v7l1-39v46l-1-2v7l-3 4-1-5v-6 6l1 5v-13 8l1 4v-5 1l1-9v11-2"/><path cx="86" cy="380" r="2" fill="#A8633C" opacity=".7" d="m84 382 2-4 2 4z"/></g><g class="key-South-Africa"><circle cx="133" cy="343" r="1.3" fill="#923E8B" opacity=".7"/><path stroke-width=".5" opacity=".7" stroke="#923E8B" fill="none" stroke-linecap="butt" d="m133 343-2-2-3 1-1 5 1-14v-4l1 5 1-9-1 1 1 6h1l1-12 2-8 1-2 2 3 2-5 3-3 3 3 1-13-2-11 1 9 1 8 1-2 1 4"/><path cx="148" cy="303" r="2" fill="#923E8B" opacity=".7" d="m149.46 300.57-.97 4.37-2.92-3.4z"/></g><g class="key-South-Korea"><circle cx="140" cy="382" r="1.3" fill="#2D8587" opacity=".7"/><path stroke-width=".5" opacity=".7" stroke="#2D8587" fill="none" stroke-linecap="butt" d="m140 382 7-6 3-5 5-2 7-20 7 15 7-9 5-10-6-13 11 3 9-8 5 5 9-7 4-20 7 1 6-1 7-5 8-8 4-2v-12l11-2 6-1 3-10 5 9"/><path cx="270" cy="274" r="2" fill="#2D8587" opacity=".7" d="m270.78 271.28.2 4.47-3.7-2.53z"/></g><g class="key-Spain"><circle cx="220" cy="169" r="1.3" fill="#4C5C78" opacity=".7"/><path stroke-width=".5" opacity=".7" stroke="#4C5C78" fill="none" stroke-linecap="butt" d="m220 169 3-27 1 1-3 7 3-3 4 2 3-12 5 8 7-10 7 4 8-12 6 3h3l2 5 3 5 3-5 5 4 4-8-2 7h-9l-1-3-2 1-6-1h-2"/><path cx="262" cy="135" r="2" fill="#4C5C78" opacity=".7" d="m264 137-4-2 4-2z"/></g><g class="key-Sri-Lanka"><circle cx="93" cy="379" r="1.3" fill="#2D8587" opacity=".7"/><path stroke-width=".5" opacity=".7" stroke="#2D8587" fill="none" stroke-linecap="butt" d="M93 379h1l1 13 1-21 1 8h1l1 6 1 9 1-8 2 2 1-3-1 6 1 4 2-8 2 10 2-6 2-6 2-1 3 8 1-3 3 4 4-4 5-10 1 1"/><path cx="131" cy="380" r="2" fill="#2D8587" opacity=".7" d="m131 377.17 1.41 4.24-4.24-1.41z"/></g><g class="key-Suriname"><circle cx="147" cy="379" r="1.3" fill="#932834" opacity=".7"/><path stroke-width=".5" opacity=".7" stroke="#932834" fill="none" stroke-linecap="butt" d="M147 379v-10l-1 3-6 5 1 7-1-19v-11l3-29v-11h-1l2 9 1-24 4-3 6-3 2 7 4-1 4 1 3 3 1-2 4-12 5 6 1-14 2 1"/><path cx="181" cy="282" r="2" fill="#932834" opacity=".7" d="m180.1 279.32 2.69 3.57h-4.47z"/></g><g class="key-Sweden"><circle cx="255" cy="174" r="1.3" fill="#4C5C78" opacity=".7"/><path stroke-width=".5" opacity=".7" stroke="#4C5C78" fill="none" stroke-linecap="butt" d="m255 174-3-4-3 11-5-6 5 4 6-23 3 22 6-10 8 14 8 4 10 3 2-2 4-1 5 4 9-3h5l10 3h7l-3-6-13-6 12-4 6-6-3-6 1 14"/><path cx="332" cy="176" r="2" fill="#4C5C78" opacity=".7" d="m333.85 173.86-1.7 4.13-2.29-3.84z"/></g><g class="key-Switzerland"><circle cx="374" cy="135" r="1.3" fill="#4C5C78" opacity=".7"/><path stroke-width=".5" opacity=".7" stroke="#4C5C78" fill="none" stroke-linecap="butt" d="m374 135-7-4-3 11-3-1 1-7v9l6 4 8-8 4 4 10 8 3-9-2-3h-3l7 1 7-6 11-6 10 6 6-6-12 8 7-3 3 1 1 6 2-5"/><path cx="430" cy="135" r="2" fill="#4C5C78" opacity=".7" d="m427.4 136.11 3.34-2.97.37 4.46z"/></g><g class="key-Tajikistan"><circle cx="94" cy="269" r="1.3" fill="#2D8587" opacity=".7"/><path stroke-width=".5" opacity=".7" stroke="#2D8587" fill="none" stroke-linecap="butt" d="m94 269-2 19-6 29-2-18-3 11-1 10-1 7v37-2l1-26 1-5v-9l1-6 1-24v25l1-16 1 4v-2l1-11v10l1 3"/><path cx="87" cy="305" r="2" fill="#2D8587" opacity=".7" d="m88.26 302.47-.63 4.43-3.16-3.16z"/></g><g class="key-Tanzania"><circle cx="80" cy="424" r="1.3" fill="#923E8B" opacity=".7"/><path stroke-width=".5" opacity=".7" stroke="#923E8B" fill="none" stroke-linecap="butt" d="M80 424v1-8l-1 4v7-3 4-6l1 1v-17l1-24v11l1-23v16-14l1 9v1-3l1-14v-2 4"/><path cx="84" cy="368" r="2" fill="#923E8B" opacity=".7" d="m86 366-2 4-2-4z"/></g><g class="key-Thailand"><circle cx="110" cy="368" r="1.3" fill="#2D8587" opacity=".7"/><path stroke-width=".5" opacity=".7" stroke="#2D8587" fill="none" stroke-linecap="butt" d="m110 368 3-1 3-4 3 4 3 3 4 2 2 7-2-3-5 2h2l2-12 1-1 3-6 4 1h3l2 3 3 5 3-16 1 10-1 5 5-6 1-3 5 7 2 1"/><path cx="157" cy="366" r="2" fill="#2D8587" opacity=".7" d="m156.1 363.32 2.69 3.57h-4.47z"/></g><g class="key-Togo"><circle cx="82" cy="373" r="1.3" fill="#923E8B" opacity=".7"/><path stroke-width=".5" opacity=".7" stroke="#923E8B" fill="none" stroke-linecap="butt" d="M82 373v-2l-1-21-1 24 1-6v-17 10l1 20v4-1l-1-4v-28 3l1-3-1 5v14l-1 7 1-6v-7l1 8v9"/><path cx="82" cy="382" r="2" fill="#923E8B" opacity=".7" d="m84 380-2 4-2-4z"/></g><g class="key-Trinidad-and-Tobago"><circle cx="126" cy="331" r="1.3" fill="#E04E4B" opacity=".7"/><path stroke-width=".5" opacity=".7" stroke="#E04E4B" fill="none" stroke-linecap="butt" d="m126 331 2-20 5-18-1-3 2-1 2 14 4 4 5-1 6-4 6-2 6 5 3-3 7-20 14 5 9-1 7 7 17-1 6-7 4 13-7-2 4-5-2-6h1l3-7"/><path cx="229" cy="278" r="2" fill="#E04E4B" opacity=".7" d="m226.37 279.05 3.42-2.89.26 4.47z"/></g><g class="key-Tunisia"><circle cx="103" cy="303" r="1.3" fill="#923E8B" opacity=".7"/><path stroke-width=".5" opacity=".7" stroke="#923E8B" fill="none" stroke-linecap="butt" d="m103 303 1 24 2-15v4-10 11h2l2-14 1-7 2-21 1 10 1 3 1 14 1 10 3-8 1 17 2-20 3 16 2-23 1 25 1 2-1-1 1-9 1-5"/><path cx="131" cy="306" r="2" fill="#923E8B" opacity=".7" d="m128.65 307.57 2.74-3.53 1.18 4.31z"/></g><g class="key-Turkey"><circle cx="140" cy="330" r="1.3" fill="#2D8587" opacity=".7"/><path stroke-width=".5" opacity=".7" stroke="#2D8587" fill="none" stroke-linecap="butt" d="m140 330-1-2 2 4 5-12-5-2 4 2 4-10 5-3 1 12-4 1 4-14-6 10 4-6 3-6 7-14h7l5-6 4-15v5l-6-3 6-1 11-16 3 3 8 2"/><path cx="201" cy="259" r="2" fill="#2D8587" opacity=".7" d="m199.54 256.57 3.4 2.92-4.37.97z"/></g><g class="key-Turkmenistan"><circle cx="111" cy="269" r="1.3" fill="#2D8587" opacity=".7"/><path stroke-width=".5" opacity=".7" stroke="#2D8587" fill="none" stroke-linecap="butt" d="m111 269-3 19-6 26v-20l-6 6-2 3 1 10-3 9 1-8 3-2 1 9 1 12v-7 4l1-6 3 2 3 10 4-29 4-10 2-7 3-8 6 8 5-6h5"/><path cx="134" cy="284" r="2" fill="#2D8587" opacity=".7" d="m132 282 4 2-4 2z"/></g><g class="key-Uganda"><circle cx="77" cy="427" r="1.3" fill="#923E8B" opacity=".7"/><path stroke-width=".5" opacity=".7" stroke="#923E8B" fill="none" stroke-linecap="butt" d="M77 427v-15l1-1v-9 12l1-4v21l1-10v-33l1-8v1l1-14v-10l1-9v11"/><path cx="83" cy="359" r="2" fill="#923E8B" opacity=".7" d="m85 357-2 4-2-4z"/></g><g class="key-Ukraine"><circle cx="160" cy="269" r="1.3" fill="#4C5C78" opacity=".7"/><path stroke-width=".5" opacity=".7" stroke="#4C5C78" fill="none" stroke-linecap="butt" d="m160 269-8 19-8 20-10 13-14-1-5-2-4 7-1-5v3-2l2 7 4 4 3-15 5-7 7-4 2-3 5-4 6-10 2-2-11-5 3 4 4 9v-9"/><path cx="142" cy="286" r="2" fill="#4C5C78" opacity=".7" d="m140 288 2-4 2 4z"/></g><g class="key-United-Arab-Emirates"><circle cx="668" cy="217" r="1.3" fill="#2D8587" opacity=".7"/><path stroke-width=".5" opacity=".7" stroke="#2D8587" fill="none" stroke-linecap="butt" d="m668 217-28 6-14 14-24 14 6-12 8 8 3 9 16 11-27 16-13-1 26 10-21 24-15-8 10-11v23l-36-1-24 3-53-6-42-19-55 2-19 5 7-7 6 12 14 4"/><path cx="393" cy="313" r="2" fill="#2D8587" opacity=".7" d="m391.63 310.53 3.3 3.02-4.4.82z"/></g><g class="key-United-Kingdom"><circle cx="239" cy="164" r="1.3" fill="#4C5C78" opacity=".7"/><path stroke-width=".5" opacity=".7" stroke="#4C5C78" fill="none" stroke-linecap="butt" d="m239 164-2-3v-17l4 4 6 10 4-2 4 1 8 6 6 1 5 3 7 1 3 1 4 20 5 4 4-7 4-6 4-22 4 16-3 2h-11l3-8 1 13 2-2 3 2"/><path cx="304" cy="181" r="2" fill="#4C5C78" opacity=".7" d="m303.45 178.23 2.21 3.88-4.43-.56z"/></g><g class="key-Uruguay"><circle cx="132" cy="243" r="1.3" fill="#932834" opacity=".7"/><path stroke-width=".5" opacity=".7" stroke="#932834" fill="none" stroke-linecap="butt" d="m132 243 1-13h5l1-8 4-8-1 18 3-4 6 11 3-1-2-4-2-6-3-4-6 22 1 8 3-2 5 13 4-3 5-10 6-12 3 1 8-4 5-1 3 12 5-12"/><path cx="189" cy="236" r="2" fill="#932834" opacity=".7" d="m186.38 237.08 3.39-2.93.3 4.47z"/></g><g class="key-Uzbekistan"><circle cx="92" cy="269" r="1.3" fill="#2D8587" opacity=".7"/><path stroke-width=".5" opacity=".7" stroke="#2D8587" fill="none" stroke-linecap="butt" d="m92 269-1 19-2 32-1-11-1-8v-4 8-14l1 25v-11l1-5v11l1 4 1-2 1-1 1 6 2 1 1 3 2 5 1-2 1-9 2-2h1"/><path cx="103" cy="314" r="2" fill="#2D8587" opacity=".7" d="m101 312 4 2-4 2z"/></g><g class="key-Vanuatu"><circle cx="88" cy="186" r="1.3" fill="#A8633C" opacity=".7"/><path stroke-width=".5" opacity=".7" stroke="#A8633C" fill="none" stroke-linecap="butt" d="M88 186v24l-1-38 1 29v28l1 5h-1v-6l1-5-1 14-1 6v7l1-5v-3l1-11v-14 2l-1-5"/><path cx="88" cy="214" r="2" fill="#A8633C" opacity=".7" d="m86.43 216.35 1.18-4.31 2.74 3.53z"/></g><g class="key-Zambia"><circle cx="84" cy="400" r="1.3" fill="#923E8B" opacity=".7"/><path stroke-width=".5" opacity=".7" stroke="#923E8B" fill="none" stroke-linecap="butt" d="M84 400v29l-1-3 1 1-1-1v12-36 7l1-15v1-16l1-1 1 13v-4l1-8 1-14 1-8v1l1 1h1"/><path cx="91" cy="359" r="2" fill="#923E8B" opacity=".7" d="m89 357 4 2-4 2z"/></g><g class="key-Zimbabwe"><circle cx="95" cy="333" r="1.3" fill="#923E8B" opacity=".7"/><path stroke-width=".5" opacity=".7" stroke="#923E8B" fill="none" stroke-linecap="butt" d="M95 333v-3l-2 9v-2l1 3v-2l2-3v1l1-6v-10l-1-4v-1l-2-2-4-5-1 8-1-5-1 9v-3l-3-14 1 2 3 2 2 1 2-1v2"/><path cx="92" cy="309" r="2" fill="#923E8B" opacity=".7" d="m94 307-2 4-2-4z"/></g><g class="key-Canada"><circle cx="254" cy="166" r="1.3" fill="#E04E4B" opacity=".7"/><path stroke-width=".5" opacity=".7" stroke="#E04E4B" fill="none" stroke-linecap="butt" d="m254 166 4-8 6 9 7-1 1 4 5 9 5-14 7 3 8 3 7 2 14-3v-4l-10-2 4-7 5-1 2 3 3 7"/><path cx="322" cy="166" r="2" fill="#E04E4B" opacity=".7" d="m323.05 163.37-.26 4.47-3.42-2.89z"/></g><g class="key-Liberia"><circle cx="82" cy="340" r="1.3" fill="#923E8B" opacity=".7"/><path stroke-width=".5" opacity=".7" stroke="#923E8B" fill="none" stroke-linecap="butt" d="M82 340v-11l-3-16v-7 2-5l1 14v6-10l1-6v-3 4"/><path cx="81" cy="308" r="2" fill="#923E8B" opacity=".7" d="m83 306-2 4-2-4z"/></g><g class="key-Luxembourg"><circle cx="603" cy="171" r="1.3" fill="#4C5C78" opacity=".7"/><path stroke-width=".5" opacity=".7" stroke="#4C5C78" fill="none" stroke-linecap="butt" d="m603 171 10-22 12 5 8-3 15-10 5 12 26 15 39 4-14-2-31 6 11 12-7 7-5-6 5-4"/><path cx="677" cy="185" r="2" fill="#4C5C78" opacity=".7" d="m674.19 184.69 4.37-.94-1.87 4.06z"/></g><g class="key-Timor"><circle cx="85" cy="403" r="1.3" fill="#2D8587" opacity=".7"/><path stroke-width=".5" opacity=".7" stroke="#2D8587" fill="none" stroke-linecap="butt" d="M85 403h2l-2-27v-3l-1 5 1 4-1-1 1 2 1-7 1-2 1 1 1-8v-29"/><path cx="89" cy="338" r="2" fill="#2D8587" opacity=".7" d="m87 340 2-4 2 4z"/></g><g class="key-Sao-Tome-and-Principe"><circle cx="86" cy="295" r="1.3" fill="#923E8B" opacity=".7"/><path stroke-width=".5" opacity=".7" stroke="#923E8B" fill="none" stroke-linecap="butt" d="m86 295 1-1v9l1-6 1-6v-5l1-8v-15l1-10v6"/><path cx="91" cy="259" r="2" fill="#923E8B" opacity=".7" d="m93 257-2 4-2-4z"/></g><g class="key-Afghanistan"><circle cx="79" cy="411" r="1.3" fill="#2D8587" opacity=".7"/><path stroke-width=".5" opacity=".7" stroke="#2D8587" fill="none" stroke-linecap="butt" d="M79 411v5-29 29l1 2v10l2-2 1-12v3-1l1-2"/><path cx="84" cy="414" r="2" fill="#2D8587" opacity=".7" d="m81.32 414.9 3.57-2.69v4.47z"/></g><g class="key-Montenegro"><circle cx="154" cy="226" r="1.3" fill="#4C5C78" opacity=".7"/><path stroke-width=".5" opacity=".7" stroke="#4C5C78" fill="none" stroke-linecap="butt" d="m154 226 5 11 6-1-5-9 2-4 3-10-3-6h3"/><path cx="165" cy="207" r="2" fill="#4C5C78" opacity=".7" d="m163 205 4 2-4 2z"/></g><g class="key-Serbia"><circle cx="142" cy="270" r="1.3" fill="#4C5C78" opacity=".7"/><path stroke-width=".5" opacity=".7" stroke="#4C5C78" fill="none" stroke-linecap="butt" d="m142 270 4 8 5-9-2 11 1-5 2 18v-1l3-1"/><path cx="155" cy="291" r="2" fill="#4C5C78" opacity=".7" d="m152.47 289.74 4.43.63-3.16 3.16z"/></g><g class="key-Sudan"><circle cx="97" cy="276" r="1.3" fill="#923E8B" opacity=".7"/><path stroke-width=".5" opacity=".7" stroke="#923E8B" fill="none" stroke-linecap="butt" d="M97 276v8"/><path cx="97" cy="284" r="2" fill="#923E8B" opacity=".7" d="m99 282-2 4-2-4z"/></g><g class="key-Djibouti"><circle cx="94" cy="347" r="1.3" fill="#923E8B" opacity=".7"/><path stroke-width=".5" opacity=".7" stroke="#923E8B" fill="none" stroke-linecap="butt" d="M94 347"/><path cx="94" cy="347" r="2" fill="#923E8B" opacity=".7" d="m92 345 4 2-4 2z"/></g><g class="backgroundLabels" fill="#333" font-weight="400"><text x="137" y="273" font-size="14.3" fill="#2D8587" style="fill:#fff;stroke:#fff;stroke-linecap:round;stroke-linejoin:round;stroke-width:.25em">China</text><text x="137" y="273" font-size="14.3" fill="#2D8587">China</text><text x="99.21" y="376.93" font-size="14.17" fill="#2D8587" style="fill:#fff;stroke:#fff;stroke-linecap:round;stroke-linejoin:round;stroke-width:.25em">India</text><text x="99.21" y="376.93" font-size="14.17" fill="#2D8587">India</text><text x="377.74" y="155.87" font-size="12.57" fill="#E04E4B" style="fill:#fff;stroke:#fff;stroke-linecap:round;stroke-linejoin:round;stroke-width:.25em">United States</text><text x="377.74" y="155.87" font-size="12.57" fill="#E04E4B">United States</text><text x="161.47" y="220.76" font-size="12.25" fill="#932834" style="fill:#fff;stroke:#fff;stroke-linecap:round;stroke-linejoin:round;stroke-width:.25em">Brazil</text><text x="161.47" y="220.76" font-size="12.25" fill="#932834">Brazil</text><text x="92.24" y="461.52" font-size="12.09" fill="#2D8587" style="fill:#fff;stroke:#fff;stroke-linecap:round;stroke-linejoin:round;stroke-width:.25em">Bangladesh</text><text x="92.24" y="461.52" font-size="12.09" fill="#2D8587">Bangladesh</text><text x="214.37" y="262.19" font-size="12.06" fill="#4C5C78" style="fill:#fff;stroke:#fff;stroke-linecap:round;stroke-linejoin:round;stroke-width:.25em">Russia</text><text x="214.37" y="262.19" font-size="12.06" fill="#4C5C78">Russia</text><text x="288.85" y="271.21" font-size="12" fill="#2D8587" style="fill:#fff;stroke:#fff;stroke-linecap:round;stroke-linejoin:round;stroke-width:.25em">Japan</text><text x="288.85" y="271.21" font-size="12" fill="#2D8587">Japan</text><text x="106.54" y="313.46" font-size="11.84" fill="#2D8587" style="fill:#fff;stroke:#fff;stroke-linecap:round;stroke-linejoin:round;stroke-width:.25em">Vietnam</text><text x="106.54" y="313.46" font-size="11.84" fill="#2D8587">Vietnam</text><text x="127" y="406.92" font-size="11.83" fill="#923E8B" style="fill:#fff;stroke:#fff;stroke-linecap:round;stroke-linejoin:round;stroke-width:.25em">Egypt</text><text x="127" y="406.92" font-size="11.83" fill="#923E8B">Egypt</text><text x="136.54" y="245.46" font-size="11.15" fill="#4C5C78" style="fill:#fff;stroke:#fff;stroke-linecap:round;stroke-linejoin:round;stroke-width:.25em">Albania</text><text x="136.54" y="245.46" font-size="11.15" fill="#4C5C78">Albania</text><text x="138" y="346" font-size="11.55" fill="#923E8B" style="fill:#fff;stroke:#fff;stroke-linecap:round;stroke-linejoin:round;stroke-width:.25em">Algeria</text><text x="138" y="346" font-size="11.55" fill="#923E8B">Algeria</text><text x="207.47" y="220.76" font-size="11.57" fill="#932834" style="fill:#fff;stroke:#fff;stroke-linecap:round;stroke-linejoin:round;stroke-width:.25em">Argentina</text><text x="207.47" y="220.76" font-size="11.57" fill="#932834">Argentina</text><text x="330" y="152" font-size="11.3" fill="#4C5C78" style="fill:#fff;stroke:#fff;stroke-linecap:round;stroke-linejoin:round;stroke-width:.25em">Belgium</text><text x="330" y="152" font-size="11.3" fill="#4C5C78">Belgium</text><text x="457.9" y="186.51" font-size="11.02" fill="#E04E4B" style="fill:#fff;stroke:#fff;stroke-linecap:round;stroke-linejoin:round;stroke-width:.25em">Bermuda</text><text x="457.9" y="186.51" font-size="11.02" fill="#E04E4B">Bermuda</text><text x="207.6" y="174.18" font-size="11.29" fill="#4C5C78" style="fill:#fff;stroke:#fff;stroke-linecap:round;stroke-linejoin:round;stroke-width:.25em">Czechia</text><text x="207.6" y="174.18" font-size="11.29" fill="#4C5C78">Czechia</text><text x="136.71" y="177.05" font-size="11.35" fill="#932834" style="fill:#fff;stroke:#fff;stroke-linecap:round;stroke-linejoin:round;stroke-width:.25em">Ecuador</text><text x="136.71" y="177.05" font-size="11.35" fill="#932834">Ecuador</text><text x="301" y="126" font-size="11.71" fill="#4C5C78" style="fill:#fff;stroke:#fff;stroke-linecap:round;stroke-linejoin:round;stroke-width:.25em">France</text><text x="301" y="126" font-size="11.71" fill="#4C5C78">France</text><text x="340.82" y="190.83" font-size="11.8" fill="#4C5C78" style="fill:#fff;stroke:#fff;stroke-linecap:round;stroke-linejoin:round;stroke-width:.25em">Germany</text><text x="340.82" y="190.83" font-size="11.8" fill="#4C5C78">Germany</text><text x="98.62" y="432.69" font-size="11.46" fill="#923E8B" style="fill:#fff;stroke:#fff;stroke-linecap:round;stroke-linejoin:round;stroke-width:.25em">Ghana</text><text x="98.62" y="432.69" font-size="11.46" fill="#923E8B">Ghana</text><text x="83" y="337" font-size="11.29" fill="#923E8B" style="fill:#fff;stroke:#fff;stroke-linecap:round;stroke-linejoin:round;stroke-width:.25em">Guinea</text><text x="83" y="337" font-size="11.29" fill="#923E8B">Guinea</text><text x="358.82" y="244.53" font-size="11.19" fill="#4C5C78" style="fill:#fff;stroke:#fff;stroke-linecap:round;stroke-linejoin:round;stroke-width:.25em">Ireland</text><text x="358.82" y="244.53" font-size="11.19" fill="#4C5C78">Ireland</text><text x="263.72" y="165" font-size="11.69" fill="#4C5C78" style="fill:#fff;stroke:#fff;stroke-linecap:round;stroke-linejoin:round;stroke-width:.25em">Italy</text><text x="263.72" y="165" font-size="11.69" fill="#4C5C78">Italy</text><text x="89.9" y="255.46" font-size="11.26" fill="#2D8587" style="fill:#fff;stroke:#fff;stroke-linecap:round;stroke-linejoin:round;stroke-width:.25em">Jordan</text><text x="89.9" y="255.46" font-size="11.26" fill="#2D8587">Jordan</text><text x="93" y="355" font-size="11.6" fill="#923E8B" style="fill:#fff;stroke:#fff;stroke-linecap:round;stroke-linejoin:round;stroke-width:.25em">Kenya</text><text x="93" y="355" font-size="11.6" fill="#923E8B">Kenya</text><text x="83" y="238" font-size="11.03" fill="#A8633C" style="fill:#fff;stroke:#fff;stroke-linecap:round;stroke-linejoin:round;stroke-width:.25em">Kiribati</text><text x="83" y="238" font-size="11.03" fill="#A8633C">Kiribati</text><text x="80" y="396" font-size="11.35" fill="#923E8B" style="fill:#fff;stroke:#fff;stroke-linecap:round;stroke-linejoin:round;stroke-width:.25em">Malawi</text><text x="80" y="396" font-size="11.35" fill="#923E8B">Malawi</text><text x="265.81" y="245.9" font-size="11.06" fill="#4C5C78" style="fill:#fff;stroke:#fff;stroke-linecap:round;stroke-linejoin:round;stroke-width:.25em">Malta</text><text x="265.81" y="245.9" font-size="11.06" fill="#4C5C78">Malta</text><text x="288" y="222.59" font-size="11.19" fill="#A8633C" style="fill:#fff;stroke:#fff;stroke-linecap:round;stroke-linejoin:round;stroke-width:.25em">New Zealand</text><text x="288" y="222.59" font-size="11.19" fill="#A8633C">New Zealand</text><text x="218.81" y="301.96" font-size="11.17" fill="#E04E4B" style="fill:#fff;stroke:#fff;stroke-linecap:round;stroke-linejoin:round;stroke-width:.25em">Panama</text><text x="218.81" y="301.96" font-size="11.17" fill="#E04E4B">Panama</text><text x="189.81" y="192.55" font-size="11.29" fill="#4C5C78" style="fill:#fff;stroke:#fff;stroke-linecap:round;stroke-linejoin:round;stroke-width:.25em">Portugal</text><text x="189.81" y="192.55" font-size="11.29" fill="#4C5C78">Portugal</text><text x="195.9" y="280.68" font-size="11.4" fill="#4C5C78" style="fill:#fff;stroke:#fff;stroke-linecap:round;stroke-linejoin:round;stroke-width:.25em">Romania</text><text x="195.9" y="280.68" font-size="11.4" fill="#4C5C78">Romania</text><text x="104" y="115.24" font-size="11.04" fill="#A8633C" style="fill:#fff;stroke:#fff;stroke-linecap:round;stroke-linejoin:round;stroke-width:.25em">Samoa</text><text x="104" y="115.24" font-size="11.04" fill="#A8633C">Samoa</text><text x="227.17" y="135" font-size="11.61" fill="#4C5C78" style="fill:#fff;stroke:#fff;stroke-linecap:round;stroke-linejoin:round;stroke-width:.25em">Spain</text><text x="227.17" y="135" font-size="11.61" fill="#4C5C78">Spain</text><text x="431.86" y="130.36" font-size="11.25" fill="#4C5C78" style="fill:#fff;stroke:#fff;stroke-linecap:round;stroke-linejoin:round;stroke-width:.25em">Switzerland</text><text x="431.86" y="130.36" font-size="11.25" fill="#4C5C78">Switzerland</text><text x="161.47" y="374.1" font-size="11.73" fill="#2D8587" style="fill:#fff;stroke:#fff;stroke-linecap:round;stroke-linejoin:round;stroke-width:.25em">Thailand</text><text x="161.47" y="374.1" font-size="11.73" fill="#2D8587">Thailand</text><text x="397.81" y="320.01" font-size="11.27" fill="#2D8587" style="fill:#fff;stroke:#fff;stroke-linecap:round;stroke-linejoin:round;stroke-width:.25em">United Arab Emirates</text><text x="397.81" y="320.01" font-size="11.27" fill="#2D8587">United Arab Emirates</text><text x="87.02" y="209.1" font-size="11.04" fill="#A8633C" style="fill:#fff;stroke:#fff;stroke-linecap:round;stroke-linejoin:round;stroke-width:.25em">Vanuatu</text><text x="87.02" y="209.1" font-size="11.04" fill="#A8633C">Vanuatu</text><text x="619.16" y="181.88" font-size="11.07" fill="#4C5C78" style="fill:#fff;stroke:#fff;stroke-linecap:round;stroke-linejoin:round;stroke-width:.25em">Luxembourg</text><text x="619.16" y="181.88" font-size="11.07" fill="#4C5C78">Luxembourg</text><text x="97" y="294.77" font-size="11.54" fill="#923E8B" style="fill:#fff;stroke:#fff;stroke-linecap:round;stroke-linejoin:round;stroke-width:.25em">Sudan</text><text x="97" y="294.77" font-size="11.54" fill="#923E8B">Sudan</text></g></g><g class="ScatterColorLegend clickable" style="cursor:pointer"><g class="legendMark"><path fill="#923E8B" d="M738.09 106h9v9h-9z"/><text font-size="12.6" x="752.1" y="114.3"><tspan x="752.09" y="114.28">Africa</tspan></text></g><g class="legendMark"><path fill="#2D8587" d="M738.09 123.6h9v9h-9z"/><text font-size="12.6" x="752.1" y="131.9"><tspan x="752.09" y="131.88">Asia</tspan></text></g><g class="legendMark"><path fill="#4C5C78" d="M738.09 141.2h9v9h-9z"/><text font-size="12.6" x="752.1" y="149.5"><tspan x="752.09" y="149.48">Europe</tspan></text></g><g class="legendMark"><path fill="#E04E4B" d="M738.09 158.8h9v9h-9z"/><text font-size="12.6" x="752.1" y="167.1"><tspan x="752.09" y="167.08">North America</tspan></text></g><g class="legendMark"><path fill="#A8633C" d="M738.09 176.4h9v9h-9z"/><text font-size="12.6" x="752.1" y="184.7"><tspan x="752.09" y="184.68">Oceania</tspan></text></g><g class="legendMark"><path fill="#932834" d="M738.09 194h9v9h-9z"/><text font-size="12.6" x="752.1" y="202.3"><tspan x="752.09" y="202.28">South America</tspan></text></g></g><path stroke="#ccc" d="M738.09 210.8H830"/><g class="clickable"><g class="ConnectedScatterLegend"><text font-size="12.6" x="738.1" y="227.9" fill="#333"><tspan x="738.09" y="227.88">1990</tspan></text><text font-size="12.6" x="806.8" y="227.9" fill="#333"><tspan x="806.78" y="227.88">2013</tspan></text><path stroke="#666" stroke-width="1" d="M771.32 223.6h30.46"/><circle cx="771.32" cy="223.6" r="2" fill="#666" stroke="#ccc" stroke-width=".2"/><circle cx="781.47" cy="223.6" r="2" fill="#666" stroke="#ccc" stroke-width=".2"/><circle cx="791.62" cy="223.6" r="2" fill="#666" stroke="#ccc" stroke-width=".2"/><path cx="801.78" cy="223.6" r="3" fill="#666" stroke="#ccc" stroke-width=".2" d="m798.78 220.6 6 3-6 3z"/></g></g></g><g class="SourcesFooter" style="fill:#777"><g style="fill:#777"><text font-size="12.6" x="15" y="568.8"><tspan x="15" y="568.78">Source: Our World in Data based on data from the Food and Agriculture Organization of the United Nations, Data compiled from multiple</tspan><tspan x="15" y="582.64">sources by World Bank</tspan></text></g><text font-size="12.6" x="796.4" y="568.8"><tspan x="796.44" y="568.78"><a style="fill:#777" class="cclogo" href="http://creativecommons.org/licenses/by/4.0/deed.en_US" target="_blank">CC BY</a></tspan></text></g></svg>