<svg xmlns="http://www.w3.org/2000/svg" version="1.1" style="background-color:#fff;-webkit-font-smoothing:antialiased" width="850" height="600" viewBox="0 0 850 600" font-family="Lato,'Helvetica Neue',Helvetica,Arial,sans-serif" font-size="18" text-rendering="optimizeLegibility"><g class="HeaderView"><g transform="matrix(.29 0 0 .29 774 15)"><svg width="210" height="120" viewBox="0 0 210 120" fill="none" xmlns="http://www.w3.org/2000/svg"><g clip-path="url(#clip0)"><path d="M0 0h210v107.89H0V0z" fill="#002147"/><path d="M40.98 32.25c0 2.36-.38 4.53-1.12 6.51a14.26 14.26 0 01-8.1 8.4c-1.9.78-4.02 1.17-6.34 1.17a16.6 16.6 0 01-6.33-1.17 14.31 14.31 0 01-8.08-8.4 18.29 18.29 0 01-1.12-6.51c0-2.36.38-4.53 1.12-6.5.75-1.97 1.8-3.67 3.17-5.1a14.32 14.32 0 014.9-3.34c1.92-.8 4.03-1.19 6.34-1.19 2.32 0 4.43.4 6.34 1.19 1.92.8 3.56 1.9 4.93 3.34a14.87 14.87 0 013.17 5.1 18.1 18.1 0 011.12 6.5zm-4.38 0c0-1.94-.26-3.68-.8-5.22a10.91 10.91 0 00-2.24-3.89 9.68 9.68 0 00-3.52-2.46 11.95 11.95 0 00-4.62-.86c-1.68 0-3.21.28-4.6.86a9.88 9.88 0 00-3.54 2.46 10.91 10.91 0 00-2.24 3.9c-.53 1.53-.8 3.27-.8 5.2 0 1.94.27 3.68.8 5.22a11.17 11.17 0 002.24 3.9 10.01 10.01 0 003.55 2.44c1.38.56 2.9.83 4.6.83s3.24-.27 4.61-.83a9.8 9.8 0 003.52-2.44 11.17 11.17 0 002.25-3.9c.53-1.54.8-3.28.8-5.21zm26.22-6.54V48H60.5c-.56 0-.9-.27-1.05-.81l-.31-2.4a12.45 12.45 0 01-3.26 2.6c-1.2.64-2.58.96-4.13.96-1.22 0-2.3-.2-3.24-.6a6.52 6.52 0 01-2.33-1.7 7.37 7.37 0 01-1.43-2.67c-.3-1.04-.46-2.2-.46-3.45V25.7h3.91v14.22c0 1.68.38 2.99 1.15 3.91.77.93 1.96 1.39 3.54 1.39 1.16 0 2.24-.27 3.23-.82a10.42 10.42 0 002.8-2.28V25.7h3.91zm8.61 4.47a9.94 9.94 0 012.6-3.56 5.64 5.64 0 013.76-1.3c.47 0 .92.05 1.34.15.44.1.83.27 1.17.49l-.3 2.92c-.09.37-.3.55-.66.55-.2 0-.5-.04-.9-.13a6.21 6.21 0 00-3.24.18 4.23 4.23 0 00-1.47.92c-.42.4-.81.9-1.17 1.5-.33.58-.64 1.26-.92 2.02V48H67.7V25.71h2.25c.42 0 .72.08.88.25.16.16.27.44.33.83l.26 3.39zm61.16-13.7L122.75 48h-3.82l-7.99-24.05a21.95 21.95 0 01-.42-1.58 38.36 38.36 0 01-.44 1.58L102.05 48h-3.83L88.4 16.47h3.54c.38 0 .7.1.95.29.26.2.43.43.5.73l6.52 21.9.28 1.28.29 1.46.3-1.46.38-1.27 7.41-21.91c.1-.25.26-.48.51-.69.27-.22.58-.33.95-.33h1.23c.38 0 .69.1.92.29a1.77 1.77 0 01.53.73l7.4 21.9a28.4 28.4 0 01.68 2.62 29.52 29.52 0 01.52-2.61l6.54-21.91a1.31 1.31 0 01.48-.7c.27-.21.58-.32.95-.32h3.32zm9.35 8.88c1.63 0 3.1.27 4.4.82a9.43 9.43 0 015.46 5.94c.5 1.4.74 2.98.74 4.73 0 1.76-.25 3.34-.74 4.75a9.43 9.43 0 01-5.46 5.92c-1.3.52-2.77.79-4.4.79-1.64 0-3.12-.27-4.44-.8a9.42 9.42 0 01-3.35-2.3c-.92-1-1.63-2.2-2.13-3.61-.49-1.41-.73-3-.73-4.75s.24-3.33.73-4.73c.5-1.43 1.2-2.64 2.13-3.63a9.4 9.4 0 013.35-2.31c1.32-.55 2.8-.82 4.44-.82zm0 19.89c2.2 0 3.84-.73 4.93-2.2 1.08-1.48 1.63-3.54 1.63-6.18 0-2.66-.55-4.72-1.63-6.2-1.09-1.49-2.73-2.23-4.93-2.23-1.12 0-2.09.2-2.93.57a5.71 5.71 0 00-2.06 1.65 7.5 7.5 0 00-1.24 2.67c-.26 1.04-.4 2.22-.4 3.54 0 2.64.55 4.7 1.64 6.18 1.1 1.47 2.76 2.2 4.99 2.2zm17.97-15.07a9.94 9.94 0 012.6-3.56 5.64 5.64 0 013.76-1.3c.47 0 .91.05 1.34.15.44.1.83.27 1.16.49l-.28 2.92c-.09.37-.31.55-.66.55-.2 0-.5-.04-.9-.13a6.2 6.2 0 00-3.24.18 4.23 4.23 0 00-1.47.92c-.43.4-.82.9-1.17 1.5a13.1 13.1 0 00-.92 2.02V48h-3.94V25.71h2.24c.43 0 .72.08.88.25.17.16.28.44.33.83l.27 3.39zm15.04-14.59V48h-3.92V15.6h3.92zm19.55 15.43a6.22 6.22 0 00-2.38-2.05 6.7 6.7 0 00-2.86-.6c-2.07 0-3.66.75-4.77 2.23-1.12 1.48-1.68 3.6-1.68 6.33 0 1.46.13 2.7.38 3.74a7.29 7.29 0 001.1 2.56 4.35 4.35 0 001.78 1.45c.7.3 1.5.46 2.4.46 1.29 0 2.41-.3 3.36-.88a9.6 9.6 0 002.67-2.49V31.02zm3.91-15.43V48h-2.33c-.56 0-.9-.27-1.06-.81l-.35-2.71a12.13 12.13 0 01-3.25 2.77 8.28 8.28 0 01-4.23 1.06 7.31 7.31 0 01-6.14-2.9c-.73-.96-1.3-2.15-1.69-3.57a18.35 18.35 0 01.07-9.48 11.29 11.29 0 011.89-3.7 8.7 8.7 0 017.06-3.34 7.96 7.96 0 016.12 2.62V15.59h3.91zM46.61 70.71V93H42.7V70.71h3.91zm.84-7c0 .39-.08.75-.24 1.09a2.81 2.81 0 01-1.52 1.47 2.67 2.67 0 01-2.16 0 2.9 2.9 0 01-1.45-1.47 2.67 2.67 0 010-2.16c.15-.35.35-.65.6-.9.25-.27.53-.47.85-.62a2.67 2.67 0 012.16 0c.35.15.65.35.9.62.27.25.47.55.62.9.16.34.24.7.24 1.08zm7.97 10.24c.49-.54 1-1.04 1.54-1.48a9.85 9.85 0 013.66-1.84 8.96 8.96 0 015.43.35c.94.4 1.72.97 2.33 1.71a7.36 7.36 0 011.43 2.67c.32 1.04.49 2.19.49 3.45V93h-3.94V78.81c0-1.69-.4-3-1.17-3.92-.76-.93-1.93-1.4-3.5-1.4a6.6 6.6 0 00-3.25.83c-1 .56-1.92 1.31-2.77 2.27V93h-3.94V70.71h2.35c.56 0 .9.28 1.04.82l.3 2.42zm57.7 3.3c0 2.36-.37 4.5-1.11 6.44a14.3 14.3 0 01-3.17 4.98 14.1 14.1 0 01-4.93 3.2c-1.9.76-4.02 1.13-6.33 1.13H85.8V61.47h11.77c2.31 0 4.42.39 6.33 1.15a13.8 13.8 0 018.1 8.18 17.75 17.75 0 011.12 6.45zm-4.37 0c0-1.94-.26-3.67-.8-5.2a10.94 10.94 0 00-2.23-3.87 9.57 9.57 0 00-3.53-2.42 12.23 12.23 0 00-4.61-.83h-7.5v24.62h7.5c1.7 0 3.24-.28 4.61-.84a9.7 9.7 0 003.53-2.4 10.94 10.94 0 002.24-3.87c.53-1.53.8-3.26.8-5.2zm19.8 5.72c-1.8.06-3.34.2-4.62.44-1.26.22-2.3.51-3.1.88-.8.36-1.37.8-1.74 1.3-.35.5-.53 1.05-.53 1.67 0 .58.1 1.1.3 1.52a3 3 0 00.76 1.05c.34.27.73.46 1.17.6a6.13 6.13 0 001.45.17 7.28 7.28 0 003.5-.81 11.95 11.95 0 002.82-2.2v-4.62zm-12.65-9.11a12.73 12.73 0 013.98-2.66c1.43-.59 3-.88 4.73-.88 1.25 0 2.36.2 3.33.61a6.81 6.81 0 013.94 4.38c.33 1.04.5 2.19.5 3.43V93h-1.74a1.8 1.8 0 01-.88-.18c-.2-.13-.36-.38-.48-.74l-.44-2.12-1.72 1.46a9.48 9.48 0 01-3.74 1.7c-.69.15-1.46.23-2.3.23-.87 0-1.69-.12-2.45-.35a5.34 5.34 0 01-3.34-2.93 6.64 6.64 0 01-.49-2.64c0-.88.25-1.72.73-2.53a6.33 6.33 0 012.35-2.17c1.09-.63 2.5-1.15 4.25-1.54 1.75-.41 3.89-.65 6.42-.7v-1.75c0-1.73-.37-3.03-1.12-3.91-.75-.9-1.84-1.34-3.28-1.34-.97 0-1.78.12-2.44.37-.64.23-1.2.5-1.7.81l-1.23.82c-.33.23-.67.35-1 .35-.27 0-.5-.07-.69-.2a2.1 2.1 0 01-.48-.53l-.7-1.25zm27.67 19.5c-1.76 0-3.12-.5-4.07-1.48-.94-.98-1.41-2.4-1.41-4.25V74h-2.68a.9.9 0 01-.6-.2c-.16-.14-.24-.36-.24-.66v-1.56l3.65-.46.9-6.89a.9.9 0 01.29-.52.88.88 0 01.62-.22H142v7.67h6.44V74H142v13.38c0 .94.22 1.63.68 2.09.45.45 1.04.68 1.76.68a3.21 3.21 0 001.85-.53l.55-.35c.16-.12.3-.18.41-.18.2 0 .4.13.55.38l1.15 1.87a7.45 7.45 0 01-2.44 1.5 8.53 8.53 0 01-2.95.52zm19.68-10.4c-1.8.07-3.34.21-4.62.45-1.26.22-2.3.51-3.1.88-.8.36-1.37.8-1.74 1.3-.35.5-.53 1.05-.53 1.67 0 .58.1 1.1.3 1.52a2.9 2.9 0 00.76 1.05c.34.27.73.46 1.17.6a6.13 6.13 0 001.45.17 7.3 7.3 0 003.5-.81 12.04 12.04 0 002.82-2.2v-4.62zm-12.65-9.1a12.72 12.72 0 013.99-2.66c1.42-.59 3-.88 4.72-.88 1.25 0 2.36.2 3.33.61a6.81 6.81 0 013.94 4.38c.33 1.04.5 2.19.5 3.43V93h-1.74a1.8 1.8 0 01-.88-.18c-.2-.13-.36-.38-.48-.74l-.44-2.12-1.72 1.46a9.48 9.48 0 01-3.74 1.7c-.69.15-1.46.23-2.3.23-.87 0-1.69-.12-2.45-.35a5.33 5.33 0 01-3.34-2.93 6.62 6.62 0 01-.49-2.64c0-.88.25-1.72.73-2.53a6.33 6.33 0 012.35-2.17c1.09-.63 2.5-1.15 4.25-1.54a31.2 31.2 0 016.42-.7v-1.75c0-1.73-.37-3.03-1.12-3.91-.75-.9-1.84-1.34-3.28-1.34-.97 0-1.78.12-2.44.37-.64.23-1.2.5-1.7.81l-1.22.82c-.34.23-.68.35-1.02.35-.26 0-.49-.07-.68-.2a1.88 1.88 0 01-.48-.53l-.7-1.25zM40.98 32.25c0 2.36-.38 4.53-1.12 6.51a14.26 14.26 0 01-8.1 8.4c-1.9.78-4.02 1.17-6.34 1.17a16.6 16.6 0 01-6.33-1.17 14.31 14.31 0 01-8.08-8.4 18.29 18.29 0 01-1.12-6.51c0-2.36.38-4.53 1.12-6.5.75-1.97 1.8-3.67 3.17-5.1a14.32 14.32 0 014.9-3.34c1.92-.8 4.03-1.19 6.34-1.19 2.32 0 4.43.4 6.34 1.19 1.92.8 3.56 1.9 4.93 3.34a14.87 14.87 0 013.17 5.1 18.1 18.1 0 011.12 6.5zm-4.38 0c0-1.94-.26-3.68-.8-5.22a10.91 10.91 0 00-2.24-3.89 9.68 9.68 0 00-3.52-2.46 11.95 11.95 0 00-4.62-.86c-1.68 0-3.21.28-4.6.86a9.88 9.88 0 00-3.54 2.46 10.91 10.91 0 00-2.24 3.9c-.53 1.53-.8 3.27-.8 5.2 0 1.94.27 3.68.8 5.22a11.17 11.17 0 002.24 3.9 10.01 10.01 0 003.55 2.44c1.38.56 2.9.83 4.6.83s3.24-.27 4.61-.83a9.8 9.8 0 003.52-2.44 11.17 11.17 0 002.25-3.9c.53-1.54.8-3.28.8-5.21zm26.22-6.54V48H60.5c-.56 0-.9-.27-1.05-.81l-.31-2.4a12.45 12.45 0 01-3.26 2.6c-1.2.64-2.58.96-4.13.96-1.22 0-2.3-.2-3.24-.6a6.52 6.52 0 01-2.33-1.7 7.37 7.37 0 01-1.43-2.67c-.3-1.04-.46-2.2-.46-3.45V25.7h3.91v14.22c0 1.68.38 2.99 1.15 3.91.77.93 1.96 1.39 3.54 1.39 1.16 0 2.24-.27 3.23-.82a10.42 10.42 0 002.8-2.28V25.7h3.91zm8.61 4.47a9.94 9.94 0 012.6-3.56 5.64 5.64 0 013.76-1.3c.47 0 .92.05 1.34.15.44.1.83.27 1.17.49l-.3 2.92c-.09.37-.3.55-.66.55-.2 0-.5-.04-.9-.13a6.21 6.21 0 00-3.24.18 4.23 4.23 0 00-1.47.92c-.42.4-.81.9-1.17 1.5-.33.58-.64 1.26-.92 2.02V48H67.7V25.71h2.25c.42 0 .72.08.88.25.16.16.27.44.33.83l.26 3.39zm61.16-13.7L122.75 48h-3.82l-7.99-24.05a21.95 21.95 0 01-.42-1.58 38.36 38.36 0 01-.44 1.58L102.05 48h-3.83L88.4 16.47h3.54c.38 0 .7.1.95.29.26.2.43.43.5.73l6.52 21.9.28 1.28.29 1.46.3-1.46.38-1.27 7.41-21.91c.1-.25.26-.48.51-.69.27-.22.58-.33.95-.33h1.23c.38 0 .69.1.92.29a1.77 1.77 0 01.53.73l7.4 21.9a28.4 28.4 0 01.68 2.62 29.52 29.52 0 01.52-2.61l6.54-21.91a1.31 1.31 0 01.48-.7c.27-.21.58-.32.95-.32h3.32zm9.35 8.88c1.63 0 3.1.27 4.4.82a9.43 9.43 0 015.46 5.94c.5 1.4.74 2.98.74 4.73 0 1.76-.25 3.34-.74 4.75a9.43 9.43 0 01-5.46 5.92c-1.3.52-2.77.79-4.4.79-1.64 0-3.12-.27-4.44-.8a9.42 9.42 0 01-3.35-2.3c-.92-1-1.63-2.2-2.13-3.61-.49-1.41-.73-3-.73-4.75s.24-3.33.73-4.73c.5-1.43 1.2-2.64 2.13-3.63a9.4 9.4 0 013.35-2.31c1.32-.55 2.8-.82 4.44-.82zm0 19.89c2.2 0 3.84-.73 4.93-2.2 1.08-1.48 1.63-3.54 1.63-6.18 0-2.66-.55-4.72-1.63-6.2-1.09-1.49-2.73-2.23-4.93-2.23-1.12 0-2.09.2-2.93.57a5.71 5.71 0 00-2.06 1.65 7.5 7.5 0 00-1.24 2.67c-.26 1.04-.4 2.22-.4 3.54 0 2.64.55 4.7 1.64 6.18 1.1 1.47 2.76 2.2 4.99 2.2zm17.97-15.07a9.94 9.94 0 012.6-3.56 5.64 5.64 0 013.76-1.3c.47 0 .91.05 1.34.15.44.1.83.27 1.16.49l-.28 2.92c-.09.37-.31.55-.66.55-.2 0-.5-.04-.9-.13a6.2 6.2 0 00-3.24.18 4.23 4.23 0 00-1.47.92c-.43.4-.82.9-1.17 1.5a13.1 13.1 0 00-.92 2.02V48h-3.94V25.71h2.24c.43 0 .72.08.88.25.17.16.28.44.33.83l.27 3.39zm15.04-14.59V48h-3.92V15.6h3.92zm19.55 15.43a6.22 6.22 0 00-2.38-2.05 6.7 6.7 0 00-2.86-.6c-2.07 0-3.66.75-4.77 2.23-1.12 1.48-1.68 3.6-1.68 6.33 0 1.46.13 2.7.38 3.74a7.29 7.29 0 001.1 2.56 4.35 4.35 0 001.78 1.45c.7.3 1.5.46 2.4.46 1.29 0 2.41-.3 3.36-.88a9.6 9.6 0 002.67-2.49V31.02zm3.91-15.43V48h-2.33c-.56 0-.9-.27-1.06-.81l-.35-2.71a12.13 12.13 0 01-3.25 2.77 8.28 8.28 0 01-4.23 1.06 7.31 7.31 0 01-6.14-2.9c-.73-.96-1.3-2.15-1.69-3.57a18.35 18.35 0 01.07-9.48 11.29 11.29 0 011.89-3.7 8.7 8.7 0 017.06-3.34 7.96 7.96 0 016.12 2.62V15.59h3.91zM46.61 70.71V93H42.7V70.71h3.91zm.84-7c0 .39-.08.75-.24 1.09a2.81 2.81 0 01-1.52 1.47 2.67 2.67 0 01-2.16 0 2.9 2.9 0 01-1.45-1.47 2.67 2.67 0 010-2.16c.15-.35.35-.65.6-.9.25-.27.53-.47.85-.62a2.67 2.67 0 012.16 0c.35.15.65.35.9.62.27.25.47.55.62.9.16.34.24.7.24 1.08zm7.97 10.24c.49-.54 1-1.04 1.54-1.48a9.85 9.85 0 013.66-1.84 8.96 8.96 0 015.43.35c.94.4 1.72.97 2.33 1.71a7.36 7.36 0 011.43 2.67c.32 1.04.49 2.19.49 3.45V93h-3.94V78.81c0-1.69-.4-3-1.17-3.92-.76-.93-1.93-1.4-3.5-1.4a6.6 6.6 0 00-3.25.83c-1 .56-1.92 1.31-2.77 2.27V93h-3.94V70.71h2.35c.56 0 .9.28 1.04.82l.3 2.42zm57.7 3.3c0 2.36-.37 4.5-1.11 6.44a14.3 14.3 0 01-3.17 4.98 14.1 14.1 0 01-4.93 3.2c-1.9.76-4.02 1.13-6.33 1.13H85.8V61.47h11.77c2.31 0 4.42.39 6.33 1.15a13.8 13.8 0 018.1 8.18 17.75 17.75 0 011.12 6.45zm-4.37 0c0-1.94-.26-3.67-.8-5.2a10.94 10.94 0 00-2.23-3.87 9.57 9.57 0 00-3.53-2.42 12.23 12.23 0 00-4.61-.83h-7.5v24.62h7.5c1.7 0 3.24-.28 4.61-.84a9.7 9.7 0 003.53-2.4 10.94 10.94 0 002.24-3.87c.53-1.53.8-3.26.8-5.2zm19.8 5.72c-1.8.06-3.34.2-4.62.44-1.26.22-2.3.51-3.1.88-.8.36-1.37.8-1.74 1.3-.35.5-.53 1.05-.53 1.67 0 .58.1 1.1.3 1.52a3 3 0 00.76 1.05c.34.27.73.46 1.17.6a6.13 6.13 0 001.45.17 7.28 7.28 0 003.5-.81 11.95 11.95 0 002.82-2.2v-4.62zm-12.65-9.11a12.73 12.73 0 013.98-2.66c1.43-.59 3-.88 4.73-.88 1.25 0 2.36.2 3.33.61a6.81 6.81 0 013.94 4.38c.33 1.04.5 2.19.5 3.43V93h-1.74a1.8 1.8 0 01-.88-.18c-.2-.13-.36-.38-.48-.74l-.44-2.12-1.72 1.46a9.48 9.48 0 01-3.74 1.7c-.69.15-1.46.23-2.3.23-.87 0-1.69-.12-2.45-.35a5.34 5.34 0 01-3.34-2.93 6.64 6.64 0 01-.49-2.64c0-.88.25-1.72.73-2.53a6.33 6.33 0 012.35-2.17c1.09-.63 2.5-1.15 4.25-1.54 1.75-.41 3.89-.65 6.42-.7v-1.75c0-1.73-.37-3.03-1.12-3.91-.75-.9-1.84-1.34-3.28-1.34-.97 0-1.78.12-2.44.37-.64.23-1.2.5-1.7.81l-1.23.82c-.33.23-.67.35-1 .35-.27 0-.5-.07-.69-.2a2.1 2.1 0 01-.48-.53l-.7-1.25zm27.67 19.5c-1.76 0-3.12-.5-4.07-1.48-.94-.98-1.41-2.4-1.41-4.25V74h-2.68a.9.9 0 01-.6-.2c-.16-.14-.24-.36-.24-.66v-1.56l3.65-.46.9-6.89a.9.9 0 01.29-.52.88.88 0 01.62-.22H142v7.67h6.44V74H142v13.38c0 .94.22 1.63.68 2.09.45.45 1.04.68 1.76.68a3.21 3.21 0 001.85-.53l.55-.35c.16-.12.3-.18.41-.18.2 0 .4.13.55.38l1.15 1.87a7.45 7.45 0 01-2.44 1.5 8.53 8.53 0 01-2.95.52zm19.68-10.4c-1.8.07-3.34.21-4.62.45-1.26.22-2.3.51-3.1.88-.8.36-1.37.8-1.74 1.3-.35.5-.53 1.05-.53 1.67 0 .58.1 1.1.3 1.52a2.9 2.9 0 00.76 1.05c.34.27.73.46 1.17.6a6.13 6.13 0 001.45.17 7.3 7.3 0 003.5-.81 12.04 12.04 0 002.82-2.2v-4.62zm-12.65-9.1a12.72 12.72 0 013.99-2.66c1.42-.59 3-.88 4.72-.88 1.25 0 2.36.2 3.33.61a6.81 6.81 0 013.94 4.38c.33 1.04.5 2.19.5 3.43V93h-1.74a1.8 1.8 0 01-.88-.18c-.2-.13-.36-.38-.48-.74l-.44-2.12-1.72 1.46a9.48 9.48 0 01-3.74 1.7c-.69.15-1.46.23-2.3.23-.87 0-1.69-.12-2.45-.35a5.33 5.33 0 01-3.34-2.93 6.62 6.62 0 01-.49-2.64c0-.88.25-1.72.73-2.53a6.33 6.33 0 012.35-2.17c1.09-.63 2.5-1.15 4.25-1.54a31.2 31.2 0 016.42-.7v-1.75c0-1.73-.37-3.03-1.12-3.91-.75-.9-1.84-1.34-3.28-1.34-.97 0-1.78.12-2.44.37-.64.23-1.2.5-1.7.81l-1.22.82c-.34.23-.68.35-1.02.35-.26 0-.49-.07-.68-.2a1.88 1.88 0 01-.48-.53l-.7-1.25zM40.98 32.25c0 2.36-.38 4.53-1.12 6.51a14.26 14.26 0 01-8.1 8.4c-1.9.78-4.02 1.17-6.34 1.17a16.6 16.6 0 01-6.33-1.17 14.31 14.31 0 01-8.08-8.4 18.29 18.29 0 01-1.12-6.51c0-2.36.38-4.53 1.12-6.5.75-1.97 1.8-3.67 3.17-5.1a14.32 14.32 0 014.9-3.34c1.92-.8 4.03-1.19 6.34-1.19 2.32 0 4.43.4 6.34 1.19 1.92.8 3.56 1.9 4.93 3.34a14.87 14.87 0 013.17 5.1 18.1 18.1 0 011.12 6.5zm-4.38 0c0-1.94-.26-3.68-.8-5.22a10.91 10.91 0 00-2.24-3.89 9.68 9.68 0 00-3.52-2.46 11.95 11.95 0 00-4.62-.86c-1.68 0-3.21.28-4.6.86a9.88 9.88 0 00-3.54 2.46 10.91 10.91 0 00-2.24 3.9c-.53 1.53-.8 3.27-.8 5.2 0 1.94.27 3.68.8 5.22a11.17 11.17 0 002.24 3.9 10.01 10.01 0 003.55 2.44c1.38.56 2.9.83 4.6.83s3.24-.27 4.61-.83a9.8 9.8 0 003.52-2.44 11.17 11.17 0 002.25-3.9c.53-1.54.8-3.28.8-5.21zm26.22-6.54V48H60.5c-.56 0-.9-.27-1.05-.81l-.31-2.4a12.45 12.45 0 01-3.26 2.6c-1.2.64-2.58.96-4.13.96-1.22 0-2.3-.2-3.24-.6a6.52 6.52 0 01-2.33-1.7 7.37 7.37 0 01-1.43-2.67c-.3-1.04-.46-2.2-.46-3.45V25.7h3.91v14.22c0 1.68.38 2.99 1.15 3.91.77.93 1.96 1.39 3.54 1.39 1.16 0 2.24-.27 3.23-.82a10.42 10.42 0 002.8-2.28V25.7h3.91zm8.61 4.47a9.94 9.94 0 012.6-3.56 5.64 5.64 0 013.76-1.3c.47 0 .92.05 1.34.15.44.1.83.27 1.17.49l-.3 2.92c-.09.37-.3.55-.66.55-.2 0-.5-.04-.9-.13a6.21 6.21 0 00-3.24.18 4.23 4.23 0 00-1.47.92c-.42.4-.81.9-1.17 1.5-.33.58-.64 1.26-.92 2.02V48H67.7V25.71h2.25c.42 0 .72.08.88.25.16.16.27.44.33.83l.26 3.39zm61.16-13.7L122.75 48h-3.82l-7.99-24.05a21.95 21.95 0 01-.42-1.58 38.36 38.36 0 01-.44 1.58L102.05 48h-3.83L88.4 16.47h3.54c.38 0 .7.1.95.29.26.2.43.43.5.73l6.52 21.9.28 1.28.29 1.46.3-1.46.38-1.27 7.41-21.91c.1-.25.26-.48.51-.69.27-.22.58-.33.95-.33h1.23c.38 0 .69.1.92.29a1.77 1.77 0 01.53.73l7.4 21.9a28.4 28.4 0 01.68 2.62 29.52 29.52 0 01.52-2.61l6.54-21.91a1.31 1.31 0 01.48-.7c.27-.21.58-.32.95-.32h3.32zm9.35 8.88c1.63 0 3.1.27 4.4.82a9.43 9.43 0 015.46 5.94c.5 1.4.74 2.98.74 4.73 0 1.76-.25 3.34-.74 4.75a9.43 9.43 0 01-5.46 5.92c-1.3.52-2.77.79-4.4.79-1.64 0-3.12-.27-4.44-.8a9.42 9.42 0 01-3.35-2.3c-.92-1-1.63-2.2-2.13-3.61-.49-1.41-.73-3-.73-4.75s.24-3.33.73-4.73c.5-1.43 1.2-2.64 2.13-3.63a9.4 9.4 0 013.35-2.31c1.32-.55 2.8-.82 4.44-.82zm0 19.89c2.2 0 3.84-.73 4.93-2.2 1.08-1.48 1.63-3.54 1.63-6.18 0-2.66-.55-4.72-1.63-6.2-1.09-1.49-2.73-2.23-4.93-2.23-1.12 0-2.09.2-2.93.57a5.71 5.71 0 00-2.06 1.65 7.5 7.5 0 00-1.24 2.67c-.26 1.04-.4 2.22-.4 3.54 0 2.64.55 4.7 1.64 6.18 1.1 1.47 2.76 2.2 4.99 2.2zm17.97-15.07a9.94 9.94 0 012.6-3.56 5.64 5.64 0 013.76-1.3c.47 0 .91.05 1.34.15.44.1.83.27 1.16.49l-.28 2.92c-.09.37-.31.55-.66.55-.2 0-.5-.04-.9-.13a6.2 6.2 0 00-3.24.18 4.23 4.23 0 00-1.47.92c-.43.4-.82.9-1.17 1.5a13.1 13.1 0 00-.92 2.02V48h-3.94V25.71h2.24c.43 0 .72.08.88.25.17.16.28.44.33.83l.27 3.39zm15.04-14.59V48h-3.92V15.6h3.92zm19.55 15.43a6.22 6.22 0 00-2.38-2.05 6.7 6.7 0 00-2.86-.6c-2.07 0-3.66.75-4.77 2.23-1.12 1.48-1.68 3.6-1.68 6.33 0 1.46.13 2.7.38 3.74a7.29 7.29 0 001.1 2.56 4.35 4.35 0 001.78 1.45c.7.3 1.5.46 2.4.46 1.29 0 2.41-.3 3.36-.88a9.6 9.6 0 002.67-2.49V31.02zm3.91-15.43V48h-2.33c-.56 0-.9-.27-1.06-.81l-.35-2.71a12.13 12.13 0 01-3.25 2.77 8.28 8.28 0 01-4.23 1.06 7.31 7.31 0 01-6.14-2.9c-.73-.96-1.3-2.15-1.69-3.57a18.35 18.35 0 01.07-9.48 11.29 11.29 0 011.89-3.7 8.7 8.7 0 017.06-3.34 7.96 7.96 0 016.12 2.62V15.59h3.91zM46.61 70.71V93H42.7V70.71h3.91zm.84-7c0 .39-.08.75-.24 1.09a2.81 2.81 0 01-1.52 1.47 2.67 2.67 0 01-2.16 0 2.9 2.9 0 01-1.45-1.47 2.67 2.67 0 010-2.16c.15-.35.35-.65.6-.9.25-.27.53-.47.85-.62a2.67 2.67 0 012.16 0c.35.15.65.35.9.62.27.25.47.55.62.9.16.34.24.7.24 1.08zm7.97 10.24c.49-.54 1-1.04 1.54-1.48a9.85 9.85 0 013.66-1.84 8.96 8.96 0 015.43.35c.94.4 1.72.97 2.33 1.71a7.36 7.36 0 011.43 2.67c.32 1.04.49 2.19.49 3.45V93h-3.94V78.81c0-1.69-.4-3-1.17-3.92-.76-.93-1.93-1.4-3.5-1.4a6.6 6.6 0 00-3.25.83c-1 .56-1.92 1.31-2.77 2.27V93h-3.94V70.71h2.35c.56 0 .9.28 1.04.82l.3 2.42zm57.7 3.3c0 2.36-.37 4.5-1.11 6.44a14.3 14.3 0 01-3.17 4.98 14.1 14.1 0 01-4.93 3.2c-1.9.76-4.02 1.13-6.33 1.13H85.8V61.47h11.77c2.31 0 4.42.39 6.33 1.15a13.8 13.8 0 018.1 8.18 17.75 17.75 0 011.12 6.45zm-4.37 0c0-1.94-.26-3.67-.8-5.2a10.94 10.94 0 00-2.23-3.87 9.57 9.57 0 00-3.53-2.42 12.23 12.23 0 00-4.61-.83h-7.5v24.62h7.5c1.7 0 3.24-.28 4.61-.84a9.7 9.7 0 003.53-2.4 10.94 10.94 0 002.24-3.87c.53-1.53.8-3.26.8-5.2zm19.8 5.72c-1.8.06-3.34.2-4.62.44-1.26.22-2.3.51-3.1.88-.8.36-1.37.8-1.74 1.3-.35.5-.53 1.05-.53 1.67 0 .58.1 1.1.3 1.52a3 3 0 00.76 1.05c.34.27.73.46 1.17.6a6.13 6.13 0 001.45.17 7.28 7.28 0 003.5-.81 11.95 11.95 0 002.82-2.2v-4.62zm-12.65-9.11a12.73 12.73 0 013.98-2.66c1.43-.59 3-.88 4.73-.88 1.25 0 2.36.2 3.33.61a6.81 6.81 0 013.94 4.38c.33 1.04.5 2.19.5 3.43V93h-1.74a1.8 1.8 0 01-.88-.18c-.2-.13-.36-.38-.48-.74l-.44-2.12-1.72 1.46a9.48 9.48 0 01-3.74 1.7c-.69.15-1.46.23-2.3.23-.87 0-1.69-.12-2.45-.35a5.34 5.34 0 01-3.34-2.93 6.64 6.64 0 01-.49-2.64c0-.88.25-1.72.73-2.53a6.33 6.33 0 012.35-2.17c1.09-.63 2.5-1.15 4.25-1.54 1.75-.41 3.89-.65 6.42-.7v-1.75c0-1.73-.37-3.03-1.12-3.91-.75-.9-1.84-1.34-3.28-1.34-.97 0-1.78.12-2.44.37-.64.23-1.2.5-1.7.81l-1.23.82c-.33.23-.67.35-1 .35-.27 0-.5-.07-.69-.2a2.1 2.1 0 01-.48-.53l-.7-1.25zm27.67 19.5c-1.76 0-3.12-.5-4.07-1.48-.94-.98-1.41-2.4-1.41-4.25V74h-2.68a.9.9 0 01-.6-.2c-.16-.14-.24-.36-.24-.66v-1.56l3.65-.46.9-6.89a.9.9 0 01.29-.52.88.88 0 01.62-.22H142v7.67h6.44V74H142v13.38c0 .94.22 1.63.68 2.09.45.45 1.04.68 1.76.68a3.21 3.21 0 001.85-.53l.55-.35c.16-.12.3-.18.41-.18.2 0 .4.13.55.38l1.15 1.87a7.45 7.45 0 01-2.44 1.5 8.53 8.53 0 01-2.95.52zm19.68-10.4c-1.8.07-3.34.21-4.62.45-1.26.22-2.3.51-3.1.88-.8.36-1.37.8-1.74 1.3-.35.5-.53 1.05-.53 1.67 0 .58.1 1.1.3 1.52a2.9 2.9 0 00.76 1.05c.34.27.73.46 1.17.6a6.13 6.13 0 001.45.17 7.3 7.3 0 003.5-.81 12.04 12.04 0 002.82-2.2v-4.62zm-12.65-9.1a12.72 12.72 0 013.99-2.66c1.42-.59 3-.88 4.72-.88 1.25 0 2.36.2 3.33.61a6.81 6.81 0 013.94 4.38c.33 1.04.5 2.19.5 3.43V93h-1.74a1.8 1.8 0 01-.88-.18c-.2-.13-.36-.38-.48-.74l-.44-2.12-1.72 1.46a9.48 9.48 0 01-3.74 1.7c-.69.15-1.46.23-2.3.23-.87 0-1.69-.12-2.45-.35a5.33 5.33 0 01-3.34-2.93 6.62 6.62 0 01-.49-2.64c0-.88.25-1.72.73-2.53a6.33 6.33 0 012.35-2.17c1.09-.63 2.5-1.15 4.25-1.54a31.2 31.2 0 016.42-.7v-1.75c0-1.73-.37-3.03-1.12-3.91-.75-.9-1.84-1.34-3.28-1.34-.97 0-1.78.12-2.44.37-.64.23-1.2.5-1.7.81l-1.22.82c-.34.23-.68.35-1.02.35-.26 0-.49-.07-.68-.2a1.88 1.88 0 01-.48-.53l-.7-1.25z" fill="#fff"/><path fill="#D42B21" d="M0 106.79h210V120H0z"/></g><defs><clipPath id="clip0"><path fill="#fff" d="M0 0h210v120H0z"/></clipPath></defs></svg></g><a href="https://ourworldindata.org/grapher/share-of-population-working-in-the-financial-sector-by-access-to-the-population-share-having-access-to-a-bank-account" target="_blank" rel="noopener" font-family="&quot;Playfair Display&quot;,Georgia,&quot;Times New Roman&quot;,serif"><text font-size="21.6" x="15" y="32.3" fill="#555"><tspan x="15" y="32.28">Share of population working in the financial sector by access to the</tspan><tspan x="15" y="53.88">population share having access to a bank account, 2005 to 2011</tspan></text></a></g><g class="ScatterPlot"><g class="DualAxisView"><g class="HorizontalAxis"><text font-size="12.6" x="188.2" y="540.3"><tspan x="188.19" y="540.28">Access to financial account or services (%) - World Bank (2014)</tspan></text><text x="74.4" y="520.2" fill="#666" text-anchor="middle" font-size="16.2">5%</text><text x="176" y="520.2" fill="#666" text-anchor="middle" font-size="16.2">20%</text><text x="311.5" y="520.2" fill="#666" text-anchor="middle" font-size="16.2">40%</text><text x="447" y="520.2" fill="#666" text-anchor="middle" font-size="16.2">60%</text><text x="582.6" y="520.2" fill="#666" text-anchor="middle" font-size="16.2">80%</text><text x="718.1" y="520.2" fill="#666" text-anchor="middle" font-size="16.2">100%</text></g><g class="VerticalAxis"><text font-size="12.6" x="-459.4" y="25.1" transform="rotate(-90)"><tspan x="-459.39" y="25.08">Share of population in financial sector (GGDC, 2017)</tspan></text><text x="69.35" y="499" fill="#666" dominant-baseline="middle" text-anchor="end" font-size="16.2">0</text><text x="69.35" y="435.7" fill="#666" dominant-baseline="middle" text-anchor="end" font-size="16.2">0.02</text><text x="69.35" y="372.3" fill="#666" dominant-baseline="middle" text-anchor="end" font-size="16.2">0.04</text><text x="69.35" y="309" fill="#666" dominant-baseline="middle" text-anchor="end" font-size="16.2">0.06</text><text x="69.35" y="245.6" fill="#666" dominant-baseline="middle" text-anchor="end" font-size="16.2">0.08</text><text x="69.35" y="182.3" fill="#666" dominant-baseline="middle" text-anchor="end" font-size="16.2">0.1</text><text x="69.35" y="118.9" fill="#666" dominant-baseline="middle" text-anchor="end" font-size="16.2">0.12</text></g><g class="AxisGridLines horizontalLines"><path stroke="#ccc" d="M74.35 499h643.74"/><path stroke="#d3d3d3" stroke-dasharray="3,2" d="M74.35 435.7h643.74M74.35 372.3h643.74M74.35 309h643.74M74.35 245.6h643.74M74.35 182.3h643.74M74.35 118.9h643.74"/></g><g class="AxisGridLines verticalLines" stroke="#d3d3d3" stroke-dasharray="3,2"><path d="M176 499V80M311.5 499V80M447 499V80M582.6 499V80M718.1 499V80"/></g></g><g class="PointsWithLabels clickable" clip-path="url(#a)" font-family="Arial, sans-serif"><path fill="rgba(255,255,255,0)" d="M74.35 80h643.74v419H74.35z"/><defs><clipPath id="a"><path d="M64.35 70h663.74v439H64.35z"/></clipPath></defs><g class="key-China_0"><circle cx="325" cy="477" r="1.7" fill="#2D8587" opacity=".7"/><path stroke-width="1.42" opacity=".7" stroke="#2D8587" fill="none" stroke-linecap="butt" d="M325 477l147-4"/><path cx="472" cy="473" r="2.62" fill="#2D8587" opacity=".7" d="M469.31 470.45l5.3 2.48-5.16 2.76z"/></g><g class="key-India_0"><circle cx="365" cy="477" r="2.02" fill="#2D8587" opacity=".8" stroke="#333" stroke-width=".5"/></g><g class="key-Indonesia_0"><circle cx="311" cy="478" r="1.3" fill="#2D8587" opacity=".7"/><path stroke-width=".78" opacity=".7" stroke="#2D8587" fill="none" stroke-linecap="butt" d="M311 478l-138-17"/><path cx="173" cy="461" r="1.98" fill="#2D8587" opacity=".7" d="M174.72 463.2l-3.69-2.44 4.18-1.48z"/></g><g class="key-Brazil_0"><circle cx="331" cy="355" r="1.3" fill="#932834" opacity=".7"/><path stroke-width=".73" opacity=".7" stroke="#932834" fill="none" stroke-linecap="butt" d="M331 355l88-48"/><path cx="419" cy="307" r="1.93" fill="#932834" opacity=".7" d="M416.38 306.23l4.31-.15-2.46 3.54z"/></g><g class="key-Nigeria_0"><circle cx="142" cy="485" r="1.2" fill="#923E8B" opacity=".7"/><path stroke-width=".7" opacity=".7" stroke="#923E8B" fill="none" stroke-linecap="butt" d="M142 485l99-20"/><path cx="241" cy="465" r="1.9" fill="#923E8B" opacity=".7" d="M238.76 463.51l4.1 1.11-3.35 2.62z"/></g><g class="key-Japan_0"><circle cx="693" cy="285" r="1.36" fill="#2D8587" opacity=".8" stroke="#333" stroke-width=".5"/></g><g class="key-Mexico_0"><circle cx="209" cy="412" r="1.2" fill="#E04E4B" opacity=".7"/><path stroke-width=".64" opacity=".7" stroke="#E04E4B" fill="none" stroke-linecap="butt" d="M209 412l17-21"/><path cx="226" cy="391" r="1.84" fill="#E04E4B" opacity=".7" d="M223.41 391.27l3.75-1.7-.89 4.02z"/></g><g class="key-Philippines_0"><circle cx="216" cy="460" r="1.2" fill="#2D8587" opacity=".7"/><path stroke-width=".61" opacity=".7" stroke="#2D8587" fill="none" stroke-linecap="butt" d="M216 460l4-13"/><path cx="220" cy="447" r="1.81" fill="#2D8587" opacity=".7" d="M217.74 448.2l2.8-2.93.66 4z"/></g><g class="key-Egypt_0"><circle cx="318" cy="472" r="1.2" fill="#923E8B" opacity=".7"/><path stroke-width=".59" opacity=".7" stroke="#923E8B" fill="none" stroke-linecap="butt" d="M318 472l-212-3"/><path cx="106" cy="469" r="1.79" fill="#923E8B" opacity=".7" d="M107.76 470.82l-3.55-1.85 3.6-1.73z"/></g><g class="key-Ethiopia_0"><circle cx="135" cy="496" r="1.28" fill="#923E8B" opacity=".8" stroke="#333" stroke-width=".5"/></g><g class="key-Thailand_0"><circle cx="440" cy="451" r="1.2" fill="#2D8587" opacity=".7"/><path stroke-width=".57" opacity=".7" stroke="#2D8587" fill="none" stroke-linecap="butt" d="M440 451l92-6"/><path cx="532" cy="445" r="1.77" fill="#2D8587" opacity=".7" d="M530.12 443.35l3.65 1.53-3.42 2z"/></g><g class="key-France_0"><circle cx="691" cy="299" r="1.2" fill="#4C5C78" opacity=".7"/><path stroke-width=".56" opacity=".7" stroke="#4C5C78" fill="none" stroke-linecap="butt" d="M691 299l6-16"/><path cx="697" cy="283" r="1.76" fill="#4C5C78" opacity=".7" d="M694.73 284.03l2.89-2.68.41 3.92z"/></g><g class="key-Italy_0"><circle cx="548" cy="319" r="1.2" fill="#4C5C78" opacity=".7"/><path stroke-width=".55" opacity=".7" stroke="#4C5C78" fill="none" stroke-linecap="butt" d="M548 319l-27-19"/><path cx="521" cy="300" r="1.75" fill="#4C5C78" opacity=".7" d="M521.42 302.44l-1.85-3.45 3.87.59z"/></g><g class="key-South-Africa_0"><circle cx="352" cy="410" r="1.1" fill="#923E8B" opacity=".7"/><path stroke-width=".54" opacity=".7" stroke="#923E8B" fill="none" stroke-linecap="butt" d="M352 410l52-16"/><path cx="404" cy="394" r="1.74" fill="#923E8B" opacity=".7" d="M401.83 392.85l3.83.64-2.81 2.68z"/></g><g class="key-South-Korea_0"><circle cx="467" cy="316" r="1.23" fill="#2D8587" opacity=".8" stroke="#666" stroke-width=".5"/></g><g class="key-Spain_0"><circle cx="684" cy="374" r="1.1" fill="#4C5C78" opacity=".7"/><path stroke-width=".53" opacity=".7" stroke="#4C5C78" fill="none" stroke-linecap="butt" d="M684 374l-12-17"/><path cx="672" cy="357" r="1.73" fill="#4C5C78" opacity=".7" d="M671.58 359.41l-.58-3.82 3.41 1.83z"/></g><g class="key-Tanzania_0"><circle cx="74" cy="492" r="1.1" fill="#923E8B" opacity=".7"/><path stroke-width=".53" opacity=".7" stroke="#923E8B" fill="none" stroke-linecap="butt" d="M74 492l83-2"/><path cx="157" cy="490" r="1.73" fill="#923E8B" opacity=".7" d="M155.23 488.31l3.5 1.65-3.42 1.81z"/></g><g class="key-Kenya_0"><circle cx="108" cy="484" r="1.1" fill="#923E8B" opacity=".7"/><path stroke-width=".52" opacity=".7" stroke="#923E8B" fill="none" stroke-linecap="butt" d="M108 484h219"/><path cx="327" cy="484" r="1.72" fill="#923E8B" opacity=".7" d="M325.28 482.28l3.44 1.72-3.44 1.72z"/></g><g class="key-Colombia_0"><circle cx="318" cy="409" r="1.22" fill="#932834" opacity=".8" stroke="#333" stroke-width=".5"/></g><g class="key-Argentina_0"><circle cx="230" cy="391" r="1.1" fill="#932834" opacity=".7"/><path stroke-width=".52" opacity=".7" stroke="#932834" fill="none" stroke-linecap="butt" d="M230 391l35-25"/><path cx="265" cy="366" r="1.72" fill="#932834" opacity=".7" d="M262.6 365.6l3.8-.6-1.8 3.4z"/></g><g class="key-Morocco_0"><circle cx="230" cy="484" r="1.1" fill="#923E8B" opacity=".7"/><path stroke-width=".5" opacity=".7" stroke="#923E8B" fill="none" stroke-linecap="butt" d="M230 484l75-5"/><path cx="305" cy="479" r="1.7" fill="#923E8B" opacity=".7" d="M303.2 477.42l3.5 1.47-3.28 1.92z"/></g><g class="key-Peru_0"><circle cx="216" cy="420" r="1.1" fill="#932834" opacity=".7"/><path stroke-width=".49" opacity=".7" stroke="#932834" fill="none" stroke-linecap="butt" d="M216 420l-37-26"/><path cx="179" cy="394" r="1.69" fill="#932834" opacity=".7" d="M179.41 396.35l-1.8-3.32 3.74.56z"/></g><g class="key-Venezuela_0"><circle cx="230" cy="429" r="1.1" fill="#932834" opacity=".7"/><path stroke-width=".49" opacity=".7" stroke="#932834" fill="none" stroke-linecap="butt" d="M230 429l109-20"/><path cx="339" cy="409" r="1.69" fill="#932834" opacity=".7" d="M337.03 407.64l3.63 1.06-3.02 2.27z"/></g><g class="key-Malaysia_0"><circle cx="447" cy="403" r="1.1" fill="#2D8587" opacity=".7"/><path stroke-width=".49" opacity=".7" stroke="#2D8587" fill="none" stroke-linecap="butt" d="M447 403l41-32"/><path cx="488" cy="371" r="1.69" fill="#2D8587" opacity=".7" d="M485.63 370.7l3.7-.74-1.62 3.41z"/></g><g class="key-Ghana_0"><circle cx="148" cy="476" r="1.1" fill="#923E8B" opacity=".7"/><path stroke-width=".48" opacity=".7" stroke="#923E8B" fill="none" stroke-linecap="butt" d="M148 476l91-10"/><path cx="239" cy="466" r="1.68" fill="#923E8B" opacity=".7" d="M237.15 464.51l3.52 1.3-3.16 2.04z"/></g><g class="key-Chile_0"><circle cx="447" cy="346" r="1.1" fill="#932834" opacity=".7"/><path stroke-width=".46" opacity=".7" stroke="#932834" fill="none" stroke-linecap="butt" d="M447 346l-121-2"/><path cx="326" cy="344" r="1.66" fill="#932834" opacity=".7" d="M327.63 345.69l-3.29-1.72 3.35-1.6z"/></g><g class="key-Netherlands_0"><circle cx="718" cy="201" r="1.1" fill="#4C5C78" opacity=".7"/><path stroke-width=".46" opacity=".7" stroke="#4C5C78" fill="none" stroke-linecap="butt" d="M718 201l-9-21"/><path cx="709" cy="180" r="1.66" fill="#4C5C78" opacity=".7" d="M708.13 182.18l.22-3.7 2.83 2.4z"/></g><g class="key-Malawi_0"><circle cx="182" cy="491" r="1.15" fill="#923E8B" opacity=".8" stroke="#333" stroke-width=".5"/></g><g class="key-Zambia_0"><circle cx="142" cy="490" r="1.15" fill="#923E8B" opacity=".8" stroke="#666" stroke-width=".5"/></g><g class="key-Senegal_0"><circle cx="223" cy="494" r="1.15" fill="#923E8B" opacity=".8" stroke="#333" stroke-width=".5"/></g><g class="key-Sweden_0"><circle cx="711" cy="325" r="1.1" fill="#4C5C78" opacity=".7"/><path stroke-width=".44" opacity=".7" stroke="#4C5C78" fill="none" stroke-linecap="butt" d="M711 325v-22"/><path cx="711" cy="303" r="1.64" fill="#4C5C78" opacity=".7" d="M709.36 304.64l1.64-3.28 1.64 3.28z"/></g><g class="key-Bolivia_0"><circle cx="243" cy="461" r="1.14" fill="#932834" opacity=".8" stroke="#666" stroke-width=".5"/></g><g class="key-Hong-Kong_0"><circle cx="641" cy="194" r="1.13" fill="#2D8587" opacity=".8" stroke="#666" stroke-width=".5"/></g><g class="key-Denmark_0"><circle cx="711" cy="311" r="1.1" fill="#4C5C78" opacity=".7"/><path stroke-width=".43" opacity=".7" stroke="#4C5C78" fill="none" stroke-linecap="butt" d="M711 311l5-5"/><path cx="716" cy="306" r="1.63" fill="#4C5C78" opacity=".7" d="M713.7 306l3.45-1.15-1.15 3.46z"/></g><g class="key-Singapore_0"><circle cx="704" cy="234" r="1.1" fill="#2D8587" opacity=".7"/><path stroke-width=".43" opacity=".7" stroke="#2D8587" fill="none" stroke-linecap="butt" d="M704 234l2-154"/><path cx="706" cy="80" r="1.63" fill="#2D8587" opacity=".7" d="M704.35 81.6l1.67-3.23 1.59 3.28z"/></g><g class="key-Costa-Rica_0"><circle cx="237" cy="372" r="1.1" fill="#E04E4B" opacity=".7"/><path stroke-width=".42" opacity=".7" stroke="#E04E4B" fill="none" stroke-linecap="butt" d="M237 372l144-28"/><path cx="381" cy="344" r="1.62" fill="#E04E4B" opacity=".7" d="M379.1 342.72l3.49.97-2.87 2.2z"/></g><g class="key-Botswana_0"><circle cx="359" cy="444" r="1.11" fill="#923E8B" opacity=".8" stroke="#666" stroke-width=".5"/></g><g class="key-Mauritius_0"><circle cx="406" cy="415" r="1.1" fill="#923E8B" opacity=".7"/><path stroke-width=".41" opacity=".7" stroke="#923E8B" fill="none" stroke-linecap="butt" d="M406 415l177-46"/><path cx="583" cy="369" r="1.61" fill="#923E8B" opacity=".7" d="M581.04 367.85l3.52.75-2.71 2.36z"/></g><g class="backgroundLabels" fill="#333" font-weight="400"><text x="477" y="472.86" font-size="14.3" fill="#fff" stroke="#fff" stroke-linecap="round" stroke-linejoin="round" stroke-width=".25em">China</text><text x="477" y="472.86" font-size="14.3" fill="#2D8587">China</text><text x="365" y="459.69" font-size="13.75" fill="#fff" stroke="#fff" stroke-linecap="round" stroke-linejoin="round" stroke-width=".25em">India</text><text x="365" y="459.69" font-size="13.75" fill="#2D8587">India</text><text x="117.53" y="460.39" font-size="11.59" fill="#fff" stroke="#fff" stroke-linecap="round" stroke-linejoin="round" stroke-width=".25em">Indonesia</text><text x="117.53" y="460.39" font-size="11.59" fill="#2D8587">Indonesia</text><text x="423.39" y="304.61" font-size="11.47" fill="#fff" stroke="#fff" stroke-linecap="round" stroke-linejoin="round" stroke-width=".25em">Brazil</text><text x="423.39" y="304.61" font-size="11.47" fill="#932834">Brazil</text><text x="245.9" y="464.01" font-size="11.39" fill="#fff" stroke="#fff" stroke-linecap="round" stroke-linejoin="round" stroke-width=".25em">Nigeria</text><text x="245.9" y="464.01" font-size="11.39" fill="#923E8B">Nigeria</text><text x="662.02" y="278.31" font-size="11.31" fill="#fff" stroke="#fff" stroke-linecap="round" stroke-linejoin="round" stroke-width=".25em">Japan</text><text x="662.02" y="278.31" font-size="11.31" fill="#2D8587">Japan</text><text x="229.15" y="387.11" font-size="11.27" fill="#fff" stroke="#fff" stroke-linecap="round" stroke-linejoin="round" stroke-width=".25em">Mexico</text><text x="229.15" y="387.11" font-size="11.27" fill="#E04E4B">Mexico</text><text x="221.47" y="442.22" font-size="11.23" fill="#fff" stroke="#fff" stroke-linecap="round" stroke-linejoin="round" stroke-width=".25em">Philippines</text><text x="221.47" y="442.22" font-size="11.23" fill="#2D8587">Philippines</text><text x="135" y="490.48" font-size="11.18" fill="#fff" stroke="#fff" stroke-linecap="round" stroke-linejoin="round" stroke-width=".25em">Ethiopia</text><text x="135" y="490.48" font-size="11.18" fill="#923E8B">Ethiopia</text><text x="536.99" y="444.67" font-size="11.16" fill="#fff" stroke="#fff" stroke-linecap="round" stroke-linejoin="round" stroke-width=".25em">Thailand</text><text x="536.99" y="444.67" font-size="11.16" fill="#2D8587">Thailand</text><text x="496.41" y="297.12" font-size="11.14" fill="#fff" stroke="#fff" stroke-linecap="round" stroke-linejoin="round" stroke-width=".25em">Italy</text><text x="496.41" y="297.12" font-size="11.14" fill="#4C5C78">Italy</text><text x="408.78" y="392.53" font-size="11.12" fill="#fff" stroke="#fff" stroke-linecap="round" stroke-linejoin="round" stroke-width=".25em">South Africa</text><text x="408.78" y="392.53" font-size="11.12" fill="#923E8B">South Africa</text><text x="640.56" y="352.92" font-size="11.11" fill="#fff" stroke="#fff" stroke-linecap="round" stroke-linejoin="round" stroke-width=".25em">Spain</text><text x="640.56" y="352.92" font-size="11.11" fill="#4C5C78">Spain</text><text x="332" y="484" font-size="11.1" fill="#fff" stroke="#fff" stroke-linecap="round" stroke-linejoin="round" stroke-width=".25em">Kenya</text><text x="332" y="484" font-size="11.1" fill="#923E8B">Kenya</text><text x="318" y="404.44" font-size="11.1" fill="#fff" stroke="#fff" stroke-linecap="round" stroke-linejoin="round" stroke-width=".25em">Colombia</text><text x="318" y="404.44" font-size="11.1" fill="#932834">Colombia</text><text x="269.07" y="363.09" font-size="11.1" fill="#fff" stroke="#fff" stroke-linecap="round" stroke-linejoin="round" stroke-width=".25em">Argentina</text><text x="269.07" y="363.09" font-size="11.1" fill="#932834">Argentina</text><text x="151.45" y="391.13" font-size="11.07" fill="#fff" stroke="#fff" stroke-linecap="round" stroke-linejoin="round" stroke-width=".25em">Peru</text><text x="151.45" y="391.13" font-size="11.07" fill="#932834">Peru</text><text x="491.94" y="367.92" font-size="11.07" fill="#fff" stroke="#fff" stroke-linecap="round" stroke-linejoin="round" stroke-width=".25em">Malaysia</text><text x="491.94" y="367.92" font-size="11.07" fill="#2D8587">Malaysia</text><text x="295.83" y="343.92" font-size="11.04" fill="#fff" stroke="#fff" stroke-linecap="round" stroke-linejoin="round" stroke-width=".25em">Chile</text><text x="295.83" y="343.92" font-size="11.04" fill="#932834">Chile</text><text x="647.32" y="175.4" font-size="11.04" fill="#fff" stroke="#fff" stroke-linecap="round" stroke-linejoin="round" stroke-width=".25em">Netherlands</text><text x="647.32" y="175.4" font-size="11.04" fill="#4C5C78">Netherlands</text><text x="182" y="487.59" font-size="11.03" fill="#fff" stroke="#fff" stroke-linecap="round" stroke-linejoin="round" stroke-width=".25em">Malawi</text><text x="182" y="487.59" font-size="11.03" fill="#923E8B">Malawi</text><text x="223" y="490.67" font-size="11.02" fill="#fff" stroke="#fff" stroke-linecap="round" stroke-linejoin="round" stroke-width=".25em">Senegal</text><text x="223" y="490.67" font-size="11.02" fill="#923E8B">Senegal</text><text x="671" y="298" font-size="11.02" fill="#fff" stroke="#fff" stroke-linecap="round" stroke-linejoin="round" stroke-width=".25em">Sweden</text><text x="671" y="298" font-size="11.02" fill="#4C5C78">Sweden</text><text x="655.64" y="91.01" font-size="11.01" fill="#fff" stroke="#fff" stroke-linecap="round" stroke-linejoin="round" stroke-width=".25em">Singapore</text><text x="655.64" y="91.01" font-size="11.01" fill="#2D8587">Singapore</text><text x="385.91" y="343.05" font-size="11.01" fill="#fff" stroke="#fff" stroke-linecap="round" stroke-linejoin="round" stroke-width=".25em">Costa Rica</text><text x="385.91" y="343.05" font-size="11.01" fill="#E04E4B">Costa Rica</text><text x="587.84" y="367.74" font-size="11" fill="#fff" stroke="#fff" stroke-linecap="round" stroke-linejoin="round" stroke-width=".25em">Mauritius</text><text x="587.84" y="367.74" font-size="11" fill="#923E8B">Mauritius</text></g></g><g class="ScatterColorLegend clickable" cursor="pointer"><g class="legendMark"><path fill="#923E8B" d="M738.09 81.8h9v9h-9z"/><text font-size="12.6" x="752.1" y="90.1"><tspan x="752.09" y="90.08">Africa</tspan></text></g><g class="legendMark"><path fill="#2D8587" d="M738.09 99.4h9v9h-9z"/><text font-size="12.6" x="752.1" y="107.7"><tspan x="752.09" y="107.68">Asia</tspan></text></g><g class="legendMark"><path fill="#4C5C78" d="M738.09 117h9v9h-9z"/><text font-size="12.6" x="752.1" y="125.3"><tspan x="752.09" y="125.28">Europe</tspan></text></g><g class="legendMark"><path fill="#E04E4B" d="M738.09 134.6h9v9h-9z"/><text font-size="12.6" x="752.1" y="142.9"><tspan x="752.09" y="142.88">North America</tspan></text></g><g class="legendMark"><path fill="#932834" d="M738.09 152.2h9v9h-9z"/><text font-size="12.6" x="752.1" y="160.5"><tspan x="752.09" y="160.48">South America</tspan></text></g></g><path stroke="#ccc" d="M738.09 170H830"/><g class="clickable"><g class="ConnectedScatterLegend"><text font-size="12.6" x="738.1" y="189.1" fill="#333"><tspan x="738.09" y="189.08">2005</tspan></text><text font-size="12.6" x="806.8" y="189.1" fill="#333"><tspan x="806.78" y="189.08">2011</tspan></text><path stroke="#666" stroke-width="1" d="M771.32 184.8h30.46"/><circle cx="771.32" cy="184.8" r="2" fill="#666" stroke="#ccc" stroke-width=".2"/><circle cx="781.47" cy="184.8" r="2" fill="#666" stroke="#ccc" stroke-width=".2"/><circle cx="791.62" cy="184.8" r="2" fill="#666" stroke="#ccc" stroke-width=".2"/><path cx="801.78" cy="184.8" r="3" fill="#666" stroke="#ccc" stroke-width=".2" d="M798.78 181.8l6 3-6 3z"/></g></g></g><g class="SourcesFooter" fill="#777"><g class="clickable" fill="#777"><text font-size="12.6" x="15" y="567.9"><tspan x="15" y="567.88">Source: Groningen Growth and Development Centre (2017), Access to financial account or services (%) - World Bank (2014), Population</tspan><tspan x="15" y="581.74">(Gapminder, HYDE(2016) &amp; UN (2019)), Our World In Data</tspan></text></g><text font-size="12.6" x="796.4" y="567.9"><tspan x="796.44" y="567.88"><a class="cclogo" href="http://creativecommons.org/licenses/by/4.0/deed.en_US" target="_blank" fill="#777">CC BY</a></tspan></text></g></svg>