<svg xmlns="http://www.w3.org/2000/svg" version="1.1" style="background-color:#fff;-webkit-font-smoothing:antialiased" width="850" height="600" viewBox="0 0 850 600" font-family="Lato,'Helvetica Neue',Helvetica,Arial,sans-serif" font-size="18" text-rendering="geometricPrecision"><g class="HeaderView"><g transform="matrix(.29 0 0 .29 774 15)"><svg className="owidLog" width="210" height="120" viewBox="0 0 210 120" fill="none" xmlns="http://www.w3.org/2000/svg"><g clip-path="url(#clip0)"><path d="M0 0h210v107.89H0V0z" fill="#002147"/><path d="M40.98 32.25c0 2.36-.38 4.53-1.12 6.51a14.26 14.26 0 01-8.1 8.4c-1.9.78-4.02 1.17-6.34 1.17a16.6 16.6 0 01-6.33-1.17 14.31 14.31 0 01-8.08-8.4 18.29 18.29 0 01-1.12-6.51c0-2.36.38-4.53 1.12-6.5.75-1.97 1.8-3.67 3.17-5.1a14.32 14.32 0 014.9-3.34c1.92-.8 4.03-1.19 6.34-1.19 2.32 0 4.43.4 6.34 1.19 1.92.8 3.56 1.9 4.93 3.34a14.87 14.87 0 013.17 5.1 18.1 18.1 0 011.12 6.5zm-4.38 0c0-1.94-.26-3.68-.8-5.22a10.91 10.91 0 00-2.24-3.89 9.68 9.68 0 00-3.52-2.46 11.95 11.95 0 00-4.62-.86c-1.68 0-3.21.28-4.6.86a9.88 9.88 0 00-3.54 2.46 10.91 10.91 0 00-2.24 3.9c-.53 1.53-.8 3.27-.8 5.2 0 1.94.27 3.68.8 5.22a11.17 11.17 0 002.24 3.9 10.01 10.01 0 003.55 2.44c1.38.56 2.9.83 4.6.83s3.24-.27 4.61-.83a9.8 9.8 0 003.52-2.44 11.17 11.17 0 002.25-3.9c.53-1.54.8-3.28.8-5.21zm26.22-6.54V48H60.5c-.56 0-.9-.27-1.05-.81l-.31-2.4a12.45 12.45 0 01-3.26 2.6c-1.2.64-2.58.96-4.13.96-1.22 0-2.3-.2-3.24-.6a6.52 6.52 0 01-2.33-1.7 7.37 7.37 0 01-1.43-2.67c-.3-1.04-.46-2.2-.46-3.45V25.7h3.91v14.22c0 1.68.38 2.99 1.15 3.91.77.93 1.96 1.39 3.54 1.39 1.16 0 2.24-.27 3.23-.82a10.42 10.42 0 002.8-2.28V25.7h3.91zm8.61 4.47a9.94 9.94 0 012.6-3.56 5.64 5.64 0 013.76-1.3c.47 0 .92.05 1.34.15.44.1.83.27 1.17.49l-.3 2.92c-.09.37-.3.55-.66.55-.2 0-.5-.04-.9-.13a6.21 6.21 0 00-3.24.18 4.23 4.23 0 00-1.47.92c-.42.4-.81.9-1.17 1.5-.33.58-.64 1.26-.92 2.02V48H67.7V25.71h2.25c.42 0 .72.08.88.25.16.16.27.44.33.83l.26 3.39zm61.16-13.7L122.75 48h-3.82l-7.99-24.05a21.95 21.95 0 01-.42-1.58 38.36 38.36 0 01-.44 1.58L102.05 48h-3.83L88.4 16.47h3.54c.38 0 .7.1.95.29.26.2.43.43.5.73l6.52 21.9.28 1.28.29 1.46.3-1.46.38-1.27 7.41-21.91c.1-.25.26-.48.51-.69.27-.22.58-.33.95-.33h1.23c.38 0 .69.1.92.29a1.77 1.77 0 01.53.73l7.4 21.9a28.4 28.4 0 01.68 2.62 29.52 29.52 0 01.52-2.61l6.54-21.91a1.31 1.31 0 01.48-.7c.27-.21.58-.32.95-.32h3.32zm9.35 8.88c1.63 0 3.1.27 4.4.82a9.43 9.43 0 015.46 5.94c.5 1.4.74 2.98.74 4.73 0 1.76-.25 3.34-.74 4.75a9.43 9.43 0 01-5.46 5.92c-1.3.52-2.77.79-4.4.79-1.64 0-3.12-.27-4.44-.8a9.42 9.42 0 01-3.35-2.3c-.92-1-1.63-2.2-2.13-3.61-.49-1.41-.73-3-.73-4.75s.24-3.33.73-4.73c.5-1.43 1.2-2.64 2.13-3.63a9.4 9.4 0 013.35-2.31c1.32-.55 2.8-.82 4.44-.82zm0 19.89c2.2 0 3.84-.73 4.93-2.2 1.08-1.48 1.63-3.54 1.63-6.18 0-2.66-.55-4.72-1.63-6.2-1.09-1.49-2.73-2.23-4.93-2.23-1.12 0-2.09.2-2.93.57a5.71 5.71 0 00-2.06 1.65 7.5 7.5 0 00-1.24 2.67c-.26 1.04-.4 2.22-.4 3.54 0 2.64.55 4.7 1.64 6.18 1.1 1.47 2.76 2.2 4.99 2.2zm17.97-15.07a9.94 9.94 0 012.6-3.56 5.64 5.64 0 013.76-1.3c.47 0 .91.05 1.34.15.44.1.83.27 1.16.49l-.28 2.92c-.09.37-.31.55-.66.55-.2 0-.5-.04-.9-.13a6.2 6.2 0 00-3.24.18 4.23 4.23 0 00-1.47.92c-.43.4-.82.9-1.17 1.5a13.1 13.1 0 00-.92 2.02V48h-3.94V25.71h2.24c.43 0 .72.08.88.25.17.16.28.44.33.83l.27 3.39zm15.04-14.59V48h-3.92V15.6h3.92zm19.55 15.43a6.22 6.22 0 00-2.38-2.05 6.7 6.7 0 00-2.86-.6c-2.07 0-3.66.75-4.77 2.23-1.12 1.48-1.68 3.6-1.68 6.33 0 1.46.13 2.7.38 3.74a7.29 7.29 0 001.1 2.56 4.35 4.35 0 001.78 1.45c.7.3 1.5.46 2.4.46 1.29 0 2.41-.3 3.36-.88a9.6 9.6 0 002.67-2.49V31.02zm3.91-15.43V48h-2.33c-.56 0-.9-.27-1.06-.81l-.35-2.71a12.13 12.13 0 01-3.25 2.77 8.28 8.28 0 01-4.23 1.06 7.31 7.31 0 01-6.14-2.9c-.73-.96-1.3-2.15-1.69-3.57a18.35 18.35 0 01.07-9.48 11.29 11.29 0 011.89-3.7 8.7 8.7 0 017.06-3.34 7.96 7.96 0 016.12 2.62V15.59h3.91zM46.61 70.71V93H42.7V70.71h3.91zm.84-7c0 .39-.08.75-.24 1.09a2.81 2.81 0 01-1.52 1.47 2.67 2.67 0 01-2.16 0 2.9 2.9 0 01-1.45-1.47 2.67 2.67 0 010-2.16c.15-.35.35-.65.6-.9.25-.27.53-.47.85-.62a2.67 2.67 0 012.16 0c.35.15.65.35.9.62.27.25.47.55.62.9.16.34.24.7.24 1.08zm7.97 10.24c.49-.54 1-1.04 1.54-1.48a9.85 9.85 0 013.66-1.84 8.96 8.96 0 015.43.35c.94.4 1.72.97 2.33 1.71a7.36 7.36 0 011.43 2.67c.32 1.04.49 2.19.49 3.45V93h-3.94V78.81c0-1.69-.4-3-1.17-3.92-.76-.93-1.93-1.4-3.5-1.4a6.6 6.6 0 00-3.25.83c-1 .56-1.92 1.31-2.77 2.27V93h-3.94V70.71h2.35c.56 0 .9.28 1.04.82l.3 2.42zm57.7 3.3c0 2.36-.37 4.5-1.11 6.44a14.3 14.3 0 01-3.17 4.98 14.1 14.1 0 01-4.93 3.2c-1.9.76-4.02 1.13-6.33 1.13H85.8V61.47h11.77c2.31 0 4.42.39 6.33 1.15a13.8 13.8 0 018.1 8.18 17.75 17.75 0 011.12 6.45zm-4.37 0c0-1.94-.26-3.67-.8-5.2a10.94 10.94 0 00-2.23-3.87 9.57 9.57 0 00-3.53-2.42 12.23 12.23 0 00-4.61-.83h-7.5v24.62h7.5c1.7 0 3.24-.28 4.61-.84a9.7 9.7 0 003.53-2.4 10.94 10.94 0 002.24-3.87c.53-1.53.8-3.26.8-5.2zm19.8 5.72c-1.8.06-3.34.2-4.62.44-1.26.22-2.3.51-3.1.88-.8.36-1.37.8-1.74 1.3-.35.5-.53 1.05-.53 1.67 0 .58.1 1.1.3 1.52a3 3 0 00.76 1.05c.34.27.73.46 1.17.6a6.13 6.13 0 001.45.17 7.28 7.28 0 003.5-.81 11.95 11.95 0 002.82-2.2v-4.62zm-12.65-9.11a12.73 12.73 0 013.98-2.66c1.43-.59 3-.88 4.73-.88 1.25 0 2.36.2 3.33.61a6.81 6.81 0 013.94 4.38c.33 1.04.5 2.19.5 3.43V93h-1.74a1.8 1.8 0 01-.88-.18c-.2-.13-.36-.38-.48-.74l-.44-2.12-1.72 1.46a9.48 9.48 0 01-3.74 1.7c-.69.15-1.46.23-2.3.23-.87 0-1.69-.12-2.45-.35a5.34 5.34 0 01-3.34-2.93 6.64 6.64 0 01-.49-2.64c0-.88.25-1.72.73-2.53a6.33 6.33 0 012.35-2.17c1.09-.63 2.5-1.15 4.25-1.54 1.75-.41 3.89-.65 6.42-.7v-1.75c0-1.73-.37-3.03-1.12-3.91-.75-.9-1.84-1.34-3.28-1.34-.97 0-1.78.12-2.44.37-.64.23-1.2.5-1.7.81l-1.23.82c-.33.23-.67.35-1 .35-.27 0-.5-.07-.69-.2a2.1 2.1 0 01-.48-.53l-.7-1.25zm27.67 19.5c-1.76 0-3.12-.5-4.07-1.48-.94-.98-1.41-2.4-1.41-4.25V74h-2.68a.9.9 0 01-.6-.2c-.16-.14-.24-.36-.24-.66v-1.56l3.65-.46.9-6.89a.9.9 0 01.29-.52.88.88 0 01.62-.22H142v7.67h6.44V74H142v13.38c0 .94.22 1.63.68 2.09.45.45 1.04.68 1.76.68a3.21 3.21 0 001.85-.53l.55-.35c.16-.12.3-.18.41-.18.2 0 .4.13.55.38l1.15 1.87a7.45 7.45 0 01-2.44 1.5 8.53 8.53 0 01-2.95.52zm19.68-10.4c-1.8.07-3.34.21-4.62.45-1.26.22-2.3.51-3.1.88-.8.36-1.37.8-1.74 1.3-.35.5-.53 1.05-.53 1.67 0 .58.1 1.1.3 1.52a2.9 2.9 0 00.76 1.05c.34.27.73.46 1.17.6a6.13 6.13 0 001.45.17 7.3 7.3 0 003.5-.81 12.04 12.04 0 002.82-2.2v-4.62zm-12.65-9.1a12.72 12.72 0 013.99-2.66c1.42-.59 3-.88 4.72-.88 1.25 0 2.36.2 3.33.61a6.81 6.81 0 013.94 4.38c.33 1.04.5 2.19.5 3.43V93h-1.74a1.8 1.8 0 01-.88-.18c-.2-.13-.36-.38-.48-.74l-.44-2.12-1.72 1.46a9.48 9.48 0 01-3.74 1.7c-.69.15-1.46.23-2.3.23-.87 0-1.69-.12-2.45-.35a5.33 5.33 0 01-3.34-2.93 6.62 6.62 0 01-.49-2.64c0-.88.25-1.72.73-2.53a6.33 6.33 0 012.35-2.17c1.09-.63 2.5-1.15 4.25-1.54a31.2 31.2 0 016.42-.7v-1.75c0-1.73-.37-3.03-1.12-3.91-.75-.9-1.84-1.34-3.28-1.34-.97 0-1.78.12-2.44.37-.64.23-1.2.5-1.7.81l-1.22.82c-.34.23-.68.35-1.02.35-.26 0-.49-.07-.68-.2a1.88 1.88 0 01-.48-.53l-.7-1.25zM40.98 32.25c0 2.36-.38 4.53-1.12 6.51a14.26 14.26 0 01-8.1 8.4c-1.9.78-4.02 1.17-6.34 1.17a16.6 16.6 0 01-6.33-1.17 14.31 14.31 0 01-8.08-8.4 18.29 18.29 0 01-1.12-6.51c0-2.36.38-4.53 1.12-6.5.75-1.97 1.8-3.67 3.17-5.1a14.32 14.32 0 014.9-3.34c1.92-.8 4.03-1.19 6.34-1.19 2.32 0 4.43.4 6.34 1.19 1.92.8 3.56 1.9 4.93 3.34a14.87 14.87 0 013.17 5.1 18.1 18.1 0 011.12 6.5zm-4.38 0c0-1.94-.26-3.68-.8-5.22a10.91 10.91 0 00-2.24-3.89 9.68 9.68 0 00-3.52-2.46 11.95 11.95 0 00-4.62-.86c-1.68 0-3.21.28-4.6.86a9.88 9.88 0 00-3.54 2.46 10.91 10.91 0 00-2.24 3.9c-.53 1.53-.8 3.27-.8 5.2 0 1.94.27 3.68.8 5.22a11.17 11.17 0 002.24 3.9 10.01 10.01 0 003.55 2.44c1.38.56 2.9.83 4.6.83s3.24-.27 4.61-.83a9.8 9.8 0 003.52-2.44 11.17 11.17 0 002.25-3.9c.53-1.54.8-3.28.8-5.21zm26.22-6.54V48H60.5c-.56 0-.9-.27-1.05-.81l-.31-2.4a12.45 12.45 0 01-3.26 2.6c-1.2.64-2.58.96-4.13.96-1.22 0-2.3-.2-3.24-.6a6.52 6.52 0 01-2.33-1.7 7.37 7.37 0 01-1.43-2.67c-.3-1.04-.46-2.2-.46-3.45V25.7h3.91v14.22c0 1.68.38 2.99 1.15 3.91.77.93 1.96 1.39 3.54 1.39 1.16 0 2.24-.27 3.23-.82a10.42 10.42 0 002.8-2.28V25.7h3.91zm8.61 4.47a9.94 9.94 0 012.6-3.56 5.64 5.64 0 013.76-1.3c.47 0 .92.05 1.34.15.44.1.83.27 1.17.49l-.3 2.92c-.09.37-.3.55-.66.55-.2 0-.5-.04-.9-.13a6.21 6.21 0 00-3.24.18 4.23 4.23 0 00-1.47.92c-.42.4-.81.9-1.17 1.5-.33.58-.64 1.26-.92 2.02V48H67.7V25.71h2.25c.42 0 .72.08.88.25.16.16.27.44.33.83l.26 3.39zm61.16-13.7L122.75 48h-3.82l-7.99-24.05a21.95 21.95 0 01-.42-1.58 38.36 38.36 0 01-.44 1.58L102.05 48h-3.83L88.4 16.47h3.54c.38 0 .7.1.95.29.26.2.43.43.5.73l6.52 21.9.28 1.28.29 1.46.3-1.46.38-1.27 7.41-21.91c.1-.25.26-.48.51-.69.27-.22.58-.33.95-.33h1.23c.38 0 .69.1.92.29a1.77 1.77 0 01.53.73l7.4 21.9a28.4 28.4 0 01.68 2.62 29.52 29.52 0 01.52-2.61l6.54-21.91a1.31 1.31 0 01.48-.7c.27-.21.58-.32.95-.32h3.32zm9.35 8.88c1.63 0 3.1.27 4.4.82a9.43 9.43 0 015.46 5.94c.5 1.4.74 2.98.74 4.73 0 1.76-.25 3.34-.74 4.75a9.43 9.43 0 01-5.46 5.92c-1.3.52-2.77.79-4.4.79-1.64 0-3.12-.27-4.44-.8a9.42 9.42 0 01-3.35-2.3c-.92-1-1.63-2.2-2.13-3.61-.49-1.41-.73-3-.73-4.75s.24-3.33.73-4.73c.5-1.43 1.2-2.64 2.13-3.63a9.4 9.4 0 013.35-2.31c1.32-.55 2.8-.82 4.44-.82zm0 19.89c2.2 0 3.84-.73 4.93-2.2 1.08-1.48 1.63-3.54 1.63-6.18 0-2.66-.55-4.72-1.63-6.2-1.09-1.49-2.73-2.23-4.93-2.23-1.12 0-2.09.2-2.93.57a5.71 5.71 0 00-2.06 1.65 7.5 7.5 0 00-1.24 2.67c-.26 1.04-.4 2.22-.4 3.54 0 2.64.55 4.7 1.64 6.18 1.1 1.47 2.76 2.2 4.99 2.2zm17.97-15.07a9.94 9.94 0 012.6-3.56 5.64 5.64 0 013.76-1.3c.47 0 .91.05 1.34.15.44.1.83.27 1.16.49l-.28 2.92c-.09.37-.31.55-.66.55-.2 0-.5-.04-.9-.13a6.2 6.2 0 00-3.24.18 4.23 4.23 0 00-1.47.92c-.43.4-.82.9-1.17 1.5a13.1 13.1 0 00-.92 2.02V48h-3.94V25.71h2.24c.43 0 .72.08.88.25.17.16.28.44.33.83l.27 3.39zm15.04-14.59V48h-3.92V15.6h3.92zm19.55 15.43a6.22 6.22 0 00-2.38-2.05 6.7 6.7 0 00-2.86-.6c-2.07 0-3.66.75-4.77 2.23-1.12 1.48-1.68 3.6-1.68 6.33 0 1.46.13 2.7.38 3.74a7.29 7.29 0 001.1 2.56 4.35 4.35 0 001.78 1.45c.7.3 1.5.46 2.4.46 1.29 0 2.41-.3 3.36-.88a9.6 9.6 0 002.67-2.49V31.02zm3.91-15.43V48h-2.33c-.56 0-.9-.27-1.06-.81l-.35-2.71a12.13 12.13 0 01-3.25 2.77 8.28 8.28 0 01-4.23 1.06 7.31 7.31 0 01-6.14-2.9c-.73-.96-1.3-2.15-1.69-3.57a18.35 18.35 0 01.07-9.48 11.29 11.29 0 011.89-3.7 8.7 8.7 0 017.06-3.34 7.96 7.96 0 016.12 2.62V15.59h3.91zM46.61 70.71V93H42.7V70.71h3.91zm.84-7c0 .39-.08.75-.24 1.09a2.81 2.81 0 01-1.52 1.47 2.67 2.67 0 01-2.16 0 2.9 2.9 0 01-1.45-1.47 2.67 2.67 0 010-2.16c.15-.35.35-.65.6-.9.25-.27.53-.47.85-.62a2.67 2.67 0 012.16 0c.35.15.65.35.9.62.27.25.47.55.62.9.16.34.24.7.24 1.08zm7.97 10.24c.49-.54 1-1.04 1.54-1.48a9.85 9.85 0 013.66-1.84 8.96 8.96 0 015.43.35c.94.4 1.72.97 2.33 1.71a7.36 7.36 0 011.43 2.67c.32 1.04.49 2.19.49 3.45V93h-3.94V78.81c0-1.69-.4-3-1.17-3.92-.76-.93-1.93-1.4-3.5-1.4a6.6 6.6 0 00-3.25.83c-1 .56-1.92 1.31-2.77 2.27V93h-3.94V70.71h2.35c.56 0 .9.28 1.04.82l.3 2.42zm57.7 3.3c0 2.36-.37 4.5-1.11 6.44a14.3 14.3 0 01-3.17 4.98 14.1 14.1 0 01-4.93 3.2c-1.9.76-4.02 1.13-6.33 1.13H85.8V61.47h11.77c2.31 0 4.42.39 6.33 1.15a13.8 13.8 0 018.1 8.18 17.75 17.75 0 011.12 6.45zm-4.37 0c0-1.94-.26-3.67-.8-5.2a10.94 10.94 0 00-2.23-3.87 9.57 9.57 0 00-3.53-2.42 12.23 12.23 0 00-4.61-.83h-7.5v24.62h7.5c1.7 0 3.24-.28 4.61-.84a9.7 9.7 0 003.53-2.4 10.94 10.94 0 002.24-3.87c.53-1.53.8-3.26.8-5.2zm19.8 5.72c-1.8.06-3.34.2-4.62.44-1.26.22-2.3.51-3.1.88-.8.36-1.37.8-1.74 1.3-.35.5-.53 1.05-.53 1.67 0 .58.1 1.1.3 1.52a3 3 0 00.76 1.05c.34.27.73.46 1.17.6a6.13 6.13 0 001.45.17 7.28 7.28 0 003.5-.81 11.95 11.95 0 002.82-2.2v-4.62zm-12.65-9.11a12.73 12.73 0 013.98-2.66c1.43-.59 3-.88 4.73-.88 1.25 0 2.36.2 3.33.61a6.81 6.81 0 013.94 4.38c.33 1.04.5 2.19.5 3.43V93h-1.74a1.8 1.8 0 01-.88-.18c-.2-.13-.36-.38-.48-.74l-.44-2.12-1.72 1.46a9.48 9.48 0 01-3.74 1.7c-.69.15-1.46.23-2.3.23-.87 0-1.69-.12-2.45-.35a5.34 5.34 0 01-3.34-2.93 6.64 6.64 0 01-.49-2.64c0-.88.25-1.72.73-2.53a6.33 6.33 0 012.35-2.17c1.09-.63 2.5-1.15 4.25-1.54 1.75-.41 3.89-.65 6.42-.7v-1.75c0-1.73-.37-3.03-1.12-3.91-.75-.9-1.84-1.34-3.28-1.34-.97 0-1.78.12-2.44.37-.64.23-1.2.5-1.7.81l-1.23.82c-.33.23-.67.35-1 .35-.27 0-.5-.07-.69-.2a2.1 2.1 0 01-.48-.53l-.7-1.25zm27.67 19.5c-1.76 0-3.12-.5-4.07-1.48-.94-.98-1.41-2.4-1.41-4.25V74h-2.68a.9.9 0 01-.6-.2c-.16-.14-.24-.36-.24-.66v-1.56l3.65-.46.9-6.89a.9.9 0 01.29-.52.88.88 0 01.62-.22H142v7.67h6.44V74H142v13.38c0 .94.22 1.63.68 2.09.45.45 1.04.68 1.76.68a3.21 3.21 0 001.85-.53l.55-.35c.16-.12.3-.18.41-.18.2 0 .4.13.55.38l1.15 1.87a7.45 7.45 0 01-2.44 1.5 8.53 8.53 0 01-2.95.52zm19.68-10.4c-1.8.07-3.34.21-4.62.45-1.26.22-2.3.51-3.1.88-.8.36-1.37.8-1.74 1.3-.35.5-.53 1.05-.53 1.67 0 .58.1 1.1.3 1.52a2.9 2.9 0 00.76 1.05c.34.27.73.46 1.17.6a6.13 6.13 0 001.45.17 7.3 7.3 0 003.5-.81 12.04 12.04 0 002.82-2.2v-4.62zm-12.65-9.1a12.72 12.72 0 013.99-2.66c1.42-.59 3-.88 4.72-.88 1.25 0 2.36.2 3.33.61a6.81 6.81 0 013.94 4.38c.33 1.04.5 2.19.5 3.43V93h-1.74a1.8 1.8 0 01-.88-.18c-.2-.13-.36-.38-.48-.74l-.44-2.12-1.72 1.46a9.48 9.48 0 01-3.74 1.7c-.69.15-1.46.23-2.3.23-.87 0-1.69-.12-2.45-.35a5.33 5.33 0 01-3.34-2.93 6.62 6.62 0 01-.49-2.64c0-.88.25-1.72.73-2.53a6.33 6.33 0 012.35-2.17c1.09-.63 2.5-1.15 4.25-1.54a31.2 31.2 0 016.42-.7v-1.75c0-1.73-.37-3.03-1.12-3.91-.75-.9-1.84-1.34-3.28-1.34-.97 0-1.78.12-2.44.37-.64.23-1.2.5-1.7.81l-1.22.82c-.34.23-.68.35-1.02.35-.26 0-.49-.07-.68-.2a1.88 1.88 0 01-.48-.53l-.7-1.25zM40.98 32.25c0 2.36-.38 4.53-1.12 6.51a14.26 14.26 0 01-8.1 8.4c-1.9.78-4.02 1.17-6.34 1.17a16.6 16.6 0 01-6.33-1.17 14.31 14.31 0 01-8.08-8.4 18.29 18.29 0 01-1.12-6.51c0-2.36.38-4.53 1.12-6.5.75-1.97 1.8-3.67 3.17-5.1a14.32 14.32 0 014.9-3.34c1.92-.8 4.03-1.19 6.34-1.19 2.32 0 4.43.4 6.34 1.19 1.92.8 3.56 1.9 4.93 3.34a14.87 14.87 0 013.17 5.1 18.1 18.1 0 011.12 6.5zm-4.38 0c0-1.94-.26-3.68-.8-5.22a10.91 10.91 0 00-2.24-3.89 9.68 9.68 0 00-3.52-2.46 11.95 11.95 0 00-4.62-.86c-1.68 0-3.21.28-4.6.86a9.88 9.88 0 00-3.54 2.46 10.91 10.91 0 00-2.24 3.9c-.53 1.53-.8 3.27-.8 5.2 0 1.94.27 3.68.8 5.22a11.17 11.17 0 002.24 3.9 10.01 10.01 0 003.55 2.44c1.38.56 2.9.83 4.6.83s3.24-.27 4.61-.83a9.8 9.8 0 003.52-2.44 11.17 11.17 0 002.25-3.9c.53-1.54.8-3.28.8-5.21zm26.22-6.54V48H60.5c-.56 0-.9-.27-1.05-.81l-.31-2.4a12.45 12.45 0 01-3.26 2.6c-1.2.64-2.58.96-4.13.96-1.22 0-2.3-.2-3.24-.6a6.52 6.52 0 01-2.33-1.7 7.37 7.37 0 01-1.43-2.67c-.3-1.04-.46-2.2-.46-3.45V25.7h3.91v14.22c0 1.68.38 2.99 1.15 3.91.77.93 1.96 1.39 3.54 1.39 1.16 0 2.24-.27 3.23-.82a10.42 10.42 0 002.8-2.28V25.7h3.91zm8.61 4.47a9.94 9.94 0 012.6-3.56 5.64 5.64 0 013.76-1.3c.47 0 .92.05 1.34.15.44.1.83.27 1.17.49l-.3 2.92c-.09.37-.3.55-.66.55-.2 0-.5-.04-.9-.13a6.21 6.21 0 00-3.24.18 4.23 4.23 0 00-1.47.92c-.42.4-.81.9-1.17 1.5-.33.58-.64 1.26-.92 2.02V48H67.7V25.71h2.25c.42 0 .72.08.88.25.16.16.27.44.33.83l.26 3.39zm61.16-13.7L122.75 48h-3.82l-7.99-24.05a21.95 21.95 0 01-.42-1.58 38.36 38.36 0 01-.44 1.58L102.05 48h-3.83L88.4 16.47h3.54c.38 0 .7.1.95.29.26.2.43.43.5.73l6.52 21.9.28 1.28.29 1.46.3-1.46.38-1.27 7.41-21.91c.1-.25.26-.48.51-.69.27-.22.58-.33.95-.33h1.23c.38 0 .69.1.92.29a1.77 1.77 0 01.53.73l7.4 21.9a28.4 28.4 0 01.68 2.62 29.52 29.52 0 01.52-2.61l6.54-21.91a1.31 1.31 0 01.48-.7c.27-.21.58-.32.95-.32h3.32zm9.35 8.88c1.63 0 3.1.27 4.4.82a9.43 9.43 0 015.46 5.94c.5 1.4.74 2.98.74 4.73 0 1.76-.25 3.34-.74 4.75a9.43 9.43 0 01-5.46 5.92c-1.3.52-2.77.79-4.4.79-1.64 0-3.12-.27-4.44-.8a9.42 9.42 0 01-3.35-2.3c-.92-1-1.63-2.2-2.13-3.61-.49-1.41-.73-3-.73-4.75s.24-3.33.73-4.73c.5-1.43 1.2-2.64 2.13-3.63a9.4 9.4 0 013.35-2.31c1.32-.55 2.8-.82 4.44-.82zm0 19.89c2.2 0 3.84-.73 4.93-2.2 1.08-1.48 1.63-3.54 1.63-6.18 0-2.66-.55-4.72-1.63-6.2-1.09-1.49-2.73-2.23-4.93-2.23-1.12 0-2.09.2-2.93.57a5.71 5.71 0 00-2.06 1.65 7.5 7.5 0 00-1.24 2.67c-.26 1.04-.4 2.22-.4 3.54 0 2.64.55 4.7 1.64 6.18 1.1 1.47 2.76 2.2 4.99 2.2zm17.97-15.07a9.94 9.94 0 012.6-3.56 5.64 5.64 0 013.76-1.3c.47 0 .91.05 1.34.15.44.1.83.27 1.16.49l-.28 2.92c-.09.37-.31.55-.66.55-.2 0-.5-.04-.9-.13a6.2 6.2 0 00-3.24.18 4.23 4.23 0 00-1.47.92c-.43.4-.82.9-1.17 1.5a13.1 13.1 0 00-.92 2.02V48h-3.94V25.71h2.24c.43 0 .72.08.88.25.17.16.28.44.33.83l.27 3.39zm15.04-14.59V48h-3.92V15.6h3.92zm19.55 15.43a6.22 6.22 0 00-2.38-2.05 6.7 6.7 0 00-2.86-.6c-2.07 0-3.66.75-4.77 2.23-1.12 1.48-1.68 3.6-1.68 6.33 0 1.46.13 2.7.38 3.74a7.29 7.29 0 001.1 2.56 4.35 4.35 0 001.78 1.45c.7.3 1.5.46 2.4.46 1.29 0 2.41-.3 3.36-.88a9.6 9.6 0 002.67-2.49V31.02zm3.91-15.43V48h-2.33c-.56 0-.9-.27-1.06-.81l-.35-2.71a12.13 12.13 0 01-3.25 2.77 8.28 8.28 0 01-4.23 1.06 7.31 7.31 0 01-6.14-2.9c-.73-.96-1.3-2.15-1.69-3.57a18.35 18.35 0 01.07-9.48 11.29 11.29 0 011.89-3.7 8.7 8.7 0 017.06-3.34 7.96 7.96 0 016.12 2.62V15.59h3.91zM46.61 70.71V93H42.7V70.71h3.91zm.84-7c0 .39-.08.75-.24 1.09a2.81 2.81 0 01-1.52 1.47 2.67 2.67 0 01-2.16 0 2.9 2.9 0 01-1.45-1.47 2.67 2.67 0 010-2.16c.15-.35.35-.65.6-.9.25-.27.53-.47.85-.62a2.67 2.67 0 012.16 0c.35.15.65.35.9.62.27.25.47.55.62.9.16.34.24.7.24 1.08zm7.97 10.24c.49-.54 1-1.04 1.54-1.48a9.85 9.85 0 013.66-1.84 8.96 8.96 0 015.43.35c.94.4 1.72.97 2.33 1.71a7.36 7.36 0 011.43 2.67c.32 1.04.49 2.19.49 3.45V93h-3.94V78.81c0-1.69-.4-3-1.17-3.92-.76-.93-1.93-1.4-3.5-1.4a6.6 6.6 0 00-3.25.83c-1 .56-1.92 1.31-2.77 2.27V93h-3.94V70.71h2.35c.56 0 .9.28 1.04.82l.3 2.42zm57.7 3.3c0 2.36-.37 4.5-1.11 6.44a14.3 14.3 0 01-3.17 4.98 14.1 14.1 0 01-4.93 3.2c-1.9.76-4.02 1.13-6.33 1.13H85.8V61.47h11.77c2.31 0 4.42.39 6.33 1.15a13.8 13.8 0 018.1 8.18 17.75 17.75 0 011.12 6.45zm-4.37 0c0-1.94-.26-3.67-.8-5.2a10.94 10.94 0 00-2.23-3.87 9.57 9.57 0 00-3.53-2.42 12.23 12.23 0 00-4.61-.83h-7.5v24.62h7.5c1.7 0 3.24-.28 4.61-.84a9.7 9.7 0 003.53-2.4 10.94 10.94 0 002.24-3.87c.53-1.53.8-3.26.8-5.2zm19.8 5.72c-1.8.06-3.34.2-4.62.44-1.26.22-2.3.51-3.1.88-.8.36-1.37.8-1.74 1.3-.35.5-.53 1.05-.53 1.67 0 .58.1 1.1.3 1.52a3 3 0 00.76 1.05c.34.27.73.46 1.17.6a6.13 6.13 0 001.45.17 7.28 7.28 0 003.5-.81 11.95 11.95 0 002.82-2.2v-4.62zm-12.65-9.11a12.73 12.73 0 013.98-2.66c1.43-.59 3-.88 4.73-.88 1.25 0 2.36.2 3.33.61a6.81 6.81 0 013.94 4.38c.33 1.04.5 2.19.5 3.43V93h-1.74a1.8 1.8 0 01-.88-.18c-.2-.13-.36-.38-.48-.74l-.44-2.12-1.72 1.46a9.48 9.48 0 01-3.74 1.7c-.69.15-1.46.23-2.3.23-.87 0-1.69-.12-2.45-.35a5.34 5.34 0 01-3.34-2.93 6.64 6.64 0 01-.49-2.64c0-.88.25-1.72.73-2.53a6.33 6.33 0 012.35-2.17c1.09-.63 2.5-1.15 4.25-1.54 1.75-.41 3.89-.65 6.42-.7v-1.75c0-1.73-.37-3.03-1.12-3.91-.75-.9-1.84-1.34-3.28-1.34-.97 0-1.78.12-2.44.37-.64.23-1.2.5-1.7.81l-1.23.82c-.33.23-.67.35-1 .35-.27 0-.5-.07-.69-.2a2.1 2.1 0 01-.48-.53l-.7-1.25zm27.67 19.5c-1.76 0-3.12-.5-4.07-1.48-.94-.98-1.41-2.4-1.41-4.25V74h-2.68a.9.9 0 01-.6-.2c-.16-.14-.24-.36-.24-.66v-1.56l3.65-.46.9-6.89a.9.9 0 01.29-.52.88.88 0 01.62-.22H142v7.67h6.44V74H142v13.38c0 .94.22 1.63.68 2.09.45.45 1.04.68 1.76.68a3.21 3.21 0 001.85-.53l.55-.35c.16-.12.3-.18.41-.18.2 0 .4.13.55.38l1.15 1.87a7.45 7.45 0 01-2.44 1.5 8.53 8.53 0 01-2.95.52zm19.68-10.4c-1.8.07-3.34.21-4.62.45-1.26.22-2.3.51-3.1.88-.8.36-1.37.8-1.74 1.3-.35.5-.53 1.05-.53 1.67 0 .58.1 1.1.3 1.52a2.9 2.9 0 00.76 1.05c.34.27.73.46 1.17.6a6.13 6.13 0 001.45.17 7.3 7.3 0 003.5-.81 12.04 12.04 0 002.82-2.2v-4.62zm-12.65-9.1a12.72 12.72 0 013.99-2.66c1.42-.59 3-.88 4.72-.88 1.25 0 2.36.2 3.33.61a6.81 6.81 0 013.94 4.38c.33 1.04.5 2.19.5 3.43V93h-1.74a1.8 1.8 0 01-.88-.18c-.2-.13-.36-.38-.48-.74l-.44-2.12-1.72 1.46a9.48 9.48 0 01-3.74 1.7c-.69.15-1.46.23-2.3.23-.87 0-1.69-.12-2.45-.35a5.33 5.33 0 01-3.34-2.93 6.62 6.62 0 01-.49-2.64c0-.88.25-1.72.73-2.53a6.33 6.33 0 012.35-2.17c1.09-.63 2.5-1.15 4.25-1.54a31.2 31.2 0 016.42-.7v-1.75c0-1.73-.37-3.03-1.12-3.91-.75-.9-1.84-1.34-3.28-1.34-.97 0-1.78.12-2.44.37-.64.23-1.2.5-1.7.81l-1.22.82c-.34.23-.68.35-1.02.35-.26 0-.49-.07-.68-.2a1.88 1.88 0 01-.48-.53l-.7-1.25z" fill="#fff"/><path fill="#D42B21" d="M0 106.79h210V120H0z"/></g><defs><clipPath id="clip0"><path fill="#fff" d="M0 0h210v120H0z"/></clipPath></defs></svg></g><a href="https://ourworldindata.org/grapher/share-of-top-1-in-pre-tax-national-income-vs-gini-index-world-bank-estimate" target="_blank" rel="noopener" font-family="&quot;Playfair Display&quot;,Georgia,&quot;Times New Roman&quot;,serif"><text font-size="21.6" x="15" y="32.3" fill="#555"><tspan x="15" y="32.28">Share of Top 1% in Pre-tax national income vs. GINI index (World Bank</tspan><tspan x="15" y="53.88">estimate), 1981 to 2016</tspan></text></a></g><g class="ScatterPlot"><g class="DualAxisView"><g class="HorizontalAxis"><text font-size="12.6" x="272.5" y="544.9"><tspan x="272.49" y="544.88">GINI index (World Bank estimate)</tspan></text><text x="218.7" y="524.8" fill="#666" text-anchor="middle" font-size="16.2">30%</text><text x="362.3" y="524.8" fill="#666" text-anchor="middle" font-size="16.2">40%</text><text x="506" y="524.8" fill="#666" text-anchor="middle" font-size="16.2">50%</text><text x="649.7" y="524.8" fill="#666" text-anchor="middle" font-size="16.2">60%</text></g><g class="VerticalAxis"><text font-size="12.6" x="-436.6" y="25.1" transform="rotate(-90)"><tspan x="-436.65" y="25.08">Share of Top 1% in Pre-tax national income</tspan></text><text x="83.77" y="503.6" dy=".32em" text-anchor="end" fill="#666" font-size="16.2">0%</text><text x="83.77" y="432.3" dy=".32em" text-anchor="end" fill="#666" font-size="16.2">0.05%</text><text x="83.77" y="361" dy=".32em" text-anchor="end" fill="#666" font-size="16.2">0.1%</text><text x="83.77" y="289.7" dy=".32em" text-anchor="end" fill="#666" font-size="16.2">0.15%</text><text x="83.77" y="218.3" dy=".32em" text-anchor="end" fill="#666" font-size="16.2">0.2%</text><text x="83.77" y="147" dy=".32em" text-anchor="end" fill="#666" font-size="16.2">0.25%</text></g><g class="AxisGridLines horizontalLines"><path stroke="#999" d="M88.77 503.6h629.32"/><path stroke="#ddd" stroke-dasharray="3,2" d="M88.77 432.3h629.32M88.77 361h629.32M88.77 289.7h629.32M88.77 218.3h629.32M88.77 147h629.32"/></g><g class="AxisGridLines verticalLines" stroke="#ddd" stroke-dasharray="3,2"><path d="M218.7 503.6V81.2M362.3 503.6V81.2M506 503.6V81.2M649.7 503.6V81.2"/></g></g><g class="PointsWithLabels clickable" clip-path="url(#a)" font-family="Arial, sans-serif"><path fill="rgba(255,255,255,0)" d="M88.77 81.2h629.32v422.4H88.77z"/><defs><clipPath id="a"><path d="M78.77 71.2h649.32v442.4H78.77z"/></clipPath></defs><g class="key-Australia"><circle cx="237" cy="440" r="1.1" fill="#e2e2e2" stroke="none" opacity=".7"/><path stroke-width=".52" opacity=".7" stroke="#ccc" fill="none" stroke-linecap="butt" d="M237 440l17-5 10-16-9-7 13-17v-7l-6-5 34 5-11-7-4-8"/><path cx="281" cy="373" r="1.72" fill="#e2e2e2" opacity=".7" d="M280.23 375.3v-3.84l3.08 2.3z"/></g><g class="key-Canada"><circle cx="253" cy="381" r="1.1" fill="#e2e2e2" stroke="none" opacity=".7"/><path stroke-width=".52" opacity=".7" stroke="#ccc" fill="none" stroke-linecap="butt" d="M253 381l-14-19-6-6 3-15 6-16 22-7 2-23 6 9 1-24-3 29"/><path cx="270" cy="309" r="1.72" fill="#e2e2e2" opacity=".7" d="M271.89 307.47l-2.07 3.24-1.35-3.6z"/></g><g class="key-Denmark"><circle cx="164" cy="426" r="1.1" fill="#e2e2e2" stroke="none" opacity=".7"/><path stroke-width=".52" opacity=".7" stroke="#ccc" fill="none" stroke-linecap="butt" d="M164 426v3-1h0v2-2l-22 4-25-1 12-10 26 4-10-1 4-3 10-2 4-3-13 1 21 9 7-14"/><path cx="178" cy="412" r="1.72" fill="#e2e2e2" opacity=".7" d="M175.7 412.77l3.07-2.3v3.84z"/></g><g class="key-Finland"><circle cx="106" cy="447" r="1.1" fill="#e2e2e2" stroke="none" opacity=".7"/><path stroke-width=".52" opacity=".7" stroke="#ccc" fill="none" stroke-linecap="butt" d="M106 447v6h0v-8 3-17l18-15 53-55 8 17 3-13-4 30 5-12 5 2-7-3-5 15"/><path cx="182" cy="397" r="1.72" fill="#e2e2e2" opacity=".7" d="M184.18 395.91l-2.72 2.72-.55-3.8z"/></g><g class="key-Ireland"><circle cx="297" cy="412" r="1.1" fill="#e2e2e2" stroke="none" opacity=".7"/><path stroke-width=".52" opacity=".7" stroke="#ccc" fill="none" stroke-linecap="butt" d="M297 412v-9 13l21-26 1-4-20-4-38-26-10 5 9-5 10-8 2-10-15-13-11 12-15 17 26-1"/><path cx="257" cy="353" r="1.72" fill="#e2e2e2" opacity=".7" d="M255.22 351.35l3.5 1.58-3.37 1.85z"/></g><g class="key-Italy"><circle cx="254" cy="411" r="1.1" fill="#e2e2e2" stroke="none" opacity=".7"/><path stroke-width=".52" opacity=".7" stroke="#ccc" fill="none" stroke-linecap="butt" d="M254 411v2-12l30-4-29-5-16-1 59-1-5-3 21-9-20-5-5-3-9 1-7-1-2-6-11-1 12 2 1 4"/><path cx="273" cy="369" r="1.72" fill="#e2e2e2" opacity=".7" d="M274.25 366.91l-.83 3.76-2.5-2.92z"/></g><g class="key-Japan"><circle cx="288" cy="385" r="1.1" fill="#e2e2e2" stroke="none" opacity=".7"/><path stroke-width=".52" opacity=".7" stroke="#ccc" fill="none" stroke-linecap="butt" d="M288 385v1h0v-68 65-3 1-5 7-42 7l-40 6"/><path cx="248" cy="354" r="1.72" fill="#e2e2e2" opacity=".7" d="M249.96 355.45l-3.66-1.2 3.15-2.2z"/></g><g class="key-Mauritius"><circle cx="299" cy="414" r="1.1" fill="#e2e2e2" stroke="none" opacity=".7"/><path stroke-width=".52" opacity=".7" stroke="#ccc" fill="none" stroke-linecap="butt" d="M299 414v18h0v1h0v10-11 6-2 3h0v-5 14-20 4"/><path cx="299" cy="432" r="1.72" fill="#e2e2e2" opacity=".7" d="M300.72 430.28l-1.72 3.44-1.72-3.44z"/></g><g class="key-Netherlands"><circle cx="195" cy="420" r="1.1" fill="#e2e2e2" stroke="none" opacity=".7"/><path stroke-width=".52" opacity=".7" stroke="#ccc" fill="none" stroke-linecap="butt" d="M195 420l39 4-10 4-34-2 25-18-10-2h14l-7-11-4 12-20 4h-1l-1 2h-2"/><path cx="184" cy="413" r="1.72" fill="#e2e2e2" opacity=".7" d="M185.72 414.72l-3.44-1.72 3.44-1.72z"/></g><g class="key-Portugal"><circle cx="344" cy="447" r="1.1" fill="#e2e2e2" stroke="none" opacity=".7"/><path stroke-width=".52" opacity=".7" stroke="#ccc" fill="none" stroke-linecap="butt" d="M344 447v-64h0v-5h0v-6 1-7 9-2l3-7-7-2"/><path cx="340" cy="364" r="1.72" fill="#e2e2e2" opacity=".7" d="M341.18 366.13l-2.83-2.6 3.78-.71z"/></g><g class="key-South-Africa"><circle cx="640" cy="341" r="1.1" fill="#e2e2e2" stroke="none" opacity=".7"/><path stroke-width=".52" opacity=".7" stroke="#ccc" fill="none" stroke-linecap="butt" d="M640 341v-9 46-16 1-11 5l78-110-20-8"/><path cx="698" cy="239" r="1.72" fill="#e2e2e2" opacity=".7" d="M698.96 241.24l-2.56-2.88 3.84-.32z"/></g><g class="key-Sweden"><circle cx="117" cy="445" r="1.1" fill="#e2e2e2" stroke="none" opacity=".7"/><path stroke-width=".52" opacity=".7" stroke="#ccc" fill="none" stroke-linecap="butt" d="M117 445l1-9 27-16 5-2 28-73-28 49 13-3 10-16-7-8 11-6 14 14-11 8 6-8h-2v5l17-1"/><path cx="201" cy="379" r="1.72" fill="#e2e2e2" opacity=".7" d="M199.18 377.38l3.54 1.52-3.34 1.92z"/></g><g class="key-Switzerland"><circle cx="305" cy="383" r="1.1" fill="#e2e2e2" stroke="none" opacity=".7"/><path stroke-width=".52" opacity=".7" stroke="#ccc" fill="none" stroke-linecap="butt" d="M305 383l-38-29-25 16 33-14 4-8-6-1-14 6-4-1"/><path cx="255" cy="352" r="1.72" fill="#e2e2e2" opacity=".7" d="M256.25 354.09l-2.92-2.5 3.76-.84z"/></g><g class="key-Taiwan"><circle cx="218" cy="419" r="1.1" fill="#e2e2e2" stroke="none" opacity=".7"/><path stroke-width=".52" opacity=".7" stroke="#ccc" fill="none" stroke-linecap="butt" d="M218 419l-4-12 4-19 19 11-7-3 4-19 16-15-1-12 15-7-10 8"/><path cx="254" cy="351" r="1.72" fill="#e2e2e2" opacity=".7" d="M256.42 351.27l-3.76.8 1.6-3.49z"/></g><g class="key-Hungary"><circle cx="88" cy="467" r="1.1" fill="#e2e2e2" stroke="none" opacity=".7"/><path stroke-width=".52" opacity=".7" stroke="#ccc" fill="none" stroke-linecap="butt" d="M88 467v1-2l101-60 76-1-99-19 18-5-6-6-4-8-1 5 59 3-13 3 2-14-18-4 32-6-53 12"/><path cx="182" cy="366" r="1.72" fill="#e2e2e2" opacity=".7" d="M184.06 367.3l-3.74-.92 2.98-2.44z"/></g><g class="key-Germany"><circle cx="207" cy="361" r="1.1" fill="#e2e2e2" stroke="none" opacity=".7"/><path stroke-width=".52" opacity=".7" stroke="#ccc" fill="none" stroke-linecap="butt" d="M207 361v-21l-4 33-9-40 29 7-6 6 1 7 7-8 23-26-11-4v-12l-3-7-9 19-3 1 3 2"/><path cx="225" cy="318" r="1.72" fill="#e2e2e2" opacity=".7" d="M224.52 315.61l1.91 3.34-3.82-.47z"/></g><g class="key-Malaysia"><circle cx="486" cy="391" r="1.1" fill="#e2e2e2" stroke="none" opacity=".7"/><path stroke-width=".52" opacity=".7" stroke="#ccc" fill="none" stroke-linecap="butt" d="M486 391v-7l-2-8-30-8-35 8"/><path cx="419" cy="376" r="1.72" fill="#e2e2e2" opacity=".7" d="M421.06 377.3l-3.74-.92 2.97-2.44z"/></g><g class="key-Poland"><circle cx="149" cy="443" r="1.1" fill="#e2e2e2" stroke="none" opacity=".7"/><path stroke-width=".52" opacity=".7" stroke="#ccc" fill="none" stroke-linecap="butt" d="M149 443v-7 8h40l-35-2 20-2 34-46-37-11 114-36-29 22-4-23 3 8h6l-2-7 17-3 13 12 7-24-13-2-12-15-2-3 3 5-2 11-6 5-6-3-5-1 2 2-7-11-4-7"/><path cx="244" cy="313" r="1.72" fill="#e2e2e2" opacity=".7" d="M243.36 315.35l-.21-3.84 3.2 2.13z"/></g><g class="key-Zimbabwe"><circle cx="407" cy="295" r="1.1" fill="#e2e2e2" stroke="none" opacity=".7"/><path stroke-width=".52" opacity=".7" stroke="#ccc" fill="none" stroke-linecap="butt" d="M407 295v-26"/><path cx="407" cy="269" r="1.72" fill="#e2e2e2" opacity=".7" d="M405.28 270.72l1.72-3.44 1.72 3.44z"/></g><g class="key-France"><circle cx="317" cy="397" r="1.1" fill="#e2e2e2" stroke="none" opacity=".7"/><path stroke-width=".52" opacity=".7" stroke="#ccc" fill="none" stroke-linecap="butt" d="M317 397l-68-30 3 5-18-26 4-5-10-4-12 3-2 3 39-7 8 2-5 20 16-10-6-8-3 14-9-5h-3"/><path cx="251" cy="349" r="1.72" fill="#e2e2e2" opacity=".7" d="M252.72 350.72l-3.44-1.72 3.44-1.72z"/></g><g class="key-Spain"><circle cx="282" cy="387" r="1.1" fill="#e2e2e2" stroke="none" opacity=".7"/><path stroke-width=".52" opacity=".7" stroke="#ccc" fill="none" stroke-linecap="butt" d="M282 387l-35-9 67 7-35-21-35-2 22-5-13-11 16-25 9 22 1 20 10 8 5 8 6-5-4 7"/><path cx="296" cy="381" r="1.72" fill="#e2e2e2" opacity=".7" d="M298.35 380.36l-3.2 2.13.21-3.84z"/></g><g class="key-Norway"><circle cx="141" cy="441" r="1.1" fill="#e2e2e2" stroke="none" opacity=".7"/><path stroke-width=".52" opacity=".7" stroke="#ccc" fill="none" stroke-linecap="butt" d="M141 441h9l11-43 19-42 4-1 57-18-14-69-61 123 10-10-1 12-12 9-6-9-6-1"/><path cx="151" cy="392" r="1.72" fill="#e2e2e2" opacity=".7" d="M152.41 393.98l-3.1-2.26 3.67-1.13z"/></g><g class="key-United-Kingdom"><circle cx="245" cy="395" r="1.1" fill="#e2e2e2" stroke="none" opacity=".7"/><path stroke-width=".52" opacity=".7" stroke="#ccc" fill="none" stroke-linecap="butt" d="M245 395l58-39 3-4 3-2 9-36 21-4-17 2-30 5v-3l12-1-24-13 4-8 16-9h-20l1 41-17-5-12 3 12-26 12 9"/><path cx="276" cy="305" r="1.72" fill="#e2e2e2" opacity=".7" d="M275.66 302.6l1.72 3.43-3.79-.69z"/></g><g class="key-United-States"><circle cx="324" cy="329" r="1.1" fill="#e2e2e2" stroke="none" opacity=".7"/><path stroke-width=".52" opacity=".7" stroke="#ccc" fill="none" stroke-linecap="butt" d="M324 329l10-24 5-16 28 5h-5l-2-9 6-10 3-9-8-4 1-11 2-8 6 14-3 3 6-2-7-16 10-15 6-11-9 4 1 5-3 14-9-18 13 3v-17l-4 17 13-9"/><path cx="384" cy="215" r="1.72" fill="#e2e2e2" opacity=".7" d="M381.6 214.56l3.81-.54-1.85 3.37z"/></g><g class="key-Jordan"><circle cx="410" cy="214" r="1.1" fill="#e2e2e2" stroke="none" opacity=".7"/><path stroke-width=".52" opacity=".7" stroke="#ccc" fill="none" stroke-linecap="butt" d="M410 214l-139 60"/><path cx="271" cy="274" r="1.72" fill="#e2e2e2" opacity=".7" d="M273.26 274.9l-3.84-.22 2.48-2.94z"/></g><g class="key-Turkey"><circle cx="381" cy="100" r="1.1" fill="#e2e2e2" stroke="none" opacity=".7"/><path stroke-width=".52" opacity=".7" stroke="#ccc" fill="none" stroke-linecap="butt" d="M381 100l1 83 11 7-13 7 19 37-42 13-17 9 8-13-1-16-3-8 18 9 2-7v11l16-28 23-8-14-27"/><path cx="389" cy="169" r="1.72" fill="#e2e2e2" opacity=".7" d="M388.26 171.32l-.05-3.85 3.1 2.27z"/></g><g class="key-Colombia"><circle cx="605" cy="199" r="1.1" fill="#e2e2e2" stroke="none" opacity=".7"/><path stroke-width=".52" opacity=".7" stroke="#ccc" fill="none" stroke-linecap="butt" d="M605 199l26 46-1 11h-17l-21-9-35-28 20 30-15-14 20-21-15 2 5-4"/><path cx="572" cy="212" r="1.72" fill="#e2e2e2" opacity=".7" d="M569.58 211.73l3.76-.8-1.6 3.49z"/></g><g class="key-Palestine"><circle cx="276" cy="306" r="1.1" fill="#e2e2e2" stroke="none" opacity=".7"/><path stroke-width=".52" opacity=".7" stroke="#ccc" fill="none" stroke-linecap="butt" d="M276 306v-13l10-12-11 10 24-24-5-4-12 15"/><path cx="282" cy="278" r="1.72" fill="#e2e2e2" opacity=".7" d="M284.42 277.73l-3.5 1.61.81-3.76z"/></g><g class="key-Cote-d__0027Ivoire"><circle cx="347" cy="252" r="1.1" fill="#e2e2e2" stroke="none" opacity=".7"/><path stroke-width=".52" opacity=".7" stroke="#ccc" fill="none" stroke-linecap="butt" d="M347 252l34-49 27 39"/><path cx="408" cy="242" r="1.72" fill="#e2e2e2" opacity=".7" d="M408.44 239.6l.54 3.81-3.37-1.85z"/></g><g class="key-United-Arab-Emirates"><circle cx="254" cy="249" r="1.1" fill="#e2e2e2" stroke="none" opacity=".7"/><path stroke-width=".52" opacity=".7" stroke="#ccc" fill="none" stroke-linecap="butt" d="M254 249v32"/><path cx="254" cy="281" r="1.72" fill="#e2e2e2" opacity=".7" d="M255.72 279.28l-1.72 3.44-1.72-3.44z"/></g><g class="key-Brazil"><circle cx="626" cy="129" r="1.1" fill="#e2e2e2" stroke="none" opacity=".7"/><path stroke-width=".52" opacity=".7" stroke="#ccc" fill="none" stroke-linecap="butt" d="M626 129l-4-17-8 3-15-1-3-9-9-4-11-1-12-15-5 27-11-31 8 27-11 1-9 2-3-12"/><path cx="533" cy="99" r="1.72" fill="#e2e2e2" opacity=".7" d="M531.75 101.09l.83-3.76 2.5 2.92z"/></g><g class="key-Syria"><circle cx="326" cy="294" r="1.22" fill="#e2e2e2" opacity=".8" stroke="#bbb" stroke-width=".5"/></g><g class="key-Lebanon"><circle cx="245" cy="196" r="1.1" fill="#e2e2e2" stroke="none" opacity=".7"/><path stroke-width=".52" opacity=".7" stroke="#ccc" fill="none" stroke-linecap="butt" d="M245 196v3-34 8-5 3-2"/><path cx="245" cy="169" r="1.72" fill="#e2e2e2" opacity=".7" d="M243.28 170.72l1.72-3.44 1.72 3.44z"/></g><g class="key-Uruguay"><circle cx="441" cy="301" r="1.1" fill="#e2e2e2" stroke="none" opacity=".7"/><path stroke-width=".52" opacity=".7" stroke="#ccc" fill="none" stroke-linecap="butt" d="M441 301l-15-6-33 3-33 5"/><path cx="360" cy="303" r="1.72" fill="#e2e2e2" opacity=".7" d="M361.96 304.44l-3.66-1.18 3.14-2.22z"/></g><g class="key-Iran"><circle cx="324" cy="271" r="1.22" fill="#e2e2e2" opacity=".8" stroke="#bbb" stroke-width=".5"/></g><g class="key-Egypt"><circle cx="244" cy="230" r="1.22" fill="#e2e2e2" opacity=".8" stroke="#bbb" stroke-width=".5"/></g><g class="key-Russia"><path stroke-width="2.18" opacity="1" stroke="#4C5C78" fill="none" stroke-linecap="butt" d="M482 441v-97l-32-67-111 9-4 1-10-42-5-37-2-55 5 1 38 3 5 22 14-31-4-7 19-22-11 26-24 56-5 16 3-20 14 23 3-17-15 9-31 3"/><circle cx="482" cy="441" r="2.09" fill="#4C5C78" opacity="1" stroke="#4C5C78" stroke-opacity=".6"/><path cx="329" cy="215" r="4.36" fill="#4C5C78" opacity="1" d="M333.76 218.92l-9.1-3.5 8.26-5.18z"/></g><text x="482" y="450.5" font-size="9" font-family="Arial, sans-serif" font-weight="400" fill="#fff" stroke="#fff" stroke-linecap="round" stroke-linejoin="round" stroke-width=".25em">1985</text><text x="482" y="450.5" font-size="9" font-family="Arial, sans-serif" font-weight="400" fill="#4C5C78">1985</text><text x="482" y="435" font-size="9" font-family="Arial, sans-serif" font-weight="400" fill="#fff" stroke="#fff" stroke-linecap="round" stroke-linejoin="round" stroke-width=".25em">1988</text><text x="482" y="435" font-size="9" font-family="Arial, sans-serif" font-weight="400" fill="#4C5C78">1988</text><text x="487" y="399" font-size="9" font-family="Arial, sans-serif" font-weight="400" fill="#fff" stroke="#fff" stroke-linecap="round" stroke-linejoin="round" stroke-width=".25em">1990</text><text x="487" y="399" font-size="9" font-family="Arial, sans-serif" font-weight="400" fill="#4C5C78">1990</text><text x="487" y="383" font-size="9" font-family="Arial, sans-serif" font-weight="400" fill="#fff" stroke="#fff" stroke-linecap="round" stroke-linejoin="round" stroke-width=".25em">1991</text><text x="487" y="383" font-size="9" font-family="Arial, sans-serif" font-weight="400" fill="#4C5C78">1991</text><text x="487" y="359" font-size="9" font-family="Arial, sans-serif" font-weight="400" fill="#fff" stroke="#fff" stroke-linecap="round" stroke-linejoin="round" stroke-width=".25em">1992</text><text x="487" y="359" font-size="9" font-family="Arial, sans-serif" font-weight="400" fill="#4C5C78">1992</text><text x="427.18" y="283.32" font-size="9" font-family="Arial, sans-serif" font-weight="400" fill="#fff" stroke="#fff" stroke-linecap="round" stroke-linejoin="round" stroke-width=".25em">1996</text><text x="427.18" y="283.32" font-size="9" font-family="Arial, sans-serif" font-weight="400" fill="#4C5C78">1996</text><text x="340.88" y="281.37" font-size="9" font-family="Arial, sans-serif" font-weight="400" fill="#fff" stroke="#fff" stroke-linecap="round" stroke-linejoin="round" stroke-width=".25em">1997</text><text x="340.88" y="281.37" font-size="9" font-family="Arial, sans-serif" font-weight="400" fill="#4C5C78">1997</text><text x="335.43" y="296.48" font-size="9" font-family="Arial, sans-serif" font-weight="400" fill="#fff" stroke="#fff" stroke-linecap="round" stroke-linejoin="round" stroke-width=".25em">1998</text><text x="335.43" y="296.48" font-size="9" font-family="Arial, sans-serif" font-weight="400" fill="#4C5C78">1998</text><text x="329.73" y="243.38" font-size="9" font-family="Arial, sans-serif" font-weight="400" fill="#fff" stroke="#fff" stroke-linecap="round" stroke-linejoin="round" stroke-width=".25em">1999</text><text x="329.73" y="243.38" font-size="9" font-family="Arial, sans-serif" font-weight="400" fill="#4C5C78">1999</text><text x="322.99" y="152.62" font-size="9" font-family="Arial, sans-serif" font-weight="400" fill="#fff" stroke="#fff" stroke-linecap="round" stroke-linejoin="round" stroke-width=".25em">2001</text><text x="322.99" y="152.62" font-size="9" font-family="Arial, sans-serif" font-weight="400" fill="#4C5C78">2001</text><text x="361.46" y="152.02" font-size="9" font-family="Arial, sans-serif" font-weight="400" fill="#fff" stroke="#fff" stroke-linecap="round" stroke-linejoin="round" stroke-width=".25em">2003</text><text x="361.46" y="152.02" font-size="9" font-family="Arial, sans-serif" font-weight="400" fill="#4C5C78">2003</text><text x="345.33" y="187.82" font-size="9" font-family="Arial, sans-serif" font-weight="400" fill="#fff" stroke="#fff" stroke-linecap="round" stroke-linejoin="round" stroke-width=".25em">2004</text><text x="345.33" y="187.82" font-size="9" font-family="Arial, sans-serif" font-weight="400" fill="#4C5C78">2004</text><text x="399.44" y="125.8" font-size="9" font-family="Arial, sans-serif" font-weight="400" fill="#fff" stroke="#fff" stroke-linecap="round" stroke-linejoin="round" stroke-width=".25em">2007</text><text x="399.44" y="125.8" font-size="9" font-family="Arial, sans-serif" font-weight="400" fill="#4C5C78">2007</text><text x="332.2" y="215.13" font-size="9" font-family="Arial, sans-serif" font-weight="400" fill="#fff" stroke="#fff" stroke-linecap="round" stroke-linejoin="round" stroke-width=".25em">2010</text><text x="332.2" y="215.13" font-size="9" font-family="Arial, sans-serif" font-weight="400" fill="#4C5C78">2010</text><text x="372.87" y="215.08" font-size="9" font-family="Arial, sans-serif" font-weight="400" fill="#fff" stroke="#fff" stroke-linecap="round" stroke-linejoin="round" stroke-width=".25em">2012</text><text x="372.87" y="215.08" font-size="9" font-family="Arial, sans-serif" font-weight="400" fill="#4C5C78">2012</text><text x="376.66" y="198.29" font-size="9" font-family="Arial, sans-serif" font-weight="400" fill="#fff" stroke="#fff" stroke-linecap="round" stroke-linejoin="round" stroke-width=".25em">2013</text><text x="376.66" y="198.29" font-size="9" font-family="Arial, sans-serif" font-weight="400" fill="#4C5C78">2013</text><text x="284.24" y="221.98" font-size="13" font-family="Arial, sans-serif" font-weight="700" fill="#fff" stroke="#fff" stroke-linecap="round" stroke-linejoin="round" stroke-width=".25em">Russia</text><text x="284.24" y="221.98" font-size="13" font-family="Arial, sans-serif" font-weight="700" fill="#4C5C78">Russia</text></g><g class="ScatterColorLegend clickable" cursor="pointer"><g class="legendMark" fill="#ccc"><path d="M738.09 83h9v9h-9z"/><text font-size="12.6" x="752.1" y="91.3"><tspan x="752.09" y="91.28">Africa</tspan></text></g><g class="legendMark" fill="#ccc"><path d="M738.09 100.6h9v9h-9z"/><text font-size="12.6" x="752.1" y="108.9"><tspan x="752.09" y="108.88">Asia</tspan></text></g><g class="legendMark"><path fill="#4C5C78" d="M738.09 118.2h9v9h-9z"/><text font-size="12.6" x="752.1" y="126.5"><tspan x="752.09" y="126.48">Europe</tspan></text></g><g class="legendMark" fill="#ccc"><path d="M738.09 135.8h9v9h-9z"/><text font-size="12.6" x="752.1" y="144.1"><tspan x="752.09" y="144.08">North America</tspan></text></g><g class="legendMark" fill="#ccc"><path d="M738.09 153.4h9v9h-9z"/><text font-size="12.6" x="752.1" y="161.7"><tspan x="752.09" y="161.68">Oceania</tspan></text></g><g class="legendMark" fill="#ccc"><path d="M738.09 171h9v9h-9z"/><text font-size="12.6" x="752.1" y="179.3"><tspan x="752.09" y="179.28">South America</tspan></text></g></g><path stroke="#ccc" d="M738.09 188.8H830"/><g class="clickable"><g class="ConnectedScatterLegend"><text font-size="12.6" x="738.1" y="207.9" fill="#333"><tspan x="738.09" y="207.88">1981</tspan></text><text font-size="12.6" x="806.8" y="207.9" fill="#333"><tspan x="806.78" y="207.88">2016</tspan></text><path stroke="#666" stroke-width="1" d="M771.32 203.6h30.46"/><circle cx="771.32" cy="203.6" r="2" fill="#666" stroke="#ccc" stroke-width=".2"/><circle cx="781.47" cy="203.6" r="2" fill="#666" stroke="#ccc" stroke-width=".2"/><circle cx="791.62" cy="203.6" r="2" fill="#666" stroke="#ccc" stroke-width=".2"/><path cx="801.78" cy="203.6" r="3" fill="#666" stroke="#ccc" stroke-width=".2" d="M798.78 200.6l6 3-6 3z"/></g></g><g class="scatterTooltip"><text font-size="13.5" x="738.1" y="231.2"><tspan x="738.09" y="231.2">Russia</tspan></text><text font-size="11.7" x="738.1" y="248.3"><tspan x="738.09" y="248.26">1985</tspan></text><text font-size="9.9" x="738.1" y="258.5"><tspan x="738.09" y="258.52">Y Axis: 0.04</tspan></text><text font-size="9.9" x="738.1" y="268.4"><tspan x="738.09" y="268.42">X Axis: 48.38</tspan></text><text font-size="11.7" x="738.1" y="284.8"><tspan x="738.09" y="284.76">2015</tspan></text><text font-size="9.9" x="738.1" y="295"><tspan x="738.09" y="295.02">Y Axis: 0.2</tspan></text><text font-size="9.9" x="738.1" y="304.9"><tspan x="738.09" y="304.92">X Axis: 37.74</tspan></text></g></g><g class="SourcesFooter" fill="#777"><g fill="#777"><text font-size="12.6" x="15" y="582.5"><tspan x="15" y="582.48">Source: World Wealth and Income Database (2018), PovCal (2021)</tspan></text></g><text font-size="12.6" x="796.4" y="582.5"><tspan x="796.44" y="582.48"><a class="cclogo" href="http://creativecommons.org/licenses/by/4.0/deed.en_US" target="_blank" fill="#777">CC BY</a></tspan></text></g></svg>