<svg xmlns="http://www.w3.org/2000/svg" version="1.1" style="background-color:#fff;-webkit-font-smoothing:antialiased" width="850" height="600" viewBox="0 0 850 600" font-family="Lato,'Helvetica Neue',Helvetica,Arial,sans-serif" font-size="18" text-rendering="geometricPrecision"><g class="HeaderView"><g transform="matrix(.29 0 0 .29 774 15)"><svg className="owidLog" width="210" height="120" viewBox="0 0 210 120" fill="none" xmlns="http://www.w3.org/2000/svg"><g clip-path="url(#clip0)"><path d="M0 0h210v107.89H0V0z" fill="#002147"/><path d="M40.98 32.25c0 2.36-.38 4.53-1.12 6.51a14.26 14.26 0 01-8.1 8.4c-1.9.78-4.02 1.17-6.34 1.17a16.6 16.6 0 01-6.33-1.17 14.31 14.31 0 01-8.08-8.4 18.29 18.29 0 01-1.12-6.51c0-2.36.38-4.53 1.12-6.5.75-1.97 1.8-3.67 3.17-5.1a14.32 14.32 0 014.9-3.34c1.92-.8 4.03-1.19 6.34-1.19 2.32 0 4.43.4 6.34 1.19 1.92.8 3.56 1.9 4.93 3.34a14.87 14.87 0 013.17 5.1 18.1 18.1 0 011.12 6.5zm-4.38 0c0-1.94-.26-3.68-.8-5.22a10.91 10.91 0 00-2.24-3.89 9.68 9.68 0 00-3.52-2.46 11.95 11.95 0 00-4.62-.86c-1.68 0-3.21.28-4.6.86a9.88 9.88 0 00-3.54 2.46 10.91 10.91 0 00-2.24 3.9c-.53 1.53-.8 3.27-.8 5.2 0 1.94.27 3.68.8 5.22a11.17 11.17 0 002.24 3.9 10.01 10.01 0 003.55 2.44c1.38.56 2.9.83 4.6.83s3.24-.27 4.61-.83a9.8 9.8 0 003.52-2.44 11.17 11.17 0 002.25-3.9c.53-1.54.8-3.28.8-5.21zm26.22-6.54V48H60.5c-.56 0-.9-.27-1.05-.81l-.31-2.4a12.45 12.45 0 01-3.26 2.6c-1.2.64-2.58.96-4.13.96-1.22 0-2.3-.2-3.24-.6a6.52 6.52 0 01-2.33-1.7 7.37 7.37 0 01-1.43-2.67c-.3-1.04-.46-2.2-.46-3.45V25.7h3.91v14.22c0 1.68.38 2.99 1.15 3.91.77.93 1.96 1.39 3.54 1.39 1.16 0 2.24-.27 3.23-.82a10.42 10.42 0 002.8-2.28V25.7h3.91zm8.61 4.47a9.94 9.94 0 012.6-3.56 5.64 5.64 0 013.76-1.3c.47 0 .92.05 1.34.15.44.1.83.27 1.17.49l-.3 2.92c-.09.37-.3.55-.66.55-.2 0-.5-.04-.9-.13a6.21 6.21 0 00-3.24.18 4.23 4.23 0 00-1.47.92c-.42.4-.81.9-1.17 1.5-.33.58-.64 1.26-.92 2.02V48H67.7V25.71h2.25c.42 0 .72.08.88.25.16.16.27.44.33.83l.26 3.39zm61.16-13.7L122.75 48h-3.82l-7.99-24.05a21.95 21.95 0 01-.42-1.58 38.36 38.36 0 01-.44 1.58L102.05 48h-3.83L88.4 16.47h3.54c.38 0 .7.1.95.29.26.2.43.43.5.73l6.52 21.9.28 1.28.29 1.46.3-1.46.38-1.27 7.41-21.91c.1-.25.26-.48.51-.69.27-.22.58-.33.95-.33h1.23c.38 0 .69.1.92.29a1.77 1.77 0 01.53.73l7.4 21.9a28.4 28.4 0 01.68 2.62 29.52 29.52 0 01.52-2.61l6.54-21.91a1.31 1.31 0 01.48-.7c.27-.21.58-.32.95-.32h3.32zm9.35 8.88c1.63 0 3.1.27 4.4.82a9.43 9.43 0 015.46 5.94c.5 1.4.74 2.98.74 4.73 0 1.76-.25 3.34-.74 4.75a9.43 9.43 0 01-5.46 5.92c-1.3.52-2.77.79-4.4.79-1.64 0-3.12-.27-4.44-.8a9.42 9.42 0 01-3.35-2.3c-.92-1-1.63-2.2-2.13-3.61-.49-1.41-.73-3-.73-4.75s.24-3.33.73-4.73c.5-1.43 1.2-2.64 2.13-3.63a9.4 9.4 0 013.35-2.31c1.32-.55 2.8-.82 4.44-.82zm0 19.89c2.2 0 3.84-.73 4.93-2.2 1.08-1.48 1.63-3.54 1.63-6.18 0-2.66-.55-4.72-1.63-6.2-1.09-1.49-2.73-2.23-4.93-2.23-1.12 0-2.09.2-2.93.57a5.71 5.71 0 00-2.06 1.65 7.5 7.5 0 00-1.24 2.67c-.26 1.04-.4 2.22-.4 3.54 0 2.64.55 4.7 1.64 6.18 1.1 1.47 2.76 2.2 4.99 2.2zm17.97-15.07a9.94 9.94 0 012.6-3.56 5.64 5.64 0 013.76-1.3c.47 0 .91.05 1.34.15.44.1.83.27 1.16.49l-.28 2.92c-.09.37-.31.55-.66.55-.2 0-.5-.04-.9-.13a6.2 6.2 0 00-3.24.18 4.23 4.23 0 00-1.47.92c-.43.4-.82.9-1.17 1.5a13.1 13.1 0 00-.92 2.02V48h-3.94V25.71h2.24c.43 0 .72.08.88.25.17.16.28.44.33.83l.27 3.39zm15.04-14.59V48h-3.92V15.6h3.92zm19.55 15.43a6.22 6.22 0 00-2.38-2.05 6.7 6.7 0 00-2.86-.6c-2.07 0-3.66.75-4.77 2.23-1.12 1.48-1.68 3.6-1.68 6.33 0 1.46.13 2.7.38 3.74a7.29 7.29 0 001.1 2.56 4.35 4.35 0 001.78 1.45c.7.3 1.5.46 2.4.46 1.29 0 2.41-.3 3.36-.88a9.6 9.6 0 002.67-2.49V31.02zm3.91-15.43V48h-2.33c-.56 0-.9-.27-1.06-.81l-.35-2.71a12.13 12.13 0 01-3.25 2.77 8.28 8.28 0 01-4.23 1.06 7.31 7.31 0 01-6.14-2.9c-.73-.96-1.3-2.15-1.69-3.57a18.35 18.35 0 01.07-9.48 11.29 11.29 0 011.89-3.7 8.7 8.7 0 017.06-3.34 7.96 7.96 0 016.12 2.62V15.59h3.91zM46.61 70.71V93H42.7V70.71h3.91zm.84-7c0 .39-.08.75-.24 1.09a2.81 2.81 0 01-1.52 1.47 2.67 2.67 0 01-2.16 0 2.9 2.9 0 01-1.45-1.47 2.67 2.67 0 010-2.16c.15-.35.35-.65.6-.9.25-.27.53-.47.85-.62a2.67 2.67 0 012.16 0c.35.15.65.35.9.62.27.25.47.55.62.9.16.34.24.7.24 1.08zm7.97 10.24c.49-.54 1-1.04 1.54-1.48a9.85 9.85 0 013.66-1.84 8.96 8.96 0 015.43.35c.94.4 1.72.97 2.33 1.71a7.36 7.36 0 011.43 2.67c.32 1.04.49 2.19.49 3.45V93h-3.94V78.81c0-1.69-.4-3-1.17-3.92-.76-.93-1.93-1.4-3.5-1.4a6.6 6.6 0 00-3.25.83c-1 .56-1.92 1.31-2.77 2.27V93h-3.94V70.71h2.35c.56 0 .9.28 1.04.82l.3 2.42zm57.7 3.3c0 2.36-.37 4.5-1.11 6.44a14.3 14.3 0 01-3.17 4.98 14.1 14.1 0 01-4.93 3.2c-1.9.76-4.02 1.13-6.33 1.13H85.8V61.47h11.77c2.31 0 4.42.39 6.33 1.15a13.8 13.8 0 018.1 8.18 17.75 17.75 0 011.12 6.45zm-4.37 0c0-1.94-.26-3.67-.8-5.2a10.94 10.94 0 00-2.23-3.87 9.57 9.57 0 00-3.53-2.42 12.23 12.23 0 00-4.61-.83h-7.5v24.62h7.5c1.7 0 3.24-.28 4.61-.84a9.7 9.7 0 003.53-2.4 10.94 10.94 0 002.24-3.87c.53-1.53.8-3.26.8-5.2zm19.8 5.72c-1.8.06-3.34.2-4.62.44-1.26.22-2.3.51-3.1.88-.8.36-1.37.8-1.74 1.3-.35.5-.53 1.05-.53 1.67 0 .58.1 1.1.3 1.52a3 3 0 00.76 1.05c.34.27.73.46 1.17.6a6.13 6.13 0 001.45.17 7.28 7.28 0 003.5-.81 11.95 11.95 0 002.82-2.2v-4.62zm-12.65-9.11a12.73 12.73 0 013.98-2.66c1.43-.59 3-.88 4.73-.88 1.25 0 2.36.2 3.33.61a6.81 6.81 0 013.94 4.38c.33 1.04.5 2.19.5 3.43V93h-1.74a1.8 1.8 0 01-.88-.18c-.2-.13-.36-.38-.48-.74l-.44-2.12-1.72 1.46a9.48 9.48 0 01-3.74 1.7c-.69.15-1.46.23-2.3.23-.87 0-1.69-.12-2.45-.35a5.34 5.34 0 01-3.34-2.93 6.64 6.64 0 01-.49-2.64c0-.88.25-1.72.73-2.53a6.33 6.33 0 012.35-2.17c1.09-.63 2.5-1.15 4.25-1.54 1.75-.41 3.89-.65 6.42-.7v-1.75c0-1.73-.37-3.03-1.12-3.91-.75-.9-1.84-1.34-3.28-1.34-.97 0-1.78.12-2.44.37-.64.23-1.2.5-1.7.81l-1.23.82c-.33.23-.67.35-1 .35-.27 0-.5-.07-.69-.2a2.1 2.1 0 01-.48-.53l-.7-1.25zm27.67 19.5c-1.76 0-3.12-.5-4.07-1.48-.94-.98-1.41-2.4-1.41-4.25V74h-2.68a.9.9 0 01-.6-.2c-.16-.14-.24-.36-.24-.66v-1.56l3.65-.46.9-6.89a.9.9 0 01.29-.52.88.88 0 01.62-.22H142v7.67h6.44V74H142v13.38c0 .94.22 1.63.68 2.09.45.45 1.04.68 1.76.68a3.21 3.21 0 001.85-.53l.55-.35c.16-.12.3-.18.41-.18.2 0 .4.13.55.38l1.15 1.87a7.45 7.45 0 01-2.44 1.5 8.53 8.53 0 01-2.95.52zm19.68-10.4c-1.8.07-3.34.21-4.62.45-1.26.22-2.3.51-3.1.88-.8.36-1.37.8-1.74 1.3-.35.5-.53 1.05-.53 1.67 0 .58.1 1.1.3 1.52a2.9 2.9 0 00.76 1.05c.34.27.73.46 1.17.6a6.13 6.13 0 001.45.17 7.3 7.3 0 003.5-.81 12.04 12.04 0 002.82-2.2v-4.62zm-12.65-9.1a12.72 12.72 0 013.99-2.66c1.42-.59 3-.88 4.72-.88 1.25 0 2.36.2 3.33.61a6.81 6.81 0 013.94 4.38c.33 1.04.5 2.19.5 3.43V93h-1.74a1.8 1.8 0 01-.88-.18c-.2-.13-.36-.38-.48-.74l-.44-2.12-1.72 1.46a9.48 9.48 0 01-3.74 1.7c-.69.15-1.46.23-2.3.23-.87 0-1.69-.12-2.45-.35a5.33 5.33 0 01-3.34-2.93 6.62 6.62 0 01-.49-2.64c0-.88.25-1.72.73-2.53a6.33 6.33 0 012.35-2.17c1.09-.63 2.5-1.15 4.25-1.54a31.2 31.2 0 016.42-.7v-1.75c0-1.73-.37-3.03-1.12-3.91-.75-.9-1.84-1.34-3.28-1.34-.97 0-1.78.12-2.44.37-.64.23-1.2.5-1.7.81l-1.22.82c-.34.23-.68.35-1.02.35-.26 0-.49-.07-.68-.2a1.88 1.88 0 01-.48-.53l-.7-1.25zM40.98 32.25c0 2.36-.38 4.53-1.12 6.51a14.26 14.26 0 01-8.1 8.4c-1.9.78-4.02 1.17-6.34 1.17a16.6 16.6 0 01-6.33-1.17 14.31 14.31 0 01-8.08-8.4 18.29 18.29 0 01-1.12-6.51c0-2.36.38-4.53 1.12-6.5.75-1.97 1.8-3.67 3.17-5.1a14.32 14.32 0 014.9-3.34c1.92-.8 4.03-1.19 6.34-1.19 2.32 0 4.43.4 6.34 1.19 1.92.8 3.56 1.9 4.93 3.34a14.87 14.87 0 013.17 5.1 18.1 18.1 0 011.12 6.5zm-4.38 0c0-1.94-.26-3.68-.8-5.22a10.91 10.91 0 00-2.24-3.89 9.68 9.68 0 00-3.52-2.46 11.95 11.95 0 00-4.62-.86c-1.68 0-3.21.28-4.6.86a9.88 9.88 0 00-3.54 2.46 10.91 10.91 0 00-2.24 3.9c-.53 1.53-.8 3.27-.8 5.2 0 1.94.27 3.68.8 5.22a11.17 11.17 0 002.24 3.9 10.01 10.01 0 003.55 2.44c1.38.56 2.9.83 4.6.83s3.24-.27 4.61-.83a9.8 9.8 0 003.52-2.44 11.17 11.17 0 002.25-3.9c.53-1.54.8-3.28.8-5.21zm26.22-6.54V48H60.5c-.56 0-.9-.27-1.05-.81l-.31-2.4a12.45 12.45 0 01-3.26 2.6c-1.2.64-2.58.96-4.13.96-1.22 0-2.3-.2-3.24-.6a6.52 6.52 0 01-2.33-1.7 7.37 7.37 0 01-1.43-2.67c-.3-1.04-.46-2.2-.46-3.45V25.7h3.91v14.22c0 1.68.38 2.99 1.15 3.91.77.93 1.96 1.39 3.54 1.39 1.16 0 2.24-.27 3.23-.82a10.42 10.42 0 002.8-2.28V25.7h3.91zm8.61 4.47a9.94 9.94 0 012.6-3.56 5.64 5.64 0 013.76-1.3c.47 0 .92.05 1.34.15.44.1.83.27 1.17.49l-.3 2.92c-.09.37-.3.55-.66.55-.2 0-.5-.04-.9-.13a6.21 6.21 0 00-3.24.18 4.23 4.23 0 00-1.47.92c-.42.4-.81.9-1.17 1.5-.33.58-.64 1.26-.92 2.02V48H67.7V25.71h2.25c.42 0 .72.08.88.25.16.16.27.44.33.83l.26 3.39zm61.16-13.7L122.75 48h-3.82l-7.99-24.05a21.95 21.95 0 01-.42-1.58 38.36 38.36 0 01-.44 1.58L102.05 48h-3.83L88.4 16.47h3.54c.38 0 .7.1.95.29.26.2.43.43.5.73l6.52 21.9.28 1.28.29 1.46.3-1.46.38-1.27 7.41-21.91c.1-.25.26-.48.51-.69.27-.22.58-.33.95-.33h1.23c.38 0 .69.1.92.29a1.77 1.77 0 01.53.73l7.4 21.9a28.4 28.4 0 01.68 2.62 29.52 29.52 0 01.52-2.61l6.54-21.91a1.31 1.31 0 01.48-.7c.27-.21.58-.32.95-.32h3.32zm9.35 8.88c1.63 0 3.1.27 4.4.82a9.43 9.43 0 015.46 5.94c.5 1.4.74 2.98.74 4.73 0 1.76-.25 3.34-.74 4.75a9.43 9.43 0 01-5.46 5.92c-1.3.52-2.77.79-4.4.79-1.64 0-3.12-.27-4.44-.8a9.42 9.42 0 01-3.35-2.3c-.92-1-1.63-2.2-2.13-3.61-.49-1.41-.73-3-.73-4.75s.24-3.33.73-4.73c.5-1.43 1.2-2.64 2.13-3.63a9.4 9.4 0 013.35-2.31c1.32-.55 2.8-.82 4.44-.82zm0 19.89c2.2 0 3.84-.73 4.93-2.2 1.08-1.48 1.63-3.54 1.63-6.18 0-2.66-.55-4.72-1.63-6.2-1.09-1.49-2.73-2.23-4.93-2.23-1.12 0-2.09.2-2.93.57a5.71 5.71 0 00-2.06 1.65 7.5 7.5 0 00-1.24 2.67c-.26 1.04-.4 2.22-.4 3.54 0 2.64.55 4.7 1.64 6.18 1.1 1.47 2.76 2.2 4.99 2.2zm17.97-15.07a9.94 9.94 0 012.6-3.56 5.64 5.64 0 013.76-1.3c.47 0 .91.05 1.34.15.44.1.83.27 1.16.49l-.28 2.92c-.09.37-.31.55-.66.55-.2 0-.5-.04-.9-.13a6.2 6.2 0 00-3.24.18 4.23 4.23 0 00-1.47.92c-.43.4-.82.9-1.17 1.5a13.1 13.1 0 00-.92 2.02V48h-3.94V25.71h2.24c.43 0 .72.08.88.25.17.16.28.44.33.83l.27 3.39zm15.04-14.59V48h-3.92V15.6h3.92zm19.55 15.43a6.22 6.22 0 00-2.38-2.05 6.7 6.7 0 00-2.86-.6c-2.07 0-3.66.75-4.77 2.23-1.12 1.48-1.68 3.6-1.68 6.33 0 1.46.13 2.7.38 3.74a7.29 7.29 0 001.1 2.56 4.35 4.35 0 001.78 1.45c.7.3 1.5.46 2.4.46 1.29 0 2.41-.3 3.36-.88a9.6 9.6 0 002.67-2.49V31.02zm3.91-15.43V48h-2.33c-.56 0-.9-.27-1.06-.81l-.35-2.71a12.13 12.13 0 01-3.25 2.77 8.28 8.28 0 01-4.23 1.06 7.31 7.31 0 01-6.14-2.9c-.73-.96-1.3-2.15-1.69-3.57a18.35 18.35 0 01.07-9.48 11.29 11.29 0 011.89-3.7 8.7 8.7 0 017.06-3.34 7.96 7.96 0 016.12 2.62V15.59h3.91zM46.61 70.71V93H42.7V70.71h3.91zm.84-7c0 .39-.08.75-.24 1.09a2.81 2.81 0 01-1.52 1.47 2.67 2.67 0 01-2.16 0 2.9 2.9 0 01-1.45-1.47 2.67 2.67 0 010-2.16c.15-.35.35-.65.6-.9.25-.27.53-.47.85-.62a2.67 2.67 0 012.16 0c.35.15.65.35.9.62.27.25.47.55.62.9.16.34.24.7.24 1.08zm7.97 10.24c.49-.54 1-1.04 1.54-1.48a9.85 9.85 0 013.66-1.84 8.96 8.96 0 015.43.35c.94.4 1.72.97 2.33 1.71a7.36 7.36 0 011.43 2.67c.32 1.04.49 2.19.49 3.45V93h-3.94V78.81c0-1.69-.4-3-1.17-3.92-.76-.93-1.93-1.4-3.5-1.4a6.6 6.6 0 00-3.25.83c-1 .56-1.92 1.31-2.77 2.27V93h-3.94V70.71h2.35c.56 0 .9.28 1.04.82l.3 2.42zm57.7 3.3c0 2.36-.37 4.5-1.11 6.44a14.3 14.3 0 01-3.17 4.98 14.1 14.1 0 01-4.93 3.2c-1.9.76-4.02 1.13-6.33 1.13H85.8V61.47h11.77c2.31 0 4.42.39 6.33 1.15a13.8 13.8 0 018.1 8.18 17.75 17.75 0 011.12 6.45zm-4.37 0c0-1.94-.26-3.67-.8-5.2a10.94 10.94 0 00-2.23-3.87 9.57 9.57 0 00-3.53-2.42 12.23 12.23 0 00-4.61-.83h-7.5v24.62h7.5c1.7 0 3.24-.28 4.61-.84a9.7 9.7 0 003.53-2.4 10.94 10.94 0 002.24-3.87c.53-1.53.8-3.26.8-5.2zm19.8 5.72c-1.8.06-3.34.2-4.62.44-1.26.22-2.3.51-3.1.88-.8.36-1.37.8-1.74 1.3-.35.5-.53 1.05-.53 1.67 0 .58.1 1.1.3 1.52a3 3 0 00.76 1.05c.34.27.73.46 1.17.6a6.13 6.13 0 001.45.17 7.28 7.28 0 003.5-.81 11.95 11.95 0 002.82-2.2v-4.62zm-12.65-9.11a12.73 12.73 0 013.98-2.66c1.43-.59 3-.88 4.73-.88 1.25 0 2.36.2 3.33.61a6.81 6.81 0 013.94 4.38c.33 1.04.5 2.19.5 3.43V93h-1.74a1.8 1.8 0 01-.88-.18c-.2-.13-.36-.38-.48-.74l-.44-2.12-1.72 1.46a9.48 9.48 0 01-3.74 1.7c-.69.15-1.46.23-2.3.23-.87 0-1.69-.12-2.45-.35a5.34 5.34 0 01-3.34-2.93 6.64 6.64 0 01-.49-2.64c0-.88.25-1.72.73-2.53a6.33 6.33 0 012.35-2.17c1.09-.63 2.5-1.15 4.25-1.54 1.75-.41 3.89-.65 6.42-.7v-1.75c0-1.73-.37-3.03-1.12-3.91-.75-.9-1.84-1.34-3.28-1.34-.97 0-1.78.12-2.44.37-.64.23-1.2.5-1.7.81l-1.23.82c-.33.23-.67.35-1 .35-.27 0-.5-.07-.69-.2a2.1 2.1 0 01-.48-.53l-.7-1.25zm27.67 19.5c-1.76 0-3.12-.5-4.07-1.48-.94-.98-1.41-2.4-1.41-4.25V74h-2.68a.9.9 0 01-.6-.2c-.16-.14-.24-.36-.24-.66v-1.56l3.65-.46.9-6.89a.9.9 0 01.29-.52.88.88 0 01.62-.22H142v7.67h6.44V74H142v13.38c0 .94.22 1.63.68 2.09.45.45 1.04.68 1.76.68a3.21 3.21 0 001.85-.53l.55-.35c.16-.12.3-.18.41-.18.2 0 .4.13.55.38l1.15 1.87a7.45 7.45 0 01-2.44 1.5 8.53 8.53 0 01-2.95.52zm19.68-10.4c-1.8.07-3.34.21-4.62.45-1.26.22-2.3.51-3.1.88-.8.36-1.37.8-1.74 1.3-.35.5-.53 1.05-.53 1.67 0 .58.1 1.1.3 1.52a2.9 2.9 0 00.76 1.05c.34.27.73.46 1.17.6a6.13 6.13 0 001.45.17 7.3 7.3 0 003.5-.81 12.04 12.04 0 002.82-2.2v-4.62zm-12.65-9.1a12.72 12.72 0 013.99-2.66c1.42-.59 3-.88 4.72-.88 1.25 0 2.36.2 3.33.61a6.81 6.81 0 013.94 4.38c.33 1.04.5 2.19.5 3.43V93h-1.74a1.8 1.8 0 01-.88-.18c-.2-.13-.36-.38-.48-.74l-.44-2.12-1.72 1.46a9.48 9.48 0 01-3.74 1.7c-.69.15-1.46.23-2.3.23-.87 0-1.69-.12-2.45-.35a5.33 5.33 0 01-3.34-2.93 6.62 6.62 0 01-.49-2.64c0-.88.25-1.72.73-2.53a6.33 6.33 0 012.35-2.17c1.09-.63 2.5-1.15 4.25-1.54a31.2 31.2 0 016.42-.7v-1.75c0-1.73-.37-3.03-1.12-3.91-.75-.9-1.84-1.34-3.28-1.34-.97 0-1.78.12-2.44.37-.64.23-1.2.5-1.7.81l-1.22.82c-.34.23-.68.35-1.02.35-.26 0-.49-.07-.68-.2a1.88 1.88 0 01-.48-.53l-.7-1.25zM40.98 32.25c0 2.36-.38 4.53-1.12 6.51a14.26 14.26 0 01-8.1 8.4c-1.9.78-4.02 1.17-6.34 1.17a16.6 16.6 0 01-6.33-1.17 14.31 14.31 0 01-8.08-8.4 18.29 18.29 0 01-1.12-6.51c0-2.36.38-4.53 1.12-6.5.75-1.97 1.8-3.67 3.17-5.1a14.32 14.32 0 014.9-3.34c1.92-.8 4.03-1.19 6.34-1.19 2.32 0 4.43.4 6.34 1.19 1.92.8 3.56 1.9 4.93 3.34a14.87 14.87 0 013.17 5.1 18.1 18.1 0 011.12 6.5zm-4.38 0c0-1.94-.26-3.68-.8-5.22a10.91 10.91 0 00-2.24-3.89 9.68 9.68 0 00-3.52-2.46 11.95 11.95 0 00-4.62-.86c-1.68 0-3.21.28-4.6.86a9.88 9.88 0 00-3.54 2.46 10.91 10.91 0 00-2.24 3.9c-.53 1.53-.8 3.27-.8 5.2 0 1.94.27 3.68.8 5.22a11.17 11.17 0 002.24 3.9 10.01 10.01 0 003.55 2.44c1.38.56 2.9.83 4.6.83s3.24-.27 4.61-.83a9.8 9.8 0 003.52-2.44 11.17 11.17 0 002.25-3.9c.53-1.54.8-3.28.8-5.21zm26.22-6.54V48H60.5c-.56 0-.9-.27-1.05-.81l-.31-2.4a12.45 12.45 0 01-3.26 2.6c-1.2.64-2.58.96-4.13.96-1.22 0-2.3-.2-3.24-.6a6.52 6.52 0 01-2.33-1.7 7.37 7.37 0 01-1.43-2.67c-.3-1.04-.46-2.2-.46-3.45V25.7h3.91v14.22c0 1.68.38 2.99 1.15 3.91.77.93 1.96 1.39 3.54 1.39 1.16 0 2.24-.27 3.23-.82a10.42 10.42 0 002.8-2.28V25.7h3.91zm8.61 4.47a9.94 9.94 0 012.6-3.56 5.64 5.64 0 013.76-1.3c.47 0 .92.05 1.34.15.44.1.83.27 1.17.49l-.3 2.92c-.09.37-.3.55-.66.55-.2 0-.5-.04-.9-.13a6.21 6.21 0 00-3.24.18 4.23 4.23 0 00-1.47.92c-.42.4-.81.9-1.17 1.5-.33.58-.64 1.26-.92 2.02V48H67.7V25.71h2.25c.42 0 .72.08.88.25.16.16.27.44.33.83l.26 3.39zm61.16-13.7L122.75 48h-3.82l-7.99-24.05a21.95 21.95 0 01-.42-1.58 38.36 38.36 0 01-.44 1.58L102.05 48h-3.83L88.4 16.47h3.54c.38 0 .7.1.95.29.26.2.43.43.5.73l6.52 21.9.28 1.28.29 1.46.3-1.46.38-1.27 7.41-21.91c.1-.25.26-.48.51-.69.27-.22.58-.33.95-.33h1.23c.38 0 .69.1.92.29a1.77 1.77 0 01.53.73l7.4 21.9a28.4 28.4 0 01.68 2.62 29.52 29.52 0 01.52-2.61l6.54-21.91a1.31 1.31 0 01.48-.7c.27-.21.58-.32.95-.32h3.32zm9.35 8.88c1.63 0 3.1.27 4.4.82a9.43 9.43 0 015.46 5.94c.5 1.4.74 2.98.74 4.73 0 1.76-.25 3.34-.74 4.75a9.43 9.43 0 01-5.46 5.92c-1.3.52-2.77.79-4.4.79-1.64 0-3.12-.27-4.44-.8a9.42 9.42 0 01-3.35-2.3c-.92-1-1.63-2.2-2.13-3.61-.49-1.41-.73-3-.73-4.75s.24-3.33.73-4.73c.5-1.43 1.2-2.64 2.13-3.63a9.4 9.4 0 013.35-2.31c1.32-.55 2.8-.82 4.44-.82zm0 19.89c2.2 0 3.84-.73 4.93-2.2 1.08-1.48 1.63-3.54 1.63-6.18 0-2.66-.55-4.72-1.63-6.2-1.09-1.49-2.73-2.23-4.93-2.23-1.12 0-2.09.2-2.93.57a5.71 5.71 0 00-2.06 1.65 7.5 7.5 0 00-1.24 2.67c-.26 1.04-.4 2.22-.4 3.54 0 2.64.55 4.7 1.64 6.18 1.1 1.47 2.76 2.2 4.99 2.2zm17.97-15.07a9.94 9.94 0 012.6-3.56 5.64 5.64 0 013.76-1.3c.47 0 .91.05 1.34.15.44.1.83.27 1.16.49l-.28 2.92c-.09.37-.31.55-.66.55-.2 0-.5-.04-.9-.13a6.2 6.2 0 00-3.24.18 4.23 4.23 0 00-1.47.92c-.43.4-.82.9-1.17 1.5a13.1 13.1 0 00-.92 2.02V48h-3.94V25.71h2.24c.43 0 .72.08.88.25.17.16.28.44.33.83l.27 3.39zm15.04-14.59V48h-3.92V15.6h3.92zm19.55 15.43a6.22 6.22 0 00-2.38-2.05 6.7 6.7 0 00-2.86-.6c-2.07 0-3.66.75-4.77 2.23-1.12 1.48-1.68 3.6-1.68 6.33 0 1.46.13 2.7.38 3.74a7.29 7.29 0 001.1 2.56 4.35 4.35 0 001.78 1.45c.7.3 1.5.46 2.4.46 1.29 0 2.41-.3 3.36-.88a9.6 9.6 0 002.67-2.49V31.02zm3.91-15.43V48h-2.33c-.56 0-.9-.27-1.06-.81l-.35-2.71a12.13 12.13 0 01-3.25 2.77 8.28 8.28 0 01-4.23 1.06 7.31 7.31 0 01-6.14-2.9c-.73-.96-1.3-2.15-1.69-3.57a18.35 18.35 0 01.07-9.48 11.29 11.29 0 011.89-3.7 8.7 8.7 0 017.06-3.34 7.96 7.96 0 016.12 2.62V15.59h3.91zM46.61 70.71V93H42.7V70.71h3.91zm.84-7c0 .39-.08.75-.24 1.09a2.81 2.81 0 01-1.52 1.47 2.67 2.67 0 01-2.16 0 2.9 2.9 0 01-1.45-1.47 2.67 2.67 0 010-2.16c.15-.35.35-.65.6-.9.25-.27.53-.47.85-.62a2.67 2.67 0 012.16 0c.35.15.65.35.9.62.27.25.47.55.62.9.16.34.24.7.24 1.08zm7.97 10.24c.49-.54 1-1.04 1.54-1.48a9.85 9.85 0 013.66-1.84 8.96 8.96 0 015.43.35c.94.4 1.72.97 2.33 1.71a7.36 7.36 0 011.43 2.67c.32 1.04.49 2.19.49 3.45V93h-3.94V78.81c0-1.69-.4-3-1.17-3.92-.76-.93-1.93-1.4-3.5-1.4a6.6 6.6 0 00-3.25.83c-1 .56-1.92 1.31-2.77 2.27V93h-3.94V70.71h2.35c.56 0 .9.28 1.04.82l.3 2.42zm57.7 3.3c0 2.36-.37 4.5-1.11 6.44a14.3 14.3 0 01-3.17 4.98 14.1 14.1 0 01-4.93 3.2c-1.9.76-4.02 1.13-6.33 1.13H85.8V61.47h11.77c2.31 0 4.42.39 6.33 1.15a13.8 13.8 0 018.1 8.18 17.75 17.75 0 011.12 6.45zm-4.37 0c0-1.94-.26-3.67-.8-5.2a10.94 10.94 0 00-2.23-3.87 9.57 9.57 0 00-3.53-2.42 12.23 12.23 0 00-4.61-.83h-7.5v24.62h7.5c1.7 0 3.24-.28 4.61-.84a9.7 9.7 0 003.53-2.4 10.94 10.94 0 002.24-3.87c.53-1.53.8-3.26.8-5.2zm19.8 5.72c-1.8.06-3.34.2-4.62.44-1.26.22-2.3.51-3.1.88-.8.36-1.37.8-1.74 1.3-.35.5-.53 1.05-.53 1.67 0 .58.1 1.1.3 1.52a3 3 0 00.76 1.05c.34.27.73.46 1.17.6a6.13 6.13 0 001.45.17 7.28 7.28 0 003.5-.81 11.95 11.95 0 002.82-2.2v-4.62zm-12.65-9.11a12.73 12.73 0 013.98-2.66c1.43-.59 3-.88 4.73-.88 1.25 0 2.36.2 3.33.61a6.81 6.81 0 013.94 4.38c.33 1.04.5 2.19.5 3.43V93h-1.74a1.8 1.8 0 01-.88-.18c-.2-.13-.36-.38-.48-.74l-.44-2.12-1.72 1.46a9.48 9.48 0 01-3.74 1.7c-.69.15-1.46.23-2.3.23-.87 0-1.69-.12-2.45-.35a5.34 5.34 0 01-3.34-2.93 6.64 6.64 0 01-.49-2.64c0-.88.25-1.72.73-2.53a6.33 6.33 0 012.35-2.17c1.09-.63 2.5-1.15 4.25-1.54 1.75-.41 3.89-.65 6.42-.7v-1.75c0-1.73-.37-3.03-1.12-3.91-.75-.9-1.84-1.34-3.28-1.34-.97 0-1.78.12-2.44.37-.64.23-1.2.5-1.7.81l-1.23.82c-.33.23-.67.35-1 .35-.27 0-.5-.07-.69-.2a2.1 2.1 0 01-.48-.53l-.7-1.25zm27.67 19.5c-1.76 0-3.12-.5-4.07-1.48-.94-.98-1.41-2.4-1.41-4.25V74h-2.68a.9.9 0 01-.6-.2c-.16-.14-.24-.36-.24-.66v-1.56l3.65-.46.9-6.89a.9.9 0 01.29-.52.88.88 0 01.62-.22H142v7.67h6.44V74H142v13.38c0 .94.22 1.63.68 2.09.45.45 1.04.68 1.76.68a3.21 3.21 0 001.85-.53l.55-.35c.16-.12.3-.18.41-.18.2 0 .4.13.55.38l1.15 1.87a7.45 7.45 0 01-2.44 1.5 8.53 8.53 0 01-2.95.52zm19.68-10.4c-1.8.07-3.34.21-4.62.45-1.26.22-2.3.51-3.1.88-.8.36-1.37.8-1.74 1.3-.35.5-.53 1.05-.53 1.67 0 .58.1 1.1.3 1.52a2.9 2.9 0 00.76 1.05c.34.27.73.46 1.17.6a6.13 6.13 0 001.45.17 7.3 7.3 0 003.5-.81 12.04 12.04 0 002.82-2.2v-4.62zm-12.65-9.1a12.72 12.72 0 013.99-2.66c1.42-.59 3-.88 4.72-.88 1.25 0 2.36.2 3.33.61a6.81 6.81 0 013.94 4.38c.33 1.04.5 2.19.5 3.43V93h-1.74a1.8 1.8 0 01-.88-.18c-.2-.13-.36-.38-.48-.74l-.44-2.12-1.72 1.46a9.48 9.48 0 01-3.74 1.7c-.69.15-1.46.23-2.3.23-.87 0-1.69-.12-2.45-.35a5.33 5.33 0 01-3.34-2.93 6.62 6.62 0 01-.49-2.64c0-.88.25-1.72.73-2.53a6.33 6.33 0 012.35-2.17c1.09-.63 2.5-1.15 4.25-1.54a31.2 31.2 0 016.42-.7v-1.75c0-1.73-.37-3.03-1.12-3.91-.75-.9-1.84-1.34-3.28-1.34-.97 0-1.78.12-2.44.37-.64.23-1.2.5-1.7.81l-1.22.82c-.34.23-.68.35-1.02.35-.26 0-.49-.07-.68-.2a1.88 1.88 0 01-.48-.53l-.7-1.25z" fill="#fff"/><path fill="#D42B21" d="M0 106.79h210V120H0z"/></g><defs><clipPath id="clip0"><path fill="#fff" d="M0 0h210v120H0z"/></clipPath></defs></svg></g><a href="https://ourworldindata.org/grapher/share-living-on-less-than-190-marimekko" target="_blank" rel="noopener" font-family="&quot;Playfair Display&quot;,Georgia,&quot;Times New Roman&quot;,serif"><text font-size="25.2" x="15" y="35.2" fill="#555"><tspan x="15" y="35.16">Share living on less than 1.90 int.-$ per day, 2017</tspan></text></a><text font-size="14.4" x="15" y="55.7" fill="#666"><tspan x="15" y="55.72">Figures relate to household income or consumption per person, measured in international-$ (in 2011 PPP prices) to</tspan><tspan x="15" y="73">account for price differences across countries and inflation over time.</tspan></text></g><g class="MarimekkoChart"><g class="DualAxisView"><g class="HorizontalAxis"><text font-size="12.6" x="390.1" y="133.8"><tspan x="390.07" y="133.78">Population</tspan></text><path stroke="#999" d="M75.2 162.5v5M174.5 162.5v5M273.8 162.5v5M373.2 162.5v5M472.5 162.5v5M571.9 162.5v5M671.2 162.5v5M770.5 162.5v5"/><text x="75.16" y="156.3" fill="#666" text-anchor="start" font-size="16.2">0</text><text x="174.5" y="156.3" fill="#666" text-anchor="middle" font-size="16.2">1 billion</text><text x="273.8" y="156.3" fill="#666" text-anchor="middle" font-size="16.2">2 billion</text><text x="373.2" y="156.3" fill="#666" text-anchor="middle" font-size="16.2">3 billion</text><text x="472.5" y="156.3" fill="#666" text-anchor="middle" font-size="16.2">4 billion</text><text x="571.9" y="156.3" fill="#666" text-anchor="middle" font-size="16.2">5 billion</text><text x="671.2" y="156.3" fill="#666" text-anchor="middle" font-size="16.2">6 billion</text><text x="770.5" y="156.3" fill="#666" text-anchor="middle" font-size="16.2">7 billion</text></g><g class="VerticalAxis"><text font-size="12.6" x="-435.2" y="25.1" transform="rotate(-90)"><tspan x="-435.17" y="25.08">$1.90 per day - share of population below poverty</tspan><tspan x="-435.17" y="38.94">line</tspan></text><text x="83.86" y="468.7" dy=".32em" text-anchor="end" fill="#666" font-size="16.2">0%</text><text x="83.86" y="430.2" dy=".32em" text-anchor="end" fill="#666" font-size="16.2">10%</text><text x="83.86" y="391.7" dy=".32em" text-anchor="end" fill="#666" font-size="16.2">20%</text><text x="83.86" y="353.3" dy=".32em" text-anchor="end" fill="#666" font-size="16.2">30%</text><text x="83.86" y="314.8" dy=".32em" text-anchor="end" fill="#666" font-size="16.2">40%</text><text x="83.86" y="276.3" dy=".32em" text-anchor="end" fill="#666" font-size="16.2">50%</text><text x="83.86" y="237.8" dy=".32em" text-anchor="end" fill="#666" font-size="16.2">60%</text><text x="83.86" y="199.4" dy=".32em" text-anchor="end" fill="#666" font-size="16.2">70%</text></g><g class="AxisGridLines horizontalLines"><path stroke="#999" d="M75.16 468.7H825"/><path stroke="#ddd" stroke-dasharray="3,2" d="M75.16 430.2H825M75.16 391.7H825M75.16 353.3H825M75.16 314.8H825M75.16 276.3H825M75.16 237.8H825M75.16 199.4H825"/></g><g class="AxisGridLines verticalLines"><path stroke="#999" d="M75.2 468.68V167.5"/><path stroke="#ddd" stroke-dasharray="3,2" d="M174.5 468.68V167.5M273.8 468.68V167.5M373.2 468.68V167.5M472.5 468.68V167.5M571.9 468.68V167.5M671.2 468.68V167.5M770.5 468.68V167.5"/></g></g><g><g class="categoricalColorLegend"><g><path fill="#923E8B" stroke-width=".4" d="M15 92.2h13.5v13.5H15z"/>,<text x="33.5" y="98.95" dy=".32em" font-size="14.4">Africa</text></g><g><path fill="#5887A1" stroke-width=".4" d="M82.36 92.2h13.5v13.5h-13.5z"/>,<text x="100.86" y="98.95" dy=".32em" font-size="14.4">Antarctica</text></g><g><path fill="#2D8587" stroke-width=".4" d="M177.09 92.2h13.5v13.5h-13.5z"/>,<text x="195.59" y="98.95" dy=".32em" font-size="14.4">Asia</text></g><g><path fill="#4C5C78" stroke-width=".4" d="M235.67 92.2h13.5v13.5h-13.5z"/>,<text x="254.17" y="98.95" dy=".32em" font-size="14.4">Europe</text></g><g><path fill="#E04E4B" stroke-width=".4" d="M312.82 92.2h13.5v13.5h-13.5z"/>,<text x="331.32" y="98.95" dy=".32em" font-size="14.4">North America</text></g><g><path fill="#A8633C" stroke-width=".4" d="M435.48 92.2h13.5v13.5h-13.5z"/>,<text x="453.98" y="98.95" dy=".32em" font-size="14.4">Oceania</text></g><g><path fill="#932834" stroke-width=".4" d="M519.84 92.2h13.5v13.5h-13.5z"/>,<text x="538.34" y="98.95" dy=".32em" font-size="14.4">South America</text></g></g></g><pattern id="a" patternUnits="userSpaceOnUse" width="4" height="4" patternTransform="rotate(-45 2 2)"><path d="M-1 2h6" stroke="#ccc" stroke-width="1"/></pattern><path fill="url(#a)" opacity=".5" d="M794.3 442.7h23.3v26h-23.3z"/><g class="bar"><g><path fill="#923E8B" fill-opacity=".7" stroke="#923E8B" stroke-width=".5" stroke-opacity="1" opacity="1" style="transition:translate 200ms ease" d="M75.2 167.5h1v301.2h-1z"/></g></g><g class="bar"><g><path fill="#923E8B" fill-opacity=".7" stroke="#923E8B" stroke-width=".5" stroke-opacity="1" opacity="1" style="transition:translate 200ms ease" d="M76.2 167.8h1v300.9h-1z"/></g></g><g class="bar"><g><path fill="#923E8B" fill-opacity=".7" stroke="#923E8B" stroke-width=".5" stroke-opacity="1" opacity="1" style="transition:translate 200ms ease" d="M77.2 169.3h2.5v299.4h-2.5z"/></g></g><g class="bar"><g><path fill="#923E8B" fill-opacity=".7" stroke="#923E8B" stroke-width=".5" stroke-opacity="1" opacity="1" style="transition:translate 200ms ease" d="M79.7 189.2h8v279.5h-8z"/></g></g><g class="bar"><g><path fill="#923E8B" fill-opacity=".7" stroke="#923E8B" stroke-width=".5" stroke-opacity="1" opacity="1" style="transition:translate 200ms ease" d="M87.7 190.2h.4v278.5h-.4z"/></g></g><g class="bar"><g><path fill="#923E8B" fill-opacity=".7" stroke="#923E8B" stroke-width=".5" stroke-opacity="1" opacity="1" style="transition:translate 200ms ease" d="M88.1 204.4h1.7v264.3h-1.7z"/></g></g><g class="bar"><g><path fill="#923E8B" fill-opacity=".7" stroke="#923E8B" stroke-width=".5" stroke-opacity="1" opacity="1" style="transition:translate 200ms ease" d="M89.8 204.7h1.4v264h-1.4z"/></g></g><g class="bar"><g><path fill="#923E8B" fill-opacity=".7" stroke="#923E8B" stroke-width=".5" stroke-opacity="1" opacity="1" style="transition:translate 200ms ease" d="M91.2 221.6h.1v247.1h-.1z"/></g></g><g class="bar"><g><path fill="#923E8B" fill-opacity=".7" stroke="#923E8B" stroke-width=".5" stroke-opacity="1" opacity="1" style="transition:translate 200ms ease" d="M91.3 229.3h2.8v239.4h-2.8z"/></g></g><g class="bar"><g><path fill="#923E8B" fill-opacity=".7" stroke="#923E8B" stroke-width=".5" stroke-opacity="1" opacity="1" style="transition:translate 200ms ease" d="M94.1 244h1.6v224.7h-1.6z"/></g></g><g class="bar"><g><path fill="#923E8B" fill-opacity=".7" stroke="#923E8B" stroke-width=".5" stroke-opacity="1" opacity="1" style="transition:translate 200ms ease" d="M95.7 252h1.2v216.7h-1.2z"/></g></g><g class="bar"><g><path fill="#2D8587" fill-opacity=".7" stroke="#2D8587" stroke-width=".5" stroke-opacity="1" opacity="1" style="transition:translate 200ms ease" d="M96.9 263.1h2.7v205.6h-2.7z"/></g></g><g class="bar"><g><path fill="#923E8B" fill-opacity=".7" stroke="#923E8B" stroke-width=".5" stroke-opacity="1" opacity="1" style="transition:translate 200ms ease" d="M99.6 279.7h5.4v189h-5.4z"/></g></g><g class="bar"><g><path fill="#923E8B" fill-opacity=".7" stroke="#923E8B" stroke-width=".5" stroke-opacity="1" opacity="1" style="transition:translate 200ms ease" d="M105 283h.5v185.7h-.5z"/></g></g><g class="bar"><g><path fill="#923E8B" fill-opacity=".7" stroke="#923E8B" stroke-width=".5" stroke-opacity="1" opacity="1" style="transition:translate 200ms ease" d="M105.5 284.4h.7v184.3h-.7z"/></g></g><g class="bar"><g><path fill="#923E8B" fill-opacity=".7" stroke="#923E8B" stroke-width=".5" stroke-opacity="1" opacity="1" style="transition:translate 200ms ease" d="M106.2 285h1.1v183.7h-1.1z"/></g></g><g class="bar"><g><path fill="#923E8B" fill-opacity=".7" stroke="#923E8B" stroke-width=".5" stroke-opacity="1" opacity="1" style="transition:translate 200ms ease" d="M107.3 295.3h2.9v173.4h-2.9z"/></g></g><g class="bar"><g><path fill="#923E8B" fill-opacity=".7" stroke="#923E8B" stroke-width=".5" stroke-opacity="1" opacity="1" style="transition:translate 200ms ease" d="M110.2 297.2h1.8v171.5h-1.8z"/></g></g><g class="bar"><g><path fill="#923E8B" fill-opacity=".7" stroke="#923E8B" stroke-width=".5" stroke-opacity="1" opacity="1" style="transition:translate 200ms ease" d="M112 297.3h.4v171.4h-.4z"/></g></g><g class="bar"><g><path fill="#923E8B" fill-opacity=".7" stroke="#923E8B" stroke-width=".5" stroke-opacity="1" opacity="1" style="transition:translate 200ms ease" d="M112.4 299.4h.7v169.3h-.7z"/></g></g><g class="bar"><g><path fill="#923E8B" fill-opacity=".7" stroke="#923E8B" stroke-width=".5" stroke-opacity="1" opacity="1" style="transition:translate 200ms ease" d="M113.1 304.5h2.1v164.2h-2.1z"/></g></g><g class="bar"><g><path fill="#923E8B" fill-opacity=".7" stroke="#923E8B" stroke-width=".5" stroke-opacity="1" opacity="1" style="transition:translate 200ms ease" d="M115.2 309.5h18.9v159.2h-18.9z"/></g></g><g class="bar"><g><path fill="#923E8B" fill-opacity=".7" stroke="#923E8B" stroke-width=".5" stroke-opacity="1" opacity="1" style="transition:translate 200ms ease" d="M134.1 309.6h4.1v159.1h-4.1z"/></g></g><g class="bar"><g><path fill="#923E8B" fill-opacity=".7" stroke="#923E8B" stroke-width=".5" stroke-opacity="1" opacity="1" style="transition:translate 200ms ease" d="M138.2 311.5h1.5v157.2h-1.5z"/></g></g><g class="bar"><g><path fill="#923E8B" fill-opacity=".7" stroke="#923E8B" stroke-width=".5" stroke-opacity="1" opacity="1" style="transition:translate 200ms ease" d="M139.7 320.8h1.9v147.9h-1.9z"/></g></g><g class="bar"><g><path fill="#923E8B" fill-opacity=".7" stroke="#923E8B" stroke-width=".5" stroke-opacity="1" opacity="1" style="transition:translate 200ms ease" d="M141.6 333.6h5v135.1h-5z"/></g></g><g class="bar"><g><path fill="#923E8B" fill-opacity=".7" stroke="#923E8B" stroke-width=".5" stroke-opacity="1" opacity="1" style="transition:translate 200ms ease" d="M146.6 338.4h1.4v130.3h-1.4z"/></g></g><g class="bar"><g><path fill="#923E8B" fill-opacity=".7" stroke="#923E8B" stroke-width=".5" stroke-opacity="1" opacity="1" style="transition:translate 200ms ease" d="M148 351h1.5v117.7H148z"/></g></g><g class="bar"><g><path fill="#923E8B" fill-opacity=".7" stroke="#923E8B" stroke-width=".5" stroke-opacity="1" opacity="1" style="transition:translate 200ms ease" d="M149.5 358.6h.1v110.1h-.1z"/></g></g><g class="bar"><g><path fill="#923E8B" fill-opacity=".7" stroke="#923E8B" stroke-width=".5" stroke-opacity="1" opacity="1" style="transition:translate 200ms ease" d="M149.6 364h.2v104.7h-.2z"/></g></g><g class="bar"><g><path fill="#A8633C" fill-opacity=".7" stroke="#A8633C" stroke-width=".5" stroke-opacity="1" opacity="1" style="transition:translate 200ms ease" d="M149.8 364.8h.8v103.9h-.8z"/></g></g><g class="bar"><g><path fill="#923E8B" fill-opacity=".7" stroke="#923E8B" stroke-width=".5" stroke-opacity="1" opacity="1" style="transition:translate 200ms ease" d="M150.6 370.6h2.4v98.1h-2.4z"/></g></g><g class="bar"><g><path fill="#2D8587" fill-opacity=".7" stroke="#2D8587" stroke-width=".5" stroke-opacity="1" opacity="1" style="transition:translate 200ms ease" d="M153 371h1.7v97.7H153z"/></g></g><g class="bar"><g><path fill="#923E8B" fill-opacity=".7" stroke="#923E8B" stroke-width=".5" stroke-opacity="1" opacity="1" style="transition:translate 200ms ease" d="M154.7 373.8h10.5v94.9h-10.5z"/></g></g><g class="bar"><g><path fill="#923E8B" fill-opacity=".7" stroke="#923E8B" stroke-width=".5" stroke-opacity="1" opacity="1" style="transition:translate 200ms ease" d="M165.2 375.1h1.2v93.6h-1.2z"/></g></g><g class="bar"><g><path fill="#923E8B" fill-opacity=".7" stroke="#923E8B" stroke-width=".5" stroke-opacity="1" opacity="1" style="transition:translate 200ms ease" d="M166.4 377.7h2.4v91h-2.4z"/></g></g><g class="bar"><g><path fill="#2D8587" fill-opacity=".7" stroke="#2D8587" stroke-width=".5" stroke-opacity="1" opacity="1" style="transition:translate 200ms ease" d="M168.8 385.7h.1v83h-.1z"/></g></g><g class="bar"><g><path fill="#E04E4B" fill-opacity=".7" stroke="#E04E4B" stroke-width=".5" stroke-opacity="1" opacity="1" style="transition:translate 200ms ease" d="M168.9 389.6h1.1v79.1h-1.1z"/></g></g><g class="bar"><g><path fill="#923E8B" fill-opacity=".7" stroke="#923E8B" stroke-width=".5" stroke-opacity="1" opacity="1" style="transition:translate 200ms ease" d="M170 395.4h5.6v73.3H170z"/></g></g><g class="bar"><g><path fill="#923E8B" fill-opacity=".7" stroke="#923E8B" stroke-width=".5" stroke-opacity="1" opacity="1" style="transition:translate 200ms ease" d="M175.6 403.2h.1v65.5h-.1z"/></g></g><g class="bar"><g><path fill="#E04E4B" fill-opacity=".7" stroke="#E04E4B" stroke-width=".5" stroke-opacity="1" opacity="1" style="transition:translate 200ms ease" d="M175.7 409.3h.9v59.4h-.9z"/></g></g><g class="bar"><g><path fill="#923E8B" fill-opacity=".7" stroke="#923E8B" stroke-width=".5" stroke-opacity="1" opacity="1" style="transition:translate 200ms ease" d="M176.6 411.8h.2v56.9h-.2z"/></g></g><g class="bar"><g><path fill="#923E8B" fill-opacity=".7" stroke="#923E8B" stroke-width=".5" stroke-opacity="1" opacity="1" style="transition:translate 200ms ease" d="M176.8 414.9h.2v53.8h-.2z"/></g></g><g class="bar"><g><path fill="#2D8587" fill-opacity=".7" stroke="#2D8587" stroke-width=".5" stroke-opacity="1" opacity="1" style="transition:translate 200ms ease" d="M177 419.8h3.1v48.9H177z"/></g></g><g class="bar"><g><path fill="#923E8B" fill-opacity=".7" stroke="#923E8B" stroke-width=".5" stroke-opacity="1" opacity="1" style="transition:translate 200ms ease" d="M180.1 421.2h2.9v47.5h-2.9z"/></g></g><g class="bar"><g><path fill="#2D8587" fill-opacity=".7" stroke="#2D8587" stroke-width=".5" stroke-opacity="1" opacity="1" style="transition:translate 200ms ease" d="M183 425h15.8v43.7H183z"/></g></g><g class="bar"><g><path fill="#2D8587" fill-opacity=".7" stroke="#2D8587" stroke-width=".5" stroke-opacity="1" opacity="1" style="transition:translate 200ms ease" d="M198.8 427.4h.7v41.3h-.7z"/></g></g><g class="bar"><g><path fill="#2D8587" fill-opacity=".7" stroke="#2D8587" stroke-width=".5" stroke-opacity="1" opacity="1" style="transition:translate 200ms ease" d="M199.5 428.1h132.9v40.6H199.5z"/></g></g><g class="bar"><g><path fill="#923E8B" fill-opacity=".7" stroke="#923E8B" stroke-width=".5" stroke-opacity="1" opacity="1" style="transition:translate 200ms ease" d="M332.4 429.4h4v39.3h-4z"/></g></g><g class="bar"><g><path fill="#923E8B" fill-opacity=".7" stroke="#923E8B" stroke-width=".5" stroke-opacity="1" opacity="1" style="transition:translate 200ms ease" d="M336.4 429.8h.2v38.9h-.2z"/></g></g><g class="bar"><g><path fill="#E04E4B" fill-opacity=".7" stroke="#E04E4B" stroke-width=".5" stroke-opacity="1" opacity="1" style="transition:translate 200ms ease" d="M336.6 440.2h1.6v28.5h-1.6z"/></g></g><g class="bar"><g><path fill="#932834" fill-opacity=".7" stroke="#932834" stroke-width=".5" stroke-opacity="1" opacity="1" style="transition:translate 200ms ease" d="M338.2 443.5h1.1v25.2h-1.1z"/></g></g><g class="bar"><g><path fill="#2D8587" fill-opacity=".7" stroke="#2D8587" stroke-width=".5" stroke-opacity="1" opacity="1" style="transition:translate 200ms ease" d="M339.3 445.7h2.7v23h-2.7z"/></g></g><g class="bar"><g><path fill="#923E8B" fill-opacity=".7" stroke="#923E8B" stroke-width=".5" stroke-opacity="1" opacity="1" style="transition:translate 200ms ease" d="M342 446.5h.4v22.2h-.4z"/></g></g><g class="bar"><g><path fill="#2D8587" fill-opacity=".7" stroke="#2D8587" stroke-width=".5" stroke-opacity="1" opacity="1" style="transition:translate 200ms ease" d="M342.4 447.1h10.4v21.6h-10.4z"/></g></g><g class="bar"><g><path fill="#4C5C78" fill-opacity=".7" stroke="#4C5C78" stroke-width=".5" stroke-opacity="1" opacity="1" style="transition:translate 200ms ease" d="M352.8 447.9h.8v20.8h-.8z"/></g></g><g class="bar"><g><path fill="#2D8587" fill-opacity=".7" stroke="#2D8587" stroke-width=".5" stroke-opacity="1" opacity="1" style="transition:translate 200ms ease" d="M353.6 449.5h.4v19.2h-.4z"/></g></g><g class="bar"><g><path fill="#4C5C78" fill-opacity=".7" stroke="#4C5C78" stroke-width=".5" stroke-opacity="1" opacity="1" style="transition:translate 200ms ease" d="M354 451.2h.2v17.5h-.2z"/></g></g><g class="bar"><g><path fill="#2D8587" fill-opacity=".7" stroke="#2D8587" stroke-width=".5" stroke-opacity="1" opacity="1" style="transition:translate 200ms ease" d="M354.2 451.5h26.3v17.2h-26.3z"/></g></g><g class="bar"><g><path fill="#932834" fill-opacity=".7" stroke="#932834" stroke-width=".5" stroke-opacity="1" opacity="1" style="transition:translate 200ms ease" d="M380.5 451.7h20.6v17h-20.6z"/></g></g><g class="bar"><g><path fill="#932834" fill-opacity=".7" stroke="#932834" stroke-width=".5" stroke-opacity="1" opacity="1" style="transition:translate 200ms ease" d="M401.1 453.2h4.8v15.5h-4.8z"/></g></g><g class="bar"><g><path fill="#2D8587" fill-opacity=".7" stroke="#2D8587" stroke-width=".5" stroke-opacity="1" opacity="1" style="transition:translate 200ms ease" d="M405.9 453.2h20.6v15.5h-20.6z"/></g></g><g class="bar"><g><path fill="#932834" fill-opacity=".7" stroke="#932834" stroke-width=".5" stroke-opacity="1" opacity="1" style="transition:translate 200ms ease" d="M426.5 455.5h3.1v13.2h-3.1z"/></g></g><g class="bar"><g><path fill="#923E8B" fill-opacity=".7" stroke="#923E8B" stroke-width=".5" stroke-opacity="1" opacity="1" style="transition:translate 200ms ease" d="M429.6 455.7h.2v13h-.2z"/></g></g><g class="bar"><g><path fill="#932834" fill-opacity=".7" stroke="#932834" stroke-width=".5" stroke-opacity="1" opacity="1" style="transition:translate 200ms ease" d="M429.8 456.3h1.6v12.4h-1.6z"/></g></g><g class="bar"><g><path fill="#4C5C78" fill-opacity=".7" stroke="#4C5C78" stroke-width=".5" stroke-opacity="1" opacity="1" style="transition:translate 200ms ease" d="M431.4 456.9h1.9v11.8h-1.9z"/></g></g><g class="bar"><g><path fill="#923E8B" fill-opacity=".7" stroke="#923E8B" stroke-width=".5" stroke-opacity="1" opacity="1" style="transition:translate 200ms ease" d="M433.3 457.3h9.5v11.4h-9.5z"/></g></g><g class="bar"><g><path fill="#2D8587" fill-opacity=".7" stroke="#2D8587" stroke-width=".5" stroke-opacity="1" opacity="1" style="transition:translate 200ms ease" d="M442.8 457.9h.8v10.8h-.8z"/></g></g><g class="bar"><g><path fill="#E04E4B" fill-opacity=".7" stroke="#E04E4B" stroke-width=".5" stroke-opacity="1" opacity="1" style="transition:translate 200ms ease" d="M443.6 459h.4v9.7h-.4z"/></g></g><g class="bar"><g><path fill="#2D8587" fill-opacity=".7" stroke="#2D8587" stroke-width=".5" stroke-opacity="1" opacity="1" style="transition:translate 200ms ease" d="M444 459.7h.5v9h-.5z"/></g></g><g class="bar"><g><path fill="#E04E4B" fill-opacity=".7" stroke="#E04E4B" stroke-width=".5" stroke-opacity="1" opacity="1" style="transition:translate 200ms ease" d="M444.5 460.4h.6v8.3h-.6z"/></g></g><g class="bar"><g><path fill="#E04E4B" fill-opacity=".7" stroke="#E04E4B" stroke-width=".5" stroke-opacity="1" opacity="1" style="transition:translate 200ms ease" d="M445.1 461.3h12.4v7.4h-12.4z"/></g></g><g class="bar"><g><path fill="#E04E4B" fill-opacity=".7" stroke="#E04E4B" stroke-width=".5" stroke-opacity="1" opacity="1" style="transition:translate 200ms ease" d="M457.5 461.3h.6v7.4h-.6z"/></g></g><g class="bar"><g><path fill="#E04E4B" fill-opacity=".7" stroke="#E04E4B" stroke-width=".5" stroke-opacity="1" opacity="1" style="transition:translate 200ms ease" d="M458.1 461.6h.3v7.1h-.3z"/></g></g><g class="bar"><g><path fill="#2D8587" fill-opacity=".7" stroke="#2D8587" stroke-width=".5" stroke-opacity="1" opacity="1" style="transition:translate 200ms ease" d="M458.4 461.8h9.4v6.9h-9.4z"/></g></g><g class="bar"><g><path fill="#4C5C78" fill-opacity=".7" stroke="#4C5C78" stroke-width=".5" stroke-opacity="1" opacity="1" style="transition:translate 200ms ease" d="M467.8 463.2h6v5.5h-6z"/></g></g><g class="bar"><g><path fill="#4C5C78" fill-opacity=".7" stroke="#4C5C78" stroke-width=".5" stroke-opacity="1" opacity="1" style="transition:translate 200ms ease" d="M473.8 463.4h.7v5.3h-.7z"/></g></g><g class="bar"><g><path fill="#2D8587" fill-opacity=".7" stroke="#2D8587" stroke-width=".5" stroke-opacity="1" opacity="1" style="transition:translate 200ms ease" d="M474.5 463.4h5.3v5.3h-5.3z"/></g></g><g class="bar"><g><path fill="#4C5C78" fill-opacity=".7" stroke="#4C5C78" stroke-width=".5" stroke-opacity="1" opacity="1" style="transition:translate 200ms ease" d="M479.8 463.8h.2v4.9h-.2z"/></g></g><g class="bar"><g><path fill="#E04E4B" fill-opacity=".7" stroke="#E04E4B" stroke-width=".5" stroke-opacity="1" opacity="1" style="transition:translate 200ms ease" d="M480 463.9h32.3v4.8H480z"/></g></g><g class="bar"><g><path fill="#2D8587" fill-opacity=".7" stroke="#2D8587" stroke-width=".5" stroke-opacity="1" opacity="1" style="transition:translate 200ms ease" d="M512.3 463.9h3.7v4.8h-3.7z"/></g></g><g class="bar"><g><path fill="#2D8587" fill-opacity=".7" stroke="#2D8587" stroke-width=".5" stroke-opacity="1" opacity="1" style="transition:translate 200ms ease" d="M516 464.5h.6v4.2h-.6z"/></g></g><g class="bar"><g><path fill="#E04E4B" fill-opacity=".7" stroke="#E04E4B" stroke-width=".5" stroke-opacity="1" opacity="1" style="transition:translate 200ms ease" d="M516.6 464.6h.5v4.1h-.5z"/></g></g><g class="bar"><g><path fill="#4C5C78" fill-opacity=".7" stroke="#4C5C78" stroke-width=".5" stroke-opacity="1" opacity="1" style="transition:translate 200ms ease" d="M517.1 464.7h.2v4h-.2z"/></g></g><g class="bar"><g><path fill="#2D8587" fill-opacity=".7" stroke="#2D8587" stroke-width=".5" stroke-opacity="1" opacity="1" style="transition:translate 200ms ease" d="M517.3 465.2h.4v3.5h-.4z"/></g></g><g class="bar"><g><path fill="#932834" fill-opacity=".7" stroke="#932834" stroke-width=".5" stroke-opacity="1" opacity="1" style="transition:translate 200ms ease" d="M517.7 465.3h.6v3.4h-.6z"/></g></g><g class="bar"><g><path fill="#4C5C78" fill-opacity=".7" stroke="#4C5C78" stroke-width=".5" stroke-opacity="1" opacity="1" style="transition:translate 200ms ease" d="M518.3 465.3h1v3.4h-1z"/></g></g><g class="bar"><g><path fill="#2D8587" fill-opacity=".7" stroke="#2D8587" stroke-width=".5" stroke-opacity="1" opacity="1" style="transition:translate 200ms ease" d="M519.3 465.3h.3v3.4h-.3z"/></g></g><g class="bar"><g><path fill="#2D8587" fill-opacity=".7" stroke="#2D8587" stroke-width=".5" stroke-opacity="1" opacity="1" style="transition:translate 200ms ease" d="M519.6 465.5h2.1v3.2h-2.1z"/></g></g><g class="bar"><g><path fill="#4C5C78" fill-opacity=".7" stroke="#4C5C78" stroke-width=".5" stroke-opacity="1" opacity="1" style="transition:translate 200ms ease" d="M521.7 465.8h.2v2.9h-.2z"/></g></g><g class="bar"><g><path fill="#4C5C78" fill-opacity=".7" stroke="#4C5C78" stroke-width=".5" stroke-opacity="1" opacity="1" style="transition:translate 200ms ease" d="M521.9 465.8h.5v2.9h-.5z"/></g></g><g class="bar"><g><path fill="#2D8587" fill-opacity=".7" stroke="#2D8587" stroke-width=".5" stroke-opacity="1" opacity="1" style="transition:translate 200ms ease" d="M522.4 465.9H535v2.8h-12.6z"/></g></g><g class="bar"><g><path fill="#923E8B" fill-opacity=".7" stroke="#923E8B" stroke-width=".5" stroke-opacity="1" opacity="1" style="transition:translate 200ms ease" d="M535 466h3.5v2.7H535z"/></g></g><g class="bar"><g><path fill="#E04E4B" fill-opacity=".7" stroke="#E04E4B" stroke-width=".5" stroke-opacity="1" opacity="1" style="transition:translate 200ms ease" d="M538.5 466h1v2.7h-1z"/></g></g><g class="bar"><g><path fill="#4C5C78" fill-opacity=".7" stroke="#4C5C78" stroke-width=".5" stroke-opacity="1" opacity="1" style="transition:translate 200ms ease" d="M539.5 466h4.6v2.7h-4.6z"/></g></g><g class="bar"><g><path fill="#4C5C78" fill-opacity=".7" stroke="#4C5C78" stroke-width=".5" stroke-opacity="1" opacity="1" style="transition:translate 200ms ease" d="M544.1 466.4h.9v2.3h-.9z"/></g></g><g class="bar"><g><path fill="#4C5C78" fill-opacity=".7" stroke="#4C5C78" stroke-width=".5" stroke-opacity="1" opacity="1" style="transition:translate 200ms ease" d="M545 466.6h.4v2.1h-.4z"/></g></g><g class="bar"><g><path fill="#2D8587" fill-opacity=".7" stroke="#2D8587" stroke-width=".5" stroke-opacity="1" opacity="1" style="transition:translate 200ms ease" d="M545.4 466.7h.3v2h-.3z"/></g></g><g class="bar"><g><path fill="#A8633C" fill-opacity=".7" stroke="#A8633C" stroke-width=".5" stroke-opacity="1" opacity="1" style="transition:translate 200ms ease" d="M545.7 466.8h2.4v1.9h-2.4z"/></g></g><g class="bar"><g><path fill="#4C5C78" fill-opacity=".7" stroke="#4C5C78" stroke-width=".5" stroke-opacity="1" opacity="1" style="transition:translate 200ms ease" d="M548.1 467.1h1v1.6h-1z"/></g></g><g class="bar"><g><path fill="#2D8587" fill-opacity=".7" stroke="#2D8587" stroke-width=".5" stroke-opacity="1" opacity="1" style="transition:translate 200ms ease" d="M549.1 467.3h8v1.4h-8z"/></g></g><g class="bar"><g><path fill="#2D8587" fill-opacity=".7" stroke="#2D8587" stroke-width=".5" stroke-opacity="1" opacity="1" style="transition:translate 200ms ease" d="M557.1 467.3h141.1v1.4H557.1z"/></g></g><g class="bar"><g><path fill="#923E8B" fill-opacity=".7" stroke="#923E8B" stroke-width=".5" stroke-opacity="1" opacity="1" style="transition:translate 200ms ease" d="M698.2 467.4h4.1v1.3h-4.1z"/></g></g><g class="bar"><g><path fill="#4C5C78" fill-opacity=".7" stroke="#4C5C78" stroke-width=".5" stroke-opacity="1" opacity="1" style="transition:translate 200ms ease" d="M702.3 467.5h.8v1.2h-.8z"/></g></g><g class="bar"><g><path fill="#4C5C78" fill-opacity=".7" stroke="#4C5C78" stroke-width=".5" stroke-opacity="1" opacity="1" style="transition:translate 200ms ease" d="M703.1 467.5h6.6v1.2h-6.6z"/></g></g><g class="bar"><g><path fill="#932834" fill-opacity=".7" stroke="#932834" stroke-width=".5" stroke-opacity="1" opacity="1" style="transition:translate 200ms ease" d="M709.7 467.6h1.8v1.1h-1.8z"/></g></g><g class="bar"><g><path fill="#E04E4B" fill-opacity=".7" stroke="#E04E4B" stroke-width=".5" stroke-opacity="1" opacity="1" style="transition:translate 200ms ease" d="M711.5 467.6h.1v1.1h-.1z"/></g></g><g class="bar"><g><path fill="#4C5C78" fill-opacity=".7" stroke="#4C5C78" stroke-width=".5" stroke-opacity="1" opacity="1" style="transition:translate 200ms ease" d="M711.6 467.6h.1v1.1h-.1z"/></g></g><g class="bar"><g><path fill="#4C5C78" fill-opacity=".7" stroke="#4C5C78" stroke-width=".5" stroke-opacity="1" opacity="1" style="transition:translate 200ms ease" d="M711.7 467.7h.5v1h-.5z"/></g></g><g class="bar"><g><path fill="#4C5C78" fill-opacity=".7" stroke="#4C5C78" stroke-width=".5" stroke-opacity="1" opacity="1" style="transition:translate 200ms ease" d="M712.2 467.7h.9v1h-.9z"/></g></g><g class="bar"><g><path fill="#E04E4B" fill-opacity=".7" stroke="#E04E4B" stroke-width=".5" stroke-opacity="1" opacity="1" style="transition:translate 200ms ease" d="M713.1 467.7h3.6v1h-3.6z"/></g></g><g class="bar"><g><path fill="#923E8B" fill-opacity=".7" stroke="#923E8B" stroke-width=".5" stroke-opacity="1" opacity="1" style="transition:translate 200ms ease" d="M716.7 467.7h1.1v1h-1.1z"/></g></g><g class="bar"><g><path fill="#4C5C78" fill-opacity=".7" stroke="#4C5C78" stroke-width=".5" stroke-opacity="1" opacity="1" style="transition:translate 200ms ease" d="M717.8 467.7h.4v1h-.4z"/></g></g><g class="bar"><g><path fill="#2D8587" fill-opacity=".7" stroke="#2D8587" stroke-width=".5" stroke-opacity="1" opacity="1" style="transition:translate 200ms ease" d="M718.2 467.7h.8v1h-.8z"/></g></g><g class="bar"><g><path fill="#2D8587" fill-opacity=".7" stroke="#2D8587" stroke-width=".5" stroke-opacity="1" opacity="1" style="transition:translate 200ms ease" d="M719 467.8h5v.9h-5z"/></g></g><g class="bar"><g><path fill="#923E8B" fill-opacity=".7" stroke="#923E8B" stroke-width=".5" stroke-opacity="1" opacity="1" style="transition:translate 200ms ease" d="M724 467.9h.1v.8h-.1z"/></g></g><g class="bar"><g><path fill="#4C5C78" fill-opacity=".7" stroke="#4C5C78" stroke-width=".5" stroke-opacity="1" opacity="1" style="transition:translate 200ms ease" d="M724.1 467.9h1.7v.8h-1.7z"/></g></g><g class="bar"><g><path fill="#4C5C78" fill-opacity=".7" stroke="#4C5C78" stroke-width=".5" stroke-opacity="1" opacity="1" style="transition:translate 200ms ease" d="M725.8 468.1h1.1v.6h-1.1z"/></g></g><g class="bar"><g><path fill="#4C5C78" fill-opacity=".7" stroke="#4C5C78" stroke-width=".5" stroke-opacity="1" opacity="1" style="transition:translate 200ms ease" d="M726.9 468.1h.5v.6h-.5z"/></g></g><g class="bar"><g><path fill="#2D8587" fill-opacity=".7" stroke="#2D8587" stroke-width=".5" stroke-opacity="1" opacity="1" style="transition:translate 200ms ease" d="M727.4 468.1h8v.6h-8z"/></g></g><g class="bar"><g><path fill="#2D8587" fill-opacity=".7" stroke="#2D8587" stroke-width=".5" stroke-opacity="1" opacity="1" style="transition:translate 200ms ease" d="M735.4 468.3h.9v.4h-.9z"/></g></g><g class="bar"><g><path fill="#4C5C78" fill-opacity=".7" stroke="#4C5C78" stroke-width=".5" stroke-opacity="1" opacity="1" style="transition:translate 200ms ease" d="M736.3 468.4h.5v.3h-.5z"/></g></g><g class="bar"><g><path fill="#4C5C78" fill-opacity=".7" stroke="#4C5C78" stroke-width=".5" stroke-opacity="1" opacity="1" style="transition:translate 200ms ease" d="M736.8 468.4h.4v.3h-.4z"/></g></g><g class="bar"><g><path fill="#4C5C78" fill-opacity=".7" stroke="#4C5C78" stroke-width=".5" stroke-opacity="1" opacity="1" style="transition:translate 200ms ease" d="M737.2 468.4h.3v.3h-.3z"/></g></g><g class="bar"><g><path fill="#932834" fill-opacity=".7" stroke="#932834" stroke-width=".5" stroke-opacity="1" opacity="1" style="transition:translate 200ms ease" d="M737.5 468.5h.3v.2h-.3z"/></g></g><g class="bar"><g><path fill="#4C5C78" fill-opacity=".7" stroke="#4C5C78" stroke-width=".5" stroke-opacity="1" opacity="1" style="transition:translate 200ms ease" d="M737.8 468.5h14.4v.2h-14.4z"/></g></g><g class="bar"><g><path fill="#4C5C78" fill-opacity=".7" stroke="#4C5C78" stroke-width=".5" stroke-opacity="1" opacity="1" style="transition:translate 200ms ease" d="M752.2 468.5h.1v.2h-.1z"/></g></g><g class="bar"><g><path fill="#2D8587" fill-opacity=".7" stroke="#2D8587" stroke-width=".5" stroke-opacity="1" opacity="1" style="transition:translate 200ms ease" d="M752.3 468.6h6.8v.1h-6.8z"/></g></g><g class="bar"><g><path fill="#4C5C78" fill-opacity=".7" stroke="#4C5C78" stroke-width=".5" stroke-opacity="1" opacity="1" style="transition:translate 200ms ease" d="M759.1 468.6h4.4v.1h-4.4z"/></g></g><g class="bar"><g><path fill="#2D8587" fill-opacity=".7" stroke="#2D8587" stroke-width=".5" stroke-opacity="1" opacity="1" style="transition:translate 200ms ease" d="M763.5 468.6h1.8v.1h-1.8z"/></g></g><g class="bar"><g><path fill="#4C5C78" fill-opacity=".7" stroke="#4C5C78" stroke-width=".5" stroke-opacity="1" opacity="1" style="transition:translate 200ms ease" d="M765.3 468.6h6.4v.1h-6.4z"/></g></g><g class="bar"><g><path fill="#2D8587" fill-opacity=".7" stroke="#2D8587" stroke-width=".5" stroke-opacity="1" opacity="1" style="transition:translate 200ms ease" d="M771.7 468.6h3.1v.1h-3.1z"/></g></g><g class="bar"><g><path fill="#555" fill-opacity=".7" stroke="#555" stroke-width=".5" stroke-opacity=".8" opacity=".2" style="transition:translate 200ms ease" d="M794.3 442.7h2.9v26h-2.9z"/></g></g><g class="bar"><g><path fill="#555" fill-opacity=".7" stroke="#555" stroke-width=".5" stroke-opacity=".8" opacity=".2" style="transition:translate 200ms ease" d="M797.2 442.7h.5v26h-.5z"/></g></g><g class="bar"><g><path fill="#555" fill-opacity=".7" stroke="#555" stroke-width=".5" stroke-opacity=".8" opacity=".2" style="transition:translate 200ms ease" d="M797.7 442.7h3.3v26h-3.3z"/></g></g><g class="bar"><g><path fill="#555" fill-opacity=".7" stroke="#555" stroke-width=".5" stroke-opacity=".8" opacity=".2" style="transition:translate 200ms ease" d="M801 442.7h.2v26h-.2z"/></g></g><g class="bar"><g><path fill="#555" fill-opacity=".7" stroke="#555" stroke-width=".5" stroke-opacity=".8" opacity=".2" style="transition:translate 200ms ease" d="M801.2 442.7h.3v26h-.3z"/></g></g><g class="bar"><g><path fill="#555" fill-opacity=".7" stroke="#555" stroke-width=".5" stroke-opacity=".8" opacity=".2" style="transition:translate 200ms ease" d="M801.5 442.7h.4v26h-.4z"/></g></g><g class="bar"><g><path fill="#555" fill-opacity=".7" stroke="#555" stroke-width=".5" stroke-opacity=".8" opacity=".2" style="transition:translate 200ms ease" d="M801.9 442.7h2.5v26h-2.5z"/></g></g><g class="bar"><g><path fill="#555" fill-opacity=".7" stroke="#555" stroke-width=".5" stroke-opacity=".8" opacity=".2" style="transition:translate 200ms ease" d="M804.4 442.7h.4v26h-.4z"/></g></g><g class="bar"><g><path fill="#555" fill-opacity=".7" stroke="#555" stroke-width=".5" stroke-opacity=".8" opacity=".2" style="transition:translate 200ms ease" d="M804.8 442.7h.6v26h-.6z"/></g></g><g class="bar"><g><path fill="#555" fill-opacity=".7" stroke="#555" stroke-width=".5" stroke-opacity=".8" opacity=".2" style="transition:translate 200ms ease" d="M805.4 442.7h.4v26h-.4z"/></g></g><g class="bar"><g><path fill="#555" fill-opacity=".7" stroke="#555" stroke-width=".5" stroke-opacity=".8" opacity=".2" style="transition:translate 200ms ease" d="M805.8 442.7h.7v26h-.7z"/></g></g><g class="bar"><g><path fill="#555" fill-opacity=".7" stroke="#555" stroke-width=".5" stroke-opacity=".8" opacity=".2" style="transition:translate 200ms ease" d="M806.5 442.7h.3v26h-.3z"/></g></g><g class="bar"><g><path fill="#555" fill-opacity=".7" stroke="#555" stroke-width=".5" stroke-opacity=".8" opacity=".2" style="transition:translate 200ms ease" d="M806.8 442.7h.1v26h-.1z"/></g></g><g class="bar"><g><path fill="#555" fill-opacity=".7" stroke="#555" stroke-width=".5" stroke-opacity=".8" opacity=".2" style="transition:translate 200ms ease" d="M806.9 442.7h1.1v26h-1.1z"/></g></g><g class="bar"><g><path fill="#555" fill-opacity=".7" stroke="#555" stroke-width=".5" stroke-opacity=".8" opacity=".2" style="transition:translate 200ms ease" d="M808 442.7h1.6v26H808z"/></g></g><g class="bar"><g><path fill="#555" fill-opacity=".7" stroke="#555" stroke-width=".5" stroke-opacity=".8" opacity=".2" style="transition:translate 200ms ease" d="M809.6 442.7h.1v26h-.1z"/></g></g><g class="bar"><g><path fill="#555" fill-opacity=".7" stroke="#555" stroke-width=".5" stroke-opacity=".8" opacity=".2" style="transition:translate 200ms ease" d="M809.7 442.7h4.3v26h-4.3z"/></g></g><g class="bar"><g><path fill="#555" fill-opacity=".7" stroke="#555" stroke-width=".5" stroke-opacity=".8" opacity=".2" style="transition:translate 200ms ease" d="M814 442.7h3.6v26H814z"/></g></g><g class="bar-label"><g><text x="-73.33" y="0" width="73.33" height="12.6" font-weight="400" fill="#923E8B" transform="rotate(-45 634.3 154.26)" opacity="1" font-size=".7em" text-anchor="right" dominant-baseline="middle">South Sudan</text></g></g><g class="bar-label"><g><text x="-45.74" y="0" width="45.74" height="12.6" font-weight="400" fill="#923E8B" transform="rotate(-45 675.92 53.77)" opacity="1" font-size=".7em" text-anchor="right" dominant-baseline="middle">Ethiopia</text></g></g><g class="bar-label"><g><text x="-27.47" y="0" width="27.47" height="12.6" font-weight="400" fill="#2D8587" transform="rotate(-45 728.92 -74.18)" opacity="1" font-size=".7em" text-anchor="right" dominant-baseline="middle">India</text></g></g><g class="bar-label"><g><text x="-54.94" y="0" width="54.94" height="12.6" font-weight="400" fill="#2D8587" transform="rotate(-45 779.62 -196.58)" opacity="1" font-size=".7em" text-anchor="right" dominant-baseline="middle">Indonesia</text></g></g><g class="bar-label"><g><text x="-48.51" y="0" width="48.51" height="12.6" font-weight="400" fill="#2D8587" transform="rotate(-45 804.05 -255.55)" opacity="1" font-size=".7em" text-anchor="right" dominant-baseline="middle">Pakistan</text></g></g><g class="bar-label"><g><text x="-75.98" y="0" width="75.98" height="12.6" font-weight="400" fill="#E04E4B" transform="rotate(-45 844.02 -352.06)" opacity="1" font-size=".7em" text-anchor="right" dominant-baseline="middle">United States</text></g></g><g class="bar-label"><g><text x="-34.52" y="0" width="34.52" height="12.6" font-weight="400" fill="#2D8587" transform="rotate(-45 860.53 -391.9)" opacity="1" font-size=".7em" text-anchor="right" dominant-baseline="middle">Japan</text></g></g><g class="bar-label"><g><text x="-33.01" y="0" width="33.01" height="12.6" font-weight="400" fill="#2D8587" transform="rotate(-45 909.77 -510.8)" opacity="1" font-size=".7em" text-anchor="right" dominant-baseline="middle">China</text></g></g><g class="bar-label"><g><text x="-38.56" y="0" width="38.56" height="12.6" font-weight="400" fill="#4C5C78" transform="rotate(-45 968.45 -652.44)" opacity="1" font-size=".7em" text-anchor="right" dominant-baseline="middle">Russia</text></g></g><g class="indicator"><path d="M496.15 472.7v5.67h0v11.33" stroke="#bbb" stroke-width="1" fill="none"/></g><g class="indicator"><path d="M528.7 472.7v5.67h.46v11.33" stroke="#bbb" stroke-width="1" fill="none"/></g><g class="indicator"><path d="M76.7 472.7v17" stroke="#bbb" stroke-width="1" fill="none"/></g><g class="indicator"><path d="M159.95 472.7v17" stroke="#bbb" stroke-width="1" fill="none"/></g><g class="indicator"><path d="M265.95 472.7v17" stroke="#bbb" stroke-width="1" fill="none"/></g><g class="indicator"><path d="M367.35 472.7v17" stroke="#bbb" stroke-width="1" fill="none"/></g><g class="indicator"><path d="M416.2 472.7v17" stroke="#bbb" stroke-width="1" fill="none"/></g><g class="indicator"><path d="M627.65 472.7v17" stroke="#bbb" stroke-width="1" fill="none"/></g><g class="indicator"><path d="M745 472.7v17" stroke="#bbb" stroke-width="1" fill="none"/></g><text x="0" transform="rotate(-90 610.44 -195.5)" y="0" width="23.3" height="26" font-weight="700" fill="#666" opacity="1" font-size=".8em" text-anchor="middle" dominant-baseline="middle" pointer-events="none">no data</text></g><g class="SourcesFooter" fill="#777"><g fill="#777"><text font-size="12.6" x="15" y="582.5"><tspan x="15" y="582.48">Source: PovCal (2021), Gapminder (v6), HYDE (v3.2), UN (2019)</tspan></text></g><text font-size="12.6" x="796.4" y="582.5"><tspan x="796.44" y="582.48"><a class="cclogo" href="http://creativecommons.org/licenses/by/4.0/deed.en_US" target="_blank" fill="#777">CC BY</a></tspan></text></g></svg>