<svg xmlns="http://www.w3.org/2000/svg" version="1.1" style="font-family:Lato,'Helvetica Neue',Helvetica,Arial,sans-serif;font-size:18px;background-color:#fff;text-rendering:geometricPrecision;-webkit-font-smoothing:antialiased" width="850" height="600" viewBox="0 0 850 600"><g class="HeaderView"><g transform="matrix(.29 0 0 .29 774 15)"><svg className="owidLog" width="210" height="120" viewBox="0 0 210 120" fill="none" xmlns="http://www.w3.org/2000/svg"><g clip-path="url(#a)"><path d="M0 0h210v107.89H0V0z" fill="#002147"/><path d="M40.98 32.25c0 2.36-.38 4.53-1.12 6.51a14.26 14.26 0 0 1-8.1 8.4c-1.9.78-4.02 1.17-6.34 1.17a16.6 16.6 0 0 1-6.33-1.17 14.31 14.31 0 0 1-8.08-8.4 18.29 18.29 0 0 1-1.12-6.51c0-2.36.38-4.53 1.12-6.5.75-1.97 1.8-3.67 3.17-5.1a14.32 14.32 0 0 1 4.9-3.34c1.92-.8 4.03-1.19 6.34-1.19 2.32 0 4.43.4 6.34 1.19 1.92.8 3.56 1.9 4.93 3.34a14.87 14.87 0 0 1 3.17 5.1 18.1 18.1 0 0 1 1.12 6.5zm-4.38 0c0-1.94-.26-3.68-.8-5.22a10.91 10.91 0 0 0-2.24-3.89 9.68 9.68 0 0 0-3.52-2.46 11.95 11.95 0 0 0-4.62-.86c-1.68 0-3.21.28-4.6.86a9.88 9.88 0 0 0-3.54 2.46 10.91 10.91 0 0 0-2.24 3.9c-.53 1.53-.8 3.27-.8 5.2 0 1.94.27 3.68.8 5.22a11.17 11.17 0 0 0 2.24 3.9 10.01 10.01 0 0 0 3.55 2.44c1.38.56 2.9.83 4.6.83s3.24-.27 4.61-.83a9.8 9.8 0 0 0 3.52-2.44 11.17 11.17 0 0 0 2.25-3.9c.53-1.54.8-3.28.8-5.21zm26.22-6.54V48H60.5c-.56 0-.9-.27-1.05-.81l-.31-2.4a12.45 12.45 0 0 1-3.26 2.6c-1.2.64-2.58.96-4.13.96-1.22 0-2.3-.2-3.24-.6a6.52 6.52 0 0 1-2.33-1.7 7.37 7.37 0 0 1-1.43-2.67c-.3-1.04-.46-2.2-.46-3.45V25.7h3.91v14.22c0 1.68.38 2.99 1.15 3.91.77.93 1.96 1.39 3.54 1.39 1.16 0 2.24-.27 3.23-.82a10.42 10.42 0 0 0 2.8-2.28V25.7h3.91zm8.61 4.47a9.94 9.94 0 0 1 2.6-3.56 5.64 5.64 0 0 1 3.76-1.3c.47 0 .92.05 1.34.15.44.1.83.27 1.17.49l-.3 2.92c-.09.37-.3.55-.66.55-.2 0-.5-.04-.9-.13a6.21 6.21 0 0 0-3.24.18 4.23 4.23 0 0 0-1.47.92c-.42.4-.81.9-1.17 1.5-.33.58-.64 1.26-.92 2.02V48H67.7V25.71h2.25c.42 0 .72.08.88.25.16.16.27.44.33.83l.26 3.39zm61.16-13.7L122.75 48h-3.82l-7.99-24.05a21.95 21.95 0 0 1-.42-1.58 38.36 38.36 0 0 1-.44 1.58L102.05 48h-3.83L88.4 16.47h3.54c.38 0 .7.1.95.29.26.2.43.43.5.73l6.52 21.9.28 1.28.29 1.46.3-1.46.38-1.27 7.41-21.91c.1-.25.26-.48.51-.69.27-.22.58-.33.95-.33h1.23c.38 0 .69.1.92.29a1.77 1.77 0 0 1 .53.73l7.4 21.9a28.4 28.4 0 0 1 .68 2.62 29.52 29.52 0 0 1 .52-2.61l6.54-21.91a1.31 1.31 0 0 1 .48-.7c.27-.21.58-.32.95-.32h3.32zm9.35 8.88c1.63 0 3.1.27 4.4.82a9.43 9.43 0 0 1 5.46 5.94c.5 1.4.74 2.98.74 4.73 0 1.76-.25 3.34-.74 4.75a9.43 9.43 0 0 1-5.46 5.92c-1.3.52-2.77.79-4.4.79-1.64 0-3.12-.27-4.44-.8a9.42 9.42 0 0 1-3.35-2.3c-.92-1-1.63-2.2-2.13-3.61-.49-1.41-.73-3-.73-4.75s.24-3.33.73-4.73c.5-1.43 1.2-2.64 2.13-3.63a9.4 9.4 0 0 1 3.35-2.31c1.32-.55 2.8-.82 4.44-.82zm0 19.89c2.2 0 3.84-.73 4.93-2.2 1.08-1.48 1.63-3.54 1.63-6.18 0-2.66-.55-4.72-1.63-6.2-1.09-1.49-2.73-2.23-4.93-2.23-1.12 0-2.09.2-2.93.57a5.71 5.71 0 0 0-2.06 1.65 7.5 7.5 0 0 0-1.24 2.67c-.26 1.04-.4 2.22-.4 3.54 0 2.64.55 4.7 1.64 6.18 1.1 1.47 2.76 2.2 4.99 2.2zm17.97-15.07a9.94 9.94 0 0 1 2.6-3.56 5.64 5.64 0 0 1 3.76-1.3c.47 0 .91.05 1.34.15.44.1.83.27 1.16.49l-.28 2.92c-.09.37-.31.55-.66.55-.2 0-.5-.04-.9-.13a6.2 6.2 0 0 0-3.24.18 4.23 4.23 0 0 0-1.47.92c-.43.4-.82.9-1.17 1.5a13.1 13.1 0 0 0-.92 2.02V48h-3.94V25.71h2.24c.43 0 .72.08.88.25.17.16.28.44.33.83l.27 3.39zm15.04-14.59V48h-3.92V15.6h3.92zm19.55 15.43a6.22 6.22 0 0 0-2.38-2.05 6.7 6.7 0 0 0-2.86-.6c-2.07 0-3.66.75-4.77 2.23-1.12 1.48-1.68 3.6-1.68 6.33 0 1.46.13 2.7.38 3.74a7.29 7.29 0 0 0 1.1 2.56 4.35 4.35 0 0 0 1.78 1.45c.7.3 1.5.46 2.4.46 1.29 0 2.41-.3 3.36-.88a9.6 9.6 0 0 0 2.67-2.49V31.02zm3.91-15.43V48h-2.33c-.56 0-.9-.27-1.06-.81l-.35-2.71a12.13 12.13 0 0 1-3.25 2.77 8.28 8.28 0 0 1-4.23 1.06 7.31 7.31 0 0 1-6.14-2.9c-.73-.96-1.3-2.15-1.69-3.57a18.35 18.35 0 0 1 .07-9.48 11.29 11.29 0 0 1 1.89-3.7 8.7 8.7 0 0 1 7.06-3.34 7.96 7.96 0 0 1 6.12 2.62V15.59h3.91zM46.61 70.71V93H42.7V70.71h3.91zm.84-7c0 .39-.08.75-.24 1.09a2.81 2.81 0 0 1-1.52 1.47 2.67 2.67 0 0 1-2.16 0 2.9 2.9 0 0 1-1.45-1.47 2.67 2.67 0 0 1 0-2.16c.15-.35.35-.65.6-.9.25-.27.53-.47.85-.62a2.67 2.67 0 0 1 2.16 0c.35.15.65.35.9.62.27.25.47.55.62.9.16.34.24.7.24 1.08zm7.97 10.24c.49-.54 1-1.04 1.54-1.48a9.85 9.85 0 0 1 3.66-1.84 8.96 8.96 0 0 1 5.43.35c.94.4 1.72.97 2.33 1.71a7.36 7.36 0 0 1 1.43 2.67c.32 1.04.49 2.19.49 3.45V93h-3.94V78.81c0-1.69-.4-3-1.17-3.92-.76-.93-1.93-1.4-3.5-1.4a6.6 6.6 0 0 0-3.25.83c-1 .56-1.92 1.31-2.77 2.27V93h-3.94V70.71h2.35c.56 0 .9.28 1.04.82l.3 2.42zm57.7 3.3c0 2.36-.37 4.5-1.11 6.44a14.3 14.3 0 0 1-3.17 4.98 14.1 14.1 0 0 1-4.93 3.2c-1.9.76-4.02 1.13-6.33 1.13H85.8V61.47h11.77c2.31 0 4.42.39 6.33 1.15a13.8 13.8 0 0 1 8.1 8.18 17.75 17.75 0 0 1 1.12 6.45zm-4.37 0c0-1.94-.26-3.67-.8-5.2a10.94 10.94 0 0 0-2.23-3.87 9.57 9.57 0 0 0-3.53-2.42 12.23 12.23 0 0 0-4.61-.83h-7.5v24.62h7.5c1.7 0 3.24-.28 4.61-.84a9.7 9.7 0 0 0 3.53-2.4 10.94 10.94 0 0 0 2.24-3.87c.53-1.53.8-3.26.8-5.2zm19.8 5.72c-1.8.06-3.34.2-4.62.44-1.26.22-2.3.51-3.1.88-.8.36-1.37.8-1.74 1.3-.35.5-.53 1.05-.53 1.67 0 .58.1 1.1.3 1.52a3 3 0 0 0 .76 1.05c.34.27.73.46 1.17.6a6.13 6.13 0 0 0 1.45.17 7.28 7.28 0 0 0 3.5-.81 11.95 11.95 0 0 0 2.82-2.2v-4.62zm-12.65-9.11a12.73 12.73 0 0 1 3.98-2.66c1.43-.59 3-.88 4.73-.88 1.25 0 2.36.2 3.33.61a6.81 6.81 0 0 1 3.94 4.38c.33 1.04.5 2.19.5 3.43V93h-1.74a1.8 1.8 0 0 1-.88-.18c-.2-.13-.36-.38-.48-.74l-.44-2.12-1.72 1.46a9.48 9.48 0 0 1-3.74 1.7c-.69.15-1.46.23-2.3.23-.87 0-1.69-.12-2.45-.35a5.34 5.34 0 0 1-3.34-2.93 6.64 6.64 0 0 1-.49-2.64c0-.88.25-1.72.73-2.53a6.33 6.33 0 0 1 2.35-2.17c1.09-.63 2.5-1.15 4.25-1.54 1.75-.41 3.89-.65 6.42-.7v-1.75c0-1.73-.37-3.03-1.12-3.91-.75-.9-1.84-1.34-3.28-1.34-.97 0-1.78.12-2.44.37-.64.23-1.2.5-1.7.81l-1.23.82c-.33.23-.67.35-1 .35-.27 0-.5-.07-.69-.2a2.1 2.1 0 0 1-.48-.53l-.7-1.25zm27.67 19.5c-1.76 0-3.12-.5-4.07-1.48-.94-.98-1.41-2.4-1.41-4.25V74h-2.68a.9.9 0 0 1-.6-.2c-.16-.14-.24-.36-.24-.66v-1.56l3.65-.46.9-6.89a.9.9 0 0 1 .29-.52.88.88 0 0 1 .62-.22H142v7.67h6.44V74H142v13.38c0 .94.22 1.63.68 2.09.45.45 1.04.68 1.76.68a3.21 3.21 0 0 0 1.85-.53l.55-.35c.16-.12.3-.18.41-.18.2 0 .4.13.55.38l1.15 1.87a7.45 7.45 0 0 1-2.44 1.5 8.53 8.53 0 0 1-2.95.52zm19.68-10.4c-1.8.07-3.34.21-4.62.45-1.26.22-2.3.51-3.1.88-.8.36-1.37.8-1.74 1.3-.35.5-.53 1.05-.53 1.67 0 .58.1 1.1.3 1.52a2.9 2.9 0 0 0 .76 1.05c.34.27.73.46 1.17.6a6.13 6.13 0 0 0 1.45.17 7.3 7.3 0 0 0 3.5-.81 12.04 12.04 0 0 0 2.82-2.2v-4.62zm-12.65-9.1a12.72 12.72 0 0 1 3.99-2.66c1.42-.59 3-.88 4.72-.88 1.25 0 2.36.2 3.33.61a6.81 6.81 0 0 1 3.94 4.38c.33 1.04.5 2.19.5 3.43V93h-1.74a1.8 1.8 0 0 1-.88-.18c-.2-.13-.36-.38-.48-.74l-.44-2.12-1.72 1.46a9.48 9.48 0 0 1-3.74 1.7c-.69.15-1.46.23-2.3.23-.87 0-1.69-.12-2.45-.35a5.33 5.33 0 0 1-3.34-2.93 6.62 6.62 0 0 1-.49-2.64c0-.88.25-1.72.73-2.53a6.33 6.33 0 0 1 2.35-2.17c1.09-.63 2.5-1.15 4.25-1.54a31.2 31.2 0 0 1 6.42-.7v-1.75c0-1.73-.37-3.03-1.12-3.91-.75-.9-1.84-1.34-3.28-1.34-.97 0-1.78.12-2.44.37-.64.23-1.2.5-1.7.81l-1.22.82c-.34.23-.68.35-1.02.35-.26 0-.49-.07-.68-.2a1.88 1.88 0 0 1-.48-.53l-.7-1.25zM40.98 32.25c0 2.36-.38 4.53-1.12 6.51a14.26 14.26 0 0 1-8.1 8.4c-1.9.78-4.02 1.17-6.34 1.17a16.6 16.6 0 0 1-6.33-1.17 14.31 14.31 0 0 1-8.08-8.4 18.29 18.29 0 0 1-1.12-6.51c0-2.36.38-4.53 1.12-6.5.75-1.97 1.8-3.67 3.17-5.1a14.32 14.32 0 0 1 4.9-3.34c1.92-.8 4.03-1.19 6.34-1.19 2.32 0 4.43.4 6.34 1.19 1.92.8 3.56 1.9 4.93 3.34a14.87 14.87 0 0 1 3.17 5.1 18.1 18.1 0 0 1 1.12 6.5zm-4.38 0c0-1.94-.26-3.68-.8-5.22a10.91 10.91 0 0 0-2.24-3.89 9.68 9.68 0 0 0-3.52-2.46 11.95 11.95 0 0 0-4.62-.86c-1.68 0-3.21.28-4.6.86a9.88 9.88 0 0 0-3.54 2.46 10.91 10.91 0 0 0-2.24 3.9c-.53 1.53-.8 3.27-.8 5.2 0 1.94.27 3.68.8 5.22a11.17 11.17 0 0 0 2.24 3.9 10.01 10.01 0 0 0 3.55 2.44c1.38.56 2.9.83 4.6.83s3.24-.27 4.61-.83a9.8 9.8 0 0 0 3.52-2.44 11.17 11.17 0 0 0 2.25-3.9c.53-1.54.8-3.28.8-5.21zm26.22-6.54V48H60.5c-.56 0-.9-.27-1.05-.81l-.31-2.4a12.45 12.45 0 0 1-3.26 2.6c-1.2.64-2.58.96-4.13.96-1.22 0-2.3-.2-3.24-.6a6.52 6.52 0 0 1-2.33-1.7 7.37 7.37 0 0 1-1.43-2.67c-.3-1.04-.46-2.2-.46-3.45V25.7h3.91v14.22c0 1.68.38 2.99 1.15 3.91.77.93 1.96 1.39 3.54 1.39 1.16 0 2.24-.27 3.23-.82a10.42 10.42 0 0 0 2.8-2.28V25.7h3.91zm8.61 4.47a9.94 9.94 0 0 1 2.6-3.56 5.64 5.64 0 0 1 3.76-1.3c.47 0 .92.05 1.34.15.44.1.83.27 1.17.49l-.3 2.92c-.09.37-.3.55-.66.55-.2 0-.5-.04-.9-.13a6.21 6.21 0 0 0-3.24.18 4.23 4.23 0 0 0-1.47.92c-.42.4-.81.9-1.17 1.5-.33.58-.64 1.26-.92 2.02V48H67.7V25.71h2.25c.42 0 .72.08.88.25.16.16.27.44.33.83l.26 3.39zm61.16-13.7L122.75 48h-3.82l-7.99-24.05a21.95 21.95 0 0 1-.42-1.58 38.36 38.36 0 0 1-.44 1.58L102.05 48h-3.83L88.4 16.47h3.54c.38 0 .7.1.95.29.26.2.43.43.5.73l6.52 21.9.28 1.28.29 1.46.3-1.46.38-1.27 7.41-21.91c.1-.25.26-.48.51-.69.27-.22.58-.33.95-.33h1.23c.38 0 .69.1.92.29a1.77 1.77 0 0 1 .53.73l7.4 21.9a28.4 28.4 0 0 1 .68 2.62 29.52 29.52 0 0 1 .52-2.61l6.54-21.91a1.31 1.31 0 0 1 .48-.7c.27-.21.58-.32.95-.32h3.32zm9.35 8.88c1.63 0 3.1.27 4.4.82a9.43 9.43 0 0 1 5.46 5.94c.5 1.4.74 2.98.74 4.73 0 1.76-.25 3.34-.74 4.75a9.43 9.43 0 0 1-5.46 5.92c-1.3.52-2.77.79-4.4.79-1.64 0-3.12-.27-4.44-.8a9.42 9.42 0 0 1-3.35-2.3c-.92-1-1.63-2.2-2.13-3.61-.49-1.41-.73-3-.73-4.75s.24-3.33.73-4.73c.5-1.43 1.2-2.64 2.13-3.63a9.4 9.4 0 0 1 3.35-2.31c1.32-.55 2.8-.82 4.44-.82zm0 19.89c2.2 0 3.84-.73 4.93-2.2 1.08-1.48 1.63-3.54 1.63-6.18 0-2.66-.55-4.72-1.63-6.2-1.09-1.49-2.73-2.23-4.93-2.23-1.12 0-2.09.2-2.93.57a5.71 5.71 0 0 0-2.06 1.65 7.5 7.5 0 0 0-1.24 2.67c-.26 1.04-.4 2.22-.4 3.54 0 2.64.55 4.7 1.64 6.18 1.1 1.47 2.76 2.2 4.99 2.2zm17.97-15.07a9.94 9.94 0 0 1 2.6-3.56 5.64 5.64 0 0 1 3.76-1.3c.47 0 .91.05 1.34.15.44.1.83.27 1.16.49l-.28 2.92c-.09.37-.31.55-.66.55-.2 0-.5-.04-.9-.13a6.2 6.2 0 0 0-3.24.18 4.23 4.23 0 0 0-1.47.92c-.43.4-.82.9-1.17 1.5a13.1 13.1 0 0 0-.92 2.02V48h-3.94V25.71h2.24c.43 0 .72.08.88.25.17.16.28.44.33.83l.27 3.39zm15.04-14.59V48h-3.92V15.6h3.92zm19.55 15.43a6.22 6.22 0 0 0-2.38-2.05 6.7 6.7 0 0 0-2.86-.6c-2.07 0-3.66.75-4.77 2.23-1.12 1.48-1.68 3.6-1.68 6.33 0 1.46.13 2.7.38 3.74a7.29 7.29 0 0 0 1.1 2.56 4.35 4.35 0 0 0 1.78 1.45c.7.3 1.5.46 2.4.46 1.29 0 2.41-.3 3.36-.88a9.6 9.6 0 0 0 2.67-2.49V31.02zm3.91-15.43V48h-2.33c-.56 0-.9-.27-1.06-.81l-.35-2.71a12.13 12.13 0 0 1-3.25 2.77 8.28 8.28 0 0 1-4.23 1.06 7.31 7.31 0 0 1-6.14-2.9c-.73-.96-1.3-2.15-1.69-3.57a18.35 18.35 0 0 1 .07-9.48 11.29 11.29 0 0 1 1.89-3.7 8.7 8.7 0 0 1 7.06-3.34 7.96 7.96 0 0 1 6.12 2.62V15.59h3.91zM46.61 70.71V93H42.7V70.71h3.91zm.84-7c0 .39-.08.75-.24 1.09a2.81 2.81 0 0 1-1.52 1.47 2.67 2.67 0 0 1-2.16 0 2.9 2.9 0 0 1-1.45-1.47 2.67 2.67 0 0 1 0-2.16c.15-.35.35-.65.6-.9.25-.27.53-.47.85-.62a2.67 2.67 0 0 1 2.16 0c.35.15.65.35.9.62.27.25.47.55.62.9.16.34.24.7.24 1.08zm7.97 10.24c.49-.54 1-1.04 1.54-1.48a9.85 9.85 0 0 1 3.66-1.84 8.96 8.96 0 0 1 5.43.35c.94.4 1.72.97 2.33 1.71a7.36 7.36 0 0 1 1.43 2.67c.32 1.04.49 2.19.49 3.45V93h-3.94V78.81c0-1.69-.4-3-1.17-3.92-.76-.93-1.93-1.4-3.5-1.4a6.6 6.6 0 0 0-3.25.83c-1 .56-1.92 1.31-2.77 2.27V93h-3.94V70.71h2.35c.56 0 .9.28 1.04.82l.3 2.42zm57.7 3.3c0 2.36-.37 4.5-1.11 6.44a14.3 14.3 0 0 1-3.17 4.98 14.1 14.1 0 0 1-4.93 3.2c-1.9.76-4.02 1.13-6.33 1.13H85.8V61.47h11.77c2.31 0 4.42.39 6.33 1.15a13.8 13.8 0 0 1 8.1 8.18 17.75 17.75 0 0 1 1.12 6.45zm-4.37 0c0-1.94-.26-3.67-.8-5.2a10.94 10.94 0 0 0-2.23-3.87 9.57 9.57 0 0 0-3.53-2.42 12.23 12.23 0 0 0-4.61-.83h-7.5v24.62h7.5c1.7 0 3.24-.28 4.61-.84a9.7 9.7 0 0 0 3.53-2.4 10.94 10.94 0 0 0 2.24-3.87c.53-1.53.8-3.26.8-5.2zm19.8 5.72c-1.8.06-3.34.2-4.62.44-1.26.22-2.3.51-3.1.88-.8.36-1.37.8-1.74 1.3-.35.5-.53 1.05-.53 1.67 0 .58.1 1.1.3 1.52a3 3 0 0 0 .76 1.05c.34.27.73.46 1.17.6a6.13 6.13 0 0 0 1.45.17 7.28 7.28 0 0 0 3.5-.81 11.95 11.95 0 0 0 2.82-2.2v-4.62zm-12.65-9.11a12.73 12.73 0 0 1 3.98-2.66c1.43-.59 3-.88 4.73-.88 1.25 0 2.36.2 3.33.61a6.81 6.81 0 0 1 3.94 4.38c.33 1.04.5 2.19.5 3.43V93h-1.74a1.8 1.8 0 0 1-.88-.18c-.2-.13-.36-.38-.48-.74l-.44-2.12-1.72 1.46a9.48 9.48 0 0 1-3.74 1.7c-.69.15-1.46.23-2.3.23-.87 0-1.69-.12-2.45-.35a5.34 5.34 0 0 1-3.34-2.93 6.64 6.64 0 0 1-.49-2.64c0-.88.25-1.72.73-2.53a6.33 6.33 0 0 1 2.35-2.17c1.09-.63 2.5-1.15 4.25-1.54 1.75-.41 3.89-.65 6.42-.7v-1.75c0-1.73-.37-3.03-1.12-3.91-.75-.9-1.84-1.34-3.28-1.34-.97 0-1.78.12-2.44.37-.64.23-1.2.5-1.7.81l-1.23.82c-.33.23-.67.35-1 .35-.27 0-.5-.07-.69-.2a2.1 2.1 0 0 1-.48-.53l-.7-1.25zm27.67 19.5c-1.76 0-3.12-.5-4.07-1.48-.94-.98-1.41-2.4-1.41-4.25V74h-2.68a.9.9 0 0 1-.6-.2c-.16-.14-.24-.36-.24-.66v-1.56l3.65-.46.9-6.89a.9.9 0 0 1 .29-.52.88.88 0 0 1 .62-.22H142v7.67h6.44V74H142v13.38c0 .94.22 1.63.68 2.09.45.45 1.04.68 1.76.68a3.21 3.21 0 0 0 1.85-.53l.55-.35c.16-.12.3-.18.41-.18.2 0 .4.13.55.38l1.15 1.87a7.45 7.45 0 0 1-2.44 1.5 8.53 8.53 0 0 1-2.95.52zm19.68-10.4c-1.8.07-3.34.21-4.62.45-1.26.22-2.3.51-3.1.88-.8.36-1.37.8-1.74 1.3-.35.5-.53 1.05-.53 1.67 0 .58.1 1.1.3 1.52a2.9 2.9 0 0 0 .76 1.05c.34.27.73.46 1.17.6a6.13 6.13 0 0 0 1.45.17 7.3 7.3 0 0 0 3.5-.81 12.04 12.04 0 0 0 2.82-2.2v-4.62zm-12.65-9.1a12.72 12.72 0 0 1 3.99-2.66c1.42-.59 3-.88 4.72-.88 1.25 0 2.36.2 3.33.61a6.81 6.81 0 0 1 3.94 4.38c.33 1.04.5 2.19.5 3.43V93h-1.74a1.8 1.8 0 0 1-.88-.18c-.2-.13-.36-.38-.48-.74l-.44-2.12-1.72 1.46a9.48 9.48 0 0 1-3.74 1.7c-.69.15-1.46.23-2.3.23-.87 0-1.69-.12-2.45-.35a5.33 5.33 0 0 1-3.34-2.93 6.62 6.62 0 0 1-.49-2.64c0-.88.25-1.72.73-2.53a6.33 6.33 0 0 1 2.35-2.17c1.09-.63 2.5-1.15 4.25-1.54a31.2 31.2 0 0 1 6.42-.7v-1.75c0-1.73-.37-3.03-1.12-3.91-.75-.9-1.84-1.34-3.28-1.34-.97 0-1.78.12-2.44.37-.64.23-1.2.5-1.7.81l-1.22.82c-.34.23-.68.35-1.02.35-.26 0-.49-.07-.68-.2a1.88 1.88 0 0 1-.48-.53l-.7-1.25zM40.98 32.25c0 2.36-.38 4.53-1.12 6.51a14.26 14.26 0 0 1-8.1 8.4c-1.9.78-4.02 1.17-6.34 1.17a16.6 16.6 0 0 1-6.33-1.17 14.31 14.31 0 0 1-8.08-8.4 18.29 18.29 0 0 1-1.12-6.51c0-2.36.38-4.53 1.12-6.5.75-1.97 1.8-3.67 3.17-5.1a14.32 14.32 0 0 1 4.9-3.34c1.92-.8 4.03-1.19 6.34-1.19 2.32 0 4.43.4 6.34 1.19 1.92.8 3.56 1.9 4.93 3.34a14.87 14.87 0 0 1 3.17 5.1 18.1 18.1 0 0 1 1.12 6.5zm-4.38 0c0-1.94-.26-3.68-.8-5.22a10.91 10.91 0 0 0-2.24-3.89 9.68 9.68 0 0 0-3.52-2.46 11.95 11.95 0 0 0-4.62-.86c-1.68 0-3.21.28-4.6.86a9.88 9.88 0 0 0-3.54 2.46 10.91 10.91 0 0 0-2.24 3.9c-.53 1.53-.8 3.27-.8 5.2 0 1.94.27 3.68.8 5.22a11.17 11.17 0 0 0 2.24 3.9 10.01 10.01 0 0 0 3.55 2.44c1.38.56 2.9.83 4.6.83s3.24-.27 4.61-.83a9.8 9.8 0 0 0 3.52-2.44 11.17 11.17 0 0 0 2.25-3.9c.53-1.54.8-3.28.8-5.21zm26.22-6.54V48H60.5c-.56 0-.9-.27-1.05-.81l-.31-2.4a12.45 12.45 0 0 1-3.26 2.6c-1.2.64-2.58.96-4.13.96-1.22 0-2.3-.2-3.24-.6a6.52 6.52 0 0 1-2.33-1.7 7.37 7.37 0 0 1-1.43-2.67c-.3-1.04-.46-2.2-.46-3.45V25.7h3.91v14.22c0 1.68.38 2.99 1.15 3.91.77.93 1.96 1.39 3.54 1.39 1.16 0 2.24-.27 3.23-.82a10.42 10.42 0 0 0 2.8-2.28V25.7h3.91zm8.61 4.47a9.94 9.94 0 0 1 2.6-3.56 5.64 5.64 0 0 1 3.76-1.3c.47 0 .92.05 1.34.15.44.1.83.27 1.17.49l-.3 2.92c-.09.37-.3.55-.66.55-.2 0-.5-.04-.9-.13a6.21 6.21 0 0 0-3.24.18 4.23 4.23 0 0 0-1.47.92c-.42.4-.81.9-1.17 1.5-.33.58-.64 1.26-.92 2.02V48H67.7V25.71h2.25c.42 0 .72.08.88.25.16.16.27.44.33.83l.26 3.39zm61.16-13.7L122.75 48h-3.82l-7.99-24.05a21.95 21.95 0 0 1-.42-1.58 38.36 38.36 0 0 1-.44 1.58L102.05 48h-3.83L88.4 16.47h3.54c.38 0 .7.1.95.29.26.2.43.43.5.73l6.52 21.9.28 1.28.29 1.46.3-1.46.38-1.27 7.41-21.91c.1-.25.26-.48.51-.69.27-.22.58-.33.95-.33h1.23c.38 0 .69.1.92.29a1.77 1.77 0 0 1 .53.73l7.4 21.9a28.4 28.4 0 0 1 .68 2.62 29.52 29.52 0 0 1 .52-2.61l6.54-21.91a1.31 1.31 0 0 1 .48-.7c.27-.21.58-.32.95-.32h3.32zm9.35 8.88c1.63 0 3.1.27 4.4.82a9.43 9.43 0 0 1 5.46 5.94c.5 1.4.74 2.98.74 4.73 0 1.76-.25 3.34-.74 4.75a9.43 9.43 0 0 1-5.46 5.92c-1.3.52-2.77.79-4.4.79-1.64 0-3.12-.27-4.44-.8a9.42 9.42 0 0 1-3.35-2.3c-.92-1-1.63-2.2-2.13-3.61-.49-1.41-.73-3-.73-4.75s.24-3.33.73-4.73c.5-1.43 1.2-2.64 2.13-3.63a9.4 9.4 0 0 1 3.35-2.31c1.32-.55 2.8-.82 4.44-.82zm0 19.89c2.2 0 3.84-.73 4.93-2.2 1.08-1.48 1.63-3.54 1.63-6.18 0-2.66-.55-4.72-1.63-6.2-1.09-1.49-2.73-2.23-4.93-2.23-1.12 0-2.09.2-2.93.57a5.71 5.71 0 0 0-2.06 1.65 7.5 7.5 0 0 0-1.24 2.67c-.26 1.04-.4 2.22-.4 3.54 0 2.64.55 4.7 1.64 6.18 1.1 1.47 2.76 2.2 4.99 2.2zm17.97-15.07a9.94 9.94 0 0 1 2.6-3.56 5.64 5.64 0 0 1 3.76-1.3c.47 0 .91.05 1.34.15.44.1.83.27 1.16.49l-.28 2.92c-.09.37-.31.55-.66.55-.2 0-.5-.04-.9-.13a6.2 6.2 0 0 0-3.24.18 4.23 4.23 0 0 0-1.47.92c-.43.4-.82.9-1.17 1.5a13.1 13.1 0 0 0-.92 2.02V48h-3.94V25.71h2.24c.43 0 .72.08.88.25.17.16.28.44.33.83l.27 3.39zm15.04-14.59V48h-3.92V15.6h3.92zm19.55 15.43a6.22 6.22 0 0 0-2.38-2.05 6.7 6.7 0 0 0-2.86-.6c-2.07 0-3.66.75-4.77 2.23-1.12 1.48-1.68 3.6-1.68 6.33 0 1.46.13 2.7.38 3.74a7.29 7.29 0 0 0 1.1 2.56 4.35 4.35 0 0 0 1.78 1.45c.7.3 1.5.46 2.4.46 1.29 0 2.41-.3 3.36-.88a9.6 9.6 0 0 0 2.67-2.49V31.02zm3.91-15.43V48h-2.33c-.56 0-.9-.27-1.06-.81l-.35-2.71a12.13 12.13 0 0 1-3.25 2.77 8.28 8.28 0 0 1-4.23 1.06 7.31 7.31 0 0 1-6.14-2.9c-.73-.96-1.3-2.15-1.69-3.57a18.35 18.35 0 0 1 .07-9.48 11.29 11.29 0 0 1 1.89-3.7 8.7 8.7 0 0 1 7.06-3.34 7.96 7.96 0 0 1 6.12 2.62V15.59h3.91zM46.61 70.71V93H42.7V70.71h3.91zm.84-7c0 .39-.08.75-.24 1.09a2.81 2.81 0 0 1-1.52 1.47 2.67 2.67 0 0 1-2.16 0 2.9 2.9 0 0 1-1.45-1.47 2.67 2.67 0 0 1 0-2.16c.15-.35.35-.65.6-.9.25-.27.53-.47.85-.62a2.67 2.67 0 0 1 2.16 0c.35.15.65.35.9.62.27.25.47.55.62.9.16.34.24.7.24 1.08zm7.97 10.24c.49-.54 1-1.04 1.54-1.48a9.85 9.85 0 0 1 3.66-1.84 8.96 8.96 0 0 1 5.43.35c.94.4 1.72.97 2.33 1.71a7.36 7.36 0 0 1 1.43 2.67c.32 1.04.49 2.19.49 3.45V93h-3.94V78.81c0-1.69-.4-3-1.17-3.92-.76-.93-1.93-1.4-3.5-1.4a6.6 6.6 0 0 0-3.25.83c-1 .56-1.92 1.31-2.77 2.27V93h-3.94V70.71h2.35c.56 0 .9.28 1.04.82l.3 2.42zm57.7 3.3c0 2.36-.37 4.5-1.11 6.44a14.3 14.3 0 0 1-3.17 4.98 14.1 14.1 0 0 1-4.93 3.2c-1.9.76-4.02 1.13-6.33 1.13H85.8V61.47h11.77c2.31 0 4.42.39 6.33 1.15a13.8 13.8 0 0 1 8.1 8.18 17.75 17.75 0 0 1 1.12 6.45zm-4.37 0c0-1.94-.26-3.67-.8-5.2a10.94 10.94 0 0 0-2.23-3.87 9.57 9.57 0 0 0-3.53-2.42 12.23 12.23 0 0 0-4.61-.83h-7.5v24.62h7.5c1.7 0 3.24-.28 4.61-.84a9.7 9.7 0 0 0 3.53-2.4 10.94 10.94 0 0 0 2.24-3.87c.53-1.53.8-3.26.8-5.2zm19.8 5.72c-1.8.06-3.34.2-4.62.44-1.26.22-2.3.51-3.1.88-.8.36-1.37.8-1.74 1.3-.35.5-.53 1.05-.53 1.67 0 .58.1 1.1.3 1.52a3 3 0 0 0 .76 1.05c.34.27.73.46 1.17.6a6.13 6.13 0 0 0 1.45.17 7.28 7.28 0 0 0 3.5-.81 11.95 11.95 0 0 0 2.82-2.2v-4.62zm-12.65-9.11a12.73 12.73 0 0 1 3.98-2.66c1.43-.59 3-.88 4.73-.88 1.25 0 2.36.2 3.33.61a6.81 6.81 0 0 1 3.94 4.38c.33 1.04.5 2.19.5 3.43V93h-1.74a1.8 1.8 0 0 1-.88-.18c-.2-.13-.36-.38-.48-.74l-.44-2.12-1.72 1.46a9.48 9.48 0 0 1-3.74 1.7c-.69.15-1.46.23-2.3.23-.87 0-1.69-.12-2.45-.35a5.34 5.34 0 0 1-3.34-2.93 6.64 6.64 0 0 1-.49-2.64c0-.88.25-1.72.73-2.53a6.33 6.33 0 0 1 2.35-2.17c1.09-.63 2.5-1.15 4.25-1.54 1.75-.41 3.89-.65 6.42-.7v-1.75c0-1.73-.37-3.03-1.12-3.91-.75-.9-1.84-1.34-3.28-1.34-.97 0-1.78.12-2.44.37-.64.23-1.2.5-1.7.81l-1.23.82c-.33.23-.67.35-1 .35-.27 0-.5-.07-.69-.2a2.1 2.1 0 0 1-.48-.53l-.7-1.25zm27.67 19.5c-1.76 0-3.12-.5-4.07-1.48-.94-.98-1.41-2.4-1.41-4.25V74h-2.68a.9.9 0 0 1-.6-.2c-.16-.14-.24-.36-.24-.66v-1.56l3.65-.46.9-6.89a.9.9 0 0 1 .29-.52.88.88 0 0 1 .62-.22H142v7.67h6.44V74H142v13.38c0 .94.22 1.63.68 2.09.45.45 1.04.68 1.76.68a3.21 3.21 0 0 0 1.85-.53l.55-.35c.16-.12.3-.18.41-.18.2 0 .4.13.55.38l1.15 1.87a7.45 7.45 0 0 1-2.44 1.5 8.53 8.53 0 0 1-2.95.52zm19.68-10.4c-1.8.07-3.34.21-4.62.45-1.26.22-2.3.51-3.1.88-.8.36-1.37.8-1.74 1.3-.35.5-.53 1.05-.53 1.67 0 .58.1 1.1.3 1.52a2.9 2.9 0 0 0 .76 1.05c.34.27.73.46 1.17.6a6.13 6.13 0 0 0 1.45.17 7.3 7.3 0 0 0 3.5-.81 12.04 12.04 0 0 0 2.82-2.2v-4.62zm-12.65-9.1a12.72 12.72 0 0 1 3.99-2.66c1.42-.59 3-.88 4.72-.88 1.25 0 2.36.2 3.33.61a6.81 6.81 0 0 1 3.94 4.38c.33 1.04.5 2.19.5 3.43V93h-1.74a1.8 1.8 0 0 1-.88-.18c-.2-.13-.36-.38-.48-.74l-.44-2.12-1.72 1.46a9.48 9.48 0 0 1-3.74 1.7c-.69.15-1.46.23-2.3.23-.87 0-1.69-.12-2.45-.35a5.33 5.33 0 0 1-3.34-2.93 6.62 6.62 0 0 1-.49-2.64c0-.88.25-1.72.73-2.53a6.33 6.33 0 0 1 2.35-2.17c1.09-.63 2.5-1.15 4.25-1.54a31.2 31.2 0 0 1 6.42-.7v-1.75c0-1.73-.37-3.03-1.12-3.91-.75-.9-1.84-1.34-3.28-1.34-.97 0-1.78.12-2.44.37-.64.23-1.2.5-1.7.81l-1.22.82c-.34.23-.68.35-1.02.35-.26 0-.49-.07-.68-.2a1.88 1.88 0 0 1-.48-.53l-.7-1.25z" fill="#fff"/><path fill="#D42B21" d="M0 106.79h210V120H0z"/></g><defs><clipPath id="a"><path fill="#fff" d="M0 0h210v120H0z"/></clipPath></defs></svg></g><a href="https://ourworldindata.org/grapher/terrorist-attacks-by-region" style="font-family:&quot;Playfair Display&quot;,Georgia,&quot;Times New Roman&quot;,serif" target="_blank" rel="noopener"><text font-size="25.2" x="15" y="35.2" fill="#555"><tspan x="15" y="35.16">Terrorist attacks by region, 1970 to 2017</tspan></text></a><text font-size="14.4" x="15" y="55.7" fill="#666"><tspan x="15" y="55.72">The total number of terrorism-related incidents per year. The source defines a terrorist attack as: &quot;the threatened or</tspan><tspan x="15" y="73">actual use of illegal force and violence by a non-state actor to attain a political, economic, religious, or social goal</tspan><tspan x="15" y="90.28">through fear, coercion, or intimidation.&quot; The perpetrators of the incidents must be sub-national actors; data does not</tspan><tspan x="15" y="107.56">include acts of state terrorism.</tspan></text></g><g class="StackedArea"><defs><clipPath id="b"><path d="M61.63 123.4h820v848h-820z"/></clipPath></defs><g class="DualAxisView"><g class="HorizontalAxis"><path stroke="#999" d="M61.6 526.2v5M702.1 526.2v5M197.9 526.2v5M334.2 526.2v5M470.5 526.2v5M606.7 526.2v5"/><text x="61.63" y="547.4" fill="#666" text-anchor="start" font-size="16.2">1970</text><text x="702.13" y="547.4" fill="#666" text-anchor="end" font-size="16.2">2017</text><text x="197.9" y="547.4" fill="#666" text-anchor="middle" font-size="16.2">1980</text><text x="334.2" y="547.4" fill="#666" text-anchor="middle" font-size="16.2">1990</text><text x="470.5" y="547.4" fill="#666" text-anchor="middle" font-size="16.2">2000</text><text x="606.7" y="547.4" fill="#666" text-anchor="middle" font-size="16.2">2010</text></g><g class="VerticalAxis" text-anchor="end" fill="#666" font-size="16.2"><text x="56.63" y="526.2" dy=".32em">0%</text><text x="56.63" y="445.6" dy=".32em">20%</text><text x="56.63" y="365.1" dy=".32em">40%</text><text x="56.63" y="284.5" dy=".32em">60%</text><text x="56.63" y="204" dy=".32em">80%</text><text x="56.63" y="123.4" dy=".32em">100%</text></g><g class="AxisGridLines horizontalLines"><path stroke="#999" d="M61.63 526.2h640.5"/><path stroke="#ddd" stroke-dasharray="3,2" d="M61.63 445.6h640.5M61.63 365.1h640.5M61.63 284.5h640.5M61.63 204h640.5M61.63 123.4h640.5"/></g></g><g clip-path="url(#b)"><g class="LineLabels" style="cursor:default"><g class="legendMark"><g class="indicator"><path d="M706.13 123.6h24.54v13.85h2.46" stroke="#999" stroke-width=".5" fill="none"/></g><text font-size="13.5" font-weight="400" x="737.1" y="134.2" fill="#34983f"><tspan x="737.13" y="134.2">Australasia &amp;</tspan><tspan x="737.13" y="149.05">Oceania</tspan></text></g><g class="legendMark"><g class="indicator"><path d="M706.13 125.9h22.09v34.35h4.9" stroke="#999" stroke-width=".5" fill="none"/></g><text font-size="13.5" font-weight="400" x="737.1" y="164.3" fill="#63a75f"><tspan x="737.13" y="164.3">Eastern Europe</tspan></text></g><g class="legendMark"><g class="indicator"><path d="M706.13 133.3h19.63v42.45h7.37" stroke="#999" stroke-width=".5" fill="none"/></g><text font-size="13.5" font-weight="400" x="737.1" y="179.8" fill="#86ad75"><tspan x="737.13" y="179.8">Western Europe</tspan></text></g><g class="legendMark"><g class="indicator"><path d="M706.13 138.8h17.18v52.45h9.82" stroke="#999" stroke-width=".5" fill="none"/></g><text font-size="13.5" font-weight="400" x="737.1" y="195.3" fill="#a9ab52"><tspan x="737.13" y="195.3">Central Asia</tspan></text></g><g class="legendMark"><g class="indicator"><path d="M706.13 140.7h14.72v66.05h12.27" stroke="#999" stroke-width=".5" fill="none"/></g><text font-size="13.5" font-weight="400" x="737.1" y="210.8" fill="#c9a831"><tspan x="737.13" y="210.8">North America</tspan></text></g><g class="legendMark"><g class="indicator"><path d="M706.13 142.6h12.27v86.95h14.73" stroke="#999" stroke-width=".5" fill="none"/></g><text font-size="13.5" font-weight="400" x="737.1" y="226.3" fill="#d67630"><tspan x="737.13" y="226.3">Central America</tspan><tspan x="737.13" y="241.15">&amp; Caribbean</tspan></text></g><g class="legendMark"><g class="indicator"><path d="M706.13 145.8h9.81v106.55h17.18" stroke="#999" stroke-width=".5" fill="none"/></g><text font-size="13.5" font-weight="400" x="737.1" y="256.4" fill="#ca2628"><tspan x="737.13" y="256.4">South America</tspan></text></g><g class="legendMark"><g class="indicator"><path d="M706.13 149.1h7.36v118.75h19.63" stroke="#999" stroke-width=".5" fill="none"/></g><text font-size="13.5" font-weight="400" x="737.1" y="271.9" fill="#d82d2b"><tspan x="737.13" y="271.9">East Asia</tspan></text></g><g class="legendMark"><g class="indicator"><path d="M706.13 168.1h4.9v115.25h22.1" stroke="#999" stroke-width=".5" fill="none"/></g><text font-size="13.5" font-weight="400" x="737.1" y="287.4" fill="#e6332e"><tspan x="737.13" y="287.4">Southeast Asia</tspan></text></g><g class="legendMark"><g class="indicator"><path d="M706.13 250.3h2.45v48.55h24.54" stroke="#999" stroke-width=".5" fill="none"/></g><text font-size="13.5" font-weight="400" x="737.1" y="302.9" fill="#886365"><tspan x="737.13" y="302.9">South Asia</tspan></text></g><g class="legendMark"><g class="indicator"><path d="M706.13 350.1h27" stroke="#999" stroke-width=".5" fill="none"/></g><text font-size="13.5" font-weight="400" x="737.1" y="346.9" fill="#2a939b"><tspan x="737.13" y="346.85">Sub-Saharan</tspan><tspan x="737.13" y="361.7">Africa</tspan></text></g><g class="legendMark"><g class="indicator"><path d="M706.13 456.4h27" stroke="#999" stroke-width=".5" fill="none"/></g><text font-size="13.5" font-weight="400" x="737.1" y="453.1" fill="#3360a9"><tspan x="737.13" y="453.15">Middle East &amp;</tspan><tspan x="737.13" y="468">North Africa</tspan></text></g></g><g class="Areas"><path class="Middle-East-__0026-North-Africa-area" d="m61.6 508.9 13.7-29.7 13.6 9.4 13.6 21.4 13.6-12.9 13.7 5.1h13.6l13.6-40.4 13.7 30.6 13.6-35 13.6 2.7 13.6 17.5 13.7 2.7 13.6-1 13.6 16 13.6 12.5 13.7-9.2 13.6 2 13.6-1 13.7-16.7 13.6-7.9 13.6-1.4 13.6-42.1 27.3-27.8 13.6 45.4 13.6 28 13.7-19.9 13.6-37.5 13.6 15.3 13.7 30.8 13.6-16.1 13.6-22 13.6.8 13.7-72.3 13.6-6.1 13.6 2.7 13.7 1.3 13.6 43.3 13.6 12.7 13.6-6 13.7-9.9 13.6 18.1 13.6-38.7 13.6-12.8 13.7 2.9 13.6-18.8 13.6 41.6.02 139.7H61.63" fill="#3360a9" fill-opacity=".7"/><path class="Sub__002dSaharan-Africa-area" d="m61.6 507 13.7-29.5 13.6 8.3 13.6 20.8 13.6-14.4 13.7 3.5 13.6 1.7 13.6-44.5 13.7 27.4 13.6-41.7 13.6 12.7 13.6 11 13.7 8.5 13.6-6.4 13.6 16.4 13.6 7.5 13.7-15.8 13.6 6.1 13.6-15.5 13.7-7.3 13.6-27.4 13.6 21.9 13.6-64.1 27.3-32.8 13.6 64.4 13.6 30.7 13.7-26.5 13.6-39.8 13.6 11.5 13.7 29.7 13.6-7.9 13.6-24.4 13.6 14.4 13.7-61 13.6-6.4 13.6-1.9 13.7-19.6 13.6 49 13.6 20.3 13.6-9.4 13.7-21.5 13.6 2.1 13.6-16.9 13.6-34.7 13.7 5.4 13.6-27.6 13.6 30.4v72.8l-13.6-41.6-13.6 18.8-13.7-2.9-13.6 12.8-13.6 38.7-13.6-18.1-13.7 9.9-13.6 6-13.6-12.7-13.6-43.3-13.7-1.3-13.6-2.7-13.6 6.1-13.7 72.3-13.6-.8-13.6 22-13.6 16.1-13.7-30.8-13.6-15.3-13.6 37.5-13.7 19.9-13.6-28-13.6-45.4-27.3 27.8-13.6 42.1-13.6 1.4-13.6 7.9-13.7 16.7-13.6 1-13.6-2-13.7 9.2-13.6-12.5-13.6-16-13.6 1-13.7-2.7-13.6-17.5-13.6-2.7-13.6 35-13.7-30.6-13.6 40.4h-13.6l-13.7-5.1-13.6 12.9-13.6-21.4-13.6-9.4-13.7 29.7" fill="#2a939b" fill-opacity=".7"/><path class="South-Asia-area" d="m61.6 506.4 13.7-28.9 13.6 7.6 13.6 20.7 13.6-15 13.7 2.7 13.6 2.2 13.6-43.4 13.7 27.4 13.6-46.3 13.6 16.1 13.6 9.3 13.7 8.8 13.6-12 13.6-2.9 13.6 13.4 13.7-32 13.6.5 13.6-58.2 13.7-6.9 13.6-3.4 13.6 25.9 13.6-49 27.3-33.5 13.6-29.1 13.6 70.7 13.7 9.2 13.6-36.8 13.6 5.2 13.7 15.4 13.6-10 13.6-43.9 13.6 4L525 217l13.6.5 13.6-18.3 13.7-4.6 13.6 23.5 13.6 1.9 13.6-8.9 13.7-25.7 13.6-8 13.6 8.4 13.6.6 13.7 1.1 13.6-12 13.6 11.5v126.7l-13.6-30.4-13.6 27.6-13.7-5.4-13.6 34.7-13.6 16.9-13.6-2.1-13.7 21.5-13.6 9.4-13.6-20.3-13.6-49-13.7 19.6-13.6 1.9-13.6 6.4-13.7 61-13.6-14.4-13.6 24.4-13.6 7.9-13.7-29.7-13.6-11.5-13.6 39.8-13.7 26.5-13.6-30.7-13.6-64.4-27.3 32.8-13.6 64.1-13.6-21.9-13.6 27.4-13.7 7.3-13.6 15.5-13.6-6.1-13.7 15.8-13.6-7.5-13.6-16.4-13.6 6.4-13.7-8.5-13.6-11-13.6-12.7-13.6 41.7-13.7-27.4-13.6 44.5-13.6-1.7-13.7-3.5-13.6 14.4-13.6-20.8-13.6-8.3L61.6 507" fill="#886365" fill-opacity=".7"/><path class="Southeast-Asia-area" d="m61.6 500.2 13.7-27.9 13.6 1.4 13.6 30.4 13.6-15.3 13.7.9 13.6.7 13.6-40.5 13.7 18.2 13.6-47.7 13.6 15.9 13.6 14.7 13.7 9.8 13.6-8.3 13.6-5.1 13.6 1 13.7-28.7 13.6-5.7 13.6-63.8 13.7.4 13.6-20.6 13.6 44.3 13.6-53.5 27.3-28.9 13.6-33.4 13.6 67.2 13.7 14.5 13.6-30.5 13.6-11.9 13.7-10.5 13.6 7.7 13.6-38 13.6-8.5 13.7-64.3 13.6-7.5 13.6-17.2 13.7-10.3 13.6 25.8 13.6-2.9 13.6-.5 13.7-14.5 13.6-7.5 13.6-3.5 13.6 14.5 13.7-2 13.6-15.1 13.6 5.8V187l-13.6-11.5-13.6 12-13.7-1.1-13.6-.6-13.6-8.4-13.6 8-13.7 25.7-13.6 8.9-13.6-1.9-13.6-23.5-13.7 4.6-13.6 18.3-13.6-.5-13.7 77.2-13.6-4-13.6 43.9-13.6 10-13.7-15.4-13.6-5.2-13.6 36.8-13.7-9.2-13.6-70.7-13.6 29.1-27.3 33.5-13.6 49-13.6-25.9-13.6 3.4-13.7 6.9-13.6 58.2-13.6-.5-13.7 32-13.6-13.4-13.6 2.9-13.6 12-13.7-8.8-13.6-9.3-13.6-16.1-13.6 46.3-13.7-27.4-13.6 43.4-13.6-2.2-13.7-2.7-13.6 15-13.6-20.7-13.6-7.6-13.7 28.9" fill="#e6332e" fill-opacity=".7"/><path class="East-Asia-area" d="m61.6 499 13.7-27.5 13.6 2.2 13.6 28.7 13.6-16.4 13.7-2.8 13.6 6.3 13.6-40.9 13.7 10.3 13.6-40.9 13.6 18.2 13.6 14.1 13.7 10 13.6-9.6 13.6-5.1L266 447l13.7-29 13.6-5.3 13.6-65.1 13.7 1.3 13.6-29.1 13.6 52 13.6-56.9 27.3-26.9 13.6-34.5 13.6 60.5 13.7 21.2 13.6-29.4 13.6-9.2 13.7-13.5 13.6 7.9 13.6-35.2 13.6-9.2 13.7-63.8 13.6-6.5 13.6-17 13.7-10.1 13.6 23.7 13.6-1.5 13.6.2 13.7-14.8 13.6-7.4 13.6-3.8 13.6 14 13.7-1.7 13.6-14.6 13.6 5.7v.3l-13.6-5.8-13.6 15.1-13.7 2-13.6-14.5-13.6 3.5-13.6 7.5-13.7 14.5-13.6.5-13.6 2.9-13.6-25.8-13.7 10.3-13.6 17.2-13.6 7.5-13.7 64.3-13.6 8.5-13.6 38-13.6-7.7-13.7 10.5-13.6 11.9-13.6 30.5-13.7-14.5-13.6-67.2-13.6 33.4-27.3 28.9-13.6 53.5-13.6-44.3-13.6 20.6-13.7-.4-13.6 63.8-13.6 5.7-13.7 28.7-13.6-1-13.6 5.1-13.6 8.3-13.7-9.8-13.6-14.7-13.6-15.9-13.6 47.7-13.7-18.2-13.6 40.5-13.6-.7-13.7-.9-13.6 15.3-13.6-30.4-13.6-1.4-13.7 27.9" fill="#D82D2B" fill-opacity=".7"/><path class="South-America-area" d="m61.6 458.8 13.7-7.9 13.6-.6 13.6-18.6 13.6-1.9 13.7 23.5 13.6-3.5 13.6-37.5 13.7-12 13.6-18 13.6 5.6 13.6 2.8 13.7-31.5 13.6-41.8 13.6-43.7 13.6 29.6 13.7-52 13.6 1.3 13.6-17.7 13.7-15 13.6-11.6 13.6 49.8 13.6-38.8 27.3 25.2 13.6-24.4 13.6 25.8 13.7-8.2 13.6 21.5 13.6-1.2 13.7-8.3 13.6-7.1 13.6-35.8 13.6 3 13.7-41.5 13.6-1.8 13.6-14.5 13.7-8.6 13.6 17.5 13.6-3 13.6 1.3 13.7-10.8 13.6-5.2 13.6-3.7 13.6 13.4 13.7.2 13.6-14.5 13.6 4.1v6.3l-13.6-5.7-13.6 14.6-13.7 1.7-13.6-14-13.6 3.8-13.6 7.4-13.7 14.8-13.6-.2-13.6 1.5-13.6-23.7-13.7 10.1-13.6 17-13.6 6.5-13.7 63.8-13.6 9.2-13.6 35.2-13.6-7.9-13.7 13.5-13.6 9.2-13.6 29.4-13.7-21.2-13.6-60.5-13.6 34.5-27.3 26.9-13.6 56.9-13.6-52-13.6 29.1-13.7-1.3-13.6 65.1-13.6 5.3-13.7 29-13.6-1.4-13.6 5.1-13.6 9.6-13.7-10-13.6-14.1-13.6-18.2-13.6 40.9-13.7-10.3-13.6 40.9-13.6-6.3-13.7 2.8-13.6 16.4-13.6-28.7-13.6-2.2L61.6 499" fill="#ca2628" fill-opacity=".7"/><path class="Central-America-__0026-Caribbean-area" d="m61.6 454.4 13.7-7.7 13.6 1.5 13.6-21.6 13.6-4.4 13.7 26.2 13.6-18.2L157 405l13.7-57.2 13.6-57.7 13.6-64.1 13.6-14.1 13.7-10.4 13.6-4.6 13.6-1.7 13.6.3 13.7.4 13.6-14.9 13.6.3 13.7-8.2 13.6 2.4 13.6 19.9 13.6 7 27.3 21.1 13.6-25.3 13.6 32.4 13.7-7.7 13.6 35.9 13.6-3.2 13.7-9 13.6-5.7 13.6-35 13.6 1.3 13.7-40.6 13.6-.7 13.6-14.6 13.7-8.4 13.6 18 13.6-3.8 13.6 2 13.7-10.8 13.6-5.2 13.6-4.1 13.6 13.8 13.7.3 13.6-14.6 13.6 4v.2l-13.6-4.1-13.6 14.5-13.7-.2-13.6-13.4-13.6 3.7-13.6 5.2-13.7 10.8-13.6-1.3-13.6 3-13.6-17.5-13.7 8.6-13.6 14.5-13.6 1.8-13.7 41.5-13.6-3-13.6 35.8-13.6 7.1-13.7 8.3-13.6 1.2-13.6-21.5-13.7 8.2-13.6-25.8-13.6 24.4-27.3-25.2-13.6 38.8-13.6-49.8-13.6 11.6-13.7 15-13.6 17.7-13.6-1.3-13.7 52-13.6-29.6-13.6 43.7-13.6 41.8-13.7 31.5-13.6-2.8-13.6-5.6-13.6 18-13.7 12-13.6 37.5-13.6 3.5-13.7-23.5-13.6 1.9-13.6 18.6-13.6.6-13.7 7.9" fill="#E57E33" fill-opacity=".7"/><path class="North-America-area" d="m61.6 162.4 13.7 73 13.6 161 13.6-24.3 13.6-26.8 13.7 16.5 13.6 13.8 13.6-16.1 13.7-42.6 13.6-38.7 13.6-63.6 13.6-14.7 13.7-12.1 13.6 2.5 13.6-2.8 13.6 2 13.7-1 13.6-12 13.6 1.6 13.7-9.1 13.6 2.7 13.6 20.3 13.6 7.2 27.3 12.5 13.6-25.8 13.6 30.1 13.7-10.3 13.6 37.2 13.6-3.4 13.7-2 13.6-6.7 13.6-34.9 13.6.6 13.7-34.1 13.6-.9 13.6-12.4 13.7-8.4 13.6 17.6 13.6-2.6 13.6 1.4 13.7-9.7 13.6-6.1 13.6-3.4 13.6 14 13.7-.5 13.6-15.1 13.6 2.6v3.6l-13.6-4-13.6 14.6-13.7-.3-13.6-13.8-13.6 4.1-13.6 5.2-13.7 10.8-13.6-2-13.6 3.8-13.6-18-13.7 8.4-13.6 14.6-13.6.7-13.7 40.6-13.6-1.3-13.6 35-13.6 5.7-13.7 9-13.6 3.2-13.6-35.9-13.7 7.7-13.6-32.4-13.6 25.3-27.3-21.1-13.6-7-13.6-19.9-13.6-2.4-13.7 8.2-13.6-.3-13.6 14.9-13.7-.4-13.6-.3-13.6 1.7-13.6 4.6-13.7 10.4-13.6 14.1-13.6 64.1-13.6 57.7L157 405l-13.6 25.2-13.6 18.2-13.7-26.2-13.6 4.4-13.6 21.6-13.6-1.5-13.7 7.7" fill="#ffd53e" fill-opacity=".7"/><path class="Central-Asia-area" d="m61.6 162.4 13.7 73 13.6 161 13.6-24.3 13.6-26.8 13.7 16.5 13.6 13.8 13.6-16.1 13.7-42.6 13.6-38.7 13.6-63.6 13.6-14.7 13.7-12.1 13.6 2.5 13.6-2.8 13.6 2 13.7-1 13.6-12 13.6 1.6 13.7-9.1 13.6 2.7 13.6 19.7 13.6 1.7 27.3 11.1 13.6-25.5 13.6 33 13.7-12.2 13.6 32.6 13.6.4 13.7.4 13.6-5.9 13.6-32.9 13.6.2 13.7-34.6 13.6-.4 13.6-11.1 13.7-8 13.6 15.1 13.6-2.2 13.6 3.3 13.7-9.7 13.6-6 13.6-3 13.6 14 13.7-.5 13.6-15.4 13.6 2.9v.2l-13.6-2.6-13.6 15.1-13.7.5-13.6-14-13.6 3.4-13.6 6.1-13.7 9.7-13.6-1.4-13.6 2.6-13.6-17.6-13.7 8.4-13.6 12.4-13.6.9-13.7 34.1-13.6-.6-13.6 34.9-13.6 6.7-13.7 2-13.6 3.4-13.6-37.2-13.7 10.3-13.6-30.1-13.6 25.8-27.3-12.5-13.6-7.2-13.6-20.3-13.6-2.7-13.7 9.1-13.6-1.6-13.6 12-13.7 1-13.6-2-13.6 2.8-13.6-2.5-13.7 12.1-13.6 14.7-13.6 63.6-13.6 38.7-13.7 42.6-13.6 16.1-13.6-13.8-13.7-16.5-13.6 26.8-13.6 24.3-13.6-161-13.7-73" fill="#CFD164" fill-opacity=".7"/><path class="Western-Europe-area" d="m61.6 131.4 13.7-2.9 13.6 1.3 13.6-4.7 13.6.4 13.7-2.1h13.6l13.6.6 13.7.5 13.6-.6 13.6.7 13.6-.1 13.7-.3 13.6-.5 13.6 1.4H266l13.7-.7 13.6-.5 13.6 1.2 13.7 2.5 13.6 3.7 13.6.2 13.6.5 27.3 4.1 13.6-1.5 13.6 14.4 13.7 6.5 13.6 15.8 13.6-6.9 13.7 12.3 13.6.8 13.6-19.7 13.6-1.6 13.7-16.9 13.6-.7 13.6-4.7 13.7-2.7 13.6 10.4 13.6-4 13.6 7.7 13.7-6.2 13.6-7.5 13.6-2.6 13.6 17.5 13.7-4.3 13.6-14.5 13.6.2v10.8l-13.6-2.9-13.6 15.4-13.7.5-13.6-14-13.6 3-13.6 6-13.7 9.7-13.6-3.3-13.6 2.2-13.6-15.1-13.7 8-13.6 11.1-13.6.4-13.7 34.6-13.6-.2-13.6 32.9-13.6 5.9-13.7-.4-13.6-.4-13.6-32.6-13.7 12.2-13.6-33-13.6 25.5-27.3-11.1-13.6-1.7-13.6-19.7-13.6-2.7-13.7 9.1-13.6-1.6-13.6 12-13.7 1-13.6-2-13.6 2.8-13.6-2.5-13.7 12.1-13.6 14.7-13.6 63.6-13.6 38.7-13.7 42.6-13.6 16.1-13.6-13.8-13.7-16.5-13.6 26.8-13.6 24.3-13.6-161-13.7-73" fill="#9ecc8a" fill-opacity=".7"/><path class="Eastern-Europe-area" d="m61.6 124 13.7.3 13.6 4.8 13.6-4.8 13.6-.2 13.7-.7H157l13.7.5 13.6-.2 13.6.8 13.6-.6 13.7-.2 13.6-.3 13.6 1.3 13.6-.3 13.7-.4 13.6-.2 13.6.9 13.7 1.4 13.6-.8 13.6-1 13.6.5 27.3.2 13.6.8 13.6.1 13.7-1.6 13.6 1.7 13.6-1.4 13.7.1 13.6-.5 13.6-.2 13.6.7 13.7-1.3h13.6l13.6.3 13.7-.2 13.6.6 13.6-.6h13.6l13.7-.1h27.2l13.6.2 13.7.2 13.6-.1 13.6.1v4.1l-13.6-.2-13.6 14.5-13.7 4.3-13.6-17.5-13.6 2.6-13.6 7.5-13.7 6.2-13.6-7.7-13.6 4-13.6-10.4-13.7 2.7-13.6 4.7-13.6.7-13.7 16.9-13.6 1.6-13.6 19.7-13.6-.8-13.7-12.3-13.6 6.9-13.6-15.8-13.7-6.5-13.6-14.4-13.6 1.5-27.3-4.1-13.6-.5-13.6-.2-13.6-3.7-13.7-2.5-13.6-1.2-13.6.5-13.7.7h-13.6l-13.6-1.4-13.6.5-13.7.3-13.6.1-13.6-.7-13.6.6-13.7-.5-13.6-.6h-13.6l-13.7 2.1-13.6-.4-13.6 4.7-13.6-1.3-13.7 2.9" fill="#69B265" fill-opacity=".7"/><path class="Australasia-__0026-Oceania-area" d="M61.6 123.4H702.1v.4l-13.6-.1-13.6.1-13.7-.2-13.6-.2h-27.2l-13.7.1h-13.6l-13.6.6-13.6-.6-13.7.2-13.6-.3H525l-13.7 1.3-13.6-.7-13.6.2-13.6.5-13.7-.1-13.6 1.4-13.6-1.7-13.7 1.6-13.6-.1-13.6-.8-27.3-.2-13.6-.5-13.6 1-13.6.8-13.7-1.4-13.6-.9-13.6.2-13.7.4-13.6.3-13.6-1.3-13.6.3-13.7.2-13.6.6-13.6-.8-13.6.2-13.7-.5h-27.2l-13.7.7-13.6.2-13.6 4.8-13.6-4.8-13.7-.3" fill="#34983f" fill-opacity=".7"/><path class="Middle-East-__0026-North-Africa-border" stroke-linecap="round" d="m61.6 508.9 13.7-29.7 13.6 9.4 13.6 21.4 13.6-12.9 13.7 5.1h13.6l13.6-40.4 13.7 30.6 13.6-35 13.6 2.7 13.6 17.5 13.7 2.7 13.6-1 13.6 16 13.6 12.5 13.7-9.2 13.6 2 13.6-1 13.7-16.7 13.6-7.9 13.6-1.4 13.6-42.1 27.3-27.8 13.6 45.4 13.6 28 13.7-19.9 13.6-37.5 13.6 15.3 13.7 30.8 13.6-16.1 13.6-22 13.6.8 13.7-72.3 13.6-6.1 13.6 2.7 13.7 1.3 13.6 43.3 13.6 12.7 13.6-6 13.7-9.9 13.6 18.1 13.6-38.7 13.6-12.8 13.7 2.9 13.6-18.8 13.6 41.6" stroke="#2B508D" stroke-opacity=".7" stroke-width=".5" fill="none"/><path class="Sub__002dSaharan-Africa-border" stroke-linecap="round" d="m61.6 507 13.7-29.5 13.6 8.3 13.6 20.8 13.6-14.4 13.7 3.5 13.6 1.7 13.6-44.5 13.7 27.4 13.6-41.7 13.6 12.7 13.6 11 13.7 8.5 13.6-6.4 13.6 16.4 13.6 7.5 13.7-15.8 13.6 6.1 13.6-15.5 13.7-7.3 13.6-27.4 13.6 21.9 13.6-64.1 27.3-32.8 13.6 64.4 13.6 30.7 13.7-26.5 13.6-39.8 13.6 11.5 13.7 29.7 13.6-7.9 13.6-24.4 13.6 14.4 13.7-61 13.6-6.4 13.6-1.9 13.7-19.6 13.6 49 13.6 20.3 13.6-9.4 13.7-21.5 13.6 2.1 13.6-16.9 13.6-34.7 13.7 5.4 13.6-27.6 13.6 30.4" stroke="#237B82" stroke-opacity=".7" stroke-width=".5" fill="none"/><path class="South-Asia-border" stroke-linecap="round" d="m61.6 506.4 13.7-28.9 13.6 7.6 13.6 20.7 13.6-15 13.7 2.7 13.6 2.2 13.6-43.4 13.7 27.4 13.6-46.3 13.6 16.1 13.6 9.3 13.7 8.8 13.6-12 13.6-2.9 13.6 13.4 13.7-32 13.6.5 13.6-58.2 13.7-6.9 13.6-3.4 13.6 25.9 13.6-49 27.3-33.5 13.6-29.1 13.6 70.7 13.7 9.2 13.6-36.8 13.6 5.2 13.7 15.4 13.6-10 13.6-43.9 13.6 4L525 217l13.6.5 13.6-18.3 13.7-4.6 13.6 23.5 13.6 1.9 13.6-8.9 13.7-25.7 13.6-8 13.6 8.4 13.6.6 13.7 1.1 13.6-12 13.6 11.5" stroke="#725355" stroke-opacity=".7" stroke-width=".5" fill="none"/><path class="Southeast-Asia-border" stroke-linecap="round" d="m61.6 500.2 13.7-27.9 13.6 1.4 13.6 30.4 13.6-15.3 13.7.9 13.6.7 13.6-40.5 13.7 18.2 13.6-47.7 13.6 15.9 13.6 14.7 13.7 9.8 13.6-8.3 13.6-5.1 13.6 1 13.7-28.7 13.6-5.7 13.6-63.8 13.7.4 13.6-20.6 13.6 44.3 13.6-53.5 27.3-28.9 13.6-33.4 13.6 67.2 13.7 14.5 13.6-30.5 13.6-11.9 13.7-10.5 13.6 7.7 13.6-38 13.6-8.5 13.7-64.3 13.6-7.5 13.6-17.2 13.7-10.3 13.6 25.8 13.6-2.9 13.6-.5 13.7-14.5 13.6-7.5 13.6-3.5 13.6 14.5 13.7-2 13.6-15.1 13.6 5.8" stroke="#C02B26" stroke-opacity=".7" stroke-width=".5" fill="none"/><path class="East-Asia-border" stroke-linecap="round" d="m61.6 499 13.7-27.5 13.6 2.2 13.6 28.7 13.6-16.4 13.7-2.8 13.6 6.3 13.6-40.9 13.7 10.3 13.6-40.9 13.6 18.2 13.6 14.1 13.7 10 13.6-9.6 13.6-5.1L266 447l13.7-29 13.6-5.3 13.6-65.1 13.7 1.3 13.6-29.1 13.6 52 13.6-56.9 27.3-26.9 13.6-34.5 13.6 60.5 13.7 21.2 13.6-29.4 13.6-9.2 13.7-13.5 13.6 7.9 13.6-35.2 13.6-9.2 13.7-63.8 13.6-6.5 13.6-17 13.7-10.1 13.6 23.7 13.6-1.5 13.6.2 13.7-14.8 13.6-7.4 13.6-3.8 13.6 14 13.7-1.7 13.6-14.6 13.6 5.7" stroke="#B52624" stroke-opacity=".7" stroke-width=".5" fill="none"/><path class="South-America-border" stroke-linecap="round" d="m61.6 458.8 13.7-7.9 13.6-.6 13.6-18.6 13.6-1.9 13.7 23.5 13.6-3.5 13.6-37.5 13.7-12 13.6-18 13.6 5.6 13.6 2.8 13.7-31.5 13.6-41.8 13.6-43.7 13.6 29.6 13.7-52 13.6 1.3 13.6-17.7 13.7-15 13.6-11.6 13.6 49.8 13.6-38.8 27.3 25.2 13.6-24.4 13.6 25.8 13.7-8.2 13.6 21.5 13.6-1.2 13.7-8.3 13.6-7.1 13.6-35.8 13.6 3 13.7-41.5 13.6-1.8 13.6-14.5 13.7-8.6 13.6 17.5 13.6-3 13.6 1.3 13.7-10.8 13.6-5.2 13.6-3.7 13.6 13.4 13.7.2 13.6-14.5 13.6 4.1" stroke="#A92021" stroke-opacity=".7" stroke-width=".5" fill="none"/><path class="Central-America-__0026-Caribbean-border" stroke-linecap="round" d="m61.6 454.4 13.7-7.7 13.6 1.5 13.6-21.6 13.6-4.4 13.7 26.2 13.6-18.2L157 405l13.7-57.2 13.6-57.7 13.6-64.1 13.6-14.1 13.7-10.4 13.6-4.6 13.6-1.7 13.6.3 13.7.4 13.6-14.9 13.6.3 13.7-8.2 13.6 2.4 13.6 19.9 13.6 7 27.3 21.1 13.6-25.3 13.6 32.4 13.7-7.7 13.6 35.9 13.6-3.2 13.7-9 13.6-5.7 13.6-35 13.6 1.3 13.7-40.6 13.6-.7 13.6-14.6 13.7-8.4 13.6 18 13.6-3.8 13.6 2 13.7-10.8 13.6-5.2 13.6-4.1 13.6 13.8 13.7.3 13.6-14.6 13.6 4" stroke="#C0692B" stroke-opacity=".7" stroke-width=".5" fill="none"/><path class="North-America-border" stroke-linecap="round" d="m61.6 162.4 13.7 73 13.6 161 13.6-24.3 13.6-26.8 13.7 16.5 13.6 13.8 13.6-16.1 13.7-42.6 13.6-38.7 13.6-63.6 13.6-14.7 13.7-12.1 13.6 2.5 13.6-2.8 13.6 2 13.7-1 13.6-12 13.6 1.6 13.7-9.1 13.6 2.7 13.6 20.3 13.6 7.2 27.3 12.5 13.6-25.8 13.6 30.1 13.7-10.3 13.6 37.2 13.6-3.4 13.7-2 13.6-6.7 13.6-34.9 13.6.6 13.7-34.1 13.6-.9 13.6-12.4 13.7-8.4 13.6 17.6 13.6-2.6 13.6 1.4 13.7-9.7 13.6-6.1 13.6-3.4 13.6 14 13.7-.5 13.6-15.1 13.6 2.6" stroke="#D5B234" stroke-opacity=".7" stroke-width=".5" fill="none"/><path class="Central-Asia-border" stroke-linecap="round" d="m61.6 162.4 13.7 73 13.6 161 13.6-24.3 13.6-26.8 13.7 16.5 13.6 13.8 13.6-16.1 13.7-42.6 13.6-38.7 13.6-63.6 13.6-14.7 13.7-12.1 13.6 2.5 13.6-2.8 13.6 2 13.7-1 13.6-12 13.6 1.6 13.7-9.1 13.6 2.7 13.6 19.7 13.6 1.7 27.3 11.1 13.6-25.5 13.6 33 13.7-12.2 13.6 32.6 13.6.4 13.7.4 13.6-5.9 13.6-32.9 13.6.2 13.7-34.6 13.6-.4 13.6-11.1 13.7-8 13.6 15.1 13.6-2.2 13.6 3.3 13.7-9.7 13.6-6 13.6-3 13.6 14 13.7-.5 13.6-15.4 13.6 2.9" stroke="#ADAF54" stroke-opacity=".7" stroke-width=".5" fill="none"/><path class="Western-Europe-border" stroke-linecap="round" d="m61.6 131.4 13.7-2.9 13.6 1.3 13.6-4.7 13.6.4 13.7-2.1h13.6l13.6.6 13.7.5 13.6-.6 13.6.7 13.6-.1 13.7-.3 13.6-.5 13.6 1.4H266l13.7-.7 13.6-.5 13.6 1.2 13.7 2.5 13.6 3.7 13.6.2 13.6.5 27.3 4.1 13.6-1.5 13.6 14.4 13.7 6.5 13.6 15.8 13.6-6.9 13.7 12.3 13.6.8 13.6-19.7 13.6-1.6 13.7-16.9 13.6-.7 13.6-4.7 13.7-2.7 13.6 10.4 13.6-4 13.6 7.7 13.7-6.2 13.6-7.5 13.6-2.6 13.6 17.5 13.7-4.3 13.6-14.5 13.6.2" stroke="#84AB73" stroke-opacity=".7" stroke-width=".5" fill="none"/><path class="Eastern-Europe-border" stroke-linecap="round" d="m61.6 124 13.7.3 13.6 4.8 13.6-4.8 13.6-.2 13.7-.7H157l13.7.5 13.6-.2 13.6.8 13.6-.6 13.7-.2 13.6-.3 13.6 1.3 13.6-.3 13.7-.4 13.6-.2 13.6.9 13.7 1.4 13.6-.8 13.6-1 13.6.5 27.3.2 13.6.8 13.6.1 13.7-1.6 13.6 1.7 13.6-1.4 13.7.1 13.6-.5 13.6-.2 13.6.7 13.7-1.3h13.6l13.6.3 13.7-.2 13.6.6 13.6-.6h13.6l13.7-.1h27.2l13.6.2 13.7.2 13.6-.1 13.6.1" stroke="#589555" stroke-opacity=".7" stroke-width=".5" fill="none"/><path class="Australasia-__0026-Oceania-border" stroke-linecap="round" d="M61.6 123.4H702.1" stroke="#2C7F35" stroke-opacity=".7" stroke-width=".5" fill="none"/></g></g></g><g class="SourcesFooter" style="fill:#777"><g style="fill:#777"><text font-size="12.6" x="15" y="582.5"><tspan x="15" y="582.48">Source: Global Terrorism Database (2018)</tspan></text></g><text font-size="12.6" x="616.9" y="582.5"><tspan x="616.89" y="582.48"><a target="_blank" style="fill:#777" href="https://ourworldindata.org/terrorism">OurWorldInData.org/terrorism</a> • <a style="fill:#777" class="cclogo" href="http://creativecommons.org/licenses/by/4.0/deed.en_US" target="_blank">CC BY</a></tspan></text></g></svg>