<svg xmlns="http://www.w3.org/2000/svg" version="1.1" style="background-color:#fff;-webkit-font-smoothing:antialiased" width="850" height="600" viewBox="0 0 850 600" font-family="Lato,'Helvetica Neue',Helvetica,Arial,sans-serif" font-size="18" text-rendering="optimizeLegibility"><g class="HeaderView"><g transform="matrix(.95 0 0 .95 739 15)"><svg width="102" height="37" viewBox="0 0 102 37" fill="none" xmlns="http://www.w3.org/2000/svg"><path d="M47 0H0v37h47V0z" fill="#EA4148"/><path d="M3.78 11.85c0-3.55 2.67-5.6 5.68-5.6a4.63 4.63 0 013.09 1.1l-1.7 2.36c-.31-.32-.74-.5-1.18-.52-1.36 0-2.16 1.03-2.16 2.66 0 1.62.89 2.65 2.03 2.65a2.93 2.93 0 001.7-.69l1.4 2.4a5.29 5.29 0 01-3.52 1.24c-3 0-5.34-2.05-5.34-5.6z" fill="#fff"/><path d="M18.85 11.85c0-1.63-.42-2.66-1.52-2.66s-1.52 1.03-1.52 2.66c0 1.62.42 2.65 1.52 2.65s1.52-1.03 1.52-2.65zm-6.77 0c0-3.55 2.54-5.6 5.25-5.6 2.7 0 5.25 2.05 5.25 5.6s-2.54 5.6-5.25 5.6-5.25-2.05-5.25-5.6M23.34 6.5h2.97l.25 1.84h.09c.78-1.46 1.97-2.1 3-2.1.45-.02.9.05 1.32.22l-.6 3.16c-.38-.1-.78-.16-1.18-.17-.76 0-1.7.47-2.2 1.8v5.94h-3.65V6.5zm13.64 4.06c0-.81-.34-1.54-1.44-1.54-.8 0-1.49.47-1.7 1.54h3.14zm-6.6 1.29c0-3.47 2.49-5.6 5.07-5.6 3.13 0 4.62 2.3 4.62 5.17 0 .52-.05 1.03-.15 1.54h-6.04c.34 1.28 1.27 1.71 2.46 1.71a4.3 4.3 0 002.16-.64l1.18 2.18a7.08 7.08 0 01-3.85 1.24c-3.09 0-5.46-2.05-5.46-5.6" fill="#fff"/><path d="M10.43 23.87c0-.81-.34-1.54-1.44-1.54-.8 0-1.48.47-1.69 1.54h3.13zm-6.6 1.28c0-3.46 2.5-5.6 5.08-5.6 3.13 0 4.61 2.3 4.61 5.18 0 .51-.05 1.03-.15 1.54H7.34c.34 1.28 1.27 1.7 2.46 1.7.76-.01 1.5-.23 2.16-.63l1.18 2.18a7.08 7.08 0 01-3.85 1.24c-3.1 0-5.46-2.06-5.46-5.6m10.07-.01c0-3.55 2.67-5.6 5.68-5.6a4.63 4.63 0 013.09 1.11l-1.7 2.35c-.32-.31-.74-.5-1.18-.51-1.36 0-2.16 1.03-2.16 2.65 0 1.63.89 2.66 2.03 2.66a2.93 2.93 0 001.7-.69l1.39 2.4a5.29 5.29 0 01-3.51 1.24c-3 0-5.34-2.06-5.34-5.6" fill="#1A1818"/><path d="M28.97 25.15c0-1.62-.42-2.65-1.52-2.65s-1.52 1.03-1.52 2.65c0 1.63.42 2.66 1.52 2.66s1.52-1.03 1.52-2.66zm-6.77 0c0-3.55 2.54-5.6 5.25-5.6 2.7 0 5.25 2.05 5.25 5.6s-2.54 5.6-5.25 5.6-5.25-2.04-5.25-5.6m11.34-5.35h2.97l.25 1.29h.09a4.76 4.76 0 013.34-1.54c2.33 0 3.3 1.71 3.3 4.36v6.6h-3.64v-6.13c0-1.37-.34-1.7-1.06-1.7-.67 0-1.05.3-1.6.8v7.02h-3.65V19.8z" fill="#1A1818"/><path fill="#fff" d="M48 0h54v37H48z"/><path d="M48 0h53.93v33H48V0z" fill="#002147"/><path d="M58.42 10.86c0 .61-.1 1.18-.3 1.7a3.83 3.83 0 01-2.15 2.21c-.5.21-1.07.32-1.7.32-.6 0-1.17-.1-1.68-.32a3.9 3.9 0 01-2.15-2.21c-.2-.52-.3-1.09-.3-1.7 0-.61.1-1.18.3-1.7a3.93 3.93 0 012.15-2.22 4.38 4.38 0 011.69-.31c.62 0 1.18.1 1.69.31a3.79 3.79 0 012.15 2.22c.2.52.3 1.09.3 1.7zm-1.38 0c0-.48-.06-.9-.2-1.28A2.38 2.38 0 0055.43 8a2.97 2.97 0 00-1.14-.21c-.42 0-.8.07-1.15.21-.34.14-.63.35-.87.61a2.8 2.8 0 00-.56.97c-.13.38-.2.8-.2 1.28s.07.9.2 1.29a2.46 2.46 0 001.43 1.57c.35.14.73.2 1.15.2.42 0 .8-.06 1.15-.2a2.4 2.4 0 001.42-1.57c.13-.38.2-.81.2-1.29zm7.14-1.72V15h-.74c-.17 0-.27-.08-.32-.24l-.1-.54a3.42 3.42 0 01-.81.63 2.3 2.3 0 01-1.06.24c-.32 0-.6-.05-.85-.16a1.72 1.72 0 01-1-1.15 3.1 3.1 0 01-.12-.91V9.14h1.24v3.73c0 .4.09.7.27.92.18.22.46.32.83.32.27 0 .53-.06.76-.18.24-.13.46-.3.67-.52V9.13h1.23zm2.33 1.08c.18-.37.4-.66.66-.87.27-.22.58-.32.94-.32a1.34 1.34 0 01.66.17l-.09.93a.26.26 0 01-.07.14.2.2 0 01-.13.03c-.06 0-.14 0-.25-.03a1.62 1.62 0 00-.8.04c-.13.05-.25.13-.35.22-.1.1-.2.21-.28.35-.08.14-.15.3-.22.47V15h-1.24V9.13h.72c.13 0 .22.03.27.08.05.05.08.13.1.25l.08.76zm16-3.5L79.94 15h-1.21l-1.95-5.95a4.7 4.7 0 01-.12-.46 3.32 3.32 0 01-.13.46L74.57 15h-1.22l-2.57-8.28h1.13c.11 0 .2.03.28.09.08.05.14.12.16.22l1.56 5.3a6.11 6.11 0 01.16.8 10 10 0 01.2-.8l1.78-5.3a.48.48 0 01.16-.21.4.4 0 01.28-.1h.4c.11 0 .21.03.28.1.08.05.13.12.17.21l1.77 5.3.1.37.1.4a59.35 59.35 0 00.16-.76L81 7.03a.4.4 0 01.16-.22.49.49 0 01.3-.09h1.04zm2.41 2.32c.44 0 .83.07 1.18.22a2.49 2.49 0 011.47 1.55c.13.37.2.79.2 1.25 0 .47-.07.88-.2 1.26-.14.37-.33.69-.58.95a2.87 2.87 0 01-2.07.82c-.43 0-.83-.07-1.18-.22a2.55 2.55 0 01-1.47-1.55c-.14-.38-.2-.8-.2-1.26 0-.46.06-.88.2-1.25a2.55 2.55 0 011.47-1.55c.35-.15.75-.22 1.18-.22zm0 5.08c.53 0 .92-.18 1.18-.53.26-.36.4-.86.4-1.52s-.14-1.17-.4-1.53c-.26-.36-.65-.54-1.18-.54-.53 0-.93.18-1.2.54-.25.36-.38.87-.38 1.53s.13 1.16.39 1.52c.26.35.66.53 1.2.53zm4.86-3.9c.18-.37.4-.66.67-.87.26-.22.57-.32.93-.32a1.34 1.34 0 01.66.17l-.09.93a.26.26 0 01-.07.14.2.2 0 01-.13.03c-.06 0-.14 0-.25-.03a1.62 1.62 0 00-.8.04 1.29 1.29 0 00-.63.57c-.08.14-.15.3-.22.47V15H88.6V9.13h.72c.13 0 .22.03.27.08.05.05.08.13.1.25l.08.76zm4-3.73V15h-1.25V6.49h1.24zm4.91 4.09a1.45 1.45 0 00-1.24-.6c-.48 0-.86.18-1.13.54-.27.35-.4.87-.4 1.56 0 .37.02.67.08.93.07.25.15.46.27.62.11.16.25.28.42.35.16.08.35.11.56.11.31 0 .58-.07.8-.2.24-.14.45-.33.64-.58v-2.73zm1.24-4.09V15h-.75c-.16 0-.27-.08-.31-.24l-.11-.63c-.25.28-.53.52-.84.7-.31.17-.67.26-1.09.26a1.96 1.96 0 01-1.59-.78 2.73 2.73 0 01-.44-.94 4.86 4.86 0 01.01-2.5c.12-.37.3-.7.51-.96a2.3 2.3 0 011.85-.88c.34 0 .63.05.88.16.24.11.45.26.64.46V6.49h1.24zm-39.9 14.65V27h-1.24v-5.86h1.24zm.2-1.78c0 .12-.02.22-.06.32a.83.83 0 01-1.34.26.8.8 0 01-.24-.58c0-.11.02-.22.06-.32a.89.89 0 01.43-.43.76.76 0 01.64 0 .81.81 0 01.45.43c.04.1.06.2.06.32zm2.16 2.55a3.67 3.67 0 01.83-.63 2.32 2.32 0 011.9-.08c.24.11.45.26.61.46.17.2.3.43.38.7.09.28.13.58.13.9V27H65v-3.73c0-.4-.1-.7-.28-.92-.18-.22-.45-.33-.83-.33-.27 0-.53.06-.77.19-.23.13-.45.3-.66.52V27h-1.23v-5.86h.74c.17 0 .28.07.33.23l.08.54zm14.96.95c0 .61-.1 1.17-.3 1.68a3.78 3.78 0 01-2.15 2.16c-.5.2-1.07.3-1.69.3H70.1v-8.28h3.12c.62 0 1.19.1 1.7.3a3.71 3.71 0 012.14 2.16c.2.5.3 1.07.3 1.68zm-1.37 0c0-.48-.07-.9-.2-1.28a2.6 2.6 0 00-.55-.96 2.35 2.35 0 00-.87-.6 2.97 2.97 0 00-1.15-.21h-1.77v6.1h1.77c.43 0 .81-.07 1.15-.2a2.42 2.42 0 001.42-1.56c.13-.38.2-.81.2-1.29zm5.27 1.58a7.5 7.5 0 00-1.12.1c-.3.06-.55.13-.73.22a.97.97 0 00-.41.3.68.68 0 00-.12.4c0 .13.02.25.06.35.05.1.1.18.18.24.08.06.18.1.28.14a1.78 1.78 0 001.18-.14c.23-.12.46-.3.68-.53v-1.08zm-3.28-2.49a3.36 3.36 0 012.37-.92c.34 0 .63.05.9.16a1.83 1.83 0 011.06 1.18c.1.27.15.57.15.9V27h-.55a.56.56 0 01-.27-.05.42.42 0 01-.16-.23l-.12-.47-.44.36c-.15.1-.3.2-.46.26a2.77 2.77 0 01-1.75.12c-.2-.06-.38-.16-.53-.29a1.46 1.46 0 01-.48-1.18c0-.23.06-.45.18-.66.12-.22.32-.41.6-.58a4 4 0 011.1-.43 8.03 8.03 0 011.68-.19v-.39c0-.42-.1-.73-.27-.94-.18-.2-.45-.3-.8-.3-.23-.01-.43.02-.6.08a6.05 6.05 0 00-.74.39.54.54 0 01-.28.08.38.38 0 01-.22-.06.6.6 0 01-.15-.17l-.22-.4zm7.38 5.14c-.48 0-.86-.13-1.12-.4-.26-.28-.4-.67-.4-1.17v-3.41h-.64a.27.27 0 01-.18-.07c-.05-.04-.07-.11-.07-.2v-.5l.95-.14.27-1.7a.31.31 0 01.1-.15c.04-.04.1-.06.18-.06h.63v1.93h1.63v.89h-1.63v3.33c0 .2.05.37.16.48.1.11.24.17.41.17a.79.79 0 00.43-.12 4 4 0 00.12-.08.2.2 0 01.11-.04c.07 0 .13.04.17.11l.37.6c-.2.18-.42.3-.68.4a2.5 2.5 0 01-.8.13zm5.11-2.65a7.5 7.5 0 00-1.11.1 3 3 0 00-.74.22.97.97 0 00-.4.3.68.68 0 00-.13.4c0 .13.02.25.06.35.05.1.11.18.19.24s.17.1.28.14a1.78 1.78 0 001.18-.14c.23-.12.45-.3.67-.53v-1.08zm-3.28-2.49a3.36 3.36 0 012.37-.92c.34 0 .64.05.9.16.27.11.49.26.66.46.18.2.32.44.41.72.1.27.14.57.14.9V27h-.55a.56.56 0 01-.27-.05c-.06-.04-.11-.11-.15-.23l-.12-.47-.45.36c-.14.1-.3.2-.45.26a2.77 2.77 0 01-1.75.12c-.2-.06-.38-.16-.53-.29a1.46 1.46 0 01-.49-1.18c0-.23.06-.45.18-.66.12-.22.32-.41.6-.58.28-.17.65-.31 1.1-.43a8.03 8.03 0 011.68-.19v-.39c0-.42-.09-.73-.27-.94-.18-.2-.44-.3-.8-.3a1.5 1.5 0 00-.59.08 6.09 6.09 0 00-.74.39.54.54 0 01-.29.08.38.38 0 01-.22-.06.6.6 0 01-.14-.17l-.23-.4z" fill="#fff"/><path fill="#D42B21" d="M48 32.65h54V37H48z"/></svg></g><a href="https://ourworldindata.org/grapher/the-two-germanies-planning-and-capitalism?tab=chart&amp;stackMode=absolute&amp;region=World" target="_blank" rel="noopener" font-family="&quot;Playfair Display&quot;,Georgia,&quot;Times New Roman&quot;,serif"><text font-size="21.6" x="15" y="32.3" fill="#555"><tspan x="15" y="32.28">The two Germanies: Planning and capitalism (1950–89) - GDP per</tspan><tspan x="15" y="53.88">capita in 1990 international dollars</tspan></text></a><text font-size="14.4" x="15" y="74.7" fill="#666"><tspan x="15" y="74.72">Unit 1 &apos;The capitalist revolution’ Section 1.9 &apos;Capitalism, causation and history&apos;s hockey stick&apos; in The CORE Team, The</tspan><tspan x="15" y="92">Economy. Available at: https://tinyco.re/19372660 [Figure 1.10]</tspan></text></g><g class="LineChart"><defs><clipPath id="a"><path d="M68.97 0h830v863.2h-830z"/></clipPath></defs><g class="DualAxisView"><g class="HorizontalAxis"><path stroke="#ccc" d="M79 521.6v4M159.8 521.6v4M240.7 521.6v4M321.6 521.6v4M402.5 521.6v4M483.4 521.6v4M564.2 521.6v4M645.1 521.6v4M709.8 521.6v4"/><text x="79" y="542.8" fill="#666" text-anchor="middle" font-size="16.2">1950</text><text x="159.8" y="542.8" fill="#666" text-anchor="middle" font-size="16.2">1955</text><text x="240.7" y="542.8" fill="#666" text-anchor="middle" font-size="16.2">1960</text><text x="321.6" y="542.8" fill="#666" text-anchor="middle" font-size="16.2">1965</text><text x="402.5" y="542.8" fill="#666" text-anchor="middle" font-size="16.2">1970</text><text x="483.4" y="542.8" fill="#666" text-anchor="middle" font-size="16.2">1975</text><text x="564.2" y="542.8" fill="#666" text-anchor="middle" font-size="16.2">1980</text><text x="645.1" y="542.8" fill="#666" text-anchor="middle" font-size="16.2">1985</text><text x="709.8" y="542.8" fill="#666" text-anchor="middle" font-size="16.2">1989</text></g><g class="VerticalAxis" fill="#666" dominant-baseline="middle" text-anchor="end" font-size="16.2"><text x="73.97" y="514.2">$2,000</text><text x="73.97" y="439.9">$3,000</text><text x="73.97" y="387.1">$4,000</text><text x="73.97" y="346.2">$5,000</text><text x="73.97" y="312.8">$6,000</text><text x="73.97" y="284.5">$7,000</text><text x="73.97" y="260">$8,000</text><text x="73.97" y="238.4">$9,000</text><text x="73.97" y="219.1">$10,000</text></g><g class="AxisGridLines horizontalLines" stroke="#d3d3d3" stroke-dasharray="3,2"><path d="M78.97 514.2h630.85M78.97 439.9h630.85M78.97 387.1h630.85M78.97 346.2h630.85M78.97 312.8h630.85M78.97 284.5h630.85M78.97 260h630.85M78.97 238.4h630.85M78.97 219.1h630.85"/></g></g><g clip-path="url(#a)"><g class="LineLabels" cursor="pointer"><g class="legendMark"><g class="indicator"><path d="M713.82 111.2h18v6.75h9" stroke="#999" stroke-width=".5" fill="none"/></g><text font-size="13.5" x="744.8" y="122" fill="#16c1ce"><tspan x="744.82" y="122">West Germany</tspan></text></g><g class="legendMark"><g class="indicator"><path d="M713.82 111.9h9v21.55h18" stroke="#999" stroke-width=".5" fill="none"/></g><text font-size="13.5" x="744.8" y="137.5" fill="#f3b305"><tspan x="744.82" y="137.5">Japan</tspan></text></g><g class="legendMark"><g class="indicator"><path d="M713.82 192.2h13.5v0h13.5" stroke="#999" stroke-width=".5" fill="none"/></g><text font-size="13.5" x="744.8" y="196.3" fill="#008860"><tspan x="744.82" y="196.25">Spain</tspan></text></g><g class="legendMark"><g class="indicator"><path d="M713.82 250.6h13.5v0h13.5" stroke="#999" stroke-width=".5" fill="none"/></g><text font-size="13.5" x="744.8" y="254.7" fill="#9400D3"><tspan x="744.82" y="254.65">East Germany</tspan></text></g></g><g class="Lines"><g class="key-East-Germany_0"><path stroke="#9400D3" stroke-linecap="round" d="M79 505l16-14 16-13 17-12 16-12 16-10 16-12 16-11 16-11 17-10 16-9 16-3 16-6 16-6 16-4 17-7 16-5 16-5 16-9 16-4 17-5 16-4 16-6 16-6 16-10 16-7 17-4 16-6 16-3 16-6 16-3 16-4h17l16-3 16-6 16-6 16-3 17-3 16-1 16-5" fill="none" stroke-width="1.5"/><g fill="#9400D3"><circle cx="79" cy="505" r="2"/><circle cx="95" cy="491" r="2"/><circle cx="111" cy="478" r="2"/><circle cx="128" cy="466" r="2"/><circle cx="144" cy="454" r="2"/><circle cx="160" cy="444" r="2"/><circle cx="176" cy="432" r="2"/><circle cx="192" cy="421" r="2"/><circle cx="208" cy="410" r="2"/><circle cx="225" cy="400" r="2"/><circle cx="241" cy="391" r="2"/><circle cx="257" cy="388" r="2"/><circle cx="273" cy="382" r="2"/><circle cx="289" cy="376" r="2"/><circle cx="305" cy="372" r="2"/><circle cx="322" cy="365" r="2"/><circle cx="338" cy="360" r="2"/><circle cx="354" cy="355" r="2"/><circle cx="370" cy="346" r="2"/><circle cx="386" cy="342" r="2"/><circle cx="403" cy="337" r="2"/><circle cx="419" cy="333" r="2"/><circle cx="435" cy="327" r="2"/><circle cx="451" cy="321" r="2"/><circle cx="467" cy="311" r="2"/><circle cx="483" cy="304" r="2"/><circle cx="500" cy="300" r="2"/><circle cx="516" cy="294" r="2"/><circle cx="532" cy="291" r="2"/><circle cx="548" cy="285" r="2"/><circle cx="564" cy="282" r="2"/><circle cx="580" cy="278" r="2"/><circle cx="597" cy="278" r="2"/><circle cx="613" cy="275" r="2"/><circle cx="629" cy="269" r="2"/><circle cx="645" cy="263" r="2"/><circle cx="661" cy="260" r="2"/><circle cx="678" cy="257" r="2"/><circle cx="694" cy="256" r="2"/><circle cx="710" cy="251" r="2"/></g></g><g class="key-West-Germany_0"><path stroke="#16c1ce" stroke-linecap="round" d="M79 375l16-15 16-15 17-14 16-12 16-19 16-11 16-8 16-6 17-12 16-13 16-6 16-6 16-3 16-10 17-8 16-3 16 1 16-9 16-12 17-7 16-4 16-6 16-8h16l16 2 17-11 16-5 16-6 16-7 16-2 16 1 17 1 16-4 16-6 16-4 16-4 17-2 16-6 16-5" fill="none" stroke-width="1.5"/><g fill="#16c1ce"><circle cx="79" cy="375" r="2"/><circle cx="95" cy="360" r="2"/><circle cx="111" cy="345" r="2"/><circle cx="128" cy="331" r="2"/><circle cx="144" cy="319" r="2"/><circle cx="160" cy="300" r="2"/><circle cx="176" cy="289" r="2"/><circle cx="192" cy="281" r="2"/><circle cx="208" cy="275" r="2"/><circle cx="225" cy="263" r="2"/><circle cx="241" cy="250" r="2"/><circle cx="257" cy="244" r="2"/><circle cx="273" cy="238" r="2"/><circle cx="289" cy="235" r="2"/><circle cx="305" cy="225" r="2"/><circle cx="322" cy="217" r="2"/><circle cx="338" cy="214" r="2"/><circle cx="354" cy="215" r="2"/><circle cx="370" cy="206" r="2"/><circle cx="386" cy="194" r="2"/><circle cx="403" cy="187" r="2"/><circle cx="419" cy="183" r="2"/><circle cx="435" cy="177" r="2"/><circle cx="451" cy="169" r="2"/><circle cx="467" cy="169" r="2"/><circle cx="483" cy="171" r="2"/><circle cx="500" cy="160" r="2"/><circle cx="516" cy="155" r="2"/><circle cx="532" cy="149" r="2"/><circle cx="548" cy="142" r="2"/><circle cx="564" cy="140" r="2"/><circle cx="580" cy="141" r="2"/><circle cx="597" cy="142" r="2"/><circle cx="613" cy="138" r="2"/><circle cx="629" cy="132" r="2"/><circle cx="645" cy="128" r="2"/><circle cx="661" cy="124" r="2"/><circle cx="678" cy="122" r="2"/><circle cx="694" cy="116" r="2"/><circle cx="710" cy="111" r="2"/></g></g><g class="key-Japan_0"><path stroke="#f3b305" stroke-linecap="round" d="M79 522l16-19 16-17 17-11 16-8 16-13 16-11 16-11 16-9 17-14 16-21 16-19 16-14 16-13 16-19 17-8 16-17 16-17 16-21 16-19 17-16 16-7 16-12 16-11 16 4 16-3 17-5 16-6 16-8 16-8 16-4 16-4 17-5 16-2 16-6 16-7 16-4 17-7 16-10 16-8" fill="none" stroke-width="1.5"/><g fill="#f3b305"><circle cx="79" cy="522" r="2"/><circle cx="95" cy="503" r="2"/><circle cx="111" cy="486" r="2"/><circle cx="128" cy="475" r="2"/><circle cx="144" cy="467" r="2"/><circle cx="160" cy="454" r="2"/><circle cx="176" cy="443" r="2"/><circle cx="192" cy="432" r="2"/><circle cx="208" cy="423" r="2"/><circle cx="225" cy="409" r="2"/><circle cx="241" cy="388" r="2"/><circle cx="257" cy="369" r="2"/><circle cx="273" cy="355" r="2"/><circle cx="289" cy="342" r="2"/><circle cx="305" cy="323" r="2"/><circle cx="322" cy="315" r="2"/><circle cx="338" cy="298" r="2"/><circle cx="354" cy="281" r="2"/><circle cx="370" cy="260" r="2"/><circle cx="386" cy="241" r="2"/><circle cx="403" cy="225" r="2"/><circle cx="419" cy="218" r="2"/><circle cx="435" cy="206" r="2"/><circle cx="451" cy="195" r="2"/><circle cx="467" cy="199" r="2"/><circle cx="483" cy="196" r="2"/><circle cx="500" cy="191" r="2"/><circle cx="516" cy="185" r="2"/><circle cx="532" cy="177" r="2"/><circle cx="548" cy="169" r="2"/><circle cx="564" cy="165" r="2"/><circle cx="580" cy="161" r="2"/><circle cx="597" cy="156" r="2"/><circle cx="613" cy="154" r="2"/><circle cx="629" cy="148" r="2"/><circle cx="645" cy="141" r="2"/><circle cx="661" cy="137" r="2"/><circle cx="678" cy="130" r="2"/><circle cx="694" cy="120" r="2"/><circle cx="710" cy="112" r="2"/></g></g><g class="key-Spain_0"><path stroke="#008860" stroke-linecap="round" d="M79 498l16-16 16-13 17 2 16-11 16-6 16-13 16-4 16-6 17 6 16-1 16-21 16-18 16-17 16-15 17-10 16-11 16-10 16-8 16-14 17-9 16-8 16-13 16-14 16-11 16-5 17-5 16-5 16-4 16-1 16-3 16 1 17-2 16-4 16-2 16-3 16-5 17-9 16-9 16-9" fill="none" stroke-width="1.5"/><g fill="#008860"><circle cx="79" cy="498" r="2"/><circle cx="95" cy="482" r="2"/><circle cx="111" cy="469" r="2"/><circle cx="128" cy="471" r="2"/><circle cx="144" cy="460" r="2"/><circle cx="160" cy="454" r="2"/><circle cx="176" cy="441" r="2"/><circle cx="192" cy="437" r="2"/><circle cx="208" cy="431" r="2"/><circle cx="225" cy="437" r="2"/><circle cx="241" cy="436" r="2"/><circle cx="257" cy="415" r="2"/><circle cx="273" cy="397" r="2"/><circle cx="289" cy="380" r="2"/><circle cx="305" cy="365" r="2"/><circle cx="322" cy="355" r="2"/><circle cx="338" cy="344" r="2"/><circle cx="354" cy="334" r="2"/><circle cx="370" cy="326" r="2"/><circle cx="386" cy="312" r="2"/><circle cx="403" cy="303" r="2"/><circle cx="419" cy="295" r="2"/><circle cx="435" cy="282" r="2"/><circle cx="451" cy="268" r="2"/><circle cx="467" cy="257" r="2"/><circle cx="483" cy="252" r="2"/><circle cx="500" cy="247" r="2"/><circle cx="516" cy="242" r="2"/><circle cx="532" cy="238" r="2"/><circle cx="548" cy="237" r="2"/><circle cx="564" cy="234" r="2"/><circle cx="580" cy="235" r="2"/><circle cx="597" cy="233" r="2"/><circle cx="613" cy="229" r="2"/><circle cx="629" cy="227" r="2"/><circle cx="645" cy="224" r="2"/><circle cx="661" cy="219" r="2"/><circle cx="678" cy="210" r="2"/><circle cx="694" cy="201" r="2"/><circle cx="710" cy="192" r="2"/></g></g></g></g></g><g class="SourcesFooter" fill="#777"><g class="clickable" fill="#777"><text font-size="12.6" x="15" y="567.9"><tspan x="15" y="567.88">Source: The 2015 Total Economy Database</tspan></text></g><text font-size="12.6" x="15" y="582.5"><tspan x="15" y="582.48">Note: The units of measurement is &apos;1990 international dollar&apos;. The chart uses ratio scale. CC-BY-ND-NC</tspan></text><text font-size="12.6" x="538.9" y="567.9"><tspan x="538.9" y="567.88"><a target="_blank" href="https://tinyco.re/19372660" fill="#777">tinyco.re/19372660</a> • <a href="https://ourworldindata.org" target="_blank">Powered by ourworldindata.org</a></tspan></text></g></svg>