<svg xmlns="http://www.w3.org/2000/svg" version="1.1" style="background-color:#fff;-webkit-font-smoothing:antialiased" width="850" height="600" viewBox="0 0 850 600" font-family="Lato,'Helvetica Neue',Helvetica,Arial,sans-serif" font-size="18" text-rendering="geometricPrecision"><g class="HeaderView"><g transform="matrix(.95 0 0 .95 739 15)"><svg className="coreLogo" width="102" height="37" viewBox="0 0 102 37" fill="none" xmlns="http://www.w3.org/2000/svg"><path d="M47 0H0v37h47V0z" fill="#EA4148"/><path d="M3.78 11.85c0-3.55 2.67-5.6 5.68-5.6a4.63 4.63 0 013.09 1.1l-1.7 2.36c-.31-.32-.74-.5-1.18-.52-1.36 0-2.16 1.03-2.16 2.66 0 1.62.89 2.65 2.03 2.65a2.93 2.93 0 001.7-.69l1.4 2.4a5.29 5.29 0 01-3.52 1.24c-3 0-5.34-2.05-5.34-5.6z" fill="#fff"/><path d="M18.85 11.85c0-1.63-.42-2.66-1.52-2.66s-1.52 1.03-1.52 2.66c0 1.62.42 2.65 1.52 2.65s1.52-1.03 1.52-2.65zm-6.77 0c0-3.55 2.54-5.6 5.25-5.6 2.7 0 5.25 2.05 5.25 5.6s-2.54 5.6-5.25 5.6-5.25-2.05-5.25-5.6M23.34 6.5h2.97l.25 1.84h.09c.78-1.46 1.97-2.1 3-2.1.45-.02.9.05 1.32.22l-.6 3.16c-.38-.1-.78-.16-1.18-.17-.76 0-1.7.47-2.2 1.8v5.94h-3.65V6.5zm13.64 4.06c0-.81-.34-1.54-1.44-1.54-.8 0-1.49.47-1.7 1.54h3.14zm-6.6 1.29c0-3.47 2.49-5.6 5.07-5.6 3.13 0 4.62 2.3 4.62 5.17 0 .52-.05 1.03-.15 1.54h-6.04c.34 1.28 1.27 1.71 2.46 1.71a4.3 4.3 0 002.16-.64l1.18 2.18a7.08 7.08 0 01-3.85 1.24c-3.09 0-5.46-2.05-5.46-5.6" fill="#fff"/><path d="M10.43 23.87c0-.81-.34-1.54-1.44-1.54-.8 0-1.48.47-1.69 1.54h3.13zm-6.6 1.28c0-3.46 2.5-5.6 5.08-5.6 3.13 0 4.61 2.3 4.61 5.18 0 .51-.05 1.03-.15 1.54H7.34c.34 1.28 1.27 1.7 2.46 1.7.76-.01 1.5-.23 2.16-.63l1.18 2.18a7.08 7.08 0 01-3.85 1.24c-3.1 0-5.46-2.06-5.46-5.6m10.07-.01c0-3.55 2.67-5.6 5.68-5.6a4.63 4.63 0 013.09 1.11l-1.7 2.35c-.32-.31-.74-.5-1.18-.51-1.36 0-2.16 1.03-2.16 2.65 0 1.63.89 2.66 2.03 2.66a2.93 2.93 0 001.7-.69l1.39 2.4a5.29 5.29 0 01-3.51 1.24c-3 0-5.34-2.06-5.34-5.6" fill="#1A1818"/><path d="M28.97 25.15c0-1.62-.42-2.65-1.52-2.65s-1.52 1.03-1.52 2.65c0 1.63.42 2.66 1.52 2.66s1.52-1.03 1.52-2.66zm-6.77 0c0-3.55 2.54-5.6 5.25-5.6 2.7 0 5.25 2.05 5.25 5.6s-2.54 5.6-5.25 5.6-5.25-2.04-5.25-5.6m11.34-5.35h2.97l.25 1.29h.09a4.76 4.76 0 013.34-1.54c2.33 0 3.3 1.71 3.3 4.36v6.6h-3.64v-6.13c0-1.37-.34-1.7-1.06-1.7-.67 0-1.05.3-1.6.8v7.02h-3.65V19.8z" fill="#1A1818"/><path fill="#fff" d="M48 0h54v37H48z"/><path d="M48 0h53.93v33H48V0z" fill="#002147"/><path d="M58.42 10.86c0 .61-.1 1.18-.3 1.7a3.83 3.83 0 01-2.15 2.21c-.5.21-1.07.32-1.7.32-.6 0-1.17-.1-1.68-.32a3.9 3.9 0 01-2.15-2.21c-.2-.52-.3-1.09-.3-1.7 0-.61.1-1.18.3-1.7a3.93 3.93 0 012.15-2.22 4.38 4.38 0 011.69-.31c.62 0 1.18.1 1.69.31a3.79 3.79 0 012.15 2.22c.2.52.3 1.09.3 1.7zm-1.38 0c0-.48-.06-.9-.2-1.28A2.38 2.38 0 0055.43 8a2.97 2.97 0 00-1.14-.21c-.42 0-.8.07-1.15.21-.34.14-.63.35-.87.61a2.8 2.8 0 00-.56.97c-.13.38-.2.8-.2 1.28s.07.9.2 1.29a2.46 2.46 0 001.43 1.57c.35.14.73.2 1.15.2.42 0 .8-.06 1.15-.2a2.4 2.4 0 001.42-1.57c.13-.38.2-.81.2-1.29zm7.14-1.72V15h-.74c-.17 0-.27-.08-.32-.24l-.1-.54a3.42 3.42 0 01-.81.63 2.3 2.3 0 01-1.06.24c-.32 0-.6-.05-.85-.16a1.72 1.72 0 01-1-1.15 3.1 3.1 0 01-.12-.91V9.14h1.24v3.73c0 .4.09.7.27.92.18.22.46.32.83.32.27 0 .53-.06.76-.18.24-.13.46-.3.67-.52V9.13h1.23zm2.33 1.08c.18-.37.4-.66.66-.87.27-.22.58-.32.94-.32a1.34 1.34 0 01.66.17l-.09.93a.26.26 0 01-.07.14.2.2 0 01-.13.03c-.06 0-.14 0-.25-.03a1.62 1.62 0 00-.8.04c-.13.05-.25.13-.35.22-.1.1-.2.21-.28.35-.08.14-.15.3-.22.47V15h-1.24V9.13h.72c.13 0 .22.03.27.08.05.05.08.13.1.25l.08.76zm16-3.5L79.94 15h-1.21l-1.95-5.95a4.7 4.7 0 01-.12-.46 3.32 3.32 0 01-.13.46L74.57 15h-1.22l-2.57-8.28h1.13c.11 0 .2.03.28.09.08.05.14.12.16.22l1.56 5.3a6.11 6.11 0 01.16.8 10 10 0 01.2-.8l1.78-5.3a.48.48 0 01.16-.21.4.4 0 01.28-.1h.4c.11 0 .21.03.28.1.08.05.13.12.17.21l1.77 5.3.1.37.1.4a59.35 59.35 0 00.16-.76L81 7.03a.4.4 0 01.16-.22.49.49 0 01.3-.09h1.04zm2.41 2.32c.44 0 .83.07 1.18.22a2.49 2.49 0 011.47 1.55c.13.37.2.79.2 1.25 0 .47-.07.88-.2 1.26-.14.37-.33.69-.58.95a2.87 2.87 0 01-2.07.82c-.43 0-.83-.07-1.18-.22a2.55 2.55 0 01-1.47-1.55c-.14-.38-.2-.8-.2-1.26 0-.46.06-.88.2-1.25a2.55 2.55 0 011.47-1.55c.35-.15.75-.22 1.18-.22zm0 5.08c.53 0 .92-.18 1.18-.53.26-.36.4-.86.4-1.52s-.14-1.17-.4-1.53c-.26-.36-.65-.54-1.18-.54-.53 0-.93.18-1.2.54-.25.36-.38.87-.38 1.53s.13 1.16.39 1.52c.26.35.66.53 1.2.53zm4.86-3.9c.18-.37.4-.66.67-.87.26-.22.57-.32.93-.32a1.34 1.34 0 01.66.17l-.09.93a.26.26 0 01-.07.14.2.2 0 01-.13.03c-.06 0-.14 0-.25-.03a1.62 1.62 0 00-.8.04 1.29 1.29 0 00-.63.57c-.08.14-.15.3-.22.47V15H88.6V9.13h.72c.13 0 .22.03.27.08.05.05.08.13.1.25l.08.76zm4-3.73V15h-1.25V6.49h1.24zm4.91 4.09a1.45 1.45 0 00-1.24-.6c-.48 0-.86.18-1.13.54-.27.35-.4.87-.4 1.56 0 .37.02.67.08.93.07.25.15.46.27.62.11.16.25.28.42.35.16.08.35.11.56.11.31 0 .58-.07.8-.2.24-.14.45-.33.64-.58v-2.73zm1.24-4.09V15h-.75c-.16 0-.27-.08-.31-.24l-.11-.63c-.25.28-.53.52-.84.7-.31.17-.67.26-1.09.26a1.96 1.96 0 01-1.59-.78 2.73 2.73 0 01-.44-.94 4.86 4.86 0 01.01-2.5c.12-.37.3-.7.51-.96a2.3 2.3 0 011.85-.88c.34 0 .63.05.88.16.24.11.45.26.64.46V6.49h1.24zm-39.9 14.65V27h-1.24v-5.86h1.24zm.2-1.78c0 .12-.02.22-.06.32a.83.83 0 01-1.34.26.8.8 0 01-.24-.58c0-.11.02-.22.06-.32a.89.89 0 01.43-.43.76.76 0 01.64 0 .81.81 0 01.45.43c.04.1.06.2.06.32zm2.16 2.55a3.67 3.67 0 01.83-.63 2.32 2.32 0 011.9-.08c.24.11.45.26.61.46.17.2.3.43.38.7.09.28.13.58.13.9V27H65v-3.73c0-.4-.1-.7-.28-.92-.18-.22-.45-.33-.83-.33-.27 0-.53.06-.77.19-.23.13-.45.3-.66.52V27h-1.23v-5.86h.74c.17 0 .28.07.33.23l.08.54zm14.96.95c0 .61-.1 1.17-.3 1.68a3.78 3.78 0 01-2.15 2.16c-.5.2-1.07.3-1.69.3H70.1v-8.28h3.12c.62 0 1.19.1 1.7.3a3.71 3.71 0 012.14 2.16c.2.5.3 1.07.3 1.68zm-1.37 0c0-.48-.07-.9-.2-1.28a2.6 2.6 0 00-.55-.96 2.35 2.35 0 00-.87-.6 2.97 2.97 0 00-1.15-.21h-1.77v6.1h1.77c.43 0 .81-.07 1.15-.2a2.42 2.42 0 001.42-1.56c.13-.38.2-.81.2-1.29zm5.27 1.58a7.5 7.5 0 00-1.12.1c-.3.06-.55.13-.73.22a.97.97 0 00-.41.3.68.68 0 00-.12.4c0 .13.02.25.06.35.05.1.1.18.18.24.08.06.18.1.28.14a1.78 1.78 0 001.18-.14c.23-.12.46-.3.68-.53v-1.08zm-3.28-2.49a3.36 3.36 0 012.37-.92c.34 0 .63.05.9.16a1.83 1.83 0 011.06 1.18c.1.27.15.57.15.9V27h-.55a.56.56 0 01-.27-.05.42.42 0 01-.16-.23l-.12-.47-.44.36c-.15.1-.3.2-.46.26a2.77 2.77 0 01-1.75.12c-.2-.06-.38-.16-.53-.29a1.46 1.46 0 01-.48-1.18c0-.23.06-.45.18-.66.12-.22.32-.41.6-.58a4 4 0 011.1-.43 8.03 8.03 0 011.68-.19v-.39c0-.42-.1-.73-.27-.94-.18-.2-.45-.3-.8-.3-.23-.01-.43.02-.6.08a6.05 6.05 0 00-.74.39.54.54 0 01-.28.08.38.38 0 01-.22-.06.6.6 0 01-.15-.17l-.22-.4zm7.38 5.14c-.48 0-.86-.13-1.12-.4-.26-.28-.4-.67-.4-1.17v-3.41h-.64a.27.27 0 01-.18-.07c-.05-.04-.07-.11-.07-.2v-.5l.95-.14.27-1.7a.31.31 0 01.1-.15c.04-.04.1-.06.18-.06h.63v1.93h1.63v.89h-1.63v3.33c0 .2.05.37.16.48.1.11.24.17.41.17a.79.79 0 00.43-.12 4 4 0 00.12-.08.2.2 0 01.11-.04c.07 0 .13.04.17.11l.37.6c-.2.18-.42.3-.68.4a2.5 2.5 0 01-.8.13zm5.11-2.65a7.5 7.5 0 00-1.11.1 3 3 0 00-.74.22.97.97 0 00-.4.3.68.68 0 00-.13.4c0 .13.02.25.06.35.05.1.11.18.19.24s.17.1.28.14a1.78 1.78 0 001.18-.14c.23-.12.45-.3.67-.53v-1.08zm-3.28-2.49a3.36 3.36 0 012.37-.92c.34 0 .64.05.9.16.27.11.49.26.66.46.18.2.32.44.41.72.1.27.14.57.14.9V27h-.55a.56.56 0 01-.27-.05c-.06-.04-.11-.11-.15-.23l-.12-.47-.45.36c-.14.1-.3.2-.45.26a2.77 2.77 0 01-1.75.12c-.2-.06-.38-.16-.53-.29a1.46 1.46 0 01-.49-1.18c0-.23.06-.45.18-.66.12-.22.32-.41.6-.58.28-.17.65-.31 1.1-.43a8.03 8.03 0 011.68-.19v-.39c0-.42-.09-.73-.27-.94-.18-.2-.44-.3-.8-.3a1.5 1.5 0 00-.59.08 6.09 6.09 0 00-.74.39.54.54 0 01-.29.08.38.38 0 01-.22-.06.6.6 0 01-.14-.17l-.23-.4z" fill="#fff"/><path fill="#D42B21" d="M48 32.65h54V37H48z"/></svg></g><a href="https://ourworldindata.org/grapher/the-amount-of-cod-caught-in-the-grand-banks-north-atlantic-fisheries-18512018" target="_blank" rel="noopener" font-family="&quot;Playfair Display&quot;,Georgia,&quot;Times New Roman&quot;,serif"><text font-size="21.6" x="15" y="32.3" fill="#555"><tspan x="15" y="32.28">The amount of cod caught in the Grand Banks (North Atlantic) fisheries,</tspan><tspan x="15" y="53.88">1851 to 2018</tspan></text></a><text font-size="14.4" x="15" y="74.7" fill="#666"><tspan x="15" y="74.72">Unit 20 &apos;Capstone: Economics of the environment’ in The CORE Team, The Economy. Available at https://tinyco.re/20000330</tspan><tspan x="15" y="92">[Figure 20.3]</tspan></text></g><g class="LineChart"><defs><clipPath id="a"><path d="M68.97 101.2h840v441.6h-840z"/></clipPath></defs><g class="DualAxisView"><g class="HorizontalAxis"><path stroke="#999" d="M79 511.6v5M572.8 511.6v5M164.7 511.6v5M223.9 511.6v5M283 511.6v5M342.1 511.6v5M401.3 511.6v5M460.4 511.6v5"/><text x="78.97" y="532.8" fill="#666" text-anchor="start" font-size="16.2">1851</text><text x="572.79" y="532.8" fill="#666" text-anchor="end" font-size="16.2">2018</text><text x="164.7" y="532.8" fill="#666" text-anchor="middle" font-size="16.2">1880</text><text x="223.9" y="532.8" fill="#666" text-anchor="middle" font-size="16.2">1900</text><text x="283" y="532.8" fill="#666" text-anchor="middle" font-size="16.2">1920</text><text x="342.1" y="532.8" fill="#666" text-anchor="middle" font-size="16.2">1940</text><text x="401.3" y="532.8" fill="#666" text-anchor="middle" font-size="16.2">1960</text><text x="460.4" y="532.8" fill="#666" text-anchor="middle" font-size="16.2">1980</text></g><g class="VerticalAxis" text-anchor="end" fill="#666" font-size="16.2"><text x="73.97" y="511.6" dy=".32em">0</text><text x="73.97" y="457.4" dy=".32em">100,000</text><text x="73.97" y="403.2" dy=".32em">200,000</text><text x="73.97" y="349" dy=".32em">300,000</text><text x="73.97" y="294.8" dy=".32em">400,000</text><text x="73.97" y="240.6" dy=".32em">500,000</text><text x="73.97" y="186.5" dy=".32em">600,000</text><text x="73.97" y="132.3" dy=".32em">700,000</text></g><g class="AxisGridLines horizontalLines"><path stroke="#999" d="M78.97 511.6h493.82"/><path stroke="#ddd" stroke-dasharray="3,2" d="M78.97 457.4h493.82M78.97 403.2h493.82M78.97 349h493.82M78.97 294.8h493.82M78.97 240.6h493.82M78.97 186.5h493.82M78.97 132.3h493.82"/></g></g><g clip-path="url(#a)"><g class="LineLabels" cursor="default"><g class="legendMark"><text font-size="13.5" x="576.8" y="494.3" fill="#3C4E66"><tspan x="576.79" y="494.3">Grand Banks (North Atlantic) fisheries</tspan><tspan x="576.79" y="509.15">- Cod landings (tonnes)</tspan></text></g></g><g class="Lines"><g><path stroke-linecap="round" stroke-linejoin="round" stroke="#ddd" d="M79 443l2.9 3.5 3 3.5 2.9 4.5 3-5.4 3-17.2 2.9-9 3 10.4 2.9 3.4 3-11 2.9 1.8 3 1 3 7.6 2.9 5.3 3 1.8 2.9 4.3 3-1.6 2.9-2.1 3-9.5 3-4.6 2.9-1 3-2.8 2.9-8.9 3-17.1 2.9 13.8 3 12.5 3 .9 2.9-3.5 3-18.1 2.9-7.3 3-2.5 2.9 2.5 3-3.4 3-1.3 2.9 4.2 3 1 2.9 8.8 3 5 2.9 5 3 1.6 2.9-3.6 3 5.1 3 2.3 2.9-5.7 3-9.8 2.9 1.9 3 .5 2.9-8.2 3-4.5 3 3.4 2.9-8 3 .5 2.9 9 3 2.5 2.9-9.3 3-4.7 3-12 2.9-11 3 4 2.9 11.8 3 7.2 2.9 5.5 3 10.2 3 4.5 2.9-11.9 3-12 2.9-7.8 3 2.6 2.9-5.4 3 6.6 3-3 2.9 1.1 3 3.8 2.9 2.9 3-13.9 2.9-13.2 3 7.7 3 7.8 2.9 2.1 3 11.6 2.9 3.5 3-7.7 2.9-13.5 3-2.1 3 .9 2.9 8.2 3 1 2.9-3.3 3 24.6 2.9 9.6 3 6.4 3-8.5 2.9-16.6 3-12.9 2.9-6.5 3-10.6 2.9-.2 3 3.7 3-2.3 2.9 2.1 3 4.6 2.9 8.4 3-10.3 2.9-9.3 3-.8 3 8.3 2.9 16.6 3-38.2 2.9-63.4 3-30.1 2.9-10.5 3-9.7 3-29.9h2.9l3 19.5 2.9-38.2 3-71.3 2.9 4.2 3 90.9 3 59.5 2.9 13.5 3 33.3 2.9 3.6 3 31.8 2.9 44.6 3 32.4 3 4.6 2.9-8.9 3-1.5 2.9-10 3-17.9 2.9-4.6 3-.6 3-3.1 2.9-6.8 3 6.3 2.9-10.7 3 3.9 2.9 28.9 3 43.9 3 43.8 2.9 13.5 3 5.8h73.9" fill="none" stroke-width="1"/></g><g><path stroke="#3C4E66" stroke-linecap="round" stroke-linejoin="round" d="M79 443l2.9 3.5 3 3.5 2.9 4.5 3-5.4 3-17.2 2.9-9 3 10.4 2.9 3.4 3-11 2.9 1.8 3 1 3 7.6 2.9 5.3 3 1.8 2.9 4.3 3-1.6 2.9-2.1 3-9.5 3-4.6 2.9-1 3-2.8 2.9-8.9 3-17.1 2.9 13.8 3 12.5 3 .9 2.9-3.5 3-18.1 2.9-7.3 3-2.5 2.9 2.5 3-3.4 3-1.3 2.9 4.2 3 1 2.9 8.8 3 5 2.9 5 3 1.6 2.9-3.6 3 5.1 3 2.3 2.9-5.7 3-9.8 2.9 1.9 3 .5 2.9-8.2 3-4.5 3 3.4 2.9-8 3 .5 2.9 9 3 2.5 2.9-9.3 3-4.7 3-12 2.9-11 3 4 2.9 11.8 3 7.2 2.9 5.5 3 10.2 3 4.5 2.9-11.9 3-12 2.9-7.8 3 2.6 2.9-5.4 3 6.6 3-3 2.9 1.1 3 3.8 2.9 2.9 3-13.9 2.9-13.2 3 7.7 3 7.8 2.9 2.1 3 11.6 2.9 3.5 3-7.7 2.9-13.5 3-2.1 3 .9 2.9 8.2 3 1 2.9-3.3 3 24.6 2.9 9.6 3 6.4 3-8.5 2.9-16.6 3-12.9 2.9-6.5 3-10.6 2.9-.2 3 3.7 3-2.3 2.9 2.1 3 4.6 2.9 8.4 3-10.3 2.9-9.3 3-.8 3 8.3 2.9 16.6 3-38.2 2.9-63.4 3-30.1 2.9-10.5 3-9.7 3-29.9h2.9l3 19.5 2.9-38.2 3-71.3 2.9 4.2 3 90.9 3 59.5 2.9 13.5 3 33.3 2.9 3.6 3 31.8 2.9 44.6 3 32.4 3 4.6 2.9-8.9 3-1.5 2.9-10 3-17.9 2.9-4.6 3-.6 3-3.1 2.9-6.8 3 6.3 2.9-10.7 3 3.9 2.9 28.9 3 43.9 3 43.8 2.9 13.5 3 5.8h73.9" fill="none" stroke-width="1.5"/><g fill="#3C4E66"><circle cx="79" cy="443" r="2"/><circle cx="81.9" cy="446.5" r="2"/><circle cx="84.9" cy="450" r="2"/><circle cx="87.8" cy="454.5" r="2"/><circle cx="90.8" cy="449.1" r="2"/><circle cx="93.8" cy="431.9" r="2"/><circle cx="96.7" cy="422.9" r="2"/><circle cx="99.7" cy="433.3" r="2"/><circle cx="102.6" cy="436.7" r="2"/><circle cx="105.6" cy="425.7" r="2"/><circle cx="108.5" cy="427.5" r="2"/><circle cx="111.5" cy="428.5" r="2"/><circle cx="114.5" cy="436.1" r="2"/><circle cx="117.4" cy="441.4" r="2"/><circle cx="120.4" cy="443.2" r="2"/><circle cx="123.3" cy="447.5" r="2"/><circle cx="126.3" cy="445.9" r="2"/><circle cx="129.2" cy="443.8" r="2"/><circle cx="132.2" cy="434.3" r="2"/><circle cx="135.2" cy="429.7" r="2"/><circle cx="138.1" cy="428.7" r="2"/><circle cx="141.1" cy="425.9" r="2"/><circle cx="144" cy="417" r="2"/><circle cx="147" cy="399.9" r="2"/><circle cx="149.9" cy="413.7" r="2"/><circle cx="152.9" cy="426.2" r="2"/><circle cx="155.9" cy="427.1" r="2"/><circle cx="158.8" cy="423.6" r="2"/><circle cx="161.8" cy="405.5" r="2"/><circle cx="164.7" cy="398.2" r="2"/><circle cx="167.7" cy="395.7" r="2"/><circle cx="170.6" cy="398.2" r="2"/><circle cx="173.6" cy="394.8" r="2"/><circle cx="176.6" cy="393.5" r="2"/><circle cx="179.5" cy="397.7" r="2"/><circle cx="182.5" cy="398.7" r="2"/><circle cx="185.4" cy="407.5" r="2"/><circle cx="188.4" cy="412.5" r="2"/><circle cx="191.3" cy="417.5" r="2"/><circle cx="194.3" cy="419.1" r="2"/><circle cx="197.2" cy="415.5" r="2"/><circle cx="200.2" cy="420.6" r="2"/><circle cx="203.2" cy="422.9" r="2"/><circle cx="206.1" cy="417.2" r="2"/><circle cx="209.1" cy="407.4" r="2"/><circle cx="212" cy="409.3" r="2"/><circle cx="215" cy="409.8" r="2"/><circle cx="217.9" cy="401.6" r="2"/><circle cx="220.9" cy="397.1" r="2"/><circle cx="223.9" cy="400.5" r="2"/><circle cx="226.8" cy="392.5" r="2"/><circle cx="229.8" cy="393" r="2"/><circle cx="232.7" cy="402" r="2"/><circle cx="235.7" cy="404.5" r="2"/><circle cx="238.6" cy="395.2" r="2"/><circle cx="241.6" cy="390.5" r="2"/><circle cx="244.6" cy="378.5" r="2"/><circle cx="247.5" cy="367.5" r="2"/><circle cx="250.5" cy="371.5" r="2"/><circle cx="253.4" cy="383.3" r="2"/><circle cx="256.4" cy="390.5" r="2"/><circle cx="259.3" cy="396" r="2"/><circle cx="262.3" cy="406.2" r="2"/><circle cx="265.3" cy="410.7" r="2"/><circle cx="268.2" cy="398.8" r="2"/><circle cx="271.2" cy="386.8" r="2"/><circle cx="274.1" cy="379" r="2"/><circle cx="277.1" cy="381.6" r="2"/><circle cx="280" cy="376.2" r="2"/><circle cx="283" cy="382.8" r="2"/><circle cx="286" cy="379.8" r="2"/><circle cx="288.9" cy="380.9" r="2"/><circle cx="291.9" cy="384.7" r="2"/><circle cx="294.8" cy="387.6" r="2"/><circle cx="297.8" cy="373.7" r="2"/><circle cx="300.7" cy="360.5" r="2"/><circle cx="303.7" cy="368.2" r="2"/><circle cx="306.7" cy="376" r="2"/><circle cx="309.6" cy="378.1" r="2"/><circle cx="312.6" cy="389.7" r="2"/><circle cx="315.5" cy="393.2" r="2"/><circle cx="318.5" cy="385.5" r="2"/><circle cx="321.4" cy="372" r="2"/><circle cx="324.4" cy="369.9" r="2"/><circle cx="327.4" cy="370.8" r="2"/><circle cx="330.3" cy="379" r="2"/><circle cx="333.3" cy="380" r="2"/><circle cx="336.2" cy="376.7" r="2"/><circle cx="339.2" cy="401.3" r="2"/><circle cx="342.1" cy="410.9" r="2"/><circle cx="345.1" cy="417.3" r="2"/><circle cx="348.1" cy="408.8" r="2"/><circle cx="351" cy="392.2" r="2"/><circle cx="354" cy="379.3" r="2"/><circle cx="356.9" cy="372.8" r="2"/><circle cx="359.9" cy="362.2" r="2"/><circle cx="362.8" cy="362" r="2"/><circle cx="365.8" cy="365.7" r="2"/><circle cx="368.8" cy="363.4" r="2"/><circle cx="371.7" cy="365.5" r="2"/><circle cx="374.7" cy="370.1" r="2"/><circle cx="377.6" cy="378.5" r="2"/><circle cx="380.6" cy="368.2" r="2"/><circle cx="383.5" cy="358.9" r="2"/><circle cx="386.5" cy="358.1" r="2"/><circle cx="389.5" cy="366.4" r="2"/><circle cx="392.4" cy="383" r="2"/><circle cx="395.4" cy="344.8" r="2"/><circle cx="398.3" cy="281.4" r="2"/><circle cx="401.3" cy="251.3" r="2"/><circle cx="404.2" cy="240.8" r="2"/><circle cx="407.2" cy="231.1" r="2"/><circle cx="410.2" cy="201.2" r="2"/><circle cx="413.1" cy="201.2" r="2"/><circle cx="416.1" cy="220.7" r="2"/><circle cx="419" cy="182.5" r="2"/><circle cx="422" cy="111.2" r="2"/><circle cx="424.9" cy="115.4" r="2"/><circle cx="427.9" cy="206.3" r="2"/><circle cx="430.9" cy="265.8" r="2"/><circle cx="433.8" cy="279.3" r="2"/><circle cx="436.8" cy="312.6" r="2"/><circle cx="439.7" cy="316.2" r="2"/><circle cx="442.7" cy="348" r="2"/><circle cx="445.6" cy="392.6" r="2"/><circle cx="448.6" cy="425" r="2"/><circle cx="451.6" cy="429.6" r="2"/><circle cx="454.5" cy="420.7" r="2"/><circle cx="457.5" cy="419.2" r="2"/><circle cx="460.4" cy="409.2" r="2"/><circle cx="463.4" cy="391.3" r="2"/><circle cx="466.3" cy="386.7" r="2"/><circle cx="469.3" cy="386.1" r="2"/><circle cx="472.3" cy="383" r="2"/><circle cx="475.2" cy="376.2" r="2"/><circle cx="478.2" cy="382.5" r="2"/><circle cx="481.1" cy="371.8" r="2"/><circle cx="484.1" cy="375.7" r="2"/><circle cx="487" cy="404.6" r="2"/><circle cx="490" cy="448.5" r="2"/><circle cx="493" cy="492.3" r="2"/><circle cx="495.9" cy="505.8" r="2"/><circle cx="498.9" cy="511.6" r="2"/><circle cx="501.8" cy="511.6" r="2"/><circle cx="504.8" cy="511.6" r="2"/><circle cx="507.7" cy="511.6" r="2"/><circle cx="510.7" cy="511.6" r="2"/><circle cx="513.7" cy="511.6" r="2"/><circle cx="516.6" cy="511.6" r="2"/><circle cx="519.6" cy="511.6" r="2"/><circle cx="522.5" cy="511.6" r="2"/><circle cx="525.5" cy="511.6" r="2"/><circle cx="528.4" cy="511.6" r="2"/><circle cx="531.4" cy="511.6" r="2"/><circle cx="534.4" cy="511.6" r="2"/><circle cx="537.3" cy="511.6" r="2"/><circle cx="540.3" cy="511.6" r="2"/><circle cx="543.2" cy="511.6" r="2"/><circle cx="546.2" cy="511.6" r="2"/><circle cx="549.1" cy="511.6" r="2"/><circle cx="552.1" cy="511.6" r="2"/><circle cx="555.1" cy="511.6" r="2"/><circle cx="558" cy="511.6" r="2"/><circle cx="561" cy="511.6" r="2"/><circle cx="563.9" cy="511.6" r="2"/><circle cx="566.9" cy="511.6" r="2"/><circle cx="569.8" cy="511.6" r="2"/><circle cx="572.8" cy="511.6" r="2"/></g></g></g></g></g><g class="SourcesFooter" fill="#777"><g fill="#777"><text font-size="12.6" x="15" y="567.9"><tspan x="15" y="567.88">Source: Millennium Ecosystem Assessment (2005)</tspan></text></g><text font-size="12.6" x="15" y="582.5"><tspan x="15" y="582.48">Note: The Grand Banks fishery was closed in 1993. CC-BY-ND-NC</tspan></text><text font-size="12.6" x="538.9" y="567.9"><tspan x="538.9" y="567.88"><a target="_blank" href="https://tinyco.re/20000330" fill="#777">tinyco.re/20000330</a> • <a href="https://ourworldindata.org" target="_blank">Powered by ourworldindata.org</a></tspan></text></g></svg>