<svg xmlns="http://www.w3.org/2000/svg" version="1.1" style="font-family:Lato,'Helvetica Neue',Helvetica,Arial,sans-serif;font-size:18px;background-color:#fff;text-rendering:geometricPrecision;-webkit-font-smoothing:antialiased" width="850" height="600" viewBox="0 0 850 600"><g class="HeaderView"><g transform="matrix(.95 0 0 .95 739 15)"><svg className="coreLogo" width="102" height="37" viewBox="0 0 102 37" fill="none" xmlns="http://www.w3.org/2000/svg"><path d="M47 0H0v37h47V0z" fill="#EA4148"/><path d="M3.78 11.85c0-3.55 2.67-5.6 5.68-5.6a4.63 4.63 0 0 1 3.09 1.1l-1.7 2.36c-.31-.32-.74-.5-1.18-.52-1.36 0-2.16 1.03-2.16 2.66 0 1.62.89 2.65 2.03 2.65a2.93 2.93 0 0 0 1.7-.69l1.4 2.4a5.29 5.29 0 0 1-3.52 1.24c-3 0-5.34-2.05-5.34-5.6z" fill="#fff"/><path d="M18.85 11.85c0-1.63-.42-2.66-1.52-2.66s-1.52 1.03-1.52 2.66c0 1.62.42 2.65 1.52 2.65s1.52-1.03 1.52-2.65zm-6.77 0c0-3.55 2.54-5.6 5.25-5.6 2.7 0 5.25 2.05 5.25 5.6s-2.54 5.6-5.25 5.6-5.25-2.05-5.25-5.6M23.34 6.5h2.97l.25 1.84h.09c.78-1.46 1.97-2.1 3-2.1.45-.02.9.05 1.32.22l-.6 3.16c-.38-.1-.78-.16-1.18-.17-.76 0-1.7.47-2.2 1.8v5.94h-3.65V6.5zm13.64 4.06c0-.81-.34-1.54-1.44-1.54-.8 0-1.49.47-1.7 1.54h3.14zm-6.6 1.29c0-3.47 2.49-5.6 5.07-5.6 3.13 0 4.62 2.3 4.62 5.17 0 .52-.05 1.03-.15 1.54h-6.04c.34 1.28 1.27 1.71 2.46 1.71a4.3 4.3 0 0 0 2.16-.64l1.18 2.18a7.08 7.08 0 0 1-3.85 1.24c-3.09 0-5.46-2.05-5.46-5.6" fill="#fff"/><path d="M10.43 23.87c0-.81-.34-1.54-1.44-1.54-.8 0-1.48.47-1.69 1.54h3.13zm-6.6 1.28c0-3.46 2.5-5.6 5.08-5.6 3.13 0 4.61 2.3 4.61 5.18 0 .51-.05 1.03-.15 1.54H7.34c.34 1.28 1.27 1.7 2.46 1.7.76-.01 1.5-.23 2.16-.63l1.18 2.18a7.08 7.08 0 0 1-3.85 1.24c-3.1 0-5.46-2.06-5.46-5.6m10.07-.01c0-3.55 2.67-5.6 5.68-5.6a4.63 4.63 0 0 1 3.09 1.11l-1.7 2.35c-.32-.31-.74-.5-1.18-.51-1.36 0-2.16 1.03-2.16 2.65 0 1.63.89 2.66 2.03 2.66a2.93 2.93 0 0 0 1.7-.69l1.39 2.4a5.29 5.29 0 0 1-3.51 1.24c-3 0-5.34-2.06-5.34-5.6" fill="#1A1818"/><path d="M28.97 25.15c0-1.62-.42-2.65-1.52-2.65s-1.52 1.03-1.52 2.65c0 1.63.42 2.66 1.52 2.66s1.52-1.03 1.52-2.66zm-6.77 0c0-3.55 2.54-5.6 5.25-5.6 2.7 0 5.25 2.05 5.25 5.6s-2.54 5.6-5.25 5.6-5.25-2.04-5.25-5.6m11.34-5.35h2.97l.25 1.29h.09a4.76 4.76 0 0 1 3.34-1.54c2.33 0 3.3 1.71 3.3 4.36v6.6h-3.64v-6.13c0-1.37-.34-1.7-1.06-1.7-.67 0-1.05.3-1.6.8v7.02h-3.65V19.8z" fill="#1A1818"/><path fill="#fff" d="M48 0h54v37H48z"/><path d="M48 0h53.93v33H48V0z" fill="#002147"/><path d="M58.42 10.86c0 .61-.1 1.18-.3 1.7a3.83 3.83 0 0 1-2.15 2.21c-.5.21-1.07.32-1.7.32-.6 0-1.17-.1-1.68-.32a3.9 3.9 0 0 1-2.15-2.21c-.2-.52-.3-1.09-.3-1.7 0-.61.1-1.18.3-1.7a3.93 3.93 0 0 1 2.15-2.22 4.38 4.38 0 0 1 1.69-.31c.62 0 1.18.1 1.69.31a3.79 3.79 0 0 1 2.15 2.22c.2.52.3 1.09.3 1.7zm-1.38 0c0-.48-.06-.9-.2-1.28A2.38 2.38 0 0 0 55.43 8a2.97 2.97 0 0 0-1.14-.21c-.42 0-.8.07-1.15.21-.34.14-.63.35-.87.61a2.8 2.8 0 0 0-.56.97c-.13.38-.2.8-.2 1.28s.07.9.2 1.29a2.46 2.46 0 0 0 1.43 1.57c.35.14.73.2 1.15.2.42 0 .8-.06 1.15-.2a2.4 2.4 0 0 0 1.42-1.57c.13-.38.2-.81.2-1.29zm7.14-1.72V15h-.74c-.17 0-.27-.08-.32-.24l-.1-.54a3.42 3.42 0 0 1-.81.63 2.3 2.3 0 0 1-1.06.24c-.32 0-.6-.05-.85-.16a1.72 1.72 0 0 1-1-1.15 3.1 3.1 0 0 1-.12-.91V9.14h1.24v3.73c0 .4.09.7.27.92.18.22.46.32.83.32.27 0 .53-.06.76-.18.24-.13.46-.3.67-.52V9.13h1.23zm2.33 1.08c.18-.37.4-.66.66-.87.27-.22.58-.32.94-.32a1.34 1.34 0 0 1 .66.17l-.09.93a.26.26 0 0 1-.07.14.2.2 0 0 1-.13.03c-.06 0-.14 0-.25-.03a1.62 1.62 0 0 0-.8.04c-.13.05-.25.13-.35.22-.1.1-.2.21-.28.35-.08.14-.15.3-.22.47V15h-1.24V9.13h.72c.13 0 .22.03.27.08.05.05.08.13.1.25l.08.76zm16-3.5L79.94 15h-1.21l-1.95-5.95a4.7 4.7 0 0 1-.12-.46 3.32 3.32 0 0 1-.13.46L74.57 15h-1.22l-2.57-8.28h1.13c.11 0 .2.03.28.09.08.05.14.12.16.22l1.56 5.3a6.11 6.11 0 0 1 .16.8 10 10 0 0 1 .2-.8l1.78-5.3a.48.48 0 0 1 .16-.21.4.4 0 0 1 .28-.1h.4c.11 0 .21.03.28.1.08.05.13.12.17.21l1.77 5.3.1.37.1.4a59.35 59.35 0 0 0 .16-.76L81 7.03a.4.4 0 0 1 .16-.22.49.49 0 0 1 .3-.09h1.04zm2.41 2.32c.44 0 .83.07 1.18.22a2.49 2.49 0 0 1 1.47 1.55c.13.37.2.79.2 1.25 0 .47-.07.88-.2 1.26-.14.37-.33.69-.58.95a2.87 2.87 0 0 1-2.07.82c-.43 0-.83-.07-1.18-.22a2.55 2.55 0 0 1-1.47-1.55c-.14-.38-.2-.8-.2-1.26 0-.46.06-.88.2-1.25a2.55 2.55 0 0 1 1.47-1.55c.35-.15.75-.22 1.18-.22zm0 5.08c.53 0 .92-.18 1.18-.53.26-.36.4-.86.4-1.52s-.14-1.17-.4-1.53c-.26-.36-.65-.54-1.18-.54-.53 0-.93.18-1.2.54-.25.36-.38.87-.38 1.53s.13 1.16.39 1.52c.26.35.66.53 1.2.53zm4.86-3.9c.18-.37.4-.66.67-.87.26-.22.57-.32.93-.32a1.34 1.34 0 0 1 .66.17l-.09.93a.26.26 0 0 1-.07.14.2.2 0 0 1-.13.03c-.06 0-.14 0-.25-.03a1.62 1.62 0 0 0-.8.04 1.29 1.29 0 0 0-.63.57c-.08.14-.15.3-.22.47V15H88.6V9.13h.72c.13 0 .22.03.27.08.05.05.08.13.1.25l.08.76zm4-3.73V15h-1.25V6.49h1.24zm4.91 4.09a1.45 1.45 0 0 0-1.24-.6c-.48 0-.86.18-1.13.54-.27.35-.4.87-.4 1.56 0 .37.02.67.08.93.07.25.15.46.27.62.11.16.25.28.42.35.16.08.35.11.56.11.31 0 .58-.07.8-.2.24-.14.45-.33.64-.58v-2.73zm1.24-4.09V15h-.75c-.16 0-.27-.08-.31-.24l-.11-.63c-.25.28-.53.52-.84.7-.31.17-.67.26-1.09.26a1.96 1.96 0 0 1-1.59-.78 2.73 2.73 0 0 1-.44-.94 4.86 4.86 0 0 1 .01-2.5c.12-.37.3-.7.51-.96a2.3 2.3 0 0 1 1.85-.88c.34 0 .63.05.88.16.24.11.45.26.64.46V6.49h1.24zm-39.9 14.65V27h-1.24v-5.86h1.24zm.2-1.78c0 .12-.02.22-.06.32a.83.83 0 0 1-1.34.26.8.8 0 0 1-.24-.58c0-.11.02-.22.06-.32a.89.89 0 0 1 .43-.43.76.76 0 0 1 .64 0 .81.81 0 0 1 .45.43c.04.1.06.2.06.32zm2.16 2.55a3.67 3.67 0 0 1 .83-.63 2.32 2.32 0 0 1 1.9-.08c.24.11.45.26.61.46.17.2.3.43.38.7.09.28.13.58.13.9V27H65v-3.73c0-.4-.1-.7-.28-.92-.18-.22-.45-.33-.83-.33-.27 0-.53.06-.77.19-.23.13-.45.3-.66.52V27h-1.23v-5.86h.74c.17 0 .28.07.33.23l.08.54zm14.96.95c0 .61-.1 1.17-.3 1.68a3.78 3.78 0 0 1-2.15 2.16c-.5.2-1.07.3-1.69.3H70.1v-8.28h3.12c.62 0 1.19.1 1.7.3a3.71 3.71 0 0 1 2.14 2.16c.2.5.3 1.07.3 1.68zm-1.37 0c0-.48-.07-.9-.2-1.28a2.6 2.6 0 0 0-.55-.96 2.35 2.35 0 0 0-.87-.6 2.97 2.97 0 0 0-1.15-.21h-1.77v6.1h1.77c.43 0 .81-.07 1.15-.2a2.42 2.42 0 0 0 1.42-1.56c.13-.38.2-.81.2-1.29zm5.27 1.58a7.5 7.5 0 0 0-1.12.1c-.3.06-.55.13-.73.22a.97.97 0 0 0-.41.3.68.68 0 0 0-.12.4c0 .13.02.25.06.35.05.1.1.18.18.24.08.06.18.1.28.14a1.78 1.78 0 0 0 1.18-.14c.23-.12.46-.3.68-.53v-1.08zm-3.28-2.49a3.36 3.36 0 0 1 2.37-.92c.34 0 .63.05.9.16a1.83 1.83 0 0 1 1.06 1.18c.1.27.15.57.15.9V27h-.55a.56.56 0 0 1-.27-.05.42.42 0 0 1-.16-.23l-.12-.47-.44.36c-.15.1-.3.2-.46.26a2.77 2.77 0 0 1-1.75.12c-.2-.06-.38-.16-.53-.29a1.46 1.46 0 0 1-.48-1.18c0-.23.06-.45.18-.66.12-.22.32-.41.6-.58a4 4 0 0 1 1.1-.43 8.03 8.03 0 0 1 1.68-.19v-.39c0-.42-.1-.73-.27-.94-.18-.2-.45-.3-.8-.3-.23-.01-.43.02-.6.08a6.05 6.05 0 0 0-.74.39.54.54 0 0 1-.28.08.38.38 0 0 1-.22-.06.6.6 0 0 1-.15-.17l-.22-.4zm7.38 5.14c-.48 0-.86-.13-1.12-.4-.26-.28-.4-.67-.4-1.17v-3.41h-.64a.27.27 0 0 1-.18-.07c-.05-.04-.07-.11-.07-.2v-.5l.95-.14.27-1.7a.31.31 0 0 1 .1-.15c.04-.04.1-.06.18-.06h.63v1.93h1.63v.89h-1.63v3.33c0 .2.05.37.16.48.1.11.24.17.41.17a.79.79 0 0 0 .43-.12 4 4 0 0 0 .12-.08.2.2 0 0 1 .11-.04c.07 0 .13.04.17.11l.37.6c-.2.18-.42.3-.68.4a2.5 2.5 0 0 1-.8.13zm5.11-2.65a7.5 7.5 0 0 0-1.11.1 3 3 0 0 0-.74.22.97.97 0 0 0-.4.3.68.68 0 0 0-.13.4c0 .13.02.25.06.35.05.1.11.18.19.24s.17.1.28.14a1.78 1.78 0 0 0 1.18-.14c.23-.12.45-.3.67-.53v-1.08zm-3.28-2.49a3.36 3.36 0 0 1 2.37-.92c.34 0 .64.05.9.16.27.11.49.26.66.46.18.2.32.44.41.72.1.27.14.57.14.9V27h-.55a.56.56 0 0 1-.27-.05c-.06-.04-.11-.11-.15-.23l-.12-.47-.45.36c-.14.1-.3.2-.45.26a2.77 2.77 0 0 1-1.75.12c-.2-.06-.38-.16-.53-.29a1.46 1.46 0 0 1-.49-1.18c0-.23.06-.45.18-.66.12-.22.32-.41.6-.58.28-.17.65-.31 1.1-.43a8.03 8.03 0 0 1 1.68-.19v-.39c0-.42-.09-.73-.27-.94-.18-.2-.44-.3-.8-.3a1.5 1.5 0 0 0-.59.08 6.09 6.09 0 0 0-.74.39.54.54 0 0 1-.29.08.38.38 0 0 1-.22-.06.6.6 0 0 1-.14-.17l-.23-.4z" fill="#fff"/><path fill="#D42B21" d="M48 32.65h54V37H48z"/></svg></g><a href="https://ourworldindata.org/grapher/the-growth-rate-of-productivity-over-the-long-run-14002009" style="font-family:&quot;Playfair Display&quot;,Georgia,&quot;Times New Roman&quot;,serif" target="_blank" rel="noopener"><text font-size="24.3" x="15" y="34.4" fill="#555"><tspan x="15" y="34.44">The growth rate of productivity over the long run, 1400 to 2015</tspan></text></a><text font-size="14.4" x="15" y="54.8" fill="#666"><tspan x="15" y="54.82">Unit 21 &apos;Capstone: Innovation, information, and the networked economy&apos; Section 21.1 &apos;The innovation</tspan><tspan x="15" y="72.1">process: Invention and diffusion&apos; in The CORE Team, The Economy. Available at https://tinyco.re/21010331</tspan><tspan x="15" y="89.38">[Figure 21.4]</tspan></text></g><g class="LineChart"><defs><clipPath id="a"><path d="M32.68 96.9h840v445.9h-840z"/></clipPath></defs><g class="DualAxisView"><g class="HorizontalAxis"><path stroke="#999" d="M42.7 511.6v5M577 511.6v5M129.6 511.6v5M216.4 511.6v5M303.3 511.6v5M390.2 511.6v5M477.1 511.6v5"/><text x="42.68" y="532.8" fill="#666" text-anchor="start" font-size="16.2">1400</text><text x="576.98" y="532.8" fill="#666" text-anchor="end" font-size="16.2">2015</text><text x="129.6" y="532.8" fill="#666" text-anchor="middle" font-size="16.2">1500</text><text x="216.4" y="532.8" fill="#666" text-anchor="middle" font-size="16.2">1600</text><text x="303.3" y="532.8" fill="#666" text-anchor="middle" font-size="16.2">1700</text><text x="390.2" y="532.8" fill="#666" text-anchor="middle" font-size="16.2">1800</text><text x="477.1" y="532.8" fill="#666" text-anchor="middle" font-size="16.2">1900</text></g><g class="VerticalAxis" text-anchor="end" fill="#666" font-size="16.2"><text x="37.68" y="449.6" dy=".32em">0</text><text x="37.68" y="386.9" dy=".32em">0.5</text><text x="37.68" y="324.1" dy=".32em">1</text><text x="37.68" y="261.4" dy=".32em">1.5</text><text x="37.68" y="198.6" dy=".32em">2</text><text x="37.68" y="135.9" dy=".32em">2.5</text></g><g class="AxisGridLines horizontalLines"><path stroke="#999" d="M42.68 449.6h534.3"/><path stroke="#ddd" stroke-dasharray="3,2" d="M42.68 386.9h534.3M42.68 324.1h534.3M42.68 261.4h534.3M42.68 198.6h534.3M42.68 135.9h534.3"/></g></g><g clip-path="url(#a)"><g class="LineLabels" style="cursor:default"><g class="legendMark"><text font-size="13.5" font-weight="400" x="581" y="230.3" fill="#00847e"><tspan x="580.98" y="230.3">United Kingdom - Growth Rate of</tspan><tspan x="580.98" y="245.15">GDP per capita</tspan></text></g><g class="legendMark"><text font-size="13.5" font-weight="400" x="581" y="260.4" fill="#b13507"><tspan x="580.98" y="260.4">United States - Growth Rate of Labor</tspan><tspan x="580.98" y="275.25">Productivity</tspan></text></g><g class="legendMark"><text font-size="13.5" font-weight="400" x="581" y="431.3" fill="#3c4e66"><tspan x="580.98" y="431.3">United Kingdom - Growth Rate of</tspan><tspan x="580.98" y="446.15">Labor Productivity</tspan></text></g><g class="legendMark"><text font-size="13.5" font-weight="400" x="581" y="461.4" fill="#6d3e91"><tspan x="580.98" y="461.4">United States - Growth Rate of GDP</tspan><tspan x="580.98" y="476.25">per capita</tspan></text></g></g><g class="Lines"><g><path stroke-linecap="round" stroke-linejoin="round" stroke="#ddd" d="M529.2 449.6H577" fill="none" stroke-width="1"/></g><g><path stroke-linecap="round" stroke-linejoin="round" stroke="#ddd" d="m42.7 342.3.8-.3.9 46.6.9 13.8.9 12.6.8-29.4.9 4.2.9 4.7.8 11.4.9-19 .9 17.5.8 5.4.9 46.5.9 11.7.8-31.8.9-2.9.9-18.2.8 59.1.9 22.8.9-96.1.9 25.1.8 24 .9-14.3.9-11.4.8 9.5.9 10.9.9-14.7.8-3.4.9 10.1.9 2 .8 4.3.9 2.6.9-20.7.8 21.9.9-33.2.9 12.9.9 15.9.8-5.9.9-29 .9-26.2.8 56.6.9 13.4.9-6.8.8 16.1.9-23.5.9 16.9.8 1.4.9-5.2.9.1.9 16.4.8-11.1.9-.9.9 11 .8-17.7.9-22.1.9-5.3.8.4.9 13.2.9 8.8.8-4 .9 18.2.9-13.5.8-43.5.9 12.3.9 8 .9 6.6.8 1.5.9-30.4.9 6.8.8 57.6.9-11.4.9-28.8.8 24.7.9-9.8.9 6.9.8-20.8.9 12.8.9 9.8.8-11.9.9-8.1h.9l.9-4.3.8 2.2.9-16.5.9 11.7.8-15 .9 9.3.9-3.6.8 35 .9-7.4.9-21.1.8-13.5.9.7.9 7.4.8 10.1.9-.7.9-3.2.9-16.5.8 4.5.9-6.4.9 10.6.8-5.2.9-19 .9 30 .8 5.6.9 11.3.9 4.9.8-2 .9-19 .9 14.3.8-12.9.9 4.1.9 30.8.9-40.2.8 19.5.9-13.4.9 10.7.8 9.8.9-5.3.9 4.7.8-1.3.9 2.5.9-11.9.8-3.6.9 13.7.9 11.6.8-.9.9-1.9.9 20.5.9-31.4.8 23.4.9 4.8.9 48.1.8-29.1.9-72.1.9 24.4.8-10.7.9.8.9-9.4.8-11.3.9 8.1.9 6.6.8-32.4.9 16.6.9 1.9.9-.8.8 16.8.9 5.2.9 12.7.8-31.8.9 32.1.9-30.2.8-6.6.9 20.1.9-33.2.8 7.4.9 16.4.9-.4.8 34.7.9-33.7.9 19.8.9 13.4.8 3.3.9-8.8.9-45.8.8 50.7.9-23.8.9-9.5.8-12 .9-23.9.9 60.3.8-7.7.9 16.5.9 31.5.8-60 .9-46 .9 10 .9-4.6.8-23.9.9 27.5.9-39.3.8 24.8.9-59 .9 47.5.8 88.4.9-52 .9-13.5.8 24.8.9 9.4.9 31 .8-.3.9-20.9.9 43.8.9-42.4.8.1.9 20.1.9-61.4.8 1.3.9 25.5.9 37.9.8-63.6.9 25.3.9 16.6.8-39.3.9 3.5.9 62 .8-11.9.9-15.2.9-58 .9 51.3.8-12.7.9-40.1h.9l.8 35.2.9 6.3.9-34.6.8 7.7.9 29.1.9-2.9.8 1 .9-50.3.9 33.5.8-14.9.9-10 .9 44.9.9 39.5.8-3.3.9-17.1.9-19.7.8-15.1.9 18.2.9-37.8.8 29.9.9-8.7.9-9.8.8 77 .9-9 .9-26.3.8-20.1.9-54 .9 7.9.9 9.5.8-44.2.9 18.7.9 27.9.8-28.8.9 47.7.9 6.6.8-32.7.9-7 .9 46.1.8-4.1.9-55.3.9 19 .9 21.8.8-49.9.9-33.9.9 29.5.8 12.6.9-40 .9 43.7.8-12.5.9 11.9.9-36.5.8 6.2.9 13.2.9-10.6.8-28.9.9 2.4.9 52.3.9-45 .8-22.7.9 13.2.9 1.7.8-2.6.9 5.3.9-19.9.8-6.8.9 40.1.9 47.1.8-48.5.9 23.7.9 20.6.8-44.8.9-18.9.9-4.4.9 47.3.8-17.9.9 8.2.9 55.6.8-40.9.9 18.3.9 22 .8-5.1.9-41.7.9 12.8.8-24.3.9 1.7.9-4.1.8 11.9.9-8.6.9.9.9 55.6.8-15.7.9-1 .9-6.6.8 22.6.9-19.4.9 2.7.8 15.9.9-37.3.9 29.3.8-35.6.9 43.2.9 15.4.8-7.4.9 22.8.9-5.4.9 11.9.8-32.7.9 53.3.9-12.1.8-17.3.9-13.6.9 9.3.8-6.7.9 7.5.9 27.9.8-18.9.9-18.5.9 55.1.8-19.3.9-32.9.9 16.7.9 12.3.8-37.2.9-29.1.9 14.7.8 8.1.9-10.9.9 25.5.8-3.6.9 5.7.9 11.3.8 10.7.9-18.7.9 25.7.8-12.8.9 10.7.9-9.5.9 3.9.8.3.9-15.7.9-7.5.8 14.3.9-7 .9-1.3.8-8.2.9 19.9.9 6 .8-2 .9-4.2.9 14.9.8-7.9.9 6.8.9-5.7.9-21.7.8 9 .9 1.3.9.8.8 5 .9-23 .9 4.2.8 15.5.9-2.9.9-6.6.8-8.7.9-7.6.9 10 .8 8.5.9-5 .9-5.3.9-1.7.8.5.9 17.7.9-1.4.8-7.1.9 14.1.9 6.2.8-9.7.9 7.9.9-26.2.8 19.5.9.8.9 5.8.8 20.1.9-24.9.9 3 .9-8.9.8-.7.9-17.3.9 3.3.8 22.3.9-11.3.9-1.5.8-1.7.9 2.3.9 4.7.8-9.1.9-.8.9-4.3.8-19.2.9-3.3.9-1.9.9-10.1.8 7.5.9 7.2.9 5.6.8 12.8.9-16 .9-29.1.8 15.8.9 5 .9.7.8-8 .9.1.9 15.8.8-7.8.9-7.7.9-13.9.9-13 .8 19.4.9-18.5.9 12.5.8-7.8.9-3.3.9 10.1.8-2.8.9-1.1.9-11.6.8-13.8.9 18.6.9-22.7.8 1.5.9-13.8.9-7.7.9 7.8.8 1.5.9 1.8.9.1.8 8.6.9-1.2.9-15.9.8 16.5.9-.8.9 2.6.8-1.3.9-6.6.9-.3.9-.7.8 4.6.9 18.8.9 3.4.8-12.7.9-2.1.9-16.3.8 10 .9-5.4.9 2.9.8 11.9.9 4.7.9 3 .8-10.7.9-6.4.9-1.9.9-4.2.8-.7.9 11 .9 4.4.8 10.9.9 10.2.9-13.3.8 8.1.9-2 .9 5.6.8 4.6.9-2.6.9-8.2.8-15.5.9 13 .9 6.8.9-11.9.8 3.7.9-.2.9 10.8.8 29.8.9 28 .9 6.7.8-23.3.9-3.5.9-7.1.8-8.2.9 9.7.9-19.9.8-3.9.9-10.8.9 12 .9 20.2.8 4.5.9-6.4.9-17.6.8-12.1.9-8.6h.9l.8 7 .9 11.3.9-24.9.8-25.3.9-13.7.9-6 .8 25.1.9 17.1.9 18.8.9 5.9.8 4 .9-.2.9-3.7.8-9.3.9 5.1.9-14 .8-10.3.9-3.2.9 4 .8-.4.9-11 .9-5.4.8-7 .9-1.1.9 2.3.9.1.8-13.9.9 10.8.9-1.6.8-5.2.9-10 .9-33.3.8-24.5.9-12.1.9 14 .8-9.6.9 12 .9 11.6.8-15.8.9 13.7.9-7 .9.2.8 1.7.9-10.4.9-3.6.8-2.5.9 9.9.9.4h.8l.9-3.5.9-9.7.8-4.9.9 23.5.9 26.7.8 5.3.9-2 .9-19.8.9-17.2.8-16.6.9-12.1.9-1.7.8.7.9-8.8.9 1 .8-5.8.9 1.8.9 4.7.8 2.7.9-2.2.9-1.4.8 2.2.9 21.5.9 9.7.9 4.6.8-1.3.9 5 .9 5.7.8 1.4.9.7.9 1.2.8 7.1" fill="none" stroke-width="1"/></g><g><path stroke-linecap="round" stroke-linejoin="round" stroke="#ddd" d="m530.1 117.1.8-10.2.9 3.3.9 7.3.8 21 .9 6.2.9-12 .8 12.4.9 12.3.9 18.3.9 10.7.8 7.8.9 21.9.9 5.2.8 5.7.9 7.4.9 4.1.8 7.2.9 10.3.9-1.8.8 2.8.9 16.2.9-6.9.8 12.1.9-10.1.9 13.3.9 2.8.8-4.8.9-8.9.9-17 .8-15.2.9-1 .9-19.2.8-4.1.9-3.2.9-1.5.8 8.7.9-3.9.9 1.8.8-13.3.9-6.9.9 7.1.9 19.8.8-1 .9.6.9-2.1.8 9.5.9 5.5.9 7.9.8 10.4.9.6.9 5.8" fill="none" stroke-width="1"/></g><g><path stroke-linecap="round" stroke-linejoin="round" stroke="#ddd" d="M42.7 449.6H571.8" fill="none" stroke-width="1"/></g><g fill="none" stroke-linecap="butt" stroke-linejoin="round"><path stroke="#fff" stroke-width="2.5" d="M529.2 449.6H577"/><path stroke-width="1.5" stroke="#6D3E91" d="M529.2 449.6H577"/></g><g fill="none" stroke-linecap="butt" stroke-linejoin="round"><path stroke="#fff" stroke-width="2.5" d="m42.7 342.3.8-.3.9 46.6.9 13.8.9 12.6.8-29.4.9 4.2.9 4.7.8 11.4.9-19 .9 17.5.8 5.4.9 46.5.9 11.7.8-31.8.9-2.9.9-18.2.8 59.1.9 22.8.9-96.1.9 25.1.8 24 .9-14.3.9-11.4.8 9.5.9 10.9.9-14.7.8-3.4.9 10.1.9 2 .8 4.3.9 2.6.9-20.7.8 21.9.9-33.2.9 12.9.9 15.9.8-5.9.9-29 .9-26.2.8 56.6.9 13.4.9-6.8.8 16.1.9-23.5.9 16.9.8 1.4.9-5.2.9.1.9 16.4.8-11.1.9-.9.9 11 .8-17.7.9-22.1.9-5.3.8.4.9 13.2.9 8.8.8-4 .9 18.2.9-13.5.8-43.5.9 12.3.9 8 .9 6.6.8 1.5.9-30.4.9 6.8.8 57.6.9-11.4.9-28.8.8 24.7.9-9.8.9 6.9.8-20.8.9 12.8.9 9.8.8-11.9.9-8.1h.9l.9-4.3.8 2.2.9-16.5.9 11.7.8-15 .9 9.3.9-3.6.8 35 .9-7.4.9-21.1.8-13.5.9.7.9 7.4.8 10.1.9-.7.9-3.2.9-16.5.8 4.5.9-6.4.9 10.6.8-5.2.9-19 .9 30 .8 5.6.9 11.3.9 4.9.8-2 .9-19 .9 14.3.8-12.9.9 4.1.9 30.8.9-40.2.8 19.5.9-13.4.9 10.7.8 9.8.9-5.3.9 4.7.8-1.3.9 2.5.9-11.9.8-3.6.9 13.7.9 11.6.8-.9.9-1.9.9 20.5.9-31.4.8 23.4.9 4.8.9 48.1.8-29.1.9-72.1.9 24.4.8-10.7.9.8.9-9.4.8-11.3.9 8.1.9 6.6.8-32.4.9 16.6.9 1.9.9-.8.8 16.8.9 5.2.9 12.7.8-31.8.9 32.1.9-30.2.8-6.6.9 20.1.9-33.2.8 7.4.9 16.4.9-.4.8 34.7.9-33.7.9 19.8.9 13.4.8 3.3.9-8.8.9-45.8.8 50.7.9-23.8.9-9.5.8-12 .9-23.9.9 60.3.8-7.7.9 16.5.9 31.5.8-60 .9-46 .9 10 .9-4.6.8-23.9.9 27.5.9-39.3.8 24.8.9-59 .9 47.5.8 88.4.9-52 .9-13.5.8 24.8.9 9.4.9 31 .8-.3.9-20.9.9 43.8.9-42.4.8.1.9 20.1.9-61.4.8 1.3.9 25.5.9 37.9.8-63.6.9 25.3.9 16.6.8-39.3.9 3.5.9 62 .8-11.9.9-15.2.9-58 .9 51.3.8-12.7.9-40.1h.9l.8 35.2.9 6.3.9-34.6.8 7.7.9 29.1.9-2.9.8 1 .9-50.3.9 33.5.8-14.9.9-10 .9 44.9.9 39.5.8-3.3.9-17.1.9-19.7.8-15.1.9 18.2.9-37.8.8 29.9.9-8.7.9-9.8.8 77 .9-9 .9-26.3.8-20.1.9-54 .9 7.9.9 9.5.8-44.2.9 18.7.9 27.9.8-28.8.9 47.7.9 6.6.8-32.7.9-7 .9 46.1.8-4.1.9-55.3.9 19 .9 21.8.8-49.9.9-33.9.9 29.5.8 12.6.9-40 .9 43.7.8-12.5.9 11.9.9-36.5.8 6.2.9 13.2.9-10.6.8-28.9.9 2.4.9 52.3.9-45 .8-22.7.9 13.2.9 1.7.8-2.6.9 5.3.9-19.9.8-6.8.9 40.1.9 47.1.8-48.5.9 23.7.9 20.6.8-44.8.9-18.9.9-4.4.9 47.3.8-17.9.9 8.2.9 55.6.8-40.9.9 18.3.9 22 .8-5.1.9-41.7.9 12.8.8-24.3.9 1.7.9-4.1.8 11.9.9-8.6.9.9.9 55.6.8-15.7.9-1 .9-6.6.8 22.6.9-19.4.9 2.7.8 15.9.9-37.3.9 29.3.8-35.6.9 43.2.9 15.4.8-7.4.9 22.8.9-5.4.9 11.9.8-32.7.9 53.3.9-12.1.8-17.3.9-13.6.9 9.3.8-6.7.9 7.5.9 27.9.8-18.9.9-18.5.9 55.1.8-19.3.9-32.9.9 16.7.9 12.3.8-37.2.9-29.1.9 14.7.8 8.1.9-10.9.9 25.5.8-3.6.9 5.7.9 11.3.8 10.7.9-18.7.9 25.7.8-12.8.9 10.7.9-9.5.9 3.9.8.3.9-15.7.9-7.5.8 14.3.9-7 .9-1.3.8-8.2.9 19.9.9 6 .8-2 .9-4.2.9 14.9.8-7.9.9 6.8.9-5.7.9-21.7.8 9 .9 1.3.9.8.8 5 .9-23 .9 4.2.8 15.5.9-2.9.9-6.6.8-8.7.9-7.6.9 10 .8 8.5.9-5 .9-5.3.9-1.7.8.5.9 17.7.9-1.4.8-7.1.9 14.1.9 6.2.8-9.7.9 7.9.9-26.2.8 19.5.9.8.9 5.8.8 20.1.9-24.9.9 3 .9-8.9.8-.7.9-17.3.9 3.3.8 22.3.9-11.3.9-1.5.8-1.7.9 2.3.9 4.7.8-9.1.9-.8.9-4.3.8-19.2.9-3.3.9-1.9.9-10.1.8 7.5.9 7.2.9 5.6.8 12.8.9-16 .9-29.1.8 15.8.9 5 .9.7.8-8 .9.1.9 15.8.8-7.8.9-7.7.9-13.9.9-13 .8 19.4.9-18.5.9 12.5.8-7.8.9-3.3.9 10.1.8-2.8.9-1.1.9-11.6.8-13.8.9 18.6.9-22.7.8 1.5.9-13.8.9-7.7.9 7.8.8 1.5.9 1.8.9.1.8 8.6.9-1.2.9-15.9.8 16.5.9-.8.9 2.6.8-1.3.9-6.6.9-.3.9-.7.8 4.6.9 18.8.9 3.4.8-12.7.9-2.1.9-16.3.8 10 .9-5.4.9 2.9.8 11.9.9 4.7.9 3 .8-10.7.9-6.4.9-1.9.9-4.2.8-.7.9 11 .9 4.4.8 10.9.9 10.2.9-13.3.8 8.1.9-2 .9 5.6.8 4.6.9-2.6.9-8.2.8-15.5.9 13 .9 6.8.9-11.9.8 3.7.9-.2.9 10.8.8 29.8.9 28 .9 6.7.8-23.3.9-3.5.9-7.1.8-8.2.9 9.7.9-19.9.8-3.9.9-10.8.9 12 .9 20.2.8 4.5.9-6.4.9-17.6.8-12.1.9-8.6h.9l.8 7 .9 11.3.9-24.9.8-25.3.9-13.7.9-6 .8 25.1.9 17.1.9 18.8.9 5.9.8 4 .9-.2.9-3.7.8-9.3.9 5.1.9-14 .8-10.3.9-3.2.9 4 .8-.4.9-11 .9-5.4.8-7 .9-1.1.9 2.3.9.1.8-13.9.9 10.8.9-1.6.8-5.2.9-10 .9-33.3.8-24.5.9-12.1.9 14 .8-9.6.9 12 .9 11.6.8-15.8.9 13.7.9-7 .9.2.8 1.7.9-10.4.9-3.6.8-2.5.9 9.9.9.4h.8l.9-3.5.9-9.7.8-4.9.9 23.5.9 26.7.8 5.3.9-2 .9-19.8.9-17.2.8-16.6.9-12.1.9-1.7.8.7.9-8.8.9 1 .8-5.8.9 1.8.9 4.7.8 2.7.9-2.2.9-1.4.8 2.2.9 21.5.9 9.7.9 4.6.8-1.3.9 5 .9 5.7.8 1.4.9.7.9 1.2.8 7.1"/><path stroke-width="1.5" stroke="#00847E" d="m42.7 342.3.8-.3.9 46.6.9 13.8.9 12.6.8-29.4.9 4.2.9 4.7.8 11.4.9-19 .9 17.5.8 5.4.9 46.5.9 11.7.8-31.8.9-2.9.9-18.2.8 59.1.9 22.8.9-96.1.9 25.1.8 24 .9-14.3.9-11.4.8 9.5.9 10.9.9-14.7.8-3.4.9 10.1.9 2 .8 4.3.9 2.6.9-20.7.8 21.9.9-33.2.9 12.9.9 15.9.8-5.9.9-29 .9-26.2.8 56.6.9 13.4.9-6.8.8 16.1.9-23.5.9 16.9.8 1.4.9-5.2.9.1.9 16.4.8-11.1.9-.9.9 11 .8-17.7.9-22.1.9-5.3.8.4.9 13.2.9 8.8.8-4 .9 18.2.9-13.5.8-43.5.9 12.3.9 8 .9 6.6.8 1.5.9-30.4.9 6.8.8 57.6.9-11.4.9-28.8.8 24.7.9-9.8.9 6.9.8-20.8.9 12.8.9 9.8.8-11.9.9-8.1h.9l.9-4.3.8 2.2.9-16.5.9 11.7.8-15 .9 9.3.9-3.6.8 35 .9-7.4.9-21.1.8-13.5.9.7.9 7.4.8 10.1.9-.7.9-3.2.9-16.5.8 4.5.9-6.4.9 10.6.8-5.2.9-19 .9 30 .8 5.6.9 11.3.9 4.9.8-2 .9-19 .9 14.3.8-12.9.9 4.1.9 30.8.9-40.2.8 19.5.9-13.4.9 10.7.8 9.8.9-5.3.9 4.7.8-1.3.9 2.5.9-11.9.8-3.6.9 13.7.9 11.6.8-.9.9-1.9.9 20.5.9-31.4.8 23.4.9 4.8.9 48.1.8-29.1.9-72.1.9 24.4.8-10.7.9.8.9-9.4.8-11.3.9 8.1.9 6.6.8-32.4.9 16.6.9 1.9.9-.8.8 16.8.9 5.2.9 12.7.8-31.8.9 32.1.9-30.2.8-6.6.9 20.1.9-33.2.8 7.4.9 16.4.9-.4.8 34.7.9-33.7.9 19.8.9 13.4.8 3.3.9-8.8.9-45.8.8 50.7.9-23.8.9-9.5.8-12 .9-23.9.9 60.3.8-7.7.9 16.5.9 31.5.8-60 .9-46 .9 10 .9-4.6.8-23.9.9 27.5.9-39.3.8 24.8.9-59 .9 47.5.8 88.4.9-52 .9-13.5.8 24.8.9 9.4.9 31 .8-.3.9-20.9.9 43.8.9-42.4.8.1.9 20.1.9-61.4.8 1.3.9 25.5.9 37.9.8-63.6.9 25.3.9 16.6.8-39.3.9 3.5.9 62 .8-11.9.9-15.2.9-58 .9 51.3.8-12.7.9-40.1h.9l.8 35.2.9 6.3.9-34.6.8 7.7.9 29.1.9-2.9.8 1 .9-50.3.9 33.5.8-14.9.9-10 .9 44.9.9 39.5.8-3.3.9-17.1.9-19.7.8-15.1.9 18.2.9-37.8.8 29.9.9-8.7.9-9.8.8 77 .9-9 .9-26.3.8-20.1.9-54 .9 7.9.9 9.5.8-44.2.9 18.7.9 27.9.8-28.8.9 47.7.9 6.6.8-32.7.9-7 .9 46.1.8-4.1.9-55.3.9 19 .9 21.8.8-49.9.9-33.9.9 29.5.8 12.6.9-40 .9 43.7.8-12.5.9 11.9.9-36.5.8 6.2.9 13.2.9-10.6.8-28.9.9 2.4.9 52.3.9-45 .8-22.7.9 13.2.9 1.7.8-2.6.9 5.3.9-19.9.8-6.8.9 40.1.9 47.1.8-48.5.9 23.7.9 20.6.8-44.8.9-18.9.9-4.4.9 47.3.8-17.9.9 8.2.9 55.6.8-40.9.9 18.3.9 22 .8-5.1.9-41.7.9 12.8.8-24.3.9 1.7.9-4.1.8 11.9.9-8.6.9.9.9 55.6.8-15.7.9-1 .9-6.6.8 22.6.9-19.4.9 2.7.8 15.9.9-37.3.9 29.3.8-35.6.9 43.2.9 15.4.8-7.4.9 22.8.9-5.4.9 11.9.8-32.7.9 53.3.9-12.1.8-17.3.9-13.6.9 9.3.8-6.7.9 7.5.9 27.9.8-18.9.9-18.5.9 55.1.8-19.3.9-32.9.9 16.7.9 12.3.8-37.2.9-29.1.9 14.7.8 8.1.9-10.9.9 25.5.8-3.6.9 5.7.9 11.3.8 10.7.9-18.7.9 25.7.8-12.8.9 10.7.9-9.5.9 3.9.8.3.9-15.7.9-7.5.8 14.3.9-7 .9-1.3.8-8.2.9 19.9.9 6 .8-2 .9-4.2.9 14.9.8-7.9.9 6.8.9-5.7.9-21.7.8 9 .9 1.3.9.8.8 5 .9-23 .9 4.2.8 15.5.9-2.9.9-6.6.8-8.7.9-7.6.9 10 .8 8.5.9-5 .9-5.3.9-1.7.8.5.9 17.7.9-1.4.8-7.1.9 14.1.9 6.2.8-9.7.9 7.9.9-26.2.8 19.5.9.8.9 5.8.8 20.1.9-24.9.9 3 .9-8.9.8-.7.9-17.3.9 3.3.8 22.3.9-11.3.9-1.5.8-1.7.9 2.3.9 4.7.8-9.1.9-.8.9-4.3.8-19.2.9-3.3.9-1.9.9-10.1.8 7.5.9 7.2.9 5.6.8 12.8.9-16 .9-29.1.8 15.8.9 5 .9.7.8-8 .9.1.9 15.8.8-7.8.9-7.7.9-13.9.9-13 .8 19.4.9-18.5.9 12.5.8-7.8.9-3.3.9 10.1.8-2.8.9-1.1.9-11.6.8-13.8.9 18.6.9-22.7.8 1.5.9-13.8.9-7.7.9 7.8.8 1.5.9 1.8.9.1.8 8.6.9-1.2.9-15.9.8 16.5.9-.8.9 2.6.8-1.3.9-6.6.9-.3.9-.7.8 4.6.9 18.8.9 3.4.8-12.7.9-2.1.9-16.3.8 10 .9-5.4.9 2.9.8 11.9.9 4.7.9 3 .8-10.7.9-6.4.9-1.9.9-4.2.8-.7.9 11 .9 4.4.8 10.9.9 10.2.9-13.3.8 8.1.9-2 .9 5.6.8 4.6.9-2.6.9-8.2.8-15.5.9 13 .9 6.8.9-11.9.8 3.7.9-.2.9 10.8.8 29.8.9 28 .9 6.7.8-23.3.9-3.5.9-7.1.8-8.2.9 9.7.9-19.9.8-3.9.9-10.8.9 12 .9 20.2.8 4.5.9-6.4.9-17.6.8-12.1.9-8.6h.9l.8 7 .9 11.3.9-24.9.8-25.3.9-13.7.9-6 .8 25.1.9 17.1.9 18.8.9 5.9.8 4 .9-.2.9-3.7.8-9.3.9 5.1.9-14 .8-10.3.9-3.2.9 4 .8-.4.9-11 .9-5.4.8-7 .9-1.1.9 2.3.9.1.8-13.9.9 10.8.9-1.6.8-5.2.9-10 .9-33.3.8-24.5.9-12.1.9 14 .8-9.6.9 12 .9 11.6.8-15.8.9 13.7.9-7 .9.2.8 1.7.9-10.4.9-3.6.8-2.5.9 9.9.9.4h.8l.9-3.5.9-9.7.8-4.9.9 23.5.9 26.7.8 5.3.9-2 .9-19.8.9-17.2.8-16.6.9-12.1.9-1.7.8.7.9-8.8.9 1 .8-5.8.9 1.8.9 4.7.8 2.7.9-2.2.9-1.4.8 2.2.9 21.5.9 9.7.9 4.6.8-1.3.9 5 .9 5.7.8 1.4.9.7.9 1.2.8 7.1"/></g><g fill="none" stroke-linecap="butt" stroke-linejoin="round"><path stroke="#fff" stroke-width="2.5" d="m530.1 117.1.8-10.2.9 3.3.9 7.3.8 21 .9 6.2.9-12 .8 12.4.9 12.3.9 18.3.9 10.7.8 7.8.9 21.9.9 5.2.8 5.7.9 7.4.9 4.1.8 7.2.9 10.3.9-1.8.8 2.8.9 16.2.9-6.9.8 12.1.9-10.1.9 13.3.9 2.8.8-4.8.9-8.9.9-17 .8-15.2.9-1 .9-19.2.8-4.1.9-3.2.9-1.5.8 8.7.9-3.9.9 1.8.8-13.3.9-6.9.9 7.1.9 19.8.8-1 .9.6.9-2.1.8 9.5.9 5.5.9 7.9.8 10.4.9.6.9 5.8"/><path stroke-width="1.5" stroke="#B13507" d="m530.1 117.1.8-10.2.9 3.3.9 7.3.8 21 .9 6.2.9-12 .8 12.4.9 12.3.9 18.3.9 10.7.8 7.8.9 21.9.9 5.2.8 5.7.9 7.4.9 4.1.8 7.2.9 10.3.9-1.8.8 2.8.9 16.2.9-6.9.8 12.1.9-10.1.9 13.3.9 2.8.8-4.8.9-8.9.9-17 .8-15.2.9-1 .9-19.2.8-4.1.9-3.2.9-1.5.8 8.7.9-3.9.9 1.8.8-13.3.9-6.9.9 7.1.9 19.8.8-1 .9.6.9-2.1.8 9.5.9 5.5.9 7.9.8 10.4.9.6.9 5.8"/></g><g fill="none" stroke-linecap="butt" stroke-linejoin="round"><path stroke="#fff" stroke-width="2.5" d="M42.7 449.6H571.8"/><path stroke-width="1.5" stroke="#3C4E66" d="M42.7 449.6H571.8"/></g></g></g></g><g class="SourcesFooter" style="fill:#777"><g style="fill:#777"><text font-size="12.6" x="15" y="567.9"><tspan x="15" y="567.88">Source: Boradberry (2013), The Conference Board (2019), The Maddison Project (2013)</tspan></text></g><text font-size="12.6" x="15" y="582.5"><tspan x="15" y="582.48">Note: CC-BY-ND-NC</tspan></text><text font-size="12.6" x="538.9" y="567.9"><tspan x="538.9" y="567.88"><a target="_blank" style="fill:#777" href="https://tinyco.re/21010331">tinyco.re/21010331</a> • <a href="https://ourworldindata.org" target="_blank">Powered by ourworldindata.org</a></tspan></text></g></svg>