<svg xmlns="http://www.w3.org/2000/svg" version="1.1" style="background-color:#fff;-webkit-font-smoothing:antialiased" width="850" height="600" viewBox="0 0 850 600" font-family="Lato,'Helvetica Neue',Helvetica,Arial,sans-serif" font-size="18" text-rendering="geometricPrecision"><g class="HeaderView"><g transform="matrix(.95 0 0 .95 739 15)"><svg className="coreLogo" width="102" height="37" viewBox="0 0 102 37" fill="none" xmlns="http://www.w3.org/2000/svg"><path d="M47 0H0v37h47V0z" fill="#EA4148"/><path d="M3.78 11.85c0-3.55 2.67-5.6 5.68-5.6a4.63 4.63 0 013.09 1.1l-1.7 2.36c-.31-.32-.74-.5-1.18-.52-1.36 0-2.16 1.03-2.16 2.66 0 1.62.89 2.65 2.03 2.65a2.93 2.93 0 001.7-.69l1.4 2.4a5.29 5.29 0 01-3.52 1.24c-3 0-5.34-2.05-5.34-5.6z" fill="#fff"/><path d="M18.85 11.85c0-1.63-.42-2.66-1.52-2.66s-1.52 1.03-1.52 2.66c0 1.62.42 2.65 1.52 2.65s1.52-1.03 1.52-2.65zm-6.77 0c0-3.55 2.54-5.6 5.25-5.6 2.7 0 5.25 2.05 5.25 5.6s-2.54 5.6-5.25 5.6-5.25-2.05-5.25-5.6M23.34 6.5h2.97l.25 1.84h.09c.78-1.46 1.97-2.1 3-2.1.45-.02.9.05 1.32.22l-.6 3.16c-.38-.1-.78-.16-1.18-.17-.76 0-1.7.47-2.2 1.8v5.94h-3.65V6.5zm13.64 4.06c0-.81-.34-1.54-1.44-1.54-.8 0-1.49.47-1.7 1.54h3.14zm-6.6 1.29c0-3.47 2.49-5.6 5.07-5.6 3.13 0 4.62 2.3 4.62 5.17 0 .52-.05 1.03-.15 1.54h-6.04c.34 1.28 1.27 1.71 2.46 1.71a4.3 4.3 0 002.16-.64l1.18 2.18a7.08 7.08 0 01-3.85 1.24c-3.09 0-5.46-2.05-5.46-5.6" fill="#fff"/><path d="M10.43 23.87c0-.81-.34-1.54-1.44-1.54-.8 0-1.48.47-1.69 1.54h3.13zm-6.6 1.28c0-3.46 2.5-5.6 5.08-5.6 3.13 0 4.61 2.3 4.61 5.18 0 .51-.05 1.03-.15 1.54H7.34c.34 1.28 1.27 1.7 2.46 1.7.76-.01 1.5-.23 2.16-.63l1.18 2.18a7.08 7.08 0 01-3.85 1.24c-3.1 0-5.46-2.06-5.46-5.6m10.07-.01c0-3.55 2.67-5.6 5.68-5.6a4.63 4.63 0 013.09 1.11l-1.7 2.35c-.32-.31-.74-.5-1.18-.51-1.36 0-2.16 1.03-2.16 2.65 0 1.63.89 2.66 2.03 2.66a2.93 2.93 0 001.7-.69l1.39 2.4a5.29 5.29 0 01-3.51 1.24c-3 0-5.34-2.06-5.34-5.6" fill="#1A1818"/><path d="M28.97 25.15c0-1.62-.42-2.65-1.52-2.65s-1.52 1.03-1.52 2.65c0 1.63.42 2.66 1.52 2.66s1.52-1.03 1.52-2.66zm-6.77 0c0-3.55 2.54-5.6 5.25-5.6 2.7 0 5.25 2.05 5.25 5.6s-2.54 5.6-5.25 5.6-5.25-2.04-5.25-5.6m11.34-5.35h2.97l.25 1.29h.09a4.76 4.76 0 013.34-1.54c2.33 0 3.3 1.71 3.3 4.36v6.6h-3.64v-6.13c0-1.37-.34-1.7-1.06-1.7-.67 0-1.05.3-1.6.8v7.02h-3.65V19.8z" fill="#1A1818"/><path fill="#fff" d="M48 0h54v37H48z"/><path d="M48 0h53.93v33H48V0z" fill="#002147"/><path d="M58.42 10.86c0 .61-.1 1.18-.3 1.7a3.83 3.83 0 01-2.15 2.21c-.5.21-1.07.32-1.7.32-.6 0-1.17-.1-1.68-.32a3.9 3.9 0 01-2.15-2.21c-.2-.52-.3-1.09-.3-1.7 0-.61.1-1.18.3-1.7a3.93 3.93 0 012.15-2.22 4.38 4.38 0 011.69-.31c.62 0 1.18.1 1.69.31a3.79 3.79 0 012.15 2.22c.2.52.3 1.09.3 1.7zm-1.38 0c0-.48-.06-.9-.2-1.28A2.38 2.38 0 0055.43 8a2.97 2.97 0 00-1.14-.21c-.42 0-.8.07-1.15.21-.34.14-.63.35-.87.61a2.8 2.8 0 00-.56.97c-.13.38-.2.8-.2 1.28s.07.9.2 1.29a2.46 2.46 0 001.43 1.57c.35.14.73.2 1.15.2.42 0 .8-.06 1.15-.2a2.4 2.4 0 001.42-1.57c.13-.38.2-.81.2-1.29zm7.14-1.72V15h-.74c-.17 0-.27-.08-.32-.24l-.1-.54a3.42 3.42 0 01-.81.63 2.3 2.3 0 01-1.06.24c-.32 0-.6-.05-.85-.16a1.72 1.72 0 01-1-1.15 3.1 3.1 0 01-.12-.91V9.14h1.24v3.73c0 .4.09.7.27.92.18.22.46.32.83.32.27 0 .53-.06.76-.18.24-.13.46-.3.67-.52V9.13h1.23zm2.33 1.08c.18-.37.4-.66.66-.87.27-.22.58-.32.94-.32a1.34 1.34 0 01.66.17l-.09.93a.26.26 0 01-.07.14.2.2 0 01-.13.03c-.06 0-.14 0-.25-.03a1.62 1.62 0 00-.8.04c-.13.05-.25.13-.35.22-.1.1-.2.21-.28.35-.08.14-.15.3-.22.47V15h-1.24V9.13h.72c.13 0 .22.03.27.08.05.05.08.13.1.25l.08.76zm16-3.5L79.94 15h-1.21l-1.95-5.95a4.7 4.7 0 01-.12-.46 3.32 3.32 0 01-.13.46L74.57 15h-1.22l-2.57-8.28h1.13c.11 0 .2.03.28.09.08.05.14.12.16.22l1.56 5.3a6.11 6.11 0 01.16.8 10 10 0 01.2-.8l1.78-5.3a.48.48 0 01.16-.21.4.4 0 01.28-.1h.4c.11 0 .21.03.28.1.08.05.13.12.17.21l1.77 5.3.1.37.1.4a59.35 59.35 0 00.16-.76L81 7.03a.4.4 0 01.16-.22.49.49 0 01.3-.09h1.04zm2.41 2.32c.44 0 .83.07 1.18.22a2.49 2.49 0 011.47 1.55c.13.37.2.79.2 1.25 0 .47-.07.88-.2 1.26-.14.37-.33.69-.58.95a2.87 2.87 0 01-2.07.82c-.43 0-.83-.07-1.18-.22a2.55 2.55 0 01-1.47-1.55c-.14-.38-.2-.8-.2-1.26 0-.46.06-.88.2-1.25a2.55 2.55 0 011.47-1.55c.35-.15.75-.22 1.18-.22zm0 5.08c.53 0 .92-.18 1.18-.53.26-.36.4-.86.4-1.52s-.14-1.17-.4-1.53c-.26-.36-.65-.54-1.18-.54-.53 0-.93.18-1.2.54-.25.36-.38.87-.38 1.53s.13 1.16.39 1.52c.26.35.66.53 1.2.53zm4.86-3.9c.18-.37.4-.66.67-.87.26-.22.57-.32.93-.32a1.34 1.34 0 01.66.17l-.09.93a.26.26 0 01-.07.14.2.2 0 01-.13.03c-.06 0-.14 0-.25-.03a1.62 1.62 0 00-.8.04 1.29 1.29 0 00-.63.57c-.08.14-.15.3-.22.47V15H88.6V9.13h.72c.13 0 .22.03.27.08.05.05.08.13.1.25l.08.76zm4-3.73V15h-1.25V6.49h1.24zm4.91 4.09a1.45 1.45 0 00-1.24-.6c-.48 0-.86.18-1.13.54-.27.35-.4.87-.4 1.56 0 .37.02.67.08.93.07.25.15.46.27.62.11.16.25.28.42.35.16.08.35.11.56.11.31 0 .58-.07.8-.2.24-.14.45-.33.64-.58v-2.73zm1.24-4.09V15h-.75c-.16 0-.27-.08-.31-.24l-.11-.63c-.25.28-.53.52-.84.7-.31.17-.67.26-1.09.26a1.96 1.96 0 01-1.59-.78 2.73 2.73 0 01-.44-.94 4.86 4.86 0 01.01-2.5c.12-.37.3-.7.51-.96a2.3 2.3 0 011.85-.88c.34 0 .63.05.88.16.24.11.45.26.64.46V6.49h1.24zm-39.9 14.65V27h-1.24v-5.86h1.24zm.2-1.78c0 .12-.02.22-.06.32a.83.83 0 01-1.34.26.8.8 0 01-.24-.58c0-.11.02-.22.06-.32a.89.89 0 01.43-.43.76.76 0 01.64 0 .81.81 0 01.45.43c.04.1.06.2.06.32zm2.16 2.55a3.67 3.67 0 01.83-.63 2.32 2.32 0 011.9-.08c.24.11.45.26.61.46.17.2.3.43.38.7.09.28.13.58.13.9V27H65v-3.73c0-.4-.1-.7-.28-.92-.18-.22-.45-.33-.83-.33-.27 0-.53.06-.77.19-.23.13-.45.3-.66.52V27h-1.23v-5.86h.74c.17 0 .28.07.33.23l.08.54zm14.96.95c0 .61-.1 1.17-.3 1.68a3.78 3.78 0 01-2.15 2.16c-.5.2-1.07.3-1.69.3H70.1v-8.28h3.12c.62 0 1.19.1 1.7.3a3.71 3.71 0 012.14 2.16c.2.5.3 1.07.3 1.68zm-1.37 0c0-.48-.07-.9-.2-1.28a2.6 2.6 0 00-.55-.96 2.35 2.35 0 00-.87-.6 2.97 2.97 0 00-1.15-.21h-1.77v6.1h1.77c.43 0 .81-.07 1.15-.2a2.42 2.42 0 001.42-1.56c.13-.38.2-.81.2-1.29zm5.27 1.58a7.5 7.5 0 00-1.12.1c-.3.06-.55.13-.73.22a.97.97 0 00-.41.3.68.68 0 00-.12.4c0 .13.02.25.06.35.05.1.1.18.18.24.08.06.18.1.28.14a1.78 1.78 0 001.18-.14c.23-.12.46-.3.68-.53v-1.08zm-3.28-2.49a3.36 3.36 0 012.37-.92c.34 0 .63.05.9.16a1.83 1.83 0 011.06 1.18c.1.27.15.57.15.9V27h-.55a.56.56 0 01-.27-.05.42.42 0 01-.16-.23l-.12-.47-.44.36c-.15.1-.3.2-.46.26a2.77 2.77 0 01-1.75.12c-.2-.06-.38-.16-.53-.29a1.46 1.46 0 01-.48-1.18c0-.23.06-.45.18-.66.12-.22.32-.41.6-.58a4 4 0 011.1-.43 8.03 8.03 0 011.68-.19v-.39c0-.42-.1-.73-.27-.94-.18-.2-.45-.3-.8-.3-.23-.01-.43.02-.6.08a6.05 6.05 0 00-.74.39.54.54 0 01-.28.08.38.38 0 01-.22-.06.6.6 0 01-.15-.17l-.22-.4zm7.38 5.14c-.48 0-.86-.13-1.12-.4-.26-.28-.4-.67-.4-1.17v-3.41h-.64a.27.27 0 01-.18-.07c-.05-.04-.07-.11-.07-.2v-.5l.95-.14.27-1.7a.31.31 0 01.1-.15c.04-.04.1-.06.18-.06h.63v1.93h1.63v.89h-1.63v3.33c0 .2.05.37.16.48.1.11.24.17.41.17a.79.79 0 00.43-.12 4 4 0 00.12-.08.2.2 0 01.11-.04c.07 0 .13.04.17.11l.37.6c-.2.18-.42.3-.68.4a2.5 2.5 0 01-.8.13zm5.11-2.65a7.5 7.5 0 00-1.11.1 3 3 0 00-.74.22.97.97 0 00-.4.3.68.68 0 00-.13.4c0 .13.02.25.06.35.05.1.11.18.19.24s.17.1.28.14a1.78 1.78 0 001.18-.14c.23-.12.45-.3.67-.53v-1.08zm-3.28-2.49a3.36 3.36 0 012.37-.92c.34 0 .64.05.9.16.27.11.49.26.66.46.18.2.32.44.41.72.1.27.14.57.14.9V27h-.55a.56.56 0 01-.27-.05c-.06-.04-.11-.11-.15-.23l-.12-.47-.45.36c-.14.1-.3.2-.45.26a2.77 2.77 0 01-1.75.12c-.2-.06-.38-.16-.53-.29a1.46 1.46 0 01-.49-1.18c0-.23.06-.45.18-.66.12-.22.32-.41.6-.58.28-.17.65-.31 1.1-.43a8.03 8.03 0 011.68-.19v-.39c0-.42-.09-.73-.27-.94-.18-.2-.44-.3-.8-.3a1.5 1.5 0 00-.59.08 6.09 6.09 0 00-.74.39.54.54 0 01-.29.08.38.38 0 01-.22-.06.6.6 0 01-.14-.17l-.23-.4z" fill="#fff"/><path fill="#D42B21" d="M48 32.65h54V37H48z"/></svg></g><a href="https://ourworldindata.org/grapher/uk-government-debt-as-a-percentage-of-gdp-17272016" target="_blank" rel="noopener" font-family="&quot;Playfair Display&quot;,Georgia,&quot;Times New Roman&quot;,serif"><text font-size="25.2" x="15" y="35.2" fill="#555"><tspan x="15" y="35.16">UK government debt as a percentage of GDP, 1727 to 2016</tspan></text></a><text font-size="14.4" x="15" y="55.7" fill="#666"><tspan x="15" y="55.72">Unit 14 &apos;Unemployment and fiscal policy’ Section 14.8 &apos;The government&apos;s finances&apos; in The CORE Team, The</tspan><tspan x="15" y="73">Economy. Available at: https://tinyco.re/14081550 [Figure 14.15]</tspan></text></g><g class="LineChart"><defs><clipPath id="a"><path d="M51.63 82.2h840v460.6h-840z"/></clipPath></defs><g class="DualAxisView"><g class="HorizontalAxis"><path stroke="#999" d="M61.6 511.6v5M703.6 511.6v5M223.8 511.6v5M334.9 511.6v5M445.9 511.6v5M557 511.6v5"/><text x="61.63" y="532.8" fill="#666" text-anchor="start" font-size="16.2">1727</text><text x="703.61" y="532.8" fill="#666" text-anchor="end" font-size="16.2">2016</text><text x="223.8" y="532.8" fill="#666" text-anchor="middle" font-size="16.2">1800</text><text x="334.9" y="532.8" fill="#666" text-anchor="middle" font-size="16.2">1850</text><text x="445.9" y="532.8" fill="#666" text-anchor="middle" font-size="16.2">1900</text><text x="557" y="532.8" fill="#666" text-anchor="middle" font-size="16.2">1950</text></g><g class="VerticalAxis" text-anchor="end" fill="#666" font-size="16.2"><text x="56.63" y="511.6" dy=".32em">0%</text><text x="56.63" y="427.7" dy=".32em">50%</text><text x="56.63" y="343.7" dy=".32em">100%</text><text x="56.63" y="259.8" dy=".32em">150%</text><text x="56.63" y="175.8" dy=".32em">200%</text></g><g class="AxisGridLines horizontalLines"><path stroke="#999" d="M61.63 511.6h641.98"/><path stroke="#ddd" stroke-dasharray="3,2" d="M61.63 427.7h641.98M61.63 343.7h641.98M61.63 259.8h641.98M61.63 175.8h641.98"/></g></g><g clip-path="url(#a)"><g class="LineLabels" cursor="default"><g class="legendMark"><text font-size="13.5" x="707.6" y="336.4" fill="#3360a9"><tspan x="707.61" y="336.35">United Kingdom</tspan></text></g></g><g class="Lines"><g><path stroke-linecap="round" stroke-linejoin="round" stroke="#ddd" d="M61.6 365.7l2.3 12.4 2.2-10.6 2.2-3.8 2.2-10.9 2.2 6L75 362l2.2 10.6 2.2-3 2.2 2.6 2.2-10.4 2.3 6.4 2.2 2.5 2.2 7.9 2.2 2.2 2.3-3.7 2.2-10.6 2.2-8.2 2.2-2 2.2 6.2 2.3-4.9 2.2-8.5 2.2-3.9 2.2-8.5 2.2 1.1 2.3 6.6 2.2 1.2 2.2-3.1 2.2 9.3 2.3 7.5 2.2 12.8 2.2-12.8 2.2-6.5 2.2-.4 2.3 5.7 2.2-17.6 2.2-33.9 2.2 4.4 2.2-6.7 2.3 2.6 2.2 9.6 2.2-12.6 2.2 20.8 2.3 1.9 2.2 10.2 2.2-10.1 2.2 11.6 2.2-.3 2.3 5.2 2.2.8 2.2 18.5 2.2 7.9 2.2-6 2.3 1.3 2.2 3.9 2.2-4.2 2.2-32.3 2.3 7.6 2.2-9.4 2.2-27.9 2.2-6.4 2.2-10.2h2.3l2.2 16.3 2.2-9.8 2.2 12.3 2.2 19.5 2.3 4.5 2.2 27.2 2.2-18 2.2 9.4 2.3 6.6 2.2-19.3 2.2 1 2.2 8.7 2.2-66 2.3 8.4 2.2 24.5 2.2 3.1 2.2-9.4 2.2 6.7 2.3-26.7 2.2 15.1 2.2 16.6 2.2-9.9 2.3 11.3 2.2 2.6 2.2-31.5 2.2-10.1 2.2-18.5 2.3-23.6 2.2-6.1 2.2-9.4 2.2 23.5 2.2-30.5 2.3-34.5 2.2 20.4 2.2-10.4 2.2 44.6 2.2-14.3 2.3 4.6 2.2-5.6 2.2-21.5 2.2 53.3 2.3 28.7 2.2-3.9 2.2-16.6 2.2 7.7 2.2 5.1 2.3 17.1 2.2-2.7 2.2 5.7 2.2 7.4 2.2-4.9 2.3-1.3 2.2-8.4 2.2-13.6 2.2 10.6 2.3 10.2 2.2 14.6 2.2 16 2.2-6.1h2.2l2.3-25.2 2.2 6.4 2.2 9.2 2.2 16.8 2.2 29.8 2.3-3.2 2.2 4.2 2.2-4.6 2.2-11.7 2.3 13.2 2.2 6.2 2.2 10 2.2-2.4 2.2 12.4 2.3 8.6 2.2 5.7 2.2 7.6 2.2-5.4 2.2-1.4 2.3 2.9 2.2 8.1 2.2 8.5 2.2 4.9 2.3 5 2.2 1 2.2-2.3 2.2-2.7 2.2-3 2.3-1 2.2-5.4 2.2 5.7 2.2.3 2.2 2.2 2.3.4 2.2-1.6 2.2 2.2 2.2-2.2 2.3 3.7 2.2 5.9 2.2 5.4 2.2 5.2 2.2 1.3 2.3-.6 2.2-1 2.2 3.5 2.2-.7 2.2-.2 2.3 1.2 2.2 4.2 2.2 4.7 2.2 8.9 2.3-3.5 2.2-4.2 2.2-.5 2.2.2 2.2 1.3 2.3 4.5 2.2 4.1 2.2-1.4 2.2 1.9 2.2 2.8 2.3 4.9 2.2 3.3 2.2 3.4 2.2 1.8 2.3-14.1 2.2-46.8 2.2-50.4 2.2-38.4 2.2-31.2 2.3 22.1 2.2-57.2 2.2-38 2.2-13.2 2.2 9.7 2.3 14.4 2.2-8.7 2.2 14.1 2.2-.2 2.3 12.6 2.2-13.4 2.2-2.2 2.2-38.8 2.2-5.5 2.3-6.7 2.2 23.8 2.2 19 2.2 28.4 2.2 1 2.3 22 2.2 17.9 2.2-16.6 2.2-30 2.2-32.3 2.3-41.6 2.2-60.1 2.2-20.7 2.2-3.5 2.3 46.8 2.2 25.4 2.2 20.8 2.2 34.6 2.2 38.1 2.3 11.6 2.2 2.7 2.2 20.8 2.2 26.9 2.2 10.4 2.3 10.7 2.2 2.9 2.2 11.6 2.2 8.5 2.3 4.1 2.2.1 2.2 11.6 2.2 11.6 2.2 4.2 2.3 2 2.2 4.9 2.2 13.4 2.2 11.4 2.2 8.6h2.3l2.2 13.1 2.2 7.9 2.2-.7 2.3-.3 2.2-5.1 2.2-2.5 2.2 3.9 2.2 7.7 2.3-4.4 2.2.7 2.2-5.5 2.2-2.1 2.2 1.6 2.3-5.3 2.2 1.4 2.2 3.3 2.2 8.3 2.3 10.6 2.2-.4 2.2-2 2.2-10.1 2.2-8.5 2.3-1.9 2.2-3.2 2.2-.6 2.2-2.4 2.2-1 2.3 6.7 2.2.5 2.2 5.2 2.2-1.3 2.3-1.2 2.2-3.2 2.2-3.7 2.2 1 2.2-4.8 2.3-25.4 2.2-25.2 2.2-10.2 2.2-22.5 2.2-9.8 2.3 7.1 2.2-19.8 2.2.5" fill="none" stroke-width="1"/></g><g><path stroke="#3360a9" stroke-linecap="round" stroke-linejoin="round" d="M61.6 365.7l2.3 12.4 2.2-10.6 2.2-3.8 2.2-10.9 2.2 6L75 362l2.2 10.6 2.2-3 2.2 2.6 2.2-10.4 2.3 6.4 2.2 2.5 2.2 7.9 2.2 2.2 2.3-3.7 2.2-10.6 2.2-8.2 2.2-2 2.2 6.2 2.3-4.9 2.2-8.5 2.2-3.9 2.2-8.5 2.2 1.1 2.3 6.6 2.2 1.2 2.2-3.1 2.2 9.3 2.3 7.5 2.2 12.8 2.2-12.8 2.2-6.5 2.2-.4 2.3 5.7 2.2-17.6 2.2-33.9 2.2 4.4 2.2-6.7 2.3 2.6 2.2 9.6 2.2-12.6 2.2 20.8 2.3 1.9 2.2 10.2 2.2-10.1 2.2 11.6 2.2-.3 2.3 5.2 2.2.8 2.2 18.5 2.2 7.9 2.2-6 2.3 1.3 2.2 3.9 2.2-4.2 2.2-32.3 2.3 7.6 2.2-9.4 2.2-27.9 2.2-6.4 2.2-10.2h2.3l2.2 16.3 2.2-9.8 2.2 12.3 2.2 19.5 2.3 4.5 2.2 27.2 2.2-18 2.2 9.4 2.3 6.6 2.2-19.3 2.2 1 2.2 8.7 2.2-66 2.3 8.4 2.2 24.5 2.2 3.1 2.2-9.4 2.2 6.7 2.3-26.7 2.2 15.1 2.2 16.6 2.2-9.9 2.3 11.3 2.2 2.6 2.2-31.5 2.2-10.1 2.2-18.5 2.3-23.6 2.2-6.1 2.2-9.4 2.2 23.5 2.2-30.5 2.3-34.5 2.2 20.4 2.2-10.4 2.2 44.6 2.2-14.3 2.3 4.6 2.2-5.6 2.2-21.5 2.2 53.3 2.3 28.7 2.2-3.9 2.2-16.6 2.2 7.7 2.2 5.1 2.3 17.1 2.2-2.7 2.2 5.7 2.2 7.4 2.2-4.9 2.3-1.3 2.2-8.4 2.2-13.6 2.2 10.6 2.3 10.2 2.2 14.6 2.2 16 2.2-6.1h2.2l2.3-25.2 2.2 6.4 2.2 9.2 2.2 16.8 2.2 29.8 2.3-3.2 2.2 4.2 2.2-4.6 2.2-11.7 2.3 13.2 2.2 6.2 2.2 10 2.2-2.4 2.2 12.4 2.3 8.6 2.2 5.7 2.2 7.6 2.2-5.4 2.2-1.4 2.3 2.9 2.2 8.1 2.2 8.5 2.2 4.9 2.3 5 2.2 1 2.2-2.3 2.2-2.7 2.2-3 2.3-1 2.2-5.4 2.2 5.7 2.2.3 2.2 2.2 2.3.4 2.2-1.6 2.2 2.2 2.2-2.2 2.3 3.7 2.2 5.9 2.2 5.4 2.2 5.2 2.2 1.3 2.3-.6 2.2-1 2.2 3.5 2.2-.7 2.2-.2 2.3 1.2 2.2 4.2 2.2 4.7 2.2 8.9 2.3-3.5 2.2-4.2 2.2-.5 2.2.2 2.2 1.3 2.3 4.5 2.2 4.1 2.2-1.4 2.2 1.9 2.2 2.8 2.3 4.9 2.2 3.3 2.2 3.4 2.2 1.8 2.3-14.1 2.2-46.8 2.2-50.4 2.2-38.4 2.2-31.2 2.3 22.1 2.2-57.2 2.2-38 2.2-13.2 2.2 9.7 2.3 14.4 2.2-8.7 2.2 14.1 2.2-.2 2.3 12.6 2.2-13.4 2.2-2.2 2.2-38.8 2.2-5.5 2.3-6.7 2.2 23.8 2.2 19 2.2 28.4 2.2 1 2.3 22 2.2 17.9 2.2-16.6 2.2-30 2.2-32.3 2.3-41.6 2.2-60.1 2.2-20.7 2.2-3.5 2.3 46.8 2.2 25.4 2.2 20.8 2.2 34.6 2.2 38.1 2.3 11.6 2.2 2.7 2.2 20.8 2.2 26.9 2.2 10.4 2.3 10.7 2.2 2.9 2.2 11.6 2.2 8.5 2.3 4.1 2.2.1 2.2 11.6 2.2 11.6 2.2 4.2 2.3 2 2.2 4.9 2.2 13.4 2.2 11.4 2.2 8.6h2.3l2.2 13.1 2.2 7.9 2.2-.7 2.3-.3 2.2-5.1 2.2-2.5 2.2 3.9 2.2 7.7 2.3-4.4 2.2.7 2.2-5.5 2.2-2.1 2.2 1.6 2.3-5.3 2.2 1.4 2.2 3.3 2.2 8.3 2.3 10.6 2.2-.4 2.2-2 2.2-10.1 2.2-8.5 2.3-1.9 2.2-3.2 2.2-.6 2.2-2.4 2.2-1 2.3 6.7 2.2.5 2.2 5.2 2.2-1.3 2.3-1.2 2.2-3.2 2.2-3.7 2.2 1 2.2-4.8 2.3-25.4 2.2-25.2 2.2-10.2 2.2-22.5 2.2-9.8 2.3 7.1 2.2-19.8 2.2.5" fill="none" stroke-width="1.5"/><g fill="#3360a9"><circle cx="61.6" cy="365.7" r="2"/><circle cx="63.9" cy="378.1" r="2"/><circle cx="66.1" cy="367.5" r="2"/><circle cx="68.3" cy="363.7" r="2"/><circle cx="70.5" cy="352.8" r="2"/><circle cx="72.7" cy="358.8" r="2"/><circle cx="75" cy="362" r="2"/><circle cx="77.2" cy="372.6" r="2"/><circle cx="79.4" cy="369.6" r="2"/><circle cx="81.6" cy="372.2" r="2"/><circle cx="83.8" cy="361.8" r="2"/><circle cx="86.1" cy="368.2" r="2"/><circle cx="88.3" cy="370.7" r="2"/><circle cx="90.5" cy="378.6" r="2"/><circle cx="92.7" cy="380.8" r="2"/><circle cx="95" cy="377.1" r="2"/><circle cx="97.2" cy="366.5" r="2"/><circle cx="99.4" cy="358.3" r="2"/><circle cx="101.6" cy="356.3" r="2"/><circle cx="103.8" cy="362.5" r="2"/><circle cx="106.1" cy="357.6" r="2"/><circle cx="108.3" cy="349.1" r="2"/><circle cx="110.5" cy="345.2" r="2"/><circle cx="112.7" cy="336.7" r="2"/><circle cx="114.9" cy="337.8" r="2"/><circle cx="117.2" cy="344.4" r="2"/><circle cx="119.4" cy="345.6" r="2"/><circle cx="121.6" cy="342.5" r="2"/><circle cx="123.8" cy="351.8" r="2"/><circle cx="126.1" cy="359.3" r="2"/><circle cx="128.3" cy="372.1" r="2"/><circle cx="130.5" cy="359.3" r="2"/><circle cx="132.7" cy="352.8" r="2"/><circle cx="134.9" cy="352.4" r="2"/><circle cx="137.2" cy="358.1" r="2"/><circle cx="139.4" cy="340.5" r="2"/><circle cx="141.6" cy="306.6" r="2"/><circle cx="143.8" cy="311" r="2"/><circle cx="146" cy="304.3" r="2"/><circle cx="148.3" cy="306.9" r="2"/><circle cx="150.5" cy="316.5" r="2"/><circle cx="152.7" cy="303.9" r="2"/><circle cx="154.9" cy="324.7" r="2"/><circle cx="157.2" cy="326.6" r="2"/><circle cx="159.4" cy="336.8" r="2"/><circle cx="161.6" cy="326.7" r="2"/><circle cx="163.8" cy="338.3" r="2"/><circle cx="166" cy="338" r="2"/><circle cx="168.3" cy="343.2" r="2"/><circle cx="170.5" cy="344" r="2"/><circle cx="172.7" cy="362.5" r="2"/><circle cx="174.9" cy="370.4" r="2"/><circle cx="177.1" cy="364.4" r="2"/><circle cx="179.4" cy="365.7" r="2"/><circle cx="181.6" cy="369.6" r="2"/><circle cx="183.8" cy="365.4" r="2"/><circle cx="186" cy="333.1" r="2"/><circle cx="188.3" cy="340.7" r="2"/><circle cx="190.5" cy="331.3" r="2"/><circle cx="192.7" cy="303.4" r="2"/><circle cx="194.9" cy="297" r="2"/><circle cx="197.1" cy="286.8" r="2"/><circle cx="199.4" cy="286.8" r="2"/><circle cx="201.6" cy="303.1" r="2"/><circle cx="203.8" cy="293.3" r="2"/><circle cx="206" cy="305.6" r="2"/><circle cx="208.2" cy="325.1" r="2"/><circle cx="210.5" cy="329.6" r="2"/><circle cx="212.7" cy="356.8" r="2"/><circle cx="214.9" cy="338.8" r="2"/><circle cx="217.1" cy="348.2" r="2"/><circle cx="219.4" cy="354.8" r="2"/><circle cx="221.6" cy="335.5" r="2"/><circle cx="223.8" cy="336.5" r="2"/><circle cx="226" cy="345.2" r="2"/><circle cx="228.2" cy="279.2" r="2"/><circle cx="230.5" cy="287.6" r="2"/><circle cx="232.7" cy="312.1" r="2"/><circle cx="234.9" cy="315.2" r="2"/><circle cx="237.1" cy="305.8" r="2"/><circle cx="239.3" cy="312.5" r="2"/><circle cx="241.6" cy="285.8" r="2"/><circle cx="243.8" cy="300.9" r="2"/><circle cx="246" cy="317.5" r="2"/><circle cx="248.2" cy="307.6" r="2"/><circle cx="250.5" cy="318.9" r="2"/><circle cx="252.7" cy="321.5" r="2"/><circle cx="254.9" cy="290" r="2"/><circle cx="257.1" cy="279.9" r="2"/><circle cx="259.3" cy="261.4" r="2"/><circle cx="261.6" cy="237.8" r="2"/><circle cx="263.8" cy="231.7" r="2"/><circle cx="266" cy="222.3" r="2"/><circle cx="268.2" cy="245.8" r="2"/><circle cx="270.4" cy="215.3" r="2"/><circle cx="272.7" cy="180.8" r="2"/><circle cx="274.9" cy="201.2" r="2"/><circle cx="277.1" cy="190.8" r="2"/><circle cx="279.3" cy="235.4" r="2"/><circle cx="281.5" cy="221.1" r="2"/><circle cx="283.8" cy="225.7" r="2"/><circle cx="286" cy="220.1" r="2"/><circle cx="288.2" cy="198.6" r="2"/><circle cx="290.4" cy="251.9" r="2"/><circle cx="292.7" cy="280.6" r="2"/><circle cx="294.9" cy="276.7" r="2"/><circle cx="297.1" cy="260.1" r="2"/><circle cx="299.3" cy="267.8" r="2"/><circle cx="301.5" cy="272.9" r="2"/><circle cx="303.8" cy="290" r="2"/><circle cx="306" cy="287.3" r="2"/><circle cx="308.2" cy="293" r="2"/><circle cx="310.4" cy="300.4" r="2"/><circle cx="312.6" cy="295.5" r="2"/><circle cx="314.9" cy="294.2" r="2"/><circle cx="317.1" cy="285.8" r="2"/><circle cx="319.3" cy="272.2" r="2"/><circle cx="321.5" cy="282.8" r="2"/><circle cx="323.8" cy="293" r="2"/><circle cx="326" cy="307.6" r="2"/><circle cx="328.2" cy="323.6" r="2"/><circle cx="330.4" cy="317.5" r="2"/><circle cx="332.6" cy="317.5" r="2"/><circle cx="334.9" cy="292.3" r="2"/><circle cx="337.1" cy="298.7" r="2"/><circle cx="339.3" cy="307.9" r="2"/><circle cx="341.5" cy="324.7" r="2"/><circle cx="343.7" cy="354.5" r="2"/><circle cx="346" cy="351.3" r="2"/><circle cx="348.2" cy="355.5" r="2"/><circle cx="350.4" cy="350.9" r="2"/><circle cx="352.6" cy="339.2" r="2"/><circle cx="354.9" cy="352.4" r="2"/><circle cx="357.1" cy="358.6" r="2"/><circle cx="359.3" cy="368.6" r="2"/><circle cx="361.5" cy="366.2" r="2"/><circle cx="363.7" cy="378.6" r="2"/><circle cx="366" cy="387.2" r="2"/><circle cx="368.2" cy="392.9" r="2"/><circle cx="370.4" cy="400.5" r="2"/><circle cx="372.6" cy="395.1" r="2"/><circle cx="374.8" cy="393.7" r="2"/><circle cx="377.1" cy="396.6" r="2"/><circle cx="379.3" cy="404.7" r="2"/><circle cx="381.5" cy="413.2" r="2"/><circle cx="383.7" cy="418.1" r="2"/><circle cx="386" cy="423.1" r="2"/><circle cx="388.2" cy="424.1" r="2"/><circle cx="390.4" cy="421.8" r="2"/><circle cx="392.6" cy="419.1" r="2"/><circle cx="394.8" cy="416.1" r="2"/><circle cx="397.1" cy="415.1" r="2"/><circle cx="399.3" cy="409.7" r="2"/><circle cx="401.5" cy="415.4" r="2"/><circle cx="403.7" cy="415.7" r="2"/><circle cx="405.9" cy="417.9" r="2"/><circle cx="408.2" cy="418.3" r="2"/><circle cx="410.4" cy="416.7" r="2"/><circle cx="412.6" cy="418.9" r="2"/><circle cx="414.8" cy="416.7" r="2"/><circle cx="417.1" cy="420.4" r="2"/><circle cx="419.3" cy="426.3" r="2"/><circle cx="421.5" cy="431.7" r="2"/><circle cx="423.7" cy="436.9" r="2"/><circle cx="425.9" cy="438.2" r="2"/><circle cx="428.2" cy="437.6" r="2"/><circle cx="430.4" cy="436.6" r="2"/><circle cx="432.6" cy="440.1" r="2"/><circle cx="434.8" cy="439.4" r="2"/><circle cx="437" cy="439.2" r="2"/><circle cx="439.3" cy="440.4" r="2"/><circle cx="441.5" cy="444.6" r="2"/><circle cx="443.7" cy="449.3" r="2"/><circle cx="445.9" cy="458.2" r="2"/><circle cx="448.2" cy="454.7" r="2"/><circle cx="450.4" cy="450.5" r="2"/><circle cx="452.6" cy="450" r="2"/><circle cx="454.8" cy="450.2" r="2"/><circle cx="457" cy="451.5" r="2"/><circle cx="459.3" cy="456" r="2"/><circle cx="461.5" cy="460.1" r="2"/><circle cx="463.7" cy="458.7" r="2"/><circle cx="465.9" cy="460.6" r="2"/><circle cx="468.1" cy="463.4" r="2"/><circle cx="470.4" cy="468.3" r="2"/><circle cx="472.6" cy="471.6" r="2"/><circle cx="474.8" cy="475" r="2"/><circle cx="477" cy="476.8" r="2"/><circle cx="479.3" cy="462.7" r="2"/><circle cx="481.5" cy="415.9" r="2"/><circle cx="483.7" cy="365.5" r="2"/><circle cx="485.9" cy="327.1" r="2"/><circle cx="488.1" cy="295.9" r="2"/><circle cx="490.4" cy="318" r="2"/><circle cx="492.6" cy="260.8" r="2"/><circle cx="494.8" cy="222.8" r="2"/><circle cx="497" cy="209.6" r="2"/><circle cx="499.2" cy="219.3" r="2"/><circle cx="501.5" cy="233.7" r="2"/><circle cx="503.7" cy="225" r="2"/><circle cx="505.9" cy="239.1" r="2"/><circle cx="508.1" cy="238.9" r="2"/><circle cx="510.4" cy="251.5" r="2"/><circle cx="512.6" cy="238.1" r="2"/><circle cx="514.8" cy="235.9" r="2"/><circle cx="517" cy="197.1" r="2"/><circle cx="519.2" cy="191.6" r="2"/><circle cx="521.5" cy="184.9" r="2"/><circle cx="523.7" cy="208.7" r="2"/><circle cx="525.9" cy="227.7" r="2"/><circle cx="528.1" cy="256.1" r="2"/><circle cx="530.3" cy="257.1" r="2"/><circle cx="532.6" cy="279.1" r="2"/><circle cx="534.8" cy="297" r="2"/><circle cx="537" cy="280.4" r="2"/><circle cx="539.2" cy="250.4" r="2"/><circle cx="541.4" cy="218.1" r="2"/><circle cx="543.7" cy="176.5" r="2"/><circle cx="545.9" cy="116.4" r="2"/><circle cx="548.1" cy="95.7" r="2"/><circle cx="550.3" cy="92.2" r="2"/><circle cx="552.6" cy="139" r="2"/><circle cx="554.8" cy="164.4" r="2"/><circle cx="557" cy="185.2" r="2"/><circle cx="559.2" cy="219.8" r="2"/><circle cx="561.4" cy="257.9" r="2"/><circle cx="563.7" cy="269.5" r="2"/><circle cx="565.9" cy="272.2" r="2"/><circle cx="568.1" cy="293" r="2"/><circle cx="570.3" cy="319.9" r="2"/><circle cx="572.5" cy="330.3" r="2"/><circle cx="574.8" cy="341" r="2"/><circle cx="577" cy="343.9" r="2"/><circle cx="579.2" cy="355.5" r="2"/><circle cx="581.4" cy="364" r="2"/><circle cx="583.7" cy="368.1" r="2"/><circle cx="585.9" cy="368.2" r="2"/><circle cx="588.1" cy="379.8" r="2"/><circle cx="590.3" cy="391.4" r="2"/><circle cx="592.5" cy="395.6" r="2"/><circle cx="594.8" cy="397.6" r="2"/><circle cx="597" cy="402.5" r="2"/><circle cx="599.2" cy="415.9" r="2"/><circle cx="601.4" cy="427.3" r="2"/><circle cx="603.6" cy="435.9" r="2"/><circle cx="605.9" cy="435.9" r="2"/><circle cx="608.1" cy="449" r="2"/><circle cx="610.3" cy="456.9" r="2"/><circle cx="612.5" cy="456.2" r="2"/><circle cx="614.8" cy="455.9" r="2"/><circle cx="617" cy="450.8" r="2"/><circle cx="619.2" cy="448.3" r="2"/><circle cx="621.4" cy="452.2" r="2"/><circle cx="623.6" cy="459.9" r="2"/><circle cx="625.9" cy="455.5" r="2"/><circle cx="628.1" cy="456.2" r="2"/><circle cx="630.3" cy="450.7" r="2"/><circle cx="632.5" cy="448.6" r="2"/><circle cx="634.7" cy="450.2" r="2"/><circle cx="637" cy="444.9" r="2"/><circle cx="639.2" cy="446.3" r="2"/><circle cx="641.4" cy="449.6" r="2"/><circle cx="643.6" cy="457.9" r="2"/><circle cx="645.9" cy="468.5" r="2"/><circle cx="648.1" cy="468.1" r="2"/><circle cx="650.3" cy="466.1" r="2"/><circle cx="652.5" cy="456" r="2"/><circle cx="654.7" cy="447.5" r="2"/><circle cx="657" cy="445.6" r="2"/><circle cx="659.2" cy="442.4" r="2"/><circle cx="661.4" cy="441.8" r="2"/><circle cx="663.6" cy="439.4" r="2"/><circle cx="665.8" cy="438.4" r="2"/><circle cx="668.1" cy="445.1" r="2"/><circle cx="670.3" cy="445.6" r="2"/><circle cx="672.5" cy="450.8" r="2"/><circle cx="674.7" cy="449.5" r="2"/><circle cx="677" cy="448.3" r="2"/><circle cx="679.2" cy="445.1" r="2"/><circle cx="681.4" cy="441.4" r="2"/><circle cx="683.6" cy="442.4" r="2"/><circle cx="685.8" cy="437.6" r="2"/><circle cx="688.1" cy="412.2" r="2"/><circle cx="690.3" cy="387" r="2"/><circle cx="692.5" cy="376.8" r="2"/><circle cx="694.7" cy="354.3" r="2"/><circle cx="696.9" cy="344.5" r="2"/><circle cx="699.2" cy="351.6" r="2"/><circle cx="701.4" cy="331.8" r="2"/><circle cx="703.6" cy="332.3" r="2"/></g></g></g></g></g><g class="SourcesFooter" fill="#777"><g fill="#777"><text font-size="12.6" x="15" y="567.9"><tspan x="15" y="567.88">Source: Thomas and Dimsdale (2018)</tspan></text></g><text font-size="12.6" x="15" y="582.5"><tspan x="15" y="582.48">Note: CC-BY-ND-NC</tspan></text><text font-size="12.6" x="538.9" y="567.9"><tspan x="538.9" y="567.88"><a target="_blank" href="https://tinyco.re/14081550" fill="#777">tinyco.re/14081550</a> • <a href="https://ourworldindata.org" target="_blank">Powered by ourworldindata.org</a></tspan></text></g></svg>