<svg xmlns="http://www.w3.org/2000/svg" version="1.1" style="font-family:Lato,'Helvetica Neue',Helvetica,Arial,sans-serif;font-size:18px;background-color:#fff;text-rendering:geometricPrecision;-webkit-font-smoothing:antialiased" width="850" height="600" viewBox="0 0 850 600"><g class="HeaderView"><g transform="matrix(.95 0 0 .95 739 15)"><svg className="coreLogo" width="102" height="37" viewBox="0 0 102 37" fill="none" xmlns="http://www.w3.org/2000/svg"><path d="M47 0H0v37h47V0z" fill="#EA4148"/><path d="M3.78 11.85c0-3.55 2.67-5.6 5.68-5.6a4.63 4.63 0 0 1 3.09 1.1l-1.7 2.36c-.31-.32-.74-.5-1.18-.52-1.36 0-2.16 1.03-2.16 2.66 0 1.62.89 2.65 2.03 2.65a2.93 2.93 0 0 0 1.7-.69l1.4 2.4a5.29 5.29 0 0 1-3.52 1.24c-3 0-5.34-2.05-5.34-5.6z" fill="#fff"/><path d="M18.85 11.85c0-1.63-.42-2.66-1.52-2.66s-1.52 1.03-1.52 2.66c0 1.62.42 2.65 1.52 2.65s1.52-1.03 1.52-2.65zm-6.77 0c0-3.55 2.54-5.6 5.25-5.6 2.7 0 5.25 2.05 5.25 5.6s-2.54 5.6-5.25 5.6-5.25-2.05-5.25-5.6M23.34 6.5h2.97l.25 1.84h.09c.78-1.46 1.97-2.1 3-2.1.45-.02.9.05 1.32.22l-.6 3.16c-.38-.1-.78-.16-1.18-.17-.76 0-1.7.47-2.2 1.8v5.94h-3.65V6.5zm13.64 4.06c0-.81-.34-1.54-1.44-1.54-.8 0-1.49.47-1.7 1.54h3.14zm-6.6 1.29c0-3.47 2.49-5.6 5.07-5.6 3.13 0 4.62 2.3 4.62 5.17 0 .52-.05 1.03-.15 1.54h-6.04c.34 1.28 1.27 1.71 2.46 1.71a4.3 4.3 0 0 0 2.16-.64l1.18 2.18a7.08 7.08 0 0 1-3.85 1.24c-3.09 0-5.46-2.05-5.46-5.6" fill="#fff"/><path d="M10.43 23.87c0-.81-.34-1.54-1.44-1.54-.8 0-1.48.47-1.69 1.54h3.13zm-6.6 1.28c0-3.46 2.5-5.6 5.08-5.6 3.13 0 4.61 2.3 4.61 5.18 0 .51-.05 1.03-.15 1.54H7.34c.34 1.28 1.27 1.7 2.46 1.7.76-.01 1.5-.23 2.16-.63l1.18 2.18a7.08 7.08 0 0 1-3.85 1.24c-3.1 0-5.46-2.06-5.46-5.6m10.07-.01c0-3.55 2.67-5.6 5.68-5.6a4.63 4.63 0 0 1 3.09 1.11l-1.7 2.35c-.32-.31-.74-.5-1.18-.51-1.36 0-2.16 1.03-2.16 2.65 0 1.63.89 2.66 2.03 2.66a2.93 2.93 0 0 0 1.7-.69l1.39 2.4a5.29 5.29 0 0 1-3.51 1.24c-3 0-5.34-2.06-5.34-5.6" fill="#1A1818"/><path d="M28.97 25.15c0-1.62-.42-2.65-1.52-2.65s-1.52 1.03-1.52 2.65c0 1.63.42 2.66 1.52 2.66s1.52-1.03 1.52-2.66zm-6.77 0c0-3.55 2.54-5.6 5.25-5.6 2.7 0 5.25 2.05 5.25 5.6s-2.54 5.6-5.25 5.6-5.25-2.04-5.25-5.6m11.34-5.35h2.97l.25 1.29h.09a4.76 4.76 0 0 1 3.34-1.54c2.33 0 3.3 1.71 3.3 4.36v6.6h-3.64v-6.13c0-1.37-.34-1.7-1.06-1.7-.67 0-1.05.3-1.6.8v7.02h-3.65V19.8z" fill="#1A1818"/><path fill="#fff" d="M48 0h54v37H48z"/><path d="M48 0h53.93v33H48V0z" fill="#002147"/><path d="M58.42 10.86c0 .61-.1 1.18-.3 1.7a3.83 3.83 0 0 1-2.15 2.21c-.5.21-1.07.32-1.7.32-.6 0-1.17-.1-1.68-.32a3.9 3.9 0 0 1-2.15-2.21c-.2-.52-.3-1.09-.3-1.7 0-.61.1-1.18.3-1.7a3.93 3.93 0 0 1 2.15-2.22 4.38 4.38 0 0 1 1.69-.31c.62 0 1.18.1 1.69.31a3.79 3.79 0 0 1 2.15 2.22c.2.52.3 1.09.3 1.7zm-1.38 0c0-.48-.06-.9-.2-1.28A2.38 2.38 0 0 0 55.43 8a2.97 2.97 0 0 0-1.14-.21c-.42 0-.8.07-1.15.21-.34.14-.63.35-.87.61a2.8 2.8 0 0 0-.56.97c-.13.38-.2.8-.2 1.28s.07.9.2 1.29a2.46 2.46 0 0 0 1.43 1.57c.35.14.73.2 1.15.2.42 0 .8-.06 1.15-.2a2.4 2.4 0 0 0 1.42-1.57c.13-.38.2-.81.2-1.29zm7.14-1.72V15h-.74c-.17 0-.27-.08-.32-.24l-.1-.54a3.42 3.42 0 0 1-.81.63 2.3 2.3 0 0 1-1.06.24c-.32 0-.6-.05-.85-.16a1.72 1.72 0 0 1-1-1.15 3.1 3.1 0 0 1-.12-.91V9.14h1.24v3.73c0 .4.09.7.27.92.18.22.46.32.83.32.27 0 .53-.06.76-.18.24-.13.46-.3.67-.52V9.13h1.23zm2.33 1.08c.18-.37.4-.66.66-.87.27-.22.58-.32.94-.32a1.34 1.34 0 0 1 .66.17l-.09.93a.26.26 0 0 1-.07.14.2.2 0 0 1-.13.03c-.06 0-.14 0-.25-.03a1.62 1.62 0 0 0-.8.04c-.13.05-.25.13-.35.22-.1.1-.2.21-.28.35-.08.14-.15.3-.22.47V15h-1.24V9.13h.72c.13 0 .22.03.27.08.05.05.08.13.1.25l.08.76zm16-3.5L79.94 15h-1.21l-1.95-5.95a4.7 4.7 0 0 1-.12-.46 3.32 3.32 0 0 1-.13.46L74.57 15h-1.22l-2.57-8.28h1.13c.11 0 .2.03.28.09.08.05.14.12.16.22l1.56 5.3a6.11 6.11 0 0 1 .16.8 10 10 0 0 1 .2-.8l1.78-5.3a.48.48 0 0 1 .16-.21.4.4 0 0 1 .28-.1h.4c.11 0 .21.03.28.1.08.05.13.12.17.21l1.77 5.3.1.37.1.4a59.35 59.35 0 0 0 .16-.76L81 7.03a.4.4 0 0 1 .16-.22.49.49 0 0 1 .3-.09h1.04zm2.41 2.32c.44 0 .83.07 1.18.22a2.49 2.49 0 0 1 1.47 1.55c.13.37.2.79.2 1.25 0 .47-.07.88-.2 1.26-.14.37-.33.69-.58.95a2.87 2.87 0 0 1-2.07.82c-.43 0-.83-.07-1.18-.22a2.55 2.55 0 0 1-1.47-1.55c-.14-.38-.2-.8-.2-1.26 0-.46.06-.88.2-1.25a2.55 2.55 0 0 1 1.47-1.55c.35-.15.75-.22 1.18-.22zm0 5.08c.53 0 .92-.18 1.18-.53.26-.36.4-.86.4-1.52s-.14-1.17-.4-1.53c-.26-.36-.65-.54-1.18-.54-.53 0-.93.18-1.2.54-.25.36-.38.87-.38 1.53s.13 1.16.39 1.52c.26.35.66.53 1.2.53zm4.86-3.9c.18-.37.4-.66.67-.87.26-.22.57-.32.93-.32a1.34 1.34 0 0 1 .66.17l-.09.93a.26.26 0 0 1-.07.14.2.2 0 0 1-.13.03c-.06 0-.14 0-.25-.03a1.62 1.62 0 0 0-.8.04 1.29 1.29 0 0 0-.63.57c-.08.14-.15.3-.22.47V15H88.6V9.13h.72c.13 0 .22.03.27.08.05.05.08.13.1.25l.08.76zm4-3.73V15h-1.25V6.49h1.24zm4.91 4.09a1.45 1.45 0 0 0-1.24-.6c-.48 0-.86.18-1.13.54-.27.35-.4.87-.4 1.56 0 .37.02.67.08.93.07.25.15.46.27.62.11.16.25.28.42.35.16.08.35.11.56.11.31 0 .58-.07.8-.2.24-.14.45-.33.64-.58v-2.73zm1.24-4.09V15h-.75c-.16 0-.27-.08-.31-.24l-.11-.63c-.25.28-.53.52-.84.7-.31.17-.67.26-1.09.26a1.96 1.96 0 0 1-1.59-.78 2.73 2.73 0 0 1-.44-.94 4.86 4.86 0 0 1 .01-2.5c.12-.37.3-.7.51-.96a2.3 2.3 0 0 1 1.85-.88c.34 0 .63.05.88.16.24.11.45.26.64.46V6.49h1.24zm-39.9 14.65V27h-1.24v-5.86h1.24zm.2-1.78c0 .12-.02.22-.06.32a.83.83 0 0 1-1.34.26.8.8 0 0 1-.24-.58c0-.11.02-.22.06-.32a.89.89 0 0 1 .43-.43.76.76 0 0 1 .64 0 .81.81 0 0 1 .45.43c.04.1.06.2.06.32zm2.16 2.55a3.67 3.67 0 0 1 .83-.63 2.32 2.32 0 0 1 1.9-.08c.24.11.45.26.61.46.17.2.3.43.38.7.09.28.13.58.13.9V27H65v-3.73c0-.4-.1-.7-.28-.92-.18-.22-.45-.33-.83-.33-.27 0-.53.06-.77.19-.23.13-.45.3-.66.52V27h-1.23v-5.86h.74c.17 0 .28.07.33.23l.08.54zm14.96.95c0 .61-.1 1.17-.3 1.68a3.78 3.78 0 0 1-2.15 2.16c-.5.2-1.07.3-1.69.3H70.1v-8.28h3.12c.62 0 1.19.1 1.7.3a3.71 3.71 0 0 1 2.14 2.16c.2.5.3 1.07.3 1.68zm-1.37 0c0-.48-.07-.9-.2-1.28a2.6 2.6 0 0 0-.55-.96 2.35 2.35 0 0 0-.87-.6 2.97 2.97 0 0 0-1.15-.21h-1.77v6.1h1.77c.43 0 .81-.07 1.15-.2a2.42 2.42 0 0 0 1.42-1.56c.13-.38.2-.81.2-1.29zm5.27 1.58a7.5 7.5 0 0 0-1.12.1c-.3.06-.55.13-.73.22a.97.97 0 0 0-.41.3.68.68 0 0 0-.12.4c0 .13.02.25.06.35.05.1.1.18.18.24.08.06.18.1.28.14a1.78 1.78 0 0 0 1.18-.14c.23-.12.46-.3.68-.53v-1.08zm-3.28-2.49a3.36 3.36 0 0 1 2.37-.92c.34 0 .63.05.9.16a1.83 1.83 0 0 1 1.06 1.18c.1.27.15.57.15.9V27h-.55a.56.56 0 0 1-.27-.05.42.42 0 0 1-.16-.23l-.12-.47-.44.36c-.15.1-.3.2-.46.26a2.77 2.77 0 0 1-1.75.12c-.2-.06-.38-.16-.53-.29a1.46 1.46 0 0 1-.48-1.18c0-.23.06-.45.18-.66.12-.22.32-.41.6-.58a4 4 0 0 1 1.1-.43 8.03 8.03 0 0 1 1.68-.19v-.39c0-.42-.1-.73-.27-.94-.18-.2-.45-.3-.8-.3-.23-.01-.43.02-.6.08a6.05 6.05 0 0 0-.74.39.54.54 0 0 1-.28.08.38.38 0 0 1-.22-.06.6.6 0 0 1-.15-.17l-.22-.4zm7.38 5.14c-.48 0-.86-.13-1.12-.4-.26-.28-.4-.67-.4-1.17v-3.41h-.64a.27.27 0 0 1-.18-.07c-.05-.04-.07-.11-.07-.2v-.5l.95-.14.27-1.7a.31.31 0 0 1 .1-.15c.04-.04.1-.06.18-.06h.63v1.93h1.63v.89h-1.63v3.33c0 .2.05.37.16.48.1.11.24.17.41.17a.79.79 0 0 0 .43-.12 4 4 0 0 0 .12-.08.2.2 0 0 1 .11-.04c.07 0 .13.04.17.11l.37.6c-.2.18-.42.3-.68.4a2.5 2.5 0 0 1-.8.13zm5.11-2.65a7.5 7.5 0 0 0-1.11.1 3 3 0 0 0-.74.22.97.97 0 0 0-.4.3.68.68 0 0 0-.13.4c0 .13.02.25.06.35.05.1.11.18.19.24s.17.1.28.14a1.78 1.78 0 0 0 1.18-.14c.23-.12.45-.3.67-.53v-1.08zm-3.28-2.49a3.36 3.36 0 0 1 2.37-.92c.34 0 .64.05.9.16.27.11.49.26.66.46.18.2.32.44.41.72.1.27.14.57.14.9V27h-.55a.56.56 0 0 1-.27-.05c-.06-.04-.11-.11-.15-.23l-.12-.47-.45.36c-.14.1-.3.2-.45.26a2.77 2.77 0 0 1-1.75.12c-.2-.06-.38-.16-.53-.29a1.46 1.46 0 0 1-.49-1.18c0-.23.06-.45.18-.66.12-.22.32-.41.6-.58.28-.17.65-.31 1.1-.43a8.03 8.03 0 0 1 1.68-.19v-.39c0-.42-.09-.73-.27-.94-.18-.2-.44-.3-.8-.3a1.5 1.5 0 0 0-.59.08 6.09 6.09 0 0 0-.74.39.54.54 0 0 1-.29.08.38.38 0 0 1-.22-.06.6.6 0 0 1-.14-.17l-.23-.4z" fill="#fff"/><path fill="#D42B21" d="M48 32.65h54V37H48z"/></svg></g><a href="https://ourworldindata.org/grapher/unemployment-rates-of-two-high-and-two-low-labour-market-performers" style="font-family:&quot;Playfair Display&quot;,Georgia,&quot;Times New Roman&quot;,serif" target="_blank" rel="noopener"><text font-size="21.6" x="15" y="32.3" fill="#555"><tspan x="15" y="32.28">Unemployment rates of two high and two low labour market performers,</tspan><tspan x="15" y="53.88">1960 to 2020</tspan></text></a><text font-size="14.4" x="15" y="74.7" fill="#666"><tspan x="15" y="74.72">Unit 16 &apos;Technological progress, employment, and living standards in the long run’ Section 16.8 &apos;Institutions and policies: Why</tspan><tspan x="15" y="92">do some countries do better than others?&apos; in The CORE Team, The Economy. Available at: https://tinyco.re/16081322 [Figure</tspan><tspan x="15" y="109.28">16.13]</tspan></text></g><g class="LineChart"><defs><clipPath id="a"><path d="M42.56 116.8h840v426h-840z"/></clipPath></defs><g class="DualAxisView"><g class="HorizontalAxis"><path stroke="#999" d="M52.6 511.6v5M754.2 511.6v5M169.5 511.6v5M286.5 511.6v5M403.4 511.6v5M520.3 511.6v5M637.3 511.6v5"/><text x="52.56" y="532.8" fill="#666" text-anchor="start" font-size="16.2">1960</text><text x="754.24" y="532.8" fill="#666" text-anchor="end" font-size="16.2">2020</text><text x="169.5" y="532.8" fill="#666" text-anchor="middle" font-size="16.2">1970</text><text x="286.5" y="532.8" fill="#666" text-anchor="middle" font-size="16.2">1980</text><text x="403.4" y="532.8" fill="#666" text-anchor="middle" font-size="16.2">1990</text><text x="520.3" y="532.8" fill="#666" text-anchor="middle" font-size="16.2">2000</text><text x="637.3" y="532.8" fill="#666" text-anchor="middle" font-size="16.2">2010</text></g><g class="VerticalAxis" text-anchor="end" fill="#666" font-size="16.2"><text x="47.56" y="511.6" dy=".32em">0%</text><text x="47.56" y="447.5" dy=".32em">5%</text><text x="47.56" y="383.3" dy=".32em">10%</text><text x="47.56" y="319.2" dy=".32em">15%</text><text x="47.56" y="255.1" dy=".32em">20%</text><text x="47.56" y="190.9" dy=".32em">25%</text><text x="47.56" y="126.8" dy=".32em">30%</text></g><g class="AxisGridLines horizontalLines"><path stroke="#999" d="M52.56 511.6h701.68"/><path stroke="#ddd" stroke-dasharray="3,2" d="M52.56 447.5h701.68M52.56 383.3h701.68M52.56 319.2h701.68M52.56 255.1h701.68M52.56 190.9h701.68M52.56 126.8h701.68"/></g></g><g clip-path="url(#a)"><g class="LineLabels" style="cursor:default"><g class="legendMark"><text font-size="13.5" font-weight="400" x="758.2" y="316.4" fill="#a2559c"><tspan x="758.24" y="316.45">Spain</tspan></text></g><g class="legendMark"><text font-size="13.5" font-weight="400" x="758.2" y="398.3" fill="#d73c50"><tspan x="758.24" y="398.25">Italy</tspan></text></g><g class="legendMark"><text font-size="13.5" font-weight="400" x="758.2" y="458.9" fill="#0aa0db"><tspan x="758.24" y="458.95">Norway</tspan></text></g><g class="legendMark"><text font-size="13.5" font-weight="400" x="758.2" y="480.1" fill="#20ca0f"><tspan x="758.24" y="480.05">Japan</tspan></text></g></g><g class="Lines"><g><path stroke-linecap="round" stroke-linejoin="round" stroke="#ddd" d="m52.6 483.4 58.4 5.1 58.5 2.6 58.5-3.9 58.5-8.7 58.4-4.8 58.5-35.2 58.5 20.5 58.4 4.3 11.7 3.3 11.7-3.2 11.7-3.7 11.7-1.8 11.7-4.3 11.7 14 11.7 11.6 11.7-.3 11.7-7.7 11.7-5.5 11.7 3.6 11.7 1.5 11.7-4.1 11.7-.4 11.7-10.8 11.7-4.9 11.7 7.2 11.6 4.1 11.7 2.4 11.7-9.4" fill="none" stroke-width="1"/></g><g><path stroke-linecap="round" stroke-linejoin="round" stroke="#ddd" d="m52.6 493.6 58.4 1.3 58.5.1 58.5-9.6 58.5-4.4 58.4-2.8 58.5 2.6 58.5-16.7 58.4-16.9 58.5 7.6 11.7 3.7 11.7 3.8 11.7-1.9 11.7-13.8 11.7.2 11.7 6 11.7 3 11.7 4.2 11.7 5.5 11.7 2.8 11.7 3.3 11.7 4 11.6 4.7 11.7 1.2 11.7-5.5" fill="none" stroke-width="1"/></g><g><path stroke-linecap="round" stroke-linejoin="round" stroke="#ddd" d="m52.6 480.8 58.4-1.3 58.5-2.5 58.5-39.8 58.5-120.6 58.4-61 58.5 4.9 58.5-6.7 46.7 56.4 11.7 62.2 11.7 3.9 11.7-11.6 11.7-.4 11.7 6.6 11.7 23.1 11.7 9.1 11.7 3 11.7-39 11.7-84.7 11.7-25.8L649 237l11.7-43.4 11.7-17 11.7 21.4 11.7 30.5 11.7 31.1 11.7 31 11.6 25.3 11.7 14.8 11.7-18.3" fill="none" stroke-width="1"/></g><g><path stroke-linecap="round" stroke-linejoin="round" stroke="#ddd" d="m52.6 467.3 58.4-9.6 58.5 1.3 58.5-7.7 58.5-25.6 58.4-33.4 58.5-4.1 58.5-25.4 58.4 34.9 58.5 15 11.7 11.8 11.7 9.2 11.7-8.1 11.7-13.4 11.7-7.7H649l11.7-29.4 11.7-19.1 11.7-6.7 11.7 9.8 11.7 2.7 11.7 5.8 11.6 7.8 11.7 8.6 11.7 10.2" fill="none" stroke-width="1"/></g><g><path fill="none" stroke-linecap="butt" stroke-linejoin="round" stroke="#fff" stroke-width="2.5" d="m52.6 483.4 58.4 5.1 58.5 2.6 58.5-3.9 58.5-8.7 58.4-4.8 58.5-35.2 58.5 20.5 58.4 4.3 11.7 3.3 11.7-3.2 11.7-3.7 11.7-1.8 11.7-4.3 11.7 14 11.7 11.6 11.7-.3 11.7-7.7 11.7-5.5 11.7 3.6 11.7 1.5 11.7-4.1 11.7-.4 11.7-10.8 11.7-4.9 11.7 7.2 11.6 4.1 11.7 2.4 11.7-9.4"/><path stroke-linejoin="round" stroke-width="1.5" stroke="#0aa0db" fill="none" stroke-linecap="butt" d="m52.6 483.4 58.4 5.1 58.5 2.6 58.5-3.9 58.5-8.7 58.4-4.8 58.5-35.2 58.5 20.5 58.4 4.3 11.7 3.3 11.7-3.2 11.7-3.7 11.7-1.8 11.7-4.3 11.7 14 11.7 11.6 11.7-.3 11.7-7.7 11.7-5.5 11.7 3.6 11.7 1.5 11.7-4.1 11.7-.4 11.7-10.8 11.7-4.9 11.7 7.2 11.6 4.1 11.7 2.4 11.7-9.4"/><g fill="#0aa0db"><circle cx="52.6" cy="483.4" r="1.8"/><circle cx="111" cy="488.5" r="1.8"/><circle cx="169.5" cy="491.1" r="1.8"/><circle cx="228" cy="487.2" r="1.8"/><circle cx="286.5" cy="478.5" r="1.8"/><circle cx="344.9" cy="473.7" r="1.8"/><circle cx="403.4" cy="438.5" r="1.8"/><circle cx="461.9" cy="459" r="1.8"/><circle cx="520.3" cy="463.3" r="1.8"/><circle cx="532" cy="466.6" r="1.8"/><circle cx="543.7" cy="463.4" r="1.8"/><circle cx="555.4" cy="459.7" r="1.8"/><circle cx="567.1" cy="457.9" r="1.8"/><circle cx="578.8" cy="453.6" r="1.8"/><circle cx="590.5" cy="467.6" r="1.8"/><circle cx="602.2" cy="479.2" r="1.8"/><circle cx="613.9" cy="478.9" r="1.8"/><circle cx="625.6" cy="471.2" r="1.8"/><circle cx="637.3" cy="465.7" r="1.8"/><circle cx="649" cy="469.3" r="1.8"/><circle cx="660.7" cy="470.8" r="1.8"/><circle cx="672.4" cy="466.7" r="1.8"/><circle cx="684.1" cy="466.3" r="1.8"/><circle cx="695.8" cy="455.5" r="1.8"/><circle cx="707.5" cy="450.6" r="1.8"/><circle cx="719.2" cy="457.8" r="1.8"/><circle cx="730.8" cy="461.9" r="1.8"/><circle cx="742.5" cy="464.3" r="1.8"/><circle cx="754.2" cy="454.9" r="1.8"/></g></g><g><path fill="none" stroke-linecap="butt" stroke-linejoin="round" stroke="#fff" stroke-width="2.5" d="m52.6 493.6 58.4 1.3 58.5.1 58.5-9.6 58.5-4.4 58.4-2.8 58.5 2.6 58.5-16.7 58.4-16.9 58.5 7.6 11.7 3.7 11.7 3.8 11.7-1.9 11.7-13.8 11.7.2 11.7 6 11.7 3 11.7 4.2 11.7 5.5 11.7 2.8 11.7 3.3 11.7 4 11.6 4.7 11.7 1.2 11.7-5.5"/><path stroke-linejoin="round" stroke-width="1.5" stroke="#21cf0f" fill="none" stroke-linecap="butt" d="m52.6 493.6 58.4 1.3 58.5.1 58.5-9.6 58.5-4.4 58.4-2.8 58.5 2.6 58.5-16.7 58.4-16.9 58.5 7.6 11.7 3.7 11.7 3.8 11.7-1.9 11.7-13.8 11.7.2 11.7 6 11.7 3 11.7 4.2 11.7 5.5 11.7 2.8 11.7 3.3 11.7 4 11.6 4.7 11.7 1.2 11.7-5.5"/><g fill="#21cf0f"><circle cx="52.6" cy="493.6" r="1.8"/><circle cx="111" cy="494.9" r="1.8"/><circle cx="169.5" cy="495" r="1.8"/><circle cx="228" cy="485.4" r="1.8"/><circle cx="286.5" cy="481" r="1.8"/><circle cx="344.9" cy="478.2" r="1.8"/><circle cx="403.4" cy="480.8" r="1.8"/><circle cx="461.9" cy="464.1" r="1.8"/><circle cx="520.3" cy="447.2" r="1.8"/><circle cx="578.8" cy="454.8" r="1.8"/><circle cx="590.5" cy="458.5" r="1.8"/><circle cx="602.2" cy="462.3" r="1.8"/><circle cx="613.9" cy="460.4" r="1.8"/><circle cx="625.6" cy="446.6" r="1.8"/><circle cx="637.3" cy="446.8" r="1.8"/><circle cx="649" cy="452.8" r="1.8"/><circle cx="660.7" cy="455.8" r="1.8"/><circle cx="672.4" cy="460" r="1.8"/><circle cx="684.1" cy="465.5" r="1.8"/><circle cx="695.8" cy="468.3" r="1.8"/><circle cx="707.5" cy="471.6" r="1.8"/><circle cx="719.2" cy="475.6" r="1.8"/><circle cx="730.8" cy="480.3" r="1.8"/><circle cx="742.5" cy="481.5" r="1.8"/><circle cx="754.2" cy="476" r="1.8"/></g></g><g><path fill="none" stroke-linecap="butt" stroke-linejoin="round" stroke="#fff" stroke-width="2.5" d="m52.6 480.8 58.4-1.3 58.5-2.5 58.5-39.8 58.5-120.6 58.4-61 58.5 4.9 58.5-6.7 46.7 56.4 11.7 62.2 11.7 3.9 11.7-11.6 11.7-.4 11.7 6.6 11.7 23.1 11.7 9.1 11.7 3 11.7-39 11.7-84.7 11.7-25.8L649 237l11.7-43.4 11.7-17 11.7 21.4 11.7 30.5 11.7 31.1 11.7 31 11.6 25.3 11.7 14.8 11.7-18.3"/><path stroke-linejoin="round" stroke-width="1.5" stroke="#a2559c" fill="none" stroke-linecap="butt" d="m52.6 480.8 58.4-1.3 58.5-2.5 58.5-39.8 58.5-120.6 58.4-61 58.5 4.9 58.5-6.7 46.7 56.4 11.7 62.2 11.7 3.9 11.7-11.6 11.7-.4 11.7 6.6 11.7 23.1 11.7 9.1 11.7 3 11.7-39 11.7-84.7 11.7-25.8L649 237l11.7-43.4 11.7-17 11.7 21.4 11.7 30.5 11.7 31.1 11.7 31 11.6 25.3 11.7 14.8 11.7-18.3"/><g fill="#a2559c"><circle cx="52.6" cy="480.8" r="1.8"/><circle cx="111" cy="479.5" r="1.8"/><circle cx="169.5" cy="477" r="1.8"/><circle cx="228" cy="437.2" r="1.8"/><circle cx="286.5" cy="316.6" r="1.8"/><circle cx="344.9" cy="255.6" r="1.8"/><circle cx="403.4" cy="260.5" r="1.8"/><circle cx="461.9" cy="253.8" r="1.8"/><circle cx="508.6" cy="310.2" r="1.8"/><circle cx="520.3" cy="372.4" r="1.8"/><circle cx="532" cy="376.3" r="1.8"/><circle cx="543.7" cy="364.7" r="1.8"/><circle cx="555.4" cy="364.3" r="1.8"/><circle cx="567.1" cy="370.9" r="1.8"/><circle cx="578.8" cy="394" r="1.8"/><circle cx="590.5" cy="403.1" r="1.8"/><circle cx="602.2" cy="406.1" r="1.8"/><circle cx="613.9" cy="367.1" r="1.8"/><circle cx="625.6" cy="282.4" r="1.8"/><circle cx="637.3" cy="256.6" r="1.8"/><circle cx="649" cy="237" r="1.8"/><circle cx="660.7" cy="193.6" r="1.8"/><circle cx="672.4" cy="176.6" r="1.8"/><circle cx="684.1" cy="198" r="1.8"/><circle cx="695.8" cy="228.5" r="1.8"/><circle cx="707.5" cy="259.6" r="1.8"/><circle cx="719.2" cy="290.6" r="1.8"/><circle cx="730.8" cy="315.9" r="1.8"/><circle cx="742.5" cy="330.7" r="1.8"/><circle cx="754.2" cy="312.4" r="1.8"/></g></g><g><path fill="none" stroke-linecap="butt" stroke-linejoin="round" stroke="#fff" stroke-width="2.5" d="m52.6 467.3 58.4-9.6 58.5 1.3 58.5-7.7 58.5-25.6 58.4-33.4 58.5-4.1 58.5-25.4 58.4 34.9 58.5 15 11.7 11.8 11.7 9.2 11.7-8.1 11.7-13.4 11.7-7.7H649l11.7-29.4 11.7-19.1 11.7-6.7 11.7 9.8 11.7 2.7 11.7 5.8 11.6 7.8 11.7 8.6 11.7 10.2"/><path stroke-linejoin="round" stroke-width="1.5" stroke="#d73c50" fill="none" stroke-linecap="butt" d="m52.6 467.3 58.4-9.6 58.5 1.3 58.5-7.7 58.5-25.6 58.4-33.4 58.5-4.1 58.5-25.4 58.4 34.9 58.5 15 11.7 11.8 11.7 9.2 11.7-8.1 11.7-13.4 11.7-7.7H649l11.7-29.4 11.7-19.1 11.7-6.7 11.7 9.8 11.7 2.7 11.7 5.8 11.6 7.8 11.7 8.6 11.7 10.2"/><g fill="#d73c50"><circle cx="52.6" cy="467.3" r="1.8"/><circle cx="111" cy="457.7" r="1.8"/><circle cx="169.5" cy="459" r="1.8"/><circle cx="228" cy="451.3" r="1.8"/><circle cx="286.5" cy="425.7" r="1.8"/><circle cx="344.9" cy="392.3" r="1.8"/><circle cx="403.4" cy="388.2" r="1.8"/><circle cx="461.9" cy="362.8" r="1.8"/><circle cx="520.3" cy="397.7" r="1.8"/><circle cx="578.8" cy="412.7" r="1.8"/><circle cx="590.5" cy="424.5" r="1.8"/><circle cx="602.2" cy="433.7" r="1.8"/><circle cx="613.9" cy="425.6" r="1.8"/><circle cx="625.6" cy="412.2" r="1.8"/><circle cx="637.3" cy="404.5" r="1.8"/><circle cx="649" cy="404.5" r="1.8"/><circle cx="660.7" cy="375.1" r="1.8"/><circle cx="672.4" cy="356" r="1.8"/><circle cx="684.1" cy="349.3" r="1.8"/><circle cx="695.8" cy="359.1" r="1.8"/><circle cx="707.5" cy="361.8" r="1.8"/><circle cx="719.2" cy="367.6" r="1.8"/><circle cx="730.8" cy="375.4" r="1.8"/><circle cx="742.5" cy="384" r="1.8"/><circle cx="754.2" cy="394.2" r="1.8"/></g></g></g></g></g><g class="SourcesFooter" style="fill:#777"><g style="fill:#777"><text font-size="12.6" x="15" y="567.9"><tspan x="15" y="567.88">Source: OECD (2020)</tspan></text></g><text font-size="12.6" x="15" y="582.5"><tspan x="15" y="582.48">Note: CC-BY-ND-NC</tspan></text><text font-size="12.6" x="538.9" y="567.9"><tspan x="538.9" y="567.88"><a target="_blank" style="fill:#777" href="https://tinyco.re/16081322">tinyco.re/16081322</a> • <a href="https://ourworldindata.org" target="_blank">Powered by ourworldindata.org</a></tspan></text></g></svg>