<svg xmlns="http://www.w3.org/2000/svg" version="1.1" style="background-color:#fff;-webkit-font-smoothing:antialiased" width="850" height="600" viewBox="0 0 850 600" font-family="Lato,'Helvetica Neue',Helvetica,Arial,sans-serif" font-size="18" text-rendering="geometricPrecision"><g class="HeaderView"><g transform="matrix(.95 0 0 .95 739 15)"><svg className="coreLogo" width="102" height="37" viewBox="0 0 102 37" fill="none" xmlns="http://www.w3.org/2000/svg"><path d="M47 0H0v37h47V0z" fill="#EA4148"/><path d="M3.78 11.85c0-3.55 2.67-5.6 5.68-5.6a4.63 4.63 0 013.09 1.1l-1.7 2.36c-.31-.32-.74-.5-1.18-.52-1.36 0-2.16 1.03-2.16 2.66 0 1.62.89 2.65 2.03 2.65a2.93 2.93 0 001.7-.69l1.4 2.4a5.29 5.29 0 01-3.52 1.24c-3 0-5.34-2.05-5.34-5.6z" fill="#fff"/><path d="M18.85 11.85c0-1.63-.42-2.66-1.52-2.66s-1.52 1.03-1.52 2.66c0 1.62.42 2.65 1.52 2.65s1.52-1.03 1.52-2.65zm-6.77 0c0-3.55 2.54-5.6 5.25-5.6 2.7 0 5.25 2.05 5.25 5.6s-2.54 5.6-5.25 5.6-5.25-2.05-5.25-5.6M23.34 6.5h2.97l.25 1.84h.09c.78-1.46 1.97-2.1 3-2.1.45-.02.9.05 1.32.22l-.6 3.16c-.38-.1-.78-.16-1.18-.17-.76 0-1.7.47-2.2 1.8v5.94h-3.65V6.5zm13.64 4.06c0-.81-.34-1.54-1.44-1.54-.8 0-1.49.47-1.7 1.54h3.14zm-6.6 1.29c0-3.47 2.49-5.6 5.07-5.6 3.13 0 4.62 2.3 4.62 5.17 0 .52-.05 1.03-.15 1.54h-6.04c.34 1.28 1.27 1.71 2.46 1.71a4.3 4.3 0 002.16-.64l1.18 2.18a7.08 7.08 0 01-3.85 1.24c-3.09 0-5.46-2.05-5.46-5.6" fill="#fff"/><path d="M10.43 23.87c0-.81-.34-1.54-1.44-1.54-.8 0-1.48.47-1.69 1.54h3.13zm-6.6 1.28c0-3.46 2.5-5.6 5.08-5.6 3.13 0 4.61 2.3 4.61 5.18 0 .51-.05 1.03-.15 1.54H7.34c.34 1.28 1.27 1.7 2.46 1.7.76-.01 1.5-.23 2.16-.63l1.18 2.18a7.08 7.08 0 01-3.85 1.24c-3.1 0-5.46-2.06-5.46-5.6m10.07-.01c0-3.55 2.67-5.6 5.68-5.6a4.63 4.63 0 013.09 1.11l-1.7 2.35c-.32-.31-.74-.5-1.18-.51-1.36 0-2.16 1.03-2.16 2.65 0 1.63.89 2.66 2.03 2.66a2.93 2.93 0 001.7-.69l1.39 2.4a5.29 5.29 0 01-3.51 1.24c-3 0-5.34-2.06-5.34-5.6" fill="#1A1818"/><path d="M28.97 25.15c0-1.62-.42-2.65-1.52-2.65s-1.52 1.03-1.52 2.65c0 1.63.42 2.66 1.52 2.66s1.52-1.03 1.52-2.66zm-6.77 0c0-3.55 2.54-5.6 5.25-5.6 2.7 0 5.25 2.05 5.25 5.6s-2.54 5.6-5.25 5.6-5.25-2.04-5.25-5.6m11.34-5.35h2.97l.25 1.29h.09a4.76 4.76 0 013.34-1.54c2.33 0 3.3 1.71 3.3 4.36v6.6h-3.64v-6.13c0-1.37-.34-1.7-1.06-1.7-.67 0-1.05.3-1.6.8v7.02h-3.65V19.8z" fill="#1A1818"/><path fill="#fff" d="M48 0h54v37H48z"/><path d="M48 0h53.93v33H48V0z" fill="#002147"/><path d="M58.42 10.86c0 .61-.1 1.18-.3 1.7a3.83 3.83 0 01-2.15 2.21c-.5.21-1.07.32-1.7.32-.6 0-1.17-.1-1.68-.32a3.9 3.9 0 01-2.15-2.21c-.2-.52-.3-1.09-.3-1.7 0-.61.1-1.18.3-1.7a3.93 3.93 0 012.15-2.22 4.38 4.38 0 011.69-.31c.62 0 1.18.1 1.69.31a3.79 3.79 0 012.15 2.22c.2.52.3 1.09.3 1.7zm-1.38 0c0-.48-.06-.9-.2-1.28A2.38 2.38 0 0055.43 8a2.97 2.97 0 00-1.14-.21c-.42 0-.8.07-1.15.21-.34.14-.63.35-.87.61a2.8 2.8 0 00-.56.97c-.13.38-.2.8-.2 1.28s.07.9.2 1.29a2.46 2.46 0 001.43 1.57c.35.14.73.2 1.15.2.42 0 .8-.06 1.15-.2a2.4 2.4 0 001.42-1.57c.13-.38.2-.81.2-1.29zm7.14-1.72V15h-.74c-.17 0-.27-.08-.32-.24l-.1-.54a3.42 3.42 0 01-.81.63 2.3 2.3 0 01-1.06.24c-.32 0-.6-.05-.85-.16a1.72 1.72 0 01-1-1.15 3.1 3.1 0 01-.12-.91V9.14h1.24v3.73c0 .4.09.7.27.92.18.22.46.32.83.32.27 0 .53-.06.76-.18.24-.13.46-.3.67-.52V9.13h1.23zm2.33 1.08c.18-.37.4-.66.66-.87.27-.22.58-.32.94-.32a1.34 1.34 0 01.66.17l-.09.93a.26.26 0 01-.07.14.2.2 0 01-.13.03c-.06 0-.14 0-.25-.03a1.62 1.62 0 00-.8.04c-.13.05-.25.13-.35.22-.1.1-.2.21-.28.35-.08.14-.15.3-.22.47V15h-1.24V9.13h.72c.13 0 .22.03.27.08.05.05.08.13.1.25l.08.76zm16-3.5L79.94 15h-1.21l-1.95-5.95a4.7 4.7 0 01-.12-.46 3.32 3.32 0 01-.13.46L74.57 15h-1.22l-2.57-8.28h1.13c.11 0 .2.03.28.09.08.05.14.12.16.22l1.56 5.3a6.11 6.11 0 01.16.8 10 10 0 01.2-.8l1.78-5.3a.48.48 0 01.16-.21.4.4 0 01.28-.1h.4c.11 0 .21.03.28.1.08.05.13.12.17.21l1.77 5.3.1.37.1.4a59.35 59.35 0 00.16-.76L81 7.03a.4.4 0 01.16-.22.49.49 0 01.3-.09h1.04zm2.41 2.32c.44 0 .83.07 1.18.22a2.49 2.49 0 011.47 1.55c.13.37.2.79.2 1.25 0 .47-.07.88-.2 1.26-.14.37-.33.69-.58.95a2.87 2.87 0 01-2.07.82c-.43 0-.83-.07-1.18-.22a2.55 2.55 0 01-1.47-1.55c-.14-.38-.2-.8-.2-1.26 0-.46.06-.88.2-1.25a2.55 2.55 0 011.47-1.55c.35-.15.75-.22 1.18-.22zm0 5.08c.53 0 .92-.18 1.18-.53.26-.36.4-.86.4-1.52s-.14-1.17-.4-1.53c-.26-.36-.65-.54-1.18-.54-.53 0-.93.18-1.2.54-.25.36-.38.87-.38 1.53s.13 1.16.39 1.52c.26.35.66.53 1.2.53zm4.86-3.9c.18-.37.4-.66.67-.87.26-.22.57-.32.93-.32a1.34 1.34 0 01.66.17l-.09.93a.26.26 0 01-.07.14.2.2 0 01-.13.03c-.06 0-.14 0-.25-.03a1.62 1.62 0 00-.8.04 1.29 1.29 0 00-.63.57c-.08.14-.15.3-.22.47V15H88.6V9.13h.72c.13 0 .22.03.27.08.05.05.08.13.1.25l.08.76zm4-3.73V15h-1.25V6.49h1.24zm4.91 4.09a1.45 1.45 0 00-1.24-.6c-.48 0-.86.18-1.13.54-.27.35-.4.87-.4 1.56 0 .37.02.67.08.93.07.25.15.46.27.62.11.16.25.28.42.35.16.08.35.11.56.11.31 0 .58-.07.8-.2.24-.14.45-.33.64-.58v-2.73zm1.24-4.09V15h-.75c-.16 0-.27-.08-.31-.24l-.11-.63c-.25.28-.53.52-.84.7-.31.17-.67.26-1.09.26a1.96 1.96 0 01-1.59-.78 2.73 2.73 0 01-.44-.94 4.86 4.86 0 01.01-2.5c.12-.37.3-.7.51-.96a2.3 2.3 0 011.85-.88c.34 0 .63.05.88.16.24.11.45.26.64.46V6.49h1.24zm-39.9 14.65V27h-1.24v-5.86h1.24zm.2-1.78c0 .12-.02.22-.06.32a.83.83 0 01-1.34.26.8.8 0 01-.24-.58c0-.11.02-.22.06-.32a.89.89 0 01.43-.43.76.76 0 01.64 0 .81.81 0 01.45.43c.04.1.06.2.06.32zm2.16 2.55a3.67 3.67 0 01.83-.63 2.32 2.32 0 011.9-.08c.24.11.45.26.61.46.17.2.3.43.38.7.09.28.13.58.13.9V27H65v-3.73c0-.4-.1-.7-.28-.92-.18-.22-.45-.33-.83-.33-.27 0-.53.06-.77.19-.23.13-.45.3-.66.52V27h-1.23v-5.86h.74c.17 0 .28.07.33.23l.08.54zm14.96.95c0 .61-.1 1.17-.3 1.68a3.78 3.78 0 01-2.15 2.16c-.5.2-1.07.3-1.69.3H70.1v-8.28h3.12c.62 0 1.19.1 1.7.3a3.71 3.71 0 012.14 2.16c.2.5.3 1.07.3 1.68zm-1.37 0c0-.48-.07-.9-.2-1.28a2.6 2.6 0 00-.55-.96 2.35 2.35 0 00-.87-.6 2.97 2.97 0 00-1.15-.21h-1.77v6.1h1.77c.43 0 .81-.07 1.15-.2a2.42 2.42 0 001.42-1.56c.13-.38.2-.81.2-1.29zm5.27 1.58a7.5 7.5 0 00-1.12.1c-.3.06-.55.13-.73.22a.97.97 0 00-.41.3.68.68 0 00-.12.4c0 .13.02.25.06.35.05.1.1.18.18.24.08.06.18.1.28.14a1.78 1.78 0 001.18-.14c.23-.12.46-.3.68-.53v-1.08zm-3.28-2.49a3.36 3.36 0 012.37-.92c.34 0 .63.05.9.16a1.83 1.83 0 011.06 1.18c.1.27.15.57.15.9V27h-.55a.56.56 0 01-.27-.05.42.42 0 01-.16-.23l-.12-.47-.44.36c-.15.1-.3.2-.46.26a2.77 2.77 0 01-1.75.12c-.2-.06-.38-.16-.53-.29a1.46 1.46 0 01-.48-1.18c0-.23.06-.45.18-.66.12-.22.32-.41.6-.58a4 4 0 011.1-.43 8.03 8.03 0 011.68-.19v-.39c0-.42-.1-.73-.27-.94-.18-.2-.45-.3-.8-.3-.23-.01-.43.02-.6.08a6.05 6.05 0 00-.74.39.54.54 0 01-.28.08.38.38 0 01-.22-.06.6.6 0 01-.15-.17l-.22-.4zm7.38 5.14c-.48 0-.86-.13-1.12-.4-.26-.28-.4-.67-.4-1.17v-3.41h-.64a.27.27 0 01-.18-.07c-.05-.04-.07-.11-.07-.2v-.5l.95-.14.27-1.7a.31.31 0 01.1-.15c.04-.04.1-.06.18-.06h.63v1.93h1.63v.89h-1.63v3.33c0 .2.05.37.16.48.1.11.24.17.41.17a.79.79 0 00.43-.12 4 4 0 00.12-.08.2.2 0 01.11-.04c.07 0 .13.04.17.11l.37.6c-.2.18-.42.3-.68.4a2.5 2.5 0 01-.8.13zm5.11-2.65a7.5 7.5 0 00-1.11.1 3 3 0 00-.74.22.97.97 0 00-.4.3.68.68 0 00-.13.4c0 .13.02.25.06.35.05.1.11.18.19.24s.17.1.28.14a1.78 1.78 0 001.18-.14c.23-.12.45-.3.67-.53v-1.08zm-3.28-2.49a3.36 3.36 0 012.37-.92c.34 0 .64.05.9.16.27.11.49.26.66.46.18.2.32.44.41.72.1.27.14.57.14.9V27h-.55a.56.56 0 01-.27-.05c-.06-.04-.11-.11-.15-.23l-.12-.47-.45.36c-.14.1-.3.2-.45.26a2.77 2.77 0 01-1.75.12c-.2-.06-.38-.16-.53-.29a1.46 1.46 0 01-.49-1.18c0-.23.06-.45.18-.66.12-.22.32-.41.6-.58.28-.17.65-.31 1.1-.43a8.03 8.03 0 011.68-.19v-.39c0-.42-.09-.73-.27-.94-.18-.2-.44-.3-.8-.3a1.5 1.5 0 00-.59.08 6.09 6.09 0 00-.74.39.54.54 0 01-.29.08.38.38 0 01-.22-.06.6.6 0 01-.14-.17l-.23-.4z" fill="#fff"/><path fill="#D42B21" d="M48 32.65h54V37H48z"/></svg></g><a href="https://ourworldindata.org/grapher/worldwide-public-goods-experiments-with-opportunities-for-peer-punishment" target="_blank" rel="noopener" font-family="&quot;Playfair Display&quot;,Georgia,&quot;Times New Roman&quot;,serif"><text font-size="21.6" x="15" y="32.3" fill="#555"><tspan x="15" y="32.28">Worldwide public goods experiments with opportunities for peer</tspan><tspan x="15" y="53.88">punishment, 1 to 10</tspan></text></a><text font-size="14.4" x="15" y="74.7" fill="#666"><tspan x="15" y="74.72">Unit 4 &apos;Social Interactions’ Section 4.7 &apos;Public good contributions and peer punishment&apos; in The CORE Team, The Economy.</tspan><tspan x="15" y="92">Available at: https://tinyco.re/04047491 [Figure 4.9b]</tspan></text></g><g class="LineChart"><defs><clipPath id="a"><path d="M37.22 101.2h840v441.6h-840z"/></clipPath></defs><g class="DualAxisView"><g class="HorizontalAxis"><text font-size="12.6" x="342.5" y="530.3"><tspan x="342.45" y="530.28">Period</tspan></text><path stroke="#999" d="M47.2 489v5M706.4 489v5M120.5 489v5M267 489v5M413.5 489v5M559.9 489v5"/><text x="47.22" y="510.2" fill="#666" text-anchor="start" font-size="16.2">1</text><text x="706.44" y="510.2" fill="#666" text-anchor="end" font-size="16.2">10</text><text x="120.5" y="510.2" fill="#666" text-anchor="middle" font-size="16.2">2</text><text x="267" y="510.2" fill="#666" text-anchor="middle" font-size="16.2">4</text><text x="413.5" y="510.2" fill="#666" text-anchor="middle" font-size="16.2">6</text><text x="559.9" y="510.2" fill="#666" text-anchor="middle" font-size="16.2">8</text></g><g class="VerticalAxis" text-anchor="end" fill="#666" font-size="16.2"><text x="42.22" y="489" dy=".32em">$0</text><text x="42.22" y="449" dy=".32em">$2</text><text x="42.22" y="408.9" dy=".32em">$4</text><text x="42.22" y="368.9" dy=".32em">$6</text><text x="42.22" y="328.9" dy=".32em">$8</text><text x="42.22" y="288.8" dy=".32em">$10</text><text x="42.22" y="248.8" dy=".32em">$12</text><text x="42.22" y="208.8" dy=".32em">$14</text><text x="42.22" y="168.7" dy=".32em">$16</text><text x="42.22" y="128.7" dy=".32em">$18</text></g><g class="AxisGridLines horizontalLines"><path stroke="#999" d="M47.22 489h659.22"/><path stroke="#ddd" stroke-dasharray="3,2" d="M47.22 449h659.22M47.22 408.9h659.22M47.22 368.9h659.22M47.22 328.9h659.22M47.22 288.8h659.22M47.22 248.8h659.22M47.22 208.8h659.22M47.22 168.7h659.22M47.22 128.7h659.22"/></g></g><g clip-path="url(#a)"><g class="LineLabels" cursor="default"><g class="legendMark"><g class="indicator"><path d="M710.44 138.5h18v-20.55h9" stroke="#999" stroke-width=".5" fill="none"/></g><text font-size="13.5" x="741.4" y="122" fill="#4C6A9C"><tspan x="741.44" y="122">Seoul</tspan></text></g><g class="legendMark"><g class="indicator"><path d="M710.44 148.4h21v-14.95h6" stroke="#999" stroke-width=".5" fill="none"/></g><text font-size="13.5" x="741.4" y="137.5" fill="#3C4E66"><tspan x="741.44" y="137.5">Copenhagen</tspan></text></g><g class="legendMark"><g class="indicator"><path d="M710.44 151.9h24v-2.95h3" stroke="#999" stroke-width=".5" fill="none"/></g><text font-size="13.5" x="741.4" y="153" fill="#883039"><tspan x="741.44" y="153">Boston</tspan></text></g><g class="legendMark"><g class="indicator"><path d="M710.44 159.6h24v4.85h3" stroke="#999" stroke-width=".5" fill="none"/></g><text font-size="13.5" x="741.4" y="168.5" fill="#6D3E91"><tspan x="741.44" y="168.5">Zurich</tspan></text></g><g class="legendMark"><g class="indicator"><path d="M710.44 171.7h21v8.25h6" stroke="#999" stroke-width=".5" fill="none"/></g><text font-size="13.5" x="741.4" y="184" fill="#00823F"><tspan x="741.44" y="184">Melbourne</tspan></text></g><g class="legendMark"><g class="indicator"><path d="M710.44 185.6h18v9.85h9" stroke="#999" stroke-width=".5" fill="none"/></g><text font-size="13.5" x="741.4" y="199.5" fill="#0F739C"><tspan x="741.44" y="199.5">St. Gallen</tspan></text></g><g class="legendMark"><g class="indicator"><path d="M710.44 192.5h15v18.45h12" stroke="#999" stroke-width=".5" fill="none"/></g><text font-size="13.5" x="741.4" y="215" fill="#D73C50"><tspan x="741.44" y="215">Chengdu</tspan></text></g><g class="legendMark"><g class="indicator"><path d="M710.44 194.8h12v31.65h15" stroke="#999" stroke-width=".5" fill="none"/></g><text font-size="13.5" x="741.4" y="230.5" fill="#CF0A66"><tspan x="741.44" y="230.5">Nottingham</tspan></text></g><g class="legendMark"><g class="indicator"><path d="M710.44 195.1h9v46.85h18" stroke="#999" stroke-width=".5" fill="none"/></g><text font-size="13.5" x="741.4" y="246" fill="#B13507"><tspan x="741.44" y="246">Bonn</tspan></text></g><g class="legendMark"><g class="indicator"><path d="M710.44 254.7h6v2.75h21" stroke="#999" stroke-width=".5" fill="none"/></g><text font-size="13.5" x="741.4" y="261.5" fill="#CD2285"><tspan x="741.44" y="261.5">Minsk</tspan></text></g><g class="legendMark"><g class="indicator"><path d="M710.44 257.4h3v15.55h24" stroke="#999" stroke-width=".5" fill="none"/></g><text font-size="13.5" x="741.4" y="277" fill="#C45267"><tspan x="741.44" y="277">Samara</tspan></text></g><g class="legendMark"><g class="indicator"><path d="M710.44 287.5h13.5v0h13.5" stroke="#999" stroke-width=".5" fill="none"/></g><text font-size="13.5" x="741.4" y="291.6" fill="#008860"><tspan x="741.44" y="291.55">Dnipropetrovs&apos;k</tspan></text></g><g class="legendMark"><g class="indicator"><path d="M710.44 306.9h13.5v0h13.5" stroke="#999" stroke-width=".5" fill="none"/></g><text font-size="13.5" x="741.4" y="310.9" fill="#9A5129"><tspan x="741.44" y="310.95">Muscat</tspan></text></g><g class="legendMark"><g class="indicator"><path d="M710.44 336.4h13.5v0h13.5" stroke="#999" stroke-width=".5" fill="none"/></g><text font-size="13.5" x="741.4" y="340.4" fill="#C05917"><tspan x="741.44" y="340.45">Istanbul</tspan></text></g><g class="legendMark"><g class="indicator"><path d="M710.44 356.4h13.5v-3.55h13.5" stroke="#999" stroke-width=".5" fill="none"/></g><text font-size="13.5" x="741.4" y="356.9" fill="#287669"><tspan x="741.44" y="356.9">Riyadh</tspan></text></g><g class="legendMark"><g class="indicator"><path d="M710.44 364.8h13.5v3.55h13.5" stroke="#999" stroke-width=".5" fill="none"/></g><text font-size="13.5" x="741.4" y="372.4" fill="#00847E"><tspan x="741.44" y="372.4">Athens</tspan></text></g></g><g class="Lines"><g><path stroke-linecap="round" stroke-linejoin="round" stroke="#ddd" d="M47.2 299.3l73.3-8.6 73.2-38.7 73.3 7.7 73.2-24.5 73.3 18.6 73.2 10.5 73.2 10.9 73.3 19.6 73.2-7.3" fill="none" stroke-width="1"/></g><g><path stroke-linecap="round" stroke-linejoin="round" stroke="#ddd" d="M47.2 273.6l73.3-10.8 73.2-8.9 73.3-.4 73.2 11.5 73.3-19.9 73.2.7 73.2-.7 73.3-4.1 73.2 16.4" fill="none" stroke-width="1"/></g><g><path stroke-linecap="round" stroke-linejoin="round" stroke="#ddd" d="M47.2 304.6l73.3-21.9 73.2 5 73.3 1.1 73.2 8.5 73.3-6.5 73.2-7.3 73.2-11.6 73.3 22.7 73.2 12.3" fill="none" stroke-width="1"/></g><g><path stroke-linecap="round" stroke-linejoin="round" stroke="#ddd" d="M47.2 187.9l73.3-33.5 73.2-17.1 73.3 2.9 73.2-4.4 73.3 6 73.2 11.1 73.2.8 73.3-2.7 73.2 34.6" fill="none" stroke-width="1"/></g><g><path stroke-linecap="round" stroke-linejoin="round" stroke="#ddd" d="M47.2 253.8l73.3-29.7 73.2 6.8 73.3-9.8 73.2-11.7 73.3 19.1 73.2-3.2 73.2-10.3 73.3 25.6 73.2 14.1" fill="none" stroke-width="1"/></g><g><path stroke-linecap="round" stroke-linejoin="round" stroke="#ddd" d="M47.2 366l73.3-12.5 73.2 1.2 73.3-24.6 73.2 6.7h73.3l73.2 27.1 73.2-2.5 73.3-15 73.2 10" fill="none" stroke-width="1"/></g><g><path stroke-linecap="round" stroke-linejoin="round" stroke="#ddd" d="M47.2 290.9l73.3-23.3 73.2-25 73.3-21.3 73.2-19.6 73.3-21.5 73.2-5.2 73.2-5.8 73.3 2.5 73.2 20.8" fill="none" stroke-width="1"/></g><g><path stroke-linecap="round" stroke-linejoin="round" stroke="#ddd" d="M47.2 358l73.3-.7 73.2-2.8 73.3 5.3 73.2-10.3 73.3-3.7 73.2-7.5 73.2-6.3h73.3l73.2 4.4" fill="none" stroke-width="1"/></g><g><path stroke-linecap="round" stroke-linejoin="round" stroke="#ddd" d="M47.2 295l73.3-48.3 73.2-23.4 73.3-16.7 73.2-5.7 73.3-17.9 73.2-15.2 73.2-15.3 73.3-9.5 73.2-4.5" fill="none" stroke-width="1"/></g><g><path stroke-linecap="round" stroke-linejoin="round" stroke="#ddd" d="M47.2 331.9l73.3-52.6 73.2-46.5 73.3-15.5 73.2-29.5 73.3-14.6 73.2-9 73.2-6 73.3-11.5 73.2 25" fill="none" stroke-width="1"/></g><g><path stroke-linecap="round" stroke-linejoin="round" stroke="#ddd" d="M47.2 168.4l73.3-36.1 73.2-14.7 73.3-6.4 73.2 12.9 73.3-6.5 73.2-2.5 73.2 12.5 73.3-2.5 73.2 26.8" fill="none" stroke-width="1"/></g><g><path stroke-linecap="round" stroke-linejoin="round" stroke="#ddd" d="M47.2 262.4l73.3-51.5 73.2-16.1 73.3 5.8 73.2-17.2 73.3-23.6 73.2 1.4 73.2-7.1 73.3 8.6 73.2 32.1" fill="none" stroke-width="1"/></g><g><path stroke-linecap="round" stroke-linejoin="round" stroke="#ddd" d="M47.2 224.2l73.3-35.9 73.2-15 73.3-9.8 73.2-1.9 73.3-5.3 73.2-11.5 73.2 3.3 73.3-10.7 73.2 22.2" fill="none" stroke-width="1"/></g><g><path stroke-linecap="round" stroke-linejoin="round" stroke="#ddd" d="M47.2 372.5l73.3 3.7 73.2-4.6 73.3-7.7 73.2.5 73.3 7.2 73.2 4.6 73.2 15.9 73.3 3.2 73.2-30.5" fill="none" stroke-width="1"/></g><g><path stroke-linecap="round" stroke-linejoin="round" stroke="#ddd" d="M47.2 247.8l73.3-28.3 73.2-12.4 73.3 1 73.2-27.7 73.3 20 73.2-16 73.2-5.6 73.3-10.1 73.2 26.4" fill="none" stroke-width="1"/></g><g><path stroke-linecap="round" stroke-linejoin="round" stroke="#ddd" d="M47.2 180.5l73.3-31.2 73.2-15.3 73.3-8.5 73.2-4.1 73.3-6.5 73.2-.9 73.2 8.2 73.3 5 73.2 21.2" fill="none" stroke-width="1"/></g><g><path stroke="#008860" stroke-linecap="round" stroke-linejoin="round" d="M47.2 299.3l73.3-8.6 73.2-38.7 73.3 7.7 73.2-24.5 73.3 18.6 73.2 10.5 73.2 10.9 73.3 19.6 73.2-7.3" fill="none" stroke-width="1.5"/><g fill="#008860"><circle cx="47.2" cy="299.3" r="2"/><circle cx="120.5" cy="290.7" r="2"/><circle cx="193.7" cy="252" r="2"/><circle cx="267" cy="259.7" r="2"/><circle cx="340.2" cy="235.2" r="2"/><circle cx="413.5" cy="253.8" r="2"/><circle cx="486.7" cy="264.3" r="2"/><circle cx="559.9" cy="275.2" r="2"/><circle cx="633.2" cy="294.8" r="2"/><circle cx="706.4" cy="287.5" r="2"/></g></g><g><path stroke="#C45267" stroke-linecap="round" stroke-linejoin="round" d="M47.2 273.6l73.3-10.8 73.2-8.9 73.3-.4 73.2 11.5 73.3-19.9 73.2.7 73.2-.7 73.3-4.1 73.2 16.4" fill="none" stroke-width="1.5"/><g fill="#C45267"><circle cx="47.2" cy="273.6" r="2"/><circle cx="120.5" cy="262.8" r="2"/><circle cx="193.7" cy="253.9" r="2"/><circle cx="267" cy="253.5" r="2"/><circle cx="340.2" cy="265" r="2"/><circle cx="413.5" cy="245.1" r="2"/><circle cx="486.7" cy="245.8" r="2"/><circle cx="559.9" cy="245.1" r="2"/><circle cx="633.2" cy="241" r="2"/><circle cx="706.4" cy="257.4" r="2"/></g></g><g><path stroke="#9A5129" stroke-linecap="round" stroke-linejoin="round" d="M47.2 304.6l73.3-21.9 73.2 5 73.3 1.1 73.2 8.5 73.3-6.5 73.2-7.3 73.2-11.6 73.3 22.7 73.2 12.3" fill="none" stroke-width="1.5"/><g fill="#9A5129"><circle cx="47.2" cy="304.6" r="2"/><circle cx="120.5" cy="282.7" r="2"/><circle cx="193.7" cy="287.7" r="2"/><circle cx="267" cy="288.8" r="2"/><circle cx="340.2" cy="297.3" r="2"/><circle cx="413.5" cy="290.8" r="2"/><circle cx="486.7" cy="283.5" r="2"/><circle cx="559.9" cy="271.9" r="2"/><circle cx="633.2" cy="294.6" r="2"/><circle cx="706.4" cy="306.9" r="2"/></g></g><g><path stroke="#0F739C" stroke-linecap="round" stroke-linejoin="round" d="M47.2 187.9l73.3-33.5 73.2-17.1 73.3 2.9 73.2-4.4 73.3 6 73.2 11.1 73.2.8 73.3-2.7 73.2 34.6" fill="none" stroke-width="1.5"/><g fill="#0F739C"><circle cx="47.2" cy="187.9" r="2"/><circle cx="120.5" cy="154.4" r="2"/><circle cx="193.7" cy="137.3" r="2"/><circle cx="267" cy="140.2" r="2"/><circle cx="340.2" cy="135.8" r="2"/><circle cx="413.5" cy="141.8" r="2"/><circle cx="486.7" cy="152.9" r="2"/><circle cx="559.9" cy="153.7" r="2"/><circle cx="633.2" cy="151" r="2"/><circle cx="706.4" cy="185.6" r="2"/></g></g><g><path stroke="#CD2285" stroke-linecap="round" stroke-linejoin="round" d="M47.2 253.8l73.3-29.7 73.2 6.8 73.3-9.8 73.2-11.7 73.3 19.1 73.2-3.2 73.2-10.3 73.3 25.6 73.2 14.1" fill="none" stroke-width="1.5"/><g fill="#CD2285"><circle cx="47.2" cy="253.8" r="2"/><circle cx="120.5" cy="224.1" r="2"/><circle cx="193.7" cy="230.9" r="2"/><circle cx="267" cy="221.1" r="2"/><circle cx="340.2" cy="209.4" r="2"/><circle cx="413.5" cy="228.5" r="2"/><circle cx="486.7" cy="225.3" r="2"/><circle cx="559.9" cy="215" r="2"/><circle cx="633.2" cy="240.6" r="2"/><circle cx="706.4" cy="254.7" r="2"/></g></g><g><path stroke="#287669" stroke-linecap="round" stroke-linejoin="round" d="M47.2 366l73.3-12.5 73.2 1.2 73.3-24.6 73.2 6.7h73.3l73.2 27.1 73.2-2.5 73.3-15 73.2 10" fill="none" stroke-width="1.5"/><g fill="#287669"><circle cx="47.2" cy="366" r="2"/><circle cx="120.5" cy="353.5" r="2"/><circle cx="193.7" cy="354.7" r="2"/><circle cx="267" cy="330.1" r="2"/><circle cx="340.2" cy="336.8" r="2"/><circle cx="413.5" cy="336.8" r="2"/><circle cx="486.7" cy="363.9" r="2"/><circle cx="559.9" cy="361.4" r="2"/><circle cx="633.2" cy="346.4" r="2"/><circle cx="706.4" cy="356.4" r="2"/></g></g><g><path stroke="#D73C50" stroke-linecap="round" stroke-linejoin="round" d="M47.2 290.9l73.3-23.3 73.2-25 73.3-21.3 73.2-19.6 73.3-21.5 73.2-5.2 73.2-5.8 73.3 2.5 73.2 20.8" fill="none" stroke-width="1.5"/><g fill="#D73C50"><circle cx="47.2" cy="290.9" r="2"/><circle cx="120.5" cy="267.6" r="2"/><circle cx="193.7" cy="242.6" r="2"/><circle cx="267" cy="221.3" r="2"/><circle cx="340.2" cy="201.7" r="2"/><circle cx="413.5" cy="180.2" r="2"/><circle cx="486.7" cy="175" r="2"/><circle cx="559.9" cy="169.2" r="2"/><circle cx="633.2" cy="171.7" r="2"/><circle cx="706.4" cy="192.5" r="2"/></g></g><g><path stroke="#C05917" stroke-linecap="round" stroke-linejoin="round" d="M47.2 358l73.3-.7 73.2-2.8 73.3 5.3 73.2-10.3 73.3-3.7 73.2-7.5 73.2-6.3h73.3l73.2 4.4" fill="none" stroke-width="1.5"/><g fill="#C05917"><circle cx="47.2" cy="358" r="2"/><circle cx="120.5" cy="357.3" r="2"/><circle cx="193.7" cy="354.5" r="2"/><circle cx="267" cy="359.8" r="2"/><circle cx="340.2" cy="349.5" r="2"/><circle cx="413.5" cy="345.8" r="2"/><circle cx="486.7" cy="338.3" r="2"/><circle cx="559.9" cy="332" r="2"/><circle cx="633.2" cy="332" r="2"/><circle cx="706.4" cy="336.4" r="2"/></g></g><g><path stroke="#4C6A9C" stroke-linecap="round" stroke-linejoin="round" d="M47.2 295l73.3-48.3 73.2-23.4 73.3-16.7 73.2-5.7 73.3-17.9 73.2-15.2 73.2-15.3 73.3-9.5 73.2-4.5" fill="none" stroke-width="1.5"/><g fill="#4C6A9C"><circle cx="47.2" cy="295" r="2"/><circle cx="120.5" cy="246.7" r="2"/><circle cx="193.7" cy="223.3" r="2"/><circle cx="267" cy="206.6" r="2"/><circle cx="340.2" cy="200.9" r="2"/><circle cx="413.5" cy="183" r="2"/><circle cx="486.7" cy="167.8" r="2"/><circle cx="559.9" cy="152.5" r="2"/><circle cx="633.2" cy="143" r="2"/><circle cx="706.4" cy="138.5" r="2"/></g></g><g><path stroke="#00823F" stroke-linecap="round" stroke-linejoin="round" d="M47.2 331.9l73.3-52.6 73.2-46.5 73.3-15.5 73.2-29.5 73.3-14.6 73.2-9 73.2-6 73.3-11.5 73.2 25" fill="none" stroke-width="1.5"/><g fill="#00823F"><circle cx="47.2" cy="331.9" r="2"/><circle cx="120.5" cy="279.3" r="2"/><circle cx="193.7" cy="232.8" r="2"/><circle cx="267" cy="217.3" r="2"/><circle cx="340.2" cy="187.8" r="2"/><circle cx="413.5" cy="173.2" r="2"/><circle cx="486.7" cy="164.2" r="2"/><circle cx="559.9" cy="158.2" r="2"/><circle cx="633.2" cy="146.7" r="2"/><circle cx="706.4" cy="171.7" r="2"/></g></g><g><path stroke="#883039" stroke-linecap="round" stroke-linejoin="round" d="M47.2 168.4l73.3-36.1 73.2-14.7 73.3-6.4 73.2 12.9 73.3-6.5 73.2-2.5 73.2 12.5 73.3-2.5 73.2 26.8" fill="none" stroke-width="1.5"/><g fill="#883039"><circle cx="47.2" cy="168.4" r="2"/><circle cx="120.5" cy="132.3" r="2"/><circle cx="193.7" cy="117.6" r="2"/><circle cx="267" cy="111.2" r="2"/><circle cx="340.2" cy="124.1" r="2"/><circle cx="413.5" cy="117.6" r="2"/><circle cx="486.7" cy="115.1" r="2"/><circle cx="559.9" cy="127.6" r="2"/><circle cx="633.2" cy="125.1" r="2"/><circle cx="706.4" cy="151.9" r="2"/></g></g><g><path stroke="#CF0A66" stroke-linecap="round" stroke-linejoin="round" d="M47.2 262.4l73.3-51.5 73.2-16.1 73.3 5.8 73.2-17.2 73.3-23.6 73.2 1.4 73.2-7.1 73.3 8.6 73.2 32.1" fill="none" stroke-width="1.5"/><g fill="#CF0A66"><circle cx="47.2" cy="262.4" r="2"/><circle cx="120.5" cy="210.9" r="2"/><circle cx="193.7" cy="194.8" r="2"/><circle cx="267" cy="200.6" r="2"/><circle cx="340.2" cy="183.4" r="2"/><circle cx="413.5" cy="159.8" r="2"/><circle cx="486.7" cy="161.2" r="2"/><circle cx="559.9" cy="154.1" r="2"/><circle cx="633.2" cy="162.7" r="2"/><circle cx="706.4" cy="194.8" r="2"/></g></g><g><path stroke="#6D3E91" stroke-linecap="round" stroke-linejoin="round" d="M47.2 224.2l73.3-35.9 73.2-15 73.3-9.8 73.2-1.9 73.3-5.3 73.2-11.5 73.2 3.3 73.3-10.7 73.2 22.2" fill="none" stroke-width="1.5"/><g fill="#6D3E91"><circle cx="47.2" cy="224.2" r="2"/><circle cx="120.5" cy="188.3" r="2"/><circle cx="193.7" cy="173.3" r="2"/><circle cx="267" cy="163.5" r="2"/><circle cx="340.2" cy="161.6" r="2"/><circle cx="413.5" cy="156.3" r="2"/><circle cx="486.7" cy="144.8" r="2"/><circle cx="559.9" cy="148.1" r="2"/><circle cx="633.2" cy="137.4" r="2"/><circle cx="706.4" cy="159.6" r="2"/></g></g><g><path stroke="#00847E" stroke-linecap="round" stroke-linejoin="round" d="M47.2 372.5l73.3 3.7 73.2-4.6 73.3-7.7 73.2.5 73.3 7.2 73.2 4.6 73.2 15.9 73.3 3.2 73.2-30.5" fill="none" stroke-width="1.5"/><g fill="#00847E"><circle cx="47.2" cy="372.5" r="2"/><circle cx="120.5" cy="376.2" r="2"/><circle cx="193.7" cy="371.6" r="2"/><circle cx="267" cy="363.9" r="2"/><circle cx="340.2" cy="364.4" r="2"/><circle cx="413.5" cy="371.6" r="2"/><circle cx="486.7" cy="376.2" r="2"/><circle cx="559.9" cy="392.1" r="2"/><circle cx="633.2" cy="395.3" r="2"/><circle cx="706.4" cy="364.8" r="2"/></g></g><g><path stroke="#B13507" stroke-linecap="round" stroke-linejoin="round" d="M47.2 247.8l73.3-28.3 73.2-12.4 73.3 1 73.2-27.7 73.3 20 73.2-16 73.2-5.6 73.3-10.1 73.2 26.4" fill="none" stroke-width="1.5"/><g fill="#B13507"><circle cx="47.2" cy="247.8" r="2"/><circle cx="120.5" cy="219.5" r="2"/><circle cx="193.7" cy="207.1" r="2"/><circle cx="267" cy="208.1" r="2"/><circle cx="340.2" cy="180.4" r="2"/><circle cx="413.5" cy="200.4" r="2"/><circle cx="486.7" cy="184.4" r="2"/><circle cx="559.9" cy="178.8" r="2"/><circle cx="633.2" cy="168.7" r="2"/><circle cx="706.4" cy="195.1" r="2"/></g></g><g><path stroke="#3C4E66" stroke-linecap="round" stroke-linejoin="round" d="M47.2 180.5l73.3-31.2 73.2-15.3 73.3-8.5 73.2-4.1 73.3-6.5 73.2-.9 73.2 8.2 73.3 5 73.2 21.2" fill="none" stroke-width="1.5"/><g fill="#3C4E66"><circle cx="47.2" cy="180.5" r="2"/><circle cx="120.5" cy="149.3" r="2"/><circle cx="193.7" cy="134" r="2"/><circle cx="267" cy="125.5" r="2"/><circle cx="340.2" cy="121.4" r="2"/><circle cx="413.5" cy="114.9" r="2"/><circle cx="486.7" cy="114" r="2"/><circle cx="559.9" cy="122.2" r="2"/><circle cx="633.2" cy="127.2" r="2"/><circle cx="706.4" cy="148.4" r="2"/></g></g></g></g></g><g class="SourcesFooter" fill="#777"><g fill="#777"><text font-size="12.6" x="15" y="567.9"><tspan x="15" y="567.88">Source: Herrmann, Thöni and Gächter (2008)</tspan></text></g><text font-size="12.6" x="15" y="582.5"><tspan x="15" y="582.48">Note: CC-BY-ND-NC</tspan></text><text font-size="12.6" x="538.9" y="567.9"><tspan x="538.9" y="567.88"><a target="_blank" href="https://tinyco.re/04047491" fill="#777">tinyco.re/04047491</a> • <a href="https://ourworldindata.org" target="_blank">Powered by ourworldindata.org</a></tspan></text></g></svg>