<svg xmlns="http://www.w3.org/2000/svg" version="1.1" style="font-family:Lato,'Helvetica Neue',Helvetica,Arial,sans-serif;font-size:18px;background-color:#fff;text-rendering:geometricPrecision;-webkit-font-smoothing:antialiased" width="850" height="600" viewBox="0 0 850 600"><g class="HeaderView"><g transform="matrix(.29 0 0 .29 774 15)"><svg className="owidLog" width="210" height="120" viewBox="0 0 210 120" fill="none" xmlns="http://www.w3.org/2000/svg"><g clip-path="url(#a)"><path d="M0 0h210v107.89H0V0z" fill="#002147"/><path d="M40.98 32.25c0 2.36-.38 4.53-1.12 6.51a14.26 14.26 0 0 1-8.1 8.4c-1.9.78-4.02 1.17-6.34 1.17a16.6 16.6 0 0 1-6.33-1.17 14.31 14.31 0 0 1-8.08-8.4 18.29 18.29 0 0 1-1.12-6.51c0-2.36.38-4.53 1.12-6.5.75-1.97 1.8-3.67 3.17-5.1a14.32 14.32 0 0 1 4.9-3.34c1.92-.8 4.03-1.19 6.34-1.19 2.32 0 4.43.4 6.34 1.19 1.92.8 3.56 1.9 4.93 3.34a14.87 14.87 0 0 1 3.17 5.1 18.1 18.1 0 0 1 1.12 6.5zm-4.38 0c0-1.94-.26-3.68-.8-5.22a10.91 10.91 0 0 0-2.24-3.89 9.68 9.68 0 0 0-3.52-2.46 11.95 11.95 0 0 0-4.62-.86c-1.68 0-3.21.28-4.6.86a9.88 9.88 0 0 0-3.54 2.46 10.91 10.91 0 0 0-2.24 3.9c-.53 1.53-.8 3.27-.8 5.2 0 1.94.27 3.68.8 5.22a11.17 11.17 0 0 0 2.24 3.9 10.01 10.01 0 0 0 3.55 2.44c1.38.56 2.9.83 4.6.83s3.24-.27 4.61-.83a9.8 9.8 0 0 0 3.52-2.44 11.17 11.17 0 0 0 2.25-3.9c.53-1.54.8-3.28.8-5.21zm26.22-6.54V48H60.5c-.56 0-.9-.27-1.05-.81l-.31-2.4a12.45 12.45 0 0 1-3.26 2.6c-1.2.64-2.58.96-4.13.96-1.22 0-2.3-.2-3.24-.6a6.52 6.52 0 0 1-2.33-1.7 7.37 7.37 0 0 1-1.43-2.67c-.3-1.04-.46-2.2-.46-3.45V25.7h3.91v14.22c0 1.68.38 2.99 1.15 3.91.77.93 1.96 1.39 3.54 1.39 1.16 0 2.24-.27 3.23-.82a10.42 10.42 0 0 0 2.8-2.28V25.7h3.91zm8.61 4.47a9.94 9.94 0 0 1 2.6-3.56 5.64 5.64 0 0 1 3.76-1.3c.47 0 .92.05 1.34.15.44.1.83.27 1.17.49l-.3 2.92c-.09.37-.3.55-.66.55-.2 0-.5-.04-.9-.13a6.21 6.21 0 0 0-3.24.18 4.23 4.23 0 0 0-1.47.92c-.42.4-.81.9-1.17 1.5-.33.58-.64 1.26-.92 2.02V48H67.7V25.71h2.25c.42 0 .72.08.88.25.16.16.27.44.33.83l.26 3.39zm61.16-13.7L122.75 48h-3.82l-7.99-24.05a21.95 21.95 0 0 1-.42-1.58 38.36 38.36 0 0 1-.44 1.58L102.05 48h-3.83L88.4 16.47h3.54c.38 0 .7.1.95.29.26.2.43.43.5.73l6.52 21.9.28 1.28.29 1.46.3-1.46.38-1.27 7.41-21.91c.1-.25.26-.48.51-.69.27-.22.58-.33.95-.33h1.23c.38 0 .69.1.92.29a1.77 1.77 0 0 1 .53.73l7.4 21.9a28.4 28.4 0 0 1 .68 2.62 29.52 29.52 0 0 1 .52-2.61l6.54-21.91a1.31 1.31 0 0 1 .48-.7c.27-.21.58-.32.95-.32h3.32zm9.35 8.88c1.63 0 3.1.27 4.4.82a9.43 9.43 0 0 1 5.46 5.94c.5 1.4.74 2.98.74 4.73 0 1.76-.25 3.34-.74 4.75a9.43 9.43 0 0 1-5.46 5.92c-1.3.52-2.77.79-4.4.79-1.64 0-3.12-.27-4.44-.8a9.42 9.42 0 0 1-3.35-2.3c-.92-1-1.63-2.2-2.13-3.61-.49-1.41-.73-3-.73-4.75s.24-3.33.73-4.73c.5-1.43 1.2-2.64 2.13-3.63a9.4 9.4 0 0 1 3.35-2.31c1.32-.55 2.8-.82 4.44-.82zm0 19.89c2.2 0 3.84-.73 4.93-2.2 1.08-1.48 1.63-3.54 1.63-6.18 0-2.66-.55-4.72-1.63-6.2-1.09-1.49-2.73-2.23-4.93-2.23-1.12 0-2.09.2-2.93.57a5.71 5.71 0 0 0-2.06 1.65 7.5 7.5 0 0 0-1.24 2.67c-.26 1.04-.4 2.22-.4 3.54 0 2.64.55 4.7 1.64 6.18 1.1 1.47 2.76 2.2 4.99 2.2zm17.97-15.07a9.94 9.94 0 0 1 2.6-3.56 5.64 5.64 0 0 1 3.76-1.3c.47 0 .91.05 1.34.15.44.1.83.27 1.16.49l-.28 2.92c-.09.37-.31.55-.66.55-.2 0-.5-.04-.9-.13a6.2 6.2 0 0 0-3.24.18 4.23 4.23 0 0 0-1.47.92c-.43.4-.82.9-1.17 1.5a13.1 13.1 0 0 0-.92 2.02V48h-3.94V25.71h2.24c.43 0 .72.08.88.25.17.16.28.44.33.83l.27 3.39zm15.04-14.59V48h-3.92V15.6h3.92zm19.55 15.43a6.22 6.22 0 0 0-2.38-2.05 6.7 6.7 0 0 0-2.86-.6c-2.07 0-3.66.75-4.77 2.23-1.12 1.48-1.68 3.6-1.68 6.33 0 1.46.13 2.7.38 3.74a7.29 7.29 0 0 0 1.1 2.56 4.35 4.35 0 0 0 1.78 1.45c.7.3 1.5.46 2.4.46 1.29 0 2.41-.3 3.36-.88a9.6 9.6 0 0 0 2.67-2.49V31.02zm3.91-15.43V48h-2.33c-.56 0-.9-.27-1.06-.81l-.35-2.71a12.13 12.13 0 0 1-3.25 2.77 8.28 8.28 0 0 1-4.23 1.06 7.31 7.31 0 0 1-6.14-2.9c-.73-.96-1.3-2.15-1.69-3.57a18.35 18.35 0 0 1 .07-9.48 11.29 11.29 0 0 1 1.89-3.7 8.7 8.7 0 0 1 7.06-3.34 7.96 7.96 0 0 1 6.12 2.62V15.59h3.91zM46.61 70.71V93H42.7V70.71h3.91zm.84-7c0 .39-.08.75-.24 1.09a2.81 2.81 0 0 1-1.52 1.47 2.67 2.67 0 0 1-2.16 0 2.9 2.9 0 0 1-1.45-1.47 2.67 2.67 0 0 1 0-2.16c.15-.35.35-.65.6-.9.25-.27.53-.47.85-.62a2.67 2.67 0 0 1 2.16 0c.35.15.65.35.9.62.27.25.47.55.62.9.16.34.24.7.24 1.08zm7.97 10.24c.49-.54 1-1.04 1.54-1.48a9.85 9.85 0 0 1 3.66-1.84 8.96 8.96 0 0 1 5.43.35c.94.4 1.72.97 2.33 1.71a7.36 7.36 0 0 1 1.43 2.67c.32 1.04.49 2.19.49 3.45V93h-3.94V78.81c0-1.69-.4-3-1.17-3.92-.76-.93-1.93-1.4-3.5-1.4a6.6 6.6 0 0 0-3.25.83c-1 .56-1.92 1.31-2.77 2.27V93h-3.94V70.71h2.35c.56 0 .9.28 1.04.82l.3 2.42zm57.7 3.3c0 2.36-.37 4.5-1.11 6.44a14.3 14.3 0 0 1-3.17 4.98 14.1 14.1 0 0 1-4.93 3.2c-1.9.76-4.02 1.13-6.33 1.13H85.8V61.47h11.77c2.31 0 4.42.39 6.33 1.15a13.8 13.8 0 0 1 8.1 8.18 17.75 17.75 0 0 1 1.12 6.45zm-4.37 0c0-1.94-.26-3.67-.8-5.2a10.94 10.94 0 0 0-2.23-3.87 9.57 9.57 0 0 0-3.53-2.42 12.23 12.23 0 0 0-4.61-.83h-7.5v24.62h7.5c1.7 0 3.24-.28 4.61-.84a9.7 9.7 0 0 0 3.53-2.4 10.94 10.94 0 0 0 2.24-3.87c.53-1.53.8-3.26.8-5.2zm19.8 5.72c-1.8.06-3.34.2-4.62.44-1.26.22-2.3.51-3.1.88-.8.36-1.37.8-1.74 1.3-.35.5-.53 1.05-.53 1.67 0 .58.1 1.1.3 1.52a3 3 0 0 0 .76 1.05c.34.27.73.46 1.17.6a6.13 6.13 0 0 0 1.45.17 7.28 7.28 0 0 0 3.5-.81 11.95 11.95 0 0 0 2.82-2.2v-4.62zm-12.65-9.11a12.73 12.73 0 0 1 3.98-2.66c1.43-.59 3-.88 4.73-.88 1.25 0 2.36.2 3.33.61a6.81 6.81 0 0 1 3.94 4.38c.33 1.04.5 2.19.5 3.43V93h-1.74a1.8 1.8 0 0 1-.88-.18c-.2-.13-.36-.38-.48-.74l-.44-2.12-1.72 1.46a9.48 9.48 0 0 1-3.74 1.7c-.69.15-1.46.23-2.3.23-.87 0-1.69-.12-2.45-.35a5.34 5.34 0 0 1-3.34-2.93 6.64 6.64 0 0 1-.49-2.64c0-.88.25-1.72.73-2.53a6.33 6.33 0 0 1 2.35-2.17c1.09-.63 2.5-1.15 4.25-1.54 1.75-.41 3.89-.65 6.42-.7v-1.75c0-1.73-.37-3.03-1.12-3.91-.75-.9-1.84-1.34-3.28-1.34-.97 0-1.78.12-2.44.37-.64.23-1.2.5-1.7.81l-1.23.82c-.33.23-.67.35-1 .35-.27 0-.5-.07-.69-.2a2.1 2.1 0 0 1-.48-.53l-.7-1.25zm27.67 19.5c-1.76 0-3.12-.5-4.07-1.48-.94-.98-1.41-2.4-1.41-4.25V74h-2.68a.9.9 0 0 1-.6-.2c-.16-.14-.24-.36-.24-.66v-1.56l3.65-.46.9-6.89a.9.9 0 0 1 .29-.52.88.88 0 0 1 .62-.22H142v7.67h6.44V74H142v13.38c0 .94.22 1.63.68 2.09.45.45 1.04.68 1.76.68a3.21 3.21 0 0 0 1.85-.53l.55-.35c.16-.12.3-.18.41-.18.2 0 .4.13.55.38l1.15 1.87a7.45 7.45 0 0 1-2.44 1.5 8.53 8.53 0 0 1-2.95.52zm19.68-10.4c-1.8.07-3.34.21-4.62.45-1.26.22-2.3.51-3.1.88-.8.36-1.37.8-1.74 1.3-.35.5-.53 1.05-.53 1.67 0 .58.1 1.1.3 1.52a2.9 2.9 0 0 0 .76 1.05c.34.27.73.46 1.17.6a6.13 6.13 0 0 0 1.45.17 7.3 7.3 0 0 0 3.5-.81 12.04 12.04 0 0 0 2.82-2.2v-4.62zm-12.65-9.1a12.72 12.72 0 0 1 3.99-2.66c1.42-.59 3-.88 4.72-.88 1.25 0 2.36.2 3.33.61a6.81 6.81 0 0 1 3.94 4.38c.33 1.04.5 2.19.5 3.43V93h-1.74a1.8 1.8 0 0 1-.88-.18c-.2-.13-.36-.38-.48-.74l-.44-2.12-1.72 1.46a9.48 9.48 0 0 1-3.74 1.7c-.69.15-1.46.23-2.3.23-.87 0-1.69-.12-2.45-.35a5.33 5.33 0 0 1-3.34-2.93 6.62 6.62 0 0 1-.49-2.64c0-.88.25-1.72.73-2.53a6.33 6.33 0 0 1 2.35-2.17c1.09-.63 2.5-1.15 4.25-1.54a31.2 31.2 0 0 1 6.42-.7v-1.75c0-1.73-.37-3.03-1.12-3.91-.75-.9-1.84-1.34-3.28-1.34-.97 0-1.78.12-2.44.37-.64.23-1.2.5-1.7.81l-1.22.82c-.34.23-.68.35-1.02.35-.26 0-.49-.07-.68-.2a1.88 1.88 0 0 1-.48-.53l-.7-1.25zM40.98 32.25c0 2.36-.38 4.53-1.12 6.51a14.26 14.26 0 0 1-8.1 8.4c-1.9.78-4.02 1.17-6.34 1.17a16.6 16.6 0 0 1-6.33-1.17 14.31 14.31 0 0 1-8.08-8.4 18.29 18.29 0 0 1-1.12-6.51c0-2.36.38-4.53 1.12-6.5.75-1.97 1.8-3.67 3.17-5.1a14.32 14.32 0 0 1 4.9-3.34c1.92-.8 4.03-1.19 6.34-1.19 2.32 0 4.43.4 6.34 1.19 1.92.8 3.56 1.9 4.93 3.34a14.87 14.87 0 0 1 3.17 5.1 18.1 18.1 0 0 1 1.12 6.5zm-4.38 0c0-1.94-.26-3.68-.8-5.22a10.91 10.91 0 0 0-2.24-3.89 9.68 9.68 0 0 0-3.52-2.46 11.95 11.95 0 0 0-4.62-.86c-1.68 0-3.21.28-4.6.86a9.88 9.88 0 0 0-3.54 2.46 10.91 10.91 0 0 0-2.24 3.9c-.53 1.53-.8 3.27-.8 5.2 0 1.94.27 3.68.8 5.22a11.17 11.17 0 0 0 2.24 3.9 10.01 10.01 0 0 0 3.55 2.44c1.38.56 2.9.83 4.6.83s3.24-.27 4.61-.83a9.8 9.8 0 0 0 3.52-2.44 11.17 11.17 0 0 0 2.25-3.9c.53-1.54.8-3.28.8-5.21zm26.22-6.54V48H60.5c-.56 0-.9-.27-1.05-.81l-.31-2.4a12.45 12.45 0 0 1-3.26 2.6c-1.2.64-2.58.96-4.13.96-1.22 0-2.3-.2-3.24-.6a6.52 6.52 0 0 1-2.33-1.7 7.37 7.37 0 0 1-1.43-2.67c-.3-1.04-.46-2.2-.46-3.45V25.7h3.91v14.22c0 1.68.38 2.99 1.15 3.91.77.93 1.96 1.39 3.54 1.39 1.16 0 2.24-.27 3.23-.82a10.42 10.42 0 0 0 2.8-2.28V25.7h3.91zm8.61 4.47a9.94 9.94 0 0 1 2.6-3.56 5.64 5.64 0 0 1 3.76-1.3c.47 0 .92.05 1.34.15.44.1.83.27 1.17.49l-.3 2.92c-.09.37-.3.55-.66.55-.2 0-.5-.04-.9-.13a6.21 6.21 0 0 0-3.24.18 4.23 4.23 0 0 0-1.47.92c-.42.4-.81.9-1.17 1.5-.33.58-.64 1.26-.92 2.02V48H67.7V25.71h2.25c.42 0 .72.08.88.25.16.16.27.44.33.83l.26 3.39zm61.16-13.7L122.75 48h-3.82l-7.99-24.05a21.95 21.95 0 0 1-.42-1.58 38.36 38.36 0 0 1-.44 1.58L102.05 48h-3.83L88.4 16.47h3.54c.38 0 .7.1.95.29.26.2.43.43.5.73l6.52 21.9.28 1.28.29 1.46.3-1.46.38-1.27 7.41-21.91c.1-.25.26-.48.51-.69.27-.22.58-.33.95-.33h1.23c.38 0 .69.1.92.29a1.77 1.77 0 0 1 .53.73l7.4 21.9a28.4 28.4 0 0 1 .68 2.62 29.52 29.52 0 0 1 .52-2.61l6.54-21.91a1.31 1.31 0 0 1 .48-.7c.27-.21.58-.32.95-.32h3.32zm9.35 8.88c1.63 0 3.1.27 4.4.82a9.43 9.43 0 0 1 5.46 5.94c.5 1.4.74 2.98.74 4.73 0 1.76-.25 3.34-.74 4.75a9.43 9.43 0 0 1-5.46 5.92c-1.3.52-2.77.79-4.4.79-1.64 0-3.12-.27-4.44-.8a9.42 9.42 0 0 1-3.35-2.3c-.92-1-1.63-2.2-2.13-3.61-.49-1.41-.73-3-.73-4.75s.24-3.33.73-4.73c.5-1.43 1.2-2.64 2.13-3.63a9.4 9.4 0 0 1 3.35-2.31c1.32-.55 2.8-.82 4.44-.82zm0 19.89c2.2 0 3.84-.73 4.93-2.2 1.08-1.48 1.63-3.54 1.63-6.18 0-2.66-.55-4.72-1.63-6.2-1.09-1.49-2.73-2.23-4.93-2.23-1.12 0-2.09.2-2.93.57a5.71 5.71 0 0 0-2.06 1.65 7.5 7.5 0 0 0-1.24 2.67c-.26 1.04-.4 2.22-.4 3.54 0 2.64.55 4.7 1.64 6.18 1.1 1.47 2.76 2.2 4.99 2.2zm17.97-15.07a9.94 9.94 0 0 1 2.6-3.56 5.64 5.64 0 0 1 3.76-1.3c.47 0 .91.05 1.34.15.44.1.83.27 1.16.49l-.28 2.92c-.09.37-.31.55-.66.55-.2 0-.5-.04-.9-.13a6.2 6.2 0 0 0-3.24.18 4.23 4.23 0 0 0-1.47.92c-.43.4-.82.9-1.17 1.5a13.1 13.1 0 0 0-.92 2.02V48h-3.94V25.71h2.24c.43 0 .72.08.88.25.17.16.28.44.33.83l.27 3.39zm15.04-14.59V48h-3.92V15.6h3.92zm19.55 15.43a6.22 6.22 0 0 0-2.38-2.05 6.7 6.7 0 0 0-2.86-.6c-2.07 0-3.66.75-4.77 2.23-1.12 1.48-1.68 3.6-1.68 6.33 0 1.46.13 2.7.38 3.74a7.29 7.29 0 0 0 1.1 2.56 4.35 4.35 0 0 0 1.78 1.45c.7.3 1.5.46 2.4.46 1.29 0 2.41-.3 3.36-.88a9.6 9.6 0 0 0 2.67-2.49V31.02zm3.91-15.43V48h-2.33c-.56 0-.9-.27-1.06-.81l-.35-2.71a12.13 12.13 0 0 1-3.25 2.77 8.28 8.28 0 0 1-4.23 1.06 7.31 7.31 0 0 1-6.14-2.9c-.73-.96-1.3-2.15-1.69-3.57a18.35 18.35 0 0 1 .07-9.48 11.29 11.29 0 0 1 1.89-3.7 8.7 8.7 0 0 1 7.06-3.34 7.96 7.96 0 0 1 6.12 2.62V15.59h3.91zM46.61 70.71V93H42.7V70.71h3.91zm.84-7c0 .39-.08.75-.24 1.09a2.81 2.81 0 0 1-1.52 1.47 2.67 2.67 0 0 1-2.16 0 2.9 2.9 0 0 1-1.45-1.47 2.67 2.67 0 0 1 0-2.16c.15-.35.35-.65.6-.9.25-.27.53-.47.85-.62a2.67 2.67 0 0 1 2.16 0c.35.15.65.35.9.62.27.25.47.55.62.9.16.34.24.7.24 1.08zm7.97 10.24c.49-.54 1-1.04 1.54-1.48a9.85 9.85 0 0 1 3.66-1.84 8.96 8.96 0 0 1 5.43.35c.94.4 1.72.97 2.33 1.71a7.36 7.36 0 0 1 1.43 2.67c.32 1.04.49 2.19.49 3.45V93h-3.94V78.81c0-1.69-.4-3-1.17-3.92-.76-.93-1.93-1.4-3.5-1.4a6.6 6.6 0 0 0-3.25.83c-1 .56-1.92 1.31-2.77 2.27V93h-3.94V70.71h2.35c.56 0 .9.28 1.04.82l.3 2.42zm57.7 3.3c0 2.36-.37 4.5-1.11 6.44a14.3 14.3 0 0 1-3.17 4.98 14.1 14.1 0 0 1-4.93 3.2c-1.9.76-4.02 1.13-6.33 1.13H85.8V61.47h11.77c2.31 0 4.42.39 6.33 1.15a13.8 13.8 0 0 1 8.1 8.18 17.75 17.75 0 0 1 1.12 6.45zm-4.37 0c0-1.94-.26-3.67-.8-5.2a10.94 10.94 0 0 0-2.23-3.87 9.57 9.57 0 0 0-3.53-2.42 12.23 12.23 0 0 0-4.61-.83h-7.5v24.62h7.5c1.7 0 3.24-.28 4.61-.84a9.7 9.7 0 0 0 3.53-2.4 10.94 10.94 0 0 0 2.24-3.87c.53-1.53.8-3.26.8-5.2zm19.8 5.72c-1.8.06-3.34.2-4.62.44-1.26.22-2.3.51-3.1.88-.8.36-1.37.8-1.74 1.3-.35.5-.53 1.05-.53 1.67 0 .58.1 1.1.3 1.52a3 3 0 0 0 .76 1.05c.34.27.73.46 1.17.6a6.13 6.13 0 0 0 1.45.17 7.28 7.28 0 0 0 3.5-.81 11.95 11.95 0 0 0 2.82-2.2v-4.62zm-12.65-9.11a12.73 12.73 0 0 1 3.98-2.66c1.43-.59 3-.88 4.73-.88 1.25 0 2.36.2 3.33.61a6.81 6.81 0 0 1 3.94 4.38c.33 1.04.5 2.19.5 3.43V93h-1.74a1.8 1.8 0 0 1-.88-.18c-.2-.13-.36-.38-.48-.74l-.44-2.12-1.72 1.46a9.48 9.48 0 0 1-3.74 1.7c-.69.15-1.46.23-2.3.23-.87 0-1.69-.12-2.45-.35a5.34 5.34 0 0 1-3.34-2.93 6.64 6.64 0 0 1-.49-2.64c0-.88.25-1.72.73-2.53a6.33 6.33 0 0 1 2.35-2.17c1.09-.63 2.5-1.15 4.25-1.54 1.75-.41 3.89-.65 6.42-.7v-1.75c0-1.73-.37-3.03-1.12-3.91-.75-.9-1.84-1.34-3.28-1.34-.97 0-1.78.12-2.44.37-.64.23-1.2.5-1.7.81l-1.23.82c-.33.23-.67.35-1 .35-.27 0-.5-.07-.69-.2a2.1 2.1 0 0 1-.48-.53l-.7-1.25zm27.67 19.5c-1.76 0-3.12-.5-4.07-1.48-.94-.98-1.41-2.4-1.41-4.25V74h-2.68a.9.9 0 0 1-.6-.2c-.16-.14-.24-.36-.24-.66v-1.56l3.65-.46.9-6.89a.9.9 0 0 1 .29-.52.88.88 0 0 1 .62-.22H142v7.67h6.44V74H142v13.38c0 .94.22 1.63.68 2.09.45.45 1.04.68 1.76.68a3.21 3.21 0 0 0 1.85-.53l.55-.35c.16-.12.3-.18.41-.18.2 0 .4.13.55.38l1.15 1.87a7.45 7.45 0 0 1-2.44 1.5 8.53 8.53 0 0 1-2.95.52zm19.68-10.4c-1.8.07-3.34.21-4.62.45-1.26.22-2.3.51-3.1.88-.8.36-1.37.8-1.74 1.3-.35.5-.53 1.05-.53 1.67 0 .58.1 1.1.3 1.52a2.9 2.9 0 0 0 .76 1.05c.34.27.73.46 1.17.6a6.13 6.13 0 0 0 1.45.17 7.3 7.3 0 0 0 3.5-.81 12.04 12.04 0 0 0 2.82-2.2v-4.62zm-12.65-9.1a12.72 12.72 0 0 1 3.99-2.66c1.42-.59 3-.88 4.72-.88 1.25 0 2.36.2 3.33.61a6.81 6.81 0 0 1 3.94 4.38c.33 1.04.5 2.19.5 3.43V93h-1.74a1.8 1.8 0 0 1-.88-.18c-.2-.13-.36-.38-.48-.74l-.44-2.12-1.72 1.46a9.48 9.48 0 0 1-3.74 1.7c-.69.15-1.46.23-2.3.23-.87 0-1.69-.12-2.45-.35a5.33 5.33 0 0 1-3.34-2.93 6.62 6.62 0 0 1-.49-2.64c0-.88.25-1.72.73-2.53a6.33 6.33 0 0 1 2.35-2.17c1.09-.63 2.5-1.15 4.25-1.54a31.2 31.2 0 0 1 6.42-.7v-1.75c0-1.73-.37-3.03-1.12-3.91-.75-.9-1.84-1.34-3.28-1.34-.97 0-1.78.12-2.44.37-.64.23-1.2.5-1.7.81l-1.22.82c-.34.23-.68.35-1.02.35-.26 0-.49-.07-.68-.2a1.88 1.88 0 0 1-.48-.53l-.7-1.25zM40.98 32.25c0 2.36-.38 4.53-1.12 6.51a14.26 14.26 0 0 1-8.1 8.4c-1.9.78-4.02 1.17-6.34 1.17a16.6 16.6 0 0 1-6.33-1.17 14.31 14.31 0 0 1-8.08-8.4 18.29 18.29 0 0 1-1.12-6.51c0-2.36.38-4.53 1.12-6.5.75-1.97 1.8-3.67 3.17-5.1a14.32 14.32 0 0 1 4.9-3.34c1.92-.8 4.03-1.19 6.34-1.19 2.32 0 4.43.4 6.34 1.19 1.92.8 3.56 1.9 4.93 3.34a14.87 14.87 0 0 1 3.17 5.1 18.1 18.1 0 0 1 1.12 6.5zm-4.38 0c0-1.94-.26-3.68-.8-5.22a10.91 10.91 0 0 0-2.24-3.89 9.68 9.68 0 0 0-3.52-2.46 11.95 11.95 0 0 0-4.62-.86c-1.68 0-3.21.28-4.6.86a9.88 9.88 0 0 0-3.54 2.46 10.91 10.91 0 0 0-2.24 3.9c-.53 1.53-.8 3.27-.8 5.2 0 1.94.27 3.68.8 5.22a11.17 11.17 0 0 0 2.24 3.9 10.01 10.01 0 0 0 3.55 2.44c1.38.56 2.9.83 4.6.83s3.24-.27 4.61-.83a9.8 9.8 0 0 0 3.52-2.44 11.17 11.17 0 0 0 2.25-3.9c.53-1.54.8-3.28.8-5.21zm26.22-6.54V48H60.5c-.56 0-.9-.27-1.05-.81l-.31-2.4a12.45 12.45 0 0 1-3.26 2.6c-1.2.64-2.58.96-4.13.96-1.22 0-2.3-.2-3.24-.6a6.52 6.52 0 0 1-2.33-1.7 7.37 7.37 0 0 1-1.43-2.67c-.3-1.04-.46-2.2-.46-3.45V25.7h3.91v14.22c0 1.68.38 2.99 1.15 3.91.77.93 1.96 1.39 3.54 1.39 1.16 0 2.24-.27 3.23-.82a10.42 10.42 0 0 0 2.8-2.28V25.7h3.91zm8.61 4.47a9.94 9.94 0 0 1 2.6-3.56 5.64 5.64 0 0 1 3.76-1.3c.47 0 .92.05 1.34.15.44.1.83.27 1.17.49l-.3 2.92c-.09.37-.3.55-.66.55-.2 0-.5-.04-.9-.13a6.21 6.21 0 0 0-3.24.18 4.23 4.23 0 0 0-1.47.92c-.42.4-.81.9-1.17 1.5-.33.58-.64 1.26-.92 2.02V48H67.7V25.71h2.25c.42 0 .72.08.88.25.16.16.27.44.33.83l.26 3.39zm61.16-13.7L122.75 48h-3.82l-7.99-24.05a21.95 21.95 0 0 1-.42-1.58 38.36 38.36 0 0 1-.44 1.58L102.05 48h-3.83L88.4 16.47h3.54c.38 0 .7.1.95.29.26.2.43.43.5.73l6.52 21.9.28 1.28.29 1.46.3-1.46.38-1.27 7.41-21.91c.1-.25.26-.48.51-.69.27-.22.58-.33.95-.33h1.23c.38 0 .69.1.92.29a1.77 1.77 0 0 1 .53.73l7.4 21.9a28.4 28.4 0 0 1 .68 2.62 29.52 29.52 0 0 1 .52-2.61l6.54-21.91a1.31 1.31 0 0 1 .48-.7c.27-.21.58-.32.95-.32h3.32zm9.35 8.88c1.63 0 3.1.27 4.4.82a9.43 9.43 0 0 1 5.46 5.94c.5 1.4.74 2.98.74 4.73 0 1.76-.25 3.34-.74 4.75a9.43 9.43 0 0 1-5.46 5.92c-1.3.52-2.77.79-4.4.79-1.64 0-3.12-.27-4.44-.8a9.42 9.42 0 0 1-3.35-2.3c-.92-1-1.63-2.2-2.13-3.61-.49-1.41-.73-3-.73-4.75s.24-3.33.73-4.73c.5-1.43 1.2-2.64 2.13-3.63a9.4 9.4 0 0 1 3.35-2.31c1.32-.55 2.8-.82 4.44-.82zm0 19.89c2.2 0 3.84-.73 4.93-2.2 1.08-1.48 1.63-3.54 1.63-6.18 0-2.66-.55-4.72-1.63-6.2-1.09-1.49-2.73-2.23-4.93-2.23-1.12 0-2.09.2-2.93.57a5.71 5.71 0 0 0-2.06 1.65 7.5 7.5 0 0 0-1.24 2.67c-.26 1.04-.4 2.22-.4 3.54 0 2.64.55 4.7 1.64 6.18 1.1 1.47 2.76 2.2 4.99 2.2zm17.97-15.07a9.94 9.94 0 0 1 2.6-3.56 5.64 5.64 0 0 1 3.76-1.3c.47 0 .91.05 1.34.15.44.1.83.27 1.16.49l-.28 2.92c-.09.37-.31.55-.66.55-.2 0-.5-.04-.9-.13a6.2 6.2 0 0 0-3.24.18 4.23 4.23 0 0 0-1.47.92c-.43.4-.82.9-1.17 1.5a13.1 13.1 0 0 0-.92 2.02V48h-3.94V25.71h2.24c.43 0 .72.08.88.25.17.16.28.44.33.83l.27 3.39zm15.04-14.59V48h-3.92V15.6h3.92zm19.55 15.43a6.22 6.22 0 0 0-2.38-2.05 6.7 6.7 0 0 0-2.86-.6c-2.07 0-3.66.75-4.77 2.23-1.12 1.48-1.68 3.6-1.68 6.33 0 1.46.13 2.7.38 3.74a7.29 7.29 0 0 0 1.1 2.56 4.35 4.35 0 0 0 1.78 1.45c.7.3 1.5.46 2.4.46 1.29 0 2.41-.3 3.36-.88a9.6 9.6 0 0 0 2.67-2.49V31.02zm3.91-15.43V48h-2.33c-.56 0-.9-.27-1.06-.81l-.35-2.71a12.13 12.13 0 0 1-3.25 2.77 8.28 8.28 0 0 1-4.23 1.06 7.31 7.31 0 0 1-6.14-2.9c-.73-.96-1.3-2.15-1.69-3.57a18.35 18.35 0 0 1 .07-9.48 11.29 11.29 0 0 1 1.89-3.7 8.7 8.7 0 0 1 7.06-3.34 7.96 7.96 0 0 1 6.12 2.62V15.59h3.91zM46.61 70.71V93H42.7V70.71h3.91zm.84-7c0 .39-.08.75-.24 1.09a2.81 2.81 0 0 1-1.52 1.47 2.67 2.67 0 0 1-2.16 0 2.9 2.9 0 0 1-1.45-1.47 2.67 2.67 0 0 1 0-2.16c.15-.35.35-.65.6-.9.25-.27.53-.47.85-.62a2.67 2.67 0 0 1 2.16 0c.35.15.65.35.9.62.27.25.47.55.62.9.16.34.24.7.24 1.08zm7.97 10.24c.49-.54 1-1.04 1.54-1.48a9.85 9.85 0 0 1 3.66-1.84 8.96 8.96 0 0 1 5.43.35c.94.4 1.72.97 2.33 1.71a7.36 7.36 0 0 1 1.43 2.67c.32 1.04.49 2.19.49 3.45V93h-3.94V78.81c0-1.69-.4-3-1.17-3.92-.76-.93-1.93-1.4-3.5-1.4a6.6 6.6 0 0 0-3.25.83c-1 .56-1.92 1.31-2.77 2.27V93h-3.94V70.71h2.35c.56 0 .9.28 1.04.82l.3 2.42zm57.7 3.3c0 2.36-.37 4.5-1.11 6.44a14.3 14.3 0 0 1-3.17 4.98 14.1 14.1 0 0 1-4.93 3.2c-1.9.76-4.02 1.13-6.33 1.13H85.8V61.47h11.77c2.31 0 4.42.39 6.33 1.15a13.8 13.8 0 0 1 8.1 8.18 17.75 17.75 0 0 1 1.12 6.45zm-4.37 0c0-1.94-.26-3.67-.8-5.2a10.94 10.94 0 0 0-2.23-3.87 9.57 9.57 0 0 0-3.53-2.42 12.23 12.23 0 0 0-4.61-.83h-7.5v24.62h7.5c1.7 0 3.24-.28 4.61-.84a9.7 9.7 0 0 0 3.53-2.4 10.94 10.94 0 0 0 2.24-3.87c.53-1.53.8-3.26.8-5.2zm19.8 5.72c-1.8.06-3.34.2-4.62.44-1.26.22-2.3.51-3.1.88-.8.36-1.37.8-1.74 1.3-.35.5-.53 1.05-.53 1.67 0 .58.1 1.1.3 1.52a3 3 0 0 0 .76 1.05c.34.27.73.46 1.17.6a6.13 6.13 0 0 0 1.45.17 7.28 7.28 0 0 0 3.5-.81 11.95 11.95 0 0 0 2.82-2.2v-4.62zm-12.65-9.11a12.73 12.73 0 0 1 3.98-2.66c1.43-.59 3-.88 4.73-.88 1.25 0 2.36.2 3.33.61a6.81 6.81 0 0 1 3.94 4.38c.33 1.04.5 2.19.5 3.43V93h-1.74a1.8 1.8 0 0 1-.88-.18c-.2-.13-.36-.38-.48-.74l-.44-2.12-1.72 1.46a9.48 9.48 0 0 1-3.74 1.7c-.69.15-1.46.23-2.3.23-.87 0-1.69-.12-2.45-.35a5.34 5.34 0 0 1-3.34-2.93 6.64 6.64 0 0 1-.49-2.64c0-.88.25-1.72.73-2.53a6.33 6.33 0 0 1 2.35-2.17c1.09-.63 2.5-1.15 4.25-1.54 1.75-.41 3.89-.65 6.42-.7v-1.75c0-1.73-.37-3.03-1.12-3.91-.75-.9-1.84-1.34-3.28-1.34-.97 0-1.78.12-2.44.37-.64.23-1.2.5-1.7.81l-1.23.82c-.33.23-.67.35-1 .35-.27 0-.5-.07-.69-.2a2.1 2.1 0 0 1-.48-.53l-.7-1.25zm27.67 19.5c-1.76 0-3.12-.5-4.07-1.48-.94-.98-1.41-2.4-1.41-4.25V74h-2.68a.9.9 0 0 1-.6-.2c-.16-.14-.24-.36-.24-.66v-1.56l3.65-.46.9-6.89a.9.9 0 0 1 .29-.52.88.88 0 0 1 .62-.22H142v7.67h6.44V74H142v13.38c0 .94.22 1.63.68 2.09.45.45 1.04.68 1.76.68a3.21 3.21 0 0 0 1.85-.53l.55-.35c.16-.12.3-.18.41-.18.2 0 .4.13.55.38l1.15 1.87a7.45 7.45 0 0 1-2.44 1.5 8.53 8.53 0 0 1-2.95.52zm19.68-10.4c-1.8.07-3.34.21-4.62.45-1.26.22-2.3.51-3.1.88-.8.36-1.37.8-1.74 1.3-.35.5-.53 1.05-.53 1.67 0 .58.1 1.1.3 1.52a2.9 2.9 0 0 0 .76 1.05c.34.27.73.46 1.17.6a6.13 6.13 0 0 0 1.45.17 7.3 7.3 0 0 0 3.5-.81 12.04 12.04 0 0 0 2.82-2.2v-4.62zm-12.65-9.1a12.72 12.72 0 0 1 3.99-2.66c1.42-.59 3-.88 4.72-.88 1.25 0 2.36.2 3.33.61a6.81 6.81 0 0 1 3.94 4.38c.33 1.04.5 2.19.5 3.43V93h-1.74a1.8 1.8 0 0 1-.88-.18c-.2-.13-.36-.38-.48-.74l-.44-2.12-1.72 1.46a9.48 9.48 0 0 1-3.74 1.7c-.69.15-1.46.23-2.3.23-.87 0-1.69-.12-2.45-.35a5.33 5.33 0 0 1-3.34-2.93 6.62 6.62 0 0 1-.49-2.64c0-.88.25-1.72.73-2.53a6.33 6.33 0 0 1 2.35-2.17c1.09-.63 2.5-1.15 4.25-1.54a31.2 31.2 0 0 1 6.42-.7v-1.75c0-1.73-.37-3.03-1.12-3.91-.75-.9-1.84-1.34-3.28-1.34-.97 0-1.78.12-2.44.37-.64.23-1.2.5-1.7.81l-1.22.82c-.34.23-.68.35-1.02.35-.26 0-.49-.07-.68-.2a1.88 1.88 0 0 1-.48-.53l-.7-1.25z" fill="#fff"/><path fill="#D42B21" d="M0 106.79h210V120H0z"/></g><defs><clipPath id="a"><path fill="#fff" d="M0 0h210v120H0z"/></clipPath></defs></svg></g><a href="https://ourworldindata.org/grapher/annual-working-hours-vs-gdp-per-capita-pwt?xScale=log&amp;country=BRA~USA~DEU~TWN" style="font-family:&quot;Playfair Display&quot;,Georgia,&quot;Times New Roman&quot;,serif" target="_blank" rel="noopener"><text font-size="25.2" x="15" y="35.2" fill="#555"><tspan x="15" y="35.16">Annual working hours vs. GDP per capita</tspan></text></a><text font-size="14.4" x="15" y="55.7" fill="#666"><tspan x="15" y="55.72">Working hours are the annual average per worker. GDP per capita is adjusted for differences in the cost of living</tspan><tspan x="15" y="73">between countries, and for inflation</tspan></text></g><g class="ScatterPlot"><g class="DualAxisView"><g class="HorizontalAxis"><text font-size="12.6" x="303.4" y="544.9"><tspan x="303.36" y="544.88">GDP per capita (int.-$)</tspan></text><text x="133.7" y="524.8" fill="#666" text-anchor="middle" font-size="16.2">$1,000</text><text x="437.5" y="524.8" fill="#666" text-anchor="middle" font-size="16.2">$10,000</text><text x="225.2" y="524.8" fill="#666" text-anchor="middle" font-size="16.2">$2,000</text><text x="346.1" y="524.8" fill="#666" text-anchor="middle" font-size="16.2">$5,000</text><text x="529" y="524.8" fill="#666" text-anchor="middle" font-size="16.2">$20,000</text><text x="649.9" y="524.8" fill="#666" text-anchor="middle" font-size="16.2">$50,000</text></g><g class="VerticalAxis"><text font-size="12.6" x="-412.2" y="25.1" transform="rotate(-90)"><tspan x="-412.16" y="25.08">Annual working hours per worker</tspan></text><text x="92.03" y="498.8" dy=".32em" text-anchor="end" fill="#666" font-size="16.2">1,400 h</text><text x="92.03" y="449.2" dy=".32em" text-anchor="end" fill="#666" font-size="16.2">1,600 h</text><text x="92.03" y="399.6" dy=".32em" text-anchor="end" fill="#666" font-size="16.2">1,800 h</text><text x="92.03" y="350" dy=".32em" text-anchor="end" fill="#666" font-size="16.2">2,000 h</text><text x="92.03" y="300.5" dy=".32em" text-anchor="end" fill="#666" font-size="16.2">2,200 h</text><text x="92.03" y="250.9" dy=".32em" text-anchor="end" fill="#666" font-size="16.2">2,400 h</text><text x="92.03" y="201.3" dy=".32em" text-anchor="end" fill="#666" font-size="16.2">2,600 h</text><text x="92.03" y="151.7" dy=".32em" text-anchor="end" fill="#666" font-size="16.2">2,800 h</text><text x="92.03" y="102.1" dy=".32em" text-anchor="end" fill="#666" font-size="16.2">3,000 h</text></g><g class="AxisGridLines horizontalLines" stroke="#ddd" stroke-dasharray="3,2"><path d="M97.03 498.8h621.06M97.03 449.2h621.06M97.03 399.6h621.06M97.03 350h621.06M97.03 300.5h621.06M97.03 250.9h621.06M97.03 201.3h621.06M97.03 151.7h621.06M97.03 102.1h621.06"/></g><g class="AxisGridLines verticalLines" stroke="#ddd" stroke-dasharray="3,2"><path d="M133.7 503.6V92.2M225.2 503.6V92.2M346.1 503.6V92.2M437.5 503.6V92.2M529 503.6V92.2M649.9 503.6V92.2"/></g></g><g class="PointsWithLabels clickable" clip-path="url(#b)"><path fill="rgba(255,255,255,0)" d="M97.03 92.2h621.06v411.4H97.03z"/><defs><clipPath id="b"><path d="M87.03 82.2h641.06v431.4H87.03z"/></clipPath></defs><g class="key-China"><circle cx="177" cy="355" r="1.8" fill="#e2e2e2" opacity=".7"/><path stroke-width="2" opacity=".7" stroke="#ccc" fill="none" stroke-linecap="butt" d="m177 355 6 1h-2 12-6 18l5 1h3-2 46l4-1h-8l5-1h10l14-1 4-2 6-3 8-4 1-5 1-6 9-5 9-2 9-3 11-4 6-5 11-7 15-6 10 2 9 8 7 5 11-2 19-8 12-2 5-1 7 1h7l2 2 4 1h7"/><path cx="472" cy="308" r="3.5" fill="#e2e2e2" opacity=".7" d="m468.5 304.5 7 3.5-7 3.5z"/></g><g class="key-India"><circle cx="165" cy="330" r="1.6" fill="#e2e2e2" opacity=".7"/><path stroke-width="1.94" opacity=".7" stroke="#ccc" fill="none" stroke-linecap="butt" d="M165 330h2v1h5l-4 1h9l-5 1h-2l-5 1h-22l-2-1h-4l5-1h5l8-1 7-1h6-1l6 1h13l7-1h21l7-1 4-1h9l10-1 8-1h29l14-1h6l8-1 18-2 11-1h12l7-1h14l8-1"/><path cx="379" cy="319" r="3.44" fill="#e2e2e2" opacity=".7" d="m375.16 316.01 7.25 2.56-6.4 4.27z"/></g><g class="key-Indonesia"><circle cx="158" cy="376" r="1.3" fill="#e2e2e2" opacity=".7"/><path stroke-width=".86" opacity=".7" stroke="#ccc" fill="none" stroke-linecap="butt" d="M158 376h6l12-6 13-2 8 1 3 5 7 10 9-4 7-26 5-2 10-4 8-7-1 5 6-9 5-1-2 6 1 35h2l2 1 11-1 15-5 9-5 6 8h6l8-8h9l10 3v-1l-30-9v-3l-6-2 1-11 1 7v-7l10-6 10 6 11-4 13-10 22 6 11-5 21 2 24 8 5-1 4 1 4 4v-1l5 2 6-1"/><path cx="445" cy="345" r="2.36" fill="#e2e2e2" opacity=".7" d="m442.28 343.06 5.05 1.55-4.27 3.1z"/></g><g class="key-Pakistan"><circle cx="212" cy="290" r="1.3" fill="#e2e2e2" opacity=".7"/><path stroke-width=".77" opacity=".7" stroke="#ccc" fill="none" stroke-linecap="butt" d="M212 290h-1 3l1 1h1l3 2v1l5 1 1 1 5-1 4 11 2-1 3-2h4l3-5v1l4 4 5-4h2-4l5 3v-1l-1 1 4-4h5l-4 2 3 6v-1l1-2-2 2 3 2 1-3 8 2 11 3 11 8 7-1 6 2 5 5 6-5 8 3 2 3 2 4 4 7 3 8 6 7 6 8"/><path cx="353" cy="358" r="2.27" fill="#e2e2e2" opacity=".7" d="m353.45 354.82.91 5-4.54-2.27z"/></g><g class="key-Bangladesh"><circle cx="181" cy="220" r="1.3" fill="#e2e2e2" opacity=".7"/><path stroke-width=".67" opacity=".7" stroke="#ccc" fill="none" stroke-linecap="butt" d="M181 220h-36 1-8 19l1 1h4-5l-4-1-1-1 9-1 2 11v11l-3 10 2 10 11 10 3-23 1-23 1-1 1-2 3-1 3-1 1-2-3-2-3-1-7-2 2-1 1-1h5l1-1 1-2 4-3 10-3 13 2 14 1 9 1 16 1 18 22-3 21 6 21 6-11 7-13 5-14 8 14"/><path cx="296" cy="246" r="2.17" fill="#e2e2e2" opacity=".7" d="m296.8 243.04.28 4.84-4.04-2.69z"/></g><g class="key-Russia"><circle cx="479" cy="366" r="1.3" fill="#e2e2e2" opacity=".7"/><path stroke-width=".64" opacity=".7" stroke="#ccc" fill="none" stroke-linecap="butt" d="m479 366-21-1-22 11-8 1-3-1-4-14-12 1-5-4 17-5 4 1 3-1 14-3h16l19 1 21-2h40l-15 6h17l17-1 7-1 1 1-3-2-16 2-4 1 3-1"/><path cx="545" cy="355" r="2.14" fill="#e2e2e2" opacity=".7" d="m542.3 353.65 4.73.67-3.38 3.39z"/></g><g class="key-Japan"><circle cx="256" cy="342" r="1.3" fill="#e2e2e2" opacity=".7"/><path stroke-width=".6" opacity=".7" stroke="#ccc" fill="none" stroke-linecap="butt" d="m256 342 11 4 10 5 4 4 6-8 8-6 8-12 8-6 8-6 10-6 15-4 13-1 11 6 9 1 13-1 7 4 11-2 12-3 14-1 14 3 12 3 6 2 9-1 8 3-2 15 4 7 7-7 7-1 9-1 7-1 7-1-2 2h-2l-3-2-1-4 4 4 10-1 9-1 12 1 8 4 10 9 8 4 4 12 3 9 4 4h7l6-1 1 7-2 5v4l3-2-2 4v3l2-1 3-2 3 3 2-2 2 3-2 4-7 13 6-6-1 1 1-3 3 5 1 2 4 1 3 2 2 1"/><path cx="621" cy="413" r="2.1" fill="#e2e2e2" opacity=".7" d="m620.06 410.18 2.82 3.76h-4.7z"/></g><g class="key-Mexico"><circle cx="331" cy="281" r="1.3" fill="#e2e2e2" opacity=".7"/><path stroke-width=".59" opacity=".7" stroke="#ccc" fill="none" stroke-linecap="butt" d="m331 281 7 1h2-6 34l-1 3 1 2 8 2 12 2 3 3 4 2 3 2 7 2 1 2 4 2 1 1h6l7 1h4l3 1h5l8 1h28-16l2-1h-14l3-1h6l3 2 3 2 12 2 4 1-30-3 1-8 8-12 8 18 2-18 7 16-2 7-3-12-1 13 6 5 8 5 2 9 3 5 1-14-7 32 8-44 9 8h4l4-4h6l-3-1 2-2h2"/><path cx="510" cy="313" r="2.09" fill="#e2e2e2" opacity=".7" d="m507.91 310.91 4.18 2.09-4.18 2.09z"/></g><g class="key-Philippines"><circle cx="240" cy="322" r="1.3" fill="#e2e2e2" opacity=".7"/><path stroke-width=".54" opacity=".7" stroke="#ccc" fill="none" stroke-linecap="butt" d="m240 322 4-1 4-1 7 3 5-3 8-1h5l1-9 4 6h11l3 1-2-2-12-8h-12 5l10-2 10-2 8-2 9 1-1 4h4l5 10 11-4 10 5 9 9-5-13-14 11-7-3 1-11-1 23-1 1v-4l2-1 2-5 4 6 8-3 7-5 3-2 11-1 9-1 4-1 8-2 4-1 6-2 9-2 6-2"/><path cx="402" cy="308" r="2.04" fill="#e2e2e2" opacity=".7" d="m399.42 306.71 4.52.64-3.23 3.23z"/></g><g class="key-Vietnam"><circle cx="109" cy="105" r="1.3" fill="#e2e2e2" opacity=".7"/><path stroke-width=".52" opacity=".7" stroke="#ccc" fill="none" stroke-linecap="butt" d="m109 105-1 20 14 14-7 11 4 9-15 10 10 11 16 12-1 9 6 9 3 7v12l-4 10 4 7 7 6 3 4 1 2v2l3 1-5 1 2 1 13 1h7l14 1h5l9 1 15 1 8 4 4-11h-1l9-8 7 36 10 4 10-6 10 12 12 4 8-12h16l9-24v-17l16 26 10-8 4 6 6 10 7 29v-10l1 6 8 9"/><path cx="366" cy="317" r="2.02" fill="#e2e2e2" opacity=".7" d="m366.17 314.15 1.17 4.36-4.2-1.68z"/></g><g class="key-Argentina"><circle cx="259" cy="341" r="1.3" fill="#e2e2e2" opacity=".7"/><path stroke-width=".5" opacity=".7" stroke="#ccc" fill="none" stroke-linecap="butt" d="m259 341 1-1-15-1 6-1 3-1 7-1 1-1 5-1 7-1-10-1 8-1 2 2v2l-7 2 5 1 13 2 1 2 2 1 2 2 11 1 2 2 1 1 1 1 4 1h4l-4 1-1 1 6 1h-4l7 1-2 1-1 3 5 3 8 3 7 4-6 3 12 3 7 3 6 3-7 3 13 3 20 3 20 3 16-6 19-6 13-2 33-2 2-2-1-1-10 4-2 6-10 12-22 26 10-1 10-8 10-7 9-1 12-3h7l-11 9 14-2h9v6l-1 3-5 5h1l-2 14h3"/><path cx="503" cy="437" r="2" fill="#e2e2e2" opacity=".7" d="m501 435 4 2-4 2z"/></g><g class="key-Australia"><circle cx="464" cy="307" r="1.3" fill="#e2e2e2" opacity=".7"/><path stroke-width=".5" opacity=".7" stroke="#ccc" fill="none" stroke-linecap="butt" d="m464 307-8 5-5 5 14 5 6 5 4 5-2 4-2 5 8 5 5 4v6l5 1 7 1 3 1 6 1 3 1 7 1 7 1 2 1 3 5 2 5 4 3-7-4 1 3 4-3h6l2-2 3 1 4 4-5 6 6 3 3-5 2 2 1-1h8l5 1 3-2-2 3-2 4 4 1 3-5 4-1h6l5 1 6 1 3 4 5-1h2l3 9 2 1 4 2h3l7 1 1 2 1 1h5l-3 7 9-2h5l-1 2h1l1 2h-6l6 3h1"/><path cx="642" cy="415" r="2" fill="#e2e2e2" opacity=".7" d="m640 413 4 2-4 2z"/></g><g class="key-Austria"><circle cx="352" cy="328" r="1.3" fill="#e2e2e2" opacity=".7"/><path stroke-width=".5" opacity=".7" stroke="#ccc" fill="none" stroke-linecap="butt" d="m352 328 6 1 4 1h6l10 1 12 1h9l6 1 5 1h4l9 1 6 3 3 3 5 3 5 3 3 3 6 3 3 3 5 3 6 3 7 15 7 1 7-5 6 1 4-19 1 18 3 2 5-2v15l6-8 1-1v15l1-4 2 2v1l2 1h6l6 3 8-1 6-3h7l5-3 4 8 2 1h6l5 7 2-9 7-2 5 6 4-1h7l-3 3h2l2 3 5-1 11 6 2 4 4 3 4 2-6 11 4 1 4-1 4 6-2 4 5 2 1 4 1-3 4 3"/><path cx="639" cy="447" r="2" fill="#e2e2e2" opacity=".7" d="m638.6 444.2 2 4-4.4-.8z"/></g><g class="key-Belgium"><circle cx="393" cy="326" r="1.3" fill="#e2e2e2" opacity=".7"/><path stroke-width=".5" opacity=".7" stroke="#ccc" fill="none" stroke-linecap="butt" d="m393 326 4 2 3 3 3 2 5 3 5 2 3 3 2 2-3 3 3 2 7 3 6 3 6 2 4 3 8 3 3 3 3 3 4 3 5 3 8 2 7 3 5 2 7 7 9 6 6 8-2 2h8l2 7 4 4 4 4 9 5-7 6-4 3-4-1v-6l-7-1 9 4 7 4 10 3 3 2 5-3 2 9 4 6v11h3l5-7v7l6-4v-2h6l8-4v2l3-3 5-1 3 3 13 2-4-3 2-1 11 3-6 5 10-3 1-4 2 1h-2l-1 1-4 2 4-1"/><path cx="614" cy="454" r="2" fill="#e2e2e2" opacity=".7" d="m611.57 452.54 4.37.97-3.4 2.92z"/></g><g class="key-Canada"><circle cx="452" cy="298" r="1.3" fill="#e2e2e2" opacity=".7"/><path stroke-width=".5" opacity=".7" stroke="#ccc" fill="none" stroke-linecap="butt" d="m452 298 1 3 7 3 3 1-5 2 8 4 7 3-1 5v4l2 1 1 3 3 6h6l4 4 7 3 5 4 6 7 2 2 5 6 4 5 2 4 5 3 5 2 7 2 2 2v4l6 3 3 7 4-1 4-1 1 3 3 4-5 6 4 2 7-3 2-1h1l7-3h5l3 1-1 2-5 6h-1 2l5-3h5l2-4 4 1v1h8l7 2-2 3-1 5 6 2 4-2 9 2h-1 1l4 1-15 7 7-1 6 1 1-2 3 1 5 2-9-1v2l2 3"/><path cx="629" cy="426" r="2" fill="#e2e2e2" opacity=".7" d="m629.55 423.23.56 4.43-3.88-2.21z"/></g><g class="key-Colombia"><circle cx="283" cy="269" r="1.3" fill="#e2e2e2" opacity=".7"/><path stroke-width=".5" opacity=".7" stroke="#ccc" fill="none" stroke-linecap="butt" d="m283 269-2 3 5 3 6 2 8 3 1 3-1 2-5 3-4 2 3 3 3 3 4 1 2 1v1l6 1-3 2 3 1 1 1 5 1 5 1 7 1 10 3 9 2 11 3 7 2 5 2 5 3 4 2 6 3 2 2 3 2-2 3-3 3-3 2-1 3-2 2 5 3-2 3 2 2v3l2 2-2 3 4 2 6-3 5-3 4 1-2 1 1 1-5 2h-9 2-2v-19l3 4 4 3 7-3 11-6 12-6 10-6v9l11 1 14 4 4 3 3 2 3 1-2 2v2l3 4"/><path cx="470" cy="356" r="2" fill="#e2e2e2" opacity=".7" d="m470.4 353.2.8 4.4-4-2z"/></g><g class="key-Denmark"><circle cx="428" cy="337" r="1.3" fill="#e2e2e2" opacity=".7"/><path stroke-width=".5" opacity=".7" stroke="#ccc" fill="none" stroke-linecap="butt" d="m428 337-4 4 2 3 7 4 4 4-2 3 2 3 6 4 1 3 10 4 7 3 8-3 5-3 1-3 9-3 5-3 2-3 6 7 7 11 7 10 1 6 3 9 4 14 5 11-3 4-3 19 7-2 3 6 3 6 5 3v-4l-5 8 2-2 2 2 3 1 2 4 9-1 3 9v6l1 4 3 3v1l5-4-2 1 6 11 4-3 4 1 6-4 4-3 5-4 7-2v-1l-1 2 2 1h7l11 2 5-1 3 5 7 1-6 3 8-1 3-4-2 4-2-1v3l-1 2 2-2 7 2"/><path cx="638" cy="497" r="2" fill="#e2e2e2" opacity=".7" d="m636.63 494.53 3.3 3.02-4.4.82z"/></g><g class="key-Finland"><circle cx="366" cy="344" r="1.3" fill="#e2e2e2" opacity=".7"/><path stroke-width=".5" opacity=".7" stroke="#ccc" fill="none" stroke-linecap="butt" d="m366 344 15-1h1-3 22v-1h-1 33l1 2 1 1 3-6h8l3 6 3 4 7 4 12 4 11-2 2 8 8 4 8 4 5 2-5 2h6l1 2 5-1 3 6 7 20 4 1v2l1 3 1 1v1l8 4 6-1 8-1h4l2 5-9 5h-7l-2 1 5-6 15-1 11 1 10 3h6l5 3 1 3-1 2 2 2h6l8 2 2 1 11 1 4 1-12 6 4-2 2 2-1 3-6 2h-1l3 1h3l5 2"/><path cx="620" cy="449" r="2" fill="#e2e2e2" opacity=".7" d="m618.89 446.4 2.97 3.34-4.46.37z"/></g><g class="key-France"><circle cx="387" cy="263" r="1.3" fill="#e2e2e2" opacity=".7"/><path stroke-width=".5" opacity=".7" stroke="#ccc" fill="none" stroke-linecap="butt" d="m387 263 6-3 3 6 4 6 6-1 6 6 5 14 6 9 3 5h2l9-2 5 6 6-3 6 4 7-2 5 4 6 2 5 8 5 6 8 19 7 4 6 1 6 13 8 4 5 8-2 7 6-7 5 10 5 7 5 1 3 3-4 5-1 17-2 5-2 2-3 8 6 2 3-3 6-2 4 4 3 2v1l2 1-1 2 2 1 2 5 3 1 6 1 7 2 5 2 7 5 3 5v9l-4-1 2-6h10l2 4 5-6 1-1-5 3 4-2 4-2-1 1 2 4v2h3l1-1 4 4"/><path cx="618" cy="472" r="2" fill="#e2e2e2" opacity=".7" d="m618 469.17 1.41 4.24-4.24-1.41z"/></g><g class="key-Ireland"><circle cx="342" cy="246" r="1.3" fill="#e2e2e2" opacity=".7"/><path stroke-width=".5" opacity=".7" stroke="#ccc" fill="none" stroke-linecap="butt" d="m342 246 1 3 6 2 3 3 2 3 4 3-1 3v3l-1 3 6 2 7 3h7l2-1 6-1 3-1h1l2-1 7-1 9-1h6l1-1 3 4 8 5 5 3 1 9 4 3 3 1 11 7 10 5 5 6 4 9 1 8v2l-3 2 2 5-1-2 8-8 9 5 5-2 8-2 10 3 2 8 9 12 7 7h6l17 2 9 2h25l11 3 13 2 7 3 13 4 10 5 5 3 10-2 1 1 9 3-9 5-8 8 1 23 1-4h1l1-2 9-3 33-4 8 2 8-3"/><path cx="705" cy="405" r="2" fill="#e2e2e2" opacity=".7" d="m702.43 403.83 4.44.47-3.04 3.27z"/></g><g class="key-Italy"><circle cx="319" cy="325" r="1.3" fill="#e2e2e2" opacity=".7"/><path stroke-width=".5" opacity=".7" stroke="#ccc" fill="none" stroke-linecap="butt" d="m319 325 10-2 4-1 8-2 5-1 8-2 4-2 5-1 5-2 8-2 11-1 10 4 6 12 5 4 3 1 2 15 7-5 8-6 8 1 7 1 16 5 2 13 5 5 11 4 8 7-3 4 12 1 6 8 8 3 11 1h8l-2-1-3-2-2-2 2 3 1 2 8-3 7-4 6-2 5 3 6 4 4 2h6l6-2 3-2 5 1 6-3 4 1 3 5-1 3-2 3v3h9l5-1 3 3-6 7h1l4 1-1 10-3 3v1h2l6-1h4"/><path cx="613" cy="419" r="2" fill="#e2e2e2" opacity=".7" d="m611 417 4 2-4 2z"/></g><g class="key-Netherlands"><circle cx="405" cy="350" r="1.3" fill="#e2e2e2" opacity=".7"/><path stroke-width=".5" opacity=".7" stroke="#ccc" fill="none" stroke-linecap="butt" d="m405 350 4 4 2 4 9 3 6 4 9 3 3 4 4 3-3 4 6 3 10 4h5l-1 1h13l4 1h6l7 1 16 1 5 8h4l8 7 10 13-3 13 6 4v5l3 7 3 6 5 1h-5l-4 3v4l2 2-4 4 5 4 1 5 4 1 5 1 7 1 3 3 1-2 4 3 3-2 5-3 5-4 8 4 4 1h9l12 3 1 3-1 4-1 2 2-4 16 3 3 1h13l-12 2 1 1 2-1 2 3 7-1-6-3h-2l-2-3h6"/><path cx="640" cy="489" r="2" fill="#e2e2e2" opacity=".7" d="m638 487 4 2-4 2z"/></g><g class="key-Norway"><circle cx="416" cy="318" r="1.3" fill="#e2e2e2" opacity=".7"/><path stroke-width=".5" opacity=".7" stroke="#ccc" fill="none" stroke-linecap="butt" d="m416 318 5 2 6 3 5 3 2 2 3 3 4 2 4 3-2 3 3 2 1 3 7 3 1 4 4 2 7-2 6 11 3-1 7 4 4 10 4 12-27 3 9 6 12 8 3 3 11 6 14 4 13 13 4 9 9 9 8 6h8l1 2-2 3 6 1 7 2 1 1-5 1 3 7-6-1 4 1 13 2 3-2 1 1h4l9 5 15 1 6 1-7 1h14l27 4 1 8-6 5 9 4 8-4h28l10 1 1-1h16l-24 5 9-2 12-2 6 1-4 3-10-1-24-1h-7l2 3"/><path cx="675" cy="503" r="2" fill="#e2e2e2" opacity=".7" d="m675.55 500.23.56 4.43-3.88-2.21z"/></g><g class="key-Peru"><circle cx="229" cy="223" r="1.3" fill="#e2e2e2" opacity=".7"/><path stroke-width=".5" opacity=".7" stroke="#ccc" fill="none" stroke-linecap="butt" d="m229 223 6 3 4 3 4 3 5 3 3 3 1 3 7 3-5 3-1 3 9 3 6 3 7 3 3 2 5 3 5 3 6 3 2 3-4 2 3 3 3 3 5 3v2l7 3 8 2 3 2-3 1-5 2-7 2-1 2 9 1 7 2-2 2-14 2 3 1-3 2 16 2 12 2-10 1-27 2-1 2 3 1v-2l6 2h31l5 2h7l-5 2h-1 1l-1 1h48l12-4 11-2h-1l16-2h11l7-1h5-1l3-1h2"/><path cx="454" cy="315" r="2" fill="#e2e2e2" opacity=".7" d="m452 313 4 2-4 2z"/></g><g class="key-Portugal"><circle cx="262" cy="249" r="1.3" fill="#e2e2e2" opacity=".7"/><path stroke-width=".5" opacity=".7" stroke="#ccc" fill="none" stroke-linecap="butt" d="m262 249 13 4 5 4 6 3 5 4 3 4 5 4 5 3v4l6 3 9 4 7 3 9 3 7 3 4 3 9 3 4 3 9 3 17 3 4 3 10 11h18l12 1v-3h-9l6 1h5l2 4 5 4 4 4-3 4v5l-3 5-6 4 2 4 13 3 10-4 11 5 9-7 8 2 5 20 4 4 3 3 8 1 5-9h3l10 1 7-4h7l7-3-1 4v2l-1 2-1-2h12l6 3 3-4-1 3h-3l6-1-4 6-1 4 1-2 3-2 4-2-9-2-2 3"/><path cx="554" cy="381" r="2" fill="#e2e2e2" opacity=".7" d="m556.77 380.45-3.88 2.21.56-4.43z"/></g><g class="key-Spain"><circle cx="296" cy="298" r="1.3" fill="#e2e2e2" opacity=".7"/><path stroke-width=".5" opacity=".7" stroke="#ccc" fill="none" stroke-linecap="butt" d="m296 298 21 1 5 1-6 1 15-4 6 4 8 4 4 4 5 3-5 3 13 2 14 5 11 4 11 4 6 12 5 2 9-1 4-2 8 9 10 2 4-2h5l9 1 8 3 5-1-1-3 4-2 4 1 3 7v11l4 3-8 8-5 6-4 8-2 10-3 3 8 2 9 2 9 1 8 3 7-1 6-2 2 2 2 2h16l9-1 8-2 5-1 7 1 3-2 2-1v2l3 4 12 4 9 3 7 3 1-3-6-1-1 3-2-2-1 4-1 2 2-1 7-1 5-1 6 3"/><path cx="605" cy="427" r="2" fill="#e2e2e2" opacity=".7" d="m604.1 424.32 2.69 3.57h-4.47z"/></g><g class="key-Sweden"><circle cx="425" cy="348" r="1.3" fill="#e2e2e2" opacity=".7"/><path stroke-width=".5" opacity=".7" stroke="#ccc" fill="none" stroke-linecap="butt" d="m425 348 3 3 4 5 6-3 3 3 3 6h2l2 8 7 6 4 1h7l5 3 6 1 8 8 3 2 1 4 4 8 4 10 5 6 7 4 1 8 3 10 5 3 3 5 2 6v-3l-3 7 2 9 4 3 1-1 2 2 1-3 4-3h6l3-1h9l5-2 5-5h2l2 1-2 3-2-4-5-8 7-10 8-1 4-3 5-1h5l7-2 9 5-4 6v6l4 3 5-6h5l5 1 8-3 2-3-11 4 5-7h6l1 3-3 2h-2 4l-1-4 5 3"/><path cx="631" cy="443" r="2" fill="#e2e2e2" opacity=".7" d="m630.31 440.26 2.4 3.77-4.45-.34z"/></g><g class="key-Switzerland"><circle cx="483" cy="340" r="1.3" fill="#e2e2e2" opacity=".7"/><path stroke-width=".5" opacity=".7" stroke="#ccc" fill="none" stroke-linecap="butt" d="m483 340 9 2-1 1 3 2 7 2 8 2 8 2 3 2-7 2 8 1 8 2h7l3-1 3-1h5l2-1 2-1 3-1h3l6-1 7-1 4 3 3 6 3 7 2 7-13 2-1 1 3 6 2 4 5 3 6 4v5l-1 2v4l1 5 3 1 6 2 2 1h2l5 4 5 2-2 1-1-3 1 1 2-5 1 5 1 6 5 2 4-2 4-5 1 1-1 10v5l2-3 4-8 10 1 7 3 12 3 8 2-4 2 3 7 10 1 3 4 1 5 2 2v-4h-1l3 5"/><path cx="682" cy="456" r="2" fill="#e2e2e2" opacity=".7" d="m682.69 453.26.34 4.45-3.77-2.4z"/></g><g class="key-United-Kingdom"><circle cx="428" cy="304" r="1.3" fill="#e2e2e2" opacity=".7"/><path stroke-width=".5" opacity=".7" stroke="#ccc" fill="none" stroke-linecap="butt" d="m428 304 4-2-1 8 6-1 5-1h5l2 3 2 6v7l4-2 5 2 2 9 1 9 4 2h7l3 6 2 14 2 3 5 2 2 2 3 11 1 10 4-6 9-2-5 4-3 8 7 1 6-2h16l1 8-2 9v1l3 1 2-1 2-1 1 1 5-1 4-2 2-1v4l-4 6-1 1 3 1 4-2 13-1 7 1h8l2 1 5 2 8 4 2-1v4l2 3h3l8-1 1 2-2-1 3 2-11 5 7-1v1l2-4 6-3v-1l4 1h-1 4"/><path cx="617" cy="432" r="2" fill="#e2e2e2" opacity=".7" d="m615 430 4 2-4 2z"/></g><g class="key-Venezuela"><circle cx="357" cy="305" r="1.3" fill="#e2e2e2" opacity=".7"/><path stroke-width=".5" opacity=".7" stroke="#ccc" fill="none" stroke-linecap="butt" d="m357 305 7 4 13 4-2 4 8 4 2 4 5 4 6 3 2 4 1 4-14 4v1l5 2 4 2 10 2v2l-4 2v1l10 2 3 2 12 2-7-1v-2l10-1 24-1-6-1 4-1 1-1-5-1 3-2-5-1-3 3-11 3-3 2-1 3-11 3-12 3v2l1 3-11 2 6 3 7 3 2 2-8-5-10-5 5-1-3-2v-1l-13-1 1 11 22-3-6 7-9 10-5 7 31-24 30-6 21 4"/><path cx="464" cy="373" r="2" fill="#e2e2e2" opacity=".7" d="m462.41 370.66 3.55 2.71-4.3 1.22z"/></g><g class="key-Chile"><circle cx="321" cy="219" r="1.3" fill="#e2e2e2" opacity=".7"/><path stroke-width=".5" opacity=".7" stroke="#ccc" fill="none" stroke-linecap="butt" d="m321 219 8 3 1 3 6 4-5 3-5 3 10 4 2 3-5 3 5 3-7 5 26 5 2 10 1 2-7-4 12-5 5 44v-20l7-7-2 32 14-24-2-3-6 6-9 4-24-10 3-4 10 7 8-6 8-6 6-3 4-11-20 13-6 11 2-8h-2l5-9 7-4 10-3 10-2 1-10 8 10 13 1 6-1 10 5 16 9h4l1 14-3-11-8 6 3 3-2 6v-2l4 3 13 1 14 19 19-2 10 9-5 8 1 5 17 1 13 6 9 6 2 2 6 6-2 1 2 3v5"/><path cx="545" cy="361" r="2" fill="#e2e2e2" opacity=".7" d="m547 359-2 4-2-4z"/></g><g class="key-Greece"><circle cx="294" cy="272" r="1.3" fill="#e2e2e2" opacity=".7"/><path stroke-width=".5" opacity=".7" stroke="#ccc" fill="none" stroke-linecap="butt" d="m294 272-4 2 16 3v2l8 3 11 2 9 2 5 2 4 3 1 2 17 3-4 2 16 2 9 3 13 2 9 3 5 2 8 2 14 3 11 10h22l8-1h-10l6-1h7l7-1h2-7l-2 1h11l-2-1 9 1 6-1h21l11 1h7l2 1 6-1 4 2 5 1v1l6 2 2-13 10 3-1 3 4 1-5 6-9 16-13-5-6-4 3-1v9l2-2h-1l4-4"/><path cx="551" cy="338" r="2" fill="#e2e2e2" opacity=".7" d="m548.17 338 4.24-1.41-1.41 4.24z"/></g><g class="key-South-Korea"><circle cx="132" cy="229" r="1.3" fill="#e2e2e2" opacity=".7"/><path stroke-width=".5" opacity=".7" stroke="#ccc" fill="none" stroke-linecap="butt" d="m132 229 3-9 8-9v-9l8-9 1-10-2-9-3-10 5-10-3-10 11-10 8 22 3-30 14 5 4-9 12-14 14-16 8 30 18 1 14 2 25 1 21 1 15 2 11 1 9 2 10 1 5 2-10 1 7-4 7-3 13-5 11 1 4 7 21-8 18 8 16 12 12 25 15 13 14 4 9 6 11-4 15 4 15-2 12 2-3 14-20 23 13-1 9-5 3 4 9 8 4 10 7 8 9 10 4 1 7 10-1 22-3 12 10 4 1 6v4l1 3 4 7 5-2 4 4 3 13"/><path cx="607" cy="347" r="2" fill="#e2e2e2" opacity=".7" d="m608.5 344.6-1.05 4.35-2.85-3.45z"/></g><g class="key-Hong-Kong"><circle cx="335" cy="170" r="1.3" fill="#e2e2e2" opacity=".7"/><path stroke-width=".5" opacity=".7" stroke="#ccc" fill="none" stroke-linecap="butt" d="m335 170 2 5 7 5 12 5 8 5 14 5 4 5 1 4 4 5 12 5 9 5h18l12 1h-1l14 1 11 3 9 2 9 2 10 3 6 3v6l5 8 9 7-6 6 15-1 19 9 2-12 8 15 10 9 7-8 9 21 8-16 4-1 1 9 6-12 2 12-10-1v-10l13-7 9 1 6-5 3 4 18-6 7 2-12 7 6-3-4 13-16 6 10-12 10 11 2 6 18 2-18 12-18-2v2l3 7"/><path cx="622" cy="313" r="2" fill="#e2e2e2" opacity=".7" d="m623.05 310.37-.26 4.47-3.42-2.89z"/></g><g class="key-Singapore"><circle cx="262" cy="250" r="1.3" fill="#e2e2e2" opacity=".7"/><path stroke-width=".5" opacity=".7" stroke="#ccc" fill="none" stroke-linecap="butt" d="m262 250 12 2 16 1 17 1-2 2 8 1 13 1 17 2 13 1 19 1 20 1h58l2 6 11-7 6 14h13l17 6 15-2 3-7 3-1 8-2 8-2-19 10 2-8 13-8 6-4v-14l19-1-11-5-5-1-6-7-11-4 2-3 22-6 5-3 11 3 3-5 36-5-10 5 8 2-14-1 19 9h40l10 2 8 5-16 2-9 9 28-8 8 10-1-2-2 3 12 10-2 7-1 3 4 4"/><path cx="688" cy="267" r="2" fill="#e2e2e2" opacity=".7" d="m688 264.17 1.41 4.24-4.24-1.41z"/></g><g class="key-Iceland"><circle cx="480" cy="321" r="1.3" fill="#e2e2e2" opacity=".7"/><path stroke-width=".5" opacity=".7" stroke="#ccc" fill="none" stroke-linecap="butt" d="m480 321 9 6 7 3-7 8-12 12 5 7 8 4 23 10-4 8 13 4 7 6-1 6-1 7 15 10 5 10 5 3 7 2 4 2 4-1h-15l11 1h-3l10 2h14l2-2-8 1-1 3v-1h-6v-4l3 7-1 4 2-5 14-6 5 5 8 5-3-13 6-3-2 9v8l5-2 10 3-5 2 4 5h30l-22 24-13 2v-2l3 3h-1l1 2 3 1 3 3 3 2"/><path cx="624" cy="482" r="2" fill="#e2e2e2" opacity=".7" d="m623.45 479.23 2.21 3.88-4.43-.56z"/></g><g class="key-Luxembourg"><circle cx="529" cy="388" r="1.3" fill="#e2e2e2" opacity=".7"/><path stroke-width=".5" opacity=".7" stroke="#ccc" fill="none" stroke-linecap="butt" d="m529 388-5 1 8 5 13 7 7 6-20 7 7-4 1 6 6 4 5 4 1 4-5 6v5l-1 1-1 4-2-4 19 2 3 1 12-5 14 2h5l13 5v5l8-2 5 5-1-2 1-2h10l9 1 13 1 13-3-10 4-4 2h-16l29 7h-3l7-4h-4l-12 13 15-1-9 1 9 2-6 1 20-1 10-2 6 1 3 1"/><path cx="702" cy="472" r="2" fill="#e2e2e2" opacity=".7" d="m700.74 469.47 3.16 3.16-4.43.63z"/></g><g class="key-Malaysia"><circle cx="296" cy="293" r="1.3" fill="#e2e2e2" opacity=".7"/><path stroke-width=".5" opacity=".7" stroke="#ccc" fill="none" stroke-linecap="butt" d="m296 293 23-1h30-7l11-1h44l6-1h-14l-14 1h14l10-1h13l10-1 5-1h35l3-1-24 1h19-4l5-6 5 2 10 1 15-12v5l11 6 13 6-10-1 9 4 14 1 6 5 6 8 1-2-3 3 2-6 6-1"/><path cx="546" cy="301" r="2" fill="#e2e2e2" opacity=".7" d="m543.7 299.36 4.27 1.31-3.61 2.63z"/></g><g class="key-Myanmar"><circle cx="102" cy="239" r="1.3" fill="#e2e2e2" opacity=".7"/><path stroke-width=".5" opacity=".7" stroke="#ccc" fill="none" stroke-linecap="butt" d="M102 239h1-6 2l4 1h4l2 1h12l6 1h9l-4-1h-27 1l-7-1h41-7 13-1l-2-1h20-10 80l21 1h99l4-1h7"/><path cx="364" cy="239" r="2" fill="#e2e2e2" opacity=".7" d="m362 237 4 2-4 2z"/></g><g class="key-New-Zealand"><circle cx="492" cy="383" r="1.3" fill="#e2e2e2" opacity=".7"/><path stroke-width=".5" opacity=".7" stroke="#ccc" fill="none" stroke-linecap="butt" d="M492 383h4l4 4 8 1 3-2-5 3 3 1-6-1-2 2v5l4 5v-2l7-14 5 2-3 2 8 1 5-1 5 2v6l-4 3 1-2 8-13 6 1 5 2 5 2 3 3h2l7-4 1 1 2 4h2l2 1-1-4 4 5v4l8 5v4l-1 5 4-5 4 4v1l6-4h6v1l4-3 2 3"/><path cx="608" cy="411" r="2" fill="#e2e2e2" opacity=".7" d="m608.55 408.23.56 4.43-3.88-2.21z"/></g><g class="key-Sri-Lanka"><circle cx="279" cy="376" r="1.3" fill="#e2e2e2" opacity=".7"/><path stroke-width=".5" opacity=".7" stroke="#ccc" fill="none" stroke-linecap="butt" d="M279 376h-4 12-18l-6-14-2-1-14-1-1-1 8-2-3-1v-3l2 5 7 18 8-16 5-1 1-2 3-1 4-2 1-4 9-1 9-4 8 14 2 5 6 1 5 11 9-4v-6l1-17-1 7 8 40 9 20 4-31 3-8 13 13 11-6 9 9 14 4 13-16 16-30 9-15 6 39 6-7h9l5 1h4"/><path cx="469" cy="369" r="2" fill="#e2e2e2" opacity=".7" d="m467 367 4 2-4 2z"/></g><g class="key-Thailand"><circle cx="239" cy="237" r="1.3" fill="#e2e2e2" opacity=".7"/><path stroke-width=".5" opacity=".7" stroke="#ccc" fill="none" stroke-linecap="butt" d="M239 237h2l2 25 8-29 2-5 3 7 8 1 10 1 10-19 4-22 4-22 5 19 2 70 4-83 5-4 2 7 9 11 12-5 10-17 12 34 7-12 12-4 10 20 11-13 15 2 12 13-13 17-24-12 3 9 3-1 4 24 9 3 8 2 10-1 11 13 6 3 8-1 8-3-3-3 16 1 8-2 10 11 3 10-2 6 3 15 2-5 7 29"/><path cx="497" cy="327" r="2" fill="#e2e2e2" opacity=".7" d="m498.47 324.59-1 4.35-2.88-3.41z"/></g><g class="key-Turkey"><circle cx="383" cy="328" r="1.3" fill="#e2e2e2" opacity=".7"/><path stroke-width=".5" opacity=".7" stroke="#ccc" fill="none" stroke-linecap="butt" d="M383 328v3l8 1 5 3 13 4 6 4 11 4-6 4-9 4-4 4-5 1 12 2-4 2 3 2 5 16 4-7 5 4 12 9-1 2-3-7h7l-7-1 4-7 10-5-11 8 7 2 13-4 5 4-3-2-8-10 8-3-5-1h-8l12 6 12-5 16-2 10 9 6 2-5 5 16 1 15 3 5 3 7 5h28"/><path cx="569" cy="391" r="2" fill="#e2e2e2" opacity=".7" d="m567 389 4 2-4 2z"/></g><g class="key-Hungary"><circle cx="440" cy="317" r="1.3" fill="#e2e2e2" opacity=".7"/><path stroke-width=".5" opacity=".7" stroke="#ccc" fill="none" stroke-linecap="butt" d="M440 317h2l1 23-1 5 1 17v7l7 2 9-11 2 2 4 6v9l-13 8v10h8l7-31 2-2 3 1v-2l1 2 2-2 10 5 8 9 7 3 4 7h-1l14 6v5l1 6 11-1-4 9 7-2 5 3-1 4 1 1 2-4 1 1-2-4 6 3"/><path cx="544" cy="412" r="2" fill="#e2e2e2" opacity=".7" d="m543.1 409.32 2.69 3.57h-4.47z"/></g><g class="key-Israel"><circle cx="509" cy="358" r="1.3" fill="#e2e2e2" opacity=".7"/><path stroke-width=".5" opacity=".7" stroke="#ccc" fill="none" stroke-linecap="butt" d="m509 358 1 6 3 3 6 1 8 1 3 11-5-8 9 1 8 2 6-13 2-1 4-10 6-6 6-4 4-1 4 6 4-2 10-3-1 9-2-4-7 4-3 6-1 2-1 4-1-4-3 1h4l3 1 3 3 5 7 6 2 7 4 5-1 3-6h2"/><path cx="607" cy="369" r="2" fill="#e2e2e2" opacity=".7" d="m605 367 4 2-4 2z"/></g><g class="key-Jamaica"><circle cx="309" cy="383" r="1.3" fill="#e2e2e2" opacity=".7"/><path stroke-width=".5" opacity=".7" stroke="#ccc" fill="none" stroke-linecap="butt" d="m309 383 13-7 6-5 1-15 9 9-5-3 7-3 8 3-1-2v2l2-5-2 2 1-9 2 4 1 5v-2l-1 1"/><path cx="350" cy="358" r="2" fill="#e2e2e2" opacity=".7" d="m352.83 358-4.24 1.41 1.41-4.24z"/></g><g class="key-Costa-Rica"><circle cx="395" cy="257" r="1.3" fill="#e2e2e2" opacity=".7"/><path stroke-width=".5" opacity=".7" stroke="#ccc" fill="none" stroke-linecap="butt" d="M395 257v5l5 10 1-13-1 22 10-22 5 3 3-6 2 7-5-11 2 6 10 2-2-4 3 2 3 9-1-7 2 1 4-4 8 4v-2l6-7 6-1 6 11v26l7-10 2 11-1 22 7 5 4-5 5-14 5 7"/><path cx="491" cy="304" r="2" fill="#e2e2e2" opacity=".7" d="m491.46 301.21.7 4.42-3.95-2.1z"/></g><g class="key-Dominican-Republic"><circle cx="334" cy="307" r="1.3" fill="#e2e2e2" opacity=".7"/><path stroke-width=".5" opacity=".7" stroke="#ccc" fill="none" stroke-linecap="butt" d="m334 307-1 1 18 7 9-23 4 4 1-5 3 7 11-4 14-15 6-5v24l10 5-1 12-12 2 4-5h13l14 7 11-2h8l10 4 1 2 1-2 3-2 7-14 10 6 6 3h5"/><path cx="489" cy="314" r="2" fill="#e2e2e2" opacity=".7" d="m487 312 4 2-4 2z"/></g><g class="key-Slovakia"><circle cx="504" cy="392" r="1.3" fill="#e2e2e2" opacity=".7"/><path stroke-width=".5" opacity=".7" stroke="#ccc" fill="none" stroke-linecap="butt" d="M504 392h-41 5l6-6 8 8 4-2-3 2-6 1h5l8 4 2 12 1 14 1-11 18-7 8-1 10-5h13l-7 3 11-6 2 3v1l-2 4 4 3-1 2 4 3 4 7"/><path cx="558" cy="421" r="2" fill="#e2e2e2" opacity=".7" d="m558.74 418.27.25 4.47-3.72-2.48z"/></g><g class="key-Uruguay"><circle cx="419" cy="402" r="1.3" fill="#e2e2e2" opacity=".7"/><path stroke-width=".5" opacity=".7" stroke="#ccc" fill="none" stroke-linecap="butt" d="m419 402 6 2 15 1 4 2 9 2-1 1 6 2 1 1 1 2-8 4-6 4-7 8-11 9-1 6 5-7 7 3 7 1 12 4 15-4 7 5 17 1 11 2 6 3 5 2 6 1-2 3 2 6h2"/><path cx="527" cy="466" r="2" fill="#e2e2e2" opacity=".7" d="m525 464 4 2-4 2z"/></g><g class="key-Trinidad-and-Tobago"><circle cx="439" cy="452" r="1.3" fill="#e2e2e2" opacity=".7"/><path stroke-width=".5" opacity=".7" stroke="#ccc" fill="none" stroke-linecap="butt" d="m439 452-8 6-9-4-1-3 1-3-3-4 2-2-2-1 22-1 26-7-7-1 4 8"/><path cx="464" cy="440" r="2" fill="#e2e2e2" opacity=".7" d="M464.9 437.32v4.47l-3.58-2.68z"/></g><g class="key-Cambodia"><circle cx="153" cy="302" r="1.3" fill="#e2e2e2" opacity=".7"/><path stroke-width=".5" opacity=".7" stroke="#ccc" fill="none" stroke-linecap="butt" d="m153 302 10 8 9-7-11-1v-3l-7-9 6-6 7-8 7-6 6-11h8l7-2h26l14-2h13l-9-2h6l10-5 8-1 14-3 2-4 6-4-5-2 5-2"/><path cx="285" cy="232" r="2" fill="#e2e2e2" opacity=".7" d="m282.4 230.89 4.46.37-2.97 3.34z"/></g><g class="key-Czechia"><circle cx="513" cy="385" r="1.3" fill="#e2e2e2" opacity=".7"/><path stroke-width=".5" opacity=".7" stroke="#ccc" fill="none" stroke-linecap="butt" d="m513 385 7 5 5-5 6 1-4-1-5-5-1-4 5-1 6 20h-2l6 3 3-3h11l3 4 10 4 6-1-6 2 1-5 4-1-1 7v3l6-3 3 5 3-5 8-2"/><path cx="587" cy="403" r="2" fill="#e2e2e2" opacity=".7" d="m584.57 401.54 4.37.97-3.4 2.92z"/></g><g class="key-Malta"><circle cx="487" cy="285" r="1.3" fill="#e2e2e2" opacity=".7"/><path stroke-width=".5" opacity=".7" stroke="#ccc" fill="none" stroke-linecap="butt" d="M487 285v1l-1 2 18-1 5-6 5 6h26l-16 23 2-14 6 6-8 25 16-17-3-1 7 3-1-3-1-1 5 14 1 16 2 8-2 7v11l22 2 2-13 14 22"/><path cx="586" cy="375" r="2" fill="#e2e2e2" opacity=".7" d="m586.61 372.24.46 4.45-3.83-2.3z"/></g><g class="key-Bulgaria"><circle cx="406" cy="421" r="1.3" fill="#e2e2e2" opacity=".7"/><path stroke-width=".5" opacity=".7" stroke="#ccc" fill="none" stroke-linecap="butt" d="m406 421-13 1h-18l9 14 24-4 12 7 4-3h6l5 3 7-6 14 1 9 1h12l10-9-4 11 7 1h7-3 25"/><path cx="519" cy="438" r="2" fill="#e2e2e2" opacity=".7" d="m517 436 4 2-4 2z"/></g><g class="key-Croatia"><circle cx="425" cy="369" r="1.3" fill="#e2e2e2" opacity=".7"/><path stroke-width=".5" opacity=".7" stroke="#ccc" fill="none" stroke-linecap="butt" d="M425 369h52l8-1h15l12-1h11l8-1-6 1-1-3h5l2 4-4 4v4l7 16 7-1 6 2"/><path cx="547" cy="393" r="2" fill="#e2e2e2" opacity=".7" d="m545.74 390.47 3.16 3.16-4.43.63z"/></g><g class="key-Cyprus"><circle cx="537" cy="375" r="1.3" fill="#e2e2e2" opacity=".7"/><path stroke-width=".5" opacity=".7" stroke="#ccc" fill="none" stroke-linecap="butt" d="M537 375h-4l2-2-3-2 9-1 17-2 2-6-5 7-11 1 2 10 18 7 3 4 4-7 6-2-3 6h-1l-3-1v1l-9 9-5-2 13-2 5-4 5 5"/><path cx="579" cy="394" r="2" fill="#e2e2e2" opacity=".7" d="m579 391.17 1.41 4.24-4.24-1.41z"/></g><g class="key-Ecuador"><circle cx="349" cy="364" r="1.3" fill="#e2e2e2" opacity=".7"/><path stroke-width=".5" opacity=".7" stroke="#ccc" fill="none" stroke-linecap="butt" d="m349 364-2 1 4 2-1 2-10 33 6-3 6-3 10-3 5-3 12 13 15-6 9 9 6 11 12-7-6 5 10 4 12 5 4 9 7 1v3l-10 7-5 12 2 1"/><path cx="435" cy="457" r="2" fill="#e2e2e2" opacity=".7" d="m434.1 454.32 2.69 3.57h-4.47z"/></g><g class="key-Estonia"><circle cx="425" cy="354" r="1.3" fill="#e2e2e2" opacity=".7"/><path stroke-width=".5" opacity=".7" stroke="#ccc" fill="none" stroke-linecap="butt" d="M425 354h13l-1 1h14l8 2 8-1 10-1 6-2 26-5 12 1 14 1 3 8-14 33 6-10 15-11 7 8 2 5 1 1-2 2h2l8-1"/><path cx="563" cy="385" r="2" fill="#e2e2e2" opacity=".7" d="m560.77 383.26 4.21 1.5-3.72 2.47z"/></g><g class="key-Latvia"><circle cx="415" cy="356" r="1.3" fill="#e2e2e2" opacity=".7"/><path stroke-width=".5" opacity=".7" stroke="#ccc" fill="none" stroke-linecap="butt" d="M415 356h28l11-3 5 12 4 3 7 12 18-7h8l13 7 9-31-17 12 6 5 12-4 6 4 4 2 6-3 6 9h3l9 4"/><path cx="553" cy="378" r="2" fill="#e2e2e2" opacity=".7" d="m551.98 375.36 2.85 3.45-4.47.2z"/></g><g class="key-Lithuania"><circle cx="414" cy="417" r="1.3" fill="#e2e2e2" opacity=".7"/><path stroke-width=".5" opacity=".7" stroke="#ccc" fill="none" stroke-linecap="butt" d="M414 417h6l6-1 5-12 6 14 10-30 10 3 3 8 14 4 3-23h17l10 1 12-8 9-7-17 18 10-15 14 6 9 1 3 4 7 2 2-6 3-6 7 10"/><path cx="563" cy="380" r="2" fill="#e2e2e2" opacity=".7" d="m563.5 377.21.65 4.43-3.94-2.13z"/></g><g class="key-Poland"><circle cx="443" cy="329" r="1.3" fill="#e2e2e2" opacity=".7"/><path stroke-width=".5" opacity=".7" stroke="#ccc" fill="none" stroke-linecap="butt" d="M443 329h24l7-8 3 8h1l3 1 1-1h5l7 1h16l8 2 5 4 12 1 9 2 4 1v1l2-2 7-2h2l7 5"/><path cx="566" cy="342" r="2" fill="#e2e2e2" opacity=".7" d="m565.54 339.21 2.09 3.95-4.42-.7z"/></g><g class="key-Romania"><circle cx="402" cy="394" r="1.3" fill="#e2e2e2" opacity=".7"/><path stroke-width=".5" opacity=".7" stroke="#ccc" fill="none" stroke-linecap="butt" d="m402 394 7-10h-7l-3 1v2l4-1h11l6-3 7 7 15-12 7 2 18 10 16-1 20 1-2 5 4-6 5-2 8 9 1 2 3 3 8 2 11-6 13 6"/><path cx="554" cy="403" r="2" fill="#e2e2e2" opacity=".7" d="m553.02 400.35 2.8 3.49-4.47.14z"/></g><g class="key-Slovenia"><circle cx="517" cy="410" r="1.3" fill="#e2e2e2" opacity=".7"/><path stroke-width=".5" opacity=".7" stroke="#ccc" fill="none" stroke-linecap="butt" d="m517 410 5 7 3 3-2-3h5l5 4 1 4 3-6 3-1 5-3 11 10v7l4 3 12-4-12-2h2l4 4-1 5-2-5 2-4-2-2 2 9 9 7"/><path cx="574" cy="443" r="2" fill="#e2e2e2" opacity=".7" d="m573.65 440.2 1.93 4.03-4.39-.88z"/></g><g class="key-South-Africa"><circle cx="422" cy="256" r="1.3" fill="#e2e2e2" opacity=".7"/><path stroke-width=".5" opacity=".7" stroke="#ccc" fill="none" stroke-linecap="butt" d="m422 256 5-1 1 16 5-6 8-14 8 20 6-1 1 9-5 9 3 3 5-5v11l1 1-2-3v6"/><path cx="458" cy="301" r="2" fill="#e2e2e2" opacity=".7" d="m460 299-2 4-2-4z"/></g><g class="key-United-States"><path stroke-width="1.98" opacity=".9" stroke="#E04E4B" fill="none" stroke-linecap="butt" d="m487 352 7-10 2 1 4 1-3 6 7-2 1 4 1 7-4 8 7-6 2 5 1 3 5-5 4 3 6-1 7-5 7-2 1 5 5 1h3l-1 11 3 4 6 1h6l-2 7-2 8 6 1h5l6-2h3l-2 4 2 3-4 4 5-2 8-4 4-1 2 5 4-2 4-2 3-3 1 3-2 2 4 3 2-3 4-5 2-2 4-2 4-1 5-3h4l4-1v10l3 3 4 1h6l1 1-2 5-4 9 2-2 1-2 3-1 1-1 3-1 2-3h2l2 1"/><circle cx="487" cy="352" r="1.99" fill="#E04E4B" opacity=".9" stroke="#E04E4B" stroke-opacity=".6"/><path cx="662" cy="408" r="3.48" fill="#E04E4B" opacity=".9" d="m660.44 403.33 4.67 6.23h-7.78z"/></g><g class="key-Brazil"><path stroke-width="1.88" opacity=".9" stroke="#932834" fill="none" stroke-linecap="butt" d="M188 339v-2l9-2v-3l7-2 6-2 1-2 7-3 4-2 2-2 8-3h24l2-1h7l7-1h9-1 14l12 4 12 4 13 4 8 4 3 4 7 4v4l2 4 6 3-3 4 2 3v3l-5 2 1 3 4 3 15 2 1 3-1 3v2l-6 3 10 2 1 3h8l13-1 18 1 22 2-6 1-8 1-6 7v-6l-3 2-1 3-2 1 5 2 4 5 10 1 12 2h13l4 2 18 1 13-2 1 1 1 3-1 3-7 4-5 2 1 2"/><circle cx="188" cy="339" r="1.94" fill="#932834" opacity=".9" stroke="#932834" stroke-opacity=".6"/><path cx="480" cy="422" r="3.38" fill="#932834" opacity=".9" d="M481.51 417.47v7.55l-6.04-4.53z"/></g><g class="key-Germany"><path stroke-width="1.75" opacity=".9" stroke="#4C5C78" fill="none" stroke-linecap="butt" d="m336 243 13 7 11 6 10 6 10 7 17 6 8 6 7 6 3 6 10 6 11 5 4 7 4 9 2 8 8-3 6 4 2 6-2 9 7 4 9 4 6 4 4 8 5 6 7 8 2 8v10l7-3 5 4 5 5 6 3 2 5-2 5-3 3v3l2 3v6l10 5 5 5 7 2 5 5 9 6 6 7 4-3 1 7 4 1 5 1 1 3 5 3h4l5 4 3 6 2 2-1 2 3 2h4l6 2 3-5h8l3 2-8 10 6-5h7l-1 4 2 3 5-1h-1l4 2 5 1"/><circle cx="336" cy="243" r="1.88" fill="#4C5C78" opacity=".9" stroke="#4C5C78" stroke-opacity=".6"/><path cx="643" cy="501" r="3.25" fill="#4C5C78" opacity=".9" d="m640.45 497.18 5.74 4.46-7.01 1.91z"/></g><g class="key-Taiwan"><path stroke-width="1.75" opacity=".9" stroke="#2D8587" fill="none" stroke-linecap="butt" d="m194 261 10 1 8 1h7l5 1 3 1 5 1h4l6 1 6 1h3l6 1 9 1 10 1h10l8 1 10 1h10l6 1 10 1 13-1 15-1 13 1 1-1h19l11 1h15l8-8 7 6 6 1 3 10 10 3 11 1v2h18l18-8 7 6 10 5h12l7 4 8-1 7-5 4 14 6-10 8 6 7 15 5-13h4l7 3-5 13 4 4 2-1 6-5 8 2 1-2 4 1-6 14-5 5 11-2 5 3v-4l3 1 7-22 2 7 3 8"/><circle cx="194" cy="261" r="1.88" fill="#2D8587" opacity=".9" stroke="#2D8587" stroke-opacity=".6"/><path cx="630" cy="327" r="3.25" fill="#2D8587" opacity=".9" d="m631.9 322.82-.76 7.22-5.32-4.94z"/></g><text x="468.21" y="360.1" font-size="8" font-weight="400" fill="#E04E4B" style="fill:#fff;stroke:#fff;stroke-linecap:round;stroke-linejoin:round;stroke-width:.25em">1950</text><text x="468.21" y="360.1" font-size="8" font-weight="400" fill="#E04E4B">1950</text><text x="583.73" y="417.1" font-size="13.72" font-weight="700" fill="#E04E4B" style="fill:#fff;stroke:#fff;stroke-linecap:round;stroke-linejoin:round;stroke-width:.25em">United States</text><text x="583.73" y="417.1" font-size="13.72" font-weight="700" fill="#E04E4B">United States</text><text x="188" y="348" font-size="8" font-weight="400" fill="#932834" style="fill:#fff;stroke:#fff;stroke-linecap:round;stroke-linejoin:round;stroke-width:.25em">1950</text><text x="188" y="348" font-size="8" font-weight="400" fill="#932834">1950</text><text x="482.24" y="433.16" font-size="13.38" font-weight="700" fill="#932834" style="fill:#fff;stroke:#fff;stroke-linecap:round;stroke-linejoin:round;stroke-width:.25em">Brazil</text><text x="482.24" y="433.16" font-size="13.38" font-weight="700" fill="#932834">Brazil</text><text x="315.68" y="240.63" font-size="8" font-weight="400" fill="#4C5C78" style="fill:#fff;stroke:#fff;stroke-linecap:round;stroke-linejoin:round;stroke-width:.25em">1950</text><text x="315.68" y="240.63" font-size="8" font-weight="400" fill="#4C5C78">1950</text><text x="647.9" y="503.6" font-size="12.87" font-weight="700" fill="#4C5C78" style="fill:#fff;stroke:#fff;stroke-linecap:round;stroke-linejoin:round;stroke-width:.25em">Germany</text><text x="647.9" y="503.6" font-size="12.87" font-weight="700" fill="#4C5C78">Germany</text><text x="173.1" y="260.5" font-size="8" font-weight="400" fill="#2D8587" style="fill:#fff;stroke:#fff;stroke-linecap:round;stroke-linejoin:round;stroke-width:.25em">1951</text><text x="173.1" y="260.5" font-size="8" font-weight="400" fill="#2D8587">1951</text><text x="631.76" y="337.91" font-size="12.46" font-weight="700" fill="#2D8587" style="fill:#fff;stroke:#fff;stroke-linecap:round;stroke-linejoin:round;stroke-width:.25em">Taiwan</text><text x="631.76" y="337.91" font-size="12.46" font-weight="700" fill="#2D8587">Taiwan</text></g><g class="ScatterColorLegend clickable" style="cursor:pointer"><g class="legendMark" fill="#ccc"><path d="M738.09 94h9v9h-9z"/><text font-size="12.6" x="752.1" y="102.3"><tspan x="752.09" y="102.28">Africa</tspan></text></g><g class="legendMark"><path fill="#2D8587" d="M738.09 111.6h9v9h-9z"/><text font-size="12.6" x="752.1" y="119.9"><tspan x="752.09" y="119.88">Asia</tspan></text></g><g class="legendMark"><path fill="#4C5C78" d="M738.09 129.2h9v9h-9z"/><text font-size="12.6" x="752.1" y="137.5"><tspan x="752.09" y="137.48">Europe</tspan></text></g><g class="legendMark"><path fill="#E04E4B" d="M738.09 146.8h9v9h-9z"/><text font-size="12.6" x="752.1" y="155.1"><tspan x="752.09" y="155.08">North America</tspan></text></g><g class="legendMark" fill="#ccc"><path d="M738.09 164.4h9v9h-9z"/><text font-size="12.6" x="752.1" y="172.7"><tspan x="752.09" y="172.68">Oceania</tspan></text></g><g class="legendMark"><path fill="#932834" d="M738.09 182h9v9h-9z"/><text font-size="12.6" x="752.1" y="190.3"><tspan x="752.09" y="190.28">South America</tspan></text></g></g><path stroke="#ccc" d="M738.09 198.8H830"/><g class="clickable"><g class="ConnectedScatterLegend"><text font-size="12.6" x="738.1" y="215.9" fill="#333"><tspan x="738.09" y="215.88">1950</tspan></text><text font-size="12.6" x="806.8" y="215.9" fill="#333"><tspan x="806.78" y="215.88">2017</tspan></text><path stroke="#666" stroke-width="1" d="M771.32 211.6h30.46"/><circle cx="771.32" cy="211.6" r="2" fill="#666" stroke="#ccc" stroke-width=".2"/><circle cx="781.47" cy="211.6" r="2" fill="#666" stroke="#ccc" stroke-width=".2"/><circle cx="791.62" cy="211.6" r="2" fill="#666" stroke="#ccc" stroke-width=".2"/><path cx="801.78" cy="211.6" r="3" fill="#666" stroke="#ccc" stroke-width=".2" d="m798.78 208.6 6 3-6 3z"/></g></g></g><g class="SourcesFooter" style="fill:#777"><g style="fill:#777"><text font-size="12.6" x="15" y="582.5"><tspan x="15" y="582.48">Source: Feenstra et al. (2015), Penn World Table v10.0</tspan></text></g><text font-size="12.6" x="587.3" y="582.5"><tspan x="587.28" y="582.48"><a target="_blank" style="fill:#777" href="https://ourworldindata.org/working-hours">OurWorldInData.org/working-hours</a> • <a style="fill:#777" class="cclogo" href="http://creativecommons.org/licenses/by/4.0/deed.en_US" target="_blank">CC BY</a></tspan></text></g></svg>