<svg xmlns="http://www.w3.org/2000/svg" version="1.1" style="background-color:#fff;-webkit-font-smoothing:antialiased" width="850" height="600" viewBox="0 0 850 600" font-family="Lato,'Helvetica Neue',Helvetica,Arial,sans-serif" font-size="18" text-rendering="optimizeLegibility"><g class="HeaderView"><g transform="matrix(.29 0 0 .29 774 15)"><svg width="210" height="120" viewBox="0 0 210 120" fill="none" xmlns="http://www.w3.org/2000/svg"><g clip-path="url(#clip0)"><path d="M0 0h210v107.89H0V0z" fill="#002147"/><path d="M40.98 32.25c0 2.36-.38 4.53-1.12 6.51a14.26 14.26 0 01-8.1 8.4c-1.9.78-4.02 1.17-6.34 1.17a16.6 16.6 0 01-6.33-1.17 14.31 14.31 0 01-8.08-8.4 18.29 18.29 0 01-1.12-6.51c0-2.36.38-4.53 1.12-6.5a14.32 14.32 0 018.07-8.44c1.92-.8 4.03-1.19 6.34-1.19 2.32 0 4.43.4 6.34 1.19 1.92.8 3.56 1.9 4.93 3.34a14.87 14.87 0 013.17 5.1 18.1 18.1 0 011.12 6.5zm-4.38 0c0-1.94-.26-3.68-.8-5.22a10.91 10.91 0 00-2.24-3.89 9.68 9.68 0 00-3.52-2.46 11.95 11.95 0 00-4.62-.86c-1.68 0-3.21.28-4.6.86a9.88 9.88 0 00-3.54 2.46 10.91 10.91 0 00-2.24 3.9c-.53 1.53-.8 3.27-.8 5.2 0 1.94.27 3.68.8 5.22a11.17 11.17 0 002.24 3.9 10.01 10.01 0 003.55 2.44c1.38.56 2.9.83 4.6.83 1.7 0 3.24-.27 4.61-.83a9.8 9.8 0 003.52-2.44 11.17 11.17 0 002.25-3.9c.53-1.54.8-3.28.8-5.21zm26.22-6.54V48H60.5c-.56 0-.9-.27-1.05-.81l-.31-2.4a12.45 12.45 0 01-3.26 2.6c-1.2.64-2.58.96-4.13.96-1.22 0-2.3-.2-3.24-.6a6.52 6.52 0 01-2.33-1.7 7.37 7.37 0 01-1.43-2.67c-.3-1.04-.46-2.2-.46-3.45V25.7h3.91v14.22c0 1.68.38 2.99 1.15 3.91.77.93 1.96 1.39 3.54 1.39 1.16 0 2.24-.27 3.23-.82a10.42 10.42 0 002.8-2.28V25.7h3.91zm8.61 4.47a9.94 9.94 0 012.6-3.56 5.64 5.64 0 013.76-1.3c.47 0 .92.05 1.34.15.44.1.83.27 1.17.49l-.3 2.92c-.09.37-.3.55-.66.55-.2 0-.5-.04-.9-.13a6.21 6.21 0 00-3.24.18c-.54.2-1.03.5-1.47.92-.42.4-.81.9-1.17 1.5-.33.58-.64 1.26-.92 2.02V48H67.7V25.71h2.25c.42 0 .72.08.88.25.16.16.27.44.33.83l.26 3.39zm61.16-13.7L122.75 48h-3.82l-7.99-24.05a21.95 21.95 0 01-.42-1.58 38.36 38.36 0 01-.44 1.58L102.05 48h-3.83L88.4 16.47h3.54c.38 0 .7.1.95.29.26.2.43.43.5.73l6.52 21.9c.1.4.2.83.28 1.28.1.46.2.94.29 1.46l.3-1.46c.12-.47.25-.9.38-1.27l7.41-21.91c.1-.25.26-.48.51-.69.27-.22.58-.33.95-.33h1.23c.38 0 .69.1.92.29.24.2.41.43.53.73l7.4 21.9a28.4 28.4 0 01.68 2.62 29.52 29.52 0 01.52-2.61l6.54-21.91c.07-.27.23-.5.48-.7.27-.21.58-.32.95-.32h3.32zm9.35 8.88c1.63 0 3.1.27 4.4.82a9.43 9.43 0 015.46 5.94c.5 1.4.74 2.98.74 4.73 0 1.76-.25 3.34-.74 4.75a9.43 9.43 0 01-5.46 5.92c-1.3.52-2.77.79-4.4.79-1.64 0-3.12-.27-4.44-.8a9.42 9.42 0 01-3.35-2.3c-.92-1-1.63-2.2-2.13-3.61-.49-1.41-.73-3-.73-4.75s.24-3.33.73-4.73c.5-1.43 1.2-2.64 2.13-3.63a9.4 9.4 0 013.35-2.31c1.32-.55 2.8-.82 4.44-.82zm0 19.89c2.2 0 3.84-.73 4.93-2.2 1.08-1.48 1.63-3.54 1.63-6.18 0-2.66-.55-4.72-1.63-6.2-1.09-1.49-2.73-2.23-4.93-2.23-1.12 0-2.09.2-2.93.57a5.7 5.7 0 00-2.06 1.65 7.5 7.5 0 00-1.24 2.67c-.26 1.04-.4 2.22-.4 3.54 0 2.64.55 4.7 1.64 6.18 1.1 1.47 2.76 2.2 4.99 2.2zm17.97-15.07a9.94 9.94 0 012.6-3.56 5.64 5.64 0 013.76-1.3c.47 0 .91.05 1.34.15.44.1.83.27 1.16.49l-.28 2.92c-.09.37-.31.55-.66.55-.2 0-.5-.04-.9-.13a6.2 6.2 0 00-3.24.18c-.54.2-1.03.5-1.47.92-.43.4-.82.9-1.17 1.5a13.1 13.1 0 00-.92 2.02V48h-3.94V25.71h2.24c.43 0 .72.08.88.25.17.16.28.44.33.83l.27 3.39zm15.04-14.59V48h-3.92V15.6h3.92zm19.55 15.43a6.22 6.22 0 00-2.38-2.05 6.7 6.7 0 00-2.86-.6c-2.07 0-3.66.75-4.77 2.23-1.12 1.48-1.68 3.6-1.68 6.33 0 1.46.13 2.7.38 3.74a7.29 7.29 0 001.1 2.56 4.35 4.35 0 001.78 1.45c.7.3 1.5.46 2.4.46 1.29 0 2.41-.3 3.36-.88a9.6 9.6 0 002.67-2.49V31.02zm3.91-15.43V48h-2.33c-.56 0-.9-.27-1.06-.81l-.35-2.71a12.13 12.13 0 01-3.25 2.77 8.28 8.28 0 01-4.23 1.06 7.31 7.31 0 01-6.14-2.9c-.73-.96-1.3-2.15-1.69-3.57a18.35 18.35 0 01.07-9.48 11.29 11.29 0 011.89-3.7 8.7 8.7 0 017.06-3.34 7.96 7.96 0 016.12 2.62V15.59h3.91zM46.61 70.71V93H42.7V70.71h3.91zm.84-7c0 .39-.08.75-.24 1.09a2.81 2.81 0 01-1.52 1.47 2.67 2.67 0 01-2.16 0 2.9 2.9 0 01-1.45-1.47 2.67 2.67 0 010-2.16c.15-.35.35-.65.6-.9.25-.27.53-.47.85-.62a2.67 2.67 0 012.16 0c.35.15.65.35.9.62.27.25.47.55.62.9.16.34.24.7.24 1.08zm7.97 10.24c.49-.54 1-1.04 1.54-1.48a9.85 9.85 0 013.66-1.84 8.96 8.96 0 015.43.35c.94.4 1.72.97 2.33 1.71a7.36 7.36 0 011.43 2.67c.32 1.04.49 2.19.49 3.45V93h-3.94V78.81c0-1.69-.4-3-1.17-3.92-.76-.93-1.93-1.4-3.5-1.4a6.6 6.6 0 00-3.25.83c-1 .56-1.92 1.31-2.77 2.27V93h-3.94V70.71h2.35c.56 0 .9.28 1.04.82l.3 2.42zm57.7 3.3c0 2.36-.37 4.5-1.11 6.44a14.3 14.3 0 01-3.17 4.98 14.1 14.1 0 01-4.93 3.2c-1.9.76-4.02 1.13-6.33 1.13H85.8V61.47h11.77c2.31 0 4.42.39 6.33 1.15a13.8 13.8 0 018.1 8.18 17.75 17.75 0 011.12 6.45zm-4.37 0c0-1.94-.26-3.67-.8-5.2a10.94 10.94 0 00-2.23-3.87 9.57 9.57 0 00-3.53-2.42 12.23 12.23 0 00-4.61-.83h-7.5v24.62h7.5c1.7 0 3.24-.28 4.61-.84a9.7 9.7 0 003.53-2.4 10.94 10.94 0 002.24-3.87c.53-1.53.8-3.26.8-5.2zm19.8 5.72c-1.8.06-3.34.2-4.62.44-1.26.22-2.3.51-3.1.88-.8.36-1.37.8-1.74 1.3-.35.5-.53 1.05-.53 1.67 0 .58.1 1.1.3 1.52a3 3 0 00.76 1.05c.34.27.73.46 1.17.6.45.11.94.17 1.45.17a7.28 7.28 0 003.5-.81 11.95 11.95 0 002.82-2.2v-4.62zm-12.65-9.11a12.73 12.73 0 013.98-2.66c1.43-.59 3-.88 4.73-.88 1.25 0 2.36.2 3.33.61a6.81 6.81 0 013.94 4.38c.33 1.04.5 2.19.5 3.43V93h-1.74a1.8 1.8 0 01-.88-.18c-.2-.13-.36-.38-.48-.74l-.44-2.12c-.59.55-1.16 1.03-1.72 1.46a9.48 9.48 0 01-3.74 1.7c-.69.15-1.46.23-2.3.23-.87 0-1.69-.12-2.45-.35a5.34 5.34 0 01-3.34-2.93 6.64 6.64 0 01-.49-2.64c0-.88.25-1.72.73-2.53a6.33 6.33 0 012.35-2.17c1.09-.63 2.5-1.15 4.25-1.54 1.75-.41 3.89-.65 6.42-.7v-1.75c0-1.73-.37-3.03-1.12-3.91-.75-.9-1.84-1.34-3.28-1.34-.97 0-1.78.12-2.44.37-.64.23-1.2.5-1.7.81l-1.23.82c-.33.23-.67.35-1 .35-.27 0-.5-.07-.69-.2a2.1 2.1 0 01-.48-.53l-.7-1.25zm27.67 19.5c-1.76 0-3.12-.5-4.07-1.48-.94-.98-1.41-2.4-1.41-4.25V74h-2.68a.9.9 0 01-.6-.2c-.16-.14-.24-.36-.24-.66v-1.56l3.65-.46.9-6.89a.9.9 0 01.29-.52.88.88 0 01.62-.22H142v7.67h6.44V74H142v13.38c0 .94.22 1.63.68 2.09.45.45 1.04.68 1.76.68a3.21 3.21 0 001.85-.53l.55-.35c.16-.12.3-.18.41-.18.2 0 .4.13.55.38l1.15 1.87a7.45 7.45 0 01-2.44 1.5c-.96.35-1.94.52-2.95.52zm19.68-10.4c-1.8.07-3.34.21-4.62.45-1.26.22-2.3.51-3.1.88-.8.36-1.37.8-1.74 1.3-.35.5-.53 1.05-.53 1.67 0 .58.1 1.1.3 1.52.18.42.44.77.76 1.05.34.27.73.46 1.17.6.45.11.94.17 1.45.17a7.3 7.3 0 003.5-.81 12.04 12.04 0 002.82-2.2v-4.62zm-12.65-9.1a12.72 12.72 0 013.99-2.66c1.42-.59 3-.88 4.72-.88 1.25 0 2.36.2 3.33.61a6.81 6.81 0 013.94 4.38c.33 1.04.5 2.19.5 3.43V93h-1.74a1.8 1.8 0 01-.88-.18c-.2-.13-.36-.38-.48-.74l-.44-2.12c-.59.55-1.16 1.03-1.72 1.46a9.48 9.48 0 01-3.74 1.7c-.69.15-1.46.23-2.3.23-.87 0-1.69-.12-2.45-.35a5.33 5.33 0 01-3.34-2.93 6.62 6.62 0 01-.49-2.64c0-.88.25-1.72.73-2.53a6.33 6.33 0 012.35-2.17c1.09-.63 2.5-1.15 4.25-1.54a31.2 31.2 0 016.42-.7v-1.75c0-1.73-.37-3.03-1.12-3.91-.75-.9-1.84-1.34-3.28-1.34-.97 0-1.78.12-2.44.37-.64.23-1.2.5-1.7.81-.46.3-.87.57-1.22.82-.34.23-.68.35-1.02.35-.26 0-.49-.07-.68-.2a1.88 1.88 0 01-.48-.53l-.7-1.25z" fill="#fff"/><path fill="#D42B21" d="M0 106.79h210V120H0z"/></g><defs><clipPath id="clip0"><path fill="#fff" d="M0 0h210v120H0z"/></clipPath></defs></svg></g><a href="https://ourworldindata.org/grapher/annual-working-hours-vs-gdp-per-capita-pwt?tab=chart&amp;xScale=log&amp;stackMode=absolute&amp;time=1950..latest&amp;country=BRA~DEU~TWN~USA&amp;region=World" target="_blank" rel="noopener" font-family="&quot;Playfair Display&quot;,Georgia,&quot;Times New Roman&quot;,serif"><text font-size="25.2" x="15" y="35.2" fill="#555"><tspan x="15" y="35.16">Annual working hours vs. GDP per capita</tspan></text></a><text font-size="14.4" x="15" y="55.7" fill="#666"><tspan x="15" y="55.72">Working hours are the annual average per worker. GDP per capita is measured in constant 2011 international-$,</tspan><tspan x="15" y="73">which means it is adjusted for price differences between countries (PPP adjustment) and for inflation to allow</tspan><tspan x="15" y="90.28">comparisons between countries and over time.</tspan></text></g><g class="ScatterPlot"><g class="DualAxisView"><g class="HorizontalAxis"><text font-size="12.6" x="303.4" y="554"><tspan x="303.36" y="553.98">GDP per capita (int.-$)</tspan></text><text x="133.7" y="533.9" fill="#666" text-anchor="middle" font-size="16.2">$1,000</text><text x="225.2" y="533.9" fill="#666" text-anchor="middle" font-size="16.2">$2,000</text><text x="346.1" y="533.9" fill="#666" text-anchor="middle" font-size="16.2">$5,000</text><text x="437.5" y="533.9" fill="#666" text-anchor="middle" font-size="16.2">$10,000</text><text x="529" y="533.9" fill="#666" text-anchor="middle" font-size="16.2">$20,000</text><text x="649.9" y="533.9" fill="#666" text-anchor="middle" font-size="16.2">$50,000</text></g><g class="VerticalAxis"><text font-size="12.6" x="-424.5" y="25.1" transform="rotate(-90)"><tspan x="-424.51" y="25.08">Annual working hours per worker</tspan></text><text x="92.03" y="500.7" fill="#666" dominant-baseline="middle" text-anchor="end" font-size="16.2">1,400 h</text><text x="92.03" y="448.7" fill="#666" dominant-baseline="middle" text-anchor="end" font-size="16.2">1,600 h</text><text x="92.03" y="396.7" fill="#666" dominant-baseline="middle" text-anchor="end" font-size="16.2">1,800 h</text><text x="92.03" y="344.7" fill="#666" dominant-baseline="middle" text-anchor="end" font-size="16.2">2,000 h</text><text x="92.03" y="292.6" fill="#666" dominant-baseline="middle" text-anchor="end" font-size="16.2">2,200 h</text><text x="92.03" y="240.6" fill="#666" dominant-baseline="middle" text-anchor="end" font-size="16.2">2,400 h</text><text x="92.03" y="188.6" fill="#666" dominant-baseline="middle" text-anchor="end" font-size="16.2">2,600 h</text><text x="92.03" y="136.6" fill="#666" dominant-baseline="middle" text-anchor="end" font-size="16.2">2,800 h</text></g><g class="AxisGridLines horizontalLines" stroke="#d3d3d3" stroke-dasharray="3,2"><path d="M97.03 500.7h621.06M97.03 448.7h621.06M97.03 396.7h621.06M97.03 344.7h621.06M97.03 292.6h621.06M97.03 240.6h621.06M97.03 188.6h621.06M97.03 136.6h621.06"/></g><g class="AxisGridLines verticalLines" stroke-dasharray="3,2"><path stroke="#eee" d="M104.3 512.7V107.8M119.8 512.7V107.8"/><path stroke="#d3d3d3" d="M133.7 512.7V107.8M225.2 512.7V107.8"/><path stroke="#eee" d="M278.7 512.7V107.8M316.6 512.7V107.8"/><path stroke="#d3d3d3" d="M346.1 512.7V107.8"/><path stroke="#eee" d="M370.1 512.7V107.8M390.5 512.7V107.8M408.1 512.7V107.8M423.6 512.7V107.8"/><path stroke="#d3d3d3" d="M437.5 512.7V107.8M529 512.7V107.8"/><path stroke="#eee" d="M582.5 512.7V107.8M620.4 512.7V107.8"/><path stroke="#d3d3d3" d="M649.9 512.7V107.8"/><path stroke="#eee" d="M673.9 512.7V107.8M694.3 512.7V107.8M711.9 512.7V107.8"/></g></g><g class="PointsWithLabels clickable" clip-path="url(#a)" font-family="Arial, sans-serif"><path fill="rgba(255,255,255,0)" d="M97.03 107.8h621.06v404.9H97.03z"/><defs><clipPath id="a"><path d="M87.03 97.8h641.06v424.9H87.03z"/></clipPath></defs><g class="key-China_0"><circle cx="177" cy="350" r="1.5" fill="#e2e2e2" opacity=".7"/><path stroke-width="1.42" opacity=".7" stroke="#ccc" fill="none" stroke-linecap="butt" d="M177 350l6 1h-2 12-6 23l3 1h-2 46l4-1h-8l5-1h10l14-1 4-2 6-3 8-4 1-6 1-6 9-5 9-2 9-4 11-4 6-5 11-7 15-7 10 3 9 8 7 5 11-2 19-9 12-1 5-2 7 2h7l2 1h11"/><path cx="472" cy="299" r="2.62" fill="#e2e2e2" opacity=".7" d="M469.38 296.38l5.24 2.62-5.24 2.62z"/></g><g class="key-India_0"><circle cx="165" cy="324" r="1.4" fill="#e2e2e2" opacity=".7"/><path stroke-width="1.38" opacity=".7" stroke="#ccc" fill="none" stroke-linecap="butt" d="M165 324h2l5 1h-4l9 1-5 1h-7l-11 1h-11l-2-1h-2l-2-1h5l5-1h8l7-1h6-1 12l7 1 7-1 9-1 5 1 7-1h7l4-1h4l5-1 10-1 8-1h43l6-1 8-1 18-1 11-1 8-1h4l7-1 6 1h16"/><path cx="379" cy="314" r="2.58" fill="#e2e2e2" opacity=".7" d="M376.42 311.42l5.16 2.58-5.16 2.58z"/></g><g class="key-Indonesia_0"><circle cx="158" cy="347" r="1.2" fill="#e2e2e2" opacity=".7"/><path stroke-width=".79" opacity=".7" stroke="#ccc" fill="none" stroke-linecap="butt" d="M158 347h6l12-8 13-3h8l3 5 7 10 9-4 7 4 5-4 10-4 8-8-1 6 6-10 5-2-2 8 1 36h2l2 1 11-2 15-4 9-5 6 8h6l8-9 9 1 10 3v-2l-30-1v-6l-6 10 1-6 1 5v-7l10-7 10 4 11-3 13-20h22l11-5 21 2 24 8 5-1 4 1 4 4v-4h11"/><path cx="445" cy="338" r="1.99" fill="#e2e2e2" opacity=".7" d="M443.01 336.01l3.98 1.99-3.98 1.99z"/></g><g class="key-Pakistan_0"><circle cx="212" cy="288" r="1.2" fill="#e2e2e2" opacity=".7"/><path stroke-width=".74" opacity=".7" stroke="#ccc" fill="none" stroke-linecap="butt" d="M212 288l-1-10v13l3-9 1-8 1-10 3 11v12l5 11 1 12 5-3 4 4h2l3-1 4-2 3-5v-1l4 7 5 7 2-8-1-7-3-10 5 1v-9l-1 10 4-5 5 1-4 3 3 6h0l1-2-2 2 3 2 1-4 8 2 11 3 11 9 7-1 6 2 5 5 6-5 8 3 2 4 2 3 4-2h15"/><path cx="353" cy="319" r="1.94" fill="#e2e2e2" opacity=".7" d="M351.06 317.06l3.88 1.94-3.88 1.94z"/></g><g class="key-Nigeria_0"><circle cx="350" cy="345" r="1.2" fill="#e2e2e2" opacity=".7"/><path stroke-width=".72" opacity=".7" stroke="#ccc" fill="none" stroke-linecap="butt" d="M350 345l1 3 7 27v-7l-13 53-15-32h-5"/><path cx="325" cy="389" r="1.92" fill="#e2e2e2" opacity=".7" d="M326.92 390.92l-3.84-1.92 3.84-1.92z"/></g><g class="key-Bangladesh_0"><circle cx="181" cy="326" r="1.2" fill="#e2e2e2" opacity=".7"/><path stroke-width=".69" opacity=".7" stroke="#ccc" fill="none" stroke-linecap="butt" d="M181 326l-5-1-8-1-23-1h1l-8-1 13-1h6l1-1 4-1-4-1-1-1-4-3-1-4 9-3 2 8v7l-3 5 2 4 11 3 3-22 1-21 1 6 1 5 3 5 3 4 1 4-3-8-3-7-7-6 2-6 1 23 5 22 1 21 1-26 4-26 10-25 13 3 14 2h9l16-3 18-16-3 10 6 11h26"/><path cx="296" cy="284" r="1.89" fill="#e2e2e2" opacity=".7" d="M294.11 282.11l3.78 1.89-3.78 1.89z"/></g><g class="key-Russia_0"><circle cx="479" cy="362" r="1.2" fill="#e2e2e2" opacity=".7"/><path stroke-width=".67" opacity=".7" stroke="#ccc" fill="none" stroke-linecap="butt" d="M479 362l-21-2-22 12-8 1-3-1-4-15-12 1-5-4 17-5h7l14-3h16l19 1 21-2 22-1 18 1-15 6 17-1h17l7-1h1l-3-1-16 2-4 1h3"/><path cx="545" cy="351" r="1.87" fill="#e2e2e2" opacity=".7" d="M543.13 349.13l3.74 1.87-3.74 1.87z"/></g><g class="key-Japan_0"><circle cx="256" cy="336" r="1.2" fill="#e2e2e2" opacity=".7"/><path stroke-width=".65" opacity=".7" stroke="#ccc" fill="none" stroke-linecap="butt" d="M256 336l11 5 10 4 4 5 6-8 8-7 8-13 8-6 8-6 10-6 15-5h13l11 5 9 2 13-2 7 5 11-2 12-4h14l14 3 12 3 6 2 9-1 8 4-2 15 4 7 7-7 7-1 9-1 7-2h7l-2 1h-2l-3-1-1-4 4 3h10l9-2 12 1 8 5 10 9 8 4 4 13 3 9 4 5 7-1 6-1 1 8-2 5v4l3-2-2 4v3l2-1 3-2 3 4 2-2 2 2-2 5-7 13 6-5-1 1 1-2 3 5 1 2 4 1 3 2 2 1"/><path cx="621" cy="412" r="1.85" fill="#e2e2e2" opacity=".7" d="M620.17 409.52l2.48 3.3h-4.13z"/></g><g class="key-Mexico_0"><circle cx="331" cy="232" r="1.1" fill="#e2e2e2" opacity=".7"/><path stroke-width=".65" opacity=".7" stroke="#ccc" fill="none" stroke-linecap="butt" d="M331 232h9-6 10l7 1h17l-1 3 1 2 8 3 12 2 3 3 4 2 3 2 7 3 1 2 4 3h1l6 1h7l4 1h6l2 1h8l10 1h18-5l-11-1h2-12v-1h-2 9l3 1 3 2 12 1 4 4h-30l1-5 8-3 8 9 2-4 7-2-2 7-3 4-1-2 6 2 8-5 2 3 3 5 1-1-7 2h8l9 2 4 2 4-1h6l-3-1 2-2h2"/><path cx="510" cy="278" r="1.85" fill="#e2e2e2" opacity=".7" d="M508.15 276.15l3.7 1.85-3.7 1.85z"/></g><g class="key-Philippines_0"><circle cx="240" cy="315" r="1.1" fill="#e2e2e2" opacity=".7"/><path stroke-width=".62" opacity=".7" stroke="#ccc" fill="none" stroke-linecap="butt" d="M240 315l4-1 4-1 7 3 5-3 8-1h5l1-10 4 7h11l3 1-2-3-12-8h-12l5 1 10-3 10-2 8-2 9 1-1 4h4l5 11 11-4 10 5 9 10-5-1-14 1-7 3 1-1-1 1-1 5v-4l2-2 2-5 4 7 8-4 7-5 3-1 11-2 9-1 4-1 8-3h4l6-1h15"/><path cx="402" cy="306" r="1.82" fill="#e2e2e2" opacity=".7" d="M400.18 304.18l3.64 1.82-3.64 1.82z"/></g><g class="key-Vietnam_0"><circle cx="109" cy="184" r="1.1" fill="#e2e2e2" opacity=".7"/><path stroke-width=".61" opacity=".7" stroke="#ccc" fill="none" stroke-linecap="butt" d="M109 184l-1-1h14-7l4-1h-15 10l16-1h-1 6l3-1h0-4l4-1h7l3-1 1 1v-1l3-1h-5 15l7-1h19l9-1h15l8 87 4-12h-1l9-8 7 38 10 4 10-6 10 12 12 4 8-12 16-1 9-24v-18l16 27 10-8 4 5 6 12 7 30v-5h9"/><path cx="366" cy="300" r="1.81" fill="#e2e2e2" opacity=".7" d="M364.19 298.19l3.62 1.81-3.62 1.81z"/></g><g class="key-Turkey_0"><circle cx="383" cy="322" r="1.1" fill="#e2e2e2" opacity=".7"/><path stroke-width=".59" opacity=".7" stroke="#ccc" fill="none" stroke-linecap="butt" d="M383 322v2l8 2 5 3 13 4 6 4 11 4-6 4-9 4-4 5-5 1 12 2-4 2 3 2 5 17 4-7 5 4 12 10-1 2-3-8h7l-7-1 4-7 10-5-11 8 7 2 13-4 5 4-3-2-8-10 8-3-5-2h-8l12 7 12-5 16-2 10 8 6 3-5 5 16 1 15 4 5 2 7 6h28"/><path cx="569" cy="388" r="1.79" fill="#e2e2e2" opacity=".7" d="M567.21 386.21l3.58 1.79-3.58 1.79z"/></g><g class="key-Thailand_0"><circle cx="239" cy="226" r="1.1" fill="#e2e2e2" opacity=".7"/><path stroke-width=".57" opacity=".7" stroke="#ccc" fill="none" stroke-linecap="butt" d="M239 226h2l2 27 8-31 2-5 3 7 8 1 10 1 10-19 4-24 4-23 5 20 2 74 4-87 5-5 2 7v1l9 11 12-5 10-18 12 35 7-12 12-4 10 20 11-13 15 2 12 14-13 18-24-13 3 10 3-1 4 25 9 3 8 2 10-1 11 13 6 4 8-2 8-3-3-3 16 1 8-2 10 12 3 10-2 7 3 16h9"/><path cx="497" cy="296" r="1.77" fill="#e2e2e2" opacity=".7" d="M495.23 294.23l3.54 1.77-3.54 1.77z"/></g><g class="key-United-Kingdom_0"><circle cx="428" cy="296" r="1.2" fill="#e2e2e2" opacity=".7"/><path stroke-width=".56" opacity=".7" stroke="#ccc" fill="none" stroke-linecap="butt" d="M428 296l4-2-1 8 6-1 5-1 5 1 2 3 2 6v8l4-3 5 2 2 10 1 10 4 2h7l3 6 2 14 2 4 5 1 2 3 3 11 1 10 4-5 9-2-5 3-3 9 7 1 6-2h16l1 8-2 9v1l3 2 2-2h2l1 1 5-1 4-2 2-1v3l-4 7-1 2 3 1 4-3 13-1h7l8 1 2 1 5 2 8 4 2-1v5l2 2 3 1 8-1 1 2-2-1 3 2-11 5 7-1h0l2-3 6-3v-2l4 1h-1 4"/><path cx="617" cy="430" r="1.76" fill="#e2e2e2" opacity=".7" d="M615.24 428.24l3.52 1.76-3.52 1.76z"/></g><g class="key-France_0"><circle cx="387" cy="294" r="1.1" fill="#e2e2e2" opacity=".7"/><path stroke-width=".56" opacity=".7" stroke="#ccc" fill="none" stroke-linecap="butt" d="M387 294l6-6 3 5 4 5 6-4 6 4 5 12 6 6 3 3 2-1 9-3 5 5 6-4 6 4 7-3 5 3 6 2 5 8 5 5 8 18 7 5h6l6 13 8 3 5 8-2 6 6-7 5 10 5 8 5 1 3 2-4 5-1 18-2 5-2 1-3 9 6 1 3-3 6-2 4 3 3 2v1l2 1-1 2h2l2 6 3 1h6l7 3 5 1 7 5 3 5v9l-4-1 2-7h10l2 4 5-5 1-2-5 5 4-2 4-2-1 2 2 4v1h3l1 2 4-3"/><path cx="618" cy="471" r="1.76" fill="#e2e2e2" opacity=".7" d="M615.54 470.65l3.87-.7-1.76 3.51z"/></g><g class="key-Italy_0"><circle cx="319" cy="316" r="1.1" fill="#e2e2e2" opacity=".7"/><path stroke-width=".55" opacity=".7" stroke="#ccc" fill="none" stroke-linecap="butt" d="M319 316l10-1 4-2 8-2 5-1 8-2 4-2 5-2 5-1 8-2 11-2 10 5 6 12 5 4 3 2 2 15 7-5 8-6 8 1 7 1 16 5 2 14 5 5 11 4 8 8-3 4 12 1 6 9 8 2 11 2h8l-2-2-3-3h-2l2 3 1 1 8-2 7-5 6-1 5 4 6 3 4 1h2l4 1h6l3-3 5 2 6-4 4 1 3 5-1 3-2 3v3h0l4 1h5l5-1 3 2-6 9 1-1 4 1-1 10-3 4v1h2l6-2h4"/><path cx="613" cy="416" r="1.75" fill="#e2e2e2" opacity=".7" d="M611.25 414.25l3.5 1.75-3.5 1.75z"/></g><g class="key-South-Africa_0"><circle cx="422" cy="246" r="1.1" fill="#e2e2e2" opacity=".7"/><path stroke-width=".55" opacity=".7" stroke="#ccc" fill="none" stroke-linecap="butt" d="M422 246l5-1 1 16 5-6 8-15 8 22 6-2 1 10-5 9 3 4 5-5v11l1 1h0-2 0"/><path cx="458" cy="290" r="1.75" fill="#e2e2e2" opacity=".7" d="M456.25 288.25l3.5 1.75-3.5 1.75z"/></g><g class="key-Myanmar_0"><circle cx="102" cy="227" r="1.1" fill="#e2e2e2" opacity=".7"/><path stroke-width=".54" opacity=".7" stroke="#ccc" fill="none" stroke-linecap="butt" d="M102 227h1-6 2l4 1h13l5 1h15l-4-1h-27 0l1-1h-7 8l33 1h-7 13-3 20-10l8 1h93l11 1h99"/><path cx="364" cy="230" r="1.74" fill="#e2e2e2" opacity=".7" d="M362.26 228.26l3.48 1.74-3.48 1.74z"/></g><g class="key-South-Korea_0"><circle cx="132" cy="265" r="1.1" fill="#e2e2e2" opacity=".7"/><path stroke-width=".54" opacity=".7" stroke="#ccc" fill="none" stroke-linecap="butt" d="M132 265l3-5 8-6v-5l8-6 1-5-2-6-3-6 5-5-3-6 11-6 8 21 3-28 14 4 4-8 12-12 14-15 8 27 18-16 14-17 25-12 21-14 15-6 11-22 9 9 10-9 5 4-10 5 7-5 7-3 13-5 11 1 4 7 21-8 18 8 16 12 12 27 15 14 14 4 9 6 11-4 15 4 15-2 12 3-3 14-20 25 13-2 9-4 3 3 9 11 4 8 7 8 9 11 4 1 7 11-1 24-3 12 10 2 1 8v6l1 3 4 6 5-2 4 4h3"/><path cx="607" cy="328" r="1.74" fill="#e2e2e2" opacity=".7" d="M605.26 326.26l3.48 1.74-3.48 1.74z"/></g><g class="key-Colombia_0"><circle cx="283" cy="260" r="1.1" fill="#e2e2e2" opacity=".7"/><path stroke-width=".53" opacity=".7" stroke="#ccc" fill="none" stroke-linecap="butt" d="M283 260l-2 3 5 3 6 3 8 2 1 3-1 3-5 2-4 3 3 3 3 3 4 1 2 1v1l6 2-3 1 3 1 1 1 5 2 5 1 7 1 10 3 9 2 11 3 7 2 5 3 5 2 4 3 6 2 2 3 3 2-2 3-3 3-3 2-1 3-2 3 5 3-2 2 2 3v3l2 2-2 3 4 2 6-3 5-3 4 1-2 1 1 1-5 2h-9 2-2v-20l3 4 4 3 7-2 11-6 12-6 10-6v8l11 3h14l4 5 3 5 3 2-2-1h3"/><path cx="470" cy="345" r="1.73" fill="#e2e2e2" opacity=".7" d="M468.27 343.27l3.46 1.73-3.46 1.73z"/></g><g class="key-Spain_0"><circle cx="296" cy="290" r="1.1" fill="#e2e2e2" opacity=".7"/><path stroke-width=".53" opacity=".7" stroke="#ccc" fill="none" stroke-linecap="butt" d="M296 290l21 1 5 1-6 1 15-4 6 4 8 5 4 3 5 4-5 3 13 2 14 5 11 5 11 4 6 12 5 2h9l4-3 8 10 10 2 4-2h5l9 1 8 3 5-1-1-3 4-2 4 1 3 7v12l4 3-8 8-5 6-4 8-2 12-3 2 8 2 9 3 9 1 8 3 7-1 6-2 2 2 2 2h16l9-1 8-2 5-1 7 1 3-3 2-1v3l3 3 12 5 9 2 7 3 1-2-6-2-1 3-2-2-1 4-1 2h2l7-2h5l6 4"/><path cx="605" cy="426" r="1.73" fill="#e2e2e2" opacity=".7" d="M604.52 423.6l1.92 3.36-3.84-.48z"/></g><g class="key-Argentina_0"><circle cx="259" cy="335" r="1.1" fill="#e2e2e2" opacity=".7"/><path stroke-width=".52" opacity=".7" stroke="#ccc" fill="none" stroke-linecap="butt" d="M259 335l1-1-15-1 6-1 3-1 7-1 1-1 5-1 7-1-10-1 8-1 2 2v2l-7 2 5 1 13 2 1 2 2 1 2 2 11 2 2 2 1 1h1l4 1 4 1-4 1-1 1 6 1h-4l7 1-2 1-1 3 5 4 8 3 7 3-6 3 12 4 7 3 6 3-7 3 13 3 20 3 20 3 16-6 19-6 13-2 33-2 2-2-1-2-10 5-2 6-10 13-22 27 10-1 10-5 10-8 9-1 12-4h7l-11 10 14-2h9v6l-1 3-5 5 1 1h-2 3"/><path cx="503" cy="424" r="1.72" fill="#e2e2e2" opacity=".7" d="M501.28 422.28l3.44 1.72-3.44 1.72z"/></g><g class="key-Poland_0"><circle cx="421" cy="326" r="1.1" fill="#e2e2e2" opacity=".7"/><path stroke-width=".51" opacity=".7" stroke="#ccc" fill="none" stroke-linecap="butt" d="M421 326l10-4 12 1h34l1-1 3 2 1-2h5l7 2 5-1 11 1 8 2 5 4 12 2 9 1 4 1v1l2-2 7-2h2l7 6"/><path cx="566" cy="337" r="1.71" fill="#e2e2e2" opacity=".7" d="M565.81 334.59l1.49 3.52-3.71-.92z"/></g><g class="key-Canada_0"><circle cx="452" cy="290" r="1.1" fill="#e2e2e2" opacity=".7"/><path stroke-width=".51" opacity=".7" stroke="#ccc" fill="none" stroke-linecap="butt" d="M452 290l1 4 7 3h3l-5 2 8 5 7 3-1 5v4l2 1 1 4 3 6h6l4 4 7 3 5 5 6 6 2 3 5 6 4 5 2 5 5 3 5 2 7 2 2 2v5l6 2 3 7h4l4-1 1 3 3 4-5 6 4 3 7-3 2-1 1-1 7-3h5l3 2-1 1-5 6-1 1h2l5-2 5 1 2-4 4 1v1h8l7 1-2 2-1 4 6 2 4-3 9 3-1 1 1 1 4 1-15 9 7-1 6 1 1-3 3 1 5 1-9-1v1l2 2"/><path cx="629" cy="423" r="1.71" fill="#e2e2e2" opacity=".7" d="M629 420.58l1.2 3.63-3.62-1.21z"/></g><g class="key-Peru_0"><circle cx="229" cy="303" r="1.1" fill="#e2e2e2" opacity=".7"/><path stroke-width=".5" opacity=".7" stroke="#ccc" fill="none" stroke-linecap="butt" d="M229 303l6 2 4 1 4 1 5 2 3 1 1 2 7 1-5 1-1 2 9 1 6 1 7 2 3 1 5 1 5 2 6 1 2 1-4 2 3 1 3 1 5 1v2l7 1 8 2 3 1-3 2-5 2-7 2-1 1 9 2 7 2-2 1-14 2 3 2-3 1 16 2 12 2-10 1-27 2-1 1 3 1h49-5l-1 10 1-30-1 6 6-6 7 5 8 3 12 5 15-4 12-5h11l-1 7 16 9 11 1h7l3 1 2 4-1-7h5"/><path cx="454" cy="362" r="1.7" fill="#e2e2e2" opacity=".7" d="M452.3 360.3l3.4 1.7-3.4 1.7z"/></g><g class="key-Malaysia_0"><circle cx="296" cy="277" r="1.1" fill="#e2e2e2" opacity=".7"/><path stroke-width=".5" opacity=".7" stroke="#ccc" fill="none" stroke-linecap="butt" d="M296 277l23-1h20l10-1h-7l11-1h7l6-1h7l8-1h16l6-1-14 1-14 1h6l8 1 10-3h13l10-2 5-2 9-1h26l3-1h-24 19l-4-1 5-7 5 3 10 1 15-11v3l11 7 13 7-10-3 9 5 14 1 6 4 6 8 1-3-3 3h8"/><path cx="546" cy="282" r="1.7" fill="#e2e2e2" opacity=".7" d="M544.3 280.3l3.4 1.7-3.4 1.7z"/></g><g class="key-Venezuela_0"><circle cx="357" cy="298" r="1.1" fill="#e2e2e2" opacity=".7"/><path stroke-width=".49" opacity=".7" stroke="#ccc" fill="none" stroke-linecap="butt" d="M357 298l7 4 13 4-2 4 8 4 2 4 5 4 6 4 2 4 1 4-14 4v2l5 2 4 2 10 2v2l-4 1v2l10 2 3 2 12 2-7-1v-1l10-2 24-1-6-1 4-1 1-1-5-2 3-1-5-1-3 3-11 3-3 3-1 2-11 3-12 3v3l1 2-11 3 6 3 7 3 2 3-8-6-10-5 5-2-3-1v-1l-13-2 1 12 22-3-6 7-9 11-5 7 31-25 30-7 21 5"/><path cx="464" cy="369" r="1.69" fill="#e2e2e2" opacity=".7" d="M462.75 366.96l2.9 2.43-3.69.86z"/></g><g class="key-Australia_0"><circle cx="464" cy="298" r="1.1" fill="#e2e2e2" opacity=".7"/><path stroke-width=".48" opacity=".7" stroke="#ccc" fill="none" stroke-linecap="butt" d="M464 298l-8 5-5 5 14 5 6 6 4 5-2 5-2 5 8 4 5 5v6l5 1 7 1 3 1v1l6 1 3 1 7 1 7 1 2 1 3 4 2 6 4 3-7-4 1 3 4-3h6l2-2h3l4 5-5 5 6 3 3-4 2 4 1-3 8 1 5 1 3-3-2 5-2 3 4 1 3-5 4-2h6l5 2 6 1 3 4 5-1h2l3 9 2 2 4 1 3 1h7l1 3h1l5 1-3 7 9-2h5l-1 3 1 1 1 2h-6l6 3 1 1"/><path cx="642" cy="414" r="1.68" fill="#e2e2e2" opacity=".7" d="M642 411.62l1.19 3.57-3.57-1.19z"/></g><g class="key-Sri-Lanka_0"><circle cx="279" cy="372" r="1.1" fill="#e2e2e2" opacity=".7"/><path stroke-width=".48" opacity=".7" stroke="#ccc" fill="none" stroke-linecap="butt" d="M279 372h-4 12-18l-6-15-2-1-14-1-1-1 8-2-3-1v-3l2 5 7 19 8-16 5-2 1-2 3-1 4-2 1-4 9-1 9-4 8 14 2 5 6 2 5 11 9-5v-5l1-18-1 7 8 42 9 20 4-31 3-9 13 14 11-7 9 10 14 3 13-16 16-31 9-16 6 41 6-8 9 1h9"/><path cx="469" cy="364" r="1.68" fill="#e2e2e2" opacity=".7" d="M467.32 362.32l3.36 1.68-3.36 1.68z"/></g><g class="key-Romania_0"><circle cx="402" cy="390" r="1.1" fill="#e2e2e2" opacity=".7"/><path stroke-width=".47" opacity=".7" stroke="#ccc" fill="none" stroke-linecap="butt" d="M402 390l7-10h-7l-3 1v2l4-1 11 1 6-4 7 8 15-3 7-2 18-4 16-2h20l-2 3 4 1 5-8 8 21 1 2 3 3 8 2 11-2 13-3"/><path cx="554" cy="395" r="1.67" fill="#e2e2e2" opacity=".7" d="M552 393.75l3.63.87-2.88 2.38z"/></g><g class="key-Chile_0"><circle cx="321" cy="168" r="1.1" fill="#e2e2e2" opacity=".7"/><path stroke-width=".47" opacity=".7" stroke="#ccc" fill="none" stroke-linecap="butt" d="M321 168l8 6 1 6 6 6-5 5-5 6 10 6 2 5-5 6 5 5-7 3 26 2 2 2 1 2-7 2 12 3 5 2v2l7 2-2 2 14 1-2 1-6 1h-9l-24 1 3 1 10 1h8l8 1 6 1 4-1-20-2-6-1 2-2-2-1 5-2 7-1 10-2 10-1 1-2 8 1 13 1 6 7 10 7 16 6 4 7 1 15-3-12-8 6 3 4-2 5v-2l4 4 13 1 14 19 19-2 10 10-5 9 1 5 17 1 13 6 9 6 2 2 6 7h-2l2 4h0"/><path cx="545" cy="351" r="1.67" fill="#e2e2e2" opacity=".7" d="M543.33 349.33l3.34 1.67-3.34 1.67z"/></g><g class="key-Netherlands_0"><circle cx="405" cy="346" r="1.1" fill="#e2e2e2" opacity=".7"/><path stroke-width=".46" opacity=".7" stroke="#ccc" fill="none" stroke-linecap="butt" d="M405 346l4 4 2 3 9 4 6 4 9 4 3 3 4 4-3 3 6 4 10 4h1l4 1h-1 13l4 1h1l5 1h7l10-9 6 10 5 9h4l8 7 10 14-3 14 6 4v5l3 8 3 5 5 1h-5l-4 4v4l2 2-4 4 5 4 1 5 4 1 5 2 7 1 3 2 1-1 4 2 3-2 5-2 5-4 8 3 4 1 9 1 12 3 1 3-1 4-1 2 2-5 16 4h3l8 1 5-1-12 3h1l2-1 2 3 7-1-6-3-2 1-2-3 6 1"/><path cx="640" cy="492" r="1.66" fill="#e2e2e2" opacity=".7" d="M638.64 490.09l3 2.18-3.55 1.1z"/></g><g class="key-Ecuador_0"><circle cx="349" cy="359" r="1.1" fill="#e2e2e2" opacity=".7"/><path stroke-width=".46" opacity=".7" stroke="#ccc" fill="none" stroke-linecap="butt" d="M349 359l-2 2 4 2-1 1-10 35 6-3 6-3 10-2 5-3 12 16 15-9 9 8 6-5 12-14-6 6 10-1 12 7 4 6 7-1v13l-10 8h-5 2"/><path cx="435" cy="422" r="1.66" fill="#e2e2e2" opacity=".7" d="M433.34 420.34l3.32 1.66-3.32 1.66z"/></g><g class="key-Cambodia_0"><circle cx="153" cy="295" r="1.1" fill="#e2e2e2" opacity=".7"/><path stroke-width=".46" opacity=".7" stroke="#ccc" fill="none" stroke-linecap="butt" d="M153 295l10 7 9-6-11-2v-2l-7-10 6-7 7-8 7-6 6-12h8l7-2h26l14-2h13l-9-2h6l10-5 8-2 14-2 2-5 6-3h-5 5"/><path cx="285" cy="226" r="1.66" fill="#e2e2e2" opacity=".7" d="M283.34 224.34l3.32 1.66-3.32 1.66z"/></g><g class="key-Belgium_0"><circle cx="393" cy="317" r="1.1" fill="#e2e2e2" opacity=".7"/><path stroke-width=".45" opacity=".7" stroke="#ccc" fill="none" stroke-linecap="butt" d="M393 317l4 2 3 3 3 3 5 2 5 3 3 2 2 3-3 3 3 2 7 3 6 3 6 3 4 3 8 3 3 3 3 3 4 3 5 3 8 3 7 3 5 2 7 7 9 7 6 8-2 3 8-1 2 7 4 5 4 4 9 5-7 7-4 3-4-1v-7l-7-1 9 5 7 4 10 3 3 2 5-3 2 9 4 6v12h3l5-7v7l6-4v-2h6l8-3v1l3 2 5 1 3 1 13 2-4-2 2-1 11 2-6 6h10l1-3h2-2l-1 1-4 3v-1l4 1"/><path cx="614" cy="463" r="1.65" fill="#e2e2e2" opacity=".7" d="M612.8 461l2.8 2.4-3.6.8z"/></g><g class="key-Czechia_0"><circle cx="513" cy="381" r="1.1" fill="#e2e2e2" opacity=".7"/><path stroke-width=".45" opacity=".7" stroke="#ccc" fill="none" stroke-linecap="butt" d="M513 381l7 5 5-5 6 2-4-2-5-5-1-4 5-1 6 20-2 1 6 3 3-3h11l3 4 10 4 6-1-6 3 1-6 4-1-1 7v4l6-4 3 6 3-6h8"/><path cx="587" cy="402" r="1.65" fill="#e2e2e2" opacity=".7" d="M585.35 400.35l3.3 1.65-3.3 1.65z"/></g><g class="key-Greece_0"><circle cx="294" cy="263" r="1.1" fill="#e2e2e2" opacity=".7"/><path stroke-width=".45" opacity=".7" stroke="#ccc" fill="none" stroke-linecap="butt" d="M294 263l-4 2 16 3v2l8 3 11 2 9 3 5 2 4 3 1 2 17 3-4 2 16 3 9 2 13 3 9 2 5 3 8 2 14 3 11 11 10-1h20l-10-1h6l7-1h7l1-1h1-7l-2 1h11-2 15v-1h9l6 1 3-1 3 1h18l2 1 6-1 4 2 5 2h0l6 3 2-14 10 3-1 3 4 2-5 6-9 16-13-5-6-4 3-1v10l2-3h-1l4 4"/><path cx="551" cy="340" r="1.65" fill="#e2e2e2" opacity=".7" d="M551 337.67l1.17 3.5-3.5-1.17z"/></g><g class="key-Portugal_0"><circle cx="262" cy="240" r="1.1" fill="#e2e2e2" opacity=".7"/><path stroke-width=".45" opacity=".7" stroke="#ccc" fill="none" stroke-linecap="butt" d="M262 240l13 4 5 4 6 4 5 4 3 4 5 4 5 4v3l6 4 9 4 7 3 9 3 7 3 4 4 9 3 4 3 9 3 17 3 4 3 10 12h30v-2h-9l6 1h5l2 4 5 3 4 5-3 5v5l-3 5-6 4 2 4 13 3 10-4 11 5 9-7 8 3 5 20 4 5 3 3 8 1 5-10h3l10 1 7-4 7-1 7-2-1 4v2l-1 2-1-2h12l6 3 3-5-1 4h-3l6-1-4 6-1 4 1-2 3-2 4-2-9 2-2 1"/><path cx="554" cy="380" r="1.65" fill="#e2e2e2" opacity=".7" d="M556.21 380.74h-3.69l2.22-2.95z"/></g><g class="key-Sweden_0"><circle cx="425" cy="347" r="1.1" fill="#e2e2e2" opacity=".7"/><path stroke-width=".44" opacity=".7" stroke="#ccc" fill="none" stroke-linecap="butt" d="M425 347l3 2h0l4 5 6-2 3 2 3 7h2l2 8 7 7 4 1h7l5 3 6 1 8 8 3 3 1 3 4 8 4 11 5 6h7l1 9 3 10 5 4 3 5 2 6v-3l-3 7 2 10 4 3 1-1 2 2 1-4 4-2 6-1 3-1 9 1 5-3 5-5h2l2 1-2 4-2-5-5-8 7-10 8-1 4-4 5-1 5 1 7-3 9 6-4 7v6l4 3 5-6h5l5 1 8-3 2-1-11 2 5-7 6 1 1 3-3 3h-2 4l-1-5 5 5"/><path cx="631" cy="446" r="1.64" fill="#e2e2e2" opacity=".7" d="M631 443.68l1.16 3.48-3.48-1.16z"/></g><g class="key-Hungary_0"><circle cx="440" cy="294" r="1.1" fill="#e2e2e2" opacity=".7"/><path stroke-width=".44" opacity=".7" stroke="#ccc" fill="none" stroke-linecap="butt" d="M440 294h2l1 24-1 6 1 18v7l7 3 9-12 2 2 4 6v11l-13 8v11h8l7-34 2-1 3 1v-6h1l2-4 10 2 8 10 7-3 4 7-1-2h14v1l1 1 11-1-4 5 7 2 5 2-1 5 1 2 2-2 1 1-2-3h6"/><path cx="544" cy="361" r="1.64" fill="#e2e2e2" opacity=".7" d="M542.36 359.36l3.28 1.64-3.28 1.64z"/></g><g class="key-Austria_0"><circle cx="352" cy="322" r="1.1" fill="#e2e2e2" opacity=".7"/><path stroke-width=".44" opacity=".7" stroke="#ccc" fill="none" stroke-linecap="butt" d="M352 322l6 1h4l6 1 10 1h12l9 1 6 1h5l4 1 9 1 6 3 3 3 5 4 5 3 3 3 6 3 3 3 5 4 6 3 7 15 7 1 7-5 6 1 4-20 1 19 3 2 5-2v16l6-9 1-1v16l1-4 2 1v1l2 2h6l6 3 8-1 6-3 7-1 5-2 4 8 2 1h6l5 7 2-9 7-2 5 6 4-1h7l-3 3 2 1 2 2 5-1 11 7 2 4 4 3 4 2-6 11 4 2 4-1 4 6-2 4 5 3 1 6 1-3 4-1"/><path cx="639" cy="445" r="1.64" fill="#e2e2e2" opacity=".7" d="M637.01 443.8l3.58.8-2.78 2.39z"/></g><g class="key-Switzerland_0"><circle cx="483" cy="334" r="1.1" fill="#e2e2e2" opacity=".7"/><path stroke-width=".44" opacity=".7" stroke="#ccc" fill="none" stroke-linecap="butt" d="M483 334l9 2-1 2 3 2 7 2 8 2 8 2 3 2-7 2 8 1 8 2h7l3-1 3-1 5-1h2l2-1 3-1 3-1h6l7-1 4 3 3 6 3 7 2 7-13 3-1 1 3 7 2 3 5 4 6 4v5l-1 2v4l1 5 3 2 6 2h2l2 1 5 4 5 2-2 1-1-3 1 1 2-6 1 6 1 6 5 2 4-2 4-5 1 1-1 10v6l2-4 4-7 10 1 7 3 12 2 8 3-4 2 3 7 10 1 3 4 1 6 2 2v-4h-1 3"/><path cx="682" cy="451" r="1.64" fill="#e2e2e2" opacity=".7" d="M680.36 449.36l3.28 1.64-3.28 1.64z"/></g><g class="key-Israel_0"><circle cx="509" cy="353" r="1.1" fill="#e2e2e2" opacity=".7"/><path stroke-width=".44" opacity=".7" stroke="#ccc" fill="none" stroke-linecap="butt" d="M509 353l1 6 3 4v-1h0l6 1 8 2 3 11-5-8 9 1 8 2 6-14 2-1 4-10 6-6 6-5 4-1 4 6 4-2 10-3-1 10-2-5-7 5-3 6-1 2-1 4-1-4-3 1h4l3 2 3 2 5 7 6 3 7 4 5-1 3-6h2"/><path cx="607" cy="365" r="1.64" fill="#e2e2e2" opacity=".7" d="M605.36 363.36l3.28 1.64-3.28 1.64z"/></g><g class="key-Hong-Kong_0"><circle cx="335" cy="156" r="1.1" fill="#e2e2e2" opacity=".7"/><path stroke-width=".44" opacity=".7" stroke="#ccc" fill="none" stroke-linecap="butt" d="M335 156l2 6 7 5 12 5 8 5 14 5 4 5 1 5 4 6 12 4 9 5h7l11 1h12l-1 1h14l11 3 9 2 9 3 10 3 6 3v6l5 8 9 8-6 7 15-1 19 9 2-13 8 16 10 9 7-8 9 22 8-17 4-1 1 10 6-13 2 12h-10v-11l13-8 9 1 6-4 3 3 18-6 7 2-12 8 6-3-4 13-16 7 10-13 10 11 2 6 18 3-18 13-18-3h3"/><path cx="622" cy="296" r="1.64" fill="#e2e2e2" opacity=".7" d="M620.36 294.36l3.28 1.64-3.28 1.64z"/></g><g class="key-Bulgaria_0"><circle cx="406" cy="419" r="1.1" fill="#e2e2e2" opacity=".7"/><path stroke-width=".44" opacity=".7" stroke="#ccc" fill="none" stroke-linecap="butt" d="M406 419l-13 1h-18l9 15 24-5 12 8 4-3h6l5 3 7-6 14 1 9 1h12l10-10-4 12 7 1h7-3 25"/><path cx="519" cy="437" r="1.64" fill="#e2e2e2" opacity=".7" d="M517.36 435.36l3.28 1.64-3.28 1.64z"/></g><g class="key-Denmark_0"><circle cx="428" cy="331" r="1.1" fill="#e2e2e2" opacity=".7"/><path stroke-width=".43" opacity=".7" stroke="#ccc" fill="none" stroke-linecap="butt" d="M428 331l-4 4 2 4 7 4 4 3-2 4 2 4 6 3 1 4 10 3 7 4 8-3 5-3 1-4 9-3 5-3 2-3 6 7 7 12 7 10 1 6 3 10 4 15 5 11-3 4-3 20 7-2 3 7 3 6 5 3v-4l-5 8 2-1 2 1 3 2 2 3 9-1 3 10v6l1 4 3 4v1l5-4h-2l6 12 4-4 4 2 6-4 4-3 5-4 7-3v-1l-1 2 2 1h7l11 2 5-1 3 6h7l-6 4 8-2 3-3-2 3h-2v3h-1l2 1 7 2"/><path cx="638" cy="500" r="1.63" fill="#e2e2e2" opacity=".7" d="M636.88 497.98l2.69 2.47-3.59.67z"/></g><g class="key-Singapore_0"><circle cx="262" cy="267" r="1.1" fill="#e2e2e2" opacity=".7"/><path stroke-width=".43" opacity=".7" stroke="#ccc" fill="none" stroke-linecap="butt" d="M262 267l12 1 16 2 17 1-2 1 8 2 13 1 17 1 13 2 19 1 20 1h58l2 5 11-6 6 14h13l17 6 15-2 3-7 3-2 8-1 8-2-19 10 2-9 13-7 6-4v-15l19-1-11-5-5-1-6-6-11-4 2-4 22-5 5-4 11 3 3-5 36-4-10 5 8 2-14-1 19 8h40l10 2 8 6-16 2-9 9 28-10 8 11-1-2-2 3 12 10-2 7-1 3 4 3"/><path cx="688" cy="282" r="1.63" fill="#e2e2e2" opacity=".7" d="M687.67 279.72l1.63 3.26-3.58-.65z"/></g><g class="key-Finland_0"><circle cx="366" cy="330" r="1.1" fill="#e2e2e2" opacity=".7"/><path stroke-width=".43" opacity=".7" stroke="#ccc" fill="none" stroke-linecap="butt" d="M366 330h16-3 22v-1h0-1 33l1 2 1 1 3-7h8l3 7 3 4 7 4 12 5 11 4 2 9 8 5 8 4 5 1-5 2 6 1 1 2 5-1 3 6 7 5 4-1v4l1 4 1 3h0l8 5 6-1 8-2 4 1 2 8-9 6-7-1-2-1 5-5 15-1v1l11 2 10 3 6-1 5 4 1 5-1 3 2 2 6-1 8 3 2 1h11l4 2-12 6 4-1 2 1-1 3-6 3-1 1h6l5-6"/><path cx="620" cy="433" r="1.63" fill="#e2e2e2" opacity=".7" d="M617.7 433.2l3.34-1.45-.83 3.55z"/></g><g class="key-Slovakia_0"><circle cx="504" cy="389" r="1.1" fill="#e2e2e2" opacity=".7"/><path stroke-width=".43" opacity=".7" stroke="#ccc" fill="none" stroke-linecap="butt" d="M504 389h-41 5l6-7 8 9 4-3-3 3-6 1h5l8 4 2 12 1 15 1-12 18-7 8-1 10-4 13-1-7 3 11-6 2 3v1l-2 5 4 3-1 1 4 4 4-2"/><path cx="558" cy="410" r="1.63" fill="#e2e2e2" opacity=".7" d="M555.81 409.27h3.65l-2.19 2.92z"/></g><g class="key-Norway_0"><circle cx="416" cy="311" r="1.1" fill="#e2e2e2" opacity=".7"/><path stroke-width=".43" opacity=".7" stroke="#ccc" fill="none" stroke-linecap="butt" d="M416 311l5 2 6 3 5 3 2 3 3 2 4 3 4 3-2 3 3 2 1 3 7 4 1 4 4 2 7-3 6 12h3l7 4 4 10 4 13-27 3 9 6 12 9 3 3 11 6 14 4 13 14 4 9 9 10 8 5h8l1 3-2 3 6 1 7 2 1 1-5 1 3 7h-6 4l13 3h0l3-2 1 1h4l9 4 15 2 6 1-7 1h14l27 5 1 6-6 4 9 3 8-5 28-1 10 1 1-3 16-1-24 6 9-3 12-1 6 1-4 3-10-1-24-1-7-1 2 3"/><path cx="675" cy="496" r="1.63" fill="#e2e2e2" opacity=".7" d="M675.45 493.74l.45 3.62-3.16-1.81z"/></g><g class="key-Costa-Rica_0"><circle cx="395" cy="248" r="1.1" fill="#e2e2e2" opacity=".7"/><path stroke-width=".43" opacity=".7" stroke="#ccc" fill="none" stroke-linecap="butt" d="M395 248v5l5 10 1-13-1 22 10-23 5 4 3-7 2 7-5-11 2 6 10 2-2-4 3 3 3 8-1-7 2 2 4-5 8 4v-2l6-7 6-1 6 11v27l7-10 2 12-1 22 7 6 4-6 5-14h5"/><path cx="491" cy="289" r="1.63" fill="#e2e2e2" opacity=".7" d="M489.37 287.37l3.26 1.63-3.26 1.63z"/></g><g class="key-Ireland_0"><circle cx="342" cy="235" r="1.1" fill="#e2e2e2" opacity=".7"/><path stroke-width=".43" opacity=".7" stroke="#ccc" fill="none" stroke-linecap="butt" d="M342 235l1 3 6 3 3 3 2 3 4 3-1 3v3l-1 3 6 3 7 3 7-1h2l6-1 3-1 1-1h2l7-1 9-1 6-1 1-1 3 5 8 5 5 3 1 10 4 2 3 2 11 8 10 5 5 5 4 10 1 9v2l-3 2 2 5-1-2 8-9 9 5 5-2 8-2 10 3 2 9 9 13 7 7h6l17 2 9 2h25l11 3 13 3 7 2 13 5 10 5 5 3 10-2 1 1 9 3-9 6-8 8 1 3 1 26 1-2 1-3 9-3 33-2h8l8-2"/><path cx="705" cy="410" r="1.63" fill="#e2e2e2" opacity=".7" d="M703.02 408.81l3.56.8-2.77 2.37z"/></g><g class="key-New-Zealand_0"><circle cx="492" cy="370" r="1.1" fill="#e2e2e2" opacity=".7"/><path stroke-width=".43" opacity=".7" stroke="#ccc" fill="none" stroke-linecap="butt" d="M492 370l4 1 4 1 8 1 3 1-5 1 3 1-6 1-2 1v1h0l4 1v4l7 1 5-3-3 5h8l5-1 5 3v5l-4 4 1-2 8-14 6 2 5 2 5 1 3 2h2l7-4 1 2 2 3 2-1 2 1-1-2 4 4v6l8 5v3l-1 6 4-4 4 2v3l6-4 6-3v1l4 2h2"/><path cx="608" cy="409" r="1.63" fill="#e2e2e2" opacity=".7" d="M606.37 407.37l3.26 1.63-3.26 1.63z"/></g><g class="key-Croatia_0"><circle cx="425" cy="364" r="1.1" fill="#e2e2e2" opacity=".7"/><path stroke-width=".43" opacity=".7" stroke="#ccc" fill="none" stroke-linecap="butt" d="M425 364h60l4-1h23l11-1h8l-6 1-1-4 5 1 2 4-4 4v4l7 17 7-2h6"/><path cx="547" cy="387" r="1.63" fill="#e2e2e2" opacity=".7" d="M545.37 385.37l3.26 1.63-3.26 1.63z"/></g><g class="key-Uruguay_0"><circle cx="419" cy="399" r="1.1" fill="#e2e2e2" opacity=".7"/><path stroke-width=".42" opacity=".7" stroke="#ccc" fill="none" stroke-linecap="butt" d="M419 399l6 2 15 2 4 1 9 2-1 2 6 1 1 2 1 2-8 4-6 4-7 8-11 10-1 6 5-7 7 3 7 1 12 4 15-4 7 7 17 2 11 1 6 4 5 1 6 1-2 3h4"/><path cx="527" cy="461" r="1.62" fill="#e2e2e2" opacity=".7" d="M525.38 459.38l3.24 1.62-3.24 1.62z"/></g><g class="key-Lithuania_0"><circle cx="414" cy="415" r="1.1" fill="#e2e2e2" opacity=".7"/><path stroke-width=".42" opacity=".7" stroke="#ccc" fill="none" stroke-linecap="butt" d="M414 415h6l6-1 5-12 6 13 10-31 10 4 3 8 14 4 3-24h17l10 1 12-8 9-8-17 19 10-6 14 7h9l3 4 7 3 2-7 3-7 7 11"/><path cx="563" cy="385" r="1.62" fill="#e2e2e2" opacity=".7" d="M563.5 382.76l.37 3.6-3.1-1.86z"/></g><g class="key-Jamaica_0"><circle cx="309" cy="379" r="1.1" fill="#e2e2e2" opacity=".7"/><path stroke-width=".42" opacity=".7" stroke="#ccc" fill="none" stroke-linecap="butt" d="M309 379l13-7 6-6 1-15 9 9-5-2 7-4 8 3-1-2v3l2-6-2 2 1-10 2 5 1 5v-2l-1 1"/><path cx="350" cy="353" r="1.62" fill="#e2e2e2" opacity=".7" d="M352.3 353l-3.45 1.15 1.15-3.44z"/></g><g class="key-Slovenia_0"><circle cx="517" cy="408" r="1.1" fill="#e2e2e2" opacity=".7"/><path stroke-width=".42" opacity=".7" stroke="#ccc" fill="none" stroke-linecap="butt" d="M517 408l5 7 3 3-2-3h5l5 5 1 3 3-6 3-1 5-3 11 10v8l4 3 12-5-12-1 2-1 4 5-1 5-2-5 2-5-2-2 2 6 9 3"/><path cx="574" cy="434" r="1.62" fill="#e2e2e2" opacity=".7" d="M572.98 431.95l2.56 2.56-3.59.51z"/></g><g class="key-Latvia_0"><circle cx="415" cy="350" r="1.1" fill="#e2e2e2" opacity=".7"/><path stroke-width=".42" opacity=".7" stroke="#ccc" fill="none" stroke-linecap="butt" d="M415 350h19l9 1 11-3 5 12 4 3 7 13 18-7 8-1 13 8 9-32-17 13 6 4 12-4 6 4 4 2 6-3 6 10h3l9 7"/><path cx="553" cy="377" r="1.62" fill="#e2e2e2" opacity=".7" d="M552.72 374.73l1.56 3.26-3.55-.7z"/></g><g class="key-Estonia_0"><circle cx="425" cy="349" r="1.1" fill="#e2e2e2" opacity=".7"/><path stroke-width=".42" opacity=".7" stroke="#ccc" fill="none" stroke-linecap="butt" d="M425 349h13-1v1h14l8 2 8-1 10-1 6-2 26-6 12 2 14 1 3 8-14 35 6-11 15-12 7 9 2 5 1 2-2 2 2-1 8-1"/><path cx="563" cy="381" r="1.62" fill="#e2e2e2" opacity=".7" d="M561.2 379.6l3.4 1.2-3 2z"/></g><g class="key-Trinidad-and-Tobago_0"><circle cx="439" cy="452" r="1.1" fill="#e2e2e2" opacity=".7"/><path stroke-width=".42" opacity=".7" stroke="#ccc" fill="none" stroke-linecap="butt" d="M439 452l-8 5-9-4-1-3 1-2-3-5 2-2-2-1 22-1 26-7-7-1 4 8"/><path cx="464" cy="439" r="1.62" fill="#e2e2e2" opacity=".7" d="M464.72 436.83v3.62l-2.9-2.17z"/></g><g class="key-Cyprus_0"><circle cx="537" cy="370" r="1.1" fill="#e2e2e2" opacity=".7"/><path stroke-width=".42" opacity=".7" stroke="#ccc" fill="none" stroke-linecap="butt" d="M537 370l-4 1 2-2-3-2 9-2 17-2 2-6-5 7-11 2 2 10 18 8 3 4 4-8 6-5-3 3-1 4-3 3v2l-9 8-5 3 13 1 5 2h5"/><path cx="579" cy="401" r="1.62" fill="#e2e2e2" opacity=".7" d="M577.38 399.38l3.24 1.62-3.24 1.62z"/></g><g class="key-Luxembourg_0"><circle cx="529" cy="384" r="1.1" fill="#e2e2e2" opacity=".7"/><path stroke-width=".41" opacity=".7" stroke="#ccc" fill="none" stroke-linecap="butt" d="M529 384l-5 1 8 6 13 7 7 6-20 7 7-4 1 7 6 4 5 5 1 4-5 6v5l-1 1-1 4-2-4 19 2 3 1 12-5 14 2h5l13 5v5l8-1 5 5-1-3 1-2 10 1 9 1h13l13-2-10 4-4 1-5 1h-11l29 7h-3l7-4h-4l-12 13h15-9l9 2-6 2 20-2 10-3h9"/><path cx="702" cy="469" r="1.61" fill="#e2e2e2" opacity=".7" d="M700.39 467.39l3.22 1.61-3.22 1.61z"/></g><g class="key-Malta_0"><circle cx="487" cy="277" r="1.1" fill="#e2e2e2" opacity=".7"/><path stroke-width=".41" opacity=".7" stroke="#ccc" fill="none" stroke-linecap="butt" d="M487 277h0l-1 2 18-1 5-6 5 6 26 1-16 24 2-15 6 6-8 26 16-17-3-1 7 2-1-2-1-2 5 16 1 15 2 6-2 5v8l22 3 2-17 14-2"/><path cx="586" cy="334" r="1.61" fill="#e2e2e2" opacity=".7" d="M584.18 332.63l3.41 1.14-2.96 2.05z"/></g><g class="key-Iceland_0"><circle cx="480" cy="307" r="1.1" fill="#e2e2e2" opacity=".7"/><path stroke-width=".41" opacity=".7" stroke="#ccc" fill="none" stroke-linecap="butt" d="M480 307l9 6 7 3-7 9-12 12 5 8 8 4 23 10-4 9 13 5 7 6-1 6-1 8 15 11 5 10 5 3 7 3 4 1h4-15 11-3l10 2 14 1 2-2-8 1-1 3v-1h-6v-4l3 7-1 4 2-5 14-7 5 6 8 5-3-14 6-2-2 9v8l5-1 10 2-5 2 4 6h30l-22 21-13 1v-1l3 6-1 1 1 3h3l3 4h3"/><path cx="624" cy="476" r="1.61" fill="#e2e2e2" opacity=".7" d="M622.39 474.39l3.22 1.61-3.22 1.61z"/></g><g class="key-Barbados_0"><circle cx="510" cy="433" r="1.1" fill="#e2e2e2" opacity=".7"/><path stroke-width=".41" opacity=".7" stroke="#ccc" fill="none" stroke-linecap="butt" d="M510 433v5l4-5 7-4 5-5 17-6 4-3h-12l3-2v-5l-13-2"/><path cx="525" cy="406" r="1.61" fill="#e2e2e2" opacity=".7" d="M526.35 407.84l-2.94-2.08 3.43-1.1z"/></g><g class="key-Saint-Lucia_0"><circle cx="381" cy="355" r="1.1" fill="#e2e2e2" opacity=".7"/><path stroke-width=".41" opacity=".7" stroke="#ccc" fill="none" stroke-linecap="butt" d="M381 355l10 4 8 5 2 7-2 4h7l-8-4 2-8-2-18-15 9 14-6 19 3-9-10 2 10-4-6 3 5-22-1"/><path cx="386" cy="349" r="1.61" fill="#e2e2e2" opacity=".7" d="M387.54 350.68l-3.15-1.75 3.3-1.47z"/></g><g class="key-United-States_0"><path stroke-width="1.93" opacity=".9" stroke="#E04E4B" fill="none" stroke-linecap="butt" d="M487 347l7-11 2 1 4 2-3 6 7-2 1 4 1 7-4 9 7-7 2 5 1 4 5-5 4 3 6-1 7-6 7-2 1 6 5 1h3l-1 11 3 5h6l6 1-2 7-2 8 6 1h5l6-2h3l-2 4 2 3-4 5 5-2 8-4 4-2 2 5 4-2 4-2 3-3 1 3-2 3 4 3 2-4 4-5 2-2 4-2 4-1 5-3 4-1h4v9l3 5h4l3 1 3-1 1 1-2 5-4 9 2-1 1-2 3-1 1-1 3-1 2-3 2 1 2 1"/><circle cx="487" cy="347" r="1.97" fill="#E04E4B" opacity=".9" stroke="#E04E4B" stroke-opacity=".6"/><path cx="662" cy="407" r="3.87" fill="#E04E4B" opacity=".9" d="M660.27 401.8l5.2 6.93h-8.66z"/></g><g class="key-Brazil_0"><path stroke-width="1.85" opacity=".9" stroke="#932834" fill="none" stroke-linecap="butt" d="M188 333v-2l9-2v-3l7-2 6-3 1-2 7-2 4-3 2-2 8-3h24l2-1h7l7-1h9-1l14-1 12 5 12 4 13 4 8 4 3 5 7 4v4l2 4 6 4-3 4 2 3v3l-5 3 1 2 4 3 15 3 1 3-1 2v3l-6 3 10 2 1 3h21l18 1 22 1-6 1-8 2-6 7v-7l-3 3-1 2-2 2 5 2 4 6 10 1 12-1 13-1 4 2h18l13 1 1 2 1 3-1 4-7 8h-5 1"/><circle cx="188" cy="333" r="1.93" fill="#932834" opacity=".9" stroke="#932834" stroke-opacity=".6"/><path cx="480" cy="420" r="3.7" fill="#932834" opacity=".9" d="M476.3 416.3l7.4 3.7-7.4 3.7z"/></g><g class="key-Germany_0"><path stroke-width="1.73" opacity=".9" stroke="#4C5C78" fill="none" stroke-linecap="butt" d="M336 233l13 7 11 6 10 7 10 6 17 7 8 6 7 7 3 6 10 6 11 6 4 7 4 10 2 8 8-3 6 3 2 7-2 10 7 3 9 5 6 4 4 9 5 6 7 8 2 9v10l7-3 5 5 5 5 6 3 2 5-2 5-3 3v4l2 3v6l10 4 5 6 7 2 5 6 9 6 6 7 4-3 1 6 4 2 5 2 1 5 5 2 4 2 5 4 3 7 2 2-1 3 3 2h4l6 3 3-3h8l3 1-8 12 6-4 7-1-1 5 2 3 5-1h-1l4 2 5 1"/><circle cx="336" cy="233" r="1.87" fill="#4C5C78" opacity=".9" stroke="#4C5C78" stroke-opacity=".6"/><path cx="643" cy="512" r="3.46" fill="#4C5C78" opacity=".9" d="M640.29 507.93l6.1 4.75-7.46 2.03z"/></g><g class="key-Taiwan_0"><path stroke-width="1.64" opacity=".9" stroke="#2D8587" fill="none" stroke-linecap="butt" d="M194 247l10 1h8l7 1h5l3 1h5l4 1 6 1h6l3 1h6l9 1h10l10 1 8 1h10l10 1h6l10 1h13l15 1 13 1h4l16 2 11 1 15 2 8-8 7 6 6 1 3 10 10 4h11v3h18l18-9 7 7 10 5h12l7 4 8-1 7-5 4 14 6-10 8 7 7 14 5-13 4 1 7 2-5 15 4 3 2-1 6-5 8 2 1-2 4 1-6 15-5 5 11-2 5 2v-3l3 1 6 1h1l2 18h3"/><circle cx="194" cy="247" r="1.82" fill="#2D8587" opacity=".9" stroke="#2D8587" stroke-opacity=".6"/><path cx="630" cy="347" r="3.29" fill="#2D8587" opacity=".9" d="M626.71 343.71l6.58 3.29-6.58 3.29z"/></g><text x="468.4" y="355.22" font-size="8" font-family="Arial, sans-serif" font-weight="400" fill="#fff" stroke="#fff" stroke-linecap="round" stroke-linejoin="round" stroke-width=".25em">1950</text><text x="468.4" y="355.22" font-size="8" font-family="Arial, sans-serif" font-weight="400" fill="#E04E4B">1950</text><text x="589.15" y="415.65" font-size="12.82" font-family="Arial, sans-serif" font-weight="700" fill="#fff" stroke="#fff" stroke-linecap="round" stroke-linejoin="round" stroke-width=".25em">United States</text><text x="589.15" y="415.65" font-size="12.82" font-family="Arial, sans-serif" font-weight="700" fill="#E04E4B">United States</text><text x="188" y="342" font-size="8" font-family="Arial, sans-serif" font-weight="400" fill="#fff" stroke="#fff" stroke-linecap="round" stroke-linejoin="round" stroke-width=".25em">1950</text><text x="188" y="342" font-size="8" font-family="Arial, sans-serif" font-weight="400" fill="#932834">1950</text><text x="485" y="420" font-size="12.53" font-family="Arial, sans-serif" font-weight="700" fill="#fff" stroke="#fff" stroke-linecap="round" stroke-linejoin="round" stroke-width=".25em">Brazil</text><text x="485" y="420" font-size="12.53" font-family="Arial, sans-serif" font-weight="700" fill="#932834">Brazil</text><text x="315.68" y="230.63" font-size="8" font-family="Arial, sans-serif" font-weight="400" fill="#fff" stroke="#fff" stroke-linecap="round" stroke-linejoin="round" stroke-width=".25em">1950</text><text x="315.68" y="230.63" font-size="8" font-family="Arial, sans-serif" font-weight="400" fill="#4C5C78">1950</text><text x="647.9" y="512.7" font-size="12.21" font-family="Arial, sans-serif" font-weight="700" fill="#fff" stroke="#fff" stroke-linecap="round" stroke-linejoin="round" stroke-width=".25em">Germany</text><text x="647.9" y="512.7" font-size="12.21" font-family="Arial, sans-serif" font-weight="700" fill="#4C5C78">Germany</text><text x="173.1" y="246.5" font-size="8" font-family="Arial, sans-serif" font-weight="400" fill="#fff" stroke="#fff" stroke-linecap="round" stroke-linejoin="round" stroke-width=".25em">1951</text><text x="173.1" y="246.5" font-size="8" font-family="Arial, sans-serif" font-weight="400" fill="#2D8587">1951</text><text x="635" y="347" font-size="12.06" font-family="Arial, sans-serif" font-weight="700" fill="#fff" stroke="#fff" stroke-linecap="round" stroke-linejoin="round" stroke-width=".25em">Taiwan</text><text x="635" y="347" font-size="12.06" font-family="Arial, sans-serif" font-weight="700" fill="#2D8587">Taiwan</text></g><g class="ScatterColorLegend clickable" cursor="pointer"><g class="legendMark" fill="#ccc"><path d="M738.09 109.6h9v9h-9z"/><text font-size="12.6" x="752.1" y="117.9"><tspan x="752.09" y="117.88">Africa</tspan></text></g><g class="legendMark"><path fill="#2D8587" d="M738.09 127.2h9v9h-9z"/><text font-size="12.6" x="752.1" y="135.5"><tspan x="752.09" y="135.48">Asia</tspan></text></g><g class="legendMark"><path fill="#4C5C78" d="M738.09 144.8h9v9h-9z"/><text font-size="12.6" x="752.1" y="153.1"><tspan x="752.09" y="153.08">Europe</tspan></text></g><g class="legendMark"><path fill="#E04E4B" d="M738.09 162.4h9v9h-9z"/><text font-size="12.6" x="752.1" y="170.7"><tspan x="752.09" y="170.68">North America</tspan></text></g><g class="legendMark" fill="#ccc"><path d="M738.09 180h9v9h-9z"/><text font-size="12.6" x="752.1" y="188.3"><tspan x="752.09" y="188.28">Oceania</tspan></text></g><g class="legendMark"><path fill="#932834" d="M738.09 197.6h9v9h-9z"/><text font-size="12.6" x="752.1" y="205.9"><tspan x="752.09" y="205.88">South America</tspan></text></g></g><path stroke="#ccc" d="M738.09 215.4H830"/><g class="clickable"><g class="ConnectedScatterLegend"><text font-size="12.6" x="738.1" y="234.5" fill="#333"><tspan x="738.09" y="234.48">1950</tspan></text><text font-size="12.6" x="806.8" y="234.5" fill="#333"><tspan x="806.78" y="234.48">2017</tspan></text><path stroke="#666" stroke-width="1" d="M771.32 230.2h30.46"/><circle cx="771.32" cy="230.2" r="2" fill="#666" stroke="#ccc" stroke-width=".2"/><circle cx="781.47" cy="230.2" r="2" fill="#666" stroke="#ccc" stroke-width=".2"/><circle cx="791.62" cy="230.2" r="2" fill="#666" stroke="#ccc" stroke-width=".2"/><path cx="801.78" cy="230.2" r="3" fill="#666" stroke="#ccc" stroke-width=".2" d="M798.78 227.2l6 3-6 3z"/></g></g></g><g class="SourcesFooter" fill="#777"><g class="clickable" fill="#777"><text font-size="12.6" x="15" y="581.6"><tspan x="15" y="581.58">Source: Feenstra et al. (2015) Penn World Table 9.1</tspan></text></g><text font-size="12.6" x="530.6" y="581.6"><tspan x="530.58" y="581.58"><a target="_blank" href="https://ourworldindata.org/rich-poor-countries-work" fill="#777">OurWorldInData.org/rich-poor-countries-work</a> • <a class="cclogo" href="http://creativecommons.org/licenses/by/4.0/deed.en_US" target="_blank" fill="#777">CC BY</a></tspan></text></g></svg>