<svg xmlns="http://www.w3.org/2000/svg" version="1.1" style="background-color:#fff;-webkit-font-smoothing:antialiased" width="850" height="600" viewBox="0 0 850 600" font-family="Lato,'Helvetica Neue',Helvetica,Arial,sans-serif" font-size="18" text-rendering="optimizeLegibility"><g class="HeaderView"><g transform="matrix(.29 0 0 .29 774 15)"><svg width="210" height="120" viewBox="0 0 210 120" fill="none" xmlns="http://www.w3.org/2000/svg"><g clip-path="url(#clip0)"><path d="M0 0h210v107.89H0V0z" fill="#002147"/><path d="M40.98 32.25c0 2.36-.38 4.53-1.12 6.51a14.26 14.26 0 01-8.1 8.4c-1.9.78-4.02 1.17-6.34 1.17a16.6 16.6 0 01-6.33-1.17 14.31 14.31 0 01-8.08-8.4 18.29 18.29 0 01-1.12-6.51c0-2.36.38-4.53 1.12-6.5a14.32 14.32 0 018.07-8.44c1.92-.8 4.03-1.19 6.34-1.19 2.32 0 4.43.4 6.34 1.19 1.92.8 3.56 1.9 4.93 3.34a14.87 14.87 0 013.17 5.1 18.1 18.1 0 011.12 6.5zm-4.38 0c0-1.94-.26-3.68-.8-5.22a10.91 10.91 0 00-2.24-3.89 9.68 9.68 0 00-3.52-2.46 11.95 11.95 0 00-4.62-.86c-1.68 0-3.21.28-4.6.86a9.88 9.88 0 00-3.54 2.46 10.91 10.91 0 00-2.24 3.9c-.53 1.53-.8 3.27-.8 5.2 0 1.94.27 3.68.8 5.22a11.17 11.17 0 002.24 3.9 10.01 10.01 0 003.55 2.44c1.38.56 2.9.83 4.6.83 1.7 0 3.24-.27 4.61-.83a9.8 9.8 0 003.52-2.44 11.17 11.17 0 002.25-3.9c.53-1.54.8-3.28.8-5.21zm26.22-6.54V48H60.5c-.56 0-.9-.27-1.05-.81l-.31-2.4a12.45 12.45 0 01-3.26 2.6c-1.2.64-2.58.96-4.13.96-1.22 0-2.3-.2-3.24-.6a6.52 6.52 0 01-2.33-1.7 7.37 7.37 0 01-1.43-2.67c-.3-1.04-.46-2.2-.46-3.45V25.7h3.91v14.22c0 1.68.38 2.99 1.15 3.91.77.93 1.96 1.39 3.54 1.39 1.16 0 2.24-.27 3.23-.82a10.42 10.42 0 002.8-2.28V25.7h3.91zm8.61 4.47a9.94 9.94 0 012.6-3.56 5.64 5.64 0 013.76-1.3c.47 0 .92.05 1.34.15.44.1.83.27 1.17.49l-.3 2.92c-.09.37-.3.55-.66.55-.2 0-.5-.04-.9-.13a6.21 6.21 0 00-3.24.18c-.54.2-1.03.5-1.47.92-.42.4-.81.9-1.17 1.5-.33.58-.64 1.26-.92 2.02V48H67.7V25.71h2.25c.42 0 .72.08.88.25.16.16.27.44.33.83l.26 3.39zm61.16-13.7L122.75 48h-3.82l-7.99-24.05a21.95 21.95 0 01-.42-1.58 38.36 38.36 0 01-.44 1.58L102.05 48h-3.83L88.4 16.47h3.54c.38 0 .7.1.95.29.26.2.43.43.5.73l6.52 21.9c.1.4.2.83.28 1.28.1.46.2.94.29 1.46l.3-1.46c.12-.47.25-.9.38-1.27l7.41-21.91c.1-.25.26-.48.51-.69.27-.22.58-.33.95-.33h1.23c.38 0 .69.1.92.29.24.2.41.43.53.73l7.4 21.9a28.4 28.4 0 01.68 2.62 29.52 29.52 0 01.52-2.61l6.54-21.91c.07-.27.23-.5.48-.7.27-.21.58-.32.95-.32h3.32zm9.35 8.88c1.63 0 3.1.27 4.4.82a9.43 9.43 0 015.46 5.94c.5 1.4.74 2.98.74 4.73 0 1.76-.25 3.34-.74 4.75a9.43 9.43 0 01-5.46 5.92c-1.3.52-2.77.79-4.4.79-1.64 0-3.12-.27-4.44-.8a9.42 9.42 0 01-3.35-2.3c-.92-1-1.63-2.2-2.13-3.61-.49-1.41-.73-3-.73-4.75s.24-3.33.73-4.73c.5-1.43 1.2-2.64 2.13-3.63a9.4 9.4 0 013.35-2.31c1.32-.55 2.8-.82 4.44-.82zm0 19.89c2.2 0 3.84-.73 4.93-2.2 1.08-1.48 1.63-3.54 1.63-6.18 0-2.66-.55-4.72-1.63-6.2-1.09-1.49-2.73-2.23-4.93-2.23-1.12 0-2.09.2-2.93.57a5.7 5.7 0 00-2.06 1.65 7.5 7.5 0 00-1.24 2.67c-.26 1.04-.4 2.22-.4 3.54 0 2.64.55 4.7 1.64 6.18 1.1 1.47 2.76 2.2 4.99 2.2zm17.97-15.07a9.94 9.94 0 012.6-3.56 5.64 5.64 0 013.76-1.3c.47 0 .91.05 1.34.15.44.1.83.27 1.16.49l-.28 2.92c-.09.37-.31.55-.66.55-.2 0-.5-.04-.9-.13a6.2 6.2 0 00-3.24.18c-.54.2-1.03.5-1.47.92-.43.4-.82.9-1.17 1.5a13.1 13.1 0 00-.92 2.02V48h-3.94V25.71h2.24c.43 0 .72.08.88.25.17.16.28.44.33.83l.27 3.39zm15.04-14.59V48h-3.92V15.6h3.92zm19.55 15.43a6.22 6.22 0 00-2.38-2.05 6.7 6.7 0 00-2.86-.6c-2.07 0-3.66.75-4.77 2.23-1.12 1.48-1.68 3.6-1.68 6.33 0 1.46.13 2.7.38 3.74a7.29 7.29 0 001.1 2.56 4.35 4.35 0 001.78 1.45c.7.3 1.5.46 2.4.46 1.29 0 2.41-.3 3.36-.88a9.6 9.6 0 002.67-2.49V31.02zm3.91-15.43V48h-2.33c-.56 0-.9-.27-1.06-.81l-.35-2.71a12.13 12.13 0 01-3.25 2.77 8.28 8.28 0 01-4.23 1.06 7.31 7.31 0 01-6.14-2.9c-.73-.96-1.3-2.15-1.69-3.57a18.35 18.35 0 01.07-9.48 11.29 11.29 0 011.89-3.7 8.7 8.7 0 017.06-3.34 7.96 7.96 0 016.12 2.62V15.59h3.91zM46.61 70.71V93H42.7V70.71h3.91zm.84-7c0 .39-.08.75-.24 1.09a2.81 2.81 0 01-1.52 1.47 2.67 2.67 0 01-2.16 0 2.9 2.9 0 01-1.45-1.47 2.67 2.67 0 010-2.16c.15-.35.35-.65.6-.9.25-.27.53-.47.85-.62a2.67 2.67 0 012.16 0c.35.15.65.35.9.62.27.25.47.55.62.9.16.34.24.7.24 1.08zm7.97 10.24c.49-.54 1-1.04 1.54-1.48a9.85 9.85 0 013.66-1.84 8.96 8.96 0 015.43.35c.94.4 1.72.97 2.33 1.71a7.36 7.36 0 011.43 2.67c.32 1.04.49 2.19.49 3.45V93h-3.94V78.81c0-1.69-.4-3-1.17-3.92-.76-.93-1.93-1.4-3.5-1.4a6.6 6.6 0 00-3.25.83c-1 .56-1.92 1.31-2.77 2.27V93h-3.94V70.71h2.35c.56 0 .9.28 1.04.82l.3 2.42zm57.7 3.3c0 2.36-.37 4.5-1.11 6.44a14.3 14.3 0 01-3.17 4.98 14.1 14.1 0 01-4.93 3.2c-1.9.76-4.02 1.13-6.33 1.13H85.8V61.47h11.77c2.31 0 4.42.39 6.33 1.15a13.8 13.8 0 018.1 8.18 17.75 17.75 0 011.12 6.45zm-4.37 0c0-1.94-.26-3.67-.8-5.2a10.94 10.94 0 00-2.23-3.87 9.57 9.57 0 00-3.53-2.42 12.23 12.23 0 00-4.61-.83h-7.5v24.62h7.5c1.7 0 3.24-.28 4.61-.84a9.7 9.7 0 003.53-2.4 10.94 10.94 0 002.24-3.87c.53-1.53.8-3.26.8-5.2zm19.8 5.72c-1.8.06-3.34.2-4.62.44-1.26.22-2.3.51-3.1.88-.8.36-1.37.8-1.74 1.3-.35.5-.53 1.05-.53 1.67 0 .58.1 1.1.3 1.52a3 3 0 00.76 1.05c.34.27.73.46 1.17.6.45.11.94.17 1.45.17a7.28 7.28 0 003.5-.81 11.95 11.95 0 002.82-2.2v-4.62zm-12.65-9.11a12.73 12.73 0 013.98-2.66c1.43-.59 3-.88 4.73-.88 1.25 0 2.36.2 3.33.61a6.81 6.81 0 013.94 4.38c.33 1.04.5 2.19.5 3.43V93h-1.74a1.8 1.8 0 01-.88-.18c-.2-.13-.36-.38-.48-.74l-.44-2.12c-.59.55-1.16 1.03-1.72 1.46a9.48 9.48 0 01-3.74 1.7c-.69.15-1.46.23-2.3.23-.87 0-1.69-.12-2.45-.35a5.34 5.34 0 01-3.34-2.93 6.64 6.64 0 01-.49-2.64c0-.88.25-1.72.73-2.53a6.33 6.33 0 012.35-2.17c1.09-.63 2.5-1.15 4.25-1.54 1.75-.41 3.89-.65 6.42-.7v-1.75c0-1.73-.37-3.03-1.12-3.91-.75-.9-1.84-1.34-3.28-1.34-.97 0-1.78.12-2.44.37-.64.23-1.2.5-1.7.81l-1.23.82c-.33.23-.67.35-1 .35-.27 0-.5-.07-.69-.2a2.1 2.1 0 01-.48-.53l-.7-1.25zm27.67 19.5c-1.76 0-3.12-.5-4.07-1.48-.94-.98-1.41-2.4-1.41-4.25V74h-2.68a.9.9 0 01-.6-.2c-.16-.14-.24-.36-.24-.66v-1.56l3.65-.46.9-6.89a.9.9 0 01.29-.52.88.88 0 01.62-.22H142v7.67h6.44V74H142v13.38c0 .94.22 1.63.68 2.09.45.45 1.04.68 1.76.68a3.21 3.21 0 001.85-.53l.55-.35c.16-.12.3-.18.41-.18.2 0 .4.13.55.38l1.15 1.87a7.45 7.45 0 01-2.44 1.5c-.96.35-1.94.52-2.95.52zm19.68-10.4c-1.8.07-3.34.21-4.62.45-1.26.22-2.3.51-3.1.88-.8.36-1.37.8-1.74 1.3-.35.5-.53 1.05-.53 1.67 0 .58.1 1.1.3 1.52.18.42.44.77.76 1.05.34.27.73.46 1.17.6.45.11.94.17 1.45.17a7.3 7.3 0 003.5-.81 12.04 12.04 0 002.82-2.2v-4.62zm-12.65-9.1a12.72 12.72 0 013.99-2.66c1.42-.59 3-.88 4.72-.88 1.25 0 2.36.2 3.33.61a6.81 6.81 0 013.94 4.38c.33 1.04.5 2.19.5 3.43V93h-1.74a1.8 1.8 0 01-.88-.18c-.2-.13-.36-.38-.48-.74l-.44-2.12c-.59.55-1.16 1.03-1.72 1.46a9.48 9.48 0 01-3.74 1.7c-.69.15-1.46.23-2.3.23-.87 0-1.69-.12-2.45-.35a5.33 5.33 0 01-3.34-2.93 6.62 6.62 0 01-.49-2.64c0-.88.25-1.72.73-2.53a6.33 6.33 0 012.35-2.17c1.09-.63 2.5-1.15 4.25-1.54a31.2 31.2 0 016.42-.7v-1.75c0-1.73-.37-3.03-1.12-3.91-.75-.9-1.84-1.34-3.28-1.34-.97 0-1.78.12-2.44.37-.64.23-1.2.5-1.7.81-.46.3-.87.57-1.22.82-.34.23-.68.35-1.02.35-.26 0-.49-.07-.68-.2a1.88 1.88 0 01-.48-.53l-.7-1.25z" fill="#fff"/><path fill="#D42B21" d="M0 106.79h210V120H0z"/></g><defs><clipPath id="clip0"><path fill="#fff" d="M0 0h210v120H0z"/></clipPath></defs></svg></g><a href="https://ourworldindata.org/grapher/child-mortality-vs-population-growth?tab=chart&amp;country=&amp;region=World" target="_blank" rel="noopener" font-family="&quot;Playfair Display&quot;,Georgia,&quot;Times New Roman&quot;,serif"><text font-size="25.2" x="15" y="35.2" fill="#555"><tspan x="15" y="35.16">Population growth rate vs Child mortality rate, 2019</tspan></text></a><text font-size="14.4" x="15" y="55.7" fill="#666"><tspan x="15" y="55.72">The child mortality rate measures the share of children that are born alive and die before they are five years old. </tspan><tspan x="15" y="73"> The rate of natural population increase is determined by births and deaths only and migration flows are not taken</tspan><tspan x="15" y="90.28">into account.</tspan></text></g><g class="ScatterPlot"><g class="DualAxisView"><g class="HorizontalAxis"><text font-size="12.6" x="326.6" y="554"><tspan x="326.6" y="553.98">Child mortality</tspan></text><text x="66.1" y="533.9" fill="#666" text-anchor="middle" font-size="16.2">0%</text><text x="175.6" y="533.9" fill="#666" text-anchor="middle" font-size="16.2">2%</text><text x="285.2" y="533.9" fill="#666" text-anchor="middle" font-size="16.2">4%</text><text x="394.7" y="533.9" fill="#666" text-anchor="middle" font-size="16.2">6%</text><text x="504.2" y="533.9" fill="#666" text-anchor="middle" font-size="16.2">8%</text><text x="613.8" y="533.9" fill="#666" text-anchor="middle" font-size="16.2">10%</text></g><g class="VerticalAxis"><text font-size="12.6" x="-453.9" y="25.1" transform="rotate(-90)"><tspan x="-453.87" y="25.08">Annual Rate of Natural Population Increase</tspan></text><text x="61.09" y="452.1" fill="#666" dominant-baseline="middle" text-anchor="end" font-size="16.2">0%</text><text x="61.09" y="360.6" fill="#666" dominant-baseline="middle" text-anchor="end" font-size="16.2">1%</text><text x="61.09" y="269" fill="#666" dominant-baseline="middle" text-anchor="end" font-size="16.2">2%</text><text x="61.09" y="177.4" fill="#666" dominant-baseline="middle" text-anchor="end" font-size="16.2">3%</text></g><g class="AxisGridLines horizontalLines"><path stroke="#ccc" d="M66.09 452.1h652"/><path stroke="#d3d3d3" stroke-dasharray="3,2" d="M66.09 360.6h652M66.09 269h652M66.09 177.4h652"/></g><g class="AxisGridLines verticalLines"><path stroke="#ccc" d="M66.1 512.7V107.8"/><path stroke="#d3d3d3" stroke-dasharray="3,2" d="M175.6 512.7V107.8M285.2 512.7V107.8M394.7 512.7V107.8M504.2 512.7V107.8M613.8 512.7V107.8"/></g></g><g class="PointsWithLabels clickable" clip-path="url(#a)" font-family="Arial, sans-serif"><path fill="rgba(255,255,255,0)" d="M66.09 107.8h652v404.9h-652z"/><defs><clipPath id="a"><path d="M56.09 97.8h672v424.9h-672z"/></clipPath></defs><g class="key-China_0"><circle cx="125" cy="413" r="17.84" fill="#2D8587" opacity=".8" stroke="#333" stroke-width=".5"/></g><g class="key-India_0"><circle cx="269" cy="357" r="17.42" fill="#2D8587" opacity=".8" stroke="#333" stroke-width=".5"/></g><g class="key-United-States_0"><circle cx="104" cy="423" r="8.69" fill="#E04E4B" opacity=".8" stroke="#333" stroke-width=".5"/></g><g class="key-Indonesia_0"><circle cx="195" cy="349" r="7.92" fill="#2D8587" opacity=".8" stroke="#333" stroke-width=".5"/></g><g class="key-Pakistan_0"><circle cx="464" cy="260" r="7.13" fill="#2D8587" opacity=".8" stroke="#333" stroke-width=".5"/></g><g class="key-Brazil_0"><circle cx="145" cy="386" r="7.04" fill="#932834" opacity=".8" stroke="#666" stroke-width=".5"/></g><g class="key-Nigeria_0"><circle cx="600" cy="215" r="6.88" fill="#923E8B" opacity=".8" stroke="#333" stroke-width=".5"/></g><g class="key-Bangladesh_0"><circle cx="231" cy="339" r="6.25" fill="#2D8587" opacity=".8" stroke="#666" stroke-width=".5"/></g><g class="key-Russia_0"><circle cx="102" cy="455" r="5.94" fill="#4C5C78" opacity=".8" stroke="#333" stroke-width=".5"/></g><g class="key-Mexico_0"><circle cx="149" cy="349" r="5.59" fill="#E04E4B" opacity=".8" stroke="#333" stroke-width=".5"/></g><g class="key-Japan_0"><circle cx="79" cy="483" r="5.57" fill="#2D8587" opacity=".8" stroke="#333" stroke-width=".5"/></g><g class="key-Ethiopia_0"><circle cx="346" cy="218" r="5.27" fill="#923E8B" opacity=".8" stroke="#333" stroke-width=".5"/></g><g class="key-Philippines_0"><circle cx="212" cy="321" r="5.19" fill="#2D8587" opacity=".8" stroke="#333" stroke-width=".5"/></g><g class="key-Egypt_0"><circle cx="169" cy="269" r="5.02" fill="#923E8B" opacity=".8" stroke="#333" stroke-width=".5"/></g><g class="key-Vietnam_0"><circle cx="178" cy="359" r="4.94" fill="#2D8587" opacity=".8" stroke="#666" stroke-width=".5"/></g><g class="key-Democratic-Republic-of-Congo_0"><circle cx="598" cy="165" r="4.72" fill="#923E8B" opacity=".8" stroke="#333" stroke-width=".5"/></g><g class="key-Germany_0"><circle cx="84" cy="469" r="4.64" fill="#4C5C78" opacity=".8" stroke="#666" stroke-width=".5"/></g><g class="key-Turkey_0"><circle cx="133" cy="357" r="4.64" fill="#2D8587" opacity=".8" stroke="#666" stroke-width=".5"/></g><g class="key-Iran_0"><circle cx="143" cy="327" r="4.63" fill="#2D8587" opacity=".8" stroke="#333" stroke-width=".5"/></g><g class="key-Thailand_0"><circle cx="112" cy="430" r="4.3" fill="#2D8587" opacity=".8" stroke="#666" stroke-width=".5"/></g><g class="key-United-Kingdom_0"><circle cx="89" cy="433" r="4.25" fill="#4C5C78" opacity=".8" stroke="#666" stroke-width=".5"/></g><g class="key-France_0"><circle cx="85" cy="436" r="4.18" fill="#4C5C78" opacity=".8" stroke="#666" stroke-width=".5"/></g><g class="key-Italy_0"><circle cx="82" cy="481" r="4.06" fill="#4C5C78" opacity=".8" stroke="#666" stroke-width=".5"/></g><g class="key-South-Africa_0"><circle cx="249" cy="353" r="4.01" fill="#923E8B" opacity=".8" stroke="#666" stroke-width=".5"/></g><g class="key-Tanzania_0"><circle cx="359" cy="176" r="3.99" fill="#923E8B" opacity=".8" stroke="#333" stroke-width=".5"/></g><g class="key-Myanmar_0"><circle cx="317" cy="368" r="3.88" fill="#2D8587" opacity=".8" stroke="#333" stroke-width=".5"/></g><g class="key-Kenya_0"><circle cx="312" cy="242" r="3.84" fill="#923E8B" opacity=".8" stroke="#333" stroke-width=".5"/></g><g class="key-South-Korea_0"><circle cx="79" cy="443" r="3.8" fill="#2D8587" opacity=".8" stroke="#666" stroke-width=".5"/></g><g class="key-Colombia_0"><circle cx="143" cy="369" r="3.77" fill="#932834" opacity=".8" stroke="#333" stroke-width=".5"/></g><g class="key-Spain_0"><circle cx="80" cy="460" r="3.67" fill="#4C5C78" opacity=".8" stroke="#666" stroke-width=".5"/></g><g class="key-Argentina_0"><circle cx="128" cy="367" r="3.61" fill="#932834" opacity=".8" stroke="#666" stroke-width=".5"/></g><g class="key-Uganda_0"><circle cx="390" cy="168" r="3.59" fill="#923E8B" opacity=".8" stroke="#666" stroke-width=".5"/></g><g class="key-Ukraine_0"><circle cx="110" cy="506" r="3.58" fill="#4C5C78" opacity=".8" stroke="#333" stroke-width=".5"/></g><g class="key-Algeria_0"><circle cx="195" cy="279" r="3.56" fill="#923E8B" opacity=".8" stroke="#666" stroke-width=".5"/></g><g class="key-Sudan_0"><circle cx="404" cy="225" r="3.55" fill="#923E8B" opacity=".8" stroke="#333" stroke-width=".5"/></g><g class="key-Iraq_0"><circle cx="214" cy="234" r="3.44" fill="#2D8587" opacity=".8" stroke="#333" stroke-width=".5"/></g><g class="key-Afghanistan_0"><circle cx="417" cy="218" r="3.4" fill="#2D8587" opacity=".8" stroke="#666" stroke-width=".5"/></g><g class="key-Poland_0"><circle cx="86" cy="457" r="3.39" fill="#4C5C78" opacity=".8" stroke="#666" stroke-width=".5"/></g><g class="key-Canada_0"><circle cx="93" cy="428" r="3.38" fill="#E04E4B" opacity=".8" stroke="#666" stroke-width=".5"/></g><g class="key-Morocco_0"><circle cx="186" cy="329" r="3.35" fill="#923E8B" opacity=".8" stroke="#666" stroke-width=".5"/></g><g class="key-Saudi-Arabia_0"><circle cx="103" cy="325" r="3.27" fill="#2D8587" opacity=".8" stroke="#666" stroke-width=".5"/></g><g class="key-Uzbekistan_0"><circle cx="200" cy="313" r="3.23" fill="#2D8587" opacity=".8" stroke="#666" stroke-width=".5"/></g><g class="key-Peru_0"><circle cx="150" cy="340" r="3.21" fill="#932834" opacity=".8" stroke="#666" stroke-width=".5"/></g><g class="key-Malaysia_0"><circle cx="102" cy="347" r="3.19" fill="#2D8587" opacity=".8" stroke="#666" stroke-width=".5"/></g><g class="key-Angola_0"><circle cx="485" cy="156" r="3.19" fill="#923E8B" opacity=".8" stroke="#666" stroke-width=".5"/></g><g class="key-Ghana_0"><circle cx="334" cy="252" r="3.14" fill="#923E8B" opacity=".8" stroke="#666" stroke-width=".5"/></g><g class="key-Mozambique_0"><circle cx="444" cy="187" r="3.14" fill="#923E8B" opacity=".8" stroke="#333" stroke-width=".5"/></g><g class="key-Yemen_0"><circle cx="367" cy="233" r="3.1" fill="#2D8587" opacity=".8" stroke="#666" stroke-width=".5"/></g><g class="key-Nepal_0"><circle cx="238" cy="330" r="3.08" fill="#2D8587" opacity=".8" stroke="#666" stroke-width=".5"/></g><g class="key-Venezuela_0"><circle cx="238" cy="356" r="3.07" fill="#932834" opacity=".8" stroke="#666" stroke-width=".5"/></g><g class="key-Madagascar_0"><circle cx="286" cy="209" r="3.02" fill="#923E8B" opacity=".8" stroke="#666" stroke-width=".5"/></g><g class="key-Cameroon_0"><circle cx="530" cy="215" r="2.98" fill="#923E8B" opacity=".8" stroke="#333" stroke-width=".5"/></g><g class="key-Cote-d__0027Ivoire_0"><circle cx="524" cy="217" r="2.97" fill="#923E8B" opacity=".8" stroke="#666" stroke-width=".5"/></g><g class="key-North-Korea_0"><circle cx="159" cy="409" r="2.97" fill="#2D8587" opacity=".8" stroke="#666" stroke-width=".5"/></g><g class="key-Australia_0"><circle cx="85" cy="396" r="2.95" fill="#A8633C" opacity=".8" stroke="#666" stroke-width=".5"/></g><g class="key-Taiwan_0"><circle cx="90" cy="445" r="2.9" fill="#2D8587" opacity=".8" stroke="#666" stroke-width=".5"/></g><g class="key-Niger_0"><circle cx="503" cy="107" r="2.88" fill="#923E8B" opacity=".8" stroke="#333" stroke-width=".5"/></g><g class="key-Sri-Lanka_0"><circle cx="110" cy="371" r="2.8" fill="#2D8587" opacity=".8" stroke="#666" stroke-width=".5"/></g><g class="key-Burkina-Faso_0"><circle cx="498" cy="181" r="2.77" fill="#923E8B" opacity=".8" stroke="#666" stroke-width=".5"/></g><g class="key-Mali_0"><circle cx="618" cy="162" r="2.74" fill="#923E8B" opacity=".8" stroke="#333" stroke-width=".5"/></g><g class="key-Romania_0"><circle cx="107" cy="484" r="2.73" fill="#4C5C78" opacity=".8" stroke="#666" stroke-width=".5"/></g><g class="key-Chile_0"><circle cx="107" cy="397" r="2.71" fill="#932834" opacity=".8" stroke="#666" stroke-width=".5"/></g><g class="key-Malawi_0"><circle cx="346" cy="202" r="2.7" fill="#923E8B" opacity=".8" stroke="#666" stroke-width=".5"/></g><g class="key-Kazakhstan_0"><circle cx="115" cy="330" r="2.69" fill="#2D8587" opacity=".8" stroke="#666" stroke-width=".5"/></g><g class="key-Zambia_0"><circle cx="382" cy="182" r="2.67" fill="#923E8B" opacity=".8" stroke="#666" stroke-width=".5"/></g><g class="key-Guatemala_0"><circle cx="201" cy="273" r="2.65" fill="#E04E4B" opacity=".8" stroke="#666" stroke-width=".5"/></g><g class="key-Ecuador_0"><circle cx="151" cy="320" r="2.65" fill="#932834" opacity=".8" stroke="#666" stroke-width=".5"/></g><g class="key-Netherlands_0"><circle cx="81" cy="440" r="2.63" fill="#4C5C78" opacity=".8" stroke="#666" stroke-width=".5"/></g><g class="key-Syria_0"><circle cx="156" cy="286" r="2.63" fill="#2D8587" opacity=".8" stroke="#333" stroke-width=".5"/></g><g class="key-Cambodia_0"><circle cx="206" cy="305" r="2.61" fill="#2D8587" opacity=".8" stroke="#666" stroke-width=".5"/></g><g class="key-Senegal_0"><circle cx="294" cy="192" r="2.6" fill="#923E8B" opacity=".8" stroke="#333" stroke-width=".5"/></g><g class="key-Chad_0"><circle cx="718" cy="179" r="2.59" fill="#923E8B" opacity=".8" stroke="#333" stroke-width=".5"/></g><g class="key-Somalia_0"><circle cx="676" cy="169" r="2.56" fill="#923E8B" opacity=".8" stroke="#666" stroke-width=".5"/></g><g class="key-Zimbabwe_0"><circle cx="331" cy="250" r="2.53" fill="#923E8B" opacity=".8" stroke="#666" stroke-width=".5"/></g><g class="key-Guinea_0"><circle cx="487" cy="198" r="2.45" fill="#923E8B" opacity=".8" stroke="#666" stroke-width=".5"/></g><g class="key-Rwanda_0"><circle cx="257" cy="212" r="2.44" fill="#923E8B" opacity=".8" stroke="#333" stroke-width=".5"/></g><g class="key-Benin_0"><circle cx="571" cy="203" r="2.4" fill="#923E8B" opacity=".8" stroke="#666" stroke-width=".5"/></g><g class="key-Tunisia_0"><circle cx="135" cy="353" r="2.4" fill="#923E8B" opacity=".8" stroke="#666" stroke-width=".5"/></g><g class="key-Belgium_0"><circle cx="84" cy="443" r="2.39" fill="#4C5C78" opacity=".8" stroke="#666" stroke-width=".5"/></g><g class="key-Burundi_0"><circle cx="390" cy="171" r="2.39" fill="#923E8B" opacity=".8" stroke="#666" stroke-width=".5"/></g><g class="key-Bolivia_0"><circle cx="320" cy="317" r="2.39" fill="#932834" opacity=".8" stroke="#333" stroke-width=".5"/></g><g class="key-Cuba_0"><circle cx="95" cy="444" r="2.38" fill="#E04E4B" opacity=".8" stroke="#666" stroke-width=".5"/></g><g class="key-Haiti_0"><circle cx="494" cy="310" r="2.38" fill="#E04E4B" opacity=".8" stroke="#333" stroke-width=".5"/></g><g class="key-South-Sudan_0"><circle cx="591" cy="229" r="2.37" fill="#923E8B" opacity=".8" stroke="#333" stroke-width=".5"/></g><g class="key-Dominican-Republic_0"><circle cx="219" cy="333" r="2.35" fill="#E04E4B" opacity=".8" stroke="#666" stroke-width=".5"/></g><g class="key-Czechia_0"><circle cx="80" cy="455" r="2.35" fill="#4C5C78" opacity=".8" stroke="#666" stroke-width=".5"/></g><g class="key-Greece_0"><circle cx="84" cy="484" r="2.34" fill="#4C5C78" opacity=".8" stroke="#666" stroke-width=".5"/></g><g class="key-Portugal_0"><circle cx="83" cy="479" r="2.33" fill="#4C5C78" opacity=".8" stroke="#666" stroke-width=".5"/></g><g class="key-Jordan_0"><circle cx="155" cy="291" r="2.32" fill="#2D8587" opacity=".8" stroke="#666" stroke-width=".5"/></g><g class="key-Azerbaijan_0"><circle cx="197" cy="366" r="2.32" fill="#2D8587" opacity=".8" stroke="#333" stroke-width=".5"/></g><g class="key-Sweden_0"><circle cx="78" cy="426" r="2.32" fill="#4C5C78" opacity=".8" stroke="#666" stroke-width=".5"/></g><g class="key-United-Arab-Emirates_0"><circle cx="99" cy="372" r="2.31" fill="#2D8587" opacity=".8" stroke="#666" stroke-width=".5"/></g><g class="key-Honduras_0"><circle cx="177" cy="297" r="2.31" fill="#E04E4B" opacity=".8" stroke="#666" stroke-width=".5"/></g><g class="key-Hungary_0"><circle cx="90" cy="481" r="2.3" fill="#4C5C78" opacity=".8" stroke="#666" stroke-width=".5"/></g><g class="key-Belarus_0"><circle cx="85" cy="460" r="2.29" fill="#4C5C78" opacity=".8" stroke="#666" stroke-width=".5"/></g><g class="key-Tajikistan_0"><circle cx="232" cy="220" r="2.29" fill="#2D8587" opacity=".8" stroke="#666" stroke-width=".5"/></g><g class="key-Austria_0"><circle cx="84" cy="451" r="2.27" fill="#4C5C78" opacity=".8" stroke="#666" stroke-width=".5"/></g><g class="key-Papua-New-Guinea_0"><circle cx="344" cy="274" r="2.26" fill="#A8633C" opacity=".8" stroke="#333" stroke-width=".5"/></g><g class="key-Serbia_0"><circle cx="95" cy="486" r="2.26" fill="#4C5C78" opacity=".8" stroke="#666" stroke-width=".5"/></g><g class="key-Switzerland_0"><circle cx="86" cy="431" r="2.25" fill="#4C5C78" opacity=".8" stroke="#666" stroke-width=".5"/></g><g class="key-Israel_0"><circle cx="83" cy="317" r="2.25" fill="#2D8587" opacity=".8" stroke="#333" stroke-width=".5"/></g><g class="key-Togo_0"><circle cx="461" cy="228" r="2.23" fill="#923E8B" opacity=".8" stroke="#333" stroke-width=".5"/></g><g class="key-Sierra-Leone_0"><circle cx="641" cy="256" r="2.21" fill="#923E8B" opacity=".8" stroke="#333" stroke-width=".5"/></g><g class="key-Hong-Kong_0"><circle cx="77" cy="412" r="2.19" fill="#2D8587" opacity=".8" stroke="#666" stroke-width=".5"/></g><g class="key-Laos_0"><circle cx="315" cy="298" r="2.18" fill="#2D8587" opacity=".8" stroke="#333" stroke-width=".5"/></g><g class="key-Paraguay_0"><circle cx="180" cy="316" r="2.17" fill="#932834" opacity=".8" stroke="#666" stroke-width=".5"/></g><g class="key-Bulgaria_0"><circle cx="104" cy="512" r="2.17" fill="#4C5C78" opacity=".8" stroke="#666" stroke-width=".5"/></g><g class="key-Lebanon_0"><circle cx="125" cy="333" r="2.16" fill="#2D8587" opacity=".8" stroke="#666" stroke-width=".5"/></g><g class="key-Libya_0"><circle cx="131" cy="331" r="2.16" fill="#923E8B" opacity=".8" stroke="#666" stroke-width=".5"/></g><g class="key-Nicaragua_0"><circle cx="171" cy="313" r="2.15" fill="#E04E4B" opacity=".8" stroke="#666" stroke-width=".5"/></g><g class="key-El-Salvador_0"><circle cx="153" cy="351" r="2.14" fill="#E04E4B" opacity=".8" stroke="#666" stroke-width=".5"/></g><g class="key-Kyrgyzstan_0"><circle cx="160" cy="287" r="2.14" fill="#2D8587" opacity=".8" stroke="#666" stroke-width=".5"/></g><g class="key-Turkmenistan_0"><circle cx="340" cy="305" r="2.12" fill="#2D8587" opacity=".8" stroke="#666" stroke-width=".5"/></g><g class="key-Singapore_0"><circle cx="76" cy="415" r="2.11" fill="#2D8587" opacity=".8" stroke="#666" stroke-width=".5"/></g><g class="key-Denmark_0"><circle cx="85" cy="442" r="2.11" fill="#4C5C78" opacity=".8" stroke="#666" stroke-width=".5"/></g><g class="key-Finland_0"><circle cx="77" cy="459" r="2.1" fill="#4C5C78" opacity=".8" stroke="#666" stroke-width=".5"/></g><g class="key-Slovakia_0"><circle cx="95" cy="449" r="2.09" fill="#4C5C78" opacity=".8" stroke="#666" stroke-width=".5"/></g><g class="key-Congo_0"><circle cx="314" cy="216" r="2.09" fill="#923E8B" opacity=".8" stroke="#666" stroke-width=".5"/></g><g class="key-Norway_0"><circle cx="78" cy="423" r="2.09" fill="#4C5C78" opacity=".8" stroke="#666" stroke-width=".5"/></g><g class="key-Costa-Rica_0"><circle cx="113" cy="374" r="2.07" fill="#E04E4B" opacity=".8" stroke="#666" stroke-width=".5"/></g><g class="key-Palestine_0"><circle cx="174" cy="220" r="2.07" fill="#2D8587" opacity=".8" stroke="#666" stroke-width=".5"/></g><g class="key-Oman_0"><circle cx="109" cy="304" r="2.07" fill="#2D8587" opacity=".8" stroke="#666" stroke-width=".5"/></g><g class="key-Liberia_0"><circle cx="453" cy="220" r="2.07" fill="#923E8B" opacity=".8" stroke="#666" stroke-width=".5"/></g><g class="key-Ireland_0"><circle cx="81" cy="394" r="2.06" fill="#4C5C78" opacity=".8" stroke="#333" stroke-width=".5"/></g><g class="key-New-Zealand_0"><circle cx="90" cy="402" r="2.06" fill="#A8633C" opacity=".8" stroke="#666" stroke-width=".5"/></g><g class="key-Central-African-Republic_0"><circle cx="705" cy="240" r="2.05" fill="#923E8B" opacity=".8" stroke="#666" stroke-width=".5"/></g><g class="key-Mauritania_0"><circle cx="483" cy="212" r="2.04" fill="#923E8B" opacity=".8" stroke="#666" stroke-width=".5"/></g><g class="key-Panama_0"><circle cx="164" cy="327" r="2.03" fill="#E04E4B" opacity=".8" stroke="#666" stroke-width=".5"/></g><g class="key-Kuwait_0"><circle cx="109" cy="356" r="2.03" fill="#2D8587" opacity=".8" stroke="#666" stroke-width=".5"/></g><g class="key-Croatia_0"><circle cx="90" cy="493" r="2.02" fill="#4C5C78" opacity=".8" stroke="#666" stroke-width=".5"/></g><g class="key-Moldova_0"><circle cx="141" cy="468" r="2.02" fill="#4C5C78" opacity=".8" stroke="#666" stroke-width=".5"/></g><g class="key-Georgia_0"><circle cx="118" cy="448" r="2.01" fill="#2D8587" opacity=".8" stroke="#666" stroke-width=".5"/></g><g class="key-Eritrea_0"><circle cx="290" cy="244" r="1.99" fill="#923E8B" opacity=".8" stroke="#666" stroke-width=".5"/></g><g class="key-Uruguay_0"><circle cx="120" cy="413" r="1.99" fill="#932834" opacity=".8" stroke="#666" stroke-width=".5"/></g><g class="key-Bosnia-and-Herzegovina_0"><circle cx="101" cy="479" r="1.98" fill="#4C5C78" opacity=".8" stroke="#666" stroke-width=".5"/></g><g class="key-Mongolia_0"><circle cx="180" cy="296" r="1.97" fill="#2D8587" opacity=".8" stroke="#666" stroke-width=".5"/></g><g class="key-Armenia_0"><circle cx="134" cy="417" r="1.96" fill="#2D8587" opacity=".8" stroke="#666" stroke-width=".5"/></g><g class="key-Jamaica_0"><circle cx="145" cy="376" r="1.96" fill="#E04E4B" opacity=".8" stroke="#666" stroke-width=".5"/></g><g class="key-Puerto-Rico_0"><circle cx="97" cy="477" r="1.96" fill="#E04E4B" opacity=".8" stroke="#666" stroke-width=".5"/></g><g class="key-Albania_0"><circle cx="126" cy="419" r="1.95" fill="#4C5C78" opacity=".8" stroke="#666" stroke-width=".5"/></g><g class="key-Qatar_0"><circle cx="105" cy="377" r="1.95" fill="#2D8587" opacity=".8" stroke="#666" stroke-width=".5"/></g><g class="key-Lithuania_0"><circle cx="91" cy="484" r="1.95" fill="#4C5C78" opacity=".8" stroke="#666" stroke-width=".5"/></g><g class="key-Namibia_0"><circle cx="295" cy="266" r="1.93" fill="#923E8B" opacity=".8" stroke="#333" stroke-width=".5"/></g><g class="key-Gambia_0"><circle cx="420" cy="174" r="1.92" fill="#923E8B" opacity=".8" stroke="#666" stroke-width=".5"/></g><g class="key-Botswana_0"><circle cx="265" cy="282" r="1.92" fill="#923E8B" opacity=".8" stroke="#666" stroke-width=".5"/></g><g class="key-Gabon_0"><circle cx="317" cy="229" r="1.91" fill="#923E8B" opacity=".8" stroke="#666" stroke-width=".5"/></g><g class="key-Lesotho_0"><circle cx="515" cy="337" r="1.91" fill="#923E8B" opacity=".8" stroke="#333" stroke-width=".5"/></g><g class="key-North-Macedonia_0"><circle cx="128" cy="447" r="1.91" fill="#4C5C78" opacity=".8" stroke="#666" stroke-width=".5"/></g><g class="key-Slovenia_0"><circle cx="77" cy="457" r="1.91" fill="#4C5C78" opacity=".8" stroke="#666" stroke-width=".5"/></g><g class="key-Guinea__002dBissau_0"><circle cx="497" cy="222" r="1.9" fill="#923E8B" opacity=".8" stroke="#666" stroke-width=".5"/></g><g class="key-Latvia_0"><circle cx="94" cy="490" r="1.9" fill="#4C5C78" opacity=".8" stroke="#666" stroke-width=".5"/></g><g class="key-Bahrain_0"><circle cx="105" cy="349" r="1.88" fill="#2D8587" opacity=".8" stroke="#666" stroke-width=".5"/></g><g class="key-Trinidad-and-Tobago_0"><circle cx="203" cy="414" r="1.87" fill="#E04E4B" opacity=".8" stroke="#333" stroke-width=".5"/></g><g class="key-Equatorial-Guinea_0"><circle cx="559" cy="235" r="1.86" fill="#923E8B" opacity=".8" stroke="#666" stroke-width=".5"/></g><g class="key-Estonia_0"><circle cx="79" cy="466" r="1.86" fill="#4C5C78" opacity=".8" stroke="#666" stroke-width=".5"/></g><g class="key-Timor_0"><circle cx="308" cy="238" r="1.86" fill="#2D8587" opacity=".8" stroke="#666" stroke-width=".5"/></g><g class="key-Mauritius_0"><circle cx="135" cy="438" r="1.86" fill="#923E8B" opacity=".8" stroke="#666" stroke-width=".5"/></g><g class="key-Cyprus_0"><circle cx="88" cy="423" r="1.86" fill="#4C5C78" opacity=".8" stroke="#666" stroke-width=".5"/></g><g class="key-Eswatini_0"><circle cx="345" cy="298" r="1.85" fill="#923E8B" opacity=".8" stroke="#666" stroke-width=".5"/></g><g class="key-Djibouti_0"><circle cx="327" cy="323" r="1.84" fill="#923E8B" opacity=".8" stroke="#666" stroke-width=".5"/></g><g class="key-Fiji_0"><circle cx="197" cy="335" r="1.84" fill="#A8633C" opacity=".8" stroke="#666" stroke-width=".5"/></g><g class="key-Reunion_0"><circle cx="81" cy="376" r="1.84" fill="#923E8B" opacity=".8" stroke="#333" stroke-width=".5"/></g><g class="key-Comoros_0"><circle cx="437" cy="229" r="1.83" fill="#923E8B" opacity=".8" stroke="#666" stroke-width=".5"/></g><g class="key-Guyana_0"><circle cx="237" cy="340" r="1.83" fill="#932834" opacity=".8" stroke="#666" stroke-width=".5"/></g><g class="key-Bhutan_0"><circle cx="217" cy="353" r="1.83" fill="#2D8587" opacity=".8" stroke="#666" stroke-width=".5"/></g><g class="key-Solomon-Islands_0"><circle cx="172" cy="198" r="1.82" fill="#A8633C" opacity=".8" stroke="#666" stroke-width=".5"/></g><g class="key-Macao_0"><circle cx="84" cy="389" r="1.82" fill="#2D8587" opacity=".8" stroke="#666" stroke-width=".5"/></g><g class="key-Montenegro_0"><circle cx="81" cy="443" r="1.82" fill="#4C5C78" opacity=".8" stroke="#666" stroke-width=".5"/></g><g class="key-Luxembourg_0"><circle cx="84" cy="420" r="1.82" fill="#4C5C78" opacity=".8" stroke="#666" stroke-width=".5"/></g><g class="key-Western-Sahara_0"><circle cx="246" cy="315" r="1.82" fill="#923E8B" opacity=".8" stroke="#666" stroke-width=".5"/></g><g class="key-Suriname_0"><circle cx="168" cy="352" r="1.82" fill="#932834" opacity=".8" stroke="#666" stroke-width=".5"/></g><g class="key-Cape-Verde_0"><circle cx="171" cy="328" r="1.82" fill="#923E8B" opacity=".8" stroke="#666" stroke-width=".5"/></g><g class="key-Maldives_0"><circle cx="105" cy="353" r="1.82" fill="#2D8587" opacity=".8" stroke="#666" stroke-width=".5"/></g><g class="key-Malta_0"><circle cx="95" cy="439" r="1.81" fill="#4C5C78" opacity=".8" stroke="#666" stroke-width=".5"/></g><g class="key-Brunei_0"><circle cx="119" cy="361" r="1.81" fill="#2D8587" opacity=".8" stroke="#666" stroke-width=".5"/></g><g class="key-Guadeloupe_0"><circle cx="92" cy="423" r="1.81" fill="#E04E4B" opacity=".8" stroke="#666" stroke-width=".5"/></g><g class="key-Belize_0"><circle cx="144" cy="307" r="1.81" fill="#E04E4B" opacity=".8" stroke="#666" stroke-width=".5"/></g><g class="key-Bahamas_0"><circle cx="103" cy="387" r="1.81" fill="#E04E4B" opacity=".8" stroke="#666" stroke-width=".5"/></g><g class="key-Martinique_0"><circle cx="99" cy="448" r="1.81" fill="#E04E4B" opacity=".8" stroke="#666" stroke-width=".5"/></g><g class="key-Iceland_0"><circle cx="75" cy="405" r="1.8" fill="#4C5C78" opacity=".8" stroke="#666" stroke-width=".5"/></g><g class="key-Vanuatu_0"><circle cx="206" cy="232" r="1.8" fill="#A8633C" opacity=".8" stroke="#666" stroke-width=".5"/></g><g class="key-French-Guiana_0"><circle cx="119" cy="250" r="1.8" fill="#932834" opacity=".8" stroke="#666" stroke-width=".5"/></g><g class="key-Barbados_0"><circle cx="130" cy="437" r="1.8" fill="#E04E4B" opacity=".8" stroke="#666" stroke-width=".5"/></g><g class="key-New-Caledonia_0"><circle cx="136" cy="377" r="1.8" fill="#A8633C" opacity=".8" stroke="#666" stroke-width=".5"/></g><g class="key-French-Polynesia_0"><circle cx="103" cy="372" r="1.8" fill="#A8633C" opacity=".8" stroke="#666" stroke-width=".5"/></g><g class="key-Mayotte_0"><circle cx="91" cy="224" r="1.8" fill="#923E8B" opacity=".8" stroke="#333" stroke-width=".5"/></g><g class="key-Sao-Tome-and-Principe_0"><circle cx="233" cy="210" r="1.8" fill="#923E8B" opacity=".8" stroke="#666" stroke-width=".5"/></g><g class="key-Samoa_0"><circle cx="151" cy="279" r="1.8" fill="#A8633C" opacity=".8" stroke="#666" stroke-width=".5"/></g><g class="key-Saint-Lucia_0"><circle cx="151" cy="410" r="1.79" fill="#E04E4B" opacity=".8" stroke="#666" stroke-width=".5"/></g><g class="key-Channel-Islands_0"><circle cx="103" cy="433" r="1.79" fill="#4C5C78" opacity=".8" stroke="#666" stroke-width=".5"/></g><g class="key-Guam_0"><circle cx="119" cy="349" r="1.79" fill="#A8633C" opacity=".8" stroke="#666" stroke-width=".5"/></g><g class="key-Curacao_0"><circle cx="122" cy="436" r="1.79" fill="#E04E4B" opacity=".8" stroke="#666" stroke-width=".5"/></g><g class="key-Kiribati_0"><circle cx="351" cy="258" r="1.79" fill="#A8633C" opacity=".8" stroke="#666" stroke-width=".5"/></g><g class="key-Micronesia-__0028country__0029_0"><circle cx="234" cy="304" r="1.79" fill="#A8633C" opacity=".8" stroke="#666" stroke-width=".5"/></g><g class="key-Grenada_0"><circle cx="156" cy="391" r="1.79" fill="#E04E4B" opacity=".8" stroke="#666" stroke-width=".5"/></g><g class="key-Saint-Vincent-and-the-Grenadines_0"><circle cx="150" cy="408" r="1.79" fill="#E04E4B" opacity=".8" stroke="#666" stroke-width=".5"/></g><g class="key-Aruba_0"><circle cx="150" cy="428" r="1.79" fill="#E04E4B" opacity=".8" stroke="#666" stroke-width=".5"/></g><g class="key-United-States-Virgin-Islands_0"><circle cx="116" cy="427" r="1.79" fill="#E04E4B" opacity=".8" stroke="#666" stroke-width=".5"/></g><g class="key-Tonga_0"><circle cx="148" cy="297" r="1.79" fill="#A8633C" opacity=".8" stroke="#666" stroke-width=".5"/></g><g class="key-Seychelles_0"><circle cx="140" cy="375" r="1.79" fill="#923E8B" opacity=".8" stroke="#666" stroke-width=".5"/></g><g class="key-Antigua-and-Barbuda_0"><circle cx="104" cy="372" r="1.79" fill="#E04E4B" opacity=".8" stroke="#666" stroke-width=".5"/></g><g class="backgroundLabels" fill="#333" font-weight="400"><text x="125" y="394.16" font-size="14.3" fill="#fff" stroke="#fff" stroke-linecap="round" stroke-linejoin="round" stroke-width=".25em">China</text><text x="125" y="394.16" font-size="14.3" fill="#2D8587">China</text><text x="269" y="338.58" font-size="14.14" fill="#fff" stroke="#fff" stroke-linecap="round" stroke-linejoin="round" stroke-width=".25em">India</text><text x="269" y="338.58" font-size="14.14" fill="#2D8587">India</text><text x="104" y="413.31" font-size="11.76" fill="#fff" stroke="#fff" stroke-linecap="round" stroke-linejoin="round" stroke-width=".25em">United States</text><text x="104" y="413.31" font-size="11.76" fill="#E04E4B">United States</text><text x="195" y="340.08" font-size="11.62" fill="#fff" stroke="#fff" stroke-linecap="round" stroke-linejoin="round" stroke-width=".25em">Indonesia</text><text x="195" y="340.08" font-size="11.62" fill="#2D8587">Indonesia</text><text x="464" y="251.87" font-size="11.5" fill="#fff" stroke="#fff" stroke-linecap="round" stroke-linejoin="round" stroke-width=".25em">Pakistan</text><text x="464" y="251.87" font-size="11.5" fill="#2D8587">Pakistan</text><text x="600" y="207.12" font-size="11.46" fill="#fff" stroke="#fff" stroke-linecap="round" stroke-linejoin="round" stroke-width=".25em">Nigeria</text><text x="600" y="207.12" font-size="11.46" fill="#923E8B">Nigeria</text><text x="102" y="448.06" font-size="11.34" fill="#fff" stroke="#fff" stroke-linecap="round" stroke-linejoin="round" stroke-width=".25em">Russia</text><text x="102" y="448.06" font-size="11.34" fill="#4C5C78">Russia</text><text x="149" y="342.41" font-size="11.29" fill="#fff" stroke="#fff" stroke-linecap="round" stroke-linejoin="round" stroke-width=".25em">Mexico</text><text x="149" y="342.41" font-size="11.29" fill="#E04E4B">Mexico</text><text x="79" y="476.43" font-size="11.29" fill="#fff" stroke="#fff" stroke-linecap="round" stroke-linejoin="round" stroke-width=".25em">Japan</text><text x="79" y="476.43" font-size="11.29" fill="#2D8587">Japan</text><text x="346" y="211.73" font-size="11.26" fill="#fff" stroke="#fff" stroke-linecap="round" stroke-linejoin="round" stroke-width=".25em">Ethiopia</text><text x="346" y="211.73" font-size="11.26" fill="#923E8B">Ethiopia</text><text x="212" y="314.81" font-size="11.25" fill="#fff" stroke="#fff" stroke-linecap="round" stroke-linejoin="round" stroke-width=".25em">Philippines</text><text x="212" y="314.81" font-size="11.25" fill="#2D8587">Philippines</text><text x="169" y="262.98" font-size="11.23" fill="#fff" stroke="#fff" stroke-linecap="round" stroke-linejoin="round" stroke-width=".25em">Egypt</text><text x="169" y="262.98" font-size="11.23" fill="#923E8B">Egypt</text><text x="445.68" y="159.28" font-size="11.2" fill="#fff" stroke="#fff" stroke-linecap="round" stroke-linejoin="round" stroke-width=".25em">Democratic Republic of Congo</text><text x="445.68" y="159.28" font-size="11.2" fill="#923E8B">Democratic Republic of Congo</text><text x="143" y="321.37" font-size="11.19" fill="#fff" stroke="#fff" stroke-linecap="round" stroke-linejoin="round" stroke-width=".25em">Iran</text><text x="143" y="321.37" font-size="11.19" fill="#2D8587">Iran</text><text x="359" y="171.01" font-size="11.13" fill="#fff" stroke="#fff" stroke-linecap="round" stroke-linejoin="round" stroke-width=".25em">Tanzania</text><text x="359" y="171.01" font-size="11.13" fill="#923E8B">Tanzania</text><text x="317" y="363.12" font-size="11.12" fill="#fff" stroke="#fff" stroke-linecap="round" stroke-linejoin="round" stroke-width=".25em">Myanmar</text><text x="317" y="363.12" font-size="11.12" fill="#2D8587">Myanmar</text><text x="312" y="237.16" font-size="11.12" fill="#fff" stroke="#fff" stroke-linecap="round" stroke-linejoin="round" stroke-width=".25em">Kenya</text><text x="312" y="237.16" font-size="11.12" fill="#923E8B">Kenya</text><text x="143" y="364.23" font-size="11.12" fill="#fff" stroke="#fff" stroke-linecap="round" stroke-linejoin="round" stroke-width=".25em">Colombia</text><text x="143" y="364.23" font-size="11.12" fill="#932834">Colombia</text><text x="110" y="501.42" font-size="11.1" fill="#fff" stroke="#fff" stroke-linecap="round" stroke-linejoin="round" stroke-width=".25em">Ukraine</text><text x="110" y="501.42" font-size="11.1" fill="#4C5C78">Ukraine</text><text x="404" y="220.45" font-size="11.1" fill="#fff" stroke="#fff" stroke-linecap="round" stroke-linejoin="round" stroke-width=".25em">Sudan</text><text x="404" y="220.45" font-size="11.1" fill="#923E8B">Sudan</text><text x="214" y="229.56" font-size="11.09" fill="#fff" stroke="#fff" stroke-linecap="round" stroke-linejoin="round" stroke-width=".25em">Iraq</text><text x="214" y="229.56" font-size="11.09" fill="#2D8587">Iraq</text><text x="444" y="182.86" font-size="11.07" fill="#fff" stroke="#fff" stroke-linecap="round" stroke-linejoin="round" stroke-width=".25em">Mozambique</text><text x="444" y="182.86" font-size="11.07" fill="#923E8B">Mozambique</text><text x="530" y="211.02" font-size="11.06" fill="#fff" stroke="#fff" stroke-linecap="round" stroke-linejoin="round" stroke-width=".25em">Cameroon</text><text x="530" y="211.02" font-size="11.06" fill="#923E8B">Cameroon</text><text x="503" y="118.85" font-size="11.05" fill="#fff" stroke="#fff" stroke-linecap="round" stroke-linejoin="round" stroke-width=".25em">Niger</text><text x="503" y="118.85" font-size="11.05" fill="#923E8B">Niger</text><text x="618" y="158.26" font-size="11.05" fill="#fff" stroke="#fff" stroke-linecap="round" stroke-linejoin="round" stroke-width=".25em">Mali</text><text x="618" y="158.26" font-size="11.05" fill="#923E8B">Mali</text><text x="156" y="282.37" font-size="11.04" fill="#fff" stroke="#fff" stroke-linecap="round" stroke-linejoin="round" stroke-width=".25em">Syria</text><text x="156" y="282.37" font-size="11.04" fill="#2D8587">Syria</text><text x="294" y="188.4" font-size="11.04" fill="#fff" stroke="#fff" stroke-linecap="round" stroke-linejoin="round" stroke-width=".25em">Senegal</text><text x="294" y="188.4" font-size="11.04" fill="#923E8B">Senegal</text><text x="691.51" y="175.41" font-size="11.04" fill="#fff" stroke="#fff" stroke-linecap="round" stroke-linejoin="round" stroke-width=".25em">Chad</text><text x="691.51" y="175.41" font-size="11.04" fill="#923E8B">Chad</text><text x="257" y="208.56" font-size="11.03" fill="#fff" stroke="#fff" stroke-linecap="round" stroke-linejoin="round" stroke-width=".25em">Rwanda</text><text x="257" y="208.56" font-size="11.03" fill="#923E8B">Rwanda</text><text x="320" y="313.61" font-size="11.03" fill="#fff" stroke="#fff" stroke-linecap="round" stroke-linejoin="round" stroke-width=".25em">Bolivia</text><text x="320" y="313.61" font-size="11.03" fill="#932834">Bolivia</text><text x="494" y="306.62" font-size="11.03" fill="#fff" stroke="#fff" stroke-linecap="round" stroke-linejoin="round" stroke-width=".25em">Haiti</text><text x="494" y="306.62" font-size="11.03" fill="#E04E4B">Haiti</text><text x="591" y="225.63" font-size="11.03" fill="#fff" stroke="#fff" stroke-linecap="round" stroke-linejoin="round" stroke-width=".25em">South Sudan</text><text x="591" y="225.63" font-size="11.03" fill="#923E8B">South Sudan</text><text x="197" y="362.68" font-size="11.02" fill="#fff" stroke="#fff" stroke-linecap="round" stroke-linejoin="round" stroke-width=".25em">Azerbaijan</text><text x="197" y="362.68" font-size="11.02" fill="#2D8587">Azerbaijan</text><text x="344" y="270.74" font-size="11.02" fill="#fff" stroke="#fff" stroke-linecap="round" stroke-linejoin="round" stroke-width=".25em">Papua New Guinea</text><text x="344" y="270.74" font-size="11.02" fill="#A8633C">Papua New Guinea</text><text x="83" y="313.75" font-size="11.02" fill="#fff" stroke="#fff" stroke-linecap="round" stroke-linejoin="round" stroke-width=".25em">Israel</text><text x="83" y="313.75" font-size="11.02" fill="#2D8587">Israel</text><text x="461" y="224.77" font-size="11.02" fill="#fff" stroke="#fff" stroke-linecap="round" stroke-linejoin="round" stroke-width=".25em">Togo</text><text x="461" y="224.77" font-size="11.02" fill="#923E8B">Togo</text><text x="641" y="252.79" font-size="11.02" fill="#fff" stroke="#fff" stroke-linecap="round" stroke-linejoin="round" stroke-width=".25em">Sierra Leone</text><text x="641" y="252.79" font-size="11.02" fill="#923E8B">Sierra Leone</text><text x="315" y="294.82" font-size="11.02" fill="#fff" stroke="#fff" stroke-linecap="round" stroke-linejoin="round" stroke-width=".25em">Laos</text><text x="315" y="294.82" font-size="11.02" fill="#2D8587">Laos</text><text x="81" y="390.94" font-size="11.01" fill="#fff" stroke="#fff" stroke-linecap="round" stroke-linejoin="round" stroke-width=".25em">Ireland</text><text x="81" y="390.94" font-size="11.01" fill="#4C5C78">Ireland</text><text x="295" y="263.07" font-size="11.01" fill="#fff" stroke="#fff" stroke-linecap="round" stroke-linejoin="round" stroke-width=".25em">Namibia</text><text x="295" y="263.07" font-size="11.01" fill="#923E8B">Namibia</text><text x="515" y="334.09" font-size="11" fill="#fff" stroke="#fff" stroke-linecap="round" stroke-linejoin="round" stroke-width=".25em">Lesotho</text><text x="515" y="334.09" font-size="11" fill="#923E8B">Lesotho</text><text x="203" y="411.13" font-size="11" fill="#fff" stroke="#fff" stroke-linecap="round" stroke-linejoin="round" stroke-width=".25em">Trinidad and Tobago</text><text x="203" y="411.13" font-size="11" fill="#E04E4B">Trinidad and Tobago</text><text x="81" y="373.16" font-size="11" fill="#fff" stroke="#fff" stroke-linecap="round" stroke-linejoin="round" stroke-width=".25em">Reunion</text><text x="81" y="373.16" font-size="11" fill="#923E8B">Reunion</text><text x="91" y="221.2" font-size="11" fill="#fff" stroke="#fff" stroke-linecap="round" stroke-linejoin="round" stroke-width=".25em">Mayotte</text><text x="91" y="221.2" font-size="11" fill="#923E8B">Mayotte</text></g></g><g class="ScatterColorLegend clickable" cursor="pointer"><g class="legendMark"><path fill="#923E8B" d="M738.09 109.6h9v9h-9z"/><text font-size="12.6" x="752.1" y="117.9"><tspan x="752.09" y="117.88">Africa</tspan></text></g><g class="legendMark"><path fill="#2D8587" d="M738.09 127.2h9v9h-9z"/><text font-size="12.6" x="752.1" y="135.5"><tspan x="752.09" y="135.48">Asia</tspan></text></g><g class="legendMark"><path fill="#4C5C78" d="M738.09 144.8h9v9h-9z"/><text font-size="12.6" x="752.1" y="153.1"><tspan x="752.09" y="153.08">Europe</tspan></text></g><g class="legendMark"><path fill="#E04E4B" d="M738.09 162.4h9v9h-9z"/><text font-size="12.6" x="752.1" y="170.7"><tspan x="752.09" y="170.68">North America</tspan></text></g><g class="legendMark"><path fill="#A8633C" d="M738.09 180h9v9h-9z"/><text font-size="12.6" x="752.1" y="188.3"><tspan x="752.09" y="188.28">Oceania</tspan></text></g><g class="legendMark"><path fill="#932834" d="M738.09 197.6h9v9h-9z"/><text font-size="12.6" x="752.1" y="205.9"><tspan x="752.09" y="205.88">South America</tspan></text></g></g></g><g class="SourcesFooter" fill="#777"><g class="clickable" fill="#777"><text font-size="12.6" x="15" y="581.6"><tspan x="15" y="581.58">Source: UN Population Division (2019 Revision)</tspan></text></g><text font-size="12.6" x="528.2" y="581.6"><tspan x="528.19" y="581.58"><a target="_blank" href="https://ourworldindata.org/world-population-growth/" fill="#777">OurWorldInData.org/world-population-growth/</a> • <a class="cclogo" href="http://creativecommons.org/licenses/by/4.0/deed.en_US" target="_blank" fill="#777">CC BY</a></tspan></text></g></svg>