<svg xmlns="http://www.w3.org/2000/svg" version="1.1" style="font-family:Lato,'Helvetica Neue',Helvetica,Arial,sans-serif;font-size:18px;background-color:#fff;text-rendering:geometricPrecision;-webkit-font-smoothing:antialiased" width="850" height="600" viewBox="0 0 850 600"><g class="HeaderView"><g transform="matrix(.29 0 0 .29 774 15)"><svg className="owidLog" width="210" height="120" viewBox="0 0 210 120" fill="none" xmlns="http://www.w3.org/2000/svg"><g clip-path="url(#a)"><path d="M0 0h210v107.89H0V0z" fill="#002147"/><path d="M40.98 32.25c0 2.36-.38 4.53-1.12 6.51a14.26 14.26 0 0 1-8.1 8.4c-1.9.78-4.02 1.17-6.34 1.17a16.6 16.6 0 0 1-6.33-1.17 14.31 14.31 0 0 1-8.08-8.4 18.29 18.29 0 0 1-1.12-6.51c0-2.36.38-4.53 1.12-6.5.75-1.97 1.8-3.67 3.17-5.1a14.32 14.32 0 0 1 4.9-3.34c1.92-.8 4.03-1.19 6.34-1.19 2.32 0 4.43.4 6.34 1.19 1.92.8 3.56 1.9 4.93 3.34a14.87 14.87 0 0 1 3.17 5.1 18.1 18.1 0 0 1 1.12 6.5zm-4.38 0c0-1.94-.26-3.68-.8-5.22a10.91 10.91 0 0 0-2.24-3.89 9.68 9.68 0 0 0-3.52-2.46 11.95 11.95 0 0 0-4.62-.86c-1.68 0-3.21.28-4.6.86a9.88 9.88 0 0 0-3.54 2.46 10.91 10.91 0 0 0-2.24 3.9c-.53 1.53-.8 3.27-.8 5.2 0 1.94.27 3.68.8 5.22a11.17 11.17 0 0 0 2.24 3.9 10.01 10.01 0 0 0 3.55 2.44c1.38.56 2.9.83 4.6.83s3.24-.27 4.61-.83a9.8 9.8 0 0 0 3.52-2.44 11.17 11.17 0 0 0 2.25-3.9c.53-1.54.8-3.28.8-5.21zm26.22-6.54V48H60.5c-.56 0-.9-.27-1.05-.81l-.31-2.4a12.45 12.45 0 0 1-3.26 2.6c-1.2.64-2.58.96-4.13.96-1.22 0-2.3-.2-3.24-.6a6.52 6.52 0 0 1-2.33-1.7 7.37 7.37 0 0 1-1.43-2.67c-.3-1.04-.46-2.2-.46-3.45V25.7h3.91v14.22c0 1.68.38 2.99 1.15 3.91.77.93 1.96 1.39 3.54 1.39 1.16 0 2.24-.27 3.23-.82a10.42 10.42 0 0 0 2.8-2.28V25.7h3.91zm8.61 4.47a9.94 9.94 0 0 1 2.6-3.56 5.64 5.64 0 0 1 3.76-1.3c.47 0 .92.05 1.34.15.44.1.83.27 1.17.49l-.3 2.92c-.09.37-.3.55-.66.55-.2 0-.5-.04-.9-.13a6.21 6.21 0 0 0-3.24.18 4.23 4.23 0 0 0-1.47.92c-.42.4-.81.9-1.17 1.5-.33.58-.64 1.26-.92 2.02V48H67.7V25.71h2.25c.42 0 .72.08.88.25.16.16.27.44.33.83l.26 3.39zm61.16-13.7L122.75 48h-3.82l-7.99-24.05a21.95 21.95 0 0 1-.42-1.58 38.36 38.36 0 0 1-.44 1.58L102.05 48h-3.83L88.4 16.47h3.54c.38 0 .7.1.95.29.26.2.43.43.5.73l6.52 21.9.28 1.28.29 1.46.3-1.46.38-1.27 7.41-21.91c.1-.25.26-.48.51-.69.27-.22.58-.33.95-.33h1.23c.38 0 .69.1.92.29a1.77 1.77 0 0 1 .53.73l7.4 21.9a28.4 28.4 0 0 1 .68 2.62 29.52 29.52 0 0 1 .52-2.61l6.54-21.91a1.31 1.31 0 0 1 .48-.7c.27-.21.58-.32.95-.32h3.32zm9.35 8.88c1.63 0 3.1.27 4.4.82a9.43 9.43 0 0 1 5.46 5.94c.5 1.4.74 2.98.74 4.73 0 1.76-.25 3.34-.74 4.75a9.43 9.43 0 0 1-5.46 5.92c-1.3.52-2.77.79-4.4.79-1.64 0-3.12-.27-4.44-.8a9.42 9.42 0 0 1-3.35-2.3c-.92-1-1.63-2.2-2.13-3.61-.49-1.41-.73-3-.73-4.75s.24-3.33.73-4.73c.5-1.43 1.2-2.64 2.13-3.63a9.4 9.4 0 0 1 3.35-2.31c1.32-.55 2.8-.82 4.44-.82zm0 19.89c2.2 0 3.84-.73 4.93-2.2 1.08-1.48 1.63-3.54 1.63-6.18 0-2.66-.55-4.72-1.63-6.2-1.09-1.49-2.73-2.23-4.93-2.23-1.12 0-2.09.2-2.93.57a5.71 5.71 0 0 0-2.06 1.65 7.5 7.5 0 0 0-1.24 2.67c-.26 1.04-.4 2.22-.4 3.54 0 2.64.55 4.7 1.64 6.18 1.1 1.47 2.76 2.2 4.99 2.2zm17.97-15.07a9.94 9.94 0 0 1 2.6-3.56 5.64 5.64 0 0 1 3.76-1.3c.47 0 .91.05 1.34.15.44.1.83.27 1.16.49l-.28 2.92c-.09.37-.31.55-.66.55-.2 0-.5-.04-.9-.13a6.2 6.2 0 0 0-3.24.18 4.23 4.23 0 0 0-1.47.92c-.43.4-.82.9-1.17 1.5a13.1 13.1 0 0 0-.92 2.02V48h-3.94V25.71h2.24c.43 0 .72.08.88.25.17.16.28.44.33.83l.27 3.39zm15.04-14.59V48h-3.92V15.6h3.92zm19.55 15.43a6.22 6.22 0 0 0-2.38-2.05 6.7 6.7 0 0 0-2.86-.6c-2.07 0-3.66.75-4.77 2.23-1.12 1.48-1.68 3.6-1.68 6.33 0 1.46.13 2.7.38 3.74a7.29 7.29 0 0 0 1.1 2.56 4.35 4.35 0 0 0 1.78 1.45c.7.3 1.5.46 2.4.46 1.29 0 2.41-.3 3.36-.88a9.6 9.6 0 0 0 2.67-2.49V31.02zm3.91-15.43V48h-2.33c-.56 0-.9-.27-1.06-.81l-.35-2.71a12.13 12.13 0 0 1-3.25 2.77 8.28 8.28 0 0 1-4.23 1.06 7.31 7.31 0 0 1-6.14-2.9c-.73-.96-1.3-2.15-1.69-3.57a18.35 18.35 0 0 1 .07-9.48 11.29 11.29 0 0 1 1.89-3.7 8.7 8.7 0 0 1 7.06-3.34 7.96 7.96 0 0 1 6.12 2.62V15.59h3.91zM46.61 70.71V93H42.7V70.71h3.91zm.84-7c0 .39-.08.75-.24 1.09a2.81 2.81 0 0 1-1.52 1.47 2.67 2.67 0 0 1-2.16 0 2.9 2.9 0 0 1-1.45-1.47 2.67 2.67 0 0 1 0-2.16c.15-.35.35-.65.6-.9.25-.27.53-.47.85-.62a2.67 2.67 0 0 1 2.16 0c.35.15.65.35.9.62.27.25.47.55.62.9.16.34.24.7.24 1.08zm7.97 10.24c.49-.54 1-1.04 1.54-1.48a9.85 9.85 0 0 1 3.66-1.84 8.96 8.96 0 0 1 5.43.35c.94.4 1.72.97 2.33 1.71a7.36 7.36 0 0 1 1.43 2.67c.32 1.04.49 2.19.49 3.45V93h-3.94V78.81c0-1.69-.4-3-1.17-3.92-.76-.93-1.93-1.4-3.5-1.4a6.6 6.6 0 0 0-3.25.83c-1 .56-1.92 1.31-2.77 2.27V93h-3.94V70.71h2.35c.56 0 .9.28 1.04.82l.3 2.42zm57.7 3.3c0 2.36-.37 4.5-1.11 6.44a14.3 14.3 0 0 1-3.17 4.98 14.1 14.1 0 0 1-4.93 3.2c-1.9.76-4.02 1.13-6.33 1.13H85.8V61.47h11.77c2.31 0 4.42.39 6.33 1.15a13.8 13.8 0 0 1 8.1 8.18 17.75 17.75 0 0 1 1.12 6.45zm-4.37 0c0-1.94-.26-3.67-.8-5.2a10.94 10.94 0 0 0-2.23-3.87 9.57 9.57 0 0 0-3.53-2.42 12.23 12.23 0 0 0-4.61-.83h-7.5v24.62h7.5c1.7 0 3.24-.28 4.61-.84a9.7 9.7 0 0 0 3.53-2.4 10.94 10.94 0 0 0 2.24-3.87c.53-1.53.8-3.26.8-5.2zm19.8 5.72c-1.8.06-3.34.2-4.62.44-1.26.22-2.3.51-3.1.88-.8.36-1.37.8-1.74 1.3-.35.5-.53 1.05-.53 1.67 0 .58.1 1.1.3 1.52a3 3 0 0 0 .76 1.05c.34.27.73.46 1.17.6a6.13 6.13 0 0 0 1.45.17 7.28 7.28 0 0 0 3.5-.81 11.95 11.95 0 0 0 2.82-2.2v-4.62zm-12.65-9.11a12.73 12.73 0 0 1 3.98-2.66c1.43-.59 3-.88 4.73-.88 1.25 0 2.36.2 3.33.61a6.81 6.81 0 0 1 3.94 4.38c.33 1.04.5 2.19.5 3.43V93h-1.74a1.8 1.8 0 0 1-.88-.18c-.2-.13-.36-.38-.48-.74l-.44-2.12-1.72 1.46a9.48 9.48 0 0 1-3.74 1.7c-.69.15-1.46.23-2.3.23-.87 0-1.69-.12-2.45-.35a5.34 5.34 0 0 1-3.34-2.93 6.64 6.64 0 0 1-.49-2.64c0-.88.25-1.72.73-2.53a6.33 6.33 0 0 1 2.35-2.17c1.09-.63 2.5-1.15 4.25-1.54 1.75-.41 3.89-.65 6.42-.7v-1.75c0-1.73-.37-3.03-1.12-3.91-.75-.9-1.84-1.34-3.28-1.34-.97 0-1.78.12-2.44.37-.64.23-1.2.5-1.7.81l-1.23.82c-.33.23-.67.35-1 .35-.27 0-.5-.07-.69-.2a2.1 2.1 0 0 1-.48-.53l-.7-1.25zm27.67 19.5c-1.76 0-3.12-.5-4.07-1.48-.94-.98-1.41-2.4-1.41-4.25V74h-2.68a.9.9 0 0 1-.6-.2c-.16-.14-.24-.36-.24-.66v-1.56l3.65-.46.9-6.89a.9.9 0 0 1 .29-.52.88.88 0 0 1 .62-.22H142v7.67h6.44V74H142v13.38c0 .94.22 1.63.68 2.09.45.45 1.04.68 1.76.68a3.21 3.21 0 0 0 1.85-.53l.55-.35c.16-.12.3-.18.41-.18.2 0 .4.13.55.38l1.15 1.87a7.45 7.45 0 0 1-2.44 1.5 8.53 8.53 0 0 1-2.95.52zm19.68-10.4c-1.8.07-3.34.21-4.62.45-1.26.22-2.3.51-3.1.88-.8.36-1.37.8-1.74 1.3-.35.5-.53 1.05-.53 1.67 0 .58.1 1.1.3 1.52a2.9 2.9 0 0 0 .76 1.05c.34.27.73.46 1.17.6a6.13 6.13 0 0 0 1.45.17 7.3 7.3 0 0 0 3.5-.81 12.04 12.04 0 0 0 2.82-2.2v-4.62zm-12.65-9.1a12.72 12.72 0 0 1 3.99-2.66c1.42-.59 3-.88 4.72-.88 1.25 0 2.36.2 3.33.61a6.81 6.81 0 0 1 3.94 4.38c.33 1.04.5 2.19.5 3.43V93h-1.74a1.8 1.8 0 0 1-.88-.18c-.2-.13-.36-.38-.48-.74l-.44-2.12-1.72 1.46a9.48 9.48 0 0 1-3.74 1.7c-.69.15-1.46.23-2.3.23-.87 0-1.69-.12-2.45-.35a5.33 5.33 0 0 1-3.34-2.93 6.62 6.62 0 0 1-.49-2.64c0-.88.25-1.72.73-2.53a6.33 6.33 0 0 1 2.35-2.17c1.09-.63 2.5-1.15 4.25-1.54a31.2 31.2 0 0 1 6.42-.7v-1.75c0-1.73-.37-3.03-1.12-3.91-.75-.9-1.84-1.34-3.28-1.34-.97 0-1.78.12-2.44.37-.64.23-1.2.5-1.7.81l-1.22.82c-.34.23-.68.35-1.02.35-.26 0-.49-.07-.68-.2a1.88 1.88 0 0 1-.48-.53l-.7-1.25zM40.98 32.25c0 2.36-.38 4.53-1.12 6.51a14.26 14.26 0 0 1-8.1 8.4c-1.9.78-4.02 1.17-6.34 1.17a16.6 16.6 0 0 1-6.33-1.17 14.31 14.31 0 0 1-8.08-8.4 18.29 18.29 0 0 1-1.12-6.51c0-2.36.38-4.53 1.12-6.5.75-1.97 1.8-3.67 3.17-5.1a14.32 14.32 0 0 1 4.9-3.34c1.92-.8 4.03-1.19 6.34-1.19 2.32 0 4.43.4 6.34 1.19 1.92.8 3.56 1.9 4.93 3.34a14.87 14.87 0 0 1 3.17 5.1 18.1 18.1 0 0 1 1.12 6.5zm-4.38 0c0-1.94-.26-3.68-.8-5.22a10.91 10.91 0 0 0-2.24-3.89 9.68 9.68 0 0 0-3.52-2.46 11.95 11.95 0 0 0-4.62-.86c-1.68 0-3.21.28-4.6.86a9.88 9.88 0 0 0-3.54 2.46 10.91 10.91 0 0 0-2.24 3.9c-.53 1.53-.8 3.27-.8 5.2 0 1.94.27 3.68.8 5.22a11.17 11.17 0 0 0 2.24 3.9 10.01 10.01 0 0 0 3.55 2.44c1.38.56 2.9.83 4.6.83s3.24-.27 4.61-.83a9.8 9.8 0 0 0 3.52-2.44 11.17 11.17 0 0 0 2.25-3.9c.53-1.54.8-3.28.8-5.21zm26.22-6.54V48H60.5c-.56 0-.9-.27-1.05-.81l-.31-2.4a12.45 12.45 0 0 1-3.26 2.6c-1.2.64-2.58.96-4.13.96-1.22 0-2.3-.2-3.24-.6a6.52 6.52 0 0 1-2.33-1.7 7.37 7.37 0 0 1-1.43-2.67c-.3-1.04-.46-2.2-.46-3.45V25.7h3.91v14.22c0 1.68.38 2.99 1.15 3.91.77.93 1.96 1.39 3.54 1.39 1.16 0 2.24-.27 3.23-.82a10.42 10.42 0 0 0 2.8-2.28V25.7h3.91zm8.61 4.47a9.94 9.94 0 0 1 2.6-3.56 5.64 5.64 0 0 1 3.76-1.3c.47 0 .92.05 1.34.15.44.1.83.27 1.17.49l-.3 2.92c-.09.37-.3.55-.66.55-.2 0-.5-.04-.9-.13a6.21 6.21 0 0 0-3.24.18 4.23 4.23 0 0 0-1.47.92c-.42.4-.81.9-1.17 1.5-.33.58-.64 1.26-.92 2.02V48H67.7V25.71h2.25c.42 0 .72.08.88.25.16.16.27.44.33.83l.26 3.39zm61.16-13.7L122.75 48h-3.82l-7.99-24.05a21.95 21.95 0 0 1-.42-1.58 38.36 38.36 0 0 1-.44 1.58L102.05 48h-3.83L88.4 16.47h3.54c.38 0 .7.1.95.29.26.2.43.43.5.73l6.52 21.9.28 1.28.29 1.46.3-1.46.38-1.27 7.41-21.91c.1-.25.26-.48.51-.69.27-.22.58-.33.95-.33h1.23c.38 0 .69.1.92.29a1.77 1.77 0 0 1 .53.73l7.4 21.9a28.4 28.4 0 0 1 .68 2.62 29.52 29.52 0 0 1 .52-2.61l6.54-21.91a1.31 1.31 0 0 1 .48-.7c.27-.21.58-.32.95-.32h3.32zm9.35 8.88c1.63 0 3.1.27 4.4.82a9.43 9.43 0 0 1 5.46 5.94c.5 1.4.74 2.98.74 4.73 0 1.76-.25 3.34-.74 4.75a9.43 9.43 0 0 1-5.46 5.92c-1.3.52-2.77.79-4.4.79-1.64 0-3.12-.27-4.44-.8a9.42 9.42 0 0 1-3.35-2.3c-.92-1-1.63-2.2-2.13-3.61-.49-1.41-.73-3-.73-4.75s.24-3.33.73-4.73c.5-1.43 1.2-2.64 2.13-3.63a9.4 9.4 0 0 1 3.35-2.31c1.32-.55 2.8-.82 4.44-.82zm0 19.89c2.2 0 3.84-.73 4.93-2.2 1.08-1.48 1.63-3.54 1.63-6.18 0-2.66-.55-4.72-1.63-6.2-1.09-1.49-2.73-2.23-4.93-2.23-1.12 0-2.09.2-2.93.57a5.71 5.71 0 0 0-2.06 1.65 7.5 7.5 0 0 0-1.24 2.67c-.26 1.04-.4 2.22-.4 3.54 0 2.64.55 4.7 1.64 6.18 1.1 1.47 2.76 2.2 4.99 2.2zm17.97-15.07a9.94 9.94 0 0 1 2.6-3.56 5.64 5.64 0 0 1 3.76-1.3c.47 0 .91.05 1.34.15.44.1.83.27 1.16.49l-.28 2.92c-.09.37-.31.55-.66.55-.2 0-.5-.04-.9-.13a6.2 6.2 0 0 0-3.24.18 4.23 4.23 0 0 0-1.47.92c-.43.4-.82.9-1.17 1.5a13.1 13.1 0 0 0-.92 2.02V48h-3.94V25.71h2.24c.43 0 .72.08.88.25.17.16.28.44.33.83l.27 3.39zm15.04-14.59V48h-3.92V15.6h3.92zm19.55 15.43a6.22 6.22 0 0 0-2.38-2.05 6.7 6.7 0 0 0-2.86-.6c-2.07 0-3.66.75-4.77 2.23-1.12 1.48-1.68 3.6-1.68 6.33 0 1.46.13 2.7.38 3.74a7.29 7.29 0 0 0 1.1 2.56 4.35 4.35 0 0 0 1.78 1.45c.7.3 1.5.46 2.4.46 1.29 0 2.41-.3 3.36-.88a9.6 9.6 0 0 0 2.67-2.49V31.02zm3.91-15.43V48h-2.33c-.56 0-.9-.27-1.06-.81l-.35-2.71a12.13 12.13 0 0 1-3.25 2.77 8.28 8.28 0 0 1-4.23 1.06 7.31 7.31 0 0 1-6.14-2.9c-.73-.96-1.3-2.15-1.69-3.57a18.35 18.35 0 0 1 .07-9.48 11.29 11.29 0 0 1 1.89-3.7 8.7 8.7 0 0 1 7.06-3.34 7.96 7.96 0 0 1 6.12 2.62V15.59h3.91zM46.61 70.71V93H42.7V70.71h3.91zm.84-7c0 .39-.08.75-.24 1.09a2.81 2.81 0 0 1-1.52 1.47 2.67 2.67 0 0 1-2.16 0 2.9 2.9 0 0 1-1.45-1.47 2.67 2.67 0 0 1 0-2.16c.15-.35.35-.65.6-.9.25-.27.53-.47.85-.62a2.67 2.67 0 0 1 2.16 0c.35.15.65.35.9.62.27.25.47.55.62.9.16.34.24.7.24 1.08zm7.97 10.24c.49-.54 1-1.04 1.54-1.48a9.85 9.85 0 0 1 3.66-1.84 8.96 8.96 0 0 1 5.43.35c.94.4 1.72.97 2.33 1.71a7.36 7.36 0 0 1 1.43 2.67c.32 1.04.49 2.19.49 3.45V93h-3.94V78.81c0-1.69-.4-3-1.17-3.92-.76-.93-1.93-1.4-3.5-1.4a6.6 6.6 0 0 0-3.25.83c-1 .56-1.92 1.31-2.77 2.27V93h-3.94V70.71h2.35c.56 0 .9.28 1.04.82l.3 2.42zm57.7 3.3c0 2.36-.37 4.5-1.11 6.44a14.3 14.3 0 0 1-3.17 4.98 14.1 14.1 0 0 1-4.93 3.2c-1.9.76-4.02 1.13-6.33 1.13H85.8V61.47h11.77c2.31 0 4.42.39 6.33 1.15a13.8 13.8 0 0 1 8.1 8.18 17.75 17.75 0 0 1 1.12 6.45zm-4.37 0c0-1.94-.26-3.67-.8-5.2a10.94 10.94 0 0 0-2.23-3.87 9.57 9.57 0 0 0-3.53-2.42 12.23 12.23 0 0 0-4.61-.83h-7.5v24.62h7.5c1.7 0 3.24-.28 4.61-.84a9.7 9.7 0 0 0 3.53-2.4 10.94 10.94 0 0 0 2.24-3.87c.53-1.53.8-3.26.8-5.2zm19.8 5.72c-1.8.06-3.34.2-4.62.44-1.26.22-2.3.51-3.1.88-.8.36-1.37.8-1.74 1.3-.35.5-.53 1.05-.53 1.67 0 .58.1 1.1.3 1.52a3 3 0 0 0 .76 1.05c.34.27.73.46 1.17.6a6.13 6.13 0 0 0 1.45.17 7.28 7.28 0 0 0 3.5-.81 11.95 11.95 0 0 0 2.82-2.2v-4.62zm-12.65-9.11a12.73 12.73 0 0 1 3.98-2.66c1.43-.59 3-.88 4.73-.88 1.25 0 2.36.2 3.33.61a6.81 6.81 0 0 1 3.94 4.38c.33 1.04.5 2.19.5 3.43V93h-1.74a1.8 1.8 0 0 1-.88-.18c-.2-.13-.36-.38-.48-.74l-.44-2.12-1.72 1.46a9.48 9.48 0 0 1-3.74 1.7c-.69.15-1.46.23-2.3.23-.87 0-1.69-.12-2.45-.35a5.34 5.34 0 0 1-3.34-2.93 6.64 6.64 0 0 1-.49-2.64c0-.88.25-1.72.73-2.53a6.33 6.33 0 0 1 2.35-2.17c1.09-.63 2.5-1.15 4.25-1.54 1.75-.41 3.89-.65 6.42-.7v-1.75c0-1.73-.37-3.03-1.12-3.91-.75-.9-1.84-1.34-3.28-1.34-.97 0-1.78.12-2.44.37-.64.23-1.2.5-1.7.81l-1.23.82c-.33.23-.67.35-1 .35-.27 0-.5-.07-.69-.2a2.1 2.1 0 0 1-.48-.53l-.7-1.25zm27.67 19.5c-1.76 0-3.12-.5-4.07-1.48-.94-.98-1.41-2.4-1.41-4.25V74h-2.68a.9.9 0 0 1-.6-.2c-.16-.14-.24-.36-.24-.66v-1.56l3.65-.46.9-6.89a.9.9 0 0 1 .29-.52.88.88 0 0 1 .62-.22H142v7.67h6.44V74H142v13.38c0 .94.22 1.63.68 2.09.45.45 1.04.68 1.76.68a3.21 3.21 0 0 0 1.85-.53l.55-.35c.16-.12.3-.18.41-.18.2 0 .4.13.55.38l1.15 1.87a7.45 7.45 0 0 1-2.44 1.5 8.53 8.53 0 0 1-2.95.52zm19.68-10.4c-1.8.07-3.34.21-4.62.45-1.26.22-2.3.51-3.1.88-.8.36-1.37.8-1.74 1.3-.35.5-.53 1.05-.53 1.67 0 .58.1 1.1.3 1.52a2.9 2.9 0 0 0 .76 1.05c.34.27.73.46 1.17.6a6.13 6.13 0 0 0 1.45.17 7.3 7.3 0 0 0 3.5-.81 12.04 12.04 0 0 0 2.82-2.2v-4.62zm-12.65-9.1a12.72 12.72 0 0 1 3.99-2.66c1.42-.59 3-.88 4.72-.88 1.25 0 2.36.2 3.33.61a6.81 6.81 0 0 1 3.94 4.38c.33 1.04.5 2.19.5 3.43V93h-1.74a1.8 1.8 0 0 1-.88-.18c-.2-.13-.36-.38-.48-.74l-.44-2.12-1.72 1.46a9.48 9.48 0 0 1-3.74 1.7c-.69.15-1.46.23-2.3.23-.87 0-1.69-.12-2.45-.35a5.33 5.33 0 0 1-3.34-2.93 6.62 6.62 0 0 1-.49-2.64c0-.88.25-1.72.73-2.53a6.33 6.33 0 0 1 2.35-2.17c1.09-.63 2.5-1.15 4.25-1.54a31.2 31.2 0 0 1 6.42-.7v-1.75c0-1.73-.37-3.03-1.12-3.91-.75-.9-1.84-1.34-3.28-1.34-.97 0-1.78.12-2.44.37-.64.23-1.2.5-1.7.81l-1.22.82c-.34.23-.68.35-1.02.35-.26 0-.49-.07-.68-.2a1.88 1.88 0 0 1-.48-.53l-.7-1.25zM40.98 32.25c0 2.36-.38 4.53-1.12 6.51a14.26 14.26 0 0 1-8.1 8.4c-1.9.78-4.02 1.17-6.34 1.17a16.6 16.6 0 0 1-6.33-1.17 14.31 14.31 0 0 1-8.08-8.4 18.29 18.29 0 0 1-1.12-6.51c0-2.36.38-4.53 1.12-6.5.75-1.97 1.8-3.67 3.17-5.1a14.32 14.32 0 0 1 4.9-3.34c1.92-.8 4.03-1.19 6.34-1.19 2.32 0 4.43.4 6.34 1.19 1.92.8 3.56 1.9 4.93 3.34a14.87 14.87 0 0 1 3.17 5.1 18.1 18.1 0 0 1 1.12 6.5zm-4.38 0c0-1.94-.26-3.68-.8-5.22a10.91 10.91 0 0 0-2.24-3.89 9.68 9.68 0 0 0-3.52-2.46 11.95 11.95 0 0 0-4.62-.86c-1.68 0-3.21.28-4.6.86a9.88 9.88 0 0 0-3.54 2.46 10.91 10.91 0 0 0-2.24 3.9c-.53 1.53-.8 3.27-.8 5.2 0 1.94.27 3.68.8 5.22a11.17 11.17 0 0 0 2.24 3.9 10.01 10.01 0 0 0 3.55 2.44c1.38.56 2.9.83 4.6.83s3.24-.27 4.61-.83a9.8 9.8 0 0 0 3.52-2.44 11.17 11.17 0 0 0 2.25-3.9c.53-1.54.8-3.28.8-5.21zm26.22-6.54V48H60.5c-.56 0-.9-.27-1.05-.81l-.31-2.4a12.45 12.45 0 0 1-3.26 2.6c-1.2.64-2.58.96-4.13.96-1.22 0-2.3-.2-3.24-.6a6.52 6.52 0 0 1-2.33-1.7 7.37 7.37 0 0 1-1.43-2.67c-.3-1.04-.46-2.2-.46-3.45V25.7h3.91v14.22c0 1.68.38 2.99 1.15 3.91.77.93 1.96 1.39 3.54 1.39 1.16 0 2.24-.27 3.23-.82a10.42 10.42 0 0 0 2.8-2.28V25.7h3.91zm8.61 4.47a9.94 9.94 0 0 1 2.6-3.56 5.64 5.64 0 0 1 3.76-1.3c.47 0 .92.05 1.34.15.44.1.83.27 1.17.49l-.3 2.92c-.09.37-.3.55-.66.55-.2 0-.5-.04-.9-.13a6.21 6.21 0 0 0-3.24.18 4.23 4.23 0 0 0-1.47.92c-.42.4-.81.9-1.17 1.5-.33.58-.64 1.26-.92 2.02V48H67.7V25.71h2.25c.42 0 .72.08.88.25.16.16.27.44.33.83l.26 3.39zm61.16-13.7L122.75 48h-3.82l-7.99-24.05a21.95 21.95 0 0 1-.42-1.58 38.36 38.36 0 0 1-.44 1.58L102.05 48h-3.83L88.4 16.47h3.54c.38 0 .7.1.95.29.26.2.43.43.5.73l6.52 21.9.28 1.28.29 1.46.3-1.46.38-1.27 7.41-21.91c.1-.25.26-.48.51-.69.27-.22.58-.33.95-.33h1.23c.38 0 .69.1.92.29a1.77 1.77 0 0 1 .53.73l7.4 21.9a28.4 28.4 0 0 1 .68 2.62 29.52 29.52 0 0 1 .52-2.61l6.54-21.91a1.31 1.31 0 0 1 .48-.7c.27-.21.58-.32.95-.32h3.32zm9.35 8.88c1.63 0 3.1.27 4.4.82a9.43 9.43 0 0 1 5.46 5.94c.5 1.4.74 2.98.74 4.73 0 1.76-.25 3.34-.74 4.75a9.43 9.43 0 0 1-5.46 5.92c-1.3.52-2.77.79-4.4.79-1.64 0-3.12-.27-4.44-.8a9.42 9.42 0 0 1-3.35-2.3c-.92-1-1.63-2.2-2.13-3.61-.49-1.41-.73-3-.73-4.75s.24-3.33.73-4.73c.5-1.43 1.2-2.64 2.13-3.63a9.4 9.4 0 0 1 3.35-2.31c1.32-.55 2.8-.82 4.44-.82zm0 19.89c2.2 0 3.84-.73 4.93-2.2 1.08-1.48 1.63-3.54 1.63-6.18 0-2.66-.55-4.72-1.63-6.2-1.09-1.49-2.73-2.23-4.93-2.23-1.12 0-2.09.2-2.93.57a5.71 5.71 0 0 0-2.06 1.65 7.5 7.5 0 0 0-1.24 2.67c-.26 1.04-.4 2.22-.4 3.54 0 2.64.55 4.7 1.64 6.18 1.1 1.47 2.76 2.2 4.99 2.2zm17.97-15.07a9.94 9.94 0 0 1 2.6-3.56 5.64 5.64 0 0 1 3.76-1.3c.47 0 .91.05 1.34.15.44.1.83.27 1.16.49l-.28 2.92c-.09.37-.31.55-.66.55-.2 0-.5-.04-.9-.13a6.2 6.2 0 0 0-3.24.18 4.23 4.23 0 0 0-1.47.92c-.43.4-.82.9-1.17 1.5a13.1 13.1 0 0 0-.92 2.02V48h-3.94V25.71h2.24c.43 0 .72.08.88.25.17.16.28.44.33.83l.27 3.39zm15.04-14.59V48h-3.92V15.6h3.92zm19.55 15.43a6.22 6.22 0 0 0-2.38-2.05 6.7 6.7 0 0 0-2.86-.6c-2.07 0-3.66.75-4.77 2.23-1.12 1.48-1.68 3.6-1.68 6.33 0 1.46.13 2.7.38 3.74a7.29 7.29 0 0 0 1.1 2.56 4.35 4.35 0 0 0 1.78 1.45c.7.3 1.5.46 2.4.46 1.29 0 2.41-.3 3.36-.88a9.6 9.6 0 0 0 2.67-2.49V31.02zm3.91-15.43V48h-2.33c-.56 0-.9-.27-1.06-.81l-.35-2.71a12.13 12.13 0 0 1-3.25 2.77 8.28 8.28 0 0 1-4.23 1.06 7.31 7.31 0 0 1-6.14-2.9c-.73-.96-1.3-2.15-1.69-3.57a18.35 18.35 0 0 1 .07-9.48 11.29 11.29 0 0 1 1.89-3.7 8.7 8.7 0 0 1 7.06-3.34 7.96 7.96 0 0 1 6.12 2.62V15.59h3.91zM46.61 70.71V93H42.7V70.71h3.91zm.84-7c0 .39-.08.75-.24 1.09a2.81 2.81 0 0 1-1.52 1.47 2.67 2.67 0 0 1-2.16 0 2.9 2.9 0 0 1-1.45-1.47 2.67 2.67 0 0 1 0-2.16c.15-.35.35-.65.6-.9.25-.27.53-.47.85-.62a2.67 2.67 0 0 1 2.16 0c.35.15.65.35.9.62.27.25.47.55.62.9.16.34.24.7.24 1.08zm7.97 10.24c.49-.54 1-1.04 1.54-1.48a9.85 9.85 0 0 1 3.66-1.84 8.96 8.96 0 0 1 5.43.35c.94.4 1.72.97 2.33 1.71a7.36 7.36 0 0 1 1.43 2.67c.32 1.04.49 2.19.49 3.45V93h-3.94V78.81c0-1.69-.4-3-1.17-3.92-.76-.93-1.93-1.4-3.5-1.4a6.6 6.6 0 0 0-3.25.83c-1 .56-1.92 1.31-2.77 2.27V93h-3.94V70.71h2.35c.56 0 .9.28 1.04.82l.3 2.42zm57.7 3.3c0 2.36-.37 4.5-1.11 6.44a14.3 14.3 0 0 1-3.17 4.98 14.1 14.1 0 0 1-4.93 3.2c-1.9.76-4.02 1.13-6.33 1.13H85.8V61.47h11.77c2.31 0 4.42.39 6.33 1.15a13.8 13.8 0 0 1 8.1 8.18 17.75 17.75 0 0 1 1.12 6.45zm-4.37 0c0-1.94-.26-3.67-.8-5.2a10.94 10.94 0 0 0-2.23-3.87 9.57 9.57 0 0 0-3.53-2.42 12.23 12.23 0 0 0-4.61-.83h-7.5v24.62h7.5c1.7 0 3.24-.28 4.61-.84a9.7 9.7 0 0 0 3.53-2.4 10.94 10.94 0 0 0 2.24-3.87c.53-1.53.8-3.26.8-5.2zm19.8 5.72c-1.8.06-3.34.2-4.62.44-1.26.22-2.3.51-3.1.88-.8.36-1.37.8-1.74 1.3-.35.5-.53 1.05-.53 1.67 0 .58.1 1.1.3 1.52a3 3 0 0 0 .76 1.05c.34.27.73.46 1.17.6a6.13 6.13 0 0 0 1.45.17 7.28 7.28 0 0 0 3.5-.81 11.95 11.95 0 0 0 2.82-2.2v-4.62zm-12.65-9.11a12.73 12.73 0 0 1 3.98-2.66c1.43-.59 3-.88 4.73-.88 1.25 0 2.36.2 3.33.61a6.81 6.81 0 0 1 3.94 4.38c.33 1.04.5 2.19.5 3.43V93h-1.74a1.8 1.8 0 0 1-.88-.18c-.2-.13-.36-.38-.48-.74l-.44-2.12-1.72 1.46a9.48 9.48 0 0 1-3.74 1.7c-.69.15-1.46.23-2.3.23-.87 0-1.69-.12-2.45-.35a5.34 5.34 0 0 1-3.34-2.93 6.64 6.64 0 0 1-.49-2.64c0-.88.25-1.72.73-2.53a6.33 6.33 0 0 1 2.35-2.17c1.09-.63 2.5-1.15 4.25-1.54 1.75-.41 3.89-.65 6.42-.7v-1.75c0-1.73-.37-3.03-1.12-3.91-.75-.9-1.84-1.34-3.28-1.34-.97 0-1.78.12-2.44.37-.64.23-1.2.5-1.7.81l-1.23.82c-.33.23-.67.35-1 .35-.27 0-.5-.07-.69-.2a2.1 2.1 0 0 1-.48-.53l-.7-1.25zm27.67 19.5c-1.76 0-3.12-.5-4.07-1.48-.94-.98-1.41-2.4-1.41-4.25V74h-2.68a.9.9 0 0 1-.6-.2c-.16-.14-.24-.36-.24-.66v-1.56l3.65-.46.9-6.89a.9.9 0 0 1 .29-.52.88.88 0 0 1 .62-.22H142v7.67h6.44V74H142v13.38c0 .94.22 1.63.68 2.09.45.45 1.04.68 1.76.68a3.21 3.21 0 0 0 1.85-.53l.55-.35c.16-.12.3-.18.41-.18.2 0 .4.13.55.38l1.15 1.87a7.45 7.45 0 0 1-2.44 1.5 8.53 8.53 0 0 1-2.95.52zm19.68-10.4c-1.8.07-3.34.21-4.62.45-1.26.22-2.3.51-3.1.88-.8.36-1.37.8-1.74 1.3-.35.5-.53 1.05-.53 1.67 0 .58.1 1.1.3 1.52a2.9 2.9 0 0 0 .76 1.05c.34.27.73.46 1.17.6a6.13 6.13 0 0 0 1.45.17 7.3 7.3 0 0 0 3.5-.81 12.04 12.04 0 0 0 2.82-2.2v-4.62zm-12.65-9.1a12.72 12.72 0 0 1 3.99-2.66c1.42-.59 3-.88 4.72-.88 1.25 0 2.36.2 3.33.61a6.81 6.81 0 0 1 3.94 4.38c.33 1.04.5 2.19.5 3.43V93h-1.74a1.8 1.8 0 0 1-.88-.18c-.2-.13-.36-.38-.48-.74l-.44-2.12-1.72 1.46a9.48 9.48 0 0 1-3.74 1.7c-.69.15-1.46.23-2.3.23-.87 0-1.69-.12-2.45-.35a5.33 5.33 0 0 1-3.34-2.93 6.62 6.62 0 0 1-.49-2.64c0-.88.25-1.72.73-2.53a6.33 6.33 0 0 1 2.35-2.17c1.09-.63 2.5-1.15 4.25-1.54a31.2 31.2 0 0 1 6.42-.7v-1.75c0-1.73-.37-3.03-1.12-3.91-.75-.9-1.84-1.34-3.28-1.34-.97 0-1.78.12-2.44.37-.64.23-1.2.5-1.7.81l-1.22.82c-.34.23-.68.35-1.02.35-.26 0-.49-.07-.68-.2a1.88 1.88 0 0 1-.48-.53l-.7-1.25z" fill="#fff"/><path fill="#D42B21" d="M0 106.79h210V120H0z"/></g><defs><clipPath id="a"><path fill="#fff" d="M0 0h210v120H0z"/></clipPath></defs></svg></g><a href="https://ourworldindata.org/grapher/child-mortality-1990-vs-latest-slope" style="font-family:&quot;Playfair Display&quot;,Georgia,&quot;Times New Roman&quot;,serif" target="_blank" rel="noopener"><text font-size="25.2" x="15" y="35.2" fill="#555"><tspan x="15" y="35.16">Child mortality rate, 1990 to 2019</tspan></text></a><text font-size="14.4" x="15" y="55.7" fill="#666"><tspan x="15" y="55.72">The child mortality rate is the share of children who die before reaching the age of five.</tspan></text></g><g class="slopeChart"><g class="LabelledSlopes"><g class="gridlines" stroke="#eee" stroke-dasharray="3,2"><path d="M235.06 497.4h259.88M235.06 433.37h259.88M235.06 369.34h259.88M235.06 305.31h259.88M235.06 241.28h259.88M235.06 177.25h259.88M235.06 113.22h259.88"/></g><g class="axis" font-size=".8em" fill="#666" dominant-baseline="middle" text-anchor="start"><text x="15" y="497.4">0%</text><text x="15" y="433.37">5%</text><text x="15" y="369.34">10%</text><text x="15" y="305.31">15%</text><text x="15" y="241.28">20%</text><text x="15" y="177.25">25%</text><text x="15" y="113.22">30%</text></g><g class="axis" font-size=".8em" fill="#666" dominant-baseline="middle" text-anchor="end"><text x="715" y="497.4">0%</text><text x="715" y="433.37">5%</text><text x="715" y="369.34">10%</text><text x="715" y="305.31">15%</text><text x="715" y="241.28">20%</text><text x="715" y="177.25">25%</text><text x="715" y="113.22">30%</text></g><path stroke="#333" d="M235.06 497.4V76.6M494.94 497.4V76.6"/><text x="235.06" y="521.8" text-anchor="middle" fill="#666" font-size="18">1990</text><text x="494.94" y="521.8" text-anchor="middle" fill="#666" font-size="18">2019</text><g class="slopes"><g class="slope"><circle cx="235.06" cy="286.38" r="2" fill="#ff7f0e" opacity=".5"/><path stroke="#ff7f0e" stroke-width="1" opacity=".5" d="m235.06 286.38 259.88 134.06"/><circle cx="494.94" cy="420.44" r="2" fill="#ff7f0e" opacity=".5"/></g><g class="slope"><circle cx="235.06" cy="244.3" r="2" fill="#ff7f0e" opacity=".5"/><path stroke="#ff7f0e" stroke-width="1" opacity=".5" d="m235.06 244.3 259.88 129.12"/><circle cx="494.94" cy="373.42" r="2" fill="#ff7f0e" opacity=".5"/></g><g class="slope"><circle cx="235.06" cy="394.33" r="2" fill="#ff7f0e" opacity=".5"/><path stroke="#ff7f0e" stroke-width="1" opacity=".5" d="M235.06 394.33 494.94 453"/><circle cx="494.94" cy="453" r="2" fill="#ff7f0e" opacity=".5"/></g><g class="slope"><circle cx="235.06" cy="452.75" r="2" fill="#ff7f0e" opacity=".5"/><path stroke="#ff7f0e" stroke-width="1" opacity=".5" d="m235.06 452.75 259.88 23.09"/><circle cx="494.94" cy="475.84" r="2" fill="#ff7f0e" opacity=".5"/></g><g class="slope"><circle cx="235.06" cy="472.56" r="2" fill="#ff7f0e" opacity=".5"/><path stroke="#ff7f0e" stroke-width="1" opacity=".5" d="m235.06 472.56 259.88 18.67"/><circle cx="494.94" cy="491.23" r="2" fill="#ff7f0e" opacity=".5"/></g><g class="slope"><circle cx="235.06" cy="357.95" r="2" fill="#ff7f0e" opacity=".5"/><path stroke="#ff7f0e" stroke-width="1" opacity=".5" d="m235.06 357.95 259.88 95.94"/><circle cx="494.94" cy="453.89" r="2" fill="#ff7f0e" opacity=".5"/></g><g class="slope"><circle cx="235.06" cy="424.79" r="2" fill="#ff7f0e" opacity=".5"/><path stroke="#ff7f0e" stroke-width="1" opacity=".5" d="m235.06 424.79 259.88 54.3"/><circle cx="494.94" cy="479.09" r="2" fill="#ff7f0e" opacity=".5"/></g><g class="slope"><circle cx="235.06" cy="420.71" r="2" fill="#ff7f0e" opacity=".5"/><path stroke="#ff7f0e" stroke-width="1" opacity=".5" d="m235.06 420.71 259.88 57.56"/><circle cx="494.94" cy="478.27" r="2" fill="#ff7f0e" opacity=".5"/></g><g class="slope"><circle cx="235.06" cy="420.94" r="2" fill="#ff7f0e" opacity=".5"/><path stroke="#ff7f0e" stroke-width="1" opacity=".5" d="m235.06 420.94 259.88 57.29"/><circle cx="494.94" cy="478.23" r="2" fill="#ff7f0e" opacity=".5"/></g><g class="slope"><circle cx="235.06" cy="485.13" r="2" fill="#ff7f0e" opacity=".5"/><path stroke="#ff7f0e" stroke-width="1" opacity=".5" d="m235.06 485.13 259.88 7.48"/><circle cx="494.94" cy="492.61" r="2" fill="#ff7f0e" opacity=".5"/></g><g class="slope"><circle cx="235.06" cy="458.09" r="2" fill="#ff7f0e" opacity=".5"/><path stroke="#ff7f0e" stroke-width="1" opacity=".5" d="m235.06 458.09 259.88 28.94"/><circle cx="494.94" cy="487.03" r="2" fill="#ff7f0e" opacity=".5"/></g><g class="slope"><circle cx="235.06" cy="440.73" r="2" fill="#ff7f0e" opacity=".5"/><path stroke="#ff7f0e" stroke-width="1" opacity=".5" d="m235.06 440.73 259.88 42.49"/><circle cx="494.94" cy="483.22" r="2" fill="#ff7f0e" opacity=".5"/></g><g class="slope"><circle cx="235.06" cy="437.63" r="2" fill="#ff7f0e" opacity=".5"/><path stroke="#ff7f0e" stroke-width="1" opacity=".5" d="m235.06 437.63 259.88 45.02"/><circle cx="494.94" cy="482.65" r="2" fill="#ff7f0e" opacity=".5"/></g><g class="slope"><circle cx="235.06" cy="481.71" r="2" fill="#ff7f0e" opacity=".5"/><path stroke="#ff7f0e" stroke-width="1" opacity=".5" d="m235.06 481.71 259.88 10.63"/><circle cx="494.94" cy="492.34" r="2" fill="#ff7f0e" opacity=".5"/></g><g class="slope"><circle cx="235.06" cy="281.96" r="2" fill="#ff7f0e" opacity=".5"/><path stroke="#ff7f0e" stroke-width="1" opacity=".5" d="m235.06 281.96 259.88 115.09"/><circle cx="494.94" cy="397.05" r="2" fill="#ff7f0e" opacity=".5"/></g><g class="slope"><circle cx="235.06" cy="266.12" r="2" fill="#ff7f0e" opacity=".5"/><path stroke="#ff7f0e" stroke-width="1" opacity=".5" d="m235.06 266.12 259.88 146.19"/><circle cx="494.94" cy="412.31" r="2" fill="#ff7f0e" opacity=".5"/></g><g class="slope"><circle cx="235.06" cy="480.75" r="2" fill="#ff7f0e" opacity=".5"/><path stroke="#ff7f0e" stroke-width="1" opacity=".5" d="M235.06 480.75 494.94 491"/><circle cx="494.94" cy="491" r="2" fill="#ff7f0e" opacity=".5"/></g><g class="slope"><circle cx="235.06" cy="397.43" r="2" fill="#ff7f0e" opacity=".5"/><path stroke="#ff7f0e" stroke-width="1" opacity=".5" d="m235.06 397.43 259.88 71.87"/><circle cx="494.94" cy="469.3" r="2" fill="#ff7f0e" opacity=".5"/></g><g class="slope"><circle cx="235.06" cy="367.44" r="2" fill="#ff7f0e" opacity=".5"/><path stroke="#ff7f0e" stroke-width="1" opacity=".5" d="m235.06 367.44 259.88 77.67"/><circle cx="494.94" cy="445.11" r="2" fill="#ff7f0e" opacity=".5"/></g><g class="slope"><circle cx="235.06" cy="300.35" r="2" fill="#ff7f0e" opacity=".5"/><path stroke="#ff7f0e" stroke-width="1" opacity=".5" d="m235.06 300.35 259.88 89.35"/><circle cx="494.94" cy="389.7" r="2" fill="#ff7f0e" opacity=".5"/></g><g class="slope"><circle cx="235.06" cy="285.41" r="2" fill="#ff7f0e" opacity=".5"/><path stroke="#ff7f0e" stroke-width="1" opacity=".5" d="m235.06 285.41 259.88 134.06"/><circle cx="494.94" cy="419.47" r="2" fill="#ff7f0e" opacity=".5"/></g><g class="slope"><circle cx="235.06" cy="290.4" r="2" fill="#ff7f0e" opacity=".5"/><path stroke="#ff7f0e" stroke-width="1" opacity=".5" d="m235.06 290.4 259.88 118.9"/><circle cx="494.94" cy="409.3" r="2" fill="#ff7f0e" opacity=".5"/></g><g class="slope"><circle cx="235.06" cy="433.08" r="2" fill="#ff7f0e" opacity=".5"/><path stroke="#ff7f0e" stroke-width="1" opacity=".5" d="m235.06 433.08 259.88 51.7"/><circle cx="494.94" cy="484.78" r="2" fill="#ff7f0e" opacity=".5"/></g><g class="slope"><circle cx="235.06" cy="427.48" r="2" fill="#ff7f0e" opacity=".5"/><path stroke="#ff7f0e" stroke-width="1" opacity=".5" d="m235.06 427.48 259.88 49.05"/><circle cx="494.94" cy="476.53" r="2" fill="#ff7f0e" opacity=".5"/></g><g class="slope"><circle cx="235.06" cy="426.68" r="2" fill="#ff7f0e" opacity=".5"/><path stroke="#ff7f0e" stroke-width="1" opacity=".5" d="m235.06 426.68 259.88 49.75"/><circle cx="494.94" cy="476.43" r="2" fill="#ff7f0e" opacity=".5"/></g><g class="slope"><circle cx="235.06" cy="424.27" r="2" fill="#ff7f0e" opacity=".5"/><path stroke="#ff7f0e" stroke-width="1" opacity=".5" d="m235.06 424.27 259.88 52.52"/><circle cx="494.94" cy="476.79" r="2" fill="#ff7f0e" opacity=".5"/></g><g class="slope"><circle cx="235.06" cy="274.17" r="2" fill="#ff7f0e" opacity=".5"/><path stroke="#ff7f0e" stroke-width="1" opacity=".5" d="m235.06 274.17 259.88 142.9"/><circle cx="494.94" cy="417.07" r="2" fill="#ff7f0e" opacity=".5"/></g><g class="slope"><circle cx="235.06" cy="366.62" r="2" fill="#ff7f0e" opacity=".5"/><path stroke="#ff7f0e" stroke-width="1" opacity=".5" d="m235.06 366.62 259.88 78.31"/><circle cx="494.94" cy="444.93" r="2" fill="#ff7f0e" opacity=".5"/></g><g class="slope"><circle cx="235.06" cy="263.69" r="2" fill="#ff7f0e" opacity=".5"/><path stroke="#ff7f0e" stroke-width="1" opacity=".5" d="m235.06 263.69 259.88 147.14"/><circle cx="494.94" cy="410.83" r="2" fill="#ff7f0e" opacity=".5"/></g><g class="slope"><circle cx="235.06" cy="338.22" r="2" fill="#ff7f0e" opacity=".5"/><path stroke="#ff7f0e" stroke-width="1" opacity=".5" d="m235.06 338.22 259.88 96.56"/><circle cx="494.94" cy="434.78" r="2" fill="#ff7f0e" opacity=".5"/></g><g class="slope"><circle cx="235.06" cy="414.16" r="2" fill="#ff7f0e" opacity=".5"/><path stroke="#ff7f0e" stroke-width="1" opacity=".5" d="m235.06 414.16 259.88 55.2"/><circle cx="494.94" cy="469.36" r="2" fill="#ff7f0e" opacity=".5"/></g><g class="slope"><circle cx="235.06" cy="409.53" r="2" fill="#ff7f0e" opacity=".5"/><path stroke="#ff7f0e" stroke-width="1" opacity=".5" d="m235.06 409.53 259.88 57.48"/><circle cx="494.94" cy="467.01" r="2" fill="#ff7f0e" opacity=".5"/></g><g class="slope"><circle cx="235.06" cy="409.93" r="2" fill="#ff7f0e" opacity=".5"/><path stroke="#ff7f0e" stroke-width="1" opacity=".5" d="m235.06 409.93 259.88 57.17"/><circle cx="494.94" cy="467.1" r="2" fill="#ff7f0e" opacity=".5"/></g><g class="slope"><circle cx="235.06" cy="379.16" r="2" fill="#ff7f0e" opacity=".5"/><path stroke="#ff7f0e" stroke-width="1" opacity=".5" d="m235.06 379.16 259.88 73.19"/><circle cx="494.94" cy="452.35" r="2" fill="#ff7f0e" opacity=".5"/></g><g class="slope"><circle cx="235.06" cy="469.27" r="2" fill="#ff7f0e" opacity=".5"/><path stroke="#ff7f0e" stroke-width="1" opacity=".5" d="m235.06 469.27 259.88 19.21"/><circle cx="494.94" cy="488.48" r="2" fill="#ff7f0e" opacity=".5"/></g><g class="slope"><circle cx="235.06" cy="374.52" r="2" fill="#ff7f0e" opacity=".5"/><path stroke="#ff7f0e" stroke-width="1" opacity=".5" d="m235.06 374.52 259.88 61.76"/><circle cx="494.94" cy="436.28" r="2" fill="#ff7f0e" opacity=".5"/></g><g class="slope"><circle cx="235.06" cy="450.85" r="2" fill="#ff7f0e" opacity=".5"/><path stroke="#ff7f0e" stroke-width="1" opacity=".5" d="m235.06 450.85 259.88 15.9"/><circle cx="494.94" cy="466.75" r="2" fill="#ff7f0e" opacity=".5"/></g><g class="slope"><circle cx="235.06" cy="483.64" r="2" fill="#ff7f0e" opacity=".5"/><path stroke="#ff7f0e" stroke-width="1" opacity=".5" d="m235.06 483.64 259.88 7.55"/><circle cx="494.94" cy="491.19" r="2" fill="#ff7f0e" opacity=".5"/></g><g class="slope"><circle cx="235.06" cy="261.72" r="2" fill="#ff7f0e" opacity=".5"/><path stroke="#ff7f0e" stroke-width="1" opacity=".5" d="m235.06 261.72 259.88 134.1"/><circle cx="494.94" cy="395.82" r="2" fill="#ff7f0e" opacity=".5"/></g><g class="slope"><circle cx="235.06" cy="394.88" r="2" fill="#ff7f0e" opacity=".5"/><path stroke="#ff7f0e" stroke-width="1" opacity=".5" d="m235.06 394.88 259.88 48.6"/><circle cx="494.94" cy="443.48" r="2" fill="#ff7f0e" opacity=".5"/></g><g class="slope"><circle cx="235.06" cy="331.31" r="2" fill="#ff7f0e" opacity=".5"/><path stroke="#ff7f0e" stroke-width="1" opacity=".5" d="m235.06 331.31 259.88 114.61"/><circle cx="494.94" cy="445.92" r="2" fill="#ff7f0e" opacity=".5"/></g><g class="slope"><circle cx="235.06" cy="331.38" r="2" fill="#ff7f0e" opacity=".5"/><path stroke="#ff7f0e" stroke-width="1" opacity=".5" d="m235.06 331.38 259.88 114.51"/><circle cx="494.94" cy="445.89" r="2" fill="#ff7f0e" opacity=".5"/></g><g class="slope"><circle cx="235.06" cy="268.82" r="2" fill="#ff7f0e" opacity=".5"/><path stroke="#ff7f0e" stroke-width="1" opacity=".5" d="m235.06 268.82 259.88 131.51"/><circle cx="494.94" cy="400.33" r="2" fill="#ff7f0e" opacity=".5"/></g><g class="slope"><circle cx="235.06" cy="269.15" r="2" fill="#ff7f0e" opacity=".5"/><path stroke="#ff7f0e" stroke-width="1" opacity=".5" d="m235.06 269.15 259.88 131.26"/><circle cx="494.94" cy="400.41" r="2" fill="#ff7f0e" opacity=".5"/></g><g class="slope"><circle cx="235.06" cy="269.14" r="2" fill="#ff7f0e" opacity=".5"/><path stroke="#ff7f0e" stroke-width="1" opacity=".5" d="m235.06 269.14 259.88 131.27"/><circle cx="494.94" cy="400.41" r="2" fill="#ff7f0e" opacity=".5"/></g><g class="slope"><circle cx="235.06" cy="427.35" r="2" fill="#ff7f0e" opacity=".5"/><path stroke="#ff7f0e" stroke-width="1" opacity=".5" d="m235.06 427.35 259.88 53.02"/><circle cx="494.94" cy="480.37" r="2" fill="#ff7f0e" opacity=".5"/></g><g class="slope"><circle cx="235.06" cy="429.4" r="2" fill="#A8633C" opacity=".5"/><path stroke="#A8633C" stroke-width="1" opacity=".5" d="m235.06 429.4 259.88 37.39"/><circle cx="494.94" cy="466.79" r="2" fill="#A8633C" opacity=".5"/></g><g class="slope"><circle cx="235.06" cy="420.18" r="2" fill="#A8633C" opacity=".5"/><path stroke="#A8633C" stroke-width="1" opacity=".5" d="m235.06 420.18 259.88 37.65"/><circle cx="494.94" cy="457.83" r="2" fill="#A8633C" opacity=".5"/></g><g class="slope"><circle cx="235.06" cy="452.07" r="2" fill="#A8633C" opacity=".5"/><path stroke="#A8633C" stroke-width="1" opacity=".5" d="m235.06 452.07 259.88 23.18"/><circle cx="494.94" cy="475.25" r="2" fill="#A8633C" opacity=".5"/></g><g class="slope"><circle cx="235.06" cy="479.73" r="2" fill="#4C5C78" opacity=".5"/><path stroke="#4C5C78" stroke-width="1" opacity=".5" d="m235.06 479.73 259.88 15.49"/><circle cx="494.94" cy="495.22" r="2" fill="#4C5C78" opacity=".5"/></g><g class="slope"><circle cx="235.06" cy="487.41" r="2" fill="#4C5C78" opacity=".5"/><path stroke="#4C5C78" stroke-width="1" opacity=".5" d="m235.06 487.41 259.88 6.02"/><circle cx="494.94" cy="493.43" r="2" fill="#4C5C78" opacity=".5"/></g><g class="slope"><circle cx="235.06" cy="458.34" r="2" fill="#E04E4B" opacity=".5"/><path stroke="#E04E4B" stroke-width="1" opacity=".5" d="m235.06 458.34 259.88 19.34"/><circle cx="494.94" cy="477.68" r="2" fill="#E04E4B" opacity=".5"/></g><g class="slope"><circle cx="235.06" cy="434.27" r="2" fill="#A8633C" opacity=".5"/><path stroke="#A8633C" stroke-width="1" opacity=".5" d="m235.06 434.27 259.88 22.41"/><circle cx="494.94" cy="456.68" r="2" fill="#A8633C" opacity=".5"/></g><g class="slope"><circle cx="235.06" cy="480.75" r="2" fill="#4C5C78" opacity=".5"/><path stroke="#4C5C78" stroke-width="1" opacity=".5" d="m235.06 480.75 259.88 12.81"/><circle cx="494.94" cy="493.56" r="2" fill="#4C5C78" opacity=".5"/></g><g class="slope"><circle cx="235.06" cy="479.47" r="2" fill="#E04E4B" opacity=".5"/><path stroke="#E04E4B" stroke-width="1" opacity=".5" d="m235.06 479.47 259.88 9.48"/><circle cx="494.94" cy="488.95" r="2" fill="#E04E4B" opacity=".5"/></g><g class="slope"><circle cx="235.06" cy="476.27" r="2" fill="#E04E4B" opacity=".5"/><path stroke="#E04E4B" stroke-width="1" opacity=".5" d="m235.06 476.27 259.88-23.31"/><circle cx="494.94" cy="452.96" r="2" fill="#E04E4B" opacity=".5"/></g><g class="slope"><circle cx="235.06" cy="476.53" r="2" fill="#923E8B" opacity=".5"/><path stroke="#923E8B" stroke-width="1" opacity=".5" d="m235.06 476.53 259.88 2.69"/><circle cx="494.94" cy="479.22" r="2" fill="#923E8B" opacity=".5"/></g><g class="slope"><circle cx="235.06" cy="375.1" r="2" fill="#A8633C" opacity=".5"/><path stroke="#A8633C" stroke-width="1" opacity=".5" d="m235.06 375.1 259.88 57.12"/><circle cx="494.94" cy="432.22" r="2" fill="#A8633C" opacity=".5"/></g><g class="slope"><circle cx="235.06" cy="468.97" r="2" fill="#A8633C" opacity=".5"/><path stroke="#A8633C" stroke-width="1" opacity=".5" d="m235.06 468.97 259.88 7.17"/><circle cx="494.94" cy="476.14" r="2" fill="#A8633C" opacity=".5"/></g><g class="slope"><circle cx="235.06" cy="427.22" r="2" fill="#A8633C" opacity=".5"/><path stroke="#A8633C" stroke-width="1" opacity=".5" d="m235.06 427.22 259.88 32.53"/><circle cx="494.94" cy="459.75" r="2" fill="#A8633C" opacity=".5"/></g><g class="slope"><circle cx="235.06" cy="468.71" r="2" fill="#E04E4B" opacity=".5"/><path stroke="#E04E4B" stroke-width="1" opacity=".5" d="m235.06 468.71 259.88 7.56"/><circle cx="494.94" cy="476.27" r="2" fill="#E04E4B" opacity=".5"/></g><g class="slope"><circle cx="235.06" cy="466.92" r="2" fill="#E04E4B" opacity=".5"/><path stroke="#E04E4B" stroke-width="1" opacity=".5" d="m235.06 466.92 259.88 11.78"/><circle cx="494.94" cy="478.7" r="2" fill="#E04E4B" opacity=".5"/></g><g class="slope"><circle cx="235.06" cy="359.61" r="2" fill="#923E8B" opacity=".5"/><path stroke="#923E8B" stroke-width="1" opacity=".5" d="m235.06 359.61 259.88 99.63"/><circle cx="494.94" cy="459.24" r="2" fill="#923E8B" opacity=".5"/></g><g class="slope"><circle cx="235.06" cy="469.48" r="2" fill="#E04E4B" opacity=".5"/><path stroke="#E04E4B" stroke-width="1" opacity=".5" d="m235.06 469.48 259.88-.64"/><circle cx="494.94" cy="468.84" r="2" fill="#E04E4B" opacity=".5"/></g><g class="slope"><circle cx="235.06" cy="452.2" r="2" fill="#A8633C" opacity=".5"/><path stroke="#A8633C" stroke-width="1" opacity=".5" d="m235.06 452.2 259.88 12.03"/><circle cx="494.94" cy="464.23" r="2" fill="#A8633C" opacity=".5"/></g><g class="slope"><circle cx="235.06" cy="459.24" r="2" fill="#A8633C" opacity=".5"/><path stroke="#A8633C" stroke-width="1" opacity=".5" d="m235.06 459.24 259.88 18.95"/><circle cx="494.94" cy="478.19" r="2" fill="#A8633C" opacity=".5"/></g><g class="slope"><circle cx="235.06" cy="448.35" r="2" fill="#E04E4B" opacity=".5"/><path stroke="#E04E4B" stroke-width="1" opacity=".5" d="m235.06 448.35 259.88 33.3"/><circle cx="494.94" cy="481.65" r="2" fill="#E04E4B" opacity=".5"/></g><g class="slope"><circle cx="235.06" cy="387.53" r="2" fill="#2D8587" opacity=".5"/><path stroke="#2D8587" stroke-width="1" opacity=".5" d="m235.06 387.53 259.88 100.14"/><circle cx="494.94" cy="487.67" r="2" fill="#2D8587" opacity=".5"/></g><g class="slope"><circle cx="235.06" cy="489.08" r="2" fill="#4C5C78" opacity=".5"/><path stroke="#4C5C78" stroke-width="1" opacity=".5" d="m235.06 489.08 259.88 5.76"/><circle cx="494.94" cy="494.84" r="2" fill="#4C5C78" opacity=".5"/></g><g class="slope"><circle cx="235.06" cy="467.31" r="2" fill="#E04E4B" opacity=".5"/><path stroke="#E04E4B" stroke-width="1" opacity=".5" d="m235.06 467.31 259.88 13.95"/><circle cx="494.94" cy="481.26" r="2" fill="#E04E4B" opacity=".5"/></g><g class="slope"><circle cx="235.06" cy="480.37" r="2" fill="#2D8587" opacity=".5"/><path stroke="#2D8587" stroke-width="1" opacity=".5" d="m235.06 480.37 259.88 2.43"/><circle cx="494.94" cy="482.8" r="2" fill="#2D8587" opacity=".5"/></g><g class="slope"><circle cx="235.06" cy="474.22" r="2" fill="#E04E4B" opacity=".5"/><path stroke="#E04E4B" stroke-width="1" opacity=".5" d="m235.06 474.22 259.88 6.92"/><circle cx="494.94" cy="481.14" r="2" fill="#E04E4B" opacity=".5"/></g><g class="slope"><circle cx="235.06" cy="448.23" r="2" fill="#A8633C" opacity=".5"/><path stroke="#A8633C" stroke-width="1" opacity=".5" d="m235.06 448.23 259.88 23.94"/><circle cx="494.94" cy="472.17" r="2" fill="#A8633C" opacity=".5"/></g><g class="slope"><circle cx="235.06" cy="419.92" r="2" fill="#923E8B" opacity=".5"/><path stroke="#923E8B" stroke-width="1" opacity=".5" d="m235.06 419.92 259.88 58.4"/><circle cx="494.94" cy="478.32" r="2" fill="#923E8B" opacity=".5"/></g><g class="slope"><circle cx="235.06" cy="482.8" r="2" fill="#4C5C78" opacity=".5"/><path stroke="#4C5C78" stroke-width="1" opacity=".5" d="m235.06 482.8 259.88 5.64"/><circle cx="494.94" cy="488.44" r="2" fill="#4C5C78" opacity=".5"/></g><g class="slope"><circle cx="235.06" cy="486.26" r="2" fill="#4C5C78" opacity=".5"/><path stroke="#4C5C78" stroke-width="1" opacity=".5" d="m235.06 486.26 259.88 7.55"/><circle cx="494.94" cy="493.81" r="2" fill="#4C5C78" opacity=".5"/></g><g class="slope"><circle cx="235.06" cy="439.77" r="2" fill="#932834" opacity=".5"/><path stroke="#932834" stroke-width="1" opacity=".5" d="m235.06 439.77 259.88 34.58"/><circle cx="494.94" cy="474.35" r="2" fill="#932834" opacity=".5"/></g><g class="slope"><circle cx="235.06" cy="338.1" r="2" fill="#923E8B" opacity=".5"/><path stroke="#923E8B" stroke-width="1" opacity=".5" d="m235.06 338.1 259.88 78.75"/><circle cx="494.94" cy="416.85" r="2" fill="#923E8B" opacity=".5"/></g><g class="slope"><circle cx="235.06" cy="269.84" r="2" fill="#923E8B" opacity=".5"/><path stroke="#923E8B" stroke-width="1" opacity=".5" d="m235.06 269.84 259.88 122.81"/><circle cx="494.94" cy="392.65" r="2" fill="#923E8B" opacity=".5"/></g><g class="slope"><circle cx="235.06" cy="470.76" r="2" fill="#2D8587" opacity=".5"/><path stroke="#2D8587" stroke-width="1" opacity=".5" d="m235.06 470.76 259.88 18.32"/><circle cx="494.94" cy="489.08" r="2" fill="#2D8587" opacity=".5"/></g><g class="slope"><circle cx="235.06" cy="467.95" r="2" fill="#2D8587" opacity=".5"/><path stroke="#2D8587" stroke-width="1" opacity=".5" d="m235.06 467.95 259.88 20.61"/><circle cx="494.94" cy="488.56" r="2" fill="#2D8587" opacity=".5"/></g><g class="slope"><circle cx="235.06" cy="334.77" r="2" fill="#2D8587" opacity=".5"/><path stroke="#2D8587" stroke-width="1" opacity=".5" d="M235.06 334.77 494.94 460.9"/><circle cx="494.94" cy="460.9" r="2" fill="#2D8587" opacity=".5"/></g><g class="slope"><circle cx="235.06" cy="346.42" r="2" fill="#923E8B" opacity=".5"/><path stroke="#923E8B" stroke-width="1" opacity=".5" d="m235.06 346.42 259.88 77.35"/><circle cx="494.94" cy="423.77" r="2" fill="#923E8B" opacity=".5"/></g><g class="slope"><circle cx="235.06" cy="476.27" r="2" fill="#4C5C78" opacity=".5"/><path stroke="#4C5C78" stroke-width="1" opacity=".5" d="m235.06 476.27 259.88 18.18"/><circle cx="494.94" cy="494.45" r="2" fill="#4C5C78" opacity=".5"/></g><g class="slope"><circle cx="235.06" cy="460.39" r="2" fill="#A8633C" opacity=".5"/><path stroke="#A8633C" stroke-width="1" opacity=".5" d="m235.06 460.39 259.88 4.1"/><circle cx="494.94" cy="464.49" r="2" fill="#A8633C" opacity=".5"/></g><g class="slope"><circle cx="235.06" cy="273.68" r="2" fill="#2D8587" opacity=".5"/><path stroke="#2D8587" stroke-width="1" opacity=".5" d="M235.06 273.68 494.94 440.8"/><circle cx="494.94" cy="440.8" r="2" fill="#2D8587" opacity=".5"/></g><g class="slope"><circle cx="235.06" cy="420.44" r="2" fill="#932834" opacity=".5"/><path stroke="#932834" stroke-width="1" opacity=".5" d="m235.06 420.44 259.88 39.44"/><circle cx="494.94" cy="459.88" r="2" fill="#932834" opacity=".5"/></g><g class="slope"><circle cx="235.06" cy="483.06" r="2" fill="#4C5C78" opacity=".5"/><path stroke="#4C5C78" stroke-width="1" opacity=".5" d="m235.06 483.06 259.88 11.39"/><circle cx="494.94" cy="494.45" r="2" fill="#4C5C78" opacity=".5"/></g><g class="slope"><circle cx="235.06" cy="411.09" r="2" fill="#923E8B" opacity=".5"/><path stroke="#923E8B" stroke-width="1" opacity=".5" d="m235.06 411.09 259.88 23.05"/><circle cx="494.94" cy="434.14" r="2" fill="#923E8B" opacity=".5"/></g><g class="slope"><circle cx="235.06" cy="379.97" r="2" fill="#923E8B" opacity=".5"/><path stroke="#923E8B" stroke-width="1" opacity=".5" d="m235.06 379.97 259.88 63.01"/><circle cx="494.94" cy="442.98" r="2" fill="#923E8B" opacity=".5"/></g><g class="slope"><circle cx="235.06" cy="283.03" r="2" fill="#923E8B" opacity=".5"/><path stroke="#923E8B" stroke-width="1" opacity=".5" d="m235.06 283.03 259.88 148.16"/><circle cx="494.94" cy="431.19" r="2" fill="#923E8B" opacity=".5"/></g><g class="slope"><circle cx="235.06" cy="214.13" r="2" fill="#923E8B" opacity=".5"/><path stroke="#923E8B" stroke-width="1" opacity=".5" d="m235.06 214.13 259.88 182.74"/><circle cx="494.94" cy="396.87" r="2" fill="#923E8B" opacity=".5"/></g><g class="slope"><circle cx="235.06" cy="467.95" r="2" fill="#923E8B" opacity=".5"/><path stroke="#923E8B" stroke-width="1" opacity=".5" d="m235.06 467.95 259.88 8.96"/><circle cx="494.94" cy="476.91" r="2" fill="#923E8B" opacity=".5"/></g><g class="slope"><circle cx="235.06" cy="458.47" r="2" fill="#E04E4B" opacity=".5"/><path stroke="#E04E4B" stroke-width="1" opacity=".5" d="m235.06 458.47 259.88 16.52"/><circle cx="494.94" cy="474.99" r="2" fill="#E04E4B" opacity=".5"/></g><g class="slope"><circle cx="235.06" cy="435.42" r="2" fill="#923E8B" opacity=".5"/><path stroke="#923E8B" stroke-width="1" opacity=".5" d="m235.06 435.42 259.88 8.71"/><circle cx="494.94" cy="444.13" r="2" fill="#923E8B" opacity=".5"/></g><g class="slope"><circle cx="235.06" cy="404.81" r="2" fill="#923E8B" opacity=".5"/><path stroke="#923E8B" stroke-width="1" opacity=".5" d="m235.06 404.81 259.88 38.29"/><circle cx="494.94" cy="443.1" r="2" fill="#923E8B" opacity=".5"/></g><g class="slope"><circle cx="235.06" cy="474.73" r="2" fill="#4C5C78" opacity=".5"/><path stroke="#4C5C78" stroke-width="1" opacity=".5" d="m235.06 474.73 259.88 19.6"/><circle cx="494.94" cy="494.33" r="2" fill="#4C5C78" opacity=".5"/></g><g class="slope"><circle cx="235.06" cy="388.29" r="2" fill="#923E8B" opacity=".5"/><path stroke="#923E8B" stroke-width="1" opacity=".5" d="m235.06 388.29 259.88-1.53"/><circle cx="494.94" cy="386.76" r="2" fill="#923E8B" opacity=".5"/></g><g class="slope"><circle cx="235.06" cy="447.84" r="2" fill="#2D8587" opacity=".5"/><path stroke="#2D8587" stroke-width="1" opacity=".5" d="m235.06 447.84 259.88 34.96"/><circle cx="494.94" cy="482.8" r="2" fill="#2D8587" opacity=".5"/></g><g class="slope"><circle cx="235.06" cy="476.14" r="2" fill="#2D8587" opacity=".5"/><path stroke="#2D8587" stroke-width="1" opacity=".5" d="m235.06 476.14 259.88 11.66"/><circle cx="494.94" cy="487.8" r="2" fill="#2D8587" opacity=".5"/></g><g class="slope"><circle cx="235.06" cy="451.68" r="2" fill="#4C5C78" opacity=".5"/><path stroke="#4C5C78" stroke-width="1" opacity=".5" d="m235.06 451.68 259.88 37.91"/><circle cx="494.94" cy="489.59" r="2" fill="#4C5C78" opacity=".5"/></g><g class="slope"><circle cx="235.06" cy="484.08" r="2" fill="#4C5C78" opacity=".5"/><path stroke="#4C5C78" stroke-width="1" opacity=".5" d="m235.06 484.08 259.88 10.63"/><circle cx="494.94" cy="494.71" r="2" fill="#4C5C78" opacity=".5"/></g><g class="slope"><circle cx="235.06" cy="346.68" r="2" fill="#923E8B" opacity=".5"/><path stroke="#923E8B" stroke-width="1" opacity=".5" d="m235.06 346.68 259.88 57.37"/><circle cx="494.94" cy="404.05" r="2" fill="#923E8B" opacity=".5"/></g><g class="slope"><circle cx="235.06" cy="161.12" r="2" fill="#923E8B" opacity=".5"/><path stroke="#923E8B" stroke-width="1" opacity=".5" d="m235.06 161.12 259.88 227.94"/><circle cx="494.94" cy="389.06" r="2" fill="#923E8B" opacity=".5"/></g><g class="slope"><circle cx="235.06" cy="474.99" r="2" fill="#2D8587" opacity=".5"/><path stroke="#2D8587" stroke-width="1" opacity=".5" d="m235.06 474.99 259.88 12.29"/><circle cx="494.94" cy="487.28" r="2" fill="#2D8587" opacity=".5"/></g><g class="slope"><circle cx="235.06" cy="440.41" r="2" fill="#2D8587" opacity=".5"/><path stroke="#2D8587" stroke-width="1" opacity=".5" d="m235.06 440.41 259.88 32.15"/><circle cx="494.94" cy="472.56" r="2" fill="#2D8587" opacity=".5"/></g><g class="slope"><circle cx="235.06" cy="358.97" r="2" fill="#2D8587" opacity=".5"/><path stroke="#2D8587" stroke-width="1" opacity=".5" d="m235.06 358.97 259.88 118.45"/><circle cx="494.94" cy="477.42" r="2" fill="#2D8587" opacity=".5"/></g><g class="slope"><circle cx="235.06" cy="301.85" r="2" fill="#923E8B" opacity=".5"/><path stroke="#923E8B" stroke-width="1" opacity=".5" d="m235.06 301.85 259.88 143.69"/><circle cx="494.94" cy="445.54" r="2" fill="#923E8B" opacity=".5"/></g><g class="slope"><circle cx="235.06" cy="381.64" r="2" fill="#923E8B" opacity=".5"/><path stroke="#923E8B" stroke-width="1" opacity=".5" d="m235.06 381.64 259.88 54.55"/><circle cx="494.94" cy="436.19" r="2" fill="#923E8B" opacity=".5"/></g><g class="slope"><circle cx="235.06" cy="458.6" r="2" fill="#E04E4B" opacity=".5"/><path stroke="#E04E4B" stroke-width="1" opacity=".5" d="m235.06 458.6 259.88 21"/><circle cx="494.94" cy="479.6" r="2" fill="#E04E4B" opacity=".5"/></g><g class="slope"><circle cx="235.06" cy="458.09" r="2" fill="#E04E4B" opacity=".5"/><path stroke="#E04E4B" stroke-width="1" opacity=".5" d="m235.06 458.09 259.88 20.23"/><circle cx="494.94" cy="478.32" r="2" fill="#E04E4B" opacity=".5"/></g><g class="slope"><circle cx="235.06" cy="475.63" r="2" fill="#4C5C78" opacity=".5"/><path stroke="#4C5C78" stroke-width="1" opacity=".5" d="m235.06 475.63 259.88 17.16"/><circle cx="494.94" cy="492.79" r="2" fill="#4C5C78" opacity=".5"/></g><g class="slope"><circle cx="235.06" cy="456.29" r="2" fill="#2D8587" opacity=".5"/><path stroke="#2D8587" stroke-width="1" opacity=".5" d="m235.06 456.29 259.88 31.89"/><circle cx="494.94" cy="488.18" r="2" fill="#2D8587" opacity=".5"/></g><g class="slope"><circle cx="235.06" cy="270.99" r="2" fill="#923E8B" opacity=".5"/><path stroke="#923E8B" stroke-width="1" opacity=".5" d="m235.06 270.99 259.88 85.42"/><circle cx="494.94" cy="356.41" r="2" fill="#923E8B" opacity=".5"/></g><g class="slope"><circle cx="235.06" cy="487.54" r="2" fill="#2D8587" opacity=".5"/><path stroke="#2D8587" stroke-width="1" opacity=".5" d="m235.06 487.54 259.88 6.66"/><circle cx="494.94" cy="494.2" r="2" fill="#2D8587" opacity=".5"/></g><g class="slope"><circle cx="235.06" cy="468.07" r="2" fill="#932834" opacity=".5"/><path stroke="#932834" stroke-width="1" opacity=".5" d="m235.06 468.07 259.88 20.24"/><circle cx="494.94" cy="488.31" r="2" fill="#932834" opacity=".5"/></g><g class="slope"><circle cx="235.06" cy="475.76" r="2" fill="#E04E4B" opacity=".5"/><path stroke="#E04E4B" stroke-width="1" opacity=".5" d="m235.06 475.76 259.88 10.63"/><circle cx="494.94" cy="486.39" r="2" fill="#E04E4B" opacity=".5"/></g><g class="slope"><circle cx="235.06" cy="444.9" r="2" fill="#4C5C78" opacity=".5"/><path stroke="#4C5C78" stroke-width="1" opacity=".5" d="m235.06 444.9 259.88 40.08"/><circle cx="494.94" cy="484.98" r="2" fill="#4C5C78" opacity=".5"/></g><g class="slope"><circle cx="235.06" cy="483.06" r="2" fill="#A8633C" opacity=".5"/><path stroke="#A8633C" stroke-width="1" opacity=".5" d="m235.06 483.06 259.88 8.32"/><circle cx="494.94" cy="491.38" r="2" fill="#A8633C" opacity=".5"/></g><g class="slope"><circle cx="235.06" cy="485.62" r="2" fill="#4C5C78" opacity=".5"/><path stroke="#4C5C78" stroke-width="1" opacity=".5" d="m235.06 485.62 259.88 7.55"/><circle cx="494.94" cy="493.17" r="2" fill="#4C5C78" opacity=".5"/></g><g class="slope"><circle cx="235.06" cy="434.78" r="2" fill="#2D8587" opacity=".5"/><path stroke="#2D8587" stroke-width="1" opacity=".5" d="m235.06 434.78 259.88 47.51"/><circle cx="494.94" cy="482.29" r="2" fill="#2D8587" opacity=".5"/></g><g class="slope"><circle cx="235.06" cy="451.3" r="2" fill="#2D8587" opacity=".5"/><path stroke="#2D8587" stroke-width="1" opacity=".5" d="m235.06 451.3 259.88 26.12"/><circle cx="494.94" cy="477.42" r="2" fill="#2D8587" opacity=".5"/></g><g class="slope"><circle cx="235.06" cy="395.21" r="2" fill="#2D8587" opacity=".5"/><path stroke="#2D8587" stroke-width="1" opacity=".5" d="m235.06 395.21 259.88 48.41"/><circle cx="494.94" cy="443.62" r="2" fill="#2D8587" opacity=".5"/></g><g class="slope"><circle cx="235.06" cy="478.19" r="2" fill="#4C5C78" opacity=".5"/><path stroke="#4C5C78" stroke-width="1" opacity=".5" d="m235.06 478.19 259.88 14.47"/><circle cx="494.94" cy="492.66" r="2" fill="#4C5C78" opacity=".5"/></g><g class="slope"><circle cx="235.06" cy="312.36" r="2" fill="#923E8B" opacity=".5"/><path stroke="#923E8B" stroke-width="1" opacity=".5" d="m235.06 312.36 259.88 99.37"/><circle cx="494.94" cy="411.73" r="2" fill="#923E8B" opacity=".5"/></g><g class="slope"><circle cx="235.06" cy="412.24" r="2" fill="#E04E4B" opacity=".5"/><path stroke="#E04E4B" stroke-width="1" opacity=".5" d="m235.06 412.24 259.88 63.9"/><circle cx="494.94" cy="476.14" r="2" fill="#E04E4B" opacity=".5"/></g><g class="slope"><circle cx="235.06" cy="439.39" r="2" fill="#932834" opacity=".5"/><path stroke="#932834" stroke-width="1" opacity=".5" d="m235.06 439.39 259.88 33.17"/><circle cx="494.94" cy="472.56" r="2" fill="#932834" opacity=".5"/></g><g class="slope"><circle cx="235.06" cy="486.26" r="2" fill="#4C5C78" opacity=".5"/><path stroke="#4C5C78" stroke-width="1" opacity=".5" d="m235.06 486.26 259.88 8.07"/><circle cx="494.94" cy="494.33" r="2" fill="#4C5C78" opacity=".5"/></g><g class="slope"><circle cx="235.06" cy="301.47" r="2" fill="#2D8587" opacity=".5"/><path stroke="#2D8587" stroke-width="1" opacity=".5" d="m235.06 301.47 259.88 137.66"/><circle cx="494.94" cy="439.13" r="2" fill="#2D8587" opacity=".5"/></g><g class="slope"><text font-size="11.7" x="183.2" y="168.2" text-anchor="end" fill="#333"><tspan x="183.16" y="168.21">Sierra Leone</tspan></text><text x="227.06" y="168.21" text-anchor="end" font-size="11.7" fill="#333">25.98%</text><circle cx="235.06" cy="164.7" r="2" fill="#923E8B" opacity=".5"/><path stroke="#923E8B" stroke-width="1" opacity=".5" d="m235.06 164.7 259.88 192.86"/><circle cx="494.94" cy="357.56" r="2" fill="#923E8B" opacity=".5"/></g><g class="slope"><circle cx="235.06" cy="454.88" r="2" fill="#4C5C78" opacity=".5"/><path stroke="#4C5C78" stroke-width="1" opacity=".5" d="m235.06 454.88 259.88 24.08"/><circle cx="494.94" cy="478.96" r="2" fill="#4C5C78" opacity=".5"/></g><g class="slope"><circle cx="235.06" cy="414.16" r="2" fill="#2D8587" opacity=".5"/><path stroke="#2D8587" stroke-width="1" opacity=".5" d="m235.06 414.16 259.88 59.81"/><circle cx="494.94" cy="473.97" r="2" fill="#2D8587" opacity=".5"/></g><g class="slope"><circle cx="235.06" cy="444" r="2" fill="#923E8B" opacity=".5"/><path stroke="#923E8B" stroke-width="1" opacity=".5" d="m235.06 444 259.88 38.67"/><circle cx="494.94" cy="482.67" r="2" fill="#923E8B" opacity=".5"/></g><g class="slope"><circle cx="235.06" cy="482.55" r="2" fill="#2D8587" opacity=".5"/><path stroke="#2D8587" stroke-width="1" opacity=".5" d="m235.06 482.55 259.88 10.11"/><circle cx="494.94" cy="492.66" r="2" fill="#2D8587" opacity=".5"/></g><g class="slope"><circle cx="235.06" cy="474.22" r="2" fill="#4C5C78" opacity=".5"/><path stroke="#4C5C78" stroke-width="1" opacity=".5" d="m235.06 474.22 259.88 15.62"/><circle cx="494.94" cy="489.84" r="2" fill="#4C5C78" opacity=".5"/></g><g class="slope"><circle cx="235.06" cy="388.93" r="2" fill="#A8633C" opacity=".5"/><path stroke="#A8633C" stroke-width="1" opacity=".5" d="m235.06 388.93 259.88 51.1"/><circle cx="494.94" cy="440.03" r="2" fill="#A8633C" opacity=".5"/></g><g class="slope"><circle cx="235.06" cy="481.01" r="2" fill="#4C5C78" opacity=".5"/><path stroke="#4C5C78" stroke-width="1" opacity=".5" d="m235.06 481.01 259.88 10.24"/><circle cx="494.94" cy="491.25" r="2" fill="#4C5C78" opacity=".5"/></g><g class="slope"><circle cx="235.06" cy="423.13" r="2" fill="#E04E4B" opacity=".5"/><path stroke="#E04E4B" stroke-width="1" opacity=".5" d="m235.06 423.13 259.88 52.76"/><circle cx="494.94" cy="475.89" r="2" fill="#E04E4B" opacity=".5"/></g><g class="slope"><circle cx="235.06" cy="273.17" r="2" fill="#923E8B" opacity=".5"/><path stroke="#923E8B" stroke-width="1" opacity=".5" d="m235.06 273.17 259.88 108.59"/><circle cx="494.94" cy="381.76" r="2" fill="#923E8B" opacity=".5"/></g><g class="slope"><circle cx="235.06" cy="488.82" r="2" fill="#4C5C78" opacity=".5"/><path stroke="#4C5C78" stroke-width="1" opacity=".5" d="m235.06 488.82 259.88 5.51"/><circle cx="494.94" cy="494.33" r="2" fill="#4C5C78" opacity=".5"/></g><g class="slope"><circle cx="235.06" cy="485.87" r="2" fill="#4C5C78" opacity=".5"/><path stroke="#4C5C78" stroke-width="1" opacity=".5" d="m235.06 485.87 259.88 6.66"/><circle cx="494.94" cy="492.53" r="2" fill="#4C5C78" opacity=".5"/></g><g class="slope"><circle cx="235.06" cy="421.08" r="2" fill="#E04E4B" opacity=".5"/><path stroke="#E04E4B" stroke-width="1" opacity=".5" d="m235.06 421.08 259.88 59.29"/><circle cx="494.94" cy="480.37" r="2" fill="#E04E4B" opacity=".5"/></g><g class="slope"><circle cx="235.06" cy="366.91" r="2" fill="#2D8587" opacity=".5"/><path stroke="#2D8587" stroke-width="1" opacity=".5" d="m235.06 366.91 259.88 87.21"/><circle cx="494.94" cy="454.12" r="2" fill="#2D8587" opacity=".5"/></g><g class="slope"><circle cx="235.06" cy="478.58" r="2" fill="#4C5C78" opacity=".5"/><path stroke="#4C5C78" stroke-width="1" opacity=".5" d="m235.06 478.58 259.88 11.39"/><circle cx="494.94" cy="489.97" r="2" fill="#4C5C78" opacity=".5"/></g><g class="slope"><circle cx="235.06" cy="436.32" r="2" fill="#2D8587" opacity=".5"/><path stroke="#2D8587" stroke-width="1" opacity=".5" d="m235.06 436.32 259.88 48.79"/><circle cx="494.94" cy="485.11" r="2" fill="#2D8587" opacity=".5"/></g><g class="slope"><circle cx="235.06" cy="274.19" r="2" fill="#923E8B" opacity=".5"/><path stroke="#923E8B" stroke-width="1" opacity=".5" d="m235.06 274.19 259.88 150.86"/><circle cx="494.94" cy="425.05" r="2" fill="#923E8B" opacity=".5"/></g><g class="slope"><circle cx="235.06" cy="177" r="2" fill="#923E8B" opacity=".5"/><path stroke="#923E8B" stroke-width="1" opacity=".5" d="m235.06 177 259.88 197.21"/><circle cx="494.94" cy="374.21" r="2" fill="#923E8B" opacity=".5"/></g><g class="slope"><circle cx="235.06" cy="225.79" r="2" fill="#923E8B" opacity=".5"/><path stroke="#923E8B" stroke-width="1" opacity=".5" d="m235.06 225.79 259.88 125.88"/><circle cx="494.94" cy="351.67" r="2" fill="#923E8B" opacity=".5"/></g><g class="slope"><circle cx="235.06" cy="201.33" r="2" fill="#923E8B" opacity=".5"/><path stroke="#923E8B" stroke-width="1" opacity=".5" d="m235.06 201.33 259.88 169.55"/><circle cx="494.94" cy="370.88" r="2" fill="#923E8B" opacity=".5"/></g><g class="slope"><circle cx="235.06" cy="486.9" r="2" fill="#4C5C78" opacity=".5"/><path stroke="#4C5C78" stroke-width="1" opacity=".5" d="m235.06 486.9 259.88 5.38"/><circle cx="494.94" cy="492.28" r="2" fill="#4C5C78" opacity=".5"/></g><g class="slope"><circle cx="235.06" cy="341.81" r="2" fill="#932834" opacity=".5"/><path stroke="#932834" stroke-width="1" opacity=".5" d="M235.06 341.81 494.94 464.1"/><circle cx="494.94" cy="464.1" r="2" fill="#932834" opacity=".5"/></g><g class="slope"><circle cx="235.06" cy="312.23" r="2" fill="#E04E4B" opacity=".5"/><path stroke="#E04E4B" stroke-width="1" opacity=".5" d="m235.06 312.23 259.88 104.75"/><circle cx="494.94" cy="416.98" r="2" fill="#E04E4B" opacity=".5"/></g><g class="slope"><circle cx="235.06" cy="420.56" r="2" fill="#E04E4B" opacity=".5"/><path stroke="#E04E4B" stroke-width="1" opacity=".5" d="m235.06 420.56 259.88 40.98"/><circle cx="494.94" cy="461.54" r="2" fill="#E04E4B" opacity=".5"/></g><g class="slope"><circle cx="235.06" cy="269.2" r="2" fill="#923E8B" opacity=".5"/><path stroke="#923E8B" stroke-width="1" opacity=".5" d="m235.06 269.2 259.88 78.37"/><circle cx="494.94" cy="347.57" r="2" fill="#923E8B" opacity=".5"/></g><g class="slope"><circle cx="235.06" cy="375.49" r="2" fill="#2D8587" opacity=".5"/><path stroke="#2D8587" stroke-width="1" opacity=".5" d="m235.06 375.49 259.88 95.79"/><circle cx="494.94" cy="471.28" r="2" fill="#2D8587" opacity=".5"/></g><g class="slope"><circle cx="235.06" cy="305.57" r="2" fill="#923E8B" opacity=".5"/><path stroke="#923E8B" stroke-width="1" opacity=".5" d="m235.06 305.57 259.88 147.91"/><circle cx="494.94" cy="453.48" r="2" fill="#923E8B" opacity=".5"/></g><g class="slope"><circle cx="235.06" cy="319.91" r="2" fill="#923E8B" opacity=".5"/><path stroke="#923E8B" stroke-width="1" opacity=".5" d="m235.06 319.91 259.88 119.48"/><circle cx="494.94" cy="439.39" r="2" fill="#923E8B" opacity=".5"/></g><g class="slope"><circle cx="235.06" cy="485.23" r="2" fill="#4C5C78" opacity=".5"/><path stroke="#4C5C78" stroke-width="1" opacity=".5" d="m235.06 485.23 259.88 7.69"/><circle cx="494.94" cy="492.92" r="2" fill="#4C5C78" opacity=".5"/></g><g class="slope"><text font-size="11.7" x="183.2" y="80.1" text-anchor="end" fill="#333"><tspan x="183.16" y="80.11">Niger</tspan></text><text x="227.06" y="80.11" text-anchor="end" font-size="11.7" fill="#333">32.86%</text><circle cx="235.06" cy="76.6" r="2" fill="#923E8B" opacity=".5"/><path stroke="#923E8B" stroke-width="1" opacity=".5" d="m235.06 76.6 259.88 317.84"/><circle cx="494.94" cy="394.44" r="2" fill="#923E8B" opacity=".5"/></g><g class="slope"><circle cx="235.06" cy="267.54" r="2" fill="#923E8B" opacity=".5"/><path stroke="#923E8B" stroke-width="1" opacity=".5" d="m235.06 267.54 259.88 150.85"/><circle cx="494.94" cy="418.39" r="2" fill="#923E8B" opacity=".5"/></g><g class="slope"><circle cx="235.06" cy="426.58" r="2" fill="#923E8B" opacity=".5"/><path stroke="#923E8B" stroke-width="1" opacity=".5" d="m235.06 426.58 259.88 49.18"/><circle cx="494.94" cy="475.76" r="2" fill="#923E8B" opacity=".5"/></g><g class="slope"><circle cx="235.06" cy="202.87" r="2" fill="#923E8B" opacity=".5"/><path stroke="#923E8B" stroke-width="1" opacity=".5" d="m235.06 202.87 259.88 174.16"/><circle cx="494.94" cy="377.03" r="2" fill="#923E8B" opacity=".5"/></g><g class="slope"><circle cx="235.06" cy="488.44" r="2" fill="#4C5C78" opacity=".5"/><path stroke="#4C5C78" stroke-width="1" opacity=".5" d="m235.06 488.44 259.88 5.63"/><circle cx="494.94" cy="494.07" r="2" fill="#4C5C78" opacity=".5"/></g><g class="slope"><circle cx="235.06" cy="243.2" r="2" fill="#923E8B" opacity=".5"/><path stroke="#923E8B" stroke-width="1" opacity=".5" d="m235.06 243.2 259.88 142.15"/><circle cx="494.94" cy="385.35" r="2" fill="#923E8B" opacity=".5"/></g><g class="slope"><circle cx="235.06" cy="473.84" r="2" fill="#4C5C78" opacity=".5"/><path stroke="#4C5C78" stroke-width="1" opacity=".5" d="m235.06 473.84 259.88 14.98"/><circle cx="494.94" cy="488.82" r="2" fill="#4C5C78" opacity=".5"/></g><g class="slope"><circle cx="235.06" cy="348.98" r="2" fill="#2D8587" opacity=".5"/><path stroke="#2D8587" stroke-width="1.01" opacity=".5" d="m235.06 348.98 259.88 114.36"/><circle cx="494.94" cy="463.34" r="2" fill="#2D8587" opacity=".5"/></g><g class="slope"><circle cx="235.06" cy="394.83" r="2" fill="#E04E4B" opacity=".5"/><path stroke="#E04E4B" stroke-width="1.01" opacity=".5" d="m235.06 394.83 259.88 71.2"/><circle cx="494.94" cy="466.03" r="2" fill="#E04E4B" opacity=".5"/></g><g class="slope"><circle cx="235.06" cy="186.47" r="2" fill="#923E8B" opacity=".5"/><path stroke="#923E8B" stroke-width="1.01" opacity=".5" d="m235.06 186.47 259.88 257.66"/><circle cx="494.94" cy="444.13" r="2" fill="#923E8B" opacity=".5"/></g><g class="slope"><circle cx="235.06" cy="461.67" r="2" fill="#4C5C78" opacity=".5"/><path stroke="#4C5C78" stroke-width="1.01" opacity=".5" d="m235.06 461.67 259.88 28.94"/><circle cx="494.94" cy="490.61" r="2" fill="#4C5C78" opacity=".5"/></g><g class="slope"><circle cx="235.06" cy="478.58" r="2" fill="#4C5C78" opacity=".5"/><path stroke="#4C5C78" stroke-width="1.01" opacity=".5" d="m235.06 478.58 259.88 14.08"/><circle cx="494.94" cy="492.66" r="2" fill="#4C5C78" opacity=".5"/></g><g class="slope"><circle cx="235.06" cy="484.59" r="2" fill="#4C5C78" opacity=".5"/><path stroke="#4C5C78" stroke-width="1.01" opacity=".5" d="m235.06 484.59 259.88 8.46"/><circle cx="494.94" cy="493.05" r="2" fill="#4C5C78" opacity=".5"/></g><g class="slope"><circle cx="235.06" cy="477.94" r="2" fill="#4C5C78" opacity=".5"/><path stroke="#4C5C78" stroke-width="1.01" opacity=".5" d="m235.06 477.94 259.88 15.36"/><circle cx="494.94" cy="493.3" r="2" fill="#4C5C78" opacity=".5"/></g><g class="slope"><circle cx="235.06" cy="484.08" r="2" fill="#4C5C78" opacity=".5"/><path stroke="#4C5C78" stroke-width="1.01" opacity=".5" d="m235.06 484.08 259.88 8.45"/><circle cx="494.94" cy="492.53" r="2" fill="#4C5C78" opacity=".5"/></g><g class="slope"><circle cx="235.06" cy="428.76" r="2" fill="#932834" opacity=".5"/><path stroke="#932834" stroke-width="1.01" opacity=".5" d="m235.06 428.76 259.88 50.71"/><circle cx="494.94" cy="479.47" r="2" fill="#932834" opacity=".5"/></g><g class="slope"><circle cx="235.06" cy="481.78" r="2" fill="#4C5C78" opacity=".5"/><path stroke="#4C5C78" stroke-width="1.01" opacity=".5" d="m235.06 481.78 259.88 11.52"/><circle cx="494.94" cy="493.3" r="2" fill="#4C5C78" opacity=".5"/></g><g class="slope"><circle cx="235.06" cy="475.37" r="2" fill="#4C5C78" opacity=".5"/><path stroke="#4C5C78" stroke-width="1.01" opacity=".5" d="m235.06 475.37 259.88 17.29"/><circle cx="494.94" cy="492.66" r="2" fill="#4C5C78" opacity=".5"/></g><g class="slope"><circle cx="235.06" cy="399.31" r="2" fill="#923E8B" opacity=".5"/><path stroke="#923E8B" stroke-width="1.01" opacity=".5" d="m235.06 399.31 259.88 28.17"/><circle cx="494.94" cy="427.48" r="2" fill="#923E8B" opacity=".5"/></g><g class="slope"><circle cx="235.06" cy="480.11" r="2" fill="#E04E4B" opacity=".5"/><path stroke="#E04E4B" stroke-width="1.01" opacity=".5" d="m235.06 480.11 259.88 10.76"/><circle cx="494.94" cy="490.87" r="2" fill="#E04E4B" opacity=".5"/></g><g class="slope"><circle cx="235.06" cy="295.96" r="2" fill="#923E8B" opacity=".5"/><path stroke="#923E8B" stroke-width="1.01" opacity=".5" d="M235.06 295.96 494.94 432.6"/><circle cx="494.94" cy="432.6" r="2" fill="#923E8B" opacity=".5"/></g><g class="slope"><circle cx="235.06" cy="336.3" r="2" fill="#2D8587" opacity=".5"/><path stroke="#2D8587" stroke-width="1.01" opacity=".5" d="m235.06 336.3 259.88 86.31"/><circle cx="494.94" cy="422.61" r="2" fill="#2D8587" opacity=".5"/></g><g class="slope"><circle cx="235.06" cy="323.62" r="2" fill="#923E8B" opacity=".5"/><path stroke="#923E8B" stroke-width="1.01" opacity=".5" d="m235.06 323.62 259.88 77.99"/><circle cx="494.94" cy="401.61" r="2" fill="#923E8B" opacity=".5"/></g><g class="slope"><text font-size="11.7" x="183.2" y="216.4" text-anchor="end" fill="#333"><tspan x="183.16" y="216.36">Angola</tspan></text><text x="227.06" y="216.36" text-anchor="end" font-size="11.7" fill="#333">22.22%</text><circle cx="235.06" cy="212.85" r="2" fill="#923E8B" opacity=".5"/><path stroke="#923E8B" stroke-width="1.01" opacity=".5" d="m235.06 212.85 259.88 188.89"/><circle cx="494.94" cy="401.74" r="2" fill="#923E8B" opacity=".5"/></g><g class="slope"><circle cx="235.06" cy="302.37" r="2" fill="#923E8B" opacity=".5"/><path stroke="#923E8B" stroke-width="1.01" opacity=".5" d="m235.06 302.37 259.88 93.48"/><circle cx="494.94" cy="395.85" r="2" fill="#923E8B" opacity=".5"/></g><g class="slope"><circle cx="235.06" cy="269.84" r="2" fill="#2D8587" opacity=".5"/><path stroke="#2D8587" stroke-width="1.01" opacity=".5" d="m235.06 269.84 259.88 150.34"/><circle cx="494.94" cy="420.18" r="2" fill="#2D8587" opacity=".5"/></g><g class="slope"><circle cx="235.06" cy="450.53" r="2" fill="#2D8587" opacity=".5"/><path stroke="#2D8587" stroke-width="1.01" opacity=".5" d="m235.06 450.53 259.88 19.34"/><circle cx="494.94" cy="469.87" r="2" fill="#2D8587" opacity=".5"/></g><g class="slope"><text font-size="11.7" x="183.2" y="189.6" text-anchor="end" fill="#333"><tspan x="183.16" y="189.6">Mozambique</tspan></text><text x="227.06" y="189.6" text-anchor="end" font-size="11.7" fill="#333">24.31%</text><circle cx="235.06" cy="186.09" r="2" fill="#923E8B" opacity=".5"/><path stroke="#923E8B" stroke-width="1.01" opacity=".5" d="m235.06 186.09 259.88 216.29"/><circle cx="494.94" cy="402.38" r="2" fill="#923E8B" opacity=".5"/></g><g class="slope"><circle cx="235.06" cy="472.94" r="2" fill="#932834" opacity=".5"/><path stroke="#932834" stroke-width="1.01" opacity=".5" d="m235.06 472.94 259.88 15.5"/><circle cx="494.94" cy="488.44" r="2" fill="#932834" opacity=".5"/></g><g class="slope"><circle cx="235.06" cy="334.51" r="2" fill="#923E8B" opacity=".5"/><path stroke="#923E8B" stroke-width="1.01" opacity=".5" d="m235.06 334.51 259.88 103.73"/><circle cx="494.94" cy="438.24" r="2" fill="#923E8B" opacity=".5"/></g><g class="slope"><circle cx="235.06" cy="486.77" r="2" fill="#4C5C78" opacity=".5"/><path stroke="#4C5C78" stroke-width="1.01" opacity=".5" d="m235.06 486.77 259.88 5.51"/><circle cx="494.94" cy="492.28" r="2" fill="#4C5C78" opacity=".5"/></g><g class="slope"><circle cx="235.06" cy="440.54" r="2" fill="#2D8587" opacity=".5"/><path stroke="#2D8587" stroke-width="1.01" opacity=".5" d="m235.06 440.54 259.88 48.41"/><circle cx="494.94" cy="488.95" r="2" fill="#2D8587" opacity=".5"/></g><g class="slope"><circle cx="235.06" cy="431.07" r="2" fill="#2D8587" opacity=".5"/><path stroke="#2D8587" stroke-width="1.01" opacity=".5" d="m235.06 431.07 259.88 52.88"/><circle cx="494.94" cy="483.95" r="2" fill="#2D8587" opacity=".5"/></g><g class="slope"><circle cx="235.06" cy="485.62" r="2" fill="#A8633C" opacity=".5"/><path stroke="#A8633C" stroke-width="1.01" opacity=".5" d="m235.06 485.62 259.88 7.17"/><circle cx="494.94" cy="492.79" r="2" fill="#A8633C" opacity=".5"/></g><g class="slope"><circle cx="235.06" cy="469.36" r="2" fill="#2D8587" opacity=".5"/><path stroke="#2D8587" stroke-width="1.01" opacity=".5" d="m235.06 469.36 259.88 18.95"/><circle cx="494.94" cy="488.31" r="2" fill="#2D8587" opacity=".5"/></g><g class="slope"><circle cx="235.06" cy="264.21" r="2" fill="#923E8B" opacity=".5"/><path stroke="#923E8B" stroke-width="1.01" opacity=".5" d="m235.06 264.21 259.88 174.54"/><circle cx="494.94" cy="438.75" r="2" fill="#923E8B" opacity=".5"/></g><g class="slope"><circle cx="235.06" cy="428.89" r="2" fill="#2D8587" opacity=".5"/><path stroke="#2D8587" stroke-width="1.01" opacity=".5" d="m235.06 428.89 259.88 35.34"/><circle cx="494.94" cy="464.23" r="2" fill="#2D8587" opacity=".5"/></g><g class="slope"><circle cx="235.06" cy="476.14" r="2" fill="#2D8587" opacity=".5"/><path stroke="#2D8587" stroke-width="1.01" opacity=".5" d="m235.06 476.14 259.88 10.25"/><circle cx="494.94" cy="486.39" r="2" fill="#2D8587" opacity=".5"/></g><g class="slope"><circle cx="235.06" cy="318.37" r="2" fill="#2D8587" opacity=".5"/><path stroke="#2D8587" stroke-width="1.01" opacity=".5" d="m235.06 318.37 259.88 139.59"/><circle cx="494.94" cy="457.96" r="2" fill="#2D8587" opacity=".5"/></g><g class="slope"><circle cx="235.06" cy="459.62" r="2" fill="#932834" opacity=".5"/><path stroke="#932834" stroke-width="1.01" opacity=".5" d="m235.06 459.62 259.88 6.79"/><circle cx="494.94" cy="466.41" r="2" fill="#932834" opacity=".5"/></g><g class="slope"><circle cx="235.06" cy="330.16" r="2" fill="#923E8B" opacity=".5"/><path stroke="#923E8B" stroke-width="1.01" opacity=".5" d="m235.06 330.16 259.88 92.45"/><circle cx="494.94" cy="422.61" r="2" fill="#923E8B" opacity=".5"/></g><g class="slope"><circle cx="235.06" cy="441.82" r="2" fill="#2D8587" opacity=".5"/><path stroke="#2D8587" stroke-width="1.01" opacity=".5" d="m235.06 441.82 259.88 33.43"/><circle cx="494.94" cy="475.25" r="2" fill="#2D8587" opacity=".5"/></g><g class="slope"><circle cx="235.06" cy="404.81" r="2" fill="#2D8587" opacity=".5"/><path stroke="#2D8587" stroke-width="1.01" opacity=".5" d="m235.06 404.81 259.88 70.31"/><circle cx="494.94" cy="475.12" r="2" fill="#2D8587" opacity=".5"/></g><g class="slope"><circle cx="235.06" cy="394.57" r="2" fill="#932834" opacity=".5"/><path stroke="#932834" stroke-width="1.01" opacity=".5" d="m235.06 394.57 259.88 85.93"/><circle cx="494.94" cy="480.5" r="2" fill="#932834" opacity=".5"/></g><g class="slope"><circle cx="235.06" cy="457.83" r="2" fill="#4C5C78" opacity=".5"/><path stroke="#4C5C78" stroke-width="1.01" opacity=".5" d="m235.06 457.83 259.88 30.61"/><circle cx="494.94" cy="488.44" r="2" fill="#4C5C78" opacity=".5"/></g><g class="slope"><circle cx="235.06" cy="367.42" r="2" fill="#923E8B" opacity=".5"/><path stroke="#923E8B" stroke-width="1.01" opacity=".5" d="m235.06 367.42 259.88 74.66"/><circle cx="494.94" cy="442.08" r="2" fill="#923E8B" opacity=".5"/></g><g class="slope"><circle cx="235.06" cy="396.11" r="2" fill="#923E8B" opacity=".5"/><path stroke="#923E8B" stroke-width="1.01" opacity=".5" d="M235.06 396.11 494.94 470"/><circle cx="494.94" cy="470" r="2" fill="#923E8B" opacity=".5"/></g><g class="slope"><text font-size="11.7" x="183.2" y="289.5" text-anchor="end" fill="#333"><tspan x="183.16" y="289.49">Tanzania</tspan></text><text x="227.06" y="289.49" text-anchor="end" font-size="11.7" fill="#333">16.51%</text><circle cx="235.06" cy="285.98" r="2" fill="#923E8B" opacity=".5"/><path stroke="#923E8B" stroke-width="1.01" opacity=".5" d="m235.06 285.98 259.88 147.01"/><circle cx="494.94" cy="432.99" r="2" fill="#923E8B" opacity=".5"/></g><g class="slope"><circle cx="235.06" cy="434.01" r="2" fill="#923E8B" opacity=".5"/><path stroke="#923E8B" stroke-width="1.01" opacity=".5" d="m235.06 434.01 259.88 33.55"/><circle cx="494.94" cy="467.56" r="2" fill="#923E8B" opacity=".5"/></g><g class="slope"><circle cx="235.06" cy="486.9" r="2" fill="#E04E4B" opacity=".5"/><path stroke="#E04E4B" stroke-width="1.02" opacity=".5" d="m235.06 486.9 259.88 4.23"/><circle cx="494.94" cy="491.13" r="2" fill="#E04E4B" opacity=".5"/></g><g class="slope"><circle cx="235.06" cy="460.78" r="2" fill="#932834" opacity=".5"/><path stroke="#932834" stroke-width="1.02" opacity=".5" d="m235.06 460.78 259.88 24.71"/><circle cx="494.94" cy="485.49" r="2" fill="#932834" opacity=".5"/></g><g class="slope"><circle cx="235.06" cy="452.45" r="2" fill="#932834" opacity=".5"/><path stroke="#932834" stroke-width="1.02" opacity=".5" d="m235.06 452.45 259.88 27.28"/><circle cx="494.94" cy="479.73" r="2" fill="#932834" opacity=".5"/></g><g class="slope"><text font-size="11.7" x="183.2" y="257.1" text-anchor="end" fill="#333"><tspan x="183.16" y="257.09">Democratic Republic of</tspan><tspan x="183.16" y="269.96">Congo</tspan></text><text x="227.06" y="263.49" text-anchor="end" font-size="11.7" fill="#333">18.54%</text><circle cx="235.06" cy="259.98" r="2" fill="#923E8B" opacity=".5"/><path stroke="#923E8B" stroke-width="1.02" opacity=".5" d="m235.06 259.98 259.88 128.83"/><circle cx="494.94" cy="388.81" r="2" fill="#923E8B" opacity=".5"/><text x="502.94" y="392.32" font-size="11.7" fill="#333">8.48%</text><text font-size="11.7" x="540.3" y="385.9" fill="#333"><tspan x="540.29" y="385.92">Democratic Republic of</tspan><tspan x="540.29" y="398.79">Congo</tspan></text></g><g class="slope"><circle cx="235.06" cy="424.02" r="2" fill="#923E8B" opacity=".5"/><path stroke="#923E8B" stroke-width="1.02" opacity=".5" d="m235.06 424.02 259.88 29.2"/><circle cx="494.94" cy="453.22" r="2" fill="#923E8B" opacity=".5"/></g><g class="slope"><circle cx="235.06" cy="475.12" r="2" fill="#4C5C78" opacity=".5"/><path stroke="#4C5C78" stroke-width="1.02" opacity=".5" d="m235.06 475.12 259.88 16.65"/><circle cx="494.94" cy="491.77" r="2" fill="#4C5C78" opacity=".5"/></g><g class="slope"><circle cx="235.06" cy="485.75" r="2" fill="#4C5C78" opacity=".5"/><path stroke="#4C5C78" stroke-width="1.02" opacity=".5" d="m235.06 485.75 259.88 7.68"/><circle cx="494.94" cy="493.43" r="2" fill="#4C5C78" opacity=".5"/></g><g class="slope"><text font-size="11.7" x="183.2" y="354.2" text-anchor="end" fill="#333"><tspan x="183.16" y="354.16">Myanmar</tspan></text><text x="227.06" y="354.16" text-anchor="end" font-size="11.7" fill="#333">11.46%</text><circle cx="235.06" cy="350.65" r="2" fill="#2D8587" opacity=".5"/><path stroke="#2D8587" stroke-width="1.02" opacity=".5" d="m235.06 350.65 259.88 89.51"/><circle cx="494.94" cy="440.16" r="2" fill="#2D8587" opacity=".5"/></g><g class="slope"><circle cx="235.06" cy="477.68" r="2" fill="#2D8587" opacity=".5"/><path stroke="#2D8587" stroke-width="1.02" opacity=".5" d="m235.06 477.68 259.88 15.62"/><circle cx="494.94" cy="493.3" r="2" fill="#2D8587" opacity=".5"/></g><g class="slope"><text font-size="11.7" x="183.2" y="244.9" text-anchor="end" fill="#333"><tspan x="183.16" y="244.92">Ethiopia</tspan></text><text x="227.06" y="244.92" text-anchor="end" font-size="11.7" fill="#333">19.99%</text><circle cx="235.06" cy="241.41" r="2" fill="#923E8B" opacity=".5"/><path stroke="#923E8B" stroke-width="1.03" opacity=".5" d="m235.06 241.41 259.88 191.06"/><circle cx="494.94" cy="432.47" r="2" fill="#923E8B" opacity=".5"/><text x="502.94" y="435.98" font-size="11.7" fill="#333">5.07%</text><text font-size="11.7" x="540.3" y="436" fill="#333"><tspan x="540.29" y="435.98">Ethiopia</tspan></text></g><g class="slope"><circle cx="235.06" cy="472.56" r="2" fill="#4C5C78" opacity=".5"/><path stroke="#4C5C78" stroke-width="1.03" opacity=".5" d="m235.06 472.56 259.88 14.08"/><circle cx="494.94" cy="486.64" r="2" fill="#4C5C78" opacity=".5"/></g><g class="slope"><text font-size="11.7" x="189.7" y="406.3" text-anchor="end" fill="#333"><tspan x="189.71" y="406.27">Turkey</tspan></text><text x="227.06" y="406.27" text-anchor="end" font-size="11.7" fill="#333">7.39%</text><circle cx="235.06" cy="402.76" r="2" fill="#2D8587" opacity=".5"/><path stroke="#2D8587" stroke-width="1.03" opacity=".5" d="m235.06 402.76 259.88 81.83"/><circle cx="494.94" cy="484.59" r="2" fill="#2D8587" opacity=".5"/></g><g class="slope"><circle cx="235.06" cy="387.91" r="2" fill="#923E8B" opacity=".5"/><path stroke="#923E8B" stroke-width="1.03" opacity=".5" d="m235.06 387.91 259.88 83.49"/><circle cx="494.94" cy="471.4" r="2" fill="#923E8B" opacity=".5"/></g><g class="slope"><circle cx="235.06" cy="425.56" r="2" fill="#2D8587" opacity=".5"/><path stroke="#2D8587" stroke-width="1.03" opacity=".5" d="m235.06 425.56 259.88 54.04"/><circle cx="494.94" cy="479.6" r="2" fill="#2D8587" opacity=".5"/></g><g class="slope"><text font-size="11.7" x="189.7" y="453.7" text-anchor="end" fill="#333"><tspan x="189.71" y="453.66">Thailand</tspan></text><text x="227.06" y="453.66" text-anchor="end" font-size="11.7" fill="#333">3.69%</text><circle cx="235.06" cy="450.15" r="2" fill="#2D8587" opacity=".5"/><path stroke="#2D8587" stroke-width="1.03" opacity=".5" d="m235.06 450.15 259.88 35.72"/><circle cx="494.94" cy="485.87" r="2" fill="#2D8587" opacity=".5"/></g><g class="slope"><circle cx="235.06" cy="485.87" r="2" fill="#4C5C78" opacity=".5"/><path stroke="#4C5C78" stroke-width="1.03" opacity=".5" d="m235.06 485.87 259.88 5.77"/><circle cx="494.94" cy="491.64" r="2" fill="#4C5C78" opacity=".5"/></g><g class="slope"><circle cx="235.06" cy="484.98" r="2" fill="#4C5C78" opacity=".5"/><path stroke="#4C5C78" stroke-width="1.03" opacity=".5" d="m235.06 484.98 259.88 8.45"/><circle cx="494.94" cy="493.43" r="2" fill="#4C5C78" opacity=".5"/></g><g class="slope"><circle cx="235.06" cy="485.49" r="2" fill="#4C5C78" opacity=".5"/><path stroke="#4C5C78" stroke-width="1.03" opacity=".5" d="m235.06 485.49 259.88 6.4"/><circle cx="494.94" cy="491.89" r="2" fill="#4C5C78" opacity=".5"/></g><g class="slope"><circle cx="235.06" cy="424.92" r="2" fill="#2D8587" opacity=".5"/><path stroke="#2D8587" stroke-width="1.03" opacity=".5" d="m235.06 424.92 259.88 37.52"/><circle cx="494.94" cy="462.44" r="2" fill="#2D8587" opacity=".5"/></g><g class="slope"><circle cx="235.06" cy="431.71" r="2" fill="#2D8587" opacity=".5"/><path stroke="#2D8587" stroke-width="1.04" opacity=".5" d="m235.06 431.71 259.88 40.21"/><circle cx="494.94" cy="471.92" r="2" fill="#2D8587" opacity=".5"/></g><g class="slope"><circle cx="235.06" cy="486.52" r="2" fill="#4C5C78" opacity=".5"/><path stroke="#4C5C78" stroke-width="1.04" opacity=".5" d="m235.06 486.52 259.88 6.01"/><circle cx="494.94" cy="492.53" r="2" fill="#4C5C78" opacity=".5"/></g><g class="slope"><circle cx="235.06" cy="439.39" r="2" fill="#E04E4B" opacity=".5"/><path stroke="#E04E4B" stroke-width="1.05" opacity=".5" d="m235.06 439.39 259.88 39.83"/><circle cx="494.94" cy="479.22" r="2" fill="#E04E4B" opacity=".5"/></g><g class="slope"><text font-size="11.7" x="183.2" y="232.6" text-anchor="end" fill="#333"><tspan x="183.16" y="232.63">Nigeria</tspan></text><text x="227.06" y="232.63" text-anchor="end" font-size="11.7" fill="#333">20.95%</text><circle cx="235.06" cy="229.12" r="2" fill="#923E8B" opacity=".5"/><path stroke="#923E8B" stroke-width="1.05" opacity=".5" d="m235.06 229.12 259.88 118.2"/><circle cx="494.94" cy="347.32" r="2" fill="#923E8B" opacity=".5"/><text x="502.94" y="350.83" font-size="11.7" fill="#333">11.72%</text><text font-size="11.7" x="546.8" y="350.8" fill="#333"><tspan x="546.84" y="350.83">Nigeria</tspan></text></g><g class="slope"><circle cx="235.06" cy="313.25" r="2" fill="#2D8587" opacity=".5"/><path stroke="#2D8587" stroke-width="1.06" opacity=".5" d="m235.06 313.25 259.88 144.71"/><circle cx="494.94" cy="457.96" r="2" fill="#2D8587" opacity=".5"/></g><g class="slope"><text font-size="11.7" x="183.2" y="322.3" text-anchor="end" fill="#333"><tspan x="183.16" y="322.27">Pakistan</tspan></text><text x="227.06" y="322.27" text-anchor="end" font-size="11.7" fill="#333">13.95%</text><circle cx="235.06" cy="318.76" r="2" fill="#2D8587" opacity=".5"/><path stroke="#2D8587" stroke-width="1.06" opacity=".5" d="m235.06 318.76 259.88 92.58"/><circle cx="494.94" cy="411.34" r="2" fill="#2D8587" opacity=".5"/><text x="502.94" y="414.85" font-size="11.7" fill="#333">6.72%</text><text font-size="11.7" x="540.3" y="414.9" fill="#333"><tspan x="540.29" y="414.85">Pakistan</tspan></text></g><g class="slope"><circle cx="235.06" cy="489.33" r="2" fill="#2D8587" opacity=".5"/><path stroke="#2D8587" stroke-width="1.07" opacity=".5" d="m235.06 489.33 259.88 4.87"/><circle cx="494.94" cy="494.2" r="2" fill="#2D8587" opacity=".5"/></g><g class="slope"><text font-size="11.7" x="189.7" y="473.2" text-anchor="end" fill="#333"><tspan x="189.71" y="473.25">Russia</tspan></text><text x="227.06" y="473.25" text-anchor="end" font-size="11.7" fill="#333">2.16%</text><circle cx="235.06" cy="469.74" r="2" fill="#4C5C78" opacity=".5"/><path stroke="#4C5C78" stroke-width="1.08" opacity=".5" d="m235.06 469.74 259.88 20.23"/><circle cx="494.94" cy="489.97" r="2" fill="#4C5C78" opacity=".5"/></g><g class="slope"><circle cx="235.06" cy="416.85" r="2" fill="#932834" opacity=".5"/><path stroke="#932834" stroke-width="1.08" opacity=".5" d="m235.06 416.85 259.88 62.75"/><circle cx="494.94" cy="479.6" r="2" fill="#932834" opacity=".5"/></g><g class="slope"><circle cx="235.06" cy="389.83" r="2" fill="#2D8587" opacity=".5"/><path stroke="#2D8587" stroke-width="1.1" opacity=".5" d="m235.06 389.83 259.88 76.96"/><circle cx="494.94" cy="466.79" r="2" fill="#2D8587" opacity=".5"/><text x="502.94" y="470.3" font-size="11.7" fill="#333">2.39%</text><text font-size="11.7" x="540.3" y="470.3" fill="#333"><tspan x="540.29" y="470.3">Indonesia</tspan></text></g><g class="slope"><circle cx="235.06" cy="483.06" r="2" fill="#E04E4B" opacity=".5"/><path stroke="#E04E4B" stroke-width="1.14" opacity=".5" d="m235.06 483.06 259.88 6.02"/><circle cx="494.94" cy="489.08" r="2" fill="#E04E4B" opacity=".5"/></g><g class="slope"><text font-size="11.7" x="196.3" y="486.8" text-anchor="end" fill="#333"><tspan x="196.26" y="486.82">North America</tspan></text><text x="227.06" y="486.82" text-anchor="end" font-size="11.7" fill="#333">1.1%</text><circle cx="235.06" cy="483.31" r="2" fill="#ff7f0e" opacity=".5"/><path stroke="#ff7f0e" stroke-width="1.24" opacity=".5" d="m235.06 483.31 259.88 6.02"/><circle cx="494.94" cy="489.33" r="2" fill="#ff7f0e" opacity=".5"/></g><g class="slope"><text font-size="11.7" x="183.2" y="339.3" text-anchor="end" fill="#333"><tspan x="183.16" y="339.3">India</tspan></text><text x="227.06" y="339.3" text-anchor="end" font-size="11.7" fill="#333">12.62%</text><circle cx="235.06" cy="335.79" r="2" fill="#2D8587" opacity=".5"/><path stroke="#2D8587" stroke-width="1.49" opacity=".5" d="m235.06 335.79 259.88 117.69"/><circle cx="494.94" cy="453.48" r="2" fill="#2D8587" opacity=".5"/></g><g class="slope"><text font-size="11.7" x="189.7" y="432" text-anchor="end" fill="#333"><tspan x="189.71" y="432.01">China</tspan></text><text x="227.06" y="432.01" text-anchor="end" font-size="11.7" fill="#333">5.38%</text><circle cx="235.06" cy="428.5" r="2" fill="#2D8587" opacity=".5"/><path stroke="#2D8587" stroke-width="1.66" opacity=".5" d="m235.06 428.5 259.88 58.78"/><circle cx="494.94" cy="487.28" r="2" fill="#2D8587" opacity=".5"/><text x="502.94" y="490.79" font-size="11.7" fill="#333">0.79%</text><text font-size="11.7" x="540.3" y="490.8" fill="#333"><tspan x="540.29" y="490.79">China</tspan></text></g><g class="slope"><text font-size="11.7" x="196.3" y="381.8" text-anchor="end" fill="#333"><tspan x="196.26" y="381.82">World</tspan></text><text x="227.06" y="381.82" text-anchor="end" font-size="11.7" fill="#333">9.3%</text><circle cx="235.06" cy="378.31" r="2" fill="#ff7f0e" opacity=".5"/><path stroke="#ff7f0e" stroke-width="4" opacity=".5" d="m235.06 378.31 259.88 70.81"/><circle cx="494.94" cy="449.12" r="2" fill="#ff7f0e" opacity=".5"/><text x="502.94" y="452.63" font-size="11.7" fill="#333">3.77%</text><text font-size="11.7" x="540.3" y="452.6" fill="#333"><tspan x="540.29" y="452.63">World</tspan></text></g></g></g><g class="ScatterColorLegend clickable" style="cursor:pointer"><g class="legendMark"><path fill="#923E8B" d="M735 78.4h9v9h-9z"/><text font-size="12.6" x="749" y="86.7"><tspan x="749" y="86.68">Africa</tspan></text></g><g class="legendMark"><path fill="#2D8587" d="M735 96h9v9h-9z"/><text font-size="12.6" x="749" y="104.3"><tspan x="749" y="104.28">Asia</tspan></text></g><g class="legendMark"><path fill="#4C5C78" d="M735 113.6h9v9h-9z"/><text font-size="12.6" x="749" y="121.9"><tspan x="749" y="121.88">Europe</tspan></text></g><g class="legendMark"><path fill="#E04E4B" d="M735 131.2h9v9h-9z"/><text font-size="12.6" x="749" y="139.5"><tspan x="749" y="139.48">North America</tspan></text></g><g class="legendMark"><path fill="#A8633C" d="M735 148.8h9v9h-9z"/><text font-size="12.6" x="749" y="157.1"><tspan x="749" y="157.08">Oceania</tspan></text></g><g class="legendMark"><path fill="#932834" d="M735 166.4h9v9h-9z"/><text font-size="12.6" x="749" y="174.7"><tspan x="749" y="174.68">South America</tspan></text></g></g></g><g class="SourcesFooter" style="fill:#777"><g style="fill:#777"><text font-size="12.6" x="15" y="582.5"><tspan x="15" y="582.48">Source: UN Inter-agency Group for Child Mortality Estimation (via World Bank)</tspan></text></g><text font-size="12.6" x="588.8" y="582.5"><tspan x="588.8" y="582.48"><a target="_blank" style="fill:#777" href="https://ourworldindata.org/child-mortality">OurWorldInData.org/child-mortality</a> • <a style="fill:#777" class="cclogo" href="http://creativecommons.org/licenses/by/4.0/deed.en_US" target="_blank">CC BY</a></tspan></text></g></svg>