<svg xmlns="http://www.w3.org/2000/svg" version="1.1" style="background-color:#fff;-webkit-font-smoothing:antialiased" width="850" height="600" viewBox="0 0 850 600" font-family="Lato,'Helvetica Neue',Helvetica,Arial,sans-serif" font-size="18" text-rendering="optimizeLegibility"><g class="HeaderView"><g transform="matrix(.29 0 0 .29 774 15)"><svg width="210" height="120" viewBox="0 0 210 120" fill="none" xmlns="http://www.w3.org/2000/svg"><g clip-path="url(#clip0)"><path d="M0 0h210v107.89H0V0z" fill="#002147"/><path d="M40.98 32.25c0 2.36-.38 4.53-1.12 6.51a14.26 14.26 0 01-8.1 8.4c-1.9.78-4.02 1.17-6.34 1.17a16.6 16.6 0 01-6.33-1.17 14.31 14.31 0 01-8.08-8.4 18.29 18.29 0 01-1.12-6.51c0-2.36.38-4.53 1.12-6.5.75-1.97 1.8-3.67 3.17-5.1a14.32 14.32 0 014.9-3.34c1.92-.8 4.03-1.19 6.34-1.19 2.32 0 4.43.4 6.34 1.19 1.92.8 3.56 1.9 4.93 3.34a14.87 14.87 0 013.17 5.1 18.1 18.1 0 011.12 6.5zm-4.38 0c0-1.94-.26-3.68-.8-5.22a10.91 10.91 0 00-2.24-3.89 9.68 9.68 0 00-3.52-2.46 11.95 11.95 0 00-4.62-.86c-1.68 0-3.21.28-4.6.86a9.88 9.88 0 00-3.54 2.46 10.91 10.91 0 00-2.24 3.9c-.53 1.53-.8 3.27-.8 5.2 0 1.94.27 3.68.8 5.22a11.17 11.17 0 002.24 3.9 10.01 10.01 0 003.55 2.44c1.38.56 2.9.83 4.6.83s3.24-.27 4.61-.83a9.8 9.8 0 003.52-2.44 11.17 11.17 0 002.25-3.9c.53-1.54.8-3.28.8-5.21zm26.22-6.54V48H60.5c-.56 0-.9-.27-1.05-.81l-.31-2.4a12.45 12.45 0 01-3.26 2.6c-1.2.64-2.58.96-4.13.96-1.22 0-2.3-.2-3.24-.6a6.52 6.52 0 01-2.33-1.7 7.37 7.37 0 01-1.43-2.67c-.3-1.04-.46-2.2-.46-3.45V25.7h3.91v14.22c0 1.68.38 2.99 1.15 3.91.77.93 1.96 1.39 3.54 1.39 1.16 0 2.24-.27 3.23-.82a10.42 10.42 0 002.8-2.28V25.7h3.91zm8.61 4.47a9.94 9.94 0 012.6-3.56 5.64 5.64 0 013.76-1.3c.47 0 .92.05 1.34.15.44.1.83.27 1.17.49l-.3 2.92c-.09.37-.3.55-.66.55-.2 0-.5-.04-.9-.13a6.21 6.21 0 00-3.24.18 4.23 4.23 0 00-1.47.92c-.42.4-.81.9-1.17 1.5-.33.58-.64 1.26-.92 2.02V48H67.7V25.71h2.25c.42 0 .72.08.88.25.16.16.27.44.33.83l.26 3.39zm61.16-13.7L122.75 48h-3.82l-7.99-24.05a21.95 21.95 0 01-.42-1.58 38.36 38.36 0 01-.44 1.58L102.05 48h-3.83L88.4 16.47h3.54c.38 0 .7.1.95.29.26.2.43.43.5.73l6.52 21.9.28 1.28.29 1.46.3-1.46.38-1.27 7.41-21.91c.1-.25.26-.48.51-.69.27-.22.58-.33.95-.33h1.23c.38 0 .69.1.92.29a1.77 1.77 0 01.53.73l7.4 21.9a28.4 28.4 0 01.68 2.62 29.52 29.52 0 01.52-2.61l6.54-21.91a1.31 1.31 0 01.48-.7c.27-.21.58-.32.95-.32h3.32zm9.35 8.88c1.63 0 3.1.27 4.4.82a9.43 9.43 0 015.46 5.94c.5 1.4.74 2.98.74 4.73 0 1.76-.25 3.34-.74 4.75a9.43 9.43 0 01-5.46 5.92c-1.3.52-2.77.79-4.4.79-1.64 0-3.12-.27-4.44-.8a9.42 9.42 0 01-3.35-2.3c-.92-1-1.63-2.2-2.13-3.61-.49-1.41-.73-3-.73-4.75s.24-3.33.73-4.73c.5-1.43 1.2-2.64 2.13-3.63a9.4 9.4 0 013.35-2.31c1.32-.55 2.8-.82 4.44-.82zm0 19.89c2.2 0 3.84-.73 4.93-2.2 1.08-1.48 1.63-3.54 1.63-6.18 0-2.66-.55-4.72-1.63-6.2-1.09-1.49-2.73-2.23-4.93-2.23-1.12 0-2.09.2-2.93.57a5.71 5.71 0 00-2.06 1.65 7.5 7.5 0 00-1.24 2.67c-.26 1.04-.4 2.22-.4 3.54 0 2.64.55 4.7 1.64 6.18 1.1 1.47 2.76 2.2 4.99 2.2zm17.97-15.07a9.94 9.94 0 012.6-3.56 5.64 5.64 0 013.76-1.3c.47 0 .91.05 1.34.15.44.1.83.27 1.16.49l-.28 2.92c-.09.37-.31.55-.66.55-.2 0-.5-.04-.9-.13a6.2 6.2 0 00-3.24.18 4.23 4.23 0 00-1.47.92c-.43.4-.82.9-1.17 1.5a13.1 13.1 0 00-.92 2.02V48h-3.94V25.71h2.24c.43 0 .72.08.88.25.17.16.28.44.33.83l.27 3.39zm15.04-14.59V48h-3.92V15.6h3.92zm19.55 15.43a6.22 6.22 0 00-2.38-2.05 6.7 6.7 0 00-2.86-.6c-2.07 0-3.66.75-4.77 2.23-1.12 1.48-1.68 3.6-1.68 6.33 0 1.46.13 2.7.38 3.74a7.29 7.29 0 001.1 2.56 4.35 4.35 0 001.78 1.45c.7.3 1.5.46 2.4.46 1.29 0 2.41-.3 3.36-.88a9.6 9.6 0 002.67-2.49V31.02zm3.91-15.43V48h-2.33c-.56 0-.9-.27-1.06-.81l-.35-2.71a12.13 12.13 0 01-3.25 2.77 8.28 8.28 0 01-4.23 1.06 7.31 7.31 0 01-6.14-2.9c-.73-.96-1.3-2.15-1.69-3.57a18.35 18.35 0 01.07-9.48 11.29 11.29 0 011.89-3.7 8.7 8.7 0 017.06-3.34 7.96 7.96 0 016.12 2.62V15.59h3.91zM46.61 70.71V93H42.7V70.71h3.91zm.84-7c0 .39-.08.75-.24 1.09a2.81 2.81 0 01-1.52 1.47 2.67 2.67 0 01-2.16 0 2.9 2.9 0 01-1.45-1.47 2.67 2.67 0 010-2.16c.15-.35.35-.65.6-.9.25-.27.53-.47.85-.62a2.67 2.67 0 012.16 0c.35.15.65.35.9.62.27.25.47.55.62.9.16.34.24.7.24 1.08zm7.97 10.24c.49-.54 1-1.04 1.54-1.48a9.85 9.85 0 013.66-1.84 8.96 8.96 0 015.43.35c.94.4 1.72.97 2.33 1.71a7.36 7.36 0 011.43 2.67c.32 1.04.49 2.19.49 3.45V93h-3.94V78.81c0-1.69-.4-3-1.17-3.92-.76-.93-1.93-1.4-3.5-1.4a6.6 6.6 0 00-3.25.83c-1 .56-1.92 1.31-2.77 2.27V93h-3.94V70.71h2.35c.56 0 .9.28 1.04.82l.3 2.42zm57.7 3.3c0 2.36-.37 4.5-1.11 6.44a14.3 14.3 0 01-3.17 4.98 14.1 14.1 0 01-4.93 3.2c-1.9.76-4.02 1.13-6.33 1.13H85.8V61.47h11.77c2.31 0 4.42.39 6.33 1.15a13.8 13.8 0 018.1 8.18 17.75 17.75 0 011.12 6.45zm-4.37 0c0-1.94-.26-3.67-.8-5.2a10.94 10.94 0 00-2.23-3.87 9.57 9.57 0 00-3.53-2.42 12.23 12.23 0 00-4.61-.83h-7.5v24.62h7.5c1.7 0 3.24-.28 4.61-.84a9.7 9.7 0 003.53-2.4 10.94 10.94 0 002.24-3.87c.53-1.53.8-3.26.8-5.2zm19.8 5.72c-1.8.06-3.34.2-4.62.44-1.26.22-2.3.51-3.1.88-.8.36-1.37.8-1.74 1.3-.35.5-.53 1.05-.53 1.67 0 .58.1 1.1.3 1.52a3 3 0 00.76 1.05c.34.27.73.46 1.17.6a6.13 6.13 0 001.45.17 7.28 7.28 0 003.5-.81 11.95 11.95 0 002.82-2.2v-4.62zm-12.65-9.11a12.73 12.73 0 013.98-2.66c1.43-.59 3-.88 4.73-.88 1.25 0 2.36.2 3.33.61a6.81 6.81 0 013.94 4.38c.33 1.04.5 2.19.5 3.43V93h-1.74a1.8 1.8 0 01-.88-.18c-.2-.13-.36-.38-.48-.74l-.44-2.12-1.72 1.46a9.48 9.48 0 01-3.74 1.7c-.69.15-1.46.23-2.3.23-.87 0-1.69-.12-2.45-.35a5.34 5.34 0 01-3.34-2.93 6.64 6.64 0 01-.49-2.64c0-.88.25-1.72.73-2.53a6.33 6.33 0 012.35-2.17c1.09-.63 2.5-1.15 4.25-1.54 1.75-.41 3.89-.65 6.42-.7v-1.75c0-1.73-.37-3.03-1.12-3.91-.75-.9-1.84-1.34-3.28-1.34-.97 0-1.78.12-2.44.37-.64.23-1.2.5-1.7.81l-1.23.82c-.33.23-.67.35-1 .35-.27 0-.5-.07-.69-.2a2.1 2.1 0 01-.48-.53l-.7-1.25zm27.67 19.5c-1.76 0-3.12-.5-4.07-1.48-.94-.98-1.41-2.4-1.41-4.25V74h-2.68a.9.9 0 01-.6-.2c-.16-.14-.24-.36-.24-.66v-1.56l3.65-.46.9-6.89a.9.9 0 01.29-.52.88.88 0 01.62-.22H142v7.67h6.44V74H142v13.38c0 .94.22 1.63.68 2.09.45.45 1.04.68 1.76.68a3.21 3.21 0 001.85-.53l.55-.35c.16-.12.3-.18.41-.18.2 0 .4.13.55.38l1.15 1.87a7.45 7.45 0 01-2.44 1.5 8.53 8.53 0 01-2.95.52zm19.68-10.4c-1.8.07-3.34.21-4.62.45-1.26.22-2.3.51-3.1.88-.8.36-1.37.8-1.74 1.3-.35.5-.53 1.05-.53 1.67 0 .58.1 1.1.3 1.52a2.9 2.9 0 00.76 1.05c.34.27.73.46 1.17.6a6.13 6.13 0 001.45.17 7.3 7.3 0 003.5-.81 12.04 12.04 0 002.82-2.2v-4.62zm-12.65-9.1a12.72 12.72 0 013.99-2.66c1.42-.59 3-.88 4.72-.88 1.25 0 2.36.2 3.33.61a6.81 6.81 0 013.94 4.38c.33 1.04.5 2.19.5 3.43V93h-1.74a1.8 1.8 0 01-.88-.18c-.2-.13-.36-.38-.48-.74l-.44-2.12-1.72 1.46a9.48 9.48 0 01-3.74 1.7c-.69.15-1.46.23-2.3.23-.87 0-1.69-.12-2.45-.35a5.33 5.33 0 01-3.34-2.93 6.62 6.62 0 01-.49-2.64c0-.88.25-1.72.73-2.53a6.33 6.33 0 012.35-2.17c1.09-.63 2.5-1.15 4.25-1.54a31.2 31.2 0 016.42-.7v-1.75c0-1.73-.37-3.03-1.12-3.91-.75-.9-1.84-1.34-3.28-1.34-.97 0-1.78.12-2.44.37-.64.23-1.2.5-1.7.81l-1.22.82c-.34.23-.68.35-1.02.35-.26 0-.49-.07-.68-.2a1.88 1.88 0 01-.48-.53l-.7-1.25zM40.98 32.25c0 2.36-.38 4.53-1.12 6.51a14.26 14.26 0 01-8.1 8.4c-1.9.78-4.02 1.17-6.34 1.17a16.6 16.6 0 01-6.33-1.17 14.31 14.31 0 01-8.08-8.4 18.29 18.29 0 01-1.12-6.51c0-2.36.38-4.53 1.12-6.5.75-1.97 1.8-3.67 3.17-5.1a14.32 14.32 0 014.9-3.34c1.92-.8 4.03-1.19 6.34-1.19 2.32 0 4.43.4 6.34 1.19 1.92.8 3.56 1.9 4.93 3.34a14.87 14.87 0 013.17 5.1 18.1 18.1 0 011.12 6.5zm-4.38 0c0-1.94-.26-3.68-.8-5.22a10.91 10.91 0 00-2.24-3.89 9.68 9.68 0 00-3.52-2.46 11.95 11.95 0 00-4.62-.86c-1.68 0-3.21.28-4.6.86a9.88 9.88 0 00-3.54 2.46 10.91 10.91 0 00-2.24 3.9c-.53 1.53-.8 3.27-.8 5.2 0 1.94.27 3.68.8 5.22a11.17 11.17 0 002.24 3.9 10.01 10.01 0 003.55 2.44c1.38.56 2.9.83 4.6.83s3.24-.27 4.61-.83a9.8 9.8 0 003.52-2.44 11.17 11.17 0 002.25-3.9c.53-1.54.8-3.28.8-5.21zm26.22-6.54V48H60.5c-.56 0-.9-.27-1.05-.81l-.31-2.4a12.45 12.45 0 01-3.26 2.6c-1.2.64-2.58.96-4.13.96-1.22 0-2.3-.2-3.24-.6a6.52 6.52 0 01-2.33-1.7 7.37 7.37 0 01-1.43-2.67c-.3-1.04-.46-2.2-.46-3.45V25.7h3.91v14.22c0 1.68.38 2.99 1.15 3.91.77.93 1.96 1.39 3.54 1.39 1.16 0 2.24-.27 3.23-.82a10.42 10.42 0 002.8-2.28V25.7h3.91zm8.61 4.47a9.94 9.94 0 012.6-3.56 5.64 5.64 0 013.76-1.3c.47 0 .92.05 1.34.15.44.1.83.27 1.17.49l-.3 2.92c-.09.37-.3.55-.66.55-.2 0-.5-.04-.9-.13a6.21 6.21 0 00-3.24.18 4.23 4.23 0 00-1.47.92c-.42.4-.81.9-1.17 1.5-.33.58-.64 1.26-.92 2.02V48H67.7V25.71h2.25c.42 0 .72.08.88.25.16.16.27.44.33.83l.26 3.39zm61.16-13.7L122.75 48h-3.82l-7.99-24.05a21.95 21.95 0 01-.42-1.58 38.36 38.36 0 01-.44 1.58L102.05 48h-3.83L88.4 16.47h3.54c.38 0 .7.1.95.29.26.2.43.43.5.73l6.52 21.9.28 1.28.29 1.46.3-1.46.38-1.27 7.41-21.91c.1-.25.26-.48.51-.69.27-.22.58-.33.95-.33h1.23c.38 0 .69.1.92.29a1.77 1.77 0 01.53.73l7.4 21.9a28.4 28.4 0 01.68 2.62 29.52 29.52 0 01.52-2.61l6.54-21.91a1.31 1.31 0 01.48-.7c.27-.21.58-.32.95-.32h3.32zm9.35 8.88c1.63 0 3.1.27 4.4.82a9.43 9.43 0 015.46 5.94c.5 1.4.74 2.98.74 4.73 0 1.76-.25 3.34-.74 4.75a9.43 9.43 0 01-5.46 5.92c-1.3.52-2.77.79-4.4.79-1.64 0-3.12-.27-4.44-.8a9.42 9.42 0 01-3.35-2.3c-.92-1-1.63-2.2-2.13-3.61-.49-1.41-.73-3-.73-4.75s.24-3.33.73-4.73c.5-1.43 1.2-2.64 2.13-3.63a9.4 9.4 0 013.35-2.31c1.32-.55 2.8-.82 4.44-.82zm0 19.89c2.2 0 3.84-.73 4.93-2.2 1.08-1.48 1.63-3.54 1.63-6.18 0-2.66-.55-4.72-1.63-6.2-1.09-1.49-2.73-2.23-4.93-2.23-1.12 0-2.09.2-2.93.57a5.71 5.71 0 00-2.06 1.65 7.5 7.5 0 00-1.24 2.67c-.26 1.04-.4 2.22-.4 3.54 0 2.64.55 4.7 1.64 6.18 1.1 1.47 2.76 2.2 4.99 2.2zm17.97-15.07a9.94 9.94 0 012.6-3.56 5.64 5.64 0 013.76-1.3c.47 0 .91.05 1.34.15.44.1.83.27 1.16.49l-.28 2.92c-.09.37-.31.55-.66.55-.2 0-.5-.04-.9-.13a6.2 6.2 0 00-3.24.18 4.23 4.23 0 00-1.47.92c-.43.4-.82.9-1.17 1.5a13.1 13.1 0 00-.92 2.02V48h-3.94V25.71h2.24c.43 0 .72.08.88.25.17.16.28.44.33.83l.27 3.39zm15.04-14.59V48h-3.92V15.6h3.92zm19.55 15.43a6.22 6.22 0 00-2.38-2.05 6.7 6.7 0 00-2.86-.6c-2.07 0-3.66.75-4.77 2.23-1.12 1.48-1.68 3.6-1.68 6.33 0 1.46.13 2.7.38 3.74a7.29 7.29 0 001.1 2.56 4.35 4.35 0 001.78 1.45c.7.3 1.5.46 2.4.46 1.29 0 2.41-.3 3.36-.88a9.6 9.6 0 002.67-2.49V31.02zm3.91-15.43V48h-2.33c-.56 0-.9-.27-1.06-.81l-.35-2.71a12.13 12.13 0 01-3.25 2.77 8.28 8.28 0 01-4.23 1.06 7.31 7.31 0 01-6.14-2.9c-.73-.96-1.3-2.15-1.69-3.57a18.35 18.35 0 01.07-9.48 11.29 11.29 0 011.89-3.7 8.7 8.7 0 017.06-3.34 7.96 7.96 0 016.12 2.62V15.59h3.91zM46.61 70.71V93H42.7V70.71h3.91zm.84-7c0 .39-.08.75-.24 1.09a2.81 2.81 0 01-1.52 1.47 2.67 2.67 0 01-2.16 0 2.9 2.9 0 01-1.45-1.47 2.67 2.67 0 010-2.16c.15-.35.35-.65.6-.9.25-.27.53-.47.85-.62a2.67 2.67 0 012.16 0c.35.15.65.35.9.62.27.25.47.55.62.9.16.34.24.7.24 1.08zm7.97 10.24c.49-.54 1-1.04 1.54-1.48a9.85 9.85 0 013.66-1.84 8.96 8.96 0 015.43.35c.94.4 1.72.97 2.33 1.71a7.36 7.36 0 011.43 2.67c.32 1.04.49 2.19.49 3.45V93h-3.94V78.81c0-1.69-.4-3-1.17-3.92-.76-.93-1.93-1.4-3.5-1.4a6.6 6.6 0 00-3.25.83c-1 .56-1.92 1.31-2.77 2.27V93h-3.94V70.71h2.35c.56 0 .9.28 1.04.82l.3 2.42zm57.7 3.3c0 2.36-.37 4.5-1.11 6.44a14.3 14.3 0 01-3.17 4.98 14.1 14.1 0 01-4.93 3.2c-1.9.76-4.02 1.13-6.33 1.13H85.8V61.47h11.77c2.31 0 4.42.39 6.33 1.15a13.8 13.8 0 018.1 8.18 17.75 17.75 0 011.12 6.45zm-4.37 0c0-1.94-.26-3.67-.8-5.2a10.94 10.94 0 00-2.23-3.87 9.57 9.57 0 00-3.53-2.42 12.23 12.23 0 00-4.61-.83h-7.5v24.62h7.5c1.7 0 3.24-.28 4.61-.84a9.7 9.7 0 003.53-2.4 10.94 10.94 0 002.24-3.87c.53-1.53.8-3.26.8-5.2zm19.8 5.72c-1.8.06-3.34.2-4.62.44-1.26.22-2.3.51-3.1.88-.8.36-1.37.8-1.74 1.3-.35.5-.53 1.05-.53 1.67 0 .58.1 1.1.3 1.52a3 3 0 00.76 1.05c.34.27.73.46 1.17.6a6.13 6.13 0 001.45.17 7.28 7.28 0 003.5-.81 11.95 11.95 0 002.82-2.2v-4.62zm-12.65-9.11a12.73 12.73 0 013.98-2.66c1.43-.59 3-.88 4.73-.88 1.25 0 2.36.2 3.33.61a6.81 6.81 0 013.94 4.38c.33 1.04.5 2.19.5 3.43V93h-1.74a1.8 1.8 0 01-.88-.18c-.2-.13-.36-.38-.48-.74l-.44-2.12-1.72 1.46a9.48 9.48 0 01-3.74 1.7c-.69.15-1.46.23-2.3.23-.87 0-1.69-.12-2.45-.35a5.34 5.34 0 01-3.34-2.93 6.64 6.64 0 01-.49-2.64c0-.88.25-1.72.73-2.53a6.33 6.33 0 012.35-2.17c1.09-.63 2.5-1.15 4.25-1.54 1.75-.41 3.89-.65 6.42-.7v-1.75c0-1.73-.37-3.03-1.12-3.91-.75-.9-1.84-1.34-3.28-1.34-.97 0-1.78.12-2.44.37-.64.23-1.2.5-1.7.81l-1.23.82c-.33.23-.67.35-1 .35-.27 0-.5-.07-.69-.2a2.1 2.1 0 01-.48-.53l-.7-1.25zm27.67 19.5c-1.76 0-3.12-.5-4.07-1.48-.94-.98-1.41-2.4-1.41-4.25V74h-2.68a.9.9 0 01-.6-.2c-.16-.14-.24-.36-.24-.66v-1.56l3.65-.46.9-6.89a.9.9 0 01.29-.52.88.88 0 01.62-.22H142v7.67h6.44V74H142v13.38c0 .94.22 1.63.68 2.09.45.45 1.04.68 1.76.68a3.21 3.21 0 001.85-.53l.55-.35c.16-.12.3-.18.41-.18.2 0 .4.13.55.38l1.15 1.87a7.45 7.45 0 01-2.44 1.5 8.53 8.53 0 01-2.95.52zm19.68-10.4c-1.8.07-3.34.21-4.62.45-1.26.22-2.3.51-3.1.88-.8.36-1.37.8-1.74 1.3-.35.5-.53 1.05-.53 1.67 0 .58.1 1.1.3 1.52a2.9 2.9 0 00.76 1.05c.34.27.73.46 1.17.6a6.13 6.13 0 001.45.17 7.3 7.3 0 003.5-.81 12.04 12.04 0 002.82-2.2v-4.62zm-12.65-9.1a12.72 12.72 0 013.99-2.66c1.42-.59 3-.88 4.72-.88 1.25 0 2.36.2 3.33.61a6.81 6.81 0 013.94 4.38c.33 1.04.5 2.19.5 3.43V93h-1.74a1.8 1.8 0 01-.88-.18c-.2-.13-.36-.38-.48-.74l-.44-2.12-1.72 1.46a9.48 9.48 0 01-3.74 1.7c-.69.15-1.46.23-2.3.23-.87 0-1.69-.12-2.45-.35a5.33 5.33 0 01-3.34-2.93 6.62 6.62 0 01-.49-2.64c0-.88.25-1.72.73-2.53a6.33 6.33 0 012.35-2.17c1.09-.63 2.5-1.15 4.25-1.54a31.2 31.2 0 016.42-.7v-1.75c0-1.73-.37-3.03-1.12-3.91-.75-.9-1.84-1.34-3.28-1.34-.97 0-1.78.12-2.44.37-.64.23-1.2.5-1.7.81l-1.22.82c-.34.23-.68.35-1.02.35-.26 0-.49-.07-.68-.2a1.88 1.88 0 01-.48-.53l-.7-1.25zM40.98 32.25c0 2.36-.38 4.53-1.12 6.51a14.26 14.26 0 01-8.1 8.4c-1.9.78-4.02 1.17-6.34 1.17a16.6 16.6 0 01-6.33-1.17 14.31 14.31 0 01-8.08-8.4 18.29 18.29 0 01-1.12-6.51c0-2.36.38-4.53 1.12-6.5.75-1.97 1.8-3.67 3.17-5.1a14.32 14.32 0 014.9-3.34c1.92-.8 4.03-1.19 6.34-1.19 2.32 0 4.43.4 6.34 1.19 1.92.8 3.56 1.9 4.93 3.34a14.87 14.87 0 013.17 5.1 18.1 18.1 0 011.12 6.5zm-4.38 0c0-1.94-.26-3.68-.8-5.22a10.91 10.91 0 00-2.24-3.89 9.68 9.68 0 00-3.52-2.46 11.95 11.95 0 00-4.62-.86c-1.68 0-3.21.28-4.6.86a9.88 9.88 0 00-3.54 2.46 10.91 10.91 0 00-2.24 3.9c-.53 1.53-.8 3.27-.8 5.2 0 1.94.27 3.68.8 5.22a11.17 11.17 0 002.24 3.9 10.01 10.01 0 003.55 2.44c1.38.56 2.9.83 4.6.83s3.24-.27 4.61-.83a9.8 9.8 0 003.52-2.44 11.17 11.17 0 002.25-3.9c.53-1.54.8-3.28.8-5.21zm26.22-6.54V48H60.5c-.56 0-.9-.27-1.05-.81l-.31-2.4a12.45 12.45 0 01-3.26 2.6c-1.2.64-2.58.96-4.13.96-1.22 0-2.3-.2-3.24-.6a6.52 6.52 0 01-2.33-1.7 7.37 7.37 0 01-1.43-2.67c-.3-1.04-.46-2.2-.46-3.45V25.7h3.91v14.22c0 1.68.38 2.99 1.15 3.91.77.93 1.96 1.39 3.54 1.39 1.16 0 2.24-.27 3.23-.82a10.42 10.42 0 002.8-2.28V25.7h3.91zm8.61 4.47a9.94 9.94 0 012.6-3.56 5.64 5.64 0 013.76-1.3c.47 0 .92.05 1.34.15.44.1.83.27 1.17.49l-.3 2.92c-.09.37-.3.55-.66.55-.2 0-.5-.04-.9-.13a6.21 6.21 0 00-3.24.18 4.23 4.23 0 00-1.47.92c-.42.4-.81.9-1.17 1.5-.33.58-.64 1.26-.92 2.02V48H67.7V25.71h2.25c.42 0 .72.08.88.25.16.16.27.44.33.83l.26 3.39zm61.16-13.7L122.75 48h-3.82l-7.99-24.05a21.95 21.95 0 01-.42-1.58 38.36 38.36 0 01-.44 1.58L102.05 48h-3.83L88.4 16.47h3.54c.38 0 .7.1.95.29.26.2.43.43.5.73l6.52 21.9.28 1.28.29 1.46.3-1.46.38-1.27 7.41-21.91c.1-.25.26-.48.51-.69.27-.22.58-.33.95-.33h1.23c.38 0 .69.1.92.29a1.77 1.77 0 01.53.73l7.4 21.9a28.4 28.4 0 01.68 2.62 29.52 29.52 0 01.52-2.61l6.54-21.91a1.31 1.31 0 01.48-.7c.27-.21.58-.32.95-.32h3.32zm9.35 8.88c1.63 0 3.1.27 4.4.82a9.43 9.43 0 015.46 5.94c.5 1.4.74 2.98.74 4.73 0 1.76-.25 3.34-.74 4.75a9.43 9.43 0 01-5.46 5.92c-1.3.52-2.77.79-4.4.79-1.64 0-3.12-.27-4.44-.8a9.42 9.42 0 01-3.35-2.3c-.92-1-1.63-2.2-2.13-3.61-.49-1.41-.73-3-.73-4.75s.24-3.33.73-4.73c.5-1.43 1.2-2.64 2.13-3.63a9.4 9.4 0 013.35-2.31c1.32-.55 2.8-.82 4.44-.82zm0 19.89c2.2 0 3.84-.73 4.93-2.2 1.08-1.48 1.63-3.54 1.63-6.18 0-2.66-.55-4.72-1.63-6.2-1.09-1.49-2.73-2.23-4.93-2.23-1.12 0-2.09.2-2.93.57a5.71 5.71 0 00-2.06 1.65 7.5 7.5 0 00-1.24 2.67c-.26 1.04-.4 2.22-.4 3.54 0 2.64.55 4.7 1.64 6.18 1.1 1.47 2.76 2.2 4.99 2.2zm17.97-15.07a9.94 9.94 0 012.6-3.56 5.64 5.64 0 013.76-1.3c.47 0 .91.05 1.34.15.44.1.83.27 1.16.49l-.28 2.92c-.09.37-.31.55-.66.55-.2 0-.5-.04-.9-.13a6.2 6.2 0 00-3.24.18 4.23 4.23 0 00-1.47.92c-.43.4-.82.9-1.17 1.5a13.1 13.1 0 00-.92 2.02V48h-3.94V25.71h2.24c.43 0 .72.08.88.25.17.16.28.44.33.83l.27 3.39zm15.04-14.59V48h-3.92V15.6h3.92zm19.55 15.43a6.22 6.22 0 00-2.38-2.05 6.7 6.7 0 00-2.86-.6c-2.07 0-3.66.75-4.77 2.23-1.12 1.48-1.68 3.6-1.68 6.33 0 1.46.13 2.7.38 3.74a7.29 7.29 0 001.1 2.56 4.35 4.35 0 001.78 1.45c.7.3 1.5.46 2.4.46 1.29 0 2.41-.3 3.36-.88a9.6 9.6 0 002.67-2.49V31.02zm3.91-15.43V48h-2.33c-.56 0-.9-.27-1.06-.81l-.35-2.71a12.13 12.13 0 01-3.25 2.77 8.28 8.28 0 01-4.23 1.06 7.31 7.31 0 01-6.14-2.9c-.73-.96-1.3-2.15-1.69-3.57a18.35 18.35 0 01.07-9.48 11.29 11.29 0 011.89-3.7 8.7 8.7 0 017.06-3.34 7.96 7.96 0 016.12 2.62V15.59h3.91zM46.61 70.71V93H42.7V70.71h3.91zm.84-7c0 .39-.08.75-.24 1.09a2.81 2.81 0 01-1.52 1.47 2.67 2.67 0 01-2.16 0 2.9 2.9 0 01-1.45-1.47 2.67 2.67 0 010-2.16c.15-.35.35-.65.6-.9.25-.27.53-.47.85-.62a2.67 2.67 0 012.16 0c.35.15.65.35.9.62.27.25.47.55.62.9.16.34.24.7.24 1.08zm7.97 10.24c.49-.54 1-1.04 1.54-1.48a9.85 9.85 0 013.66-1.84 8.96 8.96 0 015.43.35c.94.4 1.72.97 2.33 1.71a7.36 7.36 0 011.43 2.67c.32 1.04.49 2.19.49 3.45V93h-3.94V78.81c0-1.69-.4-3-1.17-3.92-.76-.93-1.93-1.4-3.5-1.4a6.6 6.6 0 00-3.25.83c-1 .56-1.92 1.31-2.77 2.27V93h-3.94V70.71h2.35c.56 0 .9.28 1.04.82l.3 2.42zm57.7 3.3c0 2.36-.37 4.5-1.11 6.44a14.3 14.3 0 01-3.17 4.98 14.1 14.1 0 01-4.93 3.2c-1.9.76-4.02 1.13-6.33 1.13H85.8V61.47h11.77c2.31 0 4.42.39 6.33 1.15a13.8 13.8 0 018.1 8.18 17.75 17.75 0 011.12 6.45zm-4.37 0c0-1.94-.26-3.67-.8-5.2a10.94 10.94 0 00-2.23-3.87 9.57 9.57 0 00-3.53-2.42 12.23 12.23 0 00-4.61-.83h-7.5v24.62h7.5c1.7 0 3.24-.28 4.61-.84a9.7 9.7 0 003.53-2.4 10.94 10.94 0 002.24-3.87c.53-1.53.8-3.26.8-5.2zm19.8 5.72c-1.8.06-3.34.2-4.62.44-1.26.22-2.3.51-3.1.88-.8.36-1.37.8-1.74 1.3-.35.5-.53 1.05-.53 1.67 0 .58.1 1.1.3 1.52a3 3 0 00.76 1.05c.34.27.73.46 1.17.6a6.13 6.13 0 001.45.17 7.28 7.28 0 003.5-.81 11.95 11.95 0 002.82-2.2v-4.62zm-12.65-9.11a12.73 12.73 0 013.98-2.66c1.43-.59 3-.88 4.73-.88 1.25 0 2.36.2 3.33.61a6.81 6.81 0 013.94 4.38c.33 1.04.5 2.19.5 3.43V93h-1.74a1.8 1.8 0 01-.88-.18c-.2-.13-.36-.38-.48-.74l-.44-2.12-1.72 1.46a9.48 9.48 0 01-3.74 1.7c-.69.15-1.46.23-2.3.23-.87 0-1.69-.12-2.45-.35a5.34 5.34 0 01-3.34-2.93 6.64 6.64 0 01-.49-2.64c0-.88.25-1.72.73-2.53a6.33 6.33 0 012.35-2.17c1.09-.63 2.5-1.15 4.25-1.54 1.75-.41 3.89-.65 6.42-.7v-1.75c0-1.73-.37-3.03-1.12-3.91-.75-.9-1.84-1.34-3.28-1.34-.97 0-1.78.12-2.44.37-.64.23-1.2.5-1.7.81l-1.23.82c-.33.23-.67.35-1 .35-.27 0-.5-.07-.69-.2a2.1 2.1 0 01-.48-.53l-.7-1.25zm27.67 19.5c-1.76 0-3.12-.5-4.07-1.48-.94-.98-1.41-2.4-1.41-4.25V74h-2.68a.9.9 0 01-.6-.2c-.16-.14-.24-.36-.24-.66v-1.56l3.65-.46.9-6.89a.9.9 0 01.29-.52.88.88 0 01.62-.22H142v7.67h6.44V74H142v13.38c0 .94.22 1.63.68 2.09.45.45 1.04.68 1.76.68a3.21 3.21 0 001.85-.53l.55-.35c.16-.12.3-.18.41-.18.2 0 .4.13.55.38l1.15 1.87a7.45 7.45 0 01-2.44 1.5 8.53 8.53 0 01-2.95.52zm19.68-10.4c-1.8.07-3.34.21-4.62.45-1.26.22-2.3.51-3.1.88-.8.36-1.37.8-1.74 1.3-.35.5-.53 1.05-.53 1.67 0 .58.1 1.1.3 1.52a2.9 2.9 0 00.76 1.05c.34.27.73.46 1.17.6a6.13 6.13 0 001.45.17 7.3 7.3 0 003.5-.81 12.04 12.04 0 002.82-2.2v-4.62zm-12.65-9.1a12.72 12.72 0 013.99-2.66c1.42-.59 3-.88 4.72-.88 1.25 0 2.36.2 3.33.61a6.81 6.81 0 013.94 4.38c.33 1.04.5 2.19.5 3.43V93h-1.74a1.8 1.8 0 01-.88-.18c-.2-.13-.36-.38-.48-.74l-.44-2.12-1.72 1.46a9.48 9.48 0 01-3.74 1.7c-.69.15-1.46.23-2.3.23-.87 0-1.69-.12-2.45-.35a5.33 5.33 0 01-3.34-2.93 6.62 6.62 0 01-.49-2.64c0-.88.25-1.72.73-2.53a6.33 6.33 0 012.35-2.17c1.09-.63 2.5-1.15 4.25-1.54a31.2 31.2 0 016.42-.7v-1.75c0-1.73-.37-3.03-1.12-3.91-.75-.9-1.84-1.34-3.28-1.34-.97 0-1.78.12-2.44.37-.64.23-1.2.5-1.7.81l-1.22.82c-.34.23-.68.35-1.02.35-.26 0-.49-.07-.68-.2a1.88 1.88 0 01-.48-.53l-.7-1.25z" fill="#fff"/><path fill="#D42B21" d="M0 106.79h210V120H0z"/></g><defs><clipPath id="clip0"><path fill="#fff" d="M0 0h210v120H0z"/></clipPath></defs></svg></g><a href="https://ourworldindata.org/grapher/consumption-co2-per-capita-vs-gdppc?tab=chart&amp;yScale=log&amp;stackMode=absolute&amp;zoomToSelection=true&amp;endpointsOnly=1&amp;time=earliest..latest&amp;country=BGD~BRA~CHN~EGY~ETH~IND~IDN~JPN~MEX~NGA~PAK~PHL~USA&amp;region=World" target="_blank" rel="noopener" font-family="&quot;Playfair Display&quot;,Georgia,&quot;Times New Roman&quot;,serif"><text font-size="21.6" x="15" y="32.3" fill="#555"><tspan x="15" y="32.28">Consumption-based CO₂ emissions per capita vs GDP per capita, 1990 to</tspan><tspan x="15" y="53.88">2017</tspan></text></a><text font-size="14.4" x="15" y="74.7" fill="#666"><tspan x="15" y="74.72">Annual consumption-based emissions are domestic emissions adjusted for trade. If a country imports goods the CO₂</tspan><tspan x="15" y="92">emissions needed to produce such goods are added to its domestic emissions; if it exports goods then this is subtracted.</tspan><tspan x="15" y="109.28"> GDP per capita is adjusted for price differences between countries (PPP) and over time (inflation).</tspan></text></g><g class="ScatterPlot"><g class="DualAxisView"><g class="HorizontalAxis"><text font-size="12.6" x="303.4" y="554"><tspan x="303.36" y="553.98">GDP per capita (int.-$)</tspan></text><text x="164.3" y="533.9" fill="#666" text-anchor="middle" font-size="16.2">$1,000</text><text x="258.2" y="533.9" fill="#666" text-anchor="middle" font-size="16.2">$2,000</text><text x="382.3" y="533.9" fill="#666" text-anchor="middle" font-size="16.2">$5,000</text><text x="476.2" y="533.9" fill="#666" text-anchor="middle" font-size="16.2">$10,000</text><text x="570.1" y="533.9" fill="#666" text-anchor="middle" font-size="16.2">$20,000</text><text x="694.2" y="533.9" fill="#666" text-anchor="middle" font-size="16.2">$50,000</text></g><g class="VerticalAxis"><text font-size="12.6" x="-471.2" y="25.1" transform="rotate(-90)"><tspan x="-471.24" y="25.08">Per capita consumption-based CO₂ emissions</tspan></text><text x="69.35" y="480.3" fill="#666" dominant-baseline="middle" text-anchor="end" font-size="16.2">0.1 t</text><text x="69.35" y="435.8" fill="#666" dominant-baseline="middle" text-anchor="end" font-size="16.2">0.2 t</text><text x="69.35" y="377" fill="#666" dominant-baseline="middle" text-anchor="end" font-size="16.2">0.5 t</text><text x="69.35" y="332.5" fill="#666" dominant-baseline="middle" text-anchor="end" font-size="16.2">1 t</text><text x="69.35" y="288" fill="#666" dominant-baseline="middle" text-anchor="end" font-size="16.2">2 t</text><text x="69.35" y="229.2" fill="#666" dominant-baseline="middle" text-anchor="end" font-size="16.2">5 t</text><text x="69.35" y="184.7" fill="#666" dominant-baseline="middle" text-anchor="end" font-size="16.2">10 t</text><text x="69.35" y="140.2" fill="#666" dominant-baseline="middle" text-anchor="end" font-size="16.2">20 t</text></g><g class="AxisGridLines horizontalLines" stroke="#d3d3d3" stroke-dasharray="3,2"><path d="M74.35 480.3h643.74M74.35 435.8h643.74M74.35 377h643.74M74.35 332.5h643.74M74.35 288h643.74M74.35 229.2h643.74M74.35 184.7h643.74M74.35 140.2h643.74"/></g><g class="AxisGridLines verticalLines" stroke-dasharray="3,2"><path stroke="#eee" d="M95.1 512.7V126.8M116 512.7V126.8M134.1 512.7V126.8M150 512.7V126.8"/><path stroke="#d3d3d3" d="M164.3 512.7V126.8M258.2 512.7V126.8"/><path stroke="#eee" d="M313.1 512.7V126.8M352.1 512.7V126.8"/><path stroke="#d3d3d3" d="M382.3 512.7V126.8"/><path stroke="#eee" d="M407 512.7V126.8M427.9 512.7V126.8M446 512.7V126.8M461.9 512.7V126.8"/><path stroke="#d3d3d3" d="M476.2 512.7V126.8M570.1 512.7V126.8"/><path stroke="#eee" d="M625 512.7V126.8M664 512.7V126.8"/><path stroke="#d3d3d3" d="M694.2 512.7V126.8"/></g></g><g class="PointsWithLabels clickable" clip-path="url(#a)" font-family="Arial, sans-serif"><path fill="rgba(255,255,255,0)" d="M74.35 126.8h643.74v385.9H74.35z"/><defs><clipPath id="a"><path d="M64.35 116.8h663.74v405.9H64.35z"/></clipPath></defs><g class="key-Vietnam_0"><circle cx="214" cy="401" r="1.2" fill="#e2e2e2" opacity=".7"/><path stroke-width=".61" opacity=".7" stroke="#ccc" fill="none" stroke-linecap="butt" d="M214 401l196-114"/><path cx="410" cy="287" r="1.81" fill="#e2e2e2" opacity=".7" d="M407.53 286.35l4.03-.26-2.21 3.38z"/></g><g class="key-Germany_0"><circle cx="630" cy="158" r="1.2" fill="#e2e2e2" opacity=".7"/><path stroke-width=".59" opacity=".7" stroke="#ccc" fill="none" stroke-linecap="butt" d="M630 158l50 23"/><path cx="680" cy="181" r="1.79" fill="#e2e2e2" opacity=".7" d="M679.12 178.63l2.5 3.12-4 .13z"/></g><g class="key-Turkey_0"><circle cx="493" cy="243" r="1.2" fill="#e2e2e2" opacity=".7"/><path stroke-width=".59" opacity=".7" stroke="#ccc" fill="none" stroke-linecap="butt" d="M493 243l108-21"/><path cx="601" cy="222" r="1.79" fill="#e2e2e2" opacity=".7" d="M598.9 220.58l3.86 1.08-3.18 2.44z"/></g><g class="key-Iran_0"><circle cx="493" cy="250" r="1.2" fill="#e2e2e2" opacity=".7"/><path stroke-width=".59" opacity=".7" stroke="#ccc" fill="none" stroke-linecap="butt" d="M493 250l70-52"/><path cx="563" cy="198" r="1.79" fill="#e2e2e2" opacity=".7" d="M560.5 197.63l3.94-.7-1.8 3.57z"/></g><g class="key-Thailand_0"><circle cx="420" cy="283" r="1.2" fill="#e2e2e2" opacity=".7"/><path stroke-width=".57" opacity=".7" stroke="#ccc" fill="none" stroke-linecap="butt" d="M420 283l122-40"/><path cx="542" cy="243" r="1.77" fill="#e2e2e2" opacity=".7" d="M539.77 241.87l3.91.58-2.81 2.78z"/></g><g class="key-United-Kingdom_0"><circle cx="609" cy="174" r="1.2" fill="#e2e2e2" opacity=".7"/><path stroke-width=".56" opacity=".7" stroke="#ccc" fill="none" stroke-linecap="butt" d="M609 174l54 24"/><path cx="663" cy="198" r="1.76" fill="#e2e2e2" opacity=".7" d="M662.1 195.68l2.5 3.03-3.92.18z"/></g><g class="key-France_0"><circle cx="622" cy="193" r="1.2" fill="#e2e2e2" opacity=".7"/><path stroke-width=".56" opacity=".7" stroke="#ccc" fill="none" stroke-linecap="butt" d="M622 193l37 15"/><path cx="659" cy="208" r="1.76" fill="#e2e2e2" opacity=".7" d="M658.03 205.7l2.6 2.96-3.92.31z"/></g><g class="key-Italy_0"><circle cx="630" cy="185" r="1.2" fill="#e2e2e2" opacity=".7"/><path stroke-width=".55" opacity=".7" stroke="#ccc" fill="none" stroke-linecap="butt" d="M630 185l16 17"/><path cx="646" cy="202" r="1.75" fill="#e2e2e2" opacity=".7" d="M646.07 199.53l1.13 3.74-3.67-1.34z"/></g><g class="key-South-Africa_0"><circle cx="472" cy="218" r="1.1" fill="#e2e2e2" opacity=".7"/><path stroke-width=".55" opacity=".7" stroke="#ccc" fill="none" stroke-linecap="butt" d="M472 218l32 1"/><path cx="504" cy="219" r="1.75" fill="#e2e2e2" opacity=".7" d="M502.3 217.2l3.45 1.85-3.55 1.64z"/></g><g class="key-Tanzania_0"><circle cx="216" cy="460" r="1.1" fill="#e2e2e2" opacity=".7"/><path stroke-width=".54" opacity=".7" stroke="#ccc" fill="none" stroke-linecap="butt" d="M216 460l82-63"/><path cx="298" cy="397" r="1.74" fill="#e2e2e2" opacity=".7" d="M295.56 396.68l3.82-.74-1.7 3.5z"/></g><g class="key-South-Korea_0"><circle cx="496" cy="203" r="1.1" fill="#e2e2e2" opacity=".7"/><path stroke-width=".54" opacity=".7" stroke="#ccc" fill="none" stroke-linecap="butt" d="M496 203l153-36"/><path cx="649" cy="167" r="1.74" fill="#e2e2e2" opacity=".7" d="M646.9 165.7l3.8.9-3 2.5z"/></g><g class="key-Kenya_0"><circle cx="281" cy="402" r="1.1" fill="#e2e2e2" opacity=".7"/><path stroke-width=".54" opacity=".7" stroke="#ccc" fill="none" stroke-linecap="butt" d="M281 402l31-28"/><path cx="312" cy="374" r="1.74" fill="#e2e2e2" opacity=".7" d="M309.54 373.88l3.75-1.05-1.41 3.63z"/></g><g class="key-Colombia_0"><circle cx="437" cy="290" r="1.1" fill="#e2e2e2" opacity=".7"/><path stroke-width=".53" opacity=".7" stroke="#ccc" fill="none" stroke-linecap="butt" d="M437 290l77-5"/><path cx="514" cy="285" r="1.73" fill="#e2e2e2" opacity=".7" d="M512.16 283.39l3.57 1.5-3.34 1.95z"/></g><g class="key-Spain_0"><circle cx="593" cy="209" r="1.1" fill="#e2e2e2" opacity=".7"/><path stroke-width=".53" opacity=".7" stroke="#ccc" fill="none" stroke-linecap="butt" d="M593 209l50 7"/><path cx="643" cy="216" r="1.73" fill="#e2e2e2" opacity=".7" d="M641.53 214.05l3.18 2.19-3.66 1.23z"/></g><g class="key-Ukraine_0"><circle cx="482" cy="185" r="1.2" fill="#e2e2e2" opacity=".7"/><path stroke-width=".53" opacity=".7" stroke="#ccc" fill="none" stroke-linecap="butt" d="M482 185l-38 49"/><path cx="444" cy="234" r="1.73" fill="#e2e2e2" opacity=".7" d="M446.43 233.7l-3.49 1.67.75-3.8z"/></g><g class="key-Argentina_0"><circle cx="486" cy="253" r="1.1" fill="#e2e2e2" opacity=".7"/><path stroke-width=".52" opacity=".7" stroke="#ccc" fill="none" stroke-linecap="butt" d="M486 253l76-17"/><path cx="562" cy="236" r="1.72" fill="#e2e2e2" opacity=".7" d="M559.95 234.7l3.73.92-2.98 2.43z"/></g><g class="key-Uganda_0"><circle cx="128" cy="488" r="1.1" fill="#e2e2e2" opacity=".7"/><path stroke-width=".52" opacity=".7" stroke="#ccc" fill="none" stroke-linecap="butt" d="M128 488l108-47"/><path cx="236" cy="441" r="1.72" fill="#e2e2e2" opacity=".7" d="M233.74 440.1l3.84.21-2.47 2.95z"/></g><g class="key-Poland_0"><circle cx="479" cy="195" r="1.1" fill="#e2e2e2" opacity=".7"/><path stroke-width=".51" opacity=".7" stroke="#ccc" fill="none" stroke-linecap="butt" d="M479 195l132 5"/><path cx="611" cy="200" r="1.71" fill="#e2e2e2" opacity=".7" d="M609.36 198.23l3.35 1.83-3.48 1.58z"/></g><g class="key-Canada_0"><circle cx="630" cy="147" r="1.1" fill="#e2e2e2" opacity=".7"/><path stroke-width=".51" opacity=".7" stroke="#ccc" fill="none" stroke-linecap="butt" d="M630 147l46 8"/><path cx="676" cy="155" r="1.71" fill="#e2e2e2" opacity=".7" d="M674.6 153.02l3.08 2.27-3.66 1.1z"/></g><g class="key-Morocco_0"><circle cx="349" cy="317" r="1.1" fill="#e2e2e2" opacity=".7"/><path stroke-width=".51" opacity=".7" stroke="#ccc" fill="none" stroke-linecap="butt" d="M349 317l87-24"/><path cx="436" cy="293" r="1.71" fill="#e2e2e2" opacity=".7" d="M433.9 291.8l3.75.75-2.84 2.55z"/></g><g class="key-Saudi-Arabia_0"><circle cx="672" cy="179" r="1.1" fill="#e2e2e2" opacity=".7"/><path stroke-width=".5" opacity=".7" stroke="#ccc" fill="none" stroke-linecap="butt" d="M672 179l19-34"/><path cx="691" cy="145" r="1.7" fill="#e2e2e2" opacity=".7" d="M688.69 145.65l3.14-2.13-.18 3.8z"/></g><g class="key-Peru_0"><circle cx="390" cy="327" r="1.1" fill="#e2e2e2" opacity=".7"/><path stroke-width=".5" opacity=".7" stroke="#ccc" fill="none" stroke-linecap="butt" d="M390 327l113-37"/><path cx="503" cy="290" r="1.7" fill="#e2e2e2" opacity=".7" d="M500.86 288.91l3.76.56-2.7 2.67z"/></g><g class="key-Malaysia_0"><circle cx="483" cy="248" r="1.1" fill="#e2e2e2" opacity=".7"/><path stroke-width=".5" opacity=".7" stroke="#ccc" fill="none" stroke-linecap="butt" d="M483 248l126-47"/><path cx="609" cy="201" r="1.7" fill="#e2e2e2" opacity=".7" d="M606.81 200l3.78.4-2.59 2.79z"/></g><g class="key-Venezuela_0"><circle cx="526" cy="231" r="1.1" fill="#e2e2e2" opacity=".7"/><path stroke-width=".49" opacity=".7" stroke="#ccc" fill="none" stroke-linecap="butt" d="M526 231l20-8"/><path cx="546" cy="223" r="1.69" fill="#e2e2e2" opacity=".7" d="M543.8 222.06l3.77.31-2.51 2.83z"/></g><g class="key-Ghana_0"><circle cx="252" cy="404" r="1.1" fill="#e2e2e2" opacity=".7"/><path stroke-width=".49" opacity=".7" stroke="#ccc" fill="none" stroke-linecap="butt" d="M252 404l107-42"/><path cx="359" cy="362" r="1.69" fill="#e2e2e2" opacity=".7" d="M356.8 361.04l3.77.34-2.53 2.81z"/></g><g class="key-Mozambique_0"><circle cx="32" cy="423" r="1.1" fill="#e2e2e2" opacity=".7"/><path stroke-width=".49" opacity=".7" stroke="#ccc" fill="none" stroke-linecap="butt" d="M32 423l149-59"/><path cx="181" cy="364" r="1.69" fill="#e2e2e2" opacity=".7" d="M178.8 363.05l3.77.33-2.52 2.81z"/></g><g class="key-Nepal_0"><circle cx="188" cy="508" r="1.1" fill="#e2e2e2" opacity=".7"/><path stroke-width=".49" opacity=".7" stroke="#ccc" fill="none" stroke-linecap="butt" d="M188 508l97-140"/><path cx="285" cy="368" r="1.69" fill="#e2e2e2" opacity=".7" d="M282.65 368.43l3.31-1.82-.53 3.74z"/></g><g class="key-Madagascar_0"><circle cx="232" cy="471" r="1.1" fill="#e2e2e2" opacity=".7"/><path stroke-width=".49" opacity=".7" stroke="#ccc" fill="none" stroke-linecap="butt" d="M232 471l-21-35"/><path cx="211" cy="436" r="1.69" fill="#e2e2e2" opacity=".7" d="M210.42 438.32l-.29-3.77 3.19 2.03z"/></g><g class="key-Australia_0"><circle cx="618" cy="161" r="1.1" fill="#e2e2e2" opacity=".7"/><path stroke-width=".48" opacity=".7" stroke="#ccc" fill="none" stroke-linecap="butt" d="M618 161l60-6"/><path cx="678" cy="155" r="1.68" fill="#e2e2e2" opacity=".7" d="M676.16 153.5l3.51 1.33-3.17 2z"/></g><g class="key-Cameroon_0"><circle cx="314" cy="470" r="1.1" fill="#e2e2e2" opacity=".7"/><path stroke-width=".48" opacity=".7" stroke="#ccc" fill="none" stroke-linecap="butt" d="M314 470l14-83"/><path cx="328" cy="387" r="1.68" fill="#e2e2e2" opacity=".7" d="M326.06 388.38l2.22-3.04 1.1 3.6z"/></g><g class="key-Sri-Lanka_0"><circle cx="338" cy="397" r="1.1" fill="#e2e2e2" opacity=".7"/><path stroke-width=".47" opacity=".7" stroke="#ccc" fill="none" stroke-linecap="butt" d="M338 397l159-92"/><path cx="497" cy="305" r="1.67" fill="#e2e2e2" opacity=".7" d="M494.72 304.4l3.73-.24-2.06 3.12z"/></g><g class="key-Romania_0"><circle cx="494" cy="210" r="1.1" fill="#e2e2e2" opacity=".7"/><path stroke-width=".47" opacity=".7" stroke="#ccc" fill="none" stroke-linecap="butt" d="M494 210l96 33"/><path cx="590" cy="243" r="1.67" fill="#e2e2e2" opacity=".7" d="M588.96 240.88l2.62 2.66-3.7.5z"/></g><g class="key-Burkina-Faso_0"><circle cx="141" cy="485" r="1.1" fill="#e2e2e2" opacity=".7"/><path stroke-width=".47" opacity=".7" stroke="#ccc" fill="none" stroke-linecap="butt" d="M141 485l95-68"/><path cx="236" cy="417" r="1.67" fill="#e2e2e2" opacity=".7" d="M233.67 416.61l3.69-.58-1.75 3.3z"/></g><g class="key-Chile_0"><circle cx="461" cy="275" r="1.1" fill="#e2e2e2" opacity=".7"/><path stroke-width=".47" opacity=".7" stroke="#ccc" fill="none" stroke-linecap="butt" d="M461 275l126-45"/><path cx="587" cy="230" r="1.67" fill="#e2e2e2" opacity=".7" d="M584.87 228.99l3.7.45-2.58 2.7z"/></g><g class="key-Kazakhstan_0"><circle cx="512" cy="147" r="1.1" fill="#e2e2e2" opacity=".7"/><path stroke-width=".47" opacity=".7" stroke="#ccc" fill="none" stroke-linecap="butt" d="M512 147l83 19"/><path cx="595" cy="166" r="1.67" fill="#e2e2e2" opacity=".7" d="M593.74 164l2.89 2.37-3.63.89z"/></g><g class="key-Malawi_0"><circle cx="124" cy="449" r="1.1" fill="#e2e2e2" opacity=".7"/><path stroke-width=".47" opacity=".7" stroke="#ccc" fill="none" stroke-linecap="butt" d="M124 449l52-6"/><path cx="176" cy="443" r="1.67" fill="#e2e2e2" opacity=".7" d="M174.15 441.53l3.5 1.28-3.12 2.04z"/></g><g class="key-Netherlands_0"><circle cx="634" cy="165" r="1.1" fill="#e2e2e2" opacity=".7"/><path stroke-width=".46" opacity=".7" stroke="#ccc" fill="none" stroke-linecap="butt" d="M634 165l56 27"/><path cx="690" cy="192" r="1.66" fill="#e2e2e2" opacity=".7" d="M689.23 189.78l2.27 2.94-3.72.05z"/></g><g class="key-Guatemala_0"><circle cx="385" cy="353" r="1.1" fill="#e2e2e2" opacity=".7"/><path stroke-width=".46" opacity=".7" stroke="#ccc" fill="none" stroke-linecap="butt" d="M385 353l50-38"/><path cx="435" cy="315" r="1.66" fill="#e2e2e2" opacity=".7" d="M432.67 314.68l3.65-.68-1.64 3.33z"/></g><g class="key-Zambia_0"><circle cx="279" cy="402" r="1.1" fill="#e2e2e2" opacity=".7"/><path stroke-width=".46" opacity=".7" stroke="#ccc" fill="none" stroke-linecap="butt" d="M279 402l62-35"/><path cx="341" cy="367" r="1.66" fill="#e2e2e2" opacity=".7" d="M338.74 366.37l3.7-.19-2.07 3.08z"/></g><g class="key-Ecuador_0"><circle cx="436" cy="299" r="1.1" fill="#e2e2e2" opacity=".7"/><path stroke-width=".46" opacity=".7" stroke="#ccc" fill="none" stroke-linecap="butt" d="M436 299l47-33"/><path cx="483" cy="266" r="1.66" fill="#e2e2e2" opacity=".7" d="M480.69 265.6l3.67-.55-1.76 3.26z"/></g><g class="key-Cambodia_0"><circle cx="231" cy="433" r="1.1" fill="#e2e2e2" opacity=".7"/><path stroke-width=".46" opacity=".7" stroke="#ccc" fill="none" stroke-linecap="butt" d="M231 433l108-103"/><path cx="339" cy="330" r="1.66" fill="#e2e2e2" opacity=".7" d="M336.65 329.94l3.55-1.09-1.26 3.5z"/></g><g class="key-Senegal_0"><circle cx="247" cy="383" r="1.1" fill="#e2e2e2" opacity=".7"/><path stroke-width=".46" opacity=".7" stroke="#ccc" fill="none" stroke-linecap="butt" d="M247 383l39-25"/><path cx="286" cy="358" r="1.66" fill="#e2e2e2" opacity=".7" d="M283.7 357.5l3.7-.4-1.9 3.2z"/></g><g class="key-Zimbabwe_0"><circle cx="294" cy="298" r="1.1" fill="#e2e2e2" opacity=".7"/><path stroke-width=".46" opacity=".7" stroke="#ccc" fill="none" stroke-linecap="butt" d="M294 298l-43 46"/><path cx="251" cy="344" r="1.66" fill="#e2e2e2" opacity=".7" d="M253.35 343.92l-3.48 1.3 1.05-3.57z"/></g><g class="key-Guinea_0"><circle cx="211" cy="451" r="1.1" fill="#e2e2e2" opacity=".7"/><path stroke-width=".45" opacity=".7" stroke="#ccc" fill="none" stroke-linecap="butt" d="M211 451l47-27"/><path cx="258" cy="424" r="1.65" fill="#e2e2e2" opacity=".7" d="M255.75 423.4l3.68-.22-2.04 3.07z"/></g><g class="key-Rwanda_0"><circle cx="145" cy="501" r="1.1" fill="#e2e2e2" opacity=".7"/><path stroke-width=".45" opacity=".7" stroke="#ccc" fill="none" stroke-linecap="butt" d="M145 501l102-13"/><path cx="247" cy="488" r="1.65" fill="#e2e2e2" opacity=".7" d="M245.15 486.57l3.49 1.22-3.07 2.06z"/></g><g class="key-Tunisia_0"><circle cx="398" cy="289" r="1.1" fill="#e2e2e2" opacity=".7"/><path stroke-width=".45" opacity=".7" stroke="#ccc" fill="none" stroke-linecap="butt" d="M398 289l89-14"/><path cx="487" cy="275" r="1.65" fill="#e2e2e2" opacity=".7" d="M485.11 273.63l3.52 1.11-3 2.15z"/></g><g class="key-Belgium_0"><circle cx="627" cy="156" r="1.1" fill="#e2e2e2" opacity=".7"/><path stroke-width=".45" opacity=".7" stroke="#ccc" fill="none" stroke-linecap="butt" d="M627 156l45 2"/><path cx="672" cy="158" r="1.65" fill="#e2e2e2" opacity=".7" d="M670.42 156.28l3.23 1.8-3.37 1.5z"/></g><g class="key-Bolivia_0"><circle cx="341" cy="345" r="1.1" fill="#e2e2e2" opacity=".7"/><path stroke-width=".45" opacity=".7" stroke="#ccc" fill="none" stroke-linecap="butt" d="M341 345l84-55"/><path cx="425" cy="290" r="1.65" fill="#e2e2e2" opacity=".7" d="M422.72 289.52l3.66-.42-1.86 3.18z"/></g><g class="key-Benin_0"><circle cx="215" cy="435" r="1.1" fill="#e2e2e2" opacity=".7"/><path stroke-width=".45" opacity=".7" stroke="#ccc" fill="none" stroke-linecap="butt" d="M215 435l47-89"/><path cx="262" cy="346" r="1.65" fill="#e2e2e2" opacity=".7" d="M259.77 346.69l3-2.15-.08 3.69z"/></g><g class="key-Greece_0"><circle cx="574" cy="188" r="1.1" fill="#e2e2e2" opacity=".7"/><path stroke-width=".45" opacity=".7" stroke="#ccc" fill="none" stroke-linecap="butt" d="M574 188l24 29"/><path cx="598" cy="217" r="1.65" fill="#e2e2e2" opacity=".7" d="M598.22 214.68l.83 3.6-3.37-1.5z"/></g><g class="key-Dominican-Republic_0"><circle cx="394" cy="314" r="1.1" fill="#e2e2e2" opacity=".7"/><path stroke-width=".45" opacity=".7" stroke="#ccc" fill="none" stroke-linecap="butt" d="M394 314l133-39"/><path cx="527" cy="275" r="1.65" fill="#e2e2e2" opacity=".7" d="M524.95 273.88l3.63.66-2.7 2.5z"/></g><g class="key-Portugal_0"><circle cx="571" cy="226" r="1.1" fill="#e2e2e2" opacity=".7"/><path stroke-width=".45" opacity=".7" stroke="#ccc" fill="none" stroke-linecap="butt" d="M571 226l44-5"/><path cx="615" cy="221" r="1.65" fill="#e2e2e2" opacity=".7" d="M613.17 219.55l3.47 1.26-3.1 2.02z"/></g><g class="key-Sweden_0"><circle cx="629" cy="185" r="1.1" fill="#e2e2e2" opacity=".7"/><path stroke-width=".44" opacity=".7" stroke="#ccc" fill="none" stroke-linecap="butt" d="M629 185l56 21"/><path cx="685" cy="206" r="1.64" fill="#e2e2e2" opacity=".7" d="M684.04 203.89l2.5 2.69-3.65.38z"/></g><g class="key-Azerbaijan_0"><circle cx="454" cy="244" r="1.1" fill="#e2e2e2" opacity=".7"/><path stroke-width=".44" opacity=".7" stroke="#ccc" fill="none" stroke-linecap="butt" d="M454 244h84"/><path cx="538" cy="244" r="1.64" fill="#e2e2e2" opacity=".7" d="M536.36 242.36l3.28 1.64-3.28 1.64z"/></g><g class="key-Jordan_0"><circle cx="413" cy="236" r="1.1" fill="#e2e2e2" opacity=".7"/><path stroke-width=".44" opacity=".7" stroke="#ccc" fill="none" stroke-linecap="butt" d="M413 236l38 16"/><path cx="451" cy="252" r="1.64" fill="#e2e2e2" opacity=".7" d="M450.12 249.85l2.4 2.79-3.67.24z"/></g><g class="key-Hungary_0"><circle cx="532" cy="194" r="1.1" fill="#e2e2e2" opacity=".7"/><path stroke-width=".44" opacity=".7" stroke="#ccc" fill="none" stroke-linecap="butt" d="M532 194l77 16"/><path cx="609" cy="210" r="1.64" fill="#e2e2e2" opacity=".7" d="M607.73 208.06l2.88 2.27-3.55.94z"/></g><g class="key-United-Arab-Emirates_0"><circle cx="801" cy="112" r="1.1" fill="#e2e2e2" opacity=".7"/><path stroke-width=".44" opacity=".7" stroke="#ccc" fill="none" stroke-linecap="butt" d="M801 112l-67 20"/><path cx="734" cy="132" r="1.64" fill="#e2e2e2" opacity=".7" d="M736.04 133.1l-3.61-.63 2.67-2.51z"/></g><g class="key-Belarus_0"><circle cx="451" cy="218" r="1.1" fill="#e2e2e2" opacity=".7"/><path stroke-width=".44" opacity=".7" stroke="#ccc" fill="none" stroke-linecap="butt" d="M451 218l98-6"/><path cx="549" cy="212" r="1.64" fill="#e2e2e2" opacity=".7" d="M547.26 210.46l3.38 1.44-3.18 1.84z"/></g><g class="key-Honduras_0"><circle cx="320" cy="360" r="1.1" fill="#e2e2e2" opacity=".7"/><path stroke-width=".44" opacity=".7" stroke="#ccc" fill="none" stroke-linecap="butt" d="M320 360l49-43"/><path cx="369" cy="317" r="1.64" fill="#e2e2e2" opacity=".7" d="M366.69 316.85l3.54-.93-1.38 3.4z"/></g><g class="key-Austria_0"><circle cx="630" cy="176" r="1.1" fill="#e2e2e2" opacity=".7"/><path stroke-width=".44" opacity=".7" stroke="#ccc" fill="none" stroke-linecap="butt" d="M630 176l51 3"/><path cx="681" cy="179" r="1.64" fill="#e2e2e2" opacity=".7" d="M679.46 177.27l3.18 1.83-3.37 1.44z"/></g><g class="key-Switzerland_0"><circle cx="689" cy="168" r="1.1" fill="#e2e2e2" opacity=".7"/><path stroke-width=".44" opacity=".7" stroke="#ccc" fill="none" stroke-linecap="butt" d="M689 168l23-6"/><path cx="712" cy="162" r="1.64" fill="#e2e2e2" opacity=".7" d="M710 160.83l3.59.76-2.76 2.41z"/></g><g class="key-Israel_0"><circle cx="573" cy="177" r="1.1" fill="#e2e2e2" opacity=".7"/><path stroke-width=".44" opacity=".7" stroke="#ccc" fill="none" stroke-linecap="butt" d="M573 177l65 10"/><path cx="638" cy="187" r="1.64" fill="#e2e2e2" opacity=".7" d="M636.63 185.13l3 2.12-3.5 1.12z"/></g><g class="key-Togo_0"><circle cx="205" cy="402" r="1.1" fill="#e2e2e2" opacity=".7"/><path stroke-width=".44" opacity=".7" stroke="#ccc" fill="none" stroke-linecap="butt" d="M205 402l7-69"/><path cx="212" cy="333" r="1.64" fill="#e2e2e2" opacity=".7" d="M210.2 334.47l1.97-3.1 1.3 3.43z"/></g><g class="key-Hong-Kong_0"><circle cx="610" cy="158" r="1.1" fill="#e2e2e2" opacity=".7"/><path stroke-width=".44" opacity=".7" stroke="#ccc" fill="none" stroke-linecap="butt" d="M610 158l99 2"/><path cx="709" cy="160" r="1.64" fill="#e2e2e2" opacity=".7" d="M707.4 158.33l3.24 1.7-3.31 1.58z"/></g><g class="key-Bulgaria_0"><circle cx="466" cy="208" r="1.1" fill="#e2e2e2" opacity=".7"/><path stroke-width=".44" opacity=".7" stroke="#ccc" fill="none" stroke-linecap="butt" d="M466 208l94 13"/><path cx="560" cy="221" r="1.64" fill="#e2e2e2" opacity=".7" d="M558.6 219.15l3.02 2.07-3.47 1.18z"/></g><g class="key-Laos_0"><circle cx="236" cy="438" r="1.1" fill="#e2e2e2" opacity=".7"/><path stroke-width=".44" opacity=".7" stroke="#ccc" fill="none" stroke-linecap="butt" d="M236 438l179-166"/><path cx="415" cy="272" r="1.64" fill="#e2e2e2" opacity=".7" d="M412.68 271.91l3.52-1.03-1.29 3.44z"/></g><g class="key-Paraguay_0"><circle cx="407" cy="340" r="1.1" fill="#e2e2e2" opacity=".7"/><path stroke-width=".43" opacity=".7" stroke="#ccc" fill="none" stroke-linecap="butt" d="M407 340l52-39"/><path cx="459" cy="301" r="1.63" fill="#e2e2e2" opacity=".7" d="M456.72 300.67l3.58-.65-1.63 3.26z"/></g><g class="key-El-Salvador_0"><circle cx="369" cy="349" r="1.1" fill="#e2e2e2" opacity=".7"/><path stroke-width=".43" opacity=".7" stroke="#ccc" fill="none" stroke-linecap="butt" d="M369 349l64-32"/><path cx="433" cy="317" r="1.63" fill="#e2e2e2" opacity=".7" d="M430.81 316.27h3.65l-2.19 2.92z"/></g><g class="key-Nicaragua_0"><circle cx="313" cy="365" r="1.1" fill="#e2e2e2" opacity=".7"/><path stroke-width=".43" opacity=".7" stroke="#ccc" fill="none" stroke-linecap="butt" d="M313 365l77-33"/><path cx="390" cy="332" r="1.63" fill="#e2e2e2" opacity=".7" d="M387.86 331.14l3.64.22-2.36 2.78z"/></g><g class="key-Kyrgyzstan_0"><circle cx="333" cy="231" r="1.1" fill="#e2e2e2" opacity=".7"/><path stroke-width=".43" opacity=".7" stroke="#ccc" fill="none" stroke-linecap="butt" d="M333 231l-4 43"/><path cx="329" cy="274" r="1.63" fill="#e2e2e2" opacity=".7" d="M330.77 272.53l-1.92 3.1-1.32-3.4z"/></g><g class="key-Denmark_0"><circle cx="641" cy="173" r="1.1" fill="#e2e2e2" opacity=".7"/><path stroke-width=".43" opacity=".7" stroke="#ccc" fill="none" stroke-linecap="butt" d="M641 173l43 19"/><path cx="684" cy="192" r="1.63" fill="#e2e2e2" opacity=".7" d="M683.17 189.85l2.32 2.8-3.64.18z"/></g><g class="key-Singapore_0"><circle cx="643" cy="129" r="1.1" fill="#e2e2e2" opacity=".7"/><path stroke-width=".43" opacity=".7" stroke="#ccc" fill="none" stroke-linecap="butt" d="M643 129l123 14"/><path cx="766" cy="143" r="1.63" fill="#e2e2e2" opacity=".7" d="M764.56 141.2l3.06 1.98-3.42 1.26z"/></g><g class="key-Finland_0"><circle cx="620" cy="154" r="1.1" fill="#e2e2e2" opacity=".7"/><path stroke-width=".43" opacity=".7" stroke="#ccc" fill="none" stroke-linecap="butt" d="M620 154l45 21"/><path cx="665" cy="175" r="1.63" fill="#e2e2e2" opacity=".7" d="M664.21 172.83l2.27 2.86-3.65.1z"/></g><g class="key-Slovakia_0"><circle cx="496" cy="164" r="1.1" fill="#e2e2e2" opacity=".7"/><path stroke-width=".43" opacity=".7" stroke="#ccc" fill="none" stroke-linecap="butt" d="M496 164l129 30"/><path cx="625" cy="194" r="1.63" fill="#e2e2e2" opacity=".7" d="M623.78 192.04l2.8 2.33-3.54.85z"/></g><g class="key-Norway_0"><circle cx="718" cy="185" r="1.1" fill="#e2e2e2" opacity=".7"/><path stroke-width=".43" opacity=".7" stroke="#ccc" fill="none" stroke-linecap="butt" d="M718 185l11 4"/><path cx="729" cy="189" r="1.63" fill="#e2e2e2" opacity=".7" d="M728.03 186.91l2.5 2.65-3.62.41z"/></g><g class="key-Costa-Rica_0"><circle cx="442" cy="300" r="1.1" fill="#e2e2e2" opacity=".7"/><path stroke-width=".43" opacity=".7" stroke="#ccc" fill="none" stroke-linecap="butt" d="M442 300l93-29"/><path cx="535" cy="271" r="1.63" fill="#e2e2e2" opacity=".7" d="M532.96 269.93l3.6.58-2.63 2.53z"/></g><g class="key-Ireland_0"><circle cx="579" cy="177" r="1.1" fill="#e2e2e2" opacity=".7"/><path stroke-width=".43" opacity=".7" stroke="#ccc" fill="none" stroke-linecap="butt" d="M579 177l155 15"/><path cx="734" cy="192" r="1.63" fill="#e2e2e2" opacity=".7" d="M732.53 190.22l3.1 1.94-3.4 1.3z"/></g><g class="key-New-Zealand_0"><circle cx="592" cy="199" r="1.1" fill="#e2e2e2" opacity=".7"/><path stroke-width=".43" opacity=".7" stroke="#ccc" fill="none" stroke-linecap="butt" d="M592 199l58-3"/><path cx="650" cy="196" r="1.63" fill="#e2e2e2" opacity=".7" d="M648.29 194.46l3.34 1.46-3.17 1.8z"/></g><g class="key-Oman_0"><circle cx="646" cy="208" r="1.1" fill="#e2e2e2" opacity=".7"/><path stroke-width=".43" opacity=".7" stroke="#ccc" fill="none" stroke-linecap="butt" d="M646 208l10-44"/><path cx="656" cy="164" r="1.63" fill="#e2e2e2" opacity=".7" d="M654.05 165.23l2.31-2.82.87 3.54z"/></g><g class="key-Croatia_0"><circle cx="507" cy="236" r="1.1" fill="#e2e2e2" opacity=".7"/><path stroke-width=".43" opacity=".7" stroke="#ccc" fill="none" stroke-linecap="butt" d="M507 236l80-9"/><path cx="587" cy="227" r="1.63" fill="#e2e2e2" opacity=".7" d="M585.2 225.56l3.42 1.26-3.06 1.98z"/></g><g class="key-Panama_0"><circle cx="443" cy="322" r="1.1" fill="#e2e2e2" opacity=".7"/><path stroke-width=".43" opacity=".7" stroke="#ccc" fill="none" stroke-linecap="butt" d="M443 322l141-103"/><path cx="584" cy="219" r="1.63" fill="#e2e2e2" opacity=".7" d="M581.72 218.65l3.6-.61-1.67 3.24z"/></g><g class="key-Kuwait_0"><circle cx="759" cy="144" r="1.1" fill="#e2e2e2" opacity=".7"/><path stroke-width=".43" opacity=".7" stroke="#ccc" fill="none" stroke-linecap="butt" d="M759 144l-29-17"/><path cx="730" cy="127" r="1.63" fill="#e2e2e2" opacity=".7" d="M730.58 129.23l-1.99-3.05 3.64.24z"/></g><g class="key-Georgia_0"><circle cx="446" cy="258" r="1.1" fill="#e2e2e2" opacity=".7"/><path stroke-width=".43" opacity=".7" stroke="#ccc" fill="none" stroke-linecap="butt" d="M446 258l26 8"/><path cx="472" cy="266" r="1.63" fill="#e2e2e2" opacity=".7" d="M470.92 263.96l2.64 2.52-3.6.6z"/></g><g class="key-Uruguay_0"><circle cx="474" cy="303" r="1.1" fill="#e2e2e2" opacity=".7"/><path stroke-width=".42" opacity=".7" stroke="#ccc" fill="none" stroke-linecap="butt" d="M474 303l99-46"/><path cx="573" cy="257" r="1.62" fill="#e2e2e2" opacity=".7" d="M570.85 256.21l3.62.1-2.26 2.84z"/></g><g class="key-Mongolia_0"><circle cx="385" cy="241" r="1.1" fill="#e2e2e2" opacity=".7"/><path stroke-width=".42" opacity=".7" stroke="#ccc" fill="none" stroke-linecap="butt" d="M385 241l114-56"/><path cx="499" cy="185" r="1.62" fill="#e2e2e2" opacity=".7" d="M496.83 184.26l3.62.03-2.19 2.88z"/></g><g class="key-Armenia_0"><circle cx="343" cy="253" r="1.1" fill="#e2e2e2" opacity=".7"/><path stroke-width=".42" opacity=".7" stroke="#ccc" fill="none" stroke-linecap="butt" d="M343 253l115 37"/><path cx="458" cy="290" r="1.62" fill="#e2e2e2" opacity=".7" d="M456.95 287.96l2.6 2.54-3.59.55z"/></g><g class="key-Jamaica_0"><circle cx="433" cy="260" r="1.1" fill="#e2e2e2" opacity=".7"/><path stroke-width=".42" opacity=".7" stroke="#ccc" fill="none" stroke-linecap="butt" d="M433 260l16 2"/><path cx="449" cy="262" r="1.62" fill="#e2e2e2" opacity=".7" d="M447.6 260.2l3 2-3.4 1.2z"/></g><g class="key-Albania_0"><circle cx="374" cy="300" r="1.1" fill="#e2e2e2" opacity=".7"/><path stroke-width=".42" opacity=".7" stroke="#ccc" fill="none" stroke-linecap="butt" d="M374 300l124-17"/><path cx="498" cy="283" r="1.62" fill="#e2e2e2" opacity=".7" d="M496.17 281.62l3.43 1.16-2.98 2.05z"/></g><g class="key-Lithuania_0"><circle cx="467" cy="175" r="1.1" fill="#e2e2e2" opacity=".7"/><path stroke-width=".42" opacity=".7" stroke="#ccc" fill="none" stroke-linecap="butt" d="M467 175l155 27"/><path cx="622" cy="202" r="1.62" fill="#e2e2e2" opacity=".7" d="M620.68 200.13l2.92 2.15-3.47 1.04z"/></g><g class="key-Qatar_0"><circle cx="798" cy="119" r="1.1" fill="#e2e2e2" opacity=".7"/><path stroke-width=".42" opacity=".7" stroke="#ccc" fill="none" stroke-linecap="butt" d="M798 119l11 4"/><path cx="809" cy="123" r="1.62" fill="#e2e2e2" opacity=".7" d="M808.03 120.92l2.5 2.63-3.6.42z"/></g><g class="key-Namibia_0"><circle cx="406" cy="354" r="1.1" fill="#e2e2e2" opacity=".7"/><path stroke-width=".42" opacity=".7" stroke="#ccc" fill="none" stroke-linecap="butt" d="M406 354l63-106"/><path cx="469" cy="248" r="1.62" fill="#e2e2e2" opacity=".7" d="M466.78 248.56l3.05-1.95-.27 3.61z"/></g><g class="key-Botswana_0"><circle cx="447" cy="284" r="1.1" fill="#e2e2e2" opacity=".7"/><path stroke-width=".42" opacity=".7" stroke="#ccc" fill="none" stroke-linecap="butt" d="M447 284l91-86"/><path cx="538" cy="198" r="1.62" fill="#e2e2e2" opacity=".7" d="M535.71 197.94l3.47-1.05-1.24 3.4z"/></g><g class="key-Slovenia_0"><circle cx="559" cy="199" r="1.1" fill="#e2e2e2" opacity=".7"/><path stroke-width=".42" opacity=".7" stroke="#ccc" fill="none" stroke-linecap="butt" d="M559 199l72-7"/><path cx="631" cy="192" r="1.62" fill="#e2e2e2" opacity=".7" d="M629.23 190.54l3.38 1.3-3.07 1.93z"/></g><g class="key-Latvia_0"><circle cx="450" cy="199" r="1.1" fill="#e2e2e2" opacity=".7"/><path stroke-width=".42" opacity=".7" stroke="#ccc" fill="none" stroke-linecap="butt" d="M450 199l150 15"/><path cx="600" cy="214" r="1.62" fill="#e2e2e2" opacity=".7" d="M598.55 212.23l3.06 1.93-3.38 1.3z"/></g><g class="key-Bahrain_0"><circle cx="646" cy="130" r="1.1" fill="#e2e2e2" opacity=".7"/><path stroke-width=".42" opacity=".7" stroke="#ccc" fill="none" stroke-linecap="butt" d="M646 130l28 40"/><path cx="674" cy="170" r="1.62" fill="#e2e2e2" opacity=".7" d="M674.4 167.74l.53 3.59-3.19-1.73z"/></g><g class="key-Trinidad-and-Tobago_0"><circle cx="503" cy="187" r="1.1" fill="#e2e2e2" opacity=".7"/><path stroke-width=".42" opacity=".7" stroke="#ccc" fill="none" stroke-linecap="butt" d="M503 187l116-48"/><path cx="619" cy="139" r="1.62" fill="#e2e2e2" opacity=".7" d="M616.88 138.12l3.62.26-2.38 2.74z"/></g><g class="key-Estonia_0"><circle cx="493" cy="140" r="1.1" fill="#e2e2e2" opacity=".7"/><path stroke-width=".42" opacity=".7" stroke="#ccc" fill="none" stroke-linecap="butt" d="M493 140l129 24"/><path cx="622" cy="164" r="1.62" fill="#e2e2e2" opacity=".7" d="M620.7 162.11l2.9 2.19-3.49 1z"/></g><g class="key-Mauritius_0"><circle cx="435" cy="274" r="1.1" fill="#e2e2e2" opacity=".7"/><path stroke-width=".42" opacity=".7" stroke="#ccc" fill="none" stroke-linecap="butt" d="M435 274l137-37"/><path cx="572" cy="237" r="1.62" fill="#e2e2e2" opacity=".7" d="M570.01 235.86l3.55.72-2.7 2.4z"/></g><g class="key-Cyprus_0"><circle cx="590" cy="193" r="1.1" fill="#e2e2e2" opacity=".7"/><path stroke-width=".42" opacity=".7" stroke="#ccc" fill="none" stroke-linecap="butt" d="M590 193l45 19"/><path cx="635" cy="212" r="1.62" fill="#e2e2e2" opacity=".7" d="M634.14 209.88l2.35 2.75-3.61.23z"/></g><g class="key-Luxembourg_0"><circle cx="713" cy="112" r="1.1" fill="#e2e2e2" opacity=".7"/><path stroke-width=".41" opacity=".7" stroke="#ccc" fill="none" stroke-linecap="butt" d="M713 112l67-16"/><path cx="780" cy="96" r="1.61" fill="#e2e2e2" opacity=".7" d="M778.06 94.8l3.5.83-2.75 2.31z"/></g><g class="key-Malta_0"><circle cx="541" cy="189" r="1.1" fill="#e2e2e2" opacity=".7"/><path stroke-width=".41" opacity=".7" stroke="#ccc" fill="none" stroke-linecap="butt" d="M541 189l110-14"/><path cx="651" cy="175" r="1.61" fill="#e2e2e2" opacity=".7" d="M649.2 173.6l3.4 1.2-3 2z"/></g><g class="key-Brunei_0"><circle cx="765" cy="149" r="1.1" fill="#e2e2e2" opacity=".7"/><path stroke-width=".41" opacity=".7" stroke="#ccc" fill="none" stroke-linecap="butt" d="M765 149l-22-20"/><path cx="743" cy="129" r="1.61" fill="#e2e2e2" opacity=".7" d="M743.1 131.27l-1.3-3.35 3.47.97z"/></g><g class="key-China_0"><path stroke-width="2.89" opacity="1" stroke="#2D8587" fill="none" stroke-linecap="butt" d="M221 290l312-74"/><circle cx="221" cy="290" r="2.45" fill="#2D8587" opacity="1" stroke="#2D8587" stroke-opacity=".6"/><path cx="533" cy="216" r="5.78" fill="#2D8587" opacity="1" d="M526.04 211.71l12.58 2.96-9.91 8.29z"/></g><g class="key-India_0"><path stroke-width="2.87" opacity="1" stroke="#2D8587" fill="none" stroke-linecap="butt" d="M240 355l176-56"/><circle cx="240" cy="355" r="2.43" fill="#2D8587" opacity="1" stroke="#2D8587" stroke-opacity=".6"/><path cx="416" cy="299" r="5.73" fill="#2D8587" opacity="1" d="M408.8 295.28l12.66 1.98-9.18 8.94z"/></g><g class="key-United-States_0"><path stroke-width="2.43" opacity="1" stroke="#E04E4B" fill="none" stroke-linecap="butt" d="M653 140l52 9"/><circle cx="653" cy="140" r="2.22" fill="#E04E4B" opacity="1" stroke="#E04E4B" stroke-opacity=".6"/><path cx="705" cy="149" r="4.87" fill="#E04E4B" opacity="1" d="M701.03 143.37l8.77 6.46-10.43 3.14z"/></g><g class="key-Indonesia_0"><path stroke-width="2.39" opacity="1" stroke="#2D8587" fill="none" stroke-linecap="butt" d="M371 347l120-62"/><circle cx="371" cy="347" r="2.2" fill="#2D8587" opacity="1" stroke="#2D8587" stroke-opacity=".6"/><path cx="491" cy="285" r="4.79" fill="#2D8587" opacity="1" d="M484.55 282.94l10.7-.14-6.3 8.65z"/></g><g class="key-Pakistan_0"><path stroke-width="2.35" opacity="1" stroke="#2D8587" fill="none" stroke-linecap="butt" d="M315 358l68-35"/><circle cx="315" cy="358" r="2.18" fill="#2D8587" opacity="1" stroke="#2D8587" stroke-opacity=".6"/><path cx="383" cy="323" r="4.7" fill="#2D8587" opacity="1" d="M376.67 320.97l10.5-.12-6.2 8.48z"/></g><g class="key-Brazil_0"><path stroke-width="2.35" opacity="1" stroke="#932834" fill="none" stroke-linecap="butt" d="M480 303l42-29"/><circle cx="480" cy="303" r="2.18" fill="#932834" opacity="1" stroke="#932834" stroke-opacity=".6"/><path cx="522" cy="274" r="4.7" fill="#932834" opacity="1" d="M515.46 272.8l10.4-1.47-5.06 9.2z"/></g><g class="key-Nigeria_0"><path stroke-width="2.34" opacity="1" stroke="#923E8B" fill="none" stroke-linecap="butt" d="M315 391l76-35"/><circle cx="315" cy="391" r="2.17" fill="#923E8B" opacity="1" stroke="#923E8B" stroke-opacity=".6"/><path cx="391" cy="356" r="4.67" fill="#923E8B" opacity="1" d="M384.8 353.71l10.44.34-6.53 8.15z"/></g><g class="key-Bangladesh_0"><path stroke-width="2.31" opacity="1" stroke="#2D8587" fill="none" stroke-linecap="butt" d="M198 444l136-83"/><circle cx="198" cy="444" r="2.16" fill="#2D8587" opacity="1" stroke="#2D8587" stroke-opacity=".6"/><path cx="334" cy="361" r="4.62" fill="#2D8587" opacity="1" d="M327.65 359.46l10.3-.87-5.49 8.76z"/></g><g class="key-Japan_0"><path stroke-width="2.28" opacity="1" stroke="#2D8587" fill="none" stroke-linecap="butt" d="M627 180l33 1"/><circle cx="627" cy="180" r="2.14" fill="#2D8587" opacity="1" stroke="#2D8587" stroke-opacity=".6"/><path cx="660" cy="181" r="4.56" fill="#2D8587" opacity="1" d="M655.58 176.3l8.98 4.84-9.26 4.28z"/></g><g class="key-Mexico_0"><path stroke-width="2.28" opacity="1" stroke="#E04E4B" fill="none" stroke-linecap="butt" d="M512 246l38-1"/><circle cx="512" cy="246" r="2.14" fill="#E04E4B" opacity="1" stroke="#E04E4B" stroke-opacity=".6"/><path cx="550" cy="245" r="4.55" fill="#E04E4B" opacity="1" d="M545.33 240.57l9.22 4.31-8.98 4.79z"/></g><g class="key-Ethiopia_0"><path stroke-width="2.26" opacity="1" stroke="#923E8B" fill="none" stroke-linecap="butt" d="M106 493l132-56"/><circle cx="106" cy="493" r="2.13" fill="#923E8B" opacity="1" stroke="#923E8B" stroke-opacity=".6"/><path cx="238" cy="437" r="4.52" fill="#923E8B" opacity="1" d="M232.07 434.6l10.1.63-6.57 7.7z"/></g><g class="key-Philippines_0"><path stroke-width="2.26" opacity="1" stroke="#2D8587" fill="none" stroke-linecap="butt" d="M352 332l87-24"/><circle cx="352" cy="332" r="2.13" fill="#2D8587" opacity="1" stroke="#2D8587" stroke-opacity=".6"/><path cx="439" cy="308" r="4.51" fill="#2D8587" opacity="1" d="M433.45 304.85l9.9 1.95-7.5 6.75z"/></g><g class="key-Egypt_0"><path stroke-width="2.25" opacity="1" stroke="#923E8B" fill="none" stroke-linecap="butt" d="M404 308l79-37"/><circle cx="404" cy="308" r="2.12" fill="#923E8B" opacity="1" stroke="#923E8B" stroke-opacity=".6"/><path cx="483" cy="271" r="4.5" fill="#923E8B" opacity="1" d="M477.02 268.83l10.06.26-6.25 7.9z"/></g><text x="197.97" y="295.65" font-size="9" font-family="Arial, sans-serif" font-weight="400" fill="#fff" stroke="#fff" stroke-linecap="round" stroke-linejoin="round" stroke-width=".25em">1990</text><text x="197.97" y="295.65" font-size="9" font-family="Arial, sans-serif" font-weight="400" fill="#2D8587">1990</text><text x="537.87" y="214.85" font-size="16.9" font-family="Arial, sans-serif" font-weight="700" fill="#fff" stroke="#fff" stroke-linecap="round" stroke-linejoin="round" stroke-width=".25em">China</text><text x="537.87" y="214.85" font-size="16.9" font-family="Arial, sans-serif" font-weight="700" fill="#2D8587">China</text><text x="217.08" y="361.02" font-size="9" font-family="Arial, sans-serif" font-weight="400" fill="#fff" stroke="#fff" stroke-linecap="round" stroke-linejoin="round" stroke-width=".25em">1990</text><text x="217.08" y="361.02" font-size="9" font-family="Arial, sans-serif" font-weight="400" fill="#2D8587">1990</text><text x="420.76" y="297.48" font-size="16.67" font-family="Arial, sans-serif" font-weight="700" fill="#fff" stroke="#fff" stroke-linecap="round" stroke-linejoin="round" stroke-width=".25em">India</text><text x="420.76" y="297.48" font-size="16.67" font-family="Arial, sans-serif" font-weight="700" fill="#2D8587">India</text><text x="626.16" y="156.8" font-size="13.89" font-family="Arial, sans-serif" font-weight="700" fill="#fff" stroke="#fff" stroke-linecap="round" stroke-linejoin="round" stroke-width=".25em">United States</text><text x="626.16" y="156.8" font-size="13.89" font-family="Arial, sans-serif" font-weight="700" fill="#E04E4B">United States</text><text x="348.4" y="353.8" font-size="9" font-family="Arial, sans-serif" font-weight="400" fill="#fff" stroke="#fff" stroke-linecap="round" stroke-linejoin="round" stroke-width=".25em">1990</text><text x="348.4" y="353.8" font-size="9" font-family="Arial, sans-serif" font-weight="400" fill="#2D8587">1990</text><text x="495.44" y="282.7" font-size="13.73" font-family="Arial, sans-serif" font-weight="700" fill="#fff" stroke="#fff" stroke-linecap="round" stroke-linejoin="round" stroke-width=".25em">Indonesia</text><text x="495.44" y="282.7" font-size="13.73" font-family="Arial, sans-serif" font-weight="700" fill="#2D8587">Indonesia</text><text x="292.39" y="364.79" font-size="9" font-family="Arial, sans-serif" font-weight="400" fill="#fff" stroke="#fff" stroke-linecap="round" stroke-linejoin="round" stroke-width=".25em">1990</text><text x="292.39" y="364.79" font-size="9" font-family="Arial, sans-serif" font-weight="400" fill="#2D8587">1990</text><text x="387.45" y="320.71" font-size="13.57" font-family="Arial, sans-serif" font-weight="700" fill="#fff" stroke="#fff" stroke-linecap="round" stroke-linejoin="round" stroke-width=".25em">Pakistan</text><text x="387.45" y="320.71" font-size="13.57" font-family="Arial, sans-serif" font-weight="700" fill="#2D8587">Pakistan</text><text x="526.11" y="271.16" font-size="13.57" font-family="Arial, sans-serif" font-weight="700" fill="#fff" stroke="#fff" stroke-linecap="round" stroke-linejoin="round" stroke-width=".25em">Brazil</text><text x="526.11" y="271.16" font-size="13.57" font-family="Arial, sans-serif" font-weight="700" fill="#932834">Brazil</text><text x="292.3" y="397.59" font-size="9" font-family="Arial, sans-serif" font-weight="400" fill="#fff" stroke="#fff" stroke-linecap="round" stroke-linejoin="round" stroke-width=".25em">1990</text><text x="292.3" y="397.59" font-size="9" font-family="Arial, sans-serif" font-weight="400" fill="#923E8B">1990</text><text x="395.54" y="353.91" font-size="13.52" font-family="Arial, sans-serif" font-weight="700" fill="#fff" stroke="#fff" stroke-linecap="round" stroke-linejoin="round" stroke-width=".25em">Nigeria</text><text x="395.54" y="353.91" font-size="13.52" font-family="Arial, sans-serif" font-weight="700" fill="#923E8B">Nigeria</text><text x="175.57" y="451.1" font-size="9" font-family="Arial, sans-serif" font-weight="400" fill="#fff" stroke="#fff" stroke-linecap="round" stroke-linejoin="round" stroke-width=".25em">1990</text><text x="175.57" y="451.1" font-size="9" font-family="Arial, sans-serif" font-weight="400" fill="#2D8587">1990</text><text x="603.84" y="179.85" font-size="9" font-family="Arial, sans-serif" font-weight="400" fill="#fff" stroke="#fff" stroke-linecap="round" stroke-linejoin="round" stroke-width=".25em">1990</text><text x="603.84" y="179.85" font-size="9" font-family="Arial, sans-serif" font-weight="400" fill="#2D8587">1990</text><text x="665" y="187.83" font-size="13.35" font-family="Arial, sans-serif" font-weight="700" fill="#fff" stroke="#fff" stroke-linecap="round" stroke-linejoin="round" stroke-width=".25em">Japan</text><text x="665" y="187.83" font-size="13.35" font-family="Arial, sans-serif" font-weight="700" fill="#2D8587">Japan</text><text x="555" y="244.87" font-size="13.34" font-family="Arial, sans-serif" font-weight="700" fill="#fff" stroke="#fff" stroke-linecap="round" stroke-linejoin="round" stroke-width=".25em">Mexico</text><text x="555" y="244.87" font-size="13.34" font-family="Arial, sans-serif" font-weight="700" fill="#E04E4B">Mexico</text><text x="83.24" y="499.45" font-size="9" font-family="Arial, sans-serif" font-weight="400" fill="#fff" stroke="#fff" stroke-linecap="round" stroke-linejoin="round" stroke-width=".25em">1990</text><text x="83.24" y="499.45" font-size="9" font-family="Arial, sans-serif" font-weight="400" fill="#923E8B">1990</text><text x="242.6" y="435.05" font-size="13.29" font-family="Arial, sans-serif" font-weight="700" fill="#fff" stroke="#fff" stroke-linecap="round" stroke-linejoin="round" stroke-width=".25em">Ethiopia</text><text x="242.6" y="435.05" font-size="13.29" font-family="Arial, sans-serif" font-weight="700" fill="#923E8B">Ethiopia</text><text x="329.02" y="337.83" font-size="9" font-family="Arial, sans-serif" font-weight="400" fill="#fff" stroke="#fff" stroke-linecap="round" stroke-linejoin="round" stroke-width=".25em">1990</text><text x="329.02" y="337.83" font-size="9" font-family="Arial, sans-serif" font-weight="400" fill="#2D8587">1990</text><text x="443.82" y="306.67" font-size="13.29" font-family="Arial, sans-serif" font-weight="700" fill="#fff" stroke="#fff" stroke-linecap="round" stroke-linejoin="round" stroke-width=".25em">Philippines</text><text x="443.82" y="306.67" font-size="13.29" font-family="Arial, sans-serif" font-weight="700" fill="#2D8587">Philippines</text><text x="487.53" y="268.88" font-size="13.26" font-family="Arial, sans-serif" font-weight="700" fill="#fff" stroke="#fff" stroke-linecap="round" stroke-linejoin="round" stroke-width=".25em">Egypt</text><text x="487.53" y="268.88" font-size="13.26" font-family="Arial, sans-serif" font-weight="700" fill="#923E8B">Egypt</text></g><g class="ScatterColorLegend clickable" cursor="pointer"><g class="legendMark"><path fill="#923E8B" d="M738.09 128.6h9v9h-9z"/><text font-size="12.6" x="752.1" y="136.9"><tspan x="752.09" y="136.88">Africa</tspan></text></g><g class="legendMark"><path fill="#2D8587" d="M738.09 146.2h9v9h-9z"/><text font-size="12.6" x="752.1" y="154.5"><tspan x="752.09" y="154.48">Asia</tspan></text></g><g class="legendMark" fill="#ccc"><path d="M738.09 163.8h9v9h-9z"/><text font-size="12.6" x="752.1" y="172.1"><tspan x="752.09" y="172.08">Europe</tspan></text></g><g class="legendMark"><path fill="#E04E4B" d="M738.09 181.4h9v9h-9z"/><text font-size="12.6" x="752.1" y="189.7"><tspan x="752.09" y="189.68">North America</tspan></text></g><g class="legendMark" fill="#ccc"><path d="M738.09 199h9v9h-9z"/><text font-size="12.6" x="752.1" y="207.3"><tspan x="752.09" y="207.28">Oceania</tspan></text></g><g class="legendMark"><path fill="#932834" d="M738.09 216.6h9v9h-9z"/><text font-size="12.6" x="752.1" y="224.9"><tspan x="752.09" y="224.88">South America</tspan></text></g></g><path stroke="#ccc" d="M738.09 234.4H830"/><g class="clickable"><g class="ConnectedScatterLegend"><text font-size="12.6" x="738.1" y="253.5" fill="#333"><tspan x="738.09" y="253.48">1990</tspan></text><text font-size="12.6" x="806.8" y="253.5" fill="#333"><tspan x="806.78" y="253.48">2017</tspan></text><path stroke="#666" stroke-width="1" d="M771.32 249.2h30.46"/><circle cx="771.32" cy="249.2" r="2" fill="#666" stroke="#ccc" stroke-width=".2"/><path cx="801.78" cy="249.2" r="3" fill="#666" stroke="#ccc" stroke-width=".2" d="M798.78 246.2l6 3-6 3z"/></g></g></g><g class="SourcesFooter" fill="#777"><g class="clickable" fill="#777"><text font-size="12.6" x="15" y="581.6"><tspan x="15" y="581.58">Source: OWID based on Global Carbon Project &amp; UN Population</tspan></text></g><text font-size="12.6" x="431.9" y="581.6"><tspan x="431.93" y="581.58"><a target="_blank" href="https://ourworldindata.org/co2-and-other-greenhouse-gas-emissions" fill="#777">OurWorldInData.org/co2-and-other-greenhouse-gas-emissions</a> • <a class="cclogo" href="http://creativecommons.org/licenses/by/4.0/deed.en_US" target="_blank" fill="#777">CC BY</a></tspan></text></g></svg>