<svg xmlns="http://www.w3.org/2000/svg" version="1.1" style="background-color:#fff;-webkit-font-smoothing:antialiased" width="850" height="600" viewBox="0 0 850 600" font-family="Lato,'Helvetica Neue',Helvetica,Arial,sans-serif" font-size="18" text-rendering="optimizeLegibility"><g class="HeaderView"><g transform="matrix(.29 0 0 .29 774 15)"><svg className="owidLog" width="210" height="120" viewBox="0 0 210 120" fill="none" xmlns="http://www.w3.org/2000/svg"><g clip-path="url(#clip0)"><path d="M0 0h210v107.89H0V0z" fill="#002147"/><path d="M40.98 32.25c0 2.36-.38 4.53-1.12 6.51a14.26 14.26 0 01-8.1 8.4c-1.9.78-4.02 1.17-6.34 1.17a16.6 16.6 0 01-6.33-1.17 14.31 14.31 0 01-8.08-8.4 18.29 18.29 0 01-1.12-6.51c0-2.36.38-4.53 1.12-6.5.75-1.97 1.8-3.67 3.17-5.1a14.32 14.32 0 014.9-3.34c1.92-.8 4.03-1.19 6.34-1.19 2.32 0 4.43.4 6.34 1.19 1.92.8 3.56 1.9 4.93 3.34a14.87 14.87 0 013.17 5.1 18.1 18.1 0 011.12 6.5zm-4.38 0c0-1.94-.26-3.68-.8-5.22a10.91 10.91 0 00-2.24-3.89 9.68 9.68 0 00-3.52-2.46 11.95 11.95 0 00-4.62-.86c-1.68 0-3.21.28-4.6.86a9.88 9.88 0 00-3.54 2.46 10.91 10.91 0 00-2.24 3.9c-.53 1.53-.8 3.27-.8 5.2 0 1.94.27 3.68.8 5.22a11.17 11.17 0 002.24 3.9 10.01 10.01 0 003.55 2.44c1.38.56 2.9.83 4.6.83s3.24-.27 4.61-.83a9.8 9.8 0 003.52-2.44 11.17 11.17 0 002.25-3.9c.53-1.54.8-3.28.8-5.21zm26.22-6.54V48H60.5c-.56 0-.9-.27-1.05-.81l-.31-2.4a12.45 12.45 0 01-3.26 2.6c-1.2.64-2.58.96-4.13.96-1.22 0-2.3-.2-3.24-.6a6.52 6.52 0 01-2.33-1.7 7.37 7.37 0 01-1.43-2.67c-.3-1.04-.46-2.2-.46-3.45V25.7h3.91v14.22c0 1.68.38 2.99 1.15 3.91.77.93 1.96 1.39 3.54 1.39 1.16 0 2.24-.27 3.23-.82a10.42 10.42 0 002.8-2.28V25.7h3.91zm8.61 4.47a9.94 9.94 0 012.6-3.56 5.64 5.64 0 013.76-1.3c.47 0 .92.05 1.34.15.44.1.83.27 1.17.49l-.3 2.92c-.09.37-.3.55-.66.55-.2 0-.5-.04-.9-.13a6.21 6.21 0 00-3.24.18 4.23 4.23 0 00-1.47.92c-.42.4-.81.9-1.17 1.5-.33.58-.64 1.26-.92 2.02V48H67.7V25.71h2.25c.42 0 .72.08.88.25.16.16.27.44.33.83l.26 3.39zm61.16-13.7L122.75 48h-3.82l-7.99-24.05a21.95 21.95 0 01-.42-1.58 38.36 38.36 0 01-.44 1.58L102.05 48h-3.83L88.4 16.47h3.54c.38 0 .7.1.95.29.26.2.43.43.5.73l6.52 21.9.28 1.28.29 1.46.3-1.46.38-1.27 7.41-21.91c.1-.25.26-.48.51-.69.27-.22.58-.33.95-.33h1.23c.38 0 .69.1.92.29a1.77 1.77 0 01.53.73l7.4 21.9a28.4 28.4 0 01.68 2.62 29.52 29.52 0 01.52-2.61l6.54-21.91a1.31 1.31 0 01.48-.7c.27-.21.58-.32.95-.32h3.32zm9.35 8.88c1.63 0 3.1.27 4.4.82a9.43 9.43 0 015.46 5.94c.5 1.4.74 2.98.74 4.73 0 1.76-.25 3.34-.74 4.75a9.43 9.43 0 01-5.46 5.92c-1.3.52-2.77.79-4.4.79-1.64 0-3.12-.27-4.44-.8a9.42 9.42 0 01-3.35-2.3c-.92-1-1.63-2.2-2.13-3.61-.49-1.41-.73-3-.73-4.75s.24-3.33.73-4.73c.5-1.43 1.2-2.64 2.13-3.63a9.4 9.4 0 013.35-2.31c1.32-.55 2.8-.82 4.44-.82zm0 19.89c2.2 0 3.84-.73 4.93-2.2 1.08-1.48 1.63-3.54 1.63-6.18 0-2.66-.55-4.72-1.63-6.2-1.09-1.49-2.73-2.23-4.93-2.23-1.12 0-2.09.2-2.93.57a5.71 5.71 0 00-2.06 1.65 7.5 7.5 0 00-1.24 2.67c-.26 1.04-.4 2.22-.4 3.54 0 2.64.55 4.7 1.64 6.18 1.1 1.47 2.76 2.2 4.99 2.2zm17.97-15.07a9.94 9.94 0 012.6-3.56 5.64 5.64 0 013.76-1.3c.47 0 .91.05 1.34.15.44.1.83.27 1.16.49l-.28 2.92c-.09.37-.31.55-.66.55-.2 0-.5-.04-.9-.13a6.2 6.2 0 00-3.24.18 4.23 4.23 0 00-1.47.92c-.43.4-.82.9-1.17 1.5a13.1 13.1 0 00-.92 2.02V48h-3.94V25.71h2.24c.43 0 .72.08.88.25.17.16.28.44.33.83l.27 3.39zm15.04-14.59V48h-3.92V15.6h3.92zm19.55 15.43a6.22 6.22 0 00-2.38-2.05 6.7 6.7 0 00-2.86-.6c-2.07 0-3.66.75-4.77 2.23-1.12 1.48-1.68 3.6-1.68 6.33 0 1.46.13 2.7.38 3.74a7.29 7.29 0 001.1 2.56 4.35 4.35 0 001.78 1.45c.7.3 1.5.46 2.4.46 1.29 0 2.41-.3 3.36-.88a9.6 9.6 0 002.67-2.49V31.02zm3.91-15.43V48h-2.33c-.56 0-.9-.27-1.06-.81l-.35-2.71a12.13 12.13 0 01-3.25 2.77 8.28 8.28 0 01-4.23 1.06 7.31 7.31 0 01-6.14-2.9c-.73-.96-1.3-2.15-1.69-3.57a18.35 18.35 0 01.07-9.48 11.29 11.29 0 011.89-3.7 8.7 8.7 0 017.06-3.34 7.96 7.96 0 016.12 2.62V15.59h3.91zM46.61 70.71V93H42.7V70.71h3.91zm.84-7c0 .39-.08.75-.24 1.09a2.81 2.81 0 01-1.52 1.47 2.67 2.67 0 01-2.16 0 2.9 2.9 0 01-1.45-1.47 2.67 2.67 0 010-2.16c.15-.35.35-.65.6-.9.25-.27.53-.47.85-.62a2.67 2.67 0 012.16 0c.35.15.65.35.9.62.27.25.47.55.62.9.16.34.24.7.24 1.08zm7.97 10.24c.49-.54 1-1.04 1.54-1.48a9.85 9.85 0 013.66-1.84 8.96 8.96 0 015.43.35c.94.4 1.72.97 2.33 1.71a7.36 7.36 0 011.43 2.67c.32 1.04.49 2.19.49 3.45V93h-3.94V78.81c0-1.69-.4-3-1.17-3.92-.76-.93-1.93-1.4-3.5-1.4a6.6 6.6 0 00-3.25.83c-1 .56-1.92 1.31-2.77 2.27V93h-3.94V70.71h2.35c.56 0 .9.28 1.04.82l.3 2.42zm57.7 3.3c0 2.36-.37 4.5-1.11 6.44a14.3 14.3 0 01-3.17 4.98 14.1 14.1 0 01-4.93 3.2c-1.9.76-4.02 1.13-6.33 1.13H85.8V61.47h11.77c2.31 0 4.42.39 6.33 1.15a13.8 13.8 0 018.1 8.18 17.75 17.75 0 011.12 6.45zm-4.37 0c0-1.94-.26-3.67-.8-5.2a10.94 10.94 0 00-2.23-3.87 9.57 9.57 0 00-3.53-2.42 12.23 12.23 0 00-4.61-.83h-7.5v24.62h7.5c1.7 0 3.24-.28 4.61-.84a9.7 9.7 0 003.53-2.4 10.94 10.94 0 002.24-3.87c.53-1.53.8-3.26.8-5.2zm19.8 5.72c-1.8.06-3.34.2-4.62.44-1.26.22-2.3.51-3.1.88-.8.36-1.37.8-1.74 1.3-.35.5-.53 1.05-.53 1.67 0 .58.1 1.1.3 1.52a3 3 0 00.76 1.05c.34.27.73.46 1.17.6a6.13 6.13 0 001.45.17 7.28 7.28 0 003.5-.81 11.95 11.95 0 002.82-2.2v-4.62zm-12.65-9.11a12.73 12.73 0 013.98-2.66c1.43-.59 3-.88 4.73-.88 1.25 0 2.36.2 3.33.61a6.81 6.81 0 013.94 4.38c.33 1.04.5 2.19.5 3.43V93h-1.74a1.8 1.8 0 01-.88-.18c-.2-.13-.36-.38-.48-.74l-.44-2.12-1.72 1.46a9.48 9.48 0 01-3.74 1.7c-.69.15-1.46.23-2.3.23-.87 0-1.69-.12-2.45-.35a5.34 5.34 0 01-3.34-2.93 6.64 6.64 0 01-.49-2.64c0-.88.25-1.72.73-2.53a6.33 6.33 0 012.35-2.17c1.09-.63 2.5-1.15 4.25-1.54 1.75-.41 3.89-.65 6.42-.7v-1.75c0-1.73-.37-3.03-1.12-3.91-.75-.9-1.84-1.34-3.28-1.34-.97 0-1.78.12-2.44.37-.64.23-1.2.5-1.7.81l-1.23.82c-.33.23-.67.35-1 .35-.27 0-.5-.07-.69-.2a2.1 2.1 0 01-.48-.53l-.7-1.25zm27.67 19.5c-1.76 0-3.12-.5-4.07-1.48-.94-.98-1.41-2.4-1.41-4.25V74h-2.68a.9.9 0 01-.6-.2c-.16-.14-.24-.36-.24-.66v-1.56l3.65-.46.9-6.89a.9.9 0 01.29-.52.88.88 0 01.62-.22H142v7.67h6.44V74H142v13.38c0 .94.22 1.63.68 2.09.45.45 1.04.68 1.76.68a3.21 3.21 0 001.85-.53l.55-.35c.16-.12.3-.18.41-.18.2 0 .4.13.55.38l1.15 1.87a7.45 7.45 0 01-2.44 1.5 8.53 8.53 0 01-2.95.52zm19.68-10.4c-1.8.07-3.34.21-4.62.45-1.26.22-2.3.51-3.1.88-.8.36-1.37.8-1.74 1.3-.35.5-.53 1.05-.53 1.67 0 .58.1 1.1.3 1.52a2.9 2.9 0 00.76 1.05c.34.27.73.46 1.17.6a6.13 6.13 0 001.45.17 7.3 7.3 0 003.5-.81 12.04 12.04 0 002.82-2.2v-4.62zm-12.65-9.1a12.72 12.72 0 013.99-2.66c1.42-.59 3-.88 4.72-.88 1.25 0 2.36.2 3.33.61a6.81 6.81 0 013.94 4.38c.33 1.04.5 2.19.5 3.43V93h-1.74a1.8 1.8 0 01-.88-.18c-.2-.13-.36-.38-.48-.74l-.44-2.12-1.72 1.46a9.48 9.48 0 01-3.74 1.7c-.69.15-1.46.23-2.3.23-.87 0-1.69-.12-2.45-.35a5.33 5.33 0 01-3.34-2.93 6.62 6.62 0 01-.49-2.64c0-.88.25-1.72.73-2.53a6.33 6.33 0 012.35-2.17c1.09-.63 2.5-1.15 4.25-1.54a31.2 31.2 0 016.42-.7v-1.75c0-1.73-.37-3.03-1.12-3.91-.75-.9-1.84-1.34-3.28-1.34-.97 0-1.78.12-2.44.37-.64.23-1.2.5-1.7.81l-1.22.82c-.34.23-.68.35-1.02.35-.26 0-.49-.07-.68-.2a1.88 1.88 0 01-.48-.53l-.7-1.25zM40.98 32.25c0 2.36-.38 4.53-1.12 6.51a14.26 14.26 0 01-8.1 8.4c-1.9.78-4.02 1.17-6.34 1.17a16.6 16.6 0 01-6.33-1.17 14.31 14.31 0 01-8.08-8.4 18.29 18.29 0 01-1.12-6.51c0-2.36.38-4.53 1.12-6.5.75-1.97 1.8-3.67 3.17-5.1a14.32 14.32 0 014.9-3.34c1.92-.8 4.03-1.19 6.34-1.19 2.32 0 4.43.4 6.34 1.19 1.92.8 3.56 1.9 4.93 3.34a14.87 14.87 0 013.17 5.1 18.1 18.1 0 011.12 6.5zm-4.38 0c0-1.94-.26-3.68-.8-5.22a10.91 10.91 0 00-2.24-3.89 9.68 9.68 0 00-3.52-2.46 11.95 11.95 0 00-4.62-.86c-1.68 0-3.21.28-4.6.86a9.88 9.88 0 00-3.54 2.46 10.91 10.91 0 00-2.24 3.9c-.53 1.53-.8 3.27-.8 5.2 0 1.94.27 3.68.8 5.22a11.17 11.17 0 002.24 3.9 10.01 10.01 0 003.55 2.44c1.38.56 2.9.83 4.6.83s3.24-.27 4.61-.83a9.8 9.8 0 003.52-2.44 11.17 11.17 0 002.25-3.9c.53-1.54.8-3.28.8-5.21zm26.22-6.54V48H60.5c-.56 0-.9-.27-1.05-.81l-.31-2.4a12.45 12.45 0 01-3.26 2.6c-1.2.64-2.58.96-4.13.96-1.22 0-2.3-.2-3.24-.6a6.52 6.52 0 01-2.33-1.7 7.37 7.37 0 01-1.43-2.67c-.3-1.04-.46-2.2-.46-3.45V25.7h3.91v14.22c0 1.68.38 2.99 1.15 3.91.77.93 1.96 1.39 3.54 1.39 1.16 0 2.24-.27 3.23-.82a10.42 10.42 0 002.8-2.28V25.7h3.91zm8.61 4.47a9.94 9.94 0 012.6-3.56 5.64 5.64 0 013.76-1.3c.47 0 .92.05 1.34.15.44.1.83.27 1.17.49l-.3 2.92c-.09.37-.3.55-.66.55-.2 0-.5-.04-.9-.13a6.21 6.21 0 00-3.24.18 4.23 4.23 0 00-1.47.92c-.42.4-.81.9-1.17 1.5-.33.58-.64 1.26-.92 2.02V48H67.7V25.71h2.25c.42 0 .72.08.88.25.16.16.27.44.33.83l.26 3.39zm61.16-13.7L122.75 48h-3.82l-7.99-24.05a21.95 21.95 0 01-.42-1.58 38.36 38.36 0 01-.44 1.58L102.05 48h-3.83L88.4 16.47h3.54c.38 0 .7.1.95.29.26.2.43.43.5.73l6.52 21.9.28 1.28.29 1.46.3-1.46.38-1.27 7.41-21.91c.1-.25.26-.48.51-.69.27-.22.58-.33.95-.33h1.23c.38 0 .69.1.92.29a1.77 1.77 0 01.53.73l7.4 21.9a28.4 28.4 0 01.68 2.62 29.52 29.52 0 01.52-2.61l6.54-21.91a1.31 1.31 0 01.48-.7c.27-.21.58-.32.95-.32h3.32zm9.35 8.88c1.63 0 3.1.27 4.4.82a9.43 9.43 0 015.46 5.94c.5 1.4.74 2.98.74 4.73 0 1.76-.25 3.34-.74 4.75a9.43 9.43 0 01-5.46 5.92c-1.3.52-2.77.79-4.4.79-1.64 0-3.12-.27-4.44-.8a9.42 9.42 0 01-3.35-2.3c-.92-1-1.63-2.2-2.13-3.61-.49-1.41-.73-3-.73-4.75s.24-3.33.73-4.73c.5-1.43 1.2-2.64 2.13-3.63a9.4 9.4 0 013.35-2.31c1.32-.55 2.8-.82 4.44-.82zm0 19.89c2.2 0 3.84-.73 4.93-2.2 1.08-1.48 1.63-3.54 1.63-6.18 0-2.66-.55-4.72-1.63-6.2-1.09-1.49-2.73-2.23-4.93-2.23-1.12 0-2.09.2-2.93.57a5.71 5.71 0 00-2.06 1.65 7.5 7.5 0 00-1.24 2.67c-.26 1.04-.4 2.22-.4 3.54 0 2.64.55 4.7 1.64 6.18 1.1 1.47 2.76 2.2 4.99 2.2zm17.97-15.07a9.94 9.94 0 012.6-3.56 5.64 5.64 0 013.76-1.3c.47 0 .91.05 1.34.15.44.1.83.27 1.16.49l-.28 2.92c-.09.37-.31.55-.66.55-.2 0-.5-.04-.9-.13a6.2 6.2 0 00-3.24.18 4.23 4.23 0 00-1.47.92c-.43.4-.82.9-1.17 1.5a13.1 13.1 0 00-.92 2.02V48h-3.94V25.71h2.24c.43 0 .72.08.88.25.17.16.28.44.33.83l.27 3.39zm15.04-14.59V48h-3.92V15.6h3.92zm19.55 15.43a6.22 6.22 0 00-2.38-2.05 6.7 6.7 0 00-2.86-.6c-2.07 0-3.66.75-4.77 2.23-1.12 1.48-1.68 3.6-1.68 6.33 0 1.46.13 2.7.38 3.74a7.29 7.29 0 001.1 2.56 4.35 4.35 0 001.78 1.45c.7.3 1.5.46 2.4.46 1.29 0 2.41-.3 3.36-.88a9.6 9.6 0 002.67-2.49V31.02zm3.91-15.43V48h-2.33c-.56 0-.9-.27-1.06-.81l-.35-2.71a12.13 12.13 0 01-3.25 2.77 8.28 8.28 0 01-4.23 1.06 7.31 7.31 0 01-6.14-2.9c-.73-.96-1.3-2.15-1.69-3.57a18.35 18.35 0 01.07-9.48 11.29 11.29 0 011.89-3.7 8.7 8.7 0 017.06-3.34 7.96 7.96 0 016.12 2.62V15.59h3.91zM46.61 70.71V93H42.7V70.71h3.91zm.84-7c0 .39-.08.75-.24 1.09a2.81 2.81 0 01-1.52 1.47 2.67 2.67 0 01-2.16 0 2.9 2.9 0 01-1.45-1.47 2.67 2.67 0 010-2.16c.15-.35.35-.65.6-.9.25-.27.53-.47.85-.62a2.67 2.67 0 012.16 0c.35.15.65.35.9.62.27.25.47.55.62.9.16.34.24.7.24 1.08zm7.97 10.24c.49-.54 1-1.04 1.54-1.48a9.85 9.85 0 013.66-1.84 8.96 8.96 0 015.43.35c.94.4 1.72.97 2.33 1.71a7.36 7.36 0 011.43 2.67c.32 1.04.49 2.19.49 3.45V93h-3.94V78.81c0-1.69-.4-3-1.17-3.92-.76-.93-1.93-1.4-3.5-1.4a6.6 6.6 0 00-3.25.83c-1 .56-1.92 1.31-2.77 2.27V93h-3.94V70.71h2.35c.56 0 .9.28 1.04.82l.3 2.42zm57.7 3.3c0 2.36-.37 4.5-1.11 6.44a14.3 14.3 0 01-3.17 4.98 14.1 14.1 0 01-4.93 3.2c-1.9.76-4.02 1.13-6.33 1.13H85.8V61.47h11.77c2.31 0 4.42.39 6.33 1.15a13.8 13.8 0 018.1 8.18 17.75 17.75 0 011.12 6.45zm-4.37 0c0-1.94-.26-3.67-.8-5.2a10.94 10.94 0 00-2.23-3.87 9.57 9.57 0 00-3.53-2.42 12.23 12.23 0 00-4.61-.83h-7.5v24.62h7.5c1.7 0 3.24-.28 4.61-.84a9.7 9.7 0 003.53-2.4 10.94 10.94 0 002.24-3.87c.53-1.53.8-3.26.8-5.2zm19.8 5.72c-1.8.06-3.34.2-4.62.44-1.26.22-2.3.51-3.1.88-.8.36-1.37.8-1.74 1.3-.35.5-.53 1.05-.53 1.67 0 .58.1 1.1.3 1.52a3 3 0 00.76 1.05c.34.27.73.46 1.17.6a6.13 6.13 0 001.45.17 7.28 7.28 0 003.5-.81 11.95 11.95 0 002.82-2.2v-4.62zm-12.65-9.11a12.73 12.73 0 013.98-2.66c1.43-.59 3-.88 4.73-.88 1.25 0 2.36.2 3.33.61a6.81 6.81 0 013.94 4.38c.33 1.04.5 2.19.5 3.43V93h-1.74a1.8 1.8 0 01-.88-.18c-.2-.13-.36-.38-.48-.74l-.44-2.12-1.72 1.46a9.48 9.48 0 01-3.74 1.7c-.69.15-1.46.23-2.3.23-.87 0-1.69-.12-2.45-.35a5.34 5.34 0 01-3.34-2.93 6.64 6.64 0 01-.49-2.64c0-.88.25-1.72.73-2.53a6.33 6.33 0 012.35-2.17c1.09-.63 2.5-1.15 4.25-1.54 1.75-.41 3.89-.65 6.42-.7v-1.75c0-1.73-.37-3.03-1.12-3.91-.75-.9-1.84-1.34-3.28-1.34-.97 0-1.78.12-2.44.37-.64.23-1.2.5-1.7.81l-1.23.82c-.33.23-.67.35-1 .35-.27 0-.5-.07-.69-.2a2.1 2.1 0 01-.48-.53l-.7-1.25zm27.67 19.5c-1.76 0-3.12-.5-4.07-1.48-.94-.98-1.41-2.4-1.41-4.25V74h-2.68a.9.9 0 01-.6-.2c-.16-.14-.24-.36-.24-.66v-1.56l3.65-.46.9-6.89a.9.9 0 01.29-.52.88.88 0 01.62-.22H142v7.67h6.44V74H142v13.38c0 .94.22 1.63.68 2.09.45.45 1.04.68 1.76.68a3.21 3.21 0 001.85-.53l.55-.35c.16-.12.3-.18.41-.18.2 0 .4.13.55.38l1.15 1.87a7.45 7.45 0 01-2.44 1.5 8.53 8.53 0 01-2.95.52zm19.68-10.4c-1.8.07-3.34.21-4.62.45-1.26.22-2.3.51-3.1.88-.8.36-1.37.8-1.74 1.3-.35.5-.53 1.05-.53 1.67 0 .58.1 1.1.3 1.52a2.9 2.9 0 00.76 1.05c.34.27.73.46 1.17.6a6.13 6.13 0 001.45.17 7.3 7.3 0 003.5-.81 12.04 12.04 0 002.82-2.2v-4.62zm-12.65-9.1a12.72 12.72 0 013.99-2.66c1.42-.59 3-.88 4.72-.88 1.25 0 2.36.2 3.33.61a6.81 6.81 0 013.94 4.38c.33 1.04.5 2.19.5 3.43V93h-1.74a1.8 1.8 0 01-.88-.18c-.2-.13-.36-.38-.48-.74l-.44-2.12-1.72 1.46a9.48 9.48 0 01-3.74 1.7c-.69.15-1.46.23-2.3.23-.87 0-1.69-.12-2.45-.35a5.33 5.33 0 01-3.34-2.93 6.62 6.62 0 01-.49-2.64c0-.88.25-1.72.73-2.53a6.33 6.33 0 012.35-2.17c1.09-.63 2.5-1.15 4.25-1.54a31.2 31.2 0 016.42-.7v-1.75c0-1.73-.37-3.03-1.12-3.91-.75-.9-1.84-1.34-3.28-1.34-.97 0-1.78.12-2.44.37-.64.23-1.2.5-1.7.81l-1.22.82c-.34.23-.68.35-1.02.35-.26 0-.49-.07-.68-.2a1.88 1.88 0 01-.48-.53l-.7-1.25zM40.98 32.25c0 2.36-.38 4.53-1.12 6.51a14.26 14.26 0 01-8.1 8.4c-1.9.78-4.02 1.17-6.34 1.17a16.6 16.6 0 01-6.33-1.17 14.31 14.31 0 01-8.08-8.4 18.29 18.29 0 01-1.12-6.51c0-2.36.38-4.53 1.12-6.5.75-1.97 1.8-3.67 3.17-5.1a14.32 14.32 0 014.9-3.34c1.92-.8 4.03-1.19 6.34-1.19 2.32 0 4.43.4 6.34 1.19 1.92.8 3.56 1.9 4.93 3.34a14.87 14.87 0 013.17 5.1 18.1 18.1 0 011.12 6.5zm-4.38 0c0-1.94-.26-3.68-.8-5.22a10.91 10.91 0 00-2.24-3.89 9.68 9.68 0 00-3.52-2.46 11.95 11.95 0 00-4.62-.86c-1.68 0-3.21.28-4.6.86a9.88 9.88 0 00-3.54 2.46 10.91 10.91 0 00-2.24 3.9c-.53 1.53-.8 3.27-.8 5.2 0 1.94.27 3.68.8 5.22a11.17 11.17 0 002.24 3.9 10.01 10.01 0 003.55 2.44c1.38.56 2.9.83 4.6.83s3.24-.27 4.61-.83a9.8 9.8 0 003.52-2.44 11.17 11.17 0 002.25-3.9c.53-1.54.8-3.28.8-5.21zm26.22-6.54V48H60.5c-.56 0-.9-.27-1.05-.81l-.31-2.4a12.45 12.45 0 01-3.26 2.6c-1.2.64-2.58.96-4.13.96-1.22 0-2.3-.2-3.24-.6a6.52 6.52 0 01-2.33-1.7 7.37 7.37 0 01-1.43-2.67c-.3-1.04-.46-2.2-.46-3.45V25.7h3.91v14.22c0 1.68.38 2.99 1.15 3.91.77.93 1.96 1.39 3.54 1.39 1.16 0 2.24-.27 3.23-.82a10.42 10.42 0 002.8-2.28V25.7h3.91zm8.61 4.47a9.94 9.94 0 012.6-3.56 5.64 5.64 0 013.76-1.3c.47 0 .92.05 1.34.15.44.1.83.27 1.17.49l-.3 2.92c-.09.37-.3.55-.66.55-.2 0-.5-.04-.9-.13a6.21 6.21 0 00-3.24.18 4.23 4.23 0 00-1.47.92c-.42.4-.81.9-1.17 1.5-.33.58-.64 1.26-.92 2.02V48H67.7V25.71h2.25c.42 0 .72.08.88.25.16.16.27.44.33.83l.26 3.39zm61.16-13.7L122.75 48h-3.82l-7.99-24.05a21.95 21.95 0 01-.42-1.58 38.36 38.36 0 01-.44 1.58L102.05 48h-3.83L88.4 16.47h3.54c.38 0 .7.1.95.29.26.2.43.43.5.73l6.52 21.9.28 1.28.29 1.46.3-1.46.38-1.27 7.41-21.91c.1-.25.26-.48.51-.69.27-.22.58-.33.95-.33h1.23c.38 0 .69.1.92.29a1.77 1.77 0 01.53.73l7.4 21.9a28.4 28.4 0 01.68 2.62 29.52 29.52 0 01.52-2.61l6.54-21.91a1.31 1.31 0 01.48-.7c.27-.21.58-.32.95-.32h3.32zm9.35 8.88c1.63 0 3.1.27 4.4.82a9.43 9.43 0 015.46 5.94c.5 1.4.74 2.98.74 4.73 0 1.76-.25 3.34-.74 4.75a9.43 9.43 0 01-5.46 5.92c-1.3.52-2.77.79-4.4.79-1.64 0-3.12-.27-4.44-.8a9.42 9.42 0 01-3.35-2.3c-.92-1-1.63-2.2-2.13-3.61-.49-1.41-.73-3-.73-4.75s.24-3.33.73-4.73c.5-1.43 1.2-2.64 2.13-3.63a9.4 9.4 0 013.35-2.31c1.32-.55 2.8-.82 4.44-.82zm0 19.89c2.2 0 3.84-.73 4.93-2.2 1.08-1.48 1.63-3.54 1.63-6.18 0-2.66-.55-4.72-1.63-6.2-1.09-1.49-2.73-2.23-4.93-2.23-1.12 0-2.09.2-2.93.57a5.71 5.71 0 00-2.06 1.65 7.5 7.5 0 00-1.24 2.67c-.26 1.04-.4 2.22-.4 3.54 0 2.64.55 4.7 1.64 6.18 1.1 1.47 2.76 2.2 4.99 2.2zm17.97-15.07a9.94 9.94 0 012.6-3.56 5.64 5.64 0 013.76-1.3c.47 0 .91.05 1.34.15.44.1.83.27 1.16.49l-.28 2.92c-.09.37-.31.55-.66.55-.2 0-.5-.04-.9-.13a6.2 6.2 0 00-3.24.18 4.23 4.23 0 00-1.47.92c-.43.4-.82.9-1.17 1.5a13.1 13.1 0 00-.92 2.02V48h-3.94V25.71h2.24c.43 0 .72.08.88.25.17.16.28.44.33.83l.27 3.39zm15.04-14.59V48h-3.92V15.6h3.92zm19.55 15.43a6.22 6.22 0 00-2.38-2.05 6.7 6.7 0 00-2.86-.6c-2.07 0-3.66.75-4.77 2.23-1.12 1.48-1.68 3.6-1.68 6.33 0 1.46.13 2.7.38 3.74a7.29 7.29 0 001.1 2.56 4.35 4.35 0 001.78 1.45c.7.3 1.5.46 2.4.46 1.29 0 2.41-.3 3.36-.88a9.6 9.6 0 002.67-2.49V31.02zm3.91-15.43V48h-2.33c-.56 0-.9-.27-1.06-.81l-.35-2.71a12.13 12.13 0 01-3.25 2.77 8.28 8.28 0 01-4.23 1.06 7.31 7.31 0 01-6.14-2.9c-.73-.96-1.3-2.15-1.69-3.57a18.35 18.35 0 01.07-9.48 11.29 11.29 0 011.89-3.7 8.7 8.7 0 017.06-3.34 7.96 7.96 0 016.12 2.62V15.59h3.91zM46.61 70.71V93H42.7V70.71h3.91zm.84-7c0 .39-.08.75-.24 1.09a2.81 2.81 0 01-1.52 1.47 2.67 2.67 0 01-2.16 0 2.9 2.9 0 01-1.45-1.47 2.67 2.67 0 010-2.16c.15-.35.35-.65.6-.9.25-.27.53-.47.85-.62a2.67 2.67 0 012.16 0c.35.15.65.35.9.62.27.25.47.55.62.9.16.34.24.7.24 1.08zm7.97 10.24c.49-.54 1-1.04 1.54-1.48a9.85 9.85 0 013.66-1.84 8.96 8.96 0 015.43.35c.94.4 1.72.97 2.33 1.71a7.36 7.36 0 011.43 2.67c.32 1.04.49 2.19.49 3.45V93h-3.94V78.81c0-1.69-.4-3-1.17-3.92-.76-.93-1.93-1.4-3.5-1.4a6.6 6.6 0 00-3.25.83c-1 .56-1.92 1.31-2.77 2.27V93h-3.94V70.71h2.35c.56 0 .9.28 1.04.82l.3 2.42zm57.7 3.3c0 2.36-.37 4.5-1.11 6.44a14.3 14.3 0 01-3.17 4.98 14.1 14.1 0 01-4.93 3.2c-1.9.76-4.02 1.13-6.33 1.13H85.8V61.47h11.77c2.31 0 4.42.39 6.33 1.15a13.8 13.8 0 018.1 8.18 17.75 17.75 0 011.12 6.45zm-4.37 0c0-1.94-.26-3.67-.8-5.2a10.94 10.94 0 00-2.23-3.87 9.57 9.57 0 00-3.53-2.42 12.23 12.23 0 00-4.61-.83h-7.5v24.62h7.5c1.7 0 3.24-.28 4.61-.84a9.7 9.7 0 003.53-2.4 10.94 10.94 0 002.24-3.87c.53-1.53.8-3.26.8-5.2zm19.8 5.72c-1.8.06-3.34.2-4.62.44-1.26.22-2.3.51-3.1.88-.8.36-1.37.8-1.74 1.3-.35.5-.53 1.05-.53 1.67 0 .58.1 1.1.3 1.52a3 3 0 00.76 1.05c.34.27.73.46 1.17.6a6.13 6.13 0 001.45.17 7.28 7.28 0 003.5-.81 11.95 11.95 0 002.82-2.2v-4.62zm-12.65-9.11a12.73 12.73 0 013.98-2.66c1.43-.59 3-.88 4.73-.88 1.25 0 2.36.2 3.33.61a6.81 6.81 0 013.94 4.38c.33 1.04.5 2.19.5 3.43V93h-1.74a1.8 1.8 0 01-.88-.18c-.2-.13-.36-.38-.48-.74l-.44-2.12-1.72 1.46a9.48 9.48 0 01-3.74 1.7c-.69.15-1.46.23-2.3.23-.87 0-1.69-.12-2.45-.35a5.34 5.34 0 01-3.34-2.93 6.64 6.64 0 01-.49-2.64c0-.88.25-1.72.73-2.53a6.33 6.33 0 012.35-2.17c1.09-.63 2.5-1.15 4.25-1.54 1.75-.41 3.89-.65 6.42-.7v-1.75c0-1.73-.37-3.03-1.12-3.91-.75-.9-1.84-1.34-3.28-1.34-.97 0-1.78.12-2.44.37-.64.23-1.2.5-1.7.81l-1.23.82c-.33.23-.67.35-1 .35-.27 0-.5-.07-.69-.2a2.1 2.1 0 01-.48-.53l-.7-1.25zm27.67 19.5c-1.76 0-3.12-.5-4.07-1.48-.94-.98-1.41-2.4-1.41-4.25V74h-2.68a.9.9 0 01-.6-.2c-.16-.14-.24-.36-.24-.66v-1.56l3.65-.46.9-6.89a.9.9 0 01.29-.52.88.88 0 01.62-.22H142v7.67h6.44V74H142v13.38c0 .94.22 1.63.68 2.09.45.45 1.04.68 1.76.68a3.21 3.21 0 001.85-.53l.55-.35c.16-.12.3-.18.41-.18.2 0 .4.13.55.38l1.15 1.87a7.45 7.45 0 01-2.44 1.5 8.53 8.53 0 01-2.95.52zm19.68-10.4c-1.8.07-3.34.21-4.62.45-1.26.22-2.3.51-3.1.88-.8.36-1.37.8-1.74 1.3-.35.5-.53 1.05-.53 1.67 0 .58.1 1.1.3 1.52a2.9 2.9 0 00.76 1.05c.34.27.73.46 1.17.6a6.13 6.13 0 001.45.17 7.3 7.3 0 003.5-.81 12.04 12.04 0 002.82-2.2v-4.62zm-12.65-9.1a12.72 12.72 0 013.99-2.66c1.42-.59 3-.88 4.72-.88 1.25 0 2.36.2 3.33.61a6.81 6.81 0 013.94 4.38c.33 1.04.5 2.19.5 3.43V93h-1.74a1.8 1.8 0 01-.88-.18c-.2-.13-.36-.38-.48-.74l-.44-2.12-1.72 1.46a9.48 9.48 0 01-3.74 1.7c-.69.15-1.46.23-2.3.23-.87 0-1.69-.12-2.45-.35a5.33 5.33 0 01-3.34-2.93 6.62 6.62 0 01-.49-2.64c0-.88.25-1.72.73-2.53a6.33 6.33 0 012.35-2.17c1.09-.63 2.5-1.15 4.25-1.54a31.2 31.2 0 016.42-.7v-1.75c0-1.73-.37-3.03-1.12-3.91-.75-.9-1.84-1.34-3.28-1.34-.97 0-1.78.12-2.44.37-.64.23-1.2.5-1.7.81l-1.22.82c-.34.23-.68.35-1.02.35-.26 0-.49-.07-.68-.2a1.88 1.88 0 01-.48-.53l-.7-1.25z" fill="#fff"/><path fill="#D42B21" d="M0 106.79h210V120H0z"/></g><defs><clipPath id="clip0"><path fill="#fff" d="M0 0h210v120H0z"/></clipPath></defs></svg></g><a href="https://ourworldindata.org/grapher/consumption-co2-per-capita-vs-gdppc?yScale=log&amp;zoomToSelection=true&amp;endpointsOnly=1&amp;country=BGD~BRA~CHN~EGY~ETH~IND~IDN~JPN~MEX~NGA~PAK~PHL~RUS~USA" target="_blank" rel="noopener" font-family="&quot;Playfair Display&quot;,Georgia,&quot;Times New Roman&quot;,serif"><text font-size="21.6" x="15" y="32.3" fill="#555"><tspan x="15" y="32.28">Consumption-based CO₂ emissions per capita vs GDP per capita, 1990 to</tspan><tspan x="15" y="53.88">2017</tspan></text></a><text font-size="14.4" x="15" y="74.7" fill="#666"><tspan x="15" y="74.72">Annual consumption-based emissions are domestic emissions adjusted for trade. If a country imports goods the CO₂</tspan><tspan x="15" y="92">emissions needed to produce such goods are added to its domestic emissions; if it exports goods then this is subtracted.</tspan><tspan x="15" y="109.28"> GDP per capita is adjusted for price differences between countries (PPP) and over time (inflation).</tspan></text></g><g class="ScatterPlot"><g class="DualAxisView"><g class="HorizontalAxis"><text font-size="12.6" x="303.4" y="544.9"><tspan x="303.36" y="544.88">GDP per capita (int.-$)</tspan></text><text x="135.3" y="524.8" fill="#666" text-anchor="middle" font-size="16.2">$1,000</text><text x="234.1" y="524.8" fill="#666" text-anchor="middle" font-size="16.2">$2,000</text><text x="364.7" y="524.8" fill="#666" text-anchor="middle" font-size="16.2">$5,000</text><text x="463.5" y="524.8" fill="#666" text-anchor="middle" font-size="16.2">$10,000</text><text x="562.3" y="524.8" fill="#666" text-anchor="middle" font-size="16.2">$20,000</text><text x="692.9" y="524.8" fill="#666" text-anchor="middle" font-size="16.2">$50,000</text></g><g class="VerticalAxis"><text font-size="12.6" x="-466.7" y="25.1" transform="rotate(-90)"><tspan x="-466.69" y="25.08">Per capita consumption-based CO₂ emissions</tspan></text><text x="69.35" y="489.7" fill="#666" dominant-baseline="middle" text-anchor="end" font-size="16.2">0.1 t</text><text x="69.35" y="443.1" fill="#666" dominant-baseline="middle" text-anchor="end" font-size="16.2">0.2 t</text><text x="69.35" y="381.4" fill="#666" dominant-baseline="middle" text-anchor="end" font-size="16.2">0.5 t</text><text x="69.35" y="334.8" fill="#666" dominant-baseline="middle" text-anchor="end" font-size="16.2">1 t</text><text x="69.35" y="288.2" fill="#666" dominant-baseline="middle" text-anchor="end" font-size="16.2">2 t</text><text x="69.35" y="226.5" fill="#666" dominant-baseline="middle" text-anchor="end" font-size="16.2">5 t</text><text x="69.35" y="179.9" fill="#666" dominant-baseline="middle" text-anchor="end" font-size="16.2">10 t</text><text x="69.35" y="133.2" fill="#666" dominant-baseline="middle" text-anchor="end" font-size="16.2">20 t</text></g><g class="AxisGridLines horizontalLines" stroke="#d3d3d3" stroke-dasharray="3,2"><path d="M74.35 489.7h643.74M74.35 443.1h643.74M74.35 381.4h643.74M74.35 334.8h643.74M74.35 288.2h643.74M74.35 226.5h643.74M74.35 179.9h643.74M74.35 133.2h643.74"/></g><g class="AxisGridLines verticalLines" stroke-dasharray="3,2"><path stroke="#eee" d="M84.5 503.6V126.8M103.5 503.6V126.8M120.3 503.6V126.8"/><path stroke="#d3d3d3" d="M135.3 503.6V126.8M234.1 503.6V126.8"/><path stroke="#eee" d="M291.9 503.6V126.8M332.9 503.6V126.8"/><path stroke="#d3d3d3" d="M364.7 503.6V126.8"/><path stroke="#eee" d="M390.7 503.6V126.8M412.7 503.6V126.8M431.7 503.6V126.8M448.5 503.6V126.8"/><path stroke="#d3d3d3" d="M463.5 503.6V126.8M562.3 503.6V126.8"/><path stroke="#eee" d="M620.1 503.6V126.8M661.1 503.6V126.8"/><path stroke="#d3d3d3" d="M692.9 503.6V126.8"/></g></g><g class="PointsWithLabels clickable" clip-path="url(#a)" font-family="Arial, sans-serif"><path fill="rgba(255,255,255,0)" d="M74.35 126.8h643.74v376.8H74.35z"/><defs><clipPath id="a"><path d="M64.35 116.8h663.74v396.8H64.35z"/></clipPath></defs><g class="key-Vietnam"><circle cx="188" cy="407" r="1.2" fill="#e2e2e2" stroke="none" opacity=".7"/><path stroke-width=".61" opacity=".7" stroke="#ccc" fill="none" stroke-linecap="butt" d="M188 407l206-120"/><path cx="394" cy="287" r="1.81" fill="#e2e2e2" opacity=".7" d="M391.52 286.35l4.04-.26-2.21 3.39z"/></g><g class="key-Germany"><circle cx="626" cy="152" r="1.2" fill="#e2e2e2" stroke="none" opacity=".7"/><path stroke-width=".59" opacity=".7" stroke="#ccc" fill="none" stroke-linecap="butt" d="M626 152l52 24"/><path cx="678" cy="176" r="1.79" fill="#e2e2e2" opacity=".7" d="M677.12 173.62l2.5 3.13-4 .13z"/></g><g class="key-Turkey"><circle cx="482" cy="241" r="1.2" fill="#e2e2e2" stroke="none" opacity=".7"/><path stroke-width=".59" opacity=".7" stroke="#ccc" fill="none" stroke-linecap="butt" d="M482 241l112-22"/><path cx="594" cy="219" r="1.79" fill="#e2e2e2" opacity=".7" d="M591.9 217.59l3.86 1.06-3.17 2.45z"/></g><g class="key-Iran"><circle cx="482" cy="249" r="1.2" fill="#e2e2e2" stroke="none" opacity=".7"/><path stroke-width=".59" opacity=".7" stroke="#ccc" fill="none" stroke-linecap="butt" d="M482 249l73-55"/><path cx="555" cy="194" r="1.79" fill="#e2e2e2" opacity=".7" d="M552.5 193.65l3.93-.73-1.78 3.59z"/></g><g class="key-Thailand"><circle cx="405" cy="283" r="1.2" fill="#e2e2e2" stroke="none" opacity=".7"/><path stroke-width=".57" opacity=".7" stroke="#ccc" fill="none" stroke-linecap="butt" d="M405 283l128-42"/><path cx="533" cy="241" r="1.77" fill="#e2e2e2" opacity=".7" d="M530.77 239.87l3.91.58-2.81 2.78z"/></g><g class="key-United-Kingdom"><circle cx="604" cy="169" r="1.2" fill="#e2e2e2" stroke="none" opacity=".7"/><path stroke-width=".56" opacity=".7" stroke="#ccc" fill="none" stroke-linecap="butt" d="M604 169l56 25"/><path cx="660" cy="194" r="1.76" fill="#e2e2e2" opacity=".7" d="M659.11 191.68l2.5 3.04-3.93.17z"/></g><g class="key-France"><circle cx="617" cy="188" r="1.2" fill="#e2e2e2" stroke="none" opacity=".7"/><path stroke-width=".56" opacity=".7" stroke="#ccc" fill="none" stroke-linecap="butt" d="M617 188l39 16"/><path cx="656" cy="204" r="1.76" fill="#e2e2e2" opacity=".7" d="M655.04 201.7l2.59 2.97-3.93.29z"/></g><g class="key-Italy"><circle cx="625" cy="180" r="1.2" fill="#e2e2e2" stroke="none" opacity=".7"/><path stroke-width=".55" opacity=".7" stroke="#ccc" fill="none" stroke-linecap="butt" d="M625 180l18 18"/><path cx="643" cy="198" r="1.75" fill="#e2e2e2" opacity=".7" d="M643 195.53l1.24 3.7-3.71-1.23z"/></g><g class="key-South-Africa"><circle cx="459" cy="214" r="1.1" fill="#e2e2e2" stroke="none" opacity=".7"/><path stroke-width=".55" opacity=".7" stroke="#ccc" fill="none" stroke-linecap="butt" d="M459 214l34 2"/><path cx="493" cy="216" r="1.75" fill="#e2e2e2" opacity=".7" d="M491.36 214.15l3.39 1.95-3.6 1.54z"/></g><g class="key-Tanzania"><circle cx="190" cy="468" r="1.1" fill="#e2e2e2" stroke="none" opacity=".7"/><path stroke-width=".54" opacity=".7" stroke="#ccc" fill="none" stroke-linecap="butt" d="M190 468l86-65"/><path cx="276" cy="403" r="1.74" fill="#e2e2e2" opacity=".7" d="M273.56 402.66l3.83-.7-1.73 3.48z"/></g><g class="key-South-Korea"><circle cx="485" cy="199" r="1.1" fill="#e2e2e2" stroke="none" opacity=".7"/><path stroke-width=".54" opacity=".7" stroke="#ccc" fill="none" stroke-linecap="butt" d="M485 199l160-38"/><path cx="645" cy="161" r="1.74" fill="#e2e2e2" opacity=".7" d="M642.9 159.7l3.8.9-3 2.5z"/></g><g class="key-Kenya"><circle cx="259" cy="408" r="1.1" fill="#e2e2e2" stroke="none" opacity=".7"/><path stroke-width=".54" opacity=".7" stroke="#ccc" fill="none" stroke-linecap="butt" d="M259 408l32-30"/><path cx="291" cy="378" r="1.74" fill="#e2e2e2" opacity=".7" d="M288.54 377.92l3.73-1.11-1.35 3.65z"/></g><g class="key-Colombia"><circle cx="423" cy="291" r="1.1" fill="#e2e2e2" stroke="none" opacity=".7"/><path stroke-width=".53" opacity=".7" stroke="#ccc" fill="none" stroke-linecap="butt" d="M423 291l80-6"/><path cx="503" cy="285" r="1.73" fill="#e2e2e2" opacity=".7" d="M501.15 283.4l3.58 1.47-3.33 1.98z"/></g><g class="key-Spain"><circle cx="586" cy="206" r="1.1" fill="#e2e2e2" stroke="none" opacity=".7"/><path stroke-width=".53" opacity=".7" stroke="#ccc" fill="none" stroke-linecap="butt" d="M586 206l53 6"/><path cx="639" cy="212" r="1.73" fill="#e2e2e2" opacity=".7" d="M637.48 210.09l3.24 2.1-3.63 1.33z"/></g><g class="key-Ukraine"><circle cx="470" cy="181" r="1.2" fill="#e2e2e2" stroke="none" opacity=".7"/><path stroke-width=".53" opacity=".7" stroke="#ccc" fill="none" stroke-linecap="butt" d="M470 181l-41 51"/><path cx="429" cy="232" r="1.73" fill="#e2e2e2" opacity=".7" d="M431.43 231.74l-3.51 1.6.82-3.77z"/></g><g class="key-Argentina"><circle cx="474" cy="251" r="1.1" fill="#e2e2e2" stroke="none" opacity=".7"/><path stroke-width=".52" opacity=".7" stroke="#ccc" fill="none" stroke-linecap="butt" d="M474 251l80-17"/><path cx="554" cy="234" r="1.72" fill="#e2e2e2" opacity=".7" d="M551.96 232.68l3.72.96-3 2.4z"/></g><g class="key-Uganda"><circle cx="98" cy="498" r="1.1" fill="#e2e2e2" stroke="none" opacity=".7"/><path stroke-width=".52" opacity=".7" stroke="#ccc" fill="none" stroke-linecap="butt" d="M98 498l112-50"/><path cx="210" cy="448" r="1.72" fill="#e2e2e2" opacity=".7" d="M207.73 447.13l3.84.17-2.44 2.97z"/></g><g class="key-Poland"><circle cx="467" cy="190" r="1.1" fill="#e2e2e2" stroke="none" opacity=".7"/><path stroke-width=".51" opacity=".7" stroke="#ccc" fill="none" stroke-linecap="butt" d="M467 190l139 6"/><path cx="606" cy="196" r="1.71" fill="#e2e2e2" opacity=".7" d="M604.37 194.22l3.34 1.85-3.5 1.56z"/></g><g class="key-Canada"><circle cx="626" cy="141" r="1.1" fill="#e2e2e2" stroke="none" opacity=".7"/><path stroke-width=".51" opacity=".7" stroke="#ccc" fill="none" stroke-linecap="butt" d="M626 141l48 8"/><path cx="674" cy="149" r="1.71" fill="#e2e2e2" opacity=".7" d="M672.6 147.03l3.09 2.25-3.66 1.13z"/></g><g class="key-Morocco"><circle cx="329" cy="319" r="1.1" fill="#e2e2e2" stroke="none" opacity=".7"/><path stroke-width=".51" opacity=".7" stroke="#ccc" fill="none" stroke-linecap="butt" d="M329 319l93-26"/><path cx="422" cy="293" r="1.71" fill="#e2e2e2" opacity=".7" d="M419.9 291.81l3.75.73-2.84 2.57z"/></g><g class="key-Saudi-Arabia"><circle cx="669" cy="174" r="1.1" fill="#e2e2e2" stroke="none" opacity=".7"/><path stroke-width=".5" opacity=".7" stroke="#ccc" fill="none" stroke-linecap="butt" d="M669 174l21-36"/><path cx="690" cy="138" r="1.7" fill="#e2e2e2" opacity=".7" d="M687.67 138.61l3.19-2.08-.25 3.8z"/></g><g class="key-Peru"><circle cx="373" cy="329" r="1.1" fill="#e2e2e2" stroke="none" opacity=".7"/><path stroke-width=".5" opacity=".7" stroke="#ccc" fill="none" stroke-linecap="butt" d="M373 329l119-39"/><path cx="492" cy="290" r="1.7" fill="#e2e2e2" opacity=".7" d="M489.86 288.91l3.76.56-2.7 2.67z"/></g><g class="key-Malaysia"><circle cx="471" cy="247" r="1.1" fill="#e2e2e2" stroke="none" opacity=".7"/><path stroke-width=".5" opacity=".7" stroke="#ccc" fill="none" stroke-linecap="butt" d="M471 247l133-50"/><path cx="604" cy="197" r="1.7" fill="#e2e2e2" opacity=".7" d="M601.81 196l3.78.4-2.58 2.79z"/></g><g class="key-Venezuela"><circle cx="516" cy="229" r="1.1" fill="#e2e2e2" stroke="none" opacity=".7"/><path stroke-width=".5" opacity=".7" stroke="#ccc" fill="none" stroke-linecap="butt" d="M516 229l21-17"/><path cx="537" cy="212" r="1.7" fill="#e2e2e2" opacity=".7" d="M534.6 211.75l3.72-.82-1.57 3.46z"/></g><g class="key-Ghana"><circle cx="228" cy="409" r="1.1" fill="#e2e2e2" stroke="none" opacity=".7"/><path stroke-width=".49" opacity=".7" stroke="#ccc" fill="none" stroke-linecap="butt" d="M228 409l112-44"/><path cx="340" cy="365" r="1.69" fill="#e2e2e2" opacity=".7" d="M337.8 364.04l3.77.34-2.53 2.81z"/></g><g class="key-Mozambique"><circle cx="-4" cy="429" r="1.1" fill="#e2e2e2" stroke="none" opacity=".7"/><path stroke-width=".49" opacity=".7" stroke="#ccc" fill="none" stroke-linecap="butt" d="M-4 429l157-61"/><path cx="153" cy="368" r="1.69" fill="#e2e2e2" opacity=".7" d="M150.81 367.04l3.77.35-2.54 2.8z"/></g><g class="key-Nepal"><circle cx="161" cy="519" r="1.1" fill="#e2e2e2" stroke="none" opacity=".7"/><path stroke-width=".49" opacity=".7" stroke="#ccc" fill="none" stroke-linecap="butt" d="M161 519l101-147"/><path cx="262" cy="372" r="1.69" fill="#e2e2e2" opacity=".7" d="M259.65 372.44l3.3-1.83-.51 3.74z"/></g><g class="key-Madagascar"><circle cx="207" cy="480" r="1.1" fill="#e2e2e2" stroke="none" opacity=".7"/><path stroke-width=".49" opacity=".7" stroke="#ccc" fill="none" stroke-linecap="butt" d="M207 480l-22-37"/><path cx="185" cy="443" r="1.69" fill="#e2e2e2" opacity=".7" d="M184.41 445.32l-.27-3.77 3.18 2.04z"/></g><g class="key-Australia"><circle cx="613" cy="155" r="1.1" fill="#e2e2e2" stroke="none" opacity=".7"/><path stroke-width=".48" opacity=".7" stroke="#ccc" fill="none" stroke-linecap="butt" d="M613 155l63-6"/><path cx="676" cy="149" r="1.68" fill="#e2e2e2" opacity=".7" d="M674.17 147.49l3.5 1.35-3.18 2z"/></g><g class="key-Cameroon"><circle cx="292" cy="479" r="1.1" fill="#e2e2e2" stroke="none" opacity=".7"/><path stroke-width=".48" opacity=".7" stroke="#ccc" fill="none" stroke-linecap="butt" d="M292 479l16-88"/><path cx="308" cy="391" r="1.68" fill="#e2e2e2" opacity=".7" d="M306.05 392.35l2.25-3 1.05 3.6z"/></g><g class="key-Sri-Lanka"><circle cx="318" cy="403" r="1.1" fill="#e2e2e2" stroke="none" opacity=".7"/><path stroke-width=".47" opacity=".7" stroke="#ccc" fill="none" stroke-linecap="butt" d="M318 403l167-97"/><path cx="485" cy="306" r="1.67" fill="#e2e2e2" opacity=".7" d="M482.72 305.4l3.72-.24-2.05 3.12z"/></g><g class="key-Romania"><circle cx="482" cy="207" r="1.1" fill="#e2e2e2" stroke="none" opacity=".7"/><path stroke-width=".47" opacity=".7" stroke="#ccc" fill="none" stroke-linecap="butt" d="M482 207l102 34"/><path cx="584" cy="241" r="1.67" fill="#e2e2e2" opacity=".7" d="M582.94 238.89l2.64 2.64-3.7.53z"/></g><g class="key-Burkina-Faso"><circle cx="111" cy="495" r="1.1" fill="#e2e2e2" stroke="none" opacity=".7"/><path stroke-width=".47" opacity=".7" stroke="#ccc" fill="none" stroke-linecap="butt" d="M111 495l100-72"/><path cx="211" cy="423" r="1.67" fill="#e2e2e2" opacity=".7" d="M208.67 422.62l3.69-.6-1.74 3.31z"/></g><g class="key-Chile"><circle cx="448" cy="275" r="1.1" fill="#e2e2e2" stroke="none" opacity=".7"/><path stroke-width=".47" opacity=".7" stroke="#ccc" fill="none" stroke-linecap="butt" d="M448 275l132-48"/><path cx="580" cy="227" r="1.67" fill="#e2e2e2" opacity=".7" d="M577.86 226l3.7.43-2.56 2.71z"/></g><g class="key-Kazakhstan"><circle cx="501" cy="141" r="1.1" fill="#e2e2e2" stroke="none" opacity=".7"/><path stroke-width=".47" opacity=".7" stroke="#ccc" fill="none" stroke-linecap="butt" d="M501 141l87 19"/><path cx="588" cy="160" r="1.67" fill="#e2e2e2" opacity=".7" d="M586.72 158.01l2.91 2.35-3.62.92z"/></g><g class="key-Malawi"><circle cx="93" cy="457" r="1.1" fill="#e2e2e2" stroke="none" opacity=".7"/><path stroke-width=".47" opacity=".7" stroke="#ccc" fill="none" stroke-linecap="butt" d="M93 457l55-6"/><path cx="148" cy="451" r="1.67" fill="#e2e2e2" opacity=".7" d="M146.16 449.52l3.5 1.3-3.14 2.02z"/></g><g class="key-Netherlands"><circle cx="629" cy="160" r="1.1" fill="#e2e2e2" stroke="none" opacity=".7"/><path stroke-width=".46" opacity=".7" stroke="#ccc" fill="none" stroke-linecap="butt" d="M629 160l59 27"/><path cx="688" cy="187" r="1.66" fill="#e2e2e2" opacity=".7" d="M687.18 184.8l2.33 2.9-3.71.12z"/></g><g class="key-Guatemala"><circle cx="367" cy="357" r="1.1" fill="#e2e2e2" stroke="none" opacity=".7"/><path stroke-width=".46" opacity=".7" stroke="#ccc" fill="none" stroke-linecap="butt" d="M367 357l54-40"/><path cx="421" cy="317" r="1.66" fill="#e2e2e2" opacity=".7" d="M418.68 316.65l3.65-.64-1.68 3.31z"/></g><g class="key-Zambia"><circle cx="256" cy="408" r="1.1" fill="#e2e2e2" stroke="none" opacity=".7"/><path stroke-width=".46" opacity=".7" stroke="#ccc" fill="none" stroke-linecap="butt" d="M256 408l65-37"/><path cx="321" cy="371" r="1.66" fill="#e2e2e2" opacity=".7" d="M318.74 370.38l3.7-.2-2.06 3.08z"/></g><g class="key-Ecuador"><circle cx="422" cy="300" r="1.1" fill="#e2e2e2" stroke="none" opacity=".7"/><path stroke-width=".46" opacity=".7" stroke="#ccc" fill="none" stroke-linecap="butt" d="M422 300l49-35"/><path cx="471" cy="265" r="1.66" fill="#e2e2e2" opacity=".7" d="M468.68 264.61l3.67-.57-1.74 3.28z"/></g><g class="key-Cambodia"><circle cx="205" cy="442" r="1.1" fill="#e2e2e2" stroke="none" opacity=".7"/><path stroke-width=".46" opacity=".7" stroke="#ccc" fill="none" stroke-linecap="butt" d="M205 442l114-110"/><path cx="319" cy="332" r="1.66" fill="#e2e2e2" opacity=".7" d="M316.65 331.96l3.54-1.11-1.23 3.5z"/></g><g class="key-Senegal"><circle cx="222" cy="388" r="1.1" fill="#e2e2e2" stroke="none" opacity=".7"/><path stroke-width=".46" opacity=".7" stroke="#ccc" fill="none" stroke-linecap="butt" d="M222 388l42-27"/><path cx="264" cy="361" r="1.66" fill="#e2e2e2" opacity=".7" d="M261.7 360.5l3.7-.4-1.9 3.2z"/></g><g class="key-Zimbabwe"><circle cx="271" cy="298" r="1.1" fill="#e2e2e2" stroke="none" opacity=".7"/><path stroke-width=".46" opacity=".7" stroke="#ccc" fill="none" stroke-linecap="butt" d="M271 298l-45 49"/><path cx="226" cy="347" r="1.66" fill="#e2e2e2" opacity=".7" d="M228.35 346.9l-3.47 1.32 1.02-3.57z"/></g><g class="key-Guinea"><circle cx="184" cy="458" r="1.1" fill="#e2e2e2" stroke="none" opacity=".7"/><path stroke-width=".45" opacity=".7" stroke="#ccc" fill="none" stroke-linecap="butt" d="M184 458l50-27"/><path cx="234" cy="431" r="1.65" fill="#e2e2e2" opacity=".7" d="M231.76 430.33l3.7-.11-2.13 3.02z"/></g><g class="key-Rwanda"><circle cx="115" cy="512" r="1.1" fill="#e2e2e2" stroke="none" opacity=".7"/><path stroke-width=".45" opacity=".7" stroke="#ccc" fill="none" stroke-linecap="butt" d="M115 512l108-14"/><path cx="223" cy="498" r="1.65" fill="#e2e2e2" opacity=".7" d="M221.15 496.58l3.49 1.2-3.06 2.07z"/></g><g class="key-Tunisia"><circle cx="381" cy="289" r="1.1" fill="#e2e2e2" stroke="none" opacity=".7"/><path stroke-width=".45" opacity=".7" stroke="#ccc" fill="none" stroke-linecap="butt" d="M381 289l94-15"/><path cx="475" cy="274" r="1.65" fill="#e2e2e2" opacity=".7" d="M473.11 272.63l3.52 1.11-3 2.15z"/></g><g class="key-Belgium"><circle cx="623" cy="150" r="1.1" fill="#e2e2e2" stroke="none" opacity=".7"/><path stroke-width=".45" opacity=".7" stroke="#ccc" fill="none" stroke-linecap="butt" d="M623 150l47 2"/><path cx="670" cy="152" r="1.65" fill="#e2e2e2" opacity=".7" d="M668.42 150.28l3.23 1.79-3.37 1.5z"/></g><g class="key-Bolivia"><circle cx="322" cy="348" r="1.1" fill="#e2e2e2" stroke="none" opacity=".7"/><path stroke-width=".45" opacity=".7" stroke="#ccc" fill="none" stroke-linecap="butt" d="M322 348l88-58"/><path cx="410" cy="290" r="1.65" fill="#e2e2e2" opacity=".7" d="M407.71 289.53l3.67-.44-1.85 3.2z"/></g><g class="key-Benin"><circle cx="189" cy="443" r="1.1" fill="#e2e2e2" stroke="none" opacity=".7"/><path stroke-width=".45" opacity=".7" stroke="#ccc" fill="none" stroke-linecap="butt" d="M189 443l49-94"/><path cx="238" cy="349" r="1.65" fill="#e2e2e2" opacity=".7" d="M235.77 349.7l3-2.16-.07 3.69z"/></g><g class="key-Greece"><circle cx="567" cy="184" r="1.1" fill="#e2e2e2" stroke="none" opacity=".7"/><path stroke-width=".45" opacity=".7" stroke="#ccc" fill="none" stroke-linecap="butt" d="M567 184l24 30"/><path cx="591" cy="214" r="1.65" fill="#e2e2e2" opacity=".7" d="M591.26 211.68l.77 3.6-3.35-1.54z"/></g><g class="key-Dominican-Republic"><circle cx="377" cy="315" r="1.1" fill="#e2e2e2" stroke="none" opacity=".7"/><path stroke-width=".45" opacity=".7" stroke="#ccc" fill="none" stroke-linecap="butt" d="M377 315l140-41"/><path cx="517" cy="274" r="1.65" fill="#e2e2e2" opacity=".7" d="M514.95 272.88l3.63.66-2.7 2.5z"/></g><g class="key-Portugal"><circle cx="563" cy="223" r="1.1" fill="#e2e2e2" stroke="none" opacity=".7"/><path stroke-width=".45" opacity=".7" stroke="#ccc" fill="none" stroke-linecap="butt" d="M563 223l47-5"/><path cx="610" cy="218" r="1.65" fill="#e2e2e2" opacity=".7" d="M608.18 216.53l3.46 1.3-3.1 1.99z"/></g><g class="key-Sweden"><circle cx="624" cy="180" r="1.1" fill="#e2e2e2" stroke="none" opacity=".7"/><path stroke-width=".44" opacity=".7" stroke="#ccc" fill="none" stroke-linecap="butt" d="M624 180l60 23"/><path cx="684" cy="203" r="1.64" fill="#e2e2e2" opacity=".7" d="M683.06 200.88l2.47 2.7-3.65.36z"/></g><g class="key-Azerbaijan"><circle cx="440" cy="242" r="1.1" fill="#e2e2e2" stroke="none" opacity=".7"/><path stroke-width=".44" opacity=".7" stroke="#ccc" fill="none" stroke-linecap="butt" d="M440 242h89"/><path cx="529" cy="242" r="1.64" fill="#e2e2e2" opacity=".7" d="M527.36 240.36l3.28 1.64-3.28 1.64z"/></g><g class="key-Jordan"><circle cx="397" cy="234" r="1.1" fill="#e2e2e2" stroke="none" opacity=".7"/><path stroke-width=".44" opacity=".7" stroke="#ccc" fill="none" stroke-linecap="butt" d="M397 234l40 17"/><path cx="437" cy="251" r="1.64" fill="#e2e2e2" opacity=".7" d="M436.13 248.85l2.38 2.8-3.66.22z"/></g><g class="key-Hungary"><circle cx="522" cy="195" r="1.1" fill="#e2e2e2" stroke="none" opacity=".7"/><path stroke-width=".44" opacity=".7" stroke="#ccc" fill="none" stroke-linecap="butt" d="M522 195l81 11"/><path cx="603" cy="206" r="1.64" fill="#e2e2e2" opacity=".7" d="M601.6 204.15l3.03 2.07-3.48 1.18z"/></g><g class="key-United-Arab-Emirates"><circle cx="805" cy="104" r="1.1" fill="#e2e2e2" stroke="none" opacity=".7"/><path stroke-width=".44" opacity=".7" stroke="#ccc" fill="none" stroke-linecap="butt" d="M805 104l-70 21"/><path cx="735" cy="125" r="1.64" fill="#e2e2e2" opacity=".7" d="M737.04 126.1l-3.61-.63 2.67-2.51z"/></g><g class="key-Belarus"><circle cx="437" cy="215" r="1.1" fill="#e2e2e2" stroke="none" opacity=".7"/><path stroke-width=".44" opacity=".7" stroke="#ccc" fill="none" stroke-linecap="butt" d="M437 215l103-7"/><path cx="540" cy="208" r="1.64" fill="#e2e2e2" opacity=".7" d="M538.25 206.47l3.39 1.42-3.17 1.86z"/></g><g class="key-Honduras"><circle cx="299" cy="363" r="1.1" fill="#e2e2e2" stroke="none" opacity=".7"/><path stroke-width=".44" opacity=".7" stroke="#ccc" fill="none" stroke-linecap="butt" d="M299 363l52-44"/><path cx="351" cy="319" r="1.64" fill="#e2e2e2" opacity=".7" d="M348.69 318.8l3.56-.86-1.44 3.37z"/></g><g class="key-Austria"><circle cx="626" cy="171" r="1.1" fill="#e2e2e2" stroke="none" opacity=".7"/><path stroke-width=".44" opacity=".7" stroke="#ccc" fill="none" stroke-linecap="butt" d="M626 171l53 3"/><path cx="679" cy="174" r="1.64" fill="#e2e2e2" opacity=".7" d="M677.46 172.27l3.18 1.82-3.37 1.45z"/></g><g class="key-Switzerland"><circle cx="687" cy="163" r="1.1" fill="#e2e2e2" stroke="none" opacity=".7"/><path stroke-width=".44" opacity=".7" stroke="#ccc" fill="none" stroke-linecap="butt" d="M687 163l25-7"/><path cx="712" cy="156" r="1.64" fill="#e2e2e2" opacity=".7" d="M709.98 154.86l3.6.7-2.72 2.46z"/></g><g class="key-Israel"><circle cx="566" cy="172" r="1.1" fill="#e2e2e2" stroke="none" opacity=".7"/><path stroke-width=".44" opacity=".7" stroke="#ccc" fill="none" stroke-linecap="butt" d="M566 172l68 10"/><path cx="634" cy="182" r="1.64" fill="#e2e2e2" opacity=".7" d="M632.62 180.14l3 2.1-3.48 1.14z"/></g><g class="key-Togo"><circle cx="178" cy="408" r="1.1" fill="#e2e2e2" stroke="none" opacity=".7"/><path stroke-width=".44" opacity=".7" stroke="#ccc" fill="none" stroke-linecap="butt" d="M178 408l8-72"/><path cx="186" cy="336" r="1.64" fill="#e2e2e2" opacity=".7" d="M184.19 337.45l2-3.08 1.26 3.44z"/></g><g class="key-Hong-Kong"><circle cx="605" cy="152" r="1.1" fill="#e2e2e2" stroke="none" opacity=".7"/><path stroke-width=".44" opacity=".7" stroke="#ccc" fill="none" stroke-linecap="butt" d="M605 152l104 2"/><path cx="709" cy="154" r="1.64" fill="#e2e2e2" opacity=".7" d="M707.4 152.33l3.24 1.7-3.31 1.58z"/></g><g class="key-Bulgaria"><circle cx="453" cy="204" r="1.1" fill="#e2e2e2" stroke="none" opacity=".7"/><path stroke-width=".44" opacity=".7" stroke="#ccc" fill="none" stroke-linecap="butt" d="M453 204l98 14"/><path cx="551" cy="218" r="1.64" fill="#e2e2e2" opacity=".7" d="M549.6 216.14l3.02 2.1-3.48 1.15z"/></g><g class="key-Laos"><circle cx="211" cy="445" r="1.1" fill="#e2e2e2" stroke="none" opacity=".7"/><path stroke-width=".44" opacity=".7" stroke="#ccc" fill="none" stroke-linecap="butt" d="M211 445l188-174"/><path cx="399" cy="271" r="1.64" fill="#e2e2e2" opacity=".7" d="M396.68 270.91l3.52-1.02-1.29 3.43z"/></g><g class="key-Paraguay"><circle cx="391" cy="342" r="1.1" fill="#e2e2e2" stroke="none" opacity=".7"/><path stroke-width=".43" opacity=".7" stroke="#ccc" fill="none" stroke-linecap="butt" d="M391 342l54-40"/><path cx="445" cy="302" r="1.63" fill="#e2e2e2" opacity=".7" d="M442.72 301.66l3.59-.63-1.65 3.25z"/></g><g class="key-El-Salvador"><circle cx="351" cy="353" r="1.1" fill="#e2e2e2" stroke="none" opacity=".7"/><path stroke-width=".43" opacity=".7" stroke="#ccc" fill="none" stroke-linecap="butt" d="M351 353l67-34"/><path cx="418" cy="319" r="1.63" fill="#e2e2e2" opacity=".7" d="M415.8 318.28l3.65-.02-2.17 2.93z"/></g><g class="key-Nicaragua"><circle cx="292" cy="369" r="1.1" fill="#e2e2e2" stroke="none" opacity=".7"/><path stroke-width=".43" opacity=".7" stroke="#ccc" fill="none" stroke-linecap="butt" d="M292 369l81-34"/><path cx="373" cy="335" r="1.63" fill="#e2e2e2" opacity=".7" d="M370.87 334.13l3.63.24-2.37 2.76z"/></g><g class="key-Kyrgyzstan"><circle cx="312" cy="228" r="1.1" fill="#e2e2e2" stroke="none" opacity=".7"/><path stroke-width=".43" opacity=".7" stroke="#ccc" fill="none" stroke-linecap="butt" d="M312 228l-3 46"/><path cx="309" cy="274" r="1.63" fill="#e2e2e2" opacity=".7" d="M310.73 272.48l-1.84 3.15-1.41-3.36z"/></g><g class="key-Denmark"><circle cx="637" cy="167" r="1.1" fill="#e2e2e2" stroke="none" opacity=".7"/><path stroke-width=".43" opacity=".7" stroke="#ccc" fill="none" stroke-linecap="butt" d="M637 167l46 21"/><path cx="683" cy="188" r="1.63" fill="#e2e2e2" opacity=".7" d="M682.2 185.84l2.28 2.84-3.64.13z"/></g><g class="key-Singapore"><circle cx="639" cy="121" r="1.1" fill="#e2e2e2" stroke="none" opacity=".7"/><path stroke-width=".43" opacity=".7" stroke="#ccc" fill="none" stroke-linecap="butt" d="M639 121l130 15"/><path cx="769" cy="136" r="1.63" fill="#e2e2e2" opacity=".7" d="M767.57 134.2l3.05 1.99-3.43 1.24z"/></g><g class="key-Finland"><circle cx="614" cy="148" r="1.1" fill="#e2e2e2" stroke="none" opacity=".7"/><path stroke-width=".43" opacity=".7" stroke="#ccc" fill="none" stroke-linecap="butt" d="M614 148l49 22"/><path cx="663" cy="170" r="1.63" fill="#e2e2e2" opacity=".7" d="M662.18 167.85l2.3 2.82-3.63.15z"/></g><g class="key-Slovakia"><circle cx="485" cy="177" r="1.1" fill="#e2e2e2" stroke="none" opacity=".7"/><path stroke-width=".43" opacity=".7" stroke="#ccc" fill="none" stroke-linecap="butt" d="M485 177l135 12"/><path cx="620" cy="189" r="1.63" fill="#e2e2e2" opacity=".7" d="M618.52 187.23l3.1 1.91-3.39 1.34z"/></g><g class="key-Norway"><circle cx="718" cy="180" r="1.1" fill="#e2e2e2" stroke="none" opacity=".7"/><path stroke-width=".43" opacity=".7" stroke="#ccc" fill="none" stroke-linecap="butt" d="M718 180l11 5"/><path cx="729" cy="185" r="1.63" fill="#e2e2e2" opacity=".7" d="M728.2 182.84l2.28 2.83-3.64.14z"/></g><g class="key-Costa-Rica"><circle cx="427" cy="301" r="1.1" fill="#e2e2e2" stroke="none" opacity=".7"/><path stroke-width=".43" opacity=".7" stroke="#ccc" fill="none" stroke-linecap="butt" d="M427 301l99-31"/><path cx="526" cy="270" r="1.63" fill="#e2e2e2" opacity=".7" d="M523.96 268.93l3.6.58-2.63 2.53z"/></g><g class="key-Ireland"><circle cx="572" cy="171" r="1.1" fill="#e2e2e2" stroke="none" opacity=".7"/><path stroke-width=".43" opacity=".7" stroke="#ccc" fill="none" stroke-linecap="butt" d="M572 171l163 17"/><path cx="735" cy="188" r="1.63" fill="#e2e2e2" opacity=".7" d="M733.55 186.21l3.07 1.96-3.41 1.28z"/></g><g class="key-New-Zealand"><circle cx="586" cy="195" r="1.1" fill="#e2e2e2" stroke="none" opacity=".7"/><path stroke-width=".43" opacity=".7" stroke="#ccc" fill="none" stroke-linecap="butt" d="M586 195l60-3"/><path cx="646" cy="192" r="1.63" fill="#e2e2e2" opacity=".7" d="M644.3 190.45l3.33 1.47-3.18 1.79z"/></g><g class="key-Oman"><circle cx="642" cy="204" r="1.1" fill="#e2e2e2" stroke="none" opacity=".7"/><path stroke-width=".43" opacity=".7" stroke="#ccc" fill="none" stroke-linecap="butt" d="M642 204l11-46"/><path cx="653" cy="158" r="1.63" fill="#e2e2e2" opacity=".7" d="M651.04 159.2l2.34-2.79.83 3.55z"/></g><g class="key-Croatia"><circle cx="496" cy="238" r="1.1" fill="#e2e2e2" stroke="none" opacity=".7"/><path stroke-width=".43" opacity=".7" stroke="#ccc" fill="none" stroke-linecap="butt" d="M496 238l84-14"/><path cx="580" cy="224" r="1.63" fill="#e2e2e2" opacity=".7" d="M578.12 222.66l3.49 1.07-2.95 2.15z"/></g><g class="key-Panama"><circle cx="429" cy="324" r="1.1" fill="#e2e2e2" stroke="none" opacity=".7"/><path stroke-width=".43" opacity=".7" stroke="#ccc" fill="none" stroke-linecap="butt" d="M429 324l148-109"/><path cx="577" cy="215" r="1.63" fill="#e2e2e2" opacity=".7" d="M574.72 214.65l3.6-.62-1.67 3.25z"/></g><g class="key-Kuwait"><circle cx="761" cy="101" r="1.1" fill="#e2e2e2" stroke="none" opacity=".7"/><path stroke-width=".43" opacity=".7" stroke="#ccc" fill="none" stroke-linecap="butt" d="M761 101l-30 19"/><path cx="731" cy="120" r="1.63" fill="#e2e2e2" opacity=".7" d="M733.25 120.5l-3.63.37 1.88-3.12z"/></g><g class="key-Georgia"><circle cx="431" cy="257" r="1.1" fill="#e2e2e2" stroke="none" opacity=".7"/><path stroke-width=".43" opacity=".7" stroke="#ccc" fill="none" stroke-linecap="butt" d="M431 257l28 8"/><path cx="459" cy="265" r="1.63" fill="#e2e2e2" opacity=".7" d="M457.88 262.98l2.69 2.47-3.59.67z"/></g><g class="key-Uruguay"><circle cx="461" cy="304" r="1.1" fill="#e2e2e2" stroke="none" opacity=".7"/><path stroke-width=".42" opacity=".7" stroke="#ccc" fill="none" stroke-linecap="butt" d="M461 304l105-48"/><path cx="566" cy="256" r="1.62" fill="#e2e2e2" opacity=".7" d="M563.85 255.2l3.62.13-2.27 2.82z"/></g><g class="key-Mongolia"><circle cx="368" cy="239" r="1.1" fill="#e2e2e2" stroke="none" opacity=".7"/><path stroke-width=".42" opacity=".7" stroke="#ccc" fill="none" stroke-linecap="butt" d="M368 239l119-59"/><path cx="487" cy="180" r="1.62" fill="#e2e2e2" opacity=".7" d="M484.83 179.27l3.62.01-2.18 2.9z"/></g><g class="key-Armenia"><circle cx="323" cy="252" r="1.1" fill="#e2e2e2" stroke="none" opacity=".7"/><path stroke-width=".42" opacity=".7" stroke="#ccc" fill="none" stroke-linecap="butt" d="M323 252l122 38"/><path cx="445" cy="290" r="1.62" fill="#e2e2e2" opacity=".7" d="M443.94 287.97l2.6 2.51-3.57.58z"/></g><g class="key-Jamaica"><circle cx="418" cy="259" r="1.1" fill="#e2e2e2" stroke="none" opacity=".7"/><path stroke-width=".42" opacity=".7" stroke="#ccc" fill="none" stroke-linecap="butt" d="M418 259l17 2"/><path cx="435" cy="261" r="1.62" fill="#e2e2e2" opacity=".7" d="M433.58 259.2l3.03 1.99-3.4 1.23z"/></g><g class="key-Albania"><circle cx="356" cy="301" r="1.1" fill="#e2e2e2" stroke="none" opacity=".7"/><path stroke-width=".42" opacity=".7" stroke="#ccc" fill="none" stroke-linecap="butt" d="M356 301l131-18"/><path cx="487" cy="283" r="1.62" fill="#e2e2e2" opacity=".7" d="M485.17 281.62l3.43 1.16-2.98 2.05z"/></g><g class="key-Lithuania"><circle cx="454" cy="199" r="1.1" fill="#e2e2e2" stroke="none" opacity=".7"/><path stroke-width=".42" opacity=".7" stroke="#ccc" fill="none" stroke-linecap="butt" d="M454 199l163-1"/><path cx="617" cy="198" r="1.62" fill="#e2e2e2" opacity=".7" d="M615.37 196.39l3.25 1.6-3.23 1.64z"/></g><g class="key-Qatar"><circle cx="803" cy="111" r="1.1" fill="#e2e2e2" stroke="none" opacity=".7"/><path stroke-width=".42" opacity=".7" stroke="#ccc" fill="none" stroke-linecap="butt" d="M803 111l11 4"/><path cx="814" cy="115" r="1.62" fill="#e2e2e2" opacity=".7" d="M813.03 112.92l2.5 2.63-3.6.42z"/></g><g class="key-Namibia"><circle cx="390" cy="357" r="1.1" fill="#e2e2e2" stroke="none" opacity=".7"/><path stroke-width=".42" opacity=".7" stroke="#ccc" fill="none" stroke-linecap="butt" d="M390 357l66-111"/><path cx="456" cy="246" r="1.62" fill="#e2e2e2" opacity=".7" d="M453.78 246.56l3.05-1.95-.27 3.61z"/></g><g class="key-Botswana"><circle cx="433" cy="284" r="1.1" fill="#e2e2e2" stroke="none" opacity=".7"/><path stroke-width=".42" opacity=".7" stroke="#ccc" fill="none" stroke-linecap="butt" d="M433 284l95-90"/><path cx="528" cy="194" r="1.62" fill="#e2e2e2" opacity=".7" d="M525.71 193.94l3.47-1.05-1.24 3.4z"/></g><g class="key-Slovenia"><circle cx="550" cy="185" r="1.1" fill="#e2e2e2" stroke="none" opacity=".7"/><path stroke-width=".42" opacity=".7" stroke="#ccc" fill="none" stroke-linecap="butt" d="M550 185l76 3"/><path cx="626" cy="188" r="1.62" fill="#e2e2e2" opacity=".7" d="M624.45 186.32l3.17 1.74-3.3 1.5z"/></g><g class="key-Latvia"><circle cx="436" cy="227" r="1.1" fill="#e2e2e2" stroke="none" opacity=".7"/><path stroke-width=".42" opacity=".7" stroke="#ccc" fill="none" stroke-linecap="butt" d="M436 227l158-17"/><path cx="594" cy="210" r="1.62" fill="#e2e2e2" opacity=".7" d="M592.22 208.56l3.4 1.27-3.06 1.95z"/></g><g class="key-Bahrain"><circle cx="642" cy="123" r="1.1" fill="#e2e2e2" stroke="none" opacity=".7"/><path stroke-width=".42" opacity=".7" stroke="#ccc" fill="none" stroke-linecap="butt" d="M642 123l30 41"/><path cx="672" cy="164" r="1.62" fill="#e2e2e2" opacity=".7" d="M672.35 161.74l.6 3.57-3.21-1.66z"/></g><g class="key-Trinidad-and-Tobago"><circle cx="492" cy="182" r="1.1" fill="#e2e2e2" stroke="none" opacity=".7"/><path stroke-width=".42" opacity=".7" stroke="#ccc" fill="none" stroke-linecap="butt" d="M492 182l122-50"/><path cx="614" cy="132" r="1.62" fill="#e2e2e2" opacity=".7" d="M611.89 131.12l3.6.27-2.37 2.72z"/></g><g class="key-Estonia"><circle cx="481" cy="174" r="1.1" fill="#e2e2e2" stroke="none" opacity=".7"/><path stroke-width=".42" opacity=".7" stroke="#ccc" fill="none" stroke-linecap="butt" d="M481 174l136-16"/><path cx="617" cy="158" r="1.62" fill="#e2e2e2" opacity=".7" d="M615.2 156.58l3.4 1.23-3.02 1.99z"/></g><g class="key-Mauritius"><circle cx="420" cy="274" r="1.1" fill="#e2e2e2" stroke="none" opacity=".7"/><path stroke-width=".42" opacity=".7" stroke="#ccc" fill="none" stroke-linecap="butt" d="M420 274l144-40"/><path cx="564" cy="234" r="1.62" fill="#e2e2e2" opacity=".7" d="M562 232.87l3.56.7-2.69 2.42z"/></g><g class="key-Cyprus"><circle cx="584" cy="189" r="1.1" fill="#e2e2e2" stroke="none" opacity=".7"/><path stroke-width=".42" opacity=".7" stroke="#ccc" fill="none" stroke-linecap="butt" d="M584 189l47 20"/><path cx="631" cy="209" r="1.62" fill="#e2e2e2" opacity=".7" d="M630.14 206.88l2.35 2.75-3.61.23z"/></g><g class="key-Luxembourg"><circle cx="713" cy="103" r="1.1" fill="#e2e2e2" stroke="none" opacity=".7"/><path stroke-width=".41" opacity=".7" stroke="#ccc" fill="none" stroke-linecap="butt" d="M713 103l70-16"/><path cx="783" cy="87" r="1.61" fill="#e2e2e2" opacity=".7" d="M781.07 85.79l3.5.85-2.78 2.29z"/></g><g class="key-Malta"><circle cx="532" cy="185" r="1.1" fill="#e2e2e2" stroke="none" opacity=".7"/><path stroke-width=".41" opacity=".7" stroke="#ccc" fill="none" stroke-linecap="butt" d="M532 185l116-15"/><path cx="648" cy="170" r="1.61" fill="#e2e2e2" opacity=".7" d="M646.2 168.61l3.4 1.18-2.99 2.01z"/></g><g class="key-Brunei"><circle cx="768" cy="143" r="1.1" fill="#e2e2e2" stroke="none" opacity=".7"/><path stroke-width=".41" opacity=".7" stroke="#ccc" fill="none" stroke-linecap="butt" d="M768 143l-24-21"/><path cx="744" cy="122" r="1.61" fill="#e2e2e2" opacity=".7" d="M744.15 124.27l-1.36-3.33 3.48.9z"/></g><g class="key-China"><path stroke-width="2.89" opacity="1" stroke="#2D8587" fill="none" stroke-linecap="butt" d="M195 290l329-78"/><circle cx="195" cy="290" r="2.45" fill="#2D8587" opacity="1" stroke="#2D8587" stroke-opacity=".6"/><path cx="524" cy="212" r="5.78" fill="#2D8587" opacity="1" d="M517.04 207.7l12.58 2.97-9.91 8.29z"/></g><g class="key-India"><path stroke-width="2.87" opacity="1" stroke="#2D8587" fill="none" stroke-linecap="butt" d="M215 358l185-59"/><circle cx="215" cy="358" r="2.43" fill="#2D8587" opacity="1" stroke="#2D8587" stroke-opacity=".6"/><path cx="400" cy="299" r="5.73" fill="#2D8587" opacity="1" d="M392.8 295.28l12.66 1.98-9.18 8.94z"/></g><g class="key-United-States"><path stroke-width="2.43" opacity="1" stroke="#E04E4B" fill="none" stroke-linecap="butt" d="M650 133l54 10"/><circle cx="650" cy="133" r="2.22" fill="#E04E4B" opacity="1" stroke="#E04E4B" stroke-opacity=".6"/><path cx="704" cy="143" r="4.87" fill="#E04E4B" opacity="1" d="M700.1 137.32l8.69 6.57-10.47 3.01z"/></g><g class="key-Indonesia"><path stroke-width="2.39" opacity="1" stroke="#2D8587" fill="none" stroke-linecap="butt" d="M353 350l126-65"/><circle cx="353" cy="350" r="2.2" fill="#2D8587" opacity="1" stroke="#2D8587" stroke-opacity=".6"/><path cx="479" cy="285" r="4.79" fill="#2D8587" opacity="1" d="M472.55 282.94l10.7-.14-6.31 8.65z"/></g><g class="key-Pakistan"><path stroke-width="2.35" opacity="1" stroke="#2D8587" fill="none" stroke-linecap="butt" d="M294 361l71-37"/><circle cx="294" cy="361" r="2.18" fill="#2D8587" opacity="1" stroke="#2D8587" stroke-opacity=".6"/><path cx="365" cy="324" r="4.7" fill="#2D8587" opacity="1" d="M358.66 322l10.5-.17-6.16 8.51z"/></g><g class="key-Brazil"><path stroke-width="2.35" opacity="1" stroke="#932834" fill="none" stroke-linecap="butt" d="M468 304l44-30"/><circle cx="468" cy="304" r="2.18" fill="#932834" opacity="1" stroke="#932834" stroke-opacity=".6"/><path cx="512" cy="274" r="4.7" fill="#932834" opacity="1" d="M505.47 272.76l10.41-1.4-5.12 9.17z"/></g><g class="key-Nigeria"><path stroke-width="2.34" opacity="1" stroke="#923E8B" fill="none" stroke-linecap="butt" d="M293 396l81-37"/><circle cx="293" cy="396" r="2.17" fill="#923E8B" opacity="1" stroke="#923E8B" stroke-opacity=".6"/><path cx="374" cy="359" r="4.67" fill="#923E8B" opacity="1" d="M367.81 356.7l10.44.36-6.56 8.13z"/></g><g class="key-Bangladesh"><path stroke-width="2.31" opacity="1" stroke="#2D8587" fill="none" stroke-linecap="butt" d="M171 451l143-86"/><circle cx="171" cy="451" r="2.16" fill="#2D8587" opacity="1" stroke="#2D8587" stroke-opacity=".6"/><path cx="314" cy="365" r="4.62" fill="#2D8587" opacity="1" d="M307.66 363.42l10.3-.8-5.54 8.72z"/></g><g class="key-Japan"><path stroke-width="2.28" opacity="1" stroke="#2D8587" fill="none" stroke-linecap="butt" d="M622 175l35 1"/><circle cx="622" cy="175" r="2.14" fill="#2D8587" opacity="1" stroke="#2D8587" stroke-opacity=".6"/><path cx="657" cy="176" r="4.56" fill="#2D8587" opacity="1" d="M652.57 171.31l8.99 4.82-9.25 4.3z"/></g><g class="key-Mexico"><path stroke-width="2.28" opacity="1" stroke="#E04E4B" fill="none" stroke-linecap="butt" d="M501 244h41"/><circle cx="501" cy="244" r="2.14" fill="#E04E4B" opacity="1" stroke="#E04E4B" stroke-opacity=".6"/><path cx="542" cy="244" r="4.55" fill="#E04E4B" opacity="1" d="M537.45 239.45l9.1 4.55-9.1 4.55z"/></g><g class="key-Ethiopia"><path stroke-width="2.26" opacity="1" stroke="#923E8B" fill="none" stroke-linecap="butt" d="M74 503l139-59"/><circle cx="74" cy="503" r="2.13" fill="#923E8B" opacity="1" stroke="#923E8B" stroke-opacity=".6"/><path cx="213" cy="444" r="4.52" fill="#923E8B" opacity="1" d="M207.07 441.6l10.1.63-6.56 7.7z"/></g><g class="key-Philippines"><path stroke-width="2.26" opacity="1" stroke="#2D8587" fill="none" stroke-linecap="butt" d="M333 335l91-26"/><circle cx="333" cy="335" r="2.13" fill="#2D8587" opacity="1" stroke="#2D8587" stroke-opacity=".6"/><path cx="424" cy="309" r="4.51" fill="#2D8587" opacity="1" d="M418.42 305.9l9.92 1.86-7.44 6.82z"/></g><g class="key-Egypt"><path stroke-width="2.25" opacity="1" stroke="#923E8B" fill="none" stroke-linecap="butt" d="M388 309l83-39"/><circle cx="388" cy="309" r="2.12" fill="#923E8B" opacity="1" stroke="#923E8B" stroke-opacity=".6"/><path cx="471" cy="270" r="4.5" fill="#923E8B" opacity="1" d="M465.01 267.84l10.06.25-6.23 7.9z"/></g><text x="171.97" y="295.65" font-size="9" font-family="Arial, sans-serif" font-weight="400" fill="#fff" stroke="#fff" stroke-linecap="round" stroke-linejoin="round" stroke-width=".25em">1990</text><text x="171.97" y="295.65" font-size="9" font-family="Arial, sans-serif" font-weight="400" fill="#2D8587">1990</text><text x="528.87" y="210.85" font-size="16.9" font-family="Arial, sans-serif" font-weight="700" fill="#fff" stroke="#fff" stroke-linecap="round" stroke-linejoin="round" stroke-width=".25em">China</text><text x="528.87" y="210.85" font-size="16.9" font-family="Arial, sans-serif" font-weight="700" fill="#2D8587">China</text><text x="192.08" y="364.02" font-size="9" font-family="Arial, sans-serif" font-weight="400" fill="#fff" stroke="#fff" stroke-linecap="round" stroke-linejoin="round" stroke-width=".25em">1990</text><text x="192.08" y="364.02" font-size="9" font-family="Arial, sans-serif" font-weight="400" fill="#2D8587">1990</text><text x="404.76" y="297.48" font-size="16.67" font-family="Arial, sans-serif" font-weight="700" fill="#fff" stroke="#fff" stroke-linecap="round" stroke-linejoin="round" stroke-width=".25em">India</text><text x="404.76" y="297.48" font-size="16.67" font-family="Arial, sans-serif" font-weight="700" fill="#2D8587">India</text><text x="625.15" y="150.86" font-size="13.89" font-family="Arial, sans-serif" font-weight="700" fill="#fff" stroke="#fff" stroke-linecap="round" stroke-linejoin="round" stroke-width=".25em">United States</text><text x="625.15" y="150.86" font-size="13.89" font-family="Arial, sans-serif" font-weight="700" fill="#E04E4B">United States</text><text x="330.4" y="356.79" font-size="9" font-family="Arial, sans-serif" font-weight="400" fill="#fff" stroke="#fff" stroke-linecap="round" stroke-linejoin="round" stroke-width=".25em">1990</text><text x="330.4" y="356.79" font-size="9" font-family="Arial, sans-serif" font-weight="400" fill="#2D8587">1990</text><text x="483.44" y="282.71" font-size="13.73" font-family="Arial, sans-serif" font-weight="700" fill="#fff" stroke="#fff" stroke-linecap="round" stroke-linejoin="round" stroke-width=".25em">Indonesia</text><text x="483.44" y="282.71" font-size="13.73" font-family="Arial, sans-serif" font-weight="700" fill="#2D8587">Indonesia</text><text x="271.41" y="367.81" font-size="9" font-family="Arial, sans-serif" font-weight="400" fill="#fff" stroke="#fff" stroke-linecap="round" stroke-linejoin="round" stroke-width=".25em">1990</text><text x="271.41" y="367.81" font-size="9" font-family="Arial, sans-serif" font-weight="400" fill="#2D8587">1990</text><text x="369.43" y="321.69" font-size="13.57" font-family="Arial, sans-serif" font-weight="700" fill="#fff" stroke="#fff" stroke-linecap="round" stroke-linejoin="round" stroke-width=".25em">Pakistan</text><text x="369.43" y="321.69" font-size="13.57" font-family="Arial, sans-serif" font-weight="700" fill="#2D8587">Pakistan</text><text x="516.13" y="271.18" font-size="13.57" font-family="Arial, sans-serif" font-weight="700" fill="#fff" stroke="#fff" stroke-linecap="round" stroke-linejoin="round" stroke-width=".25em">Brazil</text><text x="516.13" y="271.18" font-size="13.57" font-family="Arial, sans-serif" font-weight="700" fill="#932834">Brazil</text><text x="270.29" y="402.58" font-size="9" font-family="Arial, sans-serif" font-weight="400" fill="#fff" stroke="#fff" stroke-linecap="round" stroke-linejoin="round" stroke-width=".25em">1990</text><text x="270.29" y="402.58" font-size="9" font-family="Arial, sans-serif" font-weight="400" fill="#923E8B">1990</text><text x="378.55" y="356.92" font-size="13.52" font-family="Arial, sans-serif" font-weight="700" fill="#fff" stroke="#fff" stroke-linecap="round" stroke-linejoin="round" stroke-width=".25em">Nigeria</text><text x="378.55" y="356.92" font-size="13.52" font-family="Arial, sans-serif" font-weight="700" fill="#923E8B">Nigeria</text><text x="148.56" y="458.08" font-size="9" font-family="Arial, sans-serif" font-weight="400" fill="#fff" stroke="#fff" stroke-linecap="round" stroke-linejoin="round" stroke-width=".25em">1990</text><text x="148.56" y="458.08" font-size="9" font-family="Arial, sans-serif" font-weight="400" fill="#2D8587">1990</text><text x="598.84" y="174.86" font-size="9" font-family="Arial, sans-serif" font-weight="400" fill="#fff" stroke="#fff" stroke-linecap="round" stroke-linejoin="round" stroke-width=".25em">1990</text><text x="598.84" y="174.86" font-size="9" font-family="Arial, sans-serif" font-weight="400" fill="#2D8587">1990</text><text x="662" y="182.82" font-size="13.35" font-family="Arial, sans-serif" font-weight="700" fill="#fff" stroke="#fff" stroke-linecap="round" stroke-linejoin="round" stroke-width=".25em">Japan</text><text x="662" y="182.82" font-size="13.35" font-family="Arial, sans-serif" font-weight="700" fill="#2D8587">Japan</text><text x="477.84" y="244" font-size="9" font-family="Arial, sans-serif" font-weight="400" fill="#fff" stroke="#fff" stroke-linecap="round" stroke-linejoin="round" stroke-width=".25em">1990</text><text x="477.84" y="244" font-size="9" font-family="Arial, sans-serif" font-weight="400" fill="#E04E4B">1990</text><text x="547" y="244" font-size="13.34" font-family="Arial, sans-serif" font-weight="700" fill="#fff" stroke="#fff" stroke-linecap="round" stroke-linejoin="round" stroke-width=".25em">Mexico</text><text x="547" y="244" font-size="13.34" font-family="Arial, sans-serif" font-weight="700" fill="#E04E4B">Mexico</text><text x="71.4" y="503.6" font-size="9" font-family="Arial, sans-serif" font-weight="400" fill="#fff" stroke="#fff" stroke-linecap="round" stroke-linejoin="round" stroke-width=".25em">1990</text><text x="71.4" y="503.6" font-size="9" font-family="Arial, sans-serif" font-weight="400" fill="#923E8B">1990</text><text x="217.6" y="442.05" font-size="13.29" font-family="Arial, sans-serif" font-weight="700" fill="#fff" stroke="#fff" stroke-linecap="round" stroke-linejoin="round" stroke-width=".25em">Ethiopia</text><text x="217.6" y="442.05" font-size="13.29" font-family="Arial, sans-serif" font-weight="700" fill="#923E8B">Ethiopia</text><text x="310.03" y="340.87" font-size="9" font-family="Arial, sans-serif" font-weight="400" fill="#fff" stroke="#fff" stroke-linecap="round" stroke-linejoin="round" stroke-width=".25em">1990</text><text x="310.03" y="340.87" font-size="9" font-family="Arial, sans-serif" font-weight="400" fill="#2D8587">1990</text><text x="428.81" y="307.63" font-size="13.29" font-family="Arial, sans-serif" font-weight="700" fill="#fff" stroke="#fff" stroke-linecap="round" stroke-linejoin="round" stroke-width=".25em">Philippines</text><text x="428.81" y="307.63" font-size="13.29" font-family="Arial, sans-serif" font-weight="700" fill="#2D8587">Philippines</text><text x="475.53" y="267.87" font-size="13.26" font-family="Arial, sans-serif" font-weight="700" fill="#fff" stroke="#fff" stroke-linecap="round" stroke-linejoin="round" stroke-width=".25em">Egypt</text><text x="475.53" y="267.87" font-size="13.26" font-family="Arial, sans-serif" font-weight="700" fill="#923E8B">Egypt</text></g><g class="ScatterColorLegend clickable" cursor="pointer"><g class="legendMark"><path fill="#923E8B" d="M738.09 128.6h9v9h-9z"/><text font-size="12.6" x="752.1" y="136.9"><tspan x="752.09" y="136.88">Africa</tspan></text></g><g class="legendMark"><path fill="#2D8587" d="M738.09 146.2h9v9h-9z"/><text font-size="12.6" x="752.1" y="154.5"><tspan x="752.09" y="154.48">Asia</tspan></text></g><g class="legendMark" fill="#ccc"><path d="M738.09 163.8h9v9h-9z"/><text font-size="12.6" x="752.1" y="172.1"><tspan x="752.09" y="172.08">Europe</tspan></text></g><g class="legendMark"><path fill="#E04E4B" d="M738.09 181.4h9v9h-9z"/><text font-size="12.6" x="752.1" y="189.7"><tspan x="752.09" y="189.68">North America</tspan></text></g><g class="legendMark" fill="#ccc"><path d="M738.09 199h9v9h-9z"/><text font-size="12.6" x="752.1" y="207.3"><tspan x="752.09" y="207.28">Oceania</tspan></text></g><g class="legendMark"><path fill="#932834" d="M738.09 216.6h9v9h-9z"/><text font-size="12.6" x="752.1" y="224.9"><tspan x="752.09" y="224.88">South America</tspan></text></g></g><path stroke="#ccc" d="M738.09 234.4H830"/><g class="clickable"><g class="ConnectedScatterLegend"><text font-size="12.6" x="738.1" y="253.5" fill="#333"><tspan x="738.09" y="253.48">1990</tspan></text><text font-size="12.6" x="806.8" y="253.5" fill="#333"><tspan x="806.78" y="253.48">2017</tspan></text><path stroke="#666" stroke-width="1" d="M771.32 249.2h30.46"/><circle cx="771.32" cy="249.2" r="2" fill="#666" stroke="#ccc" stroke-width=".2"/><path cx="801.78" cy="249.2" r="3" fill="#666" stroke="#ccc" stroke-width=".2" d="M798.78 246.2l6 3-6 3z"/></g></g></g><g class="SourcesFooter" fill="#777"><g fill="#777"><text font-size="12.6" x="15" y="582.5"><tspan x="15" y="582.48">Source: OWID based on Global Carbon Project &amp; UN Population</tspan></text></g><text font-size="12.6" x="431.9" y="582.5"><tspan x="431.93" y="582.48"><a target="_blank" href="https://ourworldindata.org/co2-and-other-greenhouse-gas-emissions" fill="#777">OurWorldInData.org/co2-and-other-greenhouse-gas-emissions</a> • <a class="cclogo" href="http://creativecommons.org/licenses/by/4.0/deed.en_US" target="_blank" fill="#777">CC BY</a></tspan></text></g></svg>