<svg xmlns="http://www.w3.org/2000/svg" version="1.1" style="font-family:Lato,'Helvetica Neue',Helvetica,Arial,sans-serif;font-size:18px;background-color:#fff;text-rendering:geometricPrecision;-webkit-font-smoothing:antialiased" width="850" height="600" viewBox="0 0 850 600"><g class="HeaderView"><g transform="matrix(.29 0 0 .29 774 15)"><svg className="owidLog" width="210" height="120" viewBox="0 0 210 120" fill="none" xmlns="http://www.w3.org/2000/svg"><g clip-path="url(#a)"><path d="M0 0h210v107.89H0V0z" fill="#002147"/><path d="M40.98 32.25c0 2.36-.38 4.53-1.12 6.51a14.26 14.26 0 0 1-8.1 8.4c-1.9.78-4.02 1.17-6.34 1.17a16.6 16.6 0 0 1-6.33-1.17 14.31 14.31 0 0 1-8.08-8.4 18.29 18.29 0 0 1-1.12-6.51c0-2.36.38-4.53 1.12-6.5.75-1.97 1.8-3.67 3.17-5.1a14.32 14.32 0 0 1 4.9-3.34c1.92-.8 4.03-1.19 6.34-1.19 2.32 0 4.43.4 6.34 1.19 1.92.8 3.56 1.9 4.93 3.34a14.87 14.87 0 0 1 3.17 5.1 18.1 18.1 0 0 1 1.12 6.5zm-4.38 0c0-1.94-.26-3.68-.8-5.22a10.91 10.91 0 0 0-2.24-3.89 9.68 9.68 0 0 0-3.52-2.46 11.95 11.95 0 0 0-4.62-.86c-1.68 0-3.21.28-4.6.86a9.88 9.88 0 0 0-3.54 2.46 10.91 10.91 0 0 0-2.24 3.9c-.53 1.53-.8 3.27-.8 5.2 0 1.94.27 3.68.8 5.22a11.17 11.17 0 0 0 2.24 3.9 10.01 10.01 0 0 0 3.55 2.44c1.38.56 2.9.83 4.6.83s3.24-.27 4.61-.83a9.8 9.8 0 0 0 3.52-2.44 11.17 11.17 0 0 0 2.25-3.9c.53-1.54.8-3.28.8-5.21zm26.22-6.54V48H60.5c-.56 0-.9-.27-1.05-.81l-.31-2.4a12.45 12.45 0 0 1-3.26 2.6c-1.2.64-2.58.96-4.13.96-1.22 0-2.3-.2-3.24-.6a6.52 6.52 0 0 1-2.33-1.7 7.37 7.37 0 0 1-1.43-2.67c-.3-1.04-.46-2.2-.46-3.45V25.7h3.91v14.22c0 1.68.38 2.99 1.15 3.91.77.93 1.96 1.39 3.54 1.39 1.16 0 2.24-.27 3.23-.82a10.42 10.42 0 0 0 2.8-2.28V25.7h3.91zm8.61 4.47a9.94 9.94 0 0 1 2.6-3.56 5.64 5.64 0 0 1 3.76-1.3c.47 0 .92.05 1.34.15.44.1.83.27 1.17.49l-.3 2.92c-.09.37-.3.55-.66.55-.2 0-.5-.04-.9-.13a6.21 6.21 0 0 0-3.24.18 4.23 4.23 0 0 0-1.47.92c-.42.4-.81.9-1.17 1.5-.33.58-.64 1.26-.92 2.02V48H67.7V25.71h2.25c.42 0 .72.08.88.25.16.16.27.44.33.83l.26 3.39zm61.16-13.7L122.75 48h-3.82l-7.99-24.05a21.95 21.95 0 0 1-.42-1.58 38.36 38.36 0 0 1-.44 1.58L102.05 48h-3.83L88.4 16.47h3.54c.38 0 .7.1.95.29.26.2.43.43.5.73l6.52 21.9.28 1.28.29 1.46.3-1.46.38-1.27 7.41-21.91c.1-.25.26-.48.51-.69.27-.22.58-.33.95-.33h1.23c.38 0 .69.1.92.29a1.77 1.77 0 0 1 .53.73l7.4 21.9a28.4 28.4 0 0 1 .68 2.62 29.52 29.52 0 0 1 .52-2.61l6.54-21.91a1.31 1.31 0 0 1 .48-.7c.27-.21.58-.32.95-.32h3.32zm9.35 8.88c1.63 0 3.1.27 4.4.82a9.43 9.43 0 0 1 5.46 5.94c.5 1.4.74 2.98.74 4.73 0 1.76-.25 3.34-.74 4.75a9.43 9.43 0 0 1-5.46 5.92c-1.3.52-2.77.79-4.4.79-1.64 0-3.12-.27-4.44-.8a9.42 9.42 0 0 1-3.35-2.3c-.92-1-1.63-2.2-2.13-3.61-.49-1.41-.73-3-.73-4.75s.24-3.33.73-4.73c.5-1.43 1.2-2.64 2.13-3.63a9.4 9.4 0 0 1 3.35-2.31c1.32-.55 2.8-.82 4.44-.82zm0 19.89c2.2 0 3.84-.73 4.93-2.2 1.08-1.48 1.63-3.54 1.63-6.18 0-2.66-.55-4.72-1.63-6.2-1.09-1.49-2.73-2.23-4.93-2.23-1.12 0-2.09.2-2.93.57a5.71 5.71 0 0 0-2.06 1.65 7.5 7.5 0 0 0-1.24 2.67c-.26 1.04-.4 2.22-.4 3.54 0 2.64.55 4.7 1.64 6.18 1.1 1.47 2.76 2.2 4.99 2.2zm17.97-15.07a9.94 9.94 0 0 1 2.6-3.56 5.64 5.64 0 0 1 3.76-1.3c.47 0 .91.05 1.34.15.44.1.83.27 1.16.49l-.28 2.92c-.09.37-.31.55-.66.55-.2 0-.5-.04-.9-.13a6.2 6.2 0 0 0-3.24.18 4.23 4.23 0 0 0-1.47.92c-.43.4-.82.9-1.17 1.5a13.1 13.1 0 0 0-.92 2.02V48h-3.94V25.71h2.24c.43 0 .72.08.88.25.17.16.28.44.33.83l.27 3.39zm15.04-14.59V48h-3.92V15.6h3.92zm19.55 15.43a6.22 6.22 0 0 0-2.38-2.05 6.7 6.7 0 0 0-2.86-.6c-2.07 0-3.66.75-4.77 2.23-1.12 1.48-1.68 3.6-1.68 6.33 0 1.46.13 2.7.38 3.74a7.29 7.29 0 0 0 1.1 2.56 4.35 4.35 0 0 0 1.78 1.45c.7.3 1.5.46 2.4.46 1.29 0 2.41-.3 3.36-.88a9.6 9.6 0 0 0 2.67-2.49V31.02zm3.91-15.43V48h-2.33c-.56 0-.9-.27-1.06-.81l-.35-2.71a12.13 12.13 0 0 1-3.25 2.77 8.28 8.28 0 0 1-4.23 1.06 7.31 7.31 0 0 1-6.14-2.9c-.73-.96-1.3-2.15-1.69-3.57a18.35 18.35 0 0 1 .07-9.48 11.29 11.29 0 0 1 1.89-3.7 8.7 8.7 0 0 1 7.06-3.34 7.96 7.96 0 0 1 6.12 2.62V15.59h3.91zM46.61 70.71V93H42.7V70.71h3.91zm.84-7c0 .39-.08.75-.24 1.09a2.81 2.81 0 0 1-1.52 1.47 2.67 2.67 0 0 1-2.16 0 2.9 2.9 0 0 1-1.45-1.47 2.67 2.67 0 0 1 0-2.16c.15-.35.35-.65.6-.9.25-.27.53-.47.85-.62a2.67 2.67 0 0 1 2.16 0c.35.15.65.35.9.62.27.25.47.55.62.9.16.34.24.7.24 1.08zm7.97 10.24c.49-.54 1-1.04 1.54-1.48a9.85 9.85 0 0 1 3.66-1.84 8.96 8.96 0 0 1 5.43.35c.94.4 1.72.97 2.33 1.71a7.36 7.36 0 0 1 1.43 2.67c.32 1.04.49 2.19.49 3.45V93h-3.94V78.81c0-1.69-.4-3-1.17-3.92-.76-.93-1.93-1.4-3.5-1.4a6.6 6.6 0 0 0-3.25.83c-1 .56-1.92 1.31-2.77 2.27V93h-3.94V70.71h2.35c.56 0 .9.28 1.04.82l.3 2.42zm57.7 3.3c0 2.36-.37 4.5-1.11 6.44a14.3 14.3 0 0 1-3.17 4.98 14.1 14.1 0 0 1-4.93 3.2c-1.9.76-4.02 1.13-6.33 1.13H85.8V61.47h11.77c2.31 0 4.42.39 6.33 1.15a13.8 13.8 0 0 1 8.1 8.18 17.75 17.75 0 0 1 1.12 6.45zm-4.37 0c0-1.94-.26-3.67-.8-5.2a10.94 10.94 0 0 0-2.23-3.87 9.57 9.57 0 0 0-3.53-2.42 12.23 12.23 0 0 0-4.61-.83h-7.5v24.62h7.5c1.7 0 3.24-.28 4.61-.84a9.7 9.7 0 0 0 3.53-2.4 10.94 10.94 0 0 0 2.24-3.87c.53-1.53.8-3.26.8-5.2zm19.8 5.72c-1.8.06-3.34.2-4.62.44-1.26.22-2.3.51-3.1.88-.8.36-1.37.8-1.74 1.3-.35.5-.53 1.05-.53 1.67 0 .58.1 1.1.3 1.52a3 3 0 0 0 .76 1.05c.34.27.73.46 1.17.6a6.13 6.13 0 0 0 1.45.17 7.28 7.28 0 0 0 3.5-.81 11.95 11.95 0 0 0 2.82-2.2v-4.62zm-12.65-9.11a12.73 12.73 0 0 1 3.98-2.66c1.43-.59 3-.88 4.73-.88 1.25 0 2.36.2 3.33.61a6.81 6.81 0 0 1 3.94 4.38c.33 1.04.5 2.19.5 3.43V93h-1.74a1.8 1.8 0 0 1-.88-.18c-.2-.13-.36-.38-.48-.74l-.44-2.12-1.72 1.46a9.48 9.48 0 0 1-3.74 1.7c-.69.15-1.46.23-2.3.23-.87 0-1.69-.12-2.45-.35a5.34 5.34 0 0 1-3.34-2.93 6.64 6.64 0 0 1-.49-2.64c0-.88.25-1.72.73-2.53a6.33 6.33 0 0 1 2.35-2.17c1.09-.63 2.5-1.15 4.25-1.54 1.75-.41 3.89-.65 6.42-.7v-1.75c0-1.73-.37-3.03-1.12-3.91-.75-.9-1.84-1.34-3.28-1.34-.97 0-1.78.12-2.44.37-.64.23-1.2.5-1.7.81l-1.23.82c-.33.23-.67.35-1 .35-.27 0-.5-.07-.69-.2a2.1 2.1 0 0 1-.48-.53l-.7-1.25zm27.67 19.5c-1.76 0-3.12-.5-4.07-1.48-.94-.98-1.41-2.4-1.41-4.25V74h-2.68a.9.9 0 0 1-.6-.2c-.16-.14-.24-.36-.24-.66v-1.56l3.65-.46.9-6.89a.9.9 0 0 1 .29-.52.88.88 0 0 1 .62-.22H142v7.67h6.44V74H142v13.38c0 .94.22 1.63.68 2.09.45.45 1.04.68 1.76.68a3.21 3.21 0 0 0 1.85-.53l.55-.35c.16-.12.3-.18.41-.18.2 0 .4.13.55.38l1.15 1.87a7.45 7.45 0 0 1-2.44 1.5 8.53 8.53 0 0 1-2.95.52zm19.68-10.4c-1.8.07-3.34.21-4.62.45-1.26.22-2.3.51-3.1.88-.8.36-1.37.8-1.74 1.3-.35.5-.53 1.05-.53 1.67 0 .58.1 1.1.3 1.52a2.9 2.9 0 0 0 .76 1.05c.34.27.73.46 1.17.6a6.13 6.13 0 0 0 1.45.17 7.3 7.3 0 0 0 3.5-.81 12.04 12.04 0 0 0 2.82-2.2v-4.62zm-12.65-9.1a12.72 12.72 0 0 1 3.99-2.66c1.42-.59 3-.88 4.72-.88 1.25 0 2.36.2 3.33.61a6.81 6.81 0 0 1 3.94 4.38c.33 1.04.5 2.19.5 3.43V93h-1.74a1.8 1.8 0 0 1-.88-.18c-.2-.13-.36-.38-.48-.74l-.44-2.12-1.72 1.46a9.48 9.48 0 0 1-3.74 1.7c-.69.15-1.46.23-2.3.23-.87 0-1.69-.12-2.45-.35a5.33 5.33 0 0 1-3.34-2.93 6.62 6.62 0 0 1-.49-2.64c0-.88.25-1.72.73-2.53a6.33 6.33 0 0 1 2.35-2.17c1.09-.63 2.5-1.15 4.25-1.54a31.2 31.2 0 0 1 6.42-.7v-1.75c0-1.73-.37-3.03-1.12-3.91-.75-.9-1.84-1.34-3.28-1.34-.97 0-1.78.12-2.44.37-.64.23-1.2.5-1.7.81l-1.22.82c-.34.23-.68.35-1.02.35-.26 0-.49-.07-.68-.2a1.88 1.88 0 0 1-.48-.53l-.7-1.25zM40.98 32.25c0 2.36-.38 4.53-1.12 6.51a14.26 14.26 0 0 1-8.1 8.4c-1.9.78-4.02 1.17-6.34 1.17a16.6 16.6 0 0 1-6.33-1.17 14.31 14.31 0 0 1-8.08-8.4 18.29 18.29 0 0 1-1.12-6.51c0-2.36.38-4.53 1.12-6.5.75-1.97 1.8-3.67 3.17-5.1a14.32 14.32 0 0 1 4.9-3.34c1.92-.8 4.03-1.19 6.34-1.19 2.32 0 4.43.4 6.34 1.19 1.92.8 3.56 1.9 4.93 3.34a14.87 14.87 0 0 1 3.17 5.1 18.1 18.1 0 0 1 1.12 6.5zm-4.38 0c0-1.94-.26-3.68-.8-5.22a10.91 10.91 0 0 0-2.24-3.89 9.68 9.68 0 0 0-3.52-2.46 11.95 11.95 0 0 0-4.62-.86c-1.68 0-3.21.28-4.6.86a9.88 9.88 0 0 0-3.54 2.46 10.91 10.91 0 0 0-2.24 3.9c-.53 1.53-.8 3.27-.8 5.2 0 1.94.27 3.68.8 5.22a11.17 11.17 0 0 0 2.24 3.9 10.01 10.01 0 0 0 3.55 2.44c1.38.56 2.9.83 4.6.83s3.24-.27 4.61-.83a9.8 9.8 0 0 0 3.52-2.44 11.17 11.17 0 0 0 2.25-3.9c.53-1.54.8-3.28.8-5.21zm26.22-6.54V48H60.5c-.56 0-.9-.27-1.05-.81l-.31-2.4a12.45 12.45 0 0 1-3.26 2.6c-1.2.64-2.58.96-4.13.96-1.22 0-2.3-.2-3.24-.6a6.52 6.52 0 0 1-2.33-1.7 7.37 7.37 0 0 1-1.43-2.67c-.3-1.04-.46-2.2-.46-3.45V25.7h3.91v14.22c0 1.68.38 2.99 1.15 3.91.77.93 1.96 1.39 3.54 1.39 1.16 0 2.24-.27 3.23-.82a10.42 10.42 0 0 0 2.8-2.28V25.7h3.91zm8.61 4.47a9.94 9.94 0 0 1 2.6-3.56 5.64 5.64 0 0 1 3.76-1.3c.47 0 .92.05 1.34.15.44.1.83.27 1.17.49l-.3 2.92c-.09.37-.3.55-.66.55-.2 0-.5-.04-.9-.13a6.21 6.21 0 0 0-3.24.18 4.23 4.23 0 0 0-1.47.92c-.42.4-.81.9-1.17 1.5-.33.58-.64 1.26-.92 2.02V48H67.7V25.71h2.25c.42 0 .72.08.88.25.16.16.27.44.33.83l.26 3.39zm61.16-13.7L122.75 48h-3.82l-7.99-24.05a21.95 21.95 0 0 1-.42-1.58 38.36 38.36 0 0 1-.44 1.58L102.05 48h-3.83L88.4 16.47h3.54c.38 0 .7.1.95.29.26.2.43.43.5.73l6.52 21.9.28 1.28.29 1.46.3-1.46.38-1.27 7.41-21.91c.1-.25.26-.48.51-.69.27-.22.58-.33.95-.33h1.23c.38 0 .69.1.92.29a1.77 1.77 0 0 1 .53.73l7.4 21.9a28.4 28.4 0 0 1 .68 2.62 29.52 29.52 0 0 1 .52-2.61l6.54-21.91a1.31 1.31 0 0 1 .48-.7c.27-.21.58-.32.95-.32h3.32zm9.35 8.88c1.63 0 3.1.27 4.4.82a9.43 9.43 0 0 1 5.46 5.94c.5 1.4.74 2.98.74 4.73 0 1.76-.25 3.34-.74 4.75a9.43 9.43 0 0 1-5.46 5.92c-1.3.52-2.77.79-4.4.79-1.64 0-3.12-.27-4.44-.8a9.42 9.42 0 0 1-3.35-2.3c-.92-1-1.63-2.2-2.13-3.61-.49-1.41-.73-3-.73-4.75s.24-3.33.73-4.73c.5-1.43 1.2-2.64 2.13-3.63a9.4 9.4 0 0 1 3.35-2.31c1.32-.55 2.8-.82 4.44-.82zm0 19.89c2.2 0 3.84-.73 4.93-2.2 1.08-1.48 1.63-3.54 1.63-6.18 0-2.66-.55-4.72-1.63-6.2-1.09-1.49-2.73-2.23-4.93-2.23-1.12 0-2.09.2-2.93.57a5.71 5.71 0 0 0-2.06 1.65 7.5 7.5 0 0 0-1.24 2.67c-.26 1.04-.4 2.22-.4 3.54 0 2.64.55 4.7 1.64 6.18 1.1 1.47 2.76 2.2 4.99 2.2zm17.97-15.07a9.94 9.94 0 0 1 2.6-3.56 5.64 5.64 0 0 1 3.76-1.3c.47 0 .91.05 1.34.15.44.1.83.27 1.16.49l-.28 2.92c-.09.37-.31.55-.66.55-.2 0-.5-.04-.9-.13a6.2 6.2 0 0 0-3.24.18 4.23 4.23 0 0 0-1.47.92c-.43.4-.82.9-1.17 1.5a13.1 13.1 0 0 0-.92 2.02V48h-3.94V25.71h2.24c.43 0 .72.08.88.25.17.16.28.44.33.83l.27 3.39zm15.04-14.59V48h-3.92V15.6h3.92zm19.55 15.43a6.22 6.22 0 0 0-2.38-2.05 6.7 6.7 0 0 0-2.86-.6c-2.07 0-3.66.75-4.77 2.23-1.12 1.48-1.68 3.6-1.68 6.33 0 1.46.13 2.7.38 3.74a7.29 7.29 0 0 0 1.1 2.56 4.35 4.35 0 0 0 1.78 1.45c.7.3 1.5.46 2.4.46 1.29 0 2.41-.3 3.36-.88a9.6 9.6 0 0 0 2.67-2.49V31.02zm3.91-15.43V48h-2.33c-.56 0-.9-.27-1.06-.81l-.35-2.71a12.13 12.13 0 0 1-3.25 2.77 8.28 8.28 0 0 1-4.23 1.06 7.31 7.31 0 0 1-6.14-2.9c-.73-.96-1.3-2.15-1.69-3.57a18.35 18.35 0 0 1 .07-9.48 11.29 11.29 0 0 1 1.89-3.7 8.7 8.7 0 0 1 7.06-3.34 7.96 7.96 0 0 1 6.12 2.62V15.59h3.91zM46.61 70.71V93H42.7V70.71h3.91zm.84-7c0 .39-.08.75-.24 1.09a2.81 2.81 0 0 1-1.52 1.47 2.67 2.67 0 0 1-2.16 0 2.9 2.9 0 0 1-1.45-1.47 2.67 2.67 0 0 1 0-2.16c.15-.35.35-.65.6-.9.25-.27.53-.47.85-.62a2.67 2.67 0 0 1 2.16 0c.35.15.65.35.9.62.27.25.47.55.62.9.16.34.24.7.24 1.08zm7.97 10.24c.49-.54 1-1.04 1.54-1.48a9.85 9.85 0 0 1 3.66-1.84 8.96 8.96 0 0 1 5.43.35c.94.4 1.72.97 2.33 1.71a7.36 7.36 0 0 1 1.43 2.67c.32 1.04.49 2.19.49 3.45V93h-3.94V78.81c0-1.69-.4-3-1.17-3.92-.76-.93-1.93-1.4-3.5-1.4a6.6 6.6 0 0 0-3.25.83c-1 .56-1.92 1.31-2.77 2.27V93h-3.94V70.71h2.35c.56 0 .9.28 1.04.82l.3 2.42zm57.7 3.3c0 2.36-.37 4.5-1.11 6.44a14.3 14.3 0 0 1-3.17 4.98 14.1 14.1 0 0 1-4.93 3.2c-1.9.76-4.02 1.13-6.33 1.13H85.8V61.47h11.77c2.31 0 4.42.39 6.33 1.15a13.8 13.8 0 0 1 8.1 8.18 17.75 17.75 0 0 1 1.12 6.45zm-4.37 0c0-1.94-.26-3.67-.8-5.2a10.94 10.94 0 0 0-2.23-3.87 9.57 9.57 0 0 0-3.53-2.42 12.23 12.23 0 0 0-4.61-.83h-7.5v24.62h7.5c1.7 0 3.24-.28 4.61-.84a9.7 9.7 0 0 0 3.53-2.4 10.94 10.94 0 0 0 2.24-3.87c.53-1.53.8-3.26.8-5.2zm19.8 5.72c-1.8.06-3.34.2-4.62.44-1.26.22-2.3.51-3.1.88-.8.36-1.37.8-1.74 1.3-.35.5-.53 1.05-.53 1.67 0 .58.1 1.1.3 1.52a3 3 0 0 0 .76 1.05c.34.27.73.46 1.17.6a6.13 6.13 0 0 0 1.45.17 7.28 7.28 0 0 0 3.5-.81 11.95 11.95 0 0 0 2.82-2.2v-4.62zm-12.65-9.11a12.73 12.73 0 0 1 3.98-2.66c1.43-.59 3-.88 4.73-.88 1.25 0 2.36.2 3.33.61a6.81 6.81 0 0 1 3.94 4.38c.33 1.04.5 2.19.5 3.43V93h-1.74a1.8 1.8 0 0 1-.88-.18c-.2-.13-.36-.38-.48-.74l-.44-2.12-1.72 1.46a9.48 9.48 0 0 1-3.74 1.7c-.69.15-1.46.23-2.3.23-.87 0-1.69-.12-2.45-.35a5.34 5.34 0 0 1-3.34-2.93 6.64 6.64 0 0 1-.49-2.64c0-.88.25-1.72.73-2.53a6.33 6.33 0 0 1 2.35-2.17c1.09-.63 2.5-1.15 4.25-1.54 1.75-.41 3.89-.65 6.42-.7v-1.75c0-1.73-.37-3.03-1.12-3.91-.75-.9-1.84-1.34-3.28-1.34-.97 0-1.78.12-2.44.37-.64.23-1.2.5-1.7.81l-1.23.82c-.33.23-.67.35-1 .35-.27 0-.5-.07-.69-.2a2.1 2.1 0 0 1-.48-.53l-.7-1.25zm27.67 19.5c-1.76 0-3.12-.5-4.07-1.48-.94-.98-1.41-2.4-1.41-4.25V74h-2.68a.9.9 0 0 1-.6-.2c-.16-.14-.24-.36-.24-.66v-1.56l3.65-.46.9-6.89a.9.9 0 0 1 .29-.52.88.88 0 0 1 .62-.22H142v7.67h6.44V74H142v13.38c0 .94.22 1.63.68 2.09.45.45 1.04.68 1.76.68a3.21 3.21 0 0 0 1.85-.53l.55-.35c.16-.12.3-.18.41-.18.2 0 .4.13.55.38l1.15 1.87a7.45 7.45 0 0 1-2.44 1.5 8.53 8.53 0 0 1-2.95.52zm19.68-10.4c-1.8.07-3.34.21-4.62.45-1.26.22-2.3.51-3.1.88-.8.36-1.37.8-1.74 1.3-.35.5-.53 1.05-.53 1.67 0 .58.1 1.1.3 1.52a2.9 2.9 0 0 0 .76 1.05c.34.27.73.46 1.17.6a6.13 6.13 0 0 0 1.45.17 7.3 7.3 0 0 0 3.5-.81 12.04 12.04 0 0 0 2.82-2.2v-4.62zm-12.65-9.1a12.72 12.72 0 0 1 3.99-2.66c1.42-.59 3-.88 4.72-.88 1.25 0 2.36.2 3.33.61a6.81 6.81 0 0 1 3.94 4.38c.33 1.04.5 2.19.5 3.43V93h-1.74a1.8 1.8 0 0 1-.88-.18c-.2-.13-.36-.38-.48-.74l-.44-2.12-1.72 1.46a9.48 9.48 0 0 1-3.74 1.7c-.69.15-1.46.23-2.3.23-.87 0-1.69-.12-2.45-.35a5.33 5.33 0 0 1-3.34-2.93 6.62 6.62 0 0 1-.49-2.64c0-.88.25-1.72.73-2.53a6.33 6.33 0 0 1 2.35-2.17c1.09-.63 2.5-1.15 4.25-1.54a31.2 31.2 0 0 1 6.42-.7v-1.75c0-1.73-.37-3.03-1.12-3.91-.75-.9-1.84-1.34-3.28-1.34-.97 0-1.78.12-2.44.37-.64.23-1.2.5-1.7.81l-1.22.82c-.34.23-.68.35-1.02.35-.26 0-.49-.07-.68-.2a1.88 1.88 0 0 1-.48-.53l-.7-1.25zM40.98 32.25c0 2.36-.38 4.53-1.12 6.51a14.26 14.26 0 0 1-8.1 8.4c-1.9.78-4.02 1.17-6.34 1.17a16.6 16.6 0 0 1-6.33-1.17 14.31 14.31 0 0 1-8.08-8.4 18.29 18.29 0 0 1-1.12-6.51c0-2.36.38-4.53 1.12-6.5.75-1.97 1.8-3.67 3.17-5.1a14.32 14.32 0 0 1 4.9-3.34c1.92-.8 4.03-1.19 6.34-1.19 2.32 0 4.43.4 6.34 1.19 1.92.8 3.56 1.9 4.93 3.34a14.87 14.87 0 0 1 3.17 5.1 18.1 18.1 0 0 1 1.12 6.5zm-4.38 0c0-1.94-.26-3.68-.8-5.22a10.91 10.91 0 0 0-2.24-3.89 9.68 9.68 0 0 0-3.52-2.46 11.95 11.95 0 0 0-4.62-.86c-1.68 0-3.21.28-4.6.86a9.88 9.88 0 0 0-3.54 2.46 10.91 10.91 0 0 0-2.24 3.9c-.53 1.53-.8 3.27-.8 5.2 0 1.94.27 3.68.8 5.22a11.17 11.17 0 0 0 2.24 3.9 10.01 10.01 0 0 0 3.55 2.44c1.38.56 2.9.83 4.6.83s3.24-.27 4.61-.83a9.8 9.8 0 0 0 3.52-2.44 11.17 11.17 0 0 0 2.25-3.9c.53-1.54.8-3.28.8-5.21zm26.22-6.54V48H60.5c-.56 0-.9-.27-1.05-.81l-.31-2.4a12.45 12.45 0 0 1-3.26 2.6c-1.2.64-2.58.96-4.13.96-1.22 0-2.3-.2-3.24-.6a6.52 6.52 0 0 1-2.33-1.7 7.37 7.37 0 0 1-1.43-2.67c-.3-1.04-.46-2.2-.46-3.45V25.7h3.91v14.22c0 1.68.38 2.99 1.15 3.91.77.93 1.96 1.39 3.54 1.39 1.16 0 2.24-.27 3.23-.82a10.42 10.42 0 0 0 2.8-2.28V25.7h3.91zm8.61 4.47a9.94 9.94 0 0 1 2.6-3.56 5.64 5.64 0 0 1 3.76-1.3c.47 0 .92.05 1.34.15.44.1.83.27 1.17.49l-.3 2.92c-.09.37-.3.55-.66.55-.2 0-.5-.04-.9-.13a6.21 6.21 0 0 0-3.24.18 4.23 4.23 0 0 0-1.47.92c-.42.4-.81.9-1.17 1.5-.33.58-.64 1.26-.92 2.02V48H67.7V25.71h2.25c.42 0 .72.08.88.25.16.16.27.44.33.83l.26 3.39zm61.16-13.7L122.75 48h-3.82l-7.99-24.05a21.95 21.95 0 0 1-.42-1.58 38.36 38.36 0 0 1-.44 1.58L102.05 48h-3.83L88.4 16.47h3.54c.38 0 .7.1.95.29.26.2.43.43.5.73l6.52 21.9.28 1.28.29 1.46.3-1.46.38-1.27 7.41-21.91c.1-.25.26-.48.51-.69.27-.22.58-.33.95-.33h1.23c.38 0 .69.1.92.29a1.77 1.77 0 0 1 .53.73l7.4 21.9a28.4 28.4 0 0 1 .68 2.62 29.52 29.52 0 0 1 .52-2.61l6.54-21.91a1.31 1.31 0 0 1 .48-.7c.27-.21.58-.32.95-.32h3.32zm9.35 8.88c1.63 0 3.1.27 4.4.82a9.43 9.43 0 0 1 5.46 5.94c.5 1.4.74 2.98.74 4.73 0 1.76-.25 3.34-.74 4.75a9.43 9.43 0 0 1-5.46 5.92c-1.3.52-2.77.79-4.4.79-1.64 0-3.12-.27-4.44-.8a9.42 9.42 0 0 1-3.35-2.3c-.92-1-1.63-2.2-2.13-3.61-.49-1.41-.73-3-.73-4.75s.24-3.33.73-4.73c.5-1.43 1.2-2.64 2.13-3.63a9.4 9.4 0 0 1 3.35-2.31c1.32-.55 2.8-.82 4.44-.82zm0 19.89c2.2 0 3.84-.73 4.93-2.2 1.08-1.48 1.63-3.54 1.63-6.18 0-2.66-.55-4.72-1.63-6.2-1.09-1.49-2.73-2.23-4.93-2.23-1.12 0-2.09.2-2.93.57a5.71 5.71 0 0 0-2.06 1.65 7.5 7.5 0 0 0-1.24 2.67c-.26 1.04-.4 2.22-.4 3.54 0 2.64.55 4.7 1.64 6.18 1.1 1.47 2.76 2.2 4.99 2.2zm17.97-15.07a9.94 9.94 0 0 1 2.6-3.56 5.64 5.64 0 0 1 3.76-1.3c.47 0 .91.05 1.34.15.44.1.83.27 1.16.49l-.28 2.92c-.09.37-.31.55-.66.55-.2 0-.5-.04-.9-.13a6.2 6.2 0 0 0-3.24.18 4.23 4.23 0 0 0-1.47.92c-.43.4-.82.9-1.17 1.5a13.1 13.1 0 0 0-.92 2.02V48h-3.94V25.71h2.24c.43 0 .72.08.88.25.17.16.28.44.33.83l.27 3.39zm15.04-14.59V48h-3.92V15.6h3.92zm19.55 15.43a6.22 6.22 0 0 0-2.38-2.05 6.7 6.7 0 0 0-2.86-.6c-2.07 0-3.66.75-4.77 2.23-1.12 1.48-1.68 3.6-1.68 6.33 0 1.46.13 2.7.38 3.74a7.29 7.29 0 0 0 1.1 2.56 4.35 4.35 0 0 0 1.78 1.45c.7.3 1.5.46 2.4.46 1.29 0 2.41-.3 3.36-.88a9.6 9.6 0 0 0 2.67-2.49V31.02zm3.91-15.43V48h-2.33c-.56 0-.9-.27-1.06-.81l-.35-2.71a12.13 12.13 0 0 1-3.25 2.77 8.28 8.28 0 0 1-4.23 1.06 7.31 7.31 0 0 1-6.14-2.9c-.73-.96-1.3-2.15-1.69-3.57a18.35 18.35 0 0 1 .07-9.48 11.29 11.29 0 0 1 1.89-3.7 8.7 8.7 0 0 1 7.06-3.34 7.96 7.96 0 0 1 6.12 2.62V15.59h3.91zM46.61 70.71V93H42.7V70.71h3.91zm.84-7c0 .39-.08.75-.24 1.09a2.81 2.81 0 0 1-1.52 1.47 2.67 2.67 0 0 1-2.16 0 2.9 2.9 0 0 1-1.45-1.47 2.67 2.67 0 0 1 0-2.16c.15-.35.35-.65.6-.9.25-.27.53-.47.85-.62a2.67 2.67 0 0 1 2.16 0c.35.15.65.35.9.62.27.25.47.55.62.9.16.34.24.7.24 1.08zm7.97 10.24c.49-.54 1-1.04 1.54-1.48a9.85 9.85 0 0 1 3.66-1.84 8.96 8.96 0 0 1 5.43.35c.94.4 1.72.97 2.33 1.71a7.36 7.36 0 0 1 1.43 2.67c.32 1.04.49 2.19.49 3.45V93h-3.94V78.81c0-1.69-.4-3-1.17-3.92-.76-.93-1.93-1.4-3.5-1.4a6.6 6.6 0 0 0-3.25.83c-1 .56-1.92 1.31-2.77 2.27V93h-3.94V70.71h2.35c.56 0 .9.28 1.04.82l.3 2.42zm57.7 3.3c0 2.36-.37 4.5-1.11 6.44a14.3 14.3 0 0 1-3.17 4.98 14.1 14.1 0 0 1-4.93 3.2c-1.9.76-4.02 1.13-6.33 1.13H85.8V61.47h11.77c2.31 0 4.42.39 6.33 1.15a13.8 13.8 0 0 1 8.1 8.18 17.75 17.75 0 0 1 1.12 6.45zm-4.37 0c0-1.94-.26-3.67-.8-5.2a10.94 10.94 0 0 0-2.23-3.87 9.57 9.57 0 0 0-3.53-2.42 12.23 12.23 0 0 0-4.61-.83h-7.5v24.62h7.5c1.7 0 3.24-.28 4.61-.84a9.7 9.7 0 0 0 3.53-2.4 10.94 10.94 0 0 0 2.24-3.87c.53-1.53.8-3.26.8-5.2zm19.8 5.72c-1.8.06-3.34.2-4.62.44-1.26.22-2.3.51-3.1.88-.8.36-1.37.8-1.74 1.3-.35.5-.53 1.05-.53 1.67 0 .58.1 1.1.3 1.52a3 3 0 0 0 .76 1.05c.34.27.73.46 1.17.6a6.13 6.13 0 0 0 1.45.17 7.28 7.28 0 0 0 3.5-.81 11.95 11.95 0 0 0 2.82-2.2v-4.62zm-12.65-9.11a12.73 12.73 0 0 1 3.98-2.66c1.43-.59 3-.88 4.73-.88 1.25 0 2.36.2 3.33.61a6.81 6.81 0 0 1 3.94 4.38c.33 1.04.5 2.19.5 3.43V93h-1.74a1.8 1.8 0 0 1-.88-.18c-.2-.13-.36-.38-.48-.74l-.44-2.12-1.72 1.46a9.48 9.48 0 0 1-3.74 1.7c-.69.15-1.46.23-2.3.23-.87 0-1.69-.12-2.45-.35a5.34 5.34 0 0 1-3.34-2.93 6.64 6.64 0 0 1-.49-2.64c0-.88.25-1.72.73-2.53a6.33 6.33 0 0 1 2.35-2.17c1.09-.63 2.5-1.15 4.25-1.54 1.75-.41 3.89-.65 6.42-.7v-1.75c0-1.73-.37-3.03-1.12-3.91-.75-.9-1.84-1.34-3.28-1.34-.97 0-1.78.12-2.44.37-.64.23-1.2.5-1.7.81l-1.23.82c-.33.23-.67.35-1 .35-.27 0-.5-.07-.69-.2a2.1 2.1 0 0 1-.48-.53l-.7-1.25zm27.67 19.5c-1.76 0-3.12-.5-4.07-1.48-.94-.98-1.41-2.4-1.41-4.25V74h-2.68a.9.9 0 0 1-.6-.2c-.16-.14-.24-.36-.24-.66v-1.56l3.65-.46.9-6.89a.9.9 0 0 1 .29-.52.88.88 0 0 1 .62-.22H142v7.67h6.44V74H142v13.38c0 .94.22 1.63.68 2.09.45.45 1.04.68 1.76.68a3.21 3.21 0 0 0 1.85-.53l.55-.35c.16-.12.3-.18.41-.18.2 0 .4.13.55.38l1.15 1.87a7.45 7.45 0 0 1-2.44 1.5 8.53 8.53 0 0 1-2.95.52zm19.68-10.4c-1.8.07-3.34.21-4.62.45-1.26.22-2.3.51-3.1.88-.8.36-1.37.8-1.74 1.3-.35.5-.53 1.05-.53 1.67 0 .58.1 1.1.3 1.52a2.9 2.9 0 0 0 .76 1.05c.34.27.73.46 1.17.6a6.13 6.13 0 0 0 1.45.17 7.3 7.3 0 0 0 3.5-.81 12.04 12.04 0 0 0 2.82-2.2v-4.62zm-12.65-9.1a12.72 12.72 0 0 1 3.99-2.66c1.42-.59 3-.88 4.72-.88 1.25 0 2.36.2 3.33.61a6.81 6.81 0 0 1 3.94 4.38c.33 1.04.5 2.19.5 3.43V93h-1.74a1.8 1.8 0 0 1-.88-.18c-.2-.13-.36-.38-.48-.74l-.44-2.12-1.72 1.46a9.48 9.48 0 0 1-3.74 1.7c-.69.15-1.46.23-2.3.23-.87 0-1.69-.12-2.45-.35a5.33 5.33 0 0 1-3.34-2.93 6.62 6.62 0 0 1-.49-2.64c0-.88.25-1.72.73-2.53a6.33 6.33 0 0 1 2.35-2.17c1.09-.63 2.5-1.15 4.25-1.54a31.2 31.2 0 0 1 6.42-.7v-1.75c0-1.73-.37-3.03-1.12-3.91-.75-.9-1.84-1.34-3.28-1.34-.97 0-1.78.12-2.44.37-.64.23-1.2.5-1.7.81l-1.22.82c-.34.23-.68.35-1.02.35-.26 0-.49-.07-.68-.2a1.88 1.88 0 0 1-.48-.53l-.7-1.25z" fill="#fff"/><path fill="#D42B21" d="M0 106.79h210V120H0z"/></g><defs><clipPath id="a"><path fill="#fff" d="M0 0h210v120H0z"/></clipPath></defs></svg></g><a href="https://ourworldindata.org/grapher/consumption-co2-per-capita-vs-gdppc?yScale=log&amp;zoomToSelection=true&amp;endpointsOnly=1&amp;time=earliest..latest&amp;country=BGD~BRA~CHN~EGY~ETH~IND~IDN~JPN~MEX~NGA~PAK~PHL~RUS~USA" style="font-family:&quot;Playfair Display&quot;,Georgia,&quot;Times New Roman&quot;,serif" target="_blank" rel="noopener"><text font-size="24.3" x="15" y="34.4" fill="#555"><tspan x="15" y="34.44">Consumption-based CO₂ emissions per capita vs GDP per capita</tspan></text></a><text font-size="14.4" x="15" y="54.8" fill="#666"><tspan x="15" y="54.82">– Consumption-based emissions are domestic emissions adjusted for trade. If a country imports goods the CO₂</tspan><tspan x="15" y="72.1">emissions needed to produce such goods are added to its domestic emissions; if it exports goods then this is</tspan><tspan x="15" y="89.38">subtracted.</tspan><tspan x="15" y="106.66">
– GDP per capita is adjusted for price differences between countries (PPP) and over time (inflation).</tspan></text></g><g class="ScatterPlot"><g class="DualAxisView"><g class="HorizontalAxis"><text font-size="12.6" x="323.3" y="530.3"><tspan x="323.33" y="530.28">GDP per capita</tspan></text><text x="112.5" y="510.2" fill="#666" text-anchor="middle" font-size="16.2">$1,000</text><text x="443.2" y="510.2" fill="#666" text-anchor="middle" font-size="16.2">$10,000</text><text x="212" y="510.2" fill="#666" text-anchor="middle" font-size="16.2">$2,000</text><text x="343.7" y="510.2" fill="#666" text-anchor="middle" font-size="16.2">$5,000</text><text x="542.8" y="510.2" fill="#666" text-anchor="middle" font-size="16.2">$20,000</text><text x="674.5" y="510.2" fill="#666" text-anchor="middle" font-size="16.2">$50,000</text></g><g class="VerticalAxis"><text font-size="12.6" x="-478" y="25.1" transform="rotate(-90)"><tspan x="-478.03" y="25.08">Annual consumption-based CO₂ emissions per capita</tspan></text><text x="69.35" y="475.5" dy=".32em" text-anchor="end" fill="#666" font-size="16.2">0.1 t</text><text x="69.35" y="324.8" dy=".32em" text-anchor="end" fill="#666" font-size="16.2">1 t</text><text x="69.35" y="174.1" dy=".32em" text-anchor="end" fill="#666" font-size="16.2">10 t</text><text x="69.35" y="430.1" dy=".32em" text-anchor="end" fill="#666" font-size="16.2">0.2 t</text><text x="69.35" y="370.1" dy=".32em" text-anchor="end" fill="#666" font-size="16.2">0.5 t</text><text x="69.35" y="279.4" dy=".32em" text-anchor="end" fill="#666" font-size="16.2">2 t</text><text x="69.35" y="219.5" dy=".32em" text-anchor="end" fill="#666" font-size="16.2">5 t</text><text x="69.35" y="128.8" dy=".32em" text-anchor="end" fill="#666" font-size="16.2">20 t</text></g><g class="AxisGridLines horizontalLines" stroke="#ddd" stroke-dasharray="3,2"><path d="M74.35 475.5h643.74M74.35 430.1h643.74M74.35 370.1h643.74M74.35 324.8h643.74M74.35 279.4h643.74M74.35 219.5h643.74M74.35 174.1h643.74M74.35 128.8h643.74"/></g><g class="AxisGridLines verticalLines" stroke-dasharray="3,2"><path stroke="#eee" d="M80.4 489V122.5M97.3 489V122.5"/><path stroke="#ddd" d="M112.5 489V122.5M212 489V122.5"/><path stroke="#eee" d="M270.3 489V122.5M311.6 489V122.5"/><path stroke="#ddd" d="M343.7 489V122.5"/><path stroke="#eee" d="M369.9 489V122.5M392 489V122.5M411.2 489V122.5M428.1 489V122.5"/><path stroke="#ddd" d="M443.2 489V122.5M542.8 489V122.5"/><path stroke="#eee" d="M601.1 489V122.5M642.4 489V122.5"/><path stroke="#ddd" d="M674.5 489V122.5"/><path stroke="#eee" d="M700.7 489V122.5"/></g></g><g class="PointsWithLabels clickable" clip-path="url(#b)"><path fill="rgba(255,255,255,0)" d="M74.35 122.5h643.74V489H74.35z"/><defs><clipPath id="b"><path d="M64.35 112.5h663.74V499H64.35z"/></clipPath></defs><g class="key-Albania"><circle cx="338" cy="291" r="1.5" fill="#e2e2e2" opacity=".7"/><path stroke-width="1" opacity=".7" stroke="#ccc" fill="none" stroke-linecap="butt" d="m338 291 146-17"/><path cx="484" cy="274" r="2.5" fill="#e2e2e2" opacity=".7" d="m481.23 271.8 5.25 1.91-4.67 3.06z"/></g><g class="key-Argentina"><circle cx="493" cy="244" r="1.5" fill="#e2e2e2" opacity=".7"/><path stroke-width="1" opacity=".7" stroke="#ccc" fill="none" stroke-linecap="butt" d="m493 244 68-14"/><path cx="561" cy="230" r="2.5" fill="#e2e2e2" opacity=".7" d="m558.05 228.06 5.4 1.44-4.4 3.45z"/></g><g class="key-Armenia"><circle cx="348" cy="244" r="1.5" fill="#e2e2e2" opacity=".7"/><path stroke-width="1" opacity=".7" stroke="#ccc" fill="none" stroke-linecap="butt" d="m348 244 129 30"/><path cx="477" cy="274" r="2.5" fill="#e2e2e2" opacity=".7" d="m475.13 271 4.3 3.57-5.43 1.3z"/></g><g class="key-Australia"><circle cx="606" cy="150" r="1.5" fill="#e2e2e2" opacity=".7"/><path stroke-width="1" opacity=".7" stroke="#ccc" fill="none" stroke-linecap="butt" d="m606 150 66-4"/><path cx="672" cy="146" r="2.5" fill="#e2e2e2" opacity=".7" d="m669.35 143.66 5.15 2.19-4.84 2.8z"/></g><g class="key-Austria"><circle cx="632" cy="165" r="1.5" fill="#e2e2e2" opacity=".7"/><path stroke-width="1" opacity=".7" stroke="#ccc" fill="none" stroke-linecap="butt" d="m632 165 56 6"/><path cx="688" cy="171" r="2.5" fill="#e2e2e2" opacity=".7" d="m685.78 168.25 4.7 3.02-5.23 1.95z"/></g><g class="key-Azerbaijan"><circle cx="406" cy="234" r="1.5" fill="#e2e2e2" opacity=".7"/><path stroke-width="1" opacity=".7" stroke="#ccc" fill="none" stroke-linecap="butt" d="M406 234h87"/><path cx="493" cy="234" r="2.5" fill="#e2e2e2" opacity=".7" d="m490.5 231.5 5 2.5-5 2.5z"/></g><g class="key-Bahrain"><circle cx="637" cy="118" r="1.5" fill="#e2e2e2" opacity=".7"/><path stroke-width="1" opacity=".7" stroke="#ccc" fill="none" stroke-linecap="butt" d="m637 118 26 48"/><path cx="663" cy="166" r="2.5" fill="#e2e2e2" opacity=".7" d="m664 162.61.2 5.59-4.59-3.2z"/></g><g class="key-Belarus"><circle cx="426" cy="208" r="1.5" fill="#e2e2e2" opacity=".7"/><path stroke-width="1" opacity=".7" stroke="#ccc" fill="none" stroke-linecap="butt" d="m426 208 108-10"/><path cx="534" cy="198" r="2.5" fill="#e2e2e2" opacity=".7" d="m531.28 195.74 5.2 2.03-4.74 2.95z"/></g><g class="key-Belgium"><circle cx="625" cy="145" r="1.5" fill="#e2e2e2" opacity=".7"/><path stroke-width="1" opacity=".7" stroke="#ccc" fill="none" stroke-linecap="butt" d="M625 145h52"/><path cx="677" cy="145" r="2.5" fill="#e2e2e2" opacity=".7" d="m674.5 142.5 5 2.5-5 2.5z"/></g><g class="key-Benin"><circle cx="224" cy="430" r="1.5" fill="#e2e2e2" opacity=".7"/><path stroke-width="1" opacity=".7" stroke="#ccc" fill="none" stroke-linecap="butt" d="m224 430 53-91"/><path cx="277" cy="339" r="2.5" fill="#e2e2e2" opacity=".7" d="m273.58 339.9 4.68-3.06-.36 5.58z"/></g><g class="key-Bolivia"><circle cx="331" cy="338" r="1.5" fill="#e2e2e2" opacity=".7"/><path stroke-width="1" opacity=".7" stroke="#ccc" fill="none" stroke-linecap="butt" d="m331 338 91-57"/><path cx="422" cy="281" r="2.5" fill="#e2e2e2" opacity=".7" d="m418.55 280.2 5.57-.53-2.91 4.78z"/></g><g class="key-Botswana"><circle cx="429" cy="276" r="1.5" fill="#e2e2e2" opacity=".7"/><path stroke-width="1" opacity=".7" stroke="#ccc" fill="none" stroke-linecap="butt" d="m429 276 95-87"/><path cx="524" cy="189" r="2.5" fill="#e2e2e2" opacity=".7" d="m520.47 188.84 5.37-1.53-2 5.22z"/></g><g class="key-Brunei"><circle cx="725" cy="138" r="1.5" fill="#e2e2e2" opacity=".7"/><path stroke-width="1" opacity=".7" stroke="#ccc" fill="none" stroke-linecap="butt" d="m725 138-24-19"/><path cx="701" cy="119" r="2.5" fill="#e2e2e2" opacity=".7" d="m701.4 122.51-2.36-5.06 5.47 1.14z"/></g><g class="key-Bulgaria"><circle cx="470" cy="198" r="1.5" fill="#e2e2e2" opacity=".7"/><path stroke-width="1" opacity=".7" stroke="#ccc" fill="none" stroke-linecap="butt" d="m470 198 87 14"/><path cx="557" cy="212" r="2.5" fill="#e2e2e2" opacity=".7" d="m554.93 209.13 4.54 3.27-5.34 1.67z"/></g><g class="key-Burkina-Faso"><circle cx="115" cy="480" r="1.5" fill="#e2e2e2" opacity=".7"/><path stroke-width="1" opacity=".7" stroke="#ccc" fill="none" stroke-linecap="butt" d="m115 480 105-71"/><path cx="220" cy="409" r="2.5" fill="#e2e2e2" opacity=".7" d="m216.53 408.33 5.54-.73-2.74 4.87z"/></g><g class="key-Cameroon"><circle cx="280" cy="465" r="1.5" fill="#e2e2e2" opacity=".7"/><path stroke-width="1" opacity=".7" stroke="#ccc" fill="none" stroke-linecap="butt" d="m280 465 16-86"/><path cx="296" cy="379" r="2.5" fill="#e2e2e2" opacity=".7" d="m293.08 381 3.38-4.46 1.54 5.38z"/></g><g class="key-Chile"><circle cx="441" cy="266" r="1.5" fill="#e2e2e2" opacity=".7"/><path stroke-width="1" opacity=".7" stroke="#ccc" fill="none" stroke-linecap="butt" d="m441 266 134-47"/><path cx="575" cy="219" r="2.5" fill="#e2e2e2" opacity=".7" d="m571.81 217.47 5.55.7-3.9 4.02z"/></g><g class="key-Colombia"><circle cx="416" cy="282" r="1.5" fill="#e2e2e2" opacity=".7"/><path stroke-width="1" opacity=".7" stroke="#ccc" fill="none" stroke-linecap="butt" d="m416 282 78-5"/><path cx="494" cy="277" r="2.5" fill="#e2e2e2" opacity=".7" d="m491.35 274.67 5.14 2.17-4.82 2.81z"/></g><g class="key-Costa-Rica"><circle cx="442" cy="292" r="1.5" fill="#e2e2e2" opacity=".7"/><path stroke-width="1" opacity=".7" stroke="#ccc" fill="none" stroke-linecap="butt" d="m442 292 104-30"/><path cx="546" cy="262" r="2.5" fill="#e2e2e2" opacity=".7" d="m542.9 260.3 5.5 1-4.1 3.8z"/></g><g class="key-Cote-d__0027Ivoire"><circle cx="328" cy="370" r="1.5" fill="#e2e2e2" opacity=".7"/><path stroke-width="1" opacity=".7" stroke="#ccc" fill="none" stroke-linecap="butt" d="m328 370 16-21"/><path cx="344" cy="349" r="2.5" fill="#e2e2e2" opacity=".7" d="m340.5 349.47 5.02-2.46-1.05 5.5z"/></g><g class="key-Cyprus"><circle cx="576" cy="183" r="1.5" fill="#e2e2e2" opacity=".7"/><path stroke-width="1" opacity=".7" stroke="#ccc" fill="none" stroke-linecap="butt" d="m576 183 64 18"/><path cx="640" cy="201" r="2.5" fill="#e2e2e2" opacity=".7" d="m638.27 197.92 4.14 3.76-5.5 1.05z"/></g><g class="key-Denmark"><circle cx="638" cy="162" r="1.5" fill="#e2e2e2" opacity=".7"/><path stroke-width="1" opacity=".7" stroke="#ccc" fill="none" stroke-linecap="butt" d="m638 162 53 19"/><path cx="691" cy="181" r="2.5" fill="#e2e2e2" opacity=".7" d="m689.49 177.8 3.86 4.04-5.55.67z"/></g><g class="key-Dominican-Republic"><circle cx="374" cy="306" r="1.5" fill="#e2e2e2" opacity=".7"/><path stroke-width="1" opacity=".7" stroke="#ccc" fill="none" stroke-linecap="butt" d="m374 306 151-41"/><path cx="525" cy="265" r="2.5" fill="#e2e2e2" opacity=".7" d="m521.93 263.24 5.48 1.1-4.17 3.73z"/></g><g class="key-Ecuador"><circle cx="416" cy="291" r="1.5" fill="#e2e2e2" opacity=".7"/><path stroke-width="1" opacity=".7" stroke="#ccc" fill="none" stroke-linecap="butt" d="m416 291 48-36"/><path cx="464" cy="255" r="2.5" fill="#e2e2e2" opacity=".7" d="m460.5 254.5 5.5-1-2.5 5z"/></g><g class="key-El-Salvador"><circle cx="351" cy="342" r="1.5" fill="#e2e2e2" opacity=".7"/><path stroke-width="1" opacity=".7" stroke="#ccc" fill="none" stroke-linecap="butt" d="m351 342 70-33"/><path cx="421" cy="309" r="2.5" fill="#e2e2e2" opacity=".7" d="m417.67 307.8 5.6.13-3.47 4.4z"/></g><g class="key-Finland"><circle cx="614" cy="143" r="1.5" fill="#e2e2e2" opacity=".7"/><path stroke-width="1" opacity=".7" stroke="#ccc" fill="none" stroke-linecap="butt" d="m614 143 55 17"/><path cx="669" cy="160" r="2.5" fill="#e2e2e2" opacity=".7" d="m667.35 156.87 4.04 3.87-5.52.91z"/></g><g class="key-France"><circle cx="617" cy="182" r="1.5" fill="#e2e2e2" opacity=".7"/><path stroke-width="1" opacity=".7" stroke="#ccc" fill="none" stroke-linecap="butt" d="m617 182 43 17"/><path cx="660" cy="199" r="2.5" fill="#e2e2e2" opacity=".7" d="m658.6 195.76 3.72 4.16-5.56.49z"/></g><g class="key-Georgia"><circle cx="458" cy="249" r="1.5" fill="#e2e2e2" opacity=".7"/><path stroke-width="1" opacity=".7" stroke="#ccc" fill="none" stroke-linecap="butt" d="m458 249 36 8"/><path cx="494" cy="257" r="2.5" fill="#e2e2e2" opacity=".7" d="m492.1 254.02 4.34 3.52-5.42 1.36z"/></g><g class="key-Germany"><circle cx="629" cy="147" r="1.5" fill="#e2e2e2" opacity=".7"/><path stroke-width="1" opacity=".7" stroke="#ccc" fill="none" stroke-linecap="butt" d="m629 147 55 24"/><path cx="684" cy="171" r="2.5" fill="#e2e2e2" opacity=".7" d="m682.7 167.7 3.6 4.3-5.6.3z"/></g><g class="key-Ghana"><circle cx="234" cy="397" r="1.5" fill="#e2e2e2" opacity=".7"/><path stroke-width="1" opacity=".7" stroke="#ccc" fill="none" stroke-linecap="butt" d="m234 397 114-43"/><path cx="348" cy="354" r="2.5" fill="#e2e2e2" opacity=".7" d="m344.78 352.54 5.56.58-3.8 4.1z"/></g><g class="key-Greece"><circle cx="570" cy="178" r="1.5" fill="#e2e2e2" opacity=".7"/><path stroke-width="1" opacity=".7" stroke="#ccc" fill="none" stroke-linecap="butt" d="m570 178 26 32"/><path cx="596" cy="210" r="2.5" fill="#e2e2e2" opacity=".7" d="m596.36 206.48 1.22 5.46-5.1-2.3z"/></g><g class="key-Guatemala"><circle cx="358" cy="346" r="1.5" fill="#e2e2e2" opacity=".7"/><path stroke-width="1" opacity=".7" stroke="#ccc" fill="none" stroke-linecap="butt" d="m358 346 61-44"/><path cx="419" cy="302" r="2.5" fill="#e2e2e2" opacity=".7" d="m415.51 301.43 5.52-.9-2.6 4.96z"/></g><g class="key-Guinea"><circle cx="171" cy="445" r="1.5" fill="#e2e2e2" opacity=".7"/><path stroke-width="1" opacity=".7" stroke="#ccc" fill="none" stroke-linecap="butt" d="m171 445 73-28"/><path cx="244" cy="417" r="2.5" fill="#e2e2e2" opacity=".7" d="m240.77 415.56 5.56.54-3.77 4.13z"/></g><g class="key-Honduras"><circle cx="311" cy="352" r="1.5" fill="#e2e2e2" opacity=".7"/><path stroke-width="1" opacity=".7" stroke="#ccc" fill="none" stroke-linecap="butt" d="m311 352 51-46"/><path cx="362" cy="306" r="2.5" fill="#e2e2e2" opacity=".7" d="m358.47 305.82 5.39-1.5-2.04 5.21z"/></g><g class="key-Hong-Kong"><circle cx="595" cy="147" r="1.5" fill="#e2e2e2" opacity=".7"/><path stroke-width="1" opacity=".7" stroke="#ccc" fill="none" stroke-linecap="butt" d="m595 147 108 2"/><path cx="703" cy="149" r="2.5" fill="#e2e2e2" opacity=".7" d="m700.55 146.45 4.95 2.6-5.05 2.4z"/></g><g class="key-Iran"><circle cx="422" cy="241" r="1.5" fill="#e2e2e2" opacity=".7"/><path stroke-width="1" opacity=".7" stroke="#ccc" fill="none" stroke-linecap="butt" d="m422 241 64-56"/><path cx="486" cy="185" r="2.5" fill="#e2e2e2" opacity=".7" d="m482.47 184.76 5.41-1.4-2.12 5.17z"/></g><g class="key-Ireland"><circle cx="584" cy="166" r="1.5" fill="#e2e2e2" opacity=".7"/><path stroke-width="1" opacity=".7" stroke="#ccc" fill="none" stroke-linecap="butt" d="m584 166 165 18"/><path cx="749" cy="184" r="2.5" fill="#e2e2e2" opacity=".7" d="m746.79 181.24 4.7 3.03-5.25 1.94z"/></g><g class="key-Italy"><circle cx="629" cy="175" r="1.5" fill="#e2e2e2" opacity=".7"/><path stroke-width="1" opacity=".7" stroke="#ccc" fill="none" stroke-linecap="butt" d="m629 175 20 16"/><path cx="649" cy="191" r="2.5" fill="#e2e2e2" opacity=".7" d="m648.61 187.49 2.34 5.07-5.46-1.17z"/></g><g class="key-Jamaica"><circle cx="421" cy="251" r="1.5" fill="#e2e2e2" opacity=".7"/><path stroke-width="1" opacity=".7" stroke="#ccc" fill="none" stroke-linecap="butt" d="m421 251 18 3"/><path cx="439" cy="254" r="2.5" fill="#e2e2e2" opacity=".7" d="m436.95 251.12 4.52 3.3-5.35 1.63z"/></g><g class="key-Jordan"><circle cx="409" cy="227" r="1.5" fill="#e2e2e2" opacity=".7"/><path stroke-width="1" opacity=".7" stroke="#ccc" fill="none" stroke-linecap="butt" d="m409 227 34 16"/><path cx="443" cy="243" r="2.5" fill="#e2e2e2" opacity=".7" d="m441.8 239.67 3.46 4.4-5.59.13z"/></g><g class="key-Kazakhstan"><circle cx="486" cy="136" r="1.5" fill="#e2e2e2" opacity=".7"/><path stroke-width="1" opacity=".7" stroke="#ccc" fill="none" stroke-linecap="butt" d="m486 136 92 21"/><path cx="578" cy="157" r="2.5" fill="#e2e2e2" opacity=".7" d="m576.12 154 4.32 3.56-5.43 1.32z"/></g><g class="key-Kenya"><circle cx="280" cy="396" r="1.5" fill="#e2e2e2" opacity=".7"/><path stroke-width="1" opacity=".7" stroke="#ccc" fill="none" stroke-linecap="butt" d="m280 396 38-30"/><path cx="318" cy="366" r="2.5" fill="#e2e2e2" opacity=".7" d="m314.49 365.59 5.47-1.14-2.37 5.06z"/></g><g class="key-Kyrgyzstan"><circle cx="348" cy="221" r="1.5" fill="#e2e2e2" opacity=".7"/><path stroke-width="1" opacity=".7" stroke="#ccc" fill="none" stroke-linecap="butt" d="m348 221-1 40"/><path cx="347" cy="261" r="2.5" fill="#e2e2e2" opacity=".7" d="m349.56 258.56-2.62 4.94-2.38-5.06z"/></g><g class="key-Laos"><circle cx="209" cy="432" r="1.5" fill="#e2e2e2" opacity=".7"/><path stroke-width="1" opacity=".7" stroke="#ccc" fill="none" stroke-linecap="butt" d="m209 432 194-200"/><path cx="403" cy="232" r="2.5" fill="#e2e2e2" opacity=".7" d="m399.46 232.05 5.28-1.84-1.69 5.33z"/></g><g class="key-Luxembourg"><circle cx="717" cy="100" r="1.5" fill="#e2e2e2" opacity=".7"/><path stroke-width="1" opacity=".7" stroke="#ccc" fill="none" stroke-linecap="butt" d="m717 100 75-14"/><path cx="792" cy="86" r="2.5" fill="#e2e2e2" opacity=".7" d="m789.08 84 5.38 1.54-4.46 3.38z"/></g><g class="key-Madagascar"><circle cx="201" cy="466" r="1.5" fill="#e2e2e2" opacity=".7"/><path stroke-width="1" opacity=".7" stroke="#ccc" fill="none" stroke-linecap="butt" d="m201 466-22-39"/><path cx="179" cy="427" r="2.5" fill="#e2e2e2" opacity=".7" d="m178.05 430.4-.28-5.58 4.64 3.13z"/></g><g class="key-Malawi"><circle cx="103" cy="444" r="1.5" fill="#e2e2e2" opacity=".7"/><path stroke-width="1" opacity=".7" stroke="#ccc" fill="none" stroke-linecap="butt" d="m103 444 64-8"/><path cx="167" cy="436" r="2.5" fill="#e2e2e2" opacity=".7" d="m164.2 433.83 5.28 1.86-4.65 3.1z"/></g><g class="key-Malaysia"><circle cx="447" cy="239" r="1.5" fill="#e2e2e2" opacity=".7"/><path stroke-width="1" opacity=".7" stroke="#ccc" fill="none" stroke-linecap="butt" d="m447 239 141-49"/><path cx="588" cy="190" r="2.5" fill="#e2e2e2" opacity=".7" d="m584.82 188.46 5.54.72-3.9 4z"/></g><g class="key-Malta"><circle cx="511" cy="179" r="1.5" fill="#e2e2e2" opacity=".7"/><path stroke-width="1" opacity=".7" stroke="#ccc" fill="none" stroke-linecap="butt" d="m511 179 142-18"/><path cx="653" cy="161" r="2.5" fill="#e2e2e2" opacity=".7" d="m650.2 158.83 5.28 1.86-4.65 3.1z"/></g><g class="key-Mauritius"><circle cx="411" cy="265" r="1.5" fill="#e2e2e2" opacity=".7"/><path stroke-width="1" opacity=".7" stroke="#ccc" fill="none" stroke-linecap="butt" d="m411 265 146-42"/><path cx="557" cy="223" r="2.5" fill="#e2e2e2" opacity=".7" d="m553.9 221.29 5.5 1.02-4.11 3.78z"/></g><g class="key-Mongolia"><circle cx="343" cy="232" r="1.5" fill="#e2e2e2" opacity=".7"/><path stroke-width="1" opacity=".7" stroke="#ccc" fill="none" stroke-linecap="butt" d="m343 232 125-94"/><path cx="468" cy="138" r="2.5" fill="#e2e2e2" opacity=".7" d="m464.5 137.5 5.5-1-2.5 5z"/></g><g class="key-Morocco"><circle cx="304" cy="309" r="1.5" fill="#e2e2e2" opacity=".7"/><path stroke-width="1" opacity=".7" stroke="#ccc" fill="none" stroke-linecap="butt" d="m304 309 96-26"/><path cx="400" cy="283" r="2.5" fill="#e2e2e2" opacity=".7" d="m396.93 281.24 5.48 1.1-4.17 3.73z"/></g><g class="key-Mozambique"><circle cx="4" cy="417" r="1.5" fill="#e2e2e2" opacity=".7"/><path stroke-width="1" opacity=".7" stroke="#ccc" fill="none" stroke-linecap="butt" d="m4 417 145-59"/><path cx="149" cy="358" r="2.5" fill="#e2e2e2" opacity=".7" d="m145.74 356.63 5.58.43-3.7 4.2z"/></g><g class="key-Nepal"><circle cx="181" cy="504" r="1.5" fill="#e2e2e2" opacity=".7"/><path stroke-width="1" opacity=".7" stroke="#ccc" fill="none" stroke-linecap="butt" d="m181 504 122-155"/><path cx="303" cy="349" r="2.5" fill="#e2e2e2" opacity=".7" d="m299.49 349.42 5.06-2.38-1.13 5.47z"/></g><g class="key-Netherlands"><circle cx="629" cy="154" r="1.5" fill="#e2e2e2" opacity=".7"/><path stroke-width="1" opacity=".7" stroke="#ccc" fill="none" stroke-linecap="butt" d="m629 154 61 27"/><path cx="690" cy="181" r="2.5" fill="#e2e2e2" opacity=".7" d="m688.73 177.7 3.56 4.31-5.59.26z"/></g><g class="key-New-Zealand"><circle cx="591" cy="189" r="1.5" fill="#e2e2e2" opacity=".7"/><path stroke-width="1" opacity=".7" stroke="#ccc" fill="none" stroke-linecap="butt" d="m591 189 61-2"/><path cx="652" cy="187" r="2.5" fill="#e2e2e2" opacity=".7" d="m649.42 184.58 5.08 2.34-4.92 2.66z"/></g><g class="key-Nicaragua"><circle cx="290" cy="358" r="1.5" fill="#e2e2e2" opacity=".7"/><path stroke-width="1" opacity=".7" stroke="#ccc" fill="none" stroke-linecap="butt" d="m290 358 73-33"/><path cx="363" cy="325" r="2.5" fill="#e2e2e2" opacity=".7" d="m359.7 323.75 5.58.22-3.53 4.34z"/></g><g class="key-Oman"><circle cx="583" cy="198" r="1.5" fill="#e2e2e2" opacity=".7"/><path stroke-width="1" opacity=".7" stroke="#ccc" fill="none" stroke-linecap="butt" d="m583 198 10-45"/><path cx="593" cy="153" r="2.5" fill="#e2e2e2" opacity=".7" d="m590.02 154.9 3.52-4.34 1.36 5.42z"/></g><g class="key-Panama"><circle cx="453" cy="314" r="1.5" fill="#e2e2e2" opacity=".7"/><path stroke-width="1" opacity=".7" stroke="#ccc" fill="none" stroke-linecap="butt" d="m453 314 152-107"/><path cx="605" cy="207" r="2.5" fill="#e2e2e2" opacity=".7" d="m601.52 206.4 5.52-.84-2.65 4.92z"/></g><g class="key-Paraguay"><circle cx="419" cy="332" r="1.5" fill="#e2e2e2" opacity=".7"/><path stroke-width="1" opacity=".7" stroke="#ccc" fill="none" stroke-linecap="butt" d="m419 332 60-41"/><path cx="479" cy="291" r="2.5" fill="#e2e2e2" opacity=".7" d="m475.53 290.35 5.53-.76-2.71 4.88z"/></g><g class="key-Peru"><circle cx="350" cy="319" r="1.5" fill="#e2e2e2" opacity=".7"/><path stroke-width="1" opacity=".7" stroke="#ccc" fill="none" stroke-linecap="butt" d="m350 319 128-39"/><path cx="478" cy="280" r="2.5" fill="#e2e2e2" opacity=".7" d="m474.88 278.34 5.51.93-4.05 3.85z"/></g><g class="key-Poland"><circle cx="461" cy="184" r="1.5" fill="#e2e2e2" opacity=".7"/><path stroke-width="1" opacity=".7" stroke="#ccc" fill="none" stroke-linecap="butt" d="m461 184 147 5"/><path cx="608" cy="189" r="2.5" fill="#e2e2e2" opacity=".7" d="m605.59 186.42 4.9 2.66-5.07 2.33z"/></g><g class="key-Portugal"><circle cx="566" cy="216" r="1.5" fill="#e2e2e2" opacity=".7"/><path stroke-width="1" opacity=".7" stroke="#ccc" fill="none" stroke-linecap="butt" d="m566 216 53-3"/><path cx="619" cy="213" r="2.5" fill="#e2e2e2" opacity=".7" d="m616.36 210.65 5.14 2.2-4.85 2.79z"/></g><g class="key-Romania"><circle cx="484" cy="200" r="1.5" fill="#e2e2e2" opacity=".7"/><path stroke-width="1" opacity=".7" stroke="#ccc" fill="none" stroke-linecap="butt" d="m484 200 109 33"/><path cx="593" cy="233" r="2.5" fill="#e2e2e2" opacity=".7" d="m591.33 229.88 4.06 3.84-5.5.95z"/></g><g class="key-Rwanda"><circle cx="103" cy="497" r="1.5" fill="#e2e2e2" opacity=".7"/><path stroke-width="1" opacity=".7" stroke="#ccc" fill="none" stroke-linecap="butt" d="m103 497 115-13"/><path cx="218" cy="484" r="2.5" fill="#e2e2e2" opacity=".7" d="m215.24 481.8 5.24 1.92-4.68 3.04z"/></g><g class="key-Saudi-Arabia"><circle cx="647" cy="169" r="1.5" fill="#e2e2e2" opacity=".7"/><path stroke-width="1" opacity=".7" stroke="#ccc" fill="none" stroke-linecap="butt" d="m647 169 20-33"/><path cx="667" cy="136" r="2.5" fill="#e2e2e2" opacity=".7" d="m663.57 136.84 4.73-2.98-.46 5.57z"/></g><g class="key-Senegal"><circle cx="242" cy="376" r="1.5" fill="#e2e2e2" opacity=".7"/><path stroke-width="1" opacity=".7" stroke="#ccc" fill="none" stroke-linecap="butt" d="m242 376 42-26"/><path cx="284" cy="350" r="2.5" fill="#e2e2e2" opacity=".7" d="m280.56 349.19 5.57-.5-2.94 4.75z"/></g><g class="key-Singapore"><circle cx="632" cy="117" r="1.5" fill="#e2e2e2" opacity=".7"/><path stroke-width="1" opacity=".7" stroke="#ccc" fill="none" stroke-linecap="butt" d="m632 117 139 14"/><path cx="771" cy="131" r="2.5" fill="#e2e2e2" opacity=".7" d="m768.76 128.26 4.73 3-5.23 1.98z"/></g><g class="key-South-Africa"><circle cx="447" cy="208" r="1.5" fill="#e2e2e2" opacity=".7"/><path stroke-width="1" opacity=".7" stroke="#ccc" fill="none" stroke-linecap="butt" d="m447 208 29 1"/><path cx="476" cy="209" r="2.5" fill="#e2e2e2" opacity=".7" d="m473.59 206.42 4.9 2.67-5.07 2.32z"/></g><g class="key-South-Korea"><circle cx="477" cy="193" r="1.5" fill="#e2e2e2" opacity=".7"/><path stroke-width="1" opacity=".7" stroke="#ccc" fill="none" stroke-linecap="butt" d="m477 193 172-39"/><path cx="649" cy="154" r="2.5" fill="#e2e2e2" opacity=".7" d="m646 152.11 5.44 1.34-4.33 3.54z"/></g><g class="key-Spain"><circle cx="588" cy="199" r="1.5" fill="#e2e2e2" opacity=".7"/><path stroke-width="1" opacity=".7" stroke="#ccc" fill="none" stroke-linecap="butt" d="m588 199 55 6"/><path cx="643" cy="205" r="2.5" fill="#e2e2e2" opacity=".7" d="m640.79 202.24 4.7 3.03-5.25 1.94z"/></g><g class="key-Sri-Lanka"><circle cx="307" cy="391" r="1.5" fill="#e2e2e2" opacity=".7"/><path stroke-width="1" opacity=".7" stroke="#ccc" fill="none" stroke-linecap="butt" d="m307 391 172-95"/><path cx="479" cy="296" r="2.5" fill="#e2e2e2" opacity=".7" d="m475.6 295.02 5.59-.23-3.17 4.6z"/></g><g class="key-Sweden"><circle cx="619" cy="174" r="1.5" fill="#e2e2e2" opacity=".7"/><path stroke-width="1" opacity=".7" stroke="#ccc" fill="none" stroke-linecap="butt" d="m619 174 62 22"/><path cx="681" cy="196" r="2.5" fill="#e2e2e2" opacity=".7" d="m679.48 192.8 3.88 4.04-5.55.68z"/></g><g class="key-Switzerland"><circle cx="691" cy="158" r="1.5" fill="#e2e2e2" opacity=".7"/><path stroke-width="1" opacity=".7" stroke="#ccc" fill="none" stroke-linecap="butt" d="m691 158 33-7"/><path cx="724" cy="151" r="2.5" fill="#e2e2e2" opacity=".7" d="m721.04 149.07 5.4 1.41-4.37 3.48z"/></g><g class="key-Tanzania"><circle cx="160" cy="454" r="1.5" fill="#e2e2e2" opacity=".7"/><path stroke-width="1" opacity=".7" stroke="#ccc" fill="none" stroke-linecap="butt" d="m160 454 89-65"/><path cx="249" cy="389" r="2.5" fill="#e2e2e2" opacity=".7" d="m245.5 388.46 5.52-.93-2.56 4.96z"/></g><g class="key-Thailand"><circle cx="394" cy="275" r="1.5" fill="#e2e2e2" opacity=".7"/><path stroke-width="1" opacity=".7" stroke="#ccc" fill="none" stroke-linecap="butt" d="m394 275 134-44"/><path cx="528" cy="231" r="2.5" fill="#e2e2e2" opacity=".7" d="m524.84 229.4 5.54.82-3.98 3.94z"/></g><g class="key-Togo"><circle cx="195" cy="396" r="1.5" fill="#e2e2e2" opacity=".7"/><path stroke-width="1" opacity=".7" stroke="#ccc" fill="none" stroke-linecap="butt" d="m195 396 21-71"/><path cx="216" cy="325" r="2.5" fill="#e2e2e2" opacity=".7" d="m212.9 326.69 3.8-4.09.99 5.5z"/></g><g class="key-Trinidad-and-Tobago"><circle cx="444" cy="176" r="1.5" fill="#e2e2e2" opacity=".7"/><path stroke-width="1" opacity=".7" stroke="#ccc" fill="none" stroke-linecap="butt" d="m444 176 137-42"/><path cx="581" cy="134" r="2.5" fill="#e2e2e2" opacity=".7" d="m577.88 132.34 5.51.93-4.05 3.85z"/></g><g class="key-Tunisia"><circle cx="355" cy="280" r="1.5" fill="#e2e2e2" opacity=".7"/><path stroke-width="1" opacity=".7" stroke="#ccc" fill="none" stroke-linecap="butt" d="m355 280 98-14"/><path cx="453" cy="266" r="2.5" fill="#e2e2e2" opacity=".7" d="m450.17 263.88 5.3 1.77-4.6 3.18z"/></g><g class="key-Turkey"><circle cx="476" cy="234" r="1.5" fill="#e2e2e2" opacity=".7"/><path stroke-width="1" opacity=".7" stroke="#ccc" fill="none" stroke-linecap="butt" d="m476 234 116-18"/><path cx="592" cy="216" r="2.5" fill="#e2e2e2" opacity=".7" d="m589.15 213.91 5.32 1.7-4.56 3.24z"/></g><g class="key-Uganda"><circle cx="98" cy="484" r="1.5" fill="#e2e2e2" opacity=".7"/><path stroke-width="1" opacity=".7" stroke="#ccc" fill="none" stroke-linecap="butt" d="m98 484 122-49"/><path cx="220" cy="435" r="2.5" fill="#e2e2e2" opacity=".7" d="m216.75 433.61 5.57.46-3.7 4.18z"/></g><g class="key-Ukraine"><circle cx="508" cy="175" r="1.5" fill="#e2e2e2" opacity=".7"/><path stroke-width="1" opacity=".7" stroke="#ccc" fill="none" stroke-linecap="butt" d="m508 175-35 44"/><path cx="473" cy="219" r="2.5" fill="#e2e2e2" opacity=".7" d="m476.51 218.6-5.07 2.36 1.16-5.47z"/></g><g class="key-United-Arab-Emirates"><circle cx="789" cy="100" r="1.5" fill="#e2e2e2" opacity=".7"/><path stroke-width="1" opacity=".7" stroke="#ccc" fill="none" stroke-linecap="butt" d="m789 100-73 19"/><path cx="716" cy="119" r="2.5" fill="#e2e2e2" opacity=".7" d="m719.05 120.79-5.47-1.16 4.21-3.68z"/></g><g class="key-United-Kingdom"><circle cx="603" cy="163" r="1.5" fill="#e2e2e2" opacity=".7"/><path stroke-width="1" opacity=".7" stroke="#ccc" fill="none" stroke-linecap="butt" d="m603 163 59 25"/><path cx="662" cy="188" r="2.5" fill="#e2e2e2" opacity=".7" d="m660.67 184.72 3.63 4.26-5.58.35z"/></g><g class="key-Uruguay"><circle cx="457" cy="294" r="1.5" fill="#e2e2e2" opacity=".7"/><path stroke-width="1" opacity=".7" stroke="#ccc" fill="none" stroke-linecap="butt" d="m457 294 106-49"/><path cx="563" cy="245" r="2.5" fill="#e2e2e2" opacity=".7" d="m559.68 243.78 5.59.17-3.49 4.37z"/></g><g class="key-Vietnam"><circle cx="186" cy="395" r="1.5" fill="#e2e2e2" opacity=".7"/><path stroke-width="1" opacity=".7" stroke="#ccc" fill="none" stroke-linecap="butt" d="m186 395 217-121"/><path cx="403" cy="274" r="2.5" fill="#e2e2e2" opacity=".7" d="m399.6 273.03 5.58-.25-3.15 4.62z"/></g><g class="key-Zambia"><circle cx="225" cy="396" r="1.5" fill="#e2e2e2" opacity=".7"/><path stroke-width="1" opacity=".7" stroke="#ccc" fill="none" stroke-linecap="butt" d="m225 396 68-36"/><path cx="293" cy="360" r="2.5" fill="#e2e2e2" opacity=".7" d="m289.62 358.96 5.59-.13-3.25 4.55z"/></g><g class="key-Zimbabwe"><circle cx="296" cy="289" r="1.5" fill="#e2e2e2" opacity=".7"/><path stroke-width="1" opacity=".7" stroke="#ccc" fill="none" stroke-linecap="butt" d="m296 289-11 43"/><path cx="285" cy="332" r="2.5" fill="#e2e2e2" opacity=".7" d="m288.04 330.2-3.66 4.22-1.18-5.46z"/></g><g class="key-Hungary"><circle cx="514" cy="189" r="1.5" fill="#e2e2e2" opacity=".7"/><path stroke-width="1" opacity=".7" stroke="#ccc" fill="none" stroke-linecap="butt" d="m514 189 92 9"/><path cx="606" cy="198" r="2.5" fill="#e2e2e2" opacity=".7" d="m603.76 195.27 4.73 2.97-5.22 2z"/></g><g class="key-Namibia"><circle cx="375" cy="346" r="1.5" fill="#e2e2e2" opacity=".7"/><path stroke-width="1" opacity=".7" stroke="#ccc" fill="none" stroke-linecap="butt" d="m375 346 69-107"/><path cx="444" cy="239" r="2.5" fill="#e2e2e2" opacity=".7" d="m440.54 239.75 4.81-2.85-.6 5.56z"/></g><g class="key-Slovakia"><circle cx="465" cy="171" r="1.5" fill="#e2e2e2" opacity=".7"/><path stroke-width="1" opacity=".7" stroke="#ccc" fill="none" stroke-linecap="butt" d="m465 171 141 11"/><path cx="606" cy="182" r="2.5" fill="#e2e2e2" opacity=".7" d="m603.7 179.31 4.8 2.88-5.19 2.1z"/></g><g class="key-Cambodia"><circle cx="194" cy="429" r="1.5" fill="#e2e2e2" opacity=".7"/><path stroke-width="1" opacity=".7" stroke="#ccc" fill="none" stroke-linecap="butt" d="m194 429 123-117"/><path cx="317" cy="312" r="2.5" fill="#e2e2e2" opacity=".7" d="m313.47 311.91 5.34-1.63-1.9 5.25z"/></g><g class="key-Croatia"><circle cx="501" cy="231" r="1.5" fill="#e2e2e2" opacity=".7"/><path stroke-width="1" opacity=".7" stroke="#ccc" fill="none" stroke-linecap="butt" d="m501 231 89-13"/><path cx="590" cy="218" r="2.5" fill="#e2e2e2" opacity=".7" d="m587.16 215.89 5.31 1.75-4.58 3.2z"/></g><g class="key-Estonia"><circle cx="478" cy="168" r="1.5" fill="#e2e2e2" opacity=".7"/><path stroke-width="1" opacity=".7" stroke="#ccc" fill="none" stroke-linecap="butt" d="m478 168 146-15"/><path cx="624" cy="153" r="2.5" fill="#e2e2e2" opacity=".7" d="m621.26 150.77 5.23 1.97-4.72 3z"/></g><g class="key-Israel"><circle cx="592" cy="160" r="1.5" fill="#e2e2e2" opacity=".7"/><path stroke-width="1" opacity=".7" stroke="#ccc" fill="none" stroke-linecap="butt" d="m592 160 48 16"/><path cx="640" cy="176" r="2.5" fill="#e2e2e2" opacity=".7" d="m638.42 172.84 3.95 3.95-5.53.8z"/></g><g class="key-Kuwait"><circle cx="709" cy="97" r="1.5" fill="#e2e2e2" opacity=".7"/><path stroke-width="1" opacity=".7" stroke="#ccc" fill="none" stroke-linecap="butt" d="m709 97-34 22"/><path cx="675" cy="119" r="2.5" fill="#e2e2e2" opacity=".7" d="m678.46 119.74-5.56.62 2.84-4.82z"/></g><g class="key-Latvia"><circle cx="436" cy="220" r="1.5" fill="#e2e2e2" opacity=".7"/><path stroke-width="1" opacity=".7" stroke="#ccc" fill="none" stroke-linecap="butt" d="m436 220 165-22"/><path cx="601" cy="198" r="2.5" fill="#e2e2e2" opacity=".7" d="m598.2 195.85 5.28 1.82-4.63 3.14z"/></g><g class="key-Lithuania"><circle cx="452" cy="193" r="1.5" fill="#e2e2e2" opacity=".7"/><path stroke-width="1" opacity=".7" stroke="#ccc" fill="none" stroke-linecap="butt" d="m452 193 173-6"/><path cx="625" cy="187" r="2.5" fill="#e2e2e2" opacity=".7" d="m622.41 184.59 5.09 2.32-4.91 2.68z"/></g><g class="key-Slovenia"><circle cx="553" cy="179" r="1.5" fill="#e2e2e2" opacity=".7"/><path stroke-width="1" opacity=".7" stroke="#ccc" fill="none" stroke-linecap="butt" d="m553 179 81 2"/><path cx="634" cy="181" r="2.5" fill="#e2e2e2" opacity=".7" d="m631.56 178.44 4.94 2.62-5.06 2.38z"/></g><g class="key-Canada"><circle cx="619" cy="134" r="1.5" fill="#e2e2e2" opacity=".7"/><path stroke-width="1" opacity=".7" stroke="#ccc" fill="none" stroke-linecap="butt" d="m619 134 52 9"/><path cx="671" cy="143" r="2.5" fill="#e2e2e2" opacity=".7" d="m668.96 140.11 4.5 3.32-5.35 1.6z"/></g><g class="key-Qatar"><circle cx="753" cy="107" r="1.5" fill="#e2e2e2" opacity=".7"/><path stroke-width="1" opacity=".7" stroke="#ccc" fill="none" stroke-linecap="butt" d="m753 107 7 6"/><path cx="760" cy="113" r="2.5" fill="#e2e2e2" opacity=".7" d="m759.73 109.47 2.17 5.16-5.43-1.36z"/></g><g class="key-Norway"><circle cx="697" cy="175" r="1.5" fill="#e2e2e2" opacity=".7"/><path stroke-width="1" opacity=".7" stroke="#ccc" fill="none" stroke-linecap="butt" d="m697 175 13 5"/><path cx="710" cy="180" r="2.5" fill="#e2e2e2" opacity=".7" d="m708.56 176.77 3.77 4.13-5.56.54z"/></g><g class="key-Bangladesh"><path stroke-width="2.5" opacity="1" stroke="#2D8587" fill="none" stroke-linecap="butt" d="m172 438 154-87"/><circle cx="172" cy="438" r="2.25" fill="#2D8587" opacity="1" stroke="#2D8587" stroke-opacity=".6"/><path cx="326" cy="351" r="4" fill="#2D8587" opacity="1" d="m320.55 349.48 8.93-.45-5 7.42z"/></g><g class="key-Brazil"><path stroke-width="2.5" opacity="1" stroke="#932834" fill="none" stroke-linecap="butt" d="m450 295 48-26"/><circle cx="450" cy="295" r="2.25" fill="#932834" opacity="1" stroke="#932834" stroke-opacity=".6"/><path cx="498" cy="269" r="4" fill="#932834" opacity="1" d="m492.58 267.39 8.94-.3-5.13 7.33z"/></g><g class="key-China"><path stroke-width="2.5" opacity="1" stroke="#2D8587" fill="none" stroke-linecap="butt" d="m163 282 340-78"/><circle cx="163" cy="282" r="2.25" fill="#2D8587" opacity="1" stroke="#2D8587" stroke-opacity=".6"/><path cx="503" cy="204" r="4" fill="#2D8587" opacity="1" d="m498.2 201 8.7 2.1-6.9 5.7z"/></g><g class="key-Egypt"><path stroke-width="2.5" opacity="1" stroke="#923E8B" fill="none" stroke-linecap="butt" d="m371 300 90-36"/><circle cx="371" cy="300" r="2.25" fill="#923E8B" opacity="1" stroke="#923E8B" stroke-opacity=".6"/><path cx="461" cy="264" r="4" fill="#923E8B" opacity="1" d="m455.8 261.77 8.91.74-5.94 6.69z"/></g><g class="key-Ethiopia"><path stroke-width="2.5" opacity="1" stroke="#923E8B" fill="none" stroke-linecap="butt" d="m74 489 145-58"/><circle cx="74" cy="489" r="2.25" fill="#923E8B" opacity="1" stroke="#923E8B" stroke-opacity=".6"/><path cx="219" cy="431" r="4" fill="#923E8B" opacity="1" d="m213.8 428.77 8.91.74-5.94 6.69z"/></g><g class="key-India"><path stroke-width="2.5" opacity="1" stroke="#2D8587" fill="none" stroke-linecap="butt" d="m197 347 184-59"/><circle cx="197" cy="347" r="2.25" fill="#2D8587" opacity="1" stroke="#2D8587" stroke-opacity=".6"/><path cx="381" cy="288" r="4" fill="#2D8587" opacity="1" d="m375.97 285.41 8.84 1.37-6.4 6.25z"/></g><g class="key-Indonesia"><path stroke-width="2.5" opacity="1" stroke="#2D8587" fill="none" stroke-linecap="butt" d="m329 340 132-68"/><circle cx="329" cy="340" r="2.25" fill="#2D8587" opacity="1" stroke="#2D8587" stroke-opacity=".6"/><path cx="461" cy="272" r="4" fill="#2D8587" opacity="1" d="m455.61 270.28 8.95-.11-5.28 7.22z"/></g><g class="key-Japan"><path stroke-width="2.5" opacity="1" stroke="#2D8587" fill="none" stroke-linecap="butt" d="m611 170 35 2"/><circle cx="611" cy="170" r="2.25" fill="#2D8587" opacity="1" stroke="#2D8587" stroke-opacity=".6"/><path cx="646" cy="172" r="4" fill="#2D8587" opacity="1" d="m642.23 167.78 7.76 4.45-8.21 3.54z"/></g><g class="key-Mexico"><path stroke-width="2.5" opacity="1" stroke="#E04E4B" fill="none" stroke-linecap="butt" d="m501 236 41 2"/><circle cx="501" cy="236" r="2.25" fill="#E04E4B" opacity="1" stroke="#E04E4B" stroke-opacity=".6"/><path cx="542" cy="238" r="4" fill="#E04E4B" opacity="1" d="m538.2 233.81 7.8 4.38-8.19 3.61z"/></g><g class="key-Nigeria"><path stroke-width="2.5" opacity="1" stroke="#923E8B" fill="none" stroke-linecap="butt" d="m282 385 66-34"/><circle cx="282" cy="385" r="2.25" fill="#923E8B" opacity="1" stroke="#923E8B" stroke-opacity=".6"/><path cx="348" cy="351" r="4" fill="#923E8B" opacity="1" d="m342.61 349.28 8.95-.11-5.28 7.22z"/></g><g class="key-Pakistan"><path stroke-width="2.5" opacity="1" stroke="#2D8587" fill="none" stroke-linecap="butt" d="m266 350 70-38"/><circle cx="266" cy="350" r="2.25" fill="#2D8587" opacity="1" stroke="#2D8587" stroke-opacity=".6"/><path cx="336" cy="312" r="4" fill="#2D8587" opacity="1" d="m330.58 310.4 8.94-.3-5.13 7.32z"/></g><g class="key-Philippines"><path stroke-width="2.5" opacity="1" stroke="#2D8587" fill="none" stroke-linecap="butt" d="m319 325 101-26"/><circle cx="319" cy="325" r="2.25" fill="#2D8587" opacity="1" stroke="#2D8587" stroke-opacity=".6"/><path cx="420" cy="299" r="4" fill="#2D8587" opacity="1" d="m415.13 296.12 8.74 1.88-6.75 5.87z"/></g><g class="key-Russia"><path stroke-width="2.5" opacity="1" stroke="#4C5C78" fill="none" stroke-linecap="butt" d="m553 152 31 24"/><circle cx="553" cy="152" r="2.25" fill="#4C5C78" opacity="1" stroke="#4C5C78" stroke-opacity=".6"/><path cx="584" cy="176" r="4" fill="#4C5C78" opacity="1" d="m583.29 170.39 3.87 8.06-8.77-1.74z"/></g><g class="key-United-States"><path stroke-width="2.5" opacity="1" stroke="#E04E4B" fill="none" stroke-linecap="butt" d="m643 128 61 9"/><circle cx="643" cy="128" r="2.25" fill="#E04E4B" opacity="1" stroke="#E04E4B" stroke-opacity=".6"/><path cx="704" cy="137" r="4" fill="#E04E4B" opacity="1" d="m700.63 132.46 7.33 5.12-8.5 2.8z"/></g><text x="149.49" y="444.96" font-size="9" font-weight="400" fill="#2D8587" style="fill:#fff;stroke:#fff;stroke-linecap:round;stroke-linejoin:round;stroke-width:.25em">1990</text><text x="149.49" y="444.96" font-size="9" font-weight="400" fill="#2D8587">1990</text><text x="330.35" y="348.54" font-size="13.65" font-weight="700" fill="#2D8587" style="fill:#fff;stroke:#fff;stroke-linecap:round;stroke-linejoin:round;stroke-width:.25em">Bangladesh</text><text x="330.35" y="348.54" font-size="13.65" font-weight="700" fill="#2D8587">Bangladesh</text><text x="502.4" y="266.62" font-size="13.65" font-weight="700" fill="#932834" style="fill:#fff;stroke:#fff;stroke-linecap:round;stroke-linejoin:round;stroke-width:.25em">Brazil</text><text x="502.4" y="266.62" font-size="13.65" font-weight="700" fill="#932834">Brazil</text><text x="139.97" y="287.62" font-size="9" font-weight="400" fill="#2D8587" style="fill:#fff;stroke:#fff;stroke-linecap:round;stroke-linejoin:round;stroke-width:.25em">1990</text><text x="139.97" y="287.62" font-size="9" font-weight="400" fill="#2D8587">1990</text><text x="507.87" y="202.88" font-size="13.65" font-weight="700" fill="#2D8587" style="fill:#fff;stroke:#fff;stroke-linecap:round;stroke-linejoin:round;stroke-width:.25em">China</text><text x="507.87" y="202.88" font-size="13.65" font-weight="700" fill="#2D8587">China</text><text x="465.64" y="262.14" font-size="13.65" font-weight="700" fill="#923E8B" style="fill:#fff;stroke:#fff;stroke-linecap:round;stroke-linejoin:round;stroke-width:.25em">Egypt</text><text x="465.64" y="262.14" font-size="13.65" font-weight="700" fill="#923E8B">Egypt</text><text x="71.36" y="489" font-size="9" font-weight="400" fill="#923E8B" style="fill:#fff;stroke:#fff;stroke-linecap:round;stroke-linejoin:round;stroke-width:.25em">1990</text><text x="71.36" y="489" font-size="9" font-weight="400" fill="#923E8B">1990</text><text x="223.64" y="429.14" font-size="13.65" font-weight="700" fill="#923E8B" style="fill:#fff;stroke:#fff;stroke-linecap:round;stroke-linejoin:round;stroke-width:.25em">Ethiopia</text><text x="223.64" y="429.14" font-size="13.65" font-weight="700" fill="#923E8B">Ethiopia</text><text x="174.08" y="353.03" font-size="9" font-weight="400" fill="#2D8587" style="fill:#fff;stroke:#fff;stroke-linecap:round;stroke-linejoin:round;stroke-width:.25em">1990</text><text x="174.08" y="353.03" font-size="9" font-weight="400" fill="#2D8587">1990</text><text x="385.76" y="286.47" font-size="13.65" font-weight="700" fill="#2D8587" style="fill:#fff;stroke:#fff;stroke-linecap:round;stroke-linejoin:round;stroke-width:.25em">India</text><text x="385.76" y="286.47" font-size="13.65" font-weight="700" fill="#2D8587">India</text><text x="650.99" y="179.11" font-size="13.65" font-weight="700" fill="#2D8587" style="fill:#fff;stroke:#fff;stroke-linecap:round;stroke-linejoin:round;stroke-width:.25em">Japan</text><text x="650.99" y="179.11" font-size="13.65" font-weight="700" fill="#2D8587">Japan</text><text x="477.85" y="235.76" font-size="9" font-weight="400" fill="#E04E4B" style="fill:#fff;stroke:#fff;stroke-linecap:round;stroke-linejoin:round;stroke-width:.25em">1990</text><text x="477.85" y="235.76" font-size="9" font-weight="400" fill="#E04E4B">1990</text><text x="546.99" y="245.07" font-size="13.65" font-weight="700" fill="#E04E4B" style="fill:#fff;stroke:#fff;stroke-linecap:round;stroke-linejoin:round;stroke-width:.25em">Mexico</text><text x="546.99" y="245.07" font-size="13.65" font-weight="700" fill="#E04E4B">Mexico</text><text x="259.4" y="391.79" font-size="9" font-weight="400" fill="#923E8B" style="fill:#fff;stroke:#fff;stroke-linecap:round;stroke-linejoin:round;stroke-width:.25em">1990</text><text x="259.4" y="391.79" font-size="9" font-weight="400" fill="#923E8B">1990</text><text x="243.45" y="356.89" font-size="9" font-weight="400" fill="#2D8587" style="fill:#fff;stroke:#fff;stroke-linecap:round;stroke-linejoin:round;stroke-width:.25em">1990</text><text x="243.45" y="356.89" font-size="9" font-weight="400" fill="#2D8587">1990</text><text x="340.39" y="309.61" font-size="13.65" font-weight="700" fill="#2D8587" style="fill:#fff;stroke:#fff;stroke-linecap:round;stroke-linejoin:round;stroke-width:.25em">Pakistan</text><text x="340.39" y="309.61" font-size="13.65" font-weight="700" fill="#2D8587">Pakistan</text><text x="296" y="330.75" font-size="9" font-weight="400" fill="#2D8587" style="fill:#fff;stroke:#fff;stroke-linecap:round;stroke-linejoin:round;stroke-width:.25em">1990</text><text x="296" y="330.75" font-size="9" font-weight="400" fill="#2D8587">1990</text><text x="424.84" y="297.75" font-size="13.65" font-weight="700" fill="#2D8587" style="fill:#fff;stroke:#fff;stroke-linecap:round;stroke-linejoin:round;stroke-width:.25em">Philippines</text><text x="424.84" y="297.75" font-size="13.65" font-weight="700" fill="#2D8587">Philippines</text><text x="530.89" y="148.94" font-size="9" font-weight="400" fill="#4C5C78" style="fill:#fff;stroke:#fff;stroke-linecap:round;stroke-linejoin:round;stroke-width:.25em">1990</text><text x="530.89" y="148.94" font-size="9" font-weight="400" fill="#4C5C78">1990</text><text x="587.95" y="185.89" font-size="13.65" font-weight="700" fill="#4C5C78" style="fill:#fff;stroke:#fff;stroke-linecap:round;stroke-linejoin:round;stroke-width:.25em">Russia</text><text x="587.95" y="185.89" font-size="13.65" font-weight="700" fill="#4C5C78">Russia</text><text x="626.64" y="144.55" font-size="13.65" font-weight="700" fill="#E04E4B" style="fill:#fff;stroke:#fff;stroke-linecap:round;stroke-linejoin:round;stroke-width:.25em">United States</text><text x="626.64" y="144.55" font-size="13.65" font-weight="700" fill="#E04E4B">United States</text></g><g class="ScatterColorLegend clickable" style="cursor:pointer"><g class="legendMark"><path fill="#923E8B" d="M738.09 124.3h9v9h-9z"/><text font-size="12.6" x="752.1" y="132.6"><tspan x="752.09" y="132.58">Africa</tspan></text></g><g class="legendMark"><path fill="#2D8587" d="M738.09 141.9h9v9h-9z"/><text font-size="12.6" x="752.1" y="150.2"><tspan x="752.09" y="150.18">Asia</tspan></text></g><g class="legendMark"><path fill="#4C5C78" d="M738.09 159.5h9v9h-9z"/><text font-size="12.6" x="752.1" y="167.8"><tspan x="752.09" y="167.78">Europe</tspan></text></g><g class="legendMark"><path fill="#E04E4B" d="M738.09 177.1h9v9h-9z"/><text font-size="12.6" x="752.1" y="185.4"><tspan x="752.09" y="185.38">North America</tspan></text></g><g class="legendMark" fill="#ccc"><path d="M738.09 194.7h9v9h-9z"/><text font-size="12.6" x="752.1" y="203"><tspan x="752.09" y="202.98">Oceania</tspan></text></g><g class="legendMark"><path fill="#932834" d="M738.09 212.3h9v9h-9z"/><text font-size="12.6" x="752.1" y="220.6"><tspan x="752.09" y="220.58">South America</tspan></text></g></g><path stroke="#ccc" d="M738.09 229.1H830"/><g class="clickable"><g class="ConnectedScatterLegend"><text font-size="12.6" x="738.1" y="246.2" fill="#333"><tspan x="738.09" y="246.18">1990</tspan></text><text font-size="12.6" x="806.8" y="246.2" fill="#333"><tspan x="806.78" y="246.18">2018</tspan></text><path stroke="#666" stroke-width="1" d="M771.32 241.9h30.46"/><circle cx="771.32" cy="241.9" r="2" fill="#666" stroke="#ccc" stroke-width=".2"/><path cx="801.78" cy="241.9" r="3" fill="#666" stroke="#ccc" stroke-width=".2" d="m798.78 238.9 6 3-6 3z"/></g></g></g><g class="SourcesFooter" style="fill:#777"><g style="fill:#777"><text font-size="12.6" x="15" y="567.9"><tspan x="15" y="567.88">Source: Our World in Data based on the Global Carbon Project, Data compiled from multiple sources by World Bank</tspan></text></g><text font-size="12.6" x="15" y="582.5"><tspan x="15" y="582.48"><a target="_blank" style="fill:#777" href="https://ourworldindata.org/co2-and-other-greenhouse-gas-emissions">OurWorldInData.org/co2-and-other-greenhouse-gas-emissions</a> • <a style="fill:#777" class="cclogo" href="http://creativecommons.org/licenses/by/4.0/deed.en_US" target="_blank">CC BY</a></tspan></text></g></svg>