<svg xmlns="http://www.w3.org/2000/svg" version="1.1" style="background-color:#fff;-webkit-font-smoothing:antialiased" width="850" height="600" viewBox="0 0 850 600" font-family="Lato,'Helvetica Neue',Helvetica,Arial,sans-serif" font-size="18" text-rendering="optimizeLegibility"><g class="HeaderView"><g transform="matrix(.29 0 0 .29 774 15)"><svg className="owidLog" width="210" height="120" viewBox="0 0 210 120" fill="none" xmlns="http://www.w3.org/2000/svg"><g clip-path="url(#clip0)"><path d="M0 0h210v107.89H0V0z" fill="#002147"/><path d="M40.98 32.25c0 2.36-.38 4.53-1.12 6.51a14.26 14.26 0 01-8.1 8.4c-1.9.78-4.02 1.17-6.34 1.17a16.6 16.6 0 01-6.33-1.17 14.31 14.31 0 01-8.08-8.4 18.29 18.29 0 01-1.12-6.51c0-2.36.38-4.53 1.12-6.5.75-1.97 1.8-3.67 3.17-5.1a14.32 14.32 0 014.9-3.34c1.92-.8 4.03-1.19 6.34-1.19 2.32 0 4.43.4 6.34 1.19 1.92.8 3.56 1.9 4.93 3.34a14.87 14.87 0 013.17 5.1 18.1 18.1 0 011.12 6.5zm-4.38 0c0-1.94-.26-3.68-.8-5.22a10.91 10.91 0 00-2.24-3.89 9.68 9.68 0 00-3.52-2.46 11.95 11.95 0 00-4.62-.86c-1.68 0-3.21.28-4.6.86a9.88 9.88 0 00-3.54 2.46 10.91 10.91 0 00-2.24 3.9c-.53 1.53-.8 3.27-.8 5.2 0 1.94.27 3.68.8 5.22a11.17 11.17 0 002.24 3.9 10.01 10.01 0 003.55 2.44c1.38.56 2.9.83 4.6.83s3.24-.27 4.61-.83a9.8 9.8 0 003.52-2.44 11.17 11.17 0 002.25-3.9c.53-1.54.8-3.28.8-5.21zm26.22-6.54V48H60.5c-.56 0-.9-.27-1.05-.81l-.31-2.4a12.45 12.45 0 01-3.26 2.6c-1.2.64-2.58.96-4.13.96-1.22 0-2.3-.2-3.24-.6a6.52 6.52 0 01-2.33-1.7 7.37 7.37 0 01-1.43-2.67c-.3-1.04-.46-2.2-.46-3.45V25.7h3.91v14.22c0 1.68.38 2.99 1.15 3.91.77.93 1.96 1.39 3.54 1.39 1.16 0 2.24-.27 3.23-.82a10.42 10.42 0 002.8-2.28V25.7h3.91zm8.61 4.47a9.94 9.94 0 012.6-3.56 5.64 5.64 0 013.76-1.3c.47 0 .92.05 1.34.15.44.1.83.27 1.17.49l-.3 2.92c-.09.37-.3.55-.66.55-.2 0-.5-.04-.9-.13a6.21 6.21 0 00-3.24.18 4.23 4.23 0 00-1.47.92c-.42.4-.81.9-1.17 1.5-.33.58-.64 1.26-.92 2.02V48H67.7V25.71h2.25c.42 0 .72.08.88.25.16.16.27.44.33.83l.26 3.39zm61.16-13.7L122.75 48h-3.82l-7.99-24.05a21.95 21.95 0 01-.42-1.58 38.36 38.36 0 01-.44 1.58L102.05 48h-3.83L88.4 16.47h3.54c.38 0 .7.1.95.29.26.2.43.43.5.73l6.52 21.9.28 1.28.29 1.46.3-1.46.38-1.27 7.41-21.91c.1-.25.26-.48.51-.69.27-.22.58-.33.95-.33h1.23c.38 0 .69.1.92.29a1.77 1.77 0 01.53.73l7.4 21.9a28.4 28.4 0 01.68 2.62 29.52 29.52 0 01.52-2.61l6.54-21.91a1.31 1.31 0 01.48-.7c.27-.21.58-.32.95-.32h3.32zm9.35 8.88c1.63 0 3.1.27 4.4.82a9.43 9.43 0 015.46 5.94c.5 1.4.74 2.98.74 4.73 0 1.76-.25 3.34-.74 4.75a9.43 9.43 0 01-5.46 5.92c-1.3.52-2.77.79-4.4.79-1.64 0-3.12-.27-4.44-.8a9.42 9.42 0 01-3.35-2.3c-.92-1-1.63-2.2-2.13-3.61-.49-1.41-.73-3-.73-4.75s.24-3.33.73-4.73c.5-1.43 1.2-2.64 2.13-3.63a9.4 9.4 0 013.35-2.31c1.32-.55 2.8-.82 4.44-.82zm0 19.89c2.2 0 3.84-.73 4.93-2.2 1.08-1.48 1.63-3.54 1.63-6.18 0-2.66-.55-4.72-1.63-6.2-1.09-1.49-2.73-2.23-4.93-2.23-1.12 0-2.09.2-2.93.57a5.71 5.71 0 00-2.06 1.65 7.5 7.5 0 00-1.24 2.67c-.26 1.04-.4 2.22-.4 3.54 0 2.64.55 4.7 1.64 6.18 1.1 1.47 2.76 2.2 4.99 2.2zm17.97-15.07a9.94 9.94 0 012.6-3.56 5.64 5.64 0 013.76-1.3c.47 0 .91.05 1.34.15.44.1.83.27 1.16.49l-.28 2.92c-.09.37-.31.55-.66.55-.2 0-.5-.04-.9-.13a6.2 6.2 0 00-3.24.18 4.23 4.23 0 00-1.47.92c-.43.4-.82.9-1.17 1.5a13.1 13.1 0 00-.92 2.02V48h-3.94V25.71h2.24c.43 0 .72.08.88.25.17.16.28.44.33.83l.27 3.39zm15.04-14.59V48h-3.92V15.6h3.92zm19.55 15.43a6.22 6.22 0 00-2.38-2.05 6.7 6.7 0 00-2.86-.6c-2.07 0-3.66.75-4.77 2.23-1.12 1.48-1.68 3.6-1.68 6.33 0 1.46.13 2.7.38 3.74a7.29 7.29 0 001.1 2.56 4.35 4.35 0 001.78 1.45c.7.3 1.5.46 2.4.46 1.29 0 2.41-.3 3.36-.88a9.6 9.6 0 002.67-2.49V31.02zm3.91-15.43V48h-2.33c-.56 0-.9-.27-1.06-.81l-.35-2.71a12.13 12.13 0 01-3.25 2.77 8.28 8.28 0 01-4.23 1.06 7.31 7.31 0 01-6.14-2.9c-.73-.96-1.3-2.15-1.69-3.57a18.35 18.35 0 01.07-9.48 11.29 11.29 0 011.89-3.7 8.7 8.7 0 017.06-3.34 7.96 7.96 0 016.12 2.62V15.59h3.91zM46.61 70.71V93H42.7V70.71h3.91zm.84-7c0 .39-.08.75-.24 1.09a2.81 2.81 0 01-1.52 1.47 2.67 2.67 0 01-2.16 0 2.9 2.9 0 01-1.45-1.47 2.67 2.67 0 010-2.16c.15-.35.35-.65.6-.9.25-.27.53-.47.85-.62a2.67 2.67 0 012.16 0c.35.15.65.35.9.62.27.25.47.55.62.9.16.34.24.7.24 1.08zm7.97 10.24c.49-.54 1-1.04 1.54-1.48a9.85 9.85 0 013.66-1.84 8.96 8.96 0 015.43.35c.94.4 1.72.97 2.33 1.71a7.36 7.36 0 011.43 2.67c.32 1.04.49 2.19.49 3.45V93h-3.94V78.81c0-1.69-.4-3-1.17-3.92-.76-.93-1.93-1.4-3.5-1.4a6.6 6.6 0 00-3.25.83c-1 .56-1.92 1.31-2.77 2.27V93h-3.94V70.71h2.35c.56 0 .9.28 1.04.82l.3 2.42zm57.7 3.3c0 2.36-.37 4.5-1.11 6.44a14.3 14.3 0 01-3.17 4.98 14.1 14.1 0 01-4.93 3.2c-1.9.76-4.02 1.13-6.33 1.13H85.8V61.47h11.77c2.31 0 4.42.39 6.33 1.15a13.8 13.8 0 018.1 8.18 17.75 17.75 0 011.12 6.45zm-4.37 0c0-1.94-.26-3.67-.8-5.2a10.94 10.94 0 00-2.23-3.87 9.57 9.57 0 00-3.53-2.42 12.23 12.23 0 00-4.61-.83h-7.5v24.62h7.5c1.7 0 3.24-.28 4.61-.84a9.7 9.7 0 003.53-2.4 10.94 10.94 0 002.24-3.87c.53-1.53.8-3.26.8-5.2zm19.8 5.72c-1.8.06-3.34.2-4.62.44-1.26.22-2.3.51-3.1.88-.8.36-1.37.8-1.74 1.3-.35.5-.53 1.05-.53 1.67 0 .58.1 1.1.3 1.52a3 3 0 00.76 1.05c.34.27.73.46 1.17.6a6.13 6.13 0 001.45.17 7.28 7.28 0 003.5-.81 11.95 11.95 0 002.82-2.2v-4.62zm-12.65-9.11a12.73 12.73 0 013.98-2.66c1.43-.59 3-.88 4.73-.88 1.25 0 2.36.2 3.33.61a6.81 6.81 0 013.94 4.38c.33 1.04.5 2.19.5 3.43V93h-1.74a1.8 1.8 0 01-.88-.18c-.2-.13-.36-.38-.48-.74l-.44-2.12-1.72 1.46a9.48 9.48 0 01-3.74 1.7c-.69.15-1.46.23-2.3.23-.87 0-1.69-.12-2.45-.35a5.34 5.34 0 01-3.34-2.93 6.64 6.64 0 01-.49-2.64c0-.88.25-1.72.73-2.53a6.33 6.33 0 012.35-2.17c1.09-.63 2.5-1.15 4.25-1.54 1.75-.41 3.89-.65 6.42-.7v-1.75c0-1.73-.37-3.03-1.12-3.91-.75-.9-1.84-1.34-3.28-1.34-.97 0-1.78.12-2.44.37-.64.23-1.2.5-1.7.81l-1.23.82c-.33.23-.67.35-1 .35-.27 0-.5-.07-.69-.2a2.1 2.1 0 01-.48-.53l-.7-1.25zm27.67 19.5c-1.76 0-3.12-.5-4.07-1.48-.94-.98-1.41-2.4-1.41-4.25V74h-2.68a.9.9 0 01-.6-.2c-.16-.14-.24-.36-.24-.66v-1.56l3.65-.46.9-6.89a.9.9 0 01.29-.52.88.88 0 01.62-.22H142v7.67h6.44V74H142v13.38c0 .94.22 1.63.68 2.09.45.45 1.04.68 1.76.68a3.21 3.21 0 001.85-.53l.55-.35c.16-.12.3-.18.41-.18.2 0 .4.13.55.38l1.15 1.87a7.45 7.45 0 01-2.44 1.5 8.53 8.53 0 01-2.95.52zm19.68-10.4c-1.8.07-3.34.21-4.62.45-1.26.22-2.3.51-3.1.88-.8.36-1.37.8-1.74 1.3-.35.5-.53 1.05-.53 1.67 0 .58.1 1.1.3 1.52a2.9 2.9 0 00.76 1.05c.34.27.73.46 1.17.6a6.13 6.13 0 001.45.17 7.3 7.3 0 003.5-.81 12.04 12.04 0 002.82-2.2v-4.62zm-12.65-9.1a12.72 12.72 0 013.99-2.66c1.42-.59 3-.88 4.72-.88 1.25 0 2.36.2 3.33.61a6.81 6.81 0 013.94 4.38c.33 1.04.5 2.19.5 3.43V93h-1.74a1.8 1.8 0 01-.88-.18c-.2-.13-.36-.38-.48-.74l-.44-2.12-1.72 1.46a9.48 9.48 0 01-3.74 1.7c-.69.15-1.46.23-2.3.23-.87 0-1.69-.12-2.45-.35a5.33 5.33 0 01-3.34-2.93 6.62 6.62 0 01-.49-2.64c0-.88.25-1.72.73-2.53a6.33 6.33 0 012.35-2.17c1.09-.63 2.5-1.15 4.25-1.54a31.2 31.2 0 016.42-.7v-1.75c0-1.73-.37-3.03-1.12-3.91-.75-.9-1.84-1.34-3.28-1.34-.97 0-1.78.12-2.44.37-.64.23-1.2.5-1.7.81l-1.22.82c-.34.23-.68.35-1.02.35-.26 0-.49-.07-.68-.2a1.88 1.88 0 01-.48-.53l-.7-1.25zM40.98 32.25c0 2.36-.38 4.53-1.12 6.51a14.26 14.26 0 01-8.1 8.4c-1.9.78-4.02 1.17-6.34 1.17a16.6 16.6 0 01-6.33-1.17 14.31 14.31 0 01-8.08-8.4 18.29 18.29 0 01-1.12-6.51c0-2.36.38-4.53 1.12-6.5.75-1.97 1.8-3.67 3.17-5.1a14.32 14.32 0 014.9-3.34c1.92-.8 4.03-1.19 6.34-1.19 2.32 0 4.43.4 6.34 1.19 1.92.8 3.56 1.9 4.93 3.34a14.87 14.87 0 013.17 5.1 18.1 18.1 0 011.12 6.5zm-4.38 0c0-1.94-.26-3.68-.8-5.22a10.91 10.91 0 00-2.24-3.89 9.68 9.68 0 00-3.52-2.46 11.95 11.95 0 00-4.62-.86c-1.68 0-3.21.28-4.6.86a9.88 9.88 0 00-3.54 2.46 10.91 10.91 0 00-2.24 3.9c-.53 1.53-.8 3.27-.8 5.2 0 1.94.27 3.68.8 5.22a11.17 11.17 0 002.24 3.9 10.01 10.01 0 003.55 2.44c1.38.56 2.9.83 4.6.83s3.24-.27 4.61-.83a9.8 9.8 0 003.52-2.44 11.17 11.17 0 002.25-3.9c.53-1.54.8-3.28.8-5.21zm26.22-6.54V48H60.5c-.56 0-.9-.27-1.05-.81l-.31-2.4a12.45 12.45 0 01-3.26 2.6c-1.2.64-2.58.96-4.13.96-1.22 0-2.3-.2-3.24-.6a6.52 6.52 0 01-2.33-1.7 7.37 7.37 0 01-1.43-2.67c-.3-1.04-.46-2.2-.46-3.45V25.7h3.91v14.22c0 1.68.38 2.99 1.15 3.91.77.93 1.96 1.39 3.54 1.39 1.16 0 2.24-.27 3.23-.82a10.42 10.42 0 002.8-2.28V25.7h3.91zm8.61 4.47a9.94 9.94 0 012.6-3.56 5.64 5.64 0 013.76-1.3c.47 0 .92.05 1.34.15.44.1.83.27 1.17.49l-.3 2.92c-.09.37-.3.55-.66.55-.2 0-.5-.04-.9-.13a6.21 6.21 0 00-3.24.18 4.23 4.23 0 00-1.47.92c-.42.4-.81.9-1.17 1.5-.33.58-.64 1.26-.92 2.02V48H67.7V25.71h2.25c.42 0 .72.08.88.25.16.16.27.44.33.83l.26 3.39zm61.16-13.7L122.75 48h-3.82l-7.99-24.05a21.95 21.95 0 01-.42-1.58 38.36 38.36 0 01-.44 1.58L102.05 48h-3.83L88.4 16.47h3.54c.38 0 .7.1.95.29.26.2.43.43.5.73l6.52 21.9.28 1.28.29 1.46.3-1.46.38-1.27 7.41-21.91c.1-.25.26-.48.51-.69.27-.22.58-.33.95-.33h1.23c.38 0 .69.1.92.29a1.77 1.77 0 01.53.73l7.4 21.9a28.4 28.4 0 01.68 2.62 29.52 29.52 0 01.52-2.61l6.54-21.91a1.31 1.31 0 01.48-.7c.27-.21.58-.32.95-.32h3.32zm9.35 8.88c1.63 0 3.1.27 4.4.82a9.43 9.43 0 015.46 5.94c.5 1.4.74 2.98.74 4.73 0 1.76-.25 3.34-.74 4.75a9.43 9.43 0 01-5.46 5.92c-1.3.52-2.77.79-4.4.79-1.64 0-3.12-.27-4.44-.8a9.42 9.42 0 01-3.35-2.3c-.92-1-1.63-2.2-2.13-3.61-.49-1.41-.73-3-.73-4.75s.24-3.33.73-4.73c.5-1.43 1.2-2.64 2.13-3.63a9.4 9.4 0 013.35-2.31c1.32-.55 2.8-.82 4.44-.82zm0 19.89c2.2 0 3.84-.73 4.93-2.2 1.08-1.48 1.63-3.54 1.63-6.18 0-2.66-.55-4.72-1.63-6.2-1.09-1.49-2.73-2.23-4.93-2.23-1.12 0-2.09.2-2.93.57a5.71 5.71 0 00-2.06 1.65 7.5 7.5 0 00-1.24 2.67c-.26 1.04-.4 2.22-.4 3.54 0 2.64.55 4.7 1.64 6.18 1.1 1.47 2.76 2.2 4.99 2.2zm17.97-15.07a9.94 9.94 0 012.6-3.56 5.64 5.64 0 013.76-1.3c.47 0 .91.05 1.34.15.44.1.83.27 1.16.49l-.28 2.92c-.09.37-.31.55-.66.55-.2 0-.5-.04-.9-.13a6.2 6.2 0 00-3.24.18 4.23 4.23 0 00-1.47.92c-.43.4-.82.9-1.17 1.5a13.1 13.1 0 00-.92 2.02V48h-3.94V25.71h2.24c.43 0 .72.08.88.25.17.16.28.44.33.83l.27 3.39zm15.04-14.59V48h-3.92V15.6h3.92zm19.55 15.43a6.22 6.22 0 00-2.38-2.05 6.7 6.7 0 00-2.86-.6c-2.07 0-3.66.75-4.77 2.23-1.12 1.48-1.68 3.6-1.68 6.33 0 1.46.13 2.7.38 3.74a7.29 7.29 0 001.1 2.56 4.35 4.35 0 001.78 1.45c.7.3 1.5.46 2.4.46 1.29 0 2.41-.3 3.36-.88a9.6 9.6 0 002.67-2.49V31.02zm3.91-15.43V48h-2.33c-.56 0-.9-.27-1.06-.81l-.35-2.71a12.13 12.13 0 01-3.25 2.77 8.28 8.28 0 01-4.23 1.06 7.31 7.31 0 01-6.14-2.9c-.73-.96-1.3-2.15-1.69-3.57a18.35 18.35 0 01.07-9.48 11.29 11.29 0 011.89-3.7 8.7 8.7 0 017.06-3.34 7.96 7.96 0 016.12 2.62V15.59h3.91zM46.61 70.71V93H42.7V70.71h3.91zm.84-7c0 .39-.08.75-.24 1.09a2.81 2.81 0 01-1.52 1.47 2.67 2.67 0 01-2.16 0 2.9 2.9 0 01-1.45-1.47 2.67 2.67 0 010-2.16c.15-.35.35-.65.6-.9.25-.27.53-.47.85-.62a2.67 2.67 0 012.16 0c.35.15.65.35.9.62.27.25.47.55.62.9.16.34.24.7.24 1.08zm7.97 10.24c.49-.54 1-1.04 1.54-1.48a9.85 9.85 0 013.66-1.84 8.96 8.96 0 015.43.35c.94.4 1.72.97 2.33 1.71a7.36 7.36 0 011.43 2.67c.32 1.04.49 2.19.49 3.45V93h-3.94V78.81c0-1.69-.4-3-1.17-3.92-.76-.93-1.93-1.4-3.5-1.4a6.6 6.6 0 00-3.25.83c-1 .56-1.92 1.31-2.77 2.27V93h-3.94V70.71h2.35c.56 0 .9.28 1.04.82l.3 2.42zm57.7 3.3c0 2.36-.37 4.5-1.11 6.44a14.3 14.3 0 01-3.17 4.98 14.1 14.1 0 01-4.93 3.2c-1.9.76-4.02 1.13-6.33 1.13H85.8V61.47h11.77c2.31 0 4.42.39 6.33 1.15a13.8 13.8 0 018.1 8.18 17.75 17.75 0 011.12 6.45zm-4.37 0c0-1.94-.26-3.67-.8-5.2a10.94 10.94 0 00-2.23-3.87 9.57 9.57 0 00-3.53-2.42 12.23 12.23 0 00-4.61-.83h-7.5v24.62h7.5c1.7 0 3.24-.28 4.61-.84a9.7 9.7 0 003.53-2.4 10.94 10.94 0 002.24-3.87c.53-1.53.8-3.26.8-5.2zm19.8 5.72c-1.8.06-3.34.2-4.62.44-1.26.22-2.3.51-3.1.88-.8.36-1.37.8-1.74 1.3-.35.5-.53 1.05-.53 1.67 0 .58.1 1.1.3 1.52a3 3 0 00.76 1.05c.34.27.73.46 1.17.6a6.13 6.13 0 001.45.17 7.28 7.28 0 003.5-.81 11.95 11.95 0 002.82-2.2v-4.62zm-12.65-9.11a12.73 12.73 0 013.98-2.66c1.43-.59 3-.88 4.73-.88 1.25 0 2.36.2 3.33.61a6.81 6.81 0 013.94 4.38c.33 1.04.5 2.19.5 3.43V93h-1.74a1.8 1.8 0 01-.88-.18c-.2-.13-.36-.38-.48-.74l-.44-2.12-1.72 1.46a9.48 9.48 0 01-3.74 1.7c-.69.15-1.46.23-2.3.23-.87 0-1.69-.12-2.45-.35a5.34 5.34 0 01-3.34-2.93 6.64 6.64 0 01-.49-2.64c0-.88.25-1.72.73-2.53a6.33 6.33 0 012.35-2.17c1.09-.63 2.5-1.15 4.25-1.54 1.75-.41 3.89-.65 6.42-.7v-1.75c0-1.73-.37-3.03-1.12-3.91-.75-.9-1.84-1.34-3.28-1.34-.97 0-1.78.12-2.44.37-.64.23-1.2.5-1.7.81l-1.23.82c-.33.23-.67.35-1 .35-.27 0-.5-.07-.69-.2a2.1 2.1 0 01-.48-.53l-.7-1.25zm27.67 19.5c-1.76 0-3.12-.5-4.07-1.48-.94-.98-1.41-2.4-1.41-4.25V74h-2.68a.9.9 0 01-.6-.2c-.16-.14-.24-.36-.24-.66v-1.56l3.65-.46.9-6.89a.9.9 0 01.29-.52.88.88 0 01.62-.22H142v7.67h6.44V74H142v13.38c0 .94.22 1.63.68 2.09.45.45 1.04.68 1.76.68a3.21 3.21 0 001.85-.53l.55-.35c.16-.12.3-.18.41-.18.2 0 .4.13.55.38l1.15 1.87a7.45 7.45 0 01-2.44 1.5 8.53 8.53 0 01-2.95.52zm19.68-10.4c-1.8.07-3.34.21-4.62.45-1.26.22-2.3.51-3.1.88-.8.36-1.37.8-1.74 1.3-.35.5-.53 1.05-.53 1.67 0 .58.1 1.1.3 1.52a2.9 2.9 0 00.76 1.05c.34.27.73.46 1.17.6a6.13 6.13 0 001.45.17 7.3 7.3 0 003.5-.81 12.04 12.04 0 002.82-2.2v-4.62zm-12.65-9.1a12.72 12.72 0 013.99-2.66c1.42-.59 3-.88 4.72-.88 1.25 0 2.36.2 3.33.61a6.81 6.81 0 013.94 4.38c.33 1.04.5 2.19.5 3.43V93h-1.74a1.8 1.8 0 01-.88-.18c-.2-.13-.36-.38-.48-.74l-.44-2.12-1.72 1.46a9.48 9.48 0 01-3.74 1.7c-.69.15-1.46.23-2.3.23-.87 0-1.69-.12-2.45-.35a5.33 5.33 0 01-3.34-2.93 6.62 6.62 0 01-.49-2.64c0-.88.25-1.72.73-2.53a6.33 6.33 0 012.35-2.17c1.09-.63 2.5-1.15 4.25-1.54a31.2 31.2 0 016.42-.7v-1.75c0-1.73-.37-3.03-1.12-3.91-.75-.9-1.84-1.34-3.28-1.34-.97 0-1.78.12-2.44.37-.64.23-1.2.5-1.7.81l-1.22.82c-.34.23-.68.35-1.02.35-.26 0-.49-.07-.68-.2a1.88 1.88 0 01-.48-.53l-.7-1.25zM40.98 32.25c0 2.36-.38 4.53-1.12 6.51a14.26 14.26 0 01-8.1 8.4c-1.9.78-4.02 1.17-6.34 1.17a16.6 16.6 0 01-6.33-1.17 14.31 14.31 0 01-8.08-8.4 18.29 18.29 0 01-1.12-6.51c0-2.36.38-4.53 1.12-6.5.75-1.97 1.8-3.67 3.17-5.1a14.32 14.32 0 014.9-3.34c1.92-.8 4.03-1.19 6.34-1.19 2.32 0 4.43.4 6.34 1.19 1.92.8 3.56 1.9 4.93 3.34a14.87 14.87 0 013.17 5.1 18.1 18.1 0 011.12 6.5zm-4.38 0c0-1.94-.26-3.68-.8-5.22a10.91 10.91 0 00-2.24-3.89 9.68 9.68 0 00-3.52-2.46 11.95 11.95 0 00-4.62-.86c-1.68 0-3.21.28-4.6.86a9.88 9.88 0 00-3.54 2.46 10.91 10.91 0 00-2.24 3.9c-.53 1.53-.8 3.27-.8 5.2 0 1.94.27 3.68.8 5.22a11.17 11.17 0 002.24 3.9 10.01 10.01 0 003.55 2.44c1.38.56 2.9.83 4.6.83s3.24-.27 4.61-.83a9.8 9.8 0 003.52-2.44 11.17 11.17 0 002.25-3.9c.53-1.54.8-3.28.8-5.21zm26.22-6.54V48H60.5c-.56 0-.9-.27-1.05-.81l-.31-2.4a12.45 12.45 0 01-3.26 2.6c-1.2.64-2.58.96-4.13.96-1.22 0-2.3-.2-3.24-.6a6.52 6.52 0 01-2.33-1.7 7.37 7.37 0 01-1.43-2.67c-.3-1.04-.46-2.2-.46-3.45V25.7h3.91v14.22c0 1.68.38 2.99 1.15 3.91.77.93 1.96 1.39 3.54 1.39 1.16 0 2.24-.27 3.23-.82a10.42 10.42 0 002.8-2.28V25.7h3.91zm8.61 4.47a9.94 9.94 0 012.6-3.56 5.64 5.64 0 013.76-1.3c.47 0 .92.05 1.34.15.44.1.83.27 1.17.49l-.3 2.92c-.09.37-.3.55-.66.55-.2 0-.5-.04-.9-.13a6.21 6.21 0 00-3.24.18 4.23 4.23 0 00-1.47.92c-.42.4-.81.9-1.17 1.5-.33.58-.64 1.26-.92 2.02V48H67.7V25.71h2.25c.42 0 .72.08.88.25.16.16.27.44.33.83l.26 3.39zm61.16-13.7L122.75 48h-3.82l-7.99-24.05a21.95 21.95 0 01-.42-1.58 38.36 38.36 0 01-.44 1.58L102.05 48h-3.83L88.4 16.47h3.54c.38 0 .7.1.95.29.26.2.43.43.5.73l6.52 21.9.28 1.28.29 1.46.3-1.46.38-1.27 7.41-21.91c.1-.25.26-.48.51-.69.27-.22.58-.33.95-.33h1.23c.38 0 .69.1.92.29a1.77 1.77 0 01.53.73l7.4 21.9a28.4 28.4 0 01.68 2.62 29.52 29.52 0 01.52-2.61l6.54-21.91a1.31 1.31 0 01.48-.7c.27-.21.58-.32.95-.32h3.32zm9.35 8.88c1.63 0 3.1.27 4.4.82a9.43 9.43 0 015.46 5.94c.5 1.4.74 2.98.74 4.73 0 1.76-.25 3.34-.74 4.75a9.43 9.43 0 01-5.46 5.92c-1.3.52-2.77.79-4.4.79-1.64 0-3.12-.27-4.44-.8a9.42 9.42 0 01-3.35-2.3c-.92-1-1.63-2.2-2.13-3.61-.49-1.41-.73-3-.73-4.75s.24-3.33.73-4.73c.5-1.43 1.2-2.64 2.13-3.63a9.4 9.4 0 013.35-2.31c1.32-.55 2.8-.82 4.44-.82zm0 19.89c2.2 0 3.84-.73 4.93-2.2 1.08-1.48 1.63-3.54 1.63-6.18 0-2.66-.55-4.72-1.63-6.2-1.09-1.49-2.73-2.23-4.93-2.23-1.12 0-2.09.2-2.93.57a5.71 5.71 0 00-2.06 1.65 7.5 7.5 0 00-1.24 2.67c-.26 1.04-.4 2.22-.4 3.54 0 2.64.55 4.7 1.64 6.18 1.1 1.47 2.76 2.2 4.99 2.2zm17.97-15.07a9.94 9.94 0 012.6-3.56 5.64 5.64 0 013.76-1.3c.47 0 .91.05 1.34.15.44.1.83.27 1.16.49l-.28 2.92c-.09.37-.31.55-.66.55-.2 0-.5-.04-.9-.13a6.2 6.2 0 00-3.24.18 4.23 4.23 0 00-1.47.92c-.43.4-.82.9-1.17 1.5a13.1 13.1 0 00-.92 2.02V48h-3.94V25.71h2.24c.43 0 .72.08.88.25.17.16.28.44.33.83l.27 3.39zm15.04-14.59V48h-3.92V15.6h3.92zm19.55 15.43a6.22 6.22 0 00-2.38-2.05 6.7 6.7 0 00-2.86-.6c-2.07 0-3.66.75-4.77 2.23-1.12 1.48-1.68 3.6-1.68 6.33 0 1.46.13 2.7.38 3.74a7.29 7.29 0 001.1 2.56 4.35 4.35 0 001.78 1.45c.7.3 1.5.46 2.4.46 1.29 0 2.41-.3 3.36-.88a9.6 9.6 0 002.67-2.49V31.02zm3.91-15.43V48h-2.33c-.56 0-.9-.27-1.06-.81l-.35-2.71a12.13 12.13 0 01-3.25 2.77 8.28 8.28 0 01-4.23 1.06 7.31 7.31 0 01-6.14-2.9c-.73-.96-1.3-2.15-1.69-3.57a18.35 18.35 0 01.07-9.48 11.29 11.29 0 011.89-3.7 8.7 8.7 0 017.06-3.34 7.96 7.96 0 016.12 2.62V15.59h3.91zM46.61 70.71V93H42.7V70.71h3.91zm.84-7c0 .39-.08.75-.24 1.09a2.81 2.81 0 01-1.52 1.47 2.67 2.67 0 01-2.16 0 2.9 2.9 0 01-1.45-1.47 2.67 2.67 0 010-2.16c.15-.35.35-.65.6-.9.25-.27.53-.47.85-.62a2.67 2.67 0 012.16 0c.35.15.65.35.9.62.27.25.47.55.62.9.16.34.24.7.24 1.08zm7.97 10.24c.49-.54 1-1.04 1.54-1.48a9.85 9.85 0 013.66-1.84 8.96 8.96 0 015.43.35c.94.4 1.72.97 2.33 1.71a7.36 7.36 0 011.43 2.67c.32 1.04.49 2.19.49 3.45V93h-3.94V78.81c0-1.69-.4-3-1.17-3.92-.76-.93-1.93-1.4-3.5-1.4a6.6 6.6 0 00-3.25.83c-1 .56-1.92 1.31-2.77 2.27V93h-3.94V70.71h2.35c.56 0 .9.28 1.04.82l.3 2.42zm57.7 3.3c0 2.36-.37 4.5-1.11 6.44a14.3 14.3 0 01-3.17 4.98 14.1 14.1 0 01-4.93 3.2c-1.9.76-4.02 1.13-6.33 1.13H85.8V61.47h11.77c2.31 0 4.42.39 6.33 1.15a13.8 13.8 0 018.1 8.18 17.75 17.75 0 011.12 6.45zm-4.37 0c0-1.94-.26-3.67-.8-5.2a10.94 10.94 0 00-2.23-3.87 9.57 9.57 0 00-3.53-2.42 12.23 12.23 0 00-4.61-.83h-7.5v24.62h7.5c1.7 0 3.24-.28 4.61-.84a9.7 9.7 0 003.53-2.4 10.94 10.94 0 002.24-3.87c.53-1.53.8-3.26.8-5.2zm19.8 5.72c-1.8.06-3.34.2-4.62.44-1.26.22-2.3.51-3.1.88-.8.36-1.37.8-1.74 1.3-.35.5-.53 1.05-.53 1.67 0 .58.1 1.1.3 1.52a3 3 0 00.76 1.05c.34.27.73.46 1.17.6a6.13 6.13 0 001.45.17 7.28 7.28 0 003.5-.81 11.95 11.95 0 002.82-2.2v-4.62zm-12.65-9.11a12.73 12.73 0 013.98-2.66c1.43-.59 3-.88 4.73-.88 1.25 0 2.36.2 3.33.61a6.81 6.81 0 013.94 4.38c.33 1.04.5 2.19.5 3.43V93h-1.74a1.8 1.8 0 01-.88-.18c-.2-.13-.36-.38-.48-.74l-.44-2.12-1.72 1.46a9.48 9.48 0 01-3.74 1.7c-.69.15-1.46.23-2.3.23-.87 0-1.69-.12-2.45-.35a5.34 5.34 0 01-3.34-2.93 6.64 6.64 0 01-.49-2.64c0-.88.25-1.72.73-2.53a6.33 6.33 0 012.35-2.17c1.09-.63 2.5-1.15 4.25-1.54 1.75-.41 3.89-.65 6.42-.7v-1.75c0-1.73-.37-3.03-1.12-3.91-.75-.9-1.84-1.34-3.28-1.34-.97 0-1.78.12-2.44.37-.64.23-1.2.5-1.7.81l-1.23.82c-.33.23-.67.35-1 .35-.27 0-.5-.07-.69-.2a2.1 2.1 0 01-.48-.53l-.7-1.25zm27.67 19.5c-1.76 0-3.12-.5-4.07-1.48-.94-.98-1.41-2.4-1.41-4.25V74h-2.68a.9.9 0 01-.6-.2c-.16-.14-.24-.36-.24-.66v-1.56l3.65-.46.9-6.89a.9.9 0 01.29-.52.88.88 0 01.62-.22H142v7.67h6.44V74H142v13.38c0 .94.22 1.63.68 2.09.45.45 1.04.68 1.76.68a3.21 3.21 0 001.85-.53l.55-.35c.16-.12.3-.18.41-.18.2 0 .4.13.55.38l1.15 1.87a7.45 7.45 0 01-2.44 1.5 8.53 8.53 0 01-2.95.52zm19.68-10.4c-1.8.07-3.34.21-4.62.45-1.26.22-2.3.51-3.1.88-.8.36-1.37.8-1.74 1.3-.35.5-.53 1.05-.53 1.67 0 .58.1 1.1.3 1.52a2.9 2.9 0 00.76 1.05c.34.27.73.46 1.17.6a6.13 6.13 0 001.45.17 7.3 7.3 0 003.5-.81 12.04 12.04 0 002.82-2.2v-4.62zm-12.65-9.1a12.72 12.72 0 013.99-2.66c1.42-.59 3-.88 4.72-.88 1.25 0 2.36.2 3.33.61a6.81 6.81 0 013.94 4.38c.33 1.04.5 2.19.5 3.43V93h-1.74a1.8 1.8 0 01-.88-.18c-.2-.13-.36-.38-.48-.74l-.44-2.12-1.72 1.46a9.48 9.48 0 01-3.74 1.7c-.69.15-1.46.23-2.3.23-.87 0-1.69-.12-2.45-.35a5.33 5.33 0 01-3.34-2.93 6.62 6.62 0 01-.49-2.64c0-.88.25-1.72.73-2.53a6.33 6.33 0 012.35-2.17c1.09-.63 2.5-1.15 4.25-1.54a31.2 31.2 0 016.42-.7v-1.75c0-1.73-.37-3.03-1.12-3.91-.75-.9-1.84-1.34-3.28-1.34-.97 0-1.78.12-2.44.37-.64.23-1.2.5-1.7.81l-1.22.82c-.34.23-.68.35-1.02.35-.26 0-.49-.07-.68-.2a1.88 1.88 0 01-.48-.53l-.7-1.25z" fill="#fff"/><path fill="#D42B21" d="M0 106.79h210V120H0z"/></g><defs><clipPath id="clip0"><path fill="#fff" d="M0 0h210v120H0z"/></clipPath></defs></svg></g><a href="https://ourworldindata.org/grapher/GDP-vs-agriculture-GDP?country=BOL~BWA~BRA~CHL~CHN~COL~CRI~DNK~EGY~ETH~FRA~DEU~GHA~IND~IDN~ITA~JPN~KEN~MWI~MYS~MUS~MEX~MAR~NLD~NGA~PER~PHL~SEN~SGP~ZAF~KOR~ESP~SWE~TWN~TZA~THA~GBR~USA~VEN~ZMB" target="_blank" rel="noopener" font-family="&quot;Playfair Display&quot;,Georgia,&quot;Times New Roman&quot;,serif"><text font-size="25.2" x="15" y="35.2" fill="#555"><tspan x="15" y="35.16">Share of agriculture in GDP vs GDP per capita, 1801 to 2010</tspan></text></a><text font-size="14.4" x="15" y="55.7" fill="#666"><tspan x="15" y="55.72">The vertical axis shows historical estimates of the share of agriculture in GDP (estimated at current prices). The</tspan><tspan x="15" y="73">horizontal axis shows GDP per head after adjusting for inflation and price differences across countries (figures are</tspan><tspan x="15" y="90.28">in 2011 international-$).</tspan></text></g><g class="ScatterPlot"><g class="DualAxisView"><g class="HorizontalAxis"><text font-size="12.6" x="323.3" y="516.6"><tspan x="323.33" y="516.58">GDP per capita</tspan></text><text x="75.2" y="496.5" fill="#666" text-anchor="middle" font-size="16.2">$572</text><text x="152.7" y="496.5" fill="#666" text-anchor="middle" font-size="16.2">$1,000</text><text x="249" y="496.5" fill="#666" text-anchor="middle" font-size="16.2">$2,000</text><text x="376.2" y="496.5" fill="#666" text-anchor="middle" font-size="16.2">$5,000</text><text x="472.5" y="496.5" fill="#666" text-anchor="middle" font-size="16.2">$10,000</text><text x="568.8" y="496.5" fill="#666" text-anchor="middle" font-size="16.2">$20,000</text><text x="696" y="496.5" fill="#666" text-anchor="middle" font-size="16.2">$50,000</text></g><g class="VerticalAxis"><text font-size="12.6" x="-390.8" y="25.1" transform="rotate(-90)"><tspan x="-390.75" y="25.08">Share of agriculture in GDP</tspan></text><text x="70.16" y="475.3" fill="#666" dominant-baseline="middle" text-anchor="end" font-size="16.2">0%</text><text x="70.16" y="430" fill="#666" dominant-baseline="middle" text-anchor="end" font-size="16.2">10%</text><text x="70.16" y="384.7" fill="#666" dominant-baseline="middle" text-anchor="end" font-size="16.2">20%</text><text x="70.16" y="339.4" fill="#666" dominant-baseline="middle" text-anchor="end" font-size="16.2">30%</text><text x="70.16" y="294" fill="#666" dominant-baseline="middle" text-anchor="end" font-size="16.2">40%</text><text x="70.16" y="248.7" fill="#666" dominant-baseline="middle" text-anchor="end" font-size="16.2">50%</text><text x="70.16" y="203.4" fill="#666" dominant-baseline="middle" text-anchor="end" font-size="16.2">60%</text><text x="70.16" y="158.1" fill="#666" dominant-baseline="middle" text-anchor="end" font-size="16.2">70%</text><text x="70.16" y="112.8" fill="#666" dominant-baseline="middle" text-anchor="end" font-size="16.2">80%</text></g><g class="AxisGridLines horizontalLines"><path stroke="#ccc" d="M75.16 475.3h642.93"/><path stroke="#d3d3d3" stroke-dasharray="3,2" d="M75.16 430h642.93M75.16 384.7h642.93M75.16 339.4h642.93M75.16 294h642.93M75.16 248.7h642.93M75.16 203.4h642.93M75.16 158.1h642.93M75.16 112.8h642.93"/></g><g class="AxisGridLines verticalLines" stroke-dasharray="3,2"><path stroke="#eee" d="M81.8 475.3V107.8M103.2 475.3V107.8M121.8 475.3V107.8M138.1 475.3V107.8"/><path stroke="#d3d3d3" d="M152.7 475.3V107.8M249 475.3V107.8"/><path stroke="#eee" d="M305.3 475.3V107.8M345.3 475.3V107.8"/><path stroke="#d3d3d3" d="M376.2 475.3V107.8"/><path stroke="#eee" d="M401.6 475.3V107.8M423 475.3V107.8M441.5 475.3V107.8M457.9 475.3V107.8"/><path stroke="#d3d3d3" d="M472.5 475.3V107.8M568.8 475.3V107.8"/><path stroke="#eee" d="M625.1 475.3V107.8M665 475.3V107.8"/><path stroke="#d3d3d3" d="M696 475.3V107.8"/></g></g><g class="PointsWithLabels clickable" clip-path="url(#a)" font-family="Arial, sans-serif"><path fill="rgba(255,255,255,0)" d="M75.16 107.8h642.93v367.5H75.16z"/><defs><clipPath id="a"><path d="M65.16 97.8h662.93v387.5H65.16z"/></clipPath></defs><g class="key-Argentina"><circle cx="440" cy="449" r="1.1" fill="#e2e2e2" stroke="none" opacity=".7"/><path stroke-width=".52" opacity=".7" stroke="#ccc" fill="none" stroke-linecap="butt" d="M440 449l3-3-11 1 5-11 3 7 7 2 1-1 5-2h6l-12-6 8 1 8 7-5-4-5-5 11-6 10 6-1 4h2l4 2 9-1 5-1 4-3 2-3 6-7 6 8-3 11-3-2 6-1-9 3 8-3-1 6-10-7-7-15 3 5v2l-11 3 8-1 1-2-5-4-11-2-1 7 12 6 12 3 8 2h6l-5-1 7-2 10 2h4l-6 5-2-1-7 1-17-30 11-1 12 4 11 5 10 5 11-5 5-2-10 11 13-12"/><path cx="561" cy="424" r="1.72" fill="#e2e2e2" opacity=".7" d="M558.57 423.9l3.7-1.07-1.37 3.6z"/></g><g class="key-Belgium"><circle cx="290" cy="365" r="1.1" fill="#e2e2e2" stroke="none" opacity=".7"/><path stroke-width=".45" opacity=".7" stroke="#ccc" fill="none" stroke-linecap="butt" d="M290 365l6-32-1 41 3-2 4 12 3-2 3-3 3-1 7-17v14l7-2 2 9v10l-1 10 6-11h1l3-3 3 3 3 10-1 5h3v-9l4-10 5 22 2-1-1 3 7 4v9l3-13-1 9 1-10v-1l3 8v-1l6 2v-1l3 1v3h0l1-2 4 4v2l5-2 2 2-1-3h2v-1l1 3 1 1 2 4 1-4 1 1 2 5 3-1-1-3 1-1 1 2 2-1h2l2 2h0v-2l2 1 3-2 3 2 2 4v2l-9-42 3 12 12 17 4-12 3 5 1 4 3-1 4 8 6 1-2 3-2 6-3 4-8-2 2-2-1 5 8 17v4l1-20-3-2 9-1-17-10 7 10 6 2 5-3 7 4 7 1-2 2 4-4h5l5 1 3 3 2-1-1 1h3l7 1 6-1 6 3 5 1 9 1 3 1 4 3 4 1 5-1 9 1 8 4 5 1 6-3 8 1 5 5-2-1 8 1v2h13-2 2v-1l4 1h3l3 1 6 1 4-2 4 2 2-1 2 1h-2l5 1h3l2 1h12l5 1h3l5 1h2l3 1h4"/><path cx="658" cy="471" r="1.65" fill="#e2e2e2" opacity=".7" d="M656.35 469.35l3.3 1.65-3.3 1.65z"/></g><g class="key-Hong-Kong"><circle cx="461" cy="464" r="1.1" fill="#e2e2e2" stroke="none" opacity=".7"/><path stroke-width=".43" opacity=".7" stroke="#ccc" fill="none" stroke-linecap="butt" d="M461 464l8 1 12 1h13v1h-3 17l11 1h6l11 1 10 1 10 1h2l6 1h11l-1 1h41l5 1h15-2 6-10 44-5 7"/><path cx="675" cy="474" r="1.63" fill="#e2e2e2" opacity=".7" d="M673.37 472.37l3.26 1.63-3.26 1.63z"/></g><g class="key-China"><path stroke-width="2.39" opacity=".9" stroke="#2D8587" fill="none" stroke-linecap="butt" d="M159 242l14 22-14 1 9-3 8 17 1 11-3 29-6 33-8 15-26-64 8-14 15-4 15 9 12 3v2l-2-12-7-10 10 20 14 14 5 6-2 5 8-3v-2l7 7-7-2 6 16 14 6 8-14 6 4 2-7 11-8 6 1 13 5 10 17 7 6 9 1 5 6-1 2-2-9 3 12 8 12 12 10 8-1h10l7 1 3 7v3l5 5 8 7 8 3 9 3 8 4 10-3 12 6 13 5 11 1 5 1 9 1 14 1"/><circle cx="159" cy="242" r="2.2" fill="#2D8587" opacity=".9" stroke="#2D8587" stroke-opacity=".6"/><path cx="467" cy="426" r="4.78" fill="#2D8587" opacity=".9" d="M462.57 420.9l9.2 5.44-9.88 4.09z"/></g><g class="key-India"><path stroke-width="2.35" opacity=".9" stroke="#2D8587" fill="none" stroke-linecap="butt" d="M150 217l1 5 2 3 6-3 3 24 1 10 5-13-5 10 8-8v10l7 9 1 4v9l3-5 8-8-9 10-2-4 8-14 1 5 6 2 3 7-2 8h-3l3-15-2 16 9 13-1 8 7-6 4 8-10 9 6-8 6 6 1 7 8-3 2 7 3 7 2 6 3 2 11-4 6 7h4l-1-2 3 3 4-1 5 3 6 10 7-4 2 6 6 1 5 5 2 7 4 1 2 10h8l7 9h8l9 4h9l6 3 8-1 8-2"/><circle cx="150" cy="217" r="2.17" fill="#2D8587" opacity=".9" stroke="#2D8587" stroke-opacity=".6"/><path cx="362" cy="390" r="4.7" fill="#2D8587" opacity=".9" d="M356.3 386.58l10.26 2.28-7.98 6.84z"/></g><g class="key-United-States"><path stroke-width="1.93" opacity=".9" stroke="#E04E4B" fill="none" stroke-linecap="butt" d="M326 282l5 30 23 7 20 6 20 21 23 43 23 6 29-1-2 1 1 7 4-2 2 6h-15l1-2 15-3-6-11 9-4v14l-4 21-7 12 5-1 14 1 1-2v-2l6 5-1-1-1 2 6-5-16 5h-10l-23 3-6-6 10 4 16-13 12 12 9-7-10 7 8 2 10 4 17-3 13-4 11 1 8 3-5-2-14-6-5 9 4-2-5 7 10 1h7l3 3 4 4h-3l7 3v2l-4-2 8 4 1-1 1 1h6l4 1 6 2 7-1 7 1 2 1 5 1 3-1-2 1h3l6-1 6-5-2 2-1 1 5 2 5 1h6l3-1-1 2 2-1-4 1 4 3 9-2 4 1 3 1h13l-2 1 3-1 2 1h13l5 1h9v1h1l2-1 4-1 4 1 2 1 1-1h-7 3"/><circle cx="326" cy="282" r="1.97" fill="#E04E4B" opacity=".9" stroke="#E04E4B" stroke-opacity=".6"/><path cx="694" cy="470" r="3.86" fill="#E04E4B" opacity=".9" d="M690.14 466.14l7.72 3.86-7.72 3.86z"/></g><g class="key-Indonesia"><path stroke-width="1.88" opacity=".9" stroke="#2D8587" fill="none" stroke-linecap="butt" d="M212 251l-6-4 10 13 13 8 11 9 5 8 11 21h16l4 31-3 5 9 2 7-1 3 8 4 6 8 14 6-2-8-3 3 14 6 2v-1l6-4 4 4 5-3 10 4 9 10 10 5 7-1 9 3 9 3 9 1 9 3 4 3-21-13v-8l5 11 4 3 4-2 6 4 5 4 7 6h6l8-3 9-4 5-3h8"/><circle cx="212" cy="251" r="1.94" fill="#2D8587" opacity=".9" stroke="#2D8587" stroke-opacity=".6"/><path cx="448" cy="404" r="3.77" fill="#2D8587" opacity=".9" d="M444.23 400.23l7.54 3.77-7.54 3.77z"/></g><g class="key-Brazil"><path stroke-width="1.85" opacity=".9" stroke="#932834" fill="none" stroke-linecap="butt" d="M438 451l1-2-1 3 6 2 7-10 6-1 2 3 5 1v-1 1l6-1 1-2 4-3 2-3 8 2 4 6 6 2 8-1 7-1v1l11 2"/><circle cx="438" cy="451" r="1.92" fill="#932834" opacity=".9" stroke="#932834" stroke-opacity=".6"/><path cx="521" cy="449" r="3.69" fill="#932834" opacity=".9" d="M518.03 444.7l6.6 4.96-7.92 2.31z"/></g><g class="key-Nigeria"><path stroke-width="1.81" opacity=".9" stroke="#923E8B" fill="none" stroke-linecap="butt" d="M189 211l1 8h4l8 8 2 11 5 16-9-3-27-1-6 8 29 21 34-5 11 6 1 15 7 21 11 17-8 4 10 12 1-4-13-1 6 7-2 7-16 4-5-10-13-10-9-23 8 1-1-7-4 6 9-18 5 38 4 2h-1l2 13 2-33v-28l3 30 5 5 4-14 3-28 1 18 7 46 9-39 18-68 13 27 13 39 9 6 9 4 9-2 10 2 11-21 14 34"/><circle cx="189" cy="211" r="1.91" fill="#923E8B" opacity=".9" stroke="#923E8B" stroke-opacity=".6"/><path cx="373" cy="332" r="3.63" fill="#923E8B" opacity=".9" d="M374.97 327.26l-.59 8.1-6.12-5.33z"/></g><g class="key-Japan"><path stroke-width="1.79" opacity=".9" stroke="#2D8587" fill="none" stroke-linecap="butt" d="M228 280l8 4 2 10-10 7 2 5 8-40-8 19 7-1-1 7 14-11v10l-8 12v6l22-30-8 26h3l-10 9 13-17-2 4-4 32 14-13 1-9v3l-1 14-1 8 5-19 1-7 1 3-5 25 9 12 17 5 5-4 2-18 11-16-11 25 12 6v14-4l3-3 4-1-2 15-1 1 8 11 5 2-13 18-1 5 8-9 10-6-1 11 3-5 5-3 3 1 6 7 17-13 2 4-29 5h6l10-6 8 13 9 3 6 3 11 3 16 7 15 3 10 2 10 4 14 5h6l13 1 13 1 16 4 14 4 13 5 4 4 10-1 8-2-3 2h2l4 1 5 1 6 1 6 1 3 3 3 1h6l4 1h5l3 1 5 1h8l6 1h10l1 1h1l3 1h4l1 1-2-1h-1l4 1h4l2 1h5-10 6"/><circle cx="228" cy="280" r="1.89" fill="#2D8587" opacity=".9" stroke="#2D8587" stroke-opacity=".6"/><path cx="646" cy="468" r="3.57" fill="#2D8587" opacity=".9" d="M642.43 464.43l7.14 3.57-7.14 3.57z"/></g><g class="key-Mexico"><path stroke-width="1.77" opacity=".9" stroke="#E04E4B" fill="none" stroke-linecap="butt" d="M327 372l6 7 1 5-4-5 10-2 7 4 5 3 6 1 3-2v7l7 2h2l2-1 7 2 11 3 5 3 5 6 4 2 7 4 4 3 5 1 1 3 7 2 6-2 4 1 3 1 2 3 1 1 9 1 9 6 9 5 8-1-4 5-8 2 2-5v-3l-7-3-1 6-1 1 3-1h9l4 4 1 2 5 1-11 4 6-4 9 3 6 1 4 3 8 3h0l1 1h1l6 1 3 2 7 1 3-1h2l-8-1h7"/><circle cx="327" cy="372" r="1.89" fill="#E04E4B" opacity=".9" stroke="#E04E4B" stroke-opacity=".6"/><path cx="526" cy="457" r="3.54" fill="#E04E4B" opacity=".9" d="M522.46 453.46l7.08 3.54-7.08 3.54z"/></g><g class="key-Philippines"><path stroke-width="1.75" opacity=".9" stroke="#2D8587" fill="none" stroke-linecap="butt" d="M299 342l4 5 8-3 1-1 4 5 7 5 4 3 3 2 4 5 3 10 1 3 2 5-1 5-14-9-14-1 1 2 3-1 5 5 6 2v3l-2 4-2-5h1l4-1 5 1 5 5 5 7-2 6 2-2 4 6 2 4h3l5 3 7-4 5 4 5 1 8-1 4-3v1l9 4"/><circle cx="299" cy="342" r="1.87" fill="#2D8587" opacity=".9" stroke="#2D8587" stroke-opacity=".6"/><path cx="394" cy="417" r="3.5" fill="#2D8587" opacity=".9" d="M392.22 412.38l4.98 6.04-7.82.36z"/></g><g class="key-Ethiopia"><path stroke-width="1.74" opacity=".9" stroke="#923E8B" fill="none" stroke-linecap="butt" d="M107 107l3 7 14 2 4 4 5-1 3 6 3 6h-1 2l5-1 3 4 4 10 1 5-2 1-3 10 1-8v-9l-4-6 7 9 5 4-3 2-5 10 3-4-6 14-11 5 6-4 8 6-1 8-2-3h-23l-19-14-1 18 6 22 2 4 7 5 6-4-5 21-4 14h1l2 8 2 16-5 7 1-10 10-11 9-5 8 1 8-15 7 1 8 15"/><circle cx="107" cy="107" r="1.87" fill="#923E8B" opacity=".9" stroke="#923E8B" stroke-opacity=".6"/><path cx="166" cy="257" r="3.48" fill="#923E8B" opacity=".9" d="M167.43 252.3l.2 7.77-6.34-4.5z"/></g><g class="key-Egypt"><path stroke-width="1.74" opacity=".9" stroke="#923E8B" fill="none" stroke-linecap="butt" d="M216 362l5 11 6-4 6-2 5-13 6 2-3 3-4 2-1-1 6-4 6 6 4-6v-8l1-5 2-3 11 5h17l13 3 6 10 6 17 10 5v5l10-19 6 6 4 6 5-2-1-9v8h3l1-1v10l5 4 5-1h13l7-2 8 3 7 3 7-6 8 1 8 4 7 6 4 2h5l5 6 6 2 9 5 9-1 9 4 6-2 8-1"/><circle cx="216" cy="362" r="1.87" fill="#923E8B" opacity=".9" stroke="#923E8B" stroke-opacity=".6"/><path cx="482" cy="411" r="3.47" fill="#923E8B" opacity=".9" d="M478.13 407.99l7.31 2.58-6.45 4.3z"/></g><g class="key-Germany"><path stroke-width="1.73" opacity=".9" stroke="#4C5C78" fill="none" stroke-linecap="butt" d="M535 455l8 1 5 4 3 1h5l6 1 1 1v-1h11l4 1 5 1 2 1h0l-1-1 3 2h4l3 1h3l2 1h4l4-1-6 2h8l3-14-1 1 5 1 3-2h3l3 2 5 3 4 2 5-2 4-1 1 3 1 2h3l3 3h7l6 1 3 1h-6l7-3"/><circle cx="535" cy="455" r="1.87" fill="#4C5C78" opacity=".9" stroke="#4C5C78" stroke-opacity=".6"/><path cx="668" cy="466" r="3.47" fill="#4C5C78" opacity=".9" d="M663.44 464.18l7.75.45-5.01 5.93z"/></g><g class="key-Thailand"><path stroke-width="1.72" opacity=".9" stroke="#2D8587" fill="none" stroke-linecap="butt" d="M194 264l4 31 10 1-6 16 7-7-2 9-3 4 1 1 11 3 11-3 3 2 6 9 7 5 5 10 6-6 11-6 7 19 7 2 6 1 5 13 3 8 2-6 9-8 3 2 3 1 9 1 11 8 10 1 4 2 3 4 6 7 4 12 5-6 6 10 4 7 5 1h11l15-1 14 4 13 11 8-1 10 2 9 8 8-2 8-2h5-6l-13-6 4 6 4 2 3-1 6-2 8-4 6 1h4l5-2h6l1-4h-2l8-4"/><circle cx="194" cy="264" r="1.86" fill="#2D8587" opacity=".9" stroke="#2D8587" stroke-opacity=".6"/><path cx="512" cy="417" r="3.43" fill="#2D8587" opacity=".9" d="M507.4 415.47h7.67l-4.6 6.13z"/></g><g class="key-United-Kingdom"><path stroke-width="1.71" opacity=".9" stroke="#4C5C78" fill="none" stroke-linecap="butt" d="M320 332l2-20-4 45 10 9 13-1 19 22 63 60-5-1 12 3 4 3 4 1 6 1h-5l10 3 1-1 4 1-2-1-8 1h1l3-3h8l5 2 6-1 4 4h1l45-3h3l4 1 7 1 2 1h4l5 1 2-1 3 1h7l8-1-2 1v1l3-1 4 1 4 1 4 1-2 1h-2l2-1 4 1 4-1 4 2 6-1h6l6 2 3-1h0l-2 1v-1h10l3 1 4 2 4 1h8l3 1h3l4-1 3 1h7l-2-1h-7 1"/><circle cx="320" cy="332" r="1.86" fill="#4C5C78" opacity=".9" stroke="#4C5C78" stroke-opacity=".6"/><path cx="645" cy="469" r="3.42" fill="#4C5C78" opacity=".9" d="M641.58 465.58l6.84 3.42-6.84 3.42z"/></g><g class="key-France"><path stroke-width="1.71" opacity=".9" stroke="#4C5C78" fill="none" stroke-linecap="butt" d="M235 291h10l-5 22 4-17 4 1-7 13 4-7-3-4-1-2 4-6-4 3 2-5 12-14-3 25v5l5 4-2 19 2-14 5 4-5 1 10-11 2 12-3 1 6-7 4-2-5 8v1l14-29-9 2 4 30 2 7-3-3 9-8-8 8 6-13-2 2h6l7-19 9-3-9 12 9-8-10 14 11-16 4 1 1 4-4 8 1 2-9 12 12-17 2-3-10-8 2-1 13 12-11 18 16-14 4 11-13 10 7-11-3 2-9 14 11-7 5 8 6-2h0-2l-3 5 2 7 1 3 1 2 3 8 3-10 3 6h4l2-3 5-5-3 2 6 9-2 7 6-14 7 7-1-10-3 16-2-5 3-5v3l3 2 2 3 6-4-1 1 5-1-9-6h13l11-1-2 3-10 16-7-12 22 19 6 4h15l-1 1 3-2-3-5 9 2 8 4-5 2-10-6-9-18 10 17h-2l-3 15 5-16 7 7 130 47 5 2 5-3h6l3 7-1 4 5 2 5 2 3-1h4l1 4h1l2-4 1 5 2 1h1l3 1 2 1 6 2 4-2h3l1 4 1-1-1 2 2-2h4l3 1h5l4 1 5 1h2l1 1v1h3l2 1 3 1 2-1v1l-5 2 2-2"/><circle cx="235" cy="291" r="1.85" fill="#4C5C78" opacity=".9" stroke="#4C5C78" stroke-opacity=".6"/><path cx="650" cy="462" r="3.42" fill="#4C5C78" opacity=".9" d="M645.16 462l7.26-2.42-2.42 7.26z"/></g><g class="key-Italy"><path stroke-width="1.7" opacity=".9" stroke="#4C5C78" fill="none" stroke-linecap="butt" d="M533 429l2 2 3 3 7-2 6 5-4-2 8 3 3 1h5l7 2 5 2v2l1 1 1-1 4 3 3 1 4 1 5 1 5 2 4 1 3 1h5l-1 1h15l4 1h3l6 2h7l2 2 3 1h2l-1 1-8 1 3-1"/><circle cx="533" cy="429" r="1.85" fill="#4C5C78" opacity=".9" stroke="#4C5C78" stroke-opacity=".6"/><path cx="645" cy="463" r="3.41" fill="#4C5C78" opacity=".9" d="M640.69 460.84l7.55 1.08-5.4 5.4z"/></g><g class="key-South-Africa"><path stroke-width="1.69" opacity=".9" stroke="#923E8B" fill="none" stroke-linecap="butt" d="M371 421l3-1 4 2h6l5 8 4 1 2-2 6-4 2 8 5 2 3 5 3-3-1 1 3 2 4-7-1 5v5l-4-2v2l2 3 5-1 3-1-5 4-7 6 3-2-6-2-4 1v-3l2-1v2l-4 4h-2l-3 4 1-2 5-2 5 3 7-2 5 1 1 2 4 1 7 1 4-1 6-3 5 3 7 2 7 2 9-1 8-1h5l-1 1 5 2"/><circle cx="371" cy="421" r="1.85" fill="#923E8B" opacity=".9" stroke="#923E8B" stroke-opacity=".6"/><path cx="489" cy="463" r="3.39" fill="#923E8B" opacity=".9" d="M487.11 458.6l5.04 5.66-7.56.63z"/></g><g class="key-South-Korea"><path stroke-width="1.69" opacity=".9" stroke="#2D8587" fill="none" stroke-linecap="butt" d="M166 170l-2-4 10-4 10 13 1 19 5-6 6-9 6-7-7 21 7-10 4 31 2-8 1 4-8-5 5-3 5 10 8 5-11 18v7l13 22-2-2v-10l3 3 2-2 7-2-6 25 24-11-5 20-26 14 29-9-57-26 6 31 4-24-3-10 8 14 5 19 4 30-1-8 5-15 1 15 9-29 9-20 6 32 12 16 9 18 14 15 15-2 11 3 11-1 7 2 16 7 11 1 8-1 15 6 14 4 12 8 9 7-4 20 7-3 9 5 15 6 12 3 9 1 14 6 15 5h14l8 3 12 5 11 4 6 1 7 3 10 1 10 1 8 2 5 3-9 1h13l9 2 5 1 8 2 2 1h5l4 3h6l5 2 2 1h-1l8 1"/><circle cx="166" cy="170" r="1.85" fill="#2D8587" opacity=".9" stroke="#2D8587" stroke-opacity=".6"/><path cx="632" cy="462" r="3.38" fill="#2D8587" opacity=".9" d="M629.07 458.23l6.28 4.19-7.12 2.51z"/></g><g class="key-Spain"><path stroke-width="1.69" opacity=".9" stroke="#4C5C78" fill="none" stroke-linecap="butt" d="M226 305l2 2 5 8v-42l1 5 7-23-7 31-5 13 3 3 7-5 5-1v-1 3l2-1-1 7-6-3 8-6-2-11-19 29 5 10 4-22 10-3 20-15 10 9-12 8 4 8 4-16 14-9h-6l-10 7 12 6 1 4v-1l2 3v-2l-5 1-3-7-3 19 5-8v14l-1 4 3 1 11-1-6 11 2-2-3-5-14 10 8-22 8 11 1 11 2 2 10-15-7 9-1-3-3 1-2-2 8 3 3-7 4 12 3-10-8 22 10-15-5 19 7-10-5 6 1-24 4 5-2 11-2-3 2-9 10 1 3 14 4-2 1 15 3-2 8-5-3 14 11-19-1 22 9-12-9 17-5-7 3-11-6 20 3-11 1 8-25-18v7l9-7h6l5-20-13 22 5-17 2 13-2 11-1-14 1-3 12-1 11 10-1 8 9 5 3 1 10 4 4-1 8-2 84 46 6-3 12 5 10 2 9 5h2l5 1 3 2 2-2 2 6 3 3-1 7 1-1 2 1 1-2 3-1 6-3 9 1 8-1 8 3 7 2 5 3 3 3-2-2h4l6 1 4-3 5 2 7 2 7 3 8 2 6 1 3 1h3l3 2 4 2 4 2h4v1h-5l1-1"/><circle cx="226" cy="305" r="1.84" fill="#4C5C78" opacity=".9" stroke="#4C5C78" stroke-opacity=".6"/><path cx="633" cy="459" r="3.37" fill="#4C5C78" opacity=".9" d="M628.23 459l7.15-2.38-2.38 7.15z"/></g><g class="key-Colombia"><path stroke-width="1.68" opacity=".9" stroke="#932834" fill="none" stroke-linecap="butt" d="M324 326h-1l4 5 4 4 5-2 1 1 1-4 1-2-1 6 5 7 1 7 3 3 2 9 1 5 4-11v8l4 2 1-1h5l5 3 5 5 4 3 7-2h6l5-1v2l3 1 3-7 9 10 5 6 2 8v2l-2 3h0l1 5 2 1 5-1 4-3 3 8 2 3h3v2l3 6 5 8 5-2 4 3 1 5h3l-2-2h-7 2l2-1 3 1 6 3 4 1 8 2 7 1 3 1 1 1 4 1"/><circle cx="324" cy="326" r="1.84" fill="#932834" opacity=".9" stroke="#932834" stroke-opacity=".6"/><path cx="488" cy="439" r="3.37" fill="#932834" opacity=".9" d="M485.55 434.91l5.72 4.9-7.36 1.64z"/></g><g class="key-Tanzania"><path stroke-width="1.68" opacity=".9" stroke="#923E8B" fill="none" stroke-linecap="butt" d="M109 356l-6 9h9l4-8 3 8 1 14 12 1 2 10 3 2-2 2 3 1 2 5 4-1v2l-1 2 3-6 6-11-1-4h0l-2-4-3 1-5-6-3-13-4-4-1-3-4-16v-17l2 9 1-15 1 2 1 18 2-20 1-4 1 4v4l4-10 7-6 6 1 4 5 7 1 6 2 7 3 9 3h8l9-4 9 7 5 7 11 2 8 1 7 5 8 3"/><circle cx="109" cy="356" r="1.84" fill="#923E8B" opacity=".9" stroke="#923E8B" stroke-opacity=".6"/><path cx="253" cy="338" r="3.36" fill="#923E8B" opacity=".9" d="M251.03 333.67l5.12 5.51-7.48.79z"/></g><g class="key-Kenya"><path stroke-width="1.68" opacity=".9" stroke="#923E8B" fill="none" stroke-linecap="butt" d="M173 233l-8 8 3-17 2-5 9 13-3 14 12-7 3 8 5 11 3 6 6 5 4 11 2-5 2 4 1 7-5-7v-11l7-22 6 25v19l2-4h-2l2-4-4-1-3 7 1 5 5 4 3 7h3l2 5 1 6v12l-4 3-2-13 2-3 5 7 5 7-1 1 4-1 2-5v-1l4 8-1 10h2l5 5 6 4 6 2 8 8-2-3 3-6 10 9"/><circle cx="173" cy="233" r="1.84" fill="#923E8B" opacity=".9" stroke="#923E8B" stroke-opacity=".6"/><path cx="284" cy="359" r="3.36" fill="#923E8B" opacity=".9" d="M283.75 354.25l2.75 7-7.25-2z"/></g><g class="key-Morocco"><path stroke-width="1.66" opacity=".9" stroke="#923E8B" fill="none" stroke-linecap="butt" d="M284 371l4-11v5l2 3 5 5 6 13 12-9 4 13 1-13 4 5 9-3-6 28 10-14-5 2 2 2 5-7 7-14-7 20 10-11v1l2-2 8-12-6 24-3 4 12-19-10 20 14-24-4 19 8-9v13l1 11 8-8h3l6-3 5 4 3 7 9-9 3 14 7-4 4-8 4 5"/><circle cx="284" cy="371" r="1.83" fill="#923E8B" opacity=".9" stroke="#923E8B" stroke-opacity=".6"/><path cx="421" cy="409" r="3.32" fill="#923E8B" opacity=".9" d="M421.52 404.33l1.55 7.26-6.74-3.1z"/></g><g class="key-Peru"><path stroke-width="1.66" opacity=".9" stroke="#932834" fill="none" stroke-linecap="butt" d="M408 417l8 4-15 11-21 2-10 4v-3h-3l5-3h13l8 2 2-2 7 3-3-2 1 1 2 1-1 1 6 2 5 1 5 2h7l9 2 10-1 12-1h0l10 3"/><circle cx="408" cy="417" r="1.83" fill="#932834" opacity=".9" stroke="#932834" stroke-opacity=".6"/><path cx="465" cy="444" r="3.31" fill="#932834" opacity=".9" d="M462.78 439.88l5.39 5.07-7.3 1.27z"/></g><g class="key-Venezuela"><path stroke-width="1.65" opacity=".9" stroke="#932834" fill="none" stroke-linecap="butt" d="M499 452l1-2h22-1 0l3 1 1-3 6 1-1 3v2h3l4 4 4-2 6 2 4-1h-11l-5-1-3-1-12-2-5-1-4-3 5-3 1 1 5-2-16 2 5 4 10-1h6-1l-6 2 3-2-2 5h6l-1-3-11-1 4 4 3-2-15 2-13-2 22 3h33l5-2-6-8-1 2"/><circle cx="499" cy="452" r="1.83" fill="#932834" opacity=".9" stroke="#932834" stroke-opacity=".6"/><path cx="547" cy="448" r="3.31" fill="#932834" opacity=".9" d="M551.44 446.52l-5.92 4.44v-7.4z"/></g><g class="key-Malaysia"><path stroke-width="1.65" opacity=".9" stroke="#2D8587" fill="none" stroke-linecap="butt" d="M319 328l6 1 7 1 16 2 6 3-2 3 13 4 8 4 9 4 7 3 8 3 6 3 5 3 5 4 7 2-5 4-2 2 4 6h8l10 10 9 14 10 4 9-1 11 4h10l10 4 11 6 7 3-13-9 6 11 8 9-1 3 5-4 5-3 7 1 5 4 6-1 7-7h6l-4 4 9-6"/><circle cx="319" cy="328" r="1.83" fill="#2D8587" opacity=".9" stroke="#2D8587" stroke-opacity=".6"/><path cx="558" cy="426" r="3.31" fill="#2D8587" opacity=".9" d="M553.41 425.08l7.34-.92-3.67 6.43z"/></g><g class="key-Ghana"><path stroke-width="1.65" opacity=".9" stroke="#923E8B" fill="none" stroke-linecap="butt" d="M262 350l1-1h3-3l-4-7-1 13-3-4 1-13 10-5 7 9-9-6-1-9 6-8-21 20-8-11v-27l9-27-5 1-7 7-2 10-12-23-16-3 4 51 3 21 1 1 3-9 4 3h3v-6l4 3 3-2 1-6 2-3 3-3 4-5 4 17h4l3 1 2 3 3 1h3l4-4 5-5 5 3 5 6 2 7 10-9 3-3 7 8"/><circle cx="262" cy="350" r="1.82" fill="#923E8B" opacity=".9" stroke="#923E8B" stroke-opacity=".6"/><path cx="302" cy="336" r="3.3" fill="#923E8B" opacity=".9" d="M302.31 331.34l1.86 7.14-6.83-2.79z"/></g><g class="key-Taiwan"><path stroke-width="1.64" opacity=".9" stroke="#2D8587" fill="none" stroke-linecap="butt" d="M210 317h11l7-9 8 29 5-4 2 8h5l4 3 5 3 2-9 5 5 6 12 7 7 12-6 10 4 8 6 11 8 8 8 9 15 11 2 14 12 15 4h14l-1-2 4-1 15 7 11 3 14 6 8 5 8 4 6 3 2-3 9 2 12 5 5 3 14 1 20 1 5 1 9 1 6 3 9 2 9 1h16l7 1 7 1 6 3 4 1 8-1 7 3h-3l6 1h5l8 1 6-1 6 1h8v-1l-3-1 13 1"/><circle cx="210" cy="317" r="1.82" fill="#2D8587" opacity=".9" stroke="#2D8587" stroke-opacity=".6"/><path cx="655" cy="466" r="3.29" fill="#2D8587" opacity=".9" d="M651.97 462.47l6.31 3.78-6.81 2.78z"/></g><g class="key-Chile"><path stroke-width="1.63" opacity=".9" stroke="#932834" fill="none" stroke-linecap="butt" d="M398 431l3 2 6-3 7 5-8 3 3-2-1 5 10 2 4-4-12 3 8-1 3 2 3 3 5-1v-2l-2 1 11 3h2l2 5 2-3h0l10-1-4 2-10 1-1 3-22-2 3-8 11-6 9 7 9 2h9l6 3-23 2-6-1 6-7v1l6-4 6-1 7 1 12 1h3l7-5h13l6 5 4 3 11 2 7 2h8-4 3l2 3 1-2h3l5 2 6 1 6 2 4 1 3 2h-5l6 1"/><circle cx="398" cy="431" r="1.82" fill="#932834" opacity=".9" stroke="#932834" stroke-opacity=".6"/><path cx="561" cy="459" r="3.26" fill="#932834" opacity=".9" d="M558.32 455.25l5.9 4.29-6.97 2.14z"/></g><g class="key-Netherlands"><path stroke-width="1.63" opacity=".9" stroke="#4C5C78" fill="none" stroke-linecap="butt" d="M340 364l-53 13 18-15-6-8 1-10 2 9h-6l9 5-3 19 2 8 6-3-1 4-3-9 2-3 8-8 3 11v-7l-12-3 10-5 6 8-3 7 1 6v-9l4 4 3-3 2-1v-7l1-5 1 13-3-12h-2l1 10-1-3v-14l1-21 2 24 4 5 3-2 2-8-2 2-3-10 8-12-3 1 5-5-2 17-4 10-5-7 6-7-4 15 6-13 2 14h6v-2l5-9-5 3 1-7 4-5 5 5-2 4 1 9 3 8-5-8 8 2v-4l2 4h-1l-7 11 8-12 1 11 2-1h8l1 4 2 4v-2l2 5v7l3-5-7 2-1 2 2-1-3 3 6 4v-3h3l2 3v-2 2l-3 1 5-4h3l-2 6v-1l5 1 1 3h-5l1-1 6-2 4-3 3 1 2 7 4 7 151 40 4 2h3l5 1 4 3-1-1h5l3 1 3 1 2 2h0l-1-2-3-1 2 1h8l3-1 1 1h2l6-2 5 1 3 1 2 1 1 2h9l5 1 6-1 6 3 7 1h5l3 1v2h0l3 1h4l5-1 6 1 2 1-5 1 2-2"/><circle cx="340" cy="364" r="1.82" fill="#4C5C78" opacity=".9" stroke="#4C5C78" stroke-opacity=".6"/><path cx="677" cy="464" r="3.26" fill="#4C5C78" opacity=".9" d="M672.39 464l6.92-2.3-2.31 6.91z"/></g><g class="key-Malawi"><path stroke-width="1.63" opacity=".9" stroke="#923E8B" fill="none" stroke-linecap="butt" d="M88 237l3-1-4 1-6 4-6 53 14 3 10 5 9 2-6 10 5 4-2 2 15 3h10l7 9 5 2 1 9 1-5 3-13 7 15 2-10-3 12-12 12-3-1 2-12 1-7 6 15-4 2-5 20-5-8-1-5v8l6-5-16 18 10-30-12 13 19-19 9-22 5 13-3-13 1-9-3-8-10 3-2 2 3 6 2 3v9l1 6h13l6-2 3 1"/><circle cx="88" cy="237" r="1.81" fill="#923E8B" opacity=".9" stroke="#923E8B" stroke-opacity=".6"/><path cx="164" cy="332" r="3.25" fill="#923E8B" opacity=".9" d="M161.94 327.89l5.14 5.14-7.2 1.03z"/></g><g class="key-Zambia"><path stroke-width="1.62" opacity=".9" stroke="#923E8B" fill="none" stroke-linecap="butt" d="M211 439l-3-5-5 1v-2l14 4 19 4-11 2 6 1-2 2-4 4 2-3-4-3 8-4-6 6 7 3-9-10 4-8-11 3-4 2-8 7v-1l4-6-9-3-8-2-6-2-2 7-4-10h-1l4-7-3 6 8-4v-5l3 2v-2l-19-3 4-11 9 4 6-3v-10l6-11 6 11 7 3 7 1 10-1 10 1 10 5 12 7 11 6 11 3h12l14 9"/><circle cx="211" cy="439" r="1.81" fill="#923E8B" opacity=".9" stroke="#923E8B" stroke-opacity=".6"/><path cx="306" cy="427" r="3.25" fill="#923E8B" opacity=".9" d="M305.02 422.5l3.71 6.26-7.22-.78z"/></g><g class="key-Senegal"><path stroke-width="1.62" opacity=".9" stroke="#923E8B" fill="none" stroke-linecap="butt" d="M268 337h3l1-3 2 20-1-5 1-4v4l-5 4 4 3-13 3 7-3-4 15 4-17-12 10 2-6 6-31 9-1-8 14-10 31 5-14-9 23-5-10 15-3-1 20-11-7 1-14 2-5 1-3 2 18-7-7 1 12-1-2-2 7-3-9-4 8 2-10-1 5v1l4 2 4 2v-2l2 3-3 15 4-8 4 8 3-6-1 9 2 5v-10l-1-5 2-2"/><circle cx="268" cy="337" r="1.81" fill="#923E8B" opacity=".9" stroke="#923E8B" stroke-opacity=".6"/><path cx="259" cy="392" r="3.24" fill="#923E8B" opacity=".9" d="M254.42 392l6.87-2.3-2.29 6.88z"/></g><g class="key-Bolivia"><path stroke-width="1.62" opacity=".9" stroke="#932834" fill="none" stroke-linecap="butt" d="M284 262l-4 6 3-6v-9l4 10 5 2 4 14 3 4 7 4 5 15 8-1 2 15 4 3 2 2 3 6h6l4-7 5 2 7 3 2 3 2 5-4 3-4-8-1 23-9-83-8 23-1 21-4 33-7 27 1 28 3-8 1 3h3l5-1-1 6 3-1 3-3 4 1 3 3 5-3 4 12-2-2h1l-1-1 1 1 2-2h3l3 4 5 3 4 5 6-3 2-1 4 4"/><circle cx="284" cy="262" r="1.81" fill="#932834" opacity=".9" stroke="#932834" stroke-opacity=".6"/><path cx="380" cy="417" r="3.23" fill="#932834" opacity=".9" d="M380 412.43l2.28 6.85-6.85-2.28z"/></g><g class="key-Sweden"><path stroke-width="1.61" opacity=".9" stroke="#4C5C78" fill="none" stroke-linecap="butt" d="M194 299l7 1-2 4-9-8 9-4 1 11-6-9-7 5-7-25 11-2 10 21-9 1 2 12 1-16 5-3 3 11-4-4 1 19-1-5 1-17 5 3h0l-1-4 3 2 4 9 1 6-7-10 2-6 2 8-3-8 2 8-3-10 4 1 2 2-1-1 4 7v1l-3 2 2-9 2-1-2 2-7-5h3l6 1 3 10-4-5 3-1 2-5 5 4 3 8-2 4h-4l2 6 2-12 8 14-1-7 3 4 2-10 5 4 2 4-5-6-4 5 5-4 3 7 2 4-2-1 2-13-13 5 10-10 16-4 5 1 2 7 2 11 5 1-5 1 9-2-3 3-6-6 8-4-4 7 5 1-5-2 10-2-3 11 3-1 1 9-4 2 2 3 2 4 3 1 8-11-2-1 3 3 1 5 6 8h4l5 5 5 1h3l1 5 3-3-1 6 7 4 2 3-2 9 11-1 9-5-5-6 1-3 3 4 3 8 5-2 9-3 3 6 4-5 8-2-9 2-11-2 2 3 9 12-8 9 10 4 4 10 10 2 3 2 6-1 5 5 4 1 8 2 6 7-4 1-6 5 3-7 8 4 7-2 4-2h4l4 5 9 3h-11l-4-2 1 1 4-2 4-1 4 2 12 1 11 3 2 6 4-1 8-6 4-1 1-12 3 14 5 1 3 4 4-1 5 6v2l4 4 6-1 7 1 5 2 7 4 8-1 4 2 1 2 4 2 4 3 6 2h7l1-1 2 2 5 1 4-3h4l-2 2 2 1 5 2h2-1 12l2 1 4 1 2 1h3l-2 2-2 1h-3 10l2 1h10l7 1h21l4 3 6-1 5-1h-8 8"/><circle cx="194" cy="299" r="1.81" fill="#4C5C78" opacity=".9" stroke="#4C5C78" stroke-opacity=".6"/><path cx="673" cy="470" r="3.23" fill="#4C5C78" opacity=".9" d="M669.77 466.77l6.46 3.23-6.46 3.23z"/></g><g class="key-Denmark"><path stroke-width="1.6" opacity=".9" stroke="#4C5C78" fill="none" stroke-linecap="butt" d="M570 445l3-1 6-1 4-2h-2l-1 5 8 1 2-2 1-1 5 4h-1l-1-2 4-2 4 5 6-5 6 3 4 2 1 4h1v-3l2 2 2 2 3 1 1 1 7 1 4-2h4l5 2 3 3 5 2 5-2 2-1 1 3 1 2h4l3 3h6l1 1v1h-7l2-3"/><circle cx="570" cy="445" r="1.8" fill="#4C5C78" opacity=".9" stroke="#4C5C78" stroke-opacity=".6"/><path cx="674" cy="466" r="3.21" fill="#4C5C78" opacity=".9" d="M669.55 466.89l6.23-3.56-.89 7.12z"/></g><g class="key-Singapore"><path stroke-width="1.6" opacity=".9" stroke="#2D8587" fill="none" stroke-linecap="butt" d="M415 465h14l15 2 12-1 6 2 4-1 9 1h8l10 1h10l12 1h7l3 1h10l9 1h-1l1 1h42l6 1h54-6 17-4 19l8 1h21-2 19"/><circle cx="415" cy="465" r="1.8" fill="#2D8587" opacity=".9" stroke="#2D8587" stroke-opacity=".6"/><path cx="718" cy="475" r="3.21" fill="#2D8587" opacity=".9" d="M714.79 471.79l6.42 3.21-6.42 3.21z"/></g><g class="key-Costa-Rica"><path stroke-width="1.6" opacity=".9" stroke="#E04E4B" fill="none" stroke-linecap="butt" d="M311 364l-1 1h26l-4 2 10 1-9 17 6-5 11-3v12l6-3v-6l3 3 7 1 2 3 7-1 6 1 4 1h11l5 3 5 9 8 1h6l4 3-1-4h3l8-6 3 7 2 7-1 3-7-20-14-6v10l7 3-3 8 3-8 3 11h1l4 2 1 5v-5h9l5 3 2-2 2-1-2 4h9l2 11 2 5 2 4 2 1 4-1 3 1 3-1h8l8 2 5 6-4-1 5 1"/><circle cx="311" cy="364" r="1.8" fill="#E04E4B" opacity=".9" stroke="#E04E4B" stroke-opacity=".6"/><path cx="498" cy="443" r="3.2" fill="#E04E4B" opacity=".9" d="M495.49 439.23l5.65 4.4-6.9 1.88z"/></g><g class="key-Botswana"><path stroke-width="1.59" opacity=".9" stroke="#923E8B" fill="none" stroke-linecap="butt" d="M82 278l2 16 11-5 11-24 12-23 11 39 10 36 28 15h28l22 1 5 6 5 9 7 29 7 1 8 11 12 20 10 13 10 3 6-1 11 16 12 5 8 5 6 5 6 1 12-7 36 5h5l9 1h3l1-3 4 3 8-4 7 5 11 1v2h13l3 2 1 1 8 1 7-2 4 2 7 2 12-1 12-1 9-1-11-3 13 1"/><circle cx="82" cy="278" r="1.8" fill="#923E8B" opacity=".9" stroke="#923E8B" stroke-opacity=".6"/><path cx="504" cy="460" r="3.19" fill="#923E8B" opacity=".9" d="M501.06 456.57l6.12 3.67-6.6 2.7z"/></g><g class="key-Mauritius"><path stroke-width="1.59" opacity=".9" stroke="#923E8B" fill="none" stroke-linecap="butt" d="M358 391l25-31-3 5 15-30-14 37h1l-8 2 3-1-13 3 5-9-3 4 4-7 9-6 14-8 9 9v4l26-2 6 14 3 9 2-5-17 32 6-10 5-6-1 7 6-2 8-4 11 1 13 7 8 7 5 4 8 1 2 5 4 1 3 5 2 3 2-2 3 1 4 3 4 2-1 14 7-4 1-2-1 5 4-1h2l-1 2 3 1 4 4 4 2 1 1 2 1"/><circle cx="358" cy="391" r="1.8" fill="#923E8B" opacity=".9" stroke="#923E8B" stroke-opacity=".6"/><path cx="540" cy="457" r="3.18" fill="#923E8B" opacity=".9" d="M538.58 452.73l4.26 5.7h-7.1z"/></g><text x="140.4" y="237.78" font-size="8" font-family="Arial, sans-serif" font-weight="400" fill="#fff" stroke="#fff" stroke-linecap="round" stroke-linejoin="round" stroke-width=".25em">1952</text><text x="140.4" y="237.78" font-size="8" font-family="Arial, sans-serif" font-weight="400" fill="#2D8587">1952</text><text x="471.99" y="434.16" font-size="15.6" font-family="Arial, sans-serif" font-weight="700" fill="#fff" stroke="#fff" stroke-linecap="round" stroke-linejoin="round" stroke-width=".25em">China</text><text x="471.99" y="434.16" font-size="15.6" font-family="Arial, sans-serif" font-weight="700" fill="#2D8587">China</text><text x="133.1" y="212.1" font-size="8" font-family="Arial, sans-serif" font-weight="400" fill="#fff" stroke="#fff" stroke-linecap="round" stroke-linejoin="round" stroke-width=".25em">1950</text><text x="133.1" y="212.1" font-size="8" font-family="Arial, sans-serif" font-weight="400" fill="#2D8587">1950</text><text x="366.85" y="388.79" font-size="15.25" font-family="Arial, sans-serif" font-weight="700" fill="#fff" stroke="#fff" stroke-linecap="round" stroke-linejoin="round" stroke-width=".25em">India</text><text x="366.85" y="388.79" font-size="15.25" font-family="Arial, sans-serif" font-weight="700" fill="#2D8587">India</text><text x="309.26" y="277.07" font-size="8" font-family="Arial, sans-serif" font-weight="400" fill="#fff" stroke="#fff" stroke-linecap="round" stroke-linejoin="round" stroke-width=".25em">1839</text><text x="309.26" y="277.07" font-size="8" font-family="Arial, sans-serif" font-weight="400" fill="#E04E4B">1839</text><text x="621.75" y="470" font-size="12.81" font-family="Arial, sans-serif" font-weight="700" fill="#fff" stroke="#fff" stroke-linecap="round" stroke-linejoin="round" stroke-width=".25em">United States</text><text x="621.75" y="470" font-size="12.81" font-family="Arial, sans-serif" font-weight="700" fill="#E04E4B">United States</text><text x="453" y="404" font-size="12.63" font-family="Arial, sans-serif" font-weight="700" fill="#fff" stroke="#fff" stroke-linecap="round" stroke-linejoin="round" stroke-width=".25em">Indonesia</text><text x="453" y="404" font-size="12.63" font-family="Arial, sans-serif" font-weight="700" fill="#2D8587">Indonesia</text><text x="419.84" y="459.47" font-size="8" font-family="Arial, sans-serif" font-weight="400" fill="#fff" stroke="#fff" stroke-linecap="round" stroke-linejoin="round" stroke-width=".25em">1990</text><text x="419.84" y="459.47" font-size="8" font-family="Arial, sans-serif" font-weight="400" fill="#932834">1990</text><text x="525.92" y="456.15" font-size="12.51" font-family="Arial, sans-serif" font-weight="700" fill="#fff" stroke="#fff" stroke-linecap="round" stroke-linejoin="round" stroke-width=".25em">Brazil</text><text x="525.92" y="456.15" font-size="12.51" font-family="Arial, sans-serif" font-weight="700" fill="#932834">Brazil</text><text x="172.46" y="206.04" font-size="8" font-family="Arial, sans-serif" font-weight="400" fill="#fff" stroke="#fff" stroke-linecap="round" stroke-linejoin="round" stroke-width=".25em">1960</text><text x="172.46" y="206.04" font-size="8" font-family="Arial, sans-serif" font-weight="400" fill="#923E8B">1960</text><text x="374.9" y="342.83" font-size="12.42" font-family="Arial, sans-serif" font-weight="700" fill="#fff" stroke="#fff" stroke-linecap="round" stroke-linejoin="round" stroke-width=".25em">Nigeria</text><text x="374.9" y="342.83" font-size="12.42" font-family="Arial, sans-serif" font-weight="700" fill="#923E8B">Nigeria</text><text x="398.57" y="425.15" font-size="12.25" font-family="Arial, sans-serif" font-weight="700" fill="#fff" stroke="#fff" stroke-linecap="round" stroke-linejoin="round" stroke-width=".25em">Philippines</text><text x="398.57" y="425.15" font-size="12.25" font-family="Arial, sans-serif" font-weight="700" fill="#2D8587">Philippines</text><text x="89.11" y="115.8" font-size="8" font-family="Arial, sans-serif" font-weight="400" fill="#fff" stroke="#fff" stroke-linecap="round" stroke-linejoin="round" stroke-width=".25em">1961</text><text x="89.11" y="115.8" font-size="8" font-family="Arial, sans-serif" font-weight="400" fill="#923E8B">1961</text><text x="168.35" y="267.53" font-size="12.23" font-family="Arial, sans-serif" font-weight="700" fill="#fff" stroke="#fff" stroke-linecap="round" stroke-linejoin="round" stroke-width=".25em">Ethiopia</text><text x="168.35" y="267.53" font-size="12.23" font-family="Arial, sans-serif" font-weight="700" fill="#923E8B">Ethiopia</text><text x="198.01" y="357.45" font-size="8" font-family="Arial, sans-serif" font-weight="400" fill="#fff" stroke="#fff" stroke-linecap="round" stroke-linejoin="round" stroke-width=".25em">1960</text><text x="198.01" y="357.45" font-size="8" font-family="Arial, sans-serif" font-weight="400" fill="#923E8B">1960</text><text x="486.96" y="410.38" font-size="12.22" font-family="Arial, sans-serif" font-weight="700" fill="#fff" stroke="#fff" stroke-linecap="round" stroke-linejoin="round" stroke-width=".25em">Egypt</text><text x="486.96" y="410.38" font-size="12.22" font-family="Arial, sans-serif" font-weight="700" fill="#923E8B">Egypt</text><text x="516.47" y="414.76" font-size="12.18" font-family="Arial, sans-serif" font-weight="700" fill="#fff" stroke="#fff" stroke-linecap="round" stroke-linejoin="round" stroke-width=".25em">Thailand</text><text x="516.47" y="414.76" font-size="12.18" font-family="Arial, sans-serif" font-weight="700" fill="#2D8587">Thailand</text><text x="214.08" y="291" font-size="8" font-family="Arial, sans-serif" font-weight="400" fill="#fff" stroke="#fff" stroke-linecap="round" stroke-linejoin="round" stroke-width=".25em">1820</text><text x="214.08" y="291" font-size="8" font-family="Arial, sans-serif" font-weight="400" fill="#4C5C78">1820</text><text x="653.54" y="458.46" font-size="12.16" font-family="Arial, sans-serif" font-weight="700" fill="#fff" stroke="#fff" stroke-linecap="round" stroke-linejoin="round" stroke-width=".25em">France</text><text x="653.54" y="458.46" font-size="12.16" font-family="Arial, sans-serif" font-weight="700" fill="#4C5C78">France</text><text x="493.64" y="470.92" font-size="12.13" font-family="Arial, sans-serif" font-weight="700" fill="#fff" stroke="#fff" stroke-linecap="round" stroke-linejoin="round" stroke-width=".25em">South Africa</text><text x="493.64" y="470.92" font-size="12.13" font-family="Arial, sans-serif" font-weight="700" fill="#923E8B">South Africa</text><text x="168.24" y="178.47" font-size="8" font-family="Arial, sans-serif" font-weight="400" fill="#fff" stroke="#fff" stroke-linecap="round" stroke-linejoin="round" stroke-width=".25em">1911</text><text x="168.24" y="178.47" font-size="8" font-family="Arial, sans-serif" font-weight="400" fill="#2D8587">1911</text><text x="329" y="326" font-size="8" font-family="Arial, sans-serif" font-weight="400" fill="#fff" stroke="#fff" stroke-linecap="round" stroke-linejoin="round" stroke-width=".25em">1950</text><text x="329" y="326" font-size="8" font-family="Arial, sans-serif" font-weight="400" fill="#932834">1950</text><text x="492.85" y="446.27" font-size="12.12" font-family="Arial, sans-serif" font-weight="700" fill="#fff" stroke="#fff" stroke-linecap="round" stroke-linejoin="round" stroke-width=".25em">Colombia</text><text x="492.85" y="446.27" font-size="12.12" font-family="Arial, sans-serif" font-weight="700" fill="#932834">Colombia</text><text x="111.77" y="351.84" font-size="8" font-family="Arial, sans-serif" font-weight="400" fill="#fff" stroke="#fff" stroke-linecap="round" stroke-linejoin="round" stroke-width=".25em">1960</text><text x="111.77" y="351.84" font-size="8" font-family="Arial, sans-serif" font-weight="400" fill="#923E8B">1960</text><text x="257.68" y="345.81" font-size="12.12" font-family="Arial, sans-serif" font-weight="700" fill="#fff" stroke="#fff" stroke-linecap="round" stroke-linejoin="round" stroke-width=".25em">Tanzania</text><text x="257.68" y="345.81" font-size="12.12" font-family="Arial, sans-serif" font-weight="700" fill="#923E8B">Tanzania</text><text x="176.54" y="229.46" font-size="8" font-family="Arial, sans-serif" font-weight="400" fill="#fff" stroke="#fff" stroke-linecap="round" stroke-linejoin="round" stroke-width=".25em">1960</text><text x="176.54" y="229.46" font-size="8" font-family="Arial, sans-serif" font-weight="400" fill="#923E8B">1960</text><text x="287.72" y="368.4" font-size="12.11" font-family="Arial, sans-serif" font-weight="700" fill="#fff" stroke="#fff" stroke-linecap="round" stroke-linejoin="round" stroke-width=".25em">Kenya</text><text x="287.72" y="368.4" font-size="12.11" font-family="Arial, sans-serif" font-weight="700" fill="#923E8B">Kenya</text><text x="469.79" y="451.47" font-size="12.07" font-family="Arial, sans-serif" font-weight="700" fill="#fff" stroke="#fff" stroke-linecap="round" stroke-linejoin="round" stroke-width=".25em">Peru</text><text x="469.79" y="451.47" font-size="12.07" font-family="Arial, sans-serif" font-weight="700" fill="#932834">Peru</text><text x="298.15" y="327.18" font-size="8" font-family="Arial, sans-serif" font-weight="400" fill="#fff" stroke="#fff" stroke-linecap="round" stroke-linejoin="round" stroke-width=".25em">1970</text><text x="298.15" y="327.18" font-size="8" font-family="Arial, sans-serif" font-weight="400" fill="#2D8587">1970</text><text x="562.16" y="423.23" font-size="12.07" font-family="Arial, sans-serif" font-weight="700" fill="#fff" stroke="#fff" stroke-linecap="round" stroke-linejoin="round" stroke-width=".25em">Malaysia</text><text x="562.16" y="423.23" font-size="12.07" font-family="Arial, sans-serif" font-weight="700" fill="#2D8587">Malaysia</text><text x="305.29" y="345.79" font-size="12.06" font-family="Arial, sans-serif" font-weight="700" fill="#fff" stroke="#fff" stroke-linecap="round" stroke-linejoin="round" stroke-width=".25em">Ghana</text><text x="305.29" y="345.79" font-size="12.06" font-family="Arial, sans-serif" font-weight="700" fill="#923E8B">Ghana</text><text x="189.08" y="317" font-size="8" font-family="Arial, sans-serif" font-weight="400" fill="#fff" stroke="#fff" stroke-linecap="round" stroke-linejoin="round" stroke-width=".25em">1951</text><text x="189.08" y="317" font-size="8" font-family="Arial, sans-serif" font-weight="400" fill="#2D8587">1951</text><text x="565.93" y="465.84" font-size="12.04" font-family="Arial, sans-serif" font-weight="700" fill="#fff" stroke="#fff" stroke-linecap="round" stroke-linejoin="round" stroke-width=".25em">Chile</text><text x="565.93" y="465.84" font-size="12.04" font-family="Arial, sans-serif" font-weight="700" fill="#932834">Chile</text><text x="344.86" y="362.81" font-size="8" font-family="Arial, sans-serif" font-weight="400" fill="#fff" stroke="#fff" stroke-linecap="round" stroke-linejoin="round" stroke-width=".25em">1807</text><text x="344.86" y="362.81" font-size="8" font-family="Arial, sans-serif" font-weight="400" fill="#4C5C78">1807</text><text x="85.26" y="242.58" font-size="8" font-family="Arial, sans-serif" font-weight="400" fill="#fff" stroke="#fff" stroke-linecap="round" stroke-linejoin="round" stroke-width=".25em">1960</text><text x="85.26" y="242.58" font-size="8" font-family="Arial, sans-serif" font-weight="400" fill="#923E8B">1960</text><text x="168.74" y="339.6" font-size="12.04" font-family="Arial, sans-serif" font-weight="700" fill="#fff" stroke="#fff" stroke-linecap="round" stroke-linejoin="round" stroke-width=".25em">Malawi</text><text x="168.74" y="339.6" font-size="12.04" font-family="Arial, sans-serif" font-weight="700" fill="#923E8B">Malawi</text><text x="213.57" y="447.29" font-size="8" font-family="Arial, sans-serif" font-weight="400" fill="#fff" stroke="#fff" stroke-linecap="round" stroke-linejoin="round" stroke-width=".25em">1960</text><text x="213.57" y="447.29" font-size="8" font-family="Arial, sans-serif" font-weight="400" fill="#923E8B">1960</text><text x="310.21" y="435.72" font-size="12.03" font-family="Arial, sans-serif" font-weight="700" fill="#fff" stroke="#fff" stroke-linecap="round" stroke-linejoin="round" stroke-width=".25em">Zambia</text><text x="310.21" y="435.72" font-size="12.03" font-family="Arial, sans-serif" font-weight="700" fill="#923E8B">Zambia</text><text x="262.54" y="388.46" font-size="12.03" font-family="Arial, sans-serif" font-weight="700" fill="#fff" stroke="#fff" stroke-linecap="round" stroke-linejoin="round" stroke-width=".25em">Senegal</text><text x="262.54" y="388.46" font-size="12.03" font-family="Arial, sans-serif" font-weight="700" fill="#923E8B">Senegal</text><text x="286.77" y="257.84" font-size="8" font-family="Arial, sans-serif" font-weight="400" fill="#fff" stroke="#fff" stroke-linecap="round" stroke-linejoin="round" stroke-width=".25em">1958</text><text x="286.77" y="257.84" font-size="8" font-family="Arial, sans-serif" font-weight="400" fill="#932834">1958</text><text x="173.13" y="298.29" font-size="8" font-family="Arial, sans-serif" font-weight="400" fill="#fff" stroke="#fff" stroke-linecap="round" stroke-linejoin="round" stroke-width=".25em">1801</text><text x="173.13" y="298.29" font-size="8" font-family="Arial, sans-serif" font-weight="400" fill="#4C5C78">1801</text><text x="394.08" y="465" font-size="8" font-family="Arial, sans-serif" font-weight="400" fill="#fff" stroke="#fff" stroke-linecap="round" stroke-linejoin="round" stroke-width=".25em">1970</text><text x="394.08" y="465" font-size="8" font-family="Arial, sans-serif" font-weight="400" fill="#2D8587">1970</text><text x="83.38" y="273.04" font-size="8" font-family="Arial, sans-serif" font-weight="400" fill="#fff" stroke="#fff" stroke-linecap="round" stroke-linejoin="round" stroke-width=".25em">1964</text><text x="83.38" y="273.04" font-size="8" font-family="Arial, sans-serif" font-weight="400" fill="#923E8B">1964</text><text x="338.94" y="398.89" font-size="8" font-family="Arial, sans-serif" font-weight="400" fill="#fff" stroke="#fff" stroke-linecap="round" stroke-linejoin="round" stroke-width=".25em">1960</text><text x="338.94" y="398.89" font-size="8" font-family="Arial, sans-serif" font-weight="400" fill="#923E8B">1960</text></g><g class="ScatterColorLegend clickable" cursor="pointer"><g class="legendMark"><path fill="#923E8B" d="M738.09 109.6h9v9h-9z"/><text font-size="12.6" x="752.1" y="117.9" font-weight="700"><tspan x="752.09" y="117.88">Africa</tspan></text></g><g class="legendMark"><path fill="#2D8587" d="M738.09 127.2h9v9h-9z"/><text font-size="12.6" x="752.1" y="135.5"><tspan x="752.09" y="135.48">Asia</tspan></text></g><g class="legendMark"><path fill="#4C5C78" d="M738.09 144.8h9v9h-9z"/><text font-size="12.6" x="752.1" y="153.1"><tspan x="752.09" y="153.08">Europe</tspan></text></g><g class="legendMark"><path fill="#E04E4B" d="M738.09 162.4h9v9h-9z"/><text font-size="12.6" x="752.1" y="170.7" font-weight="700"><tspan x="752.09" y="170.68">North America</tspan></text></g><g class="legendMark"><path fill="#932834" d="M738.09 180h9v9h-9z"/><text font-size="12.6" x="752.1" y="188.3"><tspan x="752.09" y="188.28">South America</tspan></text></g></g><path stroke="#ccc" d="M738.09 197.8H830"/><g class="clickable"><g class="ConnectedScatterLegend"><text font-size="12.6" x="738.1" y="216.9" fill="#333"><tspan x="738.09" y="216.88">1801</tspan></text><text font-size="12.6" x="806.8" y="216.9" fill="#333"><tspan x="806.78" y="216.88">2010</tspan></text><path stroke="#666" stroke-width="1" d="M771.32 212.6h30.46"/><circle cx="771.32" cy="212.6" r="2" fill="#666" stroke="#ccc" stroke-width=".2"/><circle cx="781.47" cy="212.6" r="2" fill="#666" stroke="#ccc" stroke-width=".2"/><circle cx="791.62" cy="212.6" r="2" fill="#666" stroke="#ccc" stroke-width=".2"/><path cx="801.78" cy="212.6" r="3" fill="#666" stroke="#ccc" stroke-width=".2" d="M798.78 209.6l6 3-6 3z"/></g></g></g><g class="SourcesFooter" fill="#777"><g fill="#777"><text font-size="12.6" x="15" y="554.2"><tspan x="15" y="554.18">Source: Our World In Data based on Herrendorf et al. (2014) and GGDC-10 (2015), Maddison Project Database 2020 (Bolt and van Zanden</tspan><tspan x="15" y="568.04">(2020))</tspan></text></g><text font-size="12.6" x="15" y="582.5"><tspan x="15" y="582.48"><a target="_blank" href="https://ourworldindata.org/employment-in-agriculture" fill="#777">OurWorldInData.org/employment-in-agriculture</a> • <a class="cclogo" href="http://creativecommons.org/licenses/by/4.0/deed.en_US" target="_blank" fill="#777">CC BY</a></tspan></text></g></svg>