<svg xmlns="http://www.w3.org/2000/svg" version="1.1" style="font-family:Lato,'Helvetica Neue',Helvetica,Arial,sans-serif;font-size:18px;background-color:#fff;text-rendering:geometricPrecision;-webkit-font-smoothing:antialiased" width="850" height="600" viewBox="0 0 850 600"><g class="HeaderView"><g transform="matrix(.29 0 0 .29 774 15)"><svg className="owidLog" width="210" height="120" viewBox="0 0 210 120" fill="none" xmlns="http://www.w3.org/2000/svg"><g clip-path="url(#a)"><path d="M0 0h210v107.89H0V0z" fill="#002147"/><path d="M40.98 32.25c0 2.36-.38 4.53-1.12 6.51a14.26 14.26 0 0 1-8.1 8.4c-1.9.78-4.02 1.17-6.34 1.17a16.6 16.6 0 0 1-6.33-1.17 14.31 14.31 0 0 1-8.08-8.4 18.29 18.29 0 0 1-1.12-6.51c0-2.36.38-4.53 1.12-6.5.75-1.97 1.8-3.67 3.17-5.1a14.32 14.32 0 0 1 4.9-3.34c1.92-.8 4.03-1.19 6.34-1.19 2.32 0 4.43.4 6.34 1.19 1.92.8 3.56 1.9 4.93 3.34a14.87 14.87 0 0 1 3.17 5.1 18.1 18.1 0 0 1 1.12 6.5zm-4.38 0c0-1.94-.26-3.68-.8-5.22a10.91 10.91 0 0 0-2.24-3.89 9.68 9.68 0 0 0-3.52-2.46 11.95 11.95 0 0 0-4.62-.86c-1.68 0-3.21.28-4.6.86a9.88 9.88 0 0 0-3.54 2.46 10.91 10.91 0 0 0-2.24 3.9c-.53 1.53-.8 3.27-.8 5.2 0 1.94.27 3.68.8 5.22a11.17 11.17 0 0 0 2.24 3.9 10.01 10.01 0 0 0 3.55 2.44c1.38.56 2.9.83 4.6.83s3.24-.27 4.61-.83a9.8 9.8 0 0 0 3.52-2.44 11.17 11.17 0 0 0 2.25-3.9c.53-1.54.8-3.28.8-5.21zm26.22-6.54V48H60.5c-.56 0-.9-.27-1.05-.81l-.31-2.4a12.45 12.45 0 0 1-3.26 2.6c-1.2.64-2.58.96-4.13.96-1.22 0-2.3-.2-3.24-.6a6.52 6.52 0 0 1-2.33-1.7 7.37 7.37 0 0 1-1.43-2.67c-.3-1.04-.46-2.2-.46-3.45V25.7h3.91v14.22c0 1.68.38 2.99 1.15 3.91.77.93 1.96 1.39 3.54 1.39 1.16 0 2.24-.27 3.23-.82a10.42 10.42 0 0 0 2.8-2.28V25.7h3.91zm8.61 4.47a9.94 9.94 0 0 1 2.6-3.56 5.64 5.64 0 0 1 3.76-1.3c.47 0 .92.05 1.34.15.44.1.83.27 1.17.49l-.3 2.92c-.09.37-.3.55-.66.55-.2 0-.5-.04-.9-.13a6.21 6.21 0 0 0-3.24.18 4.23 4.23 0 0 0-1.47.92c-.42.4-.81.9-1.17 1.5-.33.58-.64 1.26-.92 2.02V48H67.7V25.71h2.25c.42 0 .72.08.88.25.16.16.27.44.33.83l.26 3.39zm61.16-13.7L122.75 48h-3.82l-7.99-24.05a21.95 21.95 0 0 1-.42-1.58 38.36 38.36 0 0 1-.44 1.58L102.05 48h-3.83L88.4 16.47h3.54c.38 0 .7.1.95.29.26.2.43.43.5.73l6.52 21.9.28 1.28.29 1.46.3-1.46.38-1.27 7.41-21.91c.1-.25.26-.48.51-.69.27-.22.58-.33.95-.33h1.23c.38 0 .69.1.92.29a1.77 1.77 0 0 1 .53.73l7.4 21.9a28.4 28.4 0 0 1 .68 2.62 29.52 29.52 0 0 1 .52-2.61l6.54-21.91a1.31 1.31 0 0 1 .48-.7c.27-.21.58-.32.95-.32h3.32zm9.35 8.88c1.63 0 3.1.27 4.4.82a9.43 9.43 0 0 1 5.46 5.94c.5 1.4.74 2.98.74 4.73 0 1.76-.25 3.34-.74 4.75a9.43 9.43 0 0 1-5.46 5.92c-1.3.52-2.77.79-4.4.79-1.64 0-3.12-.27-4.44-.8a9.42 9.42 0 0 1-3.35-2.3c-.92-1-1.63-2.2-2.13-3.61-.49-1.41-.73-3-.73-4.75s.24-3.33.73-4.73c.5-1.43 1.2-2.64 2.13-3.63a9.4 9.4 0 0 1 3.35-2.31c1.32-.55 2.8-.82 4.44-.82zm0 19.89c2.2 0 3.84-.73 4.93-2.2 1.08-1.48 1.63-3.54 1.63-6.18 0-2.66-.55-4.72-1.63-6.2-1.09-1.49-2.73-2.23-4.93-2.23-1.12 0-2.09.2-2.93.57a5.71 5.71 0 0 0-2.06 1.65 7.5 7.5 0 0 0-1.24 2.67c-.26 1.04-.4 2.22-.4 3.54 0 2.64.55 4.7 1.64 6.18 1.1 1.47 2.76 2.2 4.99 2.2zm17.97-15.07a9.94 9.94 0 0 1 2.6-3.56 5.64 5.64 0 0 1 3.76-1.3c.47 0 .91.05 1.34.15.44.1.83.27 1.16.49l-.28 2.92c-.09.37-.31.55-.66.55-.2 0-.5-.04-.9-.13a6.2 6.2 0 0 0-3.24.18 4.23 4.23 0 0 0-1.47.92c-.43.4-.82.9-1.17 1.5a13.1 13.1 0 0 0-.92 2.02V48h-3.94V25.71h2.24c.43 0 .72.08.88.25.17.16.28.44.33.83l.27 3.39zm15.04-14.59V48h-3.92V15.6h3.92zm19.55 15.43a6.22 6.22 0 0 0-2.38-2.05 6.7 6.7 0 0 0-2.86-.6c-2.07 0-3.66.75-4.77 2.23-1.12 1.48-1.68 3.6-1.68 6.33 0 1.46.13 2.7.38 3.74a7.29 7.29 0 0 0 1.1 2.56 4.35 4.35 0 0 0 1.78 1.45c.7.3 1.5.46 2.4.46 1.29 0 2.41-.3 3.36-.88a9.6 9.6 0 0 0 2.67-2.49V31.02zm3.91-15.43V48h-2.33c-.56 0-.9-.27-1.06-.81l-.35-2.71a12.13 12.13 0 0 1-3.25 2.77 8.28 8.28 0 0 1-4.23 1.06 7.31 7.31 0 0 1-6.14-2.9c-.73-.96-1.3-2.15-1.69-3.57a18.35 18.35 0 0 1 .07-9.48 11.29 11.29 0 0 1 1.89-3.7 8.7 8.7 0 0 1 7.06-3.34 7.96 7.96 0 0 1 6.12 2.62V15.59h3.91zM46.61 70.71V93H42.7V70.71h3.91zm.84-7c0 .39-.08.75-.24 1.09a2.81 2.81 0 0 1-1.52 1.47 2.67 2.67 0 0 1-2.16 0 2.9 2.9 0 0 1-1.45-1.47 2.67 2.67 0 0 1 0-2.16c.15-.35.35-.65.6-.9.25-.27.53-.47.85-.62a2.67 2.67 0 0 1 2.16 0c.35.15.65.35.9.62.27.25.47.55.62.9.16.34.24.7.24 1.08zm7.97 10.24c.49-.54 1-1.04 1.54-1.48a9.85 9.85 0 0 1 3.66-1.84 8.96 8.96 0 0 1 5.43.35c.94.4 1.72.97 2.33 1.71a7.36 7.36 0 0 1 1.43 2.67c.32 1.04.49 2.19.49 3.45V93h-3.94V78.81c0-1.69-.4-3-1.17-3.92-.76-.93-1.93-1.4-3.5-1.4a6.6 6.6 0 0 0-3.25.83c-1 .56-1.92 1.31-2.77 2.27V93h-3.94V70.71h2.35c.56 0 .9.28 1.04.82l.3 2.42zm57.7 3.3c0 2.36-.37 4.5-1.11 6.44a14.3 14.3 0 0 1-3.17 4.98 14.1 14.1 0 0 1-4.93 3.2c-1.9.76-4.02 1.13-6.33 1.13H85.8V61.47h11.77c2.31 0 4.42.39 6.33 1.15a13.8 13.8 0 0 1 8.1 8.18 17.75 17.75 0 0 1 1.12 6.45zm-4.37 0c0-1.94-.26-3.67-.8-5.2a10.94 10.94 0 0 0-2.23-3.87 9.57 9.57 0 0 0-3.53-2.42 12.23 12.23 0 0 0-4.61-.83h-7.5v24.62h7.5c1.7 0 3.24-.28 4.61-.84a9.7 9.7 0 0 0 3.53-2.4 10.94 10.94 0 0 0 2.24-3.87c.53-1.53.8-3.26.8-5.2zm19.8 5.72c-1.8.06-3.34.2-4.62.44-1.26.22-2.3.51-3.1.88-.8.36-1.37.8-1.74 1.3-.35.5-.53 1.05-.53 1.67 0 .58.1 1.1.3 1.52a3 3 0 0 0 .76 1.05c.34.27.73.46 1.17.6a6.13 6.13 0 0 0 1.45.17 7.28 7.28 0 0 0 3.5-.81 11.95 11.95 0 0 0 2.82-2.2v-4.62zm-12.65-9.11a12.73 12.73 0 0 1 3.98-2.66c1.43-.59 3-.88 4.73-.88 1.25 0 2.36.2 3.33.61a6.81 6.81 0 0 1 3.94 4.38c.33 1.04.5 2.19.5 3.43V93h-1.74a1.8 1.8 0 0 1-.88-.18c-.2-.13-.36-.38-.48-.74l-.44-2.12-1.72 1.46a9.48 9.48 0 0 1-3.74 1.7c-.69.15-1.46.23-2.3.23-.87 0-1.69-.12-2.45-.35a5.34 5.34 0 0 1-3.34-2.93 6.64 6.64 0 0 1-.49-2.64c0-.88.25-1.72.73-2.53a6.33 6.33 0 0 1 2.35-2.17c1.09-.63 2.5-1.15 4.25-1.54 1.75-.41 3.89-.65 6.42-.7v-1.75c0-1.73-.37-3.03-1.12-3.91-.75-.9-1.84-1.34-3.28-1.34-.97 0-1.78.12-2.44.37-.64.23-1.2.5-1.7.81l-1.23.82c-.33.23-.67.35-1 .35-.27 0-.5-.07-.69-.2a2.1 2.1 0 0 1-.48-.53l-.7-1.25zm27.67 19.5c-1.76 0-3.12-.5-4.07-1.48-.94-.98-1.41-2.4-1.41-4.25V74h-2.68a.9.9 0 0 1-.6-.2c-.16-.14-.24-.36-.24-.66v-1.56l3.65-.46.9-6.89a.9.9 0 0 1 .29-.52.88.88 0 0 1 .62-.22H142v7.67h6.44V74H142v13.38c0 .94.22 1.63.68 2.09.45.45 1.04.68 1.76.68a3.21 3.21 0 0 0 1.85-.53l.55-.35c.16-.12.3-.18.41-.18.2 0 .4.13.55.38l1.15 1.87a7.45 7.45 0 0 1-2.44 1.5 8.53 8.53 0 0 1-2.95.52zm19.68-10.4c-1.8.07-3.34.21-4.62.45-1.26.22-2.3.51-3.1.88-.8.36-1.37.8-1.74 1.3-.35.5-.53 1.05-.53 1.67 0 .58.1 1.1.3 1.52a2.9 2.9 0 0 0 .76 1.05c.34.27.73.46 1.17.6a6.13 6.13 0 0 0 1.45.17 7.3 7.3 0 0 0 3.5-.81 12.04 12.04 0 0 0 2.82-2.2v-4.62zm-12.65-9.1a12.72 12.72 0 0 1 3.99-2.66c1.42-.59 3-.88 4.72-.88 1.25 0 2.36.2 3.33.61a6.81 6.81 0 0 1 3.94 4.38c.33 1.04.5 2.19.5 3.43V93h-1.74a1.8 1.8 0 0 1-.88-.18c-.2-.13-.36-.38-.48-.74l-.44-2.12-1.72 1.46a9.48 9.48 0 0 1-3.74 1.7c-.69.15-1.46.23-2.3.23-.87 0-1.69-.12-2.45-.35a5.33 5.33 0 0 1-3.34-2.93 6.62 6.62 0 0 1-.49-2.64c0-.88.25-1.72.73-2.53a6.33 6.33 0 0 1 2.35-2.17c1.09-.63 2.5-1.15 4.25-1.54a31.2 31.2 0 0 1 6.42-.7v-1.75c0-1.73-.37-3.03-1.12-3.91-.75-.9-1.84-1.34-3.28-1.34-.97 0-1.78.12-2.44.37-.64.23-1.2.5-1.7.81l-1.22.82c-.34.23-.68.35-1.02.35-.26 0-.49-.07-.68-.2a1.88 1.88 0 0 1-.48-.53l-.7-1.25zM40.98 32.25c0 2.36-.38 4.53-1.12 6.51a14.26 14.26 0 0 1-8.1 8.4c-1.9.78-4.02 1.17-6.34 1.17a16.6 16.6 0 0 1-6.33-1.17 14.31 14.31 0 0 1-8.08-8.4 18.29 18.29 0 0 1-1.12-6.51c0-2.36.38-4.53 1.12-6.5.75-1.97 1.8-3.67 3.17-5.1a14.32 14.32 0 0 1 4.9-3.34c1.92-.8 4.03-1.19 6.34-1.19 2.32 0 4.43.4 6.34 1.19 1.92.8 3.56 1.9 4.93 3.34a14.87 14.87 0 0 1 3.17 5.1 18.1 18.1 0 0 1 1.12 6.5zm-4.38 0c0-1.94-.26-3.68-.8-5.22a10.91 10.91 0 0 0-2.24-3.89 9.68 9.68 0 0 0-3.52-2.46 11.95 11.95 0 0 0-4.62-.86c-1.68 0-3.21.28-4.6.86a9.88 9.88 0 0 0-3.54 2.46 10.91 10.91 0 0 0-2.24 3.9c-.53 1.53-.8 3.27-.8 5.2 0 1.94.27 3.68.8 5.22a11.17 11.17 0 0 0 2.24 3.9 10.01 10.01 0 0 0 3.55 2.44c1.38.56 2.9.83 4.6.83s3.24-.27 4.61-.83a9.8 9.8 0 0 0 3.52-2.44 11.17 11.17 0 0 0 2.25-3.9c.53-1.54.8-3.28.8-5.21zm26.22-6.54V48H60.5c-.56 0-.9-.27-1.05-.81l-.31-2.4a12.45 12.45 0 0 1-3.26 2.6c-1.2.64-2.58.96-4.13.96-1.22 0-2.3-.2-3.24-.6a6.52 6.52 0 0 1-2.33-1.7 7.37 7.37 0 0 1-1.43-2.67c-.3-1.04-.46-2.2-.46-3.45V25.7h3.91v14.22c0 1.68.38 2.99 1.15 3.91.77.93 1.96 1.39 3.54 1.39 1.16 0 2.24-.27 3.23-.82a10.42 10.42 0 0 0 2.8-2.28V25.7h3.91zm8.61 4.47a9.94 9.94 0 0 1 2.6-3.56 5.64 5.64 0 0 1 3.76-1.3c.47 0 .92.05 1.34.15.44.1.83.27 1.17.49l-.3 2.92c-.09.37-.3.55-.66.55-.2 0-.5-.04-.9-.13a6.21 6.21 0 0 0-3.24.18 4.23 4.23 0 0 0-1.47.92c-.42.4-.81.9-1.17 1.5-.33.58-.64 1.26-.92 2.02V48H67.7V25.71h2.25c.42 0 .72.08.88.25.16.16.27.44.33.83l.26 3.39zm61.16-13.7L122.75 48h-3.82l-7.99-24.05a21.95 21.95 0 0 1-.42-1.58 38.36 38.36 0 0 1-.44 1.58L102.05 48h-3.83L88.4 16.47h3.54c.38 0 .7.1.95.29.26.2.43.43.5.73l6.52 21.9.28 1.28.29 1.46.3-1.46.38-1.27 7.41-21.91c.1-.25.26-.48.51-.69.27-.22.58-.33.95-.33h1.23c.38 0 .69.1.92.29a1.77 1.77 0 0 1 .53.73l7.4 21.9a28.4 28.4 0 0 1 .68 2.62 29.52 29.52 0 0 1 .52-2.61l6.54-21.91a1.31 1.31 0 0 1 .48-.7c.27-.21.58-.32.95-.32h3.32zm9.35 8.88c1.63 0 3.1.27 4.4.82a9.43 9.43 0 0 1 5.46 5.94c.5 1.4.74 2.98.74 4.73 0 1.76-.25 3.34-.74 4.75a9.43 9.43 0 0 1-5.46 5.92c-1.3.52-2.77.79-4.4.79-1.64 0-3.12-.27-4.44-.8a9.42 9.42 0 0 1-3.35-2.3c-.92-1-1.63-2.2-2.13-3.61-.49-1.41-.73-3-.73-4.75s.24-3.33.73-4.73c.5-1.43 1.2-2.64 2.13-3.63a9.4 9.4 0 0 1 3.35-2.31c1.32-.55 2.8-.82 4.44-.82zm0 19.89c2.2 0 3.84-.73 4.93-2.2 1.08-1.48 1.63-3.54 1.63-6.18 0-2.66-.55-4.72-1.63-6.2-1.09-1.49-2.73-2.23-4.93-2.23-1.12 0-2.09.2-2.93.57a5.71 5.71 0 0 0-2.06 1.65 7.5 7.5 0 0 0-1.24 2.67c-.26 1.04-.4 2.22-.4 3.54 0 2.64.55 4.7 1.64 6.18 1.1 1.47 2.76 2.2 4.99 2.2zm17.97-15.07a9.94 9.94 0 0 1 2.6-3.56 5.64 5.64 0 0 1 3.76-1.3c.47 0 .91.05 1.34.15.44.1.83.27 1.16.49l-.28 2.92c-.09.37-.31.55-.66.55-.2 0-.5-.04-.9-.13a6.2 6.2 0 0 0-3.24.18 4.23 4.23 0 0 0-1.47.92c-.43.4-.82.9-1.17 1.5a13.1 13.1 0 0 0-.92 2.02V48h-3.94V25.71h2.24c.43 0 .72.08.88.25.17.16.28.44.33.83l.27 3.39zm15.04-14.59V48h-3.92V15.6h3.92zm19.55 15.43a6.22 6.22 0 0 0-2.38-2.05 6.7 6.7 0 0 0-2.86-.6c-2.07 0-3.66.75-4.77 2.23-1.12 1.48-1.68 3.6-1.68 6.33 0 1.46.13 2.7.38 3.74a7.29 7.29 0 0 0 1.1 2.56 4.35 4.35 0 0 0 1.78 1.45c.7.3 1.5.46 2.4.46 1.29 0 2.41-.3 3.36-.88a9.6 9.6 0 0 0 2.67-2.49V31.02zm3.91-15.43V48h-2.33c-.56 0-.9-.27-1.06-.81l-.35-2.71a12.13 12.13 0 0 1-3.25 2.77 8.28 8.28 0 0 1-4.23 1.06 7.31 7.31 0 0 1-6.14-2.9c-.73-.96-1.3-2.15-1.69-3.57a18.35 18.35 0 0 1 .07-9.48 11.29 11.29 0 0 1 1.89-3.7 8.7 8.7 0 0 1 7.06-3.34 7.96 7.96 0 0 1 6.12 2.62V15.59h3.91zM46.61 70.71V93H42.7V70.71h3.91zm.84-7c0 .39-.08.75-.24 1.09a2.81 2.81 0 0 1-1.52 1.47 2.67 2.67 0 0 1-2.16 0 2.9 2.9 0 0 1-1.45-1.47 2.67 2.67 0 0 1 0-2.16c.15-.35.35-.65.6-.9.25-.27.53-.47.85-.62a2.67 2.67 0 0 1 2.16 0c.35.15.65.35.9.62.27.25.47.55.62.9.16.34.24.7.24 1.08zm7.97 10.24c.49-.54 1-1.04 1.54-1.48a9.85 9.85 0 0 1 3.66-1.84 8.96 8.96 0 0 1 5.43.35c.94.4 1.72.97 2.33 1.71a7.36 7.36 0 0 1 1.43 2.67c.32 1.04.49 2.19.49 3.45V93h-3.94V78.81c0-1.69-.4-3-1.17-3.92-.76-.93-1.93-1.4-3.5-1.4a6.6 6.6 0 0 0-3.25.83c-1 .56-1.92 1.31-2.77 2.27V93h-3.94V70.71h2.35c.56 0 .9.28 1.04.82l.3 2.42zm57.7 3.3c0 2.36-.37 4.5-1.11 6.44a14.3 14.3 0 0 1-3.17 4.98 14.1 14.1 0 0 1-4.93 3.2c-1.9.76-4.02 1.13-6.33 1.13H85.8V61.47h11.77c2.31 0 4.42.39 6.33 1.15a13.8 13.8 0 0 1 8.1 8.18 17.75 17.75 0 0 1 1.12 6.45zm-4.37 0c0-1.94-.26-3.67-.8-5.2a10.94 10.94 0 0 0-2.23-3.87 9.57 9.57 0 0 0-3.53-2.42 12.23 12.23 0 0 0-4.61-.83h-7.5v24.62h7.5c1.7 0 3.24-.28 4.61-.84a9.7 9.7 0 0 0 3.53-2.4 10.94 10.94 0 0 0 2.24-3.87c.53-1.53.8-3.26.8-5.2zm19.8 5.72c-1.8.06-3.34.2-4.62.44-1.26.22-2.3.51-3.1.88-.8.36-1.37.8-1.74 1.3-.35.5-.53 1.05-.53 1.67 0 .58.1 1.1.3 1.52a3 3 0 0 0 .76 1.05c.34.27.73.46 1.17.6a6.13 6.13 0 0 0 1.45.17 7.28 7.28 0 0 0 3.5-.81 11.95 11.95 0 0 0 2.82-2.2v-4.62zm-12.65-9.11a12.73 12.73 0 0 1 3.98-2.66c1.43-.59 3-.88 4.73-.88 1.25 0 2.36.2 3.33.61a6.81 6.81 0 0 1 3.94 4.38c.33 1.04.5 2.19.5 3.43V93h-1.74a1.8 1.8 0 0 1-.88-.18c-.2-.13-.36-.38-.48-.74l-.44-2.12-1.72 1.46a9.48 9.48 0 0 1-3.74 1.7c-.69.15-1.46.23-2.3.23-.87 0-1.69-.12-2.45-.35a5.34 5.34 0 0 1-3.34-2.93 6.64 6.64 0 0 1-.49-2.64c0-.88.25-1.72.73-2.53a6.33 6.33 0 0 1 2.35-2.17c1.09-.63 2.5-1.15 4.25-1.54 1.75-.41 3.89-.65 6.42-.7v-1.75c0-1.73-.37-3.03-1.12-3.91-.75-.9-1.84-1.34-3.28-1.34-.97 0-1.78.12-2.44.37-.64.23-1.2.5-1.7.81l-1.23.82c-.33.23-.67.35-1 .35-.27 0-.5-.07-.69-.2a2.1 2.1 0 0 1-.48-.53l-.7-1.25zm27.67 19.5c-1.76 0-3.12-.5-4.07-1.48-.94-.98-1.41-2.4-1.41-4.25V74h-2.68a.9.9 0 0 1-.6-.2c-.16-.14-.24-.36-.24-.66v-1.56l3.65-.46.9-6.89a.9.9 0 0 1 .29-.52.88.88 0 0 1 .62-.22H142v7.67h6.44V74H142v13.38c0 .94.22 1.63.68 2.09.45.45 1.04.68 1.76.68a3.21 3.21 0 0 0 1.85-.53l.55-.35c.16-.12.3-.18.41-.18.2 0 .4.13.55.38l1.15 1.87a7.45 7.45 0 0 1-2.44 1.5 8.53 8.53 0 0 1-2.95.52zm19.68-10.4c-1.8.07-3.34.21-4.62.45-1.26.22-2.3.51-3.1.88-.8.36-1.37.8-1.74 1.3-.35.5-.53 1.05-.53 1.67 0 .58.1 1.1.3 1.52a2.9 2.9 0 0 0 .76 1.05c.34.27.73.46 1.17.6a6.13 6.13 0 0 0 1.45.17 7.3 7.3 0 0 0 3.5-.81 12.04 12.04 0 0 0 2.82-2.2v-4.62zm-12.65-9.1a12.72 12.72 0 0 1 3.99-2.66c1.42-.59 3-.88 4.72-.88 1.25 0 2.36.2 3.33.61a6.81 6.81 0 0 1 3.94 4.38c.33 1.04.5 2.19.5 3.43V93h-1.74a1.8 1.8 0 0 1-.88-.18c-.2-.13-.36-.38-.48-.74l-.44-2.12-1.72 1.46a9.48 9.48 0 0 1-3.74 1.7c-.69.15-1.46.23-2.3.23-.87 0-1.69-.12-2.45-.35a5.33 5.33 0 0 1-3.34-2.93 6.62 6.62 0 0 1-.49-2.64c0-.88.25-1.72.73-2.53a6.33 6.33 0 0 1 2.35-2.17c1.09-.63 2.5-1.15 4.25-1.54a31.2 31.2 0 0 1 6.42-.7v-1.75c0-1.73-.37-3.03-1.12-3.91-.75-.9-1.84-1.34-3.28-1.34-.97 0-1.78.12-2.44.37-.64.23-1.2.5-1.7.81l-1.22.82c-.34.23-.68.35-1.02.35-.26 0-.49-.07-.68-.2a1.88 1.88 0 0 1-.48-.53l-.7-1.25zM40.98 32.25c0 2.36-.38 4.53-1.12 6.51a14.26 14.26 0 0 1-8.1 8.4c-1.9.78-4.02 1.17-6.34 1.17a16.6 16.6 0 0 1-6.33-1.17 14.31 14.31 0 0 1-8.08-8.4 18.29 18.29 0 0 1-1.12-6.51c0-2.36.38-4.53 1.12-6.5.75-1.97 1.8-3.67 3.17-5.1a14.32 14.32 0 0 1 4.9-3.34c1.92-.8 4.03-1.19 6.34-1.19 2.32 0 4.43.4 6.34 1.19 1.92.8 3.56 1.9 4.93 3.34a14.87 14.87 0 0 1 3.17 5.1 18.1 18.1 0 0 1 1.12 6.5zm-4.38 0c0-1.94-.26-3.68-.8-5.22a10.91 10.91 0 0 0-2.24-3.89 9.68 9.68 0 0 0-3.52-2.46 11.95 11.95 0 0 0-4.62-.86c-1.68 0-3.21.28-4.6.86a9.88 9.88 0 0 0-3.54 2.46 10.91 10.91 0 0 0-2.24 3.9c-.53 1.53-.8 3.27-.8 5.2 0 1.94.27 3.68.8 5.22a11.17 11.17 0 0 0 2.24 3.9 10.01 10.01 0 0 0 3.55 2.44c1.38.56 2.9.83 4.6.83s3.24-.27 4.61-.83a9.8 9.8 0 0 0 3.52-2.44 11.17 11.17 0 0 0 2.25-3.9c.53-1.54.8-3.28.8-5.21zm26.22-6.54V48H60.5c-.56 0-.9-.27-1.05-.81l-.31-2.4a12.45 12.45 0 0 1-3.26 2.6c-1.2.64-2.58.96-4.13.96-1.22 0-2.3-.2-3.24-.6a6.52 6.52 0 0 1-2.33-1.7 7.37 7.37 0 0 1-1.43-2.67c-.3-1.04-.46-2.2-.46-3.45V25.7h3.91v14.22c0 1.68.38 2.99 1.15 3.91.77.93 1.96 1.39 3.54 1.39 1.16 0 2.24-.27 3.23-.82a10.42 10.42 0 0 0 2.8-2.28V25.7h3.91zm8.61 4.47a9.94 9.94 0 0 1 2.6-3.56 5.64 5.64 0 0 1 3.76-1.3c.47 0 .92.05 1.34.15.44.1.83.27 1.17.49l-.3 2.92c-.09.37-.3.55-.66.55-.2 0-.5-.04-.9-.13a6.21 6.21 0 0 0-3.24.18 4.23 4.23 0 0 0-1.47.92c-.42.4-.81.9-1.17 1.5-.33.58-.64 1.26-.92 2.02V48H67.7V25.71h2.25c.42 0 .72.08.88.25.16.16.27.44.33.83l.26 3.39zm61.16-13.7L122.75 48h-3.82l-7.99-24.05a21.95 21.95 0 0 1-.42-1.58 38.36 38.36 0 0 1-.44 1.58L102.05 48h-3.83L88.4 16.47h3.54c.38 0 .7.1.95.29.26.2.43.43.5.73l6.52 21.9.28 1.28.29 1.46.3-1.46.38-1.27 7.41-21.91c.1-.25.26-.48.51-.69.27-.22.58-.33.95-.33h1.23c.38 0 .69.1.92.29a1.77 1.77 0 0 1 .53.73l7.4 21.9a28.4 28.4 0 0 1 .68 2.62 29.52 29.52 0 0 1 .52-2.61l6.54-21.91a1.31 1.31 0 0 1 .48-.7c.27-.21.58-.32.95-.32h3.32zm9.35 8.88c1.63 0 3.1.27 4.4.82a9.43 9.43 0 0 1 5.46 5.94c.5 1.4.74 2.98.74 4.73 0 1.76-.25 3.34-.74 4.75a9.43 9.43 0 0 1-5.46 5.92c-1.3.52-2.77.79-4.4.79-1.64 0-3.12-.27-4.44-.8a9.42 9.42 0 0 1-3.35-2.3c-.92-1-1.63-2.2-2.13-3.61-.49-1.41-.73-3-.73-4.75s.24-3.33.73-4.73c.5-1.43 1.2-2.64 2.13-3.63a9.4 9.4 0 0 1 3.35-2.31c1.32-.55 2.8-.82 4.44-.82zm0 19.89c2.2 0 3.84-.73 4.93-2.2 1.08-1.48 1.63-3.54 1.63-6.18 0-2.66-.55-4.72-1.63-6.2-1.09-1.49-2.73-2.23-4.93-2.23-1.12 0-2.09.2-2.93.57a5.71 5.71 0 0 0-2.06 1.65 7.5 7.5 0 0 0-1.24 2.67c-.26 1.04-.4 2.22-.4 3.54 0 2.64.55 4.7 1.64 6.18 1.1 1.47 2.76 2.2 4.99 2.2zm17.97-15.07a9.94 9.94 0 0 1 2.6-3.56 5.64 5.64 0 0 1 3.76-1.3c.47 0 .91.05 1.34.15.44.1.83.27 1.16.49l-.28 2.92c-.09.37-.31.55-.66.55-.2 0-.5-.04-.9-.13a6.2 6.2 0 0 0-3.24.18 4.23 4.23 0 0 0-1.47.92c-.43.4-.82.9-1.17 1.5a13.1 13.1 0 0 0-.92 2.02V48h-3.94V25.71h2.24c.43 0 .72.08.88.25.17.16.28.44.33.83l.27 3.39zm15.04-14.59V48h-3.92V15.6h3.92zm19.55 15.43a6.22 6.22 0 0 0-2.38-2.05 6.7 6.7 0 0 0-2.86-.6c-2.07 0-3.66.75-4.77 2.23-1.12 1.48-1.68 3.6-1.68 6.33 0 1.46.13 2.7.38 3.74a7.29 7.29 0 0 0 1.1 2.56 4.35 4.35 0 0 0 1.78 1.45c.7.3 1.5.46 2.4.46 1.29 0 2.41-.3 3.36-.88a9.6 9.6 0 0 0 2.67-2.49V31.02zm3.91-15.43V48h-2.33c-.56 0-.9-.27-1.06-.81l-.35-2.71a12.13 12.13 0 0 1-3.25 2.77 8.28 8.28 0 0 1-4.23 1.06 7.31 7.31 0 0 1-6.14-2.9c-.73-.96-1.3-2.15-1.69-3.57a18.35 18.35 0 0 1 .07-9.48 11.29 11.29 0 0 1 1.89-3.7 8.7 8.7 0 0 1 7.06-3.34 7.96 7.96 0 0 1 6.12 2.62V15.59h3.91zM46.61 70.71V93H42.7V70.71h3.91zm.84-7c0 .39-.08.75-.24 1.09a2.81 2.81 0 0 1-1.52 1.47 2.67 2.67 0 0 1-2.16 0 2.9 2.9 0 0 1-1.45-1.47 2.67 2.67 0 0 1 0-2.16c.15-.35.35-.65.6-.9.25-.27.53-.47.85-.62a2.67 2.67 0 0 1 2.16 0c.35.15.65.35.9.62.27.25.47.55.62.9.16.34.24.7.24 1.08zm7.97 10.24c.49-.54 1-1.04 1.54-1.48a9.85 9.85 0 0 1 3.66-1.84 8.96 8.96 0 0 1 5.43.35c.94.4 1.72.97 2.33 1.71a7.36 7.36 0 0 1 1.43 2.67c.32 1.04.49 2.19.49 3.45V93h-3.94V78.81c0-1.69-.4-3-1.17-3.92-.76-.93-1.93-1.4-3.5-1.4a6.6 6.6 0 0 0-3.25.83c-1 .56-1.92 1.31-2.77 2.27V93h-3.94V70.71h2.35c.56 0 .9.28 1.04.82l.3 2.42zm57.7 3.3c0 2.36-.37 4.5-1.11 6.44a14.3 14.3 0 0 1-3.17 4.98 14.1 14.1 0 0 1-4.93 3.2c-1.9.76-4.02 1.13-6.33 1.13H85.8V61.47h11.77c2.31 0 4.42.39 6.33 1.15a13.8 13.8 0 0 1 8.1 8.18 17.75 17.75 0 0 1 1.12 6.45zm-4.37 0c0-1.94-.26-3.67-.8-5.2a10.94 10.94 0 0 0-2.23-3.87 9.57 9.57 0 0 0-3.53-2.42 12.23 12.23 0 0 0-4.61-.83h-7.5v24.62h7.5c1.7 0 3.24-.28 4.61-.84a9.7 9.7 0 0 0 3.53-2.4 10.94 10.94 0 0 0 2.24-3.87c.53-1.53.8-3.26.8-5.2zm19.8 5.72c-1.8.06-3.34.2-4.62.44-1.26.22-2.3.51-3.1.88-.8.36-1.37.8-1.74 1.3-.35.5-.53 1.05-.53 1.67 0 .58.1 1.1.3 1.52a3 3 0 0 0 .76 1.05c.34.27.73.46 1.17.6a6.13 6.13 0 0 0 1.45.17 7.28 7.28 0 0 0 3.5-.81 11.95 11.95 0 0 0 2.82-2.2v-4.62zm-12.65-9.11a12.73 12.73 0 0 1 3.98-2.66c1.43-.59 3-.88 4.73-.88 1.25 0 2.36.2 3.33.61a6.81 6.81 0 0 1 3.94 4.38c.33 1.04.5 2.19.5 3.43V93h-1.74a1.8 1.8 0 0 1-.88-.18c-.2-.13-.36-.38-.48-.74l-.44-2.12-1.72 1.46a9.48 9.48 0 0 1-3.74 1.7c-.69.15-1.46.23-2.3.23-.87 0-1.69-.12-2.45-.35a5.34 5.34 0 0 1-3.34-2.93 6.64 6.64 0 0 1-.49-2.64c0-.88.25-1.72.73-2.53a6.33 6.33 0 0 1 2.35-2.17c1.09-.63 2.5-1.15 4.25-1.54 1.75-.41 3.89-.65 6.42-.7v-1.75c0-1.73-.37-3.03-1.12-3.91-.75-.9-1.84-1.34-3.28-1.34-.97 0-1.78.12-2.44.37-.64.23-1.2.5-1.7.81l-1.23.82c-.33.23-.67.35-1 .35-.27 0-.5-.07-.69-.2a2.1 2.1 0 0 1-.48-.53l-.7-1.25zm27.67 19.5c-1.76 0-3.12-.5-4.07-1.48-.94-.98-1.41-2.4-1.41-4.25V74h-2.68a.9.9 0 0 1-.6-.2c-.16-.14-.24-.36-.24-.66v-1.56l3.65-.46.9-6.89a.9.9 0 0 1 .29-.52.88.88 0 0 1 .62-.22H142v7.67h6.44V74H142v13.38c0 .94.22 1.63.68 2.09.45.45 1.04.68 1.76.68a3.21 3.21 0 0 0 1.85-.53l.55-.35c.16-.12.3-.18.41-.18.2 0 .4.13.55.38l1.15 1.87a7.45 7.45 0 0 1-2.44 1.5 8.53 8.53 0 0 1-2.95.52zm19.68-10.4c-1.8.07-3.34.21-4.62.45-1.26.22-2.3.51-3.1.88-.8.36-1.37.8-1.74 1.3-.35.5-.53 1.05-.53 1.67 0 .58.1 1.1.3 1.52a2.9 2.9 0 0 0 .76 1.05c.34.27.73.46 1.17.6a6.13 6.13 0 0 0 1.45.17 7.3 7.3 0 0 0 3.5-.81 12.04 12.04 0 0 0 2.82-2.2v-4.62zm-12.65-9.1a12.72 12.72 0 0 1 3.99-2.66c1.42-.59 3-.88 4.72-.88 1.25 0 2.36.2 3.33.61a6.81 6.81 0 0 1 3.94 4.38c.33 1.04.5 2.19.5 3.43V93h-1.74a1.8 1.8 0 0 1-.88-.18c-.2-.13-.36-.38-.48-.74l-.44-2.12-1.72 1.46a9.48 9.48 0 0 1-3.74 1.7c-.69.15-1.46.23-2.3.23-.87 0-1.69-.12-2.45-.35a5.33 5.33 0 0 1-3.34-2.93 6.62 6.62 0 0 1-.49-2.64c0-.88.25-1.72.73-2.53a6.33 6.33 0 0 1 2.35-2.17c1.09-.63 2.5-1.15 4.25-1.54a31.2 31.2 0 0 1 6.42-.7v-1.75c0-1.73-.37-3.03-1.12-3.91-.75-.9-1.84-1.34-3.28-1.34-.97 0-1.78.12-2.44.37-.64.23-1.2.5-1.7.81l-1.22.82c-.34.23-.68.35-1.02.35-.26 0-.49-.07-.68-.2a1.88 1.88 0 0 1-.48-.53l-.7-1.25z" fill="#fff"/><path fill="#D42B21" d="M0 106.79h210V120H0z"/></g><defs><clipPath id="a"><path fill="#fff" d="M0 0h210v120H0z"/></clipPath></defs></svg></g><a href="https://ourworldindata.org/grapher/GDP-vs-agriculture-GDP?country=BOL~BWA~BRA~CHL~CHN~COL~CRI~DNK~EGY~ETH~FRA~DEU~GHA~IND~IDN~ITA~JPN~KEN~MWI~MYS~MUS~MEX~MAR~NLD~NGA~PER~PHL~SEN~SGP~ZAF~KOR~ESP~SWE~TWN~TZA~THA~GBR~USA~VEN~ZMB" style="font-family:&quot;Playfair Display&quot;,Georgia,&quot;Times New Roman&quot;,serif" target="_blank" rel="noopener"><text font-size="25.2" x="15" y="35.2" fill="#555"><tspan x="15" y="35.16">Share of agriculture in GDP vs GDP per capita, 1801 to 2016</tspan></text></a><text font-size="14.4" x="15" y="55.7" fill="#666"><tspan x="15" y="55.72">The vertical axis shows historical estimates of the share of agriculture in GDP (estimated at current prices). The</tspan><tspan x="15" y="73">horizontal axis shows GDP per head after adjusting for inflation and price differences across countries (figures are</tspan><tspan x="15" y="90.28">in 2011 international-$).</tspan></text></g><g class="ScatterPlot"><g class="DualAxisView"><g class="HorizontalAxis"><text font-size="12.6" x="323.3" y="530.3"><tspan x="323.33" y="530.28">GDP per capita</tspan></text><text x="151.6" y="510.2" fill="#666" text-anchor="middle" font-size="16.2">$1,000</text><text x="466.7" y="510.2" fill="#666" text-anchor="middle" font-size="16.2">$10,000</text><text x="75.16" y="510.2" fill="#666" text-anchor="start" font-size="16.2">$572</text><text x="246.5" y="510.2" fill="#666" text-anchor="middle" font-size="16.2">$2,000</text><text x="371.8" y="510.2" fill="#666" text-anchor="middle" font-size="16.2">$5,000</text><text x="561.6" y="510.2" fill="#666" text-anchor="middle" font-size="16.2">$20,000</text><text x="686.9" y="510.2" fill="#666" text-anchor="middle" font-size="16.2">$50,000</text></g><g class="VerticalAxis"><text font-size="12.6" x="-397.6" y="25.1" transform="rotate(-90)"><tspan x="-397.6" y="25.08">Share of agriculture in GDP</tspan></text><text x="70.16" y="489" dy=".32em" text-anchor="end" fill="#666" font-size="16.2">0%</text><text x="70.16" y="442" dy=".32em" text-anchor="end" fill="#666" font-size="16.2">10%</text><text x="70.16" y="395" dy=".32em" text-anchor="end" fill="#666" font-size="16.2">20%</text><text x="70.16" y="348" dy=".32em" text-anchor="end" fill="#666" font-size="16.2">30%</text><text x="70.16" y="301" dy=".32em" text-anchor="end" fill="#666" font-size="16.2">40%</text><text x="70.16" y="254" dy=".32em" text-anchor="end" fill="#666" font-size="16.2">50%</text><text x="70.16" y="207" dy=".32em" text-anchor="end" fill="#666" font-size="16.2">60%</text><text x="70.16" y="160" dy=".32em" text-anchor="end" fill="#666" font-size="16.2">70%</text><text x="70.16" y="113" dy=".32em" text-anchor="end" fill="#666" font-size="16.2">80%</text></g><g class="AxisGridLines horizontalLines"><path stroke="#999" d="M75.16 489h642.93"/><path stroke="#ddd" stroke-dasharray="3,2" d="M75.16 442h642.93M75.16 395h642.93M75.16 348h642.93M75.16 301h642.93M75.16 254h642.93M75.16 207h642.93M75.16 160h642.93M75.16 113h642.93"/></g><g class="AxisGridLines verticalLines" stroke="#ddd" stroke-dasharray="3,2"><path d="M151.6 489V107.8M246.5 489V107.8M371.8 489V107.8M466.7 489V107.8M561.6 489V107.8M686.9 489V107.8"/></g></g><g class="PointsWithLabels clickable" clip-path="url(#b)"><path fill="rgba(255,255,255,0)" d="M75.16 107.8h642.93V489H75.16z"/><defs><clipPath id="b"><path d="M65.16 97.8h662.93V499H65.16z"/></clipPath></defs><g class="key-Belgium"><circle cx="287" cy="375" r="1.3" fill="#e2e2e2" opacity=".7"/><path stroke-width=".5" opacity=".7" stroke="#ccc" fill="none" stroke-linecap="butt" d="m287 375 5-34v43l3-3 4 13 3-1 3-4 2-1 8-18v15l6-2 3 10v10l-1 10 6-11h1l2-3 3 2 3 10-1 7 4-1-1-9 4-10 5 22 1-1v3l7 5v9l3-14-1 10v-11l1-1 3 9v-2l5 2v-1l3 1 1 1-1 3 1-2 4 4v1l6-1 2 2-2-3h2l1-1v2l2 2 1 4 2-5 1 2 1 5 3-1v-4l2 2 1-1h3l1 2v-2l2 1 3-2 3 2 2 4v2l-9-43 4 12 11 18 4-13 3 6 1 3 3-1 4 9 6 1-2 3-2 6-4 4-7-2 2-1-1 5 7 17 1 4 1-20-3-3 8-1-16-10 7 10 6 3 4-4 7 5h7l-2 2 4-4 5 1 5 1 3 3 2-2-1 2 3-1 7 2 6-1 6 3h5l8 2 4 1 3 3h18l8 5 5 1 6-3 8 1 5 5-2-1 7 1 1 2h7l6 1-2-1h2v-1l3 1 1 1h2l3 1h7l4-1 3 2 2-1h2l-2 1h5l3 1h14l5 1h2l1 1h7l2 2h4"/><path cx="649" cy="485" r="2" fill="#e2e2e2" opacity=".7" d="m647 483 4 2-4 2z"/></g><g class="key-Argentina"><circle cx="435" cy="462" r="1.3" fill="#e2e2e2" opacity=".7"/><path stroke-width=".5" opacity=".7" stroke="#ccc" fill="none" stroke-linecap="butt" d="m435 462 2-3h-10l5-11 3 8 7 2 1-2 4-1h6l-11-7 8 2 7 7-4-4-6-6 11-6 10 6-1 4h2l4 3 9-1 5-2 4-2 2-4 6-7 6 8-3 12-3-2 6-1-9 3 7-3v6l-10-7-7-16 3 5v2l-11 4 8-2 1-2-5-4-10-2-2 7 12 6 12 4 7 2h7l-5-2 6-1 10 2h4l-5 5-2-2-7 1-17-30 11-1 11 4 11 5 10 5 11-5 5-3-10 13 13-13 7-3"/><path cx="561" cy="433" r="2" fill="#e2e2e2" opacity=".7" d="m558.37 431.95 4.47.26-2.89 3.42z"/></g><g class="key-Hong-Kong"><circle cx="456" cy="478" r="1.3" fill="#e2e2e2" opacity=".7"/><path stroke-width=".5" opacity=".7" stroke="#ccc" fill="none" stroke-linecap="butt" d="m456 478 7 1 12 1h13l-3 1h34l11 2 10 1 9 1h8l11 1h-1 12l15 1h13l5 1h14-1 6-11 45-5 11"/><path cx="671" cy="488" r="2" fill="#e2e2e2" opacity=".7" d="m669 486 4 2-4 2z"/></g><g class="key-China"><path stroke-width="2.5" opacity=".9" stroke="#2D8587" fill="none" stroke-linecap="butt" d="m157 247 14 23h-13l9-2 8 17 1 11-3 30-7 35-7 15-26-66 8-15 15-3 15 9 11 3 1 2-3-13-6-10 9 21 14 14 5 7-2 5 8-3v-2l7 7-7-2 6 16 13 7 9-15 5 5 2-8 11-8 7 1 12 5 10 18 6 6 9 1 6 6-2 2-1-10 3 13 8 13 11 10 8-1h10l7 2 3 6v4l5 5 8 7 7 3 9 3 8 5 10-3 12 6 13 5 11 1h5l9 2 13 1 8 1"/><circle cx="157" cy="247" r="2.25" fill="#2D8587" opacity=".9" stroke="#2D8587" stroke-opacity=".6"/><path cx="469" cy="439" r="4" fill="#2D8587" opacity=".9" d="m465.53 434.53 7.44 4.97-8.44 2.97z"/></g><g class="key-India"><path stroke-width="2.46" opacity=".9" stroke="#2D8587" fill="none" stroke-linecap="butt" d="m149 221 1 6 2 2 5-2 4 24v11l5-14-4 10 7-8v11l7 9 1 4v10l4-6 7-8-9 10-1-4 8-14v5l6 2 4 7-2 8h-4l3-15-1 16 8 14-1 9 7-7 4 8-10 10 6-9 6 7 1 7 8-4 2 8 2 7 3 6 3 3 11-5 6 7h4l-2-2 4 4 4-1 4 3 6 10 7-4 2 7h6l4 5 3 8h4l1 11h8l8 9h7l10 4 8 1 6 3 8-1 8-2 7 2h5"/><circle cx="149" cy="221" r="2.23" fill="#2D8587" opacity=".9" stroke="#2D8587" stroke-opacity=".6"/><path cx="370" cy="403" r="3.96" fill="#2D8587" opacity=".9" d="m366.04 399.04 7.92 3.96-7.92 3.96z"/></g><g class="key-United-States"><path stroke-width="1.98" opacity=".9" stroke="#E04E4B" fill="none" stroke-linecap="butt" d="m322 288 5 31 23 8 20 6 20 22 22 44 23 6 28-1-2 2 2 7 3-2 2 6h-15l1-2 15-3-6-12 10-3-1 14-4 22-6 12 4-1 14 1 1-2v-2l6 5-1-1-1 2 6-5-16 6h-10l-23 2-5-6 10 5 15-15 12 13 9-7-10 7 8 3 10 3 17-3 13-4 10 2 8 2-4-2-15-6-5 9 4-2-5 8 10 1h8l2 2 4 5h-3l7 3v2l-4-2 8 4 1-1 1 1 6 1 4 1 6 1 6-1 7 1 2 1 5 1 3-1-1 1h2l6-1 6-5-2 3h-1l5 2 5 1h6l3-1-1 2 2-1-4 2 4 2 9-1h4l3 1h12l-2 1 3-1 2 1h4l2 1 3-1h5l4 1 5 1h7l4-1 4 1h3-7l2-1 2-1 2 1 1-1 2 1 2 1h2"/><circle cx="322" cy="288" r="1.99" fill="#E04E4B" opacity=".9" stroke="#E04E4B" stroke-opacity=".6"/><path cx="695" cy="484" r="3.48" fill="#E04E4B" opacity=".9" d="m691.52 480.52 6.96 3.48-6.96 3.48z"/></g><g class="key-Indonesia"><path stroke-width="1.92" opacity=".9" stroke="#2D8587" fill="none" stroke-linecap="butt" d="m210 257-6-5 10 13 13 9 11 9 4 9 12 21 16 1 3 32-3 4 8 3 8-1 2 8 5 6 8 14 6-1-8-4 2 15 6 2 1-1 5-4 4 4 6-3 9 4 9 11 10 5 7-2 9 4 8 3 9 1 9 3 5 3-21-14-1-8 6 12 3 3 5-2 5 4 5 4 7 6 6 1 7-4 9-3 6-4h7l8 3 6 1"/><circle cx="210" cy="257" r="1.96" fill="#2D8587" opacity=".9" stroke="#2D8587" stroke-opacity=".6"/><path cx="456" cy="419" r="3.42" fill="#2D8587" opacity=".9" d="m453.19 415.06 6.18 4.5-7.3 2.25z"/></g><g class="key-Brazil"><path stroke-width="1.88" opacity=".9" stroke="#932834" fill="none" stroke-linecap="butt" d="m433 464 1-3-2 4 7 2 7-11h5l3 3h4v-1 1h6l2-2 4-3 1-4 8 3 4 6 6 1h8l7-2v2l10 1 6-1"/><circle cx="433" cy="464" r="1.94" fill="#932834" opacity=".9" stroke="#932834" stroke-opacity=".6"/><path cx="520" cy="460" r="3.38" fill="#932834" opacity=".9" d="m516.11 457.22 7.22 2.22-6.1 4.45z"/></g><g class="key-Nigeria"><path stroke-width="1.84" opacity=".9" stroke="#923E8B" fill="none" stroke-linecap="butt" d="M188 215v8h4l8 9 2 11 5 17-8-3-28-2-5 9 28 21 33-5 12 6 1 16 7 22 11 17-9 4 11 13v-4l-12-1 5 7-2 7-15 5-6-11-12-11-9-23 8 1-1-8-4 7 9-18 5 39 4 2-2-1 3 15 2-35v-29l2 32 6 4 3-15 4-28v18l8 48 8-40 18-71 12 28 14 41 9 6 8 4 9-2 10 2 10-22 15 35 6-3"/><circle cx="188" cy="215" r="1.92" fill="#923E8B" opacity=".9" stroke="#923E8B" stroke-opacity=".6"/><path cx="375" cy="337" r="3.34" fill="#923E8B" opacity=".9" d="M370.52 335.5h7.47l-4.48 5.98z"/></g><g class="key-Japan"><path stroke-width="1.81" opacity=".9" stroke="#2D8587" fill="none" stroke-linecap="butt" d="m226 287 8 4 1 10-9 7 2 5 8-41-8 19 7-1-1 8 13-12v11l-8 12v6l22-30-8 27 1-1h3l-10 10 12-18-1 4-5 33 14-13 2-9-1 2-1 15-1 9 5-20 1-7 1 3-4 25 8 13 16 5 6-4 1-19 11-16-11 26 12 6v15-4l3-4 4-1-2 16-1 1 9 11 4 3-13 18-1 5 9-9 9-7-1 12 3-5 5-4 3 2 6 7 17-14 2 5-29 5h6l9-6 9 13 8 4 7 2 10 4 16 6 15 4 10 2 10 4 13 5h7l12 2h13l15 5 15 4 12 5 5 4 9-1 8-2-3 2h2l4 1h5l6 2 6 1 2 4h4l3 1h12l3 1 4 1h8l6 1h6l4 1h1v1h1l3 1 4-1 1 1h-3 3l1 1-1-1 2 1h9-9 6"/><circle cx="226" cy="287" r="1.9" fill="#2D8587" opacity=".9" stroke="#2D8587" stroke-opacity=".6"/><path cx="638" cy="481" r="3.31" fill="#2D8587" opacity=".9" d="m634.69 477.69 6.62 3.31-6.62 3.31z"/></g><g class="key-Mexico"><path stroke-width="1.79" opacity=".9" stroke="#E04E4B" fill="none" stroke-linecap="butt" d="m323 382 6 7 1 6-3-6 9-2 7 4 5 3 6 1 3-1v7l7 2h2l2-1 7 2 11 3 4 3 5 6 4 2 7 5 4 3 5 1 1 2 6 3 7-3 3 1 4 2 2 2 1 2 8 1 9 6 9 5 8-1-4 5-8 2 2-4v-4l-7-3v6l-1 1h3l4-1 4 1 4 4 1 1 5 2-11 3 6-3 9 2 6 1 4 4 8 3-1-1 1 2h2l5 1 4 2 6 1 4-1h1l-7-1h6l5 1"/><circle cx="323" cy="382" r="1.89" fill="#E04E4B" opacity=".9" stroke="#E04E4B" stroke-opacity=".6"/><path cx="524" cy="471" r="3.29" fill="#E04E4B" opacity=".9" d="m521.42 467.13 5.8 4.52-7.1 1.93z"/></g><g class="key-Philippines"><path stroke-width="1.77" opacity=".9" stroke="#2D8587" fill="none" stroke-linecap="butt" d="m296 351 3 5 8-3 1-1 4 4 8 6 4 3 3 2 3 5 3 11 2 3 1 5-1 5-14-9-13-1 1 2 2-1 6 6 5 1 1 3-3 4-1-5 1 1 4-2 4 1 6 5 4 8-2 6 2-2 4 6 2 4 3 1 5 2 7-3 5 4 5 1 7-1 4-3 9 4 4-2 7 4"/><circle cx="296" cy="351" r="1.88" fill="#2D8587" opacity=".9" stroke="#2D8587" stroke-opacity=".6"/><path cx="400" cy="430" r="3.27" fill="#2D8587" opacity=".9" d="m398.78 425.54 4.06 6.08-7.3-.4z"/></g><g class="key-Ethiopia"><path stroke-width="1.76" opacity=".9" stroke="#923E8B" fill="none" stroke-linecap="butt" d="m107 107 2 7 15 2 3 5 5-2 3 6 3 7h-1 2l5-1 3 4 3 10 2 6-2 1-3 10 1-9v-9l-4-6 7 9 5 5-4 1-4 11 3-4-6 15-11 5 6-4 8 6-1 8-2-3h-23l-18-15-2 19 6 23 3 4 7 5 5-4-5 21-4 15h2l2 9 2 16-6 8 2-10 10-12 8-5 8 1 8-16 7 1 8 16h11l10-13"/><circle cx="107" cy="107" r="1.88" fill="#923E8B" opacity=".9" stroke="#923E8B" stroke-opacity=".6"/><path cx="186" cy="250" r="3.26" fill="#923E8B" opacity=".9" d="m181.43 250.6 6.56-3.18-1.4 7.15z"/></g><g class="key-Egypt"><path stroke-width="1.75" opacity=".9" stroke="#923E8B" fill="none" stroke-linecap="butt" d="m214 372 5 11 6-4 5-3 6-13 5 2-2 4-5 2v-1l6-5 6 7 3-7v-8l1-6 3-3 10 6h17l13 3 6 11 6 17 9 5 1 5 9-20 6 6 4 7 5-2-1-9v8h3l1-1v10l5 4 5-1h12l7-2 8 3 8 4 7-7 7 1 8 5 7 6 4 2h4l6 6 6 2 8 5 10-1 8 5 6-2 8-2v-3"/><circle cx="214" cy="372" r="1.88" fill="#923E8B" opacity=".9" stroke="#923E8B" stroke-opacity=".6"/><path cx="476" cy="419" r="3.25" fill="#923E8B" opacity=".9" d="m472.75 415.75 6.5 3.25-6.5 3.25z"/></g><g class="key-Sweden"><path stroke-width="1.75" opacity=".9" stroke="#4C5C78" fill="none" stroke-linecap="butt" d="m193 306 6 1-2 5-9-9 9-4 1 11-6-9-7 6-7-27 11-2 10 22-9 1 2 12 2-16 4-3 3 11-4-4 1 20-1-6 2-17 4 3-1-4 3 2 4 10 1 5-7-10 2-6 2 8-3-8 2 8-3-11 4 2 2 2-1-1 4 7-1 2-2 2 2-10 2-1-2 2-7-5 3-1 6 2 3 10-5-5 4-1 1-5 5 4 4 9-3 3h-3l2 6 2-12 8 14-2-6 4 3 2-10 4 4 3 5-6-7-4 6 6-5 2 8 3 4-3-2 2-12-12 4 9-10 17-4 4 1 3 7 1 11 5 1-5 1 9-2-3 4-5-6 7-5-3 8 4 1-5-2 10-2-3 11 3-1 1 9-4 2 2 3 2 5h3l7-11h-1l3 2 1 6 6 8h4l5 5 5 1h3v5l4-3-2 6 7 4 2 3-2 10 11-1 9-6-5-5 1-3 3 3 3 8 5-2 8-2 3 6 5-5 7-3-8 2-11-2 2 3 8 13-7 9 10 5 4 10 9 2 3 2 7-1 4 5 4 2 8 1 6 7-4 1-5 6 2-7 8 3 7-1 4-2h3l4 5 10 2h-11l-4-1 1 1 4-2 3-2 4 3 13 1 10 3 2 6 4-1 8-7h4l1-13 3 15 5 1 3 4 4-1 5 6v2l3 5 7-1h7l5 2 6 4h8l4 1 1 3 4 2 4 3 6 2h7v-1l3 2 5 1 4-3h4l-3 2 2 2 5 1h13l3 1 3 1 3 1h2v1l-2 1-2 1-3 1h5l5-1 2 1h10l6 1 7 1 1-1 4 1h9l4 2 6-1h5l-1-1-7 1 9-1"/><circle cx="193" cy="306" r="1.88" fill="#4C5C78" opacity=".9" stroke="#4C5C78" stroke-opacity=".6"/><path cx="665" cy="483" r="3.25" fill="#4C5C78" opacity=".9" d="m661.41 480.13 6.82 2.51-6.1 3.95z"/></g><g class="key-United-Kingdom"><path stroke-width="1.75" opacity=".9" stroke="#4C5C78" fill="none" stroke-linecap="butt" d="m317 340 1-21-3 47 9 10 13-2 19 24 62 61h-5l12 3 3 3 5 1 6 1h-6l11 3 1-1 3 1-1-1-8 1 4-3h8l4 2 6-1 4 4h1l44-3h4l4 1 6 1 3 1h4l5 1h1l3 1 2-1 5 1 8-2-2 2h6l5 1 4 1-3 1h-2l2-1 5 2 3-2 5 2h11l6 1 3-1v1h-2l3-1 5 1 2-1 3 1 4 2 4 1h4l4 1h20l-2-1-8 1h3"/><circle cx="317" cy="340" r="1.88" fill="#4C5C78" opacity=".9" stroke="#4C5C78" stroke-opacity=".6"/><path cx="638" cy="483" r="3.25" fill="#4C5C78" opacity=".9" d="m634.75 479.75 6.5 3.25-6.5 3.25z"/></g><g class="key-Netherlands"><path stroke-width="1.75" opacity=".9" stroke="#4C5C78" fill="none" stroke-linecap="butt" d="m336 374-52 13 18-16-7-7 2-11 2 9h-7l10 6-3 19 1 8 7-2-1 4-4-10 3-3 7-9 3 12 1-7-13-3 10-5 6 8-3 7 1 7v-10l4 4 4-3 1-1v-8l1-5 2 14-4-13-2 1 1 10-1-3v-15l1-22 3 26 4 5 2-3 2-7-2 1-3-10 8-13-3 1 5-4-2 17-4 10-5-7 6-7-4 16 6-14 2 15 6-1v-1l5-11-5 4 1-7 4-5 5 5-2 4 1 9 3 9-5-8 8 1v-4l1 4v1l-7 11 8-13 1 12 2-1h8l1 3 1 5 1-2 1 5 1 7 3-5-7 2-2 2h3l-3 3 6 4-1-4h4l1 4 1-2v2l-3 1 4-4h4l-2 5h-1l5 1 1 3h-4l1-1 5-3 4-2 3 1 2 7 4 7 149 42 4 2h8l4 4-1-1h5l3 1 2 1 2 2h1l-2-2-2-1 2 1h7l3-1 1 1h3l5-2 5 1 3 1 2 1 1 2h9l5 1 5-1 6 3 7 2h8v2h1l3 1h3l6-1 5 1 3 1-6 1 2-1 3 1"/><circle cx="336" cy="374" r="1.88" fill="#4C5C78" opacity=".9" stroke="#4C5C78" stroke-opacity=".6"/><path cx="671" cy="479" r="3.25" fill="#4C5C78" opacity=".9" d="m668.94 474.89 5.14 5.14-7.2 1.03z"/></g><g class="key-France"><path stroke-width="1.75" opacity=".9" stroke="#4C5C78" fill="none" stroke-linecap="butt" d="M232 298h11l-6 23 4-18 4 1-6 13 3-7-2-3-1-3 3-6-3 3 2-5 11-15-2 27v4l4 5-2 20 2-15 6 4-5 1 9-12 2 13-3 1 6-8 4-1-4 8-1 1 14-30-9 2 4 31 2 7-3-2 9-9-8 8 6-13-2 2h5l8-20 9-3-10 12 9-7-9 14 11-17 4 1 1 4-4 8v3l-9 12 13-18 1-3-9-8 2-1 12 13-11 18 16-14 4 11-12 10 6-11-2 2-9 15 11-8 4 8 6-2h-2l-3 6 2 6 1 4 1 2 3 9 3-11 4 6h3l2-2 5-6-3 2 6 9-2 8 6-15 7 7-1-10-3 17-2-5 2-6 1 4 2 2 3 2 5-4-1 1 6-1-9-5h12l11-1-1 2-11 17-6-13 22 20 5 4h15l-1 2 3-2-3-6 9 2 8 5-5 1-10-6-9-18 10 17h-2l-3 16 5-17 7 8 128 48 5 2 5-3h6l3 7-2 4 6 3 4 2 3-1h4l1 3h1l3-3 1 4 1 2h1l3 1 3 1 5 1 4-1h3l1 4 1-1-1 2 3-2h3l3 1h4l5 1 4 1h2l1 1 1 1h3l2 1 2 1 3-1-1 1-4 2 2-2h2"/><circle cx="232" cy="298" r="1.88" fill="#4C5C78" opacity=".9" stroke="#4C5C78" stroke-opacity=".6"/><path cx="644" cy="475" r="3.25" fill="#4C5C78" opacity=".9" d="m640.75 471.75 6.5 3.25-6.5 3.25z"/></g><g class="key-Spain"><path stroke-width="1.75" opacity=".9" stroke="#4C5C78" fill="none" stroke-linecap="butt" d="m224 313 1 2 5 8v-44l2 6 6-24-6 32-5 13 3 3 6-5 5-1v-1 3l2-1-1 8-6-3 8-7-2-12-18 31 5 10 3-22 10-4 20-15 11 9-13 8 4 9 4-17 14-10h-6l-10 8 12 6 1 5v-1l2 2v-2l-5 2-3-8-3 19 5-7v18l2 1h11l-6 10 2-2-3-5-14 10 8-22 8 11 1 12 2 2 10-16-7 9-1-3-3 2-2-2 8 2 2-7 5 13 2-11-7 23 10-16-5 20 7-10-5 6v-25l5 5-3 12-1-4 2-8 9 1 3 14 5-3v17l3-3 8-5-3 14 11-19-1 23 9-13-9 17-5-6 3-11-6 20 3-11 1 7-25-17 1 6 8-7h7l4-21-12 23 5-17 1 13-1 11-2-15 1-2 12-1 11 10-1 8 9 6 3 1 10 4 4-1 7-2 83 48 6-4 12 6 10 2 9 4h2l5 2 3 2 2-2 1 6 3 3-1 7h4v-2l4-1 5-2h9l8-1 8 3 7 2 5 3 2 4-2-3h5l5 2 4-3 6 2 7 2 7 3 7 2 6 1 3 1h3l3 2 4 2 4 3 4-1v1l-5 1 1-2h-1"/><circle cx="224" cy="313" r="1.88" fill="#4C5C78" opacity=".9" stroke="#4C5C78" stroke-opacity=".6"/><path cx="624" cy="472" r="3.25" fill="#4C5C78" opacity=".9" d="m627.25 475.25-6.5-3.25 6.5-3.25z"/></g><g class="key-South-Korea"><path stroke-width="1.75" opacity=".9" stroke="#2D8587" fill="none" stroke-linecap="butt" d="m165 172-2-4 10-4 9 14 1 20 6-7 5-9 6-7-6 21 6-10 4 32 2-9 1 5-8-6 5-3 5 11 7 5-10 19v7l13 23-2-2v-11l3 4 2-3 6-2-5 26 23-12-5 22-25 14 28-10-55-26 6 32 3-24-3-11 9 14 4 20 4 31-1-8 5-16 1 16 8-30 9-21 6 34 12 16 9 18 14 16 15-2 10 3 11-2 7 3 17 8 10 1 8-1 14 6 14 4 12 8 9 7-4 21 7-3 9 5 15 6 12 4h9l13 7 15 5h14l8 3 11 5 11 4 6 1 7 4h10l10 2 7 2 6 2-9 2 12-1 10 3 4 1 8 2 2 1h5l4 3h6l5 2 2 1h-1l7 1h3"/><circle cx="165" cy="172" r="1.88" fill="#2D8587" opacity=".9" stroke="#2D8587" stroke-opacity=".6"/><path cx="626" cy="475" r="3.25" fill="#2D8587" opacity=".9" d="m622.75 471.75 6.5 3.25-6.5 3.25z"/></g><g class="key-Chile"><path stroke-width="1.75" opacity=".9" stroke="#932834" fill="none" stroke-linecap="butt" d="m394 443 2 2 6-3 7 5-7 3 2-2-1 5 10 3 4-5-12 3 8-1 3 2 3 3h5v-2l-3 1 12 3 2-1 2 6 2-4v1l9-1-4 2-10 1-1 3-21-2 3-9 11-6 9 8 9 1 8 1 6 3-22 2-6-1 6-7v1l5-5 7-1 7 1 11 1h3l7-5 13 1 6 5 4 3 10 2 7 1 6 1 2-1h-4 4l2 4v-2h3l6 2 5 1 6 2 4 1 3 2h-5l5 1h6"/><circle cx="394" cy="443" r="1.88" fill="#932834" opacity=".9" stroke="#932834" stroke-opacity=".6"/><path cx="559" cy="472" r="3.25" fill="#932834" opacity=".9" d="m555.75 468.75 6.5 3.25-6.5 3.25z"/></g><g class="key-Colombia"><path stroke-width="1.75" opacity=".9" stroke="#932834" fill="none" stroke-linecap="butt" d="m320 334 4 6 4 3 4-2 1 1 1-3 1-3-1 7 5 6 1 8 3 3 2 10 1 5 4-11v7l3 2 2-1h4l5 4 6 4 4 4 7-3 5 1 5-1v2l3 1 3-7 9 10 5 6 2 9v2l-2 2v1l1 4 2 2 5-2 4-2 3 8 1 3h3l1 3 3 6 5 8 4-3 5 4v5h3l-1-2h-8 2l2-1 4 1 5 3 5 1 7 2 7 1 3 2h1l4 1 7 1"/><circle cx="320" cy="334" r="1.88" fill="#932834" opacity=".9" stroke="#932834" stroke-opacity=".6"/><path cx="489" cy="452" r="3.25" fill="#932834" opacity=".9" d="m486.24 448.32 5.98 4.14-6.9 2.3z"/></g><g class="key-Costa-Rica"><path stroke-width="1.75" opacity=".9" stroke="#E04E4B" fill="none" stroke-linecap="butt" d="m307 374-1 1 11-1 15 1-4 2 10 1-9 17 6-5 11-3v13l6-4v-6l3 4 7 1 2 2 7-1 6 2h9l5 1 5 2 5 10 8 1h6l4 3-1-4h3l8-6 3 6 2 8-1 3-7-20-14-7v10l7 4-3 9 3-9 3 11h1l4 3 1 5v-6l8 1 6 2 2-1 1-1-2 4 4-1 6 1 2 11 2 5 2 4 2 1 3-1 3 1 3-1h8l8 2 4 6-3-1 5 1 3 3"/><circle cx="307" cy="374" r="1.88" fill="#E04E4B" opacity=".9" stroke="#E04E4B" stroke-opacity=".6"/><path cx="495" cy="458" r="3.25" fill="#E04E4B" opacity=".9" d="m495 453.4 2.3 6.9-6.9-2.3z"/></g><g class="key-Taiwan"><path stroke-width="1.75" opacity=".9" stroke="#2D8587" fill="none" stroke-linecap="butt" d="M208 325h11l7-9 7 30 6-5 2 9h5l4 3 4 3 2-9 5 5 6 12 8 8 11-7 10 4 8 6 11 9 7 8 9 16 11 2 14 12 14 4 14 1-1-3 4-1 15 7 11 4 14 6 8 5 7 5 6 2 2-2 10 1 12 6 5 2 13 1 19 1 5 2 10 1 5 3 9 2 9 1h16l7 1 7 1 6 3 4 1 7-1 7 3-3 1h6l5 1h20l8 1v-1l-3-1h13l4-1h2"/><circle cx="208" cy="325" r="1.88" fill="#2D8587" opacity=".9" stroke="#2D8587" stroke-opacity=".6"/><path cx="653" cy="478" r="3.25" fill="#2D8587" opacity=".9" d="m649.75 474.75 6.5 3.25-6.5 3.25z"/></g><g class="key-Thailand"><path stroke-width="1.75" opacity=".9" stroke="#2D8587" fill="none" stroke-linecap="butt" d="m193 270 3 32 10 1-6 16 7-7-2 9-3 4 1 2 11 3 11-4 3 3 6 9 6 5 5 11 7-6 10-7 7 20 7 3h6l5 14 3 8 1-6 10-9 3 3 3 1 9 1 10 8 10 1 4 2 3 4 6 8 4 12 5-7 6 11 4 8h15l15-1 14 5 13 11 8-1 10 2 8 8 8-2 8-2h5-6l-13-7 4 7 4 2 3-1 6-2 8-4 6 1h4l5-3 6 1 1-4h-3l9-4-1-5"/><circle cx="193" cy="270" r="1.88" fill="#2D8587" opacity=".9" stroke="#2D8587" stroke-opacity=".6"/><path cx="505" cy="424" r="3.25" fill="#2D8587" opacity=".9" d="m502.45 427.82 1.91-7 4.46 5.73z"/></g><g class="key-Bolivia"><path stroke-width="1.75" opacity=".9" stroke="#932834" fill="none" stroke-linecap="butt" d="m281 268-4 6 3-6v-9l4 10 5 2 3 14 4 4 6 5 5 15h8l3 15 3 3 2 2 4 6h5l4-7 5 2 7 3 2 4 2 5-4 3-4-8-1 23-9-86-8 24-1 21-3 35-7 27 1 30 2-8 1 3h4l4-2-1 7 3-1 4-4 3 2 3 3 5-3 4 12-2-2 1 1-1-2 1 2 2-3h3l3 4 4 3 4 5 6-2 3-2 3 4 5 2"/><circle cx="281" cy="268" r="1.88" fill="#932834" opacity=".9" stroke="#932834" stroke-opacity=".6"/><path cx="380" cy="430" r="3.25" fill="#932834" opacity=".9" d="m378.19 425.78 4.83 5.43-7.24.6z"/></g><g class="key-Ghana"><path stroke-width="1.75" opacity=".9" stroke="#923E8B" fill="none" stroke-linecap="butt" d="m259 359 1-1h3-3l-4-8-1 14-2-4v-13l10-6 7 10-9-7v-9l5-8-21 21-8-12 1-28 9-28-6 1-6 7-2 11-12-24-16-3 4 53 3 22 1 1 3-10 4 3 3 1v-7l4 3 2-2 2-6 2-3 3-3 4-6 4 18h3l3 2 3 2 2 1 4 1 4-4 4-6 5 3 5 7 2 6 9-8 4-4 7 9 15 20"/><circle cx="259" cy="359" r="1.88" fill="#923E8B" opacity=".9" stroke="#923E8B" stroke-opacity=".6"/><path cx="314" cy="365" r="3.25" fill="#923E8B" opacity=".9" d="m314.65 360.45 1.3 7.15-6.5-3.25z"/></g><g class="key-Kenya"><path stroke-width="1.75" opacity=".9" stroke="#923E8B" fill="none" stroke-linecap="butt" d="m171 238-8 8 3-18 3-5 8 14-3 14 12-7 3 9 5 10 4 7 5 5 4 11 2-5 2 4 1 8-5-8v-11l7-23 6 26v20l2-4h-3l3-4-4-2-3 7 1 6 4 4 4 7h3l2 5 1 7v12l-4 3-2-13 2-4 5 8 4 8h3l2-6v-1l4 9-1 9 3 1 4 5 6 4 6 2 8 9-2-4 3-6 10 10 7-13"/><circle cx="171" cy="238" r="1.88" fill="#923E8B" opacity=".9" stroke="#923E8B" stroke-opacity=".6"/><path cx="288" cy="356" r="3.25" fill="#923E8B" opacity=".9" d="m283.6 357.32 5.94-4.18-.22 7.26z"/></g><g class="key-Malawi"><path stroke-width="1.75" opacity=".9" stroke="#923E8B" fill="none" stroke-linecap="butt" d="m87 242 4-1-4 1-6 4-6 55 14 3 9 5 9 2-5 11 5 4-2 2 15 3h9l7 9 5 3 1 9 1-6 3-13 7 16 2-10-3 11-12 14-3-1 2-14 1-7 6 16-4 2-5 20-5-8-1-4v7l6-4-16 18 10-31-12 14 19-21 9-22 5 13-3-13 1-9-3-8-10 3-2 1 3 7 2 2v10l1 6h13l5-1h4"/><circle cx="87" cy="242" r="1.88" fill="#923E8B" opacity=".9" stroke="#923E8B" stroke-opacity=".6"/><path cx="163" cy="340" r="3.25" fill="#923E8B" opacity=".9" d="m159.75 336.75 6.5 3.25-6.5 3.25z"/></g><g class="key-Mauritius"><path stroke-width="1.75" opacity=".9" stroke="#923E8B" fill="none" stroke-linecap="butt" d="m354 401 24-32-3 6 15-31-13 38-8 2 3-1-12 3 5-9-3 4 4-8 9-5 14-9 8 10v4l26-3 6 15 3 10 2-6-17 33 6-11 5-5-1 7 5-2 8-4 12 1 12 7 8 8 5 4h8l2 6 4 1 3 5 1 3 3-2 2 1 4 3 4 2v14l7-3 1-2-2 4h4l2-1-1 2 3 2 4 4 4 2 1 1 2 1h5"/><circle cx="354" cy="401" r="1.88" fill="#923E8B" opacity=".9" stroke="#923E8B" stroke-opacity=".6"/><path cx="538" cy="470" r="3.25" fill="#923E8B" opacity=".9" d="m534.75 466.75 6.5 3.25-6.5 3.25z"/></g><g class="key-Senegal"><path stroke-width="1.75" opacity=".9" stroke="#923E8B" fill="none" stroke-linecap="butt" d="m265 345 3 1 1-4 2 21-1-5 1-4v4l-5 4 4 3-13 4 7-4-4 16 4-18-12 11 2-6 7-33 8-1-8 14-9 33 4-14-9 23-5-10 15-4-1 21-11-7 1-15 2-4 1-3 3 18-7-7 1 12-1-2-3 8-3-10-4 8 3-10-1 5v1l3 2 5 2v-2l2 3-4 15 5-8 3 8 3-5-1 9 2 5 1-10-1-6 1-1"/><circle cx="265" cy="345" r="1.88" fill="#923E8B" opacity=".9" stroke="#923E8B" stroke-opacity=".6"/><path cx="256" cy="403" r="3.25" fill="#923E8B" opacity=".9" d="m251.4 403 6.9-2.3-2.3 6.9z"/></g><g class="key-South-Africa"><path stroke-width="1.75" opacity=".9" stroke="#923E8B" fill="none" stroke-linecap="butt" d="m367 433 2-2 4 3h6l5 8 5 1 2-2 5-5 2 9 5 2 3 6 3-3h-1l3 2 4-7-1 5v5l-4-1v1l2 4 5-1 3-1-5 3-7 7 3-2-6-2-3 1-1-3 2-1v2l-4 4h-2l-3 4 2-2 4-2 5 3 7-2 4 1 2 2 4 1 6 1 5-1 6-3 4 3 7 2 8 2 8-1h13-1l5 2 6 1"/><circle cx="367" cy="433" r="1.88" fill="#923E8B" opacity=".9" stroke="#923E8B" stroke-opacity=".6"/><path cx="489" cy="477" r="3.25" fill="#923E8B" opacity=".9" d="m486.33 473.26 5.88 4.27-6.95 2.14z"/></g><g class="key-Tanzania"><path stroke-width="1.75" opacity=".9" stroke="#923E8B" fill="none" stroke-linecap="butt" d="m108 365-5 10h8l4-8 3 7 1 15 13 1 1 10 3 3-2 1 3 2 2 5 4-1v1l-1 3 3-6 6-11-1-5v1l-2-5-3 1-5-6-3-13-4-5-1-2-4-17v-18l2 10 2-17v3l1 19 2-22 1-3 1 4v3l4-10 7-6 5 1 5 6 6 1 6 1 8 4 8 3h8l9-4 8 7 6 7 11 2 7 2 7 5 9 3 10 3"/><circle cx="108" cy="365" r="1.88" fill="#923E8B" opacity=".9" stroke="#923E8B" stroke-opacity=".6"/><path cx="261" cy="350" r="3.25" fill="#923E8B" opacity=".9" d="m258.82 345.95 5.3 4.98-7.17 1.25z"/></g><g class="key-Venezuela"><path stroke-width="1.75" opacity=".9" stroke="#932834" fill="none" stroke-linecap="butt" d="m493 465 1-2h22-2 1l2 1 2-3 5 1-1 3v2h4l3 4 4-2 6 2 4-1h-11l-5-1-2-1-12-2-6-1-3-4 5-3 1 1 4-1-16 1 6 5 10-1h6-2l-5 2 3-2-3 5h7l-2-3-10-1 3 4 3-2-14 2-13-2 21 3h33l5-2-6-8-1 2h11"/><circle cx="493" cy="465" r="1.88" fill="#932834" opacity=".9" stroke="#932834" stroke-opacity=".6"/><path cx="551" cy="461" r="3.25" fill="#932834" opacity=".9" d="m547.75 457.75 6.5 3.25-6.5 3.25z"/></g><g class="key-Zambia"><path stroke-width="1.75" opacity=".9" stroke="#923E8B" fill="none" stroke-linecap="butt" d="m209 451-3-5-5 2v-3l13 4 20 5-12 2 7 1-2 2-5 4 3-3-4-3 8-5-6 7 7 3-10-11 4-8-10 3-4 3-8 7v-1l4-7-9-3-8-2-5-2-2 8-4-11h-2l4-7-2 5 7-3v-6l3 2v-1l-19-3 5-12 9 5 5-4v-10l7-11 5 10 7 3 7 2 10-1 10 1 10 5 11 7 11 6 11 3 12 1 14 9"/><circle cx="209" cy="451" r="1.88" fill="#923E8B" opacity=".9" stroke="#923E8B" stroke-opacity=".6"/><path cx="303" cy="439" r="3.25" fill="#923E8B" opacity=".9" d="m302.02 434.5 3.71 6.26-7.22-.78z"/></g><g class="key-Botswana"><path stroke-width="1.75" opacity=".9" stroke="#923E8B" fill="none" stroke-linecap="butt" d="m82 284 2 17 11-5 11-25 11-24 11 41 10 37 28 15h27l22 1 5 7 5 9 7 30 6 1 8 11 12 21 10 14 10 2h6l10 17 13 5 8 5 5 5 6 1 12-7 35 4 6 1 8 1h3l1-3 4 3 8-4 7 5 10 1 1 2 13 1 2 1 1 1 9 1 6-2 5 2 6 3 12-1 12-2 9-1-11-2h12"/><circle cx="82" cy="284" r="1.88" fill="#923E8B" opacity=".9" stroke="#923E8B" stroke-opacity=".6"/><path cx="497" cy="473" r="3.25" fill="#923E8B" opacity=".9" d="m493.75 469.75 6.5 3.25-6.5 3.25z"/></g><g class="key-Germany"><path stroke-width="1.75" opacity=".9" stroke="#4C5C78" fill="none" stroke-linecap="butt" d="m528 468 8 1 5 4 3 1h5l6 1 1 1-1-1h12l4 1 5 1 1 1h1-2l3 1h5l3 2h12l-5 1 7 1 3-15-1 1 5 1 3-2h3l3 2 5 3 4 2 5-1 4-2 1 3 1 2h3l2 3 7 1h6l3 1h-6l8-2"/><circle cx="528" cy="468" r="1.88" fill="#4C5C78" opacity=".9" stroke="#4C5C78" stroke-opacity=".6"/><path cx="660" cy="480" r="3.25" fill="#4C5C78" opacity=".9" d="m656.06 477.64 7.1 1.57-5.52 4.73z"/></g><g class="key-Denmark"><path stroke-width="1.75" opacity=".9" stroke="#4C5C78" fill="none" stroke-linecap="butt" d="m563 458 2-1 6-1 5-3-2 1-2 5 9 1 1-2 2-1 4 4v-1l-2-1 5-2 3 4 6-4 6 3 4 2 1 4h1v-3l2 2 2 2 3 1 1 1 7 1 4-2h4l5 2 3 3 4 2 6-1 1-2 1 3 1 2h4l3 3 6 1h1v1h-7l3-2 2-1"/><circle cx="563" cy="458" r="1.88" fill="#4C5C78" opacity=".9" stroke="#4C5C78" stroke-opacity=".6"/><path cx="668" cy="479" r="3.25" fill="#4C5C78" opacity=".9" d="M663.64 477.55h7.27l-4.36 5.81z"/></g><g class="key-Italy"><path stroke-width="1.75" opacity=".9" stroke="#4C5C78" fill="none" stroke-linecap="butt" d="m526 441 2 2 3 3 7-2 6 5-4-2 8 3 3 1h5l7 2 5 2v3l1 1 1-1 3 3 4 1 4 1 4 1 5 2 4 1 3 1h5v1h14l4 1h3l5 2h4l1 1h3l1 1 3 1h3l-2 1-7 1 3-1h1"/><circle cx="526" cy="441" r="1.88" fill="#4C5C78" opacity=".9" stroke="#4C5C78" stroke-opacity=".6"/><path cx="638" cy="476" r="3.25" fill="#4C5C78" opacity=".9" d="m634.75 472.75 6.5 3.25-6.5 3.25z"/></g><g class="key-Malaysia"><path stroke-width="1.75" opacity=".9" stroke="#2D8587" fill="none" stroke-linecap="butt" d="m315 336 7 2 6 1 16 1 6 3-2 4 13 4 8 4 8 4 8 4 7 2 6 4 5 3 5 3 7 3-5 3-2 3 4 6h8l9 11 10 14 9 4 10-1 10 4 10 1 10 4 11 6 7 3-13-9 5 11 9 9-2 3 5-4 6-3 7 1 5 4 6-1 7-7h5l-4 4 9-6 6-7"/><circle cx="315" cy="336" r="1.88" fill="#2D8587" opacity=".9" stroke="#2D8587" stroke-opacity=".6"/><path cx="557" cy="431" r="3.25" fill="#2D8587" opacity=".9" d="m552.42 431.35 6.7-2.82-1.77 7.05z"/></g><g class="key-Morocco"><path stroke-width="1.75" opacity=".9" stroke="#923E8B" fill="none" stroke-linecap="butt" d="m281 380 4-10v5l2 3 5 5 6 13 11-9 4 13 1-13 4 5 9-3-6 29 10-14-4 2 2 2 4-7 7-15-7 20 10-11v1l2-1 7-13-5 25-3 4 12-20-10 21 14-25-4 20 8-9v24l9-8h2l7-3 5 4 3 8 8-10 3 14 7-4 4-8 4 5 6-1 2 5"/><circle cx="281" cy="380" r="1.88" fill="#923E8B" opacity=".9" stroke="#923E8B" stroke-opacity=".6"/><path cx="424" cy="424" r="3.25" fill="#923E8B" opacity=".9" d="m425.81 419.78-.6 7.24-5.43-4.83z"/></g><g class="key-Singapore"><path stroke-width="1.75" opacity=".9" stroke="#2D8587" fill="none" stroke-linecap="butt" d="M410 479h14l14 1h12l7 1h20l9 1h11l11 1h8l3 1 9 1h9l-1 1h13l11 1h18l6 1h53-5 16-3 18l8 1h21-2 28"/><circle cx="410" cy="479" r="1.88" fill="#2D8587" opacity=".9" stroke="#2D8587" stroke-opacity=".6"/><path cx="718" cy="489" r="3.25" fill="#2D8587" opacity=".9" d="m714.75 485.75 6.5 3.25-6.5 3.25z"/></g><g class="key-Peru"><path stroke-width="1.75" opacity=".9" stroke="#932834" fill="none" stroke-linecap="butt" d="m403 428 8 5-15 11-20 2-10 4v-3h-3l4-3h14l8 2 1-2 7 3-2-2v1l2 1v2l5 1 5 1 5 2 7 1 9 1h10l11-1v-1l10 3h8"/><circle cx="403" cy="428" r="1.88" fill="#932834" opacity=".9" stroke="#932834" stroke-opacity=".6"/><path cx="467" cy="456" r="3.25" fill="#932834" opacity=".9" d="m463.75 452.75 6.5 3.25-6.5 3.25z"/></g><text x="138.48" y="242.73" font-size="8" font-weight="400" fill="#2D8587" style="fill:#fff;stroke:#fff;stroke-linecap:round;stroke-linejoin:round;stroke-width:.25em">1952</text><text x="138.48" y="242.73" font-size="8" font-weight="400" fill="#2D8587">1952</text><text x="473.96" y="447.42" font-size="15.6" font-weight="700" fill="#2D8587" style="fill:#fff;stroke:#fff;stroke-linecap:round;stroke-linejoin:round;stroke-width:.25em">China</text><text x="473.96" y="447.42" font-size="15.6" font-weight="700" fill="#2D8587">China</text><text x="132.26" y="216.07" font-size="8" font-weight="400" fill="#2D8587" style="fill:#fff;stroke:#fff;stroke-linecap:round;stroke-linejoin:round;stroke-width:.25em">1950</text><text x="132.26" y="216.07" font-size="8" font-weight="400" fill="#2D8587">1950</text><text x="375" y="403" font-size="15.45" font-weight="700" fill="#2D8587" style="fill:#fff;stroke:#fff;stroke-linecap:round;stroke-linejoin:round;stroke-width:.25em">India</text><text x="375" y="403" font-size="15.45" font-weight="700" fill="#2D8587">India</text><text x="305.28" y="283.06" font-size="8" font-weight="400" fill="#E04E4B" style="fill:#fff;stroke:#fff;stroke-linecap:round;stroke-linejoin:round;stroke-width:.25em">1839</text><text x="305.28" y="283.06" font-size="8" font-weight="400" fill="#E04E4B">1839</text><text x="617.12" y="484" font-size="13.74" font-weight="700" fill="#E04E4B" style="fill:#fff;stroke:#fff;stroke-linecap:round;stroke-linejoin:round;stroke-width:.25em">United States</text><text x="617.12" y="484" font-size="13.74" font-weight="700" fill="#E04E4B">United States</text><text x="213.84" y="264.2" font-size="8" font-weight="400" fill="#2D8587" style="fill:#fff;stroke:#fff;stroke-linecap:round;stroke-linejoin:round;stroke-width:.25em">1966</text><text x="213.84" y="264.2" font-size="8" font-weight="400" fill="#2D8587">1966</text><text x="460.93" y="426.59" font-size="13.53" font-weight="700" fill="#2D8587" style="fill:#fff;stroke:#fff;stroke-linecap:round;stroke-linejoin:round;stroke-width:.25em">Indonesia</text><text x="460.93" y="426.59" font-size="13.53" font-weight="700" fill="#2D8587">Indonesia</text><text x="415.5" y="472.74" font-size="8" font-weight="400" fill="#932834" style="fill:#fff;stroke:#fff;stroke-linecap:round;stroke-linejoin:round;stroke-width:.25em">1990</text><text x="415.5" y="472.74" font-size="8" font-weight="400" fill="#932834">1990</text><text x="524.93" y="459.18" font-size="13.36" font-weight="700" fill="#932834" style="fill:#fff;stroke:#fff;stroke-linecap:round;stroke-linejoin:round;stroke-width:.25em">Brazil</text><text x="524.93" y="459.18" font-size="13.36" font-weight="700" fill="#932834">Brazil</text><text x="188" y="210" font-size="8" font-weight="400" fill="#923E8B" style="fill:#fff;stroke:#fff;stroke-linecap:round;stroke-linejoin:round;stroke-width:.25em">1960</text><text x="188" y="210" font-size="8" font-weight="400" fill="#923E8B">1960</text><text x="379.47" y="334.76" font-size="13.24" font-weight="700" fill="#923E8B" style="fill:#fff;stroke:#fff;stroke-linecap:round;stroke-linejoin:round;stroke-width:.25em">Nigeria</text><text x="379.47" y="334.76" font-size="13.24" font-weight="700" fill="#923E8B">Nigeria</text><text x="205.61" y="284.76" font-size="8" font-weight="400" fill="#2D8587" style="fill:#fff;stroke:#fff;stroke-linecap:round;stroke-linejoin:round;stroke-width:.25em">1885</text><text x="205.61" y="284.76" font-size="8" font-weight="400" fill="#2D8587">1885</text><text x="528.9" y="478.5" font-size="13.04" font-weight="700" fill="#E04E4B" style="fill:#fff;stroke:#fff;stroke-linecap:round;stroke-linejoin:round;stroke-width:.25em">Mexico</text><text x="528.9" y="478.5" font-size="13.04" font-weight="700" fill="#E04E4B">Mexico</text><text x="404.34" y="438.96" font-size="12.96" font-weight="700" fill="#2D8587" style="fill:#fff;stroke:#fff;stroke-linecap:round;stroke-linejoin:round;stroke-width:.25em">Philippines</text><text x="404.34" y="438.96" font-size="12.96" font-weight="700" fill="#2D8587">Philippines</text><text x="89.71" y="115.8" font-size="8" font-weight="400" fill="#923E8B" style="fill:#fff;stroke:#fff;stroke-linecap:round;stroke-linejoin:round;stroke-width:.25em">1961</text><text x="89.71" y="115.8" font-size="8" font-weight="400" fill="#923E8B">1961</text><text x="189.05" y="246.04" font-size="12.93" font-weight="700" fill="#923E8B" style="fill:#fff;stroke:#fff;stroke-linecap:round;stroke-linejoin:round;stroke-width:.25em">Ethiopia</text><text x="189.05" y="246.04" font-size="12.93" font-weight="700" fill="#923E8B">Ethiopia</text><text x="196.01" y="367.45" font-size="8" font-weight="400" fill="#923E8B" style="fill:#fff;stroke:#fff;stroke-linecap:round;stroke-linejoin:round;stroke-width:.25em">1960</text><text x="196.01" y="367.45" font-size="8" font-weight="400" fill="#923E8B">1960</text><text x="476" y="419" font-size="12.91" font-weight="700" fill="#923E8B" style="fill:#fff;stroke:#fff;stroke-linecap:round;stroke-linejoin:round;stroke-width:.25em">Egypt</text><text x="476" y="419" font-size="12.91" font-weight="700" fill="#923E8B">Egypt</text><text x="172.15" y="305.18" font-size="8" font-weight="400" fill="#4C5C78" style="fill:#fff;stroke:#fff;stroke-linecap:round;stroke-linejoin:round;stroke-width:.25em">1801</text><text x="172.15" y="305.18" font-size="8" font-weight="400" fill="#4C5C78">1801</text><text x="649" y="475" font-size="12.77" font-weight="700" fill="#4C5C78" style="fill:#fff;stroke:#fff;stroke-linecap:round;stroke-linejoin:round;stroke-width:.25em">France</text><text x="649" y="475" font-size="12.77" font-weight="700" fill="#4C5C78">France</text><text x="205.84" y="308.53" font-size="8" font-weight="400" fill="#4C5C78" style="fill:#fff;stroke:#fff;stroke-linecap:round;stroke-linejoin:round;stroke-width:.25em">1850</text><text x="205.84" y="308.53" font-size="8" font-weight="400" fill="#4C5C78">1850</text><text x="586.45" y="472" font-size="12.67" font-weight="700" fill="#4C5C78" style="fill:#fff;stroke:#fff;stroke-linecap:round;stroke-linejoin:round;stroke-width:.25em">Spain</text><text x="586.45" y="472" font-size="12.67" font-weight="700" fill="#4C5C78">Spain</text><text x="167.24" y="180.47" font-size="8" font-weight="400" fill="#2D8587" style="fill:#fff;stroke:#fff;stroke-linecap:round;stroke-linejoin:round;stroke-width:.25em">1911</text><text x="167.24" y="180.47" font-size="8" font-weight="400" fill="#2D8587">1911</text><text x="374.54" y="439.46" font-size="8" font-weight="400" fill="#932834" style="fill:#fff;stroke:#fff;stroke-linecap:round;stroke-linejoin:round;stroke-width:.25em">1950</text><text x="374.54" y="439.46" font-size="8" font-weight="400" fill="#932834">1950</text><text x="320" y="334" font-size="8" font-weight="400" fill="#932834" style="fill:#fff;stroke:#fff;stroke-linecap:round;stroke-linejoin:round;stroke-width:.25em">1950</text><text x="320" y="334" font-size="8" font-weight="400" fill="#932834">1950</text><text x="498.54" y="467.64" font-size="12.21" font-weight="700" fill="#E04E4B" style="fill:#fff;stroke:#fff;stroke-linecap:round;stroke-linejoin:round;stroke-width:.25em">Costa Rica</text><text x="498.54" y="467.64" font-size="12.21" font-weight="700" fill="#E04E4B">Costa Rica</text><text x="176.61" y="265.02" font-size="8" font-weight="400" fill="#2D8587" style="fill:#fff;stroke:#fff;stroke-linecap:round;stroke-linejoin:round;stroke-width:.25em">1951</text><text x="176.61" y="265.02" font-size="8" font-weight="400" fill="#2D8587">1951</text><text x="283.77" y="263.84" font-size="8" font-weight="400" fill="#932834" style="fill:#fff;stroke:#fff;stroke-linecap:round;stroke-linejoin:round;stroke-width:.25em">1958</text><text x="283.77" y="263.84" font-size="8" font-weight="400" fill="#932834">1958</text><text x="239.54" y="366.54" font-size="8" font-weight="400" fill="#923E8B" style="fill:#fff;stroke:#fff;stroke-linecap:round;stroke-linejoin:round;stroke-width:.25em">1960</text><text x="239.54" y="366.54" font-size="8" font-weight="400" fill="#923E8B">1960</text><text x="317" y="375.24" font-size="12.49" font-weight="700" fill="#923E8B" style="fill:#fff;stroke:#fff;stroke-linecap:round;stroke-linejoin:round;stroke-width:.25em">Ghana</text><text x="317" y="375.24" font-size="12.49" font-weight="700" fill="#923E8B">Ghana</text><text x="84.15" y="247.21" font-size="8" font-weight="400" fill="#923E8B" style="fill:#fff;stroke:#fff;stroke-linecap:round;stroke-linejoin:round;stroke-width:.25em">1960</text><text x="84.15" y="247.21" font-size="8" font-weight="400" fill="#923E8B">1960</text><text x="168" y="340" font-size="12.37" font-weight="700" fill="#923E8B" style="fill:#fff;stroke:#fff;stroke-linecap:round;stroke-linejoin:round;stroke-width:.25em">Malawi</text><text x="168" y="340" font-size="12.37" font-weight="700" fill="#923E8B">Malawi</text><text x="335.08" y="409" font-size="8" font-weight="400" fill="#923E8B" style="fill:#fff;stroke:#fff;stroke-linecap:round;stroke-linejoin:round;stroke-width:.25em">1960</text><text x="335.08" y="409" font-size="8" font-weight="400" fill="#923E8B">1960</text><text x="259.54" y="399.46" font-size="12.35" font-weight="700" fill="#923E8B" style="fill:#fff;stroke:#fff;stroke-linecap:round;stroke-linejoin:round;stroke-width:.25em">Senegal</text><text x="259.54" y="399.46" font-size="12.35" font-weight="700" fill="#923E8B">Senegal</text><text x="110.24" y="360.53" font-size="8" font-weight="400" fill="#923E8B" style="fill:#fff;stroke:#fff;stroke-linecap:round;stroke-linejoin:round;stroke-width:.25em">1960</text><text x="110.24" y="360.53" font-size="8" font-weight="400" fill="#923E8B">1960</text><text x="265.79" y="357.76" font-size="12.66" font-weight="700" fill="#923E8B" style="fill:#fff;stroke:#fff;stroke-linecap:round;stroke-linejoin:round;stroke-width:.25em">Tanzania</text><text x="265.79" y="357.76" font-size="12.66" font-weight="700" fill="#923E8B">Tanzania</text><text x="556" y="461" font-size="12.53" font-weight="700" fill="#932834" style="fill:#fff;stroke:#fff;stroke-linecap:round;stroke-linejoin:round;stroke-width:.25em">Venezuela</text><text x="556" y="461" font-size="12.53" font-weight="700" fill="#932834">Venezuela</text><text x="211.57" y="459.29" font-size="8" font-weight="400" fill="#923E8B" style="fill:#fff;stroke:#fff;stroke-linecap:round;stroke-linejoin:round;stroke-width:.25em">1960</text><text x="211.57" y="459.29" font-size="8" font-weight="400" fill="#923E8B">1960</text><text x="307.21" y="447.88" font-size="12.36" font-weight="700" fill="#923E8B" style="fill:#fff;stroke:#fff;stroke-linecap:round;stroke-linejoin:round;stroke-width:.25em">Zambia</text><text x="307.21" y="447.88" font-size="12.36" font-weight="700" fill="#923E8B">Zambia</text><text x="83.42" y="279.03" font-size="8" font-weight="400" fill="#923E8B" style="fill:#fff;stroke:#fff;stroke-linecap:round;stroke-linejoin:round;stroke-width:.25em">1964</text><text x="83.42" y="279.03" font-size="8" font-weight="400" fill="#923E8B">1964</text><text x="294.27" y="334.63" font-size="8" font-weight="400" fill="#2D8587" style="fill:#fff;stroke:#fff;stroke-linecap:round;stroke-linejoin:round;stroke-width:.25em">1970</text><text x="294.27" y="334.63" font-size="8" font-weight="400" fill="#2D8587">1970</text><text x="560.25" y="427.2" font-size="12.52" font-weight="700" fill="#2D8587" style="fill:#fff;stroke:#fff;stroke-linecap:round;stroke-linejoin:round;stroke-width:.25em">Malaysia</text><text x="560.25" y="427.2" font-size="12.52" font-weight="700" fill="#2D8587">Malaysia</text><text x="389.08" y="479" font-size="8" font-weight="400" fill="#2D8587" style="fill:#fff;stroke:#fff;stroke-linecap:round;stroke-linejoin:round;stroke-width:.25em">1970</text><text x="389.08" y="479" font-size="8" font-weight="400" fill="#2D8587">1970</text><text x="472" y="456" font-size="12.52" font-weight="700" fill="#932834" style="fill:#fff;stroke:#fff;stroke-linecap:round;stroke-linejoin:round;stroke-width:.25em">Peru</text><text x="472" y="456" font-size="12.52" font-weight="700" fill="#932834">Peru</text></g><g class="ScatterColorLegend clickable" style="cursor:pointer"><g class="legendMark"><path fill="#923E8B" d="M738.09 109.6h9v9h-9z"/><text font-size="12.6" x="752.1" y="117.9" style="font-weight:700"><tspan x="752.09" y="117.88">Africa</tspan></text></g><g class="legendMark"><path fill="#2D8587" d="M738.09 127.2h9v9h-9z"/><text font-size="12.6" x="752.1" y="135.5"><tspan x="752.09" y="135.48">Asia</tspan></text></g><g class="legendMark"><path fill="#4C5C78" d="M738.09 144.8h9v9h-9z"/><text font-size="12.6" x="752.1" y="153.1"><tspan x="752.09" y="153.08">Europe</tspan></text></g><g class="legendMark"><path fill="#E04E4B" d="M738.09 162.4h9v9h-9z"/><text font-size="12.6" x="752.1" y="170.7" style="font-weight:700"><tspan x="752.09" y="170.68">North America</tspan></text></g><g class="legendMark"><path fill="#932834" d="M738.09 180h9v9h-9z"/><text font-size="12.6" x="752.1" y="188.3"><tspan x="752.09" y="188.28">South America</tspan></text></g></g><path stroke="#ccc" d="M738.09 196.8H830"/><g class="clickable"><g class="ConnectedScatterLegend"><text font-size="12.6" x="738.1" y="213.9" fill="#333"><tspan x="738.09" y="213.88">1801</tspan></text><text font-size="12.6" x="806.8" y="213.9" fill="#333"><tspan x="806.78" y="213.88">2016</tspan></text><path stroke="#666" stroke-width="1" d="M771.32 209.6h30.46"/><circle cx="771.32" cy="209.6" r="2" fill="#666" stroke="#ccc" stroke-width=".2"/><circle cx="781.47" cy="209.6" r="2" fill="#666" stroke="#ccc" stroke-width=".2"/><circle cx="791.62" cy="209.6" r="2" fill="#666" stroke="#ccc" stroke-width=".2"/><path cx="801.78" cy="209.6" r="3" fill="#666" stroke="#ccc" stroke-width=".2" d="m798.78 206.6 6 3-6 3z"/></g></g></g><g class="SourcesFooter" style="fill:#777"><g style="fill:#777"><text font-size="12.6" x="15" y="567.9"><tspan x="15" y="567.88">Source: Our World In Data based on Herrendorf et al. (2014) and GGDC-10 (2015), Maddison Project Database, 2020 (Bolt and van Zanden)</tspan></text></g><text font-size="12.6" x="15" y="582.5"><tspan x="15" y="582.48"><a target="_blank" style="fill:#777" href="https://ourworldindata.org/employment-in-agriculture">OurWorldInData.org/employment-in-agriculture</a> • <a style="fill:#777" class="cclogo" href="http://creativecommons.org/licenses/by/4.0/deed.en_US" target="_blank">CC BY</a></tspan></text></g></svg>