<svg xmlns="http://www.w3.org/2000/svg" version="1.1" style="background-color:#fff;-webkit-font-smoothing:antialiased" width="850" height="600" viewBox="0 0 850 600" font-family="Lato,'Helvetica Neue',Helvetica,Arial,sans-serif" font-size="18" text-rendering="geometricPrecision"><g class="HeaderView"><g transform="matrix(.29 0 0 .29 774 15)"><svg className="owidLog" width="210" height="120" viewBox="0 0 210 120" fill="none" xmlns="http://www.w3.org/2000/svg"><g clip-path="url(#clip0)"><path d="M0 0h210v107.89H0V0z" fill="#002147"/><path d="M40.98 32.25c0 2.36-.38 4.53-1.12 6.51a14.26 14.26 0 01-8.1 8.4c-1.9.78-4.02 1.17-6.34 1.17a16.6 16.6 0 01-6.33-1.17 14.31 14.31 0 01-8.08-8.4 18.29 18.29 0 01-1.12-6.51c0-2.36.38-4.53 1.12-6.5.75-1.97 1.8-3.67 3.17-5.1a14.32 14.32 0 014.9-3.34c1.92-.8 4.03-1.19 6.34-1.19 2.32 0 4.43.4 6.34 1.19 1.92.8 3.56 1.9 4.93 3.34a14.87 14.87 0 013.17 5.1 18.1 18.1 0 011.12 6.5zm-4.38 0c0-1.94-.26-3.68-.8-5.22a10.91 10.91 0 00-2.24-3.89 9.68 9.68 0 00-3.52-2.46 11.95 11.95 0 00-4.62-.86c-1.68 0-3.21.28-4.6.86a9.88 9.88 0 00-3.54 2.46 10.91 10.91 0 00-2.24 3.9c-.53 1.53-.8 3.27-.8 5.2 0 1.94.27 3.68.8 5.22a11.17 11.17 0 002.24 3.9 10.01 10.01 0 003.55 2.44c1.38.56 2.9.83 4.6.83s3.24-.27 4.61-.83a9.8 9.8 0 003.52-2.44 11.17 11.17 0 002.25-3.9c.53-1.54.8-3.28.8-5.21zm26.22-6.54V48H60.5c-.56 0-.9-.27-1.05-.81l-.31-2.4a12.45 12.45 0 01-3.26 2.6c-1.2.64-2.58.96-4.13.96-1.22 0-2.3-.2-3.24-.6a6.52 6.52 0 01-2.33-1.7 7.37 7.37 0 01-1.43-2.67c-.3-1.04-.46-2.2-.46-3.45V25.7h3.91v14.22c0 1.68.38 2.99 1.15 3.91.77.93 1.96 1.39 3.54 1.39 1.16 0 2.24-.27 3.23-.82a10.42 10.42 0 002.8-2.28V25.7h3.91zm8.61 4.47a9.94 9.94 0 012.6-3.56 5.64 5.64 0 013.76-1.3c.47 0 .92.05 1.34.15.44.1.83.27 1.17.49l-.3 2.92c-.09.37-.3.55-.66.55-.2 0-.5-.04-.9-.13a6.21 6.21 0 00-3.24.18 4.23 4.23 0 00-1.47.92c-.42.4-.81.9-1.17 1.5-.33.58-.64 1.26-.92 2.02V48H67.7V25.71h2.25c.42 0 .72.08.88.25.16.16.27.44.33.83l.26 3.39zm61.16-13.7L122.75 48h-3.82l-7.99-24.05a21.95 21.95 0 01-.42-1.58 38.36 38.36 0 01-.44 1.58L102.05 48h-3.83L88.4 16.47h3.54c.38 0 .7.1.95.29.26.2.43.43.5.73l6.52 21.9.28 1.28.29 1.46.3-1.46.38-1.27 7.41-21.91c.1-.25.26-.48.51-.69.27-.22.58-.33.95-.33h1.23c.38 0 .69.1.92.29a1.77 1.77 0 01.53.73l7.4 21.9a28.4 28.4 0 01.68 2.62 29.52 29.52 0 01.52-2.61l6.54-21.91a1.31 1.31 0 01.48-.7c.27-.21.58-.32.95-.32h3.32zm9.35 8.88c1.63 0 3.1.27 4.4.82a9.43 9.43 0 015.46 5.94c.5 1.4.74 2.98.74 4.73 0 1.76-.25 3.34-.74 4.75a9.43 9.43 0 01-5.46 5.92c-1.3.52-2.77.79-4.4.79-1.64 0-3.12-.27-4.44-.8a9.42 9.42 0 01-3.35-2.3c-.92-1-1.63-2.2-2.13-3.61-.49-1.41-.73-3-.73-4.75s.24-3.33.73-4.73c.5-1.43 1.2-2.64 2.13-3.63a9.4 9.4 0 013.35-2.31c1.32-.55 2.8-.82 4.44-.82zm0 19.89c2.2 0 3.84-.73 4.93-2.2 1.08-1.48 1.63-3.54 1.63-6.18 0-2.66-.55-4.72-1.63-6.2-1.09-1.49-2.73-2.23-4.93-2.23-1.12 0-2.09.2-2.93.57a5.71 5.71 0 00-2.06 1.65 7.5 7.5 0 00-1.24 2.67c-.26 1.04-.4 2.22-.4 3.54 0 2.64.55 4.7 1.64 6.18 1.1 1.47 2.76 2.2 4.99 2.2zm17.97-15.07a9.94 9.94 0 012.6-3.56 5.64 5.64 0 013.76-1.3c.47 0 .91.05 1.34.15.44.1.83.27 1.16.49l-.28 2.92c-.09.37-.31.55-.66.55-.2 0-.5-.04-.9-.13a6.2 6.2 0 00-3.24.18 4.23 4.23 0 00-1.47.92c-.43.4-.82.9-1.17 1.5a13.1 13.1 0 00-.92 2.02V48h-3.94V25.71h2.24c.43 0 .72.08.88.25.17.16.28.44.33.83l.27 3.39zm15.04-14.59V48h-3.92V15.6h3.92zm19.55 15.43a6.22 6.22 0 00-2.38-2.05 6.7 6.7 0 00-2.86-.6c-2.07 0-3.66.75-4.77 2.23-1.12 1.48-1.68 3.6-1.68 6.33 0 1.46.13 2.7.38 3.74a7.29 7.29 0 001.1 2.56 4.35 4.35 0 001.78 1.45c.7.3 1.5.46 2.4.46 1.29 0 2.41-.3 3.36-.88a9.6 9.6 0 002.67-2.49V31.02zm3.91-15.43V48h-2.33c-.56 0-.9-.27-1.06-.81l-.35-2.71a12.13 12.13 0 01-3.25 2.77 8.28 8.28 0 01-4.23 1.06 7.31 7.31 0 01-6.14-2.9c-.73-.96-1.3-2.15-1.69-3.57a18.35 18.35 0 01.07-9.48 11.29 11.29 0 011.89-3.7 8.7 8.7 0 017.06-3.34 7.96 7.96 0 016.12 2.62V15.59h3.91zM46.61 70.71V93H42.7V70.71h3.91zm.84-7c0 .39-.08.75-.24 1.09a2.81 2.81 0 01-1.52 1.47 2.67 2.67 0 01-2.16 0 2.9 2.9 0 01-1.45-1.47 2.67 2.67 0 010-2.16c.15-.35.35-.65.6-.9.25-.27.53-.47.85-.62a2.67 2.67 0 012.16 0c.35.15.65.35.9.62.27.25.47.55.62.9.16.34.24.7.24 1.08zm7.97 10.24c.49-.54 1-1.04 1.54-1.48a9.85 9.85 0 013.66-1.84 8.96 8.96 0 015.43.35c.94.4 1.72.97 2.33 1.71a7.36 7.36 0 011.43 2.67c.32 1.04.49 2.19.49 3.45V93h-3.94V78.81c0-1.69-.4-3-1.17-3.92-.76-.93-1.93-1.4-3.5-1.4a6.6 6.6 0 00-3.25.83c-1 .56-1.92 1.31-2.77 2.27V93h-3.94V70.71h2.35c.56 0 .9.28 1.04.82l.3 2.42zm57.7 3.3c0 2.36-.37 4.5-1.11 6.44a14.3 14.3 0 01-3.17 4.98 14.1 14.1 0 01-4.93 3.2c-1.9.76-4.02 1.13-6.33 1.13H85.8V61.47h11.77c2.31 0 4.42.39 6.33 1.15a13.8 13.8 0 018.1 8.18 17.75 17.75 0 011.12 6.45zm-4.37 0c0-1.94-.26-3.67-.8-5.2a10.94 10.94 0 00-2.23-3.87 9.57 9.57 0 00-3.53-2.42 12.23 12.23 0 00-4.61-.83h-7.5v24.62h7.5c1.7 0 3.24-.28 4.61-.84a9.7 9.7 0 003.53-2.4 10.94 10.94 0 002.24-3.87c.53-1.53.8-3.26.8-5.2zm19.8 5.72c-1.8.06-3.34.2-4.62.44-1.26.22-2.3.51-3.1.88-.8.36-1.37.8-1.74 1.3-.35.5-.53 1.05-.53 1.67 0 .58.1 1.1.3 1.52a3 3 0 00.76 1.05c.34.27.73.46 1.17.6a6.13 6.13 0 001.45.17 7.28 7.28 0 003.5-.81 11.95 11.95 0 002.82-2.2v-4.62zm-12.65-9.11a12.73 12.73 0 013.98-2.66c1.43-.59 3-.88 4.73-.88 1.25 0 2.36.2 3.33.61a6.81 6.81 0 013.94 4.38c.33 1.04.5 2.19.5 3.43V93h-1.74a1.8 1.8 0 01-.88-.18c-.2-.13-.36-.38-.48-.74l-.44-2.12-1.72 1.46a9.48 9.48 0 01-3.74 1.7c-.69.15-1.46.23-2.3.23-.87 0-1.69-.12-2.45-.35a5.34 5.34 0 01-3.34-2.93 6.64 6.64 0 01-.49-2.64c0-.88.25-1.72.73-2.53a6.33 6.33 0 012.35-2.17c1.09-.63 2.5-1.15 4.25-1.54 1.75-.41 3.89-.65 6.42-.7v-1.75c0-1.73-.37-3.03-1.12-3.91-.75-.9-1.84-1.34-3.28-1.34-.97 0-1.78.12-2.44.37-.64.23-1.2.5-1.7.81l-1.23.82c-.33.23-.67.35-1 .35-.27 0-.5-.07-.69-.2a2.1 2.1 0 01-.48-.53l-.7-1.25zm27.67 19.5c-1.76 0-3.12-.5-4.07-1.48-.94-.98-1.41-2.4-1.41-4.25V74h-2.68a.9.9 0 01-.6-.2c-.16-.14-.24-.36-.24-.66v-1.56l3.65-.46.9-6.89a.9.9 0 01.29-.52.88.88 0 01.62-.22H142v7.67h6.44V74H142v13.38c0 .94.22 1.63.68 2.09.45.45 1.04.68 1.76.68a3.21 3.21 0 001.85-.53l.55-.35c.16-.12.3-.18.41-.18.2 0 .4.13.55.38l1.15 1.87a7.45 7.45 0 01-2.44 1.5 8.53 8.53 0 01-2.95.52zm19.68-10.4c-1.8.07-3.34.21-4.62.45-1.26.22-2.3.51-3.1.88-.8.36-1.37.8-1.74 1.3-.35.5-.53 1.05-.53 1.67 0 .58.1 1.1.3 1.52a2.9 2.9 0 00.76 1.05c.34.27.73.46 1.17.6a6.13 6.13 0 001.45.17 7.3 7.3 0 003.5-.81 12.04 12.04 0 002.82-2.2v-4.62zm-12.65-9.1a12.72 12.72 0 013.99-2.66c1.42-.59 3-.88 4.72-.88 1.25 0 2.36.2 3.33.61a6.81 6.81 0 013.94 4.38c.33 1.04.5 2.19.5 3.43V93h-1.74a1.8 1.8 0 01-.88-.18c-.2-.13-.36-.38-.48-.74l-.44-2.12-1.72 1.46a9.48 9.48 0 01-3.74 1.7c-.69.15-1.46.23-2.3.23-.87 0-1.69-.12-2.45-.35a5.33 5.33 0 01-3.34-2.93 6.62 6.62 0 01-.49-2.64c0-.88.25-1.72.73-2.53a6.33 6.33 0 012.35-2.17c1.09-.63 2.5-1.15 4.25-1.54a31.2 31.2 0 016.42-.7v-1.75c0-1.73-.37-3.03-1.12-3.91-.75-.9-1.84-1.34-3.28-1.34-.97 0-1.78.12-2.44.37-.64.23-1.2.5-1.7.81l-1.22.82c-.34.23-.68.35-1.02.35-.26 0-.49-.07-.68-.2a1.88 1.88 0 01-.48-.53l-.7-1.25zM40.98 32.25c0 2.36-.38 4.53-1.12 6.51a14.26 14.26 0 01-8.1 8.4c-1.9.78-4.02 1.17-6.34 1.17a16.6 16.6 0 01-6.33-1.17 14.31 14.31 0 01-8.08-8.4 18.29 18.29 0 01-1.12-6.51c0-2.36.38-4.53 1.12-6.5.75-1.97 1.8-3.67 3.17-5.1a14.32 14.32 0 014.9-3.34c1.92-.8 4.03-1.19 6.34-1.19 2.32 0 4.43.4 6.34 1.19 1.92.8 3.56 1.9 4.93 3.34a14.87 14.87 0 013.17 5.1 18.1 18.1 0 011.12 6.5zm-4.38 0c0-1.94-.26-3.68-.8-5.22a10.91 10.91 0 00-2.24-3.89 9.68 9.68 0 00-3.52-2.46 11.95 11.95 0 00-4.62-.86c-1.68 0-3.21.28-4.6.86a9.88 9.88 0 00-3.54 2.46 10.91 10.91 0 00-2.24 3.9c-.53 1.53-.8 3.27-.8 5.2 0 1.94.27 3.68.8 5.22a11.17 11.17 0 002.24 3.9 10.01 10.01 0 003.55 2.44c1.38.56 2.9.83 4.6.83s3.24-.27 4.61-.83a9.8 9.8 0 003.52-2.44 11.17 11.17 0 002.25-3.9c.53-1.54.8-3.28.8-5.21zm26.22-6.54V48H60.5c-.56 0-.9-.27-1.05-.81l-.31-2.4a12.45 12.45 0 01-3.26 2.6c-1.2.64-2.58.96-4.13.96-1.22 0-2.3-.2-3.24-.6a6.52 6.52 0 01-2.33-1.7 7.37 7.37 0 01-1.43-2.67c-.3-1.04-.46-2.2-.46-3.45V25.7h3.91v14.22c0 1.68.38 2.99 1.15 3.91.77.93 1.96 1.39 3.54 1.39 1.16 0 2.24-.27 3.23-.82a10.42 10.42 0 002.8-2.28V25.7h3.91zm8.61 4.47a9.94 9.94 0 012.6-3.56 5.64 5.64 0 013.76-1.3c.47 0 .92.05 1.34.15.44.1.83.27 1.17.49l-.3 2.92c-.09.37-.3.55-.66.55-.2 0-.5-.04-.9-.13a6.21 6.21 0 00-3.24.18 4.23 4.23 0 00-1.47.92c-.42.4-.81.9-1.17 1.5-.33.58-.64 1.26-.92 2.02V48H67.7V25.71h2.25c.42 0 .72.08.88.25.16.16.27.44.33.83l.26 3.39zm61.16-13.7L122.75 48h-3.82l-7.99-24.05a21.95 21.95 0 01-.42-1.58 38.36 38.36 0 01-.44 1.58L102.05 48h-3.83L88.4 16.47h3.54c.38 0 .7.1.95.29.26.2.43.43.5.73l6.52 21.9.28 1.28.29 1.46.3-1.46.38-1.27 7.41-21.91c.1-.25.26-.48.51-.69.27-.22.58-.33.95-.33h1.23c.38 0 .69.1.92.29a1.77 1.77 0 01.53.73l7.4 21.9a28.4 28.4 0 01.68 2.62 29.52 29.52 0 01.52-2.61l6.54-21.91a1.31 1.31 0 01.48-.7c.27-.21.58-.32.95-.32h3.32zm9.35 8.88c1.63 0 3.1.27 4.4.82a9.43 9.43 0 015.46 5.94c.5 1.4.74 2.98.74 4.73 0 1.76-.25 3.34-.74 4.75a9.43 9.43 0 01-5.46 5.92c-1.3.52-2.77.79-4.4.79-1.64 0-3.12-.27-4.44-.8a9.42 9.42 0 01-3.35-2.3c-.92-1-1.63-2.2-2.13-3.61-.49-1.41-.73-3-.73-4.75s.24-3.33.73-4.73c.5-1.43 1.2-2.64 2.13-3.63a9.4 9.4 0 013.35-2.31c1.32-.55 2.8-.82 4.44-.82zm0 19.89c2.2 0 3.84-.73 4.93-2.2 1.08-1.48 1.63-3.54 1.63-6.18 0-2.66-.55-4.72-1.63-6.2-1.09-1.49-2.73-2.23-4.93-2.23-1.12 0-2.09.2-2.93.57a5.71 5.71 0 00-2.06 1.65 7.5 7.5 0 00-1.24 2.67c-.26 1.04-.4 2.22-.4 3.54 0 2.64.55 4.7 1.64 6.18 1.1 1.47 2.76 2.2 4.99 2.2zm17.97-15.07a9.94 9.94 0 012.6-3.56 5.64 5.64 0 013.76-1.3c.47 0 .91.05 1.34.15.44.1.83.27 1.16.49l-.28 2.92c-.09.37-.31.55-.66.55-.2 0-.5-.04-.9-.13a6.2 6.2 0 00-3.24.18 4.23 4.23 0 00-1.47.92c-.43.4-.82.9-1.17 1.5a13.1 13.1 0 00-.92 2.02V48h-3.94V25.71h2.24c.43 0 .72.08.88.25.17.16.28.44.33.83l.27 3.39zm15.04-14.59V48h-3.92V15.6h3.92zm19.55 15.43a6.22 6.22 0 00-2.38-2.05 6.7 6.7 0 00-2.86-.6c-2.07 0-3.66.75-4.77 2.23-1.12 1.48-1.68 3.6-1.68 6.33 0 1.46.13 2.7.38 3.74a7.29 7.29 0 001.1 2.56 4.35 4.35 0 001.78 1.45c.7.3 1.5.46 2.4.46 1.29 0 2.41-.3 3.36-.88a9.6 9.6 0 002.67-2.49V31.02zm3.91-15.43V48h-2.33c-.56 0-.9-.27-1.06-.81l-.35-2.71a12.13 12.13 0 01-3.25 2.77 8.28 8.28 0 01-4.23 1.06 7.31 7.31 0 01-6.14-2.9c-.73-.96-1.3-2.15-1.69-3.57a18.35 18.35 0 01.07-9.48 11.29 11.29 0 011.89-3.7 8.7 8.7 0 017.06-3.34 7.96 7.96 0 016.12 2.62V15.59h3.91zM46.61 70.71V93H42.7V70.71h3.91zm.84-7c0 .39-.08.75-.24 1.09a2.81 2.81 0 01-1.52 1.47 2.67 2.67 0 01-2.16 0 2.9 2.9 0 01-1.45-1.47 2.67 2.67 0 010-2.16c.15-.35.35-.65.6-.9.25-.27.53-.47.85-.62a2.67 2.67 0 012.16 0c.35.15.65.35.9.62.27.25.47.55.62.9.16.34.24.7.24 1.08zm7.97 10.24c.49-.54 1-1.04 1.54-1.48a9.85 9.85 0 013.66-1.84 8.96 8.96 0 015.43.35c.94.4 1.72.97 2.33 1.71a7.36 7.36 0 011.43 2.67c.32 1.04.49 2.19.49 3.45V93h-3.94V78.81c0-1.69-.4-3-1.17-3.92-.76-.93-1.93-1.4-3.5-1.4a6.6 6.6 0 00-3.25.83c-1 .56-1.92 1.31-2.77 2.27V93h-3.94V70.71h2.35c.56 0 .9.28 1.04.82l.3 2.42zm57.7 3.3c0 2.36-.37 4.5-1.11 6.44a14.3 14.3 0 01-3.17 4.98 14.1 14.1 0 01-4.93 3.2c-1.9.76-4.02 1.13-6.33 1.13H85.8V61.47h11.77c2.31 0 4.42.39 6.33 1.15a13.8 13.8 0 018.1 8.18 17.75 17.75 0 011.12 6.45zm-4.37 0c0-1.94-.26-3.67-.8-5.2a10.94 10.94 0 00-2.23-3.87 9.57 9.57 0 00-3.53-2.42 12.23 12.23 0 00-4.61-.83h-7.5v24.62h7.5c1.7 0 3.24-.28 4.61-.84a9.7 9.7 0 003.53-2.4 10.94 10.94 0 002.24-3.87c.53-1.53.8-3.26.8-5.2zm19.8 5.72c-1.8.06-3.34.2-4.62.44-1.26.22-2.3.51-3.1.88-.8.36-1.37.8-1.74 1.3-.35.5-.53 1.05-.53 1.67 0 .58.1 1.1.3 1.52a3 3 0 00.76 1.05c.34.27.73.46 1.17.6a6.13 6.13 0 001.45.17 7.28 7.28 0 003.5-.81 11.95 11.95 0 002.82-2.2v-4.62zm-12.65-9.11a12.73 12.73 0 013.98-2.66c1.43-.59 3-.88 4.73-.88 1.25 0 2.36.2 3.33.61a6.81 6.81 0 013.94 4.38c.33 1.04.5 2.19.5 3.43V93h-1.74a1.8 1.8 0 01-.88-.18c-.2-.13-.36-.38-.48-.74l-.44-2.12-1.72 1.46a9.48 9.48 0 01-3.74 1.7c-.69.15-1.46.23-2.3.23-.87 0-1.69-.12-2.45-.35a5.34 5.34 0 01-3.34-2.93 6.64 6.64 0 01-.49-2.64c0-.88.25-1.72.73-2.53a6.33 6.33 0 012.35-2.17c1.09-.63 2.5-1.15 4.25-1.54 1.75-.41 3.89-.65 6.42-.7v-1.75c0-1.73-.37-3.03-1.12-3.91-.75-.9-1.84-1.34-3.28-1.34-.97 0-1.78.12-2.44.37-.64.23-1.2.5-1.7.81l-1.23.82c-.33.23-.67.35-1 .35-.27 0-.5-.07-.69-.2a2.1 2.1 0 01-.48-.53l-.7-1.25zm27.67 19.5c-1.76 0-3.12-.5-4.07-1.48-.94-.98-1.41-2.4-1.41-4.25V74h-2.68a.9.9 0 01-.6-.2c-.16-.14-.24-.36-.24-.66v-1.56l3.65-.46.9-6.89a.9.9 0 01.29-.52.88.88 0 01.62-.22H142v7.67h6.44V74H142v13.38c0 .94.22 1.63.68 2.09.45.45 1.04.68 1.76.68a3.21 3.21 0 001.85-.53l.55-.35c.16-.12.3-.18.41-.18.2 0 .4.13.55.38l1.15 1.87a7.45 7.45 0 01-2.44 1.5 8.53 8.53 0 01-2.95.52zm19.68-10.4c-1.8.07-3.34.21-4.62.45-1.26.22-2.3.51-3.1.88-.8.36-1.37.8-1.74 1.3-.35.5-.53 1.05-.53 1.67 0 .58.1 1.1.3 1.52a2.9 2.9 0 00.76 1.05c.34.27.73.46 1.17.6a6.13 6.13 0 001.45.17 7.3 7.3 0 003.5-.81 12.04 12.04 0 002.82-2.2v-4.62zm-12.65-9.1a12.72 12.72 0 013.99-2.66c1.42-.59 3-.88 4.72-.88 1.25 0 2.36.2 3.33.61a6.81 6.81 0 013.94 4.38c.33 1.04.5 2.19.5 3.43V93h-1.74a1.8 1.8 0 01-.88-.18c-.2-.13-.36-.38-.48-.74l-.44-2.12-1.72 1.46a9.48 9.48 0 01-3.74 1.7c-.69.15-1.46.23-2.3.23-.87 0-1.69-.12-2.45-.35a5.33 5.33 0 01-3.34-2.93 6.62 6.62 0 01-.49-2.64c0-.88.25-1.72.73-2.53a6.33 6.33 0 012.35-2.17c1.09-.63 2.5-1.15 4.25-1.54a31.2 31.2 0 016.42-.7v-1.75c0-1.73-.37-3.03-1.12-3.91-.75-.9-1.84-1.34-3.28-1.34-.97 0-1.78.12-2.44.37-.64.23-1.2.5-1.7.81l-1.22.82c-.34.23-.68.35-1.02.35-.26 0-.49-.07-.68-.2a1.88 1.88 0 01-.48-.53l-.7-1.25zM40.98 32.25c0 2.36-.38 4.53-1.12 6.51a14.26 14.26 0 01-8.1 8.4c-1.9.78-4.02 1.17-6.34 1.17a16.6 16.6 0 01-6.33-1.17 14.31 14.31 0 01-8.08-8.4 18.29 18.29 0 01-1.12-6.51c0-2.36.38-4.53 1.12-6.5.75-1.97 1.8-3.67 3.17-5.1a14.32 14.32 0 014.9-3.34c1.92-.8 4.03-1.19 6.34-1.19 2.32 0 4.43.4 6.34 1.19 1.92.8 3.56 1.9 4.93 3.34a14.87 14.87 0 013.17 5.1 18.1 18.1 0 011.12 6.5zm-4.38 0c0-1.94-.26-3.68-.8-5.22a10.91 10.91 0 00-2.24-3.89 9.68 9.68 0 00-3.52-2.46 11.95 11.95 0 00-4.62-.86c-1.68 0-3.21.28-4.6.86a9.88 9.88 0 00-3.54 2.46 10.91 10.91 0 00-2.24 3.9c-.53 1.53-.8 3.27-.8 5.2 0 1.94.27 3.68.8 5.22a11.17 11.17 0 002.24 3.9 10.01 10.01 0 003.55 2.44c1.38.56 2.9.83 4.6.83s3.24-.27 4.61-.83a9.8 9.8 0 003.52-2.44 11.17 11.17 0 002.25-3.9c.53-1.54.8-3.28.8-5.21zm26.22-6.54V48H60.5c-.56 0-.9-.27-1.05-.81l-.31-2.4a12.45 12.45 0 01-3.26 2.6c-1.2.64-2.58.96-4.13.96-1.22 0-2.3-.2-3.24-.6a6.52 6.52 0 01-2.33-1.7 7.37 7.37 0 01-1.43-2.67c-.3-1.04-.46-2.2-.46-3.45V25.7h3.91v14.22c0 1.68.38 2.99 1.15 3.91.77.93 1.96 1.39 3.54 1.39 1.16 0 2.24-.27 3.23-.82a10.42 10.42 0 002.8-2.28V25.7h3.91zm8.61 4.47a9.94 9.94 0 012.6-3.56 5.64 5.64 0 013.76-1.3c.47 0 .92.05 1.34.15.44.1.83.27 1.17.49l-.3 2.92c-.09.37-.3.55-.66.55-.2 0-.5-.04-.9-.13a6.21 6.21 0 00-3.24.18 4.23 4.23 0 00-1.47.92c-.42.4-.81.9-1.17 1.5-.33.58-.64 1.26-.92 2.02V48H67.7V25.71h2.25c.42 0 .72.08.88.25.16.16.27.44.33.83l.26 3.39zm61.16-13.7L122.75 48h-3.82l-7.99-24.05a21.95 21.95 0 01-.42-1.58 38.36 38.36 0 01-.44 1.58L102.05 48h-3.83L88.4 16.47h3.54c.38 0 .7.1.95.29.26.2.43.43.5.73l6.52 21.9.28 1.28.29 1.46.3-1.46.38-1.27 7.41-21.91c.1-.25.26-.48.51-.69.27-.22.58-.33.95-.33h1.23c.38 0 .69.1.92.29a1.77 1.77 0 01.53.73l7.4 21.9a28.4 28.4 0 01.68 2.62 29.52 29.52 0 01.52-2.61l6.54-21.91a1.31 1.31 0 01.48-.7c.27-.21.58-.32.95-.32h3.32zm9.35 8.88c1.63 0 3.1.27 4.4.82a9.43 9.43 0 015.46 5.94c.5 1.4.74 2.98.74 4.73 0 1.76-.25 3.34-.74 4.75a9.43 9.43 0 01-5.46 5.92c-1.3.52-2.77.79-4.4.79-1.64 0-3.12-.27-4.44-.8a9.42 9.42 0 01-3.35-2.3c-.92-1-1.63-2.2-2.13-3.61-.49-1.41-.73-3-.73-4.75s.24-3.33.73-4.73c.5-1.43 1.2-2.64 2.13-3.63a9.4 9.4 0 013.35-2.31c1.32-.55 2.8-.82 4.44-.82zm0 19.89c2.2 0 3.84-.73 4.93-2.2 1.08-1.48 1.63-3.54 1.63-6.18 0-2.66-.55-4.72-1.63-6.2-1.09-1.49-2.73-2.23-4.93-2.23-1.12 0-2.09.2-2.93.57a5.71 5.71 0 00-2.06 1.65 7.5 7.5 0 00-1.24 2.67c-.26 1.04-.4 2.22-.4 3.54 0 2.64.55 4.7 1.64 6.18 1.1 1.47 2.76 2.2 4.99 2.2zm17.97-15.07a9.94 9.94 0 012.6-3.56 5.64 5.64 0 013.76-1.3c.47 0 .91.05 1.34.15.44.1.83.27 1.16.49l-.28 2.92c-.09.37-.31.55-.66.55-.2 0-.5-.04-.9-.13a6.2 6.2 0 00-3.24.18 4.23 4.23 0 00-1.47.92c-.43.4-.82.9-1.17 1.5a13.1 13.1 0 00-.92 2.02V48h-3.94V25.71h2.24c.43 0 .72.08.88.25.17.16.28.44.33.83l.27 3.39zm15.04-14.59V48h-3.92V15.6h3.92zm19.55 15.43a6.22 6.22 0 00-2.38-2.05 6.7 6.7 0 00-2.86-.6c-2.07 0-3.66.75-4.77 2.23-1.12 1.48-1.68 3.6-1.68 6.33 0 1.46.13 2.7.38 3.74a7.29 7.29 0 001.1 2.56 4.35 4.35 0 001.78 1.45c.7.3 1.5.46 2.4.46 1.29 0 2.41-.3 3.36-.88a9.6 9.6 0 002.67-2.49V31.02zm3.91-15.43V48h-2.33c-.56 0-.9-.27-1.06-.81l-.35-2.71a12.13 12.13 0 01-3.25 2.77 8.28 8.28 0 01-4.23 1.06 7.31 7.31 0 01-6.14-2.9c-.73-.96-1.3-2.15-1.69-3.57a18.35 18.35 0 01.07-9.48 11.29 11.29 0 011.89-3.7 8.7 8.7 0 017.06-3.34 7.96 7.96 0 016.12 2.62V15.59h3.91zM46.61 70.71V93H42.7V70.71h3.91zm.84-7c0 .39-.08.75-.24 1.09a2.81 2.81 0 01-1.52 1.47 2.67 2.67 0 01-2.16 0 2.9 2.9 0 01-1.45-1.47 2.67 2.67 0 010-2.16c.15-.35.35-.65.6-.9.25-.27.53-.47.85-.62a2.67 2.67 0 012.16 0c.35.15.65.35.9.62.27.25.47.55.62.9.16.34.24.7.24 1.08zm7.97 10.24c.49-.54 1-1.04 1.54-1.48a9.85 9.85 0 013.66-1.84 8.96 8.96 0 015.43.35c.94.4 1.72.97 2.33 1.71a7.36 7.36 0 011.43 2.67c.32 1.04.49 2.19.49 3.45V93h-3.94V78.81c0-1.69-.4-3-1.17-3.92-.76-.93-1.93-1.4-3.5-1.4a6.6 6.6 0 00-3.25.83c-1 .56-1.92 1.31-2.77 2.27V93h-3.94V70.71h2.35c.56 0 .9.28 1.04.82l.3 2.42zm57.7 3.3c0 2.36-.37 4.5-1.11 6.44a14.3 14.3 0 01-3.17 4.98 14.1 14.1 0 01-4.93 3.2c-1.9.76-4.02 1.13-6.33 1.13H85.8V61.47h11.77c2.31 0 4.42.39 6.33 1.15a13.8 13.8 0 018.1 8.18 17.75 17.75 0 011.12 6.45zm-4.37 0c0-1.94-.26-3.67-.8-5.2a10.94 10.94 0 00-2.23-3.87 9.57 9.57 0 00-3.53-2.42 12.23 12.23 0 00-4.61-.83h-7.5v24.62h7.5c1.7 0 3.24-.28 4.61-.84a9.7 9.7 0 003.53-2.4 10.94 10.94 0 002.24-3.87c.53-1.53.8-3.26.8-5.2zm19.8 5.72c-1.8.06-3.34.2-4.62.44-1.26.22-2.3.51-3.1.88-.8.36-1.37.8-1.74 1.3-.35.5-.53 1.05-.53 1.67 0 .58.1 1.1.3 1.52a3 3 0 00.76 1.05c.34.27.73.46 1.17.6a6.13 6.13 0 001.45.17 7.28 7.28 0 003.5-.81 11.95 11.95 0 002.82-2.2v-4.62zm-12.65-9.11a12.73 12.73 0 013.98-2.66c1.43-.59 3-.88 4.73-.88 1.25 0 2.36.2 3.33.61a6.81 6.81 0 013.94 4.38c.33 1.04.5 2.19.5 3.43V93h-1.74a1.8 1.8 0 01-.88-.18c-.2-.13-.36-.38-.48-.74l-.44-2.12-1.72 1.46a9.48 9.48 0 01-3.74 1.7c-.69.15-1.46.23-2.3.23-.87 0-1.69-.12-2.45-.35a5.34 5.34 0 01-3.34-2.93 6.64 6.64 0 01-.49-2.64c0-.88.25-1.72.73-2.53a6.33 6.33 0 012.35-2.17c1.09-.63 2.5-1.15 4.25-1.54 1.75-.41 3.89-.65 6.42-.7v-1.75c0-1.73-.37-3.03-1.12-3.91-.75-.9-1.84-1.34-3.28-1.34-.97 0-1.78.12-2.44.37-.64.23-1.2.5-1.7.81l-1.23.82c-.33.23-.67.35-1 .35-.27 0-.5-.07-.69-.2a2.1 2.1 0 01-.48-.53l-.7-1.25zm27.67 19.5c-1.76 0-3.12-.5-4.07-1.48-.94-.98-1.41-2.4-1.41-4.25V74h-2.68a.9.9 0 01-.6-.2c-.16-.14-.24-.36-.24-.66v-1.56l3.65-.46.9-6.89a.9.9 0 01.29-.52.88.88 0 01.62-.22H142v7.67h6.44V74H142v13.38c0 .94.22 1.63.68 2.09.45.45 1.04.68 1.76.68a3.21 3.21 0 001.85-.53l.55-.35c.16-.12.3-.18.41-.18.2 0 .4.13.55.38l1.15 1.87a7.45 7.45 0 01-2.44 1.5 8.53 8.53 0 01-2.95.52zm19.68-10.4c-1.8.07-3.34.21-4.62.45-1.26.22-2.3.51-3.1.88-.8.36-1.37.8-1.74 1.3-.35.5-.53 1.05-.53 1.67 0 .58.1 1.1.3 1.52a2.9 2.9 0 00.76 1.05c.34.27.73.46 1.17.6a6.13 6.13 0 001.45.17 7.3 7.3 0 003.5-.81 12.04 12.04 0 002.82-2.2v-4.62zm-12.65-9.1a12.72 12.72 0 013.99-2.66c1.42-.59 3-.88 4.72-.88 1.25 0 2.36.2 3.33.61a6.81 6.81 0 013.94 4.38c.33 1.04.5 2.19.5 3.43V93h-1.74a1.8 1.8 0 01-.88-.18c-.2-.13-.36-.38-.48-.74l-.44-2.12-1.72 1.46a9.48 9.48 0 01-3.74 1.7c-.69.15-1.46.23-2.3.23-.87 0-1.69-.12-2.45-.35a5.33 5.33 0 01-3.34-2.93 6.62 6.62 0 01-.49-2.64c0-.88.25-1.72.73-2.53a6.33 6.33 0 012.35-2.17c1.09-.63 2.5-1.15 4.25-1.54a31.2 31.2 0 016.42-.7v-1.75c0-1.73-.37-3.03-1.12-3.91-.75-.9-1.84-1.34-3.28-1.34-.97 0-1.78.12-2.44.37-.64.23-1.2.5-1.7.81l-1.22.82c-.34.23-.68.35-1.02.35-.26 0-.49-.07-.68-.2a1.88 1.88 0 01-.48-.53l-.7-1.25z" fill="#fff"/><path fill="#D42B21" d="M0 106.79h210V120H0z"/></g><defs><clipPath id="clip0"><path fill="#fff" d="M0 0h210v120H0z"/></clipPath></defs></svg></g><a href="https://ourworldindata.org/grapher/GDP-per-capita-in-the-uk-since-1270?time=1270..1660" target="_blank" rel="noopener" font-family="&quot;Playfair Display&quot;,Georgia,&quot;Times New Roman&quot;,serif"><text font-size="25.2" x="15" y="35.2" fill="#555"><tspan x="15" y="35.16">GDP per capita in England</tspan></text></a><text font-size="14.4" x="15" y="55.7" fill="#666"><tspan x="15" y="55.72">Adjusted for inflation and measured in British Pounds in 2013 prices</tspan></text></g><g class="LineChart"><defs><clipPath id="a"><path d="M58.92 66.6h840v461.6h-840z"/></clipPath></defs><g class="DualAxisView"><g class="HorizontalAxis"><path stroke="#999" d="M68.9 497v5M834 497v5M225.9 497v5M323.9 497v5M422 497v5M520.1 497v5M618.2 497v5M716.3 497v5"/><text x="68.92" y="518.2" fill="#666" text-anchor="start" font-size="16.2">1270</text><text x="834" y="518.2" fill="#666" text-anchor="end" font-size="16.2">1660</text><text x="225.9" y="518.2" fill="#666" text-anchor="middle" font-size="16.2">1350</text><text x="323.9" y="518.2" fill="#666" text-anchor="middle" font-size="16.2">1400</text><text x="422" y="518.2" fill="#666" text-anchor="middle" font-size="16.2">1450</text><text x="520.1" y="518.2" fill="#666" text-anchor="middle" font-size="16.2">1500</text><text x="618.2" y="518.2" fill="#666" text-anchor="middle" font-size="16.2">1550</text><text x="716.3" y="518.2" fill="#666" text-anchor="middle" font-size="16.2">1600</text></g><g class="VerticalAxis" text-anchor="end" fill="#666" font-size="16.2"><text x="63.92" y="497" dy=".32em">£0</text><text x="63.92" y="436.5" dy=".32em">£200</text><text x="63.92" y="376.1" dy=".32em">£400</text><text x="63.92" y="315.6" dy=".32em">£600</text><text x="63.92" y="255.2" dy=".32em">£800</text><text x="63.92" y="194.7" dy=".32em">£1,000</text><text x="63.92" y="134.2" dy=".32em">£1,200</text></g><g class="AxisGridLines horizontalLines"><path stroke="#999" d="M68.92 497H834"/><path stroke="#ddd" stroke-dasharray="3,2" d="M68.92 436.5H834M68.92 376.1H834M68.92 315.6H834M68.92 255.2H834M68.92 194.7H834M68.92 134.2H834"/></g></g><g clip-path="url(#a)"><g class="Lines"><g><path stroke-linecap="round" stroke-linejoin="round" stroke="#ddd" d="M68.9 253.4l2 2.9 1.9-8.7 2 14.6 2 1.2 1.9-33 2 32.3 2-15.5 1.9-8.7 2 44.2 1.9-2 2-12.2 2 8.1 1.9 12.1 2-5.9 2-1.5 1.9 4.3 2-18.7 1.9 8.3 2 18.3 2-1.7 1.9-.5 2-11 1.9-5.3 2 1.6 2-15.8 1.9-9.5 2 10.5 2-12.3 1.9 9 2 1.5 1.9-1.8 2-6.3 2-10.3 1.9 24.3 2-6.5 1.9 6.7 2-11.3 2-2.9 1.9-6.2 2 3.2 2-8.8 1.9 6.7 2-4.6 1.9-.2 2 25.8 2 10 1.9-13.1 2-27.4 1.9-4.5 2 5.3 2 37.1 1.9-14.6 2-12.1 2 19.2 1.9-22.1 2-3.1 1.9 4.6 2 17.9 2-11.8 1.9 6.5 2 11.3 2-11.7 1.9-7 2 8.3 1.9 10 2-10.5 2-25.5 1.9-4.9 2 49.3 1.9-26 2-2.4 2-11.3 1.9 7.3 2-16.8 2 18.6 1.9 12.5 2-9.1 1.9-6 2 15.2 2-32.8 1.9-41.7 2-11.4 1.9-.9 2 13.6 2-9.5 1.9 4.4 2-6 2-1.7 1.9-3.5 2 2.2 1.9 11.3 2 8.2 2 8.8 1.9-32.7 2 14.6 2-9.5 1.9 19.9 2 2 1.9 20 2-33.9 2 10.2 1.9 29 2-22.8 1.9 24 2 9.7 2-41.2 1.9-9 2 3.3 2 25.5 1.9-13 2-7.9 1.9-10.6 2 13.9 2-40 1.9 30.3 2-37.2 1.9-2.9 2 26.4 2-11.7 1.9 20.9 2-38.7 2-45.7 1.9 68.9 2-33.8 1.9 14.7 2-3.1 2 6.9 1.9-25.6 2 13.9 1.9 9.1 2 4.4 2-9.4 1.9-5.9 2-6.3 2-.7 1.9 26.7 2-.6 1.9 25.6 2-11.2 2-20.7 1.9 7.1 2 7.8 2 31.1 1.9-41.5 2-8.1 1.9 12.4 2-31.9 2 18.9 1.9-19 2 9 1.9 23.9 2-11.3 2-19.6 1.9-3.1 2 12.7 2 10.7 1.9 9 2 20.7 1.9-11.1 2-9.8 2-2.4 1.9 3.5 2-10.8 1.9-21.8 2 40.9 2 22.1 1.9 11.8 2-15.4 2-14.7 1.9-3.7 2 37.8 1.9-11 2-64.7 2-.3 1.9 50.2 2-21.1 2-8.9 1.9-12.4 2 29.2 1.9-11 2-.6 2 4.6 1.9-2.8h2l1.9 2.8 2-3.5 2 29.5 1.9-18.2 2 5.3 2 .2 1.9-1.1 2-30.3 1.9-4.1 2 32 2 9.9 1.9 2.7 2-9.5 1.9-14 2 4.8 2 9.8 1.9 14.7 2-10.1 2 2.9 1.9-16.7 2 10.3 1.9 23.9 2-13.6 2-8.6 1.9-18.1 2-9.4 1.9 16 2 15 2-15.2 1.9 3.6 2 18.5 2-33.5 1.9 30.2 2-6.2 1.9-6.9 2-1.6 2-2.3 1.9-3.6 2 5.9 2-15.1 1.9 7.2 2 11.1 1.9-21.5 2-2.9 2-.9 1.9 6.4 2 13 1.9-11.2 2-14 2-.2 1.9-3 2-.8 2 7.5 1.9-4.1 2-15.8 1.9 14.2 2-6.4 2 17.2 1.9-14.3 2 1.6 1.9-8.9 2 4.2 2-.1 1.9-1 2 4.3 2 6.1 1.9-7.6 2-5.5 1.9-5.8 2-3.9 2 3.7 1.9-.9 2 28.5 2-1.8 1.9-3.9 2-3 1.9 13.5 2-10.5 2 3.2 1.9-14.3 2 26.7 1.9 5.3 2-24.4 2 20.6 1.9-25.2 2 13.7 2 11.2 1.9-10.7 2 12.6 1.9-17.3 2 11 2-5 1.9-27.8 2 17.4 1.9 15.9 2 4.9 2 10.1 1.9 15.6 2-51.7 2 33.7 1.9 3.5 2 62.2 1.9-25.5 2-86.6 2 20.3 1.9-1.9 2-5.2 2 3.3 1.9-30.9 2 14.3 1.9 1 2-44.5 2 27.8 1.9 1.9 2 3.2 1.9 32.3h2l2 12.7 1.9-48.9 2 46.1 2-38.2 1.9-10.8 2 61 1.9-45.8 2 6.9 2 21.3 1.9 12.7 2 36.5 1.9-37.9 2 13.1 2 41.1 1.9 8.1 2-29.7 2-38.6 1.9 44.2 2-17.1 1.9-2.1 2-25.4 2-20.5 1.9 69.1 2 .3 1.9 15.2 2 12.8 2-51.7 1.9-44.8 2 20 2 3.9 1.9-16.4 2-20 1.9-24 2 43.9 2-16.2 1.9 35 2 18.1 2-49.2 1.9-21.8 2 33.1 1.9 16.8 2 12.8 2 11.7 1.9-25.8 2 19.4 1.9-33.3 2 1.9 2 31.3 1.9-52.2 2 2 2 51.4 1.9 2.7 2-43.6 1.9-3.5 2 13.9 2-.6 1.9-43.7 2 105.6 1.9 2.9 2-7.1 2-36.6 1.9 26.4 2-3.7 2-10.8 1.9 9.3 2 10.3 1.9-30.4 2-3.2 2-8.8 1.9 37.6 2-27.8 2-18.4 1.9-4.1 2 48 1.9-2.8 2 1.8 2-4 1.9 5.4 2 12.8 1.9-16.6 2-39.4 2-41 1.9 3.5 2-16.1 2 30.1 1.9 22 2 5.2 1.9 53.3 2-28" fill="none" stroke-width="1"/></g><g><path stroke="#3C4E66" stroke-linecap="round" stroke-linejoin="round" d="M68.9 253.4l2 2.9 1.9-8.7 2 14.6 2 1.2 1.9-33 2 32.3 2-15.5 1.9-8.7 2 44.2 1.9-2 2-12.2 2 8.1 1.9 12.1 2-5.9 2-1.5 1.9 4.3 2-18.7 1.9 8.3 2 18.3 2-1.7 1.9-.5 2-11 1.9-5.3 2 1.6 2-15.8 1.9-9.5 2 10.5 2-12.3 1.9 9 2 1.5 1.9-1.8 2-6.3 2-10.3 1.9 24.3 2-6.5 1.9 6.7 2-11.3 2-2.9 1.9-6.2 2 3.2 2-8.8 1.9 6.7 2-4.6 1.9-.2 2 25.8 2 10 1.9-13.1 2-27.4 1.9-4.5 2 5.3 2 37.1 1.9-14.6 2-12.1 2 19.2 1.9-22.1 2-3.1 1.9 4.6 2 17.9 2-11.8 1.9 6.5 2 11.3 2-11.7 1.9-7 2 8.3 1.9 10 2-10.5 2-25.5 1.9-4.9 2 49.3 1.9-26 2-2.4 2-11.3 1.9 7.3 2-16.8 2 18.6 1.9 12.5 2-9.1 1.9-6 2 15.2 2-32.8 1.9-41.7 2-11.4 1.9-.9 2 13.6 2-9.5 1.9 4.4 2-6 2-1.7 1.9-3.5 2 2.2 1.9 11.3 2 8.2 2 8.8 1.9-32.7 2 14.6 2-9.5 1.9 19.9 2 2 1.9 20 2-33.9 2 10.2 1.9 29 2-22.8 1.9 24 2 9.7 2-41.2 1.9-9 2 3.3 2 25.5 1.9-13 2-7.9 1.9-10.6 2 13.9 2-40 1.9 30.3 2-37.2 1.9-2.9 2 26.4 2-11.7 1.9 20.9 2-38.7 2-45.7 1.9 68.9 2-33.8 1.9 14.7 2-3.1 2 6.9 1.9-25.6 2 13.9 1.9 9.1 2 4.4 2-9.4 1.9-5.9 2-6.3 2-.7 1.9 26.7 2-.6 1.9 25.6 2-11.2 2-20.7 1.9 7.1 2 7.8 2 31.1 1.9-41.5 2-8.1 1.9 12.4 2-31.9 2 18.9 1.9-19 2 9 1.9 23.9 2-11.3 2-19.6 1.9-3.1 2 12.7 2 10.7 1.9 9 2 20.7 1.9-11.1 2-9.8 2-2.4 1.9 3.5 2-10.8 1.9-21.8 2 40.9 2 22.1 1.9 11.8 2-15.4 2-14.7 1.9-3.7 2 37.8 1.9-11 2-64.7 2-.3 1.9 50.2 2-21.1 2-8.9 1.9-12.4 2 29.2 1.9-11 2-.6 2 4.6 1.9-2.8h2l1.9 2.8 2-3.5 2 29.5 1.9-18.2 2 5.3 2 .2 1.9-1.1 2-30.3 1.9-4.1 2 32 2 9.9 1.9 2.7 2-9.5 1.9-14 2 4.8 2 9.8 1.9 14.7 2-10.1 2 2.9 1.9-16.7 2 10.3 1.9 23.9 2-13.6 2-8.6 1.9-18.1 2-9.4 1.9 16 2 15 2-15.2 1.9 3.6 2 18.5 2-33.5 1.9 30.2 2-6.2 1.9-6.9 2-1.6 2-2.3 1.9-3.6 2 5.9 2-15.1 1.9 7.2 2 11.1 1.9-21.5 2-2.9 2-.9 1.9 6.4 2 13 1.9-11.2 2-14 2-.2 1.9-3 2-.8 2 7.5 1.9-4.1 2-15.8 1.9 14.2 2-6.4 2 17.2 1.9-14.3 2 1.6 1.9-8.9 2 4.2 2-.1 1.9-1 2 4.3 2 6.1 1.9-7.6 2-5.5 1.9-5.8 2-3.9 2 3.7 1.9-.9 2 28.5 2-1.8 1.9-3.9 2-3 1.9 13.5 2-10.5 2 3.2 1.9-14.3 2 26.7 1.9 5.3 2-24.4 2 20.6 1.9-25.2 2 13.7 2 11.2 1.9-10.7 2 12.6 1.9-17.3 2 11 2-5 1.9-27.8 2 17.4 1.9 15.9 2 4.9 2 10.1 1.9 15.6 2-51.7 2 33.7 1.9 3.5 2 62.2 1.9-25.5 2-86.6 2 20.3 1.9-1.9 2-5.2 2 3.3 1.9-30.9 2 14.3 1.9 1 2-44.5 2 27.8 1.9 1.9 2 3.2 1.9 32.3h2l2 12.7 1.9-48.9 2 46.1 2-38.2 1.9-10.8 2 61 1.9-45.8 2 6.9 2 21.3 1.9 12.7 2 36.5 1.9-37.9 2 13.1 2 41.1 1.9 8.1 2-29.7 2-38.6 1.9 44.2 2-17.1 1.9-2.1 2-25.4 2-20.5 1.9 69.1 2 .3 1.9 15.2 2 12.8 2-51.7 1.9-44.8 2 20 2 3.9 1.9-16.4 2-20 1.9-24 2 43.9 2-16.2 1.9 35 2 18.1 2-49.2 1.9-21.8 2 33.1 1.9 16.8 2 12.8 2 11.7 1.9-25.8 2 19.4 1.9-33.3 2 1.9 2 31.3 1.9-52.2 2 2 2 51.4 1.9 2.7 2-43.6 1.9-3.5 2 13.9 2-.6 1.9-43.7 2 105.6 1.9 2.9 2-7.1 2-36.6 1.9 26.4 2-3.7 2-10.8 1.9 9.3 2 10.3 1.9-30.4 2-3.2 2-8.8 1.9 37.6 2-27.8 2-18.4 1.9-4.1 2 48 1.9-2.8 2 1.8 2-4 1.9 5.4 2 12.8 1.9-16.6 2-39.4 2-41 1.9 3.5 2-16.1 2 30.1 1.9 22 2 5.2 1.9 53.3 2-28" fill="none" stroke-width="1.5"/><g fill="#3C4E66"><circle cx="68.9" cy="253.4" r="2"/><circle cx="70.9" cy="256.3" r="2"/><circle cx="72.8" cy="247.6" r="2"/><circle cx="74.8" cy="262.2" r="2"/><circle cx="76.8" cy="263.4" r="2"/><circle cx="78.7" cy="230.4" r="2"/><circle cx="80.7" cy="262.7" r="2"/><circle cx="82.7" cy="247.2" r="2"/><circle cx="84.6" cy="238.5" r="2"/><circle cx="86.6" cy="282.7" r="2"/><circle cx="88.5" cy="280.7" r="2"/><circle cx="90.5" cy="268.5" r="2"/><circle cx="92.5" cy="276.6" r="2"/><circle cx="94.4" cy="288.7" r="2"/><circle cx="96.4" cy="282.8" r="2"/><circle cx="98.4" cy="281.3" r="2"/><circle cx="100.3" cy="285.6" r="2"/><circle cx="102.3" cy="266.9" r="2"/><circle cx="104.2" cy="275.2" r="2"/><circle cx="106.2" cy="293.5" r="2"/><circle cx="108.2" cy="291.8" r="2"/><circle cx="110.1" cy="291.3" r="2"/><circle cx="112.1" cy="280.3" r="2"/><circle cx="114" cy="275" r="2"/><circle cx="116" cy="276.6" r="2"/><circle cx="118" cy="260.8" r="2"/><circle cx="119.9" cy="251.3" r="2"/><circle cx="121.9" cy="261.8" r="2"/><circle cx="123.9" cy="249.5" r="2"/><circle cx="125.8" cy="258.5" r="2"/><circle cx="127.8" cy="260" r="2"/><circle cx="129.7" cy="258.2" r="2"/><circle cx="131.7" cy="251.9" r="2"/><circle cx="133.7" cy="241.6" r="2"/><circle cx="135.6" cy="265.9" r="2"/><circle cx="137.6" cy="259.4" r="2"/><circle cx="139.5" cy="266.1" r="2"/><circle cx="141.5" cy="254.8" r="2"/><circle cx="143.5" cy="251.9" r="2"/><circle cx="145.4" cy="245.7" r="2"/><circle cx="147.4" cy="248.9" r="2"/><circle cx="149.4" cy="240.1" r="2"/><circle cx="151.3" cy="246.8" r="2"/><circle cx="153.3" cy="242.2" r="2"/><circle cx="155.2" cy="242" r="2"/><circle cx="157.2" cy="267.8" r="2"/><circle cx="159.2" cy="277.8" r="2"/><circle cx="161.1" cy="264.7" r="2"/><circle cx="163.1" cy="237.3" r="2"/><circle cx="165" cy="232.8" r="2"/><circle cx="167" cy="238.1" r="2"/><circle cx="169" cy="275.2" r="2"/><circle cx="170.9" cy="260.6" r="2"/><circle cx="172.9" cy="248.5" r="2"/><circle cx="174.9" cy="267.7" r="2"/><circle cx="176.8" cy="245.6" r="2"/><circle cx="178.8" cy="242.5" r="2"/><circle cx="180.7" cy="247.1" r="2"/><circle cx="182.7" cy="265" r="2"/><circle cx="184.7" cy="253.2" r="2"/><circle cx="186.6" cy="259.7" r="2"/><circle cx="188.6" cy="271" r="2"/><circle cx="190.6" cy="259.3" r="2"/><circle cx="192.5" cy="252.3" r="2"/><circle cx="194.5" cy="260.6" r="2"/><circle cx="196.4" cy="270.6" r="2"/><circle cx="198.4" cy="260.1" r="2"/><circle cx="200.4" cy="234.6" r="2"/><circle cx="202.3" cy="229.7" r="2"/><circle cx="204.3" cy="279" r="2"/><circle cx="206.2" cy="253" r="2"/><circle cx="208.2" cy="250.6" r="2"/><circle cx="210.2" cy="239.3" r="2"/><circle cx="212.1" cy="246.6" r="2"/><circle cx="214.1" cy="229.8" r="2"/><circle cx="216.1" cy="248.4" r="2"/><circle cx="218" cy="260.9" r="2"/><circle cx="220" cy="251.8" r="2"/><circle cx="221.9" cy="245.8" r="2"/><circle cx="223.9" cy="261" r="2"/><circle cx="225.9" cy="228.2" r="2"/><circle cx="227.8" cy="186.5" r="2"/><circle cx="229.8" cy="175.1" r="2"/><circle cx="231.7" cy="174.2" r="2"/><circle cx="233.7" cy="187.8" r="2"/><circle cx="235.7" cy="178.3" r="2"/><circle cx="237.6" cy="182.7" r="2"/><circle cx="239.6" cy="176.7" r="2"/><circle cx="241.6" cy="175" r="2"/><circle cx="243.5" cy="171.5" r="2"/><circle cx="245.5" cy="173.7" r="2"/><circle cx="247.4" cy="185" r="2"/><circle cx="249.4" cy="193.2" r="2"/><circle cx="251.4" cy="202" r="2"/><circle cx="253.3" cy="169.3" r="2"/><circle cx="255.3" cy="183.9" r="2"/><circle cx="257.3" cy="174.4" r="2"/><circle cx="259.2" cy="194.3" r="2"/><circle cx="261.2" cy="196.3" r="2"/><circle cx="263.1" cy="216.3" r="2"/><circle cx="265.1" cy="182.4" r="2"/><circle cx="267.1" cy="192.6" r="2"/><circle cx="269" cy="221.6" r="2"/><circle cx="271" cy="198.8" r="2"/><circle cx="272.9" cy="222.8" r="2"/><circle cx="274.9" cy="232.5" r="2"/><circle cx="276.9" cy="191.3" r="2"/><circle cx="278.8" cy="182.3" r="2"/><circle cx="280.8" cy="185.6" r="2"/><circle cx="282.8" cy="211.1" r="2"/><circle cx="284.7" cy="198.1" r="2"/><circle cx="286.7" cy="190.2" r="2"/><circle cx="288.6" cy="179.6" r="2"/><circle cx="290.6" cy="193.5" r="2"/><circle cx="292.6" cy="153.5" r="2"/><circle cx="294.5" cy="183.8" r="2"/><circle cx="296.5" cy="146.6" r="2"/><circle cx="298.4" cy="143.7" r="2"/><circle cx="300.4" cy="170.1" r="2"/><circle cx="302.4" cy="158.4" r="2"/><circle cx="304.3" cy="179.3" r="2"/><circle cx="306.3" cy="140.6" r="2"/><circle cx="308.3" cy="94.9" r="2"/><circle cx="310.2" cy="163.8" r="2"/><circle cx="312.2" cy="130" r="2"/><circle cx="314.1" cy="144.7" r="2"/><circle cx="316.1" cy="141.6" r="2"/><circle cx="318.1" cy="148.5" r="2"/><circle cx="320" cy="122.9" r="2"/><circle cx="322" cy="136.8" r="2"/><circle cx="323.9" cy="145.9" r="2"/><circle cx="325.9" cy="150.3" r="2"/><circle cx="327.9" cy="140.9" r="2"/><circle cx="329.8" cy="135" r="2"/><circle cx="331.8" cy="128.7" r="2"/><circle cx="333.8" cy="128" r="2"/><circle cx="335.7" cy="154.7" r="2"/><circle cx="337.7" cy="154.1" r="2"/><circle cx="339.6" cy="179.7" r="2"/><circle cx="341.6" cy="168.5" r="2"/><circle cx="343.6" cy="147.8" r="2"/><circle cx="345.5" cy="154.9" r="2"/><circle cx="347.5" cy="162.7" r="2"/><circle cx="349.5" cy="193.8" r="2"/><circle cx="351.4" cy="152.3" r="2"/><circle cx="353.4" cy="144.2" r="2"/><circle cx="355.3" cy="156.6" r="2"/><circle cx="357.3" cy="124.7" r="2"/><circle cx="359.3" cy="143.6" r="2"/><circle cx="361.2" cy="124.6" r="2"/><circle cx="363.2" cy="133.6" r="2"/><circle cx="365.1" cy="157.5" r="2"/><circle cx="367.1" cy="146.2" r="2"/><circle cx="369.1" cy="126.6" r="2"/><circle cx="371" cy="123.5" r="2"/><circle cx="373" cy="136.2" r="2"/><circle cx="375" cy="146.9" r="2"/><circle cx="376.9" cy="155.9" r="2"/><circle cx="378.9" cy="176.6" r="2"/><circle cx="380.8" cy="165.5" r="2"/><circle cx="382.8" cy="155.7" r="2"/><circle cx="384.8" cy="153.3" r="2"/><circle cx="386.7" cy="156.8" r="2"/><circle cx="388.7" cy="146" r="2"/><circle cx="390.6" cy="124.2" r="2"/><circle cx="392.6" cy="165.1" r="2"/><circle cx="394.6" cy="187.2" r="2"/><circle cx="396.5" cy="199" r="2"/><circle cx="398.5" cy="183.6" r="2"/><circle cx="400.5" cy="168.9" r="2"/><circle cx="402.4" cy="165.2" r="2"/><circle cx="404.4" cy="203" r="2"/><circle cx="406.3" cy="192" r="2"/><circle cx="408.3" cy="127.3" r="2"/><circle cx="410.3" cy="127" r="2"/><circle cx="412.2" cy="177.2" r="2"/><circle cx="414.2" cy="156.1" r="2"/><circle cx="416.2" cy="147.2" r="2"/><circle cx="418.1" cy="134.8" r="2"/><circle cx="420.1" cy="164" r="2"/><circle cx="422" cy="153" r="2"/><circle cx="424" cy="152.4" r="2"/><circle cx="426" cy="157" r="2"/><circle cx="427.9" cy="154.2" r="2"/><circle cx="429.9" cy="154.2" r="2"/><circle cx="431.8" cy="157" r="2"/><circle cx="433.8" cy="153.5" r="2"/><circle cx="435.8" cy="183" r="2"/><circle cx="437.7" cy="164.8" r="2"/><circle cx="439.7" cy="170.1" r="2"/><circle cx="441.7" cy="170.3" r="2"/><circle cx="443.6" cy="169.2" r="2"/><circle cx="445.6" cy="138.9" r="2"/><circle cx="447.5" cy="134.8" r="2"/><circle cx="449.5" cy="166.8" r="2"/><circle cx="451.5" cy="176.7" r="2"/><circle cx="453.4" cy="179.4" r="2"/><circle cx="455.4" cy="169.9" r="2"/><circle cx="457.3" cy="155.9" r="2"/><circle cx="459.3" cy="160.7" r="2"/><circle cx="461.3" cy="170.5" r="2"/><circle cx="463.2" cy="185.2" r="2"/><circle cx="465.2" cy="175.1" r="2"/><circle cx="467.2" cy="178" r="2"/><circle cx="469.1" cy="161.3" r="2"/><circle cx="471.1" cy="171.6" r="2"/><circle cx="473" cy="195.5" r="2"/><circle cx="475" cy="181.9" r="2"/><circle cx="477" cy="173.3" r="2"/><circle cx="478.9" cy="155.2" r="2"/><circle cx="480.9" cy="145.8" r="2"/><circle cx="482.8" cy="161.8" r="2"/><circle cx="484.8" cy="176.8" r="2"/><circle cx="486.8" cy="161.6" r="2"/><circle cx="488.7" cy="165.2" r="2"/><circle cx="490.7" cy="183.7" r="2"/><circle cx="492.7" cy="150.2" r="2"/><circle cx="494.6" cy="180.4" r="2"/><circle cx="496.6" cy="174.2" r="2"/><circle cx="498.5" cy="167.3" r="2"/><circle cx="500.5" cy="165.7" r="2"/><circle cx="502.5" cy="163.4" r="2"/><circle cx="504.4" cy="159.8" r="2"/><circle cx="506.4" cy="165.7" r="2"/><circle cx="508.4" cy="150.6" r="2"/><circle cx="510.3" cy="157.8" r="2"/><circle cx="512.3" cy="168.9" r="2"/><circle cx="514.2" cy="147.4" r="2"/><circle cx="516.2" cy="144.5" r="2"/><circle cx="518.2" cy="143.6" r="2"/><circle cx="520.1" cy="150" r="2"/><circle cx="522.1" cy="163" r="2"/><circle cx="524" cy="151.8" r="2"/><circle cx="526" cy="137.8" r="2"/><circle cx="528" cy="137.6" r="2"/><circle cx="529.9" cy="134.6" r="2"/><circle cx="531.9" cy="133.8" r="2"/><circle cx="533.9" cy="141.3" r="2"/><circle cx="535.8" cy="137.2" r="2"/><circle cx="537.8" cy="121.4" r="2"/><circle cx="539.7" cy="135.6" r="2"/><circle cx="541.7" cy="129.2" r="2"/><circle cx="543.7" cy="146.4" r="2"/><circle cx="545.6" cy="132.1" r="2"/><circle cx="547.6" cy="133.7" r="2"/><circle cx="549.5" cy="124.8" r="2"/><circle cx="551.5" cy="129" r="2"/><circle cx="553.5" cy="128.9" r="2"/><circle cx="555.4" cy="127.9" r="2"/><circle cx="557.4" cy="132.2" r="2"/><circle cx="559.4" cy="138.3" r="2"/><circle cx="561.3" cy="130.7" r="2"/><circle cx="563.3" cy="125.2" r="2"/><circle cx="565.2" cy="119.4" r="2"/><circle cx="567.2" cy="115.5" r="2"/><circle cx="569.2" cy="119.2" r="2"/><circle cx="571.1" cy="118.3" r="2"/><circle cx="573.1" cy="146.8" r="2"/><circle cx="575.1" cy="145" r="2"/><circle cx="577" cy="141.1" r="2"/><circle cx="579" cy="138.1" r="2"/><circle cx="580.9" cy="151.6" r="2"/><circle cx="582.9" cy="141.1" r="2"/><circle cx="584.9" cy="144.3" r="2"/><circle cx="586.8" cy="130" r="2"/><circle cx="588.8" cy="156.7" r="2"/><circle cx="590.7" cy="162" r="2"/><circle cx="592.7" cy="137.6" r="2"/><circle cx="594.7" cy="158.2" r="2"/><circle cx="596.6" cy="133" r="2"/><circle cx="598.6" cy="146.7" r="2"/><circle cx="600.6" cy="157.9" r="2"/><circle cx="602.5" cy="147.2" r="2"/><circle cx="604.5" cy="159.8" r="2"/><circle cx="606.4" cy="142.5" r="2"/><circle cx="608.4" cy="153.5" r="2"/><circle cx="610.4" cy="148.5" r="2"/><circle cx="612.3" cy="120.7" r="2"/><circle cx="614.3" cy="138.1" r="2"/><circle cx="616.2" cy="154" r="2"/><circle cx="618.2" cy="158.9" r="2"/><circle cx="620.2" cy="169" r="2"/><circle cx="622.1" cy="184.6" r="2"/><circle cx="624.1" cy="132.9" r="2"/><circle cx="626.1" cy="166.6" r="2"/><circle cx="628" cy="170.1" r="2"/><circle cx="630" cy="232.3" r="2"/><circle cx="631.9" cy="206.8" r="2"/><circle cx="633.9" cy="120.2" r="2"/><circle cx="635.9" cy="140.5" r="2"/><circle cx="637.8" cy="138.6" r="2"/><circle cx="639.8" cy="133.4" r="2"/><circle cx="641.8" cy="136.7" r="2"/><circle cx="643.7" cy="105.8" r="2"/><circle cx="645.7" cy="120.1" r="2"/><circle cx="647.6" cy="121.1" r="2"/><circle cx="649.6" cy="76.6" r="2"/><circle cx="651.6" cy="104.4" r="2"/><circle cx="653.5" cy="106.3" r="2"/><circle cx="655.5" cy="109.5" r="2"/><circle cx="657.4" cy="141.8" r="2"/><circle cx="659.4" cy="141.8" r="2"/><circle cx="661.4" cy="154.5" r="2"/><circle cx="663.3" cy="105.6" r="2"/><circle cx="665.3" cy="151.7" r="2"/><circle cx="667.3" cy="113.5" r="2"/><circle cx="669.2" cy="102.7" r="2"/><circle cx="671.2" cy="163.7" r="2"/><circle cx="673.1" cy="117.9" r="2"/><circle cx="675.1" cy="124.8" r="2"/><circle cx="677.1" cy="146.1" r="2"/><circle cx="679" cy="158.8" r="2"/><circle cx="681" cy="195.3" r="2"/><circle cx="682.9" cy="157.4" r="2"/><circle cx="684.9" cy="170.5" r="2"/><circle cx="686.9" cy="211.6" r="2"/><circle cx="688.8" cy="219.7" r="2"/><circle cx="690.8" cy="190" r="2"/><circle cx="692.8" cy="151.4" r="2"/><circle cx="694.7" cy="195.6" r="2"/><circle cx="696.7" cy="178.5" r="2"/><circle cx="698.6" cy="176.4" r="2"/><circle cx="700.6" cy="151" r="2"/><circle cx="702.6" cy="130.5" r="2"/><circle cx="704.5" cy="199.6" r="2"/><circle cx="706.5" cy="199.9" r="2"/><circle cx="708.4" cy="215.1" r="2"/><circle cx="710.4" cy="227.9" r="2"/><circle cx="712.4" cy="176.2" r="2"/><circle cx="714.3" cy="131.4" r="2"/><circle cx="716.3" cy="151.4" r="2"/><circle cx="718.3" cy="155.3" r="2"/><circle cx="720.2" cy="138.9" r="2"/><circle cx="722.2" cy="118.9" r="2"/><circle cx="724.1" cy="94.9" r="2"/><circle cx="726.1" cy="138.8" r="2"/><circle cx="728.1" cy="122.6" r="2"/><circle cx="730" cy="157.6" r="2"/><circle cx="732" cy="175.7" r="2"/><circle cx="734" cy="126.5" r="2"/><circle cx="735.9" cy="104.7" r="2"/><circle cx="737.9" cy="137.8" r="2"/><circle cx="739.8" cy="154.6" r="2"/><circle cx="741.8" cy="167.4" r="2"/><circle cx="743.8" cy="179.1" r="2"/><circle cx="745.7" cy="153.3" r="2"/><circle cx="747.7" cy="172.7" r="2"/><circle cx="749.6" cy="139.4" r="2"/><circle cx="751.6" cy="141.3" r="2"/><circle cx="753.6" cy="172.6" r="2"/><circle cx="755.5" cy="120.4" r="2"/><circle cx="757.5" cy="122.4" r="2"/><circle cx="759.5" cy="173.8" r="2"/><circle cx="761.4" cy="176.5" r="2"/><circle cx="763.4" cy="132.9" r="2"/><circle cx="765.3" cy="129.4" r="2"/><circle cx="767.3" cy="143.3" r="2"/><circle cx="769.3" cy="142.7" r="2"/><circle cx="771.2" cy="99" r="2"/><circle cx="773.2" cy="204.6" r="2"/><circle cx="775.1" cy="207.5" r="2"/><circle cx="777.1" cy="200.4" r="2"/><circle cx="779.1" cy="163.8" r="2"/><circle cx="781" cy="190.2" r="2"/><circle cx="783" cy="186.5" r="2"/><circle cx="785" cy="175.7" r="2"/><circle cx="786.9" cy="185" r="2"/><circle cx="788.9" cy="195.3" r="2"/><circle cx="790.8" cy="164.9" r="2"/><circle cx="792.8" cy="161.7" r="2"/><circle cx="794.8" cy="152.9" r="2"/><circle cx="796.7" cy="190.5" r="2"/><circle cx="798.7" cy="162.7" r="2"/><circle cx="800.7" cy="144.3" r="2"/><circle cx="802.6" cy="140.2" r="2"/><circle cx="804.6" cy="188.2" r="2"/><circle cx="806.5" cy="185.4" r="2"/><circle cx="808.5" cy="187.2" r="2"/><circle cx="810.5" cy="183.2" r="2"/><circle cx="812.4" cy="188.6" r="2"/><circle cx="814.4" cy="201.4" r="2"/><circle cx="816.3" cy="184.8" r="2"/><circle cx="818.3" cy="145.4" r="2"/><circle cx="820.3" cy="104.4" r="2"/><circle cx="822.2" cy="107.9" r="2"/><circle cx="824.2" cy="91.8" r="2"/><circle cx="826.2" cy="121.9" r="2"/><circle cx="828.1" cy="143.9" r="2"/><circle cx="830.1" cy="149.1" r="2"/><circle cx="832" cy="202.4" r="2"/><circle cx="834" cy="174.4" r="2"/></g></g></g></g></g><g class="SourcesFooter" fill="#777"><g fill="#777"><text font-size="12.6" x="15" y="553.3"><tspan x="15" y="553.28">Source: Broadberry, Campbell, Klein, Overton, and van Leeuwen (2015) via Bank of England (2020)</tspan></text></g><text font-size="12.6" x="15" y="567.9"><tspan x="15" y="567.88">Note: Data refers to England until 1700 and the UK from then onwards.</tspan></text><text font-size="12.6" x="15" y="582.5"><tspan x="15" y="582.48"><a target="_blank" href="https://ourworldindata.org/economic-growth" fill="#777">OurWorldInData.org/economic-growth</a> • <a class="cclogo" href="http://creativecommons.org/licenses/by/4.0/deed.en_US" target="_blank" fill="#777">CC BY</a></tspan></text></g></svg>