<svg xmlns="http://www.w3.org/2000/svg" version="1.1" style="font-family:Lato,'Helvetica Neue',Helvetica,Arial,sans-serif;font-size:18px;background-color:#fff;text-rendering:geometricPrecision;-webkit-font-smoothing:antialiased" width="850" height="600" viewBox="0 0 850 600"><g class="HeaderView"><g transform="matrix(.29 0 0 .29 774 15)"><svg className="owidLog" width="210" height="120" viewBox="0 0 210 120" fill="none" xmlns="http://www.w3.org/2000/svg"><g clip-path="url(#a)"><path d="M0 0h210v107.89H0V0z" fill="#002147"/><path d="M40.98 32.25c0 2.36-.38 4.53-1.12 6.51a14.26 14.26 0 0 1-8.1 8.4c-1.9.78-4.02 1.17-6.34 1.17a16.6 16.6 0 0 1-6.33-1.17 14.31 14.31 0 0 1-8.08-8.4 18.29 18.29 0 0 1-1.12-6.51c0-2.36.38-4.53 1.12-6.5.75-1.97 1.8-3.67 3.17-5.1a14.32 14.32 0 0 1 4.9-3.34c1.92-.8 4.03-1.19 6.34-1.19 2.32 0 4.43.4 6.34 1.19 1.92.8 3.56 1.9 4.93 3.34a14.87 14.87 0 0 1 3.17 5.1 18.1 18.1 0 0 1 1.12 6.5zm-4.38 0c0-1.94-.26-3.68-.8-5.22a10.91 10.91 0 0 0-2.24-3.89 9.68 9.68 0 0 0-3.52-2.46 11.95 11.95 0 0 0-4.62-.86c-1.68 0-3.21.28-4.6.86a9.88 9.88 0 0 0-3.54 2.46 10.91 10.91 0 0 0-2.24 3.9c-.53 1.53-.8 3.27-.8 5.2 0 1.94.27 3.68.8 5.22a11.17 11.17 0 0 0 2.24 3.9 10.01 10.01 0 0 0 3.55 2.44c1.38.56 2.9.83 4.6.83s3.24-.27 4.61-.83a9.8 9.8 0 0 0 3.52-2.44 11.17 11.17 0 0 0 2.25-3.9c.53-1.54.8-3.28.8-5.21zm26.22-6.54V48H60.5c-.56 0-.9-.27-1.05-.81l-.31-2.4a12.45 12.45 0 0 1-3.26 2.6c-1.2.64-2.58.96-4.13.96-1.22 0-2.3-.2-3.24-.6a6.52 6.52 0 0 1-2.33-1.7 7.37 7.37 0 0 1-1.43-2.67c-.3-1.04-.46-2.2-.46-3.45V25.7h3.91v14.22c0 1.68.38 2.99 1.15 3.91.77.93 1.96 1.39 3.54 1.39 1.16 0 2.24-.27 3.23-.82a10.42 10.42 0 0 0 2.8-2.28V25.7h3.91zm8.61 4.47a9.94 9.94 0 0 1 2.6-3.56 5.64 5.64 0 0 1 3.76-1.3c.47 0 .92.05 1.34.15.44.1.83.27 1.17.49l-.3 2.92c-.09.37-.3.55-.66.55-.2 0-.5-.04-.9-.13a6.21 6.21 0 0 0-3.24.18 4.23 4.23 0 0 0-1.47.92c-.42.4-.81.9-1.17 1.5-.33.58-.64 1.26-.92 2.02V48H67.7V25.71h2.25c.42 0 .72.08.88.25.16.16.27.44.33.83l.26 3.39zm61.16-13.7L122.75 48h-3.82l-7.99-24.05a21.95 21.95 0 0 1-.42-1.58 38.36 38.36 0 0 1-.44 1.58L102.05 48h-3.83L88.4 16.47h3.54c.38 0 .7.1.95.29.26.2.43.43.5.73l6.52 21.9.28 1.28.29 1.46.3-1.46.38-1.27 7.41-21.91c.1-.25.26-.48.51-.69.27-.22.58-.33.95-.33h1.23c.38 0 .69.1.92.29a1.77 1.77 0 0 1 .53.73l7.4 21.9a28.4 28.4 0 0 1 .68 2.62 29.52 29.52 0 0 1 .52-2.61l6.54-21.91a1.31 1.31 0 0 1 .48-.7c.27-.21.58-.32.95-.32h3.32zm9.35 8.88c1.63 0 3.1.27 4.4.82a9.43 9.43 0 0 1 5.46 5.94c.5 1.4.74 2.98.74 4.73 0 1.76-.25 3.34-.74 4.75a9.43 9.43 0 0 1-5.46 5.92c-1.3.52-2.77.79-4.4.79-1.64 0-3.12-.27-4.44-.8a9.42 9.42 0 0 1-3.35-2.3c-.92-1-1.63-2.2-2.13-3.61-.49-1.41-.73-3-.73-4.75s.24-3.33.73-4.73c.5-1.43 1.2-2.64 2.13-3.63a9.4 9.4 0 0 1 3.35-2.31c1.32-.55 2.8-.82 4.44-.82zm0 19.89c2.2 0 3.84-.73 4.93-2.2 1.08-1.48 1.63-3.54 1.63-6.18 0-2.66-.55-4.72-1.63-6.2-1.09-1.49-2.73-2.23-4.93-2.23-1.12 0-2.09.2-2.93.57a5.71 5.71 0 0 0-2.06 1.65 7.5 7.5 0 0 0-1.24 2.67c-.26 1.04-.4 2.22-.4 3.54 0 2.64.55 4.7 1.64 6.18 1.1 1.47 2.76 2.2 4.99 2.2zm17.97-15.07a9.94 9.94 0 0 1 2.6-3.56 5.64 5.64 0 0 1 3.76-1.3c.47 0 .91.05 1.34.15.44.1.83.27 1.16.49l-.28 2.92c-.09.37-.31.55-.66.55-.2 0-.5-.04-.9-.13a6.2 6.2 0 0 0-3.24.18 4.23 4.23 0 0 0-1.47.92c-.43.4-.82.9-1.17 1.5a13.1 13.1 0 0 0-.92 2.02V48h-3.94V25.71h2.24c.43 0 .72.08.88.25.17.16.28.44.33.83l.27 3.39zm15.04-14.59V48h-3.92V15.6h3.92zm19.55 15.43a6.22 6.22 0 0 0-2.38-2.05 6.7 6.7 0 0 0-2.86-.6c-2.07 0-3.66.75-4.77 2.23-1.12 1.48-1.68 3.6-1.68 6.33 0 1.46.13 2.7.38 3.74a7.29 7.29 0 0 0 1.1 2.56 4.35 4.35 0 0 0 1.78 1.45c.7.3 1.5.46 2.4.46 1.29 0 2.41-.3 3.36-.88a9.6 9.6 0 0 0 2.67-2.49V31.02zm3.91-15.43V48h-2.33c-.56 0-.9-.27-1.06-.81l-.35-2.71a12.13 12.13 0 0 1-3.25 2.77 8.28 8.28 0 0 1-4.23 1.06 7.31 7.31 0 0 1-6.14-2.9c-.73-.96-1.3-2.15-1.69-3.57a18.35 18.35 0 0 1 .07-9.48 11.29 11.29 0 0 1 1.89-3.7 8.7 8.7 0 0 1 7.06-3.34 7.96 7.96 0 0 1 6.12 2.62V15.59h3.91zM46.61 70.71V93H42.7V70.71h3.91zm.84-7c0 .39-.08.75-.24 1.09a2.81 2.81 0 0 1-1.52 1.47 2.67 2.67 0 0 1-2.16 0 2.9 2.9 0 0 1-1.45-1.47 2.67 2.67 0 0 1 0-2.16c.15-.35.35-.65.6-.9.25-.27.53-.47.85-.62a2.67 2.67 0 0 1 2.16 0c.35.15.65.35.9.62.27.25.47.55.62.9.16.34.24.7.24 1.08zm7.97 10.24c.49-.54 1-1.04 1.54-1.48a9.85 9.85 0 0 1 3.66-1.84 8.96 8.96 0 0 1 5.43.35c.94.4 1.72.97 2.33 1.71a7.36 7.36 0 0 1 1.43 2.67c.32 1.04.49 2.19.49 3.45V93h-3.94V78.81c0-1.69-.4-3-1.17-3.92-.76-.93-1.93-1.4-3.5-1.4a6.6 6.6 0 0 0-3.25.83c-1 .56-1.92 1.31-2.77 2.27V93h-3.94V70.71h2.35c.56 0 .9.28 1.04.82l.3 2.42zm57.7 3.3c0 2.36-.37 4.5-1.11 6.44a14.3 14.3 0 0 1-3.17 4.98 14.1 14.1 0 0 1-4.93 3.2c-1.9.76-4.02 1.13-6.33 1.13H85.8V61.47h11.77c2.31 0 4.42.39 6.33 1.15a13.8 13.8 0 0 1 8.1 8.18 17.75 17.75 0 0 1 1.12 6.45zm-4.37 0c0-1.94-.26-3.67-.8-5.2a10.94 10.94 0 0 0-2.23-3.87 9.57 9.57 0 0 0-3.53-2.42 12.23 12.23 0 0 0-4.61-.83h-7.5v24.62h7.5c1.7 0 3.24-.28 4.61-.84a9.7 9.7 0 0 0 3.53-2.4 10.94 10.94 0 0 0 2.24-3.87c.53-1.53.8-3.26.8-5.2zm19.8 5.72c-1.8.06-3.34.2-4.62.44-1.26.22-2.3.51-3.1.88-.8.36-1.37.8-1.74 1.3-.35.5-.53 1.05-.53 1.67 0 .58.1 1.1.3 1.52a3 3 0 0 0 .76 1.05c.34.27.73.46 1.17.6a6.13 6.13 0 0 0 1.45.17 7.28 7.28 0 0 0 3.5-.81 11.95 11.95 0 0 0 2.82-2.2v-4.62zm-12.65-9.11a12.73 12.73 0 0 1 3.98-2.66c1.43-.59 3-.88 4.73-.88 1.25 0 2.36.2 3.33.61a6.81 6.81 0 0 1 3.94 4.38c.33 1.04.5 2.19.5 3.43V93h-1.74a1.8 1.8 0 0 1-.88-.18c-.2-.13-.36-.38-.48-.74l-.44-2.12-1.72 1.46a9.48 9.48 0 0 1-3.74 1.7c-.69.15-1.46.23-2.3.23-.87 0-1.69-.12-2.45-.35a5.34 5.34 0 0 1-3.34-2.93 6.64 6.64 0 0 1-.49-2.64c0-.88.25-1.72.73-2.53a6.33 6.33 0 0 1 2.35-2.17c1.09-.63 2.5-1.15 4.25-1.54 1.75-.41 3.89-.65 6.42-.7v-1.75c0-1.73-.37-3.03-1.12-3.91-.75-.9-1.84-1.34-3.28-1.34-.97 0-1.78.12-2.44.37-.64.23-1.2.5-1.7.81l-1.23.82c-.33.23-.67.35-1 .35-.27 0-.5-.07-.69-.2a2.1 2.1 0 0 1-.48-.53l-.7-1.25zm27.67 19.5c-1.76 0-3.12-.5-4.07-1.48-.94-.98-1.41-2.4-1.41-4.25V74h-2.68a.9.9 0 0 1-.6-.2c-.16-.14-.24-.36-.24-.66v-1.56l3.65-.46.9-6.89a.9.9 0 0 1 .29-.52.88.88 0 0 1 .62-.22H142v7.67h6.44V74H142v13.38c0 .94.22 1.63.68 2.09.45.45 1.04.68 1.76.68a3.21 3.21 0 0 0 1.85-.53l.55-.35c.16-.12.3-.18.41-.18.2 0 .4.13.55.38l1.15 1.87a7.45 7.45 0 0 1-2.44 1.5 8.53 8.53 0 0 1-2.95.52zm19.68-10.4c-1.8.07-3.34.21-4.62.45-1.26.22-2.3.51-3.1.88-.8.36-1.37.8-1.74 1.3-.35.5-.53 1.05-.53 1.67 0 .58.1 1.1.3 1.52a2.9 2.9 0 0 0 .76 1.05c.34.27.73.46 1.17.6a6.13 6.13 0 0 0 1.45.17 7.3 7.3 0 0 0 3.5-.81 12.04 12.04 0 0 0 2.82-2.2v-4.62zm-12.65-9.1a12.72 12.72 0 0 1 3.99-2.66c1.42-.59 3-.88 4.72-.88 1.25 0 2.36.2 3.33.61a6.81 6.81 0 0 1 3.94 4.38c.33 1.04.5 2.19.5 3.43V93h-1.74a1.8 1.8 0 0 1-.88-.18c-.2-.13-.36-.38-.48-.74l-.44-2.12-1.72 1.46a9.48 9.48 0 0 1-3.74 1.7c-.69.15-1.46.23-2.3.23-.87 0-1.69-.12-2.45-.35a5.33 5.33 0 0 1-3.34-2.93 6.62 6.62 0 0 1-.49-2.64c0-.88.25-1.72.73-2.53a6.33 6.33 0 0 1 2.35-2.17c1.09-.63 2.5-1.15 4.25-1.54a31.2 31.2 0 0 1 6.42-.7v-1.75c0-1.73-.37-3.03-1.12-3.91-.75-.9-1.84-1.34-3.28-1.34-.97 0-1.78.12-2.44.37-.64.23-1.2.5-1.7.81l-1.22.82c-.34.23-.68.35-1.02.35-.26 0-.49-.07-.68-.2a1.88 1.88 0 0 1-.48-.53l-.7-1.25zM40.98 32.25c0 2.36-.38 4.53-1.12 6.51a14.26 14.26 0 0 1-8.1 8.4c-1.9.78-4.02 1.17-6.34 1.17a16.6 16.6 0 0 1-6.33-1.17 14.31 14.31 0 0 1-8.08-8.4 18.29 18.29 0 0 1-1.12-6.51c0-2.36.38-4.53 1.12-6.5.75-1.97 1.8-3.67 3.17-5.1a14.32 14.32 0 0 1 4.9-3.34c1.92-.8 4.03-1.19 6.34-1.19 2.32 0 4.43.4 6.34 1.19 1.92.8 3.56 1.9 4.93 3.34a14.87 14.87 0 0 1 3.17 5.1 18.1 18.1 0 0 1 1.12 6.5zm-4.38 0c0-1.94-.26-3.68-.8-5.22a10.91 10.91 0 0 0-2.24-3.89 9.68 9.68 0 0 0-3.52-2.46 11.95 11.95 0 0 0-4.62-.86c-1.68 0-3.21.28-4.6.86a9.88 9.88 0 0 0-3.54 2.46 10.91 10.91 0 0 0-2.24 3.9c-.53 1.53-.8 3.27-.8 5.2 0 1.94.27 3.68.8 5.22a11.17 11.17 0 0 0 2.24 3.9 10.01 10.01 0 0 0 3.55 2.44c1.38.56 2.9.83 4.6.83s3.24-.27 4.61-.83a9.8 9.8 0 0 0 3.52-2.44 11.17 11.17 0 0 0 2.25-3.9c.53-1.54.8-3.28.8-5.21zm26.22-6.54V48H60.5c-.56 0-.9-.27-1.05-.81l-.31-2.4a12.45 12.45 0 0 1-3.26 2.6c-1.2.64-2.58.96-4.13.96-1.22 0-2.3-.2-3.24-.6a6.52 6.52 0 0 1-2.33-1.7 7.37 7.37 0 0 1-1.43-2.67c-.3-1.04-.46-2.2-.46-3.45V25.7h3.91v14.22c0 1.68.38 2.99 1.15 3.91.77.93 1.96 1.39 3.54 1.39 1.16 0 2.24-.27 3.23-.82a10.42 10.42 0 0 0 2.8-2.28V25.7h3.91zm8.61 4.47a9.94 9.94 0 0 1 2.6-3.56 5.64 5.64 0 0 1 3.76-1.3c.47 0 .92.05 1.34.15.44.1.83.27 1.17.49l-.3 2.92c-.09.37-.3.55-.66.55-.2 0-.5-.04-.9-.13a6.21 6.21 0 0 0-3.24.18 4.23 4.23 0 0 0-1.47.92c-.42.4-.81.9-1.17 1.5-.33.58-.64 1.26-.92 2.02V48H67.7V25.71h2.25c.42 0 .72.08.88.25.16.16.27.44.33.83l.26 3.39zm61.16-13.7L122.75 48h-3.82l-7.99-24.05a21.95 21.95 0 0 1-.42-1.58 38.36 38.36 0 0 1-.44 1.58L102.05 48h-3.83L88.4 16.47h3.54c.38 0 .7.1.95.29.26.2.43.43.5.73l6.52 21.9.28 1.28.29 1.46.3-1.46.38-1.27 7.41-21.91c.1-.25.26-.48.51-.69.27-.22.58-.33.95-.33h1.23c.38 0 .69.1.92.29a1.77 1.77 0 0 1 .53.73l7.4 21.9a28.4 28.4 0 0 1 .68 2.62 29.52 29.52 0 0 1 .52-2.61l6.54-21.91a1.31 1.31 0 0 1 .48-.7c.27-.21.58-.32.95-.32h3.32zm9.35 8.88c1.63 0 3.1.27 4.4.82a9.43 9.43 0 0 1 5.46 5.94c.5 1.4.74 2.98.74 4.73 0 1.76-.25 3.34-.74 4.75a9.43 9.43 0 0 1-5.46 5.92c-1.3.52-2.77.79-4.4.79-1.64 0-3.12-.27-4.44-.8a9.42 9.42 0 0 1-3.35-2.3c-.92-1-1.63-2.2-2.13-3.61-.49-1.41-.73-3-.73-4.75s.24-3.33.73-4.73c.5-1.43 1.2-2.64 2.13-3.63a9.4 9.4 0 0 1 3.35-2.31c1.32-.55 2.8-.82 4.44-.82zm0 19.89c2.2 0 3.84-.73 4.93-2.2 1.08-1.48 1.63-3.54 1.63-6.18 0-2.66-.55-4.72-1.63-6.2-1.09-1.49-2.73-2.23-4.93-2.23-1.12 0-2.09.2-2.93.57a5.71 5.71 0 0 0-2.06 1.65 7.5 7.5 0 0 0-1.24 2.67c-.26 1.04-.4 2.22-.4 3.54 0 2.64.55 4.7 1.64 6.18 1.1 1.47 2.76 2.2 4.99 2.2zm17.97-15.07a9.94 9.94 0 0 1 2.6-3.56 5.64 5.64 0 0 1 3.76-1.3c.47 0 .91.05 1.34.15.44.1.83.27 1.16.49l-.28 2.92c-.09.37-.31.55-.66.55-.2 0-.5-.04-.9-.13a6.2 6.2 0 0 0-3.24.18 4.23 4.23 0 0 0-1.47.92c-.43.4-.82.9-1.17 1.5a13.1 13.1 0 0 0-.92 2.02V48h-3.94V25.71h2.24c.43 0 .72.08.88.25.17.16.28.44.33.83l.27 3.39zm15.04-14.59V48h-3.92V15.6h3.92zm19.55 15.43a6.22 6.22 0 0 0-2.38-2.05 6.7 6.7 0 0 0-2.86-.6c-2.07 0-3.66.75-4.77 2.23-1.12 1.48-1.68 3.6-1.68 6.33 0 1.46.13 2.7.38 3.74a7.29 7.29 0 0 0 1.1 2.56 4.35 4.35 0 0 0 1.78 1.45c.7.3 1.5.46 2.4.46 1.29 0 2.41-.3 3.36-.88a9.6 9.6 0 0 0 2.67-2.49V31.02zm3.91-15.43V48h-2.33c-.56 0-.9-.27-1.06-.81l-.35-2.71a12.13 12.13 0 0 1-3.25 2.77 8.28 8.28 0 0 1-4.23 1.06 7.31 7.31 0 0 1-6.14-2.9c-.73-.96-1.3-2.15-1.69-3.57a18.35 18.35 0 0 1 .07-9.48 11.29 11.29 0 0 1 1.89-3.7 8.7 8.7 0 0 1 7.06-3.34 7.96 7.96 0 0 1 6.12 2.62V15.59h3.91zM46.61 70.71V93H42.7V70.71h3.91zm.84-7c0 .39-.08.75-.24 1.09a2.81 2.81 0 0 1-1.52 1.47 2.67 2.67 0 0 1-2.16 0 2.9 2.9 0 0 1-1.45-1.47 2.67 2.67 0 0 1 0-2.16c.15-.35.35-.65.6-.9.25-.27.53-.47.85-.62a2.67 2.67 0 0 1 2.16 0c.35.15.65.35.9.62.27.25.47.55.62.9.16.34.24.7.24 1.08zm7.97 10.24c.49-.54 1-1.04 1.54-1.48a9.85 9.85 0 0 1 3.66-1.84 8.96 8.96 0 0 1 5.43.35c.94.4 1.72.97 2.33 1.71a7.36 7.36 0 0 1 1.43 2.67c.32 1.04.49 2.19.49 3.45V93h-3.94V78.81c0-1.69-.4-3-1.17-3.92-.76-.93-1.93-1.4-3.5-1.4a6.6 6.6 0 0 0-3.25.83c-1 .56-1.92 1.31-2.77 2.27V93h-3.94V70.71h2.35c.56 0 .9.28 1.04.82l.3 2.42zm57.7 3.3c0 2.36-.37 4.5-1.11 6.44a14.3 14.3 0 0 1-3.17 4.98 14.1 14.1 0 0 1-4.93 3.2c-1.9.76-4.02 1.13-6.33 1.13H85.8V61.47h11.77c2.31 0 4.42.39 6.33 1.15a13.8 13.8 0 0 1 8.1 8.18 17.75 17.75 0 0 1 1.12 6.45zm-4.37 0c0-1.94-.26-3.67-.8-5.2a10.94 10.94 0 0 0-2.23-3.87 9.57 9.57 0 0 0-3.53-2.42 12.23 12.23 0 0 0-4.61-.83h-7.5v24.62h7.5c1.7 0 3.24-.28 4.61-.84a9.7 9.7 0 0 0 3.53-2.4 10.94 10.94 0 0 0 2.24-3.87c.53-1.53.8-3.26.8-5.2zm19.8 5.72c-1.8.06-3.34.2-4.62.44-1.26.22-2.3.51-3.1.88-.8.36-1.37.8-1.74 1.3-.35.5-.53 1.05-.53 1.67 0 .58.1 1.1.3 1.52a3 3 0 0 0 .76 1.05c.34.27.73.46 1.17.6a6.13 6.13 0 0 0 1.45.17 7.28 7.28 0 0 0 3.5-.81 11.95 11.95 0 0 0 2.82-2.2v-4.62zm-12.65-9.11a12.73 12.73 0 0 1 3.98-2.66c1.43-.59 3-.88 4.73-.88 1.25 0 2.36.2 3.33.61a6.81 6.81 0 0 1 3.94 4.38c.33 1.04.5 2.19.5 3.43V93h-1.74a1.8 1.8 0 0 1-.88-.18c-.2-.13-.36-.38-.48-.74l-.44-2.12-1.72 1.46a9.48 9.48 0 0 1-3.74 1.7c-.69.15-1.46.23-2.3.23-.87 0-1.69-.12-2.45-.35a5.34 5.34 0 0 1-3.34-2.93 6.64 6.64 0 0 1-.49-2.64c0-.88.25-1.72.73-2.53a6.33 6.33 0 0 1 2.35-2.17c1.09-.63 2.5-1.15 4.25-1.54 1.75-.41 3.89-.65 6.42-.7v-1.75c0-1.73-.37-3.03-1.12-3.91-.75-.9-1.84-1.34-3.28-1.34-.97 0-1.78.12-2.44.37-.64.23-1.2.5-1.7.81l-1.23.82c-.33.23-.67.35-1 .35-.27 0-.5-.07-.69-.2a2.1 2.1 0 0 1-.48-.53l-.7-1.25zm27.67 19.5c-1.76 0-3.12-.5-4.07-1.48-.94-.98-1.41-2.4-1.41-4.25V74h-2.68a.9.9 0 0 1-.6-.2c-.16-.14-.24-.36-.24-.66v-1.56l3.65-.46.9-6.89a.9.9 0 0 1 .29-.52.88.88 0 0 1 .62-.22H142v7.67h6.44V74H142v13.38c0 .94.22 1.63.68 2.09.45.45 1.04.68 1.76.68a3.21 3.21 0 0 0 1.85-.53l.55-.35c.16-.12.3-.18.41-.18.2 0 .4.13.55.38l1.15 1.87a7.45 7.45 0 0 1-2.44 1.5 8.53 8.53 0 0 1-2.95.52zm19.68-10.4c-1.8.07-3.34.21-4.62.45-1.26.22-2.3.51-3.1.88-.8.36-1.37.8-1.74 1.3-.35.5-.53 1.05-.53 1.67 0 .58.1 1.1.3 1.52a2.9 2.9 0 0 0 .76 1.05c.34.27.73.46 1.17.6a6.13 6.13 0 0 0 1.45.17 7.3 7.3 0 0 0 3.5-.81 12.04 12.04 0 0 0 2.82-2.2v-4.62zm-12.65-9.1a12.72 12.72 0 0 1 3.99-2.66c1.42-.59 3-.88 4.72-.88 1.25 0 2.36.2 3.33.61a6.81 6.81 0 0 1 3.94 4.38c.33 1.04.5 2.19.5 3.43V93h-1.74a1.8 1.8 0 0 1-.88-.18c-.2-.13-.36-.38-.48-.74l-.44-2.12-1.72 1.46a9.48 9.48 0 0 1-3.74 1.7c-.69.15-1.46.23-2.3.23-.87 0-1.69-.12-2.45-.35a5.33 5.33 0 0 1-3.34-2.93 6.62 6.62 0 0 1-.49-2.64c0-.88.25-1.72.73-2.53a6.33 6.33 0 0 1 2.35-2.17c1.09-.63 2.5-1.15 4.25-1.54a31.2 31.2 0 0 1 6.42-.7v-1.75c0-1.73-.37-3.03-1.12-3.91-.75-.9-1.84-1.34-3.28-1.34-.97 0-1.78.12-2.44.37-.64.23-1.2.5-1.7.81l-1.22.82c-.34.23-.68.35-1.02.35-.26 0-.49-.07-.68-.2a1.88 1.88 0 0 1-.48-.53l-.7-1.25zM40.98 32.25c0 2.36-.38 4.53-1.12 6.51a14.26 14.26 0 0 1-8.1 8.4c-1.9.78-4.02 1.17-6.34 1.17a16.6 16.6 0 0 1-6.33-1.17 14.31 14.31 0 0 1-8.08-8.4 18.29 18.29 0 0 1-1.12-6.51c0-2.36.38-4.53 1.12-6.5.75-1.97 1.8-3.67 3.17-5.1a14.32 14.32 0 0 1 4.9-3.34c1.92-.8 4.03-1.19 6.34-1.19 2.32 0 4.43.4 6.34 1.19 1.92.8 3.56 1.9 4.93 3.34a14.87 14.87 0 0 1 3.17 5.1 18.1 18.1 0 0 1 1.12 6.5zm-4.38 0c0-1.94-.26-3.68-.8-5.22a10.91 10.91 0 0 0-2.24-3.89 9.68 9.68 0 0 0-3.52-2.46 11.95 11.95 0 0 0-4.62-.86c-1.68 0-3.21.28-4.6.86a9.88 9.88 0 0 0-3.54 2.46 10.91 10.91 0 0 0-2.24 3.9c-.53 1.53-.8 3.27-.8 5.2 0 1.94.27 3.68.8 5.22a11.17 11.17 0 0 0 2.24 3.9 10.01 10.01 0 0 0 3.55 2.44c1.38.56 2.9.83 4.6.83s3.24-.27 4.61-.83a9.8 9.8 0 0 0 3.52-2.44 11.17 11.17 0 0 0 2.25-3.9c.53-1.54.8-3.28.8-5.21zm26.22-6.54V48H60.5c-.56 0-.9-.27-1.05-.81l-.31-2.4a12.45 12.45 0 0 1-3.26 2.6c-1.2.64-2.58.96-4.13.96-1.22 0-2.3-.2-3.24-.6a6.52 6.52 0 0 1-2.33-1.7 7.37 7.37 0 0 1-1.43-2.67c-.3-1.04-.46-2.2-.46-3.45V25.7h3.91v14.22c0 1.68.38 2.99 1.15 3.91.77.93 1.96 1.39 3.54 1.39 1.16 0 2.24-.27 3.23-.82a10.42 10.42 0 0 0 2.8-2.28V25.7h3.91zm8.61 4.47a9.94 9.94 0 0 1 2.6-3.56 5.64 5.64 0 0 1 3.76-1.3c.47 0 .92.05 1.34.15.44.1.83.27 1.17.49l-.3 2.92c-.09.37-.3.55-.66.55-.2 0-.5-.04-.9-.13a6.21 6.21 0 0 0-3.24.18 4.23 4.23 0 0 0-1.47.92c-.42.4-.81.9-1.17 1.5-.33.58-.64 1.26-.92 2.02V48H67.7V25.71h2.25c.42 0 .72.08.88.25.16.16.27.44.33.83l.26 3.39zm61.16-13.7L122.75 48h-3.82l-7.99-24.05a21.95 21.95 0 0 1-.42-1.58 38.36 38.36 0 0 1-.44 1.58L102.05 48h-3.83L88.4 16.47h3.54c.38 0 .7.1.95.29.26.2.43.43.5.73l6.52 21.9.28 1.28.29 1.46.3-1.46.38-1.27 7.41-21.91c.1-.25.26-.48.51-.69.27-.22.58-.33.95-.33h1.23c.38 0 .69.1.92.29a1.77 1.77 0 0 1 .53.73l7.4 21.9a28.4 28.4 0 0 1 .68 2.62 29.52 29.52 0 0 1 .52-2.61l6.54-21.91a1.31 1.31 0 0 1 .48-.7c.27-.21.58-.32.95-.32h3.32zm9.35 8.88c1.63 0 3.1.27 4.4.82a9.43 9.43 0 0 1 5.46 5.94c.5 1.4.74 2.98.74 4.73 0 1.76-.25 3.34-.74 4.75a9.43 9.43 0 0 1-5.46 5.92c-1.3.52-2.77.79-4.4.79-1.64 0-3.12-.27-4.44-.8a9.42 9.42 0 0 1-3.35-2.3c-.92-1-1.63-2.2-2.13-3.61-.49-1.41-.73-3-.73-4.75s.24-3.33.73-4.73c.5-1.43 1.2-2.64 2.13-3.63a9.4 9.4 0 0 1 3.35-2.31c1.32-.55 2.8-.82 4.44-.82zm0 19.89c2.2 0 3.84-.73 4.93-2.2 1.08-1.48 1.63-3.54 1.63-6.18 0-2.66-.55-4.72-1.63-6.2-1.09-1.49-2.73-2.23-4.93-2.23-1.12 0-2.09.2-2.93.57a5.71 5.71 0 0 0-2.06 1.65 7.5 7.5 0 0 0-1.24 2.67c-.26 1.04-.4 2.22-.4 3.54 0 2.64.55 4.7 1.64 6.18 1.1 1.47 2.76 2.2 4.99 2.2zm17.97-15.07a9.94 9.94 0 0 1 2.6-3.56 5.64 5.64 0 0 1 3.76-1.3c.47 0 .91.05 1.34.15.44.1.83.27 1.16.49l-.28 2.92c-.09.37-.31.55-.66.55-.2 0-.5-.04-.9-.13a6.2 6.2 0 0 0-3.24.18 4.23 4.23 0 0 0-1.47.92c-.43.4-.82.9-1.17 1.5a13.1 13.1 0 0 0-.92 2.02V48h-3.94V25.71h2.24c.43 0 .72.08.88.25.17.16.28.44.33.83l.27 3.39zm15.04-14.59V48h-3.92V15.6h3.92zm19.55 15.43a6.22 6.22 0 0 0-2.38-2.05 6.7 6.7 0 0 0-2.86-.6c-2.07 0-3.66.75-4.77 2.23-1.12 1.48-1.68 3.6-1.68 6.33 0 1.46.13 2.7.38 3.74a7.29 7.29 0 0 0 1.1 2.56 4.35 4.35 0 0 0 1.78 1.45c.7.3 1.5.46 2.4.46 1.29 0 2.41-.3 3.36-.88a9.6 9.6 0 0 0 2.67-2.49V31.02zm3.91-15.43V48h-2.33c-.56 0-.9-.27-1.06-.81l-.35-2.71a12.13 12.13 0 0 1-3.25 2.77 8.28 8.28 0 0 1-4.23 1.06 7.31 7.31 0 0 1-6.14-2.9c-.73-.96-1.3-2.15-1.69-3.57a18.35 18.35 0 0 1 .07-9.48 11.29 11.29 0 0 1 1.89-3.7 8.7 8.7 0 0 1 7.06-3.34 7.96 7.96 0 0 1 6.12 2.62V15.59h3.91zM46.61 70.71V93H42.7V70.71h3.91zm.84-7c0 .39-.08.75-.24 1.09a2.81 2.81 0 0 1-1.52 1.47 2.67 2.67 0 0 1-2.16 0 2.9 2.9 0 0 1-1.45-1.47 2.67 2.67 0 0 1 0-2.16c.15-.35.35-.65.6-.9.25-.27.53-.47.85-.62a2.67 2.67 0 0 1 2.16 0c.35.15.65.35.9.62.27.25.47.55.62.9.16.34.24.7.24 1.08zm7.97 10.24c.49-.54 1-1.04 1.54-1.48a9.85 9.85 0 0 1 3.66-1.84 8.96 8.96 0 0 1 5.43.35c.94.4 1.72.97 2.33 1.71a7.36 7.36 0 0 1 1.43 2.67c.32 1.04.49 2.19.49 3.45V93h-3.94V78.81c0-1.69-.4-3-1.17-3.92-.76-.93-1.93-1.4-3.5-1.4a6.6 6.6 0 0 0-3.25.83c-1 .56-1.92 1.31-2.77 2.27V93h-3.94V70.71h2.35c.56 0 .9.28 1.04.82l.3 2.42zm57.7 3.3c0 2.36-.37 4.5-1.11 6.44a14.3 14.3 0 0 1-3.17 4.98 14.1 14.1 0 0 1-4.93 3.2c-1.9.76-4.02 1.13-6.33 1.13H85.8V61.47h11.77c2.31 0 4.42.39 6.33 1.15a13.8 13.8 0 0 1 8.1 8.18 17.75 17.75 0 0 1 1.12 6.45zm-4.37 0c0-1.94-.26-3.67-.8-5.2a10.94 10.94 0 0 0-2.23-3.87 9.57 9.57 0 0 0-3.53-2.42 12.23 12.23 0 0 0-4.61-.83h-7.5v24.62h7.5c1.7 0 3.24-.28 4.61-.84a9.7 9.7 0 0 0 3.53-2.4 10.94 10.94 0 0 0 2.24-3.87c.53-1.53.8-3.26.8-5.2zm19.8 5.72c-1.8.06-3.34.2-4.62.44-1.26.22-2.3.51-3.1.88-.8.36-1.37.8-1.74 1.3-.35.5-.53 1.05-.53 1.67 0 .58.1 1.1.3 1.52a3 3 0 0 0 .76 1.05c.34.27.73.46 1.17.6a6.13 6.13 0 0 0 1.45.17 7.28 7.28 0 0 0 3.5-.81 11.95 11.95 0 0 0 2.82-2.2v-4.62zm-12.65-9.11a12.73 12.73 0 0 1 3.98-2.66c1.43-.59 3-.88 4.73-.88 1.25 0 2.36.2 3.33.61a6.81 6.81 0 0 1 3.94 4.38c.33 1.04.5 2.19.5 3.43V93h-1.74a1.8 1.8 0 0 1-.88-.18c-.2-.13-.36-.38-.48-.74l-.44-2.12-1.72 1.46a9.48 9.48 0 0 1-3.74 1.7c-.69.15-1.46.23-2.3.23-.87 0-1.69-.12-2.45-.35a5.34 5.34 0 0 1-3.34-2.93 6.64 6.64 0 0 1-.49-2.64c0-.88.25-1.72.73-2.53a6.33 6.33 0 0 1 2.35-2.17c1.09-.63 2.5-1.15 4.25-1.54 1.75-.41 3.89-.65 6.42-.7v-1.75c0-1.73-.37-3.03-1.12-3.91-.75-.9-1.84-1.34-3.28-1.34-.97 0-1.78.12-2.44.37-.64.23-1.2.5-1.7.81l-1.23.82c-.33.23-.67.35-1 .35-.27 0-.5-.07-.69-.2a2.1 2.1 0 0 1-.48-.53l-.7-1.25zm27.67 19.5c-1.76 0-3.12-.5-4.07-1.48-.94-.98-1.41-2.4-1.41-4.25V74h-2.68a.9.9 0 0 1-.6-.2c-.16-.14-.24-.36-.24-.66v-1.56l3.65-.46.9-6.89a.9.9 0 0 1 .29-.52.88.88 0 0 1 .62-.22H142v7.67h6.44V74H142v13.38c0 .94.22 1.63.68 2.09.45.45 1.04.68 1.76.68a3.21 3.21 0 0 0 1.85-.53l.55-.35c.16-.12.3-.18.41-.18.2 0 .4.13.55.38l1.15 1.87a7.45 7.45 0 0 1-2.44 1.5 8.53 8.53 0 0 1-2.95.52zm19.68-10.4c-1.8.07-3.34.21-4.62.45-1.26.22-2.3.51-3.1.88-.8.36-1.37.8-1.74 1.3-.35.5-.53 1.05-.53 1.67 0 .58.1 1.1.3 1.52a2.9 2.9 0 0 0 .76 1.05c.34.27.73.46 1.17.6a6.13 6.13 0 0 0 1.45.17 7.3 7.3 0 0 0 3.5-.81 12.04 12.04 0 0 0 2.82-2.2v-4.62zm-12.65-9.1a12.72 12.72 0 0 1 3.99-2.66c1.42-.59 3-.88 4.72-.88 1.25 0 2.36.2 3.33.61a6.81 6.81 0 0 1 3.94 4.38c.33 1.04.5 2.19.5 3.43V93h-1.74a1.8 1.8 0 0 1-.88-.18c-.2-.13-.36-.38-.48-.74l-.44-2.12-1.72 1.46a9.48 9.48 0 0 1-3.74 1.7c-.69.15-1.46.23-2.3.23-.87 0-1.69-.12-2.45-.35a5.33 5.33 0 0 1-3.34-2.93 6.62 6.62 0 0 1-.49-2.64c0-.88.25-1.72.73-2.53a6.33 6.33 0 0 1 2.35-2.17c1.09-.63 2.5-1.15 4.25-1.54a31.2 31.2 0 0 1 6.42-.7v-1.75c0-1.73-.37-3.03-1.12-3.91-.75-.9-1.84-1.34-3.28-1.34-.97 0-1.78.12-2.44.37-.64.23-1.2.5-1.7.81l-1.22.82c-.34.23-.68.35-1.02.35-.26 0-.49-.07-.68-.2a1.88 1.88 0 0 1-.48-.53l-.7-1.25z" fill="#fff"/><path fill="#D42B21" d="M0 106.79h210V120H0z"/></g><defs><clipPath id="a"><path fill="#fff" d="M0 0h210v120H0z"/></clipPath></defs></svg></g><a href="https://ourworldindata.org/grapher/GDP-vs-manufacturing-employment?time=1801..2010" style="font-family:&quot;Playfair Display&quot;,Georgia,&quot;Times New Roman&quot;,serif" target="_blank" rel="noopener"><text font-size="25.2" x="15" y="35.2" fill="#555"><tspan x="15" y="35.16">GDP per head vs share of industry in employment, 1801 to 2010</tspan></text></a><text font-size="14.4" x="15" y="55.7" fill="#666"><tspan x="15" y="55.72">The vertical axis shows historical estimates of the share of industry in employment. The horizontal axis shows GDP</tspan><tspan x="15" y="73">per head after adjusting for inflation and price differences across countries (figures are in 2011 international-$).</tspan></text></g><g class="ScatterPlot"><g class="DualAxisView"><g class="HorizontalAxis"><text font-size="12.6" x="323.3" y="530.3"><tspan x="323.33" y="530.28">GDP per capita</tspan></text><text x="146" y="510.2" fill="#666" text-anchor="middle" font-size="16.2">$1,000</text><text x="469.6" y="510.2" fill="#666" text-anchor="middle" font-size="16.2">$10,000</text><text x="75.16" y="510.2" fill="#666" text-anchor="start" font-size="16.2">$604</text><text x="243.4" y="510.2" fill="#666" text-anchor="middle" font-size="16.2">$2,000</text><text x="372.2" y="510.2" fill="#666" text-anchor="middle" font-size="16.2">$5,000</text><text x="567" y="510.2" fill="#666" text-anchor="middle" font-size="16.2">$20,000</text><text x="718.09" y="510.2" fill="#666" text-anchor="end" font-size="16.2">$50,000</text></g><g class="VerticalAxis"><text font-size="12.6" x="-421.1" y="25.1" transform="rotate(-90)"><tspan x="-421.11" y="25.08">Share of manufacturing in employment</tspan></text><text x="70.16" y="489" dy=".32em" text-anchor="end" fill="#666" font-size="16.2">0%</text><text x="70.16" y="413.6" dy=".32em" text-anchor="end" fill="#666" font-size="16.2">10%</text><text x="70.16" y="338.1" dy=".32em" text-anchor="end" fill="#666" font-size="16.2">20%</text><text x="70.16" y="262.7" dy=".32em" text-anchor="end" fill="#666" font-size="16.2">30%</text><text x="70.16" y="187.3" dy=".32em" text-anchor="end" fill="#666" font-size="16.2">40%</text><text x="70.16" y="111.8" dy=".32em" text-anchor="end" fill="#666" font-size="16.2">50%</text></g><g class="AxisGridLines horizontalLines"><path stroke="#999" d="M75.16 489h642.93"/><path stroke="#ddd" stroke-dasharray="3,2" d="M75.16 413.6h642.93M75.16 338.1h642.93M75.16 262.7h642.93M75.16 187.3h642.93M75.16 111.8h642.93"/></g><g class="AxisGridLines verticalLines" stroke-dasharray="3,2"><path stroke="#eee" d="M95.9 489V92.2M114.7 489V92.2M131.2 489V92.2"/><path stroke="#ddd" d="M146 489V92.2M243.4 489V92.2"/><path stroke="#eee" d="M300.4 489V92.2M340.8 489V92.2"/><path stroke="#ddd" d="M372.2 489V92.2"/><path stroke="#eee" d="M397.8 489V92.2M419.5 489V92.2M438.2 489V92.2M454.8 489V92.2"/><path stroke="#ddd" d="M469.6 489V92.2M567 489V92.2"/><path stroke="#eee" d="M624 489V92.2M664.4 489V92.2"/><path stroke="#ddd" d="M695.8 489V92.2"/></g></g><g class="PointsWithLabels clickable" clip-path="url(#b)"><path fill="rgba(255,255,255,0)" d="M75.16 92.2h642.93V489H75.16z"/><defs><clipPath id="b"><path d="M65.16 82.2h662.93V499H65.16z"/></clipPath></defs><g class="key-China"><circle cx="152" cy="433" r="1.7" fill="#2D8587" opacity=".7"/><path stroke-width="2" opacity=".7" stroke="#2D8587" fill="none" stroke-linecap="butt" d="m152 433 14-4-14-5 9 1 9-16 1 12-3-129-7 45-8 35-26 35 8 23 15 2 15-2 12-4 1-2h-9l9-3 15-9 4-6-1-6 8-3v-2l7-7-7-7 6-3 14-18 9-2 5-4 2-1 12-2 6-1 13-9 10-8 7-7 9-3 5-1-1 6-2 1h3l8-1 12-5 9-3 9-2 8-4 3-1v1l5 4 8 4 8 1 9 7 8-1 10-6 12-10 13-11 12-12 5-3 9-4 14-7"/><path cx="464" cy="276" r="3.5" fill="#2D8587" opacity=".7" d="M459.3 274.43h7.83l-4.7 6.27z"/></g><g class="key-India"><circle cx="171" cy="401" r="1.6" fill="#2D8587" opacity=".7"/><path stroke-width="1.9" opacity=".7" stroke="#2D8587" fill="none" stroke-linecap="butt" d="m171 401 1-1v-1l4-3 7-1-8 2-2 3 8 3 6-3 4 3-2 1-3 1 3 1-2 1 9 1-1-2 7-2 4-4-10 6 6 2 6-2h1l8-4h2l3 1 3-2 3-1 11-3 6-4 4-2-2 6 4-4 4-5 5-7 6-6 7-3 2-2h5l6-2 2-5 4-5 2-10 8 4 8-2 7 4 10-1 9-8 5-4 9-1 8 4"/><path cx="358" cy="344" r="3.4" fill="#2D8587" opacity=".7" d="m356.48 339.44 4.56 6.08h-7.6z"/></g><g class="key-United-States"><circle cx="314" cy="379" r="1.3" fill="#E04E4B" opacity=".7"/><path stroke-width=".95" opacity=".7" stroke="#E04E4B" fill="none" stroke-linecap="butt" d="m314 379 13-47 27 6 12-49 37 6 9-12 26-7 26-16 7-18 23 17-15 12-11 16-24 17-5-4 10-10 16-4 12-3 9-12-10 18 9-10 10-9 17-21 13-14 11 6 8 15-5 17-15-24-4-15 4-8-6 12 10-6 8-1 3 2 4-4-3 10 7-2v-1 2l-4 12 8-4 1 3 1 4 6-2h10l7-4 7-3 2 5 5 1h3l-1 8 2 6 6-2 7-3-2 4-2 15 6-2 5-2 6-2 3-1-1 8 2 3-4 10 4 5 9-2 4 3 3 4 4 5 5 1 3 3 1 4-2 6 3 3 2 2h4l2 2 3 1h5l4 1 5 2 4 3v9l1 7 3 3h4l3 1 3 1 1 2-2 5-5 10 2 4"/><path cx="693" cy="377" r="2.45" fill="#E04E4B" opacity=".7" d="M694.1 373.71v5.48l-4.39-3.29z"/></g><g class="key-Indonesia"><circle cx="219" cy="428" r="1.3" fill="#2D8587" opacity=".7"/><path stroke-width=".84" opacity=".7" stroke="#2D8587" fill="none" stroke-linecap="butt" d="m219 428 20-15 12-5 16-2 4-3-3-3 8 1 8-4 3-3 4-1 8-4 6-2-8 1 3 2 6-7v-2l6-3 4-3 6-4 9-4 10-4 10 18 7 1 9-12 9-24 9 2 9 2 5-7-22 20v-11h5l4-5 5-1 5 8 6-2h6l7 2h22l7-3"/><path cx="444" cy="351" r="2.34" fill="#2D8587" opacity=".7" d="m440.93 349.77 5.22.3-3.38 4z"/></g><g class="key-Brazil"><circle cx="259" cy="371" r="1.3" fill="#932834" opacity=".7"/><path stroke-width=".76" opacity=".7" stroke="#932834" fill="none" stroke-linecap="butt" d="M259 371h2l6-1h3l6-1h41l8-3 5-3-4-3 1-3-1-3 5-4 2-3 9-3 9-3 10-4 11 12 13 11 14-15 8-5 3-6 11-5 3-4 3 1 6-1 9-3-9-11-3 9-7 8 5 7 7-9 8-12 2 1-3 1h2l-9 5 1 10-2 7h7l7 3 6 2 2-1 5 2v3l6-3 1 3h5l1 1 8-2 4-5 6 3 8-3 8-7v3l11 1"/><path cx="519" cy="338" r="2.26" fill="#932834" opacity=".7" d="m516.95 335.54 4.3 2.66-4.7 1.85z"/></g><g class="key-Nigeria"><circle cx="183" cy="449" r="1.3" fill="#923E8B" opacity=".7"/><path stroke-width=".68" opacity=".7" stroke="#923E8B" fill="none" stroke-linecap="butt" d="m183 449 1-2 4-4 8-3 2-3 5-10h-9l-28 6-5 4 29-7 34-3 11 5 1-6 8-4 11 8-8-3 10-8 1 2-13-3h5l-2-3-16 3-5 3-13 15-9 5h8l-1 4-4 1 9-3 6 1h3l-1-1 3 3 2 3v2l2 3 6 1 3 1 4 3v1l8-1 9-1 18-2 13-1h13l9-2 9-2 10-2 9-2 11-1 15-3"/><path cx="369" cy="443" r="2.18" fill="#923E8B" opacity=".7" d="m366.43 441.29 4.7 1.28-3.84 3z"/></g><g class="key-Japan"><circle cx="210" cy="452" r="1.3" fill="#2D8587" opacity=".7"/><path stroke-width=".61" opacity=".7" stroke="#2D8587" fill="none" stroke-linecap="butt" d="m210 452 12-13 10-29 19-26 13-29 35-27h16l53-35-65 24 35-3 6-3 10 3 9-8 9-11 6-7 11-5 16-7 15-8 11-7 10-3 14-3 6-2 13-1 14-6h15l15-1 13-2 4-2 10-1 8-6-3 3 2 9h4l5 4 6 2h6l3-3 3 1 4 3 2 1 4-1 6-1 3 1 5 2 8-5 6-4h6l4-3h1v3l1 4 3 5 4 3h1l-2 8-1 3 4 2v11l2 4 2 5 3 4h4l-2 6-8 10 6 4"/><path cx="645" cy="315" r="2.11" fill="#2D8587" opacity=".7" d="m644.41 312.07 2.35 4.1-4.69-.58z"/></g><g class="key-Mexico"><circle cx="322" cy="370" r="1.3" fill="#E04E4B" opacity=".7"/><path stroke-width=".58" opacity=".7" stroke="#E04E4B" fill="none" stroke-linecap="butt" d="m322 370 6-2 2-4-4-1h9l7-1 6-4 6-4 3 4v-3l7-1 2-5 2-4 7-5 12-2 4-9 5-3 4-6 7-3 4-4 5-4 1 2 7-6 7-4 3-7 4 3 2-5 1 9 8-6 10-9 9-5 9-4-5 3-8 16 2-2v-3l-7 1-1-1-1 1 3-7 5-7 4 2 4 1 1 5 5 3-11 11 6-8 9-11 6-2 5-1 8-2-1 9 1 7 2 3 5 1 4-8 6-1 4-1h1l-7 9 6-1"/><path cx="523" cy="294" r="2.08" fill="#E04E4B" opacity=".7" d="m520.6 292.29 4.45 1.37-3.76 2.73z"/></g><g class="key-Philippines"><circle cx="294" cy="367" r="1.3" fill="#2D8587" opacity=".7"/><path stroke-width=".52" opacity=".7" stroke="#2D8587" fill="none" stroke-linecap="butt" d="m294 367 4 8 8 10 1-4 4-11h8l4 4h3l4-3 3-3 1 7 1 3-15-3-14 4 1 6 3-10 6-6 5-3 1 6-3-7h-1l1 4 4-3 4 2 6-8h5l-3 8 2 1 5 1 2-1 3 4 5-2h7l5 2 5 4 8-1 4 4v2l9-3"/><path cx="390" cy="379" r="2.02" fill="#2D8587" opacity=".7" d="m387.44 377.72 4.48.64-3.2 3.2z"/></g><g class="key-Ethiopia"><circle cx="100" cy="477" r="1.3" fill="#923E8B" opacity=".7"/><path stroke-width=".51" opacity=".7" stroke="#923E8B" fill="none" stroke-linecap="butt" d="M100 477h17l4-1 5-1 3-1 3-1h-1 2l5-1 3-1h5l-1 2h-3v2l-3 1 6-2 5-1-3 1h-4 2-17l6-1h9l-2-1h-2l-6 1-17 1-19 1-2-5 7-1 2-2 7-2 6-1-5-1-5-2 2-2 2-1 2-2-5-1 1-3 10-5 9-4 8-3 8-6 8-4 8-7"/><path cx="160" cy="423" r="2.01" fill="#923E8B" opacity=".7" d="m157.16 422.81 4.35-1.13-1.7 4.16z"/></g><g class="key-United-Kingdom"><circle cx="315" cy="207" r="1.3" fill="#4C5C78" opacity=".7"/><path stroke-width=".5" opacity=".7" stroke="#4C5C78" fill="none" stroke-linecap="butt" d="m315 207 22-35 19-18 16 25 21-10 8-5 14-4 14-3 7-1-17-26-4 24 12-8 3-7 5-1 6 4-6 6 11-6 1 5 4 1-2 10-8 13v3l4-3 8-6 5-2 6-6 4-5 1 5 10 5 5-2-1-3 4-2-1 3 5-2 5-2 5-3 1 1h2l-1 2 4 1 7-3h4v4l4 4 6-3h5l2 7 5 3h2l3 5 2 5 5 8 9 2-2 1-1 11 4 4 3 1 5 3 3 4-2 7-2 13 2 9 5 7 3 5 5 3 5 5 6 2 7 3 2-1v5l-2 11v10l3 6 5 2h3l3 2 4 3 4-1 4 7 4 5 3 5 3 6 4 5 3 4 3 4 2 3h2l-2 5-7 7 1-4"/><path cx="644" cy="349" r="2" fill="#4C5C78" opacity=".7" d="m641.57 350.46 2.92-3.4.97 4.37z"/></g><g class="key-Netherlands"><circle cx="335" cy="291" r="1.3" fill="#4C5C78" opacity=".7"/><path stroke-width=".5" opacity=".7" stroke="#4C5C78" fill="none" stroke-linecap="butt" d="m335 291-5-36-2-3 53-2 2-7 11-13 19-10 40 5-14-5 21 13 48-20-1-1 7-3 3-3h10l5 3 2 7 5 2 8 3 7 1 6 6 4 6 3 3 5 6 5 4-1 6 5 3 3 3 2 3 2 6 1 9-2 7-2 8 2 6 4 3 3 1 3 2 1 2 3 2 6 1 4 1 3 4 3 5 1 5 4 3 5 4 5 4 6 2 6 2 7 2 5 2 3 2v3l1 4 3 2 3 3 6 2 5 2 3-1-5 2 2 3"/><path cx="677" cy="365" r="2" fill="#4C5C78" opacity=".7" d="m677.55 362.23.56 4.43-3.88-2.21z"/></g><g class="key-Belgium"><circle cx="285" cy="243" r="1.3" fill="#4C5C78" opacity=".7"/><path stroke-width=".5" opacity=".7" stroke="#4C5C78" fill="none" stroke-linecap="butt" d="m285 243 35-28 20-27h28l16-13 12-34 12-26-3-10 32-7-5 1 58-7 53 93 5 3 6 4 8 2 6 3-3 9 8 7 1 8 3 9 4 8 6 6-2 10 2 8v6l3 4 1 5 2 4 4 5 6 4h4l4 1 2 2 2 3-2 6 4 4 4 4 2 3 5 3 2 2 5 3 5 2h1l2 6 1 3 4 3 2 3 3 1 4 2"/><path cx="657" cy="341" r="2" fill="#4C5C78" opacity=".7" d="m656.1 338.32 2.69 3.57h-4.47z"/></g><g class="key-Sweden"><circle cx="221" cy="388" r="1.3" fill="#4C5C78" opacity=".7"/><path stroke-width=".5" opacity=".7" stroke="#4C5C78" fill="none" stroke-linecap="butt" d="m221 388-2-7-3 1 1-1 2 2 8-2-1-5 4 2 1 3 5-6 3-5-6-1h-4l6-3 2-7 3-1-3-1 2 4-13-1 10-1 17-2 5-3 2-1 2-15 5-6-5 3 8-8-3-2-5-9 8-2-4 12 5-3-5 12 10-11-3 6 3-13 1-14-4 13 2-2 2-5 3 3 8 4-2-3 3-1 1-2 6-13 4 7 6-12 4-3 4-7v-5l4 3-2 1 7-12 3-1-3-5 11-4 9 6-4 3 1 1 2-2 4-8 5-4 8-6 3-3 5 5 8-2-9 3-11 3 2-3 9-3-8 6 10 3 4-3 10-12 3-12 7 3 4 1 4-7h8l6-7-4 6-5 8 2 5 9-12 6-10 5-8 3-4 4-3 10-6-11 19-4-3 1-11 4-5 4-4 3-11 13-7 11-3 2 3h4l8-3 5-3v-3l3-2 5-3 3-2 5-2 5-3v-3l3-3 7-2 7 2 5 3 6 1 9 2 4 3 1 6 4 5 4 6 6 6 7 6 1 14 3 2 5-2 4 2 3 4 1 3-3 9 2 5 5 3 2 2v6l1 6 3 5 5 3 2 1h9l2 3 1 6-2 7-2 9-4 6 5 2 5-7h3l4-1 6-1 7 4 6 1 2-1 3 3 4 3 6 4 4 1 6 1 5-2-1-2-7 8 9 2"/><path cx="673" cy="295" r="2" fill="#4C5C78" opacity=".7" d="m671.48 292.61 3.47 2.82-4.34 1.09z"/></g><g class="key-France"><circle cx="284" cy="286" r="1.3" fill="#4C5C78" opacity=".7"/><path stroke-width=".5" opacity=".7" stroke="#4C5C78" fill="none" stroke-linecap="butt" d="m284 286 20 6 20 3 26-21 7-7 6 1 14-29-8 29 45-27v-4 21l-13 7 60-44 43-20 34-17 15 34h17l3 1-2 6 5 5 5 4 3 5 4 4 1 3 1 6 3 5 1 6 1 8 2 5 2 4 3 5 5 3 5 1 2 2 1 4 2 5-1 8 2 6 3 1 1 3 3 3 5 3 4 3 5 2h2l1 3v2l4 3 1 1 3 1 2 1"/><path cx="652" cy="340" r="2" fill="#4C5C78" opacity=".7" d="m651.1 337.32 2.69 3.57h-4.47z"/></g><g class="key-Spain"><circle cx="238" cy="369" r="1.3" fill="#4C5C78" opacity=".7"/><path stroke-width=".5" opacity=".7" stroke="#4C5C78" fill="none" stroke-linecap="butt" d="m238 369 42 25-13-26 17 18 7-20 20-43-3-15 12-12 98-72 44 16 6-3 12-3 10-4 9-2 3-2h5l3-1 2 4 1 2 4 7-2 11 2 7 2 4v8l4 5 5-2 10-1 8-2 9-4 6-2 5 2 3 6-2 9 4 4 6-3 4-1 6-5 7-1 7-4 8-2 6-2 3 1 3 2 3 1 4 1 4 3 4 1"/><path cx="636" cy="274" r="2" fill="#4C5C78" opacity=".7" d="m634.54 271.57 3.4 2.92-4.37.97z"/></g><g class="key-Finland"><circle cx="231" cy="416" r="1.3" fill="#4C5C78" opacity=".7"/><path stroke-width=".5" opacity=".7" stroke="#4C5C78" fill="none" stroke-linecap="butt" d="m231 416 52-41 19 2-5 7 52-15 26-31 40-61 53-27 61-7 2-2 10-6 8-8h4l1 1-1 9v3l2 6 9-1 7-3 2 4 4 5 3 2 3 3 4 3 3 4 5 4 6 2 8-1-1 2-9 10-6 8-1 5 5 2 5-4h5l8-3 7-2 6-1h8l3 3 2 4 3 3 5 4 3-1h12"/><path cx="664" cy="298" r="2" fill="#4C5C78" opacity=".7" d="m662 296 4 2-4 2z"/></g><g class="key-Argentina"><circle cx="437" cy="264" r="1.3" fill="#932834" opacity=".7"/><path stroke-width=".5" opacity=".7" stroke="#932834" fill="none" stroke-linecap="butt" d="m437 264 2-6-10 3 5 18 3-16 7-11 1-1 5-11 6-10-12 16 8-13 8-2-5 15-6 10 12-6 10-1-1 3 2 5 4-6 9-8h5l5 1 2 1 6 1 6-1-4 17-2-11 6-2-9 3 7 5v-15l-11 17-7 31 3-4 1-9-12 9 8-4h1l-4 5-11 5-2 6 12 4 13 1 7 14 7 6h-5l7 3 9 2 5 8-6 10-2 5-7-1-17 12 11-12 11-10 11-3 10-2 12-4 5 2-10 5 13-2"/><path cx="559" cy="336" r="2" fill="#932834" opacity=".7" d="m556.72 334.33 4.26 1.37-3.65 2.58z"/></g><g class="key-Bolivia"><circle cx="300" cy="390" r="1.3" fill="#932834" opacity=".7"/><path stroke-width=".5" opacity=".7" stroke="#932834" fill="none" stroke-linecap="butt" d="m300 390 9-9 2-6h-17v-6l4-6-12 9-8 20 1 6-4-1 3-3-1 9 5-9 5-3 4-3 3-10 7 2 5-7 8 1 3-11 3 3 2-3 4-2 6-8 3-5 6-3 7-4 2-5h1l-3 2-4 3-2 10-8 10-9 7-1-7-3 21-7 10 1 1h2l1-9 4-10 4-19-1-5 3 10 4-15 4-3 3-3 4-13 4 3-2 3 1-10v19l1-19 1-18h4l3 7 4 17 4-17 7 6 2-7 4-1"/><path cx="376" cy="309" r="2" fill="#932834" opacity=".7" d="m373.57 307.54 4.37.97-3.4 2.92z"/></g><g class="key-Chile"><circle cx="395" cy="272" r="1.3" fill="#932834" opacity=".7"/><path stroke-width=".5" opacity=".7" stroke="#932834" fill="none" stroke-linecap="butt" d="m395 272 2 8 6 18 7 3-7-61 2 15-1-6 10 23 4 21-11-34 8 18 2 6h3l6 4-1-13-2-12h12l2 2 2 5 2 3v-1l10-3-4 3-11-10-1-24-21 18 2 4 12 5 9 1 9-3 9 20 6-11-23 35-6 20 6-12v3l5-6 7-13 7-13 12-11 3 5 7 1 13 2 6-4 5 8 11 1 7 2 6-4 2 4-4 25 3 3 2 3h1l3 1 5 2 6 3 6-3 4-1 3-1-5 5 6 5"/><path cx="559" cy="331" r="2" fill="#932834" opacity=".7" d="m558.74 328.18 1.8 4.1-4.36-1.02z"/></g><g class="key-Colombia"><circle cx="319" cy="367" r="1.3" fill="#932834" opacity=".7"/><path stroke-width=".5" opacity=".7" stroke="#932834" fill="none" stroke-linecap="butt" d="M319 367v2l4 2 4-6 5-8 1-2 1-1-1 6 5-3 2 1 2-2 3-2v3l4-1h1l3-4 2-4 4-2 5-4 6-1 4 7 7 8 6 7 5 6v5l3-6 3-1 9-7 5 1 3-7-2 1-1-2 2 1 1 6 5-1 5-7 3-1 1 1 3-12 1-3 3-6 5-3 4 6 5-12 1 19 3 1-2 5-8 13 2-6 1 7 1-11 4 3 6-10 4-10 8-2 7 13 4-9v9l4-9"/><path cx="485" cy="335" r="2" fill="#932834" opacity=".7" d="m482.36 336.02 3.45-2.85.2 4.47z"/></g><g class="key-Costa-Rica"><circle cx="306" cy="372" r="1.3" fill="#E04E4B" opacity=".7"/><path stroke-width=".5" opacity=".7" stroke="#E04E4B" fill="none" stroke-linecap="butt" d="m306 372-1 2 11 1 15-7-4-8h11l-10-6 6-2 12 13-1 3 6-7 1 5 3-6 7-3 2 2 7-12h6l4-1 6-6 5-2h5l5-6 8-11 7-2 3-7-1-2 4-8 8-3 3-3 2-4-1 4-7 12-14 30v-4l6-4-3-18 4-8h2l1 4 5-10 1-7v-7l8 2 6 5 2-2 2 11-3 2 4 1 6 4 2-1 2 8h2l2 9 4 3 3 3h3l8 1 9-3 4 8-4 13 5 7"/><path cx="495" cy="355" r="2" fill="#E04E4B" opacity=".7" d="m495.46 352.21.7 4.42-3.95-2.1z"/></g><g class="key-Denmark"><circle cx="483" cy="234" r="1.3" fill="#4C5C78" opacity=".7"/><path stroke-width=".5" opacity=".7" stroke="#4C5C78" fill="none" stroke-linecap="butt" d="M483 234v1l1 4 6-2 2-5v5h1l10-5 2 2 9-12 3-7 8-3 6-1v1l11-3 5 1 3-1h4l4 1 8 2 2 3 3 10 6 4 4 2-2 9-1 16 9 2 1 3 2 3 5 4-1 6-1 11 4 5 3 2 7-6 5-3 5-3v3l2 6v3l2 2 2 3 3 3 1 3 7 1 4-3 4 3 5 3 4 2 4 3 5 2 2 2 1 4 1 4 4 4 4 1h7-1l-7 9 3 4"/><path cx="674" cy="342" r="2" fill="#4C5C78" opacity=".7" d="m674.4 339.2.8 4.4-4-2z"/></g><g class="key-Germany"><circle cx="402" cy="188" r="1.3" fill="#4C5C78" opacity=".7"/><path stroke-width=".5" opacity=".7" stroke="#4C5C78" fill="none" stroke-linecap="butt" d="m402 188 11-10 11-6 11-9 9-5 14-11h9l7 6 5 2 9-4 10-6 4-1 5 1 3 3 7-6 6-2 3 4v11l7-4 8-5 5-1 3 9 5 4 6 2 1 7v13l7-2 4 2 4 8 6-1 1 4v7l-1 5 3 3h8l3 6 2 8 4 1 4-3-6 3 8 5"/><path cx="608" cy="226" r="2" fill="#4C5C78" opacity=".7" d="m607.36 223.24 2.34 3.82-4.46-.42z"/></g><g class="key-Venezuela"><circle cx="446" cy="341" r="1.3" fill="#932834" opacity=".7"/><path stroke-width=".5" opacity=".7" stroke="#932834" fill="none" stroke-linecap="butt" d="m446 341 9-3 4-4 3 3 7-13 7-8 8-5 10 3-4 3 6-4v18l1 3 7-3 4 1 9-6 3-1-2 2 1-1 3-6 1 3 6-1-1-11-1-10 4-8 4 6 4 2 6-9 4-8-1-10-3 3-7 3-5 6-3 1-12 6-6 14h-3l5-5 1 1 4-5-16 16 6-6 10-14 6-1-2 5-5 18 3 6-2 6 6-17-1 4-11 13 3-2 3 9-15 9-12 6 22-6 12-4 11-14 10-6 5 2-6 2-1 3"/><path cx="545" cy="327" r="2" fill="#932834" opacity=".7" d="m547.53 325.74-3.16 3.16-.63-4.43z"/></g><g class="key-Italy"><circle cx="396" cy="295" r="1.3" fill="#4C5C78" opacity=".7"/><path stroke-width=".5" opacity=".7" stroke="#4C5C78" fill="none" stroke-linecap="butt" d="m396 295 10-6 9-7 6-6 7-4 5-4 8-8 6-1 8-3 6-7 10-9 10-8 9-10 4-3 2 5 6-2 9-3 10-4 7-6 3-6 1 1 3-1 8 1 6-1h-4l8 4 3-1 5 2 7-1 5-1 1 3v5l2 7 3 12 4 7 4 3 4 4h5l4 1 3 1 3 3 3 4-1 2h4l5 1 3 4 3 1h4l3 2 6 4 3 1 1 1h1l2 2h2l3 2 2-1-1 2-8 5 3 5"/><path cx="644" cy="287" r="2" fill="#4C5C78" opacity=".7" d="m644.69 284.26.34 4.45-3.77-2.4z"/></g><g class="key-South-Korea"><circle cx="194" cy="429" r="1.3" fill="#2D8587" opacity=".7"/><path stroke-width=".5" opacity=".7" stroke="#2D8587" fill="none" stroke-linecap="butt" d="m194 429 28-28h9l6-16h12l9-19 15-13 15-3 11 5 11-3 7-3 17-14 10-15 9-13 15-21 14-9 12-14 9-5-4 10 7 9 9-1 16-9 12-12h9l14-9 15-15 14-6 8-1 12-2 12-4 6 7 7 11 10 3h10l8 6 6 9-10 26 13 3 10-5 4 5 8 1 3-1h5l4 5 5 4 6 3h2-1l8-4"/><path cx="631" cy="291" r="2" fill="#2D8587" opacity=".7" d="M628.32 290.1h4.47l-2.68 3.58z"/></g><g class="key-Egypt"><circle cx="210" cy="397" r="1.3" fill="#923E8B" opacity=".7"/><path stroke-width=".5" opacity=".7" stroke="#923E8B" fill="none" stroke-linecap="butt" d="m210 397 5-21 6-7 6-12 6-1 5-2-2 5-5 13-1-9 7-2 6-3h3v-1l1 7 3-4 10-16h18l13 1 6-2 6-2h10l1-17 9-1h11l4 1v5l2-3h1v-1l6 1 5 3 6 1 6-1h8l8-6 8-4 7-2h7l9 3 6 1 5 6 4 4 6 1 6-4 8-6 10-5 9-4 6-5 8 3"/><path cx="479" cy="311" r="2" fill="#923E8B" opacity=".7" d="m477.83 308.43 3.04 3.27-4.44.47z"/></g><g class="key-Ghana"><circle cx="256" cy="366" r="1.3" fill="#923E8B" opacity=".7"/><path stroke-width=".5" opacity=".7" stroke="#923E8B" fill="none" stroke-linecap="butt" d="m256 366 1 2 3 4 1-2-1 11-2 4-4 5-2-11h-2l1-4 10-3h6l-8 8-1-17 6 1-22-7-8-3v-4l10 3-6 12-6-4-2 19-13 14-16 9 4-9 3-12 1-3 3-4 4-3 3-3 1 3 4 4 2-1h1l2 2 4 1h3l4-2 4-1h4l2-2 3 2 3-1h4l4-1h11l2 2 9-3 4 3h7"/><path cx="297" cy="375" r="2" fill="#923E8B" opacity=".7" d="m295 373 4 2-4 2z"/></g><g class="key-Morocco"><circle cx="251" cy="390" r="1.3" fill="#923E8B" opacity=".7"/><path stroke-width=".5" opacity=".7" stroke="#923E8B" fill="none" stroke-linecap="butt" d="m251 390 1-18 2 10 1-4 1 3 2-3 4-5 4-2 4-3 4-2 5-6 4-6v-7l2-2 5-7 6-21 12-10 4-8 1 9 4 1 9 5-6-6 10-2-4 4 2 5 5-4 7 3-7 3 10-8v2l2-7 7 4-5 3-3 2 12 1h-10 14l-4-4 8 2v2l1-1h8l3-1 6-1 5 1 3-1 9-4 4-6 6-4 5 2 4-2"/><path cx="418" cy="297" r="2" fill="#923E8B" opacity=".7" d="M415.32 296.1h4.47l-2.68 3.58z"/></g><g class="key-Peru"><circle cx="364" cy="360" r="1.3" fill="#932834" opacity=".7"/><path stroke-width=".5" opacity=".7" stroke="#932834" fill="none" stroke-linecap="butt" d="m364 360 8-6h6l2 3 6-3 5-4 7-3 2-2-6 3v2l7-6 2-12v3h4l3-13 7 10-2 6-4-1-3 10 4 13 3-5 2-1-3-2-23 2 3 3v6h10l8-6-15-10-21 2-10 9-3-1h5l14-7h7l2-1 7 3-2 8v12l2-3v3l6 2 4 7 6-6 7 2 9-5 10-9 11-2 1 2 10-6"/><path cx="462" cy="357" r="2" fill="#932834" opacity=".7" d="m459.26 356.31 4.45-.34-2.4 3.77z"/></g><g class="key-South-Africa"><circle cx="367" cy="321" r="1.3" fill="#923E8B" opacity=".7"/><path stroke-width=".5" opacity=".7" stroke="#923E8B" fill="none" stroke-linecap="butt" d="m367 321 3-3 4-2 6-4 5-10 4-7 3-3 5-3 2-2 5-4 3-5 4 1-1-1 2-6 4-5-1 5v-3l-4 2h1l2-6 5-11 3-5-5 2-7 4h2l-6-2-3 4-1 1 3 4-1 4-4 3-2 9-3 8 2 3 4 1 6 2 6 11 5 5 2 9 4 6 6-1h5l6 2 4 2 7-6h8l9 3 8-7h5l-1 5 6 8"/><path cx="487" cy="329" r="2" fill="#923E8B" opacity=".7" d="m487.4 326.2.8 4.4-4-2z"/></g><g class="key-Tanzania"><circle cx="102" cy="478" r="1.3" fill="#923E8B" opacity=".7"/><path stroke-width=".5" opacity=".7" stroke="#923E8B" fill="none" stroke-linecap="butt" d="m102 478-6 1 8-1 5-1 3-1h1l13-3 1-2h3l-2-1h4l1-2 5-1h-2l3 1 6-2v1l-3-1-2 1-6 1-2 1-5 3-1-1-4 1v1l2-2 2-1v1l1-2 2-1h1l1 1 5 1h7l5-1 5-2h6l6-1 8-1 9-1 8-3 9-3 9-3 6-3 11-2 7-1h7l9-1"/><path cx="248" cy="448" r="2" fill="#923E8B" opacity=".7" d="m245.8 446.23 4.19 1.55-3.76 2.43z"/></g><g class="key-Thailand"><circle cx="222" cy="451" r="1.3" fill="#2D8587" opacity=".7"/><path stroke-width=".5" opacity=".7" stroke="#2D8587" fill="none" stroke-linecap="butt" d="m222 451 2-2h7l6-2 5-1 7-2 11-1 7-2 7-1 6-2 5-2 3-2 2-2 9-3 3-2 4-3 9-2 10-3 10 5 5-17 3 2 5 3 5-9 5 8 6 3 4-2 5-1 11-3 15 3 15-7 13-16 8-10 10-1 9-13 8-3 8-12 5-7-6 8-13 16 4-6 4-4 3-7 6-8 8 1 7-6 4 2 5-3 6-1v9l-2-9 9 1"/><path cx="510" cy="335" r="2" fill="#2D8587" opacity=".7" d="m508.23 332.8 3.76 2.42-4.2 1.55z"/></g><g class="key-Mauritius"><circle cx="376" cy="296" r="1.3" fill="#923E8B" opacity=".7"/><path stroke-width=".5" opacity=".7" stroke="#923E8B" fill="none" stroke-linecap="butt" d="m376 296-14 53 4-11 9-24 14-35 9-24v-3l26-25 7-3 3-8 2 3-18 17h6l6 16-1 19 5-30 8-14 12-41 13 14 8 3 5-21 9-13h2l4 1 2 3 2 2 2 11 3 5 4 6 4-4 7 6 1 1-2 7 5 11 2 25-1 9 3 3 4-10 4 7v10l3 6"/><path cx="538" cy="268" r="2" fill="#923E8B" opacity=".7" d="M538.9 265.32v4.47l-3.58-2.68z"/></g><g class="key-Taiwan"><circle cx="272" cy="351" r="1.3" fill="#2D8587" opacity=".7"/><path stroke-width=".5" opacity=".7" stroke="#2D8587" fill="none" stroke-linecap="butt" d="m272 351 12-10 10-13 8-2 11-14 8-5 9-7 12-12 14-14 15-14 14-14-1-4 4-5 15-10 11-9 15-13 8-14 7-6h6l3 9 9 2 13-9 5 5h14l19-9 5 2 10 3 6 8 9 5 10 3 7 3 8-1 8 3 6 6 7-6h4l8 3 7 1-3 6 6 6 5 3 7-3 7-4 6-2 8-1-3 7h13"/><path cx="654" cy="225" r="2" fill="#2D8587" opacity=".7" d="m652 223 4 2-4 2z"/></g><g class="key-Botswana"><circle cx="75" cy="458" r="1.3" fill="#923E8B" opacity=".7"/><path stroke-width=".5" opacity=".7" stroke="#923E8B" fill="none" stroke-linecap="butt" d="m75 458 2-5 11 9 11 8 12 3 11-14 10-12 29 2 28-6 22-13 5-5 5-4 7 6 7 1 8-1 12-13 11-6 10-2 6 3 11 5 13-5h7l6-12 7-11 12-18 36-24 5-15 9-6 3 14 1 9 4 8 9 6 7-3 10 11 1-7 13-9 3 1v-1l9 9 7 7 4 3 7 16 12 5 12-8 9 13-10 5 12 2"/><path cx="501" cy="404" r="2" fill="#923E8B" opacity=".7" d="m499.36 401.7 3.61 2.63-4.27 1.31z"/></g><g class="key-Zambia"><circle cx="230" cy="396" r="1.3" fill="#923E8B" opacity=".7"/><path stroke-width=".5" opacity=".7" stroke="#923E8B" fill="none" stroke-linecap="butt" d="m230 396-11-4 6 12-2 3-4-11 2 10-4 3 8-7-5 1 6-2-9 3 4 5-11 2-4 1-8 4 4 2-9 3-8-2-6 2-2 2-4 3-1-1 4 2h-3l8 1-1 6 3 2 1 4-20 1 5 5h9l6-3-1 3 7 3 6-1 7-1 7-3 10-2 10-2 11-2 11-1 12-1 11 2 12-2 14-2"/><path cx="301" cy="434" r="2" fill="#923E8B" opacity=".7" d="m298.74 432.3 4.24 1.42-3.68 2.54z"/></g><g class="key-Malawi"><circle cx="91" cy="446" r="1.3" fill="#923E8B" opacity=".7"/><path stroke-width=".5" opacity=".7" stroke="#923E8B" fill="none" stroke-linecap="butt" d="m91 446 9 4h-5l5-1h-2 15l10-6 7 4 5-1 1-4 1 3 3-1 8-4h2l-4 5-11 9-4 1 2-3h2l6-3-5-3-4 9h-7v-2h6-16l10 3h-12l19 1 10-2 4 1h-2v-2h-3l-10 2-2-2 3-3 2-2v-4l1-6 8-7 5-5 6-3 4-4"/><path cx="158" cy="420" r="2" fill="#923E8B" opacity=".7" d="m155.17 420 4.24-1.41-1.41 4.24z"/></g><g class="key-Kenya"><circle cx="193" cy="455" r="1.3" fill="#923E8B" opacity=".7"/><path stroke-width=".5" opacity=".7" stroke="#923E8B" fill="none" stroke-linecap="butt" d="m193 455 6-3 4-2 2 2h3l-5 3v-1l7 1 6-1 2-1-2-1h2l-4-2h-3l1-1 5-3 3-2 3-1 2-3 2-3-1-3-4-4-2-4 3-5 4-7 5-5v-5l3-5 2-6v-2l4-3-1-4 3-3 5-4 6-5 6-1 7-2-1-1h3l10-2"/><path cx="279" cy="366" r="2" fill="#923E8B" opacity=".7" d="m276.65 364.43 4.31 1.18-3.53 2.74z"/></g><g class="key-Senegal"><circle cx="262" cy="435" r="1.3" fill="#923E8B" opacity=".7"/><path stroke-width=".5" opacity=".7" stroke="#923E8B" fill="none" stroke-linecap="butt" d="M262 435h-5l5 1-12 2 1-5 7 1 9-4-8-1-10 7 5-4-10 3-5-1 15-3-1 2h-11l1 1 2-1 1-2h3l-7 2 1-1-1-1-3-2-3-2-4-2 3-4-2-3v-3l4-5 4-1 1-3 2-3-4-4 5-2 3-5 3-3-1 1 2-4 1 3-1-2 1-3"/><path cx="253" cy="384" r="2" fill="#923E8B" opacity=".7" d="m250.47 385.26 3.16-3.16.63 4.43z"/></g><g class="key-Singapore"><circle cx="412" cy="271" r="1.3" fill="#2D8587" opacity=".7"/><path stroke-width=".5" opacity=".7" stroke="#2D8587" fill="none" stroke-linecap="butt" d="m412 271 13-14 15-23 13 15 6-24 4 18 9-4h8l10-14 11-5 11-4 8-13 3 3 10 5 9-8-2 10 2 5 12-2 12-5 9-3 9 4 6 8 7 9 12 9 12 14 7 15 8-6 9-10-6-8 7-9 10-1-4 14 4 11 4 7 11 2 9-2 10-3 10-5 1-5-2 8 19 8"/><path cx="718" cy="268" r="2" fill="#2D8587" opacity=".7" d="m716.93 265.38 2.91 3.4-4.46.29z"/></g><g class="key-Hong-Kong"><circle cx="491" cy="126" r="1.3" fill="#2D8587" opacity=".7"/><path stroke-width=".5" opacity=".7" stroke="#2D8587" fill="none" stroke-linecap="butt" d="m491 126-3-17 17-4 11 10 7 12 11 12 10 13 10-33 2 4 6 7 12 9-1 40 12 7 15 4 9 13 2 17 3 15 5 14 5 14 5 23 5 13-2 6 2 10 5 8-11 11 1 10 7 5v6l1 8 2 8 10 10 8 3 8 3 7 3 1 5-5 3 7 4"/><path cx="675" cy="402" r="2" fill="#2D8587" opacity=".7" d="m674.26 399.27 2.48 3.72-4.47-.25z"/></g><g class="key-Malaysia"><circle cx="348" cy="369" r="1.3" fill="#2D8587" opacity=".7"/><path stroke-width=".5" opacity=".7" stroke="#2D8587" fill="none" stroke-linecap="butt" d="m348 369 13-22 8-3h9l7-4 8-6 7-4 4-4 5-4 7-3-5 7-1 8 3 1 9-5 9-14 10-13 10-13 9-15 11-6 10-13 11-11 10-10 8-7-14 15h6l9-5-2-3 6 10 5-1 7 16 5 2 6-1 7 12 6-2-4 12h9"/><path cx="556" cy="283" r="2" fill="#2D8587" opacity=".7" d="m554 281 4 2-4 2z"/></g><g class="backgroundLabels" fill="#333" font-weight="400"><text x="468.47" y="273.76" font-size="14.3" fill="#2D8587" style="fill:#fff;stroke:#fff;stroke-linecap:round;stroke-linejoin:round;stroke-width:.25em">China</text><text x="468.47" y="273.76" font-size="14.3" fill="#2D8587">China</text><text x="362.47" y="353.3" font-size="14.13" fill="#2D8587" style="fill:#fff;stroke:#fff;stroke-linecap:round;stroke-linejoin:round;stroke-width:.25em">India</text><text x="362.47" y="353.3" font-size="14.13" fill="#2D8587">India</text><text x="619.45" y="387.76" font-size="12.57" fill="#E04E4B" style="fill:#fff;stroke:#fff;stroke-linecap:round;stroke-linejoin:round;stroke-width:.25em">United States</text><text x="619.45" y="387.76" font-size="12.57" fill="#E04E4B">United States</text><text x="448.6" y="349.03" font-size="12.39" fill="#2D8587" style="fill:#fff;stroke:#fff;stroke-linecap:round;stroke-linejoin:round;stroke-width:.25em">Indonesia</text><text x="448.6" y="349.03" font-size="12.39" fill="#2D8587">Indonesia</text><text x="523.98" y="344.58" font-size="12.25" fill="#932834" style="fill:#fff;stroke:#fff;stroke-linecap:round;stroke-linejoin:round;stroke-width:.25em">Brazil</text><text x="523.98" y="344.58" font-size="12.25" fill="#932834">Brazil</text><text x="373.9" y="442.02" font-size="12.12" fill="#923E8B" style="fill:#fff;stroke:#fff;stroke-linecap:round;stroke-linejoin:round;stroke-width:.25em">Nigeria</text><text x="373.9" y="442.02" font-size="12.12" fill="#923E8B">Nigeria</text><text x="649.16" y="323.78" font-size="12.01" fill="#2D8587" style="fill:#fff;stroke:#fff;stroke-linecap:round;stroke-linejoin:round;stroke-width:.25em">Japan</text><text x="649.16" y="323.78" font-size="12.01" fill="#2D8587">Japan</text><text x="527.93" y="293.18" font-size="11.95" fill="#E04E4B" style="fill:#fff;stroke:#fff;stroke-linecap:round;stroke-linejoin:round;stroke-width:.25em">Mexico</text><text x="527.93" y="293.18" font-size="11.95" fill="#E04E4B">Mexico</text><text x="394.74" y="377.42" font-size="11.86" fill="#2D8587" style="fill:#fff;stroke:#fff;stroke-linecap:round;stroke-linejoin:round;stroke-width:.25em">Philippines</text><text x="394.74" y="377.42" font-size="11.86" fill="#2D8587">Philippines</text><text x="163.76" y="419.71" font-size="11.84" fill="#923E8B" style="fill:#fff;stroke:#fff;stroke-linecap:round;stroke-linejoin:round;stroke-width:.25em">Ethiopia</text><text x="163.76" y="419.71" font-size="11.84" fill="#923E8B">Ethiopia</text><text x="561.6" y="344.15" font-size="11.71" fill="#4C5C78" style="fill:#fff;stroke:#fff;stroke-linecap:round;stroke-linejoin:round;stroke-width:.25em">United Kingdom</text><text x="561.6" y="344.15" font-size="11.71" fill="#4C5C78">United Kingdom</text><text x="677.88" y="301.72" font-size="11.27" fill="#4C5C78" style="fill:#fff;stroke:#fff;stroke-linecap:round;stroke-linejoin:round;stroke-width:.25em">Sweden</text><text x="677.88" y="301.72" font-size="11.27" fill="#4C5C78">Sweden</text><text x="656.47" y="348.09" font-size="11.7" fill="#4C5C78" style="fill:#fff;stroke:#fff;stroke-linecap:round;stroke-linejoin:round;stroke-width:.25em">France</text><text x="656.47" y="348.09" font-size="11.7" fill="#4C5C78">France</text><text x="380.85" y="307.79" font-size="11.28" fill="#932834" style="fill:#fff;stroke:#fff;stroke-linecap:round;stroke-linejoin:round;stroke-width:.25em">Bolivia</text><text x="380.85" y="307.79" font-size="11.28" fill="#932834">Bolivia</text><text x="612.24" y="234.55" font-size="11.8" fill="#4C5C78" style="fill:#fff;stroke:#fff;stroke-linecap:round;stroke-linejoin:round;stroke-width:.25em">Germany</text><text x="612.24" y="234.55" font-size="11.8" fill="#4C5C78">Germany</text><text x="646.57" y="297.13" font-size="11.69" fill="#4C5C78" style="fill:#fff;stroke:#fff;stroke-linecap:round;stroke-linejoin:round;stroke-width:.25em">Italy</text><text x="646.57" y="297.13" font-size="11.69" fill="#4C5C78">Italy</text><text x="483.68" y="318.66" font-size="11.81" fill="#923E8B" style="fill:#fff;stroke:#fff;stroke-linecap:round;stroke-linejoin:round;stroke-width:.25em">Egypt</text><text x="483.68" y="318.66" font-size="11.81" fill="#923E8B">Egypt</text><text x="422.47" y="294.76" font-size="11.51" fill="#923E8B" style="fill:#fff;stroke:#fff;stroke-linecap:round;stroke-linejoin:round;stroke-width:.25em">Morocco</text><text x="422.47" y="294.76" font-size="11.51" fill="#923E8B">Morocco</text><text x="252.97" y="447.45" font-size="11.59" fill="#923E8B" style="fill:#fff;stroke:#fff;stroke-linecap:round;stroke-linejoin:round;stroke-width:.25em">Tanzania</text><text x="252.97" y="447.45" font-size="11.59" fill="#923E8B">Tanzania</text><text x="505.93" y="410.38" font-size="11.13" fill="#923E8B" style="fill:#fff;stroke:#fff;stroke-linecap:round;stroke-linejoin:round;stroke-width:.25em">Botswana</text><text x="505.93" y="410.38" font-size="11.13" fill="#923E8B">Botswana</text><text x="283.9" y="365.02" font-size="11.58" fill="#923E8B" style="fill:#fff;stroke:#fff;stroke-linecap:round;stroke-linejoin:round;stroke-width:.25em">Kenya</text><text x="283.9" y="365.02" font-size="11.58" fill="#923E8B">Kenya</text><text x="671.3" y="275.54" font-size="11.2" fill="#2D8587" style="fill:#fff;stroke:#fff;stroke-linecap:round;stroke-linejoin:round;stroke-width:.25em">Singapore</text><text x="671.3" y="275.54" font-size="11.2" fill="#2D8587">Singapore</text><text x="622.83" y="410.1" font-size="11.24" fill="#2D8587" style="fill:#fff;stroke:#fff;stroke-linecap:round;stroke-linejoin:round;stroke-width:.25em">Hong Kong</text><text x="622.83" y="410.1" font-size="11.24" fill="#2D8587">Hong Kong</text></g></g><g class="ScatterColorLegend clickable" style="cursor:pointer"><g class="legendMark"><path fill="#923E8B" d="M738.09 94h9v9h-9z"/><text font-size="12.6" x="752.1" y="102.3"><tspan x="752.09" y="102.28">Africa</tspan></text></g><g class="legendMark"><path fill="#2D8587" d="M738.09 111.6h9v9h-9z"/><text font-size="12.6" x="752.1" y="119.9"><tspan x="752.09" y="119.88">Asia</tspan></text></g><g class="legendMark"><path fill="#4C5C78" d="M738.09 129.2h9v9h-9z"/><text font-size="12.6" x="752.1" y="137.5"><tspan x="752.09" y="137.48">Europe</tspan></text></g><g class="legendMark"><path fill="#E04E4B" d="M738.09 146.8h9v9h-9z"/><text font-size="12.6" x="752.1" y="155.1"><tspan x="752.09" y="155.08">North America</tspan></text></g><g class="legendMark"><path fill="#932834" d="M738.09 164.4h9v9h-9z"/><text font-size="12.6" x="752.1" y="172.7"><tspan x="752.09" y="172.68">South America</tspan></text></g></g><path stroke="#ccc" d="M738.09 181.2H830"/><g class="clickable"><g class="ConnectedScatterLegend"><text font-size="12.6" x="738.1" y="198.3" fill="#333"><tspan x="738.09" y="198.28">1801</tspan></text><text font-size="12.6" x="806.8" y="198.3" fill="#333"><tspan x="806.78" y="198.28">2010</tspan></text><path stroke="#666" stroke-width="1" d="M771.32 194h30.46"/><circle cx="771.32" cy="194" r="2" fill="#666" stroke="#ccc" stroke-width=".2"/><circle cx="781.47" cy="194" r="2" fill="#666" stroke="#ccc" stroke-width=".2"/><circle cx="791.62" cy="194" r="2" fill="#666" stroke="#ccc" stroke-width=".2"/><path cx="801.78" cy="194" r="3" fill="#666" stroke="#ccc" stroke-width=".2" d="m798.78 191 6 3-6 3z"/></g></g></g><g class="SourcesFooter" style="fill:#777"><g style="fill:#777"><text font-size="12.6" x="15" y="567.9"><tspan x="15" y="567.88">Source: Our World In Data based on Herrendorf et al. (2014) and GGDC-10 (2015), Maddison Project Database, 2020 (Bolt and van Zanden)</tspan></text></g><text font-size="12.6" x="15" y="582.5"><tspan x="15" y="582.48"><a style="fill:#777" class="cclogo" href="http://creativecommons.org/licenses/by/4.0/deed.en_US" target="_blank">CC BY</a></tspan></text></g></svg>