<svg xmlns="http://www.w3.org/2000/svg" version="1.1" style="background-color:#fff;-webkit-font-smoothing:antialiased" width="850" height="600" viewBox="0 0 850 600" font-family="Lato,'Helvetica Neue',Helvetica,Arial,sans-serif" font-size="18" text-rendering="optimizeLegibility"><g class="HeaderView"><g transform="matrix(.29 0 0 .29 774 15)"><svg width="210" height="120" viewBox="0 0 210 120" fill="none" xmlns="http://www.w3.org/2000/svg"><g clip-path="url(#clip0)"><path d="M0 0h210v107.89H0V0z" fill="#002147"/><path d="M40.98 32.25c0 2.36-.38 4.53-1.12 6.51a14.26 14.26 0 01-8.1 8.4c-1.9.78-4.02 1.17-6.34 1.17a16.6 16.6 0 01-6.33-1.17 14.31 14.31 0 01-8.08-8.4 18.29 18.29 0 01-1.12-6.51c0-2.36.38-4.53 1.12-6.5a14.32 14.32 0 018.07-8.44c1.92-.8 4.03-1.19 6.34-1.19 2.32 0 4.43.4 6.34 1.19 1.92.8 3.56 1.9 4.93 3.34a14.87 14.87 0 013.17 5.1 18.1 18.1 0 011.12 6.5zm-4.38 0c0-1.94-.26-3.68-.8-5.22a10.91 10.91 0 00-2.24-3.89 9.68 9.68 0 00-3.52-2.46 11.95 11.95 0 00-4.62-.86c-1.68 0-3.21.28-4.6.86a9.88 9.88 0 00-3.54 2.46 10.91 10.91 0 00-2.24 3.9c-.53 1.53-.8 3.27-.8 5.2 0 1.94.27 3.68.8 5.22a11.17 11.17 0 002.24 3.9 10.01 10.01 0 003.55 2.44c1.38.56 2.9.83 4.6.83 1.7 0 3.24-.27 4.61-.83a9.8 9.8 0 003.52-2.44 11.17 11.17 0 002.25-3.9c.53-1.54.8-3.28.8-5.21zm26.22-6.54V48H60.5c-.56 0-.9-.27-1.05-.81l-.31-2.4a12.45 12.45 0 01-3.26 2.6c-1.2.64-2.58.96-4.13.96-1.22 0-2.3-.2-3.24-.6a6.52 6.52 0 01-2.33-1.7 7.37 7.37 0 01-1.43-2.67c-.3-1.04-.46-2.2-.46-3.45V25.7h3.91v14.22c0 1.68.38 2.99 1.15 3.91.77.93 1.96 1.39 3.54 1.39 1.16 0 2.24-.27 3.23-.82a10.42 10.42 0 002.8-2.28V25.7h3.91zm8.61 4.47a9.94 9.94 0 012.6-3.56 5.64 5.64 0 013.76-1.3c.47 0 .92.05 1.34.15.44.1.83.27 1.17.49l-.3 2.92c-.09.37-.3.55-.66.55-.2 0-.5-.04-.9-.13a6.21 6.21 0 00-3.24.18c-.54.2-1.03.5-1.47.92-.42.4-.81.9-1.17 1.5-.33.58-.64 1.26-.92 2.02V48H67.7V25.71h2.25c.42 0 .72.08.88.25.16.16.27.44.33.83l.26 3.39zm61.16-13.7L122.75 48h-3.82l-7.99-24.05a21.95 21.95 0 01-.42-1.58 38.36 38.36 0 01-.44 1.58L102.05 48h-3.83L88.4 16.47h3.54c.38 0 .7.1.95.29.26.2.43.43.5.73l6.52 21.9c.1.4.2.83.28 1.28.1.46.2.94.29 1.46l.3-1.46c.12-.47.25-.9.38-1.27l7.41-21.91c.1-.25.26-.48.51-.69.27-.22.58-.33.95-.33h1.23c.38 0 .69.1.92.29.24.2.41.43.53.73l7.4 21.9a28.4 28.4 0 01.68 2.62 29.52 29.52 0 01.52-2.61l6.54-21.91c.07-.27.23-.5.48-.7.27-.21.58-.32.95-.32h3.32zm9.35 8.88c1.63 0 3.1.27 4.4.82a9.43 9.43 0 015.46 5.94c.5 1.4.74 2.98.74 4.73 0 1.76-.25 3.34-.74 4.75a9.43 9.43 0 01-5.46 5.92c-1.3.52-2.77.79-4.4.79-1.64 0-3.12-.27-4.44-.8a9.42 9.42 0 01-3.35-2.3c-.92-1-1.63-2.2-2.13-3.61-.49-1.41-.73-3-.73-4.75s.24-3.33.73-4.73c.5-1.43 1.2-2.64 2.13-3.63a9.4 9.4 0 013.35-2.31c1.32-.55 2.8-.82 4.44-.82zm0 19.89c2.2 0 3.84-.73 4.93-2.2 1.08-1.48 1.63-3.54 1.63-6.18 0-2.66-.55-4.72-1.63-6.2-1.09-1.49-2.73-2.23-4.93-2.23-1.12 0-2.09.2-2.93.57a5.7 5.7 0 00-2.06 1.65 7.5 7.5 0 00-1.24 2.67c-.26 1.04-.4 2.22-.4 3.54 0 2.64.55 4.7 1.64 6.18 1.1 1.47 2.76 2.2 4.99 2.2zm17.97-15.07a9.94 9.94 0 012.6-3.56 5.64 5.64 0 013.76-1.3c.47 0 .91.05 1.34.15.44.1.83.27 1.16.49l-.28 2.92c-.09.37-.31.55-.66.55-.2 0-.5-.04-.9-.13a6.2 6.2 0 00-3.24.18c-.54.2-1.03.5-1.47.92-.43.4-.82.9-1.17 1.5a13.1 13.1 0 00-.92 2.02V48h-3.94V25.71h2.24c.43 0 .72.08.88.25.17.16.28.44.33.83l.27 3.39zm15.04-14.59V48h-3.92V15.6h3.92zm19.55 15.43a6.22 6.22 0 00-2.38-2.05 6.7 6.7 0 00-2.86-.6c-2.07 0-3.66.75-4.77 2.23-1.12 1.48-1.68 3.6-1.68 6.33 0 1.46.13 2.7.38 3.74a7.29 7.29 0 001.1 2.56 4.35 4.35 0 001.78 1.45c.7.3 1.5.46 2.4.46 1.29 0 2.41-.3 3.36-.88a9.6 9.6 0 002.67-2.49V31.02zm3.91-15.43V48h-2.33c-.56 0-.9-.27-1.06-.81l-.35-2.71a12.13 12.13 0 01-3.25 2.77 8.28 8.28 0 01-4.23 1.06 7.31 7.31 0 01-6.14-2.9c-.73-.96-1.3-2.15-1.69-3.57a18.35 18.35 0 01.07-9.48 11.29 11.29 0 011.89-3.7 8.7 8.7 0 017.06-3.34 7.96 7.96 0 016.12 2.62V15.59h3.91zM46.61 70.71V93H42.7V70.71h3.91zm.84-7c0 .39-.08.75-.24 1.09a2.81 2.81 0 01-1.52 1.47 2.67 2.67 0 01-2.16 0 2.9 2.9 0 01-1.45-1.47 2.67 2.67 0 010-2.16c.15-.35.35-.65.6-.9.25-.27.53-.47.85-.62a2.67 2.67 0 012.16 0c.35.15.65.35.9.62.27.25.47.55.62.9.16.34.24.7.24 1.08zm7.97 10.24c.49-.54 1-1.04 1.54-1.48a9.85 9.85 0 013.66-1.84 8.96 8.96 0 015.43.35c.94.4 1.72.97 2.33 1.71a7.36 7.36 0 011.43 2.67c.32 1.04.49 2.19.49 3.45V93h-3.94V78.81c0-1.69-.4-3-1.17-3.92-.76-.93-1.93-1.4-3.5-1.4a6.6 6.6 0 00-3.25.83c-1 .56-1.92 1.31-2.77 2.27V93h-3.94V70.71h2.35c.56 0 .9.28 1.04.82l.3 2.42zm57.7 3.3c0 2.36-.37 4.5-1.11 6.44a14.3 14.3 0 01-3.17 4.98 14.1 14.1 0 01-4.93 3.2c-1.9.76-4.02 1.13-6.33 1.13H85.8V61.47h11.77c2.31 0 4.42.39 6.33 1.15a13.8 13.8 0 018.1 8.18 17.75 17.75 0 011.12 6.45zm-4.37 0c0-1.94-.26-3.67-.8-5.2a10.94 10.94 0 00-2.23-3.87 9.57 9.57 0 00-3.53-2.42 12.23 12.23 0 00-4.61-.83h-7.5v24.62h7.5c1.7 0 3.24-.28 4.61-.84a9.7 9.7 0 003.53-2.4 10.94 10.94 0 002.24-3.87c.53-1.53.8-3.26.8-5.2zm19.8 5.72c-1.8.06-3.34.2-4.62.44-1.26.22-2.3.51-3.1.88-.8.36-1.37.8-1.74 1.3-.35.5-.53 1.05-.53 1.67 0 .58.1 1.1.3 1.52a3 3 0 00.76 1.05c.34.27.73.46 1.17.6.45.11.94.17 1.45.17a7.28 7.28 0 003.5-.81 11.95 11.95 0 002.82-2.2v-4.62zm-12.65-9.11a12.73 12.73 0 013.98-2.66c1.43-.59 3-.88 4.73-.88 1.25 0 2.36.2 3.33.61a6.81 6.81 0 013.94 4.38c.33 1.04.5 2.19.5 3.43V93h-1.74a1.8 1.8 0 01-.88-.18c-.2-.13-.36-.38-.48-.74l-.44-2.12c-.59.55-1.16 1.03-1.72 1.46a9.48 9.48 0 01-3.74 1.7c-.69.15-1.46.23-2.3.23-.87 0-1.69-.12-2.45-.35a5.34 5.34 0 01-3.34-2.93 6.64 6.64 0 01-.49-2.64c0-.88.25-1.72.73-2.53a6.33 6.33 0 012.35-2.17c1.09-.63 2.5-1.15 4.25-1.54 1.75-.41 3.89-.65 6.42-.7v-1.75c0-1.73-.37-3.03-1.12-3.91-.75-.9-1.84-1.34-3.28-1.34-.97 0-1.78.12-2.44.37-.64.23-1.2.5-1.7.81l-1.23.82c-.33.23-.67.35-1 .35-.27 0-.5-.07-.69-.2a2.1 2.1 0 01-.48-.53l-.7-1.25zm27.67 19.5c-1.76 0-3.12-.5-4.07-1.48-.94-.98-1.41-2.4-1.41-4.25V74h-2.68a.9.9 0 01-.6-.2c-.16-.14-.24-.36-.24-.66v-1.56l3.65-.46.9-6.89a.9.9 0 01.29-.52.88.88 0 01.62-.22H142v7.67h6.44V74H142v13.38c0 .94.22 1.63.68 2.09.45.45 1.04.68 1.76.68a3.21 3.21 0 001.85-.53l.55-.35c.16-.12.3-.18.41-.18.2 0 .4.13.55.38l1.15 1.87a7.45 7.45 0 01-2.44 1.5c-.96.35-1.94.52-2.95.52zm19.68-10.4c-1.8.07-3.34.21-4.62.45-1.26.22-2.3.51-3.1.88-.8.36-1.37.8-1.74 1.3-.35.5-.53 1.05-.53 1.67 0 .58.1 1.1.3 1.52.18.42.44.77.76 1.05.34.27.73.46 1.17.6.45.11.94.17 1.45.17a7.3 7.3 0 003.5-.81 12.04 12.04 0 002.82-2.2v-4.62zm-12.65-9.1a12.72 12.72 0 013.99-2.66c1.42-.59 3-.88 4.72-.88 1.25 0 2.36.2 3.33.61a6.81 6.81 0 013.94 4.38c.33 1.04.5 2.19.5 3.43V93h-1.74a1.8 1.8 0 01-.88-.18c-.2-.13-.36-.38-.48-.74l-.44-2.12c-.59.55-1.16 1.03-1.72 1.46a9.48 9.48 0 01-3.74 1.7c-.69.15-1.46.23-2.3.23-.87 0-1.69-.12-2.45-.35a5.33 5.33 0 01-3.34-2.93 6.62 6.62 0 01-.49-2.64c0-.88.25-1.72.73-2.53a6.33 6.33 0 012.35-2.17c1.09-.63 2.5-1.15 4.25-1.54a31.2 31.2 0 016.42-.7v-1.75c0-1.73-.37-3.03-1.12-3.91-.75-.9-1.84-1.34-3.28-1.34-.97 0-1.78.12-2.44.37-.64.23-1.2.5-1.7.81-.46.3-.87.57-1.22.82-.34.23-.68.35-1.02.35-.26 0-.49-.07-.68-.2a1.88 1.88 0 01-.48-.53l-.7-1.25z" fill="#fff"/><path fill="#D42B21" d="M0 106.79h210V120H0z"/></g><defs><clipPath id="clip0"><path fill="#fff" d="M0 0h210v120H0z"/></clipPath></defs></svg></g><a href="https://ourworldindata.org/grapher/labor-productivity-per-hour-PennWorldTable?tab=chart&amp;time=1950..2017&amp;country=BRA~DEU~IND~JPN~KOR~GBR~USA&amp;region=World" target="_blank" rel="noopener" font-family="&quot;Playfair Display&quot;,Georgia,&quot;Times New Roman&quot;,serif"><text font-size="25.2" x="15" y="35.2" fill="#555"><tspan x="15" y="35.16">Productivity per hour worked, 1950 to 2017</tspan></text></a><text font-size="14.4" x="15" y="55.7" fill="#666"><tspan x="15" y="55.72">Labor productivity per hour is measured as gross domestic product (GDP) per hour of work.</tspan><tspan x="15" y="73"> GDP is adjusted for price differences between countries (PPP adjustment) and for price changes over time</tspan><tspan x="15" y="90.28">(inflation).</tspan></text></g><g class="LineChart"><defs><clipPath id="a"><path d="M55.36 0h830v897.4h-830z"/></clipPath></defs><g class="DualAxisView"><g class="HorizontalAxis"><path stroke="#ccc" d="M65.4 535.3v4M160.6 535.3v4M255.9 535.3v4M351.1 535.3v4M446.4 535.3v4M541.7 535.3v4M636.9 535.3v4M703.6 535.3v4"/><text x="65.4" y="556.5" fill="#666" text-anchor="middle" font-size="16.2">1950</text><text x="160.6" y="556.5" fill="#666" text-anchor="middle" font-size="16.2">1960</text><text x="255.9" y="556.5" fill="#666" text-anchor="middle" font-size="16.2">1970</text><text x="351.1" y="556.5" fill="#666" text-anchor="middle" font-size="16.2">1980</text><text x="446.4" y="556.5" fill="#666" text-anchor="middle" font-size="16.2">1990</text><text x="541.7" y="556.5" fill="#666" text-anchor="middle" font-size="16.2">2000</text><text x="636.9" y="556.5" fill="#666" text-anchor="middle" font-size="16.2">2010</text><text x="703.6" y="556.5" fill="#666" text-anchor="middle" font-size="16.2">2017</text></g><g class="VerticalAxis" fill="#666" dominant-baseline="middle" text-anchor="end" font-size="16.2"><text x="60.36" y="535.3">0 $/h</text><text x="60.36" y="471.2">10 $/h</text><text x="60.36" y="407.1">20 $/h</text><text x="60.36" y="343.1">30 $/h</text><text x="60.36" y="279">40 $/h</text><text x="60.36" y="214.9">50 $/h</text><text x="60.36" y="150.8">60 $/h</text></g><g class="AxisGridLines horizontalLines"><path stroke="#ccc" d="M65.36 535.3h638.25"/><path stroke="#d3d3d3" stroke-dasharray="3,2" d="M65.36 471.2h638.25M65.36 407.1h638.25M65.36 343.1h638.25M65.36 279h638.25M65.36 214.9h638.25M65.36 150.8h638.25"/></g></g><g clip-path="url(#a)"><g class="LineLabels" cursor="pointer"><g class="legendMark"><g class="indicator"><path d="M707.61 107.8h18v6.75h9" stroke="#999" stroke-width=".5" fill="none"/></g><text font-size="13.5" x="738.6" y="118.6" fill="#00823F"><tspan x="738.61" y="118.6">Germany</tspan></text></g><g class="legendMark"><g class="indicator"><path d="M707.61 115.5h9v14.55h18" stroke="#999" stroke-width=".5" fill="none"/></g><text font-size="13.5" x="738.6" y="134.1" fill="#883039"><tspan x="738.61" y="134.1">United States</tspan></text></g><g class="legendMark"><g class="indicator"><path d="M707.61 224.6h13.5v0h13.5" stroke="#999" stroke-width=".5" fill="none"/></g><text font-size="13.5" x="738.6" y="228.7" fill="#CF0A66"><tspan x="738.61" y="228.65">United Kingdom</tspan></text></g><g class="legendMark"><g class="indicator"><path d="M707.61 257.5h13.5v0h13.5" stroke="#999" stroke-width=".5" fill="none"/></g><text font-size="13.5" x="738.6" y="261.6" fill="#6D3E91"><tspan x="738.61" y="261.55">Japan</tspan></text></g><g class="legendMark"><g class="indicator"><path d="M707.61 317h13.5v0h13.5" stroke="#999" stroke-width=".5" fill="none"/></g><text font-size="13.5" x="738.6" y="321.1" fill="#00847E"><tspan x="738.61" y="321.05">South Korea</tspan></text></g><g class="legendMark"><g class="indicator"><path d="M707.61 430.6h13.5v0h13.5" stroke="#999" stroke-width=".5" fill="none"/></g><text font-size="13.5" x="738.6" y="434.7" fill="#B13507"><tspan x="738.61" y="434.65">Brazil</tspan></text></g><g class="legendMark"><g class="indicator"><path d="M707.61 486.9h13.5v0h13.5" stroke="#999" stroke-width=".5" fill="none"/></g><text font-size="13.5" x="738.6" y="490.9" fill="#3C4E66"><tspan x="738.61" y="490.95">India</tspan></text></g></g><g class="Lines"><g class="key-Brazil_0"><path stroke="#B13507" stroke-linecap="round" d="M65 522h29l10-1 9-1h10l9-1h19l10-1 9-2 10-1 9-1h10l9-1 10-1 9-1 10-2h9l10-2 9-2 10-3h10l9-3 10-1 9-2 10 2h9l10-4 9-1h10l9 1 10 1h9l10 1 9-5h10l9 1 10-1 9 2 10-4 10-1 9-4 10-5 9-9 10-15 9 4 10 2 9 5 10 2 9 1 10 2 9 1 10-1 9-1 10-4 9-7 10-7 9-3 10-12 10-10h9l10-2 9 3 10 3 9 1 10-1" fill="none" stroke-width="1.5"/><g fill="#B13507"><circle cx="65" cy="522" r="2"/><circle cx="75" cy="522" r="2"/><circle cx="84" cy="522" r="2"/><circle cx="94" cy="522" r="2"/><circle cx="104" cy="521" r="2"/><circle cx="113" cy="520" r="2"/><circle cx="123" cy="520" r="2"/><circle cx="132" cy="519" r="2"/><circle cx="142" cy="519" r="2"/><circle cx="151" cy="519" r="2"/><circle cx="161" cy="518" r="2"/><circle cx="170" cy="516" r="2"/><circle cx="180" cy="515" r="2"/><circle cx="189" cy="514" r="2"/><circle cx="199" cy="514" r="2"/><circle cx="208" cy="513" r="2"/><circle cx="218" cy="512" r="2"/><circle cx="227" cy="511" r="2"/><circle cx="237" cy="509" r="2"/><circle cx="246" cy="509" r="2"/><circle cx="256" cy="507" r="2"/><circle cx="265" cy="505" r="2"/><circle cx="275" cy="502" r="2"/><circle cx="285" cy="502" r="2"/><circle cx="294" cy="499" r="2"/><circle cx="304" cy="498" r="2"/><circle cx="313" cy="496" r="2"/><circle cx="323" cy="498" r="2"/><circle cx="332" cy="498" r="2"/><circle cx="342" cy="494" r="2"/><circle cx="351" cy="493" r="2"/><circle cx="361" cy="493" r="2"/><circle cx="370" cy="494" r="2"/><circle cx="380" cy="495" r="2"/><circle cx="389" cy="495" r="2"/><circle cx="399" cy="496" r="2"/><circle cx="408" cy="491" r="2"/><circle cx="418" cy="491" r="2"/><circle cx="427" cy="492" r="2"/><circle cx="437" cy="491" r="2"/><circle cx="446" cy="493" r="2"/><circle cx="456" cy="489" r="2"/><circle cx="466" cy="488" r="2"/><circle cx="475" cy="484" r="2"/><circle cx="485" cy="479" r="2"/><circle cx="494" cy="470" r="2"/><circle cx="504" cy="455" r="2"/><circle cx="513" cy="459" r="2"/><circle cx="523" cy="461" r="2"/><circle cx="532" cy="466" r="2"/><circle cx="542" cy="468" r="2"/><circle cx="551" cy="469" r="2"/><circle cx="561" cy="471" r="2"/><circle cx="570" cy="472" r="2"/><circle cx="580" cy="471" r="2"/><circle cx="589" cy="470" r="2"/><circle cx="599" cy="466" r="2"/><circle cx="608" cy="459" r="2"/><circle cx="618" cy="452" r="2"/><circle cx="627" cy="449" r="2"/><circle cx="637" cy="437" r="2"/><circle cx="647" cy="427" r="2"/><circle cx="656" cy="427" r="2"/><circle cx="666" cy="425" r="2"/><circle cx="675" cy="428" r="2"/><circle cx="685" cy="431" r="2"/><circle cx="694" cy="432" r="2"/><circle cx="704" cy="431" r="2"/></g></g><g class="key-Germany_0"><path stroke="#00823F" stroke-linecap="round" d="M65 508l10-3 9-2 10-2 10-3 9-4 10-3 9-2 10-2 9-4 10-5 9-2 10-3 9-3 10-4 9-4 10-3 9-2 10-5 9-6 10-5 9-5 10-6 10-6 9-5 10-4 9-6 10-5 9-5 10-6 9-2 10 1 9 1 10-2 9-2h10l9-12 10-8 9-8 10-10 9-18 10-20 10-10 9-10 10-10 9-10 10-7 9-11 10-7 9-10 10-5 9-8 10-3 9-12 10-8 9-20 10-1 9-15 10-6 9 14 10-12 10-13 9 1 10-9 9-10 10 3 9-13 10-13" fill="none" stroke-width="1.5"/><g fill="#00823F"><circle cx="65" cy="508" r="2"/><circle cx="75" cy="505" r="2"/><circle cx="84" cy="503" r="2"/><circle cx="94" cy="501" r="2"/><circle cx="104" cy="498" r="2"/><circle cx="113" cy="494" r="2"/><circle cx="123" cy="491" r="2"/><circle cx="132" cy="489" r="2"/><circle cx="142" cy="487" r="2"/><circle cx="151" cy="483" r="2"/><circle cx="161" cy="478" r="2"/><circle cx="170" cy="476" r="2"/><circle cx="180" cy="473" r="2"/><circle cx="189" cy="470" r="2"/><circle cx="199" cy="466" r="2"/><circle cx="208" cy="462" r="2"/><circle cx="218" cy="459" r="2"/><circle cx="227" cy="457" r="2"/><circle cx="237" cy="452" r="2"/><circle cx="246" cy="446" r="2"/><circle cx="256" cy="441" r="2"/><circle cx="265" cy="436" r="2"/><circle cx="275" cy="430" r="2"/><circle cx="285" cy="424" r="2"/><circle cx="294" cy="419" r="2"/><circle cx="304" cy="415" r="2"/><circle cx="313" cy="409" r="2"/><circle cx="323" cy="404" r="2"/><circle cx="332" cy="399" r="2"/><circle cx="342" cy="393" r="2"/><circle cx="351" cy="391" r="2"/><circle cx="361" cy="392" r="2"/><circle cx="370" cy="393" r="2"/><circle cx="380" cy="391" r="2"/><circle cx="389" cy="389" r="2"/><circle cx="399" cy="389" r="2"/><circle cx="408" cy="377" r="2"/><circle cx="418" cy="369" r="2"/><circle cx="427" cy="361" r="2"/><circle cx="437" cy="351" r="2"/><circle cx="446" cy="333" r="2"/><circle cx="456" cy="313" r="2"/><circle cx="466" cy="303" r="2"/><circle cx="475" cy="293" r="2"/><circle cx="485" cy="283" r="2"/><circle cx="494" cy="273" r="2"/><circle cx="504" cy="266" r="2"/><circle cx="513" cy="255" r="2"/><circle cx="523" cy="248" r="2"/><circle cx="532" cy="238" r="2"/><circle cx="542" cy="233" r="2"/><circle cx="551" cy="225" r="2"/><circle cx="561" cy="222" r="2"/><circle cx="570" cy="210" r="2"/><circle cx="580" cy="202" r="2"/><circle cx="589" cy="182" r="2"/><circle cx="599" cy="181" r="2"/><circle cx="608" cy="166" r="2"/><circle cx="618" cy="160" r="2"/><circle cx="627" cy="174" r="2"/><circle cx="637" cy="162" r="2"/><circle cx="647" cy="149" r="2"/><circle cx="656" cy="150" r="2"/><circle cx="666" cy="141" r="2"/><circle cx="675" cy="131" r="2"/><circle cx="685" cy="134" r="2"/><circle cx="694" cy="121" r="2"/><circle cx="704" cy="108" r="2"/></g></g><g class="key-India_0"><path stroke="#3C4E66" stroke-linecap="round" d="M256 525h67l9 1 10 1h28l10 1h19l9-1h10l9-1h29l10-1h9l10-1h9l10-1 9-1 10-1 9-1h19l10-1 9-1h10l9-3 10-2 9-3 10-2 9-2 10-4 10-3 9-2 10-1 9-2 10-2 9-2 10-3" fill="none" stroke-width="1.5"/><g fill="#3C4E66"><circle cx="256" cy="525" r="2"/><circle cx="265" cy="525" r="2"/><circle cx="275" cy="525" r="2"/><circle cx="285" cy="525" r="2"/><circle cx="294" cy="525" r="2"/><circle cx="304" cy="525" r="2"/><circle cx="313" cy="525" r="2"/><circle cx="323" cy="525" r="2"/><circle cx="332" cy="526" r="2"/><circle cx="342" cy="527" r="2"/><circle cx="351" cy="527" r="2"/><circle cx="361" cy="527" r="2"/><circle cx="370" cy="527" r="2"/><circle cx="380" cy="528" r="2"/><circle cx="389" cy="528" r="2"/><circle cx="399" cy="528" r="2"/><circle cx="408" cy="527" r="2"/><circle cx="418" cy="527" r="2"/><circle cx="427" cy="526" r="2"/><circle cx="437" cy="526" r="2"/><circle cx="446" cy="526" r="2"/><circle cx="456" cy="526" r="2"/><circle cx="466" cy="525" r="2"/><circle cx="475" cy="525" r="2"/><circle cx="485" cy="524" r="2"/><circle cx="494" cy="524" r="2"/><circle cx="504" cy="523" r="2"/><circle cx="513" cy="522" r="2"/><circle cx="523" cy="521" r="2"/><circle cx="532" cy="520" r="2"/><circle cx="542" cy="520" r="2"/><circle cx="551" cy="520" r="2"/><circle cx="561" cy="519" r="2"/><circle cx="570" cy="518" r="2"/><circle cx="580" cy="518" r="2"/><circle cx="589" cy="515" r="2"/><circle cx="599" cy="513" r="2"/><circle cx="608" cy="510" r="2"/><circle cx="618" cy="508" r="2"/><circle cx="627" cy="506" r="2"/><circle cx="637" cy="502" r="2"/><circle cx="647" cy="499" r="2"/><circle cx="656" cy="497" r="2"/><circle cx="666" cy="496" r="2"/><circle cx="675" cy="494" r="2"/><circle cx="685" cy="492" r="2"/><circle cx="694" cy="490" r="2"/><circle cx="704" cy="487" r="2"/></g></g><g class="key-Japan_0"><path stroke="#6D3E91" stroke-linecap="round" d="M65 518l10-1 9-2h10l10-1 9-1h10l9-1 10-1 9-2 10-3 9-2 10-3 9-3 10-3 9-3 10-3 9-3 10-6 9-6 10-7 9-3 10-6 10-5 9-2 10-6 9-4 10-4 9-7 10-5 9-6 10 1 9 3 10 3 9 1 10-4 9-9 10-8 9-11 10-10 9-11 10-9 10-8 9-8 10-8 9-10 10-10 9-3 10-1 9-6 10-6 9-1 10-4 9-3 10-4 9-6h10l9-4 10 2 9 2 10-9 10 3 9-2 10-6 9-2 10-8 9-3 10-2" fill="none" stroke-width="1.5"/><g fill="#6D3E91"><circle cx="65" cy="518" r="2"/><circle cx="75" cy="517" r="2"/><circle cx="84" cy="515" r="2"/><circle cx="94" cy="515" r="2"/><circle cx="104" cy="514" r="2"/><circle cx="113" cy="513" r="2"/><circle cx="123" cy="513" r="2"/><circle cx="132" cy="512" r="2"/><circle cx="142" cy="511" r="2"/><circle cx="151" cy="509" r="2"/><circle cx="161" cy="506" r="2"/><circle cx="170" cy="504" r="2"/><circle cx="180" cy="501" r="2"/><circle cx="189" cy="498" r="2"/><circle cx="199" cy="495" r="2"/><circle cx="208" cy="492" r="2"/><circle cx="218" cy="489" r="2"/><circle cx="227" cy="486" r="2"/><circle cx="237" cy="480" r="2"/><circle cx="246" cy="474" r="2"/><circle cx="256" cy="467" r="2"/><circle cx="265" cy="464" r="2"/><circle cx="275" cy="458" r="2"/><circle cx="285" cy="453" r="2"/><circle cx="294" cy="451" r="2"/><circle cx="304" cy="445" r="2"/><circle cx="313" cy="441" r="2"/><circle cx="323" cy="437" r="2"/><circle cx="332" cy="430" r="2"/><circle cx="342" cy="425" r="2"/><circle cx="351" cy="419" r="2"/><circle cx="361" cy="420" r="2"/><circle cx="370" cy="423" r="2"/><circle cx="380" cy="426" r="2"/><circle cx="389" cy="427" r="2"/><circle cx="399" cy="423" r="2"/><circle cx="408" cy="414" r="2"/><circle cx="418" cy="406" r="2"/><circle cx="427" cy="395" r="2"/><circle cx="437" cy="385" r="2"/><circle cx="446" cy="374" r="2"/><circle cx="456" cy="365" r="2"/><circle cx="466" cy="357" r="2"/><circle cx="475" cy="349" r="2"/><circle cx="485" cy="341" r="2"/><circle cx="494" cy="331" r="2"/><circle cx="504" cy="321" r="2"/><circle cx="513" cy="318" r="2"/><circle cx="523" cy="317" r="2"/><circle cx="532" cy="311" r="2"/><circle cx="542" cy="305" r="2"/><circle cx="551" cy="304" r="2"/><circle cx="561" cy="300" r="2"/><circle cx="570" cy="297" r="2"/><circle cx="580" cy="293" r="2"/><circle cx="589" cy="287" r="2"/><circle cx="599" cy="287" r="2"/><circle cx="608" cy="283" r="2"/><circle cx="618" cy="285" r="2"/><circle cx="627" cy="287" r="2"/><circle cx="637" cy="278" r="2"/><circle cx="647" cy="281" r="2"/><circle cx="656" cy="279" r="2"/><circle cx="666" cy="273" r="2"/><circle cx="675" cy="271" r="2"/><circle cx="685" cy="263" r="2"/><circle cx="694" cy="260" r="2"/><circle cx="704" cy="258" r="2"/></g></g><g class="key-South-Korea_0"><path stroke="#00847E" stroke-linecap="round" d="M94 526h19l10-1h38l9-1 10 1 9-1 10-1h9l10-1h9l10-1 9-1 10-1 9-2 10-1 10-3 9-3 10-2h9l10-2 9-1 10-2 9 2 10-1 9-1 10-4 9-3 10-1 9-5 10-5 9-7 10-5 9-8 10-7 10-5 9-7 10-8 9-10 10-10 9 2 10 4 9-9 10-4 9-1 10-8 9-7 10-8 9-11 10-4 9-11 10-7h9l10-14 10-3 9 1 10-1 9-5 10-6 9-5 10-4" fill="none" stroke-width="1.5"/><g fill="#00847E"><circle cx="94" cy="526" r="2"/><circle cx="104" cy="526" r="2"/><circle cx="113" cy="526" r="2"/><circle cx="123" cy="525" r="2"/><circle cx="132" cy="525" r="2"/><circle cx="142" cy="525" r="2"/><circle cx="151" cy="525" r="2"/><circle cx="161" cy="525" r="2"/><circle cx="170" cy="524" r="2"/><circle cx="180" cy="525" r="2"/><circle cx="189" cy="524" r="2"/><circle cx="199" cy="523" r="2"/><circle cx="208" cy="523" r="2"/><circle cx="218" cy="522" r="2"/><circle cx="227" cy="522" r="2"/><circle cx="237" cy="521" r="2"/><circle cx="246" cy="520" r="2"/><circle cx="256" cy="519" r="2"/><circle cx="265" cy="517" r="2"/><circle cx="275" cy="516" r="2"/><circle cx="285" cy="513" r="2"/><circle cx="294" cy="510" r="2"/><circle cx="304" cy="508" r="2"/><circle cx="313" cy="508" r="2"/><circle cx="323" cy="506" r="2"/><circle cx="332" cy="505" r="2"/><circle cx="342" cy="503" r="2"/><circle cx="351" cy="505" r="2"/><circle cx="361" cy="504" r="2"/><circle cx="370" cy="503" r="2"/><circle cx="380" cy="499" r="2"/><circle cx="389" cy="496" r="2"/><circle cx="399" cy="495" r="2"/><circle cx="408" cy="490" r="2"/><circle cx="418" cy="485" r="2"/><circle cx="427" cy="478" r="2"/><circle cx="437" cy="473" r="2"/><circle cx="446" cy="465" r="2"/><circle cx="456" cy="458" r="2"/><circle cx="466" cy="453" r="2"/><circle cx="475" cy="446" r="2"/><circle cx="485" cy="438" r="2"/><circle cx="494" cy="428" r="2"/><circle cx="504" cy="418" r="2"/><circle cx="513" cy="420" r="2"/><circle cx="523" cy="424" r="2"/><circle cx="532" cy="415" r="2"/><circle cx="542" cy="411" r="2"/><circle cx="551" cy="410" r="2"/><circle cx="561" cy="402" r="2"/><circle cx="570" cy="395" r="2"/><circle cx="580" cy="387" r="2"/><circle cx="589" cy="376" r="2"/><circle cx="599" cy="372" r="2"/><circle cx="608" cy="361" r="2"/><circle cx="618" cy="354" r="2"/><circle cx="627" cy="354" r="2"/><circle cx="637" cy="340" r="2"/><circle cx="647" cy="337" r="2"/><circle cx="656" cy="338" r="2"/><circle cx="666" cy="337" r="2"/><circle cx="675" cy="332" r="2"/><circle cx="685" cy="326" r="2"/><circle cx="694" cy="321" r="2"/><circle cx="704" cy="317" r="2"/></g></g><g class="key-United-Kingdom_0"><path stroke="#CF0A66" stroke-linecap="round" d="M65 476l10-1h9l10-3 10-1 9-2 10-2 9-2 10-2 9-4 10-2 9-3 10-2 9-3 10-5 9-2 10-4 9-5 10-5 9-3 10-5 9-6 10-2 10-6 9 4h10l9-8 10-5 9-9 10-7 9-6 10-4 9-4 10-6 9 2 10-1 9-1 10-4 9 1 10 2 9-2 10-2 10-4 9-7 10-3 9-18 10-11 9-9 10-4 9-7 10-14 9-3 10-2 9-4 10-5 9-15 10-3 9 4 10-7 9 14 10-15 10-3 9-1 10-9 9 5 10-6 9 3 10-7" fill="none" stroke-width="1.5"/><g fill="#CF0A66"><circle cx="65" cy="476" r="2"/><circle cx="75" cy="475" r="2"/><circle cx="84" cy="475" r="2"/><circle cx="94" cy="472" r="2"/><circle cx="104" cy="471" r="2"/><circle cx="113" cy="469" r="2"/><circle cx="123" cy="467" r="2"/><circle cx="132" cy="465" r="2"/><circle cx="142" cy="463" r="2"/><circle cx="151" cy="459" r="2"/><circle cx="161" cy="457" r="2"/><circle cx="170" cy="454" r="2"/><circle cx="180" cy="452" r="2"/><circle cx="189" cy="449" r="2"/><circle cx="199" cy="444" r="2"/><circle cx="208" cy="442" r="2"/><circle cx="218" cy="438" r="2"/><circle cx="227" cy="433" r="2"/><circle cx="237" cy="428" r="2"/><circle cx="246" cy="425" r="2"/><circle cx="256" cy="420" r="2"/><circle cx="265" cy="414" r="2"/><circle cx="275" cy="412" r="2"/><circle cx="285" cy="406" r="2"/><circle cx="294" cy="410" r="2"/><circle cx="304" cy="410" r="2"/><circle cx="313" cy="402" r="2"/><circle cx="323" cy="397" r="2"/><circle cx="332" cy="388" r="2"/><circle cx="342" cy="381" r="2"/><circle cx="351" cy="375" r="2"/><circle cx="361" cy="371" r="2"/><circle cx="370" cy="367" r="2"/><circle cx="380" cy="361" r="2"/><circle cx="389" cy="363" r="2"/><circle cx="399" cy="362" r="2"/><circle cx="408" cy="361" r="2"/><circle cx="418" cy="357" r="2"/><circle cx="427" cy="358" r="2"/><circle cx="437" cy="360" r="2"/><circle cx="446" cy="358" r="2"/><circle cx="456" cy="356" r="2"/><circle cx="466" cy="352" r="2"/><circle cx="475" cy="345" r="2"/><circle cx="485" cy="342" r="2"/><circle cx="494" cy="324" r="2"/><circle cx="504" cy="313" r="2"/><circle cx="513" cy="304" r="2"/><circle cx="523" cy="300" r="2"/><circle cx="532" cy="293" r="2"/><circle cx="542" cy="279" r="2"/><circle cx="551" cy="276" r="2"/><circle cx="561" cy="274" r="2"/><circle cx="570" cy="270" r="2"/><circle cx="580" cy="265" r="2"/><circle cx="589" cy="250" r="2"/><circle cx="599" cy="247" r="2"/><circle cx="608" cy="251" r="2"/><circle cx="618" cy="244" r="2"/><circle cx="627" cy="258" r="2"/><circle cx="637" cy="243" r="2"/><circle cx="647" cy="240" r="2"/><circle cx="656" cy="239" r="2"/><circle cx="666" cy="230" r="2"/><circle cx="675" cy="235" r="2"/><circle cx="685" cy="229" r="2"/><circle cx="694" cy="232" r="2"/><circle cx="704" cy="225" r="2"/></g></g><g class="key-United-States_0"><path stroke="#883039" stroke-linecap="round" d="M65 419l10-2 9-2 10-5 10-3 9-5 10-1 9-4 10-4 9-5 10-3 9-5 10-5 9-6 10-6 9-5 10-5 9-2 10-6 9-1 10-4 9-8 10-6 10-6 9 3 10-5 9-6 10-3 9-3 10-2h9l10-5 9 2 10-6 9-7 10-2 9-5 10-2 9-3 10-2 9-4 10-3 10-11 9-3 10-3 9-2 10-7 9-5 10-7 9-9 10-8 9-7 10-8 9-12 10-9 9-8 10-4 9-4 10-4 9-11 10-11 10-1 9-3 10-3 9-3 10-2 9-1 10-5" fill="none" stroke-width="1.5"/><g fill="#883039"><circle cx="65" cy="419" r="2"/><circle cx="75" cy="417" r="2"/><circle cx="84" cy="415" r="2"/><circle cx="94" cy="410" r="2"/><circle cx="104" cy="407" r="2"/><circle cx="113" cy="402" r="2"/><circle cx="123" cy="401" r="2"/><circle cx="132" cy="397" r="2"/><circle cx="142" cy="393" r="2"/><circle cx="151" cy="388" r="2"/><circle cx="161" cy="385" r="2"/><circle cx="170" cy="380" r="2"/><circle cx="180" cy="375" r="2"/><circle cx="189" cy="369" r="2"/><circle cx="199" cy="363" r="2"/><circle cx="208" cy="358" r="2"/><circle cx="218" cy="353" r="2"/><circle cx="227" cy="351" r="2"/><circle cx="237" cy="345" r="2"/><circle cx="246" cy="344" r="2"/><circle cx="256" cy="340" r="2"/><circle cx="265" cy="332" r="2"/><circle cx="275" cy="326" r="2"/><circle cx="285" cy="320" r="2"/><circle cx="294" cy="323" r="2"/><circle cx="304" cy="318" r="2"/><circle cx="313" cy="312" r="2"/><circle cx="323" cy="309" r="2"/><circle cx="332" cy="306" r="2"/><circle cx="342" cy="304" r="2"/><circle cx="351" cy="304" r="2"/><circle cx="361" cy="299" r="2"/><circle cx="370" cy="301" r="2"/><circle cx="380" cy="295" r="2"/><circle cx="389" cy="288" r="2"/><circle cx="399" cy="286" r="2"/><circle cx="408" cy="281" r="2"/><circle cx="418" cy="279" r="2"/><circle cx="427" cy="276" r="2"/><circle cx="437" cy="274" r="2"/><circle cx="446" cy="270" r="2"/><circle cx="456" cy="267" r="2"/><circle cx="466" cy="256" r="2"/><circle cx="475" cy="253" r="2"/><circle cx="485" cy="250" r="2"/><circle cx="494" cy="248" r="2"/><circle cx="504" cy="241" r="2"/><circle cx="513" cy="236" r="2"/><circle cx="523" cy="229" r="2"/><circle cx="532" cy="220" r="2"/><circle cx="542" cy="212" r="2"/><circle cx="551" cy="205" r="2"/><circle cx="561" cy="197" r="2"/><circle cx="570" cy="185" r="2"/><circle cx="580" cy="176" r="2"/><circle cx="589" cy="168" r="2"/><circle cx="599" cy="164" r="2"/><circle cx="608" cy="160" r="2"/><circle cx="618" cy="156" r="2"/><circle cx="627" cy="145" r="2"/><circle cx="637" cy="134" r="2"/><circle cx="647" cy="133" r="2"/><circle cx="656" cy="130" r="2"/><circle cx="666" cy="127" r="2"/><circle cx="675" cy="124" r="2"/><circle cx="685" cy="122" r="2"/><circle cx="694" cy="121" r="2"/><circle cx="704" cy="116" r="2"/></g></g></g></g></g><g class="SourcesFooter" fill="#777"><g class="clickable" fill="#777"><text font-size="12.6" x="15" y="581.6"><tspan x="15" y="581.58">Source: based on Feenstra et al. (2015) Penn World Tables 9.1</tspan></text></g><text font-size="12.6" x="570.4" y="581.6"><tspan x="570.4" y="581.58"><a target="_blank" href="https://ourworldindata.org/economic-growth" fill="#777">OurWorldInData.org/economic-growth</a> • <a class="cclogo" href="http://creativecommons.org/licenses/by/4.0/deed.en_US" target="_blank" fill="#777">CC BY</a></tspan></text></g></svg>