<svg xmlns="http://www.w3.org/2000/svg" version="1.1" style="background-color:#fff;-webkit-font-smoothing:antialiased" width="850" height="600" viewBox="0 0 850 600" font-family="Lato,'Helvetica Neue',Helvetica,Arial,sans-serif" font-size="18" text-rendering="geometricPrecision"><g class="HeaderView"><g transform="matrix(.29 0 0 .29 774 15)"><svg className="owidLog" width="210" height="120" viewBox="0 0 210 120" fill="none" xmlns="http://www.w3.org/2000/svg"><g clip-path="url(#clip0)"><path d="M0 0h210v107.89H0V0z" fill="#002147"/><path d="M40.98 32.25c0 2.36-.38 4.53-1.12 6.51a14.26 14.26 0 01-8.1 8.4c-1.9.78-4.02 1.17-6.34 1.17a16.6 16.6 0 01-6.33-1.17 14.31 14.31 0 01-8.08-8.4 18.29 18.29 0 01-1.12-6.51c0-2.36.38-4.53 1.12-6.5.75-1.97 1.8-3.67 3.17-5.1a14.32 14.32 0 014.9-3.34c1.92-.8 4.03-1.19 6.34-1.19 2.32 0 4.43.4 6.34 1.19 1.92.8 3.56 1.9 4.93 3.34a14.87 14.87 0 013.17 5.1 18.1 18.1 0 011.12 6.5zm-4.38 0c0-1.94-.26-3.68-.8-5.22a10.91 10.91 0 00-2.24-3.89 9.68 9.68 0 00-3.52-2.46 11.95 11.95 0 00-4.62-.86c-1.68 0-3.21.28-4.6.86a9.88 9.88 0 00-3.54 2.46 10.91 10.91 0 00-2.24 3.9c-.53 1.53-.8 3.27-.8 5.2 0 1.94.27 3.68.8 5.22a11.17 11.17 0 002.24 3.9 10.01 10.01 0 003.55 2.44c1.38.56 2.9.83 4.6.83s3.24-.27 4.61-.83a9.8 9.8 0 003.52-2.44 11.17 11.17 0 002.25-3.9c.53-1.54.8-3.28.8-5.21zm26.22-6.54V48H60.5c-.56 0-.9-.27-1.05-.81l-.31-2.4a12.45 12.45 0 01-3.26 2.6c-1.2.64-2.58.96-4.13.96-1.22 0-2.3-.2-3.24-.6a6.52 6.52 0 01-2.33-1.7 7.37 7.37 0 01-1.43-2.67c-.3-1.04-.46-2.2-.46-3.45V25.7h3.91v14.22c0 1.68.38 2.99 1.15 3.91.77.93 1.96 1.39 3.54 1.39 1.16 0 2.24-.27 3.23-.82a10.42 10.42 0 002.8-2.28V25.7h3.91zm8.61 4.47a9.94 9.94 0 012.6-3.56 5.64 5.64 0 013.76-1.3c.47 0 .92.05 1.34.15.44.1.83.27 1.17.49l-.3 2.92c-.09.37-.3.55-.66.55-.2 0-.5-.04-.9-.13a6.21 6.21 0 00-3.24.18 4.23 4.23 0 00-1.47.92c-.42.4-.81.9-1.17 1.5-.33.58-.64 1.26-.92 2.02V48H67.7V25.71h2.25c.42 0 .72.08.88.25.16.16.27.44.33.83l.26 3.39zm61.16-13.7L122.75 48h-3.82l-7.99-24.05a21.95 21.95 0 01-.42-1.58 38.36 38.36 0 01-.44 1.58L102.05 48h-3.83L88.4 16.47h3.54c.38 0 .7.1.95.29.26.2.43.43.5.73l6.52 21.9.28 1.28.29 1.46.3-1.46.38-1.27 7.41-21.91c.1-.25.26-.48.51-.69.27-.22.58-.33.95-.33h1.23c.38 0 .69.1.92.29a1.77 1.77 0 01.53.73l7.4 21.9a28.4 28.4 0 01.68 2.62 29.52 29.52 0 01.52-2.61l6.54-21.91a1.31 1.31 0 01.48-.7c.27-.21.58-.32.95-.32h3.32zm9.35 8.88c1.63 0 3.1.27 4.4.82a9.43 9.43 0 015.46 5.94c.5 1.4.74 2.98.74 4.73 0 1.76-.25 3.34-.74 4.75a9.43 9.43 0 01-5.46 5.92c-1.3.52-2.77.79-4.4.79-1.64 0-3.12-.27-4.44-.8a9.42 9.42 0 01-3.35-2.3c-.92-1-1.63-2.2-2.13-3.61-.49-1.41-.73-3-.73-4.75s.24-3.33.73-4.73c.5-1.43 1.2-2.64 2.13-3.63a9.4 9.4 0 013.35-2.31c1.32-.55 2.8-.82 4.44-.82zm0 19.89c2.2 0 3.84-.73 4.93-2.2 1.08-1.48 1.63-3.54 1.63-6.18 0-2.66-.55-4.72-1.63-6.2-1.09-1.49-2.73-2.23-4.93-2.23-1.12 0-2.09.2-2.93.57a5.71 5.71 0 00-2.06 1.65 7.5 7.5 0 00-1.24 2.67c-.26 1.04-.4 2.22-.4 3.54 0 2.64.55 4.7 1.64 6.18 1.1 1.47 2.76 2.2 4.99 2.2zm17.97-15.07a9.94 9.94 0 012.6-3.56 5.64 5.64 0 013.76-1.3c.47 0 .91.05 1.34.15.44.1.83.27 1.16.49l-.28 2.92c-.09.37-.31.55-.66.55-.2 0-.5-.04-.9-.13a6.2 6.2 0 00-3.24.18 4.23 4.23 0 00-1.47.92c-.43.4-.82.9-1.17 1.5a13.1 13.1 0 00-.92 2.02V48h-3.94V25.71h2.24c.43 0 .72.08.88.25.17.16.28.44.33.83l.27 3.39zm15.04-14.59V48h-3.92V15.6h3.92zm19.55 15.43a6.22 6.22 0 00-2.38-2.05 6.7 6.7 0 00-2.86-.6c-2.07 0-3.66.75-4.77 2.23-1.12 1.48-1.68 3.6-1.68 6.33 0 1.46.13 2.7.38 3.74a7.29 7.29 0 001.1 2.56 4.35 4.35 0 001.78 1.45c.7.3 1.5.46 2.4.46 1.29 0 2.41-.3 3.36-.88a9.6 9.6 0 002.67-2.49V31.02zm3.91-15.43V48h-2.33c-.56 0-.9-.27-1.06-.81l-.35-2.71a12.13 12.13 0 01-3.25 2.77 8.28 8.28 0 01-4.23 1.06 7.31 7.31 0 01-6.14-2.9c-.73-.96-1.3-2.15-1.69-3.57a18.35 18.35 0 01.07-9.48 11.29 11.29 0 011.89-3.7 8.7 8.7 0 017.06-3.34 7.96 7.96 0 016.12 2.62V15.59h3.91zM46.61 70.71V93H42.7V70.71h3.91zm.84-7c0 .39-.08.75-.24 1.09a2.81 2.81 0 01-1.52 1.47 2.67 2.67 0 01-2.16 0 2.9 2.9 0 01-1.45-1.47 2.67 2.67 0 010-2.16c.15-.35.35-.65.6-.9.25-.27.53-.47.85-.62a2.67 2.67 0 012.16 0c.35.15.65.35.9.62.27.25.47.55.62.9.16.34.24.7.24 1.08zm7.97 10.24c.49-.54 1-1.04 1.54-1.48a9.85 9.85 0 013.66-1.84 8.96 8.96 0 015.43.35c.94.4 1.72.97 2.33 1.71a7.36 7.36 0 011.43 2.67c.32 1.04.49 2.19.49 3.45V93h-3.94V78.81c0-1.69-.4-3-1.17-3.92-.76-.93-1.93-1.4-3.5-1.4a6.6 6.6 0 00-3.25.83c-1 .56-1.92 1.31-2.77 2.27V93h-3.94V70.71h2.35c.56 0 .9.28 1.04.82l.3 2.42zm57.7 3.3c0 2.36-.37 4.5-1.11 6.44a14.3 14.3 0 01-3.17 4.98 14.1 14.1 0 01-4.93 3.2c-1.9.76-4.02 1.13-6.33 1.13H85.8V61.47h11.77c2.31 0 4.42.39 6.33 1.15a13.8 13.8 0 018.1 8.18 17.75 17.75 0 011.12 6.45zm-4.37 0c0-1.94-.26-3.67-.8-5.2a10.94 10.94 0 00-2.23-3.87 9.57 9.57 0 00-3.53-2.42 12.23 12.23 0 00-4.61-.83h-7.5v24.62h7.5c1.7 0 3.24-.28 4.61-.84a9.7 9.7 0 003.53-2.4 10.94 10.94 0 002.24-3.87c.53-1.53.8-3.26.8-5.2zm19.8 5.72c-1.8.06-3.34.2-4.62.44-1.26.22-2.3.51-3.1.88-.8.36-1.37.8-1.74 1.3-.35.5-.53 1.05-.53 1.67 0 .58.1 1.1.3 1.52a3 3 0 00.76 1.05c.34.27.73.46 1.17.6a6.13 6.13 0 001.45.17 7.28 7.28 0 003.5-.81 11.95 11.95 0 002.82-2.2v-4.62zm-12.65-9.11a12.73 12.73 0 013.98-2.66c1.43-.59 3-.88 4.73-.88 1.25 0 2.36.2 3.33.61a6.81 6.81 0 013.94 4.38c.33 1.04.5 2.19.5 3.43V93h-1.74a1.8 1.8 0 01-.88-.18c-.2-.13-.36-.38-.48-.74l-.44-2.12-1.72 1.46a9.48 9.48 0 01-3.74 1.7c-.69.15-1.46.23-2.3.23-.87 0-1.69-.12-2.45-.35a5.34 5.34 0 01-3.34-2.93 6.64 6.64 0 01-.49-2.64c0-.88.25-1.72.73-2.53a6.33 6.33 0 012.35-2.17c1.09-.63 2.5-1.15 4.25-1.54 1.75-.41 3.89-.65 6.42-.7v-1.75c0-1.73-.37-3.03-1.12-3.91-.75-.9-1.84-1.34-3.28-1.34-.97 0-1.78.12-2.44.37-.64.23-1.2.5-1.7.81l-1.23.82c-.33.23-.67.35-1 .35-.27 0-.5-.07-.69-.2a2.1 2.1 0 01-.48-.53l-.7-1.25zm27.67 19.5c-1.76 0-3.12-.5-4.07-1.48-.94-.98-1.41-2.4-1.41-4.25V74h-2.68a.9.9 0 01-.6-.2c-.16-.14-.24-.36-.24-.66v-1.56l3.65-.46.9-6.89a.9.9 0 01.29-.52.88.88 0 01.62-.22H142v7.67h6.44V74H142v13.38c0 .94.22 1.63.68 2.09.45.45 1.04.68 1.76.68a3.21 3.21 0 001.85-.53l.55-.35c.16-.12.3-.18.41-.18.2 0 .4.13.55.38l1.15 1.87a7.45 7.45 0 01-2.44 1.5 8.53 8.53 0 01-2.95.52zm19.68-10.4c-1.8.07-3.34.21-4.62.45-1.26.22-2.3.51-3.1.88-.8.36-1.37.8-1.74 1.3-.35.5-.53 1.05-.53 1.67 0 .58.1 1.1.3 1.52a2.9 2.9 0 00.76 1.05c.34.27.73.46 1.17.6a6.13 6.13 0 001.45.17 7.3 7.3 0 003.5-.81 12.04 12.04 0 002.82-2.2v-4.62zm-12.65-9.1a12.72 12.72 0 013.99-2.66c1.42-.59 3-.88 4.72-.88 1.25 0 2.36.2 3.33.61a6.81 6.81 0 013.94 4.38c.33 1.04.5 2.19.5 3.43V93h-1.74a1.8 1.8 0 01-.88-.18c-.2-.13-.36-.38-.48-.74l-.44-2.12-1.72 1.46a9.48 9.48 0 01-3.74 1.7c-.69.15-1.46.23-2.3.23-.87 0-1.69-.12-2.45-.35a5.33 5.33 0 01-3.34-2.93 6.62 6.62 0 01-.49-2.64c0-.88.25-1.72.73-2.53a6.33 6.33 0 012.35-2.17c1.09-.63 2.5-1.15 4.25-1.54a31.2 31.2 0 016.42-.7v-1.75c0-1.73-.37-3.03-1.12-3.91-.75-.9-1.84-1.34-3.28-1.34-.97 0-1.78.12-2.44.37-.64.23-1.2.5-1.7.81l-1.22.82c-.34.23-.68.35-1.02.35-.26 0-.49-.07-.68-.2a1.88 1.88 0 01-.48-.53l-.7-1.25zM40.98 32.25c0 2.36-.38 4.53-1.12 6.51a14.26 14.26 0 01-8.1 8.4c-1.9.78-4.02 1.17-6.34 1.17a16.6 16.6 0 01-6.33-1.17 14.31 14.31 0 01-8.08-8.4 18.29 18.29 0 01-1.12-6.51c0-2.36.38-4.53 1.12-6.5.75-1.97 1.8-3.67 3.17-5.1a14.32 14.32 0 014.9-3.34c1.92-.8 4.03-1.19 6.34-1.19 2.32 0 4.43.4 6.34 1.19 1.92.8 3.56 1.9 4.93 3.34a14.87 14.87 0 013.17 5.1 18.1 18.1 0 011.12 6.5zm-4.38 0c0-1.94-.26-3.68-.8-5.22a10.91 10.91 0 00-2.24-3.89 9.68 9.68 0 00-3.52-2.46 11.95 11.95 0 00-4.62-.86c-1.68 0-3.21.28-4.6.86a9.88 9.88 0 00-3.54 2.46 10.91 10.91 0 00-2.24 3.9c-.53 1.53-.8 3.27-.8 5.2 0 1.94.27 3.68.8 5.22a11.17 11.17 0 002.24 3.9 10.01 10.01 0 003.55 2.44c1.38.56 2.9.83 4.6.83s3.24-.27 4.61-.83a9.8 9.8 0 003.52-2.44 11.17 11.17 0 002.25-3.9c.53-1.54.8-3.28.8-5.21zm26.22-6.54V48H60.5c-.56 0-.9-.27-1.05-.81l-.31-2.4a12.45 12.45 0 01-3.26 2.6c-1.2.64-2.58.96-4.13.96-1.22 0-2.3-.2-3.24-.6a6.52 6.52 0 01-2.33-1.7 7.37 7.37 0 01-1.43-2.67c-.3-1.04-.46-2.2-.46-3.45V25.7h3.91v14.22c0 1.68.38 2.99 1.15 3.91.77.93 1.96 1.39 3.54 1.39 1.16 0 2.24-.27 3.23-.82a10.42 10.42 0 002.8-2.28V25.7h3.91zm8.61 4.47a9.94 9.94 0 012.6-3.56 5.64 5.64 0 013.76-1.3c.47 0 .92.05 1.34.15.44.1.83.27 1.17.49l-.3 2.92c-.09.37-.3.55-.66.55-.2 0-.5-.04-.9-.13a6.21 6.21 0 00-3.24.18 4.23 4.23 0 00-1.47.92c-.42.4-.81.9-1.17 1.5-.33.58-.64 1.26-.92 2.02V48H67.7V25.71h2.25c.42 0 .72.08.88.25.16.16.27.44.33.83l.26 3.39zm61.16-13.7L122.75 48h-3.82l-7.99-24.05a21.95 21.95 0 01-.42-1.58 38.36 38.36 0 01-.44 1.58L102.05 48h-3.83L88.4 16.47h3.54c.38 0 .7.1.95.29.26.2.43.43.5.73l6.52 21.9.28 1.28.29 1.46.3-1.46.38-1.27 7.41-21.91c.1-.25.26-.48.51-.69.27-.22.58-.33.95-.33h1.23c.38 0 .69.1.92.29a1.77 1.77 0 01.53.73l7.4 21.9a28.4 28.4 0 01.68 2.62 29.52 29.52 0 01.52-2.61l6.54-21.91a1.31 1.31 0 01.48-.7c.27-.21.58-.32.95-.32h3.32zm9.35 8.88c1.63 0 3.1.27 4.4.82a9.43 9.43 0 015.46 5.94c.5 1.4.74 2.98.74 4.73 0 1.76-.25 3.34-.74 4.75a9.43 9.43 0 01-5.46 5.92c-1.3.52-2.77.79-4.4.79-1.64 0-3.12-.27-4.44-.8a9.42 9.42 0 01-3.35-2.3c-.92-1-1.63-2.2-2.13-3.61-.49-1.41-.73-3-.73-4.75s.24-3.33.73-4.73c.5-1.43 1.2-2.64 2.13-3.63a9.4 9.4 0 013.35-2.31c1.32-.55 2.8-.82 4.44-.82zm0 19.89c2.2 0 3.84-.73 4.93-2.2 1.08-1.48 1.63-3.54 1.63-6.18 0-2.66-.55-4.72-1.63-6.2-1.09-1.49-2.73-2.23-4.93-2.23-1.12 0-2.09.2-2.93.57a5.71 5.71 0 00-2.06 1.65 7.5 7.5 0 00-1.24 2.67c-.26 1.04-.4 2.22-.4 3.54 0 2.64.55 4.7 1.64 6.18 1.1 1.47 2.76 2.2 4.99 2.2zm17.97-15.07a9.94 9.94 0 012.6-3.56 5.64 5.64 0 013.76-1.3c.47 0 .91.05 1.34.15.44.1.83.27 1.16.49l-.28 2.92c-.09.37-.31.55-.66.55-.2 0-.5-.04-.9-.13a6.2 6.2 0 00-3.24.18 4.23 4.23 0 00-1.47.92c-.43.4-.82.9-1.17 1.5a13.1 13.1 0 00-.92 2.02V48h-3.94V25.71h2.24c.43 0 .72.08.88.25.17.16.28.44.33.83l.27 3.39zm15.04-14.59V48h-3.92V15.6h3.92zm19.55 15.43a6.22 6.22 0 00-2.38-2.05 6.7 6.7 0 00-2.86-.6c-2.07 0-3.66.75-4.77 2.23-1.12 1.48-1.68 3.6-1.68 6.33 0 1.46.13 2.7.38 3.74a7.29 7.29 0 001.1 2.56 4.35 4.35 0 001.78 1.45c.7.3 1.5.46 2.4.46 1.29 0 2.41-.3 3.36-.88a9.6 9.6 0 002.67-2.49V31.02zm3.91-15.43V48h-2.33c-.56 0-.9-.27-1.06-.81l-.35-2.71a12.13 12.13 0 01-3.25 2.77 8.28 8.28 0 01-4.23 1.06 7.31 7.31 0 01-6.14-2.9c-.73-.96-1.3-2.15-1.69-3.57a18.35 18.35 0 01.07-9.48 11.29 11.29 0 011.89-3.7 8.7 8.7 0 017.06-3.34 7.96 7.96 0 016.12 2.62V15.59h3.91zM46.61 70.71V93H42.7V70.71h3.91zm.84-7c0 .39-.08.75-.24 1.09a2.81 2.81 0 01-1.52 1.47 2.67 2.67 0 01-2.16 0 2.9 2.9 0 01-1.45-1.47 2.67 2.67 0 010-2.16c.15-.35.35-.65.6-.9.25-.27.53-.47.85-.62a2.67 2.67 0 012.16 0c.35.15.65.35.9.62.27.25.47.55.62.9.16.34.24.7.24 1.08zm7.97 10.24c.49-.54 1-1.04 1.54-1.48a9.85 9.85 0 013.66-1.84 8.96 8.96 0 015.43.35c.94.4 1.72.97 2.33 1.71a7.36 7.36 0 011.43 2.67c.32 1.04.49 2.19.49 3.45V93h-3.94V78.81c0-1.69-.4-3-1.17-3.92-.76-.93-1.93-1.4-3.5-1.4a6.6 6.6 0 00-3.25.83c-1 .56-1.92 1.31-2.77 2.27V93h-3.94V70.71h2.35c.56 0 .9.28 1.04.82l.3 2.42zm57.7 3.3c0 2.36-.37 4.5-1.11 6.44a14.3 14.3 0 01-3.17 4.98 14.1 14.1 0 01-4.93 3.2c-1.9.76-4.02 1.13-6.33 1.13H85.8V61.47h11.77c2.31 0 4.42.39 6.33 1.15a13.8 13.8 0 018.1 8.18 17.75 17.75 0 011.12 6.45zm-4.37 0c0-1.94-.26-3.67-.8-5.2a10.94 10.94 0 00-2.23-3.87 9.57 9.57 0 00-3.53-2.42 12.23 12.23 0 00-4.61-.83h-7.5v24.62h7.5c1.7 0 3.24-.28 4.61-.84a9.7 9.7 0 003.53-2.4 10.94 10.94 0 002.24-3.87c.53-1.53.8-3.26.8-5.2zm19.8 5.72c-1.8.06-3.34.2-4.62.44-1.26.22-2.3.51-3.1.88-.8.36-1.37.8-1.74 1.3-.35.5-.53 1.05-.53 1.67 0 .58.1 1.1.3 1.52a3 3 0 00.76 1.05c.34.27.73.46 1.17.6a6.13 6.13 0 001.45.17 7.28 7.28 0 003.5-.81 11.95 11.95 0 002.82-2.2v-4.62zm-12.65-9.11a12.73 12.73 0 013.98-2.66c1.43-.59 3-.88 4.73-.88 1.25 0 2.36.2 3.33.61a6.81 6.81 0 013.94 4.38c.33 1.04.5 2.19.5 3.43V93h-1.74a1.8 1.8 0 01-.88-.18c-.2-.13-.36-.38-.48-.74l-.44-2.12-1.72 1.46a9.48 9.48 0 01-3.74 1.7c-.69.15-1.46.23-2.3.23-.87 0-1.69-.12-2.45-.35a5.34 5.34 0 01-3.34-2.93 6.64 6.64 0 01-.49-2.64c0-.88.25-1.72.73-2.53a6.33 6.33 0 012.35-2.17c1.09-.63 2.5-1.15 4.25-1.54 1.75-.41 3.89-.65 6.42-.7v-1.75c0-1.73-.37-3.03-1.12-3.91-.75-.9-1.84-1.34-3.28-1.34-.97 0-1.78.12-2.44.37-.64.23-1.2.5-1.7.81l-1.23.82c-.33.23-.67.35-1 .35-.27 0-.5-.07-.69-.2a2.1 2.1 0 01-.48-.53l-.7-1.25zm27.67 19.5c-1.76 0-3.12-.5-4.07-1.48-.94-.98-1.41-2.4-1.41-4.25V74h-2.68a.9.9 0 01-.6-.2c-.16-.14-.24-.36-.24-.66v-1.56l3.65-.46.9-6.89a.9.9 0 01.29-.52.88.88 0 01.62-.22H142v7.67h6.44V74H142v13.38c0 .94.22 1.63.68 2.09.45.45 1.04.68 1.76.68a3.21 3.21 0 001.85-.53l.55-.35c.16-.12.3-.18.41-.18.2 0 .4.13.55.38l1.15 1.87a7.45 7.45 0 01-2.44 1.5 8.53 8.53 0 01-2.95.52zm19.68-10.4c-1.8.07-3.34.21-4.62.45-1.26.22-2.3.51-3.1.88-.8.36-1.37.8-1.74 1.3-.35.5-.53 1.05-.53 1.67 0 .58.1 1.1.3 1.52a2.9 2.9 0 00.76 1.05c.34.27.73.46 1.17.6a6.13 6.13 0 001.45.17 7.3 7.3 0 003.5-.81 12.04 12.04 0 002.82-2.2v-4.62zm-12.65-9.1a12.72 12.72 0 013.99-2.66c1.42-.59 3-.88 4.72-.88 1.25 0 2.36.2 3.33.61a6.81 6.81 0 013.94 4.38c.33 1.04.5 2.19.5 3.43V93h-1.74a1.8 1.8 0 01-.88-.18c-.2-.13-.36-.38-.48-.74l-.44-2.12-1.72 1.46a9.48 9.48 0 01-3.74 1.7c-.69.15-1.46.23-2.3.23-.87 0-1.69-.12-2.45-.35a5.33 5.33 0 01-3.34-2.93 6.62 6.62 0 01-.49-2.64c0-.88.25-1.72.73-2.53a6.33 6.33 0 012.35-2.17c1.09-.63 2.5-1.15 4.25-1.54a31.2 31.2 0 016.42-.7v-1.75c0-1.73-.37-3.03-1.12-3.91-.75-.9-1.84-1.34-3.28-1.34-.97 0-1.78.12-2.44.37-.64.23-1.2.5-1.7.81l-1.22.82c-.34.23-.68.35-1.02.35-.26 0-.49-.07-.68-.2a1.88 1.88 0 01-.48-.53l-.7-1.25zM40.98 32.25c0 2.36-.38 4.53-1.12 6.51a14.26 14.26 0 01-8.1 8.4c-1.9.78-4.02 1.17-6.34 1.17a16.6 16.6 0 01-6.33-1.17 14.31 14.31 0 01-8.08-8.4 18.29 18.29 0 01-1.12-6.51c0-2.36.38-4.53 1.12-6.5.75-1.97 1.8-3.67 3.17-5.1a14.32 14.32 0 014.9-3.34c1.92-.8 4.03-1.19 6.34-1.19 2.32 0 4.43.4 6.34 1.19 1.92.8 3.56 1.9 4.93 3.34a14.87 14.87 0 013.17 5.1 18.1 18.1 0 011.12 6.5zm-4.38 0c0-1.94-.26-3.68-.8-5.22a10.91 10.91 0 00-2.24-3.89 9.68 9.68 0 00-3.52-2.46 11.95 11.95 0 00-4.62-.86c-1.68 0-3.21.28-4.6.86a9.88 9.88 0 00-3.54 2.46 10.91 10.91 0 00-2.24 3.9c-.53 1.53-.8 3.27-.8 5.2 0 1.94.27 3.68.8 5.22a11.17 11.17 0 002.24 3.9 10.01 10.01 0 003.55 2.44c1.38.56 2.9.83 4.6.83s3.24-.27 4.61-.83a9.8 9.8 0 003.52-2.44 11.17 11.17 0 002.25-3.9c.53-1.54.8-3.28.8-5.21zm26.22-6.54V48H60.5c-.56 0-.9-.27-1.05-.81l-.31-2.4a12.45 12.45 0 01-3.26 2.6c-1.2.64-2.58.96-4.13.96-1.22 0-2.3-.2-3.24-.6a6.52 6.52 0 01-2.33-1.7 7.37 7.37 0 01-1.43-2.67c-.3-1.04-.46-2.2-.46-3.45V25.7h3.91v14.22c0 1.68.38 2.99 1.15 3.91.77.93 1.96 1.39 3.54 1.39 1.16 0 2.24-.27 3.23-.82a10.42 10.42 0 002.8-2.28V25.7h3.91zm8.61 4.47a9.94 9.94 0 012.6-3.56 5.64 5.64 0 013.76-1.3c.47 0 .92.05 1.34.15.44.1.83.27 1.17.49l-.3 2.92c-.09.37-.3.55-.66.55-.2 0-.5-.04-.9-.13a6.21 6.21 0 00-3.24.18 4.23 4.23 0 00-1.47.92c-.42.4-.81.9-1.17 1.5-.33.58-.64 1.26-.92 2.02V48H67.7V25.71h2.25c.42 0 .72.08.88.25.16.16.27.44.33.83l.26 3.39zm61.16-13.7L122.75 48h-3.82l-7.99-24.05a21.95 21.95 0 01-.42-1.58 38.36 38.36 0 01-.44 1.58L102.05 48h-3.83L88.4 16.47h3.54c.38 0 .7.1.95.29.26.2.43.43.5.73l6.52 21.9.28 1.28.29 1.46.3-1.46.38-1.27 7.41-21.91c.1-.25.26-.48.51-.69.27-.22.58-.33.95-.33h1.23c.38 0 .69.1.92.29a1.77 1.77 0 01.53.73l7.4 21.9a28.4 28.4 0 01.68 2.62 29.52 29.52 0 01.52-2.61l6.54-21.91a1.31 1.31 0 01.48-.7c.27-.21.58-.32.95-.32h3.32zm9.35 8.88c1.63 0 3.1.27 4.4.82a9.43 9.43 0 015.46 5.94c.5 1.4.74 2.98.74 4.73 0 1.76-.25 3.34-.74 4.75a9.43 9.43 0 01-5.46 5.92c-1.3.52-2.77.79-4.4.79-1.64 0-3.12-.27-4.44-.8a9.42 9.42 0 01-3.35-2.3c-.92-1-1.63-2.2-2.13-3.61-.49-1.41-.73-3-.73-4.75s.24-3.33.73-4.73c.5-1.43 1.2-2.64 2.13-3.63a9.4 9.4 0 013.35-2.31c1.32-.55 2.8-.82 4.44-.82zm0 19.89c2.2 0 3.84-.73 4.93-2.2 1.08-1.48 1.63-3.54 1.63-6.18 0-2.66-.55-4.72-1.63-6.2-1.09-1.49-2.73-2.23-4.93-2.23-1.12 0-2.09.2-2.93.57a5.71 5.71 0 00-2.06 1.65 7.5 7.5 0 00-1.24 2.67c-.26 1.04-.4 2.22-.4 3.54 0 2.64.55 4.7 1.64 6.18 1.1 1.47 2.76 2.2 4.99 2.2zm17.97-15.07a9.94 9.94 0 012.6-3.56 5.64 5.64 0 013.76-1.3c.47 0 .91.05 1.34.15.44.1.83.27 1.16.49l-.28 2.92c-.09.37-.31.55-.66.55-.2 0-.5-.04-.9-.13a6.2 6.2 0 00-3.24.18 4.23 4.23 0 00-1.47.92c-.43.4-.82.9-1.17 1.5a13.1 13.1 0 00-.92 2.02V48h-3.94V25.71h2.24c.43 0 .72.08.88.25.17.16.28.44.33.83l.27 3.39zm15.04-14.59V48h-3.92V15.6h3.92zm19.55 15.43a6.22 6.22 0 00-2.38-2.05 6.7 6.7 0 00-2.86-.6c-2.07 0-3.66.75-4.77 2.23-1.12 1.48-1.68 3.6-1.68 6.33 0 1.46.13 2.7.38 3.74a7.29 7.29 0 001.1 2.56 4.35 4.35 0 001.78 1.45c.7.3 1.5.46 2.4.46 1.29 0 2.41-.3 3.36-.88a9.6 9.6 0 002.67-2.49V31.02zm3.91-15.43V48h-2.33c-.56 0-.9-.27-1.06-.81l-.35-2.71a12.13 12.13 0 01-3.25 2.77 8.28 8.28 0 01-4.23 1.06 7.31 7.31 0 01-6.14-2.9c-.73-.96-1.3-2.15-1.69-3.57a18.35 18.35 0 01.07-9.48 11.29 11.29 0 011.89-3.7 8.7 8.7 0 017.06-3.34 7.96 7.96 0 016.12 2.62V15.59h3.91zM46.61 70.71V93H42.7V70.71h3.91zm.84-7c0 .39-.08.75-.24 1.09a2.81 2.81 0 01-1.52 1.47 2.67 2.67 0 01-2.16 0 2.9 2.9 0 01-1.45-1.47 2.67 2.67 0 010-2.16c.15-.35.35-.65.6-.9.25-.27.53-.47.85-.62a2.67 2.67 0 012.16 0c.35.15.65.35.9.62.27.25.47.55.62.9.16.34.24.7.24 1.08zm7.97 10.24c.49-.54 1-1.04 1.54-1.48a9.85 9.85 0 013.66-1.84 8.96 8.96 0 015.43.35c.94.4 1.72.97 2.33 1.71a7.36 7.36 0 011.43 2.67c.32 1.04.49 2.19.49 3.45V93h-3.94V78.81c0-1.69-.4-3-1.17-3.92-.76-.93-1.93-1.4-3.5-1.4a6.6 6.6 0 00-3.25.83c-1 .56-1.92 1.31-2.77 2.27V93h-3.94V70.71h2.35c.56 0 .9.28 1.04.82l.3 2.42zm57.7 3.3c0 2.36-.37 4.5-1.11 6.44a14.3 14.3 0 01-3.17 4.98 14.1 14.1 0 01-4.93 3.2c-1.9.76-4.02 1.13-6.33 1.13H85.8V61.47h11.77c2.31 0 4.42.39 6.33 1.15a13.8 13.8 0 018.1 8.18 17.75 17.75 0 011.12 6.45zm-4.37 0c0-1.94-.26-3.67-.8-5.2a10.94 10.94 0 00-2.23-3.87 9.57 9.57 0 00-3.53-2.42 12.23 12.23 0 00-4.61-.83h-7.5v24.62h7.5c1.7 0 3.24-.28 4.61-.84a9.7 9.7 0 003.53-2.4 10.94 10.94 0 002.24-3.87c.53-1.53.8-3.26.8-5.2zm19.8 5.72c-1.8.06-3.34.2-4.62.44-1.26.22-2.3.51-3.1.88-.8.36-1.37.8-1.74 1.3-.35.5-.53 1.05-.53 1.67 0 .58.1 1.1.3 1.52a3 3 0 00.76 1.05c.34.27.73.46 1.17.6a6.13 6.13 0 001.45.17 7.28 7.28 0 003.5-.81 11.95 11.95 0 002.82-2.2v-4.62zm-12.65-9.11a12.73 12.73 0 013.98-2.66c1.43-.59 3-.88 4.73-.88 1.25 0 2.36.2 3.33.61a6.81 6.81 0 013.94 4.38c.33 1.04.5 2.19.5 3.43V93h-1.74a1.8 1.8 0 01-.88-.18c-.2-.13-.36-.38-.48-.74l-.44-2.12-1.72 1.46a9.48 9.48 0 01-3.74 1.7c-.69.15-1.46.23-2.3.23-.87 0-1.69-.12-2.45-.35a5.34 5.34 0 01-3.34-2.93 6.64 6.64 0 01-.49-2.64c0-.88.25-1.72.73-2.53a6.33 6.33 0 012.35-2.17c1.09-.63 2.5-1.15 4.25-1.54 1.75-.41 3.89-.65 6.42-.7v-1.75c0-1.73-.37-3.03-1.12-3.91-.75-.9-1.84-1.34-3.28-1.34-.97 0-1.78.12-2.44.37-.64.23-1.2.5-1.7.81l-1.23.82c-.33.23-.67.35-1 .35-.27 0-.5-.07-.69-.2a2.1 2.1 0 01-.48-.53l-.7-1.25zm27.67 19.5c-1.76 0-3.12-.5-4.07-1.48-.94-.98-1.41-2.4-1.41-4.25V74h-2.68a.9.9 0 01-.6-.2c-.16-.14-.24-.36-.24-.66v-1.56l3.65-.46.9-6.89a.9.9 0 01.29-.52.88.88 0 01.62-.22H142v7.67h6.44V74H142v13.38c0 .94.22 1.63.68 2.09.45.45 1.04.68 1.76.68a3.21 3.21 0 001.85-.53l.55-.35c.16-.12.3-.18.41-.18.2 0 .4.13.55.38l1.15 1.87a7.45 7.45 0 01-2.44 1.5 8.53 8.53 0 01-2.95.52zm19.68-10.4c-1.8.07-3.34.21-4.62.45-1.26.22-2.3.51-3.1.88-.8.36-1.37.8-1.74 1.3-.35.5-.53 1.05-.53 1.67 0 .58.1 1.1.3 1.52a2.9 2.9 0 00.76 1.05c.34.27.73.46 1.17.6a6.13 6.13 0 001.45.17 7.3 7.3 0 003.5-.81 12.04 12.04 0 002.82-2.2v-4.62zm-12.65-9.1a12.72 12.72 0 013.99-2.66c1.42-.59 3-.88 4.72-.88 1.25 0 2.36.2 3.33.61a6.81 6.81 0 013.94 4.38c.33 1.04.5 2.19.5 3.43V93h-1.74a1.8 1.8 0 01-.88-.18c-.2-.13-.36-.38-.48-.74l-.44-2.12-1.72 1.46a9.48 9.48 0 01-3.74 1.7c-.69.15-1.46.23-2.3.23-.87 0-1.69-.12-2.45-.35a5.33 5.33 0 01-3.34-2.93 6.62 6.62 0 01-.49-2.64c0-.88.25-1.72.73-2.53a6.33 6.33 0 012.35-2.17c1.09-.63 2.5-1.15 4.25-1.54a31.2 31.2 0 016.42-.7v-1.75c0-1.73-.37-3.03-1.12-3.91-.75-.9-1.84-1.34-3.28-1.34-.97 0-1.78.12-2.44.37-.64.23-1.2.5-1.7.81l-1.22.82c-.34.23-.68.35-1.02.35-.26 0-.49-.07-.68-.2a1.88 1.88 0 01-.48-.53l-.7-1.25z" fill="#fff"/><path fill="#D42B21" d="M0 106.79h210V120H0z"/></g><defs><clipPath id="clip0"><path fill="#fff" d="M0 0h210v120H0z"/></clipPath></defs></svg></g><a href="https://ourworldindata.org/grapher/learning-outcomes-vs-gdp-per-capita?time=1970..2015" target="_blank" rel="noopener" font-family="&quot;Playfair Display&quot;,Georgia,&quot;Times New Roman&quot;,serif"><text font-size="25.2" x="15" y="35.2" fill="#555"><tspan x="15" y="35.16">Average learning outcomes vs GDP per capita, 1970 to 2015</tspan></text></a><text font-size="14.4" x="15" y="55.7" fill="#666"><tspan x="15" y="55.72">The vertical axis shows average scores across standardized, psychometrically-robust international and regional</tspan><tspan x="15" y="73">student achievement tests. To maximize coverage by country, tests have been harmonized and pooled across</tspan><tspan x="15" y="90.28">subjects (math, reading, science) and levels (primary and secondary education). The horizontal axis shows GDP</tspan><tspan x="15" y="107.56">per capita after adjusting for price differences between countries and across time.</tspan></text></g><g class="ScatterPlot"><g class="DualAxisView"><g class="HorizontalAxis"><text font-size="12.6" x="323.3" y="544.9"><tspan x="323.33" y="544.88">GDP per capita</tspan></text><text x="122.9" y="524.8" fill="#666" text-anchor="middle" font-size="16.2">$1,000</text><text x="394.3" y="524.8" fill="#666" text-anchor="middle" font-size="16.2">$10,000</text><text x="665.7" y="524.8" fill="#666" text-anchor="middle" font-size="16.2">$100,000</text><text x="204.6" y="524.8" fill="#666" text-anchor="middle" font-size="16.2">$2,000</text><text x="312.6" y="524.8" fill="#666" text-anchor="middle" font-size="16.2">$5,000</text><text x="476" y="524.8" fill="#666" text-anchor="middle" font-size="16.2">$20,000</text><text x="584" y="524.8" fill="#666" text-anchor="middle" font-size="16.2">$50,000</text></g><g class="VerticalAxis"><text font-size="12.6" x="-426.4" y="25.1" transform="rotate(-90)"><tspan x="-426.43" y="25.08">Average learning outcome score</tspan></text><text x="64.82" y="461.1" dy=".32em" text-anchor="end" fill="#666" font-size="16.2">200</text><text x="64.82" y="380.5" dy=".32em" text-anchor="end" fill="#666" font-size="16.2">300</text><text x="64.82" y="300" dy=".32em" text-anchor="end" fill="#666" font-size="16.2">400</text><text x="64.82" y="219.4" dy=".32em" text-anchor="end" fill="#666" font-size="16.2">500</text><text x="64.82" y="138.8" dy=".32em" text-anchor="end" fill="#666" font-size="16.2">600</text></g><g class="AxisGridLines horizontalLines" stroke="#ddd" stroke-dasharray="3,2"><path d="M69.82 461.1h648.27M69.82 380.5h648.27M69.82 300h648.27M69.82 219.4h648.27M69.82 138.8h648.27"/></g><g class="AxisGridLines verticalLines" stroke="#ddd" stroke-dasharray="3,2"><path d="M122.9 503.6V123.4M204.6 503.6V123.4M312.6 503.6V123.4M394.3 503.6V123.4M476 503.6V123.4M584 503.6V123.4M665.7 503.6V123.4"/></g></g><g class="PointsWithLabels clickable" clip-path="url(#a)" font-family="Arial, sans-serif"><path fill="rgba(255,255,255,0)" d="M69.82 123.4H718.1v380.2H69.82z"/><defs><clipPath id="a"><path d="M59.82 113.4H728.1v400.2H59.82z"/></clipPath></defs><g class="key-China"><circle cx="306" cy="187" r="1.7" fill="#2D8587" stroke="none" opacity=".7"/><path stroke-width="1.42" opacity=".7" stroke="#2D8587" fill="none" stroke-linecap="butt" d="M306 187l112-12"/><path cx="418" cy="175" r="2.62" fill="#2D8587" opacity=".7" d="M415.12 172.67l5.49 2.05-4.94 3.16z"/></g><g class="key-India"><circle cx="300" cy="317" r="1.6" fill="#2D8587" stroke="none" opacity=".7"/><path stroke-width="1.38" opacity=".7" stroke="#2D8587" fill="none" stroke-linecap="butt" d="M300 317h0"/><path cx="300" cy="317" r="2.58" fill="#2D8587" opacity=".7" d="M297.42 314.42l5.16 2.58-5.16 2.58z"/></g><g class="key-United-States"><circle cx="497" cy="243" r="1.3" fill="#E04E4B" stroke="none" opacity=".7"/><path stroke-width=".84" opacity=".7" stroke="#E04E4B" fill="none" stroke-linecap="butt" d="M497 243l92-47"/><path cx="589" cy="196" r="2.04" fill="#E04E4B" opacity=".7" d="M586.26 195.11l4.56-.04-2.7 3.67z"/></g><g class="key-Indonesia"><circle cx="321" cy="296" r="1.3" fill="#2D8587" stroke="none" opacity=".7"/><path stroke-width=".79" opacity=".7" stroke="#2D8587" fill="none" stroke-linecap="butt" d="M321 296l78 6"/><path cx="399" cy="302" r="1.99" fill="#2D8587" opacity=".7" d="M397.17 299.86l3.81 2.3-4.12 1.67z"/></g><g class="key-Brazil"><circle cx="365" cy="404" r="1.2" fill="#932834" stroke="none" opacity=".7"/><path stroke-width=".74" opacity=".7" stroke="#932834" fill="none" stroke-linecap="butt" d="M365 404l83-112"/><path cx="448" cy="292" r="1.94" fill="#932834" opacity=".7" d="M445.29 292.4l3.87-1.96-.76 4.27z"/></g><g class="key-Pakistan"><circle cx="258" cy="325" r="1.2" fill="#2D8587" stroke="none" opacity=".7"/><path stroke-width=".69" opacity=".7" stroke="#2D8587" fill="none" stroke-linecap="butt" d="M258 325h0"/><path cx="258" cy="325" r="1.89" fill="#2D8587" opacity=".7" d="M256.11 323.11l3.78 1.89-3.78 1.89z"/></g><g class="key-Russia"><circle cx="419" cy="177" r="1.2" fill="#4C5C78" stroke="none" opacity=".7"/><path stroke-width=".67" opacity=".7" stroke="#4C5C78" fill="none" stroke-linecap="butt" d="M419 177h76"/><path cx="495" cy="177" r="1.87" fill="#4C5C78" opacity=".7" d="M493.13 175.13l3.74 1.87-3.74 1.87z"/></g><g class="key-Japan"><circle cx="445" cy="180" r="1.2" fill="#2D8587" stroke="none" opacity=".7"/><path stroke-width=".65" opacity=".7" stroke="#2D8587" fill="none" stroke-linecap="butt" d="M445 180l103-34"/><path cx="548" cy="146" r="1.85" fill="#2D8587" opacity=".7" d="M545.66 144.82l4.1.6-2.94 2.92z"/></g><g class="key-Nigeria"><circle cx="209" cy="231" r="1.2" fill="#923E8B" stroke="none" opacity=".7"/><path stroke-width=".65" opacity=".7" stroke="#923E8B" fill="none" stroke-linecap="butt" d="M209 231l-14 196"/><path cx="195" cy="427" r="1.85" fill="#923E8B" opacity=".7" d="M196.98 425.29l-2.11 3.56-1.58-3.83z"/></g><g class="key-Mexico"><circle cx="393" cy="329" r="1.2" fill="#E04E4B" stroke="none" opacity=".7"/><path stroke-width=".64" opacity=".7" stroke="#E04E4B" fill="none" stroke-linecap="butt" d="M393 329l57-64"/><path cx="450" cy="265" r="1.84" fill="#E04E4B" opacity=".7" d="M447.4 265.15l3.82-1.52-1.07 3.97z"/></g><g class="key-Philippines"><circle cx="287" cy="331" r="1.2" fill="#2D8587" stroke="none" opacity=".7"/><path stroke-width=".61" opacity=".7" stroke="#2D8587" fill="none" stroke-linecap="butt" d="M287 331l18-5"/><path cx="305" cy="326" r="1.81" fill="#2D8587" opacity=".7" d="M302.77 324.74l3.97.78-3 2.7z"/></g><g class="key-Vietnam"><circle cx="329" cy="203" r="1.2" fill="#2D8587" stroke="none" opacity=".7"/><path stroke-width=".61" opacity=".7" stroke="#2D8587" fill="none" stroke-linecap="butt" d="M329 203h0"/><path cx="329" cy="203" r="1.81" fill="#2D8587" opacity=".7" d="M327.19 201.19l3.62 1.81-3.62 1.81z"/></g><g class="key-Egypt"><circle cx="368" cy="297" r="1.2" fill="#923E8B" stroke="none" opacity=".7"/><path stroke-width=".61" opacity=".7" stroke="#923E8B" fill="none" stroke-linecap="butt" d="M368 297l39 4"/><path cx="407" cy="301" r="1.81" fill="#923E8B" opacity=".7" d="M405.38 299.01l3.42 2.17-3.79 1.44z"/></g><g class="key-Germany"><circle cx="471" cy="338" r="1.2" fill="#4C5C78" stroke="none" opacity=".7"/><path stroke-width=".59" opacity=".7" stroke="#4C5C78" fill="none" stroke-linecap="butt" d="M471 338l98-139"/><path cx="569" cy="199" r="1.79" fill="#4C5C78" opacity=".7" d="M566.5 199.43l3.53-1.9-.6 3.96z"/></g><g class="key-Turkey"><circle cx="414" cy="280" r="1.2" fill="#2D8587" stroke="none" opacity=".7"/><path stroke-width=".58" opacity=".7" stroke="#2D8587" fill="none" stroke-linecap="butt" d="M414 280l61-37"/><path cx="475" cy="243" r="1.78" fill="#2D8587" opacity=".7" d="M472.55 242.4l3.97-.32-2.12 3.37z"/></g><g class="key-Iran"><circle cx="346" cy="337" r="1.1" fill="#2D8587" stroke="none" opacity=".7"/><path stroke-width=".58" opacity=".7" stroke="#2D8587" fill="none" stroke-linecap="butt" d="M346 337l105-65"/><path cx="451" cy="272" r="1.78" fill="#2D8587" opacity=".7" d="M448.55 271.42l3.96-.36-2.09 3.39z"/></g><g class="key-Democratic-Republic-of-Congo"><circle cx="69" cy="348" r="1.2" fill="#923E8B" stroke="none" opacity=".7"/><path stroke-width=".58" opacity=".7" stroke="#923E8B" fill="none" stroke-linecap="butt" d="M69 348h0"/><path cx="69" cy="348" r="1.78" fill="#923E8B" opacity=".7" d="M67.22 346.22l3.56 1.78-3.56 1.78z"/></g><g class="key-Thailand"><circle cx="240" cy="243" r="1.1" fill="#2D8587" stroke="none" opacity=".7"/><path stroke-width=".57" opacity=".7" stroke="#2D8587" fill="none" stroke-linecap="butt" d="M240 243l202 24"/><path cx="442" cy="267" r="1.77" fill="#2D8587" opacity=".7" d="M440.45 265.03l3.3 2.18-3.72 1.34z"/></g><g class="key-United-Kingdom"><circle cx="507" cy="210" r="1.2" fill="#4C5C78" stroke="none" opacity=".7"/><path stroke-width=".56" opacity=".7" stroke="#4C5C78" fill="none" stroke-linecap="butt" d="M507 210l41-4"/><path cx="548" cy="206" r="1.76" fill="#4C5C78" opacity=".7" d="M546.08 204.42l3.67 1.4-3.33 2.1z"/></g><g class="key-France"><circle cx="464" cy="268" r="1.2" fill="#4C5C78" stroke="none" opacity=".7"/><path stroke-width=".56" opacity=".7" stroke="#4C5C78" fill="none" stroke-linecap="butt" d="M464 268l83-48"/><path cx="547" cy="220" r="1.76" fill="#4C5C78" opacity=".7" d="M544.6 219.36l3.92-.24-2.16 3.28z"/></g><g class="key-Italy"><circle cx="445" cy="290" r="1.2" fill="#4C5C78" stroke="none" opacity=".7"/><path stroke-width=".56" opacity=".7" stroke="#4C5C78" fill="none" stroke-linecap="butt" d="M445 290l90-72"/><path cx="535" cy="218" r="1.76" fill="#4C5C78" opacity=".7" d="M532.53 217.73l3.84-.83-1.64 3.57z"/></g><g class="key-South-Africa"><circle cx="341" cy="340" r="1.1" fill="#923E8B" stroke="none" opacity=".7"/><path stroke-width=".55" opacity=".7" stroke="#923E8B" fill="none" stroke-linecap="butt" d="M341 340l77-20"/><path cx="418" cy="320" r="1.75" fill="#923E8B" opacity=".7" d="M415.87 318.75l3.82.81-2.94 2.57z"/></g><g class="key-South-Korea"><circle cx="380" cy="203" r="1.1" fill="#2D8587" stroke="none" opacity=".7"/><path stroke-width=".54" opacity=".7" stroke="#2D8587" fill="none" stroke-linecap="butt" d="M380 203l162-70"/><path cx="542" cy="133" r="1.74" fill="#2D8587" opacity=".7" d="M539.71 132.1l3.89.21-2.5 2.98z"/></g><g class="key-Colombia"><circle cx="378" cy="338" r="1.1" fill="#932834" stroke="none" opacity=".7"/><path stroke-width=".53" opacity=".7" stroke="#932834" fill="none" stroke-linecap="butt" d="M378 338l49-49"/><path cx="427" cy="289" r="1.73" fill="#932834" opacity=".7" d="M424.55 289l3.67-1.22-1.22 3.67z"/></g><g class="key-Spain"><circle cx="471" cy="223" r="1.1" fill="#4C5C78" stroke="none" opacity=".7"/><path stroke-width=".53" opacity=".7" stroke="#4C5C78" fill="none" stroke-linecap="butt" d="M471 223l59-8"/><path cx="530" cy="215" r="1.73" fill="#4C5C78" opacity=".7" d="M528.05 213.52l3.66 1.25-3.2 2.18z"/></g><g class="key-Ukraine"><circle cx="375" cy="245" r="1.2" fill="#4C5C78" stroke="none" opacity=".7"/><path stroke-width=".53" opacity=".7" stroke="#4C5C78" fill="none" stroke-linecap="butt" d="M375 245l14-9"/><path cx="389" cy="236" r="1.73" fill="#4C5C78" opacity=".7" d="M386.6 235.48l3.86-.42-1.98 3.33z"/></g><g class="key-Tanzania"><circle cx="139" cy="331" r="1.1" fill="#923E8B" stroke="none" opacity=".7"/><path stroke-width=".53" opacity=".7" stroke="#923E8B" fill="none" stroke-linecap="butt" d="M139 331l35 6"/><path cx="174" cy="337" r="1.73" fill="#923E8B" opacity=".7" d="M172.59 335l3.12 2.3-3.7 1.11z"/></g><g class="key-Argentina"><circle cx="426" cy="318" r="1.1" fill="#932834" stroke="none" opacity=".7"/><path stroke-width=".52" opacity=".7" stroke="#932834" fill="none" stroke-linecap="butt" d="M426 318l47-42"/><path cx="473" cy="276" r="1.72" fill="#932834" opacity=".7" d="M470.57 275.86l3.71-1-1.42 3.57z"/></g><g class="key-Kenya"><circle cx="191" cy="310" r="1.1" fill="#923E8B" stroke="none" opacity=".7"/><path stroke-width=".52" opacity=".7" stroke="#923E8B" fill="none" stroke-linecap="butt" d="M191 310l22 25"/><path cx="213" cy="335" r="1.72" fill="#923E8B" opacity=".7" d="M213.15 332.57l.99 3.72-3.57-1.44z"/></g><g class="key-Algeria"><circle cx="393" cy="307" r="1.1" fill="#923E8B" stroke="none" opacity=".7"/><path stroke-width=".52" opacity=".7" stroke="#923E8B" fill="none" stroke-linecap="butt" d="M393 307l41 13"/><path cx="434" cy="320" r="1.72" fill="#923E8B" opacity=".7" d="M432.88 317.84l2.76 2.68-3.8.6z"/></g><g class="key-Poland"><circle cx="422" cy="230" r="1.1" fill="#4C5C78" stroke="none" opacity=".7"/><path stroke-width=".51" opacity=".7" stroke="#4C5C78" fill="none" stroke-linecap="butt" d="M422 230l76-34"/><path cx="498" cy="196" r="1.71" fill="#4C5C78" opacity=".7" d="M495.74 195.14l3.82.16-2.42 2.96z"/></g><g class="key-Canada"><circle cx="515" cy="233" r="1.1" fill="#E04E4B" stroke="none" opacity=".7"/><path stroke-width=".51" opacity=".7" stroke="#E04E4B" fill="none" stroke-linecap="butt" d="M515 233l52-30"/><path cx="567" cy="203" r="1.71" fill="#E04E4B" opacity=".7" d="M564.66 202.37l3.82-.22-2.1 3.19z"/></g><g class="key-Morocco"><circle cx="306" cy="342" r="1.1" fill="#923E8B" stroke="none" opacity=".7"/><path stroke-width=".51" opacity=".7" stroke="#923E8B" fill="none" stroke-linecap="butt" d="M306 342l62-27"/><path cx="368" cy="315" r="1.71" fill="#923E8B" opacity=".7" d="M365.75 314.11l3.82.2-2.46 2.94z"/></g><g class="key-Uganda"><circle cx="143" cy="355" r="1.1" fill="#923E8B" stroke="none" opacity=".7"/><path stroke-width=".5" opacity=".7" stroke="#923E8B" fill="none" stroke-linecap="butt" d="M143 355l23 1"/><path cx="166" cy="356" r="1.7" fill="#923E8B" opacity=".7" d="M164.38 354.23l3.32 1.84-3.47 1.55z"/></g><g class="key-Saudi-Arabia"><circle cx="533" cy="350" r="1.1" fill="#2D8587" stroke="none" opacity=".7"/><path stroke-width=".5" opacity=".7" stroke="#2D8587" fill="none" stroke-linecap="butt" d="M533 350l54-31"/><path cx="587" cy="319" r="1.7" fill="#2D8587" opacity=".7" d="M584.68 318.37l3.8-.22-2.1 3.17z"/></g><g class="key-Peru"><circle cx="327" cy="346" r="1.1" fill="#932834" stroke="none" opacity=".7"/><path stroke-width=".5" opacity=".7" stroke="#932834" fill="none" stroke-linecap="butt" d="M327 346l83-62"/><path cx="410" cy="284" r="1.7" fill="#932834" opacity=".7" d="M407.62 283.66l3.74-.68-1.7 3.4z"/></g><g class="key-Malaysia"><circle cx="429" cy="209" r="1.1" fill="#2D8587" stroke="none" opacity=".7"/><path stroke-width=".5" opacity=".7" stroke="#2D8587" fill="none" stroke-linecap="butt" d="M429 209l60 31"/><path cx="489" cy="240" r="1.7" fill="#2D8587" opacity=".7" d="M488.27 237.7l2.24 3.08-3.8-.05z"/></g><g class="key-Venezuela"><circle cx="437" cy="355" r="1.1" fill="#932834" stroke="none" opacity=".7"/><path stroke-width=".5" opacity=".7" stroke="#932834" fill="none" stroke-linecap="butt" d="M437 355l20-74"/><path cx="457" cy="281" r="1.7" fill="#932834" opacity=".7" d="M454.92 282.2l2.52-2.84.76 3.72z"/></g><g class="key-Ghana"><circle cx="226" cy="373" r="1.1" fill="#923E8B" stroke="none" opacity=".7"/><path stroke-width=".49" opacity=".7" stroke="#923E8B" fill="none" stroke-linecap="butt" d="M226 373l24-22"/><path cx="250" cy="351" r="1.69" fill="#923E8B" opacity=".7" d="M247.61 350.9l3.64-1.04-1.35 3.53z"/></g><g class="key-Yemen"><circle cx="299" cy="383" r="1.1" fill="#2D8587" stroke="none" opacity=".7"/><path stroke-width=".49" opacity=".7" stroke="#2D8587" fill="none" stroke-linecap="butt" d="M299 383l9-1"/><path cx="308" cy="382" r="1.69" fill="#2D8587" opacity=".7" d="M306.13 380.5l3.55 1.31-3.17 2.06z"/></g><g class="key-Nepal"><circle cx="183" cy="469" r="1.1" fill="#2D8587" stroke="none" opacity=".7"/><path stroke-width=".49" opacity=".7" stroke="#2D8587" fill="none" stroke-linecap="butt" d="M183 469h0"/><path cx="183" cy="469" r="1.69" fill="#2D8587" opacity=".7" d="M181.31 467.31l3.38 1.69-3.38 1.69z"/></g><g class="key-Australia"><circle cx="471" cy="232" r="1.1" fill="#A8633C" stroke="none" opacity=".7"/><path stroke-width=".48" opacity=".7" stroke="#A8633C" fill="none" stroke-linecap="butt" d="M471 232l109-20"/><path cx="580" cy="212" r="1.68" fill="#A8633C" opacity=".7" d="M578.04 210.65l3.61 1.05-3 2.26z"/></g><g class="key-Taiwan"><circle cx="448" cy="161" r="1.1" fill="#2D8587" stroke="none" opacity=".7"/><path stroke-width=".48" opacity=".7" stroke="#2D8587" fill="none" stroke-linecap="butt" d="M448 161l114-21"/><path cx="562" cy="140" r="1.68" fill="#2D8587" opacity=".7" d="M560.04 138.65l3.61 1.05-3 2.26z"/></g><g class="key-Mozambique"><circle cx="190" cy="445" r="1.1" fill="#923E8B" stroke="none" opacity=".7"/><path stroke-width=".48" opacity=".7" stroke="#923E8B" fill="none" stroke-linecap="butt" d="M190 445l-55-83"/><path cx="135" cy="362" r="1.68" fill="#923E8B" opacity=".7" d="M134.53 364.33l-.46-3.73 3.26 1.87z"/></g><g class="key-Cote-d__0027Ivoire"><circle cx="206" cy="391" r="1.1" fill="#923E8B" stroke="none" opacity=".7"/><path stroke-width=".48" opacity=".7" stroke="#923E8B" fill="none" stroke-linecap="butt" d="M206 391l27 21"/><path cx="233" cy="412" r="1.68" fill="#923E8B" opacity=".7" d="M232.7 409.64l1.63 3.4-3.69-.75z"/></g><g class="key-Madagascar"><circle cx="137" cy="293" r="1.1" fill="#923E8B" stroke="none" opacity=".7"/><path stroke-width=".48" opacity=".7" stroke="#923E8B" fill="none" stroke-linecap="butt" d="M137 293l14 33"/><path cx="151" cy="326" r="1.68" fill="#923E8B" opacity=".7" d="M151.89 323.8l-.23 3.75-2.86-2.44z"/></g><g class="key-Cameroon"><circle cx="181" cy="338" r="1.1" fill="#923E8B" stroke="none" opacity=".7"/><path stroke-width=".47" opacity=".7" stroke="#923E8B" fill="none" stroke-linecap="butt" d="M181 338l36 13"/><path cx="217" cy="351" r="1.67" fill="#923E8B" opacity=".7" d="M216 348.86l2.57 2.7-3.7.44z"/></g><g class="key-Romania"><circle cx="334" cy="249" r="1.1" fill="#4C5C78" stroke="none" opacity=".7"/><path stroke-width=".47" opacity=".7" stroke="#4C5C78" fill="none" stroke-linecap="butt" d="M334 249l137-5"/><path cx="471" cy="244" r="1.67" fill="#4C5C78" opacity=".7" d="M469.27 242.4l3.4 1.54-3.28 1.79z"/></g><g class="key-Sri-Lanka"><circle cx="330" cy="386" r="1.1" fill="#2D8587" stroke="none" opacity=".7"/><path stroke-width=".47" opacity=".7" stroke="#2D8587" fill="none" stroke-linecap="butt" d="M330 386h0"/><path cx="330" cy="386" r="1.67" fill="#2D8587" opacity=".7" d="M328.33 384.33l3.34 1.67-3.34 1.67z"/></g><g class="key-Syria"><circle cx="352" cy="322" r="1.1" fill="#2D8587" stroke="none" opacity=".7"/><path stroke-width=".47" opacity=".7" stroke="#2D8587" fill="none" stroke-linecap="butt" d="M352 322l-9-15"/><path cx="343" cy="307" r="1.67" fill="#2D8587" opacity=".7" d="M342.43 309.3l-.29-3.73 3.15 2z"/></g><g class="key-Chile"><circle cx="370" cy="347" r="1.1" fill="#932834" stroke="none" opacity=".7"/><path stroke-width=".47" opacity=".7" stroke="#932834" fill="none" stroke-linecap="butt" d="M370 347l115-93"/><path cx="485" cy="254" r="1.67" fill="#932834" opacity=".7" d="M482.65 253.75l3.65-.8-1.55 3.4z"/></g><g class="key-Kazakhstan"><circle cx="385" cy="208" r="1.1" fill="#2D8587" stroke="none" opacity=".7"/><path stroke-width=".47" opacity=".7" stroke="#2D8587" fill="none" stroke-linecap="butt" d="M385 208l111-18"/><path cx="496" cy="190" r="1.67" fill="#2D8587" opacity=".7" d="M494.08 188.62l3.57 1.11-3.03 2.19z"/></g><g class="key-Netherlands"><circle cx="470" cy="244" r="1.1" fill="#4C5C78" stroke="none" opacity=".7"/><path stroke-width=".46" opacity=".7" stroke="#4C5C78" fill="none" stroke-linecap="butt" d="M470 244l101-49"/><path cx="571" cy="195" r="1.66" fill="#4C5C78" opacity=".7" d="M568.78 194.23l3.71.05-2.26 2.94z"/></g><g class="key-Guatemala"><circle cx="336" cy="334" r="1.1" fill="#E04E4B" stroke="none" opacity=".7"/><path stroke-width=".46" opacity=".7" stroke="#E04E4B" fill="none" stroke-linecap="butt" d="M336 334l18-26"/><path cx="354" cy="308" r="1.66" fill="#E04E4B" opacity=".7" d="M351.69 308.42l3.25-1.78-.52 3.67z"/></g><g class="key-Ecuador"><circle cx="371" cy="330" r="1.1" fill="#932834" stroke="none" opacity=".7"/><path stroke-width=".46" opacity=".7" stroke="#932834" fill="none" stroke-linecap="butt" d="M371 330l33-42"/><path cx="404" cy="288" r="1.66" fill="#932834" opacity=".7" d="M401.67 288.28l3.36-1.59-.75 3.64z"/></g><g class="key-Burkina-Faso"><circle cx="143" cy="353" r="1.1" fill="#923E8B" stroke="none" opacity=".7"/><path stroke-width=".46" opacity=".7" stroke="#923E8B" fill="none" stroke-linecap="butt" d="M143 353l11 30"/><path cx="154" cy="383" r="1.66" fill="#923E8B" opacity=".7" d="M154.99 380.87l-.42 3.69-2.7-2.55z"/></g><g class="key-Malawi"><circle cx="111" cy="334" r="1.1" fill="#923E8B" stroke="none" opacity=".7"/><path stroke-width=".46" opacity=".7" stroke="#923E8B" fill="none" stroke-linecap="butt" d="M111 334l2 28"/><path cx="113" cy="362" r="1.66" fill="#923E8B" opacity=".7" d="M114.54 360.23l-1.42 3.43-1.9-3.2z"/></g><g class="key-Chad"><circle cx="150" cy="390" r="1.1" fill="#923E8B" stroke="none" opacity=".7"/><path stroke-width=".46" opacity=".7" stroke="#923E8B" fill="none" stroke-linecap="butt" d="M150 390l36-10"/><path cx="186" cy="380" r="1.66" fill="#923E8B" opacity=".7" d="M183.96 378.84l3.64.72-2.76 2.48z"/></g><g class="key-Niger"><circle cx="79" cy="503" r="1.1" fill="#923E8B" stroke="none" opacity=".7"/><path stroke-width=".46" opacity=".7" stroke="#923E8B" fill="none" stroke-linecap="butt" d="M79 503h0"/><path cx="79" cy="503" r="1.66" fill="#923E8B" opacity=".7" d="M77.34 501.34l3.32 1.66-3.32 1.66z"/></g><g class="key-Zambia"><circle cx="142" cy="336" r="1.1" fill="#923E8B" stroke="none" opacity=".7"/><path stroke-width=".46" opacity=".7" stroke="#923E8B" fill="none" stroke-linecap="butt" d="M142 336l60 24"/><path cx="202" cy="360" r="1.66" fill="#923E8B" opacity=".7" d="M201.08 357.84l2.46 2.78-3.7.3z"/></g><g class="key-Mali"><circle cx="139" cy="484" r="1.1" fill="#923E8B" stroke="none" opacity=".7"/><path stroke-width=".45" opacity=".7" stroke="#923E8B" fill="none" stroke-linecap="butt" d="M139 484h0"/><path cx="139" cy="484" r="1.65" fill="#923E8B" opacity=".7" d="M137.35 482.35l3.3 1.65-3.3 1.65z"/></g><g class="key-Zimbabwe"><circle cx="170" cy="345" r="1.1" fill="#923E8B" stroke="none" opacity=".7"/><path stroke-width=".45" opacity=".7" stroke="#923E8B" fill="none" stroke-linecap="butt" d="M170 345h0"/><path cx="170" cy="345" r="1.65" fill="#923E8B" opacity=".7" d="M168.35 343.35l3.3 1.65-3.3 1.65z"/></g><g class="key-Senegal"><circle cx="197" cy="415" r="1.1" fill="#923E8B" stroke="none" opacity=".7"/><path stroke-width=".45" opacity=".7" stroke="#923E8B" fill="none" stroke-linecap="butt" d="M197 415l14-51"/><path cx="211" cy="364" r="1.65" fill="#923E8B" opacity=".7" d="M208.97 365.15l2.47-2.74.71 3.62z"/></g><g class="key-Belgium"><circle cx="537" cy="194" r="1.1" fill="#4C5C78" stroke="none" opacity=".7"/><path stroke-width=".45" opacity=".7" stroke="#4C5C78" fill="none" stroke-linecap="butt" d="M537 194l16 2"/><path cx="553" cy="196" r="1.65" fill="#4C5C78" opacity=".7" d="M551.57 194.16l3.07 2.04-3.48 1.23z"/></g><g class="key-Cuba"><circle cx="246" cy="215" r="1.1" fill="#E04E4B" stroke="none" opacity=".7"/><path stroke-width=".45" opacity=".7" stroke="#E04E4B" fill="none" stroke-linecap="butt" d="M246 215l59-2"/><path cx="305" cy="213" r="1.65" fill="#E04E4B" opacity=".7" d="M303.3 211.4l3.35 1.54-3.24 1.76z"/></g><g class="key-Tunisia"><circle cx="361" cy="296" r="1.1" fill="#923E8B" stroke="none" opacity=".7"/><path stroke-width=".45" opacity=".7" stroke="#923E8B" fill="none" stroke-linecap="butt" d="M361 296l45 16"/><path cx="406" cy="312" r="1.65" fill="#923E8B" opacity=".7" d="M405 309.9l2.55 2.65-3.66.45z"/></g><g class="key-Greece"><circle cx="449" cy="277" r="1.1" fill="#4C5C78" stroke="none" opacity=".7"/><path stroke-width=".45" opacity=".7" stroke="#4C5C78" fill="none" stroke-linecap="butt" d="M449 277l40-40"/><path cx="489" cy="237" r="1.65" fill="#4C5C78" opacity=".7" d="M486.67 237l3.5-1.17-1.17 3.5z"/></g><g class="key-Czechia"><circle cx="438" cy="184" r="1.1" fill="#4C5C78" stroke="none" opacity=".7"/><path stroke-width=".45" opacity=".7" stroke="#4C5C78" fill="none" stroke-linecap="butt" d="M438 184l78 22"/><path cx="516" cy="206" r="1.65" fill="#4C5C78" opacity=".7" d="M514.86 203.96l2.73 2.49-3.63.69z"/></g><g class="key-Portugal"><circle cx="458" cy="302" r="1.1" fill="#4C5C78" stroke="none" opacity=".7"/><path stroke-width=".45" opacity=".7" stroke="#4C5C78" fill="none" stroke-linecap="butt" d="M458 302l43-103"/><path cx="501" cy="199" r="1.65" fill="#4C5C78" opacity=".7" d="M498.84 199.89l2.8-2.41.25 3.68z"/></g><g class="key-Dominican-Republic"><circle cx="309" cy="344" r="1.1" fill="#E04E4B" stroke="none" opacity=".7"/><path stroke-width=".45" opacity=".7" stroke="#E04E4B" fill="none" stroke-linecap="butt" d="M309 344l122 6"/><path cx="431" cy="350" r="1.65" fill="#E04E4B" opacity=".7" d="M429.43 348.27l3.22 1.81-3.38 1.49z"/></g><g class="key-Burundi"><circle cx="87" cy="350" r="1.1" fill="#923E8B" stroke="none" opacity=".7"/><path stroke-width=".45" opacity=".7" stroke="#923E8B" fill="none" stroke-linecap="butt" d="M87 350l-4 4"/><path cx="83" cy="354" r="1.65" fill="#923E8B" opacity=".7" d="M85.33 354l-3.5 1.17 1.17-3.5z"/></g><g class="key-Hungary"><circle cx="368" cy="232" r="1.1" fill="#4C5C78" stroke="none" opacity=".7"/><path stroke-width=".44" opacity=".7" stroke="#4C5C78" fill="none" stroke-linecap="butt" d="M368 232l123-31"/><path cx="491" cy="201" r="1.64" fill="#4C5C78" opacity=".7" d="M489 199.81l3.59.79-2.78 2.4z"/></g><g class="key-Sweden"><circle cx="477" cy="278" r="1.1" fill="#4C5C78" stroke="none" opacity=".7"/><path stroke-width=".44" opacity=".7" stroke="#4C5C78" fill="none" stroke-linecap="butt" d="M477 278l91-66"/><path cx="568" cy="212" r="1.64" fill="#4C5C78" opacity=".7" d="M565.71 211.64l3.62-.6-1.7 3.25z"/></g><g class="key-Azerbaijan"><circle cx="361" cy="216" r="1.1" fill="#2D8587" stroke="none" opacity=".7"/><path stroke-width=".44" opacity=".7" stroke="#2D8587" fill="none" stroke-linecap="butt" d="M361 216l89 41"/><path cx="450" cy="257" r="1.64" fill="#2D8587" opacity=".7" d="M449.2 254.82l2.29 2.87-3.67.11z"/></g><g class="key-Jordan"><circle cx="335" cy="368" r="1.1" fill="#2D8587" stroke="none" opacity=".7"/><path stroke-width=".44" opacity=".7" stroke="#2D8587" fill="none" stroke-linecap="butt" d="M335 368l76-58"/><path cx="411" cy="310" r="1.64" fill="#2D8587" opacity=".7" d="M408.7 309.7l3.6-.7-1.6 3.3z"/></g><g class="key-United-Arab-Emirates"><circle cx="605" cy="272" r="1.1" fill="#2D8587" stroke="none" opacity=".7"/><path stroke-width=".44" opacity=".7" stroke="#2D8587" fill="none" stroke-linecap="butt" d="M605 272l26-21"/><path cx="631" cy="251" r="1.64" fill="#2D8587" opacity=".7" d="M628.7 250.75l3.58-.78-1.53 3.34z"/></g><g class="key-Benin"><circle cx="197" cy="397" r="1.1" fill="#923E8B" stroke="none" opacity=".7"/><path stroke-width=".44" opacity=".7" stroke="#923E8B" fill="none" stroke-linecap="butt" d="M197 397h0"/><path cx="197" cy="397" r="1.64" fill="#923E8B" opacity=".7" d="M195.36 395.36l3.28 1.64-3.28 1.64z"/></g><g class="key-Honduras"><circle cx="258" cy="348" r="1.1" fill="#E04E4B" stroke="none" opacity=".7"/><path stroke-width=".44" opacity=".7" stroke="#E04E4B" fill="none" stroke-linecap="butt" d="M258 348l37-19"/><path cx="295" cy="329" r="1.64" fill="#E04E4B" opacity=".7" d="M292.8 328.29l3.66-.04-2.17 2.96z"/></g><g class="key-Serbia"><circle cx="384" cy="232" r="1.1" fill="#4C5C78" stroke="none" opacity=".7"/><path stroke-width=".44" opacity=".7" stroke="#4C5C78" fill="none" stroke-linecap="butt" d="M384 232l39-23"/><path cx="423" cy="209" r="1.64" fill="#4C5C78" opacity=".7" d="M420.75 208.42l3.66-.25-1.99 3.08z"/></g><g class="key-Austria"><circle cx="522" cy="195" r="1.1" fill="#4C5C78" stroke="none" opacity=".7"/><path stroke-width=".44" opacity=".7" stroke="#4C5C78" fill="none" stroke-linecap="butt" d="M522 195l39 8"/><path cx="561" cy="203" r="1.64" fill="#4C5C78" opacity=".7" d="M559.72 201.06l2.89 2.27-3.55.95z"/></g><g class="key-Bolivia"><circle cx="282" cy="323" r="1.1" fill="#932834" stroke="none" opacity=".7"/><path stroke-width=".44" opacity=".7" stroke="#932834" fill="none" stroke-linecap="butt" d="M282 323h0"/><path cx="282" cy="323" r="1.64" fill="#932834" opacity=".7" d="M280.36 321.36l3.28 1.64-3.28 1.64z"/></g><g class="key-Switzerland"><circle cx="539" cy="173" r="1.1" fill="#4C5C78" stroke="none" opacity=".7"/><path stroke-width=".44" opacity=".7" stroke="#4C5C78" fill="none" stroke-linecap="butt" d="M539 173l65 11"/><path cx="604" cy="184" r="1.64" fill="#4C5C78" opacity=".7" d="M602.66 182.1l2.96 2.17-3.51 1.07z"/></g><g class="key-Israel"><circle cx="480" cy="225" r="1.1" fill="#2D8587" stroke="none" opacity=".7"/><path stroke-width=".44" opacity=".7" stroke="#2D8587" fill="none" stroke-linecap="butt" d="M480 225l47-18"/><path cx="527" cy="207" r="1.64" fill="#2D8587" opacity=".7" d="M524.88 206.06l3.65.35-2.47 2.7z"/></g><g class="key-Togo"><circle cx="139" cy="418" r="1.1" fill="#923E8B" stroke="none" opacity=".7"/><path stroke-width=".44" opacity=".7" stroke="#923E8B" fill="none" stroke-linecap="butt" d="M139 418l4-24"/><path cx="143" cy="394" r="1.64" fill="#923E8B" opacity=".7" d="M141.11 395.35l2.16-2.97 1.08 3.5z"/></g><g class="key-Bulgaria"><circle cx="376" cy="201" r="1.1" fill="#4C5C78" stroke="none" opacity=".7"/><path stroke-width=".44" opacity=".7" stroke="#4C5C78" fill="none" stroke-linecap="butt" d="M376 201l76 25"/><path cx="452" cy="226" r="1.64" fill="#4C5C78" opacity=".7" d="M450.95 223.93l2.6 2.58-3.62.54z"/></g><g class="key-Hong-Kong"><circle cx="457" cy="263" r="1.1" fill="#2D8587" stroke="none" opacity=".7"/><path stroke-width=".44" opacity=".7" stroke="#2D8587" fill="none" stroke-linecap="butt" d="M457 263l121-129"/><path cx="578" cy="134" r="1.64" fill="#2D8587" opacity=".7" d="M575.68 134.07l3.44-1.27-1.05 3.52z"/></g><g class="key-Paraguay"><circle cx="323" cy="337" r="1.1" fill="#932834" stroke="none" opacity=".7"/><path stroke-width=".43" opacity=".7" stroke="#932834" fill="none" stroke-linecap="butt" d="M323 337l52-11"/><path cx="375" cy="326" r="1.63" fill="#932834" opacity=".7" d="M373.07 324.74l3.52.92-2.85 2.27z"/></g><g class="key-Lebanon"><circle cx="393" cy="268" r="1.1" fill="#2D8587" stroke="none" opacity=".7"/><path stroke-width=".43" opacity=".7" stroke="#2D8587" fill="none" stroke-linecap="butt" d="M393 268l31-12"/><path cx="424" cy="256" r="1.63" fill="#2D8587" opacity=".7" d="M421.9 255.07l3.62.34-2.45 2.7z"/></g><g class="key-Nicaragua"><circle cx="266" cy="332" r="1.1" fill="#E04E4B" stroke="none" opacity=".7"/><path stroke-width=".43" opacity=".7" stroke="#E04E4B" fill="none" stroke-linecap="butt" d="M266 332l43-5"/><path cx="309" cy="327" r="1.63" fill="#E04E4B" opacity=".7" d="M307.2 325.57l3.42 1.24-3.05 2z"/></g><g class="key-El-Salvador"><circle cx="342" cy="329" r="1.1" fill="#E04E4B" stroke="none" opacity=".7"/><path stroke-width=".43" opacity=".7" stroke="#E04E4B" fill="none" stroke-linecap="butt" d="M342 329h0"/><path cx="342" cy="329" r="1.63" fill="#E04E4B" opacity=".7" d="M340.37 327.37l3.26 1.63-3.26 1.63z"/></g><g class="key-Kyrgyzstan"><circle cx="272" cy="337" r="1.1" fill="#2D8587" stroke="none" opacity=".7"/><path stroke-width=".43" opacity=".7" stroke="#2D8587" fill="none" stroke-linecap="butt" d="M272 337l13-7"/><path cx="285" cy="330" r="1.63" fill="#2D8587" opacity=".7" d="M282.8 329.34l3.64-.11-2.1 2.98z"/></g><g class="key-Denmark"><circle cx="554" cy="193" r="1.1" fill="#4C5C78" stroke="none" opacity=".7"/><path stroke-width=".43" opacity=".7" stroke="#4C5C78" fill="none" stroke-linecap="butt" d="M554 193l16-2"/><path cx="570" cy="191" r="1.63" fill="#4C5C78" opacity=".7" d="M568.18 189.58l3.44 1.22-3.04 2.02z"/></g><g class="key-Singapore"><circle cx="454" cy="221" r="1.1" fill="#2D8587" stroke="none" opacity=".7"/><path stroke-width=".43" opacity=".7" stroke="#2D8587" fill="none" stroke-linecap="butt" d="M454 221l162-98"/><path cx="616" cy="123" r="1.63" fill="#2D8587" opacity=".7" d="M613.76 122.45l3.63-.3-1.94 3.09z"/></g><g class="key-Finland"><circle cx="444" cy="196" r="1.1" fill="#4C5C78" stroke="none" opacity=".7"/><path stroke-width=".43" opacity=".7" stroke="#4C5C78" fill="none" stroke-linecap="butt" d="M444 196l104-2"/><path cx="548" cy="194" r="1.63" fill="#4C5C78" opacity=".7" d="M546.34 192.4l3.29 1.57-3.23 1.7z"/></g><g class="key-Slovakia"><circle cx="414" cy="199" r="1.1" fill="#4C5C78" stroke="none" opacity=".7"/><path stroke-width=".43" opacity=".7" stroke="#4C5C78" fill="none" stroke-linecap="butt" d="M414 199l86 24"/><path cx="500" cy="223" r="1.63" fill="#4C5C78" opacity=".7" d="M498.87 221l2.7 2.44-3.58.7z"/></g><g class="key-Norway"><circle cx="593" cy="206" r="1.1" fill="#4C5C78" stroke="none" opacity=".7"/><path stroke-width=".43" opacity=".7" stroke="#4C5C78" fill="none" stroke-linecap="butt" d="M593 206l50-12"/><path cx="643" cy="194" r="1.63" fill="#4C5C78" opacity=".7" d="M641.03 192.8l3.55.82-2.78 2.35z"/></g><g class="key-Costa-Rica"><circle cx="397" cy="267" r="1.1" fill="#E04E4B" stroke="none" opacity=".7"/><path stroke-width=".43" opacity=".7" stroke="#E04E4B" fill="none" stroke-linecap="butt" d="M397 267l34 14"/><path cx="431" cy="281" r="1.63" fill="#E04E4B" opacity=".7" d="M430.11 278.87l2.4 2.75-3.64.27z"/></g><g class="key-Ireland"><circle cx="468" cy="236" r="1.1" fill="#4C5C78" stroke="none" opacity=".7"/><path stroke-width=".43" opacity=".7" stroke="#4C5C78" fill="none" stroke-linecap="butt" d="M468 236l125-46"/><path cx="593" cy="190" r="1.63" fill="#4C5C78" opacity=".7" d="M590.9 189.03l3.63.4-2.5 2.66z"/></g><g class="key-New-Zealand"><circle cx="462" cy="277" r="1.1" fill="#A8633C" stroke="none" opacity=".7"/><path stroke-width=".43" opacity=".7" stroke="#A8633C" fill="none" stroke-linecap="butt" d="M462 277l75-52"/><path cx="537" cy="225" r="1.63" fill="#A8633C" opacity=".7" d="M534.73 224.59l3.61-.52-1.75 3.2z"/></g><g class="key-Palestine"><circle cx="302" cy="312" r="1.1" fill="#2D8587" stroke="none" opacity=".7"/><path stroke-width=".43" opacity=".7" stroke="#2D8587" fill="none" stroke-linecap="butt" d="M302 312l-1-13"/><path cx="301" cy="299" r="1.63" fill="#2D8587" opacity=".7" d="M299.5 300.75l1.37-3.38 1.88 3.13z"/></g><g class="key-Oman"><circle cx="444" cy="331" r="1.1" fill="#2D8587" stroke="none" opacity=".7"/><path stroke-width=".43" opacity=".7" stroke="#2D8587" fill="none" stroke-linecap="butt" d="M444 331l109-43"/><path cx="553" cy="288" r="1.63" fill="#2D8587" opacity=".7" d="M550.89 287.08l3.63.32-2.44 2.71z"/></g><g class="key-Croatia"><circle cx="427" cy="270" r="1.1" fill="#4C5C78" stroke="none" opacity=".7"/><path stroke-width=".43" opacity=".7" stroke="#4C5C78" fill="none" stroke-linecap="butt" d="M427 270l47-44"/><path cx="474" cy="226" r="1.63" fill="#4C5C78" opacity=".7" d="M471.7 225.92l3.49-1.03-1.27 3.41z"/></g><g class="key-Moldova"><circle cx="252" cy="250" r="1.1" fill="#4C5C78" stroke="none" opacity=".7"/><path stroke-width=".43" opacity=".7" stroke="#4C5C78" fill="none" stroke-linecap="butt" d="M252 250l77 15"/><path cx="329" cy="265" r="1.63" fill="#4C5C78" opacity=".7" d="M327.71 263.09l2.89 2.22-3.51.98z"/></g><g class="key-Georgia"><circle cx="349" cy="276" r="1.1" fill="#2D8587" stroke="none" opacity=".7"/><path stroke-width=".43" opacity=".7" stroke="#2D8587" fill="none" stroke-linecap="butt" d="M349 276l52-25"/><path cx="401" cy="251" r="1.63" fill="#2D8587" opacity=".7" d="M398.82 250.24l3.65.05-2.23 2.89z"/></g><g class="key-Panama"><circle cx="409" cy="335" r="1.1" fill="#E04E4B" stroke="none" opacity=".7"/><path stroke-width=".43" opacity=".7" stroke="#E04E4B" fill="none" stroke-linecap="butt" d="M409 335l71-10"/><path cx="480" cy="325" r="1.63" fill="#E04E4B" opacity=".7" d="M478.16 323.61l3.45 1.16-3 2.07z"/></g><g class="key-Kuwait"><circle cx="611" cy="343" r="1.1" fill="#2D8587" stroke="none" opacity=".7"/><path stroke-width=".43" opacity=".7" stroke="#2D8587" fill="none" stroke-linecap="butt" d="M611 343l14-21"/><path cx="625" cy="322" r="1.63" fill="#2D8587" opacity=".7" d="M622.74 322.45l3.16-1.8-.45 3.61z"/></g><g class="key-Bosnia-and-Herzegovina"><circle cx="368" cy="251" r="1.1" fill="#4C5C78" stroke="none" opacity=".7"/><path stroke-width=".42" opacity=".7" stroke="#4C5C78" fill="none" stroke-linecap="butt" d="M368 251h0"/><path cx="368" cy="251" r="1.62" fill="#4C5C78" opacity=".7" d="M366.38 249.38l3.24 1.62-3.24 1.62z"/></g><g class="key-Puerto-Rico"><circle cx="543" cy="303" r="1.1" fill="#E04E4B" stroke="none" opacity=".7"/><path stroke-width=".42" opacity=".7" stroke="#E04E4B" fill="none" stroke-linecap="butt" d="M543 303h0"/><path cx="543" cy="303" r="1.62" fill="#E04E4B" opacity=".7" d="M541.38 301.38l3.24 1.62-3.24 1.62z"/></g><g class="key-Uruguay"><circle cx="423" cy="253" r="1.1" fill="#932834" stroke="none" opacity=".7"/><path stroke-width=".42" opacity=".7" stroke="#932834" fill="none" stroke-linecap="butt" d="M423 253l48 10"/><path cx="471" cy="263" r="1.62" fill="#932834" opacity=".7" d="M469.74 261.08l2.85 2.25-3.5.93z"/></g><g class="key-Liberia"><circle cx="119" cy="401" r="1.1" fill="#923E8B" stroke="none" opacity=".7"/><path stroke-width=".42" opacity=".7" stroke="#923E8B" fill="none" stroke-linecap="butt" d="M119 401h0"/><path cx="119" cy="401" r="1.62" fill="#923E8B" opacity=".7" d="M117.38 399.38l3.24 1.62-3.24 1.62z"/></g><g class="key-Lithuania"><circle cx="372" cy="249" r="1.1" fill="#4C5C78" stroke="none" opacity=".7"/><path stroke-width=".42" opacity=".7" stroke="#4C5C78" fill="none" stroke-linecap="butt" d="M372 249l124-49"/><path cx="496" cy="200" r="1.62" fill="#4C5C78" opacity=".7" d="M493.9 199.09l3.6.31-2.41 2.7z"/></g><g class="key-Armenia"><circle cx="368" cy="233" r="1.1" fill="#2D8587" stroke="none" opacity=".7"/><path stroke-width=".42" opacity=".7" stroke="#2D8587" fill="none" stroke-linecap="butt" d="M368 233l4 11"/><path cx="372" cy="244" r="1.62" fill="#2D8587" opacity=".7" d="M372.97 241.92l-.42 3.6-2.63-2.49z"/></g><g class="key-Albania"><circle cx="308" cy="299" r="1.1" fill="#4C5C78" stroke="none" opacity=".7"/><path stroke-width=".42" opacity=".7" stroke="#4C5C78" fill="none" stroke-linecap="butt" d="M308 299l86-29"/><path cx="394" cy="270" r="1.62" fill="#4C5C78" opacity=".7" d="M391.95 268.98l3.59.5-2.56 2.57z"/></g><g class="key-Mongolia"><circle cx="249" cy="316" r="1.1" fill="#2D8587" stroke="none" opacity=".7"/><path stroke-width=".42" opacity=".7" stroke="#2D8587" fill="none" stroke-linecap="butt" d="M249 316l59-47"/><path cx="308" cy="269" r="1.62" fill="#2D8587" opacity=".7" d="M305.72 268.74l3.55-.75-1.53 3.29z"/></g><g class="key-Qatar"><circle cx="634" cy="352" r="1.1" fill="#2D8587" stroke="none" opacity=".7"/><path stroke-width=".42" opacity=".7" stroke="#2D8587" fill="none" stroke-linecap="butt" d="M634 352l84-84"/><path cx="718" cy="268" r="1.62" fill="#2D8587" opacity=".7" d="M715.7 268l3.45-1.15-1.15 3.44z"/></g><g class="key-Botswana"><circle cx="368" cy="339" r="1.1" fill="#923E8B" stroke="none" opacity=".7"/><path stroke-width=".42" opacity=".7" stroke="#923E8B" fill="none" stroke-linecap="butt" d="M368 339l72-38"/><path cx="440" cy="301" r="1.62" fill="#923E8B" opacity=".7" d="M437.81 300.32l3.62-.08-2.1 2.95z"/></g><g class="key-Namibia"><circle cx="326" cy="340" r="1.1" fill="#923E8B" stroke="none" opacity=".7"/><path stroke-width=".42" opacity=".7" stroke="#923E8B" fill="none" stroke-linecap="butt" d="M326 340l23 20"/><path cx="349" cy="360" r="1.62" fill="#923E8B" opacity=".7" d="M348.84 357.71l1.38 3.35-3.5-.9z"/></g><g class="key-North-Macedonia"><circle cx="369" cy="267" r="1.1" fill="#4C5C78" stroke="none" opacity=".7"/><path stroke-width=".42" opacity=".7" stroke="#4C5C78" fill="none" stroke-linecap="butt" d="M369 267l50 41"/><path cx="419" cy="308" r="1.62" fill="#4C5C78" opacity=".7" d="M418.77 305.72l1.48 3.3-3.53-.8z"/></g><g class="key-Slovenia"><circle cx="464" cy="253" r="1.1" fill="#4C5C78" stroke="none" opacity=".7"/><path stroke-width=".42" opacity=".7" stroke="#4C5C78" fill="none" stroke-linecap="butt" d="M464 253l44-49"/><path cx="508" cy="204" r="1.62" fill="#4C5C78" opacity=".7" d="M505.71 204.12l3.37-1.33-.96 3.5z"/></g><g class="key-Latvia"><circle cx="448" cy="503" r="1.1" fill="#4C5C78" stroke="none" opacity=".7"/><path stroke-width=".42" opacity=".7" stroke="#4C5C78" fill="none" stroke-linecap="butt" d="M448 503l36-291"/><path cx="484" cy="212" r="1.62" fill="#4C5C78" opacity=".7" d="M482.2 213.4l2-3 1.2 3.4z"/></g><g class="key-Lesotho"><circle cx="202" cy="413" r="1.1" fill="#923E8B" stroke="none" opacity=".7"/><path stroke-width=".42" opacity=".7" stroke="#923E8B" fill="none" stroke-linecap="butt" d="M202 413l3-52"/><path cx="205" cy="361" r="1.62" fill="#923E8B" opacity=".7" d="M203.29 362.52l1.8-3.14 1.43 3.33z"/></g><g class="key-Gabon"><circle cx="420" cy="360" r="1.1" fill="#923E8B" stroke="none" opacity=".7"/><path stroke-width=".42" opacity=".7" stroke="#923E8B" fill="none" stroke-linecap="butt" d="M420 360h0"/><path cx="420" cy="360" r="1.62" fill="#923E8B" opacity=".7" d="M418.38 358.38l3.24 1.62-3.24 1.62z"/></g><g class="key-Gambia"><circle cx="166" cy="406" r="1.1" fill="#923E8B" stroke="none" opacity=".7"/><path stroke-width=".42" opacity=".7" stroke="#923E8B" fill="none" stroke-linecap="butt" d="M166 406h0"/><path cx="166" cy="406" r="1.62" fill="#923E8B" opacity=".7" d="M164.38 404.38l3.24 1.62-3.24 1.62z"/></g><g class="key-Bahrain"><circle cx="503" cy="299" r="1.1" fill="#2D8587" stroke="none" opacity=".7"/><path stroke-width=".42" opacity=".7" stroke="#2D8587" fill="none" stroke-linecap="butt" d="M503 299l56-42"/><path cx="559" cy="257" r="1.62" fill="#2D8587" opacity=".7" d="M556.73 256.68l3.57-.65-1.62 3.24z"/></g><g class="key-Trinidad-and-Tobago"><circle cx="524" cy="271" r="1.1" fill="#E04E4B" stroke="none" opacity=".7"/><path stroke-width=".42" opacity=".7" stroke="#E04E4B" fill="none" stroke-linecap="butt" d="M524 271l2-3"/><path cx="526" cy="268" r="1.62" fill="#E04E4B" opacity=".7" d="M523.75 268.45l3.15-1.8-.45 3.6z"/></g><g class="key-Estonia"><circle cx="490" cy="191" r="1.1" fill="#4C5C78" stroke="none" opacity=".7"/><path stroke-width=".42" opacity=".7" stroke="#4C5C78" fill="none" stroke-linecap="butt" d="M490 191l9-6"/><path cx="499" cy="185" r="1.62" fill="#4C5C78" opacity=".7" d="M496.75 184.55l3.6-.45-1.8 3.15z"/></g><g class="key-Mauritius"><circle cx="421" cy="286" r="1.1" fill="#923E8B" stroke="none" opacity=".7"/><path stroke-width=".42" opacity=".7" stroke="#923E8B" fill="none" stroke-linecap="butt" d="M421 286l30-23"/><path cx="451" cy="263" r="1.62" fill="#923E8B" opacity=".7" d="M448.73 262.7l3.56-.69-1.59 3.26z"/></g><g class="key-Cyprus"><circle cx="446" cy="268" r="1.1" fill="#4C5C78" stroke="none" opacity=".7"/><path stroke-width=".42" opacity=".7" stroke="#4C5C78" fill="none" stroke-linecap="butt" d="M446 268l56-64"/><path cx="502" cy="204" r="1.62" fill="#4C5C78" opacity=".7" d="M499.71 204.15l3.36-1.37-.92 3.5z"/></g><g class="key-Eswatini"><circle cx="250" cy="228" r="1.1" fill="#923E8B" stroke="none" opacity=".7"/><path stroke-width=".42" opacity=".7" stroke="#923E8B" fill="none" stroke-linecap="butt" d="M250 228l81 124"/><path cx="331" cy="352" r="1.62" fill="#923E8B" opacity=".7" d="M331.47 349.76l.42 3.6-3.13-1.83z"/></g><g class="key-Comoros"><circle cx="165" cy="382" r="1.1" fill="#923E8B" stroke="none" opacity=".7"/><path stroke-width=".41" opacity=".7" stroke="#923E8B" fill="none" stroke-linecap="butt" d="M165 382h0"/><path cx="165" cy="382" r="1.61" fill="#923E8B" opacity=".7" d="M163.39 380.39l3.22 1.61-3.22 1.61z"/></g><g class="key-Montenegro"><circle cx="381" cy="279" r="1.1" fill="#4C5C78" stroke="none" opacity=".7"/><path stroke-width=".41" opacity=".7" stroke="#4C5C78" fill="none" stroke-linecap="butt" d="M381 279l77-13"/><path cx="458" cy="266" r="1.61" fill="#4C5C78" opacity=".7" d="M456.14 264.68l3.45 1.05-2.91 2.13z"/></g><g class="key-Luxembourg"><circle cx="502" cy="356" r="1.1" fill="#4C5C78" stroke="none" opacity=".7"/><path stroke-width=".41" opacity=".7" stroke="#4C5C78" fill="none" stroke-linecap="butt" d="M502 356l95-144"/><path cx="597" cy="212" r="1.61" fill="#4C5C78" opacity=".7" d="M594.77 212.46l3.12-1.8-.43 3.57z"/></g><g class="key-Malta"><circle cx="486" cy="224" r="1.1" fill="#4C5C78" stroke="none" opacity=".7"/><path stroke-width=".41" opacity=".7" stroke="#4C5C78" fill="none" stroke-linecap="butt" d="M486 224l32-3"/><path cx="518" cy="221" r="1.61" fill="#4C5C78" opacity=".7" d="M516.25 219.55l3.35 1.3-3.05 1.9z"/></g><g class="key-Iceland"><circle cx="518" cy="283" r="1.1" fill="#4C5C78" stroke="none" opacity=".7"/><path stroke-width=".41" opacity=".7" stroke="#4C5C78" fill="none" stroke-linecap="butt" d="M518 283l38-74"/><path cx="556" cy="209" r="1.61" fill="#4C5C78" opacity=".7" d="M553.83 209.7l2.9-2.13-.03 3.6z"/></g><g class="key-Seychelles"><circle cx="437" cy="316" r="1.1" fill="#923E8B" stroke="none" opacity=".7"/><path stroke-width=".41" opacity=".7" stroke="#923E8B" fill="none" stroke-linecap="butt" d="M437 316l6 15"/><path cx="443" cy="331" r="1.61" fill="#923E8B" opacity=".7" d="M443.9 328.9l-.3 3.6-2.7-2.4z"/></g><g class="backgroundLabels" fill="#333" font-weight="400"><text x="422.97" y="174.47" font-size="14.3" fill="#fff" stroke="#fff" stroke-linecap="round" stroke-linejoin="round" stroke-width=".25em">China</text><text x="422.97" y="174.47" font-size="14.3" fill="#2D8587">China</text><text x="300" y="317" font-size="14.07" fill="#fff" stroke="#fff" stroke-linecap="round" stroke-linejoin="round" stroke-width=".25em">India</text><text x="300" y="317" font-size="14.07" fill="#2D8587">India</text><text x="593.45" y="193.73" font-size="11.75" fill="#fff" stroke="#fff" stroke-linecap="round" stroke-linejoin="round" stroke-width=".25em">United States</text><text x="593.45" y="193.73" font-size="11.75" fill="#E04E4B">United States</text><text x="403.99" y="308.19" font-size="11.61" fill="#fff" stroke="#fff" stroke-linecap="round" stroke-linejoin="round" stroke-width=".25em">Indonesia</text><text x="403.99" y="308.19" font-size="11.61" fill="#2D8587">Indonesia</text><text x="450.98" y="287.98" font-size="11.48" fill="#fff" stroke="#fff" stroke-linecap="round" stroke-linejoin="round" stroke-width=".25em">Brazil</text><text x="450.98" y="287.98" font-size="11.48" fill="#932834">Brazil</text><text x="500" y="177" font-size="11.34" fill="#fff" stroke="#fff" stroke-linecap="round" stroke-linejoin="round" stroke-width=".25em">Russia</text><text x="500" y="177" font-size="11.34" fill="#4C5C78">Russia</text><text x="552.75" y="144.43" font-size="11.3" fill="#fff" stroke="#fff" stroke-linecap="round" stroke-linejoin="round" stroke-width=".25em">Japan</text><text x="552.75" y="144.43" font-size="11.3" fill="#2D8587">Japan</text><text x="158.87" y="437.63" font-size="11.29" fill="#fff" stroke="#fff" stroke-linecap="round" stroke-linejoin="round" stroke-width=".25em">Nigeria</text><text x="158.87" y="437.63" font-size="11.29" fill="#923E8B">Nigeria</text><text x="453.33" y="261.27" font-size="11.29" fill="#fff" stroke="#fff" stroke-linecap="round" stroke-linejoin="round" stroke-width=".25em">Mexico</text><text x="453.33" y="261.27" font-size="11.29" fill="#E04E4B">Mexico</text><text x="329" y="203" font-size="11.22" fill="#fff" stroke="#fff" stroke-linecap="round" stroke-linejoin="round" stroke-width=".25em">Vietnam</text><text x="329" y="203" font-size="11.22" fill="#2D8587">Vietnam</text><text x="479.28" y="240.41" font-size="11.18" fill="#fff" stroke="#fff" stroke-linecap="round" stroke-linejoin="round" stroke-width=".25em">Turkey</text><text x="479.28" y="240.41" font-size="11.18" fill="#2D8587">Turkey</text><text x="69" y="348" font-size="11.18" fill="#fff" stroke="#fff" stroke-linecap="round" stroke-linejoin="round" stroke-width=".25em">Democratic Republic of Congo</text><text x="69" y="348" font-size="11.18" fill="#923E8B">Democratic Republic of Congo</text><text x="551.33" y="217.5" font-size="11.15" fill="#fff" stroke="#fff" stroke-linecap="round" stroke-linejoin="round" stroke-width=".25em">France</text><text x="551.33" y="217.5" font-size="11.15" fill="#4C5C78">France</text><text x="393.21" y="233.3" font-size="11.11" fill="#fff" stroke="#fff" stroke-linecap="round" stroke-linejoin="round" stroke-width=".25em">Ukraine</text><text x="393.21" y="233.3" font-size="11.11" fill="#4C5C78">Ukraine</text><text x="438.77" y="327.06" font-size="11.09" fill="#fff" stroke="#fff" stroke-linecap="round" stroke-linejoin="round" stroke-width=".25em">Algeria</text><text x="438.77" y="327.06" font-size="11.09" fill="#923E8B">Algeria</text><text x="591.34" y="316.51" font-size="11.07" fill="#fff" stroke="#fff" stroke-linecap="round" stroke-linejoin="round" stroke-width=".25em">Saudi Arabia</text><text x="591.34" y="316.51" font-size="11.07" fill="#2D8587">Saudi Arabia</text><text x="414.01" y="281.01" font-size="11.07" fill="#fff" stroke="#fff" stroke-linecap="round" stroke-linejoin="round" stroke-width=".25em">Peru</text><text x="414.01" y="281.01" font-size="11.07" fill="#932834">Peru</text><text x="253.69" y="347.62" font-size="11.07" fill="#fff" stroke="#fff" stroke-linecap="round" stroke-linejoin="round" stroke-width=".25em">Ghana</text><text x="253.69" y="347.62" font-size="11.07" fill="#923E8B">Ghana</text><text x="312.97" y="381.45" font-size="11.06" fill="#fff" stroke="#fff" stroke-linecap="round" stroke-linejoin="round" stroke-width=".25em">Yemen</text><text x="312.97" y="381.45" font-size="11.06" fill="#2D8587">Yemen</text><text x="183" y="469" font-size="11.06" fill="#fff" stroke="#fff" stroke-linecap="round" stroke-linejoin="round" stroke-width=".25em">Nepal</text><text x="183" y="469" font-size="11.06" fill="#2D8587">Nepal</text><text x="236.95" y="420.6" font-size="11.05" fill="#fff" stroke="#fff" stroke-linecap="round" stroke-linejoin="round" stroke-width=".25em">Cote d&apos;Ivoire</text><text x="236.95" y="420.6" font-size="11.05" fill="#923E8B">Cote d&apos;Ivoire</text><text x="155.72" y="393.21" font-size="11.04" fill="#fff" stroke="#fff" stroke-linecap="round" stroke-linejoin="round" stroke-width=".25em">Burkina Faso</text><text x="155.72" y="393.21" font-size="11.04" fill="#923E8B">Burkina Faso</text><text x="113.36" y="372.5" font-size="11.03" fill="#fff" stroke="#fff" stroke-linecap="round" stroke-linejoin="round" stroke-width=".25em">Malawi</text><text x="113.36" y="372.5" font-size="11.03" fill="#923E8B">Malawi</text><text x="79" y="503" font-size="11.03" fill="#fff" stroke="#fff" stroke-linecap="round" stroke-linejoin="round" stroke-width=".25em">Niger</text><text x="79" y="503" font-size="11.03" fill="#923E8B">Niger</text><text x="206.64" y="367.37" font-size="11.03" fill="#fff" stroke="#fff" stroke-linecap="round" stroke-linejoin="round" stroke-width=".25em">Zambia</text><text x="206.64" y="367.37" font-size="11.03" fill="#923E8B">Zambia</text><text x="139" y="484" font-size="11.03" fill="#fff" stroke="#fff" stroke-linecap="round" stroke-linejoin="round" stroke-width=".25em">Mali</text><text x="139" y="484" font-size="11.03" fill="#923E8B">Mali</text><text x="502.93" y="194.39" font-size="11.02" fill="#fff" stroke="#fff" stroke-linecap="round" stroke-linejoin="round" stroke-width=".25em">Portugal</text><text x="502.93" y="194.39" font-size="11.02" fill="#4C5C78">Portugal</text><text x="435.99" y="355.76" font-size="11.02" fill="#fff" stroke="#fff" stroke-linecap="round" stroke-linejoin="round" stroke-width=".25em">Dominican Republic</text><text x="435.99" y="355.76" font-size="11.02" fill="#E04E4B">Dominican Republic</text><text x="529.85" y="247.86" font-size="11.02" fill="#fff" stroke="#fff" stroke-linecap="round" stroke-linejoin="round" stroke-width=".25em">United Arab Emirates</text><text x="529.85" y="247.86" font-size="11.02" fill="#2D8587">United Arab Emirates</text><text x="427.31" y="206.46" font-size="11.02" fill="#fff" stroke="#fff" stroke-linecap="round" stroke-linejoin="round" stroke-width=".25em">Serbia</text><text x="427.31" y="206.46" font-size="11.02" fill="#4C5C78">Serbia</text><text x="342" y="329" font-size="11.01" fill="#fff" stroke="#fff" stroke-linecap="round" stroke-linejoin="round" stroke-width=".25em">El Salvador</text><text x="342" y="329" font-size="11.01" fill="#E04E4B">El Salvador</text><text x="620.28" y="134.41" font-size="11.01" fill="#fff" stroke="#fff" stroke-linecap="round" stroke-linejoin="round" stroke-width=".25em">Singapore</text><text x="620.28" y="134.41" font-size="11.01" fill="#2D8587">Singapore</text><text x="255.14" y="294.01" font-size="11.01" fill="#fff" stroke="#fff" stroke-linecap="round" stroke-linejoin="round" stroke-width=".25em">Palestine</text><text x="255.14" y="294.01" font-size="11.01" fill="#2D8587">Palestine</text><text x="557.65" y="286.17" font-size="11.01" fill="#fff" stroke="#fff" stroke-linecap="round" stroke-linejoin="round" stroke-width=".25em">Oman</text><text x="557.65" y="286.17" font-size="11.01" fill="#2D8587">Oman</text><text x="477.65" y="222.58" font-size="11.01" fill="#fff" stroke="#fff" stroke-linecap="round" stroke-linejoin="round" stroke-width=".25em">Croatia</text><text x="477.65" y="222.58" font-size="11.01" fill="#4C5C78">Croatia</text><text x="333.91" y="271.46" font-size="11.01" fill="#fff" stroke="#fff" stroke-linecap="round" stroke-linejoin="round" stroke-width=".25em">Moldova</text><text x="333.91" y="271.46" font-size="11.01" fill="#4C5C78">Moldova</text><text x="484.95" y="324.3" font-size="11.01" fill="#fff" stroke="#fff" stroke-linecap="round" stroke-linejoin="round" stroke-width=".25em">Panama</text><text x="484.95" y="324.3" font-size="11.01" fill="#E04E4B">Panama</text><text x="373.71" y="254.2" font-size="11.01" fill="#fff" stroke="#fff" stroke-linecap="round" stroke-linejoin="round" stroke-width=".25em">Armenia</text><text x="373.71" y="254.2" font-size="11.01" fill="#2D8587">Armenia</text><text x="693.91" y="264.46" font-size="11.01" fill="#fff" stroke="#fff" stroke-linecap="round" stroke-linejoin="round" stroke-width=".25em">Qatar</text><text x="693.91" y="264.46" font-size="11.01" fill="#2D8587">Qatar</text><text x="333.73" y="361.69" font-size="11" fill="#fff" stroke="#fff" stroke-linecap="round" stroke-linejoin="round" stroke-width=".25em">Eswatini</text><text x="333.73" y="361.69" font-size="11" fill="#923E8B">Eswatini</text></g></g><g class="ScatterColorLegend clickable" cursor="pointer"><g class="legendMark"><path fill="#923E8B" d="M738.09 125.2h9v9h-9z"/><text font-size="12.6" x="752.1" y="133.5"><tspan x="752.09" y="133.48">Africa</tspan></text></g><g class="legendMark"><path fill="#2D8587" d="M738.09 142.8h9v9h-9z"/><text font-size="12.6" x="752.1" y="151.1"><tspan x="752.09" y="151.08">Asia</tspan></text></g><g class="legendMark"><path fill="#4C5C78" d="M738.09 160.4h9v9h-9z"/><text font-size="12.6" x="752.1" y="168.7"><tspan x="752.09" y="168.68">Europe</tspan></text></g><g class="legendMark"><path fill="#E04E4B" d="M738.09 178h9v9h-9z"/><text font-size="12.6" x="752.1" y="186.3"><tspan x="752.09" y="186.28">North America</tspan></text></g><g class="legendMark"><path fill="#A8633C" d="M738.09 195.6h9v9h-9z"/><text font-size="12.6" x="752.1" y="203.9"><tspan x="752.09" y="203.88">Oceania</tspan></text></g><g class="legendMark"><path fill="#932834" d="M738.09 213.2h9v9h-9z"/><text font-size="12.6" x="752.1" y="221.5"><tspan x="752.09" y="221.48">South America</tspan></text></g></g><path stroke="#ccc" d="M738.09 231H830"/><g class="clickable"><g class="ConnectedScatterLegend"><text font-size="12.6" x="738.1" y="250.1" fill="#333"><tspan x="738.09" y="250.08">1970</tspan></text><text font-size="12.6" x="806.8" y="250.1" fill="#333"><tspan x="806.78" y="250.08">2015</tspan></text><path stroke="#666" stroke-width="1" d="M771.32 245.8h30.46"/><circle cx="771.32" cy="245.8" r="2" fill="#666" stroke="#ccc" stroke-width=".2"/><path cx="801.78" cy="245.8" r="3" fill="#666" stroke="#ccc" stroke-width=".2" d="M798.78 242.8l6 3-6 3z"/></g></g></g><g class="SourcesFooter" fill="#777"><g fill="#777"><text font-size="12.6" x="15" y="582.5"><tspan x="15" y="582.48">Source: Altinok, Angrist, and Patrinos (2018), Maddison Project Database 2020 (Bolt and van Zanden (2020))</tspan></text></g><text font-size="12.6" x="796.4" y="582.5"><tspan x="796.44" y="582.48"><a class="cclogo" href="http://creativecommons.org/licenses/by/4.0/deed.en_US" target="_blank" fill="#777">CC BY</a></tspan></text></g></svg>