<svg xmlns="http://www.w3.org/2000/svg" version="1.1" style="background-color:#fff;-webkit-font-smoothing:antialiased" width="850" height="600" viewBox="0 0 850 600" font-family="Lato,'Helvetica Neue',Helvetica,Arial,sans-serif" font-size="18" text-rendering="optimizeLegibility"><g class="HeaderView"><g transform="matrix(.29 0 0 .29 774 15)"><svg width="210" height="120" viewBox="0 0 210 120" fill="none" xmlns="http://www.w3.org/2000/svg"><g clip-path="url(#clip0)"><path d="M0 0h210v107.89H0V0z" fill="#002147"/><path d="M40.98 32.25c0 2.36-.38 4.53-1.12 6.51a14.26 14.26 0 01-8.1 8.4c-1.9.78-4.02 1.17-6.34 1.17a16.6 16.6 0 01-6.33-1.17 14.31 14.31 0 01-8.08-8.4 18.29 18.29 0 01-1.12-6.51c0-2.36.38-4.53 1.12-6.5a14.32 14.32 0 018.07-8.44c1.92-.8 4.03-1.19 6.34-1.19 2.32 0 4.43.4 6.34 1.19 1.92.8 3.56 1.9 4.93 3.34a14.87 14.87 0 013.17 5.1 18.1 18.1 0 011.12 6.5zm-4.38 0c0-1.94-.26-3.68-.8-5.22a10.91 10.91 0 00-2.24-3.89 9.68 9.68 0 00-3.52-2.46 11.95 11.95 0 00-4.62-.86c-1.68 0-3.21.28-4.6.86a9.88 9.88 0 00-3.54 2.46 10.91 10.91 0 00-2.24 3.9c-.53 1.53-.8 3.27-.8 5.2 0 1.94.27 3.68.8 5.22a11.17 11.17 0 002.24 3.9 10.01 10.01 0 003.55 2.44c1.38.56 2.9.83 4.6.83 1.7 0 3.24-.27 4.61-.83a9.8 9.8 0 003.52-2.44 11.17 11.17 0 002.25-3.9c.53-1.54.8-3.28.8-5.21zm26.22-6.54V48H60.5c-.56 0-.9-.27-1.05-.81l-.31-2.4a12.45 12.45 0 01-3.26 2.6c-1.2.64-2.58.96-4.13.96-1.22 0-2.3-.2-3.24-.6a6.52 6.52 0 01-2.33-1.7 7.37 7.37 0 01-1.43-2.67c-.3-1.04-.46-2.2-.46-3.45V25.7h3.91v14.22c0 1.68.38 2.99 1.15 3.91.77.93 1.96 1.39 3.54 1.39 1.16 0 2.24-.27 3.23-.82a10.42 10.42 0 002.8-2.28V25.7h3.91zm8.61 4.47a9.94 9.94 0 012.6-3.56 5.64 5.64 0 013.76-1.3c.47 0 .92.05 1.34.15.44.1.83.27 1.17.49l-.3 2.92c-.09.37-.3.55-.66.55-.2 0-.5-.04-.9-.13a6.21 6.21 0 00-3.24.18c-.54.2-1.03.5-1.47.92-.42.4-.81.9-1.17 1.5-.33.58-.64 1.26-.92 2.02V48H67.7V25.71h2.25c.42 0 .72.08.88.25.16.16.27.44.33.83l.26 3.39zm61.16-13.7L122.75 48h-3.82l-7.99-24.05a21.95 21.95 0 01-.42-1.58 38.36 38.36 0 01-.44 1.58L102.05 48h-3.83L88.4 16.47h3.54c.38 0 .7.1.95.29.26.2.43.43.5.73l6.52 21.9c.1.4.2.83.28 1.28.1.46.2.94.29 1.46l.3-1.46c.12-.47.25-.9.38-1.27l7.41-21.91c.1-.25.26-.48.51-.69.27-.22.58-.33.95-.33h1.23c.38 0 .69.1.92.29.24.2.41.43.53.73l7.4 21.9a28.4 28.4 0 01.68 2.62 29.52 29.52 0 01.52-2.61l6.54-21.91c.07-.27.23-.5.48-.7.27-.21.58-.32.95-.32h3.32zm9.35 8.88c1.63 0 3.1.27 4.4.82a9.43 9.43 0 015.46 5.94c.5 1.4.74 2.98.74 4.73 0 1.76-.25 3.34-.74 4.75a9.43 9.43 0 01-5.46 5.92c-1.3.52-2.77.79-4.4.79-1.64 0-3.12-.27-4.44-.8a9.42 9.42 0 01-3.35-2.3c-.92-1-1.63-2.2-2.13-3.61-.49-1.41-.73-3-.73-4.75s.24-3.33.73-4.73c.5-1.43 1.2-2.64 2.13-3.63a9.4 9.4 0 013.35-2.31c1.32-.55 2.8-.82 4.44-.82zm0 19.89c2.2 0 3.84-.73 4.93-2.2 1.08-1.48 1.63-3.54 1.63-6.18 0-2.66-.55-4.72-1.63-6.2-1.09-1.49-2.73-2.23-4.93-2.23-1.12 0-2.09.2-2.93.57a5.7 5.7 0 00-2.06 1.65 7.5 7.5 0 00-1.24 2.67c-.26 1.04-.4 2.22-.4 3.54 0 2.64.55 4.7 1.64 6.18 1.1 1.47 2.76 2.2 4.99 2.2zm17.97-15.07a9.94 9.94 0 012.6-3.56 5.64 5.64 0 013.76-1.3c.47 0 .91.05 1.34.15.44.1.83.27 1.16.49l-.28 2.92c-.09.37-.31.55-.66.55-.2 0-.5-.04-.9-.13a6.2 6.2 0 00-3.24.18c-.54.2-1.03.5-1.47.92-.43.4-.82.9-1.17 1.5a13.1 13.1 0 00-.92 2.02V48h-3.94V25.71h2.24c.43 0 .72.08.88.25.17.16.28.44.33.83l.27 3.39zm15.04-14.59V48h-3.92V15.6h3.92zm19.55 15.43a6.22 6.22 0 00-2.38-2.05 6.7 6.7 0 00-2.86-.6c-2.07 0-3.66.75-4.77 2.23-1.12 1.48-1.68 3.6-1.68 6.33 0 1.46.13 2.7.38 3.74a7.29 7.29 0 001.1 2.56 4.35 4.35 0 001.78 1.45c.7.3 1.5.46 2.4.46 1.29 0 2.41-.3 3.36-.88a9.6 9.6 0 002.67-2.49V31.02zm3.91-15.43V48h-2.33c-.56 0-.9-.27-1.06-.81l-.35-2.71a12.13 12.13 0 01-3.25 2.77 8.28 8.28 0 01-4.23 1.06 7.31 7.31 0 01-6.14-2.9c-.73-.96-1.3-2.15-1.69-3.57a18.35 18.35 0 01.07-9.48 11.29 11.29 0 011.89-3.7 8.7 8.7 0 017.06-3.34 7.96 7.96 0 016.12 2.62V15.59h3.91zM46.61 70.71V93H42.7V70.71h3.91zm.84-7c0 .39-.08.75-.24 1.09a2.81 2.81 0 01-1.52 1.47 2.67 2.67 0 01-2.16 0 2.9 2.9 0 01-1.45-1.47 2.67 2.67 0 010-2.16c.15-.35.35-.65.6-.9.25-.27.53-.47.85-.62a2.67 2.67 0 012.16 0c.35.15.65.35.9.62.27.25.47.55.62.9.16.34.24.7.24 1.08zm7.97 10.24c.49-.54 1-1.04 1.54-1.48a9.85 9.85 0 013.66-1.84 8.96 8.96 0 015.43.35c.94.4 1.72.97 2.33 1.71a7.36 7.36 0 011.43 2.67c.32 1.04.49 2.19.49 3.45V93h-3.94V78.81c0-1.69-.4-3-1.17-3.92-.76-.93-1.93-1.4-3.5-1.4a6.6 6.6 0 00-3.25.83c-1 .56-1.92 1.31-2.77 2.27V93h-3.94V70.71h2.35c.56 0 .9.28 1.04.82l.3 2.42zm57.7 3.3c0 2.36-.37 4.5-1.11 6.44a14.3 14.3 0 01-3.17 4.98 14.1 14.1 0 01-4.93 3.2c-1.9.76-4.02 1.13-6.33 1.13H85.8V61.47h11.77c2.31 0 4.42.39 6.33 1.15a13.8 13.8 0 018.1 8.18 17.75 17.75 0 011.12 6.45zm-4.37 0c0-1.94-.26-3.67-.8-5.2a10.94 10.94 0 00-2.23-3.87 9.57 9.57 0 00-3.53-2.42 12.23 12.23 0 00-4.61-.83h-7.5v24.62h7.5c1.7 0 3.24-.28 4.61-.84a9.7 9.7 0 003.53-2.4 10.94 10.94 0 002.24-3.87c.53-1.53.8-3.26.8-5.2zm19.8 5.72c-1.8.06-3.34.2-4.62.44-1.26.22-2.3.51-3.1.88-.8.36-1.37.8-1.74 1.3-.35.5-.53 1.05-.53 1.67 0 .58.1 1.1.3 1.52a3 3 0 00.76 1.05c.34.27.73.46 1.17.6.45.11.94.17 1.45.17a7.28 7.28 0 003.5-.81 11.95 11.95 0 002.82-2.2v-4.62zm-12.65-9.11a12.73 12.73 0 013.98-2.66c1.43-.59 3-.88 4.73-.88 1.25 0 2.36.2 3.33.61a6.81 6.81 0 013.94 4.38c.33 1.04.5 2.19.5 3.43V93h-1.74a1.8 1.8 0 01-.88-.18c-.2-.13-.36-.38-.48-.74l-.44-2.12c-.59.55-1.16 1.03-1.72 1.46a9.48 9.48 0 01-3.74 1.7c-.69.15-1.46.23-2.3.23-.87 0-1.69-.12-2.45-.35a5.34 5.34 0 01-3.34-2.93 6.64 6.64 0 01-.49-2.64c0-.88.25-1.72.73-2.53a6.33 6.33 0 012.35-2.17c1.09-.63 2.5-1.15 4.25-1.54 1.75-.41 3.89-.65 6.42-.7v-1.75c0-1.73-.37-3.03-1.12-3.91-.75-.9-1.84-1.34-3.28-1.34-.97 0-1.78.12-2.44.37-.64.23-1.2.5-1.7.81l-1.23.82c-.33.23-.67.35-1 .35-.27 0-.5-.07-.69-.2a2.1 2.1 0 01-.48-.53l-.7-1.25zm27.67 19.5c-1.76 0-3.12-.5-4.07-1.48-.94-.98-1.41-2.4-1.41-4.25V74h-2.68a.9.9 0 01-.6-.2c-.16-.14-.24-.36-.24-.66v-1.56l3.65-.46.9-6.89a.9.9 0 01.29-.52.88.88 0 01.62-.22H142v7.67h6.44V74H142v13.38c0 .94.22 1.63.68 2.09.45.45 1.04.68 1.76.68a3.21 3.21 0 001.85-.53l.55-.35c.16-.12.3-.18.41-.18.2 0 .4.13.55.38l1.15 1.87a7.45 7.45 0 01-2.44 1.5c-.96.35-1.94.52-2.95.52zm19.68-10.4c-1.8.07-3.34.21-4.62.45-1.26.22-2.3.51-3.1.88-.8.36-1.37.8-1.74 1.3-.35.5-.53 1.05-.53 1.67 0 .58.1 1.1.3 1.52.18.42.44.77.76 1.05.34.27.73.46 1.17.6.45.11.94.17 1.45.17a7.3 7.3 0 003.5-.81 12.04 12.04 0 002.82-2.2v-4.62zm-12.65-9.1a12.72 12.72 0 013.99-2.66c1.42-.59 3-.88 4.72-.88 1.25 0 2.36.2 3.33.61a6.81 6.81 0 013.94 4.38c.33 1.04.5 2.19.5 3.43V93h-1.74a1.8 1.8 0 01-.88-.18c-.2-.13-.36-.38-.48-.74l-.44-2.12c-.59.55-1.16 1.03-1.72 1.46a9.48 9.48 0 01-3.74 1.7c-.69.15-1.46.23-2.3.23-.87 0-1.69-.12-2.45-.35a5.33 5.33 0 01-3.34-2.93 6.62 6.62 0 01-.49-2.64c0-.88.25-1.72.73-2.53a6.33 6.33 0 012.35-2.17c1.09-.63 2.5-1.15 4.25-1.54a31.2 31.2 0 016.42-.7v-1.75c0-1.73-.37-3.03-1.12-3.91-.75-.9-1.84-1.34-3.28-1.34-.97 0-1.78.12-2.44.37-.64.23-1.2.5-1.7.81-.46.3-.87.57-1.22.82-.34.23-.68.35-1.02.35-.26 0-.49-.07-.68-.2a1.88 1.88 0 01-.48-.53l-.7-1.25z" fill="#fff"/><path fill="#D42B21" d="M0 106.79h210V120H0z"/></g><defs><clipPath id="clip0"><path fill="#fff" d="M0 0h210v120H0z"/></clipPath></defs></svg></g><a href="https://ourworldindata.org/grapher/life-satisfaction-vs-life-expectancy?tab=chart&amp;country=&amp;region=World" target="_blank" rel="noopener" font-family="&quot;Playfair Display&quot;,Georgia,&quot;Times New Roman&quot;,serif"><text font-size="25.2" x="15" y="35.2" fill="#555"><tspan x="15" y="35.16">Life satisfaction vs Life expectancy, 2015</tspan></text></a><text font-size="14.4" x="15" y="55.7" fill="#666"><tspan x="15" y="55.72">The vertical axis shows life expectancy at birth. The horizontal axis shows self-reported life satisfaction in the</tspan><tspan x="15" y="73">Cantril Ladder (0-10 point scale with higher values representing higher life satisfaction).</tspan></text></g><g class="ScatterPlot"><g class="DualAxisView"><g class="HorizontalAxis"><text font-size="12.6" x="135" y="539.4"><tspan x="134.96" y="539.38">Life satisfaction (measured from lowest=0 to highest=10 on Cantril Ladder) in 2015</tspan></text><text x="101.8" y="519.3" fill="#666" text-anchor="middle" font-size="16.2">3</text><text x="235.7" y="519.3" fill="#666" text-anchor="middle" font-size="16.2">4</text><text x="369.6" y="519.3" fill="#666" text-anchor="middle" font-size="16.2">5</text><text x="503.4" y="519.3" fill="#666" text-anchor="middle" font-size="16.2">6</text><text x="637.3" y="519.3" fill="#666" text-anchor="middle" font-size="16.2">7</text></g><g class="VerticalAxis"><text font-size="12.6" x="-382.1" y="25.1" transform="rotate(-90)"><tspan x="-382.13" y="25.08">Life expectancy at birth</tspan></text><text x="55.74" y="498.1" fill="#666" dominant-baseline="middle" text-anchor="end" font-size="16.2">40</text><text x="55.74" y="405.9" fill="#666" dominant-baseline="middle" text-anchor="end" font-size="16.2">50</text><text x="55.74" y="313.8" fill="#666" dominant-baseline="middle" text-anchor="end" font-size="16.2">60</text><text x="55.74" y="221.6" fill="#666" dominant-baseline="middle" text-anchor="end" font-size="16.2">70</text><text x="55.74" y="129.5" fill="#666" dominant-baseline="middle" text-anchor="end" font-size="16.2">80</text></g><g class="AxisGridLines horizontalLines" stroke="#d3d3d3" stroke-dasharray="3,2"><path d="M60.74 498.1h657.35M60.74 405.9h657.35M60.74 313.8h657.35M60.74 221.6h657.35M60.74 129.5h657.35"/></g><g class="AxisGridLines verticalLines" stroke="#d3d3d3" stroke-dasharray="3,2"><path d="M101.8 498.1V92.2M235.7 498.1V92.2M369.6 498.1V92.2M503.4 498.1V92.2M637.3 498.1V92.2"/></g></g><g class="PointsWithLabels clickable" clip-path="url(#a)" font-family="Arial, sans-serif"><path fill="rgba(255,255,255,0)" d="M60.74 92.2h657.35v405.9H60.74z"/><defs><clipPath id="a"><path d="M50.74 82.2h677.35v425.9H50.74z"/></clipPath></defs><g class="key-China_0"><circle cx="410" cy="167" r="17.67" fill="#2D8587" opacity=".8" stroke="#333" stroke-width=".5"/></g><g class="key-India_0"><circle cx="281" cy="234" r="17.06" fill="#2D8587" opacity=".8" stroke="#333" stroke-width=".5"/></g><g class="key-United-States_0"><circle cx="619" cy="139" r="8.59" fill="#E04E4B" opacity=".8" stroke="#333" stroke-width=".5"/></g><g class="key-Indonesia_0"><circle cx="375" cy="214" r="7.74" fill="#2D8587" opacity=".8" stroke="#333" stroke-width=".5"/></g><g class="key-Brazil_0"><circle cx="576" cy="175" r="6.94" fill="#932834" opacity=".8" stroke="#333" stroke-width=".5"/></g><g class="key-Pakistan_0"><circle cx="345" cy="253" r="6.86" fill="#2D8587" opacity=".8" stroke="#333" stroke-width=".5"/></g><g class="key-Nigeria_0"><circle cx="360" cy="377" r="6.56" fill="#923E8B" opacity=".8" stroke="#333" stroke-width=".5"/></g><g class="key-Bangladesh_0"><circle cx="320" cy="207" r="6.13" fill="#2D8587" opacity=".8" stroke="#666" stroke-width=".5"/></g><g class="key-Russia_0"><circle cx="502" cy="208" r="5.92" fill="#4C5C78" opacity=".8" stroke="#333" stroke-width=".5"/></g><g class="key-Japan_0"><circle cx="487" cy="93" r="5.6" fill="#2D8587" opacity=".8" stroke="#333" stroke-width=".5"/></g><g class="key-Mexico_0"><circle cx="535" cy="176" r="5.47" fill="#E04E4B" opacity=".8" stroke="#666" stroke-width=".5"/></g><g class="key-Philippines_0"><circle cx="442" cy="215" r="5.06" fill="#2D8587" opacity=".8" stroke="#666" stroke-width=".5"/></g><g class="key-Ethiopia_0"><circle cx="312" cy="267" r="5.03" fill="#923E8B" opacity=".8" stroke="#666" stroke-width=".5"/></g><g class="key-Vietnam_0"><circle cx="379" cy="174" r="4.85" fill="#2D8587" opacity=".8" stroke="#333" stroke-width=".5"/></g><g class="key-Egypt_0"><circle cx="337" cy="209" r="4.85" fill="#923E8B" opacity=".8" stroke="#333" stroke-width=".5"/></g><g class="key-Germany_0"><circle cx="642" cy="122" r="4.6" fill="#4C5C78" opacity=".8" stroke="#666" stroke-width=".5"/></g><g class="key-Turkey_0"><circle cx="438" cy="161" r="4.52" fill="#2D8587" opacity=".8" stroke="#666" stroke-width=".5"/></g><g class="key-Iran_0"><circle cx="336" cy="168" r="4.52" fill="#2D8587" opacity=".8" stroke="#333" stroke-width=".5"/></g><g class="key-Democratic-Republic-of-Congo_0"><circle cx="222" cy="320" r="4.46" fill="#923E8B" opacity=".8" stroke="#333" stroke-width=".5"/></g><g class="key-Thailand_0"><circle cx="530" cy="165" r="4.28" fill="#2D8587" opacity=".8" stroke="#666" stroke-width=".5"/></g><g class="key-United-Kingdom_0"><circle cx="572" cy="119" r="4.2" fill="#4C5C78" opacity=".8" stroke="#666" stroke-width=".5"/></g><g class="key-France_0"><circle cx="551" cy="109" r="4.16" fill="#4C5C78" opacity=".8" stroke="#333" stroke-width=".5"/></g><g class="key-Italy_0"><circle cx="483" cy="103" r="4.06" fill="#4C5C78" opacity=".8" stroke="#666" stroke-width=".5"/></g><g class="key-South-Africa_0"><circle cx="354" cy="289" r="3.92" fill="#923E8B" opacity=".8" stroke="#333" stroke-width=".5"/></g><g class="key-Myanmar_0"><circle cx="265" cy="260" r="3.84" fill="#2D8587" opacity=".8" stroke="#333" stroke-width=".5"/></g><g class="key-Tanzania_0"><circle cx="190" cy="285" r="3.81" fill="#923E8B" opacity=".8" stroke="#333" stroke-width=".5"/></g><g class="key-South-Korea_0"><circle cx="474" cy="110" r="3.79" fill="#2D8587" opacity=".8" stroke="#666" stroke-width=".5"/></g><g class="key-Kenya_0"><circle cx="283" cy="269" r="3.7" fill="#923E8B" opacity=".8" stroke="#666" stroke-width=".5"/></g><g class="key-Colombia_0"><circle cx="555" cy="161" r="3.69" fill="#932834" opacity=".8" stroke="#666" stroke-width=".5"/></g><g class="key-Spain_0"><circle cx="554" cy="102" r="3.67" fill="#4C5C78" opacity=".8" stroke="#666" stroke-width=".5"/></g><g class="key-Ukraine_0"><circle cx="231" cy="207" r="3.61" fill="#4C5C78" opacity=".8" stroke="#333" stroke-width=".5"/></g><g class="key-Argentina_0"><circle cx="596" cy="165" r="3.56" fill="#932834" opacity=".8" stroke="#666" stroke-width=".5"/></g><g class="key-Algeria_0"><circle cx="551" cy="165" r="3.45" fill="#923E8B" opacity=".8" stroke="#666" stroke-width=".5"/></g><g class="key-Sudan_0"><circle cx="254" cy="273" r="3.42" fill="#923E8B" opacity=".8" stroke="#666" stroke-width=".5"/></g><g class="key-Uganda_0"><circle cx="267" cy="301" r="3.4" fill="#923E8B" opacity=".8" stroke="#333" stroke-width=".5"/></g><g class="key-Poland_0"><circle cx="504" cy="149" r="3.4" fill="#4C5C78" opacity=".8" stroke="#333" stroke-width=".5"/></g><g class="key-Canada_0"><circle cx="692" cy="110" r="3.33" fill="#E04E4B" opacity=".8" stroke="#333" stroke-width=".5"/></g><g class="key-Iraq_0"><circle cx="301" cy="222" r="3.32" fill="#2D8587" opacity=".8" stroke="#666" stroke-width=".5"/></g><g class="key-Morocco_0"><circle cx="391" cy="168" r="3.29" fill="#923E8B" opacity=".8" stroke="#666" stroke-width=".5"/></g><g class="key-Afghanistan_0"><circle cx="233" cy="282" r="3.28" fill="#2D8587" opacity=".8" stroke="#666" stroke-width=".5"/></g><g class="key-Saudi-Arabia_0"><circle cx="549" cy="178" r="3.19" fill="#2D8587" opacity=".8" stroke="#666" stroke-width=".5"/></g><g class="key-Uzbekistan_0"><circle cx="499" cy="213" r="3.16" fill="#2D8587" opacity=".8" stroke="#666" stroke-width=".5"/></g><g class="key-Peru_0"><circle cx="446" cy="168" r="3.14" fill="#932834" opacity=".8" stroke="#666" stroke-width=".5"/></g><g class="key-Malaysia_0"><circle cx="546" cy="171" r="3.14" fill="#2D8587" opacity=".8" stroke="#666" stroke-width=".5"/></g><g class="key-Venezuela_0"><circle cx="445" cy="197" r="3.13" fill="#932834" opacity=".8" stroke="#666" stroke-width=".5"/></g><g class="key-Angola_0"><circle cx="208" cy="319" r="3.05" fill="#923E8B" opacity=".8" stroke="#666" stroke-width=".5"/></g><g class="key-Ghana_0"><circle cx="233" cy="288" r="3.05" fill="#923E8B" opacity=".8" stroke="#666" stroke-width=".5"/></g><g class="key-Mozambique_0"><circle cx="309" cy="339" r="3.02" fill="#923E8B" opacity=".8" stroke="#333" stroke-width=".5"/></g><g class="key-Nepal_0"><circle cx="344" cy="226" r="3.02" fill="#2D8587" opacity=".8" stroke="#666" stroke-width=".5"/></g><g class="key-Yemen_0"><circle cx="99" cy="257" r="3" fill="#2D8587" opacity=".8" stroke="#333" stroke-width=".5"/></g><g class="key-Madagascar_0"><circle cx="181" cy="262" r="2.92" fill="#923E8B" opacity=".8" stroke="#333" stroke-width=".5"/></g><g class="key-Australia_0"><circle cx="678" cy="103" r="2.9" fill="#A8633C" opacity=".8" stroke="#666" stroke-width=".5"/></g><g class="key-Taiwan_0"><circle cx="563" cy="131" r="2.89" fill="#2D8587" opacity=".8" stroke="#333" stroke-width=".5"/></g><g class="key-Cameroon_0"><circle cx="374" cy="336" r="2.88" fill="#923E8B" opacity=".8" stroke="#666" stroke-width=".5"/></g><g class="key-Cote-d__0027Ivoire_0"><circle cx="295" cy="350" r="2.88" fill="#923E8B" opacity=".8" stroke="#666" stroke-width=".5"/></g><g class="key-Sri-Lanka_0"><circle cx="317" cy="163" r="2.79" fill="#2D8587" opacity=".8" stroke="#666" stroke-width=".5"/></g><g class="key-Niger_0"><circle cx="191" cy="308" r="2.75" fill="#923E8B" opacity=".8" stroke="#666" stroke-width=".5"/></g><g class="key-Romania_0"><circle cx="473" cy="171" r="2.75" fill="#4C5C78" opacity=".8" stroke="#333" stroke-width=".5"/></g><g class="key-Burkina-Faso_0"><circle cx="291" cy="314" r="2.68" fill="#923E8B" opacity=".8" stroke="#666" stroke-width=".5"/></g><g class="key-Syria_0"><circle cx="163" cy="222" r="2.67" fill="#2D8587" opacity=".8" stroke="#333" stroke-width=".5"/></g><g class="key-Chile_0"><circle cx="574" cy="132" r="2.67" fill="#932834" opacity=".8" stroke="#666" stroke-width=".5"/></g><g class="key-Kazakhstan_0"><circle cx="496" cy="209" r="2.65" fill="#2D8587" opacity=".8" stroke="#666" stroke-width=".5"/></g><g class="key-Mali_0"><circle cx="313" cy="336" r="2.65" fill="#923E8B" opacity=".8" stroke="#666" stroke-width=".5"/></g><g class="key-Netherlands_0"><circle cx="680" cy="113" r="2.63" fill="#4C5C78" opacity=".8" stroke="#666" stroke-width=".5"/></g><g class="key-Malawi_0"><circle cx="218" cy="295" r="2.62" fill="#923E8B" opacity=".8" stroke="#666" stroke-width=".5"/></g><g class="key-Guatemala_0"><circle cx="565" cy="191" r="2.6" fill="#E04E4B" opacity=".8" stroke="#333" stroke-width=".5"/></g><g class="key-Ecuador_0"><circle cx="498" cy="165" r="2.6" fill="#932834" opacity=".8" stroke="#666" stroke-width=".5"/></g><g class="key-Zambia_0"><circle cx="348" cy="297" r="2.58" fill="#923E8B" opacity=".8" stroke="#666" stroke-width=".5"/></g><g class="key-Cambodia_0"><circle cx="257" cy="234" r="2.57" fill="#2D8587" opacity=".8" stroke="#666" stroke-width=".5"/></g><g class="key-Senegal_0"><circle cx="318" cy="251" r="2.53" fill="#923E8B" opacity=".8" stroke="#666" stroke-width=".5"/></g><g class="key-Chad_0"><circle cx="278" cy="377" r="2.51" fill="#923E8B" opacity=".8" stroke="#333" stroke-width=".5"/></g><g class="key-Zimbabwe_0"><circle cx="196" cy="318" r="2.49" fill="#923E8B" opacity=".8" stroke="#666" stroke-width=".5"/></g><g class="key-Somalia_0"><circle cx="416" cy="351" r="2.49" fill="#923E8B" opacity=".8" stroke="#333" stroke-width=".5"/></g><g class="key-Guinea_0"><circle cx="169" cy="317" r="2.39" fill="#923E8B" opacity=".8" stroke="#333" stroke-width=".5"/></g><g class="key-Rwanda_0"><circle cx="166" cy="245" r="2.38" fill="#923E8B" opacity=".8" stroke="#666" stroke-width=".5"/></g><g class="key-Belgium_0"><circle cx="624" cy="120" r="2.38" fill="#4C5C78" opacity=".8" stroke="#666" stroke-width=".5"/></g><g class="key-Tunisia_0"><circle cx="387" cy="167" r="2.37" fill="#923E8B" opacity=".8" stroke="#666" stroke-width=".5"/></g><g class="key-Bolivia_0"><circle cx="481" cy="219" r="2.36" fill="#932834" opacity=".8" stroke="#666" stroke-width=".5"/></g><g class="key-South-Sudan_0"><circle cx="245" cy="342" r="2.35" fill="#923E8B" opacity=".8" stroke="#666" stroke-width=".5"/></g><g class="key-Haiti_0"><circle cx="178" cy="290" r="2.35" fill="#E04E4B" opacity=".8" stroke="#666" stroke-width=".5"/></g><g class="key-Greece_0"><circle cx="452" cy="115" r="2.35" fill="#4C5C78" opacity=".8" stroke="#666" stroke-width=".5"/></g><g class="key-Czechia_0"><circle cx="584" cy="141" r="2.35" fill="#4C5C78" opacity=".8" stroke="#666" stroke-width=".5"/></g><g class="key-Benin_0"><circle cx="185" cy="308" r="2.35" fill="#923E8B" opacity=".8" stroke="#666" stroke-width=".5"/></g><g class="key-Portugal_0"><circle cx="380" cy="118" r="2.34" fill="#4C5C78" opacity=".8" stroke="#333" stroke-width=".5"/></g><g class="key-Dominican-Republic_0"><circle cx="377" cy="191" r="2.33" fill="#E04E4B" opacity=".8" stroke="#666" stroke-width=".5"/></g><g class="key-Burundi_0"><circle cx="89" cy="312" r="2.33" fill="#923E8B" opacity=".8" stroke="#333" stroke-width=".5"/></g><g class="key-Hungary_0"><circle cx="415" cy="166" r="2.31" fill="#4C5C78" opacity=".8" stroke="#666" stroke-width=".5"/></g><g class="key-Sweden_0"><circle cx="676" cy="108" r="2.31" fill="#4C5C78" opacity=".8" stroke="#666" stroke-width=".5"/></g><g class="key-Azerbaijan_0"><circle cx="389" cy="200" r="2.3" fill="#2D8587" opacity=".8" stroke="#666" stroke-width=".5"/></g><g class="key-Belarus_0"><circle cx="465" cy="188" r="2.29" fill="#4C5C78" opacity=".8" stroke="#666" stroke-width=".5"/></g><g class="key-Jordan_0"><circle cx="423" cy="184" r="2.28" fill="#2D8587" opacity=".8" stroke="#666" stroke-width=".5"/></g><g class="key-United-Arab-Emirates_0"><circle cx="579" cy="154" r="2.28" fill="#2D8587" opacity=".8" stroke="#666" stroke-width=".5"/></g><g class="key-Honduras_0"><circle cx="348" cy="180" r="2.28" fill="#E04E4B" opacity=".8" stroke="#666" stroke-width=".5"/></g><g class="key-Serbia_0"><circle cx="412" cy="172" r="2.26" fill="#4C5C78" opacity=".8" stroke="#666" stroke-width=".5"/></g><g class="key-Austria_0"><circle cx="647" cy="118" r="2.26" fill="#4C5C78" opacity=".8" stroke="#666" stroke-width=".5"/></g><g class="key-Tajikistan_0"><circle cx="386" cy="220" r="2.24" fill="#2D8587" opacity=".8" stroke="#666" stroke-width=".5"/></g><g class="key-Switzerland_0"><circle cx="713" cy="100" r="2.24" fill="#4C5C78" opacity=".8" stroke="#666" stroke-width=".5"/></g><g class="key-Israel_0"><circle cx="647" cy="107" r="2.22" fill="#2D8587" opacity=".8" stroke="#666" stroke-width=".5"/></g><g class="key-Togo_0"><circle cx="204" cy="314" r="2.19" fill="#923E8B" opacity=".8" stroke="#666" stroke-width=".5"/></g><g class="key-Bulgaria_0"><circle cx="351" cy="179" r="2.18" fill="#4C5C78" opacity=".8" stroke="#666" stroke-width=".5"/></g><g class="key-Hong-Kong_0"><circle cx="430" cy="92" r="2.18" fill="#2D8587" opacity=".8" stroke="#666" stroke-width=".5"/></g><g class="key-Sierra-Leone_0"><circle cx="357" cy="378" r="2.18" fill="#923E8B" opacity=".8" stroke="#666" stroke-width=".5"/></g><g class="key-Paraguay_0"><circle cx="444" cy="187" r="2.16" fill="#932834" opacity=".8" stroke="#666" stroke-width=".5"/></g><g class="key-Lebanon_0"><circle cx="392" cy="140" r="2.15" fill="#2D8587" opacity=".8" stroke="#666" stroke-width=".5"/></g><g class="key-Libya_0"><circle cx="452" cy="202" r="2.14" fill="#923E8B" opacity=".8" stroke="#333" stroke-width=".5"/></g><g class="key-El-Salvador_0"><circle cx="505" cy="199" r="2.14" fill="#E04E4B" opacity=".8" stroke="#666" stroke-width=".5"/></g><g class="key-Nicaragua_0"><circle cx="493" cy="188" r="2.13" fill="#E04E4B" opacity=".8" stroke="#666" stroke-width=".5"/></g><g class="key-Kyrgyzstan_0"><circle cx="356" cy="213" r="2.12" fill="#2D8587" opacity=".8" stroke="#666" stroke-width=".5"/></g><g class="key-Denmark_0"><circle cx="706" cy="125" r="2.1" fill="#4C5C78" opacity=".8" stroke="#666" stroke-width=".5"/></g><g class="key-Singapore_0"><circle cx="586" cy="102" r="2.1" fill="#2D8587" opacity=".8" stroke="#666" stroke-width=".5"/></g><g class="key-Turkmenistan_0"><circle cx="475" cy="242" r="2.1" fill="#2D8587" opacity=".8" stroke="#333" stroke-width=".5"/></g><g class="key-Finland_0"><circle cx="697" cy="118" r="2.09" fill="#4C5C78" opacity=".8" stroke="#666" stroke-width=".5"/></g><g class="key-Slovakia_0"><circle cx="525" cy="158" r="2.09" fill="#4C5C78" opacity=".8" stroke="#666" stroke-width=".5"/></g><g class="key-Norway_0"><circle cx="718" cy="111" r="2.08" fill="#4C5C78" opacity=".8" stroke="#666" stroke-width=".5"/></g><g class="key-Congo_0"><circle cx="328" cy="285" r="2.06" fill="#923E8B" opacity=".8" stroke="#666" stroke-width=".5"/></g><g class="key-Costa-Rica_0"><circle cx="617" cy="133" r="2.06" fill="#E04E4B" opacity=".8" stroke="#666" stroke-width=".5"/></g><g class="key-Ireland_0"><circle cx="614" cy="117" r="2.05" fill="#4C5C78" opacity=".8" stroke="#666" stroke-width=".5"/></g><g class="key-New-Zealand_0"><circle cx="693" cy="113" r="2.05" fill="#A8633C" opacity=".8" stroke="#666" stroke-width=".5"/></g><g class="key-Palestine_0"><circle cx="328" cy="189" r="2.04" fill="#2D8587" opacity=".8" stroke="#666" stroke-width=".5"/></g><g class="key-Central-African-Republic_0"><circle cx="60" cy="397" r="2.04" fill="#923E8B" opacity=".8" stroke="#333" stroke-width=".5"/></g><g class="key-Liberia_0"><circle cx="61" cy="292" r="2.04" fill="#923E8B" opacity=".8" stroke="#333" stroke-width=".5"/></g><g class="key-Croatia_0"><circle cx="397" cy="148" r="2.03" fill="#4C5C78" opacity=".8" stroke="#666" stroke-width=".5"/></g><g class="key-Moldova_0"><circle cx="505" cy="208" r="2.02" fill="#4C5C78" opacity=".8" stroke="#666" stroke-width=".5"/></g><g class="key-Mauritania_0"><circle cx="225" cy="277" r="2.02" fill="#923E8B" opacity=".8" stroke="#666" stroke-width=".5"/></g><g class="key-Georgia_0"><circle cx="252" cy="194" r="2.02" fill="#2D8587" opacity=".8" stroke="#666" stroke-width=".5"/></g><g class="key-Panama_0"><circle cx="584" cy="150" r="2.01" fill="#E04E4B" opacity=".8" stroke="#333" stroke-width=".5"/></g><g class="key-Kuwait_0"><circle cx="523" cy="174" r="2.01" fill="#2D8587" opacity=".8" stroke="#666" stroke-width=".5"/></g><g class="key-Bosnia-and-Herzegovina_0"><circle cx="385" cy="158" r="1.98" fill="#4C5C78" opacity=".8" stroke="#666" stroke-width=".5"/></g><g class="key-Uruguay_0"><circle cx="587" cy="153" r="1.98" fill="#932834" opacity=".8" stroke="#666" stroke-width=".5"/></g><g class="key-Mongolia_0"><circle cx="367" cy="229" r="1.96" fill="#2D8587" opacity=".8" stroke="#333" stroke-width=".5"/></g><g class="key-Lithuania_0"><circle cx="464" cy="176" r="1.96" fill="#4C5C78" opacity=".8" stroke="#666" stroke-width=".5"/></g><g class="key-Armenia_0"><circle cx="282" cy="180" r="1.95" fill="#2D8587" opacity=".8" stroke="#333" stroke-width=".5"/></g><g class="key-Jamaica_0"><circle cx="411" cy="183" r="1.95" fill="#E04E4B" opacity=".8" stroke="#666" stroke-width=".5"/></g><g class="key-Albania_0"><circle cx="316" cy="147" r="1.95" fill="#4C5C78" opacity=".8" stroke="#333" stroke-width=".5"/></g><g class="key-Qatar_0"><circle cx="553" cy="131" r="1.93" fill="#2D8587" opacity=".8" stroke="#666" stroke-width=".5"/></g><g class="key-Namibia_0"><circle cx="312" cy="294" r="1.92" fill="#923E8B" opacity=".8" stroke="#666" stroke-width=".5"/></g><g class="key-Botswana_0"><circle cx="203" cy="246" r="1.91" fill="#923E8B" opacity=".8" stroke="#666" stroke-width=".5"/></g><g class="key-North-Macedonia_0"><circle cx="366" cy="171" r="1.91" fill="#4C5C78" opacity=".8" stroke="#666" stroke-width=".5"/></g><g class="key-Slovenia_0"><circle cx="468" cy="123" r="1.91" fill="#4C5C78" opacity=".8" stroke="#666" stroke-width=".5"/></g><g class="key-Lesotho_0"><circle cx="210" cy="396" r="1.91" fill="#923E8B" opacity=".8" stroke="#333" stroke-width=".5"/></g><g class="key-Latvia_0"><circle cx="487" cy="178" r="1.9" fill="#4C5C78" opacity=".8" stroke="#666" stroke-width=".5"/></g><g class="key-Gabon_0"><circle cx="324" cy="268" r="1.9" fill="#923E8B" opacity=".8" stroke="#333" stroke-width=".5"/></g><g class="key-Bahrain_0"><circle cx="504" cy="159" r="1.87" fill="#2D8587" opacity=".8" stroke="#666" stroke-width=".5"/></g><g class="key-Estonia_0"><circle cx="453" cy="149" r="1.86" fill="#4C5C78" opacity=".8" stroke="#666" stroke-width=".5"/></g><g class="key-Mauritius_0"><circle cx="456" cy="180" r="1.86" fill="#923E8B" opacity=".8" stroke="#666" stroke-width=".5"/></g><g class="key-Cyprus_0"><circle cx="428" cy="126" r="1.85" fill="#4C5C78" opacity=".8" stroke="#333" stroke-width=".5"/></g><g class="key-Bhutan_0"><circle cx="380" cy="217" r="1.83" fill="#2D8587" opacity=".8" stroke="#666" stroke-width=".5"/></g><g class="key-Montenegro_0"><circle cx="386" cy="162" r="1.82" fill="#4C5C78" opacity=".8" stroke="#666" stroke-width=".5"/></g><g class="key-Luxembourg_0"><circle cx="597" cy="114" r="1.82" fill="#4C5C78" opacity=".8" stroke="#666" stroke-width=".5"/></g><g class="key-Malta_0"><circle cx="585" cy="112" r="1.81" fill="#4C5C78" opacity=".8" stroke="#666" stroke-width=".5"/></g><g class="key-Belize_0"><circle cx="497" cy="184" r="1.8" fill="#E04E4B" opacity=".8" stroke="#666" stroke-width=".5"/></g><g class="key-Iceland_0"><circle cx="704" cy="106" r="1.8" fill="#4C5C78" opacity=".8" stroke="#666" stroke-width=".5"/></g><g class="backgroundLabels" fill="#333" font-weight="400"><text x="410" y="148.33" font-size="14.24" fill="#fff" stroke="#fff" stroke-linecap="round" stroke-linejoin="round" stroke-width=".25em">China</text><text x="410" y="148.33" font-size="14.24" fill="#2D8587">China</text><text x="281" y="215.94" font-size="14.02" fill="#fff" stroke="#fff" stroke-linecap="round" stroke-linejoin="round" stroke-width=".25em">India</text><text x="281" y="215.94" font-size="14.02" fill="#2D8587">India</text><text x="619" y="129.41" font-size="11.74" fill="#fff" stroke="#fff" stroke-linecap="round" stroke-linejoin="round" stroke-width=".25em">United States</text><text x="619" y="129.41" font-size="11.74" fill="#E04E4B">United States</text><text x="375" y="205.26" font-size="11.59" fill="#fff" stroke="#fff" stroke-linecap="round" stroke-linejoin="round" stroke-width=".25em">Indonesia</text><text x="375" y="205.26" font-size="11.59" fill="#2D8587">Indonesia</text><text x="576" y="167.06" font-size="11.47" fill="#fff" stroke="#fff" stroke-linecap="round" stroke-linejoin="round" stroke-width=".25em">Brazil</text><text x="576" y="167.06" font-size="11.47" fill="#932834">Brazil</text><text x="345" y="245.14" font-size="11.46" fill="#fff" stroke="#fff" stroke-linecap="round" stroke-linejoin="round" stroke-width=".25em">Pakistan</text><text x="345" y="245.14" font-size="11.46" fill="#2D8587">Pakistan</text><text x="360" y="369.44" font-size="11.42" fill="#fff" stroke="#fff" stroke-linecap="round" stroke-linejoin="round" stroke-width=".25em">Nigeria</text><text x="360" y="369.44" font-size="11.42" fill="#923E8B">Nigeria</text><text x="502" y="201.08" font-size="11.33" fill="#fff" stroke="#fff" stroke-linecap="round" stroke-linejoin="round" stroke-width=".25em">Russia</text><text x="502" y="201.08" font-size="11.33" fill="#4C5C78">Russia</text><text x="487" y="103.49" font-size="11.29" fill="#fff" stroke="#fff" stroke-linecap="round" stroke-linejoin="round" stroke-width=".25em">Japan</text><text x="487" y="103.49" font-size="11.29" fill="#2D8587">Japan</text><text x="379" y="168.15" font-size="11.21" fill="#fff" stroke="#fff" stroke-linecap="round" stroke-linejoin="round" stroke-width=".25em">Vietnam</text><text x="379" y="168.15" font-size="11.21" fill="#2D8587">Vietnam</text><text x="337" y="203.15" font-size="11.21" fill="#fff" stroke="#fff" stroke-linecap="round" stroke-linejoin="round" stroke-width=".25em">Egypt</text><text x="337" y="203.15" font-size="11.21" fill="#923E8B">Egypt</text><text x="336" y="162.48" font-size="11.18" fill="#fff" stroke="#fff" stroke-linecap="round" stroke-linejoin="round" stroke-width=".25em">Iran</text><text x="336" y="162.48" font-size="11.18" fill="#2D8587">Iran</text><text x="222" y="314.54" font-size="11.18" fill="#fff" stroke="#fff" stroke-linecap="round" stroke-linejoin="round" stroke-width=".25em">Democratic Republic of Congo</text><text x="222" y="314.54" font-size="11.18" fill="#923E8B">Democratic Republic of Congo</text><text x="551" y="103.84" font-size="11.15" fill="#fff" stroke="#fff" stroke-linecap="round" stroke-linejoin="round" stroke-width=".25em">France</text><text x="551" y="103.84" font-size="11.15" fill="#4C5C78">France</text><text x="354" y="284.08" font-size="11.13" fill="#fff" stroke="#fff" stroke-linecap="round" stroke-linejoin="round" stroke-width=".25em">South Africa</text><text x="354" y="284.08" font-size="11.13" fill="#923E8B">South Africa</text><text x="265" y="255.16" font-size="11.12" fill="#fff" stroke="#fff" stroke-linecap="round" stroke-linejoin="round" stroke-width=".25em">Myanmar</text><text x="265" y="255.16" font-size="11.12" fill="#2D8587">Myanmar</text><text x="190" y="280.19" font-size="11.12" fill="#fff" stroke="#fff" stroke-linecap="round" stroke-linejoin="round" stroke-width=".25em">Tanzania</text><text x="190" y="280.19" font-size="11.12" fill="#923E8B">Tanzania</text><text x="231" y="202.39" font-size="11.1" fill="#fff" stroke="#fff" stroke-linecap="round" stroke-linejoin="round" stroke-width=".25em">Ukraine</text><text x="231" y="202.39" font-size="11.1" fill="#4C5C78">Ukraine</text><text x="267" y="296.6" font-size="11.09" fill="#fff" stroke="#fff" stroke-linecap="round" stroke-linejoin="round" stroke-width=".25em">Uganda</text><text x="267" y="296.6" font-size="11.09" fill="#923E8B">Uganda</text><text x="504" y="144.6" font-size="11.09" fill="#fff" stroke="#fff" stroke-linecap="round" stroke-linejoin="round" stroke-width=".25em">Poland</text><text x="504" y="144.6" font-size="11.09" fill="#4C5C78">Poland</text><text x="652.99" y="105.67" font-size="11.08" fill="#fff" stroke="#fff" stroke-linecap="round" stroke-linejoin="round" stroke-width=".25em">Canada</text><text x="652.99" y="105.67" font-size="11.08" fill="#E04E4B">Canada</text><text x="309" y="334.98" font-size="11.06" fill="#fff" stroke="#fff" stroke-linecap="round" stroke-linejoin="round" stroke-width=".25em">Mozambique</text><text x="309" y="334.98" font-size="11.06" fill="#923E8B">Mozambique</text><text x="99" y="253" font-size="11.06" fill="#fff" stroke="#fff" stroke-linecap="round" stroke-linejoin="round" stroke-width=".25em">Yemen</text><text x="99" y="253" font-size="11.06" fill="#2D8587">Yemen</text><text x="181" y="258.08" font-size="11.06" fill="#fff" stroke="#fff" stroke-linecap="round" stroke-linejoin="round" stroke-width=".25em">Madagascar</text><text x="181" y="258.08" font-size="11.06" fill="#923E8B">Madagascar</text><text x="563" y="127.11" font-size="11.05" fill="#fff" stroke="#fff" stroke-linecap="round" stroke-linejoin="round" stroke-width=".25em">Taiwan</text><text x="563" y="127.11" font-size="11.05" fill="#2D8587">Taiwan</text><text x="473" y="167.25" font-size="11.05" fill="#fff" stroke="#fff" stroke-linecap="round" stroke-linejoin="round" stroke-width=".25em">Romania</text><text x="473" y="167.25" font-size="11.05" fill="#4C5C78">Romania</text><text x="163" y="218.33" font-size="11.04" fill="#fff" stroke="#fff" stroke-linecap="round" stroke-linejoin="round" stroke-width=".25em">Syria</text><text x="163" y="218.33" font-size="11.04" fill="#2D8587">Syria</text><text x="565" y="187.4" font-size="11.04" fill="#fff" stroke="#fff" stroke-linecap="round" stroke-linejoin="round" stroke-width=".25em">Guatemala</text><text x="565" y="187.4" font-size="11.04" fill="#E04E4B">Guatemala</text><text x="278" y="373.49" font-size="11.03" fill="#fff" stroke="#fff" stroke-linecap="round" stroke-linejoin="round" stroke-width=".25em">Chad</text><text x="278" y="373.49" font-size="11.03" fill="#923E8B">Chad</text><text x="416" y="347.51" font-size="11.03" fill="#fff" stroke="#fff" stroke-linecap="round" stroke-linejoin="round" stroke-width=".25em">Somalia</text><text x="416" y="347.51" font-size="11.03" fill="#923E8B">Somalia</text><text x="169" y="313.61" font-size="11.03" fill="#fff" stroke="#fff" stroke-linecap="round" stroke-linejoin="round" stroke-width=".25em">Guinea</text><text x="169" y="313.61" font-size="11.03" fill="#923E8B">Guinea</text><text x="380" y="114.66" font-size="11.02" fill="#fff" stroke="#fff" stroke-linecap="round" stroke-linejoin="round" stroke-width=".25em">Portugal</text><text x="380" y="114.66" font-size="11.02" fill="#4C5C78">Portugal</text><text x="89" y="308.67" font-size="11.02" fill="#fff" stroke="#fff" stroke-linecap="round" stroke-linejoin="round" stroke-width=".25em">Burundi</text><text x="89" y="308.67" font-size="11.02" fill="#923E8B">Burundi</text><text x="452" y="198.86" font-size="11.01" fill="#fff" stroke="#fff" stroke-linecap="round" stroke-linejoin="round" stroke-width=".25em">Libya</text><text x="452" y="198.86" font-size="11.01" fill="#923E8B">Libya</text><text x="475" y="238.9" font-size="11.01" fill="#fff" stroke="#fff" stroke-linecap="round" stroke-linejoin="round" stroke-width=".25em">Turkmenistan</text><text x="475" y="238.9" font-size="11.01" fill="#2D8587">Turkmenistan</text><text x="60" y="393.96" font-size="11.01" fill="#fff" stroke="#fff" stroke-linecap="round" stroke-linejoin="round" stroke-width=".25em">Central African Republic</text><text x="60" y="393.96" font-size="11.01" fill="#923E8B">Central African Republic</text><text x="61" y="288.96" font-size="11.01" fill="#fff" stroke="#fff" stroke-linecap="round" stroke-linejoin="round" stroke-width=".25em">Liberia</text><text x="61" y="288.96" font-size="11.01" fill="#923E8B">Liberia</text><text x="584" y="146.99" font-size="11.01" fill="#fff" stroke="#fff" stroke-linecap="round" stroke-linejoin="round" stroke-width=".25em">Panama</text><text x="584" y="146.99" font-size="11.01" fill="#E04E4B">Panama</text><text x="367" y="226.04" font-size="11.01" fill="#fff" stroke="#fff" stroke-linecap="round" stroke-linejoin="round" stroke-width=".25em">Mongolia</text><text x="367" y="226.04" font-size="11.01" fill="#2D8587">Mongolia</text><text x="282" y="177.05" font-size="11.01" fill="#fff" stroke="#fff" stroke-linecap="round" stroke-linejoin="round" stroke-width=".25em">Armenia</text><text x="282" y="177.05" font-size="11.01" fill="#2D8587">Armenia</text><text x="316" y="144.05" font-size="11.01" fill="#fff" stroke="#fff" stroke-linecap="round" stroke-linejoin="round" stroke-width=".25em">Albania</text><text x="316" y="144.05" font-size="11.01" fill="#4C5C78">Albania</text><text x="210" y="393.09" font-size="11" fill="#fff" stroke="#fff" stroke-linecap="round" stroke-linejoin="round" stroke-width=".25em">Lesotho</text><text x="210" y="393.09" font-size="11" fill="#923E8B">Lesotho</text><text x="324" y="265.1" font-size="11" fill="#fff" stroke="#fff" stroke-linecap="round" stroke-linejoin="round" stroke-width=".25em">Gabon</text><text x="324" y="265.1" font-size="11" fill="#923E8B">Gabon</text><text x="428" y="123.15" font-size="11" fill="#fff" stroke="#fff" stroke-linecap="round" stroke-linejoin="round" stroke-width=".25em">Cyprus</text><text x="428" y="123.15" font-size="11" fill="#4C5C78">Cyprus</text></g></g><g class="ScatterColorLegend clickable" cursor="pointer"><g class="legendMark"><path fill="#923E8B" d="M738.09 94h9v9h-9z"/><text font-size="12.6" x="752.1" y="102.3"><tspan x="752.09" y="102.28">Africa</tspan></text></g><g class="legendMark"><path fill="#2D8587" d="M738.09 111.6h9v9h-9z"/><text font-size="12.6" x="752.1" y="119.9"><tspan x="752.09" y="119.88">Asia</tspan></text></g><g class="legendMark"><path fill="#4C5C78" d="M738.09 129.2h9v9h-9z"/><text font-size="12.6" x="752.1" y="137.5"><tspan x="752.09" y="137.48">Europe</tspan></text></g><g class="legendMark"><path fill="#E04E4B" d="M738.09 146.8h9v9h-9z"/><text font-size="12.6" x="752.1" y="155.1"><tspan x="752.09" y="155.08">North America</tspan></text></g><g class="legendMark"><path fill="#A8633C" d="M738.09 164.4h9v9h-9z"/><text font-size="12.6" x="752.1" y="172.7"><tspan x="752.09" y="172.68">Oceania</tspan></text></g><g class="legendMark"><path fill="#932834" d="M738.09 182h9v9h-9z"/><text font-size="12.6" x="752.1" y="190.3"><tspan x="752.09" y="190.28">South America</tspan></text></g></g></g><g class="SourcesFooter" fill="#777"><g class="clickable" fill="#777"><text font-size="12.6" x="15" y="567"><tspan x="15" y="566.98">Source: United Nations – Population Division (2019 Revision), World Happiness Report (2019)</tspan></text></g><text font-size="12.6" x="15" y="582.5"><tspan x="15" y="582.48"><a target="_blank" href="https://ourworldindata.org/bonheur-et-satisfaction/" fill="#777">OurWorldInData.org/bonheur-et-satisfaction/</a> • <a class="cclogo" href="http://creativecommons.org/licenses/by/4.0/deed.en_US" target="_blank" fill="#777">CC BY</a></tspan></text></g></svg>