<svg xmlns="http://www.w3.org/2000/svg" version="1.1" style="font-family:Lato,'Helvetica Neue',Helvetica,Arial,sans-serif;font-size:18px;background-color:#fff;text-rendering:geometricPrecision;-webkit-font-smoothing:antialiased" width="850" height="600" viewBox="0 0 850 600"><g class="HeaderView"><g transform="matrix(.29 0 0 .29 774 15)"><svg className="owidLog" width="210" height="120" viewBox="0 0 210 120" fill="none" xmlns="http://www.w3.org/2000/svg"><g clip-path="url(#a)"><path d="M0 0h210v107.89H0V0z" fill="#002147"/><path d="M40.98 32.25c0 2.36-.38 4.53-1.12 6.51a14.26 14.26 0 0 1-8.1 8.4c-1.9.78-4.02 1.17-6.34 1.17a16.6 16.6 0 0 1-6.33-1.17 14.31 14.31 0 0 1-8.08-8.4 18.29 18.29 0 0 1-1.12-6.51c0-2.36.38-4.53 1.12-6.5.75-1.97 1.8-3.67 3.17-5.1a14.32 14.32 0 0 1 4.9-3.34c1.92-.8 4.03-1.19 6.34-1.19 2.32 0 4.43.4 6.34 1.19 1.92.8 3.56 1.9 4.93 3.34a14.87 14.87 0 0 1 3.17 5.1 18.1 18.1 0 0 1 1.12 6.5zm-4.38 0c0-1.94-.26-3.68-.8-5.22a10.91 10.91 0 0 0-2.24-3.89 9.68 9.68 0 0 0-3.52-2.46 11.95 11.95 0 0 0-4.62-.86c-1.68 0-3.21.28-4.6.86a9.88 9.88 0 0 0-3.54 2.46 10.91 10.91 0 0 0-2.24 3.9c-.53 1.53-.8 3.27-.8 5.2 0 1.94.27 3.68.8 5.22a11.17 11.17 0 0 0 2.24 3.9 10.01 10.01 0 0 0 3.55 2.44c1.38.56 2.9.83 4.6.83s3.24-.27 4.61-.83a9.8 9.8 0 0 0 3.52-2.44 11.17 11.17 0 0 0 2.25-3.9c.53-1.54.8-3.28.8-5.21zm26.22-6.54V48H60.5c-.56 0-.9-.27-1.05-.81l-.31-2.4a12.45 12.45 0 0 1-3.26 2.6c-1.2.64-2.58.96-4.13.96-1.22 0-2.3-.2-3.24-.6a6.52 6.52 0 0 1-2.33-1.7 7.37 7.37 0 0 1-1.43-2.67c-.3-1.04-.46-2.2-.46-3.45V25.7h3.91v14.22c0 1.68.38 2.99 1.15 3.91.77.93 1.96 1.39 3.54 1.39 1.16 0 2.24-.27 3.23-.82a10.42 10.42 0 0 0 2.8-2.28V25.7h3.91zm8.61 4.47a9.94 9.94 0 0 1 2.6-3.56 5.64 5.64 0 0 1 3.76-1.3c.47 0 .92.05 1.34.15.44.1.83.27 1.17.49l-.3 2.92c-.09.37-.3.55-.66.55-.2 0-.5-.04-.9-.13a6.21 6.21 0 0 0-3.24.18 4.23 4.23 0 0 0-1.47.92c-.42.4-.81.9-1.17 1.5-.33.58-.64 1.26-.92 2.02V48H67.7V25.71h2.25c.42 0 .72.08.88.25.16.16.27.44.33.83l.26 3.39zm61.16-13.7L122.75 48h-3.82l-7.99-24.05a21.95 21.95 0 0 1-.42-1.58 38.36 38.36 0 0 1-.44 1.58L102.05 48h-3.83L88.4 16.47h3.54c.38 0 .7.1.95.29.26.2.43.43.5.73l6.52 21.9.28 1.28.29 1.46.3-1.46.38-1.27 7.41-21.91c.1-.25.26-.48.51-.69.27-.22.58-.33.95-.33h1.23c.38 0 .69.1.92.29a1.77 1.77 0 0 1 .53.73l7.4 21.9a28.4 28.4 0 0 1 .68 2.62 29.52 29.52 0 0 1 .52-2.61l6.54-21.91a1.31 1.31 0 0 1 .48-.7c.27-.21.58-.32.95-.32h3.32zm9.35 8.88c1.63 0 3.1.27 4.4.82a9.43 9.43 0 0 1 5.46 5.94c.5 1.4.74 2.98.74 4.73 0 1.76-.25 3.34-.74 4.75a9.43 9.43 0 0 1-5.46 5.92c-1.3.52-2.77.79-4.4.79-1.64 0-3.12-.27-4.44-.8a9.42 9.42 0 0 1-3.35-2.3c-.92-1-1.63-2.2-2.13-3.61-.49-1.41-.73-3-.73-4.75s.24-3.33.73-4.73c.5-1.43 1.2-2.64 2.13-3.63a9.4 9.4 0 0 1 3.35-2.31c1.32-.55 2.8-.82 4.44-.82zm0 19.89c2.2 0 3.84-.73 4.93-2.2 1.08-1.48 1.63-3.54 1.63-6.18 0-2.66-.55-4.72-1.63-6.2-1.09-1.49-2.73-2.23-4.93-2.23-1.12 0-2.09.2-2.93.57a5.71 5.71 0 0 0-2.06 1.65 7.5 7.5 0 0 0-1.24 2.67c-.26 1.04-.4 2.22-.4 3.54 0 2.64.55 4.7 1.64 6.18 1.1 1.47 2.76 2.2 4.99 2.2zm17.97-15.07a9.94 9.94 0 0 1 2.6-3.56 5.64 5.64 0 0 1 3.76-1.3c.47 0 .91.05 1.34.15.44.1.83.27 1.16.49l-.28 2.92c-.09.37-.31.55-.66.55-.2 0-.5-.04-.9-.13a6.2 6.2 0 0 0-3.24.18 4.23 4.23 0 0 0-1.47.92c-.43.4-.82.9-1.17 1.5a13.1 13.1 0 0 0-.92 2.02V48h-3.94V25.71h2.24c.43 0 .72.08.88.25.17.16.28.44.33.83l.27 3.39zm15.04-14.59V48h-3.92V15.6h3.92zm19.55 15.43a6.22 6.22 0 0 0-2.38-2.05 6.7 6.7 0 0 0-2.86-.6c-2.07 0-3.66.75-4.77 2.23-1.12 1.48-1.68 3.6-1.68 6.33 0 1.46.13 2.7.38 3.74a7.29 7.29 0 0 0 1.1 2.56 4.35 4.35 0 0 0 1.78 1.45c.7.3 1.5.46 2.4.46 1.29 0 2.41-.3 3.36-.88a9.6 9.6 0 0 0 2.67-2.49V31.02zm3.91-15.43V48h-2.33c-.56 0-.9-.27-1.06-.81l-.35-2.71a12.13 12.13 0 0 1-3.25 2.77 8.28 8.28 0 0 1-4.23 1.06 7.31 7.31 0 0 1-6.14-2.9c-.73-.96-1.3-2.15-1.69-3.57a18.35 18.35 0 0 1 .07-9.48 11.29 11.29 0 0 1 1.89-3.7 8.7 8.7 0 0 1 7.06-3.34 7.96 7.96 0 0 1 6.12 2.62V15.59h3.91zM46.61 70.71V93H42.7V70.71h3.91zm.84-7c0 .39-.08.75-.24 1.09a2.81 2.81 0 0 1-1.52 1.47 2.67 2.67 0 0 1-2.16 0 2.9 2.9 0 0 1-1.45-1.47 2.67 2.67 0 0 1 0-2.16c.15-.35.35-.65.6-.9.25-.27.53-.47.85-.62a2.67 2.67 0 0 1 2.16 0c.35.15.65.35.9.62.27.25.47.55.62.9.16.34.24.7.24 1.08zm7.97 10.24c.49-.54 1-1.04 1.54-1.48a9.85 9.85 0 0 1 3.66-1.84 8.96 8.96 0 0 1 5.43.35c.94.4 1.72.97 2.33 1.71a7.36 7.36 0 0 1 1.43 2.67c.32 1.04.49 2.19.49 3.45V93h-3.94V78.81c0-1.69-.4-3-1.17-3.92-.76-.93-1.93-1.4-3.5-1.4a6.6 6.6 0 0 0-3.25.83c-1 .56-1.92 1.31-2.77 2.27V93h-3.94V70.71h2.35c.56 0 .9.28 1.04.82l.3 2.42zm57.7 3.3c0 2.36-.37 4.5-1.11 6.44a14.3 14.3 0 0 1-3.17 4.98 14.1 14.1 0 0 1-4.93 3.2c-1.9.76-4.02 1.13-6.33 1.13H85.8V61.47h11.77c2.31 0 4.42.39 6.33 1.15a13.8 13.8 0 0 1 8.1 8.18 17.75 17.75 0 0 1 1.12 6.45zm-4.37 0c0-1.94-.26-3.67-.8-5.2a10.94 10.94 0 0 0-2.23-3.87 9.57 9.57 0 0 0-3.53-2.42 12.23 12.23 0 0 0-4.61-.83h-7.5v24.62h7.5c1.7 0 3.24-.28 4.61-.84a9.7 9.7 0 0 0 3.53-2.4 10.94 10.94 0 0 0 2.24-3.87c.53-1.53.8-3.26.8-5.2zm19.8 5.72c-1.8.06-3.34.2-4.62.44-1.26.22-2.3.51-3.1.88-.8.36-1.37.8-1.74 1.3-.35.5-.53 1.05-.53 1.67 0 .58.1 1.1.3 1.52a3 3 0 0 0 .76 1.05c.34.27.73.46 1.17.6a6.13 6.13 0 0 0 1.45.17 7.28 7.28 0 0 0 3.5-.81 11.95 11.95 0 0 0 2.82-2.2v-4.62zm-12.65-9.11a12.73 12.73 0 0 1 3.98-2.66c1.43-.59 3-.88 4.73-.88 1.25 0 2.36.2 3.33.61a6.81 6.81 0 0 1 3.94 4.38c.33 1.04.5 2.19.5 3.43V93h-1.74a1.8 1.8 0 0 1-.88-.18c-.2-.13-.36-.38-.48-.74l-.44-2.12-1.72 1.46a9.48 9.48 0 0 1-3.74 1.7c-.69.15-1.46.23-2.3.23-.87 0-1.69-.12-2.45-.35a5.34 5.34 0 0 1-3.34-2.93 6.64 6.64 0 0 1-.49-2.64c0-.88.25-1.72.73-2.53a6.33 6.33 0 0 1 2.35-2.17c1.09-.63 2.5-1.15 4.25-1.54 1.75-.41 3.89-.65 6.42-.7v-1.75c0-1.73-.37-3.03-1.12-3.91-.75-.9-1.84-1.34-3.28-1.34-.97 0-1.78.12-2.44.37-.64.23-1.2.5-1.7.81l-1.23.82c-.33.23-.67.35-1 .35-.27 0-.5-.07-.69-.2a2.1 2.1 0 0 1-.48-.53l-.7-1.25zm27.67 19.5c-1.76 0-3.12-.5-4.07-1.48-.94-.98-1.41-2.4-1.41-4.25V74h-2.68a.9.9 0 0 1-.6-.2c-.16-.14-.24-.36-.24-.66v-1.56l3.65-.46.9-6.89a.9.9 0 0 1 .29-.52.88.88 0 0 1 .62-.22H142v7.67h6.44V74H142v13.38c0 .94.22 1.63.68 2.09.45.45 1.04.68 1.76.68a3.21 3.21 0 0 0 1.85-.53l.55-.35c.16-.12.3-.18.41-.18.2 0 .4.13.55.38l1.15 1.87a7.45 7.45 0 0 1-2.44 1.5 8.53 8.53 0 0 1-2.95.52zm19.68-10.4c-1.8.07-3.34.21-4.62.45-1.26.22-2.3.51-3.1.88-.8.36-1.37.8-1.74 1.3-.35.5-.53 1.05-.53 1.67 0 .58.1 1.1.3 1.52a2.9 2.9 0 0 0 .76 1.05c.34.27.73.46 1.17.6a6.13 6.13 0 0 0 1.45.17 7.3 7.3 0 0 0 3.5-.81 12.04 12.04 0 0 0 2.82-2.2v-4.62zm-12.65-9.1a12.72 12.72 0 0 1 3.99-2.66c1.42-.59 3-.88 4.72-.88 1.25 0 2.36.2 3.33.61a6.81 6.81 0 0 1 3.94 4.38c.33 1.04.5 2.19.5 3.43V93h-1.74a1.8 1.8 0 0 1-.88-.18c-.2-.13-.36-.38-.48-.74l-.44-2.12-1.72 1.46a9.48 9.48 0 0 1-3.74 1.7c-.69.15-1.46.23-2.3.23-.87 0-1.69-.12-2.45-.35a5.33 5.33 0 0 1-3.34-2.93 6.62 6.62 0 0 1-.49-2.64c0-.88.25-1.72.73-2.53a6.33 6.33 0 0 1 2.35-2.17c1.09-.63 2.5-1.15 4.25-1.54a31.2 31.2 0 0 1 6.42-.7v-1.75c0-1.73-.37-3.03-1.12-3.91-.75-.9-1.84-1.34-3.28-1.34-.97 0-1.78.12-2.44.37-.64.23-1.2.5-1.7.81l-1.22.82c-.34.23-.68.35-1.02.35-.26 0-.49-.07-.68-.2a1.88 1.88 0 0 1-.48-.53l-.7-1.25zM40.98 32.25c0 2.36-.38 4.53-1.12 6.51a14.26 14.26 0 0 1-8.1 8.4c-1.9.78-4.02 1.17-6.34 1.17a16.6 16.6 0 0 1-6.33-1.17 14.31 14.31 0 0 1-8.08-8.4 18.29 18.29 0 0 1-1.12-6.51c0-2.36.38-4.53 1.12-6.5.75-1.97 1.8-3.67 3.17-5.1a14.32 14.32 0 0 1 4.9-3.34c1.92-.8 4.03-1.19 6.34-1.19 2.32 0 4.43.4 6.34 1.19 1.92.8 3.56 1.9 4.93 3.34a14.87 14.87 0 0 1 3.17 5.1 18.1 18.1 0 0 1 1.12 6.5zm-4.38 0c0-1.94-.26-3.68-.8-5.22a10.91 10.91 0 0 0-2.24-3.89 9.68 9.68 0 0 0-3.52-2.46 11.95 11.95 0 0 0-4.62-.86c-1.68 0-3.21.28-4.6.86a9.88 9.88 0 0 0-3.54 2.46 10.91 10.91 0 0 0-2.24 3.9c-.53 1.53-.8 3.27-.8 5.2 0 1.94.27 3.68.8 5.22a11.17 11.17 0 0 0 2.24 3.9 10.01 10.01 0 0 0 3.55 2.44c1.38.56 2.9.83 4.6.83s3.24-.27 4.61-.83a9.8 9.8 0 0 0 3.52-2.44 11.17 11.17 0 0 0 2.25-3.9c.53-1.54.8-3.28.8-5.21zm26.22-6.54V48H60.5c-.56 0-.9-.27-1.05-.81l-.31-2.4a12.45 12.45 0 0 1-3.26 2.6c-1.2.64-2.58.96-4.13.96-1.22 0-2.3-.2-3.24-.6a6.52 6.52 0 0 1-2.33-1.7 7.37 7.37 0 0 1-1.43-2.67c-.3-1.04-.46-2.2-.46-3.45V25.7h3.91v14.22c0 1.68.38 2.99 1.15 3.91.77.93 1.96 1.39 3.54 1.39 1.16 0 2.24-.27 3.23-.82a10.42 10.42 0 0 0 2.8-2.28V25.7h3.91zm8.61 4.47a9.94 9.94 0 0 1 2.6-3.56 5.64 5.64 0 0 1 3.76-1.3c.47 0 .92.05 1.34.15.44.1.83.27 1.17.49l-.3 2.92c-.09.37-.3.55-.66.55-.2 0-.5-.04-.9-.13a6.21 6.21 0 0 0-3.24.18 4.23 4.23 0 0 0-1.47.92c-.42.4-.81.9-1.17 1.5-.33.58-.64 1.26-.92 2.02V48H67.7V25.71h2.25c.42 0 .72.08.88.25.16.16.27.44.33.83l.26 3.39zm61.16-13.7L122.75 48h-3.82l-7.99-24.05a21.95 21.95 0 0 1-.42-1.58 38.36 38.36 0 0 1-.44 1.58L102.05 48h-3.83L88.4 16.47h3.54c.38 0 .7.1.95.29.26.2.43.43.5.73l6.52 21.9.28 1.28.29 1.46.3-1.46.38-1.27 7.41-21.91c.1-.25.26-.48.51-.69.27-.22.58-.33.95-.33h1.23c.38 0 .69.1.92.29a1.77 1.77 0 0 1 .53.73l7.4 21.9a28.4 28.4 0 0 1 .68 2.62 29.52 29.52 0 0 1 .52-2.61l6.54-21.91a1.31 1.31 0 0 1 .48-.7c.27-.21.58-.32.95-.32h3.32zm9.35 8.88c1.63 0 3.1.27 4.4.82a9.43 9.43 0 0 1 5.46 5.94c.5 1.4.74 2.98.74 4.73 0 1.76-.25 3.34-.74 4.75a9.43 9.43 0 0 1-5.46 5.92c-1.3.52-2.77.79-4.4.79-1.64 0-3.12-.27-4.44-.8a9.42 9.42 0 0 1-3.35-2.3c-.92-1-1.63-2.2-2.13-3.61-.49-1.41-.73-3-.73-4.75s.24-3.33.73-4.73c.5-1.43 1.2-2.64 2.13-3.63a9.4 9.4 0 0 1 3.35-2.31c1.32-.55 2.8-.82 4.44-.82zm0 19.89c2.2 0 3.84-.73 4.93-2.2 1.08-1.48 1.63-3.54 1.63-6.18 0-2.66-.55-4.72-1.63-6.2-1.09-1.49-2.73-2.23-4.93-2.23-1.12 0-2.09.2-2.93.57a5.71 5.71 0 0 0-2.06 1.65 7.5 7.5 0 0 0-1.24 2.67c-.26 1.04-.4 2.22-.4 3.54 0 2.64.55 4.7 1.64 6.18 1.1 1.47 2.76 2.2 4.99 2.2zm17.97-15.07a9.94 9.94 0 0 1 2.6-3.56 5.64 5.64 0 0 1 3.76-1.3c.47 0 .91.05 1.34.15.44.1.83.27 1.16.49l-.28 2.92c-.09.37-.31.55-.66.55-.2 0-.5-.04-.9-.13a6.2 6.2 0 0 0-3.24.18 4.23 4.23 0 0 0-1.47.92c-.43.4-.82.9-1.17 1.5a13.1 13.1 0 0 0-.92 2.02V48h-3.94V25.71h2.24c.43 0 .72.08.88.25.17.16.28.44.33.83l.27 3.39zm15.04-14.59V48h-3.92V15.6h3.92zm19.55 15.43a6.22 6.22 0 0 0-2.38-2.05 6.7 6.7 0 0 0-2.86-.6c-2.07 0-3.66.75-4.77 2.23-1.12 1.48-1.68 3.6-1.68 6.33 0 1.46.13 2.7.38 3.74a7.29 7.29 0 0 0 1.1 2.56 4.35 4.35 0 0 0 1.78 1.45c.7.3 1.5.46 2.4.46 1.29 0 2.41-.3 3.36-.88a9.6 9.6 0 0 0 2.67-2.49V31.02zm3.91-15.43V48h-2.33c-.56 0-.9-.27-1.06-.81l-.35-2.71a12.13 12.13 0 0 1-3.25 2.77 8.28 8.28 0 0 1-4.23 1.06 7.31 7.31 0 0 1-6.14-2.9c-.73-.96-1.3-2.15-1.69-3.57a18.35 18.35 0 0 1 .07-9.48 11.29 11.29 0 0 1 1.89-3.7 8.7 8.7 0 0 1 7.06-3.34 7.96 7.96 0 0 1 6.12 2.62V15.59h3.91zM46.61 70.71V93H42.7V70.71h3.91zm.84-7c0 .39-.08.75-.24 1.09a2.81 2.81 0 0 1-1.52 1.47 2.67 2.67 0 0 1-2.16 0 2.9 2.9 0 0 1-1.45-1.47 2.67 2.67 0 0 1 0-2.16c.15-.35.35-.65.6-.9.25-.27.53-.47.85-.62a2.67 2.67 0 0 1 2.16 0c.35.15.65.35.9.62.27.25.47.55.62.9.16.34.24.7.24 1.08zm7.97 10.24c.49-.54 1-1.04 1.54-1.48a9.85 9.85 0 0 1 3.66-1.84 8.96 8.96 0 0 1 5.43.35c.94.4 1.72.97 2.33 1.71a7.36 7.36 0 0 1 1.43 2.67c.32 1.04.49 2.19.49 3.45V93h-3.94V78.81c0-1.69-.4-3-1.17-3.92-.76-.93-1.93-1.4-3.5-1.4a6.6 6.6 0 0 0-3.25.83c-1 .56-1.92 1.31-2.77 2.27V93h-3.94V70.71h2.35c.56 0 .9.28 1.04.82l.3 2.42zm57.7 3.3c0 2.36-.37 4.5-1.11 6.44a14.3 14.3 0 0 1-3.17 4.98 14.1 14.1 0 0 1-4.93 3.2c-1.9.76-4.02 1.13-6.33 1.13H85.8V61.47h11.77c2.31 0 4.42.39 6.33 1.15a13.8 13.8 0 0 1 8.1 8.18 17.75 17.75 0 0 1 1.12 6.45zm-4.37 0c0-1.94-.26-3.67-.8-5.2a10.94 10.94 0 0 0-2.23-3.87 9.57 9.57 0 0 0-3.53-2.42 12.23 12.23 0 0 0-4.61-.83h-7.5v24.62h7.5c1.7 0 3.24-.28 4.61-.84a9.7 9.7 0 0 0 3.53-2.4 10.94 10.94 0 0 0 2.24-3.87c.53-1.53.8-3.26.8-5.2zm19.8 5.72c-1.8.06-3.34.2-4.62.44-1.26.22-2.3.51-3.1.88-.8.36-1.37.8-1.74 1.3-.35.5-.53 1.05-.53 1.67 0 .58.1 1.1.3 1.52a3 3 0 0 0 .76 1.05c.34.27.73.46 1.17.6a6.13 6.13 0 0 0 1.45.17 7.28 7.28 0 0 0 3.5-.81 11.95 11.95 0 0 0 2.82-2.2v-4.62zm-12.65-9.11a12.73 12.73 0 0 1 3.98-2.66c1.43-.59 3-.88 4.73-.88 1.25 0 2.36.2 3.33.61a6.81 6.81 0 0 1 3.94 4.38c.33 1.04.5 2.19.5 3.43V93h-1.74a1.8 1.8 0 0 1-.88-.18c-.2-.13-.36-.38-.48-.74l-.44-2.12-1.72 1.46a9.48 9.48 0 0 1-3.74 1.7c-.69.15-1.46.23-2.3.23-.87 0-1.69-.12-2.45-.35a5.34 5.34 0 0 1-3.34-2.93 6.64 6.64 0 0 1-.49-2.64c0-.88.25-1.72.73-2.53a6.33 6.33 0 0 1 2.35-2.17c1.09-.63 2.5-1.15 4.25-1.54 1.75-.41 3.89-.65 6.42-.7v-1.75c0-1.73-.37-3.03-1.12-3.91-.75-.9-1.84-1.34-3.28-1.34-.97 0-1.78.12-2.44.37-.64.23-1.2.5-1.7.81l-1.23.82c-.33.23-.67.35-1 .35-.27 0-.5-.07-.69-.2a2.1 2.1 0 0 1-.48-.53l-.7-1.25zm27.67 19.5c-1.76 0-3.12-.5-4.07-1.48-.94-.98-1.41-2.4-1.41-4.25V74h-2.68a.9.9 0 0 1-.6-.2c-.16-.14-.24-.36-.24-.66v-1.56l3.65-.46.9-6.89a.9.9 0 0 1 .29-.52.88.88 0 0 1 .62-.22H142v7.67h6.44V74H142v13.38c0 .94.22 1.63.68 2.09.45.45 1.04.68 1.76.68a3.21 3.21 0 0 0 1.85-.53l.55-.35c.16-.12.3-.18.41-.18.2 0 .4.13.55.38l1.15 1.87a7.45 7.45 0 0 1-2.44 1.5 8.53 8.53 0 0 1-2.95.52zm19.68-10.4c-1.8.07-3.34.21-4.62.45-1.26.22-2.3.51-3.1.88-.8.36-1.37.8-1.74 1.3-.35.5-.53 1.05-.53 1.67 0 .58.1 1.1.3 1.52a2.9 2.9 0 0 0 .76 1.05c.34.27.73.46 1.17.6a6.13 6.13 0 0 0 1.45.17 7.3 7.3 0 0 0 3.5-.81 12.04 12.04 0 0 0 2.82-2.2v-4.62zm-12.65-9.1a12.72 12.72 0 0 1 3.99-2.66c1.42-.59 3-.88 4.72-.88 1.25 0 2.36.2 3.33.61a6.81 6.81 0 0 1 3.94 4.38c.33 1.04.5 2.19.5 3.43V93h-1.74a1.8 1.8 0 0 1-.88-.18c-.2-.13-.36-.38-.48-.74l-.44-2.12-1.72 1.46a9.48 9.48 0 0 1-3.74 1.7c-.69.15-1.46.23-2.3.23-.87 0-1.69-.12-2.45-.35a5.33 5.33 0 0 1-3.34-2.93 6.62 6.62 0 0 1-.49-2.64c0-.88.25-1.72.73-2.53a6.33 6.33 0 0 1 2.35-2.17c1.09-.63 2.5-1.15 4.25-1.54a31.2 31.2 0 0 1 6.42-.7v-1.75c0-1.73-.37-3.03-1.12-3.91-.75-.9-1.84-1.34-3.28-1.34-.97 0-1.78.12-2.44.37-.64.23-1.2.5-1.7.81l-1.22.82c-.34.23-.68.35-1.02.35-.26 0-.49-.07-.68-.2a1.88 1.88 0 0 1-.48-.53l-.7-1.25zM40.98 32.25c0 2.36-.38 4.53-1.12 6.51a14.26 14.26 0 0 1-8.1 8.4c-1.9.78-4.02 1.17-6.34 1.17a16.6 16.6 0 0 1-6.33-1.17 14.31 14.31 0 0 1-8.08-8.4 18.29 18.29 0 0 1-1.12-6.51c0-2.36.38-4.53 1.12-6.5.75-1.97 1.8-3.67 3.17-5.1a14.32 14.32 0 0 1 4.9-3.34c1.92-.8 4.03-1.19 6.34-1.19 2.32 0 4.43.4 6.34 1.19 1.92.8 3.56 1.9 4.93 3.34a14.87 14.87 0 0 1 3.17 5.1 18.1 18.1 0 0 1 1.12 6.5zm-4.38 0c0-1.94-.26-3.68-.8-5.22a10.91 10.91 0 0 0-2.24-3.89 9.68 9.68 0 0 0-3.52-2.46 11.95 11.95 0 0 0-4.62-.86c-1.68 0-3.21.28-4.6.86a9.88 9.88 0 0 0-3.54 2.46 10.91 10.91 0 0 0-2.24 3.9c-.53 1.53-.8 3.27-.8 5.2 0 1.94.27 3.68.8 5.22a11.17 11.17 0 0 0 2.24 3.9 10.01 10.01 0 0 0 3.55 2.44c1.38.56 2.9.83 4.6.83s3.24-.27 4.61-.83a9.8 9.8 0 0 0 3.52-2.44 11.17 11.17 0 0 0 2.25-3.9c.53-1.54.8-3.28.8-5.21zm26.22-6.54V48H60.5c-.56 0-.9-.27-1.05-.81l-.31-2.4a12.45 12.45 0 0 1-3.26 2.6c-1.2.64-2.58.96-4.13.96-1.22 0-2.3-.2-3.24-.6a6.52 6.52 0 0 1-2.33-1.7 7.37 7.37 0 0 1-1.43-2.67c-.3-1.04-.46-2.2-.46-3.45V25.7h3.91v14.22c0 1.68.38 2.99 1.15 3.91.77.93 1.96 1.39 3.54 1.39 1.16 0 2.24-.27 3.23-.82a10.42 10.42 0 0 0 2.8-2.28V25.7h3.91zm8.61 4.47a9.94 9.94 0 0 1 2.6-3.56 5.64 5.64 0 0 1 3.76-1.3c.47 0 .92.05 1.34.15.44.1.83.27 1.17.49l-.3 2.92c-.09.37-.3.55-.66.55-.2 0-.5-.04-.9-.13a6.21 6.21 0 0 0-3.24.18 4.23 4.23 0 0 0-1.47.92c-.42.4-.81.9-1.17 1.5-.33.58-.64 1.26-.92 2.02V48H67.7V25.71h2.25c.42 0 .72.08.88.25.16.16.27.44.33.83l.26 3.39zm61.16-13.7L122.75 48h-3.82l-7.99-24.05a21.95 21.95 0 0 1-.42-1.58 38.36 38.36 0 0 1-.44 1.58L102.05 48h-3.83L88.4 16.47h3.54c.38 0 .7.1.95.29.26.2.43.43.5.73l6.52 21.9.28 1.28.29 1.46.3-1.46.38-1.27 7.41-21.91c.1-.25.26-.48.51-.69.27-.22.58-.33.95-.33h1.23c.38 0 .69.1.92.29a1.77 1.77 0 0 1 .53.73l7.4 21.9a28.4 28.4 0 0 1 .68 2.62 29.52 29.52 0 0 1 .52-2.61l6.54-21.91a1.31 1.31 0 0 1 .48-.7c.27-.21.58-.32.95-.32h3.32zm9.35 8.88c1.63 0 3.1.27 4.4.82a9.43 9.43 0 0 1 5.46 5.94c.5 1.4.74 2.98.74 4.73 0 1.76-.25 3.34-.74 4.75a9.43 9.43 0 0 1-5.46 5.92c-1.3.52-2.77.79-4.4.79-1.64 0-3.12-.27-4.44-.8a9.42 9.42 0 0 1-3.35-2.3c-.92-1-1.63-2.2-2.13-3.61-.49-1.41-.73-3-.73-4.75s.24-3.33.73-4.73c.5-1.43 1.2-2.64 2.13-3.63a9.4 9.4 0 0 1 3.35-2.31c1.32-.55 2.8-.82 4.44-.82zm0 19.89c2.2 0 3.84-.73 4.93-2.2 1.08-1.48 1.63-3.54 1.63-6.18 0-2.66-.55-4.72-1.63-6.2-1.09-1.49-2.73-2.23-4.93-2.23-1.12 0-2.09.2-2.93.57a5.71 5.71 0 0 0-2.06 1.65 7.5 7.5 0 0 0-1.24 2.67c-.26 1.04-.4 2.22-.4 3.54 0 2.64.55 4.7 1.64 6.18 1.1 1.47 2.76 2.2 4.99 2.2zm17.97-15.07a9.94 9.94 0 0 1 2.6-3.56 5.64 5.64 0 0 1 3.76-1.3c.47 0 .91.05 1.34.15.44.1.83.27 1.16.49l-.28 2.92c-.09.37-.31.55-.66.55-.2 0-.5-.04-.9-.13a6.2 6.2 0 0 0-3.24.18 4.23 4.23 0 0 0-1.47.92c-.43.4-.82.9-1.17 1.5a13.1 13.1 0 0 0-.92 2.02V48h-3.94V25.71h2.24c.43 0 .72.08.88.25.17.16.28.44.33.83l.27 3.39zm15.04-14.59V48h-3.92V15.6h3.92zm19.55 15.43a6.22 6.22 0 0 0-2.38-2.05 6.7 6.7 0 0 0-2.86-.6c-2.07 0-3.66.75-4.77 2.23-1.12 1.48-1.68 3.6-1.68 6.33 0 1.46.13 2.7.38 3.74a7.29 7.29 0 0 0 1.1 2.56 4.35 4.35 0 0 0 1.78 1.45c.7.3 1.5.46 2.4.46 1.29 0 2.41-.3 3.36-.88a9.6 9.6 0 0 0 2.67-2.49V31.02zm3.91-15.43V48h-2.33c-.56 0-.9-.27-1.06-.81l-.35-2.71a12.13 12.13 0 0 1-3.25 2.77 8.28 8.28 0 0 1-4.23 1.06 7.31 7.31 0 0 1-6.14-2.9c-.73-.96-1.3-2.15-1.69-3.57a18.35 18.35 0 0 1 .07-9.48 11.29 11.29 0 0 1 1.89-3.7 8.7 8.7 0 0 1 7.06-3.34 7.96 7.96 0 0 1 6.12 2.62V15.59h3.91zM46.61 70.71V93H42.7V70.71h3.91zm.84-7c0 .39-.08.75-.24 1.09a2.81 2.81 0 0 1-1.52 1.47 2.67 2.67 0 0 1-2.16 0 2.9 2.9 0 0 1-1.45-1.47 2.67 2.67 0 0 1 0-2.16c.15-.35.35-.65.6-.9.25-.27.53-.47.85-.62a2.67 2.67 0 0 1 2.16 0c.35.15.65.35.9.62.27.25.47.55.62.9.16.34.24.7.24 1.08zm7.97 10.24c.49-.54 1-1.04 1.54-1.48a9.85 9.85 0 0 1 3.66-1.84 8.96 8.96 0 0 1 5.43.35c.94.4 1.72.97 2.33 1.71a7.36 7.36 0 0 1 1.43 2.67c.32 1.04.49 2.19.49 3.45V93h-3.94V78.81c0-1.69-.4-3-1.17-3.92-.76-.93-1.93-1.4-3.5-1.4a6.6 6.6 0 0 0-3.25.83c-1 .56-1.92 1.31-2.77 2.27V93h-3.94V70.71h2.35c.56 0 .9.28 1.04.82l.3 2.42zm57.7 3.3c0 2.36-.37 4.5-1.11 6.44a14.3 14.3 0 0 1-3.17 4.98 14.1 14.1 0 0 1-4.93 3.2c-1.9.76-4.02 1.13-6.33 1.13H85.8V61.47h11.77c2.31 0 4.42.39 6.33 1.15a13.8 13.8 0 0 1 8.1 8.18 17.75 17.75 0 0 1 1.12 6.45zm-4.37 0c0-1.94-.26-3.67-.8-5.2a10.94 10.94 0 0 0-2.23-3.87 9.57 9.57 0 0 0-3.53-2.42 12.23 12.23 0 0 0-4.61-.83h-7.5v24.62h7.5c1.7 0 3.24-.28 4.61-.84a9.7 9.7 0 0 0 3.53-2.4 10.94 10.94 0 0 0 2.24-3.87c.53-1.53.8-3.26.8-5.2zm19.8 5.72c-1.8.06-3.34.2-4.62.44-1.26.22-2.3.51-3.1.88-.8.36-1.37.8-1.74 1.3-.35.5-.53 1.05-.53 1.67 0 .58.1 1.1.3 1.52a3 3 0 0 0 .76 1.05c.34.27.73.46 1.17.6a6.13 6.13 0 0 0 1.45.17 7.28 7.28 0 0 0 3.5-.81 11.95 11.95 0 0 0 2.82-2.2v-4.62zm-12.65-9.11a12.73 12.73 0 0 1 3.98-2.66c1.43-.59 3-.88 4.73-.88 1.25 0 2.36.2 3.33.61a6.81 6.81 0 0 1 3.94 4.38c.33 1.04.5 2.19.5 3.43V93h-1.74a1.8 1.8 0 0 1-.88-.18c-.2-.13-.36-.38-.48-.74l-.44-2.12-1.72 1.46a9.48 9.48 0 0 1-3.74 1.7c-.69.15-1.46.23-2.3.23-.87 0-1.69-.12-2.45-.35a5.34 5.34 0 0 1-3.34-2.93 6.64 6.64 0 0 1-.49-2.64c0-.88.25-1.72.73-2.53a6.33 6.33 0 0 1 2.35-2.17c1.09-.63 2.5-1.15 4.25-1.54 1.75-.41 3.89-.65 6.42-.7v-1.75c0-1.73-.37-3.03-1.12-3.91-.75-.9-1.84-1.34-3.28-1.34-.97 0-1.78.12-2.44.37-.64.23-1.2.5-1.7.81l-1.23.82c-.33.23-.67.35-1 .35-.27 0-.5-.07-.69-.2a2.1 2.1 0 0 1-.48-.53l-.7-1.25zm27.67 19.5c-1.76 0-3.12-.5-4.07-1.48-.94-.98-1.41-2.4-1.41-4.25V74h-2.68a.9.9 0 0 1-.6-.2c-.16-.14-.24-.36-.24-.66v-1.56l3.65-.46.9-6.89a.9.9 0 0 1 .29-.52.88.88 0 0 1 .62-.22H142v7.67h6.44V74H142v13.38c0 .94.22 1.63.68 2.09.45.45 1.04.68 1.76.68a3.21 3.21 0 0 0 1.85-.53l.55-.35c.16-.12.3-.18.41-.18.2 0 .4.13.55.38l1.15 1.87a7.45 7.45 0 0 1-2.44 1.5 8.53 8.53 0 0 1-2.95.52zm19.68-10.4c-1.8.07-3.34.21-4.62.45-1.26.22-2.3.51-3.1.88-.8.36-1.37.8-1.74 1.3-.35.5-.53 1.05-.53 1.67 0 .58.1 1.1.3 1.52a2.9 2.9 0 0 0 .76 1.05c.34.27.73.46 1.17.6a6.13 6.13 0 0 0 1.45.17 7.3 7.3 0 0 0 3.5-.81 12.04 12.04 0 0 0 2.82-2.2v-4.62zm-12.65-9.1a12.72 12.72 0 0 1 3.99-2.66c1.42-.59 3-.88 4.72-.88 1.25 0 2.36.2 3.33.61a6.81 6.81 0 0 1 3.94 4.38c.33 1.04.5 2.19.5 3.43V93h-1.74a1.8 1.8 0 0 1-.88-.18c-.2-.13-.36-.38-.48-.74l-.44-2.12-1.72 1.46a9.48 9.48 0 0 1-3.74 1.7c-.69.15-1.46.23-2.3.23-.87 0-1.69-.12-2.45-.35a5.33 5.33 0 0 1-3.34-2.93 6.62 6.62 0 0 1-.49-2.64c0-.88.25-1.72.73-2.53a6.33 6.33 0 0 1 2.35-2.17c1.09-.63 2.5-1.15 4.25-1.54a31.2 31.2 0 0 1 6.42-.7v-1.75c0-1.73-.37-3.03-1.12-3.91-.75-.9-1.84-1.34-3.28-1.34-.97 0-1.78.12-2.44.37-.64.23-1.2.5-1.7.81l-1.22.82c-.34.23-.68.35-1.02.35-.26 0-.49-.07-.68-.2a1.88 1.88 0 0 1-.48-.53l-.7-1.25z" fill="#fff"/><path fill="#D42B21" d="M0 106.79h210V120H0z"/></g><defs><clipPath id="a"><path fill="#fff" d="M0 0h210v120H0z"/></clipPath></defs></svg></g><a href="https://ourworldindata.org/grapher/malaria-deaths-comparisons" style="font-family:&quot;Playfair Display&quot;,Georgia,&quot;Times New Roman&quot;,serif" target="_blank" rel="noopener"><text font-size="25.2" x="15" y="36.9" fill="#555"><tspan x="15" y="36.92">Malaria deaths: IHME vs. WHO estimates, 2000 to 2019</tspan></text></a><text x="15" y="58.2" style="font-size:14.4px;line-height:1.2" fill="#666"><tspan x="15" y="58.2">Annual number of deaths from malaria sourced from the IHME&apos;s Global Burden of Disease versus estimates from the</tspan><tspan x="15" y="75.4">World Health Organization. Shown is a line of parity; if estimates between IHME and WHO data matched, points</tspan><tspan x="15" y="92.7">would lie along this line.</tspan></text></g><g class="ScatterPlot"><g class="DualAxisView"><g class="HorizontalAxis"><text font-size="12.6" x="275" y="528.6"><tspan x="275.01" y="528.64">Malaria deaths (WHO estimates)</tspan></text><text x="101.57" y="507.68" fill="#666" text-anchor="start" font-size="16.2">1</text><text x="215.8" y="507.68" fill="#666" text-anchor="middle" font-size="16.2">10</text><text x="330" y="507.68" fill="#666" text-anchor="middle" font-size="16.2">100</text><text x="444.3" y="507.68" fill="#666" text-anchor="middle" font-size="16.2">1,000</text><text x="558.5" y="507.68" fill="#666" text-anchor="middle" font-size="16.2">10,000</text><text x="672.8" y="507.68" fill="#666" text-anchor="middle" font-size="16.2">100,000</text></g><g class="VerticalAxis"><text font-size="12.6" x="-413.1" y="26" transform="rotate(-90)"><tspan x="-413.08" y="25.96">Malaria deaths (IHME estimates)</tspan></text><text x="96.57" y="486.5" dy=".32em" text-anchor="end" fill="#666" font-size="16.2">1</text><text x="96.57" y="417.8" dy=".32em" text-anchor="end" fill="#666" font-size="16.2">10</text><text x="96.57" y="349" dy=".32em" text-anchor="end" fill="#666" font-size="16.2">100</text><text x="96.57" y="280.3" dy=".32em" text-anchor="end" fill="#666" font-size="16.2">1,000</text><text x="96.57" y="211.6" dy=".32em" text-anchor="end" fill="#666" font-size="16.2">10,000</text><text x="96.57" y="142.8" dy=".32em" text-anchor="end" fill="#666" font-size="16.2">100,000</text></g><g class="AxisGridLines horizontalLines" stroke="#ddd" stroke-dasharray="3,2"><path d="M101.57 486.5h616.52M101.57 417.8h616.52M101.57 349h616.52M101.57 280.3h616.52M101.57 211.6h616.52M101.57 142.8h616.52"/></g><g class="AxisGridLines verticalLines" stroke="#ddd" stroke-dasharray="3,2"><path d="M101.6 486.48V112.04M215.8 486.48V112.04M330 486.48V112.04M444.3 486.48V112.04M558.5 486.48V112.04M672.8 486.48V112.04"/></g></g><g class="comparisonLine"><defs><clipPath id="b"><path d="M101.57 112.04h616.52v374.44H101.57z"/></clipPath></defs><path style="opacity:.9;fill:none;stroke:#ccc;stroke-dasharray:2 2" d="m101.6 486.5 1.2-.8 1.2-.7 1.3-.7 1.2-.8 1.2-.7 1.3-.8 1.2-.7 1.2-.8 1.3-.7 1.2-.7 1.2-.8 1.3-.7 1.2-.8 1.2-.7 1.3-.7 1.2-.8 1.2-.7 1.3-.8 1.2-.7 1.2-.8 1.3-.7 1.2-.7 1.2-.8 1.3-.7 1.2-.8 1.2-.7 1.3-.7 1.2-.8 1.2-.7 1.3-.8 1.2-.7 1.2-.8 1.3-.7 1.2-.7 1.2-.8 1.3-.7 1.2-.8 1.2-.7 1.3-.8 1.2-.7 1.2-.7 1.3-.8 1.2-.7 1.2-.8 1.3-.7 1.2-.7 1.2-.8 1.3-.7 1.2-.8 1.2-.7 1.3-.8 1.2-.7 1.2-.7 1.3-.8 1.2-.7 1.2-.8 1.3-.7 1.2-.7 1.2-.8 1.3-.7 1.2-.8 1.2-.7 1.3-.8 1.2-.7 1.2-.7 1.2-.8 1.3-.7 1.2-.8 1.2-.7 1.3-.7 1.2-.8 1.2-.7 1.3-.8 1.2-.7 1.2-.8 1.3-.7 1.2-.7 1.2-.8 1.3-.7 1.2-.8 1.2-.7 1.3-.7 1.2-.8 1.2-.7 1.3-.8 1.2-.7 1.2-.8 1.3-.7 1.2-.7 1.2-.8 1.3-.7 1.2-.8 1.2-.7 1.3-.8 1.2-.7 1.2-.7 1.3-.8 1.2-.7 1.2-.8 1.3-.7 1.2-.7 1.2-.8 1.3-.7 1.2-.8 1.2-.7 1.3-.8 1.2-.7 1.2-.7 1.3-.8 1.2-.7 1.2-.8 1.3-.7 1.2-.7 1.2-.8 1.3-.7 1.2-.8 1.2-.7 1.3-.8 1.2-.7 1.2-.7 1.3-.8 1.2-.7 1.2-.8 1.3-.7 1.2-.7 1.2-.8 1.3-.7 1.2-.8 1.2-.7 1.3-.8 1.2-.7 1.2-.7 1.3-.8 1.2-.7 1.2-.8 1.3-.7 1.2-.7 1.2-.8 1.3-.7 1.2-.8 1.2-.7 1.3-.8 1.2-.7 1.2-.7 1.3-.8 1.2-.7 1.2-.8 1.3-.7 1.2-.8 1.2-.7 1.3-.7 1.2-.8 1.2-.7 1.3-.8 1.2-.7 1.2-.7 1.3-.8 1.2-.7 1.2-.8 1.3-.7 1.2-.8 1.2-.7 1.3-.7 1.2-.8 1.2-.7 1.3-.8 1.2-.7 1.2-.7 1.3-.8 1.2-.7 1.2-.8 1.3-.7 1.2-.8 1.2-.7 1.3-.7 1.2-.8 1.2-.7 1.3-.8 1.2-.7 1.2-.7 1.2-.8 1.3-.7 1.2-.8 1.2-.7 1.3-.8 1.2-.7 1.2-.7 1.3-.8 1.2-.7 1.2-.8 1.3-.7 1.2-.7 1.2-.8 1.3-.7 1.2-.8 1.2-.7 1.3-.8 1.2-.7 1.2-.7 1.3-.8 1.2-.7 1.2-.8 1.3-.7 1.2-.8 1.2-.7 1.3-.7 1.2-.8 1.2-.7 1.3-.8 1.2-.7 1.2-.7 1.3-.8 1.2-.7 1.2-.8 1.3-.7 1.2-.8 1.2-.7 1.3-.7 1.2-.8 1.2-.7 1.3-.8 1.2-.7 1.2-.7 1.3-.8 1.2-.7 1.2-.8 1.3-.7 1.2-.8 1.2-.7 1.3-.7 1.2-.8 1.2-.7 1.3-.8 1.2-.7 1.2-.7 1.3-.8 1.2-.7 1.2-.8 1.3-.7 1.2-.8 1.2-.7 1.3-.7 1.2-.8 1.2-.7 1.3-.8 1.2-.7 1.2-.7 1.3-.8 1.2-.7 1.2-.8 1.3-.7 1.2-.8 1.2-.7 1.3-.7 1.2-.8 1.2-.7 1.3-.8 1.2-.7 1.2-.8 1.3-.7 1.2-.7 1.2-.8 1.3-.7 1.2-.8 1.2-.7 1.3-.7 1.2-.8 1.2-.7 1.3-.8 1.2-.7 1.2-.8 1.3-.7 1.2-.7 1.2-.8 1.3-.7 1.2-.8 1.2-.7 1.3-.7 1.2-.8 1.2-.7 1.3-.8 1.2-.7 1.2-.8 1.3-.7 1.2-.7 1.2-.8 1.3-.7 1.2-.8 1.2-.7 1.3-.7 1.2-.8 1.2-.7 1.3-.8 1.2-.7 1.2-.8 1.3-.7 1.2-.7 1.2-.8 1.2-.7 1.3-.8 1.2-.7 1.2-.7 1.3-.8 1.2-.7 1.2-.8 1.3-.7 1.2-.8 1.2-.7 1.3-.7 1.2-.8 1.2-.7 1.3-.8 1.2-.7 1.2-.8 1.3-.7 1.2-.7 1.2-.8 1.3-.7 1.2-.8 1.2-.7 1.3-.7 1.2-.8 1.2-.7 1.3-.8 1.2-.7 1.2-.8 1.3-.7 1.2-.7 1.2-.8 1.3-.7 1.2-.8 1.2-.7 1.3-.7 1.2-.8 1.2-.7 1.3-.8 1.2-.7 1.2-.8 1.3-.7 1.2-.7 1.2-.8 1.3-.7 1.2-.8 1.2-.7 1.3-.7 1.2-.8 1.2-.7 1.3-.8 1.2-.7 1.2-.8 1.3-.7 1.2-.7 1.2-.8 1.3-.7 1.2-.8 1.2-.7 1.3-.7 1.2-.8 1.2-.7 1.3-.8 1.2-.7 1.2-.8 1.3-.7 1.2-.7 1.2-.8 1.3-.7 1.2-.8 1.2-.7 1.3-.8 1.2-.7 1.2-.7 1.3-.8 1.2-.7 1.2-.8 1.3-.7 1.2-.7 1.2-.8 1.3-.7 1.2-.8 1.2-.7 1.3-.8 1.2-.7 1.2-.7 1.3-.8 1.2-.7 1.2-.8 1.3-.7 1.2-.7 1.2-.8 1.3-.7 1.2-.8 1.2-.7 1.3-.8 1.2-.7 1.2-.7 1.3-.8 1.2-.7 1.2-.8 1.3-.7 1.2-.7 1.2-.8 1.3-.7 1.2-.8 1.2-.7 1.3-.8 1.2-.7 1.2-.7 1.3-.8 1.2-.7 1.2-.8 1.3-.7 1.2-.8 1.2-.7 1.2-.7 1.3-.8 1.2-.7 1.2-.8 1.3-.7 1.2-.7 1.2-.8 1.3-.7 1.2-.8 1.2-.7 1.3-.8 1.2-.7 1.2-.7 1.3-.8 1.2-.7 1.2-.8 1.3-.7 1.2-.7 1.2-.8 1.3-.7 1.2-.8 1.2-.7 1.3-.8 1.2-.7 1.2-.7 1.3-.8 1.2-.7 1.2-.8 1.3-.7 1.2-.7 1.2-.8 1.3-.7 1.2-.8 1.2-.7 1.3-.8 1.2-.7 1.2-.7 1.3-.8 1.2-.7 1.2-.8 1.3-.7 1.2-.7 1.2-.8 1.3-.7 1.2-.8 1.2-.7 1.3-.8 1.2-.7 1.2-.7 1.3-.8 1.2-.7 1.2-.8 1.3-.7 1.2-.8 1.2-.7 1.3-.7 1.2-.8 1.2-.7 1.3-.8 1.2-.7 1.2-.7 1.3-.8 1.2-.7 1.2-.8 1.3-.7 1.2-.8 1.2-.7 1.3-.7 1.2-.8 1.2-.7 1.3-.8 1.2-.7 1.2-.7 1.3-.8 1.2-.7 1.2-.8 1.3-.7 1.2-.8 1.2-.7 1.3-.7 1.2-.8 1.2-.7 1.3-.8 1.2-.7 1.2-.7 1.3-.8" clip-path="url(#b)"/></g><g class="PointsWithLabels clickable" clip-path="url(#c)"><path fill="rgba(255,255,255,0)" d="M101.57 112.04h616.52v374.44H101.57z"/><defs><clipPath id="c"><path d="M91.57 102.04h636.52v394.44H91.57z"/></clipPath></defs><g class="key-China"><circle cx="271" cy="343" r="2" fill="#2D8587" opacity=".7"/><path stroke-width="2" opacity=".7" stroke="#2D8587" fill="none" stroke-linecap="butt" d="m271 343-6 37 22-16 10 8-26-3 22 3-13 7-35 16 12 10-42 15 32-8 28 2"/><path cx="275" cy="414" r="3.5" fill="#2D8587" opacity=".7" d="m271.76 410.26 6.73 3.99-7.23 3z"/></g><g class="key-India"><circle cx="612" cy="153" r="1.9" fill="#2D8587" opacity=".7"/><path stroke-width="1.99" opacity=".7" stroke="#2D8587" fill="none" stroke-linecap="butt" d="m612 153-2-2-2-2 1 1h6l2 2-8 1v1l3 3 4 1h-3l-8-2-12 12-9 8 9-10 4-3 1 11-16 5-26-4h-11"/><path cx="545" cy="175" r="3.49" fill="#2D8587" opacity=".7" d="m548.49 178.49-6.98-3.49 6.98-3.49z"/></g><g class="key-Indonesia"><circle cx="470" cy="276" r="1.4" fill="#2D8587" opacity=".7"/><path stroke-width=".89" opacity=".7" stroke="#2D8587" fill="none" stroke-linecap="butt" d="M470 276v2l1-4 1 3-9-22 10 9 8-19-7 9 1 1 1-8 30-21h-6v13l-8 29-12-9-7 21 7-2-19-6-15 17 6 4"/><path cx="452" cy="293" r="2.39" fill="#2D8587" opacity=".7" d="m451.34 289.69 2.65 4.64-5.3-.67z"/></g><g class="key-Pakistan"><circle cx="444" cy="222" r="1.3" fill="#2D8587" opacity=".7"/><path stroke-width=".79" opacity=".7" stroke="#2D8587" fill="none" stroke-linecap="butt" d="m444 222 7 7-7 7-1 1-21 17 18-12h-2l-1-3-12 6 19-13 24-17 5-3h-3l-17 26-10 6-11-5 2-1-12-7-11 6 3 1"/><path cx="414" cy="238" r="2.29" fill="#2D8587" opacity=".7" d="m412.55 235.1 3.62 3.62-5.07.73z"/></g><g class="key-Brazil"><circle cx="374" cy="263" r="1.4" fill="#932834" opacity=".7"/><path stroke-width=".78" opacity=".7" stroke="#932834" fill="none" stroke-linecap="butt" d="m374 263-27 18-20 4 5 2-1-2 9-7-6 3-8 8-16 18 12 1-6 1-4 6-8 2-20 9-5 10-1 9v4l-2-6h25l-22 1"/><path cx="279" cy="344" r="2.28" fill="#932834" opacity=".7" d="m281.38 346.17-4.66-2.07 4.45-2.48z"/></g><g class="key-Nigeria"><circle cx="718" cy="120" r="1.3" fill="#923E8B" opacity=".7"/><path stroke-width=".76" opacity=".7" stroke="#923E8B" fill="none" stroke-linecap="butt" d="m718 120-2-1-2-1-1-1 1-1v-2l-1-1-1-1h-3l-3 1-3 2-3 1-2 2-1 1v5l4 1 2-1v-1"/><path cx="703" cy="123" r="2.26" fill="#923E8B" opacity=".7" d="m700.74 125.26 2.26-4.52 2.26 4.52z"/></g><g class="key-Bangladesh"><circle cx="364" cy="214" r="1.3" fill="#2D8587" opacity=".7"/><path stroke-width=".69" opacity=".7" stroke="#2D8587" fill="none" stroke-linecap="butt" d="M364 214v2l1-1 1-7 1-2 1 15-22 21 32-2v-16l-26 14 3-6-4-1-29 46-5 25 36-30-21 11-19 13 1 1-51 38 29 11"/><path cx="292" cy="346" r="2.19" fill="#2D8587" opacity=".7" d="m290.73 343.18 3.32 3.6-4.87.5z"/></g><g class="key-Ethiopia"><circle cx="584" cy="198" r="1.3" fill="#923E8B" opacity=".7"/><path stroke-width=".57" opacity=".7" stroke="#923E8B" fill="none" stroke-linecap="butt" d="m584 198 3-14-3-1 5-7 6-6-17 9-4 3-9 5-8 8 21-7 7-1-7 7h8l11-1-11 17h-4l-15 8-13 2-17-10-7-7"/><path cx="530" cy="203" r="2.07" fill="#923E8B" opacity=".7" d="m530 205.93-1.46-4.4 4.39 1.47z"/></g><g class="key-Philippines"><circle cx="365" cy="329" r="1.3" fill="#2D8587" opacity=".7"/><path stroke-width=".56" opacity=".7" stroke="#2D8587" fill="none" stroke-linecap="butt" d="m365 329-18 6 12-13 17-11h-4l-17-5 10-7 3-3-21 10-10 2-1 4-44 27-14 12 1 1-11 40 38-20-26 28-2-25-19 6 12-9"/><path cx="271" cy="372" r="2.06" fill="#2D8587" opacity=".7" d="m268.12 371.59 4.53-.83-2.06 4.12z"/></g><g class="key-Vietnam"><circle cx="401" cy="272" r="1.3" fill="#2D8587" opacity=".7"/><path stroke-width=".53" opacity=".7" stroke="#2D8587" fill="none" stroke-linecap="butt" d="m401 272-5 1-17 8-16 2-26 10-19 6 7-7-27 11-18 9 12-7-2 2-11 9h6l-9 9-8 7-29 22-41 18 12-12-20 3-9 1"/><path cx="181" cy="364" r="2.03" fill="#2D8587" opacity=".7" d="m183.24 365.8-4.26-1.58 3.81-2.46z"/></g><g class="key-Democratic-Republic-of-Congo"><circle cx="673" cy="145" r="1.3" fill="#923E8B" opacity=".7"/><path stroke-width=".5" opacity=".7" stroke="#923E8B" fill="none" stroke-linecap="butt" d="m673 145-1-1h1l2-1 3-1h1-3l-3 1-5 2-7 2-8 3-7 2-2 3 1 1 5-1 3 1-2 3"/><path cx="651" cy="159" r="2" fill="#923E8B" opacity=".7" d="m649 157 4 2-4 2z"/></g><g class="key-Afghanistan"><circle cx="442" cy="320" r="1.3" fill="#2D8587" opacity=".7"/><path stroke-width=".5" opacity=".7" stroke="#2D8587" fill="none" stroke-linecap="butt" d="M442 320v6l8-78-17 8-41 32-15 10-8 8 3 2-9 13-17 2 8-14 8-1-37 42 17-12 8-14 7-7 35-9 4-1-13-4-27-4"/><path cx="356" cy="299" r="2" fill="#2D8587" opacity=".7" d="m357.69 301.27-3.67-2.56 4.25-1.4z"/></g><g class="key-Angola"><circle cx="601" cy="208" r="1.3" fill="#923E8B" opacity=".7"/><path stroke-width=".5" opacity=".7" stroke="#923E8B" fill="none" stroke-linecap="butt" d="m601 208 1-3-3-3v-3l-1-4-1-1h-3l-6 2-9 5-7 6-3 4-3 3-1 2 2-1 2-3 4-1 2-2h-2"/><path cx="573" cy="209" r="2" fill="#923E8B" opacity=".7" d="m571 207 4 2-4 2z"/></g><g class="key-Benin"><circle cx="546" cy="219" r="1.3" fill="#923E8B" opacity=".7"/><path stroke-width=".5" opacity=".7" stroke="#923E8B" fill="none" stroke-linecap="butt" d="m546 219 4-5 2-2 4-4 6-4 5-2 3-2-3-1-6 1-5 1-5 2-2 1 2-1h6l2 1 4-2h1l-5 1-1-2v2"/><path cx="558" cy="203" r="2" fill="#923E8B" opacity=".7" d="m560 201-2 4-2-4z"/></g><g class="key-Bhutan"><circle cx="235" cy="347" r="1.3" fill="#2D8587" opacity=".7"/><path stroke-width=".5" opacity=".7" stroke="#2D8587" fill="none" stroke-linecap="butt" d="m235 347-3-3-12-1 12 22-34 17-17 5 17 10-62 17v24l34-35-34 42-35 8v33"/><path cx="101" cy="486" r="2" fill="#2D8587" opacity=".7" d="m103 484-2 4-2-4z"/></g><g class="key-Bolivia"><circle cx="259" cy="380" r="1.3" fill="#932834" opacity=".7"/><path stroke-width=".5" opacity=".7" stroke="#932834" fill="none" stroke-linecap="butt" d="m259 380-49 40v8l14 5-14 5 14-10 8-16-12 2-30 19v5l25-29-45 36v-7l20-14-20 21-14 41"/><path cx="156" cy="486" r="2" fill="#932834" opacity=".7" d="m158.54 484.75-3.19 3.14-.6-4.43z"/></g><g class="key-Botswana"><circle cx="294" cy="366" r="1.3" fill="#923E8B" opacity=".7"/><path stroke-width=".5" opacity=".7" stroke="#923E8B" fill="none" stroke-linecap="butt" d="m294 366-47 17-37 18-40 11-14 8v25l68-25-68 4 34-15v3l-9 2-80 39 80-25-80 58 55-41 42-31-62-2"/><path cx="136" cy="412" r="2" fill="#923E8B" opacity=".7" d="m137.93 414.06-3.93-2.12 4.06-1.87z"/></g><g class="key-Burkina-Faso"><circle cx="628" cy="178" r="1.3" fill="#923E8B" opacity=".7"/><path stroke-width=".5" opacity=".7" stroke="#923E8B" fill="none" stroke-linecap="butt" d="m628 178 1-3-1-2-3-1h-12 2l4-2 3-1h-4l-5-1-8 1-7 3-4 2-3 4v4l-1 1-1-1"/><path cx="589" cy="182" r="2" fill="#923E8B" opacity=".7" d="m589 184.83-1.41-4.24 4.24 1.41z"/></g><g class="key-Burundi"><circle cx="568" cy="202" r="1.3" fill="#923E8B" opacity=".7"/><path stroke-width=".5" opacity=".7" stroke="#923E8B" fill="none" stroke-linecap="butt" d="M568 202h-4l-9 1-6 1-9 3-8 5-4 2-2 2v-1l-2 2-3 1-1 5-1 3 1 1 2-2 7-7 4-2-7 4v1"/><path cx="526" cy="221" r="2" fill="#923E8B" opacity=".7" d="m528 219-2 4-2-4z"/></g><g class="key-Cambodia"><circle cx="467" cy="281" r="1.3" fill="#2D8587" opacity=".7"/><path stroke-width=".5" opacity=".7" stroke="#2D8587" fill="none" stroke-linecap="butt" d="m467 281-28 14-6-2 14-11-9 7-12 12 12-15-40 18 11-3 27-6-14 17v2l-26 23-25 17 27-10-3-5-30 11 25-14-12 25-47 4"/><path cx="331" cy="365" r="2" fill="#2D8587" opacity=".7" d="m333.16 366.82-4.15-1.65 3.81-2.33z"/></g><g class="key-Cameroon"><circle cx="585" cy="191" r="1.3" fill="#923E8B" opacity=".7"/><path stroke-width=".5" opacity=".7" stroke="#923E8B" fill="none" stroke-linecap="butt" d="m585 191 1-2 1-4 1-3 3-2 2-1-1 2h-4l-7 2-5 2h-4l-4 2v2l1 1 1-1h2l2-2h-4"/><path cx="570" cy="187" r="2" fill="#923E8B" opacity=".7" d="m568 185 4 2-4 2z"/></g><g class="key-Central-African-Republic"><circle cx="543" cy="235" r="1.3" fill="#923E8B" opacity=".7"/><path stroke-width=".5" opacity=".7" stroke="#923E8B" fill="none" stroke-linecap="butt" d="m543 235 1-1 2-2 3-3 4-2 3-1 2-1-1-1-4 1-3 2-4 1-5 2-2 1-3 1-3 1-4 1-4 1-3 1h-3l-1 1"/><path cx="518" cy="237" r="2" fill="#923E8B" opacity=".7" d="m520.83 237-4.24 1.41 1.41-4.24z"/></g><g class="key-Chad"><circle cx="550" cy="221" r="1.3" fill="#923E8B" opacity=".7"/><path stroke-width=".5" opacity=".7" stroke="#923E8B" fill="none" stroke-linecap="butt" d="m550 221 3 1-2 4h1l1 1 2-1 3-3 2-3 2-1 3-1 1 1-1 2-1 2v1l-1 1 1-1 1-1h1-1l1-2"/><path cx="566" cy="221" r="2" fill="#923E8B" opacity=".7" d="m563.32 221.9 3.57-2.69v4.47z"/></g><g class="key-Colombia"><circle cx="340" cy="285" r="1.3" fill="#932834" opacity=".7"/><path stroke-width=".5" opacity=".7" stroke="#932834" fill="none" stroke-linecap="butt" d="m340 285 15-16-1 12-16 9 3 14-18 10h-6l-7-3-11 30h-33l21-13-30 20 2-12-44 9 27-2 3-3 34-9-32 10-37 24-54 1"/><path cx="156" cy="366" r="2" fill="#932834" opacity=".7" d="m158.04 367.96-4.04-1.92 3.96-2.08z"/></g><g class="key-Comoros"><circle cx="324" cy="330" r="1.3" fill="#923E8B" opacity=".7"/><path stroke-width=".5" opacity=".7" stroke="#923E8B" fill="none" stroke-linecap="butt" d="M324 330v-17 12-22 28-23l1-12-19 5 35 1 3 5-163 83-25 19-20 8 68-22 78-55 8-8"/><path cx="290" cy="332" r="2" fill="#923E8B" opacity=".7" d="m287.17 332 4.24-1.41-1.41 4.24z"/></g><g class="key-Congo"><circle cx="499" cy="248" r="1.3" fill="#923E8B" opacity=".7"/><path stroke-width=".5" opacity=".7" stroke="#923E8B" fill="none" stroke-linecap="butt" d="m499 248-1 1-4 1h-7l-4 2-4 2-4 4-1 2v1l1-1 1-1 3-1h2l2-1v1"/><path cx="483" cy="258" r="2" fill="#923E8B" opacity=".7" d="m485 256-2 4-2-4z"/></g><g class="key-Cote-d__0027Ivoire"><circle cx="611" cy="179" r="1.3" fill="#923E8B" opacity=".7"/><path stroke-width=".5" opacity=".7" stroke="#923E8B" fill="none" stroke-linecap="butt" d="m611 179 3-3 1-1v-2l-3-2-2-1-1-1 2-1h-1l-1 1-5 1-8 2-15 2-11 5-3 2h7l9-2 4-1-9 3v-2"/><path cx="578" cy="179" r="2" fill="#923E8B" opacity=".7" d="m576 181 2-4 2 4z"/></g><g class="key-Djibouti"><circle cx="170" cy="398" r="1.3" fill="#923E8B" opacity=".7"/><path stroke-width=".5" opacity=".7" stroke="#923E8B" fill="none" stroke-linecap="butt" d="M170 398v2-64l11 69v-56 71l9-66-54 34 45 98-11-96 89-58v6l11-8-9 8 27 14 40-3"/><path cx="328" cy="349" r="2" fill="#923E8B" opacity=".7" d="m325.86 347.16 4.13 1.69-3.83 2.3z"/></g><g class="key-Dominican-Republic"><circle cx="190" cy="398" r="1.3" fill="#E04E4B" opacity=".7"/><path stroke-width=".5" opacity=".7" stroke="#E04E4B" fill="none" stroke-linecap="butt" d="m190 398 52 9-22-4h4l15-8v-12l-24 3 27 2-22 6h12l3-20-20 20-11 15-23 24h-11l-14-5h-55v25-8l69-7"/><path cx="170" cy="438" r="2" fill="#E04E4B" opacity=".7" d="m167.8 436.21 4.19 1.59-3.78 2.4z"/></g><g class="key-Ecuador"><circle cx="309" cy="275" r="1.3" fill="#932834" opacity=".7"/><path stroke-width=".5" opacity=".7" stroke="#932834" fill="none" stroke-linecap="butt" d="m309 275 12 9-14 22-16 21-11 22-26 34-44 12-6 12-23 38 9-12"/><path cx="190" cy="433" r="2" fill="#932834" opacity=".7" d="m187.2 433.4 4-2-.8 4.4z"/></g><g class="key-Equatorial-Guinea"><circle cx="421" cy="276" r="1.3" fill="#923E8B" opacity=".7"/><path stroke-width=".5" opacity=".7" stroke="#923E8B" fill="none" stroke-linecap="butt" d="M421 276h2l2-1 2 2v2l-4 1h-7l-3 3 5-1h11l2 1-4 1-3 3-1 1-2 1 1-1"/><path cx="422" cy="288" r="2" fill="#923E8B" opacity=".7" d="m419.17 288 4.24-1.41-1.41 4.24z"/></g><g class="key-Eritrea"><circle cx="328" cy="303" r="1.3" fill="#923E8B" opacity=".7"/><path stroke-width=".5" opacity=".7" stroke="#923E8B" fill="none" stroke-linecap="butt" d="m328 303 15-25-28 45 20-7-62 35 30-15-24 13 25-10-24 13 5-5 68-34-6-10-25 15 1 10 47-10-28 7 21-11 6-2-6-2 40 3"/><path cx="403" cy="313" r="2" fill="#923E8B" opacity=".7" d="m401.16 310.86 3.83 2.29-4.13 1.7z"/></g><g class="key-Eswatini"><circle cx="136" cy="364" r="1.3" fill="#923E8B" opacity=".7"/><path stroke-width=".5" opacity=".7" stroke="#923E8B" fill="none" stroke-linecap="butt" d="m136 364 20 4-55 21v49-24 14"/><path cx="101" cy="428" r="2" fill="#923E8B" opacity=".7" d="m103 426-2 4-2-4z"/></g><g class="key-Gabon"><circle cx="393" cy="280" r="1.3" fill="#923E8B" opacity=".7"/><path stroke-width=".5" opacity=".7" stroke="#923E8B" fill="none" stroke-linecap="butt" d="M393 280h-3l-6 2-8 2-8 5-4 5v8l2-2 4-4 5-4 6-5 6-3 6-1h4l1 2-1 1-1 2-1 1 1 1"/><path cx="396" cy="290" r="2" fill="#923E8B" opacity=".7" d="m396 287.17 1.41 4.24-4.24-1.41z"/></g><g class="key-Gambia"><circle cx="417" cy="269" r="1.3" fill="#923E8B" opacity=".7"/><path stroke-width=".5" opacity=".7" stroke="#923E8B" fill="none" stroke-linecap="butt" d="m417 269-5-4-4 1-2 4-2 14-1 4v-7l1-9v4l2-4 1-13h1l1 3 1 12 1-5 1 11 1 17 2-5 1 1"/><path cx="416" cy="293" r="2" fill="#923E8B" opacity=".7" d="m416 290.17 1.41 4.24-4.24-1.41z"/></g><g class="key-Ghana"><circle cx="591" cy="186" r="1.3" fill="#923E8B" opacity=".7"/><path stroke-width=".5" opacity=".7" stroke="#923E8B" fill="none" stroke-linecap="butt" d="m591 186-3-3-4-1-3-3h-2l-2-1h1l-2-1 1-1h4l3 1-2 1-2 2-5 2-5 3-5 2-1 3 2-2h1"/><path cx="567" cy="188" r="2" fill="#923E8B" opacity=".7" d="m565 186 4 2-4 2z"/></g><g class="key-Guatemala"><circle cx="265" cy="383" r="1.3" fill="#E04E4B" opacity=".7"/><path stroke-width=".5" opacity=".7" stroke="#E04E4B" fill="none" stroke-linecap="butt" d="m265 383-20 15 5-11-11 18-7 19 15-4-12 13-45 53h-54"/><path cx="136" cy="486" r="2" fill="#E04E4B" opacity=".7" d="m134 484 4 2-4 2z"/></g><g class="key-Guinea"><circle cx="583" cy="207" r="1.3" fill="#923E8B" opacity=".7"/><path stroke-width=".5" opacity=".7" stroke="#923E8B" fill="none" stroke-linecap="butt" d="m583 207-2-2-5-1-6-1-7-2-5 1h-2l2-1 4-1h7l3-1h2v1h-5l-4 2-5 2-3 1-3 2-4 1 1-1"/><path cx="551" cy="207" r="2" fill="#923E8B" opacity=".7" d="m548.17 207 4.24-1.41-1.41 4.24z"/></g><g class="key-Guinea__002dBissau"><circle cx="485" cy="267" r="1.3" fill="#923E8B" opacity=".7"/><path stroke-width=".5" opacity=".7" stroke="#923E8B" fill="none" stroke-linecap="butt" d="m485 267-14 4-14 5-13 6-10 11-5 12-2 6v-2l2-6 2-5 2-2 1-1-1 4-1 1-1 4v4l1 2 2-2 3-13v1"/><path cx="437" cy="296" r="2" fill="#923E8B" opacity=".7" d="m439 294-2 4-2-4z"/></g><g class="key-Guyana"><circle cx="295" cy="343" r="1.3" fill="#932834" opacity=".7"/><path stroke-width=".5" opacity=".7" stroke="#932834" fill="none" stroke-linecap="butt" d="m295 343 2 7-10 10 11-1-2 5 15-5-31 15-33 21 10-8 9-10 30-16 17-17 3 2 8-3-59 38-11 2 5-5 16-5 7 27-12 1"/><path cx="270" cy="401" r="2" fill="#932834" opacity=".7" d="m272.16 402.83-4.15-1.66 3.82-2.33z"/></g><g class="key-Haiti"><circle cx="360" cy="276" r="1.3" fill="#E04E4B" opacity=".7"/><path stroke-width=".5" opacity=".7" stroke="#E04E4B" fill="none" stroke-linecap="butt" d="m360 276 1 17 1-8 1 4v14l1-16 2-9-5 3 10-8-4-8 1-4-2 20-11 3-2 7-32 13-1 3 5-4-4 8-37-5 6-3"/><path cx="290" cy="303" r="2" fill="#E04E4B" opacity=".7" d="M287.32 302.1h4.47l-2.68 3.58z"/></g><g class="key-Honduras"><circle cx="257" cy="412" r="1.3" fill="#E04E4B" opacity=".7"/><path stroke-width=".5" opacity=".7" stroke="#E04E4B" fill="none" stroke-linecap="butt" d="m257 412-22 16-15 25h-10l14-8h-4l-16 20-6-12-8 12 14-20-6 20h-28l11-12-25 33 14-21 11-12"/><path cx="181" cy="453" r="2" fill="#E04E4B" opacity=".7" d="m178.17 453.12 4.18-1.6-1.23 4.3z"/></g><g class="key-Iran"><circle cx="170" cy="382" r="1.3" fill="#2D8587" opacity=".7"/><path stroke-width=".5" opacity=".7" stroke="#2D8587" fill="none" stroke-linecap="butt" d="m170 382-34 16v-10l45-26-80 39v-25 24l55-3v12"/><path cx="156" cy="409" r="2" fill="#2D8587" opacity=".7" d="m158 407-2 4-2-4z"/></g><g class="key-Kenya"><circle cx="567" cy="203" r="1.3" fill="#923E8B" opacity=".7"/><path stroke-width=".5" opacity=".7" stroke="#923E8B" fill="none" stroke-linecap="butt" d="m567 203 7-4-1 1-2-2-5 2-6 6-3 6v15l1 15 2 18v4-18l1-8 1-5 2-7 2-6 1-2"/><path cx="567" cy="218" r="2" fill="#923E8B" opacity=".7" d="m565 216 4 2-4 2z"/></g><g class="key-Laos"><circle cx="369" cy="308" r="1.3" fill="#2D8587" opacity=".7"/><path stroke-width=".5" opacity=".7" stroke="#2D8587" fill="none" stroke-linecap="butt" d="m369 308-19 19h-16l-4 2-8 5 18-6h-3l-5 3 7 7-5-6-20 10 43-24-16 15 3 2-25 22-46 38-21-1 5-3-37 1"/><path cx="220" cy="392" r="2" fill="#2D8587" opacity=".7" d="m222.05 393.95-4.05-1.9 3.95-2.1z"/></g><g class="key-Liberia"><circle cx="540" cy="228" r="1.3" fill="#923E8B" opacity=".7"/><path stroke-width=".5" opacity=".7" stroke="#923E8B" fill="none" stroke-linecap="butt" d="m540 228-2-2h-5l-6 1-8 1h-8l-5 1h-3l-1 1-3 2-3 2-2-1-3 5 3 2 7-3h2l10-3h5-7 1"/><path cx="512" cy="234" r="2" fill="#923E8B" opacity=".7" d="m510 232 4 2-4 2z"/></g><g class="key-Madagascar"><circle cx="484" cy="223" r="1.3" fill="#923E8B" opacity=".7"/><path stroke-width=".5" opacity=".7" stroke="#923E8B" fill="none" stroke-linecap="butt" d="m484 223 10-4-11-1 14-3-17-3-12-3h1l-21 4 3 10 32 6v1l-4 2 33-1-3-2-17-2 39 1-25 2 15-1-2-1 2-1"/><path cx="521" cy="227" r="2" fill="#923E8B" opacity=".7" d="M518.32 226.1h4.47l-2.68 3.58z"/></g><g class="key-Malawi"><circle cx="585" cy="198" r="1.3" fill="#923E8B" opacity=".7"/><path stroke-width=".5" opacity=".7" stroke="#923E8B" fill="none" stroke-linecap="butt" d="m585 198-3 1-8 3-8 2-7 4h-2l2-1 3-3h3l-1 2-1 7-5 3-5 3h-7l-4 1-3 2v2-3"/><path cx="539" cy="221" r="2" fill="#923E8B" opacity=".7" d="m537 219 4 2-4 2z"/></g><g class="key-Malaysia"><circle cx="278" cy="364" r="1.3" fill="#2D8587" opacity=".7"/><path stroke-width=".5" opacity=".7" stroke="#2D8587" fill="none" stroke-linecap="butt" d="m278 364 13 1-9-2-30 17h26l-3 2-23 7-17 2 15-5 7 14-29 9-4 29-9-14-45 4v10l-34 15"/><path cx="136" cy="453" r="2" fill="#2D8587" opacity=".7" d="m138.64 454.02-4.47-.21 2.85-3.45z"/></g><g class="key-Mali"><circle cx="605" cy="189" r="1.3" fill="#923E8B" opacity=".7"/><path stroke-width=".5" opacity=".7" stroke="#923E8B" fill="none" stroke-linecap="butt" d="m605 189-4-1-3-2-1-2 1-2 2-1-1-1-3 1h-7l-4 1 7-2 7-4 3-1-5 1-13 5-10 7 2 9 9-2 1-1"/><path cx="586" cy="194" r="2" fill="#923E8B" opacity=".7" d="m583.17 194 4.24-1.41-1.41 4.24z"/></g><g class="key-Mauritania"><circle cx="448" cy="275" r="1.3" fill="#923E8B" opacity=".7"/><path stroke-width=".5" opacity=".7" stroke="#923E8B" fill="none" stroke-linecap="butt" d="m448 275 3 8-1 8 1-5v15h1l1 48v-47l1-12 1 19 1-14 1-2 1 16 1-1 3-29 1-4 1-8 1 5 1-8 1-5"/><path cx="467" cy="259" r="2" fill="#923E8B" opacity=".7" d="m464.65 260.57 2.74-3.53 1.18 4.31z"/></g><g class="key-Mozambique"><circle cx="633" cy="177" r="1.3" fill="#923E8B" opacity=".7"/><path stroke-width=".5" opacity=".7" stroke="#923E8B" fill="none" stroke-linecap="butt" d="M633 177v-1l-3 1-4 1-7 2-7 2-3-1-2-1-1 4v-2h1l-2 1-2 1 1 1-1 2-2 1-1 1-4 2h-5l-1-1"/><path cx="590" cy="190" r="2" fill="#923E8B" opacity=".7" d="m590 192.83-1.41-4.24 4.24 1.41z"/></g><g class="key-Myanmar"><circle cx="494" cy="241" r="1.3" fill="#2D8587" opacity=".7"/><path stroke-width=".5" opacity=".7" stroke="#2D8587" fill="none" stroke-linecap="butt" d="M494 241v-9l1-5v-6l1 2v-3l-17-4 11-7 12-7-3 4 23 1-20 8 3-2-53 14-24 21-20 12-28 21-14 45-12-7-24-3"/><path cx="330" cy="316" r="2" fill="#2D8587" opacity=".7" d="m331.74 318.23-3.72-2.48 4.21-1.49z"/></g><g class="key-Namibia"><circle cx="364" cy="313" r="1.3" fill="#923E8B" opacity=".7"/><path stroke-width=".5" opacity=".7" stroke="#923E8B" fill="none" stroke-linecap="butt" d="m364 313 14-3-19 8-2 1 22-9-24 15 2 1-60 25-27 31-20 23-60 23 8-4 30 62 22-81 58-29-26 22 38-24 50-34-28 11-110-22"/><path cx="232" cy="329" r="2" fill="#923E8B" opacity=".7" d="m233.57 331.35-3.53-2.74 4.31-1.18z"/></g><g class="key-Nepal"><circle cx="261" cy="373" r="1.3" fill="#2D8587" opacity=".7"/><path stroke-width=".5" opacity=".7" stroke="#2D8587" fill="none" stroke-linecap="butt" d="m261 373 5 4 40-38-15 18-32 17 4-7 10-7 10-1-22 18-9 6h13l-50 62-25-21-34 29-20-25v25l-35 33"/><path cx="101" cy="486" r="2" fill="#2D8587" opacity=".7" d="m103.83 486.08-4.29 1.3 1.54-4.2z"/></g><g class="key-Nicaragua"><circle cx="170" cy="420" r="1.3" fill="#E04E4B" opacity=".7"/><path stroke-width=".5" opacity=".7" stroke="#E04E4B" fill="none" stroke-linecap="butt" d="m170 420-34 8 68 10h-6l-97 7 89 8-89 33h35-35l35-33-35-8 55 20-55-12"/><path cx="101" cy="453" r="2" fill="#E04E4B" opacity=".7" d="m102.53 455.38-3.48-2.8 4.33-1.1z"/></g><g class="key-Niger"><circle cx="605" cy="192" r="1.3" fill="#923E8B" opacity=".7"/><path stroke-width=".5" opacity=".7" stroke="#923E8B" fill="none" stroke-linecap="butt" d="m605 192-1-1-7 2h-3l-2-1-1-3-1-1 2-3 2-3 5-4 4-2 2-2v-1h-2l-3 1-4 2-2 3-7 4-5 3 1-1"/><path cx="583" cy="185" r="2" fill="#923E8B" opacity=".7" d="m580.17 185 4.24-1.41-1.41 4.24z"/></g><g class="key-Panama"><circle cx="101" cy="486" r="1.3" fill="#E04E4B" opacity=".7"/><path stroke-width=".5" opacity=".7" stroke="#E04E4B" fill="none" stroke-linecap="butt" d="m101 486 35-48 34-14-34-4-35 8v58"/><path cx="101" cy="486" r="2" fill="#E04E4B" opacity=".7" d="m103 484-2 4-2-4z"/></g><g class="key-Papua-New-Guinea"><circle cx="501" cy="281" r="1.3" fill="#A8633C" opacity=".7"/><path stroke-width=".5" opacity=".7" stroke="#A8633C" fill="none" stroke-linecap="butt" d="m501 281-1-4h-8l3-7 11-5-11-2 2-4-4 4-4-3 15-5-18 11-7 8 14 2 12-9-4 3-26 14 15-13-1 1 2 10h-7"/><path cx="484" cy="282" r="2" fill="#A8633C" opacity=".7" d="m486 284-4-2 4-2z"/></g><g class="key-Peru"><circle cx="328" cy="332" r="1.3" fill="#932834" opacity=".7"/><path stroke-width=".5" opacity=".7" stroke="#932834" fill="none" stroke-linecap="butt" d="m328 332-4 12 9-2-6 9 2 2-10 15-22 21-9 5-12 13-5 5-21 21-3-9 12-7 31-36 14-6h23l-16 2-4 5-14 32-15-16"/><path cx="278" cy="398" r="2" fill="#932834" opacity=".7" d="m277.9 400.83-1.27-4.29 4.2 1.55z"/></g><g class="key-Rwanda"><circle cx="534" cy="209" r="1.3" fill="#923E8B" opacity=".7"/><path stroke-width=".5" opacity=".7" stroke="#923E8B" fill="none" stroke-linecap="butt" d="m534 209-1 1-9 6-8 7-9 11-5 13-3 8-2-1-1-8v-9l-1 1v6l-1 7 1-4 1-8 1-2v6h1"/><path cx="498" cy="243" r="2" fill="#923E8B" opacity=".7" d="m496 241 4 2-4 2z"/></g><g class="key-Sao-Tome-and-Principe"><circle cx="376" cy="330" r="1.3" fill="#923E8B" opacity=".7"/><path stroke-width=".5" opacity=".7" stroke="#923E8B" fill="none" stroke-linecap="butt" d="m376 330-1 1 12 14-25-15-6 23-34-17-59 24-107 19 83-22 18 3-25 23 15-25-49-7 22 7-119 49v2"/><path cx="101" cy="409" r="2" fill="#923E8B" opacity=".7" d="m103 407-2 4-2-4z"/></g><g class="key-Senegal"><circle cx="535" cy="190" r="1.3" fill="#923E8B" opacity=".7"/><path stroke-width=".5" opacity=".7" stroke="#923E8B" fill="none" stroke-linecap="butt" d="m535 190 1 29h-6l-6-12-6 5h-5l-1-3-1 3v4l1 11-1-20v4h-1l1 4 1 7 1 1v7l2-5 2-4 1 2"/><path cx="518" cy="223" r="2" fill="#923E8B" opacity=".7" d="M518.9 220.32v4.47l-3.58-2.68z"/></g><g class="key-Sierra-Leone"><circle cx="577" cy="205" r="1.3" fill="#923E8B" opacity=".7"/><path stroke-width=".5" opacity=".7" stroke="#923E8B" fill="none" stroke-linecap="butt" d="m577 205 2-3-2-3-4-1-6-1h-6 2l7-2 5 1 4 2h-1l-3 2-5 1-7 2h-1l-7-1-5 2-9 2h-1"/><path cx="540" cy="206" r="2" fill="#923E8B" opacity=".7" d="m542 208-4-2 4-2z"/></g><g class="key-Solomon-Islands"><circle cx="407" cy="347" r="1.3" fill="#A8633C" opacity=".7"/><path stroke-width=".5" opacity=".7" stroke="#A8633C" fill="none" stroke-linecap="butt" d="m407 347 4-6v-8l-6-3 18-3-9-2-28-5-27-15-12 6 7-2-21 13-9 6-4 6-27 11h9l29-10 13 2-10 13 19 3"/><path cx="353" cy="353" r="2" fill="#A8633C" opacity=".7" d="m351.34 350.71 3.64 2.6-4.27 1.35z"/></g><g class="key-Somalia"><circle cx="496" cy="227" r="1.3" fill="#923E8B" opacity=".7"/><path stroke-width=".5" opacity=".7" stroke="#923E8B" fill="none" stroke-linecap="butt" d="m496 227 2-1 1 6v4l1 6 8 2-5 2-7 6-22 13-23 13 8 2-9-3 1-13 9-16 8-7 9-2h2l1 2h-2l-1-2"/><path cx="477" cy="239" r="2" fill="#923E8B" opacity=".7" d="M476.1 241.68v-4.47l3.58 2.68z"/></g><g class="key-South-Africa"><circle cx="401" cy="390" r="1.3" fill="#923E8B" opacity=".7"/><path stroke-width=".5" opacity=".7" stroke="#923E8B" fill="none" stroke-linecap="butt" d="m401 390-82-74 9 18 19 8-24 1-16 18 16-13-43 26 8-4 2 9 30-7-21-3 14 18 19-24 25 2-23 80-58-12 108-91-73-4 7-35"/><path cx="318" cy="303" r="2" fill="#923E8B" opacity=".7" d="m315.65 304.57 2.74-3.53 1.18 4.31z"/></g><g class="key-South-Sudan"><circle cx="563" cy="224" r="1.3" fill="#923E8B" opacity=".7"/><path stroke-width=".5" opacity=".7" stroke="#923E8B" fill="none" stroke-linecap="butt" d="m563 224-3-1-5 1h-4l-4 1-3-1-2 1-3 1-1 2-3 2-2 2-2 1h-1l1-2 2 1 3-1 3 1h2-1l2-1"/><path cx="542" cy="231" r="2" fill="#923E8B" opacity=".7" d="M539.32 230.1h4.47l-2.68 3.58z"/></g><g class="key-Sri-Lanka"><circle cx="317" cy="299" r="1.3" fill="#2D8587" opacity=".7"/><path stroke-width=".5" opacity=".7" stroke="#2D8587" fill="none" stroke-linecap="butt" d="m317 299-20 46-27 19-100 36-69 20v66"/><path cx="101" cy="486" r="2" fill="#2D8587" opacity=".7" d="m103 484-2 4-2-4z"/></g><g class="key-Sudan"><circle cx="534" cy="232" r="1.3" fill="#923E8B" opacity=".7"/><path stroke-width=".5" opacity=".7" stroke="#923E8B" fill="none" stroke-linecap="butt" d="M534 232h-2l-12 7-3 2-3 3v1l-5 4-9 5-4 4-2 2 1 2 2-1 4-1 6-3 6-2 6-3 7-3 6 4 6 2"/><path cx="538" cy="255" r="2" fill="#923E8B" opacity=".7" d="m536.74 252.47 3.16 3.16-4.43.63z"/></g><g class="key-Suriname"><circle cx="259" cy="351" r="1.3" fill="#932834" opacity=".7"/><path stroke-width=".5" opacity=".7" stroke="#932834" fill="none" stroke-linecap="butt" d="m259 351-2-6-22 13 10 10-47 11-97 5v102-21"/><path cx="101" cy="465" r="2" fill="#932834" opacity=".7" d="m99 467 2-4 2 4z"/></g><g class="key-Tanzania"><circle cx="628" cy="170" r="1.3" fill="#923E8B" opacity=".7"/><path stroke-width=".5" opacity=".7" stroke="#923E8B" fill="none" stroke-linecap="butt" d="M628 170h-3l-7 1-4 3-6 5-4 3-4 5-2 6-1 3-1-5v-1l-1 4-1 5 2 1 1-1 1-3h1l1-1h1"/><path cx="601" cy="195" r="2" fill="#923E8B" opacity=".7" d="m599 193 4 2-4 2z"/></g><g class="key-Thailand"><circle cx="421" cy="314" r="1.3" fill="#2D8587" opacity=".7"/><path stroke-width=".5" opacity=".7" stroke="#2D8587" fill="none" stroke-linecap="butt" d="m421 314-20 9-8 8-28-1 6 10-18-5-17 2-8-4 2 7-18 2 7-1-31 8-8 10 12-4-10 5-7 68-10 5-30 32-7 21"/><path cx="228" cy="486" r="2" fill="#2D8587" opacity=".7" d="m230.53 484.74-3.16 3.16-.63-4.43z"/></g><g class="key-Timor"><circle cx="373" cy="380" r="1.3" fill="#2D8587" opacity=".7"/><path stroke-width=".5" opacity=".7" stroke="#2D8587" fill="none" stroke-linecap="butt" d="m373 380 1-14-10-27-23 7 63-36-19 3 3-4-18 2 9-7-16 10v1l-52 29-96 63-79 58"/><path cx="136" cy="465" r="2" fill="#2D8587" opacity=".7" d="m138.8 465.43-4.41.75 2.04-3.98z"/></g><g class="key-Togo"><circle cx="528" cy="235" r="1.3" fill="#923E8B" opacity=".7"/><path stroke-width=".5" opacity=".7" stroke="#923E8B" fill="none" stroke-linecap="butt" d="M528 235v-1l1-3 3-3 4-3 3-2h-6l-10 1-9 3-2 1v-1l5-2 7-2h2l-2 2-8 3-7 3-2-1v-1"/><path cx="507" cy="229" r="2" fill="#923E8B" opacity=".7" d="m505 231 2-4 2 4z"/></g><g class="key-Uganda"><circle cx="634" cy="160" r="1.3" fill="#923E8B" opacity=".7"/><path stroke-width=".5" opacity=".7" stroke="#923E8B" fill="none" stroke-linecap="butt" d="m634 160 6-1h-17l-12 3-7 3-1 2h5l4 2-3 1-7 4-9 6-10 7-3 4 2-3 8-7h6l-10 6h1"/><path cx="587" cy="187" r="2" fill="#923E8B" opacity=".7" d="m585 185 4 2-4 2z"/></g><g class="key-Vanuatu"><circle cx="276" cy="370" r="1.3" fill="#A8633C" opacity=".7"/><path stroke-width=".5" opacity=".7" stroke="#A8633C" fill="none" stroke-linecap="butt" d="m276 370-17 3 38-22 13-10-5 1-27 8-8 5 9 9 1 6-26-1 11 5-33 17"/><path cx="232" cy="391" r="2" fill="#A8633C" opacity=".7" d="m234.7 391.86-4.48.06 2.64-3.61z"/></g><g class="key-Venezuela"><circle cx="263" cy="365" r="1.3" fill="#932834" opacity=".7"/><path stroke-width=".5" opacity=".7" stroke="#932834" fill="none" stroke-linecap="butt" d="m263 365-28 20 12 7 18-15 5 9 6-7-1-9 5-5-17 12 16-11 19-8-6 3 9-4 31-17 2-1 16-14 27-8 24-11-6-6-3-8"/><path cx="392" cy="292" r="2" fill="#932834" opacity=".7" d="m390.83 294.57.47-4.44 3.27 3.04z"/></g><g class="key-Yemen"><circle cx="492" cy="230" r="1.3" fill="#2D8587" opacity=".7"/><path stroke-width=".5" opacity=".7" stroke="#2D8587" fill="none" stroke-linecap="butt" d="M492 230h5l6 3-5 2-11 2 2 1 10 3h-18l-22 13 13-6 24-12-17 2 4-2-10 3-9-5-7 3 13-2 5-2 8 2-2-4"/><path cx="481" cy="231" r="2" fill="#2D8587" opacity=".7" d="M480.1 233.68v-4.47l3.58 2.68z"/></g><g class="key-Zambia"><circle cx="572" cy="214" r="1.3" fill="#923E8B" opacity=".7"/><path stroke-width=".5" opacity=".7" stroke="#923E8B" fill="none" stroke-linecap="butt" d="m572 214-1-1-5 2-6 2-7 3-7 6-4 5-3 1-1 4v-1h1l2 1 2-2 3-5 2-1-1 2v4l-1 2v-3h1"/><path cx="547" cy="233" r="2" fill="#923E8B" opacity=".7" d="m545 231 4 2-4 2z"/></g><g class="key-Zimbabwe"><circle cx="493" cy="230" r="1.3" fill="#923E8B" opacity=".7"/><path stroke-width=".5" opacity=".7" stroke="#923E8B" fill="none" stroke-linecap="butt" d="m493 230 1-1v-4 4l23-5-42 15 10-2 10-2-21 8-10 7 19-8 12-1-2 11-16 6 28-1-37 1h10"/><path cx="478" cy="258" r="2" fill="#923E8B" opacity=".7" d="m476 256 4 2-4 2z"/></g><g class="key-Argentina"><circle cx="101" cy="438" r=".5" fill="#932834" opacity=".8" stroke="#666" stroke-width=".5"/></g><g class="key-South-Korea"><circle cx="101" cy="453" r="1.3" fill="#2D8587" opacity=".7"/><path stroke-width=".5" opacity=".7" stroke="#2D8587" fill="none" stroke-linecap="butt" d="M101 453h35"/><path cx="136" cy="453" r="2" fill="#2D8587" opacity=".7" d="m134 451 4 2-4 2z"/></g><g class="key-Cape-Verde"><circle cx="136" cy="486" r=".5" fill="#923E8B" opacity=".8" stroke="#666" stroke-width=".5"/></g><g class="backgroundLabels" fill="#333" font-weight="400"><text x="279.99" y="421.51" font-size="14.3" fill="#2D8587" style="fill:#fff;stroke:#fff;stroke-linecap:round;stroke-linejoin:round;stroke-width:.25em">China</text><text x="279.99" y="421.51" font-size="14.3" fill="#2D8587">China</text><text x="508.85" y="175" font-size="14.29" fill="#2D8587" style="fill:#fff;stroke:#fff;stroke-linecap:round;stroke-linejoin:round;stroke-width:.25em">India</text><text x="508.85" y="175" font-size="14.29" fill="#2D8587">India</text><text x="456.16" y="302.01" font-size="12.46" fill="#2D8587" style="fill:#fff;stroke:#fff;stroke-linecap:round;stroke-linejoin:round;stroke-width:.25em">Indonesia</text><text x="456.16" y="302.01" font-size="12.46" fill="#2D8587">Indonesia</text><text x="418.74" y="245.74" font-size="12.31" fill="#2D8587" style="fill:#fff;stroke:#fff;stroke-linecap:round;stroke-linejoin:round;stroke-width:.25em">Pakistan</text><text x="418.74" y="245.74" font-size="12.31" fill="#2D8587">Pakistan</text><text x="243.27" y="350.37" font-size="12.29" fill="#932834" style="fill:#fff;stroke:#fff;stroke-linecap:round;stroke-linejoin:round;stroke-width:.25em">Brazil</text><text x="243.27" y="350.37" font-size="12.29" fill="#932834">Brazil</text><text x="664.13" y="124.3" font-size="12.26" fill="#923E8B" style="fill:#fff;stroke:#fff;stroke-linecap:round;stroke-linejoin:round;stroke-width:.25em">Nigeria</text><text x="664.13" y="124.3" font-size="12.26" fill="#923E8B">Nigeria</text><text x="296.67" y="353.84" font-size="12.14" fill="#2D8587" style="fill:#fff;stroke:#fff;stroke-linecap:round;stroke-linejoin:round;stroke-width:.25em">Bangladesh</text><text x="296.67" y="353.84" font-size="12.14" fill="#2D8587">Bangladesh</text><text x="483.12" y="199.46" font-size="11.94" fill="#923E8B" style="fill:#fff;stroke:#fff;stroke-linecap:round;stroke-linejoin:round;stroke-width:.25em">Ethiopia</text><text x="483.12" y="199.46" font-size="11.94" fill="#923E8B">Ethiopia</text><text x="132.34" y="370.49" font-size="11.87" fill="#2D8587" style="fill:#fff;stroke:#fff;stroke-linecap:round;stroke-linejoin:round;stroke-width:.25em">Vietnam</text><text x="132.34" y="370.49" font-size="11.87" fill="#2D8587">Vietnam</text><text x="293.54" y="328.46" font-size="11.08" fill="#923E8B" style="fill:#fff;stroke:#fff;stroke-linecap:round;stroke-linejoin:round;stroke-width:.25em">Comoros</text><text x="293.54" y="328.46" font-size="11.08" fill="#923E8B">Comoros</text><text x="578" y="174" font-size="11.45" fill="#923E8B" style="fill:#fff;stroke:#fff;stroke-linecap:round;stroke-linejoin:round;stroke-width:.25em">Cote d&apos;Ivoire</text><text x="578" y="174" font-size="11.45" fill="#923E8B">Cote d&apos;Ivoire</text><text x="193" y="429" font-size="11.34" fill="#932834" style="fill:#fff;stroke:#fff;stroke-linecap:round;stroke-linejoin:round;stroke-width:.25em">Ecuador</text><text x="193" y="429" font-size="11.34" fill="#932834">Ecuador</text><text x="407.99" y="318.96" font-size="11.17" fill="#923E8B" style="fill:#fff;stroke:#fff;stroke-linecap:round;stroke-linejoin:round;stroke-width:.25em">Eritrea</text><text x="407.99" y="318.96" font-size="11.17" fill="#923E8B">Eritrea</text><text x="399.54" y="299.1" font-size="11.13" fill="#923E8B" style="fill:#fff;stroke:#fff;stroke-linecap:round;stroke-linejoin:round;stroke-width:.25em">Gabon</text><text x="399.54" y="299.1" font-size="11.13" fill="#923E8B">Gabon</text><text x="156" y="419.88" font-size="11.76" fill="#2D8587" style="fill:#fff;stroke:#fff;stroke-linecap:round;stroke-linejoin:round;stroke-width:.25em">Iran</text><text x="156" y="419.88" font-size="11.76" fill="#2D8587">Iran</text><text x="567" y="218" font-size="11.64" fill="#923E8B" style="fill:#fff;stroke:#fff;stroke-linecap:round;stroke-linejoin:round;stroke-width:.25em">Kenya</text><text x="567" y="218" font-size="11.64" fill="#923E8B">Kenya</text><text x="190.5" y="397.75" font-size="11.24" fill="#2D8587" style="fill:#fff;stroke:#fff;stroke-linecap:round;stroke-linejoin:round;stroke-width:.25em">Laos</text><text x="190.5" y="397.75" font-size="11.24" fill="#2D8587">Laos</text><text x="186.21" y="328.02" font-size="11.14" fill="#923E8B" style="fill:#fff;stroke:#fff;stroke-linecap:round;stroke-linejoin:round;stroke-width:.25em">Namibia</text><text x="186.21" y="328.02" font-size="11.14" fill="#923E8B">Namibia</text><text x="97.36" y="486.48" font-size="11.47" fill="#2D8587" style="fill:#fff;stroke:#fff;stroke-linecap:round;stroke-linejoin:round;stroke-width:.25em">Nepal</text><text x="97.36" y="486.48" font-size="11.47" fill="#2D8587">Nepal</text><text x="250.19" y="394.35" font-size="11.51" fill="#932834" style="fill:#fff;stroke:#fff;stroke-linecap:round;stroke-linejoin:round;stroke-width:.25em">Peru</text><text x="250.19" y="394.35" font-size="11.51" fill="#932834">Peru</text><text x="318.98" y="298.1" font-size="11.68" fill="#923E8B" style="fill:#fff;stroke:#fff;stroke-linecap:round;stroke-linejoin:round;stroke-width:.25em">South Africa</text><text x="318.98" y="298.1" font-size="11.68" fill="#923E8B">South Africa</text><text x="542.74" y="262.37" font-size="11.58" fill="#923E8B" style="fill:#fff;stroke:#fff;stroke-linecap:round;stroke-linejoin:round;stroke-width:.25em">Sudan</text><text x="542.74" y="262.37" font-size="11.58" fill="#923E8B">Sudan</text><text x="606" y="195" font-size="11.68" fill="#923E8B" style="fill:#fff;stroke:#fff;stroke-linecap:round;stroke-linejoin:round;stroke-width:.25em">Tanzania</text><text x="606" y="195" font-size="11.68" fill="#923E8B">Tanzania</text><text x="181.21" y="486.48" font-size="11.74" fill="#2D8587" style="fill:#fff;stroke:#fff;stroke-linecap:round;stroke-linejoin:round;stroke-width:.25em">Thailand</text><text x="181.21" y="486.48" font-size="11.74" fill="#2D8587">Thailand</text><text x="507" y="224" font-size="11.25" fill="#923E8B" style="fill:#fff;stroke:#fff;stroke-linecap:round;stroke-linejoin:round;stroke-width:.25em">Togo</text><text x="507" y="224" font-size="11.25" fill="#923E8B">Togo</text><text x="442.26" y="226.53" font-size="11.48" fill="#2D8587" style="fill:#fff;stroke:#fff;stroke-linecap:round;stroke-linejoin:round;stroke-width:.25em">Yemen</text><text x="442.26" y="226.53" font-size="11.48" fill="#2D8587">Yemen</text><text x="483" y="258" font-size="11.34" fill="#923E8B" style="fill:#fff;stroke:#fff;stroke-linecap:round;stroke-linejoin:round;stroke-width:.25em">Zimbabwe</text><text x="483" y="258" font-size="11.34" fill="#923E8B">Zimbabwe</text><text x="141" y="453" font-size="11.63" fill="#2D8587" style="fill:#fff;stroke:#fff;stroke-linecap:round;stroke-linejoin:round;stroke-width:.25em">South Korea</text><text x="141" y="453" font-size="11.63" fill="#2D8587">South Korea</text></g></g><g class="ScatterColorLegend clickable" style="cursor:pointer"><g class="legendMark"><path fill="#923E8B" d="M738.09 113.84h9v9h-9z"/><text font-size="12.6" x="752.1" y="123"><tspan x="752.09" y="123">Africa</tspan></text></g><g class="legendMark"><path fill="#2D8587" d="M738.09 131.44h9v9h-9z"/><text font-size="12.6" x="752.1" y="140.6"><tspan x="752.09" y="140.6">Asia</tspan></text></g><g class="legendMark"><path fill="#E04E4B" d="M738.09 149.04h9v9h-9z"/><text font-size="12.6" x="752.1" y="158.2"><tspan x="752.09" y="158.2">North America</tspan></text></g><g class="legendMark"><path fill="#A8633C" d="M738.09 166.64h9v9h-9z"/><text font-size="12.6" x="752.1" y="175.8"><tspan x="752.09" y="175.8">Oceania</tspan></text></g><g class="legendMark"><path fill="#932834" d="M738.09 184.24h9v9h-9z"/><text font-size="12.6" x="752.1" y="193.4"><tspan x="752.09" y="193.4">South America</tspan></text></g></g><path stroke="#ccc" d="M738.09 201.04H830"/><g class="clickable"><g class="ConnectedScatterLegend"><text font-size="12.6" x="738.1" y="219" fill="#333"><tspan x="738.09" y="219">2000</tspan></text><text font-size="12.6" x="806.8" y="219" fill="#333"><tspan x="806.78" y="219">2019</tspan></text><path stroke="#666" stroke-width="1" d="M771.32 213.84h30.46"/><circle cx="771.32" cy="213.84" r="2" fill="#666" stroke="#ccc" stroke-width=".2"/><circle cx="781.47" cy="213.84" r="2" fill="#666" stroke="#ccc" stroke-width=".2"/><circle cx="791.62" cy="213.84" r="2" fill="#666" stroke="#ccc" stroke-width=".2"/><path cx="801.78" cy="213.84" r="3" fill="#666" stroke="#ccc" stroke-width=".2" d="m798.78 210.84 6 3-6 3z"/></g></g></g><g class="SourcesFooter" style="fill:#777"><g style="fill:#777"><text font-size="12.6" x="15" y="566.9"><tspan x="15" y="566.87">Source: Institute for Health Metrics and Evaluation, Global Burden of Disease (2019); WHO Global Health Observatory</tspan></text></g><text font-size="12.6" x="15" y="582.7"><tspan x="15" y="582.73"><a target="_blank" style="fill:#777" href="https://ourworldindata.org/malaria/">OurWorldInData.org/malaria/</a> • <a style="fill:#777" class="cclogo" href="http://creativecommons.org/licenses/by/4.0/deed.en_US" target="_blank">CC BY</a></tspan></text></g></svg>