<svg xmlns="http://www.w3.org/2000/svg" version="1.1" style="font-family:Lato,'Helvetica Neue',Helvetica,Arial,sans-serif;font-size:18px;background-color:#fff;text-rendering:geometricPrecision;-webkit-font-smoothing:antialiased" width="850" height="600" viewBox="0 0 850 600"><g class="HeaderView"><g transform="matrix(.29 0 0 .29 774 15)"><svg className="owidLog" width="210" height="120" viewBox="0 0 210 120" fill="none" xmlns="http://www.w3.org/2000/svg"><g clip-path="url(#a)"><path d="M0 0h210v107.89H0V0z" fill="#002147"/><path d="M40.98 32.25c0 2.36-.38 4.53-1.12 6.51a14.26 14.26 0 0 1-8.1 8.4c-1.9.78-4.02 1.17-6.34 1.17a16.6 16.6 0 0 1-6.33-1.17 14.31 14.31 0 0 1-8.08-8.4 18.29 18.29 0 0 1-1.12-6.51c0-2.36.38-4.53 1.12-6.5.75-1.97 1.8-3.67 3.17-5.1a14.32 14.32 0 0 1 4.9-3.34c1.92-.8 4.03-1.19 6.34-1.19 2.32 0 4.43.4 6.34 1.19 1.92.8 3.56 1.9 4.93 3.34a14.87 14.87 0 0 1 3.17 5.1 18.1 18.1 0 0 1 1.12 6.5zm-4.38 0c0-1.94-.26-3.68-.8-5.22a10.91 10.91 0 0 0-2.24-3.89 9.68 9.68 0 0 0-3.52-2.46 11.95 11.95 0 0 0-4.62-.86c-1.68 0-3.21.28-4.6.86a9.88 9.88 0 0 0-3.54 2.46 10.91 10.91 0 0 0-2.24 3.9c-.53 1.53-.8 3.27-.8 5.2 0 1.94.27 3.68.8 5.22a11.17 11.17 0 0 0 2.24 3.9 10.01 10.01 0 0 0 3.55 2.44c1.38.56 2.9.83 4.6.83s3.24-.27 4.61-.83a9.8 9.8 0 0 0 3.52-2.44 11.17 11.17 0 0 0 2.25-3.9c.53-1.54.8-3.28.8-5.21zm26.22-6.54V48H60.5c-.56 0-.9-.27-1.05-.81l-.31-2.4a12.45 12.45 0 0 1-3.26 2.6c-1.2.64-2.58.96-4.13.96-1.22 0-2.3-.2-3.24-.6a6.52 6.52 0 0 1-2.33-1.7 7.37 7.37 0 0 1-1.43-2.67c-.3-1.04-.46-2.2-.46-3.45V25.7h3.91v14.22c0 1.68.38 2.99 1.15 3.91.77.93 1.96 1.39 3.54 1.39 1.16 0 2.24-.27 3.23-.82a10.42 10.42 0 0 0 2.8-2.28V25.7h3.91zm8.61 4.47a9.94 9.94 0 0 1 2.6-3.56 5.64 5.64 0 0 1 3.76-1.3c.47 0 .92.05 1.34.15.44.1.83.27 1.17.49l-.3 2.92c-.09.37-.3.55-.66.55-.2 0-.5-.04-.9-.13a6.21 6.21 0 0 0-3.24.18 4.23 4.23 0 0 0-1.47.92c-.42.4-.81.9-1.17 1.5-.33.58-.64 1.26-.92 2.02V48H67.7V25.71h2.25c.42 0 .72.08.88.25.16.16.27.44.33.83l.26 3.39zm61.16-13.7L122.75 48h-3.82l-7.99-24.05a21.95 21.95 0 0 1-.42-1.58 38.36 38.36 0 0 1-.44 1.58L102.05 48h-3.83L88.4 16.47h3.54c.38 0 .7.1.95.29.26.2.43.43.5.73l6.52 21.9.28 1.28.29 1.46.3-1.46.38-1.27 7.41-21.91c.1-.25.26-.48.51-.69.27-.22.58-.33.95-.33h1.23c.38 0 .69.1.92.29a1.77 1.77 0 0 1 .53.73l7.4 21.9a28.4 28.4 0 0 1 .68 2.62 29.52 29.52 0 0 1 .52-2.61l6.54-21.91a1.31 1.31 0 0 1 .48-.7c.27-.21.58-.32.95-.32h3.32zm9.35 8.88c1.63 0 3.1.27 4.4.82a9.43 9.43 0 0 1 5.46 5.94c.5 1.4.74 2.98.74 4.73 0 1.76-.25 3.34-.74 4.75a9.43 9.43 0 0 1-5.46 5.92c-1.3.52-2.77.79-4.4.79-1.64 0-3.12-.27-4.44-.8a9.42 9.42 0 0 1-3.35-2.3c-.92-1-1.63-2.2-2.13-3.61-.49-1.41-.73-3-.73-4.75s.24-3.33.73-4.73c.5-1.43 1.2-2.64 2.13-3.63a9.4 9.4 0 0 1 3.35-2.31c1.32-.55 2.8-.82 4.44-.82zm0 19.89c2.2 0 3.84-.73 4.93-2.2 1.08-1.48 1.63-3.54 1.63-6.18 0-2.66-.55-4.72-1.63-6.2-1.09-1.49-2.73-2.23-4.93-2.23-1.12 0-2.09.2-2.93.57a5.71 5.71 0 0 0-2.06 1.65 7.5 7.5 0 0 0-1.24 2.67c-.26 1.04-.4 2.22-.4 3.54 0 2.64.55 4.7 1.64 6.18 1.1 1.47 2.76 2.2 4.99 2.2zm17.97-15.07a9.94 9.94 0 0 1 2.6-3.56 5.64 5.64 0 0 1 3.76-1.3c.47 0 .91.05 1.34.15.44.1.83.27 1.16.49l-.28 2.92c-.09.37-.31.55-.66.55-.2 0-.5-.04-.9-.13a6.2 6.2 0 0 0-3.24.18 4.23 4.23 0 0 0-1.47.92c-.43.4-.82.9-1.17 1.5a13.1 13.1 0 0 0-.92 2.02V48h-3.94V25.71h2.24c.43 0 .72.08.88.25.17.16.28.44.33.83l.27 3.39zm15.04-14.59V48h-3.92V15.6h3.92zm19.55 15.43a6.22 6.22 0 0 0-2.38-2.05 6.7 6.7 0 0 0-2.86-.6c-2.07 0-3.66.75-4.77 2.23-1.12 1.48-1.68 3.6-1.68 6.33 0 1.46.13 2.7.38 3.74a7.29 7.29 0 0 0 1.1 2.56 4.35 4.35 0 0 0 1.78 1.45c.7.3 1.5.46 2.4.46 1.29 0 2.41-.3 3.36-.88a9.6 9.6 0 0 0 2.67-2.49V31.02zm3.91-15.43V48h-2.33c-.56 0-.9-.27-1.06-.81l-.35-2.71a12.13 12.13 0 0 1-3.25 2.77 8.28 8.28 0 0 1-4.23 1.06 7.31 7.31 0 0 1-6.14-2.9c-.73-.96-1.3-2.15-1.69-3.57a18.35 18.35 0 0 1 .07-9.48 11.29 11.29 0 0 1 1.89-3.7 8.7 8.7 0 0 1 7.06-3.34 7.96 7.96 0 0 1 6.12 2.62V15.59h3.91zM46.61 70.71V93H42.7V70.71h3.91zm.84-7c0 .39-.08.75-.24 1.09a2.81 2.81 0 0 1-1.52 1.47 2.67 2.67 0 0 1-2.16 0 2.9 2.9 0 0 1-1.45-1.47 2.67 2.67 0 0 1 0-2.16c.15-.35.35-.65.6-.9.25-.27.53-.47.85-.62a2.67 2.67 0 0 1 2.16 0c.35.15.65.35.9.62.27.25.47.55.62.9.16.34.24.7.24 1.08zm7.97 10.24c.49-.54 1-1.04 1.54-1.48a9.85 9.85 0 0 1 3.66-1.84 8.96 8.96 0 0 1 5.43.35c.94.4 1.72.97 2.33 1.71a7.36 7.36 0 0 1 1.43 2.67c.32 1.04.49 2.19.49 3.45V93h-3.94V78.81c0-1.69-.4-3-1.17-3.92-.76-.93-1.93-1.4-3.5-1.4a6.6 6.6 0 0 0-3.25.83c-1 .56-1.92 1.31-2.77 2.27V93h-3.94V70.71h2.35c.56 0 .9.28 1.04.82l.3 2.42zm57.7 3.3c0 2.36-.37 4.5-1.11 6.44a14.3 14.3 0 0 1-3.17 4.98 14.1 14.1 0 0 1-4.93 3.2c-1.9.76-4.02 1.13-6.33 1.13H85.8V61.47h11.77c2.31 0 4.42.39 6.33 1.15a13.8 13.8 0 0 1 8.1 8.18 17.75 17.75 0 0 1 1.12 6.45zm-4.37 0c0-1.94-.26-3.67-.8-5.2a10.94 10.94 0 0 0-2.23-3.87 9.57 9.57 0 0 0-3.53-2.42 12.23 12.23 0 0 0-4.61-.83h-7.5v24.62h7.5c1.7 0 3.24-.28 4.61-.84a9.7 9.7 0 0 0 3.53-2.4 10.94 10.94 0 0 0 2.24-3.87c.53-1.53.8-3.26.8-5.2zm19.8 5.72c-1.8.06-3.34.2-4.62.44-1.26.22-2.3.51-3.1.88-.8.36-1.37.8-1.74 1.3-.35.5-.53 1.05-.53 1.67 0 .58.1 1.1.3 1.52a3 3 0 0 0 .76 1.05c.34.27.73.46 1.17.6a6.13 6.13 0 0 0 1.45.17 7.28 7.28 0 0 0 3.5-.81 11.95 11.95 0 0 0 2.82-2.2v-4.62zm-12.65-9.11a12.73 12.73 0 0 1 3.98-2.66c1.43-.59 3-.88 4.73-.88 1.25 0 2.36.2 3.33.61a6.81 6.81 0 0 1 3.94 4.38c.33 1.04.5 2.19.5 3.43V93h-1.74a1.8 1.8 0 0 1-.88-.18c-.2-.13-.36-.38-.48-.74l-.44-2.12-1.72 1.46a9.48 9.48 0 0 1-3.74 1.7c-.69.15-1.46.23-2.3.23-.87 0-1.69-.12-2.45-.35a5.34 5.34 0 0 1-3.34-2.93 6.64 6.64 0 0 1-.49-2.64c0-.88.25-1.72.73-2.53a6.33 6.33 0 0 1 2.35-2.17c1.09-.63 2.5-1.15 4.25-1.54 1.75-.41 3.89-.65 6.42-.7v-1.75c0-1.73-.37-3.03-1.12-3.91-.75-.9-1.84-1.34-3.28-1.34-.97 0-1.78.12-2.44.37-.64.23-1.2.5-1.7.81l-1.23.82c-.33.23-.67.35-1 .35-.27 0-.5-.07-.69-.2a2.1 2.1 0 0 1-.48-.53l-.7-1.25zm27.67 19.5c-1.76 0-3.12-.5-4.07-1.48-.94-.98-1.41-2.4-1.41-4.25V74h-2.68a.9.9 0 0 1-.6-.2c-.16-.14-.24-.36-.24-.66v-1.56l3.65-.46.9-6.89a.9.9 0 0 1 .29-.52.88.88 0 0 1 .62-.22H142v7.67h6.44V74H142v13.38c0 .94.22 1.63.68 2.09.45.45 1.04.68 1.76.68a3.21 3.21 0 0 0 1.85-.53l.55-.35c.16-.12.3-.18.41-.18.2 0 .4.13.55.38l1.15 1.87a7.45 7.45 0 0 1-2.44 1.5 8.53 8.53 0 0 1-2.95.52zm19.68-10.4c-1.8.07-3.34.21-4.62.45-1.26.22-2.3.51-3.1.88-.8.36-1.37.8-1.74 1.3-.35.5-.53 1.05-.53 1.67 0 .58.1 1.1.3 1.52a2.9 2.9 0 0 0 .76 1.05c.34.27.73.46 1.17.6a6.13 6.13 0 0 0 1.45.17 7.3 7.3 0 0 0 3.5-.81 12.04 12.04 0 0 0 2.82-2.2v-4.62zm-12.65-9.1a12.72 12.72 0 0 1 3.99-2.66c1.42-.59 3-.88 4.72-.88 1.25 0 2.36.2 3.33.61a6.81 6.81 0 0 1 3.94 4.38c.33 1.04.5 2.19.5 3.43V93h-1.74a1.8 1.8 0 0 1-.88-.18c-.2-.13-.36-.38-.48-.74l-.44-2.12-1.72 1.46a9.48 9.48 0 0 1-3.74 1.7c-.69.15-1.46.23-2.3.23-.87 0-1.69-.12-2.45-.35a5.33 5.33 0 0 1-3.34-2.93 6.62 6.62 0 0 1-.49-2.64c0-.88.25-1.72.73-2.53a6.33 6.33 0 0 1 2.35-2.17c1.09-.63 2.5-1.15 4.25-1.54a31.2 31.2 0 0 1 6.42-.7v-1.75c0-1.73-.37-3.03-1.12-3.91-.75-.9-1.84-1.34-3.28-1.34-.97 0-1.78.12-2.44.37-.64.23-1.2.5-1.7.81l-1.22.82c-.34.23-.68.35-1.02.35-.26 0-.49-.07-.68-.2a1.88 1.88 0 0 1-.48-.53l-.7-1.25zM40.98 32.25c0 2.36-.38 4.53-1.12 6.51a14.26 14.26 0 0 1-8.1 8.4c-1.9.78-4.02 1.17-6.34 1.17a16.6 16.6 0 0 1-6.33-1.17 14.31 14.31 0 0 1-8.08-8.4 18.29 18.29 0 0 1-1.12-6.51c0-2.36.38-4.53 1.12-6.5.75-1.97 1.8-3.67 3.17-5.1a14.32 14.32 0 0 1 4.9-3.34c1.92-.8 4.03-1.19 6.34-1.19 2.32 0 4.43.4 6.34 1.19 1.92.8 3.56 1.9 4.93 3.34a14.87 14.87 0 0 1 3.17 5.1 18.1 18.1 0 0 1 1.12 6.5zm-4.38 0c0-1.94-.26-3.68-.8-5.22a10.91 10.91 0 0 0-2.24-3.89 9.68 9.68 0 0 0-3.52-2.46 11.95 11.95 0 0 0-4.62-.86c-1.68 0-3.21.28-4.6.86a9.88 9.88 0 0 0-3.54 2.46 10.91 10.91 0 0 0-2.24 3.9c-.53 1.53-.8 3.27-.8 5.2 0 1.94.27 3.68.8 5.22a11.17 11.17 0 0 0 2.24 3.9 10.01 10.01 0 0 0 3.55 2.44c1.38.56 2.9.83 4.6.83s3.24-.27 4.61-.83a9.8 9.8 0 0 0 3.52-2.44 11.17 11.17 0 0 0 2.25-3.9c.53-1.54.8-3.28.8-5.21zm26.22-6.54V48H60.5c-.56 0-.9-.27-1.05-.81l-.31-2.4a12.45 12.45 0 0 1-3.26 2.6c-1.2.64-2.58.96-4.13.96-1.22 0-2.3-.2-3.24-.6a6.52 6.52 0 0 1-2.33-1.7 7.37 7.37 0 0 1-1.43-2.67c-.3-1.04-.46-2.2-.46-3.45V25.7h3.91v14.22c0 1.68.38 2.99 1.15 3.91.77.93 1.96 1.39 3.54 1.39 1.16 0 2.24-.27 3.23-.82a10.42 10.42 0 0 0 2.8-2.28V25.7h3.91zm8.61 4.47a9.94 9.94 0 0 1 2.6-3.56 5.64 5.64 0 0 1 3.76-1.3c.47 0 .92.05 1.34.15.44.1.83.27 1.17.49l-.3 2.92c-.09.37-.3.55-.66.55-.2 0-.5-.04-.9-.13a6.21 6.21 0 0 0-3.24.18 4.23 4.23 0 0 0-1.47.92c-.42.4-.81.9-1.17 1.5-.33.58-.64 1.26-.92 2.02V48H67.7V25.71h2.25c.42 0 .72.08.88.25.16.16.27.44.33.83l.26 3.39zm61.16-13.7L122.75 48h-3.82l-7.99-24.05a21.95 21.95 0 0 1-.42-1.58 38.36 38.36 0 0 1-.44 1.58L102.05 48h-3.83L88.4 16.47h3.54c.38 0 .7.1.95.29.26.2.43.43.5.73l6.52 21.9.28 1.28.29 1.46.3-1.46.38-1.27 7.41-21.91c.1-.25.26-.48.51-.69.27-.22.58-.33.95-.33h1.23c.38 0 .69.1.92.29a1.77 1.77 0 0 1 .53.73l7.4 21.9a28.4 28.4 0 0 1 .68 2.62 29.52 29.52 0 0 1 .52-2.61l6.54-21.91a1.31 1.31 0 0 1 .48-.7c.27-.21.58-.32.95-.32h3.32zm9.35 8.88c1.63 0 3.1.27 4.4.82a9.43 9.43 0 0 1 5.46 5.94c.5 1.4.74 2.98.74 4.73 0 1.76-.25 3.34-.74 4.75a9.43 9.43 0 0 1-5.46 5.92c-1.3.52-2.77.79-4.4.79-1.64 0-3.12-.27-4.44-.8a9.42 9.42 0 0 1-3.35-2.3c-.92-1-1.63-2.2-2.13-3.61-.49-1.41-.73-3-.73-4.75s.24-3.33.73-4.73c.5-1.43 1.2-2.64 2.13-3.63a9.4 9.4 0 0 1 3.35-2.31c1.32-.55 2.8-.82 4.44-.82zm0 19.89c2.2 0 3.84-.73 4.93-2.2 1.08-1.48 1.63-3.54 1.63-6.18 0-2.66-.55-4.72-1.63-6.2-1.09-1.49-2.73-2.23-4.93-2.23-1.12 0-2.09.2-2.93.57a5.71 5.71 0 0 0-2.06 1.65 7.5 7.5 0 0 0-1.24 2.67c-.26 1.04-.4 2.22-.4 3.54 0 2.64.55 4.7 1.64 6.18 1.1 1.47 2.76 2.2 4.99 2.2zm17.97-15.07a9.94 9.94 0 0 1 2.6-3.56 5.64 5.64 0 0 1 3.76-1.3c.47 0 .91.05 1.34.15.44.1.83.27 1.16.49l-.28 2.92c-.09.37-.31.55-.66.55-.2 0-.5-.04-.9-.13a6.2 6.2 0 0 0-3.24.18 4.23 4.23 0 0 0-1.47.92c-.43.4-.82.9-1.17 1.5a13.1 13.1 0 0 0-.92 2.02V48h-3.94V25.71h2.24c.43 0 .72.08.88.25.17.16.28.44.33.83l.27 3.39zm15.04-14.59V48h-3.92V15.6h3.92zm19.55 15.43a6.22 6.22 0 0 0-2.38-2.05 6.7 6.7 0 0 0-2.86-.6c-2.07 0-3.66.75-4.77 2.23-1.12 1.48-1.68 3.6-1.68 6.33 0 1.46.13 2.7.38 3.74a7.29 7.29 0 0 0 1.1 2.56 4.35 4.35 0 0 0 1.78 1.45c.7.3 1.5.46 2.4.46 1.29 0 2.41-.3 3.36-.88a9.6 9.6 0 0 0 2.67-2.49V31.02zm3.91-15.43V48h-2.33c-.56 0-.9-.27-1.06-.81l-.35-2.71a12.13 12.13 0 0 1-3.25 2.77 8.28 8.28 0 0 1-4.23 1.06 7.31 7.31 0 0 1-6.14-2.9c-.73-.96-1.3-2.15-1.69-3.57a18.35 18.35 0 0 1 .07-9.48 11.29 11.29 0 0 1 1.89-3.7 8.7 8.7 0 0 1 7.06-3.34 7.96 7.96 0 0 1 6.12 2.62V15.59h3.91zM46.61 70.71V93H42.7V70.71h3.91zm.84-7c0 .39-.08.75-.24 1.09a2.81 2.81 0 0 1-1.52 1.47 2.67 2.67 0 0 1-2.16 0 2.9 2.9 0 0 1-1.45-1.47 2.67 2.67 0 0 1 0-2.16c.15-.35.35-.65.6-.9.25-.27.53-.47.85-.62a2.67 2.67 0 0 1 2.16 0c.35.15.65.35.9.62.27.25.47.55.62.9.16.34.24.7.24 1.08zm7.97 10.24c.49-.54 1-1.04 1.54-1.48a9.85 9.85 0 0 1 3.66-1.84 8.96 8.96 0 0 1 5.43.35c.94.4 1.72.97 2.33 1.71a7.36 7.36 0 0 1 1.43 2.67c.32 1.04.49 2.19.49 3.45V93h-3.94V78.81c0-1.69-.4-3-1.17-3.92-.76-.93-1.93-1.4-3.5-1.4a6.6 6.6 0 0 0-3.25.83c-1 .56-1.92 1.31-2.77 2.27V93h-3.94V70.71h2.35c.56 0 .9.28 1.04.82l.3 2.42zm57.7 3.3c0 2.36-.37 4.5-1.11 6.44a14.3 14.3 0 0 1-3.17 4.98 14.1 14.1 0 0 1-4.93 3.2c-1.9.76-4.02 1.13-6.33 1.13H85.8V61.47h11.77c2.31 0 4.42.39 6.33 1.15a13.8 13.8 0 0 1 8.1 8.18 17.75 17.75 0 0 1 1.12 6.45zm-4.37 0c0-1.94-.26-3.67-.8-5.2a10.94 10.94 0 0 0-2.23-3.87 9.57 9.57 0 0 0-3.53-2.42 12.23 12.23 0 0 0-4.61-.83h-7.5v24.62h7.5c1.7 0 3.24-.28 4.61-.84a9.7 9.7 0 0 0 3.53-2.4 10.94 10.94 0 0 0 2.24-3.87c.53-1.53.8-3.26.8-5.2zm19.8 5.72c-1.8.06-3.34.2-4.62.44-1.26.22-2.3.51-3.1.88-.8.36-1.37.8-1.74 1.3-.35.5-.53 1.05-.53 1.67 0 .58.1 1.1.3 1.52a3 3 0 0 0 .76 1.05c.34.27.73.46 1.17.6a6.13 6.13 0 0 0 1.45.17 7.28 7.28 0 0 0 3.5-.81 11.95 11.95 0 0 0 2.82-2.2v-4.62zm-12.65-9.11a12.73 12.73 0 0 1 3.98-2.66c1.43-.59 3-.88 4.73-.88 1.25 0 2.36.2 3.33.61a6.81 6.81 0 0 1 3.94 4.38c.33 1.04.5 2.19.5 3.43V93h-1.74a1.8 1.8 0 0 1-.88-.18c-.2-.13-.36-.38-.48-.74l-.44-2.12-1.72 1.46a9.48 9.48 0 0 1-3.74 1.7c-.69.15-1.46.23-2.3.23-.87 0-1.69-.12-2.45-.35a5.34 5.34 0 0 1-3.34-2.93 6.64 6.64 0 0 1-.49-2.64c0-.88.25-1.72.73-2.53a6.33 6.33 0 0 1 2.35-2.17c1.09-.63 2.5-1.15 4.25-1.54 1.75-.41 3.89-.65 6.42-.7v-1.75c0-1.73-.37-3.03-1.12-3.91-.75-.9-1.84-1.34-3.28-1.34-.97 0-1.78.12-2.44.37-.64.23-1.2.5-1.7.81l-1.23.82c-.33.23-.67.35-1 .35-.27 0-.5-.07-.69-.2a2.1 2.1 0 0 1-.48-.53l-.7-1.25zm27.67 19.5c-1.76 0-3.12-.5-4.07-1.48-.94-.98-1.41-2.4-1.41-4.25V74h-2.68a.9.9 0 0 1-.6-.2c-.16-.14-.24-.36-.24-.66v-1.56l3.65-.46.9-6.89a.9.9 0 0 1 .29-.52.88.88 0 0 1 .62-.22H142v7.67h6.44V74H142v13.38c0 .94.22 1.63.68 2.09.45.45 1.04.68 1.76.68a3.21 3.21 0 0 0 1.85-.53l.55-.35c.16-.12.3-.18.41-.18.2 0 .4.13.55.38l1.15 1.87a7.45 7.45 0 0 1-2.44 1.5 8.53 8.53 0 0 1-2.95.52zm19.68-10.4c-1.8.07-3.34.21-4.62.45-1.26.22-2.3.51-3.1.88-.8.36-1.37.8-1.74 1.3-.35.5-.53 1.05-.53 1.67 0 .58.1 1.1.3 1.52a2.9 2.9 0 0 0 .76 1.05c.34.27.73.46 1.17.6a6.13 6.13 0 0 0 1.45.17 7.3 7.3 0 0 0 3.5-.81 12.04 12.04 0 0 0 2.82-2.2v-4.62zm-12.65-9.1a12.72 12.72 0 0 1 3.99-2.66c1.42-.59 3-.88 4.72-.88 1.25 0 2.36.2 3.33.61a6.81 6.81 0 0 1 3.94 4.38c.33 1.04.5 2.19.5 3.43V93h-1.74a1.8 1.8 0 0 1-.88-.18c-.2-.13-.36-.38-.48-.74l-.44-2.12-1.72 1.46a9.48 9.48 0 0 1-3.74 1.7c-.69.15-1.46.23-2.3.23-.87 0-1.69-.12-2.45-.35a5.33 5.33 0 0 1-3.34-2.93 6.62 6.62 0 0 1-.49-2.64c0-.88.25-1.72.73-2.53a6.33 6.33 0 0 1 2.35-2.17c1.09-.63 2.5-1.15 4.25-1.54a31.2 31.2 0 0 1 6.42-.7v-1.75c0-1.73-.37-3.03-1.12-3.91-.75-.9-1.84-1.34-3.28-1.34-.97 0-1.78.12-2.44.37-.64.23-1.2.5-1.7.81l-1.22.82c-.34.23-.68.35-1.02.35-.26 0-.49-.07-.68-.2a1.88 1.88 0 0 1-.48-.53l-.7-1.25zM40.98 32.25c0 2.36-.38 4.53-1.12 6.51a14.26 14.26 0 0 1-8.1 8.4c-1.9.78-4.02 1.17-6.34 1.17a16.6 16.6 0 0 1-6.33-1.17 14.31 14.31 0 0 1-8.08-8.4 18.29 18.29 0 0 1-1.12-6.51c0-2.36.38-4.53 1.12-6.5.75-1.97 1.8-3.67 3.17-5.1a14.32 14.32 0 0 1 4.9-3.34c1.92-.8 4.03-1.19 6.34-1.19 2.32 0 4.43.4 6.34 1.19 1.92.8 3.56 1.9 4.93 3.34a14.87 14.87 0 0 1 3.17 5.1 18.1 18.1 0 0 1 1.12 6.5zm-4.38 0c0-1.94-.26-3.68-.8-5.22a10.91 10.91 0 0 0-2.24-3.89 9.68 9.68 0 0 0-3.52-2.46 11.95 11.95 0 0 0-4.62-.86c-1.68 0-3.21.28-4.6.86a9.88 9.88 0 0 0-3.54 2.46 10.91 10.91 0 0 0-2.24 3.9c-.53 1.53-.8 3.27-.8 5.2 0 1.94.27 3.68.8 5.22a11.17 11.17 0 0 0 2.24 3.9 10.01 10.01 0 0 0 3.55 2.44c1.38.56 2.9.83 4.6.83s3.24-.27 4.61-.83a9.8 9.8 0 0 0 3.52-2.44 11.17 11.17 0 0 0 2.25-3.9c.53-1.54.8-3.28.8-5.21zm26.22-6.54V48H60.5c-.56 0-.9-.27-1.05-.81l-.31-2.4a12.45 12.45 0 0 1-3.26 2.6c-1.2.64-2.58.96-4.13.96-1.22 0-2.3-.2-3.24-.6a6.52 6.52 0 0 1-2.33-1.7 7.37 7.37 0 0 1-1.43-2.67c-.3-1.04-.46-2.2-.46-3.45V25.7h3.91v14.22c0 1.68.38 2.99 1.15 3.91.77.93 1.96 1.39 3.54 1.39 1.16 0 2.24-.27 3.23-.82a10.42 10.42 0 0 0 2.8-2.28V25.7h3.91zm8.61 4.47a9.94 9.94 0 0 1 2.6-3.56 5.64 5.64 0 0 1 3.76-1.3c.47 0 .92.05 1.34.15.44.1.83.27 1.17.49l-.3 2.92c-.09.37-.3.55-.66.55-.2 0-.5-.04-.9-.13a6.21 6.21 0 0 0-3.24.18 4.23 4.23 0 0 0-1.47.92c-.42.4-.81.9-1.17 1.5-.33.58-.64 1.26-.92 2.02V48H67.7V25.71h2.25c.42 0 .72.08.88.25.16.16.27.44.33.83l.26 3.39zm61.16-13.7L122.75 48h-3.82l-7.99-24.05a21.95 21.95 0 0 1-.42-1.58 38.36 38.36 0 0 1-.44 1.58L102.05 48h-3.83L88.4 16.47h3.54c.38 0 .7.1.95.29.26.2.43.43.5.73l6.52 21.9.28 1.28.29 1.46.3-1.46.38-1.27 7.41-21.91c.1-.25.26-.48.51-.69.27-.22.58-.33.95-.33h1.23c.38 0 .69.1.92.29a1.77 1.77 0 0 1 .53.73l7.4 21.9a28.4 28.4 0 0 1 .68 2.62 29.52 29.52 0 0 1 .52-2.61l6.54-21.91a1.31 1.31 0 0 1 .48-.7c.27-.21.58-.32.95-.32h3.32zm9.35 8.88c1.63 0 3.1.27 4.4.82a9.43 9.43 0 0 1 5.46 5.94c.5 1.4.74 2.98.74 4.73 0 1.76-.25 3.34-.74 4.75a9.43 9.43 0 0 1-5.46 5.92c-1.3.52-2.77.79-4.4.79-1.64 0-3.12-.27-4.44-.8a9.42 9.42 0 0 1-3.35-2.3c-.92-1-1.63-2.2-2.13-3.61-.49-1.41-.73-3-.73-4.75s.24-3.33.73-4.73c.5-1.43 1.2-2.64 2.13-3.63a9.4 9.4 0 0 1 3.35-2.31c1.32-.55 2.8-.82 4.44-.82zm0 19.89c2.2 0 3.84-.73 4.93-2.2 1.08-1.48 1.63-3.54 1.63-6.18 0-2.66-.55-4.72-1.63-6.2-1.09-1.49-2.73-2.23-4.93-2.23-1.12 0-2.09.2-2.93.57a5.71 5.71 0 0 0-2.06 1.65 7.5 7.5 0 0 0-1.24 2.67c-.26 1.04-.4 2.22-.4 3.54 0 2.64.55 4.7 1.64 6.18 1.1 1.47 2.76 2.2 4.99 2.2zm17.97-15.07a9.94 9.94 0 0 1 2.6-3.56 5.64 5.64 0 0 1 3.76-1.3c.47 0 .91.05 1.34.15.44.1.83.27 1.16.49l-.28 2.92c-.09.37-.31.55-.66.55-.2 0-.5-.04-.9-.13a6.2 6.2 0 0 0-3.24.18 4.23 4.23 0 0 0-1.47.92c-.43.4-.82.9-1.17 1.5a13.1 13.1 0 0 0-.92 2.02V48h-3.94V25.71h2.24c.43 0 .72.08.88.25.17.16.28.44.33.83l.27 3.39zm15.04-14.59V48h-3.92V15.6h3.92zm19.55 15.43a6.22 6.22 0 0 0-2.38-2.05 6.7 6.7 0 0 0-2.86-.6c-2.07 0-3.66.75-4.77 2.23-1.12 1.48-1.68 3.6-1.68 6.33 0 1.46.13 2.7.38 3.74a7.29 7.29 0 0 0 1.1 2.56 4.35 4.35 0 0 0 1.78 1.45c.7.3 1.5.46 2.4.46 1.29 0 2.41-.3 3.36-.88a9.6 9.6 0 0 0 2.67-2.49V31.02zm3.91-15.43V48h-2.33c-.56 0-.9-.27-1.06-.81l-.35-2.71a12.13 12.13 0 0 1-3.25 2.77 8.28 8.28 0 0 1-4.23 1.06 7.31 7.31 0 0 1-6.14-2.9c-.73-.96-1.3-2.15-1.69-3.57a18.35 18.35 0 0 1 .07-9.48 11.29 11.29 0 0 1 1.89-3.7 8.7 8.7 0 0 1 7.06-3.34 7.96 7.96 0 0 1 6.12 2.62V15.59h3.91zM46.61 70.71V93H42.7V70.71h3.91zm.84-7c0 .39-.08.75-.24 1.09a2.81 2.81 0 0 1-1.52 1.47 2.67 2.67 0 0 1-2.16 0 2.9 2.9 0 0 1-1.45-1.47 2.67 2.67 0 0 1 0-2.16c.15-.35.35-.65.6-.9.25-.27.53-.47.85-.62a2.67 2.67 0 0 1 2.16 0c.35.15.65.35.9.62.27.25.47.55.62.9.16.34.24.7.24 1.08zm7.97 10.24c.49-.54 1-1.04 1.54-1.48a9.85 9.85 0 0 1 3.66-1.84 8.96 8.96 0 0 1 5.43.35c.94.4 1.72.97 2.33 1.71a7.36 7.36 0 0 1 1.43 2.67c.32 1.04.49 2.19.49 3.45V93h-3.94V78.81c0-1.69-.4-3-1.17-3.92-.76-.93-1.93-1.4-3.5-1.4a6.6 6.6 0 0 0-3.25.83c-1 .56-1.92 1.31-2.77 2.27V93h-3.94V70.71h2.35c.56 0 .9.28 1.04.82l.3 2.42zm57.7 3.3c0 2.36-.37 4.5-1.11 6.44a14.3 14.3 0 0 1-3.17 4.98 14.1 14.1 0 0 1-4.93 3.2c-1.9.76-4.02 1.13-6.33 1.13H85.8V61.47h11.77c2.31 0 4.42.39 6.33 1.15a13.8 13.8 0 0 1 8.1 8.18 17.75 17.75 0 0 1 1.12 6.45zm-4.37 0c0-1.94-.26-3.67-.8-5.2a10.94 10.94 0 0 0-2.23-3.87 9.57 9.57 0 0 0-3.53-2.42 12.23 12.23 0 0 0-4.61-.83h-7.5v24.62h7.5c1.7 0 3.24-.28 4.61-.84a9.7 9.7 0 0 0 3.53-2.4 10.94 10.94 0 0 0 2.24-3.87c.53-1.53.8-3.26.8-5.2zm19.8 5.72c-1.8.06-3.34.2-4.62.44-1.26.22-2.3.51-3.1.88-.8.36-1.37.8-1.74 1.3-.35.5-.53 1.05-.53 1.67 0 .58.1 1.1.3 1.52a3 3 0 0 0 .76 1.05c.34.27.73.46 1.17.6a6.13 6.13 0 0 0 1.45.17 7.28 7.28 0 0 0 3.5-.81 11.95 11.95 0 0 0 2.82-2.2v-4.62zm-12.65-9.11a12.73 12.73 0 0 1 3.98-2.66c1.43-.59 3-.88 4.73-.88 1.25 0 2.36.2 3.33.61a6.81 6.81 0 0 1 3.94 4.38c.33 1.04.5 2.19.5 3.43V93h-1.74a1.8 1.8 0 0 1-.88-.18c-.2-.13-.36-.38-.48-.74l-.44-2.12-1.72 1.46a9.48 9.48 0 0 1-3.74 1.7c-.69.15-1.46.23-2.3.23-.87 0-1.69-.12-2.45-.35a5.34 5.34 0 0 1-3.34-2.93 6.64 6.64 0 0 1-.49-2.64c0-.88.25-1.72.73-2.53a6.33 6.33 0 0 1 2.35-2.17c1.09-.63 2.5-1.15 4.25-1.54 1.75-.41 3.89-.65 6.42-.7v-1.75c0-1.73-.37-3.03-1.12-3.91-.75-.9-1.84-1.34-3.28-1.34-.97 0-1.78.12-2.44.37-.64.23-1.2.5-1.7.81l-1.23.82c-.33.23-.67.35-1 .35-.27 0-.5-.07-.69-.2a2.1 2.1 0 0 1-.48-.53l-.7-1.25zm27.67 19.5c-1.76 0-3.12-.5-4.07-1.48-.94-.98-1.41-2.4-1.41-4.25V74h-2.68a.9.9 0 0 1-.6-.2c-.16-.14-.24-.36-.24-.66v-1.56l3.65-.46.9-6.89a.9.9 0 0 1 .29-.52.88.88 0 0 1 .62-.22H142v7.67h6.44V74H142v13.38c0 .94.22 1.63.68 2.09.45.45 1.04.68 1.76.68a3.21 3.21 0 0 0 1.85-.53l.55-.35c.16-.12.3-.18.41-.18.2 0 .4.13.55.38l1.15 1.87a7.45 7.45 0 0 1-2.44 1.5 8.53 8.53 0 0 1-2.95.52zm19.68-10.4c-1.8.07-3.34.21-4.62.45-1.26.22-2.3.51-3.1.88-.8.36-1.37.8-1.74 1.3-.35.5-.53 1.05-.53 1.67 0 .58.1 1.1.3 1.52a2.9 2.9 0 0 0 .76 1.05c.34.27.73.46 1.17.6a6.13 6.13 0 0 0 1.45.17 7.3 7.3 0 0 0 3.5-.81 12.04 12.04 0 0 0 2.82-2.2v-4.62zm-12.65-9.1a12.72 12.72 0 0 1 3.99-2.66c1.42-.59 3-.88 4.72-.88 1.25 0 2.36.2 3.33.61a6.81 6.81 0 0 1 3.94 4.38c.33 1.04.5 2.19.5 3.43V93h-1.74a1.8 1.8 0 0 1-.88-.18c-.2-.13-.36-.38-.48-.74l-.44-2.12-1.72 1.46a9.48 9.48 0 0 1-3.74 1.7c-.69.15-1.46.23-2.3.23-.87 0-1.69-.12-2.45-.35a5.33 5.33 0 0 1-3.34-2.93 6.62 6.62 0 0 1-.49-2.64c0-.88.25-1.72.73-2.53a6.33 6.33 0 0 1 2.35-2.17c1.09-.63 2.5-1.15 4.25-1.54a31.2 31.2 0 0 1 6.42-.7v-1.75c0-1.73-.37-3.03-1.12-3.91-.75-.9-1.84-1.34-3.28-1.34-.97 0-1.78.12-2.44.37-.64.23-1.2.5-1.7.81l-1.22.82c-.34.23-.68.35-1.02.35-.26 0-.49-.07-.68-.2a1.88 1.88 0 0 1-.48-.53l-.7-1.25z" fill="#fff"/><path fill="#D42B21" d="M0 106.79h210V120H0z"/></g><defs><clipPath id="a"><path fill="#fff" d="M0 0h210v120H0z"/></clipPath></defs></svg></g><a href="https://ourworldindata.org/grapher/maternal-mortality?tab=chart&amp;country=FIN~USA~OWID_WRL" style="font-family:&quot;Playfair Display&quot;,Georgia,&quot;Times New Roman&quot;,serif" target="_blank" rel="noopener"><text font-size="25.2" x="15" y="35.2" fill="#555"><tspan x="15" y="35.16">Maternal Mortality Ratio, 1800 to 2015</tspan></text></a><text font-size="14.4" x="15" y="55.7" fill="#666"><tspan x="15" y="55.72">The maternal mortality ratio is the number of women who die from pregnancy-related causes while pregnant or</tspan><tspan x="15" y="73">within 42 days of pregnancy termination per 100,000 live births. </tspan></text></g><g class="LineChart"><defs><clipPath id="b"><path d="M50.82 82.2h840v475.2h-840z"/></clipPath></defs><g class="DualAxisView"><g class="HorizontalAxis"><path stroke="#999" d="M718.6 526.2v5M60.8 526.2v5M213.8 526.2v5M366.8 526.2v5M519.7 526.2v5"/><text x="718.6" y="547.4" fill="#666" text-anchor="end" font-size="16.2">2015</text><text x="60.82" y="547.4" fill="#666" text-anchor="start" font-size="16.2">1800</text><text x="213.8" y="547.4" fill="#666" text-anchor="middle" font-size="16.2">1850</text><text x="366.8" y="547.4" fill="#666" text-anchor="middle" font-size="16.2">1900</text><text x="519.7" y="547.4" fill="#666" text-anchor="middle" font-size="16.2">1950</text></g><g class="VerticalAxis" text-anchor="end" fill="#666" font-size="16.2"><text x="55.82" y="526.2" dy=".32em">0</text><text x="55.82" y="465.8" dy=".32em">200</text><text x="55.82" y="405.4" dy=".32em">400</text><text x="55.82" y="345.1" dy=".32em">600</text><text x="55.82" y="284.7" dy=".32em">800</text><text x="55.82" y="224.3" dy=".32em">1,000</text><text x="55.82" y="163.9" dy=".32em">1,200</text><text x="55.82" y="103.5" dy=".32em">1,400</text></g><g class="AxisGridLines horizontalLines"><path stroke="#999" d="M60.82 526.2H718.6"/><path stroke="#ddd" stroke-dasharray="3,2" d="M60.82 465.8H718.6M60.82 405.4H718.6M60.82 345.1H718.6M60.82 284.7H718.6M60.82 224.3H718.6M60.82 163.9H718.6M60.82 103.5H718.6"/></g></g><g clip-path="url(#b)"><g class="LineLabels" style="cursor:default"><g class="legendMark"><g class="indicator"><path d="M722.6 461h27" stroke="#999" stroke-width=".5" fill="none"/></g><text font-size="13.5" font-weight="400" x="753.6" y="465.1" fill="#a771a8"><tspan x="753.6" y="465.05">World</tspan></text></g><g class="legendMark"><g class="indicator"><path d="M722.6 522h9v-18.05h18" stroke="#999" stroke-width=".5" fill="none"/></g><text font-size="13.5" font-weight="400" x="753.6" y="508" fill="#df3c64"><tspan x="753.6" y="508">United States</tspan></text></g><g class="legendMark"><g class="indicator"><path d="M722.6 525.3h18v-5.85h9" stroke="#999" stroke-width=".5" fill="none"/></g><text font-size="13.5" font-weight="400" x="753.6" y="523.5" fill="#3c4e66"><tspan x="753.6" y="523.5">Finland</tspan></text></g></g><g class="Lines"><g><path stroke-linecap="round" stroke-linejoin="round" stroke="#ddd" d="m642.1 410 3.1 1.2 3 .9 3.1.9 3 .9 3.1.9 3.1.9 3 1.5 3.1 1.5 3 2.1 3.1 2.4 3.1 2.8 3 3 3.1 3.6 3 3.3 3.1 3.3 3.1 3.4 3 2.7 3.1 3 3 1.2 3.1 2.4 3.1 2.7 3 1.6 3.1 1.8 3 1.5 3.1 1.5" fill="none" stroke-width="1"/></g><g><path stroke-linecap="round" stroke-linejoin="round" stroke="#ddd" d="m366.8 269.6 3 15.1 3.1 18.1 3 12.1 3.1-27.2 3.1-3 3 27.1 3.1-3 3 15.1 3.1-9 3.1 3 3-3 3.1 15.1 3-9.1 3.1-9.1 3.1 30.8 3-4.2 3.1-12.1 3-76.7 3.1 54.1L428 285l3 35.3 3.1 5.4 3-.3 3.1 2.7 3 2.8 3.1-2.8 3.1 2.8 3-13.6 3.1-.9 3 6.6 3.1 3.6 3.1 8.5 3 4.2 3.1 7.9 3 3.3 3.1 4.2 3.1 23.9 3 16.3 3.1 9.3 3 8.5 3.1 17.8 3.1 17.5 3 4.2 3.1 5.2 3 6.3 3.1 15.1 3.1 6.6 3 5.5 3.1 8.1 3 2.1 3.1 2.5 3.1 2.1 3 2.1 3.1 2.6 3 1.6 3.1 1.9 3-.1 3.1 1 3.1.1 3 .1 3.1.1 3 .5 3.1-.2 3.1.7 3 .6 3.1.7 3 .3 3.1 1.1 3.1.7 3 .4 3.1.4 3 .6 3.1.4 3.1.6 3 .3 3.1.3 3 .3 3.1.2h3.1l33.6-.4H657.4l3.1.3h6.1l3-.3h3.1l3.1-.3H688l3.1-.3h6.1l3-.3 3.1.3H718.6" fill="none" stroke-width="1"/></g><g><path stroke-linecap="round" stroke-linejoin="round" stroke="#ddd" d="m60.8 277 3.1-2.9 3-9.9 3.1 18.5 3.1 5.3 3-16 3.1 25.3 6.1-76.2 3.1-36.6 3 66.1 3.1-2.9 3-12.9 3.1 47.8 6.1 8.1 3.1-37.1 3-6.9 6.2 14.8 3 2.9 3.1.8 3 16.1 3.1-22.2 3 2.2 3.1 27.1 3.1.9 3-36.6 3.1-1.5 3 19.7 3.1.6 3.1-12.2 3 25.1 3.1-108.9 3 95.9 3.1-24.1 3.1 3.4 3-26.6 3.1 26.2 3-10.8 3.1 15.7 3.1 13.3 3 26.3 3.1-31.1 3 34.6 3.1-5.9 3.1-30.6 3 3.4 3.1 24.2 3 24.6 3.1-28.7 3.1 12.1 3-35.3 3.1-7.8 3 12.9 3.1-49.1 3.1-2.6 3 24 3.1-43.1 3 31.6 3.1 16.3 3 24.6 3.1-26.7 3.1 25.2 3-1.2 3.1 6.1 3-36.4h3.1l3.1-143.7 3 143.4 3.1 42.9 3-.4 6.2 20 3-11.6 6.1-82.4 3.1 49.8 3.1 24.9 3 12.3 3.1-28.9 3 10.2 3.1 45.4 3.1-4.7 3 13 3.1-15.3 3-38.2 3.1 9.4 3.1 16 3 29.7 3.1 20.1 3-3.6 3.1 12.9 3-20.2 3.1 41.9 3.1-20.2 3 16.7 3.1 7.2 3 15.6 3.1-24.6 3.1 3.4 3 10.7 3.1-7.4 3 20.1 3.1-10.6 3.1 15.2 3 6 3.1-5.5 3 3.2 3.1-7.9 3.1 13.2 3-16.1 3.1 16.5 3-6.8 3.1-5.4 3.1 21.2 3-7 3.1-4.5 3-19.3 3.1 12.7 3.1 12.3 3 9.1 3.1 8.1 3-1.7 3.1-11.6 3 16.1 3.1-7.9 3.1 7.1 3-1.3 3.1-17.6 3 9.7 3.1 7.9 3.1 2 3 13.1 3.1 4.4 3-1.6 3.1-91 3.1 11.9 3 22.1 3.1 8.6 3-22.7 3.1 40.2 3.1-24.9 3 4.2 3.1-9.3 3 12.4 3.1 40.8 3.1 15.8 3 12.7 3.1 5.2 3 2.9 3.1 7.3 3.1-1.1 3-2.4 3.1 7.9 3 .7 3.1-2 3 6.9 3.1-3.4 3.1 9.8 3-1.4 3.1 5.1 3 1 3.1.6 3.1 2.2 3 5 3.1-1.5 3 3.1 3.1-2.4 3.1 4.1 3 .9 3.1.3 3 .2 3.1.4 3.1.1 3 .3 3.1-.3 3 .8 3.1.1h3.1l33.6-.1h6.1l3.1.3h21.4l3.1.3H694.1l3.1.3h21.4" fill="none" stroke-width="1"/></g><g><path fill="none" stroke-linecap="butt" stroke-linejoin="round" stroke="#fff" stroke-width="2.5" d="m642.1 410 3.1 1.2 3 .9 3.1.9 3 .9 3.1.9 3.1.9 3 1.5 3.1 1.5 3 2.1 3.1 2.4 3.1 2.8 3 3 3.1 3.6 3 3.3 3.1 3.3 3.1 3.4 3 2.7 3.1 3 3 1.2 3.1 2.4 3.1 2.7 3 1.6 3.1 1.8 3 1.5 3.1 1.5"/><path stroke-linejoin="round" stroke-width="1.5" stroke="#b077b1" fill="none" stroke-linecap="butt" d="m642.1 410 3.1 1.2 3 .9 3.1.9 3 .9 3.1.9 3.1.9 3 1.5 3.1 1.5 3 2.1 3.1 2.4 3.1 2.8 3 3 3.1 3.6 3 3.3 3.1 3.3 3.1 3.4 3 2.7 3.1 3 3 1.2 3.1 2.4 3.1 2.7 3 1.6 3.1 1.8 3 1.5 3.1 1.5"/><g fill="#b077b1"><circle cx="642.1" cy="410" r="1.8"/><circle cx="645.2" cy="411.2" r="1.8"/><circle cx="648.2" cy="412.1" r="1.8"/><circle cx="651.3" cy="413" r="1.8"/><circle cx="654.3" cy="413.9" r="1.8"/><circle cx="657.4" cy="414.8" r="1.8"/><circle cx="660.5" cy="415.7" r="1.8"/><circle cx="663.5" cy="417.2" r="1.8"/><circle cx="666.6" cy="418.7" r="1.8"/><circle cx="669.6" cy="420.8" r="1.8"/><circle cx="672.7" cy="423.2" r="1.8"/><circle cx="675.8" cy="426" r="1.8"/><circle cx="678.8" cy="429" r="1.8"/><circle cx="681.9" cy="432.6" r="1.8"/><circle cx="684.9" cy="435.9" r="1.8"/><circle cx="688" cy="439.2" r="1.8"/><circle cx="691.1" cy="442.6" r="1.8"/><circle cx="694.1" cy="445.3" r="1.8"/><circle cx="697.2" cy="448.3" r="1.8"/><circle cx="700.2" cy="449.5" r="1.8"/><circle cx="703.3" cy="451.9" r="1.8"/><circle cx="706.4" cy="454.6" r="1.8"/><circle cx="709.4" cy="456.2" r="1.8"/><circle cx="712.5" cy="458" r="1.8"/><circle cx="715.5" cy="459.5" r="1.8"/><circle cx="718.6" cy="461" r="1.8"/></g></g><g><path fill="none" stroke-linecap="butt" stroke-linejoin="round" stroke="#fff" stroke-width="2.5" d="m366.8 269.6 3 15.1 3.1 18.1 3 12.1 3.1-27.2 3.1-3 3 27.1 3.1-3 3 15.1 3.1-9 3.1 3 3-3 3.1 15.1 3-9.1 3.1-9.1 3.1 30.8 3-4.2 3.1-12.1 3-76.7 3.1 54.1L428 285l3 35.3 3.1 5.4 3-.3 3.1 2.7 3 2.8 3.1-2.8 3.1 2.8 3-13.6 3.1-.9 3 6.6 3.1 3.6 3.1 8.5 3 4.2 3.1 7.9 3 3.3 3.1 4.2 3.1 23.9 3 16.3 3.1 9.3 3 8.5 3.1 17.8 3.1 17.5 3 4.2 3.1 5.2 3 6.3 3.1 15.1 3.1 6.6 3 5.5 3.1 8.1 3 2.1 3.1 2.5 3.1 2.1 3 2.1 3.1 2.6 3 1.6 3.1 1.9 3-.1 3.1 1 3.1.1 3 .1 3.1.1 3 .5 3.1-.2 3.1.7 3 .6 3.1.7 3 .3 3.1 1.1 3.1.7 3 .4 3.1.4 3 .6 3.1.4 3.1.6 3 .3 3.1.3 3 .3 3.1.2h3.1l33.6-.4H657.4l3.1.3h6.1l3-.3h3.1l3.1-.3H688l3.1-.3h6.1l3-.3 3.1.3H718.6"/><path stroke-linejoin="round" stroke-width="1.5" stroke="#df3c64" fill="none" stroke-linecap="butt" d="m366.8 269.6 3 15.1 3.1 18.1 3 12.1 3.1-27.2 3.1-3 3 27.1 3.1-3 3 15.1 3.1-9 3.1 3 3-3 3.1 15.1 3-9.1 3.1-9.1 3.1 30.8 3-4.2 3.1-12.1 3-76.7 3.1 54.1L428 285l3 35.3 3.1 5.4 3-.3 3.1 2.7 3 2.8 3.1-2.8 3.1 2.8 3-13.6 3.1-.9 3 6.6 3.1 3.6 3.1 8.5 3 4.2 3.1 7.9 3 3.3 3.1 4.2 3.1 23.9 3 16.3 3.1 9.3 3 8.5 3.1 17.8 3.1 17.5 3 4.2 3.1 5.2 3 6.3 3.1 15.1 3.1 6.6 3 5.5 3.1 8.1 3 2.1 3.1 2.5 3.1 2.1 3 2.1 3.1 2.6 3 1.6 3.1 1.9 3-.1 3.1 1 3.1.1 3 .1 3.1.1 3 .5 3.1-.2 3.1.7 3 .6 3.1.7 3 .3 3.1 1.1 3.1.7 3 .4 3.1.4 3 .6 3.1.4 3.1.6 3 .3 3.1.3 3 .3 3.1.2h3.1l33.6-.4H657.4l3.1.3h6.1l3-.3h3.1l3.1-.3H688l3.1-.3h6.1l3-.3 3.1.3H718.6"/><g fill="#df3c64"><circle cx="366.8" cy="269.6" r="1.8"/><circle cx="369.8" cy="284.7" r="1.8"/><circle cx="372.9" cy="302.8" r="1.8"/><circle cx="375.9" cy="314.9" r="1.8"/><circle cx="379" cy="287.7" r="1.8"/><circle cx="382.1" cy="284.7" r="1.8"/><circle cx="385.1" cy="311.8" r="1.8"/><circle cx="388.2" cy="308.8" r="1.8"/><circle cx="391.2" cy="323.9" r="1.8"/><circle cx="394.3" cy="314.9" r="1.8"/><circle cx="397.4" cy="317.9" r="1.8"/><circle cx="400.4" cy="314.9" r="1.8"/><circle cx="403.5" cy="330" r="1.8"/><circle cx="406.5" cy="320.9" r="1.8"/><circle cx="409.6" cy="311.8" r="1.8"/><circle cx="412.7" cy="342.6" r="1.8"/><circle cx="415.7" cy="338.4" r="1.8"/><circle cx="418.8" cy="326.3" r="1.8"/><circle cx="421.8" cy="249.6" r="1.8"/><circle cx="424.9" cy="303.7" r="1.8"/><circle cx="428" cy="285" r="1.8"/><circle cx="431" cy="320.3" r="1.8"/><circle cx="434.1" cy="325.7" r="1.8"/><circle cx="437.1" cy="325.4" r="1.8"/><circle cx="440.2" cy="328.1" r="1.8"/><circle cx="443.2" cy="330.9" r="1.8"/><circle cx="446.3" cy="328.1" r="1.8"/><circle cx="449.4" cy="330.9" r="1.8"/><circle cx="452.4" cy="317.3" r="1.8"/><circle cx="455.5" cy="316.4" r="1.8"/><circle cx="458.5" cy="323" r="1.8"/><circle cx="461.6" cy="326.6" r="1.8"/><circle cx="464.7" cy="335.1" r="1.8"/><circle cx="467.7" cy="339.3" r="1.8"/><circle cx="470.8" cy="347.2" r="1.8"/><circle cx="473.8" cy="350.5" r="1.8"/><circle cx="476.9" cy="354.7" r="1.8"/><circle cx="480" cy="378.6" r="1.8"/><circle cx="483" cy="394.9" r="1.8"/><circle cx="486.1" cy="404.2" r="1.8"/><circle cx="489.1" cy="412.7" r="1.8"/><circle cx="492.2" cy="430.5" r="1.8"/><circle cx="495.3" cy="448" r="1.8"/><circle cx="498.3" cy="452.2" r="1.8"/><circle cx="501.4" cy="457.4" r="1.8"/><circle cx="504.4" cy="463.7" r="1.8"/><circle cx="507.5" cy="478.8" r="1.8"/><circle cx="510.6" cy="485.4" r="1.8"/><circle cx="513.6" cy="490.9" r="1.8"/><circle cx="516.7" cy="499" r="1.8"/><circle cx="519.7" cy="501.1" r="1.8"/><circle cx="522.8" cy="503.6" r="1.8"/><circle cx="525.9" cy="505.7" r="1.8"/><circle cx="528.9" cy="507.8" r="1.8"/><circle cx="532" cy="510.4" r="1.8"/><circle cx="535" cy="512" r="1.8"/><circle cx="538.1" cy="513.9" r="1.8"/><circle cx="541.1" cy="513.8" r="1.8"/><circle cx="544.2" cy="514.8" r="1.8"/><circle cx="547.3" cy="514.9" r="1.8"/><circle cx="550.3" cy="515" r="1.8"/><circle cx="553.4" cy="515.1" r="1.8"/><circle cx="556.4" cy="515.6" r="1.8"/><circle cx="559.5" cy="515.4" r="1.8"/><circle cx="562.6" cy="516.1" r="1.8"/><circle cx="565.6" cy="516.7" r="1.8"/><circle cx="568.7" cy="517.4" r="1.8"/><circle cx="571.7" cy="517.7" r="1.8"/><circle cx="574.8" cy="518.8" r="1.8"/><circle cx="577.9" cy="519.5" r="1.8"/><circle cx="580.9" cy="519.9" r="1.8"/><circle cx="584" cy="520.3" r="1.8"/><circle cx="587" cy="520.9" r="1.8"/><circle cx="590.1" cy="521.3" r="1.8"/><circle cx="593.2" cy="521.9" r="1.8"/><circle cx="596.2" cy="522.2" r="1.8"/><circle cx="599.3" cy="522.5" r="1.8"/><circle cx="602.3" cy="522.8" r="1.8"/><circle cx="605.4" cy="523" r="1.8"/><circle cx="608.5" cy="523" r="1.8"/><circle cx="642.1" cy="522.6" r="1.8"/><circle cx="645.2" cy="522.6" r="1.8"/><circle cx="648.2" cy="522.6" r="1.8"/><circle cx="651.3" cy="522.6" r="1.8"/><circle cx="654.3" cy="522.6" r="1.8"/><circle cx="657.4" cy="522.6" r="1.8"/><circle cx="660.5" cy="522.9" r="1.8"/><circle cx="663.5" cy="522.9" r="1.8"/><circle cx="666.6" cy="522.9" r="1.8"/><circle cx="669.6" cy="522.6" r="1.8"/><circle cx="672.7" cy="522.6" r="1.8"/><circle cx="675.8" cy="522.3" r="1.8"/><circle cx="678.8" cy="522.3" r="1.8"/><circle cx="681.9" cy="522.3" r="1.8"/><circle cx="684.9" cy="522.3" r="1.8"/><circle cx="688" cy="522.3" r="1.8"/><circle cx="691.1" cy="522" r="1.8"/><circle cx="694.1" cy="522" r="1.8"/><circle cx="697.2" cy="522" r="1.8"/><circle cx="700.2" cy="521.7" r="1.8"/><circle cx="703.3" cy="522" r="1.8"/><circle cx="706.4" cy="522" r="1.8"/><circle cx="709.4" cy="522" r="1.8"/><circle cx="712.5" cy="522" r="1.8"/><circle cx="715.5" cy="522" r="1.8"/><circle cx="718.6" cy="522" r="1.8"/></g></g><g><path fill="none" stroke-linecap="butt" stroke-linejoin="round" stroke="#fff" stroke-width="2.5" d="m60.8 277 3.1-2.9 3-9.9 3.1 18.5 3.1 5.3 3-16 3.1 25.3 6.1-76.2 3.1-36.6 3 66.1 3.1-2.9 3-12.9 3.1 47.8 6.1 8.1 3.1-37.1 3-6.9 6.2 14.8 3 2.9 3.1.8 3 16.1 3.1-22.2 3 2.2 3.1 27.1 3.1.9 3-36.6 3.1-1.5 3 19.7 3.1.6 3.1-12.2 3 25.1 3.1-108.9 3 95.9 3.1-24.1 3.1 3.4 3-26.6 3.1 26.2 3-10.8 3.1 15.7 3.1 13.3 3 26.3 3.1-31.1 3 34.6 3.1-5.9 3.1-30.6 3 3.4 3.1 24.2 3 24.6 3.1-28.7 3.1 12.1 3-35.3 3.1-7.8 3 12.9 3.1-49.1 3.1-2.6 3 24 3.1-43.1 3 31.6 3.1 16.3 3 24.6 3.1-26.7 3.1 25.2 3-1.2 3.1 6.1 3-36.4h3.1l3.1-143.7 3 143.4 3.1 42.9 3-.4 6.2 20 3-11.6 6.1-82.4 3.1 49.8 3.1 24.9 3 12.3 3.1-28.9 3 10.2 3.1 45.4 3.1-4.7 3 13 3.1-15.3 3-38.2 3.1 9.4 3.1 16 3 29.7 3.1 20.1 3-3.6 3.1 12.9 3-20.2 3.1 41.9 3.1-20.2 3 16.7 3.1 7.2 3 15.6 3.1-24.6 3.1 3.4 3 10.7 3.1-7.4 3 20.1 3.1-10.6 3.1 15.2 3 6 3.1-5.5 3 3.2 3.1-7.9 3.1 13.2 3-16.1 3.1 16.5 3-6.8 3.1-5.4 3.1 21.2 3-7 3.1-4.5 3-19.3 3.1 12.7 3.1 12.3 3 9.1 3.1 8.1 3-1.7 3.1-11.6 3 16.1 3.1-7.9 3.1 7.1 3-1.3 3.1-17.6 3 9.7 3.1 7.9 3.1 2 3 13.1 3.1 4.4 3-1.6 3.1-91 3.1 11.9 3 22.1 3.1 8.6 3-22.7 3.1 40.2 3.1-24.9 3 4.2 3.1-9.3 3 12.4 3.1 40.8 3.1 15.8 3 12.7 3.1 5.2 3 2.9 3.1 7.3 3.1-1.1 3-2.4 3.1 7.9 3 .7 3.1-2 3 6.9 3.1-3.4 3.1 9.8 3-1.4 3.1 5.1 3 1 3.1.6 3.1 2.2 3 5 3.1-1.5 3 3.1 3.1-2.4 3.1 4.1 3 .9 3.1.3 3 .2 3.1.4 3.1.1 3 .3 3.1-.3 3 .8 3.1.1h3.1l33.6-.1h6.1l3.1.3h21.4l3.1.3H694.1l3.1.3h21.4"/><path stroke-linejoin="round" stroke-width="1.5" stroke="#3C4E66" fill="none" stroke-linecap="butt" d="m60.8 277 3.1-2.9 3-9.9 3.1 18.5 3.1 5.3 3-16 3.1 25.3 6.1-76.2 3.1-36.6 3 66.1 3.1-2.9 3-12.9 3.1 47.8 6.1 8.1 3.1-37.1 3-6.9 6.2 14.8 3 2.9 3.1.8 3 16.1 3.1-22.2 3 2.2 3.1 27.1 3.1.9 3-36.6 3.1-1.5 3 19.7 3.1.6 3.1-12.2 3 25.1 3.1-108.9 3 95.9 3.1-24.1 3.1 3.4 3-26.6 3.1 26.2 3-10.8 3.1 15.7 3.1 13.3 3 26.3 3.1-31.1 3 34.6 3.1-5.9 3.1-30.6 3 3.4 3.1 24.2 3 24.6 3.1-28.7 3.1 12.1 3-35.3 3.1-7.8 3 12.9 3.1-49.1 3.1-2.6 3 24 3.1-43.1 3 31.6 3.1 16.3 3 24.6 3.1-26.7 3.1 25.2 3-1.2 3.1 6.1 3-36.4h3.1l3.1-143.7 3 143.4 3.1 42.9 3-.4 6.2 20 3-11.6 6.1-82.4 3.1 49.8 3.1 24.9 3 12.3 3.1-28.9 3 10.2 3.1 45.4 3.1-4.7 3 13 3.1-15.3 3-38.2 3.1 9.4 3.1 16 3 29.7 3.1 20.1 3-3.6 3.1 12.9 3-20.2 3.1 41.9 3.1-20.2 3 16.7 3.1 7.2 3 15.6 3.1-24.6 3.1 3.4 3 10.7 3.1-7.4 3 20.1 3.1-10.6 3.1 15.2 3 6 3.1-5.5 3 3.2 3.1-7.9 3.1 13.2 3-16.1 3.1 16.5 3-6.8 3.1-5.4 3.1 21.2 3-7 3.1-4.5 3-19.3 3.1 12.7 3.1 12.3 3 9.1 3.1 8.1 3-1.7 3.1-11.6 3 16.1 3.1-7.9 3.1 7.1 3-1.3 3.1-17.6 3 9.7 3.1 7.9 3.1 2 3 13.1 3.1 4.4 3-1.6 3.1-91 3.1 11.9 3 22.1 3.1 8.6 3-22.7 3.1 40.2 3.1-24.9 3 4.2 3.1-9.3 3 12.4 3.1 40.8 3.1 15.8 3 12.7 3.1 5.2 3 2.9 3.1 7.3 3.1-1.1 3-2.4 3.1 7.9 3 .7 3.1-2 3 6.9 3.1-3.4 3.1 9.8 3-1.4 3.1 5.1 3 1 3.1.6 3.1 2.2 3 5 3.1-1.5 3 3.1 3.1-2.4 3.1 4.1 3 .9 3.1.3 3 .2 3.1.4 3.1.1 3 .3 3.1-.3 3 .8 3.1.1h3.1l33.6-.1h6.1l3.1.3h21.4l3.1.3H694.1l3.1.3h21.4"/><g fill="#3C4E66"><circle cx="60.8" cy="277" r="1.8"/><circle cx="63.9" cy="274.1" r="1.8"/><circle cx="66.9" cy="264.2" r="1.8"/><circle cx="70" cy="282.7" r="1.8"/><circle cx="73.1" cy="288" r="1.8"/><circle cx="76.1" cy="272" r="1.8"/><circle cx="79.2" cy="297.3" r="1.8"/><circle cx="85.3" cy="221.1" r="1.8"/><circle cx="88.4" cy="184.5" r="1.8"/><circle cx="91.4" cy="250.6" r="1.8"/><circle cx="94.5" cy="247.7" r="1.8"/><circle cx="97.5" cy="234.8" r="1.8"/><circle cx="100.6" cy="282.6" r="1.8"/><circle cx="106.7" cy="290.7" r="1.8"/><circle cx="109.8" cy="253.6" r="1.8"/><circle cx="112.8" cy="246.7" r="1.8"/><circle cx="119" cy="261.5" r="1.8"/><circle cx="122" cy="264.4" r="1.8"/><circle cx="125.1" cy="265.2" r="1.8"/><circle cx="128.1" cy="281.3" r="1.8"/><circle cx="131.2" cy="259.1" r="1.8"/><circle cx="134.2" cy="261.3" r="1.8"/><circle cx="137.3" cy="288.4" r="1.8"/><circle cx="140.4" cy="289.3" r="1.8"/><circle cx="143.4" cy="252.7" r="1.8"/><circle cx="146.5" cy="251.2" r="1.8"/><circle cx="149.5" cy="270.9" r="1.8"/><circle cx="152.6" cy="271.5" r="1.8"/><circle cx="155.7" cy="259.3" r="1.8"/><circle cx="158.7" cy="284.4" r="1.8"/><circle cx="161.8" cy="175.5" r="1.8"/><circle cx="164.8" cy="271.4" r="1.8"/><circle cx="167.9" cy="247.3" r="1.8"/><circle cx="171" cy="250.7" r="1.8"/><circle cx="174" cy="224.1" r="1.8"/><circle cx="177.1" cy="250.3" r="1.8"/><circle cx="180.1" cy="239.5" r="1.8"/><circle cx="183.2" cy="255.2" r="1.8"/><circle cx="186.3" cy="268.5" r="1.8"/><circle cx="189.3" cy="294.8" r="1.8"/><circle cx="192.4" cy="263.7" r="1.8"/><circle cx="195.4" cy="298.3" r="1.8"/><circle cx="198.5" cy="292.4" r="1.8"/><circle cx="201.6" cy="261.8" r="1.8"/><circle cx="204.6" cy="265.2" r="1.8"/><circle cx="207.7" cy="289.4" r="1.8"/><circle cx="210.7" cy="314" r="1.8"/><circle cx="213.8" cy="285.3" r="1.8"/><circle cx="216.9" cy="297.4" r="1.8"/><circle cx="219.9" cy="262.1" r="1.8"/><circle cx="223" cy="254.3" r="1.8"/><circle cx="226" cy="267.2" r="1.8"/><circle cx="229.1" cy="218.1" r="1.8"/><circle cx="232.2" cy="215.5" r="1.8"/><circle cx="235.2" cy="239.5" r="1.8"/><circle cx="238.3" cy="196.4" r="1.8"/><circle cx="241.3" cy="228" r="1.8"/><circle cx="244.4" cy="244.3" r="1.8"/><circle cx="247.4" cy="268.9" r="1.8"/><circle cx="250.5" cy="242.2" r="1.8"/><circle cx="253.6" cy="267.4" r="1.8"/><circle cx="256.6" cy="266.2" r="1.8"/><circle cx="259.7" cy="272.3" r="1.8"/><circle cx="262.7" cy="235.9" r="1.8"/><circle cx="265.8" cy="235.9" r="1.8"/><circle cx="268.9" cy="92.2" r="1.8"/><circle cx="271.9" cy="235.6" r="1.8"/><circle cx="275" cy="278.5" r="1.8"/><circle cx="278" cy="278.1" r="1.8"/><circle cx="284.2" cy="298.1" r="1.8"/><circle cx="287.2" cy="286.5" r="1.8"/><circle cx="293.3" cy="204.1" r="1.8"/><circle cx="296.4" cy="253.9" r="1.8"/><circle cx="299.5" cy="278.8" r="1.8"/><circle cx="302.5" cy="291.1" r="1.8"/><circle cx="305.6" cy="262.2" r="1.8"/><circle cx="308.6" cy="272.4" r="1.8"/><circle cx="311.7" cy="317.8" r="1.8"/><circle cx="314.8" cy="313.1" r="1.8"/><circle cx="317.8" cy="326.1" r="1.8"/><circle cx="320.9" cy="310.8" r="1.8"/><circle cx="323.9" cy="272.6" r="1.8"/><circle cx="327" cy="282" r="1.8"/><circle cx="330.1" cy="298" r="1.8"/><circle cx="333.1" cy="327.7" r="1.8"/><circle cx="336.2" cy="347.8" r="1.8"/><circle cx="339.2" cy="344.2" r="1.8"/><circle cx="342.3" cy="357.1" r="1.8"/><circle cx="345.3" cy="336.9" r="1.8"/><circle cx="348.4" cy="378.8" r="1.8"/><circle cx="351.5" cy="358.6" r="1.8"/><circle cx="354.5" cy="375.3" r="1.8"/><circle cx="357.6" cy="382.5" r="1.8"/><circle cx="360.6" cy="398.1" r="1.8"/><circle cx="363.7" cy="373.5" r="1.8"/><circle cx="366.8" cy="376.9" r="1.8"/><circle cx="369.8" cy="387.6" r="1.8"/><circle cx="372.9" cy="380.2" r="1.8"/><circle cx="375.9" cy="400.3" r="1.8"/><circle cx="379" cy="389.7" r="1.8"/><circle cx="382.1" cy="404.9" r="1.8"/><circle cx="385.1" cy="410.9" r="1.8"/><circle cx="388.2" cy="405.4" r="1.8"/><circle cx="391.2" cy="408.6" r="1.8"/><circle cx="394.3" cy="400.7" r="1.8"/><circle cx="397.4" cy="413.9" r="1.8"/><circle cx="400.4" cy="397.8" r="1.8"/><circle cx="403.5" cy="414.3" r="1.8"/><circle cx="406.5" cy="407.5" r="1.8"/><circle cx="409.6" cy="402.1" r="1.8"/><circle cx="412.7" cy="423.3" r="1.8"/><circle cx="415.7" cy="416.3" r="1.8"/><circle cx="418.8" cy="411.8" r="1.8"/><circle cx="421.8" cy="392.5" r="1.8"/><circle cx="424.9" cy="405.2" r="1.8"/><circle cx="428" cy="417.5" r="1.8"/><circle cx="431" cy="426.6" r="1.8"/><circle cx="434.1" cy="434.7" r="1.8"/><circle cx="437.1" cy="433" r="1.8"/><circle cx="440.2" cy="421.4" r="1.8"/><circle cx="443.2" cy="437.5" r="1.8"/><circle cx="446.3" cy="429.6" r="1.8"/><circle cx="449.4" cy="436.7" r="1.8"/><circle cx="452.4" cy="435.4" r="1.8"/><circle cx="455.5" cy="417.8" r="1.8"/><circle cx="458.5" cy="427.5" r="1.8"/><circle cx="461.6" cy="435.4" r="1.8"/><circle cx="464.7" cy="437.4" r="1.8"/><circle cx="467.7" cy="450.5" r="1.8"/><circle cx="470.8" cy="454.9" r="1.8"/><circle cx="473.8" cy="453.3" r="1.8"/><circle cx="476.9" cy="362.3" r="1.8"/><circle cx="480" cy="374.2" r="1.8"/><circle cx="483" cy="396.3" r="1.8"/><circle cx="486.1" cy="404.9" r="1.8"/><circle cx="489.1" cy="382.2" r="1.8"/><circle cx="492.2" cy="422.4" r="1.8"/><circle cx="495.3" cy="397.5" r="1.8"/><circle cx="498.3" cy="401.7" r="1.8"/><circle cx="501.4" cy="392.4" r="1.8"/><circle cx="504.4" cy="404.8" r="1.8"/><circle cx="507.5" cy="445.6" r="1.8"/><circle cx="510.6" cy="461.4" r="1.8"/><circle cx="513.6" cy="474.1" r="1.8"/><circle cx="516.7" cy="479.3" r="1.8"/><circle cx="519.7" cy="482.2" r="1.8"/><circle cx="522.8" cy="489.5" r="1.8"/><circle cx="525.9" cy="488.4" r="1.8"/><circle cx="528.9" cy="486" r="1.8"/><circle cx="532" cy="493.9" r="1.8"/><circle cx="535" cy="494.6" r="1.8"/><circle cx="538.1" cy="492.6" r="1.8"/><circle cx="541.1" cy="499.5" r="1.8"/><circle cx="544.2" cy="496.1" r="1.8"/><circle cx="547.3" cy="505.9" r="1.8"/><circle cx="550.3" cy="504.5" r="1.8"/><circle cx="553.4" cy="509.6" r="1.8"/><circle cx="556.4" cy="510.6" r="1.8"/><circle cx="559.5" cy="511.2" r="1.8"/><circle cx="562.6" cy="513.4" r="1.8"/><circle cx="565.6" cy="518.4" r="1.8"/><circle cx="568.7" cy="516.9" r="1.8"/><circle cx="571.7" cy="520" r="1.8"/><circle cx="574.8" cy="517.6" r="1.8"/><circle cx="577.9" cy="521.7" r="1.8"/><circle cx="580.9" cy="522.6" r="1.8"/><circle cx="584" cy="522.9" r="1.8"/><circle cx="587" cy="523.1" r="1.8"/><circle cx="590.1" cy="523.5" r="1.8"/><circle cx="593.2" cy="523.6" r="1.8"/><circle cx="596.2" cy="523.9" r="1.8"/><circle cx="599.3" cy="523.6" r="1.8"/><circle cx="602.3" cy="524.4" r="1.8"/><circle cx="605.4" cy="524.5" r="1.8"/><circle cx="608.5" cy="524.5" r="1.8"/><circle cx="642.1" cy="524.4" r="1.8"/><circle cx="645.2" cy="524.4" r="1.8"/><circle cx="648.2" cy="524.4" r="1.8"/><circle cx="651.3" cy="524.7" r="1.8"/><circle cx="654.3" cy="524.7" r="1.8"/><circle cx="657.4" cy="524.7" r="1.8"/><circle cx="660.5" cy="524.7" r="1.8"/><circle cx="663.5" cy="524.7" r="1.8"/><circle cx="666.6" cy="524.7" r="1.8"/><circle cx="669.6" cy="524.7" r="1.8"/><circle cx="672.7" cy="524.7" r="1.8"/><circle cx="675.8" cy="525" r="1.8"/><circle cx="678.8" cy="525" r="1.8"/><circle cx="681.9" cy="525" r="1.8"/><circle cx="684.9" cy="525" r="1.8"/><circle cx="688" cy="525" r="1.8"/><circle cx="691.1" cy="525" r="1.8"/><circle cx="694.1" cy="525" r="1.8"/><circle cx="697.2" cy="525.3" r="1.8"/><circle cx="700.2" cy="525.3" r="1.8"/><circle cx="703.3" cy="525.3" r="1.8"/><circle cx="706.4" cy="525.3" r="1.8"/><circle cx="709.4" cy="525.3" r="1.8"/><circle cx="712.5" cy="525.3" r="1.8"/><circle cx="715.5" cy="525.3" r="1.8"/><circle cx="718.6" cy="525.3" r="1.8"/></g></g></g></g></g><g class="SourcesFooter" style="fill:#777"><g style="fill:#777"><text font-size="12.6" x="15" y="582.5"><tspan x="15" y="582.48">Source: Gapminder (2010) and World Bank (2015)</tspan></text></g><text font-size="12.6" x="565.6" y="582.5"><tspan x="565.61" y="582.48"><a target="_blank" style="fill:#777" href="https://ourworldindata.org/maternal-mortality">OurWorldInData.org/maternal-mortality</a> • <a style="fill:#777" class="cclogo" href="http://creativecommons.org/licenses/by/4.0/deed.en_US" target="_blank">CC BY</a></tspan></text></g></svg>