<svg xmlns="http://www.w3.org/2000/svg" version="1.1" style="font-family:Lato,'Helvetica Neue',Helvetica,Arial,sans-serif;font-size:18px;background-color:#fff;text-rendering:geometricPrecision;-webkit-font-smoothing:antialiased" width="850" height="600" viewBox="0 0 850 600"><g class="HeaderView"><g transform="matrix(.29 0 0 .29 774 15)"><svg className="owidLog" width="210" height="120" viewBox="0 0 210 120" fill="none" xmlns="http://www.w3.org/2000/svg"><g clip-path="url(#a)"><path d="M0 0h210v107.89H0V0z" fill="#002147"/><path d="M40.98 32.25c0 2.36-.38 4.53-1.12 6.51a14.26 14.26 0 0 1-8.1 8.4c-1.9.78-4.02 1.17-6.34 1.17a16.6 16.6 0 0 1-6.33-1.17 14.31 14.31 0 0 1-8.08-8.4 18.29 18.29 0 0 1-1.12-6.51c0-2.36.38-4.53 1.12-6.5.75-1.97 1.8-3.67 3.17-5.1a14.32 14.32 0 0 1 4.9-3.34c1.92-.8 4.03-1.19 6.34-1.19 2.32 0 4.43.4 6.34 1.19 1.92.8 3.56 1.9 4.93 3.34a14.87 14.87 0 0 1 3.17 5.1 18.1 18.1 0 0 1 1.12 6.5zm-4.38 0c0-1.94-.26-3.68-.8-5.22a10.91 10.91 0 0 0-2.24-3.89 9.68 9.68 0 0 0-3.52-2.46 11.95 11.95 0 0 0-4.62-.86c-1.68 0-3.21.28-4.6.86a9.88 9.88 0 0 0-3.54 2.46 10.91 10.91 0 0 0-2.24 3.9c-.53 1.53-.8 3.27-.8 5.2 0 1.94.27 3.68.8 5.22a11.17 11.17 0 0 0 2.24 3.9 10.01 10.01 0 0 0 3.55 2.44c1.38.56 2.9.83 4.6.83s3.24-.27 4.61-.83a9.8 9.8 0 0 0 3.52-2.44 11.17 11.17 0 0 0 2.25-3.9c.53-1.54.8-3.28.8-5.21zm26.22-6.54V48H60.5c-.56 0-.9-.27-1.05-.81l-.31-2.4a12.45 12.45 0 0 1-3.26 2.6c-1.2.64-2.58.96-4.13.96-1.22 0-2.3-.2-3.24-.6a6.52 6.52 0 0 1-2.33-1.7 7.37 7.37 0 0 1-1.43-2.67c-.3-1.04-.46-2.2-.46-3.45V25.7h3.91v14.22c0 1.68.38 2.99 1.15 3.91.77.93 1.96 1.39 3.54 1.39 1.16 0 2.24-.27 3.23-.82a10.42 10.42 0 0 0 2.8-2.28V25.7h3.91zm8.61 4.47a9.94 9.94 0 0 1 2.6-3.56 5.64 5.64 0 0 1 3.76-1.3c.47 0 .92.05 1.34.15.44.1.83.27 1.17.49l-.3 2.92c-.09.37-.3.55-.66.55-.2 0-.5-.04-.9-.13a6.21 6.21 0 0 0-3.24.18 4.23 4.23 0 0 0-1.47.92c-.42.4-.81.9-1.17 1.5-.33.58-.64 1.26-.92 2.02V48H67.7V25.71h2.25c.42 0 .72.08.88.25.16.16.27.44.33.83l.26 3.39zm61.16-13.7L122.75 48h-3.82l-7.99-24.05a21.95 21.95 0 0 1-.42-1.58 38.36 38.36 0 0 1-.44 1.58L102.05 48h-3.83L88.4 16.47h3.54c.38 0 .7.1.95.29.26.2.43.43.5.73l6.52 21.9.28 1.28.29 1.46.3-1.46.38-1.27 7.41-21.91c.1-.25.26-.48.51-.69.27-.22.58-.33.95-.33h1.23c.38 0 .69.1.92.29a1.77 1.77 0 0 1 .53.73l7.4 21.9a28.4 28.4 0 0 1 .68 2.62 29.52 29.52 0 0 1 .52-2.61l6.54-21.91a1.31 1.31 0 0 1 .48-.7c.27-.21.58-.32.95-.32h3.32zm9.35 8.88c1.63 0 3.1.27 4.4.82a9.43 9.43 0 0 1 5.46 5.94c.5 1.4.74 2.98.74 4.73 0 1.76-.25 3.34-.74 4.75a9.43 9.43 0 0 1-5.46 5.92c-1.3.52-2.77.79-4.4.79-1.64 0-3.12-.27-4.44-.8a9.42 9.42 0 0 1-3.35-2.3c-.92-1-1.63-2.2-2.13-3.61-.49-1.41-.73-3-.73-4.75s.24-3.33.73-4.73c.5-1.43 1.2-2.64 2.13-3.63a9.4 9.4 0 0 1 3.35-2.31c1.32-.55 2.8-.82 4.44-.82zm0 19.89c2.2 0 3.84-.73 4.93-2.2 1.08-1.48 1.63-3.54 1.63-6.18 0-2.66-.55-4.72-1.63-6.2-1.09-1.49-2.73-2.23-4.93-2.23-1.12 0-2.09.2-2.93.57a5.71 5.71 0 0 0-2.06 1.65 7.5 7.5 0 0 0-1.24 2.67c-.26 1.04-.4 2.22-.4 3.54 0 2.64.55 4.7 1.64 6.18 1.1 1.47 2.76 2.2 4.99 2.2zm17.97-15.07a9.94 9.94 0 0 1 2.6-3.56 5.64 5.64 0 0 1 3.76-1.3c.47 0 .91.05 1.34.15.44.1.83.27 1.16.49l-.28 2.92c-.09.37-.31.55-.66.55-.2 0-.5-.04-.9-.13a6.2 6.2 0 0 0-3.24.18 4.23 4.23 0 0 0-1.47.92c-.43.4-.82.9-1.17 1.5a13.1 13.1 0 0 0-.92 2.02V48h-3.94V25.71h2.24c.43 0 .72.08.88.25.17.16.28.44.33.83l.27 3.39zm15.04-14.59V48h-3.92V15.6h3.92zm19.55 15.43a6.22 6.22 0 0 0-2.38-2.05 6.7 6.7 0 0 0-2.86-.6c-2.07 0-3.66.75-4.77 2.23-1.12 1.48-1.68 3.6-1.68 6.33 0 1.46.13 2.7.38 3.74a7.29 7.29 0 0 0 1.1 2.56 4.35 4.35 0 0 0 1.78 1.45c.7.3 1.5.46 2.4.46 1.29 0 2.41-.3 3.36-.88a9.6 9.6 0 0 0 2.67-2.49V31.02zm3.91-15.43V48h-2.33c-.56 0-.9-.27-1.06-.81l-.35-2.71a12.13 12.13 0 0 1-3.25 2.77 8.28 8.28 0 0 1-4.23 1.06 7.31 7.31 0 0 1-6.14-2.9c-.73-.96-1.3-2.15-1.69-3.57a18.35 18.35 0 0 1 .07-9.48 11.29 11.29 0 0 1 1.89-3.7 8.7 8.7 0 0 1 7.06-3.34 7.96 7.96 0 0 1 6.12 2.62V15.59h3.91zM46.61 70.71V93H42.7V70.71h3.91zm.84-7c0 .39-.08.75-.24 1.09a2.81 2.81 0 0 1-1.52 1.47 2.67 2.67 0 0 1-2.16 0 2.9 2.9 0 0 1-1.45-1.47 2.67 2.67 0 0 1 0-2.16c.15-.35.35-.65.6-.9.25-.27.53-.47.85-.62a2.67 2.67 0 0 1 2.16 0c.35.15.65.35.9.62.27.25.47.55.62.9.16.34.24.7.24 1.08zm7.97 10.24c.49-.54 1-1.04 1.54-1.48a9.85 9.85 0 0 1 3.66-1.84 8.96 8.96 0 0 1 5.43.35c.94.4 1.72.97 2.33 1.71a7.36 7.36 0 0 1 1.43 2.67c.32 1.04.49 2.19.49 3.45V93h-3.94V78.81c0-1.69-.4-3-1.17-3.92-.76-.93-1.93-1.4-3.5-1.4a6.6 6.6 0 0 0-3.25.83c-1 .56-1.92 1.31-2.77 2.27V93h-3.94V70.71h2.35c.56 0 .9.28 1.04.82l.3 2.42zm57.7 3.3c0 2.36-.37 4.5-1.11 6.44a14.3 14.3 0 0 1-3.17 4.98 14.1 14.1 0 0 1-4.93 3.2c-1.9.76-4.02 1.13-6.33 1.13H85.8V61.47h11.77c2.31 0 4.42.39 6.33 1.15a13.8 13.8 0 0 1 8.1 8.18 17.75 17.75 0 0 1 1.12 6.45zm-4.37 0c0-1.94-.26-3.67-.8-5.2a10.94 10.94 0 0 0-2.23-3.87 9.57 9.57 0 0 0-3.53-2.42 12.23 12.23 0 0 0-4.61-.83h-7.5v24.62h7.5c1.7 0 3.24-.28 4.61-.84a9.7 9.7 0 0 0 3.53-2.4 10.94 10.94 0 0 0 2.24-3.87c.53-1.53.8-3.26.8-5.2zm19.8 5.72c-1.8.06-3.34.2-4.62.44-1.26.22-2.3.51-3.1.88-.8.36-1.37.8-1.74 1.3-.35.5-.53 1.05-.53 1.67 0 .58.1 1.1.3 1.52a3 3 0 0 0 .76 1.05c.34.27.73.46 1.17.6a6.13 6.13 0 0 0 1.45.17 7.28 7.28 0 0 0 3.5-.81 11.95 11.95 0 0 0 2.82-2.2v-4.62zm-12.65-9.11a12.73 12.73 0 0 1 3.98-2.66c1.43-.59 3-.88 4.73-.88 1.25 0 2.36.2 3.33.61a6.81 6.81 0 0 1 3.94 4.38c.33 1.04.5 2.19.5 3.43V93h-1.74a1.8 1.8 0 0 1-.88-.18c-.2-.13-.36-.38-.48-.74l-.44-2.12-1.72 1.46a9.48 9.48 0 0 1-3.74 1.7c-.69.15-1.46.23-2.3.23-.87 0-1.69-.12-2.45-.35a5.34 5.34 0 0 1-3.34-2.93 6.64 6.64 0 0 1-.49-2.64c0-.88.25-1.72.73-2.53a6.33 6.33 0 0 1 2.35-2.17c1.09-.63 2.5-1.15 4.25-1.54 1.75-.41 3.89-.65 6.42-.7v-1.75c0-1.73-.37-3.03-1.12-3.91-.75-.9-1.84-1.34-3.28-1.34-.97 0-1.78.12-2.44.37-.64.23-1.2.5-1.7.81l-1.23.82c-.33.23-.67.35-1 .35-.27 0-.5-.07-.69-.2a2.1 2.1 0 0 1-.48-.53l-.7-1.25zm27.67 19.5c-1.76 0-3.12-.5-4.07-1.48-.94-.98-1.41-2.4-1.41-4.25V74h-2.68a.9.9 0 0 1-.6-.2c-.16-.14-.24-.36-.24-.66v-1.56l3.65-.46.9-6.89a.9.9 0 0 1 .29-.52.88.88 0 0 1 .62-.22H142v7.67h6.44V74H142v13.38c0 .94.22 1.63.68 2.09.45.45 1.04.68 1.76.68a3.21 3.21 0 0 0 1.85-.53l.55-.35c.16-.12.3-.18.41-.18.2 0 .4.13.55.38l1.15 1.87a7.45 7.45 0 0 1-2.44 1.5 8.53 8.53 0 0 1-2.95.52zm19.68-10.4c-1.8.07-3.34.21-4.62.45-1.26.22-2.3.51-3.1.88-.8.36-1.37.8-1.74 1.3-.35.5-.53 1.05-.53 1.67 0 .58.1 1.1.3 1.52a2.9 2.9 0 0 0 .76 1.05c.34.27.73.46 1.17.6a6.13 6.13 0 0 0 1.45.17 7.3 7.3 0 0 0 3.5-.81 12.04 12.04 0 0 0 2.82-2.2v-4.62zm-12.65-9.1a12.72 12.72 0 0 1 3.99-2.66c1.42-.59 3-.88 4.72-.88 1.25 0 2.36.2 3.33.61a6.81 6.81 0 0 1 3.94 4.38c.33 1.04.5 2.19.5 3.43V93h-1.74a1.8 1.8 0 0 1-.88-.18c-.2-.13-.36-.38-.48-.74l-.44-2.12-1.72 1.46a9.48 9.48 0 0 1-3.74 1.7c-.69.15-1.46.23-2.3.23-.87 0-1.69-.12-2.45-.35a5.33 5.33 0 0 1-3.34-2.93 6.62 6.62 0 0 1-.49-2.64c0-.88.25-1.72.73-2.53a6.33 6.33 0 0 1 2.35-2.17c1.09-.63 2.5-1.15 4.25-1.54a31.2 31.2 0 0 1 6.42-.7v-1.75c0-1.73-.37-3.03-1.12-3.91-.75-.9-1.84-1.34-3.28-1.34-.97 0-1.78.12-2.44.37-.64.23-1.2.5-1.7.81l-1.22.82c-.34.23-.68.35-1.02.35-.26 0-.49-.07-.68-.2a1.88 1.88 0 0 1-.48-.53l-.7-1.25zM40.98 32.25c0 2.36-.38 4.53-1.12 6.51a14.26 14.26 0 0 1-8.1 8.4c-1.9.78-4.02 1.17-6.34 1.17a16.6 16.6 0 0 1-6.33-1.17 14.31 14.31 0 0 1-8.08-8.4 18.29 18.29 0 0 1-1.12-6.51c0-2.36.38-4.53 1.12-6.5.75-1.97 1.8-3.67 3.17-5.1a14.32 14.32 0 0 1 4.9-3.34c1.92-.8 4.03-1.19 6.34-1.19 2.32 0 4.43.4 6.34 1.19 1.92.8 3.56 1.9 4.93 3.34a14.87 14.87 0 0 1 3.17 5.1 18.1 18.1 0 0 1 1.12 6.5zm-4.38 0c0-1.94-.26-3.68-.8-5.22a10.91 10.91 0 0 0-2.24-3.89 9.68 9.68 0 0 0-3.52-2.46 11.95 11.95 0 0 0-4.62-.86c-1.68 0-3.21.28-4.6.86a9.88 9.88 0 0 0-3.54 2.46 10.91 10.91 0 0 0-2.24 3.9c-.53 1.53-.8 3.27-.8 5.2 0 1.94.27 3.68.8 5.22a11.17 11.17 0 0 0 2.24 3.9 10.01 10.01 0 0 0 3.55 2.44c1.38.56 2.9.83 4.6.83s3.24-.27 4.61-.83a9.8 9.8 0 0 0 3.52-2.44 11.17 11.17 0 0 0 2.25-3.9c.53-1.54.8-3.28.8-5.21zm26.22-6.54V48H60.5c-.56 0-.9-.27-1.05-.81l-.31-2.4a12.45 12.45 0 0 1-3.26 2.6c-1.2.64-2.58.96-4.13.96-1.22 0-2.3-.2-3.24-.6a6.52 6.52 0 0 1-2.33-1.7 7.37 7.37 0 0 1-1.43-2.67c-.3-1.04-.46-2.2-.46-3.45V25.7h3.91v14.22c0 1.68.38 2.99 1.15 3.91.77.93 1.96 1.39 3.54 1.39 1.16 0 2.24-.27 3.23-.82a10.42 10.42 0 0 0 2.8-2.28V25.7h3.91zm8.61 4.47a9.94 9.94 0 0 1 2.6-3.56 5.64 5.64 0 0 1 3.76-1.3c.47 0 .92.05 1.34.15.44.1.83.27 1.17.49l-.3 2.92c-.09.37-.3.55-.66.55-.2 0-.5-.04-.9-.13a6.21 6.21 0 0 0-3.24.18 4.23 4.23 0 0 0-1.47.92c-.42.4-.81.9-1.17 1.5-.33.58-.64 1.26-.92 2.02V48H67.7V25.71h2.25c.42 0 .72.08.88.25.16.16.27.44.33.83l.26 3.39zm61.16-13.7L122.75 48h-3.82l-7.99-24.05a21.95 21.95 0 0 1-.42-1.58 38.36 38.36 0 0 1-.44 1.58L102.05 48h-3.83L88.4 16.47h3.54c.38 0 .7.1.95.29.26.2.43.43.5.73l6.52 21.9.28 1.28.29 1.46.3-1.46.38-1.27 7.41-21.91c.1-.25.26-.48.51-.69.27-.22.58-.33.95-.33h1.23c.38 0 .69.1.92.29a1.77 1.77 0 0 1 .53.73l7.4 21.9a28.4 28.4 0 0 1 .68 2.62 29.52 29.52 0 0 1 .52-2.61l6.54-21.91a1.31 1.31 0 0 1 .48-.7c.27-.21.58-.32.95-.32h3.32zm9.35 8.88c1.63 0 3.1.27 4.4.82a9.43 9.43 0 0 1 5.46 5.94c.5 1.4.74 2.98.74 4.73 0 1.76-.25 3.34-.74 4.75a9.43 9.43 0 0 1-5.46 5.92c-1.3.52-2.77.79-4.4.79-1.64 0-3.12-.27-4.44-.8a9.42 9.42 0 0 1-3.35-2.3c-.92-1-1.63-2.2-2.13-3.61-.49-1.41-.73-3-.73-4.75s.24-3.33.73-4.73c.5-1.43 1.2-2.64 2.13-3.63a9.4 9.4 0 0 1 3.35-2.31c1.32-.55 2.8-.82 4.44-.82zm0 19.89c2.2 0 3.84-.73 4.93-2.2 1.08-1.48 1.63-3.54 1.63-6.18 0-2.66-.55-4.72-1.63-6.2-1.09-1.49-2.73-2.23-4.93-2.23-1.12 0-2.09.2-2.93.57a5.71 5.71 0 0 0-2.06 1.65 7.5 7.5 0 0 0-1.24 2.67c-.26 1.04-.4 2.22-.4 3.54 0 2.64.55 4.7 1.64 6.18 1.1 1.47 2.76 2.2 4.99 2.2zm17.97-15.07a9.94 9.94 0 0 1 2.6-3.56 5.64 5.64 0 0 1 3.76-1.3c.47 0 .91.05 1.34.15.44.1.83.27 1.16.49l-.28 2.92c-.09.37-.31.55-.66.55-.2 0-.5-.04-.9-.13a6.2 6.2 0 0 0-3.24.18 4.23 4.23 0 0 0-1.47.92c-.43.4-.82.9-1.17 1.5a13.1 13.1 0 0 0-.92 2.02V48h-3.94V25.71h2.24c.43 0 .72.08.88.25.17.16.28.44.33.83l.27 3.39zm15.04-14.59V48h-3.92V15.6h3.92zm19.55 15.43a6.22 6.22 0 0 0-2.38-2.05 6.7 6.7 0 0 0-2.86-.6c-2.07 0-3.66.75-4.77 2.23-1.12 1.48-1.68 3.6-1.68 6.33 0 1.46.13 2.7.38 3.74a7.29 7.29 0 0 0 1.1 2.56 4.35 4.35 0 0 0 1.78 1.45c.7.3 1.5.46 2.4.46 1.29 0 2.41-.3 3.36-.88a9.6 9.6 0 0 0 2.67-2.49V31.02zm3.91-15.43V48h-2.33c-.56 0-.9-.27-1.06-.81l-.35-2.71a12.13 12.13 0 0 1-3.25 2.77 8.28 8.28 0 0 1-4.23 1.06 7.31 7.31 0 0 1-6.14-2.9c-.73-.96-1.3-2.15-1.69-3.57a18.35 18.35 0 0 1 .07-9.48 11.29 11.29 0 0 1 1.89-3.7 8.7 8.7 0 0 1 7.06-3.34 7.96 7.96 0 0 1 6.12 2.62V15.59h3.91zM46.61 70.71V93H42.7V70.71h3.91zm.84-7c0 .39-.08.75-.24 1.09a2.81 2.81 0 0 1-1.52 1.47 2.67 2.67 0 0 1-2.16 0 2.9 2.9 0 0 1-1.45-1.47 2.67 2.67 0 0 1 0-2.16c.15-.35.35-.65.6-.9.25-.27.53-.47.85-.62a2.67 2.67 0 0 1 2.16 0c.35.15.65.35.9.62.27.25.47.55.62.9.16.34.24.7.24 1.08zm7.97 10.24c.49-.54 1-1.04 1.54-1.48a9.85 9.85 0 0 1 3.66-1.84 8.96 8.96 0 0 1 5.43.35c.94.4 1.72.97 2.33 1.71a7.36 7.36 0 0 1 1.43 2.67c.32 1.04.49 2.19.49 3.45V93h-3.94V78.81c0-1.69-.4-3-1.17-3.92-.76-.93-1.93-1.4-3.5-1.4a6.6 6.6 0 0 0-3.25.83c-1 .56-1.92 1.31-2.77 2.27V93h-3.94V70.71h2.35c.56 0 .9.28 1.04.82l.3 2.42zm57.7 3.3c0 2.36-.37 4.5-1.11 6.44a14.3 14.3 0 0 1-3.17 4.98 14.1 14.1 0 0 1-4.93 3.2c-1.9.76-4.02 1.13-6.33 1.13H85.8V61.47h11.77c2.31 0 4.42.39 6.33 1.15a13.8 13.8 0 0 1 8.1 8.18 17.75 17.75 0 0 1 1.12 6.45zm-4.37 0c0-1.94-.26-3.67-.8-5.2a10.94 10.94 0 0 0-2.23-3.87 9.57 9.57 0 0 0-3.53-2.42 12.23 12.23 0 0 0-4.61-.83h-7.5v24.62h7.5c1.7 0 3.24-.28 4.61-.84a9.7 9.7 0 0 0 3.53-2.4 10.94 10.94 0 0 0 2.24-3.87c.53-1.53.8-3.26.8-5.2zm19.8 5.72c-1.8.06-3.34.2-4.62.44-1.26.22-2.3.51-3.1.88-.8.36-1.37.8-1.74 1.3-.35.5-.53 1.05-.53 1.67 0 .58.1 1.1.3 1.52a3 3 0 0 0 .76 1.05c.34.27.73.46 1.17.6a6.13 6.13 0 0 0 1.45.17 7.28 7.28 0 0 0 3.5-.81 11.95 11.95 0 0 0 2.82-2.2v-4.62zm-12.65-9.11a12.73 12.73 0 0 1 3.98-2.66c1.43-.59 3-.88 4.73-.88 1.25 0 2.36.2 3.33.61a6.81 6.81 0 0 1 3.94 4.38c.33 1.04.5 2.19.5 3.43V93h-1.74a1.8 1.8 0 0 1-.88-.18c-.2-.13-.36-.38-.48-.74l-.44-2.12-1.72 1.46a9.48 9.48 0 0 1-3.74 1.7c-.69.15-1.46.23-2.3.23-.87 0-1.69-.12-2.45-.35a5.34 5.34 0 0 1-3.34-2.93 6.64 6.64 0 0 1-.49-2.64c0-.88.25-1.72.73-2.53a6.33 6.33 0 0 1 2.35-2.17c1.09-.63 2.5-1.15 4.25-1.54 1.75-.41 3.89-.65 6.42-.7v-1.75c0-1.73-.37-3.03-1.12-3.91-.75-.9-1.84-1.34-3.28-1.34-.97 0-1.78.12-2.44.37-.64.23-1.2.5-1.7.81l-1.23.82c-.33.23-.67.35-1 .35-.27 0-.5-.07-.69-.2a2.1 2.1 0 0 1-.48-.53l-.7-1.25zm27.67 19.5c-1.76 0-3.12-.5-4.07-1.48-.94-.98-1.41-2.4-1.41-4.25V74h-2.68a.9.9 0 0 1-.6-.2c-.16-.14-.24-.36-.24-.66v-1.56l3.65-.46.9-6.89a.9.9 0 0 1 .29-.52.88.88 0 0 1 .62-.22H142v7.67h6.44V74H142v13.38c0 .94.22 1.63.68 2.09.45.45 1.04.68 1.76.68a3.21 3.21 0 0 0 1.85-.53l.55-.35c.16-.12.3-.18.41-.18.2 0 .4.13.55.38l1.15 1.87a7.45 7.45 0 0 1-2.44 1.5 8.53 8.53 0 0 1-2.95.52zm19.68-10.4c-1.8.07-3.34.21-4.62.45-1.26.22-2.3.51-3.1.88-.8.36-1.37.8-1.74 1.3-.35.5-.53 1.05-.53 1.67 0 .58.1 1.1.3 1.52a2.9 2.9 0 0 0 .76 1.05c.34.27.73.46 1.17.6a6.13 6.13 0 0 0 1.45.17 7.3 7.3 0 0 0 3.5-.81 12.04 12.04 0 0 0 2.82-2.2v-4.62zm-12.65-9.1a12.72 12.72 0 0 1 3.99-2.66c1.42-.59 3-.88 4.72-.88 1.25 0 2.36.2 3.33.61a6.81 6.81 0 0 1 3.94 4.38c.33 1.04.5 2.19.5 3.43V93h-1.74a1.8 1.8 0 0 1-.88-.18c-.2-.13-.36-.38-.48-.74l-.44-2.12-1.72 1.46a9.48 9.48 0 0 1-3.74 1.7c-.69.15-1.46.23-2.3.23-.87 0-1.69-.12-2.45-.35a5.33 5.33 0 0 1-3.34-2.93 6.62 6.62 0 0 1-.49-2.64c0-.88.25-1.72.73-2.53a6.33 6.33 0 0 1 2.35-2.17c1.09-.63 2.5-1.15 4.25-1.54a31.2 31.2 0 0 1 6.42-.7v-1.75c0-1.73-.37-3.03-1.12-3.91-.75-.9-1.84-1.34-3.28-1.34-.97 0-1.78.12-2.44.37-.64.23-1.2.5-1.7.81l-1.22.82c-.34.23-.68.35-1.02.35-.26 0-.49-.07-.68-.2a1.88 1.88 0 0 1-.48-.53l-.7-1.25zM40.98 32.25c0 2.36-.38 4.53-1.12 6.51a14.26 14.26 0 0 1-8.1 8.4c-1.9.78-4.02 1.17-6.34 1.17a16.6 16.6 0 0 1-6.33-1.17 14.31 14.31 0 0 1-8.08-8.4 18.29 18.29 0 0 1-1.12-6.51c0-2.36.38-4.53 1.12-6.5.75-1.97 1.8-3.67 3.17-5.1a14.32 14.32 0 0 1 4.9-3.34c1.92-.8 4.03-1.19 6.34-1.19 2.32 0 4.43.4 6.34 1.19 1.92.8 3.56 1.9 4.93 3.34a14.87 14.87 0 0 1 3.17 5.1 18.1 18.1 0 0 1 1.12 6.5zm-4.38 0c0-1.94-.26-3.68-.8-5.22a10.91 10.91 0 0 0-2.24-3.89 9.68 9.68 0 0 0-3.52-2.46 11.95 11.95 0 0 0-4.62-.86c-1.68 0-3.21.28-4.6.86a9.88 9.88 0 0 0-3.54 2.46 10.91 10.91 0 0 0-2.24 3.9c-.53 1.53-.8 3.27-.8 5.2 0 1.94.27 3.68.8 5.22a11.17 11.17 0 0 0 2.24 3.9 10.01 10.01 0 0 0 3.55 2.44c1.38.56 2.9.83 4.6.83s3.24-.27 4.61-.83a9.8 9.8 0 0 0 3.52-2.44 11.17 11.17 0 0 0 2.25-3.9c.53-1.54.8-3.28.8-5.21zm26.22-6.54V48H60.5c-.56 0-.9-.27-1.05-.81l-.31-2.4a12.45 12.45 0 0 1-3.26 2.6c-1.2.64-2.58.96-4.13.96-1.22 0-2.3-.2-3.24-.6a6.52 6.52 0 0 1-2.33-1.7 7.37 7.37 0 0 1-1.43-2.67c-.3-1.04-.46-2.2-.46-3.45V25.7h3.91v14.22c0 1.68.38 2.99 1.15 3.91.77.93 1.96 1.39 3.54 1.39 1.16 0 2.24-.27 3.23-.82a10.42 10.42 0 0 0 2.8-2.28V25.7h3.91zm8.61 4.47a9.94 9.94 0 0 1 2.6-3.56 5.64 5.64 0 0 1 3.76-1.3c.47 0 .92.05 1.34.15.44.1.83.27 1.17.49l-.3 2.92c-.09.37-.3.55-.66.55-.2 0-.5-.04-.9-.13a6.21 6.21 0 0 0-3.24.18 4.23 4.23 0 0 0-1.47.92c-.42.4-.81.9-1.17 1.5-.33.58-.64 1.26-.92 2.02V48H67.7V25.71h2.25c.42 0 .72.08.88.25.16.16.27.44.33.83l.26 3.39zm61.16-13.7L122.75 48h-3.82l-7.99-24.05a21.95 21.95 0 0 1-.42-1.58 38.36 38.36 0 0 1-.44 1.58L102.05 48h-3.83L88.4 16.47h3.54c.38 0 .7.1.95.29.26.2.43.43.5.73l6.52 21.9.28 1.28.29 1.46.3-1.46.38-1.27 7.41-21.91c.1-.25.26-.48.51-.69.27-.22.58-.33.95-.33h1.23c.38 0 .69.1.92.29a1.77 1.77 0 0 1 .53.73l7.4 21.9a28.4 28.4 0 0 1 .68 2.62 29.52 29.52 0 0 1 .52-2.61l6.54-21.91a1.31 1.31 0 0 1 .48-.7c.27-.21.58-.32.95-.32h3.32zm9.35 8.88c1.63 0 3.1.27 4.4.82a9.43 9.43 0 0 1 5.46 5.94c.5 1.4.74 2.98.74 4.73 0 1.76-.25 3.34-.74 4.75a9.43 9.43 0 0 1-5.46 5.92c-1.3.52-2.77.79-4.4.79-1.64 0-3.12-.27-4.44-.8a9.42 9.42 0 0 1-3.35-2.3c-.92-1-1.63-2.2-2.13-3.61-.49-1.41-.73-3-.73-4.75s.24-3.33.73-4.73c.5-1.43 1.2-2.64 2.13-3.63a9.4 9.4 0 0 1 3.35-2.31c1.32-.55 2.8-.82 4.44-.82zm0 19.89c2.2 0 3.84-.73 4.93-2.2 1.08-1.48 1.63-3.54 1.63-6.18 0-2.66-.55-4.72-1.63-6.2-1.09-1.49-2.73-2.23-4.93-2.23-1.12 0-2.09.2-2.93.57a5.71 5.71 0 0 0-2.06 1.65 7.5 7.5 0 0 0-1.24 2.67c-.26 1.04-.4 2.22-.4 3.54 0 2.64.55 4.7 1.64 6.18 1.1 1.47 2.76 2.2 4.99 2.2zm17.97-15.07a9.94 9.94 0 0 1 2.6-3.56 5.64 5.64 0 0 1 3.76-1.3c.47 0 .91.05 1.34.15.44.1.83.27 1.16.49l-.28 2.92c-.09.37-.31.55-.66.55-.2 0-.5-.04-.9-.13a6.2 6.2 0 0 0-3.24.18 4.23 4.23 0 0 0-1.47.92c-.43.4-.82.9-1.17 1.5a13.1 13.1 0 0 0-.92 2.02V48h-3.94V25.71h2.24c.43 0 .72.08.88.25.17.16.28.44.33.83l.27 3.39zm15.04-14.59V48h-3.92V15.6h3.92zm19.55 15.43a6.22 6.22 0 0 0-2.38-2.05 6.7 6.7 0 0 0-2.86-.6c-2.07 0-3.66.75-4.77 2.23-1.12 1.48-1.68 3.6-1.68 6.33 0 1.46.13 2.7.38 3.74a7.29 7.29 0 0 0 1.1 2.56 4.35 4.35 0 0 0 1.78 1.45c.7.3 1.5.46 2.4.46 1.29 0 2.41-.3 3.36-.88a9.6 9.6 0 0 0 2.67-2.49V31.02zm3.91-15.43V48h-2.33c-.56 0-.9-.27-1.06-.81l-.35-2.71a12.13 12.13 0 0 1-3.25 2.77 8.28 8.28 0 0 1-4.23 1.06 7.31 7.31 0 0 1-6.14-2.9c-.73-.96-1.3-2.15-1.69-3.57a18.35 18.35 0 0 1 .07-9.48 11.29 11.29 0 0 1 1.89-3.7 8.7 8.7 0 0 1 7.06-3.34 7.96 7.96 0 0 1 6.12 2.62V15.59h3.91zM46.61 70.71V93H42.7V70.71h3.91zm.84-7c0 .39-.08.75-.24 1.09a2.81 2.81 0 0 1-1.52 1.47 2.67 2.67 0 0 1-2.16 0 2.9 2.9 0 0 1-1.45-1.47 2.67 2.67 0 0 1 0-2.16c.15-.35.35-.65.6-.9.25-.27.53-.47.85-.62a2.67 2.67 0 0 1 2.16 0c.35.15.65.35.9.62.27.25.47.55.62.9.16.34.24.7.24 1.08zm7.97 10.24c.49-.54 1-1.04 1.54-1.48a9.85 9.85 0 0 1 3.66-1.84 8.96 8.96 0 0 1 5.43.35c.94.4 1.72.97 2.33 1.71a7.36 7.36 0 0 1 1.43 2.67c.32 1.04.49 2.19.49 3.45V93h-3.94V78.81c0-1.69-.4-3-1.17-3.92-.76-.93-1.93-1.4-3.5-1.4a6.6 6.6 0 0 0-3.25.83c-1 .56-1.92 1.31-2.77 2.27V93h-3.94V70.71h2.35c.56 0 .9.28 1.04.82l.3 2.42zm57.7 3.3c0 2.36-.37 4.5-1.11 6.44a14.3 14.3 0 0 1-3.17 4.98 14.1 14.1 0 0 1-4.93 3.2c-1.9.76-4.02 1.13-6.33 1.13H85.8V61.47h11.77c2.31 0 4.42.39 6.33 1.15a13.8 13.8 0 0 1 8.1 8.18 17.75 17.75 0 0 1 1.12 6.45zm-4.37 0c0-1.94-.26-3.67-.8-5.2a10.94 10.94 0 0 0-2.23-3.87 9.57 9.57 0 0 0-3.53-2.42 12.23 12.23 0 0 0-4.61-.83h-7.5v24.62h7.5c1.7 0 3.24-.28 4.61-.84a9.7 9.7 0 0 0 3.53-2.4 10.94 10.94 0 0 0 2.24-3.87c.53-1.53.8-3.26.8-5.2zm19.8 5.72c-1.8.06-3.34.2-4.62.44-1.26.22-2.3.51-3.1.88-.8.36-1.37.8-1.74 1.3-.35.5-.53 1.05-.53 1.67 0 .58.1 1.1.3 1.52a3 3 0 0 0 .76 1.05c.34.27.73.46 1.17.6a6.13 6.13 0 0 0 1.45.17 7.28 7.28 0 0 0 3.5-.81 11.95 11.95 0 0 0 2.82-2.2v-4.62zm-12.65-9.11a12.73 12.73 0 0 1 3.98-2.66c1.43-.59 3-.88 4.73-.88 1.25 0 2.36.2 3.33.61a6.81 6.81 0 0 1 3.94 4.38c.33 1.04.5 2.19.5 3.43V93h-1.74a1.8 1.8 0 0 1-.88-.18c-.2-.13-.36-.38-.48-.74l-.44-2.12-1.72 1.46a9.48 9.48 0 0 1-3.74 1.7c-.69.15-1.46.23-2.3.23-.87 0-1.69-.12-2.45-.35a5.34 5.34 0 0 1-3.34-2.93 6.64 6.64 0 0 1-.49-2.64c0-.88.25-1.72.73-2.53a6.33 6.33 0 0 1 2.35-2.17c1.09-.63 2.5-1.15 4.25-1.54 1.75-.41 3.89-.65 6.42-.7v-1.75c0-1.73-.37-3.03-1.12-3.91-.75-.9-1.84-1.34-3.28-1.34-.97 0-1.78.12-2.44.37-.64.23-1.2.5-1.7.81l-1.23.82c-.33.23-.67.35-1 .35-.27 0-.5-.07-.69-.2a2.1 2.1 0 0 1-.48-.53l-.7-1.25zm27.67 19.5c-1.76 0-3.12-.5-4.07-1.48-.94-.98-1.41-2.4-1.41-4.25V74h-2.68a.9.9 0 0 1-.6-.2c-.16-.14-.24-.36-.24-.66v-1.56l3.65-.46.9-6.89a.9.9 0 0 1 .29-.52.88.88 0 0 1 .62-.22H142v7.67h6.44V74H142v13.38c0 .94.22 1.63.68 2.09.45.45 1.04.68 1.76.68a3.21 3.21 0 0 0 1.85-.53l.55-.35c.16-.12.3-.18.41-.18.2 0 .4.13.55.38l1.15 1.87a7.45 7.45 0 0 1-2.44 1.5 8.53 8.53 0 0 1-2.95.52zm19.68-10.4c-1.8.07-3.34.21-4.62.45-1.26.22-2.3.51-3.1.88-.8.36-1.37.8-1.74 1.3-.35.5-.53 1.05-.53 1.67 0 .58.1 1.1.3 1.52a2.9 2.9 0 0 0 .76 1.05c.34.27.73.46 1.17.6a6.13 6.13 0 0 0 1.45.17 7.3 7.3 0 0 0 3.5-.81 12.04 12.04 0 0 0 2.82-2.2v-4.62zm-12.65-9.1a12.72 12.72 0 0 1 3.99-2.66c1.42-.59 3-.88 4.72-.88 1.25 0 2.36.2 3.33.61a6.81 6.81 0 0 1 3.94 4.38c.33 1.04.5 2.19.5 3.43V93h-1.74a1.8 1.8 0 0 1-.88-.18c-.2-.13-.36-.38-.48-.74l-.44-2.12-1.72 1.46a9.48 9.48 0 0 1-3.74 1.7c-.69.15-1.46.23-2.3.23-.87 0-1.69-.12-2.45-.35a5.33 5.33 0 0 1-3.34-2.93 6.62 6.62 0 0 1-.49-2.64c0-.88.25-1.72.73-2.53a6.33 6.33 0 0 1 2.35-2.17c1.09-.63 2.5-1.15 4.25-1.54a31.2 31.2 0 0 1 6.42-.7v-1.75c0-1.73-.37-3.03-1.12-3.91-.75-.9-1.84-1.34-3.28-1.34-.97 0-1.78.12-2.44.37-.64.23-1.2.5-1.7.81l-1.22.82c-.34.23-.68.35-1.02.35-.26 0-.49-.07-.68-.2a1.88 1.88 0 0 1-.48-.53l-.7-1.25z" fill="#fff"/><path fill="#D42B21" d="M0 106.79h210V120H0z"/></g><defs><clipPath id="a"><path fill="#fff" d="M0 0h210v120H0z"/></clipPath></defs></svg></g><a href="https://ourworldindata.org/grapher/womens-educational-attainment-vs-fertility" style="font-family:&quot;Playfair Display&quot;,Georgia,&quot;Times New Roman&quot;,serif" target="_blank" rel="noopener"><text font-size="24.3" x="15" y="34.4" fill="#555"><tspan x="15" y="34.44">Women&apos;s educational attainment vs. number of children per woman</tspan></text></a><text font-size="14.4" x="15" y="54.8" fill="#666"><tspan x="15" y="54.82">Shown on the x-axis is the average number of years of schooling of women in the reproductive age (15 to 49</tspan><tspan x="15" y="72.1">years). On the y-axis you find the &apos;total fertility rate&apos; – the number of live births per woman in reproductive age. </tspan></text></g><g class="ScatterPlot"><g class="DualAxisView"><g class="HorizontalAxis"><text font-size="12.6" x="205.5" y="544.9"><tspan x="205.52" y="544.88">Average years of schooling of women in reproductive age</tspan></text><text x="51.67" y="524.8" fill="#666" text-anchor="start" font-size="16.2">0</text><text x="149.5" y="524.8" fill="#666" text-anchor="middle" font-size="16.2">2</text><text x="247.3" y="524.8" fill="#666" text-anchor="middle" font-size="16.2">4</text><text x="345.2" y="524.8" fill="#666" text-anchor="middle" font-size="16.2">6</text><text x="443" y="524.8" fill="#666" text-anchor="middle" font-size="16.2">8</text><text x="540.8" y="524.8" fill="#666" text-anchor="middle" font-size="16.2">10</text><text x="638.6" y="524.8" fill="#666" text-anchor="middle" font-size="16.2">12</text></g><g class="VerticalAxis"><text font-size="12.6" x="-375.9" y="25.1" transform="rotate(-90)"><tspan x="-375.86" y="25.08">Children per woman</tspan></text><text x="46.67" y="503.6" dy=".32em" text-anchor="end" fill="#666" font-size="16.2">0</text><text x="46.67" y="452.8" dy=".32em" text-anchor="end" fill="#666" font-size="16.2">1</text><text x="46.67" y="401.9" dy=".32em" text-anchor="end" fill="#666" font-size="16.2">2</text><text x="46.67" y="351.1" dy=".32em" text-anchor="end" fill="#666" font-size="16.2">3</text><text x="46.67" y="300.2" dy=".32em" text-anchor="end" fill="#666" font-size="16.2">4</text><text x="46.67" y="249.4" dy=".32em" text-anchor="end" fill="#666" font-size="16.2">5</text><text x="46.67" y="198.6" dy=".32em" text-anchor="end" fill="#666" font-size="16.2">6</text><text x="46.67" y="147.7" dy=".32em" text-anchor="end" fill="#666" font-size="16.2">7</text><text x="46.67" y="96.9" dy=".32em" text-anchor="end" fill="#666" font-size="16.2">8</text></g><g class="AxisGridLines horizontalLines"><path stroke="#999" d="M51.67 503.6h666.42"/><path stroke="#ddd" stroke-dasharray="3,2" d="M51.67 452.8h666.42M51.67 401.9h666.42M51.67 351.1h666.42M51.67 300.2h666.42M51.67 249.4h666.42M51.67 198.6h666.42M51.67 147.7h666.42M51.67 96.9h666.42"/></g><g class="AxisGridLines verticalLines"><path stroke="#999" d="M51.7 503.6V91.3"/><path stroke="#ddd" stroke-dasharray="3,2" d="M149.5 503.6V91.3M247.3 503.6V91.3M345.2 503.6V91.3M443 503.6V91.3M540.8 503.6V91.3M638.6 503.6V91.3"/></g></g><g class="PointsWithLabels clickable" clip-path="url(#b)" font-family="Arial, sans-serif"><path fill="rgba(255,255,255,0)" d="M51.67 91.3h666.42v412.3H51.67z"/><defs><clipPath id="b"><path d="M41.67 81.3h686.42v432.3H41.67z"/></clipPath></defs><g class="key-China"><circle cx="111" cy="162" r="1.5" fill="#2D8587" opacity=".7"/><path stroke-width="1.42" opacity=".7" stroke="#2D8587" fill="none" stroke-linecap="butt" d="m111 162 350 258"/><path cx="461" cy="420" r="2.62" fill="#2D8587" opacity=".7" d="m460.45 416.34 2.66 5.21-5.77-1z"/></g><g class="key-India"><circle cx="71" cy="203" r="1.4" fill="#2D8587" opacity=".7"/><path stroke-width="1.36" opacity=".7" stroke="#2D8587" fill="none" stroke-linecap="butt" d="m71 203 252 169"/><path cx="323" cy="372" r="2.56" fill="#2D8587" opacity=".7" d="m322.3 368.45 2.83 4.98-5.68-.73z"/></g><g class="key-United-States"><circle cx="504" cy="348" r="1.3" fill="#E04E4B" opacity=".7"/><path stroke-width=".84" opacity=".7" stroke="#E04E4B" fill="none" stroke-linecap="butt" d="m504 348 198 55"/><path cx="702" cy="403" r="2.04" fill="#E04E4B" opacity=".7" d="m700.58 400.49 3.39 3.06-4.48.87z"/></g><g class="key-Indonesia"><circle cx="81" cy="231" r="1.2" fill="#2D8587" opacity=".7"/><path stroke-width=".78" opacity=".7" stroke="#2D8587" fill="none" stroke-linecap="butt" d="m81 231 366 146"/><path cx="447" cy="377" r="1.98" fill="#2D8587" opacity=".7" d="m445.9 374.43 2.94 3.3-4.41.38z"/></g><g class="key-Brazil"><circle cx="146" cy="192" r="1.2" fill="#932834" opacity=".7"/><path stroke-width=".73" opacity=".7" stroke="#932834" fill="none" stroke-linecap="butt" d="m146 192 340 220"/><path cx="486" cy="412" r="1.93" fill="#932834" opacity=".7" d="m485.43 409.33 2.19 3.72-4.29-.48z"/></g><g class="key-Pakistan"><circle cx="68" cy="168" r="1.1" fill="#2D8587" opacity=".7"/><path stroke-width=".72" opacity=".7" stroke="#2D8587" fill="none" stroke-linecap="butt" d="m68 168 173 134"/><path cx="241" cy="302" r="1.92" fill="#2D8587" opacity=".7" d="m240.66 299.3 1.86 3.88-4.21-.84z"/></g><g class="key-Bangladesh"><circle cx="64" cy="186" r="1.1" fill="#2D8587" opacity=".7"/><path stroke-width=".68" opacity=".7" stroke="#2D8587" fill="none" stroke-linecap="butt" d="m64 186 290 199"/><path cx="354" cy="385" r="1.88" fill="#2D8587" opacity=".7" d="m353.51 382.39 2.04 3.67-4.16-.57z"/></g><g class="key-Russia"><circle cx="249" cy="360" r="1.2" fill="#4C5C78" opacity=".7"/><path stroke-width=".68" opacity=".7" stroke="#4C5C78" fill="none" stroke-linecap="butt" d="m249 360 397 63"/><path cx="646" cy="423" r="1.88" fill="#4C5C78" opacity=".7" d="m644.44 420.85 3.42 2.44-4.01 1.27z"/></g><g class="key-Japan"><circle cx="365" cy="328" r="1.2" fill="#2D8587" opacity=".7"/><path stroke-width=".66" opacity=".7" stroke="#2D8587" fill="none" stroke-linecap="butt" d="m365 328 319 105"/><path cx="684" cy="433" r="1.86" fill="#2D8587" opacity=".7" d="m682.81 430.65 2.96 2.93-4.12.6z"/></g><g class="key-Mexico"><circle cx="147" cy="162" r="1.1" fill="#E04E4B" opacity=".7"/><path stroke-width=".64" opacity=".7" stroke="#E04E4B" fill="none" stroke-linecap="butt" d="m147 162 365 222"/><path cx="512" cy="384" r="1.84" fill="#E04E4B" opacity=".7" d="m511.38 381.47 2.2 3.49-4.1-.34z"/></g><g class="key-Philippines"><circle cx="155" cy="125" r="1.1" fill="#2D8587" opacity=".7"/><path stroke-width=".61" opacity=".7" stroke="#2D8587" fill="none" stroke-linecap="butt" d="m155 125 343 216"/><path cx="498" cy="341" r="1.81" fill="#2D8587" opacity=".7" d="m497.43 338.5 2.1 3.46-4.03-.4z"/></g><g class="key-Vietnam"><circle cx="146" cy="251" r="1.1" fill="#2D8587" opacity=".7"/><path stroke-width=".6" opacity=".7" stroke="#2D8587" fill="none" stroke-linecap="butt" d="m146 251 265 154"/><path cx="411" cy="405" r="1.8" fill="#2D8587" opacity=".7" d="m410.35 402.54 2.2 3.36-4.01-.25z"/></g><g class="key-Egypt"><circle cx="59" cy="161" r="1.1" fill="#923E8B" opacity=".7"/><path stroke-width=".59" opacity=".7" stroke="#923E8B" fill="none" stroke-linecap="butt" d="m59 161 347 178"/><path cx="406" cy="339" r="1.79" fill="#923E8B" opacity=".7" d="m405.22 336.59 2.37 3.23-4-.04z"/></g><g class="key-Germany"><circle cx="407" cy="397" r="1.2" fill="#4C5C78" opacity=".7"/><path stroke-width=".59" opacity=".7" stroke="#4C5C78" fill="none" stroke-linecap="butt" d="m407 397 243 36"/><path cx="650" cy="433" r="1.79" fill="#4C5C78" opacity=".7" d="m648.5 430.97 3.27 2.3-3.8 1.24z"/></g><g class="key-Iran"><circle cx="66" cy="152" r="1.1" fill="#2D8587" opacity=".7"/><path stroke-width=".58" opacity=".7" stroke="#2D8587" fill="none" stroke-linecap="butt" d="m66 152 428 258"/><path cx="494" cy="410" r="1.78" fill="#2D8587" opacity=".7" d="m493.4 407.56 2.12 3.36-3.96-.31z"/></g><g class="key-Turkey"><circle cx="84" cy="161" r="1.1" fill="#2D8587" opacity=".7"/><path stroke-width=".58" opacity=".7" stroke="#2D8587" fill="none" stroke-linecap="butt" d="m84 161 316 233"/><path cx="400" cy="394" r="1.78" fill="#2D8587" opacity=".7" d="m399.62 391.51 1.81 3.55-3.92-.68z"/></g><g class="key-Thailand"><circle cx="123" cy="191" r="1.1" fill="#2D8587" opacity=".7"/><path stroke-width=".57" opacity=".7" stroke="#2D8587" fill="none" stroke-linecap="butt" d="m123 191 390 234"/><path cx="513" cy="425" r="1.77" fill="#2D8587" opacity=".7" d="m512.4 422.57 2.12 3.34-3.95-.3z"/></g><g class="key-Democratic-Republic-of-Congo"><circle cx="57" cy="198" r="1.1" fill="#923E8B" opacity=".7"/><path stroke-width=".57" opacity=".7" stroke="#923E8B" fill="none" stroke-linecap="butt" d="m57 198 136-28"/><path cx="193" cy="170" r="1.77" fill="#923E8B" opacity=".7" d="m190.9 168.62 3.83 1.02-3.1 2.45z"/></g><g class="key-United-Kingdom"><circle cx="388" cy="398" r="1.2" fill="#4C5C78" opacity=".7"/><path stroke-width=".56" opacity=".7" stroke="#4C5C78" fill="none" stroke-linecap="butt" d="m388 398 288 9"/><path cx="676" cy="407" r="1.76" fill="#4C5C78" opacity=".7" d="m674.3 405.19 3.46 1.86-3.57 1.65z"/></g><g class="key-France"><circle cx="258" cy="358" r="1.1" fill="#4C5C78" opacity=".7"/><path stroke-width=".56" opacity=".7" stroke="#4C5C78" fill="none" stroke-linecap="butt" d="m258 358 370 44"/><path cx="628" cy="402" r="1.76" fill="#4C5C78" opacity=".7" d="m626.46 400.04 3.29 2.17-3.7 1.33z"/></g><g class="key-Italy"><circle cx="258" cy="378" r="1.1" fill="#4C5C78" opacity=".7"/><path stroke-width=".56" opacity=".7" stroke="#4C5C78" fill="none" stroke-linecap="butt" d="m258 378 349 52"/><path cx="607" cy="430" r="1.76" fill="#4C5C78" opacity=".7" d="m605.52 428 3.22 2.26-3.74 1.22z"/></g><g class="key-South-Africa"><circle cx="264" cy="196" r="1.1" fill="#923E8B" opacity=".7"/><path stroke-width=".54" opacity=".7" stroke="#923E8B" fill="none" stroke-linecap="butt" d="m264 196 290 175"/><path cx="554" cy="371" r="1.74" fill="#923E8B" opacity=".7" d="m553.4 368.61 2.09 3.29-3.88-.3z"/></g><g class="key-Myanmar"><circle cx="93" cy="197" r="1.1" fill="#2D8587" opacity=".7"/><path stroke-width=".54" opacity=".7" stroke="#2D8587" fill="none" stroke-linecap="butt" d="m93 197 235 186"/><path cx="328" cy="383" r="1.74" fill="#2D8587" opacity=".7" d="m327.72 380.56 1.64 3.52-3.8-.8z"/></g><g class="key-South-Korea"><circle cx="233" cy="248" r="1.1" fill="#2D8587" opacity=".7"/><path stroke-width=".54" opacity=".7" stroke="#2D8587" fill="none" stroke-linecap="butt" d="m233 248 485 194"/><path cx="718" cy="442" r="1.74" fill="#2D8587" opacity=".7" d="m717.03 439.74 2.59 2.9-3.88.33z"/></g><g class="key-Spain"><circle cx="225" cy="379" r="1.1" fill="#4C5C78" opacity=".7"/><path stroke-width=".53" opacity=".7" stroke="#4C5C78" fill="none" stroke-linecap="butt" d="m225 379 377 53"/><path cx="602" cy="432" r="1.73" fill="#4C5C78" opacity=".7" d="m600.53 430.05 3.18 2.2-3.66 1.22z"/></g><g class="key-Ukraine"><circle cx="268" cy="365" r="1.1" fill="#4C5C78" opacity=".7"/><path stroke-width=".53" opacity=".7" stroke="#4C5C78" fill="none" stroke-linecap="butt" d="m268 365 349 64"/><path cx="617" cy="429" r="1.73" fill="#4C5C78" opacity=".7" d="m615.61 426.99 3.1 2.32-3.72 1.08z"/></g><g class="key-Colombia"><circle cx="163" cy="177" r="1.1" fill="#932834" opacity=".7"/><path stroke-width=".53" opacity=".7" stroke="#932834" fill="none" stroke-linecap="butt" d="m163 177 367 225"/><path cx="530" cy="402" r="1.73" fill="#932834" opacity=".7" d="m529.43 399.62 2.04 3.28-3.85-.33z"/></g><g class="key-Tanzania"><circle cx="78" cy="163" r="1.1" fill="#923E8B" opacity=".7"/><path stroke-width=".53" opacity=".7" stroke="#923E8B" fill="none" stroke-linecap="butt" d="m78 163 252 64"/><path cx="330" cy="227" r="1.73" fill="#923E8B" opacity=".7" d="m328.75 224.9 2.93 2.53-3.78.82z"/></g><g class="key-Kenya"><circle cx="82" cy="129" r="1.1" fill="#923E8B" opacity=".7"/><path stroke-width=".52" opacity=".7" stroke="#923E8B" fill="none" stroke-linecap="butt" d="m82 129 276 152"/><path cx="358" cy="281" r="1.72" fill="#923E8B" opacity=".7" d="m357.32 278.66 2.19 3.17-3.85-.15z"/></g><g class="key-Argentina"><circle cx="293" cy="342" r="1.1" fill="#932834" opacity=".7"/><path stroke-width=".52" opacity=".7" stroke="#932834" fill="none" stroke-linecap="butt" d="m293 342 255 42"/><path cx="548" cy="384" r="1.72" fill="#932834" opacity=".7" d="m546.58 382.02 3.12 2.26-3.68 1.14z"/></g><g class="key-Poland"><circle cx="323" cy="324" r="1.1" fill="#4C5C78" opacity=".7"/><path stroke-width=".52" opacity=".7" stroke="#4C5C78" fill="none" stroke-linecap="butt" d="m323 324 320 110"/><path cx="643" cy="434" r="1.72" fill="#4C5C78" opacity=".7" d="m641.93 431.81 2.7 2.75-3.82.5z"/></g><g class="key-Algeria"><circle cx="83" cy="133" r="1.1" fill="#923E8B" opacity=".7"/><path stroke-width=".51" opacity=".7" stroke="#923E8B" fill="none" stroke-linecap="butt" d="m83 133 316 225"/><path cx="399" cy="358" r="1.71" fill="#923E8B" opacity=".7" d="m398.6 355.62 1.8 3.37-3.78-.59z"/></g><g class="key-Sudan"><circle cx="55" cy="164" r="1.1" fill="#923E8B" opacity=".7"/><path stroke-width=".51" opacity=".7" stroke="#923E8B" fill="none" stroke-linecap="butt" d="m55 164 159 91"/><path cx="214" cy="255" r="1.71" fill="#923E8B" opacity=".7" d="m213.37 252.67 2.11 3.18-3.81-.22z"/></g><g class="key-Canada"><circle cx="449" cy="327" r="1.1" fill="#E04E4B" opacity=".7"/><path stroke-width=".51" opacity=".7" stroke="#E04E4B" fill="none" stroke-linecap="butt" d="m449 327 238 93"/><path cx="687" cy="420" r="1.71" fill="#E04E4B" opacity=".7" d="m686.03 417.78 2.56 2.84-3.8.35z"/></g><g class="key-Uganda"><circle cx="71" cy="153" r="1.1" fill="#923E8B" opacity=".7"/><path stroke-width=".5" opacity=".7" stroke="#923E8B" fill="none" stroke-linecap="butt" d="m71 153 239 39"/><path cx="310" cy="192" r="1.7" fill="#923E8B" opacity=".7" d="m308.6 190.05 3.08 2.22-3.63 1.13z"/></g><g class="key-Morocco"><circle cx="63" cy="173" r="1.1" fill="#923E8B" opacity=".7"/><path stroke-width=".5" opacity=".7" stroke="#923E8B" fill="none" stroke-linecap="butt" d="m63 173 223 200"/><path cx="286" cy="373" r="1.7" fill="#923E8B" opacity=".7" d="m285.87 370.6 1.4 3.54-3.67-1z"/></g><g class="key-Iraq"><circle cx="56" cy="91" r="1.1" fill="#2D8587" opacity=".7"/><path stroke-width=".5" opacity=".7" stroke="#2D8587" fill="none" stroke-linecap="butt" d="m56 91 322 191"/><path cx="378" cy="282" r="1.7" fill="#2D8587" opacity=".7" d="m377.4 279.67 2.06 3.2-3.79-.28z"/></g><g class="key-Afghanistan"><circle cx="54" cy="124" r="1.1" fill="#2D8587" opacity=".7"/><path stroke-width=".5" opacity=".7" stroke="#2D8587" fill="none" stroke-linecap="butt" d="m54 124 95 75"/><path cx="149" cy="199" r="1.7" fill="#2D8587" opacity=".7" d="m148.72 196.61 1.61 3.44-3.72-.77z"/></g><g class="key-Peru"><circle cx="164" cy="150" r="1.1" fill="#932834" opacity=".7"/><path stroke-width=".5" opacity=".7" stroke="#932834" fill="none" stroke-linecap="butt" d="m164 150 338 224"/><path cx="502" cy="374" r="1.7" fill="#932834" opacity=".7" d="m501.52 371.64 1.9 3.3-3.78-.46z"/></g><g class="key-Venezuela"><circle cx="118" cy="178" r="1.1" fill="#932834" opacity=".7"/><path stroke-width=".49" opacity=".7" stroke="#932834" fill="none" stroke-linecap="butt" d="m118 178 398 200"/><path cx="516" cy="378" r="1.69" fill="#932834" opacity=".7" d="m515.25 375.73 2.26 3.03h-3.78z"/></g><g class="key-Malaysia"><circle cx="94" cy="180" r="1.1" fill="#2D8587" opacity=".7"/><path stroke-width=".49" opacity=".7" stroke="#2D8587" fill="none" stroke-linecap="butt" d="m94 180 514 214"/><path cx="608" cy="394" r="1.69" fill="#2D8587" opacity=".7" d="m607.09 391.79 2.47 2.86-3.77.26z"/></g><g class="key-Saudi-Arabia"><circle cx="105" cy="137" r="1.1" fill="#2D8587" opacity=".7"/><path stroke-width=".49" opacity=".7" stroke="#2D8587" fill="none" stroke-linecap="butt" d="m105 137 378 215"/><path cx="483" cy="352" r="1.69" fill="#2D8587" opacity=".7" d="m482.37 349.7 2.1 3.14-3.77-.2z"/></g><g class="key-Nepal"><circle cx="52" cy="200" r="1.1" fill="#2D8587" opacity=".7"/><path stroke-width=".49" opacity=".7" stroke="#2D8587" fill="none" stroke-linecap="butt" d="m52 200 183 174"/><path cx="235" cy="374" r="1.69" fill="#2D8587" opacity=".7" d="m234.94 371.61 1.28 3.55-3.6-1.1z"/></g><g class="key-Ghana"><circle cx="67" cy="179" r="1.1" fill="#923E8B" opacity=".7"/><path stroke-width=".49" opacity=".7" stroke="#923E8B" fill="none" stroke-linecap="butt" d="m67 179 321 107"/><path cx="388" cy="286" r="1.69" fill="#923E8B" opacity=".7" d="m386.93 283.86 2.67 2.67-3.74.54z"/></g><g class="key-Mozambique"><circle cx="68" cy="178" r="1.1" fill="#923E8B" opacity=".7"/><path stroke-width=".48" opacity=".7" stroke="#923E8B" fill="none" stroke-linecap="butt" d="m68 178 52 51"/><path cx="120" cy="229" r="1.68" fill="#923E8B" opacity=".7" d="m119.98 226.62 1.22 3.56-3.58-1.16z"/></g><g class="key-Taiwan"><circle cx="145" cy="151" r="1.1" fill="#2D8587" opacity=".7"/><path stroke-width=".48" opacity=".7" stroke="#2D8587" fill="none" stroke-linecap="butt" d="m145 151 533 299"/><path cx="678" cy="450" r="1.68" fill="#2D8587" opacity=".7" d="m677.36 447.71 2.1 3.11-3.75-.18z"/></g><g class="key-Yemen"><circle cx="52" cy="109" r="1.1" fill="#2D8587" opacity=".7"/><path stroke-width=".48" opacity=".7" stroke="#2D8587" fill="none" stroke-linecap="butt" d="m52 109 117 157"/><path cx="169" cy="266" r="1.68" fill="#2D8587" opacity=".7" d="m169.34 263.65.66 3.7-3.35-1.7z"/></g><g class="key-Australia"><circle cx="452" cy="350" r="1.1" fill="#A8633C" opacity=".7"/><path stroke-width=".48" opacity=".7" stroke="#A8633C" fill="none" stroke-linecap="butt" d="m452 350 184 55"/><path cx="636" cy="405" r="1.68" fill="#A8633C" opacity=".7" d="m634.87 402.9 2.74 2.58-3.7.65z"/></g><g class="key-Syria"><circle cx="67" cy="138" r="1.1" fill="#2D8587" opacity=".7"/><path stroke-width=".48" opacity=".7" stroke="#2D8587" fill="none" stroke-linecap="butt" d="m67 138 308 192"/><path cx="375" cy="330" r="1.68" fill="#2D8587" opacity=".7" d="m374.46 327.69 1.97 3.2-3.74-.35z"/></g><g class="key-Cote-d__0027Ivoire"><circle cx="74" cy="128" r="1.1" fill="#923E8B" opacity=".7"/><path stroke-width=".48" opacity=".7" stroke="#923E8B" fill="none" stroke-linecap="butt" d="m74 128 173 116"/><path cx="247" cy="244" r="1.68" fill="#923E8B" opacity=".7" d="m246.54 241.67 1.86 3.27-3.73-.48z"/></g><g class="key-Romania"><circle cx="257" cy="348" r="1.1" fill="#4C5C78" opacity=".7"/><path stroke-width=".48" opacity=".7" stroke="#4C5C78" fill="none" stroke-linecap="butt" d="m257 348 340 78"/><path cx="597" cy="426" r="1.68" fill="#4C5C78" opacity=".7" d="m595.74 423.99 2.9 2.39-3.65.88z"/></g><g class="key-Cameroon"><circle cx="66" cy="222" r="1.1" fill="#923E8B" opacity=".7"/><path stroke-width=".48" opacity=".7" stroke="#923E8B" fill="none" stroke-linecap="butt" d="m66 222 291 21"/><path cx="357" cy="243" r="1.68" fill="#923E8B" opacity=".7" d="m355.45 241.2 3.23 1.92-3.48 1.43z"/></g><g class="key-Sri-Lanka"><circle cx="185" cy="217" r="1.1" fill="#2D8587" opacity=".7"/><path stroke-width=".48" opacity=".7" stroke="#2D8587" fill="none" stroke-linecap="butt" d="m185 217 412 172"/><path cx="597" cy="389" r="1.68" fill="#2D8587" opacity=".7" d="m596.1 386.8 2.45 2.85-3.75.25z"/></g><g class="key-Chile"><circle cx="290" cy="255" r="1.1" fill="#932834" opacity=".7"/><path stroke-width=".47" opacity=".7" stroke="#932834" fill="none" stroke-linecap="butt" d="m290 255 286 152"/><path cx="576" cy="407" r="1.67" fill="#932834" opacity=".7" d="m575.3 404.74 2.17 3.04-3.73-.09z"/></g><g class="key-Netherlands"><circle cx="349" cy="348" r="1.1" fill="#4C5C78" opacity=".7"/><path stroke-width=".47" opacity=".7" stroke="#4C5C78" fill="none" stroke-linecap="butt" d="m349 348 283 66"/><path cx="632" cy="414" r="1.67" fill="#4C5C78" opacity=".7" d="m630.75 412 2.88 2.38-3.64.87z"/></g><g class="key-Niger"><circle cx="55" cy="134" r="1.1" fill="#923E8B" opacity=".7"/><path stroke-width=".46" opacity=".7" stroke="#923E8B" fill="none" stroke-linecap="butt" d="m55 134 59-11"/><path cx="114" cy="123" r="1.66" fill="#923E8B" opacity=".7" d="m112.06 121.67 3.57 1.03-2.96 2.24z"/></g><g class="key-Kazakhstan"><circle cx="163" cy="284" r="1.1" fill="#2D8587" opacity=".7"/><path stroke-width=".46" opacity=".7" stroke="#2D8587" fill="none" stroke-linecap="butt" d="m163 284 456 85"/><path cx="619" cy="369" r="1.66" fill="#2D8587" opacity=".7" d="m617.67 367.06 2.96 2.24-3.57 1.03z"/></g><g class="key-Mali"><circle cx="55" cy="149" r="1.1" fill="#923E8B" opacity=".7"/><path stroke-width=".46" opacity=".7" stroke="#923E8B" fill="none" stroke-linecap="butt" d="m55 149 99 21"/><path cx="154" cy="170" r="1.66" fill="#923E8B" opacity=".7" d="m152.72 168.03 2.9 2.31-3.59.94z"/></g><g class="key-Ecuador"><circle cx="164" cy="161" r="1.1" fill="#932834" opacity=".7"/><path stroke-width=".46" opacity=".7" stroke="#932834" fill="none" stroke-linecap="butt" d="m164 161 302 209"/><path cx="466" cy="370" r="1.66" fill="#932834" opacity=".7" d="m465.58 367.69 1.79 3.25-3.68-.52z"/></g><g class="key-Guatemala"><circle cx="103" cy="140" r="1.1" fill="#E04E4B" opacity=".7"/><path stroke-width=".46" opacity=".7" stroke="#E04E4B" fill="none" stroke-linecap="butt" d="m103 140 186 192"/><path cx="289" cy="332" r="1.66" fill="#E04E4B" opacity=".7" d="m289.04 329.65 1.12 3.54-3.5-1.23z"/></g><g class="key-Malawi"><circle cx="81" cy="155" r="1.1" fill="#923E8B" opacity=".7"/><path stroke-width=".46" opacity=".7" stroke="#923E8B" fill="none" stroke-linecap="butt" d="m81 155 188 77"/><path cx="269" cy="232" r="1.66" fill="#923E8B" opacity=".7" d="m268.1 229.83 2.44 2.8-3.7.28z"/></g><g class="key-Cambodia"><circle cx="57" cy="150" r="1.1" fill="#2D8587" opacity=".7"/><path stroke-width=".46" opacity=".7" stroke="#2D8587" fill="none" stroke-linecap="butt" d="m57 150 200 207"/><path cx="257" cy="357" r="1.66" fill="#2D8587" opacity=".7" d="m257.04 354.65 1.11 3.54-3.5-1.23z"/></g><g class="key-Zambia"><circle cx="114" cy="166" r="1.1" fill="#923E8B" opacity=".7"/><path stroke-width=".46" opacity=".7" stroke="#923E8B" fill="none" stroke-linecap="butt" d="m114 166 274 62"/><path cx="388" cy="228" r="1.66" fill="#923E8B" opacity=".7" d="m386.75 226.01 2.87 2.36-3.6.88z"/></g><g class="key-Zimbabwe"><circle cx="118" cy="160" r="1.1" fill="#923E8B" opacity=".7"/><path stroke-width=".45" opacity=".7" stroke="#923E8B" fill="none" stroke-linecap="butt" d="m118 160 310 138"/><path cx="428" cy="298" r="1.65" fill="#923E8B" opacity=".7" d="m427.16 295.82 2.35 2.85-3.69.17z"/></g><g class="key-Senegal"><circle cx="108" cy="158" r="1.1" fill="#923E8B" opacity=".7"/><path stroke-width=".45" opacity=".7" stroke="#923E8B" fill="none" stroke-linecap="butt" d="m108 158 64 88"/><path cx="172" cy="246" r="1.65" fill="#923E8B" opacity=".7" d="m172.36 243.7.61 3.63-3.27-1.7z"/></g><g class="key-Cuba"><circle cx="232" cy="261" r="1.1" fill="#E04E4B" opacity=".7"/><path stroke-width=".45" opacity=".7" stroke="#E04E4B" fill="none" stroke-linecap="butt" d="m232 261 386 158"/><path cx="618" cy="419" r="1.65" fill="#E04E4B" opacity=".7" d="m617.1 416.85 2.43 2.78-3.68.27z"/></g><g class="key-Belgium"><circle cx="385" cy="385" r="1.1" fill="#4C5C78" opacity=".7"/><path stroke-width=".45" opacity=".7" stroke="#4C5C78" fill="none" stroke-linecap="butt" d="m385 385 237 26"/><path cx="622" cy="411" r="1.65" fill="#4C5C78" opacity=".7" d="m620.54 409.18 3.1 2-3.46 1.28z"/></g><g class="key-Greece"><circle cx="235" cy="378" r="1.1" fill="#4C5C78" opacity=".7"/><path stroke-width=".45" opacity=".7" stroke="#4C5C78" fill="none" stroke-linecap="butt" d="m235 378 401 54"/><path cx="636" cy="432" r="1.65" fill="#4C5C78" opacity=".7" d="m634.58 430.14 3.06 2.08-3.5 1.2z"/></g><g class="key-Tunisia"><circle cx="66" cy="170" r="1.1" fill="#923E8B" opacity=".7"/><path stroke-width=".45" opacity=".7" stroke="#923E8B" fill="none" stroke-linecap="butt" d="m66 170 375 224"/><path cx="441" cy="394" r="1.65" fill="#923E8B" opacity=".7" d="m440.43 391.74 1.99 3.1-3.68-.27z"/></g><g class="key-Portugal"><circle cx="144" cy="345" r="1.1" fill="#4C5C78" opacity=".7"/><path stroke-width=".45" opacity=".7" stroke="#4C5C78" fill="none" stroke-linecap="butt" d="m144 345 385 91"/><path cx="529" cy="436" r="1.65" fill="#4C5C78" opacity=".7" d="m527.77 434.01 2.84 2.37-3.6.85z"/></g><g class="key-Czechia"><circle cx="440" cy="354" r="1.1" fill="#4C5C78" opacity=".7"/><path stroke-width=".45" opacity=".7" stroke="#4C5C78" fill="none" stroke-linecap="butt" d="m440 354 224 75"/><path cx="664" cy="429" r="1.65" fill="#4C5C78" opacity=".7" d="m662.96 426.91 2.6 2.61-3.65.52z"/></g><g class="key-Bolivia"><circle cx="146" cy="170" r="1.1" fill="#932834" opacity=".7"/><path stroke-width=".45" opacity=".7" stroke="#932834" fill="none" stroke-linecap="butt" d="m146 170 322 170"/><path cx="468" cy="340" r="1.65" fill="#932834" opacity=".7" d="m467.31 337.77 2.15 3-3.69-.08z"/></g><g class="key-Rwanda"><circle cx="60" cy="101" r="1.1" fill="#923E8B" opacity=".7"/><path stroke-width=".45" opacity=".7" stroke="#923E8B" fill="none" stroke-linecap="butt" d="m60 101 198 172"/><path cx="258" cy="273" r="1.65" fill="#923E8B" opacity=".7" d="m257.84 270.67 1.4 3.41-3.57-.92z"/></g><g class="key-Haiti"><circle cx="74" cy="182" r="1.1" fill="#E04E4B" opacity=".7"/><path stroke-width=".45" opacity=".7" stroke="#E04E4B" fill="none" stroke-linecap="butt" d="m74 182 189 147"/><path cx="263" cy="329" r="1.65" fill="#E04E4B" opacity=".7" d="m262.71 326.68 1.6 3.33-3.63-.72z"/></g><g class="key-Hungary"><circle cx="400" cy="362" r="1.1" fill="#4C5C78" opacity=".7"/><path stroke-width=".45" opacity=".7" stroke="#4C5C78" fill="none" stroke-linecap="butt" d="m400 362 236 74"/><path cx="636" cy="436" r="1.65" fill="#4C5C78" opacity=".7" d="m634.92 433.93 2.65 2.56-3.64.6z"/></g><g class="key-Dominican-Republic"><circle cx="178" cy="122" r="1.1" fill="#E04E4B" opacity=".7"/><path stroke-width=".45" opacity=".7" stroke="#E04E4B" fill="none" stroke-linecap="butt" d="m178 122 309 254"/><path cx="487" cy="376" r="1.65" fill="#E04E4B" opacity=".7" d="m486.77 373.68 1.5 3.37-3.6-.82z"/></g><g class="key-Sweden"><circle cx="397" cy="389" r="1.1" fill="#4C5C78" opacity=".7"/><path stroke-width=".44" opacity=".7" stroke="#4C5C78" fill="none" stroke-linecap="butt" d="m397 389 245 17"/><path cx="642" cy="406" r="1.64" fill="#4C5C78" opacity=".7" d="m640.48 404.25 3.16 1.86-3.39 1.41z"/></g><g class="key-Benin"><circle cx="68" cy="211" r="1.1" fill="#923E8B" opacity=".7"/><path stroke-width=".44" opacity=".7" stroke="#923E8B" fill="none" stroke-linecap="butt" d="m68 211 143 20"/><path cx="211" cy="231" r="1.64" fill="#923E8B" opacity=".7" d="m209.6 229.15 3.02 2.08-3.47 1.17z"/></g><g class="key-Serbia"><circle cx="224" cy="318" r="1.1" fill="#4C5C78" opacity=".7"/><path stroke-width=".44" opacity=".7" stroke="#4C5C78" fill="none" stroke-linecap="butt" d="m224 318 391 108"/><path cx="615" cy="426" r="1.64" fill="#4C5C78" opacity=".7" d="m613.86 423.98 2.72 2.46-3.6.7z"/></g><g class="key-Burundi"><circle cx="60" cy="157" r="1.1" fill="#923E8B" opacity=".7"/><path stroke-width=".44" opacity=".7" stroke="#923E8B" fill="none" stroke-linecap="butt" d="m60 157 132 32"/><path cx="192" cy="189" r="1.64" fill="#923E8B" opacity=".7" d="m190.8 187.02 2.8 2.37-3.58.82z"/></g><g class="key-United-Arab-Emirates"><circle cx="69" cy="150" r="1.1" fill="#2D8587" opacity=".7"/><path stroke-width=".44" opacity=".7" stroke="#2D8587" fill="none" stroke-linecap="butt" d="m69 150 483 261"/><path cx="552" cy="411" r="1.64" fill="#2D8587" opacity=".7" d="m551.34 408.78 2.1 3-3.66-.12z"/></g><g class="key-Austria"><circle cx="315" cy="408" r="1.1" fill="#4C5C78" opacity=".7"/><path stroke-width=".44" opacity=".7" stroke="#4C5C78" fill="none" stroke-linecap="butt" d="m315 408 228 23"/><path cx="543" cy="431" r="1.64" fill="#4C5C78" opacity=".7" d="m541.53 429.2 3.1 1.96-3.43 1.3z"/></g><g class="key-Honduras"><circle cx="122" cy="123" r="1.1" fill="#E04E4B" opacity=".7"/><path stroke-width=".44" opacity=".7" stroke="#E04E4B" fill="none" stroke-linecap="butt" d="m122 123 260 230"/><path cx="382" cy="353" r="1.64" fill="#E04E4B" opacity=".7" d="m381.86 350.69 1.37 3.4-3.54-.95z"/></g><g class="key-Switzerland"><circle cx="475" cy="385" r="1.1" fill="#4C5C78" opacity=".7"/><path stroke-width=".44" opacity=".7" stroke="#4C5C78" fill="none" stroke-linecap="butt" d="m475 385 195 42"/><path cx="670" cy="427" r="1.64" fill="#4C5C78" opacity=".7" d="m668.74 425.05 2.86 2.3-3.55.9z"/></g><g class="key-Tajikistan"><circle cx="229" cy="247" r="1.1" fill="#2D8587" opacity=".7"/><path stroke-width=".44" opacity=".7" stroke="#2D8587" fill="none" stroke-linecap="butt" d="m229 247 354 73"/><path cx="583" cy="320" r="1.64" fill="#2D8587" opacity=".7" d="m581.73 318.06 2.88 2.27-3.55.94z"/></g><g class="key-Bulgaria"><circle cx="229" cy="368" r="1.1" fill="#4C5C78" opacity=".7"/><path stroke-width=".44" opacity=".7" stroke="#4C5C78" fill="none" stroke-linecap="butt" d="m229 368 367 57"/><path cx="596" cy="425" r="1.64" fill="#4C5C78" opacity=".7" d="m594.63 423.13 3 2.12-3.5 1.12z"/></g><g class="key-Israel"><circle cx="389" cy="273" r="1.1" fill="#2D8587" opacity=".7"/><path stroke-width=".44" opacity=".7" stroke="#2D8587" fill="none" stroke-linecap="butt" d="m389 273 285 78"/><path cx="674" cy="351" r="1.64" fill="#2D8587" opacity=".7" d="m672.85 348.99 2.73 2.44-3.6.72z"/></g><g class="key-Papua-New-Guinea"><circle cx="65" cy="186" r="1.1" fill="#A8633C" opacity=".7"/><path stroke-width=".44" opacity=".7" stroke="#A8633C" fill="none" stroke-linecap="butt" d="m65 186 177 115"/><path cx="242" cy="301" r="1.64" fill="#A8633C" opacity=".7" d="m241.52 298.73 1.86 3.16-3.65-.4z"/></g><g class="key-Jordan"><circle cx="82" cy="119" r="1.1" fill="#2D8587" opacity=".7"/><path stroke-width=".44" opacity=".7" stroke="#2D8587" fill="none" stroke-linecap="butt" d="m82 119 453 200"/><path cx="535" cy="319" r="1.64" fill="#2D8587" opacity=".7" d="m534.16 316.84 2.34 2.82-3.66.18z"/></g><g class="key-Hong-Kong"><circle cx="197" cy="279" r="1.1" fill="#2D8587" opacity=".7"/><path stroke-width=".44" opacity=".7" stroke="#2D8587" fill="none" stroke-linecap="butt" d="m197 279 490 167"/><path cx="687" cy="446" r="1.64" fill="#2D8587" opacity=".7" d="m685.98 443.92 2.57 2.6-3.63.5z"/></g><g class="key-Togo"><circle cx="57" cy="181" r="1.1" fill="#923E8B" opacity=".7"/><path stroke-width=".43" opacity=".7" stroke="#923E8B" fill="none" stroke-linecap="butt" d="m57 181 214 75"/><path cx="271" cy="256" r="1.63" fill="#923E8B" opacity=".7" d="m270 253.92 2.54 2.62-3.62.46z"/></g><g class="key-Sierra-Leone"><circle cx="66" cy="194" r="1.1" fill="#923E8B" opacity=".7"/><path stroke-width=".43" opacity=".7" stroke="#923E8B" fill="none" stroke-linecap="butt" d="m66 194 150 45"/><path cx="216" cy="239" r="1.63" fill="#923E8B" opacity=".7" d="m214.9 236.97 2.66 2.5-3.59.62z"/></g><g class="key-Laos"><circle cx="76" cy="201" r="1.1" fill="#2D8587" opacity=".7"/><path stroke-width=".43" opacity=".7" stroke="#2D8587" fill="none" stroke-linecap="butt" d="m76 201 212 142"/><path cx="288" cy="343" r="1.63" fill="#2D8587" opacity=".7" d="m287.55 340.74 1.8 3.17-3.61-.46z"/></g><g class="key-Paraguay"><circle cx="174" cy="173" r="1.1" fill="#932834" opacity=".7"/><path stroke-width=".43" opacity=".7" stroke="#932834" fill="none" stroke-linecap="butt" d="m174 173 278 191"/><path cx="452" cy="364" r="1.63" fill="#932834" opacity=".7" d="m451.58 361.73 1.76 3.2-3.6-.51z"/></g><g class="key-Libya"><circle cx="53" cy="142" r="1.1" fill="#923E8B" opacity=".7"/><path stroke-width=".43" opacity=".7" stroke="#923E8B" fill="none" stroke-linecap="butt" d="m53 142 478 235"/><path cx="531" cy="377" r="1.63" fill="#923E8B" opacity=".7" d="m530.26 374.82 2.2 2.9-3.64.02z"/></g><g class="key-El-Salvador"><circle cx="118" cy="186" r="1.1" fill="#E04E4B" opacity=".7"/><path stroke-width=".43" opacity=".7" stroke="#E04E4B" fill="none" stroke-linecap="butt" d="m118 186 339 202"/><path cx="457" cy="388" r="1.63" fill="#E04E4B" opacity=".7" d="m456.43 385.77 1.97 3.06-3.63-.26z"/></g><g class="key-Nicaragua"><circle cx="124" cy="149" r="1.1" fill="#E04E4B" opacity=".7"/><path stroke-width=".43" opacity=".7" stroke="#E04E4B" fill="none" stroke-linecap="butt" d="m124 149 281 222"/><path cx="405" cy="371" r="1.63" fill="#E04E4B" opacity=".7" d="m404.73 368.71 1.55 3.3-3.57-.74z"/></g><g class="key-Denmark"><circle cx="321" cy="372" r="1.1" fill="#4C5C78" opacity=".7"/><path stroke-width=".43" opacity=".7" stroke="#4C5C78" fill="none" stroke-linecap="butt" d="m321 372 314 40"/><path cx="635" cy="412" r="1.63" fill="#4C5C78" opacity=".7" d="m633.59 410.18 3.03 2.03-3.44 1.2z"/></g><g class="key-Kyrgyzstan"><circle cx="238" cy="304" r="1.1" fill="#2D8587" opacity=".7"/><path stroke-width=".43" opacity=".7" stroke="#2D8587" fill="none" stroke-linecap="butt" d="m238 304 356 42"/><path cx="594" cy="346" r="1.63" fill="#2D8587" opacity=".7" d="m592.57 344.19 3.05 2-3.43 1.24z"/></g><g class="key-Slovakia"><circle cx="437" cy="321" r="1.1" fill="#4C5C78" opacity=".7"/><path stroke-width=".43" opacity=".7" stroke="#4C5C78" fill="none" stroke-linecap="butt" d="m437 321 240 114"/><path cx="677" cy="435" r="1.63" fill="#4C5C78" opacity=".7" d="m676.23 432.83 2.24 2.87-3.64.07z"/></g><g class="key-Finland"><circle cx="247" cy="344" r="1.1" fill="#4C5C78" opacity=".7"/><path stroke-width=".43" opacity=".7" stroke="#4C5C78" fill="none" stroke-linecap="butt" d="m247 344 352 66"/><path cx="599" cy="410" r="1.63" fill="#4C5C78" opacity=".7" d="m597.7 408.1 2.9 2.2-3.5 1z"/></g><g class="key-Singapore"><circle cx="125" cy="173" r="1.1" fill="#2D8587" opacity=".7"/><path stroke-width=".43" opacity=".7" stroke="#2D8587" fill="none" stroke-linecap="butt" d="m125 173 561 267"/><path cx="686" cy="440" r="1.63" fill="#2D8587" opacity=".7" d="m685.23 437.83 2.24 2.87-3.64.07z"/></g><g class="key-Norway"><circle cx="416" cy="378" r="1.1" fill="#4C5C78" opacity=".7"/><path stroke-width=".43" opacity=".7" stroke="#4C5C78" fill="none" stroke-linecap="butt" d="m416 378 198 29"/><path cx="614" cy="407" r="1.63" fill="#4C5C78" opacity=".7" d="m612.62 405.15 3 2.09-3.47 1.14z"/></g><g class="key-Costa-Rica"><circle cx="227" cy="209" r="1.1" fill="#E04E4B" opacity=".7"/><path stroke-width=".43" opacity=".7" stroke="#E04E4B" fill="none" stroke-linecap="butt" d="m227 209 252 198"/><path cx="479" cy="407" r="1.63" fill="#E04E4B" opacity=".7" d="m478.73 404.71 1.55 3.3-3.57-.74z"/></g><g class="key-Ireland"><circle cx="389" cy="328" r="1.1" fill="#4C5C78" opacity=".7"/><path stroke-width=".43" opacity=".7" stroke="#4C5C78" fill="none" stroke-linecap="butt" d="m389 328 283 74"/><path cx="672" cy="402" r="1.63" fill="#4C5C78" opacity=".7" d="m670.84 400.01 2.74 2.4-3.57.75z"/></g><g class="key-Central-African-Republic"><circle cx="64" cy="228" r="1.1" fill="#923E8B" opacity=".7"/><path stroke-width=".43" opacity=".7" stroke="#923E8B" fill="none" stroke-linecap="butt" d="m64 228 138 10"/><path cx="202" cy="238" r="1.63" fill="#923E8B" opacity=".7" d="m200.5 236.26 3.13 1.86-3.37 1.39z"/></g><g class="key-New-Zealand"><circle cx="522" cy="331" r="1.1" fill="#A8633C" opacity=".7"/><path stroke-width=".43" opacity=".7" stroke="#A8633C" fill="none" stroke-linecap="butt" d="m522 331 104 65"/><path cx="626" cy="396" r="1.63" fill="#A8633C" opacity=".7" d="m625.48 393.75 1.9 3.11-3.63-.34z"/></g><g class="key-Croatia"><circle cx="309" cy="354" r="1.1" fill="#4C5C78" opacity=".7"/><path stroke-width=".43" opacity=".7" stroke="#4C5C78" fill="none" stroke-linecap="butt" d="m309 354 330 72"/><path cx="639" cy="426" r="1.63" fill="#4C5C78" opacity=".7" d="m637.75 424.06 2.84 2.29-3.53.9z"/></g><g class="key-Congo"><circle cx="70" cy="215" r="1.1" fill="#923E8B" opacity=".7"/><path stroke-width=".43" opacity=".7" stroke="#923E8B" fill="none" stroke-linecap="butt" d="m70 215 275 46"/><path cx="345" cy="261" r="1.63" fill="#923E8B" opacity=".7" d="m343.66 259.12 2.95 2.15-3.49 1.07z"/></g><g class="key-Moldova"><circle cx="202" cy="326" r="1.1" fill="#4C5C78" opacity=".7"/><path stroke-width=".43" opacity=".7" stroke="#4C5C78" fill="none" stroke-linecap="butt" d="m202 326 380 112"/><path cx="582" cy="438" r="1.63" fill="#4C5C78" opacity=".7" d="m580.9 435.98 2.66 2.48-3.58.64z"/></g><g class="key-Liberia"><circle cx="65" cy="185" r="1.1" fill="#923E8B" opacity=".7"/><path stroke-width=".43" opacity=".7" stroke="#923E8B" fill="none" stroke-linecap="butt" d="m65 185 141 65"/><path cx="206" cy="250" r="1.63" fill="#923E8B" opacity=".7" d="m205.2 247.84 2.28 2.84-3.64.12z"/></g><g class="key-Panama"><circle cx="243" cy="214" r="1.1" fill="#E04E4B" opacity=".7"/><path stroke-width=".43" opacity=".7" stroke="#E04E4B" fill="none" stroke-linecap="butt" d="m243 214 311 156"/><path cx="554" cy="370" r="1.63" fill="#E04E4B" opacity=".7" d="m553.27 367.81 2.19 2.92h-3.65z"/></g><g class="key-Mauritania"><circle cx="106" cy="192" r="1.1" fill="#923E8B" opacity=".7"/><path stroke-width=".42" opacity=".7" stroke="#923E8B" fill="none" stroke-linecap="butt" d="m106 192 138 58"/><path cx="244" cy="250" r="1.62" fill="#923E8B" opacity=".7" d="m243.13 247.88 2.36 2.75-3.61.24z"/></g><g class="key-Uruguay"><circle cx="278" cy="366" r="1.1" fill="#932834" opacity=".7"/><path stroke-width=".42" opacity=".7" stroke="#932834" fill="none" stroke-linecap="butt" d="m278 366 219 35"/><path cx="497" cy="401" r="1.62" fill="#932834" opacity=".7" d="m495.66 399.14 2.94 2.12-3.46 1.08z"/></g><g class="key-Lithuania"><circle cx="227" cy="356" r="1.1" fill="#4C5C78" opacity=".7"/><path stroke-width=".42" opacity=".7" stroke="#4C5C78" fill="none" stroke-linecap="butt" d="m227 356 398 70"/><path cx="625" cy="426" r="1.62" fill="#4C5C78" opacity=".7" d="m623.69 424.12 2.9 2.16-3.47 1.03z"/></g><g class="key-Kuwait"><circle cx="82" cy="136" r="1.1" fill="#2D8587" opacity=".7"/><path stroke-width=".42" opacity=".7" stroke="#2D8587" fill="none" stroke-linecap="butt" d="m82 136 312 254"/><path cx="394" cy="390" r="1.62" fill="#2D8587" opacity=".7" d="m393.77 387.72 1.49 3.3-3.54-.79z"/></g><g class="key-Albania"><circle cx="164" cy="200" r="1.1" fill="#4C5C78" opacity=".7"/><path stroke-width=".42" opacity=".7" stroke="#4C5C78" fill="none" stroke-linecap="butt" d="m164 200 409 219"/><path cx="573" cy="419" r="1.62" fill="#4C5C78" opacity=".7" d="m572.34 416.8 2.09 2.96-3.62-.1z"/></g><g class="key-Armenia"><circle cx="405" cy="293" r="1.1" fill="#2D8587" opacity=".7"/><path stroke-width=".42" opacity=".7" stroke="#2D8587" fill="none" stroke-linecap="butt" d="m405 293 187 123"/><path cx="592" cy="416" r="1.62" fill="#2D8587" opacity=".7" d="m591.54 413.76 1.81 3.13-3.6-.43z"/></g><g class="key-Jamaica"><circle cx="234" cy="310" r="1.1" fill="#E04E4B" opacity=".7"/><path stroke-width=".42" opacity=".7" stroke="#E04E4B" fill="none" stroke-linecap="butt" d="m234 310 356 83"/><path cx="590" cy="393" r="1.62" fill="#E04E4B" opacity=".7" d="m588.79 391.05 2.79 2.32-3.53.84z"/></g><g class="key-Mongolia"><circle cx="117" cy="224" r="1.1" fill="#2D8587" opacity=".7"/><path stroke-width=".42" opacity=".7" stroke="#2D8587" fill="none" stroke-linecap="butt" d="m117 224 421 145"/><path cx="538" cy="369" r="1.62" fill="#2D8587" opacity=".7" d="m537 366.94 2.53 2.59-3.59.47z"/></g><g class="key-Namibia"><circle cx="162" cy="200" r="1.1" fill="#923E8B" opacity=".7"/><path stroke-width=".42" opacity=".7" stroke="#923E8B" fill="none" stroke-linecap="butt" d="m162 200 232 119"/><path cx="394" cy="319" r="1.62" fill="#923E8B" opacity=".7" d="m393.3 316.82 2.14 2.92-3.62-.04z"/></g><g class="key-Latvia"><circle cx="243" cy="401" r="1.1" fill="#4C5C78" opacity=".7"/><path stroke-width=".42" opacity=".7" stroke="#4C5C78" fill="none" stroke-linecap="butt" d="m243 401 366 26"/><path cx="609" cy="427" r="1.62" fill="#4C5C78" opacity=".7" d="m607.5 425.27 3.12 1.84-3.35 1.4z"/></g><g class="key-Slovenia"><circle cx="324" cy="357" r="1.1" fill="#4C5C78" opacity=".7"/><path stroke-width=".42" opacity=".7" stroke="#4C5C78" fill="none" stroke-linecap="butt" d="m324 357 324 69"/><path cx="648" cy="426" r="1.62" fill="#4C5C78" opacity=".7" d="m646.75 424.08 2.83 2.26-3.5.9z"/></g><g class="key-Lesotho"><circle cx="199" cy="208" r="1.1" fill="#923E8B" opacity=".7"/><path stroke-width=".42" opacity=".7" stroke="#923E8B" fill="none" stroke-linecap="butt" d="m199 208 197 127"/><path cx="396" cy="335" r="1.62" fill="#923E8B" opacity=".7" d="m395.52 332.76 1.84 3.12-3.6-.4z"/></g><g class="key-Botswana"><circle cx="120" cy="174" r="1.1" fill="#923E8B" opacity=".7"/><path stroke-width=".42" opacity=".7" stroke="#923E8B" fill="none" stroke-linecap="butt" d="m120 174 428 176"/><path cx="548" cy="350" r="1.62" fill="#923E8B" opacity=".7" d="m547.12 347.89 2.38 2.73-3.61.26z"/></g><g class="key-Qatar"><circle cx="112" cy="149" r="1.1" fill="#2D8587" opacity=".7"/><path stroke-width=".42" opacity=".7" stroke="#2D8587" fill="none" stroke-linecap="butt" d="m112 149 419 249"/><path cx="531" cy="398" r="1.62" fill="#2D8587" opacity=".7" d="m530.43 395.78 1.96 3.05-3.61-.26z"/></g><g class="key-Gambia"><circle cx="66" cy="180" r="1.1" fill="#923E8B" opacity=".7"/><path stroke-width=".42" opacity=".7" stroke="#923E8B" fill="none" stroke-linecap="butt" d="m66 180 143 39"/><path cx="209" cy="219" r="1.62" fill="#923E8B" opacity=".7" d="m207.86 217.01 2.7 2.42-3.55.7z"/></g><g class="key-Gabon"><circle cx="90" cy="302" r="1.1" fill="#923E8B" opacity=".7"/><path stroke-width=".42" opacity=".7" stroke="#923E8B" fill="none" stroke-linecap="butt" d="m90 302 441-10"/><path cx="531" cy="292" r="1.62" fill="#923E8B" opacity=".7" d="m529.34 290.42 3.28 1.54-3.2 1.7z"/></g><g class="key-Estonia"><circle cx="364" cy="397" r="1.1" fill="#4C5C78" opacity=".7"/><path stroke-width=".42" opacity=".7" stroke="#4C5C78" fill="none" stroke-linecap="butt" d="m364 397 295 22"/><path cx="659" cy="419" r="1.62" fill="#4C5C78" opacity=".7" d="m657.5 417.26 3.12 1.86-3.36 1.38z"/></g><g class="key-Trinidad-and-Tobago"><circle cx="296" cy="235" r="1.1" fill="#E04E4B" opacity=".7"/><path stroke-width=".42" opacity=".7" stroke="#E04E4B" fill="none" stroke-linecap="butt" d="m296 235 312 176"/><path cx="608" cy="411" r="1.62" fill="#E04E4B" opacity=".7" d="m607.38 408.8 2.03 3-3.62-.18z"/></g><g class="key-Mauritius"><circle cx="146" cy="196" r="1.1" fill="#923E8B" opacity=".7"/><path stroke-width=".42" opacity=".7" stroke="#923E8B" fill="none" stroke-linecap="butt" d="m146 196 401 227"/><path cx="547" cy="423" r="1.62" fill="#923E8B" opacity=".7" d="m546.39 420.8 2.02 3-3.62-.19z"/></g><g class="key-Bahrain"><circle cx="78" cy="146" r="1.1" fill="#2D8587" opacity=".7"/><path stroke-width=".42" opacity=".7" stroke="#2D8587" fill="none" stroke-linecap="butt" d="m78 146 355 247"/><path cx="433" cy="393" r="1.62" fill="#2D8587" opacity=".7" d="m432.6 390.74 1.73 3.19-3.59-.53z"/></g><g class="key-Cyprus"><circle cx="186" cy="307" r="1.1" fill="#4C5C78" opacity=".7"/><path stroke-width=".42" opacity=".7" stroke="#4C5C78" fill="none" stroke-linecap="butt" d="m186 307 466 124"/><path cx="652" cy="431" r="1.62" fill="#4C5C78" opacity=".7" d="m650.85 429.02 2.72 2.4-3.55.73z"/></g><g class="key-Eswatini"><circle cx="110" cy="161" r="1.1" fill="#923E8B" opacity=".7"/><path stroke-width=".42" opacity=".7" stroke="#923E8B" fill="none" stroke-linecap="butt" d="m110 161 181 172"/><path cx="291" cy="333" r="1.62" fill="#923E8B" opacity=".7" d="m290.94 330.71 1.23 3.4-3.46-1.05z"/></g><g class="key-Fiji"><circle cx="204" cy="183" r="1.1" fill="#A8633C" opacity=".7"/><path stroke-width=".41" opacity=".7" stroke="#A8633C" fill="none" stroke-linecap="butt" d="m204 183 379 180"/><path cx="583" cy="363" r="1.61" fill="#A8633C" opacity=".7" d="m582.24 360.85 2.21 2.84-3.6.07z"/></g><g class="key-Reunion"><circle cx="196" cy="138" r="1.1" fill="#923E8B" opacity=".7"/><path stroke-width=".41" opacity=".7" stroke="#923E8B" fill="none" stroke-linecap="butt" d="m196 138 309 243"/><path cx="505" cy="381" r="1.61" fill="#923E8B" opacity=".7" d="m504.73 378.74 1.54 3.26-3.53-.73z"/></g><g class="key-Guyana"><circle cx="248" cy="214" r="1.1" fill="#932834" opacity=".7"/><path stroke-width=".41" opacity=".7" stroke="#932834" fill="none" stroke-linecap="butt" d="m248 214 275 154"/><path cx="523" cy="368" r="1.61" fill="#932834" opacity=".7" d="m522.38 365.8 2.02 2.99-3.6-.17z"/></g><g class="key-Macao"><circle cx="194" cy="297" r="1.1" fill="#2D8587" opacity=".7"/><path stroke-width=".41" opacity=".7" stroke="#2D8587" fill="none" stroke-linecap="butt" d="m194 297 325 151"/><path cx="519" cy="448" r="1.61" fill="#2D8587" opacity=".7" d="m518.22 445.86 2.24 2.82-3.6.1z"/></g><g class="key-Luxembourg"><circle cx="271" cy="408" r="1.1" fill="#4C5C78" opacity=".7"/><path stroke-width=".41" opacity=".7" stroke="#4C5C78" fill="none" stroke-linecap="butt" d="m271 408 334 14"/><path cx="605" cy="422" r="1.61" fill="#4C5C78" opacity=".7" d="m603.46 420.32 3.15 1.75-3.29 1.47z"/></g><g class="key-Malta"><circle cx="198" cy="288" r="1.1" fill="#4C5C78" opacity=".7"/><path stroke-width=".41" opacity=".7" stroke="#4C5C78" fill="none" stroke-linecap="butt" d="m198 288 444 145"/><path cx="642" cy="433" r="1.61" fill="#4C5C78" opacity=".7" d="m640.97 430.97 2.56 2.53-3.56.53z"/></g><g class="key-Brunei"><circle cx="94" cy="154" r="1.1" fill="#2D8587" opacity=".7"/><path stroke-width=".41" opacity=".7" stroke="#2D8587" fill="none" stroke-linecap="butt" d="m94 154 396 251"/><path cx="490" cy="405" r="1.61" fill="#2D8587" opacity=".7" d="m489.5 402.78 1.86 3.08-3.58-.36z"/></g><g class="key-Maldives"><circle cx="196" cy="219" r="1.1" fill="#2D8587" opacity=".7"/><path stroke-width=".41" opacity=".7" stroke="#2D8587" fill="none" stroke-linecap="butt" d="m196 219 149 172"/><path cx="345" cy="391" r="1.61" fill="#2D8587" opacity=".7" d="m345.16 388.73.9 3.49-3.33-1.38z"/></g><g class="key-Belize"><circle cx="403" cy="163" r="1.1" fill="#E04E4B" opacity=".7"/><path stroke-width=".41" opacity=".7" stroke="#E04E4B" fill="none" stroke-linecap="butt" d="m403 163 206 203"/><path cx="609" cy="366" r="1.61" fill="#E04E4B" opacity=".7" d="m608.98 363.72 1.17 3.41-3.43-1.11z"/></g><g class="key-Iceland"><circle cx="334" cy="319" r="1.1" fill="#4C5C78" opacity=".7"/><path stroke-width=".41" opacity=".7" stroke="#4C5C78" fill="none" stroke-linecap="butt" d="m334 319 323 78"/><path cx="657" cy="397" r="1.61" fill="#4C5C78" opacity=".7" d="m655.81 395.06 2.76 2.32-3.51.8z"/></g><g class="key-Barbados"><circle cx="283" cy="274" r="1.1" fill="#E04E4B" opacity=".7"/><path stroke-width=".41" opacity=".7" stroke="#E04E4B" fill="none" stroke-linecap="butt" d="m283 274 266 143"/><path cx="549" cy="417" r="1.61" fill="#E04E4B" opacity=".7" d="m548.34 414.82 2.08 2.94-3.6-.1z"/></g><g class="key-Tonga"><circle cx="343" cy="131" r="1.1" fill="#A8633C" opacity=".7"/><path stroke-width=".41" opacity=".7" stroke="#A8633C" fill="none" stroke-linecap="butt" d="m343 131 272 173"/><path cx="615" cy="304" r="1.61" fill="#A8633C" opacity=".7" d="m614.5 301.78 1.86 3.08-3.58-.37z"/></g><g class="backgroundLabels" fill="#333" font-weight="400"><text x="465.02" y="430.12" font-size="14.3" fill="#2D8587" style="fill:#fff;stroke:#fff;stroke-linecap:round;stroke-linejoin:round;stroke-width:.25em">China</text><text x="465.02" y="430.12" font-size="14.3" fill="#2D8587">China</text><text x="327.15" y="381.77" font-size="13.98" fill="#2D8587" style="fill:#fff;stroke:#fff;stroke-linecap:round;stroke-linejoin:round;stroke-width:.25em">India</text><text x="327.15" y="381.77" font-size="13.98" fill="#2D8587">India</text><text x="636" y="410.21" font-size="11.74" fill="#E04E4B" style="fill:#fff;stroke:#fff;stroke-linecap:round;stroke-linejoin:round;stroke-width:.25em">United States</text><text x="636" y="410.21" font-size="11.74" fill="#E04E4B">United States</text><text x="451.64" y="384.64" font-size="11.58" fill="#2D8587" style="fill:#fff;stroke:#fff;stroke-linecap:round;stroke-linejoin:round;stroke-width:.25em">Indonesia</text><text x="451.64" y="384.64" font-size="11.58" fill="#2D8587">Indonesia</text><text x="244.95" y="310.78" font-size="11.43" fill="#2D8587" style="fill:#fff;stroke:#fff;stroke-linecap:round;stroke-linejoin:round;stroke-width:.25em">Pakistan</text><text x="244.95" y="310.78" font-size="11.43" fill="#2D8587">Pakistan</text><text x="650.94" y="429.46" font-size="11.35" fill="#4C5C78" style="fill:#fff;stroke:#fff;stroke-linecap:round;stroke-linejoin:round;stroke-width:.25em">Russia</text><text x="650.94" y="429.46" font-size="11.35" fill="#4C5C78">Russia</text><text x="516.27" y="392.24" font-size="11.28" fill="#E04E4B" style="fill:#fff;stroke:#fff;stroke-linecap:round;stroke-linejoin:round;stroke-width:.25em">Mexico</text><text x="516.27" y="392.24" font-size="11.28" fill="#E04E4B">Mexico</text><text x="502.23" y="349.28" font-size="11.23" fill="#2D8587" style="fill:#fff;stroke:#fff;stroke-linecap:round;stroke-linejoin:round;stroke-width:.25em">Philippines</text><text x="502.23" y="349.28" font-size="11.23" fill="#2D8587">Philippines</text><text x="415.32" y="413.12" font-size="11.21" fill="#2D8587" style="fill:#fff;stroke:#fff;stroke-linecap:round;stroke-linejoin:round;stroke-width:.25em">Vietnam</text><text x="415.32" y="413.12" font-size="11.21" fill="#2D8587">Vietnam</text><text x="410.45" y="346.88" font-size="11.2" fill="#923E8B" style="fill:#fff;stroke:#fff;stroke-linecap:round;stroke-linejoin:round;stroke-width:.25em">Egypt</text><text x="410.45" y="346.88" font-size="11.2" fill="#923E8B">Egypt</text><text x="517.29" y="433.15" font-size="11.16" fill="#2D8587" style="fill:#fff;stroke:#fff;stroke-linecap:round;stroke-linejoin:round;stroke-width:.25em">Thailand</text><text x="517.29" y="433.15" font-size="11.16" fill="#2D8587">Thailand</text><text x="197.9" y="168.99" font-size="11.16" fill="#923E8B" style="fill:#fff;stroke:#fff;stroke-linecap:round;stroke-linejoin:round;stroke-width:.25em">Democratic Republic of Congo</text><text x="197.9" y="168.99" font-size="11.16" fill="#923E8B">Democratic Republic of Congo</text><text x="611.95" y="436.31" font-size="11.14" fill="#4C5C78" style="fill:#fff;stroke:#fff;stroke-linecap:round;stroke-linejoin:round;stroke-width:.25em">Italy</text><text x="611.95" y="436.31" font-size="11.14" fill="#4C5C78">Italy</text><text x="558.28" y="379.15" font-size="11.12" fill="#923E8B" style="fill:#fff;stroke:#fff;stroke-linecap:round;stroke-linejoin:round;stroke-width:.25em">South Africa</text><text x="558.28" y="379.15" font-size="11.12" fill="#923E8B">South Africa</text><text x="660.48" y="449.42" font-size="11.12" fill="#2D8587" style="fill:#fff;stroke:#fff;stroke-linecap:round;stroke-linejoin:round;stroke-width:.25em">South Korea</text><text x="660.48" y="449.42" font-size="11.12" fill="#2D8587">South Korea</text><text x="534.26" y="410.17" font-size="11.11" fill="#932834" style="fill:#fff;stroke:#fff;stroke-linecap:round;stroke-linejoin:round;stroke-width:.25em">Colombia</text><text x="534.26" y="410.17" font-size="11.11" fill="#932834">Colombia</text><text x="334.85" y="233.78" font-size="11.11" fill="#923E8B" style="fill:#fff;stroke:#fff;stroke-linecap:round;stroke-linejoin:round;stroke-width:.25em">Tanzania</text><text x="334.85" y="233.78" font-size="11.11" fill="#923E8B">Tanzania</text><text x="362.38" y="288.96" font-size="11.1" fill="#923E8B" style="fill:#fff;stroke:#fff;stroke-linecap:round;stroke-linejoin:round;stroke-width:.25em">Kenya</text><text x="362.38" y="288.96" font-size="11.1" fill="#923E8B">Kenya</text><text x="403.07" y="366.44" font-size="11.09" fill="#923E8B" style="fill:#fff;stroke:#fff;stroke-linecap:round;stroke-linejoin:round;stroke-width:.25em">Algeria</text><text x="403.07" y="366.44" font-size="11.09" fill="#923E8B">Algeria</text><text x="218.34" y="263.03" font-size="11.08" fill="#923E8B" style="fill:#fff;stroke:#fff;stroke-linecap:round;stroke-linejoin:round;stroke-width:.25em">Sudan</text><text x="218.34" y="263.03" font-size="11.08" fill="#923E8B">Sudan</text><text x="314.93" y="198.34" font-size="11.08" fill="#923E8B" style="fill:#fff;stroke:#fff;stroke-linecap:round;stroke-linejoin:round;stroke-width:.25em">Uganda</text><text x="314.93" y="198.34" font-size="11.08" fill="#923E8B">Uganda</text><text x="152.92" y="207.63" font-size="11.07" fill="#2D8587" style="fill:#fff;stroke:#fff;stroke-linecap:round;stroke-linejoin:round;stroke-width:.25em">Afghanistan</text><text x="152.92" y="207.63" font-size="11.07" fill="#2D8587">Afghanistan</text><text x="238.62" y="382.98" font-size="11.07" fill="#2D8587" style="fill:#fff;stroke:#fff;stroke-linecap:round;stroke-linejoin:round;stroke-width:.25em">Nepal</text><text x="238.62" y="382.98" font-size="11.07" fill="#2D8587">Nepal</text><text x="123.57" y="238.03" font-size="11.06" fill="#923E8B" style="fill:#fff;stroke:#fff;stroke-linecap:round;stroke-linejoin:round;stroke-width:.25em">Mozambique</text><text x="123.57" y="238.03" font-size="11.06" fill="#923E8B">Mozambique</text><text x="171.99" y="275.54" font-size="11.06" fill="#2D8587" style="fill:#fff;stroke:#fff;stroke-linecap:round;stroke-linejoin:round;stroke-width:.25em">Yemen</text><text x="171.99" y="275.54" font-size="11.06" fill="#2D8587">Yemen</text><text x="379.24" y="338.17" font-size="11.05" fill="#2D8587" style="fill:#fff;stroke:#fff;stroke-linecap:round;stroke-linejoin:round;stroke-width:.25em">Syria</text><text x="379.24" y="338.17" font-size="11.05" fill="#2D8587">Syria</text><text x="118.92" y="122.08" font-size="11.04" fill="#923E8B" style="fill:#fff;stroke:#fff;stroke-linecap:round;stroke-linejoin:round;stroke-width:.25em">Niger</text><text x="118.92" y="122.08" font-size="11.04" fill="#923E8B">Niger</text><text x="158.89" y="176.56" font-size="11.04" fill="#923E8B" style="fill:#fff;stroke:#fff;stroke-linecap:round;stroke-linejoin:round;stroke-width:.25em">Mali</text><text x="158.89" y="176.56" font-size="11.04" fill="#923E8B">Mali</text><text x="292.48" y="341.11" font-size="11.04" fill="#E04E4B" style="fill:#fff;stroke:#fff;stroke-linecap:round;stroke-linejoin:round;stroke-width:.25em">Guatemala</text><text x="292.48" y="341.11" font-size="11.04" fill="#E04E4B">Guatemala</text><text x="273.63" y="239.41" font-size="11.03" fill="#923E8B" style="fill:#fff;stroke:#fff;stroke-linecap:round;stroke-linejoin:round;stroke-width:.25em">Malawi</text><text x="273.63" y="239.41" font-size="11.03" fill="#923E8B">Malawi</text><text x="392.88" y="234.62" font-size="11.03" fill="#923E8B" style="fill:#fff;stroke:#fff;stroke-linecap:round;stroke-linejoin:round;stroke-width:.25em">Zambia</text><text x="392.88" y="234.62" font-size="11.03" fill="#923E8B">Zambia</text><text x="432.57" y="305.55" font-size="11.03" fill="#923E8B" style="fill:#fff;stroke:#fff;stroke-linecap:round;stroke-linejoin:round;stroke-width:.25em">Zimbabwe</text><text x="432.57" y="305.55" font-size="11.03" fill="#923E8B">Zimbabwe</text><text x="261.77" y="281.79" font-size="11.02" fill="#923E8B" style="fill:#fff;stroke:#fff;stroke-linecap:round;stroke-linejoin:round;stroke-width:.25em">Rwanda</text><text x="261.77" y="281.79" font-size="11.02" fill="#923E8B">Rwanda</text><text x="215.95" y="237.2" font-size="11.02" fill="#923E8B" style="fill:#fff;stroke:#fff;stroke-linecap:round;stroke-linejoin:round;stroke-width:.25em">Benin</text><text x="215.95" y="237.2" font-size="11.02" fill="#923E8B">Benin</text><text x="587.9" y="326.52" font-size="11.02" fill="#2D8587" style="fill:#fff;stroke:#fff;stroke-linecap:round;stroke-linejoin:round;stroke-width:.25em">Tajikistan</text><text x="587.9" y="326.52" font-size="11.02" fill="#2D8587">Tajikistan</text><text x="678.82" y="357.83" font-size="11.02" fill="#2D8587" style="fill:#fff;stroke:#fff;stroke-linecap:round;stroke-linejoin:round;stroke-width:.25em">Israel</text><text x="678.82" y="357.83" font-size="11.02" fill="#2D8587">Israel</text><text x="539.57" y="326.53" font-size="11.02" fill="#2D8587" style="fill:#fff;stroke:#fff;stroke-linecap:round;stroke-linejoin:round;stroke-width:.25em">Jordan</text><text x="539.57" y="326.53" font-size="11.02" fill="#2D8587">Jordan</text><text x="275.72" y="263.16" font-size="11.02" fill="#923E8B" style="fill:#fff;stroke:#fff;stroke-linecap:round;stroke-linejoin:round;stroke-width:.25em">Togo</text><text x="275.72" y="263.16" font-size="11.02" fill="#923E8B">Togo</text><text x="598.97" y="352.09" font-size="11.01" fill="#2D8587" style="fill:#fff;stroke:#fff;stroke-linecap:round;stroke-linejoin:round;stroke-width:.25em">Kyrgyzstan</text><text x="598.97" y="352.09" font-size="11.01" fill="#2D8587">Kyrgyzstan</text><text x="349.93" y="267.33" font-size="11.01" fill="#923E8B" style="fill:#fff;stroke:#fff;stroke-linecap:round;stroke-linejoin:round;stroke-width:.25em">Congo</text><text x="349.93" y="267.33" font-size="11.01" fill="#923E8B">Congo</text><text x="536" y="291.89" font-size="11" fill="#923E8B" style="fill:#fff;stroke:#fff;stroke-linecap:round;stroke-linejoin:round;stroke-width:.25em">Gabon</text><text x="536" y="291.89" font-size="11" fill="#923E8B">Gabon</text><text x="523.53" y="455.61" font-size="11" fill="#2D8587" style="fill:#fff;stroke:#fff;stroke-linecap:round;stroke-linejoin:round;stroke-width:.25em">Macao</text><text x="523.53" y="455.61" font-size="11" fill="#2D8587">Macao</text><text x="348.27" y="400.28" font-size="11" fill="#2D8587" style="fill:#fff;stroke:#fff;stroke-linecap:round;stroke-linejoin:round;stroke-width:.25em">Maldives</text><text x="348.27" y="400.28" font-size="11" fill="#2D8587">Maldives</text></g></g><g class="ScatterColorLegend clickable" style="cursor:pointer"><g class="legendMark"><path fill="#923E8B" d="M738.09 93.1h9v9h-9z"/><text font-size="12.6" x="752.1" y="101.4"><tspan x="752.09" y="101.38">Africa</tspan></text></g><g class="legendMark"><path fill="#2D8587" d="M738.09 110.7h9v9h-9z"/><text font-size="12.6" x="752.1" y="119"><tspan x="752.09" y="118.98">Asia</tspan></text></g><g class="legendMark"><path fill="#4C5C78" d="M738.09 128.3h9v9h-9z"/><text font-size="12.6" x="752.1" y="136.6"><tspan x="752.09" y="136.58">Europe</tspan></text></g><g class="legendMark"><path fill="#E04E4B" d="M738.09 145.9h9v9h-9z"/><text font-size="12.6" x="752.1" y="154.2"><tspan x="752.09" y="154.18">North America</tspan></text></g><g class="legendMark"><path fill="#A8633C" d="M738.09 163.5h9v9h-9z"/><text font-size="12.6" x="752.1" y="171.8"><tspan x="752.09" y="171.78">Oceania</tspan></text></g><g class="legendMark"><path fill="#932834" d="M738.09 181.1h9v9h-9z"/><text font-size="12.6" x="752.1" y="189.4"><tspan x="752.09" y="189.38">South America</tspan></text></g></g><path stroke="#ccc" d="M738.09 198.9H830"/><g class="clickable"><g class="ConnectedScatterLegend"><text font-size="12.6" x="738.1" y="218" fill="#333"><tspan x="738.09" y="217.98">1950</tspan></text><text font-size="12.6" x="806.8" y="218" fill="#333"><tspan x="806.78" y="217.98">2010</tspan></text><path stroke="#666" stroke-width="1" d="M771.32 213.7h30.46"/><circle cx="771.32" cy="213.7" r="2" fill="#666" stroke="#ccc" stroke-width=".2"/><path cx="801.78" cy="213.7" r="3" fill="#666" stroke="#ccc" stroke-width=".2" d="m798.78 210.7 6 3-6 3z"/></g></g></g><g class="SourcesFooter" style="fill:#777"><g style="fill:#777"><text font-size="12.6" x="15" y="582.5"><tspan x="15" y="582.48">Source: United Nations – Population Division (2019 Revision), Our World In Data (2017)</tspan></text></g><text font-size="12.6" x="604.2" y="582.5"><tspan x="604.17" y="582.48"><a target="_blank" style="fill:#777" href="https://ourworldindata.org/fertility-rate">OurWorldInData.org/fertility-rate</a> • <a style="fill:#777" class="cclogo" href="http://creativecommons.org/licenses/by/4.0/deed.en_US" target="_blank">CC BY</a></tspan></text></g></svg>